<?xml version="1.0" encoding="UTF-8" standalone="no"?>
<svg xmlns="http://www.w3.org/2000/svg" xmlns:xlink="http://www.w3.org/1999/xlink" width="297.000mm" height="210.000mm" viewBox="0.000000 0.000000 297.000000 210.000000" stroke-linejoin="round" stroke-linecap="round" fill="none" fill-rule="evenodd"><desc>Composer Export</desc><script type="text/ecmascript"><![CDATA[
if(typeof(top) != "undefined")
{
	top.ShowPaper = ShowPaper;
}
function ShowHotSpot(evt,hotspotid)
{
	var svgDocument = evt.target.ownerDocument;
	var strId = "hotspot."+hotspotid;
	var hotspot = svgDocument.getElementById(strId);
	if(hotspot)
		hotspot.setAttribute("opacity",".5");
}
function HideHotSpot(evt,hotspotid)
{
	var svgDocument = evt.target.ownerDocument;
	var strId = "hotspot."+hotspotid;
	var hotspot = svgDocument.getElementById(strId);
	if(hotspot)
		hotspot.setAttribute("opacity","0");

	var toolTip = svgDocument.getElementById('ToolTip');
	if(toolTip)
		toolTip.setAttribute("visibility","hidden");
}
function ShowToolTip(evt,hotspotid,strTooltip)
{
	if(strTooltip=="")
	return;

	// change text
	var svgDocument = evt.target.ownerDocument;
	var tiptext = svgDocument.getElementById('ToolTipText');
	if( !tiptext )
	return;
	tiptext.firstChild.nodeValue = " " + strTooltip + "  " ;

	// show tooltip before, else some refresh issue

	var toolTip = svgDocument.getElementById('ToolTip');
	if(!toolTip)
	return;

	toolTip.setAttribute("visibility","visible");
	toolTip.setAttribute("opacity",".95");

	// move tooltip
	// get viewbox

	var root = svgDocument.documentElement;
	var vbox = (root.getAttribute("viewBox")).split(' ');
	var x0 = parseFloat(vbox[0]);
	var y0 = parseFloat(vbox[1]);
	var vboxW = parseFloat(vbox[2]);
	var vboxH = parseFloat(vbox[3]);

	// get default width of svg

	var strW = root.getAttribute("width");
	var svgW = parseFloat(strW);
	if(strW.indexOf('mm') != -1)
	svgW *= 3.779;

	var strH = root.getAttribute("height");
	var svgH = parseFloat(strH);
	if(strH.indexOf('mm') != -1)
	svgH *= 3.779;  	// 96 dpi  -> 96/25.4 = 3.779

	// update the viewbox / width / height if svg is embedded in html with zoom fit all
	var realx0 = x0;
	var realy0 = y0;
	var realvboxW = vboxW;
	var realvboxH = vboxH;
	var realsvgW = svgW;
	var realsvgH = svgH;

	if ((typeof(top) == "undefined") || (typeof(top.svgctl1) != "undefined")) // embedded in html
	{
		// get window size in pxl

		svgW = window.innerWidth;
		svgH = window.innerHeight;

		// calculate real viewbox

		realsvgW = svgW;
		realsvgH = svgH;
		if((svgW / svgH) > (vboxW / vboxH))
		{
			realvboxW = (vboxH * svgW) / svgH;
			realvboxH = vboxH;
			realx0 = x0 - (realvboxW - vboxW)/2 ;
		}
		else
		{
			realvboxH = (vboxW * svgH) / svgW;
			realvboxW = vboxW;
			realy0 = y0 - (realvboxH - vboxH)/2 ;
		}
	}

	// get user zoom/pan

	var newScale = root.currentScale;
	var translation = root.currentTranslate;

	// transform pxl to user unit

	var xPos = (((evt.clientX+10- translation.x)/newScale) * realvboxW)/realsvgW  + realx0 ;
	var yPos = (((evt.clientY+5- translation.y)/newScale) * realvboxH)/ realsvgH  + realy0 ;
	var scaleForWidth = ( (1 / newScale) * realvboxH) / realsvgH;

	// move tooltip

	toolTip.setAttribute("transform", "translate(" + xPos + "," + yPos + ")" );

	// resize tooltip

	var fontsize = 12;
	tiptext.setAttribute("font-size",fontsize*scaleForWidth);
	tiptext.setAttribute("y", fontsize*scaleForWidth);
	var tipBG = svgDocument.getElementById('ToolTipBG');
	var outline = tiptext.getBBox();
	if(tipBG)
	{
		tipBG.setAttribute("stroke-width", 1*scaleForWidth);
		tipBG.setAttribute("width", Number(outline.width) );
		tipBG.setAttribute("height", Number(outline.height) + fontsize*.5*scaleForWidth );
	}
	var ToolTipShadow = svgDocument.getElementById('ToolTipShadow');
	if(ToolTipShadow)
	{
		ToolTipShadow.setAttribute("width", Number(outline.width) );
		ToolTipShadow.setAttribute("height", Number(outline.height) + fontsize*.5*scaleForWidth );
		ToolTipShadow.setAttribute("x", 3*scaleForWidth);
		ToolTipShadow.setAttribute("y", 3*scaleForWidth);
	}
}
function ShowPaper()
{
  var svgDocument = getDocument();
  var paper = svgDocument.getElementById("paperID");
  if(paper)
  {
    paper.setAttribute("transform","scale(1)");
    paper.setAttribute("opacity","1");
    paper.setAttribute("visibility","visible");
  }
  var svg = svgDocument.getRootElement();
  if(svg)
  {
    svg.setAttribute("width","307.000mm");
    svg.setAttribute("height","220.000mm");
    svg.setAttribute("viewBox","-5.000000 -5.000000 307.000000 220.000000");
  }
}
]]></script><defs/><g><g id="Actor_.0"><g style="stroke:#000000;stroke-width:0.123"><path d="M215.24,88.17L213.84,88.52L213.77,86.67L211.61,85.95"/><path d="M213.84,88.52L213.13,88.28"/><path d="M213.77,86.67L216.25,86.05L216.32,87.91"/><path d="M216.25,86.05L216.54,84.73"/></g><g style="stroke:#000000;stroke-width:0.123"><path d="M212.30,84.54L211.92,84.63L211.61,85.95L211.68,87.80L213.13,88.28"/><path d="M215.24,88.17L216.32,87.91L216.61,86.58L216.54,84.73L216.08,84.58"/></g></g><g id="Actor_.1"><g style="stroke:#000000;stroke-width:0.123"><path d="M212.30,84.39L212.31,84.49L212.34,84.60L212.38,84.71L212.44,84.81L212.52,84.91L212.62,85.00L212.74,85.09L212.87,85.17L213.11,85.28L213.45,85.39L213.82,85.45L214.19,85.48L214.51,85.46L214.88,85.41L215.22,85.31L215.38,85.24L215.52,85.17L215.73,85.04L215.84,84.94L215.92,84.85L215.99,84.75L216.04,84.64L216.07,84.54L216.08,84.43"/><path d="M212.31,83.51L212.32,83.50"/><path d="M216.12,82.67L216.11,82.74L216.09,82.84L216.04,82.95L215.98,83.05L215.90,83.15L215.80,83.24L215.69,83.33L215.56,83.41L215.30,83.53L214.98,83.63L214.61,83.69L214.23,83.71L213.84,83.69L213.53,83.64L213.19,83.54L213.04,83.48L212.89,83.40L212.76,83.32L212.65,83.24L212.55,83.14L212.47,83.05L212.40,82.94L212.36,82.84L212.33,82.73L212.33,82.63"/><path d="M212.34,81.74L212.34,81.73"/><path d="M212.35,81.08L212.35,81.15L212.37,81.25L212.41,81.36L212.46,81.46L212.54,81.56L212.63,81.66L212.74,81.74L212.87,81.83L213.01,81.90L213.16,81.97L213.50,82.07L213.87,82.14L214.19,82.16L214.57,82.14L214.94,82.09L215.28,81.99L215.58,81.85L215.72,81.77L215.83,81.69L215.93,81.60L216.01,81.50L216.07,81.40L216.12,81.29L216.14,81.19L216.15,81.11"/><path d="M213.50,84.52L213.23,84.44L213.02,84.36L212.79,84.23L212.62,84.10L212.61,84.73L212.71,84.86L212.83,84.97L212.99,85.07L213.12,85.14L213.22,85.24L213.29,85.27L213.49,85.27L213.75,85.33L213.96,85.35L214.36,85.36L214.56,85.39L214.61,85.39L214.67,85.37L214.78,85.30L214.79,84.55L214.47,84.59L214.15,84.59L213.83,84.57L213.50,84.52L213.49,85.27"/><path d="M212.61,84.73L212.49,84.67L212.46,84.63L212.46,83.98"/><path d="M212.46,83.94L212.62,84.10"/><path d="M212.49,82.22L212.48,82.85L212.49,82.88L212.52,82.91L212.63,82.97L212.73,83.09L212.86,83.21L212.97,83.28L213.14,83.38L213.24,83.48L213.32,83.51L213.51,83.51L213.72,83.55L213.94,83.58L214.16,83.60L214.39,83.59L214.60,83.63L214.69,83.61L214.81,83.54L215.03,83.49L215.23,83.41L215.41,83.33L215.53,83.25L215.70,83.20L215.75,83.17L215.77,83.14L215.77,83.04L215.84,82.92L215.90,82.79L215.91,82.69L215.92,82.54L215.96,82.45L215.97,82.24"/><path d="M212.63,82.97L212.64,82.34L212.82,82.47L213.05,82.59L213.27,82.67L213.52,82.75L213.51,83.51"/><path d="M212.64,82.34L212.49,82.17"/><path d="M213.52,82.75L213.86,82.80L214.17,82.82L214.50,82.82L214.82,82.77L214.81,83.54"/><path d="M214.78,85.30L214.94,85.27L215.15,85.20L215.33,85.12L215.50,85.02L215.67,84.97L215.72,84.93L215.73,84.90L215.74,84.80L215.83,84.65L215.87,84.52L215.88,84.30L215.93,84.21L215.93,83.97L215.85,84.06L215.75,84.15L215.63,84.24L215.47,84.33L215.30,84.40L215.13,84.46L214.79,84.55"/><path d="M214.82,82.77L215.16,82.69L215.48,82.57L215.62,82.49L215.75,82.41L215.86,82.32L215.97,82.20"/><path d="M215.74,84.80L215.75,84.15"/><path d="M215.73,84.89L215.73,84.89"/><path d="M215.88,84.30L215.89,84.03"/><path d="M215.88,84.42L215.88,84.40"/><path d="M215.93,84.21L215.93,84.00"/><path d="M215.77,83.04L215.78,82.38"/><path d="M215.91,82.66L215.91,82.64"/><path d="M215.92,82.54L215.92,82.26"/><path d="M215.78,82.60L215.77,82.75"/><path d="M216.13,81.78L216.13,81.78"/></g><g style="stroke:#000000;stroke-width:0.123"><path d="M212.85,80.38L212.74,80.45L212.63,80.53L212.49,80.69L212.39,80.86L212.36,80.97L212.35,81.04L212.34,81.81L212.37,81.96L212.41,82.06L212.49,82.17L212.49,82.22L212.39,82.38L212.33,82.55L212.31,83.54L212.33,83.65L212.36,83.76L212.41,83.86L212.46,83.94L212.46,83.98L212.40,84.07L212.35,84.17L212.31,84.35L212.29,85.48"/><path d="M215.85,80.53L215.97,80.66L216.07,80.80L216.12,80.94L216.15,81.08L216.13,81.85L216.08,82.03L216.02,82.13L215.97,82.20L215.97,82.24L216.02,82.31L216.07,82.42L216.10,82.52L216.12,82.63L216.09,83.62L216.04,83.80L215.99,83.90L215.93,83.97L215.93,84.00L215.98,84.08L216.04,84.18L216.08,84.36L216.06,85.39"/></g></g><g id="Actor_.2"><g style="stroke:#000000;stroke-width:0.123"><path d="M266.31,63.09L266.05,61.92L265.24,62.38L264.20,61.69"/><path d="M264.76,64.22L265.53,63.64L265.24,62.38"/><path d="M265.20,61.36L266.05,61.91"/><path d="M265.53,63.64L266.33,63.18"/><path d="M267.49,60.53L267.68,60.68L267.77,60.78L267.94,61.01L268.05,61.26L268.08,61.39L268.11,61.57"/></g><g style="stroke:#000000;stroke-width:0.123"><path d="M263.55,62.79L263.43,62.28L264.20,61.69L265.00,61.23L265.20,61.36L266.74,60.48L266.82,60.43L266.92,60.40L267.03,60.39L267.13,60.40L267.25,60.42L267.36,60.46L267.49,60.53L268.83,59.77L268.90,59.74L268.98,59.74L269.06,59.74L269.23,59.81L269.39,59.94L269.51,60.11L269.55,60.20L269.60,60.40L269.59,60.58L269.56,60.66L269.52,60.73L269.47,60.79L269.41,60.83L268.11,61.57L268.10,61.77L268.07,61.89L268.03,61.99L267.98,62.08L267.91,62.16L267.84,62.22L266.31,63.09L266.33,63.18L265.56,63.76L264.76,64.22L264.17,63.84"/></g></g><g id="Actor_21.0"><g style="stroke:#000000;stroke-width:0.123"><path d="M136.83,31.85L136.17,31.63L135.08,31.14L134.88,31.59L135.11,31.69L135.09,31.79L134.77,31.62L134.36,31.37L133.49,30.74L133.26,31.14L133.54,31.34L133.50,31.39L133.24,31.17L132.90,30.84L132.60,30.50L132.25,30.07L132.05,30.38L131.74,29.77L131.52,29.19L131.42,29.34L131.36,28.73L131.37,28.23"/><path d="M131.52,29.19L132.05,29.28L132.58,29.34"/><path d="M131.42,29.34L131.40,29.38"/><path d="M131.49,28.27L132.46,28.59L132.47,28.53"/><path d="M132.27,30.71L132.28,30.70L132.21,30.63L132.27,30.71L132.34,30.94"/><path d="M132.46,30.86L132.28,30.70"/><path d="M132.05,30.38L132.02,30.42L132.21,30.63"/><path d="M132.25,30.07L132.71,30.06L133.15,30.03L133.27,30.12"/><path d="M132.10,27.46L132.81,27.85"/><path d="M133.50,31.39L133.48,31.62"/><path d="M133.54,31.34L133.67,31.42"/><path d="M133.49,30.74L133.81,30.67L134.12,30.56"/><path d="M139.16,28.92L139.19,28.70L139.18,28.57L139.09,28.30L139.01,28.17L138.81,27.94L138.51,27.70L138.16,27.51L137.75,27.36L137.54,27.30L137.31,27.25L136.83,27.18L136.34,27.16L135.61,27.22L135.15,27.32L134.93,27.39L134.56,27.54L134.19,27.75L134.04,27.86L133.79,28.10L133.62,28.36L133.54,28.63L133.53,28.77L133.56,29.00"/><path d="M133.45,27.31L133.59,27.23L133.15,26.82"/><path d="M134.51,26.84L134.69,26.79L134.49,26.42"/><path d="M134.99,32.03L135.09,31.79"/><path d="M135.08,31.14L135.36,30.87"/><path d="M135.12,31.69L135.14,31.70"/><path d="M135.89,25.67L135.99,26.48L136.03,26.32L136.04,26.26"/><path d="M136.11,26.57L136.00,26.58L135.99,26.49"/><path d="M138.52,31.58L137.90,31.48L136.82,31.21L136.72,30.92L136.74,31.30L136.68,31.69L136.82,31.21"/><path d="M136.61,30.93L136.72,30.92"/><path d="M136.68,31.69L136.82,31.72"/><path d="M137.68,26.36L137.66,26.40L137.43,26.55L137.34,26.63L137.61,25.73"/><path d="M137.34,26.63L137.45,26.64"/><path d="M138.44,31.44L138.31,31.36L138.21,31.06L138.04,30.71L138.27,30.83L138.51,30.93L138.45,31.44"/><path d="M138.04,30.71L138.23,30.65"/><path d="M138.51,30.93L139.44,31.01L139.94,31.00"/><path d="M139.95,30.86L139.93,30.35L139.54,30.32L139.16,30.25L139.46,30.56L139.67,30.83L139.79,30.85"/><path d="M139.18,26.12L138.57,26.93L139.12,26.79L139.16,26.76"/><path d="M140.92,30.19L140.61,30.28L139.93,30.35"/><path d="M140.72,30.07L140.64,30.07L140.18,29.76L139.93,29.62L140.41,29.60L140.91,29.54L141.20,29.40L141.31,29.31L141.25,29.49"/><path d="M139.93,29.62L139.92,29.62"/><path d="M141.14,29.17L141.09,29.18L140.26,28.88L140.25,28.94"/><path d="M141.16,27.64L140.64,27.90L140.13,28.13L140.94,28.26L140.99,28.25"/><path d="M140.13,28.13L140.15,28.19"/><path d="M140.26,28.88L140.80,28.76L141.34,28.60L141.51,29.07"/><path d="M140.30,27.42L140.28,27.43L139.54,27.45L139.97,27.13L140.41,26.78"/><path d="M139.54,27.45L139.42,27.36"/><path d="M141.01,30.04L140.91,29.54"/><path d="M141.21,29.60L141.20,29.70"/><path d="M141.33,29.27L141.31,29.31"/><path d="M141.32,29.29L141.31,29.32"/><path d="M141.34,28.60L141.35,28.49"/><path d="M141.35,28.53L141.40,28.73"/></g><g style="stroke:#000000;stroke-width:0.123"><path d="M131.62,30.06L131.45,29.78L131.31,29.50L131.40,29.38L131.27,28.90L131.22,28.50L131.37,28.23L131.49,28.27L131.63,27.77L131.82,27.29L132.10,27.46L132.46,26.92L132.82,26.49L133.15,26.82L133.76,26.27L134.23,25.93L134.49,26.42L135.26,25.96L135.89,25.67L136.04,25.93L136.04,26.26L136.97,25.90L137.61,25.73L137.82,26.02L137.68,26.36L138.62,26.17L139.18,26.12L139.42,26.45L139.16,26.76L140.00,26.74L140.41,26.78L140.66,27.16L140.30,27.42L140.42,27.42L140.86,27.51L141.10,27.60L141.16,27.64L141.38,28.07L140.99,28.25L141.17,28.28L141.33,28.44L141.51,29.07L141.14,29.17L141.34,29.24L141.24,29.55L141.15,29.90L141.11,29.97L141.01,30.04L140.72,30.07L140.92,30.19L140.69,30.60L140.54,30.70L140.33,30.79L139.95,30.86L139.79,30.85L139.94,31.00L139.70,31.36L139.40,31.43L139.18,31.45L138.45,31.44L138.52,31.58L138.30,31.90L137.89,31.89L137.59,31.87L136.82,31.72L136.83,31.85L136.66,32.13L136.20,32.04L135.86,31.95L135.14,31.70L134.99,32.03L134.29,31.75L133.67,31.42L133.48,31.62L132.97,31.28L132.46,30.86L132.34,30.94L131.96,30.52L131.62,30.06"/><path d="M133.58,28.92L133.56,29.00L133.62,29.17L133.79,29.43L134.04,29.67L134.36,29.88L134.74,30.05L135.17,30.19L135.52,30.26L135.88,30.30L136.38,30.32L136.87,30.29L137.35,30.21L137.79,30.09L138.20,29.93L138.54,29.73L138.82,29.50L139.03,29.25L139.10,29.11L139.16,28.92L139.09,28.72L139.01,28.59L138.80,28.34L138.52,28.12L138.17,27.94L137.76,27.78L137.31,27.67L136.84,27.60L136.35,27.59L135.86,27.62L135.39,27.69L134.94,27.81L134.54,27.97L134.20,28.17L133.91,28.40L133.71,28.65L133.58,28.92"/></g></g><g id="Actor_.3"><g style="stroke:#000000;stroke-width:0.123"><path d="M172.99,63.69L173.00,63.70"/><path d="M173.30,64.42L173.29,64.40"/><path d="M174.49,50.53L174.48,50.61L174.50,50.23"/><path d="M174.48,50.61L174.48,50.72"/><path d="M176.21,63.16L176.19,63.10"/><path d="M178.70,71.89L178.69,71.89"/><path d="M177.95,66.30L177.93,66.27"/><path d="M180.70,69.46L180.82,69.57"/><path d="M185.50,72.35L185.49,72.35"/><path d="M188.92,73.12L188.97,73.13"/><path d="M210.37,76.44L210.40,76.44"/><path d="M211.30,76.63L211.24,76.61"/><path d="M211.10,73.49L211.09,73.49"/><path d="M211.84,76.86L211.77,76.82"/><path d="M212.11,77.03L212.10,77.02"/><path d="M212.22,73.75L212.22,73.75"/><path d="M213.04,79.07L213.04,79.17"/><path d="M212.92,78.11L212.91,78.11"/><path d="M213.01,78.55L213.03,78.62"/><path d="M212.50,77.37L212.43,77.30"/><path d="M212.67,77.60L212.62,77.54"/><path d="M212.79,77.81L212.81,77.85"/><path d="M214.65,75.26L214.68,75.28"/><path d="M215.13,75.85L215.14,75.86"/><path d="M216.00,78.18L216.00,78.18"/></g><g style="stroke:#000000;stroke-width:0.123"><path d="M173.98,33.80L171.55,46.93L171.26,49.96L171.27,52.13L171.63,58.15L172.15,61.04L172.99,63.69"/><path d="M173.29,64.40L173.00,63.70"/><path d="M213.22,81.70L212.88,81.35L212.77,81.02L213.04,79.07L212.84,77.92L212.54,77.43L212.18,77.08L211.06,76.56L209.85,76.41L189.22,76.25L186.16,75.78L183.25,74.81L181.67,74.02L180.09,73.01L178.70,71.89L177.53,70.75L176.17,69.21L174.93,67.48L174.21,66.28L173.30,64.42"/><path d="M174.50,50.18L174.76,57.16L175.10,59.59L175.57,61.41L176.19,63.10L176.98,64.73L177.93,66.27"/><path d="M174.50,50.23L174.77,47.42L177.32,34.02"/><path d="M177.94,66.28L179.01,67.69L180.68,69.44"/><path d="M180.70,69.46L182.37,70.78L184.07,71.75L185.90,72.49L187.93,72.98L190.48,73.21L210.64,73.43L211.79,73.63L212.85,73.99L213.79,74.52L214.65,75.26"/><path d="M214.68,75.28L215.13,75.85"/><path d="M215.75,81.16L216.00,79.59L216.00,78.18L215.74,77.06L215.14,75.86"/></g></g><g id="Actor_.4"><g style="stroke:#000000;stroke-width:0.123"><path d="M218.48,93.01L218.96,91.59L217.96,89.78L216.48,89.41"/><path d="M217.96,89.78L218.88,89.27"/><path d="M218.96,91.59L219.88,91.08"/></g><g style="stroke:#000000;stroke-width:0.123"><path d="M218.29,92.96L218.48,93.01L219.40,92.50L219.88,91.08L218.88,89.27L217.40,88.91L216.48,89.41L216.42,89.60"/></g></g><g id="Actor_.5"><g style="stroke:#000000;stroke-width:0.123"><path d="M219.83,90.40L219.84,90.39"/><path d="M219.21,89.08L219.18,89.13"/><path d="M219.37,88.71L219.37,88.71"/><path d="M219.32,88.85L219.31,88.87"/><path d="M219.34,88.78L219.34,88.78"/><path d="M219.38,88.62L219.38,88.63"/><path d="M219.40,88.47L219.40,88.47"/><path d="M219.33,84.56L219.33,84.57"/><path d="M219.34,84.37L219.36,84.26"/><path d="M219.89,82.99L219.89,82.99"/><path d="M220.52,89.39L220.52,89.39"/><path d="M220.66,84.27L220.65,84.35"/><path d="M220.74,84.06L220.71,84.12"/><path d="M220.84,83.87L220.86,83.85"/><path d="M220.43,82.43L220.43,82.43"/><path d="M221.14,83.52L221.15,83.50"/><path d="M223.52,80.56L223.53,80.55"/><path d="M224.12,81.67L224.08,81.69"/><path d="M226.47,79.77L226.47,79.77"/><path d="M226.13,79.80L226.13,79.80"/><path d="M232.34,81.20L232.33,81.20"/><path d="M232.03,81.22L232.01,81.22"/><path d="M232.25,79.93L232.25,79.93"/><path d="M231.96,79.95L231.97,79.95"/><path d="M234.68,79.30L234.67,79.30"/></g><g style="stroke:#000000;stroke-width:0.123"><path d="M219.39,88.58L219.25,89.00L218.95,89.41"/><path d="M219.83,90.40L219.61,90.60"/><path d="M226.56,81.04L225.23,81.26L224.28,81.59L221.57,83.18L220.91,83.78L220.64,84.42L220.67,88.91L220.43,89.58L219.84,90.39"/><path d="M219.34,84.37L219.39,88.55"/><path d="M223.52,80.56L220.43,82.43L219.72,83.24L219.50,83.69L219.36,84.26"/><path d="M223.53,80.55L224.59,80.12L226.13,79.80L227.45,79.74L231.96,79.95L233.30,79.78L234.47,79.40L264.14,62.45"/><path d="M226.79,81.02L232.02,81.22"/><path d="M232.03,81.22L233.88,80.95L234.71,80.68L235.49,80.31L264.81,63.47"/></g></g><g id="Actor_.6"><g style="stroke:#000000;stroke-width:0.123"><path d="M118.13,138.11L118.13,138.08"/><path d="M118.07,136.69L118.12,137.07L118.14,137.10L118.24,137.17L118.17,136.62L118.33,136.73L118.48,136.81L118.69,136.89L118.91,136.96L119.03,137.81L118.83,137.81L118.74,137.77L118.66,137.65L118.51,137.54L118.38,137.42L118.29,137.28L118.25,137.18"/><path d="M118.00,137.10L118.02,137.22L118.07,137.34L118.14,137.45L118.22,137.55L118.42,137.71L118.56,137.79L118.71,137.86L118.88,137.92L119.07,137.97L119.39,138.03L119.81,138.05L120.25,138.02L120.68,137.95L121.02,137.84L121.39,137.69L121.56,137.59L121.71,137.49L121.85,137.38L121.97,137.27L122.07,137.15L122.15,137.03L122.21,136.90L122.25,136.78L122.26,136.65L122.26,136.53"/><path d="M117.86,136.07L117.86,136.09"/><path d="M122.03,134.77L122.04,134.89L122.02,135.01L121.99,135.14L121.93,135.26L121.85,135.38L121.75,135.50L121.63,135.61L121.49,135.72L121.22,135.89L120.86,136.05L120.45,136.18L120.02,136.25L119.66,136.28L119.23,136.27L118.84,136.21L118.65,136.16L118.48,136.09L118.23,135.97L118.10,135.88L118.00,135.79L117.91,135.68L117.84,135.57L117.79,135.46L117.76,135.34"/><path d="M118.04,136.48L118.17,136.62"/><path d="M118.26,139.11L118.28,139.23L118.33,139.35L118.40,139.46L118.49,139.56L118.68,139.72L118.82,139.80L118.97,139.87L119.14,139.94L119.33,139.99L119.65,140.04L120.07,140.06L120.51,140.04L120.93,139.96L121.34,139.83L121.70,139.67L121.97,139.50L122.10,139.39L122.22,139.28L122.32,139.16L122.40,139.04L122.46,138.91L122.50,138.79L122.51,138.66L122.51,138.54"/><path d="M119.29,139.82L119.09,139.82L119.01,139.79L118.98,139.76L118.93,139.66L118.77,139.55L118.62,139.39L118.55,139.29L118.51,139.18L118.44,138.63L118.59,138.74L118.74,138.82L118.95,138.91L119.18,138.98L119.29,139.82L119.50,139.87L119.73,139.91L119.97,139.93L120.22,139.93L120.45,139.97L120.55,139.95L120.71,139.87L120.97,139.81L121.22,139.73L121.40,139.66L121.61,139.55L121.83,139.48L121.90,139.44L121.94,139.31L121.84,138.50L121.58,138.66L121.28,138.80L120.94,138.92L120.60,139.00L120.71,139.87"/><path d="M118.51,139.18L118.40,139.11L118.38,139.08L118.33,138.69"/><path d="M119.18,138.98L119.52,139.04L119.87,139.06L120.23,139.05L120.60,139.00"/><path d="M119.03,137.81L119.24,137.86L119.47,137.90L119.71,137.92L119.96,137.92L120.16,137.96L120.23,137.95L120.31,137.93L120.45,137.86L120.71,137.80L120.96,137.72L121.14,137.65L121.36,137.54L121.60,137.46L121.66,137.41L121.69,137.30L121.80,137.19L121.91,137.04L121.99,136.89L122.03,136.73L122.13,136.60L122.14,136.57L122.08,136.15"/><path d="M118.44,138.63L118.30,138.50"/><path d="M120.45,137.86L120.34,136.98L119.97,137.03L119.61,137.04L119.26,137.02L118.91,136.96"/><path d="M121.69,137.30L121.59,136.48L121.32,136.64L121.02,136.78L120.69,136.90L120.34,136.98"/><path d="M121.94,139.31L122.08,139.16L122.16,139.05L122.24,138.90L122.28,138.74L122.38,138.61L122.39,138.58L122.33,138.16"/><path d="M121.84,138.50L122.01,138.36L122.13,138.24L122.22,138.11L122.31,137.96"/><path d="M121.59,136.48L121.75,136.35L121.87,136.22L121.97,136.10L122.06,135.95"/><path d="M122.39,138.58L122.38,138.57"/><path d="M122.38,137.54L122.38,137.52"/><path d="M122.14,136.57L122.13,136.56"/><path d="M122.13,135.52L122.13,135.51"/></g><g style="stroke:#000000;stroke-width:0.123"><path d="M118.53,141.15L118.26,139.07L118.26,138.90L118.33,138.69L118.30,138.50L118.20,138.34L118.13,138.15L117.99,137.06L118.01,136.85L118.07,136.69L118.04,136.48L117.94,136.33L117.88,136.17L117.76,135.26L117.77,135.13L117.80,135.01L117.86,134.88L117.96,134.72L118.18,134.49L118.48,134.28"/><path d="M122.74,140.43L122.50,138.50L122.45,138.34L122.33,138.16L122.31,137.96L122.37,137.78L122.39,137.62L122.26,136.53L122.20,136.33L122.08,136.15L122.06,135.95L122.12,135.77L122.14,135.60L122.03,134.77L121.98,134.57L121.86,134.39"/></g></g><g id="Actor_.7"><g style="stroke:#000000;stroke-width:0.123"><path d="M133.22,43.31L135.35,44.86L138.76,44.53L138.78,45.87"/><path d="M134.16,41.93L134.20,43.14L134.29,43.42L134.49,43.69L134.76,43.92L135.12,44.12L135.32,44.20L135.76,44.32L136.00,44.36L136.49,44.40L136.98,44.39L137.22,44.35L137.69,44.25L137.90,44.18L138.29,44.00L138.61,43.78L138.74,43.66L138.94,43.39L139.04,43.11L139.05,42.97L139.04,41.96"/><path d="M134.03,36.22L134.04,36.36L134.08,36.50L134.22,36.77L134.46,37.02L134.79,37.24L135.18,37.41L135.52,37.51L135.87,37.58L136.36,37.62L136.86,37.60L137.35,37.52L137.80,37.39L138.19,37.22L138.52,37.00L138.76,36.75L138.91,36.47L138.94,36.33L138.96,36.19"/><path d="M135.38,46.20L135.35,44.86"/><path d="M138.76,44.53L140.01,42.66"/></g><g style="stroke:#000000;stroke-width:0.123"><path d="M133.26,44.64L133.22,43.31L134.16,41.93L134.03,36.22L134.05,36.08L134.15,35.80L134.35,35.54L134.64,35.30L134.81,35.20L135.20,35.03L135.52,34.93L135.89,34.85L136.38,34.81L136.63,34.81L137.12,34.85L137.58,34.94L137.80,35.01L138.19,35.18L138.52,35.39L138.76,35.64L138.91,35.91L138.94,36.05L139.04,41.96L140.01,42.66L140.02,44.00L138.78,45.87L135.38,46.20L133.26,44.64"/></g></g><g id="Actor_.8"><g style="stroke:#000000;stroke-width:0.123"><path d="M173.89,32.10L173.87,32.70L173.90,32.73L174.06,32.79L174.21,32.91L174.36,33.00L174.68,33.13L174.77,33.20L174.86,33.23L175.11,33.24L175.56,33.30L175.83,33.31L176.10,33.31L176.31,33.34L176.40,33.33L176.56,33.27L176.80,33.23L176.96,33.19L177.16,33.12L177.33,33.05L177.49,33.02L177.55,32.99L177.57,32.97L177.57,32.87L177.64,32.78L177.68,32.68L177.70,32.44L177.72,32.41L177.73,32.26"/><path d="M173.67,32.44L173.68,32.53L173.70,32.62L173.75,32.70L173.82,32.79L173.91,32.87L174.01,32.95L174.28,33.10L174.62,33.22L174.93,33.30L175.34,33.37L175.77,33.40L176.20,33.40L176.61,33.37L176.99,33.30L177.27,33.22L177.55,33.09L177.66,33.02L177.75,32.95L177.86,32.81L177.90,32.73L177.92,32.64"/><path d="M173.63,33.29L173.63,33.28"/><path d="M173.73,31.32L173.73,31.31"/><path d="M174.68,33.13L174.73,32.11L174.45,32.01L174.24,31.92L174.07,31.82L173.91,31.70"/><path d="M173.79,30.18L173.79,30.27L173.82,30.36L173.86,30.44L173.93,30.53L174.09,30.66L174.35,30.81L174.61,30.92L174.98,31.02L175.39,31.09L175.82,31.13L176.25,31.14L176.66,31.11L177.05,31.05L177.34,30.97L177.63,30.85L177.75,30.78L177.85,30.71L177.93,30.63L177.99,30.55L178.03,30.47L178.04,30.38"/><path d="M173.84,29.05L173.84,29.05"/><path d="M174.73,32.11L175.05,32.18L175.40,32.24L175.76,32.27L176.15,32.28L176.10,33.31"/><path d="M174.92,30.95L174.88,30.93L174.80,30.86L174.85,29.83L175.17,29.91L175.52,29.96L175.88,30.00L176.27,30.00L176.22,31.05L175.75,31.04L175.48,31.01L175.23,30.97L175.01,30.97L174.92,30.95"/><path d="M174.01,29.84L173.98,30.42L173.99,30.44L174.02,30.47L174.17,30.53L174.29,30.62L174.43,30.71L174.60,30.79L174.80,30.86"/><path d="M174.03,29.43L174.19,29.55L174.36,29.65L174.62,29.76L174.85,29.83"/><path d="M177.33,33.05L177.39,32.06L177.11,32.15L176.80,32.22L176.47,32.26L176.15,32.28"/><path d="M176.22,31.05L176.41,31.08L176.52,31.07L176.69,31.01L176.87,30.98L177.09,30.93L177.29,30.86L177.46,30.78L177.65,30.75L177.69,30.71L177.70,30.61L177.78,30.49L177.81,30.42L177.81,30.36"/><path d="M176.27,30.00L176.59,29.99L176.93,29.94L177.23,29.88L177.51,29.79L177.46,30.78"/><path d="M177.57,32.87L177.63,31.95L177.39,32.06"/><path d="M177.70,32.44L177.73,31.89L177.63,31.95"/><path d="M177.75,31.87L177.73,31.89"/><path d="M177.69,32.62L177.69,32.61"/><path d="M177.51,29.79L177.75,29.68L177.70,30.61"/><path d="M177.81,30.36L177.82,30.18L177.84,30.15L177.85,30.00"/><path d="M177.75,29.68L177.85,29.62L177.82,30.18"/><path d="M177.86,29.62L177.88,29.60"/></g><g style="stroke:#000000;stroke-width:0.123"><path d="M173.95,26.86L173.84,29.08L173.85,29.16L173.89,29.25L173.94,29.34L174.03,29.43L174.01,29.84L173.90,29.94L173.84,30.02L173.80,30.10L173.79,30.18L173.73,31.37L173.75,31.46L173.79,31.55L173.91,31.70L173.89,32.10L173.75,32.25L173.70,32.33L173.68,32.41L173.63,33.37L173.69,33.52L173.80,33.66L173.97,33.80L174.19,33.92L174.40,34.01L174.69,34.10L175.02,34.17L175.37,34.22L175.79,34.25L176.18,34.25L176.56,34.21L176.94,34.14L177.27,34.04L177.54,33.91L177.73,33.76L177.80,33.68L177.84,33.60L177.87,33.49L177.92,32.61L177.90,32.53L177.87,32.44L177.82,32.36L177.73,32.26L177.75,31.87L177.89,31.74L177.94,31.66L177.97,31.57L178.04,30.35L178.03,30.27L178.00,30.18L177.94,30.09L177.85,30.00L177.88,29.60L177.97,29.52L178.03,29.44L178.08,29.36L178.10,29.28L178.21,27.31"/></g></g><g id="Actor_21.1"><g style="stroke:#000000;stroke-width:0.123"><path d="M171.63,23.88L171.79,23.68L172.01,24.31L172.25,24.79L172.47,24.49L172.77,24.90L173.04,25.23L173.34,25.54L173.57,25.75L173.61,25.70L173.37,25.52L173.61,25.15L174.38,25.76L174.75,26.00L175.04,26.16"/><path d="M171.67,23.83L171.63,23.35L171.65,22.80"/><path d="M172.53,23.83L171.79,23.68"/><path d="M172.55,23.14L171.73,22.83"/><path d="M172.47,25.32L172.44,25.09L172.45,25.08L172.61,25.23"/><path d="M172.44,25.09L172.35,24.96L172.46,25.08"/><path d="M172.47,24.49L172.93,24.51"/><path d="M172.35,24.96L172.23,24.82L172.25,24.79"/><path d="M172.58,22.30L172.30,22.12"/><path d="M173.57,25.75L173.53,25.97"/><path d="M173.61,25.70L173.73,25.77"/><path d="M173.61,25.15L173.89,25.10L174.12,25.03"/><path d="M175.05,26.12L175.07,26.07L174.86,25.97L175.07,25.56L176.05,26.06L176.64,26.28"/><path d="M175.07,26.07L175.07,26.07"/><path d="M175.07,25.56L175.25,25.40"/><path d="M176.57,25.56L176.57,25.78L176.52,26.13L176.68,25.69L177.64,25.98L178.20,26.10"/><path d="M176.52,26.13L176.63,26.16"/><path d="M176.68,25.69L176.61,25.55"/><path d="M178.15,25.96L178.23,25.50L179.07,25.61L179.51,25.62"/><path d="M178.23,25.50L178.00,25.40L177.82,25.31"/><path d="M178.13,25.95L178.01,25.89L177.93,25.62L177.82,25.35"/><path d="M179.54,25.49L179.54,25.02L180.14,24.99L180.41,24.92"/><path d="M179.37,25.47L179.27,25.46L179.08,25.21L178.92,25.02"/><path d="M179.54,25.02L178.97,24.95"/><path d="M179.93,24.36L180.45,24.32L180.68,24.22L180.77,24.16L180.72,24.31"/><path d="M179.85,24.57L180.16,24.80L180.24,24.80"/><path d="M180.52,24.78L180.45,24.32"/><path d="M180.68,24.42L180.64,24.61"/><path d="M180.69,24.40L180.69,24.41"/><path d="M180.49,23.16L180.45,23.18L180.01,23.07"/><path d="M179.97,23.68L180.85,23.48L180.98,23.92"/><path d="M180.63,24.00L180.57,24.01L179.97,23.75"/><path d="M180.69,22.61L180.02,22.90"/><path d="M180.77,24.16L180.79,24.12"/><path d="M180.78,24.14L180.75,24.22"/><path d="M180.85,23.48L180.85,23.42L180.86,23.44"/><path d="M180.85,23.42L180.85,23.40"/></g><g style="stroke:#000000;stroke-width:0.123"><path d="M180.03,22.41L180.47,22.51L180.69,22.61L180.87,23.01L180.49,23.16L180.65,23.20L180.83,23.36L180.98,23.92L180.63,24.00L180.81,24.08L180.69,24.41L180.62,24.69L180.60,24.73L180.52,24.78L180.24,24.80L180.41,24.92L180.18,25.29L180.05,25.38L179.87,25.45L179.54,25.49L179.37,25.47L179.51,25.62L179.26,25.95L179.00,26.00L178.73,26.01L178.13,25.95L178.20,26.10L177.97,26.39L177.61,26.36L177.34,26.33L176.63,26.16L176.64,26.28L176.46,26.54L176.04,26.44L175.73,26.34L175.07,26.07L174.91,26.39L174.29,26.11L173.73,25.77L173.53,25.97L173.07,25.64L172.61,25.23L172.47,25.32L172.20,25.00L172.01,24.74L171.79,24.39L171.65,24.13L171.57,23.96L171.63,23.88L171.52,23.41L171.48,23.05L171.65,22.80L171.73,22.83L171.87,22.40L172.07,21.97L172.30,22.12L172.61,21.70"/><path d="M180.04,21.89L180.19,22.16L180.03,22.27"/></g></g><g id="Actor_.9"><g style="stroke:#000000;stroke-width:0.123"><path d="M174.22,17.85L174.22,17.98L174.24,18.11L174.37,18.36L174.58,18.59L174.87,18.80L175.23,18.97L175.65,19.11L176.10,19.19L176.58,19.23L176.85,19.22L177.27,19.18L177.70,19.09L178.09,18.96L178.41,18.78L178.65,18.57L178.81,18.33L178.85,18.21L178.87,18.08"/><path d="M175.10,27.59L175.17,26.28L175.49,26.25"/><path d="M175.17,26.28L175.02,26.19"/><path d="M178.28,27.30L178.36,25.98"/><path d="M178.36,25.99L178.16,26.01"/></g><g style="stroke:#000000;stroke-width:0.123"><path d="M179.03,25.99L178.28,27.30L175.10,27.59L172.92,26.20L172.96,25.55"/><path d="M178.65,21.64L178.87,18.08L178.84,17.83L178.71,17.58L178.61,17.46L178.50,17.35L178.20,17.14L177.84,16.97L177.64,16.90L177.20,16.79L176.74,16.73L176.27,16.72L175.89,16.75L175.60,16.80L175.19,16.91L174.84,17.07L174.68,17.16L174.47,17.34L174.35,17.49L174.24,17.73L174.22,17.85L174.03,21.41"/></g></g><g id="Actor_.10"><g style="stroke:#000000;stroke-width:0.123"><path d="M117.70,141.75L119.98,142.66L120.34,144.62L122.35,143.95"/><path d="M120.34,144.62L120.03,144.49"/><path d="M119.98,142.66L122.85,141.72L123.20,143.67"/><path d="M122.85,141.72L123.42,139.88"/></g><g style="stroke:#000000;stroke-width:0.123"><path d="M120.03,144.49L118.07,143.70L117.70,141.75L118.30,139.92L118.36,139.90"/><path d="M122.35,143.95L123.20,143.67L123.76,141.82L123.42,139.88L122.64,139.57"/></g></g><g id="Actor_.11"><g style="stroke:#000000;stroke-width:0.123"><path d="M135.37,50.48L135.40,50.62L135.46,50.75L135.53,50.88L135.63,50.99L135.75,51.10L135.88,51.21L136.04,51.30L136.21,51.37L136.39,51.44L136.58,51.49L136.79,51.53L137.01,51.56L137.23,51.57L137.45,51.57L137.83,51.53L138.05,51.49L138.27,51.44L138.62,51.32L138.81,51.23L138.99,51.13L139.16,51.03L139.31,50.91L139.44,50.78L139.56,50.65L139.70,50.43L139.76,50.29L139.80,50.15L139.81,50.01L139.80,49.87"/><path d="M138.40,51.23L138.29,50.37L138.48,50.30L138.68,50.22L138.86,50.12L139.03,50.01L139.18,49.89L139.31,49.77L139.43,49.64L139.52,49.50L139.63,50.28L139.62,50.32L139.58,50.37L139.44,50.46L139.33,50.63L139.18,50.78L139.04,50.90L138.84,51.03L138.72,51.17L138.63,51.22L138.41,51.23L138.14,51.32L137.94,51.36L137.66,51.40L137.38,51.42L137.14,51.48L137.02,51.47L136.88,51.39L136.76,50.53L136.38,50.46L136.19,50.41L136.01,50.34L135.84,50.25L135.70,50.16L135.56,50.05L135.46,49.95"/><path d="M135.09,48.45L135.12,48.59L135.18,48.72L135.22,48.80L135.31,48.92L135.42,49.04L135.55,49.14L135.70,49.23L135.87,49.32L136.05,49.39L136.24,49.44L136.44,49.49L136.66,49.52L136.88,49.53L137.10,49.54L137.48,49.51L137.70,49.47L137.92,49.42L138.14,49.36L138.35,49.28L138.66,49.13L138.84,49.03L139.00,48.91L139.14,48.79L139.26,48.66L139.35,48.54L139.44,48.39L139.50,48.25L139.53,48.11L139.55,47.97L139.54,47.83"/><path d="M135.52,48.97L135.49,48.93L135.46,48.76L135.39,48.62L135.35,48.50L135.26,48.00L135.51,48.18L135.79,48.32L136.10,48.42L136.49,48.49L136.60,49.35L136.41,49.32L136.17,49.25L135.95,49.16L135.76,49.05L135.56,49.00L135.52,48.97"/><path d="M135.46,48.76L135.37,48.09"/><path d="M135.49,48.91L135.49,48.91"/><path d="M135.27,48.04L135.27,48.03"/><path d="M135.28,48.07L135.27,48.00"/><path d="M135.26,48.00L135.18,47.91"/><path d="M135.55,50.04L135.63,50.53L135.67,50.65L135.75,50.79L135.77,50.96L135.79,50.99L135.85,51.03L136.04,51.08L136.23,51.19L136.45,51.28L136.69,51.35L136.88,51.39"/><path d="M135.75,50.79L135.65,50.13"/><path d="M135.56,50.10L135.55,50.04"/><path d="M135.77,50.95L135.77,50.94"/><path d="M135.55,50.07L135.55,50.06"/><path d="M138.29,50.37L137.91,50.48L137.54,50.54L137.16,50.56L136.76,50.53"/><path d="M139.18,48.43L139.08,47.69L139.19,47.55L139.26,47.46L139.36,48.25L139.36,48.29L139.32,48.33L139.18,48.43L139.06,48.59L138.91,48.75L138.77,48.86L138.57,49.00L138.43,49.15L138.34,49.19L138.13,49.20L137.87,49.28L137.66,49.33L137.38,49.37L137.10,49.39L136.87,49.45L136.75,49.44L136.60,49.35"/><path d="M136.49,48.49L136.89,48.51L137.26,48.49L137.64,48.43L138.02,48.33L138.13,49.20"/><path d="M139.08,47.69L138.88,47.88L138.65,48.04L138.34,48.20L138.02,48.33"/><path d="M139.35,49.73L139.44,50.46"/><path d="M139.26,47.45L139.31,47.36"/><path d="M139.90,50.63L139.90,50.62"/><path d="M139.58,49.40L139.52,49.50"/><path d="M139.67,48.85L139.67,48.85"/></g><g style="stroke:#000000;stroke-width:0.123"><path d="M139.20,45.24L139.41,46.90L139.39,47.14L139.31,47.36L139.40,47.48L139.47,47.61L139.54,47.83L139.68,48.94L139.66,49.18L139.58,49.40L139.71,49.60L139.79,49.82L139.90,50.67L139.91,50.81L139.89,50.95L139.80,51.19L139.66,51.41L139.46,51.63L139.21,51.82L138.85,52.02L138.51,52.15L138.15,52.25L137.78,52.31L137.40,52.33L137.04,52.31L136.69,52.25L136.37,52.16L136.09,52.02L135.85,51.86L135.67,51.67L135.54,51.46L135.48,51.24L135.37,50.39L135.39,50.16L135.46,49.95L135.34,49.78L135.25,49.56L135.09,48.40L135.10,48.17L135.13,48.03L135.18,47.91L135.03,47.70L134.96,47.47L134.71,45.70"/></g></g><g id="Actor_.12"><g style="stroke:#000000;stroke-width:0.123"><path d="M29.59,202.82L29.62,202.77L29.59,202.63L29.50,202.40L29.33,202.06L29.03,201.59L28.89,201.43L28.76,201.35"/><path d="M29.21,202.30L29.35,202.48L29.43,202.53L29.44,202.48L29.41,202.37L29.25,202.04L29.05,201.74L28.97,201.66L28.92,201.64L28.91,201.70L28.97,201.88L29.21,202.30"/><path d="M32.91,200.83L33.09,200.72L33.10,200.62L33.01,200.33L32.82,199.96L32.52,199.49L32.33,199.29L32.25,199.26L32.06,199.37"/><path d="M33.39,201.23L33.41,201.14L33.41,201.06L33.30,200.72L33.10,200.25L32.81,199.74L32.54,199.32L32.32,199.02L32.08,198.79L32.02,198.75L31.94,198.75"/><path d="M36.95,199.08L37.14,198.97L37.16,198.94L37.16,198.80L37.11,198.59L37.01,198.31L36.68,197.65L36.27,197.01L36.08,196.77L35.91,196.59L35.84,196.54L35.73,196.49L35.55,196.59"/><path d="M35.43,196.25L35.91,196.40L36.87,197.84L37.41,199.23"/><path d="M35.91,196.40L37.41,195.50"/><path d="M36.91,197.89L38.40,196.99"/></g><g style="stroke:#000000;stroke-width:0.123"><path d="M28.79,201.33L28.74,201.36L28.74,201.46L28.80,201.63L28.96,201.98L29.18,202.36L29.33,202.58L29.46,202.74L29.59,202.82L32.91,200.83L33.18,201.14L33.30,201.23L33.39,201.23L36.95,199.08L37.41,199.23L38.90,198.33L38.40,196.99L37.41,195.50L36.92,195.36L35.43,196.25L35.55,196.59L31.94,198.75L31.91,198.84L31.92,198.92L32.06,199.37L28.79,201.33"/></g></g><g id="Actor_.13"><g style="stroke:#000000;stroke-width:0.123"><path d="M92.27,162.91L92.30,162.87"/><path d="M95.84,155.92L95.84,155.92"/><path d="M96.09,155.60L96.09,155.60"/><path d="M96.05,155.65L96.04,155.66"/><path d="M97.25,156.60L97.26,156.57"/><path d="M103.49,152.55L103.50,152.55"/><path d="M105.27,152.17L105.23,152.17L105.28,152.17"/><path d="M105.22,152.17L105.19,152.16L105.22,152.17"/><path d="M111.84,151.55L111.82,151.55"/><path d="M116.08,152.29L116.09,152.29"/><path d="M115.49,150.90L115.73,150.79"/><path d="M115.77,150.77L115.73,150.79L115.77,150.77"/></g><g style="stroke:#000000;stroke-width:0.123"><path d="M115.48,150.90L113.69,151.44L112.13,151.56L104.97,150.65L103.59,150.88L102.55,151.35L97.69,154.21L96.31,155.35L95.49,156.46L92.57,162.50L91.93,163.28L91.01,164.02L37.73,195.97"/><path d="M105.30,152.17L104.42,152.24L103.49,152.55L98.53,155.47L97.60,156.21L96.82,157.22L93.89,163.32L93.00,164.41L91.88,165.32L38.56,197.42"/><path d="M105.28,152.17L111.00,153.00L112.46,153.09L114.67,152.78L116.78,151.95"/><path d="M115.73,150.79L116.29,150.48"/></g></g><g id="Actor_18.0"><g style="stroke:#000000;stroke-width:0.123"><path d="M134.29,13.64L133.74,13.82L133.25,14.04L132.83,14.30L132.49,14.60L132.23,14.91L132.14,15.08L132.08,15.25L132.04,15.41L132.02,15.60L132.03,15.77L132.07,15.95L132.13,16.12L132.22,16.29L132.34,16.46L132.48,16.62L132.82,16.92L133.26,17.18L133.51,17.30L134.11,17.54L134.79,17.86L135.10,18.04L135.73,18.43L136.42,18.09L136.76,17.94L137.51,17.66L137.88,17.55L138.33,17.45L139.05,17.34L139.52,17.31L140.03,17.31L140.20,15.72L140.30,15.15L140.38,14.78"/><path d="M131.83,17.01L132.45,17.07L133.10,17.20L134.34,17.58L134.96,17.70L135.29,17.74L135.94,17.78L136.49,17.76L136.94,17.73L137.58,17.62L137.97,17.53L138.52,17.34L139.01,17.11L139.43,16.85L139.77,16.55L139.92,16.38L140.10,16.06L140.17,15.89L140.20,15.72L140.21,15.54L140.20,15.36L140.16,15.19L140.09,15.02L140.00,14.85L139.88,14.69L139.74,14.53L139.57,14.38L139.37,14.23L138.95,13.98L138.70,13.86L138.16,13.67L137.57,13.52L136.94,13.43L136.29,13.39L135.63,13.41L135.31,13.44L134.68,13.54"/><path d="M133.60,16.16L133.49,15.99L133.43,15.85L133.39,15.71L133.39,15.57L133.41,15.42L133.45,15.28L133.52,15.14L133.62,15.01L133.88,14.76L134.22,14.54L134.64,14.36L135.12,14.22L135.37,14.18L135.63,14.14L136.16,14.11L136.69,14.14L137.20,14.23L137.67,14.36L138.07,14.54L138.25,14.65L138.54,14.88L138.65,15.01L138.74,15.15L138.80,15.29L138.84,15.43L138.85,15.57L138.83,15.72L138.79,15.86L138.72,16.00L138.63,16.13L138.51,16.26L138.37,16.39L138.18,16.52L138.41,16.29L138.49,16.16L138.56,16.02L138.59,15.88L138.60,15.74L138.57,15.60L138.53,15.47L138.45,15.34L138.35,15.21L138.23,15.09L138.08,14.98L137.92,14.87L137.53,14.70L137.07,14.57L136.83,14.52L136.32,14.47L135.81,14.49L135.55,14.51L135.31,14.55L134.84,14.67L134.43,14.84L134.09,15.06L133.84,15.30L133.75,15.43L133.69,15.57L133.66,15.70L133.65,15.84L133.67,15.98L133.71,16.12L133.78,16.25L133.88,16.38L134.10,16.58L133.82,16.38L133.60,16.16"/><path d="M133.83,19.77L133.83,19.77"/><path d="M134.48,16.76L134.88,16.59L135.34,16.47L135.59,16.43L136.10,16.39L136.61,16.41L137.10,16.49L137.56,16.61L137.80,16.72"/><path d="M134.54,16.78L134.10,16.58"/><path d="M134.75,13.53L134.75,13.53"/><path d="M135.77,20.17L135.73,18.44"/><path d="M137.61,20.00L137.60,20.00"/><path d="M137.92,19.92L137.55,20.01"/><path d="M138.17,16.52L138.02,16.61L137.74,16.74"/><path d="M138.44,13.76L138.44,13.76"/><path d="M138.77,13.89L138.77,13.89"/><path d="M140.05,19.04L140.03,17.31"/></g><g style="stroke:#000000;stroke-width:0.123"><path d="M134.75,13.53L134.29,13.64L133.57,13.87L132.98,14.12L132.25,14.48L132.15,14.86L132.04,15.41L131.93,16.17L131.83,17.01L131.88,18.74L132.50,19.14L132.81,19.31L133.49,19.64L133.83,19.77L134.50,19.98L134.84,20.06L135.46,20.15L135.77,20.17L136.11,20.17L136.80,20.13L137.55,20.01L137.92,19.92L138.36,19.79L139.08,19.51L139.55,19.30L140.05,19.04L140.14,18.66L140.23,18.08L140.40,16.50L140.38,14.78L139.76,14.39L139.45,14.21L138.77,13.89"/><path d="M137.74,16.74L137.37,16.87L136.87,16.98L136.61,17.01L136.07,17.04L135.80,17.03L135.28,16.97L134.79,16.86L134.54,16.78"/><path d="M134.54,16.78L134.92,16.65L135.42,16.54L135.68,16.50L136.21,16.48L136.47,16.48L136.99,16.54L137.48,16.65L137.74,16.74"/><path d="M134.75,13.53L135.49,13.42L135.83,13.39L136.51,13.38L137.12,13.44L137.43,13.49L138.10,13.65L138.44,13.76"/><path d="M138.44,13.76L138.77,13.89"/></g></g><g id="Actor_19.0"><g style="stroke:#000000;stroke-width:0.123"><path d="M117.18,148.19L117.37,148.17L117.59,148.22L117.83,148.36L118.09,148.57L118.23,148.71L118.50,149.02L118.76,149.38L119.00,149.77L119.29,150.39L119.43,150.80L119.53,151.18L119.57,151.52L119.55,151.81L119.49,152.03L119.43,152.11L119.37,152.17"/><path d="M119.12,151.02L119.06,150.70L118.95,150.37L118.71,149.86L118.51,149.54L118.18,149.15L117.96,148.97L117.76,148.87L117.67,148.85L117.59,148.85L117.52,148.87"/><path d="M119.02,147.18L118.99,147.19"/><path d="M119.36,146.86L119.34,146.75L119.34,146.78"/><path d="M119.34,146.75L119.34,146.73"/><path d="M119.33,146.76L119.34,146.73"/><path d="M123.51,148.50L123.27,148.99L123.06,149.35L122.81,149.65L121.83,150.68L121.65,150.85L121.47,150.99L120.22,151.69"/><path d="M122.33,153.28L122.21,153.17L122.10,153.05L122.02,152.91L121.95,152.75L121.90,152.58L121.86,152.40L121.85,152.01L121.92,151.60L122.04,151.24L122.16,150.98L122.39,150.59L122.69,150.23L123.02,149.92L123.38,149.68L123.76,149.51L124.13,149.42L124.31,149.41L124.48,149.42L124.65,149.45L124.80,149.50L124.95,149.57L125.08,149.66"/><path d="M123.00,152.46L122.91,152.38L122.84,152.29L122.78,152.19L122.74,152.06L122.72,151.93L122.72,151.77L122.77,151.49L122.82,151.34L122.96,151.06L123.05,150.93L123.26,150.71L123.50,150.53L123.67,150.45L123.80,150.40L124.06,150.37L124.25,150.41L124.40,150.47L124.49,150.55L124.56,150.63L124.62,150.74L124.66,150.86L124.69,151.13L124.64,151.42L124.60,151.57L124.53,151.72L124.36,151.99L124.13,152.23L124.01,152.33L123.74,152.48L123.61,152.53L123.47,152.56L123.34,152.56L123.22,152.55L123.11,152.51L123.00,152.46"/></g><g style="stroke:#000000;stroke-width:0.123"><path d="M116.92,148.63L116.99,148.39L117.11,148.24L118.99,147.19L119.18,147.03L119.32,146.80L119.34,146.73L118.83,144.01"/><path d="M123.33,143.25L123.82,146.01L123.87,146.51L123.87,146.88L123.82,147.39L123.68,147.99L123.51,148.50L125.08,149.66L125.20,149.77L125.39,150.03L125.50,150.36L125.54,150.54L125.54,150.92L125.48,151.33L125.34,151.75L125.24,151.95L125.10,152.20L124.87,152.52L124.55,152.85L124.38,153.00L124.03,153.24L123.65,153.41L123.28,153.50L123.10,153.52L122.76,153.48L122.46,153.37L120.23,151.69L119.29,152.22L119.11,152.24L119.00,152.22"/></g></g><g id="Actor_19.1"><g style="stroke:#000000;stroke-width:0.123"><path d="M212.68,92.80L212.79,92.99L212.98,93.26L213.21,93.51L213.46,93.73L213.59,93.82L213.73,93.90L213.87,93.96L214.00,94.00L214.28,94.05L214.61,94.05L214.99,94.01L216.00,93.82"/><path d="M216.30,91.19L216.25,89.65"/></g><g style="stroke:#000000;stroke-width:0.123"><path d="M212.16,87.96L212.31,91.53L212.35,91.85L212.45,92.23L212.55,92.54L212.68,92.80L212.44,93.00L212.31,93.13L212.07,93.43L211.86,93.77L211.70,94.14L211.59,94.51L211.53,94.88L211.53,95.23L211.59,95.55L211.70,95.81L211.86,96.02L211.95,96.10L214.52,97.31"/><path d="M216.19,87.94L216.25,89.65L216.44,89.59L216.58,89.59L216.71,89.60L217.00,89.67L217.14,89.74L217.43,89.92L217.71,90.16L218.03,90.55L218.28,90.97L218.36,91.15L218.48,91.49L218.56,91.88L218.57,92.06L218.55,92.38L218.47,92.67L218.34,92.91L218.16,93.08L216.93,93.76"/></g></g><g id="Actor_.14"><g style="stroke:#000000;stroke-width:0.123"><path d="M140.86,65.79L140.86,65.82"/><path d="M140.86,65.75L140.83,64.69"/><path d="M140.83,64.70L140.85,65.19"/></g><g style="stroke:#000000;stroke-width:0.123"><path d="M136.07,52.02L136.89,58.00L137.27,61.88L137.46,65.89L137.44,70.97L137.16,76.10L136.71,80.64L135.92,86.13L134.88,91.68L133.09,98.84L131.86,102.53L130.44,106.11L128.52,110.20L121.95,121.92L120.48,125.13L119.52,128.01L118.97,130.37L118.61,132.72L118.45,134.97"/><path d="M121.85,134.67L122.04,132.56L122.40,130.47L123.10,127.86L123.83,125.85L124.92,123.50L130.72,113.15L132.51,109.61L134.69,104.43L136.71,98.26L138.59,90.08L139.88,82.17L140.72,73.31L140.86,65.75"/><path d="M140.83,64.69L140.43,58.57L139.54,51.55"/><path d="M140.86,65.79L140.83,64.70"/></g></g><g id="Actor_.15"><g style="stroke:#000000;stroke-width:0.123"><path d="M115.06,149.54L115.96,149.12L117.33,150.77L117.78,152.84"/><path d="M116.80,151.92L116.83,151.90L116.87,151.85L116.89,151.78L116.90,151.66L116.89,151.48L116.86,151.36L116.77,151.11L116.69,150.95L116.56,150.75L116.47,150.63L116.33,150.50L116.22,150.44L116.18,150.43L116.11,150.42L116.05,150.43L116.01,150.47L115.97,150.52L115.95,150.59L115.93,150.68"/><path d="M115.96,149.12L117.20,148.49"/><path d="M117.33,150.77L118.57,150.14L117.55,148.91"/><path d="M118.57,150.14L118.89,151.63"/></g><g style="stroke:#000000;stroke-width:0.123"><path d="M115.37,150.95L115.06,149.54L116.30,148.92L117.20,148.49L117.55,148.91L117.68,148.85"/><path d="M118.95,151.60L118.89,151.63L119.02,152.21L117.78,152.84L116.87,153.24L116.09,152.29"/></g></g><g id="Actor_17.0"><g style="stroke:#000000;stroke-width:0.123"><path d="M209.71,93.56L209.74,93.30L209.83,93.03L209.89,92.90L210.04,92.67L210.22,92.47"/><path d="M215.20,97.92L214.98,97.77L214.89,97.66L214.75,97.41L214.65,97.11L214.62,96.76L214.63,96.37L214.71,95.98L214.84,95.57L215.02,95.18L215.24,94.82L215.50,94.49L215.78,94.22L216.07,94.01L216.37,93.87L216.67,93.80L216.94,93.80L217.19,93.89"/><path d="M217.73,95.35L217.52,95.45L217.42,95.52L217.22,95.70L217.03,95.93L216.87,96.22L216.76,96.50L216.72,96.65L216.68,96.93L216.68,97.20L216.74,97.43L216.64,97.21L216.45,96.87L215.27,96.32L215.43,96.05L215.67,95.58L215.93,94.94L217.11,95.48L217.50,95.41L217.73,95.35L217.93,95.27L218.18,95.13"/><path d="M216.44,97.70L215.68,97.35L215.49,96.80L215.27,96.32"/><path d="M215.32,94.33L215.01,94.71L214.88,94.91L214.69,95.27L214.54,95.67L214.48,95.87L214.41,96.24"/><path d="M217.76,94.94L216.99,94.59L216.48,94.79L215.93,94.94"/><path d="M216.86,97.90L216.81,97.63L216.74,97.43L216.84,97.61L216.99,97.73L217.07,97.77L217.22,97.80L217.37,97.79L217.47,97.76L217.68,97.66L217.89,97.50L217.99,97.40L218.17,97.18L218.32,96.92"/><path d="M216.45,96.87L216.70,96.53L216.87,96.22"/><path d="M217.11,95.48L217.01,95.87L216.87,96.22"/><path d="M218.33,96.89L218.44,96.61L218.51,96.33L218.52,96.18L218.52,95.92L218.46,95.69L218.36,95.50L218.29,95.43L218.19,95.37L218.04,95.32L217.94,95.31L217.73,95.35"/></g><g style="stroke:#000000;stroke-width:0.123"><path d="M211.53,94.90L210.00,94.18L209.86,94.07L209.76,93.90L209.71,93.69L209.71,93.36L209.72,93.25L209.80,93.01L209.92,92.78L209.99,92.68L210.16,92.52L210.42,92.33L210.62,92.26L210.72,92.26L210.89,92.29L212.43,93.00"/><path d="M214.41,96.24L214.39,96.46L214.40,96.83L214.46,97.16L214.58,97.44L214.75,97.66L214.86,97.74L215.20,97.92L215.45,98.00L215.58,98.01L215.87,97.98L216.16,97.87L216.44,97.70L216.86,97.90L217.24,97.82L217.57,97.72L217.91,97.54L218.15,97.22L218.33,96.89L218.46,96.57L218.57,96.16L218.50,95.79L218.37,95.47L218.18,95.13L217.76,94.94L217.73,94.70L217.64,94.40L217.49,94.14L217.30,93.95L217.19,93.89L216.96,93.78L216.71,93.70L216.58,93.68L216.29,93.72L215.99,93.82L215.84,93.90L215.55,94.11L215.32,94.33"/></g></g><g id="Actor_17.1"><g style="stroke:#000000;stroke-width:0.123"><path d="M133.92,159.52L133.92,159.53"/><path d="M133.89,159.62L134.04,159.32L134.14,159.18L134.36,158.94L134.50,158.83"/><path d="M142.08,161.81L141.79,161.64L141.62,161.58L141.29,161.54L141.07,161.55L140.87,161.58L140.47,161.72L140.06,161.93L139.67,162.22L139.30,162.57L138.98,162.97L138.72,163.41L138.51,163.87L138.38,164.33L138.32,164.78L138.34,165.20L138.43,165.57L138.60,165.88L138.71,166.02L138.84,166.13"/><path d="M139.72,161.83L139.44,162.05L139.25,162.22L139.08,162.40L138.76,162.80L138.48,163.25L138.38,163.47L138.22,163.88"/><path d="M140.80,164.75L140.66,165.11L140.60,165.44L140.60,165.60L140.64,165.88L140.75,166.12L140.31,165.54L139.14,164.66L139.32,164.35L139.60,163.79L139.91,163.03L140.64,162.78L141.36,162.44L142.53,163.31L142.17,163.54L141.89,163.67L141.59,163.78L141.08,163.90L140.95,164.37L140.80,164.75L140.98,164.44L141.09,164.29L141.33,164.03L141.61,163.82L141.89,163.67"/><path d="M140.49,166.19L139.84,165.70L139.50,165.16L139.14,164.66"/><path d="M140.31,165.54L140.59,165.14L140.78,164.78"/><path d="M139.91,163.03L141.08,163.90"/><path d="M141.01,166.57L140.75,166.12L140.92,166.30L141.14,166.40L141.39,166.44L141.68,166.39L141.82,166.34L142.11,166.19L142.38,165.98L142.51,165.85L142.73,165.57L142.91,165.26"/><path d="M142.93,165.23L143.00,165.07L143.09,164.74L143.12,164.42L143.07,164.13L142.97,163.90L142.80,163.72L142.58,163.61L142.32,163.58L142.18,163.59L141.89,163.67"/><path d="M142.53,163.31L142.57,163.36"/></g><g style="stroke:#000000;stroke-width:0.123"><path d="M133.83,159.77L133.92,159.52L134.06,159.26L134.15,159.14L134.37,158.93L134.64,158.75L134.91,158.63L135.04,158.61L135.29,158.62L135.51,158.71L139.72,161.83L140.03,161.64L140.24,161.55L140.44,161.47L140.84,161.38L141.22,161.38L141.39,161.41L141.71,161.54L142.08,161.81L142.21,161.92L142.41,162.20L142.54,162.55L142.57,162.74L142.59,162.95L142.57,163.36L142.97,163.90L143.22,164.35L143.13,164.71L142.98,165.11L142.85,165.38L142.65,165.72L142.46,165.98L142.10,166.21L141.67,166.40L141.01,166.57L140.49,166.19L140.05,166.34L139.66,166.39L139.48,166.38L139.14,166.30L138.84,166.13L138.49,165.85L138.38,165.71L138.28,165.56L138.15,165.22L138.09,164.82L138.09,164.61L138.15,164.16L138.22,163.88L133.96,160.67L133.84,160.47L133.78,160.22L133.80,159.92L133.85,159.73"/><path d="M133.92,159.52L133.91,159.54"/></g></g><g id="Actor_18.1"><g style="stroke:#000000;stroke-width:0.123"><path d="M172.51,24.26L172.59,22.71L173.18,22.77L173.48,22.82L174.12,22.97L174.44,23.08L174.76,23.20L175.40,23.50L175.69,23.66L176.27,24.02L176.88,23.70L177.18,23.57L177.82,23.32L178.17,23.21L178.55,23.12L179.18,23.02L179.58,22.99L180.02,22.98"/><path d="M174.12,19.73L173.78,19.88L173.40,20.10L173.08,20.36L172.96,20.50L172.85,20.64L172.77,20.79L172.70,20.94L172.66,21.10L172.65,21.26L172.65,21.42L172.68,21.58L172.74,21.74L172.81,21.90L172.91,22.06L173.04,22.21L173.35,22.50L173.74,22.76L174.19,22.98L174.44,23.08L174.98,23.24L175.55,23.35L176.15,23.41L176.74,23.42L177.33,23.38L177.90,23.28L178.24,23.19L178.72,23.02L179.14,22.81L179.49,22.57L179.76,22.29L179.86,22.15L179.94,22.00L180.00,21.84L180.04,21.69L180.05,21.53L180.04,21.37L180.01,21.20L179.95,21.04L179.87,20.88L179.76,20.73L179.64,20.58L179.49,20.43L179.14,20.16L178.75,19.95"/><path d="M172.59,22.71L172.67,20.38"/><path d="M174.06,20.83L173.95,21.00L173.91,21.13L173.88,21.26L173.88,21.39L173.91,21.52L173.95,21.65L174.05,21.81L174.23,22.03L174.52,22.25L174.77,22.38"/><path d="M176.18,25.57L176.27,24.02"/><path d="M177.80,22.53L178.01,22.44L178.34,22.25L178.47,22.14L178.58,22.03L178.67,21.91L178.74,21.79L178.79,21.66L178.81,21.53L178.81,21.39L178.79,21.26L178.69,21.05"/></g><g style="stroke:#000000;stroke-width:0.123"><path d="M172.52,23.99L172.51,24.26L172.92,24.51"/><path d="M172.52,23.83L172.53,23.76"/><path d="M172.58,22.44L172.57,22.47"/><path d="M174.12,19.73L173.53,19.96L173.12,20.15L172.67,20.38L172.58,22.30"/><path d="M173.12,24.63L173.09,24.61"/><path d="M174.77,22.38L175.08,22.51L175.52,22.64L175.89,22.70L176.23,22.74L176.72,22.74L176.96,22.72L177.41,22.64L177.80,22.53"/><path d="M176.61,25.56L176.18,25.57L175.50,25.49"/><path d="M175.21,25.44L175.02,25.40"/><path d="M176.80,25.55L176.77,25.55"/><path d="M176.95,25.53L176.95,25.53"/><path d="M178.97,25.00L178.74,25.10"/><path d="M179.23,24.88L179.92,24.53L180.02,22.98L180.05,21.53L180.05,20.65L179.47,20.30L179.18,20.14L178.76,19.94"/></g></g><g><g><path style="stroke:#000000;stroke-width:0.210;stroke-dasharray:2.1 2.1" d="M121.85,150.08L138.20,162.28"/></g></g><g><g><path style="stroke:#000000;stroke-width:0.210;stroke-dasharray:2.1 2.1" d="M136.58,40.74L136.14,16.75"/></g></g><g id="PMI14.0"><g><path style="stroke:#000000;stroke-width:0.280" d="M166.21,62.75L170.49,62.80"/></g><g><path style="fill:#000000" d="M170.47,63.81L170.49,61.81L172.48,62.83z"/></g><g><path style="fill:#ffffff" d="M142.31,65.17L166.20,65.17L166.20,60.09L142.31,60.09z"/><path style="stroke:#000000;stroke-width:0.280;stroke-opacity:0.98" d="M142.31,65.17L166.20,65.17L166.20,60.09L142.31,60.09z"/><text xml:space="preserve" fill="#000000" stroke-width="0" x="142.95" y="63.74" font-size="3.08" opacity="1.00" font-family="Microsoft Sans Serif">L0356005018A0</text></g></g><g id="PMI11.0"><g><path style="stroke:#000000;stroke-width:0.280" d="M267.26,52.47L267.19,58.78"/></g><g><path style="fill:#000000" d="M266.17,58.77L268.17,58.80L267.15,60.78z"/></g><g><path style="fill:#ffffff" d="M255.50,52.48L279.05,52.48L279.05,47.40L255.50,47.40z"/><path style="stroke:#000000;stroke-width:0.280;stroke-opacity:0.98" d="M255.50,52.48L279.05,52.48L279.05,47.40L255.50,47.40z"/><text xml:space="preserve" fill="#000000" stroke-width="0" x="256.14" y="51.05" font-size="3.08" opacity="1.00" font-family="Microsoft Sans Serif">L035600002195</text></g></g><g id="PMI19.0"><g><path style="stroke:#000000;stroke-width:0.280" d="M205.36,91.24L213.45,91.10"/></g><g><path style="fill:#000000" d="M213.45,92.11L213.41,90.11L215.43,91.07z"/></g><g><path style="fill:#ffffff" d="M181.45,94.00L205.34,94.00L205.34,88.92L181.45,88.92z"/><path style="stroke:#000000;stroke-width:0.280;stroke-opacity:0.98" d="M181.45,94.00L205.34,94.00L205.34,88.92L181.45,88.92z"/><text xml:space="preserve" fill="#000000" stroke-width="0" x="182.09" y="92.57" font-size="3.08" opacity="1.00" font-family="Microsoft Sans Serif">L0356011087A0</text></g></g><g id="PMI17.0"><g><path style="stroke:#000000;stroke-width:0.280" d="M138.72,170.12L138.56,165.51"/></g><g><path style="fill:#000000" d="M139.56,165.47L137.56,165.54L138.49,163.50z"/></g><g><path style="fill:#ffffff" d="M128.29,175.19L149.34,175.19L149.34,170.11L128.29,170.11z"/><path style="stroke:#000000;stroke-width:0.280;stroke-opacity:0.98" d="M128.29,175.19L149.34,175.19L149.34,170.11L128.29,170.11z"/><text xml:space="preserve" fill="#000000" stroke-width="0" x="128.93" y="173.76" font-size="3.09" opacity="1.00" font-family="Microsoft Sans Serif">Q1840830F61</text></g></g><g id="PMI21.0"><g><path style="stroke:#000000;stroke-width:0.280" d="M126.75,27.56L132.93,27.42"/></g><g><path style="fill:#000000" d="M132.96,28.43L132.91,26.44L134.93,27.39z"/></g><g><path style="fill:#ffffff" d="M114.54,30.26L126.75,30.26L126.75,25.18L114.54,25.18z"/><path style="stroke:#000000;stroke-width:0.280;stroke-opacity:0.98" d="M114.54,30.26L126.75,30.26L126.75,25.18L114.54,25.18z"/><text xml:space="preserve" fill="#000000" stroke-width="0" x="115.18" y="28.83" font-size="3.08" opacity="1.00" font-family="Microsoft Sans Serif">Q41216</text></g></g><g id="PMI12.0"><g><path style="stroke:#000000;stroke-width:0.280" d="M32.71,190.81L32.83,198.59"/></g><g><path style="fill:#000000" d="M31.85,198.59L33.85,198.56L32.88,200.57z"/></g><g><path style="fill:#ffffff" d="M20.92,190.79L44.46,190.79L44.46,185.72L20.92,185.72z"/><path style="stroke:#000000;stroke-width:0.280;stroke-opacity:0.98" d="M20.92,190.79L44.46,190.79L44.46,185.72L20.92,185.72z"/><text xml:space="preserve" fill="#000000" stroke-width="0" x="21.55" y="189.37" font-size="3.08" opacity="1.00" font-family="Microsoft Sans Serif">L035600002196</text></g></g><g id="PMI18.0"><g><path style="stroke:#000000;stroke-width:0.280" d="M147.60,17.46L141.80,17.49"/></g><g><path style="fill:#000000" d="M141.80,16.50L141.81,18.50L139.80,17.51z"/></g><g><path style="fill:#ffffff" d="M147.60,19.95L167.26,19.95L167.26,14.87L147.60,14.87z"/><path style="stroke:#000000;stroke-width:0.280;stroke-opacity:0.98" d="M147.60,19.95L167.26,19.95L167.26,14.87L147.60,14.87z"/><text xml:space="preserve" fill="#000000" stroke-width="0" x="148.24" y="18.52" font-size="3.09" opacity="1.00" font-family="Microsoft Sans Serif">Q351B16F61</text></g></g><g/><g id="paperID" visibility="hidden" opacity="0.00" transform="scale(0.000100)"><path style="stroke:#000000;stroke-width:0.500;fill:#e6e6e6;fill-rule:evenodd" d="M-2000.00,-2000.00L2297.00,-2000.00L2297.00,2210.00L-2000.00,2210.00zM0.00,0.00L297.00,0.00L297.00,210.00L0.00,210.00z"/><path style="fill:#000000;fill-opacity:0.118" d="M3.00,210.00L297.00,210.00L297.00,3.00L300.00,3.00L300.00,213.00L3.00,213.00z"/></g><g id="hotspot.0" onmouseover="ShowHotSpot(evt,'0')" onmouseout="HideHotSpot(evt,'0')" onmousemove="ShowToolTip(evt,'0',&quot;3dp415417 (I_3DPart415417.27)&quot;)" opacity="0"><path style="fill:#00ff00;fill-rule:evenodd" d="M279.22,47.40L279.12,52.47L267.46,52.71L267.49,58.62L268.06,58.80L267.46,60.14L267.99,60.16L268.80,59.57L269.15,59.54L269.44,59.83L269.41,60.73L268.51,61.16L268.09,61.80L265.09,63.86L264.03,63.80L234.95,80.50L232.56,81.02L225.68,81.02L224.62,81.28L221.45,83.13L220.72,83.99L220.76,88.51L219.96,90.11L219.44,92.22L218.63,92.77L218.38,91.05L217.30,89.75L216.76,89.46L216.74,89.05L219.15,89.04L219.44,88.53L219.41,83.73L220.50,82.18L223.83,80.22L225.68,79.70L232.83,79.70L235.21,78.91L263.22,62.75L264.29,61.44L266.80,60.22L266.46,59.32L266.42,58.84L266.73,58.61L266.77,52.71L255.38,52.47L255.38,47.24L278.96,47.13z"/></g><g id="hotspot.1" onmouseover="ShowHotSpot(evt,'1')" onmouseout="HideHotSpot(evt,'1')" onmousemove="ShowToolTip(evt,'1',&quot;3dp415417 (I_3DPart415417.27)&quot;)" opacity="0"><path style="fill:#00ff00;fill-rule:evenodd" d="M118.93,150.03L118.95,152.01L117.25,152.98L116.82,152.96L116.29,152.40L114.35,152.70L109.93,152.69L106.49,152.16L104.01,152.15L98.82,155.15L97.12,156.62L93.98,163.01L92.37,164.84L38.77,197.22L38.79,198.24L37.65,199.00L36.86,198.95L33.92,200.82L32.62,200.80L29.97,202.44L29.29,202.42L28.98,201.89L28.90,201.10L31.92,199.30L31.86,198.43L32.42,198.26L32.45,191.03L20.79,190.79L20.79,185.56L44.37,185.45L44.64,185.71L44.53,190.79L33.14,191.03L33.16,197.76L33.64,197.66L35.24,196.57L36.17,195.65L36.85,195.23L37.49,195.52L38.17,195.56L91.71,163.39L92.74,162.03L95.79,155.83L98.02,153.83L103.23,150.83L104.29,150.57L106.23,150.57L111.78,151.37L113.02,151.37L115.22,150.91L115.21,149.35L117.00,148.41L117.88,148.75z"/></g><g id="hotspot.2" onmouseover="ShowHotSpot(evt,'2')" onmouseout="HideHotSpot(evt,'2')" onmousemove="ShowToolTip(evt,'2',&quot;3dp396533 (I_CT 02.3)&quot;)" opacity="0"><path style="fill:#00ff00;fill-rule:evenodd" d="M178.71,17.53L178.71,21.35L178.08,22.31L174.97,22.32L174.20,21.78L174.20,18.69L174.46,17.10L175.16,16.74L177.65,16.74zM174.46,26.04L176.48,26.28L178.94,25.97L178.40,26.87L177.88,31.66L177.93,33.25L177.30,33.96L174.73,47.78L174.72,55.63L174.99,58.80L175.77,61.99L176.84,64.35L178.71,67.24L181.35,69.89L183.74,71.48L185.83,72.30L187.95,72.82L195.88,73.08L211.22,73.35L212.29,73.61L213.87,74.40L215.19,75.72L215.98,77.84L215.97,79.80L216.27,84.43L216.52,84.71L216.52,86.93L216.23,87.69L214.58,88.16L213.06,88.17L211.74,87.64L211.74,85.33L211.96,84.49L212.26,84.25L212.57,80.60L212.82,80.32L213.09,78.64L212.32,77.01L211.50,76.51L210.16,76.26L188.21,75.99L185.55,75.48L182.13,74.14L178.97,72.01L176.33,69.36L173.93,65.68L172.59,62.52L171.82,59.07L171.55,56.69L171.20,50.35L171.81,45.40L173.94,33.69L173.96,26.77L173.12,26.25L173.03,25.74L173.94,25.72zM138.23,35.00L138.77,35.51L139.21,41.96L139.84,42.38L139.83,44.09L139.18,45.05L139.81,49.81L139.81,53.25L140.34,57.48L140.87,64.62L140.87,70.52L140.34,78.46L138.76,89.30L136.91,97.50L134.26,105.43L132.06,110.37L124.74,123.68L122.87,128.43L122.10,132.15L122.09,134.97L122.59,139.24L123.41,139.74L123.69,141.92L123.14,143.50L120.97,144.24L119.70,144.24L118.04,143.52L117.76,141.32L118.14,140.35L118.13,137.61L117.74,134.96L118.38,134.25L119.37,128.36L120.95,123.86L124.10,118.01L129.24,108.61L131.61,103.04L133.47,97.50L135.32,89.57L136.64,81.37L137.43,72.11L137.43,63.83L136.38,53.78L136.13,51.91L135.59,51.39L134.81,45.82L133.39,44.60L133.48,42.77L134.01,41.98L134.26,35.35L135.76,34.73L137.44,34.73zM172.11,62.53L172.11,62.83L171.01,63.43L170.48,63.06L166.43,63.02L166.27,65.25L142.18,65.16L142.18,59.93L166.27,59.85L166.43,62.34L170.48,62.30L171.01,61.93z"/></g><g id="hotspot.3" onmouseover="ShowHotSpot(evt,'3')" onmouseout="HideHotSpot(evt,'3')" onmousemove="ShowToolTip(evt,'3',&quot;3dp382068 (I_F61BU LNG 0830125.31)&quot;)" opacity="0"><path style="fill:#00ff00;fill-rule:evenodd" d="M212.30,92.88L211.47,94.60L210.97,94.54L209.90,93.97L209.87,92.71L210.60,92.09L210.96,92.10zM217.36,93.92L217.77,94.83L218.39,95.27L218.37,96.72L218.12,97.26L217.22,97.71L214.92,97.68L214.66,97.41L214.64,95.10L215.88,93.70L217.06,93.70zM139.31,161.41L141.69,161.40L142.48,162.19L142.74,163.51L143.00,163.78L143.00,164.96L142.73,165.47L141.86,166.19L138.94,166.15L138.93,169.71L149.61,169.87L149.53,175.18L128.17,175.18L128.17,169.95L138.24,169.71L138.21,165.41L137.89,165.17L137.95,164.40L138.24,163.75L134.00,160.63L134.00,159.12L134.97,158.48L135.32,158.48z"/></g><g id="hotspot.4" onmouseover="ShowHotSpot(evt,'4')" onmouseout="HideHotSpot(evt,'4')" onmousemove="ShowToolTip(evt,'4',&quot;3dp404857 (I_AI C M16.24)&quot;)" opacity="0"><path style="fill:#00ff00;fill-rule:evenodd" d="M139.02,13.84L140.34,14.64L140.52,16.86L141.69,16.49L141.66,18.18L141.15,18.11L140.59,17.76L140.27,17.79L140.00,18.87L138.42,19.67L137.09,19.93L135.05,19.93L132.67,19.13L132.15,18.87L131.87,16.85L132.13,14.70L132.58,14.10L134.97,13.31L137.44,13.31zM142.06,17.61L142.06,17.30L147.23,17.11L147.47,14.71L167.33,14.62L167.33,20.02L147.47,19.94L147.23,17.80zM180.01,20.46L180.01,23.45L179.74,24.50L177.83,25.23L174.97,25.23L172.89,24.41L172.61,24.16L172.61,22.39L172.79,20.19L173.96,19.66L174.20,21.78L174.97,22.32L178.08,22.31L178.71,21.35L178.96,19.90zM134.96,16.47L137.44,16.47L137.14,16.76L135.01,16.73z"/></g><g id="hotspot.5" onmouseover="ShowHotSpot(evt,'5')" onmouseout="HideHotSpot(evt,'5')" onmousemove="ShowToolTip(evt,'5',&quot;3dp412752 (I_CO L.3)&quot;)" opacity="0"><path style="fill:#00ff00;fill-rule:evenodd" d="M213.06,88.17L214.58,88.17L215.97,87.88L216.43,89.29L217.31,89.74L218.38,91.05L218.39,92.77L217.23,93.46L215.88,93.69L214.64,95.10L214.40,97.00L213.87,96.92L211.75,95.83L211.73,93.78L212.58,92.75L212.28,91.33L205.57,91.32L205.42,94.07L181.32,93.99L181.32,88.76L205.41,88.68L205.57,90.63L212.30,90.63L212.20,87.87L212.53,87.84zM119.71,144.24L120.97,144.24L123.45,143.44L123.68,145.02L123.68,148.44L124.74,149.25L125.56,150.31L125.55,150.91L125.01,152.25L123.88,153.24L122.37,153.20L120.27,151.63L119.10,152.01L118.93,150.03L117.88,148.75L117.75,148.76L117.00,148.19L119.18,146.96L119.18,145.55L118.86,143.91z"/></g><g id="hotspot.6" onmouseover="ShowHotSpot(evt,'6')" onmouseout="HideHotSpot(evt,'6')" onmousemove="ShowToolTip(evt,'6',&quot;3dp404873 (I_VNG M 16.7)&quot;)" opacity="0"><path style="fill:#00ff00;fill-rule:evenodd" d="M180.79,22.81L180.84,23.98L180.29,25.05L179.38,25.73L176.48,26.28L174.46,26.04L172.88,25.47L171.82,24.42L171.44,22.84L172.35,21.80L172.65,21.80L172.61,24.16L172.89,24.41L174.97,25.23L177.83,25.23L179.74,24.50L180.28,22.27zM139.27,26.23L139.21,26.54L140.33,26.82L141.38,27.83L141.42,28.99L140.92,30.10L139.79,31.09L138.66,31.28L138.39,31.54L136.91,31.57L136.62,31.89L134.24,31.57L133.20,31.32L131.86,30.26L131.63,29.96L131.24,28.39L131.61,27.57L127.02,27.85L126.78,30.25L114.41,30.25L114.41,25.02L126.87,24.94L127.02,27.16L132.39,26.86L132.62,26.56L133.63,26.24L133.91,25.98L134.97,26.04L135.51,25.70L136.28,26.06L137.10,25.71L137.66,25.75L137.92,26.09L139.06,25.97zM139.06,28.38L139.05,29.00L138.66,29.44L137.63,29.99L135.04,29.99L134.01,29.44L133.72,29.16L133.72,28.50L134.44,27.86L135.23,27.59L137.71,27.58z"/></g></g></svg>
