<?xml version="1.0" encoding="UTF-8" standalone="no"?>
<svg xmlns="http://www.w3.org/2000/svg" xmlns:xlink="http://www.w3.org/1999/xlink" width="297.000mm" height="210.000mm" viewBox="0.000000 0.000000 297.000000 210.000000" stroke-linejoin="round" stroke-linecap="round" fill="none" fill-rule="evenodd"><desc>Composer Export</desc><script type="text/ecmascript"><![CDATA[
if(typeof(top) != "undefined")
{
	top.ShowPaper = ShowPaper;
}
function ShowHotSpot(evt,hotspotid)
{
	var svgDocument = evt.target.ownerDocument;
	var strId = "hotspot."+hotspotid;
	var hotspot = svgDocument.getElementById(strId);
	if(hotspot)
		hotspot.setAttribute("opacity",".5");
}
function HideHotSpot(evt,hotspotid)
{
	var svgDocument = evt.target.ownerDocument;
	var strId = "hotspot."+hotspotid;
	var hotspot = svgDocument.getElementById(strId);
	if(hotspot)
		hotspot.setAttribute("opacity","0");

	var toolTip = svgDocument.getElementById('ToolTip');
	if(toolTip)
		toolTip.setAttribute("visibility","hidden");
}
function ShowToolTip(evt,hotspotid,strTooltip)
{
	if(strTooltip=="")
	return;

	// change text
	var svgDocument = evt.target.ownerDocument;
	var tiptext = svgDocument.getElementById('ToolTipText');
	if( !tiptext )
	return;
	tiptext.firstChild.nodeValue = " " + strTooltip + "  " ;

	// show tooltip before, else some refresh issue

	var toolTip = svgDocument.getElementById('ToolTip');
	if(!toolTip)
	return;

	toolTip.setAttribute("visibility","visible");
	toolTip.setAttribute("opacity",".95");

	// move tooltip
	// get viewbox

	var root = svgDocument.documentElement;
	var vbox = (root.getAttribute("viewBox")).split(' ');
	var x0 = parseFloat(vbox[0]);
	var y0 = parseFloat(vbox[1]);
	var vboxW = parseFloat(vbox[2]);
	var vboxH = parseFloat(vbox[3]);

	// get default width of svg

	var strW = root.getAttribute("width");
	var svgW = parseFloat(strW);
	if(strW.indexOf('mm') != -1)
	svgW *= 3.779;

	var strH = root.getAttribute("height");
	var svgH = parseFloat(strH);
	if(strH.indexOf('mm') != -1)
	svgH *= 3.779;  	// 96 dpi  -> 96/25.4 = 3.779

	// update the viewbox / width / height if svg is embedded in html with zoom fit all
	var realx0 = x0;
	var realy0 = y0;
	var realvboxW = vboxW;
	var realvboxH = vboxH;
	var realsvgW = svgW;
	var realsvgH = svgH;

	if ((typeof(top) == "undefined") || (typeof(top.svgctl1) != "undefined")) // embedded in html
	{
		// get window size in pxl

		svgW = window.innerWidth;
		svgH = window.innerHeight;

		// calculate real viewbox

		realsvgW = svgW;
		realsvgH = svgH;
		if((svgW / svgH) > (vboxW / vboxH))
		{
			realvboxW = (vboxH * svgW) / svgH;
			realvboxH = vboxH;
			realx0 = x0 - (realvboxW - vboxW)/2 ;
		}
		else
		{
			realvboxH = (vboxW * svgH) / svgW;
			realvboxW = vboxW;
			realy0 = y0 - (realvboxH - vboxH)/2 ;
		}
	}

	// get user zoom/pan

	var newScale = root.currentScale;
	var translation = root.currentTranslate;

	// transform pxl to user unit

	var xPos = (((evt.clientX+10- translation.x)/newScale) * realvboxW)/realsvgW  + realx0 ;
	var yPos = (((evt.clientY+5- translation.y)/newScale) * realvboxH)/ realsvgH  + realy0 ;
	var scaleForWidth = ( (1 / newScale) * realvboxH) / realsvgH;

	// move tooltip

	toolTip.setAttribute("transform", "translate(" + xPos + "," + yPos + ")" );

	// resize tooltip

	var fontsize = 12;
	tiptext.setAttribute("font-size",fontsize*scaleForWidth);
	tiptext.setAttribute("y", fontsize*scaleForWidth);
	var tipBG = svgDocument.getElementById('ToolTipBG');
	var outline = tiptext.getBBox();
	if(tipBG)
	{
		tipBG.setAttribute("stroke-width", 1*scaleForWidth);
		tipBG.setAttribute("width", Number(outline.width) );
		tipBG.setAttribute("height", Number(outline.height) + fontsize*.5*scaleForWidth );
	}
	var ToolTipShadow = svgDocument.getElementById('ToolTipShadow');
	if(ToolTipShadow)
	{
		ToolTipShadow.setAttribute("width", Number(outline.width) );
		ToolTipShadow.setAttribute("height", Number(outline.height) + fontsize*.5*scaleForWidth );
		ToolTipShadow.setAttribute("x", 3*scaleForWidth);
		ToolTipShadow.setAttribute("y", 3*scaleForWidth);
	}
}
function ShowPaper()
{
  var svgDocument = getDocument();
  var paper = svgDocument.getElementById("paperID");
  if(paper)
  {
    paper.setAttribute("transform","scale(1)");
    paper.setAttribute("opacity","1");
    paper.setAttribute("visibility","visible");
  }
  var svg = svgDocument.getRootElement();
  if(svg)
  {
    svg.setAttribute("width","307.000mm");
    svg.setAttribute("height","220.000mm");
    svg.setAttribute("viewBox","-5.000000 -5.000000 307.000000 220.000000");
  }
}
]]></script><defs/><g><g id="Actor_.0"><g style="stroke:#000000;stroke-width:0.123"><path d="M227.39,34.92L227.31,34.95L227.21,34.88L227.17,34.74L227.22,34.61L227.34,34.57L227.36,34.58"/><path d="M227.17,34.74L227.26,34.72"/><path d="M227.90,35.44L227.74,35.47L227.62,35.60L227.56,35.78L227.59,35.97L227.70,36.13L227.85,36.20L228.34,36.26L228.42,36.24"/><path d="M230.50,35.75L230.33,35.79L230.21,35.91L230.15,36.10L230.18,36.29L230.28,36.45L230.44,36.52L230.93,36.58L231.02,36.56"/><path d="M231.78,35.45L231.70,35.48L231.60,35.41L231.56,35.27L231.62,35.14L231.73,35.09L231.75,35.11"/><path d="M231.56,35.27L231.65,35.25"/></g><g style="stroke:#000000;stroke-width:0.123"><path d="M231.93,43.83L222.03,29.14"/><path d="M227.26,34.72L227.32,34.60L227.36,34.58L227.44,34.64L227.48,34.78L227.42,34.90L227.39,34.92L227.31,34.87L227.26,34.72"/><path d="M228.38,35.50L227.90,35.44L227.83,35.45L227.71,35.58L227.66,35.76L227.69,35.96L227.79,36.11L227.94,36.18L228.42,36.24L228.49,36.22L228.62,36.10L228.67,35.92L228.64,35.72L228.54,35.57L228.38,35.50"/><path d="M230.38,36.43L230.27,36.28L230.24,36.08L230.30,35.90L230.42,35.77L230.50,35.75L230.99,35.81L231.14,35.88L231.24,36.04L231.27,36.23L231.22,36.42L231.09,36.55L231.02,36.56L230.53,36.50L230.38,36.43"/><path d="M231.82,35.43L231.78,35.45L231.69,35.39L231.65,35.25L231.71,35.12L231.75,35.11L231.84,35.16L231.87,35.30L231.82,35.43"/></g></g><g id="Actor_.1"><g style="stroke:#000000;stroke-width:0.123"><path d="M200.53,101.52L200.54,101.52"/><path d="M201.81,99.28L201.82,99.29"/><path d="M227.18,110.23L227.13,110.14L227.26,108.42L227.34,108.27"/><path d="M227.20,110.17L227.33,108.33"/></g><g style="stroke:#000000;stroke-width:0.123"><path d="M227.40,107.45L201.82,99.29L200.64,99.67L200.55,99.80L200.48,101.42L200.53,101.51L227.20,110.23"/></g></g><g id="Actor_.2"><g style="stroke:#000000;stroke-width:0.123"><path d="M227.50,151.14L227.59,149.94L228.43,149.51"/><path d="M227.77,150.66L227.79,150.69L227.88,150.71L228.00,150.65L228.10,150.53L228.18,150.37L228.22,150.20L228.21,150.05L228.15,149.96L228.06,149.95"/><path d="M227.97,150.51L227.97,150.50"/><path d="M227.48,149.89L227.59,149.94"/></g><g style="stroke:#000000;stroke-width:0.123"><path d="M227.39,151.10L227.48,149.89L228.32,149.46L228.43,149.51L228.34,150.71L227.50,151.14L227.39,151.10"/><path d="M227.97,150.51L227.89,150.60L227.77,150.66L227.77,150.66L227.73,150.60L227.72,150.46L227.75,150.29L227.83,150.13L227.94,150.00L228.05,149.95L228.06,149.95L228.10,150.01L228.11,150.15L228.07,150.32L227.99,150.48L227.97,150.50"/></g></g><g id="Actor_.3"><g style="stroke:#000000;stroke-width:0.123"><path d="M203.29,63.58L203.29,63.58"/><path d="M229.90,72.02L229.85,71.91L229.99,70.04L230.07,69.88"/><path d="M229.92,71.95L230.03,70.03L230.07,69.95"/></g><g style="stroke:#000000;stroke-width:0.123"><path d="M229.92,72.02L201.97,65.86L201.91,65.77L201.99,63.96L202.09,63.85L203.30,63.58L230.11,69.30"/></g></g><g id="Actor_.4"><g style="stroke:#000000;stroke-width:0.123"><path d="M176.18,24.27L174.75,24.14"/><path d="M174.86,24.13L176.12,24.26"/></g><g style="stroke:#000000;stroke-width:0.123"><path d="M174.81,24.12L173.79,122.21"/><path d="M176.53,93.67L176.16,122.23"/><path d="M176.95,60.34L176.56,91.22"/><path d="M177.40,24.40L176.98,57.97"/></g></g><g id="Actor_.5"><g style="stroke:#000000;stroke-width:0.123"><path d="M159.16,19.42L159.15,19.42L159.13,19.42L159.12,19.43L159.11,19.43L159.11,19.44L159.10,19.45L159.09,19.46L159.08,19.47L159.08,19.48L159.07,19.49L159.07,19.51L159.07,19.52L159.06,19.55L159.06,19.57L159.06,19.59L159.06,19.60L159.07,19.62L159.07,19.65L159.08,19.66L159.09,19.68L159.10,19.69L159.11,19.70L159.12,19.71L159.13,19.72L159.13,19.72L159.14,19.73L159.15,19.73L159.17,19.74L159.18,19.74L159.19,19.74"/></g></g><g id="Actor_.6"><g style="stroke:#000000;stroke-width:0.123"><path d="M155.23,53.34L155.23,53.34"/><path d="M174.40,59.77L174.35,59.68L174.37,58.07L174.42,57.95"/><path d="M174.42,58.03L174.40,59.70"/></g><g style="stroke:#000000;stroke-width:0.123"><path d="M174.42,57.43L155.23,53.34L154.03,53.55L153.96,53.66L153.98,55.18L154.00,55.25L154.06,55.29L174.40,59.77"/></g></g><g id="Actor_.7"><g style="stroke:#000000;stroke-width:0.123"><path d="M154.42,86.43L154.42,86.43"/><path d="M155.57,84.52L155.57,84.52"/><path d="M174.07,92.86L174.03,92.77L174.04,91.29L174.09,91.17"/><path d="M174.09,91.24L174.08,92.79"/></g><g style="stroke:#000000;stroke-width:0.123"><path d="M174.07,92.86L154.42,86.43L154.37,86.37L154.35,84.90L154.45,84.81L155.60,84.53L174.10,90.44"/></g></g><g id="Actor_.8"><g style="stroke:#000000;stroke-width:0.123"><path d="M156.35,25.22L156.34,23.97L157.09,23.89L157.14,23.88L157.15,23.87L157.15,23.87L157.15,23.87"/><path d="M156.36,23.79L157.00,23.86L157.02,23.87L157.03,23.87L157.02,23.88L156.99,23.88L156.36,23.95"/><path d="M156.34,23.97L156.26,23.96"/><path d="M156.78,24.76L156.80,24.76L156.83,24.76L156.85,24.75L156.87,24.73L156.89,24.72L156.91,24.69L156.92,24.67L156.94,24.64L156.95,24.62L156.96,24.56L156.96,24.52L156.95,24.46L156.95,24.44L156.93,24.41L156.92,24.39L156.90,24.37L156.89,24.35L156.87,24.34L156.84,24.33L156.82,24.33L156.79,24.33L156.81,24.34L156.82,24.36L156.84,24.38L156.85,24.40L156.87,24.43L156.87,24.45L156.88,24.48L156.88,24.55L156.87,24.61L156.85,24.64L156.83,24.69L156.81,24.71L156.79,24.72L156.77,24.74L156.74,24.75L156.76,24.76L156.78,24.76"/><path d="M156.79,24.33L156.75,24.34L156.73,24.35L156.71,24.37L156.69,24.39L156.68,24.41L156.65,24.47L156.64,24.53L156.64,24.59L156.65,24.62L156.66,24.65L156.67,24.68L156.68,24.70L156.70,24.72L156.72,24.74L156.74,24.75"/></g><g style="stroke:#000000;stroke-width:0.123"><path d="M157.16,25.11L157.16,25.11L157.14,25.12L157.08,25.13L156.35,25.22L156.27,25.21L156.26,23.96L156.36,23.95"/><path d="M157.15,23.87L157.14,23.86L157.09,23.85L156.45,23.78L156.36,23.79L156.36,23.95"/><path d="M157.15,23.87L157.16,25.11"/></g></g><g id="Actor_.9"><g style="stroke:#000000;stroke-width:0.123"><path d="M200.99,23.43L200.98,23.43L200.97,23.43L200.96,23.43L200.94,23.43L200.93,23.44L200.91,23.44L200.90,23.45L200.89,23.46L200.88,23.47L200.87,23.49L200.86,23.50L200.85,23.51L200.85,23.53L200.84,23.55L200.84,23.57L200.83,23.59L200.83,23.61L200.83,23.63L200.84,23.65L200.84,23.67L200.85,23.69L200.85,23.70L200.86,23.72L200.87,23.74L200.88,23.75L200.89,23.76L200.90,23.77L200.92,23.78L200.93,23.78L200.94,23.79L200.96,23.79L200.97,23.79L200.99,23.79L201.00,23.79L201.01,23.78L201.02,23.78"/></g><g style="stroke:#000000;stroke-width:0.123"><path d="M201.05,23.68L201.05,23.67L201.05,23.66L201.04,23.65L201.04,23.64L201.04,23.63"/><path d="M201.03,23.56L201.03,23.57L201.03,23.58L201.03,23.59L201.03,23.60L201.03,23.61L201.04,23.62"/><path d="M201.04,23.63L201.04,23.62"/><path d="M201.03,23.56L201.03,23.55L201.03,23.54L201.04,23.53L201.04,23.52"/></g></g><g id="Actor_.10"><g style="stroke:#000000;stroke-width:0.123"><path d="M175.34,93.28L175.35,93.28"/><path d="M199.13,99.21L199.07,99.32L199.06,99.64L199.01,100.96L199.06,101.03"/><path d="M199.06,100.96L199.13,99.29"/></g><g style="stroke:#000000;stroke-width:0.123"><path d="M199.16,98.44L176.56,91.22L175.39,91.55L175.31,91.67L175.29,93.19L175.35,93.28L199.06,101.03"/></g></g><g id="Actor_.11"><g style="stroke:#000000;stroke-width:0.123"><path d="M154.98,33.97L162.79,22.85"/><path d="M156.98,27.40L156.92,27.41L156.61,27.37L156.51,27.32L156.43,27.20L156.40,27.04L156.43,26.89L156.50,26.79L156.64,26.76"/><path d="M156.22,26.33L156.16,26.37L156.09,26.31L156.06,26.20L156.09,26.10L156.16,26.06L156.19,26.08"/><path d="M156.06,26.20L156.15,26.19"/><path d="M158.66,27.61L158.60,27.62L158.28,27.58L158.18,27.53L158.11,27.41L158.08,27.25L158.10,27.10L158.18,26.99L158.31,26.97"/><path d="M158.99,26.53L158.90,26.54L158.93,26.66L159.00,26.71L159.06,26.68"/><path d="M158.90,26.54L158.93,26.44L159.00,26.40L159.03,26.42"/></g><g style="stroke:#000000;stroke-width:0.123"><path d="M162.87,22.86L155.07,33.95L154.98,33.97L154.85,22.00"/><path d="M156.52,26.88L156.49,27.03L156.52,27.19L156.60,27.31L156.70,27.36L156.98,27.40L157.02,27.38L157.09,27.28L157.12,27.13L157.09,26.97L157.02,26.85L156.92,26.80L156.64,26.76L156.59,26.78L156.52,26.88"/><path d="M156.18,26.30L156.15,26.19L156.18,26.09L156.23,26.11L156.26,26.23L156.23,26.33L156.18,26.30"/><path d="M158.20,27.09L158.17,27.24L158.20,27.39L158.27,27.52L158.37,27.57L158.66,27.61L158.70,27.59L158.78,27.49L158.80,27.34L158.77,27.18L158.70,27.06L158.60,27.00L158.31,26.97L158.27,26.98L158.20,27.09"/><path d="M159.02,26.43L159.07,26.45L159.10,26.57L159.07,26.67L159.02,26.64L158.99,26.53L159.02,26.43"/></g></g><g id="Actor_.12"><g style="stroke:#000000;stroke-width:0.123"><path d="M225.29,26.11L225.28,26.12L225.27,26.12L225.25,26.13L225.24,26.14L225.23,26.14L225.21,26.14L225.19,26.14L225.18,26.14L225.16,26.13L225.15,26.13L225.14,26.12L225.12,26.11L225.11,26.10L225.09,26.08L225.08,26.07L225.08,26.06L225.07,26.04L225.06,26.02L225.06,26.00L225.05,25.99L225.05,25.97L225.05,25.95L225.05,25.92L225.06,25.90L225.06,25.88L225.06,25.87L225.07,25.86L225.08,25.84L225.09,25.83L225.10,25.81L225.11,25.80L225.13,25.78L225.14,25.77L225.16,25.77L225.17,25.76L225.18,25.76L225.20,25.76L225.21,25.76L225.22,25.76L225.24,25.76L225.26,25.77"/></g><g style="stroke:#000000;stroke-width:0.123"><path d="M225.31,26.07L225.30,26.06L225.29,26.05L225.28,26.03L225.27,26.01L225.26,25.99L225.26,25.98L225.25,25.96L225.25,25.94L225.25,25.92L225.25,25.91L225.25,25.88L225.26,25.86L225.26,25.85L225.27,25.83L225.28,25.81L225.28,25.80"/></g></g><g id="Actor_.13"><g style="stroke:#000000;stroke-width:0.123"><path d="M153.68,21.88L153.66,21.88"/><path d="M154.85,19.90L154.83,19.89"/><path d="M231.24,28.97L231.36,29.52L231.79,29.88L232.28,29.79L232.62,29.25L232.52,28.55L232.03,28.18L231.53,28.34L231.24,28.97"/><path d="M231.89,28.18L231.45,28.49L231.31,29.18L231.58,29.72L232.03,29.89"/><path d="M232.89,30.29L232.99,28.05L234.28,27.76"/><path d="M233.05,28.06L232.90,30.19"/></g><g style="stroke:#000000;stroke-width:0.123"><path d="M232.89,30.29L153.58,21.81L153.55,20.17L153.64,20.02L154.81,19.89L158.57,20.26"/><path d="M176.94,22.08L160.75,20.48"/><path d="M200.16,24.38L179.28,22.31"/><path d="M202.71,24.63L224.26,26.77"/><path d="M234.29,27.76L227.04,27.04"/></g></g><g id="Actor_.14"><g style="stroke:#000000;stroke-width:0.123"><path d="M176.97,57.97L176.97,57.97"/><path d="M200.50,63.54L200.44,63.68L200.37,65.41L200.42,65.52"/><path d="M200.43,65.44L200.50,63.62"/></g><g style="stroke:#000000;stroke-width:0.123"><path d="M200.52,62.99L176.98,57.97L175.77,58.21L175.68,58.33L175.66,59.96L175.73,60.07L200.42,65.52"/></g></g><g id="Actor_.15"><g style="stroke:#000000;stroke-width:0.123"><path d="M152.25,19.77L151.74,19.82L153.56,20.01L154.76,19.89L153.00,19.70L152.25,19.77"/><path d="M151.72,19.83L151.72,19.83"/><path d="M151.65,19.83L153.55,20.02L154.86,19.88"/><path d="M154.79,19.88L154.79,19.89"/></g><g style="stroke:#000000;stroke-width:0.123"><path d="M155.93,117.66L155.95,119.42L154.69,119.81L153.10,119.11L151.65,19.83L152.95,19.69L154.86,19.90"/><path d="M155.57,84.52L155.25,55.55"/><path d="M155.01,33.96L155.23,53.34"/><path d="M155.59,86.82L155.89,113.72"/></g></g><g id="Actor_.16"><g style="stroke:#000000;stroke-width:0.123"><path d="M202.08,22.93L201.80,22.96L201.55,22.96L200.31,22.85L200.25,22.84L200.22,22.82"/><path d="M200.58,22.79L200.38,22.81L200.36,22.82L200.39,22.83L200.63,22.85"/><path d="M200.70,23.71L200.72,23.77L200.74,23.80L200.79,23.85L200.81,23.86L200.86,23.88L200.89,23.88L200.94,23.86L200.90,23.85L200.88,23.83L200.84,23.79L200.80,23.73L200.78,23.66L200.78,23.63L200.78,23.56L200.80,23.49L200.83,23.43L200.85,23.41L200.90,23.37L200.85,23.37L200.80,23.39L200.76,23.42L200.72,23.47L200.70,23.53L200.69,23.57L200.69,23.64L200.70,23.71"/><path d="M200.90,23.37L200.93,23.39L200.96,23.40L201.00,23.44L201.03,23.50L201.05,23.55L201.06,23.60L201.06,23.68L201.05,23.71L201.03,23.77L200.99,23.83L200.94,23.86"/></g><g style="stroke:#000000;stroke-width:0.123"><path d="M200.22,24.64L201.42,24.76L201.59,24.77L201.79,24.76L202.71,24.64L202.74,23.92L202.08,22.93L201.97,22.92L201.74,22.95L201.58,22.94L200.63,22.85L200.58,22.79L200.48,22.78L200.23,22.81L200.22,22.82L200.15,24.62L200.18,24.64L200.22,24.64"/></g></g><g id="Actor_.17"><g style="stroke:#000000;stroke-width:0.123"><path d="M227.77,150.66L228.07,150.32L228.06,149.95"/><path d="M228.02,149.96L227.74,150.61"/><path d="M237.53,28.06L236.19,28.27L233.06,27.96"/><path d="M233.17,27.96L236.11,28.26L237.40,28.08L234.49,27.77L233.15,27.96"/></g><g style="stroke:#000000;stroke-width:0.123"><path d="M228.31,149.47L237.53,28.06L234.54,27.76L233.05,28.07L224.33,150.49L226.99,151.67L228.16,151.10L228.21,150.78"/></g></g><g id="Actor_.18"><g style="stroke:#000000;stroke-width:0.123"><path d="M203.57,27.18L201.90,27.02"/><path d="M202.01,27.01L201.98,27.02L203.28,27.16"/><path d="M201.98,27.02L201.97,27.02"/><path d="M203.46,27.18L203.52,27.17"/></g><g style="stroke:#000000;stroke-width:0.123"><path d="M201.96,27.00L197.85,132.36"/><path d="M201.70,101.90L200.44,132.36"/><path d="M203.18,66.13L201.81,99.29"/><path d="M204.79,27.31L203.29,63.58"/><path d="M203.28,27.15L203.46,27.18"/></g></g><g id="Actor_.19"><g style="stroke:#000000;stroke-width:0.123"><path d="M229.27,33.72L229.37,32.18L230.12,32.06L230.22,32.05L230.34,32.06L231.34,32.17L231.23,33.71"/><path d="M229.37,32.18L229.25,32.17"/><path d="M229.68,33.11L229.71,33.13L229.75,33.14L229.79,33.13L229.84,33.11L229.88,33.06L229.91,32.99L229.94,32.92L229.95,32.88L229.95,32.81L229.94,32.74L229.92,32.68L229.91,32.65L229.87,32.62L229.85,32.61L229.81,32.60L229.77,32.62"/><path d="M231.34,32.17L231.43,32.15"/></g><g style="stroke:#000000;stroke-width:0.123"><path d="M229.45,33.69L229.27,33.72L229.14,33.70L229.25,32.17L230.00,32.04L230.09,32.03L230.20,32.03L230.32,32.03L230.43,32.04L231.43,32.15L231.32,33.69L231.23,33.71L230.23,33.59L230.12,33.59L230.01,33.59L229.45,33.69"/><path d="M229.64,33.04L229.62,32.97L229.62,32.90L229.63,32.86L229.65,32.79L229.66,32.75L229.69,32.69L229.74,32.64L229.77,32.62L229.80,32.66L229.81,32.69L229.82,32.76L229.83,32.83L229.82,32.87L229.80,32.94L229.77,33.01L229.76,33.04L229.71,33.09L229.69,33.11L229.68,33.11L229.67,33.09L229.64,33.04"/></g></g><g id="Actor_.20"><g style="stroke:#000000;stroke-width:0.123"><path d="M225.12,25.70L225.08,25.73L225.03,25.79L225.00,25.85L224.99,25.93L224.99,26.01L225.02,26.08L225.03,26.11L225.07,26.17L225.10,26.19L225.13,26.20L225.18,26.22L225.12,26.23L225.09,26.23L225.03,26.22L225.01,26.20L224.96,26.15L224.92,26.09L224.91,26.06L224.90,26.02L224.90,25.94L224.91,25.87L224.92,25.83L224.96,25.77L224.98,25.75L225.04,25.71L225.07,25.70L225.10,25.69L225.13,25.69"/><path d="M224.37,25.10L224.39,25.11L224.49,25.13L225.90,25.26L226.02,25.26L226.18,25.26L226.46,25.22"/><path d="M224.74,25.06L224.55,25.09L224.52,25.10L224.56,25.11L224.78,25.13"/><path d="M225.32,26.02L225.30,26.09L225.26,26.16L225.21,26.20L225.18,26.22"/></g><g style="stroke:#000000;stroke-width:0.123"><path d="M224.26,26.79L224.25,27.02L224.27,27.04L224.37,27.05L225.71,27.19L225.94,27.19L226.12,27.19L227.04,27.05L227.09,26.28L226.46,25.22L226.34,25.21L226.13,25.24L225.96,25.24L224.78,25.13L224.74,25.06L224.62,25.05L224.41,25.08L224.38,25.09L224.37,25.10L224.26,26.79"/><path d="M225.12,25.70L225.13,25.70L225.16,25.70L225.22,25.73L225.26,25.77L225.28,25.80L225.30,25.83L225.32,25.91L225.33,25.98L225.32,26.02"/><path d="M225.32,26.02L225.25,25.91"/></g></g><g id="Actor_.21"><g style="stroke:#000000;stroke-width:0.123"><path d="M160.05,18.97L159.79,19.00L159.57,19.00L158.62,18.91L158.57,18.90L158.56,18.89"/><path d="M158.90,18.86L158.70,18.89L158.68,18.89L158.71,18.90L158.95,18.92"/><path d="M158.94,19.67L158.93,19.61L158.93,19.54L158.94,19.48L158.96,19.43L158.99,19.39L159.03,19.37L159.07,19.37L159.10,19.37L159.07,19.40L159.05,19.42L159.03,19.47L159.02,19.53L159.02,19.60L159.03,19.66L159.06,19.71L159.09,19.76L159.11,19.77L159.14,19.79L159.11,19.80L159.09,19.81L159.07,19.81L159.03,19.80L159.01,19.78L158.98,19.75L158.95,19.70L158.94,19.67"/><path d="M159.10,19.37L159.13,19.39L159.15,19.41L159.18,19.45L159.20,19.51L159.21,19.57L159.21,19.63L159.20,19.69L159.18,19.74L159.17,19.76L159.14,19.79"/></g><g style="stroke:#000000;stroke-width:0.123"><path d="M158.57,20.36L158.57,20.48L158.59,20.49L159.58,20.59L159.70,20.59L159.85,20.58L160.75,20.49L160.75,19.85L160.05,18.97L159.97,18.96L159.74,18.99L159.61,18.99L158.95,18.92L158.90,18.86L158.82,18.86L158.58,18.88L158.56,18.89L158.57,20.36"/></g></g><g id="Actor_.22"><g style="stroke:#000000;stroke-width:0.123"><path d="M230.31,111.82L230.56,108.51L230.44,108.48"/><path d="M230.90,109.70L230.99,109.70L231.05,109.78L231.07,109.92L231.03,110.08L230.95,110.22L230.85,110.30L230.75,110.29L230.72,110.26"/><path d="M231.43,108.17L230.56,108.51"/></g><g style="stroke:#000000;stroke-width:0.123"><path d="M230.19,111.78L230.31,111.82L231.18,111.47L231.43,108.17L231.31,108.13L230.44,108.48L230.19,111.78"/><path d="M230.91,110.04L230.95,109.88L230.93,109.74L230.90,109.70L230.89,109.70L230.79,109.78L230.71,109.92L230.67,110.08L230.69,110.21L230.72,110.26L230.73,110.26L230.83,110.18L230.91,110.04"/></g></g><g id="Actor_11.0"><g style="stroke:#000000;stroke-width:0.123"><path d="M135.90,194.76L132.31,99.32L60.23,70.37"/><path d="M132.31,99.32L132.35,99.31"/></g><g style="stroke:#000000;stroke-width:0.123"><path d="M61.12,77.98L60.23,70.37L132.35,99.31L135.94,194.74L68.85,144.78L61.12,77.98"/></g></g><g id="Actor_.23"><g style="stroke:#000000;stroke-width:0.123"><path d="M233.72,71.20L233.73,71.20L233.74,71.21L233.75,71.22L233.77,71.23L233.78,71.24L233.78,71.26L233.79,71.27L233.80,71.29L233.80,71.31L233.80,71.33L233.81,71.36L233.81,71.38L233.81,71.40L233.80,71.43L233.80,71.45L233.79,71.47L233.79,71.50L233.78,71.52L233.77,71.54L233.76,71.56L233.75,71.59L233.74,71.60L233.72,71.62L233.71,71.64L233.70,71.65L233.68,71.66L233.67,71.68L233.65,71.68L233.64,71.69L233.62,71.69L233.61,71.69L233.59,71.69"/></g></g><g id="Actor_.24"><g style="stroke:#000000;stroke-width:0.123"><path d="M236.48,34.19L236.50,34.20L236.51,34.20L236.53,34.21L236.54,34.22L236.55,34.23L236.56,34.25L236.57,34.26L236.58,34.28L236.58,34.30L236.59,34.32L236.59,34.35L236.60,34.37L236.60,34.39L236.60,34.42L236.60,34.44L236.59,34.47L236.59,34.50L236.58,34.52L236.57,34.55L236.56,34.57L236.55,34.59L236.54,34.61L236.53,34.63L236.52,34.65L236.50,34.67L236.49,34.68L236.48,34.70L236.46,34.71L236.44,34.72L236.43,34.72L236.41,34.73L236.40,34.73"/><path d="M236.48,34.19L236.48,34.19"/></g></g><g id="Actor_.25"><g style="stroke:#000000;stroke-width:0.123"><path d="M177.39,21.48L177.37,21.42L177.37,21.35L177.37,21.29L177.39,21.23L177.42,21.18L177.46,21.15L177.51,21.13L177.55,21.14L177.52,21.17L177.50,21.19L177.48,21.25L177.46,21.31L177.46,21.38L177.47,21.44L177.50,21.50L177.53,21.55L177.55,21.57L177.59,21.59L177.55,21.60L177.53,21.61L177.48,21.59L177.44,21.56L177.40,21.51L177.39,21.48"/><path d="M177.56,21.14L177.60,21.16L177.62,21.18L177.65,21.23L177.68,21.29L177.69,21.35L177.69,21.42L177.67,21.48L177.65,21.54L177.63,21.56L177.59,21.59"/><path d="M178.61,20.72L178.33,20.75L178.10,20.75L177.03,20.65L176.97,20.64L176.95,20.63"/><path d="M177.31,20.60L177.11,20.62L177.08,20.63L177.12,20.64L177.36,20.66"/></g><g style="stroke:#000000;stroke-width:0.123"><path d="M176.93,22.31L176.95,20.63L176.97,20.62L177.22,20.59L177.31,20.60L177.36,20.66L178.14,20.73L178.28,20.74L178.51,20.71L178.61,20.72L179.29,21.65L179.28,22.32L178.37,22.43L178.18,22.44L178.02,22.43L177.01,22.33L176.95,22.32L176.93,22.31"/></g></g><g id="Actor_.26"><g style="stroke:#000000;stroke-width:0.123"><path d="M177.63,21.19L177.62,21.19L177.60,21.19L177.59,21.19L177.58,21.20L177.57,21.21L177.56,21.22L177.55,21.23L177.54,21.24L177.53,21.25L177.52,21.27L177.52,21.28L177.51,21.30L177.51,21.32L177.51,21.34L177.51,21.36L177.51,21.38L177.51,21.39L177.51,21.41L177.52,21.43L177.52,21.44L177.53,21.46L177.54,21.47L177.55,21.48L177.56,21.50L177.57,21.51L177.58,21.51L177.59,21.52L177.61,21.52L177.62,21.53L177.63,21.53L177.65,21.53L177.66,21.52"/><path d="M177.64,21.53L177.64,21.53"/></g></g><g id="Actor_.27"><g style="stroke:#000000;stroke-width:0.123"><path d="M230.84,109.74L230.85,109.74L230.86,109.75L230.87,109.76L230.88,109.77L230.89,109.79L230.89,109.80L230.90,109.82L230.90,109.84L230.90,109.86L230.90,109.88L230.90,109.91L230.90,109.93L230.89,109.96L230.89,109.98L230.88,110.00L230.87,110.03L230.86,110.05L230.85,110.07L230.83,110.09L230.82,110.11L230.81,110.13L230.80,110.14L230.78,110.16L230.77,110.17L230.75,110.18L230.74,110.18L230.72,110.19L230.71,110.19L230.70,110.19L230.68,110.19"/></g></g><g id="Actor_12.0"><g style="stroke:#000000;stroke-width:0.123"><path d="M55.57,29.69L130.30,44.68L132.42,101.13"/><path d="M130.30,44.68L130.35,44.68"/></g><g style="stroke:#000000;stroke-width:0.123"><path d="M60.27,70.36L55.57,29.69L130.35,44.68L132.42,101.13"/></g></g><g id="Actor_.28"><g style="stroke:#000000;stroke-width:0.123"><path d="M173.75,122.20L173.66,122.16L173.79,122.08"/><path d="M197.76,132.33L197.67,132.29L197.86,132.17"/><path d="M224.74,144.72L224.58,144.66L224.41,147.01L224.57,147.05"/><path d="M224.40,147.22L224.33,147.09L224.55,143.92L224.82,143.55"/><path d="M224.58,144.66L224.58,144.58"/></g><g style="stroke:#000000;stroke-width:0.123"><path d="M224.57,147.17L224.40,147.22L154.70,117.13L154.62,116.98L154.60,114.27L154.80,114.08L155.94,113.70L173.80,121.17"/><path d="M197.90,131.25L176.25,122.20L174.98,122.69L173.79,122.19"/><path d="M224.90,142.54L200.50,132.34L199.20,132.90L197.86,132.29"/><path d="M224.75,144.65L224.58,144.58L224.64,143.87L224.82,143.67"/></g></g><g id="Actor_.29"><g style="stroke:#000000;stroke-width:0.123"><path d="M235.95,36.51L236.25,32.60L236.12,32.58"/><path d="M236.44,34.79L236.54,34.83L236.65,34.76L236.74,34.62L236.78,34.44L236.76,34.27L236.69,34.15L236.59,34.12L236.57,34.14"/><path d="M236.25,32.60L237.18,32.44"/></g><g style="stroke:#000000;stroke-width:0.123"><path d="M235.82,36.49L236.12,32.58L237.05,32.42L237.18,32.44L236.88,36.34L235.95,36.51L235.82,36.49"/><path d="M236.64,34.29L236.65,34.42L236.61,34.60L236.52,34.75L236.44,34.79L236.37,34.68L236.36,34.51L236.40,34.33L236.48,34.19L236.57,34.14L236.63,34.25L236.64,34.29"/></g></g><g id="Actor_.30"><g style="stroke:#000000;stroke-width:0.123"><path d="M233.19,73.40L233.46,69.79L233.34,69.77"/><path d="M233.79,71.16L233.80,71.15L233.90,71.16L233.96,71.26L233.98,71.41L233.94,71.58L233.86,71.72L233.75,71.80L233.65,71.78L233.64,71.76"/><path d="M233.46,69.79L234.36,69.54"/></g><g style="stroke:#000000;stroke-width:0.123"><path d="M233.07,73.37L233.34,69.77L234.24,69.51L234.36,69.54L234.09,73.14L233.19,73.40L233.07,73.37"/><path d="M233.73,71.70L233.64,71.76L233.59,71.68L233.57,71.53L233.61,71.36L233.69,71.22L233.79,71.16L233.84,71.23L233.86,71.39L233.82,71.56L233.73,71.70"/></g></g><g><g><path style="stroke:#000000;stroke-width:0.210;stroke-dasharray:2.1 2.1" d="M188.02,96.80L94.39,126.49"/></g></g><g><g><path style="stroke:#000000;stroke-width:0.210;stroke-dasharray:2.1 2.1" d="M189.43,43.11L88.96,60.70"/></g></g><g id="PMI11.0"><g><path style="stroke:#000000;stroke-width:0.280" d="M144.88,170.52L137.69,170.39"/></g><g><path style="fill:#000000" d="M137.71,169.38L137.67,171.38L135.69,170.34z"/></g><g><path style="fill:#ffffff" d="M144.89,173.50L161.89,173.50L161.89,167.85L144.89,167.85z"/><path style="stroke:#000000;stroke-width:0.280;stroke-opacity:0.98" d="M144.89,173.50L161.89,173.50L161.89,167.85L144.89,167.85z"/><text xml:space="preserve" fill="#000000" stroke-width="0" x="145.59" y="171.91" font-size="3.38" opacity="1.00" font-family="Microsoft Sans Serif">100013N0</text></g></g><g id="PMI10.0"><g><path style="stroke:#000000;stroke-width:0.280" d="M242.49,87.08L234.82,87.06"/></g><g><path style="fill:#000000" d="M234.81,86.07L234.81,88.07L232.81,87.06z"/></g><g><path style="fill:#ffffff" d="M242.47,89.93L258.90,89.93L258.90,84.28L242.47,84.28z"/><path style="stroke:#000000;stroke-width:0.280;stroke-opacity:0.98" d="M242.47,89.93L258.90,89.93L258.90,84.28L242.47,84.28z"/><text xml:space="preserve" fill="#000000" stroke-width="0" x="243.18" y="88.34" font-size="3.10" opacity="1.00" font-family="Microsoft Sans Serif">10001360</text></g></g><g id="PMI12.0"><g><path style="stroke:#000000;stroke-width:0.280" d="M130.10,36.76L130.29,42.67"/></g><g><path style="fill:#000000" d="M129.29,42.71L131.29,42.65L130.35,44.68z"/></g><g><path style="fill:#ffffff" d="M121.61,36.77L138.42,36.77L138.42,31.12L121.61,31.12z"/><path style="stroke:#000000;stroke-width:0.280;stroke-opacity:0.98" d="M121.61,36.77L138.42,36.77L138.42,31.12L121.61,31.12z"/><text xml:space="preserve" fill="#000000" stroke-width="0" x="122.32" y="35.18" font-size="3.38" opacity="1.00" font-family="Microsoft Sans Serif">100013P0</text></g></g><g/><g id="paperID" visibility="hidden" opacity="0.00" transform="scale(0.000100)"><path style="stroke:#000000;stroke-width:0.500;fill:#e6e6e6;fill-rule:evenodd" d="M-2000.00,-2000.00L2297.00,-2000.00L2297.00,2210.00L-2000.00,2210.00zM0.00,0.00L297.00,0.00L297.00,210.00L0.00,210.00z"/><path style="fill:#000000;fill-opacity:0.118" d="M3.00,210.00L297.00,210.00L297.00,3.00L300.00,3.00L300.00,213.00L3.00,213.00z"/></g><g id="hotspot.0" onmouseover="ShowHotSpot(evt,'0')" onmouseout="HideHotSpot(evt,'0')" onmousemove="ShowToolTip(evt,'0',&quot;3dp341869 (I_KE GIA CỐ MẶT DỰNG BÊN TÀI.1)&quot;)" opacity="0"><path style="fill:#00ff00;fill-rule:evenodd" d="M160.48,19.35L160.89,20.27L176.85,21.87L177.02,20.43L178.72,20.69L179.40,22.12L200.12,24.27L200.28,22.82L201.98,22.82L202.78,23.89L202.68,24.42L224.18,26.65L224.36,24.93L226.56,25.21L227.11,26.28L227.01,26.80L228.94,27.07L237.42,27.85L237.40,30.06L233.07,86.66L233.61,86.61L234.77,86.07L234.94,86.64L242.18,86.67L242.42,84.00L258.86,83.89L259.12,84.16L259.11,89.59L258.83,90.09L242.42,90.02L242.18,87.35L234.96,87.39L234.72,87.70L234.24,87.67L233.06,87.10L228.40,148.55L228.44,150.12L228.13,150.91L227.27,151.39L226.56,151.39L224.35,150.39L224.44,147.14L156.45,117.74L156.13,117.75L155.87,119.37L154.62,119.65L153.30,119.11L153.04,114.08L151.62,19.65L154.36,19.66L158.61,20.02L158.76,18.85L159.93,18.85zM174.22,23.87L174.72,24.16L174.49,57.29L155.65,53.28L155.33,53.07L155.05,33.93L162.74,22.84zM201.71,26.79L201.70,33.23L200.64,60.74L200.39,62.60L199.05,62.50L177.02,57.83L177.37,30.06L177.54,24.41L179.22,24.42zM158.64,27.05L158.59,27.45L158.25,27.43L158.20,26.81zM157.01,27.15L156.65,27.15L156.65,26.80L157.01,26.80zM221.55,28.90L222.08,29.17L231.87,43.71L230.53,63.91L230.01,68.95L228.67,68.86L203.47,63.38L203.73,51.93L204.78,27.32L206.73,27.33zM228.73,35.77L227.76,35.86L227.76,35.53L228.45,35.49zM230.43,35.77L231.07,35.78L231.08,36.42L230.51,36.34zM174.20,59.59L174.20,84.54L173.93,90.12L173.13,90.03L155.60,84.28L155.33,55.61L156.20,55.63zM200.37,65.42L199.09,98.28L176.76,91.15L176.84,71.85L177.02,60.37L177.89,60.39zM229.50,71.73L229.77,71.99L229.73,75.02L227.39,107.27L201.88,99.09L203.19,66.20L204.35,66.21zM173.93,92.66L173.93,111.52L173.66,120.80L172.87,120.71L155.95,113.54L155.60,86.81L156.20,86.81zM199.05,100.86L198.00,129.50L197.73,130.85L196.93,130.75L176.23,122.09L176.50,93.69L177.09,93.68zM227.09,110.11L224.89,142.14L224.18,142.14L200.56,132.14L201.09,115.66L201.69,102.79L201.89,101.90z"/></g><g id="hotspot.1" onmouseover="ShowHotSpot(evt,'1')" onmouseout="HideHotSpot(evt,'1')" onmousemove="ShowToolTip(evt,'1',&quot;3dp383704 (I_3DPart383704.55)&quot;)" opacity="0"><path style="fill:#00ff00;fill-rule:evenodd" d="M131.35,98.74L132.43,99.51L135.86,194.57L68.94,144.76L60.47,72.03L60.39,70.41L60.71,70.40zM162.06,167.73L162.04,173.68L144.83,173.59L144.59,170.66L137.89,170.70L137.66,171.01L137.18,170.97L135.77,170.14L137.71,169.38L137.88,169.95L144.59,169.98L144.83,167.57L161.80,167.47z"/></g><g id="hotspot.2" onmouseover="ShowHotSpot(evt,'2')" onmouseout="HideHotSpot(evt,'2')" onmousemove="ShowToolTip(evt,'2',&quot;3dp383705 (I_3DPart383705.56)&quot;)" opacity="0"><path style="fill:#00ff00;fill-rule:evenodd" d="M127.65,43.99L130.05,44.35L129.77,43.46L129.42,42.64L131.11,42.67L131.14,43.00L130.55,44.06L130.56,49.02L132.44,99.35L130.03,98.21L60.40,70.25L59.68,64.89L55.61,29.71L56.50,29.71zM138.53,31.00L138.50,36.95L130.46,37.10L130.54,42.27L130.24,42.27L130.02,41.35L129.78,37.10L121.55,36.86L121.55,30.84L138.26,30.73z"/></g></g></svg>
