<?xml version="1.0" encoding="UTF-8" standalone="no"?>
<svg xmlns="http://www.w3.org/2000/svg" xmlns:xlink="http://www.w3.org/1999/xlink" width="297.000mm" height="210.000mm" viewBox="0.000000 0.000000 297.000000 210.000000" stroke-linejoin="round" stroke-linecap="round" fill="none" fill-rule="evenodd"><desc>Composer Export</desc><script type="text/ecmascript"><![CDATA[
if(typeof(top) != "undefined")
{
	top.ShowPaper = ShowPaper;
}
function ShowHotSpot(evt,hotspotid)
{
	var svgDocument = evt.target.ownerDocument;
	var strId = "hotspot."+hotspotid;
	var hotspot = svgDocument.getElementById(strId);
	if(hotspot)
		hotspot.setAttribute("opacity",".5");
}
function HideHotSpot(evt,hotspotid)
{
	var svgDocument = evt.target.ownerDocument;
	var strId = "hotspot."+hotspotid;
	var hotspot = svgDocument.getElementById(strId);
	if(hotspot)
		hotspot.setAttribute("opacity","0");

	var toolTip = svgDocument.getElementById('ToolTip');
	if(toolTip)
		toolTip.setAttribute("visibility","hidden");
}
function ShowToolTip(evt,hotspotid,strTooltip)
{
	if(strTooltip=="")
	return;

	// change text
	var svgDocument = evt.target.ownerDocument;
	var tiptext = svgDocument.getElementById('ToolTipText');
	if( !tiptext )
	return;
	tiptext.firstChild.nodeValue = " " + strTooltip + "  " ;

	// show tooltip before, else some refresh issue

	var toolTip = svgDocument.getElementById('ToolTip');
	if(!toolTip)
	return;

	toolTip.setAttribute("visibility","visible");
	toolTip.setAttribute("opacity",".95");

	// move tooltip
	// get viewbox

	var root = svgDocument.documentElement;
	var vbox = (root.getAttribute("viewBox")).split(' ');
	var x0 = parseFloat(vbox[0]);
	var y0 = parseFloat(vbox[1]);
	var vboxW = parseFloat(vbox[2]);
	var vboxH = parseFloat(vbox[3]);

	// get default width of svg

	var strW = root.getAttribute("width");
	var svgW = parseFloat(strW);
	if(strW.indexOf('mm') != -1)
	svgW *= 3.779;

	var strH = root.getAttribute("height");
	var svgH = parseFloat(strH);
	if(strH.indexOf('mm') != -1)
	svgH *= 3.779;  	// 96 dpi  -> 96/25.4 = 3.779

	// update the viewbox / width / height if svg is embedded in html with zoom fit all
	var realx0 = x0;
	var realy0 = y0;
	var realvboxW = vboxW;
	var realvboxH = vboxH;
	var realsvgW = svgW;
	var realsvgH = svgH;

	if ((typeof(top) == "undefined") || (typeof(top.svgctl1) != "undefined")) // embedded in html
	{
		// get window size in pxl

		svgW = window.innerWidth;
		svgH = window.innerHeight;

		// calculate real viewbox

		realsvgW = svgW;
		realsvgH = svgH;
		if((svgW / svgH) > (vboxW / vboxH))
		{
			realvboxW = (vboxH * svgW) / svgH;
			realvboxH = vboxH;
			realx0 = x0 - (realvboxW - vboxW)/2 ;
		}
		else
		{
			realvboxH = (vboxW * svgH) / svgW;
			realvboxW = vboxW;
			realy0 = y0 - (realvboxH - vboxH)/2 ;
		}
	}

	// get user zoom/pan

	var newScale = root.currentScale;
	var translation = root.currentTranslate;

	// transform pxl to user unit

	var xPos = (((evt.clientX+10- translation.x)/newScale) * realvboxW)/realsvgW  + realx0 ;
	var yPos = (((evt.clientY+5- translation.y)/newScale) * realvboxH)/ realsvgH  + realy0 ;
	var scaleForWidth = ( (1 / newScale) * realvboxH) / realsvgH;

	// move tooltip

	toolTip.setAttribute("transform", "translate(" + xPos + "," + yPos + ")" );

	// resize tooltip

	var fontsize = 12;
	tiptext.setAttribute("font-size",fontsize*scaleForWidth);
	tiptext.setAttribute("y", fontsize*scaleForWidth);
	var tipBG = svgDocument.getElementById('ToolTipBG');
	var outline = tiptext.getBBox();
	if(tipBG)
	{
		tipBG.setAttribute("stroke-width", 1*scaleForWidth);
		tipBG.setAttribute("width", Number(outline.width) );
		tipBG.setAttribute("height", Number(outline.height) + fontsize*.5*scaleForWidth );
	}
	var ToolTipShadow = svgDocument.getElementById('ToolTipShadow');
	if(ToolTipShadow)
	{
		ToolTipShadow.setAttribute("width", Number(outline.width) );
		ToolTipShadow.setAttribute("height", Number(outline.height) + fontsize*.5*scaleForWidth );
		ToolTipShadow.setAttribute("x", 3*scaleForWidth);
		ToolTipShadow.setAttribute("y", 3*scaleForWidth);
	}
}
function ShowPaper()
{
  var svgDocument = getDocument();
  var paper = svgDocument.getElementById("paperID");
  if(paper)
  {
    paper.setAttribute("transform","scale(1)");
    paper.setAttribute("opacity","1");
    paper.setAttribute("visibility","visible");
  }
  var svg = svgDocument.getRootElement();
  if(svg)
  {
    svg.setAttribute("width","307.000mm");
    svg.setAttribute("height","220.000mm");
    svg.setAttribute("viewBox","-5.000000 -5.000000 307.000000 220.000000");
  }
}
]]></script><defs/><g><g id="Actor_9.0"><g style="stroke:#000000;stroke-width:0.123"><path d="M85.33,144.69L89.57,146.01L89.60,146.27"/><path d="M91.72,136.20L95.95,137.51L95.71,137.95L90.05,141.14L89.86,141.30L85.60,139.99"/><path d="M89.86,141.30L85.60,139.98"/><path d="M90.47,143.21L90.49,143.03L90.44,142.91L90.35,142.79L90.19,142.67L89.78,142.53L89.24,142.50L88.75,142.63L88.42,142.84L88.25,143.10L88.23,143.24L88.27,143.41"/><path d="M90.23,139.81L90.32,139.72L90.34,139.63L90.21,139.44L89.85,139.27L89.36,139.18L88.82,139.19L88.47,139.29L88.36,139.37L88.30,139.46L88.31,139.57L88.38,139.66"/><path d="M88.72,141.30L89.76,141.62L89.78,141.46L89.85,141.31"/><path d="M89.57,146.01L92.07,143.40L94.71,141.05L92.18,140.26"/><path d="M89.76,141.62L96.03,138.07L96.29,138.06L96.63,137.96L96.98,137.79L97.26,137.59L97.89,136.98L98.06,136.59L98.19,136.01L98.22,134.93L98.45,133.72L98.73,132.92L99.18,132.17L99.54,131.73L99.84,131.46L100.16,131.30L100.38,131.29L100.57,131.38L100.74,131.60L100.88,132.05L100.93,132.52"/><path d="M91.47,136.65L94.79,137.67L93.73,137.34"/><path d="M94.71,141.05L95.95,139.99L96.23,139.68L98.13,137.97L99.49,136.60L99.82,136.20L100.13,135.73L100.40,135.18L100.64,134.52"/><path d="M94.79,137.67L95.71,137.95"/><path d="M95.95,137.51L96.89,136.99L97.37,136.81L97.54,136.64L97.72,136.23L97.92,134.88L98.23,133.47L98.33,133.17L98.61,132.56L99.12,131.73L99.69,131.05L99.93,130.86L100.22,130.71L100.49,130.68L100.65,130.71"/></g><g style="stroke:#000000;stroke-width:0.123"><path d="M101.02,134.40L100.73,135.25L100.35,136.05L100.00,136.61L99.53,137.18L96.71,139.70L96.21,140.04L91.94,143.85L89.60,146.27L85.36,144.95L85.33,144.69L87.83,142.09L88.72,141.30L85.51,140.30L85.52,140.14L85.58,140.01L85.80,139.82L91.47,136.65L91.72,136.20L92.51,135.76L93.13,135.50L93.23,135.43L93.38,135.22L93.49,134.92L93.72,133.40L94.04,132.00L94.36,131.31L94.72,130.67L95.11,130.13L95.58,129.65L95.97,129.43L96.18,129.38L96.33,129.39L100.73,130.75L100.94,130.93L101.12,131.25L101.27,131.80L101.33,132.37"/><path d="M88.43,143.62L88.27,143.41L88.38,143.19L88.73,142.93L89.06,142.83L89.49,142.80L89.89,142.85L90.26,143.00L90.47,143.21L90.40,143.37L90.22,143.56L89.96,143.71L89.65,143.81L89.31,143.85L88.97,143.83L88.67,143.75L88.43,143.62"/><path d="M88.47,139.62L88.38,139.66L88.62,139.81L89.19,139.95L89.77,139.96L90.01,139.91L90.22,139.82L89.93,139.64L89.43,139.52L88.89,139.52L88.47,139.62"/></g></g><g id="Actor_6.0"><g style="stroke:#000000;stroke-width:0.123"><path d="M201.03,57.28L201.05,57.48L201.11,57.66L201.21,57.85L201.36,58.04L201.50,58.18L201.69,58.32L201.91,58.45L202.16,58.55L202.42,58.63L202.69,58.69L202.98,58.73L203.26,58.74L203.55,58.72L203.84,58.68L204.11,58.61L204.37,58.52L204.61,58.41L204.82,58.28L205.01,58.13L205.10,58.04L205.17,57.97L205.30,57.79L205.39,57.61L205.44,57.42L205.45,57.23"/><path d="M201.38,56.18L201.53,56.28L201.67,56.40L202.01,56.72L202.18,56.84L202.37,56.93L202.58,57.00L202.81,57.06L203.04,57.09L203.28,57.09L203.52,57.07L203.76,57.03L203.91,56.98L203.98,56.96L204.18,56.88L204.36,56.77L204.52,56.65L204.65,56.51L204.73,56.39L204.79,56.26L204.83,56.13L204.84,55.99L204.82,55.85L204.77,55.70L204.70,55.57L204.59,55.44L204.45,55.31L204.28,55.20L204.09,55.10L203.88,55.03L203.65,54.98L203.42,54.95L203.18,54.94L202.94,54.96L202.71,55.00L202.49,55.07L202.28,55.15L202.10,55.26L201.94,55.38L201.81,55.52L201.73,55.64L201.67,55.77L201.63,55.90L201.62,56.04L201.64,56.18L201.69,56.33L201.76,56.46L202.06,56.82L202.36,57.22L202.37,58.26L202.07,57.88L201.87,57.66L201.67,57.46L201.39,57.21L201.38,56.47"/><path d="M202.37,58.26L202.91,58.19L203.28,58.17L203.65,58.17L204.22,58.21L204.21,57.17L204.47,56.75L204.65,56.51L204.83,56.31L204.94,56.20L205.09,56.07"/><path d="M204.21,57.17L203.93,57.13L203.66,57.10L203.28,57.09L202.91,57.12L202.64,57.16L202.36,57.22"/><path d="M202.76,56.60L202.60,56.53L202.47,56.44L202.36,56.34L202.28,56.21L202.25,56.09L202.25,55.96L202.28,55.83L202.36,55.71L202.47,55.60L202.60,55.51L202.76,55.43L202.94,55.38L203.13,55.36L203.33,55.36L203.52,55.38L203.70,55.43L203.86,55.50L203.99,55.59L204.10,55.70L204.18,55.82L204.21,55.94L204.21,56.07L204.18,56.20L204.10,56.32L204.00,56.43L203.86,56.52L203.70,56.60L203.52,56.65L203.33,56.67L203.14,56.68L202.99,56.66L202.76,56.60"/><path d="M203.64,56.61L203.81,56.53L203.92,56.44L204.00,56.34L204.05,56.22L204.07,56.11L204.04,55.99L203.98,55.88L203.89,55.78L203.77,55.70L203.63,55.64L203.46,55.59L203.29,55.57L203.12,55.58L202.95,55.61L202.79,55.66L202.65,55.73L202.54,55.82L202.46,55.92L202.41,56.04L202.40,56.15L202.42,56.27L202.48,56.38L202.57,56.48L202.69,56.56L202.82,56.62"/><path d="M204.22,58.21L204.46,57.85L204.64,57.61L204.82,57.40L205.10,57.10L205.09,56.43"/></g><g style="stroke:#000000;stroke-width:0.123"><path d="M201.11,57.89L201.06,57.70L201.03,57.51L201.03,57.28L201.05,57.09L201.10,56.90L201.19,56.71L201.32,56.54L201.38,56.47L201.38,56.18L201.52,55.93L201.73,55.63L201.99,55.31L202.12,55.19L202.25,55.07L202.54,55.01L202.80,54.97L202.99,54.95L203.36,54.94L203.55,54.95L203.82,54.98L204.11,55.02L204.26,55.13L204.40,55.24L204.59,55.44L204.79,55.67L205.09,56.07L205.09,56.43L205.15,56.49L205.28,56.66L205.37,56.84L205.43,57.03L205.45,57.23L205.46,57.45L205.44,57.65L205.39,57.84L205.30,58.02L205.17,58.20L205.01,58.36L204.83,58.51L204.61,58.64L204.37,58.75L204.11,58.84L203.84,58.91L203.56,58.95L203.27,58.97L202.98,58.96L202.69,58.92L202.42,58.86L202.16,58.78L201.92,58.68L201.70,58.55L201.50,58.41L201.34,58.25L201.21,58.08L201.11,57.89"/></g></g><g id="Actor_6.1"><g style="stroke:#000000;stroke-width:0.123"><path d="M193.60,84.28L193.60,84.28"/><path d="M193.50,83.76L194.29,84.30L194.37,84.05L194.48,83.80L194.61,83.56L194.76,83.32L194.93,83.09L195.11,82.89L195.23,82.77L194.43,82.22"/><path d="M196.74,82.28L196.53,82.30L196.33,82.34L196.13,82.42L195.92,82.53L195.71,82.67L195.51,82.83L195.31,83.02L195.13,83.23L194.96,83.45L194.81,83.69L194.68,83.94L194.57,84.19L194.49,84.42L194.43,84.68L194.40,84.92L194.40,85.14L194.42,85.35L194.47,85.54L194.55,85.71L194.65,85.85L194.77,85.96"/><path d="M194.29,84.30L194.23,84.55L194.20,84.78L194.20,85.01L194.21,85.15"/><path d="M195.23,82.77L195.31,82.70L195.51,82.53L195.72,82.40L195.93,82.29L196.13,82.21L196.22,82.19"/></g><g style="stroke:#000000;stroke-width:0.123"><path d="M196.69,82.16L196.53,82.15L196.33,82.16L196.22,82.19L195.73,81.85L195.46,81.88L195.12,81.94L194.86,82.02L194.74,82.06L194.58,82.14L194.43,82.22L194.24,82.43L194.07,82.63L193.97,82.78L193.79,83.08L193.70,83.25L193.60,83.49L193.50,83.76L193.51,83.91L193.54,84.06L193.60,84.28L193.69,84.53L193.88,84.93L194.21,85.15L194.22,85.22L194.27,85.41L194.35,85.57L194.45,85.71L194.57,85.82L194.77,85.96L194.91,86.04L195.08,86.09L195.26,86.11L195.45,86.09L195.65,86.04L195.85,85.96L196.01,85.88"/></g></g><g id="Actor_2.0"><g style="stroke:#000000;stroke-width:0.123"><path d="M129.94,119.02L129.67,118.78L129.65,118.77"/><path d="M129.67,118.78L129.64,118.76"/><path d="M130.59,117.73L130.87,117.98"/></g></g><g id="Actor_5.0"><g style="stroke:#000000;stroke-width:0.123"><path d="M86.47,154.47L86.48,154.54L86.50,154.60L86.54,154.67L86.60,154.74L86.67,154.80L86.76,154.87L86.86,154.93L86.98,154.98L87.11,155.03L87.25,155.08L87.41,155.13L87.71,155.19L88.05,155.23L88.38,155.24L88.70,155.22L89.00,155.18L89.13,155.15L89.25,155.11L89.36,155.06L89.45,155.01L89.53,154.96L89.60,154.90L89.64,154.84L89.67,154.78L89.68,154.71"/><path d="M88.79,156.20L88.70,156.23L88.38,156.27L88.19,156.29L88.06,156.29L87.93,156.28L87.80,156.27L87.67,156.24L87.48,156.20L87.19,156.10"/><path d="M87.28,156.13L87.35,155.32L87.09,155.24L86.96,155.19L86.85,155.13L86.73,155.06"/><path d="M88.59,156.24L88.65,155.43L88.37,155.45L88.03,155.43L87.70,155.39L87.54,155.37L87.35,155.32"/><path d="M87.10,156.06L87.10,156.06"/><path d="M87.41,154.58L87.40,154.54L87.41,154.49L87.44,154.45L87.49,154.42L87.55,154.39L87.63,154.36L87.71,154.34L87.91,154.32L88.02,154.32L88.24,154.34L88.44,154.39L88.53,154.42L88.60,154.46L88.66,154.50L88.71,154.54L88.74,154.58L88.76,154.62L88.75,154.67L88.73,154.71L88.69,154.75L88.61,154.79L88.62,154.78L88.63,154.74L88.63,154.70L88.61,154.66L88.57,154.62L88.52,154.59L88.45,154.55L88.37,154.53L88.19,154.48L88.09,154.47L87.90,154.47L87.72,154.49L87.65,154.52L87.59,154.54L87.55,154.58L87.52,154.61L87.51,154.65L87.51,154.68L87.52,154.70L87.47,154.67L87.43,154.63L87.41,154.58"/><path d="M88.61,154.79L88.50,154.83L88.41,154.85L88.26,154.86L88.09,154.86L87.96,154.85L87.77,154.81L87.68,154.78L87.60,154.75L87.52,154.70"/><path d="M88.64,156.24L88.64,156.24"/><path d="M88.75,156.22L88.75,156.22"/><path d="M89.33,155.27L89.19,155.33L88.98,155.38L88.84,155.41L88.65,155.43"/></g><g style="stroke:#000000;stroke-width:0.123"><path d="M87.10,156.06L87.21,156.12L87.43,156.19L87.67,156.25L87.93,156.28L88.17,156.29L88.41,156.28L88.64,156.24L88.75,156.22"/><path d="M88.75,156.22L88.86,156.18L89.00,156.10L89.17,155.96L89.29,155.85L89.33,155.27L89.44,155.22L89.52,155.17L89.58,155.11L89.62,155.05L89.65,154.99L89.67,154.92L89.68,154.71L89.68,154.65L89.65,154.58L89.61,154.51L89.56,154.44L89.48,154.38L89.39,154.32L89.29,154.26L89.17,154.20L89.05,154.15L88.91,154.10L88.60,154.02L88.28,153.97L88.11,153.96L87.94,153.95L87.61,153.95L87.41,153.97L87.16,154.01L87.03,154.04L86.91,154.08L86.80,154.12L86.70,154.17L86.63,154.22L86.56,154.28L86.52,154.34L86.49,154.40L86.47,154.47L86.46,154.68L86.46,154.74L86.49,154.81L86.53,154.88L86.58,154.95L86.66,155.01L86.73,155.06L86.68,155.63L86.77,155.76L86.91,155.92L86.97,155.97L87.10,156.06"/></g></g><g id="Actor_4.0"><g style="stroke:#000000;stroke-width:0.123"><path d="M190.55,61.55L190.57,61.68L190.61,61.81L190.66,61.93L190.74,62.05L190.93,62.28L191.19,62.47L191.49,62.63L191.66,62.69L192.02,62.78L192.41,62.83L192.80,62.82L193.18,62.77L193.54,62.67L193.86,62.52L194.14,62.34L194.37,62.12L194.45,62.00L194.53,61.88L194.58,61.76L194.62,61.63L194.63,61.50L194.63,61.37"/><path d="M193.57,62.87L193.18,62.98L192.80,63.04L192.60,63.05L192.37,63.04L192.03,63.00L191.65,62.90"/><path d="M191.36,60.38L191.41,61.83L191.39,60.74L191.75,60.80L192.00,60.87L191.88,60.82L191.67,60.70L191.51,60.55L191.45,60.47L191.38,60.28L191.35,59.81"/><path d="M191.41,61.83L191.96,61.99L192.38,62.15L192.63,62.26L193.24,61.96L193.81,61.76L193.79,60.67L193.44,60.75L193.20,60.84L193.42,60.72L193.59,60.58L193.71,60.41L193.74,60.32L193.77,60.14L193.78,60.21"/><path d="M191.37,60.17L191.37,60.08L191.43,59.90L191.55,59.73L191.72,59.59L191.94,59.48L192.19,59.39L192.47,59.35L192.61,59.35L192.75,59.36L193.01,59.40L193.26,59.49L193.47,59.61L193.56,59.68L193.69,59.85L193.76,60.03L193.77,60.14"/><path d="M191.39,60.74L191.37,60.19"/><path d="M193.07,66.54L192.82,66.59L192.69,66.60L192.43,66.58L192.31,66.56"/><path d="M192.63,62.26L192.61,61.17L192.24,60.97L192.00,60.87L192.26,60.94L192.53,60.96L192.73,60.95L192.95,60.92L193.20,60.84L192.96,60.95L192.61,61.17"/><path d="M193.78,60.33L193.79,60.67"/><path d="M194.64,61.58L194.63,61.57"/></g><g style="stroke:#000000;stroke-width:0.123"><path d="M190.55,61.42L190.57,61.29L190.60,61.16L190.66,61.03L190.82,60.79L191.04,60.58L191.17,60.48L191.36,60.38L191.35,59.81L191.70,59.59L191.94,59.48L192.18,59.39L192.53,59.31L192.90,59.37L193.14,59.44L193.39,59.54L193.75,59.74L193.78,60.33L193.99,60.45L194.25,60.64L194.45,60.86L194.52,60.98L194.57,61.11L194.61,61.24L194.63,61.37L194.64,61.58L194.64,61.71L194.62,61.84L194.58,61.97L194.53,62.10L194.37,62.34L194.15,62.55L193.87,62.74L193.57,62.87L193.62,65.97L193.61,66.06L193.58,66.15L193.53,66.23L193.38,66.38L193.29,66.44L193.07,66.54L192.86,66.60L192.63,66.62L192.51,66.61L192.31,66.56L192.08,66.47L191.90,66.35L191.77,66.20L191.73,66.11L191.71,66.03L191.70,65.94L191.65,62.90L191.34,62.77L191.06,62.59L190.83,62.38L190.74,62.27L190.63,62.06L190.57,61.89L190.55,61.76L190.55,61.42"/></g></g><g id="Actor_.0"><g style="stroke:#000000;stroke-width:0.123"><path d="M41.39,120.30L41.33,120.22"/><path d="M42.85,119.38L42.84,119.35"/><path d="M63.69,139.75L63.75,139.74"/><path d="M144.15,102.48L144.17,102.48"/><path d="M143.65,102.74L143.67,102.72"/><path d="M143.53,102.86L143.51,102.88"/><path d="M143.40,103.03L143.38,103.07"/><path d="M188.02,83.93L188.06,83.88"/><path d="M189.22,82.97L189.18,82.99"/><path d="M190.14,82.61L190.20,82.60"/><path d="M191.66,82.62L191.71,82.64"/><path d="M190.91,82.52L190.95,82.52"/><path d="M192.36,82.91L192.38,82.93"/></g><g style="stroke:#000000;stroke-width:0.123"><path d="M91.62,136.37L64.96,139.69L60.34,139.63L55.92,138.70L53.05,137.32L50.64,135.10L41.39,120.30L41.27,119.69L41.48,119.30L42.10,118.99L42.84,119.35L51.70,133.53L53.21,135.24L54.97,136.38L57.27,137.26L59.99,137.80L63.17,137.97"/><path d="M64.22,137.95L63.19,137.97L63.65,137.97"/><path d="M63.19,139.75L63.75,139.74"/><path d="M64.29,137.95L93.57,134.29"/><path d="M98.20,135.21L102.10,134.02L133.60,122.30"/><path d="M130.16,121.62L98.62,133.24"/><path d="M132.39,120.79L133.32,120.44"/><path d="M140.87,115.18L141.65,113.24L141.97,110.89L141.19,104.47L141.19,104.64"/><path d="M141.19,104.35L141.61,102.44L142.84,101.02L144.60,100.56L147.01,101.09L149.48,102.53L168.82,116.62L170.55,117.19"/><path d="M143.05,104.74L143.05,104.49L143.75,109.07L143.81,111.48L143.31,114.17L142.38,116.28"/><path d="M143.06,104.39L143.28,103.28L143.95,102.55L145.04,102.46L146.80,103.07L167.96,118.34L169.98,119.06L172.43,118.73L174.55,117.29L176.03,115.03L187.39,84.80L188.62,83.37L190.20,82.60L191.71,82.64L193.53,83.69"/><path d="M145.77,102.64L145.53,102.56"/><path d="M170.62,117.19L171.67,116.98L172.66,116.42L173.65,115.40L174.28,114.28L185.73,83.84L186.93,82.31L188.26,81.32L189.73,80.75L191.26,80.63"/><path d="M194.62,82.12L192.80,81.00L191.04,80.62"/></g></g><g id="Actor_1.0"><g style="stroke:#000000;stroke-width:0.123"><path d="M190.18,90.99L190.08,89.50"/><path d="M191.25,87.56L190.71,88.20L190.33,89.14L190.17,90.30L194.72,93.71L194.96,93.55L194.84,93.55L194.72,93.71L194.73,94.40"/><path d="M194.84,93.63L194.95,93.55"/><path d="M195.49,93.92L194.96,93.55"/><path d="M195.28,85.38L203.37,90.94L204.15,91.57L204.88,92.33L206.10,94.17L206.54,95.15L206.84,96.11L206.97,97.01L206.94,98.11L206.69,99.01"/><path d="M196.72,82.18L205.68,88.26L207.08,89.31L208.96,90.94L210.52,92.57"/><path d="M198.00,89.53L197.78,88.92L197.81,88.50L198.08,88.32L198.39,88.40L198.56,89.08L198.90,89.60L199.31,89.95L199.32,90.24L199.09,90.42L198.71,90.33L198.30,89.98L198.00,89.53"/><path d="M199.24,90.31L198.89,90.22L198.47,89.86L198.13,89.35L197.95,88.81L197.99,88.39L198.08,88.32"/><path d="M200.51,98.45L200.89,97.78L202.36,96.76L200.32,94.24L199.05,92.40L197.21,89.17L197.03,86.58"/><path d="M199.35,89.96L199.18,89.28L198.84,88.76L198.39,88.40"/><path d="M199.56,111.90L199.87,112.36L202.29,114.20L202.76,114.42L203.27,114.46L203.66,114.37L203.99,114.25L212.65,108.72L211.95,109.17L207.91,106.13"/><path d="M209.56,98.84L209.40,97.69L207.93,96.77L207.55,95.50L206.98,94.20L206.25,92.92L205.40,91.73L204.45,90.68L200.86,88.25L200.48,87.85L200.37,87.41L200.51,87.12L201.81,86.19L201.88,85.68"/><path d="M207.93,96.77L208.11,96.66L207.73,95.41L207.16,94.08L206.43,92.81L205.57,91.62L204.63,90.57L201.03,88.14L200.61,87.66L200.57,87.46L200.71,87.19L202.15,86.28L202.08,85.81"/><path d="M208.11,96.66L208.53,96.93L208.60,95.94L208.43,94.90L208.05,93.78L207.48,92.66L206.75,91.59L205.93,90.67L205.07,89.95L200.88,87.08"/><path d="M201.11,87.23L200.91,87.06"/><path d="M204.68,112.38L204.80,111.86L204.53,111.50L204.07,111.15L203.58,110.94L202.99,110.92L202.47,111.11L202.15,111.46L202.12,111.86L202.25,112.04"/><path d="M204.04,101.62L204.91,101.87L205.88,101.89L206.71,101.61L207.37,101.06L207.82,100.25L208.07,99.20L208.10,97.93L209.27,98.66"/><path d="M208.28,98.04L208.25,99.07L208.01,100.13L207.54,100.95L206.71,101.61"/><path d="M206.44,99.33L206.70,98.95"/><path d="M211.95,109.17L212.22,104.51L212.14,103.98L211.89,103.42L211.47,102.87L208.16,99.47"/><path d="M208.39,98.11L208.71,98.82"/><path d="M209.40,97.69L209.57,97.58L208.57,96.95"/><path d="M209.57,97.58L209.69,98.39"/><path d="M213.63,101.12L211.94,102.19L210.57,100.81"/><path d="M210.32,92.90L209.99,93.46L210.53,93.13"/><path d="M210.01,93.46L209.61,93.49"/><path d="M212.68,102.08L212.16,102.41L212.57,102.93L212.85,103.53L212.93,104.06L212.86,105.22"/><path d="M212.16,102.41L211.94,102.19"/><path d="M212.10,100.35L212.08,100.31"/><path d="M212.47,101.31L212.29,100.64"/><path d="M211.78,74.98L211.92,74.87"/><path d="M211.95,74.73L212.17,74.64L211.94,74.85"/><path d="M212.17,74.64L212.24,74.58"/><path d="M214.39,103.88L212.88,104.84"/><path d="M213.05,103.40L213.24,104.08"/><path d="M215.28,83.45L215.20,80.92"/><path d="M216.91,71.06L216.90,71.07"/><path d="M217.17,82.46L217.34,82.21"/><path d="M218.30,70.38L220.68,69.39"/><path d="M220.72,77.35L220.22,77.64"/><path d="M220.97,77.12L221.37,76.96"/><path d="M220.59,77.44L220.34,77.63"/><path d="M230.44,67.55L228.81,68.17"/><path d="M230.21,70.54L231.21,71.44"/><path d="M232.16,71.78L230.82,72.28"/><path d="M231.12,67.48L230.90,67.46"/></g><g style="stroke:#000000;stroke-width:0.123"><path d="M194.16,85.12L190.56,88.13L190.16,88.79L190.08,89.50L190.18,90.99L194.73,94.40L195.49,93.92L200.51,98.45L200.34,99.07L201.51,100.14L202.69,100.98L204.04,101.62L207.20,104.47L207.59,104.92L207.84,105.44L207.91,106.13L199.95,111.19L199.63,111.51L199.56,112.68L199.83,113.02L202.39,114.94L202.89,115.11L203.46,115.09L203.95,114.90L212.62,109.38L212.86,105.22L214.48,104.19L214.39,103.88L213.09,103.42L212.76,102.36L212.68,102.08L213.71,101.42L213.63,101.12L212.29,100.64L212.10,100.08L211.44,99.69L211.11,99.72L210.42,100.18L210.57,100.81L208.71,98.82L209.27,98.66L209.56,98.84L209.73,98.73L209.69,98.39L209.96,98.22L210.23,97.77L210.34,97.17L210.52,93.14L210.32,92.90L210.52,92.57L211.07,93.06L211.69,93.06L213.79,91.76L214.18,91.40L217.34,82.21L219.95,78.25L220.59,77.44L221.35,76.97L231.01,73.18L231.67,72.67L232.16,71.78L232.61,71.55L232.84,71.26L233.01,70.45L232.57,69.02L231.94,67.96L231.58,67.64L230.86,67.44L230.48,67.54L229.69,66.98L229.15,66.75L227.89,66.59L218.61,70.22L216.91,71.06"/><path d="M196.73,82.28L196.12,81.66L195.76,81.10L195.65,80.56L195.76,80.13L196.15,79.73L197.77,78.72L198.28,78.50L212.24,74.58L214.93,72.29L216.90,71.07"/><path d="M202.42,111.86L202.25,112.04L202.39,112.22L202.85,112.57L203.35,112.79L203.93,112.81L204.46,112.62L204.68,112.38L204.10,111.86L203.59,111.63L203.00,111.61L202.42,111.86"/><path d="M220.68,69.39L220.54,69.45"/></g></g><g id="Actor_5.1"><g style="stroke:#000000;stroke-width:0.123"><path d="M132.40,118.06L132.30,117.99L132.19,117.93L132.07,117.89L131.94,117.86L131.80,117.85L131.66,117.86L131.51,117.88L131.37,117.92L131.22,117.97L131.07,118.04L130.93,118.12L130.79,118.22L130.65,118.33L130.53,118.44L130.41,118.57L130.29,118.73L130.21,118.85L130.12,119.00L130.05,119.15L129.99,119.30L129.95,119.46L129.93,119.61L129.91,119.76L129.92,119.90L129.94,120.04L129.97,120.17L130.02,120.29L130.08,120.40L130.16,120.49L130.25,120.58"/><path d="M130.81,119.33L130.46,119.02L130.45,119.38L130.42,119.70L130.38,119.95L130.33,120.18L130.52,120.35"/><path d="M130.46,119.02L130.81,118.80L131.01,118.65"/><path d="M131.61,118.30L131.51,118.21L131.67,118.28"/><path d="M131.35,118.36L131.51,118.21"/><path d="M132.45,120.53L132.53,120.44L132.62,120.34L132.70,120.23L132.77,120.11L132.83,120.00L132.87,119.88L132.91,119.73"/></g><g style="stroke:#000000;stroke-width:0.123"><path d="M132.44,118.09L132.28,117.95L132.18,117.88L132.06,117.82L131.94,117.78L131.81,117.76L131.68,117.75L131.54,117.75L131.39,117.77L131.24,117.81L131.10,117.86L130.95,117.93L130.81,118.01L130.62,118.14L130.53,118.22L130.41,118.33L130.29,118.46L130.18,118.60L130.08,118.74L130.00,118.89L129.93,119.04L129.87,119.19L129.83,119.35L129.80,119.50L129.79,119.65L129.79,119.79L129.81,119.93L129.85,120.06L129.90,120.18L129.96,120.29L130.04,120.39L130.25,120.58L130.35,120.65L130.42,120.69"/><path d="M132.91,119.73L132.89,119.87L132.85,120.02L132.81,120.17L132.67,120.32L132.45,120.53"/></g></g><g id="Actor_2.1"><g style="stroke:#000000;stroke-width:0.123"><path d="M90.26,120.46L90.37,120.54L90.53,120.61L90.63,120.63L90.84,120.67L91.05,120.68L91.25,120.66L91.41,120.62L91.53,120.56"/><path d="M89.64,116.81L89.64,116.87L89.65,116.94L89.69,117.00L89.74,117.06L89.81,117.13L90.00,117.25L90.24,117.35L90.38,117.40L90.68,117.47L91.01,117.52L91.34,117.55L91.63,117.55L91.83,117.53L92.11,117.49L92.36,117.42L92.55,117.33L92.62,117.28L92.68,117.22L92.71,117.16L92.73,117.10"/><path d="M90.44,117.65L90.82,117.73L91.15,117.77L91.49,117.78L91.81,117.76"/><path d="M90.30,116.41L90.28,116.96L90.36,115.93L90.64,115.95L90.82,115.99L90.72,115.96L90.56,115.88L90.44,115.80L90.40,115.75L90.38,115.71L90.38,115.65L90.39,115.61L90.41,115.57L90.51,115.50L90.66,115.44"/><path d="M90.28,116.96L90.64,117.03L90.82,117.09L91.18,117.23L91.27,116.20L91.55,116.10L91.73,116.06L91.51,116.08L91.27,116.07L91.04,116.04L90.82,115.99L91.00,116.06L91.27,116.20"/><path d="M90.38,115.65L90.38,115.54"/><path d="M90.37,115.66L90.36,115.93"/><path d="M90.57,115.46L90.52,115.48"/><path d="M91.18,117.23L91.36,117.18L91.66,117.12L91.84,117.11L92.10,117.10L92.15,116.56"/><path d="M90.75,115.41L90.74,115.42"/><path d="M92.19,116.07L91.92,116.05L91.73,116.06L91.92,116.02L92.07,115.96L92.16,115.89L92.19,115.85L92.20,115.81"/><path d="M92.20,115.80L92.19,115.75L92.17,115.71L92.13,115.66L92.08,115.62L91.94,115.54"/></g><g style="stroke:#000000;stroke-width:0.123"><path d="M90.65,115.44L90.38,115.54L90.30,116.41L90.13,116.45L90.01,116.49L89.82,116.58L89.75,116.63L89.70,116.69L89.66,116.75L89.64,116.81L89.62,117.10L89.63,117.17L89.67,117.23L89.72,117.30L89.88,117.42L90.09,117.53L90.22,117.58L90.44,117.65L90.22,120.38L90.23,120.42L90.26,120.46L90.42,120.61L90.53,120.68L90.69,120.73L90.78,120.75L90.97,120.76L91.07,120.76L91.23,120.74L91.35,120.69L91.53,120.56L91.56,120.52L91.58,120.49L91.81,117.76L91.96,117.75L92.22,117.69L92.44,117.61L92.60,117.51L92.66,117.45L92.69,117.39L92.71,117.33L92.73,117.04L92.72,116.97L92.68,116.91L92.63,116.85L92.48,116.72L92.37,116.66L92.15,116.56L92.20,115.81"/><path d="M92.20,115.81L92.20,115.68L91.94,115.54L91.75,115.47L91.53,115.42L91.30,115.39L91.06,115.38L90.75,115.41"/><path d="M90.74,115.42L90.66,115.44"/></g></g><g id="Actor_10.0"><g style="stroke:#000000;stroke-width:0.123"><path d="M126.85,120.64L128.15,116.10L128.08,116.05L128.05,115.98"/><path d="M128.15,116.10L138.14,115.80L139.02,115.89L139.84,115.89L140.79,115.77L141.08,115.69L141.14,115.60L140.86,116.54L139.77,116.73L139.44,116.81L134.17,117.67L131.07,118.43L131.32,118.58L130.01,123.13"/><path d="M129.83,119.34L129.67,119.26L129.54,119.12"/><path d="M130.47,120.53L131.07,118.43"/><path d="M131.32,118.58L134.24,117.88L140.00,116.92L138.69,121.44"/><path d="M130.91,117.58L131.06,117.70L131.16,117.84"/><path d="M132.46,121.27L132.55,121.37L132.70,121.43L132.83,121.43L133.02,121.37L133.46,121.05L133.76,120.67L133.95,120.23L134.00,119.83L133.97,119.65L133.90,119.51L133.80,119.40L133.65,119.34L133.71,119.61L133.71,119.84L133.64,120.14L133.51,120.43"/><path d="M132.47,120.46L132.68,120.03L132.96,119.68L133.32,119.41L133.63,119.34"/><path d="M138.14,115.80L137.77,117.07"/><path d="M139.09,113.69L139.07,113.80L139.34,114.30L139.68,114.73L140.14,115.21L140.18,115.33L140.10,115.42L139.94,115.46L138.58,115.44"/><path d="M140.00,116.92L140.75,116.86L144.56,116.22L144.89,116.12L145.16,115.99L145.40,115.76L145.50,115.56"/><path d="M141.64,113.24L141.00,113.20L140.35,113.30L140.08,113.40L139.86,113.53L139.74,113.64L139.67,113.78L139.67,113.90L139.73,114.07L139.95,114.39L140.31,114.77L141.00,115.28L141.12,115.45L141.14,115.60"/><path d="M140.86,116.54L142.55,116.25L143.63,116.01L144.35,115.79L144.53,115.70L144.68,115.57L144.80,115.36L144.81,115.19L144.75,114.95L144.61,114.72L144.15,114.28L143.41,113.81"/></g><g style="stroke:#000000;stroke-width:0.123"><path d="M130.20,120.54L126.85,120.64L126.76,120.57L126.82,120.30L128.08,115.96L128.37,115.91L137.40,115.65L137.55,115.47L138.58,115.44L139.11,113.64L139.19,113.49L139.38,113.29L139.82,113.06L140.40,112.93L141.03,112.91L141.71,112.98"/><path d="M131.02,117.90L130.99,117.74L130.91,117.58L130.61,117.51L130.42,117.54L130.17,117.63L129.93,117.79L129.75,117.96L129.51,118.36L129.44,118.61L129.43,118.82L129.53,119.11L129.68,119.18L129.87,119.19"/><path d="M130.47,120.53L129.76,122.98L130.01,123.13L132.93,122.41L138.69,121.44L139.44,121.38L143.12,120.76L143.47,120.67L143.76,120.55L144.04,120.33L144.19,120.07L145.50,115.56L145.52,115.34L145.47,115.10L145.34,114.85L144.95,114.40L144.64,114.14L144.37,113.98L143.49,113.53"/><path d="M132.47,120.46L132.40,120.70L132.38,121.01L132.44,121.23L132.46,121.27L132.51,121.28L132.73,121.22L133.05,121.01L133.32,120.71L133.51,120.43L132.53,120.46"/></g></g><g><g><path style="stroke:#000000;stroke-width:0.210;stroke-dasharray:2.1 2.1" d="M88.03,155.21L89.14,141.70"/></g></g><g><g><path style="stroke:#000000;stroke-width:0.210;stroke-dasharray:2.1 2.1" d="M89.24,140.53L91.09,118.15"/></g></g><g><g><path style="stroke:#000000;stroke-width:0.210;stroke-dasharray:2.1 2.1" d="M193.05,90.17L192.62,63.14"/></g></g><g><g><path style="stroke:#000000;stroke-width:0.210;stroke-dasharray:2.1 2.1" d="M203.80,111.46L203.24,56.75"/></g></g><g id="PMI5.0"><g><path style="stroke:#000000;stroke-width:0.280" d="M80.28,154.12L84.04,154.23"/></g><g><path style="fill:#000000" d="M84.02,155.22L84.07,153.22L86.04,154.28z"/></g><g><path style="fill:#ffffff" d="M62.71,156.41L80.28,156.41L80.28,151.33L62.71,151.33z"/><path style="stroke:#000000;stroke-width:0.280;stroke-opacity:0.98" d="M62.71,156.41L80.28,156.41L80.28,151.33L62.71,151.33z"/><text xml:space="preserve" fill="#000000" stroke-width="0" x="63.34" y="154.98" font-size="3.09" opacity="1.00" font-family="Microsoft Sans Serif">Q32006F31</text></g></g><g id="PMI1.0"><g><path style="stroke:#000000;stroke-width:0.280" d="M221.92,84.14L218.76,84.17"/></g><g><path style="fill:#000000" d="M218.75,83.17L218.76,85.17L216.75,84.18z"/></g><g><path style="fill:#ffffff" d="M221.92,86.59L245.81,86.59L245.81,81.51L221.92,81.51z"/><path style="stroke:#000000;stroke-width:0.280;stroke-opacity:0.98" d="M221.92,86.59L245.81,86.59L245.81,81.51L221.92,81.51z"/><text xml:space="preserve" fill="#000000" stroke-width="0" x="222.55" y="85.16" font-size="3.08" opacity="1.00" font-family="Microsoft Sans Serif">L0353020135A0</text></g></g><g id="PMI9.0"><g><path style="stroke:#000000;stroke-width:0.280" d="M100.00,135.89L93.47,136.47"/></g><g><path style="fill:#000000" d="M93.38,135.47L93.55,137.47L91.47,136.65z"/></g><g><path style="fill:#ffffff" d="M100.00,137.37L123.88,137.37L123.88,132.29L100.00,132.29z"/><path style="stroke:#000000;stroke-width:0.280;stroke-opacity:0.98" d="M100.00,137.37L123.88,137.37L123.88,132.29L100.00,132.29z"/><text xml:space="preserve" fill="#000000" stroke-width="0" x="100.63" y="135.94" font-size="3.08" opacity="1.00" font-family="Microsoft Sans Serif">L0353050002A0</text></g></g><g id="PMI2.0"><g><path style="stroke:#000000;stroke-width:0.280" d="M85.86,115.98L88.52,116.03"/></g><g><path style="fill:#000000" d="M88.51,117.03L88.54,115.03L90.52,116.07z"/></g><g><path style="fill:#ffffff" d="M64.82,118.33L85.86,118.33L85.86,113.25L64.82,113.25z"/><path style="stroke:#000000;stroke-width:0.280;stroke-opacity:0.98" d="M64.82,118.33L85.86,118.33L85.86,113.25L64.82,113.25z"/><text xml:space="preserve" fill="#000000" stroke-width="0" x="65.46" y="116.90" font-size="3.09" opacity="1.00" font-family="Microsoft Sans Serif">Q1840616F31</text></g></g><g id="PMI10.0"><g><path style="stroke:#000000;stroke-width:0.280" d="M136.24,109.60L136.12,118.18"/></g><g><path style="fill:#000000" d="M135.12,118.16L137.12,118.19L136.09,120.17z"/></g><g><path style="fill:#ffffff" d="M124.33,109.60L148.22,109.60L148.22,104.52L124.33,104.52z"/><path style="stroke:#000000;stroke-width:0.280;stroke-opacity:0.98" d="M124.33,109.60L148.22,109.60L148.22,104.52L124.33,104.52z"/><text xml:space="preserve" fill="#000000" stroke-width="0" x="124.96" y="108.17" font-size="3.08" opacity="1.00" font-family="Microsoft Sans Serif">L0353050002A0</text></g></g><g id="PMI4.0"><g><path style="stroke:#000000;stroke-width:0.280" d="M185.04,62.30L190.01,62.27"/></g><g><path style="fill:#000000" d="M190.02,63.27L190.01,61.27L192.01,62.26z"/></g><g><path style="fill:#ffffff" d="M164.00,64.91L185.04,64.91L185.04,59.83L164.00,59.83z"/><path style="stroke:#000000;stroke-width:0.280;stroke-opacity:0.98" d="M164.00,64.91L185.04,64.91L185.04,59.83L164.00,59.83z"/><text xml:space="preserve" fill="#000000" stroke-width="0" x="164.63" y="63.48" font-size="3.09" opacity="1.00" font-family="Microsoft Sans Serif">Q1840825F31</text></g></g><g id="PMI6.0"><g><path style="stroke:#000000;stroke-width:0.280" d="M210.55,56.07L205.63,56.40"/></g><g><path style="fill:#000000" d="M205.56,55.40L205.70,57.40L203.63,56.53z"/></g><g><path style="fill:#ffffff" d="M210.54,58.03L228.12,58.03L228.12,52.95L210.54,52.95z"/><path style="stroke:#000000;stroke-width:0.280;stroke-opacity:0.98" d="M210.54,58.03L228.12,58.03L228.12,52.95L210.54,52.95z"/><text xml:space="preserve" fill="#000000" stroke-width="0" x="211.18" y="56.60" font-size="3.09" opacity="1.00" font-family="Microsoft Sans Serif">Q32008F31</text></g></g><g/><g id="paperID" visibility="hidden" opacity="0.00" transform="scale(0.000100)"><path style="stroke:#000000;stroke-width:0.500;fill:#e6e6e6;fill-rule:evenodd" d="M-2000.00,-2000.00L2297.00,-2000.00L2297.00,2210.00L-2000.00,2210.00zM0.00,0.00L297.00,0.00L297.00,210.00L0.00,210.00z"/><path style="fill:#000000;fill-opacity:0.118" d="M3.00,210.00L297.00,210.00L297.00,3.00L300.00,3.00L300.00,213.00L3.00,213.00z"/></g><g id="hotspot.0" onmouseover="ShowHotSpot(evt,'0')" onmouseout="HideHotSpot(evt,'0')" onmousemove="ShowToolTip(evt,'0',&quot;3dp360314 (I_Part2.8)&quot;)" opacity="0"><path style="fill:#00ff00;fill-rule:evenodd" d="M230.28,67.25L231.61,67.51L231.90,67.74L232.91,69.90L232.93,71.07L231.49,72.80L220.77,77.16L217.48,81.81L216.86,83.83L216.71,83.96L214.58,90.28L214.03,91.31L212.01,92.75L211.22,92.94L210.37,92.61L210.43,95.91L210.17,97.77L209.62,98.54L208.76,98.73L210.43,100.39L211.22,99.58L211.52,99.53L212.55,100.58L213.37,100.85L213.62,101.22L212.72,101.93L213.08,103.22L214.42,103.79L214.42,104.07L213.08,104.91L212.46,109.32L203.75,114.89L202.48,114.89L199.85,113.02L199.77,111.17L207.82,105.98L207.81,105.07L204.87,102.18L201.19,99.78L200.65,99.26L200.16,97.90L195.63,93.94L194.32,93.97L190.33,91.06L190.33,88.25L193.96,85.21L194.27,85.24L194.57,85.77L195.92,85.77L195.36,85.24L195.35,83.48L196.71,82.43L196.46,81.78L195.89,81.28L195.88,79.78L198.17,78.36L212.21,74.42L215.11,72.03L219.60,69.65L227.80,66.46L228.68,66.46zM218.81,83.73L221.55,83.76L221.79,81.35L245.88,81.27L245.88,86.67L221.79,86.58L221.55,84.44L218.82,84.48L218.59,84.80L218.11,84.76L217.04,84.17L216.86,83.83L218.63,83.16zM204.63,112.21L204.56,112.48L203.01,112.51L202.48,112.20L202.38,111.70L204.10,111.68z"/></g><g id="hotspot.1" onmouseover="ShowHotSpot(evt,'1')" onmouseout="HideHotSpot(evt,'1')" onmousemove="ShowToolTip(evt,'1',&quot;3dp429524 (I_3DPart429524.15)&quot;)" opacity="0"><path style="fill:#00ff00;fill-rule:evenodd" d="M124.20,104.36L148.29,104.28L148.29,109.68L136.54,109.83L136.55,115.50L138.49,115.21L139.22,113.30L140.52,112.74L141.44,112.73L141.68,112.97L141.12,114.42L141.04,116.29L141.86,116.22L142.44,115.99L143.45,113.54L143.76,113.50L144.61,114.04L145.39,114.85L145.38,116.02L144.24,119.64L143.73,120.46L129.93,122.90L130.28,121.02L131.09,118.39L132.19,117.88L130.21,117.48L129.46,118.39L130.04,120.17L126.75,120.51L128.09,115.93L135.86,115.50L135.86,109.83L124.20,109.59zM133.23,120.44L133.23,120.75L132.68,121.08L132.68,120.12z"/></g><g id="hotspot.2" onmouseover="ShowHotSpot(evt,'2')" onmouseout="HideHotSpot(evt,'2')" onmousemove="ShowToolTip(evt,'2',&quot;3dp382177 (I_BU LÔNG 061610.31)&quot;)" opacity="0"><path style="fill:#00ff00;fill-rule:evenodd" d="M90.11,115.70L90.54,115.44L91.99,115.37L92.25,115.65L92.14,116.17L92.75,117.10L91.87,117.79L91.42,120.52L90.35,120.44L90.35,117.52L89.84,117.24L89.58,116.47L88.78,116.83L88.50,116.21L86.30,116.18L86.05,118.32L64.69,118.32L64.69,113.09L86.14,113.01L86.30,115.50L88.49,115.45L89.02,115.09zM129.46,118.39L130.21,117.47L130.84,117.51L130.88,117.85L129.92,118.85L129.49,118.86z"/></g><g id="hotspot.3" onmouseover="ShowHotSpot(evt,'3')" onmouseout="HideHotSpot(evt,'3')" onmousemove="ShowToolTip(evt,'3',&quot;3dp382309 (I_BU LÔNG 0825125.29)&quot;)" opacity="0"><path style="fill:#00ff00;fill-rule:evenodd" d="M193.75,59.61L194.04,60.38L194.59,60.90L194.50,62.01L193.78,62.60L193.43,66.22L191.90,66.22L191.66,62.75L190.76,62.75L190.07,63.14L189.80,62.52L185.47,62.49L185.23,64.90L163.87,64.90L163.87,59.67L185.32,59.58L185.47,61.81L189.80,61.78L190.08,61.20L190.57,61.27L191.04,60.39L191.37,60.19L191.79,59.30L193.26,59.31z"/></g><g id="hotspot.4" onmouseover="ShowHotSpot(evt,'4')" onmouseout="HideHotSpot(evt,'4')" onmousemove="ShowToolTip(evt,'4',&quot;3dp404439 (I_ĐAI ỐC D06.36)&quot;)" opacity="0"><path style="fill:#00ff00;fill-rule:evenodd" d="M130.04,118.66L130.98,117.76L132.19,117.89L131.09,118.39L130.54,120.27L130.04,120.20zM85.89,154.13L85.25,154.54L84.19,154.91L84.28,153.19zM80.74,153.58L83.79,154.04L83.79,154.34L80.74,154.26L80.59,155.97L80.31,156.48L62.58,156.40L62.58,151.17L80.59,151.09zM89.58,154.29L89.59,154.87L89.22,155.87L86.91,155.88L86.53,154.25L86.80,153.99L89.06,153.99z"/></g><g id="hotspot.5" onmouseover="ShowHotSpot(evt,'5')" onmouseout="HideHotSpot(evt,'5')" onmousemove="ShowToolTip(evt,'5',&quot;3dp404444 (I_ĐAI ỐC MŨ M8.34)&quot;)" opacity="0"><path style="fill:#00ff00;fill-rule:evenodd" d="M204.63,55.38L205.41,55.40L205.59,55.97L210.18,55.72L210.42,52.79L228.42,52.71L228.43,57.59L228.15,58.09L210.42,58.02L210.18,56.41L206.64,56.42L205.86,56.70L205.15,58.11L204.54,58.56L201.95,58.56L201.15,57.76L201.16,56.49L201.98,55.20L202.66,54.82L204.10,54.82zM196.69,82.10L196.73,82.41L195.35,83.48L195.36,85.24L195.92,85.77L194.56,85.77L193.75,84.48L193.75,82.93L194.47,82.07L195.00,81.79L195.88,81.80z"/></g><g id="hotspot.6" onmouseover="ShowHotSpot(evt,'6')" onmouseout="HideHotSpot(evt,'6')" onmousemove="ShowToolTip(evt,'6',&quot;3dp429524 (I_3DPart429524.15)&quot;)" opacity="0"><path style="fill:#00ff00;fill-rule:evenodd" d="M100.93,130.75L101.38,131.88L123.96,132.05L123.96,137.45L99.89,137.31L99.63,137.08L93.98,141.85L90.01,145.81L88.49,145.83L85.50,144.82L85.58,144.34L87.89,141.85L88.57,141.39L88.53,141.07L85.82,140.27L85.49,139.96L91.45,136.41L92.66,135.50L93.25,135.30L93.56,134.81L94.05,131.87L95.14,130.05L95.81,129.40L96.98,129.41zM99.54,134.72L98.26,135.05L98.55,133.20L99.65,132.86zM88.41,139.45L89.88,139.49L89.87,139.80L88.71,139.74zM90.37,142.93L90.31,143.42L88.39,143.51L88.49,143.02L89.56,142.62z"/></g></g></svg>
