<?xml version="1.0" encoding="UTF-8" standalone="no"?>
<svg xmlns="http://www.w3.org/2000/svg" xmlns:xlink="http://www.w3.org/1999/xlink" width="297.000mm" height="210.000mm" viewBox="0.000000 0.000000 297.000000 210.000000" stroke-linejoin="round" stroke-linecap="round" fill="none" fill-rule="evenodd"><desc>Composer Export</desc><script type="text/ecmascript"><![CDATA[
if(typeof(top) != "undefined")
{
	top.ShowPaper = ShowPaper;
}
function ShowHotSpot(evt,hotspotid)
{
	var svgDocument = evt.target.ownerDocument;
	var strId = "hotspot."+hotspotid;
	var hotspot = svgDocument.getElementById(strId);
	if(hotspot)
		hotspot.setAttribute("opacity",".5");
}
function HideHotSpot(evt,hotspotid)
{
	var svgDocument = evt.target.ownerDocument;
	var strId = "hotspot."+hotspotid;
	var hotspot = svgDocument.getElementById(strId);
	if(hotspot)
		hotspot.setAttribute("opacity","0");

	var toolTip = svgDocument.getElementById('ToolTip');
	if(toolTip)
		toolTip.setAttribute("visibility","hidden");
}
function ShowToolTip(evt,hotspotid,strTooltip)
{
	if(strTooltip=="")
	return;

	// change text
	var svgDocument = evt.target.ownerDocument;
	var tiptext = svgDocument.getElementById('ToolTipText');
	if( !tiptext )
	return;
	tiptext.firstChild.nodeValue = " " + strTooltip + "  " ;

	// show tooltip before, else some refresh issue

	var toolTip = svgDocument.getElementById('ToolTip');
	if(!toolTip)
	return;

	toolTip.setAttribute("visibility","visible");
	toolTip.setAttribute("opacity",".95");

	// move tooltip
	// get viewbox

	var root = svgDocument.documentElement;
	var vbox = (root.getAttribute("viewBox")).split(' ');
	var x0 = parseFloat(vbox[0]);
	var y0 = parseFloat(vbox[1]);
	var vboxW = parseFloat(vbox[2]);
	var vboxH = parseFloat(vbox[3]);

	// get default width of svg

	var strW = root.getAttribute("width");
	var svgW = parseFloat(strW);
	if(strW.indexOf('mm') != -1)
	svgW *= 3.779;

	var strH = root.getAttribute("height");
	var svgH = parseFloat(strH);
	if(strH.indexOf('mm') != -1)
	svgH *= 3.779;  	// 96 dpi  -> 96/25.4 = 3.779

	// update the viewbox / width / height if svg is embedded in html with zoom fit all
	var realx0 = x0;
	var realy0 = y0;
	var realvboxW = vboxW;
	var realvboxH = vboxH;
	var realsvgW = svgW;
	var realsvgH = svgH;

	if ((typeof(top) == "undefined") || (typeof(top.svgctl1) != "undefined")) // embedded in html
	{
		// get window size in pxl

		svgW = window.innerWidth;
		svgH = window.innerHeight;

		// calculate real viewbox

		realsvgW = svgW;
		realsvgH = svgH;
		if((svgW / svgH) > (vboxW / vboxH))
		{
			realvboxW = (vboxH * svgW) / svgH;
			realvboxH = vboxH;
			realx0 = x0 - (realvboxW - vboxW)/2 ;
		}
		else
		{
			realvboxH = (vboxW * svgH) / svgW;
			realvboxW = vboxW;
			realy0 = y0 - (realvboxH - vboxH)/2 ;
		}
	}

	// get user zoom/pan

	var newScale = root.currentScale;
	var translation = root.currentTranslate;

	// transform pxl to user unit

	var xPos = (((evt.clientX+10- translation.x)/newScale) * realvboxW)/realsvgW  + realx0 ;
	var yPos = (((evt.clientY+5- translation.y)/newScale) * realvboxH)/ realsvgH  + realy0 ;
	var scaleForWidth = ( (1 / newScale) * realvboxH) / realsvgH;

	// move tooltip

	toolTip.setAttribute("transform", "translate(" + xPos + "," + yPos + ")" );

	// resize tooltip

	var fontsize = 12;
	tiptext.setAttribute("font-size",fontsize*scaleForWidth);
	tiptext.setAttribute("y", fontsize*scaleForWidth);
	var tipBG = svgDocument.getElementById('ToolTipBG');
	var outline = tiptext.getBBox();
	if(tipBG)
	{
		tipBG.setAttribute("stroke-width", 1*scaleForWidth);
		tipBG.setAttribute("width", Number(outline.width) );
		tipBG.setAttribute("height", Number(outline.height) + fontsize*.5*scaleForWidth );
	}
	var ToolTipShadow = svgDocument.getElementById('ToolTipShadow');
	if(ToolTipShadow)
	{
		ToolTipShadow.setAttribute("width", Number(outline.width) );
		ToolTipShadow.setAttribute("height", Number(outline.height) + fontsize*.5*scaleForWidth );
		ToolTipShadow.setAttribute("x", 3*scaleForWidth);
		ToolTipShadow.setAttribute("y", 3*scaleForWidth);
	}
}
function ShowPaper()
{
  var svgDocument = getDocument();
  var paper = svgDocument.getElementById("paperID");
  if(paper)
  {
    paper.setAttribute("transform","scale(1)");
    paper.setAttribute("opacity","1");
    paper.setAttribute("visibility","visible");
  }
  var svg = svgDocument.getRootElement();
  if(svg)
  {
    svg.setAttribute("width","307.000mm");
    svg.setAttribute("height","220.000mm");
    svg.setAttribute("viewBox","-5.000000 -5.000000 307.000000 220.000000");
  }
}
]]></script><defs/><g><g id="Actor_.0"><g style="stroke:#000000;stroke-width:0.123"><path d="M194.22,68.03L194.23,68.02L194.24,67.99L194.25,67.97L194.26,67.94L194.26,67.91L194.27,67.89L194.27,67.86L194.27,67.84"/></g><g style="stroke:#000000;stroke-width:0.123"><path d="M194.00,67.62L194.01,67.61L194.02,67.60"/><path d="M194.02,67.61L194.02,67.60"/></g></g><g id="Actor_.1"><g style="stroke:#000000;stroke-width:0.123"><path d="M181.06,77.94L181.06,77.93L181.07,77.92L181.09,77.89L181.10,77.87L181.11,77.84L181.11,77.81L181.12,77.78L181.12,77.76L181.12,77.74L181.11,77.72"/></g><g style="stroke:#000000;stroke-width:0.123"><path d="M180.86,77.49L180.85,77.48L180.84,77.49L180.84,77.50"/></g></g><g id="Actor_.2"><g style="stroke:#000000;stroke-width:0.123"><path d="M181.48,77.09L181.48,77.11L181.46,77.13L180.86,77.58L180.82,77.59L180.77,77.60L180.72,77.61L180.66,77.61L180.58,77.60L180.39,77.54L179.64,78.10"/><path d="M181.20,77.94L181.17,77.99L181.14,78.02L181.13,78.03L181.10,78.03L181.09,78.03L181.07,78.01L181.06,77.98L181.08,77.95L181.11,77.91L181.12,77.86L181.14,77.80L181.14,77.75L181.14,77.69L181.17,77.66L181.19,77.66L181.21,77.67L181.23,77.69L181.24,77.75L181.24,77.80L181.23,77.85L181.20,77.94"/><path d="M181.06,77.98L181.06,77.91L181.07,77.84L181.09,77.76L181.12,77.72L181.14,77.69"/><path d="M180.39,77.54L180.44,77.50L180.65,77.56L180.72,77.56L180.77,77.55L181.37,77.10L181.37,77.08L181.37,77.07L181.36,77.06L181.33,77.05L181.12,76.99L181.18,76.95"/><path d="M181.12,76.99L180.37,77.55"/><path d="M180.37,77.55L180.44,77.50"/></g><g style="stroke:#000000;stroke-width:0.123"><path d="M179.64,78.10L179.62,78.59L180.56,78.84L180.64,78.85L180.72,78.85L180.77,78.83L180.83,78.81L181.41,78.37L181.42,78.36L181.43,78.34L181.48,77.09L181.47,77.06L181.46,77.05L181.42,77.02L181.37,77.00L181.18,76.95"/><path d="M180.37,77.55L179.64,78.10"/><path d="M180.37,77.55L180.37,77.55L180.43,77.51L181.18,76.95"/></g></g><g id="Actor_.3"><g style="stroke:#000000;stroke-width:0.123"><path d="M232.71,38.64L232.70,38.66L232.69,38.67L232.27,38.98L232.25,38.99L232.19,39.01L232.14,39.01L232.09,39.01L232.02,39.00L231.85,38.96L231.15,39.48"/><path d="M232.42,38.53L232.39,38.56L232.57,38.60L232.61,38.62L232.61,38.63L232.61,38.64L232.18,38.97L232.13,38.98L232.08,38.98L231.89,38.94L231.85,38.96"/><path d="M231.68,39.08L232.39,38.56"/><path d="M231.68,39.09L231.89,38.94"/><path d="M232.49,39.11L232.48,39.10L232.46,39.11L232.44,39.13L232.43,39.15L232.42,39.19L232.41,39.26L232.40,39.31L232.38,39.36L232.38,39.40L232.40,39.42L232.40,39.42L232.42,39.42L232.45,39.39L232.48,39.34L232.49,39.30L232.51,39.23L232.51,39.19L232.51,39.14L232.50,39.12L232.49,39.11"/><path d="M232.43,39.15L232.40,39.20L232.39,39.24L232.38,39.31L232.38,39.36"/></g><g style="stroke:#000000;stroke-width:0.123"><path d="M232.42,38.53L232.64,38.58L232.68,38.61L232.70,38.62L232.71,38.63L232.61,39.74L232.61,39.74L232.60,39.76L232.18,40.08L232.15,40.09L232.09,40.10L232.02,40.11L231.95,40.10L231.11,39.92L231.15,39.48"/><path d="M231.68,39.09L231.68,39.08L231.72,39.05L232.42,38.53"/><path d="M231.15,39.48L231.68,39.09"/></g></g><g id="Actor_.4"><g style="stroke:#000000;stroke-width:0.123"><path d="M226.28,43.47L226.28,43.47L226.26,43.49L225.83,43.82L225.80,43.83L225.74,43.85L225.69,43.85L225.64,43.85L225.57,43.84L225.40,43.80L224.69,44.33"/><path d="M225.40,43.80L225.44,43.77L225.63,43.81L225.68,43.82L225.73,43.81L226.18,43.47L226.18,43.45L226.18,43.45L226.15,43.43L225.95,43.38L225.99,43.35"/><path d="M225.95,43.38L225.25,43.91"/><path d="M225.24,43.91L225.44,43.77"/><path d="M226.06,43.94L226.07,43.96L226.07,43.97L226.08,44.03L226.07,44.10L226.06,44.14L226.04,44.20L226.02,44.24L226.00,44.26L225.98,44.27L225.97,44.27L225.96,44.26L225.95,44.24L225.94,44.20L225.94,44.13L225.96,44.06L225.98,44.00L226.01,43.96L226.03,43.94L226.05,43.94L226.06,43.94"/><path d="M225.94,44.20L225.97,44.14L225.98,44.10L225.99,44.03L225.99,43.98"/></g><g style="stroke:#000000;stroke-width:0.123"><path d="M225.99,43.35L226.21,43.40L226.26,43.43L226.27,43.44L226.28,43.46L226.19,44.58L226.19,44.59L226.17,44.60L225.74,44.94L225.69,44.96L225.63,44.97L225.58,44.97L225.50,44.96L224.65,44.77L224.69,44.33"/><path d="M225.24,43.91L225.25,43.91L225.29,43.88L225.99,43.35"/><path d="M224.69,44.33L225.24,43.91"/></g></g><g id="Actor_.5"><g style="stroke:#000000;stroke-width:0.123"><path d="M231.37,83.33L231.28,83.40"/></g><g style="stroke:#000000;stroke-width:0.123"><path d="M231.29,83.31L231.37,83.33L231.36,83.35L231.19,85.31L231.11,85.38"/></g></g><g id="Actor_.6"><g style="stroke:#000000;stroke-width:0.123"><path d="M201.39,112.27L201.47,111.12L201.44,111.04"/><path d="M210.02,101.88L210.02,101.88"/></g><g style="stroke:#000000;stroke-width:0.123"><path d="M201.54,109.48L210.03,101.87L210.09,101.86L211.16,102.16L211.26,102.21L211.28,102.28L211.19,103.41L201.37,112.28"/></g></g><g id="Actor_.7"><g style="stroke:#000000;stroke-width:0.123"><path d="M166.20,88.17L166.96,87.61L167.16,87.67L167.24,87.68L167.30,87.68L167.36,87.68L167.41,87.66L167.45,87.65L168.09,87.17L168.11,87.14L168.12,87.12"/><path d="M166.96,87.61L167.02,87.57L167.23,87.63L167.30,87.63L167.36,87.62L167.99,87.14L168.01,87.12L168.00,87.10L168.00,87.09L167.97,87.08L167.75,87.01L166.99,87.58"/><path d="M167.02,87.57L166.99,87.58"/><path d="M167.82,87.72L167.84,87.74L167.85,87.75L167.86,87.79L167.86,87.86L167.85,87.94L167.82,88.02L167.78,88.08L167.76,88.09L167.73,88.10L167.71,88.10L167.69,88.08L167.67,88.05L167.72,87.99L167.75,87.92L167.76,87.83L167.77,87.78L167.76,87.74L167.79,87.72L167.80,87.72L167.82,87.72"/><path d="M167.67,88.05L167.67,88.01L167.67,87.96L167.69,87.88L167.72,87.80L167.74,87.76L167.76,87.74"/><path d="M167.75,87.01L167.81,86.97"/></g><g style="stroke:#000000;stroke-width:0.123"><path d="M166.20,88.17L166.18,88.68L167.15,88.95L167.24,88.96L167.29,88.96L167.37,88.94L167.43,88.91L168.06,88.44L168.07,88.43L168.08,88.40L168.12,87.10L168.10,87.08L168.06,87.04L168.01,87.03L167.81,86.97"/><path d="M166.99,87.58L166.20,88.17"/><path d="M167.81,86.97L167.05,87.53L166.99,87.58L166.99,87.58"/></g></g><g id="Actor_.8"><g style="stroke:#000000;stroke-width:0.123"><path d="M225.94,44.16L225.95,44.15L225.95,44.13L225.96,44.11L225.96,44.09L225.97,44.07L225.97,44.05L225.97,44.03L225.97,44.02"/></g><g style="stroke:#000000;stroke-width:0.123"><path d="M225.75,43.79L225.75,43.79L225.74,43.80L225.74,43.80"/></g></g><g id="Actor_30.0"><g style="stroke:#000000;stroke-width:0.123"><path d="M74.06,155.38L70.56,103.64"/><path d="M70.58,103.65L163.57,45.38"/></g><g style="stroke:#000000;stroke-width:0.123"><path d="M71.28,114.39L70.56,103.64L163.55,45.37L162.55,89.40L74.06,155.38L71.28,114.39"/></g></g><g id="Actor_.9"><g style="stroke:#000000;stroke-width:0.123"><path d="M205.43,59.12L205.42,59.14L205.41,59.15L204.91,59.52L204.88,59.54L204.84,59.55L204.79,59.56L204.71,59.56L204.63,59.55L204.45,59.50L203.72,60.04"/><path d="M204.45,59.50L204.50,59.47L204.70,59.52L204.76,59.52L204.81,59.51L205.32,59.13L205.33,59.11L205.33,59.10L205.32,59.09L205.29,59.07L205.09,59.03L204.36,59.56"/><path d="M205.18,59.63L205.20,59.65L205.21,59.70L205.21,59.77L205.19,59.84L205.17,59.91L205.14,59.95L205.13,59.96L205.11,59.98L205.09,59.98L205.08,59.98L205.06,59.96L205.05,59.92L205.08,59.87L205.11,59.80L205.12,59.72L205.12,59.67L205.13,59.65L205.15,59.63L205.17,59.63L205.18,59.63"/><path d="M205.12,59.67L205.09,59.72L205.06,59.79L205.05,59.87L205.05,59.92"/><path d="M204.50,59.47L204.36,59.57"/><path d="M205.09,59.03L205.14,58.99"/></g><g style="stroke:#000000;stroke-width:0.123"><path d="M203.72,60.04L203.69,60.51L204.59,60.73L204.64,60.73L204.72,60.73L204.79,60.72L204.84,60.70L205.34,60.32L205.35,60.31L205.36,60.29L205.43,59.11L205.43,59.10L205.41,59.08L205.36,59.05L205.14,58.99"/><path d="M203.72,60.04L204.36,59.57"/><path d="M205.13,58.99L204.40,59.53L204.36,59.56L204.36,59.57"/></g></g><g id="Actor_.10"><g style="stroke:#000000;stroke-width:0.123"><path d="M215.84,51.76L215.85,51.74L215.86,51.72L215.87,51.70L215.87,51.68L215.88,51.66L215.88,51.64L215.88,51.62L215.88,51.60"/></g><g style="stroke:#000000;stroke-width:0.123"><path d="M215.66,51.37L215.65,51.37L215.65,51.37L215.64,51.38"/></g></g><g id="Actor_31.0"><g style="stroke:#000000;stroke-width:0.123"><path d="M70.62,104.58L68.73,76.53L164.07,22.66"/><path d="M68.73,76.53L68.71,76.52"/></g><g style="stroke:#000000;stroke-width:0.123"><path d="M70.62,104.58L68.71,76.52L164.05,22.66L163.55,45.37"/></g></g><g id="Actor_.11"><g style="stroke:#000000;stroke-width:0.123"><path d="M154.97,96.99L154.96,97.02L154.94,97.04L154.25,97.56L154.20,97.58L154.15,97.59L154.09,97.60L154.03,97.59L153.94,97.58L153.74,97.52L152.97,98.09"/><path d="M153.80,97.48L153.74,97.52"/><path d="M153.83,97.45L154.59,96.88L154.81,96.95L154.84,96.96L154.85,96.97L154.85,96.99L154.84,97.01L154.15,97.53L154.09,97.54L154.02,97.54L153.83,97.48"/><path d="M154.67,97.63L154.69,97.65L154.70,97.71L154.70,97.79L154.67,97.88L154.64,97.95L154.61,97.99L154.58,98.01L154.55,98.02L154.53,98.02L154.51,98.00L154.50,97.97L154.52,97.94L154.55,97.90L154.58,97.82L154.59,97.76L154.60,97.71L154.59,97.64L154.63,97.62L154.64,97.62L154.67,97.63"/><path d="M154.50,97.97L154.49,97.90L154.49,97.84L154.51,97.79L154.54,97.71L154.57,97.67L154.59,97.64"/><path d="M154.65,96.83L154.59,96.88"/></g><g style="stroke:#000000;stroke-width:0.123"><path d="M154.65,96.83L154.86,96.89L154.91,96.91L154.95,96.95L154.97,96.98L154.95,98.31L154.94,98.33L154.92,98.35L154.25,98.86L154.18,98.89L154.13,98.90L154.04,98.91L153.95,98.90L152.96,98.61L152.97,98.09"/><path d="M153.83,97.48L153.80,97.48L152.97,98.09"/><path d="M153.83,97.48L153.83,97.45L154.65,96.83"/></g></g><g id="Actor_.12"><g style="stroke:#000000;stroke-width:0.123"><path d="M154.28,97.43L154.28,97.43"/><path d="M154.49,97.92L154.50,97.91L154.51,97.90L154.52,97.89L154.53,97.88L154.54,97.85L154.55,97.83L154.56,97.81L154.56,97.79L154.57,97.77L154.57,97.74L154.57,97.72L154.57,97.70L154.56,97.69L154.56,97.67"/></g><g style="stroke:#000000;stroke-width:0.123"><path d="M154.28,97.43L154.28,97.43L154.28,97.43L154.27,97.44L154.26,97.44"/></g></g><g id="Actor_.13"><g style="stroke:#000000;stroke-width:0.123"><path d="M167.67,88.01L167.68,88.00L167.68,87.99L167.69,87.98L167.70,87.96L167.71,87.94L167.72,87.92L167.73,87.90L167.73,87.87L167.74,87.85L167.74,87.83L167.74,87.80L167.74,87.79L167.73,87.78"/></g><g style="stroke:#000000;stroke-width:0.123"><path d="M167.46,87.54L167.46,87.54L167.45,87.54L167.45,87.55"/></g></g><g id="Actor_.14"><g style="stroke:#000000;stroke-width:0.123"><path d="M192.84,68.20L193.59,67.65L193.77,67.70L193.85,67.71L193.93,67.71L193.98,67.70L194.03,67.69L194.06,67.67L194.59,67.27L194.61,67.25L194.62,67.24"/><path d="M193.53,67.68L194.32,67.10"/><path d="M194.27,67.14L194.47,67.19L194.50,67.20L194.51,67.21L194.51,67.23L194.50,67.25L193.95,67.65L193.90,67.67L193.84,67.66L193.63,67.61L193.59,67.65"/><path d="M194.35,67.78L194.37,67.79L194.39,67.84L194.38,67.91L194.37,67.99L194.34,68.06L194.32,68.10L194.30,68.11L194.28,68.13L194.26,68.13L194.25,68.13L194.23,68.11L194.22,68.08L194.23,68.06L194.26,68.01L194.28,67.94L194.29,67.86L194.29,67.80L194.32,67.78L194.33,67.77L194.35,67.78"/><path d="M194.29,67.80L194.27,67.83L194.25,67.87L194.23,67.94L194.22,68.02L194.22,68.08"/><path d="M193.63,67.61L193.53,67.69"/><path d="M194.55,68.44L194.55,68.44"/></g><g style="stroke:#000000;stroke-width:0.123"><path d="M192.84,68.20L192.82,68.68L193.71,68.90L193.76,68.91L193.82,68.92L193.87,68.91L193.94,68.90L193.98,68.89L194.53,68.47L194.55,68.45L194.55,68.44"/><path d="M192.84,68.20L193.53,67.69"/><path d="M194.55,68.44L194.62,67.23L194.61,67.21L194.60,67.19L194.55,67.16L194.32,67.10"/><path d="M194.32,67.10L193.58,67.65L193.53,67.68L193.53,67.69"/></g></g><g id="Actor_.15"><g style="stroke:#000000;stroke-width:0.123"><path d="M214.55,51.92L215.27,51.39L215.45,51.43L215.53,51.44L215.58,51.44L215.63,51.44L215.69,51.42L215.72,51.41L216.19,51.06L216.20,51.04L216.21,51.03"/><path d="M215.27,51.39L215.32,51.36L215.51,51.40L215.57,51.41L215.62,51.39L216.10,51.03L216.11,51.02L216.10,51.01L216.07,50.99L215.87,50.94L215.91,50.91"/><path d="M215.87,50.94L215.15,51.47"/><path d="M215.97,51.53L215.98,51.54L215.99,51.56L215.99,51.59L215.99,51.66L215.98,51.73L215.95,51.80L215.93,51.83L215.91,51.85L215.89,51.86L215.88,51.86L215.87,51.86L215.86,51.84L215.85,51.80L215.87,51.75L215.89,51.69L215.90,51.61L215.90,51.56L215.92,51.54L215.94,51.52L215.96,51.52L215.97,51.53"/><path d="M215.85,51.80L215.84,51.75L215.86,51.68L215.88,51.61L215.90,51.56"/><path d="M215.15,51.48L215.32,51.36"/></g><g style="stroke:#000000;stroke-width:0.123"><path d="M215.91,50.91L216.14,50.97L216.18,50.99L216.20,51.01L216.20,51.02L216.12,52.17L216.12,52.18L216.10,52.20L215.64,52.55L215.59,52.57L215.52,52.59L215.45,52.59L215.40,52.58L214.52,52.38L214.55,51.92"/><path d="M215.15,51.48L214.55,51.92"/><path d="M215.15,51.48L215.15,51.47L215.19,51.44L215.91,50.91"/></g></g><g id="Actor_.16"><g style="stroke:#000000;stroke-width:0.123"><path d="M205.05,59.88L205.06,59.87L205.07,59.84L205.08,59.82L205.09,59.80L205.09,59.77L205.10,59.75L205.10,59.72L205.10,59.70"/></g><g style="stroke:#000000;stroke-width:0.123"><path d="M204.86,59.47L204.86,59.47L204.85,59.48L204.84,59.48"/></g></g><g id="Actor_.17"><g style="stroke:#000000;stroke-width:0.123"><path d="M232.38,39.31L232.38,39.30L232.39,39.28L232.40,39.25L232.40,39.22L232.41,39.21L232.41,39.19"/></g><g style="stroke:#000000;stroke-width:0.123"><path d="M232.20,38.96L232.19,38.95L232.19,38.96L232.18,38.96"/></g></g><g id="Actor_.18"><g style="stroke:#000000;stroke-width:0.123"><path d="M215.28,54.29L215.28,54.30L215.27,54.30L214.71,54.73L214.70,54.73L214.69,54.74L214.67,54.74L214.64,54.74L214.61,54.74"/><path d="M215.22,54.28L215.23,54.28L215.23,54.29L215.23,54.29L215.20,54.31L214.67,54.72L214.66,54.72L214.63,54.72"/><path d="M215.23,54.29L215.23,54.29"/></g><g style="stroke:#000000;stroke-width:0.123"><path d="M209.84,104.62L208.39,125.31"/><path d="M215.25,54.26L210.18,125.25"/><path d="M211.51,80.77L210.04,101.87"/><path d="M213.27,55.76L211.70,78.06"/></g></g><g id="Actor_.19"><g style="stroke:#000000;stroke-width:0.123"><path d="M153.35,101.23L152.45,103.39"/></g></g><g id="Actor_.20"><g style="stroke:#000000;stroke-width:0.123"><path d="M191.59,96.10L191.62,96.18L191.56,97.37L191.53,97.43"/><path d="M202.21,88.52L202.21,88.53"/></g><g style="stroke:#000000;stroke-width:0.123"><path d="M191.52,97.43L202.23,88.51L202.32,87.31L202.29,87.23L202.16,87.17L201.07,86.88L201.00,86.89L191.67,94.60"/></g></g><g id="Actor_.21"><g style="stroke:#000000;stroke-width:0.123"><path d="M202.96,86.67L202.99,86.75L202.92,87.91L202.89,87.96"/><path d="M212.87,79.64L212.87,79.64"/></g><g style="stroke:#000000;stroke-width:0.123"><path d="M203.05,85.20L211.70,78.06L211.76,78.05L212.90,78.34L212.96,78.38L212.98,78.45L212.90,79.59L212.88,79.63L202.88,87.97"/></g></g><g id="Actor_.22"><g style="stroke:#000000;stroke-width:0.123"><path d="M221.58,94.01L221.59,93.97L221.68,92.91L221.66,92.84"/><path d="M229.12,84.76L229.12,84.76"/></g><g style="stroke:#000000;stroke-width:0.123"><path d="M221.78,91.34L229.13,84.75L229.19,84.74L230.04,84.96L230.25,85.02L230.31,85.06L230.33,85.12L230.23,86.15L230.22,86.20L221.56,94.02"/></g></g><g id="Actor_.23"><g style="stroke:#000000;stroke-width:0.123"><path d="M164.91,168.05L164.96,166.87L164.93,166.79"/><path d="M175.42,155.02L175.42,155.01"/></g><g style="stroke:#000000;stroke-width:0.123"><path d="M164.97,165.04L175.42,155.01L175.50,155.00L176.66,155.39L176.72,155.44L176.74,155.49L176.69,156.65L164.89,168.06"/></g></g><g id="Actor_.24"><g style="stroke:#000000;stroke-width:0.123"><path d="M225.39,46.61L225.39,46.62L225.38,46.63L224.86,47.02L224.85,47.03L224.84,47.03L224.83,47.04L224.79,47.04L224.76,47.04"/><path d="M225.34,46.61L225.34,46.61L225.34,46.60"/><path d="M225.34,46.61L225.34,46.61L225.34,46.62L224.82,47.01L224.81,47.02L224.79,47.02"/></g><g style="stroke:#000000;stroke-width:0.123"><path d="M219.67,95.74L218.07,115.97"/><path d="M225.37,46.59L219.79,115.92"/><path d="M221.51,72.44L219.88,93.04"/><path d="M223.44,48.04L221.72,69.79"/></g></g><g id="Actor_.25"><g style="stroke:#000000;stroke-width:0.123"><path d="M223.54,69.60L223.56,69.67L223.47,70.77L223.44,70.83"/><path d="M232.22,63.51L232.21,63.51"/></g><g style="stroke:#000000;stroke-width:0.123"><path d="M223.65,68.19L231.12,62.03L231.18,62.02L232.26,62.27L232.32,62.31L232.34,62.38L232.25,63.46L232.23,63.50L223.44,70.83"/></g></g><g id="Actor_.26"><g style="stroke:#000000;stroke-width:0.123"><path d="M228.88,110.34L228.88,110.35"/><path d="M233.27,38.23L234.43,38.49L235.30,37.84L234.12,37.59L233.27,38.23"/><path d="M233.21,38.24L234.43,38.51L235.35,37.85"/></g><g style="stroke:#000000;stroke-width:0.123"><path d="M233.20,38.29L234.07,37.58L235.36,37.84L228.88,110.35L228.06,111.16L227.35,111.01"/><path d="M227.18,107.17L228.91,87.38"/><path d="M230.90,64.61L229.14,84.75"/><path d="M232.71,43.88L231.13,62.02"/></g></g><g id="Actor_.27"><g style="stroke:#000000;stroke-width:0.123"><path d="M192.87,71.29L192.87,71.30L192.86,71.31L192.22,71.79L192.21,71.80L192.20,71.81L192.18,71.81L192.14,71.82L192.11,71.81"/><path d="M192.82,71.28L192.82,71.29L192.82,71.29L192.81,71.30L192.18,71.78L192.16,71.79L192.14,71.79"/><path d="M192.82,71.29L192.82,71.29"/></g><g style="stroke:#000000;stroke-width:0.123"><path d="M188.18,124.21L187.11,145.85"/><path d="M189.42,99.19L188.32,121.33"/><path d="M192.85,71.26L189.03,145.77"/><path d="M190.73,72.86L189.57,96.34"/></g></g><g id="Actor_.28"><g style="stroke:#000000;stroke-width:0.123"><path d="M235.26,39.77L235.18,39.84"/></g><g style="stroke:#000000;stroke-width:0.123"><path d="M234.99,41.99L235.07,41.93L235.26,39.77L235.18,39.76"/></g></g><g id="Actor_.29"><g style="stroke:#000000;stroke-width:0.123"><path d="M152.11,128.84L152.14,128.90L152.13,130.18L152.09,130.23"/><path d="M152.11,128.79L152.16,128.84L152.19,128.92L152.17,130.21L152.15,130.27"/><path d="M165.43,119.19L165.43,119.19"/></g><g style="stroke:#000000;stroke-width:0.123"><path d="M152.13,127.24L164.08,117.37L164.15,117.37L165.38,117.75L165.46,117.80L165.49,117.88L165.46,119.13L165.43,119.19L152.15,130.27L152.09,130.28"/></g></g><g id="Actor_.30"><g style="stroke:#000000;stroke-width:0.123"><path d="M233.39,60.65L233.31,60.72"/></g><g style="stroke:#000000;stroke-width:0.123"><path d="M233.32,60.63L233.39,60.65L233.21,62.72L233.13,62.79"/></g></g><g id="Actor_.31"><g style="stroke:#000000;stroke-width:0.123"><path d="M211.87,101.65L211.90,101.72L211.82,102.81L211.80,102.85"/><path d="M219.86,93.06L219.87,93.06"/></g><g style="stroke:#000000;stroke-width:0.123"><path d="M211.98,100.12L219.88,93.05L219.94,93.04L220.99,93.32L221.08,93.37L221.10,93.43L221.01,94.49L221.00,94.53L211.79,102.86"/></g></g><g id="Actor_.32"><g style="stroke:#000000;stroke-width:0.123"><path d="M149.28,185.55L150.21,102.18L150.12,102.16"/><path d="M150.58,186.05L151.63,102.60L151.53,102.57L151.50,105.31L151.50,105.16"/><path d="M150.50,184.94L151.24,125.66"/><path d="M150.52,183.39L150.52,183.23"/><path d="M150.75,165.02L150.75,164.86"/><path d="M150.99,145.55L150.99,145.54"/><path d="M150.99,145.92L150.99,145.76"/><path d="M151.35,185.24L151.35,185.26"/><path d="M151.24,125.64L151.50,105.31"/><path d="M151.24,126.03L151.24,125.87"/><path d="M151.50,104.91L151.50,104.93"/><path d="M151.63,102.60L152.47,101.94"/><path d="M151.53,102.57L151.55,102.56"/></g><g style="stroke:#000000;stroke-width:0.123"><path d="M150.15,102.13L149.19,185.52L149.28,185.55L150.02,184.83L150.50,184.94L150.49,186.01L150.58,186.05L151.35,185.17L152.46,101.90"/><path d="M150.52,183.04L150.52,183.22L150.52,183.04"/><path d="M150.75,164.67L150.75,164.85L150.75,164.67"/><path d="M150.99,145.55L150.98,145.74L150.99,145.55"/><path d="M151.24,125.66L151.24,125.87L151.24,125.66"/><path d="M151.48,105.04L151.49,104.95L151.50,105.16L151.48,105.04"/></g></g><g id="Actor_.33"><g style="stroke:#000000;stroke-width:0.123"><path d="M166.29,117.09L166.33,117.18L166.29,118.42L166.26,118.50"/><path d="M178.58,108.23L178.58,108.23"/></g><g style="stroke:#000000;stroke-width:0.123"><path d="M166.33,115.52L177.28,106.47L177.35,106.47L178.55,106.82L178.63,106.87L178.66,106.94L178.61,108.17L178.58,108.23L166.25,118.50"/></g></g><g id="Actor_.34"><g style="stroke:#000000;stroke-width:0.123"><path d="M190.30,121.08L190.33,121.16L190.26,122.33"/><path d="M199.52,111.29L199.52,111.29"/></g><g style="stroke:#000000;stroke-width:0.123"><path d="M190.39,119.48L199.52,111.29L199.60,111.27L200.73,111.60L200.79,111.65L200.81,111.71L200.73,112.85L190.24,122.35"/></g></g><g id="Actor_.35"><g style="stroke:#000000;stroke-width:0.123"><path d="M165.55,144.67L165.60,143.44L165.57,143.35"/><path d="M176.29,132.11L176.29,132.11"/></g><g style="stroke:#000000;stroke-width:0.123"><path d="M165.61,141.68L176.29,132.11L176.37,132.09L177.56,132.47L177.62,132.51L177.65,132.59L177.59,133.78L165.53,144.69"/></g></g><g id="Actor_.36"><g style="stroke:#000000;stroke-width:0.123"><path d="M180.42,80.75L180.42,80.75L180.41,80.76L179.72,81.28L179.71,81.29L179.69,81.30L179.68,81.30L179.63,81.31L179.60,81.30"/><path d="M180.36,80.73L180.37,80.74L180.37,80.74L180.36,80.75L179.79,81.19L179.67,81.27L179.66,81.28L179.63,81.28"/><path d="M180.37,80.75L180.37,80.74"/></g><g style="stroke:#000000;stroke-width:0.123"><path d="M175.65,160.26L175.86,160.33"/><path d="M176.20,135.04L175.45,155.00"/><path d="M176.32,132.09L177.18,109.40"/><path d="M180.40,80.71L177.36,157.09"/><path d="M178.21,82.36L177.29,106.47"/></g></g><g id="Actor_.37"><g style="stroke:#000000;stroke-width:0.123"><path d="M151.75,155.78L151.78,155.88L151.76,157.04L151.73,157.09"/><path d="M151.75,155.73L151.80,155.78L151.83,155.85L151.79,157.12"/><path d="M163.40,143.66L163.40,143.66"/></g><g style="stroke:#000000;stroke-width:0.123"><path d="M151.77,154.09L163.40,143.66L163.48,143.65L164.70,144.05L164.76,144.10L164.79,144.15L164.76,145.36L164.70,145.44L151.79,157.12L151.73,157.13"/></g></g><g id="Actor_.38"><g style="stroke:#000000;stroke-width:0.123"><path d="M204.46,62.50L204.46,62.51L204.45,62.51L203.86,62.96L203.85,62.97L203.83,62.98L203.82,62.98L203.78,62.98L203.75,62.98"/><path d="M204.41,62.48L204.41,62.49L204.41,62.49L204.41,62.50L203.81,62.95L203.80,62.96L203.78,62.96"/><path d="M204.41,62.49L204.41,62.50"/></g><g style="stroke:#000000;stroke-width:0.123"><path d="M199.37,114.09L198.09,135.25"/><path d="M198.75,138.31L198.80,138.33"/><path d="M200.84,89.67L199.54,111.28"/><path d="M204.44,62.47L199.94,135.18"/><path d="M202.39,64.02L201.01,86.89"/></g></g><g id="Actor_.39"><g style="stroke:#000000;stroke-width:0.123"><path d="M178.34,133.11L178.41,131.90L178.37,131.82"/><path d="M188.30,121.34L188.30,121.34"/></g><g style="stroke:#000000;stroke-width:0.123"><path d="M178.44,130.19L188.30,121.34L188.38,121.33L189.54,121.68L189.60,121.72L189.63,121.79L189.56,122.96L178.32,133.12"/></g></g><g id="Actor_.40"><g style="stroke:#000000;stroke-width:0.123"><path d="M150.18,102.05L151.51,102.50L151.59,101.13L150.25,100.68L150.18,102.05"/><path d="M151.60,102.55L151.59,101.03L150.17,100.63"/></g><g style="stroke:#000000;stroke-width:0.123"><path d="M232.71,38.66L233.19,38.29L234.39,38.53L234.35,39.73L151.60,102.55L150.24,102.19L150.13,100.70L152.96,98.53"/><path d="M166.19,88.60L154.97,97.02"/><path d="M179.62,78.51L168.12,87.15"/><path d="M192.82,68.60L181.48,77.11"/><path d="M194.62,67.25L203.70,60.44"/><path d="M214.53,52.31L205.43,59.13"/><path d="M224.66,44.70L216.20,51.05"/><path d="M226.28,43.48L231.12,39.85"/></g></g><g id="Actor_.41"><g style="stroke:#000000;stroke-width:0.123"><path d="M179.40,106.22L179.43,106.30L179.38,107.52L179.35,107.58"/><path d="M190.81,98.03L190.81,98.03"/></g><g style="stroke:#000000;stroke-width:0.123"><path d="M179.46,104.68L189.56,96.34L189.62,96.33L190.81,96.66L190.88,96.71L190.90,96.78L190.82,98.02L179.34,107.59"/></g></g><g id="Actor_.42"><g style="stroke:#000000;stroke-width:0.123"><path d="M213.58,77.85L213.61,77.93L213.53,79.06L213.50,79.12"/><path d="M222.85,71.32L222.85,71.32"/></g><g style="stroke:#000000;stroke-width:0.123"><path d="M213.49,79.12L222.86,71.31L222.88,71.27L222.97,70.16L222.95,70.10L222.87,70.05L221.78,69.78L221.72,69.79L213.69,76.42"/></g></g><g id="Actor_.43"><g style="stroke:#000000;stroke-width:0.123"><path d="M151.42,179.77L151.45,179.81L151.44,180.77L151.44,180.99L151.41,181.01"/><path d="M151.42,179.72L151.50,179.82L151.47,181.05"/><path d="M162.81,167.11L162.81,167.11"/></g><g style="stroke:#000000;stroke-width:0.123"><path d="M151.45,178.01L162.81,167.11L162.89,167.10L164.08,167.52L164.14,167.57L164.16,167.64L164.13,168.80L151.47,181.05L151.41,181.06"/></g></g><g id="Actor_.44"><g style="stroke:#000000;stroke-width:0.123"><path d="M232.76,43.90L231.66,41.80"/></g><g style="stroke:#000000;stroke-width:0.123"><path d="M233.04,40.76L232.76,43.90L232.68,43.88L231.61,41.84"/></g></g><g id="Actor_.45"><g style="stroke:#000000;stroke-width:0.123"><path d="M151.51,183.18L151.48,185.02L151.35,185.09"/><path d="M151.53,185.18L151.61,182.21L151.39,181.95"/><path d="M153.73,182.25L153.80,182.74L153.60,183.01L153.73,182.32L153.57,182.97"/><path d="M156.27,178.98L156.34,179.41L156.02,179.73L156.27,179.30L156.19,179.03L156.01,179.71"/><path d="M162.87,173.32L162.95,173.80L162.75,174.04L162.88,173.38L162.73,174.01"/><path d="M162.80,173.08L163.14,172.76L163.15,172.40L163.02,172.38L162.80,173.08L163.06,172.36"/><path d="M163.92,169.70L163.54,169.56"/><path d="M164.19,169.87L165.02,169.17L164.87,168.91"/><path d="M165.06,169.13L164.97,169.11"/><path d="M169.47,166.71L169.36,166.69L169.61,166.01L169.69,166.34L169.47,166.71"/><path d="M169.61,165.99L169.36,166.69"/><path d="M172.60,163.82L172.68,164.29L172.57,164.51L172.61,163.88L172.46,164.49"/><path d="M175.67,160.56L175.99,160.26L175.99,159.81L175.74,160.02L175.64,160.49L175.89,160.27L175.93,159.81"/><path d="M176.74,157.69L177.53,157.03L177.37,156.79"/><path d="M176.49,157.53L176.06,157.38"/><path d="M177.56,157.01L177.47,156.99"/><path d="M182.30,154.99L182.35,154.33L182.30,154.99"/><path d="M182.17,155.01L182.30,154.35"/><path d="M182.00,153.90L182.09,154.25L181.81,154.61L182.02,154.11L181.91,153.98L181.78,154.58"/><path d="M187.89,148.17L187.97,148.51L187.78,148.85L187.91,148.23L187.79,148.26L187.67,148.83"/><path d="M187.07,145.89L187.09,145.86"/><path d="M187.75,146.01L188.21,146.16"/><path d="M188.46,146.32L189.16,145.74L189.04,145.48"/><path d="M189.13,145.67L189.22,145.69"/><path d="M190.60,146.85L190.63,146.24L190.49,146.87L190.60,146.85"/><path d="M190.46,146.91L190.58,146.27"/><path d="M195.42,140.88L195.21,141.49L195.44,141.23L195.42,140.88"/><path d="M195.36,140.89L195.15,141.53"/><path d="M198.72,138.92L198.80,138.30L198.72,138.92"/><path d="M198.68,138.87L198.80,138.25"/><path d="M198.68,135.39L199.17,135.54"/><path d="M198.06,135.28L198.08,135.26"/><path d="M199.42,135.69L200.10,135.13L199.97,134.90"/><path d="M200.13,135.10L200.04,135.08"/><path d="M201.51,135.33L201.31,135.63L201.25,135.28L201.45,134.96L201.51,135.33"/><path d="M201.45,134.96L201.25,135.59"/><path d="M207.11,130.72L207.19,130.08L207.11,130.72"/><path d="M207.18,129.90L207.33,129.31L207.40,129.51L207.18,129.90"/><path d="M207.14,130.12L207.03,130.70"/><path d="M207.14,130.10L207.13,130.12"/><path d="M207.31,129.25L207.12,129.87"/><path d="M208.38,125.32L208.36,125.34"/><path d="M209.45,125.58L208.94,125.42"/><path d="M209.69,125.73L210.33,125.20L210.20,124.98"/><path d="M210.36,125.17L210.28,125.15"/><path d="M212.97,123.74L212.78,124.31L212.98,123.76L213.03,124.09L212.80,124.37"/><path d="M212.82,124.37L212.79,124.35"/><path d="M215.16,122.27L215.21,122.72L215.16,122.84L215.16,122.33L215.05,122.86"/><path d="M218.06,115.98L218.04,116.00"/><path d="M218.64,118.64L218.79,118.05L218.89,118.33L218.73,118.65L218.82,118.04"/><path d="M219.11,116.22L218.58,116.07"/><path d="M219.34,116.37L219.89,115.83"/><path d="M219.97,115.84L219.82,115.66"/><path d="M221.20,116.37L221.25,116.82L221.20,116.93L221.21,116.43L221.10,116.95"/><path d="M227.65,110.61L227.70,110.05L227.54,110.63L227.65,110.61"/><path d="M227.65,110.09L227.54,110.63"/><path d="M227.18,107.17L227.16,107.19"/><path d="M228.18,110.19L228.20,110.18"/></g><g style="stroke:#000000;stroke-width:0.123"><path d="M219.93,114.16L227.16,107.19L228.42,107.50L228.24,110.10L227.96,110.41L151.53,185.18L151.35,185.18"/><path d="M151.39,182.04L151.51,182.94L151.38,183.30"/><path d="M164.86,169.00L164.89,169.19L164.19,169.87L163.92,169.70"/><path d="M163.40,169.51L163.54,169.56"/><path d="M175.97,157.35L176.06,157.38"/><path d="M177.37,156.88L177.40,157.06L176.74,157.69L176.49,157.53"/><path d="M187.75,146.01L187.08,145.87L177.44,155.18"/><path d="M188.21,146.17L188.54,146.24L189.09,145.71L189.04,145.56"/><path d="M198.68,135.39L198.02,135.31L189.12,143.90"/><path d="M199.96,134.98L200.04,135.06L199.48,135.63L199.17,135.54"/><path d="M208.94,125.42L208.35,125.35L200.06,133.35"/><path d="M210.20,125.06L210.28,125.15L209.75,125.66L209.45,125.58"/><path d="M218.58,116.07L218.07,115.97L210.31,123.46"/><path d="M219.81,115.74L219.89,115.83L219.39,116.31L219.11,116.22"/></g></g><g id="Actor_.46"><g style="stroke:#000000;stroke-width:0.123"><path d="M167.01,90.92L167.01,90.93L167.00,90.94L166.99,90.95L166.25,91.51L166.24,91.52L166.22,91.52L166.20,91.53L166.16,91.53L166.13,91.53"/><path d="M166.94,90.91L166.95,90.92L166.95,90.92L166.95,90.93L166.94,90.94L166.20,91.49L166.19,91.50L166.16,91.51"/></g><g style="stroke:#000000;stroke-width:0.123"><path d="M162.97,172.43L163.08,172.47"/><path d="M163.35,146.67L162.84,167.09"/><path d="M164.02,120.37L163.43,143.64"/><path d="M164.72,92.60L164.09,117.37"/><path d="M166.98,90.89L164.86,169.22"/></g></g><g><g><path style="stroke:#000000;stroke-width:0.210;stroke-dasharray:2.1 2.1" d="M122.52,83.91L195.14,104.63"/></g></g><g id="PMI31.0"><g><path style="stroke:#000000;stroke-width:0.280" d="M164.12,13.75L164.07,20.65"/></g><g><path style="fill:#000000" d="M163.06,20.65L165.06,20.66L164.05,22.66z"/></g><g><path style="fill:#ffffff" d="M155.73,13.76L172.54,13.76L172.54,8.11L155.73,8.11z"/><path style="stroke:#000000;stroke-width:0.280;stroke-opacity:0.98" d="M155.73,13.76L172.54,13.76L172.54,8.11L155.73,8.11z"/><text xml:space="preserve" fill="#000000" stroke-width="0" x="156.43" y="12.17" font-size="3.38" opacity="1.00" font-family="Microsoft Sans Serif">100013S0</text></g></g><g id="PMI32.0"><g><path style="stroke:#000000;stroke-width:0.280" d="M239.84,87.34L232.51,87.32"/></g><g><path style="fill:#000000" d="M232.50,86.32L232.50,88.32L230.50,87.32z"/></g><g><path style="fill:#ffffff" d="M239.83,90.19L256.45,90.19L256.45,84.55L239.83,84.55z"/><path style="stroke:#000000;stroke-width:0.280;stroke-opacity:0.98" d="M239.83,90.19L256.45,90.19L256.45,84.55L239.83,84.55z"/><text xml:space="preserve" fill="#000000" stroke-width="0" x="240.54" y="88.60" font-size="3.38" opacity="1.00" font-family="Microsoft Sans Serif">100013T0</text></g></g><g id="PMI30.0"><g><path style="stroke:#000000;stroke-width:0.280" d="M64.02,103.81L68.54,103.69"/></g><g><path style="fill:#000000" d="M68.58,104.69L68.53,102.70L70.56,103.64z"/></g><g><path style="fill:#ffffff" d="M47.03,106.85L64.03,106.85L64.03,101.21L47.03,101.21z"/><path style="stroke:#000000;stroke-width:0.280;stroke-opacity:0.98" d="M47.03,106.85L64.03,106.85L64.03,101.21L47.03,101.21z"/><text xml:space="preserve" fill="#000000" stroke-width="0" x="47.74" y="105.26" font-size="3.38" opacity="1.00" font-family="Microsoft Sans Serif">100013R0</text></g></g><g/><g id="paperID" visibility="hidden" opacity="0.00" transform="scale(0.000100)"><path style="stroke:#000000;stroke-width:0.500;fill:#e6e6e6;fill-rule:evenodd" d="M-2000.00,-2000.00L2297.00,-2000.00L2297.00,2210.00L-2000.00,2210.00zM0.00,0.00L297.00,0.00L297.00,210.00L0.00,210.00z"/><path style="fill:#000000;fill-opacity:0.118" d="M3.00,210.00L297.00,210.00L297.00,3.00L300.00,3.00L300.00,213.00L3.00,213.00z"/></g><g id="hotspot.0" onmouseover="ShowHotSpot(evt,'0')" onmouseout="HideHotSpot(evt,'0')" onmousemove="ShowToolTip(evt,'0',&quot;3dp343061 (I_3DPart343061.144)&quot;)" opacity="0"><path style="fill:#00ff00;fill-rule:evenodd" d="M64.21,101.08L64.34,103.33L68.40,103.31L68.61,102.70L68.91,102.65L69.99,103.25L70.98,103.26L163.02,45.53L163.35,45.56L163.35,56.24L162.55,89.29L74.23,155.18L73.96,153.48L70.52,103.74L70.19,103.71L68.92,104.42L68.39,104.06L64.34,104.01L64.19,107.03L46.97,106.95L46.97,100.93L63.95,100.82z"/></g><g id="hotspot.1" onmouseover="ShowHotSpot(evt,'1')" onmouseout="HideHotSpot(evt,'1')" onmousemove="ShowToolTip(evt,'1',&quot;3dp343062 (I_3DPart343062.145)&quot;)" opacity="0"><path style="fill:#00ff00;fill-rule:evenodd" d="M172.64,7.99L172.62,13.94L164.59,14.10L164.41,14.98L164.12,20.32L163.82,20.32L163.90,14.10L155.67,13.85L155.67,7.83L172.38,7.73zM163.27,20.69L164.94,20.69L164.14,22.39L163.90,22.34zM68.85,76.26L163.55,22.79L163.88,22.81L163.61,44.07L163.35,45.40L70.80,103.34L70.51,102.73L68.94,79.17z"/></g><g id="hotspot.2" onmouseover="ShowHotSpot(evt,'2')" onmouseout="HideHotSpot(evt,'2')" onmousemove="ShowToolTip(evt,'2',&quot;3dp308160 (I_ĐAI ỐC RN 06100.65)&quot;)" opacity="0"><path style="fill:#00ff00;fill-rule:evenodd" d="M226.58,43.07L230.94,39.73L232.29,38.44L233.86,37.63L235.30,37.63L231.05,86.13L231.05,86.94L232.38,86.33L232.56,86.90L239.53,86.93L239.77,84.26L256.20,84.17L256.71,84.46L256.73,89.85L256.45,90.36L239.77,90.29L239.53,87.62L232.57,87.66L232.34,87.97L231.86,87.93L231.30,87.58L230.97,87.60L228.96,109.95L228.31,110.92L227.26,110.87L219.05,119.08L216.69,121.22L206.88,130.98L204.53,133.12L194.72,142.88L192.36,145.02L182.55,154.78L180.19,156.92L170.12,166.95L167.76,169.09L157.95,178.85L155.60,180.99L150.66,185.86L150.17,184.66L149.34,185.34L149.34,175.78L150.13,104.38L150.32,100.33L152.75,98.53L153.29,97.75L154.54,96.89L156.10,96.07L166.00,88.51L166.71,87.63L167.87,86.85L168.64,86.67L179.49,78.47L180.45,77.31L182.55,76.23L192.60,68.57L193.14,67.78L194.20,66.99L195.26,66.73L203.52,60.45L204.07,59.66L204.78,59.05L205.84,58.80L214.37,52.25L215.36,51.13L216.81,50.46L224.60,44.49L225.92,43.22zM232.66,43.71L231.08,61.81L223.92,67.91L223.92,65.23L225.43,46.38L231.49,41.86L231.63,41.87zM221.82,69.22L221.54,69.73L213.87,76.10L213.87,74.23L215.34,54.01L223.40,47.95zM213.16,56.04L211.77,77.68L211.25,78.22L203.29,84.83L203.29,81.90L204.53,62.25L213.09,55.89zM229.22,84.29L228.41,85.33L222.07,90.92L222.06,87.98L223.55,70.69L230.81,64.61zM202.31,64.23L201.17,84.54L200.82,86.83L191.92,94.36L191.92,90.36L192.98,71.06L202.25,64.09zM221.27,75.81L219.88,92.67L218.36,94.33L212.28,99.64L212.28,96.44L213.52,78.91L221.29,72.55zM190.68,72.96L189.55,96.20L179.76,104.41L179.75,98.29L180.47,80.50L190.61,72.81zM210.43,96.71L209.92,101.75L208.05,103.58L201.71,109.17L201.70,107.29L202.92,87.88L211.39,80.72L211.51,80.75zM228.68,90.36L227.11,107.04L224.60,109.56L220.22,113.66L220.21,110.99L221.53,94.59L221.80,93.54L223.15,92.50L227.88,88.25L228.69,87.62zM177.37,105.17L177.13,106.52L166.53,115.25L166.53,109.66L167.06,90.63L178.18,82.34zM200.73,89.89L199.60,111.01L190.60,119.22L190.59,116.01L191.55,97.40L193.24,95.91L200.66,89.74zM218.12,115.77L210.43,123.18L210.61,118.57L211.75,103.85L212.02,102.53L219.37,95.79L219.66,95.78zM164.15,116.55L163.88,117.34L154.10,125.53L152.66,126.79L152.17,126.89L152.50,103.04L153.45,101.09L164.59,92.63L164.70,92.66zM189.35,99.41L188.23,121.32L178.70,129.79L178.69,124.74L179.38,107.45L189.18,99.24zM209.72,104.96L208.33,125.29L206.38,127.04L200.38,132.97L200.38,128.71L201.44,112.05L207.54,106.52L209.65,104.81zM176.33,131.90L165.74,141.43L165.91,129.15L166.26,119.45L166.53,118.13L177.12,109.31zM198.02,135.07L191.65,141.40L189.28,143.55L189.27,141.67L190.33,122.10L199.34,114.07zM163.97,120.57L163.37,143.54L158.62,147.77L151.99,153.86L151.98,141.14L152.25,130.04L163.90,120.42zM188.03,124.54L187.17,145.38L185.99,146.85L183.63,148.99L177.64,154.92L177.63,151.19L178.43,132.94L181.07,130.56L186.36,125.80L187.97,124.39zM175.52,154.10L175.26,154.89L171.71,158.48L165.21,164.71L165.20,157.80L165.63,144.47L175.52,135.57L176.07,135.23zM162.84,166.81L151.72,177.66L151.72,160.97L151.99,156.75L163.37,146.60z"/></g></g></svg>
