<?xml version="1.0" encoding="UTF-8" standalone="no"?>
<svg xmlns="http://www.w3.org/2000/svg" xmlns:xlink="http://www.w3.org/1999/xlink" width="297.000mm" height="210.000mm" viewBox="0.000000 0.000000 297.000000 210.000000" stroke-linejoin="round" stroke-linecap="round" fill="none" fill-rule="evenodd"><desc>Composer Export</desc><script type="text/ecmascript"><![CDATA[
if(typeof(top) != "undefined")
{
	top.ShowPaper = ShowPaper;
}
function ShowHotSpot(evt,hotspotid)
{
	var svgDocument = evt.target.ownerDocument;
	var strId = "hotspot."+hotspotid;
	var hotspot = svgDocument.getElementById(strId);
	if(hotspot)
		hotspot.setAttribute("opacity",".5");
}
function HideHotSpot(evt,hotspotid)
{
	var svgDocument = evt.target.ownerDocument;
	var strId = "hotspot."+hotspotid;
	var hotspot = svgDocument.getElementById(strId);
	if(hotspot)
		hotspot.setAttribute("opacity","0");

	var toolTip = svgDocument.getElementById('ToolTip');
	if(toolTip)
		toolTip.setAttribute("visibility","hidden");
}
function ShowToolTip(evt,hotspotid,strTooltip)
{
	if(strTooltip=="")
	return;

	// change text
	var svgDocument = evt.target.ownerDocument;
	var tiptext = svgDocument.getElementById('ToolTipText');
	if( !tiptext )
	return;
	tiptext.firstChild.nodeValue = " " + strTooltip + "  " ;

	// show tooltip before, else some refresh issue

	var toolTip = svgDocument.getElementById('ToolTip');
	if(!toolTip)
	return;

	toolTip.setAttribute("visibility","visible");
	toolTip.setAttribute("opacity",".95");

	// move tooltip
	// get viewbox

	var root = svgDocument.documentElement;
	var vbox = (root.getAttribute("viewBox")).split(' ');
	var x0 = parseFloat(vbox[0]);
	var y0 = parseFloat(vbox[1]);
	var vboxW = parseFloat(vbox[2]);
	var vboxH = parseFloat(vbox[3]);

	// get default width of svg

	var strW = root.getAttribute("width");
	var svgW = parseFloat(strW);
	if(strW.indexOf('mm') != -1)
	svgW *= 3.779;

	var strH = root.getAttribute("height");
	var svgH = parseFloat(strH);
	if(strH.indexOf('mm') != -1)
	svgH *= 3.779;  	// 96 dpi  -> 96/25.4 = 3.779

	// update the viewbox / width / height if svg is embedded in html with zoom fit all
	var realx0 = x0;
	var realy0 = y0;
	var realvboxW = vboxW;
	var realvboxH = vboxH;
	var realsvgW = svgW;
	var realsvgH = svgH;

	if ((typeof(top) == "undefined") || (typeof(top.svgctl1) != "undefined")) // embedded in html
	{
		// get window size in pxl

		svgW = window.innerWidth;
		svgH = window.innerHeight;

		// calculate real viewbox

		realsvgW = svgW;
		realsvgH = svgH;
		if((svgW / svgH) > (vboxW / vboxH))
		{
			realvboxW = (vboxH * svgW) / svgH;
			realvboxH = vboxH;
			realx0 = x0 - (realvboxW - vboxW)/2 ;
		}
		else
		{
			realvboxH = (vboxW * svgH) / svgW;
			realvboxW = vboxW;
			realy0 = y0 - (realvboxH - vboxH)/2 ;
		}
	}

	// get user zoom/pan

	var newScale = root.currentScale;
	var translation = root.currentTranslate;

	// transform pxl to user unit

	var xPos = (((evt.clientX+10- translation.x)/newScale) * realvboxW)/realsvgW  + realx0 ;
	var yPos = (((evt.clientY+5- translation.y)/newScale) * realvboxH)/ realsvgH  + realy0 ;
	var scaleForWidth = ( (1 / newScale) * realvboxH) / realsvgH;

	// move tooltip

	toolTip.setAttribute("transform", "translate(" + xPos + "," + yPos + ")" );

	// resize tooltip

	var fontsize = 12;
	tiptext.setAttribute("font-size",fontsize*scaleForWidth);
	tiptext.setAttribute("y", fontsize*scaleForWidth);
	var tipBG = svgDocument.getElementById('ToolTipBG');
	var outline = tiptext.getBBox();
	if(tipBG)
	{
		tipBG.setAttribute("stroke-width", 1*scaleForWidth);
		tipBG.setAttribute("width", Number(outline.width) );
		tipBG.setAttribute("height", Number(outline.height) + fontsize*.5*scaleForWidth );
	}
	var ToolTipShadow = svgDocument.getElementById('ToolTipShadow');
	if(ToolTipShadow)
	{
		ToolTipShadow.setAttribute("width", Number(outline.width) );
		ToolTipShadow.setAttribute("height", Number(outline.height) + fontsize*.5*scaleForWidth );
		ToolTipShadow.setAttribute("x", 3*scaleForWidth);
		ToolTipShadow.setAttribute("y", 3*scaleForWidth);
	}
}
function ShowPaper()
{
  var svgDocument = getDocument();
  var paper = svgDocument.getElementById("paperID");
  if(paper)
  {
    paper.setAttribute("transform","scale(1)");
    paper.setAttribute("opacity","1");
    paper.setAttribute("visibility","visible");
  }
  var svg = svgDocument.getRootElement();
  if(svg)
  {
    svg.setAttribute("width","307.000mm");
    svg.setAttribute("height","220.000mm");
    svg.setAttribute("viewBox","-5.000000 -5.000000 307.000000 220.000000");
  }
}
]]></script><defs/><g><g id="Actor_32.0"><g style="stroke:#000000;stroke-width:0.123"><path d="M126.29,156.48L126.30,156.49"/><path d="M129.82,152.31L129.83,152.32"/><path d="M131.46,153.20L186.33,183.07L186.19,183.14L185.77,184.07L185.31,186.03L185.37,187.96L185.64,188.92"/><path d="M186.13,185.83L186.19,185.23L186.41,185.22L186.45,184.96L188.64,184.87L188.21,185.71L187.85,185.94L187.47,186.00L186.77,185.94L186.77,186.17"/><path d="M188.98,183.19L188.80,183.31L188.69,184.36L186.27,184.46L186.41,183.19L186.33,183.07"/><path d="M186.38,183.10L188.69,184.36"/></g><g style="stroke:#000000;stroke-width:0.123"><path d="M126.38,156.53L126.29,156.48L126.62,155.57L127.38,154.44L128.69,153.11L129.64,152.36L129.80,152.30L131.46,153.20L132.07,152.46L132.29,152.37L188.98,183.19L189.16,184.14L188.99,185.28L188.60,185.96L187.98,186.32L187.47,186.34L186.77,186.17L186.13,185.83L185.82,188.80L185.64,188.92L126.38,156.53"/></g></g><g id="Actor_31.0"><g style="stroke:#000000;stroke-width:0.123"><path d="M199.28,145.04L199.26,145.07L199.08,145.08L198.93,144.91L198.84,144.61L198.83,144.27L198.90,143.98L199.04,143.80L199.21,143.80L199.24,143.83"/><path d="M203.53,147.29L203.50,147.32L203.33,147.32L203.18,147.15L203.09,146.86L203.08,146.52L203.15,146.22L203.30,146.05L203.47,146.05L203.49,146.08"/><path d="M209.88,151.51L208.05,151.58L207.89,151.51L207.84,151.33L207.93,150.48"/><path d="M211.07,140.26L209.23,140.33L208.99,140.40L208.81,140.60L208.72,140.86L207.61,151.34L207.65,151.59L207.80,151.78"/></g><g style="stroke:#000000;stroke-width:0.123"><path d="M195.70,145.04L195.73,145.29L195.88,145.47L207.80,151.78L208.02,151.84L209.85,151.77L209.88,151.51L207.93,150.48L208.95,140.85L209.03,140.66L209.20,140.58L211.04,140.52L211.07,140.26L199.13,134.00L197.30,134.07L197.06,134.14L196.88,134.33L196.79,134.59L195.70,145.04"/><path d="M199.06,144.60L199.16,144.90L199.28,145.04L199.39,144.91L199.47,144.61L199.46,144.27L199.37,143.97L199.24,143.83L199.13,143.97L199.05,144.26L199.06,144.60"/><path d="M203.72,146.68L203.72,146.86L203.64,147.15L203.53,147.29L203.41,147.15L203.32,146.85L203.31,146.51L203.38,146.21L203.49,146.08L203.62,146.22L203.71,146.51L203.72,146.68"/></g></g><g id="Actor_29.0"><g style="stroke:#000000;stroke-width:0.123"><path d="M141.36,38.84L142.80,39.51"/><path d="M142.86,39.54L141.35,38.90"/></g><g style="stroke:#000000;stroke-width:0.123"><path d="M132.79,123.39L133.95,124.01L134.43,124.07"/><path d="M143.73,50.32L137.40,112.67"/><path d="M144.73,40.47L143.93,48.32"/></g></g><g id="Actor_33.0"><g style="stroke:#000000;stroke-width:0.123"><path d="M180.11,85.33L179.98,85.54L179.64,88.87L179.69,89.05"/></g><g style="stroke:#000000;stroke-width:0.123"><path d="M180.22,84.26L155.75,71.77L155.61,71.71L153.77,71.76L153.60,71.83L153.51,72.02L153.17,75.32L153.22,75.50L179.73,89.07"/></g></g><g id="Actor_27.0"><g style="stroke:#000000;stroke-width:0.123"><path d="M129.00,129.98L129.33,129.10L130.08,127.96L131.38,126.63L132.33,125.88L132.54,125.86L131.83,126.75L131.98,126.82"/><path d="M131.40,127.99L132.62,127.87L133.33,127.54"/><path d="M132.60,127.15L131.71,127.18L131.47,127.37"/><path d="M132.54,125.86L132.86,122.68"/><path d="M141.59,36.58L133.78,113.66"/><path d="M141.52,36.55L140.68,35.29L140.07,33.99L139.42,31.92"/></g><g style="stroke:#000000;stroke-width:0.123"><path d="M133.62,127.70L132.94,128.05L131.84,128.15L131.43,128.05L131.47,127.37L131.33,127.37L129.25,129.93L129.01,130.02L129.92,120.90"/><path d="M130.72,113.02L139.15,29.67"/></g></g><g id="Actor_28.0"><g style="stroke:#000000;stroke-width:0.123"><path d="M199.09,63.66L198.96,63.72L198.87,63.91L198.52,67.27L198.57,67.45"/><path d="M198.74,67.39L198.66,67.35L198.64,67.26L198.99,63.90L199.03,63.81L199.12,63.77L200.97,63.72L201.05,63.75L201.07,63.85L200.72,67.21L200.68,67.30L200.59,67.34L198.74,67.39"/><path d="M201.02,63.61L201.14,63.66"/></g><g style="stroke:#000000;stroke-width:0.123"><path d="M201.03,63.61L201.19,63.84L200.75,67.39L200.58,67.47L198.73,67.52L141.36,38.79"/></g></g><g id="Actor_34.0"><g style="stroke:#000000;stroke-width:0.123"><path d="M174.47,124.33L174.44,124.38L174.28,124.38L174.15,124.23L174.06,123.96L174.05,123.66L174.15,122.76L174.21,122.50L174.34,122.34L174.49,122.34L174.53,122.38"/><path d="M176.52,120.05L176.47,120.11L176.38,120.36L175.93,124.71L175.82,125.32L175.61,125.81L175.34,126.14L175.02,126.28"/><path d="M175.86,115.04L176.98,115.63"/><path d="M175.79,111.55L175.76,111.60L175.60,111.60L175.47,111.45L175.38,111.19L175.38,110.88L175.47,109.98L175.54,109.72L175.66,109.56L175.81,109.56L175.85,109.60"/><path d="M175.07,107.66L175.40,107.73L176.55,108.32L176.85,108.59L177.11,109.03L177.29,109.60L177.38,110.24L177.36,110.90L176.91,115.25L176.94,115.50L176.99,115.55"/></g><g style="stroke:#000000;stroke-width:0.123"><path d="M173.70,118.17L173.46,118.24L173.28,118.44L173.19,118.69L172.74,123.03L172.73,123.69L172.81,124.34L172.99,124.91L173.24,125.35L173.55,125.61L174.70,126.22L175.02,126.28L175.25,126.27L175.57,126.13L175.84,125.80L175.95,125.53"/><path d="M177.57,109.94L177.52,109.59L177.34,109.02L177.08,108.58L176.78,108.32L175.63,107.72L175.30,107.65L175.07,107.66L174.76,107.80L174.48,108.14L174.28,108.63L174.17,109.24L173.72,113.58L173.75,113.84L173.90,114.02L175.86,115.04"/><path d="M174.30,123.47L174.29,123.96L174.38,124.22L174.47,124.33L174.56,124.23L174.63,123.96L174.72,123.06L174.71,122.76L174.63,122.49L174.53,122.38L174.44,122.49L174.38,122.75L174.30,123.47"/><path d="M175.61,110.87L175.61,111.18L175.70,111.44L175.79,111.55L175.88,111.45L175.95,111.18L176.04,110.28L176.03,109.98L175.95,109.71L175.85,109.60L175.77,109.71L175.70,109.98L175.61,110.87"/></g></g><g id="Actor_31.1"><g style="stroke:#000000;stroke-width:0.123"><path d="M187.43,64.37L187.59,64.37L187.62,64.40"/><path d="M187.51,65.65L187.63,65.65L187.66,65.61"/><path d="M191.77,67.79L191.89,67.79L191.92,67.75"/><path d="M191.69,66.51L191.85,66.50L191.88,66.54"/><path d="M195.47,77.96L195.43,77.91L195.39,77.65L195.46,77.03L196.49,67.07L196.58,66.81L196.63,66.75"/></g><g style="stroke:#000000;stroke-width:0.123"><path d="M184.90,60.60L184.83,60.62L184.63,60.82L184.54,61.08L183.45,71.62L183.49,71.88L183.64,72.06L195.46,78.03"/><path d="M187.65,65.61L187.77,65.47L187.85,65.17L187.84,64.83L187.74,64.53L187.62,64.40L187.51,64.55"/><path d="M191.91,67.75L192.03,67.61L192.11,67.31L192.10,66.97L192.00,66.67L191.88,66.54L191.77,66.69"/></g></g><g id="Actor_26.0"><g style="stroke:#000000;stroke-width:0.123"><path d="M190.91,68.21L191.01,67.85L190.83,68.08L190.60,68.09L190.58,68.06"/><path d="M190.99,67.84L190.81,68.06L190.57,68.06"/><path d="M190.60,66.29L190.78,66.41L191.09,66.53"/><path d="M190.78,66.41L190.56,66.42L190.54,66.45L190.50,66.45"/><path d="M190.53,66.45L190.78,66.45L190.81,66.48"/></g><g style="stroke:#000000;stroke-width:0.123"><path d="M190.63,66.29L190.60,66.29L190.50,66.45L190.31,66.45L189.97,66.57L189.81,66.76L189.66,66.98L189.61,67.16L189.61,67.38L189.67,67.57L189.83,67.77L189.99,67.96L190.34,68.06L190.57,68.06L190.60,68.09L190.91,68.21L191.53,68.19L191.76,67.83"/><path d="M191.70,66.52L191.53,66.39L191.22,66.27"/><path d="M191.86,67.48L191.85,67.01"/><path d="M191.85,66.99L191.82,66.91"/></g></g><g id="Actor_25.0"><g style="stroke:#000000;stroke-width:0.123"><path d="M220.97,145.58L221.13,145.66"/><path d="M221.03,146.63L221.18,146.51"/><path d="M220.79,145.75L220.92,145.65L221.06,145.72"/><path d="M220.83,146.49L220.97,146.57L221.10,146.47"/><path d="M223.06,144.86L223.28,145.01L223.46,145.33L223.57,145.75L223.59,146.21L223.52,146.65L223.38,146.99L223.17,147.18L222.94,147.20"/><path d="M222.50,146.58L223.03,146.56L223.18,146.44L223.26,146.17L223.24,145.84L223.13,145.59L222.97,145.50L222.46,145.52"/><path d="M223.50,146.96L223.64,146.64L223.71,146.21L223.68,145.75L223.57,145.33L223.42,145.06"/><path d="M224.21,145.39L224.33,145.74L224.34,146.22L224.33,146.28"/><path d="M224.20,145.38L224.20,145.38"/></g><g style="stroke:#000000;stroke-width:0.123"><path d="M222.50,146.58L221.03,146.63L220.87,146.55L220.83,146.49L220.73,146.27L220.72,145.99L220.79,145.75L220.82,145.70L220.97,145.58L222.46,145.52L222.47,145.41L222.62,145.07L222.83,144.88L223.17,144.85L223.39,145.01L223.42,145.06L223.96,145.04L224.20,145.38"/><path d="M222.54,146.73L222.72,147.04L222.94,147.20L223.29,147.18L223.49,146.98L223.50,146.96L223.76,146.96L224.06,146.82L224.23,146.70L224.29,146.49L224.34,146.22L224.35,145.92L224.33,145.74L224.30,145.63L224.20,145.38"/></g></g><g id="Actor_25.1"><g style="stroke:#000000;stroke-width:0.123"><path d="M191.92,67.75L191.78,67.75"/><path d="M192.01,66.69L191.99,66.68L191.76,66.69"/><path d="M192.10,67.35L191.86,67.36"/></g></g><g id="Actor_30.0"><g style="stroke:#000000;stroke-width:0.123"><path d="M146.83,119.04L146.78,119.09L146.70,119.35L146.60,120.30L145.64,129.71L145.68,129.96L145.71,130.01"/></g><g style="stroke:#000000;stroke-width:0.123"><path d="M134.15,123.35L134.13,123.57L134.16,123.82L134.31,124.00L145.71,130.08"/><path d="M146.97,117.68L137.50,112.67L135.68,112.73L135.45,112.81L135.26,113.00L135.17,113.25L135.10,114.00"/></g></g><g id="Actor_25.2"><g style="stroke:#000000;stroke-width:0.123"><path d="M187.52,65.61L187.66,65.61"/><path d="M187.75,64.56L187.73,64.55L187.50,64.55"/><path d="M187.84,65.21L187.60,65.22"/></g></g><g id="Actor_26.1"><g style="stroke:#000000;stroke-width:0.123"><path d="M186.65,66.07L186.75,65.71L186.57,65.94L186.35,65.95L186.32,65.92"/><path d="M186.73,65.70L186.55,65.92L186.31,65.92"/><path d="M186.34,64.15L186.52,64.27L186.83,64.39"/><path d="M186.24,64.31L186.28,64.31L186.30,64.28L186.52,64.27"/><path d="M186.28,64.31L186.52,64.31L186.58,64.37"/></g><g style="stroke:#000000;stroke-width:0.123"><path d="M187.50,65.69L187.27,66.05L186.65,66.07L186.35,65.95L186.31,65.92L186.08,65.92L185.73,65.82L185.57,65.63L185.41,65.43L185.35,65.24L185.35,65.03L185.40,64.84L185.55,64.62L185.71,64.43L186.05,64.32L186.24,64.31L186.34,64.15L186.41,64.15"/><path d="M187.44,64.38L187.27,64.25L186.96,64.13"/><path d="M187.60,65.34L187.59,64.87"/><path d="M187.59,64.85L187.56,64.77"/></g></g><g id="Actor_26.2"><g style="stroke:#000000;stroke-width:0.123"><path d="M178.51,144.58L178.20,144.45L177.98,144.45L177.96,144.48L177.93,144.48"/><path d="M177.96,144.48L178.21,144.49L178.28,144.57"/><path d="M178.34,146.24L178.44,145.89L178.25,146.11L178.03,146.12L178.02,146.10"/><path d="M178.42,145.88L178.24,146.09L178.01,146.10"/><path d="M178.20,144.45L178.03,144.32"/></g><g style="stroke:#000000;stroke-width:0.123"><path d="M178.03,144.32L177.93,144.48L177.74,144.49L177.40,144.61L177.24,144.79L177.09,145.02L177.04,145.20L177.04,145.42L177.10,145.60L177.42,145.99L177.77,146.09L178.01,146.10L178.03,146.12L178.34,146.24L178.95,146.22L179.18,145.86"/><path d="M178.65,144.30L178.95,144.43L179.13,144.56"/><path d="M179.24,144.95L179.27,145.03"/><path d="M179.27,145.05L179.28,145.52"/></g></g><g id="Actor_.0"><g style="stroke:#000000;stroke-width:0.123"><path d="M69.87,70.27L69.86,70.21"/><path d="M74.24,66.62L74.22,66.65L74.14,66.67L74.01,66.68L73.27,66.70L72.89,66.69L72.22,66.64L71.29,66.51L70.56,66.33L70.21,66.21L70.00,66.11L69.85,66.02L69.74,65.92L69.70,65.82"/><path d="M76.43,73.54L76.59,73.53L76.73,73.35L76.81,73.05L76.93,71.76L77.26,68.47L77.25,68.16L77.16,67.84L77.01,67.66L75.89,67.07L75.65,66.99L75.32,66.94L74.98,66.92L74.54,66.94L74.39,66.91L74.30,66.86L74.21,66.78L74.15,66.80L74.00,66.81L73.26,66.83L72.70,66.81L71.93,66.74L71.40,66.66L70.90,66.55L70.23,66.35"/><path d="M70.23,66.02L70.33,66.09L70.32,66.06"/><path d="M70.26,66.36L70.26,66.36"/><path d="M70.34,66.10L70.43,66.16L70.75,66.29L71.13,66.40L71.07,66.39"/><path d="M74.21,66.60L73.41,66.63L72.83,66.62L72.23,66.58L71.62,66.50L71.13,66.40"/><path d="M73.38,66.63L73.48,66.62"/><path d="M74.22,66.76L74.21,66.78"/><path d="M75.13,70.86L75.15,70.87"/><path d="M76.46,69.84L76.31,69.85L76.19,70.01L76.12,70.28L76.13,70.60L76.21,70.87L76.34,71.02L76.46,71.02"/></g><g style="stroke:#000000;stroke-width:0.123"><path d="M69.95,65.59L69.85,65.63L69.74,65.72L69.70,65.82L69.69,65.97L69.72,66.03L69.82,66.14L69.95,66.22L70.23,66.35L70.05,68.19L70.00,68.29L69.83,68.41L69.73,68.54L69.65,68.67L69.56,69.66L69.66,69.95L69.84,70.16L69.86,70.21L69.67,72.09L69.68,72.24L69.89,72.40L70.27,72.55L70.79,72.68L71.41,72.78L72.05,72.84L72.65,72.85L74.41,72.80L74.74,72.82L75.08,72.87L75.31,72.95L76.43,73.54L76.71,73.53L76.85,73.35L76.92,73.04L77.37,68.47L77.36,68.12L77.27,67.82L77.12,67.65L76.01,67.07L75.81,67.00L75.53,66.94L75.22,66.90L74.48,66.90L74.36,66.88L74.22,66.76L74.24,66.62L74.17,66.59L73.48,66.62"/><path d="M76.33,70.86L76.46,71.02L76.49,71.02L76.62,70.85L76.68,70.58L76.68,70.27L76.59,70.00L76.46,69.84L76.43,69.85L76.30,70.01L76.24,70.28L76.25,70.59L76.33,70.86"/></g></g><g id="Actor_.1"><g style="stroke:#000000;stroke-width:0.123"><path d="M71.27,54.94L71.78,55.19"/><path d="M71.82,55.21L71.82,55.21"/><path d="M75.50,54.77L73.63,54.03L73.47,54.03L73.29,54.06L73.23,54.10L73.19,54.18L73.01,55.89"/><path d="M75.60,57.75L75.59,57.75"/><path d="M75.88,55.79L75.76,55.77L75.68,55.71L75.62,55.60L75.60,55.48"/><path d="M75.60,55.47L75.62,54.91L75.61,54.85L75.58,54.81"/><path d="M75.78,55.78L75.76,55.77"/><path d="M77.97,57.96L77.86,57.80L77.74,57.71L77.61,57.67L76.10,57.72"/><path d="M77.86,57.81L77.73,57.71"/><path d="M77.73,57.70L77.77,57.73"/><path d="M78.84,57.76L78.99,57.93L79.17,57.93L79.31,57.75L79.39,57.43L79.38,57.06L79.36,56.98L79.29,56.75L79.13,56.57L78.96,56.57L78.81,56.76L78.73,57.08L78.74,57.45L78.84,57.76"/></g><g style="stroke:#000000;stroke-width:0.123"><path d="M71.27,54.94L71.82,55.21"/><path d="M71.75,53.95L71.41,54.02L71.33,54.08L71.31,54.14L71.24,54.83L71.25,54.90L71.27,54.94"/><path d="M71.82,55.21L72.19,55.24"/><path d="M76.20,57.77L78.12,58.76L79.18,58.87L79.77,58.85L80.03,58.78L80.11,58.74L80.33,58.50L80.50,58.11L80.60,57.61L80.60,57.08L80.52,56.55L80.37,56.11L80.15,55.80L79.15,54.84L74.66,52.51L74.54,52.46L73.49,52.36L72.90,52.37L72.64,52.44L72.57,52.48L72.34,52.72L72.32,52.78"/><path d="M73.01,55.89L72.82,57.85L72.85,57.95L72.89,57.99L74.30,58.72L75.11,58.70L75.24,58.65L75.34,58.07L75.39,57.94L75.48,57.83L75.59,57.75L75.72,57.73L76.10,57.72"/></g></g><g id="Actor_.2"><g style="stroke:#000000;stroke-width:0.123"/><g style="stroke:#000000;stroke-width:0.123"><path d="M65.49,154.04L63.76,171.67L63.26,171.88L61.72,171.86L60.57,171.59L60.19,171.22L61.92,153.57"/><path d="M69.88,72.39L62.50,147.65"/><path d="M73.46,72.83L66.06,148.17"/></g></g><g id="Actor_.3"><g style="stroke:#000000;stroke-width:0.123"><path d="M55.74,120.43L55.81,120.58L56.08,120.81L56.36,121.00L56.65,121.13L56.94,121.21L57.03,121.22L57.50,121.22L59.15,121.17L59.27,121.13L59.35,121.03L59.38,120.89L59.67,120.88"/><path d="M57.75,121.11L58.12,121.10L58.26,121.08L58.28,121.06L58.22,120.99L58.03,120.88L57.91,120.83L57.68,120.76L57.50,120.72L57.23,120.71L57.07,120.73L56.93,120.78L56.90,120.82L56.97,120.92L57.20,121.04"/><path d="M59.38,120.89L59.45,120.83L59.49,120.69L59.73,118.23L59.91,118.29L60.02,118.32"/></g><g style="stroke:#000000;stroke-width:0.123"><path d="M55.68,120.81L55.73,120.87L56.03,121.13L56.33,121.32L56.64,121.46L56.95,121.54L57.35,121.56L59.26,121.49L59.48,121.37L59.62,121.15L59.67,120.88L59.75,120.82L59.79,120.68L60.02,118.32L60.42,118.37L60.54,118.35L60.80,118.22L60.99,117.99L61.08,117.70L61.34,115.05L61.36,114.54L61.34,114.03L61.27,113.53L61.16,113.07L61.01,112.65L60.82,112.31L60.61,112.04L60.37,111.86L60.13,111.78L59.42,111.82L59.23,111.87L59.00,111.98L58.65,112.32L58.47,112.60L58.33,112.95L58.19,113.45L58.13,113.84L57.81,117.12L57.83,117.19L57.87,117.21L57.63,119.67L57.64,119.85L57.70,119.97L57.59,120.14L57.41,120.21L55.98,120.27L55.77,120.37L55.74,120.43L55.68,120.81"/><path d="M57.65,121.08L57.75,121.11L57.51,121.10L57.20,121.04L57.47,121.05L57.65,121.08"/></g></g><g id="Actor_.4"><g style="stroke:#000000;stroke-width:0.123"><path d="M63.17,128.13L63.31,127.95L63.38,127.65L63.88,122.52L63.99,122.15L64.21,121.82L64.52,121.60L64.86,121.52L65.06,121.55"/><path d="M63.68,127.63L64.18,122.51L64.29,122.18L64.53,121.94L64.83,121.84L65.03,121.89"/></g><g style="stroke:#000000;stroke-width:0.123"><path d="M65.06,121.51L63.21,120.49L63.06,120.44L62.87,120.43L62.71,120.45L62.54,120.49L62.37,120.55L62.20,120.63L62.04,120.73L61.90,120.84L61.70,121.04L61.55,121.25L60.70,122.81L60.57,123.13L60.51,123.51L60.30,125.55L60.30,125.97L60.38,126.37L60.52,126.68L60.70,126.86L63.00,128.13L63.46,128.12L63.60,127.94L63.68,127.63"/><path d="M64.42,128.04L63.71,127.65"/></g></g><g id="Actor_25.3"><g style="stroke:#000000;stroke-width:0.123"><path d="M179.21,145.77L179.47,145.76L179.62,145.65L179.70,145.37L179.68,145.05L179.57,144.79L179.41,144.71L179.17,144.72"/><path d="M179.50,144.06L179.72,144.22L179.90,144.53L180.00,144.95L180.03,145.42L179.96,145.85L179.81,146.20L179.61,146.39L179.38,146.41"/><path d="M179.94,146.17L180.08,145.85L180.14,145.42L180.12,144.95L180.01,144.53L179.86,144.27"/><path d="M179.70,145.37L179.28,145.39"/><path d="M180.74,145.63L180.79,145.42L180.77,144.95L180.66,144.59"/><path d="M180.65,144.58L180.65,144.58"/></g><g style="stroke:#000000;stroke-width:0.123"><path d="M180.65,144.58L180.41,144.25L179.86,144.27L179.83,144.21L179.61,144.06L179.50,144.06L179.27,144.08L179.07,144.28L178.99,144.46"/><path d="M179.06,146.06L179.16,146.25L179.38,146.41L179.50,146.41L179.73,146.39L179.93,146.19L179.94,146.17L180.21,146.16L180.51,146.03L180.67,145.91L180.73,145.69L180.79,145.42L180.79,145.13L180.77,144.95L180.75,144.84L180.65,144.58"/></g></g><g id="Actor_25.4"><g style="stroke:#000000;stroke-width:0.123"><path d="M149.48,50.03L149.71,50.01L149.91,49.81L150.05,49.46L150.11,49.03L150.09,48.57L149.98,48.15L149.81,47.85L149.59,47.70"/><path d="M149.27,48.35L149.51,48.34L149.67,48.42L149.77,48.67L149.79,48.99L149.71,49.27L149.57,49.39L149.30,49.40"/><path d="M149.96,47.90L150.10,48.15L150.20,48.56L150.23,49.02L150.16,49.46L150.02,49.81"/><path d="M149.79,48.99L149.55,49.00"/><path d="M150.87,49.05L150.85,48.57L150.74,48.23"/><path d="M150.61,48.58L150.85,48.57"/><path d="M150.73,48.22L150.73,48.22"/></g><g style="stroke:#000000;stroke-width:0.123"><path d="M149.15,49.68L149.27,49.88L149.48,50.03L149.60,50.03L149.82,50.00L150.02,49.81L150.30,49.80L150.59,49.66L150.76,49.53L150.82,49.32L150.87,49.05L150.88,48.75L150.85,48.57L150.83,48.47L150.73,48.22"/><path d="M149.10,48.09L149.17,47.93L149.37,47.73L149.59,47.70L149.71,47.70L149.92,47.85L149.96,47.90L150.50,47.89L150.73,48.22"/></g></g><g id="Actor_.5"><g style="stroke:#000000;stroke-width:0.123"><path d="M124.37,120.13L124.37,120.10L124.30,120.15L124.11,120.20L123.69,120.21L123.29,120.15L123.16,120.11L123.09,120.06"/><path d="M123.15,120.14L123.37,120.20L123.80,120.24L124.10,120.23L124.29,120.19L124.13,120.24L123.95,120.27L123.57,120.26L123.42,120.24"/><path d="M124.07,120.07L123.81,120.09L123.59,120.07L123.40,120.04L123.25,120.00L123.19,119.96"/><path d="M124.23,120.07L124.06,120.12L123.87,120.14L123.65,120.13L123.31,120.07L123.19,120.02L123.19,119.98"/><path d="M123.12,110.64L123.13,110.76L123.30,110.88L123.59,111.00L123.99,111.10L124.46,111.18L124.94,111.22L125.40,111.23L125.79,111.19L126.06,111.13L126.20,111.03"/><path d="M123.89,120.05L123.51,120.03L123.24,119.97"/><path d="M124.27,120.19L124.27,120.22L124.20,120.27L124.12,120.29"/><path d="M124.20,120.27L124.24,120.20"/><path d="M124.34,111.60L124.37,111.29L123.98,111.23L123.74,111.16"/><path d="M124.37,120.10L124.37,120.07"/><path d="M124.29,120.19L124.30,120.18"/><path d="M125.50,111.34L124.93,111.35L124.37,111.29"/></g><g style="stroke:#000000;stroke-width:0.123"><path d="M123.09,120.06L123.08,120.03L123.19,119.98L123.19,119.96"/><path d="M123.09,120.07L123.08,120.09L123.17,120.15"/><path d="M125.48,111.58L125.50,111.34L125.77,111.32L126.05,111.25L126.19,111.15L126.20,111.03L126.19,110.91L125.64,110.51L125.11,110.31L124.72,110.24L124.33,110.23L123.77,110.32L123.26,110.54L123.12,110.64L123.11,110.76L123.12,110.88L123.28,111.00L123.58,111.12L123.74,111.16L123.71,111.41"/><path d="M124.30,120.18L124.37,120.13"/><path d="M124.37,120.10L124.37,120.07"/></g></g><g id="Actor_26.3"><g style="stroke:#000000;stroke-width:0.123"><path d="M48.18,153.33L48.20,153.35L48.41,153.35L48.59,153.12L48.66,153.01"/><path d="M47.57,153.23L47.57,153.22"/><path d="M48.18,153.33L48.40,153.32L48.57,153.11L48.60,153.01"/><path d="M48.10,151.69L48.13,151.69L48.15,151.66L48.36,151.66L48.20,151.53"/><path d="M48.36,151.66L48.67,151.79"/><path d="M48.13,151.69L48.37,151.70L48.45,151.79"/><path d="M48.62,153.01L48.50,153.48"/><path d="M49.36,153.09L49.36,153.09"/><path d="M48.67,151.96L48.67,152.28"/></g><g style="stroke:#000000;stroke-width:0.123"><path d="M47.57,153.22L47.24,152.83L47.18,152.64L47.18,152.42L47.23,152.23L47.39,152.00L47.54,151.82L47.90,151.70L48.10,151.69L48.20,151.53L48.45,151.52"/><path d="M49.36,153.09L49.13,153.45L48.50,153.48L48.20,153.35L48.18,153.33L48.13,153.33L47.93,153.32L47.57,153.23"/><path d="M49.38,153.01L49.36,153.09"/><path d="M49.45,152.74L49.46,152.71L49.45,152.27"/><path d="M48.83,151.50L49.14,151.63L49.30,151.76"/></g></g><g id="Actor_.6"><g style="stroke:#000000;stroke-width:0.123"><path d="M74.01,66.46L74.14,66.56L74.15,66.59"/><path d="M76.55,73.53L76.71,73.53L76.85,73.35L76.92,73.04L77.37,68.47L77.36,68.12L77.27,67.82L77.12,67.65L75.69,66.90L75.55,66.86L75.35,66.82L74.56,66.82L74.37,66.78L74.23,66.74"/><path d="M76.46,69.84L76.43,69.85L76.30,70.01L76.24,70.28L76.25,70.59L76.28,70.70L76.33,70.86L76.46,71.02"/></g><g style="stroke:#000000;stroke-width:0.123"><path d="M74.16,66.40L74.20,66.42L74.41,66.57L74.45,66.71L74.46,66.73L74.54,66.75L74.64,66.76L75.02,66.75L75.36,66.76L75.69,66.82L75.93,66.90L77.36,67.65L77.51,67.82L77.60,68.12L77.61,68.46L77.49,69.65L77.16,73.04L77.09,73.34L76.95,73.52"/><path d="M76.88,73.52L76.55,73.53"/><path d="M76.57,69.97L76.54,70.00L76.47,70.27L76.48,70.59L76.57,70.86L76.59,70.89"/></g></g><g id="Actor_.7"><g style="stroke:#000000;stroke-width:0.123"><path d="M46.83,114.62L45.89,114.10"/><path d="M45.98,114.16L45.95,114.12"/><path d="M51.56,117.23L51.36,117.14L50.88,117.15L50.67,117.26L50.56,117.49L50.24,120.72L50.31,120.94"/><path d="M51.04,121.00L50.68,120.85L50.49,120.76L50.48,120.71L50.79,117.48L50.86,117.41L51.33,117.40L51.46,117.45"/><path d="M51.40,121.12L51.40,121.12"/><path d="M51.38,117.42L51.62,117.49"/><path d="M51.75,117.63L51.72,117.71"/><path d="M51.97,117.54L51.98,117.54"/><path d="M56.26,122.61L56.27,122.66"/><path d="M56.27,122.67L56.28,122.67"/><path d="M56.72,118.11L56.69,118.19"/><path d="M57.34,118.08L57.78,118.21"/><path d="M56.95,118.02L56.96,118.02"/><path d="M57.56,118.13L57.59,118.14L57.45,118.11"/><path d="M61.60,120.79L60.80,121.56L60.73,121.71L60.59,123.08"/><path d="M61.50,120.49L61.67,120.64L61.65,120.78"/><path d="M61.43,120.56L61.60,120.71L61.58,120.81"/></g><g style="stroke:#000000;stroke-width:0.123"><path d="M51.40,121.12L51.04,121.00L50.51,121.03L50.31,120.94L44.93,118.01L44.68,117.84L44.54,117.61L44.53,117.39L44.88,114.05L45.05,113.86L45.53,113.54L45.90,113.46L46.41,113.54L46.62,113.67L46.72,113.80L46.79,114.05L46.83,114.62L51.56,117.23L51.62,117.49L51.97,117.54"/><path d="M51.40,121.12L56.27,122.67"/><path d="M51.98,117.54L56.95,118.02"/><path d="M56.28,122.67L57.00,122.94L60.38,124.80"/><path d="M56.96,118.02L57.78,118.20"/><path d="M57.56,118.13L57.59,118.14"/><path d="M57.28,118.07L57.34,118.08"/><path d="M62.20,120.63L62.01,120.49L59.92,119.35"/><path d="M60.31,125.99L60.28,126.24L60.36,126.41L60.42,126.45"/><path d="M64.08,123.52L64.19,124.00L64.19,124.41L63.94,127.00L63.86,127.37L63.72,127.65L63.66,127.69"/></g></g><g id="Actor_.8"><g style="stroke:#000000;stroke-width:0.123"><path d="M62.31,124.86L62.30,124.84"/></g><g style="stroke:#000000;stroke-width:0.123"><path d="M61.57,126.12L61.39,125.97L61.30,125.85L61.19,125.60L61.14,125.29L61.16,124.96L61.25,124.70L61.33,124.58L61.49,124.40L61.66,124.34L61.77,124.31L62.00,124.33L62.18,124.53"/><path d="M62.20,125.99L62.02,126.16L61.82,126.18L61.57,126.12"/></g></g><g id="Actor_26.4"><g style="stroke:#000000;stroke-width:0.123"><path d="M97.84,45.08L97.86,45.11L98.07,45.10L98.25,44.87L98.16,45.22"/><path d="M98.23,44.86L98.06,45.07L97.82,45.08"/><path d="M97.86,43.33L98.03,43.45L97.82,43.46L97.80,43.48L97.76,43.48"/><path d="M98.03,43.48L97.79,43.48"/><path d="M98.03,43.45L98.33,43.56"/></g><g style="stroke:#000000;stroke-width:0.123"><path d="M99.00,44.85L98.78,45.21L98.16,45.22L97.86,45.11L97.82,45.08L97.60,45.08L97.25,44.98L96.93,44.59L96.87,44.40L96.87,44.19L96.92,44.01L97.08,43.79L97.22,43.60L97.57,43.49L97.76,43.48L97.86,43.33L97.95,43.33"/><path d="M98.48,43.31L98.78,43.43L98.94,43.55"/><path d="M99.09,44.50L99.10,44.47L99.09,44.04"/></g></g><g id="Actor_25.5"><g style="stroke:#000000;stroke-width:0.123"><path d="M143.84,49.98L144.11,49.98L144.26,49.86L144.33,49.58L143.92,49.59"/><path d="M144.14,48.29L144.35,48.44L144.53,48.74L144.63,49.16L144.65,49.62L144.59,50.05L144.45,50.39L144.25,50.59L144.03,50.62"/><path d="M144.33,49.58L144.32,49.26L144.21,49.01L144.05,48.93L143.82,48.94"/><path d="M144.56,50.39L144.70,50.05L144.77,49.61L144.75,49.15L144.64,48.74L144.50,48.50"/><path d="M145.28,48.82L145.40,49.16L145.41,49.64L145.34,49.94"/><path d="M145.28,48.81L145.28,48.81"/><path d="M145.40,49.16L145.34,49.16"/></g><g style="stroke:#000000;stroke-width:0.123"><path d="M143.69,50.26L143.81,50.47L144.03,50.62L144.14,50.62L144.37,50.59L144.56,50.39L144.84,50.39L145.14,50.25L145.30,50.11L145.36,49.91L145.41,49.64L145.42,49.34L145.40,49.16L145.37,49.06L145.28,48.81"/><path d="M143.65,48.68L143.72,48.52L143.92,48.32L144.14,48.29L144.25,48.29L144.47,48.44L144.50,48.50L145.04,48.48L145.28,48.81"/></g></g><g id="Actor_.9"><g style="stroke:#000000;stroke-width:0.123"><path d="M72.85,66.48L72.97,66.48L72.46,66.45L71.81,66.38L71.21,66.27L70.57,66.08"/><path d="M70.68,64.96L70.69,64.85"/><path d="M70.67,64.89L70.61,64.95"/><path d="M71.55,55.96L71.61,55.70"/><path d="M72.14,55.46L72.14,55.45"/><path d="M72.08,55.49L72.08,55.49"/><path d="M73.10,54.98L72.25,54.56"/><path d="M74.01,66.42L73.67,66.47L72.97,66.48"/><path d="M74.14,65.22L74.15,65.35"/><path d="M74.18,65.27L74.15,65.24"/><path d="M75.30,53.53L75.23,53.48"/><path d="M76.34,55.21L76.43,55.17"/></g><g style="stroke:#000000;stroke-width:0.123"><path d="M75.60,55.32L76.26,55.26L76.41,55.21L76.47,55.09L76.52,54.38L76.44,54.17L76.26,54.05L75.30,53.53L75.31,53.40L75.28,53.30L75.23,53.21L75.09,53.11L74.66,52.94L74.19,52.83L73.64,52.76L73.09,52.72L72.59,52.73L72.22,52.79L71.91,52.92L71.86,53.00L71.84,53.14L71.72,54.18L71.73,54.26L71.81,54.33L72.25,54.56L72.17,55.37L72.14,55.46L72.08,55.49L71.76,55.56L71.71,55.59L71.62,55.69L71.58,55.77L71.55,55.96L70.69,64.85L70.67,64.89L70.18,65.10L69.97,65.27L69.95,65.33L69.93,65.52L70.00,65.78L70.23,65.94L70.56,66.08L70.56,66.22"/><path d="M74.78,58.71L74.14,65.17L74.15,65.24L74.71,65.65L74.76,65.88L74.74,66.06L74.70,66.15L74.54,66.29L74.21,66.39L74.01,66.42L74.00,66.60"/><path d="M76.20,57.71L76.13,58.56L76.08,58.64L75.93,58.70L75.80,58.70L75.26,58.58"/></g></g><g id="Actor_.10"><g style="stroke:#000000;stroke-width:0.123"><path d="M59.17,126.37L59.16,126.35L59.01,126.36L58.89,126.51L58.82,126.78L58.83,127.10L58.91,127.36L59.04,127.52L59.19,127.52L59.21,127.50"/><path d="M58.98,124.70L58.93,124.58L59.18,125.16L59.16,125.12"/><path d="M59.13,125.09L58.70,124.16L58.75,124.26"/><path d="M59.05,124.23L58.89,124.12"/><path d="M58.70,124.16L58.62,123.99L58.63,123.91L58.67,123.86"/><path d="M59.14,125.11L59.14,125.11"/><path d="M59.13,125.08L59.13,125.08"/><path d="M59.12,125.07L59.13,125.08"/><path d="M60.16,129.13L60.30,128.96L60.37,128.66L60.56,126.72"/><path d="M60.83,118.19L60.67,119.77"/></g><g style="stroke:#000000;stroke-width:0.123"><path d="M60.72,126.88L60.55,128.65L60.47,128.95L60.34,129.13L60.00,129.13L57.89,127.97L57.74,127.80L57.65,127.50L57.64,127.16L57.73,126.31L57.79,126.13L58.14,125.78L58.16,125.72L57.88,124.89L57.98,123.71L58.03,123.54L58.07,123.53"/><path d="M59.21,127.50L59.09,127.36L59.01,127.09L59.00,126.78L59.07,126.51L59.17,126.37L59.29,126.51L59.37,126.78L59.38,127.09L59.31,127.36L59.21,127.50"/><path d="M61.04,117.84L60.84,119.86"/><path d="M61.36,114.51L61.39,113.82L61.32,113.27L61.17,112.79L60.96,112.42L60.78,112.25"/></g></g><g id="Actor_26.5"><g style="stroke:#000000;stroke-width:0.123"><path d="M142.99,50.43L143.08,50.08L142.90,50.31L142.69,50.31L142.66,50.29"/><path d="M143.06,50.07L142.89,50.28L142.65,50.29"/><path d="M142.69,48.54L142.85,48.66L143.15,48.78"/><path d="M142.85,48.66L142.64,48.67L142.62,48.70L142.59,48.70"/><path d="M142.62,48.70L142.86,48.70"/></g><g style="stroke:#000000;stroke-width:0.123"><path d="M142.78,48.54L142.69,48.54L142.59,48.70L142.40,48.71L142.06,48.82L141.90,49.00L141.75,49.22L141.70,49.40L141.71,49.62L141.76,49.80L141.92,50.00L142.08,50.19L142.42,50.28L142.65,50.29L142.69,50.31L142.99,50.43L143.60,50.41L143.82,50.06"/><path d="M143.92,49.71L143.91,49.25"/><path d="M143.30,48.53L143.60,48.65L143.76,48.77"/><path d="M143.88,49.16L143.91,49.24"/></g></g><g id="Actor_26.6"><g style="stroke:#000000;stroke-width:0.123"><path d="M148.44,49.84L148.54,49.49L148.36,49.72L148.14,49.73L148.11,49.70"/><path d="M148.52,49.48L148.34,49.69L148.10,49.70"/><path d="M148.14,47.95L148.31,48.07L148.61,48.19"/><path d="M148.31,48.11L148.07,48.11L148.09,48.08L148.31,48.07"/><path d="M148.07,48.11L148.04,48.11"/><path d="M148.62,48.54L148.62,48.66L148.58,48.54"/></g><g style="stroke:#000000;stroke-width:0.123"><path d="M149.28,49.47L149.05,49.83L148.44,49.84L148.14,49.73L148.10,49.70L147.88,49.70L147.53,49.60L147.37,49.41L147.21,49.21L147.16,49.03L147.15,48.81L147.20,48.63L147.36,48.41L147.51,48.23L147.85,48.12L148.04,48.11L148.14,47.95L148.50,47.94"/><path d="M149.37,49.12L149.37,48.67"/><path d="M148.75,47.94L149.05,48.05L149.22,48.18"/></g></g><g id="Actor_.11"><g style="stroke:#000000;stroke-width:0.123"><path d="M58.89,114.63L59.01,114.61L59.00,114.62"/><path d="M58.92,113.43L59.06,113.56L59.15,113.82L59.16,113.86L59.18,114.14L59.12,114.42L59.12,114.44L59.01,114.61"/><path d="M59.69,114.59L59.56,115.01L59.52,115.06"/><path d="M59.68,113.57L59.56,113.18"/></g><g style="stroke:#000000;stroke-width:0.123"><path d="M59.52,115.06L59.36,115.29L59.11,115.37L58.91,115.38L58.65,115.25L58.44,114.95L58.30,114.50L58.25,113.99L58.29,113.49L58.42,113.07L58.63,112.80L58.64,112.79L58.89,112.70L59.09,112.70L59.34,112.82L59.54,113.12L59.56,113.18"/></g></g><g id="Actor_.12"><g style="stroke:#000000;stroke-width:0.123"><path d="M61.95,151.49L61.93,151.43"/><path d="M62.07,149.51L62.07,149.51"/><path d="M62.32,147.45L62.33,147.60L62.53,147.78L62.66,147.83L62.91,147.94L63.43,148.07L64.04,148.18L64.68,148.23L65.28,148.24L67.03,148.17L67.37,148.19L67.70,148.24L67.94,148.33L69.04,148.94L69.19,149.11L69.28,149.42L69.29,149.76L68.85,154.30L68.77,154.60L68.64,154.77"/><path d="M62.52,147.42L62.45,147.47L62.46,147.61L62.65,147.77L63.01,147.92L63.49,148.05L64.06,148.15L64.66,148.20L65.50,148.19"/><path d="M67.20,150.22L67.37,150.19"/><path d="M68.54,152.26L68.39,152.27L68.26,152.11L68.17,151.84L68.17,151.53L68.23,151.26L68.36,151.10L68.47,151.10"/></g><g style="stroke:#000000;stroke-width:0.123"><path d="M65.50,148.19L66.97,148.14L67.27,148.15L67.58,148.18L67.86,148.24L68.06,148.32L69.16,148.94L69.31,149.11L69.40,149.41L69.41,149.76L68.97,154.30L68.89,154.60L68.75,154.77L68.47,154.77L67.36,154.16L67.13,154.07L66.80,154.02L66.46,154.00L64.71,154.07L64.11,154.06L63.47,154.01L62.86,153.91L62.34,153.77L61.96,153.61L61.76,153.44L61.75,153.28L61.93,151.43L61.91,151.37L61.73,151.17L61.63,150.88L61.73,149.89L61.80,149.76L61.90,149.63L62.07,149.51L62.13,149.41L62.32,147.45L62.53,147.32"/><path d="M68.37,152.11L68.51,152.26L68.54,152.26L68.66,152.11L68.73,151.84L68.72,151.53L68.64,151.26L68.50,151.10L68.47,151.10L68.35,151.25L68.28,151.52L68.29,151.84L68.37,152.11"/></g></g><g id="Actor_.13"><g style="stroke:#000000;stroke-width:0.123"><path d="M59.81,175.66L59.94,175.73L60.45,175.89L61.05,176.01L61.70,176.08L62.35,176.11L62.92,176.07L63.27,176.01"/><path d="M59.90,174.77L59.86,175.05"/><path d="M60.11,178.77L60.11,178.76"/><path d="M60.05,178.79L60.06,178.79"/><path d="M60.23,178.01L60.21,178.00"/><path d="M60.73,176.15L60.93,176.53"/><path d="M63.35,175.32L63.35,175.30L63.33,175.31L63.26,175.43L62.97,175.54L62.52,175.60L61.96,175.60L61.36,175.55L60.79,175.45L60.32,175.31"/><path d="M62.80,178.77L62.98,178.77"/><path d="M62.98,178.76L62.98,178.76"/><path d="M63.18,177.03L63.11,176.92"/><path d="M63.13,176.94L63.14,176.95L63.10,176.79L63.09,176.60"/><path d="M63.19,176.13L63.12,176.36"/><path d="M63.18,177.02L63.14,176.95"/><path d="M63.68,178.70L63.76,178.66"/><path d="M63.25,177.10L63.19,177.04"/><path d="M63.34,175.29L63.36,175.11"/></g><g style="stroke:#000000;stroke-width:0.123"><path d="M60.51,171.56L60.29,171.77L60.17,171.99L59.90,174.77L59.82,174.78L59.56,174.91L59.47,175.12L59.45,175.34L59.47,175.39L59.63,175.57L59.81,175.66L59.63,177.53L59.65,177.60L59.82,177.76L60.21,178.00L60.14,178.69L60.11,178.76L60.06,178.79L59.76,178.85L59.70,178.89L59.56,178.99L59.50,179.12L59.46,179.25L59.35,180.34L59.38,180.44L59.50,180.59L59.69,180.70L59.96,180.80"/><path d="M62.35,181.93L63.00,182.13L63.13,182.15L63.26,182.15L63.42,182.10L63.60,181.74L63.66,181.19"/><path d="M63.18,177.02L63.25,177.10L63.83,177.52L63.95,177.65L63.98,177.74L63.98,177.86L63.91,178.60L63.87,178.68L63.77,178.73L62.98,178.76"/><path d="M63.39,171.84L63.62,172.20L63.64,172.28L63.36,175.11L63.55,175.20L63.71,175.39L63.73,175.44L63.71,175.66L63.62,175.86L63.36,175.99L63.27,176.01L63.20,176.76"/></g></g><g id="Actor_25.6"><g style="stroke:#000000;stroke-width:0.123"><path d="M205.99,42.10L206.14,41.98"/><path d="M205.79,41.97L205.93,42.04L206.06,41.93"/><path d="M206.02,41.20L205.88,41.13L205.75,41.24"/><path d="M205.93,41.07L206.09,41.14L206.10,41.16"/><path d="M207.41,41.03L207.90,41.02L208.06,41.10L208.17,41.34L208.19,41.66L208.11,41.93L207.96,42.05L207.44,42.07"/><path d="M207.88,42.69L208.10,42.67L208.30,42.47L208.45,42.12L208.51,41.69L208.49,41.24L208.38,40.83L208.21,40.53L207.99,40.38"/><path d="M208.41,42.47L208.56,42.12L208.63,41.69L208.60,41.24L208.50,40.83L208.35,40.58"/><path d="M208.19,41.66L207.48,41.68"/><path d="M209.26,41.72L209.24,41.24L209.12,40.91"/></g><g style="stroke:#000000;stroke-width:0.123"><path d="M207.44,42.07L205.99,42.10L205.83,42.03L205.79,41.97L205.70,41.76L205.68,41.48L205.75,41.24L205.79,41.19L205.93,41.07L207.41,41.03L207.42,40.95L207.56,40.61L207.76,40.41L207.99,40.38L208.10,40.38L208.32,40.52L208.35,40.58L208.88,40.57L209.12,40.91L209.21,41.14L209.24,41.24L209.26,41.42L209.26,41.72L209.20,41.98L209.14,42.19L208.98,42.32L208.68,42.46L208.41,42.47L208.21,42.66L207.99,42.69L207.88,42.69L207.66,42.55L207.48,42.24"/></g></g><g id="Actor_.14"><g style="stroke:#000000;stroke-width:0.123"><path d="M66.11,147.72L66.20,147.79L66.23,147.92L66.28,147.98L66.42,148.03L66.62,148.06L66.82,148.07L67.20,148.06L67.40,148.06L67.60,148.10L67.74,148.15L69.16,148.94L69.31,149.11L69.40,149.41L69.41,149.76L68.97,154.30L68.89,154.60L68.75,154.77"/><path d="M68.47,151.10L68.35,151.25L68.28,151.52L68.29,151.84L68.37,152.11L68.51,152.26L68.54,152.26"/></g><g style="stroke:#000000;stroke-width:0.123"><path d="M66.12,147.58L66.26,147.64L66.46,147.80L66.50,147.95L66.51,147.97L66.65,148.00L67.07,147.99L67.40,148.00L67.74,148.05L67.98,148.14L69.40,148.93L69.55,149.10L69.64,149.40L69.65,149.75L69.20,154.29L69.13,154.59L68.99,154.76L68.75,154.77"/><path d="M68.64,152.13L68.61,152.10L68.53,151.83L68.52,151.51L68.59,151.24L68.60,151.22"/></g></g><g id="Actor_.15"><g style="stroke:#000000;stroke-width:0.123"><path d="M60.14,178.67L59.62,178.62"/><path d="M59.19,177.20L59.56,177.12L59.64,176.75L59.72,176.65"/><path d="M59.56,177.11L59.68,177.09"/><path d="M60.12,179.14L60.26,177.68L60.31,177.59L60.37,177.55L60.55,177.52L60.71,177.51L62.61,178.32L62.56,178.31"/><path d="M62.67,181.25L62.68,181.25"/><path d="M62.77,181.22L62.80,181.21"/><path d="M62.61,178.32L62.67,178.39L62.68,178.45L62.66,179.01"/><path d="M62.84,179.31L62.74,179.23L62.68,179.13L62.66,179.00"/><path d="M64.92,181.27L64.79,181.18L64.67,181.15L63.35,181.20"/><path d="M64.81,181.20L64.79,181.18"/><path d="M65.81,180.45L65.78,180.59L65.79,180.96L65.88,181.27L66.04,181.46L66.21,181.46L66.35,181.28L66.43,180.97L66.42,180.60L66.33,180.28L66.17,180.10L66.00,180.10L65.85,180.28L65.81,180.45"/></g><g style="stroke:#000000;stroke-width:0.123"><path d="M59.82,178.84L59.62,178.62L58.93,178.55L58.38,178.26L58.36,178.23L58.35,178.15L58.42,177.47L58.44,177.41L58.51,177.36L59.19,177.20L59.20,176.84L59.29,176.35L59.46,175.97L59.68,175.74L59.81,175.69"/><path d="M63.35,181.20L62.77,181.22L62.67,181.25L62.55,181.33L62.46,181.44L62.41,181.57L62.30,182.14L62.18,182.19L61.37,182.22L59.98,181.44L59.94,181.39L59.91,181.30L60.12,179.14"/><path d="M63.21,176.65L66.22,178.36L67.18,179.34L67.40,179.66L67.56,180.10L67.63,180.63L67.63,181.16L67.53,181.65L67.37,182.03L67.14,182.26L67.07,182.30L66.81,182.35L66.22,182.38L65.18,182.22L65.07,182.17L63.64,181.36"/></g></g><g id="Actor_.16"><g style="stroke:#000000;stroke-width:0.123"><path d="M122.66,119.43L122.65,119.42"/><path d="M122.45,119.32L122.44,119.32"/><path d="M122.57,119.39L122.57,119.39"/><path d="M122.39,119.28L122.40,119.28"/><path d="M123.92,112.03L123.58,111.95L123.26,111.82L123.13,111.72"/><path d="M123.09,111.69L123.12,111.71"/><path d="M123.60,119.65L123.59,119.64"/><path d="M124.17,112.07L123.92,112.03"/><path d="M124.28,112.09L124.19,112.07"/><path d="M139.76,124.61L141.08,124.42L141.37,124.29L141.62,124.03L141.89,123.47L141.99,123.15L142.09,122.59L142.11,121.99L142.06,121.39L141.95,120.83L141.77,120.33L141.54,119.93L140.39,118.43L139.20,117.07L137.98,115.86L136.73,114.80L136.46,114.62L135.66,114.26L133.92,113.75L130.97,113.18L128.93,112.62L127.98,112.48L124.34,112.10"/><path d="M126.21,112.16L125.89,112.14L125.85,112.07"/><path d="M125.89,112.14L125.89,112.19L125.42,112.14"/><path d="M125.89,112.19L126.21,112.22"/><path d="M128.32,118.55L128.55,118.59L128.49,118.58"/><path d="M130.48,119.15L131.65,119.55L130.60,119.19"/><path d="M131.65,119.55L131.76,119.59"/><path d="M131.88,116.08L132.10,116.19L130.60,115.40"/><path d="M132.65,119.91L133.29,120.14"/><path d="M133.19,120.11L132.70,119.93"/><path d="M132.76,119.95L132.72,119.94L136.91,121.51L136.66,121.41"/><path d="M136.47,121.33L137.23,121.65L136.91,121.52"/><path d="M137.79,121.85L136.91,121.51L137.63,121.79"/><path d="M137.98,121.14L137.24,120.84"/><path d="M137.36,119.69L138.48,120.35"/></g><g style="stroke:#000000;stroke-width:0.123"><path d="M122.57,119.39L122.45,119.32"/><path d="M122.39,119.28L122.34,119.20L123.10,111.68"/><path d="M122.44,119.32L122.40,119.28"/><path d="M123.59,119.64L123.26,119.60L122.66,119.43"/><path d="M122.65,119.42L122.57,119.39"/><path d="M126.04,111.87L126.21,112.16L126.21,112.22L127.99,112.40L128.97,112.54L129.53,112.67L131.24,113.17L134.19,113.74L135.91,114.23L136.74,114.61L137.02,114.79L138.27,115.85L139.49,117.06L140.68,118.42L141.83,119.92L142.04,120.30L142.23,120.82L142.35,121.38L142.40,121.98L142.37,122.58L142.28,123.14L142.12,123.63L141.91,124.02L141.65,124.28L141.37,124.41L140.05,124.60L139.76,124.61L138.43,124.63L137.11,124.49L135.78,124.18L135.50,124.07L133.01,122.77L130.17,121.03L128.75,120.33L127.83,120.10L127.22,120.02L123.60,119.65"/></g></g><g id="Actor_.17"><g style="stroke:#000000;stroke-width:0.123"><path d="M139.29,29.31L139.32,29.32"/><path d="M141.48,36.53L141.45,36.51"/><path d="M198.56,65.07L198.28,64.10L198.23,62.14L198.69,60.16L199.11,59.23L199.25,59.15"/><path d="M201.27,64.79L201.19,64.66L201.30,63.60L199.02,63.66"/><path d="M198.96,62.78L198.95,62.89L199.15,62.89L198.96,62.78L199.18,60.70"/><path d="M201.22,61.71L200.45,61.67L199.73,61.89L199.65,62.04L199.78,62.13L200.34,62.00L200.79,62.04L201.10,62.26L201.35,63.08L199.16,63.14L199.18,62.88"/><path d="M199.05,61.94L201.35,63.08"/><path d="M199.69,62.12L199.06,61.81"/></g><g style="stroke:#000000;stroke-width:0.123"><path d="M201.10,64.70L201.27,64.79L201.40,64.71L201.72,63.79L201.79,62.65L201.66,62.17L201.22,61.71L199.18,60.70L199.33,59.28L199.25,59.15L139.24,29.28L139.15,29.42L139.24,30.93L139.68,32.90L140.63,35.18L141.45,36.51"/><path d="M141.48,36.53L198.52,65.06L198.74,64.95L198.87,63.67L199.02,63.66"/></g></g><g id="Actor_.18"><g style="stroke:#000000;stroke-width:0.123"><path d="M122.46,119.74L122.32,119.62L122.29,119.51"/><path d="M122.32,119.62L122.30,119.61"/><path d="M122.50,119.37L122.41,119.30L122.34,119.23"/><path d="M122.34,119.21L122.34,119.20"/><path d="M123.75,119.67L123.41,119.62"/><path d="M123.62,120.03L123.62,120.03"/><path d="M124.08,120.07L124.08,120.07"/><path d="M125.13,119.96L124.88,120.02L124.52,120.06"/><path d="M125.25,119.86L125.23,119.87"/></g><g style="stroke:#000000;stroke-width:0.123"><path d="M122.46,119.74L122.50,119.75L122.78,119.86"/><path d="M123.22,119.97L123.18,119.96L122.79,119.87"/><path d="M122.30,119.61L122.29,119.51L122.34,119.16"/><path d="M122.46,119.74L122.32,119.62"/><path d="M124.08,120.07L124.51,120.07L124.87,120.03L125.12,119.97L125.23,119.87"/><path d="M123.22,119.97L123.62,120.03"/><path d="M124.08,120.07L123.62,120.03"/><path d="M125.25,119.82L125.25,119.86"/></g></g><g id="Actor_.19"><g style="stroke:#000000;stroke-width:0.123"><path d="M111.45,39.00L111.84,39.09"/><path d="M111.63,39.44L111.72,39.46L112.07,39.52L112.38,39.56"/><path d="M111.40,39.38L111.24,39.32"/><path d="M111.41,39.38L111.63,39.44"/><path d="M110.96,39.17L110.96,39.17"/><path d="M110.92,39.06L110.92,39.07"/><path d="M111.56,38.69L111.51,38.70L111.46,38.78L111.45,38.77L111.50,38.69L111.56,38.67"/><path d="M111.44,39.02L111.14,38.91"/><path d="M111.54,38.86L111.46,38.78"/><path d="M110.94,38.69L110.96,38.76L110.97,38.79"/><path d="M112.11,39.03L111.78,38.95L111.54,38.85"/><path d="M112.40,39.56L112.82,39.59"/><path d="M112.21,39.04L112.49,39.07L112.87,39.09L113.17,39.07L113.37,39.01L113.42,38.93L113.33,38.84"/><path d="M112.12,39.03L111.96,38.99"/><path d="M113.91,39.02L113.79,39.11L113.54,39.17L113.18,39.21L112.75,39.20"/><path d="M113.92,39.04L113.81,39.13L113.74,39.14L113.55,39.19L113.19,39.22"/><path d="M112.85,39.59L113.31,39.58"/><path d="M113.33,38.87L113.41,38.94L113.36,39.01"/><path d="M113.88,39.36L113.87,39.41"/><path d="M113.91,38.95L113.90,38.93"/></g><g style="stroke:#000000;stroke-width:0.123"><path d="M111.33,38.53L111.08,38.59L110.94,38.69L110.92,39.13L110.92,39.13L110.96,39.17"/><path d="M111.24,39.32L111.08,39.26L110.96,39.17"/><path d="M113.69,39.52L113.82,39.46L113.86,39.43L113.87,39.42L113.88,39.38L113.88,39.36L113.92,39.04L113.91,38.95"/><path d="M113.67,39.54L113.66,39.62"/><path d="M113.90,38.93L113.75,38.82L113.58,38.75"/></g></g><g id="Actor_.20"><g style="stroke:#000000;stroke-width:0.123"><path d="M112.20,47.67L112.21,47.63L112.14,47.68L111.94,47.73L111.52,47.73L111.12,47.68L110.99,47.64L110.92,47.59"/><path d="M110.91,47.62L111.04,47.69L111.42,47.76L111.77,47.77L111.99,47.75L112.13,47.71"/><path d="M111.84,47.57L111.54,47.57L111.34,47.55L111.14,47.52L110.99,47.47"/><path d="M111.02,47.49L111.08,47.53L111.23,47.57L111.42,47.60L111.84,47.60L111.98,47.58"/><path d="M111.26,47.77L111.62,47.80L111.79,47.80L111.97,47.77L112.08,47.73L112.03,47.80L111.97,47.82"/><path d="M111.02,47.51L111.02,47.54L111.14,47.60L111.48,47.65L111.89,47.65L112.04,47.61L112.10,47.58"/><path d="M110.94,38.09L110.96,38.20L111.12,38.31L111.41,38.43L111.82,38.53L112.28,38.60L112.77,38.65L113.23,38.66L113.62,38.63L113.90,38.56L114.04,38.47"/><path d="M111.57,38.59L111.80,38.65L112.20,38.72L112.17,39.03"/><path d="M112.03,47.80L112.10,47.75L112.11,47.72L112.08,47.73"/><path d="M112.21,47.63L112.21,47.58"/><path d="M112.11,47.72L112.13,47.71"/><path d="M112.20,38.72L112.76,38.77L113.34,38.77"/></g><g style="stroke:#000000;stroke-width:0.123"><path d="M110.97,47.47L111.01,47.49L111.02,47.51L110.91,47.56L110.92,47.59"/><path d="M113.31,39.03L113.34,38.77L113.61,38.75L113.89,38.69L114.03,38.60L114.04,38.47L114.03,38.36L113.48,37.96L112.95,37.76L112.56,37.68L112.16,37.68L111.60,37.77L111.08,38.00L110.94,38.09L110.93,38.21L110.94,38.32L111.10,38.44L111.40,38.55L111.57,38.59L111.54,38.85"/><path d="M112.20,47.67L112.13,47.71"/><path d="M112.21,47.64L112.21,47.58"/></g></g><g id="Actor_26.7"><g style="stroke:#000000;stroke-width:0.123"><path d="M136.36,115.69L136.07,115.57L135.85,115.57L135.83,115.60"/><path d="M136.07,115.60L135.87,115.59L135.80,115.60"/><path d="M136.20,117.33L136.29,116.98L136.11,117.20L135.90,117.20L135.88,117.18"/><path d="M135.87,117.18L136.10,117.17L136.27,116.97"/><path d="M136.37,116.08L136.37,116.16L136.35,116.08"/><path d="M135.90,115.44L136.07,115.57"/></g><g style="stroke:#000000;stroke-width:0.123"><path d="M135.90,115.44L135.80,115.60L135.61,115.60L135.27,115.72L135.12,115.90L134.97,116.12L134.92,116.30L134.92,116.51L134.98,116.70L135.29,117.08L135.64,117.18L135.87,117.18L135.90,117.20L136.20,117.33L136.77,117.31"/></g></g><g id="Actor_26.8"><g style="stroke:#000000;stroke-width:0.123"><path d="M141.13,122.75L141.07,122.84L140.98,123.19"/><path d="M141.07,122.84L140.89,123.06L140.68,123.06L140.66,123.04"/><path d="M140.65,123.04L140.88,123.04L141.05,122.83"/><path d="M140.68,121.30L140.85,121.42L141.15,121.55"/><path d="M140.85,121.42L140.63,121.43L140.61,121.45L140.58,121.46"/><path d="M140.85,121.46L140.61,121.45"/><path d="M141.13,121.93L141.15,122.02"/></g><g style="stroke:#000000;stroke-width:0.123"><path d="M140.58,121.46L140.39,121.46L140.05,121.58L139.90,121.76L139.74,121.98L139.69,122.16L139.70,122.37L139.75,122.56L140.07,122.94L140.42,123.04L140.65,123.04L140.68,123.06L140.98,123.19L141.55,123.17"/><path d="M141.13,121.28L140.68,121.30L140.58,121.46"/></g></g><g id="Actor_29.1"><g style="stroke:#000000;stroke-width:0.123"><path d="M196.83,66.58L198.65,67.49"/><path d="M196.65,66.57L198.48,67.49L200.70,67.44"/></g><g style="stroke:#000000;stroke-width:0.123"><path d="M200.69,67.42L191.71,153.53L189.60,153.62L187.71,152.67L187.76,151.96L196.65,66.57L196.77,66.55"/></g></g><g id="Actor_.21"><g style="stroke:#000000;stroke-width:0.123"><path d="M123.18,121.70L123.18,121.70"/><path d="M122.82,121.61L122.82,121.61"/><path d="M123.04,120.52L122.89,120.28L122.76,120.17L122.99,120.26"/><path d="M122.53,121.08L122.65,121.17L122.78,121.21L122.98,121.15"/><path d="M122.50,121.03L122.65,121.17L122.89,121.27"/><path d="M122.43,120.20L122.65,120.14L122.76,120.17L122.63,120.07L122.64,119.98L122.63,119.99"/><path d="M122.44,120.19L122.43,120.20"/><path d="M123.76,120.29L123.56,120.27L123.42,120.24L123.25,120.19L123.19,120.16"/><path d="M123.59,121.40L123.88,121.42"/><path d="M123.98,120.42L123.69,120.40"/><path d="M124.25,121.28L124.39,121.36L124.56,121.37L124.70,121.29"/><path d="M124.03,120.30L124.26,120.27L124.34,120.23L124.35,120.20L124.33,120.16"/><path d="M124.26,120.27L124.29,120.24"/><path d="M124.91,121.08L124.69,121.30L124.56,121.37L124.38,121.40"/><path d="M124.54,120.42L124.66,120.36L124.80,120.36L124.97,120.45"/><path d="M124.69,120.10L124.81,120.20L124.80,120.29L124.66,120.36L124.48,120.40"/><path d="M124.29,120.23L124.30,120.23L124.30,120.21"/></g><g style="stroke:#000000;stroke-width:0.123"><path d="M122.50,121.36L122.52,121.42L122.64,121.53L122.82,121.61"/><path d="M123.18,121.70L122.82,121.61"/><path d="M123.18,121.70L123.63,121.77L124.07,121.78"/><path d="M122.50,121.36L122.53,121.08L122.50,121.03L122.37,120.82L122.42,120.30"/><path d="M122.64,119.98L122.79,119.91L122.89,119.89"/><path d="M122.44,120.19L122.63,119.99"/><path d="M124.07,121.78L124.41,121.74L124.62,121.67L124.64,121.62L124.68,121.52L124.70,121.29L124.91,121.08L124.97,120.45L124.81,120.20L124.69,120.10"/><path d="M124.58,120.06L124.69,120.10"/></g></g><g id="Actor_26.9"><g style="stroke:#000000;stroke-width:0.123"><path d="M135.56,123.63L135.65,123.28L135.47,123.50L135.26,123.50L135.24,123.48"/><path d="M135.63,123.27L135.46,123.47L135.23,123.48"/><path d="M135.73,122.41L135.73,122.46L135.72,122.41"/><path d="M135.26,121.74L135.43,121.87L135.73,121.99"/><path d="M135.43,121.87L135.21,121.87L135.19,121.90L135.16,121.90"/><path d="M135.43,121.90L135.19,121.90"/></g><g style="stroke:#000000;stroke-width:0.123"><path d="M136.13,123.61L135.56,123.63L135.26,123.50L135.23,123.48L135.00,123.48L134.65,123.38L134.34,123.00L134.28,122.81L134.28,122.60L134.33,122.42L134.48,122.20L134.63,122.02L134.97,121.90L135.16,121.90L135.26,121.74"/></g></g><g id="Actor_.22"><g style="stroke:#000000;stroke-width:0.123"><path d="M110.36,48.62L110.48,48.71L110.60,48.74L110.80,48.67"/><path d="M110.72,48.80L110.48,48.71L110.32,48.57"/><path d="M110.86,48.04L110.71,47.80L110.58,47.69L110.47,47.67L110.26,47.73"/><path d="M110.82,47.78L110.58,47.69L110.46,47.60L110.47,47.52"/><path d="M111.42,48.93L111.71,48.95"/><path d="M111.01,49.24L111.01,49.24"/><path d="M111.52,47.91L111.81,47.93"/><path d="M111.59,47.82L111.38,47.79L111.25,47.77L111.08,47.71L111.02,47.69"/><path d="M112.54,48.83L112.39,48.90L112.53,48.84L112.75,48.62"/><path d="M112.21,48.94L112.39,48.90L112.22,48.89L112.08,48.80"/><path d="M111.90,49.31L111.90,49.31"/><path d="M111.86,47.83L112.09,47.80L112.17,47.76L112.19,47.73L112.17,47.70L112.16,47.69"/><path d="M112.53,47.65L112.65,47.74L112.64,47.82L112.50,47.89L112.64,47.89L112.81,47.99"/><path d="M112.31,47.92L112.50,47.89L112.38,47.95"/><path d="M112.13,47.75L112.14,47.76L112.13,47.77"/><path d="M112.10,47.80L112.12,47.77"/></g><g style="stroke:#000000;stroke-width:0.123"><path d="M110.20,48.36L110.32,48.57L110.36,48.62L110.32,48.91L110.34,48.96L110.46,49.07L110.64,49.14L111.01,49.24"/><path d="M110.78,47.42L110.61,47.45L110.47,47.52L110.26,47.73"/><path d="M111.90,49.31L111.46,49.30L111.01,49.24"/><path d="M111.90,49.31L112.24,49.28L112.45,49.21L112.48,49.16L112.52,49.07L112.54,48.83L112.75,48.62L112.81,47.99L112.65,47.74L112.53,47.65"/><path d="M112.53,47.65L112.36,47.58"/></g></g><g id="Actor_.23"><g style="stroke:#000000;stroke-width:0.123"><path d="M110.12,47.13L110.14,47.15L110.11,47.04"/><path d="M110.14,47.15L110.28,47.26"/><path d="M110.32,46.88L110.24,46.82L110.16,46.76"/><path d="M110.16,46.73L110.16,46.73"/><path d="M110.16,46.76L110.16,46.76"/><path d="M111.45,47.53L111.64,47.55"/><path d="M111.58,47.18L111.23,47.12"/><path d="M113.09,47.39L112.97,47.48L112.72,47.54L112.35,47.57"/></g><g style="stroke:#000000;stroke-width:0.123"><path d="M110.16,46.73L110.11,47.04L110.12,47.13L110.15,47.16L110.28,47.26L110.32,47.27L110.60,47.38"/><path d="M112.96,47.49L112.71,47.55L112.35,47.58L111.91,47.58L111.45,47.54"/><path d="M111.00,47.47L110.61,47.38"/><path d="M113.09,47.33L113.09,47.39L112.96,47.49"/></g></g><g id="Actor_.24"><g style="stroke:#000000;stroke-width:0.123"><path d="M123.14,111.23L123.25,111.13"/><path d="M123.13,111.72L123.13,111.72"/><path d="M123.15,111.35L123.14,111.31L123.12,111.24"/><path d="M123.10,111.60L123.10,111.63"/><path d="M124.25,112.09L123.90,112.02L123.81,112.00"/><path d="M123.58,111.94L123.42,111.88"/><path d="M123.81,112.00L123.59,111.94"/><path d="M123.73,111.24L123.69,111.25L123.63,111.33L123.62,111.32L123.67,111.23L123.73,111.22"/><path d="M123.24,111.14L123.24,111.14"/><path d="M123.62,111.58L123.32,111.47"/><path d="M124.01,111.66L123.62,111.57"/><path d="M123.72,111.42L123.71,111.41L123.95,111.51L124.28,111.59"/><path d="M123.71,111.41L123.63,111.33"/><path d="M124.30,111.59L124.11,111.55"/><path d="M124.99,112.15L124.57,112.12"/><path d="M124.34,112.10L124.51,112.12"/><path d="M125.46,112.14L125.02,112.15"/><path d="M124.92,111.77L125.35,111.77L125.71,111.74L125.96,111.67L126.07,111.57"/><path d="M124.38,111.60L124.66,111.64L125.03,111.65L125.34,111.62L125.53,111.56L125.59,111.48L125.50,111.39"/><path d="M126.04,111.91L126.03,111.96"/><path d="M125.52,111.57L125.57,111.49L125.49,111.41"/><path d="M126.08,111.59L125.97,111.68L125.72,111.75L125.33,111.79"/><path d="M126.06,111.47L126.07,111.49"/></g><g style="stroke:#000000;stroke-width:0.123"><path d="M123.14,111.22L123.25,111.13L123.46,111.07"/><path d="M123.12,111.24L123.10,111.67L123.10,111.68L123.13,111.72"/><path d="M123.42,111.88L123.26,111.81L123.13,111.72"/><path d="M125.85,112.07L125.98,112.01L126.02,111.98L126.03,111.96"/><path d="M126.07,111.49L126.08,111.59L126.04,111.91L126.04,111.93L126.03,111.96"/><path d="M125.83,112.09L125.82,112.18"/><path d="M126.06,111.47L125.91,111.36L125.80,111.31"/></g></g><g id="Actor_.25"><g style="stroke:#000000;stroke-width:0.123"><path d="M110.48,46.94L110.47,46.94"/><path d="M110.39,46.91L110.39,46.91"/><path d="M110.27,46.84L110.27,46.84"/><path d="M110.22,46.80L110.22,46.80"/><path d="M111.42,47.15L111.41,47.15"/><path d="M110.96,39.17L110.99,39.20"/><path d="M110.92,39.14L110.94,39.16"/><path d="M111.00,39.20L111.40,39.38L111.74,39.46"/><path d="M112.00,39.51L111.75,39.46"/><path d="M126.31,51.95L127.64,51.90L128.97,51.67L129.25,51.53L129.50,51.26L129.72,50.86L129.88,50.36L129.97,49.80L129.99,49.20L129.95,48.59L129.83,48.03L129.65,47.53L129.42,47.13L128.27,45.66L127.44,44.72L127.08,44.32L125.86,43.13L124.61,42.10L124.33,41.93L123.53,41.58L121.79,41.11L118.83,40.59L117.24,40.15L116.45,39.99L112.18,39.53"/><path d="M112.17,39.53L112.01,39.51"/><path d="M113.25,39.58L113.72,39.62L113.69,39.52"/><path d="M113.73,39.58L114.05,39.60"/><path d="M113.73,39.63L114.05,39.66"/><path d="M116.18,46.04L116.40,46.08L116.36,46.07"/><path d="M119.01,46.82L118.34,46.60L119.62,47.01"/><path d="M119.96,43.59L118.46,42.82"/><path d="M121.15,47.54L120.51,47.32L121.01,47.49"/><path d="M125.05,48.96L125.09,48.97L123.44,48.34L120.59,47.35"/><path d="M121.19,44.69L121.21,44.70L121.19,44.69"/><path d="M124.01,50.52L123.95,50.60L123.80,50.61L123.67,50.46L123.58,50.20L123.58,49.90L123.64,49.63L123.76,49.47L123.91,49.47L123.99,49.55"/><path d="M124.63,43.19L124.55,43.11L124.40,43.11L124.28,43.27L124.21,43.54L124.22,43.84L124.30,44.10L124.44,44.25L124.58,44.25L124.65,44.16"/><path d="M124.60,48.76L125.33,49.04L124.53,48.74L124.60,48.76"/><path d="M125.33,49.04L125.67,49.16"/><path d="M125.12,48.15L125.86,48.44"/><path d="M125.23,46.99L126.36,47.63"/><path d="M129.41,48.96L129.34,48.88L129.19,48.88L129.07,49.04L129.00,49.31L129.01,49.60L129.09,49.87L129.22,50.02L129.37,50.02L129.44,49.93"/></g><g style="stroke:#000000;stroke-width:0.123"><path d="M111.41,47.15L111.08,47.10L110.48,46.94"/><path d="M110.27,46.84L110.39,46.91"/><path d="M110.47,46.94L110.39,46.91"/><path d="M110.92,39.13L110.16,46.72L110.22,46.80"/><path d="M110.27,46.84L110.22,46.80"/><path d="M113.88,39.33L114.05,39.60L114.05,39.66L115.84,39.84L116.83,39.98L119.10,40.58L122.06,41.10L123.79,41.56L124.62,41.92L124.89,42.09L126.14,43.13L127.37,44.31L128.56,45.65L129.71,47.13L129.94,47.53L130.12,48.02L130.23,48.59L130.28,49.19L130.26,49.79L130.16,50.35L130.00,50.85L129.79,51.25L129.54,51.52L129.25,51.67L127.93,51.89L126.60,51.94L126.31,51.95L124.98,51.84L123.65,51.57L123.37,51.46L120.88,50.21L118.03,48.51L116.61,47.83L115.68,47.61L115.07,47.53L111.42,47.15"/><path d="M123.95,50.45L124.01,50.52L124.07,50.45L124.13,50.18L124.13,49.87L124.04,49.61L123.99,49.55L123.93,49.62L123.86,49.89L123.87,50.19L123.95,50.45"/><path d="M124.51,43.84L124.50,43.53L124.57,43.27L124.63,43.19L124.68,43.25L124.77,43.51L124.77,43.82L124.71,44.09L124.65,44.16L124.59,44.10L124.51,43.84"/><path d="M129.30,49.60L129.38,49.87L129.44,49.93L129.50,49.86L129.56,49.60L129.55,49.29L129.47,49.02L129.41,48.96L129.35,49.03L129.29,49.30L129.30,49.60"/></g></g><g id="Actor_30.1"><g style="stroke:#000000;stroke-width:0.123"><path d="M187.61,47.75L187.58,47.71L187.42,47.72L187.28,47.89L187.20,48.19L187.21,48.52L187.30,48.81L187.45,48.97L187.62,48.97L187.65,48.93"/><path d="M188.27,41.43L188.24,41.40L188.07,41.40L187.93,41.58L187.86,41.87L187.87,42.21L187.96,42.50L188.11,42.66L188.27,42.65L188.30,42.62"/><path d="M193.13,47.16L193.10,47.12L192.93,47.13L192.79,47.30L192.72,47.60L192.72,47.93L192.82,48.22L192.97,48.39L193.13,48.38L193.16,48.35"/><path d="M197.12,55.58L196.97,55.40L196.94,55.15L198.02,44.76L198.10,44.50L198.28,44.32L198.52,44.24L200.33,44.19"/><path d="M199.17,55.34L197.36,55.39L197.21,55.32L197.16,55.14L197.24,54.38"/></g><g style="stroke:#000000;stroke-width:0.123"><path d="M185.36,49.70L185.26,49.58L185.23,49.33L186.30,38.98L186.38,38.73L186.57,38.54L186.80,38.46L188.61,38.42L200.33,44.19L200.31,44.45L198.50,44.49L198.33,44.57L198.24,44.75L197.24,54.38L199.17,55.34L199.15,55.59L197.34,55.64L197.12,55.58L185.41,49.76L185.36,49.70"/><path d="M187.45,48.54L187.43,48.18L187.50,47.89L187.61,47.75L187.73,47.87L187.82,48.16L187.83,48.50L187.76,48.79L187.65,48.93L187.53,48.80L187.45,48.54"/><path d="M188.09,42.21L188.18,42.49L188.30,42.62L188.41,42.48L188.49,42.18L188.48,41.85L188.39,41.56L188.27,41.43L188.16,41.57L188.08,41.87L188.09,42.21"/><path d="M192.95,47.93L193.04,48.22L193.16,48.35L193.27,48.21L193.35,47.91L193.34,47.57L193.25,47.28L193.13,47.16L193.02,47.30L192.94,47.59L192.95,47.93"/></g></g><g id="Actor_29.2"><g style="stroke:#000000;stroke-width:0.123"><path d="M182.95,59.62L184.75,60.52"/><path d="M182.77,59.61L184.47,60.50L184.81,60.55"/></g><g style="stroke:#000000;stroke-width:0.123"><path d="M182.89,59.59L182.72,60.15L173.91,145.28L175.75,146.26L177.79,146.20L177.92,146.09"/><path d="M185.50,73.00L178.10,144.32"/></g></g><g id="Actor_28.1"><g style="stroke:#000000;stroke-width:0.123"><path d="M191.74,153.63L191.31,153.57L189.62,153.68L189.49,153.89L189.19,157.40"/><path d="M189.36,157.34L189.26,157.24L189.65,153.80L191.65,153.72L191.29,157.23L189.36,157.34"/></g><g style="stroke:#000000;stroke-width:0.123"><path d="M131.89,126.69L131.91,126.78L189.19,157.40L190.63,157.42L191.36,157.32L191.79,153.80L191.61,153.55"/><path d="M174.02,144.18L149.54,131.14"/><path d="M187.80,151.53L177.80,146.20"/></g></g><g id="Actor_29.3"><g style="stroke:#000000;stroke-width:0.123"><path d="M156.29,46.26L154.53,45.38"/><path d="M154.35,45.38L156.01,46.24L156.35,46.30"/></g><g style="stroke:#000000;stroke-width:0.123"><path d="M154.46,45.35L154.37,45.37L154.24,46.43L145.69,130.23L147.45,131.18L149.52,131.14L149.67,130.85L152.12,106.87"/><path d="M155.22,76.52L152.61,102.09"/><path d="M158.22,47.23L155.71,71.76"/></g></g><g id="Actor_33.1"><g style="stroke:#000000;stroke-width:0.123"><path d="M176.52,119.65L176.47,119.47L176.82,116.15L176.94,115.94"/></g><g style="stroke:#000000;stroke-width:0.123"><path d="M173.76,113.12L152.65,102.11L152.51,102.05L150.67,102.10L150.50,102.17L150.41,102.36L150.08,105.65L150.12,105.83L176.56,119.67"/></g></g><g><g/></g><g><g/></g><g><g/></g><g><g><path style="stroke:#000000;stroke-width:0.210;stroke-dasharray:2.3 2.3" d="M207.38,41.55L144.16,43.13"/></g></g><g><g><path style="stroke:#000000;stroke-width:0.210;stroke-dasharray:2.3 2.3" d="M143.30,43.15L97.83,44.28"/></g></g><g><g><path style="stroke:#000000;stroke-width:0.210;stroke-dasharray:2.3 2.3" d="M157.16,169.60L159.90,142.91"/></g></g><g><g><path style="stroke:#000000;stroke-width:0.210;stroke-dasharray:2.3 2.3" d="M157.16,169.60L159.90,142.91"/></g></g><g><g><path style="stroke:#000000;stroke-width:0.210;stroke-dasharray:2.3 2.3" d="M222.43,146.05L183.10,147.51"/></g></g><g><g><path style="stroke:#000000;stroke-width:0.210;stroke-dasharray:2.3 2.3" d="M183.99,146.94L49.95,151.90"/></g></g><g id="PMI27.0"><g><path style="stroke:#000000;stroke-width:0.281" d="M127.12,94.86L131.67,94.97"/></g><g><path style="fill:#000000" d="M131.64,95.97L131.69,93.97L133.66,95.01z"/></g><g><path style="fill:#ffffff" d="M119.05,97.30L127.12,97.30L127.12,92.22L119.05,92.22z"/><path style="stroke:#000000;stroke-width:0.280;stroke-opacity:0.98" d="M119.05,97.30L127.12,97.30L127.12,92.22L119.05,92.22z"/><text xml:space="preserve" fill="#000000" stroke-width="0" x="119.68" y="95.87" font-size="2.79" opacity="1.00" font-family="Microsoft Sans Serif">5805</text></g></g><g id="PMI26.0"><g><path style="stroke:#000000;stroke-width:0.281" d="M40.51,153.67L46.36,153.76"/></g><g><path style="fill:#000000" d="M46.34,154.76L46.37,152.76L48.36,153.79z"/></g><g><path style="fill:#ffffff" d="M22.05,156.07L40.51,156.07L40.51,150.99L22.05,150.99z"/><path style="stroke:#000000;stroke-width:0.280;stroke-opacity:0.98" d="M22.05,156.07L40.51,156.07L40.51,150.99L22.05,150.99z"/><text xml:space="preserve" fill="#000000" stroke-width="0" x="22.68" y="154.64" font-size="2.79" opacity="1.00" font-family="Microsoft Sans Serif">8057090322</text></g></g><g id="PMI30.0"><g><path style="stroke:#000000;stroke-width:0.281" d="M202.64,49.25L197.86,49.33"/></g><g><path style="fill:#000000" d="M197.84,48.33L197.88,50.33L195.86,49.37z"/></g><g><path style="fill:#ffffff" d="M202.64,51.65L218.46,51.65L218.46,46.57L202.64,46.57z"/><path style="stroke:#000000;stroke-width:0.280;stroke-opacity:0.98" d="M202.64,51.65L218.46,51.65L218.46,46.57L202.64,46.57z"/><text xml:space="preserve" fill="#000000" stroke-width="0" x="203.28" y="50.22" font-size="3.05" opacity="1.00" font-family="Microsoft Sans Serif">1000YBP0</text></g></g><g id="PMI32.0"><g><path style="stroke:#000000;stroke-width:0.281" d="M148.77,173.82L148.78,168.91"/></g><g><path style="fill:#000000" d="M149.78,168.91L147.78,168.91L148.79,166.91z"/></g><g><path style="fill:#ffffff" d="M144.73,178.89L152.80,178.89L152.80,173.82L144.73,173.82z"/><path style="stroke:#000000;stroke-width:0.280;stroke-opacity:0.98" d="M144.73,178.89L152.80,178.89L152.80,173.82L144.73,173.82z"/><text xml:space="preserve" fill="#000000" stroke-width="0" x="145.36" y="177.47" font-size="2.79" opacity="1.00" font-family="Microsoft Sans Serif">5805</text></g></g><g id="PMI33.0"><g><path style="stroke:#000000;stroke-width:0.281" d="M166.98,88.51L167.03,83.60"/></g><g><path style="fill:#000000" d="M168.03,83.61L166.03,83.60L167.04,81.61z"/></g><g><path style="fill:#ffffff" d="M158.71,93.59L175.21,93.59L175.21,88.51L158.71,88.51z"/><path style="stroke:#000000;stroke-width:0.280;stroke-opacity:0.98" d="M158.71,93.59L175.21,93.59L175.21,88.51L158.71,88.51z"/><text xml:space="preserve" fill="#000000" stroke-width="0" x="159.34" y="92.16" font-size="3.05" opacity="1.00" font-family="Microsoft Sans Serif">1000ZYW0</text></g></g><g id="PMI25.0"><g><path style="stroke:#000000;stroke-width:0.281" d="M230.03,145.69L225.13,145.62"/></g><g><path style="fill:#000000" d="M225.14,144.62L225.12,146.62L223.13,145.59z"/></g><g><path style="fill:#ffffff" d="M230.03,148.37L248.50,148.37L248.50,143.29L230.03,143.29z"/><path style="stroke:#000000;stroke-width:0.280;stroke-opacity:0.98" d="M230.03,148.37L248.50,148.37L248.50,143.29L230.03,143.29z"/><text xml:space="preserve" fill="#000000" stroke-width="0" x="230.67" y="146.94" font-size="2.79" opacity="1.00" font-family="Microsoft Sans Serif">8057038393</text></g></g><g id="PMI34.0"><g><path style="stroke:#000000;stroke-width:0.281" d="M168.42,123.22L171.89,123.06"/></g><g><path style="fill:#000000" d="M171.94,124.06L171.85,122.06L173.89,122.97z"/></g><g><path style="fill:#ffffff" d="M152.43,126.11L168.42,126.11L168.42,121.04L152.43,121.04z"/><path style="stroke:#000000;stroke-width:0.280;stroke-opacity:0.98" d="M152.43,126.11L168.42,126.11L168.42,121.04L152.43,121.04z"/><text xml:space="preserve" fill="#000000" stroke-width="0" x="153.06" y="124.69" font-size="3.05" opacity="1.00" font-family="Microsoft Sans Serif">1000YDK0</text></g></g><g id="PMI31.0"><g><path style="stroke:#000000;stroke-width:0.281" d="M205.56,129.54L205.56,136.67"/></g><g><path style="fill:#000000" d="M204.56,136.67L206.56,136.67L205.56,138.67z"/></g><g><path style="fill:#ffffff" d="M197.22,129.54L213.91,129.54L213.91,124.46L197.22,124.46z"/><path style="stroke:#000000;stroke-width:0.280;stroke-opacity:0.98" d="M197.22,129.54L213.91,129.54L213.91,124.46L197.22,124.46z"/><text xml:space="preserve" fill="#000000" stroke-width="0" x="197.86" y="128.11" font-size="3.05" opacity="1.00" font-family="Microsoft Sans Serif">1000YBW0</text></g></g><g id="PMI28.0"><g><path style="stroke:#000000;stroke-width:0.281" d="M183.20,159.55L183.28,154.08"/></g><g><path style="fill:#000000" d="M184.28,154.09L182.28,154.06L183.31,152.07z"/></g><g><path style="fill:#ffffff" d="M175.25,164.63L191.07,164.63L191.07,159.55L175.25,159.55z"/><path style="stroke:#000000;stroke-width:0.280;stroke-opacity:0.98" d="M175.25,164.63L191.07,164.63L191.07,159.55L175.25,159.55z"/><text xml:space="preserve" fill="#000000" stroke-width="0" x="175.89" y="163.20" font-size="3.04" opacity="1.00" font-family="Microsoft Sans Serif">1000ZYR0</text></g></g><g id="PMI29.0"><g><path style="stroke:#000000;stroke-width:0.281" d="M201.22,96.51L197.86,96.64"/></g><g><path style="fill:#000000" d="M197.82,95.64L197.90,97.64L195.86,96.73z"/></g><g><path style="fill:#ffffff" d="M201.22,98.73L216.86,98.73L216.86,93.65L201.22,93.65z"/><path style="stroke:#000000;stroke-width:0.280;stroke-opacity:0.98" d="M201.22,98.73L216.86,98.73L216.86,93.65L201.22,93.65z"/><text xml:space="preserve" fill="#000000" stroke-width="0" x="201.85" y="97.30" font-size="3.04" opacity="1.00" font-family="Microsoft Sans Serif">1000ZYS0</text></g></g><g/><g id="paperID" visibility="hidden" opacity="0.00" transform="scale(0.000100)"><path style="stroke:#000000;stroke-width:0.500;fill:#e6e6e6;fill-rule:evenodd" d="M-2000.00,-2000.00L2297.00,-2000.00L2297.00,2210.00L-2000.00,2210.00zM0.00,0.00L297.00,0.00L297.00,210.00L0.00,210.00z"/><path style="fill:#000000;fill-opacity:0.118" d="M3.00,210.00L297.00,210.00L297.00,3.00L300.00,3.00L300.00,213.00L3.00,213.00z"/></g><g id="hotspot.0" onmouseover="ShowHotSpot(evt,'0')" onmouseout="HideHotSpot(evt,'0')" onmousemove="ShowToolTip(evt,'0',&quot;3dp334807 (I_BULONG TAI KHA M8X18.331)&quot;)" opacity="0"><path style="fill:#00ff00;fill-rule:evenodd" d="M209.02,40.61L209.02,42.12L208.37,42.36L207.64,42.32L207.33,42.02L205.77,41.84L205.87,40.98L207.50,40.58L208.16,40.30zM150.86,48.30L150.74,49.46L149.29,49.84L149.28,47.75L150.54,47.75zM145.44,48.88L145.45,49.55L145.10,50.10L143.89,50.42L143.88,48.29L144.85,48.29zM180.48,144.19L180.83,144.74L180.82,145.41L179.84,146.21L179.36,146.20L179.06,143.96L179.63,143.86zM224.97,144.75L225.22,145.09L227.67,145.50L225.21,145.61L224.97,146.26L224.47,146.21L223.81,146.77L222.66,146.82L222.42,146.48L220.88,146.26L220.88,145.61L222.43,145.41L222.90,144.70zM227.67,145.50L229.87,145.42L230.04,143.02L248.41,143.02L248.41,148.27L230.04,148.27L229.87,145.87z"/></g><g id="hotspot.1" onmouseover="ShowHotSpot(evt,'1')" onmouseout="HideHotSpot(evt,'1')" onmousemove="ShowToolTip(evt,'1',&quot;3dp335028 (I_AI C M M8.336)&quot;)" opacity="0"><path style="fill:#00ff00;fill-rule:evenodd" d="M98.94,43.43L98.82,44.91L97.74,44.92L97.10,44.68L97.20,43.56L97.96,43.15L98.64,43.12zM149.43,48.59L149.12,49.54L147.65,49.49L147.31,49.25L147.39,48.10L149.12,48.03zM141.97,48.68L143.71,48.58L143.71,50.13L141.97,50.04zM187.66,64.86L187.35,65.81L185.88,65.75L185.54,65.52L185.64,64.38L186.40,63.97L187.07,63.96zM189.82,66.58L190.37,66.27L191.64,66.27L191.53,68.03L190.77,68.03L189.91,67.72zM136.88,115.61L136.75,117.10L135.99,117.10L135.12,116.79L135.13,115.75L135.90,115.33L136.58,115.31zM136.31,121.88L136.19,123.37L135.12,123.37L134.56,123.05L134.56,122.02L135.33,121.61L136.01,121.58zM139.97,121.43L141.71,121.34L141.62,122.79L139.97,122.79zM179.11,144.42L179.08,145.99L177.61,145.92L177.27,145.69L177.37,144.55L178.13,144.15L178.81,144.12zM47.24,151.98L47.72,151.58L49.27,151.58L49.28,153.13L48.06,153.29L48.08,153.55L46.42,154.56L46.12,153.89L40.60,153.86L40.43,155.98L22.05,155.98L22.05,150.72L40.43,150.72L40.60,153.41L46.40,153.38L46.72,152.74L47.24,152.75z"/></g><g id="hotspot.2" onmouseover="ShowHotSpot(evt,'2')" onmouseout="HideHotSpot(evt,'2')" onmousemove="ShowToolTip(evt,'2',&quot;3dp337321 (I_3DPart337321.8)&quot;)" opacity="0"><path style="fill:#00ff00;fill-rule:evenodd" d="M139.98,33.49L141.43,36.31L141.41,38.42L133.71,113.48L130.75,112.88L132.28,97.76L132.28,95.65L131.73,95.75L131.42,95.12L127.92,94.88L127.79,94.71L131.71,94.60L132.01,93.98L132.56,94.07L139.12,30.32zM127.36,94.32L127.79,94.71L127.33,94.81L127.16,97.20L119.06,97.20L119.06,91.95L127.16,91.95zM132.87,122.51L132.59,125.74L131.89,126.46L133.46,127.60L132.56,128.02L131.72,127.91L131.32,127.33L129.14,129.74L129.34,126.20L130.01,120.75z"/></g><g id="hotspot.3" onmouseover="ShowHotSpot(evt,'3')" onmouseout="HideHotSpot(evt,'3')" onmousemove="ShowToolTip(evt,'3',&quot;prd334409 (I_Symmetry of HP 20X30X1.0X907.1)&quot;)" opacity="0"><path style="fill:#00ff00;fill-rule:evenodd" d="M197.89,64.59L198.75,64.69L198.95,63.71L201.04,63.40L201.04,65.52L200.77,67.25L198.17,67.16L141.61,38.70L141.61,36.59L141.96,36.56zM133.40,123.64L134.57,123.91L144.55,129.34L146.82,130.78L149.70,131.04L170.52,142.18L173.96,144.15L174.22,145.31L175.35,145.90L177.95,146.16L187.63,151.31L187.83,152.53L189.04,153.33L191.64,153.58L191.62,155.68L191.35,157.12L188.76,157.03L183.90,154.39L183.55,154.42L183.53,159.11L191.07,159.28L191.07,164.54L175.26,164.54L175.26,159.28L183.08,159.11L183.10,154.13L179.65,152.16L132.24,126.78L131.89,126.46L132.59,125.74L132.86,123.32z"/></g><g id="hotspot.4" onmouseover="ShowHotSpot(evt,'4')" onmouseout="HideHotSpot(evt,'4')" onmousemove="ShowToolTip(evt,'4',&quot;prd334410 (I_Symmetry of HP SPHC 20X30X1.0X669.2)&quot;)" opacity="0"><path style="fill:#00ff00;fill-rule:evenodd" d="M144.58,40.30L144.55,42.41L143.90,48.33L141.97,48.67L141.97,50.04L143.72,50.31L137.41,112.31L135.32,112.78L135.13,113.76L133.91,113.45L135.33,97.96L141.42,38.58zM158.25,47.12L155.69,71.53L153.58,71.69L153.40,73.23L153.40,75.41L155.10,76.27L155.10,77.79L152.56,101.77L150.70,101.91L150.41,102.20L150.17,105.75L152.00,106.77L151.97,108.60L149.70,130.87L146.82,130.78L145.89,130.29L146.17,125.06L154.42,45.18zM184.49,60.29L183.55,71.80L185.38,72.82L185.35,74.65L178.22,143.42L177.91,144.24L177.38,144.56L177.31,145.69L177.64,145.93L175.35,145.90L174.23,145.31L174.22,142.55L182.78,59.79L183.35,59.69zM198.17,67.16L200.48,67.42L200.47,69.80L198.38,89.11L197.80,96.35L199.43,96.43L198.10,96.83L197.89,97.42L197.64,97.41L191.64,153.41L189.04,153.33L187.84,152.53L188.11,148.17L196.67,66.55L197.03,66.52zM217.05,93.64L217.03,98.63L201.22,98.63L201.05,96.52L199.43,96.43L201.06,96.07L201.22,93.38L216.77,93.35zM134.02,123.09L134.02,123.73L133.43,123.68L132.84,123.32L132.84,122.86L133.43,122.73z"/></g><g id="hotspot.5" onmouseover="ShowHotSpot(evt,'5')" onmouseout="HideHotSpot(evt,'5')" onmousemove="ShowToolTip(evt,'5',&quot;prd334411 (I_Symmetry of PAT BT BN L SS400 T2.0.8)&quot;)" opacity="0"><path style="fill:#00ff00;fill-rule:evenodd" d="M200.20,44.05L198.63,44.28L198.35,44.58L197.78,48.97L202.48,48.99L202.65,46.30L218.46,46.30L218.46,51.56L202.65,51.56L202.48,49.44L198.10,49.46L197.60,50.95L197.32,54.29L199.06,55.17L196.46,55.17L185.34,49.45L185.34,48.41L186.48,38.40L188.79,38.31zM143.41,115.64L146.86,117.61L145.69,129.74L145.13,129.66L134.17,123.67L134.17,123.34L134.54,123.31L135.40,123.94L136.56,124.21L141.61,124.20L142.29,123.17L142.27,120.77L141.73,119.60L138.60,115.89L136.28,114.22L135.42,113.94L135.31,112.78L137.42,112.47zM188.54,41.73L188.49,42.17L188.12,42.14L188.07,41.47zM193.39,47.44L193.34,47.87L192.97,47.85L192.92,47.18z"/></g><g id="hotspot.6" onmouseover="ShowHotSpot(evt,'6')" onmouseout="HideHotSpot(evt,'6')" onmousemove="ShowToolTip(evt,'6',&quot;prd334413 (I_Symmetry of Symmetry of PAT BT CY KHA SS400 T2.0.10)&quot;)" opacity="0"><path style="fill:#00ff00;fill-rule:evenodd" d="M196.48,66.29L196.48,68.37L195.36,77.78L183.55,71.80L184.41,62.01L184.69,60.55L185.04,60.53zM197.23,129.44L197.23,124.19L213.89,124.19L213.89,129.44L205.79,129.61L205.81,136.27L206.47,136.49L206.35,137.69L211.07,140.16L209.02,140.54L208.17,148.26L208.18,150.45L209.89,151.31L209.25,151.61L207.87,151.61L195.91,145.31L195.91,143.12L196.93,134.16L197.20,133.87L199.35,133.89L203.61,136.18L204.67,136.51L205.32,136.27L205.33,129.61zM187.64,64.30L187.66,65.25L187.34,65.81L185.88,65.75L185.54,65.52L185.64,64.38L186.40,63.98L187.07,63.97zM191.95,66.54L191.94,67.53L191.52,68.02L190.77,68.03L189.91,67.72L189.82,66.58L190.37,66.26L191.66,66.25z"/></g><g id="hotspot.7" onmouseover="ShowHotSpot(evt,'7')" onmouseout="HideHotSpot(evt,'7')" onmousemove="ShowToolTip(evt,'7',&quot;prd337322 (I_Symmetry of ROAN CA SAU.9)&quot;)" opacity="0"><path style="fill:#00ff00;fill-rule:evenodd" d="M130.85,152.76L131.67,152.82L131.95,152.46L132.56,152.41L183.07,179.83L189.09,183.23L189.06,184.79L188.78,185.64L188.11,186.15L187.35,186.15L186.11,185.80L185.93,187.92L185.64,188.76L149.38,168.94L149.03,168.97L149.01,173.38L152.84,173.55L152.84,178.80L144.73,178.80L144.73,173.55L148.56,173.38L148.53,169.01L147.89,168.77L147.94,168.12L126.58,156.43L126.59,155.42L129.03,152.71L129.74,152.15z"/></g><g id="hotspot.8" onmouseover="ShowHotSpot(evt,'8')" onmouseout="HideHotSpot(evt,'8')" onmousemove="ShowToolTip(evt,'8',&quot;prd334414 (I_Symmetry of HP SPHC 20X30X1.0X417.11)&quot;)" opacity="0"><path style="fill:#00ff00;fill-rule:evenodd" d="M180.26,84.25L179.64,88.66L179.08,88.58L167.93,82.82L167.94,83.38L167.30,83.69L167.27,88.07L175.11,88.22L175.40,88.50L175.38,93.49L158.71,93.49L158.71,88.24L166.82,88.07L166.79,83.41L166.12,83.11L166.54,82.22L153.40,75.41L153.40,73.23L153.58,71.69L155.98,71.69zM173.39,112.77L173.95,113.92L176.79,115.36L176.79,117.73L176.54,119.44L150.17,105.75L150.41,102.20L150.70,101.91L152.56,101.94z"/></g><g id="hotspot.9" onmouseover="ShowHotSpot(evt,'9')" onmouseout="HideHotSpot(evt,'9')" onmousemove="ShowToolTip(evt,'9',&quot;prd334415 (I_Symmetry of PAT BT TAY KHA CA SS400 T2.0.13)&quot;)" opacity="0"><path style="fill:#00ff00;fill-rule:evenodd" d="M177.38,108.78L177.36,112.03L176.98,115.10L176.22,115.10L173.94,113.93L173.94,111.74L174.21,108.87L174.71,107.65L175.66,107.63zM176.55,119.63L175.95,125.45L175.55,125.92L174.50,125.93L173.08,125.06L172.81,123.87L172.55,123.64L172.24,123.71L171.94,123.08L170.61,122.97L171.64,122.56L171.95,121.89L172.83,122.30L173.28,118.18L173.93,118.17zM168.70,122.88L170.61,122.97L168.70,123.33L168.53,126.02L152.44,126.02L152.44,120.77L168.53,120.77z"/></g></g></svg>
