<?xml version="1.0" encoding="UTF-8" standalone="no"?>
<svg xmlns="http://www.w3.org/2000/svg" xmlns:xlink="http://www.w3.org/1999/xlink" width="297.000mm" height="210.000mm" viewBox="0.000000 0.000000 297.000000 210.000000" stroke-linejoin="round" stroke-linecap="round" fill="none" fill-rule="evenodd"><desc>Composer Export</desc><script type="text/ecmascript"><![CDATA[
if(typeof(top) != "undefined")
{
	top.ShowPaper = ShowPaper;
}
function ShowHotSpot(evt,hotspotid)
{
	var svgDocument = evt.target.ownerDocument;
	var strId = "hotspot."+hotspotid;
	var hotspot = svgDocument.getElementById(strId);
	if(hotspot)
		hotspot.setAttribute("opacity",".5");
}
function HideHotSpot(evt,hotspotid)
{
	var svgDocument = evt.target.ownerDocument;
	var strId = "hotspot."+hotspotid;
	var hotspot = svgDocument.getElementById(strId);
	if(hotspot)
		hotspot.setAttribute("opacity","0");

	var toolTip = svgDocument.getElementById('ToolTip');
	if(toolTip)
		toolTip.setAttribute("visibility","hidden");
}
function ShowToolTip(evt,hotspotid,strTooltip)
{
	if(strTooltip=="")
	return;

	// change text
	var svgDocument = evt.target.ownerDocument;
	var tiptext = svgDocument.getElementById('ToolTipText');
	if( !tiptext )
	return;
	tiptext.firstChild.nodeValue = " " + strTooltip + "  " ;

	// show tooltip before, else some refresh issue

	var toolTip = svgDocument.getElementById('ToolTip');
	if(!toolTip)
	return;

	toolTip.setAttribute("visibility","visible");
	toolTip.setAttribute("opacity",".95");

	// move tooltip
	// get viewbox

	var root = svgDocument.documentElement;
	var vbox = (root.getAttribute("viewBox")).split(' ');
	var x0 = parseFloat(vbox[0]);
	var y0 = parseFloat(vbox[1]);
	var vboxW = parseFloat(vbox[2]);
	var vboxH = parseFloat(vbox[3]);

	// get default width of svg

	var strW = root.getAttribute("width");
	var svgW = parseFloat(strW);
	if(strW.indexOf('mm') != -1)
	svgW *= 3.779;

	var strH = root.getAttribute("height");
	var svgH = parseFloat(strH);
	if(strH.indexOf('mm') != -1)
	svgH *= 3.779;  	// 96 dpi  -> 96/25.4 = 3.779

	// update the viewbox / width / height if svg is embedded in html with zoom fit all
	var realx0 = x0;
	var realy0 = y0;
	var realvboxW = vboxW;
	var realvboxH = vboxH;
	var realsvgW = svgW;
	var realsvgH = svgH;

	if ((typeof(top) == "undefined") || (typeof(top.svgctl1) != "undefined")) // embedded in html
	{
		// get window size in pxl

		svgW = window.innerWidth;
		svgH = window.innerHeight;

		// calculate real viewbox

		realsvgW = svgW;
		realsvgH = svgH;
		if((svgW / svgH) > (vboxW / vboxH))
		{
			realvboxW = (vboxH * svgW) / svgH;
			realvboxH = vboxH;
			realx0 = x0 - (realvboxW - vboxW)/2 ;
		}
		else
		{
			realvboxH = (vboxW * svgH) / svgW;
			realvboxW = vboxW;
			realy0 = y0 - (realvboxH - vboxH)/2 ;
		}
	}

	// get user zoom/pan

	var newScale = root.currentScale;
	var translation = root.currentTranslate;

	// transform pxl to user unit

	var xPos = (((evt.clientX+10- translation.x)/newScale) * realvboxW)/realsvgW  + realx0 ;
	var yPos = (((evt.clientY+5- translation.y)/newScale) * realvboxH)/ realsvgH  + realy0 ;
	var scaleForWidth = ( (1 / newScale) * realvboxH) / realsvgH;

	// move tooltip

	toolTip.setAttribute("transform", "translate(" + xPos + "," + yPos + ")" );

	// resize tooltip

	var fontsize = 12;
	tiptext.setAttribute("font-size",fontsize*scaleForWidth);
	tiptext.setAttribute("y", fontsize*scaleForWidth);
	var tipBG = svgDocument.getElementById('ToolTipBG');
	var outline = tiptext.getBBox();
	if(tipBG)
	{
		tipBG.setAttribute("stroke-width", 1*scaleForWidth);
		tipBG.setAttribute("width", Number(outline.width) );
		tipBG.setAttribute("height", Number(outline.height) + fontsize*.5*scaleForWidth );
	}
	var ToolTipShadow = svgDocument.getElementById('ToolTipShadow');
	if(ToolTipShadow)
	{
		ToolTipShadow.setAttribute("width", Number(outline.width) );
		ToolTipShadow.setAttribute("height", Number(outline.height) + fontsize*.5*scaleForWidth );
		ToolTipShadow.setAttribute("x", 3*scaleForWidth);
		ToolTipShadow.setAttribute("y", 3*scaleForWidth);
	}
}
function ShowPaper()
{
  var svgDocument = getDocument();
  var paper = svgDocument.getElementById("paperID");
  if(paper)
  {
    paper.setAttribute("transform","scale(1)");
    paper.setAttribute("opacity","1");
    paper.setAttribute("visibility","visible");
  }
  var svg = svgDocument.getRootElement();
  if(svg)
  {
    svg.setAttribute("width","307.000mm");
    svg.setAttribute("height","220.000mm");
    svg.setAttribute("viewBox","-5.000000 -5.000000 307.000000 220.000000");
  }
}
]]></script><defs/><g><g><g><path style="stroke:#000000;stroke-width:0.350;fill:#ffffff" d="M214.70,139.74L212.76,138.75L210.77,137.86L208.74,137.06L206.67,136.38L204.57,135.79L202.45,135.31L200.30,134.94L198.14,134.67L195.97,134.52L193.79,134.47L191.61,134.53L189.44,134.70L187.28,134.98L185.14,135.37L183.02,135.86L180.92,136.46L178.86,137.16L176.83,137.96L174.85,138.87L172.92,139.87L171.04,140.97L169.21,142.16L167.45,143.44L165.75,144.80L165.68,144.87L165.68,144.87L167.48,143.71L169.34,142.64L171.25,141.67L173.20,140.80L175.20,140.02L177.23,139.34L179.29,138.77L181.38,138.30L183.49,137.94L185.61,137.68L187.75,137.53L189.89,137.48L192.03,137.54L194.17,137.71L196.29,137.99L198.40,138.37L200.48,138.85L202.54,139.44L204.57,140.14L206.56,140.93L208.50,141.82L210.40,142.80L212.25,143.89L212.29,143.91z"/></g><g><path style="fill:#ffffff" d="M235.32,144.55L235.23,146.42L234.95,148.28L234.50,150.10L233.86,151.86L233.06,153.55L232.10,155.16L230.98,156.67L229.72,158.06L228.34,159.31L226.83,160.43L225.22,161.39L223.53,162.20L221.76,162.83L219.95,163.28L218.09,163.56L216.22,163.65L214.35,163.56L212.50,163.28L210.68,162.83L208.91,162.20L207.22,161.39L205.61,160.43L204.11,159.31L202.72,158.06L201.46,156.67L200.34,155.16L199.38,153.55L198.58,151.86L197.95,150.10L197.49,148.28L197.22,146.42L197.13,144.55L197.22,142.68L197.49,140.83L197.95,139.01L198.58,137.24L199.38,135.55L200.34,133.94L201.46,132.44L202.72,131.05L204.11,129.79L205.61,128.67L207.22,127.71L208.91,126.91L210.68,126.28L212.50,125.82L214.35,125.55L216.22,125.46L218.09,125.55L219.95,125.82L221.76,126.28L223.53,126.91L225.22,127.71L226.83,128.67L228.34,129.79L229.72,131.05L230.98,132.44L232.10,133.94L233.06,135.55L233.86,137.24L234.50,139.01L234.95,140.83L235.23,142.68L235.32,144.55z"/><path style="stroke:#ff0000;stroke-width:0.470;stroke-opacity:0.00" d="M234.36,144.55L234.01,148.09L232.98,151.50L231.31,154.63L229.05,157.38L226.30,159.64L223.16,161.31L219.76,162.35L216.22,162.69L212.68,162.35L209.28,161.31L206.14,159.64L203.39,157.38L201.14,154.63L199.46,151.50L198.43,148.09L198.08,144.55L198.43,141.01L199.46,137.61L201.14,134.47L203.39,131.72L206.14,129.47L209.28,127.79L212.68,126.76L216.22,126.41L219.76,126.76L223.16,127.79L226.30,129.47L229.05,131.72L231.31,134.47L232.98,137.61L234.01,141.01L234.36,144.55"/><path style="stroke:#000000;stroke-width:0.058" d="M213.77,126.67L220.50,127.01"/><path style="stroke:#000000;stroke-width:0.058" d="M221.34,148.99L220.66,149.26L219.33,149.45L217.54,149.53L215.58,149.50L213.75,149.35L212.30,149.10L211.48,148.80L211.41,148.49"/><path style="stroke:#000000;stroke-width:0.058" d="M214.05,148.78L213.89,148.62L214.60,148.42L215.98,148.34L217.52,148.42L218.61,148.62L218.86,148.86L218.15,149.07L216.76,149.14L215.24,149.07L214.14,148.86L214.05,148.78"/><path style="stroke:#000000;stroke-width:0.058" d="M211.44,149.70L211.46,149.79L212.28,150.09L213.72,150.34L215.56,150.49L216.87,150.51L217.52,150.53L219.30,150.45L220.64,150.25L221.31,149.98L221.34,148.99L221.26,148.68L220.44,148.38L219.00,148.14L217.16,147.99L215.20,147.94L213.42,148.03L212.09,148.22L211.41,148.49L211.38,149.48L211.44,149.70"/><path style="stroke:#000000;stroke-width:0.058" d="M212.89,160.54L212.92,160.56"/><path style="stroke:#000000;stroke-width:0.058" d="M212.78,157.22L212.69,157.28"/><path style="stroke:#000000;stroke-width:0.058" d="M212.50,157.38L212.63,157.35L212.80,157.32L212.95,157.33L213.10,157.36"/><path style="stroke:#000000;stroke-width:0.058" d="M212.93,157.15L212.77,157.23"/><path style="stroke:#000000;stroke-width:0.058" d="M213.11,160.67L213.11,160.67"/><path style="stroke:#000000;stroke-width:0.058" d="M213.16,160.69L213.16,160.69"/><path style="stroke:#000000;stroke-width:0.058" d="M213.24,157.42L213.35,157.49L213.50,157.61L213.69,157.80L213.82,157.95L213.75,160.66L213.61,160.70L213.48,160.73L213.33,160.72L213.21,160.70"/><path style="stroke:#000000;stroke-width:0.058" d="M213.05,160.65L213.05,160.65"/><path style="stroke:#000000;stroke-width:0.058" d="M212.93,160.57L213.03,160.63"/><path style="stroke:#000000;stroke-width:0.058" d="M213.23,157.40L213.64,157.53L214.28,157.64L214.97,157.71L215.74,157.77L216.62,157.79L217.27,157.78L218.06,157.73L218.66,157.65"/><path style="stroke:#000000;stroke-width:0.058" d="M213.19,157.39L213.18,157.38"/><path style="stroke:#000000;stroke-width:0.058" d="M213.12,157.36L213.11,157.35"/><path style="stroke:#000000;stroke-width:0.058" d="M213.08,157.34L213.08,157.34"/><path style="stroke:#000000;stroke-width:0.058" d="M213.05,157.32L212.98,157.25L212.97,157.18L213.02,157.11L213.10,157.06"/><path style="stroke:#000000;stroke-width:0.058" d="M213.14,157.38L213.13,157.37"/><path style="stroke:#000000;stroke-width:0.058" d="M213.42,156.96L213.43,156.96"/><path style="stroke:#000000;stroke-width:0.058" d="M215.50,161.03L215.03,160.98L214.61,160.91L214.08,160.77L213.75,160.66"/><path style="stroke:#000000;stroke-width:0.058" d="M215.80,157.78L215.33,157.76L214.82,157.79L214.40,157.84L213.82,157.95"/><path style="stroke:#000000;stroke-width:0.058" d="M214.54,157.51L214.82,157.44L215.26,157.38L215.71,157.37L216.20,157.37L216.69,157.40L217.13,157.44L217.48,157.51L217.74,157.59L218.09,157.54L218.31,157.48L218.44,157.41L218.48,157.37L218.49,157.34L218.48,157.31L218.44,157.26L218.28,157.18L218.04,157.12L217.72,157.05L217.25,156.99L216.80,156.95L215.84,156.91L214.94,156.93L214.55,156.98L214.21,157.03L213.97,157.10L213.84,157.16L213.82,157.20L213.81,157.24L213.89,157.32"/><path style="stroke:#000000;stroke-width:0.058" d="M213.91,157.33L214.10,157.40L214.47,157.49L214.97,157.57L215.47,157.61L216.09,157.65L216.65,157.65L217.19,157.64L217.74,157.59"/><path style="stroke:#000000;stroke-width:0.058" d="M213.89,157.32L213.89,157.32"/><path style="stroke:#000000;stroke-width:0.058" d="M213.67,156.91L213.75,156.89"/><path style="stroke:#000000;stroke-width:0.058" d="M215.64,161.04L215.60,161.03"/><path style="stroke:#000000;stroke-width:0.058" d="M215.67,161.04L215.60,161.04"/><path style="stroke:#000000;stroke-width:0.058" d="M215.31,161.02L215.53,161.03"/><path style="stroke:#000000;stroke-width:0.058" d="M215.74,161.04L216.06,161.04L216.51,161.00L216.97,160.93L217.39,160.85L217.60,160.90L217.88,160.95L218.11,160.96L218.31,160.96"/><path style="stroke:#000000;stroke-width:0.058" d="M216.20,161.06L216.30,161.06"/><path style="stroke:#000000;stroke-width:0.058" d="M215.87,161.05L215.91,161.05"/><path style="stroke:#000000;stroke-width:0.058" d="M218.67,160.91L218.96,160.82L219.15,160.75L219.44,160.61L219.71,160.46L219.78,157.75L219.50,157.69L219.23,157.65L218.95,157.63L218.66,157.66L218.38,157.72L218.10,157.81L217.78,157.96L217.46,158.14L217.04,158.01L216.59,157.89L216.15,157.81L215.82,157.78"/><path style="stroke:#000000;stroke-width:0.058" d="M216.24,156.79L216.35,156.79"/><path style="stroke:#000000;stroke-width:0.058" d="M216.54,161.06L216.64,161.06"/><path style="stroke:#000000;stroke-width:0.058" d="M216.46,156.79L216.91,156.81"/><path style="stroke:#000000;stroke-width:0.058" d="M217.39,160.85L217.46,158.14"/><path style="stroke:#000000;stroke-width:0.058" d="M218.39,160.95L218.38,160.95"/><path style="stroke:#000000;stroke-width:0.058" d="M218.48,160.94L218.48,160.94"/><path style="stroke:#000000;stroke-width:0.058" d="M218.59,160.92L218.56,160.93"/><path style="stroke:#000000;stroke-width:0.058" d="M218.67,160.91L218.69,160.91"/><path style="stroke:#000000;stroke-width:0.058" d="M219.08,160.79L219.08,160.79"/><path style="stroke:#000000;stroke-width:0.058" d="M219.31,157.30L219.33,157.35L219.32,157.40L219.28,157.45L219.23,157.49L219.02,157.57L218.74,157.64"/><path style="stroke:#000000;stroke-width:0.058" d="M218.91,157.10L219.07,157.16L219.21,157.22"/><path style="stroke:#000000;stroke-width:0.058" d="M219.29,157.28L219.29,157.28"/><path style="stroke:#000000;stroke-width:0.058" d="M219.33,157.30L219.33,157.30"/><path style="stroke:#000000;stroke-width:0.058" d="M219.21,157.22L219.21,157.22"/><path style="stroke:#000000;stroke-width:0.058" d="M212.69,157.28L212.50,157.38L212.43,160.09L212.67,160.35L212.89,160.54"/><path style="stroke:#000000;stroke-width:0.058" d="M212.92,160.56L212.93,160.57"/><path style="stroke:#000000;stroke-width:0.058" d="M215.31,161.02L214.58,160.96L214.10,160.90L213.62,160.81L213.24,160.72"/><path style="stroke:#000000;stroke-width:0.058" d="M213.42,156.96L213.14,157.04"/><path style="stroke:#000000;stroke-width:0.058" d="M216.24,156.79L215.46,156.77L214.82,156.79L214.34,156.83L213.75,156.89"/><path style="stroke:#000000;stroke-width:0.058" d="M215.74,161.05L215.87,161.05"/><path style="stroke:#000000;stroke-width:0.058" d="M216.20,161.06L215.97,161.05"/><path style="stroke:#000000;stroke-width:0.058" d="M218.39,160.96L217.65,161.03L216.64,161.06"/><path style="stroke:#000000;stroke-width:0.058" d="M216.54,161.06L216.30,161.06"/><path style="stroke:#000000;stroke-width:0.058" d="M216.35,156.79L216.46,156.79"/><path style="stroke:#000000;stroke-width:0.058" d="M216.91,156.81L217.44,156.85L218.02,156.93L218.52,157.01L218.91,157.10"/><path style="stroke:#000000;stroke-width:0.058" d="M219.08,160.79L218.74,160.90"/><path style="stroke:#000000;stroke-width:0.058" d="M219.33,157.30L219.55,157.49L219.78,157.75"/><path style="stroke:#000000;stroke-width:0.058" d="M212.77,131.18L212.79,130.99L212.85,131.18"/><path style="stroke:#000000;stroke-width:0.058" d="M212.74,131.07L212.73,130.88L212.73,131.07"/><path style="stroke:#000000;stroke-width:0.058" d="M212.75,130.14L212.80,130.26L213.05,130.40L213.40,130.51L213.87,130.62L214.55,130.73L215.22,130.80L216.71,130.89L218.34,130.89L219.68,130.80L220.23,130.71L220.60,130.62L220.85,130.51L220.92,130.45L220.97,130.37"/><path style="stroke:#000000;stroke-width:0.058" d="M212.75,130.16L212.73,130.54"/><path style="stroke:#000000;stroke-width:0.058" d="M212.89,129.98L212.93,129.96"/><path style="stroke:#000000;stroke-width:0.058" d="M213.19,131.39L213.24,131.21L213.38,131.37"/><path style="stroke:#000000;stroke-width:0.058" d="M212.93,131.29L212.96,131.11"/><path style="stroke:#000000;stroke-width:0.058" d="M212.96,131.10L213.07,131.28"/><path style="stroke:#000000;stroke-width:0.058" d="M214.18,127.80L214.32,127.94L214.46,128.16L214.73,128.82L214.69,130.25L214.32,129.87L214.12,129.74L213.92,129.67L213.77,129.66L213.57,129.68L213.40,129.72L213.12,129.87"/><path style="stroke:#000000;stroke-width:0.058" d="M213.48,128.29L213.48,128.28"/><path style="stroke:#000000;stroke-width:0.058" d="M213.55,131.49L213.61,131.30L213.79,131.46"/><path style="stroke:#000000;stroke-width:0.058" d="M214.01,131.57L214.08,131.39L214.27,131.53"/><path style="stroke:#000000;stroke-width:0.058" d="M213.58,128.11L213.74,127.90L213.85,127.80L213.97,127.75L214.07,127.75"/><path style="stroke:#000000;stroke-width:0.058" d="M214.05,127.73L214.03,127.72"/><path style="stroke:#000000;stroke-width:0.058" d="M213.94,127.55L213.93,127.62L214.01,127.70"/><path style="stroke:#000000;stroke-width:0.058" d="M214.54,131.66L214.61,131.47L214.81,131.59"/><path style="stroke:#000000;stroke-width:0.058" d="M216.13,128.10L215.01,127.98L214.26,127.81"/><path style="stroke:#000000;stroke-width:0.058" d="M214.21,127.80L214.20,127.80"/><path style="stroke:#000000;stroke-width:0.058" d="M214.09,127.75L214.10,127.76"/><path style="stroke:#000000;stroke-width:0.058" d="M214.09,127.75L214.09,127.75"/><path style="stroke:#000000;stroke-width:0.058" d="M214.06,127.74L214.07,127.74"/><path style="stroke:#000000;stroke-width:0.058" d="M214.55,127.33L214.59,127.31L214.46,127.34"/><path style="stroke:#000000;stroke-width:0.058" d="M214.59,127.31L214.64,127.31"/><path style="stroke:#000000;stroke-width:0.058" d="M215.09,140.93L215.05,140.89"/><path style="stroke:#000000;stroke-width:0.058" d="M214.65,140.47L214.88,140.59L215.37,140.69L215.93,140.75L216.62,140.79L217.23,140.79L217.83,140.75L218.25,140.69L218.52,140.58"/><path style="stroke:#000000;stroke-width:0.058" d="M214.67,140.49L214.84,140.67"/><path style="stroke:#000000;stroke-width:0.058" d="M214.63,140.43L214.63,140.42"/><path style="stroke:#000000;stroke-width:0.058" d="M214.63,140.38L214.63,140.40"/><path style="stroke:#000000;stroke-width:0.058" d="M215.77,131.78L215.98,131.64L215.86,131.58L215.77,131.78L215.62,131.76L215.22,131.53L215.13,131.72L214.99,131.71L214.86,131.63"/><path style="stroke:#000000;stroke-width:0.058" d="M215.13,131.72L215.39,131.64"/><path style="stroke:#000000;stroke-width:0.058" d="M214.69,130.25L215.56,130.10L215.99,130.07L216.40,130.07L217.21,130.18L218.11,130.42L218.15,129.00L217.81,128.71L217.54,128.51"/><path style="stroke:#000000;stroke-width:0.058" d="M214.73,128.82L215.13,128.53L215.56,128.29L215.94,128.17L216.32,128.11"/><path style="stroke:#000000;stroke-width:0.058" d="M214.61,127.31L214.67,127.31"/><path style="stroke:#000000;stroke-width:0.058" d="M215.98,131.64L216.29,131.80L216.44,131.81L216.53,131.62L216.97,131.83L217.11,131.83L217.21,131.64L217.64,131.84L217.78,131.83L217.88,131.63L218.29,131.82L218.42,131.82L218.52,131.62L218.91,131.79"/><path style="stroke:#000000;stroke-width:0.058" d="M216.24,128.11L216.35,128.11"/><path style="stroke:#000000;stroke-width:0.058" d="M216.67,128.13L217.99,128.13L218.62,128.10L219.17,128.04"/><path style="stroke:#000000;stroke-width:0.058" d="M216.56,128.12L216.57,128.13"/><path style="stroke:#000000;stroke-width:0.058" d="M216.46,128.12L216.66,128.14L216.93,128.21L217.43,128.44"/><path style="stroke:#000000;stroke-width:0.058" d="M217.29,127.21L217.46,127.23"/><path style="stroke:#000000;stroke-width:0.058" d="M217.43,127.22L217.53,127.23"/><path style="stroke:#000000;stroke-width:0.058" d="M218.22,140.85L218.07,140.99"/><path style="stroke:#000000;stroke-width:0.058" d="M218.51,131.64L218.78,131.74"/><path style="stroke:#000000;stroke-width:0.058" d="M218.11,130.42L218.44,130.24L218.76,130.09L219.11,129.99L219.38,129.95L219.80,129.96L220.29,130.06L220.29,129.88L220.80,130.17L220.75,130.15"/><path style="stroke:#000000;stroke-width:0.058" d="M218.15,129.00L218.42,128.64L218.69,128.34L218.93,128.15L219.17,128.05"/><path style="stroke:#000000;stroke-width:0.058" d="M219.09,131.65L219.11,131.57L219.46,131.74"/><path style="stroke:#000000;stroke-width:0.058" d="M219.62,131.62L219.65,131.53L219.95,131.68"/><path style="stroke:#000000;stroke-width:0.058" d="M219.90,127.69L219.92,127.77L219.81,127.87L219.61,127.95L219.29,128.01"/><path style="stroke:#000000;stroke-width:0.058" d="M219.21,128.03L219.30,128.02"/><path style="stroke:#000000;stroke-width:0.058" d="M220.33,128.64L220.06,128.35L219.82,128.15L219.56,128.04L219.35,128.01"/><path style="stroke:#000000;stroke-width:0.058" d="M219.65,127.54L219.68,127.56"/><path style="stroke:#000000;stroke-width:0.058" d="M220.35,131.61L220.11,131.46L220.07,131.57"/><path style="stroke:#000000;stroke-width:0.058" d="M219.95,127.76L219.93,127.74"/><path style="stroke:#000000;stroke-width:0.058" d="M219.75,127.59L219.84,127.64"/><path style="stroke:#000000;stroke-width:0.058" d="M219.70,127.56L219.72,127.58L219.68,127.56"/><path style="stroke:#000000;stroke-width:0.058" d="M220.65,131.52L220.47,131.38L220.44,131.49"/><path style="stroke:#000000;stroke-width:0.058" d="M220.72,131.41L220.74,131.29L220.85,131.43"/><path style="stroke:#000000;stroke-width:0.058" d="M220.86,130.21L220.29,129.88"/><path style="stroke:#000000;stroke-width:0.058" d="M220.94,131.32L220.90,131.19L220.88,131.32"/><path style="stroke:#000000;stroke-width:0.058" d="M220.94,131.30L220.95,131.11"/><path style="stroke:#000000;stroke-width:0.058" d="M220.83,130.19L220.80,130.18"/><path style="stroke:#000000;stroke-width:0.058" d="M212.73,131.07L212.77,131.18L212.85,131.18L212.90,131.27L213.07,131.28L213.12,131.37L213.19,131.39L213.38,131.37L213.46,131.47L213.55,131.49L213.79,131.46L213.90,131.55L214.01,131.57L214.27,131.53L214.41,131.64L214.54,131.66L214.81,131.59L214.86,131.63L214.63,140.38"/><path style="stroke:#000000;stroke-width:0.058" d="M212.75,130.14L212.79,130.06L212.89,129.98"/><path style="stroke:#000000;stroke-width:0.058" d="M213.44,129.70L213.48,128.29"/><path style="stroke:#000000;stroke-width:0.058" d="M212.93,129.96L213.37,129.74"/><path style="stroke:#000000;stroke-width:0.058" d="M213.48,128.28L213.93,127.56"/><path style="stroke:#000000;stroke-width:0.058" d="M214.46,127.34L214.11,127.44L213.94,127.55"/><path style="stroke:#000000;stroke-width:0.058" d="M214.61,127.31L214.59,127.31"/><path style="stroke:#000000;stroke-width:0.058" d="M215.09,140.93L215.29,141.01L215.59,141.07L216.58,141.16L217.51,141.13L217.87,141.07L218.07,141.00"/><path style="stroke:#000000;stroke-width:0.058" d="M214.67,140.49L215.05,140.89"/><path style="stroke:#000000;stroke-width:0.058" d="M214.63,140.42L214.63,140.40"/><path style="stroke:#000000;stroke-width:0.058" d="M214.65,140.47L214.63,140.43"/><path style="stroke:#000000;stroke-width:0.058" d="M217.29,127.21L215.80,127.21L214.67,127.31"/><path style="stroke:#000000;stroke-width:0.058" d="M217.40,127.22L217.43,127.22"/><path style="stroke:#000000;stroke-width:0.058" d="M219.65,127.54L219.23,127.43L218.77,127.35L217.53,127.23"/><path style="stroke:#000000;stroke-width:0.058" d="M218.22,140.85L218.51,140.59"/><path style="stroke:#000000;stroke-width:0.058" d="M218.54,140.56L218.78,131.74L218.91,131.79L219.03,131.78L219.09,131.65L219.46,131.74L219.58,131.73L219.62,131.62L219.95,131.68L220.03,131.67L220.07,131.57L220.35,131.61L220.42,131.59L220.44,131.50L220.65,131.52"/><path style="stroke:#000000;stroke-width:0.058" d="M219.68,127.56L219.68,127.56"/><path style="stroke:#000000;stroke-width:0.058" d="M220.04,127.93L220.33,128.64L220.29,129.88"/><path style="stroke:#000000;stroke-width:0.058" d="M219.75,127.58L219.72,127.58"/><path style="stroke:#000000;stroke-width:0.058" d="M219.84,127.64L219.90,127.69"/><path style="stroke:#000000;stroke-width:0.058" d="M220.66,131.52L220.70,131.50L220.72,131.41L220.85,131.43L220.88,131.40L220.88,131.32L220.94,131.32L220.94,131.30"/><path style="stroke:#000000;stroke-width:0.058" d="M220.83,130.19L220.93,130.27L220.97,130.35"/><path style="stroke:#000000;stroke-width:0.058" d="M212.60,160.55L212.69,160.50"/><path style="stroke:#000000;stroke-width:0.058" d="M212.69,160.50L212.78,160.46"/><path style="stroke:#000000;stroke-width:0.058" d="M212.42,160.66L212.60,160.61L212.71,160.60L212.87,160.60L213.01,160.64"/><path style="stroke:#000000;stroke-width:0.058" d="M215.75,161.05L214.99,161.00L214.38,160.94L213.75,160.84L213.28,160.73"/><path style="stroke:#000000;stroke-width:0.058" d="M213.05,160.65L213.04,160.65"/><path style="stroke:#000000;stroke-width:0.058" d="M213.16,160.70L213.32,160.81L213.46,160.93L213.74,161.24L214.24,161.13L214.62,161.07L215.17,161.04L215.54,161.04L215.91,161.07L216.36,161.14L216.87,161.26L217.38,161.42L217.70,161.24L217.95,161.12L218.20,161.02L218.48,160.95L218.69,160.92L218.95,160.91L219.24,160.93L219.52,160.98L219.70,161.03L219.66,162.27"/><path style="stroke:#000000;stroke-width:0.058" d="M213.71,162.47L213.74,161.24"/><path style="stroke:#000000;stroke-width:0.058" d="M218.39,160.96L217.90,161.01L217.29,161.05L216.42,161.06L215.80,161.05"/><path style="stroke:#000000;stroke-width:0.058" d="M217.34,162.62L217.38,161.42"/><path style="stroke:#000000;stroke-width:0.058" d="M218.80,160.89L219.08,160.79"/><path style="stroke:#000000;stroke-width:0.058" d="M218.74,160.90L218.75,160.89"/><path style="stroke:#000000;stroke-width:0.058" d="M218.67,160.91L218.68,160.91"/><path style="stroke:#000000;stroke-width:0.058" d="M212.38,162.19L212.42,160.66L212.60,160.55"/><path style="stroke:#000000;stroke-width:0.058" d="M219.70,161.03L219.52,160.83L219.35,160.66"/><path style="stroke:#000000;stroke-width:0.058" d="M231.25,154.55L231.75,135.34"/><path style="stroke:#000000;stroke-width:0.099;stroke-dasharray:1.5 1.5" d="M216.95,141.25L216.20,156.99"/><path style="stroke:#000000;stroke-width:0.350" d="M235.32,144.55L235.23,146.42L234.95,148.28L234.50,150.10L233.86,151.86L233.06,153.55L232.10,155.16L230.98,156.67L229.72,158.06L228.34,159.31L226.83,160.43L225.22,161.39L223.53,162.20L221.76,162.83L219.95,163.28L218.09,163.56L216.22,163.65L214.35,163.56L212.50,163.28L210.68,162.83L208.91,162.20L207.22,161.39L205.61,160.43L204.11,159.31L202.72,158.06L201.46,156.67L200.34,155.16L199.38,153.55L198.58,151.86L197.95,150.10L197.49,148.28L197.22,146.42L197.13,144.55L197.22,142.68L197.49,140.83L197.95,139.01L198.58,137.24L199.38,135.55L200.34,133.94L201.46,132.44L202.72,131.05L204.11,129.79L205.61,128.67L207.22,127.71L208.91,126.91L210.68,126.28L212.50,125.82L214.35,125.55L216.22,125.46L218.09,125.55L219.95,125.82L221.76,126.28L223.53,126.91L225.22,127.71L226.83,128.67L228.34,129.79L229.72,131.05L230.98,132.44L232.10,133.94L233.06,135.55L233.86,137.24L234.50,139.01L234.95,140.83L235.23,142.68L235.32,144.55z"/></g></g><g id="Actor_20.0"><g style="stroke:#000000;stroke-width:0.123"><path d="M189.60,115.15L189.60,115.19"/><path d="M189.68,115.08L189.68,115.08"/><path d="M189.59,115.19L189.59,115.19"/><path d="M189.65,115.14L189.65,115.14"/></g><g style="stroke:#000000;stroke-width:0.123"><path d="M189.56,115.20L189.58,115.19L189.60,115.19L189.61,115.18L189.62,115.17L189.63,115.16L189.64,115.15L189.65,115.14L189.66,115.12L189.67,115.10L189.68,115.08L189.68,115.04"/></g></g><g id="Actor_20.1"><g style="stroke:#000000;stroke-width:0.123"><path d="M184.01,122.58L184.01,122.62"/><path d="M183.98,122.63L183.98,122.63"/><path d="M184.10,122.50L184.10,122.50"/><path d="M184.03,122.60L184.03,122.60"/><path d="M184.04,122.59L184.04,122.59"/><path d="M184.06,122.57L184.06,122.57"/><path d="M184.08,122.53L184.08,122.53"/></g><g style="stroke:#000000;stroke-width:0.123"><path d="M183.97,122.63L183.99,122.62L184.01,122.62L184.02,122.61L184.03,122.60L184.04,122.59L184.04,122.59L184.05,122.58L184.06,122.57L184.06,122.56L184.08,122.53"/><path d="M184.10,122.46L184.10,122.50L184.08,122.53"/></g></g><g id="Actor_20.2"><g style="stroke:#000000;stroke-width:0.123"><path d="M207.23,91.71L207.23,91.74"/><path d="M207.29,91.66L207.29,91.66"/><path d="M207.25,91.73L207.25,91.73"/></g><g style="stroke:#000000;stroke-width:0.123"><path d="M207.25,91.73L207.25,91.72L207.26,91.72L207.26,91.71L207.27,91.70L207.28,91.68L207.29,91.66L207.30,91.62"/><path d="M207.19,91.75L207.21,91.75L207.23,91.74L207.23,91.74L207.24,91.74L207.24,91.73L207.25,91.73"/></g></g><g id="Actor_20.3"><g style="stroke:#000000;stroke-width:0.123"><path d="M160.40,153.97L160.40,154.01"/></g><g style="stroke:#000000;stroke-width:0.123"><path d="M160.51,153.82L160.51,153.86L160.50,153.88L160.49,153.91L160.47,153.93L160.46,153.95L160.45,153.96L160.43,153.98L160.42,153.99L160.40,154.01L160.38,154.01L160.36,154.02"/></g></g><g id="Actor_20.4"><g style="stroke:#000000;stroke-width:0.123"><path d="M209.95,88.09L209.95,88.13"/><path d="M210.01,88.04L210.01,88.04"/><path d="M209.93,88.13L209.93,88.13"/><path d="M209.97,88.11L209.97,88.11"/><path d="M209.97,88.10L209.97,88.10"/><path d="M209.99,88.09L209.99,88.09"/></g><g style="stroke:#000000;stroke-width:0.123"><path d="M209.99,88.09L209.99,88.07L210.00,88.07L210.00,88.06L210.01,88.04L210.01,88.00"/><path d="M209.97,88.10L209.97,88.11L209.96,88.12L209.95,88.12L209.95,88.13L209.93,88.13"/><path d="M209.99,88.09L209.98,88.09L209.97,88.10"/><path d="M209.93,88.13L209.91,88.14"/></g></g><g id="Actor_20.5"><g style="stroke:#000000;stroke-width:0.123"><path d="M166.42,145.97L166.42,146.01"/><path d="M166.48,145.95L166.48,145.95"/></g><g style="stroke:#000000;stroke-width:0.123"><path d="M166.38,146.02L166.39,146.02L166.42,146.01L166.43,146.00L166.44,145.99L166.45,145.98L166.46,145.97L166.47,145.96L166.48,145.95L166.48,145.93"/><path d="M166.48,145.93L166.50,145.91L166.51,145.89L166.52,145.87L166.52,145.83"/></g></g><g id="Actor_20.6"><g style="stroke:#000000;stroke-width:0.123"><path d="M172.72,137.59L172.72,137.63"/></g><g style="stroke:#000000;stroke-width:0.123"><path d="M172.68,137.64L172.70,137.63L172.72,137.63L172.74,137.61L172.75,137.60L172.76,137.59L172.77,137.57L172.79,137.56L172.80,137.54L172.81,137.52L172.82,137.49L172.82,137.45"/></g></g><g id="Actor_18.0"><g style="stroke:#000000;stroke-width:0.123"><path d="M213.39,43.63L213.39,43.63L213.39,43.63L213.38,43.63L213.38,43.63L213.38,43.63L213.38,43.63L213.37,43.63L213.37,43.64L213.36,43.65L213.36,43.67L213.35,43.69L213.35,43.71L213.34,43.73L213.34,43.74L213.34,43.75L213.34,43.77L213.34,43.78L213.35,43.78L213.35,43.79L213.35,43.79L213.35,43.79L213.35,43.80L213.36,43.80L213.36,43.79L213.36,43.79"/><path d="M213.36,43.60L213.36,43.60L213.36,43.60L213.36,43.60L213.35,43.60L213.35,43.61L213.35,43.61L213.34,43.62L213.34,43.63L213.33,43.64L213.32,43.66L213.32,43.68L213.31,43.70L213.31,43.72L213.31,43.75L213.31,43.76L213.31,43.77L213.31,43.78L213.31,43.80L213.31,43.80L213.32,43.81L213.32,43.81L213.32,43.81L213.32,43.82L213.33,43.82"/><path d="M213.34,43.81L213.34,43.81"/><path d="M213.33,43.82L213.33,43.82"/><path d="M213.33,43.82L213.33,43.82"/><path d="M213.33,43.82L213.33,43.82"/><path d="M213.34,43.81L213.34,43.81L213.35,43.81"/><path d="M213.36,43.79L213.36,43.79"/><path d="M213.37,43.60L213.37,43.60"/><path d="M213.39,43.63L213.39,43.63L213.38,43.62"/></g><g style="stroke:#000000;stroke-width:0.123"><path d="M213.33,43.82L212.98,43.77"/><path d="M213.38,43.62L213.37,43.60L213.37,43.60L213.36,43.60L212.99,43.55"/><path d="M213.38,43.62L213.39,43.63L213.40,43.64L213.40,43.65L213.40,43.67L213.40,43.69L213.39,43.72L213.39,43.74L213.38,43.76L213.37,43.78L213.37,43.79L213.36,43.79"/><path d="M213.35,43.81L213.36,43.79"/><path d="M213.34,43.81L213.34,43.81"/><path d="M213.33,43.82L213.33,43.82L213.34,43.81"/><path d="M213.33,43.82L213.33,43.82"/></g></g><g id="Actor_18.1"><g style="stroke:#000000;stroke-width:0.123"><path d="M211.98,74.57L211.97,74.57L211.97,74.57L211.97,74.57L211.97,74.57L211.96,74.57L211.96,74.57L211.96,74.57L211.95,74.58L211.95,74.59L211.95,74.60L211.94,74.61L211.94,74.62L211.93,74.64L211.93,74.66L211.93,74.68L211.93,74.69L211.93,74.70L211.93,74.70L211.93,74.71L211.93,74.72L211.93,74.72L211.94,74.72L211.94,74.72L211.94,74.72L211.94,74.72L211.95,74.72"/><path d="M211.96,74.55L211.96,74.55"/><path d="M211.95,74.54L211.95,74.54L211.95,74.54L211.94,74.54L211.94,74.54L211.94,74.55L211.93,74.56L211.93,74.56L211.92,74.58L211.91,74.60L211.91,74.61L211.90,74.64L211.90,74.66L211.90,74.68L211.90,74.69L211.90,74.71L211.90,74.72L211.90,74.72L211.90,74.73L211.90,74.73L211.91,74.74L211.91,74.74L211.91,74.74L211.91,74.74"/><path d="M211.92,74.74L211.92,74.74"/><path d="M211.92,74.74L211.92,74.74"/></g><g style="stroke:#000000;stroke-width:0.123"><path d="M211.60,74.48L211.95,74.54L211.96,74.54L211.96,74.54L211.98,74.57L211.98,74.58L211.98,74.60L211.98,74.61L211.98,74.62L211.98,74.64L211.97,74.66L211.97,74.68L211.96,74.70L211.96,74.71L211.95,74.72L211.95,74.72L211.92,74.74"/><path d="M211.59,74.69L211.91,74.74"/><path d="M211.91,74.74L211.92,74.74L211.92,74.74"/></g></g><g id="Actor_18.2"><g style="stroke:#000000;stroke-width:0.123"><path d="M212.95,53.19L212.95,53.19L212.95,53.19L212.95,53.19L212.94,53.19L212.94,53.19L212.94,53.19L212.93,53.20L212.93,53.20L212.93,53.21L212.92,53.22L212.92,53.23L212.91,53.25L212.91,53.27L212.91,53.29L212.90,53.31L212.90,53.32L212.91,53.33L212.91,53.34L212.91,53.34L212.91,53.35L212.91,53.35L212.91,53.35L212.92,53.35L212.92,53.35L212.92,53.35L212.93,53.35"/><path d="M212.94,53.17L212.94,53.17"/><path d="M212.89,53.37L212.89,53.37L212.88,53.37L212.88,53.37L212.88,53.36L212.88,53.35L212.87,53.34L212.87,53.33L212.87,53.31L212.88,53.29L212.88,53.26L212.88,53.24L212.89,53.22L212.89,53.20L212.90,53.19L212.91,53.17L212.91,53.17L212.92,53.17L212.92,53.16L212.92,53.16L212.93,53.16L212.93,53.16"/><path d="M212.93,53.16L212.93,53.16"/><path d="M212.89,53.37L212.89,53.37"/><path d="M212.90,53.37L212.90,53.37"/><path d="M212.90,53.37L212.90,53.37"/></g><g style="stroke:#000000;stroke-width:0.123"><path d="M212.93,53.16L212.93,53.16L212.94,53.17L212.96,53.20L212.96,53.20L212.96,53.21L212.96,53.23L212.96,53.25L212.96,53.26L212.96,53.28L212.95,53.30L212.95,53.32L212.94,53.33L212.93,53.34L212.93,53.35"/><path d="M212.93,53.16L212.56,53.10"/><path d="M212.55,53.32L212.89,53.37"/><path d="M212.89,53.37L212.90,53.37L212.90,53.37L212.92,53.35"/></g></g><g id="Actor_31.0"><g style="stroke:#000000;stroke-width:0.123"><path d="M154.30,83.05L154.77,82.59L154.28,82.52L154.30,82.97L154.10,83.35L154.35,84.06L154.24,84.34L154.38,84.53L154.43,85.41L154.31,85.53L154.48,85.82"/><path d="M154.30,85.47L154.40,85.38"/><path d="M154.48,85.79L212.59,28.68"/><path d="M154.42,85.43L212.47,28.49"/><path d="M154.35,84.06L212.62,27.28"/><path d="M154.22,84.27L212.50,27.46"/><path d="M154.28,83.01L154.18,83.11"/><path d="M154.27,82.48L155.30,82.67L155.79,82.22L213.51,26.10"/><path d="M154.77,82.59L155.32,82.67"/><path d="M155.33,82.70L212.51,27.09"/><path d="M212.56,28.40L212.57,28.40"/><path d="M212.67,26.03L212.67,26.03"/></g><g style="stroke:#000000;stroke-width:0.123"><path d="M154.34,85.73L154.36,84.55L154.19,84.26L154.31,84.08L154.07,83.34L154.28,83.01L154.25,82.54L154.88,81.90L212.67,26.03L213.51,26.10L212.51,27.09L212.60,27.66L212.58,28.37L212.47,28.49L212.59,28.68L212.27,29.01L154.48,85.82L154.34,85.73"/></g></g><g id="Actor_20.7"><g style="stroke:#000000;stroke-width:0.123"><path d="M203.17,97.11L203.16,97.15"/><path d="M203.24,97.05L203.24,97.05"/><path d="M203.17,97.14L203.17,97.14"/><path d="M203.20,97.11L203.20,97.11"/></g><g style="stroke:#000000;stroke-width:0.123"><path d="M203.24,97.01L203.24,97.05L203.23,97.07L203.22,97.08L203.21,97.10L203.20,97.11L203.19,97.12L203.18,97.13L203.17,97.14L203.16,97.15L203.15,97.15L203.13,97.16"/></g></g><g id="Actor_20.8"><g style="stroke:#000000;stroke-width:0.123"><path d="M194.86,108.16L194.85,108.20"/><path d="M194.93,108.09L194.93,108.09"/></g><g style="stroke:#000000;stroke-width:0.123"><path d="M194.93,108.05L194.93,108.09L194.92,108.11L194.91,108.13L194.90,108.14L194.89,108.16L194.88,108.17L194.88,108.18L194.86,108.19L194.85,108.20L194.84,108.20L194.82,108.21"/></g></g><g id="Actor_20.9"><g style="stroke:#000000;stroke-width:0.123"><path d="M178.46,129.95L178.46,129.99"/><path d="M178.52,129.94L178.52,129.94"/><path d="M178.52,129.92L178.52,129.92"/></g><g style="stroke:#000000;stroke-width:0.123"><path d="M178.52,129.92L178.53,129.91L178.54,129.89L178.56,129.87L178.56,129.83"/><path d="M178.49,129.96L178.49,129.97L178.48,129.98L178.47,129.98L178.46,129.99L178.45,129.99L178.43,130.00"/><path d="M178.49,129.96L178.51,129.95L178.52,129.94"/><path d="M178.52,129.92L178.52,129.94"/></g></g><g id="Actor_20.10"><g style="stroke:#000000;stroke-width:0.123"><path d="M199.06,102.56L199.06,102.60"/><path d="M199.14,102.50L199.14,102.50"/></g><g style="stroke:#000000;stroke-width:0.123"><path d="M199.03,102.61L199.04,102.61L199.06,102.60L199.07,102.59L199.08,102.58L199.09,102.57L199.10,102.56L199.11,102.55L199.12,102.53L199.13,102.52L199.14,102.50L199.14,102.46"/></g></g><g id="Actor_18.3"><g style="stroke:#000000;stroke-width:0.123"><path d="M212.46,64.07L212.46,64.07L212.45,64.06L212.45,64.06L212.45,64.06L212.44,64.07L212.44,64.07L212.44,64.07L212.44,64.08L212.43,64.09L212.42,64.10L212.42,64.12L212.41,64.14L212.41,64.15L212.41,64.17L212.41,64.19L212.41,64.20L212.41,64.21L212.41,64.21L212.41,64.22L212.41,64.22L212.42,64.22L212.42,64.23L212.42,64.23L212.43,64.23L212.43,64.22"/><path d="M212.44,64.04L212.44,64.04"/><path d="M212.39,64.25L212.39,64.25L212.39,64.24L212.39,64.24L212.38,64.24L212.38,64.23L212.38,64.22L212.38,64.21L212.38,64.20L212.38,64.18L212.38,64.16L212.38,64.14L212.39,64.12L212.39,64.10L212.40,64.08L212.40,64.07L212.41,64.06L212.41,64.05L212.42,64.04L212.42,64.04L212.43,64.04L212.43,64.04L212.43,64.04"/><path d="M212.40,64.24L212.40,64.24"/><path d="M212.40,64.24L212.40,64.24"/><path d="M212.43,64.04L212.43,64.04"/><path d="M212.40,64.25L212.39,64.25"/><path d="M212.43,64.22L212.43,64.22"/></g><g style="stroke:#000000;stroke-width:0.123"><path d="M212.44,64.04L212.44,64.04L212.43,64.04L212.07,63.98"/><path d="M212.44,64.04L212.46,64.07L212.46,64.08L212.46,64.09L212.46,64.12L212.46,64.13L212.46,64.15L212.46,64.17L212.45,64.18L212.45,64.19L212.44,64.21L212.43,64.22L212.43,64.22"/><path d="M212.39,64.25L212.40,64.25L212.40,64.24"/><path d="M212.43,64.22L212.43,64.22"/><path d="M212.43,64.22L212.40,64.24"/></g></g><g id="Actor_71.0"><g style="stroke:#000000;stroke-width:0.123"><path d="M74.67,108.05L74.62,107.79"/><path d="M74.71,107.69L74.60,107.13"/><path d="M74.61,107.14L143.19,52.84"/><path d="M77.48,121.95L75.34,110.89"/><path d="M75.20,110.74L75.14,110.49"/><path d="M75.24,110.39L75.07,109.55"/><path d="M74.94,109.40L74.88,109.14"/><path d="M74.98,109.04L74.81,108.20"/><path d="M77.44,122.29L77.39,122.04"/><path d="M79.13,130.43L78.07,124.99"/><path d="M77.94,124.84L77.88,124.60"/><path d="M77.98,124.51L77.82,123.71"/><path d="M77.69,123.57L77.64,123.32"/><path d="M77.73,123.23L77.57,122.43"/><path d="M143.26,55.69L143.26,55.67"/></g><g style="stroke:#000000;stroke-width:0.123"><path d="M74.70,107.68L74.65,108.04L74.96,109.03L74.92,109.38L75.16,110.00L75.18,110.73L75.33,110.90L77.44,121.77L77.42,122.27L77.57,122.44L77.92,124.83L78.06,125.00L79.12,130.42L144.48,72.73L143.40,56.04L143.27,55.68L143.33,54.90L143.20,54.55L143.25,53.76L143.12,53.40L143.19,52.84L74.60,107.13L74.70,107.68"/></g></g><g id="Actor_72.0"><g style="stroke:#000000;stroke-width:0.123"><path d="M67.39,81.52L69.49,92.12"/><path d="M139.81,31.60L67.42,81.52"/><path d="M70.02,95.33L69.96,95.06"/><path d="M70.05,94.95L69.88,94.07"/><path d="M69.74,93.92L69.68,93.65"/><path d="M69.77,93.54L69.60,92.65"/><path d="M69.46,92.50L69.40,92.22"/><path d="M72.46,107.08L70.16,95.48"/></g><g style="stroke:#000000;stroke-width:0.123"><path d="M67.42,81.65L67.39,81.52L139.80,31.60L141.30,52.98L72.46,107.08L70.16,95.50L69.95,95.06L69.97,94.55L69.39,92.23L69.43,91.82L67.42,81.65"/></g></g><g id="Actor_30.0"><g style="stroke:#000000;stroke-width:0.123"><path d="M144.38,97.85L143.87,98.32L143.59,98.24"/><path d="M143.77,98.09L143.62,98.23L143.79,98.29"/></g><g style="stroke:#000000;stroke-width:0.123"><path d="M143.94,103.25L143.59,98.24L143.75,98.08L143.86,98.31L144.35,97.85L148.29,153.94L147.81,154.46L147.61,154.40L147.53,153.64L143.94,103.25"/></g></g><g id="Actor_29.0"><g style="stroke:#000000;stroke-width:0.123"><path d="M220.24,71.26L222.55,31.90"/><path d="M220.33,71.47L222.67,32.08L222.88,31.85"/><path d="M220.33,71.16L222.67,32.08"/><path d="M222.57,31.90L222.64,31.83L222.84,31.84L222.65,32.07"/></g><g style="stroke:#000000;stroke-width:0.123"><path d="M220.31,71.46L220.33,71.16L220.24,71.26L220.24,70.91L222.55,31.90L222.68,31.81L222.85,31.84L222.82,32.73L220.53,71.20L220.31,71.46"/></g></g><g id="Actor_.0"><g style="stroke:#000000;stroke-width:0.123"><path d="M207.46,46.86L207.48,46.83"/><path d="M207.48,46.83L207.48,46.83"/></g><g style="stroke:#000000;stroke-width:0.123"><path d="M207.48,46.83L207.47,46.85L207.46,46.86"/><path d="M207.51,46.83L207.48,46.83"/></g></g><g id="Actor_.1"><g style="stroke:#000000;stroke-width:0.123"><path d="M189.18,66.64L189.18,66.63L189.19,66.58"/><path d="M189.03,66.41L188.99,66.47"/></g><g style="stroke:#000000;stroke-width:0.123"><path d="M189.02,66.44L189.03,66.41"/><path d="M188.99,66.47L189.02,66.44"/><path d="M189.03,66.41L189.06,66.42"/></g></g><g id="Actor_.2"><g style="stroke:#000000;stroke-width:0.123"><path d="M189.37,66.15L189.36,66.18L189.09,66.47L189.05,66.49L188.99,66.50L188.92,66.50L188.80,66.48L188.35,66.84"/><path d="M188.80,66.48L188.82,66.45L188.69,66.55"/><path d="M189.25,66.51L189.23,66.50L189.21,66.54L189.20,66.61L189.26,66.62L189.27,66.55L189.25,66.51"/><path d="M189.26,66.62L189.24,66.69L189.21,66.72L189.19,66.72L189.18,66.68L189.20,66.61"/><path d="M188.82,66.45L188.94,66.47L188.99,66.47L189.03,66.46L189.30,66.17L189.30,66.14L189.27,66.13L189.15,66.11L188.69,66.47"/><path d="M189.18,66.68L189.19,66.60L189.21,66.54"/><path d="M189.15,66.11L189.17,66.08"/></g><g style="stroke:#000000;stroke-width:0.123"><path d="M188.69,66.55L188.69,66.47L188.72,66.44L189.17,66.08L189.29,66.10L189.34,66.12L189.37,66.15L189.36,66.88L189.36,66.91L189.08,67.19L189.04,67.22L188.98,67.23L188.91,67.23L188.35,67.13L188.35,66.84L188.37,66.81L188.69,66.55"/></g></g><g id="Actor_.3"><g style="stroke:#000000;stroke-width:0.123"><path d="M195.77,59.61L195.77,59.60"/><path d="M195.59,59.47L195.62,59.42"/></g><g style="stroke:#000000;stroke-width:0.123"><path d="M195.59,59.47L195.60,59.44"/><path d="M195.60,59.44L195.62,59.42L195.65,59.42"/></g></g><g id="Actor_.4"><g style="stroke:#000000;stroke-width:0.123"><path d="M157.62,99.80L157.62,99.80"/><path d="M157.87,99.86L157.88,99.88L157.87,99.95L157.84,99.99"/><path d="M157.62,99.80L157.63,99.78L157.67,99.71L157.71,99.71"/></g><g style="stroke:#000000;stroke-width:0.123"><path d="M157.62,99.80L157.62,99.80L157.63,99.78L157.67,99.71L157.70,99.70L157.72,99.71"/></g></g><g id="Actor_.5"><g style="stroke:#000000;stroke-width:0.123"><path d="M212.59,52.46L212.59,52.46"/></g><g style="stroke:#000000;stroke-width:0.123"><path d="M212.55,53.32L212.53,53.73"/><path d="M212.59,52.46L212.56,53.10"/></g></g><g id="Actor_.6"><g style="stroke:#000000;stroke-width:0.123"><path d="M201.03,77.86L201.05,77.76L201.07,77.16L201.05,77.11"/></g><g style="stroke:#000000;stroke-width:0.123"><path d="M201.03,77.86L206.28,71.55L206.30,71.52L206.32,70.86L206.31,70.82L206.21,70.79L205.58,70.68L205.54,70.69L201.08,76.00"/></g></g><g id="Actor_.7"><g style="stroke:#000000;stroke-width:0.123"><path d="M211.56,42.23L211.98,41.89L212.09,41.90L212.15,41.91L212.20,41.90L212.23,41.88L212.44,41.66L212.45,41.64"/><path d="M211.98,41.89L212.00,41.87L212.11,41.88L212.15,41.88L212.18,41.87L212.39,41.65L212.39,41.63L212.35,41.62L212.24,41.61L212.26,41.59"/><path d="M212.24,41.61L211.82,41.95"/><path d="M212.00,41.87L211.82,42.01"/><path d="M212.30,42.04L212.30,42.01L212.32,41.96L212.34,41.94L212.35,41.94L212.36,41.99L212.35,42.05L212.30,42.04L212.30,42.05L212.29,42.08L212.30,42.12L212.32,42.13L212.34,42.10L212.35,42.05"/><path d="M212.30,42.05L212.30,42.02L212.30,42.01"/></g><g style="stroke:#000000;stroke-width:0.123"><path d="M211.82,42.01L211.82,41.95L211.84,41.93L212.26,41.59L212.37,41.60L212.42,41.62L212.45,41.64L212.42,42.30L212.41,42.32L212.20,42.54L212.17,42.56L212.16,42.56L212.12,42.57L212.06,42.57L211.55,42.50L211.56,42.23L211.58,42.21L211.82,42.01"/></g></g><g id="Actor_.8"><g style="stroke:#000000;stroke-width:0.123"><path d="M209.74,88.76L209.74,88.76"/><path d="M213.04,42.54L212.47,43.11"/><path d="M213.00,42.53L212.49,43.09"/></g><g style="stroke:#000000;stroke-width:0.123"><path d="M213.02,42.51L210.97,88.26L210.49,88.91L210.41,88.93L209.78,88.80L209.76,88.34"/><path d="M210.26,76.78L209.89,85.18"/><path d="M210.71,66.23L210.33,74.98"/><path d="M211.18,55.30L210.79,64.45"/><path d="M211.60,45.64L211.26,53.54"/></g></g><g id="Actor_.9"><g style="stroke:#000000;stroke-width:0.123"><path d="M158.09,99.38L158.07,99.42L157.70,99.81L157.65,99.84L157.57,99.86L157.50,99.85L157.36,99.82L156.88,100.19"/><path d="M157.36,99.82L157.40,99.79L157.53,99.82L157.59,99.82L157.63,99.80L158.00,99.40L158.01,99.37L157.97,99.35L157.84,99.32L157.87,99.28"/><path d="M157.84,99.32L157.35,99.69"/><path d="M157.40,99.79L157.36,99.81"/><path d="M157.95,99.94L157.93,100.01L157.89,100.06L157.86,100.06L157.84,100.01L157.85,99.94L157.87,99.86L157.91,99.81L157.94,99.81L157.96,99.86L157.95,99.94L157.89,99.92L157.86,100.00L157.84,100.02"/><path d="M157.89,99.92L157.89,99.85L157.89,99.84"/></g><g style="stroke:#000000;stroke-width:0.123"><path d="M157.36,99.81L157.35,99.69L157.39,99.65L157.87,99.28L158.00,99.32L158.06,99.34L158.09,99.38L158.12,100.18L158.11,100.22L157.74,100.62L157.68,100.65L157.61,100.67L157.53,100.66L156.90,100.52L156.88,100.19L156.91,100.16L157.36,99.81"/></g></g><g id="Actor_.10"><g style="stroke:#000000;stroke-width:0.123"><path d="M207.09,48.87L207.11,48.87L207.14,48.86L207.40,48.58"/><path d="M207.10,48.86L207.11,48.86L207.37,48.58L207.37,48.57"/></g><g style="stroke:#000000;stroke-width:0.123"><path d="M205.11,83.28L204.81,91.85"/><path d="M207.38,48.56L205.82,91.66"/><path d="M205.48,72.51L205.17,81.44"/><path d="M205.87,61.34L205.54,70.69"/><path d="M206.27,49.75L205.93,59.54"/></g></g><g id="Actor_.11"><g style="stroke:#000000;stroke-width:0.123"><path d="M206.86,47.21L207.29,46.86L207.40,46.88L207.46,46.88L207.52,46.87L207.55,46.85L207.77,46.62L207.78,46.59"/><path d="M207.29,46.86L207.31,46.84L207.42,46.86L207.47,46.86L207.50,46.84L207.72,46.61L207.72,46.59L207.68,46.58L207.57,46.56L207.14,46.91"/><path d="M207.31,46.84L207.14,46.98"/><path d="M207.66,46.91L207.68,46.91L207.69,46.96L207.68,47.02L207.63,47.01L207.63,46.97L207.64,46.94L207.66,46.91"/><path d="M207.68,47.02L207.66,47.08L207.64,47.11L207.62,47.10L207.62,47.07L207.62,47.05L207.62,47.03L207.63,47.01"/><path d="M207.57,46.56L207.59,46.54"/><path d="M207.63,46.97L207.62,46.99L207.62,47.03"/></g><g style="stroke:#000000;stroke-width:0.123"><path d="M207.14,46.98L207.14,46.91L207.16,46.89L207.59,46.54L207.70,46.56L207.75,46.57L207.78,46.59L207.75,47.27L207.75,47.29L207.53,47.53L207.49,47.55L207.48,47.55L207.44,47.56L207.38,47.56L206.85,47.48L206.86,47.21L206.88,47.19L207.14,46.98"/></g></g><g id="Actor_.12"><g style="stroke:#000000;stroke-width:0.123"><path d="M165.93,90.98L165.93,90.98"/><path d="M166.17,91.04L166.17,91.06L166.16,91.12L166.14,91.16"/><path d="M166.01,90.90L165.98,90.89L165.93,90.96L165.93,90.98"/></g><g style="stroke:#000000;stroke-width:0.123"><path d="M166.02,90.89L166.00,90.89L165.98,90.89L165.96,90.91L165.93,90.96L165.93,90.98L165.93,90.98"/></g></g><g id="Actor_.13"><g style="stroke:#000000;stroke-width:0.123"><path d="M173.54,82.53L174.01,82.17L174.14,82.19L174.21,82.20L174.27,82.18L174.32,82.16L174.64,81.82L174.65,81.78"/><path d="M174.01,82.17L174.04,82.14L174.16,82.16L174.22,82.16L174.26,82.14L174.57,81.81L174.58,81.78L174.54,81.76L174.41,81.74L173.94,82.10"/><path d="M174.04,82.14L173.95,82.21"/><path d="M174.47,82.29L174.47,82.21L174.47,82.21L174.49,82.18L174.52,82.18L174.53,82.23L174.53,82.30L174.47,82.29L174.44,82.36L174.44,82.37L174.45,82.41L174.48,82.41L174.51,82.37L174.53,82.30"/><path d="M174.44,82.37L174.43,82.36L174.44,82.29L174.46,82.22L174.47,82.21"/><path d="M174.41,81.74L174.44,81.71"/></g><g style="stroke:#000000;stroke-width:0.123"><path d="M173.95,82.21L173.57,82.50L173.54,82.53L173.55,82.84L174.15,82.96L174.22,82.96L174.29,82.95L174.33,82.92L174.65,82.58L174.66,82.55L174.65,81.78L174.62,81.75L174.57,81.73L174.44,81.71L173.97,82.07L173.94,82.10L173.95,82.21"/></g></g><g id="Actor_.14"><g style="stroke:#000000;stroke-width:0.123"><path d="M181.23,74.38L181.69,74.02L181.81,74.04L181.88,74.05L181.95,74.03L181.99,74.01L182.28,73.70L182.29,73.67"/><path d="M181.69,74.02L181.71,73.99L181.84,74.01L181.89,74.01L181.93,74.00L182.22,73.69L182.22,73.66L182.19,73.65L182.06,73.62L182.09,73.60"/><path d="M182.18,74.16L182.18,74.09L182.17,74.04L182.14,74.04L182.12,74.07L182.12,74.15L182.18,74.16L182.16,74.23L182.13,74.26L182.10,74.26L182.09,74.22L182.10,74.21L182.12,74.15"/><path d="M182.06,73.62L181.60,73.99"/><path d="M181.71,73.99L181.60,74.08"/><path d="M182.12,74.07L182.12,74.08L182.10,74.15L182.09,74.22"/></g><g style="stroke:#000000;stroke-width:0.123"><path d="M181.60,74.08L181.25,74.35L181.23,74.38L181.23,74.68L181.81,74.79L181.88,74.79L181.95,74.78L181.99,74.76L182.28,74.44L182.29,74.41L182.29,73.67L182.27,73.64L182.21,73.62L182.09,73.60L181.63,73.96L181.60,73.99L181.60,74.08"/></g></g><g id="Actor_32.0"><g style="stroke:#000000;stroke-width:0.123"><path d="M158.61,167.58L158.61,167.73L158.48,167.75"/><path d="M210.13,100.07L159.43,171.27L158.81,171.15L158.66,170.95L158.79,170.77L158.55,168.87L158.69,168.73L158.66,168.18L158.49,167.79L158.64,167.70L158.61,167.14L209.82,96.49"/><path d="M159.39,171.33L159.39,171.35"/><path d="M158.77,170.71L158.66,170.85"/><path d="M158.79,170.83L209.56,99.85"/><path d="M158.53,168.82L158.66,168.64"/><path d="M158.68,168.79L209.63,98.09"/><path d="M158.63,167.78L209.66,97.21"/><path d="M158.61,167.14L158.58,167.13"/><path d="M210.13,100.09L210.12,100.09"/><path d="M209.67,99.69L209.66,99.70"/><path d="M209.74,97.92L209.75,97.91"/></g><g style="stroke:#000000;stroke-width:0.123"><path d="M158.47,167.78L158.61,167.58L158.58,167.13L209.80,96.48L209.59,99.00L209.70,99.16L209.68,99.67L209.56,99.85L210.13,100.07L159.43,171.29L158.81,171.17L158.65,171.00L158.77,170.71L158.52,168.86L158.66,168.64L158.64,168.18L158.47,167.78"/></g></g><g id="Actor_.15"><g style="stroke:#000000;stroke-width:0.123"><path d="M182.11,74.10L182.11,74.10L182.10,74.17L182.09,74.18"/><path d="M181.90,74.01L181.90,74.01L181.94,73.95"/></g><g style="stroke:#000000;stroke-width:0.123"><path d="M181.89,74.01L181.90,74.01L181.92,73.97L181.94,73.95"/><path d="M181.97,73.95L181.94,73.95"/></g></g><g id="Actor_.16"><g style="stroke:#000000;stroke-width:0.123"><path d="M202.06,52.66L202.06,52.69L201.82,52.94L201.79,52.96L201.73,52.97L201.67,52.97L201.55,52.95L201.12,53.30"/><path d="M201.55,52.95L201.57,52.93L201.69,52.94L201.73,52.94L201.77,52.93L202.00,52.68L202.00,52.66L201.97,52.65L201.85,52.63L201.87,52.61"/><path d="M201.97,53.04L201.96,53.00L201.94,52.99L201.92,53.02L201.91,53.04L201.91,53.09L201.96,53.10L201.97,53.04"/><path d="M201.96,53.10L201.95,53.16L201.92,53.19L201.90,53.19L201.89,53.14L201.90,53.13L201.91,53.09"/><path d="M201.85,52.63L201.42,52.98"/><path d="M201.57,52.93L201.41,53.05"/><path d="M201.91,53.04L201.90,53.08L201.90,53.13"/></g><g style="stroke:#000000;stroke-width:0.123"><path d="M201.41,53.05L201.14,53.28L201.12,53.30L201.11,53.58L201.65,53.66L201.71,53.66L201.76,53.66L201.77,53.65L201.80,53.63L202.04,53.38L202.04,53.36L202.06,52.66L202.04,52.64L201.99,52.63L201.87,52.61L201.44,52.96L201.42,52.98L201.41,53.05"/></g></g><g id="Actor_.17"><g style="stroke:#000000;stroke-width:0.123"><path d="M201.75,52.91L201.73,52.94"/></g><g style="stroke:#000000;stroke-width:0.123"><path d="M201.73,52.94L201.74,52.93L201.75,52.91"/><path d="M201.75,52.91L201.78,52.91"/></g></g><g id="Actor_.18"><g style="stroke:#000000;stroke-width:0.123"><path d="M166.16,90.49L166.13,90.53L166.26,90.55L166.29,90.57L166.29,90.60L165.95,90.97L165.91,90.99L165.85,90.99L165.72,90.96L165.69,90.99L165.21,91.36"/><path d="M165.69,90.99L165.82,91.02L165.89,91.02L165.96,91.01L166.01,90.98L166.36,90.61L166.37,90.58"/><path d="M165.72,90.96L165.66,91.01"/><path d="M165.65,90.89L166.13,90.53"/><path d="M166.18,91.10L166.18,91.03L166.18,91.02L166.20,90.99L166.23,90.99L166.25,91.04L166.25,91.11L166.18,91.10L166.16,91.17L166.14,91.19L166.16,91.23L166.19,91.23L166.22,91.19L166.25,91.11"/><path d="M166.18,91.02L166.17,91.04L166.15,91.11L166.14,91.18L166.14,91.19"/></g><g style="stroke:#000000;stroke-width:0.123"><path d="M165.66,91.01L165.24,91.33L165.21,91.36L165.22,91.67L165.84,91.81L165.92,91.81L165.99,91.80L166.04,91.77L166.38,91.40L166.40,91.36L166.37,90.58L166.35,90.54L166.29,90.52L166.16,90.49L165.68,90.86L165.65,90.89L165.66,91.01"/></g></g><g id="Actor_.19"><g style="stroke:#000000;stroke-width:0.123"><path d="M212.14,41.88L212.14,41.88"/><path d="M212.16,41.86L212.14,41.88"/><path d="M212.16,41.86L212.16,41.86"/></g><g style="stroke:#000000;stroke-width:0.123"><path d="M212.14,41.88L212.14,41.88L212.16,41.86"/><path d="M212.16,41.86L212.19,41.86"/></g></g><g id="Actor_.20"><g style="stroke:#000000;stroke-width:0.123"><path d="M194.96,59.83L195.40,59.47L195.52,59.49L195.58,59.49L195.64,59.48L195.68,59.46L195.94,59.19L195.94,59.17"/><path d="M195.40,59.47L195.43,59.45L195.54,59.47L195.59,59.47L195.62,59.45L195.88,59.18L195.88,59.16L195.84,59.15L195.73,59.13L195.75,59.11"/><path d="M195.84,59.56L195.83,59.51L195.81,59.51L195.79,59.54L195.79,59.55L195.78,59.61L195.84,59.62L195.84,59.56"/><path d="M195.84,59.62L195.82,59.68L195.80,59.72L195.77,59.71L195.76,59.67L195.78,59.61"/><path d="M195.73,59.13L195.28,59.48"/><path d="M195.79,59.55L195.77,59.60L195.76,59.66"/><path d="M195.43,59.45L195.28,59.56"/></g><g style="stroke:#000000;stroke-width:0.123"><path d="M195.28,59.56L194.98,59.80L194.96,59.83L194.95,60.11L195.51,60.20L195.57,60.21L195.62,60.20L195.63,60.19L195.67,60.17L195.92,59.90L195.93,59.88L195.94,59.17L195.92,59.14L195.87,59.12L195.75,59.11L195.30,59.46L195.28,59.48L195.28,59.56"/></g></g><g id="Actor_.21"><g style="stroke:#000000;stroke-width:0.123"><path d="M174.26,82.10L174.26,82.10"/><path d="M174.44,82.33L174.45,82.31L174.46,82.24L174.46,82.24"/><path d="M174.23,82.15L174.23,82.14L174.28,82.08L174.31,82.09"/></g><g style="stroke:#000000;stroke-width:0.123"><path d="M174.31,82.08L174.30,82.08L174.28,82.08L174.26,82.10L174.23,82.14"/><path d="M174.23,82.14L174.23,82.16"/></g></g><g id="Actor_.22"><g style="stroke:#000000;stroke-width:0.123"><path d="M206.57,71.20L206.59,71.17L206.59,71.10L206.62,70.51L206.60,70.47"/></g><g style="stroke:#000000;stroke-width:0.123"><path d="M206.57,71.20L211.50,65.28L211.51,65.25L211.54,64.61L211.53,64.57L211.49,64.55L210.82,64.44L210.78,64.45L206.64,69.38"/></g></g><g id="Actor_.23"><g style="stroke:#000000;stroke-width:0.123"><path d="M188.94,68.37L188.61,68.71L188.58,68.73L188.56,68.73"/><path d="M188.91,68.35L188.91,68.36L188.58,68.71L188.57,68.71"/><path d="M188.94,68.34L188.94,68.34"/></g><g style="stroke:#000000;stroke-width:0.123"><path d="M187.52,105.49L187.48,114.59"/><path d="M187.58,94.02L187.53,103.53"/><path d="M187.64,82.08L187.59,92.08"/><path d="M187.71,69.64L187.65,80.15"/><path d="M188.92,68.34L188.60,114.36"/></g></g><g id="Actor_.24"><g style="stroke:#000000;stroke-width:0.123"><path d="M157.10,102.43L156.85,103.25"/></g></g><g id="Actor_.25"><g style="stroke:#000000;stroke-width:0.123"><path d="M195.11,84.97L195.13,84.88L195.14,84.26L195.12,84.21"/></g><g style="stroke:#000000;stroke-width:0.123"><path d="M195.11,84.97L200.72,78.23L200.74,78.20L200.76,77.53L200.74,77.49L200.64,77.46L199.99,77.34L199.95,77.35L195.14,83.08"/></g></g><g id="Actor_.26"><g style="stroke:#000000;stroke-width:0.123"><path d="M181.84,75.95L181.84,75.97L181.49,76.35L181.45,76.36L181.43,76.36"/><path d="M181.44,76.35L181.46,76.34L181.81,75.97L181.81,75.96"/></g><g style="stroke:#000000;stroke-width:0.123"><path d="M180.82,113.95L180.88,123.24"/><path d="M180.74,102.24L180.80,111.96"/><path d="M180.66,90.03L180.73,100.26"/><path d="M180.57,77.28L180.64,88.06"/><path d="M181.82,75.94L182.05,122.99"/></g></g><g id="Actor_.27"><g style="stroke:#000000;stroke-width:0.123"><path d="M201.35,66.49L201.36,66.46L201.37,66.39L201.38,65.76L201.36,65.72"/></g><g style="stroke:#000000;stroke-width:0.123"><path d="M201.39,64.65L205.93,59.54L206.03,59.54L206.67,59.64L206.71,59.66L206.73,59.70L206.70,60.38L206.68,60.42L201.34,66.49"/></g></g><g id="Actor_.28"><g style="stroke:#000000;stroke-width:0.123"><path d="M159.38,153.70L159.37,155.13"/><path d="M159.50,155.17L159.41,153.04L159.26,152.89"/><path d="M160.24,150.28L160.23,150.33"/><path d="M166.62,142.61L166.71,142.64"/><path d="M167.06,142.75L167.47,142.12"/><path d="M174.67,132.73L175.02,132.14"/><path d="M181.24,123.30L181.39,123.33"/><path d="M181.72,123.43L182.06,122.88"/><path d="M188.29,114.77L188.61,114.25"/><path d="M187.97,114.67L187.81,114.63"/><path d="M193.94,106.54L194.12,106.58"/><path d="M194.44,106.67L194.73,106.19"/><path d="M194.78,106.22L194.76,106.25"/><path d="M200.19,99.09L200.46,98.64"/><path d="M199.88,99.01L199.68,98.97"/><path d="M200.48,98.71L200.51,98.67"/><path d="M205.58,91.99L205.83,91.57"/><path d="M205.07,91.87L205.27,91.91"/><path d="M205.85,91.63L205.88,91.59"/></g><g style="stroke:#000000;stroke-width:0.123"><path d="M159.37,155.18L159.50,155.17L210.56,87.27L210.69,85.34L209.90,85.18L205.87,90.45"/><path d="M159.31,153.80L159.27,152.94"/><path d="M166.62,142.61L166.15,142.53L159.20,151.68"/><path d="M167.45,142.17L167.12,142.68L166.72,142.64"/><path d="M174.61,132.71L175.02,132.20"/><path d="M175.00,130.93L180.86,123.25L181.24,123.30"/><path d="M182.06,122.93L181.73,123.42L181.39,123.33"/><path d="M187.81,114.63L187.48,114.59L182.05,121.69"/><path d="M188.61,114.30L188.33,114.72L187.97,114.67"/><path d="M193.94,106.54L193.66,106.49L188.61,113.08"/><path d="M194.73,106.24L194.47,106.63L194.12,106.58"/><path d="M199.68,98.97L199.43,98.93L199.28,99.09L194.75,105.04"/><path d="M199.88,99.01L200.13,99.07L200.46,98.69"/><path d="M200.49,97.51L204.79,91.86L205.07,91.87"/><path d="M205.83,91.61L205.60,91.96L205.27,91.91"/></g></g><g id="Actor_.29"><g style="stroke:#000000;stroke-width:0.123"><path d="M182.01,112.44L182.03,112.35L182.03,111.73L182.00,111.68"/></g><g style="stroke:#000000;stroke-width:0.123"><path d="M182.00,110.46L187.53,103.54L187.63,103.54L188.30,103.69L188.34,103.72L188.36,103.76L188.35,104.43L188.34,104.46L182.01,112.44"/></g></g><g id="Actor_.30"><g style="stroke:#000000;stroke-width:0.123"><path d="M194.92,95.43L194.94,95.47L194.93,96.12L194.91,96.16"/></g><g style="stroke:#000000;stroke-width:0.123"><path d="M194.91,96.16L200.42,89.19L200.44,89.16L200.46,88.52L200.44,88.48L200.34,88.44L199.71,88.32L199.67,88.33L194.94,94.25"/></g></g><g id="Actor_.31"><g style="stroke:#000000;stroke-width:0.123"><path d="M167.43,141.36L167.45,141.40L167.48,142.09L167.46,142.12"/></g><g style="stroke:#000000;stroke-width:0.123"><path d="M167.39,140.06L173.77,131.71L174.46,131.87L174.62,131.93L174.64,131.97L174.65,132.64L174.62,132.69L167.45,142.12"/></g></g><g id="Actor_.32"><g style="stroke:#000000;stroke-width:0.123"><path d="M181.95,99.98L181.97,100.02L181.98,100.74L181.96,100.78"/></g><g style="stroke:#000000;stroke-width:0.123"><path d="M181.94,98.80L187.59,92.08L187.67,92.08L188.31,92.21L188.42,92.25L188.43,92.29L188.43,92.99L188.41,93.02L181.95,100.78"/></g></g><g id="Actor_.33"><g style="stroke:#000000;stroke-width:0.123"><path d="M174.63,109.58L174.65,109.48L174.64,108.82L174.61,108.77"/></g><g style="stroke:#000000;stroke-width:0.123"><path d="M174.59,107.56L180.72,100.26L180.83,100.27L181.46,100.41L181.57,100.45L181.59,100.49L181.59,101.20L181.58,101.24L174.62,109.58"/></g></g><g id="Actor_.34"><g style="stroke:#000000;stroke-width:0.123"><path d="M181.90,88.61L181.92,88.51L181.92,87.83L181.89,87.79"/></g><g style="stroke:#000000;stroke-width:0.123"><path d="M181.89,86.65L187.65,80.15L187.69,80.14L188.45,80.29L188.50,80.31L188.51,80.36L188.51,81.08L188.49,81.12L181.90,88.62"/></g></g><g id="Actor_.35"><g style="stroke:#000000;stroke-width:0.123"><path d="M188.85,80.71L188.87,80.60L188.88,79.94L188.85,79.90"/></g><g style="stroke:#000000;stroke-width:0.123"><path d="M188.86,78.78L194.17,72.80L194.28,72.80L194.88,72.91L194.99,72.95L195.01,72.99L195.00,73.70L194.98,73.74L188.85,80.71"/></g></g><g id="Actor_.36"><g style="stroke:#000000;stroke-width:0.123"><path d="M195.17,61.64L195.20,61.64L195.23,61.62L195.53,61.30"/><path d="M195.50,61.29L195.50,61.30L195.20,61.62L195.19,61.62"/></g><g style="stroke:#000000;stroke-width:0.123"><path d="M193.78,97.59L193.63,106.51"/><path d="M193.96,86.36L193.81,95.67"/><path d="M194.14,74.69L193.99,84.46"/><path d="M195.51,61.27L194.72,106.29"/><path d="M194.34,62.53L194.17,72.80"/></g></g><g id="Actor_.37"><g style="stroke:#000000;stroke-width:0.123"><path d="M211.62,73.86L211.62,73.86"/></g><g style="stroke:#000000;stroke-width:0.123"><path d="M211.57,75.05L211.59,74.69"/><path d="M211.60,74.48L211.62,73.86"/></g></g><g id="Actor_.38"><g style="stroke:#000000;stroke-width:0.123"><path d="M213.02,42.89L213.02,42.89"/></g><g style="stroke:#000000;stroke-width:0.123"><path d="M212.98,43.77L212.96,44.20"/><path d="M212.99,43.55L213.02,42.89"/></g></g><g id="Actor_.39"><g style="stroke:#000000;stroke-width:0.123"><path d="M195.32,73.35L195.34,73.25L195.35,72.60L195.33,72.56"/></g><g style="stroke:#000000;stroke-width:0.123"><path d="M195.35,71.47L200.25,65.94L200.35,65.95L201.01,66.06L201.05,66.08L201.07,66.12L201.05,66.82L201.03,66.85L195.31,73.35"/></g></g><g id="Actor_.40"><g style="stroke:#000000;stroke-width:0.123"><path d="M158.76,141.81L158.77,141.71L158.74,141.05L158.69,140.98"/><path d="M158.72,141.79L158.74,141.75L158.71,141.04L158.69,141.01"/></g><g style="stroke:#000000;stroke-width:0.123"><path d="M158.62,139.73L165.76,130.79L166.53,130.98L166.65,131.02L166.67,131.07L166.69,131.78L166.67,131.81L158.76,141.81L158.73,141.81"/></g></g><g id="Actor_.41"><g style="stroke:#000000;stroke-width:0.123"><path d="M200.73,88.81L200.75,88.72L200.76,88.13L200.75,88.09"/></g><g style="stroke:#000000;stroke-width:0.123"><path d="M200.78,86.94L205.17,81.44L205.27,81.45L205.82,81.55L205.92,81.58L205.93,81.62L205.91,82.25L205.90,82.28L200.73,88.81"/></g></g><g id="Actor_.42"><g style="stroke:#000000;stroke-width:0.123"><path d="M167.11,131.26L167.13,131.16L167.11,130.52L167.08,130.47"/></g><g style="stroke:#000000;stroke-width:0.123"><path d="M167.04,129.20L173.56,121.02L173.68,121.04L174.31,121.19L174.42,121.24L174.44,121.28L174.45,121.98L174.44,122.01L167.10,131.26"/></g></g><g id="Actor_.43"><g style="stroke:#000000;stroke-width:0.123"><path d="M206.18,81.92L206.20,81.83L206.22,81.26L206.21,81.22"/></g><g style="stroke:#000000;stroke-width:0.123"><path d="M206.25,80.09L210.33,74.98L210.36,74.97L211.03,75.09L211.06,75.11L211.08,75.15L211.06,75.45L211.05,75.77L211.03,75.80L206.18,81.92"/></g></g><g id="Actor_.44"><g style="stroke:#000000;stroke-width:0.123"><path d="M212.10,63.35L212.10,63.35"/></g><g style="stroke:#000000;stroke-width:0.123"><path d="M212.06,64.19L212.04,64.58"/><path d="M212.10,63.35L212.07,63.98"/></g></g><g id="Actor_.45"><g style="stroke:#000000;stroke-width:0.123"><path d="M158.10,155.55L155.43,103.05L155.36,103.04"/><path d="M156.99,117.14L156.34,104.00L156.22,103.82L156.27,103.71"/><path d="M158.96,155.81L156.37,103.27L156.30,103.26L156.32,103.69"/><path d="M156.34,104.00L156.33,103.94"/><path d="M156.37,103.27L156.83,102.75"/><path d="M156.30,103.26L156.31,103.25"/><path d="M157.57,129.99L158.23,142.22"/><path d="M157.62,129.97L157.00,117.44L156.89,117.27L156.93,117.16"/><path d="M157.00,117.44L157.00,117.38"/><path d="M158.81,153.94L158.24,142.50L158.13,142.33L158.18,142.25"/><path d="M158.24,142.50L158.24,142.43"/><path d="M157.64,130.26L157.63,130.19"/><path d="M158.87,155.08L158.76,153.96"/><path d="M158.82,154.20L158.82,154.14"/></g><g style="stroke:#000000;stroke-width:0.123"><path d="M156.82,102.74L159.37,155.18L158.96,155.81L158.90,155.79L158.87,155.08L158.52,155.01L158.10,155.55L158.04,155.53L155.38,103.02"/><path d="M156.28,103.87L156.32,103.69L156.33,103.94L156.28,103.87"/><path d="M157.58,130.13L157.63,130.19L157.63,130.00L157.57,129.99L157.58,130.13"/><path d="M157.00,117.38L156.92,117.22L156.99,117.14L157.00,117.38"/><path d="M158.23,142.22L158.24,142.43L158.16,142.29L158.23,142.22"/><path d="M158.76,153.96L158.81,153.94L158.82,154.14L158.76,153.96"/></g></g><g id="Actor_.46"><g style="stroke:#000000;stroke-width:0.123"><path d="M157.52,116.36L157.54,116.25L157.50,115.52L157.45,115.45"/><path d="M157.49,116.33L157.51,116.30L157.47,115.52L157.45,115.48"/></g><g style="stroke:#000000;stroke-width:0.123"><path d="M157.39,114.27L164.90,105.80L165.02,105.81L165.78,105.99L165.82,106.02L165.84,106.06L165.87,106.84L165.85,106.88L157.52,116.36L157.49,116.37"/></g></g><g id="Actor_.47"><g style="stroke:#000000;stroke-width:0.123"><path d="M174.18,84.16L174.17,84.19L173.80,84.59L173.76,84.61L173.73,84.61"/><path d="M174.14,84.17L174.14,84.18L174.01,84.33L173.77,84.59L173.75,84.59"/></g><g style="stroke:#000000;stroke-width:0.123"><path d="M172.86,85.54L173.08,96.58"/><path d="M173.61,123.05L173.78,131.71"/><path d="M173.37,111.10L173.57,121.02"/><path d="M173.12,98.61L173.33,109.07"/><path d="M175.02,132.26L174.16,84.16"/></g></g><g id="Actor_.48"><g style="stroke:#000000;stroke-width:0.123"><path d="M165.39,93.55L165.42,93.55L165.46,93.53L165.87,93.09L165.87,93.06"/><path d="M165.84,93.07L165.84,93.08L165.43,93.52L165.41,93.53"/></g><g style="stroke:#000000;stroke-width:0.123"><path d="M164.91,105.80L164.52,94.49"/><path d="M165.42,120.65L165.77,130.79"/><path d="M164.98,107.87L165.35,118.58"/><path d="M165.84,132.86L166.18,142.52"/><path d="M165.86,93.05L167.46,142.24"/></g></g><g id="Actor_.49"><g style="stroke:#000000;stroke-width:0.123"><path d="M188.77,91.82L188.79,91.86L188.79,92.56L188.77,92.59"/></g><g style="stroke:#000000;stroke-width:0.123"><path d="M188.78,90.66L193.98,84.46L194.05,84.46L194.68,84.58L194.79,84.62L194.81,84.66L194.79,85.34L194.78,85.37L188.76,92.60"/></g></g><g id="Actor_.50"><g style="stroke:#000000;stroke-width:0.123"><path d="M211.63,45.64L211.08,44.59"/></g><g style="stroke:#000000;stroke-width:0.123"><path d="M211.70,43.93L211.63,45.64L211.57,45.64L211.05,44.63"/></g></g><g id="Actor_.51"><g style="stroke:#000000;stroke-width:0.123"><path d="M158.08,128.52L158.13,128.58L158.17,129.35L158.15,129.38"/><path d="M158.12,129.36L158.14,129.32L158.10,128.58L158.08,128.55"/></g><g style="stroke:#000000;stroke-width:0.123"><path d="M158.02,127.30L165.34,118.58L165.46,118.59L166.12,118.76L166.24,118.80L166.26,118.85L166.29,119.59L166.27,119.63L158.15,129.38L158.12,129.39"/></g></g><g id="Actor_.52"><g style="stroke:#000000;stroke-width:0.123"><path d="M166.31,106.36L166.33,106.25L166.30,105.54L166.27,105.49"/></g><g style="stroke:#000000;stroke-width:0.123"><path d="M166.23,104.30L173.08,96.58L173.19,96.59L173.93,96.75L173.97,96.78L173.99,96.82L174.01,97.59L173.99,97.62L166.30,106.36"/></g></g><g id="Actor_.53"><g style="stroke:#000000;stroke-width:0.123"><path d="M174.41,97.14L174.43,97.03L174.42,96.34L174.39,96.29"/></g><g style="stroke:#000000;stroke-width:0.123"><path d="M174.37,95.13L180.64,88.06L180.75,88.07L181.30,88.18L181.46,88.21L181.51,88.24L181.53,88.28L181.53,89.02L181.51,89.06L174.40,97.14"/></g></g><g id="Actor_.54"><g style="stroke:#000000;stroke-width:0.123"><path d="M206.98,60.08L207.00,60.00L207.02,59.37L207.01,59.33"/></g><g style="stroke:#000000;stroke-width:0.123"><path d="M206.98,60.08L211.98,54.39L212.00,54.36L212.03,53.69L212.01,53.65L211.97,53.63L211.29,53.53L211.25,53.54L207.04,58.28"/></g></g><g id="Actor_.55"><g style="stroke:#000000;stroke-width:0.123"><path d="M188.69,104.02L188.70,103.92L188.71,103.31L188.68,103.27"/></g><g style="stroke:#000000;stroke-width:0.123"><path d="M188.68,104.02L194.58,96.57L194.60,96.54L194.61,95.88L194.60,95.84L194.49,95.80L193.84,95.67L193.80,95.67L188.69,102.07"/></g></g><g id="Actor_.56"><g style="stroke:#000000;stroke-width:0.123"><path d="M166.72,119.09L166.73,118.99L166.71,118.31L166.68,118.26"/></g><g style="stroke:#000000;stroke-width:0.123"><path d="M166.64,117.03L173.32,109.07L173.49,109.09L174.16,109.25L174.20,109.27L174.22,109.32L174.23,110.05L174.22,110.08L166.71,119.09"/></g></g><g id="Actor_.57"><g style="stroke:#000000;stroke-width:0.123"><path d="M155.39,102.97L156.29,103.22L156.29,102.37L155.39,102.12L155.39,102.97"/><path d="M156.34,103.24L156.32,102.38L155.33,102.10"/></g><g style="stroke:#000000;stroke-width:0.123"><path d="M212.44,41.63L213.09,41.79L213.01,42.53L156.34,103.24L155.44,103.06L155.31,102.15L156.89,100.44"/><path d="M157.96,99.31L165.22,91.60"/><path d="M173.54,82.77L166.25,90.51"/><path d="M181.23,74.62L174.53,81.72"/><path d="M182.17,73.61L188.35,67.06"/><path d="M194.96,60.05L189.25,66.10"/><path d="M201.11,53.52L195.83,59.12"/><path d="M201.95,52.62L206.85,47.42"/><path d="M211.55,42.44L207.67,46.55"/></g></g><g id="Actor_.58"><g style="stroke:#000000;stroke-width:0.123"><path d="M201.67,54.72L201.39,55.02L201.36,55.04L201.33,55.04"/><path d="M201.35,55.02L201.36,55.02L201.64,54.72L201.64,54.71"/></g><g style="stroke:#000000;stroke-width:0.123"><path d="M199.63,90.20L199.40,98.95"/><path d="M199.91,79.21L199.67,88.33"/><path d="M200.20,67.79L199.96,77.34"/><path d="M200.51,55.92L200.25,65.94"/><path d="M201.65,54.70L200.45,98.74"/></g></g><g id="Actor_.59"><g style="stroke:#000000;stroke-width:0.123"><path d="M174.84,121.50L174.86,121.40L174.85,120.77L174.82,120.72"/></g><g style="stroke:#000000;stroke-width:0.123"><path d="M174.83,121.50L181.64,112.92L181.65,112.89L181.65,112.20L181.63,112.16L181.52,112.12L180.84,111.96L180.80,111.96L174.80,119.48"/></g></g><g><g><path style="stroke:#000000;stroke-width:0.210;stroke-dasharray:2.3 2.3" d="M210.83,64.93L221.45,52.25"/></g></g><g><g><path style="stroke:#000000;stroke-width:0.210;stroke-dasharray:2.3 2.3" d="M114.58,87.40L187.63,103.60"/></g></g><g><g><path style="stroke:#000000;stroke-width:0.210;stroke-dasharray:2.3 2.3" d="M187.92,116.28L187.84,128.98"/></g></g><g><g><path style="stroke:#000000;stroke-width:0.210;stroke-dasharray:2.3 2.3" d="M109.85,65.09L187.74,80.00"/></g></g><g><g><path style="stroke:#000000;stroke-width:0.210;stroke-dasharray:2.3 2.3" d="M188.19,67.96L188.29,51.45"/></g></g><g><g><path style="stroke:#000000;stroke-width:0.210;stroke-dasharray:2.3 2.3" d="M146.05,127.54L156.87,130.43"/></g></g><g id="PMI72.0"><g><path style="stroke:#000000;stroke-width:0.280" d="M91.75,56.08L91.62,61.68"/></g><g><path style="fill:#000000" d="M90.63,61.66L92.63,61.71L91.58,63.69z"/></g><g><path style="fill:#ffffff" d="M83.32,56.09L100.32,56.09L100.32,50.45L83.32,50.45z"/><path style="stroke:#000000;stroke-width:0.280;stroke-opacity:0.98" d="M83.32,56.09L100.32,56.09L100.32,50.45L83.32,50.45z"/><text xml:space="preserve" fill="#000000" stroke-width="0" x="84.02" y="54.50" font-size="3.38" opacity="1.00" font-family="MS Shell Dlg">100114U0</text></g></g><g id="PMI30.0"><g><path style="stroke:#000000;stroke-width:0.281" d="M137.99,116.71L142.22,116.70"/></g><g><path style="fill:#000000" d="M142.22,117.70L142.22,115.70L144.22,116.70z"/></g><g><path style="fill:#ffffff" d="M123.04,119.27L138.00,119.27L138.00,114.19L123.04,114.19z"/><path style="stroke:#000000;stroke-width:0.280;stroke-opacity:0.98" d="M123.04,119.27L138.00,119.27L138.00,114.19L123.04,114.19z"/><text xml:space="preserve" fill="#000000" stroke-width="0" x="123.68" y="117.84" font-size="3.04" opacity="1.00" font-family="Microsoft Sans Serif">100114Z0</text></g></g><g id="PMI22.0"><g><path style="stroke:#000000;stroke-width:0.280" d="M205.32,149.59L209.21,149.53"/></g><g><path style="fill:#000000" d="M209.21,150.52L209.18,148.52L211.19,149.49z"/></g><g><path style="fill:#ffffff" d="M188.31,152.52L205.31,152.52L205.31,146.88L188.31,146.88z"/><path style="stroke:#000000;stroke-width:0.280;stroke-opacity:0.98" d="M188.31,152.52L205.31,152.52L205.31,146.88L188.31,146.88z"/><text xml:space="preserve" fill="#000000" stroke-width="0" x="189.01" y="150.93" font-size="3.38" opacity="1.00" font-family="MS Shell Dlg">10002U60</text></g></g><g id="PMI20.0"><g><path style="stroke:#000000;stroke-width:0.280" d="M226.26,159.41L221.29,159.55"/></g><g><path style="fill:#000000" d="M221.25,158.55L221.31,160.55L219.28,159.60z"/></g><g><path style="fill:#ffffff" d="M226.25,161.94L246.77,161.94L246.77,156.29L226.25,156.29z"/><path style="stroke:#000000;stroke-width:0.280;stroke-opacity:0.98" d="M226.25,161.94L246.77,161.94L246.77,156.29L226.25,156.29z"/><text xml:space="preserve" fill="#000000" stroke-width="0" x="226.96" y="160.35" font-size="3.10" opacity="1.00" font-family="MS Shell Dlg">8072000158</text></g></g><g id="PMI29.0"><g><path style="stroke:#000000;stroke-width:0.281" d="M229.47,43.25L224.11,43.54"/></g><g><path style="fill:#000000" d="M224.05,42.55L224.16,44.55L222.11,43.66z"/></g><g><path style="fill:#ffffff" d="M229.46,45.37L244.59,45.37L244.59,40.29L229.46,40.29z"/><path style="stroke:#000000;stroke-width:0.280;stroke-opacity:0.98" d="M229.46,45.37L244.59,45.37L244.59,40.29L229.46,40.29z"/><text xml:space="preserve" fill="#000000" stroke-width="0" x="230.10" y="43.95" font-size="3.04" opacity="1.00" font-family="Microsoft Sans Serif">100114Y0</text></g></g><g id="PMI18.0"><g><path style="stroke:#000000;stroke-width:0.280" d="M226.26,129.11L221.29,129.22"/></g><g><path style="fill:#000000" d="M221.26,128.22L221.31,130.22L219.28,129.27z"/></g><g><path style="fill:#ffffff" d="M226.25,131.69L246.77,131.69L246.77,126.05L226.25,126.05z"/><path style="stroke:#000000;stroke-width:0.280;stroke-opacity:0.98" d="M226.25,131.69L246.77,131.69L246.77,126.05L226.25,126.05z"/><text xml:space="preserve" fill="#000000" stroke-width="0" x="226.96" y="130.11" font-size="3.10" opacity="1.00" font-family="MS Shell Dlg">8057037018</text></g></g><g id="PMI19.0"><g><path style="stroke:#000000;stroke-width:0.280" d="M218.27,82.13L212.70,82.16"/></g><g><path style="fill:#000000" d="M212.69,81.16L212.70,83.16L210.70,82.18z"/></g><g><path style="fill:#ffffff" d="M218.26,84.90L235.27,84.90L235.27,79.26L218.26,79.26z"/><path style="stroke:#000000;stroke-width:0.280;stroke-opacity:0.98" d="M218.26,84.90L235.27,84.90L235.27,79.26L218.26,79.26z"/><text xml:space="preserve" fill="#000000" stroke-width="0" x="218.97" y="83.32" font-size="3.38" opacity="1.00" font-family="MS Shell Dlg">100114H0</text></g></g><g id="PMI71.0"><g><path style="stroke:#000000;stroke-width:0.280" d="M70.15,121.84L75.45,121.91"/></g><g><path style="fill:#000000" d="M75.46,122.90L75.48,120.90L77.47,121.93z"/></g><g><path style="fill:#ffffff" d="M53.36,124.56L70.17,124.56L70.17,118.92L53.36,118.92z"/><path style="stroke:#000000;stroke-width:0.280;stroke-opacity:0.98" d="M53.36,124.56L70.17,124.56L70.17,118.92L53.36,118.92z"/><text xml:space="preserve" fill="#000000" stroke-width="0" x="54.06" y="122.97" font-size="3.38" opacity="1.00" font-family="MS Shell Dlg">100114V0</text></g></g><g id="PMI32.0"><g><path style="stroke:#000000;stroke-width:0.281" d="M153.30,168.91L156.55,168.89"/></g><g><path style="fill:#000000" d="M156.55,169.88L156.54,167.88L158.55,168.87z"/></g><g><path style="fill:#ffffff" d="M138.16,171.48L153.29,171.48L153.29,166.40L138.16,166.40z"/><path style="stroke:#000000;stroke-width:0.280;stroke-opacity:0.98" d="M138.16,171.48L153.29,171.48L153.29,166.40L138.16,166.40z"/><text xml:space="preserve" fill="#000000" stroke-width="0" x="138.80" y="170.05" font-size="3.04" opacity="1.00" font-family="Microsoft Sans Serif">100114X0</text></g></g><g id="PMI31.0"><g><path style="stroke:#000000;stroke-width:0.281" d="M183.22,42.23L183.06,52.78"/></g><g><path style="fill:#000000" d="M182.05,52.77L184.05,52.80L183.02,54.79z"/></g><g><path style="fill:#ffffff" d="M175.25,42.24L191.25,42.24L191.25,37.16L175.25,37.16z"/><path style="stroke:#000000;stroke-width:0.280;stroke-opacity:0.98" d="M175.25,42.24L191.25,42.24L191.25,37.16L175.25,37.16z"/><text xml:space="preserve" fill="#000000" stroke-width="0" x="175.89" y="40.81" font-size="3.05" opacity="1.00" font-family="Microsoft Sans Serif">100114W0</text></g></g><g/><g id="paperID" visibility="hidden" opacity="0.00" transform="scale(0.000100)"><path style="stroke:#000000;stroke-width:0.500;fill:#e6e6e6;fill-rule:evenodd" d="M-2000.00,-2000.00L2297.00,-2000.00L2297.00,2210.00L-2000.00,2210.00zM0.00,0.00L297.00,0.00L297.00,210.00L0.00,210.00z"/><path style="fill:#000000;fill-opacity:0.118" d="M3.00,210.00L297.00,210.00L297.00,3.00L300.00,3.00L300.00,213.00L3.00,213.00z"/></g><g id="hotspot.0" onmouseover="ShowHotSpot(evt,'0')" onmouseout="HideHotSpot(evt,'0')" onmousemove="ShowToolTip(evt,'0',&quot;3dp307728 (I_Bulong 08020125 TK.9)&quot;)" opacity="0"><path style="fill:#00ff00;fill-rule:evenodd" d="M221.50,128.85L226.16,128.87L226.33,125.90L246.70,125.90L246.70,131.73L226.33,131.73L226.16,129.33L221.50,129.36L221.30,129.97L219.51,129.06L220.94,128.14L221.27,128.20z"/></g><g id="hotspot.1" onmouseover="ShowHotSpot(evt,'1')" onmouseout="HideHotSpot(evt,'1')" onmousemove="ShowToolTip(evt,'1',&quot;3dp308107 (I_AI C 06100.57)&quot;)" opacity="0"><path style="fill:#00ff00;fill-rule:evenodd" d="M213.01,41.74L211.60,75.22L211.60,81.53L212.47,81.14L212.74,81.68L218.17,81.80L218.34,79.11L235.29,79.11L235.29,84.94L218.34,84.94L218.17,82.25L212.94,82.28L212.74,82.90L211.31,82.24L211.04,87.79L210.64,88.55L209.45,88.53L159.27,155.34L158.79,155.05L158.26,155.09L157.96,153.02L155.26,101.95L157.01,99.95L158.82,98.33L161.13,95.79L179.67,76.10L181.26,74.28L186.78,68.66L188.67,66.28L190.51,64.69L195.53,59.16L196.20,58.69L197.79,56.85L210.17,43.84L212.15,41.52zM211.62,45.46L211.33,52.99L211.03,53.55L207.33,57.85L207.32,51.83L207.61,48.13L211.06,44.58zM205.82,59.46L203.80,61.72L201.62,64.13L201.61,58.10L201.90,54.12L205.60,50.40L206.07,49.70L206.19,49.73zM210.76,64.40L206.76,68.98L207.04,59.82L210.36,56.02L211.05,55.44zM200.20,65.83L195.63,70.98L195.63,60.96L200.23,56.08L200.49,56.01zM205.62,70.10L205.23,70.85L201.33,75.54L201.33,68.38L201.63,66.11L205.66,61.51L205.92,61.44zM194.21,72.67L189.07,78.39L189.07,68.10L192.93,63.98L194.09,62.54L194.21,62.57zM210.46,72.94L210.18,74.95L206.47,79.53L206.46,75.22L206.75,70.66L210.36,66.54L210.48,66.57zM199.92,77.24L195.34,82.67L195.33,74.37L195.60,72.92L199.82,67.96L200.20,67.70zM174.22,83.80L177.65,80.36L180.26,77.48L180.52,77.41L180.52,88.08L174.49,94.91zM181.93,75.51L187.53,69.68L187.65,80.09L182.22,86.10L181.93,84.83zM205.40,72.71L205.05,81.52L201.05,86.38L201.04,78.93L201.33,77.23L205.34,72.56zM209.90,84.94L206.18,89.81L206.18,82.93L206.44,81.48L210.06,76.80L210.18,76.83zM193.93,84.37L189.06,90.09L189.08,80.38L193.93,74.84zM165.96,92.63L171.97,86.38L172.82,85.68L173.10,96.36L166.53,103.79L166.23,102.81zM199.63,88.37L195.03,94.06L195.05,90.34L195.32,84.62L199.92,79.12zM204.77,91.79L200.76,96.94L200.74,89.19L201.48,87.65L204.94,83.37L205.06,83.40zM187.64,91.78L182.23,98.38L182.22,88.07L187.65,81.97zM174.40,97.09L180.40,90.22L180.52,100.35L174.81,107.22zM164.83,105.77L157.70,113.75L157.37,113.42L156.99,102.50L161.86,97.10L164.54,94.53zM194.00,86.70L193.64,95.79L188.78,101.79L188.77,97.19L189.07,92.06L193.81,86.51zM199.35,98.92L195.06,104.36L195.06,95.77L199.52,90.22L199.63,90.25zM173.40,108.89L166.81,116.62L166.52,111.65L166.50,106.02L173.10,98.52zM164.89,108.09L165.40,118.30L158.25,126.90L157.96,125.06L157.56,116.19L164.83,107.93zM187.36,103.48L182.23,110.07L182.23,100.35L186.98,94.49L187.36,94.23zM193.64,106.33L188.78,112.63L188.79,103.77L193.64,97.66zM174.80,109.18L180.69,102.20L180.80,111.75L175.09,118.91L174.79,116.50zM166.70,119.06L173.27,111.05L173.39,121.18L167.10,128.89zM187.37,114.62L182.22,121.19L182.23,112.04L187.24,105.62L187.36,105.65zM165.68,130.88L158.80,139.42L158.53,136.76L158.14,129.32L165.28,120.75L165.40,120.77zM180.80,123.17L175.09,130.60L175.08,120.88L180.21,114.60L180.68,113.89L180.80,113.92zM165.95,134.48L165.97,142.57L160.81,149.39L159.39,151.14L159.10,148.45L158.70,141.60L165.56,133.00zM167.36,130.84L173.55,123.03L173.66,131.73L167.67,139.45L167.38,138.18z"/></g><g id="hotspot.2" onmouseover="ShowHotSpot(evt,'2')" onmouseout="HideHotSpot(evt,'2')" onmousemove="ShowToolTip(evt,'2',&quot;3dp308147 (I_AI C 08125.66)&quot;)" opacity="0"><path style="fill:#00ff00;fill-rule:evenodd" d="M221.50,159.08L226.16,159.11L226.33,156.14L246.70,156.14L246.70,161.97L226.33,161.97L226.16,159.57L221.50,159.59L221.27,160.25L220.74,160.19L219.56,159.55L219.50,159.30L221.30,158.47z"/></g><g id="hotspot.3" onmouseover="ShowHotSpot(evt,'3')" onmouseout="HideHotSpot(evt,'3')" onmousemove="ShowToolTip(evt,'3',&quot;3dp351900 (I_3DPart351900.121)&quot;)" opacity="0"><path style="fill:#00ff00;fill-rule:evenodd" d="M211.02,149.31L209.32,150.28L209.03,149.61L205.50,149.58L205.33,152.55L188.38,152.55L188.38,146.73L205.33,146.73L205.50,149.13L209.03,149.10L209.32,148.43z"/></g><g id="hotspot.4" onmouseover="ShowHotSpot(evt,'4')" onmouseout="HideHotSpot(evt,'4')" onmousemove="ShowToolTip(evt,'4',&quot;3dp335165 (I_3DPart335165.97)&quot;)" opacity="0"><path style="fill:#00ff00;fill-rule:evenodd" d="M224.79,43.37L224.93,43.20L229.30,43.00L229.47,40.03L244.71,40.03L244.71,45.28L229.47,45.28L229.30,43.45zM224.06,43.25L224.79,43.37L224.15,44.38L222.70,43.70L222.37,43.74L222.13,44.39L220.44,71.25L220.44,68.09L222.63,31.74L222.72,31.74L222.44,39.56L222.44,43.30L223.87,42.63z"/></g><g id="hotspot.5" onmouseover="ShowHotSpot(evt,'5')" onmouseout="HideHotSpot(evt,'5')" onmousemove="ShowToolTip(evt,'5',&quot;3dp335166 (I_3DPart335166.98)&quot;)" opacity="0"><path style="fill:#00ff00;fill-rule:evenodd" d="M143.59,98.25L144.30,97.96L148.29,153.69L147.94,154.29L147.61,154.29zM144.01,116.62L142.74,117.39L142.20,117.45L141.97,116.80L138.17,116.77L138.00,119.17L123.05,119.17L123.05,113.92L138.00,113.92L138.17,116.32L141.98,116.29L142.28,115.62z"/></g><g id="hotspot.6" onmouseover="ShowHotSpot(evt,'6')" onmouseout="HideHotSpot(evt,'6')" onmousemove="ShowToolTip(evt,'6',&quot;3dp337752 (I_3DPart337752.148)&quot;)" opacity="0"><path style="fill:#00ff00;fill-rule:evenodd" d="M175.26,42.14L175.26,36.89L191.35,36.89L191.35,42.14L183.53,42.31L183.33,44.96L183.16,45.08L183.08,42.31zM183.28,52.68L183.88,52.87L183.91,53.56L186.21,51.54L194.39,43.46L196.93,41.15L202.95,35.19L205.49,32.88L211.51,26.92L212.66,26.02L213.30,26.02L212.74,26.73L212.47,28.74L211.48,29.74L208.94,32.05L194.93,46.00L192.39,48.31L178.10,62.55L175.56,64.86L161.27,79.10L154.54,85.53L154.14,83.13L154.84,81.80L168.43,68.57L170.97,66.26L177.27,60.01L179.81,57.70L182.82,54.68L182.81,54.02L182.15,52.59L182.76,52.40L183.00,45.20L183.16,45.08z"/></g><g id="hotspot.7" onmouseover="ShowHotSpot(evt,'7')" onmouseout="HideHotSpot(evt,'7')" onmousemove="ShowToolTip(evt,'7',&quot;3dp337756 (I_3DPart337756.155)&quot;)" opacity="0"><path style="fill:#00ff00;fill-rule:evenodd" d="M209.91,100.33L159.56,171.01L158.82,171.02L158.50,167.37L159.13,166.26L209.49,96.77L209.61,96.80zM158.27,168.68L156.82,169.68L156.82,167.83zM153.58,168.53L156.27,168.71L153.58,168.98L153.41,171.38L138.17,171.38L138.17,166.13L153.41,166.13z"/></g><g id="hotspot.8" onmouseover="ShowHotSpot(evt,'8')" onmouseout="HideHotSpot(evt,'8')" onmousemove="ShowToolTip(evt,'8',&quot;3dp335163 (I_3DPart335163.95)&quot;)" opacity="0"><path style="fill:#00ff00;fill-rule:evenodd" d="M143.98,64.01L144.29,72.67L81.78,128.00L79.67,129.93L79.14,130.03L77.53,122.15L77.27,121.90L75.97,122.52L75.42,122.52L75.70,121.04L76.06,121.01L76.66,121.39L77.22,121.47L76.93,118.78L75.22,110.31L74.94,108.51L74.94,106.61L77.66,104.48L83.08,100.20L140.71,54.55L143.15,52.87zM70.27,121.45L75.25,121.64L70.27,121.91L70.10,124.59L53.44,124.59L53.44,118.77L70.10,118.77z"/></g><g id="hotspot.9" onmouseover="ShowHotSpot(evt,'9')" onmouseout="HideHotSpot(evt,'9')" onmousemove="ShowToolTip(evt,'9',&quot;3dp335164 (I_3DPart335164.96)&quot;)" opacity="0"><path style="fill:#00ff00;fill-rule:evenodd" d="M139.79,31.92L140.56,42.69L140.84,45.75L141.16,53.00L75.13,104.80L73.11,106.52L72.37,106.55L67.38,81.39L139.35,31.72zM83.39,56.12L83.39,50.30L100.34,50.30L100.34,56.12L91.95,56.29L92.00,61.51L92.39,62.08L91.73,63.28L91.43,63.27L90.85,61.72L91.47,61.53L91.50,56.29z"/></g></g></svg>
