<?xml version="1.0" encoding="UTF-8" standalone="no"?>
<svg xmlns="http://www.w3.org/2000/svg" xmlns:xlink="http://www.w3.org/1999/xlink" width="297.000mm" height="210.000mm" viewBox="0.000000 0.000000 297.000000 210.000000" stroke-linejoin="round" stroke-linecap="round" fill="none" fill-rule="evenodd"><desc>Composer Export</desc><script type="text/ecmascript"><![CDATA[
if(typeof(top) != "undefined")
{
	top.ShowPaper = ShowPaper;
}
function ShowHotSpot(evt,hotspotid)
{
	var svgDocument = evt.target.ownerDocument;
	var strId = "hotspot."+hotspotid;
	var hotspot = svgDocument.getElementById(strId);
	if(hotspot)
		hotspot.setAttribute("opacity",".5");
}
function HideHotSpot(evt,hotspotid)
{
	var svgDocument = evt.target.ownerDocument;
	var strId = "hotspot."+hotspotid;
	var hotspot = svgDocument.getElementById(strId);
	if(hotspot)
		hotspot.setAttribute("opacity","0");

	var toolTip = svgDocument.getElementById('ToolTip');
	if(toolTip)
		toolTip.setAttribute("visibility","hidden");
}
function ShowToolTip(evt,hotspotid,strTooltip)
{
	if(strTooltip=="")
	return;

	// change text
	var svgDocument = evt.target.ownerDocument;
	var tiptext = svgDocument.getElementById('ToolTipText');
	if( !tiptext )
	return;
	tiptext.firstChild.nodeValue = " " + strTooltip + "  " ;

	// show tooltip before, else some refresh issue

	var toolTip = svgDocument.getElementById('ToolTip');
	if(!toolTip)
	return;

	toolTip.setAttribute("visibility","visible");
	toolTip.setAttribute("opacity",".95");

	// move tooltip
	// get viewbox

	var root = svgDocument.documentElement;
	var vbox = (root.getAttribute("viewBox")).split(' ');
	var x0 = parseFloat(vbox[0]);
	var y0 = parseFloat(vbox[1]);
	var vboxW = parseFloat(vbox[2]);
	var vboxH = parseFloat(vbox[3]);

	// get default width of svg

	var strW = root.getAttribute("width");
	var svgW = parseFloat(strW);
	if(strW.indexOf('mm') != -1)
	svgW *= 3.779;

	var strH = root.getAttribute("height");
	var svgH = parseFloat(strH);
	if(strH.indexOf('mm') != -1)
	svgH *= 3.779;  	// 96 dpi  -> 96/25.4 = 3.779

	// update the viewbox / width / height if svg is embedded in html with zoom fit all
	var realx0 = x0;
	var realy0 = y0;
	var realvboxW = vboxW;
	var realvboxH = vboxH;
	var realsvgW = svgW;
	var realsvgH = svgH;

	if ((typeof(top) == "undefined") || (typeof(top.svgctl1) != "undefined")) // embedded in html
	{
		// get window size in pxl

		svgW = window.innerWidth;
		svgH = window.innerHeight;

		// calculate real viewbox

		realsvgW = svgW;
		realsvgH = svgH;
		if((svgW / svgH) > (vboxW / vboxH))
		{
			realvboxW = (vboxH * svgW) / svgH;
			realvboxH = vboxH;
			realx0 = x0 - (realvboxW - vboxW)/2 ;
		}
		else
		{
			realvboxH = (vboxW * svgH) / svgW;
			realvboxW = vboxW;
			realy0 = y0 - (realvboxH - vboxH)/2 ;
		}
	}

	// get user zoom/pan

	var newScale = root.currentScale;
	var translation = root.currentTranslate;

	// transform pxl to user unit

	var xPos = (((evt.clientX+10- translation.x)/newScale) * realvboxW)/realsvgW  + realx0 ;
	var yPos = (((evt.clientY+5- translation.y)/newScale) * realvboxH)/ realsvgH  + realy0 ;
	var scaleForWidth = ( (1 / newScale) * realvboxH) / realsvgH;

	// move tooltip

	toolTip.setAttribute("transform", "translate(" + xPos + "," + yPos + ")" );

	// resize tooltip

	var fontsize = 12;
	tiptext.setAttribute("font-size",fontsize*scaleForWidth);
	tiptext.setAttribute("y", fontsize*scaleForWidth);
	var tipBG = svgDocument.getElementById('ToolTipBG');
	var outline = tiptext.getBBox();
	if(tipBG)
	{
		tipBG.setAttribute("stroke-width", 1*scaleForWidth);
		tipBG.setAttribute("width", Number(outline.width) );
		tipBG.setAttribute("height", Number(outline.height) + fontsize*.5*scaleForWidth );
	}
	var ToolTipShadow = svgDocument.getElementById('ToolTipShadow');
	if(ToolTipShadow)
	{
		ToolTipShadow.setAttribute("width", Number(outline.width) );
		ToolTipShadow.setAttribute("height", Number(outline.height) + fontsize*.5*scaleForWidth );
		ToolTipShadow.setAttribute("x", 3*scaleForWidth);
		ToolTipShadow.setAttribute("y", 3*scaleForWidth);
	}
}
function ShowPaper()
{
  var svgDocument = getDocument();
  var paper = svgDocument.getElementById("paperID");
  if(paper)
  {
    paper.setAttribute("transform","scale(1)");
    paper.setAttribute("opacity","1");
    paper.setAttribute("visibility","visible");
  }
  var svg = svgDocument.getRootElement();
  if(svg)
  {
    svg.setAttribute("width","307.000mm");
    svg.setAttribute("height","220.000mm");
    svg.setAttribute("viewBox","-5.000000 -5.000000 307.000000 220.000000");
  }
}
]]></script><defs/><g><path style="fill:#ffffff" d="M296.92,209.93L0.08,209.93L0.08,0.08L296.92,0.08z"/><path style="fill:#f607ec" d="M134.95,34.76L135.24,35.74L134.84,37.15L134.41,37.21L134.14,36.92L133.94,36.02L134.40,36.07L134.69,36.49L134.66,35.55L134.26,35.49L133.94,36.02L133.77,35.91L133.87,34.86L134.32,34.48L134.67,34.47z"/><path style="fill:#f607ec" d="M134.29,68.56L134.28,69.93L134.03,70.31L133.62,70.29L133.34,70.01L133.14,69.10L133.62,69.14L133.90,69.55L133.88,68.96L133.70,68.88L133.35,68.61L133.14,69.10L132.94,68.41L133.26,67.85L133.87,67.82z"/><path style="fill:#f607ec" d="M189.93,72.39L190.46,73.66L190.33,74.74L189.83,75.39L189.12,75.36L188.55,74.56L188.57,72.49L189.01,72.11z"/><path style="fill:#f607ec" d="M133.10,98.49L133.62,99.54L133.48,100.63L133.33,100.82L132.82,100.71L132.51,100.17L132.54,98.34L132.82,98.27z"/><path style="fill:#f607ec" d="M186.22,110.78L186.57,111.79L186.23,113.35L185.37,113.24L184.82,112.45L184.82,110.64L185.91,110.54z"/><path style="fill:#f607ec" d="M182.69,145.27L183.12,146.21L183.12,147.58L182.98,147.77L181.90,147.65L181.61,147.14L181.63,145.05L182.17,144.95z"/><path style="fill:#0515f6" d="M149.47,31.46L149.65,32.82L149.26,32.89L148.61,33.70L148.11,33.44L148.56,33.24L148.58,32.66L147.12,32.65L145.79,32.92L145.45,33.58L145.03,33.21L145.03,32.70L145.26,32.39L147.92,31.84L148.19,31.32z"/><path style="fill:#0515f6" d="M148.30,64.92L148.32,65.63L147.92,65.71L147.56,66.40L146.76,66.15L147.30,65.63L147.25,65.48L144.70,65.71L144.09,66.41L143.90,66.34L144.00,65.27L146.58,64.66L146.87,64.13L147.76,64.10z"/><path style="fill:#0515f6" d="M206.47,67.58L206.99,68.67L207.00,69.55L206.81,69.70L206.10,69.73L205.75,70.42L205.07,70.29L204.70,69.99L205.58,69.74L205.70,68.96L202.38,69.76L202.02,70.41L201.63,70.29L201.56,68.93L203.98,68.42L205.29,67.30L205.91,67.31z"/><path style="fill:#0515f6" d="M146.96,95.07L146.97,96.04L146.33,96.18L146.20,96.55L145.65,96.36L145.89,95.61L143.41,96.17L143.02,96.67L142.85,96.54L142.85,95.63L145.32,94.88L145.78,94.24L146.42,94.25z"/><path style="fill:#0515f6" d="M201.97,105.44L202.47,106.58L202.28,107.33L201.81,107.33L201.46,108.03L200.40,107.73L201.12,107.42L201.14,106.83L198.61,107.35L197.48,108.15L197.02,107.32L197.30,106.85L200.10,105.90L200.50,105.23L201.67,105.21z"/><path style="fill:#0515f6" d="M198.19,140.17L198.19,141.61L198.01,141.75L197.20,141.68L197.14,140.99L194.35,141.78L193.75,142.46L193.36,142.34L193.28,141.26L195.82,140.31L196.75,139.35L197.38,139.35z"/><path style="fill:#0515f6" d="M196.68,141.77L197.20,141.68L197.21,142.19z"/><path style="fill:#e1e1e1" d="M74.90,25.17L75.85,25.61L75.97,25.95L77.38,26.68L77.58,27.03L78.20,27.42L78.90,28.10L82.10,28.08L82.64,28.37L110.36,51.34L111.46,51.34L111.44,47.67L111.99,46.08L113.60,43.42L115.90,41.72L118.04,40.92L121.59,40.92L122.75,41.28L122.02,41.46L122.65,41.72L125.70,43.70L130.25,47.25L130.95,49.21L130.67,50.88L129.87,52.48L127.35,55.04L123.36,57.98L117.77,59.06L115.98,59.07L115.22,57.43L114.38,56.65L114.35,57.19L120.63,67.30L126.83,77.65L126.58,78.29L112.69,81.20L112.22,81.83L112.29,90.09L110.57,90.02L109.21,90.28L109.28,90.82L111.99,93.73L111.67,94.03L111.72,121.24L111.98,179.43L112.08,180.04L111.72,179.96L108.28,174.85L96.52,160.45L91.97,154.60L75.41,128.72L74.97,124.10L75.48,123.89L78.38,127.93L79.08,127.95L79.69,127.72L79.96,125.75L80.25,128.84L80.51,128.58L80.76,124.42L80.95,129.90L81.55,129.90L81.83,128.68L82.03,131.24L82.34,131.24L82.63,126.82L82.82,132.56L83.34,132.48L83.70,130.82L83.90,133.65L84.21,133.65L84.50,128.69L84.78,134.88L85.29,134.96L85.39,132.09L85.54,132.20L85.76,136.31L86.35,136.25L86.66,135.91L86.84,137.65L87.15,137.65L87.26,132.62L87.41,132.74L87.63,138.97L88.23,138.97L88.33,135.82L88.48,135.94L88.69,140.30L89.21,140.22L89.31,139.12L86.63,66.80L86.39,64.12L85.73,63.60L87.70,114.57L88.33,135.82L88.17,135.71L85.32,63.05L84.66,62.53L86.10,98.56L86.73,119.01L86.57,118.90L84.26,61.96L83.97,61.66L83.62,61.70L84.77,89.75L85.66,116.08L85.50,115.97L83.19,61.18L82.53,60.66L83.16,74.81L84.06,100.33L83.90,100.22L82.36,62.53L82.12,60.12L81.57,59.57L82.10,72.94L82.72,91.53L82.57,91.42L81.30,60.93L81.04,59.01L80.79,58.75L80.59,64.84L80.43,64.73L80.23,59.06L79.97,57.95L79.72,57.68L79.52,62.71L79.37,62.60L79.18,57.18L78.63,56.63L78.45,60.31L78.30,60.19L78.12,56.11L77.57,55.57L77.39,57.91L77.23,57.79L77.05,55.05L76.50,54.50L76.31,55.22L75.97,53.94L75.72,53.68L75.43,57.04L75.18,53.18L74.63,52.63L74.36,55.44L74.11,52.38L73.56,51.83L73.29,53.57L73.04,51.31L70.44,48.81L70.09,47.32L69.57,40.10L68.79,38.97L65.63,35.29L65.26,34.53L65.29,31.66L65.81,29.52L67.59,27.03L70.08,25.52L71.06,25.17L73.27,24.89z"/><path style="fill:#e1e1e1" d="M67.69,48.91L68.54,49.15L68.16,49.47L68.22,51.59L72.58,124.59L71.96,124.45L70.07,121.79L69.56,115.10L65.20,47.06L65.83,46.81z"/><path style="fill:#dd06d4" d="M134.40,36.07L133.94,36.02L134.26,35.49z"/><path style="fill:#dd06d4" d="M135.19,37.02L134.84,37.15L135.24,35.74z"/><path style="fill:#dd06d4" d="M133.70,68.88L133.62,69.14L133.14,69.10L133.35,68.61z"/><path style="fill:#dd06d4" d="M134.28,69.93L134.29,68.56L134.40,68.66z"/><path style="fill:#dd06d4" d="M189.25,73.09L189.09,73.96L188.75,73.83L188.80,73.26L189.13,72.94z"/><path style="fill:#dd06d4" d="M186.57,111.79L186.73,112.80L186.23,113.35z"/><path style="fill:#dd06d4" d="M181.97,146.45L181.81,146.37L181.80,145.80L181.98,145.75z"/><path style="fill:#dd06d4" d="M183.12,147.58L183.12,146.21L183.23,146.31z"/><path style="fill:#0512dd" d="M148.56,33.24L148.11,33.44L145.45,33.58L145.79,32.92L147.12,32.65L148.58,32.66z"/><path style="fill:#0512dd" d="M149.69,33.07L149.24,33.73L148.61,33.70L149.26,32.89L149.65,32.82z"/><path style="fill:#0512dd" d="M148.22,66.30L147.56,66.40L147.92,65.71L148.32,65.63z"/><path style="fill:#0512dd" d="M147.30,65.63L146.76,66.15L144.09,66.41L144.70,65.71L147.25,65.48z"/><path style="fill:#0512dd" d="M206.65,70.28L205.75,70.42L206.10,69.73L206.81,69.70z"/><path style="fill:#0512dd" d="M205.58,69.74L204.70,69.99L202.02,70.41L202.38,69.76L205.70,68.96z"/><path style="fill:#0512dd" d="M146.89,96.45L146.20,96.55L146.33,96.18L146.97,96.04z"/><path style="fill:#0512dd" d="M145.65,96.36L143.44,96.80L143.02,96.67L143.41,96.17L145.89,95.61z"/><path style="fill:#0512dd" d="M202.11,107.91L201.46,108.03L201.81,107.33L202.28,107.33z"/><path style="fill:#0512dd" d="M201.12,107.42L200.40,107.73L198.15,108.26L197.48,108.15L198.61,107.35L201.14,106.83z"/><path style="fill:#0512dd" d="M197.84,142.07L197.21,142.19L197.20,141.68L198.01,141.75z"/><path style="fill:#0512dd" d="M197.20,141.68L196.68,141.77L193.75,142.46L194.35,141.78L197.14,140.99z"/><path style="fill:#cacaca" d="M76.77,25.97L77.38,26.68L75.97,25.95L75.85,25.61z"/><path style="fill:#cacaca" d="M78.20,27.42L77.58,27.03L77.38,26.68L77.86,26.75z"/><path style="fill:#cacaca" d="M68.79,38.97L67.44,38.23L66.08,36.65L65.63,35.29z"/><path style="fill:#cacaca" d="M124.27,41.98L125.37,43.02L125.70,43.70L122.65,41.72L122.02,41.46L122.75,41.28z"/><path style="fill:#cacaca" d="M130.69,47.55L132.80,50.26L133.87,52.92L134.11,55.57L133.87,57.56L132.98,59.87L131.09,62.51L129.06,64.22L125.52,66.01L120.63,67.30L114.35,57.19L114.38,56.65L115.22,57.43L115.98,59.07L117.77,59.06L123.36,57.98L127.35,55.04L129.87,52.48L130.67,50.88L130.95,49.21L130.25,47.25z"/><path style="fill:#cacaca" d="M73.04,51.31L73.29,53.57L73.56,51.83L74.11,52.38L74.36,55.44L74.63,52.63L75.18,53.18L75.43,57.04L75.72,53.68L75.97,53.94L76.31,55.22L76.49,60.51L76.47,55.35L76.31,55.22L76.50,54.50L77.05,55.05L77.23,57.79L77.39,57.91L77.50,63.40L77.65,63.51L77.77,68.73L77.92,68.85L78.03,74.34L78.19,74.45L78.30,79.94L78.45,80.05L78.63,85.32L78.61,80.17L78.45,80.05L78.34,74.56L78.19,74.45L78.07,68.96L77.92,68.85L77.81,63.62L77.65,63.51L77.54,58.02L77.39,57.91L77.57,55.57L78.12,56.11L78.30,60.19L78.45,60.31L78.83,71.67L78.99,71.78L79.10,77.27L79.25,77.39L79.37,82.88L79.52,82.99L79.63,88.48L79.79,88.59L79.96,94.13L79.94,88.71L79.79,88.59L79.67,83.10L79.52,82.99L79.41,77.50L79.25,77.39L79.14,71.89L78.99,71.78L78.61,60.42L78.45,60.31L78.63,56.63L79.18,57.18L79.37,62.60L79.52,62.71L80.17,79.94L80.32,80.05L80.43,85.81L80.59,85.92L80.70,91.68L80.85,91.80L80.97,97.55L81.12,97.67L81.30,103.20L81.28,97.78L81.12,97.67L81.01,91.91L80.85,91.80L80.74,86.04L80.59,85.92L80.47,80.17L80.32,80.05L79.67,62.82L79.52,62.71L79.72,57.68L79.97,57.95L80.23,59.06L80.43,64.73L80.59,64.84L80.97,76.74L81.12,76.85L81.23,82.61L81.39,82.72L81.50,88.75L81.65,88.86L81.77,94.62L81.92,94.73L82.10,100.53L82.08,94.84L81.92,94.73L81.81,88.97L81.65,88.86L81.54,82.84L81.39,82.72L81.28,76.96L81.12,76.85L80.74,64.96L80.59,64.84L80.79,58.75L81.04,59.01L81.30,60.93L82.57,91.42L82.72,91.53L82.84,97.55L82.99,97.67L83.10,103.69L83.26,103.80L83.37,109.83L83.52,109.94L83.64,115.97L83.79,116.08L83.90,122.10L84.06,122.22L84.23,128.29L84.21,122.33L84.06,122.22L83.94,116.19L83.79,116.08L83.68,110.05L83.52,109.94L83.41,103.92L83.26,103.80L83.14,97.78L82.99,97.67L82.88,91.64L82.72,91.53L82.10,72.94L81.57,59.57L82.12,60.12L82.36,62.53L83.90,100.22L84.06,100.33L84.17,106.63L84.32,106.74L84.44,113.03L84.59,113.14L84.70,119.17L84.86,119.28L84.97,125.57L85.12,125.68L85.24,131.98L85.39,132.09L85.29,134.96L84.78,134.88L84.50,128.69L84.21,133.65L83.90,133.65L83.70,130.82L83.34,132.48L82.82,132.56L82.63,126.82L82.34,131.24L82.03,131.24L81.83,128.68L81.55,129.90L80.95,129.90L80.76,124.42L80.51,128.58L80.25,128.84L79.96,125.75L79.69,127.72L79.08,127.95L78.38,127.93L75.48,123.89L74.97,124.10L72.58,124.59L68.22,51.59L68.16,49.47L68.54,49.15L68.85,49.05L70.20,48.89L70.44,48.81z"/><path style="fill:#cacaca" d="M66.02,51.28L66.33,51.27L66.37,52.49L66.11,52.44z"/><path style="fill:#cacaca" d="M83.19,61.18L85.50,115.97L85.66,116.08L86.04,129.04L86.19,129.15L86.37,135.49L86.35,129.27L86.19,129.15L85.81,116.19L85.66,116.08L84.77,89.75L83.62,61.70L83.97,61.66L84.26,61.96L86.57,118.90L86.73,119.01L86.84,125.57L86.99,125.68L87.11,132.51L87.26,132.62L87.15,137.65L86.84,137.65L86.66,135.91L86.35,136.25L85.76,136.31L85.54,132.20L85.39,132.09L85.28,125.80L85.12,125.68L85.01,119.39L84.86,119.28L84.74,113.26L84.59,113.14L84.48,106.85L84.32,106.74L84.21,100.45L84.06,100.33L83.16,74.81L82.53,60.66z"/><path style="fill:#cacaca" d="M85.32,63.05L88.17,135.71L88.33,135.82L88.23,138.97L87.63,138.97L87.41,132.74L87.26,132.62L87.15,125.80L86.99,125.68L86.88,119.13L86.73,119.01L86.10,98.56L84.66,62.53z"/><path style="fill:#cacaca" d="M86.39,64.12L86.63,66.80L89.31,139.12L89.21,140.22L88.69,140.30L88.48,135.94L88.33,135.82L87.70,114.57L85.73,63.60z"/><path style="fill:#cacaca" d="M87.46,65.19L87.70,67.07L90.10,134.58L90.08,141.65L89.77,141.65L89.57,138.85L86.91,64.64z"/><path style="fill:#cacaca" d="M88.79,66.79L90.90,129.51L91.15,142.99L90.84,142.99L90.64,141.78L88.24,73.47L88.25,65.96z"/><path style="fill:#cacaca" d="M89.86,67.59L91.70,123.37L92.23,144.31L91.63,144.31L89.30,73.47L89.31,67.04z"/><path style="fill:#cacaca" d="M90.92,68.66L93.30,145.61L92.78,145.91L90.37,72.94L90.38,68.11z"/><path style="fill:#cacaca" d="M91.99,69.72L92.24,72.14L94.37,146.95L93.85,147.24L93.57,141.25L91.33,69.20z"/><path style="fill:#cacaca" d="M93.33,71.06L95.44,145.26L95.35,148.49L94.83,148.57L92.77,79.34L92.78,70.51z"/><path style="fill:#cacaca" d="M94.39,72.12L96.50,149.91L95.90,149.91L93.84,77.48L93.84,71.58z"/><path style="fill:#cacaca" d="M95.72,73.73L97.57,151.22L97.05,151.51L96.77,145.52L94.81,72.66L94.92,72.63z"/><path style="fill:#cacaca" d="M96.79,74.79L98.63,152.85L98.03,152.85L96.24,81.75L96.25,74.24z"/><path style="fill:#cacaca" d="M98.13,76.12L99.71,147.39L99.62,154.36L99.10,154.44L97.20,75.34z"/><path style="fill:#cacaca" d="M99.20,77.19L99.44,81.48L100.51,133.25L100.77,155.78L100.17,155.78L98.54,76.67z"/><path style="fill:#cacaca" d="M100.53,78.53L101.84,143.92L101.83,157.39L101.53,157.38L101.28,157.04L99.98,90.82L99.98,77.98z"/><path style="fill:#cacaca" d="M127.20,78.54L126.93,86.90L125.48,87.32L125.21,87.58L124.44,133.51L124.13,170.25L123.99,171.49L112.70,174.87L112.52,179.79L112.35,180.09L112.08,180.04L111.98,179.43L111.72,121.24L111.67,94.03L111.99,93.73L109.28,90.82L109.21,90.28L110.57,90.02L112.29,90.09L112.22,81.83L112.69,81.20L126.58,78.29L126.83,77.65z"/><path style="fill:#cacaca" d="M101.86,79.86L103.17,158.69L102.65,158.98L102.38,155.40L100.94,79.07z"/><path style="fill:#cacaca" d="M102.93,80.93L103.18,83.88L104.24,160.32L103.64,160.32L102.64,104.96L102.27,80.41z"/><path style="fill:#cacaca" d="M104.27,82.26L104.51,88.68L105.05,126.58L105.30,161.92L104.70,161.92L103.71,95.09L103.72,81.72z"/><path style="fill:#cacaca" d="M105.60,83.60L106.38,136.45L106.55,163.43L106.03,163.52L105.85,160.20L105.05,101.23L105.05,83.05z"/><path style="fill:#cacaca" d="M106.93,85.20L107.71,147.92L107.62,165.04L107.10,165.12L106.10,84.40z"/><path style="fill:#cacaca" d="M108.27,86.53L108.78,166.72L108.26,166.64L107.45,85.72z"/><path style="fill:#cacaca" d="M68.61,86.41L68.68,87.10L68.22,87.11L68.13,86.25z"/><path style="fill:#cacaca" d="M109.60,87.87L109.57,89.87L108.97,89.87L108.67,87.08z"/><path style="fill:#cacaca" d="M110.97,89.23L110.93,89.59L110.30,89.60L110.39,88.65z"/><path style="fill:#cacaca" d="M110.40,97.21L110.41,98.10L109.51,97.56L109.51,96.39L109.84,96.36z"/><path style="fill:#cacaca" d="M70.66,118.26L70.66,118.70L70.38,118.97L70.38,117.99z"/><path style="fill:#cacaca" d="M110.40,136.95L110.69,138.12L109.77,137.58L109.77,136.69L110.11,136.65z"/><path style="fill:#cacaca" d="M110.68,173.25L110.57,173.57L110.03,173.65L110.04,172.70L110.36,172.71z"/><path style="fill:#cacaca" d="M112.61,180.20L113.51,179.95L113.84,175.48L124.46,172.23L125.09,171.60L124.81,176.58L123.73,177.90L114.85,180.76L113.30,180.76z"/><path style="fill:#e1e1e1" d="M76.49,60.51L76.31,55.22L76.47,55.35z"/><path style="fill:#e1e1e1" d="M75.78,62.44L75.63,62.33L75.69,57.44z"/><path style="fill:#e1e1e1" d="M77.65,63.51L77.50,63.40L77.39,57.91L77.54,58.02z"/><path style="fill:#e1e1e1" d="M78.99,71.78L78.83,71.67L78.45,60.31L78.61,60.42z"/><path style="fill:#e1e1e1" d="M74.98,65.91L74.83,65.80L74.89,60.91z"/><path style="fill:#e1e1e1" d="M76.85,66.18L76.70,66.06L76.76,60.91z"/><path style="fill:#e1e1e1" d="M76.05,67.78L75.90,67.67L75.78,62.44L75.94,62.56z"/><path style="fill:#e1e1e1" d="M80.32,80.05L80.17,79.94L79.52,62.71L79.67,62.82z"/><path style="fill:#e1e1e1" d="M77.92,68.85L77.77,68.73L77.65,63.51L77.81,63.62z"/><path style="fill:#e1e1e1" d="M81.12,76.85L80.97,76.74L80.59,64.84L80.74,64.96z"/><path style="fill:#e1e1e1" d="M75.16,70.91L74.98,65.91L75.14,66.02z"/><path style="fill:#e1e1e1" d="M77.12,71.51L76.96,71.40L76.85,66.18L77.01,66.29z"/><path style="fill:#e1e1e1" d="M76.23,72.78L76.05,67.78L76.20,67.89z"/><path style="fill:#e1e1e1" d="M78.19,74.45L78.03,74.34L77.92,68.85L78.07,68.96z"/><path style="fill:#e1e1e1" d="M77.39,76.85L77.23,76.74L77.12,71.51L77.27,71.63z"/><path style="fill:#e1e1e1" d="M79.25,77.39L79.10,77.27L78.99,71.78L79.14,71.89z"/><path style="fill:#e1e1e1" d="M78.45,80.05L78.30,79.94L78.19,74.45L78.34,74.56z"/><path style="fill:#e1e1e1" d="M77.56,82.12L77.39,76.85L77.54,76.96z"/><path style="fill:#e1e1e1" d="M81.39,82.72L81.23,82.61L81.12,76.85L81.28,76.96z"/><path style="fill:#e1e1e1" d="M79.52,82.99L79.37,82.88L79.25,77.39L79.41,77.50z"/><path style="fill:#e1e1e1" d="M78.63,85.32L78.45,80.05L78.61,80.17z"/><path style="fill:#e1e1e1" d="M80.59,85.92L80.43,85.81L80.32,80.05L80.47,80.17z"/><path style="fill:#e1e1e1" d="M79.79,88.59L79.63,88.48L79.52,82.99L79.67,83.10z"/><path style="fill:#e1e1e1" d="M81.65,88.86L81.50,88.75L81.39,82.72L81.54,82.84z"/><path style="fill:#e1e1e1" d="M78.99,90.99L78.83,90.88L78.90,85.72z"/><path style="fill:#e1e1e1" d="M80.85,91.80L80.70,91.68L80.59,85.92L80.74,86.04z"/><path style="fill:#e1e1e1" d="M79.96,94.13L79.79,88.59L79.94,88.71z"/><path style="fill:#e1e1e1" d="M81.92,94.73L81.77,94.62L81.65,88.86L81.81,88.97z"/><path style="fill:#e1e1e1" d="M79.16,96.26L78.99,90.99L79.14,91.11z"/><path style="fill:#e1e1e1" d="M82.99,97.67L82.84,97.55L82.72,91.53L82.88,91.64z"/><path style="fill:#e1e1e1" d="M81.12,97.67L80.97,97.55L80.85,91.80L81.01,91.91z"/><path style="fill:#e1e1e1" d="M82.10,100.53L81.92,94.73L82.08,94.84z"/><path style="fill:#e1e1e1" d="M81.30,103.20L81.12,97.67L81.28,97.78z"/><path style="fill:#e1e1e1" d="M83.26,103.80L83.10,103.69L82.99,97.67L83.14,97.78z"/><path style="fill:#e1e1e1" d="M80.59,105.67L80.43,105.56L80.50,100.13z"/><path style="fill:#e1e1e1" d="M84.32,106.74L84.17,106.63L84.06,100.33L84.21,100.45z"/><path style="fill:#e1e1e1" d="M82.46,106.74L82.30,106.63L82.36,100.93z"/><path style="fill:#e1e1e1" d="M83.52,109.94L83.37,109.83L83.26,103.80L83.41,103.92z"/><path style="fill:#e1e1e1" d="M80.76,111.21L80.59,105.67L80.74,105.78z"/><path style="fill:#e1e1e1" d="M82.63,112.54L82.46,106.74L82.61,106.85z"/><path style="fill:#e1e1e1" d="M84.59,113.14L84.44,113.03L84.32,106.74L84.48,106.85z"/><path style="fill:#e1e1e1" d="M81.92,115.01L81.77,114.90L81.83,109.47z"/><path style="fill:#e1e1e1" d="M83.79,116.08L83.64,115.97L83.52,109.94L83.68,110.05z"/><path style="fill:#e1e1e1" d="M84.86,119.28L84.70,119.17L84.59,113.14L84.74,113.26z"/><path style="fill:#e1e1e1" d="M82.10,120.55L81.92,115.01L82.08,115.12z"/><path style="fill:#e1e1e1" d="M84.06,122.22L83.90,122.10L83.79,116.08L83.94,116.19z"/><path style="fill:#e1e1e1" d="M86.19,129.15L86.04,129.04L85.66,116.08L85.81,116.19z"/><path style="fill:#e1e1e1" d="M83.26,124.62L83.10,124.50L83.16,118.81z"/><path style="fill:#e1e1e1" d="M86.99,125.68L86.84,125.57L86.73,119.01L86.88,119.13z"/><path style="fill:#e1e1e1" d="M85.12,125.68L84.97,125.57L84.86,119.28L85.01,119.39z"/><path style="fill:#e1e1e1" d="M84.23,128.29L84.06,122.22L84.21,122.33z"/><path style="fill:#e1e1e1" d="M83.43,130.42L83.26,124.62L83.41,124.73z"/><path style="fill:#e1e1e1" d="M85.39,132.09L85.24,131.98L85.12,125.68L85.28,125.80z"/><path style="fill:#e1e1e1" d="M87.26,132.62L87.11,132.51L86.99,125.68L87.15,125.80z"/><path style="fill:#e1e1e1" d="M86.37,135.49L86.19,129.15L86.35,129.27z"/><path style="fill:#e1e1e1" d="M124.56,170.56L125.09,171.60L124.46,172.23L113.84,175.48L113.51,179.95L112.61,180.20L112.35,180.09L112.52,179.79L112.70,174.87L123.99,171.49L124.13,170.25z"/><path style="fill:#ffffff" d="M134.26,35.49L134.66,35.55L134.69,36.49L134.40,36.07z"/><path style="fill:#ffffff" d="M133.90,69.55L133.62,69.14L133.70,68.88L133.88,68.96z"/><path style="fill:#ffffff" d="M189.67,73.44L189.62,74.40L189.33,74.41L189.09,73.96L189.25,73.09z"/><path style="fill:#ffffff" d="M185.92,111.58L185.92,112.53L185.66,112.49L185.66,111.32z"/><path style="fill:#ffffff" d="M182.47,146.01L182.46,146.94L181.97,146.45L181.98,145.75z"/><g id="Actor_.0"><g style="stroke:#000000;stroke-width:0.025"><path d="M66.44,53.33L66.69,53.29L66.61,53.40L66.44,53.33L66.27,53.05L66.01,52.09L66.01,51.36L66.15,51.08L66.55,51.61"/><path d="M71.87,124.18L67.31,48.90L65.21,46.77"/><path d="M65.87,35.54L66.51,36.77L67.40,37.83L68.26,38.51L66.67,36.78L66.04,35.57L65.67,34.24L65.57,32.82L65.75,31.40L66.20,30.01L66.91,28.72L67.84,27.58L68.97,26.62L68.84,26.47L67.75,27.39L66.75,28.60L66.03,29.91L65.57,31.31L65.39,32.76L65.49,34.19L65.87,35.54"/><path d="M65.28,31.17L65.75,29.74L66.48,28.40L67.46,27.21L68.62,26.22L68.77,26.39L70.08,25.64L71.48,25.16L72.92,24.97L74.35,25.06L75.71,25.44L76.94,26.08L78.00,26.96L78.56,27.67L76.92,26.16L75.70,25.53L74.35,25.16L72.94,25.07L71.51,25.26L70.13,25.74L68.84,26.47L68.77,26.39L67.62,27.36L66.66,28.54L65.94,29.86L65.47,31.28L65.29,32.74L65.39,34.18L65.78,35.55L66.42,36.79L67.31,37.86L68.55,38.79L68.26,38.51"/><path d="M66.69,53.29L66.77,52.79"/><path d="M67.31,48.90L67.83,49.10L68.54,49.10L68.68,50.22L73.05,124.40"/><path d="M67.19,37.87L67.14,37.83"/><path d="M68.60,88.01L68.88,87.95L68.80,88.07L68.60,88.01L68.28,87.28L68.15,86.34L68.32,85.92L68.70,86.49"/><path d="M68.49,26.23L69.94,25.47L71.36,24.98"/><path d="M68.88,87.95L68.90,87.44"/><path d="M68.61,49.09L70.65,48.75L73.34,51.36L77.29,124.94L77.93,124.78L77.99,125.88L78.20,126.16L74.42,52.39L73.39,51.41"/><path d="M70.16,48.31L69.76,41.29L69.36,38.87"/><path d="M69.50,39.69L69.30,38.60L69.13,38.27"/><path d="M68.55,38.79L68.72,38.95"/><path d="M69.20,38.24L69.27,38.30L68.96,37.28L68.86,36.19L69.07,34.95L68.94,34.74L69.08,34.30"/><path d="M69.27,38.30L69.07,34.95"/><path d="M69.25,38.57L69.19,38.39L69.33,38.80"/><path d="M68.95,34.67L69.13,34.00L69.10,34.17"/><path d="M69.01,34.89L69.28,33.10L69.18,30.49L69.27,30.09L69.53,29.77L69.91,29.61L96.71,53.58L97.51,54.46L98.29,55.65L112.51,80.51L112.71,81.63L112.77,89.90L125.11,87.31"/><path d="M69.07,34.27L69.11,34.13"/><path d="M69.13,34.00L69.25,31.96L69.27,32.06"/><path d="M127.16,78.51L127.01,78.71L126.64,78.85L126.59,78.29L126.24,77.27L112.30,80.03L111.84,80.21L111.47,80.53L111.28,80.89L97.33,56.49L97.49,56.12L97.85,55.82L98.24,55.67L111.81,53.40L110.99,52.24L110.08,51.39L96.71,53.58L96.28,53.76L95.98,54.13L95.89,54.53L69.18,30.49L69.21,30.00L69.45,29.72L69.79,29.57L71.97,29.27L68.97,26.62L70.24,25.90L71.61,25.43L73.02,25.24L74.35,25.32L75.68,25.68L76.94,26.32L77.68,26.94L76.94,26.32"/><path d="M69.25,31.96L69.13,30.36L69.18,30.49"/><path d="M69.20,30.05L69.13,30.36"/><path d="M70.57,119.74L70.76,119.84L70.85,119.67L70.57,119.74L70.40,119.43L70.17,118.54L70.19,117.87L70.30,117.79L70.45,117.91L70.67,118.39"/><path d="M70.65,48.75L70.42,48.56"/><path d="M69.81,41.85L69.76,41.71"/><path d="M69.79,29.57L71.35,29.38"/><path d="M70.85,119.67L70.86,119.14"/><path d="M71.52,29.40L72.80,29.16L71.97,29.27"/><path d="M72.80,29.16L74.25,28.71L74.61,28.53L74.48,28.49L73.70,28.80L74.49,28.47"/><path d="M72.50,29.17L73.70,28.80"/><path d="M75.27,128.06L75.36,128.36L75.05,123.89L75.59,123.75L75.64,124.04L76.25,124.87L76.18,123.60L76.98,123.40L73.12,51.15"/><path d="M77.93,124.78L74.14,52.13"/><path d="M75.36,128.36L75.48,128.80"/><path d="M75.26,127.93L75.35,128.22L92.11,154.20L92.24,154.85"/><path d="M75.13,124.17L108.95,170.20L109.00,175.61"/><path d="M76.25,124.87L77.92,127.15L78.94,126.90L75.18,53.13L74.42,52.39"/><path d="M75.18,53.13L75.46,53.39L79.21,127.52L78.95,127.18L78.94,126.90"/><path d="M77.03,28.15L77.68,28.22L77.03,28.15L77.11,28.31L74.81,28.62L74.65,28.51"/><path d="M74.76,28.60L75.84,28.30L77.11,28.31"/><path d="M75.63,123.75L76.18,123.60"/><path d="M76.53,62.25L76.13,54.03L76.41,54.30L80.08,128.70L79.82,128.26L76.53,62.25"/><path d="M76.41,54.30L77.40,55.25L81.00,129.94L81.61,129.79L81.66,130.83L81.92,131.18L78.40,56.22L78.11,55.94L81.61,129.79"/><path d="M75.46,53.39L76.13,54.03"/><path d="M77.29,124.94L77.04,124.59L76.98,123.40"/><path d="M80.08,128.70L80.68,128.55L77.11,54.98"/><path d="M77.40,55.25L78.11,55.94"/><path d="M76.99,28.20L79.06,28.28L81.04,28.14L80.89,28.11"/><path d="M77.88,28.27L78.06,28.27L77.57,28.21"/><path d="M77.92,127.15L79.76,129.63L80.73,129.39L81.00,129.94"/><path d="M78.24,126.22L78.89,126.06"/><path d="M78.40,56.22L79.38,57.16L79.46,58.21L82.85,132.39L83.48,132.29L83.52,133.35L83.79,133.71L80.45,58.21L81.47,59.22L84.74,134.99L84.47,134.63L81.18,58.93"/><path d="M78.56,27.67L78.82,27.89L78.23,27.39L78.29,27.44"/><path d="M79.23,28.23L78.06,28.27"/><path d="M78.82,27.89L78.85,27.91"/><path d="M77.96,26.80L77.97,26.81"/><path d="M77.97,27.18L77.68,26.94L78.23,27.39"/><path d="M79.76,129.63L97.95,154.33L98.84,154.08L99.07,154.33L99.82,154.12L98.08,75.83L97.21,74.95L99.07,154.33"/><path d="M79.21,127.52L79.77,127.38"/><path d="M82.85,132.44L82.59,132.08L79.12,56.91"/><path d="M79.41,57.19L80.45,58.21"/><path d="M80.73,129.39L80.68,128.55"/><path d="M83.48,132.29L80.14,57.91"/><path d="M81.04,28.14L82.05,28.01L110.14,51.36L110.58,51.42L110.36,51.25"/><path d="M81.92,131.18L82.54,131.03"/><path d="M85.70,136.29L85.43,135.92L82.22,59.96L82.52,60.25L85.70,136.29L86.35,136.13L83.27,60.99L83.58,61.29L86.67,137.60L86.39,137.22L86.35,136.13"/><path d="M81.47,59.22L82.22,59.96"/><path d="M82.05,28.01L82.43,28.07"/><path d="M83.27,60.99L82.52,60.25"/><path d="M83.79,133.71L84.42,133.55"/><path d="M86.67,137.60L87.32,137.43L84.34,62.05L83.58,61.29"/><path d="M84.34,62.05L84.65,62.35L87.65,138.92L87.37,138.54L87.32,137.43"/><path d="M84.74,134.99L85.38,134.83"/><path d="M85.42,63.11L85.67,63.36L85.74,63.91L88.64,140.25L88.35,139.87L85.42,63.11L84.65,62.35"/><path d="M88.64,140.25L89.31,140.08L86.50,64.18L85.73,63.41"/><path d="M86.50,64.18L86.82,64.49L89.63,141.52L89.35,141.21L89.31,140.08"/><path d="M87.65,138.92L88.31,138.75"/><path d="M90.64,142.96L90.35,142.57L87.61,65.27L87.92,65.58L90.64,142.96L91.33,142.77L91.37,143.93L91.66,144.33L92.35,144.14L92.39,145.32L92.68,145.71L90.17,67.82L91.31,68.98L93.72,147.11L93.42,146.71L93.39,145.53L92.68,145.71"/><path d="M87.92,65.58L89.00,66.64L89.06,67.34L91.66,144.33"/><path d="M87.61,65.27L86.82,64.49"/><path d="M91.33,142.77L88.72,66.36"/><path d="M89.04,66.68L90.17,67.82"/><path d="M89.63,141.60L90.31,141.42"/><path d="M92.35,144.14L89.84,67.50"/><path d="M93.39,145.53L90.98,68.65"/><path d="M91.31,68.98L92.46,70.15L94.77,148.53L94.47,148.12L92.13,69.81"/><path d="M92.11,154.20L92.53,154.78L92.70,155.49"/><path d="M92.46,70.15L93.63,71.33L95.83,149.96L96.56,149.76L94.47,72.18L94.81,72.52L96.90,151.40L96.59,150.99L96.56,149.76"/><path d="M108.99,174.99L92.53,154.78"/><path d="M93.13,156.07L93.15,156.08"/><path d="M95.83,149.96L95.52,149.55L93.30,70.99"/><path d="M93.63,71.33L94.47,72.18"/><path d="M94.77,148.53L95.49,148.33"/><path d="M94.43,146.92L93.72,147.11"/><path d="M94.81,72.52L95.66,73.38L97.67,152.44L97.97,152.86L96.01,73.73L97.21,74.95"/><path d="M95.66,73.38L96.01,73.73"/><path d="M95.87,54.58L96.61,55.39L97.33,56.49"/><path d="M96.90,151.40L97.63,151.19"/><path d="M98.87,154.07L98.75,153.91L96.87,74.60"/><path d="M97.95,154.33L108.94,169.24L108.95,170.20"/><path d="M97.97,152.86L98.72,152.65"/><path d="M98.08,75.83L98.43,76.18L100.17,155.82L99.85,155.39L99.84,154.70L98.51,155.08"/><path d="M100.93,155.60L99.31,77.07L99.67,77.43L101.28,157.32L100.96,156.89L100.93,155.60L100.17,155.82"/><path d="M99.31,77.07L98.43,76.18"/><path d="M99.84,154.70L99.82,154.12"/><path d="M101.28,157.32L102.06,157.10L102.08,158.40L102.41,158.84L100.92,78.75L99.67,77.43"/><path d="M102.06,157.10L100.56,78.36"/><path d="M100.92,78.73L102.18,80.03L103.54,160.37L103.22,159.93L103.19,158.64L102.41,158.84"/><path d="M103.19,158.61L101.82,79.66"/><path d="M102.18,80.03L103.46,81.36L104.69,161.92L105.50,161.69L105.52,163.04L105.85,163.49L104.76,82.70L106.06,84.05L107.02,165.07L106.69,164.62L105.69,83.66"/><path d="M103.54,160.37L104.34,160.14L104.36,161.48L104.69,161.92"/><path d="M104.34,160.14L103.10,80.98"/><path d="M103.46,81.36L104.76,82.70"/><path d="M105.50,161.69L104.38,82.31"/><path d="M105.85,163.49L106.67,163.25"/><path d="M106.06,84.05L107.01,85.03L107.87,166.21L108.18,166.63L108.91,166.46L108.23,90.37L108.33,90.58L109.09,176.00"/><path d="M107.02,165.07L107.85,164.83"/><path d="M107.01,85.03L107.38,85.41L107.39,85.60L108.21,166.67"/><path d="M108.33,90.58L111.55,93.85L112.22,93.70L112.52,174.94L113.35,175.29L114.54,175.21L114.56,179.63L113.92,179.78L113.29,179.76L112.54,179.43L112.53,179.25L113.27,179.60L113.92,179.66L114.56,179.54"/><path d="M108.23,90.37L108.31,90.16L108.73,89.91L108.73,86.81L107.39,85.42"/><path d="M108.38,90.10L108.35,86.41"/><path d="M108.94,169.24L108.91,166.46"/><path d="M110.52,98.76L110.60,97.92L110.48,97.29L110.00,96.32L109.74,96.18L109.54,96.31L109.42,96.70L109.55,97.90L110.02,98.87L110.52,98.76L110.28,99.02L110.02,98.87"/><path d="M108.99,90.27L109.19,90.16L109.25,90.70L109.00,90.44L108.99,90.27"/><path d="M112.22,93.70L109.25,90.70"/><path d="M108.73,86.81L110.09,88.21L110.10,89.62L108.76,89.90"/><path d="M109.25,90.14L111.80,89.64L111.38,89.37L111.23,89.40L110.09,88.21"/><path d="M111.05,174.65L110.53,174.81L110.76,175.03L110.95,175.01L111.05,174.28L110.94,173.73L110.54,172.81L110.28,172.54L110.10,172.57L110.00,173.29L110.10,173.84L110.53,174.81"/><path d="M110.59,172.89L110.70,173.66L111.05,174.50"/><path d="M110.04,138.49L110.29,138.90L110.53,139.09L110.71,139.03L110.84,138.70L110.72,137.60L110.52,137.04L110.03,136.44L109.83,136.52L109.73,136.84L109.73,137.35L110.04,138.49"/><path d="M110.29,138.90L110.82,138.76"/><path d="M110.35,136.75L110.47,137.77L110.84,138.61"/><path d="M110.11,96.48L110.21,97.76L110.58,98.57"/><path d="M110.10,89.62L111.23,89.40"/><path d="M109.71,89.69L109.70,87.81"/><path d="M113.71,54.96L114.96,56.36L115.45,57.14L115.93,58.37L115.41,58.50L114.58,57.13L112.81,53.64L111.56,52.10L110.48,51.31"/><path d="M110.58,51.42L111.92,52.85L114.55,57.07"/><path d="M110.66,51.41L110.93,51.55"/><path d="M111.94,179.97L111.55,93.85"/><path d="M111.80,89.64L111.80,89.85L112.77,89.90"/><path d="M111.49,89.47L111.42,81.43L111.74,81.59L112.71,81.63L126.64,78.85L126.55,87.01"/><path d="M111.06,89.22L111.07,89.43"/><path d="M111.28,80.89L111.42,81.43"/><path d="M112.47,53.64L112.21,53.43L111.81,53.40L126.24,77.27L126.64,77.28L126.90,77.47"/><path d="M118.51,40.65L118.74,40.83L116.99,41.44L115.94,42.02L114.95,42.74L114.06,43.59L113.09,44.85L112.09,46.73L111.73,47.88L111.48,50.16L111.62,51.36L112.04,51.32L112.07,48.99L112.35,47.75L112.80,46.54L113.42,45.40L114.19,44.34L115.10,43.40L116.11,42.60L117.21,41.95L118.36,41.49L119.54,41.21L119.70,41.56L120.84,41.48L121.95,41.58L123.00,41.88L123.96,42.35"/><path d="M111.63,51.39L111.53,51.41"/><path d="M111.56,52.10L111.88,52.10L112.22,52.80"/><path d="M111.02,51.66L111.59,51.72L111.19,51.46"/><path d="M111.59,51.72L111.88,52.10L119.75,50.80L119.03,50.39L118.40,50.30L120.07,49.90"/><path d="M111.61,51.39L111.51,49.95L111.68,48.37L112.48,46.04L113.85,43.95L115.69,42.27L117.09,41.46L119.33,40.77L119.54,41.21L120.71,41.12L121.85,41.24L122.93,41.54L123.92,42.03L124.79,42.69L125.54,43.51L123.98,42.37L124.06,42.43"/><path d="M112.97,180.38L113.01,180.39"/><path d="M113.12,180.48L112.66,180.13L112.47,179.80L112.54,179.43"/><path d="M112.47,179.80L112.41,179.82"/><path d="M112.53,179.25L112.52,174.94"/><path d="M112.52,174.69L112.89,174.58L113.61,174.91L114.23,174.86L118.26,173.61L117.85,173.13L121.39,172.11L121.82,172.50L118.26,173.61"/><path d="M112.89,174.58L117.85,173.13"/><path d="M112.07,51.32L112.41,51.26L112.44,49.12L112.71,47.93L113.13,46.79L113.74,45.65L114.51,44.60L115.78,43.37L117.43,42.28L118.56,41.83L119.70,41.56L124.85,45.46L125.53,46.12L125.90,46.80L125.95,47.51L125.65,48.20L125.04,48.86L124.11,49.47L122.90,50.01L119.75,50.80L120.47,51.53L121.14,52.50L121.81,53.81L122.37,55.26L123.16,58.51L123.36,60.18L123.41,61.79L123.32,63.27L123.10,64.56L122.74,65.62L122.26,66.41L121.69,66.89L121.05,67.06"/><path d="M112.43,51.26L118.35,50.29"/><path d="M114.23,55.49L113.31,54.54"/><path d="M114.65,180.71L114.56,179.63L124.06,176.63L124.51,176.44L124.90,176.09"/><path d="M114.54,175.21L124.10,172.24L124.71,171.92L124.90,171.70L125.04,171.21"/><path d="M115.95,58.43L116.21,59.82L115.41,58.50"/><path d="M116.21,59.82L120.64,67.14"/><path d="M118.45,50.27L119.55,48.59L120.70,47.44L121.99,46.51L123.37,45.86L124.85,45.46L126.29,45.38L127.67,45.60L128.93,46.11L130.02,46.89"/><path d="M118.78,40.86L119.94,40.71L119.21,40.76"/><path d="M120.64,49.50L119.69,50.00"/><path d="M120.03,40.70L120.68,40.69"/><path d="M120.55,40.68L120.28,40.67"/><path d="M121.82,172.50L124.09,171.76L124.29,171.60L124.30,171.00L124.40,171.19L124.30,171.58"/><path d="M121.46,172.09L123.97,171.36L123.98,170.58L124.30,171.00"/><path d="M123.44,177.86L123.97,177.14L124.06,176.54L124.51,176.32L124.91,175.93L124.99,175.52"/><path d="M124.06,176.54L124.10,172.24"/><path d="M123.98,170.58L123.99,169.70"/><path d="M125.58,43.57L126.03,43.90"/><path d="M124.81,42.99L124.83,43.01"/></g><g style="stroke:#000000;stroke-width:0.247"><path d="M65.10,32.65L65.32,30.93L65.76,29.56L66.46,28.29L67.38,27.17L68.46,26.25L69.68,25.55L71.08,25.06L72.82,24.78L74.27,24.88L75.64,25.26L76.89,25.91L77.96,26.80L79.23,28.23L81.89,27.98L82.43,28.07L110.65,51.40L111.53,51.41L111.35,50.82L111.20,49.38L111.33,47.93L111.75,46.40L112.42,44.97L113.33,43.68L114.45,42.56L115.71,41.66L117.09,41.02L118.51,40.65L119.93,40.58L122.60,41.03L124.28,41.91L125.22,42.75L126.03,43.90L130.87,47.64L132.43,49.55L133.15,50.84L133.94,53.18L134.10,55.64L133.92,57.07L133.13,59.48L131.78,61.61L129.96,63.42L127.80,64.82L126.56,65.46L123.48,66.50L120.64,67.14L126.90,77.47L127.16,78.51L127.07,86.63L126.96,86.83L126.55,87.01L125.11,87.31L123.99,169.70L124.87,170.82L125.03,171.20L124.99,175.52L124.72,176.71L124.22,177.37L123.05,178.04L114.65,180.71L114.05,180.79L113.47,180.70L112.66,180.13L112.41,179.82L111.95,179.97L109.09,176.00L109.00,175.62L92.24,154.85L75.48,128.80L75.26,127.93L75.04,123.89L72.71,124.45L72.05,124.32L69.93,121.48L65.21,46.79L65.78,46.69L67.96,48.86L68.40,48.89L70.42,48.56L70.11,48.15L69.72,41.18L69.50,39.69L68.72,38.95L67.20,37.88L66.25,36.76L65.59,35.50L65.20,34.11L65.10,32.65"/><path d="M66.67,52.52L66.77,52.79L66.55,51.61L66.67,52.52"/><path d="M68.73,86.74L68.90,87.44L68.70,86.49L68.73,86.74"/><path d="M70.77,118.89L70.86,119.14L70.67,118.39L70.77,118.89"/></g></g><g id="Actor_.1"><g style="stroke:#000000;stroke-width:0.025"><path d="M132.61,98.20L132.86,98.33L133.11,98.67L133.30,99.17L133.40,99.71L133.39,100.20L133.27,100.54L133.06,100.65"/><path d="M133.50,100.48L133.63,100.15L133.64,99.66L133.54,99.11L133.35,98.62L133.10,98.27L133.14,98.28"/><path d="M132.84,98.84L132.67,98.78L132.55,98.97L132.54,99.33L132.65,99.73L132.82,100.01L133.00,100.07L133.07,99.96L133.06,99.96L132.82,100.01"/><path d="M132.84,98.84L132.79,98.92L132.78,99.28L132.88,99.68L133.06,99.96L133.07,99.96"/><path d="M133.07,99.96L133.09,99.94"/><path d="M132.85,98.15L133.10,98.27L132.86,98.33"/></g><g style="stroke:#000000;stroke-width:0.247"><path d="M132.37,99.69L132.27,99.14L132.29,98.65L132.41,98.32L132.61,98.20L132.85,98.15L132.90,98.16L133.14,98.28L133.38,98.62L133.57,99.11L133.67,99.64L133.66,100.13L133.54,100.46L133.50,100.48L133.30,100.60L133.06,100.65L132.81,100.52L132.56,100.18L132.37,99.69"/><path d="M133.09,99.94L133.12,99.88L133.13,99.52L133.03,99.12L132.85,98.84L132.84,98.84L132.80,99.07L132.84,99.41L132.95,99.74L133.09,99.94"/></g></g><g id="Actor_.2"><g style="stroke:#000000;stroke-width:0.025"><path d="M133.60,68.29L133.59,68.28L133.40,68.25L133.28,68.47L133.27,68.86L133.38,69.28L133.56,69.55L133.80,69.51L133.75,69.59L133.56,69.55"/><path d="M133.59,68.31L133.53,68.42L133.52,68.82L133.63,69.23L133.80,69.50L133.80,69.51"/><path d="M133.35,67.63L133.61,67.72L133.86,68.05L134.06,68.56L134.17,69.13L134.16,69.66L134.03,70.05L133.81,70.20"/><path d="M133.61,67.72L133.86,67.68L133.90,67.69"/><path d="M133.59,67.58L133.86,67.68L134.11,68.01L134.31,68.51L134.42,69.09L134.40,69.62L134.28,70.00L134.06,70.16"/><path d="M133.60,68.29L133.60,68.29"/><path d="M133.80,69.50L133.82,69.47"/></g><g style="stroke:#000000;stroke-width:0.247"><path d="M133.29,69.77L133.55,70.11L133.81,70.20L134.06,70.16L134.31,69.97L134.44,69.60L134.45,69.07L134.35,68.51L134.15,68.01L133.90,67.69L133.64,67.59L133.59,67.58L133.35,67.63L133.13,67.79L133.00,68.17L132.99,68.70L133.10,69.27L133.29,69.77"/><path d="M133.58,68.95L133.69,69.29L133.82,69.47L133.88,69.36L133.89,68.97L133.78,68.56L133.60,68.29L133.59,68.31L133.54,68.59L133.58,68.95"/></g></g><g id="Actor_.3"><g style="stroke:#000000;stroke-width:0.025"><path d="M189.52,75.32L189.89,75.13L190.13,74.65L190.19,73.98L190.07,73.25L189.79,72.60L189.40,72.18L188.98,72.05"/><path d="M189.24,72.87L189.02,72.83L188.80,73.11L188.76,73.61L188.90,74.13L189.17,74.49L189.47,74.43L189.19,74.07L189.05,73.55L189.10,73.05L189.18,72.95"/><path d="M189.47,74.43L189.51,74.43"/><path d="M189.17,74.49L189.48,74.54L189.56,74.44"/><path d="M189.27,71.99L189.69,72.11L189.40,72.18"/><path d="M190.18,75.07L190.42,74.59L190.49,73.91L190.37,73.18L190.08,72.54L189.69,72.11L189.74,72.13"/></g><g style="stroke:#000000;stroke-width:0.247"><path d="M188.46,74.18L188.44,74.12L188.32,73.40L188.38,72.73L188.62,72.25L188.98,72.05L189.27,71.99L189.33,72.00L189.74,72.13L190.13,72.55L190.40,73.18L190.52,73.90L190.46,74.56L190.22,75.03L190.18,75.07L189.81,75.26L189.52,75.32L189.10,75.19L188.72,74.76L188.46,74.18"/><path d="M189.56,74.44L189.51,74.43L189.27,74.15L189.11,73.72L189.09,73.26L189.18,72.95L189.24,72.87L189.33,72.88L189.61,73.23L189.75,73.76L189.70,74.26L189.56,74.44"/></g></g><g id="Actor_.4"><g style="stroke:#000000;stroke-width:0.025"><path d="M185.78,113.37L186.12,113.25L186.35,112.84L186.41,112.24L186.29,111.55L186.02,110.92L185.66,110.48L185.27,110.30"/><path d="M185.48,111.08L185.31,111.03L185.11,111.25L185.06,111.70L185.20,112.20L185.45,112.56L185.73,112.49L185.78,112.50"/><path d="M185.45,112.56L185.74,112.65L185.86,112.53"/><path d="M185.46,111.10L185.39,111.18L185.34,111.62L185.47,112.13L185.73,112.49L185.85,112.53"/><path d="M185.99,110.41L185.94,110.40L185.55,110.23"/><path d="M185.66,110.48L185.94,110.40L186.30,110.85L186.57,111.48L186.69,112.17L186.63,112.77L186.40,113.18"/></g><g style="stroke:#000000;stroke-width:0.247"><path d="M184.76,112.12L184.65,111.44L184.71,110.84L184.93,110.43L185.27,110.30L185.55,110.23L185.60,110.24L185.99,110.41L186.35,110.85L186.61,111.47L186.72,112.15L186.66,112.74L186.44,113.14L186.40,113.18L186.06,113.30L185.78,113.37L185.39,113.19L185.03,112.75L184.76,112.12"/><path d="M185.86,112.53L185.95,112.43L185.99,111.98L185.86,111.48L185.60,111.11L185.48,111.08L185.46,111.10L185.38,111.36L185.40,111.78L185.55,112.20L185.78,112.50L185.86,112.53"/></g></g><g id="Actor_.5"><g style="stroke:#000000;stroke-width:0.025"><path d="M181.59,144.97L181.91,144.90L182.28,145.11L182.62,145.57L182.87,146.19L182.99,146.84L182.93,147.38L182.72,147.73"/><path d="M182.08,145.63L181.95,145.57L181.76,145.75L181.72,146.15L181.85,146.63L182.09,147.00L182.36,147.12L182.51,146.98"/><path d="M182.09,147.00L182.36,146.92L182.40,146.93"/><path d="M182.07,145.62L182.03,145.67L181.99,146.07L182.11,146.55L182.36,146.92L182.51,146.99"/><path d="M182.59,145.04L182.54,145.03L182.28,145.11"/><path d="M182.99,147.65L183.20,147.30L183.25,146.75L183.14,146.11L182.89,145.49L182.54,145.03L182.18,144.82"/></g><g style="stroke:#000000;stroke-width:0.247"><path d="M181.44,146.50L181.33,145.86L181.38,145.31L181.59,144.97L181.86,144.89L182.18,144.82L182.23,144.83L182.59,145.04L182.93,145.49L183.18,146.10L183.29,146.73L183.23,147.27L183.03,147.61L182.99,147.65L182.72,147.73L182.40,147.80L182.04,147.58L181.69,147.12L181.44,146.50"/><path d="M182.55,146.95L182.59,146.54L182.47,146.06L182.22,145.69L182.08,145.63L182.02,145.82L182.05,146.22L182.19,146.62L182.40,146.93L182.51,146.98L182.55,146.95"/></g></g><g id="Actor_.6"><g style="stroke:#000000;stroke-width:0.025"><path d="M134.63,37.12L134.86,36.91L134.99,36.48L135.00,35.90L134.90,35.29L134.69,34.78L134.42,34.47L134.14,34.41"/><path d="M134.43,35.12L134.40,35.07L134.20,35.07L134.07,35.33L134.06,35.76L134.18,36.19L134.37,36.46L134.59,36.42L134.60,36.39L134.43,36.15L134.32,35.72L134.33,35.30L134.43,35.11"/><path d="M134.37,36.46L134.57,36.46L134.59,36.42"/><path d="M134.60,36.39L134.62,36.36"/><path d="M134.89,37.08L135.11,36.87L135.25,36.44L135.26,35.86L135.15,35.25L134.94,34.74L134.67,34.43L134.42,34.47"/></g><g style="stroke:#000000;stroke-width:0.247"><path d="M134.00,36.52L134.09,36.74L134.35,37.06L134.63,37.12L134.89,37.08L134.93,37.05L135.15,36.85L135.28,36.42L135.30,35.85L135.19,35.26L134.98,34.75L134.72,34.44L134.67,34.43L134.40,34.37L134.14,34.41L133.92,34.62L133.78,35.06L133.77,35.63L133.88,36.24L134.00,36.52"/><path d="M134.70,36.20L134.71,35.77L134.60,35.34L134.43,35.12L134.40,35.16L134.35,35.48L134.38,35.87L134.50,36.22L134.62,36.36L134.70,36.20"/></g></g><g id="Actor_.7"><g style="stroke:#000000;stroke-width:0.025"><path d="M197.32,107.96L197.54,108.07L197.73,108.21L197.96,108.05L198.05,107.64L197.95,107.16L197.72,106.77L197.42,106.63L197.31,106.84L197.13,106.97"/><path d="M197.54,108.07L197.73,107.94L197.79,107.63L197.72,107.28L197.72,107.25L197.53,106.95L197.31,106.84"/><path d="M200.97,107.42L200.91,107.39L200.93,107.39L201.17,107.22L201.25,106.82L201.16,106.34L200.92,105.95L200.63,105.81L200.65,105.79L200.65,105.76L200.91,105.86L201.14,106.16L201.29,106.57L201.30,106.99L201.19,107.30L200.97,107.42L200.96,107.39L200.93,107.39"/><path d="M200.91,107.39L200.43,107.51"/><path d="M201.04,107.78L201.31,107.65L201.49,107.31L201.53,106.83L201.43,106.30L201.20,105.82L200.90,105.50L200.58,105.40L200.61,105.39L200.93,105.50L201.23,105.81L201.46,106.29L201.56,106.82L201.52,107.30L201.35,107.64L201.07,107.77L201.04,107.78L200.72,107.67L200.55,107.48"/><path d="M200.65,105.76L200.52,105.84L200.13,105.94L200.14,105.87L200.31,105.53L200.58,105.40"/><path d="M200.63,105.81L200.52,105.84"/><path d="M202.17,105.58L201.42,105.77L200.54,105.09"/><path d="M200.13,105.94L199.98,105.98"/><path d="M202.48,107.07L201.73,107.26L201.15,108.07"/><path d="M201.73,107.26L201.42,105.77"/><path d="M202.45,106.48L202.45,106.45"/></g><g style="stroke:#000000;stroke-width:0.247"><path d="M197.44,108.07L197.32,107.96L197.14,107.66L197.06,107.28L197.13,106.97L197.19,106.79L197.42,106.63L199.98,105.98L199.96,105.90L200.54,105.09L201.28,104.90L201.60,105.07L201.90,105.28L202.17,105.58L202.33,105.97L202.45,106.45L202.48,107.07L202.29,107.43L201.90,107.88L201.15,108.07L200.43,107.51L197.73,108.21L197.44,108.07"/></g></g><g id="Actor_.8"><g style="stroke:#000000;stroke-width:0.025"><path d="M143.81,65.38L143.92,65.25L144.08,65.31L144.21,65.54L144.27,65.86L144.24,66.14L144.13,66.27L143.98,66.20"/><path d="M143.92,65.25L144.03,65.07L144.22,65.15L144.40,65.46L144.48,65.86L144.44,66.22L144.29,66.39L144.13,66.27"/><path d="M147.33,66.43L147.68,65.66L148.34,65.53L148.31,65.01"/><path d="M146.58,64.59L146.66,64.35L146.83,64.20L147.05,64.24L147.26,64.48L147.42,64.86L147.51,65.30L147.51,65.72L147.41,66.04L147.23,66.19L147.02,66.14L146.82,65.91L147.10,65.86L147.17,65.88L147.31,65.75L147.37,65.47L147.34,65.11L147.23,64.78L147.07,64.55L146.89,64.50L146.85,64.54L146.50,64.61"/><path d="M147.17,65.88L147.16,65.86L147.14,65.85L147.28,65.68L147.33,65.33L147.24,64.92L147.07,64.62L146.87,64.54L146.89,64.53L146.89,64.50"/><path d="M147.10,65.86L147.14,65.85"/><path d="M146.83,64.20L146.86,64.19L147.08,64.24L147.29,64.47L147.45,64.85L147.50,65.05L147.54,65.29L147.54,65.72L147.44,66.03L147.26,66.18L147.23,66.19"/><path d="M146.82,65.91L146.71,65.93"/><path d="M146.87,64.54L146.85,64.54"/><path d="M147.68,65.66L147.41,64.41L146.80,63.94"/><path d="M147.91,64.08L148.07,64.29L147.41,64.41"/><path d="M148.07,64.29L148.21,64.61"/></g><g style="stroke:#000000;stroke-width:0.247"><path d="M143.84,65.97L143.78,65.66L143.81,65.38L143.88,65.24L144.03,65.07L146.50,64.61L146.80,63.94L147.46,63.82L147.69,63.94L147.91,64.08L148.00,64.19L148.07,64.29L148.19,64.56L148.21,64.61L148.32,65.03L148.34,65.53L148.25,65.89L147.99,66.30L147.33,66.43L146.72,65.96L146.71,65.93L144.29,66.39L144.10,66.31L143.98,66.20L143.84,65.97"/></g></g><g id="Actor_.9"><g style="stroke:#000000;stroke-width:0.025"><path d="M201.60,70.17L201.84,70.26L202.04,70.41L202.29,70.20L202.38,69.75L202.28,69.23L202.03,68.85L201.72,68.74L201.60,68.96L201.40,69.13"/><path d="M201.84,70.26L202.04,70.09L202.11,69.74L202.03,69.34L201.84,69.05L201.60,68.96"/><path d="M204.40,68.19L205.01,68.06L205.09,68.00L205.37,68.07L205.62,68.36L205.77,68.78L205.78,69.23L205.66,69.59L205.43,69.75L205.33,69.73L204.71,69.86"/><path d="M204.56,68.15L204.73,67.80L205.02,67.62L205.36,67.68L205.68,67.98L205.92,68.46L206.03,69.02L205.98,69.56L205.79,69.95L205.50,70.13L205.16,70.07L204.90,69.82"/><path d="M205.33,69.73L205.38,69.72L205.64,69.50L205.73,69.06L205.63,68.54L205.38,68.16L205.06,68.05L205.09,68.03L205.09,68.00"/><path d="M205.43,69.75L205.41,69.72L205.38,69.72"/><path d="M205.02,67.62L205.05,67.61L205.39,67.67L205.72,67.97L205.95,68.45L206.06,69.02L206.02,69.55L205.83,69.94L205.54,70.13L205.50,70.13"/><path d="M205.06,68.05L205.01,68.06"/><path d="M206.70,67.74L205.92,67.90L204.97,67.30"/><path d="M205.62,70.44L206.24,69.48L207.02,69.31"/><path d="M205.92,67.90L206.24,69.48"/><path d="M206.99,68.69L206.99,68.66"/></g><g style="stroke:#000000;stroke-width:0.247"><path d="M201.73,70.31L202.04,70.41L204.71,69.86L205.62,70.44L206.40,70.28L206.82,69.76L207.02,69.31L206.99,68.66L206.87,68.15L206.70,67.74L206.41,67.47L206.09,67.28L205.75,67.14L204.97,67.30L204.40,68.19L201.72,68.74L201.47,68.95L201.40,69.13L201.33,69.48L201.41,69.88L201.60,70.17L201.73,70.31"/></g></g><g id="Actor_.10"><g style="stroke:#000000;stroke-width:0.025"><path d="M193.44,142.18L193.65,142.31L193.82,142.22L193.88,141.94L193.81,141.58L193.64,141.28L193.43,141.15L193.26,141.25"/><path d="M193.65,142.31L193.83,142.44L194.05,142.32L194.13,141.96L194.04,141.52L194.04,141.50L193.81,141.11L193.54,140.94L193.43,141.15"/><path d="M196.51,141.63L196.88,141.52L196.93,141.55L197.14,141.46L197.24,141.19L197.23,140.80L197.13,140.52L197.09,140.41L196.87,140.10L196.63,139.98L196.43,140.06L196.42,140.08L196.13,140.17L196.15,140.02L196.31,139.72L196.56,139.64L196.86,139.77L197.14,140.10L197.36,140.57L197.45,141.07L197.42,141.51L197.26,141.80L197.00,141.89L196.70,141.75L196.58,141.61"/><path d="M196.42,140.08L196.60,140.03L196.62,140.01L196.63,139.98"/><path d="M196.13,140.17L196.02,140.20"/><path d="M196.93,141.55L196.92,141.52L196.89,141.52L197.11,141.40L197.20,141.04L197.11,140.58L196.88,140.19L196.60,140.03"/><path d="M197.00,141.89L197.29,141.80L197.45,141.50L197.49,141.06L197.39,140.56L197.18,140.10L196.89,139.76L196.59,139.63L196.56,139.64"/><path d="M197.11,142.17L197.65,141.50L198.36,141.28"/><path d="M196.88,141.52L196.89,141.52"/><path d="M197.65,141.50L197.35,140.08L198.07,139.87L198.22,140.23"/><path d="M197.35,140.08L196.52,139.34"/><path d="M198.33,140.68L198.33,140.72"/><path d="M198.07,139.87L197.82,139.54"/></g><g style="stroke:#000000;stroke-width:0.247"><path d="M193.55,142.27L193.83,142.44L196.51,141.63L197.11,142.17L197.82,141.95L198.19,141.58L198.36,141.28L198.33,140.68L198.22,140.23L198.07,139.87L197.94,139.68L197.82,139.54L197.53,139.31L197.23,139.13L196.52,139.34L195.98,140.01L196.02,140.20L193.54,140.94L193.32,141.06L193.26,141.25L193.20,141.53L193.27,141.88L193.44,142.18L193.55,142.27"/></g></g><g id="Actor_.11"><g style="stroke:#000000;stroke-width:0.025"><path d="M142.67,95.69L142.78,95.58L142.88,95.41L143.07,95.51L143.23,95.81L143.31,96.20L143.28,96.53L143.14,96.67L142.98,96.55L142.83,96.47"/><path d="M142.78,95.58L142.93,95.66L143.05,95.89L143.12,96.20L143.09,96.45L142.98,96.55"/><path d="M145.32,94.86L145.41,94.58L145.58,94.47L145.78,94.54L145.99,94.79L146.15,95.16L146.23,95.58L146.23,95.87L146.23,95.97L146.13,96.25L145.96,96.37L145.76,96.29L145.61,96.11"/><path d="M145.22,94.88L145.58,94.80L145.64,94.76L145.80,94.83L145.96,95.06L146.07,95.38L146.10,95.72L146.04,95.97L145.91,96.08L145.86,96.05L145.53,96.13"/><path d="M145.91,96.08L145.89,96.06L145.87,96.05L146.01,95.91L146.05,95.59L145.97,95.20L145.81,94.90L145.62,94.79L145.63,94.78L145.64,94.76"/><path d="M145.86,96.05L145.87,96.05"/><path d="M145.58,94.47L145.61,94.46L145.81,94.53L146.01,94.78L146.17,95.15L146.22,95.35L146.26,95.58L146.26,95.97L146.16,96.25L145.99,96.36L145.96,96.37"/><path d="M146.05,96.60L146.39,95.93L147.02,95.79L147.00,95.29"/><path d="M145.58,94.80L145.62,94.79"/><path d="M145.55,94.22L146.13,94.74L146.77,94.60L146.61,94.37"/><path d="M146.13,94.74L146.39,95.93"/><path d="M146.90,94.90L146.77,94.60"/></g><g style="stroke:#000000;stroke-width:0.247"><path d="M142.71,96.24L142.83,96.47L142.95,96.57L143.14,96.67L145.53,96.13L146.05,96.60L146.69,96.45L146.95,96.09L147.02,95.79L147.02,95.74L147.00,95.30L146.90,94.90L146.89,94.85L146.77,94.60L146.70,94.48L146.61,94.37L146.41,94.20L146.18,94.08L145.55,94.22L145.22,94.88L142.88,95.41L142.74,95.55L142.67,95.69L142.64,95.94L142.71,96.24"/></g></g><g id="Actor_.12"><g style="stroke:#000000;stroke-width:0.025"><path d="M145.04,32.48L145.16,32.32L145.32,32.36L145.46,32.59L145.53,32.92L145.50,33.23L145.38,33.39L145.22,33.35"/><path d="M145.16,32.32L145.27,32.14L145.48,32.20L145.66,32.50L145.74,32.92L145.70,33.32L145.55,33.52L145.38,33.39"/><path d="M147.88,31.76L148.22,31.71L148.26,31.67L148.44,31.69L148.61,31.91L148.73,32.25L148.76,32.63L148.69,32.95L148.55,33.11L148.43,33.10L148.14,33.14L148.16,33.19L148.39,33.41L148.61,33.43L148.79,33.25L148.90,32.89L148.91,32.43L148.81,31.97L148.64,31.59L148.42,31.36L148.19,31.35L148.01,31.54L147.95,31.75"/><path d="M148.14,33.14L148.04,33.15"/><path d="M148.43,33.10L148.51,33.08L148.66,32.88L148.71,32.48L148.62,32.06L148.44,31.76L148.23,31.71L148.25,31.69L148.26,31.67"/><path d="M148.19,31.35L148.22,31.34L148.45,31.36L148.67,31.58L148.84,31.96L148.94,32.43L148.93,32.88L148.82,33.24L148.64,33.43L148.61,33.43"/><path d="M148.23,31.71L148.22,31.71"/><path d="M148.16,31.09L148.80,31.49L149.07,32.80L149.76,32.69L149.74,32.16"/><path d="M148.55,33.11L148.53,33.09L148.51,33.08"/><path d="M148.71,33.69L149.07,32.80"/><path d="M148.80,31.49L149.49,31.39L149.63,31.74"/><path d="M149.76,32.68L149.76,32.68"/></g><g style="stroke:#000000;stroke-width:0.247"><path d="M145.01,32.78L145.04,32.48L145.12,32.35L145.27,32.14L147.88,31.76L148.16,31.09L148.85,30.98L149.09,31.09L149.31,31.21L149.49,31.39L149.63,31.74L149.74,32.17L149.76,32.69L149.68,33.11L149.39,33.58L148.71,33.69L148.07,33.27L148.04,33.15L145.55,33.52L145.34,33.47L145.22,33.35L145.08,33.11L145.01,32.78"/></g></g><g><g><path style="stroke:#000000;stroke-width:0.210;stroke-dasharray:2.1 2.1" d="M144.70,95.66L70.10,118.92"/></g></g><g><g><path style="stroke:#000000;stroke-width:0.210;stroke-dasharray:2.1 2.1" d="M145.92,65.40L68.11,87.10"/></g></g><g><g><path style="stroke:#000000;stroke-width:0.210;stroke-dasharray:2.1 2.1" d="M147.25,32.56L65.93,52.31"/></g></g><g><g><path style="stroke:#000000;stroke-width:0.210;stroke-dasharray:2.1 2.1" d="M195.58,141.12L110.05,173.93"/></g></g><g><g><path style="stroke:#000000;stroke-width:0.210;stroke-dasharray:2.1 2.1" d="M199.56,106.91L109.78,137.90"/></g></g><g><g><path style="stroke:#000000;stroke-width:0.210;stroke-dasharray:2.1 2.1" d="M203.95,69.15L109.48,97.71"/></g></g><g id="PMI2.0"><g><path style="stroke:#000000;stroke-width:0.350" d="M199.83,122.15L199.79,109.73"/></g><g><path style="fill:#000000" d="M200.78,109.72L198.78,109.73L199.77,107.72z"/></g><g><path style="fill:#ffffff" d="M187.34,129.48L212.31,129.48L212.31,122.14L187.34,122.14z"/><path style="stroke:#000000;stroke-width:0.350;stroke-opacity:0.98" d="M187.34,129.48L212.31,129.48L212.31,122.14L187.34,122.14z"/><text xml:space="preserve" fill="#000000" stroke-width="0" x="188.26" y="127.42" font-size="4.48" opacity="1.00" font-family="MS Shell Dlg">2H1590202</text></g></g><g id="PMI3.0"><g><path style="stroke:#000000;stroke-width:0.350" d="M92.68,15.78L92.75,34.86"/></g><g><path style="fill:#000000" d="M91.76,34.88L93.76,34.88L92.77,36.88z"/></g><g><path style="fill:#ffffff" d="M80.60,15.80L104.76,15.80L104.76,8.47L80.60,8.47z"/><path style="stroke:#000000;stroke-width:0.350;stroke-opacity:0.98" d="M80.60,15.80L104.76,15.80L104.76,8.47L80.60,8.47z"/><text xml:space="preserve" fill="#000000" stroke-width="0" x="81.52" y="13.74" font-size="4.46" opacity="1.00" font-family="MS Shell Dlg">0L0000011</text></g></g><g id="PMI1.0"><g><path style="stroke:#000000;stroke-width:0.350" d="M189.32,84.25L189.37,76.77"/></g><g><path style="fill:#000000" d="M190.36,76.79L188.36,76.77L189.37,74.78z"/></g><g><path style="fill:#ffffff" d="M176.94,91.59L201.65,91.59L201.65,84.25L176.94,84.25z"/><path style="stroke:#000000;stroke-width:0.350;stroke-opacity:0.98" d="M176.94,91.59L201.65,91.59L201.65,84.25L176.94,84.25z"/><text xml:space="preserve" fill="#000000" stroke-width="0" x="177.85" y="89.52" font-size="4.48" opacity="1.00" font-family="MS Shell Dlg">2K1308152</text></g></g><g/><g id="paperID" visibility="hidden" opacity="0.00" transform="scale(0.000100)"><path style="stroke:#000000;stroke-width:0.500;fill:#e6e6e6;fill-rule:evenodd" d="M-2000.00,-2000.00L2297.00,-2000.00L2297.00,2210.00L-2000.00,2210.00zM0.00,0.00L297.00,0.00L297.00,210.00L0.00,210.00z"/><path style="fill:#000000;fill-opacity:0.118" d="M3.00,210.00L297.00,210.00L297.00,3.00L300.00,3.00L300.00,213.00L3.00,213.00z"/></g><g id="hotspot.0" onmouseover="ShowHotSpot(evt,'0')" onmouseout="HideHotSpot(evt,'0')" onmousemove="ShowToolTip(evt,'0',&quot;3dp733352&quot;)" opacity="0"><path style="fill:#00ff00;fill-rule:evenodd" d="M135.21,35.30L135.19,37.01L134.87,37.23L134.41,37.19L133.85,36.13L133.87,34.87L134.32,34.48L134.68,34.47zM134.41,68.66L134.42,69.84L134.03,70.29L133.62,70.29L133.04,69.21L133.02,68.20L133.26,67.85L133.87,67.82zM189.93,72.39L190.44,73.47L190.46,74.65L189.82,75.37L190.19,76.68L188.46,76.67L189.10,75.31L188.55,74.56L188.57,72.49L189.01,72.11zM189.54,84.25L201.68,84.38L201.95,84.65L201.93,91.46L201.64,91.97L176.82,91.90L176.82,84.49L188.85,84.25L189.31,77.16L189.61,77.16zM133.61,99.34L133.51,100.72L132.82,100.70L132.51,100.18L132.54,98.34L132.82,98.27zM186.23,110.78L186.71,111.90L186.73,112.80L186.43,113.32L185.37,113.23L184.82,112.45L184.82,110.64L185.91,110.54zM182.69,145.27L183.25,146.31L183.16,147.67L181.90,147.65L181.61,147.14L181.63,145.05L182.17,144.95zM134.36,35.51L134.64,35.55L134.68,36.48zM189.66,73.42L189.62,74.40L189.31,74.41L189.39,73.16zM185.92,111.58L185.92,112.53L185.66,112.49L185.66,111.32zM182.45,146.00L182.45,146.94L182.15,146.64L182.18,145.75z"/></g><g id="hotspot.1" onmouseover="ShowHotSpot(evt,'1')" onmouseout="HideHotSpot(evt,'1')" onmousemove="ShowToolTip(evt,'1',&quot;3dp731672&quot;)" opacity="0"><path style="fill:#00ff00;fill-rule:evenodd" d="M149.47,31.46L149.63,33.28L149.24,33.73L148.55,33.74L148.02,33.43L145.25,33.52L145.03,32.71L145.26,32.39L147.92,31.84L148.19,31.32zM148.29,64.92L148.20,66.28L143.90,66.36L144.00,65.27L146.58,64.66L146.87,64.13L147.76,64.10zM206.47,67.58L206.99,68.67L207.00,69.56L206.63,70.27L205.09,70.28L204.62,70.01L203.16,70.27L201.63,70.28L201.56,68.93L203.98,68.42L205.29,67.30L205.91,67.31zM146.95,95.07L146.87,96.44L145.60,96.41L142.95,96.72L142.85,95.63L145.32,94.88L145.78,94.24L146.42,94.25zM202.18,105.76L202.48,107.18L202.09,107.89L199.42,107.90L198.36,108.18L197.39,108.17L197.06,107.16L197.89,106.63L200.10,105.90L200.50,105.23L201.67,105.21zM200.62,109.51L200.25,110.05L200.21,122.14L212.35,122.27L212.62,122.54L212.61,129.35L212.32,129.86L187.22,129.79L187.22,122.38L199.52,122.14L199.49,110.03L198.87,109.76L199.81,108.14zM198.19,140.17L198.19,141.62L197.82,142.06L196.85,142.02L196.61,141.80L194.64,142.34L193.36,142.33L193.28,141.26L195.82,140.31L196.75,139.35L197.38,139.35z"/></g><g id="hotspot.2" onmouseover="ShowHotSpot(evt,'2')" onmouseout="HideHotSpot(evt,'2')" onmousemove="ShowToolTip(evt,'2',&quot;3dp842770&quot;)" opacity="0"><path style="fill:#00ff00;fill-rule:evenodd" d="M105.05,8.90L105.07,15.67L104.78,16.19L92.94,16.36L93.04,26.24L93.25,34.85L93.62,35.39L93.22,36.11L92.95,36.98L110.36,51.34L111.46,51.34L111.44,47.67L111.99,46.08L113.60,43.42L115.90,41.72L118.04,40.92L121.59,40.92L122.67,41.18L124.56,42.22L125.88,43.83L130.69,47.56L132.80,50.26L133.87,52.92L134.11,55.57L133.87,57.56L133.33,59.15L132.03,61.32L130.16,63.45L126.13,65.82L120.72,67.33L125.59,75.34L127.20,78.54L126.93,86.90L125.31,87.42L125.06,94.11L124.26,152.81L124.27,170.33L125.07,171.39L124.81,176.58L123.73,177.90L114.85,180.76L113.30,180.76L111.73,179.94L108.28,174.85L96.52,160.45L91.97,154.60L75.41,128.72L74.89,124.15L73.49,124.46L71.96,124.44L70.07,121.79L69.56,115.10L65.20,47.06L65.83,46.81L67.69,48.92L68.94,48.92L70.37,48.67L70.09,47.32L69.57,40.10L68.76,39.04L67.44,38.23L66.08,36.65L65.27,34.53L65.29,31.66L65.81,29.52L67.59,27.03L70.08,25.52L71.06,25.17L73.27,24.89L75.69,25.44L77.84,26.77L78.90,28.10L82.10,28.08L82.64,28.37L90.66,35.02L92.27,36.19L91.91,35.04L92.49,34.86L92.25,16.36L80.48,16.11L80.48,8.70L104.53,8.61z"/></g></g></svg>
