<?xml version="1.0" encoding="UTF-8" standalone="no"?>
<svg xmlns="http://www.w3.org/2000/svg" xmlns:xlink="http://www.w3.org/1999/xlink" width="297.000mm" height="210.000mm" viewBox="0.000000 0.000000 297.000000 210.000000" stroke-linejoin="round" stroke-linecap="round" fill="none" fill-rule="evenodd"><desc>Composer Export</desc><script type="text/ecmascript"><![CDATA[
if(typeof(top) != "undefined")
{
	top.ShowPaper = ShowPaper;
}
function ShowHotSpot(evt,hotspotid)
{
	var svgDocument = evt.target.ownerDocument;
	var strId = "hotspot."+hotspotid;
	var hotspot = svgDocument.getElementById(strId);
	if(hotspot)
		hotspot.setAttribute("opacity",".5");
}
function HideHotSpot(evt,hotspotid)
{
	var svgDocument = evt.target.ownerDocument;
	var strId = "hotspot."+hotspotid;
	var hotspot = svgDocument.getElementById(strId);
	if(hotspot)
		hotspot.setAttribute("opacity","0");

	var toolTip = svgDocument.getElementById('ToolTip');
	if(toolTip)
		toolTip.setAttribute("visibility","hidden");
}
function ShowToolTip(evt,hotspotid,strTooltip)
{
	if(strTooltip=="")
	return;

	// change text
	var svgDocument = evt.target.ownerDocument;
	var tiptext = svgDocument.getElementById('ToolTipText');
	if( !tiptext )
	return;
	tiptext.firstChild.nodeValue = " " + strTooltip + "  " ;

	// show tooltip before, else some refresh issue

	var toolTip = svgDocument.getElementById('ToolTip');
	if(!toolTip)
	return;

	toolTip.setAttribute("visibility","visible");
	toolTip.setAttribute("opacity",".95");

	// move tooltip
	// get viewbox

	var root = svgDocument.documentElement;
	var vbox = (root.getAttribute("viewBox")).split(' ');
	var x0 = parseFloat(vbox[0]);
	var y0 = parseFloat(vbox[1]);
	var vboxW = parseFloat(vbox[2]);
	var vboxH = parseFloat(vbox[3]);

	// get default width of svg

	var strW = root.getAttribute("width");
	var svgW = parseFloat(strW);
	if(strW.indexOf('mm') != -1)
	svgW *= 3.779;

	var strH = root.getAttribute("height");
	var svgH = parseFloat(strH);
	if(strH.indexOf('mm') != -1)
	svgH *= 3.779;  	// 96 dpi  -> 96/25.4 = 3.779

	// update the viewbox / width / height if svg is embedded in html with zoom fit all
	var realx0 = x0;
	var realy0 = y0;
	var realvboxW = vboxW;
	var realvboxH = vboxH;
	var realsvgW = svgW;
	var realsvgH = svgH;

	if ((typeof(top) == "undefined") || (typeof(top.svgctl1) != "undefined")) // embedded in html
	{
		// get window size in pxl

		svgW = window.innerWidth;
		svgH = window.innerHeight;

		// calculate real viewbox

		realsvgW = svgW;
		realsvgH = svgH;
		if((svgW / svgH) > (vboxW / vboxH))
		{
			realvboxW = (vboxH * svgW) / svgH;
			realvboxH = vboxH;
			realx0 = x0 - (realvboxW - vboxW)/2 ;
		}
		else
		{
			realvboxH = (vboxW * svgH) / svgW;
			realvboxW = vboxW;
			realy0 = y0 - (realvboxH - vboxH)/2 ;
		}
	}

	// get user zoom/pan

	var newScale = root.currentScale;
	var translation = root.currentTranslate;

	// transform pxl to user unit

	var xPos = (((evt.clientX+10- translation.x)/newScale) * realvboxW)/realsvgW  + realx0 ;
	var yPos = (((evt.clientY+5- translation.y)/newScale) * realvboxH)/ realsvgH  + realy0 ;
	var scaleForWidth = ( (1 / newScale) * realvboxH) / realsvgH;

	// move tooltip

	toolTip.setAttribute("transform", "translate(" + xPos + "," + yPos + ")" );

	// resize tooltip

	var fontsize = 12;
	tiptext.setAttribute("font-size",fontsize*scaleForWidth);
	tiptext.setAttribute("y", fontsize*scaleForWidth);
	var tipBG = svgDocument.getElementById('ToolTipBG');
	var outline = tiptext.getBBox();
	if(tipBG)
	{
		tipBG.setAttribute("stroke-width", 1*scaleForWidth);
		tipBG.setAttribute("width", Number(outline.width) );
		tipBG.setAttribute("height", Number(outline.height) + fontsize*.5*scaleForWidth );
	}
	var ToolTipShadow = svgDocument.getElementById('ToolTipShadow');
	if(ToolTipShadow)
	{
		ToolTipShadow.setAttribute("width", Number(outline.width) );
		ToolTipShadow.setAttribute("height", Number(outline.height) + fontsize*.5*scaleForWidth );
		ToolTipShadow.setAttribute("x", 3*scaleForWidth);
		ToolTipShadow.setAttribute("y", 3*scaleForWidth);
	}
}
function ShowPaper()
{
  var svgDocument = getDocument();
  var paper = svgDocument.getElementById("paperID");
  if(paper)
  {
    paper.setAttribute("transform","scale(1)");
    paper.setAttribute("opacity","1");
    paper.setAttribute("visibility","visible");
  }
  var svg = svgDocument.getRootElement();
  if(svg)
  {
    svg.setAttribute("width","307.000mm");
    svg.setAttribute("height","220.000mm");
    svg.setAttribute("viewBox","-5.000000 -5.000000 307.000000 220.000000");
  }
}
]]></script><defs/><g><path style="fill:#ffffff" d="M192.05,36.10L190.88,36.11L174.07,42.55L173.39,42.52L171.51,41.18L157.34,52.50L157.33,53.16L157.69,53.43L157.86,54.00L162.26,61.16L162.24,61.34L130.65,86.66L130.65,87.33L131.27,87.84L131.47,88.40L137.96,96.38L138.69,97.23L139.12,97.26L146.26,91.55L146.94,91.72L146.83,90.96L148.03,90.12L170.77,72.02L170.95,72.12L171.78,73.18L177.92,78.82L178.32,78.82L192.34,67.43L191.39,64.93L201.66,49.55L201.69,48.03L202.71,47.14L212.24,39.86L223.71,32.12L236.25,25.17L250.14,19.31L264.26,14.76L278.68,11.57L293.62,9.70L296.95,9.61L296.92,209.93L69.63,209.97L61.81,187.16L60.75,181.81L60.75,177.90L61.01,173.62L62.08,169.89L64.25,164.58L68.24,158.17L72.78,152.84L78.77,147.29L83.33,147.37L87.18,144.47L89.49,144.46L90.27,143.37L91.22,142.99L91.87,142.04L93.03,141.60L93.50,140.73L94.63,140.26L95.17,139.12L96.15,139.13L96.52,138.68L96.77,137.78L97.75,137.79L98.12,137.35L98.37,136.44L99.36,136.47L99.35,134.60L101.49,132.96L102.38,133.24L104.26,135.11L105.22,135.12L111.21,130.14L111.20,129.24L109.60,125.21L109.49,124.46L111.34,123.10L112.25,123.68L112.97,123.67L113.61,123.22L113.84,122.03L115.12,122.06L115.44,120.69L116.80,120.81L117.04,119.36L118.60,119.37L118.55,118.03L120.19,118.04L120.16,116.69L120.50,116.66L121.07,117.00L121.63,116.86L121.89,116.53L121.80,115.35L122.38,115.18L122.41,112.94L121.98,112.38L121.08,110.80L116.29,104.66L115.80,104.30L114.95,103.07L111.76,99.57L111.26,99.33L108.42,99.08L108.29,100.24L107.20,99.90L106.59,100.13L106.65,101.60L106.12,101.53L105.58,101.19L105.03,101.30L105.05,102.93L104.52,102.86L103.98,102.52L103.45,102.62L103.46,104.26L102.92,104.20L102.37,103.86L101.85,103.95L101.61,105.57L100.24,105.29L100.02,106.91L98.83,106.79L99.21,107.63L99.21,108.25L97.74,109.48L96.92,109.95L93.43,106.46L93.20,106.28L86.62,111.46L87.47,115.74L84.84,117.71L83.78,116.94L83.35,116.92L82.62,117.61L82.65,118.67L81.47,118.54L81.02,118.93L81.03,119.92L80.22,119.89L79.56,120.11L79.16,121.34L77.82,121.30L77.56,122.69L76.41,122.54L75.94,122.94L75.97,124.01L74.81,123.87L74.35,124.27L74.35,125.27L73.20,125.21L72.76,125.60L72.76,127.51L72.14,127.91L69.29,130.40L68.79,133.69L68.42,133.77L60.13,141.25L54.37,148.30L49.19,156.99L45.26,167.47L43.94,175.23L43.94,183.41L44.20,185.82L45.79,192.24L50.61,205.03L52.31,209.94L0.08,209.93L0.08,0.08L265.25,0.06L261.87,0.90L245.60,6.24L230.65,12.63L216.24,20.64L204.50,28.65L193.42,37.08z"/><path style="fill:#ffc8c8" d="M162.73,61.68L163.10,62.42L139.30,81.58L138.66,81.56L138.72,82.13L138.32,82.27L133.88,85.85L131.27,87.84L130.65,87.33L130.65,86.66L162.24,61.34z"/><path style="fill:#c8c8c8" d="M68.62,134.75L68.56,135.76L68.14,135.91L61.98,141.50L55.44,149.37L50.79,157.00L46.59,168.01L45.27,175.76L45.27,180.75L45.53,185.29L47.40,192.77L53.89,209.97L52.31,209.94L50.61,205.03L45.79,192.24L44.20,185.82L43.94,183.41L43.94,175.23L45.26,167.47L49.19,156.99L54.37,148.30L60.13,141.25L68.42,133.77L68.79,133.69z"/><path style="fill:#ff9e9e" d="M164.11,63.24L164.29,63.87L164.67,64.09L169.50,70.17L169.62,70.52L170.00,70.75L169.96,70.93L169.53,71.06L163.65,75.86L162.51,76.51L162.16,75.33L160.90,73.88L159.24,71.58L157.90,69.99L157.35,69.71L156.73,69.71L155.75,70.35L141.77,81.46L140.73,82.03L139.76,82.02L139.30,81.58L163.10,62.42L163.27,62.43z"/><path style="fill:#ff0000" d="M157.90,69.99L159.24,71.58L160.90,73.88L159.91,74.78L145.27,86.57L143.66,86.79L144.32,87.90L144.28,88.22L143.86,88.39L143.21,87.62L138.95,82.24L138.72,82.13L138.66,81.56L139.30,81.58L139.76,82.02L140.73,82.03L141.77,81.46L155.75,70.35L156.73,69.71L157.35,69.71z"/><path style="fill:#9d9d9d" d="M69.84,138.30L70.66,139.35L72.27,141.41L72.57,141.78L72.76,142.30L74.21,143.60L74.66,144.10L74.91,144.72L75.81,145.19L75.97,145.49L77.14,146.43L77.40,146.73L72.12,151.37L66.65,157.91L63.18,163.52L61.28,167.75L59.67,173.35L59.42,176.83L59.42,182.35L60.73,188.50L68.30,209.96L53.89,209.97L47.40,192.77L45.53,185.29L45.27,180.75L45.27,175.76L46.59,168.01L50.79,157.00L55.44,149.37L61.98,141.50L68.14,135.91L68.56,135.76z"/><path style="fill:#57008d" d="M163.78,62.47L164.11,63.24L163.27,62.43L163.53,62.18z"/><path style="fill:#57008d" d="M170.27,70.47L170.25,70.67L170.00,70.75L169.62,70.52L169.50,70.17z"/><path style="fill:#e400e5" d="M96.92,109.95L96.52,110.40L96.50,111.65L96.77,112.17L100.27,117.21L103.20,120.71L103.87,120.71L106.94,118.30L107.20,118.55L107.64,118.59L107.73,118.29L104.93,115.06L105.19,114.80L105.85,114.80L107.10,116.25L108.24,116.44L108.80,117.26L109.24,117.25L109.33,116.96L108.27,115.61L106.88,114.04L106.91,113.30L107.43,113.22L108.79,114.83L109.86,115.09L110.39,115.64L111.21,115.63L108.50,112.67L108.42,112.18L109.09,111.90L109.34,112.11L110.39,113.51L111.50,113.49L111.99,114.31L112.80,114.31L110.35,111.37L110.38,110.63L110.89,110.55L112.27,112.18L113.09,112.18L113.88,112.98L114.40,113.06L114.43,112.72L111.98,110.01L111.97,109.30L112.52,109.19L113.86,110.85L114.90,110.82L115.47,111.66L115.99,111.74L116.03,111.39L114.68,109.74L113.51,108.15L114.16,107.89L115.49,109.24L115.97,109.24L116.11,108.67L116.97,107.86L117.62,108.12L118.94,109.74L121.63,112.44L121.98,112.38L122.41,112.94L122.38,115.18L121.80,115.35L121.89,116.53L121.63,116.86L121.07,117.00L120.50,116.66L120.16,116.69L120.19,118.04L118.55,118.03L118.60,119.37L117.04,119.36L116.80,120.81L115.44,120.69L115.12,122.06L113.84,122.03L113.61,123.22L112.97,123.67L112.25,123.68L111.34,123.10L109.49,124.46L109.60,125.21L111.20,129.24L111.21,130.14L105.22,135.12L104.26,135.11L102.38,133.24L101.49,132.96L99.35,134.60L99.36,136.47L98.37,136.44L98.12,137.35L97.75,137.79L96.77,137.78L96.52,138.68L96.15,139.13L95.17,139.12L94.63,140.26L93.50,140.73L93.03,141.60L91.87,142.04L91.22,142.99L90.27,143.37L89.49,144.46L87.18,144.47L83.33,147.37L78.77,147.29L77.40,146.73L77.14,146.43L76.53,145.48L75.81,145.19L74.91,144.72L74.66,144.10L74.67,143.57L75.33,143.11L77.72,142.30L80.95,139.63L81.75,139.68L82.41,139.21L82.14,138.55L80.25,136.69L79.35,135.38L80.24,135.08L81.58,136.43L82.63,136.98L83.46,137.80L83.98,137.88L84.01,137.54L81.29,134.56L81.29,133.88L81.86,133.50L83.44,135.38L84.51,135.64L85.33,136.47L85.85,136.55L85.88,136.20L83.72,134.03L82.80,132.69L83.46,132.17L85.05,133.76L86.10,134.31L86.93,135.13L87.45,135.21L87.48,134.87L84.77,131.90L84.67,131.12L85.34,130.84L86.91,132.71L87.98,132.97L88.79,133.79L89.23,133.79L89.31,133.50L86.35,130.29L86.27,129.79L86.94,129.51L88.52,131.10L89.57,131.64L90.39,132.46L90.83,132.46L90.92,132.17L87.92,128.70L87.90,128.43L88.78,128.15L90.39,130.05L91.17,130.02L92.26,131.13L92.70,131.13L92.76,130.14L95.89,127.60L96.23,127.61L96.54,127.90L97.19,127.91L103.72,122.69L103.20,121.74L94.35,110.05L93.43,106.46z"/><path style="fill:#e50000" d="M162.16,75.33L162.51,76.51L162.04,77.19L147.38,88.94L146.65,90.10L146.83,90.96L146.94,91.72L146.26,91.55L145.43,90.42L143.86,88.39L144.28,88.22L144.32,87.90L143.66,86.79L145.27,86.57L159.91,74.78L160.90,73.88z"/><path style="fill:#ffc8c8" d="M170.51,71.25L170.78,71.83L170.77,72.02L148.03,90.12L146.83,90.96L146.65,90.10L147.38,88.94L162.04,77.19L162.51,76.51L163.65,75.86L169.53,71.06L169.96,70.93z"/><path style="fill:#0000ff" d="M193.42,37.08L194.49,38.15L195.80,39.56L199.11,43.77L199.01,43.92L197.56,45.19L188.06,54.64L186.69,55.70L186.64,56.64L188.59,59.32L188.33,59.68L174.05,71.08L173.65,71.08L170.69,67.60L170.52,67.51L170.21,66.74L169.70,66.52L169.41,66.15L169.38,65.71L168.90,65.44L168.34,64.83L168.32,64.38L167.84,64.11L167.28,63.49L167.01,62.73L166.50,62.52L166.21,62.14L165.93,61.42L165.18,60.85L164.86,60.09L162.70,57.45L157.87,53.47L157.69,53.43L157.33,53.16L157.34,52.50L171.51,41.18L173.39,42.52L174.07,42.55L190.88,36.11L192.05,36.10z"/><path style="fill:#fe00ff" d="M111.26,99.33L111.43,99.89L114.95,104.99L115.18,105.04L115.80,104.30L116.29,104.66L121.08,110.80L121.98,112.38L121.63,112.44L118.94,109.74L117.62,108.12L116.97,107.86L116.11,108.67L115.97,109.24L115.49,109.24L114.16,107.89L113.51,108.15L114.68,109.74L116.03,111.39L115.99,111.74L115.47,111.66L114.90,110.82L113.86,110.85L112.52,109.19L111.97,109.30L111.98,110.01L114.43,112.72L114.40,113.06L113.88,112.98L113.09,112.18L112.27,112.18L110.89,110.55L110.38,110.63L110.35,111.37L112.80,114.31L111.99,114.31L111.50,113.49L110.39,113.51L109.34,112.11L109.09,111.90L108.42,112.18L108.50,112.67L111.21,115.63L110.39,115.64L109.86,115.09L108.79,114.83L107.43,113.22L106.91,113.30L106.88,114.04L108.27,115.61L109.33,116.96L109.24,117.25L108.80,117.26L108.24,116.44L107.10,116.25L105.85,114.80L105.19,114.80L104.93,115.06L107.73,118.29L107.64,118.59L107.20,118.55L106.94,118.30L103.87,120.71L103.20,120.71L100.27,117.21L96.77,112.17L96.50,111.65L96.52,110.40L96.92,109.95L97.74,109.48L99.21,108.25L99.21,107.63L98.83,106.79L100.02,106.91L100.24,105.29L101.61,105.57L101.85,103.95L102.37,103.86L102.92,104.20L103.46,104.26L103.45,102.62L103.98,102.52L104.52,102.86L105.05,102.93L105.03,101.30L105.58,101.19L106.12,101.53L106.65,101.60L106.59,100.13L107.20,99.90L108.29,100.24L108.42,99.08z"/><path style="fill:#fe00ff" d="M93.43,106.46L94.35,110.05L103.20,121.74L103.72,122.69L97.19,127.91L96.54,127.90L96.23,127.61L95.89,127.60L92.76,130.14L92.70,131.13L92.26,131.13L91.17,130.02L90.39,130.05L88.78,128.15L87.90,128.43L87.92,128.70L90.92,132.17L90.83,132.46L90.39,132.46L89.57,131.64L88.52,131.10L86.94,129.51L86.27,129.79L86.35,130.29L89.31,133.50L89.23,133.79L88.79,133.79L87.98,132.97L86.91,132.71L85.34,130.84L84.67,131.12L84.77,131.90L87.48,134.87L87.45,135.21L86.93,135.13L86.10,134.31L85.05,133.76L83.46,132.17L82.80,132.69L83.72,134.03L85.88,136.20L85.85,136.55L85.33,136.47L84.51,135.64L83.44,135.38L81.86,133.50L81.29,133.88L81.29,134.56L84.01,137.54L83.98,137.88L83.46,137.80L82.63,136.98L81.58,136.43L80.24,135.08L79.35,135.38L80.25,136.69L82.14,138.55L82.41,139.21L81.75,139.68L80.95,139.63L77.72,142.30L75.33,143.11L74.67,143.57L74.44,143.49L74.13,142.82L72.75,141.80L72.57,141.78L72.27,141.41L71.70,139.64L70.35,138.05L68.62,134.75L68.79,133.69L69.29,130.40L72.14,127.91L72.76,127.51L72.76,125.60L73.20,125.21L74.35,125.27L74.35,124.27L74.81,123.87L75.97,124.01L75.94,122.94L76.41,122.54L77.56,122.69L77.82,121.30L79.16,121.34L79.56,120.11L80.22,119.89L81.03,119.92L81.02,118.93L81.47,118.54L82.65,118.67L82.62,117.61L83.35,116.92L83.78,116.94L83.63,117.47L85.08,120.46L85.33,120.52L84.75,119.12L84.76,117.87L84.84,117.71L87.47,115.74L86.62,111.46L93.20,106.28z"/><path style="fill:#3600c8" d="M172.42,70.46L172.06,70.92L171.07,71.57L170.51,71.25L170.25,70.67L170.27,70.47L171.62,69.39L171.79,69.46z"/><path style="fill:#e100e2" d="M70.35,138.05L71.70,139.64L72.27,141.41L70.66,139.35L69.84,138.30L68.56,135.76L68.62,134.75z"/><path style="fill:#e100e2" d="M74.13,142.82L74.44,143.49L74.21,143.60L72.76,142.30L72.57,141.78L72.75,141.80z"/><path style="fill:#61009d" d="M165.36,61.46L166.21,62.14L166.50,62.52L166.69,63.05L167.28,63.49L167.84,64.11L168.03,64.67L168.34,64.83L168.90,65.44L169.09,66.00L169.41,66.15L169.70,66.52L169.89,67.06L170.52,67.51L170.70,68.13L171.62,69.39L170.27,70.47L169.50,70.17L164.67,64.09L164.82,63.85L164.11,63.24L163.78,62.47L163.53,62.18L164.96,60.84L165.18,60.85z"/><path style="fill:#0000e5" d="M200.94,46.50L201.69,48.03L201.66,49.55L191.39,64.93L192.34,67.43L178.32,78.82L177.92,78.82L171.78,73.18L170.95,72.12L170.77,72.02L170.78,71.83L171.03,71.75L174.18,74.78L175.00,75.14L174.99,74.55L172.55,70.56L172.42,70.46L171.79,69.46L171.62,69.39L170.70,68.13L170.52,67.51L170.69,67.60L173.65,71.08L174.05,71.08L188.33,59.68L188.59,59.32L186.64,56.64L186.69,55.70L188.06,54.64L197.56,45.19L199.01,43.92L199.11,43.77z"/><path style="fill:#0000e5" d="M162.70,57.45L164.86,60.09L165.18,60.85L164.96,60.84L164.29,60.10L163.67,60.10L163.12,60.65L162.26,61.16L157.86,54.00L157.69,53.43L157.87,53.47z"/><path style="fill:#0000e5" d="M165.93,61.42L166.21,62.14L165.36,61.46L165.18,60.85z"/><path style="fill:#0000e5" d="M167.01,62.73L167.28,63.49L166.69,63.05L166.50,62.52z"/><path style="fill:#0000e5" d="M168.32,64.38L168.34,64.83L168.03,64.67L167.84,64.11z"/><path style="fill:#0000e5" d="M169.38,65.71L169.41,66.15L169.09,66.00L168.90,65.44z"/><path style="fill:#0000e5" d="M170.21,66.74L170.52,67.51L169.89,67.06L169.70,66.52z"/><path style="fill:#57008d" d="M165.09,62.48L165.18,62.98L164.80,62.77L164.83,62.23z"/><path style="fill:#57008d" d="M165.67,63.35L165.65,63.68L165.38,63.64L165.18,62.98z"/><path style="fill:#57008d" d="M164.82,63.85L164.67,64.09L164.29,63.87L164.11,63.24z"/><path style="fill:#e400e5" d="M111.76,99.57L114.95,103.07L115.80,104.30L115.18,105.04L114.95,104.99L111.43,99.89L111.26,99.33z"/><path style="fill:#e400e5" d="M84.84,117.71L84.76,117.87L84.75,119.12L85.33,120.52L85.08,120.46L83.63,117.47L83.78,116.94z"/><path style="fill:#e400e5" d="M86.11,121.45L86.19,121.95L85.82,121.74L85.84,121.21z"/><path style="fill:#e400e5" d="M86.66,122.28L86.72,122.75L86.37,122.57L86.19,121.95z"/><path style="fill:#e400e5" d="M87.22,123.13L87.20,123.45L86.93,123.42L86.72,122.75z"/><path style="fill:#e400e5" d="M89.34,126.04L89.34,126.39L89.05,126.33L89.05,125.74z"/><path style="fill:#fffe02" d="M133.89,92.67L134.72,93.87L134.34,94.03L132.53,97.04L129.23,100.41L125.42,102.50L124.55,101.74L119.99,95.63L119.64,94.79L121.87,90.65L124.96,88.14L128.45,87.35L129.62,87.32z"/><path style="fill:#2f00b4" d="M164.96,60.84L163.53,62.18L163.27,62.43L163.10,62.42L162.73,61.68L162.24,61.34L162.26,61.16L163.12,60.65L163.67,60.10L164.29,60.10z"/><path style="fill:#2f00b4" d="M169.96,70.93L170.00,70.75L170.25,70.67L170.51,71.25z"/><path style="fill:#2f00b4" d="M171.07,71.57L171.03,71.75L170.78,71.83L170.51,71.25z"/><path style="fill:#e50000" d="M143.24,86.01L143.24,86.37L142.95,86.30L142.95,85.72z"/><path style="fill:#e5e401" d="M138.16,98.01L138.16,98.92L136.55,102.39L132.97,105.21L129.24,106.03L128.28,106.03L125.58,102.84L125.42,102.50L129.23,100.41L132.53,97.04L134.34,94.03L134.72,93.87L134.94,93.99z"/><path style="fill:#ca00cb" d="M74.21,143.60L74.44,143.49L74.67,143.57L74.66,144.10z"/><path style="fill:#ca00cb" d="M76.53,145.48L77.14,146.43L75.97,145.49L75.81,145.19z"/><path style="fill:#ffc8c8" d="M193.42,37.08L204.50,28.65L216.24,20.64L230.65,12.63L245.60,6.24L261.87,0.90L265.25,0.06L272.19,0.06L261.87,2.50L246.20,7.64L231.98,13.70L217.30,21.70L204.77,30.25L194.49,38.15z"/><path style="fill:#ffc8c8" d="M200.94,46.50L202.88,45.17L212.31,38.06L223.44,30.51L236.25,23.57L250.14,17.71L264.54,13.17L278.95,9.97L293.89,8.10L296.95,8.01L296.95,9.61L293.62,9.70L278.68,11.57L264.26,14.76L250.14,19.31L236.25,25.17L223.71,32.12L212.24,39.86L202.71,47.14L201.69,48.03z"/><path style="fill:#ffc8c8" d="M146.26,91.55L139.12,97.26L138.69,97.23L137.96,96.38L145.43,90.42z"/><path style="fill:#0000ff" d="M174.99,74.55L175.00,75.14L174.18,74.78L171.03,71.75L171.07,71.57L172.06,70.92L172.42,70.46L172.55,70.56z"/><path style="fill:#c8c8c8" d="M78.77,147.29L72.78,152.84L68.24,158.17L64.25,164.58L62.08,169.89L61.01,173.62L60.75,177.90L60.75,181.81L61.81,187.16L69.63,209.97L68.30,209.96L60.73,188.50L59.42,182.35L59.42,176.83L59.67,173.35L61.28,167.75L63.18,163.52L66.65,157.91L72.12,151.37L77.40,146.73z"/><path style="fill:#ff9e9e" d="M194.49,38.15L204.77,30.25L217.30,21.70L231.98,13.70L246.20,7.64L261.87,2.50L272.19,0.06L296.92,0.08L296.95,8.01L293.89,8.10L278.95,9.97L264.54,13.17L250.14,17.71L236.25,23.57L223.44,30.51L212.31,38.06L202.88,45.17L200.94,46.50L199.11,43.77L195.80,39.56z"/><path style="fill:#ff9e9e" d="M143.21,87.62L143.86,88.39L145.43,90.42L137.96,96.38L131.47,88.40L131.27,87.84L133.88,85.85L138.32,82.27L138.72,82.13L138.95,82.24z"/><g id="Actor_.0"><g style="stroke:#000000;stroke-width:0.025;stroke-opacity:0.11"><path d="M45.20,167.66L48.52,158.85L53.57,150.27L60.20,142.24L68.21,135.03L68.80,134.57"/><path d="M46.29,193.33L47.01,194.77L49.49,195.98L52.89,196.05L56.51,194.94L59.61,192.90L61.56,190.35L61.99,187.81L60.84,185.78L58.37,184.65L55.06,184.61L51.55,185.66L48.50,187.62L46.49,190.11L45.95,192.67L46.29,193.33"/><path d="M46.60,167.82L49.86,159.21L54.80,150.83L61.28,142.99L68.89,136.14"/><path d="M47.30,192.22L48.46,194.23L51.13,195.14L54.60,194.72L57.89,193.08L60.11,190.69L60.66,188.21L59.43,186.30L56.78,185.45L53.41,185.87L50.18,187.44L47.94,189.77L47.30,192.22"/><path d="M61.61,166.02L65.49,158.43L71.00,151.31L76.75,146.02"/><path d="M62.95,166.26L66.72,158.91L72.06,152.00L77.81,146.72"/><path d="M68.72,133.94L68.20,133.86L68.21,135.03L69.30,137.32L71.26,140.27L73.69,143.27L76.07,145.70L77.92,147.07L78.87,147.11L78.87,147.07"/></g><g style="stroke:#000000;stroke-width:0.247;stroke-opacity:0.11"><path d="M52.52,210.00L45.95,192.67L43.95,184.84L43.68,176.42L45.20,167.66L45.78,165.67L49.01,157.07L53.93,148.71L60.40,140.88L68.20,133.86L68.78,133.41"/><path d="M53.97,210.00L47.30,192.26L45.36,184.60L45.11,176.37L46.60,167.82L50.46,157.53L55.26,149.39L61.57,141.76L68.56,135.46"/><path d="M68.28,210.00L60.66,188.21L59.19,181.23L59.49,173.73L60.83,168.89L59.91,171.24L61.61,166.02L60.83,168.89L62.57,164.44L66.54,157.83L71.71,151.64L77.37,146.56"/><path d="M69.69,210.00L61.99,187.81L60.57,181.02L60.88,173.74L60.14,178.06"/><path d="M60.19,177.78L61.41,171.48L60.88,173.74L62.84,166.67L61.41,171.48L64.00,164.89L67.85,158.49L72.86,152.49L78.91,147.07"/><path d="M62.84,166.67L62.95,166.26"/></g></g><g id="Actor_.1"><g style="stroke:#000000;stroke-width:0.025;stroke-opacity:0.11"><path d="M138.86,97.35L130.35,86.71"/><path d="M130.85,87.39L164.64,60.37"/><path d="M131.27,87.85L137.96,96.23"/><path d="M131.64,88.37L139.20,82.32"/><path d="M137.54,95.65L144.98,89.70"/><path d="M138.31,96.59L145.74,90.65"/><path d="M139.65,81.96L165.46,61.31"/><path d="M172.00,69.65L146.63,89.93"/><path d="M162.45,75.73L171.29,68.66"/><path d="M268.29,-0.00L260.94,1.70L245.42,6.84L230.73,13.27L216.97,20.91L204.24,29.68L203.13,29.48L203.12,30.74L204.20,33.09L206.07,35.90L208.24,38.45L210.16,40.09L211.32,40.37L211.39,39.19L210.33,36.83L208.42,33.93L206.18,31.31L204.24,29.68L193.96,37.54"/><path d="M200.58,45.89L209.55,39.02L207.69,37.36L206.90,36.37L205.66,34.80L204.22,32.27L203.91,30.73L204.87,30.78L194.86,38.43"/><path d="M201.17,46.97L210.16,40.09L223.11,31.25L237.21,23.69L252.30,17.51L268.26,12.80L284.93,9.67L297.00,8.66"/><path d="M297.00,7.32L284.79,8.36L268.08,11.52L251.96,16.28L236.77,22.51L222.59,30.13L209.55,39.02L210.55,39.14L210.28,37.64L208.83,35.07L206.75,32.44L204.87,30.78L217.51,22.07L231.19,14.48L245.80,8.10L261.23,3.01L274.25,-0.00"/></g><g style="stroke:#000000;stroke-width:0.247;stroke-opacity:0.11"><path d="M146.38,91.34L138.86,97.35L130.35,86.71L164.08,59.74"/><path d="M138.75,81.86L131.27,87.85L137.93,96.19L145.48,90.21"/><path d="M165.05,60.83L139.24,81.48"/><path d="M172.54,70.42L146.84,90.97"/><path d="M161.84,77.12L171.70,69.24"/><path d="M265.21,-0.00L260.75,1.03L244.98,6.26L230.05,12.80L216.06,20.57L203.13,29.48L193.33,36.98"/><path d="M272.07,-0.00L261.08,2.54L245.43,7.71L230.61,14.19L216.74,21.89L203.91,30.73L194.42,37.99"/><path d="M297.00,7.87L294.27,7.95L278.64,9.91L263.51,13.27L249.02,17.96L235.28,23.88L222.47,30.94L210.55,39.14L200.92,46.50"/><path d="M297.00,9.44L294.34,9.51L278.84,11.43L263.83,14.75L249.46,19.38L235.85,25.25L223.09,32.27L211.35,40.35L201.56,47.84"/></g></g><g id="Actor_15.0"><g style="stroke:#000000;stroke-width:0.025"><path d="M157.11,52.53L162.87,57.54L164.63,59.74L173.73,71.14L178.06,78.78"/><path d="M172.59,70.82L173.31,71.56L174.33,73.18L174.97,74.45L175.05,74.73L175.06,74.89L175.00,74.99L174.88,75.00L174.69,74.92L174.12,74.53L173.33,73.82L172.35,72.83L169.93,70.16L166.85,66.44L163.93,62.60L161.82,59.58L161.04,58.36L160.49,57.38L160.20,56.69L160.14,56.46L160.16,56.32L160.25,56.25L160.40,56.28L160.60,56.38L160.90,56.58L161.65,57.23L163.19,58.77L165.14,60.94L166.72,63.27L168.84,66.16L170.58,68.40L172.59,70.82L174.00,72.62"/><path d="M161.04,58.36L162.10,58.35L161.53,57.12"/><path d="M162.10,58.34L162.03,57.64L162.10,57.66"/><path d="M165.38,61.31L164.32,61.37L164.25,61.77L165.66,63.77L167.21,65.86L168.86,68.00L170.49,70.00L172.02,71.79L173.53,73.42L174.50,74.33L174.80,74.54L175.02,74.63L174.64,74.33L173.97,73.69L172.34,71.89L170.28,69.42L168.34,66.95L166.39,64.34L164.59,61.78L163.01,59.34L161.98,57.54"/><path d="M162.10,58.35L163.08,60.00L164.25,61.77"/><path d="M162.87,57.54L177.80,45.60L173.67,42.58"/><path d="M173.31,71.56L171.45,68.89L169.47,66.24L167.26,63.46L165.14,60.94"/><path d="M173.73,71.14L188.66,59.20L190.38,62.85L190.87,62.46L190.15,61.11L189.18,59.49L187.33,56.73L184.83,53.33L181.95,49.76L180.36,47.93L178.85,46.30L176.83,44.30L175.71,43.35L175.23,42.99L174.45,42.53L174.16,42.43L173.93,42.42"/><path d="M177.80,45.60L188.66,59.20"/><path d="M190.38,62.85L191.32,64.84"/><path d="M201.51,47.72L190.87,62.46L191.13,63.04L191.46,63.97L191.52,64.31L191.51,64.57L191.43,64.75"/></g><g style="stroke:#000000;stroke-width:0.247"><path d="M157.96,53.96L157.11,52.53L171.52,41.01L173.67,42.58L173.93,42.42L191.25,35.83L191.46,35.82L191.73,35.89L192.06,36.05L192.89,36.61L193.37,37.01L195.05,38.63L196.89,40.71L198.67,43.01L200.19,45.25L201.27,47.18L201.51,47.72L201.79,48.58L201.83,48.89L201.80,49.13L191.43,64.75L191.33,64.83L192.46,67.26L178.06,78.78L171.98,73.22L161.86,60.55L157.96,53.96"/></g></g><g id="Actor_16.0"><g style="stroke:#000000;stroke-width:0.025"><path d="M138.49,81.51L138.92,81.98L142.38,86.24L144.55,88.97L146.13,90.99L146.74,91.83"/><path d="M139.94,83.37L140.08,83.43L139.42,82.66L140.51,84.10L143.41,87.76L145.07,89.80L145.81,90.67L145.33,90.01L143.80,88.05L140.08,83.43"/><path d="M147.09,89.09L146.67,88.48L146.10,89.38L146.30,90.28L142.88,85.94L140.81,83.37L139.34,81.59"/><path d="M141.24,81.75L141.90,82.50L143.44,84.38L145.26,86.67L146.67,88.48L160.69,77.27L159.35,75.41L157.53,73.11L155.94,71.27L155.19,70.59"/><path d="M146.13,90.99L146.58,90.63L146.30,90.28"/><path d="M146.58,90.63L146.86,91.02"/><path d="M155.34,70.49L156.08,71.16L156.84,72.04L157.68,73.00L159.49,75.30L160.82,77.15L160.69,77.27L161.02,77.96"/><path d="M161.15,77.84L160.82,77.15L162.39,75.60"/></g><g style="stroke:#000000;stroke-width:0.247"><path d="M139.05,82.26L138.49,81.51L138.93,81.15L139.34,81.59L140.20,82.06L141.24,81.75L155.19,70.59L157.22,69.33L157.93,69.96L159.44,71.69L161.29,74.06L162.39,75.60L162.69,76.26L161.02,77.96L147.09,89.09L146.58,90.04L146.86,91.02L147.19,91.47L146.74,91.83L146.25,91.28L145.72,90.63L142.80,87.02L139.05,82.26"/></g></g><g id="Actor_14.0"><g style="stroke:#000000;stroke-width:0.025"><path d="M127.75,105.26L127.78,105.27L125.94,103.15L123.59,100.26L121.38,97.43L119.93,95.43L119.63,94.79"/><path d="M138.36,98.27L137.61,97.41L135.51,101.29L131.98,104.12L127.78,105.27L128.62,106.06"/><path d="M138.34,98.21L137.87,97.67L136.30,95.63L132.37,90.72L130.20,88.06L129.80,87.59L129.41,87.03"/><path d="M129.80,87.59L130.17,88.08L130.22,88.02L130.23,87.99L130.21,87.96"/><path d="M137.87,97.67L137.61,97.38L137.61,97.41L135.83,95.24L133.48,92.33L131.26,89.52L129.75,87.57L129.36,87.01"/><path d="M137.61,97.37L135.83,95.20L133.48,92.28L131.30,89.53L130.17,88.08"/></g><g style="stroke:#000000;stroke-width:0.247"><path d="M120.00,95.56L121.38,97.46L123.47,100.16L125.91,103.14L127.75,105.26L128.57,106.03L128.62,106.06L132.95,105.11L136.45,102.31L138.36,98.27L138.34,98.21L137.89,97.57L136.38,95.62L134.22,92.91L131.97,90.11L130.21,87.96L129.41,87.03L129.36,87.01L125.04,87.98L121.56,90.77L119.63,94.79L119.94,95.48L120.00,95.56"/></g></g><g id="Actor_13.0"><g style="stroke:#000000;stroke-width:0.025"><path d="M69.11,130.63L70.02,133.09L72.25,136.70L75.34,140.72L78.65,144.29L81.46,146.66L83.21,147.38"/><path d="M83.09,140.96L83.43,140.68L85.61,142.58L87.12,143.68L85.89,143.20L84.37,142.09L83.09,140.96L82.84,141.17L79.70,137.73L76.69,133.91L74.26,130.30L72.75,127.33"/><path d="M74.35,125.32L74.50,126.17L74.83,127.09L75.51,128.38L76.51,129.97L77.79,131.77L79.29,133.69L80.92,135.63L82.62,137.49L84.30,139.16L83.93,140.32L81.68,138.04L79.97,136.14L78.33,134.17L76.82,132.22L75.49,130.36L74.11,128.18L73.26,126.49L72.98,125.39"/><path d="M74.20,124.41L74.48,125.48L75.34,127.18L76.72,129.35L78.05,131.20L79.56,133.15L81.20,135.11L82.92,137.02L85.15,139.30L84.30,139.16L86.06,140.73L87.57,141.85L87.59,143.33L87.12,143.68"/><path d="M90.04,142.99L88.62,142.41L87.57,141.85L88.80,142.34L89.26,141.98L87.41,140.57L85.56,138.89L83.39,136.67L81.68,134.77L80.04,132.80L78.52,130.85L77.19,129.00L75.80,126.83L74.94,125.14L74.65,124.05L74.93,123.63"/><path d="M85.64,138.96L85.99,137.81L86.86,137.94L88.63,139.56L90.49,140.99L89.25,140.51L87.75,139.38L85.97,137.78L84.32,136.13L82.63,134.27L80.99,132.33L79.49,130.41L78.21,128.61L77.20,127.03L76.51,125.75L76.17,124.83L76.03,124.01"/><path d="M93.50,140.36L92.18,139.65L90.94,139.17L90.96,140.64L89.11,139.22L87.34,137.60L85.10,135.30L83.39,133.40L81.75,131.43L80.23,129.48L78.89,127.64L77.50,125.47L76.62,123.79L76.32,122.72L76.58,122.31"/><path d="M75.87,123.07L76.17,124.14L77.04,125.82L78.43,127.99L79.76,129.83L81.27,131.78L82.92,133.75L84.62,135.66L86.86,137.94"/><path d="M77.39,146.58L81.46,146.66L85.62,143.33L84.35,142.24L83.07,140.98"/><path d="M77.54,121.74L77.85,122.79L78.72,124.44L80.13,126.62L81.46,128.47L82.98,130.41L84.63,132.38L86.33,134.29L88.56,136.58L87.69,136.45L86.03,134.77L84.33,132.90L82.69,130.96L81.20,129.06L79.90,127.25L78.89,125.68L78.19,124.40L77.85,123.49L77.71,122.70"/><path d="M79.90,119.66L79.66,120.04L79.99,121.10L80.89,122.76L82.30,124.91L83.64,126.75L85.17,128.69L86.81,130.66L88.52,132.57L90.75,134.88L91.09,133.73L92.82,135.32L94.30,136.47L94.33,137.95L93.87,138.30L92.63,137.82L91.13,136.68L89.39,135.09L89.04,136.24L86.81,133.94L85.10,132.03L83.46,130.06L81.93,128.12L80.60,126.27L79.19,124.12L78.31,122.45L77.99,121.38L78.24,120.98"/><path d="M79.39,121.39L79.52,122.15L79.88,123.06L80.58,124.32L81.60,125.89L82.90,127.68L84.40,129.60L86.04,131.54L87.73,133.40L89.39,135.09L90.26,135.21L92.02,136.85L93.86,138.29"/><path d="M90.26,135.21L88.04,132.92L86.34,131.01L84.69,129.05L83.17,127.10L81.83,125.26L80.43,123.11L79.54,121.45L79.21,120.40"/><path d="M81.06,120.08L81.19,120.81L81.56,121.71L82.27,122.97L83.30,124.54L84.60,126.32L85.74,127.78L87.74,130.18L89.43,132.04L91.09,133.73L91.97,133.85L93.72,135.49L95.54,136.95L96.00,136.59L94.20,135.15L92.45,133.51L90.22,131.20L88.52,129.30L86.88,127.33L85.35,125.38L84.00,123.55L82.58,121.41L81.68,119.75L81.33,118.71L81.56,118.33"/><path d="M80.88,119.06L81.22,120.11L82.12,121.76L83.54,123.90L84.88,125.73L86.41,127.68L88.05,129.65L89.75,131.56L91.97,133.85"/><path d="M98.24,136.23L96.99,135.72L95.98,135.13L97.23,135.60L95.42,134.13L93.67,132.49L92.79,132.37L91.14,130.68L89.45,128.81L87.81,126.87L86.30,124.96L85.00,123.18L83.96,121.62L83.24,120.36L82.87,119.47L82.74,118.76"/><path d="M82.55,117.72L82.90,118.76L83.82,120.40L85.24,122.54L86.59,124.37L88.12,126.31L89.76,128.28L91.46,130.19L93.67,132.49"/><path d="M83.93,140.32L85.72,141.93L87.57,143.33"/><path d="M83.79,116.52L83.61,117.36L84.54,119.45L86.50,122.58L89.19,126.25L92.24,129.94L95.19,133.11L97.61,135.31L99.11,136.22L99.69,135.95"/><path d="M99.30,134.52L98.51,135.15L96.93,134.29L94.26,131.80L91.02,128.18L87.91,124.17L85.58,120.64L84.51,118.31L84.93,117.59"/><path d="M85.64,143.32L86.65,144.04L87.12,144.26"/><path d="M85.15,139.30L86.93,140.92L88.80,142.34"/><path d="M84.65,117.57L84.62,117.55"/><path d="M85.89,143.52L85.89,143.20L86.95,143.75L88.19,144.25"/><path d="M87.13,143.69L88.49,144.38L89.53,144.10L89.03,144.04L88.82,143.96L88.37,143.78L87.59,143.33"/><path d="M87.34,137.60L87.69,136.45L89.44,138.03L90.93,139.16L91.97,139.74L93.32,140.29"/><path d="M96.93,134.29L100.49,131.44L96.84,128.08L87.54,115.79L87.47,115.56"/><path d="M87.52,115.76L94.46,110.21L93.26,106.06"/><path d="M88.81,142.34L90.17,143.04"/><path d="M92.17,139.64L90.69,138.51L88.56,136.58"/><path d="M89.53,144.10L89.88,143.95"/><path d="M91.46,142.68L90.62,142.68L89.26,141.98"/><path d="M89.27,141.99L89.25,140.51L90.29,141.07L91.68,141.64"/><path d="M94.96,138.94L93.64,138.40L92.62,137.82L92.64,139.29L90.78,137.83L89.04,136.24"/><path d="M91.84,141.70L90.49,140.99"/><path d="M90.96,140.64L92.29,141.34L93.12,141.36"/><path d="M90.95,140.63L90.50,141.00"/><path d="M90.75,134.88L92.50,136.50L94.32,137.94"/><path d="M92.18,139.65L92.63,139.29"/><path d="M92.64,139.29L93.95,140.00L94.78,140.03"/><path d="M92.45,133.51L92.79,132.37L94.51,133.97L95.98,135.13L96.01,136.60L97.31,137.33L98.10,137.38"/><path d="M94.33,137.95L95.64,138.67L96.44,138.71"/><path d="M93.87,138.30L95.18,139.03"/><path d="M95.54,136.95L94.31,136.48L95.31,137.06L96.60,137.59"/><path d="M94.46,110.21L103.84,122.48L96.84,128.08"/><path d="M95.55,136.95L96.86,137.69"/><path d="M96.01,136.60L96.00,136.59"/><path d="M109.27,124.56L108.20,125.42L106.94,124.58L104.72,122.37L101.99,119.23L99.13,115.56L97.24,112.82L96.22,110.88L96.42,110.37L97.08,109.84"/><path d="M97.23,135.60L98.53,136.35"/><path d="M97.24,135.61L97.61,135.31"/><path d="M98.71,106.51L99.11,107.34L100.08,108.82L101.42,110.65L103.10,112.80L106.00,116.25L108.93,119.45L109.21,118.38L106.35,115.21L103.56,111.89L102.34,110.31L100.70,108.02L100.28,107.31L100.16,106.88"/><path d="M106.94,124.58L110.35,121.86L109.07,120.58L106.31,117.43L103.45,113.88L100.98,110.53L99.37,108.01"/><path d="M99.95,105.61L100.39,106.44L101.31,107.82L103.45,110.67L106.24,114.08L108.22,116.35L110.14,118.42L111.92,120.20L113.15,121.30L113.99,121.92L114.57,122.21"/><path d="M100.49,131.44L101.73,132.58"/><path d="M100.40,105.02L100.40,105.26L100.85,106.09L101.77,107.46L103.93,110.34L105.29,112.02L108.70,116.01L110.63,118.09L112.11,119.59L113.62,120.95L113.56,119.52L112.38,118.45L110.91,117.00L110.63,118.09"/><path d="M100.67,105.13L100.68,105.14"/><path d="M101.83,105.57L101.96,105.97L102.38,106.67L104.07,109.02L106.61,112.17L108.05,113.86L110.91,117.00L111.84,117.07L109.93,114.99L107.95,112.72L105.16,109.32L103.00,106.46L102.07,105.09L101.62,104.27"/><path d="M116.23,120.88L115.69,120.60L114.85,119.97L115.30,119.60L115.24,118.20L114.05,117.09L112.61,115.64L112.33,116.73L110.92,115.21L107.91,111.77L104.82,107.93L102.72,105.05L102.24,104.26L102.04,103.80L102.12,103.69"/><path d="M103.30,102.94L103.75,103.75L104.69,105.11L106.86,107.96L109.65,111.35L111.63,113.62L113.54,115.71L115.02,117.22L116.52,118.61L117.33,119.25L117.90,119.55"/><path d="M103.84,122.48L111.46,129.86"/><path d="M103.49,104.24L103.63,104.63L104.06,105.33L105.77,107.66L108.31,110.81L109.74,112.50L112.61,115.64L113.54,115.71"/><path d="M116.53,118.62L116.98,118.26L115.50,116.88L114.03,115.37L112.62,113.85L109.62,110.41L106.52,106.57L105.15,104.76L103.92,102.92L103.71,102.47L103.78,102.37"/><path d="M104.97,101.60L105.43,102.40L106.38,103.76L108.57,106.60L111.36,109.99L113.33,112.26L115.24,114.35L114.30,114.28L111.44,111.14L110.01,109.45L107.46,106.31L105.74,103.99L105.30,103.29L105.16,102.92"/><path d="M105.38,101.03L105.42,101.25L105.89,102.05L106.85,103.41L109.04,106.25L111.83,109.64L113.82,111.92L115.73,114.01L115.99,112.96L113.14,109.78L110.35,106.46L108.16,103.66L106.98,101.96L106.83,101.61"/><path d="M106.42,101.46L106.83,101.63"/><path d="M106.60,100.06L106.64,100.26L107.12,101.06L108.07,102.40L110.27,105.24L113.07,108.62L115.04,110.90L116.94,112.99L116.00,112.93L117.42,114.39L118.60,115.49L118.68,116.92L118.21,117.27L119.01,117.91L119.57,118.21"/><path d="M107.03,99.76L107.21,100.13L107.66,100.84L108.38,101.83L110.50,104.59L113.26,107.95L115.38,110.40L117.43,112.65L117.69,111.57L114.85,108.42L112.05,105.10L109.85,102.31L109.07,101.25L108.65,100.62L108.49,100.28"/><path d="M108.93,119.45L110.42,120.94L111.93,122.30L112.77,122.91L113.35,123.19L113.66,123.11"/><path d="M108.28,98.94L108.54,99.43L109.06,100.23L110.15,101.75L112.86,105.25L115.69,108.65L118.29,111.61L119.69,113.09L121.00,114.39L121.74,115.00L122.21,115.28"/><path d="M113.53,121.79L112.69,121.44L111.89,120.87L110.69,119.80L109.22,118.35L110.14,118.42"/><path d="M111.93,122.30L111.29,122.81L110.35,121.86"/><path d="M111.94,122.30L111.88,120.86L113.15,121.30"/><path d="M111.29,122.81L111.38,122.87"/><path d="M111.84,117.07L113.63,118.87L114.85,119.97"/><path d="M112.33,116.73L113.81,118.24L115.30,119.60"/><path d="M111.34,99.15L111.30,99.53L112.38,101.25L114.40,104.00L116.93,107.21L119.45,110.21L121.44,112.37L122.49,113.27"/><path d="M112.81,100.63L111.77,99.70L111.74,100.05L112.74,101.64L114.60,104.17L116.93,107.13L119.35,110.00L121.08,111.88L122.05,112.72L121.99,112.26L120.94,110.62L119.11,108.14L116.87,105.30L114.63,102.63L112.81,100.63L112.41,101.11"/><path d="M113.16,121.31L113.62,120.95"/><path d="M114.84,119.96L113.56,119.52L114.36,120.11L115.15,120.43L115.32,121.79L115.02,121.85L114.44,121.57L113.63,120.96"/><path d="M114.03,115.37L114.29,114.31L115.74,115.74L116.92,116.83L117.71,117.43L118.46,117.77"/><path d="M115.18,120.45L115.15,120.44"/><path d="M115.31,119.61L116.34,120.37L116.91,120.52"/><path d="M116.52,118.61L115.24,118.17L116.04,118.77L116.82,119.11"/><path d="M118.21,117.27L117.01,116.16L115.24,114.35"/><path d="M118.67,116.91L117.19,115.53L115.73,114.01"/><path d="M118.57,119.20L118.01,119.03L116.98,118.26"/><path d="M116.99,118.27L116.92,116.83L118.20,117.27"/><path d="M120.12,116.43L119.38,116.09L118.60,115.49L119.89,115.92L118.41,114.51L116.94,112.99"/><path d="M117.43,112.65L118.89,114.17L120.34,115.56L119.89,115.92"/><path d="M118.29,111.61L117.69,111.57L119.11,113.04L120.28,114.14L121.05,114.76L121.77,115.10"/><path d="M118.68,116.92L119.68,117.70L120.23,117.87"/><path d="M119.90,115.93L120.69,116.57L121.23,116.88"/><path d="M121.44,112.37L121.00,114.39L120.28,114.14L120.35,115.57"/><path d="M120.36,115.57L121.41,116.39L121.92,116.52"/></g><g style="stroke:#000000;stroke-width:0.247"><path d="M68.60,135.56L68.54,135.43L69.11,130.63L69.66,129.80L72.75,127.33L72.43,125.73L72.98,125.39L73.27,124.96L74.35,125.32L74.20,124.41L74.48,123.99L74.93,123.63L76.03,124.01L75.87,123.07L76.14,122.66L76.58,122.31L77.71,122.70L77.54,121.74L77.80,121.34L78.24,120.98L79.39,121.39L79.21,120.40L79.46,120.01L79.90,119.66L81.06,120.08L80.88,119.06L81.12,118.69L81.56,118.33L82.74,118.76L82.55,117.72L82.77,117.36L83.79,116.52L84.62,117.55L84.93,117.59L87.47,115.56L86.56,111.42L93.26,106.06L97.08,109.84L99.37,108.01L98.71,106.51L99.07,106.45L100.16,106.88L99.95,105.38L100.40,105.02L101.83,105.57L101.62,104.05L102.12,103.69L103.49,104.24L103.28,102.72L103.78,102.37L105.16,102.92L104.94,101.39L105.38,101.03L106.83,101.61L106.60,100.06L107.03,99.76L107.14,99.73L108.49,100.28L108.28,98.94L108.31,98.79L111.34,99.15L112.47,100.16L114.44,102.33L116.87,105.23L117.91,106.55L119.30,108.31L121.27,110.99L122.42,112.77L122.49,113.27L122.38,115.17L122.21,115.28L121.77,115.10L121.95,116.20L121.92,116.52L121.50,116.85L121.25,116.88L120.13,116.44L120.32,117.60L120.23,117.87L119.84,118.17L119.57,118.21L118.49,117.78L118.66,118.92L118.57,119.20L118.19,119.50L117.91,119.54L116.82,119.11L117.01,120.24L116.91,120.52L116.53,120.82L116.23,120.88L115.18,120.45L115.34,121.39L115.32,121.79L114.87,122.15L114.57,122.21L113.53,121.79L113.69,122.71L113.66,123.11L112.61,123.78L111.38,122.87L109.27,124.56L109.70,125.13L111.46,129.86L104.67,135.29L101.73,132.58L99.31,134.52L99.69,135.95L99.31,136.41L98.53,136.35L98.24,136.23L98.32,136.75L98.10,137.38L97.65,137.74L96.86,137.69L96.60,137.59L96.68,138.06L96.44,138.71L95.99,139.06L95.18,139.03L94.96,138.94L95.03,139.38L94.78,140.03L94.17,140.45L93.50,140.36L93.32,140.29L93.39,140.69L93.12,141.36L92.67,141.72L91.84,141.70L91.68,141.64L91.74,142.01L91.46,142.68L91.01,143.04L90.17,143.04L90.04,142.99L90.09,143.43L89.88,143.95L89.35,144.37L88.49,144.38L88.19,144.25L88.15,144.42L87.58,144.47L87.12,144.26L83.21,147.38L78.83,147.07L77.39,146.58L74.94,144.48L72.15,141.32L69.80,138.00L68.60,135.56"/></g></g><g><g><path style="stroke:#000000;stroke-width:0.348;stroke-dasharray:2.1 2.1" d="M110.70,111.15L128.99,96.53"/></g></g><g><g><path style="stroke:#000000;stroke-width:0.348;stroke-dasharray:2.1 2.1" d="M120.22,103.54L181.99,54.14"/></g></g><g id="PMI16.0"><g><path style="stroke:#000000;stroke-width:0.350" d="M133.74,77.36L144.10,76.69"/></g><g><path style="fill:#000000" d="M144.16,77.57L144.05,75.83L145.84,76.59z"/></g><g><path style="fill:#ffffff" d="M113.30,81.13L133.75,81.13L133.75,74.92L113.30,74.92z"/><path style="stroke:#000000;stroke-width:0.350;stroke-opacity:0.98" d="M113.30,81.13L133.75,81.13L133.75,74.92L113.30,74.92z"/><text xml:space="preserve" fill="#000000" stroke-width="0" x="114.08" y="79.38" font-size="3.78" opacity="1.00" font-family="MS Shell Dlg">891100051</text></g></g><g id="PMI13.0"><g><path style="stroke:#000000;stroke-width:0.350" d="M79.94,157.92L79.72,148.92"/></g><g><path style="fill:#000000" d="M80.60,148.89L78.86,148.93L79.69,147.17z"/></g><g><path style="fill:#ffffff" d="M69.81,164.12L90.26,164.12L90.25,157.91L69.81,157.91z"/><path style="stroke:#000000;stroke-width:0.350;stroke-opacity:0.98" d="M69.81,164.12L90.26,164.12L90.25,157.91L69.81,157.91z"/><text xml:space="preserve" fill="#000000" stroke-width="0" x="70.58" y="162.37" font-size="3.78" opacity="1.00" font-family="MS Shell Dlg">890100121</text></g></g><g id="PMI14.0"><g><path style="stroke:#000000;stroke-width:0.350" d="M132.46,123.76L131.70,106.74"/></g><g><path style="fill:#000000" d="M132.57,106.70L130.84,106.77L131.63,105.00z"/></g><g><path style="fill:#ffffff" d="M122.37,129.96L142.82,129.96L142.82,123.75L122.37,123.75z"/><path style="stroke:#000000;stroke-width:0.350;stroke-opacity:0.98" d="M122.37,129.96L142.82,129.96L142.82,123.75L122.37,123.75z"/><text xml:space="preserve" fill="#000000" stroke-width="0" x="123.15" y="128.22" font-size="3.78" opacity="1.00" font-family="MS Shell Dlg">890600051</text></g></g><g id="PMI15.0"><g><path style="stroke:#000000;stroke-width:0.350" d="M213.65,48.07L203.52,48.53"/></g><g><path style="fill:#000000" d="M203.47,47.67L203.55,49.41L201.77,48.62z"/></g><g><path style="fill:#ffffff" d="M213.64,50.71L234.09,50.71L234.09,44.50L213.64,44.50z"/><path style="stroke:#000000;stroke-width:0.350;stroke-opacity:0.98" d="M213.64,50.71L234.09,50.71L234.09,44.50L213.64,44.50z"/><text xml:space="preserve" fill="#000000" stroke-width="0" x="214.41" y="48.96" font-size="3.78" opacity="1.00" font-family="MS Shell Dlg">890900071</text></g></g><g/><g id="paperID" visibility="hidden" opacity="0.00" transform="scale(0.000100)"><path style="stroke:#000000;stroke-width:0.500;fill:#e6e6e6;fill-rule:evenodd" d="M-2000.00,-2000.00L2297.00,-2000.00L2297.00,2210.00L-2000.00,2210.00zM0.00,0.00L297.00,0.00L297.00,210.00L0.00,210.00z"/><path style="fill:#000000;fill-opacity:0.118" d="M3.00,210.00L297.00,210.00L297.00,3.00L300.00,3.00L300.00,213.00L3.00,213.00z"/></g><g id="hotspot.0" onmouseover="ShowHotSpot(evt,'0')" onmouseout="HideHotSpot(evt,'0')" onmousemove="ShowToolTip(evt,'0',&quot;3dp476803 (I_NỐI THẲNG M18-M16.14)&quot;)" opacity="0"><path style="fill:#00ff00;fill-rule:evenodd" d="M111.47,99.34L112.54,100.40L116.00,104.41L120.28,109.74L122.41,112.95L122.38,115.18L121.80,115.35L121.89,116.53L121.63,116.86L121.07,117.00L120.50,116.66L120.16,116.69L120.19,118.04L118.55,118.03L118.60,119.37L117.04,119.36L116.80,120.81L115.44,120.69L115.12,122.06L113.84,122.03L113.61,123.22L112.97,123.67L112.25,123.68L111.34,123.10L109.49,124.46L109.60,125.21L111.20,129.24L111.21,130.14L105.22,135.12L104.26,135.11L102.38,133.24L101.49,132.96L99.35,134.60L99.36,136.47L98.37,136.44L98.12,137.35L97.75,137.79L96.77,137.78L96.52,138.68L96.15,139.13L95.17,139.12L94.63,140.26L93.50,140.73L93.03,141.60L91.87,142.04L91.22,142.99L90.27,143.37L89.49,144.46L87.18,144.47L83.33,147.37L79.85,147.39L79.92,147.92L80.50,148.71L80.27,149.08L80.23,156.73L80.40,157.89L90.14,158.03L90.40,158.30L90.38,164.57L69.81,164.48L69.81,158.14L79.71,157.89L79.40,149.27L79.04,148.75L79.44,147.41L76.78,146.30L75.43,144.99L74.91,144.70L71.18,140.16L69.84,138.30L68.74,135.93L68.76,134.13L69.19,130.56L71.16,128.80L72.76,127.51L72.76,125.60L73.20,125.21L74.35,125.27L74.35,124.27L74.81,123.87L75.97,124.01L75.94,122.94L76.41,122.54L77.56,122.69L77.82,121.30L79.16,121.34L79.56,120.11L80.22,119.89L81.03,119.92L81.02,118.93L81.47,118.54L82.65,118.67L82.62,117.61L83.35,116.94L83.97,116.93L84.52,117.52L85.18,117.50L87.47,115.74L86.62,111.46L93.20,106.29L96.80,109.77L97.47,109.78L99.21,108.25L99.21,107.63L98.83,106.79L100.02,106.91L100.24,105.29L101.61,105.57L101.85,103.95L102.37,103.86L102.92,104.20L103.46,104.26L103.45,102.62L103.98,102.52L104.52,102.86L105.05,102.93L105.03,101.30L105.58,101.19L106.12,101.53L106.65,101.60L106.59,100.13L107.20,99.90L108.29,100.24L108.42,99.08z"/></g><g id="hotspot.1" onmouseover="ShowHotSpot(evt,'1')" onmouseout="HideHotSpot(evt,'1')" onmousemove="ShowToolTip(evt,'1',&quot;3dp477780 (I_ĐẦU NỐI NGOÀI Ø9.6.25)&quot;)" opacity="0"><path style="fill:#00ff00;fill-rule:evenodd" d="M138.16,98.01L138.16,98.92L136.55,102.39L133.11,105.09L131.92,105.47L132.31,106.31L131.96,106.82L132.70,123.74L142.71,123.87L142.97,124.14L142.95,130.41L122.38,130.32L122.38,123.98L132.01,123.74L131.73,112.70L131.45,107.10L130.82,106.82L131.25,106.09L131.21,105.75L129.24,106.03L128.28,106.03L123.48,100.40L119.99,95.63L119.64,94.79L121.87,90.65L124.96,88.14L128.45,87.35L129.62,87.32z"/></g><g id="hotspot.2" onmouseover="ShowHotSpot(evt,'2')" onmouseout="HideHotSpot(evt,'2')" onmousemove="ShowToolTip(evt,'2',&quot;3dp478471 (I_ĐAI ỐC ĐẦU NỐI NGOÀI M16.26)&quot;)" opacity="0"><path style="fill:#00ff00;fill-rule:evenodd" d="M192.84,36.65L195.80,39.56L199.24,43.85L201.66,48.11L201.65,49.56L191.39,64.93L192.34,67.43L178.32,78.82L177.92,78.82L171.78,73.19L161.65,60.37L157.35,53.16L157.34,52.50L171.51,41.18L173.39,42.52L174.07,42.55L190.88,36.11L192.05,36.10zM234.23,44.89L234.21,51.16L213.64,51.07L213.40,48.65L203.70,48.94L203.52,49.52L202.16,48.90L202.16,48.50L203.51,47.89L203.70,48.17L209.03,48.12L213.40,47.95L213.64,44.73L233.97,44.62z"/></g><g id="hotspot.3" onmouseover="ShowHotSpot(evt,'3')" onmouseout="HideHotSpot(evt,'3')" onmousemove="ShowToolTip(evt,'3',&quot;3dp624180 (I_ĐẦU NỐI TRONG Ø9.6.24)&quot;)" opacity="0"><path style="fill:#00ff00;fill-rule:evenodd" d="M157.90,69.99L158.97,71.31L162.45,75.87L162.45,76.49L162.04,77.19L147.38,88.94L146.65,90.10L146.95,91.72L146.44,91.63L140.27,83.88L138.57,81.69L138.95,81.47L139.76,82.01L140.73,82.03L141.77,81.46L155.75,70.35L156.73,69.71L157.35,69.71zM133.90,75.31L134.04,77.04L141.60,76.76L143.99,76.46L144.52,76.10L145.63,76.79L144.44,77.52L144.00,77.25L141.79,77.21L134.04,77.73L133.88,81.58L113.31,81.49L113.31,75.15L133.63,75.04z"/></g></g></svg>
