<?xml version="1.0" encoding="UTF-8" standalone="no"?>
<svg xmlns="http://www.w3.org/2000/svg" xmlns:xlink="http://www.w3.org/1999/xlink" width="297.000mm" height="210.000mm" viewBox="0.000000 0.000000 297.000000 210.000000" stroke-linejoin="round" stroke-linecap="round" fill="none" fill-rule="evenodd"><desc>Composer Export</desc><script type="text/ecmascript"><![CDATA[
if(typeof(top) != "undefined")
{
	top.ShowPaper = ShowPaper;
}
function ShowHotSpot(evt,hotspotid)
{
	var svgDocument = evt.target.ownerDocument;
	var strId = "hotspot."+hotspotid;
	var hotspot = svgDocument.getElementById(strId);
	if(hotspot)
		hotspot.setAttribute("opacity",".5");
}
function HideHotSpot(evt,hotspotid)
{
	var svgDocument = evt.target.ownerDocument;
	var strId = "hotspot."+hotspotid;
	var hotspot = svgDocument.getElementById(strId);
	if(hotspot)
		hotspot.setAttribute("opacity","0");

	var toolTip = svgDocument.getElementById('ToolTip');
	if(toolTip)
		toolTip.setAttribute("visibility","hidden");
}
function ShowToolTip(evt,hotspotid,strTooltip)
{
	if(strTooltip=="")
	return;

	// change text
	var svgDocument = evt.target.ownerDocument;
	var tiptext = svgDocument.getElementById('ToolTipText');
	if( !tiptext )
	return;
	tiptext.firstChild.nodeValue = " " + strTooltip + "  " ;

	// show tooltip before, else some refresh issue

	var toolTip = svgDocument.getElementById('ToolTip');
	if(!toolTip)
	return;

	toolTip.setAttribute("visibility","visible");
	toolTip.setAttribute("opacity",".95");

	// move tooltip
	// get viewbox

	var root = svgDocument.documentElement;
	var vbox = (root.getAttribute("viewBox")).split(' ');
	var x0 = parseFloat(vbox[0]);
	var y0 = parseFloat(vbox[1]);
	var vboxW = parseFloat(vbox[2]);
	var vboxH = parseFloat(vbox[3]);

	// get default width of svg

	var strW = root.getAttribute("width");
	var svgW = parseFloat(strW);
	if(strW.indexOf('mm') != -1)
	svgW *= 3.779;

	var strH = root.getAttribute("height");
	var svgH = parseFloat(strH);
	if(strH.indexOf('mm') != -1)
	svgH *= 3.779;  	// 96 dpi  -> 96/25.4 = 3.779

	// update the viewbox / width / height if svg is embedded in html with zoom fit all
	var realx0 = x0;
	var realy0 = y0;
	var realvboxW = vboxW;
	var realvboxH = vboxH;
	var realsvgW = svgW;
	var realsvgH = svgH;

	if ((typeof(top) == "undefined") || (typeof(top.svgctl1) != "undefined")) // embedded in html
	{
		// get window size in pxl

		svgW = window.innerWidth;
		svgH = window.innerHeight;

		// calculate real viewbox

		realsvgW = svgW;
		realsvgH = svgH;
		if((svgW / svgH) > (vboxW / vboxH))
		{
			realvboxW = (vboxH * svgW) / svgH;
			realvboxH = vboxH;
			realx0 = x0 - (realvboxW - vboxW)/2 ;
		}
		else
		{
			realvboxH = (vboxW * svgH) / svgW;
			realvboxW = vboxW;
			realy0 = y0 - (realvboxH - vboxH)/2 ;
		}
	}

	// get user zoom/pan

	var newScale = root.currentScale;
	var translation = root.currentTranslate;

	// transform pxl to user unit

	var xPos = (((evt.clientX+10- translation.x)/newScale) * realvboxW)/realsvgW  + realx0 ;
	var yPos = (((evt.clientY+5- translation.y)/newScale) * realvboxH)/ realsvgH  + realy0 ;
	var scaleForWidth = ( (1 / newScale) * realvboxH) / realsvgH;

	// move tooltip

	toolTip.setAttribute("transform", "translate(" + xPos + "," + yPos + ")" );

	// resize tooltip

	var fontsize = 12;
	tiptext.setAttribute("font-size",fontsize*scaleForWidth);
	tiptext.setAttribute("y", fontsize*scaleForWidth);
	var tipBG = svgDocument.getElementById('ToolTipBG');
	var outline = tiptext.getBBox();
	if(tipBG)
	{
		tipBG.setAttribute("stroke-width", 1*scaleForWidth);
		tipBG.setAttribute("width", Number(outline.width) );
		tipBG.setAttribute("height", Number(outline.height) + fontsize*.5*scaleForWidth );
	}
	var ToolTipShadow = svgDocument.getElementById('ToolTipShadow');
	if(ToolTipShadow)
	{
		ToolTipShadow.setAttribute("width", Number(outline.width) );
		ToolTipShadow.setAttribute("height", Number(outline.height) + fontsize*.5*scaleForWidth );
		ToolTipShadow.setAttribute("x", 3*scaleForWidth);
		ToolTipShadow.setAttribute("y", 3*scaleForWidth);
	}
}
function ShowPaper()
{
  var svgDocument = getDocument();
  var paper = svgDocument.getElementById("paperID");
  if(paper)
  {
    paper.setAttribute("transform","scale(1)");
    paper.setAttribute("opacity","1");
    paper.setAttribute("visibility","visible");
  }
  var svg = svgDocument.getRootElement();
  if(svg)
  {
    svg.setAttribute("width","307.000mm");
    svg.setAttribute("height","220.000mm");
    svg.setAttribute("viewBox","-5.000000 -5.000000 307.000000 220.000000");
  }
}
]]></script><defs/><g><path style="fill:#ffffff" d="M296.92,209.87L0.08,209.87L0.08,0.08L296.92,0.08z"/><path style="fill:#fffe02" d="M142.00,38.76L142.53,39.51L143.04,63.33L143.29,68.70L143.81,74.08L144.56,77.94L145.08,79.46L146.90,82.51L149.19,84.57L153.30,86.61L154.80,87.15L156.11,87.38L156.37,87.63L157.67,87.66L158.42,88.16L159.45,88.18L160.47,88.66L161.74,88.92L162.00,89.17L164.30,89.43L164.79,89.71L166.61,89.94L167.09,90.22L169.17,90.45L169.65,90.74L172.24,90.96L172.72,91.25L175.06,91.48L175.54,91.76L179.40,92.00L180.15,92.28L184.26,92.52L185.27,92.78L189.90,93.02L190.64,93.30L194.51,93.53L194.67,94.90L195.28,95.06L195.72,95.90L196.26,96.13L196.59,96.57L200.64,109.67L200.90,114.79L201.24,136.67L193.39,137.06L192.63,137.33L192.69,147.32L196.72,147.31L201.49,147.01L201.15,153.28L199.62,161.47L198.78,161.91L198.33,163.00L197.25,163.45L190.32,163.95L176.99,164.45L176.51,164.73L167.28,164.97L159.42,164.97L157.10,164.70L154.30,164.72L148.66,164.21L147.67,163.97L146.36,163.95L142.76,163.45L140.22,162.93L136.87,162.43L135.29,161.97L134.51,161.21L133.31,150.64L133.05,146.54L132.28,120.42L131.51,74.08L131.27,42.43L132.46,41.31L135.78,39.26L138.60,38.49z"/><path style="fill:#ff0000" d="M192.63,137.33L193.39,137.06L201.24,136.67L207.73,136.30L212.69,136.29L212.68,144.06L212.42,146.11L212.12,146.32L201.49,147.01L196.72,147.31L192.69,147.32z"/><path style="fill:#7f0080" d="M169.90,54.71L170.16,53.67L171.47,53.59L171.39,55.66L170.10,55.72z"/><path style="fill:#7f0080" d="M171.75,70.46L171.73,71.62L171.46,72.11L170.16,72.04L170.16,70.31L171.49,70.21z"/><path style="fill:#0000ff" d="M167.85,54.09L167.54,55.92L166.58,55.92L166.56,53.39L166.77,53.08L167.61,53.07z"/><path style="fill:#0000ff" d="M167.89,69.97L167.89,71.87L167.52,72.55L166.85,72.57L166.50,71.02L166.84,69.53L167.60,69.46z"/><path style="fill:#fffe02" d="M195.51,142.54L195.19,142.56L195.26,141.98L195.56,141.94z"/><path style="fill:#ff0000" d="M90.02,50.03L93.65,50.24L93.91,50.50L93.89,51.38L89.69,51.54L89.42,51.79L88.68,51.91L88.68,49.47L89.26,49.47z"/><path style="fill:#ff0000" d="M90.32,89.42L94.66,89.69L94.57,90.74L90.49,91.00L90.27,91.30L89.44,91.34L89.45,89.16L90.03,89.15z"/><path style="fill:#ff0000" d="M95.71,128.59L95.68,129.47L94.82,129.65L91.50,129.90L91.29,130.49L90.54,130.43L90.46,128.09L91.29,128.12L91.52,128.42L95.44,128.33z"/><path style="fill:#ff0000" d="M97.23,156.25L97.14,157.04L93.30,157.82L93.01,158.31L92.27,158.42L91.98,156.23L92.25,155.96L92.87,156.24L94.05,156.27L96.97,155.78z"/><g id="Actor_6.0"><g style="stroke:#000000;stroke-width:0.018"><path d="M192.63,137.30L193.32,137.54L193.24,147.73"/><path d="M193.32,137.54L212.73,136.49"/><path d="M195.64,141.88L195.84,141.83L196.00,141.86L196.23,142.01L196.39,142.20L196.38,142.71L196.23,142.92L195.99,143.10L195.84,143.14L195.60,143.12L195.37,142.97L195.25,142.83"/><path d="M195.68,142.16L196.38,142.43"/><path d="M210.03,141.05L210.07,141.02L210.22,140.97L210.44,141.00L210.67,141.14L210.81,141.32L210.81,141.83L210.66,142.04L210.43,142.21L210.21,142.26L210.06,142.23L209.84,142.09L209.70,141.91"/><path d="M210.04,141.29L210.81,141.56"/></g><g style="stroke:#000000;stroke-width:0.123"><path d="M192.55,147.43L193.24,147.73L212.61,146.43L212.73,136.49L211.95,136.25L192.63,137.30L192.55,147.43"/><path d="M195.25,142.83L195.22,142.78L195.22,142.27L195.38,142.06L195.61,141.88L195.64,141.88L195.68,141.92L195.68,142.44L195.52,142.64L195.25,142.83"/><path d="M209.69,141.63L209.69,141.39L209.85,141.19L210.03,141.05L210.04,141.57L209.89,141.77L209.70,141.91L209.69,141.63"/></g></g><g id="Actor_2.0"><g style="stroke:#000000;stroke-width:0.018"><path d="M92.10,158.08L92.16,158.40"/><path d="M92.20,158.54L92.21,158.47L92.19,158.19L92.15,157.77L92.17,157.12L92.92,156.99L92.93,157.03L92.96,157.02L92.97,157.11L93.00,157.11L97.06,156.40L97.12,156.80L97.15,157.13L97.14,157.24"/><path d="M92.23,158.58L92.21,158.48L92.32,158.33L92.15,157.77"/><path d="M92.21,158.48L92.21,158.47"/><path d="M92.17,157.12L92.05,156.90L91.98,156.61L92.01,156.24"/><path d="M91.97,157.16L91.97,157.15L92.04,157.63"/><path d="M91.97,157.16L91.97,157.16"/><path d="M91.97,157.15L91.93,156.74L91.91,156.46L91.92,156.40"/><path d="M92.15,157.77L92.09,157.30"/><path d="M91.92,156.39L91.96,156.52L92.02,156.84L92.09,157.29"/><path d="M92.32,158.33L93.07,158.20L92.93,157.03"/><path d="M93.07,158.31L93.07,158.20"/><path d="M92.96,157.02L92.90,156.64"/><path d="M92.90,156.64L92.94,156.78L93.00,157.11L93.05,157.52L93.08,157.85L93.08,157.96"/><path d="M92.92,156.99L92.80,156.31"/><path d="M92.97,157.11L93.02,157.47L93.07,157.96"/><path d="M97.20,156.41L97.06,156.40L97.00,156.06L96.96,155.92"/></g><g style="stroke:#000000;stroke-width:0.123"><path d="M92.10,158.03L92.16,158.40L92.20,158.54L92.23,158.58L92.31,158.65L93.06,158.52L93.07,158.31L93.09,158.30L93.09,158.17L93.07,157.96L97.14,157.24L97.26,157.06L97.27,156.98L97.24,156.73L97.20,156.41L97.15,156.16L97.12,156.05L96.96,155.92L92.90,156.64L92.84,156.38L92.81,156.31L92.80,156.31L92.76,156.11L92.01,156.24L91.93,156.34L91.91,156.45L91.93,156.74L91.97,157.16L92.04,157.63L92.10,158.03"/></g></g><g id="Actor_2.1"><g style="stroke:#000000;stroke-width:0.018"><path d="M90.49,130.53L90.51,130.40L90.52,130.08L90.52,129.64L90.60,128.99L90.49,128.78L90.44,128.52L90.50,128.20"/><path d="M90.58,130.67L90.51,130.56"/><path d="M90.51,130.56L90.51,130.42L90.64,130.23L90.52,129.64"/><path d="M90.52,129.64L90.49,129.16"/><path d="M90.38,128.43L90.37,128.49L90.36,128.81L90.36,129.24L90.38,129.73"/><path d="M90.42,130.16L90.45,130.43"/><path d="M90.64,130.23L91.40,130.18L91.36,129.00L91.39,129.00L91.37,128.77L91.38,128.82L91.41,129.13L91.43,129.54L91.43,129.89L91.42,130.00L91.42,129.88L91.41,129.45L91.39,129.13L91.41,129.13L95.54,128.88L95.56,129.28L95.56,129.64L95.53,129.79"/><path d="M90.51,130.42L90.51,130.40"/><path d="M90.60,128.99L91.36,128.94L91.36,129.00"/><path d="M90.36,129.25L90.36,129.24"/><path d="M90.39,128.36L90.42,128.45L90.46,128.73L90.49,129.16"/><path d="M90.36,129.25L90.36,129.25"/><path d="M91.42,130.00L91.42,130.05"/><path d="M91.40,130.18L91.37,130.38"/><path d="M91.39,129.00L91.39,129.13"/><path d="M91.36,128.94L91.29,128.41"/><path d="M91.36,128.72L91.37,128.77"/><path d="M95.67,128.93L95.54,128.88L95.50,128.57L95.47,128.47"/></g><g style="stroke:#000000;stroke-width:0.123"><path d="M90.46,130.45L90.49,130.53L90.58,130.67L91.34,130.63L91.37,130.38L91.39,130.38L91.41,130.20L91.42,130.05L95.53,129.79L95.67,129.63L95.69,129.52L95.69,129.25L95.67,128.93L95.65,128.69L95.62,128.62L95.47,128.47L91.36,128.72L91.35,128.64L91.32,128.42L91.29,128.41L91.26,128.15L90.50,128.20L90.40,128.32L90.39,128.36L90.37,128.47L90.36,128.81L90.36,129.25L90.38,129.73L90.42,130.21L90.45,130.43L90.46,130.45"/></g></g><g id="Actor_2.2"><g style="stroke:#000000;stroke-width:0.018"><path d="M89.33,91.24L89.37,91.46L89.40,91.48L89.42,91.29L89.42,91.31L89.55,91.05L89.43,90.44L89.44,90.92L89.42,91.30"/><path d="M89.49,91.67L89.43,91.51L89.42,91.31"/><path d="M89.29,90.37L89.29,90.37L89.31,90.85"/><path d="M89.29,90.37L89.29,89.91L89.30,89.53L89.30,89.49"/><path d="M89.43,90.45L89.42,89.97"/><path d="M89.29,90.38L89.29,90.38"/><path d="M89.55,91.05L90.32,91.05L90.29,89.78L89.52,89.79L89.43,90.44"/><path d="M89.52,89.79L89.42,89.62L89.37,89.40L89.44,89.15"/><path d="M89.32,89.34L89.36,89.36L89.39,89.58L89.42,89.97"/><path d="M90.28,91.40L90.32,91.05"/><path d="M94.50,91.01L94.52,90.81L94.53,90.42L94.51,90.02L90.35,90.06L90.36,90.46L90.36,90.85L90.34,91.05L90.35,90.76L90.34,90.31L90.33,90.06L90.35,90.06L90.32,89.79L90.31,89.78L90.32,89.88L90.30,89.88"/><path d="M90.33,90.06L90.32,89.88"/><path d="M90.29,89.78L90.24,89.40"/><path d="M90.31,89.75L90.31,89.78"/><path d="M94.64,90.10L94.51,90.02L94.48,89.75L94.44,89.72"/></g><g style="stroke:#000000;stroke-width:0.123"><path d="M94.44,89.72L90.31,89.75L90.29,89.56L90.26,89.40L90.24,89.40L90.20,89.14L89.44,89.15L89.32,89.34L89.30,89.52L89.29,89.91L89.29,90.38L89.31,90.85L89.34,91.29L89.37,91.46L89.49,91.67L90.26,91.66L90.28,91.40L90.32,91.36L90.34,91.13L90.34,91.05L94.50,91.01L94.63,90.86L94.65,90.71L94.66,90.42L94.64,90.10L94.62,89.89L94.44,89.72"/></g></g><g id="Actor_2.3"><g style="stroke:#000000;stroke-width:0.018"><path d="M88.70,52.09L88.63,51.87L88.63,51.61L88.76,51.30L88.65,50.67L88.75,50.01L88.64,49.87L88.60,49.71L88.67,49.52"/><path d="M88.51,50.93L88.51,50.92L88.52,51.39"/><path d="M88.55,51.75L88.58,51.91L88.61,51.86L88.63,51.60L88.65,51.17L88.65,50.67"/><path d="M88.51,50.92L88.51,50.43L88.53,49.97"/><path d="M88.51,50.93L88.51,50.93"/><path d="M88.76,51.29L89.54,51.33L89.52,50.04L88.75,50.01"/><path d="M88.63,51.61L88.63,51.60L88.63,51.60"/><path d="M88.65,50.68L88.64,50.20L88.61,49.84L88.58,49.69L88.55,49.74"/><path d="M93.75,51.67L93.78,51.40L93.79,50.99L93.77,50.60L89.57,50.41L89.59,50.80L89.58,51.22L89.56,51.48L89.55,51.49L89.57,51.06L89.56,50.60L89.56,50.40L89.57,50.41L89.55,50.18"/><path d="M89.49,51.88L89.54,51.33"/><path d="M89.55,51.49L89.55,51.51"/><path d="M89.52,50.18L89.55,50.18L89.55,50.18"/><path d="M89.48,49.80L89.52,50.04"/><path d="M89.55,50.18L89.56,50.40"/><path d="M93.91,50.70L93.77,50.60L93.74,50.37"/></g><g style="stroke:#000000;stroke-width:0.123"><path d="M88.61,51.97L88.70,52.09L89.47,52.12L89.49,51.88L89.50,51.88L89.53,51.77L89.55,51.51L93.71,51.69L93.75,51.67L93.89,51.52L93.91,51.33L93.92,51.01L93.91,50.70L93.89,50.53L93.74,50.37L89.55,50.18L89.53,49.90L89.49,49.80L89.48,49.80L89.44,49.55L88.67,49.52L88.55,49.74L88.53,49.99L88.51,50.43L88.51,50.93L88.52,51.39L88.55,51.79L88.58,51.91L88.60,51.95L88.61,51.97"/></g></g><g id="Actor_4.0"><g style="stroke:#000000;stroke-width:0.018"><path d="M170.01,71.42L170.06,71.84L170.17,72.17L170.32,72.31L170.49,72.25L170.64,72.00L170.75,71.60L170.78,71.13L170.73,70.70L170.62,70.38L170.46,70.24L170.29,70.30L170.14,70.56L170.04,70.95"/><path d="M170.73,70.70L170.73,70.69L170.93,71.18L170.75,71.61L170.69,71.97L170.70,72.27L170.44,72.31L170.31,72.34L170.25,72.37"/><path d="M170.70,72.27L171.53,72.29L171.66,71.99"/><path d="M170.15,71.71L170.25,71.96L170.39,72.04L170.53,71.90L170.64,71.60L170.67,71.21L170.64,70.84L170.54,70.58L170.39,70.51L170.25,70.65L170.15,70.95L170.11,71.34L170.15,71.71"/><path d="M170.11,71.34L170.30,71.33L170.34,71.65L170.44,71.82L170.57,71.79L170.58,71.75"/><path d="M170.64,70.86L170.57,70.74L170.44,70.77L170.34,70.99L170.30,71.33L170.66,71.34"/><path d="M170.06,71.84L170.06,71.85"/><path d="M170.73,70.69L170.70,70.18"/><path d="M170.13,70.59L170.13,70.61"/><path d="M170.54,70.58L170.54,70.58"/><path d="M170.93,71.18L171.76,71.20L171.75,71.64"/><path d="M171.54,70.21L171.74,70.72L171.76,71.20"/><path d="M171.77,71.06L171.78,71.16"/></g><g style="stroke:#000000;stroke-width:0.123"><path d="M170.17,72.17L170.25,72.37L171.08,72.39L171.27,72.36L171.43,72.33L171.53,72.29L171.65,72.02L171.66,71.99L171.75,71.63L171.78,71.16L171.74,70.72L171.63,70.41L171.54,70.21L170.70,70.18L170.52,70.21L170.36,70.25L170.26,70.29L170.14,70.56L170.13,70.59L170.04,70.95L170.01,71.42L170.06,71.85L170.17,72.17"/></g></g><g id="Actor_4.1"><g style="stroke:#000000;stroke-width:0.018"><path d="M169.87,55.04L169.91,55.46L170.02,55.77L170.18,55.89L170.35,55.80L170.50,55.52L170.60,55.10L170.63,54.63L170.59,54.20L170.48,53.89L170.32,53.78L170.15,53.87L170.00,54.15L169.90,54.57"/><path d="M169.91,55.46L169.91,55.47"/><path d="M169.97,54.95L170.00,55.31L170.10,55.55L170.24,55.60L170.39,55.44L170.42,55.35L170.29,55.39L170.19,55.24L170.15,54.93L169.97,54.95L170.00,54.55L170.11,54.23L170.25,54.07L170.39,54.12L170.49,54.35L170.53,54.73L170.49,55.12L170.42,55.35"/><path d="M170.59,54.20L170.59,54.19L170.78,54.66L170.60,55.12L170.55,55.48L170.55,55.80L170.29,55.86L170.16,55.92L170.11,55.97"/><path d="M170.55,55.80L171.39,55.84L171.52,55.53"/><path d="M170.59,54.19L170.56,53.70"/><path d="M170.50,54.40L170.42,54.28L170.30,54.34L170.19,54.57L170.15,54.93L170.51,54.94"/><path d="M169.99,54.19L169.99,54.19"/><path d="M171.60,55.17L171.62,54.71L170.78,54.66"/><path d="M171.62,54.71L171.60,54.24L171.39,53.74"/><path d="M171.64,54.68L171.64,54.68"/><path d="M171.61,55.15L171.61,55.15"/></g><g style="stroke:#000000;stroke-width:0.123"><path d="M171.61,55.15L171.64,54.68L171.60,54.24L171.48,53.94L171.39,53.74L170.56,53.70L170.37,53.75L170.21,53.81L170.12,53.88L170.00,54.15L169.99,54.19L169.90,54.57L169.87,55.04L169.91,55.47L170.02,55.77L170.11,55.97L170.94,56.01L171.12,55.97L171.29,55.91L171.39,55.84L171.50,55.57L171.52,55.53L171.61,55.15"/></g></g><g id="Actor_.0"><g style="stroke:#000000;stroke-width:0.018"><path d="M131.53,75.66L131.47,74.00"/><path d="M131.51,70.00L131.51,68.94L131.52,73.18L131.46,70.55"/><path d="M131.52,73.18L131.53,73.98L134.71,73.22L136.61,72.89L136.67,76.36L137.01,78.43L137.12,80.44L137.40,81.45L137.46,82.45L137.73,82.95L137.85,83.95L138.12,84.46L138.30,85.45L139.37,88.49L139.77,88.99L140.23,90.52L140.98,91.54L141.38,92.57L141.73,93.09L142.14,93.61L142.83,94.13L143.46,95.18L144.23,95.71L144.94,96.77L145.65,97.31L146.66,98.38L150.02,100.58L151.35,101.69L152.63,102.26L153.23,102.27L154.59,103.40L155.42,103.41L157.56,104.55L158.79,104.58L159.41,105.14L160.26,105.15L160.79,105.71L162.27,105.74L163.12,106.30L163.97,106.32L164.83,106.88L166.45,106.90L167.54,107.46L168.85,107.47L169.71,108.04L172.02,108.05L173.02,108.60L175.11,108.61L175.88,109.17L180.52,109.15"/><path d="M131.48,71.06L131.33,60.45L131.49,62.90L131.51,68.94"/><path d="M131.50,66.82L131.50,65.76"/><path d="M131.33,60.45L131.28,60.00"/><path d="M131.28,57.27L131.27,56.61"/><path d="M131.25,46.05L131.24,42.59L131.50,42.37"/><path d="M132.46,127.80L132.24,117.73L132.24,120.72"/><path d="M132.24,117.73L131.86,99.23"/><path d="M132.95,118.08L132.23,113.62L135.95,114.47L144.39,115.58L151.86,116.21L160.15,116.64L166.96,116.85L174.84,116.93L187.42,116.83L199.78,116.59L199.89,127.45"/><path d="M132.20,115.93L132.23,113.62"/><path d="M132.13,113.59L132.18,113.60"/><path d="M131.89,100.70L131.95,103.64"/><path d="M131.78,94.68L131.72,90.43"/><path d="M132.99,41.42L131.53,42.37L133.05,41.36L132.95,41.45"/><path d="M131.53,42.37L131.65,42.08"/><path d="M133.67,153.79L133.92,154.93L134.53,160.95L133.61,153.49"/><path d="M133.06,148.87L133.42,149.19L133.91,148.99L134.29,149.30L135.97,150.21L136.31,149.97L138.68,150.91L139.25,150.70L140.02,150.97L137.27,149.95L135.97,149.24L135.55,149.55L136.31,149.97"/><path d="M133.63,148.84L133.51,148.77L133.63,148.84"/><path d="M133.65,148.85L133.91,148.99"/><path d="M133.11,149.30L133.11,148.48L133.51,148.77"/><path d="M133.42,148.72L134.03,148.60L135.55,149.55"/><path d="M132.95,144.12L133.06,148.40"/><path d="M132.67,132.98L132.67,132.04"/><path d="M133.05,41.36L134.71,40.45L133.78,40.93"/><path d="M149.08,164.51L149.56,164.32L147.19,163.75L147.71,163.45L146.48,163.03L146.12,163.33L145.96,163.33L144.64,162.89L144.13,163.09L143.04,162.72L142.14,162.77L141.23,162.33L140.13,162.39L139.26,161.96L137.17,161.90L136.28,161.42L135.35,161.36L134.53,160.95L134.53,161.41"/><path d="M134.71,40.45L135.96,39.76L135.96,39.34"/><path d="M135.28,162.22L135.28,161.78L135.53,162.26"/><path d="M137.04,161.83L134.90,161.47L137.19,162.41L137.87,162.53L137.56,162.57L138.56,162.93"/><path d="M134.90,161.47L134.82,161.46"/><path d="M135.30,161.79L135.40,161.85"/><path d="M135.33,161.81L136.17,162.27"/><path d="M135.28,161.78L135.23,161.74"/><path d="M137.56,162.57L135.82,162.27"/><path d="M136.66,162.38L137.49,162.74"/><path d="M136.15,161.93L136.73,161.99"/><path d="M135.81,161.63L136.85,162.03L137.30,161.90"/><path d="M140.13,85.91L140.47,86.41L140.20,86.42L140.07,85.41L139.73,84.85L139.67,84.40L139.38,83.79L139.28,82.89L139.06,82.89L138.94,81.37L138.66,80.87L138.54,79.87L138.27,79.37L138.21,77.85L137.94,77.36L137.88,75.84L137.66,75.33L137.54,72.82L136.67,72.87L136.34,70.37L136.31,52.05L136.13,39.70L135.96,39.76"/><path d="M137.04,61.48L136.76,55.49L137.03,59.05L137.05,67.22L137.26,68.76L137.26,68.25"/><path d="M136.76,55.49L136.79,42.42L136.80,44.68"/><path d="M136.79,42.42L136.79,39.56L136.13,39.70"/><path d="M136.73,39.07L136.79,39.54L138.40,39.17L138.40,41.76L138.62,45.91L138.63,55.72L138.85,57.79L138.87,61.01"/><path d="M136.40,39.64L136.40,39.16"/><path d="M136.35,39.65L136.34,39.21"/><path d="M137.43,161.91L139.11,162.62L138.32,162.66L137.16,162.07L138.05,162.19"/><path d="M138.16,162.58L137.87,162.53"/><path d="M137.16,162.07L136.85,162.03"/><path d="M137.12,80.44L137.46,82.96"/><path d="M137.01,83.00L137.01,78.94"/><path d="M137.32,70.26L137.26,69.77L137.33,72.30L137.54,72.82L139.57,72.68L139.85,74.21L139.85,73.76L140.34,75.74L140.40,77.77L140.68,78.27L140.68,78.79L140.96,79.29L140.96,78.78L141.30,80.30L142.14,81.81L142.34,81.81L142.56,81.30L142.84,81.81L142.90,82.31L143.24,82.81"/><path d="M137.26,69.77L137.26,68.94L137.26,69.77"/><path d="M137.26,68.76L137.26,68.94"/><path d="M137.04,62.58L137.04,61.52"/><path d="M138.66,162.43L139.76,162.57"/><path d="M138.53,162.64L139.59,163.06"/><path d="M138.34,161.95L139.26,162.44L140.01,162.58"/><path d="M138.47,150.43L139.25,150.20L142.91,151.46L142.28,151.70L140.02,150.97"/><path d="M138.30,85.45L138.91,85.43"/><path d="M138.63,84.93L139.74,84.90"/><path d="M138.85,60.88L139.07,63.46L139.08,67.01L139.29,68.60L139.29,70.14L139.57,70.63L139.57,72.68"/><path d="M138.82,57.27L138.85,57.79"/><path d="M138.89,43.81L138.90,49.50L139.12,54.67L139.12,53.03L139.34,55.72L139.34,61.38L139.56,63.96L139.56,66.01L139.13,59.31L138.68,49.49"/><path d="M138.63,54.97L138.63,54.09"/><path d="M138.40,41.76L138.40,45.38"/><path d="M138.40,42.42L138.40,42.23"/><path d="M139.12,53.03L139.11,43.82L138.89,38.63"/><path d="M138.61,38.66L138.61,39.14L138.40,39.17"/><path d="M138.89,39.15L138.61,39.14"/><path d="M139.73,162.55L139.90,162.64L139.50,162.66L140.31,163.09L141.20,163.05L140.12,162.63L141.87,162.64"/><path d="M139.90,162.64L140.12,162.63"/><path d="M139.50,162.66L139.11,162.62"/><path d="M139.77,88.99L139.49,88.48L139.45,88.03"/><path d="M139.98,87.45L140.81,87.43L140.94,87.94L141.97,89.47L142.03,89.98L143.49,92.04L143.83,92.04L144.47,93.08L144.82,93.08L145.53,94.13L145.89,94.13L146.60,95.19L147.18,95.72L147.54,95.73L148.56,96.80L148.92,96.80L150.54,97.89L151.28,98.44L151.80,98.98L152.17,98.99L152.85,99.54L153.45,99.54L154.13,100.10L154.43,100.10L155.03,100.65L155.92,101.20L156.63,101.23L157.46,101.78L158.38,101.80L159.22,102.35L159.84,102.36L160.41,102.88L161.08,102.94L161.92,103.50L163.09,103.51L163.85,104.07L164.70,104.08L165.55,104.64L166.41,104.65L167.17,105.21L168.80,105.22L169.44,105.79L171.74,105.80L172.51,106.35L174.05,106.36L175.66,106.92L176.23,107.49L172.25,107.49"/><path d="M139.80,84.90L141.33,84.88"/><path d="M139.46,83.88L140.16,83.88"/><path d="M139.40,83.89L139.12,83.90"/><path d="M140.96,79.80L139.37,79.85"/><path d="M139.85,74.21L139.85,74.72L140.06,75.24L140.13,76.76L140.34,76.76"/><path d="M140.34,75.74L140.34,74.71L139.85,72.67"/><path d="M140.06,72.68L139.57,69.09"/><path d="M139.57,70.63L139.35,69.09"/><path d="M140.62,76.75L140.55,75.23L140.31,74.31L140.28,72.68L140.06,71.65L139.78,69.10L139.78,67.56L139.56,66.01L139.57,68.58L139.13,63.43"/><path d="M139.78,69.10L139.57,68.58"/><path d="M139.08,66.00L139.08,66.20"/><path d="M139.12,53.13L139.12,54.09"/><path d="M141.26,49.85L141.26,50.14L141.05,46.52L141.04,38.77L138.95,39.10"/><path d="M139.11,39.11L141.53,39.26L141.48,50.15"/><path d="M140.13,162.39L140.46,162.49"/><path d="M140.78,162.59L142.14,163.09L141.47,163.06L141.70,163.19"/><path d="M141.04,162.69L140.28,162.62"/><path d="M142.21,87.41L140.88,87.43L140.56,86.97L140.47,86.41L140.82,86.92L145.11,86.86L144.54,86.87"/><path d="M140.84,85.40L145.48,85.32"/><path d="M140.29,84.38L142.32,84.36"/><path d="M141.92,82.32L141.35,82.33L140.81,81.84"/><path d="M140.74,80.31L140.47,80.83L140.19,80.84"/><path d="M141.57,80.29L141.85,81.31L140.74,81.34"/><path d="M140.68,78.79L140.40,78.28"/><path d="M140.96,78.78L140.83,77.27L141.11,77.77L141.11,78.28L141.38,78.27L141.45,79.29L141.66,79.80L142.24,79.83"/><path d="M141.23,79.79L140.96,79.29L140.41,79.31"/><path d="M140.13,76.76L140.07,76.26"/><path d="M140.83,77.27L140.83,76.24L140.59,76.25"/><path d="M141.41,76.78L140.83,76.24"/><path d="M140.83,76.44L140.83,76.79"/><path d="M140.34,74.71L140.31,74.31"/><path d="M140.06,75.24L140.06,73.70"/><path d="M141.21,48.79L141.06,46.67"/><path d="M142.14,162.77L142.91,163.10L144.11,163.10L143.31,163.26L144.40,163.20"/><path d="M142.14,163.09L142.43,163.11L143.27,163.50L144.13,163.39L143.69,163.24"/><path d="M141.76,163.19L141.78,163.20"/><path d="M141.20,163.05L141.47,163.06"/><path d="M142.06,151.21L142.81,150.93L145.84,151.81L144.94,152.02L142.91,151.46"/><path d="M142.07,93.61L141.73,93.09"/><path d="M142.81,83.32L141.49,83.35"/><path d="M141.70,82.83L143.03,82.81L144.50,84.31L144.00,84.32L143.93,83.81L142.88,83.83"/><path d="M141.08,81.83L141.85,81.82"/><path d="M141.35,82.33L141.08,82.35"/><path d="M141.51,80.80L141.30,80.81"/><path d="M141.73,79.79L142.00,80.29L142.06,80.76L142.28,80.80L142.56,81.30L143.14,81.33"/><path d="M141.38,78.27L141.75,78.30"/><path d="M142.25,75.30L142.08,74.30L142.07,73.28L141.86,72.76L141.86,71.23L141.65,69.69L141.64,67.65L141.43,65.59L141.43,62.58L141.21,60.46L141.27,51.97L141.27,52.85"/><path d="M141.86,69.70L141.86,65.09"/><path d="M142.35,70.71L142.14,69.69L142.35,71.22L142.35,69.69L142.14,67.66L141.98,60.45L141.76,57.85L141.75,38.76L142.23,39.24L141.87,39.18L142.22,40.13L142.58,39.69"/><path d="M141.70,62.50L141.70,57.88"/><path d="M141.42,59.95L141.48,54.78"/><path d="M141.27,51.97L141.26,50.14"/><path d="M141.87,39.18L141.53,39.26L141.53,38.75"/><path d="M141.32,39.25L141.26,38.78"/><path d="M144.23,163.79L143.79,163.59L142.96,163.68"/><path d="M142.91,163.10L143.31,163.26"/><path d="M142.54,163.09L142.58,163.09"/><path d="M142.40,163.10L142.43,163.11"/><path d="M143.05,87.40L144.33,87.39"/><path d="M144.76,86.36L142.36,86.39"/><path d="M146.22,85.82L146.33,85.82L145.17,84.85L142.45,84.86L142.60,84.85"/><path d="M144.00,84.32L142.66,84.34"/><path d="M142.69,82.31L143.03,82.81L143.09,83.32L143.59,83.31L144.26,83.81L143.74,82.81L143.46,82.82L143.20,82.34L142.90,82.31"/><path d="M142.75,82.81L142.47,82.31L142.41,81.80"/><path d="M143.18,82.31L144.06,82.35"/><path d="M142.28,80.80L143.44,80.84"/><path d="M142.88,79.84L143.46,79.86L143.52,80.36L144.63,82.37L144.85,82.37L145.11,82.73L145.24,83.25L144.98,82.87L145.19,82.87"/><path d="M143.12,78.35L143.25,79.85"/><path d="M143.12,78.86L142.91,78.35L142.63,76.83L142.63,77.85L142.91,78.35L142.91,78.86L143.20,79.36L143.46,79.35L143.80,80.86"/><path d="M142.63,76.83L142.37,76.36L142.35,75.31L142.57,76.33L142.35,75.82"/><path d="M149.25,84.82L148.92,84.84L148.64,84.33L148.07,84.34L147.50,83.32L147.16,83.34L146.87,82.83L146.59,82.84L145.75,81.32L145.47,81.32L145.41,80.82L144.57,79.31L144.57,78.80L144.36,78.80L144.03,77.42L144.23,80.36L143.95,79.34L143.67,78.84L143.61,78.35L143.33,77.85L143.33,77.33L143.12,76.82L142.84,74.79L142.84,73.77L142.56,72.76L142.56,74.80"/><path d="M142.35,75.31L142.14,74.79"/><path d="M142.56,72.76L142.56,72.25L142.35,71.22"/><path d="M142.22,40.13L142.22,50.49L142.37,54.09L142.38,57.25L142.59,59.84L142.60,62.41L142.81,65.50L142.81,68.58L143.52,75.24L143.80,76.77L144.03,77.42"/><path d="M144.13,163.39L145.32,163.83L145.88,163.65"/><path d="M143.52,163.47L143.79,163.59"/><path d="M144.11,163.10L144.85,163.37L145.46,163.18L144.89,163.35"/><path d="M143.83,92.04L144.56,92.04"/><path d="M143.49,92.04L143.27,92.04"/><path d="M145.83,86.34L147.17,86.32L146.68,85.81L143.63,85.86"/><path d="M143.74,82.81L144.98,82.87"/><path d="M144.02,83.32L144.96,83.35"/><path d="M143.88,79.36L144.23,80.87"/><path d="M143.67,80.37L143.46,79.86"/><path d="M143.95,79.85L144.26,80.38"/><path d="M149.49,85.86L149.20,85.87L150.06,86.37L148.85,85.36L148.35,85.37L148.14,85.25L147.15,84.37L146.81,83.87L146.25,83.37L145.97,82.86L145.41,82.36L144.26,80.41L144.67,81.67L144.78,81.88L145.06,81.87"/><path d="M143.46,79.35L143.39,78.85"/><path d="M143.67,79.35L143.61,78.35L143.39,77.83"/><path d="M143.33,77.85L143.33,78.36"/><path d="M144.01,77.28L144.37,77.31L144.46,77.86"/><path d="M143.53,75.30L143.74,77.29L143.52,74.73"/><path d="M144.92,163.66L144.48,163.79"/><path d="M144.85,163.37L146.47,163.83L146.96,163.65L146.48,163.54L147.18,163.25"/><path d="M145.32,163.83L145.84,163.93"/><path d="M144.94,152.02L147.05,152.57L147.76,152.24L153.15,153.41L154.12,153.05L154.42,153.09L153.15,152.88L154.12,152.52L156.68,152.95L160.17,153.37L159.11,153.28"/><path d="M144.82,93.08L145.61,93.08"/><path d="M144.85,84.81L144.50,84.31"/><path d="M146.54,85.30L147.04,85.81L147.20,85.81L146.12,84.81L145.86,84.81L145.32,84.34L144.57,84.31"/><path d="M145.28,84.31L144.74,83.83L144.29,83.81"/><path d="M144.74,83.83L145.60,83.87L145.88,84.35L145.32,84.32"/><path d="M145.24,83.25L145.32,83.85"/><path d="M144.69,82.86L144.42,82.37L144.36,81.87"/><path d="M144.63,82.37L144.42,82.37"/><path d="M144.50,80.86L144.26,80.41"/><path d="M144.72,78.81L144.57,78.80"/><path d="M146.48,163.54L145.46,163.18"/><path d="M145.84,151.81L147.76,152.24"/><path d="M145.60,83.87L145.82,83.87L145.33,83.38"/><path d="M146.38,84.38L145.41,82.87L145.34,82.37"/><path d="M145.88,84.35L146.23,84.37L146.29,84.84L146.15,84.83"/><path d="M146.29,84.84L146.86,84.86L147.12,85.33L146.69,85.31"/><path d="M146.25,83.37L146.59,83.86"/><path d="M145.97,82.86L145.41,82.87"/><path d="M145.75,81.32L146.04,81.33"/><path d="M146.85,164.24L147.39,164.08"/><path d="M146.50,163.84L147.60,164.12L147.06,164.22"/><path d="M147.19,163.75L146.96,163.65"/><path d="M146.83,152.07L148.11,151.81L152.27,152.76L153.15,152.88"/><path d="M147.31,88.91L150.55,88.88"/><path d="M147.82,86.83L146.46,86.85"/><path d="M147.60,87.35L149.25,87.33L147.76,86.32L147.17,86.32"/><path d="M147.04,85.81L146.38,85.82L146.61,85.82"/><path d="M147.35,85.35L147.51,85.51L147.35,85.35L147.12,85.33"/><path d="M146.86,84.86L147.26,85.34"/><path d="M146.59,84.38L147.44,85.36"/><path d="M147.41,85.81L147.61,85.81L148.17,86.14L147.41,85.81"/><path d="M147.24,85.81L147.40,85.81"/><path d="M146.87,82.83L146.94,82.83"/><path d="M148.50,163.47L148.30,163.63L148.93,163.78L149.36,163.45L148.72,163.29L148.50,163.47"/><path d="M147.60,164.12L147.67,164.13"/><path d="M148.30,163.63L147.71,163.45"/><path d="M148.74,86.31L148.94,86.31L149.62,86.82L148.55,86.32L148.74,86.31L148.51,85.91L148.28,85.87L148.50,86.27L148.22,86.17"/><path d="M148.28,85.87L147.66,85.84"/><path d="M148.29,85.37L148.00,85.38L147.72,84.87L148.28,84.86"/><path d="M148.35,85.37L148.94,86.31"/><path d="M147.51,85.51L147.83,85.84"/><path d="M148.13,85.86L147.86,85.38L147.49,85.37"/><path d="M148.43,83.84L148.71,84.35L148.64,84.33"/><path d="M148.07,83.83L147.79,83.83"/><path d="M149.33,164.43L149.68,164.31"/><path d="M149.36,163.45L150.00,163.60L149.57,163.94L148.93,163.78L152.33,164.51L151.68,164.68"/><path d="M149.25,87.33L149.83,87.32L150.63,87.84L150.12,87.84"/><path d="M148.52,86.30L148.55,86.32"/><path d="M148.61,86.82L149.47,86.81L150.84,87.32L150.27,86.87L150.41,86.88L151.29,87.49L150.86,87.33L151.09,87.42"/><path d="M148.97,86.31L149.45,86.69"/><path d="M148.50,85.88L149.20,85.87L149.84,86.37"/><path d="M149.27,84.82L149.77,85.34L150.12,85.33"/><path d="M150.58,164.51L149.62,164.30"/><path d="M150.00,163.60L151.04,163.92L151.36,163.46L153.32,163.92L153.03,163.88L153.30,163.94L152.66,164.29L156.10,164.74L155.28,165.01"/><path d="M150.29,87.11L149.62,86.82"/><path d="M151.85,87.37L152.06,87.38L150.63,86.36L150.06,86.37L151.20,87.39L151.85,87.37L153.12,88.29L152.18,87.85L152.48,87.88"/><path d="M150.27,86.87L149.72,86.86"/><path d="M150.06,85.33L150.63,85.84L151.20,85.83L151.49,86.35L152.33,86.33"/><path d="M151.39,164.33L150.85,164.55"/><path d="M151.07,163.93L152.66,164.29"/><path d="M151.28,100.61L152.55,100.63L152.28,100.62"/><path d="M151.43,88.03L151.79,88.35L153.10,88.35L152.01,87.83L151.21,87.83L151.43,88.03"/><path d="M151.79,88.35L150.70,88.36"/><path d="M150.63,87.84L151.21,87.83"/><path d="M151.29,87.49L152.15,87.84"/><path d="M156.15,89.09L155.69,88.88L156.53,89.23L156.02,88.91L156.99,88.90L158.61,89.42L156.12,88.38L155.02,88.39L152.86,87.37L152.12,87.38L151.20,86.87"/><path d="M151.20,85.83L151.26,85.83"/><path d="M152.33,164.51L153.19,164.68L152.65,164.89"/><path d="M153.03,163.88L152.01,163.61"/><path d="M153.53,101.73L152.33,101.71"/><path d="M153.12,88.29L153.50,88.35L152.64,87.89"/><path d="M152.64,86.33L153.15,86.84L153.28,86.84"/><path d="M153.30,164.70L153.19,164.68"/><path d="M153.32,163.92L153.80,164.04L153.30,163.94"/><path d="M153.10,88.35L154.33,88.86L153.75,88.35L153.50,88.35"/><path d="M152.88,88.34L154.86,89.38L154.78,89.39"/><path d="M153.75,88.35L154.58,88.86L154.33,88.86"/><path d="M152.86,87.37L154.81,88.39L154.01,88.40L154.58,88.86"/><path d="M153.72,86.83L154.52,87.35L154.85,87.35"/><path d="M154.86,163.82L154.35,164.19L156.04,164.41L156.99,164.10L154.86,163.82"/><path d="M153.80,164.04L154.35,164.19"/><path d="M155.40,153.27L154.44,153.10L157.28,153.57L162.23,154.09L163.01,153.66L168.65,154.04L178.40,154.18L181.25,154.10L182.17,153.59L178.41,153.63L179.07,154.13"/><path d="M154.21,102.30L155.43,102.86L156.65,102.89"/><path d="M155.58,89.38L153.98,88.86"/><path d="M154.86,89.38L156.18,89.38L156.69,89.90L155.45,89.90"/><path d="M155.74,88.94L155.51,88.86L154.60,88.86"/><path d="M154.21,88.62L153.84,88.38"/><path d="M153.95,88.39L153.96,88.40"/><path d="M155.69,88.88L155.94,88.89L154.81,88.39"/><path d="M155.65,88.86L155.51,88.86"/><path d="M155.90,87.33L156.46,87.86"/><path d="M161.10,164.97L156.04,164.41"/><path d="M156.10,164.74L156.49,164.79"/><path d="M156.12,163.95L155.94,163.92"/><path d="M156.64,104.52L157.56,104.55"/><path d="M156.87,102.89L158.02,102.90L159.47,103.47"/><path d="M156.69,89.90L156.91,89.90L156.18,89.38L156.91,89.37L156.53,89.23"/><path d="M156.91,89.90L157.50,89.90L158.05,90.38L159.95,90.42L160.76,90.95L161.50,90.95L162.84,91.48L163.92,91.48L162.89,90.95L162.55,90.95L163.80,91.48"/><path d="M156.12,88.97L158.23,89.90L157.50,89.90"/><path d="M156.02,88.91L155.94,88.89"/><path d="M167.45,164.98L160.21,164.54L156.99,164.10"/><path d="M157.15,89.47L157.05,89.38L157.62,89.39L158.24,89.71L157.96,89.42L157.65,89.40"/><path d="M157.05,89.38L156.99,89.38"/><path d="M156.99,88.90L158.05,88.89L157.51,88.90L157.94,88.89"/><path d="M158.05,88.89L158.31,88.89L159.33,89.41L160.43,89.40L163.21,90.45L162.48,89.93L161.67,89.93"/><path d="M158.90,165.12L158.31,165.03"/><path d="M159.11,90.34L159.27,90.42L158.23,89.90"/><path d="M159.95,90.11L159.58,89.93L159.78,89.93L159.97,90.12L159.27,89.90L158.32,89.90"/><path d="M158.62,89.90L158.24,89.71"/><path d="M158.61,89.42L160.88,90.23L158.61,89.42"/><path d="M158.31,88.89L158.82,88.89"/><path d="M160.20,164.93L159.72,165.20"/><path d="M159.11,164.42L159.61,163.92L162.60,164.28L161.56,164.65"/><path d="M159.97,90.12L161.84,90.72L160.90,90.42"/><path d="M159.78,89.93L160.01,89.93"/><path d="M159.27,89.90L159.57,89.92"/><path d="M159.41,88.36L160.48,88.88"/><path d="M160.17,153.37L161.17,153.50"/><path d="M160.56,153.42L162.24,153.55L163.17,153.14L171.09,153.58L178.41,153.63"/><path d="M160.88,90.23L161.47,90.43L162.36,90.45L163.07,90.91L163.67,90.96L164.69,91.47L163.92,91.48"/><path d="M161.03,90.42L161.47,90.43"/><path d="M162.24,153.55L163.01,153.66"/><path d="M161.50,90.95L162.55,90.95L161.84,90.72"/><path d="M161.62,90.44L162.62,90.95"/><path d="M162.60,164.28L169.02,164.66L170.13,164.19L166.22,164.00L165.69,164.50"/><path d="M163.12,105.75L165.28,105.77"/><path d="M163.21,90.95L162.89,90.95"/><path d="M164.69,91.47L164.88,91.47L163.89,90.97L164.84,90.97L166.80,91.50L163.21,90.45L164.97,90.45L167.59,91.44"/><path d="M163.07,90.91L163.13,90.95"/><path d="M163.69,90.97L163.89,90.97"/><path d="M163.51,89.39L164.03,89.92L165.00,89.92"/><path d="M164.41,165.15L164.43,165.15"/><path d="M165.25,165.23L165.86,164.90"/><path d="M165.28,106.32L167.76,106.35"/><path d="M164.41,91.48L165.14,92.01L166.71,92.01L167.97,92.54L168.93,92.54L165.27,91.48L166.01,91.48L167.59,92.19L166.92,92.01"/><path d="M164.88,91.47L165.27,91.48"/><path d="M166.53,91.49L166.03,91.49"/><path d="M166.31,89.92L166.38,89.96"/><path d="M166.80,91.50L167.67,92.01L167.06,92.01"/><path d="M167.67,92.01L168.52,92.01L166.91,91.50"/><path d="M168.32,138.25L169.62,138.28L169.76,128.99L169.22,127.33L169.75,129.54L169.98,129.53L169.98,129.01L169.76,128.99L170.08,129.01L170.30,128.46L171.07,128.46L170.97,128.98L170.62,128.99L170.62,129.31L171.93,133.07L171.93,133.61L172.15,134.15L170.58,138.04L170.45,138.09L170.70,138.20L170.33,138.15L170.42,138.19L170.29,138.24L171.84,138.26L187.34,137.42L171.06,138.25L170.93,138.85L170.61,138.27L170.42,138.19"/><path d="M169.98,92.54L170.93,93.08L172.84,93.07L170.94,92.54L168.93,92.54L167.59,92.19"/><path d="M168.50,91.50L170.48,92.03L169.01,91.50L168.08,91.50"/><path d="M170.84,92.54L169.08,92.02L168.52,92.01"/><path d="M168.28,90.44L169.23,90.97L169.77,90.97"/><path d="M172.37,164.22L170.13,164.19L175.75,164.29L175.27,164.72L169.07,164.66"/><path d="M169.62,138.28L169.72,138.32L169.94,137.76L169.63,137.73"/><path d="M169.68,92.03L169.80,92.09L169.08,92.02"/><path d="M170.28,138.15L170.77,138.12L170.36,138.05L187.01,137.21L186.90,137.17L186.90,136.63L185.43,132.96L185.43,132.43L185.22,132.44L185.01,131.91L184.80,131.92L184.58,132.47L184.49,132.47L184.47,132.97L170.58,138.04L170.68,137.88L170.58,138.04L179.26,137.57L178.20,137.63"/><path d="M170.45,138.09L170.27,138.12"/><path d="M173.26,133.01L173.04,133.02L173.04,133.56L172.72,133.53L172.82,133.57L172.81,134.11L170.68,137.88L173.26,133.55L173.26,133.01L184.14,133.03L173.04,133.56L173.03,134.10L172.59,134.13L170.58,138.04L171.92,133.64L172.15,133.60L172.15,134.15L172.59,134.13L172.50,133.54L172.72,133.53L172.72,133.03L171.93,133.07"/><path d="M170.58,138.04L170.36,137.50L170.27,138.11"/><path d="M170.36,138.05L170.36,137.50L170.23,137.51L170.20,137.65L169.94,137.76L169.94,138.31L170.29,138.19"/><path d="M170.26,138.00L170.20,137.65"/><path d="M170.16,138.84L169.94,138.86L169.94,138.31L170.16,138.84L170.71,138.86L170.48,138.84L170.39,138.29L170.07,138.25L170.20,129.52L169.98,129.53L170.19,129.01L169.98,129.01"/><path d="M170.71,138.86L173.10,138.93"/><path d="M169.94,138.31L169.72,138.32L169.94,138.86"/><path d="M170.48,138.88L170.48,138.84"/><path d="M170.36,137.50L170.40,129.51L170.20,129.52"/><path d="M170.23,137.56L170.23,137.86"/><path d="M170.20,137.56L170.24,135.76L170.23,137.51"/><path d="M170.77,137.73L173.03,134.10L173.26,133.55"/><path d="M170.24,135.76L170.25,134.82L170.24,135.76"/><path d="M170.25,134.82L170.33,129.52"/><path d="M172.94,133.52L172.95,133.02L173.04,133.02L170.62,129.31L170.43,129.32L171.93,133.61"/><path d="M170.78,129.56L172.60,132.49L172.38,133.05L172.38,132.50L172.82,132.48L172.82,133.03L172.60,132.49"/><path d="M170.43,129.40L170.40,129.51"/><path d="M172.17,133.64L172.37,134.14L172.37,133.64L172.15,133.60L172.15,133.06L170.65,129.39"/><path d="M170.62,128.99L170.54,129.00L170.62,129.31L184.15,132.49L184.14,133.56L184.36,133.55L170.77,137.98"/><path d="M170.62,129.31L179.26,128.94L178.20,128.99"/><path d="M170.43,129.32L170.43,129.00L170.19,129.01"/><path d="M170.78,129.35L184.80,131.92L184.68,132.96L184.47,132.97L184.57,133.01L184.57,133.46L184.36,133.02L184.14,133.03"/><path d="M170.54,129.00L170.43,129.00"/><path d="M170.44,129.12L170.51,129.00"/><path d="M170.68,129.39L172.82,132.48L173.04,133.02"/><path d="M170.34,92.39L169.80,92.09"/><path d="M174.35,92.56L176.08,92.97L172.37,92.03L170.48,92.03"/><path d="M169.72,92.03L170.36,92.03L171.84,92.73L172.84,93.07L173.62,93.08L174.85,93.61L177.14,93.61L176.45,93.61L175.57,93.33L176.34,93.61"/><path d="M171.13,144.86L171.02,138.94L170.77,138.87"/><path d="M175.85,138.92L174.76,138.89L175.83,139.46L173.10,139.48L172.23,139.43L171.47,138.87L170.93,138.85"/><path d="M171.06,138.25L170.77,138.12L170.96,138.21"/><path d="M178.28,138.79L180.32,138.82L172.36,138.82L171.50,138.23L171.47,138.87"/><path d="M171.43,138.59L171.38,138.28"/><path d="M170.77,138.12L186.90,137.26L186.69,137.18L185.43,132.96L186.74,128.62L186.96,128.61L185.43,132.96L185.22,132.98L185.21,133.51L184.78,133.53L171.84,137.64"/><path d="M170.97,128.98L171.29,129.00L171.07,128.46L172.16,127.39"/><path d="M171.07,128.46L172.90,128.48L172.06,128.47"/><path d="M171.29,129.00L174.48,128.98L176.19,128.51L172.90,128.48L173.58,128.33"/><path d="M171.84,92.81L172.72,93.07"/><path d="M170.94,92.54L171.27,92.54"/><path d="M171.42,92.03L172.46,92.55L171.37,92.54"/><path d="M171.43,90.97L172.16,91.50L173.12,91.50"/><path d="M172.68,154.10L173.38,153.61"/><path d="M172.24,138.88L174.76,138.89"/><path d="M172.59,134.13L172.39,133.64L172.15,133.57"/><path d="M172.15,133.06L172.38,132.50"/><path d="M172.72,133.03L172.95,133.02"/><path d="M172.82,133.57L173.04,133.56"/><path d="M172.28,133.05L172.28,133.55L172.50,133.54"/><path d="M172.53,133.54L172.34,133.55"/><path d="M172.27,92.55L173.62,93.08"/><path d="M173.68,93.08L173.96,93.08L173.08,92.56L172.46,92.55"/><path d="M173.96,136.97L184.57,133.54L184.36,133.55L184.36,133.02L184.25,132.98L184.37,131.94L184.80,131.92"/><path d="M173.15,128.49L173.17,128.48"/><path d="M173.08,92.56L174.42,93.08L174.00,93.08"/><path d="M174.48,128.98L176.48,128.89L178.18,128.48L176.19,128.51"/><path d="M181.62,127.92L182.44,127.92L174.69,127.95L174.17,128.13"/><path d="M174.42,93.08L174.87,93.08L175.57,93.33"/><path d="M174.87,93.08L175.72,93.08L176.41,93.61"/><path d="M174.57,92.56L177.14,92.56L178.56,93.09L177.18,93.09L177.90,93.61L177.14,93.61L178.04,93.61L179.54,94.15L180.32,94.15L179.64,94.15L178.20,93.67"/><path d="M174.57,92.03L175.51,92.03L174.78,91.50"/><path d="M176.93,164.66L175.34,164.66"/><path d="M175.90,164.29L176.87,163.75L181.38,163.66L180.20,164.22L175.75,164.29"/><path d="M175.84,139.47L177.14,139.47L176.83,139.47"/><path d="M175.66,106.92L177.57,106.91L178.34,107.47L181.54,107.46L182.30,108.01L186.05,107.98L187.69,108.52L195.63,108.43L198.23,108.96"/><path d="M176.08,92.97L176.48,93.07L176.08,92.97"/><path d="M176.59,93.61L175.72,93.08L177.14,93.09L178.74,93.61L177.90,93.61"/><path d="M175.83,92.03L175.51,92.03"/><path d="M175.56,91.93L175.48,91.90"/><path d="M177.14,139.47L177.82,139.46L176.73,138.88"/><path d="M176.61,139.48L176.17,139.47"/><path d="M176.23,107.49L177.67,107.48"/><path d="M176.11,108.06L178.99,108.04"/><path d="M177.82,139.46L181.78,139.44"/><path d="M177.23,128.71L186.69,128.31L186.74,128.62L185.22,132.44L185.43,132.96"/><path d="M178.18,128.48L182.40,128.40L183.65,127.90L182.62,127.92L184.05,127.34L183.61,127.36"/><path d="M180.45,92.56L179.29,92.56L177.93,92.03"/><path d="M177.14,92.03L177.19,92.03"/><path d="M179.26,139.46L180.32,139.47L181.99,139.98L185.28,139.89L184.30,139.35L180.14,139.38"/><path d="M179.26,137.57L184.56,137.30L180.32,137.56"/><path d="M178.76,128.96L183.46,128.45"/><path d="M179.26,128.94L186.74,128.62"/><path d="M198.35,110.07L199.41,110.05L199.41,110.59L193.14,110.69L190.64,110.17L184.60,110.23L183.94,109.69L180.63,109.72L178.86,109.17"/><path d="M178.74,93.61L179.65,93.62L181.55,94.15L180.32,94.15L182.44,94.15L181.55,94.15L182.40,94.15L182.11,94.15L180.86,93.62L179.65,93.62"/><path d="M178.56,93.09L182.13,93.09L183.49,93.62L180.86,93.62"/><path d="M178.66,93.09L180.76,93.62"/><path d="M180.20,164.22L193.05,163.63L197.73,163.29L197.65,163.60"/><path d="M179.83,153.60L181.37,153.07L191.99,152.68L200.48,152.12L200.48,152.34L201.13,152.29L199.32,161.37L198.78,161.41L200.05,155.03L200.16,154.17L199.96,155.11L200.26,152.73L200.17,152.75L199.16,157.63L198.24,162.87L198.14,162.88L198.00,163.27"/><path d="M180.09,139.37L180.10,139.37"/><path d="M180.32,138.82L182.00,139.33L188.74,139.15L188.33,138.98"/><path d="M180.40,139.39L180.37,139.38"/><path d="M187.36,163.44L187.75,163.42L181.38,163.66"/><path d="M193.33,153.12L195.17,153.03L182.17,153.59"/><path d="M182.40,128.40L187.87,128.17L187.40,128.28L187.39,128.67L187.60,128.73L187.55,136.69L186.90,136.63L187.11,136.62L186.93,132.89L187.02,128.33L186.75,128.31"/><path d="M182.44,127.92L182.62,127.92L182.44,127.92"/><path d="M182.41,108.58L186.15,108.55"/><path d="M182.01,93.62L182.76,93.89L182.12,93.62"/><path d="M186.69,94.68L187.75,94.68L183.56,94.68L182.61,94.15L182.44,94.15L186.69,94.15L185.79,94.15L183.28,93.62"/><path d="M182.76,93.89L183.48,94.15"/><path d="M184.56,93.62L184.64,93.62L183.49,93.62"/><path d="M184.30,139.35L185.29,139.34"/><path d="M184.56,137.30L186.66,137.18L185.22,132.98L185.22,132.44L185.12,132.44L185.11,132.94L185.22,132.98L184.68,132.96L184.78,133.53L184.57,133.51"/><path d="M184.47,132.47L184.15,132.49"/><path d="M183.65,127.90L189.08,127.76L189.19,127.27L190.07,127.21L191.14,127.19L191.37,127.70L190.85,127.72L191.25,128.21L191.58,128.24L191.79,127.72L192.35,127.70L192.35,128.24L192.57,128.23L192.78,128.77L192.99,128.76L192.99,129.31L193.20,129.84L193.16,134.70L192.93,136.40L192.93,137.28"/><path d="M184.05,127.34L184.71,127.32"/><path d="M184.56,94.15L185.26,94.15L186.96,94.68"/><path d="M185.68,93.09L184.85,93.09L183.50,92.57"/><path d="M185.28,139.89L189.00,139.78L189.00,139.24L188.81,139.16L188.04,138.18L188.21,138.20L189.09,138.98"/><path d="M185.62,137.24L186.69,137.18L185.00,133.52L185.00,132.99"/><path d="M184.79,132.46L184.88,132.46L184.90,132.95L185.22,132.98"/><path d="M184.90,132.95L185.11,132.94"/><path d="M184.90,132.45L185.12,132.44"/><path d="M184.68,132.46L184.58,132.47L184.58,131.93"/><path d="M184.56,127.34L186.79,127.27"/><path d="M193.50,93.63L193.29,94.15L193.49,94.15L193.49,94.68L193.39,94.68L193.29,94.15L188.51,94.15L186.00,93.62L184.64,93.62"/><path d="M186.69,163.51L187.75,163.46L186.69,163.50"/><path d="M185.63,127.32L189.20,127.24"/><path d="M193.36,109.58L186.04,109.67"/><path d="M188.51,94.15L190.90,94.65L188.30,94.15L185.79,94.15"/><path d="M186.69,94.15L187.25,94.15L188.40,94.68L188.81,94.68L187.75,94.68L188.75,94.68"/><path d="M187.75,163.46L190.93,163.28L187.75,163.42L189.55,163.33"/><path d="M186.82,139.26L189.00,139.24"/><path d="M186.90,137.17L186.69,136.64L186.69,137.18"/><path d="M187.16,136.82L187.01,137.21L187.75,137.40L186.90,137.26L187.22,137.19L187.22,136.66L187.16,136.82"/><path d="M187.22,137.19L187.33,137.24L186.90,137.26"/><path d="M187.87,137.35L187.87,136.82L187.33,136.70L187.33,137.24L187.98,137.39L187.55,137.41L187.69,137.80L187.34,137.42L187.55,137.41"/><path d="M187.69,137.80L187.92,138.06L188.42,138.19"/><path d="M186.93,132.89L186.90,136.63L186.69,136.64"/><path d="M187.11,136.62L187.22,136.66L187.46,132.91"/><path d="M187.22,136.66L187.17,128.64L187.28,128.64L187.25,132.58"/><path d="M187.39,128.67L187.28,128.64L187.28,128.33L187.66,128.31L187.72,128.77L187.60,128.73"/><path d="M187.17,128.64L187.07,128.65L187.07,128.33L187.28,128.29"/><path d="M191.12,128.65L192.23,128.76L192.03,128.24L191.12,128.65L187.86,128.34L188.04,128.79L187.98,136.82L187.89,136.82L187.88,135.76L187.93,128.76L187.72,128.77"/><path d="M187.07,128.65L186.96,128.61"/><path d="M187.07,128.30L187.03,128.30"/><path d="M187.72,128.33L187.86,128.34"/><path d="M188.01,138.15L187.93,138.07"/><path d="M190.17,138.38L188.85,138.16L187.76,137.40L188.20,137.47L189.07,138.15L191.82,138.53L190.61,137.82"/><path d="M191.04,137.25L187.98,136.85L187.98,137.39L191.99,137.97L191.82,138.53L191.94,138.58L191.39,138.56L191.17,139.12L188.81,139.16"/><path d="M187.98,136.85L192.60,136.37L191.05,136.71"/><path d="M188.20,137.47L189.07,137.61"/><path d="M188.49,128.38L189.18,128.11L188.69,128.03L189.08,127.76"/><path d="M187.93,128.76L191.55,129.21L192.65,129.83L192.65,130.37L191.54,129.72"/><path d="M188.04,128.79L192.65,130.37L193.20,130.39"/><path d="M187.87,128.17L188.52,128.14L188.69,128.03"/><path d="M187.84,128.33L188.17,128.16"/><path d="M187.75,94.68L188.65,94.68L189.39,95.22L194.11,95.22L193.07,95.22"/><path d="M189.38,163.34L189.87,163.32"/><path d="M188.89,139.19L189.32,139.17"/><path d="M189.46,139.16L191.72,139.13L191.28,139.70L189.43,139.76L189.86,139.73"/><path d="M189.43,139.76L189.00,139.78"/><path d="M189.18,128.11L191.25,128.21"/><path d="M189.12,127.76L189.24,127.76L188.85,127.93"/><path d="M190.85,127.72L189.28,127.76"/><path d="M188.81,94.68L189.87,94.68L188.81,94.68"/><path d="M189.87,139.15L190.13,139.12"/><path d="M192.60,136.91L192.60,136.37L192.38,136.92L192.38,137.47L189.87,137.11"/><path d="M190.76,94.68L189.87,94.68L190.93,94.68L190.76,94.68"/><path d="M190.83,94.68L190.79,94.68"/><path d="M198.11,162.88L190.93,163.28"/><path d="M191.17,139.12L191.38,139.10"/><path d="M192.36,138.57L192.15,138.57L192.59,138.57L192.37,138.57L192.15,139.11L191.72,139.13"/><path d="M191.94,138.58L191.72,138.59L191.94,138.58"/><path d="M191.61,129.21L192.44,129.29L192.45,128.75L192.23,128.76"/><path d="M191.58,128.24L191.97,128.24"/><path d="M191.79,127.72L191.37,127.70"/><path d="M191.17,127.19L191.71,127.18"/><path d="M190.93,94.16L193.39,94.68L190.93,94.66"/><path d="M191.99,94.68L192.55,94.68L194.86,95.22L193.51,94.68L193.71,94.68L193.49,94.68"/><path d="M192.62,138.00L192.04,137.98L192.26,137.97L192.38,137.47L192.63,137.49"/><path d="M192.37,138.01L192.16,138.02"/><path d="M191.99,138.57L192.15,138.57"/><path d="M192.38,137.47L192.63,137.47"/><path d="M192.60,136.37L192.93,136.40L192.60,135.82L192.60,136.37"/><path d="M192.60,135.82L192.60,136.26"/><path d="M192.64,131.52L192.65,130.45L192.61,135.76"/><path d="M192.64,131.73L192.63,132.21"/><path d="M192.98,129.85L192.99,129.31L194.30,127.07"/><path d="M192.65,130.37L192.65,130.45"/><path d="M192.65,129.83L192.66,129.28L192.99,129.31"/><path d="M192.78,128.77L192.45,128.75"/><path d="M192.66,129.28L192.44,129.29"/><path d="M192.35,128.24L192.03,128.24"/><path d="M192.55,94.68L192.42,94.68"/><path d="M194.86,95.22L195.18,95.22L194.11,95.22L194.97,95.22L195.64,97.90L196.53,100.06L197.22,102.26L197.91,105.01L199.18,108.93L199.30,108.94L199.41,110.05L199.63,110.04L199.62,110.59L199.41,110.59L199.57,116.59L199.52,121.49L199.92,136.90"/><path d="M193.92,94.68L193.92,94.76L193.71,94.68L193.92,94.68L193.70,94.68L193.63,93.95L193.59,94.15L193.49,94.15"/><path d="M193.51,94.68L193.60,94.68L193.06,94.68"/><path d="M193.70,94.68L194.57,94.67L194.57,95.02L194.42,94.96L194.42,94.26L194.57,94.67L194.58,94.43L194.67,94.67L194.57,94.67"/><path d="M193.92,94.76L194.37,94.94"/><path d="M193.29,94.15L193.29,93.63"/><path d="M193.63,93.95L193.70,93.63"/><path d="M193.59,94.15L193.60,94.22"/><path d="M195.17,153.03L200.17,152.75L200.06,147.28"/><path d="M194.57,95.02L194.66,95.05"/><path d="M194.58,94.43L194.58,94.20"/><path d="M194.42,94.26L194.49,93.63"/><path d="M195.82,96.27L195.70,96.27L195.86,96.80L196.19,96.80L195.86,96.80L199.48,108.90L199.41,108.93L195.18,95.22L195.28,95.21"/><path d="M195.70,96.25L196.17,96.27L196.28,96.80L196.69,96.80L198.51,103.27L200.39,109.38L200.38,109.92L199.70,109.94L200.59,109.92L200.39,109.38L200.60,109.38"/><path d="M195.80,96.26L196.01,96.26"/><path d="M196.17,96.27L196.38,96.27"/><path d="M195.18,95.22L195.39,95.22"/><path d="M198.12,108.94L199.39,108.92L196.76,100.76"/><path d="M200.02,108.18L196.39,96.80L196.60,96.80L198.40,102.88"/><path d="M196.46,96.69L196.49,96.80L196.60,96.80"/><path d="M197.73,163.29L197.66,163.56"/><path d="M197.74,163.52L197.77,163.29"/><path d="M198.24,162.87L198.38,162.86"/><path d="M197.80,163.29L197.90,163.28"/><path d="M198.64,162.17L198.45,162.84"/><path d="M198.55,162.35L198.54,162.70"/><path d="M198.78,161.41L198.68,161.92"/><path d="M199.62,161.27L199.32,161.37L199.20,161.83"/><path d="M198.57,162.23L199.87,155.18"/><path d="M199.41,161.81L199.55,161.28"/><path d="M199.39,108.94L199.39,108.92"/><path d="M199.63,110.04L199.51,108.94L199.43,108.93L199.60,108.92L199.41,108.68L199.27,108.18"/><path d="M198.48,102.88L199.64,106.58L198.51,103.27"/><path d="M200.32,157.12L199.56,161.21L200.47,157.33"/><path d="M199.68,156.62L199.96,155.11"/><path d="M199.66,155.20L199.52,155.91"/><path d="M200.26,152.68L200.47,152.66L200.16,154.17"/><path d="M200.47,152.66L200.48,152.34"/><path d="M200.42,147.25L200.47,151.88L201.34,151.74"/><path d="M200.28,136.88L200.13,129.39L200.19,136.89"/><path d="M200.13,129.39L199.89,116.67L199.98,120.91"/><path d="M199.58,123.03L199.53,120.95L199.52,121.49"/><path d="M199.53,120.95L199.53,120.91"/><path d="M199.87,116.56L199.89,116.67L199.85,115.61L199.87,116.56L199.78,116.59L199.62,110.59L199.80,110.55L199.85,115.61"/><path d="M199.78,113.12L199.71,110.57"/><path d="M199.71,110.55L199.71,110.32L199.80,110.55"/><path d="M199.71,110.32L199.72,110.02L199.62,110.03"/><path d="M200.38,109.92L200.38,109.94"/><path d="M200.47,109.94L200.81,131.50L200.87,125.58L200.71,120.19L200.59,109.92L200.68,109.90L200.60,109.62L200.59,109.90L200.68,109.90"/><path d="M199.70,109.95L199.72,110.02"/><path d="M200.39,109.38L199.60,109.40L199.70,109.94"/><path d="M199.60,109.40L199.60,108.92"/><path d="M201.13,151.82L201.13,152.29L201.34,152.28L200.66,155.57"/><path d="M200.79,155.11L200.83,154.85"/><path d="M200.70,155.18L201.13,152.29"/><path d="M201.25,151.75L201.07,147.21"/><path d="M200.48,152.12L200.47,151.88"/><path d="M201.34,151.67L201.30,147.19L201.19,150.16"/><path d="M200.81,131.50L200.97,136.85"/><path d="M201.18,136.83L201.05,128.98"/><path d="M201.11,131.52L201.11,131.44"/><path d="M200.59,109.90L200.80,109.91"/></g><g style="stroke:#000000;stroke-width:0.123"><path d="M131.27,54.09L131.27,53.03L131.55,86.46L131.72,90.43L132.24,120.72L132.67,132.98L132.68,137.21L133.06,148.87L134.48,161.36L135.23,161.74L135.33,162.28L135.77,162.27L137.49,162.74L139.59,163.06L141.78,163.20L143.29,163.79L144.48,163.79L145.22,164.07L145.84,163.93L146.85,164.24L147.67,164.13L149.08,164.51L149.33,164.43L149.93,164.65L150.58,164.51L152.65,164.89L153.30,164.70L155.87,165.10L156.08,165.09L156.49,164.79L157.58,165.02L160.54,165.27L161.10,164.97L166.82,165.32L167.45,164.98L175.93,165.05L176.93,164.66L180.20,164.60L191.05,164.10L192.62,163.89L197.65,163.60L197.87,163.33L198.30,163.17L198.38,162.86L198.63,162.69L198.68,161.92L199.61,161.79L199.62,161.27L200.53,157.11L200.47,157.30"/><path d="M131.27,53.03L131.26,48.79L131.26,49.85"/><path d="M131.26,48.79L131.19,42.59L131.50,42.37L131.65,42.08L132.31,41.51L133.40,40.95L135.46,39.57L136.40,39.16L138.89,38.63L141.90,38.82L142.58,39.69L142.59,46.42L142.80,50.57L142.74,57.27L142.96,59.88L142.96,62.97L143.18,65.54L143.18,68.11L143.39,69.65L143.39,70.67L143.60,71.70L143.61,73.75L143.81,74.24L143.88,75.27L144.10,75.79L144.10,76.30L144.37,76.80L144.46,77.86L144.72,78.81L144.93,78.82L144.93,79.33L146.94,82.83L147.23,82.84L147.50,83.32L147.80,83.35L148.04,83.79L148.43,83.84L148.71,84.35L149.25,84.82L149.85,84.85L150.12,85.33L150.70,85.34L151.26,85.83L151.85,85.84L152.33,86.33L152.92,86.34L153.28,86.84L154.08,86.85L154.86,87.35L155.90,87.33L156.46,87.86L157.80,87.84L158.60,88.36L159.89,88.37L160.48,88.88L161.46,88.87L162.19,89.40L164.07,89.40L165.00,89.92L166.31,89.92L167.25,90.45L169.05,90.45L169.77,90.97L171.76,90.98L173.12,91.50L174.78,91.50L175.83,92.03L179.10,92.04L180.45,92.56L183.92,92.57L185.80,93.09L189.76,93.10L191.11,93.62L194.58,93.63L194.66,95.05L195.06,95.21L195.39,95.22L195.70,96.25L196.38,96.27L196.46,96.69L196.69,96.80L198.60,103.26L200.60,109.38L200.68,109.90L200.80,109.91L201.18,136.83"/><path d="M131.25,46.67L131.25,46.05"/><path d="M131.54,81.67L131.54,80.61"/><path d="M131.53,78.48L131.53,77.42"/><path d="M188.44,94.68L188.40,94.68"/><path d="M200.47,157.33L200.66,155.57L201.34,152.28L201.38,147.19"/></g></g><g id="Actor_3.0"><g style="stroke:#000000;stroke-width:0.018"><path d="M167.25,56.31L167.47,56.06L167.65,55.58L167.77,54.96L167.80,54.32L167.74,53.71L167.59,53.27L167.40,53.04"/><path d="M166.78,56.32L167.00,56.30L167.22,56.05L167.41,55.57L167.52,54.95L167.55,54.30L167.49,53.70L167.35,53.26L167.15,53.03"/><path d="M167.12,54.14L167.02,54.38L166.97,54.78L167.02,55.16L167.05,55.22L167.03,55.28L166.89,55.33L166.77,55.15L166.73,54.77L166.77,54.37L166.89,54.08L167.04,54.01L167.13,54.17"/><path d="M167.06,55.20L167.05,55.22"/><path d="M167.06,54.39L167.09,54.25"/><path d="M167.01,54.93L167.01,54.94"/><path d="M167.02,54.57L167.02,54.57"/><path d="M167.69,55.58L167.77,55.18"/><path d="M167.84,54.34L167.84,54.34"/></g><g style="stroke:#000000;stroke-width:0.123"><path d="M167.84,54.34L167.81,54.96L167.70,55.55L167.69,55.58L167.51,56.05L167.29,56.30L167.25,56.31L167.02,56.33L166.78,56.32L166.58,56.08L166.44,55.64L166.38,55.04L166.41,54.39L166.52,53.80L166.70,53.31L166.92,53.05L167.15,53.03L167.40,53.04L167.44,53.05L167.64,53.29L167.78,53.72L167.84,54.34"/><path d="M167.06,55.20L167.15,54.98L167.20,54.58L167.15,54.20L167.13,54.17L167.09,54.25L167.02,54.57L167.01,54.94L167.06,55.20"/><path d="M167.81,54.96L167.81,54.96"/></g></g><g id="Actor_3.1"><g style="stroke:#000000;stroke-width:0.018"><path d="M167.40,72.81L167.63,72.60L167.81,72.15L167.92,71.56L167.95,70.92L167.89,70.31L167.75,69.85L167.55,69.58L167.31,69.57L167.50,69.84L167.65,70.30L167.70,70.91L167.68,71.55L167.56,72.14L167.38,72.59L167.16,72.81"/><path d="M167.27,70.68L167.20,70.53L167.05,70.57L166.93,70.85L166.88,71.24L166.93,71.62L167.05,71.82L167.18,71.79L167.22,71.71L167.17,71.63L167.13,71.24L167.17,70.85L167.26,70.66"/><path d="M167.22,71.71L167.23,71.69"/><path d="M167.17,71.40L167.17,71.39"/><path d="M167.25,70.72L167.24,70.74"/><path d="M167.18,71.03L167.18,71.03"/><path d="M167.31,69.57L167.08,69.56"/><path d="M167.85,72.15L167.89,71.90"/><path d="M167.99,70.90L167.99,70.92"/><path d="M167.99,70.94L167.99,70.94"/></g><g style="stroke:#000000;stroke-width:0.123"><path d="M167.99,70.94L167.93,70.32L167.79,69.86L167.59,69.59L167.55,69.58L167.32,69.57L167.08,69.56L166.86,69.78L166.68,70.23L166.56,70.80L166.54,71.45L166.59,72.05L166.73,72.52L166.93,72.79L167.16,72.81L167.40,72.81L167.45,72.80L167.67,72.59L167.85,72.15L167.85,72.11L167.96,71.56L167.99,70.94"/><path d="M167.31,71.52L167.23,71.69L167.22,71.69L167.17,71.40L167.18,71.03L167.25,70.72L167.27,70.68L167.31,70.75L167.35,71.13L167.31,71.52"/></g></g><g><g><path style="stroke:#000000;stroke-width:0.200;stroke-dasharray:2.0 2.0" d="M136.28,154.09L94.63,157.01"/></g></g><g><g><path style="stroke:#000000;stroke-width:0.200;stroke-dasharray:2.0 2.0" d="M135.02,127.65L93.05,129.28"/></g></g><g><g><path style="stroke:#000000;stroke-width:0.200;stroke-dasharray:2.0 2.0" d="M170.89,71.29L139.00,70.39"/></g></g><g><g><path style="stroke:#000000;stroke-width:0.200;stroke-dasharray:2.0 2.0" d="M134.32,90.57L91.99,90.39"/></g></g><g><g><path style="stroke:#000000;stroke-width:0.200;stroke-dasharray:2.0 2.0" d="M167.27,71.19L138.26,70.37"/></g></g><g><g><path style="stroke:#000000;stroke-width:0.200;stroke-dasharray:2.0 2.0" d="M170.75,54.86L138.75,53.32"/></g></g><g><g><path style="stroke:#000000;stroke-width:0.200;stroke-dasharray:2.0 2.0" d="M167.11,54.68L138.01,53.28"/></g></g><g><g><path style="stroke:#000000;stroke-width:0.200;stroke-dasharray:2.0 2.0" d="M133.88,52.98L91.24,50.92"/></g></g><g><g><path style="stroke:#000000;stroke-width:0.200;stroke-dasharray:2.0 2.0" d="M178.98,133.20L202.72,141.91"/></g></g><g id="PMI4.0"><g><path style="stroke:#000000;stroke-width:0.250" d="M183.58,71.56L172.57,71.75"/></g><g><path style="fill:#000000" d="M172.55,70.76L172.58,72.76L170.57,71.79z"/></g><g><path style="fill:#ffffff" d="M183.57,74.49L206.14,74.49L206.14,68.28L183.57,68.28z"/><path style="stroke:#000000;stroke-width:0.250;stroke-opacity:0.98" d="M183.57,74.49L206.14,74.49L206.14,68.28L183.57,68.28z"/><text xml:space="preserve" fill="#000000" stroke-width="0" x="184.34" y="72.74" font-size="3.78" opacity="1.00" font-family="MS Shell Dlg">8059000097</text></g></g><g id="PMI3.0"><g><path style="stroke:#000000;stroke-width:0.250" d="M167.40,77.49L167.33,73.82"/></g><g><path style="fill:#000000" d="M168.33,73.81L166.33,73.85L167.29,71.83z"/></g><g><path style="fill:#ffffff" d="M156.17,83.70L178.74,83.70L178.74,77.50L156.17,77.50z"/><path style="stroke:#000000;stroke-width:0.250;stroke-opacity:0.98" d="M156.17,83.70L178.74,83.70L178.74,77.50L156.17,77.50z"/><text xml:space="preserve" fill="#000000" stroke-width="0" x="156.95" y="81.96" font-size="3.78" opacity="1.00" font-family="MS Shell Dlg">8060001117</text></g></g><g id="PMI2.0"><g><path style="stroke:#000000;stroke-width:0.250" d="M90.13,57.77L89.73,52.78"/></g><g><path style="fill:#000000" d="M90.74,52.72L88.75,52.88L89.59,50.80z"/></g><g><path style="fill:#ffffff" d="M79.11,63.99L101.67,63.99L101.67,57.78L79.11,57.78z"/><path style="stroke:#000000;stroke-width:0.250;stroke-opacity:0.98" d="M79.11,63.99L101.67,63.99L101.67,57.78L79.11,57.78z"/><text xml:space="preserve" fill="#000000" stroke-width="0" x="79.88" y="62.24" font-size="3.78" opacity="1.00" font-family="MS Shell Dlg">8057008077</text></g></g><g id="PMI.0"><g><path style="stroke:#000000;stroke-width:0.250" d="M164.62,171.22L164.58,165.51"/></g><g><path style="fill:#000000" d="M165.58,165.49L163.58,165.50L164.57,163.49z"/></g><g><path style="fill:#ffffff" d="M153.36,177.41L175.92,177.41L175.92,171.20L153.36,171.20z"/><path style="stroke:#000000;stroke-width:0.250;stroke-opacity:0.98" d="M153.36,177.41L175.92,177.41L175.92,171.20L153.36,171.20z"/><text xml:space="preserve" fill="#000000" stroke-width="0" x="154.13" y="175.67" font-size="3.78" opacity="1.00" font-family="MS Shell Dlg">3901204032</text></g></g><g id="PMI6.0"><g><path style="stroke:#000000;stroke-width:0.250" d="M223.01,141.15L214.36,141.24"/></g><g><path style="fill:#000000" d="M214.34,140.23L214.36,142.23L212.35,141.25z"/></g><g><path style="fill:#ffffff" d="M223.00,144.13L244.70,144.13L244.70,137.92L223.00,137.92z"/><path style="stroke:#000000;stroke-width:0.250;stroke-opacity:0.98" d="M223.00,144.13L244.70,144.13L244.70,137.92L223.00,137.92z"/><text xml:space="preserve" fill="#000000" stroke-width="0" x="223.77" y="142.38" font-size="3.78" opacity="1.00" font-family="MS Shell Dlg">003326-031</text></g></g><g/><g id="paperID" visibility="hidden" opacity="0.00" transform="scale(0.000100)"><path style="stroke:#000000;stroke-width:0.500;fill:#e6e6e6;fill-rule:evenodd" d="M-2000.00,-2000.00L2297.00,-2000.00L2297.00,2210.00L-2000.00,2210.00zM0.00,0.00L297.00,0.00L297.00,210.00L0.00,210.00z"/><path style="fill:#000000;fill-opacity:0.118" d="M3.00,210.00L297.00,210.00L297.00,3.00L300.00,3.00L300.00,213.00L3.00,213.00z"/></g><g id="hotspot.0" onmouseover="ShowHotSpot(evt,'0')" onmouseout="HideHotSpot(evt,'0')" onmousemove="ShowToolTip(evt,'0',&quot;&quot;)" opacity="0"><path style="fill:#00ff00;fill-rule:evenodd" d="M90.02,50.03L93.65,50.24L93.91,50.50L93.89,51.38L90.21,51.52L90.56,52.30L90.25,52.58L90.29,55.90L90.46,57.53L101.59,57.66L101.85,57.92L101.74,63.85L79.02,63.85L79.02,57.76L89.79,57.53L89.52,52.84L88.93,52.63L88.97,52.07L88.71,51.88L88.68,49.47L89.26,49.47zM90.32,89.42L94.66,89.69L94.57,90.74L90.49,91.00L90.27,91.30L89.44,91.34L89.45,89.16L90.03,89.15zM95.71,128.59L95.68,129.47L94.82,129.65L91.50,129.90L91.29,130.49L90.54,130.43L90.46,128.09L91.29,128.12L91.52,128.42L95.44,128.33zM97.23,156.25L97.14,157.04L93.30,157.82L93.01,158.31L92.27,158.42L91.98,156.23L92.25,155.96L92.87,156.24L94.05,156.27L96.97,155.78z"/></g><g id="hotspot.1" onmouseover="ShowHotSpot(evt,'1')" onmouseout="HideHotSpot(evt,'1')" onmousemove="ShowToolTip(evt,'1',&quot;&quot;)" opacity="0"><path style="fill:#00ff00;fill-rule:evenodd" d="M167.85,54.09L167.54,55.92L166.58,55.92L166.56,53.39L166.77,53.08L167.61,53.07zM167.89,69.97L167.85,72.80L168.17,73.33L167.82,73.84L167.78,77.25L178.66,77.38L178.91,77.63L178.81,83.57L156.08,83.57L156.08,77.48L167.11,77.25L167.09,73.83L166.51,73.63L166.56,73.14L166.83,72.53L166.50,71.02L166.84,69.53L167.60,69.46z"/></g><g id="hotspot.2" onmouseover="ShowHotSpot(evt,'2')" onmouseout="HideHotSpot(evt,'2')" onmousemove="ShowToolTip(evt,'2',&quot;&quot;)" opacity="0"><path style="fill:#00ff00;fill-rule:evenodd" d="M169.90,54.71L170.16,53.67L171.47,53.59L171.39,55.66L170.10,55.72zM206.31,68.42L206.21,74.35L183.48,74.35L183.24,71.77L174.96,71.78L172.67,72.06L172.45,72.36L170.16,72.05L170.16,70.31L171.48,70.21L171.99,70.81L172.45,70.76L172.66,71.34L183.24,71.10L183.48,68.26L206.05,68.16z"/></g><g id="hotspot.3" onmouseover="ShowHotSpot(evt,'3')" onmouseout="HideHotSpot(evt,'3')" onmousemove="ShowToolTip(evt,'3',&quot;&quot;)" opacity="0"><path style="fill:#00ff00;fill-rule:evenodd" d="M244.97,138.06L244.87,143.99L222.91,143.99L222.67,141.41L214.39,141.43L214.22,141.99L212.94,141.39L212.42,146.11L212.12,146.32L196.72,147.31L192.69,147.32L192.63,137.33L193.39,137.06L207.73,136.30L212.69,136.29L212.94,140.76L214.22,140.16L214.39,140.72L222.67,140.74L222.91,137.90L244.71,137.80zM195.51,142.54L195.19,142.56L195.26,141.98L195.56,141.94z"/></g></g></svg>
