<?xml version="1.0" encoding="UTF-8" standalone="no"?>
<svg xmlns="http://www.w3.org/2000/svg" xmlns:xlink="http://www.w3.org/1999/xlink" width="297.000mm" height="210.000mm" viewBox="0.000000 0.000000 297.000000 210.000000" stroke-linejoin="round" stroke-linecap="round" fill="none" fill-rule="evenodd"><desc>Composer Export</desc><script type="text/ecmascript"><![CDATA[
if(typeof(top) != "undefined")
{
	top.ShowPaper = ShowPaper;
}
function ShowHotSpot(evt,hotspotid)
{
	var svgDocument = evt.target.ownerDocument;
	var strId = "hotspot."+hotspotid;
	var hotspot = svgDocument.getElementById(strId);
	if(hotspot)
		hotspot.setAttribute("opacity",".5");
}
function HideHotSpot(evt,hotspotid)
{
	var svgDocument = evt.target.ownerDocument;
	var strId = "hotspot."+hotspotid;
	var hotspot = svgDocument.getElementById(strId);
	if(hotspot)
		hotspot.setAttribute("opacity","0");

	var toolTip = svgDocument.getElementById('ToolTip');
	if(toolTip)
		toolTip.setAttribute("visibility","hidden");
}
function ShowToolTip(evt,hotspotid,strTooltip)
{
	if(strTooltip=="")
	return;

	// change text
	var svgDocument = evt.target.ownerDocument;
	var tiptext = svgDocument.getElementById('ToolTipText');
	if( !tiptext )
	return;
	tiptext.firstChild.nodeValue = " " + strTooltip + "  " ;

	// show tooltip before, else some refresh issue

	var toolTip = svgDocument.getElementById('ToolTip');
	if(!toolTip)
	return;

	toolTip.setAttribute("visibility","visible");
	toolTip.setAttribute("opacity",".95");

	// move tooltip
	// get viewbox

	var root = svgDocument.documentElement;
	var vbox = (root.getAttribute("viewBox")).split(' ');
	var x0 = parseFloat(vbox[0]);
	var y0 = parseFloat(vbox[1]);
	var vboxW = parseFloat(vbox[2]);
	var vboxH = parseFloat(vbox[3]);

	// get default width of svg

	var strW = root.getAttribute("width");
	var svgW = parseFloat(strW);
	if(strW.indexOf('mm') != -1)
	svgW *= 3.779;

	var strH = root.getAttribute("height");
	var svgH = parseFloat(strH);
	if(strH.indexOf('mm') != -1)
	svgH *= 3.779;  	// 96 dpi  -> 96/25.4 = 3.779

	// update the viewbox / width / height if svg is embedded in html with zoom fit all
	var realx0 = x0;
	var realy0 = y0;
	var realvboxW = vboxW;
	var realvboxH = vboxH;
	var realsvgW = svgW;
	var realsvgH = svgH;

	if ((typeof(top) == "undefined") || (typeof(top.svgctl1) != "undefined")) // embedded in html
	{
		// get window size in pxl

		svgW = window.innerWidth;
		svgH = window.innerHeight;

		// calculate real viewbox

		realsvgW = svgW;
		realsvgH = svgH;
		if((svgW / svgH) > (vboxW / vboxH))
		{
			realvboxW = (vboxH * svgW) / svgH;
			realvboxH = vboxH;
			realx0 = x0 - (realvboxW - vboxW)/2 ;
		}
		else
		{
			realvboxH = (vboxW * svgH) / svgW;
			realvboxW = vboxW;
			realy0 = y0 - (realvboxH - vboxH)/2 ;
		}
	}

	// get user zoom/pan

	var newScale = root.currentScale;
	var translation = root.currentTranslate;

	// transform pxl to user unit

	var xPos = (((evt.clientX+10- translation.x)/newScale) * realvboxW)/realsvgW  + realx0 ;
	var yPos = (((evt.clientY+5- translation.y)/newScale) * realvboxH)/ realsvgH  + realy0 ;
	var scaleForWidth = ( (1 / newScale) * realvboxH) / realsvgH;

	// move tooltip

	toolTip.setAttribute("transform", "translate(" + xPos + "," + yPos + ")" );

	// resize tooltip

	var fontsize = 12;
	tiptext.setAttribute("font-size",fontsize*scaleForWidth);
	tiptext.setAttribute("y", fontsize*scaleForWidth);
	var tipBG = svgDocument.getElementById('ToolTipBG');
	var outline = tiptext.getBBox();
	if(tipBG)
	{
		tipBG.setAttribute("stroke-width", 1*scaleForWidth);
		tipBG.setAttribute("width", Number(outline.width) );
		tipBG.setAttribute("height", Number(outline.height) + fontsize*.5*scaleForWidth );
	}
	var ToolTipShadow = svgDocument.getElementById('ToolTipShadow');
	if(ToolTipShadow)
	{
		ToolTipShadow.setAttribute("width", Number(outline.width) );
		ToolTipShadow.setAttribute("height", Number(outline.height) + fontsize*.5*scaleForWidth );
		ToolTipShadow.setAttribute("x", 3*scaleForWidth);
		ToolTipShadow.setAttribute("y", 3*scaleForWidth);
	}
}
function ShowPaper()
{
  var svgDocument = getDocument();
  var paper = svgDocument.getElementById("paperID");
  if(paper)
  {
    paper.setAttribute("transform","scale(1)");
    paper.setAttribute("opacity","1");
    paper.setAttribute("visibility","visible");
  }
  var svg = svgDocument.getRootElement();
  if(svg)
  {
    svg.setAttribute("width","307.000mm");
    svg.setAttribute("height","220.000mm");
    svg.setAttribute("viewBox","-5.000000 -5.000000 307.000000 220.000000");
  }
}
]]></script><defs/><g><g id="Actor_.0"><g style="stroke:#000000;stroke-width:0.123"><path d="M211.15,108.63L193.79,103.11L193.48,102.77L193.30,102.12L193.51,98.13L211.11,103.51L210.84,107.49L210.92,108.06L211.16,108.50L211.13,108.95L213.84,109.66L215.57,110.00L217.80,110.32L221.70,110.65L225.43,110.68L228.80,110.42L230.26,110.19L231.54,109.89L232.61,109.54L233.45,109.13L234.06,108.69L234.42,108.21L234.52,107.84L234.59,106.99L234.42,107.49L234.00,107.95L233.34,108.39L232.43,108.78L231.33,109.11L229.98,109.39L226.82,109.76L223.30,109.84L219.84,109.67L217.47,109.41L215.19,109.06L213.08,108.61L211.20,108.09L211.16,108.51"/><path d="M193.51,98.13L193.81,97.70L211.41,103.06L211.11,103.51"/><path d="M211.19,108.09L212.00,107.90L211.77,107.89L211.64,107.81L211.46,107.40L211.75,102.98L211.41,103.06"/><path d="M233.51,105.38L234.05,105.83L234.37,106.22L234.55,106.61L234.59,106.99"/></g></g><g id="Actor_31.0"><g style="stroke:#000000;stroke-width:0.123"><path d="M85.60,97.54L84.38,97.76L92.44,100.97L92.44,101.40L92.52,101.57L84.79,98.47L84.38,98.17L92.44,101.40L94.40,101.04"/><path d="M84.38,98.17L84.38,97.76"/><path d="M92.52,101.57L94.72,101.16"/><path d="M92.44,100.97L93.67,100.75"/></g></g><g id="Actor_20.0"><g style="stroke:#000000;stroke-width:0.123"><path d="M124.19,127.59L124.29,128.39L124.47,129.17L124.65,129.74L124.93,130.42L125.16,130.88L125.55,131.51L125.88,131.94L126.29,132.37L126.78,132.75L127.11,132.94L127.60,133.12L127.94,133.17L128.26,133.17L128.73,133.05L129.02,132.91L129.41,132.59L129.76,132.15L129.95,131.80L130.12,131.41L130.31,130.76L130.39,130.29L130.43,129.79L130.44,129.27L130.39,128.47L130.31,127.93L130.20,127.39L129.96,126.61L129.77,126.10L129.55,125.62L129.17,124.96L128.74,124.38L128.43,124.05L128.11,123.76L127.78,123.53L127.45,123.35L126.95,123.18L126.50,123.13L126.14,123.18L125.83,123.28L125.41,123.53L125.04,123.90L124.82,124.20L124.55,124.74L124.40,125.15L124.29,125.59L124.19,126.31L124.16,127.07L124.19,127.59"/><path d="M124.47,126.08L124.37,126.46L124.31,126.87L124.29,127.31L124.30,127.76L124.43,128.67L124.54,129.13L124.77,129.78L124.95,130.19L125.16,130.57L125.40,130.92L125.65,131.23L125.92,131.50L126.20,131.72L126.48,131.88L126.77,132.00L127.05,132.06L127.33,132.06L127.60,132.00L127.86,131.89L128.09,131.73L128.31,131.51L128.50,131.24L128.66,130.93L128.79,130.58L128.88,130.19L128.94,129.78L128.97,129.34L128.96,128.89L128.92,128.42L128.84,127.96L128.72,127.50L128.57,127.05L128.40,126.63L128.20,126.23L127.97,125.86L127.72,125.53L127.46,125.24L127.18,125.00L126.90,124.81L126.46,124.62L126.18,124.57L125.90,124.58L125.50,124.69L125.15,124.92L124.84,125.27L124.59,125.73L124.47,126.08L124.67,125.46L124.83,125.12L125.02,124.83L125.23,124.58L125.60,124.31L125.87,124.20L126.15,124.14L126.50,124.15L126.90,124.25L127.21,124.39L127.51,124.59L127.95,124.98L128.22,125.30L128.47,125.66L128.70,126.05L128.92,126.49L129.17,127.19L129.31,127.67L129.44,128.40L129.49,128.89L129.49,129.60L129.44,130.05L129.31,130.68L129.17,131.06L128.92,131.55L128.60,131.93L128.35,132.12L127.95,132.30L127.67,132.35L127.22,132.32L126.92,132.23L126.46,131.98L126.03,131.63L125.65,131.23"/><path d="M125.36,129.87L125.19,129.52L124.99,128.94L124.83,128.13L124.80,127.73L124.81,127.34L124.85,126.96L124.92,126.62L125.03,126.30L125.17,126.03L125.34,125.80L125.53,125.61L125.75,125.48L125.98,125.41L126.22,125.39L126.47,125.43L126.86,125.59L127.11,125.77L127.35,126.00L127.58,126.27L127.78,126.58L128.05,127.11L128.20,127.49L128.31,127.89L128.42,128.51L128.45,128.91L128.44,129.31L128.37,129.86L128.21,130.35L128.07,130.62L127.91,130.84L127.60,131.10L127.37,131.20L127.13,131.24L126.76,131.20L126.50,131.10L126.25,130.95L126.01,130.74L125.77,130.49L125.56,130.20L125.36,129.87"/><path d="M128.34,129.95L128.18,130.34L128.03,130.58L127.85,130.77L127.65,130.91L127.43,130.99L127.20,131.02L126.96,131.00L126.72,130.92L126.47,130.78L126.24,130.60L126.01,130.37L125.80,130.09L125.61,129.78L125.44,129.44L125.19,128.70L125.07,127.92L125.06,127.54L125.11,127.00L125.18,126.67L125.29,126.37L125.42,126.11L125.59,125.90L125.78,125.73L125.98,125.61L126.21,125.55L126.44,125.54L126.69,125.59L126.93,125.70L127.17,125.85L127.41,126.07"/><path d="M126.27,125.54L126.06,125.66L125.78,125.93L125.63,126.17L125.46,126.60L125.36,127.11L125.34,127.48L125.37,128.05L125.47,128.63L125.58,129.01L125.80,129.55L126.08,130.03L126.29,130.30L126.52,130.53L126.87,130.79L127.24,130.93L127.56,130.95"/><path d="M126.03,125.68L125.86,125.91L125.72,126.18L125.62,126.49L125.54,126.83L125.49,127.39L125.50,127.78L125.63,128.57L125.88,129.33L126.05,129.68L126.24,130.01L126.45,130.29L126.68,130.54L126.92,130.74L127.28,130.94"/><path d="M126.39,125.54L126.19,125.68L125.94,125.99L125.74,126.39L125.65,126.71L125.58,127.24L125.57,127.61L125.63,128.19L125.71,128.58L125.88,129.14L126.04,129.49L126.22,129.82L126.53,130.24L126.75,130.47L127.11,130.73L127.35,130.84L127.67,130.90"/><path d="M126.01,124.16L126.38,124.08L126.67,124.05L127.12,124.11L127.42,124.23L127.73,124.40L128.17,124.75L128.45,125.05L128.70,125.37L129.08,125.98L129.28,126.41L129.46,126.86L129.67,127.58L129.81,128.31L129.85,128.80L129.86,129.28L129.84,129.74L129.77,130.18L129.61,130.78L129.38,131.30L129.18,131.60L128.96,131.84L128.59,132.10L128.32,132.21L127.95,132.30"/><path d="M126.14,123.18L132.25,121.77L132.73,121.72L133.23,121.80L133.73,122.01L134.23,122.34L134.71,122.78L135.15,123.32L135.55,123.95L135.89,124.65L136.09,125.15L136.32,125.92L136.47,126.72L136.55,127.52L136.55,128.29L136.46,129.03L136.30,129.70L136.06,130.29L135.75,130.80L135.38,131.19L135.11,131.39L134.66,131.59L128.57,133.11"/><path d="M134.86,122.95L135.36,123.57L135.61,123.97L135.85,124.40L136.05,124.86L136.23,125.34L136.43,126.10L136.53,126.61L136.59,127.12L136.61,127.87L136.55,128.59L136.36,129.48"/></g></g><g id="Actor_.1"><g style="stroke:#000000;stroke-width:0.123"><path d="M211.41,103.06L193.81,97.70L193.56,97.39L211.17,102.74L211.45,98.73L211.62,98.09L211.92,97.52L211.90,97.94L212.30,98.05L212.11,98.42L212.04,98.76L211.75,102.98L211.41,103.06L211.17,102.74"/><path d="M193.56,97.39L193.85,93.20L194.24,92.36L194.53,92.03L194.86,91.82L212.09,88.33L229.88,93.15L229.70,93.19"/><path d="M211.93,97.51L211.96,97.07L213.86,97.56L215.55,97.90L219.23,98.42L223.09,98.69L226.83,98.69L229.76,98.47L231.23,98.26L232.52,97.99L234.25,97.40L234.92,97.00L235.34,96.57L235.50,96.11L235.40,95.61L234.96,95.04L234.32,94.56L233.21,93.98L231.47,93.33L230.45,93.03L229.88,93.15"/><path d="M211.96,97.07L212.77,96.89"/><path d="M230.41,99.25L228.48,99.47L226.31,99.58L223.98,99.59L221.58,99.49L219.17,99.29L216.83,98.99L214.63,98.60L212.30,98.05"/><path d="M217.57,94.65L218.51,94.83L219.75,94.89L220.75,94.77L221.07,94.64L221.17,94.51L221.03,94.29L220.68,94.11L219.31,93.83L218.43,93.79L217.64,93.84L217.08,93.97L216.86,94.13L216.85,94.26L216.97,94.39L217.57,94.65"/><path d="M220.28,94.86L218.90,94.65L217.66,94.68"/><path d="M232.21,96.66L232.28,97.00L232.07,97.27L231.63,97.52L231.00,97.71L229.11,97.95L226.52,97.91L224.22,97.61L223.22,97.39L222.20,97.06L221.58,96.76L221.20,96.45L221.06,96.15L221.18,95.85"/><path d="M235.50,96.11L235.42,97.08L235.19,97.54L234.54,98.07L233.55,98.53"/></g></g><g id="Actor_.2"><g style="stroke:#000000;stroke-width:0.123"><path d="M219.73,99.35L219.19,106.56L218.02,107.76L212.91,108.05L211.89,106.97L211.49,106.70"/><path d="M211.89,106.97L212.43,99.30L212.02,99.04"/><path d="M212.91,108.05L212.26,107.61L211.48,106.78"/><path d="M212.53,98.11L212.07,98.58"/><path d="M212.43,99.30L213.38,98.33"/></g></g><g id="Actor_.3"><g style="stroke:#000000;stroke-width:0.123"><path d="M218.87,107.45L219.22,107.73L219.90,108.09L220.79,108.43L221.57,108.67L222.73,108.94L223.69,109.11L224.68,109.24L226.04,109.36L227.06,109.41L228.37,109.41L229.59,109.33L230.43,109.23L231.17,109.09L231.99,108.86L232.47,108.65L232.96,108.31L232.43,108.61L231.88,108.81L231.22,108.98L230.18,109.15L228.99,109.25L228.02,109.28L225.98,109.22L224.95,109.13L223.60,108.96L222.33,108.72L221.45,108.51L220.66,108.28L219.77,107.93L219.08,107.56L218.61,107.18L218.87,107.45L218.78,107.35"/><path d="M218.60,107.16L218.61,107.18"/><path d="M221.88,110.66L223.16,111.02L224.79,111.29L226.51,111.41L228.14,111.37L229.30,111.22L229.86,111.08L230.31,110.91L230.55,110.78L230.93,110.48L231.08,110.25L231.11,110.00"/><path d="M222.06,95.76L221.63,95.46L221.51,95.31L221.44,95.17L221.44,95.03L221.51,94.89L221.81,94.64L222.34,94.42L223.08,94.26L223.98,94.15L225.28,94.09L226.41,94.12L227.70,94.23L228.91,94.40L229.90,94.61L230.92,94.93L231.53,95.21L231.92,95.50L232.03,95.65L232.07,95.80L232.02,96.01L231.73,96.27L231.36,96.43L230.87,96.58L230.26,96.69L229.56,96.77L227.96,96.83L226.22,96.74L224.54,96.51L223.10,96.17L222.52,95.97L222.06,95.76"/><path d="M231.92,95.50L232.17,95.78L232.26,96.01L232.20,96.22L231.91,96.49L231.54,96.66L230.85,96.85L229.47,97.03L228.09,97.07L226.92,97.03L225.44,96.90L224.07,96.67L222.88,96.37L221.97,96.02L221.71,95.87L221.42,95.65L221.29,95.49L221.22,95.27L221.14,96.37"/><path d="M221.22,95.27L221.29,95.06L221.63,94.76"/><path d="M230.85,110.55L230.64,110.69L230.23,110.87L229.49,111.07L228.32,111.23L227.24,111.28L226.09,111.26L224.62,111.13L223.50,110.96L222.31,110.68"/><path d="M223.30,95.82L222.81,95.56L222.57,95.30L222.54,95.17L222.57,95.04L222.74,94.86L223.05,94.70L223.65,94.54L224.43,94.43L225.35,94.38L226.35,94.39L227.38,94.47L228.37,94.60L229.26,94.79L230.01,95.02L230.56,95.27L230.83,95.47L230.93,95.60L230.97,95.73L230.94,95.86L230.78,96.04L230.50,96.19L230.07,96.33L229.10,96.48L227.92,96.54L226.62,96.49L225.34,96.34L224.20,96.11L223.30,95.82"/><path d="M230.68,96.10L230.74,95.99L230.74,95.87L230.63,95.67L230.38,95.48L229.85,95.23L229.32,95.06L228.48,94.87L227.54,94.73L226.79,94.65L225.80,94.61L225.09,94.63L224.40,94.68L223.70,94.79L223.14,94.96L222.87,95.11L222.74,95.29L222.73,95.41L222.77,95.52"/><path d="M228.69,99.45L230.69,99.36L231.52,99.26L232.26,99.12L232.89,98.96L233.39,98.77L233.77,98.55L233.98,98.35"/><path d="M233.19,98.56L232.23,98.86L230.95,99.08"/><path d="M234.10,98.30L233.31,107.79L233.20,108.05L232.96,108.31"/><path d="M232.25,96.08L232.16,97.19"/></g></g><g id="Actor_19.0"><g style="stroke:#000000;stroke-width:0.123"><path d="M97.88,83.56L97.12,83.30L101.68,82.59L102.30,82.69L214.39,120.72L209.11,122.01L97.88,83.56"/><path d="M97.12,83.30L97.12,83.92L204.38,121.18"/><path d="M100.03,83.41L100.98,83.50L102.32,83.19L101.32,83.05L100.03,83.41"/><path d="M106.16,85.48L105.81,85.40L105.87,85.22L108.05,85.11L107.82,85.32L106.16,85.48"/><path d="M107.51,90.78L107.52,87.53"/><path d="M157.95,118.07L162.32,119.72"/><path d="M162.06,118.90L158.19,117.45"/><path d="M193.37,131.46L196.13,132.50"/><path d="M214.42,122.13L214.32,121.66L214.01,121.48L209.05,122.80L208.25,122.52"/><path d="M209.05,122.80L209.11,122.01"/><path d="M214.42,122.04L214.67,120.61L215.22,120.46L222.09,126.22L227.23,127.99L226.67,128.24"/><path d="M214.47,121.44L214.61,121.40"/><path d="M214.39,120.72L214.65,120.88"/><path d="M218.11,128.77L215.78,127.90L215.41,127.24L215.57,126.45"/><path d="M215.60,128.24L215.23,128.06L214.85,127.39L214.90,126.80L215.23,126.45L217.80,127.25L218.29,128.15L218.09,128.80L217.65,128.96L215.60,128.24"/><path d="M226.68,128.15L221.53,126.38L214.67,120.61"/><path d="M227.23,127.99L227.21,128.28"/><path d="M231.36,141.84L231.98,143.14L231.58,144.44L230.14,145.58L227.89,146.33"/><path d="M228.02,146.38L227.95,147.20L227.71,147.11"/><path d="M227.95,147.20L229.73,146.56L230.92,145.84L231.66,145.04L231.92,144.14"/><path d="M231.92,144.17L231.99,143.36"/></g></g><g id="Actor_31.1"><g style="stroke:#000000;stroke-width:0.123"><path d="M83.70,20.50L84.12,20.21L92.22,21.67L92.13,22.02L83.70,20.50L83.70,20.96L92.13,22.49L92.13,22.02L110.91,20.97L110.90,21.42L92.13,22.49"/><path d="M84.12,20.21L102.22,19.26L110.49,20.65L92.22,21.67"/><path d="M86.79,20.15L86.36,20.19L86.17,20.27L86.56,20.37L87.46,20.42L88.46,20.39L88.72,20.35L88.80,20.30L88.63,20.23L88.10,20.17L86.79,20.15"/><path d="M88.76,20.62L88.32,20.57L88.59,20.53L97.14,20.39L102.89,19.77L103.40,19.82L98.64,20.35L105.74,20.25L106.22,20.29L105.98,20.33L97.55,20.48L91.63,21.11L91.13,21.08L91.20,21.04L96.05,20.51L88.76,20.62"/><path d="M92.40,21.41L92.07,21.32L92.15,21.27L92.49,21.22L93.41,21.19L94.41,21.26L94.67,21.31L94.74,21.37L94.49,21.44L93.90,21.48L92.40,21.41"/><path d="M96.07,20.51L96.07,20.64"/><path d="M98.63,20.36L98.63,20.45"/><path d="M100.04,19.61L100.68,19.68L101.52,19.70L102.12,19.67L102.42,19.59L102.10,19.49L101.20,19.43L100.25,19.45L99.86,19.53L100.04,19.61"/><path d="M106.33,20.46L106.02,20.49L105.86,20.55L106.19,20.65L107.19,20.72L108.08,20.70L108.46,20.61L108.26,20.53L107.72,20.47L106.33,20.46"/><path d="M110.91,20.97L110.49,20.65"/></g></g><g id="Actor_49.0"><g style="stroke:#000000;stroke-width:0.123"><path d="M208.51,122.61L208.24,122.69L208.30,121.81L205.57,120.86L197.89,122.88L197.89,122.96"/><path d="M197.89,122.88L200.62,123.85L208.30,121.81"/><path d="M198.13,127.94L212.43,124.04L212.58,121.86"/><path d="M200.61,123.93L200.62,123.85"/></g></g><g id="Actor_5.0"><g style="stroke:#000000;stroke-width:0.123"><path d="M227.67,186.20L226.98,187.77L225.28,189.11L223.14,190.00L220.00,190.66L216.84,190.89L212.94,190.70L209.10,190.05L205.70,189.01L84.70,129.85L84.66,129.41L205.67,188.44L208.53,189.35L212.30,190.07L215.60,190.33L219.37,190.19L222.18,189.72L224.93,188.77L226.81,187.47L227.50,186.46L227.72,185.66L227.67,186.20L227.69,185.95"/><path d="M84.66,129.41L102.07,125.48L223.30,180.63L225.36,181.84L226.81,183.17L227.50,184.28L227.72,185.66"/><path d="M87.88,129.55L88.63,129.49L88.17,129.28L87.83,129.34L87.88,129.55"/><path d="M90.88,131.00L91.67,130.78L91.16,130.54L90.32,130.67L90.27,130.84L90.88,131.00"/><path d="M90.67,130.98L91.25,130.98"/><path d="M93.31,132.18L93.61,131.97L94.19,132.05L93.90,132.27L93.31,132.18"/><path d="M97.11,134.14L97.75,134.33L98.55,134.10L97.77,133.84L97.11,134.14"/><path d="M97.51,134.31L98.15,134.30"/><path d="M100.57,126.47L101.36,126.62L101.20,126.40L100.57,126.47"/><path d="M103.38,127.63L103.09,127.79L103.38,128.00L104.46,127.87L104.18,127.63L103.38,127.63"/><path d="M103.53,128.02L104.03,128.02"/><path d="M106.15,129.12L107.04,129.05L106.77,129.26L106.15,129.12"/><path d="M110.00,140.11L109.92,140.38L110.29,140.51L111.35,140.28L110.78,140.01L110.00,140.11"/><path d="M110.99,140.49L110.21,140.49"/><path d="M111.10,131.21L110.25,131.18L110.06,130.95L110.67,130.77L111.45,130.99L111.10,131.21"/><path d="M110.45,131.22L111.04,131.22"/><path d="M122.96,136.97L123.72,136.70L124.40,137.01L123.78,137.20L122.96,136.97"/><path d="M123.34,137.16L124.04,137.17"/><path d="M128.61,148.97L128.30,149.19L128.80,149.47L129.88,149.23L129.38,148.94L128.61,148.97"/><path d="M128.63,149.44L129.54,149.45"/><path d="M141.62,145.56L142.24,145.80L143.14,145.60L142.38,145.25L141.62,145.56"/><path d="M141.95,145.75L142.80,145.77"/><path d="M149.07,159.34L150.00,159.33L150.30,159.09L149.75,158.78L148.76,158.89L148.76,159.21L149.07,159.34"/><path d="M150.00,159.33L148.95,159.30"/><path d="M162.70,155.25L162.26,155.11L162.23,154.80L163.06,154.67L163.74,155.05L162.70,155.25"/><path d="M162.45,155.20L163.43,155.23"/><path d="M171.54,170.26L171.23,169.85L171.87,169.64L172.70,169.78L172.93,170.08L172.27,170.35L171.54,170.26"/><path d="M172.65,170.29L171.45,170.22"/><path d="M184.98,165.56L186.03,165.74L186.52,165.43L186.17,165.16L185.32,165.08L184.91,165.22L184.98,165.56"/><path d="M185.10,165.62L186.23,165.70"/><path d="M196.90,182.52L196.35,182.22L196.47,181.90L197.46,181.80L198.12,182.12L197.84,182.51L196.90,182.52"/><path d="M196.55,182.38L197.89,182.50"/><path d="M207.77,187.79L207.29,187.56L207.26,187.21L208.34,187.05L209.07,187.46L208.81,187.78L207.77,187.79"/><path d="M208.81,187.78L207.41,187.65"/><path d="M210.06,177.02L211.06,177.39L211.61,177.31L211.83,177.03L210.67,176.63L210.18,176.75L210.06,177.02"/><path d="M210.29,177.21L211.56,177.33"/><path d="M213.37,187.03L212.57,185.97L212.55,185.45L212.92,184.81L214.50,183.99L216.65,183.68L219.41,183.90L221.57,184.52L223.14,185.44L223.83,186.67L223.61,187.34L222.76,188.01L221.55,188.44L219.73,188.66L216.13,188.27L213.37,187.03"/><path d="M212.55,185.86L213.23,185.07L214.50,184.52L216.23,184.24L218.18,184.27L220.50,184.70L222.13,185.34L223.27,186.15L223.77,187.03"/><path d="M221.04,182.13L220.99,181.80L221.40,181.63L222.18,181.68L222.76,182.04L222.55,182.34L221.99,182.42L221.04,182.13"/><path d="M222.49,182.35L221.16,182.21"/></g></g><g id="Actor_10.0"><g style="stroke:#000000;stroke-width:0.123"><path d="M83.84,36.34L83.83,35.86L102.26,34.44L219.07,58.87L226.47,64.09L233.67,65.69L236.50,66.71L237.54,67.57L237.50,68.74L236.80,69.36L234.92,69.98L228.56,70.62L220.44,70.37L212.84,69.28L206.42,67.75L199.23,62.35L83.84,36.34"/><path d="M83.83,35.86L199.26,61.73L206.60,67.18L213.40,68.75L221.10,69.77L229.24,69.96L235.27,69.27L236.85,68.72L237.60,67.97"/><path d="M87.93,35.90L87.19,35.90L88.09,35.96L87.93,35.90"/><path d="M90.20,36.68L89.76,36.60L91.13,36.54L90.20,36.68"/><path d="M89.74,36.58L89.74,36.60"/><path d="M93.00,37.21L93.96,37.27L93.00,37.21"/><path d="M97.69,38.31L98.47,38.26L97.07,38.14L97.69,38.31"/><path d="M100.64,34.90L101.57,34.87L100.64,34.90"/><path d="M103.36,35.47L104.68,35.58L103.36,35.47"/><path d="M106.63,36.11L107.56,36.14L106.63,36.11"/><path d="M110.70,41.27L112.01,41.29L111.40,41.10L110.70,41.27"/><path d="M111.03,37.15L110.71,37.05L112.20,37.09L111.03,37.15"/><path d="M112.14,41.24L112.14,41.26"/><path d="M125.40,40.09L124.52,40.01L125.98,39.97L125.40,40.09"/><path d="M130.53,45.68L130.47,45.50L131.83,45.55L130.53,45.68"/><path d="M145.20,44.31L144.48,44.23L145.99,44.19L145.20,44.31"/><path d="M152.71,50.59L153.87,50.51L152.23,50.37L152.71,50.59"/><path d="M167.11,48.71L166.44,48.80L168.15,48.90L167.11,48.71"/><path d="M177.10,55.72L176.53,55.83L178.36,55.97L177.10,55.72"/><path d="M190.99,54.02L192.72,54.01L192.15,54.20L190.99,54.02"/><path d="M196.80,60.30L197.51,60.55L198.65,60.51L198.00,60.23L196.80,60.30"/><path d="M198.72,60.47L198.73,60.45"/><path d="M211.50,58.40L211.35,58.34L211.67,58.17L213.10,58.30L212.85,58.50L211.50,58.40"/><path d="M215.60,68.36L216.41,68.62L217.57,68.56L216.82,68.25L215.60,68.36"/><path d="M217.57,65.97L217.42,66.06L217.67,66.34L219.23,66.64L221.24,66.62L221.75,66.30L219.69,65.84L217.57,65.97"/><path d="M221.02,66.65L218.10,66.47"/><path d="M221.84,68.17L224.85,68.92L228.73,69.23L232.05,69.04L233.47,68.43L233.05,67.91L231.29,67.34L226.03,66.78L221.82,67.18L221.28,67.72L221.84,68.17"/><path d="M221.47,67.95L223.65,67.47L227.26,67.45L230.89,67.90L233.22,68.69"/><path d="M230.14,65.97L230.78,66.22L232.06,66.19L231.46,65.91L230.14,65.97"/></g></g><g id="Actor_20.1"><g style="stroke:#000000;stroke-width:0.123"><path d="M176.29,115.27L176.10,114.86L175.86,114.46L175.61,114.09L175.33,113.76L175.04,113.46L174.72,113.21L174.40,113.01L174.07,112.86L173.74,112.75L173.41,112.70L173.09,112.70L172.77,112.75L172.47,112.86L172.18,113.01L171.92,113.21L171.57,113.59"/><path d="M171.45,113.55L171.70,113.19L171.95,112.92L172.08,112.80L172.36,112.60L172.66,112.45L172.82,112.40L173.15,112.32L173.48,112.30L173.82,112.33L174.34,112.47L174.69,112.63L175.18,112.96L175.50,113.24L175.81,113.56L176.09,113.92L176.47,114.52L176.69,114.96L176.90,115.48"/><path d="M174.25,114.54L173.98,114.41L173.72,114.33L173.59,114.31"/><path d="M172.98,112.35L176.58,111.52"/><path d="M182.41,117.45L182.48,116.85L182.48,116.37L182.45,115.88L182.38,115.39L182.28,114.90L182.06,114.18L181.87,113.73L181.64,113.28"/></g></g><g id="Actor_30.0"><g style="stroke:#000000;stroke-width:0.123"><path d="M206.42,145.20L208.02,145.77L209.18,146.11L210.41,146.42L212.35,146.81L213.69,147.02L215.75,147.26L218.51,147.43L219.87,147.45L221.85,147.39L224.31,147.14L225.45,146.96L226.99,146.61L228.16,146.23L229.09,145.84L229.75,145.47L230.51,144.88L230.87,144.45L231.17,143.79L232.15,132.37L231.94,133.01L231.64,133.42L231.23,133.80L230.37,134.35L229.26,134.83L227.92,135.24L226.36,135.57L224.63,135.81L222.74,135.96L220.75,136.01L218.69,135.97L216.60,135.83L214.52,135.60L212.51,135.28L210.59,134.88L208.81,134.41L207.19,133.87L206.42,145.20"/><path d="M225.97,135.39L226.54,128.28L228.35,129.01L229.48,129.60L230.11,130.02L230.64,130.44L231.21,131.09L231.45,131.52L231.56,131.94L231.58,132.17L231.51,132.59L231.18,133.20L230.58,133.77L229.90,134.19L228.99,134.60L228.17,134.88L226.76,135.24L225.69,135.43L223.97,135.65L222.74,135.75L220.81,135.81L217.45,135.70L214.09,135.34L212.14,135.00L210.91,134.74L209.17,134.28L207.59,133.76L207.19,133.87"/><path d="M226.54,128.28L226.91,128.17L227.88,128.54L229.57,129.32L230.59,129.95L231.37,130.60L231.89,131.27L232.09,131.72L232.15,132.37"/></g></g><g id="Actor_35.0"><g style="stroke:#000000;stroke-width:0.123"><path d="M192.94,139.38L192.94,139.17L192.90,139.88L193.07,139.36L193.33,140.30L84.53,97.12L84.14,96.75L83.98,96.13L83.97,86.12L84.31,85.55L84.98,85.18L89.72,84.45L201.17,124.13L195.61,125.72"/><path d="M86.87,85.33L87.57,85.58L89.23,85.24L88.33,85.09L86.87,85.33"/><path d="M92.81,87.31L92.48,87.44L93.27,87.64L94.94,87.32L94.15,87.13L92.81,87.31"/><path d="M157.19,119.84L157.73,122.04L159.03,123.77L160.55,124.27L161.16,124.09L161.83,123.49L162.42,122.04L162.40,120.07L161.74,118.23L160.62,116.90L159.31,116.42L158.13,116.88L157.37,118.17L157.19,119.84"/><path d="M159.22,116.42L158.40,117.10L157.96,118.03L157.77,119.20L157.94,120.80L158.37,122.02L159.21,123.26L160.04,123.89L161.07,124.12"/><path d="M161.72,123.62L158.58,122.40"/><path d="M193.06,139.93L193.04,139.93"/><path d="M193.45,140.38L193.58,140.43"/><path d="M193.15,139.90L193.47,140.35L194.35,140.73L206.24,145.46L206.25,145.25L208.97,146.23L212.00,146.96L215.94,147.50L220.58,147.65L224.76,147.25L227.63,146.41"/><path d="M192.79,131.96L193.39,132.79L195.44,133.57L196.06,133.35L196.12,132.45L195.67,131.84L193.38,130.98L192.83,131.35L192.79,131.96"/><path d="M196.02,133.40L193.76,132.49L193.39,131.80L193.52,131.01"/><path d="M194.95,126.63L194.78,127.22"/><path d="M194.92,126.70L194.95,126.67"/><path d="M206.25,145.25L207.01,133.83L201.91,131.94L195.00,125.86L194.80,126.71"/><path d="M195.00,125.86L195.56,125.71L195.80,125.88L202.40,131.69L207.60,133.76"/><path d="M196.21,126.25L201.12,124.93L201.17,124.13"/><path d="M227.77,146.47L227.70,147.26L225.23,147.98L221.78,148.42L217.89,148.46L213.88,148.10L210.09,147.37L206.19,146.07L206.24,145.46"/><path d="M206.39,145.21L206.42,145.20"/><path d="M207.01,133.83L207.61,133.66"/></g></g><g><g><path style="stroke:#000000;stroke-width:0.210;stroke-dasharray:2.4 2.4" d="M97.40,84.51L97.35,20.81"/></g></g><g><g><path style="stroke:#000000;stroke-width:0.210;stroke-dasharray:2.4 2.4" d="M150.04,117.72L148.88,153.75"/></g></g><g><g><path style="stroke:#000000;stroke-width:0.210;stroke-dasharray:2.4 2.4" d="M162.98,119.59L130.16,127.47"/></g></g><g id="PMI31.0"><g><path style="stroke:#000000;stroke-width:0.280" d="M116.99,21.45L112.18,21.39"/></g><g><path style="fill:#000000" d="M112.19,20.39L112.16,22.39L110.18,21.37z"/></g><g><path style="fill:#ffffff" d="M116.99,24.09L132.81,24.09L132.81,19.01L116.99,19.01z"/><path style="stroke:#000000;stroke-width:0.280;stroke-opacity:0.98" d="M116.99,24.09L132.81,24.09L132.81,19.01L116.99,19.01z"/><text xml:space="preserve" fill="#000000" stroke-width="0" x="117.62" y="22.66" font-size="3.05" opacity="1.00" font-family="Microsoft Sans Serif">1000YG30</text></g></g><g id="PMI5.0"><g><path style="stroke:#000000;stroke-width:0.280" d="M149.71,168.11L149.52,160.76"/></g><g><path style="fill:#000000" d="M150.52,160.72L148.52,160.77L149.47,158.75z"/></g><g><path style="fill:#ffffff" d="M141.69,173.18L157.85,173.18L157.85,168.10L141.69,168.10z"/><path style="stroke:#000000;stroke-width:0.280;stroke-opacity:0.98" d="M141.69,173.18L157.85,173.18L157.85,168.10L141.69,168.10z"/><text xml:space="preserve" fill="#000000" stroke-width="0" x="142.32" y="171.75" font-size="3.05" opacity="1.00" font-family="Microsoft Sans Serif">1000XDC0</text></g></g><g id="PMI19.0"><g><path style="stroke:#000000;stroke-width:0.280" d="M176.18,106.13L176.47,112.75"/></g><g><path style="fill:#000000" d="M175.47,112.79L177.46,112.71L176.55,114.75z"/></g><g><path style="fill:#ffffff" d="M168.16,106.13L183.97,106.13L183.97,101.06L168.16,101.06z"/><path style="stroke:#000000;stroke-width:0.280;stroke-opacity:0.98" d="M168.16,106.13L183.97,106.13L183.97,101.06L168.16,101.06z"/><text xml:space="preserve" fill="#000000" stroke-width="0" x="168.79" y="104.71" font-size="3.04" opacity="1.00" font-family="Microsoft Sans Serif">1000XDZ0</text></g></g><g id="PMI10.0"><g><path style="stroke:#000000;stroke-width:0.280" d="M166.35,41.44L166.40,47.34"/></g><g><path style="fill:#000000" d="M165.40,47.36L167.40,47.34L166.42,49.35z"/></g><g><path style="fill:#ffffff" d="M158.16,41.44L174.49,41.44L174.49,36.36L158.16,36.36z"/><path style="stroke:#000000;stroke-width:0.280;stroke-opacity:0.98" d="M158.16,41.44L174.49,41.44L174.49,36.36L158.16,36.36z"/><text xml:space="preserve" fill="#000000" stroke-width="0" x="158.79" y="40.01" font-size="3.05" opacity="1.00" font-family="Microsoft Sans Serif">1000XDG0</text></g></g><g id="PMI35.0"><g><path style="stroke:#000000;stroke-width:0.280" d="M149.34,119.19L155.77,119.20"/></g><g><path style="fill:#000000" d="M155.77,120.20L155.77,118.20L157.77,119.20z"/></g><g><path style="fill:#ffffff" d="M134.04,121.72L149.34,121.72L149.34,116.64L134.04,116.64z"/><path style="stroke:#000000;stroke-width:0.280;stroke-opacity:0.98" d="M134.04,121.72L149.34,121.72L149.34,116.64L134.04,116.64z"/><text xml:space="preserve" fill="#000000" stroke-width="0" x="134.68" y="120.29" font-size="3.04" opacity="1.00" font-family="Microsoft Sans Serif">1000XF00</text></g></g><g id="PMI49.0"><g><path style="stroke:#000000;stroke-width:0.280" d="M208.28,113.78L208.25,120.69"/></g><g><path style="fill:#000000" d="M207.25,120.68L209.24,120.69L208.24,122.69z"/></g><g><path style="fill:#ffffff" d="M200.21,113.78L216.37,113.78L216.37,108.70L200.21,108.70z"/><path style="stroke:#000000;stroke-width:0.280;stroke-opacity:0.98" d="M200.21,113.78L216.37,113.78L216.37,108.70L200.21,108.70z"/><text xml:space="preserve" fill="#000000" stroke-width="0" x="200.84" y="112.35" font-size="3.05" opacity="1.00" font-family="Microsoft Sans Serif">1000XDD0</text></g></g><g id="PMI20.0"><g><path style="stroke:#000000;stroke-width:0.280" d="M119.69,126.38L123.80,126.29"/></g><g><path style="fill:#000000" d="M123.82,127.29L123.78,125.29L125.80,126.25z"/></g><g><path style="fill:#ffffff" d="M104.05,129.07L119.70,129.07L119.70,123.99L104.05,123.99z"/><path style="stroke:#000000;stroke-width:0.280;stroke-opacity:0.98" d="M104.05,129.07L119.70,129.07L119.70,123.99L104.05,123.99z"/><text xml:space="preserve" fill="#000000" stroke-width="0" x="104.69" y="127.64" font-size="3.04" opacity="1.00" font-family="Microsoft Sans Serif">1000XD80</text></g></g><g id="PMI30.0"><g><path style="stroke:#000000;stroke-width:0.280" d="M235.50,146.08L229.25,146.19"/></g><g><path style="fill:#000000" d="M229.22,145.19L229.26,147.19L227.24,146.23z"/></g><g><path style="fill:#ffffff" d="M235.49,148.48L250.10,148.48L250.10,143.40L235.49,143.40z"/><path style="stroke:#000000;stroke-width:0.280;stroke-opacity:0.98" d="M235.49,148.48L250.10,148.48L250.10,143.40L235.49,143.40z"/><text xml:space="preserve" fill="#000000" stroke-width="0" x="236.13" y="147.05" font-size="3.04" opacity="1.00" font-family="Microsoft Sans Serif">10011J70</text></g></g><g id="PMI27.0"><g><path style="stroke:#000000;stroke-width:0.280" d="M242.26,102.53L236.66,102.40"/></g><g><path style="fill:#000000" d="M236.68,101.40L236.64,103.40L234.66,102.35z"/></g><g><path style="fill:#ffffff" d="M242.26,105.25L258.08,105.25L258.08,100.17L242.26,100.17z"/><path style="stroke:#000000;stroke-width:0.280;stroke-opacity:0.98" d="M242.26,105.25L258.08,105.25L258.08,100.17L242.26,100.17z"/><text xml:space="preserve" fill="#000000" stroke-width="0" x="242.89" y="103.82" font-size="3.04" opacity="1.00" font-family="Microsoft Sans Serif">1000XDF0</text></g></g><g/><g id="paperID" visibility="hidden" opacity="0.00" transform="scale(0.000100)"><path style="stroke:#000000;stroke-width:0.500;fill:#e6e6e6;fill-rule:evenodd" d="M-2000.00,-2000.00L2297.00,-2000.00L2297.00,2210.00L-2000.00,2210.00zM0.00,0.00L297.00,0.00L297.00,210.00L0.00,210.00z"/><path style="fill:#000000;fill-opacity:0.118" d="M3.00,210.00L297.00,210.00L297.00,3.00L300.00,3.00L300.00,213.00L3.00,213.00z"/></g><g id="hotspot.0" onmouseover="ShowHotSpot(evt,'0')" onmouseout="HideHotSpot(evt,'0')" onmousemove="ShowToolTip(evt,'0',&quot;3dp556142 (I_3DPart556142.2)&quot;)" opacity="0"><path style="fill:#00ff00;fill-rule:evenodd" d="M163.98,47.15L165.39,47.17L166.04,46.94L166.06,41.55L158.00,41.38L158.00,36.26L174.58,36.26L174.58,41.38L166.52,41.55L166.55,46.94L167.22,47.18L167.14,47.73L219.57,58.91L222.23,60.95L226.61,63.92L229.26,64.50L236.03,66.26L237.53,67.43L237.53,68.43L237.19,68.99L234.56,69.89L229.47,70.38L224.27,70.38L219.56,70.09L213.39,69.21L206.05,67.43L202.80,64.79L199.29,62.13L84.25,36.30L83.87,36.03L83.86,35.70L98.61,34.51L103.41,34.51zM231.03,67.73L232.83,68.36L232.84,68.69L231.52,68.91L226.62,68.91L222.78,68.34L221.54,67.73L222.41,67.43L229.27,67.44z"/></g><g id="hotspot.1" onmouseover="ShowHotSpot(evt,'1')" onmouseout="HideHotSpot(evt,'1')" onmousemove="ShowToolTip(evt,'1',&quot;3dp556144 (I_3DPart556144.4)&quot;)" opacity="0"><path style="fill:#00ff00;fill-rule:evenodd" d="M134.87,93.62L167.81,104.61L167.99,100.95L183.99,100.95L183.99,106.07L176.52,106.24L176.63,107.73L213.97,120.41L215.15,120.34L221.93,125.94L226.90,127.72L226.67,128.11L225.95,135.09L224.77,135.37L216.03,135.37L211.91,134.79L208.37,133.91L201.94,131.23L198.36,127.97L198.31,127.72L212.11,123.89L212.52,123.43L212.50,121.81L211.84,121.81L209.77,122.44L208.38,122.44L208.07,121.57L206.34,120.95L204.47,120.96L198.89,122.44L196.90,122.45L182.40,117.22L182.53,115.98L181.69,113.25L177.20,111.52L176.55,111.52L176.44,112.04L176.01,111.55L172.99,112.12L171.82,113.01L170.44,113.04L107.82,90.67L107.53,87.43L97.12,83.69L97.20,83.13L101.93,82.41zM177.22,112.76L177.26,113.10L176.63,114.29L176.37,114.22L175.68,112.72L176.31,112.52L176.44,112.04zM161.09,117.09L162.23,119.21L161.33,119.21L158.36,118.02L158.00,117.70L159.18,116.22L159.57,116.22zM195.79,131.82L194.85,131.86L193.56,131.30L193.56,130.96L193.95,130.91zM231.93,142.69L231.93,144.30L230.77,145.79L228.60,146.86L227.69,146.94L227.77,146.36L230.03,145.05L231.05,144.01L231.31,142.46L231.62,142.14zM172.40,106.25L176.05,106.24L176.08,107.52zM218.13,127.40L218.09,128.43L217.20,128.33L215.76,127.70L215.33,126.78L215.61,126.51L216.32,126.52z"/></g><g id="hotspot.2" onmouseover="ShowHotSpot(evt,'2')" onmouseout="HideHotSpot(evt,'2')" onmousemove="ShowToolTip(evt,'2',&quot;3dp556151 (I_3DPart556151.12)&quot;)" opacity="0"><path style="fill:#00ff00;fill-rule:evenodd" d="M181.34,113.02L181.92,113.61L182.55,116.65L182.23,117.21L171.51,113.30L172.99,112.12L175.65,111.55L177.23,111.54zM134.63,122.38L136.36,125.35L136.65,128.10L136.05,130.17L135.06,131.24L129.49,132.73L126.95,132.70L126.07,132.11L124.56,129.21L123.69,126.26L122.33,126.15L123.68,125.74L125.35,123.29L132.81,121.53zM120.06,126.06L122.33,126.15L122.20,126.32L120.06,126.53L119.80,128.91L103.89,129.01L103.89,123.89L119.89,123.89z"/></g><g id="hotspot.3" onmouseover="ShowHotSpot(evt,'3')" onmouseout="HideHotSpot(evt,'3')" onmousemove="ShowToolTip(evt,'3',&quot;3dp565766 (I_3DPart556148.8)&quot;)" opacity="0"><path style="fill:#00ff00;fill-rule:evenodd" d="M227.78,92.45L231.04,93.01L234.57,94.49L235.46,95.65L235.46,96.96L234.15,98.29L233.68,103.70L233.69,105.37L234.58,106.54L234.58,107.54L233.56,108.88L231.26,109.81L230.91,110.34L229.48,110.98L223.97,110.96L213.96,109.50L211.60,108.92L210.74,108.32L193.96,103.04L193.36,102.46L193.69,95.76L194.00,92.55L195.04,91.53L211.23,88.32L212.80,88.32zM236.82,101.92L241.01,102.17L241.14,102.34L236.82,102.45L236.62,103.09L234.76,102.14L236.62,101.28zM241.14,102.34L241.92,102.25L242.10,100.07L258.10,100.07L258.10,105.19L242.10,105.19L241.90,102.74z"/></g><g id="hotspot.4" onmouseover="ShowHotSpot(evt,'4')" onmouseout="HideHotSpot(evt,'4')" onmousemove="ShowToolTip(evt,'4',&quot;3dp556158 (I_3DPart556158.25)&quot;)" opacity="0"><path style="fill:#00ff00;fill-rule:evenodd" d="M231.03,130.07L231.93,131.23L231.91,135.46L231.05,144.01L229.43,145.65L235.16,145.77L235.33,143.29L250.16,143.29L250.16,148.41L235.33,148.41L235.16,146.23L229.47,146.27L229.27,146.90L228.40,146.52L226.53,146.54L222.41,147.13L216.62,147.13L211.92,146.54L207.19,145.39L206.63,145.07L206.62,142.52L207.18,133.95L207.43,133.59L207.79,133.56L208.38,133.91L211.91,134.79L216.03,135.37L224.77,135.37L225.95,135.09L226.62,128.08L226.92,128.01z"/></g><g id="hotspot.5" onmouseover="ShowHotSpot(evt,'5')" onmouseout="HideHotSpot(evt,'5')" onmousemove="ShowToolTip(evt,'5',&quot;3dp558286 (I_NHỰA MC SAU BOOM 2.10)&quot;)" opacity="0"><path style="fill:#00ff00;fill-rule:evenodd" d="M110.19,20.37L110.76,20.71L111.25,20.71L112.21,20.34L111.94,21.98L111.36,21.90L110.17,21.24L94.20,22.15L91.35,22.15L83.88,20.76L83.96,20.20L93.61,19.51L103.11,19.22zM112.40,21.27L116.65,21.08L116.83,18.91L132.83,18.91L132.83,24.03L116.83,24.03L116.65,21.55zM94.60,100.98L92.24,101.29L84.47,98.09L84.46,97.76L85.08,97.39L85.76,97.41z"/></g><g id="hotspot.6" onmouseover="ShowHotSpot(evt,'6')" onmouseout="HideHotSpot(evt,'6')" onmousemove="ShowToolTip(evt,'6',&quot;3dp558288 (I_3DPart558288.35)&quot;)" opacity="0"><path style="fill:#00ff00;fill-rule:evenodd" d="M201.05,123.92L200.96,124.79L196.51,125.97L196.60,126.52L202.50,131.55L207.23,133.33L206.62,142.52L206.63,145.07L207.19,145.39L211.92,146.54L216.62,147.13L222.41,147.13L227.53,146.55L227.52,147.20L226.84,147.45L223.88,148.01L214.86,148.01L209.85,147.14L206.35,145.93L205.76,145.06L147.23,121.83L133.88,121.65L133.70,116.55L84.29,96.85L84.00,93.61L84.01,85.77L84.77,85.06L88.03,84.50L90.49,84.48zM160.76,116.83L161.92,118.32L162.53,121.33L161.81,123.32L161.35,123.34L158.96,122.45L158.09,121.27L158.08,117.50L159.18,116.22zM195.45,131.54L196.06,132.12L196.04,133.13L193.96,132.45L193.59,132.23L193.59,130.93z"/></g><g id="hotspot.7" onmouseover="ShowHotSpot(evt,'7')" onmouseout="HideHotSpot(evt,'7')" onmousemove="ShowToolTip(evt,'7',&quot;3dp626363 (I_3DPart626363.4)&quot;)" opacity="0"><path style="fill:#00ff00;fill-rule:evenodd" d="M200.05,113.71L200.05,108.59L216.34,108.59L216.34,113.71L208.58,113.89L208.62,120.45L209.03,121.04L208.66,121.63L208.57,122.53L210.74,122.23L211.84,121.81L212.50,121.81L212.52,123.43L212.11,123.89L199.19,127.44L197.82,127.41L196.60,126.52L196.51,125.97L200.96,124.79L201.05,123.92L198.00,122.73L204.47,120.96L206.34,120.95L207.55,121.32L207.45,120.66L208.07,120.46L208.11,113.89z"/></g><g id="hotspot.8" onmouseover="ShowHotSpot(evt,'8')" onmouseout="HideHotSpot(evt,'8')" onmousemove="ShowToolTip(evt,'8',&quot;3dp554534 (I_3DPart554534.22)&quot;)" opacity="0"><path style="fill:#00ff00;fill-rule:evenodd" d="M221.91,179.77L226.03,182.12L227.52,184.16L227.52,186.64L226.80,187.69L225.15,188.98L221.91,190.16L217.70,190.65L215.15,190.65L211.92,190.35L207.49,189.49L202.51,187.41L149.87,161.51L149.68,166.73L149.51,166.60L149.28,161.24L84.86,129.75L84.76,129.21L102.23,125.34zM150.07,167.81L157.82,167.99L157.82,173.11L141.53,173.11L141.53,167.99L149.59,167.82L149.68,166.73zM220.45,184.47L221.92,185.06L223.44,186.20L223.72,186.92L223.01,187.72L221.24,188.31L217.21,188.30L214.85,187.72L213.41,186.81L212.80,186.23L212.80,185.17L215.05,184.17L218.97,184.18z"/></g></g></svg>
