<?xml version="1.0" encoding="UTF-8" standalone="no"?>
<svg xmlns="http://www.w3.org/2000/svg" xmlns:xlink="http://www.w3.org/1999/xlink" width="297.000mm" height="210.000mm" viewBox="0.000000 0.000000 297.000000 210.000000" stroke-linejoin="round" stroke-linecap="round" fill="none" fill-rule="evenodd"><desc>Composer Export</desc><script type="text/ecmascript"><![CDATA[
if(typeof(top) != "undefined")
{
	top.ShowPaper = ShowPaper;
}
function ShowHotSpot(evt,hotspotid)
{
	var svgDocument = evt.target.ownerDocument;
	var strId = "hotspot."+hotspotid;
	var hotspot = svgDocument.getElementById(strId);
	if(hotspot)
		hotspot.setAttribute("opacity",".5");
}
function HideHotSpot(evt,hotspotid)
{
	var svgDocument = evt.target.ownerDocument;
	var strId = "hotspot."+hotspotid;
	var hotspot = svgDocument.getElementById(strId);
	if(hotspot)
		hotspot.setAttribute("opacity","0");

	var toolTip = svgDocument.getElementById('ToolTip');
	if(toolTip)
		toolTip.setAttribute("visibility","hidden");
}
function ShowToolTip(evt,hotspotid,strTooltip)
{
	if(strTooltip=="")
	return;

	// change text
	var svgDocument = evt.target.ownerDocument;
	var tiptext = svgDocument.getElementById('ToolTipText');
	if( !tiptext )
	return;
	tiptext.firstChild.nodeValue = " " + strTooltip + "  " ;

	// show tooltip before, else some refresh issue

	var toolTip = svgDocument.getElementById('ToolTip');
	if(!toolTip)
	return;

	toolTip.setAttribute("visibility","visible");
	toolTip.setAttribute("opacity",".95");

	// move tooltip
	// get viewbox

	var root = svgDocument.documentElement;
	var vbox = (root.getAttribute("viewBox")).split(' ');
	var x0 = parseFloat(vbox[0]);
	var y0 = parseFloat(vbox[1]);
	var vboxW = parseFloat(vbox[2]);
	var vboxH = parseFloat(vbox[3]);

	// get default width of svg

	var strW = root.getAttribute("width");
	var svgW = parseFloat(strW);
	if(strW.indexOf('mm') != -1)
	svgW *= 3.779;

	var strH = root.getAttribute("height");
	var svgH = parseFloat(strH);
	if(strH.indexOf('mm') != -1)
	svgH *= 3.779;  	// 96 dpi  -> 96/25.4 = 3.779

	// update the viewbox / width / height if svg is embedded in html with zoom fit all
	var realx0 = x0;
	var realy0 = y0;
	var realvboxW = vboxW;
	var realvboxH = vboxH;
	var realsvgW = svgW;
	var realsvgH = svgH;

	if ((typeof(top) == "undefined") || (typeof(top.svgctl1) != "undefined")) // embedded in html
	{
		// get window size in pxl

		svgW = window.innerWidth;
		svgH = window.innerHeight;

		// calculate real viewbox

		realsvgW = svgW;
		realsvgH = svgH;
		if((svgW / svgH) > (vboxW / vboxH))
		{
			realvboxW = (vboxH * svgW) / svgH;
			realvboxH = vboxH;
			realx0 = x0 - (realvboxW - vboxW)/2 ;
		}
		else
		{
			realvboxH = (vboxW * svgH) / svgW;
			realvboxW = vboxW;
			realy0 = y0 - (realvboxH - vboxH)/2 ;
		}
	}

	// get user zoom/pan

	var newScale = root.currentScale;
	var translation = root.currentTranslate;

	// transform pxl to user unit

	var xPos = (((evt.clientX+10- translation.x)/newScale) * realvboxW)/realsvgW  + realx0 ;
	var yPos = (((evt.clientY+5- translation.y)/newScale) * realvboxH)/ realsvgH  + realy0 ;
	var scaleForWidth = ( (1 / newScale) * realvboxH) / realsvgH;

	// move tooltip

	toolTip.setAttribute("transform", "translate(" + xPos + "," + yPos + ")" );

	// resize tooltip

	var fontsize = 12;
	tiptext.setAttribute("font-size",fontsize*scaleForWidth);
	tiptext.setAttribute("y", fontsize*scaleForWidth);
	var tipBG = svgDocument.getElementById('ToolTipBG');
	var outline = tiptext.getBBox();
	if(tipBG)
	{
		tipBG.setAttribute("stroke-width", 1*scaleForWidth);
		tipBG.setAttribute("width", Number(outline.width) );
		tipBG.setAttribute("height", Number(outline.height) + fontsize*.5*scaleForWidth );
	}
	var ToolTipShadow = svgDocument.getElementById('ToolTipShadow');
	if(ToolTipShadow)
	{
		ToolTipShadow.setAttribute("width", Number(outline.width) );
		ToolTipShadow.setAttribute("height", Number(outline.height) + fontsize*.5*scaleForWidth );
		ToolTipShadow.setAttribute("x", 3*scaleForWidth);
		ToolTipShadow.setAttribute("y", 3*scaleForWidth);
	}
}
function ShowPaper()
{
  var svgDocument = getDocument();
  var paper = svgDocument.getElementById("paperID");
  if(paper)
  {
    paper.setAttribute("transform","scale(1)");
    paper.setAttribute("opacity","1");
    paper.setAttribute("visibility","visible");
  }
  var svg = svgDocument.getRootElement();
  if(svg)
  {
    svg.setAttribute("width","307.000mm");
    svg.setAttribute("height","220.000mm");
    svg.setAttribute("viewBox","-5.000000 -5.000000 307.000000 220.000000");
  }
}
]]></script><defs/><g><g id="Actor_.0"><g style="stroke:#000000;stroke-width:0.123"><path d="M113.54,38.57L112.73,37.80L111.91,37.19L111.07,36.72L110.20,36.40L109.39,36.24L108.57,36.22L107.67,36.38L106.94,36.67L106.19,37.18L105.61,37.76L105.52,37.89L105.44,38.11L105.46,38.31L105.52,38.44L105.71,38.58L105.97,38.60L106.11,38.57"/><path d="M106.21,38.27L106.13,38.27L106.12,38.22"/><path d="M106.12,38.23L106.12,38.22"/><path d="M108.38,36.93L107.60,37.13L106.81,37.58L106.11,38.23"/><path d="M107.17,36.68L107.63,36.52"/><path d="M108.32,36.93L109.26,36.92L110.24,37.14L111.22,37.58L112.17,38.22"/><path d="M115.33,35.27L114.58,34.98L113.74,34.82L112.82,34.80L112.04,34.95L111.31,35.24L111.20,35.31L110.54,35.75L110.02,36.26"/><path d="M111.19,37.12L111.70,37.44"/><path d="M110.46,36.50L110.84,36.14L111.66,35.68L112.55,35.45L113.50,35.44L114.22,35.59"/><path d="M111.86,35.74L111.18,36.12L110.68,36.58"/><path d="M114.74,39.35L114.27,39.51L114.09,39.54L113.91,39.52L113.65,39.45L113.47,39.36L113.23,39.19L112.11,38.16"/><path d="M111.84,35.74L112.72,35.51L113.66,35.50L114.17,35.61"/><path d="M113.51,38.54L113.79,38.76L114.03,38.86"/><path d="M113.89,38.81L113.94,38.83"/><path d="M113.98,38.84L114.04,38.84L114.55,38.67"/><path d="M115.34,35.27L116.26,35.76L115.81,35.52"/><path d="M116.26,35.76L117.06,36.35"/></g></g><g id="Actor_.1"><g style="stroke:#000000;stroke-width:0.123"><path d="M111.82,37.99L111.84,38.14L111.89,38.31L112.08,38.63L112.33,38.82L112.41,38.84L112.59,38.82L112.70,38.77L112.72,38.76L112.73,38.73"/><path d="M112.32,37.42L112.57,37.59L112.59,37.61L112.68,37.77"/><path d="M112.75,37.82L112.63,37.60L112.61,37.58L112.30,37.39L112.28,37.39L112.19,37.40"/><path d="M112.70,38.77L112.73,38.73"/><path d="M112.59,37.58L112.61,37.60L112.72,37.80"/></g></g><g id="Actor_.2"><g style="stroke:#000000;stroke-width:0.123"><path d="M111.32,38.07L109.76,39.75L109.86,40.03L116.86,42.85L117.10,42.90L118.89,42.28L119.13,42.07L119.24,41.72L119.26,40.95L117.86,39.63"/><path d="M112.65,36.37L112.23,36.37L112.06,36.43L111.72,36.67L111.70,36.71"/><path d="M112.58,36.48L112.47,36.43L112.06,36.43"/><path d="M116.86,42.85L116.76,42.57L116.78,41.80L116.16,41.22"/><path d="M116.78,41.80L116.95,41.74L116.93,42.51L116.98,42.65L117.10,42.67L118.90,42.06L119.02,41.95L119.07,41.77L119.09,41.01L117.68,39.68"/><path d="M116.95,41.74L116.41,41.23"/><path d="M119.09,41.01L119.26,40.95"/></g></g><g id="Actor_.3"><g style="stroke:#000000;stroke-width:0.123"><path d="M121.00,38.61L122.33,38.03L122.48,37.95L120.73,38.54L118.26,39.54L117.13,39.80L116.97,39.91L116.89,40.12L116.79,40.73L116.63,41.11L116.33,41.26L115.96,41.16L113.81,39.79L113.34,39.60L112.47,39.64L112.04,39.41L111.66,38.98L111.39,38.43L111.28,37.82L111.29,37.63"/><path d="M112.52,36.52L112.04,36.53L111.87,36.58L112.44,36.57L112.57,36.49L112.74,36.24L112.88,36.08L113.03,35.99L115.20,35.27L115.34,35.27L120.35,38.43"/><path d="M111.87,36.58L111.53,36.82L111.47,36.95"/><path d="M114.59,39.40L114.70,39.41"/><path d="M114.23,38.78L114.30,38.65L114.54,38.67L114.74,38.93L114.79,39.26L114.66,39.48L114.42,39.46"/><path d="M114.40,38.72L114.44,38.66"/><path d="M116.33,41.26L116.50,41.21L116.80,41.05L116.96,40.67L117.06,40.06L117.14,39.85L117.26,39.77"/><path d="M119.78,39.02L119.73,39.15L119.63,39.76L119.46,40.14L119.16,40.30L118.99,40.35L118.63,40.25L118.29,40.04"/><path d="M118.99,40.35L119.29,40.20L119.46,39.82L119.56,39.21L119.61,39.08"/><path d="M118.26,39.54L121.02,38.60"/><path d="M119.03,39.03L119.12,38.98"/><path d="M122.38,37.77L122.30,37.75L122.20,37.78L120.79,38.26L120.06,38.54L118.49,39.20"/><path d="M119.00,39.07L119.25,38.95L119.00,39.07"/><path d="M119.25,38.95L120.00,38.59"/><path d="M121.04,38.21L121.25,38.13"/><path d="M122.48,37.95L122.39,37.77L122.29,37.79"/><path d="M122.39,37.77L122.32,37.76"/></g></g><g id="Actor_.4"><g style="stroke:#000000;stroke-width:0.123"><path d="M177.86,19.34L179.46,18.65L178.06,19.13L175.68,20.07L174.53,20.36L174.36,20.46L174.27,20.66L174.14,21.22L173.96,21.57L173.65,21.72L173.30,21.64L171.22,20.46L170.76,20.30L169.88,20.37L169.47,20.17L169.11,19.80L168.87,19.30L168.78,18.75L168.83,18.44"/><path d="M177.26,19.21L172.41,16.47L172.29,16.47L170.55,17.04L170.42,17.12L170.14,17.48L170.02,17.57L169.44,17.60L169.09,17.83L169.07,17.86"/><path d="M169.44,17.60L169.58,17.55L170.07,17.53"/><path d="M171.82,19.48L171.87,19.41"/><path d="M172.11,20.10L171.98,20.09"/><path d="M171.68,19.52L171.76,19.41L172.00,19.42L172.19,19.64L172.22,19.95L172.07,20.15L171.84,20.14"/><path d="M174.63,20.33L174.50,20.41L174.41,20.61L174.28,21.17L174.10,21.52L173.79,21.67L173.65,21.72"/><path d="M176.47,19.80L176.42,19.92L176.28,20.49L176.10,20.84L175.79,20.99L175.44,20.91L175.11,20.73"/><path d="M176.61,19.76L176.55,19.87L176.42,20.44L176.24,20.79L175.93,20.94L175.79,20.99"/><path d="M176.42,19.60L176.51,19.56"/><path d="M175.84,19.79L177.88,18.96L179.25,18.49L179.32,18.47L179.37,18.49L179.32,18.49"/><path d="M175.65,20.08L177.87,19.33"/><path d="M176.50,19.59L176.62,19.53L176.39,19.64L176.50,19.59"/><path d="M176.62,19.53L177.38,19.18"/><path d="M178.32,18.83L178.50,18.77"/><path d="M179.46,18.65L179.37,18.49"/></g></g><g id="Actor_.5"><g style="stroke:#000000;stroke-width:0.123"><path d="M163.64,19.59L163.53,19.61L163.38,19.61L163.31,19.59L163.19,19.51L163.10,19.34L163.10,19.16L163.19,18.95L163.29,18.83L163.98,18.22L164.66,17.80L165.40,17.50L166.19,17.34L167.10,17.32L167.93,17.45L168.75,17.71L169.58,18.11L170.36,18.64L171.11,19.29L171.37,19.49L171.48,19.54L171.64,19.58"/><path d="M163.70,19.30L163.73,19.32L163.76,19.31"/><path d="M163.62,19.42L163.74,19.25L164.47,18.63L165.29,18.20L166.11,17.97"/><path d="M164.92,17.78L165.39,17.62"/><path d="M166.05,17.98L166.99,17.94L167.95,18.11L168.91,18.47L169.85,19.04L170.88,19.91L171.06,20.03L171.21,20.11L171.38,20.16L171.61,20.19"/><path d="M167.05,18.03L167.13,17.96"/><path d="M167.35,18.00L167.02,18.29"/><path d="M167.18,17.33L167.41,17.12L168.18,16.64L168.93,16.35L169.71,16.19L170.52,16.17L170.61,16.18L171.43,16.31L172.12,16.52"/><path d="M171.12,16.85L170.41,16.73L169.46,16.77L168.55,17.02L167.79,17.43"/><path d="M168.70,17.08L169.59,16.84L170.53,16.80L171.03,16.88"/><path d="M168.70,17.08L167.98,17.46"/><path d="M169.42,18.32L168.92,18.05"/><path d="M171.61,20.19L171.75,20.17L172.16,20.03"/><path d="M172.00,19.42L171.55,19.56"/></g></g><g id="Actor_.6"><g style="stroke:#000000;stroke-width:0.123"><path d="M183.14,148.10L183.02,147.91L182.84,147.77L179.75,146.18L179.56,146.13L179.42,146.19"/><path d="M178.97,145.96L179.12,145.76L179.27,145.68L179.52,145.66L179.79,145.75L182.97,147.39L183.22,147.60L183.45,147.93"/><path d="M183.93,142.88L179.20,145.71"/><path d="M182.48,147.76L182.63,147.67"/><path d="M192.60,146.35L196.34,144.05"/><path d="M193.58,137.12L197.34,134.87"/></g></g><g id="Actor_.7"><g style="stroke:#000000;stroke-width:0.123"><path d="M138.75,23.03L138.64,23.02L138.42,23.03L137.04,23.47L136.93,23.51L136.70,23.64L136.59,23.72L136.39,23.91L136.20,24.15L136.03,24.42L135.89,24.72L135.84,24.87L135.75,25.18L135.70,25.50L135.69,25.66L135.61,27.78L135.58,27.95L135.52,28.10L135.43,28.22L135.38,28.26L135.25,28.31L135.18,28.31L135.04,28.28L134.28,28.00"/><path d="M134.79,27.83L135.06,27.93L135.16,27.94L135.21,27.93L135.25,27.90L135.31,27.81L135.34,27.68L135.42,25.56L135.45,25.24L135.52,24.93L135.62,24.62L135.76,24.32L135.93,24.05L136.02,23.93L136.22,23.71L136.32,23.62L136.54,23.47L136.77,23.37L138.15,22.94L138.26,22.92L138.47,22.93L138.77,23.03"/><path d="M135.32,28.29L135.73,28.15"/><path d="M138.43,24.05L138.51,24.18L138.55,24.35L138.57,24.55L138.56,24.66L138.51,24.87L138.47,24.97L138.43,25.07L138.32,25.25L138.18,25.40L138.04,25.50L137.20,25.78"/><path d="M137.11,25.62L137.77,25.40L137.91,25.30L138.05,25.15L138.11,25.07L138.20,24.87L138.27,24.66L138.30,24.45L138.30,24.35L138.29,24.25L138.25,24.11"/></g></g><g id="Actor_.8"><g style="stroke:#000000;stroke-width:0.123"><path d="M105.45,38.31L104.27,37.83"/><path d="M104.77,37.66L105.49,37.95"/><path d="M106.60,37.78L106.62,37.91L106.62,38.11L106.59,38.29L106.52,38.43L106.47,38.49L106.41,38.53L106.35,38.57L106.29,38.59L106.22,38.59L106.10,38.57"/><path d="M106.35,38.57L109.90,37.40L109.96,37.36L110.02,37.32L110.10,37.20L110.13,37.12"/><path d="M106.34,38.01L106.31,38.12L106.27,38.16L106.23,38.19L106.19,38.20"/><path d="M106.34,37.08L106.13,36.56L109.68,35.40L110.07,36.37"/><path d="M106.13,36.56L105.90,36.67L106.13,37.25"/></g></g><g id="Actor_.9"><g style="stroke:#000000;stroke-width:0.123"><path d="M149.89,116.63L149.62,116.76L149.60,117.12L96.83,91.02"/><path d="M96.83,90.00L97.88,89.61L98.08,89.27L97.62,89.17L96.83,89.57"/><path d="M149.62,116.77L96.83,90.68"/><path d="M96.81,41.41L152.55,64.47L152.52,64.86L96.81,41.78"/><path d="M149.60,117.12L150.24,116.80"/><path d="M153.16,65.36L150.16,116.76L149.86,116.62L152.75,65.26L153.17,65.09"/><path d="M150.24,116.72L150.16,116.76"/><path d="M152.75,65.26L153.07,65.40"/><path d="M152.55,64.47L152.67,64.42"/><path d="M152.52,64.86L153.05,64.65"/></g></g><g id="Actor_.10"><g style="stroke:#000000;stroke-width:0.123"><path d="M170.18,19.54L170.17,19.57L170.06,19.62L169.87,19.64L169.80,19.63L169.55,19.46L169.38,19.17"/><path d="M169.38,19.17L169.32,18.83L169.34,18.73"/><path d="M170.28,19.40L170.25,19.44L170.17,19.57"/></g></g><g id="Actor_.11"><g style="stroke:#000000;stroke-width:0.123"><path d="M94.50,69.07L94.42,39.75L94.56,39.93L96.51,40.63L96.55,91.77L94.76,90.88L94.56,90.53L94.50,69.07"/><path d="M94.42,39.75L94.60,39.58L94.94,39.66L94.82,39.79"/><path d="M95.10,91.05L95.23,91.17"/><path d="M97.70,91.86L97.03,92.14L95.23,91.25L95.23,91.12"/><path d="M94.63,39.85L94.88,39.77L96.75,40.51L96.51,40.63"/><path d="M94.94,39.66L95.13,39.06L97.02,39.83L97.02,40.21L95.13,39.39"/><path d="M94.68,39.55L94.83,39.09L95.13,39.06"/><path d="M94.94,39.02L135.41,25.90"/><path d="M96.55,91.77L96.75,91.69L96.83,91.35L96.81,40.54"/><path d="M97.03,92.14L97.03,91.81L96.77,91.68"/><path d="M97.03,91.81L97.33,91.68"/><path d="M97.02,39.83L105.99,36.90"/><path d="M106.12,37.22L97.02,40.21"/><path d="M109.91,35.98L110.50,35.79"/><path d="M109.79,35.66L135.35,27.30"/><path d="M135.34,27.65L113.48,34.81"/><path d="M138.14,25.01L137.06,25.36"/><path d="M163.72,18.36L139.85,26.18"/><path d="M139.86,25.83L163.61,18.06"/><path d="M139.92,24.43L169.07,14.98"/><path d="M167.37,17.16L166.86,17.33"/><path d="M169.09,14.97L171.27,15.56L166.72,17.05"/><path d="M171.58,16.35L171.60,16.00L171.24,15.89L170.37,16.18"/><path d="M171.24,15.89L171.27,15.56"/><path d="M171.60,16.00L171.03,15.96"/><path d="M171.38,16.08L171.37,16.30"/></g></g><g id="Actor_.12"><g style="stroke:#000000;stroke-width:0.123"><path d="M192.01,151.97L192.98,152.47L191.19,169.23L190.74,169.53L192.52,152.76L191.96,152.47"/><path d="M192.52,152.76L192.98,152.47"/></g></g><g id="Actor_.13"><g style="stroke:#000000;stroke-width:0.123"><path d="M163.13,19.42L161.84,18.97"/><path d="M162.35,18.81L163.13,19.07"/><path d="M164.18,18.88L164.19,19.06L164.16,19.23L164.10,19.38L164.06,19.45L164.01,19.50L163.95,19.54L163.89,19.58L163.82,19.60L163.75,19.60L163.63,19.58"/><path d="M163.89,19.58L166.75,18.63L166.81,18.60L166.87,18.56L166.92,18.50L167.00,18.37L167.04,18.21L167.05,18.12L167.04,17.95"/><path d="M163.75,19.25L163.83,19.21L163.88,19.13"/><path d="M163.75,18.42L163.53,17.86L163.77,17.75L163.95,18.24"/><path d="M163.77,17.75L166.63,16.81L166.83,17.33"/></g></g><g id="Actor_.14"><g style="stroke:#000000;stroke-width:0.123"><path d="M96.58,40.44L98.50,39.81L98.11,39.94"/><path d="M96.81,40.95L153.21,64.35L153.50,65.13L150.46,117.56L149.87,117.72L96.83,91.43"/><path d="M96.81,41.32L153.05,64.64L150.16,117.33L96.83,91.10"/><path d="M98.00,89.17L98.01,89.46"/><path d="M98.30,39.79L104.27,37.83"/><path d="M110.49,35.80L109.91,35.99"/><path d="M134.28,28.00L113.50,34.81"/><path d="M139.85,26.18L161.84,18.98"/><path d="M150.32,117.72L219.30,82.50"/><path d="M166.88,17.33L167.36,17.17"/><path d="M175.29,18.10L177.88,18.96"/><path d="M219.36,82.47L219.59,82.09L225.47,35.53L225.35,34.97L224.94,34.62L178.37,19.12"/></g></g><g id="Actor_.15"><g style="stroke:#000000;stroke-width:0.123"><path d="M174.54,20.39L175.90,21.57L175.84,22.27L175.79,22.43L175.69,22.52L174.25,23.02L174.15,22.99L174.12,22.86L174.18,22.16L174.04,22.21L173.99,22.91L174.05,23.17L167.19,20.84L167.13,20.58L168.81,18.95"/><path d="M169.21,17.75L169.24,17.69L169.59,17.47L169.73,17.42L170.15,17.40L170.19,17.42"/><path d="M169.59,17.47L170.01,17.45L170.12,17.50"/><path d="M174.05,23.17L174.23,23.22L175.68,22.73L175.88,22.54L175.98,22.22L176.03,21.53L175.90,21.57"/><path d="M174.04,22.21L173.42,21.67"/><path d="M174.18,22.16L173.67,21.72"/><path d="M176.03,21.53L174.66,20.33"/></g></g><g id="Actor_.16"><g style="stroke:#000000;stroke-width:0.123"><path d="M135.99,28.42L136.09,25.77L136.12,25.46L136.20,25.14L136.30,24.83L136.44,24.53L136.60,24.26L136.79,24.03L137.00,23.83L137.22,23.68L137.44,23.58L138.83,23.14L138.94,23.13L139.15,23.14L139.25,23.17L139.43,23.26L139.60,23.40L139.72,23.58L139.78,23.70L139.86,23.95L139.91,24.23L139.92,24.53L139.81,27.16L139.81,27.23L139.84,27.38L139.91,27.50L140.01,27.59L140.06,27.61L141.82,28.25L138.01,29.52L136.20,28.85L136.12,28.78L136.06,28.70L136.01,28.56L135.99,28.42"/><path d="M138.01,29.52L137.99,29.87L136.17,29.19L136.03,29.09L135.97,29.03L135.82,28.79L135.75,28.59L135.73,28.32L135.82,25.67L135.84,25.51L135.88,25.21L135.92,25.04L136.03,24.73L136.17,24.43L136.25,24.30L136.43,24.04L136.63,23.83L136.84,23.65L136.95,23.58L137.17,23.49L138.56,23.05L138.67,23.03L138.88,23.04L139.25,23.17"/><path d="M137.23,24.71L137.12,24.96L137.07,25.18L137.06,25.38L137.09,25.57L137.16,25.73L137.26,25.84L137.39,25.90L137.53,25.91L138.37,25.64L138.52,25.57L138.66,25.44L138.81,25.23L138.92,24.98L138.96,24.77L138.97,24.56L138.96,24.46L138.91,24.29L138.87,24.22L138.77,24.10L138.65,24.04L138.51,24.03L137.59,24.33L137.45,24.43L137.38,24.50L137.23,24.71"/><path d="M137.23,25.81L137.34,25.79L138.17,25.51L138.32,25.41L138.45,25.27L138.56,25.09L138.65,24.88L138.69,24.71L138.70,24.56L138.69,24.36L138.67,24.27L138.60,24.12L138.53,24.03"/><path d="M137.99,29.87L141.80,28.61L141.82,28.25"/></g></g><g id="Actor_.17"><g style="stroke:#000000;stroke-width:0.123"><path d="M201.32,112.87L201.78,112.62L203.68,113.48L204.44,113.54L208.03,111.55L208.08,111.37L207.86,111.14L205.97,110.29L206.40,110.05L208.45,110.97L208.75,111.24L208.84,111.45L208.80,111.66L208.55,111.89L204.95,113.86L204.27,113.94L203.54,113.84L201.32,112.87L199.64,113.83L196.18,145.52"/><path d="M208.84,111.52L203.27,158.34L203.00,158.69L199.85,160.76L199.43,160.93L199.02,160.99"/><path d="M205.40,125.80L205.20,127.60L204.85,128.29L204.42,128.71"/><path d="M204.75,129.07L204.49,128.92L204.41,128.60L204.63,126.91L204.83,126.43L205.12,126.03L205.44,125.78L205.72,125.72L205.93,125.87L206.01,126.20L205.79,127.88L205.59,128.35L205.30,128.76L204.98,129.01L204.75,129.07"/><path d="M204.02,113.55L204.28,111.25L205.97,110.29"/><path d="M206.05,120.16L205.85,122.00L205.51,122.69L205.08,123.11"/><path d="M205.80,123.31L205.35,123.47L205.19,123.37L205.09,123.17L205.22,121.52L205.37,121.03L205.70,120.48L206.02,120.19L206.38,120.09L206.59,120.24L206.67,120.58L206.51,122.04L206.24,122.76L205.80,123.31"/><path d="M206.72,114.46L206.51,116.33L206.17,117.03L205.74,117.44"/><path d="M205.85,117.70L205.72,117.19L205.98,115.45L206.22,114.98L206.52,114.60L206.84,114.40L207.11,114.41L207.29,114.62L207.34,114.99L207.07,116.73L206.84,117.20L206.46,117.64L206.08,117.80L205.85,117.70"/></g></g><g id="Actor_.18"><g style="stroke:#000000;stroke-width:0.123"><path d="M205.00,143.88L205.91,144.33L203.94,160.80L203.51,161.08L205.48,144.60L204.94,144.34"/><path d="M205.48,144.60L205.91,144.33"/></g></g><g id="Actor_.19"><g style="stroke:#000000;stroke-width:0.123"><path d="M158.84,135.58L158.74,135.26L158.58,135.00L158.37,134.76L158.16,134.62L155.20,133.10L154.96,133.05L154.81,133.08L154.63,133.21L154.54,133.36"/><path d="M158.42,135.36L158.30,135.18L158.13,135.04L155.26,133.56L155.09,133.52L154.95,133.58"/><path d="M162.14,137.28L178.70,127.99L179.83,126.05L180.01,124.03L179.93,123.63L179.72,123.26L179.33,122.94L176.49,121.57L176.24,121.50L176.02,121.53L154.74,133.11"/><path d="M158.17,135.23L158.29,135.17"/><path d="M173.77,123.85L173.69,123.66L173.80,123.49L174.07,123.38L174.53,123.37L174.87,123.47L175.81,123.93L175.96,124.06L176.00,124.21L175.94,124.34L175.70,124.47L175.16,124.50L174.81,124.40L173.77,123.85"/><path d="M173.80,123.88L174.13,123.78L174.59,123.80L174.84,123.89L175.85,124.40"/><path d="M175.69,124.47L175.77,124.34"/></g></g><g id="Actor_.20"><g style="stroke:#000000;stroke-width:0.123"><path d="M162.48,146.74L141.96,135.88L140.78,133.82L140.89,131.90L141.31,130.97L141.82,130.52L145.07,128.81L145.55,128.74L183.42,148.25"/><path d="M166.15,148.68L167.03,149.15"/><path d="M173.65,152.65L180.52,156.29"/><path d="M198.64,164.31L199.07,164.02L199.29,162.16L199.61,161.51L203.04,159.23L203.21,159.26L203.29,159.45L203.08,161.36L203.51,161.08L203.73,159.20L203.57,158.64L203.32,158.57L203.00,158.69L199.51,161.07L198.92,162.15L198.64,164.31"/><path d="M199.91,161.27L201.48,162.09L203.08,161.36"/><path d="M203.51,158.60L203.23,158.46"/></g></g><g id="Actor_.21"><g style="stroke:#000000;stroke-width:0.123"><path d="M198.20,164.60L200.09,147.99L195.73,145.80L196.18,145.52L200.53,147.71L198.64,164.31L198.20,164.60L196.60,165.32L191.88,162.81"/><path d="M195.73,145.80L192.23,149.87"/><path d="M200.09,147.99L200.53,147.71"/></g></g><g id="Actor_.22"><g style="stroke:#000000;stroke-width:0.123"><path d="M190.65,121.19L190.90,118.69L192.58,117.73L194.41,118.58L194.69,118.81L194.71,118.96L194.55,119.14L190.93,121.14L190.46,121.18L190.07,121.10L188.15,120.20L185.98,121.42L182.90,153.74"/><path d="M185.94,169.55L186.38,169.49L186.83,169.31L190.21,167.08L190.46,166.69L195.48,119.04L195.39,119.24L195.16,119.42L191.69,121.37L191.25,121.53L190.65,121.59L189.90,121.48L187.66,120.47"/><path d="M192.11,133.62L192.34,133.55L192.54,133.60L192.72,133.94L192.60,135.39L192.49,135.87L192.18,136.46L191.77,136.87L191.38,136.99L191.16,136.84L191.06,136.41L191.25,134.84L191.62,134.08L192.08,133.64L192.12,133.96L191.93,135.45L191.58,136.16L191.08,136.63"/><path d="M192.70,127.87L193.07,127.83L193.23,127.96L193.31,128.20L193.20,129.67L193.08,130.16L192.84,130.64L192.45,131.10L192.04,131.28L191.75,131.12L191.65,130.68L191.85,129.05L192.21,128.33L192.70,127.87L192.59,129.38L192.48,129.87L192.16,130.46L191.67,130.92"/><path d="M193.30,122.05L193.12,123.96L192.78,124.65L192.27,125.14"/><path d="M192.31,125.26L192.25,124.88L192.37,123.60L192.54,122.97L193.05,122.23L193.39,122.01L193.68,122.01L193.87,122.22L193.93,122.60L193.79,124.00L193.63,124.50L193.29,125.07L192.88,125.43L192.50,125.47L192.31,125.26"/><path d="M192.58,117.73L193.06,117.47L195.11,118.44L195.41,118.72L195.48,119.04"/></g></g><g id="Actor_.23"><g style="stroke:#000000;stroke-width:0.123"><path d="M136.38,174.22L137.59,174.96L136.12,174.07L136.38,174.22L136.48,172.01L136.56,171.86L136.78,171.81L140.06,173.72L140.24,173.88L140.38,174.10L140.44,174.34L140.34,176.56L140.75,176.81L140.86,174.56L140.76,174.10L140.51,173.65L140.08,173.25L136.74,171.32L136.51,171.29L136.33,171.33L136.21,171.42L136.10,171.65L135.97,173.97L136.12,174.06L135.97,173.97"/><path d="M136.33,171.33L160.97,156.61L161.20,156.56L161.56,156.66L164.65,158.34L165.10,158.73L165.34,159.15L165.43,159.59L165.16,163.26L141.96,177.54L140.75,176.81"/><path d="M137.59,174.96L139.85,173.59"/><path d="M141.96,177.54L140.34,176.56"/><path d="M141.10,169.91L141.29,170.08L142.25,170.64L142.63,170.77L142.96,170.79L143.27,170.73L143.51,170.60L143.66,170.36L143.62,170.17L143.47,170.00L142.43,169.39L142.05,169.26L141.51,169.27L141.18,169.42L141.03,169.66L141.10,169.91"/><path d="M143.55,170.56L142.41,169.85L142.13,169.74L141.59,169.71L141.31,169.79L141.11,169.93"/></g></g><g id="Actor_.24"><g style="stroke:#000000;stroke-width:0.123"><path d="M165.62,153.56L165.49,153.25L165.26,153.04L158.89,149.62L158.77,149.58L158.65,149.58L158.56,149.63L158.49,149.73"/><path d="M166.03,153.78L165.94,153.37L165.78,153.06L165.55,152.79L165.29,152.59L158.83,149.14L158.57,149.09L158.34,149.14L158.17,149.30L158.09,149.52"/><path d="M158.34,149.14L166.30,144.52L166.53,144.47L166.70,144.49L166.88,144.56L173.22,147.88L173.48,148.06L173.71,148.33L173.87,148.64L173.95,148.97L173.95,149.17L173.65,152.65L169.08,155.42"/><path d="M161.56,151.38L161.85,151.21"/><path d="M167.22,149.05L167.00,149.16L166.72,149.21L166.52,149.20L166.22,149.15L165.05,148.54L164.93,148.44L164.86,148.33L164.85,148.21L164.88,148.11L164.97,148.01L165.11,147.93L165.47,147.85L165.87,147.88L166.14,147.98L167.20,148.56L167.30,148.67L167.34,148.78L167.33,148.90L167.27,149.00L167.22,149.05L167.03,148.91L166.11,148.42L165.84,148.32L165.64,148.29L165.34,148.30L165.15,148.34L164.94,148.45"/><path d="M166.17,148.45L166.15,148.68L165.75,148.92"/></g></g><g id="Actor_.25"><g style="stroke:#000000;stroke-width:0.123"><path d="M111.19,159.29L111.25,157.01L111.40,156.74L111.59,156.65L111.75,156.65L112.00,156.75L114.91,158.46L115.32,158.84L115.55,159.27L115.66,159.71L115.61,161.91L115.23,161.68L115.27,159.52L115.08,159.06L114.90,158.91L111.93,157.17L111.72,157.17L111.61,157.36L111.57,159.51L112.84,160.29L111.19,159.29"/><path d="M111.57,159.51L111.37,159.40"/><path d="M111.46,156.70L136.36,143.13L136.59,143.11L136.84,143.20L139.73,144.77L139.98,144.96L140.20,145.22L140.36,145.53L140.45,145.96L140.29,149.54L116.87,162.68L115.61,161.91"/><path d="M112.84,160.29L115.07,159.05"/><path d="M115.28,161.71L116.87,162.68"/><path d="M116.17,155.44L116.07,155.21L116.13,155.04L116.24,154.94L116.57,154.80L117.09,154.79L117.46,154.91L118.41,155.47L118.55,155.63L118.57,155.81L118.41,156.03L118.17,156.14L117.55,156.18L117.19,156.06L116.17,155.44"/><path d="M118.47,155.98L117.45,155.36L117.18,155.25L116.57,155.24L116.17,155.44"/></g></g><g id="Actor_.26"><g style="stroke:#000000;stroke-width:0.123"><path d="M177.46,159.92L132.17,135.68L128.40,137.59L127.95,137.96L127.59,138.51L127.44,139.00L127.36,140.96L128.52,143.06L132.48,145.24"/><path d="M140.29,149.54L157.19,158.86"/><path d="M165.16,163.26L173.68,167.96"/><path d="M185.60,172.94L185.85,170.75L186.46,169.63L190.24,167.07L190.56,166.99L190.81,167.10L190.94,167.62L190.74,169.53L190.29,169.83L190.48,167.96L190.42,167.73L190.26,167.66L186.58,170.07L186.25,170.74L186.06,172.63L185.60,172.94"/><path d="M190.29,169.83L188.70,170.55L187.11,169.69"/><path d="M190.70,167.02L190.40,166.86"/></g></g><g id="Actor_.27"><g style="stroke:#000000;stroke-width:0.123"><path d="M173.64,168.49L174.03,164.00L182.43,154.03L186.83,156.34L185.13,173.24L183.54,173.95L173.64,168.49"/><path d="M182.43,154.03L182.90,153.74L187.30,156.04L186.83,156.34"/><path d="M185.13,173.24L185.59,172.94L187.30,156.04"/></g></g><g><g><path style="stroke:#000000;stroke-width:0.210;stroke-dasharray:2.4 2.4" d="M155.63,146.66L155.23,146.89L158.69,93.06L158.86,93.14L158.44,93.33"/></g></g><g id="PMI2.0"><g><path style="stroke:#000000;stroke-width:0.280" d="M87.76,82.98L93.56,82.73"/></g><g><path style="fill:#000000" d="M93.61,83.73L93.53,81.74L95.57,82.65z"/></g><g><path style="fill:#ffffff" d="M72.29,85.84L87.77,85.84L87.77,80.77L72.29,80.77z"/><path style="stroke:#000000;stroke-width:0.280;stroke-opacity:0.98" d="M72.29,85.84L87.77,85.84L87.77,80.77L72.29,80.77z"/><text xml:space="preserve" fill="#000000" stroke-width="0" x="72.93" y="84.42" font-size="3.04" opacity="1.00" font-family="Microsoft Sans Serif">1000XV30</text></g></g><g id="PMI1.0"><g><path style="stroke:#000000;stroke-width:0.280" d="M205.51,135.62L193.09,136.49"/></g><g><path style="fill:#000000" d="M193.01,135.49L193.15,137.48L191.09,136.62z"/></g><g><path style="fill:#ffffff" d="M205.50,137.60L221.32,137.60L221.32,132.52L205.50,132.52z"/><path style="stroke:#000000;stroke-width:0.280;stroke-opacity:0.98" d="M205.50,137.60L221.32,137.60L221.32,132.52L205.50,132.52z"/><text xml:space="preserve" fill="#000000" stroke-width="0" x="206.14" y="136.17" font-size="3.04" opacity="1.00" font-family="Microsoft Sans Serif">1000ZM60</text></g></g><g/><g id="paperID" visibility="hidden" opacity="0.00" transform="scale(0.000100)"><path style="stroke:#000000;stroke-width:0.500;fill:#e6e6e6;fill-rule:evenodd" d="M-2000.00,-2000.00L2297.00,-2000.00L2297.00,2210.00L-2000.00,2210.00zM0.00,0.00L297.00,0.00L297.00,210.00L0.00,210.00z"/><path style="fill:#000000;fill-opacity:0.118" d="M3.00,210.00L297.00,210.00L297.00,3.00L300.00,3.00L300.00,213.00L3.00,213.00z"/></g><g id="hotspot.0" onmouseover="ShowHotSpot(evt,'0')" onmouseout="HideHotSpot(evt,'0')" onmousemove="ShowToolTip(evt,'0',&quot;3dp577673 (I_GIÁ DỌC 1, SS400, T3.52)&quot;)" opacity="0"><path style="fill:#00ff00;fill-rule:evenodd" d="M208.68,110.96L208.68,113.11L206.82,128.02L206.52,132.24L221.34,132.41L221.34,137.53L205.73,137.80L205.05,143.67L205.77,144.16L205.74,145.75L203.88,160.66L202.21,161.64L201.33,161.86L200.15,161.21L199.57,161.31L198.98,163.98L197.21,164.88L196.32,165.10L191.92,162.69L191.34,168.11L190.94,169.18L189.49,170.08L188.09,170.08L187.51,169.74L186.81,169.73L186.31,170.44L186.03,172.51L183.89,173.63L183.09,173.63L174.00,168.58L173.11,167.41L165.45,163.27L164.78,163.27L142.43,177.16L141.64,177.15L140.47,176.54L140.50,174.18L140.15,173.58L139.49,173.56L138.02,174.50L136.96,174.47L136.04,173.87L136.03,173.12L136.26,171.25L156.86,158.86L156.91,158.60L140.46,149.45L140.07,149.45L117.10,162.43L116.68,162.43L115.37,161.63L115.17,159.16L114.50,159.14L113.59,159.76L112.21,159.79L111.35,159.19L111.35,156.64L132.22,145.16L131.98,144.78L128.42,142.70L127.54,141.23L127.50,138.68L128.12,137.53L131.84,135.63L132.52,135.63L157.82,149.22L158.28,149.19L159.48,148.30L162.25,146.67L161.97,146.24L141.95,135.64L141.03,134.21L141.03,131.32L141.83,130.36L145.07,128.57L145.75,128.57L154.29,133.05L154.89,132.87L175.64,121.53L176.94,121.53L178.69,122.43L179.89,123.29L179.88,125.77L178.67,127.79L162.39,137.10L162.77,137.43L178.70,145.70L179.30,145.52L183.89,142.72L185.95,121.25L188.00,120.04L190.47,121.03L190.76,120.50L191.04,118.41L192.71,117.40L193.39,117.40L195.49,118.58L194.18,130.96L193.87,136.06L195.34,135.94L197.23,134.59L199.56,114.58L199.78,113.62L201.22,112.71L202.52,112.71L204.01,113.40L204.24,111.32L205.94,110.06L206.93,110.06zM193.71,136.94L193.61,136.56L193.95,136.50zM166.94,148.92L166.00,148.87L165.94,148.57zM196.01,145.43L192.52,149.32L192.51,147.52L192.81,146.05L196.37,143.90zM164.31,152.41L163.67,152.41L163.60,152.09L163.99,152.09zM180.17,155.97L180.20,156.63L177.69,159.49L176.93,159.51L169.46,155.44L169.55,154.90L173.30,152.68L173.98,152.68z"/></g><g id="hotspot.1" onmouseover="ShowHotSpot(evt,'1')" onmouseout="HideHotSpot(evt,'1')" onmousemove="ShowToolTip(evt,'1',&quot;prd332917 (NAUO3)&quot;)" opacity="0"><path style="fill:#00ff00;fill-rule:evenodd" d="M170.46,15.10L171.65,15.96L174.31,17.42L177.51,18.66L178.96,18.59L178.64,18.93L225.13,34.52L225.49,35.09L219.47,82.14L150.67,117.45L149.57,117.45L98.12,91.81L96.65,91.88L94.80,90.76L94.59,83.29L93.63,83.42L93.40,82.74L92.04,82.63L93.39,82.21L94.28,81.64L94.55,39.27L95.45,38.70L135.37,25.69L136.07,23.74L137.12,23.03L138.43,22.76L139.29,23.03L140.10,24.02L140.96,23.94L169.20,14.79zM88.01,82.54L92.04,82.63L91.91,82.80L88.01,83.01L87.84,85.78L72.13,85.78L72.13,80.66L87.84,80.66zM138.13,24.87L137.20,25.19L137.17,24.60L137.45,24.18L138.12,24.20z"/></g></g></svg>
