<?xml version="1.0" encoding="UTF-8" standalone="no"?>
<svg xmlns="http://www.w3.org/2000/svg" xmlns:xlink="http://www.w3.org/1999/xlink" width="297.000mm" height="210.000mm" viewBox="0.000000 0.000000 297.000000 210.000000" stroke-linejoin="round" stroke-linecap="round" fill="none" fill-rule="evenodd"><desc>Composer Export</desc><script type="text/ecmascript"><![CDATA[
if(typeof(top) != "undefined")
{
	top.ShowPaper = ShowPaper;
}
function ShowHotSpot(evt,hotspotid)
{
	var svgDocument = evt.target.ownerDocument;
	var strId = "hotspot."+hotspotid;
	var hotspot = svgDocument.getElementById(strId);
	if(hotspot)
		hotspot.setAttribute("opacity",".5");
}
function HideHotSpot(evt,hotspotid)
{
	var svgDocument = evt.target.ownerDocument;
	var strId = "hotspot."+hotspotid;
	var hotspot = svgDocument.getElementById(strId);
	if(hotspot)
		hotspot.setAttribute("opacity","0");

	var toolTip = svgDocument.getElementById('ToolTip');
	if(toolTip)
		toolTip.setAttribute("visibility","hidden");
}
function ShowToolTip(evt,hotspotid,strTooltip)
{
	if(strTooltip=="")
	return;

	// change text
	var svgDocument = evt.target.ownerDocument;
	var tiptext = svgDocument.getElementById('ToolTipText');
	if( !tiptext )
	return;
	tiptext.firstChild.nodeValue = " " + strTooltip + "  " ;

	// show tooltip before, else some refresh issue

	var toolTip = svgDocument.getElementById('ToolTip');
	if(!toolTip)
	return;

	toolTip.setAttribute("visibility","visible");
	toolTip.setAttribute("opacity",".95");

	// move tooltip
	// get viewbox

	var root = svgDocument.documentElement;
	var vbox = (root.getAttribute("viewBox")).split(' ');
	var x0 = parseFloat(vbox[0]);
	var y0 = parseFloat(vbox[1]);
	var vboxW = parseFloat(vbox[2]);
	var vboxH = parseFloat(vbox[3]);

	// get default width of svg

	var strW = root.getAttribute("width");
	var svgW = parseFloat(strW);
	if(strW.indexOf('mm') != -1)
	svgW *= 3.779;

	var strH = root.getAttribute("height");
	var svgH = parseFloat(strH);
	if(strH.indexOf('mm') != -1)
	svgH *= 3.779;  	// 96 dpi  -> 96/25.4 = 3.779

	// update the viewbox / width / height if svg is embedded in html with zoom fit all
	var realx0 = x0;
	var realy0 = y0;
	var realvboxW = vboxW;
	var realvboxH = vboxH;
	var realsvgW = svgW;
	var realsvgH = svgH;

	if ((typeof(top) == "undefined") || (typeof(top.svgctl1) != "undefined")) // embedded in html
	{
		// get window size in pxl

		svgW = window.innerWidth;
		svgH = window.innerHeight;

		// calculate real viewbox

		realsvgW = svgW;
		realsvgH = svgH;
		if((svgW / svgH) > (vboxW / vboxH))
		{
			realvboxW = (vboxH * svgW) / svgH;
			realvboxH = vboxH;
			realx0 = x0 - (realvboxW - vboxW)/2 ;
		}
		else
		{
			realvboxH = (vboxW * svgH) / svgW;
			realvboxW = vboxW;
			realy0 = y0 - (realvboxH - vboxH)/2 ;
		}
	}

	// get user zoom/pan

	var newScale = root.currentScale;
	var translation = root.currentTranslate;

	// transform pxl to user unit

	var xPos = (((evt.clientX+10- translation.x)/newScale) * realvboxW)/realsvgW  + realx0 ;
	var yPos = (((evt.clientY+5- translation.y)/newScale) * realvboxH)/ realsvgH  + realy0 ;
	var scaleForWidth = ( (1 / newScale) * realvboxH) / realsvgH;

	// move tooltip

	toolTip.setAttribute("transform", "translate(" + xPos + "," + yPos + ")" );

	// resize tooltip

	var fontsize = 12;
	tiptext.setAttribute("font-size",fontsize*scaleForWidth);
	tiptext.setAttribute("y", fontsize*scaleForWidth);
	var tipBG = svgDocument.getElementById('ToolTipBG');
	var outline = tiptext.getBBox();
	if(tipBG)
	{
		tipBG.setAttribute("stroke-width", 1*scaleForWidth);
		tipBG.setAttribute("width", Number(outline.width) );
		tipBG.setAttribute("height", Number(outline.height) + fontsize*.5*scaleForWidth );
	}
	var ToolTipShadow = svgDocument.getElementById('ToolTipShadow');
	if(ToolTipShadow)
	{
		ToolTipShadow.setAttribute("width", Number(outline.width) );
		ToolTipShadow.setAttribute("height", Number(outline.height) + fontsize*.5*scaleForWidth );
		ToolTipShadow.setAttribute("x", 3*scaleForWidth);
		ToolTipShadow.setAttribute("y", 3*scaleForWidth);
	}
}
function ShowPaper()
{
  var svgDocument = getDocument();
  var paper = svgDocument.getElementById("paperID");
  if(paper)
  {
    paper.setAttribute("transform","scale(1)");
    paper.setAttribute("opacity","1");
    paper.setAttribute("visibility","visible");
  }
  var svg = svgDocument.getRootElement();
  if(svg)
  {
    svg.setAttribute("width","307.000mm");
    svg.setAttribute("height","220.000mm");
    svg.setAttribute("viewBox","-5.000000 -5.000000 307.000000 220.000000");
  }
}
]]></script><defs/><g><path style="fill:#ffffff" d="M296.92,209.84L0.08,209.84L0.08,0.08L296.92,0.08z"/><path style="fill:#cacaca" d="M159.30,135.82L160.11,138.24L160.10,140.75L159.84,142.64L159.23,144.71L157.42,147.75L155.43,149.25L152.79,149.33L152.60,149.18L152.55,149.01L151.86,148.96L150.98,148.44L150.03,147.02L150.96,147.22L150.95,142.91L151.75,139.12L153.53,136.06L155.51,134.28L157.23,133.93L157.44,133.96z"/><path style="fill:#e1e1e1" d="M110.48,41.06L98.46,41.75L96.58,42.29L95.26,43.38L94.55,44.56L77.57,86.98L77.32,88.87L77.32,107.07L77.84,109.50L93.49,142.87L91.17,142.45L90.21,140.94L75.16,108.95L74.62,107.07L74.63,87.53L75.16,85.38L91.71,44.40L92.93,42.66L94.42,41.74L95.78,41.49L104.38,40.95z"/><path style="fill:#ffffff" d="M156.72,137.65L157.12,139.84L156.61,142.91L155.80,144.51L154.77,145.90L153.45,146.44L152.56,144.98L152.57,141.01L153.12,139.41L154.21,137.54L155.45,136.60L155.81,136.60z"/><path style="fill:#cacaca" d="M113.58,42.58L114.42,44.42L114.68,46.32L114.71,50.26L114.56,51.34L114.44,68.00L114.29,69.08L114.18,86.01L114.01,86.81L113.96,92.68L94.43,89.58L93.43,89.94L91.85,91.31L90.47,93.70L90.22,95.06L90.20,98.48L90.47,99.29L91.00,99.84L121.97,105.53L123.00,99.88L123.97,97.90L125.34,96.31L126.53,95.53L127.08,95.37L127.41,95.09L128.90,96.33L130.00,98.73L130.00,101.77L129.73,103.13L128.92,105.00L127.74,106.51L125.89,107.62L123.55,107.60L114.95,105.99L113.77,105.98L113.33,134.83L113.08,136.47L112.26,138.33L110.89,140.19L109.49,140.94L97.67,144.43L94.78,144.43L92.36,143.62L91.29,142.79L91.17,142.45L93.49,142.87L77.84,109.50L77.32,107.07L77.32,88.87L77.57,86.98L94.55,44.56L95.26,43.38L96.58,42.29L98.46,41.75L110.48,41.06L111.73,41.20z"/><path style="fill:#cacaca" d="M134.84,47.93L137.29,50.58L138.88,54.64L139.13,60.65L138.34,64.69L136.63,68.37L135.40,69.82L134.08,71.45L131.00,72.68L128.38,72.67L125.44,71.84L123.02,69.42L122.36,67.71L123.84,67.64L123.28,64.33L123.28,59.31L124.35,54.46L126.52,50.46L128.83,48.20L132.04,47.02z"/><path style="fill:#cacaca" d="M161.45,57.07L162.52,60.57L162.26,64.96L161.44,67.37L160.00,69.69L157.88,71.06L155.79,71.06L153.93,70.50L152.31,68.61L152.11,68.08L153.13,67.92L153.11,64.68L153.56,60.83L154.91,57.61L155.98,56.27L157.58,55.18L159.14,55.03L159.97,55.37L160.10,56.08L160.25,55.66z"/><path style="fill:#cacaca" d="M206.87,62.18L207.40,64.33L207.40,68.71L206.88,71.69L204.73,76.26L203.56,76.97L199.51,78.05L196.65,77.77L193.69,77.24L192.08,72.66L173.25,70.26L171.68,69.15L171.20,68.06L189.67,70.24L191.29,70.25L191.16,69.44L193.16,69.44L196.38,69.80L197.67,67.04L198.26,66.83L198.80,64.41L200.35,61.12L201.76,59.85L202.20,59.21L204.12,58.71L204.61,58.30L205.02,58.39z"/><path style="fill:#cacaca" d="M135.41,125.31L137.27,128.55L137.52,130.45L137.79,133.76L137.26,137.80L135.83,141.74L133.26,145.62L130.16,147.90L127.21,148.20L124.91,147.63L122.49,146.02L121.46,144.14L122.76,144.25L122.79,143.90L122.45,143.36L121.93,139.86L121.93,137.25L122.46,133.48L124.23,129.07L126.71,125.64L129.63,123.72L132.80,123.56z"/><path style="fill:#cacaca" d="M201.50,142.27L203.10,145.50L203.66,148.47L202.85,153.93L200.96,158.23L199.24,159.73L196.05,161.10L194.49,161.10L190.21,160.01L188.07,154.89L187.25,154.36L170.06,150.32L168.62,149.33L168.49,148.72L191.54,154.11L192.61,154.19L193.86,151.67L194.53,151.26L194.96,149.00L196.53,145.46L197.97,143.99L197.95,143.61L200.60,141.98L200.83,141.64z"/><path style="fill:#e1e1e1" d="M109.02,52.79L109.57,54.38L109.57,57.16L109.32,58.52L108.50,60.12L107.45,61.49L105.81,62.26L100.08,62.99L98.01,62.99L97.03,62.68L103.32,61.92L104.76,60.95L106.00,59.50L106.63,57.98L106.88,54.65L106.43,52.47L108.23,52.50z"/><path style="fill:#e1e1e1" d="M160.25,55.66L160.10,56.08L159.97,55.37z"/><path style="fill:#e1e1e1" d="M133.79,56.78L134.05,57.05L134.57,58.68L134.56,60.92L134.31,62.28L133.50,63.88L132.05,65.12L130.53,65.14L129.56,64.85L130.56,64.17L131.81,62.74L132.42,60.66L132.42,57.88L132.00,56.47z"/><path style="fill:#e1e1e1" d="M204.61,58.30L204.12,58.71L202.20,59.21L201.76,59.85L200.35,61.12L198.80,64.41L198.26,66.83L197.67,67.04L196.38,69.80L193.16,69.44L191.16,69.44L191.29,70.25L189.67,70.24L171.20,68.06L170.57,65.94L170.58,64.96L171.11,62.52L172.89,60.01L173.99,59.76L177.03,59.76L193.15,61.46L193.90,59.24L198.72,57.88L201.76,57.88z"/><path style="fill:#e1e1e1" d="M160.15,59.71L161.19,61.91L160.92,65.24L159.84,67.38L158.14,68.66L157.42,68.66L156.17,68.07L157.18,67.68L157.97,67.12L159.04,64.97L159.29,63.34L159.13,59.44L159.85,59.46z"/><path style="fill:#e1e1e1" d="M121.13,59.04L121.92,54.72L123.97,50.59L126.95,47.66L129.64,46.86L132.04,47.02L128.83,48.20L126.52,50.46L124.35,54.46L123.28,59.31L123.28,64.33L123.84,67.64L122.36,67.71L121.38,65.15L121.13,61.91z"/><path style="fill:#e1e1e1" d="M151.50,62.26L151.76,60.10L153.31,56.82L155.43,54.90L159.14,55.03L157.58,55.18L155.98,56.27L154.91,57.61L153.56,60.83L153.11,64.68L153.13,67.92L152.11,68.08L151.49,65.68z"/><path style="fill:#e1e1e1" d="M94.82,79.61L90.13,83.41L89.04,84.74L87.15,87.15L85.11,91.02L82.95,98.00L81.65,101.81L81.07,100.89L80.27,97.12L80.27,93.98L80.79,90.47L82.61,85.83L84.46,83.12L86.72,81.08L88.34,80.01L89.58,79.36L91.21,79.11L93.44,79.11z"/><path style="fill:#e1e1e1" d="M113.96,92.68L127.41,95.09L127.08,95.37L126.53,95.53L125.34,96.31L123.97,97.90L123.00,99.88L121.97,105.53L91.00,99.84L90.47,99.29L90.20,98.48L90.22,95.06L90.47,93.70L91.85,91.31L93.43,89.94L94.43,89.58z"/><path style="fill:#e1e1e1" d="M132.80,123.56L129.63,123.72L126.71,125.64L124.23,129.07L122.46,133.48L121.93,137.25L121.93,139.86L122.45,143.36L122.79,143.90L122.76,144.25L121.46,144.14L120.57,142.29L119.95,138.26L120.57,133.48L122.47,128.65L125.04,125.31L128.02,123.45L131.32,123.18z"/><path style="fill:#e1e1e1" d="M107.97,124.53L108.51,125.33L108.77,127.84L108.23,130.27L107.04,132.58L105.27,134.03L99.01,135.83L96.10,135.85L95.68,135.49L102.32,133.49L103.96,132.45L105.01,131.08L105.82,128.93L106.08,126.42L105.63,123.96z"/><path style="fill:#e1e1e1" d="M132.43,132.58L132.96,133.67L132.70,137.54L131.35,139.68L129.64,140.69L128.90,140.71L128.45,140.12L129.73,139.14L130.81,137.26L131.35,135.10L131.17,132.28z"/><path style="fill:#e1e1e1" d="M157.23,133.93L155.51,134.28L153.53,136.06L151.75,139.12L150.95,142.91L150.96,147.22L150.03,147.02L149.34,144.97L149.34,141.01L150.61,137.17L152.33,134.86L154.09,133.66L156.61,133.66z"/><path style="fill:#e1e1e1" d="M158.01,138.19L158.77,139.84L158.50,143.18L157.39,145.56L155.97,146.85L155.00,146.85L153.60,146.58L153.45,146.44L154.77,145.90L155.80,144.51L156.61,142.91L157.12,139.84L156.72,137.65z"/><path style="fill:#e1e1e1" d="M189.92,143.99L190.40,143.09L195.86,140.41L200.83,141.64L200.60,141.98L197.95,143.61L197.97,143.99L196.53,145.46L194.96,149.00L194.53,151.26L193.86,151.67L192.61,154.19L191.54,154.11L168.49,148.72L167.89,146.85L167.90,145.32L168.15,143.69L169.79,141.03L171.56,140.10L172.46,140.12z"/><path style="fill:#e1e1e1" d="M152.60,149.18L151.86,148.96L152.55,149.01z"/><path style="fill:#ffffff" d="M105.04,50.58L106.43,52.47L106.88,54.65L106.63,57.98L106.00,59.50L104.76,60.95L103.32,61.92L97.03,62.68L95.88,61.89L95.04,60.31L94.78,59.23L94.78,55.54L95.77,52.76L97.39,51.16L98.72,50.61L104.75,50.33z"/><path style="fill:#ffffff" d="M132.00,56.47L132.42,57.88L132.42,60.66L131.81,62.74L130.56,64.17L129.56,64.85L128.36,63.28L128.12,61.91L128.12,59.04L128.37,57.68L129.61,55.69L130.84,54.90z"/><path style="fill:#ffffff" d="M158.26,58.38L159.13,59.44L159.29,63.34L159.04,64.97L157.97,67.12L157.18,67.68L156.17,68.07L155.30,66.98L154.97,66.50L154.72,65.14L154.72,62.26L155.26,60.11L156.23,58.66L157.33,57.84L157.93,57.87z"/><path style="fill:#ffffff" d="M105.63,123.96L106.08,126.42L105.82,128.93L105.01,131.08L103.96,132.45L102.32,133.49L95.68,135.49L94.78,134.48L94.23,133.15L94.24,129.45L95.23,126.68L96.57,125.06L99.00,124.00L104.51,122.66z"/><path style="fill:#ffffff" d="M131.17,132.28L131.35,135.10L130.81,137.26L129.73,139.14L128.45,140.12L127.83,140.17L127.52,139.93L126.71,137.42L127.29,134.01L128.67,131.89L129.92,131.22L130.28,131.21z"/><g id="Actor_.0"><g style="stroke:#000000;stroke-width:0.018"><path d="M75.10,108.88L77.85,109.44L93.49,142.78L94.43,144.07L95.68,144.72"/><path d="M74.46,105.81L77.22,106.36L77.38,107.99L77.85,109.44"/><path d="M74.46,88.93L77.24,89.41L77.22,106.36"/><path d="M75.12,85.59L77.88,86.05L77.40,87.69L77.24,89.41"/><path d="M78.52,101.54L78.28,99.94L78.21,96.92L78.48,93.85L79.10,90.81L80.05,87.90L81.30,85.19L82.81,82.76L84.55,80.66L86.77,78.74L89.13,77.40L91.75,76.66L91.98,78.24L92.66,79.62L90.43,80.25L88.43,81.40L86.55,83.05L85.44,84.35L84.43,85.81L83.52,87.45L82.75,89.21L82.11,91.07L81.64,93.01L81.33,94.93L81.19,96.86L81.21,98.85L81.41,100.79L81.76,102.52L82.25,104.15L83.47,106.75L85.07,108.84L85.64,109.37L87.44,110.57L89.41,111.23L91.48,111.33L92.45,111.18L91.76,112.28L91.51,113.73L90.37,113.91L87.94,113.81L85.62,113.05L83.49,111.65L81.90,109.98L80.55,107.92L79.47,105.52L78.71,102.84L78.52,101.54"/><path d="M77.88,86.05L94.21,45.25L91.41,44.98"/><path d="M98.64,103.00L97.83,104.02L96.20,105.30L94.32,106.04L93.80,106.12L92.28,106.04L90.84,105.48L89.57,104.47L88.51,103.04L87.72,101.28L87.24,99.24L87.10,96.77L87.39,94.23L88.10,91.78L89.18,89.58L90.71,87.60L92.45,86.26L94.47,85.52L94.17,83.08L93.65,81.38L92.66,79.62L94.41,79.56L95.70,79.78L96.93,80.23L98.10,80.89L99.18,81.76L100.19,82.85L101.43,84.74L102.38,86.94L102.93,88.94L103.25,90.98"/><path d="M90.81,142.11L93.49,142.78"/><path d="M91.51,113.73L94.22,112.73L96.50,111.22L98.59,109.18L100.18,107.07L101.55,104.68L102.00,103.63"/><path d="M92.49,101.73L92.26,101.67L91.90,101.31"/><path d="M91.75,76.66L93.81,76.61L95.82,77.04L97.70,77.92L99.39,79.21L100.91,80.93L102.17,82.99L103.15,85.33L103.85,87.91L104.25,91.15"/><path d="M101.03,103.44L99.99,105.29L98.48,107.32L96.69,109.06L94.76,110.33L92.45,111.18L93.44,109.81L94.09,108.05L94.32,106.04"/><path d="M95.50,89.71L94.91,89.54L94.65,89.62"/><path d="M94.47,85.52L95.30,85.45L96.80,85.71L98.18,86.42L99.37,87.56L100.33,89.08L100.90,90.58"/><path d="M94.21,45.25L95.20,43.50L96.52,42.33L97.99,41.85L95.20,41.59"/><path d="M95.55,135.46L98.12,136.13L104.69,134.34L106.24,133.48L107.56,131.87L108.45,129.76L108.63,128.48L108.78,127.46L108.50,125.32L107.66,123.65L106.37,122.70L104.88,122.64L104.50,122.72"/><path d="M95.69,135.55L96.52,136.12L98.12,136.13"/><path d="M96.97,62.76L97.14,62.92L98.78,63.21L105.53,62.47L102.78,62.13"/><path d="M97.99,41.85L110.74,41.05"/><path d="M104.69,134.34L102.02,133.72"/><path d="M105.53,62.47L107.12,61.82L108.47,60.35L109.38,58.27L109.72,55.89L109.44,53.57L108.58,51.66L107.26,50.43L105.67,50.09L104.54,50.18"/></g><g style="stroke:#000000;stroke-width:0.123"><path d="M113.81,105.84L113.38,134.25L113.06,136.52L112.18,138.61L110.90,140.21L109.39,141.08L97.10,144.65L95.68,144.72L93.00,144.04L91.74,143.39L90.81,142.11L75.12,108.91L74.63,107.44L74.46,105.81L74.46,88.93L74.63,87.22L75.11,85.59L91.40,45.00L92.41,43.24L93.72,42.06L95.20,41.59L107.98,40.80L110.74,41.05L112.29,41.42L113.59,42.66L114.41,44.54L114.70,46.91L114.01,92.78"/><path d="M90.12,97.47L90.17,98.35L90.28,98.63"/><path d="M90.22,95.06L90.03,95.94L90.05,96.28"/><path d="M91.14,100.55L90.97,100.38L90.67,99.63"/><path d="M90.97,92.75L90.59,93.46L90.49,93.85"/><path d="M91.78,101.20L91.90,101.31"/><path d="M92.24,90.93L91.68,91.44L91.52,91.72"/><path d="M93.00,90.24L93.21,90.05L93.83,89.86"/><path d="M94.44,133.85L94.26,133.51L93.96,131.30L94.30,128.93L95.24,126.75L96.62,125.11L98.23,124.26L104.50,122.72L104.98,123.07L105.83,124.73L106.11,126.87L105.78,129.16L104.89,131.26L103.57,132.86L102.02,133.72L95.55,135.46L95.17,135.20L94.44,133.85"/><path d="M94.70,58.85L94.51,57.37L94.86,54.91L95.82,52.77L97.24,51.27L98.90,50.65L104.54,50.18L105.82,51.36L106.69,53.27L106.97,55.58L106.63,57.95L105.73,60.00L104.37,61.49L102.78,62.13L96.97,62.76L95.75,61.71L94.82,59.76L94.70,58.85"/></g></g><g id="Actor_.1"><g style="stroke:#000000;stroke-width:0.018"><path d="M94.44,89.59L125.60,94.81L123.95,95.63L122.53,97.33L121.55,99.65L121.18,102.23L121.46,104.67L122.36,106.59L123.73,107.70"/><path d="M126.07,107.59L126.39,106.72L125.09,106.62L124.00,105.73L123.29,104.19L123.07,102.24L123.37,100.17L124.15,98.31L125.28,96.95L126.60,96.30L126.32,95.32L125.60,94.81L127.22,95.00"/><path d="M126.39,106.72L127.69,106.04L128.81,104.68L129.57,102.85L129.87,100.82L129.65,98.89L128.96,97.35L127.89,96.44L126.60,96.30"/></g><g style="stroke:#000000;stroke-width:0.123"><path d="M96.10,89.78L127.22,95.00L129.10,96.57L129.91,98.37L130.16,100.64L129.81,103.03L128.92,105.18L127.61,106.78L126.07,107.59L125.35,107.83L123.73,107.70L92.68,101.88"/></g></g><g id="Actor_.2"><g style="stroke:#000000;stroke-width:0.018"><path d="M151.66,149.04L150.13,147.30L149.39,144.42L149.57,140.95L150.65,137.58L152.42,134.96L154.51,133.60"/><path d="M151.71,149.04L152.33,149.09L150.77,146.77L150.31,143.16L151.05,139.16L152.82,135.80L155.16,133.91L157.48,133.94"/><path d="M152.33,149.09L152.56,148.98L152.72,148.78L152.84,148.52L151.50,146.27L151.16,142.92L151.90,139.28L153.54,136.25L155.68,134.57L157.79,134.61L157.77,134.18"/><path d="M152.54,149.22L152.46,149.18L152.69,149.08L152.85,148.88L152.97,148.62L153.53,148.95L153.27,149.32L152.88,149.41L152.54,149.22"/><path d="M151.79,149.11L152.46,149.18"/><path d="M152.84,148.52L153.32,146.90L152.26,144.59L152.29,142.72"/><path d="M152.30,142.34L152.32,141.34L152.77,140.14"/><path d="M153.53,148.95L155.79,148.85L157.99,146.86L159.56,143.54L160.09,139.76L159.45,136.49L157.79,134.61"/><path d="M152.97,148.62L153.44,147.01L153.48,146.67L153.41,146.50L153.98,146.94L153.69,146.69L153.54,146.60"/><path d="M153.44,147.01L154.00,147.37L153.98,146.94"/><path d="M153.32,146.90L153.36,146.56L153.30,146.45L153.41,146.50"/><path d="M153.69,146.69L155.60,146.45L157.34,144.39L158.26,141.30L158.01,138.35L156.68,136.63L157.07,136.54L157.33,136.17L155.37,136.29L153.49,138.22L152.96,139.63"/><path d="M153.28,146.40L153.30,146.45"/><path d="M154.00,147.37L155.76,147.30L157.48,145.75L158.71,143.16L159.13,140.19L158.63,137.64L157.33,136.17"/><path d="M156.68,137.64L157.06,138.14L157.31,141.09L156.40,144.17L154.66,146.23L154.24,146.28"/><path d="M155.55,136.51L155.28,136.72"/><path d="M156.68,136.63L155.93,136.68L156.22,137.06"/><path d="M155.93,136.68L155.89,136.68"/></g><g style="stroke:#000000;stroke-width:0.123"><path d="M149.96,147.24L151.50,148.91L151.66,149.04L151.71,149.04L151.79,149.11L151.94,149.18L152.88,149.41L154.96,149.44L155.30,149.35L157.36,147.89L159.04,145.23L159.56,143.54L160.03,141.90L160.13,138.53L159.33,135.78L157.77,134.18L157.48,133.94L156.53,133.73L154.51,133.60L154.15,133.70L152.08,135.07L150.35,137.68L149.31,141.03L149.17,144.44L149.96,147.24"/><path d="M152.54,145.01L152.49,144.90L152.29,142.72L152.30,142.34L152.77,140.14L152.96,139.63L154.01,137.72L155.28,136.72L155.89,136.68L156.22,137.06L156.68,137.64L157.13,139.91L156.75,142.66L155.60,145.06L154.24,146.28L153.28,146.40L152.54,145.01"/></g></g><g id="Actor_.3"><g style="stroke:#000000;stroke-width:0.018"><path d="M122.69,146.27L120.84,142.97L120.15,138.49L120.74,133.53L122.50,128.89L125.16,125.31L124.92,125.37"/><path d="M132.93,123.59L129.85,123.67L126.74,125.65L124.08,129.23L122.31,133.88L121.73,138.86L122.42,143.35L124.25,146.66L126.93,148.28"/><path d="M128.28,123.34L125.16,125.31L126.74,125.65"/><path d="M128.13,140.31L129.22,140.91L131.20,139.94L132.68,137.45L133.13,134.38L132.36,131.88L130.66,130.90L130.12,131.15"/><path d="M129.40,139.63L129.64,139.58L131.20,139.94"/><path d="M131.15,132.70L131.56,134.03L131.13,137.10L129.64,139.58L128.62,140.07"/><path d="M131.05,132.37L130.79,131.54L130.39,131.31"/></g><g style="stroke:#000000;stroke-width:0.123"><path d="M120.19,139.77L119.97,138.39L120.55,133.49L122.29,128.91L124.92,125.37L128.00,123.43L128.28,123.34L131.37,123.26L132.93,123.59L135.52,125.36L137.24,128.69L137.85,133.07L137.27,137.85L135.60,142.35L133.07,145.92L130.03,148.01L126.93,148.28L125.37,147.90L122.69,146.27L122.48,146.08L120.66,142.82L120.19,139.77"/><path d="M127.12,138.76L126.71,137.45L127.15,134.34L128.67,131.83L130.12,131.15L130.39,131.31L131.05,132.37L131.15,132.69L131.37,134.97L130.74,137.58L129.40,139.63L128.62,140.07L128.13,140.31L127.50,139.97L127.12,138.76"/></g></g><g id="Actor_.4"><g style="stroke:#000000;stroke-width:0.018"><path d="M155.83,54.85L153.52,56.85L151.93,60.39L151.48,64.56L152.27,68.31L154.10,70.71L155.08,70.83L153.43,68.82L152.55,65.68L152.61,62.02L153.60,58.56L155.34,55.97L157.46,54.76L159.57,55.12"/><path d="M157.21,71.34L155.08,70.83L155.48,70.71L155.75,70.32L154.02,68.00L153.32,64.36L153.86,60.37L155.48,57.12L157.74,55.47L160.04,55.84L159.55,57.41L157.76,57.16L156.01,58.46L154.76,61.01L154.35,64.10L154.89,66.92L156.23,68.74L156.21,68.32L156.07,68.12L157.88,68.28L159.66,66.47L160.61,63.38L160.37,60.16L159.03,58.02L159.43,57.89L159.54,57.74L159.29,57.90L158.88,57.92L159.03,58.02L158.04,57.91L159.39,60.05L159.64,63.27L158.69,66.36L157.93,67.12"/><path d="M155.75,70.32L158.06,70.73L160.32,69.10L161.94,65.91L162.50,61.98L161.86,58.33L160.18,55.93L159.69,57.50L161.01,59.37L161.52,62.22L161.08,65.30L159.81,67.80L158.04,69.06L156.23,68.74"/><path d="M156.11,58.70L156.01,58.78L155.96,58.88"/><path d="M156.07,68.12L156.04,68.09"/><path d="M157.67,67.39L156.90,68.16L156.61,68.14"/><path d="M157.63,57.57L157.19,57.90"/><path d="M158.04,57.91L157.96,57.87L157.86,57.87"/><path d="M157.96,57.87L158.52,57.84L158.88,57.92"/><path d="M158.52,57.84L159.15,57.81L159.40,57.65L159.55,57.41"/><path d="M159.54,57.74L159.69,57.50"/><path d="M160.04,55.84L160.04,55.56L159.92,55.34"/><path d="M160.18,55.93L160.19,55.66L160.05,55.41"/><path d="M160.16,55.52L160.19,55.66"/></g><g style="stroke:#000000;stroke-width:0.123"><path d="M151.39,65.18L151.24,64.48L151.69,60.40L153.24,56.95L155.50,54.99L155.83,54.85L157.46,54.76L158.27,54.86L159.57,55.12L160.05,55.41L160.16,55.52L161.74,57.59L162.55,60.72L162.42,64.30L161.94,65.91L161.40,67.64L159.67,70.11L157.56,71.21L157.21,71.34L156.23,71.21L154.10,70.71L153.80,70.49L152.02,68.15L151.39,65.18"/><path d="M154.86,66.04L154.47,64.01L154.85,61.14L155.96,58.88L156.11,58.70L157.19,57.90L157.86,57.87L158.98,59.44L159.45,62.08L159.04,64.93L157.93,67.12L157.67,67.39L156.61,68.14L156.04,68.09L154.97,66.63L154.86,66.04"/></g></g><g id="Actor_.5"><g style="stroke:#000000;stroke-width:0.018"><path d="M172.82,60.15L171.30,62.57L170.77,65.91L170.46,65.57"/><path d="M171.43,68.86L170.77,65.91L191.18,68.29L190.89,69.25L192.08,72.63"/><path d="M190.89,69.25L196.35,69.90L198.60,64.73L198.63,64.74L197.90,68.84L198.15,72.81L199.33,75.84L201.17,77.34L203.32,77.04L205.32,75.03"/><path d="M191.18,68.29L193.16,61.56"/><path d="M193.84,59.26L199.30,59.83L198.60,64.73"/><path d="M199.17,78.16L198.72,74.93L197.68,72.24L196.35,69.90"/><path d="M198.63,64.74L200.19,61.36L202.24,59.40L204.40,59.19L206.21,60.79L207.33,63.83L207.55,67.71"/><path d="M199.30,59.83L202.28,59.27L203.98,58.75L204.95,58.28"/><path d="M203.32,77.04L203.21,77.14"/><path d="M205.34,75.02L206.84,71.70"/></g><g style="stroke:#000000;stroke-width:0.123"><path d="M170.98,67.85L170.46,65.57L170.87,62.99L172.05,61.13L172.82,60.15L174.73,59.58L193.16,61.56L193.84,59.26L199.53,57.73L204.95,58.28L206.23,60.60L207.22,63.28L207.33,63.83L207.61,66.52L207.55,67.71L206.84,71.70L204.78,76.33L203.21,77.15L201.27,77.72L199.17,78.16L193.76,77.46L192.08,72.63L173.02,70.30L171.43,68.86L170.98,67.85"/></g></g><g id="Actor_.6"><g style="stroke:#000000;stroke-width:0.018"><path d="M168.65,149.43L168.00,146.82L168.41,144.23L168.51,143.60L169.99,141.02"/><path d="M201.01,141.59L200.05,142.45L198.39,143.38L195.48,144.38L194.80,149.33L192.62,154.40L187.36,153.17L187.87,151.40L168.00,146.82L167.71,146.24"/><path d="M187.95,154.60L187.36,153.17"/><path d="M189.98,144.07L187.87,151.40"/><path d="M190.22,143.23L195.48,144.38"/><path d="M195.39,161.36L194.93,158.72L193.91,156.44L192.62,154.40"/><path d="M199.33,159.70L199.44,159.59L197.34,160.38L195.53,159.44L194.37,156.92L194.11,153.30L194.82,149.34L194.80,149.33"/><path d="M203.56,149.95L203.33,146.40L202.24,143.86L200.46,142.82L198.36,143.51L196.34,145.84L194.82,149.34"/><path d="M199.44,159.59L201.41,157.24"/></g><g style="stroke:#000000;stroke-width:0.123"><path d="M168.72,149.48L168.65,149.43L168.22,148.26L167.71,146.24L168.11,143.75L169.25,141.77L169.99,141.02L171.86,140.08L189.98,144.07L190.22,143.23L195.79,140.47L201.01,141.59L202.26,143.62L203.23,145.91L203.33,146.40L203.63,148.58L203.56,149.95L202.87,153.80L201.41,157.24L200.87,158.34L199.33,159.71L197.43,160.66L195.39,161.36L190.18,160.10L187.95,154.62L170.20,150.43L168.72,149.48"/></g></g><g id="Actor_.7"><g style="stroke:#000000;stroke-width:0.018"><path d="M127.69,71.75L125.22,69.16L123.68,65.12L123.31,60.25L124.20,55.35L126.20,51.18L128.98,48.42L132.08,47.47L135.04,48.44L137.40,51.14L138.83,55.15L139.14,59.85L138.28,64.58L136.39,68.63L133.73,71.43L130.68,72.54L127.69,71.75L127.46,72.09L127.13,72.19L124.56,69.49L122.94,65.28L122.56,60.21L123.49,55.10L125.57,50.77L125.96,50.37L128.47,47.89L131.71,46.90"/><path d="M125.52,71.98L127.12,72.19L130.24,73.00"/><path d="M129.69,65.40L128.29,63.64L127.71,60.90L128.12,57.92L129.41,55.52L131.22,54.35L133.06,54.72L134.43,56.50L134.98,59.22L134.57,62.15L133.32,64.52L131.53,65.72L129.69,65.40L129.68,65.04L129.50,64.82"/><path d="M128.65,63.74L128.37,63.40L128.36,63.33"/><path d="M129.29,56.05L129.42,55.80L129.86,55.51"/><path d="M130.89,54.98L132.50,55.16L133.92,57.22L134.21,60.33L133.27,63.31L131.46,65.04L129.55,64.88"/><path d="M133.06,54.72L132.83,55.05L132.50,55.16L130.73,54.95L131.12,54.70"/><path d="M130.73,54.95L130.71,54.96"/><path d="M135.03,48.08L135.04,48.44"/></g><g style="stroke:#000000;stroke-width:0.123"><path d="M121.32,65.08L120.94,60.00L121.86,54.93L123.94,50.60L126.84,47.73L130.09,46.75L131.71,46.90L134.79,47.92L135.03,48.08L137.46,50.87L138.93,54.99L139.24,59.83L138.80,62.31L138.36,64.69L136.42,68.87L133.68,71.75L130.24,73.00L128.64,72.79L125.52,71.98L122.94,69.28L121.32,65.08"/><path d="M128.14,62.31L127.83,60.83L128.22,58.04L129.29,56.05L129.86,55.51L130.71,54.96L130.89,54.98L132.31,57.04L132.60,60.14L131.67,63.12L129.85,64.85L129.50,64.82L128.65,63.74L128.36,63.33L128.14,62.31"/></g></g><g><g><path style="stroke:#000000;stroke-width:0.250;stroke-dasharray:2.2 2.2" d="M98.10,128.66L184.19,148.25"/></g></g><g><g><path style="stroke:#000000;stroke-width:0.250;stroke-dasharray:2.2 2.2" d="M98.55,56.27L187.52,66.51"/></g></g><g id="PMI9.0"><g><path style="stroke:#000000;stroke-width:0.250" d="M124.01,155.51L124.82,149.16"/></g><g><path style="fill:#000000" d="M125.82,149.28L123.84,149.02L125.08,147.17z"/></g><g><path style="fill:#ffffff" d="M113.39,161.15L133.91,161.15L133.91,155.51L113.39,155.51z"/><path style="stroke:#000000;stroke-width:0.250;stroke-opacity:0.98" d="M113.39,161.15L133.91,161.15L133.91,155.51L113.39,155.51z"/><text xml:space="preserve" fill="#000000" stroke-width="0" x="114.10" y="159.56" font-size="3.44" opacity="1.00" font-family="MS Shell Dlg">8060001116</text></g></g><g id="PMI7.0"><g><path style="stroke:#000000;stroke-width:0.250" d="M66.49,88.81L74.26,88.67"/></g><g><path style="fill:#000000" d="M74.29,89.67L74.25,87.67L76.27,88.64z"/></g><g><path style="fill:#ffffff" d="M47.54,91.80L66.51,91.80L66.51,86.16L47.54,86.16z"/><path style="stroke:#000000;stroke-width:0.250;stroke-opacity:0.98" d="M47.54,91.80L66.51,91.80L66.51,86.16L47.54,86.16z"/><text xml:space="preserve" fill="#000000" stroke-width="0" x="48.25" y="90.22" font-size="3.43" opacity="1.00" font-family="MS Shell Dlg">0Y1300041</text></g></g><g id="PMI8.0"><g><path style="stroke:#000000;stroke-width:0.250" d="M153.03,124.06L153.32,133.23"/></g><g><path style="fill:#000000" d="M152.32,133.26L154.32,133.20L153.38,135.23z"/></g><g><path style="fill:#ffffff" d="M142.69,124.06L163.20,124.06L163.20,118.41L142.69,118.41z"/><path style="stroke:#000000;stroke-width:0.250;stroke-opacity:0.98" d="M142.69,124.06L163.20,124.06L163.20,118.41L142.69,118.41z"/><text xml:space="preserve" fill="#000000" stroke-width="0" x="143.39" y="122.47" font-size="3.44" opacity="1.00" font-family="MS Shell Dlg">8060004220</text></g></g><g id="PMI2.0"><g><path style="stroke:#000000;stroke-width:0.250" d="M212.57,147.80L206.30,147.78"/></g><g><path style="fill:#000000" d="M206.30,146.78L206.30,148.78L204.30,147.77z"/></g><g><path style="fill:#ffffff" d="M212.57,150.67L233.09,150.67L233.09,145.02L212.57,145.02z"/><path style="stroke:#000000;stroke-width:0.250;stroke-opacity:0.98" d="M212.57,150.67L233.09,150.67L233.09,145.02L212.57,145.02z"/><text xml:space="preserve" fill="#000000" stroke-width="0" x="213.28" y="149.08" font-size="3.44" opacity="1.00" font-family="MS Shell Dlg">8057008077</text></g></g><g/><g id="paperID" visibility="hidden" opacity="0.00" transform="scale(0.000100)"><path style="stroke:#000000;stroke-width:0.500;fill:#e6e6e6;fill-rule:evenodd" d="M-2000.00,-2000.00L2297.00,-2000.00L2297.00,2210.00L-2000.00,2210.00zM0.00,0.00L297.00,0.00L297.00,210.00L0.00,210.00z"/><path style="fill:#000000;fill-opacity:0.118" d="M3.00,210.00L297.00,210.00L297.00,3.00L300.00,3.00L300.00,213.00L3.00,213.00z"/></g><g id="hotspot.0" onmouseover="ShowHotSpot(evt,'0')" onmouseout="HideHotSpot(evt,'0')" onmousemove="ShowToolTip(evt,'0',&quot;3dp731671&quot;)" opacity="0"><path style="fill:#00ff00;fill-rule:evenodd" d="M204.46,58.13L205.00,58.40L206.87,62.18L207.40,64.33L207.40,68.71L206.88,71.69L204.73,76.26L203.56,76.97L199.51,78.05L196.65,77.77L193.69,77.24L192.08,72.66L173.25,70.26L171.68,69.15L171.11,68.10L170.48,65.15L171.11,62.52L172.89,60.01L173.99,59.76L177.03,59.76L193.15,61.46L193.90,59.24L198.72,57.88zM189.92,143.99L190.40,143.09L195.86,140.41L200.70,141.46L201.50,142.27L203.10,145.50L203.66,148.47L202.85,153.93L200.96,158.23L199.24,159.73L196.05,161.10L194.49,161.10L190.21,160.01L188.07,154.89L187.25,154.36L170.06,150.32L168.95,149.56L168.42,148.74L167.89,146.85L167.90,145.32L168.15,143.69L169.79,141.03L171.56,140.10L172.46,140.12zM233.24,145.20L233.22,150.71L212.41,150.71L212.26,148.18L206.53,148.22L206.29,148.53L205.80,148.49L204.37,147.65L206.00,146.79L206.31,146.84L206.52,147.46L212.26,147.48L212.50,145.04L232.97,144.93z"/></g><g id="hotspot.1" onmouseover="ShowHotSpot(evt,'1')" onmouseout="HideHotSpot(evt,'1')" onmousemove="ShowToolTip(evt,'1',&quot;3dp1076688&quot;)" opacity="0"><path style="fill:#00ff00;fill-rule:evenodd" d="M111.74,41.20L113.58,42.58L114.42,44.42L114.68,46.32L114.06,92.63L114.65,92.84L127.33,94.95L128.90,96.33L130.00,98.73L130.00,101.77L129.73,103.13L128.92,105.00L127.74,106.51L125.89,107.62L123.55,107.60L114.95,105.99L113.77,105.98L113.33,134.83L113.08,136.47L112.26,138.33L110.89,140.19L109.49,140.94L97.67,144.43L94.78,144.43L92.37,143.62L91.32,142.79L90.21,140.94L75.16,108.95L74.62,107.07L74.38,89.57L74.09,89.06L66.74,89.05L66.58,91.84L47.38,91.84L47.47,86.17L66.33,86.07L66.60,86.34L66.74,88.35L74.08,88.32L74.60,87.51L75.16,85.38L91.71,44.40L92.93,42.66L94.42,41.74L95.78,41.49L104.38,40.95L110.37,40.95zM105.57,51.13L106.63,53.02L106.88,54.65L106.63,57.98L106.00,59.50L104.76,60.95L103.32,61.92L99.27,62.45L96.69,62.43L95.88,61.89L95.04,60.31L94.78,59.23L94.78,55.54L95.77,52.76L97.39,51.16L98.72,50.61L104.75,50.33zM105.82,124.52L106.08,126.42L105.82,128.93L105.01,131.08L103.96,132.45L102.32,133.49L96.05,135.32L95.34,135.30L94.23,133.15L94.24,129.45L95.23,126.68L96.57,125.06L99.00,124.00L104.51,122.66z"/></g><g id="hotspot.2" onmouseover="ShowHotSpot(evt,'2')" onmouseout="HideHotSpot(evt,'2')" onmousemove="ShowToolTip(evt,'2',&quot;3dp733178&quot;)" opacity="0"><path style="fill:#00ff00;fill-rule:evenodd" d="M159.83,55.19L161.45,57.07L162.52,60.57L162.26,64.96L161.44,67.37L160.00,69.69L157.88,71.06L155.79,71.06L153.93,70.50L152.02,68.11L151.49,65.68L151.50,62.26L151.76,60.10L153.31,56.82L155.43,54.90L159.03,54.92zM163.36,118.59L163.34,124.10L153.28,124.26L153.48,133.06L153.03,132.98L152.84,125.34L152.58,124.26L142.53,124.10L142.62,118.43L163.09,118.32zM154.39,133.47L156.61,133.67L157.41,133.94L159.30,135.82L160.11,138.24L160.10,140.75L159.84,142.64L159.23,144.71L157.42,147.75L155.43,149.25L152.56,149.28L151.25,148.71L149.88,146.86L149.34,144.97L149.34,141.01L150.61,137.17L152.33,134.86L152.85,134.55L152.50,133.38L153.48,133.06L154.17,133.16zM159.04,59.48L159.29,61.11L159.29,63.34L159.04,64.97L157.97,67.12L157.04,67.81L155.80,67.82L154.97,66.50L154.72,65.14L154.72,62.26L155.26,60.11L156.23,58.66L157.33,57.84L157.93,57.87zM156.62,137.43L157.12,139.84L156.61,142.91L155.80,144.51L154.77,145.90L153.38,146.39L152.56,144.98L152.57,141.01L153.12,139.41L154.21,137.54L155.45,136.60L155.81,136.60z"/></g><g id="hotspot.3" onmouseover="ShowHotSpot(evt,'3')" onmouseout="HideHotSpot(evt,'3')" onmousemove="ShowToolTip(evt,'3',&quot;3dp733349&quot;)" opacity="0"><path style="fill:#00ff00;fill-rule:evenodd" d="M134.84,47.93L137.29,50.58L138.88,54.64L139.13,60.65L138.34,64.69L136.63,68.37L135.40,69.82L134.08,71.45L131.00,72.68L128.38,72.67L125.44,71.84L123.02,69.42L121.38,65.15L121.13,61.91L121.13,59.04L121.92,54.72L123.97,50.59L126.95,47.66L129.64,46.86L131.89,46.85zM132.70,123.44L135.41,125.31L137.27,128.55L137.52,130.45L137.79,133.76L137.26,137.80L135.83,141.74L133.26,145.62L130.16,147.90L127.21,148.20L125.36,147.88L125.75,148.75L125.70,149.06L125.08,149.27L124.80,151.14L124.52,155.27L133.79,155.41L134.06,155.68L134.04,161.19L113.24,161.19L113.32,155.52L123.83,155.27L124.35,150.96L124.36,149.24L123.99,148.71L124.67,147.72L124.63,147.39L122.49,146.02L120.57,142.29L119.95,138.26L120.57,133.48L122.47,128.65L125.04,125.31L128.02,123.45L131.32,123.18zM131.92,56.49L132.41,57.88L132.42,60.66L131.81,62.74L130.17,64.60L129.40,64.69L128.36,63.28L128.12,61.91L128.12,59.04L128.37,57.68L129.61,55.69L130.84,54.90zM131.08,132.32L131.35,135.10L130.81,137.26L129.73,139.14L128.84,139.86L127.83,140.17L127.29,139.33L126.76,137.27L127.29,134.01L128.67,131.89L129.92,131.22L130.28,131.21z"/></g></g></svg>
