<?xml version="1.0" encoding="UTF-8" standalone="no"?>
<svg xmlns="http://www.w3.org/2000/svg" xmlns:xlink="http://www.w3.org/1999/xlink" width="297.000mm" height="210.000mm" viewBox="0.000000 0.000000 297.000000 210.000000" stroke-linejoin="round" stroke-linecap="round" fill="none" fill-rule="evenodd"><desc>Composer Export</desc><script type="text/ecmascript"><![CDATA[
if(typeof(top) != "undefined")
{
	top.ShowPaper = ShowPaper;
}
function ShowHotSpot(evt,hotspotid)
{
	var svgDocument = evt.target.ownerDocument;
	var strId = "hotspot."+hotspotid;
	var hotspot = svgDocument.getElementById(strId);
	if(hotspot)
		hotspot.setAttribute("opacity",".5");
}
function HideHotSpot(evt,hotspotid)
{
	var svgDocument = evt.target.ownerDocument;
	var strId = "hotspot."+hotspotid;
	var hotspot = svgDocument.getElementById(strId);
	if(hotspot)
		hotspot.setAttribute("opacity","0");

	var toolTip = svgDocument.getElementById('ToolTip');
	if(toolTip)
		toolTip.setAttribute("visibility","hidden");
}
function ShowToolTip(evt,hotspotid,strTooltip)
{
	if(strTooltip=="")
	return;

	// change text
	var svgDocument = evt.target.ownerDocument;
	var tiptext = svgDocument.getElementById('ToolTipText');
	if( !tiptext )
	return;
	tiptext.firstChild.nodeValue = " " + strTooltip + "  " ;

	// show tooltip before, else some refresh issue

	var toolTip = svgDocument.getElementById('ToolTip');
	if(!toolTip)
	return;

	toolTip.setAttribute("visibility","visible");
	toolTip.setAttribute("opacity",".95");

	// move tooltip
	// get viewbox

	var root = svgDocument.documentElement;
	var vbox = (root.getAttribute("viewBox")).split(' ');
	var x0 = parseFloat(vbox[0]);
	var y0 = parseFloat(vbox[1]);
	var vboxW = parseFloat(vbox[2]);
	var vboxH = parseFloat(vbox[3]);

	// get default width of svg

	var strW = root.getAttribute("width");
	var svgW = parseFloat(strW);
	if(strW.indexOf('mm') != -1)
	svgW *= 3.779;

	var strH = root.getAttribute("height");
	var svgH = parseFloat(strH);
	if(strH.indexOf('mm') != -1)
	svgH *= 3.779;  	// 96 dpi  -> 96/25.4 = 3.779

	// update the viewbox / width / height if svg is embedded in html with zoom fit all
	var realx0 = x0;
	var realy0 = y0;
	var realvboxW = vboxW;
	var realvboxH = vboxH;
	var realsvgW = svgW;
	var realsvgH = svgH;

	if ((typeof(top) == "undefined") || (typeof(top.svgctl1) != "undefined")) // embedded in html
	{
		// get window size in pxl

		svgW = window.innerWidth;
		svgH = window.innerHeight;

		// calculate real viewbox

		realsvgW = svgW;
		realsvgH = svgH;
		if((svgW / svgH) > (vboxW / vboxH))
		{
			realvboxW = (vboxH * svgW) / svgH;
			realvboxH = vboxH;
			realx0 = x0 - (realvboxW - vboxW)/2 ;
		}
		else
		{
			realvboxH = (vboxW * svgH) / svgW;
			realvboxW = vboxW;
			realy0 = y0 - (realvboxH - vboxH)/2 ;
		}
	}

	// get user zoom/pan

	var newScale = root.currentScale;
	var translation = root.currentTranslate;

	// transform pxl to user unit

	var xPos = (((evt.clientX+10- translation.x)/newScale) * realvboxW)/realsvgW  + realx0 ;
	var yPos = (((evt.clientY+5- translation.y)/newScale) * realvboxH)/ realsvgH  + realy0 ;
	var scaleForWidth = ( (1 / newScale) * realvboxH) / realsvgH;

	// move tooltip

	toolTip.setAttribute("transform", "translate(" + xPos + "," + yPos + ")" );

	// resize tooltip

	var fontsize = 12;
	tiptext.setAttribute("font-size",fontsize*scaleForWidth);
	tiptext.setAttribute("y", fontsize*scaleForWidth);
	var tipBG = svgDocument.getElementById('ToolTipBG');
	var outline = tiptext.getBBox();
	if(tipBG)
	{
		tipBG.setAttribute("stroke-width", 1*scaleForWidth);
		tipBG.setAttribute("width", Number(outline.width) );
		tipBG.setAttribute("height", Number(outline.height) + fontsize*.5*scaleForWidth );
	}
	var ToolTipShadow = svgDocument.getElementById('ToolTipShadow');
	if(ToolTipShadow)
	{
		ToolTipShadow.setAttribute("width", Number(outline.width) );
		ToolTipShadow.setAttribute("height", Number(outline.height) + fontsize*.5*scaleForWidth );
		ToolTipShadow.setAttribute("x", 3*scaleForWidth);
		ToolTipShadow.setAttribute("y", 3*scaleForWidth);
	}
}
function ShowPaper()
{
  var svgDocument = getDocument();
  var paper = svgDocument.getElementById("paperID");
  if(paper)
  {
    paper.setAttribute("transform","scale(1)");
    paper.setAttribute("opacity","1");
    paper.setAttribute("visibility","visible");
  }
  var svg = svgDocument.getRootElement();
  if(svg)
  {
    svg.setAttribute("width","307.000mm");
    svg.setAttribute("height","220.000mm");
    svg.setAttribute("viewBox","-5.000000 -5.000000 307.000000 220.000000");
  }
}
]]></script><defs/><g><path style="fill:#ffffff" d="M296.92,210.03L0.08,210.03L0.08,0.08L296.92,0.08z"/><path style="fill:#000000" d="M103.50,141.31L105.44,142.65L105.21,143.36L104.17,144.02L103.51,144.03L91.10,134.31L91.09,133.63L92.10,132.96L92.72,132.95z"/><path style="fill:#800000" d="M67.19,183.84L67.85,183.82L68.16,183.53L68.51,183.52L69.85,184.64L77.41,191.88L79.81,194.06L82.65,196.93L82.54,197.08L77.14,201.69L75.67,202.92L75.31,203.57L74.45,202.91L74.15,202.64L74.17,201.98L74.46,201.67L74.21,201.01L73.73,200.62L73.64,200.24L72.71,200.77L72.35,201.42L71.76,201.04L70.57,200.04L70.66,199.27L71.48,198.34L70.54,197.45L70.29,197.26L69.95,197.73L69.49,197.81L68.86,198.35L67.99,197.80L60.19,190.27L59.08,188.92L59.08,188.24L62.20,185.68L66.11,182.75z"/><path style="fill:#a4c8f0" d="M168.46,114.35L129.06,147.36L128.40,148.24L128.02,148.53L127.61,148.58L126.44,149.85L125.98,149.92L124.83,151.19L124.37,151.27L123.21,152.54L122.59,152.72L121.68,153.89L121.30,154.18L120.87,154.21L120.51,154.88L119.65,154.48L105.21,143.36L105.44,142.65L106.35,142.10L106.98,142.10L108.62,143.49L109.01,143.48L155.04,106.60L155.95,106.61z"/><path style="fill:#807f01" d="M132.01,169.33L131.93,169.82L128.93,172.51L124.92,176.03L123.02,177.91L122.06,177.91L120.97,176.84L112.09,169.57L111.56,169.30L111.55,167.78L112.61,160.20L112.92,159.87L113.46,160.44L114.16,160.46L117.12,157.97L117.47,157.97z"/><path style="fill:#730000" d="M72.05,191.25L71.37,191.33L70.95,192.07L70.91,191.18L71.99,191.10z"/><path style="fill:#730000" d="M76.40,192.83L74.87,193.24L74.01,194.23L74.15,193.33L75.13,192.70z"/><path style="fill:#730000" d="M70.54,197.45L69.95,197.73L70.29,197.26z"/><path style="fill:#730000" d="M69.48,198.38L68.86,198.35L69.49,197.81L69.95,197.73z"/><path style="fill:#730000" d="M73.73,200.62L72.35,201.42L72.71,200.77L73.64,200.24z"/><path style="fill:#730000" d="M82.81,197.36L77.01,202.37L75.31,203.57L75.67,202.92L77.14,201.69L82.54,197.08L82.65,196.93z"/><path style="fill:#c0dcc2" d="M225.89,60.62L229.72,62.50L229.48,62.99L228.85,63.12L228.47,63.77L227.84,64.33L227.42,64.37L226.85,65.12L225.96,65.94L225.35,66.08L224.97,66.73L224.34,67.29L223.93,67.38L223.82,67.70L221.05,66.54L209.64,61.23L209.73,60.74L215.69,56.04z"/><path style="fill:#fe00ff" d="M270.83,38.31L270.74,38.80L264.26,44.48L263.27,44.50L217.98,26.79L218.07,26.30L224.99,21.32z"/><path style="fill:#7f0080" d="M242.85,71.40L242.89,71.74L242.21,72.19L201.57,108.25L201.14,108.27L186.63,100.14L186.38,99.81L186.39,99.58L186.78,99.27L187.73,98.67L188.01,98.23L188.39,97.93L189.34,97.32L189.64,96.88L190.27,96.33L191.10,95.84L191.25,95.54L191.88,94.98L192.71,94.50L192.87,94.19L193.50,93.64L194.33,93.15L194.48,92.85L195.11,92.29L196.07,91.67L196.35,91.23L196.73,90.94L197.68,90.33L197.98,89.89L198.61,89.33L199.44,88.85L199.59,88.54L200.22,87.99L201.05,87.50L201.21,87.20L201.84,86.64L202.67,86.16L202.82,85.85L203.45,85.29L204.41,84.68L204.69,84.24L205.07,83.94L206.02,83.33L206.32,82.89L206.95,82.34L207.78,81.85L207.93,81.55L208.56,80.99L209.39,80.51L209.55,80.20L210.18,79.65L211.01,79.16L211.16,78.86L211.79,78.30L212.62,77.82L212.78,77.51L213.67,76.68L214.51,76.20L214.66,75.90L215.29,75.34L216.12,74.86L216.27,74.55L216.90,74.00L217.72,73.52L217.91,73.22L218.19,73.09L218.92,72.57L227.95,64.89L228.58,64.89z"/><path style="fill:#acc6ad" d="M229.30,63.29L228.47,63.77L228.85,63.12L229.48,62.99z"/><path style="fill:#acc6ad" d="M227.69,64.63L226.85,65.12L227.42,64.37L227.84,64.33z"/><path style="fill:#acc6ad" d="M225.80,66.25L224.97,66.73L225.35,66.08L225.96,65.94z"/><path style="fill:#acc6ad" d="M224.29,67.47L223.82,67.70L223.93,67.38L224.34,67.29z"/><path style="fill:#0000ff" d="M276.74,27.28L276.76,27.87L273.14,36.42L272.70,36.44L227.47,19.73L227.14,19.45L230.21,11.20L230.72,11.09z"/><path style="fill:#00fdff" d="M261.67,46.37L261.71,47.35L261.16,50.31L261.03,51.42L260.85,51.87L249.56,47.44L215.39,33.73L215.39,31.65L215.57,28.59L216.48,28.59z"/><path style="fill:#94b4d8" d="M168.73,114.59L168.62,114.79L133.90,143.85L128.58,148.29L128.40,148.24L129.06,147.36L168.46,114.35z"/><path style="fill:#94b4d8" d="M127.20,149.53L126.44,149.85L127.61,148.58L128.02,148.53z"/><path style="fill:#94b4d8" d="M125.58,150.87L124.83,151.19L125.98,149.92L126.44,149.85z"/><path style="fill:#94b4d8" d="M123.97,152.22L123.21,152.54L124.37,151.27L124.83,151.19z"/><path style="fill:#94b4d8" d="M122.61,153.28L121.68,153.89L122.59,152.72L123.21,152.54z"/><path style="fill:#94b4d8" d="M121.16,154.50L120.51,154.88L120.87,154.21L121.30,154.18z"/><path style="fill:#007f80" d="M218.10,72.76L218.19,73.09L217.91,73.22L217.46,73.25L216.90,74.00L216.27,74.55L215.67,74.69L215.29,75.34L214.66,75.90L214.24,75.94L213.67,76.68L212.78,77.51L212.17,77.65L211.79,78.30L211.16,78.86L210.55,78.99L210.18,79.65L209.55,80.20L208.94,80.34L208.56,80.99L207.93,81.55L207.33,81.68L206.95,82.34L206.32,82.89L205.90,82.93L205.07,83.94L204.69,84.24L204.11,84.38L203.45,85.29L202.82,85.85L202.22,85.99L201.84,86.64L201.21,87.20L200.60,87.33L200.22,87.99L199.59,88.54L198.99,88.68L198.61,89.33L197.98,89.89L197.56,89.93L196.73,90.94L196.35,91.23L195.77,91.38L195.11,92.29L194.48,92.85L193.88,92.98L193.50,93.64L192.87,94.19L192.26,94.33L191.88,94.98L191.25,95.54L190.65,95.67L190.27,96.33L189.64,96.88L189.22,96.92L188.39,97.93L188.01,98.23L187.61,98.27L186.78,99.27L186.39,99.58L185.99,99.61L185.16,100.63L184.53,101.19L183.92,101.32L183.54,101.98L182.92,102.53L182.49,102.57L181.67,103.58L181.29,103.88L180.88,103.92L175.28,108.62L175.38,109.00L174.87,109.53L161.84,101.76L161.76,101.27L205.19,66.53z"/><path style="fill:#ff0000" d="M258.46,53.92L258.45,54.49L253.86,58.55L251.89,60.35L250.62,60.36L205.69,41.23L205.69,40.82L212.88,35.58L213.79,35.58z"/><path style="fill:#01ff02" d="M249.27,62.48L248.76,65.56L247.85,67.36L247.41,67.38L203.75,48.05L203.19,45.30L203.56,42.84z"/><path style="fill:#008001" d="M93.79,153.67L93.79,154.49L109.15,167.14L109.17,168.40L108.22,174.88L107.87,175.71L107.26,175.85L106.34,177.03L105.96,177.32L105.38,177.46L104.46,178.64L104.08,178.94L103.50,179.08L102.58,180.25L102.20,180.55L101.61,180.69L100.69,181.87L100.31,182.16L99.73,182.30L98.81,183.48L98.43,183.78L97.85,183.92L96.93,185.10L96.55,185.39L96.14,185.43L94.70,186.97L94.24,187.05L92.81,188.58L92.35,188.66L90.93,190.20L90.47,190.28L89.05,191.81L88.59,191.89L87.17,193.21L85.75,192.15L73.38,180.58L71.64,178.43L77.40,173.59L63.42,160.94L62.32,160.15L62.32,159.18L77.02,147.77L78.23,147.37L81.86,144.53L82.78,144.53z"/><path style="fill:#fffe02" d="M239.58,7.91L239.90,8.44L240.57,8.42L240.87,8.14L243.37,8.70L247.39,10.07L247.61,10.67L249.29,10.58L254.20,12.17L254.03,12.46L254.50,12.58L255.24,12.49L262.49,14.87L262.94,15.52L264.09,15.39L269.21,17.29L269.75,18.13L270.44,18.09L270.83,17.84L275.12,19.46L277.27,20.49L277.17,21.16L278.62,21.05L280.23,21.88L281.36,22.92L281.61,23.58L279.31,25.66L278.61,25.68L232.57,9.79L232.24,9.49L234.22,7.97L235.20,7.34L237.45,7.36z"/><path style="fill:#e50000" d="M227.26,43.51L226.57,43.86L226.86,43.37L227.31,43.35z"/><path style="fill:#007273" d="M217.72,73.52L216.90,74.00L217.46,73.25L217.91,73.22z"/><path style="fill:#007273" d="M216.12,74.86L215.29,75.34L215.67,74.69L216.27,74.55z"/><path style="fill:#007273" d="M214.51,76.20L213.67,76.68L214.24,75.94L214.66,75.90z"/><path style="fill:#007273" d="M212.62,77.82L211.79,78.30L212.17,77.65L212.78,77.51z"/><path style="fill:#007273" d="M211.01,79.16L210.18,79.65L210.55,78.99L211.16,78.86z"/><path style="fill:#007273" d="M209.39,80.51L208.56,80.99L208.94,80.34L209.55,80.20z"/><path style="fill:#007273" d="M207.78,81.85L206.95,82.34L207.33,81.68L207.93,81.55z"/><path style="fill:#007273" d="M206.02,83.33L205.07,83.94L205.90,82.93L206.32,82.89z"/><path style="fill:#007273" d="M204.41,84.68L203.45,85.29L204.11,84.38L204.69,84.24z"/><path style="fill:#007273" d="M202.67,86.16L201.84,86.64L202.22,85.99L202.82,85.85z"/><path style="fill:#007273" d="M201.05,87.50L200.22,87.99L200.60,87.33L201.21,87.20z"/><path style="fill:#007273" d="M199.44,88.85L198.61,89.33L198.99,88.68L199.59,88.54z"/><path style="fill:#007273" d="M197.68,90.33L196.73,90.94L197.56,89.93L197.98,89.89z"/><path style="fill:#007273" d="M196.07,91.67L195.11,92.29L195.77,91.38L196.35,91.23z"/><path style="fill:#007273" d="M194.33,93.15L193.50,93.64L193.88,92.98L194.48,92.85z"/><path style="fill:#007273" d="M192.71,94.50L191.88,94.98L192.26,94.33L192.87,94.19z"/><path style="fill:#007273" d="M191.10,95.84L190.27,96.33L190.65,95.67L191.25,95.54z"/><path style="fill:#007273" d="M189.34,97.32L188.39,97.93L189.22,96.92L189.64,96.88z"/><path style="fill:#007273" d="M187.73,98.67L186.78,99.27L187.61,98.27L188.01,98.23z"/><path style="fill:#007273" d="M186.38,99.81L186.10,100.00L185.16,100.63L185.99,99.61L186.39,99.58z"/><path style="fill:#007273" d="M184.37,101.49L183.54,101.98L183.92,101.32L184.53,101.19z"/><path style="fill:#007273" d="M182.62,102.97L181.67,103.58L182.49,102.57L182.92,102.53z"/><path style="fill:#007273" d="M180.74,104.66L175.38,109.00L175.28,108.62L180.88,103.92L181.29,103.88z"/><path style="fill:#007301" d="M86.29,150.03L86.19,149.68L86.50,149.63z"/><path style="fill:#007301" d="M77.50,150.05L76.73,150.18L76.38,150.86L76.20,150.81L76.29,150.02z"/><path style="fill:#007301" d="M91.67,154.33L91.57,153.99L91.88,153.94z"/><path style="fill:#007301" d="M67.82,157.32L66.72,157.92L66.88,157.27L67.70,157.16z"/><path style="fill:#007301" d="M84.40,159.98L84.31,159.64L84.62,159.59z"/><path style="fill:#007301" d="M93.89,159.47L93.29,160.02L92.54,160.34L93.46,159.31z"/><path style="fill:#007301" d="M91.96,161.10L91.20,161.41L92.09,160.42L92.54,160.34z"/><path style="fill:#007301" d="M91.00,161.75L87.90,164.30L86.97,164.92L87.50,164.17L90.74,161.49L91.20,161.41z"/><path style="fill:#007301" d="M107.27,176.41L106.34,177.03L107.26,175.85L107.87,175.71z"/><path style="fill:#007301" d="M105.39,178.02L104.46,178.64L105.38,177.46L105.96,177.32z"/><path style="fill:#007301" d="M103.51,179.64L102.58,180.25L103.50,179.08L104.08,178.94z"/><path style="fill:#007301" d="M101.62,181.25L100.69,181.87L101.61,180.69L102.20,180.55z"/><path style="fill:#007301" d="M99.74,182.87L98.81,183.48L99.73,182.30L100.31,182.16z"/><path style="fill:#007301" d="M97.86,184.48L96.93,185.10L97.85,183.92L98.43,183.78z"/><path style="fill:#007301" d="M95.45,186.65L94.70,186.97L96.14,185.43L96.55,185.39z"/><path style="fill:#007301" d="M93.57,188.27L92.81,188.58L94.24,187.05L94.70,186.97z"/><path style="fill:#007301" d="M91.69,189.88L90.93,190.20L92.35,188.66L92.81,188.58z"/><path style="fill:#007301" d="M89.80,191.49L89.05,191.81L90.47,190.28L90.93,190.20z"/><path style="fill:#007301" d="M87.59,193.38L87.17,193.21L88.59,191.89L89.05,191.81z"/><path style="fill:#e5e401" d="M254.50,12.58L254.03,12.46L254.20,12.17z"/><path style="fill:#e5e401" d="M278.92,22.58L277.69,22.88L277.95,22.38L278.86,22.43z"/><path style="fill:#000080" d="M212.45,57.68L212.49,58.02L208.48,61.10L208.02,61.13L207.75,61.62L207.13,62.18L206.68,62.20L206.40,62.69L206.25,62.87L199.33,68.37L198.88,68.39L198.60,68.88L197.99,69.45L197.53,69.47L197.26,69.96L196.64,70.52L196.19,70.54L195.91,71.03L195.76,71.21L190.18,75.63L189.73,75.66L189.46,76.14L188.84,76.71L188.38,76.73L188.11,77.22L187.49,77.79L187.04,77.81L186.76,78.29L186.61,78.47L181.04,82.89L180.58,82.92L180.31,83.41L179.69,83.97L179.24,83.99L178.96,84.48L178.35,85.05L177.89,85.07L177.62,85.56L177.00,86.13L176.55,86.15L176.27,86.63L176.12,86.81L173.23,89.08L172.78,89.11L172.51,89.59L171.89,90.16L171.44,90.18L171.16,90.67L170.88,91.04L170.20,91.06L157.46,83.82L157.53,83.33L199.27,51.74z"/><path style="fill:#000080" d="M164.56,95.62L164.61,95.94L164.09,96.35L163.63,96.37L163.36,96.86L162.74,97.42L162.29,97.45L162.01,97.93L161.40,98.50L160.94,98.52L160.67,99.01L160.05,99.58L159.60,99.60L159.32,100.09L158.71,100.65L158.25,100.67L157.98,101.16L157.36,101.73L156.91,101.75L156.63,102.24L156.48,102.42L154.94,103.61L154.49,103.63L154.21,104.12L153.60,104.69L153.14,104.71L152.87,105.20L152.25,105.76L151.80,105.79L151.52,106.27L150.91,106.84L150.45,106.86L150.18,107.35L149.56,107.92L149.11,107.94L148.83,108.43L148.22,108.99L147.76,109.01L147.49,109.50L146.87,110.07L146.42,110.09L146.15,110.57L145.78,110.88L145.34,110.90L145.07,111.39L144.45,111.95L144.00,111.97L143.72,112.46L143.11,113.03L142.65,113.05L142.38,113.54L141.76,114.10L141.31,114.13L141.03,114.61L140.42,115.18L139.96,115.20L139.69,115.69L139.07,116.26L138.62,116.28L138.34,116.77L137.72,117.33L137.27,117.35L137.00,117.84L136.63,118.14L136.04,118.27L135.67,118.92L135.29,119.22L134.85,119.24L134.57,119.72L133.96,120.29L133.50,120.31L133.23,120.80L132.61,121.37L132.16,121.39L131.88,121.88L131.27,122.44L130.81,122.46L130.54,122.95L129.92,123.52L129.47,123.54L129.19,124.03L128.58,124.60L128.12,124.62L127.86,125.10L127.48,125.40L126.89,125.53L126.52,126.18L126.14,126.48L125.70,126.50L125.43,126.99L124.81,127.56L124.36,127.58L124.08,128.07L123.47,128.63L123.01,128.65L122.74,129.14L122.12,129.71L121.67,129.73L121.39,130.22L120.78,130.78L120.32,130.80L120.05,131.29L119.43,131.86L118.98,131.88L118.71,132.36L118.34,132.66L117.74,132.80L117.37,133.45L116.99,133.74L116.40,133.87L116.03,134.52L115.65,134.82L115.21,134.84L114.94,135.33L114.32,135.89L113.87,135.92L113.59,136.40L113.06,137.04L112.65,137.03L99.97,127.59L99.97,126.91L151.39,88.05z"/><path style="fill:#000080" d="M180.97,104.98L195.51,113.32L193.33,115.59L143.75,159.39L143.02,159.39L128.77,148.85L128.58,148.29L133.90,143.85L168.62,114.79L168.73,114.59L170.63,113.06L174.87,109.53L175.38,109.00L180.74,104.66z"/><path style="fill:#000073" d="M208.43,61.27L207.75,61.62L208.02,61.13L208.48,61.10z"/><path style="fill:#000073" d="M207.09,62.34L206.40,62.69L206.68,62.20L207.13,62.18z"/><path style="fill:#000073" d="M199.28,68.53L198.60,68.88L198.88,68.39L199.33,68.37z"/><path style="fill:#000073" d="M197.94,69.61L197.26,69.96L197.53,69.47L197.99,69.45z"/><path style="fill:#000073" d="M196.59,70.68L195.91,71.03L196.19,70.54L196.64,70.52z"/><path style="fill:#000073" d="M190.14,75.80L189.46,76.14L189.73,75.66L190.18,75.63z"/><path style="fill:#000073" d="M188.79,76.87L188.11,77.22L188.38,76.73L188.84,76.71z"/><path style="fill:#000073" d="M187.45,77.95L186.76,78.29L187.04,77.81L187.49,77.79z"/><path style="fill:#000073" d="M180.99,83.06L180.31,83.41L180.58,82.92L181.04,82.89z"/><path style="fill:#000073" d="M179.64,84.14L178.96,84.48L179.24,83.99L179.69,83.97z"/><path style="fill:#000073" d="M178.30,85.21L177.62,85.56L177.89,85.07L178.35,85.05z"/><path style="fill:#000073" d="M176.95,86.29L176.27,86.63L176.55,86.15L177.00,86.13z"/><path style="fill:#000073" d="M173.19,89.25L172.51,89.59L172.78,89.11L173.23,89.08z"/><path style="fill:#000073" d="M171.84,90.32L171.16,90.67L171.44,90.18L171.89,90.16z"/><path style="fill:#000073" d="M164.04,96.51L163.36,96.86L163.63,96.37L164.09,96.35z"/><path style="fill:#000073" d="M162.70,97.59L162.01,97.93L162.29,97.45L162.74,97.42z"/><path style="fill:#000073" d="M161.35,98.66L160.67,99.01L160.94,98.52L161.40,98.50z"/><path style="fill:#000073" d="M160.01,99.74L159.32,100.09L159.60,99.60L160.05,99.58z"/><path style="fill:#000073" d="M158.66,100.81L157.98,101.16L158.25,100.67L158.71,100.65z"/><path style="fill:#000073" d="M157.32,101.89L156.63,102.24L156.91,101.75L157.36,101.73z"/><path style="fill:#000073" d="M154.89,103.77L154.21,104.12L154.49,103.63L154.94,103.61z"/><path style="fill:#000073" d="M153.55,104.85L152.87,105.20L153.14,104.71L153.60,104.69z"/><path style="fill:#000073" d="M152.20,105.93L151.52,106.27L151.80,105.79L152.25,105.76z"/><path style="fill:#000073" d="M150.86,107.00L150.18,107.35L150.45,106.86L150.91,106.84z"/><path style="fill:#000073" d="M149.51,108.08L148.83,108.43L149.11,107.94L149.56,107.92z"/><path style="fill:#000073" d="M148.17,109.15L147.49,109.50L147.76,109.01L148.22,108.99z"/><path style="fill:#000073" d="M146.82,110.23L146.15,110.57L146.42,110.09L146.87,110.07z"/><path style="fill:#000073" d="M145.74,111.04L145.07,111.39L145.34,110.90L145.78,110.88z"/><path style="fill:#000073" d="M144.40,112.11L143.72,112.46L144.00,111.97L144.45,111.95z"/><path style="fill:#000073" d="M143.06,113.19L142.38,113.54L142.65,113.05L143.11,113.03z"/><path style="fill:#000073" d="M141.71,114.27L141.03,114.61L141.31,114.13L141.76,114.10z"/><path style="fill:#000073" d="M140.37,115.34L139.69,115.69L139.96,115.20L140.42,115.18z"/><path style="fill:#000073" d="M139.02,116.42L138.34,116.77L138.62,116.28L139.07,116.26z"/><path style="fill:#000073" d="M137.68,117.49L137.00,117.84L137.27,117.35L137.72,117.33z"/><path style="fill:#000073" d="M136.49,118.44L135.67,118.92L136.04,118.27L136.63,118.14z"/><path style="fill:#000073" d="M135.25,119.38L134.57,119.72L134.85,119.24L135.29,119.22z"/><path style="fill:#000073" d="M133.91,120.45L133.23,120.80L133.50,120.31L133.96,120.29z"/><path style="fill:#000073" d="M132.57,121.53L131.88,121.88L132.16,121.39L132.61,121.37z"/><path style="fill:#000073" d="M131.22,122.61L130.54,122.95L130.81,122.46L131.27,122.44z"/><path style="fill:#000073" d="M129.88,123.68L129.19,124.03L129.47,123.54L129.92,123.52z"/><path style="fill:#000073" d="M128.53,124.76L127.86,125.10L128.12,124.62L128.58,124.60z"/><path style="fill:#000073" d="M127.34,125.71L126.52,126.18L126.89,125.53L127.48,125.40z"/><path style="fill:#000073" d="M126.11,126.65L125.43,126.99L125.70,126.50L126.14,126.48z"/><path style="fill:#000073" d="M124.76,127.72L124.08,128.07L124.36,127.58L124.81,127.56z"/><path style="fill:#000073" d="M123.42,128.79L122.74,129.14L123.01,128.65L123.47,128.63z"/><path style="fill:#000073" d="M122.07,129.87L121.39,130.22L121.67,129.73L122.12,129.71z"/><path style="fill:#000073" d="M120.73,130.95L120.05,131.29L120.32,130.80L120.78,130.78z"/><path style="fill:#000073" d="M119.38,132.02L118.71,132.36L118.98,131.88L119.43,131.86z"/><path style="fill:#000073" d="M118.20,132.97L117.37,133.45L117.74,132.80L118.34,132.66z"/><path style="fill:#000073" d="M116.85,134.05L116.03,134.52L116.40,133.87L116.99,133.74z"/><path style="fill:#000073" d="M115.61,134.99L114.94,135.33L115.21,134.84L115.65,134.82z"/><path style="fill:#000073" d="M114.27,136.06L113.59,136.40L113.87,135.92L114.32,135.89z"/><path style="fill:#720073" d="M210.85,91.40L210.17,91.74L210.44,91.26L210.90,91.23z"/><path style="fill:#ffffff" d="M279.99,23.19L279.65,23.52L278.33,23.52L277.79,23.21L277.69,22.88L278.92,22.58z"/><path style="fill:#ffffff" d="M240.16,47.19L240.20,47.51L235.20,51.75L234.22,51.76L222.85,46.90L226.43,44.04L226.57,43.86L227.26,43.51L227.31,43.35L228.49,42.57L228.84,42.58z"/><path style="fill:#ffffff" d="M217.03,93.14L215.93,94.33L213.78,96.23L212.97,96.43L208.02,93.68L209.89,92.08L210.17,91.74L210.85,91.40L210.90,91.23L211.92,90.47z"/><path style="fill:#ffffff" d="M77.61,150.74L76.38,150.86L76.73,150.18L77.50,150.05L77.69,150.20z"/><path style="fill:#ffffff" d="M67.99,158.07L67.64,158.32L66.80,158.39L66.72,157.92L67.82,157.32L68.01,157.47z"/><path style="fill:#ffffff" d="M94.87,160.16L95.42,160.81L88.88,166.10L87.89,166.08L87.05,165.25L86.97,164.92L87.90,164.30L91.00,161.75L91.20,161.41L91.96,161.10L92.54,160.34L93.29,160.02L93.89,159.47z"/><path style="fill:#ffffff" d="M72.33,191.61L73.63,192.67L73.35,193.33L72.29,193.23L70.95,192.07L71.37,191.33L72.05,191.25z"/><path style="fill:#ffffff" d="M76.91,193.21L77.15,193.87L76.22,195.12L74.43,195.13L74.15,194.87L74.01,194.23L74.87,193.24L76.40,192.83z"/><g id="Actor_.0"><g style="stroke:#000000;stroke-width:0.018"><path d="M270.98,38.32L264.00,44.35L217.84,26.46"/><path d="M222.30,25.03L222.25,25.08L222.28,25.14L222.48,25.17L222.51,25.02L222.30,25.03"/><path d="M222.51,25.02L222.57,25.11L222.50,25.16"/><path d="M223.96,24.08L223.80,24.08L223.72,24.03L223.76,23.95L223.92,23.93L224.04,23.99L223.96,24.08L223.97,23.94"/><path d="M241.51,32.32L241.44,32.24L241.32,32.22L241.17,32.31L241.34,32.40L241.51,32.32"/><path d="M241.42,32.40L241.44,32.24"/><path d="M242.68,31.24L242.62,31.15L242.71,31.09L242.88,31.10L242.95,31.15L242.95,31.21L242.87,31.26L242.68,31.24"/><path d="M242.87,31.26L242.88,31.10"/><path d="M244.29,33.33L244.27,33.46L244.32,33.47L244.36,33.38L244.29,33.33L244.11,33.32L244.02,33.39L244.10,33.48L244.27,33.49"/><path d="M245.73,32.18L245.71,32.31L245.76,32.32L245.81,32.26L245.73,32.18L245.56,32.17L245.46,32.24L245.54,32.33L245.72,32.34"/><path d="M264.00,44.35L263.95,44.67"/><path d="M264.62,41.14L264.54,41.19L264.54,41.26L264.77,41.33L264.80,41.16L264.62,41.14"/><path d="M264.80,41.16L264.89,41.25L264.77,41.33"/><path d="M266.19,40.11L266.05,40.10L265.95,40.02L266.04,39.92L266.22,39.94L266.31,40.03L266.22,40.11L266.22,39.94"/></g><g style="stroke:#000000;stroke-width:0.123"><path d="M217.82,26.76L217.84,26.46L225.02,21.19L270.98,38.32L270.81,38.73L263.95,44.67L217.82,26.76"/></g></g><g id="Actor_.1"><g style="stroke:#000000;stroke-width:0.018"><path d="M161.67,101.31L174.79,109.04L174.80,109.42"/><path d="M174.79,109.04L218.15,72.69"/></g><g style="stroke:#000000;stroke-width:0.123"><path d="M161.70,101.68L174.80,109.42L218.13,73.07L218.15,72.69L205.13,66.51L161.67,101.31L161.70,101.68"/></g></g><g id="Actor_.2"><g style="stroke:#000000;stroke-width:0.018"><path d="M62.03,159.47L77.58,173.45L77.44,173.56"/><path d="M66.72,158.20L66.58,157.95L66.62,157.63L66.85,157.33L67.20,157.12L67.60,157.06L67.95,157.15L68.15,157.38L68.19,157.59"/><path d="M68.03,157.21L68.18,157.57"/><path d="M71.56,178.32L72.93,179.59L72.81,179.69"/><path d="M72.73,179.75L87.17,193.13L87.30,193.47"/><path d="M77.74,150.27L77.70,150.04L77.49,149.82L77.15,149.73L76.76,149.80L76.41,150.00L76.20,150.29L76.16,150.60L76.29,150.82"/><path d="M77.71,150.24L77.58,149.88"/><path d="M79.13,155.56L79.01,155.51L78.94,155.40L79.00,155.20L79.14,155.10L79.38,155.05L79.56,155.16L79.58,155.29L79.52,155.11"/><path d="M79.58,155.29L79.52,155.41"/><path d="M84.74,159.84L84.80,159.65L84.73,159.53L84.43,159.48L84.21,159.62L84.15,159.76L84.17,159.89L84.33,159.99"/><path d="M84.73,159.53L84.80,159.72"/><path d="M95.51,160.67L95.67,160.54L93.83,159.02L86.64,164.82L86.91,165.06"/><path d="M86.71,149.85L86.77,149.71L86.75,149.59L86.57,149.49L86.41,149.50L86.26,149.57L86.14,149.76L86.17,149.88L86.33,149.98"/><path d="M87.17,193.13L108.05,175.23L109.27,167.15"/><path d="M86.71,149.54L86.77,149.73"/><path d="M91.55,154.28L91.38,154.12L91.44,153.92L91.56,153.82L91.81,153.78L91.99,153.89L92.02,154.02L91.95,153.84"/><path d="M92.01,154.04L91.96,154.15"/><path d="M93.89,153.62L93.30,154.09L93.57,154.32"/><path d="M93.95,159.38L93.83,159.02"/><path d="M108.16,175.59L108.05,175.23"/></g><g style="stroke:#000000;stroke-width:0.123"><path d="M62.18,159.83L62.03,159.47L77.24,147.45L77.64,147.78L82.33,144.19L93.89,153.62L93.57,154.32L109.27,167.15L109.27,168.18L108.16,175.59L87.30,193.47L72.88,180.10L72.73,179.75L72.81,179.69L71.71,178.67L71.56,178.32L77.43,173.57L62.18,159.83"/><path d="M66.82,158.28L67.16,158.37L67.69,158.25L68.01,158.00L68.14,157.79L68.19,157.59L67.99,157.46L67.74,157.41L67.22,157.54L66.83,157.88L66.72,158.20L66.82,158.28"/><path d="M77.26,150.88L76.75,151.00L76.51,150.96L76.29,150.82L76.45,150.45L76.76,150.21L77.15,150.10L77.51,150.13L77.74,150.27L77.70,150.44L77.48,150.73L77.26,150.88"/><path d="M79.46,155.48L79.14,155.57L79.27,155.45L79.51,155.41L79.46,155.48"/><path d="M84.35,160.00L84.47,159.87L84.72,159.83L84.60,159.95L84.35,160.00"/><path d="M86.51,149.97L86.34,149.99L86.45,149.89L86.67,149.85L86.51,149.97"/><path d="M87.83,165.84L86.91,165.06L93.95,159.38L95.51,160.67L88.47,166.39L87.83,165.84"/><path d="M91.83,154.25L91.58,154.29L91.68,154.18L91.93,154.14L91.83,154.25"/></g></g><g id="Actor_.3"><g style="stroke:#000000;stroke-width:0.018"><path d="M232.40,9.18L279.17,25.35L278.99,25.76"/><path d="M234.69,8.54L234.42,8.45L234.98,8.05L235.81,8.33L235.51,8.55"/><path d="M234.95,8.36L234.98,8.05"/><path d="M239.45,8.28L239.18,8.19L239.68,7.83"/><path d="M247.57,9.95L246.99,10.38L247.25,10.47"/><path d="M254.41,12.15L253.95,12.49L254.21,12.58"/><path d="M262.89,15.00L262.44,15.37L262.68,15.45"/><path d="M269.66,17.41L269.09,17.87L269.33,17.95"/><path d="M277.31,20.36L276.64,20.92L276.87,21.00"/><path d="M279.92,23.21L279.99,23.10L280.00,22.93L279.85,22.69L279.53,22.48L278.91,22.32L278.42,22.32L277.88,22.47L277.63,22.67L277.58,22.83L277.60,22.96"/><path d="M279.17,25.35L281.58,23.30"/><path d="M279.39,22.42L279.32,22.75"/></g><g style="stroke:#000000;stroke-width:0.123"><path d="M232.26,9.57L278.99,25.76L281.52,23.62L281.58,23.30L281.32,22.77L280.86,22.27L280.24,21.81L279.74,21.54L278.36,20.94L277.87,21.34L276.87,21.00L277.25,20.68L277.31,20.36L273.56,18.83L270.68,17.76L270.12,18.22L269.33,17.95L269.61,17.73L269.66,17.41L267.66,16.68L263.66,15.27L263.21,15.63L262.68,15.45L262.84,15.32L262.89,15.00L255.16,12.39L254.70,12.75L254.21,12.58L254.36,12.46L254.41,12.15L248.52,10.27L247.94,10.70L247.25,10.47L247.53,10.26L247.57,9.95L243.84,8.83L240.96,8.06L240.26,8.56L239.45,8.28L239.65,8.14L239.68,7.83L238.28,7.48L237.38,7.33L236.46,7.27L235.53,7.30L234.93,7.36L232.40,9.18L232.26,9.57"/><path d="M234.95,8.36L235.51,8.55L235.25,8.74L234.69,8.54L234.95,8.36"/><path d="M278.50,23.51L279.00,23.54L279.32,23.51L279.71,23.38L279.92,23.21L279.79,23.01L279.59,22.86L279.32,22.75L278.85,22.64L278.36,22.64L278.06,22.70L277.81,22.79L277.60,22.96L277.73,23.16L277.93,23.31L278.50,23.51"/></g></g><g id="Actor_.4"><g style="stroke:#000000;stroke-width:0.018"><path d="M215.53,28.47L261.72,46.62L260.82,51.93"/><path d="M261.72,46.62L261.92,46.44"/></g><g style="stroke:#000000;stroke-width:0.123"><path d="M215.25,33.57L215.53,28.47L215.74,28.31L261.92,46.44L261.03,51.75L260.80,51.92L215.25,33.57"/></g></g><g id="Actor_.5"><g style="stroke:#000000;stroke-width:0.018"><path d="M205.65,40.86L251.44,60.29L251.39,60.60"/><path d="M228.52,42.40L228.55,42.10L222.57,46.82L222.80,46.92"/><path d="M228.55,42.10L240.73,47.08L240.47,47.29"/><path d="M251.44,60.29L258.70,53.92"/></g><g style="stroke:#000000;stroke-width:0.123"><path d="M205.64,41.16L251.39,60.60L258.65,54.23L258.70,53.92L213.09,35.32L205.65,40.86L205.64,41.16"/><path d="M223.04,47.02L222.80,46.92L228.52,42.40L240.47,47.29L234.78,51.97L223.04,47.02"/></g></g><g id="Actor_.6"><g style="stroke:#000000;stroke-width:0.018"><path d="M203.31,42.96L249.06,62.64L248.62,65.68L247.69,67.37"/><path d="M248.62,65.68L248.84,65.49"/><path d="M249.27,62.45L249.06,62.64"/></g><g style="stroke:#000000;stroke-width:0.123"><path d="M203.39,46.56L203.23,45.85L203.31,42.96L203.53,42.80L249.27,62.45L248.84,65.49L247.90,67.18L247.69,67.37L203.73,48.04L203.39,46.56"/></g></g><g id="Actor_.7"><g style="stroke:#000000;stroke-width:0.018"><path d="M186.48,99.74L201.51,108.12L201.38,108.35"/><path d="M201.51,108.12L243.02,71.36"/><path d="M211.89,90.36L211.91,90.06L207.81,93.60L208.02,93.71"/><path d="M211.91,90.06L217.43,92.88L217.20,93.08"/></g><g style="stroke:#000000;stroke-width:0.123"><path d="M187.11,100.38L201.38,108.35L242.87,71.61L243.02,71.36L228.22,64.70L186.48,99.74L186.48,100.03L187.11,100.38"/><path d="M209.17,94.32L208.02,93.71L211.89,90.36L217.20,93.08L213.34,96.49L209.17,94.32"/></g></g><g id="Actor_.8"><g style="stroke:#000000;stroke-width:0.018"><path d="M209.55,60.83L223.85,67.40L223.82,67.78"/><path d="M223.85,67.40L229.86,62.37"/></g><g style="stroke:#000000;stroke-width:0.123"><path d="M209.54,61.21L209.55,60.83L215.60,56.02L229.86,62.37L229.82,62.75L223.82,67.78L209.54,61.21"/></g></g><g id="Actor_.9"><g style="stroke:#000000;stroke-width:0.018"><path d="M58.82,188.45L61.31,191.09L63.80,193.57L66.31,195.96L68.92,198.31L69.08,198.65"/><path d="M70.61,197.36L70.45,197.02L68.92,198.31"/><path d="M72.46,201.50L72.31,201.16L70.30,199.49"/><path d="M70.45,197.02L71.74,198.28L71.64,198.37"/><path d="M73.60,192.71L73.46,192.37L72.08,191.05L71.88,190.93L71.63,190.90L71.46,190.92L71.20,191.03L70.99,191.20L70.85,191.42L70.81,191.66L70.86,191.87L70.96,192.00"/><path d="M72.31,201.16L73.58,200.08L74.89,201.35L74.79,201.44"/><path d="M72.08,191.05L72.23,191.39"/><path d="M73.88,202.21L74.83,203.14L74.98,203.48"/><path d="M73.73,200.42L73.58,200.08"/><path d="M77.08,193.38L76.98,193.11L76.78,192.85L76.57,192.69L76.29,192.57L75.92,192.51L75.66,192.52L75.40,192.56L75.02,192.69L74.77,192.83L74.45,193.08L74.19,193.39L74.06,193.61L73.94,193.96L73.92,194.19L73.96,194.51L74.10,194.82"/><path d="M73.60,192.69L73.55,192.49L73.46,192.37"/><path d="M74.83,203.14L75.17,203.40L75.32,203.74"/><path d="M75.17,203.40L82.77,196.89"/><path d="M76.78,192.85L76.93,193.20"/></g><g style="stroke:#000000;stroke-width:0.123"><path d="M58.94,188.35L58.82,188.45L58.99,188.79L60.64,190.56L61.91,191.87L63.96,193.92L65.62,195.51L67.33,197.09L69.08,198.65L70.61,197.36L71.64,198.37L70.30,199.49L70.45,199.84L72.46,201.50L73.73,200.42L74.79,201.44L73.88,202.21L74.04,202.55L74.98,203.48L75.32,203.74L82.91,197.23L82.77,196.89L68.45,183.34L67.52,184.10L65.99,182.65L58.94,188.35"/><path d="M71.09,191.62L71.01,191.77L70.96,192.00L72.33,193.31L72.45,193.40L72.69,193.46L72.86,193.46L73.04,193.41L73.21,193.33L73.36,193.22L73.52,193.01L73.58,192.86L73.60,192.71L72.23,191.39L72.10,191.31L71.87,191.24L71.61,191.27L71.44,191.33L71.28,191.43L71.09,191.62"/><path d="M75.11,195.33L74.74,195.27L74.52,195.18L74.33,195.06L74.10,194.82L74.07,194.53L74.12,194.18L74.27,193.85L74.42,193.63L74.70,193.34L74.92,193.17L75.16,193.04L75.55,192.91L75.94,192.85L76.31,192.89L76.65,193.00L76.84,193.12L77.08,193.38L77.11,193.64L77.09,193.88L77.02,194.11L76.92,194.34L76.77,194.55L76.59,194.75L76.38,194.93L76.02,195.14L75.77,195.24L75.50,195.31L75.11,195.33"/></g></g><g id="Actor_.10"><g style="stroke:#000000;stroke-width:0.018"><path d="M230.13,11.15L276.75,27.51L273.01,36.48"/><path d="M276.97,27.32L276.75,27.51"/></g><g style="stroke:#000000;stroke-width:0.123"><path d="M227.11,19.57L273.01,36.48L273.24,36.29L276.97,27.32L230.36,10.98L230.13,11.15L227.11,19.57"/></g></g><g id="Actor_.11"><g style="stroke:#000000;stroke-width:0.018"><path d="M90.83,133.88L103.83,143.93L103.90,144.22"/><path d="M103.83,143.93L105.40,142.68"/></g><g style="stroke:#000000;stroke-width:0.123"><path d="M91.01,134.25L103.90,144.22L105.48,142.97L105.40,142.68L92.39,132.70L90.83,133.88L91.01,134.25"/></g></g><g id="Actor_.12"><g style="stroke:#000000;stroke-width:0.018"><path d="M168.56,114.27L120.42,154.62L105.33,143.08"/><path d="M120.39,154.64L120.47,155.01"/></g><g style="stroke:#000000;stroke-width:0.123"><path d="M105.42,142.74L106.59,141.81L108.89,143.56L155.44,106.29L168.56,114.27L168.58,114.64L120.47,155.01L105.26,143.31L105.22,143.17"/></g></g><g id="Actor_.13"><g style="stroke:#000000;stroke-width:0.018"><path d="M99.74,127.11L112.82,136.79L112.89,137.08"/><path d="M112.82,136.79L164.70,95.60"/></g><g style="stroke:#000000;stroke-width:0.123"><path d="M99.92,127.47L112.89,137.08L164.72,95.89L164.70,95.60L151.39,87.96L99.74,127.11L99.92,127.47"/></g></g><g id="Actor_.14"><g style="stroke:#000000;stroke-width:0.018"><path d="M111.36,168.78L122.60,177.96L122.55,178.15"/><path d="M116.98,161.67L116.90,161.61L116.86,161.54L116.87,161.46L116.91,161.38L116.98,161.32L117.08,161.28L117.22,161.29L117.30,161.32L117.35,161.39L117.37,161.47L117.35,161.53L117.30,161.32"/><path d="M117.32,161.58L117.35,161.53"/><path d="M118.56,160.53L118.61,160.42L118.57,160.30L118.46,160.24L118.32,160.23L118.18,160.30L118.11,160.41L118.12,160.53L118.22,160.62"/><path d="M118.54,160.27L118.59,160.48"/><path d="M122.58,165.49L122.63,165.70L122.65,165.63L122.63,165.55L122.58,165.49L122.50,165.45L122.35,165.45L122.26,165.48L122.18,165.55L122.14,165.62L122.14,165.71L122.17,165.78L122.25,165.84"/><path d="M122.60,177.96L132.20,169.47"/><path d="M122.63,165.70L122.60,165.75"/><path d="M123.84,164.68L123.89,164.56L123.85,164.45L123.74,164.38L123.59,164.37L123.46,164.44L123.39,164.55L123.39,164.66L123.49,164.76"/><path d="M123.82,164.42L123.87,164.63"/></g><g style="stroke:#000000;stroke-width:0.123"><path d="M111.44,169.06L111.36,168.78L112.68,159.66L113.91,160.64L117.28,157.82L132.20,169.47L132.14,169.66L122.55,178.15L111.44,169.06"/><path d="M117.32,161.58L117.15,161.68L116.98,161.67L117.05,161.61L117.15,161.57L117.32,161.58"/><path d="M118.56,160.53L118.39,160.63L118.22,160.62L118.39,160.52L118.56,160.53"/><path d="M122.48,165.84L122.38,165.86L122.25,165.84L122.32,165.77L122.42,165.73L122.60,165.75L122.48,165.84"/><path d="M123.58,164.79L123.73,164.76L123.84,164.68L123.76,164.65L123.61,164.67L123.49,164.76L123.58,164.79"/></g></g><g id="Actor_.15"><g style="stroke:#000000;stroke-width:0.018"><path d="M157.31,83.47L170.62,90.89L170.64,91.19"/><path d="M170.62,90.89L212.52,57.62"/></g><g style="stroke:#000000;stroke-width:0.123"><path d="M158.18,84.23L170.64,91.19L212.51,57.92L212.52,57.62L199.28,51.66L157.31,83.47L157.44,83.82L158.18,84.23"/></g></g><g id="Actor_.16"><g style="stroke:#000000;stroke-width:0.018"><path d="M143.46,159.64L143.53,159.43L128.55,148.35"/><path d="M143.53,159.43L195.64,113.31"/></g><g style="stroke:#000000;stroke-width:0.123"><path d="M128.88,148.85L143.46,159.64L195.52,113.54L195.64,113.31L180.59,104.67L128.55,148.35L128.61,148.64L128.88,148.85"/></g></g><g id="PMI11.0"><g><path style="stroke:#000000;stroke-width:0.250" d="M119.49,102.55L119.66,108.92"/></g><g><path style="fill:#000000" d="M118.66,108.95L120.66,108.89L119.71,110.92z"/></g><g><path style="fill:#ffffff" d="M110.13,102.55L128.72,102.55L128.72,96.91L110.13,96.91z"/><path style="stroke:#000000;stroke-width:0.250;stroke-opacity:0.98" d="M110.13,102.55L128.72,102.55L128.72,96.91L110.13,96.91z"/><text xml:space="preserve" fill="#000000" stroke-width="0" x="110.84" y="100.96" font-size="3.43" opacity="1.00" font-family="MS Shell Dlg">390010161</text></g></g><g id="PMI15.0"><g><path style="stroke:#000000;stroke-width:0.250" d="M57.13,196.15L63.89,196.21"/></g><g><path style="fill:#000000" d="M63.90,197.18L63.92,195.18L65.91,196.20z"/></g><g><path style="fill:#ffffff" d="M38.57,198.86L57.16,198.86L57.16,193.22L38.57,193.22z"/><path style="stroke:#000000;stroke-width:0.250;stroke-opacity:0.98" d="M38.57,198.86L57.16,198.86L57.16,193.22L38.57,193.22z"/><text xml:space="preserve" fill="#000000" stroke-width="0" x="39.28" y="197.27" font-size="3.43" opacity="1.00" font-family="MS Shell Dlg">390010151</text></g></g><g id="PMI2.0"><g><path style="stroke:#000000;stroke-width:0.250" d="M210.79,20.63L222.40,21.67"/></g><g><path style="fill:#000000" d="M222.28,22.69L222.46,20.70L224.36,21.87z"/></g><g><path style="fill:#ffffff" d="M192.18,22.65L210.77,22.65L210.77,17.01L192.18,17.01z"/><path style="stroke:#000000;stroke-width:0.250;stroke-opacity:0.98" d="M192.18,22.65L210.77,22.65L210.77,17.01L192.18,17.01z"/><text xml:space="preserve" fill="#000000" stroke-width="0" x="192.89" y="21.07" font-size="3.43" opacity="1.00" font-family="MS Shell Dlg">390010081</text></g></g><g id="PMI5.0"><g><path style="stroke:#000000;stroke-width:0.250" d="M202.18,36.83L210.55,36.90"/></g><g><path style="fill:#000000" d="M210.52,37.92L210.54,35.92L212.53,36.94z"/></g><g><path style="fill:#ffffff" d="M183.57,39.60L202.16,39.60L202.16,33.96L183.57,33.96z"/><path style="stroke:#000000;stroke-width:0.250;stroke-opacity:0.98" d="M183.57,39.60L202.16,39.60L202.16,33.96L183.57,33.96z"/><text xml:space="preserve" fill="#000000" stroke-width="0" x="184.28" y="38.01" font-size="3.43" opacity="1.00" font-family="MS Shell Dlg">390010101</text></g></g><g id="PMI6.0"><g><path style="stroke:#000000;stroke-width:0.250" d="M194.64,48.10L201.97,47.91"/></g><g><path style="fill:#000000" d="M201.98,48.93L201.93,46.93L203.95,47.88z"/></g><g><path style="fill:#ffffff" d="M176.04,51.17L194.63,51.17L194.63,45.53L176.04,45.53z"/><path style="stroke:#000000;stroke-width:0.250;stroke-opacity:0.98" d="M176.04,51.17L194.63,51.17L194.63,45.53L176.04,45.53z"/><text xml:space="preserve" fill="#000000" stroke-width="0" x="176.75" y="49.58" font-size="3.43" opacity="1.00" font-family="MS Shell Dlg">390010111</text></g></g><g id="PMI3.0"><g><path style="stroke:#000000;stroke-width:0.250" d="M259.04,7.57L259.00,11.98"/></g><g><path style="fill:#000000" d="M257.99,11.98L259.99,12.00L258.97,13.99z"/></g><g><path style="fill:#ffffff" d="M249.75,7.59L268.34,7.59L268.34,1.94L249.75,1.94z"/><path style="stroke:#000000;stroke-width:0.250;stroke-opacity:0.98" d="M249.75,7.59L268.34,7.59L268.34,1.94L249.75,1.94z"/><text xml:space="preserve" fill="#000000" stroke-width="0" x="250.46" y="6.00" font-size="3.43" opacity="1.00" font-family="MS Shell Dlg">390010061</text></g></g><g id="PMI1.0"><g><path style="stroke:#000000;stroke-width:0.250" d="M277.47,36.61L275.24,36.44"/></g><g><path style="fill:#000000" d="M275.31,35.44L275.16,37.44L273.24,36.29z"/></g><g><path style="fill:#ffffff" d="M277.46,40.14L296.05,40.14L296.05,34.50L277.46,34.50z"/><path style="stroke:#000000;stroke-width:0.250;stroke-opacity:0.98" d="M277.46,40.14L296.05,40.14L296.05,34.50L277.46,34.50z"/><text xml:space="preserve" fill="#000000" stroke-width="0" x="278.17" y="38.55" font-size="3.43" opacity="1.00" font-family="MS Shell Dlg">390010071</text></g></g><g id="PMI9.0"><g><path style="stroke:#000000;stroke-width:0.250" d="M247.22,72.15L229.98,64.63"/></g><g><path style="fill:#000000" d="M230.36,63.72L229.56,65.56L228.13,63.84z"/></g><g><path style="fill:#ffffff" d="M244.37,77.80L262.96,77.80L262.96,72.16L244.37,72.16z"/><path style="stroke:#000000;stroke-width:0.250;stroke-opacity:0.98" d="M244.37,77.80L262.96,77.80L262.96,72.16L244.37,72.16z"/><text xml:space="preserve" fill="#000000" stroke-width="0" x="245.08" y="76.21" font-size="3.43" opacity="1.00" font-family="MS Shell Dlg">390001151</text></g></g><g id="PMI11.1"><g><path style="stroke:#000000;stroke-width:0.250" d="M172.43,64.34L172.44,70.44"/></g><g><path style="fill:#000000" d="M171.44,70.45L173.44,70.45L172.44,72.45z"/></g><g><path style="fill:#ffffff" d="M163.13,64.35L181.71,64.35L181.71,58.71L163.13,58.71z"/><path style="stroke:#000000;stroke-width:0.250;stroke-opacity:0.98" d="M163.13,64.35L181.71,64.35L181.71,58.71L163.13,58.71z"/><text xml:space="preserve" fill="#000000" stroke-width="0" x="163.83" y="62.76" font-size="3.43" opacity="1.00" font-family="MS Shell Dlg">390010161</text></g></g><g id="PMI4.0"><g><path style="stroke:#000000;stroke-width:0.250" d="M269.94,46.70L263.93,46.50"/></g><g><path style="fill:#000000" d="M263.95,45.51L263.89,47.51L261.92,46.44z"/></g><g><path style="fill:#ffffff" d="M269.93,49.82L288.51,49.82L288.51,44.18L269.93,44.18z"/><path style="stroke:#000000;stroke-width:0.250;stroke-opacity:0.98" d="M269.93,49.82L288.51,49.82L288.51,44.18L269.93,44.18z"/><text xml:space="preserve" fill="#000000" stroke-width="0" x="270.64" y="48.24" font-size="3.43" opacity="1.00" font-family="MS Shell Dlg">390010091</text></g></g><g id="PMI10.0"><g><path style="stroke:#000000;stroke-width:0.250" d="M166.96,87.48L167.47,95.47"/></g><g><path style="fill:#000000" d="M166.47,95.54L168.47,95.41L167.60,97.47z"/></g><g><path style="fill:#ffffff" d="M157.48,87.49L176.06,87.49L176.06,81.84L157.48,81.84z"/><path style="stroke:#000000;stroke-width:0.250;stroke-opacity:0.98" d="M157.48,87.49L176.06,87.49L176.06,81.84L157.48,81.84z"/><text xml:space="preserve" fill="#000000" stroke-width="0" x="158.18" y="85.90" font-size="3.43" opacity="1.00" font-family="MS Shell Dlg">390001161</text></g></g><g id="PMI7.0"><g><path style="stroke:#000000;stroke-width:0.250" d="M229.32,90.10L220.45,90.40"/></g><g><path style="fill:#000000" d="M220.41,89.40L220.48,91.40L218.45,90.47z"/></g><g><path style="fill:#ffffff" d="M229.31,92.60L247.89,92.60L247.89,86.95L229.31,86.95z"/><path style="stroke:#000000;stroke-width:0.250;stroke-opacity:0.98" d="M229.31,92.60L247.89,92.60L247.89,86.95L229.31,86.95z"/><text xml:space="preserve" fill="#000000" stroke-width="0" x="230.01" y="91.01" font-size="3.43" opacity="1.00" font-family="MS Shell Dlg">390010121</text></g></g><g id="PMI11.2"><g><path style="stroke:#000000;stroke-width:0.250" d="M202.41,113.50L197.52,113.53"/></g><g><path style="fill:#000000" d="M197.51,112.53L197.52,114.53L195.52,113.54z"/></g><g><path style="fill:#ffffff" d="M202.41,116.27L220.99,116.27L220.99,110.63L202.41,110.63z"/><path style="stroke:#000000;stroke-width:0.250;stroke-opacity:0.98" d="M202.41,116.27L220.99,116.27L220.99,110.63L202.41,110.63z"/><text xml:space="preserve" fill="#000000" stroke-width="0" x="203.11" y="114.68" font-size="3.43" opacity="1.00" font-family="MS Shell Dlg">390010161</text></g></g><g id="PMI13.0"><g><path style="stroke:#000000;stroke-width:0.250" d="M90.93,127.31L90.98,132.25"/></g><g><path style="fill:#000000" d="M89.99,132.26L91.99,132.24L91.01,134.25z"/></g><g><path style="fill:#ffffff" d="M81.62,127.30L100.20,127.30L100.20,121.66L81.62,121.66z"/><path style="stroke:#000000;stroke-width:0.250;stroke-opacity:0.98" d="M81.62,127.30L100.20,127.30L100.20,121.66L81.62,121.66z"/><text xml:space="preserve" fill="#000000" stroke-width="0" x="82.32" y="125.71" font-size="3.43" opacity="1.00" font-family="MS Shell Dlg">390001222</text></g></g><g id="PMI8.0"><g><path style="stroke:#000000;stroke-width:0.250" d="M108.91,152.34L108.89,145.57"/></g><g><path style="fill:#000000" d="M109.90,145.56L107.90,145.56L108.89,143.56z"/></g><g><path style="fill:#ffffff" d="M99.64,157.97L118.22,157.97L118.22,152.33L99.64,152.33z"/><path style="stroke:#000000;stroke-width:0.250;stroke-opacity:0.98" d="M99.64,157.97L118.22,157.97L118.22,152.33L99.64,152.33z"/><text xml:space="preserve" fill="#000000" stroke-width="0" x="100.35" y="156.38" font-size="3.43" opacity="1.00" font-family="MS Shell Dlg">390010171</text></g></g><g id="PMI14.0"><g><path style="stroke:#000000;stroke-width:0.250" d="M71.08,144.26L70.60,151.97"/></g><g><path style="fill:#000000" d="M69.61,151.90L71.61,152.03L70.48,153.96z"/></g><g><path style="fill:#ffffff" d="M61.98,144.25L80.56,144.25L80.56,138.61L61.98,138.61z"/><path style="stroke:#000000;stroke-width:0.250;stroke-opacity:0.98" d="M61.98,144.25L80.56,144.25L80.56,138.61L61.98,138.61z"/><text xml:space="preserve" fill="#000000" stroke-width="0" x="62.68" y="142.66" font-size="3.43" opacity="1.00" font-family="MS Shell Dlg">390010141</text></g></g><g id="PMI12.0"><g><path style="stroke:#000000;stroke-width:0.250" d="M135.96,166.34L124.14,165.84"/></g><g><path style="fill:#000000" d="M124.19,164.83L124.11,166.83L122.15,165.75z"/></g><g><path style="fill:#ffffff" d="M135.96,169.54L154.54,169.54L154.54,163.90L135.96,163.90z"/><path style="stroke:#000000;stroke-width:0.250;stroke-opacity:0.98" d="M135.96,169.54L154.54,169.54L154.54,163.90L135.96,163.90z"/><text xml:space="preserve" fill="#000000" stroke-width="0" x="136.66" y="167.95" font-size="3.43" opacity="1.00" font-family="MS Shell Dlg">390010131</text></g></g><g/><g id="paperID" visibility="hidden" opacity="0.00" transform="scale(0.000100)"><path style="stroke:#000000;stroke-width:0.500;fill:#e6e6e6;fill-rule:evenodd" d="M-2000.00,-2000.00L2297.00,-2000.00L2297.00,2210.00L-2000.00,2210.00zM0.00,0.00L297.00,0.00L297.00,210.00L0.00,210.00z"/><path style="fill:#000000;fill-opacity:0.118" d="M3.00,210.00L297.00,210.00L297.00,3.00L300.00,3.00L300.00,213.00L3.00,213.00z"/></g><g id="hotspot.0" onmouseover="ShowHotSpot(evt,'0')" onmouseout="HideHotSpot(evt,'0')" onmousemove="ShowToolTip(evt,'0',&quot;3dp1100591&quot;)" opacity="0"><path style="fill:#00ff00;fill-rule:evenodd" d="M276.74,27.28L276.76,27.87L273.31,36.32L273.13,36.44L271.88,36.14L227.47,19.73L227.14,19.45L230.21,11.20L230.73,11.09zM296.14,34.76L296.11,40.27L277.17,40.27L277.01,36.94L275.32,36.98L275.08,37.30L274.62,37.23L273.31,36.32L275.12,35.63L275.30,36.21L277.01,36.24L277.26,34.60L295.87,34.49z"/></g><g id="hotspot.1" onmouseover="ShowHotSpot(evt,'1')" onmouseout="HideHotSpot(evt,'1')" onmousemove="ShowToolTip(evt,'1',&quot;3dp579037&quot;)" opacity="0"><path style="fill:#00ff00;fill-rule:evenodd" d="M218.10,72.75L218.13,73.07L175.06,109.18L174.50,109.35L161.84,101.76L161.76,101.27L167.00,97.03L167.00,96.41L166.70,96.09L166.62,95.64L166.94,95.39L166.97,91.29L166.71,87.78L157.19,87.62L157.27,81.95L175.88,81.84L176.15,82.11L176.13,87.62L167.41,87.78L167.70,95.40L168.31,95.63L169.02,95.61L174.50,91.11L205.19,66.53z"/></g><g id="hotspot.2" onmouseover="ShowHotSpot(evt,'2')" onmouseout="HideHotSpot(evt,'2')" onmousemove="ShowToolTip(evt,'2',&quot;3dp1107698&quot;)" opacity="0"><path style="fill:#00ff00;fill-rule:evenodd" d="M212.45,57.68L212.49,58.02L170.89,91.02L170.20,91.06L157.46,83.82L157.53,83.33L172.12,72.29L171.48,70.57L172.07,70.39L172.09,64.64L162.84,64.49L162.92,58.81L181.53,58.70L181.80,58.97L181.78,64.49L172.79,64.64L172.83,70.38L173.15,70.61L173.14,71.48L199.27,51.74zM164.56,95.62L164.60,95.94L157.02,102.14L113.06,137.04L112.65,137.04L99.97,127.59L99.97,126.91L151.39,88.05zM128.80,97.17L128.78,102.69L119.79,102.85L120.10,108.85L120.47,109.39L119.65,110.77L118.76,109.04L119.34,108.86L119.35,105.82L119.10,102.85L109.84,102.69L109.93,97.01L128.54,96.91zM195.23,113.07L195.58,113.52L143.75,159.39L143.02,159.39L128.75,148.85L128.75,148.15L133.90,143.85L179.10,105.92L180.71,104.73zM221.08,110.89L221.06,116.41L202.11,116.41L201.96,113.88L197.56,113.90L197.38,114.49L195.58,113.52L197.03,112.77L197.57,113.14L201.96,113.18L202.20,110.73L220.81,110.63z"/></g><g id="hotspot.3" onmouseover="ShowHotSpot(evt,'3')" onmouseout="HideHotSpot(evt,'3')" onmousemove="ShowToolTip(evt,'3',&quot;3dp1100712&quot;)" opacity="0"><path style="fill:#00ff00;fill-rule:evenodd" d="M127.14,165.56L129.85,165.81L135.51,165.91L135.75,164.00L154.36,163.89L154.63,164.16L154.61,169.67L135.67,169.67L135.51,166.60L128.14,166.33L132.01,169.33L131.93,169.82L128.93,172.51L124.92,176.03L123.02,177.91L122.06,177.91L120.97,176.84L112.09,169.57L111.56,169.30L111.55,167.78L112.61,160.20L112.92,159.87L113.46,160.44L114.16,160.46L117.12,157.97L117.47,157.97z"/></g><g id="hotspot.4" onmouseover="ShowHotSpot(evt,'4')" onmouseout="HideHotSpot(evt,'4')" onmousemove="ShowToolTip(evt,'4',&quot;3dp566051&quot;)" opacity="0"><path style="fill:#00ff00;fill-rule:evenodd" d="M100.29,121.92L100.27,127.44L91.28,127.60L91.31,132.26L91.88,132.44L91.89,133.07L92.73,132.95L105.38,142.70L105.41,143.02L104.17,144.02L103.51,144.03L91.13,134.31L90.26,132.98L90.22,132.49L90.54,132.25L90.58,127.60L81.32,127.44L81.41,121.76L100.02,121.66z"/></g><g id="hotspot.5" onmouseover="ShowHotSpot(evt,'5')" onmouseout="HideHotSpot(evt,'5')" onmousemove="ShowToolTip(evt,'5',&quot;3dp822511&quot;)" opacity="0"><path style="fill:#00ff00;fill-rule:evenodd" d="M80.65,138.87L80.63,144.39L71.37,144.54L71.20,147.60L71.12,151.93L71.91,151.82L75.15,149.13L77.02,147.77L78.23,147.37L81.86,144.53L82.78,144.53L93.79,153.67L93.79,154.49L109.15,167.13L109.13,169.39L108.06,175.58L104.83,178.54L89.49,191.72L87.77,193.26L87.10,193.25L84.68,191.07L73.38,180.58L71.64,178.43L77.40,173.59L63.42,160.94L62.32,160.15L62.32,159.18L67.31,155.28L69.89,153.26L69.76,152.11L70.38,151.90L70.67,144.54L61.69,144.39L61.77,138.71L80.38,138.60zM77.61,150.73L76.47,150.83L76.54,150.30L77.68,150.21zM67.99,158.07L67.65,158.32L66.79,158.37L66.87,157.85L67.64,157.42L67.99,157.47zM94.87,160.16L95.42,160.81L88.88,166.10L87.89,166.08L87.00,165.00L93.71,159.58L94.06,159.59z"/></g><g id="hotspot.6" onmouseover="ShowHotSpot(evt,'6')" onmouseout="HideHotSpot(evt,'6')" onmousemove="ShowToolTip(evt,'6',&quot;3dp842571&quot;)" opacity="0"><path style="fill:#00ff00;fill-rule:evenodd" d="M67.19,183.84L67.85,183.82L68.16,183.53L68.51,183.52L69.85,184.64L72.57,187.31L82.54,196.71L82.80,197.37L75.65,203.47L74.99,203.48L74.15,202.64L74.17,201.98L74.46,201.67L74.21,200.99L73.54,200.75L72.70,201.32L72.03,201.33L70.57,200.04L70.66,199.27L71.48,198.34L70.55,197.54L69.48,198.37L68.77,198.40L63.42,193.49L59.08,188.92L59.08,188.24L62.20,185.68L66.11,182.75zM57.24,193.48L57.38,195.77L63.71,195.96L63.71,196.27L57.38,196.47L57.22,199.00L38.28,199.00L38.37,193.32L56.98,193.21zM65.82,196.21L64.21,197.13L64.21,195.37zM73.63,192.67L73.35,193.33L72.29,193.23L71.19,192.44L71.19,191.44L72.01,191.33zM76.91,193.20L77.15,193.87L76.22,195.12L74.43,195.13L74.14,194.85L74.12,194.14L74.87,193.24L75.40,192.97L76.60,192.96z"/></g><g id="hotspot.7" onmouseover="ShowHotSpot(evt,'7')" onmouseout="HideHotSpot(evt,'7')" onmousemove="ShowToolTip(evt,'7',&quot;3dp1100592&quot;)" opacity="0"><path style="fill:#00ff00;fill-rule:evenodd" d="M210.86,17.27L210.99,20.37L221.32,21.34L222.12,21.63L222.21,22.08L210.99,21.06L210.83,22.79L191.89,22.79L191.98,17.11L210.59,17.01zM223.77,21.61L224.45,21.64L225.34,21.33L270.83,38.31L270.74,38.80L264.26,44.48L263.27,44.50L217.98,26.79L218.07,26.30L222.96,22.80L222.33,22.51L222.21,22.08L222.66,20.78z"/></g><g id="hotspot.8" onmouseover="ShowHotSpot(evt,'8')" onmouseout="HideHotSpot(evt,'8')" onmousemove="ShowToolTip(evt,'8',&quot;3dp1100595&quot;)" opacity="0"><path style="fill:#00ff00;fill-rule:evenodd" d="M268.43,2.21L268.40,7.72L259.42,7.88L259.22,11.79L258.91,11.79L258.72,7.88L249.46,7.72L249.55,2.05L268.16,1.94zM239.58,7.91L239.90,8.44L240.57,8.42L240.87,8.14L243.37,8.70L247.39,10.07L247.61,10.67L249.29,10.58L251.17,11.13L254.92,12.57L255.23,12.49L257.62,13.30L258.45,13.38L258.49,13.03L258.09,12.17L259.81,12.20L259.83,12.53L259.49,13.09L259.42,13.88L262.49,14.87L262.94,15.52L264.09,15.39L269.21,17.29L269.75,18.13L270.44,18.09L270.83,17.84L275.12,19.46L277.27,20.49L277.17,21.16L278.62,21.05L280.23,21.88L281.36,22.92L281.61,23.58L279.31,25.66L278.61,25.68L232.57,9.79L232.24,9.49L234.22,7.97L235.20,7.34L237.45,7.36zM279.99,23.19L279.65,23.52L278.33,23.52L277.72,22.96L278.25,22.66L278.87,22.67z"/></g><g id="hotspot.9" onmouseover="ShowHotSpot(evt,'9')" onmouseout="HideHotSpot(evt,'9')" onmousemove="ShowToolTip(evt,'9',&quot;3dp1100596&quot;)" opacity="0"><path style="fill:#00ff00;fill-rule:evenodd" d="M261.66,46.37L261.66,48.06L261.15,51.31L260.85,51.84L256.82,50.40L215.39,33.73L215.39,31.65L215.57,28.59L216.48,28.59zM288.60,44.45L288.58,49.96L269.64,49.96L269.48,47.16L267.32,46.90L264.01,46.92L263.82,47.51L262.17,46.60L262.12,46.37L263.48,45.78L264.02,46.15L269.48,46.46L269.72,44.28L288.33,44.18z"/></g><g id="hotspot.10" onmouseover="ShowHotSpot(evt,'10')" onmouseout="HideHotSpot(evt,'10')" onmousemove="ShowToolTip(evt,'10',&quot;3dp1100597&quot;)" opacity="0"><path style="fill:#00ff00;fill-rule:evenodd" d="M202.25,34.22L202.38,36.51L210.33,36.70L210.33,37.01L202.38,37.20L202.22,39.74L183.28,39.74L183.37,34.06L201.98,33.95zM258.46,53.92L258.45,54.49L253.86,58.55L251.89,60.35L250.62,60.36L205.69,41.23L205.69,40.82L210.55,37.30L210.82,36.11L211.36,36.44L211.79,36.42L212.88,35.58L213.79,35.58zM240.16,47.19L240.20,47.51L235.20,51.75L234.22,51.76L222.85,46.90L228.49,42.57L228.84,42.58z"/></g><g id="hotspot.11" onmouseover="ShowHotSpot(evt,'11')" onmouseout="HideHotSpot(evt,'11')" onmousemove="ShowToolTip(evt,'11',&quot;3dp1100598&quot;)" opacity="0"><path style="fill:#00ff00;fill-rule:evenodd" d="M249.27,62.48L248.76,65.56L247.85,67.36L247.41,67.38L204.10,48.22L203.47,48.22L202.21,48.90L202.21,47.15L203.57,47.54L203.19,45.30L203.56,42.84zM194.71,45.79L194.85,47.81L201.72,47.73L201.72,48.04L200.51,48.24L194.85,48.50L194.69,51.30L175.75,51.30L175.84,45.63L194.45,45.52z"/></g><g id="hotspot.12" onmouseover="ShowHotSpot(evt,'12')" onmouseout="HideHotSpot(evt,'12')" onmousemove="ShowToolTip(evt,'12',&quot;3dp1100711&quot;)" opacity="0"><path style="fill:#00ff00;fill-rule:evenodd" d="M242.85,71.40L242.89,71.74L242.21,72.19L222.27,89.94L226.34,89.95L228.86,89.77L229.10,87.06L247.71,86.95L247.98,87.22L247.96,92.73L229.02,92.73L228.86,90.47L221.21,90.73L219.16,92.72L201.57,108.25L201.14,108.27L186.59,100.15L186.60,99.74L227.64,65.15L227.95,64.89L228.58,64.89zM217.03,93.14L215.93,94.33L213.78,96.23L212.97,96.43L208.02,93.68L211.92,90.47z"/></g><g id="hotspot.13" onmouseover="ShowHotSpot(evt,'13')" onmouseout="HideHotSpot(evt,'13')" onmousemove="ShowToolTip(evt,'13',&quot;3dp1110994&quot;)" opacity="0"><path style="fill:#00ff00;fill-rule:evenodd" d="M168.35,114.16L168.60,114.53L166.45,116.41L120.86,154.79L120.16,154.81L118.55,153.68L118.29,158.11L99.35,158.11L99.43,152.43L108.61,152.19L108.59,145.91L105.35,143.47L105.33,143.03L106.16,142.20L106.98,142.10L108.62,143.49L109.01,143.48L155.04,106.60L155.95,106.61zM116.67,152.11L109.30,152.19L109.32,146.68L109.65,146.65z"/></g><g id="hotspot.14" onmouseover="ShowHotSpot(evt,'14')" onmouseout="HideHotSpot(evt,'14')" onmousemove="ShowToolTip(evt,'14',&quot;3dp567653&quot;)" opacity="0"><path style="fill:#00ff00;fill-rule:evenodd" d="M225.89,60.62L229.70,62.50L229.69,62.86L228.99,63.58L230.21,63.86L230.13,64.36L230.42,64.66L247.13,71.93L262.78,72.16L263.05,72.42L263.02,77.94L244.08,77.94L244.17,72.26L245.81,71.93L229.95,64.92L229.63,65.26L229.14,65.22L228.33,64.11L224.17,67.63L223.47,67.65L209.64,61.23L209.73,60.74L215.69,56.04z"/></g></g></svg>
