<?xml version="1.0" encoding="UTF-8" standalone="no"?>
<svg xmlns="http://www.w3.org/2000/svg" xmlns:xlink="http://www.w3.org/1999/xlink" width="297.000mm" height="210.000mm" viewBox="0.000000 0.000000 297.000000 210.000000" stroke-linejoin="round" stroke-linecap="round" fill="none" fill-rule="evenodd"><desc>Composer Export</desc><script type="text/ecmascript"><![CDATA[
if(typeof(top) != "undefined")
{
	top.ShowPaper = ShowPaper;
}
function ShowHotSpot(evt,hotspotid)
{
	var svgDocument = evt.target.ownerDocument;
	var strId = "hotspot."+hotspotid;
	var hotspot = svgDocument.getElementById(strId);
	if(hotspot)
		hotspot.setAttribute("opacity",".5");
}
function HideHotSpot(evt,hotspotid)
{
	var svgDocument = evt.target.ownerDocument;
	var strId = "hotspot."+hotspotid;
	var hotspot = svgDocument.getElementById(strId);
	if(hotspot)
		hotspot.setAttribute("opacity","0");

	var toolTip = svgDocument.getElementById('ToolTip');
	if(toolTip)
		toolTip.setAttribute("visibility","hidden");
}
function ShowToolTip(evt,hotspotid,strTooltip)
{
	if(strTooltip=="")
	return;

	// change text
	var svgDocument = evt.target.ownerDocument;
	var tiptext = svgDocument.getElementById('ToolTipText');
	if( !tiptext )
	return;
	tiptext.firstChild.nodeValue = " " + strTooltip + "  " ;

	// show tooltip before, else some refresh issue

	var toolTip = svgDocument.getElementById('ToolTip');
	if(!toolTip)
	return;

	toolTip.setAttribute("visibility","visible");
	toolTip.setAttribute("opacity",".95");

	// move tooltip
	// get viewbox

	var root = svgDocument.documentElement;
	var vbox = (root.getAttribute("viewBox")).split(' ');
	var x0 = parseFloat(vbox[0]);
	var y0 = parseFloat(vbox[1]);
	var vboxW = parseFloat(vbox[2]);
	var vboxH = parseFloat(vbox[3]);

	// get default width of svg

	var strW = root.getAttribute("width");
	var svgW = parseFloat(strW);
	if(strW.indexOf('mm') != -1)
	svgW *= 3.779;

	var strH = root.getAttribute("height");
	var svgH = parseFloat(strH);
	if(strH.indexOf('mm') != -1)
	svgH *= 3.779;  	// 96 dpi  -> 96/25.4 = 3.779

	// update the viewbox / width / height if svg is embedded in html with zoom fit all
	var realx0 = x0;
	var realy0 = y0;
	var realvboxW = vboxW;
	var realvboxH = vboxH;
	var realsvgW = svgW;
	var realsvgH = svgH;

	if ((typeof(top) == "undefined") || (typeof(top.svgctl1) != "undefined")) // embedded in html
	{
		// get window size in pxl

		svgW = window.innerWidth;
		svgH = window.innerHeight;

		// calculate real viewbox

		realsvgW = svgW;
		realsvgH = svgH;
		if((svgW / svgH) > (vboxW / vboxH))
		{
			realvboxW = (vboxH * svgW) / svgH;
			realvboxH = vboxH;
			realx0 = x0 - (realvboxW - vboxW)/2 ;
		}
		else
		{
			realvboxH = (vboxW * svgH) / svgW;
			realvboxW = vboxW;
			realy0 = y0 - (realvboxH - vboxH)/2 ;
		}
	}

	// get user zoom/pan

	var newScale = root.currentScale;
	var translation = root.currentTranslate;

	// transform pxl to user unit

	var xPos = (((evt.clientX+10- translation.x)/newScale) * realvboxW)/realsvgW  + realx0 ;
	var yPos = (((evt.clientY+5- translation.y)/newScale) * realvboxH)/ realsvgH  + realy0 ;
	var scaleForWidth = ( (1 / newScale) * realvboxH) / realsvgH;

	// move tooltip

	toolTip.setAttribute("transform", "translate(" + xPos + "," + yPos + ")" );

	// resize tooltip

	var fontsize = 12;
	tiptext.setAttribute("font-size",fontsize*scaleForWidth);
	tiptext.setAttribute("y", fontsize*scaleForWidth);
	var tipBG = svgDocument.getElementById('ToolTipBG');
	var outline = tiptext.getBBox();
	if(tipBG)
	{
		tipBG.setAttribute("stroke-width", 1*scaleForWidth);
		tipBG.setAttribute("width", Number(outline.width) );
		tipBG.setAttribute("height", Number(outline.height) + fontsize*.5*scaleForWidth );
	}
	var ToolTipShadow = svgDocument.getElementById('ToolTipShadow');
	if(ToolTipShadow)
	{
		ToolTipShadow.setAttribute("width", Number(outline.width) );
		ToolTipShadow.setAttribute("height", Number(outline.height) + fontsize*.5*scaleForWidth );
		ToolTipShadow.setAttribute("x", 3*scaleForWidth);
		ToolTipShadow.setAttribute("y", 3*scaleForWidth);
	}
}
function ShowPaper()
{
  var svgDocument = getDocument();
  var paper = svgDocument.getElementById("paperID");
  if(paper)
  {
    paper.setAttribute("transform","scale(1)");
    paper.setAttribute("opacity","1");
    paper.setAttribute("visibility","visible");
  }
  var svg = svgDocument.getRootElement();
  if(svg)
  {
    svg.setAttribute("width","307.000mm");
    svg.setAttribute("height","220.000mm");
    svg.setAttribute("viewBox","-5.000000 -5.000000 307.000000 220.000000");
  }
}
]]></script><defs/><g><path style="fill:#ffffff" d="M296.92,210.03L0.08,210.03L0.08,0.08L296.92,0.08z"/><path style="fill:#d0d0ff" d="M74.28,70.52L75.50,72.46L76.10,73.97L66.56,76.74L67.16,78.65L67.68,81.85L67.34,83.86L67.86,83.78L68.25,83.05L68.51,81.04L69.89,90.03L69.20,90.74L69.67,94.12L69.05,93.72L68.50,90.05L69.08,89.50L68.52,85.90L67.95,84.85L67.17,84.28L65.80,84.06L65.31,83.67L66.92,82.80L67.18,80.81L66.37,77.30L66.12,76.93L64.51,74.04L63.40,73.23L61.89,73.40L62.25,72.47L65.74,71.39L71.92,69.77L73.10,69.76z"/><path style="fill:#804040" d="M79.54,69.77L80.71,70.74L80.54,70.84L80.58,71.37L81.18,72.46L81.07,72.99L81.44,75.97L81.17,77.98L80.91,78.24L80.89,76.23L80.33,73.82L80.07,73.00L79.83,73.03L79.82,77.93L79.48,78.74L79.20,78.68L79.27,75.69L78.47,73.27L78.16,73.58L78.46,77.66L77.91,79.28L77.92,77.03L77.40,74.60L77.09,74.05L76.52,74.05L76.40,74.24L76.10,73.97L75.50,72.46L74.28,70.52L76.20,70.02L76.48,69.76L78.73,69.49z"/><path style="fill:#804040" d="M64.51,74.04L66.12,76.93L64.61,77.55L65.28,80.53L65.30,82.78L64.83,83.63L63.75,83.46L63.98,82.40L63.70,82.04L63.39,81.32L62.06,81.34L60.96,78.66L60.70,77.58L60.71,74.16L61.89,73.40L63.40,73.23z"/><path style="fill:#babbe5" d="M76.40,74.24L76.62,75.06L77.55,79.63L78.19,84.83L78.47,88.16L75.55,92.50L70.58,94.28L69.85,94.29L69.67,94.12L69.20,90.74L69.89,90.03L68.51,81.04L68.25,83.05L67.86,83.78L67.34,83.86L67.68,81.85L67.16,78.65L66.56,76.74L76.10,73.97z"/><path style="fill:#e1e1e1" d="M254.68,106.35L255.27,106.83L236.38,119.90L228.86,156.78L228.62,157.16L182.22,129.85L182.30,125.81L184.44,95.40L186.34,94.87L204.66,85.92z"/><path style="fill:#ffffff" d="M70.97,90.90L71.31,91.27L70.54,91.47L70.52,90.68z"/><path style="fill:#e5e5e5" d="M61.82,75.65L61.65,76.44L61.27,75.83L61.54,75.38z"/><path style="fill:#e5e5e5" d="M63.98,82.40L63.75,83.46L57.92,84.87L57.50,84.77L57.52,84.22L58.19,83.74L60.33,83.20L63.70,82.04z"/><path style="fill:#bd9f70" d="M62.36,74.54L62.86,75.68L62.86,77.14L61.76,77.04L61.65,76.44L61.82,75.65L61.54,75.38L61.27,75.83L61.16,74.61L62.10,74.35z"/><path style="fill:#d9904e" d="M76.63,86.35L76.59,87.62L76.20,88.31L74.51,89.02L73.17,87.76L74.60,85.90L75.62,85.51L75.82,85.51z"/><path style="fill:#d9904e" d="M75.79,90.20L75.79,91.39L75.40,92.08L74.35,92.66L73.37,92.64L72.60,91.74L73.63,90.05L74.79,89.37z"/><path style="fill:#d9904e" d="M71.04,90.06L71.47,89.85L71.77,90.46L72.07,91.17L71.31,91.27L70.97,90.90L71.14,90.16z"/><path style="fill:#f2a157" d="M75.62,85.51L74.60,85.90L73.17,87.76L73.00,87.63L73.09,86.00L73.78,85.36L74.50,85.20z"/><path style="fill:#f2a157" d="M74.79,89.37L73.63,90.05L72.60,91.74L72.37,91.71L72.07,91.17L71.77,90.46L71.47,89.85L72.45,89.40L74.51,89.02z"/><path style="fill:#f2a157" d="M70.52,90.68L70.82,90.15L71.04,90.06L71.14,90.16L70.97,90.90z"/><path style="fill:#733939" d="M81.71,72.75L82.24,72.80L82.39,72.64L82.77,73.53L82.78,76.05L81.44,78.48L77.55,79.63L76.62,75.06L76.55,74.35L76.40,74.24L76.52,74.05L77.09,74.05L77.40,74.60L77.92,77.03L77.91,79.28L78.46,77.66L78.16,73.58L78.47,73.27L79.27,75.69L79.20,78.68L79.48,78.74L79.82,77.93L79.83,73.03L80.07,73.00L80.33,73.82L80.89,76.23L80.91,78.24L81.17,77.98L81.44,75.97L81.07,72.99L81.18,72.46L80.58,71.37L80.54,70.84L80.71,70.74z"/><path style="fill:#733939" d="M66.37,77.30L67.18,80.81L66.92,82.80L65.31,83.67L64.83,83.63L65.30,82.78L65.28,80.53L64.61,77.55L66.12,76.93z"/><path style="fill:#d0d0ff" d="M57.50,84.77L57.12,84.68L57.02,84.28L57.29,84.14L57.52,84.22z"/><path style="fill:#d0d0ff" d="M76.60,85.36L76.63,86.35L75.82,85.51L75.88,84.82L76.05,84.81z"/><path style="fill:#d0d0ff" d="M72.37,91.71L72.21,91.83L70.63,91.83L70.54,91.47L71.31,91.27L72.07,91.17z"/><path style="fill:#01ff02" d="M194.13,121.96L194.31,122.67L194.03,125.37L193.69,129.10L193.08,128.95L188.13,126.06L188.68,119.24L189.01,119.22z"/><path style="fill:#01ff02" d="M206.62,128.64L206.80,128.94L206.05,136.07L205.16,135.96L199.70,132.78L200.60,125.43z"/><path style="fill:#804040" d="M81.47,71.06L82.39,72.64L82.24,72.80L81.71,72.75L80.71,70.74z"/><path style="fill:#804040" d="M76.62,75.06L76.40,74.24L76.55,74.35z"/><path style="fill:#cacaca" d="M229.41,125.55L229.14,125.49L229.10,124.64z"/><path style="fill:#cacaca" d="M185.48,126.50L185.79,126.55L185.84,126.86L185.53,126.80z"/><path style="fill:#cacaca" d="M206.62,128.64L207.34,127.17L207.58,125.26L208.42,122.60L209.40,120.06L209.50,120.07L207.61,134.70L207.22,135.39L206.05,136.07L206.80,128.94z"/><path style="fill:#cacaca" d="M196.56,116.39L195.24,128.25L194.69,128.77L193.69,129.10L194.03,125.37L194.31,122.67L194.94,118.80L195.49,117.48L195.74,116.11L196.57,113.87z"/><path style="fill:#cacaca" d="M199.07,112.15L197.08,130.97L196.77,130.97L196.83,128.50L198.62,112.22L199.00,111.99z"/><path style="fill:#cacaca" d="M220.12,136.13L220.06,135.90L221.05,133.89L221.30,132.52L221.86,131.20L222.11,129.83L223.12,127.32L223.20,128.50L220.81,142.52L219.44,143.60L219.19,142.59L219.32,142.04L219.46,140.97L219.58,140.42L219.73,139.36L219.85,138.81L220.00,137.74L220.12,137.20L220.25,136.22z"/><path style="fill:#cacaca" d="M211.98,118.61L209.21,137.97L208.96,138.23L208.94,137.11L211.53,118.67L211.91,118.45z"/><path style="fill:#cacaca" d="M225.97,125.87L222.67,144.92L222.12,145.74L222.10,145.21L225.55,125.68z"/><path style="fill:#cacaca" d="M224.49,148.79L224.79,148.86L224.85,149.47L224.50,149.15z"/><path style="fill:#cacaca" d="M246.88,141.96L245.14,143.45L233.30,153.13L230.48,155.42L229.01,157.23L228.62,157.16L228.86,156.78L236.38,119.90L255.27,106.83z"/><path style="fill:#ff0000" d="M214.89,133.23L220.06,135.90L220.12,136.13L220.12,137.20L220.00,137.74L219.85,138.81L219.73,139.36L219.58,140.42L219.46,140.97L219.32,142.04L219.19,142.59L218.87,143.30L218.37,143.25L212.70,139.97L213.69,132.69L214.03,132.67z"/><path style="fill:#babbe5" d="M57.29,84.14L57.02,84.28L56.83,84.10L56.96,83.45z"/><path style="fill:#e1e1e1" d="M220.12,137.20L220.12,136.13L220.25,136.22z"/><path style="fill:#000000" d="M192.23,123.78L192.24,124.40L191.94,124.49L192.03,123.54z"/><path style="fill:#000000" d="M217.55,140.00L216.92,140.05L217.00,139.70z"/><path style="fill:#ffffff" d="M74.50,85.20L75.88,84.82L75.82,85.51L75.62,85.51z"/><g id="Actor_.0"><g style="stroke:#000000;stroke-width:0.018"><path d="M228.75,157.22L228.57,157.03L182.08,129.61L182.00,129.64"/><path d="M182.08,129.61L184.48,95.74L236.05,120.03L228.57,157.03"/><path d="M184.48,95.74L184.41,95.47"/><path d="M184.47,95.38L236.49,119.82L236.05,120.03"/><path d="M185.65,127.51L185.11,127.01L184.76,126.23L184.81,125.58L184.98,125.36L185.21,125.25L185.66,125.30L186.12,125.60L186.50,126.09L186.71,126.66L186.70,127.17L186.49,127.53L186.06,127.64L185.65,127.51"/><path d="M185.44,126.40L185.65,127.15L185.90,126.83L185.73,126.23L185.44,126.40L184.98,125.89L185.46,125.93L185.73,126.23"/><path d="M185.48,125.93L185.83,125.67L185.78,125.54L185.46,125.93"/><path d="M186.73,127.01L187.02,126.84L187.00,126.48L186.88,126.10L186.55,125.58L186.11,125.20L185.80,125.08L185.50,125.08L185.09,125.29"/><path d="M255.37,106.62L236.86,119.47L185.31,95.33"/><path d="M187.02,126.84L186.87,127.26L186.37,127.60"/><path d="M185.90,126.83L186.00,126.70L186.45,126.74L186.07,126.30L185.83,125.67"/><path d="M186.00,126.70L186.27,126.53"/><path d="M188.58,104.45L188.43,103.64L188.08,103.10L187.45,102.66L186.92,102.68L187.28,102.50L187.75,102.51L188.39,102.94L188.74,103.48L188.88,104.29L188.62,104.43L188.42,104.93L188.07,105.19L187.59,105.18L187.10,104.89L186.61,104.20L186.46,103.59L186.55,103.06L186.92,102.68L186.84,102.71"/><path d="M187.19,104.17L186.70,103.66L187.15,103.65L187.49,104.01L187.68,104.61L187.42,104.91L187.19,104.17L187.49,104.01"/><path d="M196.49,131.26L187.82,126.33L189.39,107.50L198.55,112.11L199.16,111.76L197.07,130.88L196.49,131.26L198.55,112.11"/><path d="M188.14,126.13L188.07,126.00L188.31,126.23L193.58,129.21L193.55,129.14L193.88,129.12L193.80,129.23L193.58,129.21"/><path d="M189.02,116.44L188.94,116.04L189.00,115.69L189.35,115.00L195.29,118.13L194.94,118.84L194.87,119.19L194.94,119.60L189.02,116.44L188.86,117.18L194.77,120.34L194.38,121.48L194.39,121.87L194.54,122.26L194.27,122.00L194.23,122.30L193.55,129.05L188.13,126.04L188.68,118.98L188.05,125.95"/><path d="M187.68,104.61L188.14,104.29L188.26,104.42L187.82,104.45"/><path d="M187.23,103.65L187.54,103.49L187.63,103.33L187.56,103.10L187.23,103.65L187.15,103.65"/><path d="M188.14,104.29L187.83,103.97L187.63,103.33"/><path d="M188.86,122.12L188.89,122.32L189.46,122.89L189.48,123.26L189.24,123.32L188.94,123.16L188.72,122.91L188.64,122.60"/><path d="M188.88,122.09L189.00,122.05L189.26,122.18L189.40,122.39L189.38,122.52L189.53,122.59L189.46,122.29L189.06,121.95L188.86,121.91L188.75,122.00L188.82,122.38L189.31,122.84L189.39,123.09L189.31,123.18L189.07,123.13L188.85,122.94L188.75,122.66L188.61,122.59L188.65,122.85L188.99,123.23L189.40,123.33"/><path d="M188.79,121.93L188.70,122.10L188.74,122.31L189.33,122.93L189.33,123.16"/><path d="M188.89,122.09L189.26,122.23L189.38,122.52"/><path d="M188.64,119.04L188.50,118.69L188.49,118.30L188.57,117.86L188.86,117.18"/><path d="M188.73,118.99L194.26,121.99"/><path d="M188.20,105.13L188.72,104.77L188.88,104.29"/><path d="M190.34,122.79L190.27,122.75L190.63,122.98L190.34,122.79"/><path d="M189.75,122.34L189.74,122.46L190.12,122.67L190.02,123.75L190.14,123.86L190.02,123.75"/><path d="M189.99,123.77L190.12,122.67"/><path d="M190.15,123.82L190.24,122.77"/><path d="M189.41,122.50L189.53,122.56"/><path d="M189.74,122.46L189.72,122.33L190.64,122.83L190.63,122.95"/><path d="M189.71,122.47L190.09,122.68"/><path d="M189.35,115.00L189.54,114.24L189.57,113.49L190.04,112.46L196.03,115.54L196.31,114.25L196.74,113.39L190.73,110.33L190.83,110.28L190.65,110.19L190.62,110.50L190.25,111.39L190.19,111.98L196.18,115.07"/><path d="M189.54,114.24L195.50,117.36L195.50,116.81L195.61,116.38L196.03,115.54"/><path d="M190.19,111.98L190.05,112.45"/><path d="M199.16,111.76L190.00,107.18L189.39,107.50"/><path d="M191.50,124.57L191.64,124.65L191.29,123.19L191.16,123.12L190.59,124.07L190.73,124.15L190.88,123.87L191.40,124.12L191.50,124.57L191.40,124.12"/><path d="M190.59,124.07L190.73,124.15"/><path d="M191.47,124.59L191.64,124.65"/><path d="M191.36,123.97L191.21,123.25L191.36,123.97"/><path d="M191.33,123.98L190.95,123.77L191.18,123.27"/><path d="M190.88,123.87L191.37,124.14"/><path d="M190.56,124.08L191.13,123.11"/><path d="M190.62,110.50L190.73,110.33"/><path d="M190.83,110.28L196.84,113.34L196.74,113.39"/><path d="M192.65,125.21L192.79,125.29L192.65,125.25L192.34,124.50L192.01,124.28L191.93,124.81L191.80,124.74L191.93,124.81"/><path d="M192.61,125.22L192.31,124.52L191.98,124.30"/><path d="M192.65,124.34L192.50,124.02L192.06,123.76L192.57,124.03L192.65,124.34"/><path d="M192.61,124.38L192.40,124.38L192.02,124.17L192.03,123.75"/><path d="M191.80,124.74L191.92,123.54L192.53,123.88L192.75,124.12L192.78,124.46L192.69,124.56L192.46,124.52L192.48,124.58"/><path d="M191.77,124.76L191.92,123.54"/><path d="M192.79,125.29L192.50,124.62"/><path d="M192.44,124.54L192.71,124.55"/><path d="M193.28,125.56L193.41,125.67L193.28,125.56L193.39,124.47L193.00,124.26L193.39,124.47"/><path d="M193.25,125.58L193.36,124.49"/><path d="M193.41,125.64L193.52,124.57L193.91,124.76L193.93,124.64L193.01,124.14L193.00,124.26"/><path d="M193.52,124.57L193.91,124.76"/><path d="M192.97,124.27L193.01,124.14"/><path d="M194.54,122.26L193.88,129.12L195.30,128.23L196.84,113.34"/><path d="M193.83,129.20L195.00,128.47L195.26,128.62L195.30,128.23"/><path d="M194.77,120.34L194.94,119.60"/><path d="M195.00,128.47L195.29,128.29"/><path d="M195.50,117.36L195.29,118.13"/><path d="M208.74,138.21L199.36,132.88L201.58,113.63L202.18,113.27L212.11,118.23L209.32,137.81L208.74,138.21L211.51,118.61L212.11,118.23"/><path d="M200.54,125.39L206.90,128.83L206.86,128.34L206.93,127.93L207.30,127.04L200.90,123.62L200.50,124.70L200.54,125.39L199.68,132.78L205.91,136.31L207.49,135.24"/><path d="M201.71,130.99L201.56,131.09L201.73,131.17L201.82,131.10L201.71,130.99L202.15,130.66L201.56,131.09"/><path d="M204.65,131.73L204.58,131.78L204.72,131.83L204.94,131.74L204.60,131.70L202.07,130.31L201.94,130.31L201.72,129.97L201.71,129.82L201.81,129.76"/><path d="M201.71,129.82L201.92,128.08L202.07,127.99L202.05,128.10"/><path d="M202.00,130.27L201.80,129.93L202.01,128.13L202.11,128.06L205.26,129.74L205.14,129.85L204.92,131.52L204.99,131.53L205.21,129.88L205.70,130.16L205.72,130.02L201.42,127.62L201.40,127.80L201.55,127.69"/><path d="M201.55,127.71L202.07,127.99"/><path d="M201.40,127.80L201.92,128.08"/><path d="M200.90,123.62L201.07,122.86L207.49,126.28L207.30,127.04"/><path d="M201.07,122.86L201.04,122.28L201.45,121.38L201.67,120.60L201.73,119.83L202.23,118.75L208.70,122.11L208.19,123.20L208.11,123.93L207.89,124.77L201.45,121.38"/><path d="M201.67,120.60L208.12,123.98"/><path d="M201.58,113.63L211.51,118.61"/><path d="M202.15,130.66L202.31,130.75L201.86,131.08"/><path d="M202.95,131.96L203.10,131.86L203.12,132.05L202.97,131.97L202.98,131.76L202.97,131.82"/><path d="M202.01,130.35L204.58,131.78"/><path d="M202.07,130.31L202.04,130.29"/><path d="M205.14,129.85L202.01,128.13"/><path d="M202.23,118.75L202.38,118.27L208.87,121.62L208.70,122.11"/><path d="M202.38,118.27L202.46,117.66L202.84,116.77L202.89,116.42L209.58,119.82L209.48,119.88L202.97,116.57L202.84,116.77"/><path d="M203.10,131.86L203.18,131.23L203.05,131.16L202.98,131.76"/><path d="M204.46,132.70L204.05,131.73L204.21,131.81L204.62,132.80L204.46,132.70L204.56,132.64"/><path d="M203.18,131.23L203.14,131.89"/><path d="M203.07,116.51L202.97,116.57"/><path d="M204.99,131.53L204.85,131.70L204.91,131.58"/><path d="M204.98,131.62L204.94,131.73"/><path d="M204.85,131.70L204.83,131.72"/><path d="M205.21,129.88L205.29,129.75"/><path d="M205.91,136.31L206.90,128.83"/><path d="M205.27,129.84L205.35,129.79L205.72,129.99"/><path d="M207.29,135.37L207.46,135.46L209.58,119.82"/><path d="M207.49,126.28L207.44,125.86L207.52,125.51L207.89,124.77"/><path d="M209.48,119.88L209.03,120.77L208.87,121.62"/><path d="M214.79,120.26L211.84,139.96L221.99,145.73L225.58,125.68L214.79,120.26L215.39,119.88L226.18,125.27L225.58,125.68"/><path d="M218.96,143.59L212.63,140.00L212.50,139.78L213.58,132.58L213.71,132.52L212.60,139.89L218.94,143.48L218.99,143.60L219.19,143.61L219.29,143.53L218.94,143.48L220.20,136.06L220.52,136.35L219.31,143.44L220.74,142.43L223.43,126.93L216.24,123.33L216.10,123.54L216.15,123.17L223.41,126.87"/><path d="M212.62,139.99L212.50,139.78"/><path d="M214.39,137.70L213.53,137.60L213.55,137.55"/><path d="M214.42,137.71L214.53,137.72L214.99,138.48L215.55,139.13L215.01,138.46L214.62,137.73L216.52,137.93L214.62,137.73"/><path d="M214.50,136.00L214.38,136.64L214.55,137.64L214.35,136.90L214.47,136.02L213.91,135.43"/><path d="M213.56,137.58L214.58,137.70"/><path d="M214.52,137.66L213.52,137.54L213.53,137.60"/><path d="M214.55,136.09L214.43,136.83L214.59,137.64L216.42,137.88L214.59,136.12L216.42,137.88"/><path d="M213.93,135.41L214.50,135.96L214.78,135.57L214.50,135.96"/><path d="M213.88,135.45L214.47,136.02"/><path d="M220.50,136.33L220.39,135.93L220.42,135.53L220.88,134.32L213.94,130.60L213.49,131.79L213.47,132.19L213.58,132.56"/><path d="M213.71,132.52L220.21,136.04"/><path d="M213.94,130.60L214.14,129.82L214.13,129.23L214.57,128.29L221.54,131.97L221.11,132.93L221.10,133.53L220.88,134.32"/><path d="M214.14,129.82L221.10,133.53"/><path d="M214.55,137.72L214.96,138.50L215.55,139.13"/><path d="M218.64,138.15L216.52,137.90L214.59,136.05L215.00,135.54L215.66,135.30L216.42,135.40L217.21,135.81L218.10,136.72L218.53,137.56L218.67,138.13L218.39,137.29L218.07,136.74L217.18,135.83L216.66,135.53L216.13,135.35L215.63,135.32L215.00,135.54"/><path d="M214.75,135.58L214.61,135.76"/><path d="M214.78,135.57L214.93,135.44L214.78,135.57"/><path d="M218.89,140.20L218.34,139.68L218.87,140.23L218.90,140.18L218.36,139.66L218.60,139.34L218.75,138.94L218.79,138.22L219.22,138.25L218.81,138.17L218.53,137.30L218.02,136.48L217.34,135.80L216.55,135.35L215.78,135.19L215.31,135.25L214.93,135.44"/><path d="M215.03,135.52L215.01,135.53"/><path d="M214.81,127.49L214.97,126.47L215.43,125.58L222.46,129.23L222.00,130.13L221.81,131.16L214.81,127.49L214.57,128.29"/><path d="M215.43,125.58L215.78,124.23L216.09,123.57"/><path d="M216.52,137.93L218.23,139.57L218.07,139.69L218.20,139.59L216.49,137.95"/><path d="M216.73,137.95L216.62,137.94L218.25,139.55L218.62,138.95L218.68,138.18L216.73,137.95"/><path d="M216.59,137.96L218.68,138.18"/><path d="M215.60,125.09L222.64,128.72L222.46,129.23"/><path d="M216.33,123.26L216.24,123.33"/><path d="M216.76,139.96L217.00,139.61L216.76,139.96L217.22,140.11L216.94,139.95L217.70,139.98L218.31,139.70"/><path d="M217.22,140.11L217.35,140.19L216.73,139.98"/><path d="M216.94,139.95L217.73,139.96L218.34,139.68"/><path d="M216.99,139.64L216.96,139.86L217.20,139.89L217.65,139.86L218.07,139.69"/><path d="M218.28,139.53L218.59,138.97L218.65,138.21"/><path d="M218.79,138.22L219.22,138.25"/><path d="M219.24,143.58L220.40,142.73L220.66,142.87L220.74,142.43"/><path d="M220.40,142.73L220.73,142.48"/><path d="M221.99,145.73L222.57,145.29L226.18,125.27"/><path d="M221.56,131.97L221.81,131.16"/><path d="M223.75,147.62L223.53,148.03L223.56,148.65L224.02,149.46L224.58,149.91L225.17,150.12L225.54,150.09L226.11,149.72L226.35,149.29L226.06,149.51L226.02,148.91L225.84,148.49L225.56,148.09L225.00,147.64L224.40,147.43L224.04,147.46L223.75,147.62L224.33,147.24L224.69,147.21L225.08,147.32L225.84,147.87L226.23,148.48L226.35,148.90L226.35,149.29"/><path d="M222.64,128.72L222.84,127.85L223.31,126.93"/><path d="M224.67,149.57L224.93,149.31L224.69,148.45L224.41,148.67L224.67,149.57"/><path d="M224.41,148.67L223.91,148.15L224.45,148.20L224.69,148.45"/><path d="M224.45,148.20L224.99,147.83L225.22,148.61L225.76,149.18L225.12,149.10L225.49,148.90"/><path d="M224.04,147.40L224.03,147.41"/><path d="M224.94,149.29L225.12,149.10"/><path d="M225.83,149.94L226.06,149.51"/><path d="M227.95,124.09L228.01,124.54L228.20,124.99L228.57,125.46L229.10,125.84L229.53,125.99L229.95,126.00L230.30,125.86L230.57,125.60L230.73,125.08L230.59,124.35L230.18,123.71L229.58,123.27L229.14,123.12L228.54,123.17L228.11,123.52L227.95,124.09"/><path d="M228.89,157.23L236.49,119.82L236.94,119.51L236.86,119.47"/><path d="M229.13,124.53L229.43,125.38L229.16,125.65L228.83,124.74L228.34,124.22L228.86,124.25L229.13,124.53L228.83,124.74"/><path d="M228.86,124.25L229.27,124.05L229.55,123.77L229.75,124.61L230.36,125.22L229.64,125.18L229.43,125.38"/><path d="M228.97,124.25L229.53,123.70L229.55,123.77"/><path d="M230.71,125.24L231.01,125.03L230.97,124.37L230.64,123.70L230.29,123.33L229.66,122.97L229.23,122.90L228.84,122.96L228.37,123.25"/><path d="M229.42,156.34L236.94,119.51"/><path d="M231.01,125.03L230.75,125.54L230.30,125.86"/><path d="M229.64,125.18L229.94,124.97L230.12,124.98"/></g><g style="stroke:#000000;stroke-width:0.123"><path d="M182.05,129.67L184.43,95.41L184.93,95.15L185.31,95.33L204.59,85.81L255.37,106.62L246.79,142.12L229.42,156.34L229.31,156.88L228.84,157.25L182.05,129.67"/></g></g><g id="Actor_.1"><g style="stroke:#000000;stroke-width:0.018"><path d="M57.34,84.80L57.30,84.81L57.02,84.42L56.82,83.83L56.82,83.40L57.03,83.37L57.31,83.76L57.51,84.35L57.50,84.75L57.34,84.80"/><path d="M57.30,84.81L57.50,84.79L57.50,84.75"/><path d="M60.39,84.29L60.47,83.92L60.36,83.31L60.10,82.69L59.78,82.29L59.72,82.39L59.63,82.45L57.00,83.21L56.75,83.25"/><path d="M57.58,84.94L57.58,84.41L57.37,83.77L57.34,83.69L57.00,83.21"/><path d="M60.05,84.21L60.19,84.17L60.20,83.65L59.97,82.93L59.63,82.47L59.37,82.49"/><path d="M62.18,81.51L63.07,81.26L63.33,81.27L59.78,82.29L59.54,82.27"/><path d="M60.28,84.22L60.06,84.21"/><path d="M61.53,74.48L61.97,75.01L62.32,75.85L62.47,76.70L62.35,77.21L62.01,77.20L61.58,76.68L61.23,75.84L61.08,75.00L61.20,74.48L61.53,74.48L62.13,74.32L61.79,74.32L61.20,74.48"/><path d="M61.71,76.64L61.80,76.68L61.87,76.66L61.92,76.58L61.95,76.43L61.91,76.04L61.76,75.60L61.66,75.41L61.45,75.17L61.32,75.13L61.27,75.15L61.22,75.23L61.20,75.37L61.24,75.77L61.39,76.20L61.49,76.39L61.71,76.64"/><path d="M61.69,76.60L61.76,76.50L61.91,76.46L61.86,76.61L61.79,76.64L61.61,76.53L61.45,76.29L61.31,75.96L61.24,75.66L61.22,75.38L61.28,75.20L61.38,75.17L61.45,75.20L61.70,75.52L61.88,75.99L61.93,76.33L61.91,76.13"/><path d="M61.45,75.20L61.51,75.26L61.37,75.29L61.35,75.66L61.52,76.17L61.76,76.50L61.92,76.47"/><path d="M61.87,76.66L62.11,76.54L62.13,76.09L61.93,75.50L61.64,75.11L61.44,75.16"/><path d="M61.35,75.12L61.64,75.11"/><path d="M61.63,75.41L61.51,75.26"/><path d="M61.31,73.62L62.05,73.87L62.91,74.71L63.77,76.05L64.52,77.71L65.08,79.50L65.36,81.18L65.34,82.54L65.03,83.43L64.46,83.75"/><path d="M62.05,73.87L63.84,73.39L63.09,73.15L61.81,73.49"/><path d="M62.35,77.21L62.94,77.05L63.07,76.53L62.92,75.69L62.75,75.28L62.56,74.84L62.13,74.32"/><path d="M61.92,76.46L61.93,76.35"/><path d="M62.85,72.12L63.68,72.41L64.60,73.28L65.54,74.65L66.40,76.38L67.08,78.29L67.52,80.19L67.67,81.87L67.52,83.18L67.09,83.99L66.43,84.23"/><path d="M63.60,83.34L63.92,83.25L64.02,82.88L63.91,82.28L63.65,81.66L63.33,81.27"/><path d="M65.24,83.52L66.21,83.23L66.78,82.92L67.11,82.03L67.13,80.68L66.86,78.99L66.31,77.21L65.56,75.55L64.70,74.22L63.84,73.39"/><path d="M63.68,72.41L73.35,69.83"/><path d="M69.19,89.58L69.95,90.15L68.30,79.96L68.45,81.65L68.30,82.95L67.87,83.76L66.97,84.07"/><path d="M68.45,90.20L69.21,90.76L69.76,94.07L69.91,94.30"/><path d="M68.77,89.71L69.54,90.27L69.28,90.47L69.21,90.76"/><path d="M68.30,79.96L77.13,77.42L76.74,75.56L76.08,73.69L75.24,72.00L74.57,71.05L75.11,71.55L75.94,72.79L76.64,74.34L77.14,76.01L77.36,77.58L77.30,78.61L77.13,77.42"/><path d="M69.76,94.07L69.00,93.50"/><path d="M69.54,90.27L69.95,90.15"/><path d="M70.93,91.35L71.69,91.92L70.99,91.92L70.49,91.50L70.46,91.36"/><path d="M71.69,91.92L72.45,91.68"/><path d="M74.10,70.50L74.30,70.67L74.57,71.05"/><path d="M74.36,70.76L74.65,70.68L74.15,70.54"/><path d="M74.38,70.57L75.45,70.86L75.52,70.56L75.77,70.38L75.01,70.17"/><path d="M77.63,79.16L77.51,79.43L77.43,79.50L77.41,79.36L77.66,78.76L77.73,77.48L77.51,75.90L77.02,74.23L76.32,72.68L75.49,71.45L74.65,70.68L74.93,70.72L75.75,71.47L76.56,72.67L77.24,74.18L77.72,75.81L77.94,77.34L77.86,78.60L77.63,79.16L77.87,79.03L78.20,78.25L78.27,77.07L78.07,75.63L77.62,74.11L76.98,72.69L76.22,71.56L75.45,70.86"/><path d="M75.38,70.07L76.94,70.46L77.01,70.16L77.25,69.98L76.49,69.77"/><path d="M74.75,70.67L74.93,70.72"/><path d="M75.92,84.82L76.20,84.82L76.68,85.25L76.78,85.93L76.56,86.40"/><path d="M77.81,79.60L78.40,79.29L78.77,78.44L78.85,77.15L78.63,75.58L78.14,73.92L77.44,72.37L76.62,71.15L75.77,70.38L76.14,70.28L76.99,71.04L77.81,72.27L78.51,73.82L79.00,75.48L79.22,77.05L79.14,78.33L78.77,79.18"/><path d="M76.23,70.27L75.86,70.16"/><path d="M76.42,70.32L77.24,71.06L78.05,72.26L78.73,73.77L79.21,75.39L79.42,76.92L79.34,78.17L78.98,79.00L78.87,79.10"/><path d="M77.41,79.36L77.30,78.61"/><path d="M77.43,79.50L77.43,79.54"/><path d="M79.10,78.73L79.34,78.60L79.67,77.82L79.75,76.65L79.55,75.21L79.11,73.69L78.47,72.30L77.71,71.16L76.94,70.46"/><path d="M76.86,69.67L77.62,69.88L77.25,69.98L78.10,70.74L78.93,71.96L79.63,73.50L80.11,75.16L80.32,76.73L80.24,78.01L79.87,78.86L79.26,79.17"/><path d="M80.23,78.75L80.60,77.91L80.69,76.62L80.48,75.06L80.00,73.40L79.30,71.86L78.47,70.64L77.62,69.88L77.90,69.92L78.41,70.06L78.48,69.76L78.73,69.58L77.96,69.37"/><path d="M78.41,70.06L79.19,70.75L79.94,71.87L80.58,73.28L81.03,74.79L81.22,76.22L81.13,77.40L80.79,78.18L80.56,78.30L80.80,77.74L80.89,76.49L80.68,74.97L80.21,73.35L79.53,71.85L78.73,70.66L77.90,69.92L77.33,69.76"/><path d="M81.74,78.19L82.10,77.36L82.20,76.12L82.00,74.59L81.53,72.98L80.85,71.49L80.05,70.30L79.22,69.56L78.94,69.52L79.79,70.28L80.62,71.50L81.31,73.03L81.79,74.68L82.00,76.24L81.91,77.52L81.53,78.37"/><path d="M78.17,69.32L78.94,69.52L78.73,69.58L79.58,70.34L80.40,71.56L81.10,73.09L81.58,74.74L81.79,76.31L81.69,77.59L81.32,78.43L80.71,78.75"/><path d="M80.56,78.30L80.44,78.57L80.32,78.68"/><path d="M81.02,70.63L80.75,70.59L81.39,71.18L81.99,72.14L82.47,73.32L82.74,74.59L82.76,75.60L82.54,76.35"/><path d="M80.55,70.65L80.41,70.51L80.75,70.59L80.55,70.65L80.63,70.72L81.40,71.96L82.01,73.48L82.36,75.06L82.39,76.46"/><path d="M80.41,70.51L80.38,70.49"/></g><g style="stroke:#000000;stroke-width:0.123"><path d="M57.29,84.92L57.33,84.97L57.58,84.94L60.05,84.21L60.14,84.27L60.39,84.29L63.60,83.34L63.71,83.45L64.46,83.75L65.24,83.52L65.61,83.88L66.43,84.23L66.97,84.07L67.83,84.69L68.17,85.07L68.48,85.69L68.66,86.36L69.19,89.58L68.77,89.71L68.52,89.90L68.45,90.20L69.00,93.50L69.15,93.72L69.91,94.30L70.19,94.31L75.31,92.65L75.55,92.46L75.68,92.26L78.52,87.95L78.59,87.66L77.43,79.54L77.81,79.60L78.17,79.49L78.77,79.18L78.87,79.10L79.26,79.17L79.63,79.07L80.23,78.75L80.32,78.68L80.71,78.75L80.92,78.69L81.53,78.37L81.74,78.19L82.11,77.39L82.39,76.46L82.74,76.17L82.96,75.45L82.93,74.43L82.79,73.71L82.67,73.26L82.22,72.12L81.64,71.20L81.02,70.63L80.38,70.49L79.81,69.96L79.22,69.56L78.47,69.36L78.17,69.32L77.98,69.37L77.33,69.76L76.86,69.67L76.49,69.77L75.86,70.16L75.38,70.07L75.01,70.17L74.38,70.57L74.10,70.50L73.35,69.83L72.49,69.56L62.85,72.12L62.22,72.43L61.83,73.30L61.81,73.49L61.31,73.62L60.78,73.98L60.47,74.93L60.48,76.30L60.77,77.95L61.31,79.68L62.04,81.29L62.18,81.51L59.54,82.27L59.50,82.38L59.37,82.49L56.75,83.25L56.75,83.77L56.98,84.49L57.29,84.92"/><path d="M72.10,90.98L70.93,91.35L70.46,91.36L70.38,90.82L70.71,90.14L71.34,89.72L73.04,89.18L73.44,89.18"/><path d="M75.86,85.68L76.00,85.41L75.92,84.82L75.51,84.81L73.81,85.33L73.18,85.74L72.85,86.43L72.92,86.89"/></g></g><g id="Actor_.2"><g style="stroke:#000000;stroke-width:0.018"><path d="M72.81,87.39L73.39,87.80L73.74,87.02L73.74,87.02L74.29,86.18L75.17,85.76L76.04,85.91L76.57,86.58L76.56,87.51L76.02,88.34L75.15,88.76L74.28,88.61L73.74,87.95L73.74,87.02"/><path d="M73.39,85.66L73.97,86.07L73.74,87.02"/><path d="M74.51,88.94L73.91,88.31L73.39,87.80"/><path d="M75.29,86.51L75.62,86.52L75.95,86.99L75.82,87.62L75.30,88.03L74.70,88.00L74.40,87.59"/><path d="M75.67,85.49L75.05,85.77L73.97,86.07"/><path d="M76.56,87.51L76.56,87.50"/><path d="M75.95,86.99L75.84,86.92"/></g><g style="stroke:#000000;stroke-width:0.123"><path d="M72.81,87.39L73.02,86.51L73.39,85.66L74.33,85.27L75.08,85.08L75.67,85.49L76.39,86.22L76.77,86.63L76.56,87.50L76.19,88.35L75.26,88.75L74.51,88.94L73.92,88.52L73.19,87.80L72.81,87.39"/><path d="M74.40,87.59L74.37,87.54L74.50,86.91L75.02,86.49L75.29,86.51"/></g></g><g id="Actor_.3"><g style="stroke:#000000;stroke-width:0.018"><path d="M72.04,91.25L72.62,91.68L72.96,90.90L72.97,90.90L73.51,90.07L74.39,89.64L75.26,89.78L75.79,90.44L75.78,91.35L75.68,91.50L75.24,92.18L74.37,92.60L73.50,92.47L72.96,91.82L72.97,90.90"/><path d="M73.73,92.79L73.14,92.17L72.62,91.68"/><path d="M72.96,90.90L73.20,89.95L72.61,89.53"/><path d="M73.20,89.95L74.27,89.65L74.89,89.36"/><path d="M75.06,90.77L75.17,90.85L75.04,91.47L74.52,91.89L73.92,91.86L73.61,91.43"/><path d="M75.17,90.85L74.83,90.39L74.53,90.38"/><path d="M75.78,91.35L75.78,91.35"/></g><g style="stroke:#000000;stroke-width:0.123"><path d="M72.18,90.66L72.04,91.25L72.43,91.65L73.15,92.36L73.73,92.79L74.48,92.59L75.41,92.19L75.78,91.35L75.99,90.48L75.61,90.08L74.89,89.36L74.30,88.94L73.56,89.13L72.61,89.53L72.25,90.38L72.18,90.66"/><path d="M74.53,90.38L74.24,90.36L73.72,90.78L73.59,91.40L73.61,91.43"/></g></g><g id="Actor_.4"><g style="stroke:#000000;stroke-width:0.018"><path d="M71.09,91.04L70.89,90.02"/><path d="M71.09,89.89L71.06,89.99L71.36,90.72L71.40,90.75L71.10,90.02L71.14,89.85"/><path d="M71.40,90.75L71.98,91.02"/><path d="M71.52,89.66L71.44,89.95L71.67,90.48L72.06,90.67L72.16,90.74"/><path d="M72.06,90.67L71.77,90.45L71.72,90.45L71.67,90.48"/><path d="M71.66,89.62L71.56,89.81L71.77,90.45"/><path d="M73.40,89.20L73.38,89.18"/><path d="M73.96,90.68L74.45,90.46L74.89,90.62L75.03,91.08L74.79,91.57L74.31,91.79L73.87,91.63L73.72,91.17L73.96,90.68"/><path d="M73.87,91.63L73.78,91.66"/><path d="M74.89,90.62L74.91,90.53"/></g><g style="stroke:#000000;stroke-width:0.123"><path d="M70.52,90.53L70.55,90.64L71.09,91.04L71.62,91.13"/></g></g><g id="Actor_.5"><g style="stroke:#000000;stroke-width:0.018"><path d="M74.50,87.30L74.74,86.81L75.23,86.59L75.67,86.76L75.81,87.23L75.57,87.71L75.09,87.94L74.64,87.77L74.50,87.30"/><path d="M74.02,85.26L74.04,85.28L74.03,85.26"/><path d="M74.04,85.28L74.14,85.35"/><path d="M74.40,85.25L74.36,85.16"/><path d="M74.64,87.77L74.55,87.79"/><path d="M75.67,86.76L75.69,86.67"/></g><g style="stroke:#000000;stroke-width:0.123"><path d="M74.61,85.20L74.59,85.09"/></g></g><g id="PMI1.0"><g><path style="stroke:#000000;stroke-width:0.250" d="M65.97,94.48L66.29,85.64"/></g><g><path style="fill:#000000" d="M67.31,85.68L65.31,85.61L66.38,83.65z"/></g><g><path style="fill:#ffffff" d="M53.91,100.13L77.87,100.13L77.87,94.49L53.91,94.49z"/><path style="stroke:#000000;stroke-width:0.250;stroke-opacity:0.98" d="M53.91,100.13L77.87,100.13L77.87,94.49L53.91,94.49z"/><text xml:space="preserve" fill="#000000" stroke-width="0" x="54.61" y="98.54" font-size="3.44" opacity="1.00" font-family="MS Shell Dlg">670A-1111020</text></g></g><g id="PMI2.0"><g><path style="stroke:#000000;stroke-width:0.250" d="M225.23,86.41L225.00,92.24"/></g><g><path style="fill:#000000" d="M223.98,92.20L225.98,92.28L224.90,94.24z"/></g><g><path style="fill:#ffffff" d="M214.51,86.41L236.15,86.41L236.15,80.77L214.51,80.77z"/><path style="stroke:#000000;stroke-width:0.250;stroke-opacity:0.98" d="M214.51,86.41L236.15,86.41L236.15,80.77L214.51,80.77z"/><text xml:space="preserve" fill="#000000" stroke-width="0" x="215.22" y="84.82" font-size="3.44" opacity="1.00" font-family="MS Shell Dlg">CNA2016-A1</text></g></g><g/><g id="paperID" visibility="hidden" opacity="0.00" transform="scale(0.000100)"><path style="stroke:#000000;stroke-width:0.500;fill:#e6e6e6;fill-rule:evenodd" d="M-2000.00,-2000.00L2297.00,-2000.00L2297.00,2210.00L-2000.00,2210.00zM0.00,0.00L297.00,0.00L297.00,210.00L0.00,210.00z"/><path style="fill:#000000;fill-opacity:0.118" d="M3.00,210.00L297.00,210.00L297.00,3.00L300.00,3.00L300.00,213.00L3.00,213.00z"/></g><g id="hotspot.0" onmouseover="ShowHotSpot(evt,'0')" onmouseout="HideHotSpot(evt,'0')" onmousemove="ShowToolTip(evt,'0',&quot;3dp475625&quot;)" opacity="0"><path style="fill:#00ff00;fill-rule:evenodd" d="M79.84,70.00L81.16,70.84L81.99,71.89L82.77,73.53L82.78,76.05L81.59,78.36L80.00,78.92L77.57,79.72L77.66,81.07L78.19,84.83L78.47,88.16L75.55,92.50L70.57,94.27L77.69,94.48L77.96,94.75L77.94,100.27L53.61,100.27L53.70,94.59L65.56,94.35L65.82,92.99L65.78,85.65L65.50,85.21L65.86,84.64L65.83,84.04L65.30,83.73L63.65,83.48L57.92,84.86L57.23,84.85L56.92,84.31L56.84,83.22L62.07,81.47L60.96,78.66L60.70,77.58L60.71,74.16L61.80,73.37L62.25,72.47L65.74,71.39L71.92,69.77L73.10,69.76L73.88,70.33L74.87,70.31L76.20,70.02L76.48,69.76L78.73,69.49zM67.95,84.86L68.52,85.90L69.08,89.50L68.50,90.05L69.04,93.71L69.86,94.27L66.26,94.35L66.55,85.92L67.17,85.70L67.22,85.39L66.86,84.82L66.80,84.28L67.13,84.26zM76.05,85.91L76.60,86.43L76.59,87.63L76.20,88.31L74.50,89.03L73.09,87.79L73.09,86.00L73.80,85.37L75.80,84.85zM75.79,90.20L75.79,91.39L75.40,92.08L74.35,92.66L73.37,92.64L72.01,91.25L70.57,91.40L70.66,90.30L72.45,89.40L74.50,89.03z"/></g><g id="hotspot.1" onmouseover="ShowHotSpot(evt,'1')" onmouseout="HideHotSpot(evt,'1')" onmousemove="ShowToolTip(evt,'1',&quot;3dp750010&quot;)" opacity="0"><path style="fill:#00ff00;fill-rule:evenodd" d="M236.41,81.03L236.31,86.46L225.52,86.70L225.28,92.18L225.86,92.36L225.33,93.52L225.25,94.32L255.22,106.63L255.22,107.51L246.88,141.96L245.14,143.45L233.30,153.13L230.48,155.42L229.15,157.08L228.57,157.24L182.22,129.85L182.30,125.81L184.44,95.40L186.34,94.87L204.66,85.92L223.73,93.73L224.55,93.81L224.60,93.46L224.23,92.89L224.20,92.40L224.51,92.17L224.81,90.83L224.82,86.70L214.22,86.55L214.31,80.87L236.14,80.76z"/></g></g></svg>
