<?xml version="1.0" encoding="UTF-8" standalone="no"?>
<svg xmlns="http://www.w3.org/2000/svg" xmlns:xlink="http://www.w3.org/1999/xlink" width="297.000mm" height="210.000mm" viewBox="0.000000 0.000000 297.000000 210.000000" stroke-linejoin="round" stroke-linecap="round" fill="none" fill-rule="evenodd"><desc>Composer Export</desc><script type="text/ecmascript"><![CDATA[
if(typeof(top) != "undefined")
{
	top.ShowPaper = ShowPaper;
}
function ShowHotSpot(evt,hotspotid)
{
	var svgDocument = evt.target.ownerDocument;
	var strId = "hotspot."+hotspotid;
	var hotspot = svgDocument.getElementById(strId);
	if(hotspot)
		hotspot.setAttribute("opacity",".5");
}
function HideHotSpot(evt,hotspotid)
{
	var svgDocument = evt.target.ownerDocument;
	var strId = "hotspot."+hotspotid;
	var hotspot = svgDocument.getElementById(strId);
	if(hotspot)
		hotspot.setAttribute("opacity","0");

	var toolTip = svgDocument.getElementById('ToolTip');
	if(toolTip)
		toolTip.setAttribute("visibility","hidden");
}
function ShowToolTip(evt,hotspotid,strTooltip)
{
	if(strTooltip=="")
	return;

	// change text
	var svgDocument = evt.target.ownerDocument;
	var tiptext = svgDocument.getElementById('ToolTipText');
	if( !tiptext )
	return;
	tiptext.firstChild.nodeValue = " " + strTooltip + "  " ;

	// show tooltip before, else some refresh issue

	var toolTip = svgDocument.getElementById('ToolTip');
	if(!toolTip)
	return;

	toolTip.setAttribute("visibility","visible");
	toolTip.setAttribute("opacity",".95");

	// move tooltip
	// get viewbox

	var root = svgDocument.documentElement;
	var vbox = (root.getAttribute("viewBox")).split(' ');
	var x0 = parseFloat(vbox[0]);
	var y0 = parseFloat(vbox[1]);
	var vboxW = parseFloat(vbox[2]);
	var vboxH = parseFloat(vbox[3]);

	// get default width of svg

	var strW = root.getAttribute("width");
	var svgW = parseFloat(strW);
	if(strW.indexOf('mm') != -1)
	svgW *= 3.779;

	var strH = root.getAttribute("height");
	var svgH = parseFloat(strH);
	if(strH.indexOf('mm') != -1)
	svgH *= 3.779;  	// 96 dpi  -> 96/25.4 = 3.779

	// update the viewbox / width / height if svg is embedded in html with zoom fit all
	var realx0 = x0;
	var realy0 = y0;
	var realvboxW = vboxW;
	var realvboxH = vboxH;
	var realsvgW = svgW;
	var realsvgH = svgH;

	if ((typeof(top) == "undefined") || (typeof(top.svgctl1) != "undefined")) // embedded in html
	{
		// get window size in pxl

		svgW = window.innerWidth;
		svgH = window.innerHeight;

		// calculate real viewbox

		realsvgW = svgW;
		realsvgH = svgH;
		if((svgW / svgH) > (vboxW / vboxH))
		{
			realvboxW = (vboxH * svgW) / svgH;
			realvboxH = vboxH;
			realx0 = x0 - (realvboxW - vboxW)/2 ;
		}
		else
		{
			realvboxH = (vboxW * svgH) / svgW;
			realvboxW = vboxW;
			realy0 = y0 - (realvboxH - vboxH)/2 ;
		}
	}

	// get user zoom/pan

	var newScale = root.currentScale;
	var translation = root.currentTranslate;

	// transform pxl to user unit

	var xPos = (((evt.clientX+10- translation.x)/newScale) * realvboxW)/realsvgW  + realx0 ;
	var yPos = (((evt.clientY+5- translation.y)/newScale) * realvboxH)/ realsvgH  + realy0 ;
	var scaleForWidth = ( (1 / newScale) * realvboxH) / realsvgH;

	// move tooltip

	toolTip.setAttribute("transform", "translate(" + xPos + "," + yPos + ")" );

	// resize tooltip

	var fontsize = 12;
	tiptext.setAttribute("font-size",fontsize*scaleForWidth);
	tiptext.setAttribute("y", fontsize*scaleForWidth);
	var tipBG = svgDocument.getElementById('ToolTipBG');
	var outline = tiptext.getBBox();
	if(tipBG)
	{
		tipBG.setAttribute("stroke-width", 1*scaleForWidth);
		tipBG.setAttribute("width", Number(outline.width) );
		tipBG.setAttribute("height", Number(outline.height) + fontsize*.5*scaleForWidth );
	}
	var ToolTipShadow = svgDocument.getElementById('ToolTipShadow');
	if(ToolTipShadow)
	{
		ToolTipShadow.setAttribute("width", Number(outline.width) );
		ToolTipShadow.setAttribute("height", Number(outline.height) + fontsize*.5*scaleForWidth );
		ToolTipShadow.setAttribute("x", 3*scaleForWidth);
		ToolTipShadow.setAttribute("y", 3*scaleForWidth);
	}
}
function ShowPaper()
{
  var svgDocument = getDocument();
  var paper = svgDocument.getElementById("paperID");
  if(paper)
  {
    paper.setAttribute("transform","scale(1)");
    paper.setAttribute("opacity","1");
    paper.setAttribute("visibility","visible");
  }
  var svg = svgDocument.getRootElement();
  if(svg)
  {
    svg.setAttribute("width","307.000mm");
    svg.setAttribute("height","220.000mm");
    svg.setAttribute("viewBox","-5.000000 -5.000000 307.000000 220.000000");
  }
}
]]></script><defs/><g><g id="Actor_.0"><g style="stroke:#000000;stroke-width:0.123;stroke-opacity:0.10"><path d="M105.65,157.26L106.00,155.90L105.82,152.28L104.91,155.02L105.10,158.78L105.50,157.50L105.18,158.51L104.97,154.94L105.74,152.51L105.95,155.98L105.65,157.26L106.42,157.31L106.72,157.48L106.50,157.72L105.51,157.70"/><path d="M191.65,160.13L192.05,156.37L191.19,153.55L190.80,157.21L191.15,158.60L191.17,158.40L190.42,158.41L190.18,158.47L190.04,158.80L190.29,159.09L191.31,159.11L191.65,160.13L172.81,160.35L148.50,160.20L124.40,159.61L105.14,158.80"/><path d="M105.13,158.54L130.06,159.54L148.45,159.90"/><path d="M105.50,157.50L106.49,157.52L106.71,157.28L106.41,157.11L105.64,157.06"/><path d="M105.77,152.47L121.38,153.13L148.50,153.84L148.53,153.94"/><path d="M105.79,152.22L124.28,152.99L148.50,153.59L173.53,153.74L191.19,153.55"/><path d="M106.72,157.48L106.71,157.28"/><path d="M148.45,159.85L148.45,159.93"/><path d="M148.45,159.95L166.84,160.10L191.67,159.87L191.34,158.93L190.38,158.90L190.06,158.60"/><path d="M148.45,159.21L147.97,158.99L147.98,158.69L148.16,158.94L148.45,159.00L148.45,159.21L148.92,159.01L148.92,158.83L148.50,158.63L147.97,158.81"/><path d="M148.45,159.00L148.92,158.81L148.74,158.47L148.16,158.46L147.98,158.69"/><path d="M148.45,158.41L148.45,158.62"/><path d="M148.45,157.38L148.45,157.55"/><path d="M148.45,157.20L148.45,157.45"/><path d="M148.53,154.74L148.12,154.89L148.06,155.11L148.50,155.32L149.01,155.13L149.01,154.95L148.53,154.74L148.54,154.53L149.01,154.74L149.01,155.13"/><path d="M148.06,154.93L148.50,155.11L148.54,155.32"/><path d="M148.54,154.53L148.25,154.58L148.07,154.89"/><path d="M148.92,159.01L148.92,158.81"/><path d="M148.53,156.57L148.53,156.32"/><path d="M148.54,156.21L148.53,156.38"/><path d="M149.01,154.92L148.54,155.12"/><path d="M148.53,153.88L148.53,153.86"/><path d="M191.67,159.87L192.00,156.29L191.23,153.84L166.72,153.99L148.53,153.84"/><path d="M190.04,158.80L190.38,158.62L191.15,158.60"/><path d="M191.31,159.11L191.33,158.91"/><path d="M191.17,158.40L190.85,157.29L191.20,153.80"/></g></g><g id="Actor_.1"><g style="stroke:#000000;stroke-width:0.123;stroke-opacity:0.10"><path d="M237.63,140.00L238.80,140.17L238.76,140.31L237.70,140.20L237.46,140.06L237.45,139.88L238.09,137.61L238.20,137.45L238.50,137.36L241.14,137.63L241.37,137.78L241.38,137.95L240.73,140.22L240.62,140.38L240.32,140.47L239.25,140.36L239.30,140.22L240.36,140.33L240.54,140.25L241.22,137.93L241.09,137.77L238.33,137.53L237.61,139.96L257.39,180.54L257.54,180.62L258.87,180.75L258.81,180.92L258.65,180.58L258.70,180.31L259.02,180.28L259.32,180.48L259.48,180.81L259.43,180.98L260.76,181.11L261.14,181.00L261.28,180.82L262.20,178.17L262.19,177.97L261.90,177.80L258.60,177.47L258.18,177.62L257.18,180.42L257.19,180.62L257.48,180.79L258.81,180.92"/><path d="M237.46,140.06L257.19,180.62"/><path d="M238.80,140.17L238.93,140.37L239.26,140.46L239.37,140.37L239.30,140.22"/><path d="M238.76,140.31L238.92,140.54L239.22,140.61L239.33,140.52L239.25,140.36"/><path d="M239.36,140.44L239.32,140.58"/><path d="M241.20,137.83L261.99,178.05L261.03,180.87L260.83,180.94L259.48,180.81"/><path d="M241.37,137.78L262.19,177.97"/><path d="M247.47,157.66L247.33,157.71L247.32,157.82L247.46,157.94L247.90,158.05L248.04,158.00L248.09,157.84L248.09,157.74L247.96,157.61L247.51,157.50L247.47,157.66L247.91,157.77L248.05,157.89L248.04,158.00"/><path d="M248.09,157.84L247.95,157.89L247.50,157.78L247.37,157.66L247.37,157.55L247.51,157.50"/><path d="M247.37,157.55L247.33,157.71"/><path d="M247.90,158.05L247.95,157.89"/><path d="M248.29,154.89L248.14,154.76L248.14,154.66L248.18,154.49L248.32,154.44L248.28,154.60L248.73,154.71L248.86,154.83L248.86,154.94L248.72,154.99L248.29,154.89"/><path d="M248.32,154.44L248.77,154.55L248.91,154.67L248.86,154.94"/><path d="M248.18,154.49L248.18,154.60L248.31,154.72L248.54,154.81L248.90,154.78"/><path d="M248.14,154.66L248.28,154.60"/><path d="M248.72,154.99L248.76,154.83"/><path d="M261.99,178.05L261.84,177.97L258.42,177.66L258.29,177.79L257.39,180.54"/><path d="M258.87,180.75L258.70,180.31"/><path d="M258.65,180.48L258.92,180.45L259.15,180.54L259.43,180.98"/></g></g><g id="Actor_.2"><g style="stroke:#000000;stroke-width:0.123;stroke-opacity:0.10"><path d="M41.91,176.89L41.70,176.74L41.07,176.60L35.61,176.50L35.08,177.60L35.03,178.06L36.26,181.31L36.44,181.28L36.61,180.92L37.64,180.94L38.01,180.80L38.07,180.67L37.84,180.52L36.81,180.50L36.74,180.33L37.02,179.73L37.09,179.90L36.81,180.50"/><path d="M35.61,176.50L35.69,176.68L35.12,177.98L36.31,181.10L96.71,199.81L97.31,198.68L96.77,198.56L96.57,198.33L96.84,198.10L97.56,198.21L98.13,197.04L97.93,193.99L96.50,196.74L96.71,199.81"/><path d="M35.69,176.68L40.73,176.75L41.32,176.88L41.78,179.59L41.71,179.72L41.23,179.80L37.02,179.73"/><path d="M36.36,181.35L37.12,181.58L36.26,181.31"/><path d="M37.12,181.58L39.03,182.17L36.86,181.49"/><path d="M36.61,180.92L36.54,180.75L37.61,180.77L38.02,180.54L37.98,180.39L37.81,180.35L36.74,180.33"/><path d="M36.31,181.10L36.54,180.75"/><path d="M42.37,179.69L42.20,179.83L41.62,179.95L37.09,179.90"/><path d="M38.07,180.67L38.04,180.50"/><path d="M39.03,182.17L39.98,182.47L39.03,182.17"/><path d="M39.98,182.47L46.64,184.53L45.69,184.24"/><path d="M41.42,176.66L48.55,178.82L47.60,178.53"/><path d="M41.12,176.80L97.93,193.99"/><path d="M46.64,184.53L49.50,185.41L48.55,185.12"/><path d="M49.50,185.41L60.92,188.95L50.45,185.71"/><path d="M48.55,178.82L51.40,179.68L50.45,179.39"/><path d="M51.40,179.68L54.26,180.55L53.31,180.26"/><path d="M54.26,180.55L58.07,181.70L57.12,181.41"/><path d="M55.21,187.19L56.16,187.48"/><path d="M97.56,198.21L97.57,198.39L98.21,196.98L98.00,193.77L58.07,181.70L97.93,193.77L96.54,196.40L96.41,196.80L96.64,200.03L59.97,188.66"/><path d="M59.02,188.37L58.07,188.07"/><path d="M61.39,189.10L60.92,188.95L61.87,189.25L61.39,189.10"/><path d="M61.87,189.25L64.73,190.13L63.78,189.83"/><path d="M64.73,190.13L67.53,191.00L66.63,190.72"/><path d="M67.51,189.77L67.39,189.61L67.46,189.43L67.67,189.28L68.19,189.29L68.30,189.44L68.24,189.63L68.03,189.77L67.51,189.77"/><path d="M67.94,189.23L67.93,189.10L67.71,189.10L67.43,189.26L67.39,189.61"/><path d="M67.75,189.83L67.73,189.66L67.49,189.59L67.37,189.44"/><path d="M67.33,186.37L67.83,186.17L67.89,185.99L67.78,185.84L67.25,185.83L67.04,185.97L67.00,186.33L67.11,186.48L67.36,186.55L67.33,186.37L67.09,186.31L66.98,186.16"/><path d="M67.00,186.33L67.06,186.15L67.55,185.95L67.53,185.77"/><path d="M67.55,185.95L67.80,186.01L67.91,186.16L67.85,186.34L67.36,186.55"/><path d="M67.59,191.01L71.39,192.19L70.44,191.90"/><path d="M67.92,189.05L68.17,189.12L68.28,189.27L68.22,189.45L67.73,189.66"/><path d="M68.28,189.27L68.30,189.44"/><path d="M67.91,186.16L67.89,185.99"/><path d="M71.39,192.19L74.25,193.08L73.30,192.78"/><path d="M74.25,193.08L77.11,193.96L76.15,193.67"/><path d="M77.11,193.96L96.64,200.03"/><path d="M97.57,198.39L96.85,198.27L96.58,198.50L96.78,198.73L97.33,198.86L96.70,200.03"/><path d="M96.58,198.50L96.57,198.33"/><path d="M97.31,198.68L97.33,198.86"/><path d="M97.93,193.77L98.00,193.77"/></g></g><g id="Actor_.3"><g style="stroke:#000000;stroke-width:0.123;stroke-opacity:0.10"><path d="M250.49,62.47L250.77,62.74L251.22,62.75L251.05,62.48L251.08,62.30L251.25,62.57L250.80,62.56L250.52,62.29L250.49,62.47L249.74,62.41L249.62,62.28L249.60,62.10L250.45,57.21L250.80,57.04L252.98,57.07L252.95,57.26L250.63,57.27L250.56,57.40L249.79,62.10L249.83,62.23L277.29,95.23L277.45,95.30L278.60,95.32L278.56,95.54L278.34,95.20L278.70,95.15L279.07,95.30L279.28,95.56L279.33,95.33L281.30,95.36L281.55,95.23L282.70,89.32L282.67,89.11L282.51,89.04L278.63,88.98L278.38,89.11L277.26,95.02L277.29,95.23"/><path d="M279.28,95.56L281.25,95.59L281.55,95.51L281.73,95.35L282.94,89.32L282.94,89.07L282.82,88.90L282.55,88.81L278.67,88.75L278.24,88.93L278.10,89.20L277.02,95.02L277.05,95.33L249.62,62.28"/><path d="M249.83,62.23L250.52,62.29"/><path d="M251.08,62.30L252.11,62.32L252.08,62.50L251.05,62.48"/><path d="M251.25,62.57L251.23,62.71"/><path d="M252.08,62.50L252.44,62.92L253.29,62.93L253.65,62.76L254.52,57.86L254.50,57.68L254.39,57.55L282.82,88.90"/><path d="M252.11,62.32L252.45,62.71L252.44,62.92"/><path d="M252.47,62.74L253.32,62.75L253.54,62.57L254.33,57.86L254.30,57.73L254.17,57.68L253.32,57.66L252.95,57.26"/><path d="M252.98,57.07L253.35,57.48L253.32,57.66"/><path d="M253.35,57.48L254.39,57.55"/><path d="M282.67,89.11L254.30,57.73"/><path d="M264.63,78.28L264.43,78.38L264.74,78.56L265.02,78.59L265.24,78.56L265.36,78.28L265.28,78.19L264.78,78.07L264.74,78.27L264.63,78.28"/><path d="M264.78,78.07L264.47,78.18L264.78,78.36L265.06,78.39L265.02,78.59"/><path d="M264.47,78.18L264.43,78.38"/><path d="M264.74,78.27L265.24,78.38L265.33,78.48"/><path d="M265.36,78.28L265.06,78.39"/><path d="M265.87,72.26L265.65,72.29L265.53,72.57L265.83,72.46L265.87,72.26L266.38,72.37L266.47,72.47L266.16,72.57L266.12,72.77L266.35,72.74L266.47,72.47"/><path d="M265.53,72.57L265.84,72.74L266.12,72.77"/><path d="M265.56,72.36L265.88,72.54L266.16,72.57"/><path d="M265.83,72.46L266.34,72.57L266.43,72.67"/><path d="M277.05,95.33L277.20,95.47L277.41,95.52L278.56,95.54"/><path d="M278.60,95.32L278.39,94.98L278.53,94.93L278.98,94.99L279.33,95.33"/><path d="M278.34,95.20L278.39,94.98"/></g></g><g id="Actor_.4"><g style="stroke:#000000;stroke-width:0.123;stroke-opacity:0.10"><path d="M198.10,201.25L198.45,198.20L197.05,195.42L196.70,198.36L197.26,199.63L197.25,199.80L196.63,198.39L196.99,195.19L258.18,178.44L258.00,178.61L256.77,181.63L256.81,182.09L257.23,183.02L257.30,182.84L256.86,181.72L258.12,178.68L259.33,181.11L259.32,181.44L258.07,184.38L198.10,201.25L197.50,200.11L197.48,200.28L198.00,201.32L198.17,201.48L257.97,184.63L257.43,183.45L256.44,183.60L256.14,183.39L256.19,183.10L256.32,183.03L257.30,182.84"/><path d="M196.99,195.19L197.13,195.30L198.42,197.85L198.54,198.26L198.17,201.48"/><path d="M197.26,199.63L197.83,199.53L198.12,199.76L198.00,199.96L197.50,200.11"/><path d="M197.48,200.28L198.07,200.07L198.12,199.76"/><path d="M197.25,199.80L197.81,199.70L198.10,199.93"/><path d="M258.12,178.68L197.05,195.42"/><path d="M226.47,191.54L226.50,191.90L226.99,192.12L227.01,191.95L226.56,191.75L226.47,191.54L226.82,191.34L227.31,191.56L227.34,191.91L227.23,192.06L226.99,192.12"/><path d="M226.44,191.71L226.56,191.56L226.79,191.51L227.07,191.57L227.28,191.73L227.34,191.91"/><path d="M227.01,191.95L227.25,191.89L227.37,191.74"/><path d="M226.82,191.34L226.79,191.51"/><path d="M227.33,188.26L227.09,188.31L226.98,188.46L227.04,188.65L227.51,188.86L227.76,188.81L227.88,188.66L227.81,188.47L227.33,188.26L227.35,188.14L227.11,188.14L227.00,188.29L227.06,188.48L227.51,188.68L227.79,188.64L227.90,188.49L227.84,188.30L227.36,188.09"/><path d="M226.98,188.46L227.00,188.29"/><path d="M227.52,188.86L227.55,188.69"/><path d="M227.90,188.49L227.88,188.66"/><path d="M256.19,183.10L256.28,183.35L256.47,183.43L257.50,183.28L258.07,184.38"/><path d="M256.15,183.27L257.23,183.02"/><path d="M257.43,183.45L257.50,183.28"/><path d="M258.18,178.44L259.46,181.18L259.39,181.60L258.19,184.45L258.02,184.62"/></g></g><g id="Actor_.5"><g style="stroke:#000000;stroke-width:0.123;stroke-opacity:0.10"><path d="M133.76,146.18L135.64,146.22L135.88,146.25L136.05,146.35L136.14,146.52L135.94,148.90L135.87,149.04L135.70,149.14L135.39,149.19L131.17,149.10L130.87,149.04L130.72,148.93L130.68,148.79L130.93,146.41L131.05,146.24L131.25,146.16L131.49,146.13L132.98,146.16L132.96,146.31L131.47,146.28L131.28,146.31L131.22,146.36L131.19,146.42L130.94,148.80L130.96,148.86L131.01,148.91L131.09,148.94L131.19,148.95L135.40,149.04L135.59,149.00L135.66,148.95L135.68,148.90L135.88,146.52L135.86,146.46L135.81,146.41L135.63,146.36L133.74,146.32L133.76,145.54L133.68,145.33L133.49,145.20L133.24,145.20L133.05,145.32L132.98,145.53L132.96,145.65L132.96,146.31"/><path d="M130.68,148.79L130.68,141.00L130.72,141.14L130.87,141.25L131.18,141.31L135.43,141.40L135.75,141.35L135.92,141.25L135.99,141.12L136.19,138.80L136.14,146.52"/><path d="M130.94,148.80L130.94,141.01L131.20,138.70L131.23,138.63L131.32,138.59L131.48,138.56L132.95,138.59L132.95,139.37L133.03,139.58L133.23,139.71L133.47,139.72L133.66,139.59L133.74,139.38L133.75,139.27L133.68,139.48L133.48,139.60L133.24,139.60L133.04,139.47L132.97,139.26L132.97,138.45L131.49,138.42L131.18,138.47L131.01,138.56L130.94,138.69L130.68,141.00"/><path d="M130.94,141.01L130.97,141.08L131.04,141.13L131.19,141.16L135.45,141.25L135.57,141.24L135.67,141.20L135.73,141.11L135.92,138.80L135.88,146.52"/><path d="M132.98,145.53L132.98,146.16"/><path d="M133.74,146.32L133.74,145.66L133.67,145.45L133.47,145.32L133.23,145.32L133.04,145.44L132.96,145.65"/><path d="M132.95,138.59L132.97,138.45"/><path d="M133.74,139.38L133.75,138.47L133.75,139.27"/><path d="M133.75,138.47L135.69,138.51L135.92,138.54L136.10,138.63L136.19,138.80"/><path d="M133.74,138.61L135.67,138.65L135.82,138.68L135.90,138.73L135.92,138.80"/></g></g><g id="Actor_.6"><g style="stroke:#000000;stroke-width:0.123;stroke-opacity:0.10"><path d="M212.44,146.28L214.29,146.25L214.53,146.28L214.75,146.37L214.92,146.54L215.95,148.90L215.95,149.04L215.84,149.15L215.57,149.21L212.28,149.25L211.44,149.26L211.12,149.21L210.92,149.11L210.81,148.97L209.84,146.60L209.86,146.43L210.01,146.34L210.22,146.30L211.68,146.29L211.74,146.43L210.28,146.45L210.19,146.46L210.12,146.50L210.09,146.54L210.09,146.60L211.06,148.97L211.11,149.02L211.18,149.07L211.38,149.11L215.50,149.06L215.59,149.05L215.66,149.01L215.70,148.96L215.69,148.91L214.67,146.54L214.62,146.49L214.55,146.44L214.35,146.40L212.51,146.42L212.44,146.28L212.50,145.64L212.45,145.44L212.51,145.56L212.57,145.76L212.51,146.42"/><path d="M209.84,146.60L210.21,142.53L209.86,146.43"/><path d="M210.09,146.54L210.80,138.87L210.86,138.82L211.00,138.79L212.44,138.78L212.37,139.55L212.43,139.76L212.61,139.88L212.84,139.88L213.05,139.75L213.14,139.54L213.21,138.77L215.10,138.75L215.26,138.77L215.36,138.82L215.42,138.89L216.46,141.18L215.70,148.96"/><path d="M209.87,146.33L210.55,138.81L210.66,138.71L210.94,138.65L212.38,138.64L212.31,139.44L212.36,139.64L212.43,139.76"/><path d="M213.21,138.77L213.15,138.63L215.04,138.61L215.28,138.63L215.50,138.72L215.68,138.88L216.72,141.18L216.73,141.31L216.62,141.42L216.34,141.48L212.18,141.52L211.85,141.47L211.65,141.37L211.53,141.24L210.55,138.94L210.55,138.81"/><path d="M210.80,138.87L210.80,138.94L211.79,141.24L211.85,141.30L211.95,141.35L212.12,141.38L216.27,141.33L216.38,141.31L216.45,141.27L216.46,141.18"/><path d="M210.48,139.68L210.55,138.94"/><path d="M211.74,146.43L211.80,145.78L211.90,145.57L212.10,145.44L212.33,145.44L212.51,145.56"/><path d="M211.68,146.29L211.74,145.66L211.83,145.45L212.03,145.32L212.27,145.32L212.45,145.44"/><path d="M213.15,138.63L213.07,139.42L212.98,139.63L212.78,139.76L212.54,139.77L212.36,139.64"/><path d="M212.44,138.78L212.38,138.64"/><path d="M215.95,149.04L216.73,141.31"/></g></g><g id="Actor_.7"><g style="stroke:#000000;stroke-width:0.123;stroke-opacity:0.10"><path d="M81.60,147.05L81.87,147.11L85.67,147.28L86.03,147.30L86.35,147.26L86.56,147.16L86.67,147.03L87.64,144.68L87.61,144.51L87.46,144.41L87.24,144.37L85.38,144.29L85.35,143.65L85.26,143.44L85.06,143.31L84.83,143.30L84.64,143.42L84.58,143.62L84.62,144.25L83.15,144.19L82.90,144.21L82.68,144.29L82.51,144.46L81.49,146.80L81.48,146.93L81.60,147.05"/><path d="M84.62,144.25L84.56,144.40L83.09,144.33L82.98,144.34L82.82,144.41L82.77,144.47L81.75,146.81L81.74,146.87L81.78,146.92L81.85,146.95L81.94,146.97L86.09,147.15L86.29,147.12L86.37,147.07L86.41,147.01L87.38,144.67L87.38,144.61L86.99,136.90L86.99,136.97L86.01,139.24L85.92,139.32L85.81,139.36L85.68,139.37L81.50,139.19L81.36,139.16L81.30,139.10L81.30,139.04L82.34,136.77L82.40,136.70L82.50,136.66L82.66,136.64L84.11,136.70L84.16,137.48L84.24,137.69L84.44,137.82L84.68,137.83L84.87,137.71L84.93,137.60L84.99,137.39L84.95,136.59L84.89,136.73L86.79,136.81L86.93,136.85L86.99,136.90"/><path d="M81.74,146.87L81.30,139.10"/><path d="M81.48,146.93L81.04,139.16L81.15,139.27L81.43,139.34L85.62,139.52L85.95,139.48L86.15,139.38L86.27,139.25L87.25,136.98L87.64,144.68"/><path d="M84.11,136.70L84.18,136.56L82.72,136.50L82.40,136.54L82.20,136.63L82.08,136.75L81.04,139.03L81.04,139.16"/><path d="M84.56,144.40L84.52,143.74L84.58,143.54L84.64,143.42"/><path d="M84.58,143.54L84.76,143.42L85.00,143.43L85.20,143.56L85.29,143.77L85.32,144.43L87.18,144.51L87.28,144.53L87.35,144.56L87.38,144.61"/><path d="M84.93,137.60L84.75,137.72L84.51,137.71L84.31,137.58L84.22,137.36L84.18,136.56"/><path d="M85.38,144.29L85.32,144.43"/><path d="M84.87,137.71L84.93,137.51L84.89,136.73"/><path d="M84.95,136.59L86.85,136.67L87.08,136.71L87.22,136.81L87.25,136.98"/></g></g><g id="Actor_.8"><g style="stroke:#000000;stroke-width:0.123;stroke-opacity:0.10"><path d="M163.51,146.64L163.54,146.01L163.62,145.81L163.82,145.68L164.06,145.68L164.25,145.81L164.31,146.02L164.29,146.65L166.17,146.67L166.41,146.71L166.61,146.80L166.72,146.97L166.99,149.36L166.95,149.49L166.80,149.60L166.50,149.65L162.29,149.61L161.98,149.55L161.81,149.44L161.74,149.30L161.53,146.92L161.61,146.75L161.79,146.66L162.02,146.63L163.51,146.64L163.53,146.79L162.04,146.77L161.86,146.82L161.81,146.86L161.79,146.92L162.00,149.31L162.02,149.36L162.09,149.41L162.27,149.46L166.48,149.50L166.58,149.49L166.66,149.46L166.71,149.41L167.06,141.58L167.02,141.67L166.93,141.71L166.81,141.72L162.57,141.68L162.41,141.65L162.32,141.60L162.29,141.53L162.07,139.21L162.10,139.15L162.17,139.10L162.32,139.07L163.80,139.09L163.77,139.86L163.84,140.07L164.03,140.20L164.27,140.21L164.47,140.08L164.55,139.87L164.58,139.09L166.51,139.12L166.67,139.14L166.75,139.20L166.79,139.26L167.06,141.58"/><path d="M161.79,146.92L162.07,139.21"/><path d="M161.53,146.92L161.81,139.21L162.02,141.53L162.09,141.66L162.26,141.77L162.58,141.82L166.83,141.87L167.13,141.82L167.28,141.72L167.32,141.58L166.99,149.36"/><path d="M164.58,139.09L164.57,138.95L164.54,139.75L164.46,139.96L164.25,140.09L164.01,140.09L163.82,139.96L163.75,139.75L163.78,138.94L162.31,138.93L162.01,138.98L161.86,139.08L161.81,139.21"/><path d="M163.53,146.79L163.55,146.13L163.63,145.92L163.83,145.80L164.07,145.80L164.26,145.93L164.33,146.14L164.31,146.80L166.19,146.82L166.38,146.86L166.44,146.91L166.47,146.97L166.73,149.35"/><path d="M164.29,146.65L164.31,146.80"/><path d="M164.31,146.02L164.33,146.14"/><path d="M163.77,139.86L163.75,139.75"/><path d="M163.78,138.94L163.80,139.09"/><path d="M164.57,138.95L166.50,138.97L166.74,139.01L166.93,139.10L167.05,139.26L167.32,141.58"/></g></g><g id="Actor_.9"><g style="stroke:#000000;stroke-width:0.123;stroke-opacity:0.10"><path d="M131.09,135.88L131.09,136.08L131.33,136.17L138.33,136.31L138.42,136.28L138.50,136.18L138.62,134.62L138.55,134.52L138.36,134.48L135.34,134.41L135.36,133.61L135.28,133.39L135.09,133.26L134.84,133.25L134.65,133.38L134.57,133.59L134.55,134.40L131.53,134.33L131.28,134.41L131.09,135.88"/><path d="M134.57,134.26L131.55,134.19L131.30,134.22L131.11,134.30L130.99,134.46L130.81,136.02L130.89,136.19L131.07,136.28L131.31,136.31L138.22,136.46L138.46,136.43L138.65,136.35L138.77,136.18L138.88,134.63L138.79,134.46L138.61,134.37L138.37,134.34L135.35,134.27"/><path d="M130.81,136.02L130.84,110.34L130.92,110.49L131.10,110.57L131.35,110.60L138.70,110.73L138.90,110.65L139.02,110.51L139.13,109.12L139.04,108.97L138.85,108.89L138.61,108.86L135.51,108.80L135.50,110.06L135.42,110.28L135.22,110.42L134.97,110.41L134.77,110.27L134.69,110.05L134.70,108.78L131.37,108.73L131.14,108.81L131.02,108.95L130.84,110.34"/><path d="M131.11,110.34L131.29,108.96L131.47,108.85L134.68,108.90L134.68,110.14L134.75,110.36L134.95,110.51L135.20,110.51L135.41,110.38L135.49,110.15L135.49,108.92L138.60,108.98L138.79,109.02L138.86,109.11L138.74,110.50L138.57,110.62L131.37,110.48L131.18,110.43L131.11,110.34L131.08,136.02"/><path d="M134.57,133.59L134.55,134.40"/><path d="M135.34,134.41L135.35,133.71L135.27,133.50L135.07,133.37L134.83,133.36L134.63,133.49L134.56,133.70"/><path d="M134.70,108.78L134.68,108.90"/><path d="M135.50,110.06L135.49,110.15"/><path d="M135.51,108.80L135.49,108.92"/><path d="M138.62,134.62L138.86,109.11"/><path d="M138.88,134.63L139.13,109.12"/></g></g><g id="Actor_.10"><g style="stroke:#000000;stroke-width:0.123;stroke-opacity:0.10"><path d="M159.62,135.88L159.67,136.52L159.75,136.62L159.92,136.66L166.83,136.74L167.01,136.70L167.08,136.60L166.89,135.04L166.81,134.94L166.62,134.90L163.60,134.86L163.62,134.16L163.56,133.95L163.37,133.82L163.12,133.82L162.92,133.94L162.84,134.16L162.81,134.85L159.79,134.82L159.61,134.86L159.55,134.93L159.62,135.88"/><path d="M163.58,134.72L163.61,134.06L163.54,133.84L163.35,133.71L163.11,133.71L162.91,133.84L162.82,134.05L162.80,134.71L159.55,134.71L159.37,134.79L159.29,134.93L159.40,136.51L159.52,136.68L159.71,136.77L159.96,136.81L166.85,136.88L167.09,136.85L167.26,136.77L167.34,136.60L167.16,135.04L167.04,134.88L166.84,134.79L166.60,134.76L163.58,134.72L163.60,134.86"/><path d="M159.28,134.95L160.11,109.47L160.24,110.86L160.36,111.01L160.56,111.09L167.90,111.21L168.14,111.19L168.33,111.11L168.41,110.96L168.21,109.57L168.08,109.43L167.88,109.35L164.53,109.28L164.48,110.54L164.40,110.76L164.19,110.90L163.94,110.90L163.75,110.76L163.68,110.53L163.69,110.63L163.74,109.39L160.63,109.35L160.45,109.39L160.38,109.47L160.51,110.86L160.69,110.98L167.88,111.08L168.07,111.05L168.14,110.96L167.08,136.60"/><path d="M159.54,134.96L160.38,109.47"/><path d="M160.11,109.47L160.19,109.33L160.38,109.25L160.62,109.23L163.72,109.27L163.68,110.53"/><path d="M163.62,134.16L163.61,134.06"/><path d="M162.80,134.71L162.81,134.85"/><path d="M163.69,110.63L163.76,110.85L163.96,110.99L164.21,110.99L164.42,110.86L164.50,110.64L164.53,109.28"/><path d="M163.72,109.28L163.74,109.39"/><path d="M164.55,109.40L167.65,109.44L167.84,109.48L167.94,109.57L168.14,110.96"/><path d="M167.34,136.60L168.41,110.96"/></g></g><g id="Actor_.11"><g style="stroke:#000000;stroke-width:0.123;stroke-opacity:0.10"><path d="M31.07,119.84L25.59,116.23L23.30,114.50L20.45,111.98L18.63,109.90L17.39,108.00L16.60,106.04L16.22,103.57L16.23,103.75L16.27,102.36L16.50,101.03L15.62,104.30L16.00,103.03L15.71,103.29L15.40,103.26L11.27,101.71L11.10,101.25L11.97,97.95L11.14,100.46L10.28,103.75L10.10,105.08L10.19,108.06L10.55,109.73L11.71,112.38L13.19,114.57L15.86,117.48L19.35,120.46L23.66,123.53L28.86,126.74L33.30,129.23L40.85,133.15L50.40,137.75L61.52,142.80L70.80,146.84L81.65,151.23L81.22,146.88L82.09,143.92L82.51,148.06L82.20,149.47L82.45,148.06L82.09,144.20L73.73,140.76L65.91,137.34L51.14,130.60L41.39,125.80L30.78,120.01L30.89,120.12L30.90,120.03"/><path d="M10.85,102.62L11.10,101.67L10.54,103.82L10.36,105.13L10.33,106.43L10.60,108.81L11.49,111.39L13.43,114.44L15.69,116.95L19.50,120.24L23.80,123.30L28.99,126.51L37.58,131.19L50.45,137.48L70.91,146.60L81.64,150.95L81.27,146.86L82.09,144.20"/><path d="M11.10,101.67L11.73,99.26L12.22,98.04L11.37,101.51L15.46,103.06L15.76,102.94L16.62,99.49L15.03,98.84L14.76,99.36L14.30,99.32L14.10,99.07L14.28,98.60L12.52,97.92L12.22,98.04"/><path d="M15.03,98.84L15.09,98.63L14.81,99.16L14.36,99.12L14.16,98.87L14.35,98.36L12.57,97.71L12.13,97.74L11.97,97.95"/><path d="M14.10,99.07L14.16,98.87"/><path d="M14.35,98.36L14.29,98.57"/><path d="M15.09,98.63L16.52,99.16L16.90,99.54L16.00,103.03"/><path d="M30.88,120.00L27.81,118.07L24.32,115.63L21.26,113.11L19.10,110.91L17.14,108.10L16.34,106.13L15.97,103.70L16.01,102.30L16.24,100.95L15.37,104.23L15.76,102.94"/><path d="M16.22,103.57L16.21,103.52"/><path d="M29.77,123.60L29.68,123.68L29.81,123.55"/><path d="M30.07,123.28L29.62,123.88"/><path d="M29.82,123.53L29.90,123.38L29.82,123.53"/><path d="M82.09,143.92L65.94,137.07L51.04,130.26L38.95,124.23L30.99,119.76"/><path d="M37.08,129.36L37.69,129.36L38.02,129.73L37.63,129.96L37.29,129.89L37.04,129.73L36.96,129.52L37.08,129.36"/><path d="M37.29,129.89L37.23,130.10L36.89,129.73L37.01,129.56L37.62,129.56L37.69,129.36"/><path d="M36.96,129.52L36.89,129.73"/><path d="M38.02,129.73L37.84,130.10L37.23,130.10"/><path d="M37.96,129.93L37.62,129.56"/><path d="M39.26,125.86L38.86,126.09L38.53,126.02L38.18,125.65L38.31,125.49L38.92,125.50L38.85,125.70L39.19,126.07L39.17,125.66L38.92,125.50"/><path d="M38.53,126.02L38.46,126.23L38.20,126.06L38.18,125.65"/><path d="M38.46,126.23L38.79,126.29L39.19,126.07"/><path d="M38.12,125.86L38.24,125.69L38.85,125.70"/><path d="M81.64,150.95L82.04,149.70L82.06,149.93L79.51,148.90L79.24,148.61L79.49,148.42L79.73,148.47L82.20,149.47"/><path d="M79.24,148.61L79.39,148.28L79.81,148.27L82.18,149.24"/><path d="M79.32,148.41L79.59,148.70L82.04,149.70"/><path d="M81.65,151.23L82.06,149.93"/></g></g><g id="Actor_.12"><g style="stroke:#000000;stroke-width:0.123;stroke-opacity:0.10"><path d="M12.88,92.53L13.33,92.88L13.75,92.31L13.09,92.66L13.00,92.30L10.90,92.04L10.21,88.40L9.36,91.14L10.43,96.64L11.66,98.50L14.64,100.72L21.76,103.21L35.84,105.52L53.91,107.06L81.50,108.48L119.94,109.83L163.39,110.69L231.90,110.56L253.51,109.91L269.39,108.65L280.55,106.49L283.43,105.32L286.45,103.16L287.84,100.72L288.75,96.92L288.72,95.02L287.95,93.12L286.92,96.97L284.96,96.95L284.80,97.31L284.22,96.94L282.53,97.05L283.51,92.74L287.81,92.72L288.67,93.88L289.09,95.72L287.92,101.40L286.71,103.29L284.87,104.81L278.91,107.23L267.49,109.14L253.52,110.18L228.85,110.88L189.66,111.13L149.63,110.77L74.74,108.45L47.72,106.90L32.49,105.38L19.41,102.88L13.33,100.24L11.60,98.82L10.28,96.92L9.19,92.17L9.19,90.27L9.09,91.16"/><path d="M9.19,90.27L9.19,90.27"/><path d="M9.22,90.00L9.88,88.37L10.79,92.30L13.00,92.30"/><path d="M10.21,88.40L14.77,88.48L15.42,92.12L13.75,92.31"/><path d="M13.79,92.54L15.25,92.57L15.67,92.17L14.74,88.11L10.00,88.13"/><path d="M12.93,92.76L13.04,92.53"/><path d="M15.03,93.19L14.98,94.84L14.33,91.22L15.35,93.12L15.25,94.81L14.62,91.22L15.53,92.96L18.02,94.85"/><path d="M15.42,92.21L15.07,93.03"/><path d="M14.99,92.21L15.23,92.61L14.85,91.97"/><path d="M14.62,91.22L14.58,91.12"/><path d="M14.31,91.15L14.33,91.22"/><path d="M15.66,92.33L15.35,93.12L16.56,94.24L20.51,96.19L26.45,97.69L35.74,99.10L57.56,100.91L101.86,102.87L163.20,104.30L217.99,104.38L257.48,103.36L267.49,102.49L276.24,101.06"/><path d="M15.23,92.61L15.34,92.79"/><path d="M15.33,93.03L15.32,93.12"/><path d="M18.26,97.15L18.09,96.84L18.91,97.13L19.20,96.63L18.09,96.81"/><path d="M18.22,94.96L22.49,96.75L23.01,101.05"/><path d="M18.12,97.04L19.24,96.87"/><path d="M18.22,96.92L19.06,96.52"/><path d="M19.20,96.63L19.13,96.77"/><path d="M22.21,96.44L31.23,98.23L41.32,99.43L74.25,101.50L129.93,103.43L189.25,104.21L236.03,103.87L261.53,102.80L270.80,101.79L276.39,100.72L280.39,99.32L283.23,96.92L282.97,97.37"/><path d="M75.20,107.40L74.86,107.21L75.20,106.97L75.97,107.13L75.20,107.40"/><path d="M75.25,106.95L75.99,107.38L75.26,107.65L74.86,107.21"/><path d="M74.88,107.45L75.27,107.19"/><path d="M75.60,107.63L75.58,107.39"/><path d="M75.99,107.38L75.97,107.13"/><path d="M149.45,105.24L149.36,104.61L150.22,104.94L149.45,105.24L149.20,104.74"/><path d="M149.20,104.99L149.99,104.83"/><path d="M149.45,104.99L150.11,104.98L150.00,104.59"/><path d="M150.27,105.09L150.27,104.85"/><path d="M223.18,109.43L224.07,109.76L223.00,109.53L222.99,109.92L223.89,109.87"/><path d="M223.00,109.53L222.97,109.77"/><path d="M223.86,110.11L224.01,109.85L223.15,109.66"/><path d="M224.07,109.76L224.04,110.00"/><path d="M275.29,105.31L276.28,100.76"/><path d="M275.52,105.24L275.37,104.90L275.52,105.24"/><path d="M275.37,105.03L275.43,105.16"/><path d="M276.28,101.03L279.42,100.03L282.68,98.04L283.90,95.97L283.67,96.93L282.77,96.90L283.67,92.90L287.92,93.01"/><path d="M279.21,101.34L280.26,101.56L279.37,101.48L279.26,101.10L279.67,101.59"/><path d="M279.73,101.35L280.36,101.20L279.26,101.10"/><path d="M279.84,101.19L279.90,100.96"/><path d="M280.31,101.44L280.36,101.20"/><path d="M282.43,96.92L282.86,99.37L283.62,95.97L283.32,96.81"/><path d="M282.66,96.78L283.13,99.41L283.67,97.02L284.22,96.94"/><path d="M283.62,95.97L283.69,95.73"/><path d="M284.17,97.16L284.98,97.54L284.91,97.18L287.27,96.92L288.17,92.91"/><path d="M283.96,95.77L283.90,95.97"/><path d="M285.11,97.48L285.16,97.26"/><path d="M284.96,96.95L284.91,97.18"/></g></g><g id="Actor_.13"><g style="stroke:#000000;stroke-width:0.123;stroke-opacity:0.10"><path d="M211.61,134.87L208.65,134.90L208.45,134.99L209.12,136.60L209.33,136.73L216.19,136.66L216.38,136.57L215.66,134.97L215.54,134.87L215.34,134.84L212.38,134.87L212.44,134.17L212.39,133.98L212.21,133.83L211.97,133.84L211.76,133.97L211.67,134.18L211.61,134.87L211.55,134.73L208.59,134.76L208.37,134.80L208.22,134.88L208.19,135.05L208.86,136.60L209.02,136.77L209.25,136.85L209.50,136.88L216.25,136.81L216.47,136.77L216.62,136.68L219.06,111.04L218.30,109.66L218.12,109.52L217.89,109.44L214.60,109.43L214.49,110.69L214.39,110.91L214.18,111.05L213.94,111.05L213.75,110.92L213.70,110.69L213.81,109.44L210.77,109.45L210.54,109.48L210.39,109.56L210.37,109.70L211.07,111.09L211.24,111.24L211.47,111.31L218.67,111.30L218.90,111.27L219.05,111.19L219.06,111.04"/><path d="M208.45,134.99L210.63,109.65L210.83,109.58L213.88,109.56L213.77,110.79L213.82,111.01L214.01,111.14L214.25,111.14L214.46,111.00L214.56,110.78L214.67,109.56L214.60,109.43"/><path d="M208.19,135.05L210.37,109.70"/><path d="M214.67,109.56L217.71,109.54L217.91,109.58L218.04,109.66L218.80,111.09L218.60,111.17L211.56,111.20L211.33,111.09L210.63,109.65"/><path d="M211.55,134.73L211.61,134.07L211.70,133.86L211.90,133.73L212.14,133.73L212.32,133.85L212.38,134.06L212.32,134.73L215.52,134.72L215.74,134.81L215.92,134.97L216.64,136.52"/><path d="M212.38,134.87L212.32,134.73"/><path d="M212.39,133.96L212.32,133.85"/><path d="M213.82,111.01L213.75,110.92"/><path d="M213.81,109.44L213.88,109.56"/><path d="M216.38,136.57L218.80,111.09"/></g></g><g id="Actor_.14"><g style="stroke:#000000;stroke-width:0.123;stroke-opacity:0.10"><path d="M256.68,185.19L257.38,186.52L257.94,186.78L261.23,186.88L261.68,186.50L260.05,183.39L259.61,183.05L256.17,182.90L255.72,183.27L256.45,184.73L256.78,184.73L256.03,183.19L259.64,183.28L261.35,186.49L261.12,186.68L257.70,186.49L257.06,185.29L256.68,185.19L257.02,184.43L256.78,184.73"/><path d="M255.70,183.09L259.99,173.96L265.96,155.23L271.83,133.03L277.24,108.79L281.73,85.01L285.20,62.99L288.56,38.18L292.76,-0.00"/><path d="M293.20,-0.00L290.16,28.51L287.18,51.96L282.55,82.53L278.69,103.57L273.22,128.80L267.43,151.38L261.42,171.04L258.62,178.05L256.03,183.19"/><path d="M257.01,185.19L257.24,184.08L256.82,184.10L256.45,184.73"/><path d="M256.91,184.07L257.02,184.29L257.24,184.08"/><path d="M297.00,32.38L292.77,62.60L289.17,84.52L286.33,99.60L281.57,121.63L275.90,144.43L269.77,165.34L265.75,177.20L261.36,186.55"/><path d="M261.70,186.68L265.84,177.90L270.07,165.59L276.25,144.56L281.91,121.87L285.49,105.70L289.12,87.12L292.88,64.62L297.00,35.71"/><path d="M282.28,113.84L282.64,113.85L282.54,114.80L282.29,114.89L282.12,114.13L282.39,113.85L282.50,114.03L282.29,114.89"/><path d="M282.64,114.90L282.89,114.55L282.64,113.85"/><path d="M285.71,78.20L285.53,77.60L285.67,77.33L285.85,77.48L285.81,78.10L285.34,78.20L285.51,77.69L285.30,77.33L285.34,78.20"/><path d="M285.30,77.33L285.67,77.33"/><path d="M290.15,46.56L289.93,45.98L289.79,46.74L289.98,46.87L290.15,46.56L290.26,46.86L289.98,46.87"/><path d="M290.34,46.86L290.50,46.08L290.03,45.97"/><path d="M290.15,46.29L290.34,45.97"/><path d="M294.14,13.00L293.93,13.17L293.80,12.85L294.09,12.20L294.14,13.00"/><path d="M293.93,13.17L294.55,12.99L294.38,12.22L294.34,13.16"/><path d="M294.09,12.20L294.49,12.19"/></g></g><g id="Actor_.15"><g style="stroke:#000000;stroke-width:0.123;stroke-opacity:0.10"><path d="M37.66,181.97L37.35,181.09L37.47,180.84L37.89,181.49L37.57,181.51L38.32,180.06L38.08,179.87L34.68,179.96L32.94,183.14L36.44,183.34L37.34,181.96L37.66,181.97L37.12,183.01L36.39,183.54L32.71,183.46L29.94,177.43L27.75,171.27L23.23,154.92L17.01,127.61L12.14,101.09L7.90,71.77L4.30,39.23L1.11,0.00"/><path d="M32.92,183.20L28.91,173.67L23.60,154.89L18.74,134.09L13.54,106.96L9.69,82.23L6.62,57.44L4.20,33.59L1.55,0.00"/><path d="M4.51,0.00L5.13,9.73L4.70,9.50L4.08,0.00"/><path d="M5.13,9.73L5.61,9.76L4.76,9.71"/><path d="M5.71,9.76L6.66,9.83L5.71,9.76"/><path d="M8.26,9.92L6.66,9.83L8.26,9.92L7.64,0.00"/><path d="M7.49,7.61L7.24,7.19L7.48,6.67L7.63,7.30L7.32,7.60L6.89,7.41L6.88,6.71L7.22,7.02L7.09,7.59"/><path d="M7.36,6.65L6.97,6.61"/><path d="M8.09,9.93L7.48,-0.00"/><path d="M38.33,179.98L35.99,174.84L33.91,169.14L29.20,151.63L24.65,131.17L19.82,104.51L16.30,80.40L13.41,55.21L10.55,23.23L8.97,-0.00"/><path d="M32.58,183.32L34.44,179.87L35.22,179.67L38.60,179.79L35.81,173.49L33.80,167.64L29.55,151.57L24.59,129.00L20.21,104.52L16.70,80.39L14.13,58.10L11.77,33.00L9.42,-0.00"/><path d="M9.62,41.55L9.79,40.78L9.90,41.56L9.62,41.55"/><path d="M10.04,40.86L10.21,41.70L10.32,41.13L10.04,40.86"/><path d="M10.11,41.70L9.81,41.68"/><path d="M10.09,40.80L9.69,40.77"/><path d="M13.27,73.24L13.10,73.40L12.97,73.17L13.16,72.53L13.27,73.24"/><path d="M13.10,73.40L13.33,73.40L13.54,72.54L13.48,73.41"/><path d="M13.16,72.53L13.54,72.54"/><path d="M15.03,110.36L15.11,109.69L14.87,109.40L14.70,110.09L15.03,110.36"/><path d="M14.47,110.43L14.33,109.90L14.61,109.39L14.74,110.16L14.47,110.43"/><path d="M14.93,110.45L14.57,110.44"/><path d="M14.97,109.39L14.61,109.39"/><path d="M26.66,157.57L23.21,143.61L23.56,143.60L27.00,157.56L29.44,157.38L26.33,143.26L29.51,157.00L26.66,157.57L27.00,157.56"/><path d="M23.56,143.60L26.21,143.44"/><path d="M23.21,143.61L24.03,143.31L26.33,143.26"/><path d="M29.44,157.38L29.55,157.18"/><path d="M37.34,181.96L37.14,180.84L37.56,181.49"/><path d="M37.90,181.52L38.67,179.89"/><path d="M37.47,180.84L37.14,180.84"/></g></g><g id="Actor_.16"><g style="stroke:#000000;stroke-width:0.123;stroke-opacity:0.10"><path d="M89.77,133.15L89.12,134.69L88.95,134.85L88.73,134.92L88.47,134.94L81.67,134.65L81.45,134.61L81.30,134.52L79.92,108.72L79.94,108.87L80.09,108.96L80.32,108.99L87.58,109.25L87.81,109.18L87.98,109.03L88.66,107.67L89.77,133.15L89.74,132.98L89.60,132.89L89.37,132.85L86.39,132.73L86.33,132.86L89.31,132.99L89.46,133.03L89.51,133.14L88.86,134.67L88.64,134.80L81.74,134.51L81.53,134.42L82.25,132.83L82.37,132.74L82.58,132.71L85.55,132.83L85.52,132.13L85.65,131.82L85.84,131.70L86.08,131.71L86.28,131.85L86.36,132.06L86.39,132.73"/><path d="M79.92,108.72L80.66,107.38L80.85,107.22L81.33,107.14L84.39,107.25L84.45,108.52L84.54,108.74L84.75,108.89L84.99,108.90L85.18,108.77L84.93,108.99L84.68,108.98L84.47,108.84L84.39,108.61L84.33,107.38L81.27,107.26L81.06,107.29L80.93,107.37L80.19,108.73L81.53,134.42"/><path d="M85.12,108.86L85.19,108.64L85.13,107.41L88.19,107.52L88.40,107.61L87.71,109.02L87.49,109.13L80.39,108.87L80.18,108.78"/><path d="M81.28,134.35L81.99,132.82L82.17,132.66L82.39,132.59L82.64,132.57L85.62,132.69L85.55,132.83"/><path d="M84.33,107.38L84.39,107.25"/><path d="M85.62,132.69L85.58,132.03L85.65,131.82"/><path d="M85.59,131.92L85.77,131.80L86.01,131.81L86.21,131.95L86.30,132.17L86.33,132.86"/><path d="M85.18,108.77L85.25,108.55L85.19,107.28L85.13,107.41"/><path d="M85.19,107.28L88.25,107.40L88.48,107.44L88.63,107.52L88.66,107.67"/><path d="M89.52,133.09L88.40,107.61"/></g></g><g id="Actor_.17"><g style="stroke:#000000;stroke-width:0.123;stroke-opacity:0.10"><path d="M215.13,152.00L215.55,153.31L216.18,149.00L215.32,146.02L214.70,150.30L214.99,151.54L214.76,150.14L215.30,146.29L216.12,148.97L215.56,153.03L215.16,151.77L215.13,151.98L217.71,151.05L217.98,150.77L217.84,150.44L217.42,150.42L215.02,151.31"/><path d="M214.99,151.54L217.49,150.62L217.72,150.58L217.98,150.77"/><path d="M215.55,153.31L226.48,149.28L235.82,145.55L247.00,140.87L256.59,136.60L264.13,132.97L268.63,130.62L273.78,127.64L278.16,124.69L281.66,121.85L284.35,119.05L285.83,116.92L286.99,114.33L287.39,112.47L287.47,109.73L286.60,105.11L285.78,102.62L286.45,106.16L286.15,106.43L282.16,107.75L281.85,107.76L281.57,107.50L280.85,104.00L281.24,103.63L282.67,103.16L282.71,103.37L281.28,103.84L281.08,104.04L282.21,108.71L281.50,105.48L281.72,106.77L281.76,108.16L281.38,110.56L280.58,112.49L278.61,115.22L276.39,117.38L273.38,119.73L266.79,123.98L266.78,123.89L262.73,126.07L256.25,129.28L246.46,133.74L231.61,139.98L223.73,143.13L215.30,146.29"/><path d="M215.56,153.03L220.99,151.09L231.06,147.18L241.35,142.98L253.17,137.87L259.88,134.77L266.40,131.51L272.39,128.17L276.67,125.43L280.42,122.59L283.04,120.13L284.11,118.91L285.54,116.88L286.74,114.23L287.12,112.49L287.21,109.77L286.34,105.17L285.52,102.67L286.20,106.14L282.11,107.54L281.82,107.42"/><path d="M215.16,151.77L217.64,150.86L217.91,150.58"/><path d="M215.32,146.02L223.63,142.89L231.58,139.70L246.55,133.41L258.72,127.80L266.70,123.62L269.75,121.82L273.29,119.48L276.30,117.12L276.18,117.23L278.24,115.24L279.77,113.31L280.79,111.43L281.13,110.47L281.49,108.20L281.45,106.82L281.23,105.49L281.95,108.77L281.57,107.50"/><path d="M259.19,129.80L258.58,129.79L258.40,129.42L258.80,129.65L259.14,129.60L259.19,129.80L259.45,129.65L259.54,129.45L259.42,129.28L258.80,129.27L258.46,129.62"/><path d="M258.40,129.42L258.75,129.06L258.80,129.27"/><path d="M258.75,129.06L259.08,129.01L259.47,129.23L259.14,129.60"/><path d="M259.44,133.30L259.84,133.54L260.17,133.48L260.23,133.69L260.49,133.53L260.57,133.33L260.45,133.16L259.88,133.14L259.78,132.94L259.53,133.10L259.50,133.50L259.84,133.14"/><path d="M259.50,133.50L259.88,133.73L260.23,133.69"/><path d="M259.78,132.94L260.39,132.96L260.51,133.13L260.43,133.33L260.17,133.48"/><path d="M259.48,129.24L259.54,129.45"/><path d="M260.51,133.13L260.57,133.33"/><path d="M267.87,127.75L267.44,127.14"/><path d="M266.70,123.62L266.61,123.70"/><path d="M266.80,123.86L266.78,123.89"/><path d="M267.65,127.36L267.82,127.55L267.65,127.36L267.73,127.47"/><path d="M267.65,127.33L267.61,127.25"/><path d="M281.50,105.48L281.49,105.42"/><path d="M282.71,103.37L282.99,103.90L283.44,103.87L283.64,103.63L283.41,102.92L283.64,103.63"/><path d="M282.67,103.16L282.94,103.70L283.40,103.67L283.60,103.43"/><path d="M283.46,103.13L285.23,102.54L285.52,102.67"/><path d="M283.41,102.92L285.18,102.34L285.58,102.36L285.78,102.62"/></g></g><g id="Actor_.18"><g style="stroke:#000000;stroke-width:0.123;stroke-opacity:0.10"><path d="M236.92,138.16L236.83,138.99L237.00,139.01L237.13,138.45L236.96,138.31L236.69,138.68L236.80,138.29L237.08,138.18"/><path d="M236.83,138.99L237.52,140.16L240.31,140.47L240.56,140.32L239.23,137.80L236.32,137.50L236.69,138.68"/><path d="M237.00,139.01L237.65,140.11L240.27,140.37L241.90,135.10"/><path d="M236.85,138.69L236.40,137.60L239.09,137.85L240.39,140.30"/><path d="M236.39,137.66L239.17,127.81L244.18,101.80L257.72,22.81L257.67,23.14"/><path d="M236.23,137.56L239.01,127.71L246.49,87.92L257.41,23.40L260.99,-0.00"/><path d="M240.56,140.40L243.51,130.22L251.39,90.04L263.56,21.27L266.92,0.00"/><path d="M265.12,10.45L265.27,9.50L251.20,89.96L245.96,117.30L243.34,130.13L242.37,133.51"/><path d="M244.87,101.08L245.05,101.79L245.04,101.09L244.82,101.76L244.76,101.51L244.80,101.19L245.04,101.09"/><path d="M244.87,101.78L245.05,101.79"/><path d="M255.84,58.84L256.03,58.84L255.69,59.48L256.07,59.44L256.12,59.15L255.76,58.88L255.67,59.28"/><path d="M255.86,59.28L255.95,59.59"/><path d="M255.76,59.59L255.93,59.14"/><path d="M256.03,58.84L256.12,59.15"/><path d="M257.72,22.81L258.80,16.15L258.65,17.10"/><path d="M258.92,15.37L258.80,16.15L258.96,15.20L258.92,15.37"/><path d="M258.80,16.15L259.26,13.30L259.11,14.25"/><path d="M259.26,13.30L259.83,9.50L259.69,10.45"/><path d="M259.83,9.50L259.97,8.55L259.83,9.50"/><path d="M260.50,11.47L260.34,11.25L260.47,10.69L260.50,11.47"/><path d="M260.30,11.47L260.38,10.71L260.16,10.97L260.30,11.47"/><path d="M260.25,11.50L260.46,11.50"/><path d="M260.33,10.66L260.53,10.66"/><path d="M259.97,8.55L260.68,3.80L260.54,4.75"/><path d="M260.68,3.80L260.81,2.85L260.68,3.80"/><path d="M260.83,2.70L260.81,2.85L260.94,1.90L260.83,2.70"/><path d="M260.94,1.90L261.21,0.00"/><path d="M265.27,9.50L266.71,-0.00"/><path d="M266.01,4.75L266.06,4.38"/></g></g><g id="Actor_.19"><g style="stroke:#000000;stroke-width:0.123;stroke-opacity:0.10"><path d="M83.01,148.81L82.22,151.14L81.87,147.02L83.61,141.63L83.99,145.38L83.15,148.37L84.30,148.62L84.03,148.85L83.01,148.81L82.98,148.49L82.29,150.68L81.96,146.98L83.56,142.07L83.91,145.52L83.15,148.37"/><path d="M82.22,151.14L110.42,152.59L148.75,153.70L187.81,153.77L214.99,153.21L215.52,149.02L213.78,143.69L213.22,147.45L214.01,150.31L212.58,150.54L212.84,150.78L214.15,150.75L214.99,153.21"/><path d="M82.26,150.73L109.65,152.17L148.75,153.31L187.77,153.39L214.95,152.80L215.46,149.26L213.81,144.13L213.31,147.56L214.05,149.99L212.62,150.22L212.89,150.46L214.18,150.43L214.95,152.80"/><path d="M82.98,148.49L84.01,148.53L84.27,148.30L84.30,148.62"/><path d="M83.12,148.05L84.27,148.30"/><path d="M83.61,141.63L110.90,143.03L148.83,144.12L186.58,144.23L213.78,143.69"/><path d="M83.61,142.01L110.90,143.40L148.82,144.50L186.58,144.60L213.76,144.07"/><path d="M148.50,150.75L149.09,150.80L149.21,151.15L148.67,151.31L148.26,151.09L148.50,150.43L148.28,150.56L148.39,150.90L149.21,150.83L149.10,150.48L148.50,150.43"/><path d="M148.24,150.74L148.23,151.06"/><path d="M148.48,146.90L148.33,146.74L148.50,146.48L148.91,146.40L149.35,146.65L149.09,146.95L148.48,146.90"/><path d="M148.33,146.74L148.32,147.06L148.68,147.29L149.02,147.29L149.09,146.95"/><path d="M148.32,147.06L148.59,146.43"/><path d="M148.99,151.28L148.99,150.96"/><path d="M149.25,150.64L149.25,150.97"/><path d="M149.35,146.65L149.30,147.15L149.08,147.28"/><path d="M148.58,146.76L149.34,146.97"/><path d="M212.58,150.54L212.62,150.22"/><path d="M214.01,150.31L214.05,149.99"/><path d="M214.15,150.75L214.18,150.43"/></g></g><g id="Actor_.20"><g style="stroke:#000000;stroke-width:0.123;stroke-opacity:0.10"><path d="M54.17,137.44L57.40,137.21L57.97,136.08L57.87,135.34L58.12,135.77L58.57,134.81L58.33,134.65L55.40,134.93L54.17,137.35L51.61,127.12L45.35,86.47L35.94,16.91L33.94,-0.00"/><path d="M34.23,0.85L34.13,-0.00"/><path d="M34.35,1.90L34.24,0.95L36.15,16.89L45.54,86.41L51.78,127.03L54.33,137.34L57.12,137.23L57.97,136.08"/><path d="M34.89,6.65L34.78,5.70"/><path d="M39.43,6.37L39.56,6.92L39.46,7.21L39.36,7.08L39.33,6.46L39.63,6.37L39.67,7.22L39.63,6.37"/><path d="M39.67,7.22L39.46,7.21"/><path d="M57.81,136.09L57.71,135.36L57.95,135.78L58.35,134.93L58.33,134.48L56.01,124.83L50.11,84.59L41.76,19.32L39.56,-0.00"/><path d="M58.57,134.72L56.17,124.74L52.22,98.47L41.96,19.28L39.77,-0.00"/><path d="M42.02,55.06L41.84,55.17L41.88,55.62L42.21,55.68L42.25,55.51L42.22,55.11L42.02,55.06L42.06,55.50L41.88,55.62"/><path d="M42.14,55.72L41.95,55.72"/><path d="M42.07,55.62L42.07,55.00L42.21,55.06"/><path d="M41.95,54.96L42.14,54.96"/><path d="M51.14,98.36L51.23,97.79L51.23,98.50L51.14,98.36"/><path d="M51.23,98.50L51.40,98.50L51.40,97.80L51.23,97.79"/><path d="M51.40,98.50L51.40,97.80"/><path d="M54.33,137.34L55.46,135.02L58.41,134.82"/><path d="M57.92,135.25L57.75,135.26"/><path d="M57.95,135.78L58.12,135.77"/></g></g><g id="Actor_.21"><g style="stroke:#000000;stroke-width:0.123;stroke-opacity:0.10"><path d="M167.95,123.53L167.98,123.67L168.21,118.16L167.98,116.83L167.76,122.54L167.83,122.93L168.70,122.96L168.87,123.04L168.89,123.13L168.53,123.24L167.89,123.24L167.95,123.53"/><path d="M167.83,123.18L168.70,123.21L168.86,123.29L168.88,123.38L168.52,123.49L167.89,123.49L167.99,123.95L168.23,118.03L167.99,116.58L167.93,116.88L167.73,122.09L167.83,123.18L167.83,122.93"/><path d="M167.99,123.95L209.87,123.98L209.10,122.82L209.02,122.45L209.45,116.94L209.53,116.62L209.62,116.64L210.33,117.72L210.42,118.08L209.98,123.65L209.87,123.98"/><path d="M167.99,123.69L209.86,123.71L210.36,118.19L210.31,117.97L209.60,116.89L209.51,117.04L209.08,122.35L209.12,122.57L209.86,123.71"/><path d="M167.89,123.49L167.89,123.24"/><path d="M209.57,116.87L167.97,116.81"/><path d="M209.53,116.62L167.96,116.56"/><path d="M168.89,123.13L168.88,123.38"/></g></g><g id="Actor_.22"><g style="stroke:#000000;stroke-width:0.123;stroke-opacity:0.10"><path d="M96.59,199.89L96.72,200.01L97.33,198.86L98.10,199.00L98.47,198.74L98.35,198.55L97.57,198.39L98.23,196.81L98.04,193.91L97.92,193.78L96.43,196.70L96.59,199.89"/><path d="M96.66,200.04L121.29,201.18L146.09,201.82L170.87,201.94L198.14,201.49L197.48,200.28L196.81,200.39L196.49,200.25L196.51,199.82L197.27,199.63L197.25,199.81L196.44,200.10"/><path d="M97.57,198.39L98.14,196.90L97.96,194.07L96.48,196.81L96.67,199.73L97.31,198.68L97.33,198.86"/><path d="M96.71,199.81L118.58,200.84L139.93,201.47L159.86,201.71L181.79,201.60L198.10,201.25L198.46,198.37L197.11,195.48L169.66,195.83L147.55,195.71L122.66,195.10L97.94,194.00"/><path d="M97.56,198.21L98.38,198.40L98.45,198.61L98.15,198.82L97.31,198.68"/><path d="M97.97,193.76L122.67,194.87L147.55,195.48L172.41,195.58L197.01,195.18L196.62,198.27L197.25,199.81"/><path d="M98.47,198.71L98.46,198.53"/><path d="M147.04,200.50L147.57,200.72L147.87,200.57L147.92,200.31L147.37,200.08L147.08,200.23L147.04,200.50"/><path d="M147.27,200.51L147.84,200.43L147.86,200.05L147.44,199.90L147.12,200.02L147.02,200.27L147.27,200.51"/><path d="M147.01,200.40L147.02,200.23"/><path d="M147.09,196.89L147.55,196.74L147.99,196.98L148.01,196.84L147.51,196.56L147.11,196.80L147.09,197.06L147.41,197.19L147.95,197.05L147.71,197.37L147.24,197.30L147.09,197.06"/><path d="M147.93,200.40L147.93,200.22"/><path d="M148.01,196.89L148.01,197.06"/><path d="M196.46,199.92L196.67,200.18L197.50,200.11L197.48,200.28"/><path d="M197.27,199.63L196.70,198.38L197.04,195.42"/><path d="M197.01,195.18L198.52,198.17L198.14,201.49"/><path d="M197.50,200.11L198.10,201.25"/></g></g><g id="Actor_.23"><g style="stroke:#000000;stroke-width:0.123"><path d="M238.79,128.04L238.75,127.94L238.80,127.63L238.82,127.51L238.89,127.40L239.01,127.36L239.30,127.36L239.51,127.37L239.62,127.41L239.66,127.51L239.59,127.95L239.52,128.05L239.40,128.09L238.90,128.09L238.79,128.04L238.76,127.99L238.73,127.88L238.71,127.87L238.65,127.74L238.65,127.74L238.73,127.88"/><path d="M238.65,127.74L238.66,127.84L238.68,127.89L238.72,127.93"/><path d="M238.80,127.37L238.78,127.24L238.76,127.19L238.78,127.18L238.80,127.22L238.90,127.29"/><path d="M238.78,127.18L238.91,127.15L238.98,127.29L238.98,127.31L238.86,127.35L238.79,127.45L238.78,127.43L238.72,127.30L238.76,127.19"/><path d="M238.80,127.42L238.80,127.40"/><path d="M238.72,127.91L238.72,127.92"/><path d="M238.72,127.31L238.65,127.74"/><path d="M238.68,127.89L238.76,127.99"/><path d="M238.91,127.16L239.41,127.17L239.49,127.31L239.60,127.35L239.62,127.41"/><path d="M239.42,127.67L239.40,127.79L239.31,127.88L239.18,127.91L239.05,127.88L238.99,127.78L239.01,127.67L239.10,127.57L239.23,127.54L239.36,127.58L239.42,127.67"/><path d="M239.18,127.91L239.08,127.71L239.00,127.69"/><path d="M239.08,127.71L239.21,127.68L239.30,127.59L239.31,127.56"/><path d="M239.41,127.17L239.41,127.16L239.53,127.18L239.55,127.20L239.57,127.24L239.62,127.37L239.63,127.41L239.63,127.43"/><path d="M239.49,127.31L239.48,127.29L239.41,127.16"/><path d="M239.53,127.18L239.56,127.22L239.55,127.30"/></g></g><g id="Actor_.24"><g style="stroke:#000000;stroke-width:0.123"><path d="M247.46,90.64L247.65,90.59L247.78,90.46L247.81,90.29L247.73,90.15L247.56,90.09L247.37,90.14L247.24,90.27L247.21,90.44L247.29,90.58L247.46,90.64L247.31,90.42L247.22,90.39"/><path d="M247.96,89.90L247.94,89.89L247.25,89.88L247.12,89.92L247.05,90.03L246.93,90.67L246.96,90.78L247.08,90.83L247.77,90.85L247.80,90.84"/><path d="M247.31,90.42L247.50,90.38L247.63,90.24L247.66,90.12"/><path d="M246.76,90.44L246.78,90.44L246.86,90.57L246.82,90.53L246.76,90.44L246.76,90.57L246.78,90.60L246.81,90.60"/><path d="M246.79,90.45L246.90,89.84"/><path d="M246.89,90.68L246.96,90.78"/><path d="M246.78,90.60L246.81,90.63L246.90,90.69"/><path d="M246.96,89.81L246.94,89.72L246.92,89.68L246.88,89.81L246.94,89.90L246.98,89.93"/><path d="M247.18,89.77L247.16,89.72L247.10,89.63L246.96,89.65L246.99,89.69L247.07,89.72"/><path d="M247.12,89.66L247.80,89.68L247.87,89.79L247.85,89.74L247.79,89.65L247.93,89.68L247.95,89.71L247.93,89.74"/><path d="M246.92,89.68L246.96,89.65"/><path d="M247.80,89.68L247.79,89.67L247.79,89.65"/><path d="M247.99,89.77L247.98,89.74L247.95,89.71L247.93,89.68"/></g></g><g id="Actor_.25"><g style="stroke:#000000;stroke-width:0.123"><path d="M58.07,133.29L57.98,133.27L57.90,133.18L57.75,132.76L57.77,132.65L57.87,132.59L58.35,132.52L58.48,132.55L58.56,132.64L58.70,133.06L58.69,133.17L58.59,133.23L58.11,133.30L58.07,133.29"/><path d="M57.77,132.65L57.79,132.59L57.89,132.54L57.90,132.52L57.97,132.38L57.97,132.38L57.89,132.54"/><path d="M58.05,133.00L58.01,132.88L58.05,132.78L58.16,132.73L58.30,132.74L58.41,132.82L58.44,132.94L58.40,133.04L58.29,133.09L58.15,133.08L58.05,133.00"/><path d="M57.97,132.38L57.85,132.42L57.83,132.46L57.84,132.54"/><path d="M57.86,132.54L57.85,132.54"/><path d="M57.85,132.42L57.84,132.44L57.82,132.48L57.78,132.62"/><path d="M57.96,132.39L58.44,132.32"/><path d="M58.69,133.17L58.71,133.11L58.73,133.01L58.80,132.86L58.66,132.44"/><path d="M58.29,133.09L58.39,132.89L58.25,132.87L58.15,132.79L58.13,132.74"/><path d="M58.75,133.05L58.79,133.01L58.81,132.96L58.80,132.85L58.80,132.85L58.80,132.86"/><path d="M58.74,133.04L58.74,133.03"/><path d="M58.71,133.11L58.79,133.01"/><path d="M58.60,132.57L58.58,132.58L58.50,132.49L58.37,132.47L58.38,132.45L58.45,132.31L58.58,132.32L58.60,132.33L58.66,132.43L58.60,132.57"/><path d="M58.73,133.01L58.74,132.99L58.80,132.85"/><path d="M58.60,132.33L58.58,132.37L58.56,132.50"/><path d="M58.57,132.55L58.57,132.54"/><path d="M58.58,132.32L58.55,132.36L58.46,132.44"/><path d="M58.39,132.89L58.42,132.87"/></g></g><g id="Actor_.26"><g style="stroke:#000000;stroke-width:0.123"><path d="M57.66,127.96L55.23,128.31L55.15,128.10L55.28,127.84L55.35,127.78L57.77,127.42L57.71,127.49L57.58,127.74L57.66,127.96L57.78,127.70L57.81,127.67L57.85,127.67L57.89,127.71L57.92,127.79L59.79,133.30L59.82,133.39L59.82,133.57L59.80,133.64L59.68,133.90L59.75,134.11L57.34,134.46L57.27,134.25L59.68,133.90"/><path d="M55.15,128.10L57.58,127.74"/><path d="M57.27,134.25L57.40,133.99L57.42,133.92L57.42,133.83L57.39,133.65L55.54,128.27"/><path d="M56.85,128.77L56.94,128.84L57.04,128.86"/><path d="M59.75,134.11L59.87,133.85L59.91,133.72L59.92,133.54L59.90,133.35L59.85,133.17L57.98,127.66L57.92,127.51L57.84,127.43L57.77,127.42"/><path d="M58.21,132.73L58.29,132.79L58.38,132.80"/></g></g><g id="Actor_.27"><g style="stroke:#000000;stroke-width:0.123"><path d="M47.60,77.50L47.58,77.51L47.54,77.63L47.63,78.28L47.70,78.40L47.83,78.45L48.54,78.46L48.66,78.41L48.70,78.30L48.61,77.64L48.54,77.52L48.41,77.47L47.70,77.46L47.60,77.50"/><path d="M47.58,77.51L47.65,77.41"/><path d="M47.81,77.96L47.85,77.79L47.99,77.69L48.18,77.69L48.35,77.80L48.43,77.97L48.39,78.13L48.25,78.23L48.06,78.23L47.89,78.13L47.81,77.96L47.96,77.76L48.04,77.92L48.21,78.03L48.40,78.03L48.41,78.02"/><path d="M47.96,77.76L47.97,77.70"/><path d="M47.71,77.32L47.69,77.28L47.72,77.25L47.68,77.28L47.66,77.32L47.63,77.41L47.62,77.45"/><path d="M47.77,77.36L47.79,77.31L47.85,77.23L47.86,77.25L47.77,77.36"/><path d="M48.59,77.33L48.68,77.30L48.70,77.26L48.56,77.24L48.50,77.32L48.48,77.37"/><path d="M47.85,77.26L48.54,77.27"/><path d="M47.72,77.25L47.85,77.23"/><path d="M48.66,78.41L48.73,78.32"/><path d="M48.87,78.08L48.85,78.08L48.77,78.20L48.81,78.17L48.87,78.08L48.87,78.22L48.84,78.25L48.81,78.24"/><path d="M48.85,78.09L48.76,77.46"/><path d="M48.84,78.25L48.81,78.28L48.72,78.33"/><path d="M48.68,77.55L48.72,77.51L48.78,77.43L48.74,77.30L48.72,77.33L48.71,77.42"/><path d="M48.74,77.30L48.70,77.26"/></g></g><g id="Actor_.28"><g style="stroke:#000000;stroke-width:0.123"><path d="M239.28,134.46L239.24,134.68L239.39,134.99L239.44,135.06L239.50,135.05L239.55,134.97L239.59,134.83L240.57,129.13L240.59,128.94L240.59,128.74L240.56,128.56L240.52,128.42L240.36,128.11L240.32,128.34L240.48,128.64L240.50,128.74L240.51,128.87L240.50,129.00L239.53,134.69L239.50,134.78L239.46,134.81L239.43,134.77L239.28,134.46L239.57,134.47"/><path d="M240.36,128.11L242.92,128.16L243.08,128.47L243.12,128.60L243.15,128.78L243.15,128.98L243.13,129.17L242.13,134.87L242.09,135.02L242.04,135.10L241.98,135.11L239.44,135.06"/><path d="M240.65,134.46L240.70,134.49L240.96,134.50L241.08,134.43L241.17,134.29L241.29,133.56L241.28,133.51"/><path d="M240.96,134.50L240.92,134.52L240.74,134.52L240.70,134.49"/><path d="M240.80,134.65L240.67,134.56L240.64,134.41L240.77,133.68L240.85,133.53L240.95,133.48L241.01,133.44L241.20,133.45L241.33,133.54L241.36,133.69L241.23,134.42L241.15,134.57L240.99,134.66L240.80,134.65"/><path d="M240.75,133.75L240.80,133.71L240.98,133.66L241.14,133.71L241.23,133.84L241.20,134.00L241.07,134.13L240.89,134.17L240.72,134.12L240.70,134.08"/><path d="M240.70,134.04L240.85,134.08L240.89,134.17"/><path d="M240.85,134.08L240.98,134.06L241.12,133.97L241.19,133.83L241.17,133.76"/><path d="M241.36,130.37L241.45,130.44L241.63,130.44L241.79,130.35L241.88,130.20L242.01,129.46L242.00,129.41"/><path d="M241.35,130.32L241.38,130.47L241.51,130.57L241.70,130.57L241.86,130.48L241.94,130.33L242.07,129.60L242.04,129.44L241.91,129.35L241.72,129.34L241.56,129.44L241.48,129.59L241.35,130.32"/><path d="M241.46,129.66L241.51,129.62L241.69,129.57L241.86,129.62L241.94,129.75L241.91,129.91L241.79,130.03L241.60,130.08L241.43,130.03L241.41,129.99"/><path d="M241.60,130.08L241.56,130.00L241.41,129.95"/><path d="M241.56,130.00L241.69,129.97L241.83,129.88L241.90,129.74L241.89,129.67"/></g></g><g id="Actor_.29"><g style="stroke:#000000;stroke-width:0.123"><path d="M241.46,129.70L241.60,129.67L241.69,129.57"/><path d="M241.44,129.77L241.55,129.98L241.73,129.93L241.86,129.81L241.88,129.66"/><path d="M241.55,129.98L241.42,129.93"/></g></g><g id="Actor_.30"><g style="stroke:#000000;stroke-width:0.123"><path d="M248.75,91.92L248.90,91.88L249.04,91.74L249.05,91.68"/><path d="M248.74,91.98L248.86,92.15L249.05,92.10L249.19,91.97L249.22,91.79L249.18,91.72"/><path d="M248.86,92.15L248.72,92.11"/></g></g><g id="Actor_.31"><g style="stroke:#000000;stroke-width:0.123"><path d="M49.04,87.42L48.90,87.37L48.84,87.26L48.75,86.62L48.79,86.50L48.91,86.45L49.61,86.46L49.74,86.51L49.81,86.63L49.89,87.27L49.85,87.38L49.73,87.43L49.04,87.42"/><path d="M49.19,86.68L49.05,86.77L49.02,86.94L49.10,87.10L49.26,87.21L49.45,87.21L49.59,87.11L49.63,86.95L49.55,86.78L49.38,86.68L49.19,86.68"/><path d="M49.02,86.94L49.16,86.73L49.17,86.69"/><path d="M49.16,86.73L49.24,86.89L49.41,86.99L49.60,87.00L49.62,86.98"/><path d="M48.79,86.50L48.86,86.40"/><path d="M48.92,86.30L48.90,86.27L48.92,86.23L48.89,86.26L48.87,86.30L48.84,86.39L48.83,86.45"/><path d="M48.98,86.35L49.00,86.30L49.06,86.21L49.06,86.23L48.98,86.35"/><path d="M49.06,86.21L48.92,86.23"/><path d="M49.74,86.25L49.05,86.24"/><path d="M49.85,87.38L49.92,87.28"/><path d="M49.87,86.53L49.92,86.49L49.98,86.41L49.94,86.28L49.91,86.31L49.90,86.41"/><path d="M50.06,87.05L50.04,87.05L49.96,87.17L50.00,87.13L50.06,87.05L50.06,87.17L50.03,87.21L50.01,87.20"/><path d="M50.04,87.06L49.96,86.44"/><path d="M49.92,87.29L50.00,87.24L50.03,87.21"/><path d="M49.67,86.36L49.70,86.31L49.76,86.22L49.90,86.25L49.87,86.28L49.79,86.31"/><path d="M49.94,86.28L49.90,86.25"/></g></g><g id="Actor_.32"><g style="stroke:#000000;stroke-width:0.123"><path d="M49.48,82.91L49.51,82.74L49.43,82.57L49.27,82.47L49.08,82.47L48.94,82.57L48.90,82.73L48.98,82.90L49.15,83.00L49.34,83.01L49.48,82.91"/><path d="M48.72,83.05L48.63,82.41L48.67,82.29L48.79,82.24L49.49,82.25L49.63,82.30L49.70,82.42L49.78,83.07L49.74,83.18L49.62,83.23L48.92,83.22L48.79,83.17L48.72,83.05"/><path d="M48.90,82.73L49.05,82.53L49.13,82.69L49.30,82.80L49.48,82.80L49.50,82.79"/><path d="M48.67,82.29L48.74,82.19"/><path d="M48.81,82.10L48.78,82.06L48.81,82.03L48.78,82.06L48.75,82.09L48.72,82.19L48.71,82.24"/><path d="M48.86,82.15L48.88,82.09L48.94,82.01L48.95,82.02L48.86,82.15"/><path d="M48.94,82.03L49.63,82.04"/><path d="M49.05,82.53L49.06,82.48"/><path d="M48.94,82.01L48.81,82.03"/><path d="M49.95,82.85L49.94,82.85L49.85,82.97L49.89,82.94L49.95,82.85L49.95,82.98L49.92,83.01L49.90,83.00"/><path d="M49.93,82.86L49.85,82.23"/><path d="M49.92,83.01L49.89,83.05L49.81,83.10"/><path d="M49.74,83.18L49.81,83.09"/><path d="M49.68,82.11L49.76,82.07L49.79,82.04L49.65,82.02L49.58,82.10L49.56,82.15"/><path d="M49.76,82.32L49.81,82.29L49.87,82.20L49.83,82.07L49.80,82.11L49.79,82.20"/><path d="M49.83,82.07L49.79,82.04"/></g></g><g id="Actor_.33"><g style="stroke:#000000;stroke-width:0.123"><path d="M49.14,75.99L49.22,75.89L46.03,75.85L45.95,75.95L49.14,75.99L49.24,76.64L49.32,76.83L49.38,76.84L49.43,76.80L49.60,76.59L49.66,76.67L51.10,87.56L51.09,87.85L50.88,88.21L50.83,88.50L50.84,88.83L50.90,89.32L47.78,89.28L47.71,88.79L47.70,88.46L47.75,88.17L47.96,87.81L47.98,87.52L46.52,76.81"/><path d="M49.38,76.84L46.19,76.80L46.14,76.78L46.05,76.60L45.95,75.95"/><path d="M47.97,77.72L47.99,77.79L48.10,77.91L48.24,78.00L48.41,78.03"/><path d="M49.62,86.98L49.44,86.95L49.30,86.87L49.20,86.75L49.17,86.69"/><path d="M49.50,82.79L49.33,82.76L49.19,82.68L49.08,82.55L49.06,82.49"/><path d="M50.90,89.32L50.97,89.21L50.91,88.72L50.91,88.52L50.95,88.37L51.13,88.06L51.18,87.78L51.17,87.45L49.76,76.66L49.69,76.40L49.64,76.33L49.59,76.31L49.39,76.55L49.36,76.57L49.33,76.55L49.28,76.40L49.22,75.89"/><path d="M49.59,76.31L49.27,76.31"/></g></g><g id="Actor_.34"><g style="stroke:#000000;stroke-width:0.123"><path d="M238.05,126.34L237.99,126.35L237.94,126.44L237.91,126.59L237.05,132.19L237.03,132.37L237.04,132.57L237.06,132.74L237.10,132.88L237.23,133.14L239.72,133.16L239.75,132.94L237.26,132.93L237.11,132.60L237.10,132.51L237.11,132.32L237.97,126.72L237.99,126.64L238.01,126.60L238.04,126.59L238.07,126.63L238.19,126.88L238.23,126.66L240.75,126.68L240.62,126.43L240.56,126.36L238.05,126.34L238.10,126.41L238.23,126.66"/><path d="M237.23,133.14L237.26,132.93"/><path d="M238.42,131.65L238.55,131.62L238.60,131.57"/><path d="M238.38,131.69L238.40,131.72"/><path d="M238.19,126.88L240.71,126.90L240.75,126.68"/><path d="M240.46,126.90L239.60,132.34L239.59,132.43L239.60,132.62L239.75,132.94"/><path d="M239.01,127.66L239.03,127.70"/><path d="M239.24,127.54L239.18,127.60L239.04,127.64"/></g></g><g id="Actor_.35"><g style="stroke:#000000;stroke-width:0.123"><path d="M238.77,132.11L238.27,132.11L238.16,132.07L238.13,131.96L238.19,131.54L238.26,131.43L238.38,131.39L238.88,131.40L238.99,131.44L239.02,131.54L238.96,131.97L238.89,132.07L238.77,132.11"/><path d="M238.79,131.70L238.77,131.81L238.68,131.90L238.55,131.94L238.42,131.90L238.36,131.81L238.38,131.69L238.47,131.60L238.60,131.57L238.73,131.60L238.79,131.70"/><path d="M238.68,131.59L238.67,131.61L238.58,131.70L238.45,131.74L238.55,131.94"/><path d="M238.99,131.44L238.96,131.38L238.85,131.34L238.78,131.19L238.78,131.19L238.90,131.21L238.92,131.25L238.91,131.33"/><path d="M238.85,131.34L238.85,131.32L238.78,131.19"/><path d="M238.90,131.21L238.92,131.23L238.94,131.27L238.99,131.40L239.00,131.44L239.00,131.46"/><path d="M238.03,131.76L238.10,131.91L238.09,131.89L238.02,131.76L238.03,131.76L238.03,131.76L238.09,131.34"/><path d="M238.18,131.40L238.15,131.26L238.13,131.22L238.09,131.33L238.15,131.46L238.17,131.48L238.23,131.38L238.35,131.34L238.35,131.32L238.28,131.18L238.15,131.20L238.13,131.22"/><path d="M238.78,131.19L238.29,131.19"/><path d="M238.10,131.91L238.13,132.01L238.05,131.91L238.09,131.95"/><path d="M238.15,131.20L238.17,131.25L238.27,131.32"/><path d="M238.17,131.45L238.18,131.43"/><path d="M238.02,131.76L238.03,131.86L238.05,131.91"/><path d="M238.10,131.94L238.10,131.94"/><path d="M238.16,132.07L238.13,132.01"/><path d="M238.45,131.74L238.38,131.71"/></g></g><g id="Actor_.36"><g style="stroke:#000000;stroke-width:0.123"><path d="M249.54,87.45L249.68,87.49L249.87,87.44L250.01,87.30L250.04,87.13L249.99,87.05"/><path d="M249.68,87.49L249.56,87.32"/><path d="M249.57,87.26L249.72,87.22L249.85,87.08L249.87,87.01"/></g></g><g id="Actor_.37"><g style="stroke:#000000;stroke-width:0.123"><path d="M240.71,134.02L240.84,134.06L240.74,133.85"/><path d="M240.98,133.66L240.89,133.75L240.75,133.78"/><path d="M240.84,134.06L241.02,134.02L241.14,133.90L241.17,133.75"/></g></g><g id="Actor_.38"><g style="stroke:#000000;stroke-width:0.123"><path d="M56.75,129.34L56.62,129.32L56.54,129.22L56.40,128.80L56.41,128.69L56.51,128.63L56.70,128.60L56.99,128.56L57.12,128.59L57.20,128.68L57.35,129.11L57.34,129.21L57.24,129.27L56.75,129.34"/><path d="M56.41,128.69L56.44,128.63L56.54,128.58L56.54,128.56L56.61,128.42L56.61,128.43L56.54,128.58"/><path d="M56.94,129.14L56.80,129.12L56.69,129.04L56.65,128.92L56.70,128.82L56.81,128.77L56.95,128.78L57.05,128.87L57.09,128.98L57.05,129.08L56.94,129.14L57.04,128.94L56.90,128.92L56.79,128.84L56.78,128.78"/><path d="M57.04,128.94L57.07,128.92"/><path d="M56.61,128.42L56.50,128.46L56.48,128.48L56.46,128.52L56.42,128.66"/><path d="M56.61,128.43L57.09,128.36"/><path d="M56.50,128.46L56.48,128.51L56.48,128.57"/><path d="M57.02,128.51L57.15,128.53L57.23,128.62L57.24,128.61L57.31,128.47L57.25,128.37L57.22,128.36L57.10,128.35L57.03,128.48L57.02,128.51"/><path d="M57.11,128.48L57.20,128.40L57.22,128.36"/><path d="M56.50,128.58L56.49,128.58"/><path d="M57.45,128.90L57.38,129.05L57.39,129.03L57.46,128.90L57.45,128.90L57.45,128.90L57.31,128.48"/><path d="M57.46,128.90L57.47,129.01L57.45,129.05L57.40,129.09"/><path d="M57.38,129.05L57.36,129.16L57.34,129.21"/><path d="M57.39,129.08L57.39,129.09"/><path d="M57.25,128.37L57.23,128.41L57.21,128.54"/><path d="M57.22,128.59L57.21,128.58"/><path d="M57.45,129.05L57.36,129.16"/></g></g><g id="Actor_.39"><g style="stroke:#000000;stroke-width:0.123"><path d="M248.41,85.48L248.37,85.73L248.55,85.98L248.58,86.07L248.59,86.20L248.58,86.34L247.46,92.84L247.43,92.95L247.38,93.00L247.34,92.98L247.17,92.72L247.12,92.96L247.30,93.22L247.36,93.27L247.43,93.24L247.49,93.13L247.53,92.95L248.66,86.45L248.68,86.24L248.67,86.03L248.64,85.85L248.59,85.73L248.41,85.48L251.14,85.53L251.33,85.78L251.38,85.90L251.41,86.08L251.42,86.29L251.39,86.50L250.24,93.01L250.20,93.18L250.14,93.29L250.07,93.32L247.36,93.27"/><path d="M247.17,92.72L247.48,92.72"/><path d="M248.68,92.59L248.75,92.65L248.95,92.65L249.12,92.55L249.21,92.38L249.36,91.55L249.34,91.44"/><path d="M248.72,92.62L248.99,92.62"/><path d="M249.31,92.40L249.29,92.49L249.20,92.66L249.02,92.76L248.83,92.76L248.69,92.65L248.66,92.48L248.80,91.65L248.89,91.48L249.07,91.38L249.26,91.38L249.40,91.49L249.44,91.66L249.31,92.40"/><path d="M248.72,92.14L248.74,92.19L248.92,92.25L249.12,92.20L249.26,92.05L249.29,91.87L249.20,91.73L249.02,91.67L248.83,91.72L248.78,91.77"/><path d="M248.92,92.25L248.87,92.17L249.01,92.15L249.16,92.04L249.24,91.89L249.22,91.76"/><path d="M248.87,92.17L248.72,92.12"/><path d="M250.16,86.76L250.18,86.88L250.03,87.72L249.94,87.89L249.76,87.99L249.57,87.99L249.49,87.93"/><path d="M249.51,87.59L249.62,86.98L249.71,86.80L249.89,86.70L250.08,86.70L250.23,86.81L250.26,86.99L250.11,87.83L250.02,88.00L249.84,88.10L249.64,88.10L249.50,87.99L249.47,87.81L249.51,87.59"/><path d="M249.53,87.48L249.56,87.53L249.73,87.59L249.93,87.53L250.07,87.39L250.11,87.21L250.02,87.06L249.84,87.00L249.64,87.05L249.60,87.10"/><path d="M249.73,87.59L249.68,87.51L249.83,87.49L249.98,87.38L250.05,87.23L250.03,87.09"/><path d="M249.68,87.51L249.53,87.46"/></g></g><g id="Actor_.40"><g style="stroke:#000000;stroke-width:0.123"><path d="M245.95,92.19L245.86,92.67L245.79,92.56L245.88,92.04L245.88,91.84L245.86,91.75L245.69,91.48L245.65,91.37L245.62,91.10L245.64,90.81L247.50,80.07L247.56,79.89L247.66,79.79L247.71,79.81L247.89,80.05L247.94,80.03L247.99,79.92L248.08,79.38L248.16,79.48L248.06,80.04L247.98,80.26L247.93,80.32L247.87,80.32L247.68,80.08L247.65,80.06L247.61,80.10L247.57,80.19L245.72,90.91L245.70,91.08L245.72,91.22L245.90,91.51L245.95,91.67L245.97,91.95L245.95,92.19"/><path d="M245.86,92.67L247.48,92.71"/><path d="M247.23,90.39L247.38,90.37L247.48,90.32L247.60,90.22L247.66,90.12"/><path d="M247.52,86.23L247.66,86.21L247.76,86.16L247.88,86.05L247.94,85.95"/><path d="M247.89,80.32L251.05,80.39L251.13,80.33L251.18,80.21L251.31,79.55L248.16,79.48"/><path d="M248.08,79.38L251.23,79.45L251.31,79.55"/><path d="M247.67,79.79L248.01,79.80"/><path d="M248.98,92.62L248.97,92.63"/><path d="M249.04,91.72L249.03,91.67"/><path d="M249.22,81.25L249.16,81.36L249.03,81.46L248.93,81.51L248.81,81.53"/><path d="M249.78,85.50L250.69,80.39"/><path d="M251.03,80.39L251.03,80.39"/></g></g><g id="Actor_26.0"><g style="stroke:#000000;stroke-width:0.123"><path d="M248.01,104.68L247.96,104.63L247.69,104.20L247.65,104.15L247.56,104.11L247.46,104.09L247.36,104.07L246.38,104.06L246.22,104.03L246.08,103.96L245.98,103.85L245.93,103.72L245.93,103.57L246.18,102.13L246.23,101.99L246.33,101.85L246.46,101.75L246.55,101.71L246.63,101.68L246.79,101.66L247.77,101.68L247.88,101.69L247.98,101.72L248.06,101.76L248.11,101.80L248.38,102.23L248.43,102.33L248.46,102.46L248.47,102.62L248.47,102.79L248.45,102.95L248.20,104.39L248.16,104.53L248.12,104.63L248.07,104.68L248.01,104.68L248.33,104.69L248.39,104.63L248.43,104.53L248.46,104.40L248.72,102.96L248.74,102.79L248.74,102.63L248.72,102.47L248.69,102.33L248.65,102.24L248.38,101.81L248.31,101.73L248.19,101.67L248.04,101.61L247.87,101.58L247.70,101.56L246.72,101.55L246.55,101.57L246.39,101.63L246.26,101.74L246.16,101.87L246.11,102.02L245.86,103.45L245.86,103.60L245.91,103.74L245.98,103.85"/><path d="M247.02,103.19L246.89,103.16L246.79,103.09L246.73,102.99L246.72,102.86L246.77,102.74L246.86,102.64L246.99,102.57L247.13,102.55L247.26,102.58L247.37,102.65L247.42,102.75L247.43,102.88L247.38,103.00L247.29,103.10L247.16,103.17L247.02,103.19"/><path d="M247.35,102.64L247.36,102.76L247.31,102.88L247.21,102.98L247.09,103.05L246.95,103.07L246.82,103.05L246.73,102.98"/></g></g><g id="Actor_20.0"><g style="stroke:#000000;stroke-width:0.123"><path d="M273.97,124.63L270.79,122.32L270.69,122.09L270.63,121.78L270.63,121.42L270.68,121.08L273.55,109.55L273.65,109.28L273.79,109.09L273.94,109.05L277.36,111.34L277.26,111.76L273.97,109.56L273.88,109.51L273.78,109.59L273.71,109.76L270.84,121.30L270.81,121.53L270.83,121.76L270.89,121.92L274.08,124.23L273.97,124.63L276.34,124.74L276.45,124.34L274.08,124.23"/><path d="M272.83,120.87L272.69,120.80L272.66,120.66L272.85,119.88L272.95,119.74L273.13,119.68L274.01,119.72L274.15,119.79L274.19,119.94L273.99,120.72L273.89,120.85L273.71,120.90L272.83,120.87"/><path d="M272.69,120.80L272.58,120.64"/><path d="M273.20,120.59L273.13,120.56L273.03,120.38L273.08,120.17L273.26,120.01L273.51,119.96L273.72,120.03L273.81,120.21L273.76,120.42L273.58,120.58L273.34,120.64L273.20,120.59"/><path d="M273.34,120.64L273.10,120.30L273.05,120.29"/><path d="M272.39,120.31L272.55,120.50L272.39,120.31L272.37,120.46L272.41,120.52L272.47,120.52"/><path d="M272.42,120.32L272.61,119.57"/><path d="M272.41,120.52L272.58,120.65"/><path d="M273.12,120.14L273.38,119.98"/><path d="M273.10,120.30L273.34,120.25L273.52,120.09L273.55,119.97"/><path d="M272.74,119.72L272.58,119.53L272.65,119.37L272.69,119.43L272.71,119.56"/><path d="M272.86,119.45L272.74,119.39L272.70,119.34L272.88,119.32L273.02,119.53"/><path d="M272.65,119.37L272.70,119.34"/><path d="M272.91,119.36L273.77,119.39L273.77,119.36L273.90,119.57L273.77,119.39"/><path d="M274.16,119.79L274.04,119.64"/><path d="M273.77,119.36L273.94,119.39L274.01,119.49L274.06,119.66"/><path d="M273.94,119.39L273.98,119.45L273.96,119.50"/><path d="M273.94,109.05L277.95,109.23L278.10,109.33L279.78,111.45L277.36,111.34"/><path d="M279.78,111.45L279.67,111.87L277.26,111.76L274.78,121.48L274.75,121.71L274.77,121.94L274.84,122.10L276.45,124.34"/><path d="M274.85,112.20L274.82,112.05L275.02,111.25L275.12,111.11L275.30,111.05L275.78,111.08L276.20,111.09L276.34,111.16L276.37,111.31L276.17,112.11L276.07,112.25L275.89,112.31L275.00,112.27L274.85,112.20L274.74,112.05"/><path d="M274.77,110.95L274.58,111.73L274.54,111.71L274.71,111.90L274.58,111.73"/><path d="M274.54,111.71L274.53,111.88L274.57,111.93L274.62,111.93"/><path d="M274.57,111.93L274.74,112.06"/><path d="M274.91,111.10L274.74,110.91L274.81,110.76L274.86,110.72L275.05,110.70L275.19,110.91"/><path d="M275.03,110.83L274.91,110.77L274.86,110.72"/><path d="M274.81,110.76L274.85,110.81L274.87,110.93"/><path d="M275.08,110.74L275.78,110.77"/><path d="M275.30,111.95L275.51,112.03L275.75,111.97L275.94,111.81L275.99,111.59L275.90,111.41L275.68,111.33L275.44,111.39L275.25,111.56L275.20,111.77L275.30,111.95"/><path d="M275.73,111.35L275.69,111.49L275.51,111.65L275.26,111.71L275.51,112.03"/><path d="M275.58,111.35L275.33,111.55L275.25,111.56"/><path d="M275.26,111.71L275.22,111.69"/><path d="M276.32,111.13L276.34,111.16"/></g></g><g id="Actor_.41"><g style="stroke:#000000;stroke-width:0.123"><path d="M248.46,81.83L248.36,81.77L248.33,81.74L248.36,81.73"/><path d="M248.45,81.81L248.52,81.91L248.49,81.79L248.60,81.14L248.68,81.02L248.81,80.98L249.23,80.99L249.51,81.00L249.63,81.05L249.66,81.17L249.54,81.82L249.47,81.93L249.33,81.98L248.63,81.96L248.52,81.91"/><path d="M248.31,81.57L248.33,81.57L248.42,81.69L248.37,81.66L248.31,81.57L248.31,81.70L248.33,81.74"/><path d="M248.34,81.58L248.45,80.95"/><path d="M248.51,80.92L248.50,80.83L248.47,80.79L248.43,80.92L248.49,81.01L248.53,81.04"/><path d="M249.02,81.76L249.21,81.71L249.35,81.57L249.38,81.40L249.29,81.25L249.12,81.20L248.94,81.24L248.80,81.38L248.77,81.56L248.85,81.70L249.02,81.76L248.87,81.56L248.77,81.52"/><path d="M248.87,81.56L249.06,81.51L249.20,81.37L249.22,81.23"/><path d="M249.58,80.99L249.58,80.95L249.55,80.86L249.49,80.79L249.36,80.76L249.42,80.85L249.44,80.90L249.36,80.79L248.68,80.77"/><path d="M249.36,80.79L249.35,80.78L249.36,80.76"/><path d="M248.63,80.83L248.54,80.80L248.51,80.76L248.66,80.75L248.72,80.83L248.74,80.88"/><path d="M248.47,80.79L248.51,80.76"/><path d="M249.49,80.79L249.52,80.82L249.49,80.85"/><path d="M249.63,81.05L249.56,80.95"/></g></g><g id="Actor_21.0"><g style="stroke:#000000;stroke-width:0.123"><path d="M259.62,170.09L259.19,169.70L259.13,169.52L259.12,169.30L259.14,169.10L261.60,159.22L261.66,159.08L261.74,159.04L264.73,161.62L264.82,161.27L261.91,158.77L261.79,158.63L261.67,158.62L261.55,158.74L261.47,158.97L259.01,168.83L258.97,169.14L258.97,169.47L259.01,169.79L259.10,170.04L261.82,172.52L261.91,172.17L259.62,170.09"/><path d="M260.79,168.65L260.95,167.98L261.05,167.86L261.21,167.82L261.78,167.84L262.02,167.85L262.16,167.91L262.19,168.03L262.02,168.70L261.93,168.82L261.78,168.86L260.95,168.83L260.83,168.78L260.79,168.65"/><path d="M260.56,168.24L260.58,168.24L260.69,168.46L260.56,168.24L260.55,168.37L260.58,168.44L260.63,168.47"/><path d="M260.59,168.26L260.75,167.62"/><path d="M260.58,168.44L260.72,168.59"/><path d="M260.82,168.77L260.72,168.59"/><path d="M260.83,167.64L260.78,167.44L260.72,167.57L260.86,167.80"/><path d="M260.78,167.44L260.83,167.41L261.00,167.39L261.11,167.64"/><path d="M261.78,168.47L261.64,168.59L261.41,168.63L261.22,168.57L261.13,168.42L261.17,168.24L261.23,168.19L261.34,168.10L261.56,168.05L261.76,168.12L261.85,168.27L261.80,168.45L261.78,168.47"/><path d="M261.41,168.63L261.22,168.24L261.44,168.20L261.60,168.06"/><path d="M261.22,168.24L261.18,168.23"/><path d="M260.83,167.41L260.87,167.47L260.97,167.55"/><path d="M261.02,167.43L261.82,167.46L261.82,167.43L261.93,167.67L261.82,167.46"/><path d="M261.67,158.62L265.51,158.79L265.63,158.93L266.97,161.36L264.82,161.27"/><path d="M261.91,172.17L264.08,172.26L263.99,172.61L261.82,172.52"/><path d="M262.16,167.91L262.07,167.73"/><path d="M261.82,167.43L261.98,167.46L262.01,167.49L262.09,167.78"/><path d="M261.99,167.59L262.01,167.52L261.98,167.46"/><path d="M262.36,164.82L262.39,164.85L262.64,164.92L263.68,164.96L263.82,165.22L262.77,165.17L262.52,165.10L262.37,164.94L262.35,164.72L262.57,163.85L262.70,163.64L262.93,163.49L263.21,163.44L264.26,163.49L264.74,161.62"/><path d="M263.37,160.45L263.07,160.44L262.90,160.48L262.81,160.61L262.64,161.29L262.67,161.42L262.57,161.24L262.43,161.09L262.47,161.11"/><path d="M262.54,161.11L262.42,160.89L262.40,160.89L262.54,161.11"/><path d="M262.43,160.91L262.60,160.25"/><path d="M262.43,161.09L262.40,161.03L262.40,160.89"/><path d="M262.67,161.42L262.81,161.47L263.63,161.51L263.79,161.46L263.89,161.34L263.98,160.98"/><path d="M262.97,160.26L262.86,160.02L262.69,160.04L262.64,160.07L262.57,160.20L262.71,160.43"/><path d="M262.64,160.07L262.67,160.13L262.69,160.26"/><path d="M262.69,160.04L262.72,160.10L262.83,160.17"/><path d="M264.08,172.26L262.84,169.85L262.78,169.67L262.77,169.45L262.79,169.25L263.82,165.22"/><path d="M263.50,161.22L263.67,161.08L263.72,160.90L263.62,160.74L263.42,160.68L263.20,160.72L263.03,160.87L262.98,161.05L263.08,161.21L263.27,161.27L263.50,161.22"/><path d="M263.47,160.69L263.30,160.84L263.07,160.89L263.27,161.27"/><path d="M263.07,160.89L263.03,160.88"/><path d="M262.91,160.06L262.88,160.06"/><path d="M264.73,161.62L266.88,161.71L266.97,161.36"/></g></g><g id="Actor_19.0"><g style="stroke:#000000;stroke-width:0.123"><path d="M242.09,113.25L241.27,111.77L241.26,111.54L241.35,111.31L241.53,111.12L241.77,110.99L242.04,110.95L242.29,111.00L242.49,111.13L243.44,112.81L243.45,113.04L243.36,113.27L243.18,113.47L242.93,113.59L242.66,113.64L242.41,113.59L242.21,113.45L242.09,113.25L242.08,113.02L242.17,112.79L242.35,112.59L242.60,112.46L242.87,112.42L243.12,112.47L243.32,112.61L243.44,112.81"/><path d="M242.26,113.39L242.18,113.18L242.22,112.94L242.37,112.73L242.61,112.59L242.88,112.54L243.13,112.59L243.31,112.75L243.39,112.96L243.37,113.08L243.35,113.20L243.20,113.41L242.97,113.55L242.70,113.60L242.45,113.54L242.26,113.39"/></g></g><g id="Actor_.42"><g style="stroke:#000000;stroke-width:0.123"><path d="M247.22,86.49L247.33,85.85L247.40,85.74L247.54,85.69L247.89,85.70L248.23,85.71L248.35,85.76L248.38,85.88L248.26,86.52L248.19,86.64L248.06,86.68L247.36,86.66L247.25,86.61L247.22,86.49"/><path d="M247.19,86.52L247.10,86.47L247.07,86.44L247.10,86.43"/><path d="M247.18,86.51L247.25,86.61"/><path d="M247.49,86.27L247.53,86.09L247.66,85.96L247.85,85.91L248.02,85.97L248.10,86.11L248.07,86.28L247.93,86.42L247.75,86.47L247.58,86.41L247.49,86.27"/><path d="M247.15,86.40L247.10,86.36L247.04,86.27L247.06,86.27L247.15,86.40"/><path d="M247.24,85.63L247.23,85.54L247.20,85.50L247.16,85.63L247.22,85.72L247.26,85.75"/><path d="M247.47,85.59L247.45,85.54L247.39,85.46L247.24,85.47L247.27,85.51L247.36,85.54"/><path d="M247.07,86.28L247.18,85.66"/><path d="M247.07,86.44L247.04,86.40L247.04,86.27"/><path d="M247.41,85.48L248.08,85.50L248.16,85.61L248.14,85.56L248.08,85.47L248.08,85.49L248.08,85.50"/><path d="M247.24,85.47L247.20,85.50"/><path d="M247.75,86.47L247.60,86.26L247.79,86.21L247.92,86.07L247.95,85.94"/><path d="M247.60,86.26L247.50,86.22"/><path d="M248.31,85.70L248.30,85.66L248.27,85.57L248.24,85.53L248.22,85.50L248.24,85.53L248.22,85.57"/><path d="M248.35,85.76L248.28,85.67"/><path d="M248.22,85.50L248.08,85.47"/></g></g><g id="Actor_19.1"><g style="stroke:#000000;stroke-width:0.123"><path d="M52.33,109.62L52.30,109.86L52.36,110.01L52.39,110.09L52.56,110.30L52.80,110.43L53.07,110.48L53.33,110.44L53.54,110.31L53.67,110.12L53.69,109.88L53.61,109.65L53.43,109.44L53.19,109.31L52.92,109.26L52.66,109.30L52.45,109.43L52.33,109.62L53.17,108.17L53.29,107.97L53.50,107.84L53.76,107.80L54.03,107.85L54.26,107.99L54.44,108.19L54.52,108.42L54.50,108.65L53.67,110.12"/><path d="M52.54,110.24L52.77,110.39L53.04,110.45L53.30,110.40L53.49,110.25L53.58,110.04L53.55,109.80L53.41,109.58L53.18,109.43L52.91,109.37L52.65,109.42L52.46,109.57L52.37,109.78L52.40,110.02L52.54,110.24"/></g></g><g id="PMI14.0"><g><path style="stroke:#000000;stroke-width:0.280" d="M66.13,128.67L59.05,128.93"/></g><g><path style="fill:#000000" d="M59.02,127.92L59.10,129.92L57.06,128.99z"/></g><g><path style="fill:#ffffff" d="M66.15,131.16L84.73,131.16L84.73,125.52L66.15,125.52z"/><path style="stroke:#000000;stroke-width:0.280;stroke-opacity:0.98" d="M66.15,131.16L84.73,131.16L84.73,125.52L66.15,125.52z"/><text xml:space="preserve" fill="#000000" stroke-width="0" x="66.85" y="129.57" font-size="3.10" opacity="1.00" font-family="Microsoft Sans Serif">020104212</text></g></g><g id="PMI19.0"><g><path style="stroke:#000000;stroke-width:0.280" d="M61.38,109.83L55.14,109.82"/></g><g><path style="fill:#000000" d="M55.15,108.82L55.15,110.82L53.15,109.82z"/></g><g><path style="fill:#ffffff" d="M61.39,112.66L79.97,112.66L79.97,107.02L61.39,107.02z"/><path style="stroke:#000000;stroke-width:0.280;stroke-opacity:0.98" d="M61.39,112.66L79.97,112.66L79.97,107.02L61.39,107.02z"/><text xml:space="preserve" fill="#000000" stroke-width="0" x="62.10" y="111.08" font-size="3.10" opacity="1.00" font-family="Microsoft Sans Serif">020102111</text></g></g><g id="PMI26.0"><g><path style="stroke:#000000;stroke-width:0.280" d="M236.97,102.73L245.47,102.75"/></g><g><path style="fill:#000000" d="M245.42,103.75L245.43,101.75L247.42,102.75z"/></g><g><path style="fill:#ffffff" d="M218.35,105.53L236.93,105.53L236.93,99.89L218.35,99.89z"/><path style="stroke:#000000;stroke-width:0.280;stroke-opacity:0.98" d="M218.35,105.53L236.93,105.53L236.93,99.89L218.35,99.89z"/><text xml:space="preserve" fill="#000000" stroke-width="0" x="219.05" y="103.94" font-size="3.10" opacity="1.00" font-family="Microsoft Sans Serif">020004222</text></g></g><g id="PMI12.0"><g><path style="stroke:#000000;stroke-width:0.280" d="M59.00,86.71L51.68,86.60"/></g><g><path style="fill:#000000" d="M51.71,85.60L51.68,87.60L49.69,86.57z"/></g><g><path style="fill:#ffffff" d="M59.01,89.68L77.59,89.68L77.59,84.03L59.01,84.03z"/><path style="stroke:#000000;stroke-width:0.280;stroke-opacity:0.98" d="M59.01,89.68L77.59,89.68L77.59,84.03L59.01,84.03z"/><text xml:space="preserve" fill="#000000" stroke-width="0" x="59.72" y="88.09" font-size="3.10" opacity="1.00" font-family="Microsoft Sans Serif">020122141</text></g></g><g id="PMI4.0"><g><path style="stroke:#000000;stroke-width:0.280" d="M236.17,85.77L245.56,85.74"/></g><g><path style="fill:#000000" d="M245.52,86.75L245.51,84.75L247.51,85.75z"/></g><g><path style="fill:#ffffff" d="M217.55,88.62L236.13,88.62L236.13,82.98L217.55,82.98z"/><path style="stroke:#000000;stroke-width:0.280;stroke-opacity:0.98" d="M217.55,88.62L236.13,88.62L236.13,82.98L217.55,82.98z"/><text xml:space="preserve" fill="#000000" stroke-width="0" x="218.26" y="87.03" font-size="3.10" opacity="1.00" font-family="Microsoft Sans Serif">020122151</text></g></g><g id="PMI1.0"><g><path style="stroke:#000000;stroke-width:0.280" d="M258.00,87.12L251.96,87.02"/></g><g><path style="fill:#000000" d="M251.97,86.02L251.93,88.02L249.95,86.98z"/></g><g><path style="fill:#ffffff" d="M257.98,90.20L286.19,90.20L286.19,84.56L257.98,84.56z"/><path style="stroke:#000000;stroke-width:0.280;stroke-opacity:0.98" d="M257.98,90.20L286.19,90.20L286.19,84.56L257.98,84.56z"/><text xml:space="preserve" fill="#000000" stroke-width="0" x="258.69" y="88.62" font-size="3.45" opacity="1.00" font-family="Microsoft Sans Serif">334318-05103EB</text></g></g><g id="PMI21.0"><g><path style="stroke:#000000;stroke-width:0.280" d="M252.07,164.79L260.40,164.75"/></g><g><path style="fill:#000000" d="M260.36,165.73L260.35,163.73L262.35,164.72z"/></g><g><path style="fill:#ffffff" d="M232.88,167.63L252.02,167.63L252.02,161.98L232.88,161.98z"/><path style="stroke:#000000;stroke-width:0.280;stroke-opacity:0.98" d="M232.88,167.63L252.02,167.63L252.02,161.98L232.88,161.98z"/><text xml:space="preserve" fill="#000000" stroke-width="0" x="233.58" y="166.04" font-size="3.43" opacity="1.00" font-family="Microsoft Sans Serif">7000012N1</text></g></g><g id="PMI20.0"><g><path style="stroke:#000000;stroke-width:0.280" d="M264.49,112.38L273.05,112.29"/></g><g><path style="fill:#000000" d="M273.01,113.29L272.99,111.29L275.00,112.27z"/></g><g><path style="fill:#ffffff" d="M245.30,115.31L264.44,115.31L264.44,109.66L245.30,109.66z"/><path style="stroke:#000000;stroke-width:0.280;stroke-opacity:0.98" d="M245.30,115.31L264.44,115.31L264.44,109.66L245.30,109.66z"/><text xml:space="preserve" fill="#000000" stroke-width="0" x="246.00" y="113.72" font-size="3.43" opacity="1.00" font-family="Microsoft Sans Serif">7000012D2</text></g></g><g/><g id="paperID" visibility="hidden" opacity="0.00" transform="scale(0.000100)"><path style="stroke:#000000;stroke-width:0.500;fill:#e6e6e6;fill-rule:evenodd" d="M-2000.00,-2000.00L2297.00,-2000.00L2297.00,2210.00L-2000.00,2210.00zM0.00,0.00L297.00,0.00L297.00,210.00L0.00,210.00z"/><path style="fill:#000000;fill-opacity:0.118" d="M3.00,210.00L297.00,210.00L297.00,3.00L300.00,3.00L300.00,213.00L3.00,213.00z"/></g><g id="hotspot.0" onmouseover="ShowHotSpot(evt,'0')" onmouseout="HideHotSpot(evt,'0')" onmousemove="ShowToolTip(evt,'0',&quot;3dp570770 (I_Copy of ECU M8X1.25.3)&quot;)" opacity="0"><path style="fill:#00ff00;fill-rule:evenodd" d="M286.37,84.61L286.35,90.55L258.03,90.49L257.72,90.28L257.55,87.54L251.92,87.30L251.72,87.86L251.20,87.88L250.14,93.18L247.19,93.08L247.17,92.86L247.46,92.65L248.57,86.56L248.48,85.67L251.19,85.72L251.48,86.30L251.95,86.25L252.76,86.78L257.55,86.86L257.79,84.45L286.11,84.35zM239.25,134.61L239.54,134.40L240.53,128.23L243.02,128.23L243.00,130.18L242.14,134.86L239.27,134.83z"/></g><g id="hotspot.1" onmouseover="ShowHotSpot(evt,'1')" onmouseout="HideHotSpot(evt,'1')" onmousemove="ShowToolTip(evt,'1',&quot;A-0002060-01 (I_     ECU M8X1.25.153)&quot;)" opacity="0"><path style="fill:#00ff00;fill-rule:evenodd" d="M49.17,76.08L49.86,77.24L50.89,85.20L51.11,85.79L51.71,85.74L51.88,86.30L58.58,86.33L58.82,83.92L77.63,83.82L77.89,84.08L77.88,89.51L77.59,90.01L59.06,89.96L58.75,89.75L58.58,87.01L51.88,87.04L51.69,87.58L51.48,87.59L51.15,87.84L50.92,89.23L47.91,89.23L47.98,87.53L46.69,77.77L46.08,76.78L46.05,75.92z"/></g><g id="hotspot.2" onmouseover="ShowHotSpot(evt,'2')" onmouseout="HideHotSpot(evt,'2')" onmousemove="ShowToolTip(evt,'2',&quot;3dp503025 (ECU M6X1.25.1)&quot;)" opacity="0"><path style="fill:#00ff00;fill-rule:evenodd" d="M85.03,125.57L85.01,130.99L84.73,131.50L66.20,131.45L65.89,131.23L65.72,129.02L59.28,129.30L59.07,129.90L59.08,130.89L59.91,133.27L59.83,134.06L57.43,134.43L56.71,131.69L55.62,128.54L55.29,128.01L55.82,127.69L57.83,127.43L58.32,128.31L58.81,128.25L59.09,128.87L65.72,128.34L65.96,125.41L84.76,125.30zM237.20,131.50L237.97,126.47L240.65,126.39L240.35,127.79L239.58,133.10L237.18,133.01z"/></g><g id="hotspot.3" onmouseover="ShowHotSpot(evt,'3')" onmouseout="HideHotSpot(evt,'3')" onmousemove="ShowToolTip(evt,'3',&quot;A-0004831-01 (I_PAT LP TY CP LT.141)&quot;)" opacity="0"><path style="fill:#00ff00;fill-rule:evenodd" d="M80.27,107.07L80.26,112.50L79.97,113.00L61.44,112.95L61.13,112.74L60.96,110.26L55.33,110.30L55.10,110.61L54.62,110.58L54.08,110.24L52.47,110.28L52.47,109.29L53.45,107.86L54.10,107.85L54.37,108.13L54.53,109.05L55.14,108.99L55.32,109.55L60.96,109.58L61.20,106.91L80.01,106.81zM242.53,111.28L243.30,112.65L243.20,113.46L242.22,113.45L241.40,112.14L241.41,111.14L242.22,111.04z"/></g><g id="hotspot.4" onmouseover="ShowHotSpot(evt,'4')" onmouseout="HideHotSpot(evt,'4')" onmousemove="ShowToolTip(evt,'4',&quot;3dp2496067 (RHD)&quot;)" opacity="0"><path style="fill:#00ff00;fill-rule:evenodd" d="M278.16,109.48L279.79,111.35L279.76,111.67L277.28,111.87L274.97,120.92L275.00,122.42L276.04,123.74L276.32,124.63L273.66,124.54L270.72,122.20L270.74,120.92L272.60,113.53L272.62,112.65L264.84,112.64L264.69,115.14L264.41,115.64L245.35,115.59L245.04,115.38L245.11,109.56L264.44,109.45L264.71,109.71L264.84,111.96L272.86,111.94L273.64,109.29L277.64,109.20z"/></g><g id="hotspot.5" onmouseover="ShowHotSpot(evt,'5')" onmouseout="HideHotSpot(evt,'5')" onmousemove="ShowToolTip(evt,'5',&quot;3dp2496068 (RHD)&quot;)" opacity="0"><path style="fill:#00ff00;fill-rule:evenodd" d="M265.49,158.87L266.82,161.01L266.81,161.62L264.66,161.87L264.15,163.47L262.74,163.65L262.52,163.97L262.45,164.79L263.63,164.96L263.61,166.12L262.76,169.45L263.92,171.85L263.91,172.45L261.51,172.37L259.13,169.99L259.12,168.48L259.91,165.20L252.42,165.23L252.28,167.46L251.99,167.96L232.93,167.91L232.62,167.70L232.69,161.87L252.02,161.77L252.29,162.03L252.42,164.54L260.11,164.46L261.48,158.94L261.70,158.62z"/></g><g id="hotspot.6" onmouseover="ShowHotSpot(evt,'6')" onmouseout="HideHotSpot(evt,'6')" onmousemove="ShowToolTip(evt,'6',&quot;A-0011750-01 (I_PAT KHA CA TI.1)&quot;)" opacity="0"><path style="fill:#00ff00;fill-rule:evenodd" d="M237.23,99.94L237.36,102.44L245.36,102.41L246.61,101.55L247.78,101.54L248.58,102.06L248.58,104.04L248.27,104.57L247.81,104.46L247.51,104.18L246.11,104.01L245.37,103.16L237.36,103.13L237.21,105.36L236.93,105.87L218.40,105.82L218.08,105.60L218.16,99.78L236.96,99.67z"/></g><g id="hotspot.7" onmouseover="ShowHotSpot(evt,'7')" onmouseout="HideHotSpot(evt,'7')" onmousemove="ShowToolTip(evt,'7',&quot;A-0002060-01 (I_     ECU M8X1.25.150)&quot;)" opacity="0"><path style="fill:#00ff00;fill-rule:evenodd" d="M236.43,83.03L236.57,85.53L245.38,85.51L245.66,84.88L246.46,85.24L246.97,83.41L247.47,80.21L248.19,79.60L251.23,79.64L251.20,80.20L250.64,80.74L249.90,85.01L249.62,85.52L248.48,85.67L248.54,85.95L247.51,92.67L245.80,92.66L245.91,89.49L246.20,86.51L245.60,86.56L245.37,86.26L236.57,86.22L236.42,88.45L236.14,88.96L217.61,88.91L217.29,88.69L217.36,82.87L236.17,82.76z"/></g></g></svg>
