<?xml version="1.0" encoding="UTF-8" standalone="no"?>
<svg xmlns="http://www.w3.org/2000/svg" xmlns:xlink="http://www.w3.org/1999/xlink" width="297.000mm" height="210.000mm" viewBox="0.000000 0.000000 297.000000 210.000000" stroke-linejoin="round" stroke-linecap="round" fill="none" fill-rule="evenodd"><desc>Composer Export</desc><script type="text/ecmascript"><![CDATA[
if(typeof(top) != "undefined")
{
	top.ShowPaper = ShowPaper;
}
function ShowHotSpot(evt,hotspotid)
{
	var svgDocument = evt.target.ownerDocument;
	var strId = "hotspot."+hotspotid;
	var hotspot = svgDocument.getElementById(strId);
	if(hotspot)
		hotspot.setAttribute("opacity",".5");
}
function HideHotSpot(evt,hotspotid)
{
	var svgDocument = evt.target.ownerDocument;
	var strId = "hotspot."+hotspotid;
	var hotspot = svgDocument.getElementById(strId);
	if(hotspot)
		hotspot.setAttribute("opacity","0");

	var toolTip = svgDocument.getElementById('ToolTip');
	if(toolTip)
		toolTip.setAttribute("visibility","hidden");
}
function ShowToolTip(evt,hotspotid,strTooltip)
{
	if(strTooltip=="")
	return;

	// change text
	var svgDocument = evt.target.ownerDocument;
	var tiptext = svgDocument.getElementById('ToolTipText');
	if( !tiptext )
	return;
	tiptext.firstChild.nodeValue = " " + strTooltip + "  " ;

	// show tooltip before, else some refresh issue

	var toolTip = svgDocument.getElementById('ToolTip');
	if(!toolTip)
	return;

	toolTip.setAttribute("visibility","visible");
	toolTip.setAttribute("opacity",".95");

	// move tooltip
	// get viewbox

	var root = svgDocument.documentElement;
	var vbox = (root.getAttribute("viewBox")).split(' ');
	var x0 = parseFloat(vbox[0]);
	var y0 = parseFloat(vbox[1]);
	var vboxW = parseFloat(vbox[2]);
	var vboxH = parseFloat(vbox[3]);

	// get default width of svg

	var strW = root.getAttribute("width");
	var svgW = parseFloat(strW);
	if(strW.indexOf('mm') != -1)
	svgW *= 3.779;

	var strH = root.getAttribute("height");
	var svgH = parseFloat(strH);
	if(strH.indexOf('mm') != -1)
	svgH *= 3.779;  	// 96 dpi  -> 96/25.4 = 3.779

	// update the viewbox / width / height if svg is embedded in html with zoom fit all
	var realx0 = x0;
	var realy0 = y0;
	var realvboxW = vboxW;
	var realvboxH = vboxH;
	var realsvgW = svgW;
	var realsvgH = svgH;

	if ((typeof(top) == "undefined") || (typeof(top.svgctl1) != "undefined")) // embedded in html
	{
		// get window size in pxl

		svgW = window.innerWidth;
		svgH = window.innerHeight;

		// calculate real viewbox

		realsvgW = svgW;
		realsvgH = svgH;
		if((svgW / svgH) > (vboxW / vboxH))
		{
			realvboxW = (vboxH * svgW) / svgH;
			realvboxH = vboxH;
			realx0 = x0 - (realvboxW - vboxW)/2 ;
		}
		else
		{
			realvboxH = (vboxW * svgH) / svgW;
			realvboxW = vboxW;
			realy0 = y0 - (realvboxH - vboxH)/2 ;
		}
	}

	// get user zoom/pan

	var newScale = root.currentScale;
	var translation = root.currentTranslate;

	// transform pxl to user unit

	var xPos = (((evt.clientX+10- translation.x)/newScale) * realvboxW)/realsvgW  + realx0 ;
	var yPos = (((evt.clientY+5- translation.y)/newScale) * realvboxH)/ realsvgH  + realy0 ;
	var scaleForWidth = ( (1 / newScale) * realvboxH) / realsvgH;

	// move tooltip

	toolTip.setAttribute("transform", "translate(" + xPos + "," + yPos + ")" );

	// resize tooltip

	var fontsize = 12;
	tiptext.setAttribute("font-size",fontsize*scaleForWidth);
	tiptext.setAttribute("y", fontsize*scaleForWidth);
	var tipBG = svgDocument.getElementById('ToolTipBG');
	var outline = tiptext.getBBox();
	if(tipBG)
	{
		tipBG.setAttribute("stroke-width", 1*scaleForWidth);
		tipBG.setAttribute("width", Number(outline.width) );
		tipBG.setAttribute("height", Number(outline.height) + fontsize*.5*scaleForWidth );
	}
	var ToolTipShadow = svgDocument.getElementById('ToolTipShadow');
	if(ToolTipShadow)
	{
		ToolTipShadow.setAttribute("width", Number(outline.width) );
		ToolTipShadow.setAttribute("height", Number(outline.height) + fontsize*.5*scaleForWidth );
		ToolTipShadow.setAttribute("x", 3*scaleForWidth);
		ToolTipShadow.setAttribute("y", 3*scaleForWidth);
	}
}
function ShowPaper()
{
  var svgDocument = getDocument();
  var paper = svgDocument.getElementById("paperID");
  if(paper)
  {
    paper.setAttribute("transform","scale(1)");
    paper.setAttribute("opacity","1");
    paper.setAttribute("visibility","visible");
  }
  var svg = svgDocument.getRootElement();
  if(svg)
  {
    svg.setAttribute("width","307.000mm");
    svg.setAttribute("height","220.000mm");
    svg.setAttribute("viewBox","-5.000000 -5.000000 307.000000 220.000000");
  }
}
]]></script><defs/><g><path style="fill:#ffffff" d="M296.96,209.83L0.07,209.83L0.07,0.07L296.96,0.07z"/><path style="fill:#00e3e5" d="M186.25,67.59L188.98,70.89L191.49,75.16L193.25,79.43L194.51,83.69L195.01,87.21L195.01,94.82L194.26,99.10L192.99,102.85L191.03,107.19L189.82,106.67L184.46,104.03L176.18,101.02L168.64,99.01L165.94,98.40L165.17,96.97L164.96,96.85L162.27,96.74L161.77,96.99L161.10,98.33L161.10,100.28L161.86,101.52L163.21,101.63L164.57,101.54L165.11,101.33L165.53,100.75L165.96,100.68L167.22,100.94L168.48,101.18L170.49,101.69L171.13,102.05L172.24,102.19L172.89,102.55L176.92,103.79L184.46,106.55L189.59,109.03L189.50,109.38L188.48,110.64L186.24,112.93L183.48,115.19L179.19,117.43L146.72,127.64L146.57,128.74L145.68,129.62L143.71,130.40L143.72,134.40L142.18,135.20L142.17,135.46L142.82,135.89L144.05,137.42L144.02,140.51L143.89,140.62L143.81,138.16L143.52,137.67L143.13,137.63L142.29,136.65L142.03,138.26L141.35,138.53L141.22,135.44L141.51,135.23L141.44,130.64L142.28,130.49L142.28,129.12L137.57,130.59L113.64,138.00L109.06,139.19L102.35,139.19L99.34,138.44L96.08,137.18L93.85,135.90L90.07,133.14L89.66,132.61L90.04,132.65L90.80,133.17L93.31,134.42L95.33,134.92L98.52,134.93L101.52,133.91L104.39,132.01L106.88,129.73L109.88,125.70L113.83,118.85L116.67,112.15L118.18,107.88L119.93,101.10L120.69,96.33L121.10,90.97L190.26,79.26L189.74,75.90L188.23,71.39L186.50,68.35L185.97,67.87L185.83,67.31z"/><path style="fill:#00e3e5" d="M138.26,141.45L138.52,142.44L138.78,142.69L140.10,143.44L141.47,143.47L143.12,142.12L143.04,142.54L142.07,143.57L140.44,144.24L138.78,143.94L138.00,143.24L137.81,142.85L137.95,139.71L138.09,139.59z"/><path style="fill:#00fdff" d="M170.42,53.55L170.57,59.94L171.39,59.94L171.57,59.52L174.68,60.08L179.44,62.11L181.45,63.36L184.94,66.14L185.83,67.31L185.97,67.87L186.50,68.35L188.23,71.39L189.74,75.90L190.26,79.26L121.10,90.97L120.69,96.33L119.93,101.10L118.18,107.88L116.67,112.15L113.83,118.85L109.88,125.70L106.88,129.73L104.39,132.01L101.52,133.91L98.52,134.93L95.33,134.92L93.31,134.42L90.80,133.17L90.04,132.65L89.66,132.61L89.07,132.08L88.58,131.36L88.12,131.13L86.81,129.88L83.27,124.88L81.26,121.36L78.50,114.59L76.74,108.31L75.99,104.29L75.49,99.52L75.49,91.81L76.16,86.46L77.92,80.18L78.90,78.15L81.40,73.87L84.92,70.11L87.21,68.38L92.22,65.86L95.84,65.21L95.58,60.85L95.57,55.89L96.60,54.42L97.50,53.81L98.51,53.57L108.72,53.23L108.61,53.37L105.03,53.81L104.03,54.82L103.28,56.83L103.77,65.46L105.38,65.46L105.49,64.26L105.76,64.11L161.88,59.68L161.70,53.02L170.15,53.07z"/><path style="fill:#00fdff" d="M142.28,130.49L141.44,130.64L141.51,135.23L141.22,135.44L141.35,138.53L140.01,138.44L139.59,137.34L139.80,136.68L139.28,137.01L138.84,137.84L138.52,138.01L138.34,138.85L138.09,139.59L137.95,139.71L137.81,142.85L137.49,142.49L137.25,141.45L137.26,140.02L137.75,138.00L138.93,136.42L139.56,136.01L139.53,135.43L138.00,134.93L137.75,133.92L137.57,130.59L142.28,129.12z"/><path style="fill:#00fdff" d="M143.81,138.16L143.89,140.62L143.74,140.73L143.12,142.12L141.47,143.47L140.10,143.44L141.94,142.44L142.97,140.71L143.30,138.70L143.13,137.63L143.52,137.67z"/><path style="fill:#fe00ff" d="M161.10,98.33L161.77,96.99L162.27,96.74L164.96,96.85L164.29,97.00L163.38,97.60L162.85,98.58L162.86,100.78L163.21,101.63L161.86,101.52L161.10,100.28z"/><path style="fill:#e400e5" d="M165.94,98.40L164.03,98.21L163.60,99.08L163.60,100.02L165.96,100.68L165.53,100.75L165.11,101.33L164.57,101.54L163.21,101.63L162.86,100.78L162.85,98.58L163.38,97.60L164.29,97.00L164.96,96.85L165.17,96.97z"/><path style="fill:#e400e5" d="M172.24,102.19L171.13,102.05L170.49,101.69L171.41,101.77z"/><path style="fill:#e400e5" d="M174.91,102.79L186.21,106.05L189.82,106.67L191.03,107.19L194.03,109.28L195.25,110.82L197.28,114.31L197.52,116.09L197.28,119.19L196.69,120.86L194.50,125.20L191.24,129.98L187.25,134.77L183.23,139.04L180.34,142.18L178.72,144.32L178.08,146.04L179.02,146.20L180.86,146.22L182.94,145.78L184.63,145.21L188.79,143.39L188.65,144.21L182.70,146.80L180.11,147.47L177.45,147.46L176.68,146.97L176.55,146.14L178.33,143.43L186.37,134.90L190.23,129.97L193.00,125.71L195.00,121.43L195.51,119.43L195.55,116.74L195.27,115.07L193.28,112.04L191.74,110.31L189.59,109.03L184.46,106.55L176.92,103.79L172.89,102.55L172.24,102.19z"/><path style="fill:#00e3e5" d="M170.91,51.55L171.41,53.06L171.57,59.52L171.39,59.94L170.57,59.94L170.42,53.55L170.15,53.07L161.70,53.02L161.34,52.57L106.28,55.56L105.79,55.82L105.10,56.64L105.12,59.59L105.49,64.26L105.38,65.46L103.77,65.46L103.28,56.83L104.03,54.82L105.03,53.81L108.61,53.37L108.72,53.23L113.89,53.12L113.99,52.98L119.26,52.78L119.53,52.68L124.29,52.54L124.79,52.41L129.56,52.29L130.06,52.16L134.83,52.04L135.34,51.91L140.10,51.79L140.61,51.66L145.13,51.54L145.87,51.41L150.41,51.29L151.15,51.16L155.68,51.03L156.42,50.91L160.95,50.78L162.95,50.66L169.66,50.54z"/><path style="fill:#00e3e5" d="M88.58,131.36L89.07,132.08L88.29,131.64L88.12,131.13z"/><path style="fill:#00e3e5" d="M139.59,137.34L138.84,137.84L139.28,137.01L139.80,136.68z"/><path style="fill:#00e3e5" d="M138.82,138.07L138.34,138.85L138.52,138.01L138.84,137.84z"/><path style="fill:#00e3e5" d="M143.80,141.29L143.12,142.12L143.74,140.73L143.89,140.62z"/><path style="fill:#00fdff" d="M113.99,52.98L114.10,52.83L119.26,52.78z"/><path style="fill:#00fdff" d="M113.89,53.12L108.72,53.23L108.83,53.09L113.99,52.98z"/><path style="fill:#fe00ff" d="M165.94,98.40L168.64,99.01L176.18,101.02L184.46,104.03L189.82,106.67L186.21,106.05L174.91,102.79L172.24,102.19L171.41,101.77L170.49,101.69L168.48,101.18L167.22,100.94L165.96,100.68L163.60,100.02L163.60,99.08L164.03,98.21z"/><path style="fill:#fe00ff" d="M188.79,143.39L184.63,145.21L182.94,145.78L180.86,146.22L179.02,146.20L182.88,144.97L187.64,142.94L188.51,142.91z"/><path style="fill:#fe00ff" d="M195.51,119.43L195.00,121.43L193.00,125.71L190.23,129.97L186.37,134.90L178.33,143.43L176.55,146.14L176.67,144.53L177.71,142.81L179.71,140.29L184.96,134.75L188.98,129.98L192.75,124.46L194.75,120.17L195.55,116.74z"/><path style="fill:#ffffff" d="M161.70,53.02L161.88,59.68L105.76,64.11L105.49,64.26L105.12,59.59L105.10,56.64L105.79,55.82L106.28,55.56L161.34,52.57z"/><path style="fill:#ffffff" d="M143.13,137.63L143.30,138.70L142.97,140.71L141.94,142.44L140.10,143.44L138.78,142.69L138.52,142.44L138.26,141.45L138.09,139.59L138.34,138.85L138.82,138.07L138.84,137.84L139.59,137.34L140.01,138.44L141.35,138.53L142.03,138.26L142.29,136.65z"/><g id="Actor_.0"><g style="stroke:#000000;stroke-width:0.025"><path d="M164.98,100.65L164.61,100.00L164.72,99.10L165.23,98.49L165.85,98.52"/><path d="M177.14,147.29L176.98,146.58L177.21,145.74L177.26,145.58L177.97,144.29L179.14,142.75L180.72,140.98L180.21,140.50L180.07,139.93"/><path d="M178.04,146.02L178.07,145.92"/><path d="M178.09,146.05L178.09,146.03"/><path d="M180.00,147.58L180.01,147.57"/><path d="M179.78,146.04L180.25,145.98L181.78,145.53L183.56,144.84L183.12,144.90"/><path d="M179.76,142.79L180.09,142.42"/><path d="M183.67,136.11L183.37,136.45L183.39,136.56L183.52,137.03L184.04,137.51L180.72,140.98L181.30,141.07"/><path d="M180.37,139.59L180.39,139.59"/><path d="M183.97,146.28L184.17,145.82L184.00,145.22L183.56,144.84L188.32,142.81"/><path d="M184.62,137.60L184.04,137.51L186.66,134.67L189.02,131.89L191.09,129.20L192.86,126.60L194.29,124.13L195.36,121.81L196.02,119.65L196.26,117.69L196.04,115.97L195.34,114.49L193.34,111.73L192.63,111.25"/><path d="M186.03,133.52L185.98,133.59"/><path d="M194.61,110.01L194.75,110.86L194.22,111.58L193.34,111.73L192.51,110.91L190.93,109.83"/><path d="M194.65,114.02L195.34,114.49L196.18,114.35L196.68,113.67L196.54,112.85"/><path d="M195.37,115.50L195.34,115.45"/></g><g style="stroke:#000000;stroke-width:0.247"><path d="M164.72,98.33L168.81,99.10L172.16,99.93L175.75,100.97L179.41,102.18L182.96,103.50L186.23,104.87L189.06,106.21L191.34,107.47L192.31,108.10L193.76,109.14L194.61,110.01L196.54,112.85L197.24,114.39L197.56,116.97L197.29,118.99L196.58,121.20L195.47,123.59L193.99,126.12L192.16,128.78L190.03,131.53L187.27,134.74L184.62,137.61L181.30,141.07L180.09,142.42L179.00,143.85L178.31,145.07L178.07,145.92L178.09,146.03L179.02,146.15L179.78,146.04L181.28,145.61L183.12,144.90L187.87,142.86L188.32,142.81L188.75,143.18L188.92,143.77L188.72,144.22L183.97,146.28L182.13,147.02L180.54,147.49L180.00,147.58L178.68,147.78L177.74,147.69L176.62,146.89L176.46,146.18L176.38,145.54L176.64,144.53L177.35,143.24L178.50,141.69L180.37,139.59L183.67,136.11L186.03,133.52L188.31,130.82L190.39,128.09L192.14,125.47L193.56,122.98L194.61,120.63L195.26,118.45L195.48,116.47L195.34,115.45L194.65,114.02L192.63,111.25L191.83,110.45L190.93,109.83L189.13,108.81L186.67,107.61L183.81,106.36L180.66,105.13L177.33,103.95L173.97,102.87L170.71,101.94L167.68,101.20L163.90,100.47"/></g></g><g id="Actor_.1"><g style="stroke:#000000;stroke-width:0.025"><path d="M95.29,57.75L103.20,57.80L103.79,65.68"/><path d="M96.05,54.92L104.01,54.84L103.36,56.21L103.22,57.80L104.93,57.70"/><path d="M98.33,53.65L106.33,53.52L106.48,55.56"/><path d="M99.06,64.81L99.01,64.81"/><path d="M104.01,54.84L105.05,53.90L106.33,53.52L169.21,50.50L169.24,52.15L169.66,52.25L170.02,52.59L170.27,53.11L170.36,53.73L170.47,60.04"/><path d="M106.21,53.37L107.35,53.30L107.35,53.36"/><path d="M107.35,53.30L111.43,53.17L106.21,53.38"/><path d="M109.33,53.22L109.34,53.29"/><path d="M111.02,53.17L111.03,53.21"/><path d="M111.44,53.18L111.44,53.19"/><path d="M158.77,50.89L158.11,50.90L160.35,50.85"/><path d="M158.77,50.85L160.33,50.79L160.33,50.84"/><path d="M160.35,50.84L162.57,50.74L161.90,50.78"/><path d="M160.33,50.79L161.90,50.74"/><path d="M161.41,52.72L170.02,52.59"/><path d="M161.26,52.58L169.24,52.15"/><path d="M161.76,53.83L170.36,53.73L171.45,53.66"/></g><g style="stroke:#000000;stroke-width:0.247"><path d="M168.15,59.57L170.47,60.04L171.55,59.95L171.45,53.66L171.27,52.42L170.78,51.38L170.06,50.71L169.21,50.50L160.59,50.70L98.33,53.65L97.08,54.01L96.05,54.92L95.42,56.23L95.29,57.75L95.88,65.19"/><path d="M100.97,64.95L99.70,64.78L99.06,64.81"/><path d="M101.61,65.04L103.79,65.68L105.49,65.54L104.93,57.70L105.00,56.91L105.32,56.23L105.50,56.06L105.84,55.75L106.48,55.56L161.26,52.58L161.41,52.72L161.66,53.22L161.76,53.83L161.90,59.68"/><path d="M167.46,59.52L166.10,59.40L165.34,59.45"/></g></g><g id="Actor_.2"><g style="stroke:#000000;stroke-width:0.025"><path d="M102.50,121.82L103.18,118.20L103.48,114.13L103.40,109.79L102.91,105.29L102.04,100.77L100.82,96.39L99.26,92.21L97.43,88.44L95.40,85.15L93.22,82.44L89.96,90.48L87.43,98.27L85.64,105.72L90.46,111.10L96.08,116.49L102.50,121.82L101.47,124.96L100.14,127.54L98.54,129.49L96.74,130.78L94.78,131.41L92.71,131.39L90.60,130.73L88.49,129.49L86.43,127.69L84.46,125.41L82.61,122.70L80.93,119.62L79.44,116.24L78.17,112.64L77.14,108.88L76.38,105.03L75.89,101.17L75.69,97.37L75.78,93.71L76.18,90.27L78.51,95.26L81.66,100.42L85.64,105.72L84.57,112.77L84.19,119.35L84.46,125.41L85.00,127.44"/><path d="M76.18,90.27L76.87,87.12L77.86,84.34L79.12,81.99L80.64,80.15L82.40,78.88L84.36,78.24L86.47,78.26L88.70,78.96L90.91,80.33L93.22,82.44L94.93,79.39L97.22,76.56L99.96,74.10L103.00,72.15L106.16,70.83L109.26,70.17L179.08,63.20L176.07,61.33L172.97,60.06L171.54,59.75"/><path d="M94.83,65.41L94.87,65.39"/><path d="M97.54,64.87L100.37,65.07L103.31,66.02L106.27,67.70L109.26,70.17L112.14,73.35L114.87,77.19L117.36,81.63L119.55,86.56L121.36,91.80L122.81,97.42L123.79,103.07L124.30,108.68L124.33,114.10L123.90,119.22L123.02,123.90L121.73,128.05L120.07,131.60L118.11,134.45L117.14,135.41L115.85,136.67L113.40,138.15"/><path d="M138.20,143.58L137.53,142.50L137.12,140.97"/><path d="M139.76,138.38L139.70,137.11L139.88,136.88L139.91,136.56L139.66,135.97L138.64,136.89L137.84,138.15L137.35,139.60L137.24,141.09L137.92,141.07L138.09,140.95"/><path d="M146.58,127.75L137.28,130.67"/><path d="M137.54,130.71L139.83,130.83L141.80,130.70L143.57,130.40"/><path d="M138.88,142.99L138.57,142.49"/><path d="M139.66,135.97L139.61,135.41L139.74,135.34L141.98,135.22"/><path d="M140.56,143.29L140.84,143.26L141.90,142.63L142.73,141.59L143.25,140.30L143.39,138.94L143.28,138.83"/><path d="M142.04,136.61L141.99,135.54"/><path d="M144.23,138.80L144.07,138.92L143.39,138.94L143.11,137.70L142.80,137.26"/><path d="M188.61,108.56L186.55,111.70L184.25,114.20L181.71,116.17L178.98,117.59"/><path d="M189.58,106.50L190.17,105.28L191.39,101.47L192.16,97.36L192.47,93.05L192.28,88.63L191.62,84.21L190.48,79.89L188.89,75.79L186.92,72.01L184.56,68.57L181.93,65.63L179.08,63.20L180.80,63.29L182.19,63.92"/></g><g style="stroke:#000000;stroke-width:0.247"><path d="M189.67,109.12L189.21,109.81L185.84,113.41L183.33,115.36L178.98,117.59L146.58,127.75L146.61,128.79L146.16,129.38L145.14,129.94L143.63,130.39L143.73,134.45L143.14,134.88L141.98,135.22L141.99,135.54L142.40,135.63L143.27,136.31L143.99,137.52L144.23,138.80L144.10,140.28L143.59,141.73L142.76,142.96L141.71,143.84L140.56,144.26L139.18,144.21L138.20,143.58L137.40,142.33L137.12,140.97L137.25,139.46L137.77,138.00L138.62,136.75L139.62,135.93L139.60,135.41L138.31,135.10L137.75,134.72L137.54,130.71L137.28,130.67L110.81,138.92L107.94,139.43L105.30,139.50L102.43,139.27L99.85,138.69L97.23,137.76L94.79,136.63L90.40,133.53L88.22,131.50L86.15,129.04L83.21,124.83L81.55,121.92L80.05,118.74L78.73,115.36L77.60,111.82L76.68,108.16L75.99,104.45L75.52,100.73L75.29,97.06L75.31,93.49L75.58,90.08L76.11,86.87L77.35,81.82L78.46,78.95L79.82,76.47L81.17,74.26L82.90,72.07L87.03,68.48L92.00,66.00L97.47,64.88L98.60,64.78"/><path d="M164.90,59.44L105.40,64.24"/><path d="M138.57,142.49L138.33,142.10L138.09,140.95L138.19,139.73L138.59,138.55L139.24,137.51L139.68,137.08L139.76,138.38L140.14,138.58L141.55,138.56L142.04,138.35L142.12,138.09L142.04,136.61L142.39,136.74L143.06,137.70L143.28,138.83L143.17,140.00L142.74,141.30L142.07,142.30L141.15,143.08L140.56,143.29L139.90,143.36L138.91,142.95L138.57,142.49"/><path d="M171.54,59.52L174.76,60.20L177.83,61.46L179.32,62.15L182.19,63.92L184.92,66.22L188.13,69.84L190.23,72.88L192.01,76.27L193.42,79.91L194.44,83.75L195.03,87.68L195.18,91.61L194.90,95.45L194.19,99.12L192.68,103.69L190.93,107.25"/></g></g><g id="Actor_.3"><g style="stroke:#000000;stroke-width:0.025"><path d="M161.80,101.60L161.01,100.16"/><path d="M160.80,99.45L162.25,99.63L162.83,98.45L162.84,98.45L162.66,99.66L162.92,100.77L163.56,101.49L164.39,101.63L165.19,101.15L165.42,100.74"/><path d="M163.25,101.79L162.72,100.38L162.25,99.63"/><path d="M162.83,96.74L161.71,96.96L163.16,97.13L162.83,98.45"/><path d="M163.74,100.19L163.75,100.23L163.76,100.23"/><path d="M163.66,98.83L163.72,98.61L164.05,98.35"/><path d="M163.54,99.58L163.50,99.46L163.57,99.16"/><path d="M162.84,98.45L163.41,97.48L164.22,97.00L165.05,97.15L165.67,97.88L165.82,98.52"/><path d="M163.16,97.13L164.55,96.94L165.05,96.82"/><path d="M164.66,98.33L164.28,98.17L164.12,98.30"/><path d="M165.13,101.45L165.13,101.45"/></g><g style="stroke:#000000;stroke-width:0.247"><path d="M165.47,100.75L165.13,101.45L164.39,101.63L164.02,101.70L163.25,101.79L161.80,101.60L161.18,100.55L161.01,100.16L160.80,99.45L161.02,98.52"/><path d="M162.41,96.81L161.71,96.96L161.22,97.96"/><path d="M165.88,98.53L165.67,97.88L165.52,97.57L165.05,96.82L163.61,96.65L162.83,96.74L162.70,96.76"/></g></g><g id="PMI.0"><g><path style="stroke:#000000;stroke-width:0.280" d="M139.82,153.03L139.53,146.17"/></g><g><path style="fill:#000000" d="M140.53,146.12L138.53,146.20L139.45,144.16z"/></g><g><path style="fill:#ffffff" d="M132.08,157.53L147.75,157.53L147.75,153.02L132.08,153.02z"/><path style="stroke:#00ff00;stroke-width:0.350;stroke-opacity:0.98" d="M132.08,157.53L147.75,157.53L147.75,153.02L132.08,153.02z"/><text xml:space="preserve" fill="#000000" stroke-width="0" x="133.13" y="156.26" font-size="2.75" opacity="1.00" font-family="MS Shell Dlg">3513D-040</text></g></g><g id="PMI.1"><g><path style="stroke:#000000;stroke-width:0.280" d="M211.37,120.25L198.03,119.73"/></g><g><path style="fill:#000000" d="M198.06,118.73L197.98,120.73L196.02,119.65z"/></g><g><path style="fill:#ffffff" d="M211.35,122.92L232.53,122.92L232.53,118.40L211.35,118.40z"/><path style="stroke:#00ff00;stroke-width:0.350;stroke-opacity:0.98" d="M211.35,122.92L232.53,122.92L232.53,118.40L211.35,118.40z"/><text xml:space="preserve" fill="#000000" stroke-width="0" x="211.92" y="121.65" font-size="2.75" opacity="1.00" font-family="MS Shell Dlg">35CY016-04010</text></g></g><g id="PMI.2"><g><path style="stroke:#000000;stroke-width:0.280" d="M129.84,43.90L129.73,50.64"/></g><g><path style="fill:#000000" d="M128.73,50.63L130.73,50.66L129.70,52.65z"/></g><g><path style="fill:#ffffff" d="M122.04,43.91L137.71,43.91L137.71,39.40L122.04,39.40z"/><path style="stroke:#00ff00;stroke-width:0.350;stroke-opacity:0.98" d="M122.04,43.91L137.71,43.91L137.71,39.40L122.04,39.40z"/><text xml:space="preserve" fill="#000000" stroke-width="0" x="122.99" y="42.64" font-size="2.75" opacity="1.00" font-family="MS Shell Dlg">235700341</text></g></g><g/><g id="paperID" visibility="hidden" opacity="0.00" transform="scale(0.000100)"><path style="stroke:#000000;stroke-width:0.500;fill:#e6e6e6;fill-rule:evenodd" d="M-2000.00,-2000.00L2297.00,-2000.00L2297.00,2210.00L-2000.00,2210.00zM0.00,0.00L297.00,0.00L297.00,210.00L0.00,210.00z"/><path style="fill:#000000;fill-opacity:0.118" d="M3.00,210.00L297.00,210.00L297.00,3.00L300.00,3.00L300.00,213.00L3.00,213.00z"/></g></g></svg>
