<?xml version="1.0" encoding="UTF-8" standalone="no"?>
<svg xmlns="http://www.w3.org/2000/svg" xmlns:xlink="http://www.w3.org/1999/xlink" width="297.000mm" height="210.000mm" viewBox="0.000000 0.000000 297.000000 210.000000" stroke-linejoin="round" stroke-linecap="round" fill="none" fill-rule="evenodd"><desc>Composer Export</desc><script type="text/ecmascript"><![CDATA[
if(typeof(top) != "undefined")
{
	top.ShowPaper = ShowPaper;
}
function ShowHotSpot(evt,hotspotid)
{
	var svgDocument = evt.target.ownerDocument;
	var strId = "hotspot."+hotspotid;
	var hotspot = svgDocument.getElementById(strId);
	if(hotspot)
		hotspot.setAttribute("opacity",".5");
}
function HideHotSpot(evt,hotspotid)
{
	var svgDocument = evt.target.ownerDocument;
	var strId = "hotspot."+hotspotid;
	var hotspot = svgDocument.getElementById(strId);
	if(hotspot)
		hotspot.setAttribute("opacity","0");

	var toolTip = svgDocument.getElementById('ToolTip');
	if(toolTip)
		toolTip.setAttribute("visibility","hidden");
}
function ShowToolTip(evt,hotspotid,strTooltip)
{
	if(strTooltip=="")
	return;

	// change text
	var svgDocument = evt.target.ownerDocument;
	var tiptext = svgDocument.getElementById('ToolTipText');
	if( !tiptext )
	return;
	tiptext.firstChild.nodeValue = " " + strTooltip + "  " ;

	// show tooltip before, else some refresh issue

	var toolTip = svgDocument.getElementById('ToolTip');
	if(!toolTip)
	return;

	toolTip.setAttribute("visibility","visible");
	toolTip.setAttribute("opacity",".95");

	// move tooltip
	// get viewbox

	var root = svgDocument.documentElement;
	var vbox = (root.getAttribute("viewBox")).split(' ');
	var x0 = parseFloat(vbox[0]);
	var y0 = parseFloat(vbox[1]);
	var vboxW = parseFloat(vbox[2]);
	var vboxH = parseFloat(vbox[3]);

	// get default width of svg

	var strW = root.getAttribute("width");
	var svgW = parseFloat(strW);
	if(strW.indexOf('mm') != -1)
	svgW *= 3.779;

	var strH = root.getAttribute("height");
	var svgH = parseFloat(strH);
	if(strH.indexOf('mm') != -1)
	svgH *= 3.779;  	// 96 dpi  -> 96/25.4 = 3.779

	// update the viewbox / width / height if svg is embedded in html with zoom fit all
	var realx0 = x0;
	var realy0 = y0;
	var realvboxW = vboxW;
	var realvboxH = vboxH;
	var realsvgW = svgW;
	var realsvgH = svgH;

	if ((typeof(top) == "undefined") || (typeof(top.svgctl1) != "undefined")) // embedded in html
	{
		// get window size in pxl

		svgW = window.innerWidth;
		svgH = window.innerHeight;

		// calculate real viewbox

		realsvgW = svgW;
		realsvgH = svgH;
		if((svgW / svgH) > (vboxW / vboxH))
		{
			realvboxW = (vboxH * svgW) / svgH;
			realvboxH = vboxH;
			realx0 = x0 - (realvboxW - vboxW)/2 ;
		}
		else
		{
			realvboxH = (vboxW * svgH) / svgW;
			realvboxW = vboxW;
			realy0 = y0 - (realvboxH - vboxH)/2 ;
		}
	}

	// get user zoom/pan

	var newScale = root.currentScale;
	var translation = root.currentTranslate;

	// transform pxl to user unit

	var xPos = (((evt.clientX+10- translation.x)/newScale) * realvboxW)/realsvgW  + realx0 ;
	var yPos = (((evt.clientY+5- translation.y)/newScale) * realvboxH)/ realsvgH  + realy0 ;
	var scaleForWidth = ( (1 / newScale) * realvboxH) / realsvgH;

	// move tooltip

	toolTip.setAttribute("transform", "translate(" + xPos + "," + yPos + ")" );

	// resize tooltip

	var fontsize = 12;
	tiptext.setAttribute("font-size",fontsize*scaleForWidth);
	tiptext.setAttribute("y", fontsize*scaleForWidth);
	var tipBG = svgDocument.getElementById('ToolTipBG');
	var outline = tiptext.getBBox();
	if(tipBG)
	{
		tipBG.setAttribute("stroke-width", 1*scaleForWidth);
		tipBG.setAttribute("width", Number(outline.width) );
		tipBG.setAttribute("height", Number(outline.height) + fontsize*.5*scaleForWidth );
	}
	var ToolTipShadow = svgDocument.getElementById('ToolTipShadow');
	if(ToolTipShadow)
	{
		ToolTipShadow.setAttribute("width", Number(outline.width) );
		ToolTipShadow.setAttribute("height", Number(outline.height) + fontsize*.5*scaleForWidth );
		ToolTipShadow.setAttribute("x", 3*scaleForWidth);
		ToolTipShadow.setAttribute("y", 3*scaleForWidth);
	}
}
function ShowPaper()
{
  var svgDocument = getDocument();
  var paper = svgDocument.getElementById("paperID");
  if(paper)
  {
    paper.setAttribute("transform","scale(1)");
    paper.setAttribute("opacity","1");
    paper.setAttribute("visibility","visible");
  }
  var svg = svgDocument.getRootElement();
  if(svg)
  {
    svg.setAttribute("width","307.000mm");
    svg.setAttribute("height","220.000mm");
    svg.setAttribute("viewBox","-5.000000 -5.000000 307.000000 220.000000");
  }
}
]]></script><defs/><g><path style="fill:#ffffff" d="M296.94,210.06L0.07,210.06L0.07,0.07L296.94,0.07z"/><path style="fill:#00fdff" d="M125.96,58.16L126.23,58.39L127.22,59.68L128.06,60.18L124.60,60.45L119.28,60.44L119.36,61.48L120.36,65.02L120.73,65.62L125.18,65.75L126.96,66.25L128.49,68.00L129.98,70.80L132.02,77.10L132.26,77.37L133.00,79.65L134.02,79.90L135.07,80.37L135.29,82.17L136.29,87.73L137.05,93.28L137.31,101.36L137.81,106.92L137.85,115.93L124.33,116.25L124.33,117.87L137.59,117.94L137.56,130.49L137.33,131.32L124.10,131.67L123.90,132.24L123.34,136.72L123.07,141.36L136.34,140.93L133.89,142.02L129.14,143.28L127.71,151.45L126.42,156.49L126.39,157.24L126.69,157.46L122.31,157.52L123.08,152.89L123.92,149.18L123.93,147.57L122.56,147.57L119.28,164.01L120.33,164.02L121.08,163.51L123.67,163.49L129.26,164.17L129.26,164.36L128.38,164.77L128.90,166.60L129.73,166.78L130.00,167.96L119.30,167.79L118.04,168.04L117.11,169.89L116.28,172.35L115.42,173.22L114.67,172.96L114.58,172.56L114.00,172.58L113.87,172.95L113.06,172.84L111.58,170.03L110.79,169.05L110.28,167.54L109.87,165.47L110.96,165.55L111.71,165.25L114.48,164.99L115.59,164.08L117.02,161.22L118.36,157.25L119.88,150.19L121.14,140.59L121.92,130.66L115.24,130.65L113.82,142.61L112.30,151.20L110.54,158.27L108.94,162.23L107.42,164.50L105.83,164.71L104.97,163.75L103.46,160.72L102.19,155.67L101.19,149.10L100.43,142.02L99.93,134.70L99.68,129.14L99.68,105.48L100.35,92.27L101.62,80.65L103.19,72.38L104.72,67.85L106.14,65.98L107.41,64.98L110.03,64.82L110.68,63.45L111.05,62.81L111.71,60.44L112.72,58.90L113.47,58.94L114.24,57.65L114.84,57.43z"/><path style="fill:#00e3e5" d="M107.77,98.53L107.77,99.69L107.51,100.18L105.40,103.38L103.99,105.25L102.61,106.18L102.61,106.75L103.13,106.69L103.73,106.47L103.97,106.73L104.49,105.75L107.00,103.21L107.92,102.09L108.03,104.24L105.13,107.41L102.81,108.84L102.72,108.43L101.35,108.42L100.69,108.80L100.61,107.94L101.69,107.04L101.46,106.19L100.85,106.24L100.92,105.76L101.97,104.75L102.20,103.22L102.66,102.63L102.43,102.24L103.21,101.66L103.49,101.96L106.24,97.15L107.27,95.04L107.27,96.66L104.47,101.91L104.14,101.91L103.72,102.96L102.44,104.25L102.44,104.73L104.37,103.11L107.54,98.30z"/><path style="fill:#00e3e5" d="M132.26,150.94L130.59,157.04L128.87,157.18L130.78,157.36L130.39,158.93L129.71,160.53L129.52,162.57L129.26,162.91L128.63,162.98L129.24,163.16L129.26,164.17L123.67,163.49L121.08,163.51L120.33,164.02L119.28,164.01L122.56,147.57L123.93,147.57L123.92,149.18L123.08,152.89L122.31,157.52L126.69,157.46L126.39,157.24L126.42,156.49L127.71,151.45L129.14,143.28L133.89,142.02z"/><path style="fill:#00fdff" d="M130.78,157.36L128.87,157.18L130.59,157.04z"/><path style="fill:#00fdff" d="M129.24,163.16L128.63,162.98L129.26,162.91z"/><path style="fill:#7f0080" d="M170.15,67.26L172.95,69.00L175.47,71.79L177.49,75.07L178.98,78.12L180.75,82.67L182.51,88.74L183.51,94.30L183.79,94.78L185.04,105.15L184.97,108.49L185.27,108.71L185.31,122.17L185.02,122.65L185.04,125.69L184.57,129.82L181.92,129.89L180.99,136.31L180.99,137.78L180.69,138.00L179.74,142.62L177.94,148.67L177.99,149.43L177.60,149.82L176.96,151.45L173.93,157.77L171.43,160.57L169.36,162.54L167.46,163.35L166.19,163.61L164.58,163.50L162.31,162.73L161.07,161.96L159.29,160.45L156.75,156.93L156.27,155.59L156.26,154.88L156.08,155.50L155.49,154.65L153.72,150.62L151.94,145.32L150.19,137.73L149.18,131.17L149.21,129.65L148.91,129.16L148.42,123.34L148.43,119.31L148.17,116.52L148.17,113.31L148.42,106.24L149.10,98.84L150.60,89.74L150.95,88.74L152.19,83.50L154.23,77.96L156.25,73.91L158.79,70.14L160.79,68.35L162.48,67.27L163.99,66.76L167.61,66.76z"/><path style="fill:#720073" d="M169.19,68.40L168.96,69.71L169.13,68.25z"/><path style="fill:#720073" d="M173.43,74.68L173.01,75.52L173.15,74.40L173.51,73.74z"/><path style="fill:#720073" d="M167.87,76.97L167.81,75.87L167.95,75.77z"/><path style="fill:#720073" d="M167.69,77.50L167.45,78.55L167.61,77.34z"/><path style="fill:#720073" d="M177.29,82.81L176.97,83.29L176.97,82.74L177.24,82.67z"/><path style="fill:#720073" d="M162.15,85.86L162.26,85.70L162.82,85.68z"/><path style="fill:#720073" d="M166.35,86.06L166.29,84.71L166.44,84.61z"/><path style="fill:#720073" d="M165.83,87.79L165.51,87.70L165.88,87.50z"/><path style="fill:#720073" d="M161.03,88.57L160.71,88.49L161.09,87.99z"/><path style="fill:#720073" d="M167.36,88.82L167.03,88.82L167.03,88.48L167.36,88.48z"/><path style="fill:#720073" d="M168.87,89.59L168.81,89.04L168.96,88.91z"/><path style="fill:#720073" d="M168.63,90.59L168.29,90.59L168.29,90.25L168.63,90.25z"/><path style="fill:#720073" d="M173.25,90.64L172.93,91.12L172.93,90.57L173.20,90.50z"/><path style="fill:#720073" d="M158.78,91.60L158.44,91.60L158.44,91.26L158.78,91.26z"/><path style="fill:#720073" d="M169.89,92.50L169.57,92.59L169.65,92.26z"/><path style="fill:#720073" d="M162.85,96.30L160.95,96.55L159.30,97.92L157.09,101.53L157.51,99.67L158.79,97.17L160.27,95.87L162.07,95.79z"/><path style="fill:#720073" d="M156.23,97.91L155.91,97.84L156.29,97.33z"/><path style="fill:#720073" d="M172.42,100.69L172.08,100.69L172.08,100.35L172.42,100.35z"/><path style="fill:#720073" d="M157.00,102.22L156.93,101.66L157.09,101.53z"/><path style="fill:#720073" d="M172.90,104.46L172.58,104.37L172.95,104.17z"/><path style="fill:#720073" d="M157.23,105.48L157.26,107.26L157.01,108.01L156.52,108.53L155.66,109.95L154.90,110.04L155.98,105.98L157.42,104.12L158.27,104.12z"/><path style="fill:#720073" d="M159.93,87.95L158.02,90.84L156.24,95.37L154.98,100.17L153.89,107.71L153.38,107.77L154.40,100.35L155.98,94.36L156.48,93.59L156.92,92.02L158.80,88.58L160.46,86.72L161.71,85.94L162.15,85.86z"/><path style="fill:#720073" d="M173.41,108.53L173.09,108.55L173.17,107.98L173.46,107.93z"/><path style="fill:#720073" d="M158.39,110.84L158.55,111.80L156.23,112.04L155.99,113.35L155.41,113.34L155.73,111.02L156.50,109.53L157.51,109.43L156.73,110.27L156.68,111.07L156.95,111.05L157.19,110.74z"/><path style="fill:#720073" d="M173.68,112.56L173.34,112.56L173.34,112.22L173.68,112.22z"/><path style="fill:#720073" d="M158.78,113.58L156.40,113.56L156.46,112.78L156.68,112.47L158.78,112.46z"/><path style="fill:#720073" d="M158.82,116.83L156.12,116.75L156.37,116.50L158.82,116.54z"/><path style="fill:#720073" d="M158.29,119.11L156.91,119.38L156.99,118.61L158.30,118.55z"/><path style="fill:#720073" d="M160.80,118.88L159.70,121.06L157.66,121.06L158.71,119.06L159.19,116.50L161.06,116.50z"/><path style="fill:#720073" d="M173.16,123.68L172.84,123.70L172.91,123.13L173.21,123.09z"/><path style="fill:#720073" d="M172.67,127.46L172.33,127.46L172.33,127.12L172.67,127.12z"/><path style="fill:#720073" d="M164.58,121.14L163.57,124.68L162.32,126.71L161.23,127.39L158.17,127.38L159.54,126.96L160.47,125.86L161.80,122.65L162.72,118.27L164.85,118.27z"/><path style="fill:#720073" d="M171.91,131.00L171.57,131.00L171.57,130.66L171.91,130.66z"/><path style="fill:#720073" d="M170.90,134.03L170.56,134.03L170.56,133.69L170.90,133.69z"/><path style="fill:#720073" d="M170.39,124.93L169.38,129.22L167.61,133.52L166.34,135.05L166.35,134.57L167.79,131.68L168.62,129.22L169.63,124.93L170.13,121.13L170.91,121.05z"/><path style="fill:#720073" d="M161.99,135.47L163.82,134.53L165.12,133.04L167.20,129.56L167.04,130.42L165.52,133.95L164.11,135.57L162.74,136.24L161.80,136.24L160.22,135.43z"/><path style="fill:#720073" d="M180.99,136.31L181.92,129.89L184.57,129.82L184.54,130.74L183.52,137.07L183.28,137.34L183.28,138.56L182.77,141.09L180.74,148.16L180.18,149.14L180.21,149.57L179.74,150.95L177.89,154.90L175.95,158.01L174.58,159.94L172.56,161.70L170.81,162.73L169.31,163.25L167.46,163.35L169.36,162.54L171.43,160.57L173.93,157.77L176.96,151.45L177.60,149.82L177.99,149.43L177.94,148.67L179.74,142.62L180.69,138.00L180.99,137.78z"/><path style="fill:#720073" d="M159.01,138.05L158.69,137.96L159.06,137.76z"/><path style="fill:#720073" d="M160.30,139.73L159.97,139.82L160.06,139.49z"/><path style="fill:#720073" d="M155.74,139.85L155.67,139.29L155.82,139.16z"/><path style="fill:#720073" d="M166.34,141.08L166.01,140.99L166.39,140.79z"/><path style="fill:#720073" d="M165.09,141.75L164.77,141.84L164.86,141.51z"/><path style="fill:#720073" d="M154.73,143.13L154.66,142.58L154.81,142.45z"/><path style="fill:#720073" d="M158.34,143.42L158.10,144.46L158.27,143.26z"/><path style="fill:#720073" d="M158.02,145.67L157.96,144.57L158.10,144.46z"/><path style="fill:#720073" d="M153.47,147.18L153.40,146.62L153.55,146.49z"/><path style="fill:#720073" d="M157.33,149.23L157.09,150.27L157.26,149.07z"/><path style="fill:#720073" d="M157.01,151.48L156.95,150.38L157.09,150.27z"/><path style="fill:#720073" d="M156.27,155.59L156.08,155.50L156.26,154.88z"/><path style="fill:#00e3e5" d="M114.85,59.16L114.85,60.03L114.60,59.99L114.56,58.67z"/><path style="fill:#00e3e5" d="M124.60,60.45L128.06,60.18L128.24,60.23L127.97,61.80L123.59,61.71L122.41,62.05L121.83,63.49L120.73,65.62L120.36,65.02L119.36,61.48L119.28,60.44z"/><path style="fill:#00e3e5" d="M108.29,75.35L107.25,75.68L105.99,77.71L104.71,81.50L104.73,79.98L105.47,76.43L106.49,74.42L107.52,74.32z"/><path style="fill:#00e3e5" d="M120.17,77.30L120.11,76.71L120.79,72.05L122.17,72.06L122.15,73.66L121.38,77.45L120.34,77.39z"/><path style="fill:#00e3e5" d="M108.53,81.17L108.56,81.49L108.26,82.00L107.16,81.93L107.44,80.89L108.01,80.86z"/><path style="fill:#00e3e5" d="M105.93,85.20L104.63,85.20L104.90,84.45L106.02,84.45z"/><path style="fill:#00e3e5" d="M110.54,88.33L109.68,88.31L109.74,87.53L109.97,87.20L110.52,87.19z"/><path style="fill:#00e3e5" d="M105.53,88.44L106.50,90.74L106.27,91.10L106.23,92.00L105.95,92.28L105.49,94.38L104.72,96.64L102.96,100.94L101.95,102.23L101.95,99.93L102.88,92.77L103.88,89.49L104.63,88.19L105.24,88.20z"/><path style="fill:#00e3e5" d="M123.14,92.65L122.85,92.65L122.85,91.47L123.14,91.47z"/><path style="fill:#00e3e5" d="M107.08,93.42L106.49,95.38L105.82,96.48L105.98,95.62L106.94,93.28z"/><path style="fill:#00e3e5" d="M105.83,96.74L104.96,98.67L104.96,97.90L105.82,96.48z"/><path style="fill:#00e3e5" d="M111.52,103.49L111.21,103.41L111.56,102.61z"/><path style="fill:#00e3e5" d="M108.27,108.28L106.12,108.17L107.78,106.99L108.25,106.89z"/><path style="fill:#00e3e5" d="M102.67,110.02L103.37,109.42L104.21,109.41L103.95,110.01L101.88,111.22L100.60,111.29L100.37,110.69L101.72,109.80L102.81,108.84z"/><path style="fill:#00e3e5" d="M104.23,112.71L104.23,114.83L102.71,115.03L101.96,114.74L100.61,114.57L100.41,113.56L102.74,112.76z"/><path style="fill:#00e3e5" d="M102.96,117.02L104.01,117.50L103.97,118.39L103.20,118.30L102.70,118.01L102.74,119.12L100.94,117.78L100.16,117.51L100.16,117.12L100.59,116.75L101.95,116.77z"/><path style="fill:#00e3e5" d="M137.59,117.94L124.33,117.87L124.33,116.25L137.85,115.93z"/><path style="fill:#00e3e5" d="M101.70,120.04L102.47,121.05L102.63,122.15L103.47,122.57L104.24,123.58L104.22,124.45L103.75,124.35L102.95,123.60L101.42,121.09L100.36,120.38L100.44,119.27z"/><path style="fill:#00e3e5" d="M104.22,119.81L104.24,121.66L103.21,120.02L103.11,119.54z"/><path style="fill:#00e3e5" d="M101.45,122.57L102.23,123.60L102.24,124.16L101.95,124.15L100.94,123.08L100.43,122.82L100.43,122.05z"/><path style="fill:#00e3e5" d="M103.19,125.13L103.49,126.19L102.42,125.38L102.44,124.58z"/><path style="fill:#00e3e5" d="M102.23,125.85L102.23,126.19L101.96,126.13L101.96,125.58z"/><path style="fill:#00e3e5" d="M123.67,126.97L123.09,126.98L123.19,125.90L123.41,125.86z"/><path style="fill:#00e3e5" d="M101.87,126.86L102.72,126.60L102.46,127.45L101.93,127.10z"/><path style="fill:#00e3e5" d="M110.23,140.86L109.95,140.79L110.26,139.99L110.49,139.94z"/><path style="fill:#00e3e5" d="M137.39,131.58L136.34,140.93L123.07,141.36L123.34,136.72L123.90,132.24L124.10,131.67L137.33,131.32z"/><path style="fill:#00e3e5" d="M105.63,144.31L106.79,143.91L108.04,142.54L107.76,144.13L107.16,145.32L106.49,145.34L105.72,144.78z"/><path style="fill:#00e3e5" d="M124.11,145.32L122.55,145.38L122.84,144.05L124.44,143.78z"/><path style="fill:#00e3e5" d="M106.20,148.58L105.12,148.67L105.12,148.10L106.27,148.09z"/><path style="fill:#00e3e5" d="M108.80,149.67L107.64,149.67L107.64,149.11L108.80,149.11z"/><path style="fill:#00e3e5" d="M119.15,163.57L117.25,163.57L117.85,160.02L118.36,158.67z"/><path style="fill:#00e3e5" d="M105.83,164.71L107.42,164.50L108.94,162.23L110.54,158.27L112.30,151.20L113.82,142.61L115.24,130.65L121.92,130.66L121.14,140.59L119.88,150.19L118.36,157.25L117.02,161.22L115.59,164.08L114.48,164.99L111.71,165.25L110.96,165.55L109.87,165.47L106.74,165.27z"/><path style="fill:#00e3e5" d="M130.00,167.96L130.01,168.12L129.24,168.90L128.22,171.40L127.14,172.35L115.42,173.22L116.28,172.35L117.11,169.89L118.04,168.04L119.30,167.79z"/><path style="fill:#00e3e5" d="M115.59,169.08L115.28,169.16L115.32,168.28z"/><path style="fill:#00e3e5" d="M114.67,172.96L113.87,172.95L114.00,172.58L114.58,172.56z"/><g id="Actor_.0"><g style="stroke:#000000;stroke-width:0.025"><path d="M100.08,119.38L100.14,120.13L100.30,119.22L100.52,119.22"/><path d="M100.01,116.50L100.03,117.35L100.22,116.81L100.43,116.81L100.29,117.21L100.30,117.38L101.01,117.59L100.97,116.56"/><path d="M100.02,113.52L100.02,114.41L100.21,114.26L100.21,113.81L100.02,113.52"/><path d="M100.09,111.49L100.12,110.61L100.29,111.31L100.28,111.75"/><path d="M101.15,125.12L101.16,124.87L101.21,124.91L101.21,124.85L101.25,124.83L101.27,126.50L101.16,126.54"/><path d="M106.53,137.41L105.70,134.76L104.42,131.52L102.93,128.41L102.22,127.43L101.44,126.80L101.32,126.68L101.27,126.51L101.16,126.55"/><path d="M100.95,126.06L100.91,125.90L100.96,124.27L101.18,124.26"/><path d="M100.91,125.90L100.85,125.78L100.91,125.89"/><path d="M101.17,126.26L101.18,125.98L101.14,125.91L101.18,125.98"/><path d="M101.18,125.97L101.18,125.87"/><path d="M101.13,125.84L101.13,125.89"/><path d="M100.80,125.69L100.85,125.78L100.80,125.70"/><path d="M101.21,124.91L101.20,125.16"/><path d="M101.16,124.87L101.17,124.49"/><path d="M100.85,124.90L100.87,124.65L100.82,124.60L100.81,124.43L100.87,124.65"/><path d="M100.90,124.17L100.96,124.27"/><path d="M100.81,124.43L100.82,124.26"/><path d="M100.59,124.55L100.68,123.08L100.63,122.87L100.85,122.87L100.90,123.08L100.68,123.08"/><path d="M100.59,124.55L100.49,124.13"/><path d="M100.87,124.65L100.89,124.30"/><path d="M101.96,123.87L101.34,123.14L101.24,122.40"/><path d="M101.34,123.14L100.55,122.63L100.56,122.41L100.60,122.66"/><path d="M100.33,122.58L100.46,121.36L100.42,121.06"/><path d="M100.63,122.87L100.63,122.91"/><path d="M100.25,121.98L100.25,121.99"/><path d="M100.56,122.41L100.60,122.08"/><path d="M100.46,121.36L100.68,121.36"/><path d="M101.06,119.63L101.13,120.54L100.36,120.16L100.39,119.94L100.41,120.19"/><path d="M101.13,120.54L101.74,121.09L102.83,122.74L103.49,124.03"/><path d="M100.30,119.22L100.27,118.84"/><path d="M100.39,119.94L100.47,119.45"/><path d="M100.30,117.38L100.26,117.32L100.29,117.21"/><path d="M100.22,116.81L100.20,116.38"/><path d="M101.01,117.59L101.59,117.91L102.74,119.01"/><path d="M100.42,116.52L100.43,116.81"/><path d="M100.24,113.51L100.28,113.50L100.28,113.60L100.24,113.51"/><path d="M100.21,113.81L100.42,113.81L100.42,114.22L100.42,114.26L100.21,114.26"/><path d="M100.28,113.50L100.98,113.39L100.99,114.48L100.24,114.42L100.28,114.37L100.28,114.42"/><path d="M100.99,114.48L101.58,114.57L103.10,115.00"/><path d="M100.28,114.37L100.42,114.26"/><path d="M100.28,113.60L100.42,113.81"/><path d="M100.98,113.39L101.57,113.21L101.58,114.57"/><path d="M100.29,111.31L100.51,111.31L100.50,111.46"/><path d="M101.07,111.38L101.10,110.29L100.34,110.58L100.38,110.79L100.38,110.56"/><path d="M100.38,110.79L100.51,111.31"/><path d="M101.10,110.29L101.70,109.87L101.66,111.22"/><path d="M100.66,109.01L100.45,109.01L100.30,107.94"/><path d="M100.45,109.01L100.42,109.42"/><path d="M100.57,107.88L100.55,108.20L100.53,107.91L101.30,107.46L101.24,108.48"/><path d="M100.55,108.20L100.62,108.69"/><path d="M100.57,105.70L100.67,107.06L100.63,107.42"/><path d="M100.67,107.06L100.89,107.06"/><path d="M100.80,105.65L100.84,105.61L100.80,105.97L100.80,105.65"/><path d="M100.49,106.41L100.49,106.40"/><path d="M100.84,105.61L100.87,105.58L100.90,105.88L100.94,105.60L100.89,104.02L100.79,104.57"/><path d="M100.94,105.60L101.16,105.60L101.12,105.88L100.90,105.88"/><path d="M100.80,105.97L100.83,106.31"/><path d="M100.87,105.58L100.86,105.35"/><path d="M101.16,105.60L101.16,105.38L101.59,105.08L101.50,105.95"/><path d="M101.16,105.38L101.15,105.15"/><path d="M100.79,104.57L100.80,104.55"/><path d="M101.20,104.90L101.25,104.74L101.25,103.02L101.14,103.37"/><path d="M101.15,103.64L101.16,103.90L101.11,104.02L101.12,104.45"/><path d="M100.89,104.02L100.89,104.01"/><path d="M101.25,103.02L101.14,103.37"/><path d="M101.11,104.22L101.16,103.91"/><path d="M101.18,104.41L101.16,103.93"/><path d="M101.25,103.01L101.29,102.84"/><path d="M101.18,103.21L101.19,103.20"/><path d="M106.89,135.59L106.42,134.32L105.02,131.18L103.40,128.16L102.64,127.21L101.70,126.48L101.65,126.32L101.59,124.69"/><path d="M102.22,127.43L102.07,127.48"/><path d="M102.64,127.21L102.50,127.57L101.71,126.91L101.59,126.78L101.54,126.60L101.65,126.32"/><path d="M101.71,126.91L101.83,126.60"/><path d="M101.92,125.83L101.93,125.78L101.97,126.00L102.10,126.13L102.21,125.57L103.05,126.11L102.92,126.77"/><path d="M102.10,126.13L102.41,126.37L102.70,126.98L102.33,126.71"/><path d="M102.02,125.31L101.93,125.78L102.02,125.31L102.08,125.46L102.21,125.57"/><path d="M101.65,126.31L101.54,126.60"/><path d="M101.32,126.85L101.44,126.80"/><path d="M101.27,126.50L101.27,126.51"/><path d="M101.54,126.16L101.54,126.56"/><path d="M101.54,126.28L101.49,126.24L101.51,126.54"/><path d="M101.49,126.12L101.49,126.24"/><path d="M101.92,125.82L101.91,125.60L101.85,125.52L101.86,125.89"/><path d="M102.02,125.31L101.91,123.87L102.13,123.87L102.21,124.79"/><path d="M101.27,124.82L101.49,124.82L101.54,125.46"/><path d="M101.91,125.60L101.90,125.18"/><path d="M101.85,125.52L101.83,125.10"/><path d="M101.50,124.71L101.54,125.15"/><path d="M101.49,125.40L101.49,125.12"/><path d="M101.53,124.84L101.56,124.78"/><path d="M103.31,125.09L103.42,124.18L102.56,123.75L102.47,124.53L102.33,124.41L102.27,124.26L102.35,123.54L102.19,122.39"/><path d="M102.35,123.53L102.27,124.26"/><path d="M102.35,123.54L102.42,123.66L102.56,123.75"/><path d="M102.17,124.25L102.99,125.84"/><path d="M101.97,123.87L101.85,122.96"/><path d="M101.91,123.87L101.86,124.12"/><path d="M102.22,123.55L102.27,124.25"/><path d="M102.44,122.50L102.43,122.41L102.36,122.39"/><path d="M101.74,121.09L101.65,119.95"/><path d="M101.60,117.92L101.56,116.63"/><path d="M101.57,113.21L102.67,112.62"/><path d="M101.70,109.87L103.01,108.27L103.91,106.68L104.05,106.28"/><path d="M101.85,108.09L101.93,106.82L102.29,106.19"/><path d="M101.93,106.82L101.30,107.46"/><path d="M102.14,106.03L102.19,106.18L102.41,106.19L102.50,105.41"/><path d="M102.19,106.18L102.34,104.79L102.24,104.44L102.34,104.79"/><path d="M102.12,105.35L102.24,104.25L102.16,104.35L102.12,105.01L101.91,105.01L101.84,104.95L101.84,104.75L101.59,105.08"/><path d="M101.90,105.01L102.00,103.39L101.89,103.27L101.83,103.37L101.84,103.05"/><path d="M102.23,104.42L102.18,105.26"/><path d="M102.34,104.79L102.40,104.64L102.54,104.54L103.39,104.02L103.25,103.55"/><path d="M101.25,104.73L101.47,104.73"/><path d="M101.52,104.58L101.58,104.52L101.80,104.52L101.80,104.47"/><path d="M101.58,104.52L101.63,102.80L101.68,102.61L102.60,101.84L103.34,100.83L103.15,101.04L104.56,98.08L105.34,96.05L105.57,95.33"/><path d="M101.80,104.52L101.72,104.58"/><path d="M101.84,104.75L101.85,104.41"/><path d="M102.00,103.39L102.06,103.22L102.19,103.10L103.02,102.49L102.87,102.34L103.02,102.14L103.72,100.79L104.30,99.36L103.54,100.94L102.80,101.94L102.63,102.32L102.59,102.55L102.31,102.78L102.63,102.32"/><path d="M102.00,103.39L101.89,103.27"/><path d="M102.24,104.25L102.92,102.82"/><path d="M101.82,103.97L101.88,103.33"/><path d="M101.52,103.35L101.52,103.63L101.47,103.66L101.47,103.39"/><path d="M101.52,103.63L101.52,104.18"/><path d="M101.47,103.66L101.47,104.21"/><path d="M101.83,103.37L101.82,103.98"/><path d="M101.87,103.68L101.87,103.92"/><path d="M102.22,103.50L102.25,103.33L102.49,103.14L102.48,103.18"/><path d="M102.16,104.35L102.20,103.85"/><path d="M102.23,104.42L102.29,104.26L102.42,104.14L102.54,104.54"/><path d="M102.19,103.10L102.07,102.97L102.31,102.78"/><path d="M101.63,102.80L101.51,102.92L101.47,103.12L101.49,102.95L101.63,102.79"/><path d="M101.51,102.97L101.51,103.20"/><path d="M102.55,102.21L102.20,102.67L102.28,102.42L101.86,102.76L102.76,102.00L102.28,102.42"/><path d="M101.68,102.61L101.56,102.75L101.51,102.91"/><path d="M101.47,103.12L101.47,103.23"/><path d="M101.85,102.94L101.86,102.76"/><path d="M101.89,103.26L101.94,103.09L102.07,102.97"/><path d="M102.20,102.67L102.01,102.82"/><path d="M106.59,137.13L105.07,132.74L103.21,128.60L103.40,128.16"/><path d="M103.21,128.60L102.50,127.57"/><path d="M102.75,128.47L102.93,128.41"/><path d="M102.70,126.98L103.10,127.44"/><path d="M103.47,127.49L103.68,127.76L103.85,126.95L105.59,129.66L107.30,132.84"/><path d="M103.05,126.11L103.85,126.95"/><path d="M103.89,126.70L103.20,125.97L102.64,125.61"/><path d="M102.41,126.37L102.68,126.58"/><path d="M103.10,124.95L102.47,124.53"/><path d="M103.42,124.18L104.25,124.86L106.11,127.03L107.69,129.20"/><path d="M103.19,123.88L103.57,124.07L104.39,124.74"/><path d="M104.02,122.98L103.64,122.65L102.63,122.11L102.57,121.99L102.61,121.28L102.57,121.99"/><path d="M102.61,121.28L102.62,121.11L102.69,121.19L102.83,121.25L102.77,122.20"/><path d="M102.83,121.25L103.72,121.54L104.58,121.99L104.48,123.37"/><path d="M102.41,120.68L102.56,121.98"/><path d="M102.62,121.11L102.43,120.34"/><path d="M102.87,121.13L102.88,121.14"/><path d="M103.00,119.04L102.99,119.30L102.78,119.16L102.81,118.20L103.02,118.26L103.00,119.04"/><path d="M104.29,121.69L104.02,120.88L103.46,119.89L102.98,119.30"/><path d="M102.81,118.20L102.59,117.88L102.58,118.36L102.78,119.16"/><path d="M102.99,119.30L103.88,119.61L103.92,118.38L103.02,118.26"/><path d="M104.17,118.37L103.09,118.22L103.04,118.20L102.82,117.88L102.59,117.88"/><path d="M102.90,116.00L102.89,115.02"/><path d="M103.12,116.06L103.11,114.99L102.93,115.01"/><path d="M103.11,114.99L104.01,114.94L104.02,116.18"/><path d="M103.71,111.55L103.97,111.48L104.03,112.65L102.98,112.72L102.68,112.90L102.91,112.90L103.17,112.73L104.21,112.66"/><path d="M103.13,112.71L103.09,111.71"/><path d="M102.91,112.74L102.87,111.82"/><path d="M102.66,112.49L102.68,112.90"/><path d="M102.76,108.93L102.75,108.85L102.81,109.63L102.59,110.27L102.82,110.27L103.07,109.61L104.07,109.34L104.37,109.21"/><path d="M102.59,110.27L102.56,109.88L102.75,108.85"/><path d="M103.09,109.50L103.92,109.28L103.84,108.28L102.96,108.66L103.03,109.52L103.09,109.50"/><path d="M102.81,109.63L103.03,109.52"/><path d="M102.42,107.98L102.62,106.92L102.69,106.81L103.70,106.33L104.56,105.70L104.41,104.77"/><path d="M102.96,108.66L102.82,108.74L102.75,108.85"/><path d="M102.62,106.91L102.58,106.68L102.62,106.92"/><path d="M102.83,106.73L102.73,106.08L102.61,106.17L102.53,106.32L102.58,106.68L102.53,106.32"/><path d="M103.00,106.82L102.87,106.88L102.83,107.02"/><path d="M102.40,107.48L102.53,106.33"/><path d="M102.73,106.08L103.57,105.58L103.70,106.33"/><path d="M102.44,105.92L103.37,104.25"/><path d="M103.05,104.45L103.55,104.15L104.41,103.28L104.73,102.81"/><path d="M103.39,104.02L104.22,103.19L106.43,99.95L107.64,97.79"/><path d="M102.42,104.14L103.25,103.55"/><path d="M102.87,102.34L102.59,102.55"/><path d="M103.02,102.49L103.80,101.54L103.61,101.36L105.15,98.34"/><path d="M102.49,103.14L102.51,103.13"/><path d="M104.90,100.01L103.99,101.64L103.17,102.64L102.56,103.09"/><path d="M102.80,101.94L102.76,102.00"/><path d="M106.30,93.00L104.88,97.15L103.13,101.07L102.53,101.90"/><path d="M103.11,101.09L103.15,101.04"/><path d="M103.02,102.14L103.61,101.36"/><path d="M103.34,100.83L105.30,96.76L106.90,92.54"/><path d="M104.01,131.42L104.44,132.43L105.75,136.49L106.23,138.63"/><path d="M104.17,128.73L104.43,129.62"/><path d="M104.80,130.31L103.94,128.70"/><path d="M103.68,127.76L104.74,129.86"/><path d="M104.66,127.74L104.36,126.40"/><path d="M104.37,127.37L104.62,127.76"/><path d="M104.00,125.85L104.11,125.98L104.25,124.86"/><path d="M104.11,125.98L104.57,126.74"/><path d="M103.64,122.65L103.72,121.54"/><path d="M104.58,121.99L106.52,123.45L108.03,124.77"/><path d="M104.04,121.56L104.34,121.72"/><path d="M103.88,119.61L104.25,119.81"/><path d="M103.92,118.38L104.80,118.57L106.80,119.18L108.26,119.70"/><path d="M104.01,114.94L104.24,114.91"/><path d="M104.03,112.65L104.92,112.56L104.85,111.11"/><path d="M103.98,111.48L104.19,111.39"/><path d="M103.97,111.48L104.18,111.19"/><path d="M103.92,109.28L104.80,108.90L107.31,107.35L108.24,106.66"/><path d="M103.84,108.28L104.40,107.87"/><path d="M103.78,106.46L104.44,106.00"/><path d="M104.56,105.70L106.98,103.14L107.99,101.83"/><path d="M103.59,105.57L104.08,105.09"/><path d="M104.22,103.19L104.04,102.62L103.60,103.14"/><path d="M104.70,100.36L104.32,101.93L104.03,102.64"/><path d="M104.04,102.62L104.83,101.27"/><path d="M103.80,101.54L105.92,97.70L107.26,94.67"/><path d="M104.49,98.96L103.75,101.08"/><path d="M104.50,100.73L104.16,101.69"/><path d="M104.30,99.36L105.31,97.26"/><path d="M104.56,98.08L105.48,95.74"/><path d="M106.56,91.05L106.09,92.96L104.67,97.08L104.25,98.02"/><path d="M104.75,120.08L104.80,118.57"/><path d="M104.89,114.84L104.90,116.38"/><path d="M104.92,112.56L108.35,112.01"/><path d="M104.69,107.67L104.80,108.90"/><path d="M106.40,91.03L105.63,94.28"/><path d="M105.76,93.84L105.98,93.11L106.30,91.58"/></g><g style="stroke:#000000;stroke-width:0.247"><path d="M102.41,120.68L101.65,119.95L101.06,119.63L100.47,119.45L100.52,119.22L100.49,118.84L100.27,118.84L100.08,119.38L100.17,120.22L100.96,120.62L101.54,121.15L102.36,122.39"/><path d="M104.12,117.48L103.66,117.20L102.81,116.91L101.56,116.63L100.42,116.52L100.41,116.38L100.20,116.38L100.00,116.50L100.06,117.40L100.84,117.64L101.40,117.96L102.45,118.93L103.25,119.91L103.82,120.89L104.04,121.56"/><path d="M102.66,112.49L101.37,113.19L100.81,113.36L100.04,113.49L100.02,114.41L101.38,114.58L102.41,114.84L102.93,115.01"/><path d="M103.78,106.46L103.71,106.66L102.80,108.25L101.50,109.83L100.93,110.23L100.15,110.54L100.09,111.49L100.28,111.75L100.49,111.75L100.50,111.46L101.07,111.38L101.66,111.22L102.70,110.76L103.50,110.29L104.05,109.82L104.37,109.36"/><path d="M105.79,138.18L105.02,134.55L104.01,131.42L102.75,128.47L102.07,127.48L101.20,126.72L101.16,126.55L101.17,126.26L100.95,126.06L100.84,125.85L100.80,125.70L100.85,124.90L100.62,124.70L100.49,124.14L100.63,122.91L100.36,122.71L100.25,121.98L100.42,121.06L100.64,121.05L100.68,121.36L100.60,122.08L101.24,122.40L101.85,122.96L102.22,123.55"/><path d="M101.18,125.78L101.18,125.87L101.13,125.84L101.15,125.12L101.20,125.16L101.18,125.78"/><path d="M101.86,124.12L101.90,125.18L101.83,125.10L101.82,124.69L101.59,124.69L101.56,124.78L101.17,124.49L101.18,124.26L101.12,124.17L100.90,124.17L100.89,124.30L100.82,124.26L100.90,123.08L101.17,123.25L101.77,123.96L101.86,124.12"/><path d="M102.14,106.03L101.73,106.76L101.13,107.37L100.34,107.84L100.26,108.77L100.42,109.42L100.64,109.42L100.66,109.01L100.62,108.69L101.24,108.48L101.85,108.09L102.40,107.48"/><path d="M102.18,105.26L101.50,105.95L100.83,106.31L100.89,107.06L100.85,107.42L100.63,107.42L100.49,106.42L100.60,105.56L100.86,105.35L100.79,104.57L100.93,103.85L101.15,103.64L101.14,103.37L101.29,102.84L102.18,102.07L102.88,101.08L104.25,98.02L105.32,94.80L106.19,91.03"/><path d="M101.25,105.08L101.15,105.15L101.12,104.45L101.18,104.41L101.20,104.90L101.42,104.91L101.47,104.73L101.47,104.21L101.52,104.18L101.52,104.58L101.72,104.58L101.42,104.95L101.25,105.08"/><path d="M101.95,126.42L101.88,126.31L101.86,125.89L102.10,126.21L102.33,126.71L101.95,126.42"/><path d="M101.49,125.78L101.49,126.12L101.54,126.16L101.54,125.46L101.49,125.40L101.49,125.78"/><path d="M101.51,126.56L101.54,126.59L101.51,126.54L101.51,126.56"/><path d="M102.21,124.79L102.27,125.36L102.64,125.61"/><path d="M102.21,124.79L102.64,125.61"/><path d="M102.22,123.55L102.15,122.75L102.19,122.41L102.36,122.39"/><path d="M102.18,105.26L102.14,106.03"/><path d="M101.80,104.47L101.82,103.98L101.87,103.92L101.85,104.41L101.80,104.47"/><path d="M102.56,103.09L102.22,103.50L102.20,103.85L102.56,103.09"/><path d="M101.47,103.39L101.52,103.35L101.51,103.20L101.47,103.23L101.47,103.39"/><path d="M101.84,103.05L102.01,102.82L101.85,102.94L101.84,103.05"/><path d="M103.47,127.49L102.92,126.77L102.68,126.58"/><path d="M103.94,128.70L103.59,128.06L103.10,127.44L102.68,126.58"/><path d="M103.47,127.49L103.94,128.70"/><path d="M103.89,126.70L103.10,124.95"/><path d="M104.00,125.85L103.31,125.09L103.10,124.95"/><path d="M103.19,123.88L102.61,123.58L102.44,122.50"/><path d="M103.19,123.88L102.63,122.78L102.44,122.50"/><path d="M104.04,121.56L103.87,121.47L102.88,121.14"/><path d="M102.87,121.13L102.66,120.34L102.43,120.34L102.41,120.68"/><path d="M102.88,121.14L102.87,121.13"/><path d="M102.93,115.01L102.67,115.18L102.67,115.66L102.90,116.00L102.97,116.03L104.02,116.18L104.90,116.38L107.43,117.20L108.32,117.55"/><path d="M103.71,111.55L102.94,111.76L102.87,111.82L102.66,112.49"/><path d="M102.40,107.48L102.38,107.68L102.42,107.98L102.65,107.98L102.83,107.02"/><path d="M103.00,106.82L103.78,106.46"/><path d="M102.83,107.02L103.00,106.82"/><path d="M103.05,104.45L102.59,104.74L102.50,105.41"/><path d="M103.05,104.45L102.50,105.41"/><path d="M103.25,103.55L103.60,103.14"/><path d="M103.60,103.14L104.16,101.69L103.25,103.55"/><path d="M103.89,126.70L104.04,126.86L104.37,127.37"/><path d="M104.62,127.76L105.80,129.59L107.35,132.42"/><path d="M104.37,127.37L104.09,126.10L104.00,125.85"/><path d="M104.57,126.74L106.32,129.61L107.42,131.85"/><path d="M104.64,127.49L104.57,126.74"/><path d="M107.72,128.90L106.32,126.98L104.39,124.74"/><path d="M104.39,124.74L104.34,124.20"/><path d="M107.82,127.78L106.83,126.28L104.48,123.37L104.02,122.98"/><path d="M104.02,122.98L104.28,123.64"/><path d="M104.34,121.72L104.77,121.94L106.73,123.41L108.05,124.56"/><path d="M104.34,121.72L104.32,121.26"/><path d="M104.25,119.81L104.75,120.08L107.22,122.03L108.13,122.91"/><path d="M108.26,119.61L107.01,119.16L104.99,118.55L104.17,118.37"/><path d="M104.17,118.37L104.17,118.22"/><path d="M108.36,114.30L106.88,114.55L104.24,114.91"/><path d="M108.35,112.05L105.11,112.57L104.21,112.66"/><path d="M104.21,112.66L104.21,112.91"/><path d="M108.30,108.94L106.84,109.94L104.85,111.11L104.19,111.39"/><path d="M103.71,111.55L103.97,111.19"/><path d="M108.24,106.84L107.52,107.38L105.01,108.93L104.37,109.21"/><path d="M108.11,103.95L106.61,105.72L104.69,107.67L104.40,107.87"/><path d="M104.43,106.19L104.42,106.89"/><path d="M108.01,102.13L107.19,103.19L104.75,105.77L104.44,106.00"/><path d="M107.82,99.61L106.25,102.19L104.41,104.77L104.08,105.09"/><path d="M104.70,103.37L104.35,104.54L104.08,105.09"/><path d="M106.98,134.98L105.72,131.80L104.74,129.86"/><path d="M104.80,130.31L105.23,131.10L106.64,134.26L106.96,135.14"/><path d="M104.80,130.31L104.74,129.86"/><path d="M104.73,102.81L106.71,99.91L107.68,98.17"/><path d="M104.83,101.27L105.75,99.68L107.25,96.62L107.45,96.11"/><path d="M104.83,101.27L104.85,100.81"/><path d="M104.90,100.01L106.14,97.76L107.32,95.09"/><path d="M107.07,93.52L106.55,95.04L105.15,98.34"/><path d="M105.15,98.34L105.23,97.98"/><path d="M106.98,92.97L105.51,96.84L105.31,97.26"/><path d="M106.67,91.51L106.30,93.00L105.57,95.33L105.48,95.74L105.83,94.86L106.75,91.85"/><path d="M105.89,138.46L105.81,138.26"/><path d="M106.30,91.58L106.48,90.71"/></g></g><g id="Actor_.1"><g style="stroke:#000000;stroke-width:0.025"><path d="M106.77,157.99L106.16,158.66L105.56,158.87L104.97,158.66L104.40,158.03L103.85,157.02L103.33,155.65L102.38,151.94L101.56,147.15L100.62,138.39L100.20,131.79L99.87,121.28L99.86,114.00L100.13,103.48L100.72,93.97L101.27,88.16L102.35,80.59L103.20,76.55L104.23,73.33L104.78,72.23L105.35,71.49L105.93,71.14L106.52,71.20L107.11,71.70L107.70,72.65L108.28,74.06L108.84,75.94L109.37,78.27L109.87,81.07L110.75,87.93L111.40,96.28L111.77,105.56L111.85,110.66L111.77,120.16L111.60,125.64L111.11,134.39L110.39,142.18L109.95,145.60L108.98,151.34L107.90,155.49L107.34,156.95L106.77,157.99L106.85,156.83L107.18,155.72L107.76,154.60L107.35,154.76L106.74,154.58L106.17,153.98L105.62,152.99L105.10,151.65L104.47,149.36L103.74,145.77L102.92,139.65L103.14,139.72L102.97,139.04L102.83,139.49L102.77,139.25L102.73,137.86L102.85,138.98L102.80,138.86"/><path d="M100.01,106.79L100.59,107.11"/><path d="M101.23,119.72L101.20,117.85"/><path d="M101.20,114.55L101.20,116.59"/><path d="M101.25,111.33L101.22,113.24"/><path d="M100.87,107.19L101.22,107.28"/><path d="M101.45,151.25L102.31,156.10L102.81,158.18L103.88,161.33L104.46,162.38L105.07,163.05L105.69,163.31L106.32,163.12L106.97,162.49L107.60,161.41L108.22,159.86L108.84,157.86L109.43,155.38L110.00,152.45L111.02,145.31L111.45,141.16L112.15,131.91L112.39,126.92L112.75,127.17L113.44,127.38L115.40,127.55L115.13,132.79L114.36,142.50L113.87,146.85L112.73,154.31L112.10,157.36L111.44,159.92L110.76,161.99L110.07,163.57L109.37,164.66L108.68,165.28L108.01,165.45"/><path d="M111.35,123.53L111.48,123.51L111.64,122.41L111.30,122.33L111.13,123.28L111.01,123.11L110.92,121.90L110.62,121.83L110.21,128.79L109.59,134.84L108.80,139.63L108.36,141.47L107.90,142.93L107.42,143.99L106.46,143.07L105.81,141.92L105.54,140.64L105.08,141.32L104.63,141.56L104.17,141.36L103.73,140.75L103.32,139.75L102.93,138.39L102.58,136.71L101.98,132.51L102.73,137.86"/><path d="M101.98,132.51L101.51,127.01"/><path d="M101.34,123.45L101.38,124.63"/><path d="M101.25,120.89L101.30,122.46"/><path d="M101.29,109.98L101.30,109.57L101.71,109.57"/><path d="M101.30,109.57L101.35,108.41"/><path d="M101.40,107.09L101.46,105.97"/><path d="M101.54,104.58L101.53,104.82"/><path d="M102.04,98.55L102.14,97.70L101.69,102.48"/><path d="M102.14,97.70L102.28,96.58L102.14,97.70"/><path d="M102.28,96.58L102.65,94.09L103.39,90.70L103.80,89.48L104.23,88.62L104.63,88.19L105.12,88.09L105.57,88.47L106.01,89.29L106.44,90.54L106.85,92.24L107.55,96.86L107.83,99.72L108.23,106.29L108.33,109.88L108.33,116.79L108.22,120.96L108.64,121.28L109.48,121.59L110.62,121.83L110.78,114.55L110.76,109.90L110.48,102.31L109.94,95.65L109.18,90.39L108.27,86.80L107.78,85.67L107.28,84.98L106.78,84.75L106.11,85.10L106.79,83.51L107.30,82.82L107.82,82.52L108.35,82.63L108.88,83.16L109.40,84.12L109.83,85.33L110.33,85.35L110.36,85.60L109.83,85.58L109.61,85.64L109.51,85.81L109.41,85.60L109.30,85.84L109.48,85.45L109.74,85.35L109.89,86.15L109.89,86.89L109.84,87.60L109.63,88.20L110.56,88.23L110.77,89.29L110.36,85.60"/><path d="M102.33,96.20L102.66,93.88"/><path d="M103.18,72.43L102.12,77.58"/><path d="M104.72,146.48L104.80,146.28L105.07,146.21L105.20,147.88L105.08,148.76L106.13,148.72L106.25,147.15L106.12,146.17L104.89,146.29L104.72,146.48L104.65,147.00L103.77,141.65L103.14,139.72"/><path d="M102.83,139.49L102.92,139.65"/><path d="M102.96,138.99L102.80,138.19"/><path d="M102.89,138.78L102.90,138.69"/><path d="M102.74,137.96L102.75,137.93"/><path d="M102.66,93.89L104.16,83.84L105.07,79.80L105.43,80.20L105.57,80.68L105.07,82.74L105.89,82.77L106.02,84.14L105.98,84.76L105.81,85.31L104.85,85.27L104.88,85.15L105.90,85.19"/><path d="M103.05,91.72L103.54,89.61L103.39,90.70L106.47,90.79"/><path d="M103.20,76.55L103.36,77.45L103.73,78.32L104.31,79.12L105.07,79.80L106.11,76.85L106.66,75.89L107.23,75.30L107.81,75.11L108.23,75.28L108.63,76.33L108.31,76.20L107.69,76.36L107.14,76.91L106.60,77.83L105.57,80.68"/><path d="M103.08,72.99L104.11,69.63L104.69,68.34L105.28,67.44L105.89,66.92L106.51,66.81L107.14,67.13L107.76,67.90L108.38,69.14L108.99,70.85L109.57,72.99L110.66,78.83L111.56,86.40L112.23,95.46L112.60,105.56L112.66,116.29L112.39,126.92"/><path d="M107.30,149.53L107.39,149.72L107.20,149.45L107.30,149.53L107.42,148.54L107.31,147.39L107.21,147.32L107.29,147.12L107.07,147.05L106.56,146.47L106.07,145.52L105.72,144.56L104.65,143.41L103.77,141.65"/><path d="M107.33,109.60L104.21,109.58"/><path d="M103.54,89.61L103.92,88.43L104.88,86.48L106.11,85.10"/><path d="M104.12,88.00L104.59,85.13L104.79,85.27"/><path d="M105.07,82.74L104.89,82.74L105.00,84.10L104.88,85.15L104.63,84.93L104.53,84.99L104.59,85.13"/><path d="M104.61,84.91L104.71,83.86L104.63,83.01L104.54,83.08L104.63,82.91"/><path d="M104.56,83.54L104.54,84.47L104.59,84.39"/><path d="M104.63,83.64L104.61,84.38"/><path d="M104.53,84.99L104.44,84.13L104.54,83.08"/><path d="M104.61,82.92L104.87,82.73"/><path d="M105.08,148.76L105.62,150.70L106.13,151.99L106.67,152.93L107.23,153.50L107.81,153.67L108.17,153.52L108.48,152.54"/><path d="M105.05,148.75L104.81,148.66L104.74,148.48L104.82,148.49L104.89,148.10L104.80,146.48"/><path d="M104.74,148.48L104.65,147.00"/><path d="M104.75,147.98L104.74,146.98L104.84,147.60L104.75,147.98L104.81,147.88"/><path d="M104.98,146.18L106.12,146.17"/><path d="M105.72,144.56L106.40,144.93L106.88,144.70L107.42,143.99L108.07,144.61L108.50,145.40L108.68,146.27L108.04,147.01L108.70,147.02L108.86,148.80L108.71,149.75L107.59,149.79L107.73,148.85L107.68,147.46L107.59,147.11L107.48,147.03L107.29,147.12"/><path d="M105.54,140.64L105.99,139.52L106.42,137.96L107.20,133.64L107.82,127.80L108.22,120.96"/><path d="M106.17,145.00L106.05,144.90"/><path d="M106.03,144.88L105.89,144.74"/><path d="M106.59,84.45L106.44,84.76L106.71,84.48"/><path d="M106.27,84.94L106.44,84.76"/><path d="M107.02,79.56L106.85,80.25L106.94,81.73L107.13,80.67L107.02,79.56L107.10,79.37L107.30,79.30L107.44,80.74L107.23,81.98L108.24,82.05L108.39,81.92L108.48,81.46L108.47,79.57L108.38,79.35L107.30,79.30"/><path d="M106.88,81.52L107.02,81.93L106.94,81.73"/><path d="M106.97,162.49L107.18,163.36L107.71,164.08L108.48,164.54L109.37,164.66L115.30,164.31L114.52,164.93L113.75,165.11L110.45,165.30L110.48,167.09L110.58,167.54L110.70,167.63L110.85,166.38L110.42,166.41"/><path d="M107.67,154.80L107.20,155.35"/><path d="M107.76,154.60L108.17,153.52"/><path d="M107.20,149.45L107.10,148.30L107.21,147.32"/><path d="M107.39,149.72L107.59,149.79"/><path d="M107.30,147.98L107.28,148.97L107.19,148.70L107.23,147.87"/><path d="M107.28,147.96L107.30,147.99"/><path d="M107.48,147.03L108.04,147.01"/><path d="M107.21,82.01L107.02,81.93"/><path d="M106.91,80.86L106.96,81.19L107.01,80.15L106.91,80.86"/><path d="M106.96,81.19L107.01,81.11L106.96,81.19"/><path d="M106.92,79.73L107.10,79.37"/><path d="M107.86,74.48L108.15,75.10L107.88,74.72"/><path d="M108.49,152.49L109.49,147.69L110.46,140.50L109.90,140.46L109.79,140.31L109.69,140.63L109.58,140.49L109.70,140.79L109.97,140.88L110.12,140.51L110.17,139.08L110.00,138.01L109.88,138.00L110.65,137.97L110.70,138.13L110.46,140.50"/><path d="M108.68,146.27L109.21,145.15L109.72,143.61L110.42,140.87"/><path d="M108.62,76.15L109.62,80.54L110.33,85.35"/><path d="M108.81,76.87L108.63,76.33"/><path d="M108.23,75.28L108.15,75.10"/><path d="M108.61,64.72L109.28,64.89L109.94,65.48L110.61,66.52L111.26,68.01L111.90,69.96L113.10,75.24L114.14,82.32L114.95,90.96L115.26,95.76L115.64,106.06L115.69,116.79L115.40,127.55L122.09,127.45"/><path d="M110.45,165.30L109.79,165.34"/><path d="M110.36,140.87L110.02,140.88"/><path d="M109.79,140.31L109.82,138.92L109.73,138.39L109.62,138.27L109.48,139.24L109.58,140.49"/><path d="M109.59,139.02L109.65,138.85L109.72,139.11L109.59,139.02L109.57,139.34L109.67,140.04L109.74,139.36L109.74,139.53"/><path d="M109.74,139.36L109.72,139.11"/><path d="M109.62,138.27L109.88,138.00"/><path d="M109.51,85.81L109.55,87.09L109.37,87.91L109.27,87.70L109.43,88.11L109.63,88.20"/><path d="M109.30,85.84L109.27,87.70"/><path d="M109.38,87.33L109.38,87.15L109.38,87.33"/><path d="M109.33,87.23L109.39,86.19L109.44,87.13"/><path d="M109.45,86.30L109.45,86.33"/><path d="M109.83,85.33L109.73,85.33"/><path d="M121.55,91.64L121.08,86.68L120.01,78.85L118.72,72.69L118.02,70.29L117.29,68.34L116.54,66.85L115.78,65.82L115.02,65.23L114.27,65.05L109.99,64.80"/><path d="M110.85,166.38L110.79,165.28"/><path d="M110.72,137.97L111.07,133.81L111.55,125.31L111.60,125.64"/><path d="M111.38,123.54L111.60,123.54L111.55,125.31"/><path d="M111.36,123.54L111.15,123.46L111.01,123.11"/><path d="M111.02,121.93L111.13,121.47L111.20,121.91L111.08,121.95L111.02,122.30L111.12,122.67L111.14,122.55"/><path d="M111.17,122.52L111.20,121.96L111.20,122.25"/><path d="M111.30,122.33L111.29,121.57L111.21,121.01L111.09,120.85L110.98,121.15L111.13,120.70L111.34,120.62"/><path d="M110.92,121.90L110.98,121.15"/><path d="M111.34,120.61L111.44,120.58L111.58,120.93L111.64,122.39"/><path d="M110.88,103.08L111.03,103.46L111.24,103.56L111.37,103.47L111.53,101.50L111.19,101.60L111.00,100.86L110.81,101.77L110.87,103.03L110.99,103.26L111.10,102.99L111.18,101.61"/><path d="M111.24,103.56L111.64,103.56L111.57,101.53L111.35,100.57L111.02,100.75L110.91,101.07"/><path d="M111.08,102.23L110.90,102.29L110.99,102.66L111.08,102.23"/><path d="M110.90,102.29L110.97,101.50L111.04,101.51L111.08,102.19L111.09,101.89"/><path d="M111.35,100.57L111.53,100.58L111.57,101.50"/><path d="M111.53,100.58L111.16,93.86L110.77,89.29"/><path d="M110.66,88.24L110.56,88.23"/><path d="M111.60,123.54L111.64,122.53"/><path d="M111.65,122.20L111.70,120.63L111.47,120.57"/><path d="M111.70,120.57L111.79,111.41L111.64,103.56"/><path d="M113.53,173.01L113.71,172.98L114.11,172.39L114.34,172.35L114.63,172.65L113.89,172.72"/><path d="M112.73,58.89L113.29,59.02L113.35,58.94"/><path d="M114.65,172.67L114.85,172.91"/><path d="M114.73,60.78L114.80,59.20L114.61,58.46L114.48,58.68L114.31,60.00L114.31,60.75L114.50,61.49L114.73,60.78L114.31,60.75"/><path d="M115.34,173.13L115.99,172.70L116.24,172.26L116.91,170.15L117.39,169.18L117.96,168.56L118.05,167.83L117.42,164.08L118.55,164.14L120.83,163.94L122.11,157.64L130.84,157.20"/><path d="M115.72,172.86L127.51,172.04"/><path d="M115.31,171.34L115.18,170.83L115.60,170.80L115.45,171.45L115.31,171.34"/><path d="M115.18,170.83L115.10,169.24L115.28,168.26L115.42,168.36L115.55,168.87L115.60,170.80"/><path d="M115.30,164.31L116.03,163.33L116.75,161.95L117.20,160.81"/><path d="M114.77,57.39L115.17,57.71L116.25,59.64L116.41,59.66L116.57,59.38L116.73,59.93L116.92,60.14L117.06,60.00L117.34,59.22L120.83,71.87L120.01,77.32L120.70,81.41L120.97,82.05L121.26,82.39L121.33,81.01L121.73,78.61L121.90,78.63L122.21,80.37L122.29,82.32L123.23,88.35L123.69,93.54L137.07,93.88"/><path d="M115.55,58.41L126.97,59.18"/><path d="M116.48,171.53L128.44,170.72"/><path d="M116.57,59.38L117.28,59.43"/><path d="M117.92,168.65L128.23,167.99L126.45,167.83L117.98,168.37"/><path d="M118.05,167.83L121.82,167.59L121.31,164.78L117.58,165.01L118.65,164.75L120.55,164.69L121.31,164.78"/><path d="M117.42,164.08L117.26,163.75L117.59,160.80L117.86,159.83L118.18,159.30L118.48,159.28L119.24,163.63L117.26,163.75"/><path d="M117.31,160.53L118.15,157.94L119.45,152.32L120.57,145.21L121.36,137.94"/><path d="M118.31,62.65L119.76,62.74L118.80,59.31L117.35,59.16"/><path d="M119.24,163.63L119.31,164.03L120.64,163.95"/><path d="M118.18,159.30L118.33,158.48L118.48,159.28"/><path d="M119.06,60.24L124.02,60.45L126.71,60.34L128.18,60.14"/><path d="M127.58,60.10L118.86,59.53"/><path d="M119.31,164.03L121.98,150.57L123.57,150.50L123.97,148.55L124.13,145.78L122.53,145.84L122.37,148.61L121.98,150.57"/><path d="M120.18,78.01L132.73,78.56"/><path d="M120.01,77.32L121.50,77.39L121.70,76.19L120.19,76.12"/><path d="M120.27,75.58L121.79,75.65L121.70,76.19"/><path d="M120.52,70.75L120.22,69.63"/><path d="M120.58,65.63L119.76,62.74"/><path d="M121.86,63.25L119.87,63.13"/><path d="M122.15,62.48L119.65,62.32"/><path d="M122.70,61.70L119.44,61.59"/><path d="M120.91,163.54L129.38,163.04"/><path d="M120.83,163.92L123.51,163.45L129.45,163.10"/><path d="M120.83,71.90L122.36,71.97L120.83,71.87"/><path d="M122.36,71.95L120.61,65.75"/><path d="M121.00,65.14L120.43,65.11"/><path d="M121.82,167.59L124.47,167.63L126.45,167.83"/><path d="M121.81,159.11L130.50,158.64"/><path d="M122.11,157.64L122.14,157.53L122.63,157.46L130.55,157.06"/><path d="M122.14,157.49L123.57,150.50"/><path d="M122.53,145.84L122.63,144.55L122.82,143.75L125.14,143.66L127.84,143.41L129.10,143.17L128.32,148.24L127.58,151.96L126.19,157.28"/><path d="M122.70,91.83L122.62,93.60L122.73,94.33L122.89,94.66L123.08,94.53L123.26,93.67L123.28,91.91L122.70,91.83L122.85,91.25L123.04,91.11L123.27,91.85"/><path d="M122.29,82.32L135.32,82.82"/><path d="M122.21,80.37L135.22,80.90"/><path d="M122.63,78.64L121.73,78.61L131.10,79.03L121.90,78.63"/><path d="M132.02,77.30L121.60,76.83"/><path d="M121.79,75.65L122.36,71.97"/><path d="M122.03,65.54L122.91,66.00L123.80,66.91L124.69,68.27L125.55,70.10L126.38,72.40L127.63,77.10"/><path d="M123.51,163.45L126.44,163.67L129.22,164.10"/><path d="M122.75,144.16L124.36,144.10L124.13,145.78"/><path d="M122.82,143.75L123.25,137.50L123.93,131.43L124.12,127.08L124.05,120.17L124.29,115.55L124.31,110.99L124.17,105.32L123.83,101.26L123.75,95.04L137.16,95.36"/><path d="M123.61,134.70L137.09,134.38"/><path d="M123.66,126.70L123.44,125.78L123.23,125.74L122.98,127.05L123.09,128.79L123.26,129.25L123.46,129.23L123.67,128.25"/><path d="M123.23,125.74L123.43,125.74"/><path d="M123.75,95.04L123.69,93.54"/><path d="M123.26,93.67L123.31,92.12"/><path d="M122.88,86.18L136.06,86.63"/><path d="M124.36,144.10L124.43,143.69"/><path d="M137.56,129.37L124.00,129.61"/><path d="M124.08,121.88L137.64,121.76"/><path d="M124.20,116.86L137.77,116.82"/><path d="M124.32,114.18L137.91,114.19"/><path d="M124.27,107.82L137.82,107.93"/><path d="M123.97,103.00L137.44,103.19"/><path d="M123.80,99.37L137.23,99.62"/><path d="M123.80,97.04L137.22,97.33"/><path d="M124.94,61.66L126.27,61.60L127.94,61.85"/><path d="M128.23,167.99L130.03,167.96"/><path d="M127.58,151.96L132.04,151.76"/><path d="M128.28,164.90L128.25,164.90"/><path d="M129.10,143.17L130.51,142.91L133.80,141.93"/><path d="M131.10,79.03L132.84,79.53"/></g><g style="stroke:#000000;stroke-width:0.247"><path d="M120.58,65.63L121.44,64.52L122.00,62.80L122.70,61.70L124.88,61.66L127.94,61.85L128.22,60.16L127.58,60.10L126.50,58.48L126.01,58.15L114.77,57.39L114.36,57.44L113.87,57.99L113.35,58.93L112.73,58.89L112.40,59.19L112.00,59.85L111.45,61.04L110.91,62.99L110.41,63.68L109.99,64.80L108.61,64.72L107.77,64.84L107.13,65.08L106.42,65.50L105.82,66.11L104.77,67.71L104.22,68.99L103.18,72.43L102.35,76.36L101.70,80.16L100.65,89.00L100.13,95.56L99.76,102.19L99.51,109.85L99.43,117.35L99.51,124.81L99.75,132.09L100.16,139.03L100.72,145.48L101.45,151.25L102.60,157.52L103.60,161.06L104.15,162.37L105.18,164.02L105.75,164.60L106.51,165.08L107.15,165.33L108.01,165.45L109.78,165.34L110.11,167.00L110.80,169.10L111.24,169.77L111.78,170.14L112.33,171.75L112.67,172.32L113.53,173.01L114.85,172.91L114.96,173.05L115.34,173.13L127.05,172.32L127.84,171.88L128.16,171.44L128.92,169.46L129.45,168.53L130.03,167.96L129.74,166.60L128.81,166.59L128.50,165.10L128.20,164.76L128.31,164.63L129.29,164.46L129.22,164.10L129.45,163.10L129.38,163.04L129.54,161.44L129.79,160.13L130.11,159.17L130.50,158.64L130.83,157.22L130.57,157.06L132.04,151.76L132.82,148.05L133.80,141.93L136.28,140.98L136.48,138.66L137.48,131.16L137.70,125.78L137.60,120.09L137.91,114.19L137.82,107.93L137.69,105.47L137.27,101.47L137.16,95.36L136.83,91.21L136.49,88.77L135.32,82.82L135.22,80.90L135.00,80.22L132.84,79.53L132.73,78.61L132.32,77.32L132.02,77.30L130.68,72.62L129.79,70.33L128.86,68.50L127.92,67.14L126.98,66.26L126.01,65.78L121.15,65.51L120.61,65.75"/><path d="M117.20,160.81L117.31,160.53"/><path d="M121.36,137.94L122.09,127.45L122.39,116.83L122.32,106.12L122.14,100.92L121.55,91.64"/><path d="M120.61,65.75L120.58,65.63"/><path d="M123.69,128.02L123.67,128.25L123.66,126.70L123.69,128.02"/></g></g><g id="Actor_.2"><g style="stroke:#000000;stroke-width:0.025"><path d="M148.18,119.06L153.16,118.28L153.61,123.96L154.01,126.84L154.52,129.60L155.13,132.21L155.84,134.65L156.65,136.87L157.54,138.85L158.52,140.57L159.57,141.98L160.68,143.06L161.84,143.79L163.04,144.13L163.62,144.11L162.41,143.77L161.24,143.04L160.13,141.96L159.07,140.55L158.09,138.84L157.19,136.86L156.38,134.63L155.66,132.20L155.05,129.59L154.54,126.83L154.14,123.95L153.61,123.96"/><path d="M148.38,119.06L153.15,118.31L153.20,118.94"/><path d="M148.40,119.66L153.18,118.95"/><path d="M148.42,109.12L153.11,111.95L153.12,112.08L153.49,106.39L154.29,100.88L154.84,98.30L155.48,95.89L156.21,93.66L156.38,93.67L153.38,80.55"/><path d="M148.22,109.12L153.12,112.08L153.15,118.31"/><path d="M148.44,108.61L153.14,111.41"/><path d="M149.13,129.49L153.76,125.16L153.82,125.62L149.18,129.93"/><path d="M148.93,129.49L153.74,124.99L153.76,125.16"/><path d="M149.07,98.79L153.60,105.35L153.63,105.09L149.27,98.80"/><path d="M149.31,98.44L153.69,104.71L153.63,105.09"/><path d="M150.71,139.38L154.93,131.47L155.01,131.77L150.77,139.67"/><path d="M150.50,139.39L154.87,131.20L154.93,131.47"/><path d="M150.72,89.12L154.65,99.10L154.73,98.75L150.93,89.12"/><path d="M154.73,98.75L154.78,98.52L150.98,88.90"/><path d="M152.89,148.27L156.52,136.57L156.69,137.01L153.16,148.43"/><path d="M153.10,148.26L156.65,136.87"/><path d="M154.14,123.95L153.66,117.96L153.64,112.30L153.80,108.84L154.07,105.88L154.45,103.01L154.94,100.25L155.53,97.64L156.23,95.21L157.01,92.99L157.89,91.00L158.85,89.27L159.88,87.84L160.98,86.73L162.13,85.97L163.32,85.57L163.82,85.57L163.38,85.50L162.25,85.67L161.14,86.18L160.07,87.02L159.06,88.16L158.10,89.59L157.21,91.27L156.39,93.19L156.61,93.19L156.43,93.67"/><path d="M159.16,94.82L159.66,94.39L161.14,93.62L162.15,93.54L163.13,93.85L164.16,94.59L165.13,95.72L166.04,97.25L166.87,99.15L167.60,101.39L168.23,103.93L168.71,106.68L169.22,106.60L169.56,106.41L169.07,103.63L168.45,101.09L167.73,98.84L166.91,96.90L166.01,95.32L165.05,94.11L164.06,93.29L163.05,92.85L162.04,92.80L161.05,93.12L160.09,93.79L158.73,95.20L157.87,96.35L156.82,98.21L156.12,99.89L155.50,101.81L155.07,103.55L155.05,103.47L154.76,103.47L154.70,104.25L154.86,104.60L154.48,106.77L154.33,106.80L154.28,107.19L154.36,107.72L154.03,111.15L153.93,113.71L154.10,119.90L154.48,122.47L154.38,122.93L154.41,123.34L154.52,123.62L154.65,123.67L155.03,125.61L154.86,125.87L154.88,126.67L155.00,126.91L155.13,126.90L155.25,126.52L155.18,126.27L154.83,126.27"/><path d="M154.09,119.48L154.21,120.23"/><path d="M154.14,119.48L154.12,119.31"/><path d="M153.95,116.13L153.95,116.38"/><path d="M162.07,110.19L161.72,108.18L161.27,106.40L160.72,104.89L160.09,103.71L159.41,102.89L158.69,102.44L157.97,102.37L157.26,102.67L156.59,103.32L155.96,104.31L155.25,106.09L154.56,108.85L154.28,110.74L154.12,112.74L154.07,114.80L154.31,118.81L154.60,120.73L154.98,122.41L155.47,123.97L156.04,125.23L156.67,126.19L157.36,126.82L158.07,127.09L158.80,126.98L159.51,126.50L160.19,125.63L160.81,124.42L161.35,122.87L161.79,121.06L162.11,119.04L162.30,116.85L162.36,114.60L162.28,112.35L162.07,110.19L162.56,110.05L162.78,112.28L162.87,114.55L162.81,116.92L162.61,119.16L162.27,121.26L161.82,123.13L161.26,124.71L160.62,125.97L159.92,126.85L159.18,127.35L158.43,127.46L158.01,127.30L158.69,128.53L159.45,129.47L160.26,130.07L161.10,130.30L161.95,130.14L162.79,129.59L163.59,128.66L164.34,127.35L165.00,125.69L165.57,123.74L166.01,121.52L166.33,119.11L166.51,116.58L166.53,113.99L166.41,111.43L166.14,108.96L166.70,108.56L167.32,108.30L167.69,112.68L167.72,115.46L167.63,118.22L167.40,120.90L167.05,123.46L166.57,125.84L165.79,128.33L165.01,129.88L164.16,131.06L163.27,131.84L162.36,132.22L161.44,132.20L160.54,131.79L159.69,131.01L158.88,129.90L157.58,127.14"/><path d="M153.11,111.95L153.13,111.41"/><path d="M156.21,93.66L153.17,80.54"/><path d="M156.39,93.19L153.42,80.43"/><path d="M154.87,131.20L154.88,131.20"/><path d="M155.18,126.27L155.03,125.61"/><path d="M155.25,126.52L155.66,128.10L156.31,129.99L157.03,131.63L157.84,133.00L158.70,134.05L159.62,134.76L160.56,135.12L161.53,135.10L162.50,134.69L163.44,133.88L164.34,132.69L165.19,131.12L165.95,129.20L166.61,126.96L167.16,124.45L167.58,121.73L167.85,118.84L167.98,115.86L167.95,112.86L167.77,109.90L167.45,107.05L167.21,107.33L167.32,108.30"/><path d="M154.65,123.67L154.54,122.93L154.38,122.93"/><path d="M154.48,122.47L154.54,122.93"/><path d="M154.99,122.46L155.52,124.17L156.10,125.45L156.75,126.44L157.45,127.08L157.67,127.17"/><path d="M155.29,120.98L154.89,121.55L155.28,120.94L154.66,115.34L154.43,115.31L154.17,115.13L154.89,121.55"/><path d="M155.14,121.30L155.83,123.47L156.24,124.34L156.19,125.14L156.35,124.97L156.63,124.86L158.50,126.13L158.52,125.78L158.47,126.75L156.19,125.14"/><path d="M154.31,121.34L154.67,121.07"/><path d="M155.09,121.18L155.12,121.16"/><path d="M154.17,115.13L154.41,114.86L154.65,115.07L154.87,115.12L154.70,115.31L154.97,115.35L155.09,116.92L155.32,118.29L155.66,119.48L156.07,120.38L156.52,120.94L157.06,121.21L157.58,121.06L158.07,120.54L158.51,119.67L158.87,118.50L159.12,117.09L159.25,115.54L159.25,113.93L159.12,112.38L161.12,112.38L161.25,113.94L161.25,115.54L161.12,117.09L160.86,118.49L160.50,119.66L160.05,120.53L159.55,121.05L159.02,121.19L157.06,121.21"/><path d="M154.41,114.86L154.52,111.94L154.68,110.54L155.16,110.43L154.89,113.52L154.87,115.12L154.97,115.12L155.10,112.42L155.50,110.44L155.16,110.43L154.99,109.99L154.48,110.02L155.92,104.76L156.15,105.46L155.92,104.76"/><path d="M154.97,115.12L154.97,115.35"/><path d="M154.68,110.54L154.48,110.02"/><path d="M155.50,110.44L155.63,109.98L154.99,109.99L156.20,105.56L156.45,105.73L157.09,105.74L157.39,106.50L156.92,108.27L157.06,108.21L159.02,108.22L159.55,108.38L160.05,108.91L160.50,109.80L160.86,110.97L161.12,112.38"/><path d="M154.33,106.80L154.51,106.59"/><path d="M154.48,106.80L154.36,107.72"/><path d="M162.66,96.17L163.30,96.74L162.61,96.29L161.68,96.10L160.76,96.28L159.87,96.83L159.05,97.70L158.24,98.94L157.52,100.44L156.64,103.12L156.02,104.09L155.45,105.40L154.93,107.11"/><path d="M154.86,104.60L155.07,103.55"/><path d="M154.76,103.47L154.93,103.32L155.05,103.47"/><path d="M155.25,101.07L155.32,101.41L155.45,101.54L155.58,101.41L155.66,101.07L155.60,100.31L155.34,100.30L155.25,101.07"/><path d="M154.65,99.10L154.66,99.10"/><path d="M156.26,155.62L158.80,141.01L156.30,155.70"/><path d="M156.04,155.63L158.63,140.75L158.80,141.01"/><path d="M156.24,124.34L156.72,124.15L156.27,123.24L155.52,120.88L155.31,120.96"/><path d="M160.07,124.33L160.38,124.10L160.46,124.31L160.24,125.16L160.01,124.58L160.07,124.33L159.45,125.12L159.50,124.30L158.70,123.77L158.64,124.83L156.68,124.86L156.72,124.15L157.36,124.14L156.90,123.23L156.49,122.13L156.15,120.87L156.32,120.70"/><path d="M155.52,120.88L156.15,120.87"/><path d="M156.40,116.32L158.84,116.32L158.79,116.79L158.63,116.85L156.11,116.85L156.38,116.36L156.38,116.02L156.30,115.06L155.96,114.97L156.07,116.60L155.38,116.60L155.60,117.86L155.91,118.92L156.31,119.70L156.77,120.15L157.24,120.23L157.68,119.95L157.90,119.64L157.87,119.19L157.43,119.05L158.23,119.05L158.18,119.19L157.87,119.19"/><path d="M157.43,119.05L157.39,119.36L156.84,119.41L156.36,118.12L156.65,117.59L156.80,118.06L158.55,118.05L158.45,118.45L156.98,118.45L156.80,118.06"/><path d="M156.11,116.85L156.07,116.60"/><path d="M155.38,116.60L155.27,115.22L155.29,113.80L155.42,112.45L155.67,111.23L156.01,110.25L156.42,109.55L156.88,109.20L157.36,109.23L157.82,109.62L158.31,110.60L157.19,110.59L157.11,109.57L156.56,110.61L156.81,111.24L157.19,110.59"/><path d="M156.30,115.06L158.92,115.06L158.92,115.00L155.96,114.97"/><path d="M156.34,113.60L156.50,112.41L158.75,112.41L158.88,113.60L156.38,113.60L156.00,113.51L156.24,111.73L158.63,111.74L158.31,110.60"/><path d="M156.24,111.73L156.50,112.41"/><path d="M155.63,109.98L156.08,109.00L156.55,108.42L156.92,108.27"/><path d="M156.12,105.27L156.56,104.54L157.03,103.99L157.50,103.65L157.76,103.90L157.98,103.96L158.03,103.26L157.72,103.07L157.58,102.81L157.53,103.63"/><path d="M156.17,105.51L156.20,105.56"/><path d="M155.34,100.30L155.47,100.17L155.60,100.31"/><path d="M155.93,98.08L155.99,98.45L156.11,98.64L156.25,98.56L156.35,98.25L156.36,97.70L156.25,97.35L156.06,97.35L155.93,98.08"/><path d="M156.06,97.35L156.20,97.27L156.25,97.35"/><path d="M156.35,73.55L158.23,89.35L158.45,89.00L156.60,73.51"/><path d="M157.13,134.11L157.12,133.62L157.04,133.32L156.88,133.17L156.76,133.33L156.71,134.12L156.80,134.46L156.94,134.57L157.13,134.11L156.71,134.12"/><path d="M163.13,133.04L163.37,132.78L162.69,133.21L161.76,133.41L160.88,133.23L159.94,132.67L159.08,131.77L158.29,130.54L157.56,129.03L156.66,126.30"/><path d="M157.36,124.14L157.43,122.92L158.70,123.77"/><path d="M157.32,120.18L156.77,120.15L156.92,120.16"/><path d="M157.44,120.11L157.30,120.02L157.38,119.41"/><path d="M156.84,119.41L156.98,118.45"/><path d="M156.65,117.59L158.63,117.58L158.55,118.05"/><path d="M158.53,111.29L156.82,111.28"/><path d="M157.11,109.57L157.62,109.58L157.67,110.23L158.11,110.32L158.13,110.18"/><path d="M157.06,108.21L157.58,108.37L158.08,108.90L158.50,109.76L158.87,110.96L159.12,112.38"/><path d="M156.45,105.73L156.93,104.92L157.44,104.32L157.98,103.96L158.57,103.97L158.08,104.33L157.57,104.92L157.09,105.74"/><path d="M156.64,103.12L157.31,102.45L158.00,102.14L158.26,101.58L158.98,100.47L159.75,99.70L160.58,99.26L161.43,99.20L162.27,99.53L163.09,100.25L163.87,101.35L164.59,102.81L165.22,104.59L165.74,106.66L166.14,108.96"/><path d="M158.41,89.06L156.57,73.56"/><path d="M158.07,136.61L158.06,135.95L157.95,135.64L157.80,135.59L157.68,135.80L157.63,136.19L157.78,136.93L157.93,136.98L158.07,136.61L157.67,136.62"/><path d="M157.60,96.79L158.44,95.68L159.34,94.89L160.27,94.45L161.23,94.39L162.19,94.71L163.17,95.45L164.06,96.51L164.92,97.98L165.71,99.80L166.40,101.95L166.99,104.39L167.45,107.05L168.71,106.71L169.06,109.68L169.25,112.77L169.27,115.91L169.14,119.03L168.85,122.04L168.41,124.89L167.83,127.51L167.13,129.84L166.33,131.84L165.44,133.47L164.48,134.71L163.49,135.54L162.47,135.96L161.45,135.97L160.46,135.59L159.95,135.28L159.01,134.54L157.84,133.00L158.69,134.55L159.60,135.78L160.57,136.68L161.58,137.22L162.69,137.38L163.73,137.15L164.77,136.52L165.16,136.12L165.69,135.79L166.67,134.78L167.60,133.40L168.47,131.64L169.24,129.55L169.91,127.15L170.46,124.50L170.87,121.64L171.13,118.63L171.24,115.55L171.19,112.44L170.99,109.39L170.64,106.46L169.89,106.45L170.22,109.20L170.42,112.36L170.47,115.55L170.36,118.78L170.09,121.89L169.67,124.85L169.11,127.60L168.42,130.07L167.63,132.23L166.73,134.05L165.78,135.48L165.16,136.12"/><path d="M158.01,127.30L157.69,127.18"/><path d="M158.43,127.46L160.61,127.43L161.37,127.32L162.13,126.82L162.84,125.94L163.50,124.69L164.07,123.10L164.52,121.28L164.87,119.15L165.08,116.91L165.14,114.59L165.05,112.30L164.82,110.06L162.56,110.05L162.21,107.98L161.73,106.14L161.16,104.59L160.51,103.38L159.81,102.53L159.07,102.07L158.32,102.00L158.00,102.14"/><path d="M158.52,125.78L158.63,125.61L159.09,125.44"/><path d="M158.52,125.93L159.04,125.69L159.54,125.24L160.01,124.58"/><path d="M158.50,126.13L158.47,126.75"/><path d="M157.90,119.64L158.18,119.19"/><path d="M158.45,118.45L158.23,119.05"/><path d="M158.21,110.32L158.11,110.32"/><path d="M157.62,109.58L157.61,109.44"/><path d="M158.63,105.26L158.55,105.23L159.88,105.24L160.18,105.38L160.55,106.16L158.63,105.26"/><path d="M158.55,105.23L158.63,103.98"/><path d="M157.76,103.90L157.74,103.88"/><path d="M157.58,102.81L159.93,103.85L159.87,104.69L160.74,106.49L161.13,107.89L160.55,106.16"/><path d="M158.03,103.26L159.87,104.07L159.93,103.85"/><path d="M157.54,102.33L158.27,100.64L159.01,99.30L159.82,98.27L160.68,97.58L161.58,97.26L162.49,97.33L163.40,97.79L164.25,98.62L165.12,99.91L165.88,101.52L166.25,102.58L165.77,101.07L165.07,99.36L164.31,97.98L163.30,96.74"/><path d="M158.32,102.00L161.20,102.10L162.00,102.56L162.73,103.41L163.40,104.62L163.96,106.12L164.46,108.00L164.82,110.06"/><path d="M157.93,96.26L158.24,95.62L159.11,94.27L160.02,93.26L161.03,92.53L162.00,92.22L163.09,92.25L164.12,92.69L165.14,93.53L166.13,94.77L167.05,96.39L167.90,98.38L168.65,100.70L169.28,103.32L169.79,106.16L170.14,109.20L170.35,112.36L170.40,115.58L170.28,118.78L170.01,121.89L169.59,124.85L169.03,127.60L168.35,130.08L167.55,132.24L166.66,134.05L165.71,135.48L164.70,136.52L163.66,137.15L162.62,137.38"/><path d="M158.46,92.31L158.61,92.38L158.81,91.84L158.81,91.36L158.71,91.05L158.57,90.98L158.44,91.18L158.36,91.57L158.46,92.31"/><path d="M158.23,89.35L158.24,89.35"/><path d="M159.14,138.76L159.05,138.99L158.88,139.04L158.75,138.77L158.72,137.93L158.83,137.67L158.98,137.67L159.11,137.93L159.15,138.60L159.14,138.76L158.75,138.77"/><path d="M169.56,106.41L169.90,109.36L170.10,112.43L170.15,115.55L170.04,118.66L169.78,121.68L169.37,124.56L168.83,127.23L168.16,129.64L167.39,131.75L166.53,133.51L165.60,134.91L164.66,135.88L163.61,136.54L162.60,136.77L161.59,136.62L160.60,136.10L159.66,135.24L159.33,134.80"/><path d="M158.64,124.83L159.28,125.27L159.12,125.41"/><path d="M159.45,125.12L159.28,125.27"/><path d="M158.79,116.85L158.65,117.58"/><path d="M158.84,116.32L158.92,115.06"/><path d="M158.92,114.97L158.88,113.60"/><path d="M158.63,111.74L158.75,112.41"/><path d="M159.56,90.53L159.70,90.65L159.93,90.19L159.94,89.61L159.75,89.23L159.59,89.37L159.49,89.73L159.56,90.53"/><path d="M160.10,160.87L161.30,143.52L160.14,160.91"/><path d="M159.87,160.89L161.08,143.38L161.30,143.52"/><path d="M160.28,140.51L160.34,139.92L160.26,139.52L160.12,139.30L159.97,139.36L159.86,140.12L159.94,140.52L160.28,140.51L160.23,140.68L160.08,140.74L159.94,140.52"/><path d="M160.49,135.65L160.29,135.49"/><path d="M160.24,125.16L161.87,119.79L161.78,119.67L160.70,123.20L160.76,123.35L160.80,123.20L160.70,123.20"/><path d="M160.38,124.10L160.53,124.10L160.46,124.31"/><path d="M160.76,123.35L160.53,124.10"/><path d="M161.83,119.82L160.80,123.20"/><path d="M159.87,104.69L159.88,105.24"/><path d="M160.18,105.38L159.91,104.90"/><path d="M159.85,104.81L159.91,104.10"/><path d="M160.16,94.08L160.93,93.57"/><path d="M160.69,88.76L160.72,88.32L160.83,87.99L160.99,87.89L161.12,88.08L161.19,88.47L161.16,88.92L161.04,89.25L160.89,89.34L160.75,89.15L160.69,88.76"/><path d="M160.19,68.72L160.62,86.47L160.70,86.47L160.84,86.36L160.42,68.73"/><path d="M160.45,68.71L160.84,86.36"/><path d="M161.78,119.67L161.64,119.21L161.87,119.79"/><path d="M161.64,119.21L161.92,116.13L161.93,114.38L161.95,114.52L162.24,114.24L162.14,113.42L162.24,114.24"/><path d="M161.93,115.39L161.95,114.52"/><path d="M162.22,114.08L161.93,114.38"/><path d="M162.00,112.30L162.14,113.42L161.47,108.12L161.31,108.09L161.13,107.89"/><path d="M161.42,108.12L161.47,108.12"/><path d="M161.58,108.93L161.44,107.81L161.46,108.07"/><path d="M161.39,107.35L161.44,107.81L161.39,107.35L161.10,107.65"/><path d="M161.43,107.68L161.41,107.66"/><path d="M161.97,87.81L162.16,87.08L162.31,87.05L162.44,87.29L162.49,87.71L162.30,88.45L162.14,88.48L162.02,88.23L161.97,87.81"/><path d="M162.05,92.20L163.13,92.25L164.19,92.70L166.12,94.24L167.08,95.44L167.98,97.01L168.80,98.94L169.53,101.18L170.15,103.70L170.64,106.46"/><path d="M164.51,163.39L164.04,144.16L163.77,144.17L164.24,163.40"/><path d="M164.48,163.39L164.04,144.16"/><path d="M164.01,144.16L163.77,144.17"/><path d="M163.62,144.11L164.26,144.08L165.48,143.62L166.68,142.73L167.86,141.42L168.98,139.69L170.02,137.55L170.95,135.09L171.81,132.18L171.87,131.93L171.68,132.02L171.50,131.81L171.40,131.39L171.40,130.87L171.52,130.50L171.79,130.49L171.71,130.40L171.52,130.50"/><path d="M163.63,142.88L163.78,142.31L163.73,141.84L163.60,141.52L163.44,141.46L163.30,141.68L163.29,142.56L163.42,142.89L163.63,142.88L163.59,142.95L163.42,142.89"/><path d="M163.37,132.78L163.96,132.14L164.75,130.91L165.47,129.37L166.07,127.70L165.99,127.99"/><path d="M163.82,85.57L164.53,85.69L165.67,86.24L166.81,87.17L167.91,88.47L168.96,90.15L169.95,92.18L170.86,94.54L171.66,97.22L172.50,101.00L171.89,100.99L171.97,101.45L172.13,101.68L172.33,101.63L172.50,101.00L172.92,103.32L172.99,103.89L172.79,103.87L172.62,104.15L172.55,104.63L172.60,105.12L172.75,105.43L172.95,105.44L173.14,105.04L173.38,106.93L173.45,107.94L173.29,107.86L173.11,108.08L173.01,108.53L173.03,109.03L173.17,109.40L173.36,109.50L173.55,109.28L173.57,109.44L173.71,112.16L173.56,112.03L173.37,112.18L173.25,112.59L173.25,113.10L173.36,113.52L173.55,113.69L173.75,113.55L173.72,112.59L173.25,112.59"/><path d="M164.77,66.63L163.49,85.48L164.81,66.63"/><path d="M163.49,85.48L163.26,85.48L164.54,66.62"/><path d="M164.72,142.62L164.83,142.83L165.00,142.82L165.13,142.54L165.09,141.64L164.94,141.36L164.77,141.36L164.65,141.64L164.61,142.10L164.72,142.62"/><path d="M169.79,106.16L169.86,106.16L169.36,103.32L168.72,100.70L167.97,98.38L167.12,96.39L166.20,94.77L165.01,93.37"/><path d="M165.96,163.52L167.43,163.24L169.43,162.42L169.18,162.43L166.80,142.86L166.51,142.91L166.77,142.67L166.80,142.86"/><path d="M166.08,141.97L165.99,141.07L166.11,140.73L166.27,140.66L166.44,140.88L166.53,141.31L166.52,141.79L166.41,142.13L166.24,142.20L166.08,141.97"/><path d="M166.23,127.13L166.07,127.70"/><path d="M167.21,107.33L166.79,104.86L166.26,102.60"/><path d="M166.25,102.58L166.26,102.63"/><path d="M165.73,88.72L165.93,88.59L166.04,88.21L165.97,87.38L165.81,87.21L165.64,87.37L165.53,87.75L165.51,88.23L165.60,88.60L165.73,88.72"/><path d="M165.60,88.60L165.90,88.61"/><path d="M166.26,86.47L166.25,86.64L165.98,86.43L169.15,67.82L169.40,67.83L166.26,86.47"/><path d="M166.27,86.48L169.43,68.00L169.67,68.01L169.40,67.83"/><path d="M166.22,86.44L165.98,86.43"/><path d="M166.24,66.65L167.69,67.06L169.15,67.82"/><path d="M166.51,142.91L168.90,162.59"/><path d="M169.15,162.58L166.75,142.90"/><path d="M167.45,140.82L167.32,139.93L167.41,139.54L167.57,139.40L167.75,139.56L167.85,139.91L167.88,140.46L167.79,140.81L167.63,140.98L167.45,140.82"/><path d="M167.28,89.64L167.42,88.91L167.34,88.49L167.22,88.33L167.02,88.38L166.88,88.73L166.85,89.20L166.92,89.62L167.07,89.83L167.28,89.64L166.92,89.62"/><path d="M168.18,91.18L168.20,90.26L168.35,89.96L168.53,89.94L168.67,90.21L168.72,90.66L168.65,91.14L168.50,91.43L168.32,91.45L168.18,91.18L168.62,91.19"/><path d="M168.53,89.94L168.54,89.94"/><path d="M168.75,89.50L168.60,89.49L168.84,89.90L168.92,89.63L168.75,89.50"/><path d="M168.60,89.49L173.69,72.69L172.30,70.76L170.87,69.19L169.43,68.00"/><path d="M169.18,162.43L170.64,161.35L172.09,159.88L173.50,158.04L173.75,158.02L174.02,157.63L173.76,157.64L175.11,155.34L176.39,152.67L177.59,149.64L177.86,149.63L171.54,134.08L171.62,133.81L177.81,149.02L178.08,149.01L177.86,149.63"/><path d="M173.50,158.04L169.09,139.51L169.34,139.50L169.40,139.38L173.76,157.64"/><path d="M169.34,139.50L173.75,158.02"/><path d="M169.40,139.38L169.33,139.06L169.09,139.51"/><path d="M169.86,106.16L169.89,106.45"/><path d="M169.50,93.60L169.68,93.65L169.85,93.41L169.94,92.96L169.91,92.47L169.78,92.14L169.60,92.09L169.43,92.34L169.34,92.79L169.50,93.60"/><path d="M169.37,93.27L169.87,93.28"/><path d="M168.84,89.50L173.94,72.71L174.20,73.12L173.95,73.11L168.92,89.63"/><path d="M170.51,134.85L170.68,135.12L170.87,135.10L171.01,134.76L171.04,134.30L170.97,133.89L170.80,133.58L170.60,133.58L170.46,133.90L170.43,134.38L170.51,134.85"/><path d="M170.60,133.58L170.80,133.58"/><path d="M177.98,81.34L177.75,81.33L177.38,81.98L170.88,94.58L171.13,94.59L177.98,81.34L178.20,81.96L177.93,81.95L179.00,85.44L179.95,89.22L180.78,93.28L181.05,93.29L172.86,101.41L172.96,101.93L172.74,102.15L172.61,101.40L172.86,101.41"/><path d="M170.88,94.58L171.08,95.18L171.23,94.89L171.13,94.59"/><path d="M171.37,162.44L171.13,162.46L171.36,162.33"/><path d="M177.59,149.64L171.29,134.08L171.54,134.08"/><path d="M171.62,133.81L171.48,133.45L171.29,134.08"/><path d="M171.87,131.93L172.62,128.39L172.51,128.50L172.32,128.36L172.19,127.96L172.17,127.45L172.27,127.03L172.45,126.85L172.63,126.98L172.27,127.03"/><path d="M171.79,130.49L172.00,131.05L171.99,131.37"/><path d="M172.37,100.22L172.28,100.09L172.13,100.14L171.94,100.50L171.89,100.99"/><path d="M171.23,94.89L177.93,81.95"/><path d="M171.60,67.96L171.36,67.95L171.58,68.09"/><path d="M172.62,128.39L173.19,124.56L173.14,124.63L172.95,124.56L172.79,124.22L172.75,123.72L172.82,123.25L172.99,123.00L173.19,123.06L173.27,123.25L172.82,123.25"/><path d="M173.14,126.99L172.88,126.99L173.00,126.23L173.21,126.52L173.14,126.99L180.98,137.82L181.13,137.03L180.85,137.03L181.53,132.73L182.06,128.24L182.43,123.61L173.70,118.80L173.73,117.97L173.98,118.11L173.96,118.80L173.70,118.80"/><path d="M172.88,126.99L180.71,137.82L180.98,137.82"/><path d="M172.78,127.45L172.65,127.02"/><path d="M180.85,137.03L173.21,126.52"/><path d="M173.19,124.56L173.48,121.98L173.71,118.24L173.75,113.55"/><path d="M173.50,108.53L173.01,108.53"/><path d="M172.55,104.63L173.09,104.64"/><path d="M173.14,105.04L172.99,103.89"/><path d="M172.96,101.93L180.92,94.08L181.03,94.73L183.74,94.80"/><path d="M172.61,101.40L180.78,93.28"/><path d="M173.33,123.37L173.27,123.25"/><path d="M173.96,118.80L182.70,123.60L182.75,122.71L182.48,122.71L173.98,118.11"/><path d="M173.71,112.16L173.72,112.59"/><path d="M173.90,110.21L173.85,109.44L182.72,107.57L173.60,109.43L173.65,110.26L182.50,108.46L182.66,114.55L182.65,117.97L182.48,122.71"/><path d="M173.85,109.44L173.60,109.43"/><path d="M173.55,109.24L173.45,107.94"/><path d="M173.95,73.11L175.27,75.49L176.54,78.23L177.72,81.32"/><path d="M173.94,72.71L173.69,72.69"/><path d="M176.07,157.89L175.81,157.91L176.00,157.63"/><path d="M176.24,72.83L175.98,72.82L176.16,73.09"/><path d="M177.81,149.02L178.89,145.59L179.86,141.85L180.71,137.82"/><path d="M180.25,149.52L180.00,149.53L180.11,149.19"/><path d="M181.03,94.73L181.63,98.82L182.12,103.15L182.45,107.57"/><path d="M181.05,93.29L181.19,94.09L180.92,94.08"/><path d="M180.36,81.44L180.09,81.43L180.20,81.73"/><path d="M183.42,137.74L183.15,137.75L183.21,137.46"/><path d="M182.70,123.60L182.43,123.61"/><path d="M182.72,107.57L182.77,108.47L182.50,108.46"/><path d="M183.48,93.36L183.21,93.35L183.25,93.58"/><path d="M185.17,123.57L184.90,123.58L184.91,123.44"/><path d="M185.19,107.59L184.92,107.65"/></g><g style="stroke:#000000;stroke-width:0.247"><path d="M148.48,124.65L148.20,119.69L148.40,119.66L148.38,119.06L148.18,119.06L148.13,112.43L148.22,109.12L148.42,109.12L148.44,108.61L148.25,108.49L148.71,101.98L149.06,98.82L149.27,98.80L149.31,98.44L149.14,98.19L149.59,95.08L150.72,89.12L150.93,89.12L150.98,88.90L150.85,88.57L151.54,85.76L153.17,80.54L153.38,80.55L153.42,80.43L153.34,80.07L154.27,77.71L155.28,75.54L156.35,73.55L156.60,73.51L156.56,73.20L157.72,71.46L158.93,69.96L160.19,68.72L160.42,68.73L160.45,68.50L161.77,67.58L163.14,66.95L164.54,66.62L168.63,66.80L170.12,67.20L171.60,67.96L171.64,68.13L171.88,68.15L173.36,69.34L174.82,70.90L176.24,72.83L176.16,73.09L176.25,73.23L176.50,73.24L177.86,75.61L179.15,78.35L180.36,81.44L180.20,81.73L180.31,82.05L180.58,82.06L181.66,85.54L182.64,89.31L183.48,93.36L183.25,93.58L183.36,94.15L183.63,94.15L183.74,94.80L184.36,98.91L184.85,103.19L185.19,107.59L184.92,107.65L184.97,108.48L185.24,108.49L185.41,113.21L185.40,117.91L185.23,122.68L184.95,122.68L184.91,123.43L185.17,123.57L184.80,128.19L184.26,132.66L183.57,136.95L183.30,136.96L183.21,137.45L183.42,137.74L182.56,141.75L181.58,145.48L180.47,148.90L180.21,148.92L180.11,149.18L180.25,149.52L179.02,152.54L177.71,155.20L176.34,157.50L176.08,157.51L176.00,157.63L176.07,157.89L174.63,159.74L173.16,161.20L171.66,162.28L171.41,162.30L171.37,162.44L169.88,163.09L168.37,163.37L165.96,163.52L164.51,163.45L162.83,162.95L161.45,162.18L160.12,161.12L160.14,160.91L159.87,160.89L158.58,159.47L157.40,157.87L156.30,156.10L156.30,155.70L156.26,155.62L156.04,155.63L154.97,153.53L153.98,151.23L153.05,148.76L153.16,148.43L153.10,148.26L152.89,148.27L151.30,142.85L150.62,139.95L150.75,139.71L150.71,139.38L150.50,139.39L149.42,133.27L149.00,130.10L149.18,129.93L149.13,129.49L148.93,129.49L148.48,124.65"/></g></g><g id="PMI.0"><g><path style="stroke:#000000;stroke-width:0.280" d="M165.47,57.83L165.46,65.08"/></g><g><path style="fill:#000000" d="M164.46,65.09L166.46,65.09L165.46,67.09z"/></g><g><path style="fill:#ffffff" d="M154.62,57.84L176.32,57.84L176.32,53.33L154.62,53.33z"/><path style="stroke:#00ff00;stroke-width:0.350;stroke-opacity:0.98" d="M154.62,57.84L176.32,57.84L176.32,53.33L154.62,53.33z"/><text xml:space="preserve" fill="#000000" stroke-width="0" x="155.19" y="56.57" font-size="2.76" opacity="1.00" font-family="MS Shell Dlg">39 1878 003 727</text></g></g><g id="PMI.1"><g><path style="stroke:#000000;stroke-width:0.280" d="M117.23,49.27L117.30,56.35"/></g><g><path style="fill:#000000" d="M116.31,56.37L118.31,56.35L117.32,58.36z"/></g><g><path style="fill:#ffffff" d="M106.46,49.28L127.97,49.28L127.97,44.76L106.46,44.76z"/><path style="stroke:#00ff00;stroke-width:0.350;stroke-opacity:0.98" d="M106.46,49.28L127.97,49.28L127.97,44.76L106.46,44.76z"/><text xml:space="preserve" fill="#000000" stroke-width="0" x="107.03" y="48.01" font-size="2.73" opacity="1.00" font-family="MS Shell Dlg">18 3482 000 518</text></g></g><g/><g id="paperID" visibility="hidden" opacity="0.00" transform="scale(0.000100)"><path style="stroke:#000000;stroke-width:0.500;fill:#e6e6e6;fill-rule:evenodd" d="M-2000.00,-2000.00L2297.00,-2000.00L2297.00,2210.00L-2000.00,2210.00zM0.00,0.00L297.00,0.00L297.00,210.00L0.00,210.00z"/><path style="fill:#000000;fill-opacity:0.118" d="M3.00,210.00L297.00,210.00L297.00,3.00L300.00,3.00L300.00,213.00L3.00,213.00z"/></g></g></svg>
