<?xml version="1.0" encoding="UTF-8" standalone="no"?>
<svg xmlns="http://www.w3.org/2000/svg" xmlns:xlink="http://www.w3.org/1999/xlink" width="297.000mm" height="210.000mm" viewBox="0.000000 0.000000 297.000000 210.000000" stroke-linejoin="round" stroke-linecap="round" fill="none" fill-rule="evenodd"><desc>Composer Export</desc><script type="text/ecmascript"><![CDATA[
if(typeof(top) != "undefined")
{
	top.ShowPaper = ShowPaper;
}
function ShowHotSpot(evt,hotspotid)
{
	var svgDocument = evt.target.ownerDocument;
	var strId = "hotspot."+hotspotid;
	var hotspot = svgDocument.getElementById(strId);
	if(hotspot)
		hotspot.setAttribute("opacity",".5");
}
function HideHotSpot(evt,hotspotid)
{
	var svgDocument = evt.target.ownerDocument;
	var strId = "hotspot."+hotspotid;
	var hotspot = svgDocument.getElementById(strId);
	if(hotspot)
		hotspot.setAttribute("opacity","0");

	var toolTip = svgDocument.getElementById('ToolTip');
	if(toolTip)
		toolTip.setAttribute("visibility","hidden");
}
function ShowToolTip(evt,hotspotid,strTooltip)
{
	if(strTooltip=="")
	return;

	// change text
	var svgDocument = evt.target.ownerDocument;
	var tiptext = svgDocument.getElementById('ToolTipText');
	if( !tiptext )
	return;
	tiptext.firstChild.nodeValue = " " + strTooltip + "  " ;

	// show tooltip before, else some refresh issue

	var toolTip = svgDocument.getElementById('ToolTip');
	if(!toolTip)
	return;

	toolTip.setAttribute("visibility","visible");
	toolTip.setAttribute("opacity",".95");

	// move tooltip
	// get viewbox

	var root = svgDocument.documentElement;
	var vbox = (root.getAttribute("viewBox")).split(' ');
	var x0 = parseFloat(vbox[0]);
	var y0 = parseFloat(vbox[1]);
	var vboxW = parseFloat(vbox[2]);
	var vboxH = parseFloat(vbox[3]);

	// get default width of svg

	var strW = root.getAttribute("width");
	var svgW = parseFloat(strW);
	if(strW.indexOf('mm') != -1)
	svgW *= 3.779;

	var strH = root.getAttribute("height");
	var svgH = parseFloat(strH);
	if(strH.indexOf('mm') != -1)
	svgH *= 3.779;  	// 96 dpi  -> 96/25.4 = 3.779

	// update the viewbox / width / height if svg is embedded in html with zoom fit all
	var realx0 = x0;
	var realy0 = y0;
	var realvboxW = vboxW;
	var realvboxH = vboxH;
	var realsvgW = svgW;
	var realsvgH = svgH;

	if ((typeof(top) == "undefined") || (typeof(top.svgctl1) != "undefined")) // embedded in html
	{
		// get window size in pxl

		svgW = window.innerWidth;
		svgH = window.innerHeight;

		// calculate real viewbox

		realsvgW = svgW;
		realsvgH = svgH;
		if((svgW / svgH) > (vboxW / vboxH))
		{
			realvboxW = (vboxH * svgW) / svgH;
			realvboxH = vboxH;
			realx0 = x0 - (realvboxW - vboxW)/2 ;
		}
		else
		{
			realvboxH = (vboxW * svgH) / svgW;
			realvboxW = vboxW;
			realy0 = y0 - (realvboxH - vboxH)/2 ;
		}
	}

	// get user zoom/pan

	var newScale = root.currentScale;
	var translation = root.currentTranslate;

	// transform pxl to user unit

	var xPos = (((evt.clientX+10- translation.x)/newScale) * realvboxW)/realsvgW  + realx0 ;
	var yPos = (((evt.clientY+5- translation.y)/newScale) * realvboxH)/ realsvgH  + realy0 ;
	var scaleForWidth = ( (1 / newScale) * realvboxH) / realsvgH;

	// move tooltip

	toolTip.setAttribute("transform", "translate(" + xPos + "," + yPos + ")" );

	// resize tooltip

	var fontsize = 12;
	tiptext.setAttribute("font-size",fontsize*scaleForWidth);
	tiptext.setAttribute("y", fontsize*scaleForWidth);
	var tipBG = svgDocument.getElementById('ToolTipBG');
	var outline = tiptext.getBBox();
	if(tipBG)
	{
		tipBG.setAttribute("stroke-width", 1*scaleForWidth);
		tipBG.setAttribute("width", Number(outline.width) );
		tipBG.setAttribute("height", Number(outline.height) + fontsize*.5*scaleForWidth );
	}
	var ToolTipShadow = svgDocument.getElementById('ToolTipShadow');
	if(ToolTipShadow)
	{
		ToolTipShadow.setAttribute("width", Number(outline.width) );
		ToolTipShadow.setAttribute("height", Number(outline.height) + fontsize*.5*scaleForWidth );
		ToolTipShadow.setAttribute("x", 3*scaleForWidth);
		ToolTipShadow.setAttribute("y", 3*scaleForWidth);
	}
}
function ShowPaper()
{
  var svgDocument = getDocument();
  var paper = svgDocument.getElementById("paperID");
  if(paper)
  {
    paper.setAttribute("transform","scale(1)");
    paper.setAttribute("opacity","1");
    paper.setAttribute("visibility","visible");
  }
  var svg = svgDocument.getRootElement();
  if(svg)
  {
    svg.setAttribute("width","307.000mm");
    svg.setAttribute("height","220.000mm");
    svg.setAttribute("viewBox","-5.000000 -5.000000 307.000000 220.000000");
  }
}
]]></script><defs/><g><path style="fill:#ffffff" d="M296.97,209.92L0.08,209.92L0.08,0.08L296.97,0.08z"/><path style="fill:#01ff02" d="M210.46,83.07L210.46,84.84L210.16,85.34L209.66,90.20L209.36,90.70L207.70,91.18L205.79,91.53L206.68,85.61L207.66,83.65L210.23,82.85z"/><path style="fill:#fffe02" d="M98.39,87.21L99.02,87.43L97.93,92.04L97.30,92.47L98.23,93.05L96.25,102.95L93.04,121.96L91.52,135.47L89.56,135.07L88.20,135.61L87.66,136.45L87.14,136.53L89.02,121.96L91.97,105.09L95.71,88.21L96.77,86.59L98.53,86.09z"/><path style="fill:#9a1522" d="M132.49,77.04L128.95,88.77L125.99,100.28L123.29,113.67L123.59,114.81L124.46,115.27L124.46,116.97L117.16,119.04L115.26,119.38L116.15,115.08L119.84,101.63L123.92,88.56L128.48,76.52L129.16,75.06L132.14,74.56L133.33,74.56z"/><path style="fill:#fe00ff" d="M90.10,148.03L91.27,148.72L90.89,157.94L104.94,165.60L118.30,172.05L132.77,178.48L144.81,183.31L151.51,185.19L155.53,185.71L157.86,185.71L160.63,185.27L161.15,184.45L161.36,183.86L162.76,183.38L162.95,182.50L164.02,182.22L164.38,181.71L165.36,181.72L165.91,181.38L166.26,181.42L166.17,182.22L166.53,182.76L165.45,193.58L164.89,195.16L163.04,196.25L159.54,198.43L159.01,198.08L155.20,199.39L148.30,200.80L136.69,202.05L135.06,202.82L134.10,204.27L133.22,204.47L131.68,204.48L110.26,193.75L95.03,184.88L91.25,182.50L90.44,179.56L89.40,177.38L85.62,170.98L84.27,168.05L83.74,165.90L83.75,162.50L84.54,154.45L85.11,152.88L86.61,151.16L87.69,147.95L89.58,147.09L89.90,147.13z"/><path style="fill:#0000ff" d="M142.12,31.49L142.38,31.15L143.74,31.71L159.83,33.59L160.88,33.56L161.95,33.85L167.59,34.64L190.08,38.40L193.04,39.73L195.71,41.61L196.80,42.93L198.39,45.09L199.74,48.57L200.02,50.81L198.37,51.05L198.13,52.15L193.75,52.59L186.24,53.66L184.19,54.55L182.34,56.18L180.71,58.84L179.63,62.04L179.32,62.27L176.88,62.50L175.08,62.50L172.85,62.32L172.15,60.08L170.56,58.72L168.38,57.69L163.30,56.34L127.41,49.64L101.16,45.36L100.00,47.50L97.58,47.76L97.29,48.03L96.60,48.05L97.39,43.82L99.70,39.70L101.72,37.17L104.37,34.72L107.23,33.04L109.65,32.24L112.59,31.70L119.31,31.19L119.87,30.61L120.13,30.62L120.37,30.95L126.07,30.71L131.43,30.63z"/><path style="fill:#00fdff" d="M172.68,109.91L172.61,114.00L173.15,114.54L174.21,114.48L175.07,109.71L175.55,109.05L175.89,109.09L175.09,114.28L174.53,116.68L170.71,143.93L167.62,167.35L165.37,168.32L162.42,168.42L163.48,158.39L169.36,109.63L171.36,109.39z"/><path style="fill:#ff0000" d="M208.83,93.39L205.35,115.09L201.07,138.66L201.06,140.72L201.87,140.98L201.87,142.15L201.51,143.12L193.30,146.99L193.28,145.34L197.59,127.94L205.07,92.84L208.83,91.93z"/><path style="fill:#000000" d="M135.97,68.65L135.48,69.03L133.86,73.05L132.77,73.58L129.71,73.83L130.09,72.77L131.69,69.54L132.94,68.12L134.00,67.58L136.23,67.28z"/><path style="fill:#ffffff" d="M86.68,160.87L86.33,160.78L86.73,160.57z"/><path style="fill:#ffffff" d="M142.18,187.85L142.06,188.68L141.59,188.71L141.03,188.14L141.05,187.40L141.86,187.31z"/><g id="Actor_.0"><g style="stroke:#000000;stroke-width:0.049"><path d="M83.60,164.28L83.74,165.96L84.17,167.60L84.89,169.42L86.03,171.77"/><path d="M83.62,163.97L83.61,164.11"/><path d="M83.81,160.47L83.83,161.68L84.08,162.87L84.62,164.28L85.49,165.98L86.65,167.84L88.26,170.11L89.99,172.27L91.11,173.44L92.14,174.29L93.71,175.40L98.29,178.23L104.85,181.98L110.23,184.89L109.68,190.57L109.52,193.30"/><path d="M83.92,159.63L83.93,160.35L84.07,161.12L84.42,162.15L85.06,163.45L85.01,163.66L84.43,162.50L84.04,161.38L83.88,160.41L83.93,159.57"/><path d="M159.28,198.61L159.05,197.91L159.61,197.47L159.62,197.01L162.53,195.47L165.33,193.85L165.59,191.19L163.31,192.32L163.29,192.51L160.17,193.80L156.82,194.83L153.63,195.50L149.60,195.98L145.31,196.20L140.40,196.19L135.88,195.94L134.37,195.70L133.16,195.40L129.14,193.87L121.55,190.45L111.81,185.70L110.23,184.89L110.33,184.54L102.18,180.08L96.31,176.64L93.07,174.56L91.26,173.15L89.99,171.82L88.05,169.35L86.52,167.15L85.31,165.15L84.47,163.42L84.05,162.20L83.85,161.10L83.88,159.90"/><path d="M84.55,154.12L84.60,154.77L84.84,155.33L85.22,155.90L85.88,156.61L85.98,156.48L85.29,155.72L84.88,155.09L84.71,154.68L84.64,154.21L84.73,153.69L84.93,153.26L85.75,152.37L85.66,152.73L85.69,153.31L85.90,153.81L86.26,154.36L87.44,155.57L89.39,157.03L93.59,159.56L100.27,163.21L105.83,166.09L113.20,169.73L112.99,171.01L112.99,170.85"/><path d="M84.70,155.06L84.67,154.97"/><path d="M84.65,153.71L84.66,153.68"/><path d="M84.61,153.84L84.64,153.72"/><path d="M84.79,153.41L84.79,153.40"/><path d="M160.90,192.95L163.36,191.93L163.39,191.69L160.93,192.70L160.90,192.95L157.43,194.02L153.86,194.70L150.23,195.01L147.17,195.05L144.42,194.98L137.94,194.52L135.02,194.06L132.15,193.14L128.79,191.74L123.48,189.35L111.89,183.75L103.29,179.13L95.03,174.31L92.35,172.51L91.39,171.70L90.29,170.60L88.55,168.59L86.97,166.60L85.77,164.91L85.01,163.66"/><path d="M106.66,167.71L112.44,170.58L112.40,170.68L106.58,167.84L106.66,167.71L96.22,162.19L89.93,158.56L87.70,156.98L86.18,155.52L85.73,154.87L85.49,154.30L85.45,153.88L85.56,153.25L85.37,153.78L85.37,154.27L85.50,154.72L85.82,155.29L87.06,156.63L88.96,158.09L91.73,159.83L96.05,162.27L106.58,167.84L105.95,168.14L105.86,168.29L97.57,163.93L92.95,161.37L89.65,159.42L87.39,157.89L85.88,156.61L85.06,163.45L86.87,166.16L89.28,169.17L90.68,170.73L91.68,171.69L92.75,172.54L94.38,173.65L101.86,178.07L110.96,183.01L110.33,184.54L113.64,186.22L121.28,189.91L129.23,193.49L132.89,194.90L134.23,195.27L135.71,195.51L139.77,195.77L144.30,195.81L148.91,195.62L152.44,195.27L155.61,194.73L158.53,193.98L162.13,192.66L163.30,192.14L163.36,191.93"/><path d="M85.47,153.69L85.49,153.59"/><path d="M87.72,149.41L87.77,149.37L87.15,149.77L86.97,150.82L86.79,151.16L86.20,151.85L86.05,152.84L85.81,153.19L85.86,152.46L86.20,151.85L86.07,151.82"/><path d="M85.56,153.25L85.67,152.65"/><path d="M85.80,153.21L86.14,154.01L86.27,152.62L85.80,153.22"/><path d="M85.75,152.37L85.77,152.33"/><path d="M85.55,152.51L85.57,152.49"/><path d="M88.48,175.87L88.49,175.76L86.02,171.65"/><path d="M86.56,160.45L86.58,159.79L86.46,159.67L86.22,160.04L86.10,160.09L86.19,159.76L86.40,159.64L86.22,160.04"/><path d="M86.61,160.39L86.58,159.79"/><path d="M86.10,160.09L86.22,160.86L86.36,161.04L86.55,161.05"/><path d="M86.33,160.84L86.21,160.07"/><path d="M86.45,159.66L86.40,159.64"/><path d="M86.63,159.87L86.74,160.28"/><path d="M85.98,156.48L87.16,157.50L88.81,158.68L93.48,161.47L103.12,166.68L112.54,171.42L112.45,171.53L111.73,171.22L105.86,168.29"/><path d="M87.02,152.02L86.78,154.82L86.14,154.01"/><path d="M86.95,152.07L86.72,154.75"/><path d="M86.78,154.82L87.64,155.64L89.37,154.84L89.40,155.26L89.34,155.26L89.47,152.74L89.77,148.23L88.08,148.91L88.42,148.69L89.77,148.13L89.87,147.09L89.94,147.11L89.86,148.14L89.92,148.22"/><path d="M86.38,152.52L87.07,151.95L86.39,152.48L86.02,152.90"/><path d="M86.27,152.62L86.35,152.55"/><path d="M87.01,173.36L87.00,173.47"/><path d="M87.64,155.64L88.99,156.68L90.82,157.87"/><path d="M87.07,151.95L87.47,151.54L87.67,151.16L87.82,149.35"/><path d="M87.04,152.01L87.56,151.42L87.73,150.73"/><path d="M87.75,150.71L87.86,149.47"/><path d="M87.50,149.54L87.06,149.79"/><path d="M87.84,149.33L87.75,149.36L87.89,149.29L87.35,149.06"/><path d="M87.87,149.32L88.00,148.18L87.69,147.98"/><path d="M87.71,149.38L87.30,149.14"/><path d="M87.69,149.39L87.28,149.64L87.40,149.06L87.56,148.97L87.54,149.04L87.89,149.23"/><path d="M87.58,148.99L87.58,149.07"/><path d="M87.59,148.95L87.60,148.93"/><path d="M87.28,149.64L87.25,149.66"/><path d="M87.92,149.19L87.61,149.03L87.71,148.02"/><path d="M89.87,147.09L87.89,147.95L87.84,148.00L88.10,148.15L88.00,148.18"/><path d="M87.84,147.98L87.84,148.00"/><path d="M88.49,175.76L89.54,177.50L90.21,178.79L90.69,180.04L90.96,181.32"/><path d="M89.27,156.87L89.34,155.26L87.95,155.89"/><path d="M87.89,149.29L87.88,149.46"/><path d="M88.04,148.92L88.02,149.24L87.90,149.35"/><path d="M88.10,148.15L88.05,148.87"/><path d="M88.25,148.82L88.24,148.83"/><path d="M89.40,155.26L89.33,156.91"/><path d="M89.42,154.84L89.53,152.73L89.48,153.68"/><path d="M89.86,148.13L89.53,152.73"/><path d="M89.72,148.21L89.85,148.03L89.92,147.10"/><path d="M90.10,178.56L90.08,178.64"/><path d="M90.00,148.09L89.97,148.04"/><path d="M91.32,148.65L90.02,148.08L90.01,148.24"/><path d="M89.97,148.06L89.97,148.08"/><path d="M89.91,148.22L89.89,148.21"/><path d="M89.78,148.20L89.85,148.20"/><path d="M89.93,148.22L89.96,148.22"/><path d="M89.94,147.11L90.04,147.07"/><path d="M91.14,182.31L91.19,182.24L91.25,182.49"/><path d="M91.25,182.36L96.28,185.51L96.31,185.66"/><path d="M91.19,182.24L91.02,181.32"/><path d="M90.73,157.81L91.28,148.65"/><path d="M96.28,185.51L102.64,189.28L109.48,193.13L116.91,197.02L124.84,200.99L124.86,201.14"/><path d="M109.50,193.29L109.42,193.24"/><path d="M109.57,193.32L109.82,193.46"/><path d="M109.55,193.32L109.65,193.37"/><path d="M147.84,195.06L147.89,194.80L142.56,194.63L137.78,194.25L135.72,193.95L133.61,193.41L130.69,192.29L124.55,189.58L116.86,185.95L110.96,183.01L112.45,171.57L123.14,176.57L135.95,182.15L142.96,184.93L146.01,185.97L148.74,186.77L151.60,187.44L153.98,187.82L156.26,187.98L158.53,187.91L160.77,187.58L163.11,186.93L163.28,185.55L163.08,185.49L163.26,185.69L163.16,186.14L162.92,186.57L162.49,186.96L161.96,187.27L161.77,187.34L161.72,187.16L159.75,187.56L158.00,187.75L155.73,187.77L153.47,187.57L150.94,187.11L148.16,186.41L144.55,185.28L140.71,183.87L135.41,181.71L127.01,178.09L119.54,174.72L120.03,174.16L113.85,171.26L113.28,171.73L119.54,174.72L119.45,174.88"/><path d="M111.83,171.07L112.36,170.71L112.90,170.98L112.95,170.93L112.97,170.86L112.44,170.58"/><path d="M113.24,171.76L112.54,171.42L112.97,171.12L113.03,171.02L112.91,171.08L112.94,171.01"/><path d="M112.97,170.98L112.97,170.94"/><path d="M113.47,169.80L113.18,169.91L113.06,171.15L113.22,171.13L113.11,171.04L113.08,170.86L113.23,169.85L113.16,169.82"/><path d="M113.00,171.13L112.94,171.10"/><path d="M113.17,171.01L113.31,171.00L113.26,171.09L113.64,171.33L118.14,173.46L128.41,178.09L137.90,182.13L144.15,184.54L148.64,185.95L152.38,186.80L153.94,187.04L155.66,187.18L157.33,187.17L158.75,187.06L158.73,185.72L155.99,185.82L153.37,185.57L149.85,184.84L146.17,183.78L140.65,181.79L132.67,178.50L123.06,174.31L113.57,169.91L113.19,170.97"/><path d="M113.41,170.49L113.31,171.00L113.85,171.26"/><path d="M112.98,170.87L113.08,170.19L112.98,170.87"/><path d="M112.99,170.84L113.00,170.74"/><path d="M113.28,170.47L113.40,169.87L113.28,170.47"/><path d="M113.08,170.19L113.13,169.81"/><path d="M113.53,169.89L113.40,169.87"/><path d="M113.20,169.73L113.20,169.77"/><path d="M113.36,169.87L113.23,169.85"/><path d="M120.03,174.16L128.49,177.95L137.98,181.99L143.60,184.17L147.26,185.38L151.26,186.42L153.24,186.78L155.08,186.98L156.68,187.02L158.25,186.93L159.92,186.70L161.24,186.41L161.25,186.58L158.75,187.06"/><path d="M124.84,200.99L132.14,204.46L132.59,203.69L132.83,203.83L134.45,203.60"/><path d="M132.19,204.41L132.40,204.60L134.16,204.19"/><path d="M132.08,204.44L132.16,204.62"/><path d="M132.59,203.69L133.08,203.03L133.70,202.51L134.42,202.15L134.65,202.34L133.98,202.68L133.41,203.16L132.91,203.83L132.44,204.66"/><path d="M132.47,204.65L133.70,204.35L132.74,204.58"/><path d="M133.98,204.44L133.99,204.28L134.07,204.27"/><path d="M133.93,204.30L133.70,204.35"/><path d="M134.11,204.26L134.15,204.21"/><path d="M136.02,202.21L134.65,202.34L135.67,202.06L137.66,201.79L137.49,201.63L137.04,201.63L135.47,201.85L134.42,202.15"/><path d="M137.47,201.58L140.50,201.33L140.63,201.53L137.66,201.79L138.83,201.77"/><path d="M143.77,201.34L142.95,201.34L146.03,201.01L148.77,200.59L151.48,200.05L153.74,199.48L153.65,199.26L151.20,199.88L148.87,200.35L145.82,200.81L142.77,201.14L142.90,201.34L140.68,201.54L141.65,201.54"/><path d="M140.50,201.33L142.77,201.14"/><path d="M141.18,187.18L140.94,187.38L140.83,187.68L140.94,188.26L141.34,188.67L141.68,188.75L141.92,188.67"/><path d="M140.92,187.64L140.83,187.68"/><path d="M160.93,192.70L157.85,193.67L154.81,194.31L151.51,194.68L147.89,194.80L148.80,186.58"/><path d="M153.65,199.26L156.34,198.38L158.91,197.31L158.95,197.57L160.44,196.84L158.70,198.14"/><path d="M153.93,199.66L153.77,199.50L156.61,198.55L158.91,197.59L158.97,197.94L158.88,198.04"/><path d="M159.05,197.91L159.03,197.92"/><path d="M158.91,197.31L159.62,196.97"/><path d="M158.68,185.66L158.73,185.72L159.69,185.60L160.69,185.33L160.94,185.09L161.12,184.72L161.25,184.03L161.19,183.82L162.41,183.50"/><path d="M159.61,197.47L160.44,196.84"/><path d="M161.34,197.17L161.43,196.18L160.48,196.81L160.47,196.54"/><path d="M160.47,196.84L160.98,196.47L160.77,196.62"/><path d="M161.03,196.42L161.50,196.08L161.43,196.15"/><path d="M160.98,196.47L160.84,196.57"/><path d="M161.24,186.41L161.96,186.00L162.20,185.66L162.28,185.22L162.46,185.24L162.65,183.73L163.27,183.96L163.34,183.81L163.45,183.87L163.28,185.51"/><path d="M161.29,186.57L162.13,186.08L162.35,185.75L162.46,185.24L163.08,185.49L162.88,186.28L162.23,186.90L161.72,187.16L161.29,186.57"/><path d="M161.25,184.03L162.47,183.71L162.28,185.22"/><path d="M161.63,197.01L161.72,196.02L161.49,196.03"/><path d="M162.35,195.64L162.84,195.35L161.72,195.98L161.58,195.98"/><path d="M162.32,195.65L161.72,195.98L161.73,195.91"/><path d="M161.48,196.12L161.56,196.07"/><path d="M161.59,196.05L161.68,195.98"/><path d="M162.88,195.34L163.14,195.19L162.88,195.34"/><path d="M163.14,195.19L165.07,194.06L165.04,195.03"/><path d="M163.11,186.93L164.47,186.41L166.14,185.61L165.68,190.17L163.44,191.31L163.39,191.69"/><path d="M163.08,185.49L163.27,183.96L163.47,183.98L165.00,183.43L166.45,182.77L166.44,182.69L166.35,182.58L164.85,183.25L163.38,183.78L162.70,183.51"/><path d="M162.78,183.42L163.43,183.65L163.63,182.44L163.48,182.45L163.26,183.69L163.31,183.71L164.43,183.38L166.14,182.64L166.27,181.37"/><path d="M163.26,183.69L162.74,183.48"/><path d="M162.67,183.50L162.59,183.49L162.65,183.66L162.47,183.71L162.65,183.73"/><path d="M162.47,183.71L162.58,183.47"/><path d="M162.45,183.49L162.57,183.47"/><path d="M162.97,182.27L163.44,182.44"/><path d="M163.31,192.32L163.33,192.13"/><path d="M166.14,182.51L164.95,183.09L163.53,183.62L163.51,183.70"/><path d="M163.63,182.44L166.24,181.40"/><path d="M164.27,181.63L164.86,181.90L164.21,182.15"/><path d="M165.10,194.04L165.14,194.02"/><path d="M164.89,181.89L164.86,181.90"/><path d="M165.36,193.82L165.30,193.92"/><path d="M165.66,190.64L165.59,191.19L165.62,191.13"/><path d="M165.63,190.70L165.68,190.17"/><path d="M166.14,185.61L166.49,182.73"/><path d="M166.14,182.64L166.15,182.46"/><path d="M166.15,182.51L166.15,182.52"/><path d="M166.15,182.49L166.40,182.57"/><path d="M166.07,181.36L166.04,181.38"/><path d="M166.08,181.32L166.05,181.31"/></g><g style="stroke:#000000;stroke-width:0.247"><path d="M83.93,159.57L83.94,159.41L83.80,160.65L83.60,164.81L83.74,166.04L84.10,167.47L84.84,169.41L85.88,171.52L89.29,177.19L90.07,178.63L90.70,180.26L91.20,182.45L99.43,187.53L109.52,193.30L120.84,199.15L132.16,204.62L132.44,204.66L133.99,204.28L133.98,204.44L134.13,204.43L134.15,204.21L134.43,203.64L134.98,202.86L135.61,202.39L136.51,202.07L138.41,201.81L145.40,201.17L150.33,200.43L153.26,199.82L155.93,199.13L158.00,198.44L159.03,197.92L159.28,198.61L161.14,197.30L165.07,194.97L165.14,194.02L165.37,193.79L166.49,182.73L166.42,182.59L166.17,182.47L166.25,181.31L166.05,181.31L166.04,181.38L164.89,181.89L164.31,181.63L164.21,182.15L163.59,182.36L163.06,182.21L162.97,182.27L162.74,183.48L162.49,183.48L161.19,183.82L161.02,184.72L160.77,185.15L160.33,185.39L159.48,185.56L156.94,185.77L154.07,185.62L150.75,185.00L147.07,184.01L142.29,182.36L136.04,179.86L126.44,175.75L116.74,171.35L110.28,168.25L103.87,165.02L95.66,160.65L90.82,157.87"/><path d="M83.95,159.39L84.59,153.90"/><path d="M90.82,157.87L91.37,148.74L89.97,148.04L90.04,147.07L89.86,147.03L89.58,147.13L87.72,147.95L87.60,148.91L87.32,149.09L87.25,149.66L87.02,149.86L86.78,150.96L85.78,152.30L84.95,153.13L84.57,153.99"/><path d="M84.60,153.87L84.61,153.84"/><path d="M86.76,160.45L86.67,160.90L86.50,161.03L86.33,160.84L86.74,160.28L86.76,160.45"/><path d="M109.57,193.32L109.50,193.29L109.55,193.32"/><path d="M133.93,204.30L133.99,204.28"/><path d="M141.11,188.34L140.92,187.77L141.03,187.33L141.24,187.15L141.69,187.22L141.92,187.40L142.15,187.81L142.19,188.20L142.10,188.48L141.92,188.67L141.67,188.70L141.34,188.57L141.11,188.34"/></g></g><g id="Actor_.1"><g style="stroke:#000000;stroke-width:0.049"><path d="M162.34,168.53L169.07,112.15L169.30,109.64L170.90,109.61L170.94,109.61L170.96,109.77L170.92,110.29L170.67,112.73L170.52,112.72L170.51,112.79L170.66,112.81L170.67,112.73L171.48,112.89L171.49,112.83L171.66,112.85L164.58,168.50"/><path d="M163.76,168.25L168.39,130.98L168.31,130.97L168.23,130.96L163.57,168.24"/><path d="M164.38,168.49L169.14,131.17L168.39,130.98L170.66,112.81"/><path d="M167.59,167.39L168.42,160.44L169.38,153.19L172.58,130.47L174.82,114.01L174.50,114.39L174.04,114.68L173.54,114.75L173.01,114.71"/><path d="M168.99,112.86L170.51,112.79L168.23,130.96"/><path d="M169.32,131.19L169.14,131.17L170.29,122.12L171.48,112.89L171.65,112.92"/><path d="M169.30,109.64L169.26,109.59"/><path d="M170.52,112.72L170.83,109.61"/><path d="M171.83,113.59L172.04,114.02L172.25,114.20L172.67,114.34L172.59,114.43L172.16,114.28L171.93,114.08L171.75,113.75L171.69,113.51L171.81,113.50L171.83,113.59"/><path d="M171.49,112.83L171.81,109.87L170.97,109.62"/><path d="M171.69,113.51L171.70,113.25L171.81,113.27L171.86,112.86L171.75,112.85L171.70,113.25"/><path d="M172.97,114.36L172.60,114.31L172.37,114.06L172.26,113.61L171.82,113.50L171.81,113.27L172.26,113.40L172.31,112.99L171.86,112.86L172.16,109.87L172.05,109.86L171.75,112.85L171.66,112.85L171.97,109.88L171.81,109.87L171.93,109.70L171.97,109.88"/><path d="M171.13,109.44L171.94,109.70L172.05,109.86L171.99,109.87"/><path d="M171.04,109.61L171.05,109.58"/><path d="M172.59,114.43L172.91,114.45"/><path d="M172.25,113.60L172.26,113.40"/><path d="M172.85,114.22L172.70,114.21L172.97,114.22"/><path d="M172.77,114.23L172.63,114.20"/><path d="M172.75,114.35L172.68,114.34"/><path d="M172.31,112.99L172.64,109.91L172.74,109.88"/><path d="M172.16,109.87L172.14,109.74L171.94,109.70"/><path d="M172.64,109.91L172.14,109.74"/><path d="M173.54,114.75L173.41,114.73L173.78,114.74"/><path d="M174.82,115.92L174.60,116.00L174.87,113.91L174.82,114.01"/><path d="M174.58,116.10L174.60,116.00"/><path d="M174.67,113.95L174.65,114.04L174.68,113.96L174.38,113.88L174.34,113.72"/><path d="M174.65,114.05L174.40,114.33L174.46,113.92"/><path d="M174.55,113.59L174.54,113.65L174.59,113.28L174.55,113.59"/><path d="M174.54,113.65L174.87,113.73L174.88,113.90"/><path d="M174.40,114.33L174.24,114.47"/><path d="M174.59,113.28L174.72,112.72L175.07,110.19L175.25,109.34L175.07,110.19"/><path d="M174.72,112.72L174.59,112.70"/><path d="M175.23,109.33L175.08,109.29"/><path d="M175.25,109.34L175.26,109.29L175.23,109.32"/><path d="M175.26,109.29L175.90,109.09"/></g><g style="stroke:#000000;stroke-width:0.247"><path d="M162.26,168.46L162.34,168.53L163.69,168.24L164.38,168.49L164.56,168.50L166.60,167.81L167.63,167.34L168.43,160.60L169.31,153.89L174.58,116.10L174.75,116.04L174.82,115.92L175.40,111.61L175.90,109.09L175.77,109.06L175.08,109.29L174.59,112.70L174.37,113.58L174.24,114.47L173.97,114.63L173.46,114.73L172.96,114.69L172.91,114.45L172.97,114.36L172.97,114.22L172.65,114.20L172.54,114.14L172.42,113.95L172.36,113.73L172.36,113.41L172.74,109.88L171.28,109.37L171.13,109.44L171.05,109.58L169.26,109.59L169.03,112.14L162.26,168.46"/></g></g><g id="Actor_10.0"><g style="stroke:#000000;stroke-width:0.049"><path d="M131.23,70.23L131.26,70.26L130.89,71.01L130.40,72.07L129.93,73.15L129.63,73.87L129.59,73.85"/><path d="M129.70,74.03L129.68,74.01L129.66,73.98L129.65,73.95L129.66,73.90L129.92,73.27L130.18,72.66L130.58,71.75L130.86,71.15L131.30,70.26L131.26,70.26L131.38,70.03L131.64,69.60L131.78,69.39L132.00,69.10L132.24,68.82L132.42,68.64L132.59,68.47L132.84,68.26L132.78,68.31"/><path d="M129.66,73.88L129.63,73.87L129.62,73.93L129.64,73.99L129.67,74.02"/><path d="M133.38,73.08L133.36,73.02L133.36,72.98L133.42,72.96L133.48,72.91L133.53,72.85L133.57,72.76L133.65,72.79L133.62,72.88L133.55,72.98L133.49,73.03L133.40,73.08L130.40,73.57L130.34,73.57L130.30,73.55L130.26,73.53L130.22,73.47L130.19,73.36L130.19,73.23L130.23,73.11L130.26,73.12L130.77,71.94L131.31,70.79L131.58,70.24L131.70,70.03L131.88,69.74L132.08,69.46L132.29,69.20L132.58,68.89L132.81,68.67L133.13,68.42L133.45,68.22L133.71,68.08L133.87,68.01L134.04,67.96L134.20,67.91L134.36,67.88L134.38,67.85L134.41,67.82L134.12,67.88L133.83,67.99L133.52,68.13L133.25,68.30L132.97,68.50L132.65,68.78L132.42,69.02L132.13,69.35L131.94,69.61L131.76,69.88L131.60,70.15L131.50,70.34L131.10,71.16L130.80,71.81L130.51,72.45L130.23,73.11"/><path d="M130.40,73.57L130.39,73.53L130.39,73.47L130.34,73.47L130.29,73.45L130.26,73.41L130.23,73.36L130.22,73.25L130.26,73.12"/><path d="M130.39,73.47L133.36,72.98"/><path d="M131.30,70.26L131.47,69.94L131.73,69.53L131.94,69.24L132.25,68.88L132.49,68.63L132.83,68.33L133.08,68.13L133.42,67.91L133.69,67.77L133.87,67.68L134.06,67.61L134.33,67.53L134.51,67.50L136.35,67.23L136.24,67.20L135.36,67.33"/><path d="M131.53,70.35L131.50,70.34"/><path d="M133.13,71.15L133.15,71.03L133.13,70.95L133.09,70.89L133.05,70.87L133.01,70.86L132.96,70.86L132.91,70.88L132.86,70.91L132.81,70.96L132.72,71.07L132.67,71.20L132.57,71.19L132.41,71.14L132.32,71.13L132.30,71.27L132.32,71.39L132.36,71.49L132.42,71.56L132.49,71.61L132.58,71.62L132.68,71.60L132.78,71.55"/><path d="M132.67,71.20L132.66,71.30L132.68,71.38L132.70,71.43L132.76,71.47L132.80,71.48L132.88,71.47L132.95,71.42L133.02,71.37"/><path d="M132.51,71.18L132.54,71.09L132.59,70.98L132.66,70.87L132.75,70.78L132.84,70.73L132.94,70.70L132.99,70.70L133.07,70.74L133.00,70.69L132.94,70.67L132.89,70.68L132.81,70.70L132.73,70.75L132.65,70.81L132.58,70.90L132.55,70.97L132.50,71.08L132.48,71.16L132.47,71.23L132.48,71.33L132.49,71.39L132.53,71.46L132.58,71.51L132.64,71.54L132.57,71.50L132.54,71.45L132.52,71.41L132.50,71.29L132.51,71.18"/><path d="M132.64,71.54L132.68,71.55L132.75,71.55L132.85,71.53L132.95,71.47L133.04,71.38"/><path d="M132.32,71.13L132.35,71.02L132.38,70.93L132.48,70.77L132.60,70.64L132.67,70.59L132.74,70.55L132.80,70.53L132.87,70.52L132.93,70.53L133.01,70.56L133.05,70.60L133.09,70.66L133.11,70.72L133.13,70.80"/><path d="M132.61,71.53L132.61,71.53L132.62,71.53"/><path d="M133.66,72.79L133.91,72.11L134.17,71.43L134.44,70.76L134.82,69.88L134.85,69.78L134.86,69.69L134.86,69.62L134.84,69.56L134.80,69.51L134.76,69.49L134.71,69.48L134.54,69.50L134.49,69.48L134.46,69.43L134.44,69.36L134.45,69.28L134.56,68.83L134.48,68.79L134.36,69.25L134.45,69.26"/><path d="M133.57,72.76L134.05,71.49L134.29,70.91L134.62,70.12L134.73,69.87L134.81,69.90"/><path d="M133.32,71.46L133.32,71.49L133.34,71.52L133.37,71.53L133.41,71.50L133.44,71.48L133.46,71.42L133.46,71.37L133.45,71.35L133.41,71.34L133.37,71.36L133.33,71.41L133.32,71.46"/><path d="M133.32,71.44L133.29,71.44L133.31,71.40L133.34,71.35L133.39,71.32L133.41,71.31L133.44,71.32L132.96,71.06"/><path d="M133.46,71.39L133.46,71.36L133.44,71.32"/><path d="M133.46,71.37L133.46,71.40"/><path d="M133.40,71.52L133.35,71.54L133.31,71.53L133.29,71.49L133.29,71.44L132.82,71.18L132.85,71.12L132.89,71.08L132.93,71.06L132.96,71.06"/><path d="M132.82,71.18L132.82,71.24L132.84,71.27L133.31,71.53"/><path d="M133.07,70.74L133.10,70.76L133.14,70.82L133.18,70.93L133.18,71.03L133.17,71.11L133.14,71.13"/><path d="M133.03,70.71L133.03,70.71"/><path d="M133.17,71.11L133.16,71.17"/><path d="M133.01,68.13L133.06,68.10L132.84,68.26"/><path d="M133.06,68.10L133.14,68.04L133.07,68.09"/><path d="M133.45,68.17L133.45,68.18"/><path d="M133.32,68.26L133.37,68.22"/><path d="M133.43,67.86L133.45,67.85L133.15,68.03L133.21,67.99"/><path d="M132.92,68.20L132.96,68.17"/><path d="M133.25,67.97L133.29,67.94"/><path d="M133.37,67.89L133.36,67.90"/><path d="M133.45,67.84L133.69,67.72L133.64,67.75"/><path d="M133.59,67.77L133.62,67.76"/><path d="M134.01,68.92L134.06,68.94L134.13,68.94L134.23,68.92L134.33,68.87L134.43,68.77L134.24,68.66L134.22,68.64L134.21,68.59L134.22,68.55L134.25,68.49L134.30,68.45L134.33,68.44L134.35,68.44L134.53,68.54L134.54,68.43L134.53,68.35L134.56,68.31L134.57,68.29L134.54,68.22L134.52,68.18L134.45,68.11L134.41,68.09L134.36,68.09L134.30,68.09L134.21,68.13L134.10,68.22L134.03,68.29L133.99,68.35L133.96,68.42L133.92,68.52L133.90,68.68L133.90,68.75L133.92,68.81L133.96,68.88L134.01,68.92"/><path d="M133.91,68.56L133.90,68.55L133.92,68.49L133.97,68.39L134.01,68.32L134.15,68.41L134.09,68.53L134.06,68.65L134.06,68.72L134.08,68.77L134.11,68.83L134.17,68.86L134.24,68.86L134.32,68.83L134.41,68.75"/><path d="M134.55,68.25L134.55,68.17L134.54,68.10L134.50,68.02L134.44,67.96L134.39,67.94L134.33,67.93L134.27,67.93L134.20,67.95L134.10,68.01L133.99,68.09L133.90,68.19L133.80,68.35L133.73,68.52L133.82,68.52L133.90,68.55L133.87,68.69L133.89,68.80L133.91,68.85L133.94,68.88L134.03,68.93"/><path d="M134.00,68.91L133.99,68.91"/><path d="M134.56,68.83L134.72,68.92L134.69,68.89L134.69,68.84L134.70,68.78L134.74,68.73L134.78,68.70L134.83,68.70L134.85,68.72L134.86,68.77"/><path d="M134.13,68.94L134.03,68.98L133.93,68.99L133.85,68.97L133.78,68.91L133.73,68.83L133.71,68.73L133.72,68.61L133.73,68.52"/><path d="M134.68,69.48L134.64,69.51L134.63,69.55L134.68,69.55L134.72,69.57L134.75,69.60L134.77,69.67L134.76,69.76L134.73,69.87"/><path d="M134.63,69.55L134.53,69.56L134.54,69.53L134.57,69.50"/><path d="M134.36,69.25L134.35,69.38L134.35,69.43L134.37,69.49L134.39,69.52L134.43,69.55L134.48,69.57L134.53,69.56"/><path d="M134.48,68.79L134.44,68.76"/><path d="M134.56,68.27L134.58,68.40L134.67,68.06L134.67,68.00L134.66,67.93L134.64,67.89L134.62,67.87L134.58,67.86L134.54,67.85L134.56,67.82L134.59,67.79L134.41,67.82"/><path d="M134.53,68.35L134.51,68.30L134.48,68.27L134.42,68.24L134.38,68.24L134.33,68.25L134.26,68.29L134.19,68.36L134.15,68.41"/><path d="M134.59,67.79L134.66,67.79L134.72,67.83L134.76,67.90L134.77,68.00L134.75,68.10L134.62,68.59L134.53,68.54"/><path d="M134.54,67.85L134.36,67.88"/><path d="M134.47,68.13L134.46,68.12"/><path d="M134.22,68.57L134.69,68.82L134.72,68.83L134.75,68.76L134.79,68.72L134.82,68.72L134.84,68.73L134.86,68.75L134.86,68.79L134.86,68.76"/><path d="M134.55,68.55L134.58,68.40"/><path d="M134.62,68.59L134.83,68.70"/><path d="M134.51,67.50L134.43,67.49"/><path d="M134.40,67.50L134.45,67.49L134.20,67.54L134.00,67.60L134.13,67.56"/><path d="M134.45,67.49L134.92,67.42L135.38,67.33"/><path d="M133.71,67.72L133.70,67.72L133.72,67.71L133.71,67.72"/><path d="M133.73,67.71L133.81,67.67L133.72,67.71"/><path d="M133.76,67.68L133.76,67.68"/><path d="M133.87,67.65L133.81,67.67L133.98,67.61L133.95,67.61"/><path d="M134.00,67.60L133.98,67.61L134.00,67.60"/><path d="M134.23,67.53L134.18,67.54"/><path d="M134.30,67.51L134.23,67.53"/><path d="M134.34,67.50L134.34,67.50"/><path d="M134.32,67.51L134.37,67.50"/><path d="M135.90,68.59L134.96,68.74L134.95,68.74L134.93,68.81L135.02,68.80L135.01,68.65L135.07,68.40L135.08,68.33L135.08,68.25L135.03,68.44L135.95,68.30"/><path d="M134.92,68.88L134.92,68.86L134.94,68.88L134.92,68.88L134.93,68.89L134.96,68.90L134.94,68.88L135.04,68.86L135.03,68.83L135.02,68.80L135.90,68.66"/><path d="M134.96,68.90L135.95,68.75"/><path d="M135.93,68.72L135.04,68.86"/><path d="M134.92,68.86L134.93,68.81"/><path d="M134.86,68.79L134.85,68.82L134.83,68.87L134.79,68.90L134.77,68.91L134.74,68.91L134.72,68.89L134.71,68.86L134.72,68.83"/><path d="M134.79,68.90L134.75,68.92L134.72,68.92"/><path d="M134.95,68.74L134.98,68.61L135.91,68.46"/><path d="M136.04,67.79L135.17,67.92L135.22,67.84L135.25,67.77L136.13,67.64"/><path d="M135.17,67.92L135.08,68.25"/><path d="M136.18,67.45L135.30,67.59L135.34,67.50L135.31,67.50L135.28,67.54L135.26,67.59L135.30,67.59L135.25,67.77L135.21,67.78L135.17,67.90"/><path d="M135.21,67.78L135.26,67.59"/><path d="M135.03,68.44L134.98,68.61"/><path d="M134.66,68.09L134.75,68.10"/><path d="M135.08,68.23L135.96,68.09"/><path d="M134.88,67.42L134.86,67.42L134.89,67.42"/><path d="M136.22,67.37L135.34,67.50L135.35,67.49L135.31,67.50"/><path d="M135.29,67.34L135.29,67.34"/><path d="M135.35,67.49L136.23,67.36"/><path d="M136.22,67.20L136.24,67.21"/><path d="M136.35,67.23L136.35,67.23"/></g><g style="stroke:#000000;stroke-width:0.247"><path d="M133.76,67.68L133.49,67.81L133.16,68.00L132.83,68.24L132.56,68.47L132.29,68.73L132.05,68.99L131.82,69.28L131.60,69.58L131.41,69.90L131.23,70.23L130.86,70.99L130.36,72.06L130.05,72.77L129.59,73.85L129.58,73.91L129.61,73.97L129.66,74.02L129.72,74.03L133.64,73.38L133.67,73.37L133.70,73.34L133.73,73.29L133.97,72.61L134.22,71.93L134.48,71.26L134.77,70.57"/><path d="M134.34,67.50L134.86,67.42"/><path d="M133.76,67.68L134.09,67.56L134.34,67.50"/><path d="M135.29,67.34L136.22,67.20L136.35,67.23L136.37,67.25L136.34,67.34L136.23,67.36L136.21,67.39L136.19,67.43L136.11,67.70L136.08,67.75L136.00,67.82L135.96,67.90L135.95,68.00L135.96,68.16L135.96,68.23L135.89,68.53L135.90,68.68L135.92,68.71L135.95,68.75L135.93,68.84L135.90,68.87L135.72,68.90L135.61,68.95L135.50,69.04L135.39,69.17L135.33,69.28L135.18,69.61L134.80,70.48"/><path d="M135.29,67.34L134.89,67.42"/></g></g><g id="Actor_3.0"><g style="stroke:#000000;stroke-width:0.049"><path d="M193.08,146.16L193.20,146.20L193.22,146.07L193.42,146.12L193.36,146.22L193.20,146.20L193.14,146.83L193.34,146.83L201.71,142.93L201.89,141.04L201.78,140.92L201.50,141.00L201.27,140.96"/><path d="M193.02,146.79L193.14,146.83L193.18,146.93"/><path d="M193.42,146.12L193.59,145.45L193.39,145.40L193.23,146.05L193.10,146.03"/><path d="M193.26,146.93L193.25,146.93"/><path d="M193.30,146.92L193.40,146.21"/><path d="M193.27,145.36L193.39,145.40L195.07,138.76L196.89,131.19L198.74,123.16L201.01,112.74L204.14,97.75L205.03,93.10L204.90,93.07"/><path d="M193.59,145.45L196.06,135.55L198.93,123.20L201.20,112.78L203.88,99.98L204.87,95.11L205.22,93.14L205.03,93.10L205.18,92.89L205.29,93.03L205.22,93.14"/><path d="M201.28,140.96L201.26,140.95"/><path d="M201.66,140.89L201.82,140.95L201.88,141.10L201.67,141.17L201.41,141.15L201.13,140.96L200.96,140.67L200.84,140.01L200.85,139.54L200.93,139.15"/><path d="M201.08,140.80L201.06,140.76"/><path d="M201.23,140.93L201.24,140.94"/><path d="M200.86,139.97L200.85,139.83"/><path d="M200.91,139.15L203.14,127.25L205.19,115.67L207.54,101.39L208.50,95.22L208.94,92.00L205.29,93.03"/><path d="M201.66,143.01L201.73,142.92"/><path d="M201.88,141.10L201.91,141.08"/><path d="M201.81,140.92L201.66,140.88"/><path d="M201.70,140.88L201.70,140.89"/><path d="M205.03,92.85L205.18,92.89L208.83,91.85L208.96,92.01"/><path d="M208.85,91.86L208.68,91.82"/></g><g style="stroke:#000000;stroke-width:0.247"><path d="M200.85,139.84L200.92,140.43L201.11,140.82L201.26,140.95L201.44,140.95L201.70,140.88L201.90,141.00L201.73,142.92L201.68,143.00L193.30,146.92L193.18,146.93L193.03,146.86L193.10,146.05L196.20,133.57L199.15,120.73L202.72,103.94L204.34,96.10L204.91,93.01L205.03,92.85L208.68,91.82L208.90,91.88L208.96,91.98L208.81,93.22L206.82,106.00L204.18,121.56L202.43,131.23L200.93,139.15L200.85,139.83"/></g></g><g id="Actor_9.0"><g style="stroke:#000000;stroke-width:0.049"><path d="M115.39,119.49L115.35,119.40L115.38,118.76L115.29,118.73L115.43,118.16L115.39,118.14"/><path d="M115.35,119.40L115.26,119.37L115.28,119.45"/><path d="M115.36,118.87L115.28,118.84L115.26,119.37L115.23,119.35"/><path d="M115.38,118.76L115.51,118.19L115.43,118.16L115.68,117.12L117.82,108.77L119.79,101.74L121.67,95.52L123.82,89.02L126.06,82.78L127.51,78.97L128.72,76.00L129.10,75.15L129.23,75.06L129.33,75.09L129.25,75.13L129.15,75.26L128.40,77.02L126.23,82.57L124.11,88.45L122.19,94.19L120.44,99.84L118.62,106.20L117.02,112.13L115.51,118.19"/><path d="M115.24,118.81L115.28,118.84L115.29,118.73L115.26,118.71"/><path d="M115.75,118.95L124.15,116.55L115.70,118.92"/><path d="M115.71,118.94L115.69,118.86L116.61,115.10L118.09,109.40L119.40,104.62L121.17,98.56L122.87,93.15L124.41,88.57L125.72,84.88L127.48,80.19L128.60,77.37L129.36,75.57L132.67,75.01L132.80,75.09L131.25,79.52L129.42,85.23L128.27,89.09L126.70,94.73L125.65,98.81L124.69,102.80L123.52,108.13L122.72,112.11L122.64,112.09L122.51,112.64L122.41,113.22L122.40,113.45L122.45,113.54L122.42,113.88L122.31,113.87L122.34,113.52L122.45,113.54"/><path d="M115.70,118.83L124.09,116.44L124.14,116.53"/><path d="M116.87,115.47L117.01,115.51L117.05,115.60L116.98,115.52L117.07,115.19L116.98,115.17L116.87,115.50L116.88,115.59L116.95,115.64L118.99,115.06"/><path d="M116.98,115.64L117.01,115.58"/><path d="M117.01,115.51L117.11,115.18L117.17,115.11L117.10,115.00L119.10,114.44L119.20,114.50L119.19,114.55L117.18,115.10"/><path d="M119.18,114.55L119.24,114.61L119.16,114.94L119.07,115.04L117.05,115.60"/><path d="M117.02,115.59L117.00,115.58"/><path d="M117.10,115.00L116.96,115.16"/><path d="M117.10,115.20L117.07,115.19L117.13,115.10L119.14,114.55L119.10,114.44"/><path d="M117.38,113.20L117.52,113.24L117.59,113.14L119.63,112.60L119.62,112.54L119.53,112.49L117.48,113.05L117.39,113.16L117.29,113.54L117.34,113.67L117.40,113.67L117.43,113.62"/><path d="M117.40,113.67L119.47,113.09"/><path d="M117.30,113.50L117.41,113.53L117.45,113.62L117.41,113.53L117.49,113.23L117.55,113.14L117.52,113.03"/><path d="M117.44,113.62L117.42,113.62"/><path d="M117.43,113.54L117.52,113.24"/><path d="M117.60,113.14L117.58,113.13L119.58,112.59L119.66,112.64L119.57,112.98L119.49,113.08L117.46,113.63"/><path d="M118.98,115.09L119.05,115.04"/><path d="M119.18,114.54L119.17,114.53"/><path d="M121.73,114.30L119.70,114.89L119.63,114.88L119.58,114.80L119.59,114.72L119.72,114.75L119.81,114.46L119.78,114.45L119.84,114.36L119.81,114.25L121.79,113.71L121.88,113.76L121.87,113.81L119.87,114.35L119.89,114.36L121.86,113.81"/><path d="M119.73,114.76L119.74,114.83L119.70,114.75L119.78,114.45L119.73,114.43L119.70,114.42L119.64,114.55L119.59,114.72"/><path d="M119.69,114.89L119.72,114.83"/><path d="M121.79,113.71L121.82,113.79L121.92,113.85L121.83,114.20L121.75,114.30L119.75,114.84"/><path d="M119.73,114.83L119.71,114.83"/><path d="M119.81,114.46L119.89,114.36"/><path d="M119.81,114.25L119.67,114.42"/><path d="M119.40,113.13L119.41,113.11"/><path d="M120.11,112.94L120.13,112.89L120.18,112.89L120.15,112.80L120.23,112.50L120.12,112.47L120.00,112.81L120.03,112.91L120.08,112.94L122.09,112.38"/><path d="M120.18,112.89L122.17,112.35L122.25,112.27L122.34,111.96L122.30,111.82L122.21,111.77L120.23,112.30L120.26,112.38L120.12,112.79L120.14,112.88"/><path d="M120.01,112.76L120.15,112.80"/><path d="M120.15,112.88L120.13,112.88"/><path d="M119.53,112.49L119.60,112.60"/><path d="M119.60,112.59L119.59,112.58"/><path d="M120.09,112.46L120.23,112.30"/><path d="M120.23,112.50L120.33,112.38L122.24,111.87L122.21,111.77"/><path d="M120.31,112.40L122.31,111.87L122.28,111.87"/><path d="M121.67,114.34L121.67,114.32"/><path d="M121.86,113.80L121.85,113.79"/><path d="M122.08,112.40L122.15,112.36"/><path d="M122.04,97.07L122.01,97.07L122.01,97.14L122.07,97.17L122.04,97.07L122.14,96.75L122.21,96.68L122.14,96.57L122.01,96.70L121.90,97.03L121.90,97.15L121.96,97.21L123.87,96.76"/><path d="M121.99,97.21L122.03,97.16"/><path d="M121.90,97.03L122.01,97.07L122.10,96.77L122.17,96.68L124.00,96.26L123.94,96.16L124.04,96.22L124.02,96.27L124.07,96.34L123.97,96.66L123.89,96.75L122.07,97.17"/><path d="M121.99,96.73L122.13,96.77"/><path d="M122.14,96.57L123.94,96.16"/><path d="M122.22,96.68L124.02,96.27"/><path d="M122.04,97.16L122.01,97.16"/><path d="M122.31,113.87L122.38,114.60L122.49,114.94L122.65,115.24L122.97,115.57L123.28,115.72L123.73,115.77L124.11,115.68L124.09,116.44L124.20,116.45L124.15,116.53"/><path d="M122.34,113.52L122.35,113.45L122.41,113.45L122.57,112.89L122.60,112.90L122.45,113.90L122.53,114.62L122.64,114.94L122.84,115.28L123.14,115.56L123.38,115.67L123.01,115.47L122.75,115.20L122.52,114.69L122.43,114.19L122.32,114.20"/><path d="M122.42,113.88L122.43,114.19"/><path d="M122.46,113.47L122.35,113.45"/><path d="M122.60,112.90L122.72,112.11L122.75,112.12L123.50,108.37L124.64,103.18L125.71,98.68L126.88,94.16L128.31,89.04L129.69,84.48L131.38,79.23L132.82,75.10L132.77,74.96L132.83,75.01L132.82,75.10"/><path d="M122.68,112.33L122.57,112.89L122.46,112.87"/><path d="M122.43,113.36L122.51,113.39"/><path d="M122.61,112.09L123.41,108.11L124.58,102.77L125.90,97.34L127.01,93.13L128.44,88.09L129.64,84.13L131.26,79.13L132.69,75.05"/><path d="M122.75,112.12L122.71,112.34"/><path d="M122.28,111.86L122.27,111.85"/><path d="M123.98,115.72L123.98,115.69"/><path d="M124.17,116.54L124.23,116.46L124.23,115.69L124.12,115.66"/><path d="M123.38,115.67L123.78,115.72L124.21,115.63L124.26,115.69L124.23,116.45"/><path d="M124.56,115.10L124.27,115.14L123.95,115.07"/><path d="M124.52,115.10L124.43,115.07L124.09,115.10"/><path d="M123.79,96.80L123.80,96.78"/><path d="M124.02,96.26L124.01,96.25"/><path d="M124.21,115.63L124.26,115.69"/><path d="M124.53,115.10L124.41,115.07"/><path d="M124.40,115.07L124.47,115.07"/><path d="M124.42,96.53L124.45,96.62L124.39,96.57L124.52,96.23L124.40,96.20L124.27,96.53L124.30,96.64L124.34,96.67L125.84,96.31"/><path d="M124.38,96.67L124.41,96.61"/><path d="M124.28,96.49L124.39,96.52L124.49,96.23L124.55,96.14L125.99,95.82L124.58,96.13L124.52,96.03L124.38,96.19"/><path d="M124.42,96.61L124.40,96.61"/><path d="M124.45,96.62L125.86,96.30L125.94,96.22L126.05,95.87L125.99,95.75L125.92,95.72L125.95,95.80L126.02,95.82L125.99,95.82"/><path d="M124.52,96.23L124.60,96.14"/><path d="M124.52,96.03L125.92,95.72"/><path d="M125.77,96.35L125.77,96.33"/><path d="M125.98,95.81L125.99,95.82"/><path d="M127.97,79.89L129.16,79.67L129.18,79.63L129.12,79.56L129.09,79.56L129.12,79.65L127.97,79.88L127.89,79.92L127.88,79.98L127.97,79.89L127.90,79.78L127.86,79.79L127.76,79.90L127.63,80.32L127.65,80.39L127.72,80.42L129.00,80.16"/><path d="M127.64,80.23L127.78,80.28L127.80,80.37L129.02,80.15L129.10,80.08L129.21,79.76L129.19,79.67"/><path d="M127.72,80.42L127.86,79.97L127.75,79.93"/><path d="M127.80,80.37L127.77,80.36"/><path d="M127.78,80.28L127.88,79.98"/><path d="M127.90,79.78L129.09,79.56"/><path d="M128.92,80.20L128.93,80.17"/><path d="M129.67,79.46L129.68,79.58L129.60,79.64L129.54,79.62L129.56,79.53L129.67,79.46L130.82,79.25L130.87,79.26L130.91,79.34L129.72,79.56L129.63,79.65L129.52,79.95L129.57,80.05L130.78,79.82L130.94,79.45L130.91,79.36"/><path d="M129.55,79.96L129.65,79.66"/><path d="M129.74,79.56L130.89,79.36"/><path d="M129.52,79.61L129.40,79.95L129.42,80.06L129.46,80.10L130.64,79.89L130.72,79.84"/><path d="M129.41,79.91L129.52,79.95L129.52,80.02L129.57,80.05"/><path d="M129.49,80.10L129.54,80.04"/><path d="M129.16,79.67L129.19,79.67"/><path d="M129.16,79.66L129.15,79.65"/><path d="M129.36,75.57L132.77,74.96"/><path d="M129.33,75.09L133.31,74.42L133.21,74.40L129.20,75.06"/><path d="M129.15,75.26L129.02,75.22"/><path d="M130.82,79.25L130.88,79.33"/><path d="M130.64,79.89L130.66,79.86"/><path d="M130.89,79.35L130.92,79.36"/><path d="M132.67,75.01L132.68,74.98"/><path d="M133.31,74.42L133.33,74.42"/><path d="M133.24,74.40L133.24,74.40"/></g><g style="stroke:#000000;stroke-width:0.247"><path d="M133.22,74.40L133.37,74.45L133.37,74.54L132.31,77.56L130.78,82.33L129.66,86.07L128.09,91.68L127.12,95.42L126.22,99.17L124.96,104.92L123.88,110.42L123.31,113.77L123.39,114.39L123.50,114.65L123.65,114.86L123.99,115.09L124.47,115.07L124.59,115.13L124.54,116.82L124.46,116.91L115.43,119.49L115.31,119.47L115.23,119.35L115.26,118.71L116.45,113.84L118.46,106.27L120.36,99.65L122.35,93.29L124.15,87.95L126.02,82.76L127.94,77.77L129.02,75.22L129.13,75.09L133.20,74.40"/><path d="M133.21,74.40L133.18,74.40"/></g></g><g id="Actor_8.0"><g style="stroke:#000000;stroke-width:0.049"><path d="M205.85,91.66L205.90,91.61L205.91,91.54L205.83,91.51L205.68,91.48"/><path d="M205.78,91.67L205.73,91.65L205.71,91.58L205.72,91.49L206.07,89.71L206.34,87.92L206.46,86.95L206.40,86.94"/><path d="M209.11,84.46L209.21,84.44L209.61,84.39L209.78,84.36L209.82,84.17L209.79,83.97L209.69,83.79L209.36,83.86L209.03,83.89L209.14,84.61L209.76,84.51L209.79,84.72L210.57,84.52L210.58,84.63L210.56,84.74L209.78,84.94L209.20,85.06L209.22,85.25L209.62,85.11L209.74,85.07L209.74,85.17L210.14,85.07L210.09,85.23L210.05,85.48L209.92,87.31L209.71,89.10L209.50,90.54L205.91,91.54L206.21,90.01L206.38,88.98L206.65,86.98L206.56,86.96L206.46,86.95L206.53,86.42L206.64,85.91L206.77,85.43L206.92,84.98L207.14,84.50L207.40,84.09L207.69,83.75L207.92,83.55L208.17,83.41L208.44,83.31L208.51,83.35L208.54,83.43L208.30,83.52L208.05,83.67L207.82,83.86L207.61,84.10L207.42,84.38L207.24,84.70L207.09,85.06L206.91,85.59L206.77,86.16L206.70,86.56L206.65,86.98"/><path d="M209.20,85.06L209.14,84.61"/><path d="M209.03,83.89L208.94,83.35L209.28,83.30L209.54,83.25L209.59,83.42L209.43,83.45L208.97,83.52"/><path d="M208.94,83.35L208.94,83.34L208.54,83.43"/><path d="M210.42,83.46L210.41,83.46L210.38,83.22L209.59,83.42L209.63,83.66L209.01,83.76"/><path d="M208.94,83.34L208.90,83.26L208.83,83.21L209.41,83.10L209.46,83.13L209.50,83.18L208.94,83.34"/><path d="M208.83,83.21L208.44,83.31L208.35,83.29"/><path d="M209.52,90.55L209.50,90.54L209.48,90.61"/><path d="M210.27,85.00L210.32,84.97L210.34,84.92L209.74,85.07L209.78,84.95L209.80,84.84L209.79,84.72L209.17,84.83"/><path d="M209.74,85.17L209.22,85.25"/><path d="M210.05,85.48L210.07,85.49"/><path d="M209.78,84.36L209.76,84.43L209.76,84.51L210.54,84.31L210.54,84.23L210.56,84.16L209.78,84.36"/><path d="M209.69,83.79L210.48,83.60L210.43,83.53L210.41,83.46L209.63,83.66L209.65,83.73L209.69,83.79"/><path d="M210.33,83.05L210.28,82.98L209.50,83.18L209.54,83.25L210.32,83.05L210.38,83.22L210.38,83.22"/><path d="M209.41,83.10L210.19,82.91"/><path d="M210.15,85.14L210.14,85.07L210.22,84.99L210.34,84.92L210.40,84.89L210.38,84.94L210.33,84.97L210.46,84.94"/><path d="M210.29,84.99L210.33,84.97"/><path d="M210.40,84.89L210.53,84.86L210.57,84.73"/><path d="M210.48,83.60L210.48,83.60L210.57,83.77L210.60,83.97L210.56,84.16L210.57,84.15"/><path d="M210.55,84.30L210.54,84.31L210.57,84.52L210.58,84.52"/><path d="M210.53,84.85L210.50,84.91"/><path d="M210.25,82.93L210.29,82.98"/></g><g style="stroke:#000000;stroke-width:0.247"><path d="M205.85,91.66L205.78,91.67L205.70,91.65L205.68,91.59L205.67,91.49L205.90,90.35L206.10,89.21L206.26,88.08L206.45,86.60L206.50,86.26L206.57,85.94L206.64,85.62L206.73,85.32L206.83,85.03L206.94,84.76L207.06,84.51L207.18,84.29L207.31,84.08L207.46,83.89L207.61,83.73L207.78,83.58L207.97,83.45L208.16,83.36L208.35,83.29L210.04,82.87L210.19,82.91L210.25,82.93L210.29,82.98L210.33,83.05L210.38,83.22L210.42,83.46L210.44,83.53L210.58,83.77L210.61,83.96L210.55,84.22L210.55,84.30L210.58,84.52L210.58,84.63L210.57,84.73L210.53,84.85L210.50,84.91L210.46,84.94L210.35,84.98L210.27,85.00L210.21,85.05L210.15,85.14L210.10,85.28L210.07,85.49L209.94,87.32L209.75,88.94L209.52,90.55L209.48,90.61L209.43,90.66L205.85,91.66"/></g></g><g id="Actor_.2"><g style="stroke:#000000;stroke-width:0.049"><path d="M87.23,136.60L87.92,130.66L88.80,124.25L89.75,118.27L90.78,112.53L92.36,104.62L93.97,97.36L95.49,91.04L95.84,90.71L94.68,95.64L93.10,102.83L91.82,109.37L91.01,113.83L90.24,118.42L89.44,123.84L88.61,130.21L88.00,135.70"/><path d="M87.90,136.22L88.76,128.65L89.79,121.16L91.12,113.05L92.56,105.45"/><path d="M89.96,134.98L90.46,129.50L91.01,124.79L91.65,120.06L92.47,114.71L93.59,108.13L94.63,102.53L95.91,96.11L97.29,89.66L97.25,89.65L95.85,96.10L94.57,102.52L93.53,108.12L92.41,114.70L91.59,120.05L90.95,124.78L90.40,129.49L89.90,134.98"/><path d="M89.77,117.39L91.06,109.98L92.12,104.47L93.51,97.84L95.22,90.37L95.19,90.35"/><path d="M90.15,115.20L91.15,109.88L92.10,105.23L91.95,105.15"/><path d="M91.43,135.60L91.84,131.12L92.33,126.69L93.08,121.10L93.84,116.05L95.09,108.70L96.31,102.19L98.18,93.08L98.28,93.06"/><path d="M92.10,105.23L93.71,97.89L95.49,90.49L95.22,90.37L95.86,87.95L95.84,87.92"/><path d="M92.58,105.44L93.99,98.75L95.86,90.65L95.85,90.70"/><path d="M95.49,91.04L96.22,88.44L96.54,88.14L95.86,90.65"/><path d="M95.24,90.32L95.21,90.30"/><path d="M96.22,88.44L96.08,88.43L95.49,90.49"/><path d="M97.29,89.66L97.60,88.43L97.95,87.32L97.56,87.39L96.75,87.66L96.77,87.59L97.95,87.22L97.64,88.06L97.22,89.65L96.03,90.01L96.54,88.15"/><path d="M96.03,90.01L95.87,90.64"/><path d="M96.75,87.66L96.68,87.93L96.57,88.04L96.35,88.08L96.40,87.98L96.59,87.88L96.15,87.77L96.12,87.82L96.21,87.67L96.46,86.81L96.43,86.79"/><path d="M96.35,88.08L96.41,88.11L96.39,88.14L96.39,88.10"/><path d="M96.35,88.07L95.86,87.95L95.98,87.81L95.90,87.83"/><path d="M96.14,87.82L96.55,87.92"/><path d="M96.37,88.16L96.08,88.43"/><path d="M96.15,87.77L96.16,87.71L95.98,87.81L96.49,87.93"/><path d="M95.87,87.87L95.88,87.85"/><path d="M96.12,87.79L96.14,87.78"/><path d="M96.16,87.71L96.17,87.70"/><path d="M98.18,93.08L96.89,92.51L96.85,92.42L97.47,89.66L97.79,89.73L97.22,92.34"/><path d="M96.97,92.33L96.89,92.33"/><path d="M96.85,92.39L96.94,92.37L96.90,92.38"/><path d="M96.89,92.51L96.99,92.48"/><path d="M98.05,87.14L98.45,86.13L98.04,87.23L98.04,87.15L98.02,87.18L98.03,87.28L97.95,87.32L98.13,87.35L97.79,88.41L97.47,89.66L97.24,89.60"/><path d="M96.54,88.14L96.55,88.14"/><path d="M96.59,87.88L96.82,86.89L96.93,86.87L96.59,86.79L97.25,86.47L98.38,86.14L97.95,87.22L98.02,87.15"/><path d="M96.51,88.09L96.47,88.07"/><path d="M96.56,88.12L96.50,88.08"/><path d="M96.77,87.59L96.93,86.87"/><path d="M96.82,86.89L96.46,86.81"/><path d="M97.79,89.73L98.10,88.50L98.43,87.46L98.12,87.38L98.23,87.36"/><path d="M98.23,87.23L98.22,87.20"/><path d="M97.91,87.30L97.95,87.29"/><path d="M98.04,87.23L98.05,87.26L98.04,87.23"/><path d="M98.08,87.29L98.06,87.27L98.08,87.29"/><path d="M98.10,87.30L98.13,87.35"/><path d="M98.11,87.30L98.11,87.30"/><path d="M98.29,87.41L98.45,87.41L98.43,87.46"/><path d="M98.04,87.29L98.09,87.30"/><path d="M98.18,87.17L98.20,87.18"/><path d="M98.06,87.29L98.05,87.29"/><path d="M99.18,87.28L98.45,87.41"/><path d="M98.38,86.14L98.45,86.13"/><path d="M98.45,86.13L98.57,86.11"/></g><g style="stroke:#000000;stroke-width:0.247"><path d="M87.11,136.58L87.80,130.64L88.43,125.89L89.12,121.30L90.47,113.15L91.33,108.36L92.09,104.45L93.20,99.14L94.38,93.82L95.27,90.06L95.84,87.92L95.90,87.83L96.17,87.70L96.43,86.79L96.93,86.54L97.46,86.35L98.30,86.11L98.57,86.11L98.16,87.12L98.24,87.23L98.24,87.35L98.34,87.37L99.09,87.25L99.18,87.28L98.60,89.12L97.91,92.20L97.19,92.35L96.98,92.34L96.95,92.37L96.97,92.47L98.28,93.06L96.92,99.63L95.95,104.57L94.80,110.94L93.95,116.02L93.18,121.06L92.44,126.66L91.94,131.08L91.54,135.55L91.43,135.60L89.92,134.98L88.00,135.70L87.95,136.17L87.23,136.60L87.11,136.58"/></g></g><g id="Actor_.3"><g style="stroke:#000000;stroke-width:0.049"><path d="M119.75,30.50L119.75,30.50L119.76,30.51L119.79,30.51L119.83,30.52L119.93,30.53L120.05,30.53L120.01,32.01"/><path d="M120.18,30.47L120.18,30.47L120.17,30.48L120.17,30.48L120.14,30.48L120.11,30.48L120.04,30.48L120.05,30.53L120.13,30.54L120.17,30.53L120.21,30.53L120.22,30.52"/><path d="M120.04,30.48L119.96,30.48L119.87,30.47L119.83,30.47L119.81,30.46L119.80,30.46L119.80,30.45"/></g><g style="stroke:#000000;stroke-width:0.247"><path d="M119.71,31.99L119.75,30.50L119.80,30.45L119.83,30.45L119.89,30.45L119.96,30.45L120.04,30.45L120.11,30.46L120.15,30.47L120.17,30.47L120.18,30.47L120.22,30.52L120.22,30.52L120.18,31.99"/></g></g><g id="Actor_.4"><g style="stroke:#000000;stroke-width:0.049"><path d="M160.40,33.44L160.40,33.45L160.41,33.45L160.43,33.45L160.46,33.46L160.50,33.47L160.62,33.48L160.74,33.48L160.64,35.10"/><path d="M160.90,33.47L160.88,33.48L160.86,33.48L160.80,33.48L160.74,33.48L160.73,33.43L160.81,33.43L160.84,33.42L160.84,33.42L160.85,33.42L160.85,33.42"/><path d="M160.73,33.43L160.65,33.42L160.54,33.42L160.47,33.40L160.46,33.40L160.45,33.40L160.45,33.39"/><path d="M160.90,33.47L160.90,33.47"/></g><g style="stroke:#000000;stroke-width:0.247"><path d="M160.90,33.47L160.85,33.42L160.84,33.41L160.82,33.41L160.78,33.40L160.73,33.40L160.66,33.39L160.55,33.39L160.51,33.39L160.47,33.39L160.45,33.39L160.40,33.44L160.30,35.05"/><path d="M160.90,33.47L160.80,35.08"/></g></g><g id="Actor_.5"><g style="stroke:#000000;stroke-width:0.049"><path d="M168.80,36.92L168.80,36.92"/><path d="M168.80,36.92L168.80,36.93L168.80,36.93L168.83,36.94L168.86,36.94L168.91,36.95L169.04,36.96L169.17,36.97L169.05,38.63"/><path d="M168.85,36.87L168.85,36.87L168.86,36.88L168.88,36.88L168.91,36.89L168.95,36.90L169.06,36.90L169.15,36.91L169.17,36.97L169.22,36.97L169.29,36.96L169.31,36.96L169.32,36.96L169.32,36.95"/><path d="M169.15,36.91L169.24,36.91L169.26,36.90L169.27,36.90L169.27,36.90L169.27,36.90"/><path d="M169.32,36.95L169.32,36.95"/></g><g style="stroke:#000000;stroke-width:0.247"><path d="M169.32,36.95L169.27,36.90L169.26,36.89L169.24,36.88L169.20,36.88L169.12,36.87L169.06,36.87L168.95,36.86L168.91,36.86L168.87,36.87L168.85,36.87L168.80,36.92L168.69,38.57"/><path d="M169.32,36.95L169.32,36.95L169.21,38.60"/></g></g><g id="Actor_.6"><g style="stroke:#000000;stroke-width:0.049"><path d="M96.47,48.04L97.38,44.33L97.68,43.77L98.05,43.60L98.69,43.54L101.00,43.72L100.94,43.48L101.01,43.41L101.02,43.66L101.44,44.17L101.41,44.31L99.56,44.14L99.52,43.99L101.38,44.16L101.00,43.72L121.16,46.86L121.12,46.51L101.01,43.41L102.04,40.76L103.10,38.67L104.61,36.46L105.09,35.92L105.33,35.83L104.28,35.59L106.72,35.43L110.24,36.19L109.71,36.57L109.29,36.69L105.36,36.04L103.94,35.72L104.47,35.36L106.60,35.23L107.13,34.95L106.97,35.32L106.72,35.43L106.49,35.24L106.00,33.99L106.10,33.86L106.58,33.64L107.13,34.95L110.98,35.77L110.24,36.19"/><path d="M97.14,48.16L97.78,45.84L96.80,48.34"/><path d="M97.36,46.41L97.41,46.29L96.73,48.10"/><path d="M97.24,47.86L97.51,46.92"/><path d="M97.30,44.17L97.35,43.96"/><path d="M97.41,46.29L97.72,45.66L97.99,45.39L98.54,45.23L99.32,45.22L99.56,44.14L98.98,44.14L98.94,44.00L99.52,43.99"/><path d="M165.31,56.84L158.44,55.36L136.03,51.18L118.42,48.13L102.45,45.57L99.69,45.24L98.46,45.30L98.07,45.47L97.85,45.71L97.55,46.77"/><path d="M97.47,43.63L97.80,43.34L98.52,43.22L98.54,43.48L98.94,44.00L98.28,44.14L98.00,44.42L97.42,46.26"/><path d="M97.50,46.45L97.50,46.43"/><path d="M98.98,44.14L98.43,44.23L98.14,44.41L97.62,45.71"/><path d="M97.81,45.12L97.81,45.14"/><path d="M97.91,42.74L97.89,42.77"/><path d="M99.24,47.72L100.32,45.32L100.03,45.29L99.93,45.47L98.96,47.71"/><path d="M100.03,45.29L99.75,45.27L98.69,47.67"/><path d="M99.44,45.26L99.54,45.26L99.54,45.38L98.55,47.67"/><path d="M98.52,43.22L100.95,43.40"/><path d="M99.19,40.45L99.13,40.55"/><path d="M99.75,45.27L99.60,45.26"/><path d="M100.32,45.32L101.02,45.40"/><path d="M101.41,44.31L121.50,47.46L121.52,47.37L121.50,47.46"/><path d="M101.47,44.32L101.44,44.17L105.53,44.76L119.08,46.91L121.49,47.30L121.52,47.37"/><path d="M109.95,36.42L112.51,34.99L112.68,34.81L112.66,34.64L112.46,34.61L112.31,34.91L108.63,33.73L107.48,33.56L106.62,33.64L106.78,33.32L105.71,33.83L105.99,33.96L105.26,34.51L104.47,35.36L104.12,35.29L103.92,35.58L103.94,35.72"/><path d="M104.12,35.29L104.93,34.42L105.67,33.86"/><path d="M105.33,35.83L109.61,36.54L109.25,36.69"/><path d="M106.78,33.32L107.66,33.24L108.36,33.32L110.52,32.41L112.56,31.92L116.51,31.50L114.83,31.53"/><path d="M108.17,33.64L108.36,33.32L108.74,33.39L112.50,34.58"/><path d="M108.28,33.37L108.74,33.39"/><path d="M108.54,33.38L108.33,33.37"/><path d="M109.61,36.54L109.92,36.38"/><path d="M110.98,35.77L112.18,35.12L112.38,34.91L112.42,34.97L112.24,35.14"/><path d="M112.21,35.12L112.18,35.12"/><path d="M112.42,34.98L112.46,34.93"/><path d="M119.73,31.26L116.51,31.50L119.71,31.72"/><path d="M120.19,31.76L128.38,32.51L137.31,33.48L133.72,33.90L131.59,34.41L129.36,35.36L127.59,36.53L125.92,38.08L124.16,40.34L122.66,42.95L121.12,46.51"/><path d="M120.18,31.99L119.92,32.01"/><path d="M119.89,32.01L119.71,32.00"/><path d="M120.20,31.22L128.96,30.50"/><path d="M120.27,31.14L121.34,31.06"/><path d="M121.28,47.04L121.16,46.86L121.44,47.24L121.28,47.04"/><path d="M121.16,46.86L135.95,49.39L135.93,49.02L135.93,49.31L136.25,49.83L121.44,47.24"/><path d="M121.11,46.58L121.13,46.51L128.35,47.73L128.35,48.02L128.72,48.59L128.40,49.83L128.50,49.87"/><path d="M121.51,47.46L136.27,49.99L135.96,49.39L161.86,54.14L161.86,53.77L168.06,55.23L170.30,55.95L171.87,56.66L172.99,57.34L174.04,58.23L174.76,59.14L175.23,60.08L175.52,61.34L175.51,62.59"/><path d="M126.06,30.69L125.20,30.77L126.02,30.70"/><path d="M128.72,46.77L128.35,47.73L135.93,49.02L137.26,45.82L138.78,42.99L140.52,40.58L142.17,38.90L144.20,37.45L146.45,36.44L148.56,35.89L152.08,35.45L144.59,34.39L141.86,34.69L140.21,35.01L138.52,35.51L137.17,36.08L135.85,36.84L134.72,37.68L133.63,38.67L132.47,39.99L131.61,41.16L130.56,42.87L129.64,44.65L128.72,46.77"/><path d="M128.20,30.52L127.97,30.54"/><path d="M172.65,62.40L172.66,61.60L172.51,60.77L172.20,60.14L171.75,59.59L170.75,58.80L169.34,58.06L167.83,57.52L165.25,56.81L165.62,55.40L158.35,53.88L136.26,49.84L136.28,50.00L162.09,54.78L161.86,54.14L161.94,54.16L161.94,53.79"/><path d="M136.28,50.00L136.27,49.99"/><path d="M135.94,49.02L161.86,53.77L162.70,51.62L163.89,49.05L165.11,46.90L166.30,45.18L159.80,44.27L159.55,44.14L159.50,43.81L159.93,43.87L159.92,44.01L160.05,44.09L159.80,44.27"/><path d="M149.81,32.40L137.31,33.48L144.59,34.39L157.05,33.26"/><path d="M142.71,32.74L142.24,32.73"/><path d="M160.33,34.65L152.11,35.44L168.72,38.11"/><path d="M166.53,44.97L168.99,45.23L168.87,45.42L166.32,45.16L166.47,44.99L160.05,44.09L161.71,43.90L161.42,43.70L159.93,43.87L160.23,42.06L160.44,41.91L160.81,41.91L161.97,43.32L161.42,43.70L160.22,42.14L159.80,42.03L159.50,43.81"/><path d="M159.80,42.03L160.05,41.71L160.77,41.53L160.99,41.53L160.89,41.92L166.11,42.12L169.44,42.38L169.58,42.00L166.22,41.74L160.99,41.53"/><path d="M160.30,35.07L160.74,35.09"/><path d="M160.83,34.60L164.53,34.26"/><path d="M160.80,35.09L160.76,35.09"/><path d="M162.09,54.78L162.18,54.79L162.18,54.63L161.94,54.16L166.75,55.26L167.06,55.77L165.62,55.40"/><path d="M162.18,54.79L167.04,55.93L167.06,55.77L168.08,56.06L170.23,56.80L171.90,57.67L173.04,58.58L173.89,59.72L174.34,61.00L174.38,62.43"/><path d="M169.91,45.06L169.77,44.99L170.06,44.83L161.71,43.90L161.85,43.77L161.97,43.32L171.07,44.32L172.81,43.54L173.02,43.57L169.49,45.28L168.87,45.42"/><path d="M167.04,55.93L168.86,56.46L170.55,57.11L171.65,57.70L172.61,58.40L173.36,59.18L173.90,60.08L174.22,61.26L174.23,62.42"/><path d="M175.19,62.56L175.19,61.38L174.91,60.20L174.26,59.03L173.52,58.23L172.45,57.42L170.72,56.52L169.03,55.90L166.75,55.26L166.80,54.89"/><path d="M168.99,45.23L169.30,45.19L169.03,45.23"/><path d="M168.78,41.91L169.53,42.06"/><path d="M169.21,38.60L168.70,38.58"/><path d="M169.75,45.00L169.30,45.19"/><path d="M169.24,45.21L169.21,45.22"/><path d="M169.54,45.11L169.56,45.10"/><path d="M187.51,52.39L187.21,52.46L187.53,52.38L187.65,52.17L187.52,51.04L187.18,49.57L186.61,48.02L185.59,45.98L184.49,44.36L183.36,43.06L182.02,41.85L180.76,41.00L178.86,40.17L176.83,39.62L174.87,39.92L172.77,40.44L171.01,41.15L169.58,42.00L171.04,42.23L172.85,42.72L172.71,43.11L171.53,42.75L169.44,42.38"/><path d="M169.22,42.00L169.04,41.96"/><path d="M191.55,39.01L193.01,39.82L194.26,40.74L195.97,42.41L197.11,43.87L198.11,45.57L198.76,47.08L199.32,49.12L199.52,50.64L199.19,48.72L198.71,47.06L197.92,45.28L197.10,43.91L195.93,42.40L194.22,40.73L192.64,39.61L191.17,38.86L189.09,38.20L176.83,39.62L169.24,38.21"/><path d="M170.06,44.83L171.07,44.32"/><path d="M171.90,43.93L172.71,43.11L173.00,43.27L172.85,43.52"/><path d="M173.02,43.57L173.35,43.37L173.42,43.17L173.26,42.91L172.90,42.75"/><path d="M174.14,35.68L178.34,36.35"/><path d="M200.03,50.59L199.59,50.64L199.42,50.90L199.52,50.64L188.29,51.99L186.22,52.49L184.66,53.17L183.54,53.93L182.76,54.65L181.90,55.70L181.35,56.54L180.58,58.01L180.07,59.25L179.18,62.39"/><path d="M182.77,54.83L181.47,56.54L180.63,58.13L179.88,60.07L179.30,62.17"/><path d="M179.54,36.55L181.45,36.87L180.86,36.77"/><path d="M181.45,36.87L181.87,36.94"/><path d="M181.78,36.92L181.91,36.94"/><path d="M186.89,52.53L185.94,52.82L184.83,53.29L183.87,53.88L182.75,54.86"/><path d="M186.95,52.52L186.87,52.54L187.03,52.50L186.95,52.52"/><path d="M187.09,52.49L187.03,52.50L187.16,52.47L187.09,52.49"/><path d="M187.21,52.46L189.64,52.10L198.08,51.14"/><path d="M187.16,52.47L187.10,52.48"/><path d="M187.45,52.41L189.51,52.08L198.13,51.07"/><path d="M189.09,38.20L189.14,38.21"/><path d="M191.88,41.72L191.73,41.73"/><path d="M191.53,41.51L191.59,41.64"/><path d="M191.69,41.71L191.70,41.71"/><path d="M191.61,41.66L191.63,41.67"/><path d="M197.81,45.01L198.11,45.57"/><path d="M199.55,50.64L199.56,50.66"/><path d="M199.33,50.93L198.74,51.00"/></g><g style="stroke:#000000;stroke-width:0.247"><path d="M199.19,50.95L198.13,51.07L198.06,52.12L188.23,53.30L186.43,53.65L184.86,54.20L184.08,54.62L183.08,55.36L182.29,56.17L181.74,56.90L181.06,58.02L180.45,59.32L179.55,62.14L179.30,62.17L179.27,62.32L179.13,62.39L175.43,62.59L174.31,62.42L172.65,62.40L172.60,61.42L172.41,60.64L172.03,59.97L171.55,59.45L170.67,58.79L169.75,58.26L167.26,57.36L163.97,56.52L160.29,55.75L137.63,51.50L117.19,47.95L101.02,45.40L99.94,47.66L98.52,47.67L97.29,47.85L97.14,48.16L96.65,48.33L96.73,48.10L96.47,48.04L96.45,47.88L97.35,43.96L98.49,41.63L99.79,39.52L101.00,37.90L102.49,36.27L104.09,34.89L105.26,34.09L106.66,33.32L107.85,32.81L109.73,32.23L113.07,31.68L119.73,31.18"/><path d="M120.20,31.14L121.53,31.05"/><path d="M142.29,31.61L128.96,30.50L121.34,31.06"/><path d="M160.39,33.69L149.81,32.40L142.77,31.66"/><path d="M181.87,36.94L182.40,37.03L169.92,35.04L160.88,33.76"/><path d="M181.91,36.94L188.71,38.13L190.12,38.47L192.78,39.58L194.54,40.71L195.73,41.73L197.08,43.23L198.18,44.87L198.90,46.29L199.64,48.43L200.03,50.59L199.97,50.81L199.18,50.95"/><path d="M191.60,41.65L191.61,41.66"/><path d="M191.63,41.67L191.69,41.71"/><path d="M191.70,41.71L191.73,41.73"/></g></g><g id="Actor_.7"><g style="stroke:#000000;stroke-width:0.049"><path d="M192.14,40.54L192.12,40.57L192.13,40.61L192.17,40.66L192.23,40.71L192.30,40.75L192.37,40.78L191.77,41.74"/><path d="M191.74,41.18L191.52,41.53"/><path d="M192.04,41.47L191.87,41.75"/><path d="M192.18,40.53L192.18,40.53"/><path d="M192.47,40.68L192.46,40.71L192.43,40.72L192.38,40.71L192.37,40.78L192.43,40.79L192.47,40.78"/><path d="M192.38,40.71L192.32,40.68L192.26,40.64L192.22,40.60L192.19,40.56L192.20,40.53L192.23,40.52"/></g><g style="stroke:#000000;stroke-width:0.247"><path d="M192.04,41.47L192.47,40.78L192.49,40.76L192.47,40.68L192.44,40.64L192.40,40.60L192.34,40.56L192.28,40.53L192.23,40.52L192.14,40.54L191.74,41.18"/></g></g><g id="Actor_.8"><g style="stroke:#000000;stroke-width:0.049"><path d="M142.31,31.17L142.32,31.18L142.34,31.18L142.43,31.19L142.54,31.20L142.63,31.21L142.56,32.75"/><path d="M142.74,31.14L142.74,31.15L142.74,31.15L142.73,31.15L142.71,31.15L142.66,31.15L142.61,31.15L142.63,31.21L142.71,31.21L142.74,31.21L142.78,31.20L142.79,31.20L142.79,31.20"/><path d="M142.61,31.15L142.51,31.15L142.42,31.14L142.38,31.13L142.36,31.13L142.36,31.13L142.36,31.12"/></g><g style="stroke:#000000;stroke-width:0.247"><path d="M142.74,31.14L142.73,31.14L142.70,31.13L142.64,31.13L142.59,31.12L142.49,31.12L142.44,31.12L142.39,31.12L142.36,31.12L142.31,31.17L142.31,31.17L142.24,32.72"/><path d="M142.79,31.20L142.71,32.73"/><path d="M142.79,31.20L142.74,31.14"/></g></g><g><g><path style="stroke:#000000;stroke-width:0.348;stroke-dasharray:3.7 3.7" d="M117.14,178.50L117.57,164.66"/></g></g><g><g><path style="stroke:#000000;stroke-width:0.348;stroke-dasharray:3.7 3.7" d="M172.91,106.63L175.98,65.10"/></g></g><g><g><path style="stroke:#000000;stroke-width:0.348;stroke-dasharray:3.7 3.7" d="M98.29,89.47L98.85,47.37"/></g></g><g><g/></g><g><g/></g><g id="PMI12.0"><g><path style="stroke:#000000;stroke-width:0.350" d="M142.45,20.06L142.69,28.78"/></g><g><path style="fill:#000000" d="M141.82,28.82L143.56,28.77L142.74,30.53z"/></g><g><path style="fill:#ffffff" d="M126.64,20.08L158.09,20.08L158.09,13.87L126.64,13.87z"/><path style="stroke:#000000;stroke-width:0.350;stroke-opacity:0.98" d="M126.64,20.08L158.09,20.08L158.09,13.87L126.64,13.87z"/><text xml:space="preserve" fill="#000000" stroke-width="0" x="127.42" y="18.34" font-size="3.79" opacity="1.00" font-family="MS Shell Dlg">322101-13135NN</text></g></g><g id="PMI13.0"><g><path style="stroke:#000000;stroke-width:0.350" d="M63.88,162.02L81.57,161.79"/></g><g><path style="fill:#000000" d="M81.61,162.63L81.59,160.89L83.34,161.74z"/></g><g><path style="fill:#ffffff" d="M32.48,165.30L63.93,165.30L63.93,159.10L32.48,159.10z"/><path style="stroke:#000000;stroke-width:0.350;stroke-opacity:0.98" d="M32.48,165.30L63.93,165.30L63.93,159.10L32.48,159.10z"/><text xml:space="preserve" fill="#000000" stroke-width="0" x="33.26" y="163.56" font-size="3.79" opacity="1.00" font-family="MS Shell Dlg">322104-13135NN</text></g></g><g id="PMI9.0"><g><path style="stroke:#000000;stroke-width:0.350" d="M119.37,131.46L119.25,119.60"/></g><g><path style="fill:#000000" d="M120.13,119.58L118.39,119.60L119.24,117.86z"/></g><g><path style="fill:#ffffff" d="M103.69,137.66L135.13,137.66L135.13,131.46L103.69,131.46z"/><path style="stroke:#000000;stroke-width:0.350;stroke-opacity:0.98" d="M103.69,137.66L135.13,137.66L135.13,131.46L103.69,131.46z"/><text xml:space="preserve" fill="#000000" stroke-width="0" x="104.47" y="135.92" font-size="3.79" opacity="1.00" font-family="MS Shell Dlg">327221-13135NN</text></g></g><g id="PMI10.0"><g><path style="stroke:#000000;stroke-width:0.350" d="M140.23,71.37L134.74,70.90"/></g><g><path style="fill:#000000" d="M134.81,70.04L134.66,71.77L133.01,70.76z"/></g><g><path style="fill:#ffffff" d="M140.23,75.83L171.67,75.83L171.67,69.62L140.23,69.62z"/><path style="stroke:#000000;stroke-width:0.350;stroke-opacity:0.98" d="M140.23,75.83L171.67,75.83L171.67,69.62L140.23,69.62z"/><text xml:space="preserve" fill="#000000" stroke-width="0" x="141.00" y="74.08" font-size="3.79" opacity="1.00" font-family="MS Shell Dlg">322114-13135NN</text></g></g><g id="PMI11.0"><g><path style="stroke:#000000;stroke-width:0.350" d="M77.01,110.50L89.11,110.73"/></g><g><path style="fill:#000000" d="M89.12,111.60L89.15,109.86L90.87,110.76z"/></g><g><path style="fill:#ffffff" d="M45.60,113.30L77.04,113.30L77.04,107.10L45.60,107.10z"/><path style="stroke:#000000;stroke-width:0.350;stroke-opacity:0.98" d="M45.60,113.30L77.04,113.30L77.04,107.10L45.60,107.10z"/><text xml:space="preserve" fill="#000000" stroke-width="0" x="46.38" y="111.56" font-size="3.79" opacity="1.00" font-family="MS Shell Dlg">322102-13135NN</text></g></g><g id="PMI3.0"><g><path style="stroke:#000000;stroke-width:0.350" d="M219.41,120.06L206.10,119.29"/></g><g><path style="fill:#000000" d="M206.14,118.42L206.04,120.15L204.35,119.19z"/></g><g><path style="fill:#ffffff" d="M219.40,124.08L250.84,124.08L250.84,117.87L219.40,117.87z"/><path style="stroke:#000000;stroke-width:0.350;stroke-opacity:0.98" d="M219.40,124.08L250.84,124.08L250.84,117.87L219.40,117.87z"/><text xml:space="preserve" fill="#000000" stroke-width="0" x="220.17" y="122.33" font-size="3.79" opacity="1.00" font-family="MS Shell Dlg">327220-13135NN</text></g></g><g id="PMI8.0"><g><path style="stroke:#000000;stroke-width:0.350" d="M210.40,73.48L209.45,81.55"/></g><g><path style="fill:#000000" d="M208.57,81.45L210.30,81.66L209.23,83.28z"/></g><g><path style="fill:#ffffff" d="M195.04,73.49L226.48,73.49L226.48,67.28L195.04,67.28z"/><path style="stroke:#000000;stroke-width:0.350;stroke-opacity:0.98" d="M195.04,73.49L226.48,73.49L226.48,67.28L195.04,67.28z"/><text xml:space="preserve" fill="#000000" stroke-width="0" x="195.81" y="71.74" font-size="3.79" opacity="1.00" font-family="MS Shell Dlg">322113-13135NN</text></g></g><g id="PMI14.0"><g><path style="stroke:#000000;stroke-width:0.350" d="M152.94,149.95L162.73,150.19"/></g><g><path style="fill:#000000" d="M162.70,151.04L162.74,149.30L164.46,150.21z"/></g><g><path style="fill:#ffffff" d="M121.49,152.65L152.93,152.65L152.93,146.45L121.49,146.45z"/><path style="stroke:#000000;stroke-width:0.350;stroke-opacity:0.98" d="M121.49,152.65L152.93,152.65L152.93,146.45L121.49,146.45z"/><text xml:space="preserve" fill="#000000" stroke-width="0" x="122.27" y="150.91" font-size="3.79" opacity="1.00" font-family="MS Shell Dlg">322103-13135NN</text></g></g><g/><g id="paperID" visibility="hidden" opacity="0.00" transform="scale(0.000100)"><path style="stroke:#000000;stroke-width:0.500;fill:#e6e6e6;fill-rule:evenodd" d="M-2000.00,-2000.00L2297.00,-2000.00L2297.00,2210.00L-2000.00,2210.00zM0.00,0.00L297.00,0.00L297.00,210.00L0.00,210.00z"/><path style="fill:#000000;fill-opacity:0.118" d="M3.00,210.00L297.00,210.00L297.00,3.00L300.00,3.00L300.00,213.00L3.00,213.00z"/></g><g id="hotspot.0" onmouseover="ShowHotSpot(evt,'0')" onmouseout="HideHotSpot(evt,'0')" onmousemove="ShowToolTip(evt,'0',&quot;3dp584031 (I_3DPart584031.5)&quot;)" opacity="0"><path style="fill:#00ff00;fill-rule:evenodd" d="M135.22,69.25L135.06,70.05L136.30,70.73L134.75,71.04L133.80,72.90L132.28,73.24L129.88,73.39L130.39,71.83L132.43,68.25L134.60,67.13L136.13,67.07zM136.30,70.73L139.89,70.56L140.24,69.51L171.78,69.47L171.78,75.75L140.21,75.75L139.93,71.34z"/></g><g id="hotspot.1" onmouseover="ShowHotSpot(evt,'1')" onmouseout="HideHotSpot(evt,'1')" onmousemove="ShowToolTip(evt,'1',&quot;3dp382488&quot;)" opacity="0"><path style="fill:#00ff00;fill-rule:evenodd" d="M98.71,87.30L98.25,90.74L97.16,92.00L98.23,92.83L98.10,93.35L93.38,119.15L91.68,134.34L91.23,135.18L88.66,135.03L87.46,136.22L87.44,133.81L89.63,117.74L93.99,95.39L95.90,87.47L96.70,86.40L98.25,85.94zM90.30,110.29L90.29,110.87L77.43,110.69L77.16,113.23L45.58,113.23L45.58,106.95L77.16,106.95L77.43,109.95L89.39,109.78z"/></g><g id="hotspot.2" onmouseover="ShowHotSpot(evt,'2')" onmouseout="HideHotSpot(evt,'2')" onmousemove="ShowToolTip(evt,'2',&quot;3dp736690 (I_3DPart736690.1)&quot;)" opacity="0"><path style="fill:#00ff00;fill-rule:evenodd" d="M126.62,20.00L126.62,13.72L158.20,13.72L158.20,20.00L143.02,20.28L142.72,27.99L142.27,20.28zM142.15,28.64L143.19,28.72L143.28,29.39L142.80,29.87L142.15,29.23zM140.37,31.08L142.76,31.12L176.92,35.76L191.43,38.58L195.25,40.85L197.99,44.20L199.89,48.87L199.90,50.43L198.34,50.78L197.98,51.82L185.65,53.55L183.78,54.49L181.19,57.52L179.26,62.15L172.53,62.17L172.27,60.08L170.37,58.23L162.86,55.91L110.86,46.54L101.05,45.25L100.09,47.15L97.56,47.46L96.81,48.14L96.80,46.20L98.22,42.01L101.77,36.65L105.10,33.89L109.31,32.02L119.77,30.68L120.21,30.19L120.56,30.69L129.11,30.12z"/></g><g id="hotspot.3" onmouseover="ShowHotSpot(evt,'3')" onmouseout="HideHotSpot(evt,'3')" onmousemove="ShowToolTip(evt,'3',&quot;3dp382490&quot;)" opacity="0"><path style="fill:#00ff00;fill-rule:evenodd" d="M90.15,147.81L91.17,148.21L91.05,157.70L97.27,161.32L115.08,170.21L133.83,178.63L145.98,183.34L153.49,185.20L159.46,185.23L161.02,184.44L161.77,183.32L162.83,182.95L163.35,181.94L166.20,181.00L166.14,186.28L165.23,193.81L164.76,194.74L159.91,197.90L159.11,197.85L157.57,198.32L149.60,200.19L135.52,202.04L134.13,203.93L131.45,203.95L108.04,192.23L91.68,182.37L91.20,181.91L89.31,176.77L85.10,169.74L84.13,167.43L83.52,163.68L84.60,153.46L86.97,150.21L87.79,147.75L89.79,146.83zM83.22,161.30L82.68,161.83L69.80,161.62L70.00,161.35L82.31,160.79zM64.31,161.48L69.80,161.62L69.60,161.89L64.32,162.22L64.04,165.23L32.46,165.23L32.46,158.94L64.04,158.94zM141.79,188.21L141.16,188.21L141.16,187.02L141.79,187.02z"/></g><g id="hotspot.4" onmouseover="ShowHotSpot(evt,'4')" onmouseout="HideHotSpot(evt,'4')" onmousemove="ShowToolTip(evt,'4',&quot;3dp382491&quot;)" opacity="0"><path style="fill:#00ff00;fill-rule:evenodd" d="M172.78,109.74L172.69,114.03L174.07,114.16L175.02,109.36L175.54,108.83L174.91,114.94L167.55,167.08L165.55,167.89L162.22,167.89L169.25,109.29L172.31,109.26zM163.84,149.63L163.84,150.18L162.91,150.71L162.38,150.13L153.32,150.04L153.05,152.58L121.47,152.58L121.47,146.30L153.05,146.30L153.32,149.30L162.94,149.13z"/></g><g id="hotspot.5" onmouseover="ShowHotSpot(evt,'5')" onmouseout="HideHotSpot(evt,'5')" onmousemove="ShowToolTip(evt,'5',&quot;123S3dp572590 (I_Product700545.1)&quot;)" opacity="0"><path style="fill:#00ff00;fill-rule:evenodd" d="M208.94,91.79L205.81,111.65L204.88,118.38L205.95,118.30L206.29,118.76L213.88,119.19L214.08,119.46L204.41,119.56L201.28,137.10L201.17,140.34L201.70,140.73L201.74,142.72L194.09,146.38L193.13,146.48L194.58,139.77L200.34,115.08L205.01,92.58L208.83,91.53zM214.28,119.73L214.08,119.46L219.09,119.31L219.38,117.73L250.95,117.72L250.95,124.00L219.38,124.00L219.10,120.06z"/></g><g id="hotspot.6" onmouseover="ShowHotSpot(evt,'6')" onmouseout="HideHotSpot(evt,'6')" onmousemove="ShowToolTip(evt,'6',&quot;123S3dp584031 (I_Product700546.2)&quot;)" opacity="0"><path style="fill:#00ff00;fill-rule:evenodd" d="M195.02,73.41L195.02,67.13L226.59,67.13L226.59,73.41L210.47,73.69L210.14,77.56L209.87,77.76L209.73,73.69zM208.70,81.20L209.17,80.87L209.87,77.76L210.17,82.64L210.65,83.49L210.17,84.60L209.75,89.35L208.67,90.62L205.78,91.20L206.86,84.60L208.18,83.10L208.79,82.72z"/></g><g id="hotspot.7" onmouseover="ShowHotSpot(evt,'7')" onmouseout="HideHotSpot(evt,'7')" onmousemove="ShowToolTip(evt,'7',&quot;3dp572590 (I_3DPart572590.1)&quot;)" opacity="0"><path style="fill:#00ff00;fill-rule:evenodd" d="M131.93,78.53L127.12,95.27L123.51,112.27L123.53,114.45L124.45,114.95L124.46,116.47L119.67,118.18L119.59,131.03L135.24,131.31L135.24,137.59L103.67,137.59L103.67,131.31L118.85,131.03L118.87,119.58L118.33,118.65L115.36,118.83L117.29,110.26L122.45,92.94L126.78,80.41L129.14,74.80L133.30,74.09z"/></g></g></svg>
