<?xml version="1.0" encoding="UTF-8" standalone="no"?>
<svg xmlns="http://www.w3.org/2000/svg" xmlns:xlink="http://www.w3.org/1999/xlink" width="297.000mm" height="210.000mm" viewBox="0.000000 0.000000 297.000000 210.000000" stroke-linejoin="round" stroke-linecap="round" fill="none" fill-rule="evenodd"><desc>Composer Export</desc><script type="text/ecmascript"><![CDATA[
if(typeof(top) != "undefined")
{
	top.ShowPaper = ShowPaper;
}
function ShowHotSpot(evt,hotspotid)
{
	var svgDocument = evt.target.ownerDocument;
	var strId = "hotspot."+hotspotid;
	var hotspot = svgDocument.getElementById(strId);
	if(hotspot)
		hotspot.setAttribute("opacity",".5");
}
function HideHotSpot(evt,hotspotid)
{
	var svgDocument = evt.target.ownerDocument;
	var strId = "hotspot."+hotspotid;
	var hotspot = svgDocument.getElementById(strId);
	if(hotspot)
		hotspot.setAttribute("opacity","0");

	var toolTip = svgDocument.getElementById('ToolTip');
	if(toolTip)
		toolTip.setAttribute("visibility","hidden");
}
function ShowToolTip(evt,hotspotid,strTooltip)
{
	if(strTooltip=="")
	return;

	// change text
	var svgDocument = evt.target.ownerDocument;
	var tiptext = svgDocument.getElementById('ToolTipText');
	if( !tiptext )
	return;
	tiptext.firstChild.nodeValue = " " + strTooltip + "  " ;

	// show tooltip before, else some refresh issue

	var toolTip = svgDocument.getElementById('ToolTip');
	if(!toolTip)
	return;

	toolTip.setAttribute("visibility","visible");
	toolTip.setAttribute("opacity",".95");

	// move tooltip
	// get viewbox

	var root = svgDocument.documentElement;
	var vbox = (root.getAttribute("viewBox")).split(' ');
	var x0 = parseFloat(vbox[0]);
	var y0 = parseFloat(vbox[1]);
	var vboxW = parseFloat(vbox[2]);
	var vboxH = parseFloat(vbox[3]);

	// get default width of svg

	var strW = root.getAttribute("width");
	var svgW = parseFloat(strW);
	if(strW.indexOf('mm') != -1)
	svgW *= 3.779;

	var strH = root.getAttribute("height");
	var svgH = parseFloat(strH);
	if(strH.indexOf('mm') != -1)
	svgH *= 3.779;  	// 96 dpi  -> 96/25.4 = 3.779

	// update the viewbox / width / height if svg is embedded in html with zoom fit all
	var realx0 = x0;
	var realy0 = y0;
	var realvboxW = vboxW;
	var realvboxH = vboxH;
	var realsvgW = svgW;
	var realsvgH = svgH;

	if ((typeof(top) == "undefined") || (typeof(top.svgctl1) != "undefined")) // embedded in html
	{
		// get window size in pxl

		svgW = window.innerWidth;
		svgH = window.innerHeight;

		// calculate real viewbox

		realsvgW = svgW;
		realsvgH = svgH;
		if((svgW / svgH) > (vboxW / vboxH))
		{
			realvboxW = (vboxH * svgW) / svgH;
			realvboxH = vboxH;
			realx0 = x0 - (realvboxW - vboxW)/2 ;
		}
		else
		{
			realvboxH = (vboxW * svgH) / svgW;
			realvboxW = vboxW;
			realy0 = y0 - (realvboxH - vboxH)/2 ;
		}
	}

	// get user zoom/pan

	var newScale = root.currentScale;
	var translation = root.currentTranslate;

	// transform pxl to user unit

	var xPos = (((evt.clientX+10- translation.x)/newScale) * realvboxW)/realsvgW  + realx0 ;
	var yPos = (((evt.clientY+5- translation.y)/newScale) * realvboxH)/ realsvgH  + realy0 ;
	var scaleForWidth = ( (1 / newScale) * realvboxH) / realsvgH;

	// move tooltip

	toolTip.setAttribute("transform", "translate(" + xPos + "," + yPos + ")" );

	// resize tooltip

	var fontsize = 12;
	tiptext.setAttribute("font-size",fontsize*scaleForWidth);
	tiptext.setAttribute("y", fontsize*scaleForWidth);
	var tipBG = svgDocument.getElementById('ToolTipBG');
	var outline = tiptext.getBBox();
	if(tipBG)
	{
		tipBG.setAttribute("stroke-width", 1*scaleForWidth);
		tipBG.setAttribute("width", Number(outline.width) );
		tipBG.setAttribute("height", Number(outline.height) + fontsize*.5*scaleForWidth );
	}
	var ToolTipShadow = svgDocument.getElementById('ToolTipShadow');
	if(ToolTipShadow)
	{
		ToolTipShadow.setAttribute("width", Number(outline.width) );
		ToolTipShadow.setAttribute("height", Number(outline.height) + fontsize*.5*scaleForWidth );
		ToolTipShadow.setAttribute("x", 3*scaleForWidth);
		ToolTipShadow.setAttribute("y", 3*scaleForWidth);
	}
}
function ShowPaper()
{
  var svgDocument = getDocument();
  var paper = svgDocument.getElementById("paperID");
  if(paper)
  {
    paper.setAttribute("transform","scale(1)");
    paper.setAttribute("opacity","1");
    paper.setAttribute("visibility","visible");
  }
  var svg = svgDocument.getRootElement();
  if(svg)
  {
    svg.setAttribute("width","307.000mm");
    svg.setAttribute("height","220.000mm");
    svg.setAttribute("viewBox","-5.000000 -5.000000 307.000000 220.000000");
  }
}
]]></script><defs/><g><path style="fill:#d7b0b0" d="M2.45,96.56L8.98,102.76L60.21,150.76L60.54,151.13L60.73,152.86L62.97,165.04L64.42,166.73L65.16,166.74L65.30,166.65L65.51,167.87L66.69,169.24L77.39,179.47L79.33,179.47L81.96,177.93L82.49,184.27L82.78,185.12L85.05,189.05L84.90,189.29L74.33,179.14L62.99,167.85L60.47,165.56L49.13,154.27L46.61,151.98L35.26,140.69L32.74,138.40L21.40,127.11L18.88,124.82L7.54,113.53L5.02,111.25L0.05,106.37L0.05,94.49z"/><path style="fill:#ead3d3" d="M195.10,80.15L204.19,84.94L202.18,96.38L201.32,98.63L200.29,102.07L199.72,102.75L199.26,102.77L166.36,122.27L0.05,14.72L0.08,0.08L40.45,0.05z"/><path style="fill:#ead3d3" d="M15.77,63.44L67.11,103.54L56.39,109.01L53.37,110.80L53.37,114.67L53.65,117.22L53.92,118.36L56.20,121.73L57.33,124.85L57.90,131.07L59.31,143.24L60.21,150.76L8.98,102.76L2.45,96.56L0.05,94.49L0.05,51.21z"/><path style="fill:#ead3d3" d="M115.92,165.28L119.38,168.07L119.36,168.27L118.91,168.41L85.19,189.82L84.90,189.29L85.05,189.05L82.78,185.12L82.49,184.27L81.96,177.93L82.12,177.65L110.62,160.74z"/><path style="fill:#ffffff" d="M40.45,0.05L296.95,0.08L296.99,152.47L203.30,100.77L202.65,100.78L201.08,101.79L200.29,102.07L201.32,98.63L202.18,96.38L204.19,84.94L195.10,80.15z"/><path style="fill:#ffffff" d="M5.02,111.25L7.54,113.53L18.88,124.82L21.40,127.11L32.74,138.40L35.26,140.69L46.61,151.98L49.13,154.27L60.47,165.56L62.99,167.85L74.33,179.14L84.90,189.29L85.19,189.82L85.09,190.03L82.99,191.34L83.07,195.01L84.30,209.85L0.08,209.82L0.05,106.37z"/><path style="fill:#e1cfcf" d="M125.51,148.90L126.53,149.93L126.80,153.62L126.67,155.30L126.52,158.98L126.35,163.69L119.38,168.07L115.92,165.28L110.62,160.74L121.54,154.07L121.83,152.38L122.00,148.53L123.66,147.68L123.87,147.67z"/><path style="fill:#d1b1b1" d="M123.87,147.67L124.66,147.00L126.74,145.92L126.92,146.07L126.78,147.37L126.74,149.86L126.53,149.93L125.51,148.90z"/><path style="fill:#f3f3f3" d="M124.69,172.63L126.19,173.74L126.19,173.95L125.42,174.36L125.22,176.71L124.69,188.34L108.25,199.62L108.06,209.85L99.30,209.85L100.28,208.87L100.34,208.29L99.98,208.25L99.40,208.60L98.99,209.82L84.30,209.85L83.07,195.01L82.99,191.34L85.09,190.03L85.19,189.82L118.91,168.41L119.36,168.27z"/><path style="fill:#0000ff" d="M79.59,100.24L56.95,110.42L55.79,111.84L56.46,117.23L57.35,118.61L60.73,147.48L61.01,148.89L63.32,151.11L63.83,152.57L63.87,154.17L60.72,151.16L60.54,151.13L60.21,150.76L59.31,143.24L57.90,131.07L57.33,124.85L56.20,121.73L53.92,118.36L53.65,117.22L53.37,114.67L53.37,110.80L56.39,109.01L67.11,103.54L70.17,102.18L84.48,96.08L97.70,91.20L100.23,90.33L102.98,90.31z"/><path style="fill:#01ff02" d="M108.82,90.34L115.89,94.02L122.99,98.80L124.12,99.93L124.10,106.85L123.50,107.66L122.69,137.12L122.42,137.41L121.98,142.01L121.98,146.26L122.00,148.53L121.83,152.38L121.54,154.07L110.62,160.74L82.12,177.65L81.40,170.66L64.69,154.83L63.97,154.49L63.87,154.17L63.83,152.57L63.32,151.11L61.01,148.89L60.73,147.48L57.35,118.61L56.46,117.23L55.79,111.84L56.95,110.42L79.59,100.24L102.98,90.31L105.04,89.48L106.56,89.48z"/><path style="fill:#a4c8f0" d="M243.79,18.73L244.60,19.90L250.34,43.80L249.57,43.85L249.44,42.49L249.13,42.17L248.76,42.22L248.59,43.88L247.04,43.93L245.90,44.41L245.10,44.19L244.90,44.96L243.19,45.74L243.07,46.58L244.75,46.96L245.57,47.32L245.76,58.26L245.37,58.36L219.71,72.04L217.35,72.51L214.03,72.54L212.94,71.64L212.34,70.55L203.56,37.46L203.20,35.19L203.77,33.19L204.99,32.15L218.56,26.67L218.48,26.14L231.49,21.02L234.62,20.48L239.14,18.77L241.40,18.20L242.92,18.19z"/><path style="fill:#00fdff" d="M251.45,44.21L251.44,44.61L250.57,45.26L247.91,46.49L248.00,53.28L248.14,56.85L248.18,59.32L249.43,59.48L249.99,59.77L250.56,60.62L250.83,62.34L250.54,74.02L249.90,76.21L248.74,77.59L232.91,87.26L232.16,87.25L230.18,86.65L229.59,85.83L229.33,84.40L229.32,71.75L230.36,68.83L232.15,67.22L239.98,62.61L245.73,59.88L245.76,58.26L245.57,47.32L246.05,47.04L244.75,46.96L243.07,46.58L243.19,45.74L244.90,44.96L245.09,46.05L245.72,46.05L245.90,44.41L247.04,43.93L248.59,43.88L248.79,44.35L249.28,44.26L249.57,43.85L250.34,43.80L251.16,43.92z"/><path style="fill:#ffffff" d="M166.36,122.27L166.34,122.43L163.79,123.91L0.05,16.70L0.05,14.72z"/><path style="fill:#ffffff" d="M147.60,191.87L168.88,209.85L149.08,209.85L125.11,188.77L109.36,199.64L109.37,200.08L109.95,200.38L112.52,202.90L115.04,205.19L119.66,209.85L108.06,209.85L108.25,199.62L124.69,188.34L125.22,176.71L125.42,174.36L126.19,173.95z"/><path style="fill:#1500d3" d="M63.87,154.17L63.97,154.49L65.30,166.65L65.16,166.74L64.42,166.73L62.97,165.04L60.73,152.86L60.54,151.13L60.72,151.16z"/><path style="fill:#e1cfcf" d="M199.72,102.96L167.30,122.32L166.34,122.43L166.36,122.27L199.26,102.77L199.72,102.75z"/><path style="fill:#e1cfcf" d="M126.74,145.92L126.77,145.74L163.79,123.91L163.41,128.05L127.00,149.93L126.91,147.48L126.78,147.37L126.92,146.07z"/><path style="fill:#d7b0b0" d="M70.17,102.18L67.11,103.54L15.77,63.44L0.05,51.21L0.05,48.38z"/><path style="fill:#d7b0b0" d="M126.77,145.74L126.74,145.92L124.66,147.00L123.87,147.67L123.66,147.68L122.96,146.92L121.98,146.26L121.98,142.01z"/><path style="fill:#14d300" d="M64.69,154.83L81.40,170.66L82.12,177.65L81.96,177.93L79.33,179.47L77.39,179.47L66.69,169.24L65.51,167.87L65.30,166.65L63.97,154.49z"/><path style="fill:#d8c8c8" d="M127.00,149.93L126.74,149.86L126.78,147.37L126.91,147.48z"/><path style="fill:#d8c8c8" d="M126.67,158.98L126.52,158.98L126.67,155.30z"/><path style="fill:#f3f3f3" d="M149.08,209.85L119.66,209.85L115.04,205.19L112.52,202.90L109.95,200.38L109.37,200.08L109.36,199.64L125.11,188.77z"/><path style="fill:#0000ff" d="M249.44,42.49L249.57,43.85L249.28,44.26L248.79,44.35L248.59,43.88L248.76,42.22L249.13,42.17z"/><path style="fill:#0000ff" d="M245.90,44.41L245.72,46.05L245.09,46.05L244.90,44.96L245.10,44.19z"/><path style="fill:#0000ff" d="M245.57,47.32L244.75,46.96L246.05,47.04z"/><path style="fill:#a4c8f0" d="M251.96,51.02L251.97,53.95L251.00,55.24L248.14,56.85L248.00,53.28L247.91,46.49L250.57,45.26z"/><path style="fill:#f1f1f4" d="M296.99,152.47L296.98,153.61L289.89,160.89L287.60,163.41L282.54,168.53L280.25,171.05L275.18,176.17L272.89,178.69L267.83,183.81L265.54,186.33L260.47,191.45L258.18,193.97L253.12,199.08L250.83,201.60L244.77,207.71L243.01,209.85L168.88,209.85L147.60,191.87L126.19,173.95L126.19,173.74L126.35,173.60L126.64,169.35L126.67,158.98L126.67,155.30L126.80,153.62L127.00,149.93L163.41,128.05L163.79,123.91L166.34,122.43L167.30,122.32L199.72,102.96L199.72,102.75L200.29,102.07L201.08,101.79L202.65,100.78L203.30,100.77z"/><path style="fill:#ead3d3" d="M163.79,123.91L126.77,145.74L121.98,142.01L122.42,137.41L122.69,137.12L123.50,107.66L124.10,106.85L124.12,99.93L122.99,98.80L115.89,94.02L108.82,90.34L106.56,89.48L105.04,89.48L102.98,90.31L100.23,90.33L97.70,91.20L84.48,96.08L70.17,102.18L0.05,48.38L0.05,16.70z"/><path style="fill:#ead3d3" d="M122.96,146.92L123.66,147.68L122.00,148.53L121.98,146.26z"/><path style="fill:#e7e9e9" d="M126.53,149.93L126.74,149.86L127.00,149.93L126.80,153.62z"/><path style="fill:#e7e9e9" d="M119.36,168.27L119.38,168.07L126.35,163.69L126.52,158.98L126.67,158.98L126.64,169.35L126.35,173.60L126.19,173.74L124.69,172.63z"/><path style="fill:#ffffff" d="M94.63,201.89L95.43,200.90L96.09,200.93L96.04,201.51L95.15,202.40L94.66,202.37z"/><path style="fill:#ffffff" d="M96.17,203.08L95.70,204.06L94.85,204.16L94.95,203.31L95.43,202.89L96.09,202.91z"/><path style="fill:#ffffff" d="M105.38,204.71L106.29,203.81L106.60,203.80L106.59,204.42L105.91,205.24L105.41,205.20z"/><path style="fill:#ffffff" d="M89.04,206.43L88.63,206.89L87.78,206.99L87.88,206.13L89.05,205.48z"/><path style="fill:#ffffff" d="M89.34,207.70L89.33,208.11L88.62,208.88L87.87,208.89L87.84,208.39L88.73,207.50L89.07,207.44z"/><path style="fill:#ffffff" d="M296.95,209.82L243.01,209.85L244.77,207.71L250.83,201.60L253.12,199.08L258.18,193.97L260.47,191.45L265.54,186.33L267.83,183.81L272.89,178.69L275.18,176.17L280.25,171.05L282.54,168.53L287.60,163.41L289.89,160.89L296.98,153.61z"/><path style="fill:#ffffff" d="M100.28,208.87L99.30,209.85L98.99,209.82L99.40,208.60L99.98,208.25L100.34,208.29z"/><g id="Actor_.0"><g style="stroke:#000000;stroke-width:0.049;stroke-opacity:0.09"><path d="M126.73,165.63L125.53,166.42"/></g><g style="stroke:#000000;stroke-width:0.247;stroke-opacity:0.09"><path d="M108.10,210.00L108.02,200.15L108.12,200.08L108.22,199.83L123.57,189.22L123.57,189.31L124.77,188.48L125.60,164.48L82.74,191.70L84.33,210.00"/><path d="M87.84,209.08L87.80,208.86L87.87,208.58L88.32,207.97L88.91,207.62L89.15,207.62L89.30,207.73L89.33,207.93L89.26,208.23L88.82,208.83L88.23,209.18L87.99,209.19L87.84,209.08"/><path d="M87.87,207.25L87.72,207.14L87.67,206.92L87.75,206.63L87.93,206.32L88.50,205.80L88.79,205.68L89.00,205.68L89.18,205.79L89.22,206.01L89.15,206.30L88.70,206.90L88.11,207.25L87.87,207.25"/><path d="M95.07,204.53L94.83,204.53L94.69,204.41L94.65,204.20L94.80,203.79L95.17,203.32L95.46,203.10L95.74,202.98L95.97,202.98L96.11,203.10L96.15,203.31L95.95,203.79L95.64,204.19L95.07,204.53"/><path d="M95.21,202.50L94.98,202.60L94.75,202.60L94.60,202.48L94.57,202.26L94.65,201.98L95.08,201.38L95.37,201.16L95.66,201.04L95.89,201.04L96.03,201.16L96.07,201.38L95.99,201.67L95.56,202.26L95.21,202.50"/><path d="M99.02,209.36L99.28,208.97L99.72,208.56L99.99,208.44L100.21,208.44L100.34,208.55L100.38,208.75L100.30,209.02L99.88,209.60L99.60,209.81L99.34,209.93L99.11,209.94L98.98,209.83L98.94,209.63L99.02,209.36"/><path d="M105.49,205.47L105.36,205.37L105.34,205.16L105.59,204.60L106.10,204.11L106.36,204.00L106.57,204.00L106.70,204.11L106.72,204.31L106.47,204.88L105.96,205.36L105.70,205.47L105.49,205.47"/><path d="M126.43,173.75L126.80,163.74L126.90,146.49L126.55,156.32L126.43,173.75L125.24,174.74"/><path d="M125.60,164.48L126.80,163.74"/><path d="M126.70,166.55L126.74,165.52"/></g></g><g id="Actor_.1"><g style="stroke:#000000;stroke-width:0.247;stroke-opacity:0.09"><path d="M119.85,210.00L109.19,199.93L125.09,188.91L149.08,210.00"/></g></g><g id="Actor_.2"><g style="stroke:#000000;stroke-width:0.049;stroke-opacity:0.09"><path d="M67.30,103.76L-0.00,51.31"/><path d="M-0.00,51.28L67.33,103.74"/><path d="M-0.00,51.37L67.24,103.78"/><path d="M-0.00,51.43L67.18,103.81"/><path d="M70.04,102.48L-0.00,48.59"/><path d="M-0.00,19.75L105.14,89.62"/><path d="M-0.00,19.83L105.04,89.66"/><path d="M105.48,89.51L-0.00,19.50"/><path d="M-0.00,19.58L105.36,89.54"/><path d="M126.76,150.14L163.14,128.28L163.31,128.14L163.80,124.17L-0.00,16.97"/><path d="M126.74,150.08L121.92,146.33"/><path d="M121.92,146.28L126.87,150.13"/><path d="M121.92,146.41L126.86,150.26"/><path d="M121.92,146.50L126.62,150.16L126.76,146.12L126.89,146.04"/><path d="M126.76,146.12L122.01,142.47"/><path d="M163.23,128.22L124.27,102.33"/><path d="M163.22,128.34L124.26,102.45"/><path d="M163.35,128.04L124.27,102.10"/><path d="M163.45,127.98L124.28,101.98"/><path d="M126.65,150.26L126.62,150.16"/><path d="M163.80,124.17L163.90,124.11"/></g><g style="stroke:#000000;stroke-width:0.247;stroke-opacity:0.09"><path d="M-0.00,51.34L67.26,103.77"/><path d="M67.12,103.84L-0.00,51.49"/><path d="M70.15,102.41L-0.00,48.47"/><path d="M-0.00,16.89L163.90,124.11L163.45,127.98L163.22,128.34L126.86,150.26L126.31,150.00L121.92,146.57"/><path d="M121.92,146.37L126.76,150.14L126.89,146.04L122.02,142.30"/></g></g><g id="Actor_.3"><g style="stroke:#000000;stroke-width:0.049;stroke-opacity:0.09"><path d="M-0.00,14.83L166.78,122.69L199.67,103.17L15.79,0.00"/><path d="M15.86,-0.00L199.79,103.09"/><path d="M15.69,-0.00L199.67,103.17"/><path d="M15.55,0.00L199.65,103.29"/><path d="M24.31,-0.00L26.91,1.41L25.87,0.85"/><path d="M24.45,-0.00L202.10,96.71"/><path d="M24.37,-0.00L202.08,96.77"/><path d="M26.91,1.41L28.98,2.54L27.94,1.98"/><path d="M28.98,2.54L32.08,4.23L31.05,3.67"/><path d="M32.08,4.23L34.15,5.36L33.11,4.80"/><path d="M34.15,5.36L36.22,6.49L35.18,5.92"/><path d="M36.22,6.49L38.29,7.61L37.25,7.05"/><path d="M38.29,7.61L40.36,8.74L39.32,8.18"/><path d="M40.36,8.74L42.43,9.87L41.39,9.30"/><path d="M39.81,-0.00L204.29,85.08"/><path d="M42.43,9.87L43.46,10.43L42.43,9.87"/><path d="M43.46,10.43L45.53,11.56L44.50,11.00"/><path d="M45.53,11.56L47.60,12.69L46.57,12.12"/><path d="M47.60,12.69L49.67,13.81L48.64,13.25"/><path d="M49.67,13.81L51.74,14.94L50.71,14.38"/><path d="M51.74,14.94L53.81,16.07L52.78,15.50"/><path d="M53.81,16.07L54.85,16.63L53.81,16.07"/><path d="M54.85,16.63L56.92,17.76L55.88,17.20"/><path d="M56.92,17.76L58.99,18.89L57.95,18.32"/><path d="M58.99,18.89L61.06,20.01L60.02,19.45"/><path d="M61.06,20.01L63.13,21.14L62.09,20.58"/><path d="M63.13,21.14L65.20,22.27L64.16,21.70"/><path d="M65.20,22.27L66.23,22.83L65.20,22.27"/><path d="M66.23,22.83L68.30,23.96L67.26,23.40"/><path d="M68.30,23.96L70.37,25.09L69.33,24.52"/><path d="M70.37,25.09L72.44,26.21L71.40,25.65"/><path d="M72.44,26.21L74.51,27.34L73.47,26.78"/><path d="M74.51,27.34L76.58,28.47L75.54,27.90"/><path d="M76.58,28.47L77.61,29.03L76.58,28.47"/><path d="M77.61,29.03L79.68,30.16L78.65,29.60"/><path d="M79.68,30.16L81.75,31.29L80.72,30.72"/><path d="M81.75,31.29L83.82,32.41L82.79,31.85"/><path d="M83.82,32.41L85.89,33.54L84.86,32.98"/><path d="M85.89,33.54L87.96,34.67L86.93,34.10"/><path d="M87.96,34.67L88.89,35.17L87.96,34.67"/><path d="M89.00,35.23L91.07,36.36L90.03,35.79"/><path d="M91.07,36.36L93.14,37.49L92.10,36.92"/><path d="M93.14,37.49L95.21,38.61L94.17,38.05"/><path d="M95.21,38.61L97.28,39.74L96.24,39.18"/><path d="M97.28,39.74L99.34,40.87L98.31,40.30"/><path d="M100.28,41.38L99.34,40.87L100.28,41.38"/><path d="M100.38,41.43L102.45,42.56L101.41,41.99"/><path d="M102.45,42.56L104.52,43.69L103.48,43.12"/><path d="M104.52,43.69L106.59,44.81L105.55,44.25"/><path d="M106.59,44.81L108.66,45.94L107.62,45.38"/><path d="M108.66,45.94L110.73,47.07L109.69,46.50"/><path d="M111.68,47.59L110.73,47.07L111.68,47.59"/><path d="M111.76,47.63L113.83,48.76L112.80,48.19"/><path d="M113.83,48.76L115.90,49.89L114.87,49.32"/><path d="M115.90,49.89L117.97,51.01L116.94,50.45"/><path d="M117.97,51.01L120.04,52.14L119.01,51.58"/><path d="M120.04,52.14L122.11,53.27L121.08,52.70"/><path d="M122.11,53.27L123.08,53.79L122.11,53.27"/><path d="M123.15,53.83L125.22,54.96L124.18,54.39"/><path d="M125.22,54.96L127.29,56.09L126.25,55.52"/><path d="M127.29,56.09L129.36,57.21L128.32,56.65"/><path d="M129.36,57.21L131.43,58.34L130.39,57.78"/><path d="M131.43,58.34L133.49,59.47L132.46,58.90"/><path d="M133.49,59.47L135.56,60.59L133.49,59.47"/><path d="M135.56,60.59L136.60,61.16L135.56,60.59"/><path d="M136.60,61.16L138.67,62.29L137.63,61.72"/><path d="M138.67,62.29L140.74,63.41L139.70,62.85"/><path d="M140.74,63.41L142.81,64.54L141.77,63.98"/><path d="M142.81,64.54L144.88,65.67L143.84,65.10"/><path d="M144.88,65.67L145.87,66.21L144.88,65.67"/><path d="M145.90,66.21L147.98,67.36L146.95,66.79"/><path d="M147.98,67.36L150.05,68.48L149.02,67.92"/><path d="M150.05,68.48L152.12,69.61L151.09,69.05"/><path d="M152.12,69.61L154.19,70.74L153.16,70.18"/><path d="M154.19,70.74L156.26,71.87L155.23,71.30"/><path d="M157.27,72.41L156.26,71.87L157.27,72.41"/><path d="M157.30,72.43L159.37,73.56L158.33,72.99"/><path d="M159.37,73.56L161.44,74.67L160.40,74.12"/><path d="M161.44,74.67L163.51,75.79L162.47,75.23"/><path d="M163.51,75.79L165.57,76.92L164.54,76.36"/><path d="M165.57,76.92L167.64,78.05L166.61,77.48"/><path d="M166.78,122.69L166.77,122.81"/><path d="M167.64,78.05L169.71,79.17L168.66,78.62"/><path d="M170.60,79.66L170.75,79.74L169.71,79.17L170.60,79.66"/><path d="M170.75,79.74L172.82,80.87L171.78,80.30"/><path d="M172.82,80.87L174.89,81.99L173.85,81.43"/><path d="M174.89,81.99L176.96,83.12L175.92,82.56"/><path d="M176.96,83.12L179.03,84.25L177.99,83.68"/><path d="M180.06,84.83L181.10,85.37L179.03,84.25"/><path d="M181.10,85.37L182.13,85.94L181.10,85.37"/><path d="M182.13,85.94L184.20,87.06L183.17,86.50"/><path d="M184.20,87.06L186.27,88.19L185.24,87.63"/><path d="M186.27,88.19L188.34,89.32L187.31,88.76"/><path d="M188.34,89.32L190.41,90.45L189.38,89.88"/><path d="M191.45,91.03L190.41,90.45L192.48,91.57L191.45,91.01"/><path d="M193.39,92.07L193.52,92.14L192.48,91.57L193.39,92.07"/><path d="M193.52,92.14L195.59,93.26L194.55,92.70"/><path d="M195.59,93.26L197.66,94.39L196.62,93.83"/><path d="M197.66,94.39L199.72,95.52L198.69,94.95"/><path d="M199.72,103.11L202.01,96.78L199.72,95.52"/><path d="M201.79,96.65L200.76,96.08"/><path d="M202.01,96.78L204.20,85.13"/></g><g style="stroke:#000000;stroke-width:0.247;stroke-opacity:0.09"><path d="M39.93,-0.00L204.29,85.08L202.10,96.71L199.72,103.21L166.77,122.81L0.00,14.91"/></g></g><g id="Actor_.4"><g style="stroke:#000000;stroke-width:0.049;stroke-opacity:0.09"><path d="M-0.00,104.68L82.32,184.80L84.86,189.31L-0.00,106.23"/><path d="M126.54,163.60L85.39,189.70L-0.00,106.14"/><path d="M82.32,184.80L-0.00,104.66"/><path d="M-0.00,104.46L75.55,177.93L74.51,176.92"/><path d="M81.46,170.82L81.29,170.92L-0.00,94.75"/><path d="M-0.00,51.74L66.88,103.96"/><path d="M75.55,177.93L82.47,184.66"/><path d="M82.30,184.75L81.29,170.92"/><path d="M85.16,189.84L84.86,189.31L85.40,189.84"/><path d="M85.39,189.70L85.31,189.71"/><path d="M126.66,150.50L126.65,150.63L121.91,146.92"/><path d="M126.53,163.73L126.65,150.63"/></g><g style="stroke:#000000;stroke-width:0.247;stroke-opacity:0.09"><path d="M121.91,146.80L126.66,150.50L126.53,163.73L85.25,189.89L-0.00,106.42"/><path d="M-0.00,94.54L81.46,170.82L82.47,184.66L85.31,189.71L-0.00,106.20"/><path d="M66.97,103.91L-0.00,51.65"/></g></g><g id="Actor_.5"><g style="stroke:#000000;stroke-width:0.049;stroke-opacity:0.09"><path d="M210.93,105.21L115.06,164.63L110.57,160.86"/><path d="M297.00,152.86L210.90,105.31L115.06,164.75"/><path d="M115.06,164.63L169.07,210.00"/><path d="M210.90,105.31L202.96,100.93L121.86,148.99"/><path d="M125.70,173.57L125.70,173.69"/><path d="M202.96,100.93L202.98,100.82"/><path d="M297.00,153.65L242.72,210.00"/></g><g style="stroke:#000000;stroke-width:0.247;stroke-opacity:0.09"><path d="M168.91,210.00L110.49,160.91"/><path d="M297.00,152.72L202.98,100.82L121.86,148.87"/><path d="M297.00,153.71L242.80,210.00"/></g></g><g id="Actor_.6"><g style="stroke:#000000;stroke-width:0.049"><path d="M243.25,74.79L243.66,74.69L244.02,74.42L243.89,74.29L243.83,74.03L243.86,73.72L243.09,73.56"/><path d="M242.90,46.16L242.92,46.28L243.14,46.38L243.52,46.44L243.54,46.94"/><path d="M244.02,74.42L244.14,74.44"/><path d="M243.86,73.72L244.00,73.41L244.13,73.26L244.29,73.24L244.08,72.89"/><path d="M244.13,73.48L244.15,73.45L244.02,73.76L244.04,73.72"/><path d="M245.32,74.65L245.18,74.57L245.13,74.46L245.09,74.23L244.00,74.04L244.06,74.32"/><path d="M244.00,74.07L243.99,73.99L245.09,74.16L245.09,74.22L245.42,74.21L245.57,74.15L245.70,74.06L245.81,73.95L245.95,73.65L245.98,73.47L245.92,73.46L246.44,61.71L246.11,61.65L245.94,61.59L245.88,61.55L245.83,61.43"/><path d="M244.18,74.45L244.09,74.37L244.05,74.30"/><path d="M244.19,74.44L244.17,74.44"/><path d="M243.99,73.99L244.02,73.76"/><path d="M245.57,73.35L245.53,73.43L245.42,73.50L245.29,73.51L244.19,73.38L244.26,73.30L244.40,73.25"/><path d="M244.19,73.38L244.15,73.45"/><path d="M243.52,46.44L245.80,46.61L246.29,46.62L246.93,46.55L247.28,46.48L247.63,46.36L247.64,46.86L247.31,46.98L246.83,47.07L246.31,47.12L245.82,47.11L245.80,46.61"/><path d="M245.54,73.36L245.37,73.43L245.21,73.65L245.10,73.98L245.09,74.16L245.40,74.15L245.66,74.01L245.85,73.77L245.92,73.46L245.66,73.34L245.61,73.27L245.61,73.19"/><path d="M244.29,73.29L244.30,73.28"/><path d="M244.35,73.24L244.29,73.24"/><path d="M245.73,46.10L245.74,46.21L245.68,46.24L245.44,46.30L245.15,46.31L244.95,46.28L244.88,46.21L244.95,46.17"/><path d="M246.96,73.68L247.04,73.32L246.91,73.42L246.65,73.50L246.31,73.51L245.98,73.47L246.54,61.72L246.91,61.72L247.33,61.68L246.95,61.71"/><path d="M245.56,73.36L245.49,73.41"/><path d="M245.46,73.38L245.46,73.38"/><path d="M245.83,61.44L245.88,61.54"/><path d="M246.11,61.65L245.91,61.56"/><path d="M246.11,61.65L246.46,61.71L246.44,61.71"/><path d="M245.82,47.11L245.39,47.08"/><path d="M245.74,46.10L245.80,46.17L245.74,46.21"/><path d="M246.96,73.67L246.96,73.68"/><path d="M247.71,61.59L247.37,61.67L247.83,61.56L248.03,61.47L248.15,61.33L247.04,73.31"/><path d="M246.54,61.72L246.47,61.71"/><path d="M247.36,61.67L247.33,61.68L247.37,61.67"/><path d="M246.88,61.72L246.47,61.71"/><path d="M247.78,61.57L248.02,61.47"/><path d="M248.04,61.46L248.15,61.31"/><path d="M247.64,46.86L247.74,46.81"/><path d="M247.63,46.36L251.31,44.53L251.32,45.03"/><path d="M249.41,44.29L249.42,44.39L249.13,44.48L248.85,44.49L248.63,44.46L248.57,44.40L248.64,44.35"/><path d="M249.42,44.39L249.48,44.35L249.42,44.29"/><path d="M251.31,44.53L251.47,44.40"/></g><g style="stroke:#000000;stroke-width:0.247"><path d="M249.40,44.03L250.82,44.13L251.21,44.18L251.44,44.28L251.47,44.39L251.48,44.90L251.32,45.03L247.74,46.81L248.15,61.31L247.04,73.31L246.96,73.67L246.80,74.01L246.48,74.36L246.17,74.54L245.71,74.66L245.32,74.65L244.14,74.44L243.85,74.68L243.47,74.78L243.25,74.79L243.09,74.76"/><path d="M244.92,45.12L243.07,46.02L242.90,46.16L242.94,46.78L243.16,46.88L243.54,46.94L245.39,47.08"/><path d="M243.69,72.68L243.74,72.68L244.08,72.89L244.22,73.01L244.35,73.24L245.54,73.36L245.59,73.32L245.83,61.44L245.40,47.55"/><path d="M248.63,43.98L248.07,43.97L247.57,44.02L247.11,44.10L246.77,44.22L245.69,44.75"/></g></g><g id="Actor_9.0"><g style="stroke:#000000;stroke-width:0.049"><path d="M229.22,84.02L229.22,83.99L230.61,84.28L230.64,84.87L230.77,85.55L230.97,86.15L231.16,86.52L231.38,86.84L231.78,87.21L232.14,87.42L232.40,87.49"/><path d="M229.06,74.11L230.46,74.38L230.50,73.48L230.63,72.67L230.95,71.57L231.28,70.76L232.04,69.42L232.30,69.02L232.57,68.68L232.99,68.28L233.85,67.70L236.46,66.05L238.23,65.01L240.02,63.99L240.03,66.02L241.17,65.39L243.00,64.45L245.79,63.15"/><path d="M231.41,67.87L233.15,68.16"/><path d="M234.05,86.79L234.02,84.63L233.62,84.81L233.31,84.87L232.98,84.84L232.68,84.69L232.45,84.44L232.22,83.99L232.08,83.53L231.99,82.94L231.95,82.16L233.48,81.02L233.52,81.70L233.67,82.46L233.84,82.88L233.98,83.10L234.14,83.28L234.32,83.41L234.51,83.50L234.74,83.55L234.97,83.55L235.47,83.43L235.94,83.19L234.02,84.62L240.06,81.08L240.07,83.02"/><path d="M231.95,82.16L231.85,75.25L233.42,75.95L233.48,81.02"/><path d="M231.85,75.25L231.88,74.41L231.96,73.69L232.12,72.84L232.36,72.08L232.72,71.32L233.03,70.82L233.46,70.32L233.87,69.96L233.85,67.70"/><path d="M233.42,75.95L233.45,75.22L233.54,74.50L233.68,73.86L233.87,73.27L234.12,72.72L234.40,72.24L234.75,71.77L235.18,71.33L235.46,71.11L235.84,70.86L245.75,65.34"/><path d="M240.03,66.02L238.24,67.06L236.48,68.17L233.87,69.96L235.84,70.86"/><path d="M235.94,83.19L247.99,75.97L248.34,75.71L248.60,75.45L248.92,75.08L249.13,74.78L249.46,74.17L249.73,73.45L249.93,72.66L250.02,71.98L250.06,71.29L250.11,66.44L250.07,65.56L249.97,65.02L249.83,64.60L249.63,64.27L249.40,64.04L249.13,63.90L248.81,63.85L248.36,63.93L247.91,64.13L247.90,64.05"/><path d="M249.03,74.93L248.44,75.74L248.09,76.11L247.70,76.42L243.87,78.78L240.06,81.08"/><path d="M240.08,76.64L239.99,76.58L239.91,76.44L239.86,76.18L239.86,76.14L239.89,76.12L240.08,76.09L240.14,76.36L240.21,76.44L240.31,76.46L240.19,76.55L240.15,76.65L240.08,76.64"/><path d="M239.86,76.14L239.86,74.96L239.89,74.94L240.08,74.91L241.98,74.94L241.99,75.57L242.23,75.52L242.26,75.68L242.29,75.72L242.37,75.75L242.99,75.59L243.61,75.31L244.22,74.90L244.66,74.53"/><path d="M239.86,74.96L240.52,74.57"/><path d="M239.85,73.43L239.86,74.62L240.08,74.57L240.10,74.48L240.10,73.39L239.85,73.43L239.85,73.38L239.94,72.92L240.14,72.57L240.22,72.70L240.30,72.77L240.20,72.89L240.13,73.04L240.10,73.39L241.99,73.96L242.08,73.60L242.22,73.33L240.30,72.77L240.75,72.30L241.21,71.89L241.67,71.53L242.36,71.12L243.04,70.86L243.48,70.77L243.92,70.74L243.85,70.64L243.83,70.50L243.93,70.53L244.00,70.59L244.10,70.86"/><path d="M240.02,63.99L241.17,63.37L241.17,65.39"/><path d="M242.03,76.04L241.53,76.31L241.07,76.49L240.61,76.60L240.15,76.65"/><path d="M242.29,75.95L242.80,75.80L242.18,75.94L242.06,75.83L241.99,75.57L240.10,76.09L240.10,74.91"/><path d="M240.98,76.36L241.12,76.32L240.76,76.41L240.31,76.46L242.21,75.94L242.30,75.89L242.37,75.75"/><path d="M240.10,74.57L241.99,74.59L241.99,73.96L242.24,73.91L242.24,74.55L242.94,74.14L243.04,73.56L243.27,73.00L243.50,72.67L243.66,72.52L243.83,72.44L244.07,72.43L244.27,72.58L244.38,72.75L244.45,72.97L244.49,73.24L244.44,73.25"/><path d="M240.14,72.57L240.60,72.09L241.06,71.67L241.53,71.31L242.00,71.02L242.47,70.79L242.93,70.62L243.39,70.53L243.83,70.50"/><path d="M241.19,82.34L241.19,80.41"/><path d="M242.53,75.88L241.54,76.18L241.77,76.12"/><path d="M242.29,75.96L241.13,76.32L241.71,76.14"/><path d="M241.52,76.20L241.12,76.32"/><path d="M241.56,76.19L241.66,76.16"/><path d="M241.99,74.94L242.24,74.89L242.23,75.52"/><path d="M241.99,74.59L242.24,74.55"/><path d="M242.46,74.42L242.53,74.48L242.51,74.55L242.43,74.61L242.21,74.67L241.85,74.68L241.69,74.65L241.56,74.59"/><path d="M242.29,72.42L242.02,72.30L241.77,72.28L241.65,72.32L241.58,72.38L241.53,72.55L241.59,72.72L241.77,72.89L242.07,73.02L242.30,73.02L242.47,72.93L242.53,72.77L242.46,72.59L242.29,72.42L242.29,73.02"/><path d="M242.13,71.24L243.60,72.23L243.20,72.48L242.80,72.78L242.22,73.33L242.33,73.44L242.37,73.53L242.27,73.72L242.24,73.91"/><path d="M241.17,63.37L243.92,61.96L245.82,61.04"/><path d="M243.11,75.67L243.19,75.64L243.00,75.73L243.09,75.68"/><path d="M243.00,75.73L242.80,75.80"/><path d="M242.29,74.52L242.29,74.66"/><path d="M242.24,74.89L243.03,74.43L243.06,74.67L243.18,74.96L243.36,75.11L243.58,75.13L243.73,75.06L243.89,74.93L244.03,74.75L244.20,74.45"/><path d="M243.00,73.72L243.04,73.73L243.17,73.32L243.29,73.09L243.43,72.89L243.65,72.70L243.80,72.65L244.01,72.69L244.12,72.80L244.22,73.01"/><path d="M244.49,73.24L245.18,72.83L245.18,72.19L245.12,72.03L244.86,72.04L244.46,72.13L243.83,72.41L243.41,72.66L242.99,72.97L242.37,73.53"/><path d="M243.03,74.43L242.86,74.36L242.63,74.32"/><path d="M242.94,74.14L242.99,74.05L243.04,73.73"/><path d="M243.24,75.62L243.19,75.64"/><path d="M243.19,75.64L243.53,75.47L243.95,75.20L244.74,74.55"/><path d="M243.22,75.01L243.34,75.01L243.49,74.96L243.75,74.71"/><path d="M244.37,71.42L244.13,71.29L243.85,71.19L243.68,71.18L243.61,71.25L243.64,71.34L243.72,71.44L243.99,71.62L244.33,71.75L244.49,71.77L244.59,71.74L244.61,71.68L244.57,71.60L244.37,71.42L244.36,71.76"/><path d="M243.60,72.23L244.22,71.94L244.58,71.84L244.96,71.77L243.92,70.74L244.00,70.76"/><path d="M244.01,70.77L245.09,71.82L244.96,71.77L245.04,71.87L245.06,72.01"/><path d="M244.53,73.21L244.59,73.27"/><path d="M244.96,73.30L245.18,73.17L245.18,73.33"/><path d="M245.18,73.17L245.21,73.14L245.20,73.10L244.94,72.97"/><path d="M245.21,73.14L245.21,73.33"/><path d="M245.18,72.83L245.22,72.80L245.22,72.20L245.18,72.23"/><path d="M245.22,72.20L245.20,72.00L245.09,71.82"/><path d="M247.51,78.62L247.52,76.53L247.82,76.09"/><path d="M247.91,64.13L247.89,64.14"/><path d="M250.04,65.35L249.76,63.72L249.63,63.25L249.45,62.88L249.22,62.59L248.91,62.35L248.55,62.24L248.30,62.23L248.06,62.25"/><path d="M248.11,59.99L248.42,59.85L248.11,59.81"/><path d="M248.42,59.85L248.92,59.71L249.31,59.71"/><path d="M250.65,72.46L250.65,72.45"/><path d="M250.76,62.99L250.76,63.02"/></g><g style="stroke:#000000;stroke-width:0.247"><path d="M248.10,59.53L249.43,59.73L249.79,59.86L250.04,60.05L250.29,60.41L250.49,60.90L250.64,61.49L250.73,62.16L250.76,62.96L250.62,73.01L250.51,74.01L250.30,75.03L250.08,75.79L249.75,76.65L249.34,77.23L249.04,77.57L248.73,77.86L248.42,78.10L243.87,80.74L240.63,82.68L237.14,84.83L233.22,87.32L232.80,87.48L232.40,87.49L230.59,87.10L230.31,86.98L230.09,86.81L229.88,86.58L229.62,86.12L229.48,85.75L229.37,85.32L229.26,84.60L229.22,84.04L229.06,74.06L229.11,72.91L229.32,71.66L229.55,70.83L229.74,70.29L230.18,69.33L230.43,68.91L230.70,68.54L230.98,68.23L231.27,67.97L233.11,66.78L234.82,65.72L237.38,64.23L240.54,62.53L243.07,61.28L245.79,60.01"/><path d="M250.65,72.43L250.65,72.43"/></g></g><g id="Actor_.7"><g style="stroke:#000000;stroke-width:0.049"><path d="M249.36,42.58L249.36,42.59L249.36,42.60L249.34,42.61L249.31,42.63L249.28,42.65L249.22,42.66L249.17,42.68L249.12,42.69L249.04,42.70L249.09,44.48"/><path d="M249.22,42.45L249.23,42.46L249.23,42.47L249.22,42.48L249.22,42.49L249.20,42.50L249.18,42.51L249.13,42.52L249.09,42.53L249.05,42.54L248.98,42.55L248.92,42.55L248.87,42.55L248.83,42.55L248.78,42.54L248.75,42.53L248.73,42.52L248.72,42.51L248.72,42.50L248.72,42.50L248.73,42.49"/><path d="M249.02,42.54L249.04,42.70L248.94,42.70L248.86,42.71L248.79,42.70L248.73,42.70L248.67,42.69L248.63,42.68L248.62,42.67L248.60,42.66L248.60,42.65L248.59,42.64"/><path d="M249.35,42.56L249.35,42.56"/><path d="M248.60,42.62L248.61,42.62"/><path d="M249.35,42.56L249.35,42.56"/></g><g style="stroke:#000000;stroke-width:0.247"><path d="M248.60,42.62L248.60,42.63L248.59,42.64L248.64,44.47"/><path d="M249.41,44.40L249.36,42.58"/><path d="M249.35,42.56L249.22,42.45L249.20,42.44L249.16,42.43L249.11,42.42L249.05,42.42L248.97,42.43L248.90,42.43L248.85,42.44L248.79,42.46L248.76,42.47L248.73,42.49L248.61,42.62"/><path d="M249.36,42.58L249.36,42.57L249.35,42.56"/></g></g><g id="Actor_.8"><g style="stroke:#000000;stroke-width:0.049"><path d="M244.79,47.50L244.83,47.52L244.82,47.51"/><path d="M244.85,47.52L244.91,47.54L244.96,47.54L245.02,47.54L245.09,47.53L245.19,47.54L245.28,47.55L245.36,47.55L245.46,47.54L245.56,47.53L245.66,47.51L245.77,47.47L245.85,47.44L245.88,47.44L245.92,47.43L245.97,47.41"/><path d="M245.09,47.53L245.08,47.06"/><path d="M244.87,47.53L244.88,47.53"/><path d="M244.83,47.52L244.85,47.52"/><path d="M244.83,47.52L244.83,47.52"/><path d="M244.90,44.44L244.91,44.46L244.93,44.47L244.97,44.49L245.03,44.50L245.11,44.50L245.18,44.50L245.34,44.50L245.40,46.30"/><path d="M245.53,44.25L245.54,44.26L245.53,44.27L245.51,44.29L245.48,44.30L245.40,44.33L245.29,44.34L245.17,44.35L245.08,44.33L245.05,44.32L245.03,44.31L245.03,44.30L245.03,44.29L245.03,44.28"/><path d="M244.91,44.41L244.91,44.41"/><path d="M245.99,47.40L245.99,47.40"/><path d="M245.98,47.40L246.00,47.39"/><path d="M245.85,47.44L245.84,47.11"/><path d="M245.96,47.42L245.96,47.42"/><path d="M245.96,47.42L245.97,47.41"/><path d="M245.98,47.41L245.98,47.41"/><path d="M245.32,44.34L245.34,44.50L245.47,44.47L245.58,44.44L245.63,44.42L245.65,44.41L245.67,44.39L245.67,44.37"/></g><g style="stroke:#000000;stroke-width:0.247"><path d="M244.61,47.02L244.62,47.41L244.73,47.48L244.82,47.51"/><path d="M244.85,47.52L244.96,47.54L245.11,47.56L245.29,47.55L245.48,47.54L245.65,47.51L245.79,47.48L245.85,47.47L245.91,47.44L245.96,47.42L246.00,47.40"/><path d="M244.88,47.53L244.87,47.53"/><path d="M244.83,47.52L244.82,47.51L244.83,47.52"/><path d="M244.85,47.52L244.83,47.52"/><path d="M244.91,44.41L244.90,44.42L244.90,44.44L244.95,46.28"/><path d="M245.73,46.21L245.67,44.37L245.67,44.36L245.66,44.35L245.53,44.25L245.51,44.23L245.47,44.22L245.42,44.22L245.36,44.21L245.29,44.22L245.17,44.23L245.10,44.25L245.06,44.27L245.03,44.28L244.91,44.41"/><path d="M245.96,47.42L245.96,47.42"/><path d="M245.98,47.40L245.98,47.41"/><path d="M246.13,47.12L246.13,47.24L246.06,47.33L246.03,47.37L246.00,47.39"/></g></g><g id="Actor_.9"><g style="stroke:#000000;stroke-width:0.049"><path d="M242.02,74.59L242.02,74.69"/></g><g style="stroke:#000000;stroke-width:0.247"><path d="M241.78,74.59L241.78,74.67"/><path d="M242.27,74.53L242.27,74.66"/></g></g><g id="Actor_.10"><g style="stroke:#000000;stroke-width:0.049"><path d="M53.67,117.84L53.84,118.27L54.14,118.66L54.23,119.09"/><path d="M53.65,117.63L53.66,117.74"/><path d="M54.80,119.78L54.72,119.36L54.14,118.66L53.62,113.69L53.27,113.26L53.13,112.78L53.31,113.21L53.60,113.55L53.56,112.76L53.79,112.52L53.41,112.03L53.37,111.48L53.68,110.91L54.41,110.35L54.85,110.64L54.62,111.01L54.58,111.34L54.84,111.81L55.14,111.88L54.99,111.74"/><path d="M53.62,113.69L53.60,113.55"/><path d="M53.13,112.78L53.13,112.72"/><path d="M53.59,113.44L53.25,113.01L53.10,112.50"/><path d="M56.13,115.03L53.46,112.81L53.20,112.48L53.06,112.04"/><path d="M53.55,112.82L53.57,112.75"/><path d="M53.12,112.62L53.13,112.76"/><path d="M53.08,111.74L53.07,111.78"/><path d="M55.29,112.02L55.03,111.97L53.81,112.51L56.05,114.40"/><path d="M54.72,119.36L55.79,120.89L56.58,122.38L57.20,123.93L57.62,125.59L57.87,125.66L58.06,125.61L58.14,126.31L57.98,126.36L57.70,126.29L57.05,120.74L57.30,120.81L57.49,120.77L58.06,125.61"/><path d="M55.37,110.23L55.59,110.59L55.14,110.94L55.04,110.76L54.85,110.64L55.21,110.32L60.96,107.27L69.31,103.17L77.32,99.58L77.50,99.94L70.14,103.23L63.03,106.69L55.59,110.59L55.62,110.89L61.06,108.01L66.70,105.18L71.13,103.08L77.77,100.13L82.19,98.28L88.81,95.68L95.43,93.29L99.85,91.80L99.85,91.87"/><path d="M79.44,98.33L79.75,98.55L77.32,99.58L77.10,99.40L69.89,102.62L63.00,105.93L54.41,110.35L54.28,110.33"/><path d="M55.14,110.94L54.92,111.33L54.95,111.68L55.13,111.29L55.62,110.89L55.85,111.26L55.41,111.63L55.29,112.01L55.14,111.88"/><path d="M54.89,111.86L55.85,112.64"/><path d="M55.29,112.01L55.83,112.45"/><path d="M54.95,111.68L55.02,111.77"/><path d="M55.85,111.26L56.73,110.79"/><path d="M54.91,111.55L54.92,111.58"/><path d="M57.40,120.79L57.05,120.74L56.69,117.71"/><path d="M63.17,165.54L61.24,155.08L59.78,145.55L58.55,135.52L57.72,126.41L60.34,148.60L60.59,149.13L62.94,152.00L64.61,166.93"/><path d="M57.38,125.63L57.44,125.91L57.72,126.41L57.87,126.48L58.15,126.44L60.82,148.78"/><path d="M57.22,124.68L57.21,124.62"/><path d="M57.53,120.75L57.18,118.19"/><path d="M57.09,110.59L62.76,107.61L67.37,105.33L76.57,101.09L85.75,97.29L90.34,95.53L95.57,93.66"/><path d="M58.15,126.44L58.14,126.31"/><path d="M60.59,149.13L60.83,148.84"/><path d="M60.34,148.60L60.58,148.67L60.80,148.60"/><path d="M63.57,151.58L63.25,151.75L61.52,149.64"/><path d="M62.85,164.94L62.87,165.02"/><path d="M62.76,164.48L62.56,163.45L62.70,164.17"/><path d="M62.56,163.45L62.51,163.20"/><path d="M65.01,166.95L63.34,151.96L62.97,152.01L63.25,151.75L63.34,151.96L63.69,151.78"/><path d="M77.50,99.94L85.25,96.75L92.34,94.08L99.84,91.52L101.25,91.28"/><path d="M100.16,91.43L100.08,91.11L99.74,90.77L97.80,91.43L93.45,92.94L88.30,94.85L82.35,97.20L77.10,99.40L76.97,99.38"/><path d="M100.32,91.67L99.85,91.80L99.82,91.39L99.70,91.17L93.34,93.31L86.84,95.72L79.75,98.55L79.93,98.91"/><path d="M93.49,92.86L93.59,92.83L93.14,92.99"/><path d="M94.18,92.62L95.62,92.11"/><path d="M102.09,90.92L100.83,90.93L99.70,91.17"/><path d="M103.13,90.48L101.52,90.43L99.64,90.74"/></g><g style="stroke:#000000;stroke-width:0.247"><path d="M93.49,92.86L88.87,94.56L82.93,96.89L76.98,99.37L70.96,102.05L63.23,105.73L56.07,109.37L53.86,110.59L53.49,110.92L53.15,111.45L53.06,112.04L53.76,118.21L54.13,118.96L55.39,120.56L56.26,122.07L56.95,123.72L57.32,125.17L58.23,134.89L59.58,145.73L61.17,155.88L62.87,165.02L63.09,165.46L64.61,166.93L64.94,166.98L65.35,166.76"/><path d="M62.70,164.17L62.85,164.94"/><path d="M103.22,90.44L101.77,90.37L100.22,90.58L93.44,92.88"/></g></g><g id="Actor_11.0"><g style="stroke:#000000;stroke-width:0.049"><path d="M55.83,112.52L55.90,112.72L55.98,112.10L56.47,111.31L56.92,110.92L57.73,110.53L57.17,110.55"/><path d="M57.05,118.07L56.48,113.24L59.78,115.15L63.95,118.07L68.76,121.86L71.95,124.63L72.00,124.17L72.44,123.22L72.83,122.74L73.75,122.07L69.40,118.37L66.02,115.77L62.03,112.99L58.92,111.14L57.84,110.58L56.99,111.23L56.69,111.69L56.49,112.20L56.42,112.73L56.48,113.24L55.90,112.72"/><path d="M57.08,110.60L56.77,110.76"/><path d="M61.07,149.22L57.48,118.44L63.76,123.84L72.51,131.15L71.95,124.63L72.74,125.16L72.70,124.43L72.85,123.64L73.26,122.76L73.82,122.13L97.76,110.69L122.11,99.27L122.48,99.54L123.03,100.34L123.33,101.26L123.36,101.70L124.06,101.27L123.88,100.73L123.15,99.81L122.23,99.21L122.99,99.16L123.63,99.48"/><path d="M57.48,118.44L57.24,118.23"/><path d="M57.41,110.45L57.63,110.38L57.90,110.45L57.73,110.53L57.84,110.58"/><path d="M57.90,110.45L71.40,104.32L82.78,99.31L105.55,89.68L105.28,89.56"/><path d="M65.74,168.44L63.91,151.90L75.66,162.75L77.09,179.45"/><path d="M63.91,151.90L63.68,151.68"/><path d="M75.60,162.70L72.92,131.44L73.47,131.73L74.01,131.83L74.77,131.72L75.74,131.31L75.16,124.34L74.79,123.33L73.91,122.09"/><path d="M72.92,131.44L72.51,131.15"/><path d="M72.74,125.16L73.58,125.33L74.34,125.18L74.40,124.19L74.32,123.46L74.00,122.45L73.75,122.07"/><path d="M74.34,125.18L123.36,101.70L123.21,107.59L123.20,107.75L122.94,107.88L122.20,137.76"/><path d="M75.52,131.41L78.02,162.81L77.50,163.02L76.67,163.11L76.28,163.04L75.66,162.75"/><path d="M122.94,107.88L75.74,131.31"/><path d="M79.42,179.56L78.08,162.78"/><path d="M78.02,162.81L93.80,153.94L121.62,138.10L121.23,154.43"/><path d="M106.12,89.51L105.55,89.68L106.44,89.62"/><path d="M105.40,89.74L105.10,89.68L104.84,89.75"/><path d="M122.15,99.25L122.23,99.21L119.06,96.94L114.62,94.14L109.91,91.57L105.67,89.72"/><path d="M122.12,137.81L121.62,138.10"/><path d="M122.16,99.17L122.55,99.04L123.20,99.14"/><path d="M123.20,107.75L123.47,107.61"/><path d="M124.06,101.27L124.31,100.82"/><path d="M124.17,100.22L124.18,100.24"/><path d="M123.34,99.28L123.25,99.25"/><path d="M124.22,103.91L124.30,100.94"/></g><g style="stroke:#000000;stroke-width:0.247"><path d="M55.88,112.95L55.82,112.15L56.00,111.57L56.44,111.01L57.17,110.55L76.65,101.73L85.99,97.68L105.41,89.52L106.00,89.49L106.44,89.62L111.01,91.60L113.89,93.10L117.93,95.49L120.11,96.93L123.63,99.48L124.13,100.11L124.31,100.82L124.13,106.99L123.94,107.28L123.51,107.59L123.45,108.62L122.71,137.14L122.44,137.59L122.13,137.80L121.74,153.71L121.67,153.98L121.23,154.43L79.42,179.56L78.65,179.84L78.17,179.87L77.38,179.66L65.56,168.18L63.68,151.68L61.07,149.22L60.82,148.82L57.24,118.23L56.74,117.78L56.39,117.22L55.88,112.95"/></g></g><g id="Actor_10.0"><g style="stroke:#000000;stroke-width:0.049"><path d="M214.82,72.95L214.29,72.74L213.78,72.36L213.34,71.82L212.97,71.14L212.70,70.36L216.07,69.94L207.23,36.11L209.03,35.56L208.92,34.87L208.91,34.19L209.02,33.56L209.24,33.03L209.55,32.62L209.94,32.37L209.73,31.90L209.40,31.54L209.00,31.34L208.58,31.34L205.22,32.15L204.72,32.45L204.30,32.93L203.97,33.56L203.76,34.31L203.66,35.14L203.70,36.01L203.86,36.88L203.39,36.95"/><path d="M218.98,26.77L220.40,26.70L208.58,31.34L208.09,31.64L207.66,32.12L207.33,32.75L207.12,33.51L207.03,34.35L207.06,35.23L207.23,36.11L203.86,36.88L212.70,70.34L212.21,70.34"/><path d="M209.03,35.56L217.84,69.42L218.06,70.02L218.35,70.52L218.73,70.91L219.13,71.14L219.55,71.19L219.96,71.07L220.00,71.54L219.88,71.96L219.61,72.26"/><path d="M209.94,32.37L224.76,26.48L220.40,26.70"/><path d="M218.73,72.57L218.19,72.55L217.66,72.34L217.16,71.96L216.71,71.41L216.34,70.72L216.07,69.94L217.01,69.73L217.84,69.42"/><path d="M245.48,50.21L225.06,60.54L224.37,65.82L215.37,30.50L219.72,36.65L227.62,33.30"/><path d="M215.37,30.50L225.58,26.44L226.54,26.39L226.71,26.43L226.84,26.57L226.92,26.90L228.74,43.55L229.07,43.55L242.56,37.37L241.03,21.08L227.22,26.61L229.07,43.55"/><path d="M218.26,26.43L226.61,26.00L240.43,20.49L235.39,20.81L241.64,18.35L242.05,18.34L242.44,18.51L242.74,18.83L242.92,19.26L239.70,20.54"/><path d="M219.96,71.07L245.71,57.40"/><path d="M225.06,60.54L219.72,36.65"/><path d="M224.40,25.09L223.83,25.18L223.53,25.29L223.56,25.34L224.04,25.32L224.66,25.13L224.40,25.09L224.42,25.24"/><path d="M224.37,65.82L245.62,54.74"/><path d="M225.58,26.44L224.76,26.48"/><path d="M226.61,26.00L226.89,26.07L227.12,26.29L227.22,26.61"/><path d="M228.21,24.89L227.67,24.97L227.30,25.10L227.85,25.12L228.47,24.93L228.24,24.89L228.23,25.04"/><path d="M232.16,23.22L230.24,23.48L228.89,23.85L228.52,23.76L228.53,23.66L229.09,23.39L230.86,22.98L232.62,22.83L233.17,22.93L233.17,23.03L232.84,23.22L232.16,23.22L232.12,22.84"/><path d="M228.89,23.85L229.55,23.86L230.83,23.71L232.11,23.45L232.84,23.22"/><path d="M230.80,29.19L230.78,29.52L230.68,29.81L230.51,29.97L230.32,29.96L230.17,29.78L230.08,29.48L230.10,29.14L230.20,28.86L230.37,28.70L230.56,28.71L230.72,28.89L230.80,29.19L230.47,29.20L230.46,29.54L230.27,29.90"/><path d="M230.47,29.20L230.39,28.90L230.28,28.78"/><path d="M231.39,36.24L231.49,35.95L231.51,35.62L231.43,35.33L231.29,35.17L231.09,35.15L230.92,35.31L230.82,35.59L230.80,35.93L230.88,36.21L231.04,36.39L231.22,36.40L231.39,36.24"/><path d="M231.51,35.62L231.18,35.63L231.17,35.96L230.98,36.33"/><path d="M231.18,35.63L231.10,35.34L231.01,35.23"/><path d="M233.09,21.68L232.53,21.77L232.22,21.89L232.76,21.89L233.34,21.72L233.09,21.68L233.11,21.82"/><path d="M233.99,20.90L235.39,20.81"/><path d="M236.91,21.44L237.18,21.47L236.59,21.65L236.04,21.64L236.34,21.52L236.91,21.44L236.93,21.58"/><path d="M239.12,25.74L239.10,26.07L239.00,26.35L238.84,26.50L238.67,26.49L238.52,26.31L238.45,26.03L238.46,25.69L238.56,25.41L238.72,25.26L238.90,25.27L239.04,25.45L239.12,25.74L238.79,25.76L238.78,26.08L238.61,26.42"/><path d="M238.79,25.76L238.62,25.35"/><path d="M239.73,32.04L239.71,32.36L239.61,32.64L239.45,32.80L239.28,32.79L239.13,32.62L239.06,32.33L239.07,32.00L239.17,31.73L239.33,31.57L239.51,31.58L239.65,31.75L239.73,32.04L239.40,32.05L239.39,32.38L239.22,32.72"/><path d="M239.40,32.05L239.24,31.66"/><path d="M240.43,20.49L240.71,20.56L240.90,20.75L241.03,21.08"/><path d="M241.62,27.38L242.59,26.97L246.18,44.51"/><path d="M242.59,26.97L241.43,25.36"/><path d="M242.92,19.26L243.27,19.21L243.63,19.32L243.97,19.58L244.28,19.98L244.54,20.49L244.72,21.06L244.88,20.99"/><path d="M250.09,44.08L244.72,21.06"/><path d="M250.80,55.61L251.07,55.32L251.20,54.93L251.18,54.50L248.00,56.18"/><path d="M252.01,51.55L251.86,51.66L250.42,45.48"/><path d="M251.18,54.50L251.47,54.26L251.71,53.88L251.88,53.40L251.96,52.84L251.95,52.25L251.86,51.66"/></g><g style="stroke:#000000;stroke-width:0.247"><path d="M245.73,58.32L219.61,72.26L218.73,72.57L215.36,72.97L214.44,72.90L213.92,72.70L213.19,72.14L212.79,71.65L212.46,71.04L212.22,70.34L203.39,36.95L203.24,36.17L203.21,35.38L203.29,34.63L203.49,33.96L203.97,33.10L204.38,32.63L205.22,32.15L218.98,26.77L218.30,26.80L218.26,26.43L232.16,21.01L233.99,20.90L238.32,19.20L241.64,18.35L242.48,18.27L242.93,18.36L243.66,18.77L244.04,19.16L244.37,19.66L244.66,20.28L244.88,20.99L250.27,44.09"/><path d="M250.58,45.40L252.01,51.55L252.14,52.76L252.07,53.53L251.93,54.14L251.70,54.65L251.17,55.32L250.80,55.61L248.03,57.09"/></g></g><g id="PMI9.0"><g><path style="stroke:#000000;stroke-width:0.350" d="M239.79,104.64L239.22,86.25"/></g><g><path style="fill:#000000" d="M240.06,86.23L238.32,86.28L239.14,84.52z"/></g><g><path style="fill:#ffffff" d="M228.26,110.85L251.46,110.85L251.46,104.64L228.26,104.64z"/><path style="stroke:#000000;stroke-width:0.350;stroke-opacity:0.98" d="M228.26,110.85L251.46,110.85L251.46,104.64L228.26,104.64z"/><text xml:space="preserve" fill="#000000" stroke-width="0" x="229.03" y="109.10" font-size="3.78" opacity="1.00" font-family="MS Shell Dlg">851108D110</text></g></g><g id="PMI10.0"><g><path style="stroke:#000000;stroke-width:0.350" d="M189.78,42.31L202.61,42.47"/></g><g><path style="fill:#000000" d="M202.57,43.37L202.59,41.64L204.32,42.53z"/></g><g><path style="fill:#ffffff" d="M149.26,45.19L189.76,45.19L189.76,38.98L149.26,38.98z"/><path style="stroke:#000000;stroke-width:0.350;stroke-opacity:0.98" d="M149.26,45.19L189.76,45.19L189.76,38.98L149.26,38.98z"/><text xml:space="preserve" fill="#000000" stroke-width="0" x="150.04" y="43.45" font-size="3.81" opacity="1.00" font-family="MS Shell Dlg">AMT000-LCD21IN-021</text></g></g><g id="PMI11.0"><g><path style="stroke:#000000;stroke-width:0.350" d="M115.40,166.62L102.09,166.48"/></g><g><path style="fill:#000000" d="M102.11,165.60L102.09,167.34L100.37,166.45z"/></g><g><path style="fill:#ffffff" d="M115.41,169.84L138.61,169.84L138.61,163.63L115.41,163.63z"/><path style="stroke:#000000;stroke-width:0.350;stroke-opacity:0.98" d="M115.41,169.84L138.61,169.84L138.61,163.63L115.41,163.63z"/><text xml:space="preserve" fill="#000000" stroke-width="0" x="116.18" y="168.09" font-size="3.78" opacity="1.00" font-family="MS Shell Dlg">989108D100</text></g></g><g/><g id="paperID" visibility="hidden" opacity="0.00" transform="scale(0.000100)"><path style="stroke:#000000;stroke-width:0.500;fill:#e6e6e6;fill-rule:evenodd" d="M-2000.00,-2000.00L2297.00,-2000.00L2297.00,2210.00L-2000.00,2210.00zM0.00,0.00L297.00,0.00L297.00,210.00L0.00,210.00z"/><path style="fill:#000000;fill-opacity:0.118" d="M3.00,210.00L297.00,210.00L297.00,3.00L300.00,3.00L300.00,213.00L3.00,213.00z"/></g><g id="hotspot.0" onmouseover="ShowHotSpot(evt,'0')" onmouseout="HideHotSpot(evt,'0')" onmousemove="ShowToolTip(evt,'0',&quot;3dp419977&quot;)" opacity="0"><path style="fill:#ff6820;fill-rule:evenodd" d="M244.51,19.66L250.13,44.01L249.56,43.96L249.08,42.75L248.60,43.91L244.91,44.29L243.26,45.91L243.26,46.44L244.53,46.83L245.54,48.90L245.53,58.30L234.24,64.46L218.21,72.53L213.74,72.49L212.73,71.45L203.46,37.13L203.45,34.17L204.97,32.10L218.28,26.95L220.75,25.31L231.50,21.19L235.63,20.19L239.71,18.63L242.53,18.14zM203.96,42.22L203.86,42.76L189.94,42.72L189.65,44.99L148.91,44.99L148.91,39.14L189.65,39.13L189.94,41.91L203.05,41.74zM252.15,52.45L251.72,54.75L248.96,56.67L248.09,56.65L248.10,46.51L250.71,45.32z"/></g><g id="hotspot.1" onmouseover="ShowHotSpot(evt,'1')" onmouseout="HideHotSpot(evt,'1')" onmousemove="ShowToolTip(evt,'1',&quot;3dp419718 (I_TU LANH.1)&quot;)" opacity="0"><path style="fill:#ff6820;fill-rule:evenodd" d="M110.11,90.97L115.75,94.04L124.01,99.63L123.96,107.03L123.45,111.65L122.77,131.49L121.91,150.12L121.38,154.21L102.18,165.83L114.75,166.05L115.05,163.78L138.86,163.78L138.86,169.64L115.05,169.64L114.75,166.86L100.72,166.85L79.71,179.22L76.78,179.18L65.45,167.43L63.45,151.48L60.83,148.45L57.30,118.13L56.80,117.60L56.24,115.60L56.25,111.14L60.35,109.08L84.46,98.31L105.32,89.38z"/></g><g id="hotspot.2" onmouseover="ShowHotSpot(evt,'2')" onmouseout="HideHotSpot(evt,'2')" onmousemove="ShowToolTip(evt,'2',&quot;3dp419439&quot;)" opacity="0"><path style="fill:#ff6820;fill-rule:evenodd" d="M250.69,61.19L250.66,73.17L250.18,75.77L248.93,77.61L233.59,86.89L230.15,86.85L229.59,85.87L229.60,70.58L230.69,68.60L236.13,64.80L245.38,60.15L245.53,73.24L243.33,72.99L242.88,73.64L242.94,74.58L246.56,74.21L247.11,73.22L248.45,59.62L249.64,59.59zM239.88,85.75L239.55,97.97L239.25,97.76L238.85,84.93L239.39,84.83zM240.21,104.49L251.71,104.79L251.71,110.65L227.90,110.65L227.90,104.79L239.40,104.49L239.55,97.97L239.84,98.19z"/></g></g></svg>
