<?xml version="1.0" encoding="UTF-8" standalone="no"?>
<svg xmlns="http://www.w3.org/2000/svg" xmlns:xlink="http://www.w3.org/1999/xlink" width="297.000mm" height="210.000mm" viewBox="0.000000 0.000000 297.000000 210.000000" stroke-linejoin="round" stroke-linecap="round" fill="none" fill-rule="evenodd"><desc>Composer Export</desc><script type="text/ecmascript"><![CDATA[
if(typeof(top) != "undefined")
{
	top.ShowPaper = ShowPaper;
}
function ShowHotSpot(evt,hotspotid)
{
	var svgDocument = evt.target.ownerDocument;
	var strId = "hotspot."+hotspotid;
	var hotspot = svgDocument.getElementById(strId);
	if(hotspot)
		hotspot.setAttribute("opacity",".5");
}
function HideHotSpot(evt,hotspotid)
{
	var svgDocument = evt.target.ownerDocument;
	var strId = "hotspot."+hotspotid;
	var hotspot = svgDocument.getElementById(strId);
	if(hotspot)
		hotspot.setAttribute("opacity","0");

	var toolTip = svgDocument.getElementById('ToolTip');
	if(toolTip)
		toolTip.setAttribute("visibility","hidden");
}
function ShowToolTip(evt,hotspotid,strTooltip)
{
	if(strTooltip=="")
	return;

	// change text
	var svgDocument = evt.target.ownerDocument;
	var tiptext = svgDocument.getElementById('ToolTipText');
	if( !tiptext )
	return;
	tiptext.firstChild.nodeValue = " " + strTooltip + "  " ;

	// show tooltip before, else some refresh issue

	var toolTip = svgDocument.getElementById('ToolTip');
	if(!toolTip)
	return;

	toolTip.setAttribute("visibility","visible");
	toolTip.setAttribute("opacity",".95");

	// move tooltip
	// get viewbox

	var root = svgDocument.documentElement;
	var vbox = (root.getAttribute("viewBox")).split(' ');
	var x0 = parseFloat(vbox[0]);
	var y0 = parseFloat(vbox[1]);
	var vboxW = parseFloat(vbox[2]);
	var vboxH = parseFloat(vbox[3]);

	// get default width of svg

	var strW = root.getAttribute("width");
	var svgW = parseFloat(strW);
	if(strW.indexOf('mm') != -1)
	svgW *= 3.779;

	var strH = root.getAttribute("height");
	var svgH = parseFloat(strH);
	if(strH.indexOf('mm') != -1)
	svgH *= 3.779;  	// 96 dpi  -> 96/25.4 = 3.779

	// update the viewbox / width / height if svg is embedded in html with zoom fit all
	var realx0 = x0;
	var realy0 = y0;
	var realvboxW = vboxW;
	var realvboxH = vboxH;
	var realsvgW = svgW;
	var realsvgH = svgH;

	if ((typeof(top) == "undefined") || (typeof(top.svgctl1) != "undefined")) // embedded in html
	{
		// get window size in pxl

		svgW = window.innerWidth;
		svgH = window.innerHeight;

		// calculate real viewbox

		realsvgW = svgW;
		realsvgH = svgH;
		if((svgW / svgH) > (vboxW / vboxH))
		{
			realvboxW = (vboxH * svgW) / svgH;
			realvboxH = vboxH;
			realx0 = x0 - (realvboxW - vboxW)/2 ;
		}
		else
		{
			realvboxH = (vboxW * svgH) / svgW;
			realvboxW = vboxW;
			realy0 = y0 - (realvboxH - vboxH)/2 ;
		}
	}

	// get user zoom/pan

	var newScale = root.currentScale;
	var translation = root.currentTranslate;

	// transform pxl to user unit

	var xPos = (((evt.clientX+10- translation.x)/newScale) * realvboxW)/realsvgW  + realx0 ;
	var yPos = (((evt.clientY+5- translation.y)/newScale) * realvboxH)/ realsvgH  + realy0 ;
	var scaleForWidth = ( (1 / newScale) * realvboxH) / realsvgH;

	// move tooltip

	toolTip.setAttribute("transform", "translate(" + xPos + "," + yPos + ")" );

	// resize tooltip

	var fontsize = 12;
	tiptext.setAttribute("font-size",fontsize*scaleForWidth);
	tiptext.setAttribute("y", fontsize*scaleForWidth);
	var tipBG = svgDocument.getElementById('ToolTipBG');
	var outline = tiptext.getBBox();
	if(tipBG)
	{
		tipBG.setAttribute("stroke-width", 1*scaleForWidth);
		tipBG.setAttribute("width", Number(outline.width) );
		tipBG.setAttribute("height", Number(outline.height) + fontsize*.5*scaleForWidth );
	}
	var ToolTipShadow = svgDocument.getElementById('ToolTipShadow');
	if(ToolTipShadow)
	{
		ToolTipShadow.setAttribute("width", Number(outline.width) );
		ToolTipShadow.setAttribute("height", Number(outline.height) + fontsize*.5*scaleForWidth );
		ToolTipShadow.setAttribute("x", 3*scaleForWidth);
		ToolTipShadow.setAttribute("y", 3*scaleForWidth);
	}
}
function ShowPaper()
{
  var svgDocument = getDocument();
  var paper = svgDocument.getElementById("paperID");
  if(paper)
  {
    paper.setAttribute("transform","scale(1)");
    paper.setAttribute("opacity","1");
    paper.setAttribute("visibility","visible");
  }
  var svg = svgDocument.getRootElement();
  if(svg)
  {
    svg.setAttribute("width","307.000mm");
    svg.setAttribute("height","220.000mm");
    svg.setAttribute("viewBox","-5.000000 -5.000000 307.000000 220.000000");
  }
}
]]></script><defs/><g><path style="fill:#ffffff" d="M296.97,209.92L0.08,209.92L0.08,0.08L296.97,0.08z"/><path style="fill:#aa5854" d="M196.81,6.78L189.97,57.32L189.87,57.62L141.34,84.55L139.38,102.14L137.31,128.75L137.32,129.76L137.75,129.75L144.44,122.47L163.48,101.07L173.39,89.82L177.14,85.54L184.19,77.05L187.72,72.61L185.00,91.51L179.64,124.46L176.63,136.72L176.09,137.52L155.29,149.94L138.42,159.58L110.43,174.98L109.16,174.99L109.18,174.57L110.54,172.68L111.60,170.26L112.68,163.84L114.28,150.17L115.89,130.35L116.44,118.74L115.87,117.97L116.07,108.84L117.14,86.88L118.30,72.47L119.29,72.44L154.08,54.70L180.36,41.05L181.15,41.09L185.53,33.12L189.82,24.02L193.29,15.17L195.72,8.22L195.96,6.55L196.27,6.24z"/><path style="fill:#4825b6" d="M137.31,128.75L139.38,102.14L141.34,84.55L189.87,57.62L187.81,72.30L187.72,72.61L184.19,77.05L177.14,85.54L173.39,89.82L163.48,101.07L144.44,122.47L137.75,129.75L137.32,129.76z"/><path style="fill:#fffe02" d="M113.47,7.40L115.10,7.31L115.27,10.89L117.26,11.91L117.26,12.20L116.34,12.68L116.07,20.45L116.99,21.01L116.99,21.31L116.64,21.55L115.62,21.54L113.50,20.43L112.71,19.34L111.62,18.29L108.92,17.24L108.91,16.15L109.99,16.44L111.09,16.43L110.30,15.06L110.00,14.82L110.01,12.78L112.69,9.01L113.49,9.02z"/><path style="fill:#fffe02" d="M110.51,79.46L111.88,79.37L112.14,81.52L114.04,82.84L113.40,83.40L113.21,86.96L113.22,89.81L113.77,90.12L113.78,90.41L113.43,90.66L112.40,90.65L111.34,90.06L110.46,90.19L110.01,89.27L107.32,87.68L106.41,87.21L106.41,86.60L107.04,86.58L107.83,86.89L108.96,86.87L108.10,85.83L107.60,85.53L107.60,83.50L109.62,80.96L110.55,80.80z"/><path style="fill:#fe00ff" d="M74.39,175.52L75.74,176.58L77.61,178.19L78.14,181.55L79.08,180.06L80.69,179.80L80.98,179.53L81.62,179.50L81.91,179.79L81.88,185.00L81.58,185.78L77.78,188.40L77.51,191.36L76.51,191.36L76.27,189.72L72.12,192.67L71.17,192.68L68.74,190.51L68.73,189.83L72.78,186.89L72.76,180.59L72.43,180.58L72.12,180.88L71.69,180.93L68.65,178.54L68.65,177.98L72.91,175.28z"/><path style="fill:#00fdff" d="M74.13,114.72L75.18,114.70L77.04,116.08L78.94,117.66L79.38,121.28L79.89,121.18L80.71,120.06L81.76,120.09L82.59,119.52L83.21,119.52L83.78,120.09L83.39,127.05L79.20,129.55L78.95,132.78L78.56,133.23L77.84,133.26L77.50,133.03L77.34,131.60L72.25,134.69L71.69,134.86L68.47,132.39L68.47,131.71L73.29,129.00L73.59,128.50L73.60,119.56L72.41,120.12L71.69,120.12L68.38,117.74L68.46,117.25L73.49,114.43z"/><path style="fill:#6c6dff" d="M201.91,51.31L198.92,56.42L194.36,63.38L187.81,72.30L189.87,57.62L189.97,57.32L193.99,55.24L201.54,50.94L201.88,50.97z"/><path style="fill:#ff0000" d="M215.72,40.83L216.36,40.54L216.33,41.70L211.78,67.41L204.02,106.52L200.55,113.76L199.37,114.48L198.30,114.55L198.57,113.66L201.61,107.59L208.84,70.62L213.93,41.43L214.64,40.77z"/><path style="fill:#ff0000" d="M212.29,108.57L214.74,109.10L215.29,109.63L215.28,110.54L215.00,111.07L214.19,112.15L213.38,112.35L212.30,111.54L211.76,110.74L211.26,110.40L210.44,110.54L210.16,109.13L209.82,108.88L209.81,108.34L210.43,108.10L210.98,105.98L211.98,105.31L212.32,105.33z"/><path style="fill:#000000" d="M95.45,109.41L96.90,108.84L96.60,134.91L96.07,156.07L95.00,183.66L92.83,190.06L91.15,191.11L90.71,190.85L90.05,191.35L89.56,191.37L91.52,185.27L91.78,183.66L92.85,142.94L93.04,110.19L94.37,109.35z"/><path style="fill:#ffffff" d="M182.92,92.90L182.02,94.46L182.02,93.64L182.78,92.75z"/><g id="Actor_13.0"><g style="stroke:#000000;stroke-width:0.049;stroke-opacity:0.35"><path d="M137.18,129.71L162.48,101.50L174.04,88.43L174.47,88.66"/><path d="M137.60,129.98L139.04,110.89L138.60,110.60"/><path d="M139.04,110.86L139.97,100.96L141.64,85.37L141.18,85.08"/><path d="M141.64,85.34L141.69,84.87L164.50,72.23L199.83,52.36"/><path d="M141.69,84.87L141.24,84.62"/><path d="M174.04,88.43L177.88,83.96L184.43,75.93L187.73,71.65L192.78,64.78L193.22,64.99"/><path d="M192.78,64.78L197.02,58.52L200.39,53.00"/><path d="M200.60,52.65L201.59,50.92"/><path d="M200.96,51.73L202.04,51.11"/></g><g style="stroke:#000000;stroke-width:0.247;stroke-opacity:0.35"><path d="M201.18,51.16L201.59,50.92L202.04,51.11L198.63,56.89L195.37,61.90L190.48,68.77L187.22,73.11L180.75,81.27L174.47,88.66L149.82,116.42L137.60,129.98L137.18,129.71L138.96,106.34L141.24,84.62L170.27,68.53L200.05,51.79"/></g></g><g id="Actor_.0"><g style="stroke:#000000;stroke-width:0.049"><path d="M210.89,110.25L210.53,110.51L210.53,110.53L210.51,110.54"/><path d="M210.12,110.29L210.13,110.30L210.14,110.32L210.36,110.44L210.36,110.50L210.38,110.55"/><path d="M210.45,110.44L210.71,109.00L210.67,109.01L210.63,108.99L210.36,110.44L210.41,110.45L210.45,110.44L210.46,110.52L210.53,110.51"/><path d="M210.16,110.43L210.14,110.38L210.14,110.32L210.40,108.87L210.39,108.86L210.38,108.85L210.38,108.83"/><path d="M210.71,109.00L210.76,108.87L210.85,108.77L212.14,107.85L212.04,108.38"/><path d="M210.63,108.99L210.65,108.91L210.69,108.82L210.75,108.74L210.81,108.69L210.58,108.57L210.53,108.62L210.47,108.70L210.43,108.79L210.40,108.87L210.63,108.99"/><path d="M210.45,108.07L210.50,108.28"/><path d="M210.67,108.47L211.84,107.64L211.86,107.64L211.88,107.65L210.58,108.57L210.56,108.56L210.55,108.56"/><path d="M210.54,108.33L210.56,108.36"/><path d="M210.85,108.77L210.85,108.75L210.84,108.72L210.83,108.70L210.81,108.69L212.10,107.77L212.26,107.58L212.27,107.35L212.13,107.12L211.87,106.92L211.32,106.62L211.16,106.49L211.11,106.35L211.18,106.22L211.21,106.19L211.23,106.20L211.24,106.22L211.25,106.25L211.25,106.27L211.21,106.51L211.22,106.53"/><path d="M211.93,107.53L211.92,107.54L211.93,107.39L211.83,107.23L211.66,107.11L211.11,106.81L210.83,108.36"/><path d="M211.88,107.65L211.99,107.52L212.00,107.34L211.92,107.19L211.76,107.06L211.71,107.03L211.68,107.06L211.66,107.11L211.53,107.87"/><path d="M211.71,107.03L211.16,106.73L211.13,106.77L211.11,106.81L210.90,106.65L210.82,106.55L210.78,106.42L210.77,106.33"/><path d="M211.21,106.19L212.39,105.42L212.46,105.39L212.50,105.41"/><path d="M212.13,105.29L212.15,105.29L212.17,105.30L212.39,105.42L212.41,105.43L212.43,105.45L212.43,105.47L212.43,105.49L211.25,106.27L211.18,106.35L211.17,106.44L211.17,106.43"/><path d="M211.16,106.73L210.95,106.57L210.84,106.39L210.86,106.21L211.00,106.06L210.98,106.06L210.96,106.06"/><path d="M211.00,106.06L212.17,105.30L212.23,105.27"/><path d="M211.32,106.62L211.33,106.61L211.34,106.62L211.89,106.91L211.88,106.91L211.87,106.92"/><path d="M211.34,106.62L211.22,106.53"/><path d="M211.17,106.44L211.21,106.51"/><path d="M212.10,107.77L212.12,107.78L212.13,107.80L212.14,107.83L212.14,107.85L212.24,107.76L212.31,107.65L212.34,107.53"/><path d="M211.92,107.54L211.82,107.65"/><path d="M212.05,107.01L212.51,105.61L212.52,105.54L212.51,105.49L212.48,105.48L212.43,105.49"/><path d="M211.89,106.91L212.05,107.02"/><path d="M212.51,105.61L212.52,105.60"/><path d="M212.52,105.44L212.47,105.41"/></g><g style="stroke:#000000;stroke-width:0.247"><path d="M210.67,108.47L210.53,108.57L210.48,108.62L210.44,108.69L210.40,108.76L210.38,108.83L210.12,110.27L210.11,110.35L210.14,110.41L210.16,110.43L210.38,110.55L210.44,110.56L210.46,110.56L210.51,110.54L210.90,110.26"/><path d="M210.56,108.36L210.50,108.28L210.46,108.19L210.45,108.07L210.77,106.33L210.80,106.22L210.96,106.06L212.13,105.29L212.19,105.27L212.21,105.27L212.28,105.30L212.50,105.41L212.52,105.45L212.54,105.51L212.52,105.60L212.05,107.02"/><path d="M212.05,107.02L212.18,107.13L212.27,107.26L212.32,107.38L212.34,107.50L212.34,107.53L212.17,108.45"/></g></g><g id="Actor_.1"><g style="stroke:#000000;stroke-width:0.049"><path d="M209.69,108.34L210.41,108.73"/><path d="M211.90,110.73L210.72,110.08L210.69,110.08L211.04,110.37"/><path d="M210.67,110.07L210.69,110.08L210.66,110.05"/><path d="M210.65,110.05L210.64,110.02"/><path d="M211.67,108.25L211.69,108.25L211.56,108.34L211.47,108.42L211.34,108.56L211.26,108.65L211.14,108.81L211.06,108.93L210.92,109.18L210.86,109.30L210.79,109.49L210.72,109.68L210.69,109.81L210.66,109.98L210.68,110.04L210.72,110.08L210.71,110.07L210.71,110.04L210.68,110.02L210.66,109.98L210.63,109.99L210.64,109.81L210.68,109.63L210.72,109.50L210.79,109.31L210.86,109.17L210.93,109.04L211.01,108.90L211.09,108.78L211.22,108.61L211.31,108.51L211.39,108.43L211.46,108.37L211.59,108.29"/><path d="M211.90,110.69L210.71,110.04L210.74,109.88L210.76,109.77L210.85,109.51L210.97,109.23L211.13,108.95L211.21,108.82L211.30,108.70L211.39,108.59L211.48,108.49L211.57,108.41L211.69,108.31L211.77,108.26L211.79,108.25L211.81,108.26"/><path d="M211.22,108.60L211.10,108.75L211.03,108.86L210.93,109.02L210.84,109.20L210.78,109.31L210.72,109.50"/><path d="M211.08,109.02L212.30,109.68"/><path d="M211.75,108.24L211.69,108.25L211.73,108.25L211.77,108.26L212.95,108.90"/><path d="M212.72,111.30L212.74,111.19L212.47,111.04"/><path d="M212.85,109.98L213.17,110.15L213.02,110.43L212.91,110.67L212.82,110.92L212.75,111.15L212.47,111.00"/><path d="M213.21,112.30L213.16,112.27L213.11,112.22L213.08,112.16L213.05,112.09L213.02,112.01L213.01,111.86L213.01,111.74L213.02,111.61L213.04,111.46L213.08,111.30L213.13,111.14L213.18,110.99L213.27,110.78L213.33,110.65L213.46,110.39L213.51,110.30L213.81,110.48L214.02,110.62L214.19,110.36L214.28,110.24L214.38,110.14L214.47,110.04L214.55,109.97"/><path d="M212.86,112.10L212.82,112.06L212.78,112.00L212.75,111.93L212.73,111.85L212.72,111.76L212.71,111.64L212.72,111.51L212.73,111.38L212.77,111.22L212.81,111.06L212.91,110.76L213.03,110.48L213.12,110.31L213.22,110.14L213.51,110.30L213.62,110.13L213.72,109.98L213.90,109.76L214.11,109.54L214.28,109.39L214.38,109.32L214.48,109.26L214.63,109.20L214.70,109.18L214.77,109.18L214.84,109.19L214.90,109.21"/><path d="M214.85,111.32L214.83,111.29L214.65,111.55L214.56,111.67L214.47,111.77L214.38,111.87L214.28,111.95L214.19,112.02L214.10,112.07L214.02,112.10L213.94,112.12L213.87,112.13L213.81,112.11L213.76,112.08L213.71,112.03L213.68,111.97L213.66,111.89L213.65,111.79L213.65,111.69L213.66,111.57L213.68,111.46L213.71,111.32L213.76,111.18L213.81,111.04L213.88,110.89L214.02,110.62"/><path d="M215.16,110.44L215.13,110.58L215.07,110.77L214.99,110.95L214.94,111.07L214.82,111.29L214.74,111.41L214.62,111.59L214.53,111.69L214.45,111.79L214.31,111.92L214.23,111.98L214.10,112.06L214.03,112.09L213.92,112.11L213.86,112.11L213.83,112.10L213.77,112.07L213.73,112.03L213.68,111.94L213.66,111.82L213.65,111.73L213.66,111.63L213.69,111.46L213.73,111.27L213.78,111.14L213.85,110.96L213.90,110.85L214.03,110.62L214.10,110.50L214.23,110.32L214.32,110.22L214.45,110.07L214.55,109.98"/><path d="M214.55,110.00L214.45,110.09L214.35,110.19L214.19,110.39L214.07,110.56L213.99,110.70L213.89,110.89L213.84,111.01L213.76,111.21L213.72,111.37L213.70,111.46L213.67,111.61L213.67,111.76L213.68,111.85L213.70,111.93L213.73,111.99L213.78,112.04L213.80,112.06L213.86,112.08L213.93,112.09L214.04,112.06L214.11,112.03L214.19,111.98L214.33,111.88L214.49,111.72L214.65,111.52L214.81,111.28L214.82,111.29"/><path d="M212.75,111.15L212.74,111.19"/><path d="M214.60,109.05L214.54,109.03L214.48,109.02L214.41,109.02L214.33,109.04L214.19,109.10L214.09,109.15L213.98,109.23L213.81,109.38L213.65,109.54L213.51,109.71L213.43,109.82L213.32,109.97L213.22,110.14L213.18,110.13L213.17,110.15"/><path d="M213.18,110.13L213.32,109.91L213.44,109.74L213.61,109.54L213.79,109.35L213.53,109.21"/><path d="M215.15,110.44L215.10,110.64L215.03,110.84L214.95,111.02L214.81,111.28L214.75,111.24L214.65,111.40L214.55,111.53L214.41,111.68L214.29,111.79L214.15,111.88L214.06,111.92L213.97,111.95L213.91,111.95L213.86,111.93L213.82,111.91L213.78,111.87L213.76,111.82L213.74,111.76L213.73,111.69L213.73,111.54L213.75,111.36L213.81,111.16L213.85,111.05L213.92,110.88L214.05,110.65L214.03,110.62"/><path d="M214.55,110.08L214.47,110.15L214.34,110.27L214.27,110.36L214.14,110.54L214.06,110.66L214.08,110.67L213.96,110.89L213.87,111.11L213.81,111.29L213.78,111.47L213.77,111.63L213.78,111.74L213.80,111.80L213.83,111.85L213.86,111.89L213.90,111.91L213.95,111.92L214.00,111.93L214.06,111.92L213.98,111.93L213.93,111.93L213.88,111.92L213.84,111.89L213.81,111.85L213.78,111.80L213.76,111.74L213.75,111.63L213.75,111.53L213.76,111.41L213.79,111.29L213.85,111.10L213.94,110.89L214.06,110.66L214.05,110.65L214.13,110.52L214.26,110.34L214.33,110.25L214.46,110.13L214.55,110.06"/><path d="M214.04,111.92L214.04,111.92"/><path d="M215.05,110.44L215.03,110.55L214.99,110.71L214.96,110.81L214.89,110.97L214.81,111.14L214.72,111.29L214.64,111.40L214.55,111.52L214.46,111.63L214.35,111.73L214.29,111.79L214.19,111.85L214.07,111.90L214.01,111.91L213.96,111.91L213.92,111.90L213.89,111.88L213.85,111.84L213.82,111.79L213.80,111.74L213.79,111.62L213.79,111.52L213.82,111.36L213.86,111.21L213.89,111.11L213.99,110.88L214.09,110.68L214.17,110.57L214.25,110.45L214.35,110.33L214.43,110.24L214.55,110.14"/><path d="M214.06,111.92L214.16,111.87L214.12,111.89"/><path d="M214.17,111.87L214.21,111.84"/><path d="M214.07,111.29L214.08,111.26L214.62,110.86L214.64,110.88L214.66,110.91L214.66,110.94L214.68,110.92L214.73,110.86L214.75,110.80L214.79,110.60L214.78,110.58L214.77,110.57L214.75,110.57L214.71,110.59L214.19,110.98L214.18,111.00L214.47,110.78L214.62,110.86L214.64,110.83L214.67,110.78L214.70,110.61L214.73,110.59"/><path d="M214.18,111.00L214.14,111.04L214.11,111.09L214.08,111.26"/><path d="M214.66,110.94L214.11,111.34L214.09,111.35L214.08,111.35L214.07,111.33L214.06,111.32L214.06,111.28L214.09,111.14L214.12,111.06L214.16,111.01L214.19,110.98"/><path d="M214.07,111.28L214.08,111.28"/><path d="M214.09,110.68L214.08,110.67L214.12,110.61L214.22,110.46L214.28,110.38L214.40,110.25L214.55,110.11"/><path d="M214.70,110.61L214.47,110.78"/><path d="M213.79,109.35L213.80,109.34"/><path d="M214.83,111.29L214.90,111.15L215.04,110.87L215.09,110.73L215.13,110.60L215.17,110.44"/><path d="M214.75,111.23L214.85,111.06L214.96,110.81L215.02,110.60L215.05,110.44"/><path d="M214.75,111.23L214.75,111.24"/><path d="M214.72,110.60L214.71,110.60"/></g><g style="stroke:#000000;stroke-width:0.247"><path d="M210.31,109.21L209.63,108.84L209.60,108.81L209.58,108.77L209.57,108.72L209.58,108.66L209.59,108.58L209.62,108.50L209.65,108.42L209.74,108.27L209.80,108.20L209.85,108.15L209.90,108.10L209.95,108.08L210.00,108.07L210.04,108.08L210.71,108.44"/><path d="M210.72,109.50L210.66,109.70L210.64,109.83L210.63,109.99L210.64,110.03L210.66,110.06L211.02,110.36L211.19,110.47L211.88,110.85"/><path d="M211.22,108.60L211.39,108.43L211.50,108.34L211.59,108.29L211.67,108.25L211.70,108.24L211.75,108.24L211.81,108.26L212.97,108.89"/><path d="M212.72,111.30L212.47,111.17"/><path d="M212.72,111.30L212.69,111.54L212.69,111.63L212.70,111.77L212.71,111.84L212.73,111.91L212.77,111.99L212.81,112.05L212.85,112.09L212.92,112.14L213.21,112.30L213.30,112.34L213.37,112.36L213.47,112.37L213.59,112.38L213.70,112.36L213.83,112.32L213.96,112.26L214.05,112.21L214.15,112.14L214.29,112.03L214.47,111.84L214.68,111.59L214.85,111.32L215.00,111.03L215.10,110.81L215.15,110.68L215.22,110.45"/><path d="M215.24,109.63L215.18,109.49L215.11,109.39L215.02,109.29L214.90,109.21L214.60,109.05L214.54,109.03L214.48,109.02L214.40,109.01L214.32,109.03L214.21,109.06L214.11,109.11L214.00,109.18L213.86,109.28L213.80,109.34L213.55,109.20"/></g></g><g id="Actor_.2"><g style="stroke:#000000;stroke-width:0.049"><path d="M212.51,111.19L212.47,111.20"/><path d="M212.69,111.47L212.56,111.44L212.57,111.45"/><path d="M212.56,111.44L212.48,111.29L212.48,111.30"/><path d="M212.67,111.79L212.17,111.37L212.16,111.34L212.17,111.30L212.64,109.88L212.69,109.90L212.75,109.91L212.77,109.91L212.30,111.32L212.69,111.64"/><path d="M212.30,111.32L212.28,111.33L212.21,111.32L212.19,111.31L211.95,111.18L211.94,111.22L211.95,111.24L212.17,111.37L212.21,111.38L212.24,111.37L212.28,111.35L212.30,111.32"/><path d="M212.04,111.37L211.96,111.28L211.95,111.24L211.91,111.21L211.90,111.17L211.90,111.17L211.92,111.17L211.95,111.18L211.95,110.77L212.02,110.38L212.19,110.04L212.41,109.76L212.40,109.73L212.39,109.71L212.39,109.69L212.15,109.99L212.08,110.11L211.99,110.36L211.92,110.60L211.89,110.96L211.90,111.17"/><path d="M212.85,109.98L212.85,109.97L212.84,109.98L212.82,110.02L212.66,110.34L212.54,110.65L212.47,110.95L212.45,111.20L212.49,111.40L212.58,111.52L212.69,111.56"/><path d="M212.47,111.04L212.46,111.05"/><path d="M211.88,110.97L211.90,111.15"/><path d="M212.48,111.29L212.47,111.19"/><path d="M211.93,111.26L211.93,111.26"/><path d="M211.93,111.26L211.93,111.26"/><path d="M211.92,110.59L211.89,110.79"/><path d="M212.18,109.89L212.08,110.11L212.08,110.11"/><path d="M212.01,110.31L212.01,110.30L211.98,110.41"/><path d="M212.38,109.69L212.30,109.67"/><path d="M212.64,109.88L212.66,109.83L212.69,109.79L212.72,109.82L212.75,109.85L212.77,109.88L212.77,109.91L212.69,109.85L212.44,109.71L212.41,109.76L212.64,109.88"/><path d="M212.39,109.69L212.44,109.71L212.47,109.67L212.43,109.67L212.40,109.68L212.39,109.69L212.44,109.53L212.59,109.26L212.67,109.17L212.84,109.00L212.92,108.92L213.04,108.84L213.40,108.65L213.41,108.66L213.44,108.68L213.09,108.86L212.80,109.09L212.59,109.37L212.47,109.67L212.69,109.79L213.66,108.80L213.44,108.68L213.47,108.66L213.49,108.66"/><path d="M212.44,109.46L212.59,109.26L212.58,109.26"/><path d="M212.85,109.97L212.97,109.78L213.13,109.57L213.32,109.36L213.52,109.21L213.69,109.12L213.85,109.09L213.97,109.14L214.00,109.18"/><path d="M213.59,109.22L213.59,109.19"/><path d="M212.77,109.91L213.74,108.91L213.73,108.88L213.71,108.84L213.69,108.82L213.66,108.80L213.69,108.78L213.71,108.78"/><path d="M213.57,109.19L213.54,109.21"/><path d="M212.74,109.09L212.80,109.04"/><path d="M213.56,109.19L213.77,109.13"/><path d="M213.44,108.65L213.41,108.66"/><path d="M213.93,109.23L213.90,109.17L213.92,109.18"/><path d="M213.74,108.80L213.76,108.84L213.76,108.88L213.74,108.91L214.03,109.16"/><path d="M213.75,109.13L213.90,109.17"/></g><g style="stroke:#000000;stroke-width:0.247"><path d="M211.93,111.26L212.04,111.37L212.22,111.50L212.45,111.66L212.67,111.79L212.70,111.80"/><path d="M211.93,111.26L211.91,111.22L211.90,111.17L211.88,110.97L211.89,110.79L211.92,110.59"/><path d="M213.54,109.21L213.35,109.35L213.15,109.55L212.98,109.77L212.85,109.98L212.73,110.19L212.61,110.45L212.52,110.75L212.47,111.04L212.47,111.19"/><path d="M212.49,111.18L212.47,111.19"/><path d="M214.10,109.12L213.71,108.78L213.49,108.66L213.44,108.65L213.40,108.65L213.06,108.82L212.92,108.92L212.88,108.96L212.79,109.04L212.67,109.17L212.58,109.26L212.44,109.46L212.30,109.67L212.18,109.89L212.08,110.11L212.01,110.29L211.95,110.48L211.92,110.59"/><path d="M213.54,109.21L213.56,109.19"/><path d="M213.56,109.21L213.56,109.19"/></g></g><g id="Actor_.3"><g style="stroke:#000000;stroke-width:0.049"><path d="M74.00,179.62L74.04,179.59L74.07,179.54"/><path d="M76.04,176.86L76.15,176.79"/><path d="M76.27,176.91L76.39,177.02L76.46,177.11"/><path d="M76.60,177.31L76.53,177.20"/><path d="M76.59,177.29L76.59,177.29"/></g><g style="stroke:#000000;stroke-width:0.247"><path d="M73.94,179.63L73.95,179.63L74.00,179.62L74.18,179.50"/><path d="M76.53,177.20L76.44,177.08L76.35,176.98L76.27,176.91L76.15,176.79L76.08,176.75L76.00,176.72L75.95,176.70L75.89,176.69L75.80,176.67"/><path d="M76.60,177.31L76.59,177.29"/><path d="M76.53,177.20L76.59,177.29"/></g></g><g id="Actor_.4"><g style="stroke:#000000;stroke-width:0.049"><path d="M73.92,187.62L73.95,187.57L73.97,187.51L73.97,187.44L73.96,187.36L73.93,187.27L73.89,187.18L73.84,187.08L73.79,186.99L73.64,187.11L73.58,187.04L73.52,186.98L73.51,186.97L73.46,186.93L73.40,186.90L73.35,186.89L73.30,186.89L73.27,186.92L73.24,186.96L73.23,187.01"/><path d="M73.96,186.88L73.79,186.99L73.72,186.91L73.65,186.84L73.58,186.78L73.51,186.74L73.51,186.74L73.44,186.71L73.38,186.70L73.33,186.71"/><path d="M73.29,186.74L73.29,186.74"/><path d="M73.61,187.59L73.66,187.60L73.71,187.60L73.74,187.58L73.77,187.54L73.78,187.48L73.77,187.42L73.76,187.34L73.73,187.27L73.69,187.19L73.64,187.11"/><path d="M73.88,187.64L73.88,187.64"/></g><g style="stroke:#000000;stroke-width:0.247"><path d="M73.29,186.74L73.26,186.78L73.24,186.84L73.23,187.01L73.23,187.08L73.25,187.15L73.28,187.23L73.32,187.31L73.37,187.39L73.43,187.46L73.49,187.51L73.55,187.56L73.61,187.59L73.77,187.65L73.83,187.65L73.88,187.64"/><path d="M73.51,186.59L73.29,186.74"/><path d="M74.10,187.50L73.88,187.64"/></g></g><g id="Actor_.5"><g style="stroke:#000000;stroke-width:0.049"><path d="M79.02,186.37L79.03,186.39L79.05,186.41"/><path d="M79.90,185.73L79.86,185.79L79.79,185.85L79.72,185.90L79.66,185.94L79.59,185.97L79.54,185.97"/></g><g style="stroke:#000000;stroke-width:0.247"><path d="M79.01,186.38L79.04,186.41"/><path d="M80.45,185.36L80.42,185.45L80.40,185.49"/></g></g><g id="Actor_.6"><g style="stroke:#000000;stroke-width:0.049"><path d="M78.73,180.56L78.69,180.62L78.66,180.70"/><path d="M78.73,180.56L78.74,180.54L78.80,180.45L78.87,180.36L79.22,180.64L79.20,180.72"/><path d="M79.22,180.64L79.24,180.63L79.28,180.67"/><path d="M78.62,181.12L78.55,181.06"/><path d="M79.38,180.57L79.34,180.59L79.24,180.63"/><path d="M78.87,180.36L78.87,180.36"/><path d="M78.74,180.54L78.74,180.54"/><path d="M79.08,180.16L79.08,180.16"/><path d="M79.84,180.23L79.83,180.24"/></g><g style="stroke:#000000;stroke-width:0.247"><path d="M78.66,180.70L78.69,180.62L78.74,180.54"/><path d="M78.61,181.12L78.55,181.06L78.56,181.02L78.59,180.90L78.60,180.84L78.62,180.78L78.66,180.70"/><path d="M78.74,180.54L78.80,180.45L78.87,180.36"/><path d="M78.87,180.36L78.94,180.28L79.01,180.21L79.08,180.16"/><path d="M79.08,180.16L79.15,180.11L79.23,180.06L79.28,180.04L79.33,180.01L79.44,179.96L79.49,179.95L79.84,180.23"/></g></g><g id="Actor_.7"><g style="stroke:#000000;stroke-width:0.049"><path d="M79.12,181.93L79.13,181.96L79.15,181.98"/><path d="M79.64,181.54L79.65,181.54L79.70,181.54L79.77,181.51L79.84,181.47L79.90,181.42L79.97,181.36L80.03,181.28"/></g><g style="stroke:#000000;stroke-width:0.247"><path d="M79.15,181.98L79.11,181.95"/><path d="M80.03,180.17L79.99,180.18L79.89,180.21L79.78,180.26L79.68,180.33L79.57,180.41L79.46,180.50L79.35,180.61L79.31,180.65"/><path d="M80.57,180.92L80.54,181.02L80.51,181.06"/></g></g><g id="Actor_.8"><g style="stroke:#000000;stroke-width:0.049"><path d="M68.46,189.93L71.64,192.56L71.64,192.93"/><path d="M68.56,178.02L71.81,180.65L71.80,181.04"/><path d="M75.54,189.89L75.56,189.90L71.64,192.56"/><path d="M72.38,187.30L74.28,188.86"/><path d="M72.56,175.41L75.81,178.02L71.81,180.65"/><path d="M72.79,186.65L73.23,187.01L73.21,186.96L73.23,186.24L73.28,186.15L73.41,186.20L74.12,186.78L74.25,186.94L74.30,187.12L74.29,187.84L74.30,187.84"/><path d="M73.23,187.02L73.23,187.01"/><path d="M73.28,186.15L73.57,185.96L73.70,186.01L74.06,185.75L74.06,185.77L73.41,186.20"/><path d="M72.89,180.32L74.45,179.29L74.44,179.84L74.38,179.93L74.67,179.74L74.73,179.65L74.85,179.59L75.11,179.42L75.09,179.41L74.44,179.84"/><path d="M74.29,187.84L74.23,187.93L74.30,187.89"/><path d="M74.23,187.93L74.10,187.88L73.83,187.65"/><path d="M74.30,187.12L74.31,187.11"/><path d="M74.12,186.78L74.32,186.65"/><path d="M73.57,185.96L73.78,185.73L73.81,185.73L73.75,185.84L73.74,185.88L73.75,185.90L73.80,185.92"/><path d="M73.81,185.73L73.92,185.66L73.88,185.66L73.78,185.73"/><path d="M74.33,186.03L74.03,185.79"/><path d="M73.92,185.66L74.06,185.75"/><path d="M73.94,179.63L74.25,179.88L74.38,179.93"/><path d="M74.45,179.29L75.80,178.40L75.98,178.33L76.21,178.51L76.12,182.79"/><path d="M75.13,182.21L74.96,182.12L74.78,182.16L74.72,182.34L74.70,183.29L74.76,183.57L74.81,183.66"/><path d="M74.70,183.29L75.11,183.01"/><path d="M74.72,182.34L75.01,182.15"/><path d="M74.85,179.59L74.84,179.65L74.98,179.62L74.67,179.74"/><path d="M74.98,179.62L75.09,179.55L75.11,179.42"/><path d="M75.06,179.43L75.07,178.88"/><path d="M75.56,189.90L75.66,189.80"/><path d="M76.21,178.51L76.16,178.36L76.01,178.32L75.98,178.33"/><path d="M75.81,178.02L76.13,177.86L76.39,177.85L76.57,177.98"/></g><g style="stroke:#000000;stroke-width:0.247"><path d="M72.89,180.32L72.79,186.65L72.73,186.87L72.58,187.11L72.38,187.30L68.46,189.93L68.46,190.30L71.64,192.93L75.55,190.27L75.86,190.00L76.13,189.66L76.27,189.39"/><path d="M76.59,179.69L76.62,178.24L76.57,177.98L73.15,175.25L72.88,175.26L72.56,175.41L68.56,178.02L68.55,178.40L71.80,181.04L72.89,180.32"/><path d="M75.98,182.88L75.19,182.24L75.13,182.21L75.11,183.01L75.17,183.30L75.22,183.39"/></g></g><g id="Actor_.9"><g style="stroke:#000000;stroke-width:0.049"><path d="M74.36,183.96L74.73,184.26L74.63,190.51"/><path d="M74.73,184.26L76.82,182.86L76.70,189.10L76.51,189.23"/><path d="M76.46,182.57L76.82,182.86"/><path d="M77.39,189.31L77.28,189.35L77.16,189.38L77.04,189.39L76.92,189.39L76.81,189.37L76.63,189.31"/><path d="M76.46,182.10L76.48,182.19L76.51,182.27L76.56,182.34L76.64,182.43L76.72,182.48L76.83,182.53L76.94,182.57L77.06,182.59L77.18,182.59L77.31,182.58L77.42,182.55L77.54,182.50L77.63,182.45L77.71,182.39L77.78,182.31L77.83,182.23L77.85,182.14L77.86,182.05"/><path d="M76.64,182.71L76.64,182.43"/><path d="M77.73,188.40L77.86,182.17L81.47,179.75L81.65,179.67L81.72,179.65L81.80,179.65L81.86,179.66L81.91,179.70"/><path d="M77.72,188.40L77.86,182.17"/><path d="M77.86,182.05L77.86,182.17"/><path d="M80.89,185.06L81.10,184.93L81.23,184.89L81.29,184.90L81.33,184.92L81.36,184.97L81.37,185.02L81.35,185.17L81.27,185.34L81.15,185.50L81.01,185.62L79.17,186.87L79.03,186.94L78.96,186.95L78.91,186.94L78.87,186.92L78.84,186.87L78.82,186.82L78.84,186.67L78.93,186.48"/><path d="M79.17,186.87L78.86,186.62"/><path d="M79.28,182.44L78.97,182.19L78.93,182.31L78.93,182.38L78.94,182.44L78.97,182.48L79.01,182.51L79.07,182.52L79.13,182.51L79.21,182.48L81.13,181.20L80.76,180.90"/><path d="M79.03,182.06L78.97,182.19"/><path d="M81.01,185.62L80.64,185.33"/><path d="M81.03,180.61L81.22,180.49L81.36,180.45L81.41,180.46L81.45,180.49L81.48,180.53L81.50,180.59L81.48,180.74L81.40,180.91L81.28,181.07L81.13,181.20"/><path d="M81.10,179.46L81.47,179.75"/></g><g style="stroke:#000000;stroke-width:0.247"><path d="M76.47,182.07L76.45,182.57L74.36,183.96L74.26,190.20L74.63,190.51L76.51,189.23L76.63,189.31"/><path d="M77.39,189.31L77.48,189.26L77.56,189.19L77.63,189.12L77.68,189.03L77.70,188.95L77.71,188.86L77.72,188.40L81.30,185.98L81.38,185.91L81.55,185.74L81.62,185.65L81.74,185.45L81.78,185.35L81.82,185.17L81.97,179.89L81.96,179.81L81.94,179.75L81.91,179.70L81.49,179.37L81.42,179.35L81.36,179.35L81.27,179.37L81.19,179.41L77.87,181.62"/><path d="M78.98,186.45L78.93,186.48L79.04,186.34L79.19,186.21L80.89,185.06L80.78,185.20L80.64,185.33L78.98,186.45"/><path d="M79.13,182.00L79.03,182.06L79.15,181.90L79.30,181.77L81.03,180.61L80.90,180.77L80.76,180.90L79.13,182.00"/></g></g><g id="Actor_.10"><g style="stroke:#000000;stroke-width:0.049"><path d="M80.91,180.69L80.92,180.71L80.94,180.73"/></g><g style="stroke:#000000;stroke-width:0.247"><path d="M79.71,180.13L79.82,180.06L79.90,180.06L79.98,180.06L80.10,180.06L80.18,180.08"/><path d="M80.91,180.69L80.92,180.70L80.94,180.73"/></g></g><g id="Actor_.11"><g style="stroke:#000000;stroke-width:0.049"><path d="M73.62,175.62L73.77,175.67L73.88,175.74L74.29,175.47"/><path d="M73.88,175.74L77.01,178.25L77.08,178.35L77.11,178.46L76.99,179.25L77.55,179.28L77.55,179.45L77.41,179.40L77.26,179.38L77.11,179.39L76.99,179.41L76.99,179.25"/><path d="M76.30,190.99L76.31,191.05L76.37,191.17L76.47,191.28L76.51,189.28L76.48,189.25"/><path d="M77.66,190.99L77.61,191.12L77.53,191.23L77.41,191.32L77.26,191.39L77.01,191.44L76.83,191.43L76.67,191.39L76.47,191.28L76.48,191.34L76.50,191.36"/><path d="M76.51,189.28L76.64,189.36L76.79,189.42L76.96,189.44L77.22,189.42L77.45,189.33L77.57,189.23L77.66,189.12L77.70,189.00L77.71,188.93"/><path d="M77.43,182.50L77.28,182.53L77.10,182.54L76.85,182.49L76.71,182.43L76.61,182.35L76.54,182.28L76.48,182.16L76.46,182.03L76.50,179.96L76.51,180.03L76.55,180.15L76.63,180.26L76.68,180.31L76.70,180.23L76.75,180.14L76.82,180.05L76.90,179.98L77.00,180.04L77.19,180.08L77.36,180.06L77.49,180.00L77.51,179.98L77.52,179.57L77.64,179.52L77.69,179.54"/><path d="M76.64,182.38L76.68,180.31L76.82,180.40L77.06,180.47L77.23,180.48L77.44,180.45L77.64,180.36L77.76,180.27L77.85,180.16L77.88,180.10L77.91,179.97"/><path d="M76.96,178.21L76.94,179.43L76.80,179.49L76.67,179.60L76.58,179.71L76.54,179.80L76.51,179.89"/><path d="M76.51,179.90L76.50,179.96"/><path d="M77.51,179.98L77.57,179.92L77.62,179.83L77.63,179.74L77.59,179.65L77.47,179.53L77.36,179.49L77.23,179.47L77.10,179.48L76.98,179.52L76.88,179.59L76.82,179.67L76.79,179.76L76.80,179.83L76.82,179.90L76.90,179.98"/><path d="M76.94,179.43L76.99,179.41"/><path d="M77.55,179.45L77.64,179.50L77.66,178.56L77.55,179.28"/><path d="M77.64,179.50L77.64,179.50"/><path d="M77.66,178.56L77.66,178.48"/></g><g style="stroke:#000000;stroke-width:0.247"><path d="M77.43,182.50L77.60,182.43L77.71,182.34L77.81,182.22L77.84,182.16L77.86,182.03L77.90,179.91L77.88,179.81L77.81,179.66L77.75,179.58L77.64,179.50L77.66,178.48L77.65,178.33L77.59,178.19L77.50,178.05L77.38,177.93L74.24,175.43L74.08,175.36L73.96,175.36L73.58,175.59"/><path d="M77.71,188.89L77.67,190.93L77.65,191.03L77.59,191.18L77.51,191.29L77.37,191.40L77.22,191.47L77.08,191.50L76.92,191.51L76.69,191.46L76.50,191.36L76.39,191.24L76.34,191.15L76.30,191.03L76.29,190.93L76.32,189.36"/></g></g><g id="Actor_.12"><g style="stroke:#000000;stroke-width:0.049"><path d="M74.37,129.04L74.43,129.07L74.49,129.08L74.54,129.06L74.58,129.03L74.61,128.97L74.62,128.91L74.62,128.83L74.60,128.74L74.57,128.65L74.52,128.56L74.47,128.48L74.63,128.35L74.70,128.44L74.75,128.55L74.79,128.65L74.82,128.76L74.83,128.86L74.83,128.95L74.82,129.02L74.78,129.08L74.74,129.12"/><path d="M74.02,128.43L74.03,128.36L74.06,128.31L74.09,128.28L74.15,128.26L74.21,128.27L74.27,128.29L74.34,128.34L74.41,128.40L74.47,128.48"/><path d="M74.13,128.09L74.18,128.06L74.25,128.06L74.32,128.08L74.40,128.12L74.48,128.18L74.56,128.26L74.63,128.35L74.82,128.23"/></g><g style="stroke:#000000;stroke-width:0.247"><path d="M74.93,129.01L74.74,129.12L74.68,129.14L74.61,129.14L74.54,129.12L74.37,129.04L74.30,129.00L74.23,128.94L74.17,128.86L74.11,128.78L74.07,128.69L74.04,128.60L74.02,128.51L74.02,128.43L74.03,128.26L74.05,128.19L74.08,128.13L74.13,128.09L74.32,127.98"/></g></g><g id="Actor_.13"><g style="stroke:#000000;stroke-width:0.049"><path d="M81.07,121.64L81.08,121.66L81.12,121.70L81.17,121.72L81.23,121.73L81.31,121.71L81.38,121.68L81.46,121.62L81.53,121.56L81.59,121.48L81.65,121.39L81.69,121.30L81.70,121.28"/><path d="M80.55,122.00L80.57,122.05L80.61,122.14L80.63,122.16"/></g><g style="stroke:#000000;stroke-width:0.247"><path d="M80.49,122.09L80.53,122.12L80.60,122.18"/><path d="M81.44,120.21L81.32,120.25L81.20,120.31L81.07,120.39L80.97,120.47"/><path d="M82.13,121.31L82.15,121.24L82.20,121.10L82.22,120.98"/></g></g><g id="Actor_.14"><g style="stroke:#000000;stroke-width:0.049"><path d="M80.30,120.39L80.67,120.65"/></g><g style="stroke:#000000;stroke-width:0.247"><path d="M79.99,121.03L80.01,120.94L80.03,120.88L80.07,120.78L80.11,120.69L80.16,120.60L80.23,120.49L80.30,120.39L80.39,120.31L80.46,120.25L80.54,120.20L80.61,120.15L80.70,120.11L80.75,120.08L80.81,120.06L80.94,120.01L80.99,120.00L81.34,120.24"/></g></g><g id="Actor_.15"><g style="stroke:#000000;stroke-width:0.049"><path d="M74.88,119.30L74.93,119.26L74.96,119.19L74.98,119.12L74.98,119.02L74.97,118.92L74.94,118.82L74.91,118.73"/><path d="M74.51,119.22L74.57,119.25L74.63,119.25L74.69,119.24L74.73,119.20L74.75,119.15L74.77,119.08L74.76,118.99L74.74,118.90L74.72,118.83"/></g><g style="stroke:#000000;stroke-width:0.247"><path d="M75.08,119.19L74.88,119.30L74.83,119.32L74.76,119.33L74.68,119.31L74.51,119.22L74.44,119.18L74.37,119.12L74.32,119.06"/></g></g><g id="Actor_.16"><g style="stroke:#000000;stroke-width:0.049"><path d="M80.43,127.43L80.43,127.44L80.48,127.53L80.51,127.58"/><path d="M80.95,127.06L80.98,127.10L81.03,127.12L81.10,127.12L81.17,127.11L81.24,127.07L81.32,127.02L81.39,126.95L81.45,126.87L81.51,126.79L81.54,126.72"/></g><g style="stroke:#000000;stroke-width:0.247"><path d="M80.50,127.59L80.37,127.50"/><path d="M81.97,126.73L82.01,126.63L82.05,126.50L82.07,126.42"/></g></g><g id="Actor_.17"><g style="stroke:#000000;stroke-width:0.049"><path d="M68.28,131.87L71.80,134.49L71.80,134.95"/><path d="M68.39,117.27L71.99,119.88L76.89,117.16L77.24,117.03L77.53,117.07"/><path d="M71.80,134.49L76.59,131.71L73.07,129.13"/><path d="M71.99,119.88L71.99,120.36"/><path d="M73.28,114.59L76.89,117.16"/><path d="M73.53,128.42L74.23,128.93"/><path d="M74.40,129.06L77.05,131.00L76.98,131.26L76.81,131.52L76.59,131.71"/><path d="M75.64,129.12L75.92,128.96L75.89,129.12L75.78,129.18L75.62,129.19L75.64,129.12L75.50,129.17L75.19,129.35L75.20,128.47L75.15,128.26L75.00,128.09L74.22,127.52L74.07,127.48L74.01,127.60L74.00,128.48L74.05,128.69L74.09,128.73"/><path d="M74.07,127.48L74.39,127.30L74.62,127.08L74.66,127.06L74.58,127.21L74.59,127.23L74.65,127.25L74.53,127.33L74.22,127.52"/><path d="M74.39,127.30L74.53,127.33L74.93,127.11L74.93,127.08L74.65,127.25"/><path d="M75.37,119.56L75.30,119.68L75.63,119.50L75.69,119.38L76.09,119.15L76.11,119.17L75.37,119.56L75.38,118.64L75.34,118.49L73.67,119.42"/><path d="M75.19,129.35L75.12,129.47L74.98,129.43L74.57,129.13"/><path d="M75.12,129.47L75.44,129.29L75.78,129.18"/><path d="M75.44,129.29L75.50,129.17L75.87,128.96L75.88,128.10"/><path d="M75.00,128.09L75.32,127.91L75.46,128.08L75.52,128.28L75.20,128.47"/><path d="M75.32,127.91L75.44,127.82L75.45,127.85L75.50,127.88L75.76,127.87L75.80,127.94L75.64,128.15L75.64,128.21L75.65,128.23L75.52,128.28"/><path d="M75.44,127.82L75.72,127.66L75.88,127.80L75.76,127.87"/><path d="M74.62,127.08L74.77,127.00L74.66,127.06"/><path d="M74.90,127.13L75.67,127.69"/><path d="M74.93,127.08L74.77,127.00"/><path d="M75.30,119.68L75.16,119.64L74.69,119.31"/><path d="M75.38,118.64L75.71,118.46L75.66,118.31L75.34,118.49"/><path d="M75.92,128.96L75.90,128.94L75.87,128.96"/><path d="M75.80,127.94L75.92,127.88L75.88,127.80"/><path d="M75.65,128.23L75.94,128.07L75.92,127.88"/><path d="M75.83,119.33L75.81,119.40L75.97,119.39L75.63,119.50"/><path d="M76.11,119.17L76.08,119.33L75.97,119.39"/><path d="M76.07,118.28L76.06,119.17"/><path d="M76.11,118.06L76.13,118.25L75.84,118.41L75.83,118.39L75.83,118.32L75.98,118.13"/><path d="M75.66,118.31L76.88,117.63L76.99,117.60L77.33,117.84L77.05,131.00"/><path d="M75.84,118.41L75.71,118.46"/><path d="M77.33,117.84L77.27,117.64L77.11,117.56L76.99,117.60"/></g><g style="stroke:#000000;stroke-width:0.247"><path d="M77.45,130.96L77.42,131.12L77.22,131.53L76.92,131.90L76.58,132.17L71.80,134.95L68.28,132.33L68.28,131.87L73.07,129.13L73.29,128.94L73.46,128.68L73.53,128.42L73.67,119.42"/><path d="M73.67,119.42L71.99,120.36L68.38,117.75L68.39,117.27L73.28,114.59L73.64,114.46L73.93,114.50L77.53,117.07L77.73,117.26L77.79,117.59L77.76,118.99"/></g></g><g id="Actor_.18"><g style="stroke:#000000;stroke-width:0.049"><path d="M75.22,114.82L74.76,115.07L74.63,115.00"/><path d="M74.76,115.07L78.19,117.50L78.16,118.69L78.35,118.66L78.52,118.65L78.69,118.68L78.84,118.73L78.84,118.55L78.22,118.50L78.22,118.68"/><path d="M77.43,132.73L77.47,132.85L77.62,133.01L77.84,133.12L78.12,133.17L78.40,133.16L78.65,133.07L78.84,132.93L78.88,132.87L78.93,132.75"/><path d="M78.99,130.25L78.97,130.37L78.94,130.43L78.84,130.54L78.63,130.66L78.45,130.71L78.26,130.73L78.07,130.72L77.89,130.68L77.66,130.56L77.62,133.01L77.65,133.11"/><path d="M77.66,130.56L77.52,130.40L77.49,130.34L77.47,130.22L77.45,131.04"/><path d="M77.47,130.22L77.49,130.12"/><path d="M79.23,119.27L79.21,119.39L79.13,119.50L78.94,119.64L78.68,119.72L78.39,119.74L78.11,119.69L77.88,119.58L77.73,119.42L77.70,119.36L77.68,119.24L77.63,121.77L77.65,121.89L77.68,121.95L77.83,122.11L77.88,119.58L77.90,119.48L77.95,119.37L78.03,119.28L78.11,119.22L78.01,119.09L78.00,119.04L78.01,118.95L78.10,118.83L78.27,118.74L78.49,118.72L78.70,118.76L78.85,118.86L78.93,118.99L78.92,119.08L78.90,119.12L78.81,119.22L78.81,118.82L78.90,118.79L78.97,118.80"/><path d="M77.83,122.11L77.98,122.19L78.25,122.27L78.44,122.28L78.70,122.24"/><path d="M78.16,118.69L77.97,118.78L77.83,118.89L77.74,119.03L77.70,119.13L77.68,119.24"/><path d="M78.12,119.21L78.23,119.27L78.44,119.31L78.65,119.29L78.80,119.22"/><path d="M78.19,117.50L78.31,117.64L78.34,117.75L78.22,118.50"/><path d="M78.94,118.78L78.84,118.73"/><path d="M78.94,118.78L78.96,117.85L78.84,118.55"/><path d="M79.23,119.20L79.23,119.21"/><path d="M78.96,117.85L78.96,117.78"/></g><g style="stroke:#000000;stroke-width:0.247"><path d="M74.52,114.92L74.88,114.73L75.04,114.73L75.16,114.78L78.65,117.24L78.78,117.36L78.88,117.49L78.94,117.63L78.96,117.78L78.94,118.78L79.06,118.86L79.17,119.00L79.21,119.10L79.23,119.21L79.18,121.80L79.15,121.92L79.08,122.04L79.02,122.09L78.89,122.17L78.70,122.24"/><path d="M77.44,131.03L77.45,131.04L77.42,132.66L77.43,132.77L77.49,132.93L77.55,133.02L77.65,133.11L77.81,133.20L77.96,133.25L78.12,133.28L78.29,133.27L78.45,133.24L78.59,133.18L78.74,133.09L78.86,132.95L78.93,132.80L78.94,132.69L78.99,130.25L78.97,130.11"/></g></g><g id="Actor_.19"><g style="stroke:#000000;stroke-width:0.049"><path d="M78.64,130.47L78.39,130.55L78.00,130.53L77.81,130.45"/><path d="M77.67,130.39L77.83,122.29L77.65,122.06"/><path d="M79.15,121.91L79.14,122.12L78.92,122.33L78.56,122.44L78.16,122.43L77.83,122.29"/><path d="M79.01,129.65L79.18,122.02L79.16,122.01L78.99,129.64"/><path d="M79.18,122.02L83.16,119.76L82.75,119.47"/><path d="M79.16,122.00L79.16,121.90"/><path d="M80.26,127.72L80.25,127.74L80.24,127.99L80.38,128.11L80.61,128.05L80.25,127.79"/><path d="M80.38,122.37L80.37,122.56L80.51,122.68L80.74,122.63L80.38,122.37"/><path d="M80.37,122.36L80.38,122.31"/><path d="M80.61,128.05L82.63,126.88L82.86,126.67L83.01,126.39L83.02,126.14L82.88,126.02L82.65,126.08L82.59,126.11"/><path d="M80.74,122.63L82.78,121.46L82.37,121.17"/><path d="M82.63,126.88L82.22,126.59"/><path d="M82.78,121.46L83.02,121.25L83.17,120.97L83.17,120.72L83.03,120.60L82.80,120.65L82.75,120.68"/><path d="M83.16,119.76L83.44,119.68L83.64,119.77"/></g><g style="stroke:#000000;stroke-width:0.247"><path d="M77.81,130.45L77.67,130.39L77.49,130.16L77.65,122.06L77.66,121.90"/><path d="M78.64,130.47L78.75,130.43L78.96,130.22L78.98,129.96L78.99,129.64L79.01,129.65L82.95,127.37L83.23,127.13L83.44,126.80L83.52,126.48L83.71,120.02L83.64,119.77L83.23,119.48L83.03,119.38L82.75,119.47L79.19,121.48"/><path d="M80.34,127.57L80.26,127.72L82.22,126.59L82.46,126.38L82.59,126.11L80.63,127.25L80.39,127.46L80.34,127.57"/><path d="M80.38,122.31L82.37,121.17L82.60,120.96L82.75,120.68L80.76,121.81L80.53,122.02L80.38,122.31"/></g></g><g id="Actor_.20"><g style="stroke:#000000;stroke-width:0.049"><path d="M110.35,89.21L110.39,89.24"/><path d="M111.05,89.07L111.09,89.07L111.13,89.08L111.16,89.11L111.18,89.15L111.19,89.20L111.19,89.25L111.18,89.31L111.16,89.38L111.13,89.44L111.09,89.50L111.04,89.55L111.00,89.59L110.95,89.62L110.90,89.64L110.89,89.64"/><path d="M111.16,89.38L111.01,89.29"/></g><g style="stroke:#000000;stroke-width:0.247"><path d="M110.36,89.19L110.35,89.21L110.31,89.31L110.29,89.41L110.27,89.51L110.27,89.60L110.27,89.69L110.29,89.77L110.32,89.83L110.36,89.89L110.37,89.90"/><path d="M111.04,89.09L111.04,89.11L111.04,89.17L111.03,89.23L111.01,89.29L110.98,89.35L110.94,89.41L110.90,89.46"/></g></g><g id="Actor_.21"><g style="stroke:#000000;stroke-width:0.049"><path d="M110.34,89.18L110.35,89.23"/><path d="M110.94,89.25L110.94,89.24"/></g><g style="stroke:#000000;stroke-width:0.247"><path d="M110.27,89.64L110.04,89.50L110.03,89.47L110.02,89.39L110.02,89.34L110.01,89.30L110.01,89.24L110.01,89.18L110.02,89.13L110.03,89.06L110.04,89.04"/></g></g><g id="Actor_.22"><g style="stroke:#000000;stroke-width:0.049"><path d="M110.90,89.46L110.94,89.41L110.98,89.35L111.01,89.29L111.03,89.23L111.04,89.17L111.04,89.11L111.04,89.09"/><path d="M111.01,89.29L110.94,89.25"/><path d="M110.94,89.24L110.94,89.24"/></g><g style="stroke:#000000;stroke-width:0.247"><path d="M110.94,89.24L110.94,89.24"/><path d="M110.94,89.24L110.94,89.25L110.93,89.25"/></g></g><g id="Actor_.23"><g style="stroke:#000000;stroke-width:0.049"><path d="M112.82,90.93L112.78,90.91L112.76,90.88L112.74,90.83L112.74,90.78L111.44,90.00"/><path d="M111.96,82.50L113.21,83.22L113.16,83.26L113.11,83.30L113.03,83.41L113.00,83.48L112.98,83.54L112.98,83.60L111.95,83.00"/><path d="M113.03,90.62L113.01,90.63L112.98,90.62L112.97,90.61L112.96,90.58L113.03,90.62L113.84,90.17"/><path d="M112.98,83.60L112.74,90.78"/><path d="M112.96,90.58L112.99,89.67"/><path d="M113.06,88.44L113.17,85.02L113.20,85.00L113.21,84.97"/><path d="M113.03,88.45L113.15,85.03L113.17,85.02"/><path d="M113.15,85.03L113.15,84.89"/><path d="M113.21,83.22L114.09,82.74"/></g><g style="stroke:#000000;stroke-width:0.247"><path d="M111.99,81.52L114.09,82.74L114.08,83.00L113.27,83.44L113.22,83.50L113.20,83.57L113.15,84.89L113.20,84.92L113.21,84.95L113.21,84.97L113.10,88.39L113.09,88.41L113.03,88.45L112.99,89.67L113.84,90.17L113.83,90.43L112.95,90.91L112.90,90.93L112.86,90.94L112.82,90.93L111.33,90.05"/></g></g><g id="Actor_.24"><g style="stroke:#000000;stroke-width:0.049"><path d="M106.23,86.54L109.17,87.43L109.33,87.32"/><path d="M108.06,85.83L109.32,86.72L109.38,86.79L109.44,86.88L109.49,86.98L109.51,87.06"/><path d="M108.46,84.46L108.58,84.52L108.63,84.53L108.76,84.54L108.94,84.58L109.12,84.67L109.30,84.81L109.46,84.99L109.58,85.14L109.67,85.22L109.71,85.25L109.78,85.27L109.85,85.27L109.91,85.24L109.94,85.19L109.86,85.17L109.82,85.15L109.77,85.11L109.69,85.01L109.54,85.09"/><path d="M108.68,84.54L108.83,84.45L108.78,84.45L108.69,84.42"/><path d="M108.43,83.54L108.36,83.55L108.29,83.59L108.27,83.63L108.25,83.73L108.40,83.65"/><path d="M108.25,83.73L108.26,83.85"/><path d="M108.25,83.77L108.40,83.69"/><path d="M109.17,87.43L109.24,87.44L109.34,87.44L109.42,87.40L109.48,87.33"/><path d="M110.26,89.15L109.52,87.15"/><path d="M109.28,85.86L109.29,85.83"/><path d="M109.27,85.87L109.26,85.89"/><path d="M109.24,85.90L109.23,85.92"/><path d="M109.24,85.57L109.23,85.55"/><path d="M109.26,85.61L109.27,85.64"/><path d="M109.28,85.68L109.29,85.70"/><path d="M109.29,85.74L109.29,85.76"/><path d="M108.97,85.36L108.93,85.36"/><path d="M108.83,84.45L109.00,84.47L109.08,84.50L109.27,84.59L109.45,84.73L109.53,84.82L109.69,85.01"/><path d="M109.01,85.36L108.98,85.36"/><path d="M108.97,83.68L109.13,83.77L109.25,83.85L109.50,84.06L109.73,84.30L109.87,84.48L109.93,84.61L109.97,84.74L109.97,85.08L109.94,85.19"/><path d="M109.72,80.90L109.78,80.88L109.84,80.89L109.91,80.90L110.00,80.94L110.15,80.86"/><path d="M110.55,90.29L110.52,90.24L110.51,90.20L110.37,90.11"/><path d="M110.51,90.20L110.56,88.40L110.52,88.41L110.40,88.40L110.35,88.39L110.27,88.34L110.25,89.13"/><path d="M110.16,88.15L110.18,88.08L110.21,88.07L110.27,88.08L110.16,88.15L110.18,88.22L110.25,88.33L110.40,88.24"/><path d="M110.25,88.33L110.27,88.34"/><path d="M110.46,88.41L110.54,88.36L110.56,88.40L110.54,88.41"/><path d="M110.56,88.40L111.75,87.75L111.60,87.66L111.00,87.99L110.97,88.08L110.94,88.12L110.75,88.23L110.82,88.16L110.86,88.06L110.86,88.00L110.85,87.86L110.80,87.72L110.73,87.58L110.63,87.46L110.52,87.38L110.30,87.24L110.25,87.18L110.21,87.10L110.20,87.02L110.22,86.95L110.24,86.93L110.31,86.93L110.47,81.21L110.00,80.94"/><path d="M110.54,88.36L110.45,88.29"/><path d="M110.54,89.18L110.49,89.19L110.39,89.19"/><path d="M110.26,87.63L110.28,87.53L110.31,87.49L110.35,87.47L110.42,87.47L110.41,87.54L110.26,87.63L110.26,87.69L110.30,87.82L110.38,87.93L110.42,87.98L110.52,88.04L110.57,88.05L110.61,88.04L110.65,88.02L110.69,87.96"/><path d="M110.52,87.38L110.67,87.29L110.47,87.17L110.32,87.25"/><path d="M110.70,87.85L110.66,87.70L110.58,87.58L110.49,87.50L110.42,87.47"/><path d="M110.28,88.08L110.31,88.10"/><path d="M110.56,88.23L110.66,88.25L110.75,88.23"/><path d="M110.86,88.00L111.01,87.92L111.01,87.85L110.98,87.71L110.92,87.57L110.83,87.44L110.73,87.34L110.67,87.29"/><path d="M110.42,87.67L110.41,87.54"/><path d="M110.47,87.17L110.41,87.12L110.37,87.06L110.35,86.94L110.20,87.02"/><path d="M110.31,86.93L110.34,86.94"/><path d="M110.35,86.94L110.46,86.97L110.56,86.95L110.61,86.94L111.56,86.41L111.63,86.50L111.86,86.65L112.01,86.56"/><path d="M110.61,86.94L110.77,81.22L110.37,80.99"/><path d="M110.62,81.13L110.63,80.66"/><path d="M110.47,81.21L110.60,81.25L110.69,81.24L110.76,81.22L110.80,80.14L110.65,80.06"/><path d="M110.90,89.80L110.93,89.87L110.97,89.89L111.01,89.90L111.06,89.89L111.15,89.84L111.25,89.74L111.31,89.61L111.33,89.49L111.19,89.40"/><path d="M111.33,89.49L111.34,89.15L111.20,89.06"/><path d="M111.34,89.15L111.33,89.05L111.30,89.02L111.27,88.99L111.19,88.99"/><path d="M111.73,88.53L111.75,87.75L111.78,87.73L111.81,87.67L111.73,87.71L111.58,87.59L111.73,87.51"/><path d="M111.58,87.59L111.51,87.49L111.50,87.42L111.52,87.35L111.54,87.34L111.61,87.35L111.50,87.42"/><path d="M111.73,87.71L111.75,87.75"/><path d="M111.61,87.35L111.65,87.37"/><path d="M111.01,87.92L111.00,87.99"/><path d="M111.81,86.44L111.66,86.52"/><path d="M111.76,86.74L111.68,86.74L111.65,86.76L111.62,86.80L111.60,86.84L111.60,86.96L111.64,87.09L111.71,87.20L111.81,87.28L111.96,87.20"/><path d="M111.56,86.41L111.71,86.33"/><path d="M111.55,80.51L111.47,80.62L111.37,80.70L111.27,80.73L111.23,80.72L111.20,80.70L111.17,80.66L111.17,80.64L111.27,80.58L111.36,80.48L111.43,80.36L111.45,80.23L111.60,80.32L111.60,80.38L111.55,80.51"/><path d="M111.16,80.64L111.15,80.56L111.16,80.21L111.18,80.11"/><path d="M110.80,80.14L110.82,80.05L110.84,80.00L110.88,79.95L110.95,79.89L110.80,79.80"/><path d="M110.95,79.89L111.85,79.41L111.70,79.32"/><path d="M111.46,79.88L111.61,79.97L111.59,79.87L111.57,79.83L111.54,79.81L111.45,79.80"/><path d="M111.45,80.23L111.46,80.12"/><path d="M111.60,80.32L111.61,79.97"/><path d="M111.79,88.43L111.79,88.43"/><path d="M111.86,86.65L111.98,86.74L112.08,86.88L112.12,86.96L112.18,87.11L112.19,87.19L112.19,87.33L112.14,87.44L112.11,87.48L112.06,87.51"/><path d="M111.81,87.67L111.81,87.63"/><path d="M111.75,87.75L111.75,87.75"/><path d="M111.81,87.28L111.86,87.31L111.90,87.32L111.95,87.31L111.98,87.29L112.02,87.23"/><path d="M112.20,87.27L112.34,87.19"/><path d="M111.79,86.29L111.96,80.58L112.01,80.54L112.02,80.49"/><path d="M111.96,80.58L111.97,80.41"/><path d="M111.96,79.40L111.93,79.39L111.85,79.41"/></g><g style="stroke:#000000;stroke-width:0.247"><path d="M109.51,87.06L109.51,87.21L109.48,87.33L109.42,87.34L109.36,87.33L106.36,86.43L106.23,86.54L106.21,86.87L106.24,87.00L106.27,87.06L106.36,87.20L106.45,87.30L106.50,87.33L110.26,89.15L110.39,89.19L110.37,90.15L110.41,90.20L110.55,90.29L110.62,90.30L111.54,89.79L111.58,89.77L111.65,89.69L111.67,89.64L111.70,89.54L111.73,88.53L111.77,88.49L111.79,88.46L111.81,87.63L111.78,87.56L111.68,87.45L111.65,87.37L111.90,87.50L112.01,87.52L112.06,87.51L112.26,87.40L112.32,87.31L112.34,87.25L112.34,87.11L112.33,87.03L112.27,86.87L112.23,86.80L112.13,86.66L112.07,86.61L111.77,86.42L111.71,86.33L111.83,86.26L111.85,86.21L112.02,80.49L112.01,80.46L111.97,80.41L112.00,79.50L111.98,79.43L111.96,79.40L111.81,79.32L111.74,79.31L110.76,79.83L110.69,79.91L110.65,80.01L110.63,80.66"/><path d="M108.79,86.58L108.37,86.31L108.28,86.23L108.20,86.13L108.11,85.98L108.06,85.83L107.35,85.32L107.39,83.77L107.43,83.68L109.62,80.97L109.66,80.93L109.87,80.82L109.93,80.80L109.99,80.81L110.11,80.84L110.37,80.99L110.60,80.70"/><path d="M108.61,84.38L108.69,84.42"/><path d="M108.41,83.77L108.40,83.65L108.43,83.54L108.63,83.56L108.75,83.59L108.97,83.68"/><path d="M109.07,85.38L109.11,85.41"/><path d="M109.12,85.42L109.16,85.46"/><path d="M109.06,85.38L109.02,85.36"/><path d="M109.20,85.51L109.17,85.46"/><path d="M109.23,85.55L109.21,85.52"/><path d="M109.26,85.61L109.24,85.57"/><path d="M109.28,85.68L109.27,85.64"/><path d="M109.29,85.74L109.29,85.70"/><path d="M109.29,85.80L109.29,85.76"/><path d="M109.29,85.82L109.29,85.83"/><path d="M109.01,85.36L109.01,85.36"/><path d="M110.42,87.67L110.48,87.80L110.53,87.85L110.62,87.93L110.69,87.96L110.70,87.85"/><path d="M110.34,88.18L110.31,88.10L110.56,88.23L110.45,88.29L110.37,88.22L110.34,88.18"/><path d="M110.96,89.78L111.05,89.70L111.10,89.65L111.16,89.53L111.19,89.40L111.20,89.06L111.19,88.99L111.13,89.01L111.03,89.09L110.99,89.15L110.93,89.27L110.90,89.39L110.89,89.73L110.90,89.80L110.96,89.78"/><path d="M111.74,86.85L111.75,86.76L111.76,86.74L111.77,86.75L111.87,86.80L111.96,86.91L111.99,86.97L112.03,87.10L112.04,87.16L112.02,87.23L111.96,87.20L111.91,87.17L111.82,87.07L111.76,86.94L111.74,86.85"/><path d="M111.46,80.12L111.46,79.88L111.45,79.80L111.40,79.82L111.30,79.90L111.22,80.02L111.18,80.11"/></g></g><g id="Actor_.25"><g style="stroke:#000000;stroke-width:0.049"><path d="M109.28,84.00L109.26,84.03"/><path d="M109.28,83.99L109.30,83.95"/><path d="M109.30,83.95L109.31,83.90"/><path d="M110.70,87.93L110.68,87.95L110.67,87.96"/><path d="M110.74,87.34L110.75,86.85"/><path d="M111.01,87.69L110.98,87.71"/></g><g style="stroke:#000000;stroke-width:0.247"><path d="M109.23,87.05L109.05,86.88L108.93,86.76L108.82,86.63L108.76,86.55L108.70,86.46L108.65,86.37L108.61,86.27L108.58,86.19"/><path d="M108.55,83.55L108.55,83.70"/><path d="M110.70,87.94L110.67,87.96"/><path d="M110.99,87.77L111.01,87.73L111.01,87.69L111.05,86.69"/></g></g><g id="Actor_.26"><g style="stroke:#000000;stroke-width:0.049"><path d="M108.47,84.45L108.50,84.42L108.52,84.37L108.53,84.32L108.53,84.26L108.51,84.20L108.49,84.13L108.45,84.07L108.41,84.01L108.37,83.96L108.32,83.93L108.27,83.90L108.22,83.89L108.18,83.90L108.14,83.92"/><path d="M108.52,84.37L109.30,83.95"/></g><g style="stroke:#000000;stroke-width:0.247"><path d="M109.26,84.03L108.47,84.45L108.43,84.47L108.39,84.47L108.34,84.46L108.29,84.44L108.24,84.40L108.20,84.35L108.16,84.30L108.13,84.23L108.10,84.17L108.09,84.11L108.08,84.05L108.09,83.99L108.11,83.95L108.14,83.92L108.74,83.59"/></g></g><g id="Actor_.27"><g style="stroke:#000000;stroke-width:0.049"><path d="M109.14,85.44L109.14,85.44"/><path d="M108.97,85.36L108.90,85.40L108.85,85.40"/><path d="M108.90,85.40L108.94,85.40L108.95,85.40L108.99,85.42L109.04,85.45L109.09,85.50L109.13,85.55L109.17,85.61L109.19,85.68L109.20,85.69L109.21,85.74L109.22,85.80L109.21,85.86L109.20,85.91L109.17,85.94L109.14,85.97"/><path d="M109.13,85.43L109.16,85.46L109.21,85.51L109.24,85.57L109.27,85.64L109.29,85.70L109.29,85.71"/></g><g style="stroke:#000000;stroke-width:0.247"><path d="M109.29,85.71L109.29,85.76L109.29,85.82L109.27,85.87L109.25,85.90L109.21,85.93L109.14,85.97L109.10,85.98L109.05,85.97L109.00,85.95L108.95,85.92L108.90,85.87L108.86,85.82L108.83,85.76L108.80,85.69L108.78,85.63L108.77,85.57L108.78,85.51L108.79,85.46L108.82,85.43L108.85,85.40L108.93,85.36L108.97,85.36L109.02,85.36L109.07,85.38L109.12,85.41L109.13,85.43"/><path d="M109.14,85.43L109.13,85.43"/></g></g><g id="Actor_.28"><g style="stroke:#000000;stroke-width:0.049"><path d="M111.92,83.96L111.97,84.05L112.03,84.16L112.08,84.27L112.11,84.38L112.14,84.50L112.15,84.58L112.16,84.61L112.16,84.71L112.15,84.81L112.14,84.90L112.11,84.98L112.07,85.05L112.02,85.11L111.96,85.15"/></g><g style="stroke:#000000;stroke-width:0.247"><path d="M111.93,83.83L111.98,83.90L112.05,84.01L112.10,84.12L112.15,84.23L112.19,84.34L112.21,84.46L112.23,84.57L112.23,84.67L112.23,84.77L112.21,84.86L112.18,84.94L112.14,85.01L112.09,85.07L112.03,85.11L111.96,85.15L111.89,85.18L111.88,85.19"/></g></g><g id="Actor_.29"><g style="stroke:#000000;stroke-width:0.247"><path d="M111.91,84.38L111.93,84.46L111.94,84.54L111.94,84.63L111.92,84.70L111.90,84.77L111.90,84.77"/></g></g><g id="Actor_.30"><g style="stroke:#000000;stroke-width:0.049"><path d="M111.72,88.69L111.76,88.74L111.82,88.84L111.88,88.95L111.92,89.06L111.96,89.17L111.99,89.28L112.00,89.39L112.01,89.50L112.00,89.59L111.98,89.68L111.95,89.76L111.91,89.83L111.87,89.89L111.81,89.93"/></g><g style="stroke:#000000;stroke-width:0.247"><path d="M111.73,88.56L111.76,88.60L111.83,88.70L111.89,88.80L111.95,88.91L112.00,89.02L112.04,89.13L112.06,89.24L112.08,89.35L112.08,89.46L112.08,89.55L112.06,89.64L112.03,89.72L111.99,89.79L111.94,89.85L111.88,89.89L111.81,89.93L111.74,89.96L111.67,89.98L111.59,89.98L111.51,89.96"/></g></g><g id="Actor_.31"><g style="stroke:#000000;stroke-width:0.247"><path d="M111.70,89.63L111.72,89.60L111.75,89.55L111.77,89.48L111.79,89.41L111.79,89.33L111.78,89.24L111.76,89.16L111.73,89.07L111.71,89.03"/></g></g><g id="Actor_.32"><g style="stroke:#000000;stroke-width:0.049"><path d="M111.07,90.06L111.12,90.05L111.18,90.03L111.22,90.01L111.26,89.97L111.29,89.93"/><path d="M111.26,89.97L111.36,90.03L111.36,90.05"/><path d="M111.36,90.03L111.35,89.95L111.35,89.90"/><path d="M111.70,89.25L111.74,89.23L111.72,89.39"/><path d="M111.74,89.23L111.71,89.18"/></g><g style="stroke:#000000;stroke-width:0.247"><path d="M111.07,90.06L111.10,90.06L111.16,90.06L111.26,90.05L111.36,90.05L111.67,89.88L111.72,89.39"/></g></g><g id="Actor_.33"><g style="stroke:#000000;stroke-width:0.049"><path d="M110.61,80.02L110.65,80.04"/><path d="M111.27,80.12L111.42,80.20L111.45,80.14L111.46,80.08L111.46,80.02L111.45,79.97L111.42,79.93L111.39,79.90L111.35,79.89L111.31,79.89"/><path d="M111.42,80.20L111.39,80.27L111.35,80.33L111.31,80.38L111.26,80.42L111.21,80.45L111.16,80.46L111.16,80.46"/><path d="M111.05,79.67L111.07,79.65L111.15,79.59L111.23,79.53L111.31,79.49L111.39,79.47L111.45,79.45"/></g><g style="stroke:#000000;stroke-width:0.247"><path d="M111.51,79.42L111.45,79.39L111.38,79.37L111.31,79.37L111.23,79.38L111.16,79.40L111.08,79.45L111.00,79.50L110.92,79.56L110.84,79.64L110.77,79.73L110.71,79.82L110.65,79.92L110.61,80.02L110.59,80.05L110.57,80.12L110.54,80.23L110.53,80.33L110.52,80.42L110.53,80.51L110.55,80.59L110.58,80.66L110.62,80.72L110.63,80.73"/><path d="M111.16,80.29L111.20,80.24L111.24,80.18L111.27,80.12L111.30,80.05L111.31,79.99L111.31,79.93L111.30,79.90"/></g></g><g id="Actor_.34"><g style="stroke:#000000;stroke-width:0.049"><path d="M110.60,80.04L110.59,79.97L110.65,79.92"/><path d="M110.59,79.97L110.31,79.80"/><path d="M110.41,79.62L110.41,79.62"/><path d="M110.70,79.33L110.99,79.50L111.00,79.50"/><path d="M111.20,80.07L111.20,80.08"/><path d="M110.99,79.50L110.98,79.51"/></g><g style="stroke:#000000;stroke-width:0.247"><path d="M111.13,79.42L111.08,79.39L110.98,79.36L110.92,79.35L110.87,79.34L110.82,79.34L110.79,79.33L110.75,79.33L110.70,79.33L110.63,79.39L110.56,79.45L110.50,79.51L110.46,79.56L110.41,79.62"/><path d="M110.53,80.47L110.29,80.33L110.27,80.21L110.26,80.13L110.26,80.06L110.27,80.00L110.27,79.94L110.29,79.87L110.31,79.80L110.32,79.77L110.36,79.69L110.39,79.66L110.41,79.62"/></g></g><g id="Actor_.35"><g style="stroke:#000000;stroke-width:0.049"><path d="M111.30,79.90L111.31,79.93L111.31,79.99L111.30,80.05L111.27,80.12L111.24,80.18L111.20,80.24L111.16,80.29"/><path d="M111.27,80.12L111.20,80.07"/></g><g style="stroke:#000000;stroke-width:0.247"><path d="M111.22,80.01L111.20,80.07L111.18,80.11"/></g></g><g id="Actor_.36"><g style="stroke:#000000;stroke-width:0.049"><path d="M109.40,89.01L109.33,88.94L109.30,88.89L109.26,88.78L109.24,88.66"/><path d="M109.45,86.89L109.38,87.03L109.35,87.11L109.29,87.31"/><path d="M110.42,88.16L110.35,88.20"/><path d="M111.57,89.97L111.92,90.18L112.01,90.22L112.05,90.23L112.12,90.22L112.19,90.19L112.23,90.13L112.26,90.04L112.44,84.40L112.48,84.41L112.52,84.40L112.34,90.00L112.30,90.01L112.26,90.00"/><path d="M112.03,87.52L112.01,88.13L112.04,88.14L112.08,88.14L112.07,88.23L112.05,88.32L112.00,88.41L111.94,88.48L111.86,88.52L111.81,88.53L111.73,88.52"/><path d="M112.10,87.49L112.08,88.14L112.12,88.14L112.15,88.16L112.15,88.22L112.12,88.34L112.07,88.44L112.04,88.48L111.96,88.53L111.87,88.57L111.82,88.57L111.73,88.56"/><path d="M112.56,89.88L112.34,90.00L112.33,90.05L112.31,90.13L112.29,90.17L112.23,90.22"/><path d="M111.92,90.18L111.93,90.20"/><path d="M112.20,90.24L112.20,90.24"/><path d="M111.78,88.48L111.86,88.45L111.93,88.39L111.98,88.30L112.00,88.25L112.01,88.13"/><path d="M112.15,88.16L112.18,87.45"/><path d="M112.06,86.60L112.08,86.04L112.07,85.90L112.04,85.76L112.02,85.69L111.95,85.55L111.88,85.43"/><path d="M112.13,86.67L112.15,86.05L112.15,85.98L112.13,85.84L112.09,85.70L112.03,85.56L111.95,85.42L111.88,85.32"/><path d="M112.20,86.75L112.22,86.06L112.19,86.05L112.12,86.05L112.08,86.04"/><path d="M112.22,86.06L112.22,85.99L112.20,85.85L112.18,85.77L112.13,85.62L112.06,85.47L112.02,85.40L111.97,85.33L111.88,85.22"/><path d="M112.44,84.40L112.43,84.29L112.42,84.23L112.40,84.18L112.35,84.07L112.32,84.01L112.25,83.92L112.16,83.84L112.12,83.81L112.13,83.78L112.16,83.75L112.20,83.78L112.29,83.86L112.37,83.95L112.40,84.00L112.46,84.12L112.48,84.17L112.51,84.29L112.52,84.40L112.74,84.28"/><path d="M112.38,83.63L112.16,83.75L111.93,83.62"/><path d="M112.12,83.81L111.93,83.70"/></g><g style="stroke:#000000;stroke-width:0.247"><path d="M110.02,89.04L109.86,89.09L109.71,89.11L109.62,89.10L109.57,89.09L109.53,89.07L109.44,89.04L109.33,88.95L109.27,88.88L109.22,88.80L109.19,88.75L109.15,88.62"/><path d="M109.36,86.76L109.30,86.86L109.24,87.00L109.20,87.14L109.17,87.28"/><path d="M111.53,89.97L111.97,90.23L112.02,90.25L112.11,90.26L112.16,90.25L112.20,90.24L112.45,90.10L112.48,90.08L112.53,90.01L112.54,89.97L112.56,89.88L112.74,84.23L112.72,84.11L112.68,84.00L112.62,83.88L112.59,83.83L112.51,83.74L112.47,83.69L112.38,83.63L111.94,83.37"/></g></g><g id="Actor_.37"><g style="stroke:#000000;stroke-width:0.049"/><g style="stroke:#000000;stroke-width:0.247"><path d="M114.92,14.24L114.92,14.24L114.94,14.15L114.96,14.06L114.96,13.96L114.95,13.86L114.93,13.78"/></g></g><g id="Actor_.38"><g style="stroke:#000000;stroke-width:0.049"><path d="M114.95,13.27L115.00,13.35L115.06,13.47L115.12,13.60L115.16,13.73L115.19,13.87L115.19,13.90L115.20,14.00L115.21,14.13L115.20,14.25L115.18,14.36L115.14,14.46L115.10,14.56L115.04,14.63L114.98,14.70L114.91,14.75"/></g><g style="stroke:#000000;stroke-width:0.247"><path d="M114.95,13.13L115.01,13.20L115.08,13.32L115.14,13.44L115.20,13.57L115.24,13.70L115.27,13.83L115.28,13.96L115.29,14.09L115.28,14.21L115.26,14.33L115.23,14.43L115.18,14.52L115.13,14.60L115.06,14.66L114.99,14.71L114.90,14.75"/></g></g><g id="Actor_.39"><g style="stroke:#000000;stroke-width:0.049"><path d="M114.30,20.07L114.30,20.09L114.29,20.19L114.28,20.28L114.26,20.35L114.23,20.42L114.19,20.48L114.15,20.53L114.09,20.57L114.04,20.60L113.98,20.62L113.95,20.62L113.87,20.62L113.79,20.60L113.70,20.56L113.62,20.51L113.54,20.45L113.50,20.41"/><path d="M114.01,20.61L114.01,20.61"/><path d="M114.19,20.48L114.30,20.55L114.30,20.57"/><path d="M114.30,20.55L114.29,20.45L114.29,20.35L114.29,20.27L114.29,20.19L114.30,20.11L114.31,20.06"/><path d="M114.69,19.64L114.72,19.63L114.69,19.95"/><path d="M114.69,19.58L114.72,19.63"/></g><g style="stroke:#000000;stroke-width:0.247"><path d="M114.01,20.61L113.95,20.62L113.84,20.63L113.77,20.63L113.70,20.63L113.60,20.52L113.50,20.42L113.49,20.40"/><path d="M113.23,19.99L113.22,19.97"/><path d="M114.01,20.61L114.19,20.59L114.30,20.57L114.64,20.42L114.69,19.95"/></g></g><g id="Actor_.40"><g style="stroke:#000000;stroke-width:0.049"/><g style="stroke:#000000;stroke-width:0.247"><path d="M114.69,19.46L114.70,19.49L114.74,19.59L114.76,19.69L114.77,19.80L114.77,19.89L114.75,19.99L114.73,20.07L114.69,20.14L114.67,20.17"/></g></g><g id="Actor_.41"><g style="stroke:#000000;stroke-width:0.049"><path d="M114.70,19.03L114.74,19.08L114.81,19.20L114.87,19.32L114.92,19.44L114.97,19.57L114.99,19.71L115.01,19.83L115.02,19.96L115.01,20.08L115.00,20.11L114.99,20.19L114.95,20.29L114.91,20.38L114.85,20.46L114.79,20.52L114.72,20.57"/></g><g style="stroke:#000000;stroke-width:0.247"><path d="M114.30,20.57L114.36,20.59L114.46,20.61L114.55,20.61L114.64,20.60L114.72,20.57L114.80,20.53L114.87,20.49L114.94,20.43L114.99,20.35L115.03,20.26L115.07,20.16L115.09,20.04L115.10,19.93L115.09,19.80L115.07,19.67L115.05,19.54L115.00,19.41L114.97,19.32L114.95,19.28L114.89,19.16L114.82,19.05L114.74,18.94L114.71,18.90"/></g></g><g id="Actor_.42"><g style="stroke:#000000;stroke-width:0.049"><path d="M113.52,7.94L113.51,7.88L113.56,7.85"/><path d="M113.51,7.88L113.19,7.73"/><path d="M113.63,7.24L113.92,7.37"/><path d="M113.31,7.54L113.31,7.54"/><path d="M114.22,7.90L114.22,7.91"/><path d="M114.22,7.98L114.22,7.97"/><path d="M114.21,8.04L114.20,8.05"/><path d="M114.18,8.12L114.18,8.13"/><path d="M114.15,8.20L114.15,8.19"/></g><g style="stroke:#000000;stroke-width:0.247"><path d="M113.31,7.54L113.29,7.58L113.26,7.62L113.21,7.70L113.19,7.73L113.17,7.82L113.16,7.91L113.15,7.98L113.15,8.06L113.15,8.13L113.15,8.18L113.16,8.23L113.17,8.34L113.18,8.38L113.45,8.50"/><path d="M113.31,7.54L113.36,7.48L113.41,7.42L113.47,7.37L113.55,7.30L113.63,7.24L113.77,7.28L113.96,7.35"/></g></g><g id="Actor_.43"><g style="stroke:#000000;stroke-width:0.049"><path d="M113.53,7.91L113.58,7.93"/><path d="M114.26,8.16L114.43,8.24L114.46,8.17L114.47,8.09L114.47,8.02L114.46,7.96L114.43,7.90L114.40,7.86L114.35,7.84L114.30,7.83L114.27,7.84"/><path d="M114.43,8.24L114.40,8.31L114.35,8.38L114.30,8.43L114.25,8.47L114.19,8.50L114.14,8.51L114.14,8.51"/><path d="M114.02,7.51L114.04,7.49L114.13,7.43L114.22,7.38L114.30,7.34L114.39,7.33L114.46,7.33"/></g><g style="stroke:#000000;stroke-width:0.247"><path d="M114.49,7.32L114.39,7.27L114.31,7.25L114.22,7.25L114.14,7.26L114.05,7.30L113.96,7.35L113.91,7.39L113.88,7.41L113.79,7.49L113.72,7.58L113.65,7.68L113.58,7.79L113.56,7.85L113.53,7.91L113.49,8.02L113.46,8.15L113.44,8.26L113.44,8.38L113.44,8.49L113.46,8.59L113.49,8.68L113.54,8.76L113.55,8.78"/><path d="M114.14,8.35L114.19,8.30L114.23,8.24L114.26,8.16L114.29,8.09L114.30,8.01L114.30,7.94L114.29,7.88L114.27,7.84L114.25,7.84"/></g></g><g id="Actor_.44"><g style="stroke:#000000;stroke-width:0.049"><path d="M114.14,8.35L114.19,8.30L114.23,8.24L114.26,8.16L114.29,8.09L114.30,8.01L114.30,7.94L114.29,7.88L114.27,7.84"/><path d="M114.26,8.16L114.18,8.12"/></g><g style="stroke:#000000;stroke-width:0.247"><path d="M114.22,7.90L114.22,7.90L114.22,7.97L114.21,8.05L114.18,8.12L114.15,8.20L114.15,8.20"/></g></g><g id="Actor_.45"><g style="stroke:#000000;stroke-width:0.049"><path d="M113.81,19.55L113.85,19.50L113.89,19.43L113.93,19.36L113.95,19.29L113.96,19.22L113.96,19.15L113.95,19.09L113.94,19.05"/><path d="M113.85,19.32L113.93,19.36"/></g><g style="stroke:#000000;stroke-width:0.247"><path d="M113.88,19.12L113.88,19.18L113.87,19.25L113.85,19.32L113.81,19.39L113.81,19.40"/></g></g><g id="Actor_.46"><g style="stroke:#000000;stroke-width:0.049"><path d="M113.20,19.13L113.25,19.15"/><path d="M113.80,19.71L113.81,19.71L113.86,19.70L113.91,19.67L113.97,19.63L114.02,19.58L114.06,19.51L114.09,19.44L113.93,19.36"/><path d="M114.09,19.44L114.12,19.37L114.13,19.30L114.13,19.23L114.12,19.17L114.09,19.12L114.06,19.08L114.02,19.06L113.97,19.05L113.94,19.05"/></g><g style="stroke:#000000;stroke-width:0.247"><path d="M113.23,19.98L113.21,19.96L113.17,19.89L113.14,19.80L113.12,19.70L113.11,19.59L113.12,19.48L113.13,19.37L113.16,19.25L113.20,19.13L113.25,19.03"/><path d="M113.81,19.55L113.85,19.50L113.89,19.43L113.93,19.36L113.95,19.29L113.96,19.22L113.96,19.15L113.95,19.09L113.94,19.05L113.92,19.06"/></g></g><g id="Actor_.47"><g style="stroke:#000000;stroke-width:0.049"><path d="M113.19,19.16L113.19,19.10L113.23,19.07"/><path d="M113.19,19.10L112.87,18.95"/><path d="M113.88,19.17L113.88,19.19"/><path d="M113.87,19.24L113.87,19.25"/><path d="M113.85,19.32L113.84,19.33"/><path d="M113.81,19.39L113.82,19.38"/></g><g style="stroke:#000000;stroke-width:0.247"><path d="M112.91,18.89L112.89,18.92L112.87,18.95L112.85,19.04L112.84,19.12L112.83,19.19L112.83,19.26L112.83,19.34L112.83,19.39L112.84,19.44L112.85,19.54L112.86,19.58L113.12,19.71"/></g></g><g id="Actor_.48"><g style="stroke:#000000;stroke-width:0.049"><path d="M115.90,21.71L115.86,21.68L115.84,21.63L115.82,21.58L115.82,21.51L114.01,20.61"/><path d="M115.82,21.51L116.12,12.76L114.98,12.21"/><path d="M117.34,11.94L116.37,12.34L115.00,11.68"/><path d="M116.11,21.38L116.08,21.37L116.07,21.34L116.14,21.37L116.11,21.38"/><path d="M116.14,21.37L117.02,20.99"/><path d="M116.07,21.34L116.09,20.53"/><path d="M116.17,18.82L116.32,14.66L116.35,14.64L116.36,14.61"/><path d="M116.15,18.83L116.29,14.67L116.32,14.66"/><path d="M116.29,14.67L116.30,14.54"/><path d="M116.12,12.76L116.14,12.61L116.22,12.47L116.26,12.42L116.32,12.37L116.37,12.34"/></g><g style="stroke:#000000;stroke-width:0.247"><path d="M113.38,20.36L113.40,20.43L113.43,20.47L113.46,20.50L113.69,20.62"/><path d="M115.02,10.82L117.34,11.94L117.33,12.25L116.44,12.62L116.38,12.68L116.36,12.76L116.30,14.54L116.35,14.57L116.36,14.59L116.36,14.61L116.22,18.78L116.20,18.80L116.15,18.83L116.09,20.53L117.02,20.99L117.01,21.30L116.05,21.72L116.00,21.73L115.95,21.73L113.71,20.63"/></g></g><g id="Actor_.49"><g style="stroke:#000000;stroke-width:0.049"><path d="M112.00,13.15L111.96,13.18"/><path d="M112.02,12.76L112.02,12.76"/><path d="M112.01,13.15L112.04,13.11"/><path d="M112.04,13.11L112.06,13.05"/><path d="M112.06,13.05L112.07,12.99"/><path d="M113.66,16.21L113.64,16.75"/></g><g style="stroke:#000000;stroke-width:0.247"><path d="M111.93,16.80L111.76,16.65L111.63,16.53L111.51,16.39L111.44,16.30L111.38,16.21L111.32,16.10L111.27,16.00L111.24,15.89L111.21,15.78L111.19,15.64"/><path d="M111.23,12.47L111.22,12.72"/><path d="M112.02,12.76L111.99,12.70"/><path d="M112.02,12.76L112.05,12.83"/><path d="M112.06,12.91L112.06,12.87"/><path d="M112.07,12.98L112.06,12.91"/><path d="M112.07,12.98L112.07,12.99"/><path d="M113.94,17.31L113.99,16.07"/></g></g><g id="Actor_.50"><g style="stroke:#000000;stroke-width:0.049"><path d="M111.10,13.54L111.14,13.51L111.17,13.46L111.20,13.41L111.20,13.34L111.20,13.27L111.19,13.19L111.16,13.12L111.12,13.05L111.08,12.99L111.03,12.94L110.97,12.90L110.92,12.88L110.86,12.87L110.82,12.89"/><path d="M111.20,13.41L112.06,13.05"/></g><g style="stroke:#000000;stroke-width:0.247"><path d="M111.96,13.18L111.10,13.54L111.05,13.55L111.00,13.55L110.94,13.53L110.89,13.49L110.84,13.44L110.79,13.38L110.76,13.31L110.73,13.23L110.72,13.16L110.71,13.09L110.72,13.02L110.74,12.96L110.78,12.92L110.82,12.89L111.65,12.54"/></g></g><g id="Actor_.51"><g style="stroke:#000000;stroke-width:0.049"><path d="M111.56,14.64L111.61,14.63L111.66,14.62L111.71,14.64L111.74,14.65L111.77,14.67L111.82,14.72L111.87,14.77L111.91,14.84L111.94,14.91L111.96,14.99L111.96,15.06L111.96,15.13L111.94,15.19L111.91,15.24L111.88,15.28"/><path d="M111.61,14.63L111.69,14.59"/><path d="M111.72,14.59L111.72,14.59"/><path d="M111.83,15.30L111.83,15.30"/><path d="M111.96,15.24L111.96,15.24"/><path d="M111.91,14.69L111.95,14.74L111.99,14.81L112.02,14.88L112.04,14.96L112.05,15.01"/><path d="M112.05,15.04L112.05,15.04"/><path d="M112.04,15.11L112.04,15.11"/><path d="M112.04,15.07L112.04,15.07"/><path d="M112.03,15.14L112.03,15.14"/><path d="M111.88,14.66L111.88,14.66"/><path d="M111.91,14.69L111.91,14.69"/><path d="M111.83,14.62L111.83,14.62"/><path d="M111.78,14.60L111.77,14.60"/></g><g style="stroke:#000000;stroke-width:0.247"><path d="M111.69,14.59L111.56,14.64L111.52,14.68L111.49,14.73L111.48,14.79L111.47,14.86L111.48,14.93L111.50,15.01L111.53,15.08L111.57,15.15L111.61,15.21L111.67,15.25L111.72,15.28L111.78,15.30L111.83,15.30"/><path d="M111.77,14.60L111.74,14.59L111.72,14.59"/><path d="M111.69,14.59L111.72,14.59"/><path d="M112.03,15.14L112.02,15.16L112.00,15.21L111.96,15.24L111.83,15.30"/><path d="M112.04,15.07L112.04,15.10L112.04,15.11"/><path d="M112.04,15.11L112.03,15.14"/><path d="M112.05,15.01L112.05,15.03L112.05,15.04"/><path d="M112.05,15.04L112.04,15.07"/><path d="M111.91,14.69L111.91,14.69"/><path d="M111.78,14.60L111.80,14.60L111.83,14.62"/><path d="M111.91,14.69L111.90,14.68L111.88,14.66"/><path d="M111.88,14.66L111.85,14.64L111.83,14.62"/><path d="M111.91,14.69L111.91,14.69"/></g></g><g id="Actor_.52"><g style="stroke:#000000;stroke-width:0.049"><path d="M108.65,16.31L111.91,17.05L112.07,16.95L112.02,16.94"/><path d="M113.11,18.98L112.29,16.67L112.26,16.48L112.19,16.33L112.11,16.23L112.03,16.16L110.73,15.36"/><path d="M111.65,14.61L111.67,14.60"/><path d="M111.74,14.59L111.70,14.59"/><path d="M111.25,13.49L111.08,13.56L111.20,13.63L111.26,13.65L111.55,13.63L111.76,13.69L111.86,13.74L112.05,13.87L112.24,14.06L112.37,14.23L112.47,14.31L112.52,14.33L112.62,14.35L112.66,14.34L112.74,14.28L112.63,14.24L112.53,14.16L112.49,14.10L112.32,14.17"/><path d="M111.37,13.65L111.53,13.58L111.62,13.56L111.82,13.58L111.92,13.62L112.12,13.73L112.22,13.80L112.31,13.89L112.49,14.10"/><path d="M111.08,13.56L111.07,13.55"/><path d="M111.13,12.48L111.02,12.50L110.94,12.57L110.90,12.67L110.90,12.85"/><path d="M110.90,12.79L111.06,12.72"/><path d="M111.41,13.58L111.53,13.58"/><path d="M110.90,12.74L111.06,12.67"/><path d="M111.91,17.05L111.98,17.06L112.06,17.05L112.12,17.02L112.18,16.98L112.23,16.92L112.26,16.86L112.29,16.67"/><path d="M112.08,16.95L112.21,16.95"/><path d="M111.93,15.25L111.95,15.24"/><path d="M112.00,15.20L112.01,15.19"/><path d="M111.97,15.23L111.99,15.21"/><path d="M111.99,14.81L111.98,14.78"/><path d="M112.01,14.85L112.02,14.88"/><path d="M112.03,14.93L112.04,14.96"/><path d="M112.04,15.00L112.05,15.03"/><path d="M112.04,15.07L112.04,15.10"/><path d="M112.03,15.14L112.02,15.16"/><path d="M111.74,14.59L111.76,14.59"/><path d="M111.89,12.64L112.15,12.81L112.41,13.04L112.66,13.32L112.73,13.43L112.79,13.59L112.81,13.74L112.80,14.13L112.78,14.20L112.74,14.28"/><path d="M112.61,9.01L112.68,9.00L112.76,9.00L112.86,9.04L113.02,8.97"/><path d="M113.22,20.17L113.38,20.26L113.40,20.35L113.46,20.40"/><path d="M113.38,20.26L113.42,19.01L113.25,19.02"/><path d="M113.09,18.95L113.12,17.99L113.27,18.06L113.45,18.07L113.42,19.01"/><path d="M113.57,17.81L113.66,17.77L113.70,17.73L113.74,17.67L113.78,17.54L113.78,17.39L113.77,17.31L113.72,17.14L113.64,16.99L113.53,16.86L113.41,16.77L113.17,16.64L113.12,16.60L113.06,16.49L113.05,16.40L113.07,16.31L113.10,16.28L113.17,16.27L113.17,16.25L113.37,9.28L112.86,9.04"/><path d="M113.26,17.91L113.10,17.98L113.04,17.91L113.02,17.86L113.00,17.77L113.17,17.70"/><path d="M113.00,17.77L113.03,17.69L113.06,17.67L113.09,17.67L113.17,17.69"/><path d="M113.33,18.07L113.42,18.03L113.45,18.06L113.43,18.07"/><path d="M113.45,18.07L113.45,18.07"/><path d="M113.45,18.06L114.75,17.51L114.59,17.43L113.62,17.84"/><path d="M113.42,18.03L113.33,17.96"/><path d="M113.10,17.98L113.12,17.99"/><path d="M113.61,17.80L113.77,17.73L113.87,17.66L113.92,17.54L113.95,17.40L113.78,17.47"/><path d="M113.11,17.12L113.12,17.06L113.17,16.95L113.21,16.92L113.26,16.91L113.31,16.91L113.28,16.99L113.28,17.05L113.11,17.12L113.13,17.27L113.20,17.42L113.30,17.52L113.41,17.58L113.46,17.58L113.51,17.57L113.56,17.51L113.46,17.46L113.36,17.35L113.30,17.20L113.28,17.05"/><path d="M113.41,16.77L113.57,16.70L113.35,16.59L113.19,16.66"/><path d="M113.32,16.91L113.42,16.96L113.47,17.01L113.56,17.14L113.60,17.29L113.61,17.37L113.60,17.43L113.57,17.51"/><path d="M113.95,17.40L113.92,17.19L113.84,16.99L113.80,16.92L113.70,16.80L113.57,16.70"/><path d="M113.05,16.40L113.21,16.33L113.22,16.28L113.17,16.27"/><path d="M113.48,9.19L113.70,9.29L113.50,16.28L113.35,16.30L113.22,16.28"/><path d="M113.35,16.59L113.29,16.53L113.24,16.47L113.21,16.33"/><path d="M113.50,16.28L113.56,16.25"/><path d="M113.54,9.21L113.54,9.09"/><path d="M113.37,9.28L113.52,9.32L113.63,9.31L113.70,9.29L113.74,7.98L113.58,7.90"/><path d="M113.83,19.91L113.88,19.97L113.93,19.99L114.03,19.98L114.14,19.90L114.23,19.78L114.26,19.71L114.29,19.56L114.30,19.14L114.14,19.06"/><path d="M114.30,19.14L114.30,19.08L114.25,18.97L114.22,18.94L114.17,18.92L114.11,18.92"/><path d="M114.29,19.56L114.12,19.48"/><path d="M114.72,18.46L114.75,17.51L114.78,17.49L114.81,17.43L114.72,17.47L114.57,17.35L114.51,17.29L114.47,17.20L114.47,17.15L114.50,17.07L114.52,17.05L114.55,17.04L114.64,17.07"/><path d="M114.57,17.35L114.73,17.29"/><path d="M114.47,17.15L114.63,17.08"/><path d="M114.79,16.29L114.73,16.29L114.68,16.30L114.64,16.33L114.61,16.38L114.58,16.50L114.60,16.65L114.68,16.82L114.76,16.90L114.82,16.94L114.98,16.87"/><path d="M115.04,16.08L114.88,16.15L114.62,16.01L114.56,15.93L114.53,15.85L114.69,15.78"/><path d="M114.66,16.04L114.82,15.97"/><path d="M114.53,15.85L113.73,16.18"/><path d="M113.74,7.98L113.75,7.92L113.80,7.81L113.87,7.72L113.92,7.70L113.75,7.62"/><path d="M114.48,7.85L114.64,7.93L114.64,7.86L114.59,7.75L114.56,7.72L114.51,7.70L114.44,7.70"/><path d="M114.46,8.28L114.63,8.36L114.62,8.44L114.57,8.58L114.53,8.65L114.43,8.75L114.32,8.80L114.27,8.80L114.22,8.78L114.17,8.72L114.26,8.68L114.36,8.57L114.43,8.43L114.46,8.35"/><path d="M114.63,8.36L114.64,7.93"/><path d="M114.17,8.72L114.14,8.63L114.14,8.38"/><path d="M113.92,7.70L114.91,7.30L114.99,7.29"/><path d="M114.82,16.94L114.93,16.96L114.97,16.94L115.03,16.89"/><path d="M114.88,16.15L114.95,16.20L115.07,16.32L115.17,16.48L115.23,16.67L115.25,16.85L115.41,16.78"/><path d="M115.21,17.12L115.21,17.12"/><path d="M115.25,16.85L115.24,16.93L115.19,17.07L115.15,17.12L115.05,17.19"/><path d="M114.81,17.43L114.82,17.40"/><path d="M114.75,17.51L114.72,17.47"/><path d="M114.75,17.51L114.75,17.51"/><path d="M114.81,15.73L115.02,8.76L115.08,8.72L115.09,8.68"/><path d="M115.02,8.76L115.03,8.61"/><path d="M114.91,7.30L114.74,7.22"/></g><g style="stroke:#000000;stroke-width:0.247"><path d="M111.92,16.88L111.00,16.36L110.90,16.28L110.81,16.17L110.71,16.00L110.66,15.84L110.66,15.46L110.68,15.41L110.73,15.36L109.89,14.84L109.93,13.02L109.95,12.88L112.43,9.14L112.48,9.08L112.54,9.03L112.77,8.94L112.84,8.93L112.92,8.94L113.02,8.97L113.48,9.19L113.54,9.09L113.58,7.90L113.60,7.78L113.67,7.68L113.70,7.65L113.80,7.60L114.74,7.22L114.82,7.21L115.02,7.31L115.06,7.39L115.03,8.61L115.08,8.65L115.09,8.68L114.87,15.66L114.85,15.70L114.81,15.73L114.69,15.78L114.72,15.86L114.78,15.94L115.11,16.13L115.23,16.25L115.33,16.41L115.37,16.50L115.41,16.68L115.41,16.78L115.39,16.94L115.32,17.05L115.27,17.09L115.05,17.19L114.92,17.19L114.64,17.07L114.64,17.13L114.67,17.22L114.79,17.33L114.82,17.40L114.79,18.40L114.77,18.43L114.72,18.46L114.68,19.70L114.68,19.76L114.63,19.87L114.56,19.95L113.54,20.39L113.46,20.40L113.26,20.30L113.22,20.23L113.22,20.17L113.25,19.02L113.11,18.98L108.94,17.22L108.88,17.18L108.79,17.08L108.68,16.92L108.65,16.85L108.63,16.70L108.65,16.31L108.79,16.20L112.02,16.94"/><path d="M111.24,13.48L111.30,13.53L111.41,13.58"/><path d="M111.89,12.64L111.73,12.57L111.46,12.49L111.32,12.47L111.13,12.48L111.08,12.55L111.07,12.61L111.07,12.78"/><path d="M111.95,14.74L111.91,14.69"/><path d="M111.96,14.75L111.98,14.78"/><path d="M112.01,14.85L111.99,14.81"/><path d="M112.03,14.93L112.02,14.88"/><path d="M112.04,14.96L112.04,15.00"/><path d="M112.04,15.07L112.05,15.03"/><path d="M112.04,15.10L112.03,15.14"/><path d="M112.02,15.16L112.01,15.19"/><path d="M111.76,14.59L111.79,14.60"/><path d="M111.85,14.64L111.80,14.61"/><path d="M111.90,14.68L111.86,14.64"/><path d="M113.18,17.80L113.17,17.69L113.45,17.81L113.57,17.81L113.62,17.84L113.33,17.96L113.23,17.88L113.18,17.80"/><path d="M113.56,16.25L113.73,16.18"/><path d="M113.92,19.87L113.83,19.91L113.80,19.84L113.82,19.28L113.87,19.13L113.91,19.07L114.01,18.97L114.11,18.92L114.13,19.00L114.14,19.06L114.12,19.55L114.06,19.70L113.98,19.82L113.92,19.87"/><path d="M114.46,8.35L114.48,7.85L114.47,7.79L114.44,7.70L114.35,7.74L114.30,7.79L114.21,7.91L114.16,8.06L114.14,8.38"/><path d="M115.07,16.74L115.05,16.60L114.99,16.45L114.89,16.34L114.79,16.29L114.75,16.37L114.75,16.51L114.79,16.66L114.83,16.73L114.93,16.83L115.03,16.89L115.07,16.81L115.07,16.74"/></g></g><g id="Actor_.53"><g style="stroke:#000000;stroke-width:0.049"><path d="M111.97,18.50L111.98,18.65L111.99,18.73L112.04,18.88L112.11,19.00L112.20,19.09L112.25,19.12"/><path d="M112.24,16.42L112.18,16.53L112.10,16.71L112.04,16.94"/><path d="M113.35,17.77L113.35,17.95"/><path d="M114.47,20.61L114.91,20.83L115.01,20.86L115.05,20.86L115.14,20.84L115.21,20.79L115.26,20.71L115.29,20.61L115.52,13.72L115.56,13.73L115.60,13.73L115.38,20.55L115.33,20.56L115.29,20.55"/><path d="M114.91,20.83L114.91,20.85L114.93,20.87"/><path d="M115.18,20.89L115.26,20.84L115.32,20.77L115.36,20.67L115.38,20.55L115.62,20.45"/><path d="M115.06,17.18L115.03,18.31L115.06,18.32L115.10,18.32L115.09,18.47L115.04,18.60L115.02,18.66L114.94,18.75L114.85,18.81L114.80,18.83L114.71,18.85"/><path d="M114.71,18.90L114.81,18.90L114.87,18.88L114.92,18.86L115.02,18.79L115.06,18.74L115.12,18.63L115.16,18.49L115.18,18.33L115.15,18.32L115.10,18.32L115.14,17.15"/><path d="M114.71,18.79L114.81,18.75L114.86,18.72L114.93,18.63L114.99,18.52L115.02,18.38L115.03,18.31"/><path d="M115.18,18.33L115.22,17.11"/><path d="M114.79,15.73L114.75,15.80L114.71,15.83"/><path d="M115.10,16.12L115.11,15.76L115.15,15.77L115.19,15.77L115.17,16.18"/><path d="M114.90,14.94L115.02,15.12L115.09,15.27L115.12,15.36L115.17,15.57L115.19,15.77L115.23,15.77L115.27,15.78L115.26,15.61L115.25,15.53L115.20,15.35L115.17,15.26L115.09,15.10L115.05,15.02L115.00,14.94L114.90,14.83"/><path d="M115.11,15.76L115.10,15.60L115.07,15.43L115.01,15.27L114.97,15.19L114.89,15.06"/><path d="M115.27,15.78L115.25,16.27"/><path d="M115.52,13.72L115.51,13.59L115.48,13.46L115.45,13.40L115.42,13.34L115.35,13.22L115.26,13.13L115.17,13.07L115.18,13.03L115.21,13.00L115.26,13.03L115.35,13.11L115.44,13.21L115.48,13.27L115.51,13.33L115.56,13.46L115.59,13.59L115.60,13.73L115.85,13.62"/><path d="M115.17,13.07L114.96,12.97"/><path d="M115.45,12.90L115.21,13.00L114.96,12.88"/></g><g style="stroke:#000000;stroke-width:0.247"><path d="M112.83,19.14L112.68,19.19L112.51,19.20L112.40,19.18L112.35,19.16L112.25,19.12L112.16,19.07L112.08,18.99L112.04,18.95L111.98,18.86L111.95,18.80L111.91,18.69L111.89,18.62L111.86,18.45"/><path d="M111.91,16.91L111.95,16.71L112.01,16.55L112.09,16.39L112.16,16.28"/><path d="M113.34,17.77L113.33,17.96"/><path d="M114.38,20.59L114.98,20.89L115.03,20.90L115.13,20.90L115.18,20.89L115.43,20.78L115.50,20.74L115.53,20.70L115.58,20.62L115.61,20.51L115.62,20.45L115.85,13.56L115.83,13.42L115.78,13.29L115.75,13.23L115.68,13.11L115.60,13.00L115.55,12.96L115.45,12.90L114.97,12.66"/></g></g><g id="Actor_5.0"><g style="stroke:#000000;stroke-width:0.049"><path d="M109.56,175.02L110.03,175.13L111.41,173.17L112.48,170.76L112.99,168.79L112.47,168.72L112.16,170.06L111.36,172.21L110.43,173.87L109.44,175.11"/><path d="M109.41,175.01L109.06,174.78"/><path d="M112.16,174.00L109.94,175.19"/><path d="M171.95,54.63L163.69,65.43L156.85,73.61L142.30,89.69L116.89,117.19L117.75,96.64L119.47,72.74L180.54,41.24L176.17,48.49L171.95,54.63L172.51,55.01L171.87,55.93L162.91,67.46L153.89,77.92L154.23,78.36L117.64,118.28L117.24,117.87L117.11,118.07L117.06,118.27L117.64,118.28L116.16,141.00L114.41,158.29L113.04,168.46L112.72,168.50L112.52,168.42L114.26,154.92L115.60,140.98L117.06,118.27L116.76,118.07L116.82,117.88L116.90,117.76L117.24,117.87L153.85,77.96L153.61,77.81L116.95,117.68L116.89,117.19L116.31,117.18L116.40,117.63L116.76,118.07"/><path d="M112.52,168.42L112.49,168.61L112.65,168.69L113.01,168.65L113.04,168.46L129.31,158.38L146.44,147.43L162.33,136.93L179.38,125.23L176.32,137.38"/><path d="M112.47,168.72L112.00,168.28"/><path d="M128.27,165.25L129.05,163.97L130.06,161.66L131.33,157.41L112.99,168.79L113.01,168.65"/><path d="M116.85,117.46L116.40,117.63L115.73,117.22"/><path d="M116.31,117.18L117.11,97.71L116.53,97.38"/><path d="M119.47,72.74L118.84,72.71L117.48,91.10L117.11,97.71L117.71,97.72"/><path d="M118.25,72.40L118.84,72.71"/><path d="M119.38,72.77L119.44,72.74"/><path d="M119.44,72.72L119.15,72.56L119.47,72.72"/><path d="M176.37,137.27L152.17,151.71L135.47,161.22L120.04,169.73"/><path d="M131.39,157.07L131.33,157.41L148.72,146.24L166.58,134.35L179.42,125.44"/><path d="M153.36,77.55L153.61,77.81L159.77,70.76L169.17,58.98L173.31,53.35L176.85,48.08L180.97,41.23L180.57,41.23"/><path d="M154.23,78.36L160.75,70.91L169.13,60.48L175.57,51.68L179.61,45.47L184.76,36.48L188.99,27.94L193.32,17.66L196.52,8.52L186.27,82.16L182.26,108.21L179.42,125.20L179.49,125.10"/><path d="M167.74,142.59L166.69,143.22"/><path d="M170.55,140.90L172.91,139.47"/><path d="M196.73,7.53L196.52,8.52L196.56,6.75L194.43,13.10L191.98,19.63L189.87,24.70L186.34,32.26L182.91,38.79L180.06,43.71L175.74,50.48L172.60,54.95L172.96,55.37"/><path d="M176.18,137.47L176.25,137.42"/><path d="M176.39,137.25L176.46,137.17"/><path d="M180.70,41.11L180.75,41.13"/><path d="M180.79,41.15L180.63,41.20"/><path d="M180.69,41.17L180.39,41.03"/><path d="M182.59,94.59L182.18,94.82L181.89,94.72L182.41,94.49L182.59,94.59L183.38,93.29L183.42,92.74L183.18,92.45L183.20,93.19L183.38,93.29"/><path d="M182.13,94.33L182.32,94.44L181.89,94.72"/><path d="M183.15,92.44L183.10,93.14L182.32,94.44L183.18,93.22L182.92,93.03"/><path d="M181.83,94.67L181.79,94.54"/><path d="M183.09,92.44L182.95,92.47"/><path d="M188.17,27.57L188.99,27.94"/><path d="M195.66,8.21L195.92,7.24L195.87,6.81L195.64,8.28"/><path d="M195.77,7.26L195.80,7.18"/><path d="M195.99,6.33L196.52,6.71L196.69,6.61"/><path d="M195.87,6.81L195.84,6.79"/><path d="M196.76,7.01L196.76,7.05"/><path d="M196.52,6.71L196.66,6.60"/></g><g style="stroke:#000000;stroke-width:0.247"><path d="M166.63,143.25L176.41,137.27L179.42,125.44L184.45,94.65L188.77,65.25L196.73,7.53L196.75,6.73L196.11,6.20L195.84,6.79L195.64,8.28L193.62,14.26L190.50,22.26L185.65,32.81L181.10,41.11L180.26,41.09L148.09,57.87L119.16,72.53L118.60,72.28L118.25,72.40L116.61,95.66L115.72,117.53L116.48,119.10L114.85,143.59L113.49,157.01L111.92,168.79L111.48,170.52L110.89,172.01L110.02,173.53L109.06,174.78L109.62,175.21L109.94,175.19L128.27,165.25L145.74,155.47L166.69,143.22"/><path d="M181.77,94.48L182.13,94.33L182.92,93.03L182.95,92.48L182.61,92.67L181.82,93.98L181.77,94.48"/></g></g><g id="Actor_14.0"><g style="stroke:#000000;stroke-width:0.049"><path d="M89.70,191.51L91.87,184.88L91.89,184.75L91.69,184.59"/><path d="M90.86,190.67L92.96,184.27L92.97,184.09L91.87,184.88L91.68,184.69"/><path d="M90.77,191.24L92.96,184.61L94.04,184.13L95.02,183.39"/><path d="M90.91,190.73L92.93,184.58"/><path d="M93.32,174.37L92.97,183.97L91.89,184.75L92.23,174.72L93.33,173.95L92.99,184.42L94.08,183.90L95.05,183.17"/><path d="M92.03,174.57L92.23,174.72L92.76,155.30L93.09,138.31L92.88,138.17"/><path d="M92.81,190.02L92.81,190.03"/><path d="M92.96,184.27L92.93,184.59L92.96,184.40"/><path d="M92.97,183.97L92.97,184.09"/><path d="M93.06,110.12L93.28,110.26L93.15,133.79L94.32,133.06L94.25,137.57L93.12,138.29L93.15,133.79L92.94,133.65"/><path d="M93.33,173.95L93.88,154.94L94.35,133.48L95.53,132.99L96.59,132.29"/><path d="M95.45,173.15L94.45,173.88L93.35,174.39L93.87,156.81L94.28,138.00L95.45,137.50L96.50,136.81L96.08,153.77L95.57,169.75"/><path d="M93.28,110.26L94.60,109.49L94.60,109.87L94.49,109.93L94.45,123.91L94.31,133.47"/><path d="M94.25,137.57L94.24,137.98"/><path d="M94.49,109.94L94.32,133.06"/><path d="M94.52,109.95L95.75,109.48L96.84,108.80L96.70,124.67L96.51,136.80"/><path d="M94.60,109.49L94.92,109.69L94.60,109.87"/><path d="M96.81,108.78L96.81,108.79"/><path d="M96.84,108.80L96.85,108.79"/></g><g style="stroke:#000000;stroke-width:0.247"><path d="M89.92,191.36L89.70,191.51L89.52,191.32L91.70,184.49L92.33,164.17L92.75,145.84L92.99,128.59L93.06,110.12L94.43,109.33L94.72,109.32L95.19,109.51L96.81,108.78L96.68,126.59L96.38,142.56L95.81,162.76L95.05,183.23L92.80,190.03L92.14,190.57L91.37,191.01L90.77,191.24L90.91,190.73L90.86,190.67L89.92,191.36"/></g></g><g id="Actor_4.0"><g style="stroke:#000000;stroke-width:0.049"><path d="M198.26,114.75L201.59,108.22L203.49,98.95L204.26,98.40L202.36,107.67L201.57,108.28L201.40,108.14"/><path d="M199.02,114.19L202.33,107.73L202.41,107.79L202.39,107.94L202.71,107.84L203.31,107.54L203.81,107.13"/><path d="M199.04,114.59L202.35,108.13L203.17,107.80L203.74,107.34"/><path d="M199.15,114.30L202.40,108.00L204.30,98.75L204.31,98.13L207.42,82.44L210.61,65.59L210.67,65.61L210.74,65.31L211.37,61.88L212.21,61.58L212.87,61.13"/><path d="M200.41,113.80L200.41,113.80"/><path d="M202.42,107.80L202.40,107.62L201.61,108.16L201.43,108.05"/><path d="M202.39,107.94L202.33,108.11"/><path d="M202.45,107.65L204.27,98.73"/><path d="M209.62,66.00L209.81,66.10L206.96,81.32L203.49,98.95L203.30,98.84"/><path d="M204.33,98.45L207.44,82.75L210.64,65.90L207.80,81.06L204.30,98.75L205.14,98.38L205.71,97.93"/><path d="M208.91,81.99L212.13,65.14"/><path d="M210.64,65.90L210.69,65.62"/><path d="M209.88,65.75L209.81,66.10L210.61,65.59L211.35,61.57L210.54,62.08L209.88,65.75"/><path d="M212.13,65.15L211.47,65.60L210.66,65.91L212.60,55.14L214.98,41.21L215.88,40.87L216.49,40.48L212.87,61.14"/><path d="M213.90,41.29L214.10,41.39L212.33,51.90L210.54,62.08L210.35,61.99"/><path d="M211.37,61.88L211.47,61.36"/><path d="M214.10,41.39L214.92,40.90L211.35,61.57L211.41,61.60L211.38,61.82"/><path d="M211.42,61.61L214.98,41.20"/><path d="M212.05,58.09L212.03,58.20"/><path d="M214.92,40.90L215.19,41.02L214.95,41.19"/><path d="M216.46,40.47L216.45,40.48"/></g><g style="stroke:#000000;stroke-width:0.247"><path d="M198.09,114.60L201.43,108.05L205.18,89.37L208.35,72.84L211.14,57.50L213.90,41.29L214.77,40.79L215.39,40.92L216.46,40.47L213.78,56.10L211.16,70.28L207.62,88.48L203.80,107.19L200.41,113.81L199.91,114.22L199.25,114.53L199.04,114.59L199.15,114.30L199.02,114.19L198.26,114.75L198.09,114.60"/></g></g><g><g><path style="stroke:#000000;stroke-width:0.348;stroke-dasharray:3.7 3.7" d="M110.43,84.42L174.21,121.90"/></g></g><g><g><path style="stroke:#000000;stroke-width:0.348;stroke-dasharray:3.7 3.7" d="M113.30,13.80L184.78,48.42"/></g></g><g><g><path style="stroke:#000000;stroke-width:0.348;stroke-dasharray:3.7 3.7" d="M181.54,92.20L212.51,109.02"/></g></g><g><g/></g><g><g><path style="stroke:#000000;stroke-width:0.348;stroke-dasharray:3.7 3.7" d="M111.53,162.72L81.51,183.23"/></g></g><g><g><path style="stroke:#000000;stroke-width:0.348;stroke-dasharray:3.7 3.7" d="M113.62,105.50L80.59,124.73"/></g></g><g><g><path style="stroke:#000000;stroke-width:0.348;stroke-dasharray:3.7 3.7" d="M83.42,119.91L76.13,124.11"/></g></g><g id="PMI4.0"><g><path style="stroke:#000000;stroke-width:0.350" d="M224.09,76.92L211.61,76.89"/></g><g><path style="fill:#000000" d="M211.61,76.03L211.60,77.76L209.87,76.89z"/></g><g><path style="fill:#ffffff" d="M224.08,80.04L247.28,80.04L247.28,73.84L224.08,73.84z"/><path style="stroke:#000000;stroke-width:0.350;stroke-opacity:0.98" d="M224.08,80.04L247.28,80.04L247.28,73.84L224.08,73.84z"/><text xml:space="preserve" fill="#000000" stroke-width="0" x="224.86" y="78.30" font-size="3.78" opacity="1.00" font-family="MS Shell Dlg">811238D100</text></g></g><g id="PMI9.0"><g><path style="stroke:#000000;stroke-width:0.350" d="M95.00,85.25L104.02,85.52"/></g><g><path style="fill:#000000" d="M104.00,86.39L104.05,84.65L105.76,85.57z"/></g><g><path style="fill:#ffffff" d="M71.83,88.01L95.01,88.01L95.01,81.80L71.83,81.80z"/><path style="stroke:#000000;stroke-width:0.350;stroke-opacity:0.98" d="M71.83,88.01L95.01,88.01L95.01,81.80L71.83,81.80z"/><text xml:space="preserve" fill="#000000" stroke-width="0" x="72.61" y="86.26" font-size="3.78" opacity="1.00" font-family="MS Shell Dlg">761908D100</text></g></g><g id="PMI13.0"><g><path style="stroke:#000000;stroke-width:0.350" d="M210.29,26.62L200.08,52.86"/></g><g><path style="fill:#000000" d="M199.26,52.56L200.88,53.19L199.44,54.49z"/></g><g><path style="fill:#ffffff" d="M195.97,26.64L227.00,26.64L227.00,20.43L195.97,20.43z"/><path style="stroke:#000000;stroke-width:0.350;stroke-opacity:0.98" d="M195.97,26.64L227.00,26.64L227.00,20.43L195.97,20.43z"/><text xml:space="preserve" fill="#000000" stroke-width="0" x="196.75" y="24.89" font-size="3.79" opacity="1.00" font-family="MS Shell Dlg">321301-09135SB</text></g></g><g id="PMI5.0"><g><path style="stroke:#000000;stroke-width:0.350" d="M155.64,165.20L156.38,150.31"/></g><g><path style="fill:#000000" d="M157.24,150.34L155.51,150.26L156.46,148.57z"/></g><g><path style="fill:#ffffff" d="M139.76,171.39L171.20,171.39L171.20,165.19L139.76,165.19z"/><path style="stroke:#000000;stroke-width:0.350;stroke-opacity:0.98" d="M139.76,171.39L171.20,171.39L171.20,165.19L139.76,165.19z"/><text xml:space="preserve" fill="#000000" stroke-width="0" x="140.54" y="169.65" font-size="3.79" opacity="1.00" font-family="MS Shell Dlg">324201-13135NN</text></g></g><g id="PMI8.0"><g><path style="stroke:#000000;stroke-width:0.350" d="M224.09,110.31L214.56,110.02"/></g><g><path style="fill:#000000" d="M214.58,109.15L214.52,110.88L212.81,109.96z"/></g><g><path style="fill:#ffffff" d="M224.08,113.77L247.28,113.77L247.28,107.57L224.08,107.57z"/><path style="stroke:#000000;stroke-width:0.350;stroke-opacity:0.98" d="M224.08,113.77L247.28,113.77L247.28,107.57L224.08,107.57z"/><text xml:space="preserve" fill="#000000" stroke-width="0" x="224.86" y="112.03" font-size="3.78" opacity="1.00" font-family="MS Shell Dlg">819018D000</text></g></g><g id="PMI11.0"><g><path style="stroke:#000000;stroke-width:0.350" d="M58.80,183.47L69.04,183.57"/></g><g><path style="fill:#000000" d="M69.05,184.42L69.07,182.68L70.80,183.57z"/></g><g><path style="fill:#ffffff" d="M27.80,186.38L58.83,186.38L58.83,180.18L27.80,180.18z"/><path style="stroke:#000000;stroke-width:0.350;stroke-opacity:0.98" d="M27.80,186.38L58.83,186.38L58.83,180.18L27.80,180.18z"/><text xml:space="preserve" fill="#000000" stroke-width="0" x="28.58" y="184.64" font-size="3.79" opacity="1.00" font-family="MS Shell Dlg">334222-05303PY</text></g></g><g id="PMI14.0"><g><path style="stroke:#000000;stroke-width:0.350" d="M80.02,154.02L92.07,154.28"/></g><g><path style="fill:#000000" d="M92.07,155.13L92.11,153.40L93.82,154.30z"/></g><g><path style="fill:#ffffff" d="M56.84,156.87L80.04,156.87L80.04,150.66L56.84,150.66z"/><path style="stroke:#000000;stroke-width:0.350;stroke-opacity:0.98" d="M56.84,156.87L80.04,156.87L80.04,150.66L56.84,150.66z"/><text xml:space="preserve" fill="#000000" stroke-width="0" x="57.62" y="155.12" font-size="3.78" opacity="1.00" font-family="MS Shell Dlg">865378D200</text></g></g><g id="PMI10.0"><g><path style="stroke:#000000;stroke-width:0.350" d="M60.20,123.68L72.49,123.96"/></g><g><path style="fill:#000000" d="M72.49,124.82L72.53,123.09L74.25,123.99z"/></g><g><path style="fill:#ffffff" d="M29.21,126.42L60.23,126.42L60.23,120.21L29.21,120.21z"/><path style="stroke:#000000;stroke-width:0.350;stroke-opacity:0.98" d="M29.21,126.42L60.23,126.42L60.23,120.21L29.21,120.21z"/><text xml:space="preserve" fill="#000000" stroke-width="0" x="29.98" y="124.67" font-size="3.79" opacity="1.00" font-family="MS Shell Dlg">334223-05303PY</text></g></g><g/><g id="paperID" visibility="hidden" opacity="0.00" transform="scale(0.000100)"><path style="stroke:#000000;stroke-width:0.500;fill:#e6e6e6;fill-rule:evenodd" d="M-2000.00,-2000.00L2297.00,-2000.00L2297.00,2210.00L-2000.00,2210.00zM0.00,0.00L297.00,0.00L297.00,210.00L0.00,210.00z"/><path style="fill:#000000;fill-opacity:0.118" d="M3.00,210.00L297.00,210.00L297.00,3.00L300.00,3.00L300.00,213.00L3.00,213.00z"/></g><g id="hotspot.0" onmouseover="ShowHotSpot(evt,'0')" onmouseout="HideHotSpot(evt,'0')" onmousemove="ShowToolTip(evt,'0',&quot;3dp471940 (I_VDM8X20,1.5)&quot;)" opacity="0"><path style="fill:#00ff00;fill-rule:evenodd" d="M79.06,117.22L79.36,120.77L83.25,119.05L83.74,119.54L83.27,126.84L79.48,129.13L78.86,132.78L77.65,132.74L77.09,131.77L76.55,131.72L72.79,134.18L71.09,134.12L68.68,132.21L68.52,131.36L73.39,128.67L73.39,124.30L72.49,123.79L60.57,123.81L60.30,126.35L29.18,126.34L29.18,120.06L60.29,120.06L60.57,123.07L73.42,123.00L73.39,119.57L71.50,119.68L68.66,117.70L68.52,116.84L72.75,114.44L75.30,114.43z"/></g><g id="hotspot.1" onmouseover="ShowHotSpot(evt,'1')" onmouseout="HideHotSpot(evt,'1')" onmousemove="ShowToolTip(evt,'1',&quot;3dp471938 (I_BL-M8X20.3)&quot;)" opacity="0"><path style="fill:#00ff00;fill-rule:evenodd" d="M75.27,175.82L77.64,178.14L78.10,181.20L78.88,180.06L80.72,179.52L81.42,179.06L81.85,179.49L81.66,185.19L78.08,187.70L77.59,191.03L76.54,191.02L76.22,189.41L72.25,192.22L71.09,192.24L68.67,190.32L68.67,189.59L72.48,186.79L72.95,180.03L72.27,180.47L71.57,180.53L68.66,178.11L68.58,177.71L72.27,175.33L74.35,175.33zM70.64,183.29L69.51,183.85L61.57,183.44L61.37,183.17L68.69,182.94L69.21,182.38zM59.16,182.57L61.37,183.17L59.16,183.30L58.89,186.31L27.78,186.31L27.78,180.02L58.89,180.02z"/></g><g id="hotspot.2" onmouseover="ShowHotSpot(evt,'2')" onmouseout="HideHotSpot(evt,'2')" onmousemove="ShowToolTip(evt,'2',&quot;3dp475504&quot;)" opacity="0"><path style="fill:#00ff00;fill-rule:evenodd" d="M195.95,26.56L195.95,20.28L227.06,20.28L227.06,26.56L210.48,26.81L209.87,27.15L209.69,26.86zM209.23,29.86L209.10,28.82L209.39,28.58zM205.95,38.29L205.82,37.26L206.12,37.01zM202.67,46.72L202.54,45.69L202.84,45.44zM201.79,50.84L201.81,51.31L195.64,61.19L185.35,75.26L180.05,81.67L174.89,87.76L167.87,95.72L152.88,112.59L137.58,129.66L137.57,125.39L139.76,97.60L141.32,84.17L186.81,58.92L200.31,51.32L200.78,50.35z"/></g><g id="hotspot.3" onmouseover="ShowHotSpot(evt,'3')" onmouseout="HideHotSpot(evt,'3')" onmousemove="ShowToolTip(evt,'3',&quot;3dp475789&quot;)" opacity="0"><path style="fill:#00ff00;fill-rule:evenodd" d="M80.24,153.52L91.70,153.81L80.24,154.26L79.97,156.80L56.82,156.79L56.82,150.51L79.97,150.51zM93.51,109.43L96.81,108.80L96.34,146.47L94.95,183.49L92.57,190.01L89.73,190.96L89.73,190.06L91.67,184.42L92.59,154.75z"/></g><g id="hotspot.4" onmouseover="ShowHotSpot(evt,'4')" onmouseout="HideHotSpot(evt,'4')" onmousemove="ShowToolTip(evt,'4',&quot;copy of 3dp475789&quot;)" opacity="0"><path style="fill:#00ff00;fill-rule:evenodd" d="M216.28,40.45L216.30,41.49L210.01,76.22L223.79,76.22L224.06,73.68L247.21,73.69L247.21,79.97L224.06,79.97L223.78,76.96L210.05,76.97L209.66,77.53L204.10,105.72L201.12,112.11L199.74,114.08L198.91,114.01L198.88,112.74L201.29,108.07L208.77,70.58L213.93,41.05L214.89,40.49z"/></g><g id="hotspot.5" onmouseover="ShowHotSpot(evt,'5')" onmouseout="HideHotSpot(evt,'5')" onmousemove="ShowToolTip(evt,'5',&quot;3dp628955&quot;)" opacity="0"><path style="fill:#00ff00;fill-rule:evenodd" d="M116.02,111.80L117.27,84.01L118.20,72.29L121.01,71.36L181.64,40.16L188.48,26.39L193.30,14.81L195.65,7.81L196.03,6.18L196.55,6.16L196.59,8.74L187.22,76.20L179.73,123.51L176.29,136.94L157.67,148.30L156.73,149.71L156.27,157.67L156.00,157.87L155.87,149.98L155.44,149.55L142.77,156.83L110.73,174.46L109.27,174.43L111.82,169.44L114.14,151.15L116.54,118.69L116.06,118.17zM156.13,164.76L171.32,165.03L171.32,171.32L139.74,171.32L139.74,165.03L155.39,164.76L155.73,158.07L156.00,157.87zM182.68,93.17L182.09,94.05L182.09,93.03L182.60,92.91z"/></g><g id="hotspot.6" onmouseover="ShowHotSpot(evt,'6')" onmouseout="HideHotSpot(evt,'6')" onmousemove="ShowToolTip(evt,'6',&quot;3dp471955 (I_O KHOA LPA2.2)&quot;)" opacity="0"><path style="fill:#00ff00;fill-rule:evenodd" d="M212.53,108.40L213.48,108.42L215.22,109.42L223.79,109.48L224.06,107.41L247.21,107.41L247.21,113.70L224.06,113.70L223.78,110.23L215.19,110.26L214.24,111.67L212.54,111.65L211.08,110.28L209.54,108.32L210.66,107.12L211.63,105.22L212.47,105.00z"/></g><g id="hotspot.7" onmouseover="ShowHotSpot(evt,'7')" onmouseout="HideHotSpot(evt,'7')" onmousemove="ShowToolTip(evt,'7',&quot;3dp471934 (I_vd m6x20x2.24)&quot;)" opacity="0"><path style="fill:#00ff00;fill-rule:evenodd" d="M115.40,10.62L117.01,11.45L116.39,12.37L116.41,20.45L116.92,20.95L115.54,21.28L113.25,19.79L111.33,17.96L108.94,17.00L108.81,16.07L110.89,16.11L110.39,15.18L110.36,11.98L112.31,9.25L113.19,8.72L113.52,7.17L115.09,7.16zM110.37,79.48L111.80,79.28L112.12,81.36L114.17,82.54L113.59,83.09L113.06,87.29L113.29,89.64L113.72,90.10L111.77,90.13L109.96,89.13L108.06,87.75L106.45,86.90L106.45,86.36L108.49,86.58L108.00,85.49L107.45,85.06L107.62,83.25L109.84,80.74L110.36,80.23zM105.28,84.98L105.28,85.53L104.36,86.06L103.82,85.48L95.23,85.39L94.96,87.93L71.81,87.93L71.81,81.65L94.96,81.65L95.23,84.65L104.38,84.48z"/></g></g></svg>
