<?xml version="1.0" encoding="UTF-8" standalone="no"?>
<svg xmlns="http://www.w3.org/2000/svg" xmlns:xlink="http://www.w3.org/1999/xlink" width="297.000mm" height="210.000mm" viewBox="0.000000 0.000000 297.000000 210.000000" stroke-linejoin="round" stroke-linecap="round" fill="none" fill-rule="evenodd"><desc>Composer Export</desc><script type="text/ecmascript"><![CDATA[
if(typeof(top) != "undefined")
{
	top.ShowPaper = ShowPaper;
}
function ShowHotSpot(evt,hotspotid)
{
	var svgDocument = evt.target.ownerDocument;
	var strId = "hotspot."+hotspotid;
	var hotspot = svgDocument.getElementById(strId);
	if(hotspot)
		hotspot.setAttribute("opacity",".5");
}
function HideHotSpot(evt,hotspotid)
{
	var svgDocument = evt.target.ownerDocument;
	var strId = "hotspot."+hotspotid;
	var hotspot = svgDocument.getElementById(strId);
	if(hotspot)
		hotspot.setAttribute("opacity","0");

	var toolTip = svgDocument.getElementById('ToolTip');
	if(toolTip)
		toolTip.setAttribute("visibility","hidden");
}
function ShowToolTip(evt,hotspotid,strTooltip)
{
	if(strTooltip=="")
	return;

	// change text
	var svgDocument = evt.target.ownerDocument;
	var tiptext = svgDocument.getElementById('ToolTipText');
	if( !tiptext )
	return;
	tiptext.firstChild.nodeValue = " " + strTooltip + "  " ;

	// show tooltip before, else some refresh issue

	var toolTip = svgDocument.getElementById('ToolTip');
	if(!toolTip)
	return;

	toolTip.setAttribute("visibility","visible");
	toolTip.setAttribute("opacity",".95");

	// move tooltip
	// get viewbox

	var root = svgDocument.documentElement;
	var vbox = (root.getAttribute("viewBox")).split(' ');
	var x0 = parseFloat(vbox[0]);
	var y0 = parseFloat(vbox[1]);
	var vboxW = parseFloat(vbox[2]);
	var vboxH = parseFloat(vbox[3]);

	// get default width of svg

	var strW = root.getAttribute("width");
	var svgW = parseFloat(strW);
	if(strW.indexOf('mm') != -1)
	svgW *= 3.779;

	var strH = root.getAttribute("height");
	var svgH = parseFloat(strH);
	if(strH.indexOf('mm') != -1)
	svgH *= 3.779;  	// 96 dpi  -> 96/25.4 = 3.779

	// update the viewbox / width / height if svg is embedded in html with zoom fit all
	var realx0 = x0;
	var realy0 = y0;
	var realvboxW = vboxW;
	var realvboxH = vboxH;
	var realsvgW = svgW;
	var realsvgH = svgH;

	if ((typeof(top) == "undefined") || (typeof(top.svgctl1) != "undefined")) // embedded in html
	{
		// get window size in pxl

		svgW = window.innerWidth;
		svgH = window.innerHeight;

		// calculate real viewbox

		realsvgW = svgW;
		realsvgH = svgH;
		if((svgW / svgH) > (vboxW / vboxH))
		{
			realvboxW = (vboxH * svgW) / svgH;
			realvboxH = vboxH;
			realx0 = x0 - (realvboxW - vboxW)/2 ;
		}
		else
		{
			realvboxH = (vboxW * svgH) / svgW;
			realvboxW = vboxW;
			realy0 = y0 - (realvboxH - vboxH)/2 ;
		}
	}

	// get user zoom/pan

	var newScale = root.currentScale;
	var translation = root.currentTranslate;

	// transform pxl to user unit

	var xPos = (((evt.clientX+10- translation.x)/newScale) * realvboxW)/realsvgW  + realx0 ;
	var yPos = (((evt.clientY+5- translation.y)/newScale) * realvboxH)/ realsvgH  + realy0 ;
	var scaleForWidth = ( (1 / newScale) * realvboxH) / realsvgH;

	// move tooltip

	toolTip.setAttribute("transform", "translate(" + xPos + "," + yPos + ")" );

	// resize tooltip

	var fontsize = 12;
	tiptext.setAttribute("font-size",fontsize*scaleForWidth);
	tiptext.setAttribute("y", fontsize*scaleForWidth);
	var tipBG = svgDocument.getElementById('ToolTipBG');
	var outline = tiptext.getBBox();
	if(tipBG)
	{
		tipBG.setAttribute("stroke-width", 1*scaleForWidth);
		tipBG.setAttribute("width", Number(outline.width) );
		tipBG.setAttribute("height", Number(outline.height) + fontsize*.5*scaleForWidth );
	}
	var ToolTipShadow = svgDocument.getElementById('ToolTipShadow');
	if(ToolTipShadow)
	{
		ToolTipShadow.setAttribute("width", Number(outline.width) );
		ToolTipShadow.setAttribute("height", Number(outline.height) + fontsize*.5*scaleForWidth );
		ToolTipShadow.setAttribute("x", 3*scaleForWidth);
		ToolTipShadow.setAttribute("y", 3*scaleForWidth);
	}
}
function ShowPaper()
{
  var svgDocument = getDocument();
  var paper = svgDocument.getElementById("paperID");
  if(paper)
  {
    paper.setAttribute("transform","scale(1)");
    paper.setAttribute("opacity","1");
    paper.setAttribute("visibility","visible");
  }
  var svg = svgDocument.getRootElement();
  if(svg)
  {
    svg.setAttribute("width","307.000mm");
    svg.setAttribute("height","220.000mm");
    svg.setAttribute("viewBox","-5.000000 -5.000000 307.000000 220.000000");
  }
}
]]></script><defs/><g><path style="fill:#ffffff" d="M296.95,210.01L0.09,210.01L0.09,0.09L296.95,0.09z"/><path style="fill:#fffe02" d="M273.50,70.19L273.16,72.92L272.51,73.14L270.76,87.62L268.73,112.83L267.96,133.49L267.97,138.90L268.53,139.20L267.88,174.28L265.64,174.59L234.04,150.15L233.68,150.18L234.05,172.23L234.34,183.25L234.63,188.46L235.26,194.09L234.26,194.56L232.87,194.57L167.89,134.94L167.88,133.10L168.86,132.91L168.27,127.03L166.82,101.82L165.96,97.74L151.74,86.73L151.62,86.76L152.05,88.48L152.91,102.10L154.07,117.56L153.13,118.02L153.20,119.58L152.85,119.82L151.47,119.78L137.00,106.43L129.12,96.04L128.57,92.83L127.12,74.28L125.09,40.09L124.80,30.53L124.80,18.74L125.35,4.23L125.58,3.58L127.14,3.56z"/><path style="fill:#00fdff" d="M72.96,52.82L78.75,58.32L177.86,152.79L182.20,156.85L182.21,158.74L181.51,159.20L181.60,167.02L182.47,191.35L183.36,192.21L183.36,193.78L180.46,191.05L179.02,189.30L91.79,93.96L74.37,74.87L73.78,73.72L73.50,72.55L72.06,56.32L72.00,53.44L72.34,53.19L72.33,52.24z"/><path style="fill:#ffffff" d="M148.27,15.75L147.98,27.43L148.00,59.31L134.30,50.30L129.14,39.81L127.10,34.31L126.83,32.26L126.83,17.87L127.32,6.16L127.68,6.13z"/><path style="fill:#ffffff" d="M178.45,29.91L177.74,42.99L177.25,65.10L177.27,78.73L151.77,61.80L150.80,61.04L150.59,57.77L150.59,27.72L151.16,17.18z"/><path style="fill:#ffffff" d="M218.12,48.44L217.44,55.16L215.99,78.05L215.54,103.93L207.14,98.59L180.74,80.94L180.44,77.76L180.44,54.09L181.22,36.32L181.56,32.03L181.81,31.67L182.46,31.65z"/><path style="fill:#ffffff" d="M130.35,47.07L130.31,47.45L129.77,47.34L127.32,45.68L127.10,40.08z"/><path style="fill:#ffffff" d="M269.70,72.49L267.86,88.77L266.13,110.80L265.05,136.72L264.52,136.60L220.75,107.58L220.41,107.05L219.47,106.54L219.27,102.97L219.27,94.08L219.76,75.73L221.50,51.40L221.80,50.21L222.15,50.18z"/><path style="fill:#ffffff" d="M130.61,51.33L130.88,54.71L130.32,54.62L130.33,51.05z"/><path style="fill:#ffffff" d="M137.54,56.04L137.57,61.05L136.10,60.09L135.70,54.86z"/><path style="fill:#ffffff" d="M130.59,57.48L130.82,59.00L131.15,59.24L131.20,64.41L131.48,64.71L131.49,66.56L129.73,65.30L129.44,63.85L129.02,56.61z"/><path style="fill:#ffffff" d="M142.18,59.22L142.48,61.24L142.50,64.53L141.90,64.15L140.60,58.37z"/><path style="fill:#ffffff" d="M133.78,60.04L135.57,65.96L133.79,65.01L133.49,62.98L133.51,59.75z"/><path style="fill:#ffffff" d="M147.40,62.71L147.41,63.65L146.56,67.43L145.09,66.46L144.80,63.85L144.80,60.93z"/><path style="fill:#ffffff" d="M137.83,62.70L138.13,67.74L136.66,63.00L136.58,62.10L136.95,62.07z"/><path style="fill:#ffffff" d="M75.87,64.39L76.41,65.59L76.98,71.39L77.00,74.97L74.65,72.28L73.69,62.68L74.07,62.64z"/><path style="fill:#ffffff" d="M136.39,68.49L137.30,71.76L134.38,69.63L134.08,69.35L133.78,68.21L133.70,66.43L134.06,66.40z"/><path style="fill:#ffffff" d="M142.58,66.92L142.36,66.17L142.47,66.15z"/><path style="fill:#ffffff" d="M164.52,74.55L164.83,80.16L163.66,79.47L157.57,75.13L154.94,70.23L153.42,66.99L153.74,67.01z"/><path style="fill:#ffffff" d="M141.08,70.01L140.36,69.75L140.44,66.73z"/><path style="fill:#ffffff" d="M145.95,68.50L145.95,69.74L145.37,72.37L144.97,67.90z"/><path style="fill:#ffffff" d="M142.77,68.02L142.58,66.92L142.76,67.07z"/><path style="fill:#ffffff" d="M152.67,71.12L152.63,71.50L152.08,71.39L151.18,70.80L151.16,68.19z"/><path style="fill:#ffffff" d="M137.58,75.70L137.84,80.95L139.61,105.67L137.86,104.11L130.90,94.84L130.59,93.71L129.44,79.50L128.75,69.06z"/><path style="fill:#ffffff" d="M141.36,71.93L141.90,73.12L142.21,75.54L140.74,74.57L140.74,71.35z"/><path style="fill:#ffffff" d="M148.85,71.97L148.87,75.83L147.39,74.85L147.38,74.10L148.21,70.47L148.54,70.47z"/><path style="fill:#ffffff" d="M154.08,74.28L158.17,82.14L158.13,82.51L157.59,82.40L151.38,77.85L151.16,72.24z"/><path style="fill:#ffffff" d="M170.62,78.63L170.61,79.29L169.40,83.38L168.88,83.29L167.40,82.11L167.40,76.29z"/><path style="fill:#ffffff" d="M148.57,77.17L149.16,78.04L149.16,80.76L146.53,78.91L146.53,77.86L146.83,76.37L147.41,76.27z"/><path style="fill:#ffffff" d="M164.78,81.83L165.11,87.70L163.07,86.44L158.96,78.33L158.98,77.75z"/><path style="fill:#ffffff" d="M142.48,79.50L143.36,80.64L144.22,95.15L145.41,110.88L143.37,109.32L142.48,108.47L141.90,105.00L140.74,89.93L140.05,77.76z"/><path style="fill:#ffffff" d="M159.58,85.29L160.74,87.32L162.22,90.60L151.67,82.77L151.76,79.47z"/><path style="fill:#ffffff" d="M176.68,82.63L175.82,87.16L175.53,87.69L174.35,87.03L173.94,80.95z"/><path style="fill:#ffffff" d="M148.87,84.70L149.43,88.19L150.01,95.15L151.48,116.41L149.17,114.54L148.28,113.69L147.70,109.93L146.24,89.35L145.87,82.36L146.23,82.34z"/><path style="fill:#ffffff" d="M168.85,84.73L168.86,85.67L167.67,89.74L167.61,84.10L167.95,84.09z"/><path style="fill:#ffffff" d="M171.49,86.70L171.77,92.64L169.70,91.36L169.69,90.61L170.80,86.43L171.16,86.38z"/><path style="fill:#ffffff" d="M191.73,92.84L193.50,94.26L193.77,100.40L193.24,100.36L186.84,95.70L183.30,87.90L183.24,87.30L183.60,87.28z"/><path style="fill:#ffffff" d="M175.27,89.34L174.64,92.66L174.35,91.67L174.36,88.75z"/><path style="fill:#ffffff" d="M182.22,92.33L180.65,91.47L180.72,88.76z"/><path style="fill:#ffffff" d="M165.11,89.61L165.12,90.31L164.76,89.97L164.80,89.31z"/><path style="fill:#ffffff" d="M171.77,94.55L172.05,97.87L171.49,97.78L168.55,95.41L168.52,94.66L169.06,92.81L169.71,92.79z"/><path style="fill:#ffffff" d="M183.38,95.11L185.37,99.20L187.43,104.22L181.03,99.49L180.63,93.39L180.99,93.37z"/><path style="fill:#ffffff" d="M178.15,97.27L176.97,96.58L176.59,96.01L177.76,91.08L177.84,91.07z"/><path style="fill:#ffffff" d="M214.37,108.23L214.38,108.54L209.34,110.82L208.25,110.83L196.67,102.68L196.67,96.28z"/><path style="fill:#ffffff" d="M178.14,99.19L178.15,102.48L176.99,101.78L175.78,100.93L175.79,100.19L176.39,97.72z"/><path style="fill:#ffffff" d="M193.76,102.40L193.79,108.87L192.34,107.88L188.51,99.49L188.46,98.90L188.82,98.87z"/><path style="fill:#ffffff" d="M172.07,102.36L172.33,108.77L173.79,136.69L170.56,133.95L170.50,133.68L171.46,133.21L170.59,120.94L169.44,101.81L169.01,100.09z"/><path style="fill:#ffffff" d="M188.82,107.05L190.92,111.70L190.88,112.07L190.32,111.97L181.22,105.09L180.91,101.23z"/><path style="fill:#ffffff" d="M206.83,111.70L206.84,112.02L201.79,114.31L201.05,114.27L196.96,111.37L196.96,104.69z"/><path style="fill:#ffffff" d="M194.08,119.47L194.35,129.06L195.53,156.40L177.16,139.86L176.67,136.30L175.80,122.97L175.22,110.80L175.14,104.97L175.50,104.94z"/><path style="fill:#ffffff" d="M210.55,112.06L215.43,109.87L215.79,109.90L215.81,116.11L210.56,112.52z"/><path style="fill:#ffffff" d="M230.02,118.88L229.99,125.99L229.45,125.88L224.51,122.37L221.28,113.99L221.20,113.10L221.57,113.07z"/><path style="fill:#ffffff" d="M215.26,117.71L216.11,118.60L216.11,125.09L214.09,123.81L203.31,115.99L203.22,115.46L208.17,113.08L208.84,113.08z"/><path style="fill:#ffffff" d="M199.85,115.16L197.27,116.41L196.94,116.07L196.96,113.09z"/><path style="fill:#ffffff" d="M216.10,127.30L216.11,131.17L214.96,130.47L198.39,118.02L198.39,117.58L201.33,116.31z"/><path style="fill:#ffffff" d="M220.17,118.35L220.15,119.02L219.58,118.94L219.27,118.62L219.26,116.00z"/><path style="fill:#ffffff" d="M221.35,122.05L223.90,128.77L224.78,131.49L224.23,131.39L219.58,127.88L219.25,127.34L219.28,120.62z"/><path style="fill:#ffffff" d="M245.40,129.33L245.39,129.73L241.47,134.00L241.04,133.98L233.39,128.56L233.47,121.20z"/><path style="fill:#ffffff" d="M220.17,139.46L221.32,179.58L218.43,177.13L199.28,159.77L198.70,156.00L198.12,145.57L197.54,130.21L197.54,122.07z"/><path style="fill:#ffffff" d="M229.99,128.19L229.99,135.27L229.45,135.16L228.85,134.54L225.61,125.86L225.55,125.27L225.91,125.24z"/><path style="fill:#ffffff" d="M225.96,134.54L228.01,140.14L226.83,139.47L219.56,133.98L219.57,129.89z"/><path style="fill:#ffffff" d="M240.16,135.39L236.25,139.79L235.83,139.78L233.47,138.04L233.39,130.76L233.74,130.74z"/><path style="fill:#ffffff" d="M265.38,142.93L265.38,150.88L263.35,149.60L256.96,144.98L253.16,135.73L253.08,134.83L253.44,134.80z"/><path style="fill:#ffffff" d="M243.60,135.26L246.41,132.21L246.50,137.59L245.97,137.46L243.59,135.70z"/><path style="fill:#ffffff" d="M252.36,141.25L252.31,141.63L251.77,141.52L250.29,140.35L250.27,136.29z"/><path style="fill:#ffffff" d="M246.53,140.05L246.50,147.44L245.96,147.33L238.30,141.59L238.59,140.64L241.59,137.55L242.02,136.87L242.18,136.86z"/><path style="fill:#ffffff" d="M234.94,141.19L233.48,142.80L233.48,140.03z"/><path style="fill:#ffffff" d="M253.73,145.02L255.50,149.05L258.13,156.09L250.28,150.50L250.28,142.64z"/><path style="fill:#ffffff" d="M243.61,147.61L246.53,149.90L246.50,154.10L245.96,153.99L234.90,145.56L234.92,144.83L236.83,142.66z"/><path style="fill:#ffffff" d="M229.94,147.02L230.28,168.18L230.88,188.27L227.41,185.25L226.23,184.11L225.65,183.82L225.35,182.67L224.78,176.29L224.20,156.01L224.20,142.65z"/><path style="fill:#ffffff" d="M265.37,153.37L265.05,161.06L264.51,160.95L263.05,159.76L258.64,149.33L258.58,148.74L258.94,148.72z"/><path style="fill:#ffffff" d="M259.61,159.43L262.21,165.93L261.03,165.25L250.28,157.16L250.29,152.49z"/><path style="fill:#ffffff" d="M265.09,163.49L265.06,164.81L264.41,163.20z"/><g id="Actor_4.0"><g style="stroke:#000000;stroke-width:0.049"><path d="M71.80,53.66L181.21,159.52L181.36,159.11L181.75,158.96"/><path d="M72.22,53.27L181.94,158.84L181.74,158.89L72.10,53.29"/><path d="M72.33,53.13L182.14,158.60L181.94,158.92"/><path d="M182.22,158.58L182.08,156.88L72.24,52.10"/><path d="M73.53,73.37L182.28,191.78L181.29,159.51"/><path d="M74.18,74.16L182.45,192.12L182.28,191.78L182.51,192.05L182.84,192.12L182.45,192.12"/><path d="M77.08,75.00L74.77,72.60L74.50,71.94L73.69,63.38L73.68,62.67L73.82,62.40"/><path d="M183.28,192.17L182.85,192.11L182.36,191.59L182.36,191.76"/><path d="M182.84,192.20L183.03,192.16L182.35,191.34L182.36,191.59"/><path d="M182.35,191.34L182.34,191.15"/><path d="M182.08,156.88L182.16,156.87"/><path d="M183.29,193.96L183.32,192.30"/><path d="M183.24,192.32L183.15,192.22L183.24,192.32"/><path d="M183.03,192.16L183.10,192.16"/></g><g style="stroke:#000000;stroke-width:0.247"><path d="M72.03,56.36L71.80,53.66L71.87,53.42L72.32,53.20L72.24,52.10L182.16,156.87L182.19,158.73L181.42,159.16L181.29,159.51L182.34,191.11L183.28,192.17L183.37,193.95L74.25,74.77L74.18,74.16L73.53,73.37L72.03,56.36"/><path d="M74.22,68.89L73.74,63.37L73.80,62.41L76.09,64.68L76.29,65.13L77.16,74.04L77.08,75.00L74.74,72.48L74.44,71.33L74.22,68.89"/></g></g><g id="Actor_.0"><g style="stroke:#000000;stroke-width:0.049"><path d="M130.73,57.70L131.05,57.93L131.05,57.91"/><path d="M131.12,59.20L131.05,57.93L131.07,57.92"/><path d="M130.97,58.60L130.95,58.54L130.92,58.51L130.90,58.54L130.89,58.62L130.90,58.72L130.93,58.81L130.96,58.85L130.99,58.82L130.99,58.75"/><path d="M130.98,58.71L130.90,58.72"/></g><g style="stroke:#000000;stroke-width:0.247"><path d="M131.18,59.19L131.12,59.20L130.81,58.97L130.73,57.70L130.74,57.68"/><path d="M130.99,58.73L130.98,58.63L130.97,58.60L130.97,58.61L130.98,58.71L130.99,58.75L130.99,58.73"/></g></g><g id="Actor_.1"><g style="stroke:#000000;stroke-width:0.049"><path d="M133.25,58.09L131.38,51.94"/><path d="M133.52,58.27L131.65,52.12L131.81,52.14"/><path d="M131.39,51.94L131.65,52.12"/><path d="M131.48,51.92L131.50,51.97L131.44,51.93L131.47,51.91"/><path d="M131.50,51.97L131.71,52.12L131.79,52.13"/><path d="M133.72,58.42L131.82,52.15"/><path d="M135.73,66.28L133.78,59.85"/><path d="M134.05,60.04L136.00,66.48"/><path d="M134.52,61.05L136.21,66.63"/><path d="M137.99,73.73L136.28,68.09"/><path d="M136.12,61.50L138.10,68.02"/><path d="M138.26,73.94L136.55,68.29"/><path d="M138.43,73.97L136.76,68.44"/></g><g style="stroke:#000000;stroke-width:0.247"><path d="M133.24,58.08L131.38,51.94L131.40,51.91L131.45,51.90"/><path d="M135.72,66.28L133.77,59.84"/><path d="M138.48,73.96L138.38,73.97L138.28,73.95L137.98,73.72L136.27,68.08"/><path d="M136.23,61.58L138.15,67.91"/></g></g><g id="Actor_.2"><g style="stroke:#000000;stroke-width:0.049"><path d="M270.84,72.94L270.68,72.74L135.83,9.88"/><path d="M135.92,8.35L270.98,70.29L270.68,72.74"/><path d="M136.05,8.23L271.19,70.09L270.98,70.29"/><path d="M270.85,72.84L270.89,71.80L273.05,72.80L270.85,72.84"/><path d="M270.89,71.80L270.91,71.66L273.16,72.70L273.05,72.80"/><path d="M270.91,71.66L271.18,70.19L273.25,70.16L273.46,70.26L273.25,70.16"/><path d="M271.19,70.09L273.39,70.06"/><path d="M273.16,72.70L273.46,70.26"/></g><g style="stroke:#000000;stroke-width:0.247"><path d="M135.94,10.01L270.79,72.91L273.04,72.90L273.25,72.70L273.55,70.25L273.39,70.06L137.51,8.26L135.96,8.26L135.83,9.88L135.94,10.01"/></g></g><g id="Actor_.3"><g style="stroke:#000000;stroke-width:0.049"><path d="M130.60,57.55L137.51,62.45L137.53,62.50L137.55,62.52"/><path d="M130.55,56.67L137.46,61.55L137.51,62.45"/><path d="M130.65,56.56L137.56,61.43L137.51,61.45L137.49,61.47L137.47,61.49L137.46,61.55"/><path d="M137.56,61.43L137.90,61.39L130.98,56.52"/><path d="M131.05,56.54L131.05,56.54"/><path d="M137.90,61.39L137.95,61.39L137.97,61.41"/></g><g style="stroke:#000000;stroke-width:0.247"><path d="M137.97,61.41L131.05,56.54L131.00,56.52L130.98,56.52L130.65,56.56L130.62,56.57L130.58,56.60L130.56,56.62L130.55,56.67L130.60,57.41L130.61,57.57L130.64,57.61L137.55,62.52"/></g></g><g id="Actor_.4"><g style="stroke:#000000;stroke-width:0.049"><path d="M216.11,125.27L216.01,118.22"/><path d="M215.89,109.36L215.99,116.28"/><path d="M216.00,109.36L216.00,109.41L215.97,109.37L216.01,109.35"/><path d="M215.89,109.40L216.78,110.00L216.87,110.03L216.98,110.03L217.08,117.05"/><path d="M216.00,109.41L216.86,109.99L216.96,110.00"/><path d="M217.02,127.89L217.10,133.96"/><path d="M216.14,127.23L216.22,133.28"/><path d="M217.11,119.00L217.20,126.08"/><path d="M216.90,118.86L217.00,125.93"/><path d="M216.79,110.01L216.88,116.90"/><path d="M216.99,110.03L217.00,110.03"/><path d="M217.23,128.04L217.30,133.98"/><path d="M219.20,133.65L219.15,129.46"/><path d="M219.04,120.38L219.13,127.49"/><path d="M218.98,115.19L219.02,118.41"/></g><g style="stroke:#000000;stroke-width:0.247"><path d="M216.01,118.22L216.10,125.27"/><path d="M215.97,109.33L215.89,109.36L215.98,116.27"/><path d="M216.13,127.23L216.22,133.28L217.10,133.96L217.19,133.98L217.38,133.97"/><path d="M219.12,133.66L219.28,133.62L219.23,129.52"/><path d="M219.12,120.43L219.21,127.55"/><path d="M219.10,118.46L219.06,115.42"/></g></g><g id="Actor_.5"><g style="stroke:#000000;stroke-width:0.049"><path d="M133.50,53.38L133.51,53.39L133.80,58.47"/><path d="M134.23,58.77L133.94,53.68L133.51,53.39"/><path d="M133.94,53.68L134.00,53.70L134.10,53.70"/><path d="M133.60,53.36L133.56,53.37L133.62,53.42L133.62,53.37"/><path d="M133.62,53.42L134.00,53.67L134.03,53.68L134.08,53.69"/><path d="M134.52,60.37L134.56,61.05"/><path d="M134.35,60.88L134.31,60.22"/><path d="M134.15,53.73L134.44,58.93"/><path d="M135.59,54.71L135.87,59.93"/></g><g style="stroke:#000000;stroke-width:0.247"><path d="M133.58,53.34L133.52,53.36L133.50,53.38L133.79,58.47"/><path d="M134.10,60.07L134.35,60.90L134.39,60.97L134.44,61.01L134.49,61.04L134.56,61.05L135.34,60.95"/><path d="M135.68,54.77L135.96,59.99"/></g></g><g id="Actor_.6"><g style="stroke:#000000;stroke-width:0.049"><path d="M265.96,139.43L266.10,132.30L266.33,125.10L266.65,117.84L267.07,110.50L267.58,103.10L268.18,95.64L268.88,88.12L269.67,80.54L270.56,72.89L269.66,72.48L268.78,80.10L267.99,87.66L267.30,95.17L266.70,102.61L266.20,110.00L265.79,117.31L265.47,124.56L265.24,131.75L265.11,138.86"/><path d="M266.24,139.47L266.38,132.34L266.61,125.14L266.93,117.87L267.35,110.54L267.86,103.14L268.46,95.68L269.16,88.16L269.95,80.58L270.84,72.94L270.56,72.89"/><path d="M267.66,139.21L267.84,131.11L268.04,124.93L268.36,117.78L268.79,110.38L269.30,103.01L269.91,95.58L270.61,88.08L271.40,80.53L272.30,72.91L270.84,72.94"/><path d="M269.66,72.48L269.63,72.45"/><path d="M269.78,72.49L269.74,72.46L270.79,72.92"/></g><g style="stroke:#000000;stroke-width:0.247"><path d="M269.74,72.43L269.66,72.43L269.53,73.33L268.75,80.07L267.96,87.64L267.27,95.14L266.67,102.58L266.17,109.96L265.76,117.28L265.44,124.53L265.22,131.71L265.08,138.83L265.96,139.43L266.12,139.47L267.66,139.21L267.76,139.15L267.91,132.05L268.14,124.88L268.47,117.78L268.89,110.34L269.40,102.97L270.01,95.56L270.71,88.05L271.50,80.50L272.39,72.91"/></g></g><g id="Actor_.7"><g style="stroke:#000000;stroke-width:0.049"><path d="M127.31,55.11L130.60,57.44"/><path d="M127.22,53.71L130.98,56.35L130.99,56.29L131.01,56.27"/><path d="M128.16,54.17L127.33,53.59"/><path d="M131.00,56.16L128.74,54.57"/><path d="M130.12,54.40L130.93,54.97"/><path d="M130.98,56.35L130.99,56.52"/></g><g style="stroke:#000000;stroke-width:0.247"><path d="M128.12,53.49L127.33,53.59L127.27,53.61L127.24,53.65L127.22,53.71L127.31,55.11L127.33,55.16L127.37,55.20L130.60,57.49"/><path d="M130.15,54.39L130.93,54.94"/></g></g><g id="Actor_.8"><g style="stroke:#000000;stroke-width:0.049"><path d="M137.83,68.34L266.98,163.43L266.96,164.81L137.88,69.23"/><path d="M137.91,69.30L137.93,69.31"/><path d="M138.27,68.18L267.66,163.15L267.13,163.25L137.93,68.22"/><path d="M138.34,68.20L138.35,68.22"/><path d="M266.96,164.81L267.00,164.90"/><path d="M267.04,164.80L267.04,164.17L267.69,164.65L267.71,163.29"/><path d="M267.08,164.84L267.69,164.65"/><path d="M266.98,163.43L267.13,163.25"/><path d="M267.04,164.17L267.05,163.42L267.64,163.22"/><path d="M267.04,164.32L267.62,164.75"/><path d="M267.66,163.15L267.75,163.17"/></g><g style="stroke:#000000;stroke-width:0.247"><path d="M138.33,69.61L137.91,69.30L137.89,68.24L138.27,68.18L138.53,68.33L267.75,163.17L267.72,164.76L267.00,164.90L138.33,69.61"/></g></g><g id="Actor_.9"><g style="stroke:#000000;stroke-width:0.049"><path d="M128.02,65.29L131.69,68.06"/><path d="M131.73,68.91L131.72,68.90L131.70,68.84L127.95,65.99"/><path d="M131.70,68.84L131.66,68.25L127.92,65.41"/><path d="M129.44,65.15L129.38,65.11"/><path d="M129.84,65.45L131.61,66.78"/><path d="M131.69,68.17L131.68,68.19L131.66,68.25"/></g><g style="stroke:#000000;stroke-width:0.247"><path d="M131.73,68.91L127.97,66.05L127.95,65.99L127.92,65.41L127.93,65.36L127.97,65.31L128.02,65.29L128.79,65.19"/><path d="M129.48,65.15L129.44,65.12L129.38,65.11L129.15,65.14"/><path d="M131.61,66.75L129.88,65.45"/></g></g><g id="Actor_.10"><g style="stroke:#000000;stroke-width:0.049"><path d="M128.17,54.27L127.89,49.57L127.89,49.56"/><path d="M128.58,54.55L128.30,49.84L128.33,49.86L128.37,49.86L128.46,49.86"/><path d="M128.79,54.57L128.52,49.91"/><path d="M127.98,49.54L127.96,49.55L127.95,49.56L128.00,49.60L128.00,49.55"/><path d="M128.30,49.84L127.89,49.57"/><path d="M128.44,49.85L128.38,49.85L128.36,49.84L128.00,49.60"/><path d="M130.10,54.40L129.89,50.84"/></g><g style="stroke:#000000;stroke-width:0.247"><path d="M129.99,50.91L130.19,54.37L130.15,54.39L130.10,54.40L128.79,54.57L128.68,54.57L128.62,54.57L128.58,54.56L128.17,54.27L128.16,54.26L127.89,49.56L127.90,49.54L127.96,49.53"/></g></g><g id="Actor_.11"><g style="stroke:#000000;stroke-width:0.049"><path d="M148.65,68.92L148.38,63.48"/><path d="M149.06,63.87L148.90,63.85L148.39,63.50"/><path d="M148.49,63.47L148.49,63.52L148.45,63.49L148.45,63.48L148.48,63.47"/><path d="M148.49,63.52L148.97,63.84L149.04,63.85"/><path d="M149.30,82.35L149.07,77.56"/><path d="M149.59,77.95L149.82,82.74"/><path d="M148.72,70.45L149.00,76.02"/><path d="M149.24,70.82L149.51,76.40"/><path d="M149.68,76.52L149.41,70.94"/><path d="M148.90,63.85L149.17,69.28"/><path d="M149.07,63.87L149.34,69.40"/><path d="M149.76,78.07L149.98,82.76"/><path d="M151.47,82.55L151.31,79.22"/><path d="M151.42,82.55L151.42,82.55"/><path d="M150.97,72.05L151.24,77.66"/><path d="M150.90,70.50L150.74,67.19"/></g><g style="stroke:#000000;stroke-width:0.247"><path d="M148.65,68.91L148.38,63.48L148.46,63.46"/><path d="M149.07,77.56L149.30,82.33L149.30,82.35L149.82,82.74L149.92,82.76L150.03,82.75"/><path d="M148.72,70.45L148.99,76.01"/><path d="M150.04,82.75L151.42,82.55"/><path d="M151.40,79.29L151.55,82.51L151.42,82.55"/><path d="M151.06,72.11L151.33,77.73"/><path d="M150.99,70.56L150.83,67.38"/></g></g><g id="Actor_.12"><g style="stroke:#000000;stroke-width:0.049"><path d="M125.31,45.46L124.88,36.11L124.70,26.67L124.76,17.97L125.04,10.15L125.26,6.21"/><path d="M125.43,34.55L125.91,45.75L125.83,45.76L125.75,45.75L125.69,45.56L125.27,36.36L125.09,26.86L125.09,22.08L124.70,21.85"/><path d="M125.14,22.09L125.26,14.27L125.67,6.41L125.87,6.44L125.47,14.30L125.30,22.10L125.14,22.09"/><path d="M126.63,67.35L125.31,45.48L125.70,45.74L127.02,67.67L127.16,67.69"/><path d="M127.08,65.29L126.06,48.24"/><path d="M125.30,22.10L125.41,33.76"/><path d="M125.87,6.44L125.95,5.35"/><path d="M125.34,5.08L125.26,6.22L125.67,6.41L125.74,5.27L125.34,5.07"/><path d="M125.74,5.27L125.81,5.28"/><path d="M129.44,95.06L129.14,93.50L128.98,93.52L128.85,93.25L128.52,92.96L127.99,86.67L126.63,67.37L127.02,67.67L128.37,86.97L128.91,93.30L129.10,93.32L128.09,80.60L127.23,67.74"/><path d="M126.88,39.41L127.18,45.56L127.29,45.56"/><path d="M126.70,22.03L126.60,22.05L126.59,22.22L126.58,26.81L126.69,33.55"/><path d="M126.59,22.05L126.76,14.44L126.94,10.39L127.16,6.48L127.28,6.47"/><path d="M127.16,6.48L127.20,5.94"/><path d="M129.16,96.26L129.56,96.66"/><path d="M128.55,93.16L128.93,93.50L129.54,96.61L129.67,96.62"/><path d="M129.14,93.50L129.11,93.32"/><path d="M130.45,93.06L130.36,93.10L129.82,86.78L128.56,68.77"/><path d="M130.34,93.10L130.66,94.74"/><path d="M130.46,93.08L130.35,93.16"/></g><g style="stroke:#000000;stroke-width:0.247"><path d="M129.71,96.67L129.60,96.68L129.17,96.32L128.55,93.17L127.99,86.61L127.04,73.82L125.06,40.79L124.75,31.37L124.70,21.85L124.87,14.06L125.35,5.07"/><path d="M127.01,39.72L127.30,45.63"/><path d="M126.80,33.55L126.70,26.79L126.77,18.16L127.05,10.38L127.31,6.00"/><path d="M130.78,94.73L130.46,93.08L129.93,86.74L128.68,68.86"/></g></g><g id="Actor_.13"><g style="stroke:#000000;stroke-width:0.049"><path d="M126.33,38.01L126.81,39.23L126.80,39.22"/><path d="M125.34,33.99L125.95,35.90L126.37,37.10L127.11,38.98L127.84,40.70L128.72,42.61L129.90,45.04L131.07,47.37L132.67,50.41"/><path d="M132.76,50.46L132.80,50.41L132.90,50.37L131.23,47.20L130.06,44.88L128.62,41.89L127.76,39.99L126.98,38.10L126.43,36.67L125.91,35.15L125.47,33.74"/><path d="M125.85,36.64L125.69,36.17"/><path d="M126.03,33.62L126.02,33.63"/><path d="M127.09,39.94L127.39,40.65L127.22,40.24L127.38,40.62"/><path d="M127.39,40.65L127.82,41.65L127.60,41.16L127.80,41.59"/><path d="M126.67,38.89L126.56,38.61L126.66,38.86"/><path d="M127.10,39.95L126.81,39.23"/><path d="M126.95,39.58L126.83,39.29L126.95,39.60"/><path d="M126.83,39.29L126.83,39.29"/><path d="M134.16,50.00L132.55,46.95L131.37,44.63L130.18,42.20L129.25,40.18L128.47,38.34L127.82,36.70L127.40,35.51L126.77,33.54"/><path d="M127.12,34.27L127.07,34.09"/><path d="M126.98,33.78L126.98,33.78"/><path d="M127.96,41.95L128.78,43.72L129.96,46.19L130.56,47.38L131.64,49.49"/><path d="M127.82,41.65L127.96,41.97"/><path d="M127.53,40.98L127.53,40.99"/><path d="M127.75,36.15L127.76,36.19"/><path d="M132.90,50.37L133.51,50.25"/></g><g style="stroke:#000000;stroke-width:0.247"><path d="M125.71,36.25L126.21,37.68L126.83,39.29"/><path d="M132.37,50.15L132.67,50.41L132.76,50.46L133.51,50.25L134.15,50.00L134.22,49.95L134.23,49.91L132.69,46.99L131.51,44.67L130.33,42.23L129.59,40.66L128.80,38.85L127.96,36.73L127.55,35.57L126.93,33.66L126.87,33.59L126.81,33.55L126.77,33.54L126.03,33.62L125.47,33.74L125.35,33.79L125.33,33.91L125.34,33.99L125.39,34.33"/><path d="M131.62,49.47L129.99,46.25L128.80,43.79L128.05,42.18L127.60,41.16L126.83,39.29"/></g></g><g id="Actor_.14"><g style="stroke:#000000;stroke-width:0.049"><path d="M129.36,95.22L136.84,105.13L136.85,105.05L136.98,104.94L138.24,104.62L138.32,104.62L138.39,104.67"/><path d="M129.56,96.45L137.31,106.71"/><path d="M137.31,106.72L137.26,106.59L137.08,105.39L137.08,105.31L137.19,105.21L129.49,95.03"/><path d="M130.71,94.73L138.26,104.65L138.47,104.88L138.55,104.88L138.62,104.92"/><path d="M151.72,119.95L151.69,119.89L150.72,118.99L137.28,106.65L137.08,105.40L137.09,105.32L137.14,105.25L137.40,105.15L138.47,104.88L138.56,104.89L138.63,104.93"/><path d="M138.41,104.69L138.34,104.65L138.26,104.65L136.92,105.01L136.87,105.07L136.86,105.15L136.99,106.31L137.02,106.39"/><path d="M151.68,119.88L151.48,118.56L137.08,105.40L136.84,105.13L136.97,106.29L137.00,106.36"/><path d="M137.22,105.21L140.03,107.77"/><path d="M138.48,104.89L139.76,106.05"/><path d="M145.78,113.02L140.98,108.64"/><path d="M145.51,111.25L142.26,108.31"/><path d="M151.48,118.56L151.49,118.47L151.61,118.36L146.78,113.93"/><path d="M151.75,116.90L148.09,113.59"/><path d="M151.82,119.88L151.76,119.82L151.80,119.91L151.86,119.92L151.82,119.88"/><path d="M151.76,119.82L151.57,118.54L151.58,118.47L151.64,118.43L151.88,118.37L153.20,119.57L151.86,119.92"/><path d="M151.63,118.35L152.96,118.00L152.93,117.97"/><path d="M151.88,118.37L152.02,118.33L153.27,119.46L153.25,119.53L153.20,119.57"/><path d="M152.03,118.33L152.97,118.08L153.07,118.14L153.27,119.46"/><path d="M152.96,118.00L153.05,118.00L153.12,118.05"/><path d="M153.07,118.14L153.01,118.09"/></g><g style="stroke:#000000;stroke-width:0.247"><path d="M153.01,117.94L153.12,118.05L153.15,118.12L153.35,119.44L153.34,119.53L153.29,119.60L153.21,119.65L151.88,120.00L151.79,120.00L137.31,106.72L137.02,106.39L129.60,96.53L129.56,96.45L129.36,95.22L129.37,95.13L129.42,95.07L130.71,94.73L130.84,94.76L138.41,104.69L138.62,104.92L139.75,105.94"/><path d="M145.49,111.14L142.33,108.29"/><path d="M151.73,116.79L148.16,113.56"/></g></g><g id="Actor_.15"><g style="stroke:#000000;stroke-width:0.049"><path d="M132.38,69.32L137.00,72.84L136.95,72.85L136.89,72.90L136.86,72.94L136.85,73.03L136.97,75.19L127.06,67.54"/><path d="M127.49,65.61L127.08,65.29"/><path d="M126.93,65.47L136.85,73.03"/><path d="M133.66,69.15L137.46,72.01"/><path d="M137.02,75.30L136.98,75.24L136.97,75.19"/><path d="M137.00,72.84L137.68,72.74"/></g><g style="stroke:#000000;stroke-width:0.247"><path d="M127.47,65.24L127.04,65.30L126.97,65.35L126.94,65.43L127.06,67.54L127.07,67.59L127.11,67.65L137.06,75.33"/><path d="M137.44,71.94L133.72,69.14"/></g></g><g id="Actor_.16"><g style="stroke:#000000;stroke-width:0.049"><path d="M125.38,3.34L127.32,4.23"/><path d="M127.19,4.34L127.11,5.82L135.83,9.88L135.92,8.35L127.19,4.34L127.21,4.28L127.25,4.24L127.32,4.22L127.44,4.23L125.50,3.34"/><path d="M127.11,5.82L127.12,5.88L127.14,5.90"/><path d="M135.97,8.26L135.99,8.24L136.05,8.23L137.51,8.26L126.76,3.37"/><path d="M127.31,4.22L136.05,8.23"/><path d="M135.83,9.88L135.85,9.95L135.86,9.96"/><path d="M135.89,9.99L135.87,9.98"/><path d="M135.92,8.35L135.94,8.29L135.96,8.27"/><path d="M137.51,8.26L137.56,8.27"/></g><g style="stroke:#000000;stroke-width:0.247"><path d="M135.94,10.01L135.89,9.99L127.16,5.92L127.14,5.90L125.29,5.04L125.38,3.34L126.76,3.37L126.82,3.39L137.58,8.29"/></g></g><g id="Actor_.17"><g style="stroke:#000000;stroke-width:0.049"><path d="M231.60,144.99L235.01,141.21"/><path d="M232.20,145.45L235.63,141.67"/><path d="M235.83,141.82L232.48,145.51"/><path d="M232.54,145.50L232.55,145.50"/><path d="M234.49,145.12L234.50,145.12"/><path d="M234.42,145.15L236.81,142.54"/><path d="M234.37,145.17L234.36,145.17"/><path d="M240.88,135.88L236.76,140.43"/><path d="M241.09,136.03L236.96,140.58"/><path d="M240.24,135.42L236.13,139.97"/><path d="M242.11,136.75L237.95,141.30"/><path d="M242.04,134.60L246.21,130.01L245.55,129.56L241.39,134.14"/><path d="M246.50,130.08L242.25,134.75"/><path d="M246.71,131.72L243.28,135.47"/><path d="M245.63,129.48L245.60,129.50L245.60,129.52L245.63,129.49"/><path d="M245.54,129.55L245.50,129.51L245.50,129.47"/><path d="M245.60,129.52L246.29,130.00L246.43,130.03"/><path d="M246.21,130.01L246.33,130.06L246.49,130.07"/></g><g style="stroke:#000000;stroke-width:0.247"><path d="M232.54,145.50L232.39,145.51L232.23,145.47L231.60,144.99L231.56,144.94L231.57,144.91L234.95,141.16"/><path d="M234.36,145.17L232.55,145.50"/><path d="M236.84,142.56L234.49,145.12L234.37,145.17"/><path d="M240.17,135.38L236.06,139.92"/><path d="M237.97,141.32L242.14,136.77"/><path d="M245.56,129.44L245.50,129.47L241.32,134.10"/><path d="M246.71,131.77L243.31,135.49"/></g></g><g id="Actor_.18"><g style="stroke:#000000;stroke-width:0.049"><path d="M217.19,110.26L220.56,119.49"/><path d="M218.01,110.72L221.43,120.10"/><path d="M221.10,119.87L217.75,110.66L217.86,110.70L218.00,110.71"/><path d="M217.32,110.25L217.35,110.33L217.29,110.28L217.31,110.24"/><path d="M217.35,110.33L217.83,110.65L217.95,110.67"/><path d="M217.75,110.66L217.22,110.30"/><path d="M225.03,131.82L221.51,122.13"/><path d="M224.15,122.02L220.69,112.53"/><path d="M225.93,132.48L222.39,122.75"/><path d="M225.59,132.23L222.06,122.52"/><path d="M229.13,143.11L226.02,134.55"/><path d="M225.13,124.70L228.72,134.53"/><path d="M229.97,143.60L226.92,135.22"/><path d="M229.70,143.54L226.58,134.97"/><path d="M230.03,143.59L230.04,143.59"/><path d="M229.73,137.30L230.11,138.35"/></g><g style="stroke:#000000;stroke-width:0.247"><path d="M217.26,110.21L217.19,110.25L217.21,110.32L220.53,119.47"/><path d="M225.01,131.81L221.49,122.11"/><path d="M224.29,122.12L220.82,112.62"/><path d="M230.03,143.59L229.89,143.60L229.73,143.56L229.10,143.07L226.00,134.53"/><path d="M225.27,124.80L228.86,134.63"/><path d="M230.04,143.59L230.15,143.57"/><path d="M230.11,138.06L229.87,137.40"/></g></g><g id="Actor_.19"><g style="stroke:#000000;stroke-width:0.049"><path d="M138.49,74.12L138.24,69.54"/><path d="M137.87,62.75L138.16,68.07"/><path d="M138.63,68.41L138.34,63.08"/><path d="M138.79,68.53L138.50,63.20"/><path d="M138.14,56.44L138.42,61.73"/><path d="M137.51,56.09L137.98,56.43L138.26,61.61"/><path d="M137.52,56.11L137.80,61.28"/><path d="M137.61,56.09L137.62,56.13L137.58,56.10L137.58,56.09L137.61,56.08"/><path d="M137.98,56.43L138.13,56.44"/><path d="M137.62,56.13L138.04,56.42L138.11,56.43"/><path d="M138.87,70.01L139.11,74.49"/><path d="M138.96,74.47L138.71,69.89"/><path d="M140.53,74.29L140.37,71.12"/><path d="M140.04,64.89L140.29,69.63"/></g><g style="stroke:#000000;stroke-width:0.247"><path d="M140.45,71.18L140.62,74.26L140.50,74.30L139.11,74.49L138.96,74.47L138.49,74.12L138.49,74.10L138.24,69.54"/><path d="M137.87,62.75L138.16,68.07"/><path d="M137.59,56.07L137.51,56.09L137.79,61.28"/><path d="M140.14,65.38L140.37,69.69"/></g></g><g id="Actor_.20"><g style="stroke:#000000;stroke-width:0.049"><path d="M168.32,128.55L168.34,128.57L167.83,120.80L167.38,112.97L166.83,101.84"/><path d="M169.83,133.64L169.23,129.36L168.34,128.57L168.94,132.84"/><path d="M167.91,100.95L168.52,113.73L168.97,121.59L169.47,129.38L169.40,129.39L169.23,129.36L168.72,121.57L168.27,113.71L167.72,102.47"/><path d="M168.93,132.81L168.93,132.80"/><path d="M169.47,129.38L170.08,133.65"/><path d="M171.49,133.19L170.91,129.04L170.42,121.36L169.98,113.59L169.42,101.80"/><path d="M170.91,129.04L171.01,129.00L171.03,128.96"/></g><g style="stroke:#000000;stroke-width:0.247"><path d="M168.71,99.76L169.45,101.89L169.57,102.32L169.90,109.61L170.32,117.41L171.03,128.96L171.61,133.10L171.49,133.19L169.99,133.67L169.84,133.65L168.93,132.81L168.32,128.55L167.58,116.88L167.16,109.00L166.82,101.83"/></g></g><g id="Actor_.21"><g style="stroke:#000000;stroke-width:0.049"><path d="M173.71,100.93L174.64,96.50"/><path d="M174.81,96.62L173.90,100.95"/><path d="M172.99,100.38L173.91,95.96"/><path d="M173.95,100.95L173.96,100.94"/><path d="M176.03,89.84L174.94,95.06"/><path d="M175.29,89.31L174.21,94.52"/><path d="M175.53,100.70L176.18,97.64"/><path d="M175.48,100.71L175.47,100.71"/><path d="M176.20,89.96L175.11,95.18"/><path d="M176.64,82.69L176.65,82.72L175.59,87.86"/><path d="M176.48,96.19L177.59,90.95"/><path d="M176.65,82.72L177.41,83.23L176.33,88.39"/><path d="M177.60,83.26L176.51,88.51"/><path d="M176.75,82.68L176.74,82.74L176.69,82.69L176.74,82.67"/><path d="M176.74,82.74L177.45,83.22L177.57,83.24"/><path d="M177.90,89.49L177.91,89.46"/><path d="M177.41,83.23L177.47,83.25L177.60,83.25"/></g><g style="stroke:#000000;stroke-width:0.247"><path d="M173.89,95.95L172.98,100.35L172.99,100.38L173.71,100.93L173.84,100.96L173.95,100.95"/><path d="M173.96,100.94L175.47,100.71"/><path d="M175.27,89.30L174.19,94.51"/><path d="M176.24,97.69L175.61,100.67L175.58,100.69L175.48,100.71"/><path d="M176.72,82.66L176.64,82.69L175.57,87.85"/><path d="M177.66,91.00L176.55,96.24"/></g></g><g id="Actor_.22"><g style="stroke:#000000;stroke-width:0.049"><path d="M177.44,80.31L177.24,71.65L177.21,62.88L177.35,54.02L177.67,45.07L178.18,36.04L178.61,30.00L179.65,30.46L179.87,30.50"/><path d="M178.45,80.99L178.25,72.29L178.21,66.43L178.25,60.53L178.37,54.60L178.57,48.62L178.85,42.60L179.21,36.55L179.65,30.46"/><path d="M179.93,30.53L179.49,36.59L179.13,42.64L178.85,48.65L178.65,54.63L178.53,60.56L178.49,66.46L178.52,72.31L178.72,81.01"/><path d="M178.77,29.99L178.72,29.97"/><path d="M178.77,30.01L179.82,30.48"/><path d="M178.61,29.98L178.60,29.97"/><path d="M180.28,80.79L180.14,75.03L180.07,69.22L180.07,63.37L180.16,57.49L180.32,51.56L180.57,45.59L180.89,39.59L181.47,31.25"/></g><g style="stroke:#000000;stroke-width:0.247"><path d="M181.60,31.31L181.02,39.56L180.70,45.56L180.46,51.52L180.29,57.44L180.21,63.33L180.20,69.17L180.27,74.97L180.42,80.73L180.28,80.79L178.55,81.01L178.42,80.97L177.44,80.31L177.27,74.53L177.18,65.80L177.27,56.97L177.53,48.05L177.81,42.06L178.16,36.03L178.60,29.97L178.68,29.95"/></g></g><g id="Actor_.23"><g style="stroke:#000000;stroke-width:0.049"><path d="M215.63,105.83L215.59,99.28L215.63,92.67L215.76,86.00L215.99,78.89L216.28,72.50L216.68,65.68L217.17,58.80L218.06,48.39"/><path d="M216.97,106.73L216.94,96.83L217.03,90.17L217.21,83.44L217.48,76.67L217.84,69.83L218.29,62.95L218.83,56.03L219.47,49.05L218.08,48.40"/><path d="M219.80,49.13L219.16,56.07L218.62,63.00L218.17,69.88L217.80,76.71L217.53,83.48L217.35,90.20L217.26,96.87L217.29,106.76"/><path d="M218.20,48.38L218.25,48.41"/><path d="M218.25,48.43L219.67,49.07"/><path d="M219.05,106.48L219.02,99.93L219.07,93.33L219.21,86.67L219.44,79.95L219.76,73.18L220.17,66.36L220.68,59.49L221.52,49.94"/><path d="M219.19,106.40L219.19,106.40"/><path d="M219.47,49.05L219.73,49.10"/></g><g style="stroke:#000000;stroke-width:0.247"><path d="M218.14,48.36L218.06,48.39L217.43,55.33L216.90,62.22L216.45,69.08L215.95,79.26L215.66,89.32L215.58,95.96L215.61,105.81L216.97,106.73L217.14,106.77L219.05,106.48L219.19,106.40L219.16,99.85L219.21,93.25L219.35,86.60L219.58,79.89L219.90,73.12L220.31,66.31L220.82,59.44L221.65,49.99"/></g></g><g id="Actor_.24"><g style="stroke:#000000;stroke-width:0.049"><path d="M150.77,60.99L150.67,61.00"/><path d="M151.46,61.44L151.35,61.46L150.67,61.00"/><path d="M150.65,58.28L150.55,58.30"/><path d="M151.35,61.46L151.36,61.57"/></g><g style="stroke:#000000;stroke-width:0.247"><path d="M151.47,61.65L151.46,61.44L150.77,60.99L150.65,58.28L150.55,58.22"/></g></g><g id="Actor_.25"><g style="stroke:#000000;stroke-width:0.049"><path d="M180.53,80.67L180.41,80.69"/><path d="M181.41,81.26L181.29,81.27L180.41,80.70"/><path d="M180.43,77.64L180.33,77.66"/><path d="M181.29,81.27L181.29,81.40"/></g><g style="stroke:#000000;stroke-width:0.247"><path d="M181.42,81.48L181.41,81.26L180.53,80.67L180.43,77.64L180.33,77.58"/></g></g><g id="Actor_.26"><g style="stroke:#000000;stroke-width:0.049"><path d="M219.31,106.33L219.19,106.35"/><path d="M220.48,107.11L220.34,107.13L219.19,106.37"/><path d="M219.27,102.89L219.16,102.91"/><path d="M220.34,107.13L220.35,107.27"/></g><g style="stroke:#000000;stroke-width:0.247"><path d="M220.48,107.37L220.48,107.11L219.31,106.33L219.27,102.89L219.16,102.82"/></g></g><g id="Actor_.27"><g style="stroke:#000000;stroke-width:0.049"><path d="M127.51,65.76L126.48,48.59"/><path d="M127.93,66.08L126.90,48.89L127.04,48.90"/><path d="M128.02,65.29L127.43,55.24"/><path d="M127.33,53.59L127.05,48.91"/><path d="M126.90,48.89L126.48,48.61"/><path d="M126.58,48.59L126.58,48.63L126.96,48.89L127.03,48.89"/><path d="M126.58,48.63L126.54,48.60L126.54,48.59L126.57,48.58"/><path d="M128.86,56.26L129.38,65.11"/></g><g style="stroke:#000000;stroke-width:0.247"><path d="M128.03,66.09L127.93,66.08L127.51,65.76L127.50,65.74L126.48,48.59L126.55,48.57"/><path d="M128.95,56.32L129.46,65.14"/></g></g><g id="Actor_.28"><g style="stroke:#000000;stroke-width:0.049"><path d="M148.87,84.52L149.57,85.07L149.56,84.98"/><path d="M149.57,85.07L149.66,85.05"/><path d="M150.27,88.81L150.47,85.68"/></g><g style="stroke:#000000;stroke-width:0.247"><path d="M148.87,84.52L147.79,83.69L147.78,83.60"/><path d="M150.59,85.77L150.40,88.79L150.27,88.81L149.38,88.11L148.87,84.52"/></g></g><g id="Actor_.29"><g style="stroke:#000000;stroke-width:0.049"><path d="M166.06,97.81L166.98,98.51L166.98,98.42"/><path d="M166.98,98.51L167.08,98.50"/><path d="M167.65,102.48L167.92,99.15"/></g><g style="stroke:#000000;stroke-width:0.247"><path d="M166.06,97.81L164.91,96.92L164.91,96.83"/><path d="M168.05,99.25L167.78,102.46L167.65,102.48L166.61,101.67L166.06,97.81"/></g></g><g id="Actor_.30"><g style="stroke:#000000;stroke-width:0.049"><path d="M129.18,65.52L129.12,65.47L129.09,65.39L129.02,64.14L128.71,63.91"/><path d="M128.78,65.16L129.09,65.39L129.17,65.38L129.16,65.19"/><path d="M129.26,65.53L129.25,65.45L129.19,65.43L129.17,65.39L129.25,65.45L129.89,65.37"/><path d="M128.93,64.49L128.93,64.57L128.90,64.59L128.87,64.56L128.85,64.47L128.93,64.46"/><path d="M128.85,64.47L128.83,64.37L128.84,64.29L128.87,64.26L128.90,64.30L128.91,64.35"/><path d="M129.17,65.38L129.17,65.39"/><path d="M129.02,64.14L129.09,64.13"/></g><g style="stroke:#000000;stroke-width:0.247"><path d="M128.94,64.49L128.93,64.49L128.93,64.46L128.91,64.36L128.91,64.35L128.92,64.38L128.94,64.49"/><path d="M129.16,65.19L129.58,65.13L129.89,65.37L129.89,65.45L129.26,65.53L129.18,65.52L128.87,65.29L128.81,65.23L128.78,65.16L128.71,63.91L128.79,63.90L129.09,64.13L129.16,65.19"/></g></g><g id="Actor_.31"><g style="stroke:#000000;stroke-width:0.049"><path d="M171.82,92.77L171.59,86.69"/><path d="M172.12,79.53L171.94,79.52L171.31,79.09L171.53,85.01"/><path d="M171.42,79.06L171.42,79.11L171.38,79.08L171.38,79.06L171.41,79.05"/><path d="M171.31,79.09L171.30,79.07"/><path d="M171.42,79.11L172.01,79.51L172.09,79.51"/><path d="M172.88,100.17L172.69,95.06"/><path d="M172.70,100.15L172.51,94.92"/><path d="M172.07,99.68L171.88,94.45"/><path d="M172.41,87.27L172.63,93.37"/><path d="M172.22,87.14L172.44,93.23"/><path d="M172.13,79.54L172.35,85.58"/><path d="M171.94,79.52L172.16,85.45"/><path d="M174.03,86.77L173.81,80.68"/><path d="M174.09,88.46L174.29,94.04"/></g><g style="stroke:#000000;stroke-width:0.247"><path d="M171.81,92.76L171.58,86.68"/><path d="M171.39,79.03L171.30,79.07L171.52,85.00"/><path d="M171.87,94.45L172.06,99.66L172.07,99.68L172.70,100.15L172.81,100.18L173.02,100.15"/><path d="M174.12,86.83L173.91,80.75"/><path d="M174.18,88.53L174.37,93.67"/></g></g><g id="Actor_.32"><g style="stroke:#000000;stroke-width:0.049"><path d="M164.85,81.90L165.09,87.83"/><path d="M165.38,80.68L165.14,74.89L164.55,74.49L164.78,80.26"/><path d="M164.65,74.46L164.65,74.51L164.61,74.48L164.61,74.46L164.65,74.45"/><path d="M164.55,74.49L164.54,74.47"/><path d="M164.65,74.51L165.21,74.88L165.29,74.89"/><path d="M165.93,90.05L166.13,95.04"/><path d="M165.95,95.02L165.75,89.91"/><path d="M165.36,94.57L165.15,89.47"/><path d="M165.62,82.45L165.86,88.40"/><path d="M165.44,82.32L165.68,88.26"/><path d="M165.32,74.91L165.56,80.81"/><path d="M165.14,74.89L165.31,74.91"/><path d="M167.51,89.60L167.27,83.62"/><path d="M166.97,76.04L167.21,81.97"/></g><g style="stroke:#000000;stroke-width:0.247"><path d="M164.84,81.89L165.08,87.82"/><path d="M164.62,74.44L164.54,74.47L164.77,80.26"/><path d="M165.15,89.47L165.35,94.55L165.36,94.57L165.95,95.02L166.06,95.04L166.27,95.01"/><path d="M167.07,76.10L167.30,82.03"/><path d="M167.36,83.69L167.60,89.67"/></g></g><g id="Actor_.33"><g style="stroke:#000000;stroke-width:0.049"><path d="M178.42,104.51L178.24,99.17"/><path d="M177.98,91.22L178.19,97.44"/><path d="M177.71,83.42L177.92,89.50"/><path d="M177.82,83.41L177.83,83.46L177.78,83.43L177.78,83.41L177.82,83.40"/><path d="M178.56,83.91L178.38,83.89L177.71,83.44"/><path d="M178.38,83.89L178.58,89.97"/><path d="M177.83,83.46L178.45,83.88L178.53,83.89"/><path d="M179.10,99.80L179.27,105.03"/><path d="M179.08,105.01L178.90,99.66"/><path d="M178.83,91.83L179.04,98.07"/><path d="M178.64,91.69L178.85,97.93"/><path d="M178.57,83.92L178.78,90.11"/><path d="M180.75,99.32L180.55,93.05"/><path d="M180.49,91.31L180.38,87.92"/><path d="M180.93,104.78L180.81,101.07"/></g><g style="stroke:#000000;stroke-width:0.247"><path d="M178.24,99.16L178.42,104.49L179.08,105.01L179.13,105.03L179.27,105.03L180.93,104.78L181.02,104.74L180.90,101.14"/><path d="M177.97,91.22L178.18,97.44"/><path d="M177.79,83.39L177.71,83.42L177.91,89.50"/><path d="M180.59,91.38L180.48,88.14"/><path d="M180.84,99.39L180.64,93.11"/></g></g><g id="Actor_.34"><g style="stroke:#000000;stroke-width:0.049"><path d="M193.94,109.00L193.77,102.43"/><path d="M193.55,94.19L193.73,100.62"/><path d="M193.68,94.18L193.68,94.23L193.63,94.20L193.63,94.19L193.67,94.17"/><path d="M193.56,94.22L194.31,94.73L194.51,94.75"/><path d="M193.68,94.23L194.38,94.71L194.48,94.72"/><path d="M194.87,117.03L194.73,111.38"/><path d="M195.07,117.05L194.94,111.53"/><path d="M193.99,110.83L194.13,116.47"/><path d="M194.73,103.11L194.89,109.70"/><path d="M194.52,102.97L194.68,109.55"/><path d="M194.52,94.75L194.68,101.29"/><path d="M194.31,94.73L194.47,101.15"/><path d="M196.81,116.52L196.72,112.85"/><path d="M196.52,104.39L196.68,111.02"/><path d="M196.32,95.98L196.48,102.56"/></g><g style="stroke:#000000;stroke-width:0.247"><path d="M193.76,102.43L193.93,109.00"/><path d="M193.64,94.15L193.55,94.19L193.71,100.61"/><path d="M195.96,116.91L195.07,117.05L194.92,117.05L194.87,117.03L194.13,116.47L194.12,116.44L193.97,110.82"/><path d="M196.82,112.93L196.91,116.48"/><path d="M196.62,104.46L196.78,111.09"/><path d="M196.42,96.04L196.57,102.62"/></g></g><g id="Actor_.35"><g style="stroke:#000000;stroke-width:0.049"><path d="M148.12,60.72L147.84,53.33L147.71,47.78L147.67,42.55L147.69,37.29L147.79,31.99L147.96,26.67L148.20,21.31L148.50,15.92"/><path d="M148.91,61.24L148.61,53.49L148.50,48.27L148.46,43.02L148.49,37.73L148.59,32.42L148.76,27.08L149.00,21.70L149.32,16.31L148.51,15.93"/><path d="M149.56,16.36L149.24,21.73L149.00,27.10L148.83,32.45L148.73,37.76L148.70,43.04L148.74,48.29L148.88,54.44L149.14,61.26"/><path d="M148.61,15.92L148.66,15.94"/><path d="M149.50,16.34L149.32,16.31"/><path d="M149.47,16.32L148.66,15.96"/><path d="M150.54,61.08L150.34,55.94L150.19,50.76L150.12,45.56L150.12,40.31L150.19,35.04L150.33,29.74L150.54,24.41L150.95,17.01"/></g><g style="stroke:#000000;stroke-width:0.247"><path d="M151.07,17.07L150.66,24.39L150.45,29.71L150.32,35.01L150.25,40.28L150.25,45.52L150.32,50.72L150.46,55.89L150.67,61.03L150.54,61.08L149.00,61.27L148.93,61.25L148.12,60.72L147.81,52.97L147.67,45.16L147.68,37.27L147.86,29.32L148.19,21.30L148.50,15.92L148.58,15.91"/></g></g><g id="Actor_.36"><g style="stroke:#000000;stroke-width:0.049"><path d="M128.17,57.09L128.10,55.83L127.79,55.61"/><path d="M128.02,56.50L128.01,56.44L127.97,56.41L127.95,56.43L127.94,56.52L127.95,56.62L127.98,56.70L128.01,56.74L128.04,56.71L128.04,56.64"/><path d="M128.18,55.82L128.10,55.83L128.11,55.75L128.12,55.74"/><path d="M128.03,56.61L127.95,56.62"/></g><g style="stroke:#000000;stroke-width:0.247"><path d="M128.19,55.78L128.18,55.82L128.25,57.08L128.17,57.09L127.86,56.87L127.79,55.61L127.81,55.53L127.81,55.52"/><path d="M128.02,56.50L128.03,56.52L128.04,56.63L128.04,56.64L128.03,56.61L128.02,56.51L128.02,56.50"/></g></g><g id="Actor_.37"><g style="stroke:#000000;stroke-width:0.049"><path d="M178.70,84.11L182.52,92.74"/><path d="M180.17,85.00L179.94,84.95L178.73,84.13"/><path d="M180.12,84.97L180.01,84.94L178.86,84.16L178.82,84.08"/><path d="M178.85,84.15L178.78,84.10L178.81,84.08"/><path d="M179.94,84.95L183.77,93.62"/><path d="M184.09,93.84L180.18,85.01"/><path d="M186.73,95.70L182.75,86.76"/><path d="M187.67,104.40L183.62,95.23"/><path d="M184.88,96.12L188.96,105.35"/><path d="M189.28,105.59L185.20,96.35"/><path d="M192.01,107.59L187.85,98.23"/><path d="M192.41,115.16L188.81,106.99"/><path d="M193.74,116.18L190.11,107.96"/><path d="M193.99,116.24L190.44,108.20"/><path d="M194.01,112.07L193.19,110.24"/><path d="M194.05,116.23L194.06,116.23"/></g><g style="stroke:#000000;stroke-width:0.247"><path d="M182.50,92.73L178.70,84.11L178.70,84.06L178.76,84.04"/><path d="M187.64,104.38L183.60,95.21"/><path d="M182.88,86.84L186.86,95.79"/><path d="M187.99,98.33L192.15,107.69"/><path d="M188.79,106.98L192.38,115.13L193.74,116.18L193.88,116.23L194.05,116.23"/><path d="M193.33,110.34L194.00,111.85"/><path d="M194.06,116.23L194.11,116.22"/></g></g><g id="Actor_.38"><g style="stroke:#000000;stroke-width:0.049"><path d="M138.59,56.75L138.45,56.74L138.21,56.58L139.51,62.49"/><path d="M138.44,56.74L139.75,62.65"/><path d="M138.30,56.55L138.31,56.60L138.50,56.73L138.57,56.74"/><path d="M138.21,56.58L138.20,56.57"/><path d="M138.31,56.60L138.26,56.57L138.29,56.55"/><path d="M138.60,56.76L139.93,62.79"/><path d="M141.24,70.33L139.88,64.18"/><path d="M141.48,70.50L140.12,64.34"/><path d="M140.31,64.48L141.67,70.64"/><path d="M141.69,64.02L140.34,57.94"/><path d="M141.62,72.05L142.81,77.40"/><path d="M143.05,77.59L141.86,72.22"/><path d="M143.21,77.61L142.05,72.36"/><path d="M142.07,65.73L142.82,69.13"/></g><g style="stroke:#000000;stroke-width:0.247"><path d="M139.51,62.49L138.20,56.57L138.21,56.55L138.27,56.53"/><path d="M141.24,70.32L139.88,64.17"/><path d="M141.80,64.10L140.45,58.01"/><path d="M141.62,72.04L142.80,77.40L143.06,77.59L143.14,77.61L143.25,77.60"/><path d="M142.80,68.61L142.17,65.80"/></g></g><g id="Actor_.39"><g style="stroke:#000000;stroke-width:0.049"><path d="M252.64,142.05L248.31,131.42"/><path d="M253.34,142.55L249.03,131.93L249.32,131.99"/><path d="M248.46,131.41L248.49,131.47L248.42,131.44L248.44,131.40"/><path d="M249.34,132.01L253.73,142.82"/><path d="M249.03,131.93L248.35,131.47"/><path d="M248.49,131.49L249.12,131.92L249.26,131.95"/><path d="M256.86,145.02L252.40,134.08"/><path d="M258.42,156.32L253.87,145.10"/><path d="M259.13,156.85L254.58,145.60"/><path d="M254.97,145.88L259.54,157.15"/><path d="M258.12,148.12L262.76,159.51"/><path d="M263.73,169.44L259.70,159.49"/><path d="M260.42,160.03L264.46,170.00"/><path d="M264.78,170.08L260.83,160.33"/><path d="M264.85,170.07L264.86,170.06"/><path d="M265.14,165.34L264.07,162.73"/></g><g style="stroke:#000000;stroke-width:0.247"><path d="M248.38,131.35L248.31,131.40L252.60,142.03"/><path d="M257.01,145.13L252.55,134.18"/><path d="M253.84,145.08L258.38,156.30"/><path d="M262.92,159.63L258.27,148.23"/><path d="M264.85,170.07L264.69,170.08L264.50,170.03L263.68,169.39L259.66,159.46"/><path d="M265.07,170.02L264.86,170.06"/><path d="M265.14,165.08L264.23,162.85"/></g></g><g id="Actor_.40"><g style="stroke:#000000;stroke-width:0.049"><path d="M265.90,170.84L265.99,164.15"/><path d="M265.52,170.79L265.61,163.87"/><path d="M265.10,170.47L265.20,163.56"/><path d="M265.75,153.53L265.64,161.63"/><path d="M265.33,153.24L265.22,161.32"/><path d="M266.19,143.43L265.99,143.41L265.88,143.37L265.78,151.30"/><path d="M265.43,143.03L265.46,143.08L265.46,143.33L265.36,151.00"/><path d="M265.88,143.37L265.46,143.09"/><path d="M265.64,143.08L265.64,143.10L265.58,143.04"/><path d="M265.64,143.10L266.06,143.37"/><path d="M266.13,153.81L266.02,161.91"/><path d="M266.27,143.42L266.16,151.57"/><path d="M266.27,143.42L268.28,143.05L268.38,143.02L268.42,142.97"/><path d="M267.87,170.45L268.28,143.05"/></g><g style="stroke:#000000;stroke-width:0.247"><path d="M265.16,163.54L265.07,170.41L265.10,170.47L265.52,170.79L265.62,170.83L265.76,170.85L265.90,170.84L267.97,170.42L268.02,170.36L268.42,142.97"/><path d="M265.29,153.21L265.19,161.30"/><path d="M265.49,142.98L265.43,143.03L265.32,150.98"/></g></g><g id="Actor_.41"><g style="stroke:#000000;stroke-width:0.049"><path d="M130.73,51.48L131.17,51.80L131.46,56.83"/><path d="M130.73,51.50L131.02,56.52"/><path d="M131.74,68.98L131.48,64.54"/><path d="M131.54,58.26L131.84,63.43"/><path d="M131.11,57.95L131.40,63.11"/><path d="M132.00,63.54L131.70,58.37"/><path d="M131.32,51.81L131.62,56.94"/><path d="M130.83,51.48L130.83,51.52L130.80,51.49L130.80,51.48L130.83,51.47"/><path d="M131.17,51.80L131.32,51.81"/><path d="M130.83,51.52L131.23,51.79L131.30,51.80"/><path d="M132.08,64.98L132.33,69.33"/><path d="M132.18,69.31L131.92,64.86"/><path d="M133.54,66.06L133.71,69.14"/><path d="M133.45,64.61L133.16,59.40"/><path d="M133.05,57.44L133.08,57.97"/></g><g style="stroke:#000000;stroke-width:0.247"><path d="M131.02,56.52L130.73,51.48L130.81,51.46"/><path d="M131.48,64.54L131.74,68.96L131.74,68.98L132.18,69.31L132.27,69.33L132.35,69.32L133.71,69.14L133.79,69.12L133.62,66.12"/><path d="M131.10,57.94L131.40,63.11"/><path d="M133.24,59.46L133.54,64.67"/><path d="M133.15,57.77L133.16,58.03"/></g></g><g id="Actor_.42"><g style="stroke:#000000;stroke-width:0.049"><path d="M142.67,66.16L142.95,71.58"/><path d="M142.97,59.72L142.81,59.71L142.32,59.38L142.60,64.66"/><path d="M143.09,65.00L142.81,59.71"/><path d="M142.42,59.35L142.42,59.40L142.39,59.37L142.39,59.36L142.42,59.35"/><path d="M142.32,59.38L142.32,59.36"/><path d="M142.42,59.40L142.87,59.70L142.95,59.71"/><path d="M143.69,73.57L143.92,78.14"/><path d="M143.76,78.13L143.52,73.45"/><path d="M143.03,73.09L143.27,77.76"/><path d="M143.33,66.62L143.61,72.06"/><path d="M143.16,66.51L143.44,71.94"/><path d="M142.97,59.73L143.25,65.12"/><path d="M144.85,67.71L145.13,73.18"/><path d="M144.50,60.77L144.78,66.19"/></g><g style="stroke:#000000;stroke-width:0.247"><path d="M142.67,66.16L142.95,71.58"/><path d="M142.40,59.34L142.32,59.36L142.59,64.66"/><path d="M143.03,73.09L143.27,77.74L143.27,77.76L143.76,78.13L143.86,78.15L144.02,78.13"/><path d="M145.20,72.95L144.94,67.77"/><path d="M144.59,60.83L144.86,66.25"/></g></g><g id="Actor_.43"><g style="stroke:#000000;stroke-width:0.049"><path d="M230.17,143.90L230.13,137.59"/><path d="M230.07,128.20L230.11,135.55"/><path d="M231.02,126.85L230.98,119.66L230.01,119.00L230.06,126.17"/><path d="M230.13,118.95L230.13,119.01L230.09,118.96L230.13,118.95"/><path d="M230.01,119.00L229.99,118.97"/><path d="M230.13,119.01L231.06,119.64L231.17,119.66"/><path d="M231.32,138.48L231.36,144.65"/><path d="M231.12,144.62L231.09,138.30"/><path d="M231.27,129.06L231.31,136.43"/><path d="M231.03,128.89L231.07,136.26"/><path d="M231.22,119.69L231.26,127.02"/><path d="M230.98,119.66L231.04,119.68L231.21,119.68"/><path d="M233.28,139.93L233.29,142.99"/><path d="M233.24,130.45L233.27,137.87"/><path d="M233.20,121.03L233.23,128.40"/></g><g style="stroke:#000000;stroke-width:0.247"><path d="M231.88,144.56L231.36,144.65L231.18,144.65L231.12,144.62L230.17,143.90L230.15,143.86L230.11,137.58"/><path d="M230.05,128.19L230.10,135.54"/><path d="M230.09,118.92L229.99,118.97L230.04,126.16"/><path d="M233.38,140.00L233.39,142.88"/><path d="M233.34,130.52L233.37,137.94"/><path d="M233.29,121.10L233.33,128.47"/></g></g><g id="Actor_.44"><g style="stroke:#000000;stroke-width:0.049"><path d="M246.66,156.45L246.68,149.85"/><path d="M246.71,140.02L246.69,147.72"/><path d="M248.06,131.13L247.90,131.13L247.82,131.10L246.74,130.37L246.72,137.89"/><path d="M246.86,130.32L246.86,130.37L246.82,130.36L246.82,130.33L246.85,130.31"/><path d="M246.74,130.37L246.72,130.34"/><path d="M246.86,130.38L247.90,131.09L248.01,131.10"/><path d="M248.00,150.83L247.98,157.30"/><path d="M247.73,157.26L247.75,150.64"/><path d="M248.04,140.96L248.01,148.69"/><path d="M247.78,140.78L247.76,148.50"/><path d="M248.07,131.14L248.04,138.82"/><path d="M247.82,131.10L247.79,138.65"/><path d="M250.01,156.91L250.03,152.33"/><path d="M250.07,142.41L250.04,150.18"/><path d="M250.11,135.86L250.08,140.26"/></g><g style="stroke:#000000;stroke-width:0.247"><path d="M246.66,149.84L246.64,156.42L246.66,156.45L247.73,157.26L247.85,157.30L247.98,157.30L250.01,156.91L250.08,156.89L250.11,156.85L250.13,152.40"/><path d="M246.69,140.00L246.67,147.70"/><path d="M246.81,130.28L246.72,130.33L246.70,137.88"/><path d="M250.17,142.48L250.14,150.25"/><path d="M250.20,136.10L250.18,140.33"/></g></g><g id="Actor_.45"><g style="stroke:#000000;stroke-width:0.049"><path d="M167.89,134.85L167.88,134.84"/><path d="M167.84,134.77L233.09,194.77"/><path d="M233.05,194.69L232.86,192.85L167.63,133.26"/><path d="M174.27,139.07L167.74,133.11"/><path d="M173.98,136.96L170.25,133.59"/><path d="M175.44,140.14L195.99,158.88"/><path d="M195.70,156.62L177.01,139.71"/><path d="M221.84,182.47L197.35,160.13"/><path d="M221.57,180.03L199.04,159.65"/><path d="M231.28,191.08L223.46,183.95"/><path d="M231.01,188.57L225.28,183.39"/><path d="M234.50,193.44L235.16,194.04L235.14,194.10L233.21,194.72L233.13,194.66L233.21,194.72"/><path d="M233.13,194.64L232.95,192.76L234.88,192.15L234.97,192.22L235.16,194.04"/><path d="M232.86,192.85L232.97,192.66L234.88,192.07L235.00,192.10"/><path d="M235.09,194.14L234.37,193.48"/><path d="M234.88,192.07L234.86,192.06"/><path d="M234.97,192.20L234.91,192.15"/></g><g style="stroke:#000000;stroke-width:0.247"><path d="M234.92,192.03L235.05,192.22L235.20,194.14L233.22,194.79L233.09,194.77L167.88,134.84L167.64,133.21L167.72,133.12L168.92,132.79"/><path d="M173.97,136.88L170.31,133.57"/><path d="M195.69,156.53L177.06,139.67"/><path d="M221.55,179.93L199.09,159.61"/><path d="M231.00,188.47L225.34,183.36"/></g></g><g id="Actor_.46"><g style="stroke:#000000;stroke-width:0.049"><path d="M173.67,134.71L173.68,134.73L173.18,126.77L172.74,118.74L172.35,110.62L172.01,102.41"/><path d="M172.02,102.43L172.96,103.16L173.48,115.46L173.89,123.57L174.36,131.59L174.61,135.56L175.24,140.11"/><path d="M172.11,102.39L172.17,102.46L172.17,102.43"/><path d="M173.11,103.16L172.17,102.46"/><path d="M174.31,139.25L173.68,134.73L174.60,135.56L174.73,135.60L174.87,135.59L175.50,140.12"/><path d="M174.87,135.59L174.38,127.61L173.94,119.55L173.55,111.41L173.23,103.25"/><path d="M172.96,103.16L173.15,103.19"/><path d="M174.30,139.24L174.30,139.23"/><path d="M176.47,135.15L176.45,135.19L176.34,135.24L175.64,123.28L175.23,115.21L174.79,104.45"/><path d="M176.96,139.72L176.34,135.24"/></g><g style="stroke:#000000;stroke-width:0.247"><path d="M174.92,104.55L175.18,111.07L175.55,119.18L176.22,131.19L176.47,135.15L177.08,139.63L177.06,139.68L176.96,139.72L175.38,140.14L175.24,140.11L174.30,139.24L173.67,134.71L172.94,122.75L172.53,114.67L172.01,102.41L172.07,102.36"/></g></g><g id="Actor_.47"><g style="stroke:#000000;stroke-width:0.049"><path d="M130.98,64.13L137.88,69.23L137.89,69.26L137.91,69.30"/><path d="M137.88,69.23L137.83,68.34L137.84,68.28L137.88,68.24L137.93,68.22L138.27,68.18L131.36,63.10"/><path d="M137.83,68.34L130.93,63.26"/><path d="M131.03,63.15L137.93,68.22"/><path d="M138.27,68.18L138.29,68.18L138.34,68.20"/></g><g style="stroke:#000000;stroke-width:0.247"><path d="M137.91,69.30L131.02,64.19L131.00,64.17L130.98,64.13L130.93,63.26L130.94,63.23L130.96,63.18L131.00,63.15L131.13,63.13L131.36,63.10L131.38,63.10L131.43,63.12L138.34,68.20"/></g></g><g id="Actor_.48"><g style="stroke:#000000;stroke-width:0.049"><path d="M139.44,104.00L138.89,97.05L138.38,90.01L137.91,82.92L137.49,75.75"/><path d="M140.77,108.63L140.15,104.64L139.86,101.15L139.33,94.13L138.84,87.04L138.20,76.30L137.50,75.76"/><path d="M140.98,108.64L140.36,104.65L140.08,101.17L139.54,94.15L139.10,87.78L138.42,76.38"/><path d="M137.58,75.73L137.64,75.79L137.64,75.77"/><path d="M138.20,76.30L138.35,76.32"/><path d="M137.64,75.79L138.32,76.30"/><path d="M140.07,108.00L139.45,104.02L140.14,104.64L140.24,104.67L140.36,104.65"/><path d="M141.77,104.31L141.65,104.37L140.84,93.90L140.36,86.84L139.80,77.45"/><path d="M142.26,108.31L141.65,104.37"/></g><g style="stroke:#000000;stroke-width:0.247"><path d="M139.93,77.54L140.26,83.23L140.71,90.32L141.49,100.84L141.77,104.31L142.38,108.24L142.28,108.31L140.90,108.65L140.77,108.63L140.07,108.00L139.44,104.00L138.62,93.52L138.13,86.46L137.49,75.75L137.55,75.71"/></g></g><g id="Actor_.49"><g style="stroke:#000000;stroke-width:0.049"><path d="M145.82,113.25L145.20,109.17L144.92,105.61L144.14,94.83L143.69,87.56L143.27,80.22"/><path d="M146.56,113.92L145.93,109.83L145.65,106.26L145.12,99.07L144.64,91.81L144.02,80.80L143.28,80.23"/><path d="M143.37,80.20L143.43,80.26L143.42,80.24"/><path d="M144.02,80.80L144.18,80.82"/><path d="M143.43,80.26L144.15,80.80"/><path d="M146.78,113.93L146.15,109.85L145.87,106.27L145.35,99.08L144.89,92.22L144.25,80.88"/><path d="M146.15,109.85L146.03,109.86L145.93,109.83L145.19,109.16"/><path d="M147.59,109.48L147.47,109.55L146.68,98.83L146.21,91.60L145.66,81.97"/><path d="M147.47,109.55L148.09,113.59"/></g><g style="stroke:#000000;stroke-width:0.247"><path d="M145.79,82.07L146.11,87.90L146.56,95.16L147.31,105.93L147.59,109.48L148.20,113.51L148.10,113.58L146.69,113.94L146.56,113.92L145.82,113.25L145.19,109.16L144.41,98.89L143.90,91.19L143.27,80.22L143.34,80.17"/></g></g><g id="Actor_.50"><g style="stroke:#000000;stroke-width:0.049"><path d="M136.97,75.19L265.71,174.64"/><path d="M136.85,73.03L265.59,171.11L265.89,170.85L267.98,170.47"/><path d="M137.00,72.84L137.92,73.54"/><path d="M142.76,77.22L139.16,74.48"/><path d="M142.44,75.77L140.49,74.30"/><path d="M144.01,78.17L143.97,78.14"/><path d="M149.29,82.18L144.82,78.78"/><path d="M146.17,78.59L149.23,80.90"/><path d="M163.56,93.03L150.04,82.75"/><path d="M162.52,90.93L151.42,82.55"/><path d="M166.18,95.02L166.25,95.08"/><path d="M165.35,94.39L165.32,94.37"/><path d="M172.06,99.50L166.79,95.49"/><path d="M172.01,98.09L168.26,95.26"/><path d="M173.97,100.95L178.41,104.33"/><path d="M173.01,100.22L172.94,100.16"/><path d="M178.36,102.89L175.47,100.71"/><path d="M192.26,114.86L179.34,105.03"/><path d="M191.29,112.65L180.87,104.79"/><path d="M194.11,116.27L194.05,116.22"/><path d="M195.14,117.04L195.34,117.20"/><path d="M216.21,133.07L196.30,117.93"/><path d="M216.19,131.45L197.95,117.68"/><path d="M229.00,142.80L217.38,133.96"/><path d="M219.12,133.66L228.16,140.49"/><path d="M230.15,143.67L230.04,143.58"/><path d="M231.43,144.64L231.65,144.81"/><path d="M246.64,156.21L232.56,145.50"/><path d="M246.65,154.44L234.36,145.17"/><path d="M248.06,157.29L263.55,169.07"/><path d="M249.94,156.93L262.46,166.38"/><path d="M265.84,174.53L265.73,174.44L265.84,174.53L267.89,174.08L267.98,170.69L267.86,170.58L267.98,170.69"/><path d="M265.59,174.45L265.64,171.15"/><path d="M265.73,174.44L265.74,172.55L267.81,174.13"/><path d="M265.74,172.55L265.74,172.31L267.93,173.98"/><path d="M267.86,170.58L265.80,171.03L265.74,172.31"/><path d="M264.86,170.07L265.07,170.23"/></g><g style="stroke:#000000;stroke-width:0.247"><path d="M267.94,170.43L268.10,170.66L268.02,174.09L267.80,174.26L265.71,174.64L137.06,75.32L136.85,73.03L136.92,72.87L137.68,72.74"/><path d="M142.43,75.71L140.54,74.29"/><path d="M149.23,80.84L146.23,78.58"/><path d="M162.47,90.84L151.48,82.54"/><path d="M172.00,98.03L168.32,95.25"/><path d="M178.36,102.83L175.54,100.70"/><path d="M191.25,112.56L180.94,104.77"/><path d="M216.19,131.38L198.03,117.67"/><path d="M228.12,140.39L219.20,133.65"/><path d="M246.65,154.37L234.44,145.15"/><path d="M262.41,166.26L250.02,156.91"/></g></g><g id="Actor_.51"><g style="stroke:#000000;stroke-width:0.247"><path d="M234.79,192.18L234.91,193.31L233.05,193.88"/></g></g><g id="Actor_.52"><g style="stroke:#000000;stroke-width:0.049"><path d="M137.51,62.45L267.08,154.41L267.12,153.04L137.46,61.55"/><path d="M137.55,62.52L137.57,62.52"/><path d="M267.90,152.79L267.28,152.86L137.56,61.43"/><path d="M267.81,152.76L137.90,61.39"/><path d="M137.97,61.41L137.98,61.43"/><path d="M267.15,154.53L267.10,154.43"/><path d="M267.25,154.48L267.84,154.29L267.79,152.84L267.86,152.90"/><path d="M267.84,154.29L267.19,153.82L267.20,153.03L267.79,152.84"/><path d="M267.77,154.38L267.19,153.97L267.19,154.43"/><path d="M267.19,153.82L267.19,153.97"/><path d="M267.12,153.04L267.28,152.86"/></g><g style="stroke:#000000;stroke-width:0.247"><path d="M137.85,62.73L267.15,154.53L267.87,154.39L267.90,152.79L137.83,61.40L137.47,61.51L137.53,62.48L137.85,62.73"/></g></g><g id="Actor_.53"><g style="stroke:#000000;stroke-width:0.049"><path d="M153.20,72.11L149.17,64.03"/><path d="M149.26,64.00L149.26,64.04L149.30,64.07L149.27,64.01"/><path d="M150.58,64.90L150.37,64.85L149.19,64.05"/><path d="M149.31,64.08L150.43,64.84L150.53,64.86"/><path d="M154.71,73.18L150.59,64.90"/><path d="M150.37,64.85L154.41,72.97"/><path d="M157.24,74.96L153.03,66.56"/><path d="M158.65,83.10L154.36,74.45"/><path d="M155.58,75.32L159.91,84.03"/><path d="M155.88,75.54L160.23,84.26"/><path d="M158.43,77.35L162.86,86.19"/><path d="M163.72,93.32L159.87,85.56"/><path d="M165.03,94.32L161.14,86.50"/><path d="M165.27,94.38L161.46,86.74"/><path d="M165.20,90.87L164.12,88.71"/><path d="M165.32,94.38L165.32,94.37"/><path d="M165.12,90.55L165.20,90.70"/></g><g style="stroke:#000000;stroke-width:0.247"><path d="M153.17,72.10L149.17,64.03L149.16,64.00L149.22,63.97"/><path d="M157.36,75.04L153.16,66.65"/><path d="M154.33,74.44L158.63,83.09"/><path d="M158.56,77.44L162.99,86.29"/><path d="M165.32,94.38L165.15,94.37L165.03,94.32L163.68,93.28L159.84,85.54"/><path d="M164.25,88.81L165.20,90.69"/><path d="M165.32,94.37L165.34,94.37"/></g></g><g id="Actor_.54"><g style="stroke:#000000;stroke-width:0.049"><path d="M143.99,78.31L144.87,74.45"/><path d="M145.63,75.02L144.77,78.79"/><path d="M145.49,74.91L144.60,78.77"/><path d="M144.81,78.78L144.82,78.78"/><path d="M146.19,68.66L145.16,73.20"/><path d="M146.22,78.59L146.85,75.91"/><path d="M146.18,78.59L146.17,78.59"/><path d="M146.97,69.21L145.92,73.76"/><path d="M146.82,69.10L145.77,73.65"/><path d="M148.20,70.08L147.14,74.65"/><path d="M148.31,63.36L147.26,67.94"/><path d="M148.31,63.35L148.20,63.35L148.14,63.33L147.11,67.83"/><path d="M147.50,62.88L147.51,62.90L146.48,67.39"/><path d="M148.50,68.81L148.62,68.30"/><path d="M148.14,63.33L147.51,62.90"/><path d="M147.60,62.87L147.59,62.91L148.20,63.33L148.28,63.34"/><path d="M147.59,62.91L147.56,62.88L147.60,62.87"/></g><g style="stroke:#000000;stroke-width:0.247"><path d="M144.86,74.45L143.99,78.28L143.99,78.31L144.60,78.77L144.68,78.79L144.81,78.78"/><path d="M144.82,78.78L146.17,78.59"/><path d="M146.18,68.65L145.15,73.19"/><path d="M146.18,78.59L146.26,78.58L146.30,78.55L146.91,75.96"/><path d="M148.26,70.13L147.20,74.70"/><path d="M147.57,62.85L147.50,62.88L146.47,67.39"/><path d="M148.56,68.85L148.63,68.55"/></g></g><g id="Actor_.55"><g style="stroke:#000000;stroke-width:0.049"><path d="M125.98,48.18L126.00,48.18"/><path d="M125.89,48.05L240.71,126.03L240.71,122.84L125.76,45.93"/><path d="M132.05,49.85L125.91,45.75"/><path d="M127.18,45.60L130.89,48.06"/><path d="M132.91,50.43L148.11,60.57"/><path d="M148.05,59.43L133.95,50.08"/><path d="M149.14,61.26L177.42,80.14"/><path d="M177.39,78.87L150.54,61.08"/><path d="M215.61,105.64L178.72,81.01"/><path d="M180.28,80.79L215.60,104.19"/><path d="M240.71,122.84L240.94,122.55L217.29,106.76"/><path d="M242.94,122.24L219.05,106.48"/><path d="M240.71,126.03L240.83,126.22"/><path d="M240.94,122.55L242.82,122.23"/></g><g style="stroke:#000000;stroke-width:0.247"><path d="M130.86,47.99L127.30,45.64L125.78,45.85L125.98,48.18L240.77,126.18"/><path d="M133.99,50.06L148.05,59.38"/><path d="M150.60,61.07L177.38,78.81"/><path d="M215.59,104.13L180.34,80.77"/><path d="M242.94,122.24L219.12,106.46"/><path d="M240.83,126.22L240.85,126.22"/></g></g><g id="Actor_.56"><g style="stroke:#000000;stroke-width:0.049"><path d="M240.71,126.03L266.01,143.21L266.06,139.80L266.13,139.60L266.31,139.49L266.27,139.46"/><path d="M240.71,122.84L266.06,139.80"/><path d="M240.94,122.55L265.09,138.67"/><path d="M242.99,122.27L242.99,122.28"/><path d="M242.82,122.23L265.12,137.00"/><path d="M266.08,143.38L266.01,143.21"/><path d="M266.21,143.29L266.26,143.29L266.14,143.21L266.21,143.29"/><path d="M266.26,143.29L268.26,142.93L268.35,142.87L268.39,142.77L266.16,141.27L266.18,139.77L266.22,139.67L266.31,139.62L268.28,139.26L268.44,139.36L268.39,142.77"/><path d="M266.14,143.21L266.16,141.51L268.26,142.93"/><path d="M266.16,141.51L266.16,141.27"/><path d="M266.31,139.49L268.32,139.12L268.49,139.17"/><path d="M268.32,139.12L267.77,138.76"/><path d="M268.44,139.36L268.40,139.28L268.28,139.26"/></g><g style="stroke:#000000;stroke-width:0.247"><path d="M267.77,138.69L268.49,139.17L268.56,139.27L268.50,142.82L268.44,142.95L268.26,143.06L266.27,143.42L266.13,143.41L240.78,126.19L240.71,126.03L240.71,122.84L240.74,122.71L240.82,122.60L240.94,122.55L242.82,122.23L242.94,122.24L265.12,136.93"/></g></g><g id="Actor_.57"><g style="stroke:#000000;stroke-width:0.049"><path d="M221.27,177.41L221.29,177.44L220.95,168.18L220.67,158.81L220.30,139.69"/><path d="M223.21,183.90L222.62,178.63L222.44,174.00L222.14,164.65L221.90,155.19L221.67,140.78L220.32,139.73"/><path d="M220.42,139.68L220.49,139.76L220.49,139.73"/><path d="M221.85,140.78L220.49,139.76"/><path d="M223.53,183.93L222.94,178.67L222.77,178.68L222.62,178.63L221.29,177.44L221.88,182.69"/><path d="M222.94,178.67L222.60,169.38L222.33,159.97L222.13,150.45L222.00,140.90"/><path d="M221.67,140.78L221.91,140.83"/><path d="M225.23,183.42L224.65,178.22L224.48,173.60L224.07,159.59L223.88,150.10L223.77,142.27"/><path d="M224.65,178.22L224.77,178.16L224.78,178.10"/></g><g style="stroke:#000000;stroke-width:0.247"><path d="M223.91,142.37L224.01,150.03L224.21,159.51L224.62,173.51L224.78,178.10L225.36,183.32L225.23,183.42L223.39,183.95L223.21,183.90L221.86,182.67L221.27,177.41L220.93,168.13L220.55,154.44L220.30,139.69L220.36,139.63"/></g></g><g id="Actor_.58"><g style="stroke:#000000;stroke-width:0.049"><path d="M195.39,154.19L195.40,154.22L194.97,145.66L194.59,137.01L194.28,128.26L194.00,119.38"/><path d="M197.13,160.09L196.51,155.21L196.29,150.93L195.89,142.29L195.54,133.56L195.14,120.29L194.02,119.42"/><path d="M194.18,119.42L195.30,120.29"/><path d="M194.18,119.45L194.12,119.37"/><path d="M196.02,159.08L195.40,154.22L196.51,155.20L196.64,155.25L196.79,155.24L197.41,160.11"/><path d="M196.01,159.05L196.01,159.06"/><path d="M196.79,155.24L196.37,146.67L195.99,137.97L195.68,129.19L195.43,120.39"/><path d="M195.14,120.29L195.35,120.33"/><path d="M198.51,154.74L198.49,154.79L198.38,154.84L197.77,141.98L197.44,133.28L197.09,121.67"/><path d="M197.90,141.91L197.90,141.89"/><path d="M198.98,159.66L198.38,154.84"/></g><g style="stroke:#000000;stroke-width:0.247"><path d="M197.23,121.77L197.42,128.83L197.73,137.57L198.29,150.48L198.51,154.74L199.11,159.58L198.98,159.66L197.29,160.13L197.13,160.09L196.01,159.06L195.39,154.19L194.95,145.64L194.58,136.99L194.26,128.24L194.00,119.40"/><path d="M194.00,119.38L194.07,119.34"/></g></g><g id="Actor_.59"><g style="stroke:#000000;stroke-width:0.049"><path d="M230.72,185.89L230.74,185.92L230.44,176.41L230.21,166.78L229.92,147.12"/><path d="M229.94,147.17L231.39,148.28L231.55,163.33L231.74,172.82L232.00,182.43L232.15,187.18L232.73,192.60"/><path d="M230.05,147.11L230.11,147.19L230.11,147.16"/><path d="M230.11,147.19L231.57,148.29"/><path d="M231.32,191.31L230.74,185.92L232.15,187.18L232.31,187.24L232.48,187.22L233.06,192.63"/><path d="M231.39,148.28L231.63,148.34"/><path d="M232.48,187.22L232.19,177.68L231.97,168.02L231.81,158.23L231.72,148.40"/><path d="M234.38,186.65L234.24,186.75L233.85,172.44L233.67,162.76L233.54,149.81"/><path d="M234.24,186.75L234.81,192.09"/></g><g style="stroke:#000000;stroke-width:0.247"><path d="M233.68,149.91L233.74,157.78L233.89,167.53L234.23,181.92L234.38,186.65L234.94,191.97L234.92,192.03L234.81,192.09L232.94,192.65L232.73,192.60L231.30,191.28L230.71,185.85L230.37,174.44L230.09,161.87L229.92,147.12L229.99,147.06"/></g></g><g id="Actor_.60"><g style="stroke:#000000;stroke-width:0.049"><path d="M151.20,113.28L151.21,113.30L150.67,106.02L150.18,98.68L149.58,88.27"/><path d="M152.58,118.00L151.98,113.98L151.19,103.01L150.73,95.62L150.35,88.80"/><path d="M152.81,118.01L152.21,114.00L151.93,110.36L151.18,99.34L150.75,91.91L150.50,87.24"/><path d="M152.21,114.00L152.08,114.01L151.98,113.98L151.21,113.30L151.81,117.31"/><path d="M154.13,117.59L153.55,113.70L153.03,106.49L152.55,99.22L151.93,88.19"/><path d="M152.08,88.70L152.08,88.70"/><path d="M153.55,113.70L153.65,113.66L153.67,113.63"/></g><g style="stroke:#000000;stroke-width:0.247"><path d="M151.25,86.28L151.96,88.28L152.08,88.68L152.45,95.50L152.90,102.80L153.67,113.63L154.25,117.51L154.13,117.59L152.73,118.02L152.59,118.01L151.81,117.30L151.20,113.28L150.41,102.35L149.95,94.97L149.57,88.26"/></g></g><g id="Actor_.61"><g style="stroke:#000000;stroke-width:0.049"><path d="M167.35,91.10L166.23,95.23"/><path d="M167.82,91.45L166.72,95.49"/><path d="M167.65,91.33L166.54,95.47"/><path d="M166.77,95.48L166.78,95.48"/><path d="M168.31,95.25L169.09,92.39"/><path d="M168.26,95.26L168.25,95.26"/><path d="M169.51,85.21L168.18,90.10"/><path d="M169.02,84.87L167.71,89.75"/><path d="M169.34,85.09L168.02,89.98"/><path d="M169.46,91.04L170.80,86.13"/><path d="M170.68,78.65L170.69,78.67L169.39,83.51"/><path d="M171.21,78.91L169.87,83.84"/><path d="M171.20,78.91L171.10,78.91L171.01,78.88L169.71,83.73"/><path d="M171.47,83.68L171.18,84.76"/><path d="M170.79,78.63L170.78,78.67L171.08,78.88L171.17,78.89"/><path d="M170.69,78.67L171.01,78.88"/><path d="M170.78,78.67L170.75,78.65L170.79,78.63"/></g><g style="stroke:#000000;stroke-width:0.247"><path d="M166.77,95.48L166.66,95.50L166.55,95.48L166.22,95.21L167.33,91.09"/><path d="M166.78,95.48L168.25,95.26"/><path d="M168.26,95.26L168.36,95.24L168.39,95.21L169.15,92.43"/><path d="M169.01,84.85L167.69,89.74"/><path d="M170.86,86.17L169.52,91.08"/><path d="M170.76,78.61L170.70,78.63L170.68,78.65L169.38,83.49"/><path d="M171.48,83.91L171.24,84.80"/></g></g><g id="Actor_.62"><g style="stroke:#000000;stroke-width:0.049"><path d="M195.98,117.88L200.65,115.76"/><path d="M195.27,117.23L195.26,117.23"/><path d="M195.28,117.35L199.93,115.23"/><path d="M200.83,115.89L196.26,117.96"/><path d="M196.31,117.95L196.32,117.95"/><path d="M198.01,117.67L201.26,116.21"/><path d="M198.05,117.66L198.03,117.67"/><path d="M197.96,117.68L197.95,117.68"/><path d="M207.15,111.93L201.46,114.53"/><path d="M208.10,112.61L202.38,115.20"/><path d="M207.91,112.48L202.20,115.06"/><path d="M208.56,112.93L202.81,115.51"/><path d="M214.56,108.41L214.54,108.46L214.61,108.53L208.76,111.20"/><path d="M215.73,109.16L209.73,111.87"/><path d="M210.19,112.20L215.89,109.63"/><path d="M214.61,108.53L215.42,109.08L209.54,111.74"/><path d="M214.67,108.45L214.66,108.46L214.68,108.45"/><path d="M215.16,108.78L215.11,108.80L214.69,108.51L214.66,108.48L214.66,108.46"/><path d="M215.72,109.16L215.58,109.15L215.42,109.08"/><path d="M215.64,109.11L215.50,109.06L215.21,108.87L215.26,108.85"/><path d="M215.21,108.87L215.11,108.80"/></g><g style="stroke:#000000;stroke-width:0.247"><path d="M199.82,115.15L195.24,117.25L195.24,117.30L195.28,117.35L196.01,117.90L196.18,117.96L196.31,117.95"/><path d="M196.32,117.95L197.95,117.68"/><path d="M197.96,117.68L198.03,117.67L198.37,117.52L198.05,117.66"/><path d="M198.37,117.52L201.26,116.21"/><path d="M207.03,111.85L201.36,114.44"/><path d="M203.91,115.02L202.81,115.52L208.56,112.93"/><path d="M214.60,108.40L208.64,111.11"/><path d="M210.19,112.20L212.78,111.04L211.67,111.54"/><path d="M212.78,111.04L215.89,109.64L214.99,110.04"/></g></g><g id="PMI4.0"><g><path style="stroke:#000000;stroke-width:0.350" d="M107.46,125.81L119.61,125.53"/></g><g><path style="fill:#000000" d="M119.64,126.39L119.60,124.65L121.36,125.48z"/></g><g><path style="fill:#ffffff" d="M76.03,129.28L107.48,129.28L107.48,123.07L76.03,123.07z"/><path style="stroke:#000000;stroke-width:0.350;stroke-opacity:0.98" d="M76.03,129.28L107.48,129.28L107.48,123.07L76.03,123.07z"/><text xml:space="preserve" fill="#000000" stroke-width="0" x="76.81" y="127.53" font-size="3.79" opacity="1.00" font-family="MS Shell Dlg">314131-02119NN</text></g></g><g id="PMI3.0"><g><path style="stroke:#000000;stroke-width:0.350" d="M200.48,20.19L199.79,35.15"/></g><g><path style="fill:#000000" d="M198.92,35.12L200.65,35.20L199.71,36.89z"/></g><g><path style="fill:#ffffff" d="M185.11,20.21L216.13,20.21L216.13,14.00L185.11,14.00z"/><path style="stroke:#000000;stroke-width:0.350;stroke-opacity:0.98" d="M185.11,20.21L216.13,20.21L216.13,14.00L185.11,14.00z"/><text xml:space="preserve" fill="#000000" stroke-width="0" x="185.88" y="18.46" font-size="3.79" opacity="1.00" font-family="MS Shell Dlg">314200-02135EB</text></g></g><g/><g id="paperID" visibility="hidden" opacity="0.00" transform="scale(0.000100)"><path style="stroke:#000000;stroke-width:0.500;fill:#e6e6e6;fill-rule:evenodd" d="M-2000.00,-2000.00L2297.00,-2000.00L2297.00,2210.00L-2000.00,2210.00zM0.00,0.00L297.00,0.00L297.00,210.00L0.00,210.00z"/><path style="fill:#000000;fill-opacity:0.118" d="M3.00,210.00L297.00,210.00L297.00,3.00L300.00,3.00L300.00,213.00L3.00,213.00z"/></g><g id="hotspot.0" onmouseover="ShowHotSpot(evt,'0')" onmouseout="HideHotSpot(evt,'0')" onmousemove="ShowToolTip(evt,'0',&quot;3dp418478 (I_PAT TREO DEN SAU.2)&quot;)" opacity="0"><path style="fill:#ff6820;fill-rule:evenodd" d="M198.01,35.57L198.99,35.69L199.57,34.69L199.92,25.82L200.22,25.60L200.53,36.50L273.26,69.81L273.22,72.50L272.65,72.94L272.23,74.57L269.52,100.54L268.15,126.82L268.16,172.40L267.63,173.92L265.04,173.80L233.64,149.69L234.35,182.98L234.87,193.90L234.23,194.34L232.86,194.26L175.51,141.46L168.34,134.81L167.70,133.81L167.61,132.84L168.82,132.40L166.28,98.46L164.20,95.93L151.88,86.69L153.98,117.11L152.75,119.53L151.44,119.50L136.59,105.62L130.46,97.42L129.39,96.43L128.86,94.41L127.33,76.47L125.28,43.19L125.28,6.99L125.62,3.21L127.35,3.21zM185.01,19.82L185.01,13.98L216.45,13.98L216.45,19.82L200.88,20.12L200.51,25.39L200.22,25.60L200.07,20.12zM148.32,15.54L147.81,33.62L147.87,58.71L134.98,50.39L133.48,48.30L128.35,37.56L127.30,34.51L126.82,30.39L126.82,19.28L127.32,6.45L128.87,6.26zM178.60,29.84L177.51,50.52L177.04,78.18L150.74,60.75L150.37,48.82L150.37,36.18L150.89,21.33L151.24,17.03L151.87,16.98zM205.68,42.16L218.03,48.27L216.27,70.84L215.39,103.32L214.45,103.11L181.14,81.04L180.55,80.09L180.59,50.01L181.61,31.52L182.63,31.35zM130.42,46.80L129.47,46.77L127.88,45.71L127.29,44.76L127.30,40.10zM269.17,71.87L269.17,76.64L266.45,104.64L265.11,136.56L219.52,106.16L219.50,83.80L220.88,57.53L221.86,49.87zM130.95,54.62L130.44,54.55L130.39,50.84zM137.61,55.96L137.61,60.77L136.05,59.55L135.88,54.91L136.52,54.87zM130.38,57.02L131.45,62.16L131.43,65.93L130.44,65.76L129.89,65.20L129.38,62.13L129.40,56.44zM142.24,58.99L142.21,63.85L141.64,63.27L140.99,58.51L141.67,58.42zM133.98,60.01L135.53,65.25L134.56,65.23L133.98,64.70L133.48,62.14L133.52,59.48zM147.37,62.64L147.33,63.80L146.29,66.89L145.27,66.24L144.51,60.62zM136.92,62.06L137.54,62.04L138.11,66.92L137.03,64.22zM136.05,67.75L137.07,71.04L136.09,70.87L133.84,68.95L134.00,66.18zM164.25,73.86L164.76,79.70L162.72,78.46L157.57,74.91L153.84,67.17L154.40,67.20zM145.79,68.17L145.78,70.50L145.22,72.04L145.29,67.68zM152.50,70.97L151.24,70.51L151.38,68.25zM141.20,69.98L140.70,69.90L140.63,67.22zM137.63,75.39L138.08,84.15L139.68,105.30L137.61,103.57L130.88,94.43L130.41,91.32L128.64,68.81zM148.86,70.73L148.88,75.62L147.83,74.95L147.81,72.02L148.37,70.24zM141.71,71.80L142.25,75.08L141.20,74.40L140.61,73.44L140.48,71.31L141.16,71.21zM153.45,73.40L154.99,75.44L158.12,82.25L151.40,77.50L151.25,72.32L151.87,72.29zM170.34,78.04L170.36,79.70L169.29,82.82L168.34,82.66L167.78,82.10L167.28,79.03L167.27,75.91zM148.82,77.00L148.87,80.23L146.64,78.67L146.81,76.06L147.32,75.94zM143.24,80.02L145.30,110.43L142.70,108.21L142.17,106.18L141.16,95.42L139.92,77.50L140.13,77.45zM164.77,81.54L164.70,86.93L163.73,86.75L159.54,79.00L159.57,77.98zM159.68,85.09L161.72,88.81L161.65,89.47L160.67,89.30L151.91,82.62L151.92,79.49zM176.51,82.15L175.47,87.36L174.45,86.72L174.29,81.02L174.91,81.00zM148.83,84.16L149.35,87.23L151.43,116.08L148.34,113.33L147.82,110.27L146.28,89.27L146.29,82.05zM168.87,84.66L167.77,89.47L167.79,83.58zM193.44,93.83L193.37,99.74L192.44,99.53L186.74,95.41L183.42,87.26L183.64,87.20zM182.18,91.98L181.11,91.34L181.08,89.25zM169.94,91.15L169.77,89.98L170.75,86.13L171.32,86.11L171.41,92.01zM171.92,94.36L171.91,97.64L168.79,95.40L168.77,93.49L169.33,92.32zM175.12,89.05L174.43,93.05L174.32,88.67zM183.62,94.95L187.30,103.76L181.11,99.51L181.11,93.32zM177.00,94.05L177.55,91.39L178.05,91.30L178.01,96.66L177.02,96.51zM213.98,107.71L213.91,108.35L210.15,110.29L207.76,110.24L196.97,102.59L196.82,96.38L197.44,96.36zM178.06,98.97L178.06,102.25L175.81,100.68L175.95,98.60L176.51,97.42zM193.42,102.04L193.96,108.37L192.40,107.67L188.74,100.04L188.78,98.44zM171.92,102.04L172.90,120.51L173.99,136.53L170.81,133.76L170.75,133.34L171.30,132.95L169.29,100.01zM188.81,106.66L190.89,111.95L181.10,104.64L181.10,101.01zM206.75,111.52L202.58,113.51L201.06,113.91L196.82,110.93L196.98,104.58zM193.95,118.92L195.47,156.02L177.54,139.94L176.97,138.46L176.49,134.34L175.46,115.39L175.48,104.58zM210.65,111.79L215.30,109.68L215.92,109.71L215.90,115.61L214.97,115.40L210.74,112.27zM229.80,118.41L229.73,125.34L228.77,125.15L224.14,121.51L221.51,114.39L221.54,112.80zM215.97,117.90L215.96,124.78L203.59,115.86L203.43,114.91L208.08,112.76L208.75,112.78zM199.56,114.83L198.96,115.42L196.80,115.59L196.97,112.78zM215.90,126.67L215.91,130.46L214.95,130.27L198.48,117.91L198.46,117.12L200.40,116.39L202.12,116.36zM220.06,118.63L219.56,118.55L219.47,116.39zM221.14,121.45L224.70,130.88L221.60,129.17L219.51,127.67L219.51,120.46zM243.57,127.68L245.12,129.41L241.83,133.33L240.56,133.31L233.85,128.70L233.69,121.47L234.31,121.45zM220.00,138.96L221.04,168.65L221.61,179.55L213.40,172.18L202.14,161.94L199.53,159.94L199.01,157.90L198.51,153.28L197.33,121.99L197.97,121.94zM229.73,127.69L229.77,135.03L229.30,134.91L225.53,125.03L226.09,125.06zM222.07,131.26L226.17,134.83L227.75,139.61L219.51,133.82L219.35,129.67L219.99,129.63zM240.00,135.04L236.73,138.94L234.89,138.94L233.86,137.91L233.85,130.70zM265.13,142.48L265.11,150.38L257.42,145.07L255.34,141.01L253.27,135.89L253.29,134.30zM244.02,134.49L246.68,131.77L246.68,137.58L244.06,135.84zM246.68,139.93L246.68,147.31L238.43,141.48L238.38,140.65L241.86,136.84L242.54,136.83zM252.28,141.03L251.31,141.02L250.73,140.48L250.71,136.88zM234.41,140.40L234.41,141.75L233.88,142.28L233.88,139.87zM253.82,145.08L257.97,155.48L250.23,150.20L250.23,147.81L250.74,142.48zM246.68,149.66L246.68,153.97L234.84,145.04L234.84,144.28L236.96,142.51zM229.80,146.57L230.80,187.77L225.66,183.48L225.14,180.42L224.62,171.21L223.96,142.47L224.59,142.43zM265.06,152.78L265.13,160.61L263.06,159.40L258.87,149.68L258.76,148.64L259.40,148.58zM259.41,158.95L262.01,165.10L261.05,165.07L250.23,156.87L250.23,152.21z"/></g><g id="hotspot.1" onmouseover="ShowHotSpot(evt,'1')" onmouseout="HideHotSpot(evt,'1')" onmousemove="ShowToolTip(evt,'1',&quot;3dp418606 (I_TON HONG PHAI.2)&quot;)" opacity="0"><path style="fill:#ff6820;fill-rule:evenodd" d="M79.24,58.50L167.32,142.48L171.88,146.63L182.17,156.85L182.09,158.51L181.49,158.96L182.12,181.96L182.67,191.13L183.18,191.67L183.19,193.39L182.16,192.69L179.61,189.59L121.14,125.63L120.18,125.78L119.22,123.50L91.53,93.32L77.15,77.50L74.07,73.92L73.54,72.91L71.84,53.44L72.57,51.85zM110.61,125.46L110.82,125.16L119.18,125.12zM107.68,125.31L110.61,125.46L107.68,126.11L107.39,128.89L75.94,128.89L75.94,123.05L107.39,123.04zM75.69,64.10L76.63,66.75L77.20,74.58L75.13,72.86L74.56,71.38L73.88,62.63z"/></g></g></svg>
