<?xml version="1.0" encoding="UTF-8" standalone="no"?>
<svg xmlns="http://www.w3.org/2000/svg" xmlns:xlink="http://www.w3.org/1999/xlink" width="297.000mm" height="210.000mm" viewBox="0.000000 0.000000 297.000000 210.000000" stroke-linejoin="round" stroke-linecap="round" fill="none" fill-rule="evenodd"><desc>Composer Export</desc><script type="text/ecmascript"><![CDATA[
if(typeof(top) != "undefined")
{
	top.ShowPaper = ShowPaper;
}
function ShowHotSpot(evt,hotspotid)
{
	var svgDocument = evt.target.ownerDocument;
	var strId = "hotspot."+hotspotid;
	var hotspot = svgDocument.getElementById(strId);
	if(hotspot)
		hotspot.setAttribute("opacity",".5");
}
function HideHotSpot(evt,hotspotid)
{
	var svgDocument = evt.target.ownerDocument;
	var strId = "hotspot."+hotspotid;
	var hotspot = svgDocument.getElementById(strId);
	if(hotspot)
		hotspot.setAttribute("opacity","0");

	var toolTip = svgDocument.getElementById('ToolTip');
	if(toolTip)
		toolTip.setAttribute("visibility","hidden");
}
function ShowToolTip(evt,hotspotid,strTooltip)
{
	if(strTooltip=="")
	return;

	// change text
	var svgDocument = evt.target.ownerDocument;
	var tiptext = svgDocument.getElementById('ToolTipText');
	if( !tiptext )
	return;
	tiptext.firstChild.nodeValue = " " + strTooltip + "  " ;

	// show tooltip before, else some refresh issue

	var toolTip = svgDocument.getElementById('ToolTip');
	if(!toolTip)
	return;

	toolTip.setAttribute("visibility","visible");
	toolTip.setAttribute("opacity",".95");

	// move tooltip
	// get viewbox

	var root = svgDocument.documentElement;
	var vbox = (root.getAttribute("viewBox")).split(' ');
	var x0 = parseFloat(vbox[0]);
	var y0 = parseFloat(vbox[1]);
	var vboxW = parseFloat(vbox[2]);
	var vboxH = parseFloat(vbox[3]);

	// get default width of svg

	var strW = root.getAttribute("width");
	var svgW = parseFloat(strW);
	if(strW.indexOf('mm') != -1)
	svgW *= 3.779;

	var strH = root.getAttribute("height");
	var svgH = parseFloat(strH);
	if(strH.indexOf('mm') != -1)
	svgH *= 3.779;  	// 96 dpi  -> 96/25.4 = 3.779

	// update the viewbox / width / height if svg is embedded in html with zoom fit all
	var realx0 = x0;
	var realy0 = y0;
	var realvboxW = vboxW;
	var realvboxH = vboxH;
	var realsvgW = svgW;
	var realsvgH = svgH;

	if ((typeof(top) == "undefined") || (typeof(top.svgctl1) != "undefined")) // embedded in html
	{
		// get window size in pxl

		svgW = window.innerWidth;
		svgH = window.innerHeight;

		// calculate real viewbox

		realsvgW = svgW;
		realsvgH = svgH;
		if((svgW / svgH) > (vboxW / vboxH))
		{
			realvboxW = (vboxH * svgW) / svgH;
			realvboxH = vboxH;
			realx0 = x0 - (realvboxW - vboxW)/2 ;
		}
		else
		{
			realvboxH = (vboxW * svgH) / svgW;
			realvboxW = vboxW;
			realy0 = y0 - (realvboxH - vboxH)/2 ;
		}
	}

	// get user zoom/pan

	var newScale = root.currentScale;
	var translation = root.currentTranslate;

	// transform pxl to user unit

	var xPos = (((evt.clientX+10- translation.x)/newScale) * realvboxW)/realsvgW  + realx0 ;
	var yPos = (((evt.clientY+5- translation.y)/newScale) * realvboxH)/ realsvgH  + realy0 ;
	var scaleForWidth = ( (1 / newScale) * realvboxH) / realsvgH;

	// move tooltip

	toolTip.setAttribute("transform", "translate(" + xPos + "," + yPos + ")" );

	// resize tooltip

	var fontsize = 12;
	tiptext.setAttribute("font-size",fontsize*scaleForWidth);
	tiptext.setAttribute("y", fontsize*scaleForWidth);
	var tipBG = svgDocument.getElementById('ToolTipBG');
	var outline = tiptext.getBBox();
	if(tipBG)
	{
		tipBG.setAttribute("stroke-width", 1*scaleForWidth);
		tipBG.setAttribute("width", Number(outline.width) );
		tipBG.setAttribute("height", Number(outline.height) + fontsize*.5*scaleForWidth );
	}
	var ToolTipShadow = svgDocument.getElementById('ToolTipShadow');
	if(ToolTipShadow)
	{
		ToolTipShadow.setAttribute("width", Number(outline.width) );
		ToolTipShadow.setAttribute("height", Number(outline.height) + fontsize*.5*scaleForWidth );
		ToolTipShadow.setAttribute("x", 3*scaleForWidth);
		ToolTipShadow.setAttribute("y", 3*scaleForWidth);
	}
}
function ShowPaper()
{
  var svgDocument = getDocument();
  var paper = svgDocument.getElementById("paperID");
  if(paper)
  {
    paper.setAttribute("transform","scale(1)");
    paper.setAttribute("opacity","1");
    paper.setAttribute("visibility","visible");
  }
  var svg = svgDocument.getRootElement();
  if(svg)
  {
    svg.setAttribute("width","307.000mm");
    svg.setAttribute("height","220.000mm");
    svg.setAttribute("viewBox","-5.000000 -5.000000 307.000000 220.000000");
  }
}
]]></script><defs/><g><g id="Actor_.0"><g style="stroke:#000000;stroke-width:0.123"><path d="M151.64,90.80L151.91,90.63L152.07,90.37L152.10,90.06L151.98,89.77L151.75,89.55L151.44,89.46L151.12,89.50L150.85,89.67L150.69,89.93L150.66,90.24L150.77,90.53L150.99,90.72"/><path d="M151.41,89.32L151.75,89.55L152.12,89.76L152.14,89.55L151.43,89.12L151.41,89.32L151.17,89.46L150.90,89.60L150.67,89.70L150.64,90.51L150.98,90.73"/><path d="M151.43,89.12L150.69,89.50L150.67,89.70"/><path d="M150.76,89.31L150.81,89.10L150.91,88.95L151.05,88.84L151.21,88.76"/><path d="M150.75,89.35L150.74,89.38L150.74,89.39"/><path d="M152.16,89.58L152.17,89.51L152.15,89.31L152.09,89.16L151.99,89.02L151.86,88.91L151.67,88.83L151.47,88.80L151.27,88.83L151.08,88.91L150.94,89.02L150.83,89.16L150.75,89.32L150.73,89.48"/><path d="M151.37,89.15L151.24,89.17L151.04,89.25L150.90,89.36L150.86,89.41"/><path d="M150.76,89.46L150.78,89.41L150.88,89.28L151.00,89.17L151.20,89.06L151.42,89.03L151.65,89.06L151.86,89.15L151.98,89.26L152.07,89.40L152.13,89.55"/><path d="M152.15,89.69L152.16,89.60L152.15,89.44L152.09,89.29L152.00,89.15L151.87,89.04L151.66,88.94L151.43,88.91L151.22,88.95L151.02,89.05L150.89,89.16L150.80,89.29L150.74,89.46L150.73,89.47"/><path d="M151.03,90.30L151.00,90.19L151.08,89.98L151.27,89.86L151.50,89.86L151.68,90.00L151.75,90.21L151.68,90.39"/><path d="M151.64,90.81L151.86,90.70L152.10,90.56L152.12,89.76"/><path d="M151.71,90.11L151.71,90.11"/><path d="M151.07,90.02L151.06,90.02"/><path d="M152.06,89.50L151.97,89.38L151.85,89.27L151.67,89.18L151.46,89.14"/><path d="M151.21,88.76L151.48,88.73L151.65,88.76L151.79,88.83L151.91,88.92L151.90,88.94"/><path d="M152.10,90.56L152.12,90.36L152.14,89.55"/><path d="M152.13,89.87L152.14,89.83L152.14,89.79"/><path d="M152.14,89.82L152.15,89.73L152.14,89.61"/></g></g><g id="Actor_.1"><g style="stroke:#000000;stroke-width:0.123"><path d="M150.98,90.81L151.11,90.66L151.31,90.60L151.50,90.68L151.62,90.85L151.61,91.05L151.48,91.20L151.28,91.25L151.08,91.18L150.97,91.01L150.98,90.81L151.07,90.01"/><path d="M151.61,91.05L151.71,90.10"/><path d="M151.39,89.86L151.31,90.60"/><path d="M151.52,88.74L151.53,88.62"/><path d="M151.21,88.76L151.22,88.65"/><path d="M151.65,87.56L151.66,87.45L151.74,87.32L151.95,87.21L152.28,87.13"/><path d="M151.40,87.55L151.56,87.35L151.80,87.23L152.16,87.14L152.78,87.02"/><path d="M154.83,86.06L154.84,86.05L154.99,86.02L155.18,86.02L155.34,86.06L155.38,86.09"/></g></g><g id="Actor_7.0"><g style="stroke:#000000;stroke-width:0.123"><path d="M133.00,32.91L133.12,32.95L133.18,33.15L133.13,33.42L133.00,33.64L132.83,33.75L132.69,33.70L132.63,33.50L132.62,33.43L132.65,33.23L132.75,33.05L132.81,33.01L132.98,32.90L134.64,33.55"/><path d="M132.83,33.75L134.35,34.34"/><path d="M132.62,33.43L132.66,33.58L132.77,33.62L132.90,33.54L133.00,33.36L133.04,33.16L132.99,33.01L132.88,32.97L132.75,33.05"/><path d="M133.18,33.15L134.62,33.72"/></g></g><g id="Actor_4.0"><g style="stroke:#000000;stroke-width:0.123"><path d="M128.94,46.77L128.88,47.12L128.86,47.51L128.89,47.87L128.93,48.10L128.96,48.20L128.99,48.30L129.08,48.48L129.18,48.63L129.23,48.70L129.29,48.75L129.43,48.85L129.57,48.91L129.65,48.92L129.73,48.93L129.89,48.92L130.06,48.88L130.14,48.84L130.23,48.80L130.40,48.69L130.57,48.55L130.65,48.47L130.89,48.19L131.10,47.86L131.22,47.61L131.38,47.22L131.49,46.81L131.56,46.40L131.59,46.01L131.56,45.64L131.51,45.41L131.48,45.31L131.45,45.21L131.36,45.03L131.26,44.88L131.20,44.82L131.08,44.71L131.01,44.67L130.86,44.61L130.79,44.60L130.71,44.59L130.54,44.60L130.38,44.65L130.29,44.69L130.12,44.78L130.04,44.84L129.95,44.91L129.79,45.06L129.55,45.35L129.34,45.68L129.20,45.96"/><path d="M130.95,49.38L129.57,48.91"/><path d="M129.73,47.04L129.73,47.12L129.76,47.26L129.78,47.32L129.83,47.42L129.90,47.49L129.94,47.52L129.98,47.53L130.08,47.54L130.18,47.52L130.23,47.49L130.33,47.41L130.38,47.37L130.52,47.18L130.59,47.04L130.65,46.88L130.70,46.63L130.70,46.40L130.69,46.33L130.66,46.20L130.63,46.14L130.57,46.06L130.53,46.03L130.45,45.99L130.40,45.98L130.30,45.99L130.25,46.01L130.15,46.07L130.05,46.16L129.99,46.23"/><path d="M130.94,44.64L132.25,45.10"/></g></g><g id="Actor_87.0"><g style="stroke:#000000;stroke-width:0.123"><path d="M78.57,33.00L78.94,33.63L79.42,34.08L80.52,34.64L101.90,40.69L102.41,40.75L102.79,40.70L103.32,40.49L104.10,39.90L104.55,39.39L105.24,38.34L105.80,37.07L111.08,18.87L111.38,17.47L111.46,16.06L111.30,14.91L110.93,14.06L110.58,13.62L110.13,13.33L109.12,13.03L86.26,10.23L85.62,10.27L85.02,10.49L84.30,11.06L83.77,11.70L83.28,12.56L82.74,14.00L78.44,29.74L78.28,30.81L78.28,31.74L78.37,32.36L78.57,33.00"/><path d="M79.36,32.02L100.77,37.79"/><path d="M80.97,32.11L80.88,31.29L81.07,30.09L85.24,14.92L85.71,13.75L86.31,12.94"/><path d="M80.96,32.10L81.10,32.34"/><path d="M81.07,32.32L101.19,37.74"/><path d="M107.42,14.88L107.57,14.92L85.27,11.93"/><path d="M86.22,13.01L86.61,12.79"/><path d="M86.44,12.80L107.99,15.74"/><path d="M100.74,37.79L101.09,37.78"/><path d="M101.01,37.81L101.68,37.37L102.30,36.51"/><path d="M102.29,36.52L102.77,35.34L107.80,17.78L107.99,16.93"/><path d="M107.98,16.94L108.00,15.83L107.73,15.03"/><path d="M107.78,15.11L107.50,14.87"/></g></g><g id="Actor_7.1"><g style="stroke:#000000;stroke-width:0.123"><path d="M184.97,63.31L188.03,64.41L187.98,64.69L187.82,64.92L187.60,65.01L184.55,63.92L184.76,63.83L184.92,63.60L184.97,63.31L184.89,63.09L184.70,63.01L184.48,63.10L184.32,63.33L184.28,63.56L184.27,63.61L184.36,63.84L184.55,63.92"/><path d="M184.28,63.56L184.35,63.73L184.49,63.79L184.66,63.72L184.79,63.54L184.82,63.32L184.76,63.15L184.61,63.09L184.44,63.16L184.32,63.34"/><path d="M184.70,63.01L187.75,64.10L187.94,64.19L188.03,64.41"/><path d="M187.40,65.20L187.64,65.24L187.88,65.15L188.08,64.93L188.21,64.65L188.24,64.34L188.16,64.09L188.00,63.93L187.98,63.92L188.15,64.08L188.22,64.34L188.19,64.64L188.06,64.93L187.86,65.14L187.62,65.24L187.40,65.20L187.24,65.04L187.19,64.86"/><path d="M188.11,65.11L187.45,65.41L187.79,65.53L188.10,65.43L188.31,65.33L188.45,65.23L188.60,64.91L188.68,64.63L188.71,64.39L188.37,64.27L188.11,65.11L188.45,65.23"/><path d="M187.45,65.41L187.05,64.86L187.06,64.82"/><path d="M187.72,64.99L187.54,65.01L187.46,64.96"/><path d="M187.75,64.10L187.83,64.11L187.98,64.21"/><path d="M187.50,64.01L187.52,63.98L187.76,63.88L187.98,63.92"/><path d="M188.37,64.27L187.97,63.72L187.40,63.98"/><path d="M187.97,63.72L188.31,63.85L188.55,64.12L188.71,64.39"/></g></g><g id="Actor_3.0"><g style="stroke:#000000;stroke-width:0.123"><path d="M168.41,120.18L168.43,120.25L168.50,120.31L168.67,120.42L169.01,120.61L169.05,120.62L169.16,120.59L169.08,120.57L168.87,120.46L168.55,120.28L168.41,120.18L168.43,120.18L168.70,120.34L169.01,120.51L169.10,120.54L169.18,120.55L169.11,120.53L168.99,120.47L168.63,120.28L168.40,120.13L168.41,120.10L168.58,120.21L168.92,120.40L169.15,120.51L169.19,120.53L169.21,120.52L169.20,120.55L169.18,120.55"/><path d="M168.89,120.03L169.07,120.12L169.25,120.21L169.32,120.23L169.38,120.24L169.27,120.20L169.09,120.11L168.82,119.96L168.58,119.81L168.63,119.87L168.89,120.03"/><path d="M169.33,120.32L169.27,120.31L169.21,120.29L168.93,120.15L168.58,119.95L168.53,119.89L168.84,120.08L169.18,120.26L169.33,120.32L169.34,120.31L169.35,120.29L169.35,120.29L169.32,120.29L169.29,120.27L169.06,120.16L168.79,120.01L168.55,119.87L168.53,119.89"/><path d="M168.52,120.02L168.49,119.97L168.66,120.08L169.00,120.27L169.18,120.36L169.29,120.40L169.20,120.39L169.05,120.32L168.72,120.14L168.52,120.02L168.46,120.02L168.62,120.13L168.97,120.32L169.14,120.41L169.25,120.45L169.26,120.45L169.23,120.39"/><path d="M168.47,120.10L168.44,120.05L168.61,120.16L168.85,120.29L169.11,120.43L169.23,120.47L169.15,120.47L169.00,120.40L168.68,120.22L168.47,120.10L168.41,120.10"/><path d="M168.40,120.13L168.43,120.18"/><path d="M169.28,120.31L169.31,120.37L169.30,120.37L169.19,120.33L169.01,120.24L168.74,120.09L168.50,119.94L168.49,119.97"/><path d="M168.44,120.05L168.46,120.02"/><path d="M168.40,120.13L168.40,120.13"/><path d="M169.67,119.62L169.95,119.14L170.72,119.54L170.43,120.02L169.67,119.62L168.60,118.97L168.31,118.73L168.59,118.25L168.75,118.33"/><path d="M169.00,119.23L168.99,119.23L168.93,119.23L169.17,119.38L169.44,119.53L169.44,119.49L169.20,119.35L169.00,119.23"/><path d="M169.73,119.65L169.71,119.68L169.65,119.68L169.58,119.66L169.47,119.60L169.22,119.47L168.98,119.33L168.94,119.31L168.91,119.26L169.22,119.44L169.52,119.60L169.69,119.68L169.71,119.68L169.72,119.66"/><path d="M168.86,119.33L168.91,119.39L169.26,119.60L169.54,119.74L169.60,119.76L169.66,119.76L169.60,119.74L169.47,119.68L169.10,119.48L168.86,119.33L168.88,119.31L169.12,119.46L169.39,119.61L169.62,119.72L169.65,119.73L169.68,119.73L169.66,119.76"/><path d="M168.90,119.39L168.83,119.39L169.07,119.54L169.34,119.69L169.57,119.80L169.61,119.81L169.64,119.81L169.62,119.84L169.61,119.84L169.57,119.83L169.47,119.78L169.13,119.60L168.83,119.42L168.82,119.42L168.83,119.39"/><path d="M168.82,119.41L168.86,119.47L169.21,119.68L169.49,119.81L169.55,119.84L169.61,119.84"/><path d="M168.85,119.47L168.78,119.47L169.02,119.62L169.30,119.77L169.47,119.86L169.58,119.89L169.59,119.89L169.56,119.84"/><path d="M168.89,119.60L169.17,119.76L169.39,119.87L169.48,119.91L169.57,119.92L169.46,119.88L169.28,119.79L168.94,119.60L168.77,119.49L168.80,119.55L168.89,119.60"/><path d="M168.80,119.55L168.74,119.55L168.98,119.69L169.25,119.85L169.43,119.93L169.54,119.97L169.54,119.97L169.52,119.92"/><path d="M168.72,119.57L168.77,119.63L169.12,119.84L169.39,119.97L169.46,119.99L169.51,120.00L169.43,119.97L169.31,119.91L168.94,119.70L168.73,119.57L168.74,119.55"/><path d="M169.47,120.08L169.39,120.07L169.29,120.03L169.07,119.92L168.75,119.73L168.71,119.70L168.68,119.65L168.99,119.84L169.28,120.00L169.45,120.07L169.47,120.08L169.50,120.05L169.49,120.05L169.43,120.04L169.20,119.92L168.93,119.77L168.69,119.63L168.76,119.62"/><path d="M168.66,119.78L168.63,119.73L168.87,119.88L169.14,120.03L169.34,120.13L169.42,120.16L169.34,120.15L169.18,120.08L168.87,119.91L168.66,119.78L168.60,119.79L168.77,119.89L169.11,120.08L169.29,120.17L169.39,120.21L169.40,120.21L169.37,120.15"/><path d="M168.77,119.49L168.78,119.47"/><path d="M168.93,119.23L168.91,119.26"/><path d="M168.88,119.31L168.94,119.31"/><path d="M168.69,119.63L168.68,119.65"/><path d="M169.42,120.07L169.45,120.13L169.44,120.13L169.33,120.09L169.15,120.00L168.88,119.85L168.64,119.71L168.71,119.70"/><path d="M168.55,119.87L168.62,119.86"/><path d="M168.99,119.23L168.97,119.20"/><path d="M168.58,119.81L168.60,119.79"/><path d="M168.64,119.71L168.63,119.73"/><path d="M168.57,119.94L168.50,119.94"/><path d="M168.59,118.25L168.89,118.49L168.60,118.97"/><path d="M168.89,118.49L169.95,119.14"/><path d="M170.47,119.03L170.59,119.12L170.66,119.22L170.65,119.31L170.57,119.44L170.50,119.42L170.33,119.34L169.73,119.00L169.15,118.65L168.92,118.50L168.77,118.40L168.74,118.35L168.81,118.22L168.89,118.16L169.00,118.18L169.14,118.24"/><path d="M169.38,120.24L169.40,120.21"/><path d="M169.35,120.29L169.33,120.23"/><path d="M169.21,120.52L169.19,120.47"/><path d="M169.16,120.59L169.14,120.55"/><path d="M169.50,120.05L169.47,119.99"/><path d="M169.45,120.13L169.43,120.15L169.42,120.16"/><path d="M169.26,120.45L169.24,120.47L169.23,120.47"/><path d="M169.31,120.37L169.29,120.40"/><path d="M169.51,120.00L169.53,119.99L169.54,119.97"/><path d="M169.57,119.92L169.59,119.89"/><path d="M169.44,119.48L169.44,119.49"/><path d="M169.44,119.53L169.46,119.49"/><path d="M169.68,119.73L169.66,119.68"/><path d="M169.64,119.81L169.61,119.76"/><path d="M170.75,118.15L170.71,118.14L170.57,118.07L170.16,117.83L169.96,117.71L169.82,117.62L169.77,117.57L169.12,118.27L169.22,118.34L169.40,118.46L169.91,118.77L170.35,119.01L170.45,119.06L170.75,118.15L170.70,118.11L170.54,118.01"/><path d="M169.77,117.57L169.82,117.59L170.01,117.69"/><path d="M170.72,119.54L170.58,119.43"/><path d="M170.61,117.89L170.30,117.72L170.22,117.86L170.52,118.04L170.61,117.89L170.46,117.78"/><path d="M170.39,117.76L170.25,117.65L170.65,116.96L170.72,116.89L170.82,116.97L170.80,117.07L170.39,117.76L170.45,117.80L170.86,117.10L170.80,117.07"/><path d="M170.22,117.86L170.00,117.69L170.09,117.55L170.25,117.64"/><path d="M170.30,117.72L170.09,117.55"/><path d="M170.67,117.08L170.69,117.05L170.71,117.04L170.71,117.06L170.69,117.10L170.67,117.13L170.65,117.14L170.65,117.12L170.67,117.08L170.70,117.10"/><path d="M170.82,116.97L170.89,117.01L170.86,117.10"/><path d="M170.89,117.01L170.79,116.93L170.72,116.89"/></g></g><g id="Actor_2.0"><g style="stroke:#000000;stroke-width:0.123"><path d="M166.98,192.00L166.93,191.90L166.89,191.75L166.80,191.34L166.84,190.85L167.02,191.51L166.98,192.00"/><path d="M166.98,192.00L167.38,192.19L167.70,192.28L167.38,192.19L167.00,192.01"/><path d="M166.95,191.07L167.03,191.28L167.22,191.47L167.51,191.61L167.85,191.67L168.19,191.65L168.47,191.55L168.65,191.39L168.71,191.18L168.65,191.41L168.47,191.58L168.18,191.68L167.85,191.70L167.51,191.63L167.22,191.50L167.02,191.31L166.95,191.09L166.95,191.07L167.02,190.86L167.20,190.70L167.30,190.66"/><path d="M166.84,190.85L167.30,190.64"/><path d="M168.19,192.26L168.45,192.16L168.19,192.26L167.97,192.31L167.70,192.28"/><path d="M167.97,192.31L168.01,191.81L168.83,191.45L168.79,191.94L168.45,192.16"/><path d="M167.02,191.51L168.01,191.81"/><path d="M167.27,191.08L167.54,187.51L167.62,187.66L167.79,187.79L168.03,187.86L168.29,187.87L168.51,187.81L168.65,187.69L168.69,187.54L168.41,191.11L168.41,191.13"/><path d="M167.69,187.30L167.66,187.44L167.76,187.59L167.95,187.69L168.19,187.73L168.42,187.68L168.56,187.57L168.59,187.43L168.49,187.28L168.30,187.18L168.05,187.15L168.00,187.16L167.83,187.19L167.69,187.30"/><path d="M167.54,187.51L167.58,187.35L167.73,187.24L167.83,187.19"/><path d="M168.71,191.18L168.64,190.96L168.43,190.77"/><path d="M168.83,191.45L168.64,190.79L168.44,190.72"/><path d="M168.69,187.54L168.61,187.38L168.49,187.28"/></g></g><g id="Actor_88.0"><g style="stroke:#000000;stroke-width:0.123"><path d="M177.64,62.00L177.81,62.28L178.09,62.44L178.44,62.42L178.78,62.23L179.08,61.89L179.28,61.45L179.35,60.98L179.29,60.56L179.10,60.24L178.81,60.08L178.47,60.10L178.12,60.30L177.83,60.64L177.63,61.07L177.56,61.54L177.62,61.96L177.64,62.00"/><path d="M178.09,62.44L178.23,62.48L178.57,62.47L178.59,62.46L178.93,62.27L179.23,61.93L179.43,61.50L179.50,61.04L179.44,60.62L179.23,60.29L178.94,60.13L178.81,60.08"/><path d="M178.10,61.48L178.21,61.69L178.42,61.73L178.63,61.60L178.78,61.34L178.80,61.04L178.69,60.84L178.49,60.79L178.27,60.92L178.12,61.19L178.10,61.48"/><path d="M178.12,61.19L178.26,61.23L178.40,60.97L178.62,60.84L178.70,60.86"/><path d="M178.26,61.23L178.23,61.52L178.34,61.71"/><path d="M178.51,60.90L178.39,61.01L178.27,61.24L178.24,61.49L178.28,61.61"/><path d="M178.66,60.85L178.59,60.85"/></g></g><g id="Actor_.2"><g style="stroke:#000000;stroke-width:0.123"><path d="M150.19,123.68L150.12,123.51L150.01,123.37L149.86,123.26L149.75,123.22L149.63,123.22L149.53,123.28L149.49,123.41L149.52,123.57"/><path d="M149.53,123.57L149.49,123.38"/><path d="M167.13,122.15L167.38,122.44L167.60,122.79L167.74,123.15L167.79,123.50L167.62,125.70L167.49,126.06L167.18,126.51L166.71,126.93L166.26,127.22L165.73,127.49L165.12,127.73L164.45,127.94L163.72,128.12L162.67,128.30L161.83,128.40L160.95,128.45L159.76,128.47L158.85,128.43L157.64,128.33L156.46,128.15L155.61,127.98L154.54,127.70L153.55,127.37L152.67,126.99L151.74,126.46L151.16,126.00L150.82,125.65L150.57,125.29L150.52,125.29L150.61,123.44L150.41,122.94L149.43,122.44L149.36,122.38L149.34,122.29L149.27,123.73"/><path d="M149.34,122.29L149.40,122.20L149.54,122.14L149.96,122.10L150.35,122.19L150.47,122.28L150.49,122.37L150.55,122.14L150.71,121.81L150.95,121.49L151.22,121.23"/><path d="M150.00,122.12L149.72,122.12L149.54,122.16L149.40,122.26L149.39,122.34L149.51,122.45L150.45,122.93L150.43,122.31L150.25,122.18L150.00,122.12"/><path d="M150.42,125.08L150.52,125.29"/><path d="M150.57,125.29L150.66,123.43L150.61,123.44"/><path d="M151.18,121.32L150.84,121.71L150.60,122.15L150.53,122.50L150.57,122.97L150.65,123.20L150.85,123.56L150.80,123.57L150.98,123.80L151.46,124.27L151.92,124.60L152.65,125.02L153.28,125.32L153.98,125.58L155.00,125.90L155.82,126.10L156.97,126.31L157.87,126.43L159.08,126.53L159.99,126.56L161.18,126.54L162.05,126.48L163.16,126.34L164.18,126.14L164.89,125.95L165.52,125.72L166.26,125.38L166.73,125.10L167.21,124.69L167.48,124.36L167.69,123.90L167.74,123.54L167.72,123.31L167.67,123.07L167.44,122.59L167.15,122.23"/><path d="M151.15,123.10L150.79,123.47"/><path d="M167.79,123.62L167.72,123.98L167.56,124.32L167.40,124.54L167.09,124.86L166.84,125.07L166.39,125.35L165.46,125.78L164.81,126.00L164.10,126.19L162.79,126.42L161.37,126.55L159.87,126.58L158.36,126.50L156.86,126.32L155.44,126.03L154.13,125.66L152.98,125.21L152.01,124.70L151.25,124.14L150.91,123.79L150.66,123.43"/><path d="M150.41,122.94L150.36,123.91"/><path d="M150.84,123.63L150.85,123.56"/><path d="M150.20,123.75L150.20,123.75"/><path d="M150.41,122.90L150.42,122.59"/><path d="M167.01,124.05L167.36,124.52"/></g></g><g id="Actor_89.0"><g style="stroke:#000000;stroke-width:0.123"><path d="M151.50,104.87L151.27,109.62L151.35,109.96L151.45,110.19L151.80,110.65L152.32,111.09L153.00,111.50L153.86,111.90L154.84,112.25L155.94,112.55L157.13,112.80L158.38,112.98L159.67,113.09L160.96,113.14L162.23,113.11L163.44,113.02L164.58,112.86L165.60,112.63L166.50,112.35L167.25,112.02L167.83,111.64L168.24,111.23L168.37,111.02L168.49,110.68L168.84,105.92"/><path d="M169.04,103.04L169.33,103.44L169.50,103.93L169.51,104.20L169.42,105.08L169.26,105.44L168.98,105.78L168.60,106.10L168.27,106.31L167.62,106.63L166.97,106.87L166.02,107.13L165.22,107.29L163.46,107.50L161.21,107.56L158.90,107.43L156.68,107.10L155.79,106.90L154.69,106.60L153.71,106.25L152.87,105.86L152.30,105.54L151.73,105.11L151.39,104.74L151.11,104.26L151.02,103.83L151.08,102.85L151.30,102.38L151.64,102.00L151.61,102.71"/><path d="M151.64,102.00L151.88,97.15L151.92,97.46L152.06,97.77L152.22,97.97L152.53,98.28L153.28,98.78L154.29,99.24L155.52,99.64L157.23,100.04L158.80,100.28L160.43,100.43L162.07,100.48L163.66,100.43L165.14,100.28L166.70,99.98L167.76,99.65L168.58,99.25L169.12,98.79L169.31,98.50L169.39,98.20L169.37,97.89L169.24,97.59L169.10,97.38L168.80,97.08L168.10,96.59L166.94,96.06L165.51,95.60L164.14,95.29L162.66,95.05L160.82,94.88L158.96,94.83L157.47,94.89L155.81,95.07L154.59,95.32L153.38,95.71L152.62,96.11L152.28,96.37L152.05,96.66L151.91,96.95L151.88,97.15"/><path d="M151.61,102.66L151.60,102.69L151.61,102.66"/><path d="M152.85,98.06L153.49,98.55L154.20,98.92L155.29,99.34L156.32,99.63L157.74,99.93L158.97,100.11L160.23,100.23L161.82,100.29L163.07,100.27L164.53,100.15L165.85,99.94L166.76,99.70L167.53,99.43L168.25,99.02L168.55,98.75L168.70,98.57L168.79,98.38L168.85,98.08L168.79,97.78L168.70,97.58L168.48,97.29L168.16,97.00L167.74,96.71L167.23,96.44L166.00,95.95L164.48,95.54L162.80,95.24L161.01,95.06L159.20,95.00L157.46,95.07L155.87,95.27L154.51,95.58L153.61,95.92L153.18,96.16L152.84,96.41L152.60,96.68L152.46,96.97L152.43,97.26L152.50,97.56L152.68,97.86L152.85,98.06"/><path d="M168.99,103.77L169.39,98.20"/></g></g><g id="Actor_.3"><g style="stroke:#000000;stroke-width:0.123"><path d="M149.30,126.07L149.29,126.25L149.40,126.40L149.59,126.47L149.78,126.42L149.91,126.28L149.92,126.10L149.81,125.95L149.62,125.88L149.43,125.92L149.30,126.07L149.40,125.03"/><path d="M149.91,126.28L150.01,125.11"/><path d="M149.62,125.88L149.71,124.89"/><path d="M149.84,123.53L149.86,123.26"/><path d="M149.57,123.25L149.54,123.56"/><path d="M150.61,121.23L150.30,121.34L150.09,121.50L150.01,121.67L149.97,122.10"/><path d="M151.34,121.00L150.50,121.22L150.15,121.35L149.92,121.52L149.80,121.65L149.70,121.85L149.68,122.11"/><path d="M150.15,123.57L150.15,123.65"/><path d="M150.36,121.92L150.29,122.06L150.28,122.16"/><path d="M150.72,121.80L150.42,121.91L150.33,121.98"/></g></g><g id="Actor_86.0"><g style="stroke:#000000;stroke-width:0.123"><path d="M130.95,49.40L129.82,49.08L129.84,49.00"/><path d="M129.82,49.08L130.94,49.41"/><path d="M133.58,53.74L133.55,53.32L133.40,53.12L131.26,52.44L130.82,52.21L130.49,51.72L130.43,51.14L136.34,31.60L136.63,31.12L137.08,30.85L137.67,30.84L167.34,36.47L167.80,36.70L169.87,38.81"/><path d="M132.98,57.01L132.65,56.91L132.98,57.01"/><path d="M133.00,57.02L133.98,57.34L133.00,57.02"/><path d="M132.76,56.94L132.78,56.95"/><path d="M132.61,56.90L133.60,53.57"/><path d="M163.66,38.02L138.44,33.00L137.88,33.07L137.60,33.23L137.07,33.76L136.49,34.94L132.52,48.00L132.36,48.86L132.41,49.63L132.67,50.22L132.99,50.47"/><path d="M133.00,50.47L132.51,50.29L132.32,50.10L132.06,49.51L132.01,48.74L132.17,47.88L136.14,34.80L136.72,33.63L137.25,33.09L137.53,32.93L138.07,32.86L163.32,37.87L163.87,38.18L164.22,38.82L164.31,39.70L164.13,40.67L159.43,55.41L159.25,55.88L158.74,56.69L158.10,57.24L157.76,57.39L157.11,57.40L133.00,50.47"/><path d="M133.00,49.75L132.93,49.96L133.68,50.19L134.99,45.88L134.24,45.66L133.00,49.75"/><path d="M133.95,57.33L133.89,57.31"/><path d="M134.27,57.43L133.88,57.30"/><path d="M133.42,53.15L133.38,53.11"/><path d="M133.51,53.26L133.55,53.33"/><path d="M133.60,53.54L133.58,53.43"/><path d="M165.80,59.35L160.19,60.96L159.67,60.94L133.93,53.24"/><path d="M133.68,50.19L133.42,50.10L134.73,45.79"/><path d="M133.42,50.10L133.00,49.98"/><path d="M133.75,36.09L133.68,36.31L134.83,36.60"/><path d="M133.68,36.31L134.84,36.56"/><path d="M134.32,57.44L135.46,53.69"/><path d="M134.00,53.26L134.10,53.28"/><path d="M136.88,37.01L137.63,37.22L136.88,37.01L138.09,33.01"/><path d="M137.63,37.22L138.89,33.09"/><path d="M137.38,37.12L138.62,33.04"/><path d="M171.50,60.47L171.23,60.82L170.88,61.00L169.09,61.45L166.15,61.68L162.65,61.62L159.19,61.28L156.38,60.72L155.37,60.39L154.68,60.04L154.34,59.69L154.30,59.47"/><path d="M154.18,59.30L154.44,59.65"/><path d="M154.51,54.56L154.64,52.71L154.73,52.96L155.00,53.19L156.06,53.65L157.65,54.04L159.77,54.36"/><path d="M154.54,54.44L154.45,54.60"/><path d="M154.41,54.59L154.50,54.51"/><path d="M154.64,52.71L154.76,52.47L155.09,52.24L156.34,51.86L158.23,51.59L160.69,51.45"/><path d="M160.67,51.54L158.49,51.66L156.76,51.91L155.56,52.27L155.12,52.63L155.13,52.87L155.33,53.11L156.11,53.51L157.71,53.94L159.80,54.27"/><path d="M167.44,54.39L163.62,53.39L162.06,58.27L166.11,59.44L167.71,54.49L167.44,54.39L165.84,59.35"/><path d="M162.06,58.27L166.11,59.44"/><path d="M165.68,55.96L164.11,55.59L163.94,55.68L163.68,56.08L163.66,56.55L163.83,56.77"/><path d="M163.48,56.62L163.39,56.45L163.41,56.00L163.52,55.76L163.84,55.49L165.62,55.92L165.85,56.18L165.87,56.40L165.72,56.88L165.39,57.15L163.48,56.62"/><path d="M172.05,41.04L177.77,46.90L177.99,47.38L177.98,48.00L175.35,56.06L175.02,56.56L174.64,56.81L166.18,59.24"/><path d="M168.58,43.95L166.77,43.56L170.93,44.52L168.61,43.96"/><path d="M166.77,43.56L166.86,43.28"/><path d="M170.93,44.52L172.55,39.49L170.29,38.99"/><path d="M170.66,44.41L172.28,39.38"/><path d="M171.50,60.48L171.50,60.42L171.40,60.49"/><path d="M171.50,60.40L171.70,60.17L171.77,59.92L171.73,59.56L171.59,59.35L171.67,58.00L171.56,59.49"/><path d="M171.49,60.43L171.50,60.41"/><path d="M171.43,60.46L171.37,60.54L171.43,60.47"/><path d="M171.60,59.00L171.61,58.85"/><path d="M171.58,59.33L171.59,59.46"/><path d="M171.60,59.38L171.58,59.36"/><path d="M171.67,57.95L171.70,57.66L171.67,57.95"/></g></g><g id="Actor_7.2"><g style="stroke:#000000;stroke-width:0.123"><path d="M166.11,39.87L166.16,39.82L166.38,39.70L166.57,39.77L166.65,40.00L166.60,40.31L166.43,40.57L166.21,40.69L166.02,40.62L165.94,40.39L165.94,40.31L165.98,40.07L166.11,39.87L166.28,39.78L166.42,39.83L166.48,40.00L166.49,40.01L166.45,40.25L166.32,40.45L166.15,40.54L166.00,40.49L165.94,40.31"/><path d="M167.87,41.38L166.02,40.62"/><path d="M166.65,40.00L168.22,40.65"/><path d="M166.57,39.77L168.24,40.46"/></g></g><g id="Actor_4.1"><g style="stroke:#000000;stroke-width:0.123"><path d="M133.14,32.96L133.30,32.66L133.53,32.33L133.77,32.06L133.94,31.91L134.03,31.84L134.12,31.78L134.29,31.70L134.46,31.64L134.55,31.62L134.63,31.62L134.79,31.63L134.94,31.68L135.01,31.71L135.08,31.76L135.20,31.87L135.29,32.00L135.35,32.10L135.39,32.19L135.46,32.39L135.51,32.61L135.52,32.72L135.53,33.10L135.50,33.51L135.44,33.78L135.33,34.19L135.17,34.59L134.97,34.96L134.75,35.29L134.50,35.57L134.33,35.72L134.24,35.78L134.15,35.84L133.98,35.92L133.81,35.97L133.72,35.99L133.64,35.99L133.48,35.98L133.33,35.93L133.26,35.89L133.20,35.84L133.08,35.73L132.97,35.58L132.93,35.50L132.89,35.41L132.82,35.21L132.78,34.99L132.76,34.88L132.75,34.50L132.79,34.10L132.86,33.76"/><path d="M134.85,36.51L133.40,35.96"/><path d="M133.92,33.27L134.01,33.17L134.12,33.08L134.17,33.05L134.27,33.02L134.37,33.02L134.41,33.04L134.46,33.06L134.53,33.13L134.59,33.22L134.61,33.28L134.62,33.35L134.64,33.49L134.62,33.73L134.55,33.98L134.44,34.21L134.31,34.40L134.26,34.45L134.15,34.53L134.10,34.56L134.00,34.59L133.95,34.59L133.85,34.57L133.81,34.55L133.74,34.48L133.71,34.44L133.66,34.33L133.64,34.19L133.63,34.06"/><path d="M136.17,32.17L134.94,31.68"/></g></g><g id="Actor_.4"><g style="stroke:#000000;stroke-width:0.123"><path d="M150.97,87.69L151.03,87.62L151.18,87.58L151.62,87.55L152.03,87.63L152.15,87.69L152.18,87.76L152.29,87.51L152.48,87.27L152.75,87.04L153.11,86.82L153.54,86.62L154.05,86.44L154.83,86.23L155.49,86.09L154.97,86.10L154.70,86.05L154.54,85.96L154.54,85.88L154.75,85.80L155.11,85.78L156.55,85.90L157.86,85.78L159.00,85.76L160.19,85.76L161.69,85.82L163.46,86.00L165.15,86.26L166.69,86.62L167.81,86.96L168.92,87.44L169.36,87.69L169.72,87.95L169.99,88.22L170.17,88.49L170.25,88.67L170.27,88.93L170.10,91.13L169.97,91.39L169.74,91.65L169.54,91.81L169.17,92.04L168.70,92.26L167.95,92.51L167.07,92.73L166.33,92.86L165.53,92.97L164.39,93.07L162.56,93.12L160.35,93.03L158.18,92.79L157.30,92.64L156.19,92.40L155.18,92.13L154.49,91.90L153.70,91.57L153.19,91.32L152.65,90.96L152.27,90.59L152.37,88.56L152.32,88.56L152.26,88.49L152.10,88.19L151.07,87.80L151.00,87.76L150.97,87.69L150.91,88.95"/><path d="M152.10,88.16L151.12,87.79L151.03,87.73L151.03,87.69L151.13,87.61L151.37,87.57L151.87,87.60L152.12,87.72L152.12,88.00L152.15,88.18L152.10,88.16L152.11,87.93"/><path d="M151.14,88.79L151.25,88.63L151.39,88.59L151.58,88.65L151.78,88.82"/><path d="M151.18,88.70L151.21,88.75"/><path d="M151.20,88.76L151.18,88.71"/><path d="M152.27,90.59L152.22,90.59L152.11,90.43"/><path d="M152.22,90.59L152.32,88.56"/><path d="M152.57,88.71L152.57,88.66L152.52,88.67L152.83,88.94L153.22,89.20L154.07,89.62L155.14,90.01L156.40,90.35L157.81,90.63L159.33,90.84L160.91,90.98L162.49,91.04L164.03,91.02L165.49,90.91L166.81,90.73L167.95,90.48L168.89,90.17L169.59,89.80L169.80,89.64L170.03,89.40L170.17,89.14L170.22,88.88L170.17,88.61L170.03,88.34L169.80,88.07L169.35,87.72L168.91,87.47L168.40,87.22L167.61,86.92L166.94,86.71L165.44,86.34L163.49,86.02L161.42,85.82L159.33,85.77L158.46,85.79L158.37,87.76L156.48,87.91L155.05,88.15L153.86,88.48L153.36,88.67L152.84,88.95"/><path d="M170.27,88.93L170.24,89.11L170.11,89.37L169.89,89.62L169.57,89.85L168.84,90.21L167.89,90.52L166.47,90.81L165.11,90.97L163.62,91.05L162.06,91.05L160.47,90.97L158.90,90.81L157.41,90.58L156.04,90.28L154.82,89.93L153.80,89.53L153.00,89.10L152.64,88.83L152.37,88.56"/><path d="M152.06,89.11L152.10,88.19"/><path d="M158.48,85.80L156.85,85.92L155.38,86.13L154.14,86.44L153.32,86.75L152.92,86.97L152.62,87.19L152.39,87.43L152.26,87.69L152.22,87.95L152.27,88.21L152.36,88.39L152.57,88.66"/><path d="M154.96,86.08L154.65,86.00L154.58,85.95L154.58,85.89L154.77,85.81L155.03,85.79L156.56,85.91L155.39,86.09L154.96,86.08"/><path d="M154.50,86.31L154.52,85.92"/><path d="M158.37,87.75L160.11,87.73L161.90,87.82L163.37,87.98L165.05,88.25L166.57,88.61L167.69,88.97L168.78,89.45L169.45,89.89"/></g></g><g id="Actor_7.3"><g style="stroke:#000000;stroke-width:0.123"><path d="M128.91,46.75L128.77,46.69L128.74,46.58L128.85,46.63L128.97,46.56L129.07,46.38L129.11,46.18L129.07,46.02L128.96,45.97L128.83,46.05L128.89,46.00L129.05,45.91L129.19,45.97L129.25,46.17L129.20,46.43L129.07,46.66L128.91,46.75L130.45,47.29"/><path d="M128.83,46.05L128.73,46.22L128.70,46.43L128.74,46.58"/><path d="M129.25,46.17L130.69,46.68"/><path d="M130.71,46.49L129.05,45.91"/></g></g><g id="Actor_4.2"><g style="stroke:#000000;stroke-width:0.123"><path d="M166.17,39.81L166.27,39.63L166.43,39.36L166.72,38.98L167.04,38.67L167.37,38.43L167.49,38.37L167.72,38.27L167.94,38.21L168.06,38.19L168.17,38.19L168.38,38.21L168.58,38.27L168.68,38.31L168.77,38.37L168.94,38.50L169.08,38.68L169.15,38.77L169.21,38.88L169.30,39.11L169.34,39.24L169.40,39.51L169.43,39.95L169.39,40.42L169.29,40.90L169.13,41.38L168.91,41.83L168.65,42.23L168.35,42.59L168.02,42.88L167.90,42.96L167.67,43.09L167.44,43.18L167.33,43.22L167.22,43.24L167.00,43.25L166.89,43.25L166.68,43.20L166.58,43.17L166.40,43.06L166.23,42.93L166.16,42.84L166.09,42.75L165.97,42.55L165.88,42.31L165.84,42.19L165.77,41.78L165.76,41.33L165.82,40.86L165.94,40.39"/><path d="M166.58,43.17L168.49,43.93L168.59,43.96L168.80,43.98L169.02,43.97L169.14,43.94L169.25,43.91L169.48,43.82L169.71,43.69L169.94,43.52L170.15,43.32L170.46,42.97L170.64,42.71L170.80,42.42L170.94,42.12L171.05,41.81L171.17,41.33L171.22,41.01L171.23,40.70L171.22,40.41L171.18,40.13L171.11,39.87L171.06,39.75L170.95,39.53L170.89,39.43L170.74,39.26L170.57,39.13L170.48,39.07L168.58,38.27"/><path d="M167.29,40.07L167.40,39.97L167.53,39.88L167.60,39.85L167.74,39.81L167.87,39.82L167.93,39.84L167.99,39.86L168.09,39.95L168.13,40.00L168.19,40.13L168.24,40.38L168.22,40.65L168.14,40.94L168.01,41.20L167.83,41.42L167.63,41.57L167.56,41.60L167.42,41.63L167.29,41.63L167.23,41.61L167.18,41.58L167.08,41.50L167.00,41.38L166.97,41.31L166.93,41.16L166.92,40.99"/></g></g><g id="Actor_.5"><g style="stroke:#000000;stroke-width:0.123"><path d="M149.34,125.68L148.99,125.45L149.02,124.71L149.04,124.44L149.75,124.11L149.73,124.38L149.50,124.50L149.44,124.53L149.24,124.63L149.02,124.71"/><path d="M149.34,125.67L149.12,125.49L149.01,125.22L149.04,124.94L149.19,124.69L149.41,124.56L149.45,124.54L149.76,124.50L150.05,124.59L150.08,124.62L150.28,124.79L150.39,125.06L150.36,125.34L150.21,125.58L149.96,125.73"/><path d="M149.99,125.37L150.05,125.22L149.99,125.03L149.81,124.90L149.59,124.89L149.41,125.00L149.34,125.19L149.37,125.30"/><path d="M149.73,124.38L150.05,124.59L150.41,124.77L150.39,125.51L150.16,125.64L149.96,125.74"/><path d="M149.75,124.11L150.44,124.50L150.41,124.77"/><path d="M149.55,123.56L149.40,123.62L149.27,123.73L149.17,123.86L149.10,124.12L149.11,124.16"/><path d="M149.09,124.32L149.09,124.28L149.11,124.12L149.18,123.96L149.29,123.83L149.43,123.72L149.61,123.65L149.79,123.63L149.99,123.65L150.17,123.73L150.30,123.82L150.39,123.95L150.45,124.09L150.46,124.16"/><path d="M150.39,124.48L150.36,124.42L150.27,124.30L150.15,124.20L149.96,124.11L149.78,124.08L149.58,124.10L149.39,124.18L149.25,124.28L149.17,124.39"/><path d="M149.54,123.97L149.35,124.06L149.23,124.17L149.14,124.29L149.08,124.43"/><path d="M150.44,124.51L150.46,124.40L150.45,124.26L150.39,124.12L150.30,124.00L150.17,123.88L149.98,123.80L149.76,123.78L149.55,123.81L149.36,123.91L149.25,124.01L149.16,124.13L149.09,124.29L149.07,124.43"/><path d="M150.20,123.75L150.22,123.71L150.11,123.62L149.98,123.56L149.81,123.53"/><path d="M149.81,123.53L149.55,123.56"/><path d="M150.43,124.68L150.45,124.57L150.43,124.42L150.37,124.26L150.28,124.14L150.16,124.04L149.97,123.96L149.75,123.93L149.54,123.97"/><path d="M150.44,124.50L150.41,125.24L150.39,125.51"/><path d="M150.46,124.37L150.47,124.28L150.46,124.13"/><path d="M150.43,124.66L150.43,124.70L150.43,124.76"/></g></g><g id="Actor_4.3"><g style="stroke:#000000;stroke-width:0.123"><path d="M117.23,42.53L117.06,42.44L116.98,42.38L116.83,42.22L116.71,42.02L116.66,41.91L116.53,41.53L116.47,41.08L116.46,40.76L116.49,40.24L116.58,39.71L116.73,39.18L116.93,38.66L117.08,38.34L117.35,37.89L117.64,37.51L117.95,37.21L118.17,37.06L118.38,36.94L118.49,36.90L118.70,36.86L118.80,36.85L118.99,36.87L119.17,36.94L119.34,37.05L119.49,37.20L119.61,37.40L119.67,37.51L119.76,37.76L119.82,38.00L119.85,38.19L119.87,38.50L119.86,39.02L119.82,39.37L119.75,39.74L119.66,40.10L119.54,40.45L119.32,40.96L119.06,41.43L118.87,41.71L118.67,41.95L118.35,42.25L118.14,42.40L117.92,42.51L117.71,42.57L117.61,42.59L117.41,42.58L117.23,42.53L119.69,43.39L119.88,43.42L119.98,43.41L120.19,43.37L120.30,43.34L120.51,43.23L120.73,43.08L121.05,42.79L121.25,42.54L121.44,42.27L121.62,41.97L121.85,41.47L121.98,41.13L122.13,40.59L122.20,40.23L122.24,39.87L122.25,39.53L122.24,39.20L122.17,38.76L122.09,38.49L122.00,38.30L121.92,38.16L121.86,38.07L121.71,37.92L121.54,37.81L119.08,36.90"/><path d="M117.54,40.00L117.54,40.21L117.57,40.39L117.60,40.47L117.66,40.60L117.75,40.70L117.85,40.75L117.97,40.75L118.03,40.74L118.10,40.71L118.23,40.63L118.35,40.51L118.52,40.26L118.62,40.07L118.69,39.86L118.76,39.53L118.77,39.23L118.74,39.05L118.68,38.90L118.61,38.79L118.56,38.75L118.46,38.70L118.34,38.69L118.27,38.71L118.15,38.77L117.96,38.94L117.79,39.18L117.69,39.38L117.59,39.70L117.54,40.00"/></g></g><g id="Actor_5.0"><g style="stroke:#000000;stroke-width:0.123"><path d="M132.89,160.13L132.74,160.01L132.96,160.19L132.82,160.07L132.96,160.19L132.89,160.13"/><path d="M132.74,160.01L132.86,159.86"/><path d="M134.58,159.63L134.57,159.59L134.49,159.55L134.92,159.90L134.94,159.92L134.93,159.94L134.28,160.09L134.13,160.17L134.02,160.31L133.97,160.48L133.97,161.10L133.96,161.16L133.95,161.17L133.50,160.81L133.54,160.88L133.22,160.61L133.17,160.54L132.98,160.38L132.96,160.30L132.96,159.93L132.91,159.74L132.97,159.51L133.13,159.31L133.34,159.20L133.53,159.21L133.27,159.27L133.12,159.35L133.01,159.49L132.97,159.66L132.96,159.93L132.74,159.68L132.76,159.47L132.78,159.43L132.87,159.26L133.04,159.11L133.24,159.05L133.41,159.10L133.54,159.21"/><path d="M132.76,159.45L132.52,159.26L132.59,159.59L132.78,159.75"/><path d="M132.86,159.19L132.69,159.04L132.86,159.19L132.79,159.28L132.61,159.14L132.52,159.26"/><path d="M133.03,159.12L132.79,158.92L133.12,158.92L133.31,159.07"/><path d="M132.75,159.69L132.74,159.68L132.83,159.83L132.96,159.94"/><path d="M132.69,159.04L132.79,158.92"/><path d="M133.96,161.16L134.03,161.06L134.53,161.47L135.35,160.43L134.84,160.02"/><path d="M133.59,160.88L133.54,160.88"/><path d="M133.77,159.16L133.56,158.99L133.44,159.13"/><path d="M134.57,159.59L134.24,159.32L134.16,159.29L133.97,159.13L133.88,159.14L133.53,159.21"/><path d="M134.50,161.45L135.32,160.41"/><path d="M134.93,159.94L134.87,160.01L134.81,160.03L134.26,160.19L134.17,160.24L134.09,160.33L134.06,160.44L134.03,161.06L135.00,161.85L134.03,161.06L134.53,161.46"/><path d="M135.00,161.85L136.00,162.67L135.00,161.85"/><path d="M134.49,160.12L134.53,160.22L134.48,160.44L134.35,160.60L134.15,160.70L134.05,160.68"/><path d="M135.85,162.05L135.93,162.12L136.28,161.69L136.20,161.62L135.85,162.05"/><path d="M135.89,162.08L136.23,161.65"/><path d="M135.91,161.39L135.99,161.46L135.65,161.89L135.57,161.82L135.91,161.39L135.99,161.46"/><path d="M135.95,161.42L135.61,161.86"/><path d="M135.37,161.66L135.71,161.23L135.63,161.16L135.29,161.59L135.37,161.66"/><path d="M135.34,161.63L135.68,161.20L135.71,161.23"/><path d="M135.68,161.20L135.63,161.16"/><path d="M138.64,163.63L138.87,163.33L138.83,163.30L135.35,160.43"/><path d="M136.75,163.28L136.41,163.00L137.00,163.49L136.75,163.28"/><path d="M136.41,163.00L136.00,162.67L136.41,163.00"/><path d="M136.13,162.28L136.21,162.34L136.55,161.91L136.48,161.85L136.13,162.28"/><path d="M137.01,162.29L137.09,162.35L136.75,162.78L136.67,162.72L137.01,162.29L136.68,162.72"/><path d="M136.48,162.57L136.82,162.14L136.75,162.07L136.41,162.50L136.48,162.57"/><path d="M136.75,162.07L136.82,162.14"/><path d="M137.00,162.98L136.93,162.93L137.27,162.50L137.34,162.55L137.00,162.98"/><path d="M136.99,162.98L137.33,162.55"/><path d="M136.42,162.52L136.76,162.08"/><path d="M136.16,162.30L136.50,161.87L136.55,161.91"/><path d="M136.48,161.85L136.50,161.87"/><path d="M136.20,161.62L136.28,161.69"/><path d="M137.76,164.11L138.05,164.35L137.62,164.00L137.76,164.11"/><path d="M137.63,164.00L137.00,163.49L137.63,164.00"/><path d="M137.44,163.85L137.62,164.00L137.42,163.83L137.44,163.85"/><path d="M137.77,163.62L138.11,163.19L138.15,163.23L137.82,163.66L137.77,163.62L138.11,163.19"/><path d="M137.51,162.69L137.17,163.12L137.23,163.18L137.57,162.75L137.51,162.69L137.55,162.73L137.21,163.16"/><path d="M137.42,163.33L137.76,162.90L137.73,162.87L137.79,162.92L137.45,163.35L137.39,163.31L137.73,162.87"/><path d="M137.96,163.78L137.92,163.75L138.26,163.32L138.30,163.35L137.96,163.78"/><path d="M137.98,163.08L137.93,163.04L137.59,163.47L137.64,163.51L137.98,163.08L137.95,163.06L137.61,163.49"/><path d="M137.95,163.05L137.93,163.04"/><path d="M137.57,162.75L137.55,162.73"/><path d="M137.34,162.55L137.27,162.50"/><path d="M137.02,162.29L137.09,162.35"/><path d="M137.79,162.92L137.76,162.90"/><path d="M138.81,163.34L138.83,163.30L138.63,163.63L138.30,164.06L138.02,164.33L138.05,164.30"/><path d="M138.06,164.35L138.30,164.06"/><path d="M138.26,164.00L138.25,164.02L138.23,164.00L138.57,163.57L138.59,163.59L138.26,164.00"/><path d="M138.32,164.00L138.29,164.05L138.28,164.04L138.62,163.61L138.62,163.62L138.32,164.00"/><path d="M138.11,163.19L138.15,163.23"/><path d="M138.05,163.85L138.39,163.42L138.43,163.45L138.09,163.88L138.05,163.85"/><path d="M138.62,163.62L138.62,163.61"/><path d="M138.18,163.96L138.52,163.53L138.50,163.51L138.16,163.94L138.18,163.96"/><path d="M138.26,163.32L138.30,163.35"/></g></g><g id="Actor_2.1"><g style="stroke:#000000;stroke-width:0.123"><path d="M155.15,166.81L155.12,167.28L155.55,167.47L155.44,167.43L155.12,167.28L155.08,167.19L155.05,167.06L155.01,166.87L154.99,166.75"/><path d="M155.55,167.47L155.79,167.54L155.89,167.55L155.55,167.47"/><path d="M155.89,167.55L156.18,167.57L156.21,167.02L156.07,166.98"/><path d="M156.43,167.54L156.72,167.45L156.54,167.51L156.43,167.54L156.18,167.57"/><path d="M156.72,167.45L157.09,167.24L157.11,166.90"/><path d="M156.21,167.02L156.30,166.99"/></g></g><g id="Actor_4.4"><g style="stroke:#000000;stroke-width:0.123"><path d="M154.10,164.19L154.02,165.76L154.04,165.90L154.07,166.00L154.13,166.12L154.18,166.19L154.30,166.32L154.45,166.45L154.62,166.57L154.82,166.68L155.04,166.77L155.41,166.88L155.66,166.93L155.92,166.97L156.19,166.99L156.46,166.99L156.72,166.97L157.09,166.91L157.32,166.85L157.43,166.81L157.63,166.72L157.80,166.62L157.95,166.51L158.01,166.45L158.07,166.39L158.16,166.25L158.21,166.12L158.23,166.05L158.32,164.58"/><path d="M154.97,164.85L154.73,164.73L154.56,164.61L154.41,164.49L154.34,164.42L154.26,164.32"/><path d="M158.06,164.68L157.92,164.78L157.83,164.83L157.64,164.93L157.54,164.97L157.32,165.04L157.20,165.07L156.96,165.11L156.82,165.13"/></g></g><g id="Actor_.6"><g style="stroke:#000000;stroke-width:0.123"><path d="M133.81,159.15L132.39,157.46L131.65,156.36L130.96,155.16L129.74,152.53L128.80,149.71L128.44,148.27L127.97,145.39L127.84,142.64L127.91,141.34L128.07,140.13L128.65,138.00L129.07,137.08L130.12,135.68L130.81,135.15L131.78,134.75"/><path d="M129.95,168.67L129.90,168.40L130.00,168.22L130.48,168.49L131.08,169.10L132.60,170.99L134.32,173.56L130.88,170.55L129.95,168.67"/><path d="M129.90,168.40L130.39,163.38L132.53,160.68L132.96,161.03L133.26,160.65"/><path d="M129.41,136.54L130.00,134.84L130.48,133.84L131.64,132.26L132.33,131.66L133.28,131.12L134.09,130.84L141.00,129.01L142.21,127.70L143.00,127.14L143.83,126.74L145.65,126.24L146.58,126.15L147.55,126.21L149.60,126.84L151.66,128.09L153.69,129.95L154.67,131.09L156.49,133.74L157.32,135.23L158.32,137.37L159.37,140.14L160.30,143.64L160.82,147.13L160.93,148.83L160.82,152.00L160.29,154.91L159.88,156.18L158.79,158.32"/><path d="M130.39,163.38L130.59,163.88L131.35,164.52L133.47,165.59"/><path d="M133.00,161.07L134.00,161.89L132.53,160.68L132.93,161.00"/><path d="M134.00,161.89L135.00,162.71L134.14,162.00"/><path d="M136.17,169.17L135.72,170.98L135.32,171.98L134.56,173.49L134.32,173.56"/><path d="M135.00,162.71L136.00,163.52L135.00,162.71"/><path d="M134.93,161.79L135.00,161.85L134.03,161.06"/><path d="M135.18,162.00L135.00,161.85L135.64,162.38L135.18,162.00L135.48,162.24"/><path d="M136.00,163.52L137.00,164.34L136.00,163.52"/><path d="M135.64,162.38L137.00,163.49L136.27,162.89"/><path d="M139.99,161.22L139.00,161.52L138.19,161.56L137.32,161.43L135.70,160.71"/><path d="M136.17,169.19L136.53,165.86"/><path d="M136.17,166.10L136.41,166.00L137.44,164.70L137.06,164.38L137.44,164.70"/><path d="M136.85,163.36L136.90,163.41"/><path d="M137.21,163.66L137.04,163.52L137.51,163.91L137.36,163.78"/><path d="M137.83,162.46L137.97,162.28L137.90,162.20L136.67,161.20"/><path d="M137.01,164.35L137.42,163.83"/><path d="M137.93,162.23L138.84,162.79L140.32,163.44L141.24,163.65L142.13,163.69L143.22,163.55L154.24,159.71L155.63,158.78L156.25,158.13L157.30,156.46L158.07,154.34L158.51,151.84L158.62,149.06L158.38,146.10L158.14,144.58L157.40,141.54L156.91,140.04L155.73,137.18L154.32,134.58L152.72,132.32L151.87,131.34L150.11,129.74L148.22,128.59L147.24,128.21L146.27,128.01L145.34,127.97L144.45,128.10L141.04,129.00"/><path d="M151.56,160.64L152.75,160.75L153.80,160.64L154.67,160.37L155.53,159.93L156.29,159.33L156.99,158.57L157.61,157.67L158.60,155.44L159.21,152.71L159.36,151.20L159.34,148.00L158.89,144.53L158.04,141.08L156.82,137.76L155.28,134.71L153.50,132.06L152.55,130.92L150.56,129.06L148.53,127.81L147.53,127.43L146.56,127.22L145.61,127.16L144.70,127.27L143.81,127.55L142.89,128.04L142.03,128.74"/><path d="M144.70,127.27L144.68,127.28"/><path d="M149.33,125.78L148.40,125.73L147.47,125.83L146.30,126.18"/><path d="M147.45,125.83L148.43,125.63L149.23,125.61"/><path d="M147.51,125.81L149.14,125.55"/><path d="M147.26,125.88L148.19,125.78L149.32,125.87"/><path d="M159.59,157.67L160.24,156.75L160.78,155.71L161.60,153.23L161.86,151.82L162.06,148.73L161.84,145.40L161.57,143.69L160.72,140.26L160.15,138.59L159.00,135.91L157.96,133.94L157.09,132.57L155.22,130.18L154.23,129.19L152.20,127.65L150.18,126.74L148.72,126.50"/><path d="M149.05,125.49L148.03,125.69"/><path d="M149.01,125.46L148.16,125.64"/><path d="M159.07,157.85L160.63,157.31L161.63,155.11L162.27,152.44L162.52,149.40L162.37,146.12L161.86,143.00L161.38,141.00L160.86,139.32L159.57,136.08L158.00,133.13L156.20,130.57L155.24,129.47L153.25,127.68L151.20,126.45L149.93,126.01"/><path d="M149.94,125.91L151.41,126.39L153.47,127.62L155.46,129.42L156.42,130.52L157.34,131.74L159.00,134.44L160.00,136.51L161.08,139.25L161.60,140.94L162.35,144.35L162.66,147.00L162.74,149.33L162.66,151.00L162.21,153.76L161.39,156.19L160.86,157.21L160.63,157.31"/><path d="M159.06,157.87L161.56,157.00L160.71,158.59L159.01,164.33L155.82,165.49L153.38,163.64L153.23,162.85L152.80,162.25L152.11,161.73L150.43,161.03"/><path d="M155.82,165.49L157.48,159.73L158.08,158.59L156.74,160.10L155.90,160.68L154.82,161.16L153.93,161.40L153.00,161.47L152.04,161.39L150.59,160.98"/><path d="M150.94,125.78L150.21,125.61"/><path d="M151.11,125.95L150.05,125.69"/><path d="M150.36,125.53L150.78,125.60"/><path d="M150.70,125.49L150.39,125.45"/><path d="M178.01,135.43L177.50,133.90L176.74,134.08L176.55,134.32L176.74,132.13L176.61,131.44L176.18,130.91L174.64,130.05L175.62,129.81L174.88,128.55L173.09,126.17L172.08,125.08L170.07,123.41L169.04,122.78L167.12,122.00L166.49,121.09L166.00,120.68L164.57,119.90L162.75,119.30L160.65,118.91L158.45,118.75L156.30,118.84L154.37,119.16L152.80,119.71L151.73,120.43L151.24,121.28L151.23,121.73L151.39,122.19L151.71,122.64L152.81,123.50L153.56,123.89L155.42,124.54L158.76,125.08L162.18,125.03L163.22,124.88L165.00,124.41L165.74,124.08L166.74,123.32L167.00,122.91L167.13,122.44L167.08,122.00L167.30,122.97L167.19,123.43L166.47,124.28L165.14,124.99L163.29,125.49L159.91,125.75L156.38,125.38L155.29,125.13L153.39,124.47L152.61,124.07L151.74,123.42L151.20,122.78L151.02,122.30L151.18,122.78"/><path d="M151.10,123.94L151.17,122.74"/><path d="M151.76,122.30L152.47,123.05L153.00,123.41L154.73,124.18L157.16,124.77L159.85,125.01L162.46,124.86L164.69,124.34L166.23,123.48L166.53,123.17L166.82,122.49L166.70,121.78L166.18,121.09L164.64,120.09L163.43,119.63L161.90,119.24L160.24,118.98L158.52,118.87L156.83,118.91L155.26,119.11L153.21,119.71L152.25,120.27L151.69,120.90L151.52,121.59L151.76,122.30"/><path d="M151.00,122.24L151.01,121.78L151.41,120.85"/><path d="M160.84,157.24L161.35,157.06L162.38,154.80L163.02,152.06L163.19,150.54L163.22,147.27L163.06,145.56L162.45,142.07L161.43,138.62L160.07,135.36L159.27,133.83L157.49,131.08L156.53,129.89L154.51,127.90L155.14,128.19L157.10,130.24L158.38,132.00L159.73,134.22L160.49,135.74L161.79,138.97L162.74,142.36L163.31,145.77L163.44,147.44L163.40,150.62L162.94,153.49L162.49,155.00L161.57,157.00"/><path d="M160.84,158.35L161.94,157.02L162.51,156.00L163.26,154.00L163.70,152.10L163.98,149.00L163.96,147.33L163.59,143.87L163.24,142.12L162.25,138.64L161.19,136.00L160.10,133.80L159.24,132.36L157.36,129.80L156.40,128.76L155.88,128.52L155.86,128.89"/><path d="M155.88,128.52L157.88,130.77L158.82,132.10L160.52,135.07L161.26,136.69L162.49,140.11L163.32,143.64L163.73,147.14L163.77,148.82L163.52,151.98L163.24,153.42L162.36,155.94L161.78,157.00L161.01,158.03"/><path d="M162.63,151.18L162.78,149.38L162.68,146.13L162.16,142.73L161.74,141.03L160.63,137.70L159.19,134.61L157.48,131.86L156.42,130.52"/><path d="M159.00,157.97L159.02,157.93"/><path d="M158.84,124.96L161.35,124.70L162.87,124.79"/><path d="M159.81,130.54L160.00,130.58L159.39,130.45"/><path d="M159.33,130.36L160.30,130.57"/><path d="M160.25,130.63L160.00,130.58"/><path d="M167.07,126.62L168.70,128.45L170.40,131.00L171.88,133.97L173.00,137.11L173.76,140.41L174.00,142.34L174.10,145.20L173.80,148.13L173.51,149.42L172.69,151.63L172.00,152.82L170.79,154.23L169.23,155.24L161.08,158.11"/><path d="M161.56,156.98L161.35,157.06"/><path d="M162.37,130.78L161.50,130.78L161.61,130.78"/><path d="M161.45,124.96L161.74,124.70"/><path d="M162.37,130.71L162.93,130.66"/><path d="M162.38,130.78L162.00,130.79"/><path d="M162.40,130.78L163.00,130.72L162.40,130.78"/><path d="M163.00,130.72L163.15,130.70"/><path d="M163.80,130.56L164.47,130.32L164.34,130.37"/><path d="M165.68,156.49L166.36,156.71L167.07,157.20L167.50,157.77L167.65,158.53L170.14,160.27L171.95,154.64L172.85,153.06L175.87,152.01L172.85,153.05L171.53,154.64L170.74,155.26L169.56,155.87"/><path d="M167.39,126.23L168.78,127.78L170.61,130.45L172.16,133.51L172.81,135.14L173.42,137.00L174.18,140.26L174.43,141.97L174.58,145.30L174.49,146.88L173.98,149.78L173.56,151.08L172.45,153.30L171.76,154.20L170.99,154.95L170.16,155.55L169.27,155.99L168.33,156.27L167.35,156.39L166.18,156.32"/><path d="M166.20,128.95L166.18,128.97"/><path d="M166.79,127.21L166.80,127.11L166.73,127.60L166.79,127.22"/><path d="M166.80,127.11L166.80,127.00L166.78,127.25"/><path d="M166.80,127.00L166.81,126.85"/><path d="M166.95,124.93L167.03,123.75"/><path d="M166.94,123.94L167.19,123.43"/><path d="M169.27,155.99L170.27,155.54L171.08,154.97L171.84,154.26L173.13,152.42L173.65,151.30L174.41,148.73L174.64,147.29L174.76,145.78L174.70,142.57L174.21,139.24L173.81,137.57L173.31,135.92L172.05,132.74L170.57,130.00L169.59,128.52L167.49,126.06"/><path d="M174.86,152.35L175.75,151.15L176.27,150.15L177.07,147.84L177.33,146.54L177.58,143.73L177.55,142.24L177.21,139.17L176.90,137.62L176.00,134.55L175.43,133.06L174.77,131.63L173.28,129.00L172.42,127.78L170.61,125.70L169.66,124.84L167.79,123.55"/><path d="M175.44,152.75L176.45,151.29L176.98,150.17L177.76,147.61L178.00,146.17L178.15,143.08L178.07,141.46L177.88,139.80L177.18,136.47L176.68,134.82L175.40,131.66L174.64,130.17L172.91,127.47L171.70,126.00L170.00,124.33L168.90,123.48L167.55,122.69"/><path d="M175.43,152.77L176.49,151.24L177.00,150.18L177.46,148.90L178.04,146.13L178.20,143.05L178.11,141.43L177.92,139.78L177.22,136.45L176.72,134.81L175.45,131.65L174.69,130.17L173.00,127.53L172.02,126.29L170.01,124.29L169.00,123.52L167.54,122.67"/><path d="M167.07,121.99L167.08,122.00"/><path d="M169.17,156.02L169.05,156.05"/><path d="M170.14,160.27L173.12,159.18L174.95,153.58L175.28,153.01L175.89,152.74L177.22,151.08L178.24,148.92L178.62,147.67L179.09,144.82L179.15,141.79L178.79,138.62L178.45,137.02L177.65,134.29"/><path d="M170.82,155.21L170.74,155.21"/><path d="M170.89,155.15L170.81,155.16"/><path d="M171.70,154.39L171.80,154.36"/><path d="M175.54,129.17L173.87,126.88L171.67,124.72"/><path d="M172.85,153.06L172.85,153.05"/><path d="M174.33,155.48L174.58,155.45L174.74,155.28L174.92,153.69"/><path d="M174.68,154.42L174.59,155.09L174.41,155.23"/><path d="M174.58,155.45L176.17,154.89L176.33,154.71L176.62,151.93"/><path d="M176.40,133.91L176.56,132.03L176.46,131.52L176.16,131.15L174.80,130.39"/><path d="M175.87,152.01L175.29,153.00"/><path d="M175.28,129.20L175.46,129.13L177.81,130.43L178.24,130.93L178.37,131.65L178.09,134.88L177.86,134.91"/><path d="M178.73,147.14L179.30,144.04L179.34,141.10L178.96,138.02L178.11,134.70"/></g></g><g id="Actor_4.5"><g style="stroke:#000000;stroke-width:0.123"><path d="M167.49,169.84L167.36,171.63L167.36,171.70L167.40,171.85L167.46,171.99L167.50,172.06L167.61,172.19L167.75,172.32L168.00,172.50L168.20,172.60L168.41,172.69L168.76,172.80L169.01,172.86L169.26,172.89L169.52,172.91L169.89,172.90L170.13,172.87L170.47,172.80L170.77,172.69L170.94,172.60L171.01,172.54L171.14,172.43L171.25,172.31L171.32,172.18L171.36,172.05L171.37,171.98L171.51,170.25L171.51,170.11L171.48,170.00L171.44,169.90L171.36,169.76L171.25,169.63L171.03,169.44L170.86,169.33L170.66,169.22L170.33,169.10L170.00,169.01L169.73,168.96L169.48,168.93L169.10,168.93L168.86,168.95L168.52,169.00L168.21,169.10L168.03,169.18L167.87,169.28L167.73,169.39L167.68,169.45L167.63,169.51L167.55,169.63L167.50,169.77L167.49,169.91L167.49,169.98L167.53,170.12L167.59,170.26L167.69,170.39L167.81,170.53L167.96,170.65L168.23,170.82L168.55,170.96L168.78,171.04L169.02,171.10L169.27,171.14L169.53,171.17L169.91,171.17L170.15,171.15L170.39,171.12L170.71,171.03L170.99,170.91L171.15,170.81L171.28,170.70L171.39,170.58L171.43,170.52L171.49,170.39L171.51,170.25"/><path d="M168.78,170.02L168.81,170.10L168.83,170.14L168.90,170.22L169.00,170.30L169.19,170.38L169.33,170.42L169.48,170.44L169.63,170.45L169.78,170.44L169.97,170.38L170.08,170.33L170.16,170.27L170.21,170.19L170.23,170.11L170.22,170.02L170.17,169.94L170.14,169.90L170.05,169.83L169.95,169.76L169.82,169.71L169.67,169.67L169.52,169.64L169.37,169.64L169.23,169.65L169.10,169.68L168.98,169.73L168.89,169.79L168.82,169.86L168.78,169.94L168.78,170.02"/></g></g><g id="Actor_6.0"><g style="stroke:#000000;stroke-width:0.123"><path d="M168.53,176.80L168.55,176.79L168.58,176.80L168.70,176.90L168.72,176.92L168.73,176.96L168.72,177.00L168.65,177.14L168.62,177.17L168.59,177.18"/><path d="M168.65,177.14L168.88,177.11L169.12,177.16L169.31,177.26L169.39,177.38"/><path d="M168.47,177.34L168.46,177.33"/><path d="M168.49,176.81L168.52,176.80L168.55,176.81L168.67,176.90L168.69,176.93L168.70,176.96L168.69,177.01L168.62,177.15L168.59,177.18L168.58,177.19L168.44,177.28"/><path d="M168.49,176.81L168.40,176.84L168.20,176.97L168.18,177.00L168.09,177.18L168.08,177.30L168.11,177.49L168.13,177.53L168.28,177.70L168.53,177.84L168.84,177.91L169.16,177.92L169.44,177.85L169.63,177.72L169.75,177.52L169.76,177.35L169.67,177.11L169.47,176.93L169.18,176.81L168.83,176.76L168.55,176.79"/><path d="M169.41,177.39L169.26,177.49L169.05,177.54L168.82,177.52L168.61,177.45L168.46,177.34L168.41,177.20"/><path d="M168.44,177.29L168.44,177.27"/><path d="M169.37,177.34L169.24,177.24L169.03,177.16L168.80,177.14L168.59,177.18"/><path d="M169.39,177.39L169.38,177.37"/><path d="M169.42,177.29L169.39,177.40"/></g></g><g><g><path style="stroke:#000000;stroke-width:0.210;stroke-dasharray:2.1 2.1" d="M167.96,189.58L170.33,159.44"/></g></g><g><g><path style="stroke:#000000;stroke-width:0.210;stroke-dasharray:2.1 2.1" d="M159.32,119.29L161.42,61.95"/></g></g><g><g><path style="stroke:#000000;stroke-width:0.210;stroke-dasharray:2.1 2.1" d="M186.33,64.08L163.49,55.92"/></g></g><g><g><path style="stroke:#000000;stroke-width:0.210;stroke-dasharray:2.1 2.1" d="M146.26,44.19L93.35,24.40"/></g></g><g><g><path style="stroke:#000000;stroke-width:0.210;stroke-dasharray:2.1 2.1" d="M163.71,55.99L119.34,40.15"/></g></g><g id="PMI3.0"><g><path style="stroke:#000000;stroke-width:0.280" d="M178.21,118.45L171.13,118.31"/></g><g><path style="fill:#000000" d="M171.14,117.31L171.10,119.31L169.12,118.27z"/></g><g><path style="fill:#ffffff" d="M178.21,121.40L191.07,121.40L191.07,115.75L178.21,115.75z"/><path style="stroke:#000000;stroke-width:0.280;stroke-opacity:0.98" d="M178.21,121.40L191.07,121.40L191.07,115.75L178.21,115.75z"/><text xml:space="preserve" fill="#000000" stroke-width="0" x="178.91" y="119.81" font-size="3.44" opacity="1.00" font-family="Microsoft Sans Serif">JZ6200</text></g></g><g id="PMI89.0"><g><path style="stroke:#000000;stroke-width:0.280" d="M177.15,100.72L172.19,100.75"/></g><g><path style="fill:#000000" d="M172.18,99.75L172.19,101.75L170.19,100.77z"/></g><g><path style="fill:#ffffff" d="M177.15,103.41L210.34,103.41L210.34,97.77L177.15,97.77z"/><path style="stroke:#000000;stroke-width:0.280;stroke-opacity:0.98" d="M177.15,103.41L210.34,103.41L210.34,97.77L177.15,97.77z"/><text xml:space="preserve" fill="#000000" stroke-width="0" x="177.86" y="101.83" font-size="3.45" opacity="1.00" font-family="Microsoft Sans Serif">CNA6800Y-1109040</text></g></g><g id="PMI1.0"><g><path style="stroke:#000000;stroke-width:0.280" d="M121.06,137.71L126.39,137.59"/></g><g><path style="fill:#000000" d="M126.42,138.58L126.38,136.58L128.40,137.53z"/></g><g><path style="fill:#ffffff" d="M105.21,140.70L121.06,140.70L121.06,135.06L105.21,135.06z"/><path style="stroke:#000000;stroke-width:0.280;stroke-opacity:0.98" d="M105.21,140.70L121.06,140.70L121.06,135.06L105.21,135.06z"/><text xml:space="preserve" fill="#000000" stroke-width="0" x="105.92" y="139.12" font-size="3.47" opacity="1.00" font-family="Microsoft Sans Serif">AH24179</text></g></g><g id="PMI86.0"><g><path style="stroke:#000000;stroke-width:0.280" d="M145.61,64.44L145.60,58.86"/></g><g><path style="fill:#000000" d="M146.60,58.86L144.60,58.87L145.59,56.87z"/></g><g><path style="fill:#ffffff" d="M135.36,70.09L155.87,70.09L155.87,64.45L135.36,64.45z"/><path style="stroke:#000000;stroke-width:0.280;stroke-opacity:0.98" d="M135.36,70.09L155.87,70.09L155.87,64.45L135.36,64.45z"/><text xml:space="preserve" fill="#000000" stroke-width="0" x="136.07" y="68.50" font-size="3.10" opacity="1.00" font-family="Microsoft Sans Serif">3901211035</text></g></g><g id="PMI2.0"><g><path style="stroke:#000000;stroke-width:0.280" d="M175.30,192.10L170.34,192.23"/></g><g><path style="fill:#000000" d="M170.31,191.22L170.36,193.22L168.34,192.28z"/></g><g><path style="fill:#ffffff" d="M175.30,194.66L195.02,194.66L195.02,189.01L175.30,189.01z"/><path style="stroke:#000000;stroke-width:0.280;stroke-opacity:0.98" d="M175.30,194.66L195.02,194.66L195.02,189.01L175.30,189.01z"/><text xml:space="preserve" fill="#000000" stroke-width="0" x="176.00" y="193.07" font-size="3.43" opacity="1.00" font-family="Microsoft Sans Serif">Q150B1245</text></g></g><g id="PMI88.0"><g><path style="stroke:#000000;stroke-width:0.280" d="M178.15,70.52L178.13,65.20"/></g><g><path style="fill:#000000" d="M179.13,65.21L177.13,65.22L178.12,63.21z"/></g><g><path style="fill:#ffffff" d="M167.89,76.17L188.41,76.17L188.41,70.53L167.89,70.53z"/><path style="stroke:#000000;stroke-width:0.280;stroke-opacity:0.98" d="M167.89,76.17L188.41,76.17L188.41,70.53L167.89,70.53z"/><text xml:space="preserve" fill="#000000" stroke-width="0" x="168.60" y="74.59" font-size="3.10" opacity="1.00" font-family="Microsoft Sans Serif">8060001117</text></g></g><g id="PMI6.0"><g><path style="stroke:#000000;stroke-width:0.280" d="M160.83,178.31L165.28,178.11"/></g><g><path style="fill:#000000" d="M165.33,179.09L165.23,177.09L167.28,177.99z"/></g><g><path style="fill:#ffffff" d="M147.27,181.43L160.83,181.43L160.83,175.79L147.27,175.79z"/><path style="stroke:#000000;stroke-width:0.280;stroke-opacity:0.98" d="M147.27,181.43L160.83,181.43L160.83,175.79L147.27,175.79z"/><text xml:space="preserve" fill="#000000" stroke-width="0" x="147.97" y="179.85" font-size="3.42" opacity="1.00" font-family="Microsoft Sans Serif">Q40310</text></g></g><g id="PMI7.0"><g><path style="stroke:#000000;stroke-width:0.280" d="M198.58,64.70L190.97,64.57"/></g><g><path style="fill:#000000" d="M190.98,63.57L190.95,65.57L188.96,64.54z"/></g><g><path style="fill:#ffffff" d="M198.57,67.71L219.09,67.71L219.09,62.07L198.57,62.07z"/><path style="stroke:#000000;stroke-width:0.280;stroke-opacity:0.98" d="M198.57,67.71L219.09,67.71L219.09,62.07L198.57,62.07z"/><text xml:space="preserve" fill="#000000" stroke-width="0" x="199.28" y="66.12" font-size="3.10" opacity="1.00" font-family="Microsoft Sans Serif">8057008096</text></g></g><g id="PMI4.0"><g><path style="stroke:#000000;stroke-width:0.280" d="M179.80,171.20L174.30,171.34"/></g><g><path style="fill:#000000" d="M174.28,170.33L174.33,172.33L172.30,171.38z"/></g><g><path style="fill:#ffffff" d="M179.80,173.76L200.31,173.76L200.31,168.12L179.80,168.12z"/><path style="stroke:#000000;stroke-width:0.280;stroke-opacity:0.98" d="M179.80,173.76L200.31,173.76L200.31,168.12L179.80,168.12z"/><text xml:space="preserve" fill="#000000" stroke-width="0" x="180.50" y="172.18" font-size="3.10" opacity="1.00" font-family="Microsoft Sans Serif">8389001012</text></g></g><g id="PMI5.0"><g><path style="stroke:#000000;stroke-width:0.280" d="M125.72,160.51L131.56,160.29"/></g><g><path style="fill:#000000" d="M131.61,161.27L131.53,159.27L133.57,160.19z"/></g><g><path style="fill:#ffffff" d="M105.21,163.71L125.73,163.71L125.73,158.07L105.21,158.07z"/><path style="stroke:#000000;stroke-width:0.280;stroke-opacity:0.98" d="M105.21,163.71L125.73,163.71L125.73,158.07L105.21,158.07z"/><text xml:space="preserve" fill="#000000" stroke-width="0" x="105.92" y="162.13" font-size="3.10" opacity="1.00" font-family="Microsoft Sans Serif">8088000034</text></g></g><g id="PMI91.0"><g><path style="stroke:#000000;stroke-width:0.280" d="M143.95,88.57L150.14,88.70"/></g><g><path style="fill:#000000" d="M150.12,89.70L150.16,87.71L152.14,88.75z"/></g><g><path style="fill:#ffffff" d="M129.28,91.25L143.95,91.25L143.95,85.60L129.28,85.60z"/><path style="stroke:#000000;stroke-width:0.280;stroke-opacity:0.98" d="M129.28,91.25L143.95,91.25L143.95,85.60L129.28,85.60z"/><text xml:space="preserve" fill="#000000" stroke-width="0" x="129.99" y="89.66" font-size="3.46" opacity="1.00" font-family="Microsoft Sans Serif">YGR160</text></g></g><g id="PMI87.0"><g><path style="stroke:#000000;stroke-width:0.280" d="M102.02,46.71L102.41,40.08"/></g><g><path style="fill:#000000" d="M103.42,40.15L101.42,40.04L102.53,38.10z"/></g><g><path style="fill:#ffffff" d="M92.78,52.37L110.94,52.37L110.94,46.73L92.78,46.73z"/><path style="stroke:#000000;stroke-width:0.280;stroke-opacity:0.98" d="M92.78,52.37L110.94,52.37L110.94,46.73L92.78,46.73z"/><text xml:space="preserve" fill="#000000" stroke-width="0" x="93.49" y="50.78" font-size="3.39" opacity="1.00" font-family="Microsoft Sans Serif">1300009J1</text></g></g><g/><g id="paperID" visibility="hidden" opacity="0.00" transform="scale(0.000100)"><path style="stroke:#000000;stroke-width:0.500;fill:#e6e6e6;fill-rule:evenodd" d="M-2000.00,-2000.00L2297.00,-2000.00L2297.00,2210.00L-2000.00,2210.00zM0.00,0.00L297.00,0.00L297.00,210.00L0.00,210.00z"/><path style="fill:#000000;fill-opacity:0.118" d="M3.00,210.00L297.00,210.00L297.00,3.00L300.00,3.00L300.00,213.00L3.00,213.00z"/></g><g id="hotspot.0" onmouseover="ShowHotSpot(evt,'0')" onmouseout="HideHotSpot(evt,'0')" onmousemove="ShowToolTip(evt,'0',&quot;3dp1017079 (I_3DPart1017079.33)&quot;)" opacity="0"><path style="fill:#00ff00;fill-rule:evenodd" d="M162.56,119.10L164.94,119.89L166.27,120.68L167.07,121.73L168.91,122.54L171.55,124.39L173.16,125.95L175.24,128.64L176.31,129.41L178.18,130.72L178.15,134.27L179.22,139.47L179.22,144.84L178.43,148.28L176.85,151.46L176.31,154.63L174.39,155.35L173.16,158.88L170.95,159.84L169.68,159.85L167.85,158.50L167.36,157.41L166.53,156.65L165.76,156.41L162.29,157.53L160.87,158.23L159.03,164.05L156.40,165.14L155.43,165.12L153.50,163.60L152.81,162.18L151.72,161.42L150.42,160.89L143.71,163.28L140.33,163.28L136.93,161.66L133.22,158.49L130.56,154.27L128.69,149.27L128.18,146.61L127.83,142.11L128.43,138.48L130.59,133.50L132.17,131.64L133.91,130.74L140.80,128.90L143.24,126.84L148.19,125.44L149.10,125.40L149.62,126.36L150.30,125.40L150.66,125.41L152.01,126.48L154.61,127.58L157.27,128.09L163.00,128.09L165.92,127.31L167.60,125.82L167.60,122.48L167.32,122.25L166.97,123.85L167.34,124.51L165.93,125.46L162.74,126.24L157.80,126.24L154.87,125.73L152.24,124.66L151.19,123.85L151.17,121.29L151.73,120.26L153.82,119.17L155.07,118.84L158.35,118.59zM121.34,134.94L121.47,137.18L126.32,137.15L126.60,136.53L128.20,137.46L126.84,138.27L126.31,137.91L121.47,137.87L121.32,140.36L121.04,140.87L105.16,140.80L105.16,134.78L121.07,134.67zM137.19,163.53L137.21,164.94L136.65,165.47L135.85,170.49L134.54,173.39L133.49,172.77L130.84,170.39L130.02,168.84L130.03,167.32L130.54,163.07L132.57,160.65L133.46,160.61z"/></g><g id="hotspot.1" onmouseover="ShowHotSpot(evt,'1')" onmouseout="HideHotSpot(evt,'1')" onmousemove="ShowToolTip(evt,'1',&quot;3dp897165 (I_BU LNG 10045150.225)&quot;)" opacity="0"><path style="fill:#00ff00;fill-rule:evenodd" d="M157.02,166.96L156.97,167.21L155.38,167.26L155.04,167.01L155.04,166.71zM168.68,187.30L168.64,190.78L168.83,191.67L169.34,191.60L169.90,191.25L170.42,191.62L175.00,191.66L175.24,188.73L194.86,188.62L195.12,188.89L195.10,194.84L175.24,194.75L175.00,192.35L170.41,192.38L170.23,192.95L168.92,192.35L166.98,191.91L167.08,190.61L167.33,190.34L167.55,187.39L167.78,187.06L168.39,187.01z"/></g><g id="hotspot.2" onmouseover="ShowHotSpot(evt,'2')" onmouseout="HideHotSpot(evt,'2')" onmousemove="ShowToolTip(evt,'2',&quot;A-0008495-01 (I_CM BIN BU LC GI.1)&quot;)" opacity="0"><path style="fill:#00ff00;fill-rule:evenodd" d="M191.16,115.63L191.13,121.58L178.15,121.49L177.91,118.56L171.22,118.59L170.47,119.72L169.63,119.62L169.34,120.16L168.54,120.25L168.67,119.46L168.91,119.08L168.66,118.82L168.63,118.12L169.45,117.91L170.80,116.96L171.21,117.86L177.91,117.88L178.15,115.47L190.89,115.37z"/></g><g id="hotspot.3" onmouseover="ShowHotSpot(evt,'3')" onmouseout="HideHotSpot(evt,'3')" onmousemove="ShowToolTip(evt,'3',&quot;A-0006942-01 (I_CAO SU M.20)&quot;)" opacity="0"><path style="fill:#00ff00;fill-rule:evenodd" d="M136.09,32.07L134.98,36.08L133.99,36.07L132.91,35.29L132.93,33.66L133.72,33.97L134.54,34.03L134.55,33.43L133.37,32.95L133.47,32.19L134.17,31.54L135.06,31.54zM121.58,37.63L122.11,38.42L122.10,40.64L121.57,41.97L120.16,43.23L119.45,43.22L116.82,42.13L116.53,41.36L116.54,39.84L117.07,38.26L118.29,36.83L119.47,36.84zM169.97,38.70L171.04,39.48L171.04,41.71L170.50,42.76L169.36,43.75L168.37,43.75L166.27,42.92L165.98,42.42L166.00,40.27L167.59,41.12L168.04,41.10L168.13,40.30L166.42,39.56L166.51,39.08L167.48,38.16L168.65,38.17zM132.19,45.03L130.99,49.04L130.29,49.05L129.25,48.47L128.96,47.98L128.88,46.89L130.57,46.99L130.58,46.39L129.40,45.91L129.50,45.14L130.47,44.49L131.08,44.50zM155.43,165.12L156.40,165.14L158.34,164.58L158.10,166.30L157.20,166.72L155.40,166.72L154.37,166.17L154.10,165.90L154.08,164.63L154.38,164.32zM200.41,167.99L200.39,173.94L179.74,173.86L179.50,171.46L174.38,171.48L174.20,172.06L172.26,171.21L173.86,170.37L174.39,170.73L179.50,170.77L179.74,167.84L200.15,167.73zM170.76,169.08L171.54,170.11L171.30,172.10L170.94,172.52L168.36,172.54L167.58,172.00L167.58,169.44L168.54,168.81L169.97,168.82z"/></g><g id="hotspot.4" onmouseover="ShowHotSpot(evt,'4')" onmouseout="HideHotSpot(evt,'4')" onmousemove="ShowToolTip(evt,'4',&quot;A-0006626-01 (I_AI SIT 40-60.226)&quot;)" opacity="0"><path style="fill:#00ff00;fill-rule:evenodd" d="M125.83,157.95L125.97,159.93L131.34,159.91L131.55,159.30L132.39,159.40L132.84,158.73L134.00,159.04L138.77,163.24L138.12,164.07L137.72,164.07L136.64,163.00L133.24,160.36L131.89,160.99L131.64,160.40L125.97,160.61L125.81,163.89L105.16,163.81L105.16,157.79L125.57,157.68z"/></g><g id="hotspot.5" onmouseover="ShowHotSpot(evt,'5')" onmouseout="HideHotSpot(evt,'5')" onmousemove="ShowToolTip(evt,'5',&quot;3dp733177 (I_M VNH 10.221)&quot;)" opacity="0"><path style="fill:#00ff00;fill-rule:evenodd" d="M161.01,175.66L161.15,177.92L165.20,177.62L165.48,177.00L167.08,177.93L165.72,178.74L165.19,178.37L161.66,178.32L161.15,178.61L160.98,181.61L147.21,181.53L147.21,175.51L160.74,175.40zM169.75,177.01L169.64,177.55L168.28,177.64L168.28,176.75L169.48,176.73zM168.56,176.98L169.19,177.03L169.21,177.37L168.61,177.29z"/></g><g id="hotspot.6" onmouseover="ShowHotSpot(evt,'6')" onmouseout="HideHotSpot(evt,'6')" onmousemove="ShowToolTip(evt,'6',&quot;3dp731662 (I_BU LNG 08025125.119)&quot;)" opacity="0"><path style="fill:#00ff00;fill-rule:evenodd" d="M134.55,33.43L134.54,34.03L133.72,33.96L132.93,33.68L132.84,32.88L133.18,32.84zM168.13,40.30L168.04,41.10L167.59,41.12L165.98,40.27L165.97,39.84L166.79,39.74zM130.58,46.39L130.58,46.99L129.75,46.92L128.96,46.64L128.87,45.83L129.21,45.80zM219.19,61.94L219.17,67.89L198.51,67.81L198.27,64.87L191.05,64.91L190.82,65.22L190.34,65.19L188.93,64.36L190.86,63.59L191.04,64.16L198.27,64.19L198.51,61.78L218.92,61.68zM186.61,63.58L188.49,63.81L188.40,65.17L187.43,65.15L186.90,64.62L184.40,63.63L184.40,63.04L185.31,63.01z"/></g><g id="hotspot.7" onmouseover="ShowHotSpot(evt,'7')" onmouseout="HideHotSpot(evt,'7')" onmousemove="ShowToolTip(evt,'7',&quot;3dp2527007 (I_3DPart2527007.1)&quot;)" opacity="0"><path style="fill:#00ff00;fill-rule:evenodd" d="M166.00,36.06L167.85,36.58L169.46,38.17L167.48,38.16L166.01,39.86L165.98,42.42L166.27,42.92L168.37,43.75L169.36,43.75L170.50,42.76L171.04,41.71L171.03,39.48L170.68,38.94L172.36,39.23L172.35,41.34L177.92,46.88L177.90,48.05L175.44,55.63L174.67,56.71L171.73,57.48L171.80,59.58L171.56,60.21L170.50,61.01L167.24,61.45L162.56,61.45L159.65,61.18L155.67,60.40L154.38,59.58L153.83,59.06L136.38,53.76L135.51,53.77L134.28,57.28L132.58,56.68L133.47,54.14L133.46,52.99L131.07,52.21L130.52,51.68L130.54,50.69L134.72,36.57L134.46,36.33L135.08,35.90L136.57,31.04L137.06,30.75L138.23,30.77zM146.16,57.74L146.45,58.62L144.73,58.54L145.66,56.93zM146.07,63.92L155.72,64.06L155.98,64.32L155.96,70.27L135.31,70.19L135.31,64.16L145.38,63.92L145.57,59.02L145.88,59.02z"/></g><g id="hotspot.8" onmouseover="ShowHotSpot(evt,'8')" onmouseout="HideHotSpot(evt,'8')" onmousemove="ShowToolTip(evt,'8',&quot;3dp2527769 (I_3DPart2527769.10)&quot;)" opacity="0"><path style="fill:#00ff00;fill-rule:evenodd" d="M109.68,13.04L110.71,13.59L111.27,14.62L111.25,18.16L106.49,34.82L105.09,38.44L103.75,40.01L102.71,40.56L102.43,46.20L110.76,46.34L111.02,46.60L111.00,52.55L92.73,52.47L92.73,46.44L101.74,46.20L102.00,40.55L79.80,34.18L79.01,33.66L78.45,32.63L78.45,29.52L83.13,12.78L84.17,11.17L85.50,10.13L86.92,10.14zM104.91,15.16L107.81,15.70L107.81,17.63L102.71,35.27L101.65,37.38L100.40,37.39L81.02,32.17L81.09,29.78L85.51,14.10L86.28,12.76L87.72,12.79z"/></g><g id="hotspot.9" onmouseover="ShowHotSpot(evt,'9')" onmouseout="HideHotSpot(evt,'9')" onmousemove="ShowToolTip(evt,'9',&quot;3dp733350 (I_VNG M 08.29)&quot;)" opacity="0"><path style="fill:#00ff00;fill-rule:evenodd" d="M179.35,60.27L179.51,61.27L178.87,62.25L177.91,62.24L177.52,61.18L178.08,60.13zM178.69,64.09L178.98,64.97L177.26,64.88L178.19,63.27zM178.60,70.01L188.25,70.14L188.51,70.41L188.49,76.35L167.84,76.27L167.84,70.25L177.91,70.01L178.10,65.37L178.41,65.37zM178.74,61.28L178.30,61.53L178.35,60.90L178.69,60.88z"/></g><g id="hotspot.10" onmouseover="ShowHotSpot(evt,'10')" onmouseout="HideHotSpot(evt,'10')" onmousemove="ShowToolTip(evt,'10',&quot;3dp1062510 (I_NG SU VO BU LC GI.8)&quot;)" opacity="0"><path style="fill:#00ff00;fill-rule:evenodd" d="M164.94,95.30L167.85,96.35L169.19,97.40L169.16,102.98L169.45,103.48L169.45,104.92L168.92,105.71L168.39,110.74L168.13,111.27L166.26,112.31L164.06,112.75L158.06,112.75L155.14,112.24L152.53,111.15L151.46,110.10L151.47,104.80L151.17,104.31L151.18,102.51L151.72,101.21L151.96,96.69L152.41,96.08L154.00,95.29L156.92,94.77L161.77,94.77zM210.46,97.65L210.44,103.59L177.09,103.51L176.85,100.84L172.48,100.65L172.48,100.35L176.85,100.16L177.09,97.49L210.20,97.38zM170.14,100.60L171.75,99.75L172.08,99.77L172.11,101.46z"/></g><g id="hotspot.11" onmouseover="ShowHotSpot(evt,'11')" onmouseout="HideHotSpot(evt,'11')" onmousemove="ShowToolTip(evt,'11',&quot;A-0005791-01&quot;)" opacity="0"><path style="fill:#00ff00;fill-rule:evenodd" d="M144.08,85.48L144.22,87.98L145.10,88.16L150.13,88.23L150.41,87.62L150.92,87.97L151.35,87.35L153.07,86.69L154.33,86.09L154.56,85.79L163.09,85.78L167.05,86.57L168.91,87.36L170.24,88.40L169.98,91.17L169.47,91.72L167.58,92.47L164.06,92.92L161.24,92.92L158.33,92.65L155.67,92.14L153.03,91.07L152.24,90.51L151.90,90.51L151.59,90.80L151.12,90.91L150.63,89.51L150.11,88.97L144.22,88.67L144.06,91.43L129.22,91.34L129.22,85.32L143.82,85.22zM167.60,122.48L167.60,125.82L165.92,127.31L163.00,128.09L157.27,128.09L154.61,127.58L152.01,126.48L150.94,125.69L150.55,125.17L149.62,126.36L149.09,125.42L149.07,124.48L149.58,121.81L150.03,121.21L151.20,120.94L151.21,122.89L150.83,123.31L151.74,124.37L154.87,125.73L157.80,126.24L162.74,126.24L165.93,125.46L167.34,124.51L166.97,123.85L167.32,122.25zM166.53,88.42L169.20,89.51L169.20,89.80L167.85,90.36L164.59,90.80L160.97,90.80L156.73,90.28L153.57,89.22L153.01,88.92L152.96,88.69L154.26,88.14L157.71,87.63L161.50,87.63z"/></g></g></svg>
