<?xml version="1.0" encoding="UTF-8" standalone="no"?>
<svg xmlns="http://www.w3.org/2000/svg" xmlns:xlink="http://www.w3.org/1999/xlink" width="297.000mm" height="210.000mm" viewBox="0.000000 0.000000 297.000000 210.000000" stroke-linejoin="round" stroke-linecap="round" fill="none" fill-rule="evenodd"><desc>Composer Export</desc><script type="text/ecmascript"><![CDATA[
if(typeof(top) != "undefined")
{
	top.ShowPaper = ShowPaper;
}
function ShowHotSpot(evt,hotspotid)
{
	var svgDocument = evt.target.ownerDocument;
	var strId = "hotspot."+hotspotid;
	var hotspot = svgDocument.getElementById(strId);
	if(hotspot)
		hotspot.setAttribute("opacity",".5");
}
function HideHotSpot(evt,hotspotid)
{
	var svgDocument = evt.target.ownerDocument;
	var strId = "hotspot."+hotspotid;
	var hotspot = svgDocument.getElementById(strId);
	if(hotspot)
		hotspot.setAttribute("opacity","0");

	var toolTip = svgDocument.getElementById('ToolTip');
	if(toolTip)
		toolTip.setAttribute("visibility","hidden");
}
function ShowToolTip(evt,hotspotid,strTooltip)
{
	if(strTooltip=="")
	return;

	// change text
	var svgDocument = evt.target.ownerDocument;
	var tiptext = svgDocument.getElementById('ToolTipText');
	if( !tiptext )
	return;
	tiptext.firstChild.nodeValue = " " + strTooltip + "  " ;

	// show tooltip before, else some refresh issue

	var toolTip = svgDocument.getElementById('ToolTip');
	if(!toolTip)
	return;

	toolTip.setAttribute("visibility","visible");
	toolTip.setAttribute("opacity",".95");

	// move tooltip
	// get viewbox

	var root = svgDocument.documentElement;
	var vbox = (root.getAttribute("viewBox")).split(' ');
	var x0 = parseFloat(vbox[0]);
	var y0 = parseFloat(vbox[1]);
	var vboxW = parseFloat(vbox[2]);
	var vboxH = parseFloat(vbox[3]);

	// get default width of svg

	var strW = root.getAttribute("width");
	var svgW = parseFloat(strW);
	if(strW.indexOf('mm') != -1)
	svgW *= 3.779;

	var strH = root.getAttribute("height");
	var svgH = parseFloat(strH);
	if(strH.indexOf('mm') != -1)
	svgH *= 3.779;  	// 96 dpi  -> 96/25.4 = 3.779

	// update the viewbox / width / height if svg is embedded in html with zoom fit all
	var realx0 = x0;
	var realy0 = y0;
	var realvboxW = vboxW;
	var realvboxH = vboxH;
	var realsvgW = svgW;
	var realsvgH = svgH;

	if ((typeof(top) == "undefined") || (typeof(top.svgctl1) != "undefined")) // embedded in html
	{
		// get window size in pxl

		svgW = window.innerWidth;
		svgH = window.innerHeight;

		// calculate real viewbox

		realsvgW = svgW;
		realsvgH = svgH;
		if((svgW / svgH) > (vboxW / vboxH))
		{
			realvboxW = (vboxH * svgW) / svgH;
			realvboxH = vboxH;
			realx0 = x0 - (realvboxW - vboxW)/2 ;
		}
		else
		{
			realvboxH = (vboxW * svgH) / svgW;
			realvboxW = vboxW;
			realy0 = y0 - (realvboxH - vboxH)/2 ;
		}
	}

	// get user zoom/pan

	var newScale = root.currentScale;
	var translation = root.currentTranslate;

	// transform pxl to user unit

	var xPos = (((evt.clientX+10- translation.x)/newScale) * realvboxW)/realsvgW  + realx0 ;
	var yPos = (((evt.clientY+5- translation.y)/newScale) * realvboxH)/ realsvgH  + realy0 ;
	var scaleForWidth = ( (1 / newScale) * realvboxH) / realsvgH;

	// move tooltip

	toolTip.setAttribute("transform", "translate(" + xPos + "," + yPos + ")" );

	// resize tooltip

	var fontsize = 12;
	tiptext.setAttribute("font-size",fontsize*scaleForWidth);
	tiptext.setAttribute("y", fontsize*scaleForWidth);
	var tipBG = svgDocument.getElementById('ToolTipBG');
	var outline = tiptext.getBBox();
	if(tipBG)
	{
		tipBG.setAttribute("stroke-width", 1*scaleForWidth);
		tipBG.setAttribute("width", Number(outline.width) );
		tipBG.setAttribute("height", Number(outline.height) + fontsize*.5*scaleForWidth );
	}
	var ToolTipShadow = svgDocument.getElementById('ToolTipShadow');
	if(ToolTipShadow)
	{
		ToolTipShadow.setAttribute("width", Number(outline.width) );
		ToolTipShadow.setAttribute("height", Number(outline.height) + fontsize*.5*scaleForWidth );
		ToolTipShadow.setAttribute("x", 3*scaleForWidth);
		ToolTipShadow.setAttribute("y", 3*scaleForWidth);
	}
}
function ShowPaper()
{
  var svgDocument = getDocument();
  var paper = svgDocument.getElementById("paperID");
  if(paper)
  {
    paper.setAttribute("transform","scale(1)");
    paper.setAttribute("opacity","1");
    paper.setAttribute("visibility","visible");
  }
  var svg = svgDocument.getRootElement();
  if(svg)
  {
    svg.setAttribute("width","307.000mm");
    svg.setAttribute("height","220.000mm");
    svg.setAttribute("viewBox","-5.000000 -5.000000 307.000000 220.000000");
  }
}
]]></script><defs/><g><path style="fill:#ffffff" d="M296.83,209.80L0.07,209.80L0.07,0.07L296.83,0.07z"/><path style="fill:#fffe02" d="M36.23,82.33L38.03,84.82L42.32,89.11L43.57,90.62L50.89,97.94L52.15,99.45L59.47,106.77L60.73,108.28L68.05,115.59L69.30,117.11L76.62,124.42L77.88,125.94L85.20,133.25L86.46,134.77L92.03,140.25L92.33,144.49L92.01,144.37L91.00,143.09L82.42,134.52L81.16,133.00L72.84,124.68L71.58,123.16L63.25,114.84L61.99,113.32L53.66,105.00L52.41,103.49L44.08,95.16L42.82,93.65L35.75,86.59L33.97,84.09L32.45,81.06L32.02,79.27L34.76,79.01z"/><path style="fill:#fe00ff" d="M108.47,130.11L108.90,130.26L111.25,130.36L111.67,130.51L113.28,130.60L114.18,130.76L225.68,141.10L230.23,142.10L231.99,142.86L235.27,144.88L235.89,145.57L236.00,146.15L237.06,147.38L238.82,149.67L239.14,149.78L239.57,150.42L240.30,152.71L240.82,155.99L240.31,159.84L239.30,162.12L238.04,164.13L236.05,166.17L232.75,168.42L228.64,169.87L226.86,170.10L221.39,170.11L105.36,155.47L103.83,155.24L100.57,153.96L98.32,152.68L95.54,150.15L93.75,147.66L92.33,144.49L92.03,140.25L92.05,139.51L93.16,136.55L94.91,134.01L97.03,132.09L100.23,130.50L102.75,130.00z"/><path style="fill:#01ff02" d="M253.68,84.84L257.72,86.86L259.09,88.31L259.22,88.89L259.80,89.01L260.75,90.13L262.52,94.42L262.76,97.79L262.26,100.31L261.17,102.76L259.23,105.36L231.00,131.36L228.48,133.63L224.92,135.37L221.82,135.80L220.64,135.80L217.59,135.31L215.12,134.26L213.09,132.75L211.59,130.97L210.54,128.99L210.28,128.25L209.92,125.64L212.85,125.37L213.05,126.73L214.19,129.18L214.33,129.73L214.87,130.27L215.21,130.19L215.86,130.73L217.85,131.77L219.88,132.27L222.57,132.27L224.60,131.77L226.84,130.48L256.10,103.23L257.61,101.46L258.48,100.06L258.99,98.81L259.23,97.53L259.23,95.44L258.72,93.42L257.50,91.37L255.48,89.61L254.51,88.99L255.09,88.10L255.99,86.93L255.96,86.62L252.93,85.60L251.41,85.35L248.30,85.35L245.51,85.84L243.51,86.61L239.98,88.88L237.96,90.90L211.73,120.41L210.12,123.60L210.53,121.24L212.09,118.75L213.85,116.73L230.25,98.32L238.82,88.73L240.71,87.08L243.76,85.35L247.80,84.34L251.16,84.34z"/><path style="fill:#e400e5" d="M94.26,139.66L94.24,141.84L94.39,142.26L94.38,142.77L94.75,144.13L96.27,147.15L98.91,150.09L98.44,150.95L98.07,150.95L95.76,148.42L94.50,146.40L93.74,144.14L93.74,139.40L94.71,137.08L94.86,137.03z"/><path style="fill:#fffe02" d="M79.62,46.51L82.40,47.76L84.00,49.12L83.30,49.50L84.42,50.54L85.96,52.28L133.64,104.49L135.37,107.29L136.13,110.07L136.22,112.77L136.06,112.87L136.02,113.52L135.88,114.20L134.11,117.21L132.37,118.75L129.82,119.98L127.72,120.41L125.03,120.41L122.00,119.66L119.25,118.12L117.23,116.35L115.97,114.84L108.91,107.27L102.85,100.97L101.60,99.45L94.53,91.88L88.48,85.58L87.22,84.06L69.06,64.64L67.26,62.14L66.25,59.37L66.14,58.52L68.26,58.34L69.03,60.38L70.31,62.62L71.39,63.57L71.56,64.15L77.13,69.94L78.39,71.45L81.73,74.67L81.90,75.25L85.26,78.45L85.43,79.04L88.79,82.23L88.96,82.82L92.07,85.77L92.24,86.35L95.60,89.55L95.78,90.14L99.14,93.33L99.31,93.92L101.34,95.92L102.42,96.79L102.70,97.15L102.83,97.69L105.95,100.65L106.12,101.23L109.48,104.43L109.65,105.02L113.01,108.22L113.18,108.80L115.22,110.80L116.30,111.68L116.57,112.03L116.71,112.58L119.75,115.62L120.30,115.75L122.50,117.14L125.28,117.89L127.99,117.90L130.25,117.13L132.37,115.72L133.87,113.44L134.11,112.42L134.11,109.31L133.35,107.04L131.61,104.75L91.51,60.86L84.42,53.06L82.15,50.79L80.46,49.63L80.89,47.97L78.86,47.01L76.85,46.50L72.89,46.61L75.01,46.00L77.35,46.00z"/><path style="fill:#fffe02" d="M46.58,64.16L49.61,65.16L53.14,67.19L53.71,67.81L52.62,68.29L52.62,68.68L53.39,69.20L57.70,73.72L58.96,75.24L62.50,78.77L63.75,80.28L67.04,83.56L68.30,85.07L71.83,88.60L73.09,90.12L76.37,93.40L77.63,94.91L81.16,98.44L82.42,99.96L85.70,103.23L86.96,104.75L90.24,108.03L91.50,109.54L95.04,113.07L96.30,114.59L99.58,117.87L100.84,119.38L108.15,126.95L111.25,130.36L108.90,130.26L108.47,130.11L105.88,127.20L102.60,123.92L101.34,122.41L97.81,118.88L96.55,117.36L93.02,113.83L91.76,112.32L88.22,108.79L86.97,107.27L83.43,103.74L82.17,102.23L78.39,98.44L77.13,96.93L73.59,93.40L72.33,91.88L68.80,88.35L67.54,86.84L64.01,83.31L62.75,81.79L58.96,78.01L57.70,76.50L54.17,72.97L52.91,71.45L50.14,69.17L49.18,68.56L49.39,66.40L46.33,65.17L43.81,64.66L41.46,64.66L39.10,65.04L40.45,64.41L43.22,63.91z"/><path style="fill:#fffe02" d="M114.28,133.23L114.68,133.78L116.71,136.05L118.72,139.58L119.48,142.61L119.38,146.32L117.97,149.25L116.48,151.04L114.47,152.56L111.76,153.81L104.84,152.97L102.59,152.19L100.08,150.91L98.91,150.09L96.27,147.15L94.75,144.13L94.38,142.77L99.82,148.42L100.24,148.42L100.41,148.29L101.57,148.92L104.59,150.44L107.37,150.93L109.56,150.93L111.65,150.50L113.21,149.78L115.22,148.26L116.63,146.15L116.97,145.22L117.22,142.62L116.72,140.08L115.73,138.04L113.96,135.78L112.17,133.78L111.50,132.98z"/><path style="fill:#01e502" d="M252.93,85.60L255.96,86.62L255.99,86.93L255.09,88.10L254.51,88.99L252.18,88.11L250.65,87.87L248.56,87.87L246.03,88.38L242.50,90.14L239.48,93.17L214.35,121.27L213.24,123.19L212.85,125.37L209.92,125.64L209.92,125.13L210.12,123.60L211.73,120.41L237.96,90.90L239.98,88.88L243.51,86.61L245.51,85.84L248.30,85.35L251.41,85.35z"/><path style="fill:#01e502" d="M259.80,89.01L259.22,88.89L259.09,88.31z"/><path style="fill:#01e502" d="M215.21,130.19L214.87,130.27L214.33,129.73L214.19,129.18z"/><path style="fill:#e5e401" d="M78.86,47.01L80.89,47.97L80.46,49.63L78.37,48.76L77.10,48.52L75.01,48.52L73.74,48.76L71.22,50.03L69.81,51.65L68.76,54.13L68.77,58.36L69.02,59.38L69.78,61.14L71.09,62.86L71.39,63.57L70.31,62.62L69.03,60.38L68.26,58.34L66.14,58.52L65.98,58.11L66.00,54.40L66.50,52.38L67.79,50.13L68.69,49.01L70.47,47.77L72.21,46.75L72.89,46.61L76.85,46.50z"/><path style="fill:#e5e401" d="M134.15,103.73L135.63,106.28L136.38,108.30L136.63,111.16L136.22,112.77L136.13,110.07L135.37,107.29L133.64,104.49L85.96,52.28L84.42,50.54L83.30,49.50L84.00,49.12L84.44,49.27z"/><path style="fill:#e5e401" d="M73.85,65.90L77.38,69.68L78.64,71.20L81.43,73.96L81.73,74.67L78.39,71.45L77.13,69.94L71.56,64.15L71.39,63.57z"/><path style="fill:#e5e401" d="M46.33,65.17L49.39,66.40L49.18,68.56L46.34,67.43L45.07,67.19L41.70,67.18L39.44,67.95L37.90,69.18L36.27,71.08L35.21,73.81L35.23,77.78L35.47,79.06L36.49,81.56L38.28,84.32L42.57,88.60L43.83,90.12L50.89,97.18L52.15,98.70L59.47,106.01L60.73,107.53L67.79,114.59L69.05,116.10L76.37,123.41L77.63,124.93L84.69,131.99L85.95,133.51L92.05,139.51L92.03,140.25L86.46,134.77L85.20,133.25L77.88,125.94L76.62,124.42L69.30,117.11L68.05,115.59L60.73,108.28L59.47,106.77L52.15,99.45L50.89,97.94L43.57,90.62L42.32,89.11L38.03,84.82L36.23,82.33L34.76,79.01L32.02,79.27L31.70,77.78L31.70,73.82L32.38,71.22L33.86,68.67L36.23,66.50L39.10,65.04L41.46,64.66L43.81,64.66z"/><path style="fill:#e5e401" d="M57.96,71.95L59.21,73.47L62.50,76.75L63.75,78.26L67.04,81.54L68.30,83.06L71.58,86.33L72.84,87.85L76.12,91.13L77.38,92.64L80.41,95.67L81.66,97.18L84.95,100.46L86.21,101.98L89.49,105.25L90.75,106.77L94.03,110.05L95.29,111.56L98.57,114.84L99.83,116.35L103.11,119.63L104.37,121.15L107.65,124.42L108.91,125.94L112.69,129.72L113.28,130.60L111.67,130.51L111.25,130.36L108.15,126.95L100.84,119.38L99.58,117.87L96.30,114.59L95.04,113.07L91.50,109.54L90.24,108.03L86.96,104.75L85.70,103.23L82.42,99.96L81.16,98.44L77.63,94.91L76.37,93.40L73.09,90.12L71.83,88.60L68.30,85.07L67.04,83.56L63.75,80.28L62.50,78.77L58.96,75.24L57.70,73.72L53.39,69.20L52.62,68.68L52.62,68.29L53.71,67.81z"/><path style="fill:#e5e401" d="M84.96,77.74L85.26,78.45L81.90,75.25L81.73,74.67z"/><path style="fill:#e5e401" d="M88.49,81.52L88.79,82.23L85.43,79.04L85.26,78.45z"/><path style="fill:#e5e401" d="M91.77,85.06L92.07,85.77L88.96,82.82L88.79,82.23z"/><path style="fill:#e5e401" d="M95.31,88.84L95.60,89.55L92.24,86.35L92.07,85.77z"/><path style="fill:#e5e401" d="M98.84,92.62L99.14,93.33L95.78,90.14L95.60,89.55z"/><path style="fill:#e5e401" d="M101.85,95.92L102.42,96.79L101.34,95.92L99.31,93.92L99.14,93.33z"/><path style="fill:#e5e401" d="M105.65,99.94L105.95,100.65L102.83,97.69L102.70,97.15z"/><path style="fill:#e5e401" d="M109.18,103.72L109.48,104.43L106.12,101.23L105.95,100.65z"/><path style="fill:#e5e401" d="M112.71,107.51L113.01,108.22L109.65,105.02L109.48,104.43z"/><path style="fill:#e5e401" d="M115.72,110.80L116.30,111.68L115.22,110.80L113.18,108.80L113.01,108.22z"/><path style="fill:#e5e401" d="M120.30,115.75L119.75,115.62L116.71,112.58L116.57,112.03z"/><path style="fill:#e5e401" d="M136.02,113.52L136.06,112.87L136.22,112.77z"/><path style="fill:#e5e401" d="M116.28,133.50L117.50,135.01L118.98,137.56L119.99,140.59L119.99,144.46L119.38,146.32L119.48,142.61L118.72,139.58L116.71,136.05L114.68,133.78L114.28,133.23z"/><path style="fill:#e5e401" d="M100.41,148.29L100.24,148.42L99.82,148.42L94.38,142.77L94.39,142.26z"/><path style="fill:#e400e5" d="M236.30,145.85L238.32,148.13L239.14,149.78L238.82,149.67L237.06,147.38L236.00,146.15L235.89,145.57z"/><path style="fill:#ffffff" d="M78.37,48.76L80.46,49.63L82.15,50.79L84.42,53.06L91.51,60.86L131.61,104.75L133.35,107.04L134.11,109.31L134.11,112.42L133.87,113.44L132.37,115.72L130.25,117.13L127.99,117.90L125.28,117.89L122.50,117.14L120.30,115.75L116.57,112.03L116.30,111.68L115.72,110.80L113.01,108.22L112.71,107.51L109.48,104.43L109.18,103.72L105.95,100.65L105.65,99.94L102.70,97.15L102.42,96.79L101.85,95.92L99.14,93.33L98.84,92.62L95.60,89.55L95.31,88.84L92.07,85.77L91.77,85.06L88.79,82.23L88.49,81.52L85.26,78.45L84.96,77.74L81.73,74.67L81.43,73.96L78.64,71.20L77.38,69.68L73.85,65.90L71.39,63.57L71.09,62.86L69.78,61.14L69.02,59.38L68.77,58.36L68.76,54.13L69.81,51.65L71.22,50.03L73.74,48.76L75.01,48.52L77.10,48.52z"/><path style="fill:#ffffff" d="M46.34,67.43L49.18,68.56L50.14,69.17L52.91,71.45L54.17,72.97L57.70,76.50L58.96,78.01L62.75,81.79L64.01,83.31L67.54,86.84L68.80,88.35L72.33,91.88L73.59,93.40L77.13,96.93L78.39,98.44L82.17,102.23L83.43,103.74L86.97,107.27L88.22,108.79L91.76,112.32L93.02,113.83L96.55,117.36L97.81,118.88L101.34,122.41L102.60,123.92L105.88,127.20L108.47,130.11L102.75,130.00L100.23,130.50L97.03,132.09L94.91,134.01L93.16,136.55L92.05,139.51L85.95,133.51L84.69,131.99L77.63,124.93L76.37,123.41L69.05,116.10L67.79,114.59L60.73,107.53L59.47,106.01L52.15,98.70L50.89,97.18L43.83,90.12L42.57,88.60L38.28,84.32L36.49,81.56L35.47,79.06L35.23,77.78L35.21,73.81L36.27,71.08L37.90,69.18L39.44,67.95L41.70,67.18L45.07,67.19z"/><path style="fill:#ffffff" d="M252.18,88.11L254.51,88.99L255.48,89.61L257.50,91.37L258.72,93.42L259.23,95.44L259.23,97.53L258.99,98.81L258.48,100.06L257.61,101.46L256.10,103.23L226.84,130.48L224.60,131.77L222.57,132.27L219.88,132.27L217.85,131.77L215.86,130.73L215.21,130.19L214.19,129.18L213.05,126.73L212.85,125.37L213.24,123.19L214.35,121.27L239.48,93.17L242.50,90.14L246.03,88.38L248.56,87.87L250.65,87.87z"/><path style="fill:#ffffff" d="M111.50,132.98L112.17,133.78L113.96,135.78L115.73,138.04L116.72,140.08L117.22,142.62L116.97,145.22L116.63,146.15L115.22,148.26L113.21,149.78L111.65,150.50L109.56,150.93L107.37,150.93L104.59,150.44L101.57,148.92L100.41,148.29L94.39,142.26L94.24,141.84L94.26,139.66L94.86,137.03L96.05,135.40L97.96,133.78L101.23,132.51L104.60,132.27z"/><path style="fill:#ffffff" d="M227.20,143.87L229.71,144.64L232.49,145.89L234.78,147.63L237.06,150.15L237.79,151.44L238.80,154.21L238.80,156.31L238.22,158.76L236.71,161.79L234.66,164.03L232.27,165.67L230.22,166.65L226.61,167.58L221.64,167.58L112.42,153.97L111.76,153.81L114.47,152.56L116.48,151.04L117.97,149.25L119.38,146.32L119.99,144.46L119.99,140.59L118.98,137.56L117.50,135.01L116.28,133.50L118.22,133.53z"/><g id="Actor_.0"><g style="stroke:#000000;stroke-width:0.025"><path d="M69.39,65.20L71.09,63.66L70.22,62.60L69.44,61.35L68.86,60.07L68.46,58.73L68.25,57.37L68.24,56.01L68.43,54.70L68.81,53.45L69.37,52.29L70.12,51.26L71.02,50.37L72.22,49.57"/><path d="M117.65,116.82L119.26,115.38L118.57,114.58L71.09,63.66L71.39,63.46"/><path d="M71.43,47.39L71.34,47.44"/><path d="M83.23,51.99L84.41,50.77L83.26,49.63L81.98,48.66L80.61,47.86L79.16,47.24L76.92,46.70L74.68,46.62L72.54,47.01L70.57,47.86"/><path d="M131.95,105.22L133.31,104.28L84.43,50.77L85.20,50.27"/><path d="M133.53,114.38L132.81,115.55L132.00,116.43L131.05,117.18L129.98,117.77L128.82,118.19L127.59,118.44L126.31,118.51L125.02,118.40L123.74,118.11L122.50,117.65L121.33,117.03L120.25,116.26L119.32,115.38L119.48,115.06"/><path d="M135.47,115.23L135.78,114.43L136.12,113.08L136.25,111.68L136.16,110.26L135.65,108.14L135.06,106.77L134.27,105.48L133.31,104.28L133.76,103.49"/></g><g style="stroke:#000000;stroke-width:0.247"><path d="M66.49,60.36L65.94,58.04L65.83,56.48L65.93,54.94L66.25,53.46L66.76,52.06L67.48,50.77L68.37,49.62L69.97,48.23L72.06,47.06L73.39,46.55L74.79,46.23L76.99,46.15L78.49,46.36L80.69,47.05L82.10,47.76L84.03,49.14L85.66,50.77L133.76,103.49L134.69,104.63L135.47,105.92L136.06,107.26L136.46,108.63L136.65,110.03L136.65,111.42L136.44,112.77L136.04,114.06L134.91,116.29L134.10,117.40L132.60,118.79L130.85,119.81L128.93,120.45L126.78,120.72L124.63,120.57L122.52,120.02L120.52,119.10L118.71,117.83L117.65,116.82L69.39,65.20L68.36,63.94L67.48,62.57L66.49,60.36"/><path d="M69.07,59.57L68.76,58.54L68.56,57.18L68.55,55.83L68.73,54.52L69.11,53.27L69.68,52.12L70.42,51.09L71.32,50.20L72.22,49.57L73.22,49.11L74.46,48.77L75.77,48.64L77.12,48.71L78.46,48.99L79.77,49.47L81.02,50.14L82.19,50.99L83.23,51.99L131.95,105.22L132.78,106.26L133.44,107.39L133.93,108.59L134.22,109.82L134.32,111.06L134.23,112.28L133.94,113.45L133.53,114.38L132.97,115.25L132.16,116.13L131.23,116.86L130.15,117.46L128.99,117.89L127.78,118.13L126.63,118.20L125.19,118.10L123.91,117.81L122.68,117.35L121.51,116.73L120.44,115.96L119.48,115.06L71.39,63.46L70.49,62.36L69.74,61.16L69.07,59.57"/></g></g><g id="Actor_.1"><g style="stroke:#000000;stroke-width:0.025"><path d="M214.92,120.83L212.67,119.56L211.73,120.72L210.98,121.97L210.44,123.30L210.11,124.69L210.01,126.09"/><path d="M210.01,125.86L210.11,124.45L210.43,123.07L210.97,121.74L211.72,120.48L212.66,119.33L212.72,119.38L211.72,120.60L210.97,121.85L210.43,123.19L210.11,124.57L210.01,125.92"/><path d="M210.01,125.77L210.01,125.74"/><path d="M210.00,125.15L210.10,123.75L210.42,122.37L210.96,121.04L211.70,119.79L212.64,118.65L212.70,118.69L212.97,118.40L238.60,89.65L238.69,89.79L212.71,118.92L212.66,119.33L238.73,90.13L238.79,90.18L239.40,89.53L239.40,89.67L240.78,88.48L242.33,87.46L244.01,86.63L245.79,86.02L247.64,85.62L249.53,85.45L251.41,85.52L253.26,85.83L255.01,86.36L256.67,87.11L258.18,88.07L259.52,89.21L260.66,90.51L261.58,91.95L260.61,90.41L259.47,89.11L258.14,87.97L256.63,87.02L254.97,86.27L253.15,85.71L251.32,85.41L249.46,85.34L247.59,85.51L245.75,85.90L243.98,86.51L242.31,87.33L240.78,88.35L239.40,89.53"/><path d="M239.30,89.15L240.67,87.97L242.20,86.96L243.86,86.14L245.62,85.52L247.45,85.13L249.32,84.97L251.18,85.04L253.26,85.42L251.23,85.06L249.35,84.99L247.50,85.15L245.63,85.55L243.87,86.16L242.20,86.98L240.67,87.99L239.30,89.16L238.69,89.79L238.68,89.94L212.66,119.10L211.72,120.25L210.97,121.51L210.43,122.84L210.11,124.22L210.00,125.62"/><path d="M210.00,125.38L210.10,123.98L210.42,122.60L210.96,121.27L211.71,120.02L212.65,118.88L212.71,118.92L211.71,120.14L210.97,121.39L210.43,122.72L210.10,124.10L210.01,125.44"/><path d="M239.30,89.16L239.29,89.29L238.68,89.94L238.74,89.98L212.71,119.15L211.72,120.37L210.97,121.62L210.43,122.95L210.11,124.33L210.01,125.68"/><path d="M212.63,118.31L212.69,118.46L239.20,88.77L239.19,88.91L238.58,89.55L238.64,89.60L212.70,118.69L211.71,119.91L210.96,121.16L210.42,122.49L210.10,123.86L210.00,125.21"/><path d="M210.00,124.97L210.10,123.63L210.42,122.25L210.96,120.93L211.75,119.62"/><path d="M210.00,124.91L210.10,123.51L210.42,122.14L210.95,120.81L211.70,119.57L212.64,118.42L238.53,89.36L238.50,89.27"/><path d="M211.76,119.61L212.69,118.46L238.55,89.46L238.58,89.55L212.64,118.65L212.64,118.53L212.38,118.85"/><path d="M212.91,125.28L212.95,126.49L213.22,127.68L213.69,128.81L214.37,129.86L215.22,130.80L216.24,131.60L217.39,132.24L218.64,132.72L219.97,133.01L221.33,133.10L222.69,133.01L224.02,132.71L225.28,132.24L226.43,131.58L227.46,130.77L229.65,132.95"/><path d="M212.22,120.00L212.67,119.45L212.67,119.56L239.40,89.67L241.55,91.23"/><path d="M239.37,89.58L212.72,119.38L238.75,90.23L238.78,90.32L241.07,91.73"/><path d="M212.72,119.39L212.67,119.45"/><path d="M212.65,118.99L211.83,120.00"/><path d="M212.71,118.93L238.65,89.84"/><path d="M238.60,89.65L239.25,88.96L239.24,89.10L212.68,118.85L212.65,118.76L212.70,118.70"/><path d="M212.72,119.16L238.70,90.03L238.73,90.13L239.35,89.48L239.32,89.39L239.44,89.26L240.72,88.16L242.25,87.15L243.92,86.32L245.69,85.71L247.50,85.32L249.39,85.15L251.25,85.22L253.26,85.58L251.30,85.24L249.42,85.17L247.54,85.34L245.70,85.73L243.93,86.35L242.26,87.17L240.73,88.18L239.36,89.35"/><path d="M212.02,120.00L212.66,119.22"/><path d="M212.65,118.76L212.58,118.85"/><path d="M212.69,118.47L212.64,118.53"/><path d="M258.78,106.03L256.43,103.79L227.46,130.77L227.40,130.27"/><path d="M238.75,90.23L238.79,90.19"/><path d="M238.70,90.03L239.35,89.34"/><path d="M239.41,89.55L240.75,88.39L242.30,87.37L243.98,86.54L245.76,85.92L247.59,85.53L249.46,85.36L251.37,85.43L253.26,85.75"/><path d="M239.32,89.39L238.74,89.99"/><path d="M239.35,89.48L240.73,88.29L242.27,87.27L243.95,86.45L245.73,85.83L247.58,85.43L249.46,85.27L251.34,85.34L253.17,85.64L254.94,86.17L256.59,86.92L258.09,87.88L259.43,89.01L260.57,90.31L261.53,91.85"/><path d="M239.12,88.62L239.14,88.72L238.53,89.36L238.59,89.42"/><path d="M239.22,89.00L238.64,89.61"/><path d="M239.29,89.29L240.67,88.10L242.21,87.08L243.89,86.26L245.67,85.64L247.50,85.25L249.39,85.08L251.26,85.15L253.10,85.45L254.86,85.98L256.51,86.73L258.01,87.68L259.35,88.82L260.48,90.12L261.44,91.65L260.53,90.22L259.39,88.92L258.05,87.78L256.55,86.83L254.90,86.08L253.26,85.58"/><path d="M239.27,89.19L238.69,89.80"/><path d="M239.24,89.10L240.59,87.93L242.16,86.89L243.83,86.07L245.60,85.45L247.45,85.06L249.32,84.89L251.19,84.96L253.02,85.26L254.78,85.79L256.71,86.72L257.93,87.49L259.26,88.63L260.39,89.92L261.31,91.36L260.35,89.83L259.22,88.53L257.89,87.40L256.39,86.45L254.74,85.70L252.92,85.15L251.11,84.85L249.25,84.78L247.39,84.95L245.56,85.34L243.80,85.95L242.14,86.77L240.62,87.78L239.25,88.96"/><path d="M239.19,88.91L240.57,87.72L242.10,86.71L243.77,85.88L245.54,85.27L247.38,84.87L249.25,84.71L251.12,84.78L252.95,85.08L254.70,85.61L256.35,86.35L257.85,87.30L259.18,88.43L260.31,89.73L261.27,91.26"/><path d="M238.55,89.46L239.17,88.81"/><path d="M239.25,88.97L240.59,87.82L242.13,86.80L243.80,85.98L245.57,85.36L247.40,84.97L249.26,84.80L251.16,84.87L253.26,85.25"/><path d="M239.20,88.77L240.56,87.59L242.09,86.58L243.74,85.76L245.50,85.15L247.32,84.76L249.18,84.60L251.04,84.67L252.85,84.96L253.26,85.09L251.09,84.68L249.22,84.62L247.35,84.78L245.51,85.17L243.75,85.79L242.09,86.60L240.54,87.63L239.20,88.78"/><path d="M239.14,88.72L240.51,87.53L242.02,86.54L243.71,85.70L245.48,85.08L247.32,84.69L249.18,84.52L251.05,84.59L252.88,84.89L254.63,85.42L256.27,86.16L257.76,87.11L259.09,88.24L260.22,89.54L261.22,91.16"/><path d="M253.26,85.09L254.59,85.49L254.41,85.44"/><path d="M253.26,85.42L254.75,85.87L254.41,85.76"/><path d="M254.41,85.60L254.67,85.68"/><path d="M254.90,86.24L254.41,86.10"/><path d="M254.82,86.06L254.41,85.93"/><path d="M254.75,85.87L256.47,86.64L257.97,87.59L259.30,88.72L260.42,90.00L261.35,91.45L261.31,91.36"/><path d="M254.59,85.49L256.31,86.26L257.81,87.21L259.13,88.34L260.27,89.63L261.18,91.06"/><path d="M258.83,93.65L259.04,94.11L259.42,95.54L259.55,97.02L259.41,98.50L259.01,99.95L258.37,101.34L257.51,102.63L256.43,103.79L256.27,103.35"/><path d="M261.76,92.36L261.58,91.95"/><path d="M261.44,91.65L261.49,91.75"/><path d="M261.35,91.45L261.40,91.55"/></g><g style="stroke:#000000;stroke-width:0.247"><path d="M210.66,129.31L210.47,128.87L210.13,127.50L210.01,126.09L209.99,124.79L210.09,123.40L210.42,122.02L210.95,120.70L211.70,119.45L212.63,118.31L238.50,89.27L239.12,88.62L240.45,87.46L241.95,86.47L243.57,85.65L245.29,85.03L247.08,84.63L248.91,84.44L250.73,84.47L252.53,84.73L254.25,85.21L255.88,85.89L257.38,86.77L258.72,87.84L259.88,89.06L260.84,90.42L261.13,90.96L262.24,93.46L262.69,95.12L262.87,96.79L262.79,98.48L262.45,100.14L261.87,101.76L261.05,103.30L260.01,104.73L258.78,106.03L229.65,132.95L228.46,133.90L227.14,134.69L225.71,135.32L224.20,135.76L222.64,136.01L221.05,136.06L219.48,135.92L217.94,135.59L216.46,135.08L215.09,134.39L213.83,133.54L212.73,132.54L211.78,131.41L211.03,130.18L210.66,129.31"/><path d="M212.94,126.00L212.91,125.28L213.10,124.08L213.50,122.92L214.11,121.83L214.92,120.83L241.07,91.73L241.55,91.23L242.78,90.20L244.18,89.34L245.70,88.68L247.30,88.24L248.96,88.03L250.61,88.06L252.23,88.32L253.77,88.82L255.20,89.53L256.46,90.44L257.55,91.52L258.41,92.76L258.83,93.65L259.16,94.69L259.36,96.12L259.31,97.56L259.01,99.00L258.48,100.38L257.72,101.68L256.76,102.87L256.27,103.35L227.40,130.27L226.38,131.08L225.22,131.73L223.97,132.21L222.64,132.50L221.29,132.60L219.93,132.50L218.61,132.21L217.36,131.74L216.21,131.09L215.20,130.29L214.35,129.36L213.67,128.32L213.20,127.19L212.94,126.00"/></g></g><g id="Actor_.2"><g style="stroke:#000000;stroke-width:0.025"><path d="M105.80,155.79L106.10,154.62L104.42,154.31L102.76,153.84L101.15,153.16L99.64,152.31L98.22,151.26L96.95,150.08L95.85,148.77L94.95,147.35L94.25,145.86L93.77,144.32L93.53,142.76L93.52,141.21L93.76,139.71L94.23,138.28L95.17,136.65L94.58,137.77L94.11,139.19L93.87,140.69L93.88,142.24L94.12,143.79L94.60,145.33L95.29,146.82L96.20,148.23L97.29,149.54L98.55,150.72L99.95,151.75L101.47,152.61L103.08,153.29L104.74,153.76L106.42,154.03L106.73,153.48"/><path d="M94.17,135.20L95.28,133.99L96.58,132.95L98.06,132.11L99.68,131.47L101.42,131.06L103.25,130.88L105.12,130.94L104.69,132.49"/><path d="M95.20,136.62L95.45,136.28"/><path d="M240.78,154.84L240.37,152.98L239.67,151.18L238.70,149.46L237.47,147.87L235.99,146.42L234.31,145.15L232.44,144.07L230.42,143.22L228.30,142.59L226.09,142.22L105.12,130.94L105.37,130.55L103.50,130.50L101.68,130.68L99.94,131.09L98.32,131.72L96.85,132.57L95.55,133.61L94.40,134.89"/><path d="M225.06,143.81L225.70,142.18L225.65,141.74L105.37,130.55L105.61,130.17"/><path d="M222.49,167.91L222.53,168.46L224.48,168.62L226.55,168.48L228.51,168.10L230.39,167.51L232.16,166.70L233.79,165.69L235.24,164.51L236.49,163.15L237.51,161.67L238.28,160.07L238.79,158.38L239.02,156.65L238.97,154.99L239.12,157.26L238.89,158.99L238.38,160.68L237.61,162.28L236.58,163.77L235.33,165.13L233.87,166.32L232.28,167.31L230.46,168.14L228.57,168.73L226.61,169.11L224.60,169.25L222.58,169.16L106.11,154.58L106.42,154.03L222.53,168.54L222.58,169.16L221.91,170.39"/><path d="M225.61,141.31L225.65,141.74L228.24,142.16L230.37,142.78L232.38,143.63L234.24,144.71L235.92,145.98L237.39,147.42L238.62,149.01L239.59,150.72L240.29,152.52L240.70,154.38"/><path d="M226.09,142.22L226.00,141.35"/><path d="M238.97,154.99L238.87,154.49"/></g><g style="stroke:#000000;stroke-width:0.247"><path d="M92.09,142.68L92.03,141.26L92.20,139.62L92.62,138.04L93.28,136.56L94.17,135.20L95.82,133.22L97.11,132.19L98.59,131.34L100.15,130.73L101.93,130.30L103.75,130.12L105.61,130.17L226.00,141.35L228.19,141.73L230.23,142.33L232.32,143.20L234.84,144.77L235.85,145.53L237.32,146.98L238.54,148.57L239.51,150.27L240.21,152.07L240.78,154.84L240.90,156.72L240.73,158.59L240.27,160.38L239.79,161.54L238.53,163.80L237.29,165.32L235.82,166.67L234.17,167.85L232.34,168.83L230.39,169.60L228.33,170.15L226.21,170.46L224.06,170.54L221.91,170.39L105.80,155.79L103.98,155.45L102.20,154.90L100.47,154.14L99.00,153.29L97.33,152.07L95.96,150.80L94.77,149.39L93.77,147.87L92.99,146.27L92.43,144.62L92.09,142.68"/><path d="M94.40,142.80L94.23,141.72L94.22,140.18L94.46,138.68L94.92,137.31L95.86,135.76L96.98,134.71L97.85,134.14L99.73,133.19L101.30,132.73L102.97,132.50L104.69,132.49L225.42,143.83L227.48,144.14L229.48,144.68L231.38,145.46L233.13,146.44L234.71,147.62L236.08,148.97L237.22,150.46L238.11,152.07L238.73,153.76L238.92,156.05L238.69,157.78L238.19,159.46L237.42,161.05L236.40,162.54L235.19,163.85L233.71,165.07L232.09,166.08L230.32,166.88L228.44,167.48L226.49,167.85L224.48,168.00L222.49,167.91L105.05,153.21L103.39,152.74L101.79,152.07L100.28,151.21L98.88,150.18L97.62,149.00L96.54,147.70L95.63,146.29L94.94,144.80L94.40,142.80"/></g></g><g id="Actor_.3"><g style="stroke:#000000;stroke-width:0.025"><path d="M39.14,68.31L37.65,69.29L36.60,70.36L35.75,71.60L35.12,72.99L34.72,74.50L34.56,76.09L34.64,77.73L34.97,79.38L35.52,81.00L36.30,82.56L37.27,84.02L38.42,85.36L38.87,85.06"/><path d="M36.33,87.26L38.40,85.38L92.10,140.62"/><path d="M36.87,66.29L39.22,65.29L40.94,64.92L42.73,64.81L44.58,64.96L47.35,65.65L49.15,66.42L51.69,67.99L53.96,70.00L55.17,69.24"/><path d="M38.20,65.56L38.08,65.64"/><path d="M52.66,71.42L53.96,70.00L111.57,130.73"/><path d="M99.37,147.37L99.09,147.82L94.43,143.02"/><path d="M116.40,146.94L115.53,148.36L114.57,149.38L113.43,150.23L112.15,150.90L110.75,151.37L109.26,151.64L107.71,151.69L106.14,151.53L104.56,151.15L103.06,150.59L101.62,149.83L100.29,148.90L99.09,147.82L97.69,149.07"/><path d="M114.19,136.14L115.77,135.16L114.08,133.38"/><path d="M118.44,148.70L119.06,147.21L119.43,145.63L119.55,143.99L119.42,142.30L118.73,139.78L117.97,138.15L116.98,136.60L115.77,135.16L116.46,133.95"/><path d="M118.82,147.90L118.79,147.95"/></g><g style="stroke:#000000;stroke-width:0.247"><path d="M92.54,144.94L36.33,87.26L34.41,84.92L32.93,82.30L31.96,79.52L31.54,76.69L31.59,74.83L32.13,72.18L32.81,70.55L33.73,69.08L34.28,68.40L36.15,66.74L38.95,65.17L40.55,64.56L42.25,64.20L44.90,64.13L46.77,64.40L49.50,65.27L52.10,66.67L53.70,67.86L55.17,69.24L113.59,130.91"/><path d="M108.79,130.47L52.66,71.42L51.33,70.19L49.87,69.14L48.35,68.33L46.68,67.71L45.02,67.35L43.38,67.24L41.78,67.39L40.29,67.79L39.14,68.31L38.12,69.03L37.07,70.09L36.22,71.33L35.60,72.69L35.29,73.85L35.03,75.81L35.11,77.45L35.43,79.09L35.99,80.71L36.76,82.26L37.73,83.73L38.87,85.06L92.17,139.95"/><path d="M111.31,133.11L114.20,136.15L115.23,137.40L116.07,138.75L116.69,140.17L117.09,141.64L117.24,143.08L117.18,144.23L116.84,145.92L116.40,146.94L115.77,147.91L114.81,148.93L113.68,149.78L112.40,150.45L111.00,150.92L109.51,151.18L107.96,151.23L106.40,151.07L104.84,150.70L103.33,150.13L101.89,149.38L100.56,148.45L99.37,147.37L94.29,142.14"/><path d="M111.28,154.05L112.44,153.72L113.94,153.10L115.25,152.31L116.54,151.26L117.60,150.05L118.44,148.70L119.49,146.54L119.97,144.98L120.19,143.39L120.16,141.75L119.88,140.10L119.37,138.46L118.61,136.87L117.64,135.36L116.10,133.56"/></g></g><g id="PMI1.0"><g><path style="stroke:#000000;stroke-width:0.280" d="M72.23,38.48L72.60,45.35"/></g><g><path style="fill:#000000" d="M71.61,45.42L73.61,45.31L72.72,47.36z"/></g><g><path style="fill:#ffffff" d="M66.55,38.49L77.70,38.49L77.70,33.98L66.55,33.98z"/><path style="stroke:#00ff00;stroke-width:0.350;stroke-opacity:0.98" d="M66.55,38.49L77.70,38.49L77.70,33.98L66.55,33.98z"/><text xml:space="preserve" fill="#000000" stroke-width="0" x="67.11" y="37.22" font-size="2.73" opacity="1.00" font-family="MS Shell Dlg">CM-B80</text></g></g><g id="PMI.0"><g><path style="stroke:#000000;stroke-width:0.280" d="M249.14,76.91L249.37,83.25"/></g><g><path style="fill:#000000" d="M248.35,83.29L250.35,83.21L249.42,85.25z"/></g><g><path style="fill:#ffffff" d="M241.87,76.92L256.22,76.92L256.22,72.40L241.87,72.40z"/><path style="stroke:#00ff00;stroke-width:0.350;stroke-opacity:0.98" d="M241.87,76.92L256.22,76.92L256.22,72.40L241.87,72.40z"/><text xml:space="preserve" fill="#000000" stroke-width="0" x="242.43" y="75.65" font-size="3.09" opacity="1.00" font-family="MS Shell Dlg">V2(1025）</text></g></g><g id="PMI.1"><g><path style="stroke:#000000;stroke-width:0.280" d="M167.43,126.55L168.09,135.03"/></g><g><path style="fill:#000000" d="M167.09,135.11L169.09,134.95L168.25,137.02z"/></g><g><path style="fill:#ffffff" d="M159.68,126.55L174.82,126.55L174.82,122.04L159.68,122.04z"/><path style="stroke:#00ff00;stroke-width:0.350;stroke-opacity:0.98" d="M159.68,126.55L174.82,126.55L174.82,122.04L159.68,122.04z"/><text xml:space="preserve" fill="#000000" stroke-width="0" x="160.24" y="125.28" font-size="2.77" opacity="1.00" font-family="MS Shell Dlg">AV17*1870</text></g></g><g/><g id="paperID" visibility="hidden" opacity="0.00" transform="scale(0.000100)"><path style="stroke:#000000;stroke-width:0.500;fill:#e6e6e6;fill-rule:evenodd" d="M-2000.00,-2000.00L2297.00,-2000.00L2297.00,2210.00L-2000.00,2210.00zM0.00,0.00L297.00,0.00L297.00,210.00L0.00,210.00z"/><path style="fill:#000000;fill-opacity:0.118" d="M3.00,210.00L297.00,210.00L297.00,3.00L300.00,3.00L300.00,213.00L3.00,213.00z"/></g><g id="hotspot.0" onmouseover="ShowHotSpot(evt,'0')" onmouseout="HideHotSpot(evt,'0')" onmousemove="ShowToolTip(evt,'0',&quot;3dp641095&quot;)" opacity="0"><path style="fill:#00ff00;fill-rule:evenodd" d="M77.86,34.21L77.76,38.80L72.39,39.04L72.31,40.03L71.96,39.05L66.59,38.82L66.27,38.60L66.32,34.30L66.54,33.98L77.60,33.95zM72.58,45.13L72.43,45.01L72.31,40.03L72.47,40.14zM73.54,45.44L73.26,46.07L73.20,46.62L75.61,46.26L78.63,46.52L81.03,47.32L82.90,48.39L85.06,50.23L132.02,101.73L134.15,104.14L135.47,106.03L136.53,109.23L136.53,112.52L136.00,114.38L134.13,117.59L132.68,118.81L130.32,120.18L128.18,120.71L124.79,120.71L122.65,120.18L119.74,118.82L116.54,115.88L114.41,113.48L88.26,85.46L81.85,78.79L80.52,77.18L69.05,64.91L67.68,63.07L66.34,60.15L66.09,58.80L66.08,54.34L66.89,51.95L68.37,49.69L70.80,47.85L72.24,47.12L72.26,46.53L71.95,46.21L71.86,45.75L72.48,45.53L72.58,45.13zM47.42,64.66L50.34,65.74L53.28,67.60L57.57,71.85L58.90,73.45L62.38,76.92L63.71,78.52L67.18,81.99L68.51,83.59L71.98,87.06L73.31,88.66L76.79,92.13L78.12,93.73L81.59,97.20L82.92,98.80L86.39,102.27L87.72,103.87L91.20,107.34L92.53,108.94L96.00,112.41L97.33,114.01L100.80,117.48L102.13,119.08L105.61,122.55L106.94,124.15L111.45,128.71L113.35,130.84L111.72,130.85L108.79,130.57L105.07,126.82L103.74,125.22L100.00,121.48L98.67,119.88L94.93,116.15L93.60,114.54L89.86,110.81L88.53,109.21L84.52,105.21L83.19,103.60L79.45,99.87L78.12,98.27L74.38,94.53L73.05,92.93L69.31,89.20L67.98,87.59L64.24,83.86L62.91,82.25L58.90,78.26L57.57,76.65L53.83,72.92L52.51,71.30L49.81,69.21L46.89,67.85L45.54,67.60L41.45,67.60L40.38,67.86L39.13,68.48L36.76,70.65L35.58,72.94L35.13,75.16L35.13,77.21L35.39,78.82L35.93,80.68L38.09,84.39L41.30,87.59L42.63,89.20L50.10,96.66L51.43,98.27L59.17,106.00L60.51,107.61L67.98,115.08L69.31,116.68L77.05,124.42L78.38,126.02L85.86,133.49L87.19,135.09L91.99,139.90L92.26,144.54L90.13,142.56L83.45,135.89L82.12,134.29L73.31,125.49L71.98,123.88L63.17,115.08L61.84,113.48L53.03,104.67L51.70,103.07L42.89,94.27L41.56,92.66L35.69,86.79L33.79,84.15L32.18,80.43L31.66,78.01L31.67,74.63L32.12,72.42L33.42,69.71L35.29,67.58L37.71,66.00L40.65,64.67L41.72,64.40L46.07,64.40zM116.01,133.76L116.54,134.29L118.11,136.19L119.19,138.31L119.99,140.72L120.00,145.08L119.71,145.86L118.12,149.35L116.80,151.22L115.62,152.17L113.23,153.52L111.63,154.08L110.66,154.07L104.76,153.28L102.38,152.46L100.01,151.10L97.56,149.00L96.24,147.39L94.90,144.73L94.63,143.94L94.65,142.55L96.00,144.17L99.99,148.17L102.92,150.05L106.11,151.13L110.57,151.13L112.97,150.33L114.94,148.83L116.52,146.94L117.06,145.35L117.06,141.51L115.72,138.32L113.61,135.62L111.37,133.22zM79.97,49.72L82.10,51.06L86.66,55.84L129.35,102.54L131.48,104.94L133.06,106.83L134.14,109.49L134.13,112.78L133.52,114.57L131.76,116.55L130.31,117.50L128.72,118.04L124.52,118.04L122.12,117.24L120.28,115.88L116.28,111.88L114.94,110.27L70.91,63.05L69.28,60.40L68.75,58.54L68.74,54.60L69.84,51.97L71.34,50.26L73.28,49.27L74.27,48.92L77.56,48.92z"/></g></g></svg>
