<?xml version="1.0" encoding="UTF-8" standalone="no"?>
<svg xmlns="http://www.w3.org/2000/svg" xmlns:xlink="http://www.w3.org/1999/xlink" width="297.000mm" height="210.000mm" viewBox="0.000000 0.000000 297.000000 210.000000" stroke-linejoin="round" stroke-linecap="round" fill="none" fill-rule="evenodd"><desc>Composer Export</desc><script type="text/ecmascript"><![CDATA[
if(typeof(top) != "undefined")
{
	top.ShowPaper = ShowPaper;
}
function ShowHotSpot(evt,hotspotid)
{
	var svgDocument = evt.target.ownerDocument;
	var strId = "hotspot."+hotspotid;
	var hotspot = svgDocument.getElementById(strId);
	if(hotspot)
		hotspot.setAttribute("opacity",".5");
}
function HideHotSpot(evt,hotspotid)
{
	var svgDocument = evt.target.ownerDocument;
	var strId = "hotspot."+hotspotid;
	var hotspot = svgDocument.getElementById(strId);
	if(hotspot)
		hotspot.setAttribute("opacity","0");

	var toolTip = svgDocument.getElementById('ToolTip');
	if(toolTip)
		toolTip.setAttribute("visibility","hidden");
}
function ShowToolTip(evt,hotspotid,strTooltip)
{
	if(strTooltip=="")
	return;

	// change text
	var svgDocument = evt.target.ownerDocument;
	var tiptext = svgDocument.getElementById('ToolTipText');
	if( !tiptext )
	return;
	tiptext.firstChild.nodeValue = " " + strTooltip + "  " ;

	// show tooltip before, else some refresh issue

	var toolTip = svgDocument.getElementById('ToolTip');
	if(!toolTip)
	return;

	toolTip.setAttribute("visibility","visible");
	toolTip.setAttribute("opacity",".95");

	// move tooltip
	// get viewbox

	var root = svgDocument.documentElement;
	var vbox = (root.getAttribute("viewBox")).split(' ');
	var x0 = parseFloat(vbox[0]);
	var y0 = parseFloat(vbox[1]);
	var vboxW = parseFloat(vbox[2]);
	var vboxH = parseFloat(vbox[3]);

	// get default width of svg

	var strW = root.getAttribute("width");
	var svgW = parseFloat(strW);
	if(strW.indexOf('mm') != -1)
	svgW *= 3.779;

	var strH = root.getAttribute("height");
	var svgH = parseFloat(strH);
	if(strH.indexOf('mm') != -1)
	svgH *= 3.779;  	// 96 dpi  -> 96/25.4 = 3.779

	// update the viewbox / width / height if svg is embedded in html with zoom fit all
	var realx0 = x0;
	var realy0 = y0;
	var realvboxW = vboxW;
	var realvboxH = vboxH;
	var realsvgW = svgW;
	var realsvgH = svgH;

	if ((typeof(top) == "undefined") || (typeof(top.svgctl1) != "undefined")) // embedded in html
	{
		// get window size in pxl

		svgW = window.innerWidth;
		svgH = window.innerHeight;

		// calculate real viewbox

		realsvgW = svgW;
		realsvgH = svgH;
		if((svgW / svgH) > (vboxW / vboxH))
		{
			realvboxW = (vboxH * svgW) / svgH;
			realvboxH = vboxH;
			realx0 = x0 - (realvboxW - vboxW)/2 ;
		}
		else
		{
			realvboxH = (vboxW * svgH) / svgW;
			realvboxW = vboxW;
			realy0 = y0 - (realvboxH - vboxH)/2 ;
		}
	}

	// get user zoom/pan

	var newScale = root.currentScale;
	var translation = root.currentTranslate;

	// transform pxl to user unit

	var xPos = (((evt.clientX+10- translation.x)/newScale) * realvboxW)/realsvgW  + realx0 ;
	var yPos = (((evt.clientY+5- translation.y)/newScale) * realvboxH)/ realsvgH  + realy0 ;
	var scaleForWidth = ( (1 / newScale) * realvboxH) / realsvgH;

	// move tooltip

	toolTip.setAttribute("transform", "translate(" + xPos + "," + yPos + ")" );

	// resize tooltip

	var fontsize = 12;
	tiptext.setAttribute("font-size",fontsize*scaleForWidth);
	tiptext.setAttribute("y", fontsize*scaleForWidth);
	var tipBG = svgDocument.getElementById('ToolTipBG');
	var outline = tiptext.getBBox();
	if(tipBG)
	{
		tipBG.setAttribute("stroke-width", 1*scaleForWidth);
		tipBG.setAttribute("width", Number(outline.width) );
		tipBG.setAttribute("height", Number(outline.height) + fontsize*.5*scaleForWidth );
	}
	var ToolTipShadow = svgDocument.getElementById('ToolTipShadow');
	if(ToolTipShadow)
	{
		ToolTipShadow.setAttribute("width", Number(outline.width) );
		ToolTipShadow.setAttribute("height", Number(outline.height) + fontsize*.5*scaleForWidth );
		ToolTipShadow.setAttribute("x", 3*scaleForWidth);
		ToolTipShadow.setAttribute("y", 3*scaleForWidth);
	}
}
function ShowPaper()
{
  var svgDocument = getDocument();
  var paper = svgDocument.getElementById("paperID");
  if(paper)
  {
    paper.setAttribute("transform","scale(1)");
    paper.setAttribute("opacity","1");
    paper.setAttribute("visibility","visible");
  }
  var svg = svgDocument.getRootElement();
  if(svg)
  {
    svg.setAttribute("width","307.000mm");
    svg.setAttribute("height","220.000mm");
    svg.setAttribute("viewBox","-5.000000 -5.000000 307.000000 220.000000");
  }
}
]]></script><defs/><g><path style="fill:#ffffff" d="M296.94,210.06L0.07,210.06L0.07,0.07L296.94,0.07z"/><path style="fill:#0000ff" d="M165.61,56.90L166.61,58.68L166.89,59.59L166.79,59.68L166.98,141.14L165.42,140.61L165.09,70.30L164.85,56.90L162.88,56.90L162.61,56.88L161.22,56.91L161.01,57.21L161.06,60.69L162.05,62.18L161.80,64.32L161.80,78.23L162.06,74.82L162.06,117.38L162.31,114.73L162.34,141.85L161.22,141.35L161.07,138.74L160.04,139.54L159.46,139.48L159.36,145.94L158.51,145.83L155.50,144.29L153.23,136.45L151.35,135.52L151.34,134.97L152.22,134.71L149.76,133.57L148.42,132.92L148.08,132.90L147.42,133.48L145.57,132.92L144.72,134.87L145.07,133.20L145.27,132.35L146.10,132.16L146.15,131.93L145.46,131.53L143.15,130.41L141.02,130.92L141.00,135.80L144.29,135.45L144.72,134.87L144.64,135.80L143.95,138.07L140.84,136.47L140.64,130.81L140.59,130.37L140.29,130.38L140.16,130.75L139.04,130.69L138.74,130.49L138.40,125.57L140.86,125.19L140.86,124.34L138.49,124.35L136.97,124.59L136.64,125.77L136.21,125.70L136.01,125.39L136.03,123.15L138.02,122.86L138.32,122.66L138.06,107.42L137.98,96.46L138.30,96.56L138.57,98.44L138.57,86.44L138.33,95.92L137.95,96.21L137.81,93.28L137.72,81.31L138.04,81.40L138.32,84.04L138.32,77.35L138.04,81.00L137.72,81.08L137.56,79.39L137.39,70.01L139.83,69.87L140.20,68.70L140.10,68.53L135.97,68.53L135.60,69.91L135.03,69.81L134.68,68.29L135.17,67.23L137.32,67.11L137.55,63.04L138.08,62.06L138.22,58.65L138.90,58.63L139.33,64.34L142.27,62.21L142.73,60.60L149.43,60.28L159.98,59.46L160.54,59.26L160.70,56.65L162.13,56.55L162.66,56.54L163.16,56.53L165.10,56.65z"/><path style="fill:#fe00ff" d="M135.61,171.26L135.46,171.16L135.45,167.79L135.61,167.74z"/><path style="fill:#e400e5" d="M143.62,167.00L139.06,167.85L138.84,170.66L135.61,171.26L135.61,167.74L135.87,167.63L145.49,165.88L147.19,165.52L147.25,168.93L147.08,169.06L146.43,169.05z"/><path style="fill:#e400e5" d="M166.10,186.56L159.27,188.06L157.43,188.34L157.33,185.41L162.23,184.20L165.70,183.54L166.12,183.70z"/><path style="fill:#0000e5" d="M138.90,58.63L139.92,58.56L140.42,58.56L140.68,58.55L142.62,58.67L142.73,60.60L142.27,62.21L139.33,64.34z"/><path style="fill:#0000e5" d="M138.56,76.96L138.54,76.45L142.74,67.49L143.00,67.68L143.12,83.43L143.65,125.02L140.07,117.04L139.34,76.10z"/><path style="fill:#fffe02" d="M215.62,49.81L214.75,49.82L214.07,50.66L213.99,52.21L216.45,52.29L216.37,52.71L215.69,54.04L215.33,54.72L215.09,54.14L214.25,54.12L214.08,60.55L213.83,54.11L213.58,57.02L213.32,54.11L211.99,54.39L211.81,61.06L211.56,54.36L211.31,58.03L211.06,54.37L210.79,54.97L210.54,54.39L209.70,54.36L209.21,54.64L209.03,62.57L208.78,54.62L208.53,60.30L208.28,54.62L208.02,58.03L207.77,54.61L207.52,55.76L207.27,54.62L204.90,54.73L204.89,50.25L234.19,47.04L234.45,46.80L236.65,46.77L234.38,131.80L232.26,131.43L228.23,130.15L216.15,126.74L216.74,126.07L217.03,125.85L218.31,125.62L218.37,124.57L218.08,124.56L217.61,125.45L217.37,124.58L215.26,124.85L215.11,125.70L214.68,126.48L213.83,126.65L212.83,125.85L204.31,123.47L203.92,123.16L203.73,119.78L203.50,123.26L202.63,123.17L202.72,105.99L202.89,100.79L203.30,100.51L203.27,100.39L202.86,100.50L203.38,50.08L204.57,50.06L204.74,65.61L204.48,64.72L204.49,83.78L204.22,83.18L204.25,101.95L203.97,101.65L203.98,117.27L204.24,119.15L204.49,111.69L204.74,119.15L204.99,112.20L205.25,119.40L205.50,112.70L205.75,119.40L206.00,113.46L206.26,119.65L206.51,114.47L206.76,119.65L207.01,115.74L207.27,119.90L207.52,116.75L207.77,119.90L208.02,118.26L208.26,120.10L208.53,119.82L208.78,120.29L211.09,120.88L211.31,114.98L211.56,120.91L211.81,117.25L212.06,121.17L212.32,120.02L212.49,121.15L212.79,121.35L213.84,121.41L214.08,114.73L214.34,121.67L214.59,118.01L214.83,121.65L215.10,121.05L215.28,121.89L216.61,122.18L216.86,118.77L217.12,122.41L218.38,122.68L218.63,117.76L218.88,122.94L219.14,121.79L219.31,122.91L219.63,123.14L220.15,123.18L220.40,118.51L220.64,123.13L220.90,122.85L221.09,123.38L221.95,123.66L222.17,120.53L222.34,123.67L222.66,123.89L223.18,123.94L223.43,119.02L223.70,123.90L224.42,124.21L224.69,118.26L224.95,124.45L225.20,123.31L225.37,124.43L225.69,124.65L226.21,124.70L226.46,123.31L226.71,124.87L227.47,124.96L227.72,123.81L227.91,125.23L228.21,125.23L228.48,119.52L228.72,125.43L228.97,124.85L229.19,125.45L229.47,125.48L229.74,121.04L229.92,125.68L230.79,125.93L231.01,123.06L231.18,125.94L231.50,126.17L232.02,126.22L232.52,113.31L234.04,58.51L234.04,52.60L233.19,52.60L233.03,54.24L232.75,52.57L232.46,52.57L232.27,57.02L232.01,52.59L231.42,52.56L231.00,53.46L230.72,52.85L230.44,52.82L230.25,56.76L230.00,52.86L229.15,52.85L228.99,54.24L228.71,52.82L228.42,52.83L228.23,58.28L227.98,53.11L227.13,53.11L226.97,56.51L226.72,53.11L225.87,53.11L225.70,55.50L225.45,53.10L225.13,53.07L224.61,53.38L224.44,54.75L224.20,53.36L223.34,53.36L223.18,55.00L222.93,53.36L222.08,53.36L221.91,55.75L221.67,53.61L220.82,53.61L220.65,57.27L220.41,53.62L219.47,53.54L219.90,52.97L219.88,51.82L219.59,51.82L219.12,52.72L218.87,51.87L218.13,51.61L216.79,51.62L216.45,52.29L216.38,50.58L216.09,50.11z"/><path style="fill:#e5e401" d="M218.87,51.87L219.12,52.72L219.59,51.82L219.88,51.82L219.90,52.97L219.47,53.54L219.30,53.63L219.39,59.79L219.47,53.54L220.41,53.62L220.65,57.27L220.82,53.61L221.67,53.61L221.91,55.75L222.08,53.36L222.93,53.36L223.18,55.00L223.34,53.36L224.20,53.36L224.44,54.75L224.61,53.38L225.13,53.07L225.45,53.10L225.70,55.50L225.87,53.11L226.72,53.11L226.97,56.51L227.13,53.11L227.98,53.11L228.23,58.28L228.42,52.83L228.71,52.82L228.99,54.24L229.15,52.85L230.00,52.86L230.25,56.76L230.44,52.82L230.72,52.85L231.00,53.46L231.42,52.56L232.01,52.59L232.27,57.02L232.46,52.57L232.75,52.57L233.03,54.24L233.19,52.60L234.04,52.60L234.04,58.51L232.52,113.31L232.02,126.22L231.50,126.17L231.18,125.94L231.01,123.06L230.79,125.93L229.92,125.68L229.74,121.04L229.47,125.48L229.19,125.45L228.97,124.85L228.72,125.43L228.48,119.52L228.21,125.23L227.91,125.23L227.72,123.81L227.47,124.96L226.71,124.87L226.46,123.31L226.21,124.70L225.69,124.65L225.37,124.43L225.20,123.31L224.95,124.45L224.69,118.26L224.42,124.21L223.70,123.90L223.43,119.02L223.18,123.94L222.66,123.89L222.34,123.67L222.17,120.53L221.95,123.66L221.09,123.38L220.90,122.85L220.64,123.13L220.40,118.51L220.15,123.18L219.63,123.14L219.31,122.91L219.14,121.79L218.88,122.94L218.63,117.76L218.38,122.68L217.12,122.41L216.86,118.77L216.61,122.18L215.28,121.89L215.10,121.05L214.83,121.65L214.59,118.01L214.34,121.67L214.08,114.73L213.84,121.41L212.79,121.35L212.49,121.15L212.32,120.02L212.06,121.17L211.81,117.25L211.56,120.91L211.31,114.98L211.09,120.88L208.78,120.29L208.53,119.82L208.26,120.10L208.02,118.26L207.77,119.90L207.52,116.75L207.27,119.90L207.01,115.74L206.76,119.65L206.51,114.47L206.26,119.65L206.00,113.46L205.75,119.40L205.50,112.70L205.25,119.40L204.99,112.20L204.74,119.15L204.49,111.69L204.24,119.15L203.98,117.27L203.97,101.65L204.25,101.95L204.22,83.18L204.49,83.78L204.48,64.72L204.74,65.61L204.57,50.06L204.89,50.25L204.90,54.73L207.27,54.62L207.52,55.76L207.77,54.61L208.02,58.03L208.28,54.62L208.53,60.30L208.78,54.62L209.03,62.57L209.21,54.64L209.70,54.36L210.54,54.39L210.79,54.97L211.06,54.37L211.31,58.03L211.56,54.36L211.81,61.06L211.99,54.39L213.32,54.11L213.58,57.02L213.83,54.11L214.08,60.55L214.25,54.12L215.09,54.14L215.33,54.72L215.69,54.04L215.85,58.78L215.82,54.11L215.69,54.04L216.37,52.71L216.45,52.29L216.79,51.62L218.13,51.61z"/><path style="fill:#00fdff" d="M148.23,155.86L148.45,156.34L148.09,156.65L146.89,156.99L146.73,159.05L146.16,159.35L145.97,160.60L145.30,160.57L145.15,159.19L143.85,158.97L143.12,158.44L143.11,155.74L145.15,155.25L145.32,153.86L145.86,153.85L145.92,154.05L145.91,156.29L146.15,156.04L146.28,155.34L147.16,155.40z"/><path style="fill:#00fdff" d="M162.83,165.25L163.60,165.74L164.11,166.45L162.48,167.28L162.46,169.48L161.63,169.76L161.21,169.77L161.11,171.21L160.71,171.19L160.54,169.80L158.54,169.03L158.02,168.54L158.02,165.85L158.93,165.25L160.24,165.04L160.54,164.84L160.73,163.46L161.27,163.45L161.33,163.64L161.30,166.12L161.42,164.94z"/><path style="fill:#ffffff" d="M153.20,69.30L153.47,69.80L154.06,69.93L156.09,70.00L160.81,78.62L160.91,83.06L160.94,83.61L161.05,106.92L161.20,118.18L161.20,118.72L161.04,123.91L160.72,124.10L155.74,130.73L154.47,130.67L144.39,126.38L144.21,126.38L144.01,126.26L143.65,125.02L143.12,83.43L143.00,67.68L143.79,67.52L153.21,67.49z"/><path style="fill:#ffffff" d="M145.99,167.45L145.26,167.45L145.28,166.75L145.98,166.72z"/><path style="fill:#ffffff" d="M136.78,168.37L137.57,168.26L137.64,168.71L137.16,169.19L136.77,169.06z"/><path style="fill:#ffffff" d="M158.84,186.88L158.43,186.82L158.39,186.49L158.56,186.37z"/><path style="fill:#00e3e5" d="M146.14,155.17L146.28,155.34L146.15,156.04L145.91,156.29L145.92,154.05z"/><path style="fill:#00e3e5" d="M148.44,158.55L147.85,158.96L146.73,159.05L146.89,156.99L148.09,156.65L148.45,156.34z"/><path style="fill:#00e3e5" d="M146.15,160.56L145.97,160.60L146.16,159.35z"/><path style="fill:#00e3e5" d="M161.42,164.94L161.30,166.12L161.33,163.64z"/><path style="fill:#00e3e5" d="M164.10,168.90L163.85,169.15L162.46,169.48L162.48,167.28L164.11,166.45z"/><path style="fill:#00e3e5" d="M161.58,170.94L161.11,171.21L161.21,169.77L161.63,169.76z"/><path style="fill:#ff0000" d="M162.40,39.06L161.54,39.58L161.52,40.21L161.14,41.22L160.79,41.01L160.78,39.80L161.54,39.04z"/><path style="fill:#ff0000" d="M162.33,42.24L162.31,49.34L162.66,56.54L162.13,56.55L161.80,54.39L161.55,50.60L161.55,43.86L161.65,41.70L162.05,41.75z"/><path style="fill:#ff0000" d="M140.68,43.88L139.96,44.02L139.55,44.79L139.85,45.16L139.22,45.47L139.33,44.11L139.74,43.76z"/><path style="fill:#ff0000" d="M139.58,47.90L139.68,46.00L140.35,46.03L140.26,48.07L140.42,58.56L139.92,58.56L139.58,54.13z"/><path style="fill:#ff0000" d="M140.91,59.57L140.39,59.65L140.32,59.25L140.85,59.16z"/><path style="fill:#fe00ff" d="M146.43,169.05L147.08,169.06L147.25,168.93L148.95,170.31L148.86,170.80L162.06,180.67L165.70,183.54L162.23,184.20L157.33,185.41L143.90,174.58L141.43,172.70L139.73,172.57L139.17,172.96L137.29,172.85L135.71,171.66L135.61,171.26L138.84,170.66L139.06,167.85L143.62,167.00z"/><path style="fill:#fe00ff" d="M146.27,166.95L145.99,167.45L145.98,166.72z"/><path style="fill:#fe00ff" d="M145.88,167.65L145.32,167.63L145.26,167.45L145.99,167.45z"/><path style="fill:#fe00ff" d="M137.57,169.15L137.16,169.19L137.64,168.71z"/><path style="fill:#fe00ff" d="M158.56,186.37L158.70,186.18L159.04,186.20L159.05,186.81L158.84,186.88z"/><path style="fill:#e400e5" d="M143.64,168.28L143.64,169.13L142.09,169.06L141.32,168.78L141.25,168.31L142.10,168.03z"/><path style="fill:#e400e5" d="M145.09,170.33L144.04,170.32L144.52,170.04L145.66,170.05z"/><path style="fill:#e400e5" d="M145.92,170.90L145.12,171.41L145.03,171.12L145.59,170.77z"/><path style="fill:#e400e5" d="M146.23,171.67L145.71,171.78L145.55,171.54z"/><path style="fill:#e400e5" d="M141.43,172.70L139.17,172.96L139.73,172.57z"/><path style="fill:#e400e5" d="M150.23,174.48L149.54,174.74L149.58,174.37L150.22,174.11z"/><path style="fill:#e400e5" d="M154.86,178.10L154.29,178.33L154.19,177.98L154.97,177.85z"/><path style="fill:#e400e5" d="M160.89,181.57L160.23,181.95L159.19,181.94L160.86,181.47z"/><path style="fill:#0000e5" d="M162.91,57.07L162.88,56.90L164.85,56.90L165.09,70.30L165.42,140.61L164.00,141.02L163.84,145.40L159.36,145.94L159.46,139.48L160.04,139.54L161.07,138.74L161.22,141.35L162.34,141.85L162.31,114.73L162.06,117.38L162.06,74.82L161.80,78.23L161.80,64.32L162.05,62.18L161.06,60.69L161.01,57.21L161.22,56.91L162.61,56.88L162.54,57.40L162.26,57.68L163.32,58.01L163.55,57.41z"/><path style="fill:#0000e5" d="M167.11,64.74L167.36,141.14L166.98,141.14L166.79,59.68L166.89,59.59z"/><path style="fill:#0000e5" d="M151.20,66.34L150.86,66.34L150.86,66.00L151.20,66.00z"/><path style="fill:#0000e5" d="M153.98,68.36L153.64,68.36L153.64,68.02L153.98,68.02z"/><path style="fill:#0000e5" d="M159.39,68.45L158.94,69.79L156.09,70.00L154.06,69.93L154.49,69.12L154.65,68.27L159.30,68.27z"/><path style="fill:#0000e5" d="M140.20,68.70L139.83,69.87L137.39,70.01L135.60,69.91L135.97,68.53L140.10,68.53z"/><path style="fill:#0000e5" d="M137.72,81.31L137.72,81.08L138.04,81.00L138.32,77.35L138.32,84.04L138.04,81.40z"/><path style="fill:#0000e5" d="M161.58,83.42L160.94,83.61L160.91,83.06L161.31,82.95z"/><path style="fill:#0000e5" d="M166.12,92.10L166.03,91.78L166.32,91.73z"/><path style="fill:#0000e5" d="M161.56,92.25L161.23,92.34L161.32,92.01z"/><path style="fill:#0000e5" d="M137.98,96.46L137.95,96.21L138.33,95.92L138.57,86.44L138.57,98.44L138.30,96.56z"/><path style="fill:#0000e5" d="M166.34,100.67L166.01,100.59L166.39,100.38z"/><path style="fill:#0000e5" d="M161.56,101.19L161.22,101.19L161.22,100.85L161.56,100.85z"/><path style="fill:#0000e5" d="M138.48,110.72L138.82,100.83L138.82,112.58z"/><path style="fill:#0000e5" d="M161.64,118.45L161.20,118.72L161.20,118.18z"/><path style="fill:#0000e5" d="M140.86,125.19L138.40,125.57L136.64,125.77L136.97,124.59L138.49,124.35L140.86,124.34z"/><path style="fill:#0000e5" d="M144.09,126.70L143.78,126.64L144.01,126.26L144.21,126.38z"/><path style="fill:#0000e5" d="M144.13,128.97L143.79,128.97L143.79,128.64L144.13,128.64z"/><path style="fill:#0000e5" d="M140.85,129.41L140.25,129.46L140.33,129.14z"/><path style="fill:#0000e5" d="M145.46,131.53L145.27,132.35L145.07,133.20L144.72,134.87L144.29,135.45L141.00,135.80L141.02,130.92L143.15,130.41z"/><path style="fill:#0000e5" d="M140.64,130.81L140.16,130.75L140.29,130.38L140.59,130.37z"/><path style="fill:#0000e5" d="M149.76,133.57L149.45,133.77L148.08,137.48L143.95,138.07L144.64,135.80L144.72,134.87L145.57,132.92L147.42,133.48L148.08,132.90L148.42,132.92z"/><path style="fill:#0000e5" d="M159.89,132.34L159.52,133.26L158.70,133.44L155.15,133.78L155.15,132.66L159.81,132.18z"/><path style="fill:#fffe02" d="M218.32,53.59L218.87,53.60L218.88,55.00L218.59,53.88z"/><path style="fill:#fffe02" d="M215.85,58.78L215.69,54.04L215.82,54.11z"/><path style="fill:#fffe02" d="M219.39,59.79L219.30,53.63L219.47,53.54z"/><path style="fill:#e5e401" d="M216.09,50.11L216.38,50.58L216.45,52.29L213.99,52.21L214.07,50.66L214.75,49.82L215.62,49.81z"/><path style="fill:#e5e401" d="M235.31,59.00L234.72,59.05L234.95,58.64L235.33,58.68z"/><path style="fill:#e5e401" d="M234.46,74.31L234.78,74.32L234.83,74.92L234.54,74.87z"/><path style="fill:#e5e401" d="M203.17,87.19L203.46,87.23L203.51,87.52L203.22,87.47z"/><path style="fill:#e5e401" d="M233.99,89.93L234.27,89.99L234.33,90.57L233.99,90.27z"/><path style="fill:#e5e401" d="M203.30,100.51L202.89,100.79L202.86,100.50L203.27,100.39z"/><path style="fill:#e5e401" d="M234.05,105.66L233.53,105.67L233.52,105.21L233.79,105.16z"/><path style="fill:#e5e401" d="M233.56,120.55L233.56,120.89L233.29,120.83L233.29,120.28z"/><path style="fill:#e5e401" d="M214.60,123.07L214.88,124.14L212.47,124.17L212.94,122.78L213.24,122.55L213.83,122.55z"/><path style="fill:#e5e401" d="M203.92,123.16L204.31,123.47L203.50,123.26L203.73,119.78z"/><path style="fill:#e5e401" d="M217.61,125.45L218.08,124.56L218.37,124.57L218.31,125.62L217.03,125.85L216.74,126.07L216.15,126.74L214.68,126.48L215.11,125.70L215.26,124.85L217.37,124.58z"/><path style="fill:#e5e401" d="M243.48,46.96L240.86,130.74L240.56,130.95L234.38,131.80L236.65,46.77L243.39,46.80z"/><path style="fill:#e50000" d="M163.35,39.99L163.35,40.58L162.83,41.35L162.82,44.03L163.07,46.81L163.06,56.18L163.16,56.53L162.66,56.54L162.31,49.34L162.33,42.24L162.05,41.75L161.65,41.70L161.14,41.22L161.52,40.21L161.54,39.58L162.40,39.06L162.85,39.21z"/><path style="fill:#e50000" d="M141.13,44.26L141.07,45.61L140.78,45.82L140.84,56.49L140.68,58.55L140.42,58.56L140.26,48.07L140.35,46.03L139.68,46.00L139.30,45.79L139.22,45.47L139.85,45.16L139.55,44.79L139.96,44.02L140.68,43.88z"/><path style="fill:#e50000" d="M162.91,57.07L163.55,57.41L163.32,58.01L162.26,57.68L162.54,57.40L162.61,56.88L162.88,56.90z"/><path style="fill:#e50000" d="M141.16,59.96L141.12,60.28L140.24,60.28L140.39,59.65L140.91,59.57z"/><path style="fill:#ffffff" d="M146.15,131.93L146.10,132.16L145.27,132.35L145.46,131.53z"/><path style="fill:#ffffff" d="M160.30,138.50L158.94,138.84L158.94,137.96L159.26,137.94z"/><path style="fill:#ffffff" d="M148.92,173.62L148.16,173.61L145.88,172.07L145.71,171.78L146.23,171.67L146.68,171.82z"/><path style="fill:#ffffff" d="M150.47,174.84L153.50,177.12L152.71,177.15L151.47,176.35L149.54,174.74L150.23,174.48z"/><path style="fill:#ffffff" d="M158.53,180.94L157.49,180.94L154.49,178.63L154.29,178.33L154.86,178.10z"/><path style="fill:#ffffff" d="M164.08,185.55L163.74,185.55L163.74,185.21L164.08,185.21z"/><g id="Actor_.0"><g style="stroke:#000000;stroke-width:0.025"><path d="M135.28,69.98L135.49,69.88L135.66,69.57L135.81,68.58L135.63,67.58L135.44,67.28L135.23,67.18"/><path d="M135.19,69.01L135.30,69.04L135.43,68.74L135.40,68.32L135.28,68.12L135.14,68.22L135.08,68.47L135.19,69.01"/><path d="M136.44,125.69L136.71,125.45L136.85,124.58L136.68,123.57L136.50,123.20L136.29,123.01L140.47,122.57L138.30,122.77"/><path d="M136.40,124.78L136.48,124.62L136.48,124.25L136.38,123.98L136.27,123.89L136.17,124.00L136.14,124.26L136.20,124.61L136.32,124.78"/><path d="M136.19,122.99L136.29,123.01"/><path d="M140.47,122.57L140.69,122.76L140.87,123.12L141.03,123.86L141.02,124.62L140.82,125.12L140.63,125.23L138.35,125.48"/><path d="M138.31,111.26L138.45,111.52L138.55,111.52L138.65,111.34L138.66,111.01L138.50,110.60L138.40,110.59L138.31,110.72L138.31,111.26"/><path d="M138.21,103.32L138.16,103.83L138.26,104.12L138.38,104.19L138.52,103.99L138.51,103.54L138.41,103.29L138.33,103.23L138.21,103.32"/><path d="M138.27,103.24L138.34,103.24"/><path d="M138.19,96.79L138.07,96.62L138.01,96.28L138.10,95.89L138.20,95.83L138.35,96.04L138.40,96.36L138.32,96.74L138.19,96.79"/><path d="M138.13,95.85L138.22,95.84"/><path d="M138.84,115.95L138.15,77.36L138.37,77.35L139.04,115.93L138.84,115.95L139.14,116.06L143.67,126.37L143.68,126.75L153.90,131.21L154.18,130.86L154.45,130.86L154.59,130.95L154.96,131.52L155.18,132.69L155.13,133.25L155.00,133.64L154.87,133.82L154.62,133.93L155.21,133.86L155.25,134.18L161.32,136.92L161.35,141.35L162.44,141.88L162.74,141.83L162.25,62.30L161.93,62.30L162.44,141.88"/><path d="M137.88,88.84L137.91,88.55L138.07,88.38L138.18,88.49L138.26,88.78L138.25,89.12L138.16,89.33L138.00,89.30L137.88,88.84"/><path d="M137.87,80.90L137.75,81.35L137.81,81.70L137.92,81.85L138.09,81.71L138.14,81.36L138.05,80.98L137.87,80.90"/><path d="M138.15,77.36L142.75,67.25L142.98,67.25L142.88,67.48L144.00,67.49L153.25,67.29L153.39,67.01L142.88,67.25"/><path d="M138.37,77.35L138.46,77.15L139.14,115.96L139.63,116.04L143.72,125.32"/><path d="M137.30,67.16L139.64,67.16L139.94,67.54L140.12,68.50L140.04,69.30L139.89,69.68L139.69,69.89L137.35,69.95"/><path d="M142.67,65.19L142.88,65.19L142.90,65.61L142.68,65.61L142.67,65.19L138.27,65.36L144.00,65.12L142.88,65.16"/><path d="M138.27,65.36L137.46,65.40"/><path d="M138.27,65.34L138.53,64.82L139.13,64.31L139.03,58.44"/><path d="M138.26,65.36L138.19,61.92"/><path d="M139.40,130.75L139.33,126.96"/><path d="M161.35,141.35L161.25,141.25L161.24,139.50L160.23,139.64L160.21,139.04L161.19,138.90L161.23,138.43L161.17,138.36L139.89,128.50L139.82,127.18L138.55,126.61"/><path d="M139.14,116.06L139.58,116.02"/><path d="M139.14,115.96L139.04,115.93"/><path d="M138.40,110.59L138.46,110.58"/><path d="M140.04,116.97L139.34,75.82"/><path d="M138.46,77.15L138.65,76.88L138.95,76.67L142.84,68.14"/><path d="M139.13,64.31L142.10,62.40L142.35,62.14L142.29,58.45"/><path d="M144.00,65.12L160.79,64.46L160.72,63.38L139.00,64.39"/><path d="M140.27,130.81L140.26,130.15"/><path d="M140.62,130.76L140.52,130.30L139.91,129.99L139.91,129.48L140.53,129.79L140.81,130.44L140.98,136.07L143.68,137.49L144.01,136.59L143.54,136.34L143.72,136.24L144.13,136.21L144.29,135.68L141.02,136.10"/><path d="M140.25,129.44L140.24,129.14L139.96,128.85L139.84,128.48"/><path d="M139.91,129.48L140.79,129.37L143.26,130.50L140.84,130.79"/><path d="M140.46,129.74L141.38,129.63"/><path d="M140.83,129.37L140.24,129.09"/><path d="M143.71,128.95L144.20,128.89L144.19,128.54L143.70,128.32L143.71,128.95L139.82,127.18"/><path d="M140.56,59.13L140.90,59.24L141.00,59.50L140.88,59.80L140.61,59.88"/><path d="M140.92,135.85L144.38,135.40L144.29,135.68"/><path d="M143.32,124.41L142.46,68.98"/><path d="M142.88,67.51L143.13,67.51"/><path d="M142.35,62.14L142.46,61.76L142.56,61.71L160.70,60.51"/><path d="M160.72,63.38L160.70,61.27L142.10,62.40"/><path d="M142.47,61.71L142.49,60.69L142.72,60.68"/><path d="M143.77,138.03L143.95,137.81L148.27,137.24"/><path d="M143.95,137.81L145.44,132.96L145.63,132.73L145.99,132.88L145.44,132.96"/><path d="M143.26,130.50L145.11,131.36"/><path d="M143.68,126.75L144.16,126.69L154.03,130.98"/><path d="M143.67,126.37L144.16,126.32L144.16,126.69"/><path d="M143.33,66.27L143.37,66.76L143.54,66.88L143.67,66.58L143.59,66.08L143.49,66.01L143.41,66.06L143.33,66.27"/><path d="M142.98,67.25L144.00,67.22"/><path d="M160.79,64.46L154.59,64.73L154.60,65.19L142.90,65.61"/><path d="M144.13,136.21L144.01,136.59"/><path d="M144.38,135.40L145.13,132.95"/><path d="M144.41,128.37L144.24,127.89L144.30,127.61L144.41,127.56L144.55,127.75L144.60,128.02L144.55,128.33L144.41,128.37"/><path d="M144.43,128.39L144.51,128.38"/><path d="M144.19,128.54L153.87,132.87"/><path d="M154.55,130.80L144.16,126.32L144.08,126.13"/><path d="M146.02,132.89L147.38,133.53L147.36,132.99L145.71,132.21L146.62,132.10L148.33,132.87L147.36,132.99"/><path d="M145.71,132.21L145.57,132.18"/><path d="M145.71,66.29L145.74,66.60L145.91,66.83L146.03,66.71L146.09,66.40L145.95,65.96L145.81,65.99L145.71,66.29"/><path d="M146.67,132.09L146.60,132.06"/><path d="M146.68,129.33L146.59,128.84L146.74,128.58L146.90,128.79L146.96,129.11L146.90,129.38L146.78,129.43L146.68,129.33"/><path d="M146.87,129.42L146.78,129.43"/><path d="M149.49,133.41L148.33,132.87"/><path d="M147.38,133.53L149.25,133.30"/><path d="M148.20,66.32L148.32,66.73L148.49,66.71L148.59,66.26L148.45,65.87L148.30,65.91L148.20,66.32"/><path d="M149.13,130.45L149.02,129.91L149.17,129.66L149.34,129.87L149.40,130.20L149.34,130.47L149.21,130.52L149.13,130.45"/><path d="M149.21,130.52L149.31,130.51"/><path d="M151.29,134.84L153.09,135.69L154.11,135.56L155.67,136.30L153.63,136.57L155.52,143.52L159.03,143.02L159.03,143.18L155.61,143.68L158.99,145.39L158.93,145.40"/><path d="M151.84,131.63L151.92,131.43L151.91,131.09L151.79,130.82L151.64,130.78L151.54,131.24L151.64,131.55L151.81,131.64L151.74,131.65"/><path d="M150.91,66.66L150.78,66.14L150.95,65.78L151.13,65.92L151.19,66.26L151.08,66.65L150.91,66.66"/><path d="M152.28,134.71L154.09,135.56"/><path d="M153.63,136.57L153.40,136.00L153.09,135.69"/><path d="M153.90,131.21L153.76,132.07L153.89,132.96L154.19,133.64L154.34,133.81L154.62,133.93"/><path d="M153.83,69.95L154.11,69.83L154.34,69.47L154.49,68.95L154.54,68.32L154.48,67.70L154.33,67.22L154.08,66.83L153.79,66.72L158.60,66.67L158.88,66.78L159.22,67.37L159.36,68.26L159.24,69.16L158.91,69.75L158.63,69.87L156.13,69.91"/><path d="M153.59,68.53L153.72,68.83L153.86,68.86L153.97,68.75L154.04,68.13L153.84,67.80L153.71,67.84L153.62,67.99L153.59,68.53"/><path d="M153.66,66.63L153.52,66.48L153.46,66.16L153.54,65.80L153.71,65.69L153.84,65.87L153.89,66.17L153.83,66.49L153.66,66.63"/><path d="M153.39,67.01L153.52,66.84L153.79,66.72"/><path d="M155.21,133.86L159.40,133.31L159.64,133.09L159.79,132.66L159.84,132.11L159.71,131.21L159.38,130.52L159.10,130.29L155.70,130.66"/><path d="M154.58,132.87L154.69,132.63L154.68,132.29L154.55,131.95L154.37,131.87L154.25,132.05L154.25,132.47L154.38,132.80L154.58,132.87L154.47,132.88"/><path d="M154.45,130.86L159.10,130.29"/><path d="M154.84,130.76L154.31,130.83"/><path d="M155.61,143.68L155.52,143.52"/><path d="M158.69,137.70L155.67,136.30"/><path d="M159.05,146.01L159.24,145.84L159.32,145.52L159.28,139.60L159.96,139.51L159.41,139.28L159.28,139.60"/><path d="M158.99,145.39L159.03,143.99L158.85,144.06L158.82,144.13L159.04,144.26"/><path d="M159.33,145.37L164.02,144.67"/><path d="M159.03,143.18L159.03,143.99"/><path d="M159.03,143.02L159.06,139.02"/><path d="M159.39,138.67L160.21,139.04"/><path d="M159.48,138.69L160.61,138.60L161.24,138.89L161.24,139.50"/><path d="M159.24,133.33L159.27,133.34"/><path d="M159.96,139.51L160.23,139.64"/><path d="M160.45,138.52L160.51,138.55"/><path d="M160.70,123.96L161.12,124.12L161.12,123.92"/><path d="M160.79,64.48L160.77,57.27L160.88,57.22L161.07,57.23L161.11,60.64L160.80,60.64L161.93,62.30"/><path d="M160.82,64.48L161.67,64.46L162.14,137.30L161.32,136.92"/><path d="M160.70,61.27L160.69,59.35"/><path d="M160.78,57.22L160.67,56.79"/><path d="M161.23,138.39L161.22,136.88"/><path d="M161.36,119.08L161.44,119.15L161.63,119.13L161.75,118.71L161.64,118.23L161.41,118.05L161.26,118.20L161.20,118.52L161.36,119.08"/><path d="M161.41,109.37L161.61,109.60L161.69,110.02L161.62,110.37L161.44,110.50L161.30,110.42L161.16,110.06L161.20,109.54L161.41,109.37L161.32,109.38"/><path d="M161.37,100.62L161.56,100.84L161.63,101.25L161.57,101.61L161.39,101.75L161.24,101.68L161.10,101.33L161.14,100.79L161.35,100.61L161.26,100.63"/><path d="M161.32,91.80L161.51,92.02L161.58,92.41L161.51,92.78L161.34,92.93L161.19,92.87L161.04,92.53L161.08,91.98L161.30,91.79L161.20,91.81"/><path d="M161.20,84.03L161.04,83.85L160.96,83.44L161.01,83.10L161.24,82.88L161.45,83.11L161.52,83.50L161.40,83.96L161.20,84.03"/><path d="M162.14,137.30L162.38,137.27L161.91,64.45L161.67,64.46"/><path d="M161.09,57.23L161.07,56.88L161.27,56.79L161.29,60.91L161.11,60.64"/><path d="M161.29,60.91L162.25,62.30"/><path d="M161.27,56.79L164.95,56.82L165.36,140.65"/><path d="M162.74,141.02L164.00,140.84"/><path d="M162.96,57.17L163.24,57.19L163.34,57.27L163.48,57.60L163.34,57.95L163.02,58.05"/><path d="M164.95,56.82L165.29,56.95L165.56,57.26L165.95,140.69"/><path d="M166.54,134.62L166.30,134.57L166.19,134.81L166.25,135.40L166.41,135.62L166.60,135.63L166.45,135.65"/><path d="M166.48,117.63L166.28,117.56L166.11,117.85L166.14,118.34L166.26,118.57L166.48,118.66L166.38,118.67"/><path d="M166.49,118.65L166.58,118.56"/><path d="M166.24,108.95L166.31,108.95L166.19,108.99L166.07,109.26L166.11,109.75L166.31,110.05L166.45,110.05L166.53,109.96"/><path d="M166.45,109.03L166.34,108.95"/><path d="M166.21,100.28L166.26,100.28L166.15,100.32L166.04,100.60L166.06,101.07L166.26,101.38L166.49,101.29"/><path d="M166.42,100.35L166.31,100.27"/><path d="M166.17,91.53L166.23,91.53L166.11,91.58L166.00,91.86L166.03,92.36L166.22,92.64L166.44,92.55"/><path d="M166.39,91.60L166.27,91.53"/><path d="M166.36,82.78L166.25,82.70L166.07,82.76L165.94,83.24L166.11,83.77L166.26,83.83L166.39,83.74"/><path d="M166.31,64.86L166.15,64.77L165.98,64.87L165.84,65.41L166.01,65.96L166.15,66.03L166.30,65.94"/><path d="M167.04,59.54L166.73,59.54L165.57,57.27"/><path d="M165.87,57.27L165.87,57.26"/><path d="M167.06,141.21L166.73,59.54"/><path d="M166.60,135.63L166.67,135.54"/></g><g style="stroke:#000000;stroke-width:0.247"><path d="M162.66,56.46L161.09,56.44L160.81,56.53L160.70,56.67L160.69,59.35L142.72,60.68L142.69,58.47L138.15,58.46L138.19,61.92L137.41,63.12L137.45,65.40L137.27,65.40L137.30,67.16L135.12,67.21L134.85,67.60L134.72,68.32L134.82,69.37L134.98,69.75L135.18,69.96L137.35,69.95L138.30,122.77L136.19,122.99L136.00,123.11L135.86,123.41L135.78,124.11L135.95,125.11L136.24,125.60L136.44,125.69L138.35,125.48L138.37,126.53L138.55,126.61L138.62,130.37L139.55,130.79L140.62,130.76L140.71,135.73L140.76,136.16L140.97,136.58L143.77,138.03L148.08,137.46L148.27,137.24L149.49,133.41L152.28,134.71L151.29,134.84L151.30,135.40L153.10,136.25L153.35,136.59L155.44,144.06L155.62,144.25L159.05,146.01L163.84,145.26L163.97,145.06L164.02,144.67L164.00,140.84L165.69,140.64L167.06,141.21L167.36,141.17L167.04,59.54L165.88,57.27L165.39,56.70L164.78,56.47L162.82,56.46"/><path d="M140.56,59.13L140.40,59.23L140.31,59.52L140.41,59.76L140.61,59.88"/><path d="M142.86,69.63L142.84,68.14L143.13,67.51L153.25,67.29L153.10,68.03L153.11,68.66L153.22,69.24L153.42,69.68L153.69,69.92L153.83,69.95L156.13,69.91L160.81,78.66L161.12,123.92L160.70,123.96L155.70,130.66L154.84,130.76L144.08,126.13L143.72,125.32L142.86,69.63"/><path d="M145.13,132.70L145.11,131.39L146.59,132.06L145.44,132.24L145.13,132.95L145.13,132.70"/><path d="M159.60,138.13L160.45,138.52L159.29,138.68L159.06,139.02L158.69,137.70L159.60,138.13"/><path d="M162.96,57.17L162.81,57.27L162.69,57.61L162.77,57.86L163.02,58.05"/><path d="M166.48,134.85L166.54,135.32L166.67,135.54L166.72,135.09L166.55,134.64L166.48,134.85"/><path d="M166.44,118.26L166.55,118.52L166.66,118.20L166.50,117.65L166.41,117.90L166.44,118.26"/><path d="M166.41,109.10L166.38,109.56L166.53,109.96L166.61,109.45L166.45,109.03L166.41,109.10"/><path d="M166.49,101.29L166.33,100.78L166.42,100.35L166.58,100.76L166.49,101.29"/><path d="M166.30,92.19L166.44,92.55L166.55,92.13L166.39,91.60L166.30,92.19"/><path d="M166.26,83.10L166.29,83.50L166.40,83.74L166.51,83.30L166.39,82.81L166.26,83.10"/><path d="M166.17,65.21L166.17,65.61L166.30,65.94L166.46,65.36L166.32,64.87L166.17,65.21"/></g></g><g id="Actor_.1"><g style="stroke:#000000;stroke-width:0.025"><path d="M203.85,122.93L212.63,125.36L212.46,124.60L212.48,123.68L212.75,122.91L212.97,122.64L213.53,122.39L215.50,122.15L215.80,122.18L216.06,122.28L216.51,122.66L216.91,123.31L217.24,123.40L217.20,123.32L216.91,123.31L216.98,123.13L216.79,122.74L216.45,122.44L216.46,122.36L216.19,122.29"/><path d="M232.11,126.31L203.91,119.05"/><path d="M204.46,119.05L204.46,119.12L203.95,118.99L204.84,54.78L205.37,54.72L204.46,119.05"/><path d="M204.46,119.12L204.96,119.25L205.89,54.70L206.42,54.64L205.47,119.38L205.87,119.48L206.83,54.62L206.95,54.59L205.99,119.51L206.51,119.64L207.49,54.57L208.03,54.51L207.02,119.78L207.55,119.91L208.57,54.48L209.11,54.42L208.07,120.05L207.55,119.91"/><path d="M204.34,119.09L205.24,54.73"/><path d="M203.91,118.98L203.95,118.99"/><path d="M205.87,119.48L205.99,119.51"/><path d="M204.96,119.25L205.47,119.38"/><path d="M205.36,119.35L206.29,54.65"/><path d="M204.85,119.22L205.77,54.71L205.37,54.72"/><path d="M214.63,53.95L215.12,54.06L215.43,53.98L215.74,53.79L216.26,53.12L216.55,52.20L216.57,51.20L216.47,50.74L216.09,49.99L215.82,49.75L215.52,49.62L215.20,49.59L214.88,49.68L214.57,49.88L214.08,50.53L213.78,51.46L213.76,52.45L213.86,52.91L214.24,53.65L214.60,53.94L204.80,54.75"/><path d="M204.84,54.76L204.80,54.77"/><path d="M205.77,54.69L205.89,54.68"/><path d="M234.29,47.59L204.86,50.61"/><path d="M207.90,54.52L206.91,119.75L206.51,119.64"/><path d="M206.91,119.75L207.02,119.78"/><path d="M206.39,119.61L207.36,54.58L207.49,54.55"/><path d="M206.95,54.59L207.36,54.56"/><path d="M206.83,54.60L206.42,54.64"/><path d="M208.07,120.05L208.60,120.18L209.66,54.39L214.67,53.97"/><path d="M207.95,120.01L208.98,54.43"/><path d="M207.43,119.88L208.44,54.49L208.57,54.46"/><path d="M208.03,54.51L208.44,54.47"/><path d="M210.21,54.33L209.13,120.32"/><path d="M225.71,53.07L224.03,124.14L208.60,120.18"/><path d="M210.08,54.34L209.00,120.28"/><path d="M208.48,120.15L209.53,54.40L209.66,54.37"/><path d="M209.11,54.42L209.53,54.38"/><path d="M211.32,54.24L210.20,120.59"/><path d="M210.77,54.28L209.66,120.45"/><path d="M211.19,54.25L210.07,120.56"/><path d="M210.63,54.29L209.54,120.42"/><path d="M212.45,54.15L211.28,120.87"/><path d="M211.88,54.19L210.74,120.73"/><path d="M212.31,54.16L211.15,120.84"/><path d="M211.75,54.20L210.61,120.70"/><path d="M214.41,126.42L214.81,126.05L215.09,125.30L215.13,124.86L215.02,123.95L214.66,123.14L214.41,122.83L214.13,122.61L213.54,122.46L213.26,122.53L212.79,122.97L212.62,123.31L212.48,124.14L212.59,125.04L212.74,125.46L213.19,126.15L213.75,126.50L214.06,126.54L214.41,126.42L213.76,126.51"/><path d="M213.58,54.06L212.38,121.15"/><path d="M213.01,54.10L211.83,121.01"/><path d="M213.45,54.07L212.25,121.12"/><path d="M212.88,54.11L211.70,120.98"/><path d="M212.66,125.37L212.88,125.83"/><path d="M214.73,54.00L213.48,121.44"/><path d="M214.16,54.01L212.93,121.29"/><path d="M213.53,122.39L214.14,122.55L214.69,123.09L214.90,123.48L215.15,124.40L215.15,125.22L215.02,125.74L214.63,126.36L214.36,126.54L214.07,126.61"/><path d="M214.60,53.97L213.35,121.40"/><path d="M214.02,54.02L212.80,121.26"/><path d="M215.11,125.08L214.96,124.98L214.68,125.16L214.99,125.69"/><path d="M215.07,125.38L214.72,125.16L215.06,124.99L215.08,124.89L214.93,124.26L214.90,123.61"/><path d="M214.81,123.43L214.78,124.21L214.96,124.98L215.01,124.84L214.89,124.19L214.89,123.60"/><path d="M213.84,122.41L215.80,122.18L216.44,122.43"/><path d="M215.89,54.07L214.60,121.72"/><path d="M215.31,54.06L214.04,121.58"/><path d="M215.75,54.07L214.47,121.69"/><path d="M215.17,54.06L213.91,121.54"/><path d="M214.70,53.90L215.12,53.98L215.72,53.72L215.99,53.44L216.34,52.79L216.26,52.05L216.42,50.78L216.06,50.05L215.51,49.69L215.20,49.67L214.89,49.75L214.59,49.94L214.11,50.59L213.83,51.47L213.78,51.95L213.90,52.87L214.27,53.59L214.70,53.90"/><path d="M231.99,130.74L216.13,126.34L215.17,126.47"/><path d="M217.07,54.08L215.73,122.01"/><path d="M216.48,54.08L215.17,121.87"/><path d="M215.80,122.18L215.50,122.15"/><path d="M216.93,54.08L215.60,121.98"/><path d="M216.34,54.07L215.03,121.83"/><path d="M215.12,54.06L217.13,54.09L217.41,54.03L217.92,53.68L218.32,53.09L218.67,52.99L218.48,53.00L218.32,53.09L218.39,53.13L218.37,53.30L218.11,53.64L219.14,53.56L219.48,53.48L219.75,53.29L219.99,52.99L220.30,52.20L220.34,51.66L220.21,50.91L220.04,50.57L219.58,50.20L219.26,50.15L218.45,50.23"/><path d="M215.20,49.59L217.20,49.65"/><path d="M216.44,126.22L216.89,125.72L217.23,125.59L216.89,125.72L216.96,125.82L216.87,125.94L216.37,126.27L216.44,126.22"/><path d="M216.25,126.31L216.37,126.27L216.13,126.34"/><path d="M216.90,125.92L217.26,125.71L217.23,125.59"/><path d="M216.83,122.78L217.20,122.91L216.88,122.82"/><path d="M217.63,125.67L217.69,125.78L217.98,125.84L218.24,125.75L218.64,125.28L218.81,124.52L218.68,123.68L218.51,123.30L218.04,122.76L217.76,122.64L217.59,122.87L216.69,122.63"/><path d="M216.79,122.74L216.91,122.86"/><path d="M216.47,122.31L217.76,122.64"/><path d="M217.01,122.89L217.00,122.88"/><path d="M218.26,53.68L216.88,122.31"/><path d="M217.66,53.95L216.30,122.16"/><path d="M218.12,53.69L216.74,122.27"/><path d="M217.52,54.00L216.17,122.12"/><path d="M216.42,50.78L216.14,50.72L216.39,50.83L216.18,51.62L216.15,52.04L216.28,52.93"/><path d="M216.34,52.79L216.55,51.70L216.43,50.78"/><path d="M216.36,52.74L216.28,51.87L216.48,51.01"/><path d="M216.28,50.39L216.10,50.69L216.35,50.57"/><path d="M217.70,125.82L217.29,125.71"/><path d="M217.26,125.71L217.78,125.65L218.20,125.41L218.46,124.85L218.50,124.50L218.39,123.77L218.05,123.17L217.59,122.87L217.20,122.91L217.27,123.11L217.20,123.32L217.41,123.47L217.61,123.83L217.73,124.56L217.65,125.06L217.52,125.34L217.30,125.57L217.48,124.76L217.48,124.30L217.42,123.84L217.24,123.40"/><path d="M217.24,125.63L217.51,125.52L217.74,125.30L217.93,124.87L217.96,124.56L217.79,123.77L217.55,123.46L217.25,123.32"/><path d="M219.47,53.58L218.04,122.60"/><path d="M218.86,53.63L217.46,122.46"/><path d="M219.32,53.59L217.90,122.57"/><path d="M217.32,122.42L218.72,53.64"/><path d="M217.14,54.09L217.68,53.95L218.19,53.66L234.16,52.37"/><path d="M218.08,53.67L218.11,53.64"/><path d="M218.19,53.56L218.32,53.43L218.62,53.33L219.11,53.36L219.19,53.56"/><path d="M233.03,52.48L231.03,125.94L231.70,126.11L233.72,52.44L218.05,53.69"/><path d="M217.74,49.74L217.51,49.66L218.16,49.95L218.45,50.27L218.49,50.46L218.39,50.47L218.03,49.93L217.74,49.74"/><path d="M217.51,49.66L217.23,49.64"/><path d="M220.69,53.48L219.21,122.91"/><path d="M220.08,53.53L218.62,122.75"/><path d="M220.54,53.49L219.06,122.87"/><path d="M219.93,53.54L218.48,122.72"/><path d="M218.68,52.97L218.88,52.52L218.98,51.55L218.81,50.63L218.42,50.52L218.76,50.63"/><path d="M218.68,53.05L219.00,52.90L219.22,52.65L219.42,52.15L219.47,51.82L219.46,51.49L219.31,50.99L219.08,50.71L218.84,50.58L219.38,50.67L218.77,50.57L219.13,51.07L219.23,51.82L219.13,52.38L218.98,52.71L218.68,53.05L218.70,53.21L218.62,53.33"/><path d="M219.38,50.67L219.76,50.74L219.91,51.03L220.02,51.76L219.88,52.52L219.72,52.84L219.27,53.26L218.40,53.38"/><path d="M218.45,53.36L218.48,53.34"/><path d="M218.77,50.57L218.77,50.38L218.55,50.31"/><path d="M219.26,50.15L219.08,50.37L219.33,50.39L219.15,50.38"/><path d="M218.37,50.17L218.57,50.33"/><path d="M218.31,50.11L218.33,50.13"/><path d="M218.75,50.36L219.33,50.39L219.76,50.74"/><path d="M219.08,50.37L218.82,50.36"/><path d="M221.92,53.38L220.39,123.21"/><path d="M221.30,53.43L219.80,123.06"/><path d="M221.77,53.39L220.25,123.17"/><path d="M221.15,53.44L219.65,123.02"/><path d="M223.17,53.28L221.59,123.52"/><path d="M222.54,53.33L220.99,123.36"/><path d="M223.02,53.29L221.44,123.48"/><path d="M222.39,53.34L220.84,123.33"/><path d="M223.80,53.23L222.19,123.67"/><path d="M224.28,53.19L222.65,123.79"/><path d="M223.65,53.24L222.05,123.63"/><path d="M225.07,53.13L223.41,123.99"/><path d="M224.43,53.18L222.80,123.83"/><path d="M224.91,53.14L223.26,123.95"/><path d="M226.35,53.02L224.64,124.30L224.03,124.14"/><path d="M224.64,124.30L225.27,124.46L227.00,52.97"/><path d="M224.50,124.27L226.20,53.03"/><path d="M223.88,124.11L225.55,53.09"/><path d="M228.31,52.86L226.52,124.78L225.89,124.62L227.66,52.92"/><path d="M225.27,124.46L225.89,124.62"/><path d="M225.75,124.59L227.50,52.93"/><path d="M225.12,124.43L226.85,52.98"/><path d="M228.97,52.81L227.15,124.95L227.79,125.11L229.64,52.76"/><path d="M226.52,124.78L227.15,124.95"/><path d="M227.01,124.91L228.81,52.82"/><path d="M226.38,124.75L228.15,52.88"/><path d="M230.15,52.71L228.29,125.24L227.79,125.11"/><path d="M228.29,125.24L228.43,125.28L230.31,52.70"/><path d="M227.65,125.07L229.48,52.77"/><path d="M230.98,52.65L229.08,125.44L228.43,125.28"/><path d="M229.08,125.44L229.73,125.61L231.66,52.59"/><path d="M228.93,125.40L230.82,52.66"/><path d="M229.73,125.61L230.38,125.78L232.34,52.54"/><path d="M230.38,125.78L231.03,125.94"/><path d="M230.23,125.74L232.18,52.55"/><path d="M229.58,125.57L231.50,52.60"/><path d="M231.70,126.11L232.11,126.22"/><path d="M231.54,126.07L233.55,52.44"/><path d="M230.88,125.91L232.86,52.49"/><path d="M233.72,52.43L234.15,52.39"/><path d="M234.14,131.76L234.17,131.78"/></g><g style="stroke:#000000;stroke-width:0.247"><path d="M203.85,123.30L212.88,125.83L213.17,126.20L213.76,126.58L214.07,126.61L215.17,126.47L231.98,131.17"/><path d="M234.30,47.01L204.86,50.12"/><path d="M240.42,130.87L240.23,130.95L234.35,131.80L234.11,131.76"/></g></g><g id="Actor_.2"><g style="stroke:#000000;stroke-width:0.025"><path d="M202.55,123.04L203.52,50.06"/><path d="M202.86,113.92L202.75,113.58L202.86,113.30L202.97,113.28L203.16,113.50L203.19,113.68L203.08,113.97L202.86,113.92"/><path d="M203.11,113.92L202.96,113.56L203.04,113.32"/><path d="M202.95,100.75L203.14,100.96L203.33,100.81L203.34,100.45L203.15,100.24L202.95,100.39L202.95,100.75"/><path d="M203.28,100.89L203.14,100.55L203.23,100.29"/><path d="M203.20,87.70L203.32,87.76L203.51,87.60L203.52,87.23L203.35,87.05L203.21,87.07L203.13,87.20L203.12,87.56L203.20,87.70"/><path d="M203.42,87.08L203.31,87.37L203.44,87.70"/><path d="M203.61,74.35L203.73,74.03L203.63,73.73L203.39,73.71L203.27,74.03L203.38,74.35L203.61,74.35L203.49,74.02L203.61,73.71"/><path d="M203.47,60.64L203.56,60.82L203.79,60.81L203.91,60.48L203.80,60.17L203.57,60.17L203.49,60.31L203.47,60.64"/><path d="M204.64,49.94L203.63,123.34"/><path d="M203.86,122.82L204.86,50.11"/><path d="M203.78,60.81L203.67,60.50L203.80,60.17"/><path d="M233.42,131.69L235.83,46.62"/><path d="M233.46,120.95L233.28,121.01L233.13,120.92L232.99,120.53L233.15,120.21L233.35,120.22"/><path d="M233.79,105.13L233.57,105.13L233.41,105.46L233.55,105.85L233.70,105.93L233.87,105.87"/><path d="M234.28,90.58L234.13,90.62L234.00,90.56L233.84,90.17L233.98,89.84L234.23,89.81"/><path d="M234.32,131.75L236.77,46.58"/><path d="M234.70,74.27L234.44,74.28L234.27,74.65L234.42,75.03L234.57,75.09L234.71,75.04"/><path d="M235.12,59.27L234.86,59.27L234.72,58.90L234.88,58.51L235.04,58.44L235.17,58.49"/><path d="M240.67,130.83L243.35,46.78"/></g><g style="stroke:#000000;stroke-width:0.247"><path d="M204.94,50.11L204.86,50.11L204.87,49.94L203.42,50.07L203.40,50.53L202.45,122.96L203.63,123.34L203.85,123.32L203.86,122.82"/><path d="M232.34,131.39L231.97,131.29L234.31,46.78L236.55,46.58L243.49,46.79L240.86,130.75L234.11,131.76L233.42,131.69L232.34,131.39"/><path d="M233.59,120.67L233.46,120.95L233.36,120.90L233.23,120.51L233.35,120.22L233.55,120.46L233.59,120.67"/><path d="M233.97,105.76L233.98,105.34L233.79,105.13L233.65,105.44L233.68,105.66L233.87,105.87L233.97,105.76"/><path d="M234.41,90.01L234.45,90.23L234.29,90.57L234.11,90.37L234.08,90.16L234.21,89.84L234.30,89.84L234.41,90.01"/><path d="M234.74,74.29L234.56,74.43L234.51,74.64L234.55,74.86L234.72,75.03L234.89,74.66L234.74,74.29"/><path d="M234.96,58.90L235.01,58.68L235.17,58.49L235.33,58.87L235.17,59.25L235.10,59.27L234.99,59.12L234.96,58.90"/></g></g><g id="Actor_.3"><g style="stroke:#000000;stroke-width:0.025"><path d="M158.28,168.80L158.26,166.42L158.04,166.22L157.93,166.01"/><path d="M158.26,166.42L158.65,166.67L158.67,169.06"/><path d="M158.65,166.67L158.99,166.85L159.42,167.00L159.94,167.12L160.52,167.19L161.12,167.22L161.73,167.21L162.31,167.15L162.85,167.05L163.31,166.91L163.68,166.74L163.93,166.55L164.07,166.34L164.08,166.13"/><path d="M160.54,169.59L161.14,169.62L161.51,169.61"/><path d="M161.48,164.97L161.49,166.10L161.40,166.17L161.24,166.22L161.03,166.24L160.81,166.23L160.63,166.18L160.53,166.11L160.52,166.04L160.51,164.95"/><path d="M160.50,163.50L160.51,163.58L160.61,163.64L160.79,163.69L161.01,163.70L161.22,163.68L161.24,166.22"/><path d="M161.27,171.13L161.26,169.62"/><path d="M161.22,163.68L161.39,163.63L161.47,163.56"/></g><g style="stroke:#000000;stroke-width:0.247"><path d="M160.51,164.95L160.29,164.96L159.72,165.01L159.19,165.11L158.74,165.24L158.37,165.41L158.10,165.59L157.96,165.80L157.93,166.01L157.95,168.38L158.06,168.59L158.28,168.80L158.67,169.06L159.01,169.24L159.44,169.40L159.96,169.52L160.54,169.59"/><path d="M160.54,169.59L160.55,170.93L160.56,171.02L160.67,171.09L160.84,171.14L161.06,171.15L161.27,171.13L161.44,171.08L161.52,171.00L161.51,169.61"/><path d="M161.48,164.97L161.47,163.56L161.46,163.49L161.36,163.42L161.18,163.38L160.96,163.36L160.75,163.38L160.58,163.43L160.50,163.50L160.51,164.95"/><path d="M161.48,164.97L162.04,165.04L162.55,165.15L162.99,165.30L163.33,165.47L163.73,165.72L163.96,165.92L164.08,166.13L164.09,168.51L164.08,168.72L163.95,168.93L163.69,169.13L163.32,169.30L162.86,169.45L162.33,169.55L161.75,169.61L161.51,169.61"/></g></g><g id="Actor_.4"><g style="stroke:#000000;stroke-width:0.025"><path d="M143.22,158.52L143.19,156.38L143.01,156.22L142.95,156.05"/><path d="M143.53,158.74L143.50,156.59L143.19,156.38"/><path d="M143.50,156.59L143.77,156.73L144.15,156.85L144.59,156.94L145.09,157.00L145.63,157.03L146.17,157.01L146.70,156.96L147.20,156.88L147.63,156.77L147.98,156.63L148.24,156.48L148.39,156.31L148.43,156.14"/><path d="M145.94,160.64L145.92,159.18"/><path d="M145.30,159.17L145.66,159.18L146.16,159.17"/><path d="M146.11,155.21L146.12,156.12L146.03,156.18L145.87,156.22L145.68,156.24L145.49,156.23L145.34,156.19L145.25,156.13L145.24,155.20"/><path d="M145.87,156.22L145.84,153.93L146.00,153.89L146.08,153.84L146.08,153.78"/><path d="M145.84,153.93L145.65,153.95L145.46,153.94L145.30,153.90L145.22,153.85"/></g><g style="stroke:#000000;stroke-width:0.247"><path d="M145.24,155.20L144.69,155.25L144.20,155.33L143.77,155.43L143.42,155.57L143.16,155.72L143.00,155.88L142.95,156.05L142.98,158.19L143.05,158.36L143.22,158.52L143.53,158.74L143.81,158.88L144.18,159.00L144.62,159.10L145.13,159.16L145.30,159.17"/><path d="M146.16,159.17L146.18,160.54L146.09,160.60L145.94,160.64L145.75,160.66L145.56,160.65L145.40,160.61L145.32,160.55L145.30,159.17"/><path d="M146.11,155.21L146.27,155.21L146.76,155.27L147.20,155.36L147.57,155.47L147.85,155.61L148.17,155.82L148.35,155.97L148.43,156.14L148.46,158.28L148.42,158.46L148.27,158.63L148.01,158.79L147.66,158.93L147.23,159.04L146.74,159.12L146.16,159.17"/><path d="M146.11,155.21L146.08,153.78L146.00,153.72L145.85,153.69L145.66,153.68L145.46,153.69L145.31,153.73L145.22,153.79L145.24,155.20"/></g></g><g id="Actor_.5"><g style="stroke:#000000;stroke-width:0.025"><path d="M139.61,56.62L139.62,56.61L139.72,56.60L139.88,56.59L140.10,56.59L140.33,56.58L140.56,56.59L140.71,56.59L140.83,56.59L140.92,56.60L140.96,56.61L140.92,56.53L140.90,56.53L140.83,56.59"/><path d="M140.90,56.53L140.56,56.59L140.20,56.52L139.88,56.59L139.56,56.54"/><path d="M139.56,56.20L139.88,56.13L140.20,56.18L140.20,56.52"/><path d="M140.20,56.18L140.56,56.12L140.90,56.18L140.92,56.19L140.92,56.53"/><path d="M140.90,56.18L140.82,56.13"/><path d="M140.92,56.19L140.96,56.15"/></g><g style="stroke:#000000;stroke-width:0.247"><path d="M140.72,56.64L140.85,56.63L140.95,56.62L140.96,56.61L141.00,56.56L141.00,56.23L140.96,56.15L140.92,56.14L140.82,56.13L140.71,56.13L140.56,56.12L140.33,56.12L140.09,56.12L139.88,56.13L139.71,56.14L139.62,56.15L139.60,56.16L139.56,56.20L139.56,56.54L139.61,56.62L139.65,56.63L139.74,56.64L139.85,56.64"/></g></g><g id="Actor_.6"><g style="stroke:#000000;stroke-width:0.025"><path d="M139.56,56.14L140.20,56.12L140.92,56.13L141.00,56.16"/><path d="M140.20,56.12L140.11,48.37"/><path d="M140.92,56.13L140.84,48.39"/></g><g style="stroke:#000000;stroke-width:0.247"><path d="M139.60,56.16L139.56,56.14L139.47,48.41L140.11,48.37L140.84,48.39L140.92,48.45L141.00,56.16L140.97,56.17"/></g></g><g id="Actor_.7"><g style="stroke:#000000;stroke-width:0.025"><path d="M140.79,60.30L140.53,60.30L140.29,60.20L140.10,60.02L139.97,59.78L139.93,59.52L139.92,59.50L139.96,59.22L140.09,58.98L140.28,58.80L140.52,58.71"/><path d="M140.58,59.76L140.46,59.66L140.42,59.55L140.41,59.50L140.45,59.35L140.57,59.25L140.72,59.25L140.85,59.35L140.89,59.51L140.85,59.67L140.73,59.76L140.58,59.76"/></g><g style="stroke:#000000;stroke-width:0.247"><path d="M141.31,59.19L141.33,59.24L141.38,59.51L141.34,59.79L141.21,60.03L141.02,60.21L140.79,60.30"/></g></g><g id="Actor_.8"><g style="stroke:#000000;stroke-width:0.025"><path d="M139.89,56.61L139.91,58.44"/></g><g style="stroke:#000000;stroke-width:0.247"><path d="M139.85,56.62L139.87,58.44"/><path d="M140.74,58.44L140.72,56.61"/></g></g><g id="Actor_.9"><g style="stroke:#000000;stroke-width:0.025"><path d="M140.73,59.76L140.58,59.76L140.46,59.66L140.41,59.52L140.41,59.50L140.45,59.35L140.57,59.25"/><path d="M140.47,59.54L140.84,59.51L140.80,59.39L140.71,59.31L140.59,59.31L140.50,59.38L140.46,59.50L140.50,59.63L140.60,59.70L140.71,59.70L140.80,59.63L140.84,59.51"/></g><g style="stroke:#000000;stroke-width:0.247"><path d="M140.57,59.25L140.72,59.25L140.85,59.35L140.89,59.51L140.85,59.67L140.73,59.76"/></g></g><g id="Actor_.10"><g style="stroke:#000000;stroke-width:0.025"><path d="M139.15,45.35L139.24,45.34L139.41,45.29L139.63,45.21L139.81,45.46L140.04,45.64L140.30,45.74L140.58,45.74L140.84,45.64L140.78,45.79"/><path d="M140.60,45.89L140.52,45.87L140.35,45.86L140.12,45.85L139.91,45.86L139.77,45.88L139.79,47.92"/><path d="M139.73,45.90L139.77,45.88"/><path d="M139.63,45.21L139.54,44.91L139.52,44.60L139.60,44.31L139.75,44.06L139.97,43.88L140.23,43.78L140.51,43.79L140.77,43.88L141.00,44.07L141.18,44.32"/><path d="M140.47,45.57L140.40,45.58L140.34,45.57"/><path d="M139.97,43.88L139.79,43.78L139.64,43.77"/><path d="M140.22,43.97L140.16,43.98L140.10,44.01"/><path d="M141.28,44.92L141.21,45.21L141.06,45.46L140.84,45.64"/></g><g style="stroke:#000000;stroke-width:0.247"><path d="M139.75,47.92L139.73,45.90L139.61,45.84L139.35,45.63L139.15,45.35L139.04,45.02L139.03,44.66L139.11,44.33L139.29,44.04L139.53,43.84L139.64,43.77L139.95,43.66L140.28,43.66L140.40,43.68L140.70,43.79L140.97,44.00L141.16,44.28L141.18,44.32L141.27,44.61L141.28,44.92L141.28,44.96L141.20,45.30L141.02,45.58L140.78,45.79L140.67,45.85L140.60,45.89L140.63,47.92"/><path d="M140.22,45.53L140.15,45.52L140.10,45.48"/><path d="M139.89,45.31L139.93,45.36L139.99,45.40"/><path d="M139.81,45.20L139.77,45.13L139.75,45.07"/><path d="M139.68,44.80L139.68,44.86L139.71,44.94"/><path d="M139.99,44.08L139.94,44.11L139.89,44.17"/><path d="M139.81,44.27L139.77,44.31L139.75,44.39"/><path d="M139.68,44.66L139.68,44.58L139.70,44.52"/></g></g><g id="Actor_.11"><g style="stroke:#000000;stroke-width:0.025"><path d="M139.47,48.34L139.79,48.39L139.78,48.39"/><path d="M139.47,48.00L139.79,47.92L140.11,47.96L140.11,48.31L139.79,48.39L139.80,48.39"/><path d="M140.49,48.38L140.46,48.38"/><path d="M140.75,48.39L140.82,48.33L140.48,48.38L140.11,48.31"/><path d="M140.74,47.93L140.81,47.98L140.47,47.91L140.11,47.96"/><path d="M140.82,48.33L140.84,48.33L140.88,48.42L140.92,48.39"/><path d="M140.84,48.33L140.83,47.99L140.87,47.95"/><path d="M140.83,47.99L140.81,47.98"/></g><g style="stroke:#000000;stroke-width:0.247"><path d="M140.88,48.42L140.92,48.39L140.91,48.05L140.87,47.95L140.83,47.94L140.74,47.93L140.62,47.92L140.47,47.91L140.24,47.91L140.00,47.91L139.79,47.92L139.62,47.94L139.52,47.95L139.47,48.00L139.47,48.34L139.50,48.41"/></g></g><g id="Actor_.12"><g style="stroke:#000000;stroke-width:0.025"><path d="M140.63,45.56L140.37,45.55L140.13,45.44L139.94,45.25L139.81,45.00L139.76,44.72L139.80,44.44L139.92,44.20L140.12,44.02L140.36,43.93"/><path d="M140.62,44.97L140.69,44.91L140.74,44.75L140.69,44.59L140.56,44.49L140.41,44.48L140.29,44.58L140.25,44.74L140.30,44.90L140.42,45.00L140.57,45.01L140.62,44.97"/><path d="M139.76,44.72L139.67,44.74"/></g><g style="stroke:#000000;stroke-width:0.247"><path d="M140.27,43.95L140.36,43.93L140.61,43.94L140.85,44.05L141.05,44.24L141.18,44.49L141.22,44.77L141.20,44.92L141.18,45.05L141.06,45.29L140.87,45.47L140.63,45.56L140.54,45.57"/></g></g><g id="Actor_.13"><g style="stroke:#000000;stroke-width:0.025"><path d="M140.57,45.01L140.42,45.00L140.34,44.94L140.30,44.90L140.25,44.74L140.29,44.58L140.41,44.48"/><path d="M140.68,44.75L140.65,44.87L140.55,44.95L140.44,44.94L140.34,44.86L140.30,44.74L140.34,44.62L140.43,44.54L140.55,44.55L140.64,44.63L140.68,44.75L140.33,44.82"/></g><g style="stroke:#000000;stroke-width:0.247"><path d="M140.41,44.48L140.56,44.49L140.69,44.59L140.74,44.75L140.69,44.91L140.57,45.01"/></g></g><g id="Actor_.14"><g style="stroke:#000000;stroke-width:0.025"><path d="M163.13,57.47L163.01,57.41L162.88,57.45L162.80,57.57L162.79,57.72L162.86,57.85L162.98,57.90L163.11,57.86L163.19,57.75L163.20,57.60L163.13,57.47L163.13,57.47"/><path d="M163.20,57.60L162.79,57.63"/><path d="M163.01,57.34L162.84,57.39L162.74,57.54L162.73,57.74L162.82,57.90L162.98,57.97"/></g><g style="stroke:#000000;stroke-width:0.247"><path d="M162.98,57.97L163.15,57.92L163.25,57.77L163.26,57.58L163.17,57.41L163.01,57.34"/></g></g><g id="Actor_.15"><g style="stroke:#000000;stroke-width:0.025"><path d="M163.24,56.57L163.06,56.50L162.75,56.50L162.57,56.56"/><path d="M162.01,56.43L162.08,56.42L162.25,56.41L162.50,56.40L162.76,56.39L162.95,56.39L163.04,56.39"/><path d="M162.08,56.42L162.00,54.24"/></g><g style="stroke:#000000;stroke-width:0.247"><path d="M161.94,54.25L162.01,56.43L161.99,56.45"/><path d="M163.19,56.46L163.04,56.39L162.97,54.20"/></g></g><g id="Actor_.16"><g style="stroke:#000000;stroke-width:0.025"><path d="M162.92,56.71L162.64,56.79L162.41,56.98L162.25,57.25L162.17,57.56L162.20,57.89L162.32,58.20L162.52,58.43L162.78,58.57L163.07,58.61"/><path d="M162.98,57.97L163.15,57.92L163.25,57.77L163.26,57.58L163.17,57.41L163.01,57.34L162.84,57.39L162.74,57.54L162.73,57.74L162.82,57.90L162.98,57.97"/></g><g style="stroke:#000000;stroke-width:0.247"><path d="M162.88,56.71L162.92,56.71L163.21,56.74L163.47,56.88L163.67,57.12L163.79,57.42L163.81,57.75L163.74,58.07L163.58,58.34L163.34,58.52L163.07,58.61"/></g></g><g id="Actor_.17"><g style="stroke:#000000;stroke-width:0.025"><path d="M162.93,44.49L163.23,53.63L162.42,53.65L161.62,53.70"/><path d="M162.42,53.65L162.11,44.50"/><path d="M163.23,53.63L163.25,53.66"/></g><g style="stroke:#000000;stroke-width:0.247"><path d="M163.24,53.66L163.25,53.66L162.95,44.56L162.93,44.49L162.11,44.50L161.31,44.57L161.62,53.70L161.63,53.72"/></g></g><g id="Actor_.18"><g style="stroke:#000000;stroke-width:0.025"><path d="M161.65,54.26L161.69,54.25L161.80,54.24L162.04,54.22L162.43,54.12L162.84,54.18L162.58,54.19L162.30,54.21L162.04,54.22L161.64,54.17"/><path d="M162.43,54.12L162.42,53.72L162.02,53.67L161.62,53.77"/><path d="M162.84,54.18L163.23,54.11L163.25,54.10L163.26,54.19L163.22,54.18L163.13,54.18L163.00,54.18L162.84,54.18"/><path d="M162.42,53.72L162.82,53.64L163.21,53.70L163.23,53.70L163.25,54.10"/><path d="M163.11,53.64L163.21,53.70"/><path d="M163.13,54.18L163.23,54.11"/><path d="M163.23,53.70L163.24,53.65"/></g><g style="stroke:#000000;stroke-width:0.247"><path d="M161.94,54.27L161.78,54.27L161.69,54.27L161.65,54.26L161.64,54.17L161.63,53.90L161.62,53.77L161.63,53.72L161.67,53.71L161.81,53.69L162.02,53.67L162.28,53.66L162.56,53.65L162.82,53.64L162.99,53.64L163.11,53.64L163.21,53.64L163.24,53.65L163.25,53.74L163.26,54.13L163.26,54.19L163.22,54.20L163.08,54.22L162.97,54.23"/></g></g><g id="Actor_.19"><g style="stroke:#000000;stroke-width:0.025"><path d="M160.79,39.69L160.93,39.63L161.15,39.62L161.43,39.66L161.62,39.37L161.74,39.27L161.87,39.16L162.17,39.06L162.48,39.07L162.78,39.20L162.68,39.09"/><path d="M161.66,43.99L161.58,41.57L161.79,41.54L162.05,41.52L162.30,41.52L162.48,41.52L162.55,41.54"/><path d="M161.58,41.57L161.51,41.59"/><path d="M163.23,40.78L163.05,41.07L162.80,41.28L162.50,41.38L162.19,41.37L161.89,41.25L161.66,41.42L161.46,41.50L161.30,41.49"/><path d="M161.89,41.25L161.63,41.03L161.44,40.72L161.36,40.43L161.34,40.37L161.34,40.01L161.43,39.66"/><path d="M161.95,39.36L162.00,39.32L162.08,39.30"/><path d="M162.45,41.18L162.39,41.19L162.30,41.18"/><path d="M162.13,41.15L162.16,41.15"/><path d="M162.78,39.20L163.04,39.42"/></g><g style="stroke:#000000;stroke-width:0.247"><path d="M161.60,44.00L161.51,41.59L161.30,41.49L161.01,41.24L160.94,41.16L160.76,40.86L160.66,40.51L160.65,40.15L160.75,39.80L160.79,39.69L161.00,39.36L161.28,39.13L161.44,39.04L161.79,38.92L162.16,38.94L162.34,38.95L162.68,39.09L162.97,39.35L163.04,39.42L163.23,39.72L163.32,40.07L163.33,40.44L163.23,40.78L163.19,40.89L162.98,41.22L162.70,41.45L162.55,41.54L162.63,43.95"/><path d="M161.55,40.48L161.53,40.41L161.52,40.32"/><path d="M161.69,40.78L161.64,40.73L161.61,40.64"/><path d="M161.90,41.01L161.84,40.98L161.78,40.91"/><path d="M161.72,39.55L161.76,39.49L161.83,39.44"/><path d="M161.64,39.68L161.59,39.76L161.57,39.83"/><path d="M161.51,40.15L161.51,40.08L161.53,39.98"/><path d="M162.13,41.15L162.10,41.14L162.03,41.09"/></g></g><g id="Actor_.20"><g style="stroke:#000000;stroke-width:0.025"><path d="M161.31,44.50L161.71,44.54L162.11,44.43L162.52,44.50"/><path d="M161.30,44.09L161.69,43.99L162.09,44.02L162.11,44.43"/><path d="M162.94,44.53L162.93,44.42L162.91,44.43L162.52,44.50"/><path d="M162.93,44.42L162.92,44.02L162.92,43.98"/><path d="M162.91,44.43L162.82,44.50"/><path d="M162.92,44.02L162.89,44.01L162.50,43.95L162.09,44.02"/><path d="M162.89,44.01L162.80,43.95"/></g><g style="stroke:#000000;stroke-width:0.247"><path d="M162.94,44.53L162.95,44.49L162.93,44.08L162.92,43.98L162.89,43.96L162.80,43.95L162.67,43.95L162.50,43.95L162.24,43.95L161.95,43.97L161.69,43.99L161.48,44.01L161.35,44.03L161.31,44.05L161.30,44.09L161.31,44.50L161.32,44.57"/></g></g><g id="Actor_.21"><g style="stroke:#000000;stroke-width:0.025"><path d="M162.63,41.15L162.34,41.15L162.07,41.04L161.84,40.82L161.80,40.76L161.68,40.53L161.62,40.20L161.50,40.22"/><path d="M161.62,40.20L161.66,39.87L161.80,39.57L162.01,39.36L162.28,39.24"/><path d="M162.60,40.46L162.55,40.51L162.38,40.51L162.24,40.39L162.18,40.20L162.22,40.01L162.36,39.89L162.53,39.89L162.67,40.01L162.73,40.20L162.69,40.39L162.60,40.46"/></g><g style="stroke:#000000;stroke-width:0.247"><path d="M162.51,41.18L162.63,41.15L162.90,41.04L163.11,40.82L163.25,40.53L163.29,40.20L163.22,39.87L163.07,39.58L162.84,39.36L162.57,39.24L162.28,39.24L162.16,39.27"/></g></g><g id="Actor_.22"><g style="stroke:#000000;stroke-width:0.025"><path d="M162.36,39.89L162.22,40.01L162.18,40.20L162.24,40.39L162.38,40.51L162.55,40.51"/><path d="M162.67,40.20L162.63,40.34L162.53,40.44L162.40,40.44L162.29,40.34L162.24,40.20L162.28,40.05L162.38,39.96L162.51,39.96L162.62,40.05L162.67,40.20L162.27,40.28"/></g><g style="stroke:#000000;stroke-width:0.247"><path d="M162.36,39.89L162.53,39.89L162.67,40.01L162.73,40.20L162.69,40.39L162.55,40.51"/></g></g><g id="Actor_.23"><g style="stroke:#000000;stroke-width:0.025"><path d="M135.41,167.57L135.55,167.68L135.62,171.14L137.19,172.45L139.12,172.68L139.12,173.03"/><path d="M135.62,171.14L138.90,170.52L141.11,172.30L139.12,172.68"/><path d="M135.55,167.68L147.23,165.56"/><path d="M137.19,172.45L137.20,172.80"/><path d="M137.60,168.41L137.75,168.53L137.71,168.75L137.60,168.95L137.43,169.10L137.25,169.17L137.03,169.17L136.86,169.08L136.81,169.01"/><path d="M138.19,171.93L138.19,171.58L138.00,171.63L137.88,171.71L137.84,171.79L137.88,171.86L138.10,171.95"/><path d="M138.19,171.58L138.63,171.57L138.95,171.67L139.00,171.75L138.95,171.84L138.75,171.94"/><path d="M137.75,168.53L137.70,168.32L137.59,168.17L137.49,168.12"/><path d="M138.90,170.52L138.87,168.46L159.43,184.65L157.25,185.13L157.37,185.22L157.40,188.43"/><path d="M138.87,168.46L138.91,168.19L139.05,167.94L139.26,167.75L139.50,167.66L160.96,184.32L159.43,184.65"/><path d="M139.51,167.65L143.40,166.94L165.34,183.36L165.62,183.36L165.86,183.48"/><path d="M141.11,172.30L141.46,172.58"/><path d="M141.16,168.45L141.15,168.51L141.22,168.64L141.41,168.80L141.68,168.92L142.02,169.01L142.42,169.07L142.85,169.08L143.29,169.07L143.76,169.00L143.74,168.18L144.30,168.33L144.65,168.60L144.71,168.52L144.74,168.37L144.66,168.20L144.48,168.06L144.21,167.95L143.47,167.81L143.04,167.79L142.61,167.81L141.83,167.95L141.53,168.07L141.30,168.20L141.18,168.35L141.16,168.45"/><path d="M142.20,167.86L142.21,168.21L141.57,168.39L141.35,168.52L141.22,168.64"/><path d="M142.21,168.21L142.99,168.13L143.74,168.18"/><path d="M143.76,169.00L144.08,168.92L144.38,168.80L144.65,168.60"/><path d="M143.40,166.94L143.65,166.95L143.86,167.06L148.61,170.60L148.98,170.21"/><path d="M145.08,170.96L145.00,171.10L145.02,171.24L145.09,171.32L145.27,171.18L145.53,171.07L146.22,170.94L146.60,170.93L147.32,171.01L147.61,171.10L147.82,171.22L147.81,170.87L147.60,170.75L147.38,170.68L146.97,170.60L146.59,170.58L145.84,170.64L145.52,170.72L145.26,170.83L145.08,170.96"/><path d="M145.09,171.32L145.65,171.77"/><path d="M144.11,170.12L144.01,170.19L144.01,170.27L144.10,170.34L144.28,170.39L144.27,170.07L144.11,170.12"/><path d="M144.27,170.07L145.81,169.80L146.18,169.86L146.25,169.92L146.27,170.01L146.17,170.08L146.01,170.13L144.75,170.37L144.72,170.34L144.42,170.40L144.28,170.39"/><path d="M144.75,170.37L144.42,170.40"/><path d="M144.72,170.34L145.60,170.17L145.60,169.82"/><path d="M144.30,168.33L144.59,168.48L144.68,168.57"/><path d="M145.29,171.50L146.04,171.35L145.64,171.05"/><path d="M146.04,171.35L146.40,171.63"/><path d="M145.86,170.16L145.60,170.17"/><path d="M146.02,166.87L146.17,166.98L146.13,167.20L146.02,167.40L145.86,167.54L145.66,167.62L145.47,167.62L145.30,167.53L145.26,167.47"/><path d="M146.17,166.98L146.13,166.78L146.01,166.63L145.90,166.57"/><path d="M147.28,168.95L146.57,169.09"/><path d="M147.82,171.22L150.43,173.19L150.42,172.83L147.81,170.87"/><path d="M153.73,177.25L154.42,177.18L154.77,177.09L155.03,176.97L155.21,176.82L155.28,176.67L155.25,176.52L155.11,176.36L152.32,174.26L152.09,174.13L151.79,174.03L151.43,173.97L151.04,173.95L150.27,174.01L149.94,174.10L149.68,174.22L149.50,174.35L149.42,174.50L149.44,174.66L149.50,174.72"/><path d="M149.06,173.67L149.73,173.60L150.06,173.52L150.33,173.40L150.50,173.27L150.58,173.12L150.55,172.97L150.42,172.83"/><path d="M148.80,170.75L148.61,170.60"/><path d="M152.32,174.26L152.32,174.62L152.10,174.50L151.88,174.43L151.44,174.34L150.65,174.32L150.06,174.43"/><path d="M150.43,173.19L150.50,173.27"/><path d="M152.32,174.62L155.11,176.73L155.11,176.36"/><path d="M158.74,181.09L159.46,181.02L159.81,180.92L160.08,180.79L160.26,180.61L160.32,180.46L160.28,180.30L160.13,180.14L157.13,177.88L156.90,177.75L156.58,177.65L156.21,177.58L155.80,177.55L155.39,177.56L155.01,177.62L154.67,177.71L154.40,177.84L154.22,177.99L154.15,178.15L154.18,178.31L154.23,178.36"/><path d="M157.13,177.88L157.14,178.26L156.90,178.13L156.58,178.02L156.21,177.95L155.40,177.94L154.79,178.06"/><path d="M155.11,176.73L155.20,176.83"/><path d="M157.37,185.22L165.47,183.45L165.34,183.36"/><path d="M157.25,185.13L157.25,185.26"/><path d="M157.14,178.26L160.13,180.52L160.13,180.14"/><path d="M158.95,186.63L158.99,186.57L159.04,186.34L159.16,186.43L159.11,186.67L158.96,186.86L158.75,186.97L158.55,186.95L158.44,186.86"/><path d="M159.16,186.43L159.10,186.23L158.95,186.10L158.75,186.09L158.54,186.19L158.49,186.26"/><path d="M159.04,186.34L158.98,186.13L158.94,186.10"/><path d="M159.40,181.93L159.40,182.05L159.25,182.01L159.14,181.93L159.13,181.82L159.22,181.73L159.40,181.67L159.40,181.93"/><path d="M159.42,182.06L159.40,182.05"/><path d="M159.40,181.67L160.84,181.36L160.84,181.75L159.88,181.96"/><path d="M160.84,181.36L161.30,181.36L161.49,181.42L161.60,181.50L161.61,181.60L161.52,181.68L161.35,181.75L159.98,182.04"/><path d="M160.84,181.75L161.07,181.73L161.32,181.75"/><path d="M160.13,180.52L160.24,180.64"/><path d="M163.71,185.69L163.82,185.78L164.02,185.79L164.22,185.69L164.37,185.50L164.42,185.27L164.36,185.06L164.22,184.93L164.02,184.92L163.85,185.00"/><path d="M164.20,184.93L164.24,184.97L164.30,185.17L164.42,185.27"/><path d="M164.26,185.32L164.30,185.17"/><path d="M165.47,183.45L165.75,183.45L165.98,183.57"/></g><g style="stroke:#000000;stroke-width:0.247"><path d="M136.03,171.82L135.62,171.48L135.50,171.21L135.41,167.57L147.08,165.45L147.23,165.56L147.28,168.95L148.98,170.21L148.98,170.55L148.80,170.75L165.98,183.57L166.14,183.79L166.20,184.08L166.21,186.45L157.40,188.43L157.28,188.34L157.25,185.26L141.46,172.58L139.12,173.03L137.20,172.80L136.03,171.82"/><path d="M136.69,168.72L136.73,168.50L136.84,168.30L137.01,168.15L137.21,168.07L137.41,168.08L137.49,168.12L137.56,168.21L137.60,168.41L137.57,168.63L137.46,168.83L137.29,168.98L137.09,169.06L136.89,169.06L136.81,169.01L136.74,168.92L136.69,168.72"/><path d="M138.38,171.91L138.10,171.95L138.43,171.99L138.75,171.94L138.38,171.91"/><path d="M145.71,171.82L145.65,171.77L146.40,171.63L149.06,173.67L148.58,173.64L148.22,173.58L147.93,173.48L147.71,173.36L145.71,171.82"/><path d="M145.71,167.43L145.51,167.51L145.32,167.50L145.19,167.37L145.14,167.17L145.18,166.96L145.29,166.76L145.45,166.61L145.65,166.53L145.84,166.54L145.97,166.67L146.02,166.87L145.98,167.09L145.87,167.28L145.71,167.43"/><path d="M149.57,174.80L152.32,176.92L152.55,177.05L152.86,177.16L153.23,177.22L153.73,177.25L150.06,174.43L149.68,174.58L149.50,174.72L149.57,174.80"/><path d="M154.44,178.56L154.23,178.36L154.40,178.22L154.79,178.06L158.74,181.09L158.22,181.06L157.84,180.99L157.51,180.88L157.27,180.74L154.44,178.56"/><path d="M158.63,186.87L158.44,186.86L158.40,186.82L158.34,186.62L158.39,186.38L158.49,186.26L158.95,186.63L158.84,186.77L158.63,186.87"/><path d="M159.67,182.08L159.98,182.04L159.88,181.96L159.42,182.06L159.67,182.08"/><path d="M164.25,185.40L164.10,185.60L163.90,185.70L163.71,185.69L163.67,185.65L163.62,185.44L163.67,185.21L163.85,185.00L164.25,185.31L164.25,185.40"/></g></g><g><g><path style="stroke:#000000;stroke-width:0.350;stroke-dasharray:2.1 2.1" d="M145.70,157.17L144.05,137.94"/></g></g><g><g><path style="stroke:#000000;stroke-width:0.350;stroke-dasharray:2.1 2.1" d="M221.15,88.30L158.22,97.71"/></g></g><g><g><path style="stroke:#000000;stroke-width:0.350;stroke-dasharray:2.1 2.1" d="M151.44,176.18L151.05,143.56"/></g></g><g><g><path style="stroke:#000000;stroke-width:0.350;stroke-dasharray:2.1 2.1" d="M161.01,167.26L159.37,145.90"/></g></g><g id="PMI3.0"><g><path style="stroke:#000000;stroke-width:0.280" d="M126.94,95.93L134.99,95.90"/></g><g><path style="fill:#000000" d="M135.00,96.91L134.99,94.91L136.99,95.90z"/></g><g><path style="fill:#ffffff" d="M97.63,98.24L126.96,98.24L126.96,93.73L97.63,93.73z"/><path style="stroke:#00ff00;stroke-width:0.350;stroke-opacity:0.98" d="M97.63,98.24L126.96,98.24L126.96,93.73L97.63,93.73z"/><text xml:space="preserve" fill="#000000" stroke-width="0" x="98.20" y="96.97" font-size="2.76" opacity="1.00" font-family="MS Shell Dlg">CNA6129P-1302010-B</text></g></g><g id="PMI4.0"><g><path style="stroke:#000000;stroke-width:0.280" d="M148.39,189.81L148.26,180.33"/></g><g><path style="fill:#000000" d="M149.26,180.30L147.26,180.33L148.23,178.31z"/></g><g><path style="fill:#ffffff" d="M133.75,194.30L163.08,194.30L163.08,189.78L133.75,189.78z"/><path style="stroke:#00ff00;stroke-width:0.350;stroke-opacity:0.98" d="M133.75,194.30L163.08,194.30L163.08,189.78L133.75,189.78z"/><text xml:space="preserve" fill="#000000" stroke-width="0" x="134.32" y="193.03" font-size="2.76" opacity="1.00" font-family="MS Shell Dlg">CNA6129P-1302032-B</text></g></g><g id="PMI5.0"><g><path style="stroke:#000000;stroke-width:0.280" d="M252.57,82.02L244.70,81.99"/></g><g><path style="fill:#000000" d="M244.69,81.00L244.68,83.00L242.68,81.99z"/></g><g><path style="fill:#ffffff" d="M252.55,84.33L279.11,84.33L279.11,79.81L252.55,79.81z"/><path style="stroke:#00ff00;stroke-width:0.350;stroke-opacity:0.98" d="M252.55,84.33L279.11,84.33L279.11,79.81L252.55,79.81z"/><text xml:space="preserve" fill="#000000" stroke-width="0" x="253.12" y="83.06" font-size="2.76" opacity="1.00" font-family="MS Shell Dlg">CNA6129P-1301010</text></g></g><g id="PMI1.0"><g><path style="stroke:#000000;stroke-width:0.280" d="M20.55,133.45L13.22,133.59"/></g><g><path style="fill:#000000" d="M13.22,132.59L13.26,134.59L11.24,133.63z"/></g><g><path style="fill:#ffffff" d="M20.57,135.43L47.13,135.43L47.13,130.92L20.57,130.92z"/><path style="stroke:#00ff00;stroke-width:0.350;stroke-opacity:0.98" d="M20.57,135.43L47.13,135.43L47.13,130.92L20.57,130.92z"/><text xml:space="preserve" fill="#000000" stroke-width="0" x="21.14" y="134.16" font-size="2.76" opacity="1.00" font-family="MS Shell Dlg">CNA6129P-1302030</text></g></g><g id="PMI2.0"><g><path style="stroke:#000000;stroke-width:0.280" d="M21.09,153.37L14.29,153.42"/></g><g><path style="fill:#000000" d="M14.30,152.41L14.32,154.41L12.31,153.43z"/></g><g><path style="fill:#ffffff" d="M21.11,155.50L49.20,155.50L49.20,150.99L21.11,150.99z"/><path style="stroke:#00ff00;stroke-width:0.350;stroke-opacity:0.98" d="M21.11,155.50L49.20,155.50L49.20,150.99L21.11,150.99z"/><text xml:space="preserve" fill="#000000" stroke-width="0" x="21.67" y="154.23" font-size="2.76" opacity="1.00" font-family="MS Shell Dlg">CNA6129P5-1302050</text></g></g><g/><g><g/><g><path style="stroke:#000000;stroke-width:0.175;fill:#ff0000" d="M8.67,127.79L11.49,127.79L11.49,139.08L8.67,139.08z"/><text xml:space="preserve" fill="#000000" stroke-width="0" x="10.08" y="135.55" font-size="-1.#J" opacity="1.00" font-family="MS Shell Dlg"></text></g></g><g><g/><g><path style="stroke:#000000;stroke-width:0.175;fill:#00ffff" d="M8.67,147.99L11.49,147.99L11.49,159.28L8.67,159.28z"/><text xml:space="preserve" fill="#000000" stroke-width="0" x="10.08" y="155.75" font-size="-1.#J" opacity="1.00" font-family="MS Shell Dlg"></text></g></g><g id="paperID" visibility="hidden" opacity="0.00" transform="scale(0.000100)"><path style="stroke:#000000;stroke-width:0.500;fill:#e6e6e6;fill-rule:evenodd" d="M-2000.00,-2000.00L2297.00,-2000.00L2297.00,2210.00L-2000.00,2210.00zM0.00,0.00L297.00,0.00L297.00,210.00L0.00,210.00z"/><path style="fill:#000000;fill-opacity:0.118" d="M3.00,210.00L297.00,210.00L297.00,3.00L300.00,3.00L300.00,213.00L3.00,213.00z"/></g><g id="hotspot.0" onmouseover="ShowHotSpot(evt,'0')" onmouseout="HideHotSpot(evt,'0')" onmousemove="ShowToolTip(evt,'0',&quot;3dp338296 (I_ISO 8675 NUT M12x1.25 STEEL GRADE C HEX THIN METIC FINE_NONPREFERRED.20)&quot;)" opacity="0"><path style="fill:#00ff00;fill-rule:evenodd" d="M163.14,39.67L163.14,41.13L162.76,41.55L163.12,48.79L163.14,56.56L161.95,56.64L161.52,49.59L161.54,41.81L160.68,40.77L160.68,40.04L161.41,39.14L162.61,39.14zM141.21,44.50L141.21,45.41L140.64,45.95L140.92,48.25L140.92,56.63L140.64,58.54L140.04,58.54L139.58,54.41L139.59,46.10L139.33,45.82L139.30,44.05L140.67,43.96zM163.32,58.17L162.88,58.17L162.59,57.89L162.48,57.08L163.36,57.06zM140.94,59.46L140.91,60.30L140.09,60.30L140.11,59.59L140.70,59.20zM47.30,131.17L47.20,135.76L20.50,135.76L20.26,133.86L13.45,133.61L20.26,133.44L20.41,130.92L47.03,130.90zM13.33,134.74L11.57,133.93L11.57,133.64L12.69,133.02L13.01,133.06z"/></g><g id="hotspot.1" onmouseover="ShowHotSpot(evt,'1')" onmouseout="HideHotSpot(evt,'1')" onmousemove="ShowToolTip(evt,'1',&quot;3dp527689&quot;)" opacity="0"><path style="fill:#00ff00;fill-rule:evenodd" d="M49.41,151.27L49.34,155.83L21.03,155.83L20.79,153.66L14.52,153.41L20.79,153.24L20.95,150.99L48.89,150.98zM12.79,153.86L12.64,153.44L13.76,152.82L14.09,152.85L14.09,154.32zM146.17,155.38L147.36,155.53L148.43,156.33L148.44,158.60L147.81,159.04L146.17,159.28L145.99,160.75L145.39,160.75L145.21,159.28L143.84,159.05L143.06,158.49L143.06,155.90L143.76,155.53L145.21,155.38L145.39,153.91L145.99,153.91zM161.49,164.67L162.03,165.20L163.93,165.98L163.95,169.04L163.33,169.48L161.69,169.71L161.53,171.17L160.62,171.17L160.46,169.71L159.09,169.48L158.05,168.65L158.04,165.80L158.48,165.44L160.46,165.00L160.64,163.54L161.24,163.55z"/></g><g id="hotspot.2" onmouseover="ShowHotSpot(evt,'2')" onmouseout="HideHotSpot(evt,'2')" onmousemove="ShowToolTip(evt,'2',&quot;3dp527817&quot;)" opacity="0"><path style="fill:#00ff00;fill-rule:evenodd" d="M165.58,57.03L166.89,59.48L167.14,73.40L167.14,141.21L165.80,140.82L164.92,140.82L164.11,141.10L163.86,145.39L160.63,145.91L158.56,145.93L155.89,144.59L155.34,144.07L153.25,136.53L151.25,135.55L151.35,135.05L151.89,134.68L150.29,133.85L149.40,133.87L148.41,136.91L147.82,137.65L145.65,137.89L143.04,137.91L140.83,136.64L140.65,130.91L139.58,130.96L138.77,130.67L138.51,126.92L138.25,125.84L136.09,125.59L135.73,123.98L136.02,123.18L138.17,122.92L137.97,102.57L137.44,72.87L137.18,70.18L135.02,69.94L134.75,68.41L134.94,67.51L137.18,67.35L137.69,62.77L137.99,62.27L138.14,58.68L142.53,58.68L142.69,60.66L149.21,60.38L160.40,59.53L160.72,59.31L160.89,56.80L165.28,56.80zM127.04,93.97L127.17,95.98L134.79,96.15L127.17,96.40L127.02,98.65L97.56,98.57L97.47,93.73L126.77,93.71zM136.66,95.91L136.66,96.21L136.31,96.42L135.22,96.80L135.22,95.32L135.55,95.30zM163.32,58.17L162.89,58.16L162.22,57.59L162.50,57.08L163.36,57.06zM140.94,59.48L140.92,60.40L140.11,60.31L140.12,59.01L140.40,58.94zM153.21,69.41L153.50,69.92L156.17,70.19L160.73,78.74L160.98,98.29L160.98,124.05L160.64,124.25L155.82,130.66L154.28,130.67L144.38,126.40L143.83,125.88L143.06,79.83L143.05,67.86L148.06,67.52L153.21,67.48zM146.26,132.01L145.17,132.89L145.11,131.71zM159.95,138.46L159.94,138.74L159.11,139.06L158.72,137.90z"/></g><g id="hotspot.3" onmouseover="ShowHotSpot(evt,'3')" onmouseout="HideHotSpot(evt,'3')" onmousemove="ShowToolTip(evt,'3',&quot;3dp059799&quot;)" opacity="0"><path style="fill:#00ff00;fill-rule:evenodd" d="M147.34,169.19L148.74,170.24L148.94,171.05L166.09,183.89L166.08,186.68L157.42,188.57L157.26,185.50L141.74,172.92L137.42,172.96L135.57,171.59L135.48,167.86L135.99,167.57L147.07,165.69zM148.68,179.35L148.97,180.25L147.24,180.45L148.08,178.80L148.38,178.80zM148.58,189.63L162.89,189.76L163.16,190.03L163.14,194.71L133.68,194.63L133.60,189.78L148.15,189.63L148.41,180.68zM145.14,167.12L145.40,166.77L146.01,166.77L146.05,167.12L145.63,167.61L145.19,167.61zM137.45,169.02L136.81,169.03L136.89,168.46L137.46,168.38zM148.97,173.74L148.42,173.78L146.83,172.92L145.93,171.84L146.53,171.83zM153.53,177.21L152.67,177.25L149.72,175.04L149.67,174.78L150.27,174.79zM158.33,180.97L157.49,180.99L154.54,178.81L154.47,178.28L154.80,178.25zM164.20,185.46L163.96,185.90L163.82,185.27zM158.85,186.83L158.51,186.92L158.60,186.58z"/></g><g id="hotspot.4" onmouseover="ShowHotSpot(evt,'4')" onmouseout="HideHotSpot(evt,'4')" onmousemove="ShowToolTip(evt,'4',&quot;3dp527821&quot;)" opacity="0"><path style="fill:#00ff00;fill-rule:evenodd" d="M205.84,50.13L233.96,47.20L234.46,46.90L243.41,46.90L243.40,52.89L240.99,128.07L240.73,131.03L235.55,131.73L232.95,131.75L229.75,130.66L215.28,126.63L213.68,126.68L212.36,125.85L203.52,123.45L202.64,123.26L202.91,85.18L203.44,50.40L203.96,50.10zM279.28,80.06L279.18,84.65L252.48,84.65L252.24,82.49L244.89,82.23L252.24,82.06L252.40,79.81L279.02,79.79zM243.17,82.42L243.02,81.99L244.13,81.38L244.46,81.40L244.46,82.88z"/></g></g></svg>
