<?xml version="1.0" encoding="UTF-8" standalone="no"?>
<svg xmlns="http://www.w3.org/2000/svg" xmlns:xlink="http://www.w3.org/1999/xlink" width="297.000mm" height="210.000mm" viewBox="0.000000 0.000000 297.000000 210.000000" stroke-linejoin="round" stroke-linecap="round" fill="none" fill-rule="evenodd"><desc>Composer Export</desc><script type="text/ecmascript"><![CDATA[
if(typeof(top) != "undefined")
{
	top.ShowPaper = ShowPaper;
}
function ShowHotSpot(evt,hotspotid)
{
	var svgDocument = evt.target.ownerDocument;
	var strId = "hotspot."+hotspotid;
	var hotspot = svgDocument.getElementById(strId);
	if(hotspot)
		hotspot.setAttribute("opacity",".5");
}
function HideHotSpot(evt,hotspotid)
{
	var svgDocument = evt.target.ownerDocument;
	var strId = "hotspot."+hotspotid;
	var hotspot = svgDocument.getElementById(strId);
	if(hotspot)
		hotspot.setAttribute("opacity","0");

	var toolTip = svgDocument.getElementById('ToolTip');
	if(toolTip)
		toolTip.setAttribute("visibility","hidden");
}
function ShowToolTip(evt,hotspotid,strTooltip)
{
	if(strTooltip=="")
	return;

	// change text
	var svgDocument = evt.target.ownerDocument;
	var tiptext = svgDocument.getElementById('ToolTipText');
	if( !tiptext )
	return;
	tiptext.firstChild.nodeValue = " " + strTooltip + "  " ;

	// show tooltip before, else some refresh issue

	var toolTip = svgDocument.getElementById('ToolTip');
	if(!toolTip)
	return;

	toolTip.setAttribute("visibility","visible");
	toolTip.setAttribute("opacity",".95");

	// move tooltip
	// get viewbox

	var root = svgDocument.documentElement;
	var vbox = (root.getAttribute("viewBox")).split(' ');
	var x0 = parseFloat(vbox[0]);
	var y0 = parseFloat(vbox[1]);
	var vboxW = parseFloat(vbox[2]);
	var vboxH = parseFloat(vbox[3]);

	// get default width of svg

	var strW = root.getAttribute("width");
	var svgW = parseFloat(strW);
	if(strW.indexOf('mm') != -1)
	svgW *= 3.779;

	var strH = root.getAttribute("height");
	var svgH = parseFloat(strH);
	if(strH.indexOf('mm') != -1)
	svgH *= 3.779;  	// 96 dpi  -> 96/25.4 = 3.779

	// update the viewbox / width / height if svg is embedded in html with zoom fit all
	var realx0 = x0;
	var realy0 = y0;
	var realvboxW = vboxW;
	var realvboxH = vboxH;
	var realsvgW = svgW;
	var realsvgH = svgH;

	if ((typeof(top) == "undefined") || (typeof(top.svgctl1) != "undefined")) // embedded in html
	{
		// get window size in pxl

		svgW = window.innerWidth;
		svgH = window.innerHeight;

		// calculate real viewbox

		realsvgW = svgW;
		realsvgH = svgH;
		if((svgW / svgH) > (vboxW / vboxH))
		{
			realvboxW = (vboxH * svgW) / svgH;
			realvboxH = vboxH;
			realx0 = x0 - (realvboxW - vboxW)/2 ;
		}
		else
		{
			realvboxH = (vboxW * svgH) / svgW;
			realvboxW = vboxW;
			realy0 = y0 - (realvboxH - vboxH)/2 ;
		}
	}

	// get user zoom/pan

	var newScale = root.currentScale;
	var translation = root.currentTranslate;

	// transform pxl to user unit

	var xPos = (((evt.clientX+10- translation.x)/newScale) * realvboxW)/realsvgW  + realx0 ;
	var yPos = (((evt.clientY+5- translation.y)/newScale) * realvboxH)/ realsvgH  + realy0 ;
	var scaleForWidth = ( (1 / newScale) * realvboxH) / realsvgH;

	// move tooltip

	toolTip.setAttribute("transform", "translate(" + xPos + "," + yPos + ")" );

	// resize tooltip

	var fontsize = 12;
	tiptext.setAttribute("font-size",fontsize*scaleForWidth);
	tiptext.setAttribute("y", fontsize*scaleForWidth);
	var tipBG = svgDocument.getElementById('ToolTipBG');
	var outline = tiptext.getBBox();
	if(tipBG)
	{
		tipBG.setAttribute("stroke-width", 1*scaleForWidth);
		tipBG.setAttribute("width", Number(outline.width) );
		tipBG.setAttribute("height", Number(outline.height) + fontsize*.5*scaleForWidth );
	}
	var ToolTipShadow = svgDocument.getElementById('ToolTipShadow');
	if(ToolTipShadow)
	{
		ToolTipShadow.setAttribute("width", Number(outline.width) );
		ToolTipShadow.setAttribute("height", Number(outline.height) + fontsize*.5*scaleForWidth );
		ToolTipShadow.setAttribute("x", 3*scaleForWidth);
		ToolTipShadow.setAttribute("y", 3*scaleForWidth);
	}
}
function ShowPaper()
{
  var svgDocument = getDocument();
  var paper = svgDocument.getElementById("paperID");
  if(paper)
  {
    paper.setAttribute("transform","scale(1)");
    paper.setAttribute("opacity","1");
    paper.setAttribute("visibility","visible");
  }
  var svg = svgDocument.getRootElement();
  if(svg)
  {
    svg.setAttribute("width","307.000mm");
    svg.setAttribute("height","220.000mm");
    svg.setAttribute("viewBox","-5.000000 -5.000000 307.000000 220.000000");
  }
}
]]></script><defs/><g><path style="fill:#ffffff" d="M296.92,209.94L0.07,209.94L0.07,0.07L296.92,0.07z"/><path style="fill:#00fdff" d="M213.40,96.52L213.40,98.58L180.96,105.95L180.74,106.17L226.34,139.53L226.01,142.01L224.74,142.23L224.26,142.52L223.59,142.53L210.19,132.54L209.91,132.83L209.67,134.86L208.16,135.38L208.18,135.76L219.15,144.21L219.15,145.34L217.57,145.99L216.39,145.97L202.24,134.77L201.14,134.78L182.46,140.00L182.23,140.22L193.27,149.95L195.29,151.94L195.02,154.26L193.20,154.94L192.29,154.92L191.29,153.90L190.21,154.21L189.54,154.21L188.31,153.17L188.07,151.18L183.36,146.70L178.14,141.98L177.62,141.47L177.05,141.48L166.36,144.49L164.11,148.94L172.91,157.89L172.90,160.47L170.83,161.15L169.92,161.14L169.17,160.36L167.69,160.39L166.69,159.39L166.45,157.39L163.21,154.15L151.69,157.41L148.18,158.61L152.28,163.35L152.18,165.11L150.70,165.62L149.79,165.61L144.80,159.64L143.98,159.63L138.51,161.41L137.86,161.40L134.29,160.72L134.12,159.89L129.15,158.90L126.42,158.65L121.37,158.65L115.65,159.39L108.21,161.40L107.47,161.47L106.77,160.41L106.71,158.40L115.15,156.16L121.12,155.42L125.45,155.16L122.19,151.16L121.63,151.18L106.78,155.25L103.81,155.93L102.58,154.15L102.30,153.45L102.30,151.76L148.50,139.52L148.80,139.24L147.30,137.52L143.59,133.78L142.08,133.54L141.06,132.29L140.53,132.28L96.59,143.31L94.79,143.57L94.37,142.98L94.35,140.82L119.20,134.62L117.74,132.79L109.06,122.37L80.36,128.82L78.95,128.82L78.44,127.60L78.36,125.58L183.34,102.32L183.50,99.75L184.00,99.46L184.59,99.49L184.49,101.83L186.81,101.57L198.72,98.85L198.74,97.59L198.90,96.25L199.74,96.25L199.73,98.52L200.40,98.52L211.59,96.01L212.42,96.00z"/><path style="fill:#fffe02" d="M83.19,26.17L85.08,26.18L119.63,22.95L121.93,22.96L122.14,23.53L127.18,23.04L127.32,21.70L128.42,21.70L128.90,28.67L130.31,37.70L165.69,33.72L176.54,32.39L178.37,32.39L180.09,40.85L180.87,41.18L128.57,48.03L128.86,48.30L155.00,64.23L157.99,63.95L158.23,66.19L166.42,71.17L166.39,71.40L160.38,72.41L159.49,72.38L159.25,72.16L158.47,72.51L158.42,73.15L138.02,76.63L136.37,76.60L136.10,76.37L130.89,75.89L127.18,75.41L125.84,75.64L114.91,75.89L110.18,76.38L101.21,77.88L101.30,78.35L102.11,79.13L102.09,79.44L100.99,79.61L99.25,79.69L98.62,77.84L73.24,55.25L72.24,55.01L71.97,54.53L68.29,33.90L67.45,33.99L66.71,28.89L67.50,28.48L67.69,27.93L69.20,27.67L68.42,18.71L70.50,18.46z"/><path style="fill:#ffffff" d="M123.60,49.53L125.43,49.53L125.39,49.77L123.64,49.77z"/><path style="fill:#ffffff" d="M107.57,52.01L105.45,52.04L105.93,51.77L107.33,51.77z"/><path style="fill:#ffffff" d="M133.91,54.98L133.32,55.28L132.36,55.28L131.80,55.02L132.28,54.75L133.68,54.75z"/><path style="fill:#ffffff" d="M115.28,57.80L113.37,57.80L113.37,57.52L115.28,57.52z"/><path style="fill:#ffffff" d="M189.31,116.87L189.02,117.16L163.87,123.37L162.97,123.36L157.24,118.14L151.51,113.14L151.41,112.68L171.33,108.19L172.16,108.17L172.65,108.69L174.33,108.71L175.08,108.22L175.52,107.16L176.38,107.18z"/><path style="fill:#ffffff" d="M148.06,114.63L156.76,122.59L158.79,124.36L158.75,124.66L144.74,128.08L143.32,128.07L132.56,117.14L135.04,116.40L145.97,113.91L147.06,113.90z"/><path style="fill:#ffffff" d="M126.44,119.85L127.68,121.35L131.39,125.10L132.90,126.81L136.12,130.29L135.83,130.58L122.60,133.82L121.96,133.81L113.76,124.09L112.25,122.35L112.15,121.63L124.10,118.89L125.44,118.87z"/><path style="fill:#ffffff" d="M207.00,130.07L206.96,130.37L180.01,137.79L179.38,137.78L165.92,125.82L165.91,125.43L188.30,119.86L188.56,120.87L189.54,121.64L190.46,121.63L191.78,121.20L192.03,119.19L192.29,119.12z"/><path style="fill:#ffffff" d="M133.40,123.09L134.64,124.58L139.60,129.58L139.12,129.58L133.65,124.08L132.41,122.59L129.13,119.34L129.09,119.10L129.37,119.10z"/><path style="fill:#ffffff" d="M160.72,127.83L161.47,128.57L163.20,128.55L164.47,129.55L173.17,137.50L174.91,138.98L174.59,139.27L162.89,142.51L158.74,143.49L145.98,130.56L158.41,127.34L160.50,126.85z"/><path style="fill:#ffffff" d="M205.95,133.88L205.62,133.88L205.62,133.54L205.95,133.54z"/><path style="fill:#ffffff" d="M156.01,146.70L156.25,148.45L157.25,149.45L158.73,149.42L159.75,150.56L158.90,150.96L157.99,150.95L154.53,147.19L152.04,144.71L150.95,143.23L152.52,142.96z"/><path style="fill:#ffffff" d="M154.75,152.02L137.03,157.18L131.14,155.91L129.82,155.74L125.66,150.41L125.60,150.19L147.55,144.21z"/><g id="Actor_.0"><g style="stroke:#000000;stroke-width:0.025"><path d="M121.27,73.01L121.21,72.96L121.04,72.93L120.85,72.94L120.86,73.06"/><path d="M120.85,72.94L120.71,72.99L120.68,73.03"/></g></g><g id="Actor_.1"><g style="stroke:#000000;stroke-width:0.025"><path d="M101.10,77.32L101.44,77.62L101.44,77.70"/><path d="M101.44,77.62L108.13,76.51L108.14,76.60"/><path d="M106.21,51.63L106.21,51.56L105.70,51.68L105.50,51.80L105.48,51.91"/><path d="M106.21,51.56L107.27,51.57L107.65,51.70L107.72,51.84"/><path d="M125.53,75.55L120.79,75.48L116.66,75.59L112.12,75.96L108.13,76.51"/><path d="M113.13,57.54L113.14,57.43L113.35,57.29L113.87,57.16L113.88,57.23"/><path d="M113.87,57.16L114.45,57.12L115.00,57.17L115.38,57.30L115.49,57.48"/><path d="M117.10,73.67L116.70,73.72L116.68,73.60L116.47,73.68L116.39,73.61L116.51,73.49L116.80,73.44L117.09,73.48L117.20,73.59L117.12,73.66L116.68,73.60"/><path d="M116.64,73.46L116.64,73.54L116.41,73.64"/><path d="M116.69,73.72L116.49,73.69"/><path d="M117.19,73.61L116.96,73.54L116.64,73.54"/><path d="M116.50,71.22L116.31,71.28L116.26,71.38L116.36,71.44L116.63,71.35L116.95,71.42L117.06,71.34L116.90,71.23L116.66,71.21L116.50,71.22L116.51,71.31L116.81,71.30L117.04,71.38"/><path d="M116.54,71.36L116.55,71.48L116.36,71.44"/><path d="M116.96,71.42L116.55,71.48"/><path d="M116.27,71.40L116.51,71.31"/><path d="M120.88,70.23L119.16,70.50L119.25,70.58"/><path d="M120.57,72.92L120.72,72.82L120.97,72.79L121.22,72.81L121.37,72.90L121.28,73.01L120.99,72.93L120.68,73.01L120.57,72.92"/><path d="M120.59,72.98L120.82,72.89L120.81,72.80"/><path d="M120.85,72.94L120.86,73.06L120.67,73.03"/><path d="M121.36,72.96L121.13,72.88L120.82,72.89"/><path d="M120.86,73.06L121.27,73.01"/><path d="M124.06,49.29L124.06,49.22L123.63,49.31L123.43,49.43L123.40,49.54"/><path d="M124.06,49.22L124.60,49.19L125.17,49.24L125.53,49.38L125.58,49.51"/><path d="M125.33,75.67L125.33,75.59"/><path d="M131.82,54.90L131.84,54.79L132.04,54.66L132.49,54.55L132.49,54.62"/><path d="M132.49,54.55L133.04,54.52L133.65,54.58L134.01,54.71L134.11,54.88"/><path d="M159.78,72.43L159.79,72.34L157.92,71.16"/><path d="M159.79,72.34L166.63,71.17"/></g><g style="stroke:#000000;stroke-width:0.173"><path d="M99.51,51.65L128.36,47.90L155.07,64.14"/><path d="M120.43,70.39L119.25,70.58L125.53,75.55L125.54,75.64L119.87,75.57L115.29,75.76L112.57,76.00L109.89,76.33L101.44,77.70L101.10,77.40"/><path d="M105.50,51.88L105.57,52.00L105.79,52.09L106.59,52.16L107.39,52.04L107.65,51.92L107.70,51.82L107.34,51.66L106.60,51.60L105.93,51.68L105.50,51.88"/><path d="M113.88,57.23L113.30,57.39L113.17,57.48L113.15,57.58L113.61,57.78L114.41,57.82L115.16,57.70L115.43,57.56L115.48,57.46L115.29,57.33L114.93,57.23L113.88,57.23"/><path d="M123.45,49.48L123.43,49.58L123.64,49.69L124.39,49.79L125.19,49.72L125.58,49.51L125.28,49.34L124.60,49.26L123.86,49.32L123.45,49.48"/><path d="M131.82,54.89L132.21,54.68L132.96,54.59L133.78,54.68L134.04,54.80L134.10,54.89L133.72,55.10L132.88,55.19L132.14,55.10L131.88,54.98L131.82,54.89"/><path d="M159.17,72.04L159.78,72.43L166.63,71.25L166.63,71.17L158.02,65.94"/></g></g><g id="Actor_.2"><g style="stroke:#000000;stroke-width:0.025"><path d="M117.10,73.67L117.03,73.62L116.87,73.59L116.68,73.60L116.69,73.72"/><path d="M116.50,73.69L116.54,73.64L116.68,73.60"/></g></g><g id="Actor_.3"><g style="stroke:#000000;stroke-width:0.025"><path d="M116.95,71.43L116.89,71.38L116.73,71.35"/><path d="M116.73,71.35L116.73,71.35L116.54,71.36L116.55,71.48"/><path d="M116.54,71.36L116.40,71.41L116.37,71.45"/></g></g><g id="Actor_.4"><g style="stroke:#000000;stroke-width:0.025"><path d="M75.60,35.86L75.63,35.84L75.63,35.76L75.50,35.77L75.50,35.85L75.47,35.87"/><path d="M75.50,35.77L75.45,35.28L75.43,35.19L75.40,35.14L75.26,35.05"/><path d="M75.89,35.73L75.63,35.76L75.77,35.75L75.74,35.77L75.74,35.78L75.74,35.80L75.76,35.82L75.84,35.85L75.75,35.86L75.73,35.87L75.72,35.87L75.72,35.87"/><path d="M75.77,35.75L75.92,35.73"/><path d="M75.84,35.85L75.92,35.84"/><path d="M75.40,35.14L75.53,35.12L75.56,35.17L75.58,35.27L75.45,35.28"/><path d="M75.75,35.07L75.66,35.08L75.64,35.09L75.64,35.10L75.65,35.11L75.68,35.12L75.77,35.13L75.70,35.18L75.69,35.20L75.68,35.22L75.69,35.24L75.72,35.26L75.84,35.25"/><path d="M75.77,35.13L75.85,35.12"/><path d="M75.31,35.28L75.30,35.42L75.34,35.58L75.39,35.67L75.43,35.64L75.43,35.50L75.41,35.41L75.40,35.34L75.35,35.25L75.31,35.28"/><path d="M75.30,35.42L75.41,35.41"/><path d="M75.67,35.00L75.39,35.03L75.52,34.99"/><path d="M75.72,35.26L75.58,35.27"/><path d="M75.53,35.12L75.66,35.08"/><path d="M75.65,35.00L75.66,35.01"/><path d="M75.39,35.03L75.39,35.03"/></g><g style="stroke:#000000;stroke-width:0.173"><path d="M75.39,35.03L75.26,35.05L75.24,35.07L75.23,35.15L75.28,35.63L75.30,35.73L75.33,35.78L75.47,35.87L75.60,35.86"/><path d="M75.39,35.03L75.48,35.00L75.49,35.00L75.52,34.99L75.67,34.97L75.67,35.00L75.66,35.01L75.75,35.07L75.81,35.06L75.85,35.12L75.87,35.24L75.84,35.25L75.87,35.52L75.89,35.73L75.91,35.72L75.92,35.73L75.92,35.84L75.89,35.85L75.74,35.87L75.72,35.87L75.60,35.86"/></g></g><g id="Actor_.5"><g style="stroke:#000000;stroke-width:0.025"><path d="M67.35,33.88L66.85,29.04L68.25,30.03L68.65,33.74"/><path d="M66.45,28.64L69.59,30.87L69.60,30.99L68.44,30.16L68.80,33.75"/><path d="M66.85,29.03L66.82,29.01"/><path d="M68.44,30.16L68.28,30.05"/><path d="M68.35,18.50L69.62,30.89L69.44,29.40L68.15,28.47"/><path d="M68.38,18.52L70.16,18.36L71.36,30.71L71.45,30.71"/><path d="M69.60,30.99L71.34,30.81L71.46,30.90L71.32,30.81"/><path d="M69.62,30.89L71.32,30.72L71.34,30.81"/><path d="M69.44,29.37L69.43,29.30"/><path d="M70.12,18.34L70.31,18.38L71.52,30.72"/><path d="M95.03,33.06L94.91,33.08L93.79,32.42L70.34,18.39L70.43,18.36"/><path d="M71.36,30.71L71.33,30.72"/><path d="M71.52,30.77L71.54,30.97L71.47,30.92L71.53,30.91"/><path d="M73.25,55.02L98.98,77.98L96.41,38.44L96.47,38.48L99.15,79.79"/><path d="M76.04,54.38L75.95,54.27L75.95,54.61L76.08,54.80L76.04,54.81"/><path d="M76.08,54.80L76.09,54.68"/><path d="M75.93,54.47L76.04,54.45"/><path d="M77.19,49.84L77.17,49.97L77.04,49.78L77.04,49.42L77.13,49.52"/><path d="M77.02,49.62L77.13,49.61"/><path d="M78.59,55.45L78.50,55.35L78.50,55.70L78.59,55.90L78.65,55.78"/><path d="M78.48,55.55L78.59,55.53"/><path d="M94.89,33.08L95.08,36.03L95.22,36.02"/><path d="M95.08,36.03L98.52,38.16L98.66,38.14"/><path d="M96.47,38.48L98.48,38.24L101.04,79.46L100.76,79.53"/><path d="M96.41,38.44L98.68,38.18"/><path d="M98.98,77.98L98.99,78.07"/><path d="M98.52,38.16L98.43,38.21"/><path d="M102.27,79.13L101.22,79.32L101.16,79.42L101.04,79.46"/><path d="M101.22,79.32L101.15,78.14"/><path d="M100.66,79.52L100.76,79.51"/></g><g style="stroke:#000000;stroke-width:0.173"><path d="M66.99,30.71L66.82,29.04L66.46,28.76L66.45,28.64L68.27,28.49L69.43,29.30L68.35,18.50L70.34,18.35L95.03,33.06L95.22,36.02L98.66,38.14L101.15,78.14L102.27,79.13L102.28,79.26L99.15,79.79L99.09,79.75L98.99,78.07L73.29,55.13L73.25,55.02L72.71,54.54L68.80,33.75L67.35,33.88L66.99,30.71"/><path d="M71.46,30.72L71.52,30.77L71.45,30.71"/><path d="M75.87,35.51L75.86,35.42"/><path d="M76.07,54.46L76.09,54.68L76.04,54.38L76.07,54.46"/><path d="M77.16,49.61L77.13,49.52L77.19,49.84L77.16,49.61"/><path d="M78.63,55.55L78.65,55.78L78.59,55.45L78.63,55.55"/></g></g><g id="Actor_.6"><g style="stroke:#000000;stroke-width:0.173"><path d="M76.04,54.41L76.05,54.49"/></g></g><g id="Actor_.7"><g style="stroke:#000000;stroke-width:0.173"><path d="M77.13,49.57L77.14,49.64"/></g></g><g id="Actor_.8"><g style="stroke:#000000;stroke-width:0.173"><path d="M78.59,55.50L78.60,55.56"/></g></g><g id="Actor_.9"><g style="stroke:#000000;stroke-width:0.025"><path d="M148.21,65.26L148.19,65.13L153.95,64.32L153.95,64.35"/><path d="M148.19,65.13L149.34,64.94"/><path d="M148.07,65.11L148.07,65.12"/><path d="M149.34,64.94L149.49,64.92L147.88,65.14"/><path d="M149.49,64.92L149.68,64.89"/><path d="M149.68,64.89L149.49,64.92"/><path d="M150.35,64.80L150.38,64.80L149.70,64.91L150.35,64.80"/><path d="M150.38,64.80L150.39,64.80"/><path d="M149.89,64.87L149.89,64.88"/><path d="M153.95,64.32L155.13,64.13L155.14,64.16"/><path d="M153.84,64.32L153.80,64.32"/><path d="M153.84,64.31L153.64,64.35"/><path d="M153.64,64.35L153.14,64.42L153.33,64.39"/><path d="M153.33,64.39L153.80,64.32"/><path d="M155.37,64.09L157.75,63.76"/><path d="M157.91,72.14L157.99,72.19L157.91,72.17"/><path d="M159.17,71.99L157.99,72.19L157.99,72.35"/><path d="M157.96,63.73L157.76,63.76"/></g><g style="stroke:#000000;stroke-width:0.173"><path d="M147.88,65.15L155.13,64.13L155.24,64.15"/><path d="M155.37,64.12L155.37,64.09L155.57,64.06L157.95,63.73"/><path d="M157.92,71.20L159.17,71.99L159.17,72.20L158.06,72.39"/></g></g><g id="Actor_.10"><g style="stroke:#000000;stroke-width:0.025"><path d="M121.63,69.31L148.44,65.07"/><path d="M147.98,65.27L135.37,67.27"/><path d="M147.97,65.14L147.98,65.13"/></g><g style="stroke:#000000;stroke-width:0.173"><path d="M121.24,69.36L147.98,65.13L148.44,65.07L148.44,65.08"/><path d="M148.20,65.23L147.98,65.27L147.96,65.30"/></g></g><g id="Actor_.11"><g style="stroke:#000000;stroke-width:0.025"><path d="M126.98,68.57L135.16,67.32L135.23,67.25"/><path d="M158.01,72.36L136.18,76.10L136.10,75.96L136.08,75.81L135.99,75.74L136.03,75.68L136.08,75.72L136.08,75.81L157.91,72.08"/><path d="M158.65,72.78L136.77,76.53L136.18,76.10L136.18,76.31"/><path d="M135.49,76.29L135.35,67.34L135.70,67.34L135.83,76.28L135.66,76.31"/><path d="M135.99,75.74L135.99,75.90"/><path d="M136.08,75.72L136.03,75.68"/><path d="M135.43,67.27L135.35,67.34L135.16,67.32"/><path d="M135.93,67.20L156.98,63.88"/><path d="M136.46,67.33L136.47,67.70L136.55,67.76L136.46,67.21L135.70,67.34L135.60,67.27"/><path d="M135.93,67.22L136.29,67.16"/><path d="M136.77,76.75L136.77,76.53"/><path d="M136.30,67.16L136.36,67.15L136.46,67.21"/><path d="M136.47,67.70L136.47,67.79L136.55,67.85L136.53,67.89L136.47,67.87L136.47,67.79"/><path d="M136.55,67.85L136.55,67.76L157.25,64.46L157.23,64.23"/><path d="M157.26,64.46L157.26,64.57L157.30,64.58L157.33,64.54L157.26,64.49"/><path d="M158.06,63.79L157.35,63.90L157.34,64.53"/><path d="M157.35,63.90L157.24,63.84"/></g><g style="stroke:#000000;stroke-width:0.173"><path d="M135.83,76.28L135.49,76.29L127.16,75.36L126.98,68.58L127.06,68.50L135.23,67.25L135.60,67.27L156.58,63.93L157.03,63.88L157.15,64.01L157.23,64.23L157.24,63.84L157.96,63.73L158.06,63.79L157.91,72.12L157.99,72.35L158.65,72.78L158.65,72.99L136.77,76.75L136.16,76.29L136.07,76.15L135.99,75.90L136.00,76.25L135.65,76.30"/></g></g><g id="Actor_.12"><g style="stroke:#000000;stroke-width:0.025"><path d="M119.50,70.54L125.59,75.35L125.60,75.57"/><path d="M127.15,74.86L127.06,74.88L127.00,75.04L126.85,75.13L120.73,70.34"/><path d="M126.98,68.58L126.87,68.60L127.06,74.88L120.93,70.09"/><path d="M123.27,69.08L120.90,69.41"/><path d="M123.29,69.18L123.19,69.33L123.17,69.56L123.19,69.65L123.15,69.65L123.19,69.65"/><path d="M123.15,69.65L123.06,69.12"/><path d="M123.17,69.56L126.44,69.12L126.45,68.98L126.40,68.66L126.87,68.60"/><path d="M123.51,69.04L126.79,68.60L126.99,68.56"/><path d="M125.59,75.35L126.85,75.13L126.86,75.35"/><path d="M126.46,69.22L126.49,69.21L126.46,69.22L126.44,69.12L126.48,69.12L126.45,68.98"/><path d="M126.77,68.60L126.40,68.66"/><path d="M126.49,69.21L126.48,69.12"/><path d="M126.79,68.60L126.98,68.58"/></g><g style="stroke:#000000;stroke-width:0.173"><path d="M127.01,68.55L124.17,68.94L123.51,69.04L123.31,69.14L123.29,69.18L123.27,69.08L120.90,69.41L120.93,70.09L120.87,70.25L120.73,70.34L119.50,70.54L119.51,70.75L125.60,75.57L126.86,75.35L127.07,75.25L127.16,75.15"/></g></g><g id="Actor_6.0"><g style="stroke:#000000;stroke-width:0.025"><path d="M69.26,27.59L67.65,27.75L67.73,28.51"/><path d="M67.65,27.75L67.63,27.73"/><path d="M73.22,55.00L72.58,55.08L72.01,54.54L68.31,33.78"/><path d="M72.51,55.09L72.52,55.17"/><path d="M72.00,54.49L72.68,54.40"/><path d="M72.05,54.63L72.71,54.54"/><path d="M83.62,26.24L121.98,22.64"/><path d="M91.37,30.88L128.65,27.11"/><path d="M91.30,30.83L128.65,27.06"/><path d="M180.91,41.02L99.50,51.59"/><path d="M99.47,50.95L180.03,40.56"/><path d="M99.47,51.09L180.11,40.67"/><path d="M127.21,22.94L122.00,23.43"/><path d="M127.24,22.95L127.18,21.62"/><path d="M127.21,21.64L128.53,21.51"/></g><g style="stroke:#000000;stroke-width:0.173"><path d="M69.26,27.58L67.63,27.73L67.71,28.51"/><path d="M73.26,55.07L72.58,55.16L72.00,54.60L68.29,33.78"/><path d="M83.59,26.23L121.95,22.63L122.00,23.43L127.21,22.94L127.18,21.62L128.50,21.50L128.65,27.06L130.25,37.67L178.37,32.09L180.03,40.56L180.91,41.09L128.38,47.91"/></g></g><g id="Actor_.13"><g style="stroke:#000000;stroke-width:0.025"><path d="M117.12,129.64L117.12,129.63L117.24,129.57L117.39,129.56L117.51,129.60L117.53,129.62"/><path d="M117.24,129.57L117.24,129.67"/></g></g><g id="Actor_.14"><g style="stroke:#000000;stroke-width:0.025"><path d="M120.20,134.31L120.30,134.22L120.42,134.17L108.61,120.02"/><path d="M119.93,134.37L108.31,120.39"/><path d="M110.35,120.94L110.39,120.87L110.35,120.80L110.24,120.75L110.09,120.74L109.94,120.76L109.82,120.82L109.78,120.89L109.82,120.97"/><path d="M109.97,120.75L109.98,120.90"/><path d="M117.04,129.60L117.00,129.52L117.04,129.44L117.16,129.38L117.32,129.35L117.48,129.37L117.60,129.42L117.64,129.50L117.60,129.57"/><path d="M117.20,129.37L117.21,129.52"/><path d="M120.42,134.17L122.10,133.76"/></g><g style="stroke:#000000;stroke-width:0.173"><path d="M122.10,133.84L122.10,133.76L110.19,119.67L108.61,120.02L108.46,120.09L108.35,120.21L108.31,120.35L108.36,121.28L119.32,134.53"/><path d="M109.98,120.90L109.88,120.94L109.83,120.98L109.96,121.02L110.11,121.03L110.23,121.00L110.34,120.95L110.28,120.91L110.18,120.89L109.98,120.90"/><path d="M117.07,129.58L117.05,129.59L117.09,129.63L117.28,129.67L117.44,129.65L117.60,129.58L117.52,129.53L117.37,129.51L117.21,129.52L117.07,129.58"/></g></g><g id="Actor_.15"><g style="stroke:#000000;stroke-width:0.025"><path d="M109.89,121.01L109.90,121.00L110.01,120.95L110.15,120.94L110.27,120.97L110.28,120.98"/><path d="M110.01,120.95L110.01,121.03"/></g></g><g id="Actor_.16"><g style="stroke:#000000;stroke-width:0.025"><path d="M133.88,125.61L133.88,125.61L133.99,125.56L134.13,125.55L134.26,125.58L134.28,125.61"/><path d="M133.99,125.56L133.99,125.64"/></g></g><g id="Actor_.17"><g style="stroke:#000000;stroke-width:0.025"><path d="M124.70,116.42L137.54,129.94L137.42,129.99L137.32,130.08"/><path d="M137.04,130.15L124.41,116.78"/><path d="M126.47,117.31L126.52,117.23L126.47,117.17L126.36,117.12L126.21,117.11L126.07,117.13L125.96,117.18L125.92,117.25L125.97,117.32"/><path d="M126.10,117.12L126.11,117.27"/><path d="M133.82,125.57L133.77,125.51L133.79,125.44L133.86,125.39L133.95,125.36L133.96,125.51"/><path d="M133.95,125.36L134.15,125.34L134.32,125.39L134.38,125.44L134.40,125.48L134.36,125.56"/><path d="M137.54,129.94L139.14,129.55"/></g><g style="stroke:#000000;stroke-width:0.173"><path d="M136.34,130.32L124.43,117.65L124.41,116.74L124.45,116.60L124.53,116.51L124.70,116.42L126.21,116.08L139.14,129.55L139.14,129.63"/><path d="M126.01,117.30L125.97,117.32L126.07,117.37L126.19,117.38L126.34,117.37L126.47,117.31L126.37,117.27L126.26,117.25L126.11,117.27L126.01,117.30"/><path d="M133.92,125.52L133.82,125.57L133.94,125.63L134.10,125.65L134.25,125.62L134.36,125.56L134.27,125.52L134.16,125.50L133.92,125.52"/></g></g><g id="Actor_.18"><g style="stroke:#000000;stroke-width:0.025"><path d="M126.04,117.36L126.13,117.31L126.27,117.30L126.39,117.33L126.41,117.35"/><path d="M126.13,117.31L126.14,117.38"/></g></g><g id="Actor_25.0"><g style="stroke:#000000;stroke-width:0.025"><path d="M147.50,144.00L154.89,151.94"/><path d="M156.11,151.59L147.51,142.43"/><path d="M156.16,151.58L156.19,151.51L156.23,151.46L156.35,151.39L147.70,142.20"/><path d="M149.34,141.76L158.05,150.91L156.35,151.39"/><path d="M156.71,151.42L156.68,151.39L156.35,151.48L156.30,151.51L156.27,151.55"/><path d="M156.88,151.38L156.85,151.34L158.05,151.00L158.08,151.00L158.11,151.02"/><path d="M156.85,151.34L156.68,151.39"/><path d="M158.05,150.91L158.14,150.90L158.21,150.94"/><path d="M158.08,151.00L158.13,151.02"/></g><g style="stroke:#000000;stroke-width:0.173"><path d="M158.24,150.99L158.21,150.94L149.49,141.79L149.44,141.76L149.34,141.76L147.70,142.20L147.60,142.25L147.53,142.34L147.51,142.43L147.50,144.00L147.52,144.08L154.85,151.95"/></g></g><g id="Actor_22.0"><g style="stroke:#000000;stroke-width:0.025"><path d="M128.28,118.23L128.27,117.85"/><path d="M128.43,117.88L128.41,117.87L128.38,117.87L128.35,117.86L128.32,117.85L128.30,117.84"/><path d="M128.61,118.07L128.63,118.60"/></g><g style="stroke:#000000;stroke-width:0.173"><path d="M128.96,118.94L129.37,118.85"/></g></g><g id="Actor_24.0"><g style="stroke:#000000;stroke-width:0.025"><path d="M201.97,134.38L216.70,145.94L216.80,145.01L216.84,144.91L216.91,144.82L217.00,144.77L202.23,133.26"/><path d="M216.80,145.01L202.05,133.49"/><path d="M204.26,132.70L207.46,135.16L206.56,134.47"/><path d="M207.46,135.16L219.11,144.14L219.19,144.13"/><path d="M216.70,145.94L216.71,146.03L216.76,146.07"/><path d="M216.80,145.97L216.86,145.98L216.78,145.92L216.80,145.97"/><path d="M216.86,145.98L218.97,145.34L217.97,144.57L216.99,144.86L216.92,144.91L216.89,144.98L216.78,145.92"/><path d="M217.00,144.77L219.11,144.14"/><path d="M217.97,144.57L218.14,144.52L219.06,145.22L219.03,145.30L218.97,145.34"/><path d="M218.15,144.51L219.09,144.23L219.17,144.29L219.16,144.23L219.09,144.23"/><path d="M219.06,145.22L219.17,144.29"/></g><g style="stroke:#000000;stroke-width:0.173"><path d="M201.98,134.46L216.76,146.07L216.85,146.07L218.96,145.43L219.05,145.38L219.12,145.30L219.15,145.20L219.26,144.27L219.25,144.18L219.19,144.13L204.35,132.70L204.26,132.70L202.23,133.26L202.14,133.31L202.08,133.39L202.05,133.48L201.97,134.38L201.98,134.46"/></g></g><g id="Actor_.19"><g style="stroke:#000000;stroke-width:0.025"><path d="M164.08,148.81L164.08,148.69L160.29,144.88"/><path d="M164.08,148.69L166.96,143.03"/></g><g style="stroke:#000000;stroke-width:0.173"><path d="M164.10,148.84L166.96,143.23L166.96,143.03L160.29,144.88L160.29,145.00"/></g></g><g id="Actor_.20"><g style="stroke:#000000;stroke-width:0.025"><path d="M138.48,161.38L138.46,158.66L134.08,157.81"/><path d="M138.46,158.66L138.51,158.57"/></g><g style="stroke:#000000;stroke-width:0.173"><path d="M134.12,159.73L134.13,160.52L138.48,161.38L138.54,161.29L138.51,158.57L134.14,157.72L134.08,157.81L134.12,159.73"/></g></g><g id="Actor_20.0"><g style="stroke:#000000;stroke-width:0.025"><path d="M198.72,98.64L198.73,98.57L199.69,98.35"/><path d="M199.37,99.06L199.37,98.98L198.73,98.57L198.69,98.52L198.68,98.45L198.63,98.42"/><path d="M199.65,98.24L198.68,98.45L198.86,96.21L198.81,96.18"/><path d="M199.37,98.98L200.34,98.76"/><path d="M199.42,96.39L199.47,96.42L199.50,96.54L199.47,96.97L199.42,97.10L199.32,97.20L199.20,97.23L199.11,97.17"/><path d="M198.86,96.21L199.83,96.00"/><path d="M199.47,96.42L199.47,96.42"/><path d="M199.50,96.54L199.45,96.51"/><path d="M199.47,96.97L199.42,96.94"/></g><g style="stroke:#000000;stroke-width:0.173"><path d="M198.64,98.51L198.67,98.59L198.72,98.64L199.37,99.06L200.33,98.84L200.34,98.76L199.69,98.35L199.66,98.30L199.65,98.24L199.83,96.00L199.78,95.96L198.81,96.18L198.63,98.42L198.64,98.51"/><path d="M199.21,97.18L199.15,97.20L199.11,97.17L199.08,97.05L199.11,96.63L199.16,96.49L199.26,96.39L199.38,96.37L199.42,96.39L199.45,96.51L199.42,96.94L199.37,97.07L199.27,97.17L199.21,97.18"/></g></g><g id="Actor_19.0"><g style="stroke:#000000;stroke-width:0.025"><path d="M206.00,133.98L206.07,133.32"/><path d="M207.57,132.91L207.36,135.02"/><path d="M207.71,132.87L207.77,132.88L207.84,132.89L207.92,132.89L207.98,132.87L207.74,135.32"/><path d="M207.98,132.87L209.84,132.36L209.89,132.34L209.93,132.31L209.95,132.29L209.96,132.25"/><path d="M209.84,132.36L209.59,134.81"/></g><g style="stroke:#000000;stroke-width:0.173"><path d="M205.94,133.93L206.00,133.34"/><path d="M209.96,132.24L209.71,134.71L209.70,134.74L209.67,134.78L209.65,134.79L209.59,134.81L207.76,135.33"/></g></g><g id="Actor_21.0"><g style="stroke:#000000;stroke-width:0.025"><path d="M188.11,152.81L188.23,151.18L188.19,151.13L188.18,151.11L188.18,151.09L188.18,151.06"/><path d="M189.85,152.53L189.77,152.52L189.70,152.49L189.67,152.47L189.61,152.44L188.23,151.18"/><path d="M189.50,154.07L189.61,152.44"/><path d="M189.93,154.15L190.04,152.70"/></g><g style="stroke:#000000;stroke-width:0.173"><path d="M191.21,153.77L189.90,154.16L189.86,154.17L189.78,154.17L189.74,154.17L189.66,154.16L189.62,154.14L189.55,154.11L189.50,154.07L188.11,152.81L188.09,152.79L188.07,152.74L188.06,152.72L188.06,152.70L188.18,151.06L188.19,151.02"/></g></g><g id="Actor_7.0"><g style="stroke:#000000;stroke-width:0.025"><path d="M79.20,128.99L78.98,126.69L78.26,125.52"/><path d="M79.22,128.85L109.02,122.08"/><path d="M78.53,127.85L79.07,127.73L79.18,128.78L78.49,127.77L78.47,127.67L79.05,127.54L78.96,126.73L78.34,125.72L78.47,127.67"/><path d="M79.16,128.85L79.18,128.84"/><path d="M79.07,127.73L79.05,127.54"/><path d="M78.92,126.53L213.46,96.42"/><path d="M79.02,126.90L108.32,120.33"/><path d="M78.34,125.72L78.28,125.73"/><path d="M78.29,125.55L183.62,102.14"/><path d="M124.42,116.72L110.36,119.87"/><path d="M125.16,118.42L111.71,121.47"/><path d="M126.39,116.27L128.32,115.84"/><path d="M128.36,117.69L127.87,117.81"/><path d="M146.99,111.65L130.81,115.28"/><path d="M146.99,113.47L132.31,116.80"/><path d="M176.41,105.05L149.38,111.12"/><path d="M176.33,106.81L151.01,112.55"/><path d="M178.63,104.56L213.58,96.72"/><path d="M180.44,105.88L213.41,98.40"/><path d="M198.87,98.74L184.72,101.89"/><path d="M199.94,98.51L212.33,95.75"/><path d="M212.24,95.75L212.25,95.74"/><path d="M213.30,98.54L213.32,98.54"/></g><g style="stroke:#000000;stroke-width:0.173"><path d="M183.59,102.11L78.25,125.53L78.45,127.71L79.16,128.96L79.27,128.97L109.12,122.20"/><path d="M111.81,121.59L125.26,118.53"/><path d="M127.97,117.92L128.38,117.82"/><path d="M147.00,113.59L132.42,116.91"/><path d="M176.33,106.93L151.13,112.66"/><path d="M199.90,98.48L212.25,95.74L213.46,96.42L213.58,96.66L213.41,98.40L213.26,98.55L180.57,105.97"/><path d="M198.84,98.72L184.69,101.87"/></g></g><g id="Actor_8.0"><g style="stroke:#000000;stroke-width:0.025"><path d="M189.67,116.89L176.32,106.88"/><path d="M176.39,106.99L176.40,106.99"/><path d="M176.41,104.99L191.78,116.37"/><path d="M178.36,104.40L226.21,139.39L224.17,139.99L176.57,104.80"/><path d="M207.38,130.16L192.15,118.74"/><path d="M209.59,129.56L193.35,117.53"/><path d="M224.17,139.99L223.99,140.20L223.71,142.41L210.10,132.20"/><path d="M223.99,140.22L211.40,130.90"/><path d="M223.71,142.41L223.78,142.54"/><path d="M223.87,142.45L223.80,142.40L223.87,142.45L224.80,142.17"/><path d="M223.80,142.40L224.06,140.29L225.99,141.72L225.90,141.84L225.22,142.04L225.20,142.13"/><path d="M224.04,140.46L225.90,141.84"/><path d="M225.99,141.72L226.27,139.54L226.19,139.48L224.16,140.08L224.06,140.29"/><path d="M225.22,142.04L224.97,141.88L224.96,141.97"/><path d="M224.97,141.88L224.67,141.82L224.55,141.86L224.53,141.96"/><path d="M226.27,139.54L226.19,139.48"/><path d="M226.21,139.39L226.29,139.38"/></g><g style="stroke:#000000;stroke-width:0.173"><path d="M210.02,132.22L223.78,142.54L224.79,142.26L224.80,142.17L224.53,141.96L224.66,141.91L224.96,141.97L225.20,142.13L225.89,141.93L226.04,141.80L226.36,139.51L226.29,139.38L178.43,104.41L176.49,104.84L176.41,105.02L176.34,106.95L189.60,116.91"/><path d="M207.30,130.18L192.07,118.76"/></g></g><g id="Actor_9.0"><g style="stroke:#000000;stroke-width:0.025"><path d="M146.99,113.53L159.01,124.45"/><path d="M160.84,124.00L147.00,111.58"/><path d="M147.16,111.39L192.83,152.29L192.63,152.50L192.45,154.82L192.50,154.93"/><path d="M149.23,110.99L149.22,110.97"/><path d="M149.11,110.95L195.12,151.60L192.83,152.29"/><path d="M175.06,139.03L161.25,126.48"/><path d="M176.99,138.50L162.26,125.28"/><path d="M177.54,141.27L192.45,154.82"/><path d="M178.64,139.98L192.63,152.53"/><path d="M192.55,154.78L192.60,154.86L194.90,154.16L192.89,152.36L192.72,152.50L192.55,154.78L192.63,154.85"/><path d="M193.07,152.31L195.10,151.69L195.19,151.76L195.00,154.04L193.07,152.31L192.89,152.36"/><path d="M194.90,154.16L195.00,154.04"/><path d="M195.19,151.76L195.11,151.69"/><path d="M195.12,151.60L195.24,151.61"/></g><g style="stroke:#000000;stroke-width:0.173"><path d="M158.96,124.47L147.02,113.62L147.00,111.60L147.08,111.42L149.20,110.96L195.24,151.61L195.27,151.91L195.05,154.13L194.90,154.25L192.52,154.95L177.48,141.29"/><path d="M175.00,139.04L161.19,126.50"/></g></g><g id="Actor_10.0"><g style="stroke:#000000;stroke-width:0.025"><path d="M128.40,117.85L128.42,117.87"/><path d="M139.67,129.50L128.37,117.76"/><path d="M141.30,129.09L128.32,115.77"/><path d="M170.13,161.19L170.20,158.75L170.29,158.57L170.41,158.50L128.48,115.57"/><path d="M130.54,115.11L172.57,157.50L172.84,157.77L172.99,157.80"/><path d="M130.68,115.16L130.67,115.15"/><path d="M149.08,139.26L141.90,131.82"/><path d="M150.77,138.81L142.30,130.12"/><path d="M159.91,150.51L152.42,142.73"/><path d="M161.68,150.01L152.88,140.98"/><path d="M170.10,161.10L163.19,153.91"/><path d="M163.26,151.63L170.20,158.75"/><path d="M170.28,161.13L170.20,161.03L170.28,161.13"/><path d="M172.93,157.93L172.88,157.86L172.93,157.93L172.79,160.34L170.30,161.13"/><path d="M170.20,161.03L170.31,158.68L170.40,158.60L170.83,158.47L172.72,160.39"/><path d="M170.41,158.50L172.84,157.77"/><path d="M172.82,160.26L171.01,158.41L172.86,157.86"/><path d="M170.84,158.47L171.01,158.41"/></g><g style="stroke:#000000;stroke-width:0.173"><path d="M139.63,129.51L128.40,117.85L128.32,115.79L128.41,115.61L130.54,115.11L130.67,115.15L172.99,157.80L172.88,160.35L172.71,160.48L170.18,161.22L163.17,153.96"/><path d="M149.03,139.27L141.86,131.83"/><path d="M159.86,150.52L152.37,142.74"/></g></g><g id="Actor_11.0"><g style="stroke:#000000;stroke-width:0.025"><path d="M94.93,143.62L94.79,141.78L94.11,140.75"/><path d="M94.89,143.51L94.89,143.51"/><path d="M94.88,143.50L94.28,142.57L94.13,140.91L94.17,140.88L94.13,140.91"/><path d="M94.91,143.50L94.83,142.48L94.30,142.62"/><path d="M94.26,142.48L94.82,142.33L94.76,141.78L94.18,140.90"/><path d="M94.82,142.33L94.83,142.48"/><path d="M94.82,141.94L142.30,130.12"/><path d="M94.15,140.78L141.46,129.09"/><path d="M94.74,141.66L142.21,129.86"/><path d="M94.95,143.51L142.31,131.62"/><path d="M142.26,131.73L142.27,131.72"/></g><g style="stroke:#000000;stroke-width:0.173"><path d="M94.48,142.98L94.91,143.61L142.27,131.72L142.30,131.65L142.28,129.98L142.23,129.88L141.43,129.07L94.11,140.75L94.23,142.49L94.29,142.69L94.48,142.98"/></g></g><g id="Actor_12.0"><g style="stroke:#000000;stroke-width:0.025"><path d="M179.71,137.90L179.73,137.90L179.68,137.87"/><path d="M209.81,129.54L179.72,137.79L179.65,137.77"/><path d="M179.72,137.79L181.08,138.99L181.17,139.19"/><path d="M179.73,137.90L180.49,138.59"/><path d="M180.62,138.70L180.51,138.58"/><path d="M180.64,138.70L181.11,139.13"/><path d="M202.05,133.49L181.24,139.25"/><path d="M211.29,130.63L181.08,138.99"/><path d="M201.97,134.38L182.02,139.94"/><path d="M205.32,133.45L211.30,131.78"/><path d="M211.39,130.89L204.49,132.81"/></g><g style="stroke:#000000;stroke-width:0.173"><path d="M205.40,133.51L211.24,131.88L211.30,131.81L211.37,131.10L211.39,130.87L211.36,130.72L211.29,130.63L209.81,129.54L209.73,129.52L179.65,137.77L179.61,137.81"/><path d="M201.98,134.46L182.09,140.01"/></g></g><g id="Actor_13.0"><g style="stroke:#000000;stroke-width:0.025"><path d="M160.29,144.99L160.25,144.88L160.19,144.77L158.93,143.50L158.86,143.47"/><path d="M159.64,144.34L159.66,144.33L158.94,143.61L158.92,143.61"/><path d="M159.76,144.46L159.78,144.46L159.66,144.33"/><path d="M158.92,143.50L177.19,138.49"/><path d="M158.88,143.58L158.94,143.61"/><path d="M160.23,144.93L160.19,144.86L159.78,144.46"/><path d="M160.19,144.77L178.54,139.70"/><path d="M178.59,140.89L166.42,144.28"/><path d="M178.64,139.97L166.96,143.21"/><path d="M177.12,138.46L177.12,138.46"/></g><g style="stroke:#000000;stroke-width:0.173"><path d="M166.36,144.39L178.54,141.00L178.57,140.96L178.59,140.89L178.64,139.97L178.62,139.83L178.54,139.70L177.19,138.49L177.12,138.46L158.86,143.47L158.82,143.52"/></g></g><g id="Actor_14.0"><g style="stroke:#000000;stroke-width:0.025"><path d="M163.11,151.29L138.08,158.48L134.58,157.80L161.87,150.02"/><path d="M144.18,157.21L138.52,158.85L138.54,161.02L144.54,159.27"/><path d="M163.26,151.71L146.46,156.55"/><path d="M147.38,154.67L147.23,154.77L147.18,154.89L147.23,155.02L147.38,155.12L147.59,155.17L147.81,155.16L148.01,155.09L148.10,155.02L148.14,154.94L148.14,154.85L148.10,154.77L147.95,154.67L147.66,154.62L147.38,154.67"/><path d="M147.19,154.96L147.27,154.87L147.44,154.78L147.44,154.65"/><path d="M163.20,153.84L147.96,158.28"/><path d="M147.44,154.78L147.66,154.75L147.88,154.79L148.06,154.87L148.13,154.97"/><path d="M163.12,153.99L163.12,153.99"/></g><g style="stroke:#000000;stroke-width:0.173"><path d="M134.43,157.77L161.79,149.98L161.87,150.02L163.11,151.29L163.19,151.41L163.26,151.71L163.20,153.84L163.15,153.98L148.05,158.38"/><path d="M144.63,159.38L138.54,161.15"/></g></g><g id="Actor_15.0"><g style="stroke:#000000;stroke-width:0.025"><path d="M103.80,155.69L103.85,155.68L103.80,155.69L102.37,153.53L102.32,153.36L103.14,153.14L102.29,151.87L102.23,151.89L102.24,151.81L102.29,151.87"/><path d="M102.32,153.36L102.23,151.89"/><path d="M102.39,153.57L103.28,153.33L103.74,154.07L103.85,155.68"/><path d="M102.20,151.66L103.72,153.89L103.80,154.21L103.90,155.72L122.20,150.77"/><path d="M102.26,151.70L150.95,138.82"/><path d="M103.81,154.24L122.14,149.32"/><path d="M103.28,153.33L103.14,153.14"/><path d="M103.68,153.81L152.75,140.67"/><path d="M103.90,155.72L103.88,155.87"/><path d="M147.51,142.51L124.40,148.72"/><path d="M147.50,143.93L125.35,149.92"/><path d="M150.70,143.06L152.87,142.48"/><path d="M152.89,141.07L149.64,141.94"/><path d="M152.80,142.62L152.81,142.62"/></g><g style="stroke:#000000;stroke-width:0.173"><path d="M122.22,150.90L103.88,155.87L102.40,153.70L102.27,153.31L102.18,151.68L150.87,138.79L150.95,138.82L152.80,140.74L152.89,141.03L152.87,142.48L152.81,142.62L150.80,143.17"/><path d="M147.51,144.06L125.44,150.03"/></g></g><g id="Actor_16.0"><g style="stroke:#000000;stroke-width:0.025"><path d="M122.21,150.86L125.62,155.26"/><path d="M126.88,155.33L122.14,149.25"/><path d="M122.20,150.77L122.20,150.77"/><path d="M122.34,149.01L127.23,155.26L127.10,155.27L127.00,155.33"/><path d="M122.14,149.32L122.14,149.32"/><path d="M124.10,148.52L129.62,155.48L128.43,155.35L127.23,155.26"/><path d="M124.29,148.57L124.30,148.59"/><path d="M128.33,155.44L128.33,155.44"/><path d="M128.28,155.43L128.72,155.48"/><path d="M129.50,155.56L129.64,155.58"/><path d="M129.62,155.48L129.71,155.50L129.85,155.58"/></g><g style="stroke:#000000;stroke-width:0.173"><path d="M122.20,150.77L122.21,150.87L122.23,150.93L122.26,150.97L125.58,155.26"/><path d="M122.20,150.77L122.14,149.32"/><path d="M124.29,148.57L124.22,148.53L124.10,148.52L122.34,149.01L122.24,149.05L122.17,149.13L122.14,149.24L122.14,149.32"/><path d="M124.30,148.59L129.87,155.61"/></g></g><g id="Actor_17.0"><g style="stroke:#000000;stroke-width:0.025"><path d="M107.58,161.28L107.57,161.30L107.55,161.29L107.58,161.25L107.51,160.05L106.79,160.24L106.76,160.18L106.65,158.39L106.69,158.43L106.65,158.44"/><path d="M106.75,160.10L107.50,159.89L107.45,159.47L107.11,159.00L107.10,158.90L107.43,159.34L107.51,159.55L107.63,161.32L107.62,161.41L107.59,161.42"/><path d="M106.79,160.24L107.55,161.29"/><path d="M106.69,158.43L107.02,158.87L107.01,158.77L106.62,158.27"/><path d="M107.01,158.77L107.82,158.55L107.83,158.65L107.94,158.65L107.98,158.62L107.98,158.58L107.91,158.54L107.82,158.55"/><path d="M107.10,158.90L107.94,158.65"/><path d="M107.02,158.87L107.83,158.65"/><path d="M106.67,158.30L111.80,156.89L111.76,156.86"/><path d="M107.63,161.32L112.70,159.90L112.67,160.00"/><path d="M107.50,159.89L107.51,160.05"/><path d="M107.53,159.65L112.62,158.24L112.70,159.90L114.39,159.47L116.10,159.11L117.85,158.82L119.60,158.60L121.37,158.46L123.14,158.39L124.91,158.39L126.67,158.47L128.40,158.62L130.11,158.84L131.79,159.14L133.42,159.51L133.44,159.58L133.47,159.61"/><path d="M107.43,159.34L112.52,157.93L114.22,157.50L115.97,157.14L117.73,156.85L119.51,156.63L121.30,156.49L123.09,156.42L124.88,156.42L126.65,156.50L128.40,156.65L130.14,156.87L131.83,157.17L133.49,157.53L133.40,157.74L133.39,157.85L131.75,157.48L130.07,157.19L128.36,156.97L126.62,156.82L125.05,156.75L123.09,156.74L121.31,156.81L119.54,156.95L117.77,157.17L116.03,157.45L114.31,157.81L112.62,158.24L112.52,157.93"/><path d="M111.80,156.89L113.49,156.47L115.21,156.10L116.95,155.80L118.71,155.57L120.48,155.40L122.26,155.30L124.04,155.27L125.80,155.30L127.56,155.40L129.29,155.57L131.00,155.81L132.68,156.11L134.32,156.47L136.45,157.06L136.57,157.05"/><path d="M134.14,157.72L133.95,157.85L133.90,157.98L133.39,157.85L133.42,159.51L133.93,159.63L133.98,159.73L134.04,159.76"/><path d="M133.93,159.63L133.90,157.98"/><path d="M133.49,157.53L134.16,157.71L134.15,157.72"/><path d="M134.12,159.62L134.08,159.62L134.12,159.65"/><path d="M134.08,159.62L134.05,158.33L134.09,158.34"/><path d="M134.16,157.71L136.45,157.06"/><path d="M134.05,158.33L134.05,158.20L134.09,158.19"/><path d="M134.39,157.76L136.42,157.17L136.48,157.19"/><path d="M134.39,157.75L134.36,157.76"/><path d="M134.05,158.18L134.04,157.94L134.09,157.86"/><path d="M134.32,156.47L134.37,156.44"/><path d="M136.42,157.17L136.55,157.17"/></g><g style="stroke:#000000;stroke-width:0.173"><path d="M136.70,157.13L136.66,157.08L136.58,157.05L135.52,156.74L134.37,156.44L132.72,156.07L131.04,155.77L129.32,155.53L127.58,155.37L125.82,155.26L124.04,155.23L122.26,155.26L120.48,155.36L118.70,155.53L116.93,155.76L115.18,156.06L113.45,156.43L111.76,156.86L106.62,158.27L106.60,158.38L106.72,160.17L106.80,160.35L107.59,161.42L112.67,160.00L114.36,159.57L116.08,159.21L117.83,158.92L119.60,158.70L121.37,158.56L123.15,158.49L124.93,158.49L126.69,158.57L128.43,158.72L130.15,158.94L131.83,159.24L134.04,159.76L134.12,159.75"/></g></g><g id="Actor_18.0"><g style="stroke:#000000;stroke-width:0.025"><path d="M144.18,158.78L149.89,165.51L149.90,165.56L149.93,165.61"/><path d="M144.22,158.88L144.22,158.89"/><path d="M149.89,165.51L149.91,163.79L149.93,163.72L149.97,163.67L150.03,163.62L150.13,163.57L144.38,156.88"/><path d="M149.90,163.82L144.18,157.13"/><path d="M150.13,163.57L152.03,163.12L146.16,156.37"/><path d="M150.11,165.55L150.07,165.55L150.02,165.53L150.00,165.49L150.00,165.42L150.11,165.55L152.01,165.10L152.09,165.05L152.12,164.97L152.14,163.29L152.12,163.24L152.08,163.22L152.14,163.29"/><path d="M152.12,164.97L150.85,163.50L150.12,163.67L150.06,163.70L150.03,163.74L150.01,163.79L150.00,165.42"/><path d="M150.67,163.54L152.01,165.10"/><path d="M150.85,163.50L152.03,163.22L152.08,163.22"/><path d="M152.03,163.12L152.13,163.12L152.21,163.16"/></g><g style="stroke:#000000;stroke-width:0.173"><path d="M144.94,159.73L144.22,158.88L144.18,158.81L144.18,157.14L144.20,157.04L144.26,156.95L144.32,156.91L144.38,156.88L146.16,156.37L146.22,156.36L146.28,156.37L146.33,156.40L152.23,163.18L152.25,163.26L152.23,164.95L152.22,165.01L152.18,165.07L152.11,165.15L152.01,165.19L150.11,165.65L150.01,165.65L149.95,165.63L144.94,159.73"/></g></g><g id="Actor_22.1"><g style="stroke:#000000;stroke-width:0.025"><path d="M156.19,146.79L156.19,146.81L156.20,146.83L156.21,146.85L156.23,146.87L156.20,148.16"/><path d="M156.23,146.87L157.39,148.08L157.36,149.37"/><path d="M157.59,148.17L157.53,148.16L157.47,148.13L157.43,148.11L157.39,148.08"/><path d="M157.78,149.45L157.80,148.38"/></g><g style="stroke:#000000;stroke-width:0.173"><path d="M156.21,146.73L156.20,146.76L156.19,146.79L156.17,148.07L156.17,148.10L156.18,148.12L156.19,148.14L156.20,148.16L157.36,149.37L157.41,149.41L157.44,149.43L157.51,149.45L157.58,149.46L157.62,149.47L157.70,149.46L157.78,149.45L158.60,149.22"/></g></g><g id="Actor_22.2"><g style="stroke:#000000;stroke-width:0.025"><path d="M166.53,158.97L166.58,157.63L167.87,158.97L167.82,160.32"/><path d="M166.58,157.63L166.56,157.61L166.55,157.58L166.54,157.56L166.54,157.54"/><path d="M168.27,160.40L168.31,159.29"/><path d="M168.09,159.07L168.03,159.06L167.96,159.03L167.93,159.02L167.90,159.00L167.87,158.97"/></g><g style="stroke:#000000;stroke-width:0.173"><path d="M169.12,160.14L168.27,160.40L168.19,160.42L168.10,160.42L168.02,160.41L167.98,160.40L167.94,160.39L167.88,160.36L167.82,160.32L166.53,158.97L166.52,158.94L166.50,158.92L166.49,158.90L166.49,158.87L166.54,157.54L166.54,157.51L166.56,157.48"/></g></g><g id="Actor_20.1"><g style="stroke:#000000;stroke-width:0.025"><path d="M183.52,99.51L183.56,99.55L183.43,101.83L183.44,101.90L183.48,101.95L183.47,102.03"/><path d="M184.49,101.73L183.48,101.95L184.09,102.38L185.11,102.16"/><path d="M184.45,101.61L183.43,101.83L183.38,101.80"/><path d="M184.09,102.38L184.09,102.47"/><path d="M184.17,99.74L184.22,99.76L184.25,99.88L184.22,100.32L184.18,100.46L184.07,100.56L183.94,100.59L183.85,100.53L183.85,100.52"/><path d="M183.56,99.55L184.58,99.33"/><path d="M184.22,100.32L184.17,100.29"/><path d="M184.20,99.85L184.25,99.88"/></g><g style="stroke:#000000;stroke-width:0.173"><path d="M183.39,101.89L183.43,101.98L183.47,102.03L184.09,102.47L185.10,102.24L185.11,102.16L184.49,101.73L184.46,101.68L184.45,101.61L184.58,99.33L184.53,99.29L183.52,99.51L183.38,101.80L183.39,101.89"/><path d="M183.98,100.53L183.90,100.55L183.85,100.52L183.82,100.41L183.84,99.97L183.89,99.84L183.99,99.73L184.12,99.71L184.17,99.74L184.20,99.85L184.17,100.29L184.13,100.42L184.02,100.52L183.98,100.53"/></g></g><g id="Actor_22.3"><g style="stroke:#000000;stroke-width:0.025"><path d="M172.95,108.75L173.00,107.69"/><path d="M171.95,107.98L171.96,107.93"/><path d="M173.29,108.80L173.34,107.71L173.28,107.72L173.18,107.72L173.12,107.71L173.04,107.68"/><path d="M173.94,107.48L173.94,107.51"/><path d="M173.34,107.71L175.01,107.33L175.06,107.31L175.10,107.29L175.12,107.27L175.13,107.25L175.13,107.24"/><path d="M174.99,107.24L174.99,107.26L174.95,107.28L173.90,107.52"/><path d="M174.96,108.42L175.01,107.33"/><path d="M175.01,107.24L175.00,107.25L174.99,107.26"/></g><g style="stroke:#000000;stroke-width:0.173"><path d="M175.12,107.21L175.13,107.24L175.08,108.33L175.07,108.36L175.05,108.38L175.01,108.40L174.96,108.42L173.29,108.80L173.23,108.81L173.14,108.81L173.04,108.80L172.99,108.78L172.97,108.77L171.95,107.98L171.93,107.96L171.92,107.94"/><path d="M173.90,107.52L173.86,107.51L173.83,107.50"/><path d="M173.16,107.66L173.20,107.66L173.23,107.66L173.27,107.66L173.90,107.52"/></g></g><g id="Actor_21.1"><g style="stroke:#000000;stroke-width:0.025"><path d="M160.59,127.57L160.61,126.64"/><path d="M161.65,128.55L161.69,127.05L161.10,126.52"/><path d="M161.89,127.13L161.82,127.11L161.76,127.09L161.73,127.08L161.71,127.07L161.69,127.05"/><path d="M162.02,128.61L162.06,127.28"/></g><g style="stroke:#000000;stroke-width:0.173"><path d="M160.58,126.65L160.55,127.51L160.56,127.52L160.56,127.54L160.57,127.56L160.59,127.57L161.67,128.56L161.72,128.59L161.75,128.60L161.81,128.61L161.90,128.62L161.95,128.62L161.99,128.61L163.19,128.31"/></g></g><g id="Actor_22.4"><g style="stroke:#000000;stroke-width:0.025"><path d="M141.77,131.85L142.28,132.38L142.29,133.60"/><path d="M141.30,132.57L141.30,131.97"/><path d="M141.27,132.52L141.27,132.52"/><path d="M142.66,133.67L142.66,132.66"/><path d="M142.28,132.38L142.30,132.40L142.32,132.41L142.35,132.42L142.38,132.44L142.41,132.45L142.46,132.45"/></g><g style="stroke:#000000;stroke-width:0.173"><path d="M143.44,133.47L142.66,133.67L142.59,133.68L142.52,133.68L142.45,133.67L142.38,133.66L142.35,133.65L142.33,133.63L142.30,133.62L142.29,133.60L141.30,132.57L141.29,132.55L141.28,132.54L141.27,132.52L141.27,131.98"/></g></g><g id="Actor_12.1"><g style="stroke:#000000;stroke-width:0.025"><path d="M163.35,123.38L163.41,123.40L164.57,124.42L164.65,124.61"/><path d="M164.17,124.18L163.42,123.51"/><path d="M163.38,123.48L163.44,123.51"/><path d="M191.98,116.35L163.41,123.40"/><path d="M193.35,117.53L164.72,124.66"/><path d="M164.29,124.29L164.60,124.55"/><path d="M164.57,124.42L193.25,117.29"/><path d="M164.19,124.18L164.31,124.28"/><path d="M193.28,118.37L165.48,125.33"/></g><g style="stroke:#000000;stroke-width:0.173"><path d="M165.56,125.40L193.23,118.47L193.28,118.37L193.35,117.53L193.33,117.42L193.25,117.29L191.93,116.33L163.35,123.38L163.32,123.43"/></g></g><g id="Actor_13.1"><g style="stroke:#000000;stroke-width:0.025"><path d="M143.73,128.23L143.78,128.24L144.86,129.33L144.91,129.41L144.94,129.53"/><path d="M144.48,129.07L144.51,129.06L143.80,128.36L143.78,128.36"/><path d="M143.78,128.24L161.02,123.99"/><path d="M143.75,128.33L143.77,128.32L143.80,128.36"/><path d="M162.26,125.28L144.99,129.58"/><path d="M144.86,129.33L162.17,125.02"/><path d="M144.60,129.18L144.62,129.17L144.86,129.41L144.89,129.47"/><path d="M144.62,129.17L144.51,129.06"/><path d="M162.23,126.14L145.69,130.29"/></g><g style="stroke:#000000;stroke-width:0.173"><path d="M143.70,128.28L143.73,128.23L143.99,128.16L160.97,123.97L161.01,123.99L162.17,125.02L162.23,125.13L162.26,125.27L162.23,126.14L162.22,126.21L162.19,126.25L145.77,130.36"/></g></g><g id="Actor_19.1"><g style="stroke:#000000;stroke-width:0.025"><path d="M188.43,120.69L188.50,119.65"/><path d="M189.60,121.59L189.75,119.34"/><path d="M189.97,121.65L190.13,119.32L190.07,119.33L190.00,119.33L189.93,119.33L189.86,119.31"/><path d="M190.13,119.32L191.90,118.88L191.95,118.86L191.99,118.83L192.00,118.82L192.01,118.79"/><path d="M191.73,121.20L191.90,118.88"/></g><g style="stroke:#000000;stroke-width:0.173"><path d="M192.01,118.77L191.85,121.11L191.83,121.14L191.82,121.16L191.78,121.18L191.73,121.20L189.97,121.65L189.87,121.66L189.80,121.66L189.70,121.64L189.62,121.60L188.43,120.69L188.40,120.66L188.40,120.64L188.39,120.61L188.45,119.67"/></g></g><g><g><path style="stroke:#000000;stroke-width:0.350;stroke-dasharray:3.1 2.0 1.0 2.0" d="M145.53,113.79L145.65,38.84"/></g></g><g id="PMI20.0"><g><path style="stroke:#000000;stroke-width:0.350" d="M199.37,91.14L199.34,95.20"/></g><g><path style="fill:#000000" d="M198.33,95.19L200.33,95.21L199.32,97.20z"/></g><g><path style="fill:#ffffff" d="M189.17,91.14L209.60,91.14L209.60,84.93L189.17,84.93z"/><path style="stroke:#000000;stroke-width:0.350;stroke-opacity:0.98" d="M189.17,91.14L209.60,91.14L209.60,84.93L189.17,84.93z"/><text xml:space="preserve" fill="#000000" stroke-width="0" x="189.94" y="89.40" font-size="3.78" opacity="1.00" font-family="MS Shell Dlg">020146681</text></g></g><g id="PMI22.0"><g><path style="stroke:#000000;stroke-width:0.350" d="M175.05,97.79L174.93,106.37"/></g><g><path style="fill:#000000" d="M173.93,106.36L175.93,106.38L174.90,108.37z"/></g><g><path style="fill:#ffffff" d="M164.86,97.79L185.30,97.79L185.30,91.58L164.86,91.58z"/><path style="stroke:#000000;stroke-width:0.350;stroke-opacity:0.98" d="M164.86,97.79L185.30,97.79L185.30,91.58L164.86,91.58z"/><text xml:space="preserve" fill="#000000" stroke-width="0" x="165.64" y="96.05" font-size="3.78" opacity="1.00" font-family="MS Shell Dlg">010047781</text></g></g><g id="PMI19.0"><g><path style="stroke:#000000;stroke-width:0.350" d="M210.42,121.56L191.72,121.57"/></g><g><path style="fill:#000000" d="M191.71,120.56L191.71,122.56L189.71,121.56z"/></g><g><path style="fill:#ffffff" d="M210.40,124.65L230.84,124.65L230.84,118.45L210.40,118.45z"/><path style="stroke:#000000;stroke-width:0.350;stroke-opacity:0.98" d="M210.40,124.65L230.84,124.65L230.84,118.45L210.40,118.45z"/><text xml:space="preserve" fill="#000000" stroke-width="0" x="211.17" y="122.91" font-size="3.78" opacity="1.00" font-family="MS Shell Dlg">010047761</text></g></g><g id="PMI10.0"><g><path style="stroke:#000000;stroke-width:0.350" d="M131.07,110.07L131.06,115.57"/></g><g><path style="fill:#000000" d="M130.06,115.57L132.06,115.57L131.06,117.57z"/></g><g><path style="fill:#ffffff" d="M120.86,110.07L141.30,110.07L141.30,103.86L120.86,103.86z"/><path style="stroke:#000000;stroke-width:0.350;stroke-opacity:0.98" d="M120.86,110.07L141.30,110.07L141.30,103.86L120.86,103.86z"/><text xml:space="preserve" fill="#000000" stroke-width="0" x="121.64" y="108.33" font-size="3.78" opacity="1.00" font-family="MS Shell Dlg">010047671</text></g></g><g id="PMI21.0"><g><path style="stroke:#000000;stroke-width:0.350" d="M164.00,132.78L163.92,130.06"/></g><g><path style="fill:#000000" d="M164.92,130.03L162.92,130.09L163.86,128.06z"/></g><g><path style="fill:#ffffff" d="M153.86,138.98L174.30,138.98L174.30,132.77L153.86,132.77z"/><path style="stroke:#000000;stroke-width:0.350;stroke-opacity:0.98" d="M153.86,138.98L174.30,138.98L174.30,132.77L153.86,132.77z"/><text xml:space="preserve" fill="#000000" stroke-width="0" x="154.64" y="137.23" font-size="3.78" opacity="1.00" font-family="MS Shell Dlg">010047771</text></g></g><g id="PMI6.0"><g><path style="stroke:#000000;stroke-width:0.350" d="M157.70,29.74L157.73,35.54"/></g><g><path style="fill:#000000" d="M156.73,35.55L158.73,35.54L157.73,37.55z"/></g><g><path style="fill:#ffffff" d="M147.47,29.75L167.91,29.75L167.91,23.54L147.47,23.54z"/><path style="stroke:#000000;stroke-width:0.350;stroke-opacity:0.98" d="M147.47,29.75L167.91,29.75L167.91,23.54L147.47,23.54z"/><text xml:space="preserve" fill="#000000" stroke-width="0" x="148.24" y="28.00" font-size="3.78" opacity="1.00" font-family="MS Shell Dlg">350630611</text></g></g><g id="PMI7.0"><g><path style="stroke:#000000;stroke-width:0.350" d="M88.57,118.26L88.50,123.52"/></g><g><path style="fill:#000000" d="M87.51,123.51L89.51,123.53L88.48,125.52z"/></g><g><path style="fill:#ffffff" d="M78.40,118.26L98.84,118.26L98.84,112.05L78.40,112.05z"/><path style="stroke:#000000;stroke-width:0.350;stroke-opacity:0.98" d="M78.40,118.26L98.84,118.26L98.84,112.05L78.40,112.05z"/><text xml:space="preserve" fill="#000000" stroke-width="0" x="79.17" y="116.51" font-size="3.78" opacity="1.00" font-family="MS Shell Dlg">010047641</text></g></g><g id="PMI13.0"><g><path style="stroke:#000000;stroke-width:0.350" d="M148.49,121.58L148.50,126.34"/></g><g><path style="fill:#000000" d="M147.50,126.34L149.50,126.34L148.50,128.34z"/></g><g><path style="fill:#ffffff" d="M138.26,121.58L158.70,121.58L158.70,115.38L138.26,115.38z"/><path style="stroke:#000000;stroke-width:0.350;stroke-opacity:0.98" d="M138.26,121.58L158.70,121.58L158.70,115.38L138.26,115.38z"/><text xml:space="preserve" fill="#000000" stroke-width="0" x="139.03" y="119.84" font-size="3.78" opacity="1.00" font-family="MS Shell Dlg">010047701</text></g></g><g id="PMI23.0"><g><path style="stroke:#000000;stroke-width:0.350" d="M112.38,129.51L115.11,129.58"/></g><g><path style="fill:#000000" d="M115.10,130.57L115.15,128.57L117.12,129.63z"/></g><g><path style="fill:#ffffff" d="M91.96,132.33L112.40,132.33L112.40,126.12L91.96,126.12z"/><path style="stroke:#000000;stroke-width:0.350;stroke-opacity:0.98" d="M91.96,132.33L112.40,132.33L112.40,126.12L91.96,126.12z"/><text xml:space="preserve" fill="#000000" stroke-width="0" x="92.73" y="130.58" font-size="3.78" opacity="1.00" font-family="MS Shell Dlg">020146691</text></g></g><g id="PMI12.0"><g><path style="stroke:#000000;stroke-width:0.350" d="M184.51,131.05L184.44,135.58"/></g><g><path style="fill:#000000" d="M183.44,135.56L185.44,135.59L184.41,137.57z"/></g><g><path style="fill:#ffffff" d="M174.33,131.05L194.77,131.05L194.77,124.84L174.33,124.84z"/><path style="stroke:#000000;stroke-width:0.350;stroke-opacity:0.98" d="M174.33,131.05L194.77,131.05L194.77,124.84L174.33,124.84z"/><text xml:space="preserve" fill="#000000" stroke-width="0" x="175.10" y="129.30" font-size="3.78" opacity="1.00" font-family="MS Shell Dlg">010047691</text></g></g><g id="PMI8.0"><g><path style="stroke:#000000;stroke-width:0.350" d="M229.85,139.14L226.68,139.13"/></g><g><path style="fill:#000000" d="M226.68,138.12L226.67,140.12L224.67,139.11z"/></g><g><path style="fill:#ffffff" d="M229.84,142.30L250.28,142.30L250.28,136.10L229.84,136.10z"/><path style="stroke:#000000;stroke-width:0.350;stroke-opacity:0.98" d="M229.84,142.30L250.28,142.30L250.28,136.10L229.84,136.10z"/><text xml:space="preserve" fill="#000000" stroke-width="0" x="230.62" y="140.56" font-size="3.78" opacity="1.00" font-family="MS Shell Dlg">010047651</text></g></g><g id="PMI11.0"><g><path style="stroke:#000000;stroke-width:0.350" d="M89.35,141.68L92.73,141.73"/></g><g><path style="fill:#000000" d="M92.73,142.72L92.76,140.72L94.75,141.75z"/></g><g><path style="fill:#ffffff" d="M68.93,144.61L89.37,144.61L89.37,138.40L68.93,138.40z"/><path style="stroke:#000000;stroke-width:0.350;stroke-opacity:0.98" d="M68.93,144.61L89.37,144.61L89.37,138.40L68.93,138.40z"/><text xml:space="preserve" fill="#000000" stroke-width="0" x="69.71" y="142.86" font-size="3.78" opacity="1.00" font-family="MS Shell Dlg">010047681</text></g></g><g id="PMI24.0"><g><path style="stroke:#000000;stroke-width:0.350" d="M216.77,150.17L216.75,146.25"/></g><g><path style="fill:#000000" d="M217.74,146.23L215.74,146.25L216.72,144.24z"/></g><g><path style="fill:#ffffff" d="M206.56,156.37L227.00,156.37L227.00,150.17L206.56,150.17z"/><path style="stroke:#000000;stroke-width:0.350;stroke-opacity:0.98" d="M206.56,156.37L227.00,156.37L227.00,150.17L206.56,150.17z"/><text xml:space="preserve" fill="#000000" stroke-width="0" x="207.34" y="154.63" font-size="3.78" opacity="1.00" font-family="MS Shell Dlg">010047791</text></g></g><g id="PMI14.0"><g><path style="stroke:#000000;stroke-width:0.350" d="M155.65,167.32L155.68,152.41"/></g><g><path style="fill:#000000" d="M156.68,152.40L154.68,152.39L155.68,150.40z"/></g><g><path style="fill:#ffffff" d="M145.42,173.51L165.86,173.51L165.86,167.31L145.42,167.31z"/><path style="stroke:#000000;stroke-width:0.350;stroke-opacity:0.98" d="M145.42,173.51L165.86,173.51L165.86,167.31L145.42,167.31z"/><text xml:space="preserve" fill="#000000" stroke-width="0" x="146.20" y="171.77" font-size="3.78" opacity="1.00" font-family="MS Shell Dlg">010047711</text></g></g><g id="PMI9.0"><g><path style="stroke:#000000;stroke-width:0.350" d="M192.95,161.18L192.86,154.39"/></g><g><path style="fill:#000000" d="M193.85,154.36L191.85,154.39L192.82,152.38z"/></g><g><path style="fill:#ffffff" d="M182.77,167.37L203.21,167.37L203.21,161.17L182.77,161.17z"/><path style="stroke:#000000;stroke-width:0.350;stroke-opacity:0.98" d="M182.77,167.37L203.21,167.37L203.21,161.17L182.77,161.17z"/><text xml:space="preserve" fill="#000000" stroke-width="0" x="183.55" y="165.63" font-size="3.78" opacity="1.00" font-family="MS Shell Dlg">010047661</text></g></g><g id="PMI16.0"><g><path style="stroke:#000000;stroke-width:0.350" d="M126.47,143.85L126.45,151.48"/></g><g><path style="fill:#000000" d="M125.45,151.47L127.45,151.48L126.44,153.47z"/></g><g><path style="fill:#ffffff" d="M116.26,143.84L136.70,143.84L136.70,137.63L116.26,137.63z"/><path style="stroke:#000000;stroke-width:0.350;stroke-opacity:0.98" d="M116.26,143.84L136.70,143.84L136.70,137.63L116.26,137.63z"/><text xml:space="preserve" fill="#000000" stroke-width="0" x="117.03" y="142.09" font-size="3.78" opacity="1.00" font-family="MS Shell Dlg">010047731</text></g></g><g id="PMI15.0"><g><path style="stroke:#000000;stroke-width:0.350" d="M98.05,154.00L101.67,153.97"/></g><g><path style="fill:#000000" d="M101.69,154.96L101.68,152.96L103.69,153.95z"/></g><g><path style="fill:#ffffff" d="M77.63,157.14L98.07,157.14L98.07,150.93L77.63,150.93z"/><path style="stroke:#000000;stroke-width:0.350;stroke-opacity:0.98" d="M77.63,157.14L98.07,157.14L98.07,150.93L77.63,150.93z"/><text xml:space="preserve" fill="#000000" stroke-width="0" x="78.41" y="155.40" font-size="3.78" opacity="1.00" font-family="MS Shell Dlg">010047721</text></g></g><g id="PMI.0"><g><path style="stroke:#000000;stroke-width:0.350" d="M137.99,151.52L137.98,156.87"/></g><g><path style="fill:#000000" d="M136.99,156.86L138.99,156.86L137.98,158.86z"/></g><g><path style="fill:#ffffff" d="M127.77,151.51L148.21,151.51L148.21,145.31L127.77,145.31z"/><path style="stroke:#000000;stroke-width:0.350;stroke-opacity:0.98" d="M127.77,151.51L148.21,151.51L148.21,145.31L127.77,145.31z"/><text xml:space="preserve" fill="#000000" stroke-width="0" x="128.55" y="149.77" font-size="3.78" opacity="1.00" font-family="MS Shell Dlg">020133361</text></g></g><g id="PMI17.0"><g><path style="stroke:#000000;stroke-width:0.350" d="M108.79,164.50L108.76,161.38"/></g><g><path style="fill:#000000" d="M109.77,161.36L107.77,161.38L108.75,159.37z"/></g><g><path style="fill:#ffffff" d="M98.61,170.70L119.05,170.70L119.05,164.49L98.61,164.49z"/><path style="stroke:#000000;stroke-width:0.350;stroke-opacity:0.98" d="M98.61,170.70L119.05,170.70L119.05,164.49L98.61,164.49z"/><text xml:space="preserve" fill="#000000" stroke-width="0" x="99.38" y="168.95" font-size="3.78" opacity="1.00" font-family="MS Shell Dlg">010047741</text></g></g><g id="PMI4.0"><g><path style="stroke:#000000;stroke-width:0.350" d="M63.50,35.56L73.78,35.56"/></g><g><path style="fill:#000000" d="M73.81,36.59L73.81,34.59L75.81,35.59z"/></g><g><path style="fill:#ffffff" d="M43.10,38.70L63.54,38.70L63.54,32.49L43.10,32.49z"/><path style="stroke:#000000;stroke-width:0.350;stroke-opacity:0.98" d="M43.10,38.70L63.54,38.70L63.54,32.49L43.10,32.49z"/><text xml:space="preserve" fill="#000000" stroke-width="0" x="43.87" y="36.95" font-size="3.78" opacity="1.00" font-family="MS Shell Dlg">350630621</text></g></g><g id="PMI18.0"><g><path style="stroke:#000000;stroke-width:0.350" d="M144.63,165.70L148.00,165.57"/></g><g><path style="fill:#000000" d="M148.04,166.55L147.96,164.55L150.00,165.48z"/></g><g><path style="fill:#ffffff" d="M124.19,169.16L144.63,169.16L144.63,162.96L124.19,162.96z"/><path style="stroke:#000000;stroke-width:0.350;stroke-opacity:0.98" d="M124.19,169.16L144.63,169.16L144.63,162.96L124.19,162.96z"/><text xml:space="preserve" fill="#000000" stroke-width="0" x="124.97" y="167.42" font-size="3.78" opacity="1.00" font-family="MS Shell Dlg">010047751</text></g></g><g id="PMI3.0"><g><path style="stroke:#000000;stroke-width:0.350" d="M121.09,81.09L121.05,74.93"/></g><g><path style="fill:#000000" d="M122.06,74.93L120.06,74.94L121.04,72.93z"/></g><g><path style="fill:#ffffff" d="M110.89,87.30L131.33,87.30L131.33,81.10L110.89,81.10z"/><path style="stroke:#000000;stroke-width:0.350;stroke-opacity:0.98" d="M110.89,87.30L131.33,87.30L131.33,81.10L110.89,81.10z"/><text xml:space="preserve" fill="#000000" stroke-width="0" x="111.66" y="85.56" font-size="3.78" opacity="1.00" font-family="MS Shell Dlg">350630601</text></g></g><g id="PMI1.0"><g><path style="stroke:#000000;stroke-width:0.350" d="M169.99,70.46L153.32,70.61"/></g><g><path style="fill:#000000" d="M153.31,69.62L153.33,71.62L151.32,70.63z"/></g><g><path style="fill:#ffffff" d="M169.98,73.49L190.42,73.49L190.42,67.28L169.98,67.28z"/><path style="stroke:#000000;stroke-width:0.350;stroke-opacity:0.98" d="M169.98,73.49L190.42,73.49L190.42,67.28L169.98,67.28z"/><text xml:space="preserve" fill="#000000" stroke-width="0" x="170.76" y="71.74" font-size="3.78" opacity="1.00" font-family="MS Shell Dlg">350630631</text></g></g><g/><g id="paperID" visibility="hidden" opacity="0.00" transform="scale(0.000100)"><path style="stroke:#000000;stroke-width:0.500;fill:#e6e6e6;fill-rule:evenodd" d="M-2000.00,-2000.00L2297.00,-2000.00L2297.00,2210.00L-2000.00,2210.00zM0.00,0.00L297.00,0.00L297.00,210.00L0.00,210.00z"/><path style="fill:#000000;fill-opacity:0.118" d="M3.00,210.00L297.00,210.00L297.00,3.00L300.00,3.00L300.00,213.00L3.00,213.00z"/></g><g id="hotspot.0" onmouseover="ShowHotSpot(evt,'0')" onmouseout="HideHotSpot(evt,'0')" onmousemove="ShowToolTip(evt,'0',&quot;3dp1034930 (-)&quot;)" opacity="0"><path style="fill:#00ff00;fill-rule:evenodd" d="M157.91,70.27L169.53,70.27L169.76,67.44L190.51,67.35L190.51,73.60L169.68,73.60L169.53,70.94L157.92,70.93L157.97,71.17L159.06,71.94L158.48,72.48L158.46,72.99L137.71,76.57L136.54,76.55L136.27,76.31L127.07,75.32L125.28,75.28L119.61,70.92L119.55,70.69L120.91,70.26L121.08,69.41L150.25,64.81L158.00,63.76z"/></g><g id="hotspot.1" onmouseover="ShowHotSpot(evt,'1')" onmouseout="HideHotSpot(evt,'1')" onmousemove="ShowToolTip(evt,'1',&quot;3dp828603 (RHD)&quot;)" opacity="0"><path style="fill:#00ff00;fill-rule:evenodd" d="M120.56,110.18L120.65,104.02L141.39,103.94L141.39,110.18L131.31,110.33L131.05,115.47L131.89,115.69L131.90,116.46L150.61,135.13L151.89,136.67L172.86,157.65L172.77,160.49L170.99,161.01L169.78,160.99L168.77,159.69L163.38,154.34L163.14,151.26L161.88,150.00L160.74,150.26L159.55,150.24L152.55,142.81L152.89,142.42L152.90,141.02L151.63,139.48L151.12,138.98L148.80,138.99L143.19,133.35L142.07,131.83L142.16,129.77L141.65,129.26L139.34,129.27L135.26,124.90L129.89,119.53L128.86,118.26L128.59,118.01L128.51,115.72L130.63,115.02L130.65,110.33z"/></g><g id="hotspot.2" onmouseover="ShowHotSpot(evt,'2')" onmouseout="HideHotSpot(evt,'2')" onmousemove="ShowToolTip(evt,'2',&quot;3dp828604 (RHD)&quot;)" opacity="0"><path style="fill:#00ff00;fill-rule:evenodd" d="M142.16,129.77L142.15,131.66L141.84,131.86L96.03,143.35L94.75,143.42L94.04,142.31L92.98,142.40L92.75,142.08L89.61,142.05L89.46,144.72L68.63,144.72L68.71,138.55L89.46,138.47L89.61,141.39L92.76,141.35L93.27,140.99L94.06,141.35L94.25,140.82L140.53,129.27L141.65,129.26z"/></g><g id="hotspot.3" onmouseover="ShowHotSpot(evt,'3')" onmouseout="HideHotSpot(evt,'3')" onmousemove="ShowToolTip(evt,'3',&quot;3dp828605 (RHD)&quot;)" opacity="0"><path style="fill:#00ff00;fill-rule:evenodd" d="M193.33,117.50L193.31,118.35L193.00,118.56L166.37,125.19L165.17,125.17L163.30,123.38L191.19,116.48L192.04,116.46zM211.21,130.56L211.22,131.92L206.03,133.39L205.09,133.37L204.58,132.83L203.72,132.85L202.18,133.36L202.00,134.47L183.01,139.78L181.80,139.75L179.99,138.20L179.91,137.74L183.83,136.53L183.53,135.66L184.08,135.49L184.11,131.31L174.03,131.16L174.11,124.99L194.85,124.91L194.85,131.16L184.77,131.31L184.80,135.49L185.33,135.68L185.32,135.90L186.33,135.93L209.72,129.54z"/></g><g id="hotspot.4" onmouseover="ShowHotSpot(evt,'4')" onmouseout="HideHotSpot(evt,'4')" onmousemove="ShowToolTip(evt,'4',&quot;3dp828606 (RHD)&quot;)" opacity="0"><path style="fill:#00ff00;fill-rule:evenodd" d="M137.96,121.69L138.04,115.53L158.78,115.45L158.78,121.69L148.70,121.84L148.52,126.07L148.22,126.07L148.04,121.84zM162.12,124.89L162.10,126.29L146.93,130.05L145.48,130.03L143.87,128.25L147.72,127.23L147.67,126.47L149.30,126.50L149.72,126.75L160.23,124.15L161.08,124.14zM178.49,139.74L178.40,141.05L167.40,144.13L166.61,144.21L166.68,143.68L166.95,143.05L161.07,144.69L160.07,144.88L158.92,143.56L159.16,143.33L177.23,138.49z"/></g><g id="hotspot.5" onmouseover="ShowHotSpot(evt,'5')" onmouseout="HideHotSpot(evt,'5')" onmousemove="ShowToolTip(evt,'5',&quot;3dp828607 (RHD)&quot;)" opacity="0"><path style="fill:#00ff00;fill-rule:evenodd" d="M163.14,151.26L163.12,153.91L156.13,156.13L155.96,159.54L155.87,167.23L165.95,167.38L165.95,173.62L145.12,173.62L145.20,167.46L155.20,167.23L155.44,156.36L154.87,156.36L148.73,158.20L147.78,158.19L146.28,156.39L144.37,156.91L144.39,159.46L138.81,161.09L138.30,158.70L137.82,158.41L135.18,157.94L134.91,157.67L154.63,152.07L155.71,150.51L156.14,151.37L158.01,151.10L161.88,150.00z"/></g><g id="hotspot.6" onmouseover="ShowHotSpot(evt,'6')" onmouseout="HideHotSpot(evt,'6')" onmousemove="ShowToolTip(evt,'6',&quot;3dp828608 (RHD)&quot;)" opacity="0"><path style="fill:#00ff00;fill-rule:evenodd" d="M151.63,139.48L152.90,141.02L152.81,142.58L150.61,143.09L149.58,141.77L147.69,142.32L147.52,143.94L147.21,144.14L126.47,149.74L125.27,149.73L124.25,148.69L122.16,149.06L122.19,150.84L105.56,155.44L103.71,155.70L102.98,154.59L101.90,154.71L101.64,153.06L102.28,153.12L102.14,151.80L106.51,150.51L149.99,138.99L151.12,138.98zM98.31,153.67L101.52,153.85L101.52,154.15L98.31,154.33L98.16,157.25L77.33,157.25L77.41,151.09L98.16,151.01z"/></g><g id="hotspot.7" onmouseover="ShowHotSpot(evt,'7')" onmouseout="HideHotSpot(evt,'7')" onmousemove="ShowToolTip(evt,'7',&quot;3dp828609 (RHD)&quot;)" opacity="0"><path style="fill:#00ff00;fill-rule:evenodd" d="M115.96,143.95L116.04,137.78L136.78,137.70L136.78,143.95L126.70,144.10L126.72,151.35L127.31,151.55L127.30,152.53L129.63,155.37L127.82,155.37L125.52,155.10L122.46,151.26L122.06,149.20L122.33,148.95L124.25,148.69L125.54,150.24L126.05,150.59L126.04,144.10z"/></g><g id="hotspot.8" onmouseover="ShowHotSpot(evt,'8')" onmouseout="HideHotSpot(evt,'8')" onmousemove="ShowToolTip(evt,'8',&quot;3dp828610 (RHD)&quot;)" opacity="0"><path style="fill:#00ff00;fill-rule:evenodd" d="M134.22,156.39L136.53,157.17L134.14,157.93L133.96,159.56L128.33,158.69L119.55,158.69L115.97,159.20L111.89,160.23L109.62,160.99L109.64,161.23L109.08,161.51L109.05,164.41L119.13,164.56L119.13,170.81L98.31,170.81L98.39,164.65L108.39,164.41L108.38,161.50L107.36,161.25L106.86,160.47L106.84,158.26L114.69,156.13L120.32,155.37L127.82,155.37z"/></g><g id="hotspot.9" onmouseover="ShowHotSpot(evt,'9')" onmouseout="HideHotSpot(evt,'9')" onmousemove="ShowToolTip(evt,'9',&quot;3dp828611 (RHD)&quot;)" opacity="0"><path style="fill:#00ff00;fill-rule:evenodd" d="M152.14,163.02L152.13,165.17L149.85,165.63L148.29,166.48L147.88,165.25L148.03,164.55L149.35,165.15L149.10,164.54L144.45,159.20L144.37,156.91L146.28,156.39zM144.87,165.44L147.88,165.25L147.79,165.68L144.87,166.10L144.72,169.27L123.89,169.27L123.97,163.11L144.72,163.03z"/></g><g id="hotspot.10" onmouseover="ShowHotSpot(evt,'10')" onmouseout="HideHotSpot(evt,'10')" onmousemove="ShowToolTip(evt,'10',&quot;XNG SN CABIN 13&quot;)" opacity="0"><path style="fill:#00ff00;fill-rule:evenodd" d="M188.60,119.79L188.85,119.53L192.08,118.81L191.84,121.26L191.55,122.45L189.48,121.59L188.44,120.82zM191.93,121.68L191.84,121.26L209.95,121.18L210.18,118.60L230.92,118.52L230.92,124.76L210.10,124.76L209.95,121.84zM206.01,133.38L209.95,132.33L209.68,134.73L208.32,135.17L207.39,135.16L206.61,134.39L206.10,134.13z"/></g><g id="hotspot.11" onmouseover="ShowHotSpot(evt,'11')" onmouseout="HideHotSpot(evt,'11')" onmousemove="ShowToolTip(evt,'11',&quot;3dp1101472 (I_PAT KP NG DU NHIN LIU.37)&quot;)" opacity="0"><path style="fill:#00ff00;fill-rule:evenodd" d="M188.87,91.25L188.95,85.09L209.69,85.01L209.69,91.25L199.61,91.40L199.64,95.07L200.19,95.24L199.95,95.83L199.63,98.06L200.25,98.82L198.93,98.82L198.61,98.31L198.70,96.00L198.37,95.24L198.92,95.07L198.95,91.40zM184.62,101.90L185.13,102.17L183.86,102.42L183.60,102.16L183.51,99.60L184.59,99.30z"/></g><g id="hotspot.12" onmouseover="ShowHotSpot(evt,'12')" onmouseout="HideHotSpot(evt,'12')" onmousemove="ShowToolTip(evt,'12',&quot;3dp828613 (RHD)&quot;)" opacity="0"><path style="fill:#00ff00;fill-rule:evenodd" d="M163.15,128.24L162.26,128.53L161.61,128.52L160.83,127.73L160.74,126.69L161.33,126.68zM164.40,129.02L164.67,129.86L163.72,130.20L163.01,130.12L163.38,129.10L163.92,128.23zM164.31,132.69L174.39,132.84L174.39,139.09L153.56,139.09L153.65,132.92L163.65,132.69L163.72,130.20L164.15,130.28zM190.49,153.06L191.03,153.70L190.15,154.12L189.49,154.10L188.12,152.88L188.20,151.32L188.47,151.26z"/></g><g id="hotspot.13" onmouseover="ShowHotSpot(evt,'13')" onmouseout="HideHotSpot(evt,'13')" onmousemove="ShowToolTip(evt,'13',&quot;XNG SN CABIN 15&quot;)" opacity="0"><path style="fill:#00ff00;fill-rule:evenodd" d="M164.56,97.90L164.65,91.74L185.39,91.66L185.39,97.90L175.31,98.05L175.35,106.32L175.70,106.83L174.87,108.36L174.32,108.57L172.58,108.55L172.22,108.00L172.46,107.77L174.36,107.37L174.06,106.50L174.62,106.33L174.65,98.05zM129.37,118.79L128.88,118.79L128.26,117.98L128.56,117.98zM142.69,132.57L143.15,133.47L142.39,133.65L141.91,133.35L141.37,132.56L141.28,132.10L141.93,131.83zM158.31,148.98L158.29,149.31L157.24,149.22L156.21,148.18L156.18,147.48L156.49,147.17zM169.02,159.95L168.95,160.22L167.73,160.22L166.71,159.20L166.71,157.64z"/></g><g id="hotspot.14" onmouseover="ShowHotSpot(evt,'14')" onmouseout="HideHotSpot(evt,'14')" onmousemove="ShowToolTip(evt,'14',&quot;3dp836777 (I_  ECU M8X1.25.76)&quot;)" opacity="0"><path style="fill:#00ff00;fill-rule:evenodd" d="M128.61,118.51L129.89,120.04L134.75,124.90L136.03,126.44L139.10,129.52L137.47,130.05L136.01,130.03L134.22,127.99L130.65,124.39L129.38,122.85L126.56,120.04L125.29,118.51L124.50,117.76L124.49,116.56L125.44,116.22L126.30,116.20zM110.46,120.03L121.95,133.60L121.88,133.87L119.80,134.41L119.14,134.41L115.84,130.30L115.23,130.37L114.54,129.76L112.63,129.77L112.48,132.44L91.66,132.44L91.74,126.27L112.24,125.94L108.67,121.57L108.35,121.10L108.36,120.14L110.17,119.77zM115.04,129.28L112.63,129.11L112.73,126.69z"/></g><g id="hotspot.15" onmouseover="ShowHotSpot(evt,'15')" onmouseout="HideHotSpot(evt,'15')" onmousemove="ShowToolTip(evt,'15',&quot;3dp962915&quot;)" opacity="0"><path style="fill:#00ff00;fill-rule:evenodd" d="M219.17,144.08L219.18,145.25L217.03,146.42L217.01,150.09L227.09,150.24L227.09,156.48L206.26,156.48L206.34,150.32L216.34,150.09L216.32,146.41L215.74,146.16L215.86,145.38L202.27,134.64L202.18,133.37L203.72,132.85L204.58,132.83z"/></g><g id="hotspot.16" onmouseover="ShowHotSpot(evt,'16')" onmouseout="HideHotSpot(evt,'16')" onmousemove="ShowToolTip(evt,'16',&quot;3dp517776 (I_     ECU M8X1.25.35)&quot;)" opacity="0"><path style="fill:#00ff00;fill-rule:evenodd" d="M154.95,64.05L121.08,69.41L120.91,70.26L119.56,70.69L119.61,70.92L125.56,75.54L121.33,75.54L121.33,81.02L131.41,81.17L131.41,87.41L110.59,87.41L110.67,81.25L120.67,81.02L120.67,75.54L111.88,76.06L103.26,77.43L101.22,77.63L100.19,62.25L99.60,51.77L100.36,51.50L128.33,47.90zM166.49,71.19L161.00,72.23L159.52,72.24L158.01,71.20L158.01,68.98L158.27,66.06zM123.63,49.45L125.52,49.44L125.24,49.73L123.68,49.69zM107.57,52.00L105.69,52.08L105.69,51.78L107.62,51.75zM133.95,54.83L133.68,55.10L132.11,55.10L131.83,54.82L133.18,54.56zM115.25,57.62L113.37,57.70L113.37,57.41L115.30,57.38z"/></g><g id="hotspot.17" onmouseover="ShowHotSpot(evt,'17')" onmouseout="HideHotSpot(evt,'17')" onmousemove="ShowToolTip(evt,'17',&quot;3dp552178 (I_ ECU M6X1.0.7)&quot;)" opacity="0"><path style="fill:#00ff00;fill-rule:evenodd" d="M92.52,31.55L95.09,33.32L95.33,36.15L98.68,38.18L101.14,78.19L101.45,78.38L102.24,79.23L99.09,79.75L98.93,78.09L72.75,54.64L69.25,35.89L63.77,35.89L63.62,38.81L42.80,38.81L42.88,32.65L63.62,32.56L63.77,35.23L69.01,35.21L68.72,33.86L67.35,33.70L66.95,29.76L66.61,28.71L68.21,28.46L69.27,29.07L68.47,19.53L68.37,18.50L70.53,18.49z"/></g><g id="hotspot.18" onmouseover="ShowHotSpot(evt,'18')" onmouseout="HideHotSpot(evt,'18')" onmousemove="ShowToolTip(evt,'18',&quot;3dp830295&quot;)" opacity="0"><path style="fill:#00ff00;fill-rule:evenodd" d="M128.59,22.34L128.84,28.23L130.29,37.52L134.21,37.26L157.51,34.46L157.49,31.81L157.25,30.01L147.17,29.85L147.25,23.69L167.99,23.61L167.99,29.85L157.91,30.01L158.18,34.47L176.34,32.32L178.25,32.29L178.50,32.54L179.98,40.27L180.78,41.04L99.60,51.61L98.68,38.18L95.33,36.15L95.09,33.32L92.52,31.55L83.96,26.48L83.96,26.19L119.30,22.85L121.93,22.87L122.18,23.45L127.06,22.95L127.29,21.65L128.32,21.57zM67.59,27.72L69.25,27.70L69.26,29.07L67.69,28.20zM68.79,34.00L72.77,54.65L73.05,54.85L73.02,55.09L72.32,55.10L72.05,54.83L68.47,34.62L68.40,33.83z"/></g><g id="hotspot.19" onmouseover="ShowHotSpot(evt,'19')" onmouseout="HideHotSpot(evt,'19')" onmousemove="ShowToolTip(evt,'19',&quot;3dp828209 (RHD)&quot;)" opacity="0"><path style="fill:#00ff00;fill-rule:evenodd" d="M213.54,96.50L213.52,97.64L213.19,98.58L181.46,105.74L180.24,105.76L178.47,104.44L176.67,104.79L176.17,106.84L175.87,107.05L152.31,112.40L150.86,112.37L149.32,111.09L147.17,111.35L147.00,113.49L146.70,113.70L133.11,116.75L132.18,116.74L130.64,115.17L130.06,115.19L128.51,115.72L128.32,117.87L127.85,117.78L126.30,116.20L125.44,116.22L124.49,116.56L124.50,117.75L125.06,118.29L125.03,118.60L112.91,121.35L111.63,121.42L110.17,119.77L108.36,120.14L108.35,121.10L108.93,121.88L108.90,122.17L80.17,128.77L78.96,128.76L78.43,127.50L78.44,125.51L87.87,123.42L88.17,123.21L88.18,118.52L78.10,118.37L78.18,112.20L98.92,112.12L98.92,118.37L88.84,118.52L88.84,122.97L90.14,122.88L183.60,102.14L183.87,102.40L185.11,102.24L184.80,101.90L198.36,98.82L200.20,98.82L200.18,98.58L201.67,98.06L212.27,95.77z"/></g><g id="hotspot.20" onmouseover="ShowHotSpot(evt,'20')" onmouseout="HideHotSpot(evt,'20')" onmousemove="ShowToolTip(evt,'20',&quot;3dp828601 (RHD)&quot;)" opacity="0"><path style="fill:#00ff00;fill-rule:evenodd" d="M225.05,138.47L225.98,138.50L226.57,138.25L226.74,138.80L229.39,138.83L229.62,136.25L250.37,136.17L250.37,142.41L229.54,142.41L229.39,139.49L226.75,139.52L226.25,140.30L226.08,141.66L225.47,142.10L225.01,142.05L224.50,142.38L223.47,142.34L210.43,132.58L210.34,132.10L211.22,131.92L211.21,130.56L209.72,129.54L208.66,129.87L207.12,130.07L192.26,119.00L192.21,118.79L193.32,118.35L193.33,117.50L192.04,116.46L190.16,116.75L189.23,116.74L176.43,107.01L176.41,105.55L176.82,104.68L178.47,104.44z"/></g><g id="hotspot.21" onmouseover="ShowHotSpot(evt,'21')" onmouseout="HideHotSpot(evt,'21')" onmousemove="ShowToolTip(evt,'21',&quot;3dp828602 (RHD)&quot;)" opacity="0"><path style="fill:#00ff00;fill-rule:evenodd" d="M195.12,151.51L195.10,154.17L193.23,154.85L193.22,161.09L203.30,161.24L203.30,167.48L182.47,167.48L182.55,161.32L192.55,161.09L192.56,155.09L179.77,143.32L177.68,141.51L177.63,141.29L178.51,140.90L178.49,139.74L177.23,138.49L176.09,138.75L174.64,138.73L161.30,126.67L161.25,126.45L162.10,126.29L162.12,124.89L161.08,124.14L158.79,124.42L149.08,115.43L147.27,113.92L147.17,111.35L149.32,111.09z"/></g></g></svg>
