<?xml version="1.0" encoding="UTF-8" standalone="no"?>
<svg xmlns="http://www.w3.org/2000/svg" xmlns:xlink="http://www.w3.org/1999/xlink" width="297.000mm" height="210.000mm" viewBox="0.000000 0.000000 297.000000 210.000000" stroke-linejoin="round" stroke-linecap="round" fill="none" fill-rule="evenodd"><desc>Composer Export</desc><script type="text/ecmascript"><![CDATA[
if(typeof(top) != "undefined")
{
	top.ShowPaper = ShowPaper;
}
function ShowHotSpot(evt,hotspotid)
{
	var svgDocument = evt.target.ownerDocument;
	var strId = "hotspot."+hotspotid;
	var hotspot = svgDocument.getElementById(strId);
	if(hotspot)
		hotspot.setAttribute("opacity",".5");
}
function HideHotSpot(evt,hotspotid)
{
	var svgDocument = evt.target.ownerDocument;
	var strId = "hotspot."+hotspotid;
	var hotspot = svgDocument.getElementById(strId);
	if(hotspot)
		hotspot.setAttribute("opacity","0");

	var toolTip = svgDocument.getElementById('ToolTip');
	if(toolTip)
		toolTip.setAttribute("visibility","hidden");
}
function ShowToolTip(evt,hotspotid,strTooltip)
{
	if(strTooltip=="")
	return;

	// change text
	var svgDocument = evt.target.ownerDocument;
	var tiptext = svgDocument.getElementById('ToolTipText');
	if( !tiptext )
	return;
	tiptext.firstChild.nodeValue = " " + strTooltip + "  " ;

	// show tooltip before, else some refresh issue

	var toolTip = svgDocument.getElementById('ToolTip');
	if(!toolTip)
	return;

	toolTip.setAttribute("visibility","visible");
	toolTip.setAttribute("opacity",".95");

	// move tooltip
	// get viewbox

	var root = svgDocument.documentElement;
	var vbox = (root.getAttribute("viewBox")).split(' ');
	var x0 = parseFloat(vbox[0]);
	var y0 = parseFloat(vbox[1]);
	var vboxW = parseFloat(vbox[2]);
	var vboxH = parseFloat(vbox[3]);

	// get default width of svg

	var strW = root.getAttribute("width");
	var svgW = parseFloat(strW);
	if(strW.indexOf('mm') != -1)
	svgW *= 3.779;

	var strH = root.getAttribute("height");
	var svgH = parseFloat(strH);
	if(strH.indexOf('mm') != -1)
	svgH *= 3.779;  	// 96 dpi  -> 96/25.4 = 3.779

	// update the viewbox / width / height if svg is embedded in html with zoom fit all
	var realx0 = x0;
	var realy0 = y0;
	var realvboxW = vboxW;
	var realvboxH = vboxH;
	var realsvgW = svgW;
	var realsvgH = svgH;

	if ((typeof(top) == "undefined") || (typeof(top.svgctl1) != "undefined")) // embedded in html
	{
		// get window size in pxl

		svgW = window.innerWidth;
		svgH = window.innerHeight;

		// calculate real viewbox

		realsvgW = svgW;
		realsvgH = svgH;
		if((svgW / svgH) > (vboxW / vboxH))
		{
			realvboxW = (vboxH * svgW) / svgH;
			realvboxH = vboxH;
			realx0 = x0 - (realvboxW - vboxW)/2 ;
		}
		else
		{
			realvboxH = (vboxW * svgH) / svgW;
			realvboxW = vboxW;
			realy0 = y0 - (realvboxH - vboxH)/2 ;
		}
	}

	// get user zoom/pan

	var newScale = root.currentScale;
	var translation = root.currentTranslate;

	// transform pxl to user unit

	var xPos = (((evt.clientX+10- translation.x)/newScale) * realvboxW)/realsvgW  + realx0 ;
	var yPos = (((evt.clientY+5- translation.y)/newScale) * realvboxH)/ realsvgH  + realy0 ;
	var scaleForWidth = ( (1 / newScale) * realvboxH) / realsvgH;

	// move tooltip

	toolTip.setAttribute("transform", "translate(" + xPos + "," + yPos + ")" );

	// resize tooltip

	var fontsize = 12;
	tiptext.setAttribute("font-size",fontsize*scaleForWidth);
	tiptext.setAttribute("y", fontsize*scaleForWidth);
	var tipBG = svgDocument.getElementById('ToolTipBG');
	var outline = tiptext.getBBox();
	if(tipBG)
	{
		tipBG.setAttribute("stroke-width", 1*scaleForWidth);
		tipBG.setAttribute("width", Number(outline.width) );
		tipBG.setAttribute("height", Number(outline.height) + fontsize*.5*scaleForWidth );
	}
	var ToolTipShadow = svgDocument.getElementById('ToolTipShadow');
	if(ToolTipShadow)
	{
		ToolTipShadow.setAttribute("width", Number(outline.width) );
		ToolTipShadow.setAttribute("height", Number(outline.height) + fontsize*.5*scaleForWidth );
		ToolTipShadow.setAttribute("x", 3*scaleForWidth);
		ToolTipShadow.setAttribute("y", 3*scaleForWidth);
	}
}
function ShowPaper()
{
  var svgDocument = getDocument();
  var paper = svgDocument.getElementById("paperID");
  if(paper)
  {
    paper.setAttribute("transform","scale(1)");
    paper.setAttribute("opacity","1");
    paper.setAttribute("visibility","visible");
  }
  var svg = svgDocument.getRootElement();
  if(svg)
  {
    svg.setAttribute("width","307.000mm");
    svg.setAttribute("height","220.000mm");
    svg.setAttribute("viewBox","-5.000000 -5.000000 307.000000 220.000000");
  }
}
]]></script><defs/><g><path style="fill:#ffffff" d="M296.92,209.94L0.07,209.94L0.07,0.07L296.92,0.07z"/><path style="fill:#ff0000" d="M85.89,45.56L85.78,45.78L82.50,47.00L81.21,47.46L79.51,47.99L73.56,50.14L68.69,51.80L67.76,51.80L42.00,40.20L29.99,34.63L27.45,33.41L27.95,32.67L44.41,28.14z"/><path style="fill:#c0dcc2" d="M67.76,51.80L68.69,51.80L73.56,50.14L96.59,60.25L99.26,59.49L103.06,58.25L79.92,48.32L79.51,47.99L81.21,47.46L82.17,48.06L83.89,48.06L84.16,47.80L82.50,47.00L85.78,45.78L87.54,46.71L87.65,47.91L87.73,46.78L107.03,54.76L109.41,55.92L109.54,57.29L109.79,57.32L109.61,55.96L110.02,55.97L113.64,57.65L113.74,59.09L113.84,57.69L114.25,57.71L115.99,58.53L116.47,58.27L116.95,59.02L145.06,70.66L152.84,73.81L153.50,74.15L236.53,108.84L236.77,110.29L236.93,109.11L291.74,132.01L292.45,133.28L292.44,135.12L292.17,135.87L291.44,135.80L287.97,134.27L287.13,134.27L275.21,142.99L264.27,151.44L246.63,165.86L244.50,168.45L242.49,171.65L240.94,175.33L240.18,175.81L239.98,177.05L239.52,177.07L12.76,54.84L12.83,53.34L13.61,51.13L14.89,49.66L15.37,49.86L15.16,49.24L16.98,48.05L32.89,42.83L42.00,40.20z"/><path style="fill:#ffffff" d="M55.59,33.14L61.40,35.73L58.24,36.12L44.25,39.69L29.71,33.11L29.66,32.89L43.57,28.66L44.66,28.66z"/><path style="fill:#0000ff" d="M15.37,49.86L14.89,49.66L15.16,49.24z"/><path style="fill:#0000ff" d="M31.43,57.96L31.71,58.01L31.76,58.29L31.48,58.24z"/><path style="fill:#0000ff" d="M44.85,64.92L45.13,64.97L45.18,65.25L44.90,65.20z"/><path style="fill:#0000ff" d="M102.59,94.77L102.59,95.10L102.32,95.04L102.32,94.50z"/><path style="fill:#0000ff" d="M114.94,101.20L115.22,101.25L115.27,101.54L114.98,101.49z"/><path style="fill:#ff0000" d="M96.09,28.92L114.96,35.89L115.47,36.65L100.51,41.11L99.07,41.10L58.06,24.92L58.05,24.53L72.16,20.71L73.74,20.71z"/><path style="fill:#c0dcc2" d="M84.20,45.11L84.20,45.37L80.76,46.40L76.50,44.58L75.36,44.84L75.36,45.12L79.26,46.90L77.77,47.40L75.48,46.30L74.15,46.31L68.68,47.80L71.80,49.39L68.94,50.30L67.75,50.30L44.25,39.69L58.24,36.12L61.40,35.73L62.07,35.87z"/><path style="fill:#7f0080" d="M78.17,43.01L78.42,43.05L78.45,44.18z"/><path style="fill:#7f0080" d="M87.65,47.91L87.54,46.71L87.73,46.78z"/><path style="fill:#7f0080" d="M99.35,51.98L99.34,52.86L98.98,51.78z"/><path style="fill:#7f0080" d="M36.38,55.97L36.67,55.96L36.70,57.10L36.41,56.51z"/><path style="fill:#7f0080" d="M109.79,57.32L109.54,57.29L109.41,55.92L109.61,55.96z"/><path style="fill:#7f0080" d="M113.74,59.09L113.64,57.65L113.84,57.69z"/><path style="fill:#7f0080" d="M45.21,60.59L45.62,60.46L45.77,60.61L45.65,61.57z"/><path style="fill:#7f0080" d="M56.84,66.14L56.84,67.28L56.56,66.71L56.59,65.91z"/><path style="fill:#7f0080" d="M67.12,71.89L67.03,72.49L66.79,72.45L66.56,71.31L66.77,71.17z"/><path style="fill:#7f0080" d="M71.02,74.47L70.77,74.44L70.53,73.32L70.82,73.12z"/><path style="fill:#7f0080" d="M236.93,109.11L236.77,110.29L236.53,108.84L236.74,108.41L237.01,108.41z"/><path style="fill:#7f0080" d="M275.88,136.93L275.51,138.63L275.22,138.63L275.48,136.73z"/><path style="fill:#7f0080" d="M256.99,151.09L256.62,152.80L256.33,152.79L256.59,150.90z"/><path style="fill:#7f0080" d="M190.77,166.97L190.47,166.96L190.75,164.09L191.00,164.05z"/><path style="fill:#ffffff" d="M113.03,35.90L113.02,36.17L100.76,40.11L99.07,40.11L59.53,24.66L59.47,24.43L73.23,21.19z"/><path style="fill:#ffffff" d="M80.76,46.40L79.26,46.90L75.36,45.12L75.36,44.84L76.50,44.58z"/><path style="fill:#ffffff" d="M77.77,47.40L71.80,49.39L68.68,47.80L74.15,46.31L75.48,46.30z"/><path style="fill:#ffffff" d="M84.16,47.80L83.89,48.06L82.17,48.06L81.21,47.46L82.50,47.00z"/><path style="fill:#ffffff" d="M79.92,48.32L103.06,58.25L99.26,59.49L96.59,60.25L73.56,50.14L79.51,47.99z"/><path style="fill:#ffffff" d="M94.14,52.06L94.15,52.33L93.27,52.55L92.62,52.55L87.36,50.26L87.31,50.04L88.64,49.77z"/><path style="fill:#ffffff" d="M78.46,66.70L71.98,69.26L71.24,69.45L44.12,55.97L44.08,55.76L50.87,53.50z"/><path style="fill:#ffffff" d="M109.77,58.74L109.22,59.00L107.76,59.00L97.98,54.81L97.98,54.55L99.33,54.24z"/><path style="fill:#ffffff" d="M48.38,59.23L45.77,60.61L45.62,60.46L45.21,60.59L38.08,57.04L38.09,56.78L40.82,55.52z"/><path style="fill:#ffffff" d="M58.32,64.20L56.02,65.47L54.83,65.46L49.85,62.94L49.79,62.71L51.79,61.73L52.86,61.45z"/><path style="fill:#ffffff" d="M73.26,71.78L70.82,73.12L70.53,73.32L67.51,71.89L67.12,71.89L66.77,71.17L66.56,71.31L59.74,67.93L62.47,66.68L63.30,66.67z"/><path style="fill:#ffffff" d="M229.56,122.11L233.58,124.09L233.47,124.59L223.28,131.07L221.59,131.07L198.65,120.19L198.72,119.73L208.35,114.16L209.34,113.65L210.43,113.66z"/><g id="Actor_.0"><g style="stroke:#000000;stroke-width:0.025"><path d="M57.63,24.64L99.68,41.15L99.99,41.06"/><path d="M58.16,24.66L99.70,40.94L99.72,40.92"/><path d="M99.77,40.52L99.71,40.60L58.16,24.35"/><path d="M58.18,24.63L99.72,40.92"/><path d="M99.83,40.25L99.40,40.37L58.50,24.39"/><path d="M99.71,40.60L99.73,40.90"/><path d="M99.68,41.15L99.69,41.18"/><path d="M99.70,40.94L99.73,40.96"/><path d="M99.46,40.39L99.40,40.37"/></g><g style="stroke:#000000;stroke-width:0.173"><path d="M99.83,40.26L58.91,24.29L58.50,24.39L58.21,24.27L58.16,24.35L58.16,24.66L57.93,24.57L57.63,24.64L57.64,24.68L99.69,41.18L99.99,41.09L99.99,41.06L99.73,40.96"/><path d="M99.46,40.39L99.77,40.52L99.75,40.91"/></g></g><g id="Actor_.1"><g style="stroke:#000000;stroke-width:0.025"><path d="M57.93,24.57L58.12,24.65L58.14,24.62L58.14,24.66"/><path d="M73.06,20.36L58.24,24.29"/><path d="M58.91,24.29L73.34,20.46"/><path d="M59.17,24.39L73.10,21.03L73.10,21.01"/><path d="M72.95,20.59L58.96,24.31"/><path d="M58.14,24.62L58.18,24.61"/><path d="M73.10,21.03L73.08,21.08"/><path d="M73.10,21.02L73.11,21.02"/></g><g style="stroke:#000000;stroke-width:0.173"><path d="M57.93,24.57L58.17,24.51"/><path d="M73.34,20.47L73.06,20.36L73.03,20.36L58.24,24.29"/><path d="M73.14,21.07L59.24,24.42"/><path d="M73.07,20.64L73.11,21.02"/></g></g><g id="Actor_.2"><g style="stroke:#000000;stroke-width:0.025"><path d="M99.72,40.92L99.74,40.96L99.99,41.06L99.99,41.09"/><path d="M99.99,41.06L115.40,36.55"/><path d="M99.74,40.96L115.16,36.46"/><path d="M99.77,40.54L99.79,40.61L99.81,40.89L99.79,40.90"/><path d="M99.81,40.89L115.05,36.44"/><path d="M99.76,40.51L114.98,35.68"/><path d="M99.79,40.61L115.03,35.77"/><path d="M99.83,40.25L99.82,40.25"/></g><g style="stroke:#000000;stroke-width:0.173"><path d="M99.83,40.25L114.64,35.56L114.98,35.68L115.02,35.74L115.05,36.43L115.13,36.42L115.16,36.46L115.40,36.55L115.40,36.58L99.99,41.09"/><path d="M99.72,40.95L99.72,40.92L99.78,40.90L99.78,40.88L99.77,40.60L99.75,40.56"/><path d="M99.42,40.38L99.82,40.25"/></g></g><g id="Actor_.3"><g style="stroke:#000000;stroke-width:0.025"><path d="M73.10,21.01L113.60,35.89"/><path d="M73.12,21.05L73.10,20.92"/><path d="M73.07,20.54L73.34,20.47L73.97,20.70L114.63,35.56"/><path d="M73.08,20.64L114.19,35.70"/><path d="M72.95,20.56L114.24,35.69"/><path d="M73.04,20.36L73.03,20.35"/><path d="M115.68,36.47L115.40,36.55L115.16,36.46"/><path d="M115.40,36.55L115.40,36.58"/><path d="M115.05,36.42L115.08,36.44"/><path d="M115.08,36.43L115.06,35.77L115.03,35.76"/><path d="M115.10,36.43L115.10,36.25"/><path d="M115.01,35.70L115.06,35.71"/><path d="M115.03,35.71L115.06,35.77"/></g><g style="stroke:#000000;stroke-width:0.173"><path d="M114.64,35.56L73.34,20.46"/><path d="M73.12,21.05L113.54,35.91"/><path d="M73.09,20.92L73.08,20.64L72.95,20.56L73.07,20.54"/><path d="M73.06,20.36L73.03,20.37"/><path d="M115.40,36.58L115.69,36.50L115.68,36.47L115.10,36.25L115.08,35.76L114.99,35.69"/></g></g><g id="Actor_.4"><g style="stroke:#000000;stroke-width:0.025"><path d="M84.51,45.11L44.08,28.23"/><path d="M84.96,44.96L44.22,27.98"/><path d="M44.28,28.17L44.51,28.10"/><path d="M85.38,45.45L85.34,45.15"/><path d="M85.32,45.12L85.35,45.10"/><path d="M85.32,45.10L84.96,44.95L84.51,45.10"/><path d="M85.33,45.13L85.35,45.16"/><path d="M85.39,45.46L85.39,45.47"/><path d="M85.43,45.46L85.39,45.20"/><path d="M85.50,45.49L85.74,45.59L85.74,45.63"/><path d="M85.74,45.59L86.06,45.48"/></g><g style="stroke:#000000;stroke-width:0.173"><path d="M44.28,28.17L44.08,28.23L44.09,28.26L84.47,45.12"/><path d="M44.22,28.00L44.25,27.98L85.35,45.10L85.39,45.20L86.06,45.48L86.06,45.51L85.74,45.63"/></g></g><g id="Actor_.5"><g style="stroke:#000000;stroke-width:0.025"><path d="M85.50,45.49L68.29,51.58L68.26,51.53"/><path d="M85.29,45.10L68.21,50.70L67.88,50.55"/><path d="M68.21,50.70L68.23,50.72"/><path d="M68.26,50.77L68.27,50.79L85.35,45.19"/><path d="M68.27,50.79L68.36,51.50L68.34,51.51"/><path d="M68.29,51.58L68.53,51.69L68.53,51.72"/><path d="M68.53,51.69L85.74,45.59"/><path d="M68.36,51.50L85.38,45.48"/><path d="M84.51,45.10L84.52,45.10"/></g><g style="stroke:#000000;stroke-width:0.173"><path d="M68.24,50.78L68.34,51.51L68.26,51.53L68.27,51.57"/><path d="M67.88,50.56L67.88,50.55L84.51,45.10"/><path d="M84.52,45.10L84.96,44.96L85.29,45.10L85.35,45.19L85.38,45.47L85.47,45.44L85.50,45.49L85.74,45.59L85.74,45.63L68.53,51.72"/></g></g><g id="Actor_.6"><g style="stroke:#000000;stroke-width:0.025"><path d="M27.61,33.19L27.80,33.27L27.81,33.25L27.82,33.28"/><path d="M27.81,33.25L27.84,33.24"/><path d="M27.81,32.52L44.24,28.00"/><path d="M27.81,32.52L28.08,32.65"/><path d="M28.08,32.64L44.08,28.23"/><path d="M44.25,28.33L29.24,32.83"/><path d="M44.09,28.26L28.58,32.54"/><path d="M44.27,28.37L44.28,28.34"/></g><g style="stroke:#000000;stroke-width:0.173"><path d="M27.61,33.19L27.82,33.12"/><path d="M27.79,32.52L44.24,28.00L44.50,28.10"/><path d="M44.31,28.36L29.30,32.86"/></g></g><g id="Actor_.7"><g style="stroke:#000000;stroke-width:0.025"><path d="M27.29,33.28L68.19,51.81L68.20,51.84"/><path d="M68.26,50.73L68.20,50.82L68.30,51.52L27.84,33.24"/><path d="M68.20,50.82L27.73,32.60"/><path d="M68.30,51.59L27.82,33.28"/><path d="M28.08,32.65L67.93,50.58"/><path d="M68.19,51.81L68.53,51.69"/><path d="M68.28,50.42L68.35,50.39"/></g><g style="stroke:#000000;stroke-width:0.173"><path d="M68.35,50.39L28.53,32.51L28.08,32.65L27.75,32.53L27.73,32.60L27.84,33.24L27.82,33.28L27.61,33.19L27.31,33.28L27.29,33.32L68.20,51.84L68.53,51.72L68.53,51.69L68.30,51.59"/><path d="M68.33,51.51L68.23,50.81L68.26,50.73L67.93,50.58"/></g></g><g id="Actor_4.0"><g style="stroke:#000000;stroke-width:0.025"><path d="M33.25,54.00L33.23,54.03L33.18,54.05L33.11,54.07L33.04,54.07L32.99,54.05L32.97,54.03"/><path d="M33.20,53.96L33.19,53.98L33.15,54.00L33.18,54.05L33.37,55.30"/><path d="M33.15,54.00L33.09,54.01L33.04,54.01L33.01,53.99L33.01,53.97"/></g><g style="stroke:#000000;stroke-width:0.173"><path d="M33.44,55.24L33.25,54.00L33.23,53.98L33.20,53.96L33.17,53.95L33.11,53.94L33.05,53.95L33.01,53.97L32.98,54.00L32.97,54.03L33.16,55.28"/></g></g><g id="Actor_2.0"><g style="stroke:#000000;stroke-width:0.025"><path d="M152.99,73.00L153.00,73.00L153.04,73.02L153.09,73.04L153.14,73.06L153.16,73.07"/><path d="M152.96,73.02L152.97,73.02L153.01,73.04L153.08,73.07L153.15,73.09L153.18,73.10"/></g><g style="stroke:#000000;stroke-width:0.173"><path d="M152.68,73.73L152.96,73.02L152.99,73.00L153.02,73.01L153.07,73.03L153.12,73.05L153.16,73.06L153.16,73.07L153.18,73.10L152.90,73.82"/></g></g><g id="Actor_4.1"><g style="stroke:#000000;stroke-width:0.025"><path d="M36.39,55.68L36.39,55.70L36.42,55.72L36.47,55.72L36.53,55.71L36.56,55.76L36.61,55.74L36.63,55.71"/><path d="M36.35,55.74L36.37,55.76L36.42,55.78L36.49,55.78L36.56,55.76L36.75,57.02"/><path d="M36.53,55.71L36.57,55.69L36.58,55.67"/></g><g style="stroke:#000000;stroke-width:0.173"><path d="M36.82,56.96L36.63,55.71L36.61,55.69L36.58,55.67L36.55,55.65L36.49,55.65L36.43,55.66L36.39,55.68L36.36,55.71L36.35,55.74L36.53,57.00"/></g></g><g id="Actor_4.2"><g style="stroke:#000000;stroke-width:0.025"><path d="M45.34,60.20L45.34,60.23L45.37,60.24L45.43,60.25L45.49,60.24L45.52,60.22L45.53,60.21L45.53,60.19"/><path d="M45.49,60.24L45.52,60.29L45.57,60.26L45.59,60.23"/><path d="M45.29,60.26L45.32,60.29L45.37,60.30L45.45,60.30L45.52,60.29L45.69,61.57"/></g><g style="stroke:#000000;stroke-width:0.173"><path d="M45.76,61.51L45.59,60.23L45.56,60.21L45.53,60.19L45.50,60.17L45.44,60.17L45.38,60.18L45.34,60.20L45.31,60.23L45.29,60.26L45.47,61.55"/></g></g><g id="Actor_4.3"><g style="stroke:#000000;stroke-width:0.025"><path d="M56.79,65.89L56.77,65.92L56.72,65.95L56.88,67.26"/><path d="M56.53,65.86L56.53,65.88L56.57,65.90L56.63,65.90L56.69,65.89L56.73,65.87L56.73,65.85"/><path d="M56.69,65.89L56.72,65.95L56.65,65.96L56.57,65.96L56.51,65.95L56.49,65.92"/></g><g style="stroke:#000000;stroke-width:0.173"><path d="M56.95,67.19L56.79,65.89L56.76,65.86L56.73,65.85L56.70,65.83L56.64,65.82L56.57,65.84L56.53,65.86L56.50,65.89L56.49,65.92L56.65,67.24"/></g></g><g id="Actor_4.4"><g style="stroke:#000000;stroke-width:0.025"><path d="M66.91,71.00L66.89,71.03L66.84,71.06L66.99,72.40"/><path d="M66.60,71.03L66.63,71.06L66.69,71.08L66.77,71.08L66.84,71.06L66.81,71.01L66.75,71.02L66.69,71.01L66.65,71.00L66.65,70.97"/><path d="M66.81,71.01L66.85,70.98L66.85,70.96"/></g><g style="stroke:#000000;stroke-width:0.173"><path d="M66.75,72.38L66.60,71.03L66.62,71.00L66.65,70.97L66.69,70.94L66.75,70.93L66.81,70.94L66.85,70.96L66.88,70.97L66.91,71.00L67.06,72.33"/></g></g><g id="Actor_4.5"><g style="stroke:#000000;stroke-width:0.025"><path d="M70.89,73.01L70.88,73.05L70.83,73.08L70.97,74.42"/><path d="M70.84,72.97L70.84,73.00L70.80,73.02L70.73,73.03L70.67,73.03L70.63,73.01L70.63,72.98"/><path d="M70.59,73.05L70.61,73.08L70.67,73.09L70.75,73.09L70.83,73.08L70.80,73.02"/></g><g style="stroke:#000000;stroke-width:0.173"><path d="M70.73,74.40L70.59,73.05L70.60,73.01L70.63,72.98L70.67,72.96L70.74,72.94L70.80,72.95L70.84,72.97L70.87,72.99L70.89,73.01L71.04,74.35"/></g></g><g id="Actor_4.6"><g style="stroke:#000000;stroke-width:0.025"><path d="M74.89,41.34L74.88,41.36L74.84,41.38L74.95,42.56"/><path d="M74.67,41.31L74.67,41.33L74.70,41.34L74.76,41.35L74.81,41.34L74.84,41.32L74.84,41.30"/><path d="M74.81,41.34L74.84,41.38L74.77,41.40L74.71,41.40L74.65,41.38L74.63,41.36"/></g><g style="stroke:#000000;stroke-width:0.173"><path d="M74.74,42.53L74.63,41.36L74.64,41.34L74.67,41.31L74.70,41.29L74.76,41.28L74.81,41.29L74.84,41.30L74.89,41.34L75.00,42.52"/></g></g><g id="Actor_4.7"><g style="stroke:#000000;stroke-width:0.025"><path d="M78.41,42.81L78.40,42.84L78.36,42.86L78.47,44.04"/><path d="M78.19,42.78L78.19,42.80L78.22,42.82L78.28,42.82L78.33,42.81L78.36,42.79L78.36,42.77"/><path d="M78.33,42.81L78.36,42.86L78.29,42.87L78.23,42.87L78.17,42.86L78.15,42.84"/><path d="M78.56,45.07L78.52,44.64"/></g><g style="stroke:#000000;stroke-width:0.173"><path d="M78.31,44.55L78.36,45.05L78.38,45.07L78.43,45.08L78.50,45.08L78.56,45.07L78.60,45.05L78.61,45.03L78.58,44.66"/><path d="M78.26,44.01L78.15,42.84L78.16,42.81L78.19,42.78L78.22,42.76L78.27,42.76L78.33,42.76L78.36,42.77L78.41,42.81L78.52,44.00"/></g></g><g id="Actor_4.8"><g style="stroke:#000000;stroke-width:0.025"><path d="M87.65,46.66L87.65,46.68L87.62,46.69L87.57,46.70L87.51,46.70L87.48,46.69L87.48,46.67"/><path d="M87.44,46.72L87.46,46.74L87.52,46.76L87.59,46.76L87.65,46.74L87.69,46.72L87.70,46.70"/><path d="M87.62,46.69L87.65,46.74L87.75,47.95"/></g><g style="stroke:#000000;stroke-width:0.173"><path d="M87.80,47.91L87.70,46.70L87.65,46.66L87.62,46.64L87.56,46.64L87.51,46.65L87.48,46.67L87.45,46.70L87.44,46.72L87.54,47.92"/></g></g><g id="Actor_4.9"><g style="stroke:#000000;stroke-width:0.025"><path d="M99.28,51.54L99.27,51.56L99.23,51.59L99.31,52.82"/><path d="M99.05,51.51L99.05,51.53L99.09,51.54L99.15,51.55L99.20,51.54L99.23,51.52L99.23,51.49"/><path d="M99.20,51.54L99.23,51.59L99.16,51.60L99.09,51.60L99.04,51.59L99.01,51.56"/></g><g style="stroke:#000000;stroke-width:0.173"><path d="M99.09,52.79L99.01,51.56L99.02,51.54L99.05,51.51L99.08,51.49L99.14,51.48L99.19,51.48L99.23,51.49L99.28,51.54L99.36,52.77"/></g></g><g id="Actor_4.10"><g style="stroke:#000000;stroke-width:0.025"><path d="M109.78,58.30L109.75,57.84"/><path d="M109.70,55.89L109.69,55.92L109.65,55.94L109.72,57.20"/><path d="M109.65,55.85L109.65,55.87L109.62,55.89L109.56,55.90L109.50,55.90L109.47,55.88L109.46,55.86"/><path d="M109.62,55.89L109.65,55.94L109.58,55.96L109.51,55.96L109.45,55.94L109.42,55.92"/></g><g style="stroke:#000000;stroke-width:0.173"><path d="M109.80,57.86L109.82,58.24L109.82,58.27L109.78,58.30L109.71,58.31L109.64,58.31L109.58,58.30L109.55,58.27L109.52,57.74"/><path d="M109.49,57.17L109.42,55.92L109.43,55.89L109.46,55.86L109.49,55.84L109.55,55.83L109.61,55.83L109.65,55.85L109.70,55.89L109.76,57.15"/></g></g><g id="Actor_4.11"><g style="stroke:#000000;stroke-width:0.025"><path d="M113.79,57.60L113.78,57.63L113.74,57.65L113.80,58.92"/><path d="M113.51,57.63L113.54,57.65L113.60,57.67L113.67,57.67L113.74,57.65L113.71,57.60L113.74,57.58L113.74,57.56"/><path d="M113.71,57.60L113.65,57.61L113.59,57.61L113.56,57.59L113.55,57.57"/></g><g style="stroke:#000000;stroke-width:0.173"><path d="M113.85,58.87L113.79,57.60L113.74,57.56L113.70,57.54L113.64,57.54L113.58,57.55L113.55,57.57L113.51,57.60L113.51,57.63L113.57,58.89"/></g></g><g id="Actor_2.1"><g style="stroke:#000000;stroke-width:0.025"><path d="M94.11,48.51L94.19,48.54L94.26,48.57L94.27,48.60L94.04,49.23"/><path d="M94.28,48.60L94.27,48.60L94.18,48.56L94.12,48.54L94.08,48.52"/><path d="M94.26,48.57L94.26,48.57"/></g><g style="stroke:#000000;stroke-width:0.173"><path d="M93.85,49.16L94.08,48.52L94.11,48.51L94.12,48.51L94.15,48.52L94.24,48.56L94.26,48.57L94.28,48.60L94.04,49.23"/></g></g><g id="Actor_2.2"><g style="stroke:#000000;stroke-width:0.025"><path d="M107.71,54.19L107.71,54.19L107.74,54.21L107.80,54.23L107.86,54.25L107.90,54.27L107.89,54.24L107.86,54.22L107.81,54.21L107.76,54.19L107.74,54.18L107.74,54.17"/><path d="M107.89,54.24L107.89,54.23"/><path d="M107.90,54.27L107.90,54.27"/></g><g style="stroke:#000000;stroke-width:0.173"><path d="M107.46,54.84L107.70,54.19"/><path d="M107.71,54.19L107.74,54.17L107.81,54.20L107.89,54.23L107.90,54.27L107.65,54.92"/></g></g><g id="Actor_2.3"><g style="stroke:#000000;stroke-width:0.025"><path d="M133.05,64.73L133.01,64.71L132.95,64.69L132.89,64.66L132.84,64.65L132.84,64.64"/><path d="M132.87,64.63L132.88,64.63L132.91,64.64L132.96,64.66L133.01,64.68L133.03,64.69"/></g><g style="stroke:#000000;stroke-width:0.173"><path d="M132.57,65.33L132.84,64.64L132.87,64.63L132.95,64.66L133.00,64.68L133.03,64.69L133.03,64.69L133.05,64.73L132.78,65.41"/></g></g><g id="Actor_2.4"><g style="stroke:#000000;stroke-width:0.025"><path d="M62.87,35.54L62.86,35.53L62.85,35.51L62.78,35.48L62.71,35.45"/><path d="M62.85,35.51L62.86,35.51"/><path d="M62.69,35.47L62.71,35.48L62.77,35.50L62.82,35.52L62.86,35.53L62.80,35.71"/><path d="M62.65,36.12L62.69,36.03"/></g><g style="stroke:#000000;stroke-width:0.173"><path d="M62.47,36.05L62.51,35.95"/><path d="M62.81,35.71L62.87,35.54L62.86,35.51L62.83,35.50L62.75,35.46L62.72,35.45L62.71,35.45L62.69,35.47L62.63,35.63"/><path d="M62.69,36.03L62.66,36.12"/></g></g><g id="Actor_2.5"><g style="stroke:#000000;stroke-width:0.025"><path d="M79.99,43.36L80.02,43.26"/><path d="M80.20,42.72L80.20,42.72L80.17,42.71L80.12,42.69L80.08,42.68L80.06,42.67"/><path d="M80.20,42.72L80.21,42.75L80.15,42.93"/><path d="M80.22,42.75L80.21,42.75L80.17,42.74L80.11,42.71L80.06,42.69L80.03,42.68"/></g><g style="stroke:#000000;stroke-width:0.173"><path d="M79.99,43.36L80.03,43.27"/><path d="M79.80,43.29L79.84,43.19"/><path d="M80.15,42.93L80.22,42.75L80.20,42.72L80.18,42.71L80.09,42.68L80.06,42.67L80.06,42.67L80.03,42.68L79.96,42.85"/></g></g><g id="Actor_4.12"><g style="stroke:#000000;stroke-width:0.025"><path d="M275.88,136.70L275.85,136.75L275.55,138.46"/><path d="M275.55,136.56L275.53,136.61L275.57,136.65L275.65,136.69L275.74,136.70L275.81,136.67L275.83,136.63L275.79,136.58"/><path d="M275.81,136.67L275.85,136.75L275.78,136.78L275.67,136.78L275.56,136.75L275.49,136.70L275.46,136.64"/></g><g style="stroke:#000000;stroke-width:0.173"><path d="M275.58,138.42L275.88,136.70L275.85,136.64L275.79,136.58L275.71,136.55L275.62,136.54L275.55,136.56L275.49,136.59L275.46,136.64L275.16,138.35"/></g></g><g id="Actor_4.13"><g style="stroke:#000000;stroke-width:0.025"><path d="M236.68,108.24L236.69,108.29L236.76,108.33L236.85,108.35L236.94,108.35L237.01,108.33L236.80,110.14"/><path d="M237.04,108.29L237.01,108.33L236.97,108.26L236.91,108.28L236.83,108.27L236.76,108.24L236.74,108.21L236.76,108.17"/><path d="M236.97,108.19L236.99,108.22L236.97,108.26"/></g><g style="stroke:#000000;stroke-width:0.173"><path d="M236.83,110.11L237.04,108.29L237.03,108.24L236.97,108.19L236.90,108.16L236.82,108.15L236.76,108.17L236.71,108.20L236.68,108.24L236.47,110.04"/></g></g><g id="Actor_2.6"><g style="stroke:#000000;stroke-width:0.025"><path d="M15.02,49.16L15.02,49.16"/><path d="M15.04,49.18L15.04,49.23L15.00,49.21L14.97,49.25L14.93,49.28L14.89,49.28L14.87,49.27L14.88,49.23"/><path d="M14.87,49.30L14.89,49.32L14.94,49.31L15.00,49.28L15.04,49.23L15.44,49.67"/><path d="M15.00,49.21L15.01,49.18L14.99,49.16"/></g><g style="stroke:#000000;stroke-width:0.173"><path d="M15.27,49.74L14.87,49.30L14.88,49.23L14.91,49.19L14.95,49.17L14.99,49.16L15.02,49.16L15.04,49.18L15.45,49.63"/></g></g><g id="Actor_4.14"><g style="stroke:#000000;stroke-width:0.025"><path d="M190.80,166.80L190.97,163.99L191.01,163.93"/><path d="M190.87,163.78L190.93,163.82L190.95,163.87L190.92,163.91L190.85,163.94L190.77,163.93L190.71,163.89L190.69,163.84L190.72,163.80"/><path d="M190.92,163.91L190.97,163.99L190.88,164.02L190.78,164.02L190.69,163.99L190.63,163.93L190.63,163.87"/></g><g style="stroke:#000000;stroke-width:0.173"><path d="M190.46,166.68L190.63,163.87L190.67,163.82L190.72,163.80L190.79,163.77L190.87,163.78L190.94,163.82L191.00,163.87L191.01,163.93L190.85,166.74L190.80,166.80L190.72,166.83L190.62,166.83L190.53,166.80L190.47,166.74L190.46,166.68"/></g></g><g id="Actor_2.7"><g style="stroke:#000000;stroke-width:0.025"><path d="M31.95,58.24L31.55,57.79L31.56,57.74"/><path d="M31.38,57.79L31.37,57.83L31.40,57.85L31.44,57.84L31.48,57.82L31.52,57.78L31.52,57.74L31.50,57.72"/><path d="M31.52,57.78L31.55,57.79L31.51,57.84L31.45,57.88L31.40,57.88L31.37,57.86"/></g><g style="stroke:#000000;stroke-width:0.173"><path d="M31.96,58.20L31.56,57.74L31.53,57.72L31.50,57.72L31.45,57.73L31.41,57.75L31.38,57.79L31.37,57.81L31.37,57.86L31.77,58.32"/></g></g><g id="Actor_2.8"><g style="stroke:#000000;stroke-width:0.025"><path d="M45.00,64.72L45.00,64.77L44.96,64.75L44.93,64.80L44.88,64.82L44.84,64.83L44.82,64.81L44.82,64.77"/><path d="M44.94,64.69L44.97,64.71L44.96,64.75"/><path d="M44.81,64.84L44.84,64.87L44.90,64.86L44.96,64.82L45.00,64.77L45.40,65.23"/><path d="M44.97,64.69L44.97,64.69"/></g><g style="stroke:#000000;stroke-width:0.173"><path d="M44.97,64.69L45.00,64.72L45.41,65.18"/><path d="M44.97,64.69L44.90,64.70L44.85,64.73L44.82,64.77L44.81,64.79L44.81,64.84L45.21,65.30"/></g></g><g id="Actor_2.9"><g style="stroke:#000000;stroke-width:0.025"><path d="M58.02,71.51L58.07,71.50L58.10,71.52L58.10,71.56L58.06,71.61L58.02,71.64L57.97,71.64L57.94,71.62L57.94,71.58"/><path d="M58.14,71.52L58.13,71.58L58.09,71.63L58.03,71.67L57.97,71.68L57.93,71.65"/><path d="M58.10,71.56L58.13,71.58L58.53,72.04"/></g><g style="stroke:#000000;stroke-width:0.173"><path d="M58.54,71.99L58.14,71.52L58.10,71.50L58.02,71.51L57.98,71.54L57.94,71.58L57.94,71.60L57.93,71.65L58.34,72.12"/></g></g><g id="Actor_4.15"><g style="stroke:#000000;stroke-width:0.025"><path d="M256.53,150.89L256.56,150.95L256.63,151.01L256.74,151.04L256.86,151.04L256.94,151.01L256.67,152.78"/><path d="M256.63,150.80L256.61,150.85L256.64,150.90L256.72,150.94L256.82,150.95L256.89,150.93L256.94,151.01L256.97,150.95"/><path d="M256.89,150.93L256.91,150.88L256.88,150.82"/><path d="M256.70,150.78L256.70,150.78"/></g><g style="stroke:#000000;stroke-width:0.173"><path d="M256.63,150.80L256.57,150.83L256.53,150.89L256.26,152.66"/><path d="M256.70,152.72L256.97,150.95L256.95,150.89L256.88,150.82L256.80,150.79L256.70,150.78"/><path d="M256.63,150.80L256.70,150.78"/></g></g><g id="Actor_2.10"><g style="stroke:#000000;stroke-width:0.025"><path d="M116.74,57.94L116.70,57.93L116.64,57.91L116.58,57.88L116.54,57.87L116.54,57.86"/><path d="M116.73,57.91L116.70,57.90L116.65,57.88L116.60,57.86L116.57,57.85L116.57,57.85"/></g><g style="stroke:#000000;stroke-width:0.173"><path d="M116.29,58.53L116.54,57.86L116.57,57.85L116.60,57.86L116.70,57.90L116.73,57.91L116.74,57.94L116.49,58.61"/></g></g><g id="Actor_2.11"><g style="stroke:#000000;stroke-width:0.025"><path d="M82.59,84.20L82.59,84.26L82.55,84.24L82.52,84.29L82.47,84.32L82.42,84.33L82.38,84.30L82.38,84.26"/><path d="M82.47,84.18L82.52,84.17L82.55,84.20L82.55,84.24"/><path d="M82.37,84.34L82.41,84.37L82.48,84.36L82.55,84.32L82.59,84.26L82.98,84.74"/></g><g style="stroke:#000000;stroke-width:0.173"><path d="M82.77,84.82L82.37,84.34L82.37,84.28L82.38,84.26L82.42,84.21L82.47,84.18L82.48,84.17L82.55,84.17L82.59,84.20L82.98,84.68"/></g></g><g id="Actor_2.12"><g style="stroke:#000000;stroke-width:0.025"><path d="M102.38,94.46L102.39,94.52L102.35,94.51L102.31,94.56L102.26,94.59L102.20,94.60L102.17,94.57L102.17,94.52"/><path d="M102.35,94.51L102.34,94.46L102.31,94.43L102.25,94.44"/><path d="M102.77,95.01L102.39,94.52L102.34,94.59L102.27,94.63L102.20,94.64L102.16,94.60"/><path d="M102.16,94.54L102.16,94.54"/><path d="M102.76,94.94L102.77,94.95"/></g><g style="stroke:#000000;stroke-width:0.173"><path d="M102.76,94.94L102.38,94.46L102.34,94.43L102.27,94.43L102.25,94.44L102.20,94.47L102.16,94.54"/><path d="M102.54,95.09L102.16,94.60L102.16,94.54"/></g></g><g id="Actor_2.13"><g style="stroke:#000000;stroke-width:0.025"><path d="M62.87,35.54L62.86,35.53L62.85,35.51L62.78,35.48L62.71,35.45"/><path d="M62.85,35.51L62.86,35.51"/><path d="M62.69,35.47L62.71,35.48L62.77,35.50L62.82,35.52L62.86,35.53L62.80,35.71"/><path d="M62.65,36.12L62.69,36.03"/></g><g style="stroke:#000000;stroke-width:0.173"><path d="M62.47,36.05L62.51,35.95"/><path d="M62.81,35.71L62.87,35.54L62.86,35.51L62.83,35.50L62.75,35.46L62.72,35.45L62.71,35.45L62.69,35.47L62.63,35.63"/><path d="M62.69,36.03L62.66,36.12"/></g></g><g id="Actor_2.14"><g style="stroke:#000000;stroke-width:0.025"><path d="M171.62,64.13L171.28,63.99"/><path d="M171.57,64.11L171.57,64.11L171.33,64.01"/><path d="M171.57,64.10L171.34,64.01"/><path d="M171.21,64.15L171.26,64.15L171.34,64.20L171.42,64.22L171.48,64.23L171.51,64.26L171.55,64.28L171.62,64.28"/><path d="M171.48,64.23L171.53,64.10L171.23,63.98"/><path d="M171.26,64.15L171.31,64.02"/><path d="M171.21,64.15L171.18,64.12"/><path d="M171.53,64.10L171.67,64.15"/><path d="M171.27,64.00L171.46,64.07L171.62,64.13"/><path d="M171.88,63.19L171.71,63.12"/><path d="M171.90,63.23L171.67,63.14"/></g><g style="stroke:#000000;stroke-width:0.173"><path d="M171.62,64.12L171.57,64.11L171.57,64.10L171.57,64.10L171.90,63.23L171.88,63.19L171.71,63.12L171.67,63.14L171.34,64.01L171.33,64.01L171.33,64.01L171.28,63.99L171.27,64.00L171.23,63.98L171.18,64.12L171.20,64.14L171.58,64.29L171.62,64.28L171.67,64.15L171.62,64.13L171.62,64.13L171.62,64.12"/></g></g><g id="Actor_2.15"><g style="stroke:#000000;stroke-width:0.025"><path d="M66.50,76.02L66.50,76.06L66.53,76.09L66.58,76.08L66.63,76.05L66.66,76.00L66.70,76.02L66.70,75.96"/><path d="M67.09,76.49L66.70,76.02L66.66,76.08L66.59,76.12L66.53,76.12L66.49,76.09"/><path d="M66.58,75.94L66.63,75.94L66.66,75.96L66.66,76.00"/></g><g style="stroke:#000000;stroke-width:0.173"><path d="M66.89,76.57L66.49,76.09L66.49,76.04L66.50,76.02L66.54,75.97L66.58,75.94L66.60,75.94L66.66,75.93L66.70,75.96L67.10,76.44"/></g></g><g id="Actor_2.16"><g style="stroke:#000000;stroke-width:0.025"><path d="M114.93,101.17L114.94,101.15L114.95,101.20L114.98,101.23L115.04,101.22L115.10,101.19L115.13,101.14L115.17,101.15L115.17,101.09"/><path d="M114.93,101.23L114.98,101.27L115.06,101.27L115.13,101.22L115.17,101.15L115.54,101.64"/><path d="M114.94,101.15L114.98,101.10"/><path d="M115.03,101.06L115.09,101.06L115.13,101.09L115.13,101.14"/><path d="M115.53,101.57L115.54,101.58"/></g><g style="stroke:#000000;stroke-width:0.173"><path d="M115.53,101.57L115.17,101.09L115.12,101.05L115.04,101.06L115.03,101.06L114.98,101.10L114.97,101.10L114.93,101.17L114.93,101.23L115.31,101.73"/></g></g><g id="Actor_3.0"><g style="stroke:#000000;stroke-width:0.025"><path d="M12.75,54.66L239.85,177.12"/><path d="M14.93,49.36L13.46,51.37L12.74,53.66L240.10,175.49L243.05,169.39L244.55,167.24L246.91,164.74L17.61,47.78L21.62,46.38L20.67,46.71L39.19,56.00L37.78,56.73"/><path d="M17.49,47.75L15.08,49.22"/><path d="M38.85,56.30L20.51,46.87L39.08,56.09"/><path d="M20.42,46.98L38.90,56.27"/><path d="M20.60,46.79L20.67,46.71"/><path d="M71.48,72.66L248.50,161.78L251.04,159.84L22.58,46.18L21.62,46.38L24.52,45.43L22.72,46.17"/><path d="M22.48,46.13L22.57,46.11"/><path d="M23.53,46.54L23.90,46.72L22.86,46.18L23.53,46.54"/><path d="M23.90,46.72L26.17,47.85L25.03,47.29"/><path d="M26.17,47.85L251.03,159.69L22.81,46.18"/><path d="M24.45,45.46L23.90,45.69"/><path d="M24.81,45.31L24.52,45.43L39.16,40.90"/><path d="M27.31,48.42L28.45,48.98"/><path d="M29.59,49.55L30.72,50.12"/><path d="M256.41,151.70L30.72,43.68L30.90,43.56L256.46,151.38"/><path d="M30.77,43.57L256.42,151.64"/><path d="M31.86,50.68L33.00,51.25"/><path d="M30.81,43.52L256.49,151.15"/><path d="M30.93,43.44L32.78,42.95L261.48,151.21L260.99,151.86L262.05,152.36L246.91,164.74L247.04,164.91L269.48,146.64L262.05,152.36L262.19,152.59"/><path d="M31.86,43.14L31.90,43.06"/><path d="M32.82,42.91L33.00,42.99L32.03,43.09"/><path d="M32.93,42.96L34.14,43.53L33.00,42.99"/><path d="M34.14,43.53L36.41,44.61L35.28,44.07"/><path d="M34.14,51.81L35.28,52.38"/><path d="M36.41,52.95L37.55,53.51"/><path d="M36.41,44.61L38.69,45.69L37.55,45.15"/><path d="M39.19,56.00L40.87,55.39"/><path d="M39.83,54.64L38.69,54.08"/><path d="M38.69,45.69L40.97,46.76L39.83,46.23"/><path d="M39.20,40.89L42.18,40.06"/><path d="M40.86,55.36L48.54,59.22"/><path d="M251.09,159.67L40.97,55.21"/><path d="M40.97,46.76L43.24,47.84L42.10,47.30"/><path d="M43.24,47.84L45.52,48.92L44.38,48.38"/><path d="M50.70,53.31L43.80,55.71"/><path d="M70.26,49.77L46.20,39.06L46.37,38.99L44.15,39.53"/><path d="M46.54,60.18L50.61,62.22L49.52,62.67"/><path d="M46.60,60.14L50.61,62.22"/><path d="M45.52,48.92L47.73,49.95L46.66,49.46"/><path d="M46.30,38.95L55.51,36.71L52.99,37.27"/><path d="M46.37,38.99L47.93,38.70L71.83,49.26"/><path d="M45.88,39.26L69.83,49.91"/><path d="M45.94,39.21L70.06,49.83"/><path d="M46.02,39.14L46.20,39.06"/><path d="M45.92,39.28L69.78,49.93"/><path d="M50.66,62.18L50.82,61.98L46.76,59.94"/><path d="M50.82,61.98L46.89,59.84"/><path d="M47.77,38.64L48.93,39.09L48.06,38.70"/><path d="M47.79,50.00L51.21,51.61L50.08,51.08"/><path d="M48.93,39.09L69.41,48.14L68.36,47.68"/><path d="M50.95,61.88L52.65,61.23L58.40,64.13"/><path d="M78.46,66.61L50.69,53.28"/><path d="M51.21,51.61L53.48,52.69L52.34,52.15"/><path d="M52.65,61.23L52.66,61.26"/><path d="M53.48,52.69L55.76,53.77L54.62,53.23"/><path d="M74.70,42.11L59.62,35.77L55.76,36.60L79.39,46.78"/><path d="M55.51,36.71L79.22,46.84"/><path d="M55.31,36.90L78.82,46.97"/><path d="M55.34,36.88L78.89,46.95"/><path d="M56.38,65.13L60.83,67.37L62.90,66.37"/><path d="M56.60,64.88L61.07,67.14"/><path d="M56.44,65.09L60.88,67.33"/><path d="M56.73,64.78L61.18,67.02"/><path d="M55.76,53.77L58.03,54.85L56.90,54.31"/><path d="M58.03,54.85L60.31,55.92L59.17,55.39"/><path d="M59.17,37.07L58.03,36.59L76.52,44.43L57.33,36.33L58.03,36.59L57.54,36.38"/><path d="M60.83,67.37L59.73,67.84"/><path d="M60.31,55.92L62.59,57.00L61.45,56.46"/><path d="M62.59,57.00L64.86,58.08L63.72,57.54"/><path d="M62.90,66.33L73.48,71.63"/><path d="M63.72,39.00L64.86,39.48"/><path d="M64.86,58.08L67.14,59.16L66.00,58.62"/><path d="M66.00,39.97L67.14,40.45"/><path d="M67.14,59.16L69.30,60.16L68.28,59.70"/><path d="M69.41,60.23L71.69,61.31L70.55,60.77"/><path d="M77.96,47.25L75.10,46.02L68.58,47.73"/><path d="M69.41,48.14L71.89,49.23"/><path d="M71.42,72.70L248.46,161.84"/><path d="M71.65,72.44L248.73,161.43L248.62,161.60L251.04,159.84"/><path d="M71.69,61.31L75.10,62.93L73.97,62.39"/><path d="M71.48,50.68L274.52,141.25L275.38,140.82L274.24,141.07L71.52,50.67"/><path d="M71.69,42.38L72.83,42.86"/><path d="M71.78,72.34L248.75,161.19L248.70,161.76"/><path d="M274.52,141.25L274.91,140.95L71.74,50.59"/><path d="M71.94,50.52L274.68,140.76L276.34,139.74L274.88,140.87"/><path d="M73.52,49.96L276.47,139.62L73.46,49.98"/><path d="M75.10,62.93L77.38,64.01L76.24,63.47"/><path d="M74.95,44.82L76.40,44.45"/><path d="M78.22,43.58L74.97,42.22"/><path d="M77.38,64.01L79.66,65.08L78.52,64.55"/><path d="M76.45,44.45L76.66,44.54L76.24,44.31"/><path d="M78.35,44.96L76.77,44.55L77.38,44.39L77.11,44.46"/><path d="M76.52,44.43L76.77,44.55"/><path d="M76.92,44.51L81.03,46.24"/><path d="M79.66,45.12L80.79,45.60L77.81,44.34L77.38,44.39"/><path d="M78.49,43.70L83.01,45.60"/><path d="M103.21,58.13L79.41,47.87"/><path d="M81.23,46.18L78.58,45.06"/><path d="M79.66,65.08L81.93,66.16L80.79,65.62"/><path d="M285.77,133.33L283.95,134.61L284.48,133.97L285.74,133.31L283.76,134.62L283.34,134.47L80.30,47.55"/><path d="M283.89,134.65L80.24,47.58"/><path d="M283.67,134.69L283.92,134.33L80.63,47.44"/><path d="M81.93,66.16L84.21,67.24L83.07,66.70"/><path d="M284.08,134.25L80.80,47.38"/><path d="M81.79,45.99L80.79,45.60L81.76,46.01"/><path d="M83.12,46.55L85.68,47.64L84.76,47.68L82.57,46.75"/><path d="M85.34,48.17L88.67,49.59L82.38,46.82"/><path d="M84.21,67.24L86.48,68.32L85.34,67.78"/><path d="M84.21,47.04L83.08,46.57"/><path d="M85.34,55.18L86.35,55.62"/><path d="M85.06,47.80L84.84,47.86"/><path d="M87.50,47.48L84.30,46.14"/><path d="M86.48,68.32L88.76,69.39L87.62,68.86"/><path d="M85.34,47.52L85.64,47.65"/><path d="M87.09,50.00L88.55,49.61"/><path d="M87.62,49.14L88.67,49.59"/><path d="M88.76,69.39L90.88,70.38L89.90,69.93"/><path d="M88.60,49.61L99.00,54.01L97.59,54.49"/><path d="M99.06,52.34L87.78,47.60"/><path d="M89.06,49.66L89.88,49.44L88.92,49.70"/><path d="M89.88,49.44L92.17,50.41L91.03,49.93"/><path d="M89.27,49.61L95.20,52.10L95.79,51.94L92.17,50.41"/><path d="M91.03,70.47L94.45,72.09L92.17,71.01"/><path d="M93.31,50.89L94.45,51.37"/><path d="M94.45,72.09L96.72,73.17L95.59,72.63"/><path d="M95.20,52.10L94.99,52.16"/><path d="M94.87,52.22L99.07,54.04"/><path d="M95.59,51.85L95.79,51.94"/><path d="M96.72,73.17L99.00,74.24L97.86,73.70"/><path d="M99.00,74.24L101.28,75.32L100.14,74.78"/><path d="M99.13,54.08L100.41,53.86L99.71,54.09L110.38,58.84L285.56,133.22"/><path d="M99.61,54.12L99.20,54.05"/><path d="M99.00,53.97L99.44,54.17"/><path d="M99.79,54.07L109.54,58.17"/><path d="M109.46,56.71L99.34,52.46"/><path d="M101.28,75.32L103.55,76.40L102.41,75.86"/><path d="M100.41,53.86L101.28,54.26L100.41,53.89"/><path d="M101.28,54.26L102.41,54.74L101.28,54.26"/><path d="M103.55,76.40L105.83,77.48L104.69,76.94"/><path d="M102.41,54.74L104.58,55.62L103.55,55.22"/><path d="M104.69,55.70L108.10,57.14L106.97,56.66"/><path d="M105.83,77.48L108.10,78.55L106.97,78.02"/><path d="M108.10,78.55L110.38,79.63L109.24,79.09"/><path d="M108.10,57.14L110.38,58.10L109.24,57.62"/><path d="M109.80,58.28L110.64,58.64L111.23,58.46L110.38,58.10L111.23,58.46"/><path d="M113.55,58.43L109.75,56.83"/><path d="M110.38,79.63L112.66,80.71L111.52,80.17"/><path d="M119.48,62.66L120.62,63.14L110.38,58.79"/><path d="M110.64,58.64L110.43,58.71"/><path d="M112.66,80.71L114.86,81.73L113.79,81.25"/><path d="M114.93,81.79L118.34,83.40L117.21,82.86"/><path d="M275.31,140.70L276.50,139.80L275.48,140.76L276.56,141.45L289.13,132.23L113.83,58.55"/><path d="M118.34,83.40L120.62,84.48L119.48,83.94"/><path d="M120.62,84.48L122.90,85.56L121.76,85.02"/><path d="M191.17,93.07L192.31,93.55L120.62,63.14"/><path d="M122.90,85.56L125.17,86.64L124.03,86.10"/><path d="M124.03,72.27L122.90,71.77"/><path d="M125.17,86.64L127.45,87.71L126.31,87.17"/><path d="M127.45,87.71L129.72,88.79L128.59,88.25"/><path d="M129.72,88.79L132.00,89.87L130.86,89.33"/><path d="M132.00,89.87L134.28,90.95L133.14,90.41"/><path d="M134.28,90.95L136.44,91.95L135.41,91.49"/><path d="M136.55,92.02L138.78,93.08L137.69,92.56"/><path d="M138.83,93.10L142.24,94.72L141.10,94.18"/><path d="M141.10,79.81L142.24,80.32"/><path d="M142.24,94.72L144.52,95.80L143.38,95.26"/><path d="M144.52,95.80L146.79,96.87L145.66,96.33"/><path d="M146.79,96.87L149.07,97.95L147.93,97.41"/><path d="M149.07,97.95L151.34,99.03L150.21,98.49"/><path d="M151.34,99.03L153.62,100.11L152.48,99.57"/><path d="M153.62,100.11L155.90,101.18L154.76,100.64"/><path d="M155.90,101.18L158.17,102.26L157.03,101.72"/><path d="M158.17,102.26L160.42,103.30L159.31,102.80"/><path d="M160.45,103.34L163.86,104.96L162.72,104.42"/><path d="M163.86,104.96L166.14,106.03L165.00,105.49"/><path d="M166.14,106.03L168.41,107.11L167.28,106.57"/><path d="M168.41,107.11L170.69,108.19L169.55,107.65"/><path d="M170.69,108.19L172.97,109.27L171.83,108.73"/><path d="M172.97,109.27L175.24,110.34L174.10,109.80"/><path d="M175.24,110.34L177.52,111.42L176.38,110.88"/><path d="M177.52,111.42L179.79,112.50L178.66,111.96"/><path d="M179.79,112.50L181.99,113.51L180.93,113.04"/><path d="M182.07,113.58L185.48,115.19L184.33,114.65"/><path d="M185.48,115.19L187.76,116.27L186.62,115.73"/><path d="M187.76,116.27L190.03,117.35L188.90,116.81"/><path d="M190.03,117.35L192.31,118.43L191.17,117.89"/><path d="M192.31,118.43L194.59,119.50L193.45,118.96"/><path d="M192.31,93.55L263.42,123.71L262.86,123.48"/><path d="M194.59,119.50L196.86,120.58L195.72,120.04"/><path d="M196.86,120.58L199.14,121.65L198.00,121.12"/><path d="M199.14,121.65L201.41,122.71L200.28,122.19"/><path d="M198.45,119.93L199.03,120.71L198.46,119.83L199.05,120.66L221.23,131.12L199.03,120.71"/><path d="M208.82,113.73L198.85,119.46L198.84,119.19L198.52,119.63L198.81,119.50"/><path d="M198.46,119.65L198.71,119.24L208.87,113.40L208.85,113.69L210.00,113.48L211.03,113.74"/><path d="M198.46,119.88L198.47,119.79"/><path d="M198.83,119.15L209.21,113.24L208.84,113.38"/><path d="M201.41,122.71L203.57,123.73L202.55,123.25"/><path d="M203.69,123.78L205.91,124.86L204.83,124.32"/><path d="M205.97,124.86L209.38,126.48L208.24,125.94"/><path d="M209.38,126.48L211.66,127.56L210.52,127.02"/><path d="M209.37,113.21L210.39,113.23L209.44,113.22"/><path d="M210.52,113.25L211.66,113.99L233.66,124.02L233.77,123.86L232.14,122.81L210.52,113.25"/><path d="M211.66,127.56L213.93,128.63L212.79,128.09"/><path d="M213.93,128.63L216.21,129.71L215.07,129.17"/><path d="M216.21,129.71L218.48,130.79L217.34,130.25"/><path d="M217.34,113.50L218.48,114.00"/><path d="M218.48,130.79L220.76,131.87L219.62,131.33"/><path d="M220.76,131.87L223.03,132.94L221.90,132.40"/><path d="M221.21,131.17L222.60,131.44L223.68,131.15L223.67,130.80L222.54,131.09L221.26,130.82L221.23,131.12L222.38,131.38L223.51,131.17L233.83,124.45"/><path d="M223.03,132.94L225.15,133.95L224.17,133.48"/><path d="M233.50,124.45L223.63,130.78"/><path d="M223.68,131.15L233.45,124.86L233.82,123.86L233.10,123.27L233.07,123.61"/><path d="M225.31,134.02L227.55,135.08L226.45,134.56"/><path d="M227.59,135.10L231.00,136.71L229.86,136.18"/><path d="M231.00,136.71L233.28,137.79L232.14,137.25"/><path d="M233.28,137.79L235.55,138.87L234.41,138.33"/><path d="M233.80,124.19L233.53,124.82"/><path d="M233.71,124.12L233.72,124.16"/><path d="M233.79,123.99L233.78,124.11"/><path d="M235.55,138.87L237.83,139.95L236.69,139.41"/><path d="M237.83,139.95L240.10,141.02L238.97,140.49"/><path d="M240.08,176.99L239.89,176.88"/><path d="M239.94,177.07L239.87,177.04"/><path d="M240.45,175.59L242.58,170.70L243.99,168.45L246.24,165.73L269.51,147.01L262.16,152.78"/><path d="M240.58,175.54L242.66,170.77L244.03,168.56L246.28,165.86L262.31,152.85"/><path d="M240.10,141.02L242.38,142.10L241.24,141.56"/><path d="M242.38,142.10L244.66,143.18L243.52,142.64"/><path d="M244.66,143.18L246.93,144.26L245.79,143.72"/><path d="M246.93,144.26L249.13,145.30L248.07,144.80"/><path d="M248.50,161.78L248.53,161.74"/><path d="M248.76,161.45L250.77,159.79L248.92,161.32"/><path d="M249.21,145.33L252.62,146.95L251.46,146.43"/><path d="M250.77,159.79L250.89,159.74"/><path d="M252.62,146.95L254.90,148.03L253.76,147.49"/><path d="M254.90,148.03L257.17,149.11L256.03,148.57"/><path d="M254.90,120.10L255.40,120.31"/><path d="M256.88,151.58L259.38,152.78L261.37,151.32L259.40,153.06L256.83,151.90"/><path d="M259.21,153.04L259.38,152.78L259.36,152.97L256.84,151.85"/><path d="M261.37,151.32L259.62,152.53L256.91,151.35"/><path d="M257.17,121.07L258.10,121.46"/><path d="M257.17,149.11L259.45,150.18L258.31,149.64"/><path d="M260.91,151.73L259.62,152.73"/><path d="M259.58,152.64L261.33,151.26"/><path d="M259.45,150.18L261.55,151.18"/><path d="M261.55,151.42L261.50,151.37"/><path d="M261.47,151.29L261.48,151.34"/><path d="M261.42,151.15L261.05,150.97L261.42,151.15"/><path d="M260.59,150.72L261.05,150.97"/><path d="M263.45,123.73L266.12,124.86L265.13,124.44"/><path d="M266.12,124.86L267.41,125.41L266.28,124.93"/><path d="M267.41,125.41L285.62,133.13L283.97,134.38"/><path d="M269.54,146.82L276.56,141.51"/><path d="M269.40,146.59L289.03,132.22L290.06,131.68L291.15,131.57"/><path d="M269.51,147.01L276.52,141.71L269.66,147.08"/><path d="M274.80,141.08L274.80,141.13"/><path d="M274.91,140.95L276.46,139.74"/><path d="M274.24,138.63L275.38,139.13"/><path d="M276.58,139.70L276.58,139.83"/><path d="M276.67,141.77L289.31,132.65L289.21,132.40L289.78,132.06L290.80,131.75L291.62,131.97L292.19,132.69L292.45,133.68L292.01,132.56L291.30,132.05L290.40,132.10L289.31,132.65"/><path d="M276.52,141.71L289.03,132.69L290.17,132.07L291.30,132.05"/><path d="M285.72,133.20L285.62,133.21"/><path d="M292.09,135.93L292.21,135.77L287.67,133.85L287.49,133.98"/><path d="M287.67,133.85L287.87,133.71L292.30,135.59L292.21,135.77"/><path d="M287.87,133.71L288.90,132.98L292.32,134.41L292.04,132.96L291.46,132.19L290.38,132.14L289.27,132.68"/><path d="M288.90,132.98L289.31,132.70"/><path d="M291.31,132.11L292.21,132.97"/><path d="M292.40,134.78L292.32,134.41"/><path d="M292.51,134.06L292.45,133.68"/></g><g style="stroke:#000000;stroke-width:0.173"><path d="M236.97,108.94L291.15,131.57L292.20,132.57L292.51,133.95L292.21,135.81L287.49,133.98L269.69,147.09L252.37,160.98L247.19,165.29L244.93,167.68L242.83,170.86L240.73,175.63L240.21,175.54L239.93,177.12L12.79,54.73L13.08,52.22L13.84,50.66L14.92,49.35"/><path d="M42.17,40.05L21.17,46.50L16.78,48.04L15.07,49.21"/><path d="M45.33,60.55L37.83,56.76L40.87,55.39L48.54,59.22L45.63,60.52"/><path d="M44.06,55.62L43.80,55.71L71.38,69.37L78.46,66.61L50.78,53.35L44.06,55.62"/><path d="M62.48,36.04L60.81,35.62L59.53,35.73L44.14,39.52"/><path d="M49.52,62.67L52.57,61.30L58.40,64.13L55.25,65.57L49.52,62.67"/><path d="M70.81,72.96L73.48,71.63L62.90,66.37L59.73,67.84L66.64,71.34"/><path d="M62.60,36.10L79.81,43.28"/><path d="M70.59,73.05L70.27,73.18L66.96,71.50"/><path d="M71.94,49.22L68.58,47.73L74.94,45.98L77.92,47.26"/><path d="M79.37,47.88L103.21,58.13L96.72,60.16L73.57,49.94"/><path d="M80.85,46.30L76.45,44.45L75.10,44.78L79.48,46.75"/><path d="M79.96,43.35L84.32,45.17"/><path d="M80.88,47.35L82.85,48.19L84.21,47.83L82.21,46.88"/><path d="M85.56,45.69L93.85,49.15"/><path d="M87.29,49.95L87.09,50.00L92.99,52.52L94.45,52.11L88.60,49.61L87.29,49.95"/><path d="M107.46,54.83L93.99,49.21"/><path d="M97.60,54.49L108.42,59.11L109.94,58.65L99.13,54.08L97.60,54.49"/><path d="M116.28,58.52L107.60,54.90"/><path d="M116.44,58.59L132.57,65.32"/><path d="M152.68,73.73L132.73,65.39"/><path d="M236.61,108.79L152.86,73.80"/><path d="M199.05,120.32L221.29,130.80L222.27,131.05L223.63,130.78L233.72,124.24L233.07,123.61L210.19,113.53L208.82,113.73L198.83,119.50L198.57,119.89L199.05,120.32"/></g></g><g><g/></g><g><g><path style="stroke:#000000;stroke-width:0.350;stroke-dasharray:3.1 2.0 1.0 2.0" d="M165.78,78.93L171.59,63.69"/></g></g><g><g><path style="stroke:#000000;stroke-width:0.350;stroke-dasharray:3.1 2.0 1.0 2.0" d="M190.74,165.29L192.39,136.64"/></g></g><g id="PMI1.0"><g><path style="stroke:#000000;stroke-width:0.350" d="M99.57,24.10L99.42,38.40"/></g><g><path style="fill:#000000" d="M98.43,38.40L100.43,38.42L99.41,40.41z"/></g><g><path style="fill:#ffffff" d="M89.40,24.12L109.84,24.12L109.84,17.91L89.40,17.91z"/><path style="stroke:#000000;stroke-width:0.350;stroke-opacity:0.98" d="M89.40,24.12L109.84,24.12L109.84,17.91L89.40,17.91z"/><text xml:space="preserve" fill="#000000" stroke-width="0" x="90.17" y="22.37" font-size="3.78" opacity="1.00" font-family="MS Shell Dlg">020147311</text></g></g><g id="PMI2.0"><g><path style="stroke:#000000;stroke-width:0.350" d="M177.14,63.92L173.37,63.99"/></g><g><path style="fill:#000000" d="M173.35,62.99L173.39,64.99L171.37,64.02z"/></g><g><path style="fill:#ffffff" d="M177.14,66.84L199.71,66.84L199.71,60.63L177.14,60.63z"/><path style="stroke:#000000;stroke-width:0.350;stroke-opacity:0.98" d="M177.14,66.84L199.71,66.84L199.71,60.63L177.14,60.63z"/><text xml:space="preserve" fill="#000000" stroke-width="0" x="177.92" y="65.09" font-size="3.78" opacity="1.00" font-family="MS Shell Dlg">8057008088</text></g></g><g id="PMI3.0"><g><path style="stroke:#000000;stroke-width:0.350" d="M88.93,102.33L89.10,93.44"/></g><g><path style="fill:#000000" d="M90.11,93.46L88.11,93.42L89.15,91.44z"/></g><g><path style="fill:#ffffff" d="M78.65,108.54L99.10,108.54L99.10,102.33L78.65,102.33z"/><path style="stroke:#000000;stroke-width:0.350;stroke-opacity:0.98" d="M78.65,108.54L99.10,108.54L99.10,102.33L78.65,102.33z"/><text xml:space="preserve" fill="#000000" stroke-width="0" x="79.43" y="106.79" font-size="3.78" opacity="1.00" font-family="MS Shell Dlg">351230051</text></g></g><g id="PMI4.0"><g><path style="stroke:#000000;stroke-width:0.350" d="M190.60,171.15L190.72,165.80"/></g><g><path style="fill:#000000" d="M191.71,165.81L189.71,165.77L190.75,163.79z"/></g><g><path style="fill:#ffffff" d="M179.44,177.35L201.62,177.35L201.62,171.14L179.44,171.14z"/><path style="stroke:#000000;stroke-width:0.350;stroke-opacity:0.98" d="M179.44,177.35L201.62,177.35L201.62,171.14L179.44,171.14z"/><text xml:space="preserve" fill="#000000" stroke-width="0" x="180.22" y="175.60" font-size="3.79" opacity="1.00" font-family="MS Shell Dlg">2H8VC0901</text></g></g><g/><g><g><path style="stroke:#000000;stroke-width:0.350;fill:#ffffff" d="M212.13,31.50L209.83,31.73L207.54,32.08L205.27,32.55L203.04,33.12L200.83,33.81L198.66,34.61L196.53,35.51L194.45,36.52L192.42,37.64L190.45,38.85L188.55,40.16L186.71,41.56L184.94,43.06L183.25,44.63L181.65,46.30L180.12,48.04L178.69,49.85L177.35,51.73L176.10,53.68L174.96,55.69L173.91,57.75L172.97,59.87L172.14,62.02L171.59,63.65L171.59,63.65L172.44,61.52L173.39,59.43L174.45,57.40L175.61,55.41L176.86,53.49L178.21,51.64L179.65,49.85L181.18,48.14L182.79,46.50L184.49,44.95L186.25,43.49L188.09,42.11L190.00,40.83L191.96,39.65L193.99,38.56L196.06,37.58L198.18,36.71L200.34,35.94L202.54,35.28L204.77,34.72L207.02,34.29L209.30,33.96L211.58,33.75L212.27,33.71z"/></g><g><path style="fill:#ffffff" d="M227.67,32.60L227.60,34.12L227.38,35.62L227.01,37.10L226.50,38.53L225.85,39.90L225.07,41.20L224.16,42.42L223.14,43.55L222.02,44.57L220.80,45.47L219.49,46.25L218.12,46.90L216.69,47.41L215.22,47.78L213.71,48.01L212.20,48.08L210.68,48.01L209.18,47.78L207.70,47.41L206.27,46.90L204.90,46.25L203.60,45.47L202.38,44.57L201.25,43.55L200.23,42.42L199.33,41.20L198.55,39.90L197.90,38.53L197.39,37.10L197.02,35.62L196.80,34.12L196.72,32.60L196.80,31.09L197.02,29.59L197.39,28.11L197.90,26.68L198.55,25.31L199.33,24.01L200.23,22.79L201.25,21.66L202.38,20.64L203.60,19.74L204.90,18.96L206.27,18.31L207.70,17.79L209.18,17.43L210.68,17.20L212.20,17.13L213.71,17.20L215.22,17.43L216.69,17.79L218.12,18.31L219.49,18.96L220.80,19.74L222.02,20.64L223.14,21.66L224.16,22.79L225.07,24.01L225.85,25.31L226.50,26.68L227.01,28.11L227.38,29.59L227.60,31.09L227.67,32.60z"/><path style="stroke:#ff0000;stroke-width:2.660;stroke-opacity:0.00" d="M226.90,32.60L226.62,35.47L225.78,38.23L224.42,40.77L222.59,43.00L220.37,44.83L217.82,46.19L215.07,47.03L212.20,47.31L209.33,47.03L206.57,46.19L204.03,44.83L201.80,43.00L199.97,40.77L198.61,38.23L197.78,35.47L197.49,32.60L197.78,29.74L198.61,26.98L199.97,24.44L201.80,22.21L204.03,20.38L206.57,19.02L209.33,18.18L212.20,17.90L215.07,18.18L217.82,19.02L220.37,20.38L222.59,22.21L224.42,24.44L225.78,26.98L226.62,29.74L226.90,32.60"/><path style="stroke:#000000;stroke-width:0.067" d="M204.71,40.45L205.19,41.14"/><path style="stroke:#000000;stroke-width:0.067" d="M212.62,43.67L211.37,43.61L210.49,43.26L209.83,42.78L208.66,42.59L207.35,42.12L205.87,41.16L205.19,41.13"/><path style="stroke:#000000;stroke-width:0.067" d="M205.87,41.16L206.84,38.74L205.66,38.02"/><path style="stroke:#000000;stroke-width:0.067" d="M212.80,40.81L212.76,40.92L212.09,40.75L210.94,40.35L209.52,39.81L208.12,39.24L207.02,38.75L206.44,38.42L206.47,38.33L207.06,38.64L208.16,39.12L209.56,39.70L210.98,40.25L212.13,40.64L212.80,40.81L212.85,40.74"/><path style="stroke:#000000;stroke-width:0.067" d="M207.49,38.63L207.49,38.71L208.08,39.01L209.09,39.45L210.26,39.91L211.19,40.23L211.85,40.43L211.78,40.37L211.78,40.28L211.07,40.06L209.83,39.61L208.55,39.09L207.70,38.69L207.63,38.57L207.57,38.63L207.49,38.63"/><path style="stroke:#000000;stroke-width:0.067" d="M206.84,38.74L210.78,40.35L209.83,42.78"/><path style="stroke:#000000;stroke-width:0.067" d="M206.49,38.31L206.50,38.29"/><path style="stroke:#000000;stroke-width:0.067" d="M211.85,40.43L211.83,40.34L211.78,40.29"/><path style="stroke:#000000;stroke-width:0.067" d="M210.78,40.35L213.57,41.26"/><path style="stroke:#000000;stroke-width:0.067" d="M211.78,40.27L211.81,40.22"/><path style="stroke:#000000;stroke-width:0.067" d="M212.76,40.92L212.82,40.79"/><path style="stroke:#000000;stroke-width:0.067" d="M217.77,23.72L217.22,23.56L216.26,23.20L215.26,22.80L214.61,22.49L214.55,22.40"/><path style="stroke:#000000;stroke-width:0.067" d="M218.05,24.40L217.33,24.19L216.09,23.73L214.81,23.21L213.97,22.81L213.90,22.69"/><path style="stroke:#000000;stroke-width:0.460" d="M205.06,40.98L205.19,41.14L206.00,41.55L207.31,42.12L208.85,42.73L210.34,43.29L211.47,43.66L212.01,43.78L212.62,43.67L213.57,41.26L212.82,40.79L212.85,40.74L212.26,40.43L211.81,40.22L218.05,24.40L217.77,23.72L217.70,23.64L217.06,23.32L216.06,22.92L215.10,22.57L214.55,22.40L213.90,22.69L207.63,38.57L207.20,38.42L206.52,38.24L206.50,38.29L205.66,38.02L204.71,40.45L205.06,40.98"/><path style="stroke:#00ff00;stroke-width:0.350" d="M227.67,32.60L227.60,34.12L227.38,35.62L227.01,37.10L226.50,38.53L225.85,39.90L225.07,41.20L224.16,42.42L223.14,43.55L222.02,44.57L220.80,45.47L219.49,46.25L218.12,46.90L216.69,47.41L215.22,47.78L213.71,48.01L212.20,48.08L210.68,48.01L209.18,47.78L207.70,47.41L206.27,46.90L204.90,46.25L203.60,45.47L202.38,44.57L201.25,43.55L200.23,42.42L199.33,41.20L198.55,39.90L197.90,38.53L197.39,37.10L197.02,35.62L196.80,34.12L196.72,32.60L196.80,31.09L197.02,29.59L197.39,28.11L197.90,26.68L198.55,25.31L199.33,24.01L200.23,22.79L201.25,21.66L202.38,20.64L203.60,19.74L204.90,18.96L206.27,18.31L207.70,17.79L209.18,17.43L210.68,17.20L212.20,17.13L213.71,17.20L215.22,17.43L216.69,17.79L218.12,18.31L219.49,18.96L220.80,19.74L222.02,20.64L223.14,21.66L224.16,22.79L225.07,24.01L225.85,25.31L226.50,26.68L227.01,28.11L227.38,29.59L227.60,31.09L227.67,32.60z"/></g></g><g><g><path style="stroke:#000000;stroke-width:0.350;fill:#ffffff" d="M136.48,157.90L138.34,159.48L140.29,160.97L142.30,162.36L144.38,163.65L146.52,164.83L148.71,165.90L150.96,166.87L153.26,167.72L155.59,168.45L157.96,169.07L160.35,169.57L162.77,169.94L165.20,170.20L167.64,170.33L170.09,170.34L172.53,170.23L174.97,170.00L177.39,169.65L179.79,169.17L182.16,168.58L184.50,167.87L186.80,167.04L189.06,166.10L190.73,165.31L190.73,165.31L188.48,166.22L186.18,167.02L183.85,167.70L181.49,168.26L179.11,168.70L176.70,169.02L174.28,169.23L171.86,169.31L169.43,169.27L167.01,169.11L164.60,168.83L162.20,168.43L159.83,167.91L157.49,167.27L155.18,166.51L152.92,165.64L150.70,164.66L148.53,163.57L146.42,162.37L144.37,161.07L142.39,159.67L140.48,158.17L138.65,156.57L138.13,156.09z"/></g><g><path style="fill:#ffffff" d="M154.38,156.99L154.30,158.67L154.06,160.33L153.65,161.95L153.08,163.53L152.37,165.04L151.51,166.48L150.51,167.83L149.38,169.07L148.14,170.19L146.79,171.19L145.36,172.05L143.84,172.77L142.26,173.33L140.64,173.74L138.98,173.99L137.31,174.07L135.63,173.99L133.98,173.74L132.35,173.33L130.77,172.77L129.26,172.05L127.82,171.19L126.48,170.19L125.23,169.07L124.11,167.83L123.11,166.48L122.25,165.04L121.53,163.53L120.97,161.95L120.56,160.33L120.31,158.67L120.23,156.99L120.31,155.32L120.56,153.66L120.97,152.04L121.53,150.46L122.25,148.94L123.11,147.51L124.11,146.16L125.23,144.92L126.48,143.79L127.82,142.80L129.26,141.93L130.77,141.22L132.35,140.65L133.98,140.25L135.63,140.00L137.31,139.92L138.98,140.00L140.64,140.25L142.26,140.65L143.84,141.22L145.36,141.93L146.79,142.80L148.14,143.79L149.38,144.92L150.51,146.16L151.51,147.51L152.37,148.94L153.08,150.46L153.65,152.04L154.06,153.66L154.30,155.32L154.38,156.99z"/><path style="stroke:#ff0000;stroke-width:2.660;stroke-opacity:0.00" d="M153.53,156.99L153.22,160.16L152.30,163.20L150.80,166.01L148.78,168.46L146.32,170.48L143.52,171.98L140.47,172.90L137.31,173.22L134.14,172.90L131.10,171.98L128.30,170.48L125.84,168.46L123.82,166.01L122.32,163.20L121.40,160.16L121.09,156.99L121.40,153.83L122.32,150.79L123.82,147.98L125.84,145.52L128.30,143.51L131.10,142.01L134.14,141.08L137.31,140.77L140.47,141.08L143.52,142.01L146.32,143.51L148.78,145.52L150.80,147.98L152.30,150.79L153.22,153.83L153.53,156.99"/><path style="stroke:#000000;stroke-width:0.067" d="M137.50,170.05L139.61,144.64L140.00,144.22"/><path style="stroke:#000000;stroke-width:0.067" d="M137.48,143.03L137.19,143.39L137.35,143.79L137.91,144.09L138.63,144.16L139.25,143.99L139.53,143.63L139.37,143.22"/><path style="stroke:#000000;stroke-width:0.067" d="M136.67,143.67L136.72,144.16L137.21,144.59L138.00,144.86L138.88,144.87L139.61,144.64L139.25,143.99"/><path style="stroke:#000000;stroke-width:0.067" d="M139.44,143.29L139.44,143.28"/><path style="stroke:#000000;stroke-width:0.460" d="M135.12,170.02L135.90,170.27L136.78,170.30L137.50,170.05L137.88,169.63L140.00,144.22L139.94,143.72L139.37,143.22L138.82,142.93L138.10,142.85L137.48,143.03L137.05,143.25L136.67,143.67L134.57,169.08L134.63,169.58L135.12,170.02"/><path style="stroke:#00ff00;stroke-width:0.350" d="M154.38,156.99L154.30,158.67L154.06,160.33L153.65,161.95L153.08,163.53L152.37,165.04L151.51,166.48L150.51,167.83L149.38,169.07L148.14,170.19L146.79,171.19L145.36,172.05L143.84,172.77L142.26,173.33L140.64,173.74L138.98,173.99L137.31,174.07L135.63,173.99L133.98,173.74L132.35,173.33L130.77,172.77L129.26,172.05L127.82,171.19L126.48,170.19L125.23,169.07L124.11,167.83L123.11,166.48L122.25,165.04L121.53,163.53L120.97,161.95L120.56,160.33L120.31,158.67L120.23,156.99L120.31,155.32L120.56,153.66L120.97,152.04L121.53,150.46L122.25,148.94L123.11,147.51L124.11,146.16L125.23,144.92L126.48,143.79L127.82,142.80L129.26,141.93L130.77,141.22L132.35,140.65L133.98,140.25L135.63,140.00L137.31,139.92L138.98,140.00L140.64,140.25L142.26,140.65L143.84,141.22L145.36,141.93L146.79,142.80L148.14,143.79L149.38,144.92L150.51,146.16L151.51,147.51L152.37,148.94L153.08,150.46L153.65,152.04L154.06,153.66L154.30,155.32L154.38,156.99z"/></g></g><g id="paperID" visibility="hidden" opacity="0.00" transform="scale(0.000100)"><path style="stroke:#000000;stroke-width:0.500;fill:#e6e6e6;fill-rule:evenodd" d="M-2000.00,-2000.00L2297.00,-2000.00L2297.00,2210.00L-2000.00,2210.00zM0.00,0.00L297.00,0.00L297.00,210.00L0.00,210.00z"/><path style="fill:#000000;fill-opacity:0.118" d="M3.00,210.00L297.00,210.00L297.00,3.00L300.00,3.00L300.00,213.00L3.00,213.00z"/></g><g id="hotspot.0" onmouseover="ShowHotSpot(evt,'0')" onmouseout="HideHotSpot(evt,'0')" onmousemove="ShowToolTip(evt,'0',&quot;3dp1107113 (I_3DPart1107113.2)&quot;)" opacity="0"><path style="fill:#00ff00;fill-rule:evenodd" d="M98.67,29.79L99.17,29.87L99.18,24.38L89.10,24.23L89.18,18.06L109.92,17.98L109.92,24.23L99.84,24.38L99.85,30.10L114.79,35.63L115.53,36.50L100.11,41.03L99.17,41.04L57.64,24.65L58.66,24.13L72.22,20.55L73.60,20.55zM83.56,44.34L85.90,45.48L70.70,51.00L67.96,51.78L27.49,33.36L27.76,33.15L27.75,32.57L43.31,28.22L44.95,28.21zM94.04,28.75L99.20,30.75L99.16,38.28L98.57,38.48L98.62,38.96L98.96,39.51L98.92,39.83L98.41,39.77L59.73,24.65L59.44,24.38L73.11,21.08zM84.34,45.12L68.91,50.25L67.95,50.25L29.80,33.08L29.51,32.83L43.83,28.47L44.69,28.46zM113.50,35.92L100.64,40.01L99.57,39.99L100.23,38.78L99.88,38.27L99.85,31.02L100.17,31.00z"/></g><g id="hotspot.1" onmouseover="ShowHotSpot(evt,'1')" onmouseout="HideHotSpot(evt,'1')" onmousemove="ShowToolTip(evt,'1',&quot;BU LNG 08030125&quot;)" opacity="0"><path style="fill:#00ff00;fill-rule:evenodd" d="M199.99,60.94L199.89,66.87L176.84,66.95L176.69,64.28L173.53,64.31L173.37,64.86L171.21,64.02L171.58,63.55L172.25,63.56L173.36,63.04L173.53,63.60L176.69,63.62L176.92,60.78L199.74,60.68z"/></g><g id="hotspot.2" onmouseover="ShowHotSpot(evt,'2')" onmouseout="HideHotSpot(evt,'2')" onmousemove="ShowToolTip(evt,'2',&quot;3dp920429&quot;)" opacity="0"><path style="fill:#00ff00;fill-rule:evenodd" d="M62.07,35.90L72.56,40.25L74.64,41.24L74.86,42.40L75.05,41.51L75.63,41.49L77.92,42.57L78.45,43.94L78.71,42.78L81.77,44.09L84.07,45.20L81.44,46.16L80.49,46.16L76.93,44.58L75.78,44.58L75.30,44.85L79.22,46.64L79.17,46.89L77.68,47.18L75.39,46.12L74.27,46.13L68.91,47.67L68.95,47.89L71.80,49.21L68.91,50.25L67.95,50.25L44.64,39.73L44.35,39.48L58.67,35.90L61.05,35.65zM67.96,51.78L70.70,51.00L73.62,49.98L96.09,59.96L97.30,59.95L103.04,58.13L79.94,48.19L79.62,47.89L81.01,47.39L82.27,47.94L83.79,47.94L84.07,47.66L82.46,46.90L85.01,45.87L86.14,45.86L87.43,46.62L87.66,48.03L87.91,46.62L98.91,51.25L99.17,52.89L99.42,51.49L106.33,54.32L109.43,55.83L109.66,57.24L109.92,55.83L113.50,57.39L113.75,58.78L113.92,57.62L114.24,57.60L236.55,108.81L236.55,110.12L236.80,110.18L236.97,109.04L237.29,109.02L291.55,131.83L292.32,132.84L292.57,134.40L292.30,135.77L291.53,135.69L287.96,134.11L287.37,134.10L278.75,140.35L271.59,145.73L260.47,154.31L247.97,164.58L245.39,167.11L242.60,171.23L240.87,175.38L240.09,175.87L239.86,176.95L239.36,176.89L89.45,95.99L89.35,102.25L99.18,102.40L99.18,108.65L78.35,108.65L78.44,102.48L88.69,102.25L88.71,95.74L12.96,54.83L12.94,52.60L14.26,50.07L16.17,48.41L17.75,47.68L32.58,42.81L41.53,40.25L42.65,40.24zM94.30,52.01L94.03,52.28L92.50,52.29L87.05,49.97L88.94,49.69zM78.45,66.60L71.98,69.17L71.02,69.18L44.14,55.82L44.09,55.60L49.96,53.55L51.09,53.54zM107.61,57.64L109.69,58.65L109.09,58.94L107.85,58.94L98.03,54.62L98.03,54.34L99.21,54.07zM48.52,59.19L45.69,60.55L45.74,61.56L45.44,61.28L45.18,60.47L38.18,56.93L38.18,56.65L40.24,55.58L41.37,55.58zM36.58,55.95L36.78,56.95L36.47,56.67L36.47,55.85zM58.24,64.04L55.88,65.34L54.64,65.33L49.68,62.73L52.00,61.47L53.14,61.47zM73.10,71.49L73.10,71.77L71.97,72.22L70.95,73.01L71.02,74.39L70.72,74.39L70.52,73.25L67.43,71.66L67.13,71.72L66.91,72.31L66.70,71.43L59.92,67.84L62.24,66.58L63.37,66.58zM56.95,67.15L56.66,67.22L56.70,65.81zM233.22,123.64L233.75,124.27L223.65,130.79L221.18,130.82L198.95,120.30L198.59,119.78L199.96,118.87L209.07,113.66L210.71,113.66zM275.69,138.11L275.45,138.35L275.41,136.97L275.69,136.68zM256.73,152.68L256.43,152.68L256.48,151.33L256.76,150.75z"/></g><g id="hotspot.3" onmouseover="ShowHotSpot(evt,'3')" onmouseout="HideHotSpot(evt,'3')" onmousemove="ShowToolTip(evt,'3',&quot;3dp946773 (I_BU LNG 10090150.74)&quot;)" opacity="0"><path style="fill:#00ff00;fill-rule:evenodd" d="M78.15,42.74L78.41,42.78L78.45,43.94zM36.58,55.95L36.78,56.95L36.47,56.67L36.47,55.85zM45.73,61.56L45.43,61.29L45.43,60.20zM56.95,67.15L56.66,67.22L56.70,65.81zM66.64,71.14L66.90,71.17L66.93,72.33zM71.02,74.39L70.72,74.39L70.77,72.98zM236.75,108.27L237.01,108.23L236.80,110.17L236.55,110.12zM275.69,138.11L275.45,138.35L275.41,136.97L275.69,136.68zM256.73,152.68L256.43,152.68L256.48,151.33L256.76,150.75zM191.57,165.36L191.52,165.66L190.93,165.86L190.91,171.06L201.53,171.19L201.78,171.45L201.68,177.38L179.15,177.46L179.23,171.30L190.25,171.06L190.46,165.84L189.91,165.67L189.94,165.17L190.78,163.77z"/></g></g></svg>
