<?xml version="1.0" encoding="UTF-8" standalone="no"?>
<svg xmlns="http://www.w3.org/2000/svg" xmlns:xlink="http://www.w3.org/1999/xlink" width="297.000mm" height="210.000mm" viewBox="0.000000 0.000000 297.000000 210.000000" stroke-linejoin="round" stroke-linecap="round" fill="none" fill-rule="evenodd"><desc>Composer Export</desc><script type="text/ecmascript"><![CDATA[
if(typeof(top) != "undefined")
{
	top.ShowPaper = ShowPaper;
}
function ShowHotSpot(evt,hotspotid)
{
	var svgDocument = evt.target.ownerDocument;
	var strId = "hotspot."+hotspotid;
	var hotspot = svgDocument.getElementById(strId);
	if(hotspot)
		hotspot.setAttribute("opacity",".5");
}
function HideHotSpot(evt,hotspotid)
{
	var svgDocument = evt.target.ownerDocument;
	var strId = "hotspot."+hotspotid;
	var hotspot = svgDocument.getElementById(strId);
	if(hotspot)
		hotspot.setAttribute("opacity","0");

	var toolTip = svgDocument.getElementById('ToolTip');
	if(toolTip)
		toolTip.setAttribute("visibility","hidden");
}
function ShowToolTip(evt,hotspotid,strTooltip)
{
	if(strTooltip=="")
	return;

	// change text
	var svgDocument = evt.target.ownerDocument;
	var tiptext = svgDocument.getElementById('ToolTipText');
	if( !tiptext )
	return;
	tiptext.firstChild.nodeValue = " " + strTooltip + "  " ;

	// show tooltip before, else some refresh issue

	var toolTip = svgDocument.getElementById('ToolTip');
	if(!toolTip)
	return;

	toolTip.setAttribute("visibility","visible");
	toolTip.setAttribute("opacity",".95");

	// move tooltip
	// get viewbox

	var root = svgDocument.documentElement;
	var vbox = (root.getAttribute("viewBox")).split(' ');
	var x0 = parseFloat(vbox[0]);
	var y0 = parseFloat(vbox[1]);
	var vboxW = parseFloat(vbox[2]);
	var vboxH = parseFloat(vbox[3]);

	// get default width of svg

	var strW = root.getAttribute("width");
	var svgW = parseFloat(strW);
	if(strW.indexOf('mm') != -1)
	svgW *= 3.779;

	var strH = root.getAttribute("height");
	var svgH = parseFloat(strH);
	if(strH.indexOf('mm') != -1)
	svgH *= 3.779;  	// 96 dpi  -> 96/25.4 = 3.779

	// update the viewbox / width / height if svg is embedded in html with zoom fit all
	var realx0 = x0;
	var realy0 = y0;
	var realvboxW = vboxW;
	var realvboxH = vboxH;
	var realsvgW = svgW;
	var realsvgH = svgH;

	if ((typeof(top) == "undefined") || (typeof(top.svgctl1) != "undefined")) // embedded in html
	{
		// get window size in pxl

		svgW = window.innerWidth;
		svgH = window.innerHeight;

		// calculate real viewbox

		realsvgW = svgW;
		realsvgH = svgH;
		if((svgW / svgH) > (vboxW / vboxH))
		{
			realvboxW = (vboxH * svgW) / svgH;
			realvboxH = vboxH;
			realx0 = x0 - (realvboxW - vboxW)/2 ;
		}
		else
		{
			realvboxH = (vboxW * svgH) / svgW;
			realvboxW = vboxW;
			realy0 = y0 - (realvboxH - vboxH)/2 ;
		}
	}

	// get user zoom/pan

	var newScale = root.currentScale;
	var translation = root.currentTranslate;

	// transform pxl to user unit

	var xPos = (((evt.clientX+10- translation.x)/newScale) * realvboxW)/realsvgW  + realx0 ;
	var yPos = (((evt.clientY+5- translation.y)/newScale) * realvboxH)/ realsvgH  + realy0 ;
	var scaleForWidth = ( (1 / newScale) * realvboxH) / realsvgH;

	// move tooltip

	toolTip.setAttribute("transform", "translate(" + xPos + "," + yPos + ")" );

	// resize tooltip

	var fontsize = 12;
	tiptext.setAttribute("font-size",fontsize*scaleForWidth);
	tiptext.setAttribute("y", fontsize*scaleForWidth);
	var tipBG = svgDocument.getElementById('ToolTipBG');
	var outline = tiptext.getBBox();
	if(tipBG)
	{
		tipBG.setAttribute("stroke-width", 1*scaleForWidth);
		tipBG.setAttribute("width", Number(outline.width) );
		tipBG.setAttribute("height", Number(outline.height) + fontsize*.5*scaleForWidth );
	}
	var ToolTipShadow = svgDocument.getElementById('ToolTipShadow');
	if(ToolTipShadow)
	{
		ToolTipShadow.setAttribute("width", Number(outline.width) );
		ToolTipShadow.setAttribute("height", Number(outline.height) + fontsize*.5*scaleForWidth );
		ToolTipShadow.setAttribute("x", 3*scaleForWidth);
		ToolTipShadow.setAttribute("y", 3*scaleForWidth);
	}
}
function ShowPaper()
{
  var svgDocument = getDocument();
  var paper = svgDocument.getElementById("paperID");
  if(paper)
  {
    paper.setAttribute("transform","scale(1)");
    paper.setAttribute("opacity","1");
    paper.setAttribute("visibility","visible");
  }
  var svg = svgDocument.getRootElement();
  if(svg)
  {
    svg.setAttribute("width","307.000mm");
    svg.setAttribute("height","220.000mm");
    svg.setAttribute("viewBox","-5.000000 -5.000000 307.000000 220.000000");
  }
}
]]></script><defs/><g><g id="Actor_.0"><g style="stroke:#000000;stroke-width:0.123"><path d="M152.65,40.61L152.19,40.42L166.54,36.55L167.01,36.71"/><path d="M152.01,41.26L151.95,41.30L151.63,41.17L152.03,41.05"/><path d="M151.98,41.27L151.98,41.31"/><path d="M152.65,40.60L166.65,36.82"/><path d="M166.65,36.85L153.12,40.51"/><path d="M153.82,40.79L166.54,36.96"/><path d="M166.51,36.89L166.47,36.98"/><path d="M166.53,36.90L166.51,36.90"/></g></g><g id="Actor_.1"><g style="stroke:#000000;stroke-width:0.123"><path d="M193.25,86.68L119.93,53.08L120.27,52.90L120.68,53.06L120.72,52.59L121.23,52.79L121.71,52.59L193.01,85.08L192.54,85.35L193.15,85.63L193.09,86.26L193.58,86.48L193.25,86.68L119.93,53.04"/><path d="M193.21,85.66L193.10,86.21"/><path d="M193.10,86.22L193.08,86.25"/><path d="M193.58,86.48L193.24,86.73"/></g></g><g id="Actor_.2"><g style="stroke:#000000;stroke-width:0.123"><path d="M192.56,85.36L193.00,85.09"/><path d="M193.09,86.26L193.10,86.21L193.13,86.28L193.58,86.48L210.07,76.73L209.63,76.55L209.59,76.48L209.52,76.53L209.64,75.67L209.62,75.58L208.96,75.29L193.01,85.08"/><path d="M193.58,86.48L193.58,86.53L210.06,76.78L210.07,76.73"/><path d="M193.15,86.18L193.19,85.72"/><path d="M193.21,85.69L193.24,85.78L193.19,86.16L193.10,86.21"/></g></g><g id="Actor_.3"><g style="stroke:#000000;stroke-width:0.123"><path d="M222.46,68.08L222.60,68.02L153.06,40.49L152.72,40.59L152.14,40.41L152.01,41.26L151.63,41.17L151.37,41.25L222.82,69.84L223.09,69.71L222.63,69.48"/><path d="M223.10,69.66L222.83,69.79L151.34,41.26"/><path d="M222.23,68.19L222.87,68.45L222.66,69.42"/><path d="M222.83,69.79L222.82,69.84"/><path d="M222.69,69.41L222.91,68.46"/></g></g><g id="Actor_.4"><g style="stroke:#000000;stroke-width:0.123"><path d="M120.63,53.06L120.63,53.02L120.59,53.05L120.27,52.90L120.68,52.74"/><path d="M120.63,53.02L120.69,53.00"/><path d="M120.78,52.58L137.92,45.37L138.41,45.56L121.71,52.59"/><path d="M137.96,45.78L121.76,52.62"/><path d="M121.80,52.63L137.88,46.27L137.91,46.23L137.92,45.80"/><path d="M137.88,46.27L137.94,46.25"/><path d="M138.41,45.56L138.41,45.57"/></g></g><g id="Actor_.5"><g style="stroke:#000000;stroke-width:0.123"><path d="M207.96,75.90L137.91,46.20"/><path d="M208.70,75.45L208.54,75.54L137.97,45.74L138.41,45.57"/><path d="M208.50,75.57L137.97,45.74"/><path d="M137.93,45.37L209.61,75.57"/><path d="M137.89,45.35L137.89,45.38"/><path d="M209.61,76.23L210.37,76.55L210.07,76.73L209.63,76.55"/><path d="M209.66,75.59L209.54,76.53"/><path d="M209.68,75.59L209.57,76.50"/><path d="M210.37,76.55L210.07,76.73"/></g></g><g id="Actor_.6"><g style="stroke:#000000;stroke-width:0.123"><path d="M166.54,36.88L166.53,36.96"/><path d="M166.54,36.97L234.65,62.61"/><path d="M234.87,62.51L166.65,36.85L166.97,36.72L166.60,36.54L235.88,62.59"/><path d="M166.65,36.82L234.93,62.48L235.26,62.33"/><path d="M166.55,36.53L166.55,36.55"/><path d="M235.88,62.81L236.59,63.07L236.35,63.19L235.93,63.03"/><path d="M235.90,62.55L235.27,62.32"/><path d="M235.84,63.00L235.83,62.98"/><path d="M235.91,62.55L235.91,62.66"/><path d="M236.59,63.07L236.35,63.19"/></g></g><g id="Actor_.7"><g style="stroke:#000000;stroke-width:0.123"><path d="M234.93,62.48L222.23,68.18L222.87,68.45"/><path d="M222.23,68.18L222.23,68.19"/><path d="M222.90,68.52L222.71,69.40L222.63,69.43L222.63,69.48"/><path d="M234.93,62.48L235.26,62.33L235.85,62.55L235.90,62.60L235.91,62.67L235.83,63.00L235.90,62.98L235.93,63.03L236.35,63.19L236.34,63.23L223.09,69.71L223.10,69.66L222.67,69.49L222.63,69.43"/><path d="M223.10,69.66L236.35,63.19"/></g></g><g id="Actor_95.0"><g style="stroke:#000000;stroke-width:0.123"><path d="M224.52,181.01L224.76,180.50L223.82,182.91L222.46,182.55L22.57,58.52L21.88,58.09L21.75,57.34L22.66,54.60L23.96,52.96L25.90,51.64L37.12,47.99L60.63,41.60L67.01,40.16L69.13,40.34L267.47,137.19L268.02,137.99"/><path d="M70.07,58.79L70.82,58.52L67.40,59.71L67.43,60.21L68.58,60.82L67.66,60.34"/><path d="M67.46,59.67L67.54,59.64"/><path d="M67.23,59.95L67.25,60.03"/><path d="M67.24,59.99L67.26,60.21"/><path d="M78.41,56.80L76.83,56.85L67.30,60.08"/><path d="M68.80,60.96L71.10,62.22L69.95,61.59"/><path d="M71.10,62.22L73.39,63.47L72.24,62.84"/><path d="M71.10,58.45L74.43,57.38L73.39,57.71"/><path d="M73.39,63.47L75.68,64.73L74.54,64.10"/><path d="M74.54,57.34L77.48,56.48L79.05,56.92L78.49,56.63"/><path d="M75.68,64.73L77.98,65.98L76.83,65.35"/><path d="M77.98,65.98L79.03,66.56L77.98,65.98"/><path d="M78.53,56.86L90.43,63.07L80.77,66.69L79.12,66.61"/><path d="M79.94,57.38L80.27,57.55L79.12,56.95L79.94,57.38"/><path d="M80.27,57.55L82.56,58.75L81.42,58.15"/><path d="M80.77,66.69L81.42,66.46"/><path d="M82.56,58.75L84.86,59.94L83.71,59.34"/><path d="M84.86,65.22L83.71,65.63"/><path d="M84.86,59.94L87.15,61.13L86.00,60.54"/><path d="M87.15,64.43L87.83,64.17"/><path d="M87.15,61.13L89.44,62.33L88.30,61.73"/><path d="M89.44,63.64L90.14,63.39"/><path d="M90.53,63.11L89.44,62.33"/><path d="M90.54,63.03L90.56,63.22"/><path d="M90.57,63.26L90.53,63.38"/><path d="M127.29,106.58L128.25,106.04L142.80,114.44L139.90,116.17L139.05,115.90L125.33,107.87L127.29,106.58L126.14,107.21"/><path d="M128.43,106.15L129.58,106.81"/><path d="M131.87,108.13L130.73,107.47"/><path d="M133.02,108.80L134.17,109.46"/><path d="M134.86,107.87L135.31,107.65L134.86,107.87"/><path d="M134.64,108.00L178.82,133.31L185.37,128.71L141.39,104.29L135.31,107.65"/><path d="M135.31,110.12L142.80,114.44"/><path d="M136.46,107.01L137.61,106.37"/><path d="M138.75,105.74L139.90,105.11"/><path d="M141.05,104.48L142.19,104.73"/><path d="M143.34,105.37L144.49,106.01"/><path d="M147.93,119.29L149.51,118.28L158.75,123.64L155.68,125.64L146.40,120.21L147.80,119.34L146.78,120.00"/><path d="M145.63,106.64L185.37,128.71"/><path d="M149.51,118.28L158.75,123.64"/><path d="M149.51,118.31L149.07,118.58"/><path d="M159.01,95.25L158.28,95.57L159.39,95.06L159.01,95.25"/><path d="M158.28,95.57L201.64,117.89L207.24,114.39L164.16,92.80L159.39,95.06"/><path d="M161.24,94.17L161.69,93.96"/><path d="M160.60,89.80L174.89,96.93L177.40,95.71L163.14,88.70L160.60,89.80L161.69,89.34"/><path d="M162.70,129.67L162.70,129.67"/><path d="M162.83,129.58L165.72,127.63L179.93,135.86L176.90,138.07L162.64,129.71"/><path d="M162.83,93.42L163.98,92.89"/><path d="M162.83,88.97L163.98,89.54L162.69,88.90"/><path d="M163.98,89.54L166.25,90.66L165.13,90.10"/><path d="M163.98,89.11L177.37,95.72"/><path d="M163.98,128.83L165.72,127.63"/><path d="M207.21,114.41L164.16,92.80"/><path d="M165.72,127.66L179.93,135.86"/><path d="M168.56,91.80L169.71,92.37L166.27,90.67"/><path d="M169.71,92.37L172.01,93.51L170.86,92.94"/><path d="M172.01,93.51L174.30,94.64L173.15,94.07"/><path d="M174.30,94.64L176.59,95.78L175.45,95.21"/><path d="M176.59,95.78L176.92,95.94"/><path d="M192.87,103.38L183.91,98.95L182.33,99.76L183.91,98.95L192.65,103.24L190.43,104.69L181.42,100.19L182.12,99.84L181.42,100.19"/><path d="M183.47,99.18L185.77,100.32L184.62,99.75"/><path d="M185.77,100.32L188.06,101.45L186.92,100.88"/><path d="M188.06,101.45L190.36,102.59L189.21,102.02"/><path d="M190.36,102.59L192.43,103.61L191.50,103.15"/><path d="M197.17,108.05L210.91,114.92L213.04,113.61L199.70,106.72L197.17,108.05"/><path d="M197.24,108.04L198.38,107.40"/><path d="M200.68,107.69L201.82,108.26L199.17,106.95"/><path d="M199.53,106.75L213.31,113.44"/><path d="M201.82,108.26L204.12,109.40L202.97,108.83"/><path d="M204.12,109.40L206.41,110.53L205.26,109.96"/><path d="M206.41,110.53L208.70,111.67L207.56,111.10"/><path d="M208.70,111.67L211.00,112.80L209.85,112.23"/><path d="M211.00,112.80L212.68,113.61L212.14,113.37"/><path d="M223.09,182.85L223.11,182.95"/><path d="M223.30,182.80L223.26,182.80"/><path d="M223.53,181.54L224.23,181.72"/><path d="M223.83,182.88L223.82,182.91"/><path d="M224.85,180.29L228.62,174.06L233.76,168.69"/><path d="M230.00,171.72L230.03,171.36"/><path d="M230.01,171.75L230.41,172.00"/><path d="M233.93,168.52L237.15,165.37L236.22,166.27"/><path d="M237.27,165.25L240.81,161.81L239.66,162.92"/><path d="M240.84,161.80L241.96,160.71L240.84,161.80"/><path d="M241.96,160.71L246.54,156.32L245.60,157.21"/><path d="M243.14,158.61L243.09,158.97"/><path d="M243.10,159.00L243.49,159.23"/><path d="M246.54,156.32L248.02,154.92L247.69,155.23"/><path d="M248.02,154.92L249.77,153.28L249.35,153.05"/><path d="M249.39,153.11L249.40,152.70"/><path d="M249.25,153.77L249.98,153.08L249.76,153.31"/><path d="M249.98,153.08L252.28,150.95L251.71,151.48"/><path d="M252.28,150.95L254.20,149.18L253.42,149.89"/><path d="M258.01,145.71L259.16,144.68L254.20,149.18"/><path d="M255.31,147.26L255.64,147.86"/><path d="M255.26,147.65L255.25,147.62"/><path d="M260.54,143.44L261.45,142.63L259.16,144.68"/><path d="M263.12,141.15L263.61,140.71L261.45,142.63"/><path d="M263.75,140.59L266.97,137.91L266.10,138.55L265.78,137.97"/><path d="M266.02,140.00L264.99,139.52L267.46,140.74L266.02,140.00"/><path d="M265.72,138.35L265.71,138.31"/><path d="M266.04,138.58L266.10,138.55"/><path d="M268.23,138.81L268.05,138.09L267.42,137.79L268.18,138.33L268.16,139.90L267.80,139.65"/><path d="M267.56,140.63L267.46,140.74"/><path d="M267.57,140.57L267.60,137.79"/><path d="M267.59,140.60L267.94,140.78L268.24,139.13"/><path d="M268.11,140.17L267.94,140.78"/><path d="M268.16,139.90L268.16,139.87"/><path d="M267.89,138.94L267.89,138.98"/><path d="M267.80,137.81L267.46,137.64"/><path d="M267.82,137.55L267.73,137.43"/></g></g><g><g><path style="stroke:#000000;stroke-width:0.210;stroke-dasharray:2.1 2.1" d="M184.70,103.68L191.95,51.20"/></g></g><g><g><path style="stroke:#000000;stroke-width:0.210;stroke-dasharray:2.1 2.1" d="M157.73,119.43L162.70,63.69"/></g></g><g id="PMI95.0"><g><path style="stroke:#000000;stroke-width:0.280" d="M118.33,127.66L118.13,119.43"/></g><g><path style="fill:#000000" d="M119.13,119.41L117.13,119.45L118.09,117.43z"/></g><g><path style="fill:#ffffff" d="M108.92,133.30L127.88,133.30L127.88,127.66L108.92,127.66z"/><path style="stroke:#000000;stroke-width:0.280;stroke-opacity:0.98" d="M108.92,133.30L127.88,133.30L127.88,127.66L108.92,127.66z"/><text xml:space="preserve" fill="#000000" stroke-width="0" x="109.62" y="131.71" font-size="3.43" opacity="1.00" font-family="Microsoft Sans Serif">0200414S1</text></g></g><g id="PMI96.0"><g><path style="stroke:#000000;stroke-width:0.280" d="M152.68,26.97L152.65,38.63"/></g><g><path style="fill:#000000" d="M151.65,38.65L153.65,38.65L152.65,40.65z"/></g><g><path style="fill:#ffffff" d="M143.30,26.98L162.07,26.98L162.07,21.34L143.30,21.34z"/><path style="stroke:#000000;stroke-width:0.280;stroke-opacity:0.98" d="M143.30,26.98L162.07,26.98L162.07,21.34L143.30,21.34z"/><text xml:space="preserve" fill="#000000" stroke-width="0" x="144.00" y="25.39" font-size="3.43" opacity="1.00" font-family="Microsoft Sans Serif">0200081T1</text></g></g><g id="PMI126.0"><g><path style="stroke:#000000;stroke-width:0.280" d="M112.34,53.01L118.77,52.68"/></g><g><path style="fill:#000000" d="M118.83,53.69L118.73,51.70L120.78,52.59z"/></g><g><path style="fill:#ffffff" d="M93.58,56.34L112.35,56.34L112.35,50.69L93.58,50.69z"/><path style="stroke:#000000;stroke-width:0.280;stroke-opacity:0.98" d="M93.58,56.34L112.35,56.34L112.35,50.69L93.58,50.69z"/><text xml:space="preserve" fill="#000000" stroke-width="0" x="94.28" y="54.75" font-size="3.43" opacity="1.00" font-family="Microsoft Sans Serif">0200081T1</text></g></g><g/><g id="paperID" visibility="hidden" opacity="0.00" transform="scale(0.000100)"><path style="stroke:#000000;stroke-width:0.500;fill:#e6e6e6;fill-rule:evenodd" d="M-2000.00,-2000.00L2297.00,-2000.00L2297.00,2210.00L-2000.00,2210.00zM0.00,0.00L297.00,0.00L297.00,210.00L0.00,210.00z"/><path style="fill:#000000;fill-opacity:0.118" d="M3.00,210.00L297.00,210.00L297.00,3.00L300.00,3.00L300.00,213.00L3.00,213.00z"/></g><g id="hotspot.0" onmouseover="ShowHotSpot(evt,'0')" onmouseout="HideHotSpot(evt,'0')" onmousemove="ShowToolTip(evt,'0',&quot;3dp1870360 (I_3DPart1107113.2)&quot;)" opacity="0"><path style="fill:#00ff00;fill-rule:evenodd" d="M209.62,75.48L210.17,76.51L193.69,86.33L192.70,86.33L120.01,52.98L119.17,53.38L118.64,53.01L114.87,52.98L112.74,53.24L112.60,56.00L112.31,56.51L93.52,56.43L93.52,50.41L112.34,50.31L112.61,50.57L112.74,52.55L118.65,52.26L118.93,51.64L120.23,52.21L121.49,52.20L137.61,45.29L138.23,45.28zM204.87,74.41L207.81,75.84L193.43,84.75L192.44,84.74L122.32,52.72L122.01,52.45L137.99,46.11z"/></g><g id="hotspot.1" onmouseover="ShowHotSpot(evt,'1')" onmouseout="HideHotSpot(evt,'1')" onmousemove="ShowToolTip(evt,'1',&quot;3dp2408581 (I_3DPart2408581.145)&quot;)" opacity="0"><path style="fill:#00ff00;fill-rule:evenodd" d="M267.57,137.07L268.10,137.86L268.09,140.36L266.75,140.27L265.17,139.43L264.82,139.44L262.15,141.82L249.46,153.46L243.38,159.28L241.02,161.42L229.50,172.90L227.24,175.93L225.42,179.13L223.89,182.66L222.63,182.58L119.16,118.27L118.83,118.29L118.91,119.15L118.60,119.38L118.56,127.13L127.67,127.28L128.18,127.57L128.20,132.96L127.91,133.47L108.86,133.40L108.86,127.37L117.88,127.13L117.85,119.37L117.23,119.09L117.91,117.85L117.87,117.53L21.86,58.01L21.85,56.76L22.69,54.42L24.39,52.42L26.01,51.40L43.73,45.84L60.92,41.35L66.74,40.03L68.68,40.02zM90.14,62.77L90.36,63.12L81.03,66.48L79.24,66.48L67.60,60.10L67.59,59.69L76.78,56.68L78.47,56.67zM176.60,95.80L175.17,96.65L174.46,96.65L160.86,89.72L162.20,88.93L163.10,88.93zM175.78,98.47L207.01,114.31L202.12,117.51L201.16,117.53L158.57,95.53L158.51,95.30L164.18,92.66zM192.20,103.47L191.02,104.28L189.79,104.30L181.52,100.06L183.10,99.25L183.99,99.25zM185.06,128.38L185.09,128.70L179.39,132.85L178.18,132.84L134.94,108.05L134.95,107.76L141.05,104.26L141.67,104.26zM142.48,114.10L142.51,114.43L139.99,115.95L139.28,115.96L125.42,107.79L125.42,107.49L127.82,106.12L128.71,106.12zM212.80,113.54L211.48,114.44L210.69,114.63L197.37,107.97L198.97,106.91L199.32,106.91zM158.37,123.33L158.37,123.69L156.14,125.21L155.15,125.20L146.59,120.14L149.25,118.28L149.60,118.27zM179.51,135.50L179.78,135.88L177.30,137.64L176.30,137.64L162.99,129.74L163.07,129.26L165.75,127.56z"/></g><g id="hotspot.2" onmouseover="ShowHotSpot(evt,'2')" onmouseout="HideHotSpot(evt,'2')" onmousemove="ShowToolTip(evt,'2',&quot;3dp1870359 (I_3DPart1107114.3)&quot;)" opacity="0"><path style="fill:#00ff00;fill-rule:evenodd" d="M162.33,21.21L162.32,26.64L162.03,27.15L152.94,27.32L152.75,38.30L152.45,38.30L152.26,27.32L143.24,27.08L143.24,21.06L162.06,20.95zM235.55,62.24L236.36,63.01L223.38,69.47L222.60,69.67L151.66,41.35L151.38,41.09L151.95,40.89L152.27,39.76L151.95,39.22L151.87,38.70L153.57,38.68L153.27,39.32L153.21,39.86L156.14,39.25L165.91,36.59L167.06,36.58zM183.44,43.21L234.50,62.51L223.12,67.62L222.33,67.82L154.32,40.81L154.01,40.55L166.56,36.87z"/></g></g></svg>
