<?xml version="1.0" encoding="UTF-8" standalone="no"?>
<svg xmlns="http://www.w3.org/2000/svg" xmlns:xlink="http://www.w3.org/1999/xlink" width="297.000mm" height="210.000mm" viewBox="0.000000 0.000000 297.000000 210.000000" stroke-linejoin="round" stroke-linecap="round" fill="none" fill-rule="evenodd"><desc>Composer Export</desc><script type="text/ecmascript"><![CDATA[
if(typeof(top) != "undefined")
{
	top.ShowPaper = ShowPaper;
}
function ShowHotSpot(evt,hotspotid)
{
	var svgDocument = evt.target.ownerDocument;
	var strId = "hotspot."+hotspotid;
	var hotspot = svgDocument.getElementById(strId);
	if(hotspot)
		hotspot.setAttribute("opacity",".5");
}
function HideHotSpot(evt,hotspotid)
{
	var svgDocument = evt.target.ownerDocument;
	var strId = "hotspot."+hotspotid;
	var hotspot = svgDocument.getElementById(strId);
	if(hotspot)
		hotspot.setAttribute("opacity","0");

	var toolTip = svgDocument.getElementById('ToolTip');
	if(toolTip)
		toolTip.setAttribute("visibility","hidden");
}
function ShowToolTip(evt,hotspotid,strTooltip)
{
	if(strTooltip=="")
	return;

	// change text
	var svgDocument = evt.target.ownerDocument;
	var tiptext = svgDocument.getElementById('ToolTipText');
	if( !tiptext )
	return;
	tiptext.firstChild.nodeValue = " " + strTooltip + "  " ;

	// show tooltip before, else some refresh issue

	var toolTip = svgDocument.getElementById('ToolTip');
	if(!toolTip)
	return;

	toolTip.setAttribute("visibility","visible");
	toolTip.setAttribute("opacity",".95");

	// move tooltip
	// get viewbox

	var root = svgDocument.documentElement;
	var vbox = (root.getAttribute("viewBox")).split(' ');
	var x0 = parseFloat(vbox[0]);
	var y0 = parseFloat(vbox[1]);
	var vboxW = parseFloat(vbox[2]);
	var vboxH = parseFloat(vbox[3]);

	// get default width of svg

	var strW = root.getAttribute("width");
	var svgW = parseFloat(strW);
	if(strW.indexOf('mm') != -1)
	svgW *= 3.779;

	var strH = root.getAttribute("height");
	var svgH = parseFloat(strH);
	if(strH.indexOf('mm') != -1)
	svgH *= 3.779;  	// 96 dpi  -> 96/25.4 = 3.779

	// update the viewbox / width / height if svg is embedded in html with zoom fit all
	var realx0 = x0;
	var realy0 = y0;
	var realvboxW = vboxW;
	var realvboxH = vboxH;
	var realsvgW = svgW;
	var realsvgH = svgH;

	if ((typeof(top) == "undefined") || (typeof(top.svgctl1) != "undefined")) // embedded in html
	{
		// get window size in pxl

		svgW = window.innerWidth;
		svgH = window.innerHeight;

		// calculate real viewbox

		realsvgW = svgW;
		realsvgH = svgH;
		if((svgW / svgH) > (vboxW / vboxH))
		{
			realvboxW = (vboxH * svgW) / svgH;
			realvboxH = vboxH;
			realx0 = x0 - (realvboxW - vboxW)/2 ;
		}
		else
		{
			realvboxH = (vboxW * svgH) / svgW;
			realvboxW = vboxW;
			realy0 = y0 - (realvboxH - vboxH)/2 ;
		}
	}

	// get user zoom/pan

	var newScale = root.currentScale;
	var translation = root.currentTranslate;

	// transform pxl to user unit

	var xPos = (((evt.clientX+10- translation.x)/newScale) * realvboxW)/realsvgW  + realx0 ;
	var yPos = (((evt.clientY+5- translation.y)/newScale) * realvboxH)/ realsvgH  + realy0 ;
	var scaleForWidth = ( (1 / newScale) * realvboxH) / realsvgH;

	// move tooltip

	toolTip.setAttribute("transform", "translate(" + xPos + "," + yPos + ")" );

	// resize tooltip

	var fontsize = 12;
	tiptext.setAttribute("font-size",fontsize*scaleForWidth);
	tiptext.setAttribute("y", fontsize*scaleForWidth);
	var tipBG = svgDocument.getElementById('ToolTipBG');
	var outline = tiptext.getBBox();
	if(tipBG)
	{
		tipBG.setAttribute("stroke-width", 1*scaleForWidth);
		tipBG.setAttribute("width", Number(outline.width) );
		tipBG.setAttribute("height", Number(outline.height) + fontsize*.5*scaleForWidth );
	}
	var ToolTipShadow = svgDocument.getElementById('ToolTipShadow');
	if(ToolTipShadow)
	{
		ToolTipShadow.setAttribute("width", Number(outline.width) );
		ToolTipShadow.setAttribute("height", Number(outline.height) + fontsize*.5*scaleForWidth );
		ToolTipShadow.setAttribute("x", 3*scaleForWidth);
		ToolTipShadow.setAttribute("y", 3*scaleForWidth);
	}
}
function ShowPaper()
{
  var svgDocument = getDocument();
  var paper = svgDocument.getElementById("paperID");
  if(paper)
  {
    paper.setAttribute("transform","scale(1)");
    paper.setAttribute("opacity","1");
    paper.setAttribute("visibility","visible");
  }
  var svg = svgDocument.getRootElement();
  if(svg)
  {
    svg.setAttribute("width","307.000mm");
    svg.setAttribute("height","220.000mm");
    svg.setAttribute("viewBox","-5.000000 -5.000000 307.000000 220.000000");
  }
}
]]></script><defs/><g><g id="Actor_2.0"><g style="stroke:#000000;stroke-width:0.123"><path d="M177.90,110.07L179.33,106.31L177.64,105.96L176.21,109.69L177.90,110.07L179.48,113.15L177.79,112.75L176.21,109.69"/><path d="M176.71,108.38L177.02,107.43L177.13,107.28"/><path d="M177.64,105.96L180.62,105.35L182.32,105.69L179.33,106.31"/><path d="M179.48,113.15L182.45,112.47L182.67,111.90"/><path d="M180.93,111.06L180.72,111.01L180.06,110.70L179.72,109.88L179.83,108.89L180.35,108.10L181.21,108.28"/><path d="M180.73,110.42L180.59,109.87L180.77,110.86L181.31,111.53L181.82,111.71L181.45,111.56L181.20,111.36L180.99,111.10L180.83,110.78L180.73,110.42L180.68,109.89L180.73,109.36L180.84,108.97L181.00,108.60L181.21,108.28L181.44,108.02L181.79,107.78L182.15,107.66L182.50,107.66L182.63,107.72"/><path d="M180.77,110.86L181.20,111.36"/><path d="M180.98,109.69L181.00,109.41L180.94,109.94L180.99,110.47L181.09,110.83L181.25,111.15L181.46,111.42L181.71,111.62L181.92,111.71L181.65,111.56L181.41,111.34L181.17,110.96L181.01,110.48L180.97,110.10L180.98,109.69L181.05,109.28L181.17,108.90L181.42,108.45L181.73,108.08L182.08,107.84L182.44,107.72L182.82,107.73L182.93,107.77"/><path d="M180.59,109.87L180.83,108.82L180.73,109.36"/><path d="M180.83,108.82L181.21,108.28"/><path d="M180.35,108.10L181.09,107.81L181.58,107.91"/><path d="M181.82,111.71L181.91,111.71"/><path d="M182.48,111.84L182.40,111.84L182.02,111.69L181.78,111.49L181.57,111.23L181.41,110.90L181.30,110.55L181.25,110.02L181.31,109.48L181.41,109.09L181.58,108.73L181.78,108.41L182.02,108.14L182.37,107.90L182.73,107.78L183.01,107.77L183.23,107.83"/><path d="M182.83,107.78L182.72,107.77L182.35,107.89L182.01,108.13L181.76,108.39L181.56,108.72L181.39,109.08L181.29,109.47L181.23,110.01L181.28,110.53L181.38,110.89L181.54,111.22L181.75,111.48L182.00,111.68L182.40,111.84"/><path d="M181.56,109.81L181.57,109.57L181.52,110.07L181.57,110.60L181.67,110.96L181.83,111.28L182.04,111.55L182.29,111.75L182.50,111.84L182.22,111.69L181.99,111.47L181.75,111.08L181.59,110.61L181.54,110.22L181.56,109.81L181.63,109.41L181.75,109.03L182.00,108.57L182.31,108.20L182.66,107.96L183.02,107.84L183.38,107.84L183.50,107.89"/><path d="M183.82,107.95L183.69,107.91L183.31,107.90L182.95,108.02L182.61,108.26L182.36,108.52L182.16,108.85L181.99,109.22L181.89,109.61L181.83,110.14L181.88,110.67L181.98,111.03L182.15,111.35L182.35,111.62L182.60,111.81L182.97,111.96L182.95,111.96L182.58,111.81L182.34,111.62L182.13,111.35L181.96,111.03L181.86,110.67L181.81,110.14L181.87,109.59L181.97,109.21L182.14,108.84L182.35,108.51L182.59,108.25L182.90,108.03L183.30,107.89L183.58,107.89L183.79,107.95"/><path d="M183.52,107.89L183.29,107.83L183.01,107.83L182.64,107.95L182.30,108.19L182.05,108.45L181.85,108.78L181.68,109.14L181.57,109.57"/><path d="M181.00,109.41L181.10,109.02L181.27,108.65L181.48,108.33L181.72,108.07L182.06,107.83L182.43,107.71L182.82,107.73"/><path d="M181.27,108.21L181.41,108.02L181.67,107.86"/><path d="M181.79,107.78L181.95,107.70L182.15,107.66"/><path d="M182.57,110.74L182.50,110.30L182.53,109.83L182.61,109.48L182.75,109.13L182.93,108.83L183.15,108.58L183.45,108.36L183.77,108.25L184.08,108.24L184.37,108.33L184.77,108.70L185.00,109.28L185.05,109.74L185.01,110.23L184.91,110.60L184.75,110.97L184.54,111.29L184.29,111.55L183.96,111.78L183.60,111.91L183.26,111.91L182.93,111.81L182.69,111.65L182.48,111.42L182.31,111.12L182.19,110.79L182.12,110.24L182.17,109.66L182.27,109.28L182.43,108.91L182.64,108.59L182.88,108.32L183.24,108.07L183.59,107.95L183.88,107.95L183.95,107.96L184.34,108.12L184.56,108.31L184.75,108.57L184.89,108.89L184.95,109.14"/><path d="M181.92,111.71L182.26,111.79"/><path d="M182.21,111.79L182.02,111.74"/><path d="M182.50,111.84L182.84,111.92"/><path d="M182.59,111.87L182.79,111.92"/><path d="M182.77,110.80L182.66,110.53L182.77,109.52L183.30,108.72L184.04,108.42L184.70,108.75L185.03,109.57L185.01,109.73L184.92,110.57L184.39,111.37L183.66,111.67L183.00,111.35L182.77,110.80"/><path d="M182.77,110.60L182.73,110.50L182.84,109.55L183.33,108.79L184.02,108.52L184.65,108.83L184.96,109.60L184.85,110.54L184.36,111.29L183.68,111.57L183.05,111.27L182.77,110.60"/><path d="M182.32,105.69L183.40,107.85"/><path d="M183.79,111.84L183.39,111.98L182.98,111.97"/><path d="M184.36,111.29L182.80,110.68"/><path d="M183.24,108.07L183.95,107.96L184.15,108.02L184.34,108.12"/><path d="M183.01,107.77L183.15,107.81"/><path d="M182.99,108.42L182.98,108.43"/></g></g><g id="Actor_8.0"><g style="stroke:#000000;stroke-width:0.123"><path d="M153.49,142.97L153.69,143.53L153.76,144.13L153.70,144.67L153.63,144.87L153.51,145.08L153.39,145.20L153.26,145.29L152.65,145.44L152.50,145.78L152.37,145.99L152.24,146.14L151.99,146.31L151.80,146.38L150.75,146.63L150.41,146.60L150.07,146.46L149.75,146.21L149.36,145.71L149.08,145.11L148.95,144.66L148.85,143.97L148.88,143.37"/><path d="M149.79,138.28L149.87,138.14L149.73,138.45L149.64,138.81L148.88,143.35L148.89,143.32"/><path d="M151.79,136.34L150.41,135.71L149.21,135.02"/><path d="M150.57,145.19L150.54,145.21"/><path d="M150.54,145.21L150.59,145.17L150.57,145.20"/><path d="M150.33,145.19L150.35,145.18L150.29,145.19"/><path d="M150.54,145.20L150.55,145.20"/><path d="M150.72,144.84L150.56,144.58L150.47,144.30L150.43,144.00L150.45,143.70L150.58,143.94L150.69,144.32L150.73,144.65L150.71,144.89"/><path d="M150.65,145.09L150.71,144.86"/><path d="M150.59,145.17L150.65,145.08"/><path d="M150.15,143.44L150.16,143.44"/><path d="M150.21,143.46L150.26,143.49"/><path d="M150.23,143.46L150.46,143.71"/><path d="M150.11,143.45L150.21,143.46"/><path d="M150.17,143.45L150.16,143.45"/><path d="M149.87,138.14L149.90,138.09L149.87,138.14"/><path d="M149.90,138.09L150.12,137.82L150.40,137.64L151.51,137.37L151.79,137.36"/><path d="M151.79,135.57L151.03,135.23L150.22,134.80"/><path d="M151.01,136.01L151.11,137.46"/><path d="M151.05,135.24L151.14,134.87L151.26,134.59"/><path d="M152.00,146.31L152.23,146.73L152.44,147.00L152.73,147.28L153.08,147.49L157.53,148.66L157.80,148.65L158.45,148.49"/><path d="M152.59,142.65L152.61,142.65L152.57,142.65"/><path d="M151.78,138.41L151.78,134.48"/><path d="M151.78,138.39L151.79,138.39"/><path d="M153.15,142.82L153.07,143.14L152.65,145.43L152.86,145.39"/><path d="M153.19,145.31L153.05,145.34"/><path d="M152.70,142.65L152.62,142.65"/><path d="M152.65,142.64L152.83,142.69L154.69,143.47L155.79,143.45L160.59,142.31"/><path d="M155.20,143.47L155.26,144.01L155.41,144.51L155.64,144.95L155.88,145.23"/><path d="M156.09,145.35L158.19,145.88L158.52,146.10L158.71,146.34"/><path d="M156.11,145.36L155.99,145.31"/><path d="M156.01,145.32L155.87,145.21"/><path d="M157.96,142.95L157.73,144.15L157.59,144.50L157.49,144.69L157.23,144.97L157.06,145.08L156.85,145.16L156.08,145.35"/><path d="M157.35,144.74L157.31,144.84L157.18,144.93L156.96,145.00L156.68,145.03L156.08,145.02L155.82,144.96L155.62,144.87L155.55,144.80L155.53,144.74L155.54,143.46"/><path d="M155.64,144.95L155.61,144.91L155.65,144.96"/><path d="M157.35,144.76L157.35,143.09"/><path d="M158.68,146.29L158.84,146.57L158.95,146.87L159.02,147.25L159.02,147.61L158.96,147.91L158.84,148.18L158.68,148.36L158.47,148.48"/><path d="M158.49,148.47L158.55,148.45L158.42,148.50L158.44,148.49"/><path d="M158.14,137.98L158.20,137.77L158.33,137.54L158.53,137.33L158.77,137.16L159.01,137.04L159.25,136.99L159.43,137.03L159.55,137.13L159.59,137.24L159.58,137.36L159.49,137.61L159.27,137.91L158.96,138.15L158.63,138.29L158.38,138.31L158.27,138.27L158.19,138.20L158.15,138.10L158.14,137.98"/><path d="M158.18,137.82L158.48,137.71L158.76,137.53L159.00,137.28L159.15,137.00"/><path d="M160.57,142.32L160.55,142.33L160.67,142.28L161.08,141.94"/><path d="M161.11,133.95L161.19,134.08L161.21,134.20L161.17,141.71L161.15,141.84L161.08,141.95"/></g></g><g id="Actor_3.0"><g style="stroke:#000000;stroke-width:0.123"><path d="M179.15,62.47L179.12,64.08L176.57,64.08L176.03,64.06L176.05,62.47L176.17,62.34L176.27,62.27L176.33,62.26L176.42,62.29L176.51,62.37L176.59,62.47L177.27,62.31L177.56,62.28L177.92,62.26L178.22,62.28L178.53,62.32L179.15,62.47L179.42,62.37L179.69,62.30L179.93,62.26L180.17,62.25L180.40,62.27L180.65,62.31L181.12,62.45L180.99,62.32L180.87,62.24"/><path d="M176.37,62.26L176.28,62.26L180.87,62.24L176.37,62.26"/><path d="M176.22,62.29L176.28,62.26"/><path d="M177.02,72.80L177.46,72.84L178.36,72.86L179.34,72.85L179.80,72.81L179.47,73.13L179.10,73.15L178.39,73.17L177.69,73.15L177.33,73.12L177.02,72.80L177.09,67.55"/><path d="M177.13,65.24L177.12,65.58"/><path d="M176.57,64.08L176.59,62.47"/><path d="M176.43,64.08L176.43,64.14L176.48,64.14L178.43,64.15L180.61,64.13L180.66,64.13L180.67,64.07"/><path d="M177.11,64.15L177.14,64.20L177.14,64.33"/><path d="M179.80,72.81L179.89,67.49"/><path d="M179.92,65.57L179.93,65.23"/><path d="M179.98,64.14L179.95,64.19L179.94,64.32"/><path d="M179.12,64.08L181.09,64.06L181.12,62.45"/></g></g><g id="Actor_7.0"><g style="stroke:#000000;stroke-width:0.123"><path d="M131.12,52.94L131.41,52.90L130.97,52.89L130.86,52.86L130.77,52.78L130.69,52.63L130.57,52.11L130.57,52.00L130.64,51.89L130.40,51.98L130.32,52.16L130.34,52.67L130.42,52.85L130.59,52.94L130.85,52.98L131.67,53.01L132.83,53.02L134.04,53.01L134.99,52.98L135.41,52.95L135.59,52.87L135.66,52.69L135.65,52.17L135.58,51.98L135.53,51.94L135.35,51.86L134.84,51.82L133.95,51.80L132.88,51.80L131.83,51.81L131.01,51.84L130.78,51.86L130.69,51.88L130.63,51.96L130.62,52.11L130.75,52.63L130.83,52.78L130.93,52.86L131.03,52.89L130.88,52.81"/><path d="M130.64,51.89L130.73,51.86L130.76,51.86"/><path d="M134.91,52.94L134.75,52.91L134.13,52.88L133.20,52.87L132.23,52.88L131.47,52.90L131.03,52.89"/><path d="M131.41,52.90L131.42,52.90"/></g></g><g id="Actor_7.1"><g style="stroke:#000000;stroke-width:0.123"><path d="M177.07,64.33L176.72,64.33L176.65,64.36L176.61,64.46L176.61,64.56L176.74,65.02L176.81,65.15L176.88,65.22L176.96,65.24L176.46,65.23L176.27,65.15L176.22,64.99L176.20,64.55L176.27,64.39L176.42,64.32L176.60,64.31L177.14,64.30"/><path d="M176.92,65.18L177.03,65.24L178.79,65.24L179.69,65.24L180.35,65.23L180.65,65.21L180.81,65.15L180.88,64.99L180.88,64.83L180.88,64.54L180.82,64.38L180.66,64.31L180.54,64.30L179.95,64.30"/><path d="M177.03,65.24L176.96,65.22L176.88,65.15L176.80,65.02L176.67,64.56L176.67,64.43L176.71,64.36L176.78,64.33L178.99,64.33L180.16,64.31"/><path d="M177.03,65.24L176.96,65.24"/><path d="M177.06,64.33L176.89,64.32"/></g></g><g id="Actor_3.1"><g style="stroke:#000000;stroke-width:0.123"><path d="M129.99,29.92L129.96,28.02L129.99,27.66L130.02,27.54L130.05,27.62L130.77,27.38L131.07,27.32L131.46,27.27L131.79,27.27L132.12,27.30L132.79,27.44L133.35,27.32L133.93,27.29L134.35,27.33L134.68,27.40L135.00,27.50L135.41,27.67L135.44,29.58L132.82,29.36L130.08,29.54L129.99,29.92L130.49,29.96"/><path d="M130.08,29.54L130.05,27.62"/><path d="M131.08,30.06L130.42,29.94L130.28,29.88L130.25,29.81L130.31,29.76L130.45,29.70L130.90,29.62L131.54,29.56L132.40,29.53L133.30,29.54L134.04,29.58L134.84,29.69L135.05,29.75L135.16,29.83L135.16,29.76L135.10,29.69L134.92,29.63L134.34,29.53L133.42,29.46L132.40,29.44L131.46,29.48L130.68,29.57L130.45,29.62L130.29,29.68L130.24,29.74L130.24,29.82"/><path d="M135.37,27.59L135.07,27.45L134.59,27.35L133.82,27.28L132.91,27.24L131.97,27.25L131.12,27.30L130.46,27.38L130.08,27.50"/><path d="M130.08,27.50L130.02,27.54"/><path d="M131.61,40.53L131.75,40.57L132.03,40.60L132.90,40.63L133.78,40.60L134.01,40.57L134.10,40.52L133.98,40.48L133.72,40.45L132.80,40.42L131.95,40.45L131.68,40.49L131.60,40.53L131.24,40.16"/><path d="M131.23,40.16L131.25,40.13L131.31,40.11L131.59,40.06L132.65,40.01L133.82,40.04L134.25,40.08L134.45,40.14L134.44,40.17L134.09,40.53"/><path d="M131.23,40.15L131.08,29.91L131.06,29.87"/><path d="M131.08,29.89L131.08,29.91"/><path d="M131.07,29.88L131.06,29.88"/><path d="M132.82,29.36L132.79,27.44"/><path d="M135.44,29.58L135.29,29.96L134.85,29.99L134.33,30.07"/><path d="M134.46,40.15L134.33,29.90"/><path d="M134.35,29.88L134.33,29.92"/><path d="M135.16,29.84L135.08,29.92L134.85,29.99"/><path d="M134.34,29.89L134.34,29.89"/><path d="M135.37,27.59L135.41,27.67"/></g></g><g id="Actor_1.0"><g style="stroke:#000000;stroke-width:0.123"><path d="M104.17,120.55L102.96,116.41L102.19,112.73L101.65,108.65L101.41,104.39L101.51,100.43L101.88,96.78L102.67,92.79L103.69,89.50L105.25,86.02L106.60,83.79L108.47,81.42L110.57,79.43L112.96,77.78L115.65,76.49L118.37,75.70L121.43,75.34"/><path d="M104.16,120.52L104.35,121.07"/><path d="M104.21,120.68L105.37,123.69L107.08,127.19L109.08,130.35L111.10,132.84L113.76,135.33L116.04,136.91L118.75,138.26L121.09,139.02L124.51,139.55L127.16,139.50L136.76,137.54L138.74,136.58L140.42,135.28L142.15,133.37L143.41,131.48L144.91,128.46L146.09,125.09L147.05,120.96L147.60,116.87L147.82,112.46L147.69,107.90L147.20,103.33L146.34,98.61L145.14,94.16L143.90,90.63L142.30,87.05L140.28,83.50L138.14,80.61L135.70,78.15L133.31,76.47L131.04,75.49"/><path d="M121.09,75.35L123.37,75.26L123.07,75.27"/><path d="M122.93,75.28L122.87,70.84L123.27,69.13L123.80,68.13L124.70,67.14L125.70,66.54L126.62,66.28L177.12,65.48"/><path d="M123.37,75.26L125.20,75.19L124.28,75.23"/><path d="M124.90,75.20L124.86,75.21"/><path d="M125.20,75.19L127.17,75.38L129.26,76.07L129.20,71.22L129.62,69.39L130.17,68.35L131.09,67.32L132.11,66.69L133.06,66.42L184.60,65.57L179.93,65.51"/><path d="M129.26,76.07L131.04,76.00L130.98,71.49L131.15,70.54L132.15,69.03L133.59,68.48L184.91,67.41L185.70,67.89L186.16,68.89L186.13,73.73L187.34,73.68L187.50,69.11L187.24,67.71L186.79,66.78L186.10,66.04L185.35,65.66L184.60,65.57"/><path d="M131.02,74.63L133.82,75.27L136.71,76.68L139.59,78.95L142.08,81.79L144.64,85.79L146.53,89.74L148.27,94.63L149.45,99.29L150.30,104.48L150.68,109.79L150.59,114.97L150.02,119.83L148.96,124.50L147.50,128.48L145.73,131.72L143.54,134.40"/><path d="M131.51,66.26L134.93,66.26L131.51,66.26"/><path d="M131.42,66.27L131.39,66.28"/><path d="M132.59,74.91L177.96,73.16"/><path d="M134.09,138.16L136.72,138.07L139.30,137.32L141.49,136.11L143.72,134.22"/><path d="M135.05,66.25L135.05,66.26"/><path d="M136.71,76.68L136.54,76.58"/><path d="M162.03,132.35L162.02,133.21L161.83,133.52L159.95,134.30L156.73,134.60L153.05,134.22L140.18,136.90"/><path d="M153.05,134.22L185.51,127.46"/><path d="M177.71,103.51L176.01,103.65L174.54,104.72L173.44,106.61L172.95,109.21L173.16,111.04L173.88,112.51L174.91,113.28L177.16,113.85L176.09,113.22L175.17,111.94L174.75,110.48L174.69,109.18L175.03,107.40L176.13,105.36L177.74,104.09L178.63,103.84L179.51,103.86L177.78,103.53"/><path d="M177.16,113.85L178.02,113.98L178.91,113.83L180.38,112.94"/><path d="M177.42,73.14L177.15,73.19"/><path d="M177.12,65.55L176.93,65.57L179.92,65.55"/><path d="M176.93,65.57L176.91,65.58"/><path d="M179.51,103.86L180.71,104.39L181.69,105.57"/><path d="M186.93,74.48L183.28,73.21L179.73,72.88"/><path d="M180.14,65.57L180.11,65.56"/><path d="M186.13,73.73L184.21,73.24L182.27,73.03"/><path d="M183.84,127.80L186.65,127.43L188.81,126.74L190.92,125.67L192.91,124.27"/><path d="M187.44,72.93L190.96,73.55L194.35,74.79L198.00,76.97L200.99,79.58L200.71,79.31"/><path d="M208.00,92.05L208.73,95.21L209.12,98.17L209.24,101.17L209.08,104.28L208.65,107.20L207.89,110.19L205.90,115.00L204.70,117.00L202.86,119.43L200.90,121.44L198.63,123.21L196.31,124.57L194.27,125.44L188.63,126.81"/><path d="M193.15,124.08L193.03,124.17"/><path d="M200.84,79.43L200.65,79.25"/><path d="M208.05,92.22L207.02,89.10L205.30,85.44L203.10,82.04L200.97,79.57"/><path d="M201.05,79.65L201.45,80.06"/></g></g><g><g><path style="stroke:#000000;stroke-width:0.208;stroke-dasharray:2.2 2.2" d="M133.24,68.70L132.76,34.09"/></g></g><g id="PMI8.0"><g><path style="stroke:#000000;stroke-width:0.281" d="M154.30,152.12L154.38,149.67"/></g><g><path style="fill:#000000" d="M155.38,149.69L153.38,149.63L154.44,147.66z"/></g><g><path style="fill:#ffffff" d="M138.42,157.19L170.02,157.19L170.02,152.11L138.42,152.11z"/><path style="stroke:#000000;stroke-width:0.281;stroke-opacity:0.98" d="M138.42,157.19L170.02,157.19L170.02,152.11L138.42,152.11z"/><text xml:space="preserve" fill="#000000" stroke-width="0" x="139.05" y="155.76" font-size="3.10" opacity="1.00" font-family="Microsoft Sans Serif">CNA6129P7-3512010</text></g></g><g id="PMI1.0"><g><path style="stroke:#000000;stroke-width:0.281" d="M184.96,140.35L181.78,140.35L179.45,129.64"/></g><g><path style="fill:#000000" d="M180.41,129.42L178.46,129.85L179.01,127.68z"/></g><g><path style="fill:#ffffff" d="M184.32,142.88L202.77,142.88L202.77,137.80L184.32,137.80z"/><path style="stroke:#000000;stroke-width:0.281;stroke-opacity:0.98" d="M184.32,142.88L202.77,142.88L202.77,137.80L184.32,137.80z"/><text xml:space="preserve" fill="#000000" stroke-width="0" x="184.95" y="141.45" font-size="2.79" opacity="1.00" font-family="Microsoft Sans Serif">3307007001</text></g></g><g id="PMI7.0"><g><path style="stroke:#000000;stroke-width:0.281" d="M138.68,52.14L137.00,52.11"/></g><g><path style="fill:#000000" d="M137.02,51.12L136.98,53.12L135.00,52.08z"/></g><g><path style="fill:#ffffff" d="M138.68,54.86L157.15,54.86L157.15,49.78L138.68,49.78z"/><path style="stroke:#000000;stroke-width:0.281;stroke-opacity:0.98" d="M138.68,54.86L157.15,54.86L157.15,49.78L138.68,49.78z"/><text xml:space="preserve" fill="#000000" stroke-width="0" x="139.32" y="53.43" font-size="2.79" opacity="1.00" font-family="Microsoft Sans Serif">8060004221</text></g></g><g id="PMI3.0"><g><path style="stroke:#000000;stroke-width:0.281" d="M138.14,32.63L136.19,32.63"/></g><g><path style="fill:#000000" d="M136.19,31.64L136.19,33.64L134.19,32.64z"/></g><g><path style="fill:#ffffff" d="M138.15,35.15L156.61,35.15L156.61,30.07L138.15,30.07z"/><path style="stroke:#000000;stroke-width:0.281;stroke-opacity:0.98" d="M138.15,35.15L156.61,35.15L156.61,30.07L138.15,30.07z"/><text xml:space="preserve" fill="#000000" stroke-width="0" x="138.78" y="33.72" font-size="2.79" opacity="1.00" font-family="Microsoft Sans Serif">8057008222</text></g></g><g id="PMI2.0"><g><path style="stroke:#000000;stroke-width:0.281" d="M188.75,132.79L185.57,132.79L181.60,113.98"/></g><g><path style="fill:#000000" d="M182.56,113.77L180.61,114.18L181.17,112.02z"/></g><g><path style="fill:#ffffff" d="M188.10,135.32L206.72,135.32L206.72,130.24L188.10,130.24z"/><path style="stroke:#000000;stroke-width:0.281;stroke-opacity:0.98" d="M188.10,135.32L206.72,135.32L206.72,130.24L188.10,130.24z"/><text xml:space="preserve" fill="#000000" stroke-width="0" x="188.73" y="133.89" font-size="3.09" opacity="1.00" font-family="Microsoft Sans Serif">35HP-06060</text></g></g><g/><g id="paperID" visibility="hidden" opacity="0.00" transform="scale(0.000100)"><path style="stroke:#000000;stroke-width:0.500;fill:#e6e6e6;fill-rule:evenodd" d="M-2000.00,-2000.00L2297.00,-2000.00L2297.00,2210.00L-2000.00,2210.00zM0.00,0.00L297.00,0.00L297.00,210.00L0.00,210.00z"/><path style="fill:#000000;fill-opacity:0.118" d="M3.00,210.00L297.00,210.00L297.00,3.00L300.00,3.00L300.00,213.00L3.00,213.00z"/></g><g id="hotspot.0" onmouseover="ShowHotSpot(evt,'0')" onmouseout="HideHotSpot(evt,'0')" onmousemove="ShowToolTip(evt,'0',&quot;prd2836613 (I_BÌNH TÍCH NĂNG.5)&quot;)" opacity="0"><path style="fill:#00ff00;fill-rule:evenodd" d="M186.23,66.22L187.30,67.85L187.46,73.09L190.26,73.53L194.31,74.88L197.55,76.77L201.06,79.74L202.44,81.33L205.14,85.38L207.00,89.19L208.34,93.52L209.16,98.37L209.16,103.86L208.89,106.29L208.08,109.80L206.19,114.66L203.22,119.25L201.08,121.43L198.35,123.56L194.23,125.65L190.98,126.45L186.95,127.55L183.15,128.07L179.92,128.88L180.27,129.40L179.74,129.78L179.55,130.39L178.57,129.75L178.62,129.11L162.16,132.46L161.82,133.74L159.40,134.56L152.10,134.55L140.49,136.98L137.54,138.08L134.01,138.33L129.96,139.14L126.18,139.68L124.92,139.68L122.22,139.41L119.24,138.61L115.46,136.72L111.71,133.72L108.71,129.97L106.29,125.91L104.12,120.52L102.50,114.58L101.70,108.90L101.70,98.73L102.50,93.59L104.40,87.93L106.71,83.76L109.55,80.39L112.69,78.13L115.20,76.86L117.81,75.96L122.44,75.46L122.76,75.24L123.01,70.09L123.99,68.10L125.46,66.87L126.17,66.50L179.37,65.70L184.86,65.70zM179.83,131.49L179.55,130.39L179.70,130.51zM180.09,132.84L179.83,131.49L179.98,131.60zM180.36,133.92L180.09,132.84L180.24,132.96zM180.63,135.27L180.36,133.92L180.52,134.03zM180.90,136.62L180.63,135.27L180.79,135.38zM181.17,137.70L180.90,136.62L181.05,136.74zM202.98,138.03L202.96,143.02L184.22,143.02L184.06,140.75L181.79,140.59L181.68,140.16L181.85,140.26L184.06,140.32L184.31,137.87L202.71,137.76zM181.44,139.05L181.17,137.70L181.33,137.81zM181.68,140.16L181.44,139.05L181.60,139.16zM131.04,74.70L131.11,70.90L131.95,69.31L133.19,68.66L168.57,67.86L179.74,67.85L179.73,73.08L179.41,73.30L136.44,74.88L131.93,74.89zM182.17,105.92L183.26,107.80L184.88,108.88L184.87,110.89L184.23,111.87L182.63,112.16L182.10,112.71L179.90,113.25L179.20,113.25L178.08,112.98L177.30,111.87L176.50,110.51L176.47,109.24L177.57,106.29L179.91,105.67L181.35,105.66z"/></g><g id="hotspot.1" onmouseover="ShowHotSpot(evt,'1')" onmouseout="HideHotSpot(evt,'1')" onmousemove="ShowToolTip(evt,'1',&quot;3dp475851 (I_CO NỐI THẲNG-M12*1.5-M10*1.0.7)&quot;)" opacity="0"><path style="fill:#00ff00;fill-rule:evenodd" d="M182.17,105.92L183.26,107.80L184.88,108.88L184.87,110.89L184.23,111.87L182.63,112.16L181.78,112.92L182.45,113.74L181.90,114.12L181.71,114.73L180.72,114.10L180.83,113.21L179.20,113.25L178.08,112.98L177.30,111.87L176.50,110.51L176.47,109.24L177.57,106.29L179.91,105.67L181.35,105.66zM181.98,116.10L181.71,114.73L181.86,114.85zM182.25,117.18L181.98,116.10L182.13,116.21zM182.52,118.53L182.25,117.18L182.41,117.29zM182.79,119.88L182.52,118.53L182.68,118.64zM183.06,121.23L182.79,119.88L182.95,119.99zM183.33,122.31L183.06,121.23L183.21,121.34zM183.60,123.66L183.33,122.31L183.49,122.42zM183.87,125.01L183.60,123.66L183.76,123.77zM184.14,126.36L183.87,125.01L184.03,125.12zM184.41,127.44L184.14,126.36L184.29,126.47zM184.68,128.79L184.41,127.44L184.57,127.55zM184.95,130.14L184.68,128.79L184.84,128.90zM185.22,131.22L184.95,130.14L185.10,130.25zM185.45,132.61L185.22,131.22L185.38,131.33zM187.84,132.76L188.09,130.31L206.74,130.22L206.74,135.46L188.00,135.46L187.84,133.19L185.57,133.03L185.45,132.61L185.63,132.70z"/></g><g id="hotspot.2" onmouseover="ShowHotSpot(evt,'2')" onmouseout="HideHotSpot(evt,'2')" onmousemove="ShowToolTip(evt,'2',&quot;3dp2689586 (I_BU LÔNG 10030125.1)&quot;)" opacity="0"><path style="fill:#00ff00;fill-rule:evenodd" d="M135.21,27.60L135.48,27.87L135.40,29.83L134.56,30.34L134.64,32.60L136.01,31.96L136.01,33.65L134.64,33.01L134.29,40.60L131.39,40.60L131.16,30.57L130.04,30.07L130.04,27.71L132.73,27.35zM156.81,30.30L156.79,35.29L138.05,35.29L137.89,33.02L136.41,32.76L137.89,32.59L138.14,30.14L156.54,30.03zM181.11,62.70L181.09,64.18L179.91,64.35L177.02,64.36L176.13,64.17L176.12,62.45L180.84,62.43zM177.20,65.42L179.74,65.42L179.43,65.72L177.25,65.68zM177.20,67.85L179.74,67.85L179.73,73.08L179.41,73.30L177.29,73.27z"/></g><g id="hotspot.3" onmouseover="ShowHotSpot(evt,'3')" onmouseout="HideHotSpot(evt,'3')" onmousemove="ShowToolTip(evt,'3',&quot;3dp733179 (I_VÒNG ĐỆM Ø10.2)&quot;)" opacity="0"><path style="fill:#00ff00;fill-rule:evenodd" d="M157.35,50.01L157.33,55.00L138.59,55.00L138.43,52.46L137.22,52.20L138.43,52.03L138.68,49.85L157.08,49.74zM135.65,51.94L136.83,51.40L136.83,53.10L135.97,52.69L135.43,53.07L130.49,53.11L130.48,52.19L131.85,51.93zM180.84,65.24L176.37,65.24L176.37,64.63L180.84,64.63z"/></g><g id="hotspot.4" onmouseover="ShowHotSpot(evt,'4')" onmouseout="HideHotSpot(evt,'4')" onmousemove="ShowToolTip(evt,'4',&quot;3dp2543427 (I_VAN XẢ NƯỚC.13)&quot;)" opacity="0"><path style="fill:#00ff00;fill-rule:evenodd" d="M159.40,134.56L161.09,134.25L161.12,141.95L160.73,142.37L158.56,142.90L158.06,143.21L157.59,144.63L156.66,145.39L156.66,145.68L158.41,146.15L158.95,146.96L158.96,148.16L158.58,148.59L156.77,148.60L154.79,148.32L154.85,148.85L155.21,149.42L155.16,149.74L154.54,149.95L154.52,151.93L170.02,152.09L170.02,157.33L138.32,157.33L138.41,152.18L154.09,151.93L154.06,149.95L153.43,149.66L154.12,148.40L154.09,148.06L152.74,147.50L151.93,146.68L150.30,146.74L149.50,146.15L148.93,144.83L148.95,143.28L149.74,138.67L150.48,137.80L151.12,137.59L150.85,136.16L149.46,135.33L149.39,135.08L151.07,135.17L152.09,134.54z"/></g></g></svg>
