<?xml version="1.0" encoding="UTF-8" standalone="no"?>
<svg xmlns="http://www.w3.org/2000/svg" xmlns:xlink="http://www.w3.org/1999/xlink" width="297.000mm" height="210.000mm" viewBox="0.000000 0.000000 297.000000 210.000000" stroke-linejoin="round" stroke-linecap="round" fill="none" fill-rule="evenodd"><desc>Composer Export</desc><script type="text/ecmascript"><![CDATA[
if(typeof(top) != "undefined")
{
	top.ShowPaper = ShowPaper;
}
function ShowHotSpot(evt,hotspotid)
{
	var svgDocument = evt.target.ownerDocument;
	var strId = "hotspot."+hotspotid;
	var hotspot = svgDocument.getElementById(strId);
	if(hotspot)
		hotspot.setAttribute("opacity",".5");
}
function HideHotSpot(evt,hotspotid)
{
	var svgDocument = evt.target.ownerDocument;
	var strId = "hotspot."+hotspotid;
	var hotspot = svgDocument.getElementById(strId);
	if(hotspot)
		hotspot.setAttribute("opacity","0");

	var toolTip = svgDocument.getElementById('ToolTip');
	if(toolTip)
		toolTip.setAttribute("visibility","hidden");
}
function ShowToolTip(evt,hotspotid,strTooltip)
{
	if(strTooltip=="")
	return;

	// change text
	var svgDocument = evt.target.ownerDocument;
	var tiptext = svgDocument.getElementById('ToolTipText');
	if( !tiptext )
	return;
	tiptext.firstChild.nodeValue = " " + strTooltip + "  " ;

	// show tooltip before, else some refresh issue

	var toolTip = svgDocument.getElementById('ToolTip');
	if(!toolTip)
	return;

	toolTip.setAttribute("visibility","visible");
	toolTip.setAttribute("opacity",".95");

	// move tooltip
	// get viewbox

	var root = svgDocument.documentElement;
	var vbox = (root.getAttribute("viewBox")).split(' ');
	var x0 = parseFloat(vbox[0]);
	var y0 = parseFloat(vbox[1]);
	var vboxW = parseFloat(vbox[2]);
	var vboxH = parseFloat(vbox[3]);

	// get default width of svg

	var strW = root.getAttribute("width");
	var svgW = parseFloat(strW);
	if(strW.indexOf('mm') != -1)
	svgW *= 3.779;

	var strH = root.getAttribute("height");
	var svgH = parseFloat(strH);
	if(strH.indexOf('mm') != -1)
	svgH *= 3.779;  	// 96 dpi  -> 96/25.4 = 3.779

	// update the viewbox / width / height if svg is embedded in html with zoom fit all
	var realx0 = x0;
	var realy0 = y0;
	var realvboxW = vboxW;
	var realvboxH = vboxH;
	var realsvgW = svgW;
	var realsvgH = svgH;

	if ((typeof(top) == "undefined") || (typeof(top.svgctl1) != "undefined")) // embedded in html
	{
		// get window size in pxl

		svgW = window.innerWidth;
		svgH = window.innerHeight;

		// calculate real viewbox

		realsvgW = svgW;
		realsvgH = svgH;
		if((svgW / svgH) > (vboxW / vboxH))
		{
			realvboxW = (vboxH * svgW) / svgH;
			realvboxH = vboxH;
			realx0 = x0 - (realvboxW - vboxW)/2 ;
		}
		else
		{
			realvboxH = (vboxW * svgH) / svgW;
			realvboxW = vboxW;
			realy0 = y0 - (realvboxH - vboxH)/2 ;
		}
	}

	// get user zoom/pan

	var newScale = root.currentScale;
	var translation = root.currentTranslate;

	// transform pxl to user unit

	var xPos = (((evt.clientX+10- translation.x)/newScale) * realvboxW)/realsvgW  + realx0 ;
	var yPos = (((evt.clientY+5- translation.y)/newScale) * realvboxH)/ realsvgH  + realy0 ;
	var scaleForWidth = ( (1 / newScale) * realvboxH) / realsvgH;

	// move tooltip

	toolTip.setAttribute("transform", "translate(" + xPos + "," + yPos + ")" );

	// resize tooltip

	var fontsize = 12;
	tiptext.setAttribute("font-size",fontsize*scaleForWidth);
	tiptext.setAttribute("y", fontsize*scaleForWidth);
	var tipBG = svgDocument.getElementById('ToolTipBG');
	var outline = tiptext.getBBox();
	if(tipBG)
	{
		tipBG.setAttribute("stroke-width", 1*scaleForWidth);
		tipBG.setAttribute("width", Number(outline.width) );
		tipBG.setAttribute("height", Number(outline.height) + fontsize*.5*scaleForWidth );
	}
	var ToolTipShadow = svgDocument.getElementById('ToolTipShadow');
	if(ToolTipShadow)
	{
		ToolTipShadow.setAttribute("width", Number(outline.width) );
		ToolTipShadow.setAttribute("height", Number(outline.height) + fontsize*.5*scaleForWidth );
		ToolTipShadow.setAttribute("x", 3*scaleForWidth);
		ToolTipShadow.setAttribute("y", 3*scaleForWidth);
	}
}
function ShowPaper()
{
  var svgDocument = getDocument();
  var paper = svgDocument.getElementById("paperID");
  if(paper)
  {
    paper.setAttribute("transform","scale(1)");
    paper.setAttribute("opacity","1");
    paper.setAttribute("visibility","visible");
  }
  var svg = svgDocument.getRootElement();
  if(svg)
  {
    svg.setAttribute("width","307.000mm");
    svg.setAttribute("height","220.000mm");
    svg.setAttribute("viewBox","-5.000000 -5.000000 307.000000 220.000000");
  }
}
]]></script><defs/><g><g id="Actor_.0"><g style="stroke:#000000;stroke-width:0.123;stroke-opacity:0.03"><path d="M11.96,45.93L12.75,45.88L13.55,46.18L12.75,45.93L11.96,45.99L11.49,45.76L11.74,45.51L12.85,45.23L17.29,44.70L18.42,44.62L18.79,44.76L18.41,44.57L17.84,44.60L12.85,45.17L11.91,45.39L11.52,45.58L11.53,45.77L11.96,45.99"/><path d="M11.48,45.70L11.48,45.65"/><path d="M13.55,46.23L75.05,41.65L74.09,41.38L74.78,41.28L72.27,41.00L66.90,41.08L64.88,41.22L65.32,41.29L64.11,41.38L63.56,41.22L30.06,43.61L20.10,44.44L19.64,44.49L20.12,44.66L18.79,44.76"/><path d="M13.55,46.18L75.05,41.59L74.09,41.38"/><path d="M12.75,45.88L12.75,45.93"/><path d="M13.42,45.49L14.15,45.55L13.47,45.64L13.05,45.57L13.42,45.49"/><path d="M13.05,45.53L14.11,45.52L13.57,45.43L13.05,45.53"/><path d="M13.05,45.51L13.05,45.57"/><path d="M14.15,45.55L14.15,45.50"/><path d="M18.79,44.70L20.12,44.66"/><path d="M18.41,44.57L18.42,44.62"/><path d="M20.11,44.61L19.63,44.44L27.25,43.83"/><path d="M19.64,44.49L19.63,44.44"/><path d="M27.38,43.88L28.44,43.80"/><path d="M27.25,43.78L27.38,43.82"/><path d="M28.29,43.75L28.44,43.75"/><path d="M35.35,43.20L28.29,43.69"/><path d="M35.35,43.14L36.54,43.12L36.39,43.12"/><path d="M35.50,43.25L35.50,43.19"/><path d="M36.54,43.12L36.54,43.17"/><path d="M36.38,43.07L47.06,42.34"/><path d="M47.22,42.39L47.06,42.29"/><path d="M47.22,42.34L48.23,42.31"/><path d="M48.08,42.27L48.23,42.26"/><path d="M55.18,41.84L55.01,41.74L48.08,42.21"/><path d="M55.01,41.79L55.01,41.74"/><path d="M55.18,41.79L56.18,41.77"/><path d="M56.18,41.72L56.03,41.73"/><path d="M56.03,41.67L63.56,41.22"/><path d="M64.88,41.22L65.32,41.34L64.11,41.43L63.57,41.27"/><path d="M64.11,41.43L64.11,41.38"/><path d="M74.78,41.28L73.36,41.02L71.14,40.92L68.08,40.98L64.88,41.17"/><path d="M65.32,41.29L65.32,41.34"/><path d="M69.49,41.36L71.35,41.42L72.13,41.31L71.80,41.19L70.45,41.14L69.29,41.25L69.49,41.36"/><path d="M69.26,41.22L69.62,41.32L70.98,41.36L72.13,41.26L71.80,41.13L70.26,41.09L69.46,41.15L69.26,41.27"/><path d="M72.17,41.29L72.16,41.24"/><path d="M74.09,41.33L74.78,41.33"/><path d="M75.05,41.65L75.05,41.59"/></g></g><g id="Actor_.1"><g style="stroke:#000000;stroke-width:0.123;stroke-opacity:0.03"><path d="M20.56,63.86L20.28,58.92L83.24,53.35L83.41,59.04L90.59,61.41L26.63,67.71L20.74,65.05L20.62,64.86L20.56,63.86"/><path d="M90.59,61.36L26.63,67.65L20.67,64.97L20.30,58.93L83.26,53.36L83.42,58.99L90.59,61.41"/><path d="M20.30,58.93L20.28,58.92"/><path d="M26.63,67.65L26.63,67.71"/><path d="M69.18,62.91L47.66,65.01L42.79,63.11L63.97,61.09L69.18,62.91L64.00,61.09"/><path d="M64.00,61.04L42.79,63.11"/><path d="M42.78,63.05L47.66,65.01"/><path d="M47.67,65.07L69.18,62.96"/><path d="M83.24,53.35L83.26,53.36"/></g></g><g id="Actor_.2"><g style="stroke:#000000;stroke-width:0.123;stroke-opacity:0.03"><path d="M230.71,210.00L230.38,205.05L230.26,200.80L230.27,196.11L230.42,186.50L230.46,187.03L230.70,187.71L230.67,201.04L230.83,205.86L231.15,210.00"/><path d="M230.20,203.15L230.17,202.04L230.37,207.06L230.60,210.00"/><path d="M231.04,210.00L230.73,205.88L230.56,201.05L230.58,187.72L230.38,187.19L230.31,186.66L230.37,186.04L230.69,185.29L231.28,184.57L232.23,183.86L233.24,183.32L234.73,182.72L237.72,181.59L239.93,180.84L250.77,177.35L250.85,177.38L238.90,181.24L235.59,182.45L233.32,183.36L232.06,184.06L231.16,184.83L230.80,185.32L230.59,185.73L230.42,186.50"/><path d="M230.17,202.04L230.16,196.10L230.31,186.66"/><path d="M230.58,187.72L230.70,187.71"/><path d="M236.54,210.00L239.15,209.02L239.23,209.06L236.72,210.00"/><path d="M239.15,209.02L239.96,194.55L249.93,191.11L250.01,191.15L240.03,194.59L239.23,209.06"/><path d="M239.64,195.16L239.47,195.22L239.40,195.18L239.35,194.99L239.50,194.66L239.68,194.60L239.80,194.72L239.81,194.83L239.64,195.16"/><path d="M239.76,194.64L239.58,194.70L239.45,194.91L239.44,195.14L239.55,195.25L239.73,195.19L239.86,194.99L239.87,194.76L239.68,194.60"/><path d="M239.55,195.25L239.47,195.22"/><path d="M240.03,194.59L239.96,194.55"/><path d="M249.93,191.11L250.77,177.35"/><path d="M250.01,191.15L250.85,177.38"/></g></g><g id="Actor_.3"><g style="stroke:#000000;stroke-width:0.123;stroke-opacity:0.03"><path d="M221.64,210.00L197.70,197.05L197.70,197.15L221.45,210.00"/><path d="M197.70,197.15L211.33,193.20L239.47,208.77L239.48,208.67L235.95,210.00"/><path d="M197.70,197.05L211.33,193.11L239.48,208.67"/><path d="M206.75,195.46L206.83,195.65L207.05,195.82L207.80,196.05L208.71,196.02L209.04,195.92L209.27,195.74L209.31,195.55L209.13,195.31L208.72,195.11L208.16,195.00L207.60,195.00L207.12,195.11L206.83,195.28L206.75,195.55L206.82,195.38L207.11,195.20L208.01,195.08L208.95,195.29L209.25,195.52L209.32,195.71L209.15,195.94L208.86,196.08L207.94,196.16L207.14,195.97L206.88,195.80L206.75,195.55"/><path d="M209.32,195.61L209.32,195.71"/><path d="M211.35,193.19L211.35,193.10"/><path d="M236.18,210.00L239.47,208.77"/></g></g><g id="Actor_.4"><g style="stroke:#000000;stroke-width:0.123;stroke-opacity:0.03"><path d="M62.83,78.41L62.77,76.55L62.83,78.41"/><path d="M62.87,78.46L228.37,149.51L227.74,147.23L228.39,149.51L62.84,78.52L62.70,76.61L62.91,78.47"/><path d="M62.83,76.56L63.97,76.43L62.83,76.56"/><path d="M62.77,76.55L62.80,76.56"/><path d="M62.70,76.61L228.65,146.72L228.46,149.55"/><path d="M62.76,76.61L228.63,146.66"/><path d="M62.84,78.52L62.91,78.53"/><path d="M63.97,76.43L74.25,75.28L73.11,75.41"/><path d="M80.82,76.48L80.69,74.54L74.25,75.28"/><path d="M79.96,74.64L80.72,74.55L80.81,76.43"/><path d="M80.90,74.57L244.84,138.10L244.74,140.86L244.45,141.05L231.20,144.24L228.99,145.37L227.75,147.08L228.99,145.46L231.19,144.33L244.71,141.05L244.96,138.15"/><path d="M80.69,74.54L80.72,74.55"/><path d="M80.85,74.58L244.89,138.16"/><path d="M227.72,147.46L227.72,147.55"/><path d="M228.46,149.66L228.65,146.72"/></g></g><g id="Actor_.5"><g style="stroke:#000000;stroke-width:0.123;stroke-opacity:0.03"><path d="M221.80,176.46L212.09,179.09L240.47,193.81L249.95,190.54L221.80,176.46L221.80,176.36L212.10,178.99L240.48,193.71L240.47,193.81"/><path d="M212.10,178.99L212.09,179.09"/><path d="M221.80,176.36L249.96,190.44L249.95,190.54"/><path d="M249.96,190.44L240.48,193.71"/></g></g><g id="Actor_.6"><g style="stroke:#000000;stroke-width:0.123;stroke-opacity:0.03"><path d="M13.37,46.29L13.42,47.06L15.82,56.93L20.22,58.80L15.82,56.88L13.43,47.03L13.37,46.29L75.36,41.67L75.40,42.36L77.84,51.50L83.18,53.18L77.87,51.60L75.39,42.43L75.36,41.67"/><path d="M13.35,46.28L75.34,41.66"/><path d="M20.22,58.80L83.18,53.23"/><path d="M20.22,58.74L83.18,53.18"/><path d="M20.53,57.21L20.16,57.20L20.53,57.21"/><path d="M20.26,57.17L20.15,57.15L20.59,57.12L20.26,57.17"/><path d="M20.15,57.15L20.16,57.20"/><path d="M21.24,57.65L21.68,57.63L21.24,57.60"/><path d="M20.60,57.18L20.59,57.12"/><path d="M21.68,57.63L21.68,57.58"/><path d="M41.79,55.36L41.38,55.36L41.79,55.36"/><path d="M41.80,55.34L41.60,55.26L41.38,55.36"/><path d="M41.37,55.31L41.80,55.29"/><path d="M42.77,55.75L42.96,55.78L42.54,55.80L42.77,55.75"/><path d="M42.96,55.78L42.54,55.74L42.96,55.72"/><path d="M42.54,55.80L42.54,55.74"/><path d="M44.89,55.08L45.22,55.07L44.89,55.08"/><path d="M44.86,55.06L45.22,55.02L44.85,55.01"/><path d="M45.27,54.99L45.28,55.04"/><path d="M46.42,55.46L46.08,55.46L46.42,55.46"/><path d="M46.44,55.43L46.08,55.41L46.44,55.43"/><path d="M46.03,55.49L46.03,55.44"/><path d="M46.45,55.47L46.45,55.41"/><path d="M53.55,54.28L53.38,54.30L53.70,54.34L53.55,54.28"/><path d="M53.33,54.33L53.38,54.24L53.74,54.25L53.33,54.27"/><path d="M54.75,54.71L54.59,54.72L54.90,54.76L54.75,54.71"/><path d="M54.95,54.67L54.53,54.69L54.95,54.73"/><path d="M54.53,54.69L54.54,54.75"/><path d="M53.75,54.31L53.74,54.25"/><path d="M56.94,53.99L57.12,54.01L56.72,54.03L56.94,53.99"/><path d="M56.72,54.03L56.93,53.94L57.13,54.01"/><path d="M56.72,53.98L57.13,53.96"/><path d="M58.35,54.43L57.94,54.45L58.35,54.38"/><path d="M57.94,54.45L57.94,54.40"/><path d="M76.35,52.28L76.75,52.31"/><path d="M76.35,52.33L76.75,52.26"/><path d="M77.67,52.75L77.99,52.70L77.67,52.75"/><path d="M78.03,52.66L77.63,52.68L78.03,52.71"/><path d="M77.63,52.68L77.63,52.73"/></g></g><g id="Actor_.7"><g style="stroke:#000000;stroke-width:0.123;stroke-opacity:0.03"><path d="M228.60,162.93L222.44,164.45L222.38,165.63L222.50,164.55L222.75,164.42L228.60,162.93L229.32,148.48L197.11,156.09L196.34,186.04L196.20,195.39L196.41,197.65L197.92,197.16L197.93,197.00L211.13,193.22L198.03,197.07L197.97,196.99"/><path d="M196.41,197.65L197.92,197.16"/><path d="M196.35,197.61L196.14,195.35L196.27,186.03L196.71,166.96L197.11,156.09"/><path d="M197.05,156.06L229.25,148.45L228.54,162.97L248.44,157.96L250.07,157.39L250.89,156.91L251.43,156.37L251.68,155.80L251.65,155.22L251.31,154.59L250.70,153.99L248.73,152.89L249.91,153.41L251.13,154.29L251.74,155.20L251.78,155.81L251.31,156.64L250.60,157.18L249.64,157.63L248.43,158.01"/><path d="M197.97,197.03L198.03,197.07"/><path d="M197.93,197.00L198.03,197.02"/><path d="M197.99,197.03L197.99,197.19"/><path d="M198.44,181.47L198.44,182.40L198.76,182.59L199.09,182.37L199.22,182.00L199.27,180.51L199.09,180.15L198.82,180.16L198.51,180.50L198.44,181.47"/><path d="M199.02,180.11L199.21,180.47L199.16,181.97L199.03,182.34L198.58,182.56L198.35,182.19L198.41,180.57L198.66,180.18L199.09,180.15"/><path d="M198.45,182.49L198.52,182.53"/><path d="M202.11,181.59L202.48,181.54L202.70,181.22L202.79,179.51L202.68,179.20L202.86,179.55L202.77,181.26L202.38,181.65L202.03,181.47L202.07,179.65L202.31,179.26L202.68,179.19"/><path d="M202.19,181.63L202.04,181.56L201.94,181.25L202.00,179.61L202.25,179.22L202.61,179.15"/><path d="M204.25,185.53L204.26,185.32L204.42,185.17L204.26,185.19L204.17,185.40L204.25,185.56L204.43,185.51L204.51,185.20L204.59,185.33L204.49,185.54L204.25,185.53"/><path d="M204.44,185.14L204.51,185.17"/><path d="M204.25,185.56L204.32,185.59"/><path d="M204.72,177.00L204.50,176.97L204.45,177.25L204.56,177.01L204.76,177.08L204.67,177.28L204.51,177.28"/><path d="M204.43,177.06L204.50,177.10"/><path d="M204.47,177.26L204.74,177.19"/><path d="M205.57,181.97L205.66,181.50L205.95,181.10L206.35,180.93L206.68,181.06L206.82,181.68L206.45,182.32L205.87,182.45L205.57,181.97"/><path d="M205.55,182.15L205.52,181.70L205.89,181.06L206.28,180.90L206.62,181.03L206.77,181.47L206.55,182.10L205.99,182.45L205.81,182.42L205.55,182.15"/><path d="M204.67,177.16L204.66,176.97"/><path d="M205.87,182.45L205.81,182.42"/><path d="M206.53,180.96L206.47,180.93"/><path d="M207.83,184.33L207.98,184.18L208.15,184.34L207.97,184.60L207.82,184.54L207.83,184.33"/><path d="M207.82,184.56L208.06,184.42L208.01,184.15L207.76,184.29L207.75,184.50L207.88,184.60"/><path d="M208.01,184.15L208.07,184.18"/><path d="M211.13,193.22L211.18,191.97L211.20,193.26"/><path d="M211.15,191.99L211.59,181.24L211.09,191.95L211.11,192.04L211.25,192.00"/><path d="M211.09,191.95L211.12,192.00"/><path d="M211.11,192.04L211.18,191.97"/><path d="M211.05,191.96L211.05,192.01"/><path d="M211.49,181.17L211.69,181.17L211.52,181.20"/><path d="M211.49,181.21L211.55,181.20"/><path d="M211.59,181.24L211.55,181.25"/><path d="M211.62,181.13L211.67,179.86L211.69,181.17"/><path d="M211.67,179.86L211.81,179.83L211.74,179.90"/><path d="M211.81,179.83L211.81,179.67L221.77,177.00L222.29,165.70L222.38,165.63"/><path d="M211.85,179.70L211.87,179.86"/><path d="M211.91,179.74L221.77,177.00"/><path d="M211.92,179.69L211.85,179.66"/><path d="M211.88,179.70L211.81,179.67"/><path d="M213.30,162.63L212.99,162.70L212.77,163.01L212.76,163.38L212.96,163.59L213.39,163.38L213.50,162.83L213.30,162.63L213.08,162.60L212.71,162.98L212.77,163.48L213.19,163.48L213.46,162.98L213.23,162.60"/><path d="M212.89,163.55L212.96,163.59"/><path d="M213.09,160.48L212.89,160.27L212.96,159.78L213.28,159.52L213.61,159.69L213.61,160.09L213.24,160.48L212.90,160.37L212.83,159.87L213.06,159.56L213.36,159.48L213.56,159.69L213.55,160.06L213.32,160.37L213.02,160.44"/><path d="M213.43,159.52L213.36,159.48"/><path d="M221.84,177.04L222.36,165.73"/><path d="M222.32,165.74L222.45,165.66"/><path d="M222.25,165.66L222.32,165.69"/><path d="M222.29,165.70L222.25,165.71"/><path d="M222.50,164.49L222.44,164.45"/><path d="M222.86,161.11L222.63,160.92L222.62,160.52L222.84,160.21L223.13,160.13L222.77,160.37L222.65,160.73L222.75,161.04L223.16,161.04L223.41,160.54L223.20,160.17"/><path d="M222.72,157.63L222.82,157.94L223.23,157.94L223.48,157.50L223.39,157.13L222.98,157.13L222.72,157.63"/><path d="M223.13,160.13L223.33,160.34L223.31,160.70L223.09,161.01L222.80,161.08"/><path d="M223.52,157.66L223.15,158.04L222.81,157.83L222.92,157.30L223.20,157.09L223.46,157.16L223.52,157.66"/><path d="M222.94,158.01L223.01,158.04"/><path d="M223.34,157.09L223.27,157.06"/><path d="M228.65,162.07L228.60,163.00"/><path d="M228.54,162.97L248.44,157.96"/><path d="M228.54,162.90L228.58,162.07"/><path d="M228.88,157.50L228.92,156.59L228.81,157.50"/><path d="M228.86,156.56L249.37,151.50L250.45,151.10L251.58,150.38L251.98,149.84L252.03,148.97L251.69,148.39L250.68,147.53L249.68,146.99L246.44,145.67L248.45,151.79L228.92,156.59"/><path d="M229.32,148.48L229.25,148.45"/><path d="M246.51,145.65L250.26,147.23L251.17,147.80L251.99,148.68L252.18,149.27L251.78,155.81"/><path d="M246.44,145.67L248.72,152.89"/><path d="M248.36,157.98L248.37,157.93"/><path d="M248.79,152.87L248.45,151.79L250.02,151.34L250.98,150.90L251.67,150.40L252.17,149.57"/><path d="M251.68,155.80L252.07,149.56"/></g></g><g id="Actor_.8"><g style="stroke:#000000;stroke-width:0.123;stroke-opacity:0.03"><path d="M90.81,67.50L27.03,74.23L26.69,67.88L90.68,61.57L90.81,67.50L27.03,74.23"/><path d="M27.01,74.22L26.69,67.88"/><path d="M90.79,67.49L90.66,61.56L26.67,67.87"/><path d="M90.66,61.56L90.68,61.57"/></g></g><g id="Actor_.9"><g style="stroke:#000000;stroke-width:0.123;stroke-opacity:0.03"><path d="M251.99,154.82L251.86,153.96L251.31,153.24L250.23,152.45L248.86,151.79L250.95,153.03L251.50,153.53L251.95,154.31L251.93,155.07L251.66,155.55L251.18,156.01L250.17,156.58L248.59,157.10L222.86,163.62L222.87,163.53L251.44,176.90L238.74,181.03L233.55,183.03L232.29,183.83L231.53,184.75L231.28,185.76L231.58,186.81L242.02,183.80L242.02,183.90L231.57,186.91L231.58,186.81"/><path d="M222.87,163.53L249.14,156.86L251.18,155.92L251.66,155.46L252.00,154.73"/><path d="M222.86,163.62L251.46,177.02L251.47,176.92"/><path d="M231.57,186.91L231.28,185.86L231.50,184.89L232.29,183.93L233.54,183.13L238.73,181.14L251.46,177.02"/><path d="M231.28,185.86L231.28,185.76"/><path d="M242.02,183.80L245.01,184.59L245.00,184.69L245.60,184.66L251.18,183.04L251.18,182.94L245.62,184.55L245.01,184.59"/><path d="M242.02,183.90L245.00,184.69"/><path d="M248.81,151.86L275.11,145.39L275.28,145.18L275.05,145.18L275.28,145.27"/><path d="M275.28,145.18L248.81,151.77"/><path d="M251.18,182.94L254.64,183.12L262.62,186.51L264.82,186.01L261.59,184.29L262.20,184.08L263.87,184.97L271.40,183.15L269.66,182.25L270.25,182.10L270.24,182.21L272.12,183.18L272.13,183.07L285.54,179.40L297.00,175.87"/><path d="M251.18,183.04L254.63,183.22L254.64,183.12"/><path d="M254.63,183.22L262.62,186.61L262.62,186.51"/><path d="M257.41,152.85L256.87,152.63L256.46,152.78L256.82,152.93L257.37,152.90L257.38,152.66L257.02,152.55L256.47,152.69L256.86,152.85L257.42,152.76"/><path d="M256.47,152.64L256.46,152.73"/><path d="M261.52,184.25L261.51,184.36L264.82,186.11L262.62,186.61"/><path d="M261.51,184.36L262.20,184.19L262.20,184.08"/><path d="M262.20,184.19L263.87,185.08L263.92,185.00"/><path d="M263.87,153.43L263.74,153.61L264.07,153.76L264.72,153.78L264.93,153.64L264.57,153.43L263.87,153.43"/><path d="M263.72,153.55L264.57,153.52L264.90,153.79L264.23,153.88L263.71,153.64"/><path d="M264.82,186.11L264.82,186.01"/><path d="M263.92,185.10L271.39,183.25L269.66,182.25"/><path d="M264.93,153.64L264.93,153.73"/><path d="M266.16,176.91L265.83,176.66L267.30,176.24L269.69,177.37L268.16,177.82L266.16,176.91"/><path d="M268.16,177.82L268.17,177.72L265.83,176.66"/><path d="M267.36,176.32L265.83,176.76"/><path d="M265.85,150.65L266.24,150.51L265.69,150.34L265.30,150.48L265.85,150.65"/><path d="M265.40,150.65L265.99,150.74L266.24,150.59L265.55,150.43L265.34,150.48L265.40,150.65"/><path d="M265.29,150.52L265.30,150.44"/><path d="M266.99,156.61L267.26,156.81L266.69,156.90L266.28,156.68L266.99,156.61"/><path d="M267.26,156.81L267.20,156.94L266.84,157.00L266.27,156.77L266.83,156.67L267.25,156.90"/><path d="M266.28,156.68L266.27,156.77"/><path d="M266.24,150.55L266.24,150.64"/><path d="M268.17,177.72L269.70,177.27L267.36,176.22"/><path d="M270.25,182.10L272.13,183.07"/><path d="M269.66,182.35L270.24,182.21"/><path d="M270.27,179.28L271.53,179.79L273.17,180.00L274.60,179.84L275.08,179.63L275.37,179.21L275.12,178.74L274.36,178.31L272.85,177.93L271.63,177.88L270.60,178.04L269.96,178.37L269.84,178.81L270.27,179.28"/><path d="M269.82,178.66L269.92,179.07L270.51,179.53L271.52,179.89L272.75,180.09L274.60,179.94L275.23,179.61L275.37,179.21"/><path d="M275.37,179.31L275.11,178.84L274.65,178.54L273.65,178.18L272.43,177.99L270.60,178.14L269.96,178.47L269.81,178.76"/><path d="M269.69,177.37L269.70,177.27"/><path d="M271.39,183.25L271.40,183.15"/><path d="M297.00,175.97L285.58,179.48L272.12,183.18"/><path d="M272.08,149.13L272.85,149.12L272.38,148.94L272.00,149.03L272.08,149.13"/><path d="M272.84,149.21L272.52,149.04L271.99,149.12L272.46,149.30L272.73,149.28L272.85,149.12"/><path d="M272.00,149.03L271.99,149.12"/><path d="M275.05,145.18L273.01,138.75L273.50,132.04L283.70,135.62L282.74,148.04L281.70,148.47L282.63,148.24L282.80,148.02L283.70,135.62"/><path d="M272.99,139.08L274.98,145.19"/><path d="M273.05,139.06L273.50,132.04"/><path d="M273.56,132.02L283.77,135.61"/><path d="M275.26,170.05L274.74,169.67L274.82,169.38L275.30,169.20L276.64,169.28L277.39,169.74L277.20,170.01L276.82,170.11L275.76,170.09L274.79,169.67L274.81,169.48L275.30,169.30L276.63,169.38L277.39,169.84L277.20,170.10L276.82,170.21L275.26,170.05"/><path d="M275.30,154.47L275.23,154.36L275.63,154.26L276.20,154.49L275.81,154.59L275.30,154.47"/><path d="M275.28,154.55L275.94,154.68L276.19,154.53L275.62,154.35L275.27,154.41L275.28,154.55"/><path d="M275.22,154.45L275.23,154.36"/><path d="M275.21,145.28L275.22,145.20"/><path d="M276.20,154.58L276.20,154.49"/><path d="M296.34,161.90L279.70,166.63L296.34,161.90L297.00,162.16"/><path d="M279.68,166.63L288.98,170.53L288.99,170.43L286.30,171.30L288.98,170.53"/><path d="M279.69,166.54L288.99,170.43"/><path d="M284.21,173.02L288.26,171.84L288.69,172.03L288.70,171.93L288.27,171.75L284.21,173.02L280.30,171.25L283.95,170.21L286.31,171.20"/><path d="M280.30,171.25L284.22,172.92"/><path d="M280.30,171.34L283.95,170.21"/><path d="M281.93,149.45L281.21,149.17L280.70,149.19L280.50,149.34L280.71,149.51L281.41,149.63L281.93,149.45L281.04,149.51L280.60,149.37L280.53,149.19L281.21,149.08L281.94,149.37"/><path d="M280.50,149.25L280.50,149.34"/><path d="M281.71,148.38L297.00,154.18"/><path d="M281.70,148.47L297.00,154.27"/><path d="M283.94,170.30L286.30,171.30"/><path d="M288.70,171.93L290.51,171.40L290.15,171.25L290.27,171.20L297.00,169.25"/><path d="M288.26,171.84L288.27,171.75"/><path d="M288.69,172.03L290.50,171.50L290.12,171.24"/><path d="M290.11,171.34L297.00,169.34"/><path d="M290.51,171.40L290.50,171.50"/><path d="M292.43,154.14L292.12,153.92L292.23,153.73L292.52,153.65L293.36,153.68L294.06,154.00L293.95,154.20L293.46,154.29L292.43,154.14"/><path d="M292.29,153.98L292.15,153.70L292.72,153.54L293.57,153.64L294.07,153.91L293.96,154.11L293.47,154.20L292.29,153.98"/><path d="M292.11,153.76L292.10,153.85"/><path d="M294.07,154.08L294.08,153.98"/><path d="M297.00,162.26L296.33,162.00"/></g></g><g id="Actor_.10"><g style="stroke:#000000;stroke-width:0.123;stroke-opacity:0.03"><path d="M51.16,71.90L62.01,76.49L80.88,74.38L80.88,74.43L68.92,69.81L68.92,69.75L50.63,71.68L51.16,71.90"/><path d="M62.01,76.49L62.01,76.55L50.64,71.74L50.63,71.68"/><path d="M50.64,71.74L68.92,69.81"/><path d="M65.55,70.43L72.31,73.09L61.97,74.23L55.40,71.51L55.40,71.56L65.56,70.49L65.55,70.43L55.40,71.51"/><path d="M55.40,71.56L61.97,74.28L61.97,74.23"/><path d="M62.01,76.55L80.88,74.43"/><path d="M72.31,73.09L72.31,73.15L61.97,74.28"/><path d="M65.56,70.49L72.31,73.15"/><path d="M68.92,69.75L80.88,74.38"/></g></g><g id="Actor_.11"><g style="stroke:#000000;stroke-width:0.123;stroke-opacity:0.03"><path d="M70.05,69.66L90.59,67.49L70.05,69.71L246.72,137.65L70.05,69.71"/><path d="M90.59,67.49L273.69,131.57L246.72,137.65"/><path d="M90.59,67.55L273.68,131.65L246.71,137.74"/><path d="M273.69,131.57L273.68,131.65"/></g></g><g id="Actor_.12"><g style="stroke:#000000;stroke-width:0.123;stroke-opacity:0.03"><path d="M27.03,74.25L49.55,71.82L27.03,74.25L193.05,153.77L194.19,153.62L193.20,153.85"/><path d="M27.03,74.19L193.20,153.75"/><path d="M228.98,148.26L197.14,155.63L228.98,148.26L49.56,71.87"/><path d="M49.55,71.82L228.99,148.17"/><path d="M196.27,154.50L195.33,154.72L196.11,154.44L194.34,153.58"/><path d="M195.13,154.77L197.14,155.73"/><path d="M195.13,154.67L197.14,155.63"/><path d="M194.34,153.49L196.27,154.41"/></g></g><g id="Actor_.13"><g style="stroke:#000000;stroke-width:0.123;stroke-opacity:0.03"><path d="M228.27,154.08L229.09,156.09L229.09,156.19L227.91,153.30L227.80,152.93L227.75,152.53L227.78,152.16L227.88,151.80L228.05,151.44L228.30,151.09L228.61,150.75L229.44,150.12L230.52,149.55L231.16,149.29L232.58,148.82L246.28,145.57L246.28,145.48L233.38,148.53L231.85,148.96L230.53,149.46L229.44,150.03L229.00,150.34L228.63,150.65L228.30,151.00L228.06,151.35L227.88,151.70L227.78,152.07L227.75,152.44L227.80,152.82L227.92,153.20L228.27,154.08"/><path d="M227.75,152.53L227.75,152.44"/><path d="M229.09,156.09L249.16,151.16L249.71,150.97L250.64,150.55L251.01,150.32L251.30,150.07L251.53,149.81L251.69,149.54L251.78,149.27L251.80,148.99L251.74,148.71L251.62,148.42L251.42,148.13L250.82,147.57L250.31,147.23L249.47,146.78L246.28,145.48"/><path d="M229.09,156.19L249.15,151.25L250.20,150.86L251.00,150.41L251.30,150.16L251.53,149.90L251.69,149.64L251.78,149.27"/><path d="M246.28,145.57L249.46,146.87L250.43,147.39L251.15,147.94L251.41,148.22L251.61,148.51L251.74,148.80L251.79,149.08L251.78,149.36"/></g></g><g id="Actor_.14"><g style="stroke:#000000;stroke-width:0.123;stroke-opacity:0.03"><path d="M228.11,155.22L227.51,153.64L227.47,153.26L227.60,152.51L227.77,152.14L228.34,151.45L229.70,150.50L230.92,149.96L232.37,149.48L246.01,146.27L232.44,149.51L231.00,149.98L229.79,150.52L228.82,151.14L228.13,151.79L227.87,152.15L227.59,152.89L227.61,153.65L227.73,154.03L228.97,157.11L228.87,157.11L228.11,155.22"/><path d="M227.47,153.26L227.76,147.43L228.04,146.72L228.29,146.37L229.00,145.72L230.56,144.85L232.65,144.13L244.89,141.34L232.72,144.16L231.27,144.61L230.06,145.14L228.70,146.06L228.14,146.73L227.96,147.08L227.86,147.44L227.88,148.18L228.61,150.03L228.51,150.03L227.90,148.56L227.73,147.80"/><path d="M227.56,153.26L227.83,147.81"/><path d="M228.87,157.11L229.28,148.95L229.38,148.95L228.97,157.11"/><path d="M228.51,150.03L228.68,146.71L228.78,146.71L229.05,147.36L229.02,148.10L228.92,148.10L229.28,148.95"/><path d="M228.78,146.71L228.61,150.03"/><path d="M229.38,148.95L229.02,148.10"/><path d="M229.05,147.36L228.95,147.36L228.92,148.10"/><path d="M228.95,147.36L228.68,146.71"/><path d="M244.89,141.34L245.07,138.17L245.83,138.00L245.79,138.70L245.72,138.68L246.39,138.52L245.94,146.25"/><path d="M244.83,141.31L245.01,138.15L245.07,138.17"/><path d="M245.83,138.00L245.01,138.15"/><path d="M246.01,146.27L246.46,138.55L245.79,138.70"/><path d="M248.36,152.95L246.00,145.45L246.06,145.43L248.42,152.92L248.36,152.95L275.38,146.26L273.03,139.07L246.00,145.45"/><path d="M246.06,145.45L273.10,139.06L246.00,145.42L246.06,145.45L246.49,138.15L246.42,138.12L246.00,145.42"/><path d="M246.06,145.43L273.09,139.04L275.44,146.24L248.42,152.92"/><path d="M245.72,138.68L245.76,137.98"/><path d="M246.39,138.52L246.46,138.55"/><path d="M246.42,138.12L273.90,131.91L273.86,132.37L273.50,132.46L273.03,139.04"/><path d="M246.49,138.15L273.96,131.93L273.90,131.91"/><path d="M263.65,137.97L263.87,137.86L263.94,137.69L263.87,137.52L264.00,137.72L263.80,138.00L263.65,137.92L263.64,137.80L263.84,137.52L263.77,137.50L263.60,137.65L263.59,137.89L263.72,137.99"/><path d="M263.86,137.51L263.93,137.53"/><path d="M267.91,136.96L267.73,137.19L267.67,137.52L267.78,137.77L268.01,137.82L268.25,137.65L268.39,137.17L268.31,136.96L268.18,136.87L267.91,136.96"/><path d="M267.82,136.96L267.67,137.17L267.61,137.50L267.72,137.75L267.94,137.80L268.18,137.63L268.33,137.15L268.22,136.90L268.11,136.84L267.82,136.96"/><path d="M267.82,137.80L267.89,137.83"/><path d="M268.18,136.87L268.11,136.84"/><path d="M273.10,139.06L273.57,132.48L273.50,132.46"/><path d="M273.03,139.07L273.09,139.04"/><path d="M273.96,131.93L273.93,132.39L273.57,132.48"/><path d="M273.86,132.37L273.93,132.40"/><path d="M275.38,146.26L275.44,146.24"/></g></g><g id="Actor_.15"><g style="stroke:#000000;stroke-width:0.123"><path d="M13.59,47.93L15.87,57.38L20.27,59.25L20.33,60.40L82.98,54.78L82.97,53.57L20.31,59.13L15.89,57.25L13.33,46.63L13.59,47.93"/><path d="M13.33,46.63L75.00,42.00L77.64,51.92L15.89,57.25"/><path d="M20.38,60.42L20.31,59.13"/><path d="M77.64,51.92L82.97,53.57"/></g></g><g id="Actor_.16"><g style="stroke:#000000;stroke-width:0.123"><path d="M13.52,46.54L74.83,41.95L73.02,41.45L69.97,41.32L62.83,41.72L39.26,43.30L20.80,44.82L13.49,45.49L12.02,45.98L13.52,46.61"/><path d="M12.02,45.98L12.03,46.12L13.37,46.62"/><path d="M13.66,46.00L13.07,45.97L13.43,45.85L14.17,45.88L13.66,46.00"/><path d="M13.89,45.99L13.36,46.00"/><path d="M69.68,41.72L69.31,41.66L69.33,41.58L70.41,41.49L72.15,41.59L72.03,41.70L71.57,41.75L69.68,41.72"/><path d="M69.42,41.69L70.22,41.62L72.04,41.69"/><path d="M74.83,41.95L74.83,42.02"/></g></g><g id="Actor_.17"><g style="stroke:#000000;stroke-width:0.123"><path d="M20.29,59.76L16.56,58.17L16.58,58.17"/><path d="M16.56,58.17L16.57,58.31L20.30,59.91"/></g></g><g id="Actor_.18"><g style="stroke:#000000;stroke-width:0.123"><path d="M229.19,126.62L230.12,126.70"/><path d="M229.93,126.89L230.11,126.91"/><path d="M259.72,129.36L259.33,129.32"/></g></g><g id="Actor_.19"><g style="stroke:#000000;stroke-width:0.123"><path d="M218.92,128.00L208.41,123.93L208.40,124.13L218.91,128.21L218.92,128.00L220.70,127.64"/><path d="M218.91,128.21L220.69,127.85"/></g></g><g id="Actor_.20"><g style="stroke:#000000;stroke-width:0.123"><path d="M221.42,128.97L220.66,128.67L220.65,128.88L236.29,134.95L236.30,134.73L221.42,128.97"/><path d="M236.30,134.73L238.05,134.35"/><path d="M236.29,134.95L238.04,134.57"/></g></g><g id="Actor_.21"><g style="stroke:#000000;stroke-width:0.123"><path d="M151.37,135.12L151.37,135.25L161.11,139.95L161.11,139.82L151.37,135.12"/><path d="M161.11,139.82L161.89,139.66"/><path d="M161.89,139.79L161.11,139.95"/></g></g><g id="Actor_.22"><g style="stroke:#000000;stroke-width:0.123"><path d="M181.28,135.91L181.26,135.91L181.27,135.69L171.24,131.22L171.24,131.32"/><path d="M179.73,135.23L179.09,134.94"/><path d="M181.26,135.91L180.04,135.37"/><path d="M181.42,135.88L182.95,135.57"/><path d="M181.27,135.69L182.95,135.35"/></g></g><g id="Actor_.23"><g style="stroke:#000000;stroke-width:0.123"><path d="M26.70,68.85L21.26,66.37L21.26,66.23L26.69,68.70"/><path d="M21.26,66.23L21.29,66.23"/></g></g><g id="Actor_.24"><g style="stroke:#000000;stroke-width:0.123"><path d="M161.88,140.43L177.32,147.89L177.32,147.66L161.88,140.21L161.88,140.43"/><path d="M177.32,147.66L180.01,136.49L180.01,136.71L177.32,147.89"/></g></g><g id="Actor_.25"><g style="stroke:#000000;stroke-width:0.123"><path d="M195.06,118.76L195.06,118.96L201.49,121.45L201.50,121.25L195.06,118.76"/><path d="M201.50,121.25L202.85,120.99"/><path d="M201.49,121.45L202.85,121.20"/></g></g><g id="Actor_.26"><g style="stroke:#000000;stroke-width:0.123"><path d="M139.00,129.37L139.00,129.16L144.97,132.04L144.97,132.26L139.00,129.37"/><path d="M144.97,132.04L146.20,131.81"/><path d="M144.97,132.26L146.20,132.02"/></g></g><g id="Actor_.27"><g style="stroke:#000000;stroke-width:0.123"><path d="M225.81,125.47L227.37,126.05"/><path d="M225.81,125.59L227.15,126.10"/><path d="M227.96,126.16L228.50,126.05"/><path d="M228.17,126.24L228.49,126.17"/></g></g><g id="Actor_.28"><g style="stroke:#000000;stroke-width:0.123"><path d="M212.98,149.30L212.18,149.48"/><path d="M212.52,149.64L212.97,149.53"/></g></g><g id="Actor_.29"><g style="stroke:#000000;stroke-width:0.123"><path d="M197.65,143.01L182.93,136.43L182.92,136.55"/><path d="M197.31,143.08L195.66,142.35"/><path d="M199.56,142.76L197.91,143.12"/><path d="M199.55,142.98L198.25,143.27"/></g></g><g id="Actor_.30"><g style="stroke:#000000;stroke-width:0.123"><path d="M217.18,152.09L225.24,150.19L225.26,149.95L217.19,151.85L217.18,152.09L215.29,151.25"/><path d="M215.30,151.01L217.19,151.85"/></g></g><g id="Actor_.31"><g style="stroke:#000000;stroke-width:0.123"><path d="M193.01,155.48L193.02,155.24L196.24,156.79L196.23,157.04L193.01,155.48"/><path d="M196.24,156.79L215.24,152.31L215.23,152.55L196.23,157.04"/></g></g><g id="Actor_.32"><g style="stroke:#000000;stroke-width:0.123"><path d="M150.59,134.75L150.59,134.97L146.19,132.85L146.19,132.63L150.59,134.75L151.38,134.60"/><path d="M150.59,134.97L151.38,134.82"/></g></g><g id="Actor_.33"><g style="stroke:#000000;stroke-width:0.123"><path d="M211.28,119.91L211.50,119.87"/><path d="M214.65,121.49L213.56,121.09"/><path d="M213.57,120.89L214.87,121.37L215.61,119.08L215.54,119.09"/><path d="M214.87,121.37L214.86,121.45"/><path d="M215.61,119.08L215.60,119.28L214.90,121.45"/></g></g><g id="Actor_.34"><g style="stroke:#000000;stroke-width:0.123"><path d="M179.01,148.48L179.00,148.71L186.33,152.25L186.33,152.01L179.01,148.48"/><path d="M186.33,152.01L186.39,152.00"/><path d="M186.33,152.25L186.39,152.23"/></g></g><g id="Actor_.35"><g style="stroke:#000000;stroke-width:0.123"><path d="M165.93,128.04L164.66,128.28L158.54,125.55L158.54,125.66"/><path d="M163.60,128.02L162.50,127.53"/><path d="M164.81,128.47L165.93,128.25"/><path d="M164.66,128.28L164.66,128.40"/></g></g><g id="Actor_.36"><g style="stroke:#000000;stroke-width:0.123"><path d="M168.33,129.92L165.53,128.67L165.53,128.79"/><path d="M165.53,128.67L165.93,128.60"/><path d="M167.76,129.88L166.93,129.51"/><path d="M168.91,130.39L168.64,130.28"/><path d="M169.68,130.63L169.68,130.52L168.65,130.06"/><path d="M171.25,130.43L169.85,130.70"/><path d="M169.68,130.52L171.26,130.22"/></g></g><g id="Actor_.37"><g style="stroke:#000000;stroke-width:0.123"><path d="M192.95,155.45L186.39,152.28L186.39,152.04L192.96,155.21L192.95,155.45L193.01,155.44"/><path d="M192.96,155.21L193.02,155.19"/></g></g><g id="Actor_.38"><g style="stroke:#000000;stroke-width:0.123"><path d="M209.38,119.31L208.25,118.89"/><path d="M209.02,119.38L208.24,119.09"/><path d="M211.51,119.54L210.71,119.69"/><path d="M211.52,119.34L210.36,119.56"/><path d="M215.55,118.77L215.78,118.72L215.79,118.53L215.56,118.57"/><path d="M215.79,118.53L217.03,114.67L217.02,114.87L215.78,118.72"/></g></g><g id="Actor_.39"><g style="stroke:#000000;stroke-width:0.123"><path d="M246.66,138.98L237.98,135.61L237.99,135.39L246.68,138.75L246.66,138.98L271.21,133.39L271.22,133.18L246.68,138.75"/></g></g><g id="Actor_.40"><g style="stroke:#000000;stroke-width:0.123"><path d="M202.83,121.53L202.41,121.61L202.41,121.81L206.77,123.50L206.78,123.30L208.45,122.97"/><path d="M206.78,123.30L202.41,121.61"/><path d="M208.44,123.17L206.77,123.50"/></g></g><g id="Actor_.41"><g style="stroke:#000000;stroke-width:0.123"><path d="M73.11,71.52L71.97,71.07L71.97,71.21L82.53,75.31L82.52,75.16L73.11,71.52"/><path d="M82.52,75.16L83.26,75.08"/><path d="M83.26,75.22L82.53,75.31"/></g></g><g id="Actor_.42"><g style="stroke:#000000;stroke-width:0.123"><path d="M243.31,132.26L244.44,132.69"/><path d="M244.81,132.60L243.32,132.05"/></g></g><g id="Actor_.43"><g style="stroke:#000000;stroke-width:0.123"><path d="M85.21,76.20L85.21,76.35L83.27,75.60L83.27,75.45L85.21,76.20L85.60,76.16"/><path d="M85.21,76.35L85.60,76.30"/><path d="M100.16,74.40L100.02,74.50L99.72,74.54"/><path d="M100.02,74.50L100.02,74.52"/></g></g><g id="Actor_.44"><g style="stroke:#000000;stroke-width:0.123"><path d="M57.75,76.02L51.19,73.21L51.19,73.35L57.76,76.17L57.75,76.02L58.10,75.98"/><path d="M57.76,76.17L58.11,76.13"/></g></g><g id="Actor_.45"><g style="stroke:#000000;stroke-width:0.123"><path d="M58.11,76.18L58.12,76.32L61.31,77.69L61.30,77.54L58.11,76.18"/><path d="M61.31,77.69L80.15,75.56L80.15,75.41L61.30,77.54"/></g></g><g id="Actor_.46"><g style="stroke:#000000;stroke-width:0.123"><path d="M104.47,83.82L104.47,83.66L105.95,84.24L105.95,84.39L104.47,83.82"/><path d="M105.95,84.24L107.55,84.04"/><path d="M107.55,84.19L105.95,84.39"/></g></g><g id="Actor_.47"><g style="stroke:#000000;stroke-width:0.123"><path d="M20.56,64.45L20.33,60.40L20.66,65.31L26.65,68.01L27.03,74.08L26.66,68.16L20.62,65.43L20.56,64.45"/><path d="M20.38,60.42L82.98,54.78L83.11,59.35L20.66,65.31"/><path d="M27.03,74.08L90.49,67.40L90.36,61.75L26.70,68.04"/><path d="M83.11,59.35L90.36,61.75"/></g></g><g id="Actor_.48"><g style="stroke:#000000;stroke-width:0.123"><path d="M26.69,68.68L21.29,66.23L21.26,65.72"/></g></g><g id="Actor_.49"><g style="stroke:#000000;stroke-width:0.123"><path d="M20.29,59.75L16.58,58.17L16.55,57.67"/></g></g><g id="Actor_.50"><g style="stroke:#000000;stroke-width:0.123"><path d="M107.56,84.79L107.56,84.94L110.59,86.12L110.59,85.96L107.56,84.79"/><path d="M110.59,85.96L126.61,83.89L126.62,84.04L110.59,86.12"/></g></g><g id="Actor_.51"><g style="stroke:#000000;stroke-width:0.123"><path d="M41.70,82.17L48.14,85.28L48.15,85.44L41.65,82.30L41.64,82.15L41.70,82.17"/><path d="M48.15,85.44L48.53,85.39"/><path d="M48.14,85.28L48.52,85.24"/></g></g><g id="Actor_.52"><g style="stroke:#000000;stroke-width:0.123"><path d="M93.66,79.48L87.01,76.90L87.01,77.05L93.66,79.63L93.66,79.48L94.23,79.03"/><path d="M93.66,79.63L94.23,79.18"/></g></g><g id="Actor_.53"><g style="stroke:#000000;stroke-width:0.123"><path d="M38.30,80.54L38.30,80.69L41.10,82.05L41.10,81.89L38.30,80.54"/><path d="M41.10,82.05L41.63,81.98"/><path d="M41.10,81.89L41.63,81.83"/></g></g><g id="Actor_.54"><g style="stroke:#000000;stroke-width:0.123"><path d="M37.66,80.23L28.21,75.67L28.22,75.82L37.67,80.38L37.66,80.23L38.26,79.82"/><path d="M38.27,79.97L37.67,80.38"/><path d="M38.51,79.64L38.79,79.45"/><path d="M38.71,79.66L38.79,79.60"/></g></g><g id="Actor_.55"><g style="stroke:#000000;stroke-width:0.123"><path d="M58.46,90.27L57.11,89.62L57.11,89.78L58.46,90.44L58.46,90.27L59.25,89.76"/><path d="M58.46,90.44L59.25,89.92"/><path d="M59.43,89.64L59.76,89.43"/><path d="M59.75,89.60L59.76,89.59"/></g></g><g id="Actor_.56"><g style="stroke:#000000;stroke-width:0.123"><path d="M126.61,83.54L130.90,83.34L130.90,83.49L126.61,83.69"/></g></g><g id="Actor_.57"><g style="stroke:#000000;stroke-width:0.123"><path d="M62.48,92.36L59.29,90.81L59.28,90.65L62.47,92.19L62.48,92.36L67.41,91.19"/><path d="M62.47,92.19L67.41,91.02"/></g></g><g id="Actor_.58"><g style="stroke:#000000;stroke-width:0.123"><path d="M71.71,73.79L66.21,71.60L66.21,71.74L71.44,73.82"/></g></g><g id="Actor_.59"><g style="stroke:#000000;stroke-width:0.123"><path d="M95.04,80.16L95.04,80.01L103.71,83.37L103.71,83.53L95.04,80.16"/><path d="M103.71,83.53L104.46,83.43"/></g></g><g id="Actor_.60"><g style="stroke:#000000;stroke-width:0.123"><path d="M95.03,79.81L94.25,79.91L94.25,79.76L95.03,79.66"/></g></g><g id="Actor_.61"><g style="stroke:#000000;stroke-width:0.123"><path d="M95.43,79.13L95.42,78.92L120.32,80.41L120.32,80.75"/><path d="M95.42,78.92L114.55,76.64L123.95,79.95L120.32,80.41"/><path d="M123.95,79.95L123.95,80.30"/></g></g><g id="Actor_.62"><g style="stroke:#000000;stroke-width:0.123"><path d="M67.41,91.02L62.47,92.19L59.28,90.65L59.24,89.66L80.16,87.02L80.18,87.53"/><path d="M59.24,89.66L62.44,91.19L80.16,87.02"/><path d="M62.47,92.19L62.44,91.19"/></g></g><g id="Actor_.63"><g style="stroke:#000000;stroke-width:0.123"><path d="M48.54,85.62L48.53,85.46L56.47,89.29L56.48,89.46L48.54,85.62"/><path d="M56.48,89.46L57.10,89.38"/><path d="M61.88,88.04L62.00,87.96"/></g></g><g id="Actor_.64"><g style="stroke:#000000;stroke-width:0.123"><path d="M67.39,90.55L67.42,91.55L85.09,89.26L85.06,88.28L67.39,90.55"/><path d="M67.40,90.55L82.20,87.05L85.06,88.28"/></g></g><g id="Actor_.65"><g style="stroke:#000000;stroke-width:0.123"><path d="M86.41,76.67L85.60,76.36L85.58,75.48L86.39,75.79L86.41,76.67L87.00,76.60"/><path d="M85.58,75.48L99.71,73.87L99.72,74.58"/><path d="M86.39,75.79L99.11,74.33L99.12,75.04"/><path d="M99.11,74.33L99.71,73.87"/><path d="M98.70,75.25L98.88,75.23"/></g></g><g id="Actor_.66"><g style="stroke:#000000;stroke-width:0.123"><path d="M100.15,74.21L105.80,73.56L102.48,72.39L100.15,74.21L100.16,74.51"/><path d="M105.80,73.56L105.80,73.86"/></g></g><g id="Actor_.67"><g style="stroke:#000000;stroke-width:0.123"><path d="M126.25,81.21L126.25,80.76L124.66,80.21L122.15,80.52L122.15,80.73"/><path d="M122.15,80.52L126.25,80.76"/></g></g><g id="Actor_.68"><g style="stroke:#000000;stroke-width:0.123"><path d="M58.42,89.29L58.46,90.27L57.11,89.62L57.07,88.64L58.42,89.29L59.98,88.28L60.01,88.93"/><path d="M57.07,88.64L59.98,88.28"/><path d="M58.46,90.27L59.25,89.76"/><path d="M59.43,89.64L59.76,89.43"/></g></g><g id="Actor_.69"><g style="stroke:#000000;stroke-width:0.123"><path d="M50.42,80.21L63.10,78.75L69.37,81.45L50.42,80.21L50.43,80.42"/><path d="M69.37,81.45L69.38,81.67"/></g></g><g id="Actor_.70"><g style="stroke:#000000;stroke-width:0.123"><path d="M86.41,76.81L86.41,76.67L85.60,76.36L85.61,76.50L86.41,76.81L87.00,76.75"/><path d="M86.41,76.67L87.00,76.60"/><path d="M98.88,75.23L98.70,75.25"/></g></g><g id="Actor_.71"><g style="stroke:#000000;stroke-width:0.123"><path d="M67.43,91.71L67.42,91.55L85.09,89.26L85.09,89.42L67.43,91.71"/></g></g><g id="Actor_.72"><g style="stroke:#000000;stroke-width:0.123"><path d="M58.11,76.18L58.08,75.30L61.27,76.65L61.30,77.54L58.11,76.18"/><path d="M58.08,75.30L76.77,73.24L80.12,74.54L80.15,75.41L61.30,77.54"/><path d="M61.27,76.65L80.12,74.54"/></g></g><g id="Actor_.73"><g style="stroke:#000000;stroke-width:0.123"><path d="M57.72,75.14L57.75,76.02L51.19,73.21L51.15,72.35L54.57,71.99L61.20,74.76L57.72,75.14L51.15,72.35"/><path d="M58.10,75.98L57.75,76.02"/><path d="M61.20,74.76L61.21,74.95"/></g></g><g id="Actor_.74"><g style="stroke:#000000;stroke-width:0.123"><path d="M59.74,89.10L80.94,86.44L79.53,85.84L61.26,88.12L59.74,89.10L59.76,89.59"/><path d="M80.18,87.50L80.41,87.47"/><path d="M80.96,87.34L80.94,86.44"/></g></g><g id="Actor_.75"><g style="stroke:#000000;stroke-width:0.123"><path d="M48.81,85.60L56.53,89.32L56.49,88.34L48.49,84.51L48.53,85.46L48.81,85.60"/><path d="M48.49,84.51L69.71,81.98L69.73,82.62"/><path d="M56.53,89.32L57.09,89.25"/><path d="M56.49,88.34L60.69,87.82L60.71,88.47"/><path d="M60.00,88.89L60.09,88.87"/><path d="M60.69,87.82L69.71,81.98"/><path d="M61.88,88.04L62.00,87.96"/></g></g><g id="Actor_.76"><g style="stroke:#000000;stroke-width:0.123"><path d="M83.24,74.58L85.18,75.32L100.00,73.64L101.44,72.53L83.24,74.58L83.27,75.45L85.21,76.20L85.60,76.16"/><path d="M85.21,76.20L85.18,75.32"/><path d="M99.72,74.54L100.02,74.50L100.16,74.40"/><path d="M100.02,74.50L100.00,73.64"/><path d="M101.45,73.20L101.44,72.53"/></g></g><g id="Actor_.77"><g style="stroke:#000000;stroke-width:0.123"><path d="M45.21,80.08L45.20,79.87L61.38,78.03L59.55,77.24L39.54,79.50L39.55,79.71"/><path d="M39.54,79.50L45.20,79.87"/><path d="M61.39,78.23L61.38,78.03"/></g></g><g id="Actor_.78"><g style="stroke:#000000;stroke-width:0.123"><path d="M37.66,80.23L37.62,79.32L28.17,74.79L28.21,75.67L37.66,80.23L38.26,79.82"/><path d="M28.17,74.79L47.08,72.79L37.62,79.32"/><path d="M38.79,79.45L38.51,79.64"/><path d="M47.11,73.38L47.08,72.79"/></g></g><g id="Actor_.79"><g style="stroke:#000000;stroke-width:0.123"><path d="M130.90,82.41L127.17,81.09L108.43,83.45L130.90,82.41L130.90,83.32L126.61,83.54"/><path d="M108.43,83.45L108.43,83.80"/></g></g><g id="Actor_.80"><g style="stroke:#000000;stroke-width:0.123"><path d="M105.95,84.24L104.47,83.66L104.45,82.73L105.94,83.30L105.95,84.24L107.55,84.04"/><path d="M104.45,82.73L121.04,80.66L125.05,80.90L125.05,81.36"/><path d="M105.94,83.30L125.05,80.90"/></g></g><g id="Actor_.81"><g style="stroke:#000000;stroke-width:0.123"><path d="M71.97,70.95L71.94,70.24L82.50,74.29L82.52,75.16L71.97,71.07L71.97,70.95"/><path d="M71.94,70.24L100.77,72.24L82.50,74.29"/><path d="M82.52,75.16L83.26,75.08"/><path d="M100.77,72.24L100.77,72.61"/></g></g><g id="Actor_.82"><g style="stroke:#000000;stroke-width:0.123"><path d="M52.22,74.63L52.21,74.44L44.36,75.29L44.37,75.48"/><path d="M44.36,75.29L47.92,72.82L52.21,74.44"/></g></g><g id="Actor_.83"><g style="stroke:#000000;stroke-width:0.123"><path d="M38.77,79.17L44.04,75.52L52.60,74.59L58.79,76.93L38.77,79.17L38.80,79.66"/><path d="M58.79,76.93L58.81,77.33"/></g></g><g id="Actor_.84"><g style="stroke:#000000;stroke-width:0.123"><path d="M62.52,78.82L62.51,78.51L61.75,78.19L46.36,79.94L46.37,80.16"/><path d="M46.36,79.94L48.69,80.09L48.70,80.41"/><path d="M48.69,80.09L62.51,78.51"/></g></g><g id="Actor_.85"><g style="stroke:#000000;stroke-width:0.123"><path d="M41.70,82.17L41.64,82.15L41.60,81.22L48.10,84.33L48.14,85.28L41.70,82.17"/><path d="M41.60,81.22L49.23,80.34L70.12,81.71L48.10,84.33"/><path d="M48.52,85.24L48.14,85.28"/><path d="M70.12,81.71L70.14,82.35"/></g></g><g id="Actor_.86"><g style="stroke:#000000;stroke-width:0.123"><path d="M41.10,81.89L41.05,80.97L38.25,79.63L38.30,80.54L41.10,81.89L41.63,81.83"/><path d="M38.25,79.63L47.49,80.23L41.05,80.97"/><path d="M47.49,80.23L47.51,80.54"/></g></g><g id="Actor_.87"><g style="stroke:#000000;stroke-width:0.123"><path d="M78.93,85.91L78.92,85.55L70.67,82.01L61.99,87.66L62.00,88.02"/><path d="M61.99,87.66L78.92,85.55"/></g></g><g id="Actor_.88"><g style="stroke:#000000;stroke-width:0.123"><path d="M197.65,143.01L182.93,136.43L182.96,135.11L197.95,141.75L197.91,143.11"/><path d="M182.96,135.11L190.52,133.57L205.66,140.08L197.95,141.75"/><path d="M197.91,143.12L199.56,142.76"/><path d="M205.66,140.08L205.61,141.27"/></g></g><g id="Actor_.89"><g style="stroke:#000000;stroke-width:0.123"><path d="M158.54,125.55L164.66,128.28L164.68,127.02L158.56,124.31L158.54,125.55"/><path d="M164.68,127.02L172.05,125.62L165.86,122.96L158.56,124.31"/><path d="M164.66,128.28L165.93,128.04"/><path d="M172.05,125.62L172.03,126.42"/></g></g><g id="Actor_.90"><g style="stroke:#000000;stroke-width:0.123"><path d="M93.64,78.57L93.66,79.48L87.01,76.90L86.99,76.02L98.69,74.68L93.64,78.57L86.99,76.02"/><path d="M93.66,79.48L94.23,79.03"/><path d="M98.70,75.37L98.69,74.68"/></g></g><g id="Actor_.91"><g style="stroke:#000000;stroke-width:0.123"><path d="M202.83,121.77L202.87,120.55L206.82,122.07L206.78,123.30L202.83,121.77"/><path d="M202.87,120.55L209.59,119.27L213.57,120.77L213.54,121.71"/><path d="M206.78,123.30L208.45,122.97"/><path d="M206.82,122.07L213.57,120.77"/></g></g><g id="Actor_.92"><g style="stroke:#000000;stroke-width:0.123"><path d="M95.04,80.01L95.02,79.10L103.76,82.46L103.78,83.40L95.04,80.01"/><path d="M95.02,79.10L119.18,80.55L103.76,82.46"/><path d="M103.78,83.40L104.46,83.31"/><path d="M119.18,80.55L119.18,80.89"/></g></g><g id="Actor_.93"><g style="stroke:#000000;stroke-width:0.123"><path d="M72.46,70.27L72.45,70.09L101.74,72.13L90.52,68.18L72.45,70.09"/><path d="M101.73,72.98L101.45,72.96"/><path d="M101.74,72.13L101.76,72.96"/></g></g><g id="Actor_.94"><g style="stroke:#000000;stroke-width:0.123"><path d="M73.03,73.65L73.02,73.46L66.18,70.76L66.21,71.60L71.71,73.79"/><path d="M66.18,70.76L69.49,70.41L76.39,73.09L73.02,73.46"/><path d="M76.40,73.28L76.39,73.09"/></g></g><g id="Actor_.95"><g style="stroke:#000000;stroke-width:0.123"><path d="M161.88,140.21L161.90,138.86L180.04,135.17L177.35,146.26L177.32,147.66L161.88,140.21"/><path d="M161.90,138.86L177.35,146.26"/><path d="M180.04,135.17L180.01,136.49L177.32,147.66"/></g></g><g id="Actor_.96"><g style="stroke:#000000;stroke-width:0.123"><path d="M171.31,131.25L181.27,135.69L181.30,134.38L171.26,129.93L171.24,131.22L171.31,131.25"/><path d="M188.82,133.92L188.85,132.85L178.70,128.49L171.26,129.93"/><path d="M181.27,135.69L182.95,135.35"/><path d="M181.30,134.38L188.85,132.85"/></g></g><g id="Actor_.97"><g style="stroke:#000000;stroke-width:0.123"><path d="M242.93,122.38L242.96,121.88L232.18,118.09L217.20,121.00L227.82,124.95L227.76,126.08"/><path d="M217.20,121.00L217.15,122.11"/><path d="M225.81,125.47L227.37,126.05"/><path d="M227.96,126.16L228.50,126.05"/><path d="M227.82,124.95L242.96,121.88"/></g></g><g id="Actor_.98"><g style="stroke:#000000;stroke-width:0.123"><path d="M237.99,135.39L238.06,134.08L262.45,128.76L271.31,131.88L271.22,133.18L246.68,138.75L237.99,135.39"/><path d="M238.06,134.08L246.74,137.41L246.68,138.75"/><path d="M246.76,137.42L271.31,131.88"/></g></g><g id="Actor_.99"><g style="stroke:#000000;stroke-width:0.123"><path d="M168.33,129.92L165.92,128.85L165.94,127.58L169.71,129.24L177.13,127.81L177.11,128.80"/><path d="M165.94,127.58L173.32,126.17L177.13,127.81"/><path d="M171.26,130.22L169.68,130.52L168.65,130.06"/><path d="M169.68,130.52L169.71,129.24"/></g></g><g id="Actor_.100"><g style="stroke:#000000;stroke-width:0.123"><path d="M217.15,117.83L217.19,117.08L218.40,113.24L225.07,115.59L217.19,117.08"/><path d="M225.07,115.59L225.03,116.33"/></g></g><g id="Actor_.101"><g style="stroke:#000000;stroke-width:0.123"><path d="M218.98,126.74L208.46,122.70L208.41,123.93L218.92,128.00L218.98,126.74L225.82,125.36L225.77,126.38"/><path d="M208.46,122.70L215.22,121.38L225.82,125.36"/><path d="M218.92,128.00L220.70,127.64"/></g></g><g id="Actor_.102"><g style="stroke:#000000;stroke-width:0.123"><path d="M94.23,78.85L114.12,76.49L106.46,73.78L99.75,74.55L94.23,78.85L94.25,79.76L95.03,79.66"/><path d="M114.12,76.49L114.12,76.69"/></g></g><g id="Actor_.103"><g style="stroke:#000000;stroke-width:0.123"><path d="M110.58,85.01L110.59,85.96L107.56,84.79L107.55,83.85L126.61,82.95L110.58,85.01L107.55,83.85"/><path d="M110.59,85.96L126.61,83.89L126.61,82.95"/></g></g><g id="Actor_.104"><g style="stroke:#000000;stroke-width:0.123"><path d="M161.11,139.82L151.37,135.12L151.38,133.80L169.06,130.36L179.09,134.83L161.13,138.47L161.11,139.82L161.89,139.66"/><path d="M151.38,133.80L161.13,138.47"/><path d="M179.09,134.83L179.08,135.36"/></g></g><g id="Actor_.105"><g style="stroke:#000000;stroke-width:0.123"><path d="M139.00,129.16L139.00,127.89L144.98,130.75L144.97,132.04L139.00,129.16"/><path d="M139.00,127.89L154.44,128.96L144.98,130.75"/><path d="M144.97,132.04L146.20,131.81"/><path d="M154.43,129.77L154.44,128.96"/></g></g><g id="Actor_.106"><g style="stroke:#000000;stroke-width:0.123"><path d="M195.63,143.45L195.67,142.24L181.30,135.83L178.95,145.86L178.91,147.26L179.04,147.24"/><path d="M178.95,145.86L195.67,142.24"/></g></g><g id="Actor_.107"><g style="stroke:#000000;stroke-width:0.123"><path d="M207.10,147.22L207.15,145.95L212.04,148.11L220.07,146.27L220.04,146.93"/><path d="M207.15,145.95L215.13,144.15L220.07,146.27"/><path d="M211.99,149.41L212.04,148.11"/><path d="M212.98,149.30L212.18,149.48"/></g></g><g id="Actor_.108"><g style="stroke:#000000;stroke-width:0.123"><path d="M151.38,134.60L150.59,134.75L146.19,132.63L146.20,131.33L150.60,133.44L168.65,129.94L168.64,130.45"/><path d="M146.20,131.33L157.56,129.17L168.65,129.94"/><path d="M150.59,134.75L150.60,133.44"/></g></g><g id="Actor_.109"><g style="stroke:#000000;stroke-width:0.123"><path d="M221.42,128.97L220.66,128.67L220.71,127.41L227.57,126.01L243.31,131.91L236.37,133.43L236.30,134.73L221.42,128.97"/><path d="M220.71,127.41L236.37,133.43"/><path d="M236.30,134.73L238.05,134.35"/><path d="M243.33,131.92L243.27,132.94"/></g></g><g id="Actor_.110"><g style="stroke:#000000;stroke-width:0.123"><path d="M215.07,144.17L215.07,144.13L207.09,145.92L199.57,142.59L199.52,143.84"/><path d="M199.57,142.59L207.48,140.86L215.07,144.13"/><path d="M207.04,147.19L207.09,145.92"/></g></g><g id="Actor_.111"><g style="stroke:#000000;stroke-width:0.123"><path d="M215.30,151.01L217.19,151.85L217.25,150.42L213.01,148.54L212.95,149.83"/><path d="M213.01,148.54L221.04,146.69L225.32,148.54L225.26,149.95L217.19,151.85"/><path d="M217.25,150.42L225.32,148.54"/></g></g><g id="Actor_.112"><g style="stroke:#000000;stroke-width:0.123"><path d="M193.02,155.24L193.06,153.78L196.28,155.32L196.24,156.79L193.02,155.24"/><path d="M193.06,153.78L212.01,149.41L215.30,150.88L196.28,155.32"/><path d="M196.24,156.79L215.24,152.31L215.30,150.88"/></g></g><g id="Actor_.113"><g style="stroke:#000000;stroke-width:0.123"><path d="M216.02,120.76L216.94,117.87L226.43,116.07L231.32,117.79L216.02,120.76L215.99,121.67"/><path d="M217.17,121.74L216.51,121.87"/><path d="M231.32,117.79L231.30,118.26"/></g></g><g id="Actor_.114"><g style="stroke:#000000;stroke-width:0.123"><path d="M201.54,120.04L201.50,121.25L195.06,118.76L195.10,117.57L201.76,116.34L208.25,118.77L201.54,120.04L195.10,117.57"/><path d="M202.85,120.99L201.50,121.25"/><path d="M208.25,118.77L208.22,119.53"/></g></g><g id="Actor_.115"><g style="stroke:#000000;stroke-width:0.123"><path d="M230.12,126.70L229.19,126.62"/><path d="M260.73,129.13L260.79,128.18L243.83,122.20L228.53,125.31L228.48,126.35"/><path d="M228.53,125.31L260.79,128.18"/><path d="M259.72,129.36L259.33,129.32"/></g></g><g id="Actor_.116"><g style="stroke:#000000;stroke-width:0.123"><path d="M186.39,152.00L186.33,152.01L179.01,148.48L179.04,147.07L186.37,150.58L205.16,146.35L197.66,143.00L179.04,147.07"/><path d="M186.33,152.01L186.37,150.58"/><path d="M205.16,146.35L205.16,146.40"/></g></g><g id="Actor_.117"><g style="stroke:#000000;stroke-width:0.123"><path d="M213.57,120.89L214.87,121.37L214.92,120.16L211.53,118.90L211.49,119.99"/><path d="M211.53,118.90L215.58,118.13L214.92,120.16"/><path d="M214.87,121.37L215.53,119.33L215.58,118.13"/></g></g><g id="Actor_.118"><g style="stroke:#000000;stroke-width:0.123"><path d="M245.28,132.50L245.34,131.48L230.16,125.83L230.11,126.96"/><path d="M230.16,125.83L259.39,128.44L245.34,131.48"/><path d="M244.81,132.60L243.32,132.05"/><path d="M259.32,129.44L259.39,128.44"/></g></g><g id="Actor_.119"><g style="stroke:#000000;stroke-width:0.123"><path d="M159.13,128.87L163.75,127.99L166.93,129.41L159.13,128.87L159.13,129.28"/><path d="M166.93,129.41L166.93,129.82"/></g></g><g id="Actor_.120"><g style="stroke:#000000;stroke-width:0.123"><path d="M156.02,129.47L156.03,128.66L162.50,127.43L156.39,124.71L140.73,127.60L140.72,128.00"/><path d="M140.73,127.60L156.03,128.66"/><path d="M162.49,128.24L162.50,127.43"/></g></g><g id="Actor_.121"><g style="stroke:#000000;stroke-width:0.123"><path d="M203.69,115.98L210.18,118.40L211.33,118.19L215.84,117.34L217.08,113.51L203.69,115.98L203.65,117.05"/><path d="M208.25,118.89L209.38,119.31"/><path d="M210.15,119.48L210.20,118.40"/><path d="M211.52,119.34L210.36,119.56"/><path d="M215.56,118.57L215.79,118.53L215.84,117.34"/><path d="M215.79,118.53L217.03,114.67L217.08,113.51"/></g></g><g id="Actor_.122"><g style="stroke:#000000;stroke-width:0.123"><path d="M192.96,155.21L193.00,153.75L186.43,150.60L186.39,152.04L192.96,155.21L193.02,155.19"/><path d="M186.43,150.60L205.23,146.38L211.95,149.38L193.00,153.75"/><path d="M211.95,149.38L211.95,149.42"/></g></g><g id="PMI57.0"><g><path style="stroke:#000000;stroke-width:0.281" d="M44.43,38.83L44.49,41.17"/></g><g><path style="fill:#000000" d="M43.50,41.20L45.50,41.14L44.55,43.17z"/></g><g><path style="fill:#ffffff" d="M35.82,39.47L53.05,39.47L53.05,34.39L35.82,34.39z"/><path style="stroke:#000000;stroke-width:0.281;stroke-opacity:0.98" d="M35.82,39.47L53.05,39.47L53.05,34.39L35.82,34.39z"/><text xml:space="preserve" fill="#000000" stroke-width="0" x="36.45" y="38.04" font-size="3.09" opacity="1.00" font-family="Microsoft Sans Serif">6F00004Y1</text></g></g><g id="PMI56.0"><g><path style="stroke:#000000;stroke-width:0.281" d="M122.85,71.76L119.67,71.76L118.12,76.11"/></g><g><path style="fill:#000000" d="M117.18,75.78L119.06,76.45L117.45,78.00z"/></g><g><path style="fill:#ffffff" d="M122.22,74.30L138.72,74.30L138.72,69.22L122.22,69.22z"/><path style="stroke:#000000;stroke-width:0.281;stroke-opacity:0.98" d="M122.22,74.30L138.72,74.30L138.72,69.22L122.22,69.22z"/><text xml:space="preserve" fill="#000000" stroke-width="0" x="122.85" y="72.87" font-size="3.05" opacity="1.00" font-family="Microsoft Sans Serif">1003PHM0</text></g></g><g/><g id="paperID" visibility="hidden" opacity="0.00" transform="scale(0.000100)"><path style="stroke:#000000;stroke-width:0.500;fill:#e6e6e6;fill-rule:evenodd" d="M-2000.00,-2000.00L2297.00,-2000.00L2297.00,2210.00L-2000.00,2210.00zM0.00,0.00L297.00,0.00L297.00,210.00L0.00,210.00z"/><path style="fill:#000000;fill-opacity:0.118" d="M3.00,210.00L297.00,210.00L297.00,3.00L300.00,3.00L300.00,213.00L3.00,213.00z"/></g><g id="hotspot.0" onmouseover="ShowHotSpot(evt,'0')" onmouseout="HideHotSpot(evt,'0')" onmousemove="ShowToolTip(evt,'0',&quot;3dp2626895&quot;)" opacity="0"><path style="fill:#00ff00;fill-rule:evenodd" d="M101.44,72.17L101.90,72.82L103.04,72.70L104.39,73.27L114.14,76.75L117.38,77.67L117.36,75.93L118.72,76.52L118.76,76.84L117.79,77.84L123.03,79.74L123.85,80.27L125.19,80.55L126.29,81.07L127.63,81.35L130.90,82.68L130.88,83.62L127.25,83.78L126.55,84.16L110.34,86.25L107.65,85.13L107.36,84.61L105.46,84.35L104.40,83.79L101.15,82.72L95.75,80.56L94.91,80.03L94.42,80.08L94.16,79.51L92.78,79.48L83.87,75.97L83.05,75.44L80.03,74.56L80.03,75.70L65.52,77.40L60.74,77.77L60.12,77.31L58.84,76.97L58.24,76.49L51.72,73.83L51.17,73.00L51.18,72.54L54.72,72.15L61.18,74.90L63.00,74.88L70.32,74.09L70.92,73.81L66.32,71.90L66.23,71.12L66.76,70.81L69.57,70.53L71.47,71.41L72.02,71.47L71.93,70.54L72.42,70.28L90.63,68.39zM119.61,72.09L119.69,71.90L121.96,71.74L122.21,69.29L138.70,69.20L138.70,74.44L122.12,74.44L121.96,72.17zM119.34,72.91L119.42,72.17L119.61,72.09zM54.98,75.70L58.84,76.97L58.96,77.39L60.74,77.77L61.19,78.13L70.52,82.22L78.22,85.40L78.95,86.02L80.66,86.47L81.11,87.40L82.54,87.28L84.96,88.38L84.97,89.56L71.19,91.44L67.60,91.67L67.41,91.40L62.28,92.46L59.60,91.07L59.07,90.25L58.66,90.52L58.24,90.58L57.13,89.75L55.53,89.19L42.84,82.98L42.00,82.74L41.47,82.19L39.87,81.63L38.45,80.88L38.26,80.31L37.16,80.31L28.26,75.95L28.24,74.96L46.85,73.00L47.11,73.35L47.58,73.25L47.98,72.99zM119.24,73.64L119.17,73.04L119.34,72.91zM118.43,75.80L118.36,75.21L118.53,75.06zM224.83,115.64L225.28,116.27L226.99,116.45L242.38,121.85L243.12,122.49L243.98,122.38L260.72,128.35L260.98,129.25L263.17,129.14L271.26,132.12L271.17,133.48L247.68,138.87L245.87,138.88L237.95,135.71L238.06,134.80L235.60,134.84L220.69,128.96L220.53,128.09L218.06,128.08L208.54,124.37L208.35,123.47L206.18,123.49L202.91,122.14L202.63,121.83L202.65,121.58L200.77,121.34L195.10,119.15L195.08,118.43L195.32,117.83L200.43,116.73L202.41,116.72L203.52,117.07L203.67,116.19L216.98,113.73L216.99,115.21L215.66,118.73L215.01,121.31L215.34,121.63L215.90,121.69L217.52,116.27L218.47,113.48zM171.65,125.62L172.10,126.55L173.52,126.44L174.33,126.72L177.05,128.05L177.28,128.98L179.20,128.88L188.64,132.93L188.89,134.11L190.57,133.75L205.65,140.22L205.90,141.40L207.58,141.04L219.94,146.46L220.22,147.06L221.32,146.95L225.09,148.59L225.09,150.30L224.77,150.52L217.71,152.12L216.71,152.12L215.62,151.51L215.28,151.53L215.10,152.74L197.20,156.97L195.64,156.97L179.10,148.95L179.19,145.17L181.08,137.06L181.11,136.15L180.27,135.61L177.28,147.88L176.77,147.82L162.19,140.75L161.93,139.98L160.82,139.98L151.90,135.65L151.36,135.11L150.01,134.84L146.18,133.00L145.97,132.40L144.34,132.14L139.23,129.69L139.15,128.04L140.54,128.15L140.79,127.83L155.07,125.10L157.06,125.09L158.43,125.73L158.59,124.56L165.35,123.20L165.95,123.19zM60.12,77.31L60.74,77.77L58.96,77.39L58.84,76.97zM214.57,121.61L213.63,121.65L213.72,121.32zM226.99,126.20L225.87,126.55L225.80,125.92zM163.26,128.09L162.63,128.14L162.71,127.79zM170.18,130.75L171.11,130.78L171.14,131.37L170.24,131.00zM243.93,132.94L243.33,133.02L243.35,132.67L243.98,132.62zM179.46,135.34L179.12,135.43L179.21,135.09zM181.76,136.14L182.02,135.89L183.00,135.91L182.99,136.53L182.42,136.48zM197.29,143.21L195.91,143.56L195.93,142.62zM198.55,143.46L199.50,143.22L199.46,143.81L198.86,143.77z"/></g><g id="hotspot.1" onmouseover="ShowHotSpot(evt,'1')" onmouseout="HideHotSpot(evt,'1')" onmousemove="ShowToolTip(evt,'1',&quot;3dp2578541&quot;)" opacity="0"><path style="fill:#00ff00;fill-rule:evenodd" d="M35.72,39.61L35.81,34.46L53.11,34.37L53.11,39.61L44.63,39.77L44.65,41.21L45.27,41.42L45.32,41.74L44.96,42.31L44.89,42.84L52.83,42.57L65.97,41.67L73.36,41.66L74.95,42.23L77.59,52.01L82.55,53.53L82.83,53.79L83.26,59.57L90.35,61.93L90.36,67.41L90.04,67.63L27.08,74.17L26.64,68.94L21.44,66.58L20.97,65.70L20.62,65.51L20.16,60.03L16.58,58.48L16.14,57.57L15.84,57.33L13.42,47.33L13.13,46.81L12.21,46.23L13.32,45.72L37.62,43.56L44.21,43.11L43.92,42.21L43.59,41.40L44.17,41.22L44.20,39.77z"/></g></g></svg>
