<?xml version="1.0" encoding="UTF-8" standalone="no"?>
<svg xmlns="http://www.w3.org/2000/svg" xmlns:xlink="http://www.w3.org/1999/xlink" width="297.000mm" height="210.000mm" viewBox="0.000000 0.000000 297.000000 210.000000" stroke-linejoin="round" stroke-linecap="round" fill="none" fill-rule="evenodd"><desc>Composer Export</desc><script type="text/ecmascript"><![CDATA[
if(typeof(top) != "undefined")
{
	top.ShowPaper = ShowPaper;
}
function ShowHotSpot(evt,hotspotid)
{
	var svgDocument = evt.target.ownerDocument;
	var strId = "hotspot."+hotspotid;
	var hotspot = svgDocument.getElementById(strId);
	if(hotspot)
		hotspot.setAttribute("opacity",".5");
}
function HideHotSpot(evt,hotspotid)
{
	var svgDocument = evt.target.ownerDocument;
	var strId = "hotspot."+hotspotid;
	var hotspot = svgDocument.getElementById(strId);
	if(hotspot)
		hotspot.setAttribute("opacity","0");

	var toolTip = svgDocument.getElementById('ToolTip');
	if(toolTip)
		toolTip.setAttribute("visibility","hidden");
}
function ShowToolTip(evt,hotspotid,strTooltip)
{
	if(strTooltip=="")
	return;

	// change text
	var svgDocument = evt.target.ownerDocument;
	var tiptext = svgDocument.getElementById('ToolTipText');
	if( !tiptext )
	return;
	tiptext.firstChild.nodeValue = " " + strTooltip + "  " ;

	// show tooltip before, else some refresh issue

	var toolTip = svgDocument.getElementById('ToolTip');
	if(!toolTip)
	return;

	toolTip.setAttribute("visibility","visible");
	toolTip.setAttribute("opacity",".95");

	// move tooltip
	// get viewbox

	var root = svgDocument.documentElement;
	var vbox = (root.getAttribute("viewBox")).split(' ');
	var x0 = parseFloat(vbox[0]);
	var y0 = parseFloat(vbox[1]);
	var vboxW = parseFloat(vbox[2]);
	var vboxH = parseFloat(vbox[3]);

	// get default width of svg

	var strW = root.getAttribute("width");
	var svgW = parseFloat(strW);
	if(strW.indexOf('mm') != -1)
	svgW *= 3.779;

	var strH = root.getAttribute("height");
	var svgH = parseFloat(strH);
	if(strH.indexOf('mm') != -1)
	svgH *= 3.779;  	// 96 dpi  -> 96/25.4 = 3.779

	// update the viewbox / width / height if svg is embedded in html with zoom fit all
	var realx0 = x0;
	var realy0 = y0;
	var realvboxW = vboxW;
	var realvboxH = vboxH;
	var realsvgW = svgW;
	var realsvgH = svgH;

	if ((typeof(top) == "undefined") || (typeof(top.svgctl1) != "undefined")) // embedded in html
	{
		// get window size in pxl

		svgW = window.innerWidth;
		svgH = window.innerHeight;

		// calculate real viewbox

		realsvgW = svgW;
		realsvgH = svgH;
		if((svgW / svgH) > (vboxW / vboxH))
		{
			realvboxW = (vboxH * svgW) / svgH;
			realvboxH = vboxH;
			realx0 = x0 - (realvboxW - vboxW)/2 ;
		}
		else
		{
			realvboxH = (vboxW * svgH) / svgW;
			realvboxW = vboxW;
			realy0 = y0 - (realvboxH - vboxH)/2 ;
		}
	}

	// get user zoom/pan

	var newScale = root.currentScale;
	var translation = root.currentTranslate;

	// transform pxl to user unit

	var xPos = (((evt.clientX+10- translation.x)/newScale) * realvboxW)/realsvgW  + realx0 ;
	var yPos = (((evt.clientY+5- translation.y)/newScale) * realvboxH)/ realsvgH  + realy0 ;
	var scaleForWidth = ( (1 / newScale) * realvboxH) / realsvgH;

	// move tooltip

	toolTip.setAttribute("transform", "translate(" + xPos + "," + yPos + ")" );

	// resize tooltip

	var fontsize = 12;
	tiptext.setAttribute("font-size",fontsize*scaleForWidth);
	tiptext.setAttribute("y", fontsize*scaleForWidth);
	var tipBG = svgDocument.getElementById('ToolTipBG');
	var outline = tiptext.getBBox();
	if(tipBG)
	{
		tipBG.setAttribute("stroke-width", 1*scaleForWidth);
		tipBG.setAttribute("width", Number(outline.width) );
		tipBG.setAttribute("height", Number(outline.height) + fontsize*.5*scaleForWidth );
	}
	var ToolTipShadow = svgDocument.getElementById('ToolTipShadow');
	if(ToolTipShadow)
	{
		ToolTipShadow.setAttribute("width", Number(outline.width) );
		ToolTipShadow.setAttribute("height", Number(outline.height) + fontsize*.5*scaleForWidth );
		ToolTipShadow.setAttribute("x", 3*scaleForWidth);
		ToolTipShadow.setAttribute("y", 3*scaleForWidth);
	}
}
function ShowPaper()
{
  var svgDocument = getDocument();
  var paper = svgDocument.getElementById("paperID");
  if(paper)
  {
    paper.setAttribute("transform","scale(1)");
    paper.setAttribute("opacity","1");
    paper.setAttribute("visibility","visible");
  }
  var svg = svgDocument.getRootElement();
  if(svg)
  {
    svg.setAttribute("width","307.000mm");
    svg.setAttribute("height","220.000mm");
    svg.setAttribute("viewBox","-5.000000 -5.000000 307.000000 220.000000");
  }
}
]]></script><defs/><g><g id="Actor_.0"><g style="stroke:#000000;stroke-width:0.123"><path d="M131.64,82.03L131.47,82.11L131.37,82.18L131.37,82.28L131.45,82.36L133.24,83.51L133.38,83.57L133.56,83.58L133.71,83.54L135.67,82.65L135.77,82.58L135.77,82.48L135.69,82.40L133.90,81.25L133.76,81.19L133.58,81.18L133.43,81.22L131.64,82.03"/><path d="M131.37,82.28L131.34,82.71"/><path d="M131.89,82.03L131.57,82.18L131.51,82.24L131.56,82.31L133.35,83.46L133.48,83.50L133.60,83.48L134.31,83.16L135.57,82.59L135.63,82.52L135.58,82.45L135.40,82.33L133.79,81.30L133.66,81.26L133.54,81.28L131.89,82.03"/><path d="M135.69,83.81L135.69,83.74"/><path d="M135.77,82.48L135.76,82.63"/></g></g><g id="Actor_.1"><g style="stroke:#000000;stroke-width:0.123"><path d="M204.59,108.41L206.54,108.88L206.71,108.90L206.97,108.83L208.82,107.88L208.89,107.83L209.87,94.25L209.80,94.26L207.95,95.20L207.73,95.39L207.48,95.73L205.17,99.48L205.12,99.62L204.50,108.32L204.52,108.38L204.59,108.41"/></g></g><g id="Actor_.2"><g style="stroke:#000000;stroke-width:0.123"><path d="M208.42,49.35L208.03,54.72L207.96,54.77L206.09,55.77L205.82,55.86L205.65,55.90L203.65,56.03L203.55,56.01L204.04,49.21L204.13,49.30L206.04,50.41L206.16,50.45L206.31,50.46L206.47,50.43L208.34,49.49L208.41,49.43L208.42,49.35L208.33,49.25L206.42,48.15L206.30,48.11L206.15,48.09L205.99,48.13L204.12,49.07L204.05,49.13L204.04,49.21"/><path d="M205.28,49.85L204.23,49.25L204.20,49.22L204.19,49.19L204.20,49.16L206.15,48.18L206.21,48.18L206.31,48.21L208.23,49.31L208.26,49.34L208.27,49.37L208.26,49.40L208.23,49.42L206.31,50.38L206.26,50.38L206.15,50.35L205.28,49.85"/></g></g><g id="Actor_.3"><g style="stroke:#000000;stroke-width:0.123"><path d="M185.70,57.65L135.96,28.81L132.59,81.60"/><path d="M135.88,28.84L185.62,57.68"/><path d="M143.06,85.96L142.98,87.22"/><path d="M143.01,71.41L143.23,71.34L143.27,71.09L143.12,70.77L142.79,70.62L142.67,71.01L143.01,71.41"/><path d="M142.81,70.62L142.78,71.07L143.19,71.38"/><path d="M143.05,87.26L143.14,85.93"/><path d="M144.84,59.29L143.73,76.69"/><path d="M144.85,59.30L144.76,59.25L143.65,76.73"/><path d="M161.12,68.80L145.29,59.56"/><path d="M155.68,102.52L146.47,97.09"/><path d="M155.60,102.55L146.47,97.17"/><path d="M183.98,63.26L180.45,114.62"/><path d="M183.90,63.29L180.38,114.66"/><path d="M185.50,62.57L181.96,113.93"/></g></g><g id="Actor_.4"><g style="stroke:#000000;stroke-width:0.123"><path d="M145.07,59.50L145.05,59.49"/><path d="M145.20,59.54L145.19,59.54"/><path d="M144.79,59.19L144.78,59.18"/><path d="M144.82,59.25L144.81,59.23"/><path d="M144.88,59.34L144.88,59.34"/><path d="M145.21,59.55L145.22,59.55"/><path d="M144.98,59.44L144.96,59.43"/><path d="M145.16,59.54L145.17,59.54"/><path d="M144.73,59.06L144.73,59.05"/><path d="M144.70,58.93L144.70,58.89"/><path d="M145.26,59.54L145.24,59.54"/><path d="M145.31,59.53L145.33,59.51"/><path d="M145.36,59.49L145.37,59.48"/><path d="M145.51,59.15L145.50,59.15"/><path d="M145.55,59.20L145.55,59.19"/><path d="M145.49,59.36L145.50,59.35"/><path d="M145.44,59.40L145.43,59.42"/><path d="M145.37,59.57L145.36,59.55L145.36,59.53L145.36,59.51L145.37,59.49"/><path d="M145.34,59.57L145.30,59.56"/><path d="M145.55,59.48L145.38,59.57"/><path d="M145.55,59.48L145.59,59.41"/><path d="M145.65,59.32L145.66,59.30"/><path d="M145.70,59.26L145.72,59.24"/><path d="M145.76,59.20L145.77,59.18"/><path d="M145.88,59.06L145.88,59.06"/><path d="M145.87,59.25L145.87,59.23"/><path d="M145.79,59.43L145.82,59.39"/><path d="M145.77,59.45L145.75,59.47L145.71,59.50"/><path d="M145.61,59.54L145.66,59.52L145.69,59.51"/><path d="M145.58,59.54L145.53,59.54L145.46,59.52"/><path d="M145.89,59.37L145.91,59.37L145.90,59.38"/><path d="M145.91,59.37L145.90,59.36"/><path d="M145.95,59.30L145.93,59.30"/><path d="M145.97,59.13L145.99,59.13L145.97,59.12"/><path d="M145.24,59.55L145.26,59.56"/><path d="M145.79,59.46L145.72,59.50"/><path d="M145.86,59.42L145.84,59.43"/><path d="M145.98,59.22L145.96,59.21"/><path d="M145.42,58.70L145.42,58.71"/><path d="M145.40,58.80L145.40,58.81"/><path d="M145.57,58.57L145.59,58.58"/><path d="M145.74,59.06L145.73,59.04"/><path d="M145.64,58.50L145.64,58.50"/><path d="M145.71,58.60L145.70,58.58"/><path d="M145.85,58.90L145.84,58.88"/><path d="M145.97,59.03L145.97,59.03"/><path d="M145.93,58.74L145.92,58.73"/><path d="M145.89,58.66L145.88,58.64L145.88,58.62"/><path d="M145.77,58.50L145.78,58.51"/><path d="M145.98,58.95L145.98,58.94"/></g></g><g id="Actor_.5"><g style="stroke:#000000;stroke-width:0.123"><path d="M203.55,126.96L203.15,132.50L201.00,131.20L198.83,129.81L198.88,129.06L199.05,126.65L199.07,126.60L199.15,126.54L201.15,125.61L201.23,125.58L201.33,125.57L201.43,125.58L201.56,125.62L203.46,126.83L203.53,126.91L203.54,126.99L203.51,127.04L203.45,127.08L201.45,128.01L201.32,128.04L201.22,128.04L201.08,128.01L201.01,127.98L199.14,126.78L199.07,126.71L199.05,126.65"/><path d="M199.49,126.87L199.23,126.71L199.21,126.68L199.23,126.63L201.26,125.67L201.34,125.66L201.40,125.66L201.48,125.69L203.35,126.88L203.38,126.91L203.39,126.95L203.36,126.99L203.10,127.12L201.34,127.94L201.23,127.96L201.12,127.92L199.49,126.87"/></g></g><g id="Actor_.6"><g style="stroke:#000000;stroke-width:0.123"><path d="M135.78,83.79L134.81,83.17L134.81,83.04L135.79,83.67L135.82,83.70L135.81,83.77L135.69,83.81L135.57,83.79L134.57,83.15L133.62,83.60L133.48,83.79L133.44,84.06"/><path d="M134.81,83.04L135.73,82.63L135.85,82.65L149.27,91.24L149.14,91.22L148.75,91.40L147.11,92.15L146.95,92.30L146.87,92.51L146.72,94.79L146.77,94.94L146.83,94.96L146.93,94.94L147.81,94.54L147.82,94.41L146.94,94.81L146.90,94.82L146.84,94.79L146.98,92.46L147.02,92.35L147.10,92.28L149.10,91.37L149.18,91.37"/><path d="M135.73,83.81L135.73,83.77"/><path d="M146.77,94.94L146.62,94.84"/><path d="M147.82,94.41L146.89,93.82"/><path d="M146.91,93.64L147.09,93.67L148.06,94.30L148.05,94.43L147.08,93.80L146.90,93.77"/><path d="M148.06,94.30L148.94,93.90L149.05,93.77L149.21,91.45L149.18,91.37"/><path d="M148.05,94.43L148.96,94.01L149.07,93.92L149.14,93.79L149.17,93.66L149.32,91.39L149.27,91.24"/></g></g><g id="Actor_.7"><g style="stroke:#000000;stroke-width:0.123"><path d="M169.52,95.17L167.83,120.29L168.46,120.77L168.73,120.84L170.63,119.96L174.16,67.72"/><path d="M170.82,75.83L169.54,94.96"/><path d="M171.23,94.06L171.25,93.67L171.56,93.36L171.72,93.35L171.82,93.45L171.75,93.85L171.51,94.09L171.34,94.13L171.23,94.06L171.43,94.01L171.64,93.79L171.73,93.57L171.69,93.34"/><path d="M171.28,69.03L170.83,75.61"/></g></g><g id="Actor_.8"><g style="stroke:#000000;stroke-width:0.123"><path d="M133.84,81.23L135.71,82.41L135.89,82.67"/><path d="M138.11,84.10L188.13,61.37L188.31,58.81L188.14,58.60L186.09,57.47L133.79,81.20"/><path d="M135.77,82.63L135.77,82.61"/><path d="M148.50,79.38L138.12,84.10"/><path d="M149.59,78.89L150.68,78.39"/><path d="M151.78,77.89L152.87,77.40"/><path d="M153.96,76.90L155.05,76.41"/><path d="M156.14,75.91L157.24,75.41"/><path d="M159.42,74.42L160.51,73.92"/><path d="M160.87,70.09L161.38,70.08L161.48,69.81L161.30,69.69L160.78,69.70L160.65,69.83L160.68,69.97L160.87,70.09"/><path d="M160.78,69.70L160.67,69.93"/><path d="M160.77,69.83L161.29,69.82L161.48,69.99"/><path d="M170.81,69.24L170.34,69.46"/></g></g><g id="Actor_.9"><g style="stroke:#000000;stroke-width:0.123"><path d="M145.22,135.75L146.32,135.24L143.95,136.34"/><path d="M144.27,131.35L167.92,120.42"/><path d="M146.32,135.24L148.50,134.23L147.41,134.74"/><path d="M148.50,134.23L158.95,129.40"/><path d="M157.06,126.20L156.93,126.32L156.96,126.47L157.14,126.59L157.41,126.63L157.66,126.58L157.79,126.46L157.76,126.31L157.58,126.19L157.31,126.15L157.06,126.20L157.05,126.32L156.95,126.42"/><path d="M157.05,126.32L157.57,126.32L157.76,126.48"/><path d="M158.33,129.68L184.23,117.69L184.41,115.17L184.24,114.96L182.21,113.81L170.69,119.14"/></g></g><g id="Actor_.10"><g style="stroke:#000000;stroke-width:0.123"><path d="M142.53,57.53L142.54,57.35L144.86,58.70L144.85,58.89L142.53,57.53"/><path d="M142.54,57.35L146.51,55.38L146.66,55.35L148.98,56.70L148.83,56.73L144.86,58.70"/><path d="M144.13,57.98L143.93,57.91L143.79,57.77L143.79,57.62L143.93,57.49L144.55,57.19L144.79,57.12L145.08,57.13L145.32,57.22L145.46,57.36L145.46,57.51L145.32,57.64L144.70,57.94L144.46,58.01L144.17,58.00L144.13,57.98"/><path d="M145.44,57.53L145.31,57.41L145.06,57.32L144.78,57.31L144.54,57.37L143.92,57.68L143.80,57.78"/><path d="M144.85,58.89L148.81,56.91L148.92,56.91L148.96,57.02L148.83,58.95L148.91,58.91"/><path d="M145.93,56.92L145.79,56.78L145.79,56.62L145.93,56.50L146.55,56.19L146.79,56.13L147.07,56.14L147.32,56.23L147.46,56.36L147.46,56.52L147.32,56.64L146.71,56.95L146.46,57.01L146.18,57.00L145.93,56.92"/><path d="M145.80,56.79L145.92,56.68L146.54,56.38L146.78,56.31L147.06,56.32L147.31,56.41L147.44,56.54"/><path d="M146.95,57.84L148.83,58.95"/><path d="M146.59,56.36L146.55,56.99"/><path d="M148.98,56.70L149.05,56.75"/></g></g><g id="Actor_.11"><g style="stroke:#000000;stroke-width:0.123"><path d="M252.30,123.18L252.04,123.07L251.71,123.15L214.86,140.42L214.44,140.73L214.12,141.22L213.97,141.73L212.13,166.89L212.18,167.24L212.41,167.49L212.27,167.30L212.22,166.94L214.06,141.79L214.21,141.27L214.53,140.79L214.95,140.48L251.80,123.21L252.23,123.15L252.49,123.40L252.53,123.76L250.58,148.82L250.44,149.33L250.12,149.81L249.70,150.12L212.97,167.49L212.70,167.56L212.41,167.49"/><path d="M213.28,164.07L213.06,164.05L213.01,163.90L213.20,163.51L213.89,163.15L214.11,163.17L214.14,163.42L213.97,163.71L213.28,164.07"/><path d="M213.05,164.04L213.84,163.69L214.04,163.41L214.03,163.13"/><path d="M214.48,144.48L215.28,144.13L215.47,143.85L215.47,143.57"/><path d="M214.45,144.39L214.52,144.52L214.67,144.53L215.37,144.19L215.56,143.91L215.57,143.64L215.37,143.57L214.67,143.91L214.48,144.19L214.45,144.39"/><path d="M249.15,146.99L249.93,146.64L250.13,146.37L250.12,146.08"/><path d="M249.20,146.60L249.12,146.90L249.19,147.03L249.34,147.04L250.03,146.70L250.20,146.48L250.24,146.19L250.15,146.09L249.99,146.11L249.43,146.37L249.20,146.60"/><path d="M251.64,126.59L251.65,126.88L251.45,127.15L250.67,127.50"/><path d="M250.78,127.01L250.64,127.31L250.66,127.48L250.77,127.56L251.54,127.21L251.74,126.94L251.76,126.70L251.66,126.60L251.51,126.61L250.78,127.01"/></g></g><g id="Actor_.12"><g style="stroke:#000000;stroke-width:0.123"><path d="M168.37,95.32L168.35,95.32"/><path d="M168.53,95.39L168.42,95.35"/><path d="M168.45,94.41L168.52,94.38"/><path d="M168.83,94.24L168.52,94.38"/><path d="M168.83,94.24L168.83,94.24"/><path d="M168.90,94.21L168.83,94.24"/><path d="M169.06,94.19L169.09,94.25"/><path d="M169.01,94.16L169.06,94.19L169.22,94.36L169.25,94.38"/><path d="M169.35,94.79L169.36,94.57"/></g></g><g id="Actor_.13"><g style="stroke:#000000;stroke-width:0.123"><path d="M136.25,175.55L120.90,165.58L136.25,175.55L136.39,175.49"/><path d="M120.91,165.49L126.11,162.98L131.05,82.56L131.36,82.37"/><path d="M126.03,162.84L126.05,162.85"/><path d="M125.95,162.88L126.09,162.95"/><path d="M136.24,175.64L136.39,175.57L135.20,162.26L139.40,95.97L146.61,92.68L131.05,82.56"/><path d="M146.76,92.64L141.59,173.08L141.50,173.34L136.49,175.69L135.27,162.31L139.47,96.02L146.68,92.72L146.70,92.55L131.19,82.62L131.35,82.46"/><path d="M134.97,142.25L134.83,141.95"/><path d="M136.39,175.57L136.48,175.70"/><path d="M138.21,160.48L138.43,160.91L138.21,161.67L137.64,162.26L137.08,162.34"/><path d="M136.94,162.21L137.09,161.16L137.58,160.63L138.24,160.49L138.43,160.67L138.45,161.33L138.02,162.06L137.40,162.42L136.94,162.21"/><path d="M137.19,159.18L137.75,159.10L138.25,158.59L138.54,157.75L138.33,157.32"/><path d="M137.51,159.26L137.06,159.05L137.03,158.38L137.77,157.40L138.35,157.32L138.61,157.80L138.39,158.55L137.51,159.26"/><path d="M136.93,112.28L137.16,112.24"/><path d="M137.14,112.24L137.94,112.49"/><path d="M136.61,112.47L136.91,112.29"/><path d="M137.86,112.43L138.33,112.78"/><path d="M139.47,96.02L139.40,95.97"/><path d="M141.87,86.50L169.24,74.05L167.69,97.09L145.83,107.12"/><path d="M181.47,118.97L180.18,137.71L142.73,155.23"/><path d="M143.40,144.89L162.89,135.80L164.07,134.53L164.57,133.30L164.59,132.08L163.93,131.20"/><path d="M144.87,122.02L164.41,112.97L165.35,112.06L166.10,110.47L166.12,109.24L165.53,108.40"/><path d="M145.83,107.03L167.69,97.09"/><path d="M164.02,131.26L163.97,131.20"/><path d="M165.46,108.35L165.50,108.35"/><path d="M165.59,108.45L165.52,108.37"/><path d="M167.62,97.04L169.16,74.09"/><path d="M178.54,80.95L177.99,80.35L177.85,79.85L178.13,77.96L178.86,76.68L180.40,75.38L180.94,75.20L181.87,75.28L182.48,75.92L182.65,77.00L182.02,78.97L180.62,80.56L179.54,81.07L178.60,80.99L179.47,81.02L180.54,80.52L181.95,78.92L182.58,76.96L182.41,75.88L181.86,75.27"/></g></g><g id="Actor_.14"><g style="stroke:#000000;stroke-width:0.123"><path d="M115.96,81.09L115.86,80.97L115.80,80.89"/><path d="M115.95,80.92L115.95,80.96"/><path d="M116.09,81.29L116.04,81.25L116.02,81.23L115.99,81.19L115.96,81.11L115.95,81.04"/><path d="M116.65,81.29L116.65,81.30"/><path d="M116.54,81.29L116.54,81.13"/><path d="M116.53,81.35L116.53,81.34"/><path d="M116.51,81.12L116.52,81.12"/><path d="M116.57,81.35L116.57,81.33"/><path d="M116.42,81.15L116.44,81.14"/><path d="M116.39,81.14L116.39,81.14"/><path d="M116.35,81.13L116.34,81.12"/><path d="M116.25,81.39L116.33,81.24"/><path d="M116.27,81.39L116.29,81.39L116.39,81.15"/><path d="M116.34,81.40L116.37,81.39"/><path d="M116.43,81.16L116.44,81.14"/><path d="M116.46,81.14L116.49,81.13L116.48,81.14"/><path d="M116.53,81.12L116.52,81.14"/><path d="M116.48,81.14L116.47,81.15"/><path d="M116.45,81.37L116.42,81.40"/><path d="M116.38,81.14L116.39,81.14"/><path d="M116.31,81.09L116.31,81.10"/><path d="M116.20,81.36L116.22,81.37"/><path d="M116.16,81.34L116.15,81.32"/><path d="M116.28,81.08L116.28,81.07"/><path d="M116.28,81.07L116.28,81.06"/><path d="M116.10,81.25L116.11,81.26L116.11,81.29"/><path d="M116.06,81.10L116.05,81.13"/><path d="M116.05,81.14L116.05,81.14"/><path d="M116.26,81.04L116.27,81.01"/><path d="M116.07,81.22L116.08,81.19"/><path d="M116.25,80.97L116.26,80.96"/><path d="M116.04,81.04L116.06,81.01L116.06,81.00"/><path d="M116.42,81.14L116.42,81.14"/><path d="M116.41,81.05L117.05,81.46"/><path d="M116.41,81.05L116.42,81.05"/><path d="M116.16,81.34L116.08,81.29"/><path d="M116.25,80.91L116.24,80.94"/><path d="M116.51,81.37L116.51,81.36"/><path d="M115.80,80.87L115.80,80.88"/><path d="M115.77,80.80L115.77,80.79"/><path d="M115.77,80.67L115.77,80.63"/><path d="M115.78,80.60L115.79,80.58"/><path d="M115.80,80.52L115.80,80.54"/><path d="M115.90,80.32L115.91,80.30"/><path d="M115.94,80.27L115.95,80.25"/><path d="M116.00,80.20L116.07,80.13"/><path d="M116.26,80.03L116.27,80.03"/><path d="M116.30,80.02L116.30,80.02"/><path d="M115.98,80.26L116.00,80.25"/><path d="M115.90,80.33L115.89,80.35"/><path d="M115.82,80.50L115.81,80.51"/><path d="M115.80,80.72L115.80,80.73"/><path d="M115.81,80.75L115.79,80.77L115.78,80.78L115.78,80.82"/><path d="M115.79,80.86L115.79,80.87"/><path d="M115.79,80.86L115.79,80.85"/><path d="M116.63,80.07L116.54,80.02L116.49,80.02"/><path d="M116.11,80.13L116.10,80.16"/><path d="M116.18,80.06L116.18,80.07"/><path d="M116.21,80.05L116.23,80.04"/><path d="M116.27,80.03L116.28,80.03"/><path d="M116.40,80.02L116.36,80.02"/><path d="M116.78,80.08L116.83,80.10L116.93,80.16"/><path d="M116.54,80.09L116.60,80.08L116.65,80.07L116.70,80.07L116.76,80.08"/><path d="M116.51,80.11L116.53,80.10"/><path d="M116.47,80.13L116.42,80.16"/><path d="M116.07,80.89L116.20,80.86L116.27,80.84L116.25,80.82L116.06,80.86"/><path d="M116.27,80.84L116.26,80.85"/><path d="M116.27,80.80L116.27,80.79"/><path d="M116.10,80.74L116.12,80.72"/><path d="M116.25,80.70L116.31,80.71"/><path d="M116.27,80.76L116.09,80.75"/><path d="M116.26,80.48L116.38,80.59"/><path d="M116.29,80.63L116.20,80.58"/><path d="M116.23,80.52L116.25,80.50L116.26,80.49"/><path d="M116.43,80.51L116.42,80.52L116.42,80.54L116.34,80.39L116.33,80.40"/><path d="M116.58,80.34L116.59,80.20"/><path d="M116.46,80.27L116.44,80.28"/><path d="M116.48,80.26L116.50,80.25L116.49,80.23"/><path d="M116.75,80.14L116.74,80.13"/><path d="M116.83,80.28L116.82,80.30"/><path d="M116.83,80.44L116.82,80.44"/><path d="M115.79,80.84L115.78,80.84"/><path d="M115.77,80.76L115.77,80.76"/><path d="M116.31,80.02L116.31,80.02"/><path d="M115.80,80.88L115.80,80.89"/><path d="M116.76,80.50L116.76,80.51"/><path d="M116.76,80.51L117.40,80.91"/><path d="M116.34,80.21L116.33,80.22"/><path d="M116.24,80.30L116.22,80.32"/><path d="M116.45,80.43L116.47,80.49"/><path d="M116.65,80.31L116.65,80.28"/><path d="M117.38,81.01L117.37,81.01"/><path d="M117.46,81.06L117.45,81.05"/><path d="M117.48,81.11L117.47,81.09"/><path d="M117.47,81.21L117.45,81.25"/><path d="M117.34,81.40L117.35,81.39"/><path d="M117.26,81.45L117.25,81.45"/><path d="M117.21,81.45L117.20,81.45"/><path d="M117.17,81.44L117.14,81.42"/><path d="M117.12,81.38L117.12,81.35"/><path d="M117.19,80.97L117.18,80.98"/><path d="M117.00,81.32L117.01,81.38"/><path d="M117.01,81.40L117.01,81.39"/><path d="M117.24,81.47L117.19,81.49L117.15,81.49L117.13,81.49L117.11,81.49L117.08,81.48L117.06,81.47L117.04,81.45"/><path d="M117.48,81.09L117.48,81.04"/><path d="M117.48,81.02L117.47,80.99L117.45,80.95L117.42,80.93L117.39,80.91"/><path d="M117.24,80.94L117.24,80.94"/><path d="M117.43,81.31L117.43,81.29"/><path d="M117.40,81.34L117.41,81.33"/><path d="M117.25,81.46L117.28,81.44"/><path d="M117.05,80.29L117.05,80.28"/><path d="M116.86,80.48L116.85,80.48"/><path d="M117.06,80.69L117.05,80.68"/><path d="M116.90,80.15L116.89,80.14"/><path d="M116.84,80.47L116.84,80.46"/><path d="M117.02,80.24L117.00,80.22"/><path d="M117.09,80.46L117.09,80.46L117.09,80.45"/><path d="M116.86,80.51L116.86,80.51"/><path d="M116.86,80.53L116.87,80.56"/><path d="M117.09,80.54L117.09,80.53"/><path d="M117.08,80.64L117.08,80.66L117.02,80.67"/><path d="M116.88,80.53L116.86,80.52"/></g></g><g id="Actor_.15"><g style="stroke:#000000;stroke-width:0.123"><path d="M169.67,75.97L169.64,75.96"/><path d="M169.82,76.03L169.72,76.00"/><path d="M170.66,75.24L170.65,75.44"/><path d="M170.34,74.83L170.36,74.84L170.39,74.89"/><path d="M170.52,75.00L170.36,74.84"/></g></g><g id="Actor_.16"><g style="stroke:#000000;stroke-width:0.123"><path d="M239.26,13.43L239.05,13.63L238.95,13.96L236.10,51.91L236.25,52.63L236.80,53.25L268.27,71.33L268.59,71.44L268.92,71.32L269.11,70.88L272.14,32.82L271.99,32.10L271.43,31.47L239.79,13.49L239.26,13.43L239.56,13.35L239.88,13.45L271.52,31.43L272.08,32.06L272.23,32.78L269.20,70.83L269.11,71.16L268.88,71.36"/><path d="M238.88,53.22L238.04,52.77L237.89,52.50L237.92,52.23L237.78,52.47L237.94,52.81L238.74,53.27L238.93,53.12L238.78,52.67L237.94,52.21"/><path d="M241.67,16.17L240.82,15.71L240.67,15.37L240.71,15.17L240.58,15.42L240.73,15.76L241.53,16.21L241.73,16.07L241.58,15.62L240.73,15.16"/><path d="M266.33,68.92L266.57,69.27L267.19,69.63L267.43,69.61L267.46,69.29L267.24,69.00L266.52,68.61L266.37,68.66L266.33,68.92"/><path d="M267.42,69.62L266.56,69.15L266.41,68.81L266.47,68.61"/><path d="M268.80,71.40L268.89,71.35"/><path d="M269.42,31.46L270.27,31.93L270.42,32.38L270.22,32.52L269.42,32.06L269.26,31.72L269.38,31.47L269.37,31.80L269.50,32.02L270.36,32.48"/></g></g><g id="Actor_.17"><g style="stroke:#000000;stroke-width:0.123"><path d="M254.17,44.26L254.03,44.26L253.89,44.25L253.76,44.21L253.69,44.18L252.10,43.28L252.04,43.23L251.99,43.19L251.96,43.14L251.94,43.06L251.96,42.99L252.01,42.92L252.09,42.87L252.59,42.61L252.64,42.58L252.68,42.52"/><path d="M254.16,44.39L254.02,44.40L253.93,44.39L253.80,44.36L253.68,44.31L252.09,43.41L252.01,43.35L251.95,43.28L251.93,43.20L251.94,43.07"/><path d="M252.68,42.50L252.69,42.46L252.74,41.80L252.85,41.74L255.17,43.07L255.12,43.76L255.08,43.87L255.03,43.96L254.97,44.03L254.90,44.07L254.40,44.33L254.33,44.36L254.25,44.38"/><path d="M252.74,41.80L255.06,43.12L255.01,43.80"/><path d="M254.96,43.90L254.91,43.94L254.41,44.19L254.34,44.22L254.26,44.24"/><path d="M255.00,43.82L254.99,43.87"/><path d="M255.06,43.12L255.17,43.07"/></g></g><g id="Actor_.18"><g style="stroke:#000000;stroke-width:0.123"><path d="M126.06,162.74L120.78,165.20L120.77,165.29L74.00,134.62L74.01,134.53L129.39,109.18"/><path d="M74.01,134.53L120.78,165.20"/><path d="M126.06,162.83L120.77,165.29"/></g></g><g id="Actor_.19"><g style="stroke:#000000;stroke-width:0.123"><path d="M73.16,128.30L72.68,122.89L76.43,54.85L72.76,122.94L73.76,134.40L75.16,135.39L73.85,134.62L73.69,134.35L73.16,128.30"/><path d="M74.21,121.06L74.62,121.25L75.34,120.72L75.60,119.95L75.36,119.53L74.56,119.81L74.18,120.46L74.21,121.06"/><path d="M74.23,117.64L74.40,117.03L74.93,116.44L75.22,116.34L75.63,116.53L75.51,117.48L75.00,118.00L74.47,118.07L74.23,117.64"/><path d="M75.16,135.48L75.24,135.44"/><path d="M75.34,119.53L75.53,119.91L75.34,120.58L74.83,121.10L74.33,121.18"/><path d="M74.43,118.02L74.93,117.95L75.43,117.43L75.63,116.75L75.43,116.37"/><path d="M76.51,54.86L135.72,28.46L136.74,28.96L135.65,28.42L76.44,54.81"/><path d="M84.72,53.61L85.10,53.56L85.23,53.07L84.85,53.12L84.72,53.61"/><path d="M85.17,53.02L85.03,53.51L84.75,53.64"/><path d="M115.74,105.19L92.33,115.88L91.30,116.03L90.70,115.81"/><path d="M90.83,115.86L90.86,115.87"/><path d="M90.78,115.84L90.76,115.82"/><path d="M118.85,73.11L119.44,73.84L119.46,75.23L118.68,76.83L117.70,77.73L93.90,88.52L93.18,88.70L92.28,88.45"/><path d="M92.40,88.50L92.43,88.51"/><path d="M92.35,88.48L92.34,88.46"/><path d="M93.85,60.89L94.02,60.96"/><path d="M93.88,60.88L94.76,61.15L95.49,60.97L119.36,50.25L120.44,49.22L121.13,47.74L121.10,46.34L120.54,45.62"/><path d="M104.26,44.84L104.64,44.84L104.78,44.35L104.40,44.40L104.26,44.84"/><path d="M104.31,44.91L104.69,44.62L104.69,44.27"/><path d="M117.65,100.89L117.44,100.63L117.86,101.46L117.65,103.03L116.75,104.46L115.77,105.18"/><path d="M117.44,100.63L117.22,100.45"/><path d="M124.14,36.09L123.81,36.29L123.69,36.09L123.99,35.62L124.22,35.68L124.14,36.09"/><path d="M124.12,35.61L124.13,35.95L123.74,36.24"/><path d="M128.37,66.82L129.16,67.20L130.18,67.00L131.25,66.26L132.12,65.13L132.76,63.18L132.60,62.09L131.99,61.44L131.06,61.35L129.98,61.83L128.58,63.40L127.95,65.35L127.97,65.93L128.37,66.82"/><path d="M128.66,67.04L129.58,67.13L130.65,66.64L132.06,65.08L132.69,63.13L132.52,62.05L131.97,61.44"/><path d="M131.88,34.47L131.45,33.95L131.72,32.54L132.40,31.72L133.19,31.36L133.54,31.41L133.80,31.61L133.99,32.37L133.70,33.34L133.02,34.17L132.22,34.52L131.88,34.47"/><path d="M131.82,34.43L132.54,34.37L132.94,34.12L133.62,33.30L133.92,32.32L133.89,31.89L133.52,31.41"/><path d="M136.79,29.29L136.81,28.93"/><path d="M136.74,28.96L136.72,29.25"/></g></g><g id="Actor_.20"><g style="stroke:#000000;stroke-width:0.123"><path d="M169.24,95.40L169.22,95.38L169.21,95.37"/><path d="M169.18,95.33L169.18,95.30"/><path d="M169.07,95.32L169.07,95.27"/><path d="M169.08,95.35L169.08,95.34"/><path d="M169.10,95.39L169.13,95.42"/><path d="M169.29,95.41L169.26,95.43L169.21,95.44L169.17,95.43L169.14,95.42"/><path d="M168.31,95.33L168.32,95.32"/><path d="M168.16,95.20L168.17,95.21"/><path d="M168.82,95.22L169.11,95.41"/><path d="M169.25,94.92L169.24,94.93"/><path d="M168.32,94.44L168.31,94.45"/><path d="M169.06,94.20L169.07,94.19L169.06,94.17"/><path d="M169.45,94.86L169.16,94.68"/><path d="M169.51,95.20L169.52,95.16"/><path d="M169.48,95.25L169.49,95.24"/><path d="M169.46,95.29L169.47,95.28"/><path d="M169.41,95.34L169.40,95.35"/><path d="M169.32,95.40L169.31,95.40"/><path d="M169.27,95.40L169.26,95.40"/><path d="M169.44,94.96L169.43,94.96"/><path d="M169.52,95.01L169.51,95.00"/><path d="M169.53,95.05L169.53,95.04"/><path d="M169.54,95.04L169.54,94.99"/><path d="M169.44,94.86L169.48,94.88L169.51,94.90L169.52,94.93L169.54,94.97"/></g></g><g id="Actor_.21"><g style="stroke:#000000;stroke-width:0.123"><path d="M170.41,76.06L170.12,75.87"/><path d="M170.74,75.61L170.73,75.61"/><path d="M170.81,75.65L170.82,75.65"/><path d="M170.83,75.70L170.83,75.69"/><path d="M170.81,75.85L170.82,75.81"/><path d="M170.78,75.90L170.79,75.89"/><path d="M170.76,75.94L170.77,75.92"/><path d="M170.71,75.99L170.70,76.00"/><path d="M170.62,76.04L170.61,76.05"/><path d="M170.57,76.05L170.56,76.05"/><path d="M170.54,76.04L170.52,76.04L170.51,76.02"/><path d="M170.48,75.98L170.48,75.95"/><path d="M170.54,75.58L170.55,75.57"/><path d="M170.37,75.97L170.37,75.94L170.37,75.92"/><path d="M170.38,75.99L170.37,75.99"/><path d="M170.40,76.04L170.41,76.06L170.43,76.07L170.46,76.08L170.48,76.08L170.51,76.09L170.53,76.08L170.57,76.07L170.59,76.06"/><path d="M170.84,75.68L170.84,75.66L170.84,75.63"/><path d="M170.84,75.62L170.83,75.60L170.82,75.58L170.81,75.55L170.79,75.53L170.78,75.52L170.76,75.51L170.74,75.51"/><path d="M170.75,75.51L170.46,75.32"/></g></g><g><g><path style="stroke:#000000;stroke-width:0.210;stroke-dasharray:2.2 2.2" d="M253.56,42.63L158.10,86.17"/></g></g><g><g><path style="stroke:#000000;stroke-width:0.210;stroke-dasharray:2.2 2.2" d="M184.54,112.83L207.19,101.26"/></g></g><g><g><path style="stroke:#000000;stroke-width:0.210;stroke-dasharray:2.2 2.2" d="M188.08,61.71L205.99,52.71"/></g></g><g><g><path style="stroke:#000000;stroke-width:0.210;stroke-dasharray:2.2 2.2" d="M116.73,80.87L133.95,91.92"/></g></g><g><g><path style="stroke:#000000;stroke-width:0.210;stroke-dasharray:2.2 2.2" d="M150.58,92.92L231.85,144.96"/></g></g><g><g><path style="stroke:#000000;stroke-width:0.210;stroke-dasharray:2.2 2.2" d="M149.07,96.25L201.10,129.61"/></g></g><g id="PMI4.0"><g><path style="stroke:#000000;stroke-width:0.281" d="M255.29,68.14L255.49,64.73"/></g><g><path style="fill:#000000" d="M256.49,64.79L254.49,64.68L255.61,62.74z"/></g><g><path style="fill:#ffffff" d="M247.49,73.22L262.80,73.22L262.80,68.14L247.49,68.14z"/><path style="stroke:#000000;stroke-width:0.280;stroke-opacity:0.98" d="M247.49,73.22L262.80,73.22L262.80,68.14L247.49,68.14z"/><text xml:space="preserve" fill="#000000" stroke-width="0" x="248.13" y="71.79" font-size="3.04" opacity="1.00" font-family="Microsoft Sans Serif">1003TLA0</text></g></g><g id="PMI9.0"><g><path style="stroke:#000000;stroke-width:0.281" d="M215.19,104.43L212.02,104.43L210.67,104.51"/></g><g><path style="fill:#000000" d="M210.60,103.52L210.73,105.51L208.67,104.64z"/></g><g><path style="fill:#ffffff" d="M214.56,106.97L231.44,106.97L231.44,101.89L214.56,101.89z"/><path style="stroke:#000000;stroke-width:0.280;stroke-opacity:0.98" d="M214.56,106.97L231.44,106.97L231.44,101.89L214.56,101.89z"/><text xml:space="preserve" fill="#000000" stroke-width="0" x="215.19" y="105.54" font-size="3.09" opacity="1.00" font-family="Microsoft Sans Serif">7000108F1</text></g></g><g id="PMI5.0"><g><path style="stroke:#000000;stroke-width:0.281" d="M150.27,30.83L150.24,36.71"/></g><g><path style="fill:#000000" d="M149.24,36.71L151.24,36.71L150.24,38.71z"/></g><g><path style="fill:#ffffff" d="M141.66,30.83L158.90,30.83L158.90,25.75L141.66,25.75z"/><path style="stroke:#000000;stroke-width:0.280;stroke-opacity:0.98" d="M141.66,30.83L158.90,30.83L158.90,25.75L141.66,25.75z"/><text xml:space="preserve" fill="#000000" stroke-width="0" x="142.29" y="29.40" font-size="3.09" opacity="1.00" font-family="Microsoft Sans Serif">3500063R3</text></g></g><g id="PMI2.0"><g><path style="stroke:#000000;stroke-width:0.281" d="M92.67,150.11L100.18,150.15"/></g><g><path style="fill:#000000" d="M100.18,151.15L100.19,149.15L102.18,150.16z"/></g><g><path style="fill:#ffffff" d="M75.78,152.60L92.67,152.60L92.67,147.52L75.78,147.52z"/><path style="stroke:#000000;stroke-width:0.280;stroke-opacity:0.98" d="M75.78,152.60L92.67,152.60L92.67,147.52L75.78,147.52z"/><text xml:space="preserve" fill="#000000" stroke-width="0" x="76.41" y="151.17" font-size="3.09" opacity="1.00" font-family="Microsoft Sans Serif">3500063T2</text></g></g><g id="PMI8.0"><g><path style="stroke:#000000;stroke-width:0.281" d="M205.80,44.06L205.81,48.00"/></g><g><path style="fill:#000000" d="M204.81,48.00L206.81,48.00L205.82,50.00z"/></g><g><path style="fill:#ffffff" d="M197.01,44.06L214.59,44.06L214.59,38.98L197.01,38.98z"/><path style="stroke:#000000;stroke-width:0.280;stroke-opacity:0.98" d="M197.01,44.06L214.59,44.06L214.59,38.98L197.01,38.98z"/><text xml:space="preserve" fill="#000000" stroke-width="0" x="197.64" y="42.63" font-size="3.09" opacity="1.00" font-family="Microsoft Sans Serif">0100098M1</text></g></g><g id="PMI3.0"><g><path style="stroke:#000000;stroke-width:0.281" d="M103.28,36.77L103.07,41.72"/></g><g><path style="fill:#000000" d="M102.07,41.68L104.07,41.76L102.99,43.72z"/></g><g><path style="fill:#ffffff" d="M94.68,36.77L112.09,36.77L112.09,31.69L94.68,31.69z"/><path style="stroke:#000000;stroke-width:0.280;stroke-opacity:0.98" d="M94.68,36.77L112.09,36.77L112.09,31.69L94.68,31.69z"/><text xml:space="preserve" fill="#000000" stroke-width="0" x="95.31" y="35.34" font-size="3.09" opacity="1.00" font-family="Microsoft Sans Serif">3500063Q4</text></g></g><g id="PMI11.0"><g><path style="stroke:#000000;stroke-width:0.281" d="M187.48,52.16L187.55,57.55"/></g><g><path style="fill:#000000" d="M186.55,57.57L188.55,57.54L187.58,59.55z"/></g><g><path style="fill:#ffffff" d="M178.92,52.16L195.97,52.16L195.97,47.08L178.92,47.08z"/><path style="stroke:#000000;stroke-width:0.280;stroke-opacity:0.98" d="M178.92,52.16L195.97,52.16L195.97,47.08L178.92,47.08z"/><text xml:space="preserve" fill="#000000" stroke-width="0" x="179.55" y="50.73" font-size="3.09" opacity="1.00" font-family="Microsoft Sans Serif">7000107X1</text></g></g><g id="PMI6.0"><g><path style="stroke:#000000;stroke-width:0.281" d="M145.44,169.53L142.11,169.55"/></g><g><path style="fill:#000000" d="M142.10,168.55L142.11,170.54L140.11,169.55z"/></g><g><path style="fill:#ffffff" d="M145.44,172.04L162.51,172.04L162.51,166.96L145.44,166.96z"/><path style="stroke:#000000;stroke-width:0.280;stroke-opacity:0.98" d="M145.44,172.04L162.51,172.04L162.51,166.96L145.44,166.96z"/><text xml:space="preserve" fill="#000000" stroke-width="0" x="146.07" y="170.61" font-size="3.09" opacity="1.00" font-family="Microsoft Sans Serif">3500064P3</text></g></g><g id="PMI1.0"><g><path style="stroke:#000000;stroke-width:0.281" d="M116.89,87.04L116.93,83.55"/></g><g><path style="fill:#000000" d="M117.93,83.56L115.93,83.54L116.95,81.55z"/></g><g><path style="fill:#ffffff" d="M107.63,92.12L126.10,92.12L126.10,87.04L107.63,87.04z"/><path style="stroke:#000000;stroke-width:0.280;stroke-opacity:0.98" d="M107.63,92.12L126.10,92.12L126.10,87.04L107.63,87.04z"/><text xml:space="preserve" fill="#000000" stroke-width="0" x="108.27" y="90.69" font-size="2.79" opacity="1.00" font-family="Microsoft Sans Serif">8057037014</text></g></g><g id="PMI7.0"><g><path style="stroke:#000000;stroke-width:0.281" d="M235.33,162.91L235.34,157.37"/></g><g><path style="fill:#000000" d="M236.34,157.37L234.34,157.37L235.34,155.37z"/></g><g><path style="fill:#ffffff" d="M226.71,167.99L243.95,167.99L243.95,162.91L226.71,162.91z"/><path style="stroke:#000000;stroke-width:0.280;stroke-opacity:0.98" d="M226.71,167.99L243.95,167.99L243.95,162.91L226.71,162.91z"/><text xml:space="preserve" fill="#000000" stroke-width="0" x="227.34" y="166.56" font-size="3.09" opacity="1.00" font-family="Microsoft Sans Serif">3500064R1</text></g></g><g id="PMI10.0"><g><path style="stroke:#000000;stroke-width:0.281" d="M202.03,135.64L202.05,131.61"/></g><g><path style="fill:#000000" d="M203.05,131.61L201.05,131.60L202.05,129.61z"/></g><g><path style="fill:#ffffff" d="M193.50,140.72L210.55,140.72L210.55,135.64L193.50,135.64z"/><path style="stroke:#000000;stroke-width:0.280;stroke-opacity:0.98" d="M193.50,140.72L210.55,140.72L210.55,135.64L193.50,135.64z"/><text xml:space="preserve" fill="#000000" stroke-width="0" x="194.13" y="139.29" font-size="3.09" opacity="1.00" font-family="Microsoft Sans Serif">7000108K1</text></g></g><g/><g id="paperID" visibility="hidden" opacity="0.00" transform="scale(0.000100)"><path style="stroke:#000000;stroke-width:0.500;fill:#e6e6e6;fill-rule:evenodd" d="M-2000.00,-2000.00L2297.00,-2000.00L2297.00,2210.00L-2000.00,2210.00zM0.00,0.00L297.00,0.00L297.00,210.00L0.00,210.00z"/><path style="fill:#000000;fill-opacity:0.118" d="M3.00,210.00L297.00,210.00L297.00,3.00L300.00,3.00L300.00,213.00L3.00,213.00z"/></g><g id="hotspot.0" onmouseover="ShowHotSpot(evt,'0')" onmouseout="HideHotSpot(evt,'0')" onmousemove="ShowToolTip(evt,'0',&quot;3dp2688508&quot;)" opacity="0"><path style="fill:#00ff00;fill-rule:evenodd" d="M146.02,58.92L145.92,59.50L144.87,59.49L144.88,59.06L145.77,58.67zM170.85,76.05L170.16,76.05L170.16,75.69L170.85,75.69zM117.11,80.53L117.38,81.45L115.99,81.37L116.00,80.36L116.83,80.24zM117.67,82.99L117.62,83.57L117.29,83.81L116.91,85.59L116.81,83.80L116.19,83.59L116.24,83.08L116.97,81.88zM116.99,86.86L126.03,87.00L126.30,87.27L126.28,92.26L107.54,92.26L107.63,87.11L116.56,86.86L116.91,85.59zM169.52,95.12L169.48,95.50L168.92,95.42L168.91,94.93L169.23,94.84z"/></g><g id="hotspot.1" onmouseover="ShowHotSpot(evt,'1')" onmouseout="HideHotSpot(evt,'1')" onmousemove="ShowToolTip(evt,'1',&quot;3dp2816320&quot;)" opacity="0"><path style="fill:#00ff00;fill-rule:evenodd" d="M203.48,127.00L203.13,132.42L202.33,132.37L202.31,135.46L210.52,135.62L210.52,140.86L193.40,140.86L193.49,135.71L201.88,135.46L201.86,131.86L200.81,131.29L198.88,129.95L199.08,126.72L200.97,125.90L201.87,125.89z"/></g><g id="hotspot.2" onmouseover="ShowHotSpot(evt,'2')" onmouseout="HideHotSpot(evt,'2')" onmousemove="ShowToolTip(evt,'2',&quot;3dp2800386&quot;)" opacity="0"><path style="fill:#00ff00;fill-rule:evenodd" d="M178.82,52.30L178.91,47.15L195.94,47.06L195.94,52.30L187.73,52.46L187.56,57.44L187.30,52.46zM188.13,61.50L174.24,67.86L171.00,114.03L170.82,119.28L182.08,114.00L182.43,114.01L184.34,115.36L184.23,117.81L146.25,135.45L144.00,136.28L144.27,131.58L167.85,120.60L171.09,72.54L171.09,69.46L170.76,69.44L143.19,81.90L138.31,84.30L149.21,91.36L149.24,93.89L147.48,94.84L146.71,94.98L146.55,92.67L131.39,82.97L131.34,82.51L131.59,82.19L136.71,80.01L185.57,57.86L188.36,57.84z"/></g><g id="hotspot.3" onmouseover="ShowHotSpot(evt,'3')" onmouseout="HideHotSpot(evt,'3')" onmousemove="ShowToolTip(evt,'3',&quot;3dp2604633&quot;)" opacity="0"><path style="fill:#00ff00;fill-rule:evenodd" d="M74.32,134.57L129.27,109.45L129.24,112.50L126.00,162.99L121.40,165.16L120.59,165.36L97.93,150.47L92.96,150.47L92.80,152.74L75.68,152.74L75.77,147.59L92.55,147.48L92.82,147.75L92.96,150.04L97.11,149.96L74.41,135.07z"/></g><g id="hotspot.4" onmouseover="ShowHotSpot(evt,'4')" onmouseout="HideHotSpot(evt,'4')" onmousemove="ShowToolTip(evt,'4',&quot;3dp2767165&quot;)" opacity="0"><path style="fill:#00ff00;fill-rule:evenodd" d="M136.56,28.98L135.87,29.00L132.52,81.76L131.06,82.73L129.51,108.18L129.15,109.44L75.24,134.10L74.14,134.89L73.90,134.86L73.62,133.20L72.81,124.02L72.81,121.41L76.50,54.90L102.52,43.36L102.55,42.76L102.18,41.94L102.76,41.76L103.14,40.23L103.24,41.75L103.86,41.97L103.79,42.48L104.59,42.50L135.35,28.69L136.31,28.69zM112.26,31.92L112.24,36.91L103.49,37.07L103.30,40.12L103.14,40.23L103.06,37.07L94.58,36.91L94.67,31.76L111.99,31.65zM133.86,31.92L133.84,33.13L132.93,34.37L131.57,34.48L131.65,32.83L132.65,31.66L133.59,31.64zM123.86,36.36L123.77,36.02L124.08,35.97zM104.42,45.00L104.33,44.66L104.64,44.61zM84.98,53.64L84.89,53.30L85.20,53.25zM132.50,62.17L132.49,64.45L131.94,65.52L130.25,67.07L128.43,67.05L128.16,66.78L128.15,64.43L129.52,62.29L130.49,61.64L131.96,61.64zM117.11,80.53L117.38,81.45L115.99,81.37L116.00,80.36L116.83,80.24zM75.55,117.36L74.89,118.13L74.34,118.19L74.43,117.09L74.88,116.69L75.52,116.72zM75.55,119.94L75.14,121.05L74.34,121.16L74.43,120.06L74.88,119.66L75.26,119.66z"/></g><g id="hotspot.5" onmouseover="ShowHotSpot(evt,'5')" onmouseout="HideHotSpot(evt,'5')" onmousemove="ShowToolTip(evt,'5',&quot;3dp-3-176941&quot;)" opacity="0"><path style="fill:#00ff00;fill-rule:evenodd" d="M270.72,31.14L272.09,32.20L272.07,35.28L269.64,66.06L269.02,71.39L268.00,71.40L263.41,68.62L263.08,68.64L262.90,73.36L247.40,73.36L247.49,68.21L255.07,67.96L255.42,66.15L255.50,67.96L261.85,67.85L256.44,64.63L254.69,64.63L254.83,63.80L236.71,53.27L236.12,52.47L239.01,13.83L239.29,13.54L239.94,13.57zM255.69,65.32L255.42,66.15L255.61,65.14zM241.59,15.79L241.58,16.11L241.03,16.04L240.67,15.45zM270.17,31.96L270.47,32.50L269.94,32.51L269.62,32.19L269.63,31.66zM238.61,52.72L238.91,53.34L238.03,52.98L238.03,52.46zM267.50,69.48L266.64,69.48L266.57,68.93L266.91,68.89z"/></g><g id="hotspot.6" onmouseover="ShowHotSpot(evt,'6')" onmouseout="HideHotSpot(evt,'6')" onmousemove="ShowToolTip(evt,'6',&quot;3dp2172547&quot;)" opacity="0"><path style="fill:#00ff00;fill-rule:evenodd" d="M149.48,36.82L151.09,37.05L151.01,37.69L185.43,57.63L185.42,57.93L161.84,68.69L160.54,68.69L145.69,60.01L145.72,59.62L146.00,59.31L146.02,58.92L145.77,58.67L144.90,59.04L143.82,76.05L143.53,76.84L143.21,77.06L132.75,81.75L132.75,79.83L135.99,28.95zM141.56,30.97L141.65,25.82L158.95,25.73L158.95,30.97L150.47,31.13L150.30,36.65L150.04,31.13zM182.45,75.94L182.43,77.94L182.15,78.74L180.70,80.53L179.65,81.11L178.64,81.12L178.11,80.82L178.10,78.20L179.36,76.22L180.70,75.41L181.91,75.40zM142.09,86.73L143.04,86.22L143.03,87.40zM154.89,102.15L155.42,102.78L145.98,107.13L145.98,105.48L146.52,97.26zM181.89,114.12L181.55,114.32L180.45,114.69L183.93,63.51L185.07,62.96L185.40,62.98zM143.32,71.08L143.28,71.49L142.93,71.47L142.88,70.84z"/></g><g id="hotspot.7" onmouseover="ShowHotSpot(evt,'7')" onmouseout="HideHotSpot(evt,'7')" onmousemove="ShowToolTip(evt,'7',&quot;3dp527408&quot;)" opacity="0"><path style="fill:#00ff00;fill-rule:evenodd" d="M171.18,69.63L170.81,75.50L170.16,75.74L170.16,76.00L170.82,76.26L169.49,94.92L168.91,94.95L168.92,95.37L169.47,95.69L167.85,120.60L144.27,131.58L144.00,136.28L146.25,135.45L180.73,119.40L181.35,119.40L180.27,137.07L179.90,138.05L142.94,155.36L142.72,155.95L141.66,172.71L141.37,173.50L136.99,175.61L135.97,175.62L121.11,165.84L121.06,165.60L126.00,163.26L131.13,82.69L146.55,92.67L146.52,97.11L145.98,105.48L145.98,107.13L167.60,97.13L168.93,78.21L168.96,74.35L142.38,86.52L141.65,86.53L138.31,84.30L143.19,81.90L170.76,69.44zM181.62,97.38L180.27,114.93L170.82,119.28L171.00,114.03L174.24,67.86L183.81,63.55zM142.36,169.65L145.18,169.48L145.43,167.03L162.46,166.94L162.46,172.18L145.34,172.18L145.18,169.91zM182.45,75.94L182.43,77.94L182.15,78.74L180.70,80.53L179.65,81.11L178.64,81.12L178.11,80.82L178.10,78.20L179.36,76.22L180.70,75.41L181.91,75.40z"/></g><g id="hotspot.8" onmouseover="ShowHotSpot(evt,'8')" onmouseout="HideHotSpot(evt,'8')" onmousemove="ShowToolTip(evt,'8',&quot;3dp1843261&quot;)" opacity="0"><path style="fill:#00ff00;fill-rule:evenodd" d="M252.38,123.43L252.36,126.54L250.49,149.51L249.82,150.19L236.06,156.71L236.15,157.22L234.44,157.49L213.41,167.50L212.31,167.60L212.58,160.47L214.00,141.64L215.01,140.49L252.14,123.19zM235.52,162.73L244.00,162.89L244.00,168.13L226.61,168.13L226.70,162.98L235.09,162.73L235.35,157.75zM251.49,127.27L250.89,127.35L250.91,127.00L251.54,126.95zM215.42,144.06L214.54,144.64L214.54,144.12L215.42,143.76zM250.02,146.58L249.38,147.08L249.38,146.51L249.95,146.42zM213.65,164.00L213.10,164.07L213.09,163.75L214.01,163.41z"/></g><g id="hotspot.9" onmouseover="ShowHotSpot(evt,'9')" onmouseout="HideHotSpot(evt,'9')" onmousemove="ShowToolTip(evt,'9',&quot;3dp2658354&quot;)" opacity="0"><path style="fill:#00ff00;fill-rule:evenodd" d="M196.91,44.20L197.00,39.05L214.57,38.96L214.57,44.20L206.09,44.36L206.12,47.96L206.67,48.16L206.68,48.38L208.37,49.47L208.11,54.75L205.85,56.00L203.66,56.08L204.02,50.12L204.22,49.24L205.08,48.67L205.03,48.18L205.64,47.96L205.66,44.36z"/></g><g id="hotspot.10" onmouseover="ShowHotSpot(evt,'10')" onmouseout="HideHotSpot(evt,'10')" onmousemove="ShowToolTip(evt,'10',&quot;3dp2816315&quot;)" opacity="0"><path style="fill:#00ff00;fill-rule:evenodd" d="M231.60,102.12L231.58,107.11L214.46,107.11L214.30,104.84L210.94,104.58L214.30,104.41L214.55,101.96L231.33,101.85zM209.43,101.16L209.43,104.42L210.54,103.78L210.51,105.50L209.98,105.43L209.41,105.07L209.07,105.10L208.92,107.94L207.20,108.91L205.91,108.91L204.79,108.65L204.49,108.36L205.28,99.44L207.82,95.50L209.36,94.54L209.69,94.56z"/></g></g></svg>
