<?xml version="1.0" encoding="UTF-8" standalone="no"?>
<svg xmlns="http://www.w3.org/2000/svg" xmlns:xlink="http://www.w3.org/1999/xlink" width="297.000mm" height="210.000mm" viewBox="0.000000 0.000000 297.000000 210.000000" stroke-linejoin="round" stroke-linecap="round" fill="none" fill-rule="evenodd"><desc>Composer Export</desc><script type="text/ecmascript"><![CDATA[
if(typeof(top) != "undefined")
{
	top.ShowPaper = ShowPaper;
}
function ShowHotSpot(evt,hotspotid)
{
	var svgDocument = evt.target.ownerDocument;
	var strId = "hotspot."+hotspotid;
	var hotspot = svgDocument.getElementById(strId);
	if(hotspot)
		hotspot.setAttribute("opacity",".5");
}
function HideHotSpot(evt,hotspotid)
{
	var svgDocument = evt.target.ownerDocument;
	var strId = "hotspot."+hotspotid;
	var hotspot = svgDocument.getElementById(strId);
	if(hotspot)
		hotspot.setAttribute("opacity","0");

	var toolTip = svgDocument.getElementById('ToolTip');
	if(toolTip)
		toolTip.setAttribute("visibility","hidden");
}
function ShowToolTip(evt,hotspotid,strTooltip)
{
	if(strTooltip=="")
	return;

	// change text
	var svgDocument = evt.target.ownerDocument;
	var tiptext = svgDocument.getElementById('ToolTipText');
	if( !tiptext )
	return;
	tiptext.firstChild.nodeValue = " " + strTooltip + "  " ;

	// show tooltip before, else some refresh issue

	var toolTip = svgDocument.getElementById('ToolTip');
	if(!toolTip)
	return;

	toolTip.setAttribute("visibility","visible");
	toolTip.setAttribute("opacity",".95");

	// move tooltip
	// get viewbox

	var root = svgDocument.documentElement;
	var vbox = (root.getAttribute("viewBox")).split(' ');
	var x0 = parseFloat(vbox[0]);
	var y0 = parseFloat(vbox[1]);
	var vboxW = parseFloat(vbox[2]);
	var vboxH = parseFloat(vbox[3]);

	// get default width of svg

	var strW = root.getAttribute("width");
	var svgW = parseFloat(strW);
	if(strW.indexOf('mm') != -1)
	svgW *= 3.779;

	var strH = root.getAttribute("height");
	var svgH = parseFloat(strH);
	if(strH.indexOf('mm') != -1)
	svgH *= 3.779;  	// 96 dpi  -> 96/25.4 = 3.779

	// update the viewbox / width / height if svg is embedded in html with zoom fit all
	var realx0 = x0;
	var realy0 = y0;
	var realvboxW = vboxW;
	var realvboxH = vboxH;
	var realsvgW = svgW;
	var realsvgH = svgH;

	if ((typeof(top) == "undefined") || (typeof(top.svgctl1) != "undefined")) // embedded in html
	{
		// get window size in pxl

		svgW = window.innerWidth;
		svgH = window.innerHeight;

		// calculate real viewbox

		realsvgW = svgW;
		realsvgH = svgH;
		if((svgW / svgH) > (vboxW / vboxH))
		{
			realvboxW = (vboxH * svgW) / svgH;
			realvboxH = vboxH;
			realx0 = x0 - (realvboxW - vboxW)/2 ;
		}
		else
		{
			realvboxH = (vboxW * svgH) / svgW;
			realvboxW = vboxW;
			realy0 = y0 - (realvboxH - vboxH)/2 ;
		}
	}

	// get user zoom/pan

	var newScale = root.currentScale;
	var translation = root.currentTranslate;

	// transform pxl to user unit

	var xPos = (((evt.clientX+10- translation.x)/newScale) * realvboxW)/realsvgW  + realx0 ;
	var yPos = (((evt.clientY+5- translation.y)/newScale) * realvboxH)/ realsvgH  + realy0 ;
	var scaleForWidth = ( (1 / newScale) * realvboxH) / realsvgH;

	// move tooltip

	toolTip.setAttribute("transform", "translate(" + xPos + "," + yPos + ")" );

	// resize tooltip

	var fontsize = 12;
	tiptext.setAttribute("font-size",fontsize*scaleForWidth);
	tiptext.setAttribute("y", fontsize*scaleForWidth);
	var tipBG = svgDocument.getElementById('ToolTipBG');
	var outline = tiptext.getBBox();
	if(tipBG)
	{
		tipBG.setAttribute("stroke-width", 1*scaleForWidth);
		tipBG.setAttribute("width", Number(outline.width) );
		tipBG.setAttribute("height", Number(outline.height) + fontsize*.5*scaleForWidth );
	}
	var ToolTipShadow = svgDocument.getElementById('ToolTipShadow');
	if(ToolTipShadow)
	{
		ToolTipShadow.setAttribute("width", Number(outline.width) );
		ToolTipShadow.setAttribute("height", Number(outline.height) + fontsize*.5*scaleForWidth );
		ToolTipShadow.setAttribute("x", 3*scaleForWidth);
		ToolTipShadow.setAttribute("y", 3*scaleForWidth);
	}
}
function ShowPaper()
{
  var svgDocument = getDocument();
  var paper = svgDocument.getElementById("paperID");
  if(paper)
  {
    paper.setAttribute("transform","scale(1)");
    paper.setAttribute("opacity","1");
    paper.setAttribute("visibility","visible");
  }
  var svg = svgDocument.getRootElement();
  if(svg)
  {
    svg.setAttribute("width","307.000mm");
    svg.setAttribute("height","220.000mm");
    svg.setAttribute("viewBox","-5.000000 -5.000000 307.000000 220.000000");
  }
}
]]></script><defs/><g><g id="Actor_.0"><g style="stroke:#000000;stroke-width:0.123"><path d="M171.50,54.07L171.60,53.93L171.93,53.75L177.22,52.63L177.55,52.67L164.76,48.99L164.69,49.03L163.90,50.67L163.58,51.34L163.51,51.57L163.47,51.91L163.45,52.44L163.52,55.76"/><path d="M177.66,52.78L177.55,52.67"/></g></g><g id="Actor_.1"><g style="stroke:#000000;stroke-width:0.123"><path d="M208.67,46.23L208.61,42.93L208.61,43.01L208.57,43.05L208.40,43.07L208.14,42.99L208.01,42.86L207.59,41.97L207.36,41.62L207.20,41.42L207.23,41.36L207.30,41.33L207.49,41.34L203.25,40.15L202.87,40.13L197.64,41.23L197.32,41.34L197.26,41.47L197.27,42.08L197.49,42.20L201.29,43.28L201.49,43.41L201.63,43.68L201.69,44.00L201.76,47.69"/><path d="M197.26,41.47L197.47,41.59L201.28,42.66L201.58,42.84L201.84,43.18L202.02,43.63L202.09,44.11L202.15,47.60"/><path d="M200.47,41.78L200.67,41.89L201.06,41.95L201.55,41.95L201.99,41.90L204.60,41.35L204.90,41.25L204.95,41.13L204.76,41.03L204.36,40.96L203.88,40.96L203.43,41.01L200.81,41.56L200.53,41.66L200.47,41.78"/><path d="M207.85,42.50L208.33,42.39L208.15,42.04L207.93,41.70L207.72,41.47L207.49,41.34"/><path d="M207.85,42.51L208.33,42.41L208.28,42.47L207.88,42.56"/><path d="M208.57,43.05L208.23,43.03"/><path d="M208.61,42.93L208.56,42.83L208.28,42.47"/><path d="M208.33,42.39L208.33,42.41"/></g></g><g id="Actor_.2"><g style="stroke:#000000;stroke-width:0.123"><path d="M132.78,55.71L132.78,55.60L129.29,54.58L129.07,54.50L128.85,54.31L129.01,56.50"/><path d="M146.90,52.74L146.89,52.52L147.72,52.34L143.94,51.26L143.24,51.18L142.03,51.20L141.27,51.31L129.66,53.84L129.10,54.01L128.94,54.11L128.86,54.21L128.85,54.31"/><path d="M130.19,73.24L130.53,78.06L130.59,78.16L130.97,78.35L133.42,79.07L134.28,79.18L135.92,78.79L136.64,78.28L137.23,77.49L137.66,76.47L137.92,75.26L137.98,73.92L137.91,71.59"/><path d="M132.78,55.60L133.61,55.41L130.12,54.40L129.98,54.33L129.90,54.16L129.97,54.08L130.30,53.96L142.15,51.39L142.69,51.37L143.20,51.44L146.89,52.52"/><path d="M133.61,55.53L133.61,55.41"/><path d="M134.28,79.18L135.09,78.97L135.81,78.46L136.40,77.67L136.83,76.65L137.09,75.44L137.15,74.11L137.08,71.77"/><path d="M145.81,75.44L144.62,75.12L143.81,75.10L137.67,76.45"/><path d="M147.72,52.34L147.72,52.57"/></g></g><g id="Actor_.3"><g style="stroke:#000000;stroke-width:0.123"><path d="M190.66,66.37L190.63,66.36L190.88,66.43L190.76,66.39L190.62,66.32L190.52,66.24L190.39,66.12L190.30,66.01L190.21,65.87L190.15,65.74L190.09,65.56L190.03,65.32L190.02,65.16L190.01,65.01L190.03,64.75L190.06,64.59L190.10,64.43L190.14,64.28L190.20,64.13L190.30,63.94L190.38,63.80L190.47,63.68L190.60,63.53L190.71,63.42L190.82,63.33L190.94,63.26L191.06,63.19L191.23,63.13L191.36,63.10L191.48,63.08L191.61,63.08L191.73,63.09L191.85,63.12L191.55,63.04"/><path d="M190.41,63.44L190.33,63.49L190.29,63.53L190.32,63.58L190.16,63.70L190.14,63.73L190.12,63.75L190.15,63.80L190.01,63.94L189.99,64.00L190.02,64.05L189.90,64.20L189.88,64.26L189.92,64.31L189.82,64.48L189.81,64.54L189.85,64.59L189.78,64.76L189.77,64.82L189.82,64.87L189.77,65.03L189.77,65.09L189.83,65.15L189.80,65.30L189.81,65.36L189.87,65.41L189.86,65.56L189.87,65.58L189.88,65.61L189.95,65.66L189.96,65.79L189.99,65.83L190.06,65.88L190.09,65.99L190.12,66.03L190.20,66.07L190.25,66.15L190.29,66.19L190.37,66.22L190.41,66.27L190.45,66.29L190.63,66.36"/><path d="M191.55,66.12L191.43,66.04L191.35,65.97L191.28,65.88L191.22,65.79L191.16,65.68L191.11,65.53L191.08,65.36L191.07,65.23"/><path d="M191.53,66.12L191.26,65.99L190.87,65.83L190.97,65.64L191.04,65.45L191.06,65.30L191.07,65.05L191.08,64.92L191.12,64.74L191.16,64.61L191.23,64.44L191.32,64.29L191.42,64.15L191.52,64.04"/><path d="M191.86,66.32L191.49,66.22L191.02,65.97L190.49,65.72L190.87,65.83"/><path d="M190.88,66.43L191.00,66.46L191.08,66.47L191.20,66.47L191.33,66.46L191.45,66.44L191.54,66.41L191.66,66.36L191.78,66.30"/><path d="M191.16,64.28L190.84,64.42L190.93,64.61L190.99,64.77L191.03,64.93L191.06,65.07"/><path d="M191.06,65.10L191.06,65.19"/><path d="M190.49,65.72L190.54,65.37L190.55,65.04L190.52,64.68L190.46,64.31L190.77,64.09L191.02,63.87L191.23,63.65L191.43,63.39"/><path d="M191.61,66.15L191.74,66.20L191.88,66.22L191.99,66.21L192.13,66.18L192.27,66.13L192.41,66.05L192.54,65.95L192.65,65.84L192.76,65.70L192.85,65.55L192.92,65.38L192.98,65.21L193.02,65.03L193.03,64.85L193.03,64.68L193.01,64.51L192.96,64.35L192.90,64.20L192.84,64.10L192.75,63.98L192.64,63.89L192.52,63.81L192.42,63.77L192.29,63.74L192.18,63.74L192.04,63.75L191.93,63.78L191.82,63.82L191.65,63.93L191.43,64.11L191.22,64.24"/><path d="M190.84,64.42L190.46,64.31"/><path d="M191.55,63.04L191.58,63.04L191.39,63.01L191.34,63.01L191.36,63.02L191.16,63.02L191.12,63.03L191.14,63.05L190.94,63.07L190.89,63.09L190.90,63.12"/><path d="M191.12,63.03L191.12,63.05"/><path d="M190.69,63.24L190.68,63.20L190.72,63.17L190.92,63.12L190.89,63.09"/><path d="M190.68,63.20L190.70,63.23L190.52,63.31L190.47,63.35L190.49,63.39"/><path d="M190.47,63.35L190.50,63.39"/><path d="M191.34,63.01L191.34,63.02"/><path d="M191.55,66.13L191.58,66.14"/><path d="M192.37,66.08L192.15,66.20L191.86,66.33L191.78,66.25L191.62,66.16"/><path d="M192.48,66.00L192.52,65.97"/><path d="M192.48,63.79L192.16,63.65L191.81,63.50L191.78,63.64L191.73,63.77L191.66,63.88L191.56,64.00L191.59,63.98"/><path d="M191.56,64.00L191.57,63.99"/><path d="M191.81,63.50L191.44,63.40"/><path d="M191.44,63.39L191.44,63.40"/><path d="M191.85,63.12L191.96,63.16L192.07,63.22L192.18,63.29L192.27,63.37L192.36,63.46L192.44,63.57L192.51,63.69L192.59,63.85"/><path d="M192.56,63.83L192.71,63.92L192.77,63.96L192.81,64.00L192.93,64.27"/><path d="M192.54,63.82L192.55,63.83"/></g></g><g id="Actor_.4"><g style="stroke:#000000;stroke-width:0.123"><path d="M253.82,91.88L254.25,92.01L254.08,91.98L253.79,91.89"/><path d="M253.83,92.20L253.93,92.23L254.08,92.15"/><path d="M253.90,92.27L253.99,92.30L254.29,92.35L254.41,92.36L254.59,92.35L254.96,92.46L256.25,92.18L256.30,92.14"/><path d="M254.04,90.17L253.89,89.98L253.80,89.95"/><path d="M254.06,90.37L253.76,90.28"/><path d="M253.86,89.86L253.95,89.89L254.25,89.89"/><path d="M255.06,91.40L255.12,91.36L255.17,91.26"/><path d="M255.06,91.26L255.06,91.44L255.27,91.74"/><path d="M254.23,90.40L254.10,90.38"/><path d="M255.20,89.97L254.93,90.03L254.69,90.20L254.60,90.51L254.61,91.26"/><path d="M254.12,89.75L254.41,89.84L254.55,89.92"/><path d="M255.60,91.80L255.24,91.70"/><path d="M256.12,90.77L255.91,90.46"/><path d="M255.25,90.61L255.20,90.71"/><path d="M255.40,89.47L255.70,89.56L255.83,89.64L255.40,89.51"/><path d="M255.83,89.64L256.21,89.75"/><path d="M255.66,89.46L255.75,89.49L255.81,89.54"/><path d="M255.75,89.49L256.06,89.70"/><path d="M256.57,91.69L256.56,91.26"/></g></g><g id="Actor_.5"><g style="stroke:#000000;stroke-width:0.123"><path d="M73.73,62.50L73.74,62.64L73.82,62.72L74.85,63.01L75.13,63.04"/><path d="M75.46,63.01L75.45,63.02"/></g></g><g id="Actor_.6"><g style="stroke:#000000;stroke-width:0.123"><path d="M145.48,62.19L145.54,62.40L145.92,62.57L149.19,63.53L149.87,64.75L150.71,64.57L153.00,159.21L152.17,159.40L148.26,158.17L147.89,157.98L147.83,157.76L145.48,62.19L146.28,61.83L160.34,58.83L162.58,58.96L165.86,59.91L165.03,60.09L165.71,61.31L167.93,155.75L164.01,154.52L163.03,154.44L152.94,156.73"/><path d="M165.03,60.09L161.75,59.14L160.77,59.07L146.60,62.13L146.54,62.27L146.75,62.39L150.03,63.35L150.71,64.57"/><path d="M150.03,63.35L149.19,63.53"/><path d="M152.17,159.40L149.87,64.75"/><path d="M151.77,108.59L152.37,108.96L153.41,109.24L154.52,109.22L155.63,108.89L156.69,108.26L157.65,107.37L158.81,105.55L159.46,103.64L159.61,102.25L159.51,100.89L159.17,99.64L158.59,98.57L157.82,97.71L156.89,97.13L155.84,96.84L154.74,96.86L153.62,97.19L152.56,97.81L151.54,98.79"/><path d="M151.09,80.35L152.11,79.38L153.18,78.76L154.29,78.43L155.40,78.41L156.45,78.70L157.30,79.24L158.21,80.26L158.73,81.23L159.07,82.46L159.17,83.84L159.02,85.24L158.63,86.60L158.02,87.87L157.21,88.97L156.25,89.86L155.19,90.48L154.08,90.81L152.97,90.83L151.92,90.54L151.33,90.17"/><path d="M152.67,145.31L153.26,145.67L154.30,145.95L155.41,145.92L156.52,145.58L157.58,144.95L158.53,144.06L159.34,142.96L159.95,141.69L160.34,140.33L160.49,138.94L160.39,137.59L160.04,136.35L159.50,135.34L158.70,134.44L157.77,133.86L156.73,133.58L155.62,133.60L154.51,133.94L153.45,134.57L152.43,135.55"/><path d="M152.22,126.96L152.81,127.33L153.86,127.62L154.96,127.59L156.08,127.25L157.14,126.63L158.09,125.74L159.09,124.24L159.89,122.04L160.05,120.61L159.95,119.26L159.41,117.64L159.03,116.94L158.26,116.09L157.33,115.51L156.29,115.22L155.18,115.25L154.07,115.58L153.01,116.21L151.98,117.19"/><path d="M152.74,127.29L154.31,127.39L155.42,127.05L156.46,126.44L157.44,125.54L158.24,124.43L158.86,123.17L159.25,121.80L159.40,120.41L159.30,119.06L158.95,117.82L158.40,116.78L157.61,115.89L156.73,115.35"/><path d="M152.31,108.92L153.87,109.02L154.98,108.69L156.04,108.06L157.00,107.18L157.80,106.07L158.40,104.85L158.81,103.44L158.96,102.05L158.86,100.69L158.51,99.45L157.94,98.37L157.17,97.52L156.28,96.96"/><path d="M151.88,90.52L153.42,90.62L154.54,90.29L155.60,89.67L156.56,88.78L157.36,87.68L157.98,86.41L158.37,85.04L158.52,83.65L158.42,82.29L158.07,81.04L157.50,79.96L156.78,79.16L155.82,78.53"/><path d="M157.19,133.70L158.05,134.24L158.82,135.08L159.39,136.15L159.74,137.39L159.84,138.74L159.69,140.13L159.30,141.49L158.40,143.15L156.92,144.75L155.87,145.38L154.76,145.72L153.17,145.62"/><path d="M165.71,61.31L166.54,61.13L168.75,155.56L167.93,155.75"/><path d="M165.86,59.91L166.54,61.13"/></g></g><g id="Actor_.7"><g style="stroke:#000000;stroke-width:0.123"><path d="M227.59,62.27L227.58,62.54L227.57,62.20L227.57,62.23L227.59,62.27L227.62,62.30L227.74,62.37L227.92,62.43L228.14,62.47L228.41,62.50L228.70,62.52L228.99,62.51L229.29,62.50L229.56,62.46L229.81,62.42L230.00,62.36L230.14,62.29L230.22,62.22L230.24,62.18L230.24,62.14L230.22,62.11L230.18,62.07L230.08,62.01"/><path d="M227.72,62.05L227.61,62.12L227.58,62.16L227.57,62.20"/><path d="M227.58,62.49L227.60,62.58L227.61,62.60L227.62,62.54L227.66,62.63L227.68,62.65L227.69,62.59L227.76,62.68L227.79,62.69L227.80,62.64L227.89,62.72L227.92,62.73L227.99,62.72"/><path d="M227.61,62.60L227.64,62.59"/><path d="M227.58,62.54L227.59,62.54"/><path d="M227.68,62.65L227.73,62.64"/><path d="M228.39,66.44L228.48,66.48L228.62,66.51L228.80,66.53L228.99,66.53L229.18,66.52L229.35,66.49L229.48,66.46L229.56,66.41L229.41,66.56L229.37,66.58L229.18,66.62L228.93,66.64L228.69,66.62L228.58,66.59L228.52,66.55L228.37,66.41L228.36,66.39L228.30,62.78"/><path d="M227.92,62.73L227.94,62.68L228.04,62.76L228.08,62.77L228.15,62.74"/><path d="M228.34,62.76L228.27,62.79L228.22,62.79L228.11,62.71L228.08,62.77"/><path d="M228.72,62.76L228.68,62.82L228.63,62.82L228.50,62.75L228.47,62.81L228.53,62.77"/><path d="M228.47,62.81L228.42,62.81L228.29,62.73L228.27,62.79"/><path d="M229.90,62.65L230.00,62.67L229.91,62.63L229.89,62.70L229.85,62.71L229.75,62.67L229.73,62.74L229.68,62.75L229.57,62.71L229.54,62.77L229.49,62.78L229.37,62.74L229.34,62.80L229.29,62.80L229.15,62.75L229.12,62.81L229.07,62.82L228.93,62.76L228.90,62.82L228.85,62.82L228.71,62.76L228.68,62.82"/><path d="M227.79,62.69L227.85,62.68"/><path d="M229.84,61.45L229.79,61.52L229.74,61.61L229.64,61.85L229.43,61.71L229.26,61.64L229.17,61.62L228.58,61.62L228.26,61.58L228.09,61.54L228.16,61.58L228.28,61.67L228.37,61.78L228.47,61.92L228.63,61.78L228.81,61.68L228.99,61.62L229.38,61.59L229.66,61.53L229.79,61.48L229.85,61.45L229.91,61.39L229.92,61.33L229.90,61.30L229.87,61.27L229.76,61.22L229.61,61.18L229.42,61.15L229.20,61.12L228.97,61.12L228.73,61.12L228.39,61.16L228.20,61.19L228.05,61.24L227.93,61.29L227.89,61.32L227.86,61.38L227.86,61.41L227.88,61.44L227.96,61.50L228.09,61.54L227.97,61.54L227.89,61.56L227.82,61.61L227.71,61.70L227.79,61.50L227.85,61.38"/><path d="M228.47,61.92L228.47,62.39L228.25,62.25L228.15,62.21L228.05,62.18L227.95,62.16L227.85,62.16L227.72,62.17L227.71,61.70"/><path d="M228.47,62.39L228.80,62.30L228.98,62.27L229.14,62.26L229.30,62.27L229.47,62.29L229.65,62.32L229.78,62.17L229.89,62.08L229.95,62.05L230.01,62.04L230.08,62.04L230.07,61.57L229.97,61.41"/><path d="M227.85,61.38L227.86,61.35"/><path d="M229.56,66.41L229.59,66.39L229.59,66.36L229.53,62.78"/><path d="M229.85,62.71L229.75,62.68"/><path d="M229.64,61.85L229.65,62.32"/><path d="M229.85,61.45L229.90,61.43L229.93,61.43L229.97,61.45L230.02,61.50L230.07,61.57"/><path d="M230.00,62.67L230.03,62.66L230.04,62.59L230.11,62.62L230.13,62.61L230.14,62.54L230.19,62.57L230.20,62.56L230.21,62.49L230.23,62.51L230.24,62.43L230.24,62.46L230.24,62.18"/><path d="M230.24,62.46L230.24,62.46"/><path d="M230.11,62.62L230.04,62.61"/><path d="M230.19,62.57L230.14,62.56"/><path d="M230.21,62.51L230.23,62.51"/><path d="M229.92,61.33L230.04,61.53"/></g></g><g id="Actor_.8"><g style="stroke:#000000;stroke-width:0.123"><path d="M129.77,79.51L129.47,79.49L124.20,80.70L123.91,80.86L123.69,81.17L123.59,81.70L123.93,88.42L124.02,88.79L124.24,89.04L91.26,79.14L90.84,78.89L90.66,78.66L90.60,78.40L90.44,71.78L90.49,71.53L90.65,71.30L91.06,71.06L91.62,70.97L101.19,71.06L101.75,71.16L129.77,79.51L130.02,79.71L130.17,80.18L130.50,86.86L130.45,87.30L130.27,87.64L129.89,87.89L127.75,88.39L127.73,87.97L127.00,87.75L126.27,87.71L125.95,87.78L125.84,87.87L126.49,88.12"/><path d="M118.46,83.17L118.66,82.93L118.80,82.94L118.94,82.96L119.19,83.25L119.32,83.69L119.28,84.12L119.08,84.37L118.80,84.34L118.54,84.04L118.41,83.60L118.46,83.17L118.80,83.10L118.75,83.53L118.88,83.97L119.16,84.27"/><path d="M118.80,83.10L118.92,82.96"/><path d="M124.24,89.04L124.63,89.11L126.77,88.62L126.75,88.20L124.61,88.69L124.48,88.69L124.30,88.52L123.92,81.62L124.00,81.30L124.23,81.12L129.62,79.91L129.80,80.08L129.84,80.25L130.16,87.14L129.99,87.41L129.87,87.47L127.73,87.97"/><path d="M126.75,88.20L126.50,88.12L127.01,88.16L127.75,88.39"/></g></g><g id="Actor_.9"><g style="stroke:#000000;stroke-width:0.123"><path d="M181.07,54.28L179.46,54.74L175.01,55.69L174.60,55.91L174.33,56.33L174.21,56.89L174.33,63.32L174.45,63.77L174.77,64.12L175.42,64.31L175.11,64.00L174.99,63.51L174.86,57.08L174.96,56.54L175.26,56.10L175.67,55.88L180.03,54.94L180.79,54.51L181.27,54.08L182.05,53.75L184.02,54.31L184.65,54.43L186.26,54.45L186.99,54.34L210.86,49.29L211.39,49.12L211.64,48.93L211.56,48.73L211.20,48.57L209.21,48.00L208.39,48.18L207.20,48.72L207.18,49.74"/><path d="M180.11,63.48L180.34,63.61L179.97,63.48L175.84,64.36L175.42,64.31"/><path d="M176.73,60.47L177.03,60.75L177.45,60.79L177.86,60.55L178.14,60.10L178.23,59.57L178.20,59.44L178.10,59.09L177.79,58.79L177.37,58.75L176.96,58.98L176.67,59.43L176.58,59.97L176.73,60.47"/><path d="M176.84,60.57L177.20,60.36L177.49,59.91L177.58,59.38L177.45,58.90L177.32,58.78"/><path d="M180.34,63.61L180.71,64.05L181.03,64.63L181.50,65.95L182.32,67.66L184.29,68.24L184.92,68.36L185.70,68.40L187.25,68.27L211.11,63.16L211.64,63.00L211.88,62.80L211.64,48.93"/><path d="M182.05,53.75L182.87,53.57L184.85,54.14L185.29,54.21L186.33,54.15L210.20,49.10L210.53,48.99L210.58,48.85L210.36,48.74L208.39,48.18"/><path d="M189.77,65.02L189.68,64.66L189.77,64.21L190.13,63.74"/><path d="M189.62,57.09L189.53,56.73L189.62,56.28L189.98,55.81"/><path d="M207.27,61.44L207.11,60.93L207.20,60.47L207.46,60.07L207.59,60.00"/><path d="M207.72,53.80L207.35,53.75L207.07,53.47L206.96,53.03L207.05,52.55L207.32,52.16L207.69,51.96L208.06,52.00L208.33,52.28L208.44,52.72L208.35,53.20L208.09,53.59L207.72,53.80"/><path d="M207.15,53.56L207.43,53.41L207.69,53.01L207.78,52.53L207.67,52.09L207.59,52.01"/><path d="M211.78,56.71L212.85,56.48L213.25,56.25L213.55,55.82L213.65,55.29L213.53,48.89L213.42,48.40L213.11,48.09L212.70,48.04L210.78,48.45"/><path d="M213.11,48.09L212.04,47.86L210.12,48.26"/><path d="M211.69,51.80L211.83,51.93L211.95,52.41L211.86,52.94L211.71,53.18"/></g></g><g id="Actor_.10"><g style="stroke:#000000;stroke-width:0.123"><path d="M91.30,79.15L90.60,78.40L90.44,71.78L90.65,71.30L91.62,70.97L101.75,71.16"/><path d="M91.30,71.02L245.27,38.50L249.70,39.63L250.22,40.18L250.40,47.08L250.15,47.71L213.61,55.48"/><path d="M145.67,69.94L117.67,75.90"/><path d="M166.64,65.48L174.46,63.82"/></g></g><g id="Actor_.11"><g style="stroke:#000000;stroke-width:0.123"><path d="M235.23,68.93L236.08,120.23L232.23,129.72L231.84,129.54L231.76,129.33L230.72,67.39L230.97,67.19L231.50,67.03L255.71,61.87L257.34,61.88L257.98,62.00L262.03,63.15L261.21,63.33L257.15,62.18L255.66,62.17L231.85,67.33L231.79,67.47L232.02,67.59L236.06,68.75L235.23,68.93L231.19,67.77L230.80,67.59L230.72,67.39"/><path d="M232.23,129.72L233.05,129.54L236.91,120.05L236.08,120.23"/><path d="M233.21,129.15L237.59,128.16L236.95,89.06L237.06,88.20L237.41,87.45L237.94,86.88L238.57,86.59L249.96,84.10L250.60,84.12L251.14,84.45L251.50,85.04L251.64,85.76L252.26,124.86L256.61,123.88L258.10,123.90L261.98,114.44L261.21,63.33"/><path d="M236.91,120.05L236.06,68.75"/><path d="M235.56,68.61L235.53,68.60"/><path d="M252.26,124.86L251.58,124.66L250.97,85.60L250.83,84.84L250.46,84.25L250.22,84.10"/><path d="M252.75,72.84L252.93,73.34L252.84,73.82L252.58,74.23L252.30,74.40"/><path d="M253.00,74.57L252.52,74.60L252.23,74.33L252.12,73.90L252.20,73.41L252.46,73.00L252.83,72.79L253.20,72.82L253.49,73.09L253.60,73.53L253.52,74.02L253.26,74.42L253.00,74.57"/><path d="M252.62,64.81L252.80,65.32L252.72,65.80L252.46,66.21L252.17,66.37"/><path d="M252.02,65.97L252.11,66.31L252.39,66.58L252.77,66.61L253.13,66.40L253.39,65.99L253.48,65.51L253.36,65.07L253.08,64.80L252.70,64.76L252.34,64.98L252.08,65.38L252.02,65.97"/><path d="M258.10,123.90L258.92,123.72L262.80,114.26L261.98,114.44"/><path d="M262.80,114.26L262.03,63.15"/></g></g><g id="Actor_.12"><g style="stroke:#000000;stroke-width:0.123"><path d="M275.01,72.92L274.93,72.89L274.85,72.84L274.79,72.79L274.71,72.70L274.66,72.61L274.62,72.49L274.59,72.35L274.58,72.24L274.59,72.10L274.61,71.99L274.64,71.88L274.70,71.74L274.78,71.62L274.84,71.53L274.92,71.46L275.02,71.38L275.11,71.34L275.22,71.30L275.34,71.29L275.42,71.30L276.94,71.73"/><path d="M275.01,72.92L276.48,73.34"/><path d="M278.22,72.17L278.12,72.27L278.02,72.42L277.93,72.58L277.86,72.74L277.82,72.88L277.78,73.06L277.77,73.19L277.76,73.44L277.74,73.58L277.68,73.76L277.58,73.94L277.55,73.98L277.16,73.87L277.21,73.51L277.22,73.18L277.20,72.82L277.14,72.44L277.45,72.21L277.70,71.99L277.92,71.77L278.12,71.51"/><path d="M277.16,73.87L277.73,74.14L278.16,74.37L278.55,74.48"/><path d="M278.28,71.16L278.49,71.22L278.30,71.19L278.12,71.19L277.95,71.23L277.79,71.29L277.58,71.39L277.43,71.51L277.28,71.65L277.15,71.80L277.03,71.97L276.96,72.10L276.88,72.25L276.80,72.46L276.75,72.64L276.71,72.83L276.69,73.04L276.69,73.25L276.70,73.46L276.74,73.64L276.79,73.80L276.86,73.98L276.95,74.14L277.05,74.27L277.15,74.37L277.28,74.47L277.43,74.55L277.54,74.59L277.66,74.62L277.83,74.63L278.00,74.62L278.12,74.59L278.29,74.54L278.45,74.45"/><path d="M277.08,71.55L277.00,71.61L276.96,71.65L276.99,71.69L276.83,71.82L276.81,71.85L276.79,71.87L276.83,71.92L276.68,72.06L276.65,72.12L276.69,72.17L276.57,72.33L276.55,72.39L276.59,72.44L276.49,72.61L276.47,72.67L276.52,72.72L276.44,72.89L276.44,72.95L276.49,73.01L276.43,73.17L276.43,73.23L276.49,73.29L276.46,73.45L276.47,73.51L276.53,73.56L276.52,73.70L276.53,73.73L276.54,73.76L276.61,73.81L276.62,73.94L276.65,73.99L276.72,74.03L276.75,74.14L276.78,74.18L276.86,74.22L276.91,74.31L276.95,74.34L277.03,74.37L277.11,74.45L277.31,74.53"/><path d="M277.86,72.41L277.53,72.55L277.14,72.44"/><path d="M277.17,71.50L277.14,71.46L277.19,71.42L277.37,71.34L277.35,71.31L277.36,71.35"/><path d="M277.16,71.50L277.14,71.46"/><path d="M277.76,73.37L277.78,73.55L277.81,73.67L277.85,73.79L277.91,73.94L277.97,74.04L278.07,74.15L278.18,74.24L278.27,74.30"/><path d="M277.55,73.98L278.24,74.28"/><path d="M278.30,74.31L278.29,74.31"/><path d="M277.54,74.59L277.29,74.52"/><path d="M277.53,72.55L277.62,72.75L277.69,72.91L277.72,73.04L277.75,73.21"/><path d="M277.76,73.24L277.76,73.33"/><path d="M278.24,72.15L278.29,72.10L278.26,72.13L278.34,72.03L278.42,71.91L278.48,71.76L278.51,71.62L279.19,71.91"/><path d="M278.29,72.10L278.42,72.00L278.53,71.94L278.63,71.90L278.78,71.87L278.92,71.86L279.03,71.87L279.13,71.89L279.25,71.95L279.34,72.01L279.45,72.10L279.54,72.22L279.60,72.33L279.65,72.44L279.70,72.60L279.73,72.77L279.74,72.90L279.73,73.08L279.71,73.22L279.68,73.35L279.62,73.53L279.56,73.66L279.48,73.81L279.37,73.95L279.26,74.08L279.14,74.18L279.04,74.25L278.93,74.30L278.79,74.35L278.68,74.37L278.54,74.37L278.40,74.35L278.30,74.31"/><path d="M278.22,72.17L278.08,72.27L277.90,72.38"/><path d="M278.12,71.51L278.51,71.62"/><path d="M278.26,72.13L278.28,72.11"/><path d="M278.01,71.13L278.01,71.11L278.06,71.12L278.25,71.15L278.23,71.15"/><path d="M278.23,71.14L278.27,71.16"/><path d="M278.01,71.11L278.04,71.13L277.84,71.13L277.79,71.13L277.81,71.16L277.61,71.18L277.57,71.20L277.57,71.23"/><path d="M277.79,71.13L277.79,71.16"/><path d="M277.57,71.20L277.59,71.23L277.40,71.28L277.35,71.31"/><path d="M279.07,74.23L278.84,74.36L278.55,74.48L278.47,74.41L278.31,74.32"/><path d="M279.17,74.15L279.21,74.13"/><path d="M279.56,72.24L279.51,72.12L279.48,72.09L279.40,72.03L279.27,71.95"/><path d="M278.49,71.22L278.61,71.26L278.76,71.33L278.86,71.40L278.96,71.48L279.04,71.58L279.12,71.69L279.19,71.80L279.26,71.95"/><path d="M279.25,71.94L279.25,71.95"/><path d="M279.60,72.33L279.55,72.20"/></g></g><g id="Actor_.13"><g style="stroke:#000000;stroke-width:0.123"><path d="M110.96,66.86L110.86,66.75L102.77,64.35L102.21,64.25L92.69,64.16L92.13,64.25L91.73,64.49L91.63,64.63"/><path d="M110.86,66.75L110.52,66.71L105.12,67.85L104.79,68.03L104.69,68.18"/></g></g><g id="Actor_.14"><g style="stroke:#000000;stroke-width:0.123"><path d="M89.61,67.42L89.31,67.33L89.23,67.26L89.22,67.11"/></g></g><g id="Actor_.15"><g style="stroke:#000000;stroke-width:0.123"><path d="M102.32,82.46L104.33,167.22L104.00,167.42L98.60,168.63L97.90,168.68L93.11,167.18L90.98,79.48L95.30,80.82L96.72,80.78"/><path d="M90.98,79.48L91.52,79.22"/><path d="M96.46,80.70L95.70,80.76L91.39,79.43L91.78,79.30"/><path d="M99.38,87.62L99.03,87.56L98.81,87.25L98.80,86.86L99.00,86.40L99.35,86.18L99.70,86.24L99.92,86.56L99.93,87.00L99.73,87.41L99.38,87.62L99.01,87.52"/><path d="M100.10,138.90L100.03,138.37L100.24,137.96L100.58,137.75L100.93,137.81L101.15,138.12L101.16,138.53L100.96,138.97L100.61,139.18L100.26,139.12L100.10,138.90"/><path d="M99.12,87.55L99.47,87.33L99.67,86.93L99.66,86.48L99.46,86.20"/><path d="M100.23,139.08L100.61,139.18"/><path d="M100.70,137.77L100.89,138.04L100.90,138.48L100.70,138.89L100.35,139.10"/></g></g><g id="Actor_.16"><g style="stroke:#000000;stroke-width:0.123"><path d="M254.20,116.55L254.63,116.68L254.47,116.65L254.17,116.56"/><path d="M254.46,116.82L254.31,116.90L254.22,116.87"/><path d="M254.28,116.93L254.38,116.96L254.67,117.01L254.79,117.02L254.96,117.02"/><path d="M254.73,116.95L255.11,117.06"/><path d="M255.01,116.54L254.99,115.19L255.08,114.88L255.31,114.70"/><path d="M254.93,114.59L254.80,114.51L254.50,114.42"/><path d="M254.15,114.96L254.44,115.04"/><path d="M254.64,114.56L254.34,114.56L254.24,114.53"/><path d="M254.18,114.63L254.28,114.65L254.43,114.84"/><path d="M256.63,116.84L255.35,117.13"/><path d="M255.98,116.47L255.61,116.36"/><path d="M255.65,116.41L255.44,116.11"/><path d="M255.50,116.02L255.44,116.06"/><path d="M255.69,115.45L255.69,115.24"/><path d="M256.50,115.44L256.29,115.13"/><path d="M255.63,115.28L255.55,115.45"/><path d="M255.78,114.14L256.08,114.22L256.21,114.31L255.78,114.18"/><path d="M256.04,114.13L256.13,114.16L256.20,114.21"/><path d="M256.13,114.16L256.45,114.37L256.82,114.49"/><path d="M256.31,116.26L256.30,116.27"/><path d="M256.89,116.54L256.95,116.36L256.94,115.45"/></g></g><g id="Actor_.17"><g style="stroke:#000000;stroke-width:0.123"><path d="M210.02,60.12L209.95,59.97L209.86,59.81L209.75,59.68L209.62,59.57L209.48,59.48L209.33,59.41L209.17,59.37L209.05,59.36L208.88,59.37L208.76,59.39L208.59,59.44L208.43,59.51L208.31,59.59L208.16,59.70L208.02,59.84L207.90,59.99L207.80,60.13L207.70,60.31L207.63,60.47L207.56,60.66L207.51,60.86L207.48,61.02L207.47,61.23L207.47,61.44L207.50,61.69L207.55,61.88L207.64,62.10L207.73,62.26L207.87,62.43L208.00,62.54L208.06,62.59L208.17,62.65L208.32,62.71L208.08,62.64L208.10,62.64"/><path d="M207.86,59.72L207.78,59.77L207.74,59.81L207.77,59.86L207.61,59.98L207.59,60.00L207.57,60.03L207.61,60.08L207.46,60.22L207.44,60.27L207.47,60.32L207.35,60.48L207.33,60.54L207.37,60.59L207.27,60.75L207.26,60.81L207.30,60.86L207.23,61.03L207.22,61.09L207.27,61.14L207.22,61.31L207.22,61.37L207.28,61.42L207.25,61.58L207.26,61.63L207.32,61.68L207.31,61.83L207.33,61.88L207.40,61.93L207.41,62.06L207.44,62.11L207.51,62.15L207.54,62.26L207.57,62.30L207.65,62.34L207.70,62.43L207.72,62.44L207.74,62.46L207.81,62.49L207.86,62.54L207.90,62.56L208.08,62.64"/><path d="M208.32,62.71L208.44,62.73L208.52,62.74L208.65,62.75L208.77,62.73L208.90,62.71L208.98,62.68L209.10,62.63L209.22,62.57"/><path d="M208.99,62.39L208.90,62.34L208.80,62.24L208.73,62.15L208.65,62.02L208.60,61.91L208.56,61.80L208.53,61.63L208.52,61.50"/><path d="M208.97,60.32L208.87,60.42L208.77,60.56L208.68,60.72L208.61,60.89L208.57,61.02L208.53,61.19L208.52,61.33L208.51,61.57L208.49,61.72L208.42,61.92L208.32,62.10L208.71,62.27L208.98,62.39"/><path d="M208.32,62.10L207.94,61.99L208.50,62.26L208.93,62.49L209.31,62.60"/><path d="M207.94,61.99L207.99,61.62L208.00,61.31L207.97,60.96L207.91,60.59L208.22,60.36L208.47,60.15L208.68,59.93L208.88,59.67"/><path d="M209.06,62.43L209.19,62.47L209.29,62.48L209.43,62.48L209.58,62.45L209.72,62.40L209.85,62.32L209.98,62.22L210.10,62.10L210.20,61.97L210.29,61.82L210.36,61.66L210.42,61.49L210.46,61.31L210.47,61.13L210.47,60.95L210.45,60.78L210.40,60.62L210.34,60.48L210.28,60.38L210.19,60.26L210.08,60.16L209.97,60.09L209.84,60.04L209.73,60.02L209.63,60.01L209.52,60.02L209.38,60.06L209.27,60.10L209.10,60.20L208.88,60.39L208.78,60.46L208.65,60.53"/><path d="M208.61,60.55L208.29,60.70L208.38,60.89L208.43,61.03L208.48,61.17L208.51,61.34"/><path d="M208.51,61.37L208.51,61.43"/><path d="M207.91,60.59L208.29,60.70"/><path d="M209.00,60.29L208.99,60.30"/><path d="M209.02,60.26L209.01,60.28L209.11,60.16L209.18,60.03L209.23,59.92L209.26,59.78L208.88,59.67"/><path d="M208.56,59.33L208.56,59.31L208.58,59.33L208.39,59.35L208.34,59.37L208.36,59.40L208.17,59.45L208.13,59.48L208.15,59.51L207.96,59.59L207.92,59.63L207.95,59.66"/><path d="M208.14,59.52L208.13,59.48"/><path d="M208.34,59.40L208.34,59.37"/><path d="M207.92,59.63L207.94,59.67"/><path d="M209.00,59.32L209.02,59.32L208.81,59.29L208.78,59.29L208.81,59.30L208.66,59.30L208.56,59.31"/><path d="M208.78,59.29L208.78,59.30"/><path d="M209.00,59.32L209.25,59.39"/><path d="M209.92,62.27L209.95,62.25"/><path d="M209.02,62.41L209.00,62.40"/><path d="M209.06,62.43L209.22,62.52L209.31,62.60L209.59,62.47L209.81,62.35"/><path d="M210.34,60.47L210.25,60.28L210.24,60.26L210.14,60.19L210.00,60.11"/><path d="M209.92,60.07L209.63,59.94L209.26,59.78"/><path d="M209.07,60.23L209.04,60.25"/><path d="M209.04,60.25L209.01,60.28"/><path d="M209.99,60.10L209.99,60.10"/></g></g><g id="Actor_.18"><g style="stroke:#000000;stroke-width:0.123"><path d="M91.01,78.99L90.52,78.85L90.20,78.53L90.08,78.06L89.83,68.11L89.75,67.68L89.56,67.32L89.29,67.13L70.32,61.48L70.11,61.36L70.09,60.54L70.30,60.66L89.27,66.30L89.67,66.55L90.02,67.01L90.17,67.39L90.26,67.61L90.35,68.27L90.59,78.20"/><path d="M70.09,60.54L70.16,60.40L70.50,60.29L74.05,59.55L74.57,59.56L94.20,65.39L93.68,65.38L93.68,65.47"/><path d="M74.38,60.53L74.33,60.65L74.52,60.76L74.92,60.82L75.87,60.76L76.16,60.66L76.22,60.54L76.02,60.43L75.62,60.37L75.13,60.37L74.67,60.42L74.38,60.53"/><path d="M74.82,63.00L74.83,63.52L74.93,64.06L75.17,64.51L75.50,64.74L89.85,69.02"/><path d="M90.17,65.03L89.87,65.13L89.82,65.26L90.02,65.36L90.42,65.43L90.91,65.43L91.37,65.37L91.66,65.26L91.72,65.14L91.52,65.03L91.11,64.97L90.17,65.03"/><path d="M94.20,65.39L94.65,65.66L94.95,66.13L95.07,66.75L95.37,66.89L95.41,67.05L95.20,67.21L94.76,67.34L94.62,67.17L94.02,66.03L93.71,65.54L93.68,65.38"/><path d="M95.07,66.75L94.45,66.88"/><path d="M94.33,66.64L94.23,66.43"/><path d="M94.48,66.93L94.56,66.98L94.54,67.04"/><path d="M95.41,67.05L95.48,70.12"/></g></g><g id="Actor_.19"><g style="stroke:#000000;stroke-width:0.123"><path d="M172.48,64.24L172.49,64.24L172.49,64.24"/><path d="M172.49,64.24L172.53,64.24"/><path d="M172.65,64.28L172.59,64.29L172.56,64.28L172.53,64.23"/><path d="M172.59,64.29L172.60,64.23L172.69,64.32L172.72,64.33L172.79,64.31"/><path d="M173.21,68.04L173.30,68.08L173.44,68.11L173.61,68.12L173.80,68.13L173.99,68.12L174.16,68.09L174.30,68.05L174.38,68.01L174.26,68.14L174.19,68.18L174.07,68.21L174.00,68.22L173.75,68.24L173.51,68.22L173.40,68.19L173.36,68.17L173.21,68.04L173.19,68.01L173.18,67.99L173.11,64.37"/><path d="M174.65,64.00L174.36,64.06L173.94,64.11L173.49,64.11L173.15,64.09"/><path d="M172.95,64.34L172.88,64.36L172.90,64.31L173.02,64.39L173.07,64.39L173.13,64.36"/><path d="M173.07,64.39L173.09,64.33L173.21,64.40L173.27,64.41L173.29,64.35L173.43,64.42L173.48,64.42L173.52,64.36"/><path d="M174.55,64.28L174.65,64.31L174.55,64.27L174.53,64.34L174.48,64.35L174.36,64.31L174.34,64.37L174.29,64.38L174.17,64.33L174.14,64.40L174.08,64.40L173.95,64.35L173.92,64.41L173.87,64.42L173.73,64.36L173.70,64.42L173.65,64.42L173.51,64.36L173.48,64.42"/><path d="M173.27,64.41L173.33,64.37"/><path d="M172.72,64.33L172.74,64.27L172.84,64.36L172.88,64.36"/><path d="M174.38,68.01L174.41,67.99L174.41,67.96L174.34,64.37"/><path d="M174.50,63.85L174.45,63.92L174.18,63.88"/><path d="M174.45,63.92L174.45,63.82"/><path d="M174.65,64.31L174.69,64.30L174.71,64.23L174.80,64.27L174.83,64.26L174.84,64.19L174.91,64.22L174.94,64.21L174.94,64.17"/><path d="M174.80,64.27L174.70,64.25"/><path d="M174.91,64.22L174.84,64.21"/></g></g><g id="Actor_.20"><g style="stroke:#000000;stroke-width:0.123"><path d="M125.73,98.38L126.27,122.64L126.06,122.80L125.63,122.94L118.73,124.46L117.95,124.48L116.72,124.04L116.14,123.48L115.76,122.69L115.62,121.77L115.12,100.40L111.69,85.28"/><path d="M112.24,85.44L115.57,100.00L115.65,100.56L116.14,121.93L116.28,122.86L116.66,123.64L117.24,124.20L117.95,124.48"/><path d="M118.66,75.69L119.30,75.88L118.99,75.93L118.95,76.09L119.25,76.38"/><path d="M120.15,76.65L119.68,76.07L119.30,75.88"/><path d="M120.60,119.19L120.95,119.42L121.36,119.33L121.69,118.95L121.81,118.44L121.75,115.97L121.62,115.51L121.27,115.29L120.86,115.38L120.53,115.75L120.41,116.26L120.46,118.74L120.60,119.19"/><path d="M121.06,115.33L121.23,115.81L121.29,118.28L121.18,118.74L120.84,119.16L120.63,119.21"/><path d="M120.67,107.06L120.32,106.83L120.18,106.37L120.13,103.90L120.24,103.39L120.57,103.02L120.99,102.93L121.33,103.15L121.47,103.61L121.53,106.08L121.36,106.65L121.08,106.97L120.67,107.06"/><path d="M120.78,102.97L120.95,103.45L121.01,105.92L120.89,106.44L120.56,106.81L120.36,106.85"/><path d="M125.67,97.81L123.63,88.86"/><path d="M125.01,97.95L125.69,97.85L125.75,98.37L125.08,98.52"/></g></g><g id="Actor_.21"><g style="stroke:#000000;stroke-width:0.123"><path d="M190.26,55.50L190.18,55.55L190.16,55.58L190.14,55.60L190.16,55.64L190.01,55.77L189.97,55.82L190.00,55.86L189.86,56.01L189.84,56.06L189.87,56.11L189.75,56.27L189.73,56.32L189.77,56.38L189.67,56.54L189.66,56.60L189.70,56.65L189.62,56.82L189.62,56.88L189.67,56.93L189.62,57.10L189.62,57.16L189.68,57.21L189.65,57.37L189.66,57.43L189.72,57.48L189.71,57.62L189.72,57.65L189.73,57.68L189.80,57.72L189.81,57.85L189.84,57.90L189.91,57.94L189.94,58.06L189.97,58.09L190.05,58.13L190.10,58.22L190.14,58.25L190.21,58.29L190.26,58.33L190.30,58.36L190.51,58.44"/><path d="M191.40,55.10L191.66,55.17L191.50,55.15L191.40,55.14L191.29,55.15L191.08,55.19L190.91,55.26L190.75,55.35L190.56,55.49L190.39,55.66L190.26,55.83L190.15,56.00L190.08,56.14L190.01,56.30L189.94,56.50L189.91,56.65L189.87,56.86L189.86,57.07L189.87,57.23L189.89,57.43L189.92,57.58L189.98,57.76L190.06,57.93L190.13,58.05L190.24,58.19L190.37,58.31L190.47,58.38L190.57,58.44L190.73,58.50L190.85,58.53L191.01,58.54L191.18,58.53L191.30,58.50L191.47,58.45L191.63,58.37"/><path d="M191.71,58.39L191.34,58.28L190.91,58.06L190.34,57.79L190.72,57.90L190.74,57.86L190.83,57.69L190.89,57.50L190.91,57.36L190.92,57.12L190.93,56.98L190.97,56.80L191.01,56.67L191.08,56.51L191.14,56.39L191.24,56.24L191.37,56.10"/><path d="M190.73,58.50L190.48,58.43"/><path d="M191.40,58.19L191.28,58.11L191.20,58.03L191.11,57.92L191.05,57.82L190.99,57.67L190.95,57.55L190.93,57.42L190.92,57.29"/><path d="M190.91,57.16L190.91,57.25"/><path d="M190.72,57.90L191.11,58.06L191.39,58.18"/><path d="M190.34,57.79L190.38,57.43L190.40,57.10L190.37,56.75L190.31,56.37L190.62,56.15L190.87,55.94L191.08,55.71L191.28,55.46"/><path d="M191.42,56.06L191.44,56.04L191.26,56.19L191.07,56.31"/><path d="M191.39,56.09L191.40,56.07"/><path d="M191.01,56.34L190.69,56.48L190.78,56.68L190.84,56.84L190.88,57.00L190.91,57.13"/><path d="M190.69,56.48L190.31,56.37"/><path d="M191.29,55.46L191.66,55.57L191.63,55.70L191.58,55.84L191.51,55.95L191.42,56.05"/><path d="M190.97,55.11L190.97,55.09L191.01,55.08L191.21,55.09L191.19,55.07L191.29,55.08L191.43,55.11L191.40,55.10"/><path d="M190.75,55.19L190.74,55.15L190.79,55.14L190.99,55.11L190.97,55.09"/><path d="M190.74,55.15L190.77,55.18L190.57,55.24L190.53,55.26L190.55,55.30L190.37,55.38L190.32,55.41L190.34,55.45"/><path d="M190.53,55.26L190.54,55.30"/><path d="M190.32,55.41L190.35,55.45"/><path d="M191.19,55.07L191.19,55.09"/><path d="M191.44,56.04L191.57,55.94L191.67,55.89L191.78,55.84L191.92,55.81L192.07,55.80L192.17,55.81L192.27,55.84L192.40,55.89L192.49,55.95L192.60,56.05L192.69,56.17L192.75,56.27L192.81,56.41L192.85,56.53L192.87,56.66L192.89,56.83L192.88,57.01L192.86,57.14L192.83,57.28L192.77,57.45L192.72,57.57L192.63,57.73L192.56,57.84L192.44,57.97L192.33,58.07L192.19,58.16L192.09,58.21L191.95,58.26L191.80,58.28L191.70,58.28L191.59,58.26L191.46,58.22"/><path d="M191.47,58.22L191.63,58.32L191.72,58.39L192.00,58.27L192.23,58.14"/><path d="M191.40,58.19L191.43,58.20"/><path d="M192.33,58.07L192.36,58.04"/><path d="M191.66,55.57L192.05,55.73L192.33,55.86"/><path d="M192.74,56.23L192.66,56.06L192.64,56.04L192.55,55.97L192.41,55.90"/><path d="M192.44,55.91L192.36,55.75L192.29,55.64L192.21,55.53L192.13,55.44L191.99,55.33L191.89,55.26L191.78,55.21L191.66,55.17"/><path d="M192.39,55.89L192.40,55.89"/><path d="M191.47,56.01L191.44,56.04"/><path d="M191.41,56.06L191.42,56.05"/><path d="M192.78,56.34L192.74,56.23"/></g></g><g id="Actor_.22"><g style="stroke:#000000;stroke-width:0.123"><path d="M207.41,52.11L207.56,52.32L207.56,52.75L207.37,53.14L207.04,53.34L207.04,53.34"/><path d="M207.04,53.34L207.04,53.34"/></g></g><g id="Actor_.23"><g style="stroke:#000000;stroke-width:0.123"><path d="M91.63,64.63L92.13,64.25L92.69,64.16L102.22,64.25L102.77,64.35"/><path d="M92.13,64.25L164.76,48.99L163.51,51.57L163.52,55.76"/></g></g><g><g><path style="stroke:#000000;stroke-width:0.210;stroke-dasharray:2.2 2.2" d="M208.60,58.12L228.93,63.95"/></g></g><g><g/></g><g><g><path style="stroke:#000000;stroke-width:0.210;stroke-dasharray:2.2 2.2" d="M207.59,52.81L276.93,72.59"/></g></g><g id="PMI3.0"><g><path style="stroke:#000000;stroke-width:0.281" d="M239.11,31.64L239.11,37.29"/></g><g><path style="fill:#000000" d="M238.11,37.29L240.11,37.29L239.11,39.29z"/></g><g><path style="fill:#ffffff" d="M230.76,31.64L247.47,31.64L247.47,26.56L230.76,26.56z"/><path style="stroke:#000000;stroke-width:0.280;stroke-opacity:0.98" d="M230.76,31.64L247.47,31.64L247.47,26.56L230.76,26.56z"/><text xml:space="preserve" fill="#000000" stroke-width="0" x="231.39" y="30.21" font-size="2.79" opacity="1.00" font-family="Microsoft Sans Serif">700009891</text></g></g><g id="PMI4.0"><g><path style="stroke:#000000;stroke-width:0.281" d="M201.20,36.23L201.35,38.74"/></g><g><path style="fill:#000000" d="M200.35,38.80L202.35,38.68L201.47,40.74z"/></g><g><path style="fill:#ffffff" d="M192.69,36.23L209.40,36.23L209.40,31.15L192.69,31.15z"/><path style="stroke:#000000;stroke-width:0.280;stroke-opacity:0.98" d="M192.69,36.23L209.40,36.23L209.40,31.15L192.69,31.15z"/><text xml:space="preserve" fill="#000000" stroke-width="0" x="193.32" y="34.80" font-size="2.79" opacity="1.00" font-family="Microsoft Sans Serif">700009882</text></g></g><g id="PMI12.0"><g><path style="stroke:#000000;stroke-width:0.281" d="M156.57,37.04L156.60,49.74"/></g><g><path style="fill:#000000" d="M155.60,49.74L157.60,49.73L156.60,51.74z"/></g><g><path style="fill:#ffffff" d="M147.87,37.04L165.27,37.04L165.27,31.96L147.87,31.96z"/><path style="stroke:#000000;stroke-width:0.280;stroke-opacity:0.98" d="M147.87,37.04L165.27,37.04L165.27,31.96L147.87,31.96z"/><text xml:space="preserve" fill="#000000" stroke-width="0" x="148.50" y="35.61" font-size="3.09" opacity="1.00" font-family="Microsoft Sans Serif">7000098G1</text></g></g><g id="PMI10.0"><g><path style="stroke:#000000;stroke-width:0.281" d="M171.24,45.14L170.93,49.45"/></g><g><path style="fill:#000000" d="M169.94,49.38L171.93,49.52L170.79,51.45z"/></g><g><path style="fill:#ffffff" d="M162.99,45.14L179.87,45.14L179.87,40.06L162.99,40.06z"/><path style="stroke:#000000;stroke-width:0.280;stroke-opacity:0.98" d="M162.99,45.14L179.87,45.14L179.87,40.06L162.99,40.06z"/><text xml:space="preserve" fill="#000000" stroke-width="0" x="163.62" y="43.71" font-size="3.09" opacity="1.00" font-family="Microsoft Sans Serif">7000098F1</text></g></g><g id="PMI9.0"><g><path style="stroke:#000000;stroke-width:0.281" d="M138.88,46.49L138.92,50.32"/></g><g><path style="fill:#000000" d="M137.92,50.33L139.92,50.30L138.95,52.32z"/></g><g><path style="fill:#ffffff" d="M130.32,46.49L147.39,46.49L147.39,41.41L130.32,41.41z"/><path style="stroke:#000000;stroke-width:0.280;stroke-opacity:0.98" d="M130.32,46.49L147.39,46.49L147.39,41.41L130.32,41.41z"/><text xml:space="preserve" fill="#000000" stroke-width="0" x="130.95" y="45.06" font-size="3.09" opacity="1.00" font-family="Microsoft Sans Serif">3K0011922</text></g></g><g id="PMI2.0"><g><path style="stroke:#000000;stroke-width:0.281" d="M222.40,72.03L225.57,72.03L227.78,67.70"/></g><g><path style="fill:#000000" d="M228.67,68.16L226.88,67.25L228.68,65.92z"/></g><g><path style="fill:#ffffff" d="M204.57,74.57L223.03,74.57L223.03,69.49L204.57,69.49z"/><path style="stroke:#000000;stroke-width:0.280;stroke-opacity:0.98" d="M204.57,74.57L223.03,74.57L223.03,69.49L204.57,69.49z"/><text xml:space="preserve" fill="#000000" stroke-width="0" x="205.20" y="73.14" font-size="2.79" opacity="1.00" font-family="Microsoft Sans Serif">8057006047</text></g></g><g id="PMI13.0"><g><path style="stroke:#000000;stroke-width:0.281" d="M172.16,148.64L169.02,148.51"/></g><g><path style="fill:#000000" d="M169.07,147.51L168.98,149.51L167.03,148.42z"/></g><g><path style="fill:#ffffff" d="M172.17,151.52L188.01,151.52L188.01,146.44L172.17,146.44z"/><path style="stroke:#000000;stroke-width:0.280;stroke-opacity:0.98" d="M172.17,151.52L188.01,151.52L188.01,146.44L172.17,146.44z"/><text xml:space="preserve" fill="#000000" stroke-width="0" x="172.80" y="150.09" font-size="3.09" opacity="1.00" font-family="Microsoft Sans Serif">7000098I2</text></g></g><g id="PMI7.0"><g><path style="stroke:#000000;stroke-width:0.281" d="M184.88,72.73L184.94,69.66"/></g><g><path style="fill:#000000" d="M185.94,69.68L183.94,69.64L184.97,67.66z"/></g><g><path style="fill:#ffffff" d="M176.22,77.81L193.44,77.81L193.44,72.73L176.22,72.73z"/><path style="stroke:#000000;stroke-width:0.280;stroke-opacity:0.98" d="M176.22,77.81L193.44,77.81L193.44,72.73L176.22,72.73z"/><text xml:space="preserve" fill="#000000" stroke-width="0" x="176.85" y="76.38" font-size="3.09" opacity="1.00" font-family="Microsoft Sans Serif">7000098C2</text></g></g><g id="PMI12.1"><g><path style="stroke:#000000;stroke-width:0.281" d="M114.96,54.59L114.94,57.26"/></g><g><path style="fill:#000000" d="M113.94,57.25L115.94,57.27L114.92,59.26z"/></g><g><path style="fill:#ffffff" d="M106.29,54.59L123.69,54.59L123.69,49.51L106.29,49.51z"/><path style="stroke:#000000;stroke-width:0.280;stroke-opacity:0.98" d="M106.29,54.59L123.69,54.59L123.69,49.51L106.29,49.51z"/><text xml:space="preserve" fill="#000000" stroke-width="0" x="106.92" y="53.16" font-size="3.09" opacity="1.00" font-family="Microsoft Sans Serif">7000098G1</text></g></g><g id="PMI14.0"><g><path style="stroke:#000000;stroke-width:0.281" d="M67.08,60.42L70.37,60.42"/></g><g><path style="fill:#000000" d="M70.37,61.42L70.37,59.42L72.37,60.42z"/></g><g><path style="fill:#ffffff" d="M49.86,62.96L67.09,62.96L67.09,57.88L49.86,57.88z"/><path style="stroke:#000000;stroke-width:0.280;stroke-opacity:0.98" d="M49.86,62.96L67.09,62.96L67.09,57.88L49.86,57.88z"/><text xml:space="preserve" fill="#000000" stroke-width="0" x="50.49" y="61.53" font-size="3.09" opacity="1.00" font-family="Microsoft Sans Serif">7000098H2</text></g></g><g id="PMI8.0"><g><path style="stroke:#000000;stroke-width:0.281" d="M123.28,128.89L123.30,125.24"/></g><g><path style="fill:#000000" d="M124.30,125.24L122.30,125.23L123.32,123.24z"/></g><g><path style="fill:#ffffff" d="M114.66,133.97L131.89,133.97L131.89,128.89L114.66,128.89z"/><path style="stroke:#000000;stroke-width:0.280;stroke-opacity:0.98" d="M114.66,133.97L131.89,133.97L131.89,128.89L114.66,128.89z"/><text xml:space="preserve" fill="#000000" stroke-width="0" x="115.29" y="132.54" font-size="3.09" opacity="1.00" font-family="Microsoft Sans Serif">7000098D3</text></g></g><g id="PMI5.0"><g><path style="stroke:#000000;stroke-width:0.281" d="M86.35,138.98L90.05,139.10"/></g><g><path style="fill:#000000" d="M90.02,140.10L90.08,138.10L92.05,139.16z"/></g><g><path style="fill:#ffffff" d="M69.30,141.26L86.36,141.26L86.36,136.18L69.30,136.18z"/><path style="stroke:#000000;stroke-width:0.280;stroke-opacity:0.98" d="M69.30,141.26L86.36,141.26L86.36,136.18L69.30,136.18z"/><text xml:space="preserve" fill="#000000" stroke-width="0" x="69.93" y="139.83" font-size="3.09" opacity="1.00" font-family="Microsoft Sans Serif">7000098A1</text></g></g><g id="PMI15.0"><g><path style="stroke:#000000;stroke-width:0.281" d="M228.37,96.28L231.66,96.15"/></g><g><path style="fill:#000000" d="M231.69,97.15L231.62,95.15L233.66,96.08z"/></g><g><path style="fill:#ffffff" d="M211.32,99.14L228.37,99.14L228.37,94.06L211.32,94.06z"/><path style="stroke:#000000;stroke-width:0.280;stroke-opacity:0.98" d="M211.32,99.14L228.37,99.14L228.37,94.06L211.32,94.06z"/><text xml:space="preserve" fill="#000000" stroke-width="0" x="211.95" y="97.71" font-size="3.09" opacity="1.00" font-family="Microsoft Sans Serif">7000038X4</text></g></g><g id="PMI6.0"><g><path style="stroke:#000000;stroke-width:0.281" d="M85.81,74.93L88.31,74.91"/></g><g><path style="fill:#000000" d="M88.32,75.91L88.31,73.91L90.32,74.89z"/></g><g><path style="fill:#ffffff" d="M68.76,77.54L85.81,77.54L85.81,72.46L68.76,72.46z"/><path style="stroke:#000000;stroke-width:0.280;stroke-opacity:0.98" d="M68.76,77.54L85.81,77.54L85.81,72.46L68.76,72.46z"/><text xml:space="preserve" fill="#000000" stroke-width="0" x="69.39" y="76.11" font-size="3.09" opacity="1.00" font-family="Microsoft Sans Serif">7000098B1</text></g></g><g id="PMI1.0"><g><path style="stroke:#000000;stroke-width:0.281" d="M277.52,67.01L277.53,70.15"/></g><g><path style="fill:#000000" d="M276.53,70.15L278.53,70.15L277.54,72.15z"/></g><g><path style="fill:#ffffff" d="M268.29,67.01L286.75,67.01L286.75,61.93L268.29,61.93z"/><path style="stroke:#000000;stroke-width:0.280;stroke-opacity:0.98" d="M268.29,67.01L286.75,67.01L286.75,61.93L268.29,61.93z"/><text xml:space="preserve" fill="#000000" stroke-width="0" x="268.92" y="65.58" font-size="2.79" opacity="1.00" font-family="Microsoft Sans Serif">8057037018</text></g></g><g/><g id="paperID" visibility="hidden" opacity="0.00" transform="scale(0.000100)"><path style="stroke:#000000;stroke-width:0.500;fill:#e6e6e6;fill-rule:evenodd" d="M-2000.00,-2000.00L2297.00,-2000.00L2297.00,2210.00L-2000.00,2210.00zM0.00,0.00L297.00,0.00L297.00,210.00L0.00,210.00z"/><path style="fill:#000000;fill-opacity:0.118" d="M3.00,210.00L297.00,210.00L297.00,3.00L300.00,3.00L300.00,213.00L3.00,213.00z"/></g><g id="hotspot.0" onmouseover="ShowHotSpot(evt,'0')" onmouseout="HideHotSpot(evt,'0')" onmousemove="ShowToolTip(evt,'0',&quot;3dp2688512&quot;)" opacity="0"><path style="fill:#00ff00;fill-rule:evenodd" d="M192.70,56.23L192.71,57.71L192.09,58.44L190.22,58.45L189.70,57.62L189.70,56.32L190.51,55.51L191.90,55.42zM209.68,59.78L210.50,61.07L210.24,62.01L209.36,62.75L207.80,62.73L207.25,61.67L207.28,60.40L208.53,59.46L209.17,59.45zM286.95,62.16L286.93,67.15L277.64,67.31L277.64,70.12L278.54,70.27L278.18,71.08L279.65,72.43L279.64,73.63L279.38,74.18L278.48,74.63L277.17,74.64L276.37,73.55L274.76,73.00L274.75,71.72L276.94,71.74L276.97,71.11L276.60,70.29L277.18,70.11L277.21,67.31L268.19,67.15L268.28,62.00L286.68,61.89zM192.98,64.33L192.97,65.54L191.81,66.53L190.54,66.50L190.00,65.96L189.99,63.90L190.97,63.25L191.89,63.25z"/></g><g id="hotspot.1" onmouseover="ShowHotSpot(evt,'1')" onmouseout="HideHotSpot(evt,'1')" onmousemove="ShowToolTip(evt,'1',&quot;3dp2726643&quot;)" opacity="0"><path style="fill:#00ff00;fill-rule:evenodd" d="M180.03,40.29L180.01,45.28L171.55,45.46L171.19,46.16L171.10,45.44L162.89,45.28L162.98,40.13L179.76,40.02zM170.29,50.68L170.19,49.79L170.81,49.58L171.03,46.28L171.19,46.16L171.29,49.58L171.88,49.77L171.26,50.83L171.58,51.14L177.30,52.74L177.26,52.99L163.72,55.83L163.53,54.09L163.51,51.73L164.78,49.19zM103.05,64.62L108.72,66.24L110.66,67.03L97.64,69.83L95.67,70.13L94.95,66.24L93.88,65.42L91.95,64.87L91.89,64.62L92.41,64.34L99.54,64.35z"/></g><g id="hotspot.2" onmouseover="ShowHotSpot(evt,'2')" onmouseout="HideHotSpot(evt,'2')" onmousemove="ShowToolTip(evt,'2',&quot;3dp2726644&quot;)" opacity="0"><path style="fill:#00ff00;fill-rule:evenodd" d="M165.45,32.19L165.43,37.18L156.68,37.34L156.70,49.85L157.31,50.07L157.26,50.59L158.94,50.40L164.59,49.19L163.51,51.73L163.53,55.80L163.21,56.02L111.87,66.78L110.32,66.80L103.05,64.62L93.49,64.08L155.98,50.92L155.89,50.07L156.21,49.84L156.25,37.34L147.77,37.18L147.86,32.03L165.18,31.92zM123.87,49.74L123.85,54.73L115.10,54.89L114.93,57.17L114.67,54.89L106.19,54.73L106.28,49.58L123.60,49.47zM114.04,57.57L115.77,57.61L115.79,57.94L114.93,59.31z"/></g><g id="hotspot.3" onmouseover="ShowHotSpot(evt,'3')" onmouseout="HideHotSpot(evt,'3')" onmousemove="ShowToolTip(evt,'3',&quot;3dp2726645&quot;)" opacity="0"><path style="fill:#00ff00;fill-rule:evenodd" d="M165.70,60.02L166.51,61.10L167.85,115.38L168.68,147.84L168.92,147.84L169.12,148.39L171.48,148.78L169.13,148.87L168.62,149.67L168.67,155.71L167.02,155.63L164.35,154.79L161.82,154.80L152.90,156.98L152.92,159.40L151.63,159.41L148.14,158.31L147.85,157.79L145.71,70.02L145.63,62.20L160.47,58.95L161.64,58.95zM188.13,146.67L188.11,151.66L172.07,151.66L171.88,149.15L171.48,148.78L171.91,148.69L172.16,146.51L187.86,146.40zM156.24,78.93L157.59,80.28L158.40,82.44L158.41,85.24L157.59,87.39L156.13,89.44L154.28,90.56L151.61,90.58L151.29,90.36L151.38,80.10L153.18,78.93L153.98,78.66L155.71,78.65zM157.35,97.80L158.40,99.45L158.93,101.34L158.67,104.13L157.47,106.71L156.26,107.93L154.81,108.91L151.91,108.91L151.54,98.89L153.52,97.36L154.80,97.02L155.98,97.01zM157.05,115.65L158.16,116.70L159.21,118.89L159.22,122.23L158.67,123.84L157.48,125.62L155.36,127.28L152.99,127.56L152.46,127.26L152.19,124.02L152.20,117.10L154.25,115.64L156.24,115.37zM157.86,134.28L158.94,135.36L159.75,137.52L159.75,140.04L159.21,141.93L157.76,144.26L155.62,145.63L152.96,145.66L152.64,145.44L152.73,135.45L154.26,134.28L155.61,133.74L156.79,133.73z"/></g><g id="hotspot.4" onmouseover="ShowHotSpot(evt,'4')" onmouseout="HideHotSpot(evt,'4')" onmousemove="ShowToolTip(evt,'4',&quot;3dp2742539&quot;)" opacity="0"><path style="fill:#00ff00;fill-rule:evenodd" d="M67.17,58.11L67.31,60.40L70.38,60.37L70.66,59.74L71.17,60.04L72.45,60.03L74.69,59.75L93.88,65.42L94.95,66.24L95.49,68.67L95.42,70.31L90.62,71.45L90.65,79.02L90.38,78.98L90.09,77.04L89.81,69.22L75.49,64.91L74.94,64.38L74.73,63.24L72.27,62.19L70.38,61.65L70.11,60.84L67.31,60.83L67.15,63.10L49.76,63.10L49.85,57.95L66.90,57.84z"/></g><g id="hotspot.5" onmouseover="ShowHotSpot(evt,'5')" onmouseout="HideHotSpot(evt,'5')" onmousemove="ShowToolTip(evt,'5',&quot;prd2219603&quot;)" opacity="0"><path style="fill:#00ff00;fill-rule:evenodd" d="M261.00,63.00L262.11,63.51L262.35,81.63L262.63,114.94L259.03,123.76L256.59,124.02L253.09,124.84L251.72,124.93L251.55,119.97L251.01,85.95L250.53,84.54L250.20,84.30L242.01,85.95L237.95,87.02L237.22,87.91L237.24,104.31L237.51,120.78L237.43,128.35L233.90,129.14L233.09,129.68L231.82,129.70L231.30,99.18L231.04,96.47L229.77,96.39L231.04,96.04L230.94,67.32L254.70,62.19L258.03,62.19zM228.50,96.31L229.77,96.39L228.50,96.74L228.34,99.28L211.22,99.28L211.31,94.13L228.34,94.04zM252.04,65.49L252.31,65.13L252.62,65.13L252.54,66.28L252.08,66.26zM253.00,73.42L252.59,74.47L252.28,74.46L252.37,73.31L252.91,73.25z"/></g><g id="hotspot.6" onmouseover="ShowHotSpot(evt,'6')" onmouseout="HideHotSpot(evt,'6')" onmousemove="ShowToolTip(evt,'6',&quot;A-0003803-01&quot;)" opacity="0"><path style="fill:#00ff00;fill-rule:evenodd" d="M229.97,61.63L230.26,62.57L229.60,63.01L229.40,66.59L228.79,66.79L228.63,68.22L227.23,67.57L227.23,67.16L228.36,66.36L228.32,63.01L227.70,62.80L227.76,61.70L227.97,61.38L229.71,61.36zM174.89,64.31L174.55,64.63L174.34,68.23L173.15,68.23L172.93,64.62L172.62,64.33L174.64,64.05zM223.23,69.72L223.37,72.01L225.70,71.96L225.66,72.23L223.37,72.44L223.21,74.71L204.47,74.71L204.56,69.56L222.96,69.45z"/></g><g id="hotspot.7" onmouseover="ShowHotSpot(evt,'7')" onmouseout="HideHotSpot(evt,'7')" onmousemove="ShowToolTip(evt,'7',&quot;3dp2715071&quot;)" opacity="0"><path style="fill:#00ff00;fill-rule:evenodd" d="M230.66,31.78L230.75,26.63L247.51,26.54L247.51,31.78L239.30,31.94L239.13,37.19L238.87,31.94zM238.23,37.59L239.93,37.59L239.13,39.32zM249.66,39.78L250.22,40.30L250.13,47.90L213.67,55.56L213.50,48.67L212.68,48.14L209.18,48.17L207.26,48.77L206.99,49.85L187.20,54.09L184.03,54.11L183.24,53.81L182.34,53.81L181.23,54.33L174.77,55.97L174.31,56.59L174.33,63.90L174.01,64.12L166.69,65.55L166.51,61.10L165.70,60.02L161.64,58.95L160.47,58.95L145.63,62.20L145.72,70.03L119.44,75.70L117.36,76.00L101.98,71.36L92.74,71.08L92.69,70.82L244.99,38.70L245.87,38.69zM177.60,59.48L177.18,60.59L176.68,60.69L176.77,59.30L177.31,58.96z"/></g><g id="hotspot.8" onmouseover="ShowHotSpot(evt,'8')" onmouseout="HideHotSpot(evt,'8')" onmousemove="ShowToolTip(evt,'8',&quot;3dp2715078&quot;)" opacity="0"><path style="fill:#00ff00;fill-rule:evenodd" d="M192.59,36.37L192.68,31.22L209.44,31.13L209.44,36.37L201.50,36.53L201.52,38.78L202.14,38.99L202.19,39.31L201.83,39.88L201.77,40.42L203.20,40.30L205.38,40.86L207.79,41.69L208.63,43.01L208.61,46.34L203.75,47.42L201.78,47.72L201.62,43.81L199.98,43.02L197.46,42.29L197.44,41.40L201.08,40.67L200.79,39.78L200.46,38.97L201.04,38.79L201.07,36.53z"/></g><g id="hotspot.9" onmouseover="ShowHotSpot(evt,'9')" onmouseout="HideHotSpot(evt,'9')" onmousemove="ShowToolTip(evt,'9',&quot;3dp2725762&quot;)" opacity="0"><path style="fill:#00ff00;fill-rule:evenodd" d="M102.24,82.71L103.86,145.89L104.14,167.59L99.45,168.57L96.82,168.59L93.24,167.31L93.06,163.44L91.17,85.68L91.08,79.45L91.98,79.46zM91.74,139.17L91.74,139.47L90.82,139.97L89.99,140.05L90.28,138.58L90.61,138.55zM86.48,138.97L89.84,139.14L86.48,139.40L86.32,141.40L69.20,141.40L69.29,136.25L86.32,136.16z"/></g><g id="hotspot.10" onmouseover="ShowHotSpot(evt,'10')" onmouseout="HideHotSpot(evt,'10')" onmousemove="ShowToolTip(evt,'10',&quot;3dp2726635&quot;)" opacity="0"><path style="fill:#00ff00;fill-rule:evenodd" d="M101.98,71.36L129.24,79.47L130.07,79.99L130.32,82.44L130.24,87.85L128.34,88.40L126.75,88.38L126.21,88.95L124.82,89.20L121.39,88.40L91.14,79.23L90.82,79.01L90.62,78.13L90.62,71.45L91.62,71.10zM90.11,75.12L88.48,76.07L88.20,75.44L85.94,75.41L85.78,77.68L68.66,77.68L68.75,72.53L85.78,72.44L85.94,74.98L88.19,74.96L88.40,74.34L88.72,74.29z"/></g><g id="hotspot.11" onmouseover="ShowHotSpot(evt,'11')" onmouseout="HideHotSpot(evt,'11')" onmousemove="ShowToolTip(evt,'11',&quot;3dp2726636&quot;)" opacity="0"><path style="fill:#00ff00;fill-rule:evenodd" d="M213.50,48.67L213.50,56.09L213.27,56.40L211.84,56.86L211.88,62.84L211.25,63.29L198.35,66.05L185.55,68.67L185.64,69.21L185.97,69.75L185.03,70.01L185.03,72.55L193.26,72.69L193.53,72.96L193.51,77.95L176.12,77.95L176.21,72.80L184.60,72.55L184.57,70.02L183.94,69.74L184.36,69.02L184.33,68.42L182.43,67.86L181.88,67.06L180.59,64.03L180.29,63.79L179.10,63.81L176.40,64.35L175.12,64.37L174.60,64.08L174.33,61.11L174.31,56.59L174.77,55.97L181.23,54.33L182.34,53.81L183.24,53.81L184.03,54.11L187.20,54.09L206.99,49.85L207.26,48.77L209.18,48.17L212.68,48.14zM192.70,56.23L192.71,57.71L192.09,58.44L190.22,58.45L189.70,57.62L189.70,56.32L190.51,55.51L191.90,55.42zM177.60,59.48L177.18,60.59L176.68,60.69L176.77,59.30L177.31,58.96zM209.68,59.78L210.50,61.07L210.24,62.01L209.36,62.75L207.80,62.73L207.25,61.67L207.28,60.40L208.53,59.46L209.17,59.45zM192.98,64.33L192.97,65.54L191.81,66.53L190.54,66.50L190.00,65.96L189.99,63.90L190.97,63.25L191.89,63.25z"/></g><g id="hotspot.12" onmouseover="ShowHotSpot(evt,'12')" onmouseout="HideHotSpot(evt,'12')" onmousemove="ShowToolTip(evt,'12',&quot;3dp2726637&quot;)" opacity="0"><path style="fill:#00ff00;fill-rule:evenodd" d="M119.81,76.50L119.27,76.52L118.12,76.21L118.08,75.94L118.99,75.94zM122.49,88.65L123.59,89.17L125.73,98.10L126.19,122.95L123.70,123.46L123.46,123.70L124.13,125.10L122.38,125.10L123.01,123.71L118.89,124.56L117.62,124.57L116.01,123.47L115.73,122.41L115.20,102.15L114.65,98.38L111.94,86.50L111.86,85.67L112.48,85.66zM123.47,128.71L131.70,128.85L131.97,129.12L131.95,134.11L114.56,134.11L114.65,128.96L123.04,128.71L123.30,125.62zM120.77,106.78L120.25,106.86L120.34,103.28L120.86,103.20zM120.61,115.70L121.13,115.62L121.05,119.19L120.60,119.19z"/></g><g id="hotspot.13" onmouseover="ShowHotSpot(evt,'13')" onmouseout="HideHotSpot(evt,'13')" onmousemove="ShowToolTip(evt,'13',&quot;3dp2726642&quot;)" opacity="0"><path style="fill:#00ff00;fill-rule:evenodd" d="M130.22,46.63L130.31,41.48L147.34,41.39L147.34,46.63L139.13,46.79L138.96,50.15L138.70,46.79zM138.07,50.56L139.76,50.55L139.40,51.68L140.22,51.67L141.57,51.39L143.82,51.39L147.59,52.48L147.56,52.72L129.16,56.62L128.96,55.72L128.88,54.36L131.58,53.55L138.71,51.93zM130.23,73.54L130.75,73.24L144.82,70.29L145.71,70.27L145.71,75.53L142.92,75.42L138.04,76.48L136.42,78.64L134.83,79.21L133.27,79.22L130.58,78.40z"/></g></g></svg>
