<?xml version="1.0" encoding="UTF-8" standalone="no"?>
<svg xmlns="http://www.w3.org/2000/svg" xmlns:xlink="http://www.w3.org/1999/xlink" width="297.000mm" height="210.000mm" viewBox="0.000000 0.000000 297.000000 210.000000" stroke-linejoin="round" stroke-linecap="round" fill="none" fill-rule="evenodd"><desc>Composer Export</desc><script type="text/ecmascript"><![CDATA[
if(typeof(top) != "undefined")
{
	top.ShowPaper = ShowPaper;
}
function ShowHotSpot(evt,hotspotid)
{
	var svgDocument = evt.target.ownerDocument;
	var strId = "hotspot."+hotspotid;
	var hotspot = svgDocument.getElementById(strId);
	if(hotspot)
		hotspot.setAttribute("opacity",".5");
}
function HideHotSpot(evt,hotspotid)
{
	var svgDocument = evt.target.ownerDocument;
	var strId = "hotspot."+hotspotid;
	var hotspot = svgDocument.getElementById(strId);
	if(hotspot)
		hotspot.setAttribute("opacity","0");

	var toolTip = svgDocument.getElementById('ToolTip');
	if(toolTip)
		toolTip.setAttribute("visibility","hidden");
}
function ShowToolTip(evt,hotspotid,strTooltip)
{
	if(strTooltip=="")
	return;

	// change text
	var svgDocument = evt.target.ownerDocument;
	var tiptext = svgDocument.getElementById('ToolTipText');
	if( !tiptext )
	return;
	tiptext.firstChild.nodeValue = " " + strTooltip + "  " ;

	// show tooltip before, else some refresh issue

	var toolTip = svgDocument.getElementById('ToolTip');
	if(!toolTip)
	return;

	toolTip.setAttribute("visibility","visible");
	toolTip.setAttribute("opacity",".95");

	// move tooltip
	// get viewbox

	var root = svgDocument.documentElement;
	var vbox = (root.getAttribute("viewBox")).split(' ');
	var x0 = parseFloat(vbox[0]);
	var y0 = parseFloat(vbox[1]);
	var vboxW = parseFloat(vbox[2]);
	var vboxH = parseFloat(vbox[3]);

	// get default width of svg

	var strW = root.getAttribute("width");
	var svgW = parseFloat(strW);
	if(strW.indexOf('mm') != -1)
	svgW *= 3.779;

	var strH = root.getAttribute("height");
	var svgH = parseFloat(strH);
	if(strH.indexOf('mm') != -1)
	svgH *= 3.779;  	// 96 dpi  -> 96/25.4 = 3.779

	// update the viewbox / width / height if svg is embedded in html with zoom fit all
	var realx0 = x0;
	var realy0 = y0;
	var realvboxW = vboxW;
	var realvboxH = vboxH;
	var realsvgW = svgW;
	var realsvgH = svgH;

	if ((typeof(top) == "undefined") || (typeof(top.svgctl1) != "undefined")) // embedded in html
	{
		// get window size in pxl

		svgW = window.innerWidth;
		svgH = window.innerHeight;

		// calculate real viewbox

		realsvgW = svgW;
		realsvgH = svgH;
		if((svgW / svgH) > (vboxW / vboxH))
		{
			realvboxW = (vboxH * svgW) / svgH;
			realvboxH = vboxH;
			realx0 = x0 - (realvboxW - vboxW)/2 ;
		}
		else
		{
			realvboxH = (vboxW * svgH) / svgW;
			realvboxW = vboxW;
			realy0 = y0 - (realvboxH - vboxH)/2 ;
		}
	}

	// get user zoom/pan

	var newScale = root.currentScale;
	var translation = root.currentTranslate;

	// transform pxl to user unit

	var xPos = (((evt.clientX+10- translation.x)/newScale) * realvboxW)/realsvgW  + realx0 ;
	var yPos = (((evt.clientY+5- translation.y)/newScale) * realvboxH)/ realsvgH  + realy0 ;
	var scaleForWidth = ( (1 / newScale) * realvboxH) / realsvgH;

	// move tooltip

	toolTip.setAttribute("transform", "translate(" + xPos + "," + yPos + ")" );

	// resize tooltip

	var fontsize = 12;
	tiptext.setAttribute("font-size",fontsize*scaleForWidth);
	tiptext.setAttribute("y", fontsize*scaleForWidth);
	var tipBG = svgDocument.getElementById('ToolTipBG');
	var outline = tiptext.getBBox();
	if(tipBG)
	{
		tipBG.setAttribute("stroke-width", 1*scaleForWidth);
		tipBG.setAttribute("width", Number(outline.width) );
		tipBG.setAttribute("height", Number(outline.height) + fontsize*.5*scaleForWidth );
	}
	var ToolTipShadow = svgDocument.getElementById('ToolTipShadow');
	if(ToolTipShadow)
	{
		ToolTipShadow.setAttribute("width", Number(outline.width) );
		ToolTipShadow.setAttribute("height", Number(outline.height) + fontsize*.5*scaleForWidth );
		ToolTipShadow.setAttribute("x", 3*scaleForWidth);
		ToolTipShadow.setAttribute("y", 3*scaleForWidth);
	}
}
function ShowPaper()
{
  var svgDocument = getDocument();
  var paper = svgDocument.getElementById("paperID");
  if(paper)
  {
    paper.setAttribute("transform","scale(1)");
    paper.setAttribute("opacity","1");
    paper.setAttribute("visibility","visible");
  }
  var svg = svgDocument.getRootElement();
  if(svg)
  {
    svg.setAttribute("width","307.000mm");
    svg.setAttribute("height","220.000mm");
    svg.setAttribute("viewBox","-5.000000 -5.000000 307.000000 220.000000");
  }
}
]]></script><defs/><g><path style="fill:#ffffff" d="M296.97,209.93L0.07,209.93L0.07,0.07L296.97,0.07z"/><path style="fill:#007f80" d="M44.60,194.88L44.57,195.19L44.25,195.42L43.83,195.37L42.57,194.34L41.99,194.35L40.21,195.59L38.49,196.65L38.09,196.62L34.83,193.88L34.32,193.60L34.24,193.15L38.84,189.95L39.32,189.85z"/><path style="fill:#ff0000" d="M73.74,153.72L77.51,156.43L78.08,157.32L77.22,158.06L77.14,158.51L77.86,159.12L77.64,159.43L75.98,160.79L75.23,160.98L66.24,153.95L66.15,153.47L67.67,153.22L72.24,153.22z"/><path style="fill:#000080" d="M238.36,61.71L238.40,62.00L237.54,62.70L236.34,62.70L223.28,57.50L223.63,56.94L218.67,54.96L218.07,55.22L216.89,54.96L205.16,50.20L205.16,49.81L206.09,49.19L206.66,49.20z"/><path style="fill:#807f01" d="M239.84,56.45L241.88,57.44L241.35,59.75L209.34,47.30L209.41,45.80L209.59,44.96L209.89,44.94z"/><path style="fill:#00fdff" d="M237.88,20.03L238.84,20.01L242.58,21.04L244.07,21.63L244.35,21.55L256.05,25.28L259.53,26.62L259.82,26.54L264.29,28.26L264.80,28.77L265.53,28.75L266.80,29.49L266.79,30.60L265.69,30.77L264.78,30.78L233.78,20.61L233.78,19.80L234.52,19.53L236.86,19.53z"/><path style="fill:#0000ff" d="M97.93,160.20L98.70,161.06L89.47,167.57L88.95,167.72L77.86,159.12L77.14,158.51L77.22,158.06L78.08,157.32L78.74,156.55L78.74,155.20L78.24,154.46L71.00,148.98L69.75,148.48L67.18,148.48L66.17,148.72L63.25,150.06L62.51,150.26L53.27,142.97L53.19,142.52L53.70,142.21L54.78,142.35L55.03,141.33L64.79,135.51z"/><path style="fill:#7f0080" d="M214.44,56.94L214.67,57.30L210.90,59.79L210.90,60.17L215.14,61.95L216.31,61.92L220.06,59.41L220.63,59.42L231.86,63.93L234.12,65.03L223.07,72.93L221.87,72.92L190.11,59.25L190.11,58.98L201.60,51.93L202.18,51.93z"/><path style="fill:#008001" d="M230.89,43.51L230.90,43.78L228.02,45.71L233.34,47.74L234.51,47.71L237.02,45.95L237.59,45.95L250.58,50.73L250.62,51.03L244.76,55.23L244.33,55.23L212.87,43.24L212.56,42.96L215.40,41.06L218.56,39.22L219.40,39.22z"/><path style="fill:#a4c8f0" d="M40.57,173.67L41.33,174.65L43.34,176.14L46.86,179.39L47.05,180.17L47.83,180.17L48.57,180.88L50.34,182.39L50.33,182.73L48.19,184.39L47.48,184.38L42.98,187.42L42.58,187.39L31.08,176.64L31.00,176.19L38.00,171.64L38.33,171.65z"/><path style="fill:#fffe02" d="M185.75,99.13L185.74,99.40L171.25,109.66L170.51,109.85L136.98,91.67L136.99,91.40L152.19,82.14z"/><path style="fill:#800000" d="M253.30,38.00L259.32,40.20L253.54,49.05L248.82,47.48L240.08,44.21L240.09,43.84L241.37,41.95L235.26,39.70L233.84,41.82L233.10,41.76L221.79,37.56L221.89,36.84L227.38,29.01z"/><path style="fill:#01ff02" d="M219.18,75.15L219.41,75.50L207.32,84.13L206.42,84.15L173.91,69.23L173.98,68.78L186.39,61.16L186.97,61.16z"/><path style="fill:#01ff02" d="M203.20,86.65L203.22,86.95L190.11,96.35L189.21,96.37L156.27,79.87L156.22,79.65L170.15,71.17z"/><path style="fill:#01ff02" d="M166.31,112.81L166.31,113.15L150.24,124.56L149.33,124.53L116.05,104.64L116.04,104.11L132.63,94.11z"/><path style="fill:#01ff02" d="M144.85,127.78L145.09,128.13L127.00,141.00L126.36,141.03L92.68,118.78L92.68,118.40L110.82,107.31L111.15,107.30z"/><path style="fill:#01ff02" d="M120.93,144.45L121.16,145.07L104.94,156.59L104.42,156.75L70.73,132.25L70.73,131.87L87.23,121.79z"/><path style="fill:#01ff02" d="M87.26,172.88L87.50,173.51L80.24,178.79L79.75,178.93L69.17,186.43L68.77,186.40L67.50,185.14L65.76,183.89L64.26,183.40L61.25,183.40L61.26,182.74L64.52,180.38L60.02,176.38L59.69,176.38L59.18,176.92L58.30,176.90L56.02,174.90L56.03,174.16L55.05,174.18L50.55,170.18L50.03,169.91L50.03,169.16L49.06,168.92L47.05,167.19L46.55,166.93L46.55,166.03L54.03,161.03L63.94,154.68L64.26,154.69z"/><path style="fill:#000000" d="M261.78,32.27L262.83,32.73L262.06,37.84L261.78,38.34L261.03,38.27L230.35,27.79L230.03,27.59L230.54,24.03L230.86,22.34L231.61,22.26z"/><path style="fill:#ffffff" d="M71.49,165.19L72.01,165.80L69.17,167.72L68.52,167.69L68.04,167.18L67.24,167.53L67.28,166.69L67.01,166.40L66.91,165.97L69.67,164.16L70.25,164.16z"/><path style="fill:#ffffff" d="M39.33,175.17L39.35,176.02L38.26,176.68L37.04,176.70L36.73,176.48L36.79,175.73L37.99,174.90L38.84,174.89z"/><path style="fill:#ffffff" d="M78.43,178.40L77.37,178.48L77.37,178.19L77.90,177.87L78.49,177.90z"/><path style="fill:#ffffff" d="M46.58,181.48L45.22,182.43L44.70,182.40L46.26,181.37z"/><g id="Actor_.0"><g style="stroke:#000000;stroke-width:0.018"><path d="M53.07,142.58L62.60,150.09L62.67,150.39"/><path d="M54.68,141.60L55.20,142.01L55.03,142.11"/><path d="M56.78,142.92L56.79,143.03L56.89,143.06L57.07,142.99L57.07,142.86L57.03,142.84L56.86,142.86L56.78,142.92"/><path d="M57.07,142.86L57.09,142.96"/><path d="M60.81,145.87L60.62,145.97L60.52,145.94L60.48,145.87L60.53,145.79L60.69,145.74L60.79,145.77L60.81,145.87L60.79,145.77"/><path d="M60.97,140.51L60.90,140.46L60.74,140.47L60.66,140.54L60.65,140.61L60.83,140.67L60.97,140.58L60.97,140.51"/><path d="M60.95,140.48L60.97,140.58"/><path d="M62.60,150.09L65.76,148.61L66.68,148.30L67.64,148.12L68.59,148.08L69.20,148.13L70.06,148.32L70.81,148.64L71.23,148.91L78.16,154.23L78.46,154.51L78.69,154.83L78.84,155.18L78.90,155.53"/><path d="M62.52,144.94L62.43,144.87L62.40,144.76L62.51,144.60L62.73,144.51L62.89,144.51L63.05,144.61L63.07,144.75L63.01,144.57"/><path d="M63.06,144.78L63.02,144.83"/><path d="M64.42,143.36L64.38,143.48L64.45,143.53L64.68,143.46L64.68,143.34L64.63,143.32L64.42,143.36"/><path d="M64.68,143.34L64.70,143.45"/><path d="M65.47,148.74L65.53,149.03"/><path d="M71.23,148.91L71.29,149.20"/><path d="M76.98,145.79L77.07,145.67L77.04,145.57L76.89,145.49L76.75,145.49L76.61,145.55L76.51,145.69L76.55,145.81L76.64,145.86"/><path d="M89.09,167.83L89.05,167.53L76.99,158.14"/><path d="M77.01,145.53L77.04,145.73"/><path d="M78.16,154.23L78.21,154.53"/><path d="M83.71,150.83L83.79,150.71L83.77,150.61L83.61,150.52L83.46,150.53L83.33,150.58L83.22,150.73L83.25,150.83L83.35,150.90"/><path d="M83.76,150.78L83.73,150.57"/><path d="M89.05,167.53L98.62,160.76"/><path d="M90.67,155.86L90.59,155.97L90.63,156.05L90.79,156.07L90.91,156.00L90.89,155.86L90.67,155.86"/><path d="M90.89,155.86L90.91,156.00"/><path d="M96.45,160.26L96.42,160.38L96.50,160.44L96.62,160.45L96.76,160.35L96.75,160.27L96.68,160.21L96.45,160.26"/><path d="M96.74,160.37L96.72,160.23"/></g><g style="stroke:#000000;stroke-width:0.088"><path d="M53.14,142.87L53.07,142.58L53.95,142.05L54.47,142.46L55.03,142.11L54.75,141.89L54.68,141.60L64.75,135.45L98.62,160.76L98.66,161.06L89.10,167.82L77.04,158.43L76.99,158.14L77.79,157.59L78.17,157.26L78.47,156.90L78.70,156.53L78.85,156.14L78.91,155.75L78.89,155.48L78.74,155.13L78.51,154.81L78.21,154.53L71.08,149.06L70.38,148.70L69.55,148.47L68.65,148.38L67.40,148.46L66.74,148.59L65.82,148.90L62.67,150.39L53.14,142.87"/><path d="M62.54,144.95L62.83,144.94L63.02,144.83L62.71,144.82L62.54,144.95"/><path d="M76.98,145.79L76.83,145.86L76.64,145.86L76.80,145.78L76.98,145.79"/><path d="M83.39,150.91L83.35,150.90L83.51,150.82L83.71,150.83L83.55,150.91L83.39,150.91"/></g></g><g id="Actor_.1"><g style="stroke:#000000;stroke-width:0.018"><path d="M136.95,91.39L170.78,109.71L170.77,109.99"/><path d="M152.49,83.07L152.51,83.02L152.63,82.99L152.75,83.03L152.76,83.08L152.63,83.14L152.49,83.07"/><path d="M152.72,83.01L152.72,83.12"/><path d="M157.89,85.63L157.89,85.74L157.93,85.68L157.85,85.62L157.71,85.63L157.66,85.70L157.75,85.76L157.89,85.74"/><path d="M170.78,109.71L185.77,99.10"/><path d="M178.02,95.97L178.15,95.93L178.29,96.00L178.24,96.08L178.10,96.09L178.03,96.05L178.02,95.97"/><path d="M178.24,95.95L178.23,96.08"/><path d="M183.96,98.85L183.82,98.83L183.73,98.90L183.78,98.98L183.91,99.00L184.02,98.93L183.96,98.85L183.95,98.99"/></g><g style="stroke:#000000;stroke-width:0.088"><path d="M136.96,91.66L170.77,109.99L185.75,99.38L185.77,99.10L152.16,82.10L136.95,91.39L136.96,91.66"/></g></g><g id="Actor_.2"><g style="stroke:#000000;stroke-width:0.018"><path d="M115.84,104.27L149.86,124.51L149.86,124.80"/><path d="M127.73,98.33L127.77,98.41L127.67,98.48L127.53,98.46L127.49,98.38L127.69,98.32L127.73,98.33L127.74,98.45"/><path d="M132.94,101.40L132.76,101.42L132.70,101.33L132.89,101.27L132.96,101.31L132.95,101.39L132.94,101.28"/><path d="M140.26,105.44L140.30,105.49L140.20,105.59L140.08,105.58L140.02,105.48L140.07,105.43L140.22,105.42L140.26,105.44L140.26,105.56"/><path d="M145.75,108.55L145.80,108.60L145.74,108.69L145.61,108.70L145.50,108.64L145.56,108.54L145.71,108.53L145.75,108.55L145.75,108.68"/><path d="M149.86,124.51L166.42,112.79"/><path d="M150.23,115.28L150.06,115.24L150.06,115.14L150.20,115.09L150.32,115.15L150.34,115.21L150.23,115.28"/><path d="M150.29,115.26L150.29,115.12"/><path d="M156.10,118.60L155.90,118.60L155.84,118.51L155.90,118.45L156.05,118.44L156.10,118.46L156.10,118.60L156.15,118.52L156.10,118.46"/></g><g style="stroke:#000000;stroke-width:0.088"><path d="M115.86,104.55L149.86,124.80L166.41,113.07L166.42,112.79L132.54,94.08L115.84,104.27L115.86,104.55"/></g></g><g id="Actor_.3"><g style="stroke:#000000;stroke-width:0.018"><path d="M173.80,68.89L206.97,84.11L206.94,84.38"/><path d="M175.59,69.08L175.48,69.09L175.39,69.04L175.43,68.97L175.55,68.96L175.62,69.00L175.60,69.08L175.59,68.98"/><path d="M180.70,71.42L180.70,71.32L180.67,71.30L180.54,71.31L180.50,71.38L180.57,71.43L180.70,71.42L180.75,71.38L180.70,71.32"/><path d="M187.87,74.71L187.88,74.60L187.84,74.58L187.71,74.59L187.67,74.66L187.85,74.72L187.93,74.64L187.88,74.60"/><path d="M193.04,77.06L193.24,77.05L193.23,77.17L193.06,77.14L193.04,77.06"/><path d="M193.23,77.17L193.29,77.13L193.24,77.05"/><path d="M195.16,69.78L195.12,69.84L195.17,69.88L195.36,69.86L195.33,69.79L195.16,69.78"/><path d="M195.32,69.78L195.31,69.89"/><path d="M200.77,80.49L200.60,80.49L200.56,80.56L200.65,80.61L200.78,80.61L200.82,80.54L200.77,80.49L200.76,80.61"/><path d="M200.65,72.13L200.70,72.18L200.63,72.25L200.45,72.19L200.49,72.13L200.61,72.12L200.65,72.13L200.64,72.25"/><path d="M206.40,83.07L206.39,83.19L206.45,83.11L206.40,83.07L206.20,83.08L206.24,83.18L206.39,83.19"/><path d="M206.97,84.11L219.42,75.30"/><path d="M212.07,72.74L211.90,72.74L211.86,72.81L212.05,72.86L212.12,72.79L212.07,72.74L212.05,72.86"/><path d="M217.62,75.28L217.64,75.16L217.44,75.18L217.45,75.25L217.57,75.28L217.68,75.25L217.64,75.16"/></g><g style="stroke:#000000;stroke-width:0.088"><path d="M173.79,69.15L173.80,68.89L186.59,61.09L219.42,75.30L219.38,75.56L206.94,84.38L173.79,69.15"/></g></g><g id="Actor_.4"><g style="stroke:#000000;stroke-width:0.018"><path d="M70.62,131.87L104.55,156.57L104.58,156.86"/><path d="M73.01,132.01L73.01,131.94L72.89,131.88L72.74,131.93L72.70,132.00L72.77,132.08L72.91,132.08L72.99,132.03L72.99,131.91"/><path d="M78.16,135.65L77.95,135.64L77.86,135.74L77.93,135.83L78.08,135.83L78.16,135.78L78.16,135.65L78.17,135.76"/><path d="M85.20,140.95L85.17,141.07L85.24,141.12L85.45,141.07L85.45,140.93L85.36,140.90L85.20,140.95"/><path d="M85.47,141.05L85.45,140.93"/><path d="M90.65,144.96L90.65,145.04L90.78,145.10L90.90,145.08L90.98,144.98L90.94,144.90L90.84,144.87L90.65,144.96"/><path d="M90.96,145.03L90.94,144.90"/><path d="M104.55,156.57L121.26,144.75"/></g><g style="stroke:#000000;stroke-width:0.088"><path d="M70.82,131.75L70.62,131.87L70.67,132.16L104.58,156.86L121.28,145.04L121.26,144.75L87.21,121.74L70.82,131.75"/></g></g><g id="Actor_.5"><g style="stroke:#000000;stroke-width:0.018"><path d="M156.19,79.64L189.73,96.30L189.71,96.58"/><path d="M189.73,96.30L203.36,86.66"/></g><g style="stroke:#000000;stroke-width:0.088"><path d="M156.19,79.91L189.71,96.58L203.33,86.93L203.36,86.66L170.11,71.14L156.19,79.64L156.19,79.91"/></g></g><g id="Actor_.6"><g style="stroke:#000000;stroke-width:0.018"><path d="M92.58,118.47L126.63,140.94L145.03,127.93"/><path d="M99.61,115.58L99.42,115.58L99.34,115.66L99.38,115.72L99.52,115.74L99.64,115.67L99.61,115.58L99.62,115.69"/><path d="M104.83,119.04L104.81,118.93L104.85,119.02L104.73,119.09L104.59,119.07L104.55,119.01L104.62,118.92L104.81,118.93"/><path d="M116.71,120.82L116.52,120.86L116.44,120.78L116.51,120.69L116.66,120.67L116.70,120.69L116.71,120.82L116.75,120.75L116.70,120.69"/><path d="M121.94,124.25L122.01,124.15L122.21,124.16L122.22,124.29L122.14,124.33L122.03,124.33L121.94,124.25"/><path d="M122.21,124.16L122.26,124.22L122.22,124.29"/><path d="M125.43,132.17L125.47,132.28L125.35,132.35L125.20,132.33L125.16,132.27L125.22,132.17L125.38,132.15L125.43,132.17L125.44,132.31"/><path d="M126.65,141.23L126.63,140.94"/><path d="M131.28,136.07L131.11,136.11L130.99,136.02L131.02,135.95L131.17,135.90L131.30,135.96L131.29,136.07L131.27,135.93"/></g><g style="stroke:#000000;stroke-width:0.088"><path d="M92.61,118.75L92.58,118.47L110.99,107.23L145.03,127.93L145.03,128.21L126.65,141.23L92.61,118.75"/></g></g><g id="Actor_.7"><g style="stroke:#000000;stroke-width:0.018"><path d="M233.69,19.83L234.20,20.00L233.91,20.16"/><path d="M233.64,20.32L265.45,30.70L265.99,30.34L265.94,30.60"/><path d="M235.53,20.02L235.27,19.94L235.63,19.73L235.60,19.98"/><path d="M235.63,19.73L236.21,19.92L235.92,20.09"/><path d="M237.70,20.05L237.45,19.96L237.78,19.77"/><path d="M243.63,21.34L243.28,21.55L243.53,21.63"/><path d="M259.07,26.31L258.72,26.53L258.96,26.61"/><path d="M264.64,28.44L264.31,28.65L264.54,28.72"/><path d="M266.12,29.85L266.22,29.73L266.21,29.65L266.16,29.57L265.92,29.42L265.56,29.33L265.18,29.32L264.88,29.39L264.79,29.45L264.75,29.52L264.79,29.67"/><path d="M265.40,30.96L265.45,30.70"/><path d="M265.99,30.34L266.61,30.54L266.55,30.80"/><path d="M265.83,29.39L265.78,29.65"/><path d="M266.61,30.54L266.81,30.33L266.92,30.10"/></g><g style="stroke:#000000;stroke-width:0.088"><path d="M234.17,20.76L233.60,20.57L233.64,20.32L233.91,20.16L233.65,20.08L233.69,19.83L234.17,19.64L234.78,19.52L235.47,19.46L236.20,19.48L237.11,19.60L237.78,19.77L237.74,20.02L237.70,20.05L238.01,20.15L238.35,19.95L243.63,21.34L243.59,21.59L243.53,21.63L243.86,21.73L244.21,21.52L251.63,23.84L259.07,26.31L259.02,26.57L258.96,26.61L259.33,26.73L259.68,26.51L264.64,28.44L264.58,28.70L264.54,28.72L264.93,28.85L265.25,28.64L265.59,28.76L266.28,29.11L266.59,29.35L266.74,29.52L266.89,29.77L266.93,29.93L266.84,30.43L266.76,30.59L266.55,30.80L265.94,30.60L265.40,30.96L234.17,20.76"/><path d="M235.60,19.98L235.53,20.02L235.85,20.13L235.92,20.09L235.60,19.98"/><path d="M264.91,29.76L265.22,29.89L265.50,29.94L265.87,29.93L266.12,29.85L265.86,29.68L265.41,29.58L265.04,29.59L264.79,29.67L264.91,29.76"/></g></g><g id="Actor_.8"><g style="stroke:#000000;stroke-width:0.018"><path d="M230.87,22.17L262.79,32.73L261.76,38.54"/><path d="M262.93,32.65L262.79,32.73"/></g><g style="stroke:#000000;stroke-width:0.088"><path d="M229.86,27.66L230.87,22.17L231.02,22.09L262.93,32.65L261.93,38.27L261.76,38.54L229.86,27.66"/></g></g><g id="Actor_.9"><g style="stroke:#000000;stroke-width:0.018"><path d="M221.62,37.33L233.69,41.72L233.69,41.95"/><path d="M233.69,41.72L235.18,39.50L235.23,39.66"/><path d="M235.18,39.50L241.52,41.78L241.45,41.89"/><path d="M240.02,44.02L253.46,48.90L253.45,49.14"/><path d="M253.46,48.90L259.30,40.07"/></g><g style="stroke:#000000;stroke-width:0.088"><path d="M221.90,37.66L233.69,41.95L235.23,39.66L241.45,41.89L240.02,44.02L240.02,44.25L253.45,49.14L259.23,40.39L259.30,40.07L227.28,29.02L221.62,37.33L221.62,37.56L221.90,37.66"/></g></g><g id="Actor_.10"><g style="stroke:#000000;stroke-width:0.018"><path d="M212.49,42.84L244.69,55.05L244.64,55.31"/><path d="M230.87,43.51L227.59,45.61L227.81,45.69"/><path d="M241.36,52.20L241.20,52.22L241.06,52.14L241.11,52.08L241.25,52.07L241.37,52.12L241.37,52.19L241.37,52.12"/><path d="M244.69,55.05L250.72,50.83"/></g><g style="stroke:#000000;stroke-width:0.088"><path d="M212.47,43.09L212.49,42.84L218.76,39.05L230.87,43.51L230.87,43.74L227.81,45.69L233.97,48.00L237.23,45.86L250.72,50.83L250.71,51.06L244.64,55.31L212.47,43.09"/></g></g><g id="Actor_.11"><g style="stroke:#000000;stroke-width:0.018"><path d="M209.46,44.93L241.74,57.37L241.86,57.28"/><path d="M241.33,59.77L241.74,57.37"/></g><g style="stroke:#000000;stroke-width:0.088"><path d="M209.21,47.25L209.46,44.93L209.59,44.85L241.86,57.28L241.45,59.68L241.33,59.77L209.21,47.25"/></g></g><g id="Actor_.12"><g style="stroke:#000000;stroke-width:0.018"><path d="M204.90,49.91L217.88,55.07L217.85,55.32"/><path d="M217.88,55.07L218.53,54.65L223.94,56.79L223.69,56.96"/><path d="M218.50,54.90L218.53,54.65"/><path d="M223.29,57.22L237.16,62.74L237.12,63.00"/><path d="M237.16,62.74L238.51,61.79"/></g><g style="stroke:#000000;stroke-width:0.088"><path d="M205.02,50.22L217.85,55.32L218.50,54.90L223.69,56.96L223.29,57.22L223.25,57.48L237.12,63.00L238.47,62.05L238.51,61.79L206.29,49.06L204.90,49.91L204.88,50.16L205.02,50.22"/></g></g><g id="Actor_.13"><g style="stroke:#000000;stroke-width:0.018"><path d="M49.39,169.27L49.32,168.98L46.21,166.30"/><path d="M46.97,165.98L47.02,165.93L47.09,165.96L47.03,166.01L46.97,165.98"/><path d="M47.83,165.05L47.96,165.16L47.87,165.22"/><path d="M50.20,169.23L50.35,169.13L49.81,168.66L49.88,168.95"/><path d="M49.87,169.45L55.13,173.99L55.20,174.28"/><path d="M49.32,168.98L49.81,168.66"/><path d="M51.94,170.82L51.88,170.79L51.83,170.85L51.89,170.88L51.94,170.82"/><path d="M53.04,162.07L53.00,162.14L52.94,162.11L53.04,162.07"/><path d="M55.13,173.99L55.62,173.66L55.69,173.95"/><path d="M55.62,173.66L56.32,174.27L56.17,174.37"/><path d="M55.83,174.60L58.53,176.93L59.80,176.05L64.72,180.28L64.57,180.38"/><path d="M58.53,176.93L58.60,177.22"/><path d="M58.42,176.51L58.46,176.56L58.53,176.53L58.53,176.48L58.42,176.51"/><path d="M58.80,158.29L58.81,158.36L58.89,158.31L58.80,158.29"/><path d="M59.80,176.05L59.87,176.34"/><path d="M60.19,165.59L60.24,165.56L60.30,165.59L60.25,165.64L60.19,165.59"/><path d="M61.47,183.57L61.40,183.28L62.31,183.10L63.51,183.05L64.37,183.15L65.17,183.36L65.89,183.68L66.49,184.11L66.56,184.40"/><path d="M61.40,183.28L60.97,182.90"/><path d="M61.42,182.90L61.48,182.84L61.54,182.87L61.50,182.92L61.42,182.90"/><path d="M62.58,177.87L62.63,177.84L62.70,177.87L62.65,177.92L62.58,177.87"/><path d="M64.17,155.06L64.07,155.10L64.14,155.12L64.17,155.06"/><path d="M66.21,170.48L66.15,170.47L66.10,170.53L66.17,170.56L66.21,170.48"/><path d="M66.49,184.11L68.96,186.24L69.02,186.53"/><path d="M66.90,167.42L66.84,167.34L66.82,167.19L66.88,167.06L67.01,166.95L67.07,167.23"/><path d="M67.01,166.95L67.38,166.69"/><path d="M72.07,165.74L72.23,165.63L69.82,163.68L66.46,165.94L66.68,166.12"/><path d="M68.96,186.24L79.62,178.61L79.67,178.90"/><path d="M69.18,185.73L69.09,185.73L69.09,185.80L69.17,185.79L69.18,185.73"/><path d="M69.44,159.35L69.50,159.40L69.55,159.36L69.48,159.32L69.44,159.35"/><path d="M70.98,169.50L71.01,169.66L71.01,169.53L70.93,169.47L70.76,169.46L70.60,169.54L70.55,169.68L70.60,169.76L70.70,169.80"/><path d="M69.82,163.68L69.87,163.97"/><path d="M71.01,169.66L70.93,169.74"/><path d="M72.30,175.54L72.21,175.55L72.19,175.59L72.29,175.61L72.30,175.54"/><path d="M75.39,181.25L75.32,181.31L75.36,181.34L75.44,181.28L75.39,181.25"/><path d="M74.79,172.76L74.76,172.59L74.81,172.72L74.72,172.85"/><path d="M74.48,172.90L74.34,172.78L74.38,172.64L74.60,172.55L74.76,172.59"/><path d="M75.04,163.72L74.99,163.71L74.94,163.76L75.01,163.79L75.04,163.72"/><path d="M76.19,165.92L76.22,166.09L76.23,166.00L76.14,165.90L75.97,165.89L75.81,165.97L75.78,166.14L75.92,166.22"/><path d="M76.22,166.09L76.14,166.17"/><path d="M77.32,178.37L77.25,178.17L77.33,177.92L77.47,177.77L77.75,177.62L78.08,177.58L78.37,177.66L78.44,177.71L78.50,178.00"/><path d="M78.44,177.71L78.58,177.92L78.58,178.09"/><path d="M79.62,178.61L79.77,178.73L79.83,179.02"/><path d="M79.77,178.73L87.52,173.18"/><path d="M79.70,169.25L79.56,169.14L79.60,169.00L79.76,168.92L79.93,168.93L80.01,168.99L80.02,169.11L79.98,168.96"/><path d="M79.94,169.20L80.01,169.13"/><path d="M80.60,168.25L80.65,168.22L80.72,168.25L80.67,168.30L80.60,168.25"/><path d="M81.42,176.92L81.49,176.89L81.53,176.94L81.45,176.97L81.42,176.92"/><path d="M86.43,172.87L86.41,172.91L86.45,172.94L86.53,172.88L86.43,172.87"/></g><g style="stroke:#000000;stroke-width:0.088"><path d="M46.34,166.63L46.28,166.58L46.21,166.30L47.87,165.22L47.83,165.05L63.35,155.00L64.22,154.63L87.52,173.18L87.57,173.46L79.83,179.02L79.67,178.90L69.02,186.53L66.37,184.25L65.95,183.98L65.49,183.75L64.71,183.50L63.58,183.34L62.38,183.40L61.47,183.57L61.03,183.19L60.97,182.90L64.57,180.38L59.87,176.34L58.60,177.22L55.90,174.89L55.84,174.62L56.17,174.37L55.69,173.95L55.20,174.28L49.94,169.74L49.87,169.45L50.20,169.23L49.88,168.95L49.39,169.27L46.34,166.63"/><path d="M67.00,167.29L66.90,167.41L66.98,167.47L67.32,167.51L67.49,167.46L67.95,167.16L68.87,167.91L72.07,165.74L69.87,163.97L66.68,166.12L67.38,166.69L67.44,166.98L67.00,167.29"/><path d="M70.76,169.77L70.93,169.74L70.70,169.80L70.76,169.77"/><path d="M74.59,172.84L74.48,172.90L74.72,172.85L74.59,172.84"/><path d="M74.48,172.90L74.48,172.90"/><path d="M75.92,166.22L76.14,166.17L75.92,166.22"/><path d="M77.52,178.06L77.39,178.21L77.32,178.37L77.47,178.51L77.76,178.59L77.98,178.57L78.29,178.45L78.45,178.32L78.58,178.09L78.42,177.95L78.13,177.87L77.81,177.91L77.52,178.06"/><path d="M79.70,169.25L79.93,169.20L79.70,169.25"/></g></g><g id="Actor_.14"><g style="stroke:#000000;stroke-width:0.018"><path d="M66.16,153.45L75.47,160.80L75.41,161.16"/><path d="M75.47,160.80L76.78,159.92L76.83,160.21"/><path d="M76.78,159.92L77.03,159.74L77.31,159.49L77.55,159.24L77.75,158.98"/></g><g style="stroke:#000000;stroke-width:0.088"><path d="M78.10,157.32L78.04,157.15L77.98,157.00L77.86,156.80L77.76,156.65L74.37,154.03L74.02,153.84L73.65,153.68L73.26,153.53L72.86,153.40L72.45,153.28L72.02,153.19L71.24,153.08L70.44,153.02L69.97,153.02L69.50,153.03L68.66,153.11L66.16,153.45L66.05,153.76L75.41,161.16L76.83,160.21L77.14,159.98L77.36,159.78L77.56,159.58L77.73,159.36L77.90,159.10"/></g></g><g id="Actor_.15"><g style="stroke:#000000;stroke-width:0.018"><path d="M30.76,176.30L42.66,187.32L47.63,183.93L47.91,184.19L50.36,182.51"/><path d="M31.22,176.32L31.20,176.38L31.14,176.39L31.11,176.38L31.13,176.32L31.17,176.30L31.22,176.32"/><path d="M39.45,175.38L39.40,175.14L39.27,174.94L39.14,174.82L38.90,174.69L38.61,174.62L38.39,174.60L38.05,174.62L37.71,174.70L37.38,174.83L37.09,175.01L36.84,175.23L36.71,175.39L36.62,175.56L36.53,175.81L36.53,176.06L36.61,176.28"/><path d="M36.88,181.56L36.83,181.54L36.79,181.55L36.77,181.61L36.84,181.63L36.88,181.60L36.88,181.56"/><path d="M38.06,171.83L38.11,171.81L38.17,171.84L38.14,171.88L38.10,171.89L38.05,171.88L38.06,171.83"/><path d="M39.21,174.88L39.29,175.17"/><path d="M41.22,174.64L41.00,174.44L41.20,174.31"/><path d="M42.66,187.32L42.70,187.47"/><path d="M42.72,186.95L42.64,186.94L42.61,186.96L42.60,187.01L42.65,187.03L42.69,187.02L42.72,186.99L42.72,186.95"/><path d="M44.78,182.30L44.70,182.01L44.58,182.13L44.52,182.27L44.53,182.40L44.61,182.49"/><path d="M43.75,176.93L43.74,176.98L43.79,177.00L43.85,176.97L43.86,176.94L43.80,176.91L43.75,176.93"/><path d="M44.70,182.01L46.03,181.11L46.20,181.03L46.44,181.01L46.59,181.06L46.66,181.13L46.70,181.21L46.69,181.36"/><path d="M46.03,181.11L46.11,181.40"/><path d="M46.98,179.48L46.57,179.76L46.79,179.95"/><path d="M47.63,183.93L47.70,184.22"/><path d="M47.91,184.19L47.99,184.48"/><path d="M49.64,182.16L49.72,182.18L49.70,182.24L49.66,182.25L49.60,182.23L49.61,182.19L49.64,182.16"/></g><g style="stroke:#000000;stroke-width:0.088"><path d="M30.84,176.25L30.76,176.30L30.81,176.45L42.70,187.47L43.75,186.92L47.70,184.22L47.99,184.48L50.43,182.80L50.36,182.51L47.68,180.11L47.27,180.38L46.79,179.95L47.05,179.77L46.98,179.48L41.74,174.80L41.54,174.93L41.22,174.64L41.28,174.60L41.20,174.31L38.11,171.54L30.84,176.25"/><path d="M37.58,176.77L37.26,176.73L36.99,176.63L36.76,176.48L36.61,176.29L36.62,176.10L36.70,175.85L36.86,175.60L37.08,175.37L37.36,175.18L37.68,175.03L37.90,174.95L38.25,174.89L38.58,174.89L38.89,174.95L39.15,175.06L39.35,175.23L39.45,175.38L39.44,175.55L39.40,175.72L39.32,175.89L39.21,176.05L38.98,176.28L38.70,176.48L38.27,176.67L37.92,176.75L37.58,176.77"/><path d="M45.19,182.45L45.08,182.51L44.90,182.56L44.72,182.55L44.61,182.49L44.69,182.38L44.78,182.30L46.16,181.37L46.34,181.31L46.46,181.30L46.58,181.31L46.69,181.36L46.62,181.47L46.52,181.55L45.19,182.45"/></g></g><g id="Actor_.16"><g style="stroke:#000000;stroke-width:0.018"><path d="M34.14,193.24L38.22,196.63L42.30,193.80L43.77,195.19L44.17,195.03L44.59,194.92"/><path d="M34.43,193.24L34.45,193.20L34.49,193.18L34.53,193.18L34.56,193.21L34.54,193.25L34.50,193.28L34.45,193.27L34.43,193.24"/><path d="M34.43,193.24L34.44,193.26"/><path d="M38.22,196.63L38.26,196.78"/><path d="M38.37,196.33L38.33,196.31L38.33,196.29L38.33,196.27L38.38,196.23L38.44,196.23L38.45,196.25L38.45,196.29L38.42,196.31L38.37,196.33"/><path d="M38.33,196.29L38.33,196.30"/><path d="M39.05,190.14L39.01,190.11L38.97,190.12L38.93,190.15L38.93,190.18L38.95,190.21L39.00,190.20L39.04,190.17L39.05,190.14"/><path d="M38.92,190.18L38.93,190.18"/><path d="M41.41,192.51L41.42,192.47L41.47,192.45L41.51,192.46L41.53,192.48L41.52,192.52L41.47,192.55L41.42,192.54L41.41,192.51"/><path d="M42.38,194.09L42.30,193.80"/><path d="M43.77,195.19L43.85,195.48"/><path d="M44.04,194.84L44.01,194.82L43.96,194.83L43.93,194.86L43.92,194.90L43.96,194.92L44.01,194.91L44.04,194.88L44.04,194.84"/></g><g style="stroke:#000000;stroke-width:0.088"><path d="M34.27,193.15L34.14,193.24L34.19,193.39L38.26,196.78L39.41,196.16L42.38,194.09L43.85,195.48L44.26,195.32L44.67,195.21L44.59,194.92L39.16,189.81L34.27,193.15"/></g></g><g id="Actor_.17"><g style="stroke:#000000;stroke-width:0.018"><path d="M189.98,59.01L222.72,72.96L222.68,73.23"/><path d="M191.78,59.11L191.74,59.17L191.73,59.08L191.78,59.11"/><path d="M191.73,59.08L191.58,59.07L191.54,59.13L191.73,59.17"/><path d="M196.84,61.26L196.79,61.22L196.78,61.33L196.84,61.26"/><path d="M196.79,61.22L196.63,61.22L196.60,61.28L196.78,61.33"/><path d="M199.87,54.00L199.80,54.07L199.96,54.11L199.99,54.01L199.87,54.00"/><path d="M199.98,54.11L200.03,54.07L199.99,54.01"/><path d="M204.85,56.07L204.85,56.15L204.98,56.17L205.01,56.07L204.85,56.07"/><path d="M205.01,56.07L205.06,56.13L205.00,56.17"/><path d="M206.71,55.67L206.73,55.71L206.62,55.76L206.49,55.69L206.56,55.65L206.71,55.67"/><path d="M206.67,55.76L206.68,55.66"/><path d="M209.64,60.60L209.49,60.58L209.47,60.51L209.65,60.50L209.71,60.56L209.65,60.60L209.65,60.50"/><path d="M214.78,57.08L210.33,59.96L210.55,60.05"/><path d="M212.32,58.10L212.44,58.11L212.46,58.01L212.28,58.02L212.32,58.10"/><path d="M212.45,58.11L212.51,58.04L212.46,58.01"/><path d="M214.92,62.67L214.73,62.69L214.75,62.75L214.86,62.79L214.96,62.75L214.92,62.67L214.90,62.78"/><path d="M218.97,60.77L219.03,60.70L218.94,60.65L218.82,60.66L218.79,60.72L218.97,60.77L218.98,60.66"/><path d="M222.72,72.96L234.13,64.89"/><path d="M224.65,64.21L224.71,64.14L224.66,64.10L224.54,64.09L224.47,64.16L224.65,64.21L224.66,64.10"/><path d="M225.04,63.13L224.91,63.11L224.85,63.18L224.94,63.23L225.06,63.23L225.09,63.17L225.04,63.13L225.03,63.24"/><path d="M230.14,66.46L229.99,66.43L229.97,66.37L230.07,66.33L230.19,66.37L230.21,66.44L230.15,66.46L230.16,66.35"/></g><g style="stroke:#000000;stroke-width:0.088"><path d="M190.15,59.35L222.68,73.23L234.09,65.14L234.13,64.89L220.21,59.27L215.78,62.21L210.55,60.05L214.75,57.33L214.78,57.08L201.76,51.82L189.98,59.01L189.96,59.27L190.15,59.35"/></g></g><g id="PMI12.0"><g><path style="stroke:#000000;stroke-width:0.250" d="M56.58,124.55L56.42,138.38"/></g><g><path style="fill:#000000" d="M55.44,138.36L57.44,138.39L56.42,140.38z"/></g><g><path style="fill:#ffffff" d="M42.30,124.54L70.98,124.54L70.98,118.90L42.30,118.90z"/><path style="stroke:#000000;stroke-width:0.250;stroke-opacity:0.98" d="M42.30,124.54L70.98,124.54L70.98,118.90L42.30,118.90z"/><text xml:space="preserve" fill="#000000" stroke-width="0" x="43.00" y="122.96" font-size="3.46" opacity="1.00" font-family="MS Shell Dlg">427401-02131NN</text></g></g><g id="PMI6.0"><g><path style="stroke:#000000;stroke-width:0.250" d="M252.26,13.79L251.73,22.08"/></g><g><path style="fill:#000000" d="M250.71,22.03L252.71,22.16L251.58,24.09z"/></g><g><path style="fill:#ffffff" d="M238.08,13.81L266.76,13.81L266.76,8.16L238.08,8.16z"/><path style="stroke:#000000;stroke-width:0.250;stroke-opacity:0.98" d="M238.08,13.81L266.76,13.81L266.76,8.16L238.08,8.16z"/><text xml:space="preserve" fill="#000000" stroke-width="0" x="238.79" y="12.22" font-size="3.46" opacity="1.00" font-family="MS Shell Dlg">427410-02131NN</text></g></g><g id="PMI3.0"><g><path style="stroke:#000000;stroke-width:0.250" d="M198.21,39.28L216.53,39.46"/></g><g><path style="fill:#000000" d="M216.49,40.50L216.51,38.50L218.50,39.52z"/></g><g><path style="fill:#ffffff" d="M169.49,41.99L198.18,41.99L198.18,36.35L169.49,36.35z"/><path style="stroke:#000000;stroke-width:0.250;stroke-opacity:0.98" d="M169.49,41.99L198.18,41.99L198.18,36.35L169.49,36.35z"/><text xml:space="preserve" fill="#000000" stroke-width="0" x="170.20" y="40.40" font-size="3.46" opacity="1.00" font-family="MS Shell Dlg">427407-02131NN</text></g></g><g id="PMI5.0"><g><path style="stroke:#000000;stroke-width:0.250" d="M215.42,25.05L228.08,25.16"/></g><g><path style="fill:#000000" d="M228.03,26.20L228.05,24.20L230.04,25.22z"/></g><g><path style="fill:#ffffff" d="M186.70,27.77L215.39,27.77L215.39,22.13L186.70,22.13z"/><path style="stroke:#000000;stroke-width:0.250;stroke-opacity:0.98" d="M186.70,27.77L215.39,27.77L215.39,22.13L186.70,22.13z"/><text xml:space="preserve" fill="#000000" stroke-width="0" x="187.41" y="26.19" font-size="3.46" opacity="1.00" font-family="MS Shell Dlg">427409-02131NN</text></g></g><g id="PMI17.0"><g><path style="stroke:#000000;stroke-width:0.250" d="M192.69,116.16L191.76,97.21"/></g><g><path style="fill:#000000" d="M192.75,97.16L190.75,97.26L191.65,95.22z"/></g><g><path style="fill:#ffffff" d="M178.47,121.80L207.16,121.80L207.16,116.16L178.47,116.16z"/><path style="stroke:#000000;stroke-width:0.250;stroke-opacity:0.98" d="M178.47,121.80L207.16,121.80L207.16,116.16L178.47,116.16z"/><text xml:space="preserve" fill="#000000" stroke-width="0" x="179.18" y="120.21" font-size="3.46" opacity="1.00" font-family="MS Shell Dlg">427417-02131NN</text></g></g><g id="PMI11.0"><g><path style="stroke:#000000;stroke-width:0.250" d="M191.46,49.69L204.48,49.99"/></g><g><path style="fill:#000000" d="M204.44,51.01L204.48,49.01L206.46,50.05z"/></g><g><path style="fill:#ffffff" d="M162.76,52.22L191.44,52.22L191.44,46.57L162.76,46.57z"/><path style="stroke:#000000;stroke-width:0.250;stroke-opacity:0.98" d="M162.76,52.22L191.44,52.22L191.44,46.57L162.76,46.57z"/><text xml:space="preserve" fill="#000000" stroke-width="0" x="163.46" y="50.63" font-size="3.46" opacity="1.00" font-family="MS Shell Dlg">427405-02131NN</text></g></g><g id="PMI4.0"><g><path style="stroke:#000000;stroke-width:0.250" d="M264.78,43.80L258.39,43.97"/></g><g><path style="fill:#000000" d="M258.36,42.98L258.41,44.98L256.39,44.03z"/></g><g><path style="fill:#ffffff" d="M264.77,46.23L293.45,46.23L293.45,40.59L264.77,40.59z"/><path style="stroke:#000000;stroke-width:0.250;stroke-opacity:0.98" d="M264.77,46.23L293.45,46.23L293.45,40.59L264.77,40.59z"/><text xml:space="preserve" fill="#000000" stroke-width="0" x="265.47" y="44.64" font-size="3.46" opacity="1.00" font-family="MS Shell Dlg">427408-02131NN</text></g></g><g id="PMI2.0"><g><path style="stroke:#000000;stroke-width:0.250" d="M254.56,57.90L243.87,57.37"/></g><g><path style="fill:#000000" d="M243.91,56.38L243.81,58.38L241.86,57.28z"/></g><g><path style="fill:#ffffff" d="M254.54,61.44L283.22,61.44L283.22,55.80L254.54,55.80z"/><path style="stroke:#000000;stroke-width:0.250;stroke-opacity:0.98" d="M254.54,61.44L283.22,61.44L283.22,55.80L254.54,55.80z"/><text xml:space="preserve" fill="#000000" stroke-width="0" x="255.25" y="59.86" font-size="3.46" opacity="1.00" font-family="MS Shell Dlg">427406-02131NN</text></g></g><g id="PMI18.0"><g><path style="stroke:#000000;stroke-width:0.250" d="M212.70,97.20L212.30,82.91"/></g><g><path style="fill:#000000" d="M213.28,82.88L211.28,82.94L212.23,80.91z"/></g><g><path style="fill:#ffffff" d="M198.42,102.85L227.11,102.85L227.11,97.20L198.42,97.20z"/><path style="stroke:#000000;stroke-width:0.250;stroke-opacity:0.98" d="M198.42,102.85L227.11,102.85L227.11,97.20L198.42,97.20z"/><text xml:space="preserve" fill="#000000" stroke-width="0" x="199.13" y="101.26" font-size="3.46" opacity="1.00" font-family="MS Shell Dlg">427418-02131NN</text></g></g><g id="PMI1.0"><g><path style="stroke:#000000;stroke-width:0.250" d="M238.09,70.34L227.29,70.15"/></g><g><path style="fill:#000000" d="M227.29,69.16L227.26,71.16L225.27,70.13z"/></g><g><path style="fill:#ffffff" d="M238.08,73.42L266.77,73.42L266.77,67.77L238.08,67.77z"/><path style="stroke:#000000;stroke-width:0.250;stroke-opacity:0.98" d="M238.08,73.42L266.77,73.42L266.77,67.77L238.08,67.77z"/><text xml:space="preserve" fill="#000000" stroke-width="0" x="238.78" y="71.83" font-size="3.46" opacity="1.00" font-family="MS Shell Dlg">427404-02131NN</text></g></g><g id="PMI13.0"><g><path style="stroke:#000000;stroke-width:0.250" d="M171.58,129.38L171.36,112.27"/></g><g><path style="fill:#000000" d="M172.36,112.26L170.36,112.28L171.33,110.27z"/></g><g><path style="fill:#ffffff" d="M157.27,135.02L185.96,135.02L185.96,129.38L157.27,129.38z"/><path style="stroke:#000000;stroke-width:0.250;stroke-opacity:0.98" d="M157.27,135.02L185.96,135.02L185.96,129.38L157.27,129.38z"/><text xml:space="preserve" fill="#000000" stroke-width="0" x="157.98" y="133.43" font-size="3.46" opacity="1.00" font-family="MS Shell Dlg">427416-02131NN</text></g></g><g id="PMI16.0"><g><path style="stroke:#000000;stroke-width:0.250" d="M131.05,77.15L131.62,94.22"/></g><g><path style="fill:#000000" d="M130.62,94.25L132.62,94.19L131.69,96.22z"/></g><g><path style="fill:#ffffff" d="M116.62,77.16L145.31,77.16L145.31,71.51L116.62,71.51z"/><path style="stroke:#000000;stroke-width:0.250;stroke-opacity:0.98" d="M116.62,77.16L145.31,77.16L145.31,71.51L116.62,71.51z"/><text xml:space="preserve" fill="#000000" stroke-width="0" x="117.32" y="75.57" font-size="3.46" opacity="1.00" font-family="MS Shell Dlg">427415-02131NN</text></g></g><g id="PMI14.0"><g><path style="stroke:#000000;stroke-width:0.250" d="M108.05,90.87L108.32,108.27"/></g><g><path style="fill:#000000" d="M107.33,108.28L109.33,108.25L108.36,110.27z"/></g><g><path style="fill:#ffffff" d="M93.67,90.87L122.36,90.87L122.36,85.23L93.67,85.23z"/><path style="stroke:#000000;stroke-width:0.250;stroke-opacity:0.98" d="M93.67,90.87L122.36,90.87L122.36,85.23L93.67,85.23z"/><text xml:space="preserve" fill="#000000" stroke-width="0" x="94.38" y="89.29" font-size="3.46" opacity="1.00" font-family="MS Shell Dlg">427403-02131NN</text></g></g><g id="PMI15.0"><g><path style="stroke:#000000;stroke-width:0.250" d="M79.84,111.58L79.97,126.34"/></g><g><path style="fill:#000000" d="M78.99,126.34L80.99,126.32L80.01,128.33z"/></g><g><path style="fill:#ffffff" d="M65.49,111.58L94.17,111.58L94.17,105.93L65.49,105.93z"/><path style="stroke:#000000;stroke-width:0.250;stroke-opacity:0.98" d="M65.49,111.58L94.17,111.58L94.17,105.93L65.49,105.93z"/><text xml:space="preserve" fill="#000000" stroke-width="0" x="66.20" y="109.99" font-size="3.46" opacity="1.00" font-family="MS Shell Dlg">427402-02131NN</text></g></g><g id="PMI10.0"><g><path style="stroke:#000000;stroke-width:0.250" d="M53.98,153.92L65.43,153.73"/></g><g><path style="fill:#000000" d="M65.48,154.71L65.44,152.71L67.46,153.67z"/></g><g><path style="fill:#ffffff" d="M25.34,156.97L54.02,156.97L54.02,151.32L25.34,151.32z"/><path style="stroke:#000000;stroke-width:0.250;stroke-opacity:0.98" d="M25.34,156.97L54.02,156.97L54.02,151.32L25.34,151.32z"/><text xml:space="preserve" fill="#000000" stroke-width="0" x="26.04" y="155.38" font-size="3.46" opacity="1.00" font-family="MS Shell Dlg">427412-02131NN</text></g></g><g id="PMI9.0"><g><path style="stroke:#000000;stroke-width:0.250" d="M29.04,181.71L34.90,181.76"/></g><g><path style="fill:#000000" d="M34.93,182.73L34.94,180.73L36.94,181.74z"/></g><g><path style="fill:#ffffff" d="M0.40,184.40L29.08,184.40L29.08,178.76L0.40,178.76z"/><path style="stroke:#000000;stroke-width:0.250;stroke-opacity:0.98" d="M0.40,184.40L29.08,184.40L29.08,178.76L0.40,178.76z"/><text xml:space="preserve" fill="#000000" stroke-width="0" x="1.10" y="182.81" font-size="3.46" opacity="1.00" font-family="MS Shell Dlg">427413-02131NN</text></g></g><g id="PMI7.0"><g><path style="stroke:#000000;stroke-width:0.250" d="M85.43,182.17L75.47,182.06"/></g><g><path style="fill:#000000" d="M75.49,181.05L75.47,183.05L73.48,182.03z"/></g><g><path style="fill:#ffffff" d="M85.44,185.15L114.13,185.15L114.13,179.51L85.44,179.51z"/><path style="stroke:#000000;stroke-width:0.250;stroke-opacity:0.98" d="M85.44,185.15L114.13,185.15L114.13,179.51L85.44,179.51z"/><text xml:space="preserve" fill="#000000" stroke-width="0" x="86.15" y="183.56" font-size="3.46" opacity="1.00" font-family="MS Shell Dlg">427411-02131NN</text></g></g><g id="PMI8.0"><g><path style="stroke:#000000;stroke-width:0.250" d="M49.52,195.81L41.39,196.10"/></g><g><path style="fill:#000000" d="M41.37,195.09L41.44,197.09L39.41,196.16z"/></g><g><path style="fill:#ffffff" d="M49.53,198.12L78.21,198.12L78.21,192.48L49.53,192.48z"/><path style="stroke:#000000;stroke-width:0.250;stroke-opacity:0.98" d="M49.53,198.12L78.21,198.12L78.21,192.48L49.53,192.48z"/><text xml:space="preserve" fill="#000000" stroke-width="0" x="50.23" y="196.53" font-size="3.46" opacity="1.00" font-family="MS Shell Dlg">427414-02131NN</text></g></g><g/><g id="paperID" visibility="hidden" opacity="0.00" transform="scale(0.000100)"><path style="stroke:#000000;stroke-width:0.500;fill:#e6e6e6;fill-rule:evenodd" d="M-2000.00,-2000.00L2297.00,-2000.00L2297.00,2210.00L-2000.00,2210.00zM0.00,0.00L297.00,0.00L297.00,210.00L0.00,210.00z"/><path style="fill:#000000;fill-opacity:0.118" d="M3.00,210.00L297.00,210.00L297.00,3.00L300.00,3.00L300.00,213.00L3.00,213.00z"/></g><g id="hotspot.0" onmouseover="ShowHotSpot(evt,'0')" onmouseout="HideHotSpot(evt,'0')" onmousemove="ShowToolTip(evt,'0',&quot;3dp544016&quot;)" opacity="0"><path style="fill:#00ff00;fill-rule:evenodd" d="M214.44,56.94L214.67,57.30L210.90,59.79L210.90,60.17L215.14,61.95L216.31,61.92L220.06,59.41L220.63,59.42L231.86,63.93L234.12,65.03L227.75,69.65L229.87,69.92L237.86,70.01L238.01,67.66L266.55,67.65L267.03,67.92L266.96,73.42L238.01,73.50L237.86,70.66L229.87,70.42L227.54,70.21L227.34,69.93L227.15,71.00L226.40,70.66L223.07,72.93L221.87,72.92L190.11,59.25L190.11,58.98L201.60,51.93L202.18,51.93z"/></g><g id="hotspot.1" onmouseover="ShowHotSpot(evt,'1')" onmouseout="HideHotSpot(evt,'1')" onmousemove="ShowToolTip(evt,'1',&quot;3dp549058&quot;)" opacity="0"><path style="fill:#00ff00;fill-rule:evenodd" d="M54.28,151.48L54.44,153.56L65.30,153.49L65.30,153.78L62.69,153.97L54.44,154.21L54.22,156.97L25.26,157.05L25.26,151.21L53.81,151.21zM66.50,153.23L72.24,153.22L73.25,153.46L74.24,153.97L77.77,156.68L78.01,157.29L77.22,158.06L77.14,158.51L77.78,158.95L77.77,159.28L75.98,160.79L75.23,160.98L66.54,154.22L65.76,154.57L65.68,152.95L65.99,152.92z"/></g><g id="hotspot.2" onmouseover="ShowHotSpot(evt,'2')" onmouseout="HideHotSpot(evt,'2')" onmousemove="ShowToolTip(evt,'2',&quot;3dp554139&quot;)" opacity="0"><path style="fill:#00ff00;fill-rule:evenodd" d="M191.71,46.72L191.87,49.31L193.21,49.47L204.22,49.74L204.22,50.02L191.87,49.96L191.64,52.22L162.69,52.30L162.69,46.46L191.23,46.45zM238.36,61.71L238.40,62.00L237.54,62.70L236.34,62.70L223.28,57.50L223.63,56.94L218.67,54.96L218.07,55.22L216.89,54.96L205.70,50.47L204.60,50.82L204.60,49.19L206.66,49.20z"/></g><g id="hotspot.3" onmouseover="ShowHotSpot(evt,'3')" onmouseout="HideHotSpot(evt,'3')" onmousemove="ShowToolTip(evt,'3',&quot;3dp633831&quot;)" opacity="0"><path style="fill:#00ff00;fill-rule:evenodd" d="M71.24,119.05L71.18,124.55L56.94,124.78L56.78,136.09L56.51,138.13L56.22,138.13L56.29,124.78L42.22,124.63L42.22,118.79L70.77,118.78zM97.93,160.20L98.70,161.06L89.47,167.57L88.95,167.72L77.14,158.51L77.22,158.07L78.63,156.70L78.74,155.20L78.24,154.46L71.00,148.98L69.75,148.48L67.18,148.48L66.17,148.72L63.25,150.06L62.51,150.26L53.27,142.97L53.19,142.52L53.70,142.21L54.78,142.35L55.03,141.33L64.79,135.51zM55.68,138.51L57.30,138.51L57.32,138.82L56.68,140.02L56.30,140.02L55.75,139.00z"/></g><g id="hotspot.4" onmouseover="ShowHotSpot(evt,'4')" onmouseout="HideHotSpot(evt,'4')" onmousemove="ShowToolTip(evt,'4',&quot;3dp717774&quot;)" opacity="0"><path style="fill:#00ff00;fill-rule:evenodd" d="M185.75,99.13L185.74,99.40L171.25,109.66L170.51,109.85L136.98,91.67L136.99,91.40L152.19,82.14zM172.28,112.06L171.69,112.32L171.91,129.12L185.74,129.26L186.22,129.53L186.15,135.03L157.20,135.10L157.20,129.27L171.27,129.12L171.26,119.05L170.99,112.32L170.41,112.06L171.20,110.55L171.48,110.55z"/></g><g id="hotspot.5" onmouseover="ShowHotSpot(evt,'5')" onmouseout="HideHotSpot(evt,'5')" onmousemove="ShowToolTip(evt,'5',&quot;3dp544015&quot;)" opacity="0"><path style="fill:#00ff00;fill-rule:evenodd" d="M122.62,85.38L122.55,90.88L108.32,91.11L108.57,108.17L109.59,108.09L110.82,107.31L111.15,107.30L144.85,127.78L145.09,128.13L127.00,141.00L126.36,141.03L92.68,118.78L92.68,118.40L107.70,109.17L107.59,108.36L107.88,108.14L107.91,93.36L107.67,91.11L93.60,90.96L93.60,85.12L122.14,85.11z"/></g><g id="hotspot.6" onmouseover="ShowHotSpot(evt,'6')" onmouseout="HideHotSpot(evt,'6')" onmousemove="ShowToolTip(evt,'6',&quot;3dp554138&quot;)" opacity="0"><path style="fill:#00ff00;fill-rule:evenodd" d="M94.44,106.08L94.37,111.58L80.13,111.81L80.22,118.05L80.48,125.89L87.23,121.79L120.93,144.45L121.16,145.07L104.94,156.59L104.42,156.75L70.73,132.25L70.73,131.87L78.86,126.75L79.72,126.36L79.72,118.05L79.49,111.81L65.42,111.66L65.42,105.82L93.96,105.81z"/></g><g id="hotspot.7" onmouseover="ShowHotSpot(evt,'7')" onmouseout="HideHotSpot(evt,'7')" onmousemove="ShowToolTip(evt,'7',&quot;3dp717773&quot;)" opacity="0"><path style="fill:#00ff00;fill-rule:evenodd" d="M145.57,71.67L145.50,77.16L131.51,77.39L131.60,84.38L131.85,91.87L132.03,94.21L132.63,94.12L166.31,112.81L166.31,113.15L150.24,124.56L149.33,124.53L116.05,104.64L116.04,104.11L130.79,95.10L130.81,94.35L131.34,94.19L130.86,77.39L116.55,77.24L116.55,71.40L145.09,71.40z"/></g><g id="hotspot.8" onmouseover="ShowHotSpot(evt,'8')" onmouseout="HideHotSpot(evt,'8')" onmousemove="ShowToolTip(evt,'8',&quot;3dp717775&quot;)" opacity="0"><path style="fill:#00ff00;fill-rule:evenodd" d="M203.20,86.65L203.22,86.95L191.95,94.96L191.93,95.61L192.73,97.10L192.14,97.36L192.21,100.35L192.92,115.59L193.13,115.89L206.94,116.04L207.42,116.31L207.35,121.81L178.40,121.89L178.40,116.05L192.48,115.89L191.44,97.36L190.87,97.10L191.49,95.36L190.11,96.35L189.21,96.37L156.27,79.87L156.22,79.65L170.15,71.17z"/></g><g id="hotspot.9" onmouseover="ShowHotSpot(evt,'9')" onmouseout="HideHotSpot(evt,'9')" onmousemove="ShowToolTip(evt,'9',&quot;3dp717776&quot;)" opacity="0"><path style="fill:#00ff00;fill-rule:evenodd" d="M219.18,75.15L219.41,75.50L207.32,84.13L206.42,84.15L173.91,69.23L173.98,68.78L186.39,61.16L186.97,61.16zM213.18,82.64L211.32,82.90L212.30,81.12zM212.49,83.27L213.07,96.95L226.89,97.08L227.37,97.35L227.31,102.85L198.35,102.93L198.35,97.09L212.42,96.95L212.10,83.09z"/></g><g id="hotspot.10" onmouseover="ShowHotSpot(evt,'10')" onmouseout="HideHotSpot(evt,'10')" onmousemove="ShowToolTip(evt,'10',&quot;3dp544017&quot;)" opacity="0"><path style="fill:#00ff00;fill-rule:evenodd" d="M241.93,57.37L241.35,59.75L209.34,47.30L209.41,45.80L209.59,44.96L209.89,44.94zM283.49,55.95L283.42,61.45L254.47,61.53L254.32,58.19L244.01,57.71L243.84,58.25L241.93,57.37L242.50,56.94L243.84,56.47L244.01,57.01L245.83,57.20L254.32,57.54L254.47,55.69L283.01,55.68z"/></g><g id="hotspot.11" onmouseover="ShowHotSpot(evt,'11')" onmouseout="HideHotSpot(evt,'11')" onmousemove="ShowToolTip(evt,'11',&quot;3dp544018&quot;)" opacity="0"><path style="fill:#00ff00;fill-rule:evenodd" d="M198.44,36.50L198.60,39.08L216.39,39.04L216.88,38.70L217.90,39.27L219.40,39.22L230.89,43.51L230.90,43.78L228.02,45.71L233.34,47.74L234.51,47.71L237.02,45.95L237.59,45.95L250.58,50.73L250.62,51.03L244.76,55.23L244.33,55.23L212.87,43.24L212.56,42.96L216.44,40.32L216.43,39.74L198.60,39.73L198.37,42.00L169.42,42.08L169.42,36.24L197.96,36.23z"/></g><g id="hotspot.12" onmouseover="ShowHotSpot(evt,'12')" onmouseout="HideHotSpot(evt,'12')" onmousemove="ShowToolTip(evt,'12',&quot;3dp544019&quot;)" opacity="0"><path style="fill:#00ff00;fill-rule:evenodd" d="M253.30,38.00L259.32,40.20L257.46,43.25L258.27,43.24L258.48,43.53L264.55,43.57L264.69,40.48L293.24,40.47L293.71,40.74L293.65,46.24L264.69,46.32L264.55,44.22L258.48,44.24L258.28,44.81L257.81,44.76L256.82,44.22L253.54,49.05L248.82,47.48L240.08,44.21L240.09,43.84L241.37,41.95L235.26,39.70L233.84,41.82L233.10,41.76L221.79,37.56L221.89,36.84L227.38,29.01z"/></g><g id="hotspot.13" onmouseover="ShowHotSpot(evt,'13')" onmouseout="HideHotSpot(evt,'13')" onmousemove="ShowToolTip(evt,'13',&quot;3dp544020&quot;)" opacity="0"><path style="fill:#00ff00;fill-rule:evenodd" d="M215.65,22.28L215.81,24.87L227.87,24.84L228.13,24.26L229.89,25.25L228.12,26.12L227.87,25.54L215.81,25.51L215.58,27.78L186.63,27.86L186.63,22.02L215.17,22.01zM261.78,32.27L262.83,32.73L262.06,37.84L261.78,38.34L261.03,38.27L230.35,27.79L230.03,27.59L230.54,24.03L230.86,22.34L231.61,22.26z"/></g><g id="hotspot.14" onmouseover="ShowHotSpot(evt,'14')" onmouseout="HideHotSpot(evt,'14')" onmousemove="ShowToolTip(evt,'14',&quot;3dp544021&quot;)" opacity="0"><path style="fill:#00ff00;fill-rule:evenodd" d="M267.03,8.32L266.96,13.81L252.47,14.04L252.09,21.38L251.80,21.87L251.39,21.95L251.56,21.37L251.83,14.04L238.01,13.89L238.01,8.05L266.55,8.05zM237.88,20.03L238.84,20.01L242.58,21.04L244.07,21.63L244.35,21.55L249.81,23.29L251.32,23.55L250.74,22.01L251.39,21.95L252.56,22.25L251.72,23.77L256.05,25.28L259.53,26.62L259.82,26.54L264.29,28.26L264.80,28.77L265.53,28.75L266.80,29.49L266.79,30.60L265.69,30.77L264.78,30.78L233.78,20.61L233.78,19.80L234.52,19.53L236.86,19.53z"/></g><g id="hotspot.15" onmouseover="ShowHotSpot(evt,'15')" onmouseout="HideHotSpot(evt,'15')" onmousemove="ShowToolTip(evt,'15',&quot;3dp548908&quot;)" opacity="0"><path style="fill:#00ff00;fill-rule:evenodd" d="M87.26,172.88L87.50,173.51L80.24,178.79L79.75,178.93L75.87,181.64L85.22,181.74L85.37,179.40L113.91,179.39L114.39,179.66L114.32,185.16L85.37,185.24L85.22,182.39L75.66,182.42L75.49,182.96L74.40,182.62L69.17,186.43L68.77,186.40L67.50,185.14L65.76,183.89L64.26,183.40L61.25,183.40L61.26,182.74L64.52,180.38L60.02,176.38L59.69,176.38L59.18,176.92L58.30,176.90L56.02,174.90L56.03,174.16L55.05,174.18L50.55,170.18L50.03,169.91L50.03,169.16L49.06,168.92L47.05,167.19L46.55,166.93L46.55,166.03L54.03,161.03L63.94,154.68L64.26,154.69zM71.49,165.19L72.01,165.80L69.17,167.72L68.52,167.69L68.04,167.18L67.24,167.53L67.28,166.69L67.01,166.40L66.91,165.97L69.67,164.16L70.25,164.16zM78.43,178.40L77.37,178.48L77.37,178.19L77.90,177.87L78.49,177.90z"/></g><g id="hotspot.16" onmouseover="ShowHotSpot(evt,'16')" onmouseout="HideHotSpot(evt,'16')" onmousemove="ShowToolTip(evt,'16',&quot;3dp548910&quot;)" opacity="0"><path style="fill:#00ff00;fill-rule:evenodd" d="M44.60,194.88L44.57,195.19L44.25,195.42L43.83,195.37L42.57,194.34L41.99,194.35L41.27,194.86L41.49,195.70L46.72,195.62L49.31,195.46L49.46,192.37L78.00,192.36L78.48,192.63L78.41,198.13L49.46,198.20L49.31,196.11L41.49,196.38L41.33,196.92L39.83,196.35L38.98,196.35L38.49,196.65L38.09,196.62L34.83,193.88L34.32,193.60L34.24,193.15L38.84,189.95L39.32,189.85z"/></g><g id="hotspot.17" onmouseover="ShowHotSpot(evt,'17')" onmouseout="HideHotSpot(evt,'17')" onmousemove="ShowToolTip(evt,'17',&quot;3dp548912&quot;)" opacity="0"><path style="fill:#00ff00;fill-rule:evenodd" d="M40.57,173.67L41.33,174.65L43.34,176.14L46.86,179.39L47.05,180.17L47.83,180.17L48.57,180.88L50.34,182.39L50.33,182.73L48.19,184.39L47.48,184.38L42.98,187.42L42.58,187.39L37.33,182.40L36.83,182.12L36.26,182.13L35.31,182.51L34.82,182.18L29.52,181.88L29.28,184.41L0.32,184.49L0.32,178.65L28.87,178.64L29.34,178.91L29.52,181.23L29.81,181.44L34.82,181.47L35.34,180.63L31.08,176.64L31.00,176.19L38.00,171.64L38.33,171.65zM39.33,175.17L39.35,176.02L38.26,176.68L37.04,176.70L36.73,176.48L36.79,175.73L37.99,174.90L38.84,174.89zM46.58,181.48L45.22,182.43L44.70,182.40L46.26,181.37z"/></g></g></svg>
