<?xml version="1.0" encoding="UTF-8" standalone="no"?>
<svg xmlns="http://www.w3.org/2000/svg" xmlns:xlink="http://www.w3.org/1999/xlink" width="297.000mm" height="210.000mm" viewBox="0.000000 0.000000 297.000000 210.000000" stroke-linejoin="round" stroke-linecap="round" fill="none" fill-rule="evenodd"><desc>Composer Export</desc><script type="text/ecmascript"><![CDATA[
if(typeof(top) != "undefined")
{
	top.ShowPaper = ShowPaper;
}
function ShowHotSpot(evt,hotspotid)
{
	var svgDocument = evt.target.ownerDocument;
	var strId = "hotspot."+hotspotid;
	var hotspot = svgDocument.getElementById(strId);
	if(hotspot)
		hotspot.setAttribute("opacity",".5");
}
function HideHotSpot(evt,hotspotid)
{
	var svgDocument = evt.target.ownerDocument;
	var strId = "hotspot."+hotspotid;
	var hotspot = svgDocument.getElementById(strId);
	if(hotspot)
		hotspot.setAttribute("opacity","0");

	var toolTip = svgDocument.getElementById('ToolTip');
	if(toolTip)
		toolTip.setAttribute("visibility","hidden");
}
function ShowToolTip(evt,hotspotid,strTooltip)
{
	if(strTooltip=="")
	return;

	// change text
	var svgDocument = evt.target.ownerDocument;
	var tiptext = svgDocument.getElementById('ToolTipText');
	if( !tiptext )
	return;
	tiptext.firstChild.nodeValue = " " + strTooltip + "  " ;

	// show tooltip before, else some refresh issue

	var toolTip = svgDocument.getElementById('ToolTip');
	if(!toolTip)
	return;

	toolTip.setAttribute("visibility","visible");
	toolTip.setAttribute("opacity",".95");

	// move tooltip
	// get viewbox

	var root = svgDocument.documentElement;
	var vbox = (root.getAttribute("viewBox")).split(' ');
	var x0 = parseFloat(vbox[0]);
	var y0 = parseFloat(vbox[1]);
	var vboxW = parseFloat(vbox[2]);
	var vboxH = parseFloat(vbox[3]);

	// get default width of svg

	var strW = root.getAttribute("width");
	var svgW = parseFloat(strW);
	if(strW.indexOf('mm') != -1)
	svgW *= 3.779;

	var strH = root.getAttribute("height");
	var svgH = parseFloat(strH);
	if(strH.indexOf('mm') != -1)
	svgH *= 3.779;  	// 96 dpi  -> 96/25.4 = 3.779

	// update the viewbox / width / height if svg is embedded in html with zoom fit all
	var realx0 = x0;
	var realy0 = y0;
	var realvboxW = vboxW;
	var realvboxH = vboxH;
	var realsvgW = svgW;
	var realsvgH = svgH;

	if ((typeof(top) == "undefined") || (typeof(top.svgctl1) != "undefined")) // embedded in html
	{
		// get window size in pxl

		svgW = window.innerWidth;
		svgH = window.innerHeight;

		// calculate real viewbox

		realsvgW = svgW;
		realsvgH = svgH;
		if((svgW / svgH) > (vboxW / vboxH))
		{
			realvboxW = (vboxH * svgW) / svgH;
			realvboxH = vboxH;
			realx0 = x0 - (realvboxW - vboxW)/2 ;
		}
		else
		{
			realvboxH = (vboxW * svgH) / svgW;
			realvboxW = vboxW;
			realy0 = y0 - (realvboxH - vboxH)/2 ;
		}
	}

	// get user zoom/pan

	var newScale = root.currentScale;
	var translation = root.currentTranslate;

	// transform pxl to user unit

	var xPos = (((evt.clientX+10- translation.x)/newScale) * realvboxW)/realsvgW  + realx0 ;
	var yPos = (((evt.clientY+5- translation.y)/newScale) * realvboxH)/ realsvgH  + realy0 ;
	var scaleForWidth = ( (1 / newScale) * realvboxH) / realsvgH;

	// move tooltip

	toolTip.setAttribute("transform", "translate(" + xPos + "," + yPos + ")" );

	// resize tooltip

	var fontsize = 12;
	tiptext.setAttribute("font-size",fontsize*scaleForWidth);
	tiptext.setAttribute("y", fontsize*scaleForWidth);
	var tipBG = svgDocument.getElementById('ToolTipBG');
	var outline = tiptext.getBBox();
	if(tipBG)
	{
		tipBG.setAttribute("stroke-width", 1*scaleForWidth);
		tipBG.setAttribute("width", Number(outline.width) );
		tipBG.setAttribute("height", Number(outline.height) + fontsize*.5*scaleForWidth );
	}
	var ToolTipShadow = svgDocument.getElementById('ToolTipShadow');
	if(ToolTipShadow)
	{
		ToolTipShadow.setAttribute("width", Number(outline.width) );
		ToolTipShadow.setAttribute("height", Number(outline.height) + fontsize*.5*scaleForWidth );
		ToolTipShadow.setAttribute("x", 3*scaleForWidth);
		ToolTipShadow.setAttribute("y", 3*scaleForWidth);
	}
}
function ShowPaper()
{
  var svgDocument = getDocument();
  var paper = svgDocument.getElementById("paperID");
  if(paper)
  {
    paper.setAttribute("transform","scale(1)");
    paper.setAttribute("opacity","1");
    paper.setAttribute("visibility","visible");
  }
  var svg = svgDocument.getRootElement();
  if(svg)
  {
    svg.setAttribute("width","307.000mm");
    svg.setAttribute("height","220.000mm");
    svg.setAttribute("viewBox","-5.000000 -5.000000 307.000000 220.000000");
  }
}
]]></script><defs/><g><g id="Actor_114.0"><g style="stroke:#000000;stroke-width:0.123"><path d="M61.77,52.36L67.95,50.92L65.68,50.44L64.96,50.47L63.88,50.56L62.73,50.72L61.68,50.89L59.65,51.27L60.35,51.42L59.59,51.60L58.84,51.44L58.18,51.57L61.77,52.36L61.77,52.37"/><path d="M59.65,51.27L59.66,51.33L60.23,51.45"/><path d="M67.95,50.92L67.96,50.97L61.85,52.40"/><path d="M63.46,51.00L63.53,50.95L63.61,50.92L63.83,50.87L64.86,50.77L65.27,50.77L65.46,50.80L65.55,50.84"/><path d="M64.01,51.07L63.63,51.06L63.48,51.02L63.45,50.99L63.44,50.96L63.52,50.90L63.83,50.81L64.86,50.72L65.13,50.71L65.37,50.72L65.52,50.76L65.56,50.79L65.56,50.82L65.54,50.85L65.41,50.92L65.18,50.97L64.91,51.00L64.01,51.07"/></g></g><g id="Actor_118.0"><g style="stroke:#000000;stroke-width:0.123"><path d="M215.78,164.65L215.69,164.62L217.21,140.71L217.29,140.74L215.78,164.65L221.52,159.71L222.11,151.57L226.07,148.30L226.61,141.18L229.08,139.22L229.07,139.29"/><path d="M217.29,140.74L229.68,131.29L229.97,130.99L230.07,130.68L229.75,134.70"/><path d="M217.21,140.71L229.60,131.27L229.88,130.98L229.96,130.51L229.81,130.19L229.50,129.88L226.12,128.08L225.36,127.58L225.04,127.21L224.88,126.84L224.89,126.47L225.06,126.13L225.39,125.82L229.89,122.56L232.74,123.37L232.39,127.29L229.63,126.48L226.96,128.46"/><path d="M225.35,127.47L225.47,125.84L225.12,126.17L225.02,126.35L224.95,126.74L225.08,127.13L225.39,127.52L226.18,128.06L229.37,129.71L229.90,130.18L230.07,130.68"/><path d="M224.86,126.66L224.84,126.99"/><path d="M225.47,125.84L229.93,122.61L232.70,123.40"/><path d="M227.42,132.93L227.41,132.92"/><path d="M229.08,139.22L229.38,135.32L229.66,135.00L235.36,130.56L235.72,130.20L235.89,129.81L235.83,129.18L235.57,128.77L235.14,128.37L234.23,127.82L232.68,127.28"/><path d="M229.01,139.34L228.99,139.29"/><path d="M232.72,127.25L234.29,127.80L234.94,128.16L235.45,128.55L235.80,128.97L235.98,129.40L235.99,129.77L235.80,130.22L235.45,130.58L229.39,135.30L229.70,131.28"/><path d="M229.72,134.87L229.68,134.99"/><path d="M229.63,126.48L229.93,122.61"/><path d="M232.39,127.29L232.74,123.37"/><path d="M234.05,131.56L234.05,131.58"/><path d="M236.01,129.61L235.65,133.75L235.53,134.05"/></g></g><g id="Actor_126.0"><g style="stroke:#000000;stroke-width:0.123"><path d="M85.51,72.15L85.39,72.69L79.49,74.49L240.03,118.11L244.99,114.52L245.14,113.71L85.51,72.15L245.14,113.71"/><path d="M240.03,118.11L245.00,114.44L245.10,113.74"/></g></g><g id="Actor_112.0"><g style="stroke:#000000;stroke-width:0.123"><path d="M216.36,164.15L244.32,173.99L244.31,174.07L216.29,164.21"/><path d="M220.34,161.74L220.43,161.60L220.68,161.48L221.23,161.46L221.72,161.64L221.83,161.73L221.90,161.90"/><path d="M220.83,162.14L220.52,161.99L220.35,161.80L220.36,161.61L220.54,161.45L220.86,161.37L221.42,161.42L221.73,161.56L221.90,161.75L221.92,161.85L221.82,162.03L221.56,162.16L221.21,162.20L220.83,162.14"/><path d="M244.32,173.99L243.56,173.21L243.23,172.65L243.04,172.07L243.02,171.38L243.19,170.66L243.47,170.05L243.85,169.46L244.84,168.25L221.52,159.71"/><path d="M244.84,168.25L244.83,168.33L243.85,169.54L243.46,170.13L243.18,170.74L243.02,171.42"/></g></g><g id="Actor_122.0"><g style="stroke:#000000;stroke-width:0.123"><path d="M213.72,139.67L47.20,84.56L46.85,84.45L46.69,83.88L213.71,138.88L213.68,139.51L215.11,139.62L215.27,140.18L217.04,140.77L229.86,130.85L217.12,140.68L217.12,139.95L215.27,139.39L215.11,139.62"/><path d="M213.71,138.88L46.69,83.88"/><path d="M232.74,123.41L240.03,118.11L79.49,74.49L47.63,84.15"/><path d="M64.73,79.34L71.64,81.40L77.74,79.48L70.81,77.49L64.73,79.34"/><path d="M64.83,79.37L70.81,77.49"/><path d="M70.82,77.54L77.64,79.51"/><path d="M214.15,139.28L213.77,139.57L213.76,138.85"/><path d="M214.15,139.37L215.11,139.68"/><path d="M215.13,139.35L217.12,139.95"/><path d="M217.04,140.77L217.07,139.99"/><path d="M232.89,123.37L229.77,122.56L224.82,126.39L225.28,127.59L229.25,129.77L229.87,130.77"/><path d="M224.77,126.67L225.30,125.87L229.85,122.50"/><path d="M232.88,123.45L240.03,118.11"/></g></g><g id="Actor_111.0"><g style="stroke:#000000;stroke-width:0.123"><path d="M222.16,151.53L245.77,159.78L245.76,159.86L222.11,151.59"/><path d="M226.01,148.35L244.78,154.73"/><path d="M245.76,159.86L248.97,156.24L248.97,156.16L248.28,155.93"/><path d="M245.77,159.78L248.97,156.16"/></g></g><g id="Actor_116.0"><g style="stroke:#000000;stroke-width:0.123"><path d="M227.40,132.94L227.39,132.94"/><path d="M229.68,126.50L227.00,128.48"/><path d="M229.69,134.95L235.25,130.62L235.44,130.46L235.59,130.28L235.69,130.09L235.76,129.90L235.78,129.69"/><path d="M235.78,129.70L235.79,129.62L235.77,129.82L235.70,130.01L235.59,130.20L235.44,130.38L235.25,130.55L229.72,134.85"/><path d="M232.39,127.29L233.42,127.61L233.80,127.75L234.16,127.90L234.78,128.24L235.04,128.43L235.26,128.62L235.45,128.81L235.59,129.01L235.71,129.23L235.77,129.42L235.79,129.62"/></g></g><g id="Actor_117.0"><g style="stroke:#000000;stroke-width:0.123"><path d="M232.55,127.34L232.86,123.47L232.94,123.50L232.63,127.36"/><path d="M232.94,123.50L244.92,114.66L244.56,118.44L246.10,122.51"/><path d="M232.86,123.47L244.84,114.64L244.92,114.66"/><path d="M241.36,119.38L241.37,119.19L241.34,119.11L241.30,119.11L241.22,119.17L241.14,119.36L241.13,119.55L241.16,119.63L241.25,119.60L241.36,119.38"/><path d="M241.28,119.11L241.30,119.21L241.28,119.36L241.22,119.51L241.14,119.61"/><path d="M242.70,118.93L242.75,118.93L242.84,118.85L242.96,118.58L243.00,118.29L242.98,118.20L242.93,118.14L242.85,118.16L242.79,118.22L242.67,118.49L242.63,118.78L242.66,118.90L242.70,118.93"/><path d="M242.67,118.91L242.79,118.79L242.89,118.56L242.92,118.32L242.88,118.14"/></g></g><g id="Actor_124.0"><g style="stroke:#000000;stroke-width:0.123"><path d="M52.82,73.35L61.46,75.82L79.04,70.67L70.38,68.41L62.91,59.88L61.85,52.41L61.78,52.38L28.57,60.12L29.97,67.93L30.88,68.32L30.02,68.06L29.93,67.92L28.54,60.16L28.63,60.09"/><path d="M28.57,60.12L28.53,60.12"/><path d="M30.88,68.32L30.89,68.32"/><path d="M30.87,68.26L46.08,64.40L45.22,64.16"/><path d="M45.20,64.14L45.17,64.09"/><path d="M46.00,64.48L46.08,64.40"/><path d="M46.48,65.77L46.34,65.61L46.39,65.58L49.36,69.09L49.31,69.12L46.48,65.77"/><path d="M46.13,65.36L46.34,65.61L46.16,64.46L46.09,64.44"/><path d="M46.39,65.58L46.16,64.46"/><path d="M46.21,64.44L46.09,64.41"/><path d="M48.43,68.08L49.31,69.12"/><path d="M49.37,69.09L52.30,69.94L52.73,73.06L52.89,73.25L52.68,73.08L52.25,69.95L49.33,69.15"/><path d="M52.68,73.08L52.73,73.06"/><path d="M52.84,73.26L52.83,73.31"/><path d="M52.93,73.28L52.84,73.30L52.49,72.88"/><path d="M52.89,73.25L52.91,73.28"/><path d="M52.62,70.38L54.61,72.78L59.18,74.12L65.92,72.19L61.37,70.93L59.32,68.55L52.62,70.38"/><path d="M52.61,70.42L59.31,68.60L61.34,70.96L65.82,72.21"/><path d="M52.25,69.95L52.30,69.94"/><path d="M59.31,68.60L59.32,68.55"/><path d="M61.83,52.36L61.84,52.36"/></g></g><g id="Actor_123.0"><g style="stroke:#000000;stroke-width:0.123"><path d="M46.37,81.15L61.54,76.70L46.37,81.15L46.77,83.87"/><path d="M46.41,81.16L46.81,83.88"/><path d="M47.60,84.14L85.51,72.64L85.14,68.90L61.40,75.84L61.50,76.68"/><path d="M61.54,76.70L61.40,75.84"/><path d="M61.43,75.85L85.14,68.90"/></g></g><g id="Actor_119.0"><g style="stroke:#000000;stroke-width:0.123"><path d="M249.96,148.80L226.72,141.24L226.72,141.16L262.39,152.76L262.31,152.82"/><path d="M226.72,141.16L235.32,134.30L235.69,133.72L235.70,133.18"/><path d="M235.72,133.58L235.69,133.26"/><path d="M235.93,130.45L246.17,122.46L248.84,123.20L248.57,123.41L274.65,130.71L271.28,133.91L272.14,134.56L271.82,134.87L264.09,132.65L258.43,137.87"/><path d="M241.11,130.04L240.86,130.09L240.60,129.96L240.87,129.86L241.13,129.98L240.62,129.98"/><path d="M242.75,129.05L242.68,128.99L242.86,128.90L243.12,129.00L243.06,129.08L242.75,129.05"/><path d="M242.70,129.01L243.10,129.05"/><path d="M244.01,127.44L243.89,127.35L244.02,127.25L244.42,127.37L244.29,127.46L244.01,127.44"/><path d="M243.91,127.37L244.15,127.32L244.39,127.43"/><path d="M248.58,132.36L248.37,132.30L248.33,132.17L248.58,132.13L248.85,132.25L248.58,132.36"/><path d="M248.83,132.32L248.57,132.21L248.32,132.25"/><path d="M248.64,123.43L248.84,123.20"/><path d="M251.71,129.44L251.99,129.50L252.04,129.62L251.72,129.65L251.53,129.54L251.71,129.44"/><path d="M252.04,129.62L251.78,129.52L251.54,129.56"/><path d="M257.68,146.65L258.34,146.86L257.68,147.48L257.02,147.27L257.68,146.65L257.67,146.73L258.27,146.92"/><path d="M257.67,146.73L257.08,147.29"/><path d="M264.09,132.65L258.37,137.85L266.70,140.34L271.00,136.21L278.03,138.24L277.67,138.79L274.89,138.07L274.77,138.30"/><path d="M261.25,148.69L260.63,148.33L260.43,148.02L260.55,147.64L261.07,147.39L261.87,147.34L262.73,147.50L263.42,147.83L263.75,148.23L263.71,148.53L263.54,148.70L262.93,148.90L262.08,148.90L261.25,148.69"/><path d="M263.75,148.42L263.63,148.11L263.26,147.82L262.72,147.58L262.08,147.44L261.44,147.42L260.90,147.52L260.57,147.69L260.42,147.93"/><path d="M261.09,141.36L261.73,140.69L261.03,141.34L264.17,142.30L264.86,141.63L261.73,140.69"/><path d="M262.38,152.84L263.95,151.56L263.96,151.48L262.55,150.97L262.77,150.80L264.25,151.33L264.24,151.42L262.76,150.88L262.62,150.99"/><path d="M263.96,151.48L262.39,152.76"/><path d="M261.72,140.77L264.80,141.70"/><path d="M262.76,150.88L262.77,150.80"/><path d="M264.25,151.33L266.38,149.47L269.32,146.69L271.98,143.92L274.36,141.18L272.84,140.73L273.19,140.38L273.17,140.47L274.56,140.88L276.20,138.67L274.72,138.29L274.89,138.07"/><path d="M264.24,151.42L267.38,148.62L270.23,145.85L272.79,143.09L274.36,141.18"/><path d="M264.67,140.69L265.22,140.10L264.62,140.68L266.11,141.13L266.72,140.54L265.22,140.10"/><path d="M264.08,132.73L271.81,134.95L271.82,134.87"/><path d="M265.21,140.18L266.65,140.61"/><path d="M274.65,130.71L271.32,133.94"/><path d="M271.81,134.95L272.14,134.56"/><path d="M273.19,140.38L274.57,140.79"/><path d="M273.17,140.47L272.89,140.75"/><path d="M273.93,137.92L273.34,137.79L273.08,137.95L273.28,138.13L273.68,138.22L274.00,138.14L274.04,138.06L273.93,137.92"/><path d="M274.02,138.12L273.84,137.96L273.54,137.88L273.09,137.97"/><path d="M274.56,140.88L276.20,138.67"/><path d="M274.88,138.15L277.66,138.87L277.67,138.79"/><path d="M277.66,138.87L278.03,138.24"/></g></g><g id="Actor_113.0"><g style="stroke:#000000;stroke-width:0.123"><path d="M28.55,60.11L26.48,59.55L26.43,59.49L26.70,59.25L27.49,58.88L29.98,58.11L30.89,57.87L31.57,58.04L32.44,57.84L31.71,57.65L41.29,55.29L41.60,55.36L42.21,55.22L41.90,55.15L41.91,55.20L42.09,55.24"/><path d="M26.43,59.49L28.65,60.10"/><path d="M28.65,60.08L61.77,52.36L58.17,51.57L49.37,53.44L49.38,53.50L49.54,53.54"/><path d="M28.53,59.27L28.92,59.16L29.33,59.19"/><path d="M28.55,59.19L28.52,59.26L28.82,59.30L29.34,59.18L29.29,59.11L29.03,59.10L28.55,59.19"/><path d="M32.33,57.87L31.72,57.71L31.71,57.65"/><path d="M41.90,55.15L48.76,53.58L49.06,53.65L49.65,53.51L49.37,53.44"/><path d="M61.77,52.36L61.77,52.37"/></g></g><g id="Actor_121.0"><g style="stroke:#000000;stroke-width:0.123"><path d="M37.00,74.07L52.09,70.00L37.00,74.07L37.65,78.16L37.71,78.28L37.73,78.29L37.66,78.19L37.59,77.72L37.64,77.71L46.27,80.46L46.38,80.99L61.39,76.57L61.43,76.53L61.35,75.86L61.39,75.84L52.68,73.31L52.63,73.32L61.35,75.86"/><path d="M37.73,78.28L46.37,81.05L46.29,80.96L46.22,80.48L37.59,77.72"/><path d="M37.04,74.08L37.61,77.72"/><path d="M37.73,78.29L37.76,78.29"/><path d="M41.33,77.14L41.35,77.19L41.75,77.32L46.01,76.12L45.63,76.01L45.59,75.94L45.21,73.41L40.94,74.59L41.33,77.14"/><path d="M45.91,76.15L45.64,76.06L45.56,75.97L45.18,73.42"/><path d="M46.37,81.05L61.39,76.63L61.48,76.50"/><path d="M46.22,80.48L46.27,80.46"/><path d="M52.63,73.32L52.72,73.95L52.68,74.02L52.63,73.95L52.09,70.00"/></g></g><g id="Actor_120.0"><g style="stroke:#000000;stroke-width:0.123"><path d="M31.50,71.90L30.91,68.29L46.00,64.46L30.88,68.28L30.91,68.29"/><path d="M31.48,71.91L31.53,71.89L36.87,73.52L36.81,73.54L31.48,71.91L31.56,72.37L31.63,72.46L31.60,72.46L31.54,72.34L30.88,68.28"/><path d="M37.01,74.10L31.63,72.46"/><path d="M31.63,72.47L31.66,72.47"/><path d="M36.81,73.54L36.90,74.07L36.88,74.01"/><path d="M45.40,69.83L36.78,72.13L39.76,73.03L48.39,70.69L45.40,69.83L45.41,69.89L36.89,72.17"/><path d="M36.97,74.10L36.90,74.07"/><path d="M36.87,73.52L36.95,74.04L36.91,74.07"/><path d="M36.94,74.01L37.00,74.04L51.95,69.98L52.00,69.92L52.05,69.91L49.14,69.09L46.26,65.68L46.21,65.70L49.08,69.09L49.14,69.09"/><path d="M45.41,69.89L48.30,70.72"/><path d="M46.60,68.44L46.00,64.46"/><path d="M46.56,68.47L46.61,68.40L46.21,65.70"/><path d="M49.09,69.10L52.00,69.92"/><path d="M52.05,69.91L52.02,70.00"/></g></g><g id="Actor_125.0"><g style="stroke:#000000;stroke-width:0.123"><path d="M62.16,54.64L61.85,52.41L67.97,50.98L68.32,51.02L69.27,58.12L76.45,66.25L85.05,68.40L85.08,68.90L79.04,70.67L70.38,68.41L62.91,59.88L62.16,54.64"/><path d="M76.41,66.70L76.36,66.71L76.40,66.68L76.45,66.25L76.50,66.23L69.31,58.11L69.02,58.29L68.95,58.30"/><path d="M68.97,58.35L69.02,58.29"/><path d="M69.00,58.32L68.99,58.29"/><path d="M69.31,58.11L68.36,51.01L67.95,50.97"/><path d="M68.32,51.02L68.36,51.01"/><path d="M76.42,66.66L76.38,66.72"/><path d="M76.50,66.23L85.10,68.39L85.05,68.40"/><path d="M85.10,68.39L85.13,68.90"/></g></g><g id="Actor_115.0"><g style="stroke:#000000;stroke-width:0.123"><path d="M244.86,158.08L245.29,158.57L245.66,158.91L246.56,158.05L246.57,157.96L245.67,158.82L244.99,158.15L244.72,157.80L244.50,157.45L244.34,157.11L244.23,156.76L244.18,156.42L244.18,156.08L244.17,156.51L244.23,156.85L244.33,157.19L244.49,157.54L244.86,158.08"/><path d="M244.18,156.08L244.24,155.77L244.35,155.44L244.51,155.14L245.39,153.88L246.41,152.67L249.96,148.80L262.31,152.82L262.30,152.90L261.25,153.76L261.26,153.67L259.85,153.15L259.84,153.24L259.66,153.38"/><path d="M245.67,158.82L245.66,158.91"/><path d="M246.35,157.69L246.30,157.73L246.35,157.77L248.92,155.32L253.66,153.51L254.77,153.38L255.33,153.36L255.70,153.39L261.47,155.06L261.48,154.97L255.71,153.30L255.34,153.28L254.78,153.29L253.67,153.43L248.93,155.23L246.35,157.69"/><path d="M246.57,157.96L246.35,157.77"/><path d="M251.17,149.42L251.00,149.32L250.79,149.32L250.72,149.36"/><path d="M250.72,149.37L250.89,149.45L251.00,149.47L251.10,149.46L251.20,149.38L251.11,149.28L250.90,149.23L250.73,149.27L250.70,149.32L250.72,149.37"/><path d="M261.47,155.06L262.30,154.44L262.31,154.36L259.60,153.36L259.85,153.15"/><path d="M259.84,153.24L261.25,153.76"/><path d="M261.26,153.67L262.31,152.82"/><path d="M261.48,154.97L262.31,154.36"/></g></g><g id="PMI114.0"><g><path style="stroke:#000000;stroke-width:0.281" d="M69.79,42.73L66.61,42.73L65.09,48.49"/></g><g><path style="fill:#000000" d="M64.13,48.24L66.06,48.75L64.58,50.43z"/></g><g><path style="fill:#ffffff" d="M69.16,45.27L86.02,45.27L86.02,40.19L69.16,40.19z"/><path style="stroke:#000000;stroke-width:0.281;stroke-opacity:0.98" d="M69.16,45.27L86.02,45.27L86.02,40.19L69.16,40.19z"/><text xml:space="preserve" fill="#000000" stroke-width="0" x="69.79" y="43.84" font-size="3.05" opacity="1.00" font-family="Microsoft Sans Serif">1600037K1</text></g></g><g id="PMI125.0"><g><path style="stroke:#000000;stroke-width:0.281" d="M84.60,61.65L81.42,61.65L80.22,65.78"/></g><g><path style="fill:#000000" d="M79.27,65.50L81.19,66.06L79.67,67.70z"/></g><g><path style="fill:#ffffff" d="M83.97,64.20L99.61,64.20L99.61,59.12L83.97,59.12z"/><path style="stroke:#000000;stroke-width:0.281;stroke-opacity:0.98" d="M83.97,64.20L99.61,64.20L99.61,59.12L83.97,59.12z"/><text xml:space="preserve" fill="#000000" stroke-width="0" x="84.60" y="62.77" font-size="3.04" opacity="1.00" font-family="Microsoft Sans Serif">10014ZQ0</text></g></g><g id="PMI113.0"><g><path style="stroke:#000000;stroke-width:0.281" d="M38.89,40.25L42.07,40.25L45.39,52.59"/></g><g><path style="fill:#000000" d="M44.45,52.87L46.38,52.35L45.93,54.54z"/></g><g><path style="fill:#ffffff" d="M23.91,42.81L39.56,42.81L39.56,37.73L23.91,37.73z"/><path style="stroke:#000000;stroke-width:0.281;stroke-opacity:0.98" d="M23.91,42.81L39.56,42.81L39.56,37.73L23.91,37.73z"/><text xml:space="preserve" fill="#000000" stroke-width="0" x="24.54" y="41.38" font-size="3.05" opacity="1.00" font-family="Microsoft Sans Serif">1600037I1</text></g></g><g id="PMI124.0"><g><path style="stroke:#000000;stroke-width:0.281" d="M36.90,46.83L40.08,46.83L42.15,55.60"/></g><g><path style="fill:#000000" d="M41.21,55.84L43.16,55.38L42.64,57.56z"/></g><g><path style="fill:#ffffff" d="M22.26,49.39L37.56,49.39L37.56,44.31L22.26,44.31z"/><path style="stroke:#000000;stroke-width:0.281;stroke-opacity:0.98" d="M22.26,49.39L37.56,49.39L37.56,44.31L22.26,44.31z"/><text xml:space="preserve" fill="#000000" stroke-width="0" x="22.90" y="47.96" font-size="3.04" opacity="1.00" font-family="Microsoft Sans Serif">10014ZP0</text></g></g><g id="PMI120.0"><g><path style="stroke:#000000;stroke-width:0.281" d="M31.44,53.41L34.62,53.41L37.72,65.21"/></g><g><path style="fill:#000000" d="M36.78,65.47L38.72,64.97L38.26,67.16z"/></g><g><path style="fill:#ffffff" d="M17.33,55.97L32.11,55.97L32.11,50.89L17.33,50.89z"/><path style="stroke:#000000;stroke-width:0.281;stroke-opacity:0.98" d="M17.33,55.97L32.11,55.97L32.11,50.89L17.33,50.89z"/><text xml:space="preserve" fill="#000000" stroke-width="0" x="17.96" y="54.54" font-size="3.04" opacity="1.00" font-family="Microsoft Sans Serif">1000JPJ0</text></g></g><g id="PMI121.0"><g><path style="stroke:#000000;stroke-width:0.281" d="M36.60,85.51L39.77,85.51L41.39,81.10"/></g><g><path style="fill:#000000" d="M42.35,81.44L40.47,80.76L42.10,79.22z"/></g><g><path style="fill:#ffffff" d="M21.44,88.05L37.26,88.05L37.26,82.98L21.44,82.98z"/><path style="stroke:#000000;stroke-width:0.281;stroke-opacity:0.98" d="M21.44,88.05L37.26,88.05L37.26,82.98L21.44,82.98z"/><text xml:space="preserve" fill="#000000" stroke-width="0" x="22.08" y="86.63" font-size="3.05" opacity="1.00" font-family="Microsoft Sans Serif">1000JPM0</text></g></g><g id="PMI123.0"><g><path style="stroke:#000000;stroke-width:0.281" d="M40.64,92.64L43.81,92.64L47.11,84.10"/></g><g><path style="fill:#000000" d="M48.07,84.46L46.20,83.74L47.85,82.24z"/></g><g><path style="fill:#ffffff" d="M25.83,95.18L41.30,95.18L41.30,90.11L25.83,90.11z"/><path style="stroke:#000000;stroke-width:0.281;stroke-opacity:0.98" d="M25.83,95.18L41.30,95.18L41.30,90.11L25.83,90.11z"/><text xml:space="preserve" fill="#000000" stroke-width="0" x="26.46" y="93.76" font-size="3.04" opacity="1.00" font-family="Microsoft Sans Serif">10014ZN0</text></g></g><g id="PMI126.0"><g><path style="stroke:#000000;stroke-width:0.281" d="M152.07,82.77L148.89,82.77L147.52,86.66"/></g><g><path style="fill:#000000" d="M146.58,86.33L148.46,86.99L146.85,88.55z"/></g><g><path style="fill:#ffffff" d="M151.43,85.31L167.25,85.31L167.25,80.23L151.43,80.23z"/><path style="stroke:#000000;stroke-width:0.281;stroke-opacity:0.98" d="M151.43,85.31L167.25,85.31L167.25,80.23L151.43,80.23z"/><text xml:space="preserve" fill="#000000" stroke-width="0" x="152.07" y="83.88" font-size="3.04" opacity="1.00" font-family="Microsoft Sans Serif">10014ZM0</text></g></g><g id="PMI122.0"><g><path style="stroke:#000000;stroke-width:0.281" d="M103.21,110.75L106.39,110.75L107.65,106.11"/></g><g><path style="fill:#000000" d="M108.63,106.37L106.70,105.84L108.19,104.18z"/></g><g><path style="fill:#ffffff" d="M88.90,113.28L103.86,113.28L103.86,108.21L88.90,108.21z"/><path style="stroke:#000000;stroke-width:0.281;stroke-opacity:0.98" d="M88.90,113.28L103.86,113.28L103.86,108.21L88.90,108.21z"/><text xml:space="preserve" fill="#000000" stroke-width="0" x="89.54" y="111.86" font-size="3.04" opacity="1.00" font-family="Microsoft Sans Serif">10014ZL0</text></g></g><g id="PMI119.0"><g><path style="stroke:#000000;stroke-width:0.281" d="M254.37,115.96L251.19,115.96L249.21,122.29"/></g><g><path style="fill:#000000" d="M248.24,121.99L250.15,122.59L248.60,124.20z"/></g><g><path style="fill:#ffffff" d="M253.72,118.50L270.93,118.50L270.93,113.42L253.72,113.42z"/><path style="stroke:#000000;stroke-width:0.281;stroke-opacity:0.98" d="M253.72,118.50L270.93,118.50L270.93,113.42L253.72,113.42z"/><text xml:space="preserve" fill="#000000" stroke-width="0" x="254.36" y="117.07" font-size="3.05" opacity="1.00" font-family="Microsoft Sans Serif">1600037Q1</text></g></g><g id="PMI117.0"><g><path style="stroke:#000000;stroke-width:0.281" d="M247.51,107.18L244.34,107.18L241.98,116.23"/></g><g><path style="fill:#000000" d="M241.00,115.98L242.94,116.48L241.47,118.16z"/></g><g><path style="fill:#ffffff" d="M246.87,109.72L263.89,109.72L263.89,104.64L246.87,104.64z"/><path style="stroke:#000000;stroke-width:0.281;stroke-opacity:0.98" d="M246.87,109.72L263.89,109.72L263.89,104.64L246.87,104.64z"/><text xml:space="preserve" fill="#000000" stroke-width="0" x="247.50" y="108.29" font-size="3.05" opacity="1.00" font-family="Microsoft Sans Serif">1000HWU0</text></g></g><g id="PMI116.0"><g><path style="stroke:#000000;stroke-width:0.281" d="M240.13,100.05L236.95,100.05L231.24,125.82"/></g><g><path style="fill:#000000" d="M230.23,125.59L232.18,126.03L230.77,127.76z"/></g><g><path style="fill:#ffffff" d="M239.46,102.59L256.14,102.59L256.14,97.51L239.46,97.51z"/><path style="stroke:#000000;stroke-width:0.281;stroke-opacity:0.98" d="M239.46,102.59L256.14,102.59L256.14,97.51L239.46,97.51z"/><text xml:space="preserve" fill="#000000" stroke-width="0" x="240.10" y="101.16" font-size="3.05" opacity="1.00" font-family="Microsoft Sans Serif">1000HWT0</text></g></g><g id="PMI112.0"><g><path style="stroke:#000000;stroke-width:0.281" d="M222.52,174.11L225.70,174.11L227.15,169.72"/></g><g><path style="fill:#000000" d="M228.08,170.01L226.18,169.39L227.75,167.80z"/></g><g><path style="fill:#ffffff" d="M206.28,176.63L223.14,176.63L223.14,171.55L206.28,171.55z"/><path style="stroke:#000000;stroke-width:0.281;stroke-opacity:0.98" d="M206.28,176.63L223.14,176.63L223.14,171.55L206.28,171.55z"/><text xml:space="preserve" fill="#000000" stroke-width="0" x="206.91" y="175.21" font-size="3.05" opacity="1.00" font-family="Microsoft Sans Serif">1600037V1</text></g></g><g id="PMI118.0"><g><path style="stroke:#000000;stroke-width:0.281" d="M211.97,152.10L214.80,151.99"/></g><g><path style="fill:#000000" d="M214.83,152.97L214.75,150.98L216.79,151.89z"/></g><g><path style="fill:#ffffff" d="M194.76,154.97L211.96,154.97L211.96,149.89L194.76,149.89z"/><path style="stroke:#000000;stroke-width:0.281;stroke-opacity:0.98" d="M194.76,154.97L211.96,154.97L211.96,149.89L194.76,149.89z"/><text xml:space="preserve" fill="#000000" stroke-width="0" x="195.39" y="153.54" font-size="3.05" opacity="1.00" font-family="Microsoft Sans Serif">1000HWQ0</text></g></g><g id="PMI111.0"><g><path style="stroke:#000000;stroke-width:0.281" d="M251.63,168.07L248.45,168.07L244.84,160.82"/></g><g><path style="fill:#000000" d="M245.72,160.37L243.93,161.26L243.93,159.02z"/></g><g><path style="fill:#ffffff" d="M250.98,170.60L268.01,170.60L268.01,165.52L250.98,165.52z"/><path style="stroke:#000000;stroke-width:0.281;stroke-opacity:0.98" d="M250.98,170.60L268.01,170.60L268.01,165.52L250.98,165.52z"/><text xml:space="preserve" fill="#000000" stroke-width="0" x="251.61" y="169.17" font-size="3.05" opacity="1.00" font-family="Microsoft Sans Serif">1600037U1</text></g></g><g id="PMI115.0"><g><path style="stroke:#000000;stroke-width:0.281" d="M258.75,159.29L255.58,159.29L253.40,155.30"/></g><g><path style="fill:#000000" d="M254.27,154.82L252.52,155.77L252.44,153.54z"/></g><g><path style="fill:#ffffff" d="M258.11,161.82L275.14,161.82L275.14,156.75L258.11,156.75z"/><path style="stroke:#000000;stroke-width:0.281;stroke-opacity:0.98" d="M258.11,161.82L275.14,161.82L275.14,156.75L258.11,156.75z"/><text xml:space="preserve" fill="#000000" stroke-width="0" x="258.74" y="160.40" font-size="3.05" opacity="1.00" font-family="Microsoft Sans Serif">1600037R1</text></g></g><g/><g id="paperID" visibility="hidden" opacity="0.00" transform="scale(0.000100)"><path style="stroke:#000000;stroke-width:0.500;fill:#e6e6e6;fill-rule:evenodd" d="M-2000.00,-2000.00L2297.00,-2000.00L2297.00,2210.00L-2000.00,2210.00zM0.00,0.00L297.00,0.00L297.00,210.00L0.00,210.00z"/><path style="fill:#000000;fill-opacity:0.118" d="M3.00,210.00L297.00,210.00L297.00,3.00L300.00,3.00L300.00,213.00L3.00,213.00z"/></g><g id="hotspot.0" onmouseover="ShowHotSpot(evt,'0')" onmouseout="HideHotSpot(evt,'0')" onmousemove="ShowToolTip(evt,'0',&quot;3dp2667895&quot;)" opacity="0"><path style="fill:#00ff00;fill-rule:evenodd" d="M244.54,154.78L244.57,155.39L244.13,156.13L244.52,157.79L245.38,158.89L245.78,158.89L248.24,156.13L248.90,156.40L246.22,159.56L244.98,159.96L245.62,160.60L243.97,161.45L243.70,159.43L238.49,157.51L222.20,151.73L225.78,148.70L226.70,148.72zM250.85,168.03L251.01,165.72L268.12,165.72L268.12,170.77L251.01,170.77L250.85,168.46L248.25,168.25L248.33,167.94z"/></g><g id="hotspot.1" onmouseover="ShowHotSpot(evt,'1')" onmouseout="HideHotSpot(evt,'1')" onmousemove="ShowToolTip(evt,'1',&quot;3dp2667896&quot;)" opacity="0"><path style="fill:#00ff00;fill-rule:evenodd" d="M244.80,168.47L244.27,169.13L243.14,171.02L243.15,172.60L243.99,173.98L243.45,173.99L228.08,168.45L228.12,170.19L227.09,170.02L226.32,169.56L227.30,168.55L227.27,168.22L216.44,164.35L221.40,159.94L221.75,159.95zM226.00,173.62L225.70,174.14L225.97,173.32zM223.31,174.06L225.70,174.14L225.61,174.33L223.31,174.50L223.15,176.80L206.31,176.80L206.31,171.75L223.15,171.75zM221.80,161.93L221.81,162.24L220.35,162.15L220.31,161.89L221.23,161.58z"/></g><g id="hotspot.2" onmouseover="ShowHotSpot(evt,'2')" onmouseout="HideHotSpot(evt,'2')" onmousemove="ShowToolTip(evt,'2',&quot;3dp2667898&quot;)" opacity="0"><path style="fill:#00ff00;fill-rule:evenodd" d="M39.85,40.23L42.15,40.39L42.26,40.83L41.89,40.66L39.85,40.67L39.68,42.97L23.94,42.97L23.94,37.93L39.68,37.93zM42.51,41.96L42.26,40.83L42.41,40.96zM42.77,43.06L42.51,41.96L42.67,42.07zM43.06,43.87L42.77,43.06L42.94,43.17zM43.33,44.98L43.06,43.87L43.22,43.99zM43.60,46.07L43.33,44.98L43.49,45.09zM43.87,47.18L43.60,46.07L43.76,46.19zM44.16,47.98L43.87,47.18L44.03,47.29zM44.43,49.09L44.16,47.98L44.31,48.10zM44.69,50.19L44.43,49.09L44.58,49.20zM44.98,51.00L44.69,50.19L44.86,50.30zM61.64,52.47L29.16,60.17L28.15,60.17L26.42,59.61L29.98,58.22L31.97,58.02L32.21,57.71L45.74,54.39L44.54,53.02L45.14,52.83L45.25,52.13L46.26,52.78L46.15,54.22L57.14,51.93L59.14,51.92zM45.25,52.13L44.98,51.00L45.14,51.12z"/></g><g id="hotspot.3" onmouseover="ShowHotSpot(evt,'3')" onmouseout="HideHotSpot(evt,'3')" onmousemove="ShowToolTip(evt,'3',&quot;3dp2667899&quot;)" opacity="0"><path style="fill:#00ff00;fill-rule:evenodd" d="M66.75,43.16L66.36,43.88L66.45,42.86L69.03,42.70L69.19,40.39L86.03,40.39L86.03,45.44L69.19,45.44L69.03,43.14zM65.38,48.72L65.98,48.91L64.63,50.40L64.34,49.45L64.26,48.66L65.26,48.01zM67.94,51.11L62.06,52.49L60.23,52.21L59.24,51.84L59.94,51.63L59.91,51.36L62.89,50.83L66.82,50.83z"/></g><g id="hotspot.4" onmouseover="ShowHotSpot(evt,'4')" onmouseout="HideHotSpot(evt,'4')" onmousemove="ShowToolTip(evt,'4',&quot;3dp2667906&quot;)" opacity="0"><path style="fill:#00ff00;fill-rule:evenodd" d="M251.28,149.57L251.64,149.55L262.10,153.08L262.01,153.37L260.89,153.95L262.35,154.49L261.72,155.08L260.99,155.06L256.04,153.67L253.76,153.66L252.95,153.95L253.00,154.18L254.13,155.01L253.57,155.92L253.32,155.66L252.67,155.69L252.48,154.19L250.75,154.76L248.52,155.83L245.78,158.89L245.38,158.89L244.52,157.79L244.13,156.14L246.32,152.81L248.91,150.19L249.88,149.01zM257.98,159.25L258.14,156.95L275.25,156.95L275.25,161.99L258.14,161.99L257.98,159.69L255.38,159.47L255.46,159.16z"/></g><g id="hotspot.5" onmouseover="ShowHotSpot(evt,'5')" onmouseout="HideHotSpot(evt,'5')" onmousemove="ShowToolTip(evt,'5',&quot;3dp3132842&quot;)" opacity="0"><path style="fill:#00ff00;fill-rule:evenodd" d="M237.03,100.46L236.67,101.47L236.75,100.18L239.33,100.02L239.49,97.71L256.33,97.71L256.33,102.76L239.49,102.76L239.33,100.45zM231.58,126.04L231.91,126.28L231.95,126.59L231.54,127.05L231.86,127.36L233.83,127.89L235.21,128.70L235.78,129.54L235.79,130.17L235.37,130.61L229.99,134.86L230.01,130.61L229.70,130.10L227.15,128.69L229.43,126.87L230.24,126.58L230.49,126.00L231.07,125.76L231.45,124.77z"/></g><g id="hotspot.6" onmouseover="ShowHotSpot(evt,'6')" onmouseout="HideHotSpot(evt,'6')" onmousemove="ShowToolTip(evt,'6',&quot;3dp3132843&quot;)" opacity="0"><path style="fill:#00ff00;fill-rule:evenodd" d="M244.45,107.61L244.07,108.32L244.15,107.31L246.73,107.15L246.90,104.84L264.01,104.84L264.01,109.89L246.90,109.89L246.73,107.58zM242.25,116.49L242.92,116.23L244.71,114.97L244.78,119.13L245.62,121.31L245.93,122.77L236.01,130.46L236.05,129.53L235.48,128.70L233.57,127.60L232.64,127.43L233.02,123.60L241.23,117.32L241.14,116.40L242.15,115.75z"/></g><g id="hotspot.7" onmouseover="ShowHotSpot(evt,'7')" onmouseout="HideHotSpot(evt,'7')" onmousemove="ShowToolTip(evt,'7',&quot;3dp3132844&quot;)" opacity="0"><path style="fill:#00ff00;fill-rule:evenodd" d="M232.76,123.51L232.46,127.45L230.27,126.78L229.34,126.76L227.17,128.47L226.43,128.46L225.06,127.61L225.06,126.34L229.62,122.94L230.82,122.95zM230.00,134.86L235.77,130.35L235.75,133.19L235.49,134.30L226.62,141.33L226.17,148.01L225.88,148.55L222.21,151.73L221.51,159.81L216.44,164.38L215.93,164.48L216.28,152.54L215.94,152.52L215.36,152.88L214.84,152.93L214.63,152.31L213.36,152.20L214.63,151.82L214.92,151.18L216.02,151.78L216.55,151.86L217.30,140.78L229.72,131.26L230.00,130.61zM212.07,152.12L213.36,152.20L212.07,152.56L211.91,155.14L194.79,155.14L194.79,150.09L211.90,150.09z"/></g><g id="hotspot.8" onmouseover="ShowHotSpot(evt,'8')" onmouseout="HideHotSpot(evt,'8')" onmousemove="ShowToolTip(evt,'8',&quot;3dp3132846&quot;)" opacity="0"><path style="fill:#00ff00;fill-rule:evenodd" d="M251.31,116.39L250.91,116.81L251.01,116.08L253.59,115.92L253.75,113.62L270.87,113.62L270.87,118.66L253.75,118.66L253.59,116.36zM249.58,121.51L249.28,122.31L249.55,121.20zM249.99,122.68L249.44,123.34L249.35,123.85L274.41,130.90L271.67,133.76L271.70,134.44L271.96,134.74L271.89,135.02L271.40,135.06L264.82,133.09L263.90,133.07L260.18,136.50L258.77,137.60L258.68,138.10L266.03,140.41L264.95,140.49L264.69,140.75L265.35,141.07L266.41,141.04L266.45,140.79L266.03,140.41L266.92,140.22L271.14,136.39L277.73,138.34L277.73,138.95L276.14,138.75L275.43,138.56L276.14,138.75L274.88,140.77L272.97,140.74L273.27,141.06L274.16,141.35L274.20,141.67L272.77,143.33L265.92,150.19L264.44,151.48L263.68,151.45L263.70,151.85L262.54,152.88L261.80,152.88L227.21,141.61L226.87,141.30L235.49,134.28L235.74,133.21L236.03,130.45L246.08,122.65L247.25,122.97L248.38,123.04L248.29,122.37L249.28,122.31zM273.90,138.30L273.31,138.30L273.24,138.00L273.60,138.00zM266.45,140.79L266.41,141.04L265.35,141.07L264.69,140.75L264.95,140.49L266.03,140.41zM264.55,141.87L264.50,142.13L263.16,142.17L261.42,141.68L261.51,141.13L262.06,141.03zM258.20,147.34L257.28,147.34L257.57,147.05L258.24,147.05zM263.18,147.91L263.74,148.44L263.11,149.02L261.79,149.02L260.60,148.52L260.60,147.93L261.15,147.61L262.36,147.63z"/></g><g id="hotspot.9" onmouseover="ShowHotSpot(evt,'9')" onmouseout="HideHotSpot(evt,'9')" onmousemove="ShowToolTip(evt,'9',&quot;3dp3149730&quot;)" opacity="0"><path style="fill:#00ff00;fill-rule:evenodd" d="M38.58,65.39L38.54,66.54L45.07,64.81L45.99,64.79L46.17,65.99L46.51,66.20L48.99,69.20L52.02,70.02L51.40,70.31L48.27,71.03L46.25,70.30L44.52,70.30L37.39,72.22L37.44,72.46L40.32,73.24L37.39,74.17L36.66,74.16L31.64,72.57L31.17,70.02L31.08,68.37L37.50,66.81L37.54,66.48L36.86,65.64L37.46,65.45L37.57,64.74zM48.27,71.03L47.25,71.11L46.35,71.58L45.25,71.85L44.24,71.94L43.33,72.40L41.13,72.94L40.32,73.24L37.44,72.46L37.39,72.22L44.52,70.30L46.25,70.30zM32.44,53.40L34.75,53.56L34.85,54.28L34.44,53.86L32.44,53.83L32.28,56.14L17.36,56.14L17.36,51.09L32.28,51.09zM35.10,55.40L34.85,54.28L34.99,54.41zM35.37,56.50L35.10,55.40L35.26,55.51zM35.66,57.31L35.37,56.50L35.53,56.61zM35.93,58.41L35.66,57.31L35.81,57.43zM36.20,59.51L35.93,58.41L36.08,58.53zM36.47,60.61L36.20,59.51L36.36,59.63zM36.74,61.71L36.47,60.61L36.63,60.72zM37.03,62.52L36.74,61.71L36.90,61.82zM37.30,63.62L37.03,62.52L37.18,62.64zM37.57,64.74L37.30,63.62L37.45,63.74zM48.17,71.17L46.35,71.58L47.25,71.11L48.27,71.03zM44.54,72.24L43.33,72.40L44.24,71.94L45.25,71.85z"/></g><g id="hotspot.10" onmouseover="ShowHotSpot(evt,'10')" onmouseout="HideHotSpot(evt,'10')" onmousemove="ShowToolTip(evt,'10',&quot;3dp3149731&quot;)" opacity="0"><path style="fill:#00ff00;fill-rule:evenodd" d="M52.56,73.31L53.10,73.60L56.95,74.69L61.36,76.08L61.36,76.67L61.00,76.91L47.00,81.00L45.69,81.01L42.41,79.88L42.13,81.35L41.14,81.99L41.05,81.25L40.67,80.69L41.37,79.97L41.33,79.65L37.66,78.34L37.06,74.39L38.22,73.87L51.39,70.27L52.00,70.28zM40.76,83.57L40.69,82.96L40.85,82.82zM37.38,85.48L39.65,85.45L40.06,85.02L39.96,85.76L37.38,85.92L37.22,88.22L21.47,88.22L21.47,83.18L37.22,83.18zM45.71,76.35L43.99,76.90L41.60,77.44L41.32,77.16L41.02,74.78L45.19,73.60z"/></g><g id="hotspot.11" onmouseover="ShowHotSpot(evt,'11')" onmouseout="HideHotSpot(evt,'11')" onmousemove="ShowToolTip(evt,'11',&quot;3dp3263522&quot;)" opacity="0"><path style="fill:#00ff00;fill-rule:evenodd" d="M235.20,116.92L239.89,118.39L233.18,123.51L230.82,122.95L229.62,122.94L227.25,124.68L225.06,126.34L225.06,127.61L229.75,130.33L229.74,131.28L217.29,140.81L216.55,140.81L215.12,140.30L214.65,139.63L213.26,139.71L108.74,105.09L108.40,105.11L108.51,106.28L107.51,106.94L107.39,106.23L106.75,105.94L107.68,104.84L46.78,84.53L46.77,84.01L48.65,84.03L79.70,74.68zM106.71,110.28L106.40,110.79L106.68,109.98zM104.02,110.71L106.40,110.79L106.32,110.98L104.02,111.15L103.86,113.45L88.93,113.45L88.93,108.41L103.86,108.41zM77.52,79.63L72.51,81.28L70.64,81.28L65.33,79.67L65.33,79.39L70.96,77.72z"/></g><g id="hotspot.12" onmouseover="ShowHotSpot(evt,'12')" onmouseout="HideHotSpot(evt,'12')" onmousemove="ShowToolTip(evt,'12',&quot;3dp3263523&quot;)" opacity="0"><path style="fill:#00ff00;fill-rule:evenodd" d="M85.48,72.85L48.63,84.01L47.05,84.90L46.45,83.73L46.42,81.28L61.25,76.88L61.54,76.07L66.73,74.41L84.57,69.17L85.19,69.17zM45.70,88.51L45.62,87.90L45.80,87.76zM44.16,92.13L43.89,92.69L44.08,91.96zM41.49,92.61L43.89,92.69L43.79,92.89L41.49,93.05L41.33,95.35L25.86,95.35L25.86,90.31L41.33,90.31z"/></g><g id="hotspot.13" onmouseover="ShowHotSpot(evt,'13')" onmouseout="HideHotSpot(evt,'13')" onmousemove="ShowToolTip(evt,'13',&quot;3dp3263524&quot;)" opacity="0"><path style="fill:#00ff00;fill-rule:evenodd" d="M37.65,46.81L40.23,46.98L40.31,47.99L39.93,47.27L37.65,47.25L37.49,49.56L22.29,49.56L22.29,44.51L37.49,44.51zM40.59,49.09L40.31,47.99L40.47,48.11zM40.86,50.19L40.59,49.09L40.74,49.21zM41.14,51.28L40.86,50.19L41.02,50.30zM41.41,52.66L41.14,51.28L41.29,51.40zM41.68,53.75L41.41,52.66L41.57,52.77zM62.99,60.15L68.22,66.16L69.59,67.81L70.64,68.67L78.89,70.86L62.08,75.79L60.78,75.79L53.10,73.60L52.56,73.31L52.02,70.02L49.28,69.19L46.27,65.61L45.97,64.81L45.07,64.81L31.08,68.40L30.00,68.18L28.60,60.44L31.36,59.61L41.90,57.22L41.92,56.88L41.24,56.04L41.85,55.85L41.96,54.85L42.36,55.54L42.97,55.79L42.93,56.94L60.70,52.75L61.90,52.73zM41.96,54.85L41.68,53.75L41.84,53.87zM61.34,71.11L65.21,72.26L65.21,72.54L59.60,74.15L58.58,74.16L54.76,73.03L52.82,70.80L52.76,70.57L59.42,68.89z"/></g><g id="hotspot.14" onmouseover="ShowHotSpot(evt,'14')" onmouseout="HideHotSpot(evt,'14')" onmousemove="ShowToolTip(evt,'14',&quot;3dp3263527&quot;)" opacity="0"><path style="fill:#00ff00;fill-rule:evenodd" d="M68.31,51.23L69.28,57.97L70.13,59.31L74.80,64.51L76.17,66.16L76.67,66.48L79.46,67.11L79.34,65.92L80.35,65.58L80.47,66.00L81.06,66.19L80.14,67.28L83.27,68.11L84.95,68.68L84.95,68.99L79.91,70.59L78.06,70.58L70.64,68.67L69.59,67.81L68.22,66.16L62.99,60.15L62.16,54.67L62.06,52.46L68.21,51.13zM81.55,62.08L81.18,62.81L81.26,61.78L83.84,61.62L84.00,59.32L99.74,59.32L99.74,64.36L84.00,64.36L83.84,62.06z"/></g><g id="hotspot.15" onmouseover="ShowHotSpot(evt,'15')" onmouseout="HideHotSpot(evt,'15')" onmousemove="ShowToolTip(evt,'15',&quot;3dp3263530&quot;)" opacity="0"><path style="fill:#00ff00;fill-rule:evenodd" d="M146.66,88.20L146.81,86.72L147.44,86.71L148.29,87.27L147.70,87.97L147.61,88.47L245.09,113.92L245.12,114.53L240.59,118.01L239.02,118.03L79.85,74.66L80.12,74.41L85.43,72.81L85.70,72.50L86.27,72.47zM149.02,83.20L148.63,83.63L148.72,82.90L151.30,82.74L151.46,80.43L167.20,80.43L167.20,85.48L151.46,85.48L151.30,83.18zM147.99,86.04L147.91,85.43L148.08,85.29z"/></g></g></svg>
