<?xml version="1.0" encoding="UTF-8" standalone="no"?>
<svg xmlns="http://www.w3.org/2000/svg" xmlns:xlink="http://www.w3.org/1999/xlink" width="297.000mm" height="210.000mm" viewBox="0.000000 0.000000 297.000000 210.000000" stroke-linejoin="round" stroke-linecap="round" fill="none" fill-rule="evenodd"><desc>Composer Export</desc><script type="text/ecmascript"><![CDATA[
if(typeof(top) != "undefined")
{
	top.ShowPaper = ShowPaper;
}
function ShowHotSpot(evt,hotspotid)
{
	var svgDocument = evt.target.ownerDocument;
	var strId = "hotspot."+hotspotid;
	var hotspot = svgDocument.getElementById(strId);
	if(hotspot)
		hotspot.setAttribute("opacity",".5");
}
function HideHotSpot(evt,hotspotid)
{
	var svgDocument = evt.target.ownerDocument;
	var strId = "hotspot."+hotspotid;
	var hotspot = svgDocument.getElementById(strId);
	if(hotspot)
		hotspot.setAttribute("opacity","0");

	var toolTip = svgDocument.getElementById('ToolTip');
	if(toolTip)
		toolTip.setAttribute("visibility","hidden");
}
function ShowToolTip(evt,hotspotid,strTooltip)
{
	if(strTooltip=="")
	return;

	// change text
	var svgDocument = evt.target.ownerDocument;
	var tiptext = svgDocument.getElementById('ToolTipText');
	if( !tiptext )
	return;
	tiptext.firstChild.nodeValue = " " + strTooltip + "  " ;

	// show tooltip before, else some refresh issue

	var toolTip = svgDocument.getElementById('ToolTip');
	if(!toolTip)
	return;

	toolTip.setAttribute("visibility","visible");
	toolTip.setAttribute("opacity",".95");

	// move tooltip
	// get viewbox

	var root = svgDocument.documentElement;
	var vbox = (root.getAttribute("viewBox")).split(' ');
	var x0 = parseFloat(vbox[0]);
	var y0 = parseFloat(vbox[1]);
	var vboxW = parseFloat(vbox[2]);
	var vboxH = parseFloat(vbox[3]);

	// get default width of svg

	var strW = root.getAttribute("width");
	var svgW = parseFloat(strW);
	if(strW.indexOf('mm') != -1)
	svgW *= 3.779;

	var strH = root.getAttribute("height");
	var svgH = parseFloat(strH);
	if(strH.indexOf('mm') != -1)
	svgH *= 3.779;  	// 96 dpi  -> 96/25.4 = 3.779

	// update the viewbox / width / height if svg is embedded in html with zoom fit all
	var realx0 = x0;
	var realy0 = y0;
	var realvboxW = vboxW;
	var realvboxH = vboxH;
	var realsvgW = svgW;
	var realsvgH = svgH;

	if ((typeof(top) == "undefined") || (typeof(top.svgctl1) != "undefined")) // embedded in html
	{
		// get window size in pxl

		svgW = window.innerWidth;
		svgH = window.innerHeight;

		// calculate real viewbox

		realsvgW = svgW;
		realsvgH = svgH;
		if((svgW / svgH) > (vboxW / vboxH))
		{
			realvboxW = (vboxH * svgW) / svgH;
			realvboxH = vboxH;
			realx0 = x0 - (realvboxW - vboxW)/2 ;
		}
		else
		{
			realvboxH = (vboxW * svgH) / svgW;
			realvboxW = vboxW;
			realy0 = y0 - (realvboxH - vboxH)/2 ;
		}
	}

	// get user zoom/pan

	var newScale = root.currentScale;
	var translation = root.currentTranslate;

	// transform pxl to user unit

	var xPos = (((evt.clientX+10- translation.x)/newScale) * realvboxW)/realsvgW  + realx0 ;
	var yPos = (((evt.clientY+5- translation.y)/newScale) * realvboxH)/ realsvgH  + realy0 ;
	var scaleForWidth = ( (1 / newScale) * realvboxH) / realsvgH;

	// move tooltip

	toolTip.setAttribute("transform", "translate(" + xPos + "," + yPos + ")" );

	// resize tooltip

	var fontsize = 12;
	tiptext.setAttribute("font-size",fontsize*scaleForWidth);
	tiptext.setAttribute("y", fontsize*scaleForWidth);
	var tipBG = svgDocument.getElementById('ToolTipBG');
	var outline = tiptext.getBBox();
	if(tipBG)
	{
		tipBG.setAttribute("stroke-width", 1*scaleForWidth);
		tipBG.setAttribute("width", Number(outline.width) );
		tipBG.setAttribute("height", Number(outline.height) + fontsize*.5*scaleForWidth );
	}
	var ToolTipShadow = svgDocument.getElementById('ToolTipShadow');
	if(ToolTipShadow)
	{
		ToolTipShadow.setAttribute("width", Number(outline.width) );
		ToolTipShadow.setAttribute("height", Number(outline.height) + fontsize*.5*scaleForWidth );
		ToolTipShadow.setAttribute("x", 3*scaleForWidth);
		ToolTipShadow.setAttribute("y", 3*scaleForWidth);
	}
}
function ShowPaper()
{
  var svgDocument = getDocument();
  var paper = svgDocument.getElementById("paperID");
  if(paper)
  {
    paper.setAttribute("transform","scale(1)");
    paper.setAttribute("opacity","1");
    paper.setAttribute("visibility","visible");
  }
  var svg = svgDocument.getRootElement();
  if(svg)
  {
    svg.setAttribute("width","307.000mm");
    svg.setAttribute("height","220.000mm");
    svg.setAttribute("viewBox","-5.000000 -5.000000 307.000000 220.000000");
  }
}
]]></script><defs/><g><g id="Actor_.0"><g style="stroke:#000000;stroke-width:0.123"><path d="M149.11,61.04L149.25,61.04L149.38,61.04L149.44,61.03L149.44,61.01L149.39,61.02L149.28,61.02L149.15,61.02L149.08,61.02L149.25,61.01L149.35,61.00L149.39,60.99L149.43,60.98L149.44,60.97L149.43,60.97L149.40,60.94"/><path d="M149.08,61.02L149.07,61.02L149.11,60.99L149.29,60.97L149.37,60.96L149.39,60.95L149.40,60.94L149.40,60.91L149.39,60.92L149.33,60.93L149.11,60.96L149.11,60.96L149.11,60.99"/><path d="M149.44,60.88L149.44,60.88L149.43,60.89L149.37,60.90L149.29,60.91L149.07,60.93L149.07,60.92L149.08,60.92L149.25,60.91L149.35,60.90L149.39,60.89L149.43,60.89L149.44,60.88L149.43,60.87L149.40,60.85"/><path d="M149.44,60.78L149.44,60.79L149.43,60.80L149.37,60.81L149.29,60.82L149.07,60.83L149.07,60.83L149.08,60.83L149.25,60.82L149.35,60.81L149.39,60.80L149.43,60.79L149.44,60.78L149.43,60.78L149.40,60.75"/><path d="M149.40,60.66L149.44,60.69L149.43,60.70L149.39,60.70L149.35,60.71L149.25,60.72L149.08,60.73L149.07,60.73L149.07,60.74L149.33,60.72L149.41,60.71L149.43,60.70L149.44,60.69L149.39,60.73L149.37,60.74L149.28,60.75L149.11,60.77L149.11,60.77L149.11,60.80L149.29,60.78L149.37,60.77L149.39,60.76L149.40,60.75L149.40,60.72"/><path d="M149.07,60.73L149.11,60.70L149.33,60.68L149.39,60.67L149.40,60.66L149.40,60.63L149.39,60.64L149.33,60.65L149.11,60.67L149.11,60.67L149.11,60.71"/><path d="M149.08,60.64L149.07,60.64L149.07,60.65L149.33,60.62L149.41,60.61L149.43,60.61L149.44,60.60L149.44,60.59L149.43,60.60L149.39,60.61L149.35,60.62L149.25,60.63L149.08,60.64"/><path d="M149.07,60.64L149.11,60.61L149.29,60.59L149.37,60.58L149.39,60.57L149.40,60.56L149.40,60.53L149.39,60.54L149.33,60.55L149.11,60.58L149.11,60.58L149.11,60.61"/><path d="M149.44,60.50L149.44,60.50L149.43,60.51L149.37,60.52L149.29,60.53L149.07,60.55L149.07,60.55L149.08,60.54L149.25,60.53L149.35,60.52L149.39,60.51L149.43,60.51L149.44,60.50L149.43,60.49L149.40,60.47"/><path d="M149.07,60.55L149.11,60.51L149.33,60.49L149.39,60.48L149.40,60.47L149.40,60.44L149.39,60.45L149.33,60.46L149.11,60.48L149.11,60.48L149.11,60.52"/><path d="M149.11,60.42L149.11,60.39L149.11,60.39L149.33,60.37L149.39,60.35L149.40,60.34L149.40,60.37L149.39,60.38L149.37,60.39L149.32,60.40L149.11,60.42L149.07,60.45L149.25,60.44L149.35,60.43L149.39,60.42L149.43,60.41L149.44,60.40L149.40,60.37"/><path d="M149.11,60.90L149.12,60.89L149.29,60.88L149.37,60.86L149.39,60.86L149.40,60.85L149.40,60.82L149.39,60.82L149.33,60.84L149.11,60.86L149.11,60.86L149.11,60.89L149.07,60.92"/><path d="M149.11,60.80L149.07,60.83"/><path d="M149.11,60.96L149.07,60.93"/><path d="M149.11,60.86L149.07,60.83"/><path d="M149.11,60.67L149.07,60.65"/><path d="M149.07,60.74L149.11,60.77"/><path d="M149.07,60.55L149.11,60.58"/><path d="M149.11,60.48L149.07,60.46L149.33,60.43L149.41,60.42L149.43,60.42L149.44,60.41L149.40,60.44"/><path d="M149.40,60.91L149.44,60.88"/><path d="M149.40,60.63L149.44,60.60"/><path d="M149.44,60.59L149.43,60.59L149.40,60.56"/><path d="M149.40,60.53L149.44,60.50"/><path d="M149.40,60.82L149.44,60.79"/><path d="M149.07,60.45L149.07,60.46"/><path d="M148.99,61.12L149.07,61.03L149.07,61.02"/><path d="M149.40,60.34L149.44,60.32L149.43,60.32L149.41,60.33L149.33,60.34L149.07,60.36L149.07,60.36L149.08,60.35L149.25,60.34L149.35,60.33L149.39,60.33L149.43,60.32L149.44,60.31L149.43,60.30L149.40,60.28"/><path d="M149.07,60.27L149.11,60.29L149.28,60.28L149.37,60.26L149.39,60.26L149.44,60.22L149.43,60.23L149.41,60.23L149.33,60.24L149.07,60.27L149.07,60.26L149.35,60.24L149.39,60.23L149.43,60.22L149.44,60.21L149.43,60.21L149.40,60.18"/><path d="M149.40,60.16L149.37,60.17L149.33,60.18L149.11,60.20L149.11,60.20L149.11,60.23L149.33,60.21L149.39,60.19L149.40,60.19L149.40,60.15L149.39,60.16L149.44,60.13L149.42,60.14L149.33,60.15L149.07,60.17L149.07,60.17L149.09,60.16L149.25,60.15L149.35,60.14L149.39,60.14L149.41,60.12L149.44,60.12L149.43,60.11L149.40,60.09"/><path d="M149.39,60.14L149.40,60.14"/><path d="M149.11,60.30L149.11,60.33L149.33,60.30L149.39,60.29L149.40,60.28L149.40,60.25"/><path d="M149.11,60.14L149.12,60.13L149.29,60.12L149.37,60.11L149.39,60.10L149.40,60.09L149.40,60.06L149.39,60.07L149.37,60.07L149.33,60.08L149.11,60.10L149.11,60.11L149.11,60.14L149.07,60.17"/><path d="M149.07,60.07L149.11,60.04L149.29,60.02L149.36,60.01L149.35,60.05L149.25,60.06L149.09,60.07L149.07,60.07L149.07,60.08L149.24,60.06L149.35,60.05L149.37,60.06L149.40,60.06L149.42,60.05L149.43,60.02L149.43,60.02L149.40,60.00L149.40,59.96L149.42,59.92L149.36,59.63L149.26,59.51L149.34,59.65L149.15,59.65L149.26,59.51"/><path d="M149.11,60.04L149.11,60.01L149.12,60.01L149.28,59.99L149.35,59.98L149.36,60.01"/><path d="M149.35,60.05L149.35,60.05"/><path d="M149.11,60.39L149.07,60.36"/><path d="M149.11,60.11L149.07,60.08"/><path d="M149.40,60.06L149.42,60.05"/><path d="M149.35,59.98L149.33,59.97L149.34,59.96L149.08,59.98L149.11,60.01"/><path d="M149.10,60.01L149.11,60.01"/><path d="M149.17,59.94L149.11,59.95L149.08,59.97L149.17,59.97L149.17,59.88L149.10,59.88L149.15,59.65"/><path d="M149.11,59.95L149.11,59.91L149.17,59.91"/><path d="M149.10,59.88L149.11,59.91"/><path d="M149.07,60.17L149.11,60.20"/><path d="M149.08,59.97L149.08,59.98"/><path d="M149.34,59.65L149.34,59.96"/><path d="M149.11,60.33L149.07,60.36"/><path d="M149.40,60.15L149.43,60.14"/><path d="M149.11,60.23L149.07,60.26"/><path d="M149.40,59.99L149.43,60.02"/><path d="M149.44,60.41L149.44,60.40"/><path d="M149.44,61.01L149.44,60.97"/><path d="M149.44,60.69L149.44,60.69"/><path d="M149.44,61.03L149.52,61.12"/><path d="M149.44,60.13L149.44,60.12"/><path d="M149.44,60.32L149.44,60.31"/><path d="M149.44,60.22L149.44,60.21"/></g></g><g id="Actor_.1"><g style="stroke:#000000;stroke-width:0.123"><path d="M176.94,149.98L177.84,150.69L178.34,150.60L178.61,141.62L178.82,141.59"/><path d="M176.94,149.99L178.75,65.60L180.06,65.74L180.12,65.97L179.92,75.01L179.41,75.01L179.37,75.27L179.24,81.27L179.52,81.26L179.53,81.06"/><path d="M178.18,141.46L178.18,141.59L177.98,141.62L178.04,141.71L178.43,141.65L178.23,150.62"/><path d="M177.91,141.64L178.04,135.90L178.71,135.88L178.75,135.66L179.97,81.27L178.71,135.88"/><path d="M178.18,141.59L178.82,141.51"/><path d="M178.23,150.63L178.25,149.60"/><path d="M178.27,148.67L178.29,147.74"/><path d="M178.42,148.49L178.58,141.62L178.43,141.64"/><path d="M178.46,148.49L178.66,148.46"/><path d="M178.42,142.17L178.43,141.65"/><path d="M178.58,141.62L178.61,141.62"/><path d="M178.74,135.89L178.95,135.85"/><path d="M178.30,136.12L178.31,135.95"/><path d="M178.56,135.90L178.56,135.66L178.56,135.92"/><path d="M178.56,135.66L179.15,109.65L179.13,110.58"/><path d="M178.76,65.60L180.25,65.73L180.13,65.73"/><path d="M179.15,109.65L179.78,81.28L179.94,81.27"/><path d="M179.24,81.27L179.78,81.28"/><path d="M179.97,81.27L180.19,81.26"/><path d="M180.19,81.22L179.52,81.26"/><path d="M179.92,75.01L180.33,74.99"/><path d="M179.66,75.03L179.66,75.24"/><path d="M180.04,69.69L180.06,68.76"/><path d="M180.12,75.00L180.25,65.73"/><path d="M180.08,75.00L180.25,67.35"/><path d="M180.51,67.32L180.21,67.33"/><path d="M180.29,67.35L180.62,67.34"/><path d="M181.07,67.39L181.07,67.44"/><path d="M181.23,67.42L181.23,67.43"/><path d="M181.27,67.42L181.27,67.43"/></g></g><g id="Actor_.2"><g style="stroke:#000000;stroke-width:0.123"><path d="M179.89,65.72L179.91,65.04L141.63,60.53L141.71,78.56L153.06,111.70L177.52,122.90"/><path d="M179.60,65.69L179.61,65.05L141.63,60.53"/><path d="M179.55,81.07L179.55,81.26"/><path d="M179.68,75.03L179.68,75.24"/><path d="M179.91,65.04L179.61,65.05"/></g></g><g id="Actor_.3"><g style="stroke:#000000;stroke-width:0.123"><path d="M180.06,80.98L180.07,81.05L180.06,81.07L180.04,81.07L179.92,81.09L179.73,81.09L179.55,81.07L179.55,80.97"/><path d="M179.55,81.07L179.51,81.05L179.51,81.03L179.51,80.97"/><path d="M179.68,75.27L179.67,75.37L179.85,75.39L180.05,75.39L180.17,75.37L180.19,75.37L180.19,75.35L180.20,75.28L180.19,75.27L180.14,75.24L179.98,75.22L179.78,75.22L179.66,75.24L179.64,75.25L179.63,75.26L179.63,75.33L179.64,75.35L179.67,75.37"/></g></g><g id="Actor_.4"><g style="stroke:#000000;stroke-width:0.123"><path d="M166.46,118.01L166.46,118.00L166.50,118.00L166.54,117.98L166.58,117.97L166.59,117.96L166.60,117.94L166.60,117.94L166.59,117.96L166.57,117.98L166.54,117.99L166.50,118.00L166.46,118.01L166.39,118.03L166.34,118.03L166.30,118.02L166.27,118.01L166.28,118.01L166.23,118.00L166.21,117.99L166.21,117.98L166.21,117.99L166.21,118.00L166.23,118.00L166.27,118.01"/><path d="M166.21,118.00L166.24,118.02L166.26,118.03L166.29,118.03L166.32,118.04L166.36,118.04L166.42,118.03L166.47,118.03L166.51,118.01L166.55,118.00L166.59,117.96"/><path d="M166.60,118.04L166.59,118.05L166.57,118.07L166.54,118.08L166.50,118.09L166.50,118.10L166.54,118.09L166.57,118.08L166.59,118.06L166.60,118.04L166.60,118.04L166.59,118.02L166.56,117.99"/><path d="M166.50,118.09L166.50,118.09L166.41,118.07L166.47,118.06L166.51,118.05L166.55,118.03L166.56,118.01L166.56,117.99"/><path d="M166.59,118.06L166.54,118.10L166.51,118.11L166.46,118.13L166.50,118.10L166.50,118.10"/><path d="M166.46,118.13L166.47,118.16L166.51,118.14L166.55,118.13L166.56,118.11L166.56,118.08"/><path d="M166.50,118.10L166.50,118.09"/><path d="M166.24,118.05L166.26,118.06L166.29,118.07L166.33,118.07L166.32,118.07L166.24,118.10L166.21,118.09L166.20,118.08L166.21,118.07L166.24,118.05L166.24,118.05"/><path d="M166.33,118.07L166.35,118.05"/><path d="M166.24,118.10L166.24,118.10L166.23,118.10L166.21,118.09L166.24,118.12L166.26,118.13L166.29,118.13L166.28,118.16L166.26,118.16L166.24,118.15L166.24,118.15L166.24,118.12"/><path d="M166.29,118.13L166.24,118.10"/><path d="M166.28,118.16L166.22,118.19L166.21,118.18L166.20,118.17L166.24,118.15"/><path d="M166.21,118.08L166.20,118.42L166.40,118.56L166.49,118.47L166.50,118.19L166.54,118.18L166.57,118.17L166.59,118.15L166.60,118.13L166.59,118.12L166.57,118.10"/><path d="M166.22,118.19L166.20,118.42"/><path d="M166.21,118.09L166.21,118.08"/><path d="M166.47,118.16L166.48,118.16L166.40,118.56L166.57,118.45L166.49,118.47"/><path d="M166.56,118.09L166.57,118.10"/><path d="M166.50,118.19L166.48,118.16"/><path d="M166.57,118.45L166.60,118.43L166.60,118.13"/><path d="M166.24,118.05L166.24,118.02"/><path d="M166.41,117.81L166.35,117.81L166.30,117.81L166.26,117.81L166.24,117.80L166.22,117.79L166.21,117.78L166.21,117.79L166.21,117.80L166.23,117.81L166.26,117.81L166.30,117.82L166.36,117.82L166.42,117.82"/><path d="M166.56,117.88L166.54,117.89L166.50,117.90L166.46,117.91L166.40,117.91L166.35,117.91L166.30,117.91L166.26,117.91L166.23,117.90L166.21,117.89L166.21,117.88L166.21,117.89L166.21,117.90L166.23,117.90L166.26,117.91L166.30,117.92L166.36,117.92L166.42,117.91L166.49,117.91L166.54,117.89L166.57,117.88"/><path d="M166.21,117.90L166.25,117.92L166.26,117.93L166.29,117.94L166.32,117.94L166.37,117.94L166.42,117.94L166.47,117.93L166.51,117.92L166.55,117.90L166.57,117.88"/><path d="M166.46,118.00L166.39,117.99L166.32,118.00L166.28,118.01"/><path d="M166.60,117.94L166.59,117.92L166.56,117.90"/><path d="M166.21,117.80L166.25,117.83L166.26,117.83L166.29,117.84L166.32,117.84L166.37,117.84L166.42,117.84L166.46,117.83"/><path d="M166.21,117.98L166.21,117.97L166.24,117.95L166.25,117.96L166.26,117.96L166.29,117.97L166.32,117.97L166.37,117.97L166.42,117.97L166.47,117.96L166.52,117.95L166.55,117.93L166.56,117.92L166.56,117.89"/><path d="M166.33,117.77L166.29,117.77L166.27,117.77L166.25,117.76L166.25,117.75L166.21,117.78L166.21,117.78"/><path d="M166.25,117.82L166.25,117.85L166.25,117.86L166.26,117.87L166.29,117.87L166.32,117.87L166.37,117.87L166.42,117.87L166.47,117.86L166.50,117.85"/><path d="M166.25,117.75L166.25,117.74"/><path d="M166.25,117.85L166.21,117.87L166.21,117.88"/><path d="M166.24,117.95L166.24,117.92"/></g></g><g id="Actor_.5"><g style="stroke:#000000;stroke-width:0.123"><path d="M196.04,66.34L215.76,68.62L212.47,68.77L142.13,60.46L142.13,60.55"/><path d="M142.13,60.46L144.58,60.40L149.08,60.92"/><path d="M149.43,60.96L166.93,62.98"/><path d="M195.58,66.29L167.32,63.03"/><path d="M215.76,68.62L215.63,71.34L212.35,71.50L180.21,67.28"/><path d="M212.35,71.50L212.47,68.77"/><path d="M215.42,71.08L215.52,68.90L212.68,69.03L212.58,71.19L215.42,71.08L212.60,70.72"/></g></g><g id="Actor_.6"><g style="stroke:#000000;stroke-width:0.123"><path d="M196.16,66.56L196.07,66.44L196.01,66.45L195.84,66.46L195.65,66.45"/><path d="M195.58,66.42L195.56,66.44L195.46,66.55"/><path d="M196.07,66.44L196.06,66.42L196.02,66.43L195.88,66.43L195.71,66.43L195.59,66.42L195.84,66.41L195.97,66.40L196.03,66.38L196.06,66.37L196.06,66.36L196.02,66.32L196.01,66.33L195.99,66.34L195.95,66.35L195.82,66.37L195.62,66.38L195.62,66.34L195.82,66.33L195.94,66.31L195.99,66.30L196.01,66.29L196.06,66.25L196.04,66.26L196.01,66.27L195.90,66.29L195.78,66.30L195.57,66.30L195.62,66.34"/><path d="M195.59,66.42L195.57,66.42"/><path d="M196.02,66.16L196.02,66.21L195.99,66.22L195.89,66.24L195.62,66.26L195.58,66.30L195.78,66.29L195.91,66.28L196.03,66.26L196.06,66.25L196.06,66.24L196.06,66.25"/><path d="M195.58,66.30L195.57,66.30"/><path d="M196.03,66.04L196.02,66.08L196.00,66.09L195.90,66.11L195.63,66.13L195.58,66.17L195.78,66.16L195.91,66.15L196.03,66.13L196.07,66.12L196.07,66.11L196.07,66.13L196.05,66.14L196.01,66.15L195.91,66.16L195.78,66.17L195.58,66.18L195.62,66.22"/><path d="M195.58,66.17L195.58,66.18"/><path d="M196.07,65.99L196.07,66.00L196.05,66.01L195.97,66.03L195.78,66.05L195.58,66.05L195.58,66.05L195.85,66.03L195.98,66.02L196.04,66.01L196.07,66.00L196.07,65.99L196.03,65.95L196.03,65.96L196.00,65.97L195.96,65.98L195.84,65.99L195.63,66.01L195.63,65.97L195.83,65.95L195.96,65.94L196.00,65.93L196.03,65.92L196.08,65.88L196.06,65.89L196.02,65.90L195.91,65.91L195.79,65.92L195.59,65.93L195.63,65.97"/><path d="M195.58,66.05L195.63,66.01"/><path d="M195.62,66.38L195.57,66.42"/><path d="M195.62,66.26L195.62,66.22L195.83,66.20L195.95,66.19L195.99,66.18L196.02,66.17L196.07,66.13"/><path d="M195.63,66.13L195.63,66.09L195.83,66.08L195.95,66.06L196.00,66.05L196.02,66.04L196.07,66.00"/><path d="M195.58,66.05L195.63,66.09"/><path d="M196.03,65.79L196.03,65.83L196.01,65.84L195.91,65.86L195.63,65.88L195.59,65.92L195.79,65.91L195.92,65.90L196.04,65.88L196.07,65.87L196.08,65.86L196.08,65.88"/><path d="M195.59,65.92L195.59,65.93"/><path d="M196.04,65.66L196.03,65.71L196.01,65.72L195.91,65.74L195.64,65.76L195.59,65.80L195.80,65.79L195.92,65.78L196.05,65.76L196.08,65.75L196.08,65.74L196.08,65.75L196.06,65.76L196.02,65.77L195.92,65.79L195.79,65.80L195.59,65.80L195.64,65.84"/><path d="M195.59,65.80L195.59,65.80"/><path d="M195.64,65.63L195.60,65.67L195.87,65.66L196.00,65.64L196.05,65.63L196.08,65.62L196.09,65.61L196.04,65.57L196.04,65.58L196.01,65.59L195.97,65.60L195.85,65.62L195.64,65.63L195.64,65.59L195.85,65.58L195.97,65.56L196.01,65.55L196.04,65.54L196.09,65.50L196.07,65.51L196.03,65.52L195.93,65.54L195.80,65.55L195.60,65.55L195.64,65.59"/><path d="M195.60,65.55L195.60,65.55L195.87,65.53L196.00,65.52L196.06,65.51L196.09,65.50L196.09,65.49L196.05,65.45L196.04,65.46L196.02,65.47L195.98,65.48L195.85,65.49L195.65,65.51L195.65,65.47L195.85,65.45L195.97,65.44L196.02,65.43L196.04,65.42L196.09,65.38L196.07,65.39L196.04,65.40L195.93,65.41L195.80,65.42L195.60,65.43L195.65,65.47"/><path d="M195.60,65.55L195.65,65.51"/><path d="M196.05,65.29L196.05,65.33L196.02,65.34L195.92,65.36L195.65,65.38L195.61,65.42L195.81,65.41L196.00,65.39L196.06,65.38L196.09,65.37L196.09,65.36L196.09,65.38"/><path d="M195.61,65.30L195.61,65.30L195.87,65.29L195.99,65.28L196.07,65.27L196.06,65.26L196.01,65.27L195.88,65.28L195.61,65.30"/><path d="M195.61,65.30L195.65,65.26L195.93,65.24L196.03,65.22L196.05,65.21L196.06,65.16"/><path d="M195.63,65.88L195.64,65.84L195.84,65.83L195.96,65.81L196.01,65.80L196.03,65.79L196.08,65.75"/><path d="M195.64,65.76L195.64,65.72L195.84,65.70L195.97,65.69L196.01,65.68L196.03,65.67L196.08,65.63L196.06,65.64L196.03,65.65L195.92,65.66L195.80,65.67L195.60,65.68L195.64,65.72"/><path d="M195.65,65.38L195.65,65.34L195.92,65.32L196.02,65.30L196.05,65.29L196.09,65.26L196.10,65.24L196.10,65.24L196.07,65.24L196.06,65.26"/><path d="M195.66,65.26L195.66,65.22L195.92,65.20L196.03,65.18L196.06,65.16L196.03,65.16L196.02,65.15L195.88,65.17L195.62,65.18L195.63,65.19L195.64,65.21"/><path d="M196.02,65.09L196.01,65.06L195.86,65.08L195.66,65.09L195.66,65.13L195.87,65.12L195.98,65.10L196.02,65.09L196.02,65.14L195.88,65.16L195.62,65.17L195.62,65.18"/><path d="M195.66,65.13L195.63,65.15L195.62,65.17"/><path d="M195.66,65.22L195.62,65.19"/><path d="M195.66,65.09L195.65,65.05L195.82,65.04L196.00,65.03L195.99,65.04L196.01,65.06"/><path d="M195.60,65.68L195.60,65.67"/><path d="M195.78,64.96L195.68,64.96L195.68,64.93L195.78,64.92L195.79,65.04L195.65,65.04L195.65,65.05"/><path d="M195.65,65.04L195.67,65.01L195.78,65.00"/><path d="M195.61,65.30L195.65,65.34"/><path d="M195.60,65.43L195.60,65.42"/><path d="M195.66,65.09L195.66,65.11"/><path d="M195.68,64.96L195.67,65.01"/><path d="M195.73,64.74L195.74,64.58L195.88,64.43L195.77,64.61L195.68,64.93"/><path d="M195.77,64.61L195.89,64.62L196.02,64.61L195.88,64.43"/><path d="M196.06,66.36L196.06,66.42"/><path d="M196.06,66.24L196.02,66.20"/><path d="M196.07,66.11L196.02,66.07"/><path d="M196.02,66.32L196.02,66.29"/><path d="M196.08,65.86L196.08,65.86"/><path d="M196.09,65.36L196.05,65.32"/><path d="M196.10,65.24L196.05,65.20"/><path d="M196.07,65.27L196.09,65.26"/><path d="M196.03,65.82L196.08,65.86"/><path d="M196.02,65.14L196.02,65.15"/><path d="M196.06,65.16L196.07,65.14L196.09,65.11L196.09,65.10L196.06,65.07L196.05,65.02L196.07,64.97L196.01,64.72"/><path d="M196.08,65.63L196.09,65.61"/><path d="M196.09,65.50L196.09,65.49"/><path d="M196.03,65.95L196.03,65.91"/><path d="M196.04,65.70L196.08,65.74"/><path d="M196.05,65.45L196.05,65.41"/><path d="M196.04,65.57L196.04,65.54"/><path d="M196.00,65.03L196.02,64.61"/></g></g><g id="Actor_.7"><g style="stroke:#000000;stroke-width:0.123"><path d="M180.19,80.96L179.86,80.99L179.64,80.98L179.49,80.96L179.46,80.94L179.50,79.39"/><path d="M179.97,79.42L179.85,79.42"/><path d="M180.23,79.40L180.05,79.42"/><path d="M179.75,79.42L179.64,79.41"/><path d="M179.57,79.41L179.52,79.39"/><path d="M180.32,75.38L180.01,75.40L179.82,75.40L179.66,75.38L179.58,75.36L179.55,76.94L179.62,76.96L179.79,76.97L179.97,76.97L180.28,76.95"/><path d="M179.58,75.36L179.61,75.35L179.64,75.34"/><path d="M180.25,76.95L180.19,79.39L180.23,79.39"/><path d="M180.15,79.39L180.19,79.39"/><path d="M180.17,75.37L180.32,75.36"/></g></g><g id="Actor_.8"><g style="stroke:#000000;stroke-width:0.123"><path d="M192.47,159.56L192.47,159.58L192.51,159.61L192.54,159.63L192.57,159.64L192.56,159.67L192.54,159.66L192.51,159.65L192.50,159.63L192.46,159.66L192.47,159.68L192.49,159.70L192.45,159.94L192.68,160.09L192.81,160.02L192.82,159.72L192.87,159.70L192.90,159.68L192.92,159.65L192.92,159.63L192.91,159.60L192.89,159.58"/><path d="M192.81,160.02L192.89,159.99L192.68,160.09L192.80,159.68L192.79,159.67L192.83,159.66L192.86,159.63L192.88,159.60L192.88,159.59L192.90,159.58L192.92,159.55L192.92,159.54"/><path d="M192.89,159.99L192.91,159.95L192.92,159.63"/><path d="M192.51,159.50L192.51,159.52L192.52,159.54L192.54,159.56L192.57,159.57L192.62,159.58L192.61,159.58L192.52,159.60L192.51,159.60L192.48,159.58L192.47,159.56L192.47,159.54L192.46,159.56L192.45,159.94"/><path d="M192.70,159.41L192.66,159.41L192.60,159.40L192.55,159.39L192.51,159.38L192.49,159.36L192.47,159.34L192.47,159.35L192.48,159.37L192.51,159.38L192.55,159.40L192.60,159.41L192.67,159.42L192.71,159.41"/><path d="M192.85,159.50L192.83,159.51L192.78,159.52L192.78,159.51L192.83,159.50L192.84,159.49"/><path d="M192.78,159.52L192.70,159.54L192.65,159.54L192.60,159.53L192.56,159.51L192.51,159.49L192.48,159.48L192.52,159.50L192.54,159.52L192.57,159.53L192.61,159.54L192.67,159.54L192.73,159.54L192.79,159.53L192.84,159.51L192.85,159.50"/><path d="M192.78,159.51L192.70,159.50L192.62,159.50L192.57,159.51L192.56,159.51"/><path d="M192.74,159.43L192.67,159.43L192.61,159.43L192.58,159.42L192.54,159.41L192.52,159.39L192.48,159.37"/><path d="M192.48,159.48L192.47,159.46L192.47,159.45L192.48,159.47L192.51,159.49L192.57,159.51"/><path d="M192.47,159.45L192.47,159.43L192.49,159.42L192.51,159.40"/><path d="M192.88,159.59L192.87,159.60L192.82,159.62L192.82,159.61L192.87,159.59L192.90,159.57L192.92,159.54L192.92,159.54"/><path d="M192.82,159.62L192.82,159.62L192.77,159.64L192.83,159.62L192.87,159.60"/><path d="M192.82,159.61L192.82,159.61L192.72,159.58L192.78,159.57L192.84,159.55L192.87,159.52L192.87,159.51"/><path d="M192.82,159.62L192.82,159.61"/><path d="M192.52,159.29L192.52,159.30L192.52,159.32L192.55,159.34L192.58,159.35L192.62,159.35"/><path d="M192.51,159.39L192.51,159.41L192.52,159.43L192.55,159.45L192.58,159.46L192.62,159.46L192.67,159.47L192.74,159.47L192.78,159.46"/><path d="M192.62,159.58L192.65,159.56"/><path d="M192.52,159.60L192.52,159.61L192.50,159.60L192.47,159.58"/><path d="M192.51,159.51L192.49,159.53L192.47,159.54"/><path d="M192.56,159.67L192.49,159.70"/><path d="M192.57,159.64L192.52,159.61"/><path d="M192.50,159.63L192.51,159.61"/><path d="M192.52,159.29L192.49,159.31L192.48,159.32L192.47,159.34"/><path d="M192.79,159.67L192.77,159.64"/><path d="M192.82,159.72L192.80,159.68"/><path d="M192.46,159.56L192.47,159.56"/></g></g><g id="Actor_.9"><g style="stroke:#000000;stroke-width:0.123"><path d="M180.21,76.96L180.15,79.40L180.03,79.42L179.81,79.43L179.59,79.41L179.49,79.39L179.55,76.93"/><path d="M179.64,76.96L179.69,76.96"/><path d="M179.55,76.93L179.55,76.93"/><path d="M179.91,76.97L179.83,76.97"/><path d="M180.04,76.97L180.10,76.96"/><path d="M180.19,75.33L180.32,75.32"/><path d="M180.32,75.31L180.19,75.31"/></g></g><g id="Actor_.10"><g style="stroke:#000000;stroke-width:0.123"><path d="M167.29,63.01L167.33,63.04L167.32,63.05L167.29,63.06L167.18,63.07L166.92,63.09L166.91,63.11L166.82,63.20"/><path d="M166.98,63.12L167.13,63.12L167.28,63.12L167.34,63.11L167.33,63.09L167.28,63.10L167.16,63.10L167.02,63.10L166.93,63.09"/><path d="M167.33,62.93L167.33,62.93L167.32,62.94L167.29,62.95L167.24,62.96L167.13,62.97L166.93,62.98L166.92,62.99L166.92,62.99"/><path d="M166.93,62.88L166.92,62.88L166.92,62.89L167.12,62.87L167.23,62.86L167.31,62.85L167.33,62.84L167.34,62.83L167.34,62.83L167.33,62.84L167.29,62.85L167.24,62.86L167.13,62.87L166.93,62.88"/><path d="M166.92,62.88L166.96,62.85L166.97,62.85L167.17,62.83L167.26,62.81L167.29,62.80L167.30,62.79L167.30,62.76"/><path d="M166.96,62.74L166.92,62.77L167.13,62.76L167.24,62.75L167.29,62.74L167.33,62.73L167.34,62.72L167.33,62.71"/><path d="M166.92,62.77L166.92,62.78L166.96,62.81"/><path d="M167.30,62.55L167.30,62.58L167.29,62.59L167.27,62.60L167.18,62.61L166.97,62.63L166.96,62.63L166.93,62.67L167.13,62.65L167.25,62.64L167.30,62.63L167.33,62.62L167.34,62.62L167.33,62.61"/><path d="M166.93,62.67L166.93,62.67"/><path d="M167.30,62.44L167.30,62.47L167.29,62.48L167.27,62.49L167.18,62.51L166.97,62.53L166.97,62.53L166.93,62.56L167.13,62.55L167.25,62.54L167.30,62.53L167.33,62.52L167.34,62.51L167.33,62.50"/><path d="M166.93,62.56L166.93,62.57"/><path d="M167.30,62.34L167.30,62.37L167.30,62.38L167.27,62.39L167.18,62.40L166.97,62.42L166.97,62.42L166.93,62.45L167.14,62.44L167.25,62.43L167.30,62.42L167.33,62.41L167.34,62.40L167.33,62.39"/><path d="M166.93,62.45L166.93,62.46L166.97,62.49L167.12,62.48L167.23,62.47L167.27,62.46L167.29,62.45L167.33,62.42L167.28,62.43L167.18,62.44L166.93,62.46"/><path d="M166.93,62.35L166.93,62.35L166.94,62.35L167.14,62.33L167.25,62.32L167.30,62.31L167.33,62.31L167.34,62.30L167.34,62.30L167.34,62.31L167.31,62.32L167.24,62.33L167.13,62.34L166.93,62.35L166.97,62.39L167.18,62.37L167.27,62.35L167.29,62.34L167.34,62.31"/><path d="M166.93,62.35L166.97,62.32L166.97,62.31L167.13,62.30L167.23,62.29L167.27,62.28L167.30,62.27L167.30,62.26L167.33,62.29"/><path d="M166.96,63.02L166.92,62.99L167.18,62.98L167.27,62.96L167.31,62.96L167.33,62.95L167.29,62.98L167.26,62.99L167.17,63.00L166.96,63.02L166.96,63.06L167.17,63.04L167.26,63.03L167.29,63.02L167.29,63.01L167.30,62.97"/><path d="M167.33,62.84L167.29,62.87L167.26,62.88L167.17,62.90L166.96,62.92L166.96,62.95L167.17,62.93L167.26,62.92L167.29,62.91L167.30,62.90L167.30,62.87"/><path d="M166.96,62.95L166.92,62.99"/><path d="M166.96,62.85L166.96,62.81L167.17,62.79L167.26,62.78L167.29,62.77L167.33,62.74L167.31,62.74L167.27,62.75L167.18,62.76L166.92,62.78"/><path d="M166.96,62.71L166.93,62.67L167.18,62.66L167.27,62.64L167.31,62.64L167.33,62.63L167.29,62.66L167.26,62.67L167.17,62.69L166.96,62.71L166.96,62.74L167.18,62.72L167.27,62.71L167.29,62.70L167.30,62.69L167.30,62.66"/><path d="M166.96,62.63L166.96,62.60L166.97,62.60L167.17,62.58L167.27,62.56L167.29,62.56L167.33,62.52L167.28,62.54L167.18,62.55L166.93,62.57L166.96,62.60"/><path d="M166.97,62.53L166.97,62.49"/><path d="M166.97,62.42L166.97,62.39"/><path d="M166.97,62.32L166.97,62.28L166.97,62.28L167.18,62.26L167.27,62.25L167.30,62.24L167.34,62.20L167.31,62.21L167.28,62.22L167.19,62.23L166.93,62.25L166.97,62.28"/><path d="M166.92,62.89L166.96,62.92"/><path d="M166.96,63.06L166.92,63.09"/><path d="M166.93,62.25L166.93,62.24L166.94,62.24L167.14,62.23L167.25,62.22L167.30,62.21L167.33,62.20L167.34,62.19L167.34,62.20L167.34,62.20"/><path d="M166.93,62.24L166.97,62.21L166.98,62.21L167.18,62.19L167.27,62.17L167.30,62.17L167.31,62.16L167.31,62.12"/><path d="M167.31,62.02L167.31,62.05L167.30,62.06L167.27,62.07L167.18,62.08L166.98,62.10L166.97,62.10L166.93,62.13L167.14,62.12L167.25,62.11L167.30,62.10L167.32,62.09L167.35,62.08L167.34,62.07"/><path d="M166.93,62.13L166.93,62.14"/><path d="M166.97,62.10L166.97,62.07L166.98,62.07L167.13,62.05L167.23,62.04L167.27,62.03L167.30,62.02L167.32,62.00"/><path d="M167.27,61.96L167.26,62.00L167.14,62.01L166.94,62.03L166.97,62.00L166.98,61.99L167.19,61.98L167.27,61.96L167.25,61.93L167.18,61.94L166.97,61.96L166.95,61.93L167.14,61.91L167.24,61.90L167.23,61.92L167.25,61.93"/><path d="M166.97,62.00L166.97,61.96"/><path d="M166.97,62.07L166.94,62.03L167.14,62.02L167.26,62.01L167.28,62.02L167.30,62.02L167.32,62.00L167.34,61.97L167.34,61.97L167.31,61.94L167.31,61.90L167.32,61.86L167.26,61.53L167.15,61.40L167.04,61.53L167.04,61.54"/><path d="M166.97,62.21L166.97,62.17L167.18,62.15L167.27,62.14L167.30,62.13L167.35,62.09"/><path d="M166.95,61.93L166.95,61.92L167.06,61.91L167.05,61.81L166.97,61.82L166.98,61.85L166.98,61.89L167.06,61.88"/><path d="M166.98,61.89L166.95,61.92"/><path d="M167.06,61.85L166.98,61.85"/><path d="M166.97,62.17L166.93,62.14L167.19,62.12L167.31,62.11L167.30,62.10"/><path d="M167.06,61.55L167.04,61.55L167.15,61.40L167.25,61.55L167.06,61.55"/><path d="M166.94,62.03L166.94,62.03"/><path d="M166.97,61.82L167.04,61.55"/><path d="M167.34,63.11L167.42,63.21"/><path d="M167.33,63.04L167.33,63.09"/><path d="M167.33,62.93L167.30,62.90"/><path d="M167.34,62.83L167.33,62.82"/><path d="M167.33,62.82L167.30,62.79"/><path d="M167.33,62.71L167.30,62.69"/><path d="M167.33,62.61L167.30,62.58"/><path d="M167.33,62.50L167.30,62.47"/><path d="M167.33,62.39L167.30,62.37"/><path d="M167.34,62.30L167.33,62.29"/><path d="M167.33,62.95L167.33,62.94L167.33,62.93"/><path d="M167.33,62.74L167.34,62.73L167.34,62.72"/><path d="M167.33,62.63L167.34,62.62L167.34,62.62"/><path d="M167.33,62.52L167.34,62.52L167.34,62.51"/><path d="M167.33,62.42L167.34,62.41L167.34,62.40"/><path d="M167.30,62.26L167.30,62.23"/><path d="M167.34,62.19L167.34,62.18"/><path d="M167.34,62.18L167.31,62.16"/><path d="M167.35,62.08L167.35,62.09"/><path d="M167.31,62.11L167.33,62.10"/><path d="M167.26,62.01L167.26,62.00"/><path d="M167.25,61.55L167.24,61.90"/><path d="M167.31,62.05L167.34,62.08"/><path d="M167.34,61.97L167.31,61.94"/></g></g><g id="Actor_.11"><g style="stroke:#000000;stroke-width:0.123"><path d="M118.80,104.29L118.07,70.47L139.46,75.45L140.12,179.08L120.02,158.89L118.80,104.29"/><path d="M139.46,75.45L139.87,75.43L118.07,70.47"/><path d="M135.76,134.73L135.77,135.22L138.10,136.85L137.96,119.34L135.61,118.01L135.76,134.73"/><path d="M138.10,136.52L136.16,135.16L135.77,135.22"/><path d="M136.16,135.16L136.00,118.23"/><path d="M135.61,118.01L135.60,118.00"/><path d="M139.23,129.97L139.44,129.26L139.39,128.40L139.05,127.46L138.69,127.20L138.34,127.63L138.30,128.78L138.66,129.83L138.96,130.09L139.20,130.01L138.69,128.60L138.88,127.28"/><path d="M140.12,179.08L140.51,179.00L139.87,75.43"/></g></g><g id="Actor_.12"><g style="stroke:#000000;stroke-width:0.123"><path d="M242.86,118.98L242.71,118.89L242.86,118.98L242.92,119.00L242.96,118.99L243.02,118.97L243.06,118.94L243.10,118.89L243.13,118.83L242.28,118.62L242.56,118.28L242.60,118.24L242.64,118.21L242.70,118.19L242.74,118.18L242.79,118.18L242.84,118.20L242.90,118.22L242.95,118.25L243.03,118.33L243.10,118.44L243.14,118.57L243.15,118.70L243.15,118.76L243.13,118.83"/><path d="M242.84,118.97L242.86,118.98"/><path d="M243.11,118.88L243.15,118.92L243.22,118.97L243.26,118.98L243.32,118.99L243.38,118.98L243.42,118.96L243.45,118.93L243.50,118.87L243.53,118.79L243.54,118.73L243.55,118.63L243.54,118.56L243.50,118.41L243.47,118.34L243.42,118.25L243.34,118.14L243.25,118.07L243.16,118.02L243.10,118.00L243.04,117.99L242.95,118.00L242.90,118.01L242.84,118.03L242.79,118.07L242.74,118.11L242.67,118.20"/><path d="M242.28,118.62L242.65,118.85L242.69,118.87L242.73,118.88L242.80,118.87L242.77,118.88"/><path d="M242.87,118.21L242.93,118.20L242.98,118.21L243.07,118.25L243.16,118.33L243.22,118.40L243.24,118.45L243.26,118.51L243.28,118.59L243.28,118.64L243.28,118.71L243.25,118.77L243.22,118.80L243.19,118.81L243.13,118.82"/><path d="M242.71,118.89L242.68,118.87"/><path d="M243.34,118.99L243.41,118.97L243.47,118.93L243.51,118.87L243.54,118.79L243.56,118.69L243.56,118.59L243.55,118.52L243.52,118.41L243.48,118.31L243.42,118.22L243.36,118.14L243.30,118.09L243.25,118.05L243.16,118.01L243.07,117.99L242.98,117.99"/><path d="M243.01,117.99L242.95,118.00"/><path d="M244.14,118.87L244.22,118.85L244.27,118.81L244.32,118.75L244.35,118.67L244.37,118.58L244.37,118.47L244.35,118.37L244.32,118.26L244.27,118.16L244.21,118.08L244.15,118.01L244.08,117.96L244.02,117.92L243.93,117.89L243.84,117.87L243.76,117.88L243.85,117.88L243.94,117.90L244.03,117.94L244.12,118.00L244.19,118.07L244.26,118.19L244.31,118.29L244.34,118.40L244.35,118.51L244.34,118.64L244.32,118.70L244.30,118.75L244.27,118.80L244.24,118.83L244.20,118.86L244.16,118.87L244.08,118.87L244.04,118.86L244.00,118.84L243.93,118.78"/><path d="M243.53,118.84L243.60,118.90L243.64,118.92L243.68,118.93L243.72,118.93L243.76,118.93L243.80,118.91L243.84,118.89L243.87,118.85L243.90,118.81L243.94,118.70L243.95,118.57L243.94,118.46L243.91,118.35L243.86,118.25L243.79,118.13L243.71,118.06L243.63,117.99L243.54,117.95L243.44,117.94L243.36,117.94L243.44,117.93L243.53,117.94L243.62,117.98L243.68,118.01L243.75,118.07L243.81,118.13L243.87,118.22L243.91,118.31L243.95,118.42L243.96,118.53L243.96,118.64L243.95,118.73L243.92,118.81L243.87,118.87L243.81,118.91L243.74,118.93"/><path d="M243.55,118.76L243.59,118.76L243.62,118.74L243.66,118.71L243.67,118.67L243.68,118.63L243.69,118.56L243.67,118.45L243.62,118.34L243.55,118.25L243.45,118.18L243.37,118.15"/><path d="M243.95,118.70L244.00,118.70L244.02,118.69L244.05,118.66L244.07,118.61L244.09,118.55L244.09,118.50L244.07,118.39L244.02,118.29L243.95,118.19L243.86,118.12L243.77,118.09"/><path d="M243.36,117.94L243.28,117.96L243.22,117.99L243.18,118.02"/><path d="M244.33,118.72L244.38,118.77L244.42,118.79L244.47,118.81L244.53,118.82L244.58,118.81L244.62,118.79L244.66,118.76L244.69,118.72L244.72,118.67L244.74,118.61L244.75,118.49L244.74,118.35L244.70,118.20L244.65,118.10L244.57,117.99L244.46,117.90L244.37,117.85L244.28,117.82L244.22,117.82L244.16,117.82L244.08,117.85L243.98,117.90"/><path d="M243.58,117.96L243.62,117.93L243.68,117.90L243.76,117.88"/><path d="M243.77,117.88L243.77,117.88"/><path d="M243.37,117.94L243.37,117.94"/><path d="M245.70,117.44L245.78,117.54L245.86,117.67L245.93,117.82L245.98,117.97L246.01,118.13L246.02,118.29L246.02,118.45L245.99,118.60L245.95,118.74L245.88,118.89L245.79,119.02L245.70,119.12L245.60,119.19L245.46,119.26L245.30,119.29L245.12,119.29L244.97,119.25L244.85,119.20L244.71,119.10L244.60,119.00L244.50,118.87L244.46,118.81"/><path d="M244.73,118.67L244.78,118.71L244.82,118.73L244.87,118.75L244.93,118.76L244.99,118.75L245.02,118.73L245.06,118.70L245.09,118.66L245.12,118.61L245.14,118.55L245.15,118.43L245.14,118.29L245.10,118.14L245.03,118.02L244.97,117.93L244.86,117.84L244.77,117.79L244.68,117.77L244.56,117.77L244.48,117.79L244.39,117.85"/><path d="M244.95,118.76L245.05,118.74"/><path d="M244.36,118.65L244.40,118.64L244.43,118.63L244.46,118.59L244.48,118.56L244.49,118.49L244.49,118.44L244.47,118.34L244.42,118.23L244.35,118.13L244.26,118.07L244.17,118.04"/><path d="M244.58,117.98L244.66,118.01L244.75,118.08L244.83,118.17L244.87,118.28L244.89,118.38L244.89,118.43L244.88,118.50L244.86,118.53L244.83,118.57L244.80,118.58L244.76,118.59"/><path d="M244.16,117.82L244.25,117.82L244.33,117.83L244.42,117.86L244.48,117.90L244.55,117.95L244.61,118.02L244.67,118.11L244.72,118.20L244.75,118.30L244.77,118.41L244.77,118.52L244.75,118.61L244.72,118.69L244.67,118.75L244.62,118.80L244.55,118.82"/><path d="M244.97,118.76L244.96,118.76"/><path d="M244.56,117.77L244.68,117.76L244.76,117.78L244.92,117.74L244.96,117.72L244.99,117.66L244.90,117.65L244.82,117.66L244.74,117.70L244.66,117.76"/><path d="M244.58,117.77L244.58,117.76"/><path d="M244.18,117.82L244.18,117.82"/><path d="M244.92,117.65L244.83,117.69L244.74,117.77"/><path d="M245.77,117.53L245.68,117.41L245.57,117.31L245.43,117.22L245.31,117.16L245.16,117.12L245.02,117.12L244.91,117.13L244.82,117.16L244.68,117.22L244.58,117.29L244.49,117.39L244.40,117.52L244.33,117.67L244.29,117.82"/></g></g><g id="Actor_.13"><g style="stroke:#000000;stroke-width:0.123"><path d="M205.99,160.70L179.31,145.19L179.25,148.10"/><path d="M204.64,158.32L182.93,145.87"/></g></g><g id="Actor_.14"><g style="stroke:#000000;stroke-width:0.123"><path d="M181.34,67.43L180.50,67.54L180.94,68.48L179.11,147.99L178.68,148.53"/><path d="M178.66,148.51L180.50,67.53"/></g></g><g id="Actor_.15"><g style="stroke:#000000;stroke-width:0.123"><path d="M181.06,146.20L182.89,71.55L181.02,71.24L179.31,145.19L181.06,146.20L182.93,145.87L184.84,71.83"/></g></g><g id="Actor_.16"><g style="stroke:#000000;stroke-width:0.123"><path d="M209.70,75.64L208.16,75.41L204.57,159.82L205.99,160.70"/><path d="M207.83,118.46L207.46,118.11L206.99,118.10L206.68,118.46L206.55,119.04L206.63,119.70L206.90,120.27L207.35,120.61L207.74,120.54"/><path d="M207.64,120.59L207.11,120.24L206.79,119.46L206.82,118.60L207.26,118.05"/></g></g><g id="Actor_.17"><g style="stroke:#000000;stroke-width:0.123"><path d="M205.09,112.05L205.10,112.03L205.12,112.02L205.15,112.01L205.16,112.01L205.18,112.01L205.21,112.01L205.24,112.03L205.27,112.05L205.29,112.07L205.30,112.09L205.31,112.12L205.33,112.15L205.34,112.18L205.34,112.21L205.35,112.23L205.35,112.26L205.34,112.29L205.34,112.32L205.33,112.34L205.32,112.35L205.30,112.36L205.29,112.37L205.27,112.37L205.25,112.36L205.24,112.34L205.23,112.33L205.21,112.31"/><path d="M205.06,112.33L205.08,112.36L205.09,112.37L205.10,112.38L205.11,112.39L205.13,112.39L205.14,112.39L205.15,112.38L205.16,112.37L205.17,112.36L205.18,112.34L205.19,112.32L205.19,112.30L205.19,112.28L205.19,112.25L205.19,112.22L205.18,112.18L205.16,112.15L205.15,112.12L205.14,112.10L205.12,112.08L205.09,112.05L205.06,112.03L205.03,112.03L205.01,112.03L205.03,112.02L205.06,112.03L205.09,112.05L205.11,112.06L205.13,112.08L205.15,112.10L205.17,112.14L205.18,112.17L205.19,112.21L205.20,112.25L205.20,112.29L205.19,112.32L205.18,112.35L205.17,112.37L205.15,112.38L205.14,112.39L205.13,112.39"/><path d="M205.01,112.03L204.98,112.03L204.95,112.05L204.93,112.07L204.91,112.09"/><path d="M204.94,112.37L204.96,112.38L204.96,112.38"/><path d="M204.90,112.34L204.91,112.35L204.96,112.38L204.97,112.39L204.99,112.39L205.00,112.38L205.01,112.38L205.02,112.37L205.03,112.35L205.04,112.32L205.04,112.30L205.04,112.28L205.04,112.25L205.04,112.22L205.03,112.19L205.01,112.16L205.03,112.19"/><path d="M205.01,112.16L205.00,112.15L204.99,112.13L204.97,112.12L204.96,112.10L204.94,112.10L204.93,112.09L204.91,112.09L204.90,112.10L204.88,112.10L204.86,112.12L204.73,112.25L205.04,112.32L205.05,112.29L205.05,112.27L205.05,112.26L205.04,112.22L205.03,112.19"/><path d="M204.91,112.34L204.92,112.34L204.93,112.34L204.92,112.34L204.91,112.34L204.89,112.34L204.73,112.25"/><path d="M204.96,112.10L204.97,112.10L204.99,112.10L205.01,112.11L205.03,112.12L205.05,112.14L205.06,112.15L205.08,112.18L205.09,112.20L205.10,112.23L205.10,112.26L205.10,112.28L205.10,112.30L205.09,112.31L205.08,112.32L205.04,112.33"/><path d="M205.07,112.35L205.07,112.35L205.06,112.33"/><path d="M205.01,112.03L205.01,112.03"/><path d="M205.01,112.03L205.01,112.03"/><path d="M205.63,112.31L205.64,112.30L205.65,112.28L205.66,112.25L205.66,112.22L205.66,112.18L205.65,112.14L205.64,112.10L205.62,112.07L205.60,112.04L205.58,112.01L205.55,111.99L205.53,111.98L205.50,111.97L205.48,111.97L205.45,111.97L205.42,111.99L205.40,112.01"/><path d="M205.38,112.30L205.37,112.29"/><path d="M205.25,112.03L205.26,112.01L205.28,112.00L205.30,111.99L205.32,111.99L205.34,111.99L205.37,111.99L205.40,112.01L205.42,112.03L205.45,112.06L205.46,112.08L205.47,112.10L205.48,112.12L205.49,112.16L205.50,112.19L205.50,112.21L205.50,112.24L205.50,112.26L205.50,112.29L205.49,112.31L205.48,112.32L205.47,112.34L205.46,112.35L205.44,112.35L205.42,112.34L205.41,112.34L205.40,112.33L205.38,112.31"/><path d="M205.38,112.30L205.38,112.31L205.37,112.29"/><path d="M205.22,112.31L205.23,112.33L205.23,112.33"/><path d="M205.29,112.37L205.29,112.37L205.29,112.37"/><path d="M205.16,112.01L205.18,112.00L205.20,112.01L205.22,112.01L205.24,112.02L205.26,112.04L205.28,112.06L205.30,112.08L205.31,112.10L205.33,112.13L205.34,112.15L205.35,112.18L205.35,112.21L205.35,112.24L205.35,112.28L205.35,112.30L205.36,112.26"/><path d="M205.16,112.13L205.19,112.18L205.20,112.20L205.20,112.23L205.20,112.25L205.20,112.27L205.19,112.32"/><path d="M205.33,112.14L205.35,112.17L205.36,112.20L205.36,112.23L205.36,112.26"/><path d="M205.36,112.26L205.36,112.26"/><path d="M205.51,112.24L205.52,112.22L205.51,112.18L205.50,112.15L205.49,112.12"/><path d="M205.52,112.24L205.51,112.24L205.52,112.24"/><path d="M205.13,112.08L205.15,112.08L205.17,112.09L205.18,112.10L205.20,112.11L205.21,112.13L205.23,112.15L205.24,112.17L205.25,112.20L205.26,112.22L205.26,112.25L205.26,112.27L205.25,112.29L205.24,112.30L205.24,112.30L205.20,112.31"/><path d="M205.29,112.06L205.31,112.07L205.33,112.07L205.34,112.08L205.36,112.09L205.37,112.11L205.39,112.13L205.40,112.16L205.41,112.18L205.41,112.20L205.41,112.23L205.41,112.25L205.41,112.27L205.40,112.28L205.39,112.28L205.35,112.29"/><path d="M205.51,112.27L205.55,112.26L205.56,112.26L205.56,112.25L205.57,112.23L205.57,112.21L205.57,112.18L205.56,112.16L205.56,112.14L205.54,112.11L205.53,112.09L205.51,112.07L205.50,112.06L205.48,112.05L205.47,112.05L205.44,112.04"/><path d="M205.64,112.09L205.63,112.07L205.64,112.09L205.65,112.13L205.66,112.15L205.67,112.18L205.67,112.21L205.67,112.23L205.66,112.25L205.66,112.28"/><path d="M205.63,112.07L205.61,112.04L205.60,112.02L205.58,112.00L205.56,111.99L205.54,111.98L205.52,111.97L205.50,111.97L205.48,111.97"/><path d="M205.49,112.12L205.47,112.09L205.48,112.11L205.49,112.13L205.50,112.17L205.51,112.20L205.51,112.22L205.51,112.25L205.51,112.27L205.50,112.30L205.49,112.32L205.47,112.34L205.46,112.35L205.45,112.35"/><path d="M205.45,112.35L205.44,112.35"/><path d="M205.32,111.99L205.35,111.99L205.37,111.99L205.38,112.00L205.40,112.01L205.42,112.02L205.44,112.04L205.45,112.06L205.47,112.09"/><path d="M205.29,112.37L205.31,112.36L205.33,112.35L205.34,112.33L205.35,112.30"/><path d="M205.14,112.39L205.14,112.39"/><path d="M205.51,112.24L205.51,112.28"/><path d="M205.32,112.11L205.33,112.14"/><path d="M205.20,112.28L205.20,112.28L205.20,112.28"/><path d="M205.17,112.01L205.17,112.01"/><path d="M205.32,111.99L205.32,111.99"/><path d="M205.66,112.26L205.66,112.26"/><path d="M205.48,111.97L205.48,111.97"/></g></g><g id="Actor_.18"><g style="stroke:#000000;stroke-width:0.123"><path d="M209.70,75.64L181.02,71.24L181.09,68.45"/></g></g><g id="Actor_.19"><g style="stroke:#000000;stroke-width:0.123"><path d="M205.99,126.41L203.47,125.37L204.11,109.48L204.32,109.45L206.68,110.23"/><path d="M204.11,109.48L206.68,110.32"/></g></g><g id="Actor_.20"><g style="stroke:#000000;stroke-width:0.123"><path d="M205.84,164.04L206.49,165.29"/><path d="M205.84,164.05L209.83,72.48L210.64,71.44"/></g></g><g id="Actor_.21"><g style="stroke:#000000;stroke-width:0.123"><path d="M260.60,113.34L260.44,113.40"/><path d="M260.63,113.41L260.46,113.48"/><path d="M260.18,110.71L260.44,110.67L260.47,110.67L260.50,110.69L260.62,110.82"/><path d="M261.42,111.65L261.43,111.69L261.31,113.09L261.30,113.11L261.28,113.13"/><path d="M261.28,113.13L261.03,113.24"/><path d="M260.90,111.11L261.42,111.65"/></g></g><g id="Actor_.22"><g style="stroke:#000000;stroke-width:0.123"><path d="M258.63,113.09L258.89,113.53L260.41,113.95L260.66,113.73"/><path d="M258.64,112.99L258.63,113.09L258.59,113.12L258.55,113.14L258.52,113.15L258.48,113.15L258.49,113.06L258.49,113.03L258.53,113.03L258.57,113.02L258.59,113.00L258.62,112.96"/><path d="M258.48,113.15L258.46,113.12L258.44,113.06L258.45,112.91L258.47,112.84L258.49,112.67"/><path d="M258.45,112.91L258.46,112.98L258.47,113.02L258.49,113.03L258.49,113.06"/><path d="M258.49,113.03L258.49,113.03"/><path d="M259.17,110.91L259.14,110.86L259.10,110.83L259.05,110.81L259.00,110.82L258.96,110.85L258.93,110.89L258.92,110.95L258.92,111.01"/><path d="M258.60,111.34L258.63,110.92L258.62,110.85L258.63,110.70L258.65,110.71L258.67,110.74L258.72,110.73L258.77,110.73L258.64,110.70"/><path d="M258.62,110.85L258.63,110.83L258.64,110.82L258.66,110.86L258.67,110.74"/><path d="M258.77,110.73L258.82,110.76L258.82,110.75L259.13,110.47L260.66,110.87L260.92,111.30"/><path d="M258.66,110.83L258.67,110.86L258.72,110.84L258.74,110.85L258.77,110.87L258.79,110.91L258.80,110.97L258.82,110.76"/><path d="M258.66,110.86L258.67,110.86"/><path d="M259.07,110.82L259.04,110.85L259.02,110.88L259.00,110.97"/><path d="M260.66,110.87L260.75,110.85L259.22,110.46L259.13,110.47"/><path d="M260.41,113.95L260.50,113.94L260.72,113.74"/><path d="M260.62,113.39L260.59,113.32L260.55,113.28L260.50,113.25L260.44,113.26L260.39,113.30L260.36,113.36L260.36,113.43L260.37,113.50L260.41,113.55L260.45,113.59L260.50,113.60L260.55,113.60L260.59,113.57L260.62,113.52L260.63,113.45L260.62,113.39"/><path d="M260.88,111.29L260.83,111.28L260.77,111.29L260.94,111.31L261.08,111.35L261.07,111.49L261.08,111.57L260.92,113.50L260.90,113.57L260.84,113.60L260.79,113.61L260.73,113.62L260.66,113.61L260.60,113.60"/><path d="M260.75,113.45L260.73,113.50L260.70,113.56L260.68,113.58L260.64,113.60L260.59,113.60L260.58,113.63L260.60,113.60L260.62,113.61"/><path d="M260.56,113.59L260.52,113.56L260.49,113.53L260.46,113.49L260.45,113.44L260.44,113.38L260.45,113.33L260.47,113.29L260.51,113.26"/><path d="M260.58,113.63L260.58,113.72L260.72,113.74L260.86,113.73L260.89,113.72L260.90,113.57"/><path d="M260.78,111.41L260.77,111.39L260.77,111.41L260.78,111.41L260.86,111.41L260.95,111.43L261.02,111.46L261.07,111.50"/><path d="M260.75,110.85L261.01,111.29L260.93,111.30"/><path d="M260.77,111.29L260.77,111.39"/><path d="M261.08,111.35L261.11,111.37L261.15,111.42L261.16,111.49L261.17,111.56L261.01,113.50L260.99,113.57L260.97,113.62L260.93,113.67L260.89,113.72"/><path d="M260.91,111.52L260.90,111.52L260.89,111.45L260.86,111.41"/><path d="M261.01,111.29L261.01,111.32"/><path d="M260.87,111.29L260.99,111.32"/></g></g><g id="Actor_.23"><g style="stroke:#000000;stroke-width:0.123"><path d="M80.36,147.52L79.50,147.18L79.28,147.01L79.15,146.84L78.19,128.40L78.27,128.49"/><path d="M79.46,129.88L79.79,130.26L80.75,149.08L80.42,148.62L79.46,129.87"/><path d="M80.75,149.08L81.08,149.03L80.13,130.22L79.79,130.26"/><path d="M80.12,130.13L82.36,129.84L83.28,148.58L81.07,148.92"/></g></g><g id="Actor_.24"><g style="stroke:#000000;stroke-width:0.123"><path d="M264.71,112.56L264.47,113.30L264.30,113.32L262.41,112.82"/><path d="M264.30,113.32L264.55,112.52L265.07,112.66L264.99,113.51L265.31,113.59L265.43,113.51L265.54,113.41L265.61,113.32L265.65,113.25L265.68,113.18L265.72,113.07L265.76,112.90L265.77,112.78L265.77,112.69L265.75,112.47L265.70,112.29L265.65,112.18L265.61,112.10L265.56,112.02L265.49,111.92L265.45,111.88L262.54,111.12"/><path d="M265.45,111.88L265.63,111.86L262.41,111.02"/><path d="M265.31,113.59L265.48,113.57L265.59,113.50L265.70,113.40L265.78,113.30L265.83,113.20L265.89,113.07L265.92,112.93L265.94,112.81L265.94,112.66L265.93,112.51L265.90,112.36L265.85,112.21L265.78,112.07L265.70,111.95L265.63,111.86"/></g></g><g id="Actor_.25"><g style="stroke:#000000;stroke-width:0.123"><path d="M208.04,166.42L206.49,165.48L210.65,71.28L212.35,71.50L208.05,166.33L211.12,165.74L215.63,71.34L212.35,71.50"/></g></g><g id="Actor_.26"><g style="stroke:#000000;stroke-width:0.123"><path d="M80.75,149.08L79.15,146.84L79.18,147.44L80.78,149.70L81.11,149.65L81.08,149.03L80.75,149.08L80.78,149.70"/><path d="M81.09,149.23L83.29,148.89L83.28,148.58L81.07,148.92"/></g></g><g id="Actor_.27"><g style="stroke:#000000;stroke-width:0.123"><path d="M211.29,68.07L211.08,68.08L215.32,68.57L215.54,68.56L211.29,68.07"/><path d="M215.62,76.07L215.40,76.08L215.72,69.30L215.94,69.29L215.62,76.07"/><path d="M215.94,69.29L215.74,68.93"/><path d="M215.54,68.56L215.56,68.60"/></g></g><g id="Actor_.28"><g style="stroke:#000000;stroke-width:0.123"><path d="M210.64,71.44L210.45,71.55L209.81,72.40L180.91,68.42L180.51,67.59L180.51,67.48L181.34,67.43"/></g></g><g id="Actor_.29"><g style="stroke:#000000;stroke-width:0.123"><path d="M205.84,164.01L179.13,148.02L178.68,148.48L178.66,148.51L178.90,148.67L206.41,165.26L206.32,165.14L205.84,164.03"/><path d="M206.43,165.27L206.49,165.29"/></g></g><g id="Actor_.30"><g style="stroke:#000000;stroke-width:0.123"><path d="M178.39,148.51L208.04,166.42L207.93,168.79L178.34,150.56"/><path d="M210.82,167.91L210.91,166.02L208.24,166.61L208.15,168.51L210.82,167.91L208.55,166.54"/><path d="M207.93,168.79L211.01,168.10L211.12,165.74L208.04,166.42"/></g></g><g id="Actor_.31"><g style="stroke:#000000;stroke-width:0.123"><path d="M178.16,139.93L178.12,141.33L178.15,141.40L178.30,141.45L178.50,141.47L178.68,141.44L178.82,141.40"/><path d="M178.22,139.98L178.18,139.97L178.17,139.95"/><path d="M178.78,139.94L178.82,139.93L178.85,139.95"/><path d="M178.68,140.01L178.85,139.97"/><path d="M178.61,140.02L178.54,140.03L178.49,140.03"/><path d="M178.40,140.02L178.33,140.02L178.29,140.01"/><path d="M178.82,139.93L178.87,137.73"/><path d="M178.94,136.29L178.65,136.35L178.46,136.34L178.31,136.31L178.23,136.25L178.20,137.69L178.27,137.75L178.43,137.78L178.61,137.79L178.90,137.73"/><path d="M178.81,136.27L178.94,136.24"/><path d="M178.23,136.25L178.26,136.20L178.28,136.19"/></g></g><g id="Actor_.32"><g style="stroke:#000000;stroke-width:0.123"><path d="M178.83,137.74L178.78,139.96L178.67,140.02L178.45,140.03L178.25,140.00L178.15,139.93L178.20,137.69"/><path d="M178.20,137.69L178.20,137.69"/><path d="M178.29,137.75L178.34,137.76"/><path d="M178.47,137.78L178.50,137.79L178.55,137.79"/><path d="M178.73,137.77L178.72,137.77L178.67,137.78"/><path d="M178.80,136.15L178.94,136.13"/><path d="M178.94,136.09L178.78,136.12"/></g></g><g id="Actor_.33"><g style="stroke:#000000;stroke-width:0.123"><path d="M78.84,129.16L78.19,128.40L78.16,127.77L78.48,127.73L80.09,129.59L80.13,130.22L79.79,130.26L78.84,129.16"/><path d="M78.83,128.14L80.87,127.89L82.34,129.53L80.10,129.81"/><path d="M79.79,130.26L79.76,129.63L78.16,127.77"/><path d="M79.76,129.63L80.09,129.59"/><path d="M80.12,130.13L82.36,129.84L82.34,129.53"/></g></g><g id="Actor_.34"><g style="stroke:#000000;stroke-width:0.123"><path d="M178.70,141.43L178.69,141.49L178.57,141.54L178.37,141.55L178.20,141.50L178.20,141.42"/><path d="M178.17,141.41L178.20,141.50"/><path d="M178.32,136.19L178.32,136.28L178.49,136.32L178.68,136.32L178.81,136.27L178.82,136.19L178.78,136.11L178.77,136.11L178.61,136.07L178.42,136.07L178.29,136.12L178.28,136.20L178.32,136.28"/></g></g><g id="Actor_.35"><g style="stroke:#000000;stroke-width:0.123"><path d="M178.50,141.54L178.50,141.56"/><path d="M178.62,135.89L178.62,136.07"/><path d="M179.85,81.09L179.85,81.25"/><path d="M179.99,75.01L179.99,75.22"/></g></g><g id="Actor_.36"><g style="stroke:#000000;stroke-width:0.123"><path d="M258.49,112.43L258.54,112.62L258.62,112.79L258.73,112.96L258.85,113.09L258.98,113.18L259.14,113.26L259.28,113.29L259.36,113.29L259.45,113.28L259.54,113.26L259.61,113.23L259.73,113.15L259.81,113.08L259.86,113.02L259.94,112.89L260.00,112.73L260.05,112.53L260.05,112.35L260.03,112.13L259.97,111.92L259.90,111.75L259.78,111.58L259.66,111.46L259.53,111.36L259.38,111.29L259.23,111.26L259.15,111.25L259.06,111.26L258.99,111.28L258.90,111.32L258.78,111.40L258.67,111.50L258.57,111.66L258.50,111.84L258.47,112.02L258.46,112.23L258.49,112.43"/><path d="M258.93,113.02L258.81,112.91L258.73,112.80L258.66,112.68L258.61,112.54L258.57,112.40L258.55,112.23L258.56,112.09L258.58,111.92L258.62,111.79L258.69,111.66L258.77,111.56L258.86,111.48L258.95,111.42L259.06,111.38L259.17,111.37L259.30,111.38L259.37,111.40L259.46,111.44L259.61,111.54L259.73,111.68L259.84,111.84L259.91,112.03L259.95,112.23L259.96,112.43L259.93,112.62L259.87,112.80L259.78,112.95L259.73,113.01L259.66,113.07L259.58,113.12L259.52,113.14L259.39,113.17L259.32,113.18L259.23,113.17L259.14,113.14L259.07,113.11L258.93,113.02"/><path d="M259.68,113.59L259.54,113.60L259.37,113.58L259.21,113.52L259.05,113.44L258.93,113.34L258.79,113.20L258.67,113.04L258.57,112.86L258.49,112.67L258.43,112.46L258.40,112.25L258.40,112.04L258.41,111.87L258.45,111.67L258.52,111.49L258.61,111.32L258.68,111.22L258.78,111.12L258.89,111.03L259.01,110.96L259.12,110.92L259.25,110.90L259.36,110.89L259.50,110.91L259.64,110.95L259.77,111.01L259.90,111.09L260.00,111.17L260.11,111.28L260.20,111.39L260.27,111.50L260.35,111.66L260.41,111.79L260.46,111.96L260.49,112.14L260.51,112.28L260.51,112.46L260.50,112.59L260.48,112.73L260.43,112.89L260.37,113.04L260.30,113.18L260.20,113.30L260.12,113.38L260.01,113.47L259.91,113.52L259.81,113.56L259.68,113.59L259.91,113.55L260.02,113.52L260.09,113.48L260.18,113.42L260.27,113.35L260.35,113.26L260.43,113.16L260.49,113.05L260.54,112.94L260.58,112.81L260.61,112.68L260.64,112.44L260.64,112.30L260.63,112.15L260.58,111.91L260.54,111.77L260.48,111.64L260.42,111.52L260.35,111.40L260.26,111.29L260.18,111.19L260.08,111.11L259.98,111.04L259.87,110.98L259.77,110.93L259.66,110.90L259.55,110.88L259.43,110.88L259.35,110.88"/><path d="M259.40,113.16L259.27,113.16L259.14,113.13L259.01,113.06L258.89,112.97L258.79,112.85L258.70,112.71L258.63,112.55L258.59,112.39L258.57,112.22L258.57,112.05L258.61,111.89L258.66,111.74L258.74,111.61L258.85,111.50L258.97,111.43L259.10,111.39L259.23,111.38L259.36,111.41L259.49,111.47L259.62,111.56L259.72,111.67L259.82,111.81L259.89,111.96L259.93,112.10L259.96,112.27L259.96,112.43L259.94,112.58L259.90,112.73L259.81,112.89L259.70,113.02L259.65,113.06L259.57,113.11L259.49,113.14L259.40,113.16L259.52,113.14"/><path d="M259.08,112.81L259.30,112.88L259.31,112.63L259.33,112.31L259.35,112.03L259.39,111.74L259.17,111.68L259.10,112.24L259.08,112.52L259.08,112.81L259.30,112.78"/><path d="M259.35,110.88L259.22,110.90"/><path d="M259.12,111.39L259.22,111.37"/><path d="M261.39,112.57L261.33,112.81"/><path d="M261.38,112.62L261.40,112.57L261.44,112.80L261.46,112.75L261.50,112.55"/><path d="M261.44,112.80L261.32,112.95"/><path d="M261.72,112.53L261.65,112.77L261.65,112.76L261.64,112.72L261.62,112.54L261.60,112.60"/><path d="M261.70,112.58L261.73,112.52L261.76,112.76L261.78,112.70L261.82,112.51"/><path d="M261.49,112.61L261.51,112.55L261.54,112.78L261.56,112.73L261.61,112.54"/><path d="M261.54,112.78L261.50,112.83L261.52,112.81"/><path d="M261.34,112.99L261.32,113.01"/><path d="M261.61,112.81L261.64,112.76L261.64,112.77"/><path d="M261.53,112.91L261.47,112.96"/><path d="M261.41,113.00L261.44,112.99"/><path d="M261.72,112.79L261.74,112.77"/><path d="M261.64,112.89L261.63,112.90"/><path d="M261.68,112.85L261.69,112.83"/><path d="M261.69,112.93L261.75,112.88"/><path d="M261.52,113.03L261.50,113.04L261.56,113.02"/><path d="M261.43,113.06L261.45,113.05"/><path d="M261.39,113.07L261.36,113.07"/><path d="M261.76,112.94L261.70,112.98"/><path d="M261.72,112.97L261.72,112.97"/><path d="M261.63,113.01L261.70,112.98"/><path d="M261.67,113.02L261.69,113.02"/><path d="M261.62,113.04L261.60,113.04"/><path d="M261.52,112.83L261.55,112.78L261.43,112.93L261.32,113.02"/><path d="M261.66,112.77L261.58,112.87L261.49,112.96L261.43,113.01L261.31,113.07"/><path d="M261.49,112.94L261.49,112.94"/><path d="M261.47,112.96L261.43,112.99"/><path d="M261.42,113.00L261.38,113.03"/><path d="M261.35,113.04L261.31,113.06"/><path d="M261.34,113.05L261.32,113.06"/><path d="M261.37,113.03L261.35,113.04"/><path d="M261.35,113.07L261.31,113.08"/><path d="M261.73,112.81L261.73,112.80L261.63,112.91"/><path d="M261.63,112.91L261.55,112.98L261.42,113.05L261.46,113.03"/><path d="M261.41,113.06L261.41,113.05L261.31,113.08"/><path d="M261.73,112.89L261.71,112.91"/><path d="M261.69,112.93L261.63,112.97"/><path d="M261.57,113.01L261.63,112.98"/><path d="M261.50,113.04L261.50,113.04"/><path d="M261.81,112.57L261.83,112.51L261.86,112.73L261.86,112.74L261.87,112.74L261.76,112.88L261.68,112.95L261.57,113.02L261.43,113.07L261.32,113.08"/><path d="M261.69,112.99L261.66,113.00"/><path d="M261.50,113.06L261.46,113.06"/><path d="M261.50,113.05L261.57,113.04"/><path d="M261.46,113.06L261.46,113.06"/><path d="M262.04,112.48L261.98,112.72L261.89,112.84L261.83,112.90L261.77,112.95L261.64,113.02L261.51,113.06L261.43,113.07"/><path d="M261.58,113.04L261.56,113.05"/><path d="M262.03,112.54L262.05,112.48L262.07,112.70L262.08,112.71L262.08,112.71L261.98,112.84L261.92,112.90L261.80,112.98L261.66,113.03L261.54,113.05"/><path d="M261.57,113.04L261.56,113.05"/><path d="M261.64,113.04L261.79,113.01L261.91,112.96L262.00,112.90L262.11,112.81L262.19,112.69L262.18,112.69L262.15,112.47L262.13,112.52"/><path d="M261.65,111.94L261.62,111.71L261.60,111.76L261.55,111.95L261.53,111.87"/><path d="M261.61,111.72L261.59,111.67"/><path d="M261.60,111.69L261.57,111.63L261.59,111.69"/><path d="M261.42,111.81L261.43,111.97"/><path d="M261.54,111.96L261.51,111.72L261.49,111.78L261.44,111.97L261.42,111.89"/><path d="M261.50,111.74L261.48,111.68"/><path d="M261.64,111.86L261.66,111.94L261.71,111.71L261.73,111.70L261.70,111.62L261.62,111.47L261.54,111.36L261.43,111.23L261.31,111.13L261.17,111.05"/><path d="M261.73,111.70L261.75,111.93"/><path d="M261.71,111.71L261.70,111.66"/><path d="M261.40,111.52L261.42,111.55"/><path d="M261.51,111.71L261.49,111.66"/><path d="M261.43,111.55L261.41,111.50L261.48,111.64L261.44,111.57"/><path d="M261.44,111.60L261.46,111.63"/><path d="M261.49,111.71L261.46,111.64L261.49,111.71"/><path d="M261.51,111.50L261.52,111.53"/><path d="M261.55,111.59L261.56,111.61"/><path d="M261.61,111.70L261.59,111.65"/><path d="M261.67,111.59L261.68,111.62"/><path d="M261.71,111.65L261.72,111.68"/><path d="M261.67,111.56L261.69,111.61"/><path d="M260.86,111.00L261.00,111.03L261.09,111.08L261.20,111.14L261.33,111.25L261.44,111.37L261.49,111.45L261.58,111.62L261.56,111.58L261.54,111.54L261.62,111.71"/><path d="M261.31,111.54L261.29,111.50L261.31,111.54"/><path d="M261.23,111.41L261.29,111.50L261.28,111.49"/><path d="M261.43,111.55L261.51,111.73"/><path d="M261.72,111.68L261.71,111.67"/><path d="M261.72,111.69L261.72,111.68"/><path d="M261.01,111.20L261.03,111.22"/><path d="M261.14,111.32L261.16,111.34"/><path d="M261.07,111.26L261.10,111.28"/><path d="M261.25,111.46L261.26,111.49"/><path d="M260.88,111.05L260.86,111.05"/><path d="M261.11,111.19L261.14,111.20"/><path d="M261.18,111.24L261.20,111.26"/><path d="M261.35,111.44L261.37,111.47"/><path d="M260.95,111.08L260.93,111.07"/><path d="M261.24,111.30L261.26,111.33"/><path d="M261.41,111.50L261.38,111.46"/><path d="M260.91,111.01L260.88,111.01"/><path d="M261.05,111.07L261.03,111.06"/><path d="M261.28,111.22L261.30,111.24"/><path d="M261.36,111.31L261.34,111.29"/><path d="M261.46,111.43L261.47,111.45"/><path d="M260.98,111.04L260.96,111.03"/><path d="M261.22,111.17L261.24,111.19"/><path d="M261.45,111.40L261.46,111.41"/><path d="M261.08,111.02L261.06,111.01"/><path d="M261.32,111.15L261.34,111.17"/><path d="M261.39,111.21L261.41,111.23"/><path d="M261.16,111.05L261.13,111.04"/><path d="M260.91,110.96L260.85,110.97"/><path d="M261.16,111.00L261.19,111.01"/><path d="M261.26,111.04L261.24,111.02"/><path d="M261.70,111.44L261.72,111.47"/><path d="M261.02,110.95L260.95,110.95"/><path d="M261.66,111.23L261.68,111.26"/><path d="M261.53,111.12L261.55,111.14"/><path d="M261.60,111.17L261.62,111.19"/><path d="M261.32,110.95L261.30,110.95"/><path d="M261.40,110.97L261.37,110.97"/><path d="M261.47,111.00L261.45,110.99"/><path d="M261.66,111.12L261.64,111.10"/><path d="M261.72,111.18L261.70,111.16"/><path d="M261.22,110.92L261.16,110.93"/><path d="M261.43,110.94L261.40,110.93"/><path d="M261.48,110.95L261.50,110.96"/><path d="M261.57,110.99L261.55,110.98"/><path d="M261.26,110.91L261.32,110.91"/><path d="M261.50,110.92L261.53,110.92"/><path d="M261.58,110.94L261.60,110.94"/><path d="M261.65,110.96L261.68,110.97"/><path d="M261.58,110.90L261.51,110.89"/><path d="M261.65,110.91L261.58,110.90L261.62,110.91"/><path d="M261.73,110.93L261.65,110.91L261.70,110.93"/><path d="M261.62,110.88L261.55,110.88L261.59,110.88"/><path d="M261.70,110.89L261.63,110.88L261.67,110.88"/><path d="M261.63,110.87L261.65,110.86"/><path d="M260.98,110.99L261.01,111.00"/><path d="M261.45,111.27L261.47,111.29"/><path d="M261.24,111.44L261.28,111.49L261.27,111.48"/><path d="M261.23,111.41L261.12,111.28L261.06,111.23L260.91,111.12"/><path d="M261.33,111.39L261.28,111.33L261.16,111.21L261.10,111.16L260.97,111.08"/><path d="M260.97,111.08L260.86,111.04"/><path d="M261.33,111.39L261.39,111.47L261.35,111.43"/><path d="M261.35,111.42L261.35,111.42"/><path d="M260.83,110.99L260.86,110.99"/><path d="M261.46,111.41L261.49,111.45L261.48,111.44"/><path d="M261.54,111.36L261.54,111.36"/><path d="M261.17,111.05L261.07,111.01L260.96,110.98L260.82,110.97L260.92,110.96L260.99,110.96L261.14,110.98L261.21,111.00L261.28,111.03L261.25,111.02L261.40,111.10L261.55,111.23"/><path d="M261.23,111.01L261.21,111.00"/><path d="M261.56,111.23L261.65,111.34L261.72,111.44L261.77,111.54L261.83,111.68L261.82,111.69L261.76,111.93L261.75,111.84"/><path d="M261.34,111.00L261.35,111.00L261.22,110.96L261.10,110.94L261.03,110.94L260.92,110.96"/><path d="M261.76,111.33L261.70,111.26L261.58,111.14L261.45,111.05L261.35,111.00"/><path d="M261.02,110.94L261.14,110.93L261.27,110.94L261.42,110.97L261.49,111.00L261.62,111.08L261.74,111.18L261.86,111.30L261.93,111.42L261.93,111.40"/><path d="M261.14,110.93L261.24,110.91L261.38,110.92L261.45,110.93L261.59,110.98L261.72,111.06L261.79,111.11L261.91,111.22L262.00,111.34L261.98,111.32"/><path d="M261.24,110.91L261.34,110.90L261.41,110.90L261.55,110.92L261.62,110.94L261.76,111.00L261.83,111.05L261.96,111.15"/><path d="M261.73,110.93L261.80,110.96"/><path d="M261.37,110.90L261.43,110.89"/><path d="M261.44,110.89L261.37,110.89L261.51,110.88L261.66,110.91L261.78,110.95L261.88,111.00L261.99,111.07L262.08,111.15L262.17,111.25L262.26,111.39L262.25,111.36"/><path d="M261.37,110.89L261.35,110.90"/><path d="M261.55,110.88L261.48,110.88L261.52,110.88"/><path d="M261.91,110.94L261.80,110.90L261.71,110.88L261.56,110.87L261.46,110.89"/><path d="M261.72,110.86L261.79,110.87"/><path d="M262.32,111.15L262.25,111.08L262.13,110.99L262.04,110.94L261.96,110.90L261.88,110.88L261.72,110.86L261.56,110.87"/><path d="M261.70,110.85L261.77,110.85"/><path d="M262.51,111.23L262.52,111.24L262.50,111.22L262.55,111.30L262.44,111.15L262.32,111.03L262.18,110.94L262.10,110.90L261.94,110.85L261.86,110.84L261.79,110.84L261.67,110.86"/><path d="M261.76,112.75L261.73,112.80"/><path d="M261.93,112.50L261.87,112.74"/><path d="M262.05,112.75L262.09,112.70L262.14,112.47"/><path d="M262.25,112.45L262.19,112.69"/><path d="M262.36,112.44L262.30,112.68L262.29,112.67L262.28,112.63L262.26,112.45L262.24,112.51"/><path d="M262.46,112.42L262.40,112.67L262.39,112.66L262.39,112.62L262.37,112.44L262.35,112.49"/><path d="M262.39,112.66L262.36,112.71L262.37,112.69"/><path d="M262.57,112.41L262.51,112.65L262.50,112.65L262.50,112.61L262.48,112.42L262.45,112.48"/><path d="M261.92,112.55L261.94,112.49L261.97,112.72L261.97,112.73L261.98,112.72L261.94,112.78L261.98,112.72"/><path d="M261.97,112.72L261.94,112.76L261.95,112.74"/><path d="M262.56,112.46L262.58,112.41L262.60,112.58L262.62,112.40"/><path d="M262.60,112.58L262.49,112.73L262.36,112.83"/><path d="M262.13,110.92L262.25,110.95L262.39,111.01L262.50,111.08L262.61,111.20L262.70,111.31L262.78,111.46L262.85,111.63L262.88,111.77L262.83,112.37L262.79,112.47L262.70,112.60L262.60,112.71L262.48,112.79L262.35,112.84"/><path d="M261.83,112.77L261.85,112.75"/><path d="M261.92,112.78L261.87,112.84"/><path d="M261.87,112.84L261.89,112.82"/><path d="M261.82,112.90L261.87,112.84"/><path d="M261.97,112.84L261.91,112.89"/><path d="M261.87,112.92L261.85,112.94"/><path d="M261.82,112.96L261.80,112.97"/><path d="M262.04,112.74L262.06,112.72"/><path d="M261.75,112.99L261.73,113.00"/><path d="M262.10,112.80L262.12,112.78"/><path d="M262.05,112.85L262.07,112.83"/><path d="M262.14,112.74L262.18,112.69"/><path d="M262.01,112.88L262.00,112.90"/><path d="M262.24,112.74L262.27,112.70"/><path d="M262.00,112.95L262.03,112.93"/><path d="M261.96,112.97L261.94,112.98"/><path d="M262.27,112.81L262.29,112.79"/><path d="M262.05,112.96L262.07,112.95"/><path d="M262.00,112.98L261.98,112.98"/><path d="M262.38,112.79L262.40,112.77"/><path d="M262.09,112.97L262.11,112.96"/><path d="M262.22,112.91L262.25,112.90"/><path d="M262.16,112.94L262.18,112.93"/><path d="M262.26,112.72L262.29,112.67"/><path d="M262.40,112.66L262.33,112.77L262.28,112.82L262.17,112.91L262.03,112.97L261.92,113.00L261.86,113.01"/><path d="M262.26,112.74L262.30,112.68L262.23,112.78L262.16,112.85L262.07,112.92L262.00,112.96"/><path d="M261.95,112.74L261.92,112.78"/><path d="M261.86,112.86L261.84,112.88"/><path d="M261.78,112.92L261.78,112.93L261.82,112.90"/><path d="M261.76,112.94L261.78,112.93"/><path d="M261.87,113.00L261.93,112.98"/><path d="M261.75,113.02L261.87,113.00L262.00,112.96L261.95,112.98L261.97,112.97"/><path d="M261.95,112.98L261.94,112.98"/><path d="M262.46,112.70L262.50,112.64"/><path d="M261.96,112.99L262.10,112.97L262.22,112.92L262.28,112.89L262.39,112.80L262.43,112.75L262.51,112.65L262.48,112.70"/><path d="M261.86,111.91L261.83,111.68"/><path d="M262.07,111.80L262.09,111.88L262.14,111.65L262.15,111.64L262.18,111.87"/><path d="M262.14,111.65L262.13,111.62"/><path d="M262.16,111.64L262.10,111.50L262.13,111.57"/><path d="M262.50,111.82L262.47,111.59L262.45,111.64L262.41,111.84L262.39,111.76"/><path d="M262.60,111.73L262.62,111.81L262.68,111.56L262.67,111.80"/><path d="M261.85,111.83L261.87,111.91L261.93,111.68L261.94,111.67L261.97,111.90"/><path d="M261.96,111.82L261.98,111.90L262.04,111.66L262.05,111.65L262.08,111.88"/><path d="M262.04,111.66L262.03,111.64"/><path d="M262.18,111.79L262.19,111.87L262.25,111.63L262.26,111.62L262.29,111.85"/><path d="M262.26,111.63L262.21,111.51L262.13,111.36L262.08,111.28L261.96,111.15"/><path d="M262.40,111.84L262.37,111.61L262.35,111.66L262.30,111.85L262.28,111.77"/><path d="M262.36,111.62L262.35,111.59"/><path d="M262.50,111.74L262.51,111.82L262.57,111.59L262.58,111.58L262.61,111.81"/><path d="M262.57,111.59L262.56,111.57"/><path d="M261.77,111.58L261.79,111.61"/><path d="M261.82,111.69L261.81,111.66"/><path d="M261.88,111.56L261.89,111.59"/><path d="M261.93,111.68L261.92,111.65"/><path d="M261.96,111.49L261.97,111.51"/><path d="M261.99,111.56L262.00,111.59"/><path d="M262.10,111.54L262.11,111.57"/><path d="M262.31,111.51L262.32,111.54"/><path d="M262.45,111.54L262.47,111.58"/><path d="M262.43,111.52L262.46,111.61"/><path d="M261.79,111.57L261.81,111.61"/><path d="M261.83,111.67L261.82,111.65"/><path d="M261.82,111.42L261.88,111.52L261.94,111.67"/><path d="M262.05,111.66L261.98,111.51"/><path d="M262.02,111.58L261.99,111.51"/><path d="M262.15,111.62L262.14,111.61"/><path d="M262.15,111.63L262.15,111.62"/><path d="M262.37,111.61L262.33,111.51L262.34,111.54"/><path d="M262.47,111.59L262.47,111.58"/><path d="M262.48,111.60L262.44,111.50L262.37,111.37"/><path d="M262.58,111.58L262.53,111.46"/><path d="M261.90,111.56L261.89,111.56"/><path d="M261.98,111.50L261.93,111.42"/><path d="M262.11,111.54L262.11,111.54"/><path d="M262.36,111.59L262.35,111.57"/><path d="M262.56,111.54L262.57,111.55"/><path d="M262.56,111.31L262.63,111.42L262.69,111.56"/><path d="M262.56,111.31L262.55,111.29L262.56,111.30"/><path d="M262.51,111.23L262.51,111.23"/><path d="M261.81,111.43L261.82,111.45"/><path d="M261.76,111.22L261.78,111.24"/><path d="M261.91,111.41L261.93,111.43"/><path d="M261.81,111.14L261.83,111.16"/><path d="M261.87,111.20L261.89,111.22"/><path d="M262.06,111.46L262.07,111.49"/><path d="M262.01,111.39L262.03,111.41"/><path d="M261.88,111.10L261.82,111.05"/><path d="M262.06,111.29L262.04,111.26"/><path d="M262.10,111.33L262.11,111.36"/><path d="M261.93,111.14L261.95,111.16"/><path d="M261.99,111.20L262.01,111.22"/><path d="M261.87,111.00L261.80,110.96L261.84,110.99"/><path d="M262.27,111.43L262.28,111.45"/><path d="M261.96,110.98L262.03,111.02"/><path d="M262.20,111.17L262.22,111.19"/><path d="M262.26,111.24L262.28,111.26"/><path d="M262.31,111.31L262.33,111.33"/><path d="M262.07,111.05L262.10,111.07"/><path d="M262.14,111.11L262.16,111.13"/><path d="M262.32,111.30L262.35,111.34"/><path d="M262.41,111.45L262.44,111.50"/><path d="M262.36,111.39L262.38,111.41"/><path d="M262.40,111.47L262.42,111.49"/><path d="M261.87,110.88L261.79,110.87"/><path d="M261.94,110.91L261.87,110.88"/><path d="M261.99,110.93L262.01,110.94"/><path d="M262.06,110.96L262.09,110.97"/><path d="M262.13,111.00L262.16,111.02"/><path d="M262.20,111.05L262.22,111.07"/><path d="M262.27,111.11L262.29,111.13"/><path d="M262.52,111.47L262.53,111.50"/><path d="M262.34,111.20L262.31,111.15L262.36,111.22"/><path d="M262.51,111.41L262.49,111.39"/><path d="M261.92,110.86L261.89,110.85"/><path d="M262.04,110.89L262.07,110.90"/><path d="M262.23,110.98L262.17,110.94"/><path d="M262.28,111.02L262.30,111.03"/><path d="M262.34,111.07L262.36,111.09"/><path d="M262.40,111.12L262.42,111.15"/><path d="M262.51,111.26L262.53,111.28"/><path d="M261.82,110.85L261.84,110.85"/><path d="M261.97,110.87L261.99,110.88"/><path d="M262.46,111.19L262.47,111.21"/><path d="M262.57,111.35L262.59,111.38"/><path d="M262.17,110.94L262.09,110.91L262.13,110.93"/><path d="M262.28,111.42L262.30,111.46L262.26,111.39"/><path d="M261.80,111.39L261.75,111.32"/><path d="M261.84,111.45L261.78,111.37"/><path d="M261.98,111.32L262.01,111.35"/><path d="M262.03,111.38L262.03,111.39"/><path d="M262.08,111.48L262.09,111.49L262.00,111.34"/><path d="M262.09,111.49L262.10,111.50L262.09,111.49"/><path d="M261.79,111.04L261.75,111.01L261.82,111.05"/><path d="M262.08,111.28L262.08,111.28"/><path d="M262.11,111.33L262.13,111.35L262.12,111.35"/><path d="M262.09,111.31L262.10,111.32"/><path d="M261.73,110.93L261.77,110.95"/><path d="M261.94,111.04L261.87,111.00"/><path d="M262.30,111.46L262.32,111.50L262.32,111.50"/><path d="M262.00,111.00L261.96,110.98"/><path d="M262.26,111.22L262.29,111.26"/><path d="M262.30,111.27L262.24,111.19L262.11,111.07L262.04,111.02L261.91,110.94"/><path d="M262.40,111.43L262.30,111.27"/><path d="M261.73,110.86L261.76,110.87"/><path d="M262.45,111.31L262.47,111.35L262.38,111.22L262.32,111.15"/><path d="M262.47,111.35L262.55,111.50"/><path d="M262.52,111.24L262.55,111.29"/><path d="M262.47,111.18L262.47,111.19"/></g></g><g><g><path style="stroke:#000000;stroke-width:0.208;stroke-dasharray:2.2 2.2" d="M204.86,124.00L243.88,118.39"/></g></g><g><g><path style="stroke:#000000;stroke-width:0.208;stroke-dasharray:2.2 2.2" d="M262.09,112.36L209.58,119.56"/></g></g><g><g><path style="stroke:#000000;stroke-width:0.208;stroke-dasharray:2.2 2.2" d="M193.09,114.16L128.74,122.10"/></g></g><g><g><path style="stroke:#000000;stroke-width:0.208;stroke-dasharray:2.2 2.2" d="M204.80,118.31L80.77,138.52"/></g></g><g id="PMI1.0"><g><path style="stroke:#000000;stroke-width:0.281" d="M138.16,66.20L140.23,66.25"/></g><g><path style="fill:#000000" d="M140.21,67.26L140.26,65.26L142.23,66.31z"/></g><g><path style="fill:#ffffff" d="M122.52,68.55L138.17,68.55L138.17,63.48L122.52,63.48z"/><path style="stroke:#000000;stroke-width:0.281;stroke-opacity:0.98" d="M122.52,68.55L138.17,68.55L138.17,63.48L122.52,63.48z"/><text xml:space="preserve" fill="#000000" stroke-width="0" x="123.16" y="67.13" font-size="3.04" opacity="1.00" font-family="Microsoft Sans Serif">1003JCC0</text></g></g><g id="PMI8.0"><g><path style="stroke:#000000;stroke-width:0.281" d="M195.79,45.02L195.86,47.68"/></g><g><path style="fill:#000000" d="M194.86,47.71L196.86,47.66L195.91,49.69z"/></g><g><path style="fill:#ffffff" d="M186.56,45.67L205.02,45.67L205.02,40.59L186.56,40.59z"/><path style="stroke:#000000;stroke-width:0.281;stroke-opacity:0.98" d="M186.56,45.67L205.02,45.67L205.02,40.59L186.56,40.59z"/><text xml:space="preserve" fill="#000000" stroke-width="0" x="187.19" y="44.24" font-size="2.79" opacity="1.00" font-family="Microsoft Sans Serif">8075001023</text></g></g><g id="PMI48.0"><g><path style="stroke:#000000;stroke-width:0.281" d="M171.05,155.40L174.23,155.40L176.60,151.66"/></g><g><path style="fill:#000000" d="M177.43,152.18L175.74,151.11L177.66,149.96z"/></g><g><path style="fill:#ffffff" d="M156.04,157.93L171.68,157.93L171.68,152.85L156.04,152.85z"/><path style="stroke:#000000;stroke-width:0.281;stroke-opacity:0.98" d="M156.04,157.93L171.68,157.93L171.68,152.85L156.04,152.85z"/><text xml:space="preserve" fill="#000000" stroke-width="0" x="156.67" y="156.50" font-size="3.04" opacity="1.00" font-family="Microsoft Sans Serif">1003JCD0</text></g></g><g id="PMI2.0"><g><path style="stroke:#000000;stroke-width:0.281" d="M171.15,148.87L174.33,148.87L177.50,143.27"/></g><g><path style="fill:#000000" d="M178.36,143.74L176.62,142.76L178.47,141.51z"/></g><g><path style="fill:#ffffff" d="M153.31,151.39L171.78,151.39L171.78,146.31L153.31,146.31z"/><path style="stroke:#000000;stroke-width:0.281;stroke-opacity:0.98" d="M153.31,151.39L171.78,151.39L171.78,146.31L153.31,146.31z"/><text xml:space="preserve" fill="#000000" stroke-width="0" x="153.95" y="149.96" font-size="2.79" opacity="1.00" font-family="Microsoft Sans Serif">8056000003</text></g></g><g id="PMI3.0"><g><path style="stroke:#000000;stroke-width:0.281" d="M184.49,163.58L187.66,163.58L190.43,157.78"/></g><g><path style="fill:#000000" d="M191.32,158.19L189.51,157.33L191.28,155.95z"/></g><g><path style="fill:#ffffff" d="M169.12,166.10L185.11,166.10L185.11,161.02L169.12,161.02z"/><path style="stroke:#000000;stroke-width:0.281;stroke-opacity:0.98" d="M169.12,166.10L185.11,166.10L185.11,161.02L169.12,161.02z"/><text xml:space="preserve" fill="#000000" stroke-width="0" x="169.75" y="164.67" font-size="3.05" opacity="1.00" font-family="Microsoft Sans Serif">1003JCM0</text></g></g><g id="PMI24.0"><g><path style="stroke:#000000;stroke-width:0.281" d="M261.80,108.06L261.82,109.27"/></g><g><path style="fill:#000000" d="M260.81,109.29L262.81,109.25L261.85,111.27z"/></g><g><path style="fill:#ffffff" d="M252.50,108.06L270.96,108.06L270.96,102.98L252.50,102.98z"/><path style="stroke:#000000;stroke-width:0.281;stroke-opacity:0.98" d="M252.50,108.06L270.96,108.06L270.96,102.98L252.50,102.98z"/><text xml:space="preserve" fill="#000000" stroke-width="0" x="253.13" y="106.63" font-size="2.79" opacity="1.00" font-family="Microsoft Sans Serif">8119000028</text></g></g><g id="PMI5.0"><g><path style="stroke:#000000;stroke-width:0.281" d="M188.60,170.40L191.78,170.40L198.63,155.61"/></g><g><path style="fill:#000000" d="M199.52,156.01L197.71,155.17L199.45,153.77z"/></g><g><path style="fill:#ffffff" d="M173.75,172.91L189.22,172.91L189.22,167.83L173.75,167.83z"/><path style="stroke:#000000;stroke-width:0.281;stroke-opacity:0.98" d="M173.75,172.91L189.22,172.91L189.22,167.83L173.75,167.83z"/><text xml:space="preserve" fill="#000000" stroke-width="0" x="174.39" y="171.48" font-size="3.04" opacity="1.00" font-family="Microsoft Sans Serif">1003JCK0</text></g></g><g id="PMI4.0"><g><path style="stroke:#000000;stroke-width:0.281" d="M115.52,110.54L117.34,110.50"/></g><g><path style="fill:#000000" d="M117.37,111.50L117.32,109.50L119.34,110.45z"/></g><g><path style="fill:#ffffff" d="M101.27,113.24L115.53,113.24L115.53,108.16L101.27,108.16z"/><path style="stroke:#000000;stroke-width:0.281;stroke-opacity:0.98" d="M101.27,113.24L115.53,113.24L115.53,108.16L101.27,108.16z"/><text xml:space="preserve" fill="#000000" stroke-width="0" x="101.91" y="111.81" font-size="3.04" opacity="1.00" font-family="Microsoft Sans Serif">1003JCI0</text></g></g><g id="PMI6.0"><g><path style="stroke:#000000;stroke-width:0.281" d="M245.39,127.87L245.28,121.44"/></g><g><path style="fill:#000000" d="M246.26,121.42L244.27,121.46L245.23,119.44z"/></g><g><path style="fill:#ffffff" d="M236.15,128.50L254.61,128.50L254.61,123.42L236.15,123.42z"/><path style="stroke:#000000;stroke-width:0.281;stroke-opacity:0.98" d="M236.15,128.50L254.61,128.50L254.61,123.42L236.15,123.42z"/><text xml:space="preserve" fill="#000000" stroke-width="0" x="236.78" y="127.07" font-size="2.79" opacity="1.00" font-family="Microsoft Sans Serif">8075002046</text></g></g><g id="PMI22.0"><g><path style="stroke:#000000;stroke-width:0.281" d="M214.73,57.01L211.55,57.01L205.76,69.39"/></g><g><path style="fill:#000000" d="M204.84,68.98L206.66,69.82L204.90,71.21z"/></g><g><path style="fill:#ffffff" d="M214.08,59.56L229.89,59.56L229.89,54.48L214.08,54.48z"/><path style="stroke:#000000;stroke-width:0.281;stroke-opacity:0.98" d="M214.08,59.56L229.89,59.56L229.89,54.48L214.08,54.48z"/><text xml:space="preserve" fill="#000000" stroke-width="0" x="214.71" y="58.13" font-size="3.04" opacity="1.00" font-family="Microsoft Sans Serif">1003JCG0</text></g></g><g id="PMI47.0"><g><path style="stroke:#000000;stroke-width:0.281" d="M218.17,96.82L215.90,96.82"/></g><g><path style="fill:#000000" d="M215.89,95.82L215.90,97.82L213.89,96.83z"/></g><g><path style="fill:#ffffff" d="M218.16,99.34L232.60,99.34L232.60,94.27L218.16,94.27z"/><path style="stroke:#000000;stroke-width:0.281;stroke-opacity:0.98" d="M218.16,99.34L232.60,99.34L232.60,94.27L218.16,94.27z"/><text xml:space="preserve" fill="#000000" stroke-width="0" x="218.80" y="97.92" font-size="3.04" opacity="1.00" font-family="Microsoft Sans Serif">1003I6N0</text></g></g><g id="PMI9.0"><g><path style="stroke:#000000;stroke-width:0.281" d="M217.17,63.56L214.00,63.56L210.86,71.00"/></g><g><path style="fill:#000000" d="M209.93,70.62L211.78,71.39L210.08,72.85z"/></g><g><path style="fill:#ffffff" d="M216.53,66.10L231.66,66.10L231.66,61.02L216.53,61.02z"/><path style="stroke:#000000;stroke-width:0.281;stroke-opacity:0.98" d="M216.53,66.10L231.66,66.10L231.66,61.02L216.53,61.02z"/><text xml:space="preserve" fill="#000000" stroke-width="0" x="217.16" y="64.67" font-size="3.04" opacity="1.00" font-family="Microsoft Sans Serif">1003JCL0</text></g></g><g id="PMI23.0"><g><path style="stroke:#000000;stroke-width:0.281" d="M81.01,124.96L80.96,126.71"/></g><g><path style="fill:#000000" d="M79.97,126.68L81.97,126.73L80.93,128.71z"/></g><g><path style="fill:#ffffff" d="M71.84,124.96L90.31,124.96L90.31,119.88L71.84,119.88z"/><path style="stroke:#000000;stroke-width:0.281;stroke-opacity:0.98" d="M71.84,124.96L90.31,124.96L90.31,119.88L71.84,119.88z"/><text xml:space="preserve" fill="#000000" stroke-width="0" x="72.48" y="123.53" font-size="2.79" opacity="1.00" font-family="Microsoft Sans Serif">8114005038</text></g></g><g/><g><g><path style="stroke:#000000;stroke-width:0.350;fill:#ffffff" d="M195.09,53.84L194.88,54.53L194.70,55.24L194.56,55.96L194.46,56.68L194.39,57.41L194.36,58.14L194.36,58.87L194.40,59.60L194.48,60.32L194.59,61.05L194.74,61.76L194.93,62.47L195.15,63.16L195.40,63.85L195.69,64.52L195.87,64.89L195.87,64.89L195.77,64.17L195.71,63.46L195.69,62.74L195.70,62.02L195.75,61.30L195.83,60.58L195.95,59.87L196.11,59.17L196.30,58.47L196.52,57.79L196.78,57.11L197.07,56.46L197.40,55.81L197.75,55.19L197.82,55.07z"/></g><g><path style="fill:#ffffff" d="M201.37,54.37L201.35,54.86L201.28,55.35L201.16,55.83L200.99,56.29L200.78,56.73L200.53,57.15L200.24,57.55L199.91,57.91L199.55,58.24L199.15,58.53L198.73,58.78L198.29,58.99L197.83,59.16L197.35,59.28L196.86,59.35L196.37,59.37L195.88,59.35L195.40,59.28L194.92,59.16L194.46,58.99L194.02,58.78L193.60,58.53L193.20,58.24L192.84,57.91L192.51,57.55L192.22,57.15L191.96,56.73L191.75,56.29L191.59,55.83L191.47,55.35L191.40,54.86L191.37,54.37L191.40,53.88L191.47,53.40L191.59,52.92L191.75,52.46L191.96,52.02L192.22,51.60L192.51,51.20L192.84,50.84L193.20,50.51L193.60,50.22L194.02,49.96L194.46,49.75L194.92,49.59L195.40,49.47L195.88,49.40L196.37,49.37L196.86,49.40L197.35,49.47L197.83,49.59L198.29,49.75L198.73,49.96L199.15,50.22L199.55,50.51L199.91,50.84L200.24,51.20L200.53,51.60L200.78,52.02L200.99,52.46L201.16,52.92L201.28,53.40L201.35,53.88L201.37,54.37z"/><path style="stroke:#ff0000;stroke-width:0.864;stroke-opacity:0.00" d="M201.12,54.37L201.03,55.30L200.76,56.19L200.32,57.01L199.73,57.73L199.01,58.32L198.19,58.76L197.30,59.03L196.37,59.12L195.45,59.03L194.56,58.76L193.74,58.32L193.02,57.73L192.42,57.01L191.99,56.19L191.72,55.30L191.62,54.37L191.72,53.45L191.99,52.56L192.42,51.73L193.02,51.02L193.74,50.42L194.56,49.99L195.45,49.72L196.37,49.62L197.30,49.72L198.19,49.99L199.01,50.42L199.73,51.02L200.32,51.73L200.76,52.56L201.03,53.45L201.12,54.37"/><path style="stroke:#000000;stroke-width:0.106" d="M195.54,57.13L195.52,57.19L194.75,58.06L194.72,58.15L194.72,58.32L194.76,58.41L195.01,58.55L195.09,58.58L195.83,58.67L196.81,58.67L197.63,58.58L198.06,58.40L198.09,58.31L198.09,58.15L198.06,58.06L197.27,57.19L196.98,57.27L196.34,57.31L195.73,57.28L195.54,57.13L195.74,57.15L196.34,57.13L196.81,57.07L197.03,57.03L197.18,56.97L197.23,56.91L197.21,56.86L197.08,56.75"/><path style="stroke:#000000;stroke-width:0.106" d="M195.73,57.28L195.64,57.20"/><path style="stroke:#000000;stroke-width:0.106" d="M195.54,57.13L195.70,57.00L195.90,57.01L196.30,56.98L196.74,56.92L196.92,56.88L197.03,56.83L197.07,56.78L197.08,56.65"/><path style="stroke:#000000;stroke-width:0.106" d="M195.70,57.00L195.70,56.85L196.07,56.86L196.51,56.82L196.73,56.78L196.90,56.74L197.02,56.69L197.19,56.55L197.09,56.60L196.93,56.64L196.75,56.67L196.31,56.73L195.73,56.74L195.55,56.73L195.54,56.70L195.74,56.72L196.33,56.70L196.80,56.64L197.03,56.59L197.18,56.53L197.23,56.48L197.21,56.43L197.07,56.32"/><path style="stroke:#000000;stroke-width:0.106" d="M195.57,57.14L195.91,57.20L196.48,57.22L197.01,57.18L197.23,57.10L197.27,57.19"/><path style="stroke:#000000;stroke-width:0.106" d="M195.54,56.70L195.70,56.57"/><path style="stroke:#000000;stroke-width:0.106" d="M195.70,56.42L195.54,56.29L195.61,56.31L195.89,56.31L196.53,56.27L196.93,56.20L197.08,56.16L197.18,56.12L197.02,56.25L196.90,56.30L196.72,56.35L196.24,56.41L195.88,56.43L195.70,56.42L195.70,56.56L195.71,56.57L196.08,56.57L196.53,56.52L196.91,56.44L197.02,56.40L197.07,56.35L197.07,56.22"/><path style="stroke:#000000;stroke-width:0.106" d="M195.70,56.85L195.55,56.73"/><path style="stroke:#000000;stroke-width:0.106" d="M197.06,55.78L197.07,55.91L197.02,55.97L196.90,56.01L196.73,56.05L196.29,56.11L195.89,56.14L195.69,56.14L195.54,56.27L195.74,56.29L196.33,56.26L196.80,56.20L197.02,56.16L197.17,56.10L197.23,56.05L197.21,56.00L197.07,55.89"/><path style="stroke:#000000;stroke-width:0.106" d="M195.53,56.27L195.54,56.29"/><path style="stroke:#000000;stroke-width:0.106" d="M195.69,56.14L195.69,55.99L195.88,55.99L196.28,55.97L196.72,55.91L196.90,55.87L197.01,55.82L197.18,55.69L197.08,55.73L196.92,55.77L196.30,55.85L195.71,55.88L195.54,55.87L195.53,55.84L195.73,55.85L196.32,55.83L196.80,55.77L197.01,55.72L197.17,55.67L197.22,55.61L197.20,55.57L197.06,55.46"/><path style="stroke:#000000;stroke-width:0.106" d="M195.53,55.84L195.69,55.71L195.88,55.71L196.29,55.68L196.73,55.62L196.90,55.58L197.02,55.53L197.06,55.48L197.06,55.35"/><path style="stroke:#000000;stroke-width:0.106" d="M195.69,55.99L195.53,55.86"/><path style="stroke:#000000;stroke-width:0.106" d="M195.53,55.43L195.60,55.44L195.88,55.44L196.52,55.40L196.92,55.34L197.07,55.30L197.17,55.25L197.01,55.39L196.89,55.44L196.72,55.48L196.28,55.54L195.75,55.56L195.69,55.56L195.53,55.43L195.53,55.40L195.61,55.42L195.88,55.42L196.32,55.39L196.79,55.34L197.01,55.29L197.16,55.23L197.22,55.18L197.19,55.14L197.06,55.03"/><path style="stroke:#000000;stroke-width:0.106" d="M195.53,55.40L195.68,55.27L196.28,55.25L196.72,55.18L196.90,55.14L197.01,55.10L197.06,55.05L197.06,54.92"/><path style="stroke:#000000;stroke-width:0.106" d="M195.69,55.71L195.69,55.56"/><path style="stroke:#000000;stroke-width:0.106" d="M197.21,54.75L197.21,54.78L197.17,54.82L197.07,54.86L196.73,54.93L196.08,55.00L195.71,55.01L195.52,55.00L195.52,54.97L195.87,54.98L196.32,54.96L196.79,54.90L197.01,54.85L197.16,54.80L197.21,54.75L197.19,54.71L197.05,54.59"/><path style="stroke:#000000;stroke-width:0.106" d="M195.52,54.97L195.68,54.84L196.28,54.81L196.72,54.75L196.89,54.71L197.01,54.66L197.05,54.62L197.05,54.48"/><path style="stroke:#000000;stroke-width:0.106" d="M195.68,55.27L195.68,55.13L196.27,55.10L196.71,55.04L196.89,55.00L197.01,54.96L197.17,54.82"/><path style="stroke:#000000;stroke-width:0.106" d="M195.68,55.13L195.52,55.00"/><path style="stroke:#000000;stroke-width:0.106" d="M195.52,54.57L195.87,54.57L196.51,54.53L196.91,54.47L197.06,54.43L197.17,54.39L197.01,54.52L196.88,54.57L196.71,54.61L196.26,54.67L195.69,54.70L195.52,54.57L195.52,54.54L195.87,54.55L196.31,54.52L196.78,54.46L197.01,54.42L197.15,54.37L197.21,54.32L197.19,54.28L197.05,54.16"/><path style="stroke:#000000;stroke-width:0.106" d="M195.68,54.84L195.68,54.70"/><path style="stroke:#000000;stroke-width:0.106" d="M195.52,54.54L195.67,54.41L196.27,54.37L196.71,54.32L196.89,54.28L197.00,54.23L197.05,54.19L197.05,54.05"/><path style="stroke:#000000;stroke-width:0.106" d="M197.04,53.73L197.18,53.85L197.21,53.88L197.15,53.93L197.00,53.98L196.78,54.03L196.30,54.08L195.87,54.11L195.51,54.11L195.51,54.14L195.68,54.27L196.26,54.23L196.70,54.17L196.88,54.14L197.00,54.09L197.16,53.95L196.90,54.03L196.51,54.09L195.86,54.14L195.51,54.14"/><path style="stroke:#000000;stroke-width:0.106" d="M195.67,54.27L195.67,54.41"/><path style="stroke:#000000;stroke-width:0.106" d="M195.51,54.11L195.67,53.98L196.27,53.94L196.71,53.88L196.88,53.84L197.00,53.80L197.05,53.75L197.04,53.61"/><path style="stroke:#000000;stroke-width:0.106" d="M195.51,53.70L195.67,53.83L196.25,53.80L196.70,53.74L196.87,53.70L196.99,53.66L197.16,53.52L196.90,53.60L196.50,53.65L195.69,53.70L195.52,53.70L195.51,53.70L195.50,53.68L195.86,53.68L196.30,53.65L196.77,53.59L197.00,53.55L197.14,53.50L197.20,53.45L197.18,53.41L197.04,53.30"/><path style="stroke:#000000;stroke-width:0.106" d="M195.50,53.68L195.66,53.55L196.26,53.50L196.71,53.44L196.88,53.40L197.00,53.36L197.04,53.32L197.04,53.18"/><path style="stroke:#000000;stroke-width:0.106" d="M195.67,53.98L195.67,53.83"/><path style="stroke:#000000;stroke-width:0.106" d="M197.19,53.02L197.19,53.05L196.99,53.22L196.87,53.26L196.48,53.34L195.66,53.40L195.50,53.27L195.50,53.25L196.05,53.23L196.51,53.19L196.99,53.11L197.05,53.04L197.19,53.02L197.17,52.98L197.04,52.87"/><path style="stroke:#000000;stroke-width:0.106" d="M195.50,53.25L195.66,53.11L196.49,53.04L196.87,52.97L196.99,52.93L197.04,52.89L197.04,52.75"/><path style="stroke:#000000;stroke-width:0.106" d="M195.66,53.40L195.66,53.55"/><path style="stroke:#000000;stroke-width:0.106" d="M195.50,53.27L195.86,53.26L196.50,53.22L197.01,53.13L196.99,53.11"/><path style="stroke:#000000;stroke-width:0.106" d="M195.70,52.81L196.29,52.77L196.78,52.72L196.84,52.54L196.25,52.63L195.66,52.68L195.50,52.81L195.70,52.81"/><path style="stroke:#000000;stroke-width:0.106" d="M195.50,52.81L195.50,52.84L195.87,52.83L196.27,52.80L196.79,52.74L196.87,52.77L197.01,52.76L197.07,52.71L196.99,52.78L196.94,52.80L196.69,52.87L196.25,52.92L195.66,52.97L195.66,53.11"/><path style="stroke:#000000;stroke-width:0.106" d="M195.66,52.97L195.50,52.84"/><path style="stroke:#000000;stroke-width:0.106" d="M195.65,52.68L195.65,52.54L195.66,52.53L196.24,52.49L196.77,52.41L196.68,52.37L196.71,52.32L196.05,52.38L195.54,52.40L195.64,52.53"/><path style="stroke:#000000;stroke-width:0.106" d="M195.64,52.53L195.65,52.54"/><path style="stroke:#000000;stroke-width:0.106" d="M195.54,52.40L195.54,52.38L195.95,52.36L195.91,51.95L195.60,51.96L195.67,52.09L195.92,52.08"/><path style="stroke:#000000;stroke-width:0.106" d="M195.94,52.22L195.66,52.24L195.67,52.09"/><path style="stroke:#000000;stroke-width:0.106" d="M195.54,52.38L195.66,52.24"/><path style="stroke:#000000;stroke-width:0.106" d="M195.60,51.96L195.82,50.88L196.32,50.23L196.82,50.77L197.10,52.11L197.02,52.29L197.03,52.45L197.17,52.54L197.03,52.43"/><path style="stroke:#000000;stroke-width:0.106" d="M195.82,50.88L196.69,50.87L196.32,50.23"/><path style="stroke:#000000;stroke-width:0.106" d="M197.01,53.13L197.13,53.10"/><path style="stroke:#000000;stroke-width:0.106" d="M196.79,52.74L196.78,52.72"/><path style="stroke:#000000;stroke-width:0.106" d="M196.77,52.41L196.84,52.54"/><path style="stroke:#000000;stroke-width:0.106" d="M197.07,52.71L197.17,52.57L197.17,52.54"/><path style="stroke:#000000;stroke-width:0.106" d="M196.71,52.32L196.69,50.87"/><path style="stroke:#000000;stroke-width:0.106" d="M197.23,57.10L197.23,56.91"/><path style="stroke:#000000;stroke-width:0.106" d="M197.19,56.55L197.23,56.50L197.23,56.48"/><path style="stroke:#000000;stroke-width:0.106" d="M197.18,56.12L197.22,56.07L197.23,56.04"/><path style="stroke:#000000;stroke-width:0.106" d="M197.22,55.61L197.22,55.64L197.18,55.69"/><path style="stroke:#000000;stroke-width:0.106" d="M197.17,55.25L197.22,55.21L197.22,55.18"/><path style="stroke:#000000;stroke-width:0.106" d="M197.21,54.32L197.21,54.34L197.17,54.39"/><path style="stroke:#000000;stroke-width:0.106" d="M197.16,53.95L197.20,53.91L197.21,53.88"/><path style="stroke:#000000;stroke-width:0.106" d="M197.20,53.45L197.20,53.48L197.16,53.52"/><path style="stroke:#000000;stroke-width:0.210" d="M201.37,54.37L201.35,54.86L201.28,55.35L201.16,55.83L200.99,56.29L200.78,56.73L200.53,57.15L200.24,57.55L199.91,57.91L199.55,58.24L199.15,58.53L198.73,58.78L198.29,58.99L197.83,59.16L197.35,59.28L196.86,59.35L196.37,59.37L195.88,59.35L195.40,59.28L194.92,59.16L194.46,58.99L194.02,58.78L193.60,58.53L193.20,58.24L192.84,57.91L192.51,57.55L192.22,57.15L191.96,56.73L191.75,56.29L191.59,55.83L191.47,55.35L191.40,54.86L191.37,54.37L191.40,53.88L191.47,53.40L191.59,52.92L191.75,52.46L191.96,52.02L192.22,51.60L192.51,51.20L192.84,50.84L193.20,50.51L193.60,50.22L194.02,49.96L194.46,49.75L194.92,49.59L195.40,49.47L195.88,49.40L196.37,49.37L196.86,49.40L197.35,49.47L197.83,49.59L198.29,49.75L198.73,49.96L199.15,50.22L199.55,50.51L199.91,50.84L200.24,51.20L200.53,51.60L200.78,52.02L200.99,52.46L201.16,52.92L201.28,53.40L201.35,53.88L201.37,54.37z"/></g></g><g id="paperID" visibility="hidden" opacity="0.00" transform="scale(0.000100)"><path style="stroke:#000000;stroke-width:0.500;fill:#e6e6e6;fill-rule:evenodd" d="M-2000.00,-2000.00L2297.00,-2000.00L2297.00,2210.00L-2000.00,2210.00zM0.00,0.00L297.00,0.00L297.00,210.00L0.00,210.00z"/><path style="fill:#000000;fill-opacity:0.118" d="M3.00,210.00L297.00,210.00L297.00,3.00L300.00,3.00L300.00,213.00L3.00,213.00z"/></g><g id="hotspot.0" onmouseover="ShowHotSpot(evt,'0')" onmouseout="HideHotSpot(evt,'0')" onmousemove="ShowToolTip(evt,'0',&quot;3dp-3-096614&quot;)" opacity="0"><path style="fill:#00ff00;fill-rule:evenodd" d="M178.93,64.94L179.77,65.26L179.78,65.55L178.83,65.76L177.56,122.82L177.03,122.74L153.33,111.79L152.49,110.18L141.85,79.13L141.60,66.82L141.26,66.80L140.51,67.24L140.51,65.46L141.05,65.79L141.60,65.87L141.79,60.55zM138.50,66.13L139.99,66.30L138.50,66.56L138.34,68.58L122.42,68.58L122.42,63.57L138.34,63.57z"/></g><g id="hotspot.1" onmouseover="ShowHotSpot(evt,'1')" onmouseout="HideHotSpot(evt,'1')" onmousemove="ShowToolTip(evt,'1',&quot;3dp778277&quot;)" opacity="0"><path style="fill:#00ff00;fill-rule:evenodd" d="M180.32,75.53L180.29,78.65L179.99,81.15L179.68,81.15L179.66,75.27L180.01,75.23zM176.91,142.63L178.10,141.86L178.30,136.30L178.92,136.30L178.92,138.60L178.42,143.76L177.22,143.19zM172.01,148.69L174.32,148.87L172.01,149.13L171.85,151.42L153.21,151.42L153.21,146.40L171.85,146.40z"/></g><g id="hotspot.2" onmouseover="ShowHotSpot(evt,'2')" onmouseout="HideHotSpot(evt,'2')" onmousemove="ShowToolTip(evt,'2',&quot;3dp-3-096621&quot;)" opacity="0"><path style="fill:#00ff00;fill-rule:evenodd" d="M211.51,57.04L213.81,56.87L213.98,54.58L229.89,54.58L229.89,59.59L213.98,59.59L213.81,57.30zM206.99,72.03L209.71,72.58L209.71,76.20L205.81,163.88L205.39,163.85L179.47,148.32L179.47,140.23L181.10,69.66L181.29,68.75L183.28,68.76zM205.65,69.31L205.89,69.06L206.45,69.96L205.09,71.05L205.00,69.28zM202.08,74.48L208.07,75.57L206.75,110.25L204.80,109.60L204.18,109.60L203.91,113.72L203.64,125.52L205.93,126.49L204.57,158.21L182.93,145.96L184.82,72.01L186.01,72.03zM205.02,112.06L205.61,112.06L205.58,112.35L205.05,112.35z"/></g><g id="hotspot.3" onmouseover="ShowHotSpot(evt,'3')" onmouseout="HideHotSpot(evt,'3')" onmousemove="ShowToolTip(evt,'3',&quot;3dp1160859&quot;)" opacity="0"><path style="fill:#00ff00;fill-rule:evenodd" d="M71.74,124.99L71.74,119.97L90.38,119.97L90.38,124.99L81.28,125.15L81.31,126.61L81.90,126.79L81.28,128.13L82.21,129.51L82.47,131.16L83.31,148.96L81.82,149.12L80.85,149.78L79.48,148.04L79.19,146.96L78.38,131.43L78.29,127.86L80.59,127.88L80.26,127.33L80.20,126.82L80.82,126.60L80.84,125.15z"/></g><g id="hotspot.4" onmouseover="ShowHotSpot(evt,'4')" onmouseout="HideHotSpot(evt,'4')" onmousemove="ShowToolTip(evt,'4',&quot;3dp2759103&quot;)" opacity="0"><path style="fill:#00ff00;fill-rule:evenodd" d="M252.39,108.09L252.39,103.08L271.03,103.08L271.03,108.09L261.93,108.26L261.95,109.16L262.58,109.38L262.63,109.69L262.27,110.26L262.28,110.99L265.31,111.80L265.87,112.34L265.75,113.48L265.24,113.55L264.78,112.58L264.46,113.26L262.60,112.92L261.38,113.16L260.85,113.71L259.56,113.73L258.76,113.44L258.47,112.63L258.48,111.63L258.67,110.71L261.51,110.72L260.88,109.35L261.47,109.16L261.50,108.26z"/></g><g id="hotspot.5" onmouseover="ShowHotSpot(evt,'5')" onmouseout="HideHotSpot(evt,'5')" onmousemove="ShowToolTip(evt,'5',&quot;3dp-3-098745&quot;)" opacity="0"><path style="fill:#00ff00;fill-rule:evenodd" d="M210.02,71.19L210.52,71.48L209.88,72.30L208.90,72.30L181.11,68.49L180.81,68.19L180.71,67.67L183.01,67.67zM205.91,164.15L205.92,164.76L205.35,164.71L191.46,156.20L191.18,157.96L190.67,157.89L190.36,158.18L189.80,157.16L190.94,156.27L190.94,155.99L178.83,148.65L178.91,148.13L179.21,148.03zM185.37,163.41L187.67,163.58L185.37,163.84L185.20,166.13L169.02,166.13L169.02,161.11L185.20,161.11z"/></g><g id="hotspot.6" onmouseover="ShowHotSpot(evt,'6')" onmouseout="HideHotSpot(evt,'6')" onmousemove="ShowToolTip(evt,'6',&quot;3dp-3-098743&quot;)" opacity="0"><path style="fill:#00ff00;fill-rule:evenodd" d="M136.96,74.75L139.69,75.57L139.96,82.65L140.50,178.95L139.70,178.84L132.63,171.73L131.27,170.09L120.08,158.94L119.01,110.72L117.62,111.38L117.62,109.60L118.17,109.93L118.71,110.01L118.43,85.65L118.06,70.65L119.25,70.67zM115.88,110.27L117.10,110.45L115.88,110.71L115.72,113.27L101.17,113.27L101.17,108.25L115.72,108.25zM137.81,119.41L138.05,125.43L138.08,136.41L136.34,135.32L136.15,129.52L136.15,118.32zM139.21,127.77L139.43,129.66L139.18,129.91L138.85,129.57L138.81,127.56z"/></g><g id="hotspot.7" onmouseover="ShowHotSpot(evt,'7')" onmouseout="HideHotSpot(evt,'7')" onmousemove="ShowToolTip(evt,'7',&quot;3dp-3-096611&quot;)" opacity="0"><path style="fill:#00ff00;fill-rule:evenodd" d="M148.43,60.84L148.96,61.14L146.77,61.13L142.57,60.58L146.23,60.58zM214.90,68.48L215.70,68.78L215.98,69.26L215.71,74.84L215.44,76.20L214.53,96.39L215.74,96.01L215.74,97.72L214.53,97.34L214.35,99.09L211.10,167.50L210.47,168.24L207.80,168.79L178.65,150.77L178.66,148.56L206.46,165.31L210.53,74.84L210.53,71.48L210.01,71.19L181.10,67.40L180.19,67.21L180.25,65.75L179.71,65.25L178.93,64.94L149.36,61.46L149.36,61.15L150.86,61.13zM179.67,74.98L180.29,75.05L180.36,75.35L180.00,75.34zM216.14,96.82L217.90,96.65L218.06,94.36L232.61,94.36L232.61,99.37L218.06,99.37L217.90,97.08z"/></g><g id="hotspot.8" onmouseover="ShowHotSpot(evt,'8')" onmouseout="HideHotSpot(evt,'8')" onmousemove="ShowToolTip(evt,'8',&quot;3dp-3-096616&quot;)" opacity="0"><path style="fill:#00ff00;fill-rule:evenodd" d="M180.19,67.21L181.12,67.39L180.49,67.67L180.28,74.83L179.66,75.03L179.68,81.08L179.99,81.31L180.01,90.64L178.91,135.86L178.30,136.07L178.32,141.57L178.63,141.80L178.65,148.41L178.37,150.58L177.77,150.79L177.27,151.97L176.79,151.87L175.90,151.29L175.84,151.05L177.02,150.36L178.82,65.75L180.28,65.73zM172.01,155.23L174.36,155.18L174.32,155.45L172.01,155.67L171.85,157.96L155.94,157.96L155.94,152.94L171.85,152.94z"/></g><g id="hotspot.9" onmouseover="ShowHotSpot(evt,'9')" onmouseout="HideHotSpot(evt,'9')" onmousemove="ShowToolTip(evt,'9',&quot;3dp-3-098748&quot;)" opacity="0"><path style="fill:#00ff00;fill-rule:evenodd" d="M202.08,74.48L208.07,75.57L206.75,110.25L204.80,109.60L204.18,109.60L203.91,113.72L203.64,125.52L205.93,126.49L204.57,158.21L199.91,155.65L198.83,155.71L198.54,155.99L197.94,155.10L198.00,154.61L182.93,145.96L184.82,72.01L186.01,72.03zM189.45,170.22L191.76,170.39L189.45,170.65L189.29,172.94L173.65,172.94L173.65,167.93L189.29,167.93z"/></g><g id="hotspot.10" onmouseover="ShowHotSpot(evt,'10')" onmouseout="HideHotSpot(evt,'10')" onmousemove="ShowToolTip(evt,'10',&quot;3dp2613117&quot;)" opacity="0"><path style="fill:#00ff00;fill-rule:evenodd" d="M205.02,112.06L205.61,112.06L205.58,112.35L205.05,112.35zM245.98,117.79L245.98,118.72L245.59,119.17L244.61,119.14L244.32,118.86L242.63,118.91L242.31,118.60L242.85,118.05L244.31,117.89L244.76,117.21L245.41,117.23zM246.25,121.34L245.61,121.62L245.58,123.35L254.69,123.51L254.69,128.53L236.05,128.53L236.05,123.51L245.15,123.35L245.13,121.63L244.50,121.41L244.56,120.90L245.29,119.68z"/></g><g id="hotspot.11" onmouseover="ShowHotSpot(evt,'11')" onmouseout="HideHotSpot(evt,'11')" onmousemove="ShowToolTip(evt,'11',&quot;3dp478469&quot;)" opacity="0"><path style="fill:#00ff00;fill-rule:evenodd" d="M186.45,45.70L186.45,40.68L205.09,40.68L205.09,45.70L195.99,45.86L196.01,47.58L196.64,47.80L196.69,48.11L195.85,49.52L194.94,47.77L195.53,47.59L195.56,45.86zM196.11,64.89L196.11,65.87L195.80,66.40L195.84,64.62zM192.55,159.54L192.85,159.51L192.85,160.10L192.55,160.07z"/></g><g id="hotspot.12" onmouseover="ShowHotSpot(evt,'12')" onmouseout="HideHotSpot(evt,'12')" onmousemove="ShowToolTip(evt,'12',&quot;3dp-3-098744&quot;)" opacity="0"><path style="fill:#00ff00;fill-rule:evenodd" d="M213.89,63.76L213.98,63.57L216.27,63.41L216.43,61.12L231.80,61.12L231.80,66.13L216.43,66.13L216.27,63.84zM213.79,64.50L213.69,63.87L213.89,63.76zM181.12,68.48L179.21,147.92L178.95,148.18L178.92,138.60L180.54,67.66zM211.39,71.21L211.64,71.59L210.72,72.31L210.53,74.84L206.46,165.31L205.87,164.13L209.90,72.30L210.18,70.91L210.80,70.90z"/></g></g></svg>
