<?xml version="1.0" encoding="UTF-8" standalone="no"?>
<svg xmlns="http://www.w3.org/2000/svg" xmlns:xlink="http://www.w3.org/1999/xlink" width="297.000mm" height="210.000mm" viewBox="0.000000 0.000000 297.000000 210.000000" stroke-linejoin="round" stroke-linecap="round" fill="none" fill-rule="evenodd"><desc>Composer Export</desc><script type="text/ecmascript"><![CDATA[
if(typeof(top) != "undefined")
{
	top.ShowPaper = ShowPaper;
}
function ShowHotSpot(evt,hotspotid)
{
	var svgDocument = evt.target.ownerDocument;
	var strId = "hotspot."+hotspotid;
	var hotspot = svgDocument.getElementById(strId);
	if(hotspot)
		hotspot.setAttribute("opacity",".5");
}
function HideHotSpot(evt,hotspotid)
{
	var svgDocument = evt.target.ownerDocument;
	var strId = "hotspot."+hotspotid;
	var hotspot = svgDocument.getElementById(strId);
	if(hotspot)
		hotspot.setAttribute("opacity","0");

	var toolTip = svgDocument.getElementById('ToolTip');
	if(toolTip)
		toolTip.setAttribute("visibility","hidden");
}
function ShowToolTip(evt,hotspotid,strTooltip)
{
	if(strTooltip=="")
	return;

	// change text
	var svgDocument = evt.target.ownerDocument;
	var tiptext = svgDocument.getElementById('ToolTipText');
	if( !tiptext )
	return;
	tiptext.firstChild.nodeValue = " " + strTooltip + "  " ;

	// show tooltip before, else some refresh issue

	var toolTip = svgDocument.getElementById('ToolTip');
	if(!toolTip)
	return;

	toolTip.setAttribute("visibility","visible");
	toolTip.setAttribute("opacity",".95");

	// move tooltip
	// get viewbox

	var root = svgDocument.documentElement;
	var vbox = (root.getAttribute("viewBox")).split(' ');
	var x0 = parseFloat(vbox[0]);
	var y0 = parseFloat(vbox[1]);
	var vboxW = parseFloat(vbox[2]);
	var vboxH = parseFloat(vbox[3]);

	// get default width of svg

	var strW = root.getAttribute("width");
	var svgW = parseFloat(strW);
	if(strW.indexOf('mm') != -1)
	svgW *= 3.779;

	var strH = root.getAttribute("height");
	var svgH = parseFloat(strH);
	if(strH.indexOf('mm') != -1)
	svgH *= 3.779;  	// 96 dpi  -> 96/25.4 = 3.779

	// update the viewbox / width / height if svg is embedded in html with zoom fit all
	var realx0 = x0;
	var realy0 = y0;
	var realvboxW = vboxW;
	var realvboxH = vboxH;
	var realsvgW = svgW;
	var realsvgH = svgH;

	if ((typeof(top) == "undefined") || (typeof(top.svgctl1) != "undefined")) // embedded in html
	{
		// get window size in pxl

		svgW = window.innerWidth;
		svgH = window.innerHeight;

		// calculate real viewbox

		realsvgW = svgW;
		realsvgH = svgH;
		if((svgW / svgH) > (vboxW / vboxH))
		{
			realvboxW = (vboxH * svgW) / svgH;
			realvboxH = vboxH;
			realx0 = x0 - (realvboxW - vboxW)/2 ;
		}
		else
		{
			realvboxH = (vboxW * svgH) / svgW;
			realvboxW = vboxW;
			realy0 = y0 - (realvboxH - vboxH)/2 ;
		}
	}

	// get user zoom/pan

	var newScale = root.currentScale;
	var translation = root.currentTranslate;

	// transform pxl to user unit

	var xPos = (((evt.clientX+10- translation.x)/newScale) * realvboxW)/realsvgW  + realx0 ;
	var yPos = (((evt.clientY+5- translation.y)/newScale) * realvboxH)/ realsvgH  + realy0 ;
	var scaleForWidth = ( (1 / newScale) * realvboxH) / realsvgH;

	// move tooltip

	toolTip.setAttribute("transform", "translate(" + xPos + "," + yPos + ")" );

	// resize tooltip

	var fontsize = 12;
	tiptext.setAttribute("font-size",fontsize*scaleForWidth);
	tiptext.setAttribute("y", fontsize*scaleForWidth);
	var tipBG = svgDocument.getElementById('ToolTipBG');
	var outline = tiptext.getBBox();
	if(tipBG)
	{
		tipBG.setAttribute("stroke-width", 1*scaleForWidth);
		tipBG.setAttribute("width", Number(outline.width) );
		tipBG.setAttribute("height", Number(outline.height) + fontsize*.5*scaleForWidth );
	}
	var ToolTipShadow = svgDocument.getElementById('ToolTipShadow');
	if(ToolTipShadow)
	{
		ToolTipShadow.setAttribute("width", Number(outline.width) );
		ToolTipShadow.setAttribute("height", Number(outline.height) + fontsize*.5*scaleForWidth );
		ToolTipShadow.setAttribute("x", 3*scaleForWidth);
		ToolTipShadow.setAttribute("y", 3*scaleForWidth);
	}
}
function ShowPaper()
{
  var svgDocument = getDocument();
  var paper = svgDocument.getElementById("paperID");
  if(paper)
  {
    paper.setAttribute("transform","scale(1)");
    paper.setAttribute("opacity","1");
    paper.setAttribute("visibility","visible");
  }
  var svg = svgDocument.getRootElement();
  if(svg)
  {
    svg.setAttribute("width","307.000mm");
    svg.setAttribute("height","220.000mm");
    svg.setAttribute("viewBox","-5.000000 -5.000000 307.000000 220.000000");
  }
}
]]></script><defs/><g><g id="Actor_.0"><g style="stroke:#000000;stroke-width:0.123"><path d="M203.30,115.60L201.72,115.89L201.66,115.91L201.60,115.94L201.51,116.01L201.43,116.12L201.38,116.25L201.37,116.40L201.35,119.49L201.37,119.64L201.41,119.78L201.49,119.91L201.58,120.01L201.64,120.05L201.75,120.10L203.22,120.30L203.28,120.29"/><path d="M203.28,120.01L203.22,120.02L201.82,119.83L201.77,119.82L201.69,119.77L201.62,119.68L201.59,119.58L201.58,119.52L201.60,116.43L201.62,116.32L201.67,116.23L201.70,116.20L201.75,116.18L201.79,116.17L201.83,116.17L203.24,116.34L203.24,116.06L203.30,116.04"/><path d="M201.72,115.89L201.84,115.89L203.24,116.06"/><path d="M203.22,120.30L203.22,120.02"/><path d="M203.24,116.34L203.30,116.33"/></g></g><g id="Actor_.1"><g style="stroke:#000000;stroke-width:0.123"><path d="M203.51,80.14L202.02,80.13L201.96,80.13L201.90,80.14L201.78,80.20L201.68,80.29L201.64,80.35L201.61,80.41L201.56,80.55L201.54,80.70L201.53,83.88L201.54,84.03L201.59,84.17L201.66,84.29L201.76,84.39L201.82,84.42L201.94,84.46L203.42,84.50L203.48,84.50"/><path d="M203.48,84.21L202.00,84.18L201.95,84.17L201.91,84.16L201.87,84.13L201.83,84.09L201.78,84.00L201.76,83.89L201.78,80.70L201.79,80.65L201.82,80.54L201.85,80.50L201.89,80.46L201.93,80.44L201.97,80.42L202.02,80.42L203.44,80.43L203.45,80.14"/><path d="M202.02,80.13L203.51,80.06"/><path d="M203.42,84.50L203.42,84.21"/><path d="M203.50,80.43L203.44,80.43"/></g></g><g id="Actor_.2"><g style="stroke:#000000;stroke-width:0.123"><path d="M200.49,131.73L200.32,136.95L200.31,137.00L200.25,137.09L200.18,137.13L200.13,137.14L198.91,136.92L198.90,137.21L200.08,137.43L200.20,137.43L200.31,137.39L200.42,137.32L200.49,137.21L200.55,137.09L200.57,136.94L200.72,131.77L200.49,131.73L202.76,131.33L202.99,131.37L202.83,136.49L202.81,136.64L202.76,136.76L202.73,136.82L202.63,136.91L202.53,136.96L200.20,137.43"/><path d="M198.91,136.92L200.34,136.64"/><path d="M200.72,131.77L202.99,131.37"/></g></g><g id="Actor_.3"><g style="stroke:#000000;stroke-width:0.123"><path d="M123.89,37.92L123.88,38.91L94.49,43.50L94.49,42.63L123.89,37.92L127.69,38.48L127.68,39.46L127.57,39.47"/><path d="M94.49,43.50L94.56,43.51"/><path d="M98.39,43.46L99.46,43.30L102.57,43.06L120.32,40.36"/><path d="M102.56,42.49L102.56,42.54L102.53,42.50L104.90,42.16L105.90,42.19L106.22,42.25L106.37,42.32L106.19,42.39L104.15,42.70L103.26,42.79L102.38,42.77L101.93,42.67"/><path d="M101.94,42.67L102.56,42.54"/><path d="M103.90,42.70L103.90,42.29"/><path d="M104.15,42.70L104.15,42.25"/><path d="M119.80,40.26L119.83,40.30L117.28,40.68L116.24,40.66L115.68,40.52L115.88,40.43L118.16,40.08L119.17,39.97L119.81,39.97L119.80,40.26L120.32,40.18"/><path d="M119.81,39.97L120.32,40.02"/><path d="M123.88,38.91L127.68,39.46"/></g></g><g id="Actor_.4"><g style="stroke:#000000;stroke-width:0.123"><path d="M127.57,39.48L156.02,43.54L156.10,43.67L156.03,47.81L156.00,47.91L155.92,47.99L152.44,48.36L127.51,45.24"/><path d="M127.57,39.48L127.64,39.65L127.63,41.55L127.60,44.15L127.52,44.35"/></g></g><g id="Actor_.5"><g style="stroke:#000000;stroke-width:0.123"><path d="M203.10,150.99L203.05,151.01L201.66,150.70L201.54,150.69L201.43,150.72L201.33,150.79L201.29,150.83L201.23,150.94L201.21,151.01L201.19,151.14L201.18,154.16L201.19,154.30L201.24,154.45L201.27,154.51L201.31,154.58L201.41,154.69L201.46,154.73L201.58,154.79L203.02,155.14L203.02,154.87L203.08,154.85"/><path d="M203.02,154.87L201.64,154.54L201.59,154.52L201.51,154.46L201.45,154.37L201.43,154.32L201.41,154.21L201.42,151.20L201.44,151.09L201.49,151.02L201.53,150.99L201.57,150.97L201.61,150.97L203.04,151.29L203.04,151.01"/><path d="M201.48,150.70L203.11,150.18"/><path d="M203.02,155.14L203.08,155.12"/><path d="M203.04,151.29L203.10,151.27"/></g></g><g id="Actor_.6"><g style="stroke:#000000;stroke-width:0.123"><path d="M156.21,131.84L154.72,132.07L154.66,132.09L154.61,132.16L154.59,132.25L154.54,135.32L154.56,135.40L154.59,135.45L154.63,135.47L162.06,137.02"/><path d="M159.68,132.52L156.21,131.84"/><path d="M161.92,136.86L159.71,133.26L159.66,133.16L159.67,133.07"/></g></g><g id="Actor_.7"><g style="stroke:#000000;stroke-width:0.123"><path d="M119.28,184.38L120.33,39.48L123.89,38.93L127.50,39.44L127.56,40.43L126.23,184.77L122.62,185.85L119.28,184.36"/></g></g><g id="Actor_.8"><g style="stroke:#000000;stroke-width:0.123"><path d="M126.27,180.24L126.34,180.41L126.30,184.60L126.25,184.73L153.76,176.54L153.83,176.44L153.89,172.54L153.79,172.39L150.47,171.26L126.29,177.96"/><path d="M126.24,184.74L126.23,184.74"/></g></g><g id="Actor_.9"><g style="stroke:#000000;stroke-width:0.123"><path d="M206.18,160.97L206.16,161.64L206.13,161.67L204.34,162.21L204.26,162.22L204.15,162.23L203.99,162.21L202.96,161.95L202.80,161.93L202.69,161.93L202.61,161.95L200.64,162.53L200.45,162.55L200.24,162.52L198.17,161.98L198.09,161.95L198.05,161.91L198.07,161.22L198.11,161.26L198.19,161.29L200.26,161.83L200.47,161.85L200.66,161.84L202.63,161.26L202.71,161.24L202.86,161.24L202.98,161.26L203.96,161.50L204.12,161.53L204.33,161.52L204.70,161.41"/><path d="M198.07,161.22L198.13,161.18L202.25,159.99L202.39,159.98L202.56,160.00L203.05,160.12"/><path d="M199.25,161.23L199.13,161.29L199.10,161.33L199.11,161.36L199.15,161.41L199.24,161.45L199.36,161.50L199.59,161.55L199.77,161.57L200.04,161.58L200.27,161.56L200.40,161.53L201.30,161.26L201.37,161.22L201.40,161.18L201.37,161.13L201.35,161.10L201.26,161.06L201.14,161.01L200.82,160.95L200.47,160.94L200.16,160.97L199.25,161.23"/><path d="M204.70,161.41L206.13,160.99"/></g></g><g id="Actor_.10"><g style="stroke:#000000;stroke-width:0.123"><path d="M96.42,117.52L96.34,117.38L96.34,114.34L96.42,114.18"/><path d="M119.73,121.77L96.47,117.54"/><path d="M98.25,114.02L119.76,117.56"/><path d="M119.76,118.06L119.67,118.24L119.64,121.60L119.67,121.71L119.73,121.76"/></g></g><g id="Actor_.11"><g style="stroke:#000000;stroke-width:0.123"><path d="M126.95,106.48L151.56,104.98L154.92,105.31L155.02,105.36L155.06,105.47L154.99,109.47L154.95,109.59L154.86,109.63L126.92,111.78L127.00,111.61L127.04,107.27L127.01,107.15L126.94,107.08"/></g></g><g id="Actor_.12"><g style="stroke:#000000;stroke-width:0.123"><path d="M159.02,50.16L159.12,50.15L159.01,56.49L158.99,56.67L158.97,56.76L158.90,56.92"/><path d="M159.12,50.15L161.22,50.40"/></g></g><g id="Actor_.13"><g style="stroke:#000000;stroke-width:0.123"><path d="M98.23,173.77L96.30,174.25L94.56,173.50L94.54,172.94L94.56,43.51L96.30,43.22L98.31,43.44L98.39,43.80L98.35,73.91"/><path d="M98.23,173.79L98.25,157.45"/><path d="M98.30,117.87L98.26,153.18"/><path d="M98.35,77.44L98.30,114.03"/></g></g><g id="Actor_.14"><g style="stroke:#000000;stroke-width:0.123"><path d="M151.44,109.89L150.45,171.26"/><path d="M152.43,48.36L151.52,104.98"/><path d="M157.48,136.06L156.77,175.68L153.73,176.54"/><path d="M158.74,65.63L159.13,43.97L156.00,43.53"/><path d="M158.68,69.32L157.55,132.10"/></g></g><g id="Actor_.15"><g style="stroke:#000000;stroke-width:0.123"><path d="M126.23,184.75L126.30,184.78L122.64,185.88L122.63,186.79L94.45,174.26L94.45,173.45L94.54,173.43"/><path d="M122.64,185.88L94.45,173.45"/><path d="M119.29,182.29L102.23,174.92L99.24,174.19L98.23,173.76"/><path d="M102.48,176.39L102.89,176.43L103.50,176.69L103.75,176.70L103.75,175.87L103.51,175.86L102.97,175.63L102.63,175.57L102.04,175.60L101.66,175.76L101.62,175.83L101.66,175.92L102.22,176.18L102.22,176.28"/><path d="M103.75,175.87L105.72,176.72L105.86,176.81L105.89,176.92L105.74,177.06L105.35,177.18L104.90,177.23L104.38,177.19L102.19,176.26L102.22,176.18"/><path d="M103.51,175.86L103.50,176.69"/><path d="M103.75,176.70L104.97,177.23"/><path d="M118.76,182.47L118.76,183.18L118.24,183.15L117.45,182.85L117.19,182.83L115.00,181.88L114.84,181.77L114.80,181.66L114.94,181.50L115.35,181.36L115.91,181.31L116.44,181.38L118.79,182.38L118.76,182.47L119.29,182.70"/><path d="M118.60,183.18L116.52,182.28L116.13,182.20L115.72,182.19"/><path d="M118.76,183.18L119.29,183.07"/><path d="M122.63,186.79L126.29,185.69L126.30,184.78"/></g></g><g id="Actor_.16"><g style="stroke:#000000;stroke-width:0.123"><path d="M155.29,172.32L155.25,172.27L155.22,172.22L155.19,172.15L155.18,172.08L155.17,172.00L155.17,171.92L155.18,171.84L155.19,171.76L155.22,171.68L155.25,171.60L155.29,171.53L155.34,171.47L155.39,171.41L155.44,171.37L155.50,171.33L155.56,171.31L155.62,171.29L155.67,171.29L155.73,171.30L155.78,171.33L155.82,171.36L155.86,171.41L155.90,171.47L155.92,171.53L155.94,171.60L155.95,171.68L155.95,171.76L155.94,171.84L155.92,171.92L155.90,172.00L155.86,172.08L155.82,172.15L155.79,172.20L155.73,172.27L155.67,172.32L155.62,172.35L155.56,172.38L155.50,172.39L155.44,172.39L155.39,172.38L155.34,172.35L155.29,172.32"/><path d="M155.78,172.70L155.72,172.75L155.64,172.80L155.55,172.84L155.46,172.87L155.37,172.88L155.29,172.88L155.20,172.86L155.08,172.82L155.00,172.77L154.93,172.71L154.87,172.65L154.82,172.57L154.77,172.48L154.74,172.39L154.71,172.28L154.69,172.18L154.68,172.07L154.68,171.95L154.70,171.84L154.72,171.72L154.74,171.61L154.78,171.49L154.83,171.38L154.88,171.28L154.94,171.18L155.01,171.09L155.08,171.01L155.16,170.94L155.24,170.88L155.32,170.83L155.41,170.79L155.50,170.76L155.58,170.75L155.67,170.75L155.76,170.77L155.80,170.78L155.88,170.81L155.96,170.86L156.03,170.92L156.09,170.98L156.14,171.06L156.19,171.15L156.22,171.24L156.25,171.34L156.27,171.46L156.27,171.57L156.27,171.68L156.26,171.79L156.24,171.91L156.21,172.02L156.18,172.14L156.13,172.24L156.08,172.35L156.02,172.44L155.95,172.53L155.88,172.61L155.78,172.70"/></g></g><g id="Actor_.17"><g style="stroke:#000000;stroke-width:0.123"><path d="M180.83,104.87L180.83,104.86L179.40,104.73L179.11,104.71L178.78,104.70L178.52,104.71L176.24,104.86L176.15,104.87L176.08,104.89L176.08,104.89L176.12,104.91L176.24,104.93L177.73,105.06L177.73,105.08"/><path d="M180.83,104.86L180.63,104.87L179.20,104.74L178.85,104.73L176.48,104.88L176.42,104.89L176.40,104.90L176.51,104.92L177.94,105.05L177.73,105.06"/><path d="M176.08,104.89L176.08,105.19"/><path d="M177.94,105.05L177.94,105.07"/><path d="M180.63,104.87L180.63,104.89"/></g></g><g id="Actor_.18"><g style="stroke:#000000;stroke-width:0.123"><path d="M155.49,160.68L155.45,160.63L155.42,160.57L155.40,160.50L155.38,160.43L155.37,160.35L155.37,160.27L155.38,160.19L155.40,160.11L155.42,160.03L155.45,159.95L155.49,159.88L155.54,159.82L155.59,159.77L155.65,159.72L155.70,159.69L155.76,159.67L155.78,159.66L155.82,159.66L155.88,159.66L155.93,159.67L155.98,159.70L156.03,159.74L156.07,159.78L156.10,159.84L156.13,159.91L156.15,159.98L156.15,160.06L156.15,160.14L156.15,160.22L156.13,160.30L156.10,160.38L156.07,160.46L156.03,160.53L155.98,160.59L155.93,160.64L155.88,160.69L155.82,160.72L155.79,160.73L155.76,160.74L155.70,160.75L155.65,160.75L155.59,160.74L155.54,160.71L155.49,160.68"/><path d="M155.78,161.20L155.75,161.22L155.66,161.24L155.57,161.25L155.48,161.24L155.36,161.21L155.28,161.18L155.21,161.13L155.13,161.07L155.07,161.00L155.02,160.92L154.97,160.83L154.94,160.73L154.91,160.63L154.89,160.52L154.88,160.41L154.89,160.29L154.90,160.18L154.92,160.06L154.95,159.95L154.98,159.83L155.03,159.73L155.08,159.62L155.14,159.53L155.21,159.44L155.28,159.36L155.36,159.29L155.44,159.23L155.52,159.19L155.62,159.15L155.70,159.13L155.80,159.12L155.88,159.12L155.97,159.14L156.01,159.15L156.09,159.19L156.17,159.24L156.24,159.30L156.29,159.36L156.35,159.45L156.39,159.54L156.43,159.63L156.46,159.74L156.47,159.85L156.48,159.96L156.48,160.07L156.47,160.19L156.45,160.30L156.42,160.42L156.38,160.53L156.34,160.64L156.28,160.74L156.23,160.83L156.16,160.92L156.08,161.00L156.01,161.07L155.93,161.13L155.85,161.18L155.78,161.20"/></g></g><g id="Actor_.19"><g style="stroke:#000000;stroke-width:0.123"><path d="M161.09,57.42L158.93,57.20L158.99,57.36L158.93,60.52L158.83,60.70"/><path d="M161.02,61.11L158.83,60.92"/><path d="M165.19,61.47L203.62,64.76L205.07,64.70L205.23,64.62L206.89,62.04L206.91,61.92L206.85,61.91"/><path d="M206.86,61.91L165.26,57.82"/><path d="M170.15,60.51L169.97,60.22L169.95,59.83L170.09,59.52L170.35,59.40L170.52,59.48L170.65,59.65L170.72,60.16L170.49,60.54L170.35,60.58L170.15,60.51"/><path d="M170.20,59.43L170.41,59.61L170.53,60.04L170.45,60.36L170.25,60.57"/></g></g><g id="Actor_.20"><g style="stroke:#000000;stroke-width:0.123"><path d="M163.69,136.72L162.17,137.03L161.99,136.96L159.67,133.11"/><path d="M159.67,133.13L161.37,42.90L163.96,42.59L165.51,42.82L165.54,43.80L163.69,136.73"/></g></g><g id="Actor_.21"><g style="stroke:#000000;stroke-width:0.123"><path d="M157.30,146.13L157.37,146.28L157.36,147.11L157.32,149.31L157.24,149.45L204.69,139.45L204.75,139.25L204.73,136.70L203.24,136.39L202.83,136.47"/><path d="M199.00,137.23L160.48,144.83"/><path d="M162.43,147.32L162.76,147.11L162.94,146.73L162.93,146.35L162.73,146.05"/><path d="M162.28,147.11L162.41,147.31L162.65,147.38L162.89,147.25L163.04,147.05L163.13,146.80L163.14,146.45L162.91,146.09L162.67,146.07L162.38,146.30L162.23,146.72L162.28,147.11"/><path d="M201.30,138.22L201.45,138.22L201.59,138.36L201.64,138.87L201.41,139.29L201.22,139.35L201.06,139.25L200.97,139.00L200.98,138.70L201.21,138.27L201.34,138.26L201.41,138.36L201.47,138.74L201.36,139.07L201.11,139.30"/></g></g><g id="Actor_.22"><g style="stroke:#000000;stroke-width:0.123"><path d="M160.11,109.90L157.96,110.07L158.04,109.91L158.09,106.84L158.01,106.67"/><path d="M158.01,106.40L160.18,106.26"/><path d="M204.84,106.35L164.23,109.57"/><path d="M204.86,106.35L204.96,106.21L204.97,103.56L204.90,103.49L203.43,103.36L164.30,105.98"/></g></g><g id="Actor_.23"><g style="stroke:#000000;stroke-width:0.123"><path d="M164.14,42.61L165.97,42.90L166.00,41.99L165.90,41.96L164.16,41.69L163.70,41.68L152.66,43.06"/><path d="M163.63,42.61L155.99,43.53"/><path d="M161.36,43.06L160.99,43.09L157.83,43.47L157.66,43.50L157.60,43.54L157.70,43.59L157.91,43.63L158.29,43.65L158.69,43.65L161.36,43.34"/><path d="M161.35,43.48L158.62,43.81L158.52,43.83L158.58,43.86L159.08,43.95"/><path d="M159.09,43.95L159.09,43.75"/><path d="M165.56,42.98L165.91,42.94L165.98,42.91"/></g></g><g id="Actor_.24"><g style="stroke:#000000;stroke-width:0.123"><path d="M98.29,77.44L96.52,77.40L96.39,77.30L96.37,74.12L96.42,73.99L96.54,73.94"/><path d="M96.52,73.94L120.08,73.55"/><path d="M98.27,77.44L120.05,77.43"/><path d="M120.08,73.57L120.00,73.71L120.00,74.12L119.98,77.17L119.99,77.27L120.05,77.36"/></g></g><g id="Actor_.25"><g style="stroke:#000000;stroke-width:0.123"><path d="M179.95,140.99L179.95,140.95L178.53,140.65L178.32,140.62L178.00,140.61L177.85,140.61L177.66,140.63L175.40,141.07L175.31,141.10L175.25,141.13L175.24,141.14L175.22,141.92"/><path d="M175.24,141.16L175.25,141.18L175.30,141.21L175.39,141.24L176.87,141.56L176.87,141.60"/><path d="M177.07,141.56L177.07,141.52L175.66,141.21L175.56,141.18L175.55,141.17L175.56,141.15L175.60,141.13L175.63,141.12L177.89,140.68L177.99,140.67L178.16,140.67L178.33,140.69L179.74,140.99L179.95,140.95"/><path d="M176.87,141.56L177.07,141.52"/><path d="M179.74,140.99L179.74,141.03"/></g></g><g id="Actor_.26"><g style="stroke:#000000;stroke-width:0.123"><path d="M160.87,69.26L157.30,69.36L155.81,69.28L155.76,69.26L155.71,69.19L155.69,69.10L155.74,65.92L155.76,65.84L155.78,65.79L155.83,65.76L155.88,65.75"/><path d="M155.87,65.75L160.94,65.54"/><path d="M160.87,69.11L160.83,69.05L160.81,69.00L160.81,68.79L160.87,65.71L160.89,65.60L160.94,65.55"/></g></g><g id="Actor_.27"><g style="stroke:#000000;stroke-width:0.123"><path d="M96.36,156.77L96.30,156.67L96.30,156.10L96.30,153.67L96.36,153.53"/><path d="M119.42,165.08L96.39,156.78"/><path d="M98.24,153.17L119.45,160.41"/><path d="M119.40,165.08L119.32,164.93L119.35,161.65L119.37,161.54L119.44,161.46"/></g></g><g id="Actor_.28"><g style="stroke:#000000;stroke-width:0.123"><path d="M156.70,175.72L156.69,176.50L156.66,176.54L156.59,176.57L154.06,177.34L153.88,177.36L153.75,177.36L153.63,177.34L152.47,176.92"/><path d="M154.06,176.51L156.61,175.75"/><path d="M156.77,175.60L158.36,175.12L158.43,175.09L158.46,175.05L158.47,174.24L158.45,174.28L158.38,174.31L156.79,174.78"/><path d="M156.80,173.81L157.05,173.86L157.19,173.91L157.28,173.97L157.31,174.01L157.33,174.07L157.30,174.14L157.21,174.19L157.09,174.24L156.79,174.33"/><path d="M158.47,174.24L158.45,174.20L158.37,174.16L156.81,173.63"/></g></g><g id="Actor_.29"><g style="stroke:#000000;stroke-width:0.123"><path d="M157.30,145.82L157.37,145.65L157.39,145.47L157.50,139.44L160.60,138.89L160.48,144.86L160.46,145.03L160.41,145.18L160.37,145.24L160.31,145.32L160.23,145.38L160.17,145.40L157.30,145.98"/><path d="M157.50,139.44L157.42,139.42"/><path d="M157.42,139.36L160.35,138.84L160.60,138.89"/></g></g><g id="Actor_.30"><g style="stroke:#000000;stroke-width:0.123"><path d="M205.28,64.55L206.92,61.97L206.23,160.94L204.57,161.42L203.05,161.01"/><path d="M203.05,161.03L203.17,139.77"/><path d="M203.36,106.47L203.18,136.40"/><path d="M203.59,64.75L203.37,103.36"/><path d="M206.92,61.97L206.85,61.91"/></g></g><g id="PMI3.0"><g><path style="stroke:#000000;stroke-width:0.281" d="M131.39,64.04L129.44,64.00"/></g><g><path style="fill:#000000" d="M129.46,63.00L129.42,65.00L127.44,63.96z"/></g><g><path style="fill:#ffffff" d="M131.40,66.74L147.04,66.74L147.04,61.66L131.40,61.66z"/><path style="stroke:#000000;stroke-width:0.281;stroke-opacity:0.98" d="M131.40,66.74L147.04,66.74L147.04,61.66L131.40,61.66z"/><text xml:space="preserve" fill="#000000" stroke-width="0" x="132.03" y="65.31" font-size="3.04" opacity="1.00" font-family="Microsoft Sans Serif">1003ASZ1</text></g></g><g id="PMI17.0"><g><path style="stroke:#000000;stroke-width:0.281" d="M183.85,55.30L183.86,57.64"/></g><g><path style="fill:#000000" d="M182.86,57.65L184.86,57.63L183.87,59.64z"/></g><g><path style="fill:#ffffff" d="M175.14,55.94L192.55,55.94L192.55,50.86L175.14,50.86z"/><path style="stroke:#000000;stroke-width:0.281;stroke-opacity:0.98" d="M175.14,55.94L192.55,55.94L192.55,50.86L175.14,50.86z"/><text xml:space="preserve" fill="#000000" stroke-width="0" x="175.77" y="54.51" font-size="3.09" opacity="1.00" font-family="Microsoft Sans Serif">3300025G1</text></g></g><g id="PMI14.0"><g><path style="stroke:#000000;stroke-width:0.281" d="M199.62,170.87L199.56,164.25"/></g><g><path style="fill:#000000" d="M200.55,164.23L198.55,164.25L199.53,162.24z"/></g><g><path style="fill:#ffffff" d="M191.88,171.50L207.35,171.50L207.35,166.42L191.88,166.42z"/><path style="stroke:#000000;stroke-width:0.281;stroke-opacity:0.98" d="M191.88,171.50L207.35,171.50L207.35,166.42L191.88,166.42z"/><text xml:space="preserve" fill="#000000" stroke-width="0" x="192.51" y="170.07" font-size="3.04" opacity="1.00" font-family="Microsoft Sans Serif">1003ATF0</text></g></g><g id="PMI7.0"><g><path style="stroke:#000000;stroke-width:0.281" d="M168.93,89.15L166.70,89.11"/></g><g><path style="fill:#000000" d="M166.72,88.11L166.68,90.11L164.70,89.07z"/></g><g><path style="fill:#ffffff" d="M168.93,91.85L184.23,91.85L184.23,86.77L168.93,86.77z"/><path style="stroke:#000000;stroke-width:0.281;stroke-opacity:0.98" d="M168.93,91.85L184.23,91.85L184.23,86.77L168.93,86.77z"/><text xml:space="preserve" fill="#000000" stroke-width="0" x="169.56" y="90.42" font-size="3.04" opacity="1.00" font-family="Microsoft Sans Serif">1003AT50</text></g></g><g id="PMI15.0"><g><path style="stroke:#000000;stroke-width:0.281" d="M197.89,82.12L199.70,82.08"/></g><g><path style="fill:#000000" d="M199.71,83.09L199.67,81.09L201.69,82.05z"/></g><g><path style="fill:#ffffff" d="M181.89,84.83L197.88,84.83L197.88,79.75L181.89,79.75z"/><path style="stroke:#000000;stroke-width:0.281;stroke-opacity:0.98" d="M181.89,84.83L197.88,84.83L197.88,79.75L181.89,79.75z"/><text xml:space="preserve" fill="#000000" stroke-width="0" x="182.52" y="83.40" font-size="3.05" opacity="1.00" font-family="Microsoft Sans Serif">1003ATG0</text></g></g><g id="PMI1.0"><g><path style="stroke:#000000;stroke-width:0.281" d="M196.78,133.16L198.62,133.13"/></g><g><path style="fill:#000000" d="M198.63,134.12L198.59,132.12L200.61,133.08z"/></g><g><path style="fill:#ffffff" d="M179.19,135.86L196.77,135.86L196.77,130.78L179.19,130.78z"/><path style="stroke:#000000;stroke-width:0.281;stroke-opacity:0.98" d="M179.19,135.86L196.77,135.86L196.77,130.78L179.19,130.78z"/><text xml:space="preserve" fill="#000000" stroke-width="0" x="179.82" y="134.43" font-size="3.09" opacity="1.00" font-family="Microsoft Sans Serif">0200450M2</text></g></g><g id="PMI6.0"><g><path style="stroke:#000000;stroke-width:0.281" d="M210.51,92.57L209.09,92.57"/></g><g><path style="fill:#000000" d="M209.09,91.57L209.09,93.57L207.09,92.58z"/></g><g><path style="fill:#ffffff" d="M210.51,95.09L225.81,95.09L225.81,90.01L210.51,90.01z"/><path style="stroke:#000000;stroke-width:0.281;stroke-opacity:0.98" d="M210.51,95.09L225.81,95.09L225.81,90.01L210.51,90.01z"/><text xml:space="preserve" fill="#000000" stroke-width="0" x="211.14" y="93.66" font-size="3.04" opacity="1.00" font-family="Microsoft Sans Serif">1003AT41</text></g></g><g id="PMI10.0"><g><path style="stroke:#000000;stroke-width:0.281" d="M181.17,116.60L181.38,109.70"/></g><g><path style="fill:#000000" d="M182.38,109.73L180.38,109.67L181.44,107.70z"/></g><g><path style="fill:#ffffff" d="M173.52,117.23L188.82,117.23L188.82,112.15L173.52,112.15z"/><path style="stroke:#000000;stroke-width:0.281;stroke-opacity:0.98" d="M173.52,117.23L188.82,117.23L188.82,112.15L173.52,112.15z"/><text xml:space="preserve" fill="#000000" stroke-width="0" x="174.15" y="115.80" font-size="3.04" opacity="1.00" font-family="Microsoft Sans Serif">1003AT81</text></g></g><g id="PMI9.0"><g><path style="stroke:#000000;stroke-width:0.281" d="M174.15,154.13L173.95,147.50"/></g><g><path style="fill:#000000" d="M174.94,147.47L172.94,147.53L173.88,145.50z"/></g><g><path style="fill:#ffffff" d="M166.50,154.76L181.80,154.76L181.80,149.68L166.50,149.68z"/><path style="stroke:#000000;stroke-width:0.281;stroke-opacity:0.98" d="M166.50,154.76L181.80,154.76L181.80,149.68L166.50,149.68z"/><text xml:space="preserve" fill="#000000" stroke-width="0" x="167.13" y="153.33" font-size="3.04" opacity="1.00" font-family="Microsoft Sans Serif">1003AT71</text></g></g><g id="PMI5.0"><g><path style="stroke:#000000;stroke-width:0.281" d="M90.52,102.65L92.76,102.61"/></g><g><path style="fill:#000000" d="M92.79,103.61L92.75,101.61L94.77,102.57z"/></g><g><path style="fill:#ffffff" d="M75.24,105.35L90.54,105.35L90.54,100.27L75.24,100.27z"/><path style="stroke:#000000;stroke-width:0.281;stroke-opacity:0.98" d="M75.24,105.35L90.54,105.35L90.54,100.27L75.24,100.27z"/><text xml:space="preserve" fill="#000000" stroke-width="0" x="75.87" y="103.92" font-size="3.04" opacity="1.00" font-family="Microsoft Sans Serif">1003AT31</text></g></g><g id="PMI4.0"><g><path style="stroke:#000000;stroke-width:0.281" d="M147.50,139.02L149.20,139.02"/></g><g><path style="fill:#000000" d="M149.20,140.01L149.20,138.01L151.20,139.02z"/></g><g><path style="fill:#ffffff" d="M132.21,141.53L147.51,141.53L147.51,136.45L132.21,136.45z"/><path style="stroke:#000000;stroke-width:0.281;stroke-opacity:0.98" d="M132.21,141.53L147.51,141.53L147.51,136.45L132.21,136.45z"/><text xml:space="preserve" fill="#000000" stroke-width="0" x="132.84" y="140.10" font-size="3.04" opacity="1.00" font-family="Microsoft Sans Serif">1003AT01</text></g></g><g id="PMI16.0"><g><path style="stroke:#000000;stroke-width:0.281" d="M148.30,147.10L151.47,147.10L155.57,137.10"/></g><g><path style="fill:#000000" d="M156.50,137.47L154.65,136.71L156.33,135.24z"/></g><g><path style="fill:#ffffff" d="M132.21,149.63L148.93,149.63L148.93,144.55L132.21,144.55z"/><path style="stroke:#000000;stroke-width:0.281;stroke-opacity:0.98" d="M132.21,149.63L148.93,149.63L148.93,144.55L132.21,144.55z"/><text xml:space="preserve" fill="#000000" stroke-width="0" x="132.84" y="148.20" font-size="2.79" opacity="1.00" font-family="Microsoft Sans Serif">330002581</text></g></g><g id="PMI2.0"><g><path style="stroke:#000000;stroke-width:0.281" d="M149.82,77.96L153.00,77.96L156.34,70.37"/></g><g><path style="fill:#000000" d="M157.25,70.78L155.42,69.98L157.14,68.55z"/></g><g><path style="fill:#ffffff" d="M134.64,80.51L150.46,80.51L150.46,75.43L134.64,75.43z"/><path style="stroke:#000000;stroke-width:0.281;stroke-opacity:0.98" d="M134.64,80.51L150.46,80.51L150.46,75.43L134.64,75.43z"/><text xml:space="preserve" fill="#000000" stroke-width="0" x="135.27" y="79.08" font-size="3.05" opacity="1.00" font-family="Microsoft Sans Serif">1003ASY0</text></g></g><g id="PMI12.0"><g><path style="stroke:#000000;stroke-width:0.281" d="M102.29,186.53L105.46,186.53L106.90,181.46"/></g><g><path style="fill:#000000" d="M107.87,181.72L105.95,181.17L107.46,179.52z"/></g><g><path style="fill:#ffffff" d="M87.11,189.05L102.93,189.05L102.93,183.97L87.11,183.97z"/><path style="stroke:#000000;stroke-width:0.281;stroke-opacity:0.98" d="M87.11,189.05L102.93,189.05L102.93,183.97L87.11,183.97z"/><text xml:space="preserve" fill="#000000" stroke-width="0" x="87.75" y="187.62" font-size="3.04" opacity="1.00" font-family="Microsoft Sans Serif">1003ATC0</text></g></g><g id="PMI13.0"><g><path style="stroke:#000000;stroke-width:0.281" d="M159.55,38.02L159.56,40.89"/></g><g><path style="fill:#000000" d="M158.56,40.90L160.56,40.90L159.57,42.90z"/></g><g><path style="fill:#ffffff" d="M151.65,38.66L167.46,38.66L167.46,33.58L151.64,33.58z"/><path style="stroke:#000000;stroke-width:0.281;stroke-opacity:0.98" d="M151.65,38.66L167.46,38.66L167.46,33.58L151.64,33.58z"/><text xml:space="preserve" fill="#000000" stroke-width="0" x="152.28" y="37.23" font-size="3.04" opacity="1.00" font-family="Microsoft Sans Serif">1003ATD1</text></g></g><g id="PMI11.0"><g><path style="stroke:#000000;stroke-width:0.281" d="M108.10,123.49L108.05,121.58"/></g><g><path style="fill:#000000" d="M109.05,121.55L107.05,121.61L108.00,119.58z"/></g><g><path style="fill:#ffffff" d="M100.35,128.57L115.99,128.57L115.99,123.49L100.35,123.49z"/><path style="stroke:#000000;stroke-width:0.281;stroke-opacity:0.98" d="M100.35,128.57L115.99,128.57L115.99,123.49L100.35,123.49z"/><text xml:space="preserve" fill="#000000" stroke-width="0" x="100.98" y="127.14" font-size="3.04" opacity="1.00" font-family="Microsoft Sans Serif">1003ATB0</text></g></g><g id="PMI8.0"><g><path style="stroke:#000000;stroke-width:0.281" d="M139.20,102.92L139.14,104.35"/></g><g><path style="fill:#000000" d="M138.14,104.31L140.14,104.40L139.05,106.35z"/></g><g><path style="fill:#ffffff" d="M131.67,102.92L146.97,102.92L146.97,97.84L131.67,97.84z"/><path style="stroke:#000000;stroke-width:0.281;stroke-opacity:0.98" d="M131.67,102.92L146.97,102.92L146.97,97.84L131.67,97.84z"/><text xml:space="preserve" fill="#000000" stroke-width="0" x="132.30" y="101.49" font-size="3.04" opacity="1.00" font-family="Microsoft Sans Serif">1003AT60</text></g></g><g/><g id="paperID" visibility="hidden" opacity="0.00" transform="scale(0.000100)"><path style="stroke:#000000;stroke-width:0.500;fill:#e6e6e6;fill-rule:evenodd" d="M-2000.00,-2000.00L2297.00,-2000.00L2297.00,2210.00L-2000.00,2210.00zM0.00,0.00L297.00,0.00L297.00,210.00L0.00,210.00z"/><path style="fill:#000000;fill-opacity:0.118" d="M3.00,210.00L297.00,210.00L297.00,3.00L300.00,3.00L300.00,213.00L3.00,213.00z"/></g><g id="hotspot.0" onmouseover="ShowHotSpot(evt,'0')" onmouseout="HideHotSpot(evt,'0')" onmousemove="ShowToolTip(evt,'0',&quot;3dp2473141&quot;)" opacity="0"><path style="fill:#00ff00;fill-rule:evenodd" d="M161.11,50.57L161.11,57.43L159.11,57.43L159.12,50.29zM200.26,133.00L200.70,131.85L202.95,131.56L202.68,137.07L200.42,137.53L199.03,137.23L199.30,136.98L200.26,136.80L200.28,133.48L198.90,134.12L198.90,132.37zM196.91,133.03L198.39,133.20L196.91,133.46L196.75,136.00L179.09,136.00L179.18,130.85L196.75,130.76zM160.56,143.28L160.28,145.43L157.51,146.01L157.57,139.48L160.57,139.13z"/></g><g id="hotspot.1" onmouseover="ShowHotSpot(evt,'1')" onmouseout="HideHotSpot(evt,'1')" onmousemove="ShowToolTip(evt,'1',&quot;3dp-3-043235&quot;)" opacity="0"><path style="fill:#00ff00;fill-rule:evenodd" d="M204.85,103.76L204.85,106.57L181.78,108.36L181.85,108.89L182.21,109.46L182.16,109.78L181.54,109.99L181.52,111.97L188.67,112.11L188.94,112.38L188.92,117.37L173.42,117.37L173.51,112.22L181.09,111.97L181.06,109.99L180.43,109.71L180.86,108.97L180.83,108.63L177.75,108.63L170.82,109.26L164.24,109.54L164.30,106.52L164.52,106.20L203.47,103.49zM160.03,110.08L158.03,110.08L158.05,106.75L158.84,106.47L160.03,106.46z"/></g><g id="hotspot.2" onmouseover="ShowHotSpot(evt,'2')" onmouseout="HideHotSpot(evt,'2')" onmousemove="ShowToolTip(evt,'2',&quot;3dp-3-045199&quot;)" opacity="0"><path style="fill:#00ff00;fill-rule:evenodd" d="M120.07,77.41L96.47,77.41L96.47,74.06L120.07,73.79zM119.79,117.81L119.79,120.06L119.53,121.69L117.90,121.59L108.35,119.96L108.41,120.50L109.01,121.58L108.38,121.86L108.35,123.31L116.02,123.47L116.02,128.71L100.25,128.71L100.34,123.56L107.92,123.31L107.90,121.87L107.28,121.66L107.33,121.15L107.93,119.92L107.69,119.68L96.49,117.62L96.47,114.29L99.00,114.30zM119.24,160.48L119.28,165.14L96.57,156.96L96.49,153.73L97.29,153.45L98.74,153.45z"/></g><g id="hotspot.3" onmouseover="ShowHotSpot(evt,'3')" onmouseout="HideHotSpot(evt,'3')" onmousemove="ShowToolTip(evt,'3',&quot;3dp-3-043236&quot;)" opacity="0"><path style="fill:#00ff00;fill-rule:evenodd" d="M127.63,38.70L127.62,39.62L125.19,39.24L122.67,39.24L120.83,39.56L120.30,40.38L119.73,40.62L101.16,43.38L94.67,43.66L94.57,42.74L123.21,38.16L124.65,38.16zM95.75,174.26L97.03,174.25L98.46,173.94L98.98,174.26L102.25,175.04L116.01,180.99L119.28,182.58L119.43,184.59L122.21,185.87L123.22,185.88L126.28,185.03L126.19,185.85L123.49,186.67L121.93,186.67L107.90,180.43L107.65,181.63L106.94,181.72L106.20,181.32L106.27,180.84L106.88,180.26L106.85,179.93L94.68,174.50L94.68,173.68zM106.64,182.51L106.77,181.79L106.94,181.72zM103.08,184.20L103.22,186.49L105.42,186.42L105.59,186.32L105.49,186.76L103.22,186.92L103.06,189.19L87.02,189.19L87.11,184.04L102.81,183.93z"/></g><g id="hotspot.4" onmouseover="ShowHotSpot(evt,'4')" onmouseout="HideHotSpot(evt,'4')" onmousemove="ShowToolTip(evt,'4',&quot;3dp-3-044083&quot;)" opacity="0"><path style="fill:#00ff00;fill-rule:evenodd" d="M167.61,33.81L167.59,38.80L159.65,38.96L159.67,40.94L160.29,41.15L160.34,41.46L159.92,42.23L164.88,41.94L165.97,42.21L165.96,43.13L164.05,42.74L161.56,43.03L161.36,43.64L159.39,43.83L157.32,43.83L153.44,43.30L153.97,43.01L158.33,42.50L158.95,42.28L158.61,41.13L159.19,40.94L159.22,38.96L151.55,38.80L151.64,33.65L167.34,33.54z"/></g><g id="hotspot.5" onmouseover="ShowHotSpot(evt,'5')" onmouseout="HideHotSpot(evt,'5')" onmousemove="ShowToolTip(evt,'5',&quot;3dp-3-042741&quot;)" opacity="0"><path style="fill:#00ff00;fill-rule:evenodd" d="M203.45,161.32L206.20,161.27L206.26,161.64L205.31,162.11L202.94,162.08L200.70,162.66L199.85,162.66L200.54,164.24L199.91,164.52L199.88,166.24L207.28,166.40L207.28,171.64L191.78,171.64L191.87,166.49L199.45,166.24L199.43,164.53L198.81,164.32L198.86,163.81L199.46,162.58L199.21,162.35L198.26,162.18L198.26,161.28L202.70,160.15zM158.45,174.49L158.33,175.33L157.03,175.69L156.96,173.95L157.29,173.93zM152.88,177.26L152.87,176.97L155.90,176.11L156.53,176.13L156.53,176.73L153.99,177.50z"/></g><g id="hotspot.6" onmouseover="ShowHotSpot(evt,'6')" onmouseout="HideHotSpot(evt,'6')" onmousemove="ShowToolTip(evt,'6',&quot;3dp-3-045201&quot;)" opacity="0"><path style="fill:#00ff00;fill-rule:evenodd" d="M201.36,81.99L201.60,80.64L202.03,80.27L203.50,80.27L203.49,84.71L202.39,84.61L201.59,84.34L201.36,82.44L199.98,83.09L199.98,81.34zM197.99,82.00L199.47,82.17L197.99,82.43L197.83,84.97L181.79,84.97L181.88,79.82L197.83,79.73zM179.16,105.13L176.11,105.12L179.47,104.84zM201.51,120.06L201.52,116.20L202.32,115.91L203.22,115.90L203.23,120.34L201.83,120.27zM179.74,141.02L177.57,141.66L175.29,141.93L175.29,141.32L178.36,140.75zM201.24,151.02L202.95,150.46L202.94,155.19L202.13,155.09L201.32,154.81z"/></g><g id="hotspot.7" onmouseover="ShowHotSpot(evt,'7')" onmouseout="HideHotSpot(evt,'7')" onmousemove="ShowToolTip(evt,'7',&quot;3dp2329860&quot;)" opacity="0"><path style="fill:#00ff00;fill-rule:evenodd" d="M159.47,132.67L159.73,133.49L161.93,136.99L161.09,137.00L157.31,136.17L156.41,136.16L156.55,137.59L154.86,136.97L154.87,136.55L155.74,136.00L154.60,135.65L154.61,133.28L154.81,132.40L155.32,132.10L157.05,132.12zM149.12,147.07L151.40,147.24L149.12,147.50L148.96,149.77L132.11,149.77L132.20,144.62L148.96,144.53z"/></g><g id="hotspot.8" onmouseover="ShowHotSpot(evt,'8')" onmouseout="HideHotSpot(evt,'8')" onmousemove="ShowToolTip(evt,'8',&quot;3dp2451233&quot;)" opacity="0"><path style="fill:#00ff00;fill-rule:evenodd" d="M192.72,51.09L192.70,56.08L183.95,56.24L183.97,57.68L184.59,57.89L184.64,58.21L184.23,58.95L183.94,59.85L202.95,61.65L206.75,62.21L206.78,62.52L205.29,64.62L200.52,64.62L165.94,61.67L165.34,61.46L165.32,58.13L167.04,58.14L180.81,59.49L183.53,59.58L183.24,58.68L182.91,57.87L183.49,57.69L183.52,56.24L175.04,56.08L175.13,50.93L192.45,50.82zM161.11,57.59L160.84,61.21L159.45,61.13L158.86,60.92L158.93,57.32z"/></g><g id="hotspot.9" onmouseover="ShowHotSpot(evt,'9')" onmouseout="HideHotSpot(evt,'9')" onmousemove="ShowToolTip(evt,'9',&quot;3dp-3-044081&quot;)" opacity="0"><path style="fill:#00ff00;fill-rule:evenodd" d="M155.87,65.96L160.83,65.68L160.84,69.31L157.30,69.55L157.04,70.66L156.53,70.57L156.23,71.18L155.61,70.00L155.96,69.48zM150.60,75.66L150.74,77.95L153.10,78.03L153.01,78.22L150.74,78.38L150.58,80.65L134.54,80.65L134.63,75.50L150.33,75.39zM153.37,77.48L153.10,78.03L153.29,77.31z"/></g><g id="hotspot.10" onmouseover="ShowHotSpot(evt,'10')" onmouseout="HideHotSpot(evt,'10')" onmousemove="ShowToolTip(evt,'10',&quot;3dp-3-042782&quot;)" opacity="0"><path style="fill:#00ff00;fill-rule:evenodd" d="M127.11,39.48L127.38,39.75L127.53,63.92L128.43,63.63L129.27,63.28L129.27,64.97L127.87,64.30L127.53,64.33L127.35,67.95L126.27,184.86L123.22,185.88L122.21,185.87L119.43,184.59L119.70,120.24L120.33,45.54L120.51,39.78L121.03,39.49L122.67,39.24zM129.66,64.08L131.14,63.91L131.39,61.73L147.07,61.64L147.07,66.88L131.30,66.88L131.14,64.34z"/></g><g id="hotspot.11" onmouseover="ShowHotSpot(evt,'11')" onmouseout="HideHotSpot(evt,'11')" onmousemove="ShowToolTip(evt,'11',&quot;3dp-3-043638&quot;)" opacity="0"><path style="fill:#00ff00;fill-rule:evenodd" d="M158.95,44.09L158.94,57.15L158.68,65.80L155.87,65.96L155.87,69.31L157.49,69.50L158.68,69.47L157.59,132.23L155.32,132.10L154.81,132.40L154.61,133.28L154.60,135.65L157.33,136.16L157.32,147.60L156.70,175.87L154.00,176.52L153.81,172.62L150.48,171.36L150.87,139.42L149.49,140.06L149.49,138.31L150.87,138.95L151.53,110.22L151.80,109.95L154.90,109.81L154.89,105.66L154.37,105.37L151.64,105.13L151.83,82.98L152.43,49.02L153.16,48.40L155.65,48.19L155.97,47.97L156.14,43.82zM147.63,136.68L147.77,138.97L148.98,139.14L147.77,139.40L147.61,141.67L132.11,141.67L132.20,136.52L147.36,136.41z"/></g><g id="hotspot.12" onmouseover="ShowHotSpot(evt,'12')" onmouseout="HideHotSpot(evt,'12')" onmousemove="ShowToolTip(evt,'12',&quot;3dp-3-043231&quot;)" opacity="0"><path style="fill:#00ff00;fill-rule:evenodd" d="M98.20,73.90L96.47,74.06L96.47,77.41L98.20,77.57L98.20,114.13L96.47,114.29L96.49,117.62L98.19,118.08L98.19,153.27L96.49,153.73L96.57,156.96L98.22,157.74L98.11,173.98L97.03,174.25L95.75,174.25L94.68,173.70L94.44,102.97L93.06,103.61L93.06,101.86L94.44,102.50L94.67,43.64L98.20,43.55zM90.66,100.50L90.80,102.52L92.54,102.69L90.80,102.95L90.64,105.49L75.14,105.49L75.23,100.34L90.39,100.23z"/></g><g id="hotspot.13" onmouseover="ShowHotSpot(evt,'13')" onmouseout="HideHotSpot(evt,'13')" onmousemove="ShowToolTip(evt,'13',&quot;3dp-3-043233&quot;)" opacity="0"><path style="fill:#00ff00;fill-rule:evenodd" d="M225.93,90.24L225.91,95.23L210.41,95.23L210.25,92.97L209.32,92.71L210.25,92.52L210.50,90.08L225.66,89.97zM207.19,92.70L208.92,91.90L208.92,93.59zM203.66,64.88L205.29,64.62L206.63,62.69L206.73,96.03L206.18,161.09L205.58,161.30L203.45,161.32L203.13,161.10L203.13,139.95L204.57,139.50L204.60,136.95L204.33,136.68L203.39,136.54L203.39,106.73L204.85,106.57L204.85,103.76L203.47,103.52z"/></g><g id="hotspot.14" onmouseover="ShowHotSpot(evt,'14')" onmouseout="HideHotSpot(evt,'14')" onmousemove="ShowToolTip(evt,'14',&quot;3dp-3-044082&quot;)" opacity="0"><path style="fill:#00ff00;fill-rule:evenodd" d="M165.43,43.01L165.42,52.29L165.06,65.97L164.79,89.03L165.69,88.74L166.53,88.39L166.53,90.08L165.13,89.41L164.79,89.44L164.61,93.06L163.80,133.56L163.53,136.80L163.21,137.02L161.91,136.98L159.73,133.49L161.37,45.00L161.54,43.01L164.05,42.74zM184.35,87.00L184.33,91.99L168.83,91.99L168.67,89.45L166.93,89.19L168.67,89.02L168.92,86.84L184.08,86.73z"/></g><g id="hotspot.15" onmouseover="ShowHotSpot(evt,'15')" onmouseout="HideHotSpot(evt,'15')" onmousemove="ShowToolTip(evt,'15',&quot;3dp-3-042795&quot;)" opacity="0"><path style="fill:#00ff00;fill-rule:evenodd" d="M153.27,43.29L155.96,43.84L155.97,47.97L155.65,48.19L153.18,48.42L151.92,48.42L128.14,45.47L127.54,45.26L127.52,39.77L128.70,39.78zM147.09,98.07L147.07,103.06L139.40,103.22L139.43,104.40L140.01,104.58L139.66,105.75L151.12,105.19L154.37,105.37L154.89,105.66L154.90,109.81L126.99,111.98L126.98,106.73L138.09,105.95L138.71,105.65L138.39,105.12L138.33,104.60L138.95,104.39L138.97,103.22L131.57,103.06L131.66,97.91L146.82,97.80zM153.81,172.62L153.73,176.68L126.53,184.88L126.53,178.10L149.95,171.53L150.84,171.53z"/></g><g id="hotspot.16" onmouseover="ShowHotSpot(evt,'16')" onmouseout="HideHotSpot(evt,'16')" onmousemove="ShowToolTip(evt,'16',&quot;3dp-3-043234&quot;)" opacity="0"><path style="fill:#00ff00;fill-rule:evenodd" d="M204.60,136.95L204.57,139.50L204.25,139.72L174.75,145.88L174.26,146.15L174.89,147.50L174.26,147.78L174.23,149.50L181.65,149.64L181.92,149.91L181.90,154.90L166.40,154.90L166.49,149.75L173.80,149.50L173.78,147.79L173.16,147.58L173.21,147.07L173.57,146.19L157.24,149.52L157.32,147.60L157.50,146.16L160.25,145.40L161.27,144.80L198.27,137.52L200.42,137.53L202.65,137.04L202.88,136.74L204.34,136.68z"/></g></g></svg>
