<?xml version="1.0" encoding="UTF-8" standalone="no"?>
<svg xmlns="http://www.w3.org/2000/svg" xmlns:xlink="http://www.w3.org/1999/xlink" width="297.000mm" height="210.000mm" viewBox="0.000000 0.000000 297.000000 210.000000" stroke-linejoin="round" stroke-linecap="round" fill="none" fill-rule="evenodd"><desc>Composer Export</desc><script type="text/ecmascript"><![CDATA[
if(typeof(top) != "undefined")
{
	top.ShowPaper = ShowPaper;
}
function ShowHotSpot(evt,hotspotid)
{
	var svgDocument = evt.target.ownerDocument;
	var strId = "hotspot."+hotspotid;
	var hotspot = svgDocument.getElementById(strId);
	if(hotspot)
		hotspot.setAttribute("opacity",".5");
}
function HideHotSpot(evt,hotspotid)
{
	var svgDocument = evt.target.ownerDocument;
	var strId = "hotspot."+hotspotid;
	var hotspot = svgDocument.getElementById(strId);
	if(hotspot)
		hotspot.setAttribute("opacity","0");

	var toolTip = svgDocument.getElementById('ToolTip');
	if(toolTip)
		toolTip.setAttribute("visibility","hidden");
}
function ShowToolTip(evt,hotspotid,strTooltip)
{
	if(strTooltip=="")
	return;

	// change text
	var svgDocument = evt.target.ownerDocument;
	var tiptext = svgDocument.getElementById('ToolTipText');
	if( !tiptext )
	return;
	tiptext.firstChild.nodeValue = " " + strTooltip + "  " ;

	// show tooltip before, else some refresh issue

	var toolTip = svgDocument.getElementById('ToolTip');
	if(!toolTip)
	return;

	toolTip.setAttribute("visibility","visible");
	toolTip.setAttribute("opacity",".95");

	// move tooltip
	// get viewbox

	var root = svgDocument.documentElement;
	var vbox = (root.getAttribute("viewBox")).split(' ');
	var x0 = parseFloat(vbox[0]);
	var y0 = parseFloat(vbox[1]);
	var vboxW = parseFloat(vbox[2]);
	var vboxH = parseFloat(vbox[3]);

	// get default width of svg

	var strW = root.getAttribute("width");
	var svgW = parseFloat(strW);
	if(strW.indexOf('mm') != -1)
	svgW *= 3.779;

	var strH = root.getAttribute("height");
	var svgH = parseFloat(strH);
	if(strH.indexOf('mm') != -1)
	svgH *= 3.779;  	// 96 dpi  -> 96/25.4 = 3.779

	// update the viewbox / width / height if svg is embedded in html with zoom fit all
	var realx0 = x0;
	var realy0 = y0;
	var realvboxW = vboxW;
	var realvboxH = vboxH;
	var realsvgW = svgW;
	var realsvgH = svgH;

	if ((typeof(top) == "undefined") || (typeof(top.svgctl1) != "undefined")) // embedded in html
	{
		// get window size in pxl

		svgW = window.innerWidth;
		svgH = window.innerHeight;

		// calculate real viewbox

		realsvgW = svgW;
		realsvgH = svgH;
		if((svgW / svgH) > (vboxW / vboxH))
		{
			realvboxW = (vboxH * svgW) / svgH;
			realvboxH = vboxH;
			realx0 = x0 - (realvboxW - vboxW)/2 ;
		}
		else
		{
			realvboxH = (vboxW * svgH) / svgW;
			realvboxW = vboxW;
			realy0 = y0 - (realvboxH - vboxH)/2 ;
		}
	}

	// get user zoom/pan

	var newScale = root.currentScale;
	var translation = root.currentTranslate;

	// transform pxl to user unit

	var xPos = (((evt.clientX+10- translation.x)/newScale) * realvboxW)/realsvgW  + realx0 ;
	var yPos = (((evt.clientY+5- translation.y)/newScale) * realvboxH)/ realsvgH  + realy0 ;
	var scaleForWidth = ( (1 / newScale) * realvboxH) / realsvgH;

	// move tooltip

	toolTip.setAttribute("transform", "translate(" + xPos + "," + yPos + ")" );

	// resize tooltip

	var fontsize = 12;
	tiptext.setAttribute("font-size",fontsize*scaleForWidth);
	tiptext.setAttribute("y", fontsize*scaleForWidth);
	var tipBG = svgDocument.getElementById('ToolTipBG');
	var outline = tiptext.getBBox();
	if(tipBG)
	{
		tipBG.setAttribute("stroke-width", 1*scaleForWidth);
		tipBG.setAttribute("width", Number(outline.width) );
		tipBG.setAttribute("height", Number(outline.height) + fontsize*.5*scaleForWidth );
	}
	var ToolTipShadow = svgDocument.getElementById('ToolTipShadow');
	if(ToolTipShadow)
	{
		ToolTipShadow.setAttribute("width", Number(outline.width) );
		ToolTipShadow.setAttribute("height", Number(outline.height) + fontsize*.5*scaleForWidth );
		ToolTipShadow.setAttribute("x", 3*scaleForWidth);
		ToolTipShadow.setAttribute("y", 3*scaleForWidth);
	}
}
function ShowPaper()
{
  var svgDocument = getDocument();
  var paper = svgDocument.getElementById("paperID");
  if(paper)
  {
    paper.setAttribute("transform","scale(1)");
    paper.setAttribute("opacity","1");
    paper.setAttribute("visibility","visible");
  }
  var svg = svgDocument.getRootElement();
  if(svg)
  {
    svg.setAttribute("width","307.000mm");
    svg.setAttribute("height","220.000mm");
    svg.setAttribute("viewBox","-5.000000 -5.000000 307.000000 220.000000");
  }
}
]]></script><defs/><g><g id="Actor_.0"><g style="stroke:#000000;stroke-width:0.123"><path d="M275.18,153.41L275.19,153.42L275.06,153.37L274.90,153.32L274.58,154.24"/><path d="M274.90,153.32L274.96,153.29L275.16,153.36L275.17,153.39"/><path d="M275.18,153.41L275.19,153.42L274.87,154.34"/><path d="M275.19,153.42L275.16,153.36L275.16,153.36"/></g></g><g id="Actor_.1"><g style="stroke:#000000;stroke-width:0.123"><path d="M99.99,120.90L99.96,120.89L99.97,120.89L99.97,120.89L99.98,120.90L99.97,120.92L99.97,120.93L99.95,120.94L99.94,120.95L99.92,120.96L99.89,120.96L99.86,120.96L99.85,120.96L99.84,120.96L99.83,120.95L99.82,120.95L99.82,120.94L99.82,120.93L99.82,120.92L99.83,120.91L99.84,120.91L99.85,120.90L99.87,120.89L99.90,120.88L99.92,120.88L99.95,120.88L99.96,120.88L100.00,120.90L100.01,120.91L100.02,120.92L100.02,120.93L100.02,120.93L100.02,120.95L100.01,120.96L100.00,120.97L99.98,120.99L99.96,121.00L99.93,121.01L99.90,121.01L99.87,121.02L99.85,121.02L99.83,121.01L99.81,121.01L99.80,121.00L99.79,120.98L99.92,121.52"/><path d="M100.02,120.93L100.15,121.44"/><path d="M99.80,120.95L99.79,120.95L99.79,120.97L99.79,120.98L99.79,120.98"/><path d="M100.00,120.90L99.96,120.88"/><path d="M99.80,120.95L99.83,120.92"/></g></g><g id="Actor_.2"><g style="stroke:#000000;stroke-width:0.123"><path d="M139.02,105.77L139.02,105.77L139.02,105.78L139.01,105.78L138.99,105.78L138.96,105.78L138.91,105.78L138.87,105.77L138.83,105.75L138.82,105.75L138.81,105.74L138.81,105.74L138.81,105.74"/><path d="M138.81,105.74L138.83,105.72"/><path d="M139.02,105.77L138.99,105.73L138.98,105.73L138.97,105.72L138.94,105.71L138.89,105.71L138.86,105.71L138.85,105.71L138.85,105.71L138.85,105.71L138.85,105.72L138.87,105.72L138.89,105.73L138.92,105.74L138.95,105.74L138.97,105.74L138.99,105.74L138.99,105.74L138.99,105.73"/><path d="M138.84,105.72L138.85,105.71L138.84,105.71"/><path d="M138.71,106.36L138.81,105.74"/><path d="M138.91,106.40L139.02,105.78"/><path d="M138.81,105.74L138.85,105.71"/></g></g><g id="Actor_.3"><g style="stroke:#000000;stroke-width:0.123"><path d="M212.56,131.39L212.54,131.38L212.48,131.36L212.40,131.33L212.34,131.36L212.38,131.37L212.46,131.40L212.54,131.43L212.58,131.44L212.29,132.23"/><path d="M212.34,131.36L212.34,131.36"/><path d="M212.39,131.33L212.39,131.33"/><path d="M212.39,131.33L212.39,131.33"/><path d="M212.56,131.39L212.58,131.45"/><path d="M212.34,131.36L212.38,131.34"/><path d="M212.34,131.36L212.05,132.15"/><path d="M212.56,131.39L212.58,131.45L212.56,131.39"/></g></g><g id="Actor_.4"><g style="stroke:#000000;stroke-width:0.123"><path d="M144.71,108.38L144.88,107.71L144.89,107.72L144.91,107.72L144.94,107.74L144.99,107.75L145.06,107.76L145.08,107.76L145.09,107.76L144.92,108.45"/><path d="M144.89,107.71L144.88,107.71"/><path d="M144.91,107.69L144.93,107.69L144.88,107.71L144.89,107.71"/><path d="M145.09,107.76L145.07,107.72L145.06,107.72L145.03,107.70L144.98,107.69L144.94,107.68L144.93,107.68L144.93,107.69L144.93,107.69L144.95,107.70L145.00,107.71L145.05,107.72L145.06,107.72L145.07,107.72"/><path d="M144.93,107.68L144.92,107.69"/></g></g><g id="Actor_.5"><g style="stroke:#000000;stroke-width:0.123"><path d="M236.69,140.85L236.99,140.00L236.86,139.95L236.73,139.91L236.43,140.76"/><path d="M236.73,139.90L236.77,139.89"/><path d="M236.99,140.00L236.96,139.94L236.96,139.94"/><path d="M236.96,139.95L236.96,139.94L236.95,139.94L236.79,139.88L236.73,139.90L236.74,139.90"/><path d="M236.96,139.94L236.96,139.94"/></g></g><g id="Actor_.6"><g style="stroke:#000000;stroke-width:0.123"><path d="M154.50,111.82L154.76,111.13L154.73,111.12L154.66,111.09L154.55,111.05L154.60,111.03L154.66,111.05L154.73,111.08L154.74,111.08L154.75,111.10"/><path d="M154.30,111.75L154.55,111.05"/><path d="M154.75,111.12L154.76,111.13L154.74,111.08L154.75,111.11"/><path d="M154.76,111.13L154.75,111.12"/></g></g><g id="Actor_.7"><g style="stroke:#000000;stroke-width:0.123"><path d="M165.94,150.99L165.92,151.00L165.91,151.02L165.90,151.03L165.89,151.05L165.88,151.06L165.88,151.07L165.88,151.09L165.88,151.10L165.88,151.12L165.89,151.13L165.89,151.14L165.91,151.15L165.92,151.16L165.93,151.16L165.95,151.17L165.97,151.17L166.00,151.17L166.04,151.16L166.08,151.15L166.11,151.12L166.12,151.11L166.13,151.10L166.14,151.08L166.15,151.07L166.15,151.05L166.15,151.04L166.15,151.03L166.15,151.01L166.42,151.69"/><path d="M165.88,151.12L166.15,151.79"/><path d="M165.95,150.99L165.93,151.00L165.95,150.99L165.93,151.00L165.93,151.01L165.92,151.02L165.91,151.03L165.91,151.04L165.91,151.06L165.91,151.07L165.92,151.08L165.93,151.09L165.94,151.10L165.95,151.10L165.97,151.10L166.00,151.10L166.03,151.10L166.05,151.08L166.08,151.06L166.09,151.05L166.09,151.04L166.10,151.03L166.10,151.01L166.09,151.00L166.09,150.99L166.08,150.98L166.07,150.97L166.06,150.97L166.05,150.96L166.03,150.96L166.01,150.96L166.02,150.96L166.02,150.96"/><path d="M166.02,150.96L166.04,150.96L166.07,150.96L166.08,150.96L166.10,150.97L166.12,150.97L166.13,150.99L166.14,151.00L166.15,151.01"/><path d="M165.95,150.99L165.96,150.98L165.98,150.97L165.99,150.96L166.01,150.96"/><path d="M165.94,150.99L165.95,150.98"/></g></g><g id="Actor_.8"><g style="stroke:#000000;stroke-width:0.123"><path d="M231.55,180.13L231.53,180.15L231.50,180.16L231.48,180.17L231.45,180.18L231.43,180.19L231.40,180.19L231.37,180.19L231.34,180.18L231.32,180.17L231.29,180.16L231.27,180.14L231.26,180.12L231.25,180.10L231.24,180.08L231.24,180.06L231.25,180.03L231.26,180.01L231.27,180.00L231.28,179.98L231.31,179.96L231.34,179.94L231.37,179.93L231.41,179.92L231.45,179.92L231.49,179.93L231.52,179.94L231.54,179.96L231.55,179.96L231.56,179.98L231.57,179.99L231.58,180.01L231.58,180.02L231.58,180.03L231.58,180.05L231.58,180.07L231.58,180.08L231.57,180.10L231.56,180.11L231.55,180.13"/><path d="M231.58,180.02L231.74,180.64"/><path d="M231.50,180.06L231.49,180.07L231.48,180.08L231.46,180.09L231.44,180.10L231.42,180.11L231.40,180.11L231.39,180.11L231.36,180.11L231.34,180.10L231.33,180.09L231.32,180.08L231.30,180.07L231.30,180.06L231.29,180.04L231.29,180.02L231.29,180.01L231.30,179.99L231.31,179.97L231.33,179.96L231.35,179.94L231.37,179.93L231.40,179.93L231.42,179.93L231.44,179.93L231.46,179.94L231.48,179.95L231.50,179.96L231.51,179.98L231.52,180.00L231.52,180.02L231.51,180.04L231.50,180.06"/><path d="M231.25,180.09L231.41,180.71"/></g></g><g id="Actor_.9"><g style="stroke:#000000;stroke-width:0.123"><path d="M125.44,133.03L125.46,133.03L125.48,133.03L125.49,133.04L125.50,133.05L125.51,133.06L125.52,133.07L125.52,133.09L125.52,133.10L125.51,133.11L125.50,133.14L125.48,133.16L125.45,133.18L125.42,133.20L125.39,133.21L125.36,133.21L125.34,133.21L125.32,133.21L125.31,133.20L125.29,133.19L125.28,133.19L125.28,133.18L125.58,133.81"/><path d="M125.51,133.06L125.81,133.70"/><path d="M125.28,133.18L125.27,133.17L125.27,133.16L125.28,133.14L125.28,133.11L125.30,133.09"/><path d="M125.30,133.09L125.30,133.09"/><path d="M125.44,133.12L125.42,133.13L125.39,133.14L125.37,133.15L125.35,133.15L125.33,133.15L125.31,133.14L125.30,133.13L125.30,133.12L125.30,133.11L125.30,133.10L125.31,133.08L125.32,133.07L125.33,133.06L125.35,133.04L125.37,133.04L125.39,133.03L125.41,133.03L125.43,133.03L125.44,133.04L125.46,133.05L125.46,133.06L125.46,133.07L125.46,133.09L125.45,133.10L125.44,133.12"/><path d="M125.31,133.07L125.30,133.10"/><path d="M125.44,133.03L125.41,133.03"/></g></g><g id="Actor_.10"><g style="stroke:#000000;stroke-width:0.123"><path d="M171.99,118.00L172.26,117.28L172.25,117.27L172.21,117.26L172.10,117.21L172.05,117.20L171.78,117.92"/><path d="M172.09,117.18L172.05,117.20L172.10,117.18L172.17,117.20L172.24,117.23L172.26,117.28"/><path d="M172.10,117.18L172.09,117.18"/><path d="M172.05,117.20L172.07,117.19"/><path d="M172.26,117.28L172.26,117.26"/><path d="M172.24,117.23L172.24,117.23"/><path d="M172.26,117.28L172.26,117.26"/><path d="M172.10,117.18L172.09,117.18"/></g></g><g id="Actor_.11"><g style="stroke:#000000;stroke-width:0.123"><path d="M94.83,118.14L94.82,118.13L94.80,118.13L94.77,118.13L94.75,118.14L94.72,118.15L94.71,118.16L94.69,118.17L94.69,118.18L94.69,118.19L94.70,118.19L94.70,118.20L94.72,118.21L94.73,118.21L94.74,118.21L94.76,118.21L94.78,118.21L94.80,118.20L94.82,118.19L94.83,118.19L94.84,118.18L94.85,118.17L94.85,118.16L94.85,118.15L94.84,118.14L94.83,118.14L94.88,118.16L94.89,118.17L94.89,118.18L94.89,118.19L94.89,118.19L94.88,118.21L94.87,118.22L94.85,118.23L94.83,118.24L94.80,118.25L94.76,118.26L94.73,118.26L94.71,118.26L94.69,118.25L94.67,118.24L94.67,118.24L94.66,118.23L94.81,118.91"/><path d="M94.67,118.20L94.66,118.21L94.66,118.22L94.66,118.23"/><path d="M94.67,118.20L94.70,118.17"/><path d="M94.87,118.15L94.87,118.15"/><path d="M94.70,118.17L94.67,118.20L94.70,118.17"/><path d="M94.89,118.18L95.04,118.85"/></g></g><g id="Actor_.12"><g style="stroke:#000000;stroke-width:0.123"><path d="M107.94,125.52L108.25,126.14"/><path d="M108.10,125.38L108.12,125.38L108.14,125.39L108.15,125.40L108.16,125.41L108.47,126.02"/><path d="M108.16,125.41L108.17,125.42L108.17,125.44L108.16,125.45L108.16,125.47L108.15,125.48L108.13,125.50L108.12,125.51L108.10,125.52L108.08,125.53L108.06,125.54L108.04,125.55L108.01,125.55L107.99,125.55L107.97,125.55L107.96,125.54L107.95,125.53L107.94,125.53L107.94,125.51L107.94,125.50L107.94,125.49L107.94,125.48L107.95,125.47L107.97,125.43L107.96,125.45L107.96,125.46L107.96,125.48L107.97,125.49L107.99,125.49L108.00,125.50L108.03,125.49L108.05,125.49L108.07,125.48L108.09,125.46L108.10,125.45L108.11,125.44L108.11,125.43L108.11,125.42L108.11,125.41L108.11,125.40L108.11,125.39L108.10,125.38L108.09,125.38L108.07,125.38L108.10,125.38"/><path d="M107.95,125.46L107.95,125.45"/><path d="M107.97,125.43L107.98,125.42L107.99,125.41L108.01,125.39L108.04,125.38L108.06,125.38L108.07,125.38"/><path d="M107.97,125.43L107.97,125.44"/><path d="M107.95,125.46L107.97,125.44"/><path d="M107.97,125.43L107.97,125.43"/></g></g><g id="Actor_.13"><g style="stroke:#000000;stroke-width:0.123"><path d="M183.83,84.61L183.83,84.55L191.80,82.88L192.57,83.08L192.61,83.09L192.74,83.25L193.12,83.34L193.11,83.41L185.29,85.07L184.91,84.97L184.61,84.82L183.83,84.61"/><path d="M183.83,84.55L184.61,84.75L184.89,84.89L185.29,85.00L193.12,83.34"/><path d="M185.29,85.00L185.29,85.07"/></g></g><g id="Actor_.14"><g style="stroke:#000000;stroke-width:0.123"><path d="M158.36,92.22L158.22,92.16L157.43,91.92L157.43,91.85L158.21,92.08L158.51,92.23L158.91,92.35L158.91,92.42L158.53,92.31L158.36,92.22"/><path d="M158.91,92.35L167.97,89.54L167.60,89.43L167.46,89.26L167.43,89.24L166.65,89.01L157.43,91.85"/><path d="M158.91,92.42L167.97,89.61L167.97,89.54"/></g></g><g id="Actor_.15"><g style="stroke:#000000;stroke-width:0.123"><path d="M23.10,92.28L22.77,94.04L23.27,94.36L228.91,190.18"/><path d="M23.02,92.58L23.07,92.36"/><path d="M23.18,92.07L24.38,90.18L25.97,88.89L31.03,87.32L30.41,87.47"/><path d="M27.52,88.27L27.06,88.41"/><path d="M31.03,87.32L31.65,87.17L31.03,87.32"/><path d="M39.78,85.36L31.84,87.22L103.37,117.58L106.76,116.63L111.10,118.37L106.76,116.66L101.96,118.07L103.37,117.58"/><path d="M31.84,87.22L31.65,87.17"/><path d="M40.92,85.10L39.90,85.33L40.92,85.10"/><path d="M40.97,85.11L42.11,85.00L41.30,85.16L249.63,169.12"/><path d="M42.11,85.00L50.86,83.33"/><path d="M41.22,85.18L41.19,85.17"/><path d="M48.38,86.64L47.27,86.88L49.87,87.92L48.76,87.48"/><path d="M47.11,86.82L46.99,87.06"/><path d="M46.97,86.72L46.98,86.88"/><path d="M47.42,86.84L47.35,86.86"/><path d="M50.98,85.75L51.99,85.56L46.99,86.67"/><path d="M48.23,86.67L52.09,85.89L51.56,86.00"/><path d="M49.87,87.92L53.19,89.25L52.09,88.81"/><path d="M50.93,83.32L50.90,83.33"/><path d="M52.09,85.89L53.86,85.56"/><path d="M53.19,82.94L53.49,82.87L50.98,83.31"/><path d="M53.19,89.25L55.41,90.13L54.30,89.69"/><path d="M55.41,90.13L58.38,90.94L68.50,88.90L58.47,84.98L53.19,85.68L53.75,85.58"/><path d="M60.95,85.51L62.06,85.93L58.10,84.53L52.09,85.54"/><path d="M53.70,82.85L54.30,82.64L53.88,82.71"/><path d="M55.00,82.52L54.30,82.64L55.27,82.60"/><path d="M130.77,110.86L131.88,111.27L55.24,82.59"/><path d="M55.41,82.58L57.56,82.22L56.52,82.41"/><path d="M57.63,82.23L58.74,82.06L57.63,82.23"/><path d="M58.10,84.53L57.90,84.52"/><path d="M58.43,84.97L58.36,84.96"/><path d="M58.79,82.05L59.84,81.90L58.74,82.06"/><path d="M59.84,81.90L63.17,81.32L62.46,81.41"/><path d="M62.06,90.22L63.17,89.99"/><path d="M62.06,85.93L64.06,86.67L63.17,86.34"/><path d="M62.29,81.55L62.06,81.58"/><path d="M63.17,81.32L63.49,81.25L63.17,81.32"/><path d="M64.28,86.76L67.60,88.01L66.49,87.60"/><path d="M63.54,81.27L137.42,107.73L133.71,108.86L137.42,110.41L136.30,110.00"/><path d="M66.98,81.04L67.29,81.09L63.75,81.32"/><path d="M66.46,81.02L66.09,81.04"/><path d="M67.60,88.01L68.98,88.57L68.71,88.84"/><path d="M67.29,81.09L67.51,81.14"/><path d="M67.60,81.16L73.08,83.08"/><path d="M66.88,81.03L66.53,81.02"/><path d="M69.04,88.96L69.05,89.04"/><path d="M69.04,88.99L68.97,88.69"/><path d="M138.72,106.25L72.31,82.81"/><path d="M153.81,140.27L152.70,140.55L101.49,118.35L152.70,140.58L155.33,139.64"/><path d="M102.38,119.48L102.67,119.60L102.38,119.48"/><path d="M102.65,119.43L102.40,119.59L102.65,119.43"/><path d="M103.46,117.68L103.29,117.61"/><path d="M109.30,119.32L150.08,136.60L153.12,135.93L158.36,138.11L153.12,135.90L150.08,136.57L109.40,119.39L111.13,118.60L109.30,119.27"/><path d="M110.03,115.61L161.59,136.79L163.88,136.07L161.49,136.79L110.13,115.71L111.83,114.93L110.03,115.57"/><path d="M111.20,118.49L111.18,118.53"/><path d="M111.93,114.93L113.04,115.04L130.76,122.22L112.46,114.78L111.93,114.93"/><path d="M116.83,125.66L117.08,125.81L116.83,125.66"/><path d="M116.74,114.91L116.74,114.91"/><path d="M127.96,111.49L128.25,111.60L127.96,111.49"/><path d="M128.74,110.10L129.66,109.87L128.83,110.08"/><path d="M129.66,109.87L130.75,109.68"/><path d="M130.76,122.22L136.24,124.44L130.76,122.22"/><path d="M131.03,120.65L131.45,120.59L131.03,120.65"/><path d="M131.88,111.27L135.20,112.52L134.09,112.10"/><path d="M131.88,110.07L130.93,109.72L135.20,111.30L134.09,110.89"/><path d="M130.93,109.72L130.85,109.70"/><path d="M132.50,132.39L132.73,132.57L132.50,132.39"/><path d="M132.37,132.50L132.73,132.60L132.37,132.50"/><path d="M133.59,108.92L133.63,108.89"/><path d="M135.20,112.52L137.39,113.33L136.31,112.93"/><path d="M135.20,111.30L138.53,112.54L137.42,112.12"/><path d="M135.67,108.40L136.31,108.65L135.63,108.41"/><path d="M136.31,108.65L137.42,109.06L136.31,108.65"/><path d="M136.29,108.23L136.38,108.11"/><path d="M164.02,135.86L136.31,124.47L164.00,135.98"/><path d="M137.42,109.06L140.74,110.26L139.63,109.86"/><path d="M137.59,107.82L136.41,108.09"/><path d="M180.52,129.42L137.42,113.35L208.85,139.97"/><path d="M138.53,112.54L182.41,128.79L181.01,129.54"/><path d="M141.85,110.81L142.76,111.11L140.06,110.21L137.42,110.41"/><path d="M137.62,107.83L141.85,109.14L140.74,108.74"/><path d="M137.69,107.91L137.49,107.85"/><path d="M139.63,112.95L182.56,128.89"/><path d="M144.72,108.36L138.93,106.32"/><path d="M140.74,110.26L144.07,111.46L142.96,111.06"/><path d="M140.55,108.37L140.84,108.35L140.55,108.37"/><path d="M142.57,116.98L142.83,117.08L142.57,116.98"/><path d="M142.96,111.21L146.28,112.42L145.18,112.01"/><path d="M144.07,109.93L145.18,110.33L141.85,109.14"/><path d="M144.07,111.46L146.23,112.22L145.18,111.86"/><path d="M154.30,111.75L144.92,108.44"/><path d="M145.18,110.33L148.50,111.52L146.28,110.72"/><path d="M147.03,126.86L147.03,126.86"/><path d="M146.28,112.42L181.18,125.07L148.50,113.22"/><path d="M146.28,112.27L149.61,113.47L148.50,113.07"/><path d="M148.50,111.52L150.55,112.22L149.61,111.91"/><path d="M149.89,139.86L149.63,139.95L149.89,139.86"/><path d="M149.70,139.83L149.70,139.83"/><path d="M151.82,114.27L152.93,114.67L149.61,113.47"/><path d="M150.72,112.31L155.06,113.87L152.93,113.10"/><path d="M155.23,139.64L153.84,140.25"/><path d="M152.93,114.67L156.26,115.88L155.15,115.48"/><path d="M155.15,113.63L155.44,113.67L155.12,113.55"/><path d="M155.15,113.61L155.12,113.61"/><path d="M189.89,126.55L155.15,113.87L189.94,126.56"/><path d="M171.77,117.92L154.40,111.78"/><path d="M239.83,175.58L155.28,139.61"/><path d="M155.47,139.69L158.37,138.43L155.43,139.67"/><path d="M156.26,115.88L158.44,116.67L157.37,116.28"/><path d="M158.34,122.92L158.69,123.03L158.34,122.92"/><path d="M158.47,116.68L159.58,117.08L158.47,116.68"/><path d="M159.58,117.08L161.80,117.88L160.69,117.48"/><path d="M161.80,117.88L165.12,119.09L164.01,118.69"/><path d="M164.26,133.77L164.26,133.77"/><path d="M164.10,133.82L164.42,133.82L164.10,133.82"/><path d="M165.12,119.09L168.45,120.29L167.34,119.89"/><path d="M168.45,120.29L171.77,121.49L170.66,121.09"/><path d="M171.20,119.19L170.89,119.25L171.20,119.19"/><path d="M171.77,121.49L173.78,122.22L172.88,121.90"/><path d="M190.92,124.69L171.90,117.97"/><path d="M173.99,122.30L177.31,123.50L176.21,123.10"/><path d="M175.54,129.47L175.54,129.47"/><path d="M175.76,129.60L175.76,129.60"/><path d="M177.31,123.50L180.64,124.71L179.53,124.30"/><path d="M185.83,127.90L179.93,125.96L181.23,125.30L179.88,125.70L185.25,127.87L188.36,127.04L185.87,127.88"/><path d="M180.93,129.53L182.58,128.93"/><path d="M180.64,124.71L183.96,125.91L182.85,125.51"/><path d="M183.96,125.91L186.13,126.67L185.07,126.31"/><path d="M186.18,126.71L187.73,127.25"/><path d="M187.29,127.11L187.69,127.26"/><path d="M271.91,156.06L189.73,126.49L188.51,126.87"/><path d="M188.31,125.29L188.31,125.29"/><path d="M189.68,126.50L188.56,126.86"/><path d="M191.00,133.33L208.83,140.00"/><path d="M276.73,155.59L275.54,154.58L191.08,124.74"/><path d="M263.69,160.55L208.34,139.78"/><path d="M229.20,190.05L228.77,190.25"/><path d="M228.90,190.12L228.97,190.16"/><path d="M229.36,187.53L229.52,187.07"/><path d="M230.09,189.46L230.18,189.03L229.90,190.38L229.40,190.14"/><path d="M230.22,188.89L230.49,188.00L230.22,188.89"/><path d="M230.15,186.62L229.93,187.19"/><path d="M230.55,187.78L231.45,185.56L230.96,186.67"/><path d="M231.62,185.24L231.45,185.56L232.64,183.33L231.62,185.24"/><path d="M232.72,183.20L233.38,182.22L232.72,183.20"/><path d="M277.73,157.78L276.84,155.72L275.42,155.38L269.29,158.58L246.82,172.22L236.05,179.50L233.49,182.10L236.05,179.47L250.09,170.05L263.27,161.96L274.76,155.59L275.91,155.29L277.02,155.86L277.70,157.47L277.74,159.79L271.28,157.49"/><path d="M235.34,178.76L235.26,178.81"/><path d="M271.25,157.51L276.99,159.59L276.96,157.16L276.04,155.37"/><path d="M274.17,154.96L274.12,154.99"/><path d="M275.36,154.56L273.73,153.98"/><path d="M276.25,155.35L275.78,155.18"/><path d="M277.00,159.56L276.99,159.59"/><path d="M277.03,157.18L276.98,157.11"/><path d="M277.03,157.35L277.09,157.52"/><path d="M276.07,155.36L276.12,155.40"/><path d="M277.08,159.52L277.12,158.84"/><path d="M277.76,158.08L277.79,158.89"/></g></g><g id="Actor_.16"><g style="stroke:#000000;stroke-width:0.123"><path d="M144.65,141.51L144.68,141.51L144.69,141.52L144.70,141.52L144.72,141.53L144.73,141.54L144.74,141.55L144.74,141.56L144.74,141.58L144.74,141.60L144.74,141.61L144.73,141.63L144.71,141.65L144.68,141.67L144.65,141.69L144.62,141.70L144.58,141.71L144.55,141.71L144.54,141.70L144.52,141.70L144.51,141.69L144.50,141.68L144.49,141.67L144.78,142.32"/><path d="M144.52,141.56L144.50,141.59L144.49,141.60L144.49,141.62L144.48,141.63L144.48,141.64L144.48,141.65L144.49,141.67"/><path d="M144.52,141.57L144.54,141.54L144.56,141.53L144.59,141.52L144.62,141.51L144.65,141.51L144.66,141.52L144.67,141.52L144.68,141.53L144.68,141.54L144.69,141.55L144.69,141.56L144.68,141.58L144.68,141.59L144.66,141.61L144.65,141.62L144.63,141.63L144.61,141.64L144.58,141.64L144.57,141.65L144.55,141.64L144.53,141.64L144.52,141.63L144.51,141.61L144.51,141.60L144.51,141.58L144.52,141.57L144.54,141.55"/><path d="M144.64,141.51L144.63,141.51"/><path d="M144.74,141.55L145.03,142.21"/><path d="M144.64,141.51L144.65,141.51"/><path d="M144.51,141.58L144.53,141.55L144.51,141.58L144.51,141.58"/></g></g><g id="Actor_.17"><g style="stroke:#000000;stroke-width:0.123"><path d="M71.28,83.06L71.31,83.76"/><path d="M71.46,83.06L71.49,83.76"/><path d="M71.45,83.05L71.46,83.05L71.46,83.06L71.45,83.06L71.44,83.07L71.43,83.07L71.41,83.08L71.37,83.08L71.33,83.08L71.31,83.08L71.30,83.07L71.29,83.07L71.28,83.07L71.28,83.06L71.28,83.05"/><path d="M71.28,83.06L71.31,83.03L71.31,83.03L71.31,83.04L71.31,83.04L71.32,83.04L71.34,83.05L71.36,83.05L71.38,83.05L71.41,83.04L71.42,83.04L71.43,83.03L71.43,83.03L71.43,83.03L71.42,83.02L71.41,83.02L71.40,83.02L71.37,83.02L71.35,83.02L71.33,83.02L71.32,83.02L71.31,83.03"/><path d="M71.45,83.05L71.42,83.03"/></g></g><g id="Actor_.18"><g style="stroke:#000000;stroke-width:0.123"><path d="M190.92,124.68L191.20,123.93L191.22,123.93L191.26,123.94L191.36,123.98L191.43,124.01L191.15,124.77"/><path d="M191.21,123.92L191.20,123.92L191.25,123.90L191.30,123.92L191.38,123.95L191.41,123.96L191.43,124.01"/><path d="M191.20,123.92L191.23,123.91"/><path d="M191.25,123.90L191.25,123.90"/><path d="M191.25,123.90L191.25,123.91"/><path d="M191.41,123.97L191.41,123.96L191.41,123.96"/></g></g><g id="Actor_.19"><g style="stroke:#000000;stroke-width:0.123"><path d="M191.08,162.25L191.08,162.23L191.08,162.21L191.08,162.19L191.09,162.16L191.11,162.15L191.13,162.12L191.16,162.11L191.19,162.10L191.22,162.09L191.24,162.09L191.28,162.09L191.30,162.09L191.32,162.10L191.34,162.12L191.36,162.13L191.37,162.15L191.38,162.17L191.38,162.19L191.37,162.22L191.36,162.24L191.34,162.26L191.32,162.28L191.30,162.29L191.27,162.31L191.23,162.32L191.21,162.32L191.18,162.32L191.15,162.32L191.13,162.31L191.11,162.29L191.09,162.28L191.08,162.25L191.32,162.95"/><path d="M191.28,162.22L191.25,162.24L191.23,162.24L191.22,162.25L191.20,162.25L191.18,162.25L191.17,162.25L191.15,162.24L191.13,162.23L191.12,162.22L191.12,162.21L191.11,162.20L191.11,162.19L191.11,162.17L191.12,162.16L191.13,162.14L191.14,162.13L191.16,162.11L191.18,162.10L191.20,162.09L191.23,162.09L191.25,162.09L191.27,162.10L191.29,162.11L191.30,162.12L191.31,162.13L191.32,162.16L191.31,162.17L191.31,162.19L191.29,162.21L191.28,162.22"/><path d="M191.37,162.15L191.61,162.85"/></g></g><g id="Actor_.20"><g style="stroke:#000000;stroke-width:0.123"><path d="M137.09,68.56L137.00,68.59L136.97,68.59L136.70,68.52L136.70,68.46L136.98,68.54L137.08,68.50L137.10,68.50L137.68,68.65L137.68,68.71L137.09,68.56"/><path d="M136.70,68.46L139.86,68.01L139.85,68.07L139.85,68.11"/><path d="M137.08,68.50L139.83,68.11"/><path d="M137.00,68.59L137.14,68.57"/><path d="M137.68,68.65L139.79,68.35"/><path d="M137.68,68.71L139.79,68.40"/><path d="M139.86,68.01L139.84,68.11"/><path d="M139.83,68.11L139.83,68.11"/></g></g><g id="Actor_.21"><g style="stroke:#000000;stroke-width:0.123"><path d="M101.17,75.08L101.45,75.16L101.54,75.14L102.12,75.31L102.12,75.37L101.55,75.20L101.45,75.22L101.18,75.14L101.17,75.08L110.07,73.02L110.34,73.10"/><path d="M101.52,75.14L110.57,73.05L111.18,73.21L111.18,73.27L102.12,75.37"/><path d="M101.55,75.20L101.47,75.22"/><path d="M102.12,75.31L111.18,73.21"/></g></g><g id="Actor_.22"><g style="stroke:#000000;stroke-width:0.123"><path d="M114.45,72.53L170.04,88.13L172.66,88.27L114.67,72.08L114.45,72.53L169.89,88.16"/><path d="M172.65,88.34L172.72,88.27"/></g></g><g id="Actor_.23"><g style="stroke:#000000;stroke-width:0.123"><path d="M157.08,93.00L157.07,93.07L153.15,94.28L153.15,94.21L157.08,93.00L156.70,92.88L156.56,92.70L156.53,92.68L155.75,92.44L153.15,93.24"/><path d="M153.15,94.21L153.15,93.73"/><path d="M153.15,94.28L153.15,94.05L153.13,94.03L153.13,93.94"/><path d="M153.15,93.70L153.15,93.62"/><path d="M153.15,93.70L153.15,93.37"/><path d="M153.15,93.72L153.15,93.72"/></g></g><g id="Actor_.24"><g style="stroke:#000000;stroke-width:0.123"><path d="M50.76,96.25L50.76,96.24L50.79,96.21L50.79,96.22L50.79,96.22L50.79,96.22L50.80,96.23L50.82,96.23L50.86,96.23L50.89,96.23L50.91,96.22L50.92,96.22L50.93,96.21L50.93,96.21L50.92,96.20L50.96,96.23L50.96,96.23L50.96,96.24L50.96,96.24L50.96,96.25L50.95,96.26L50.93,96.26L50.90,96.27L50.86,96.27L50.83,96.27L50.79,96.27L50.78,96.27L50.77,96.26L50.76,96.26L50.76,96.25L50.81,97.04"/><path d="M50.76,96.25L50.76,96.25"/><path d="M50.76,96.24L50.79,96.21L50.76,96.24L50.76,96.24"/><path d="M50.96,96.23L50.95,96.22"/><path d="M50.79,96.21L50.80,96.20L50.82,96.20L50.84,96.20L50.86,96.19L50.89,96.19L50.90,96.20L50.92,96.20L50.93,96.21"/><path d="M50.96,96.24L51.01,97.02"/><path d="M50.96,96.23L50.95,96.22"/><path d="M50.92,96.20L50.94,96.21"/></g></g><g id="Actor_.25"><g style="stroke:#000000;stroke-width:0.123"><path d="M122.93,70.50L180.96,86.12L180.81,85.29L125.23,70.49L122.93,70.50L181.00,86.06"/><path d="M180.92,85.66L180.92,85.67"/></g></g><g id="Actor_.26"><g style="stroke:#000000;stroke-width:0.123"><path d="M41.03,85.69L41.03,85.69L41.03,85.70L41.02,85.70L41.02,85.71L40.99,85.72L40.95,85.72L40.91,85.72L40.88,85.72L40.85,85.72L40.84,85.71L40.84,85.71"/><path d="M40.84,85.71L40.84,85.70L40.84,85.70"/><path d="M40.97,85.68L40.93,85.69L40.90,85.69L40.88,85.68L40.87,85.68L40.87,85.67L40.88,85.67L40.89,85.66L40.91,85.66L40.93,85.66L40.95,85.66L40.97,85.66L40.99,85.66L41.00,85.67L41.00,85.67L40.99,85.68L40.98,85.68L40.97,85.68"/><path d="M40.84,85.71L40.91,86.58"/><path d="M41.00,85.67L41.00,85.67L41.00,85.66L41.00,85.67"/><path d="M41.00,85.67L41.03,85.69"/><path d="M41.00,85.67L41.00,85.66"/><path d="M40.84,85.70L40.87,85.67"/><path d="M41.02,85.68L41.01,85.68"/><path d="M41.02,85.68L41.02,85.68"/><path d="M41.03,85.70L41.09,86.57"/></g></g><g id="Actor_.27"><g style="stroke:#000000;stroke-width:0.123"><path d="M36.15,89.90L36.15,89.90L36.16,89.91L36.15,89.91L36.14,89.92L36.11,89.93L36.07,89.93L36.03,89.94L35.99,89.93L35.97,89.93L35.96,89.92L35.96,89.92L36.02,90.67"/><path d="M36.16,89.90L36.21,90.65"/><path d="M35.96,89.92L35.96,89.91L35.96,89.91"/><path d="M36.15,89.90L36.15,89.90"/><path d="M36.09,89.89L36.05,89.90L36.02,89.90L36.00,89.89L35.99,89.89L35.99,89.88L35.99,89.88L36.01,89.87L36.03,89.87L36.05,89.86L36.08,89.86L36.10,89.87L36.11,89.87L36.12,89.87L36.12,89.88L36.12,89.88L36.11,89.89L36.10,89.89L36.09,89.89"/><path d="M36.12,89.87L36.15,89.89"/><path d="M35.96,89.92L35.96,89.92"/><path d="M35.96,89.91L35.99,89.88"/><path d="M36.12,89.88L36.12,89.87L36.15,89.90"/></g></g><g id="Actor_.28"><g style="stroke:#000000;stroke-width:0.123"><path d="M193.92,82.85L193.14,82.65L193.14,82.72L193.91,82.91L194.21,83.06L194.58,83.15L194.59,83.09L194.19,82.99L193.92,82.85"/><path d="M196.68,82.29L196.61,82.28L195.22,82.22L193.14,82.65"/><path d="M194.59,83.09L197.70,82.43L197.04,82.40L196.70,82.30"/><path d="M194.58,83.15L197.70,82.49L197.70,82.43"/></g></g><g id="Actor_.29"><g style="stroke:#000000;stroke-width:0.123"><path d="M169.76,89.12L169.75,89.19L169.38,89.08L169.06,88.92L168.28,88.69L168.28,88.62L169.06,88.86L169.36,89.00L169.76,89.12L172.66,88.27L172.66,88.28"/><path d="M168.28,88.62L169.98,88.13L171.48,88.15L171.55,88.16"/><path d="M169.75,89.19L172.65,88.34"/><path d="M172.66,88.27L171.97,88.26"/></g></g><g id="Actor_.30"><g style="stroke:#000000;stroke-width:0.123"><path d="M180.91,85.65L180.81,85.28L182.39,84.93L183.16,85.16L183.19,85.17L183.33,85.34L183.71,85.45L183.70,85.52L180.99,86.11"/><path d="M180.99,86.05L180.94,85.88"/><path d="M180.99,86.05L183.71,85.45"/><path d="M180.91,85.65L180.91,85.65"/><path d="M180.80,85.29L180.81,85.28"/></g></g><g id="Actor_.31"><g style="stroke:#000000;stroke-width:0.123"><path d="M125.94,70.12L125.71,70.07L122.98,70.50L123.54,70.52"/><path d="M123.98,70.44L125.23,70.48L125.23,70.49"/><path d="M123.96,70.44L126.20,70.08L126.23,70.08L126.82,70.22L126.81,70.28L125.34,70.52"/><path d="M125.23,70.48L126.82,70.22"/></g></g><g id="Actor_.32"><g style="stroke:#000000;stroke-width:0.123"><path d="M153.15,94.03L153.15,94.31L95.58,76.53L96.25,76.47"/><path d="M153.15,94.31L153.15,94.38L95.58,76.53"/><path d="M96.50,76.35L97.93,76.32L153.15,93.22L153.15,93.71"/><path d="M153.15,93.76L153.15,93.70"/><path d="M153.15,94.38L153.15,94.28"/><path d="M153.15,93.23L153.15,93.22"/></g></g><g id="Actor_.33"><g style="stroke:#000000;stroke-width:0.123"><path d="M111.80,72.73L111.81,72.79L112.08,72.86L112.10,72.86L112.18,72.84L112.19,72.84L112.76,72.98L112.76,72.92L112.19,72.78L112.16,72.78L112.09,72.80L111.80,72.73L114.67,72.09"/><path d="M112.16,72.78L114.57,72.24"/><path d="M112.10,72.86L112.21,72.84"/><path d="M112.76,72.92L114.44,72.55L114.57,72.24"/><path d="M112.76,72.98L114.44,72.61L114.44,72.55"/><path d="M114.67,72.09L114.62,72.23"/><path d="M114.44,72.61L114.45,72.59"/></g></g><g id="Actor_.34"><g style="stroke:#000000;stroke-width:0.123"><path d="M86.80,88.57L86.80,88.57L86.83,88.54L86.83,88.55L86.83,88.55L86.83,88.55L86.84,88.56L86.86,88.56L86.89,88.56L86.92,88.56L86.94,88.55L86.95,88.55L86.95,88.54L86.95,88.54L86.98,88.56L86.98,88.57L86.98,88.58L86.98,88.58L86.97,88.58L86.96,88.59L86.93,88.60L86.89,88.60L86.86,88.60L86.83,88.59L86.81,88.59L86.80,88.59L86.80,88.58L86.80,88.58L86.82,89.30"/><path d="M86.98,88.57L87.01,89.30"/><path d="M86.80,88.58L86.80,88.57"/><path d="M86.98,88.56L86.95,88.54L86.94,88.53L86.92,88.53L86.90,88.53L86.86,88.53L86.84,88.53L86.83,88.54"/><path d="M86.95,88.54L86.95,88.54"/><path d="M86.95,88.54L86.98,88.56"/></g></g><g id="Actor_.35"><g style="stroke:#000000;stroke-width:0.123"><path d="M139.79,68.35L195.25,82.22L196.68,82.29L139.83,68.11L139.82,68.18L139.79,68.35L140.74,68.64L195.09,82.24"/><path d="M196.73,82.31L196.68,82.29"/><path d="M196.80,82.33L197.08,82.40"/><path d="M197.52,82.53L197.68,82.55L197.67,82.61L197.32,82.57"/><path d="M197.68,82.55L197.57,82.52"/></g></g><g id="Actor_.36"><g style="stroke:#000000;stroke-width:0.123"><path d="M127.32,69.77L127.60,69.85L127.71,69.82L128.29,69.97L128.29,70.03L127.71,69.87L127.59,69.90L127.31,69.83L127.32,69.77L135.20,68.64L135.44,68.70"/><path d="M128.29,70.03L136.31,68.87L136.32,68.81L135.70,68.66L127.69,69.82"/><path d="M128.29,69.97L136.32,68.81"/><path d="M127.62,69.90L127.75,69.88"/></g></g><g id="Actor_.37"><g style="stroke:#000000;stroke-width:0.123"><path d="M96.30,76.46L96.21,76.48L95.57,76.48L95.56,76.42L96.20,76.42L96.53,76.34"/><path d="M95.56,76.42L99.40,75.53L99.66,75.61"/><path d="M96.26,76.47L96.25,76.47"/><path d="M96.62,76.32L97.95,76.32L97.95,76.33"/><path d="M98.05,76.36L100.49,75.79L100.49,75.73L99.92,75.56L99.89,75.56L96.57,76.33"/><path d="M97.95,76.32L100.49,75.73"/></g></g><g><g/></g><g><g><path style="stroke:#000000;stroke-width:0.208;stroke-dasharray:2.3 2.3" d="M144.98,121.67L145.78,78.56"/></g></g><g id="PMI35.0"><g><path style="stroke:#000000;stroke-width:0.281" d="M67.56,76.84L67.42,79.02"/></g><g><path style="fill:#000000" d="M66.43,78.96L68.43,79.09L67.30,81.02z"/></g><g><path style="fill:#ffffff" d="M59.58,77.48L75.56,77.48L75.56,72.40L59.58,72.40z"/><path style="stroke:#000000;stroke-width:0.281;stroke-opacity:0.98" d="M59.58,77.48L75.56,77.48L75.56,72.40L59.58,72.40z"/><text xml:space="preserve" fill="#000000" stroke-width="0" x="60.21" y="76.05" font-size="3.05" opacity="1.00" font-family="Microsoft Sans Serif">1003CDZ0</text></g></g><g id="PMI8.0"><g><path style="stroke:#000000;stroke-width:0.281" d="M178.32,108.81L175.15,108.81L170.78,91.13"/></g><g><path style="fill:#000000" d="M171.75,90.90L169.81,91.38L170.30,89.20z"/></g><g><path style="fill:#ffffff" d="M177.68,111.35L193.50,111.35L193.50,106.27L177.68,106.27z"/><path style="stroke:#000000;stroke-width:0.281;stroke-opacity:0.98" d="M177.68,111.35L193.50,111.35L193.50,106.27L177.68,106.27z"/><text xml:space="preserve" fill="#000000" stroke-width="0" x="178.32" y="109.92" font-size="3.04" opacity="1.00" font-family="Microsoft Sans Serif">1003CAT0</text></g></g><g id="PMI6.0"><g><path style="stroke:#000000;stroke-width:0.281" d="M162.69,69.73L159.51,69.73L157.25,77.20"/></g><g><path style="fill:#000000" d="M156.30,76.91L158.21,77.49L156.67,79.11z"/></g><g><path style="fill:#ffffff" d="M162.05,72.27L178.04,72.27L178.04,67.19L162.05,67.19z"/><path style="stroke:#000000;stroke-width:0.281;stroke-opacity:0.98" d="M162.05,72.27L178.04,72.27L178.04,67.19L162.05,67.19z"/><text xml:space="preserve" fill="#000000" stroke-width="0" x="162.68" y="70.84" font-size="3.05" opacity="1.00" font-family="Microsoft Sans Serif">1003CAV0</text></g></g><g id="PMI2.0"><g><path style="stroke:#000000;stroke-width:0.281" d="M199.74,89.70L196.57,89.70L195.29,84.33"/></g><g><path style="fill:#000000" d="M196.26,84.10L194.31,84.56L194.82,82.38z"/></g><g><path style="fill:#ffffff" d="M199.10,92.24L214.75,92.24L214.75,87.17L199.10,87.17z"/><path style="stroke:#000000;stroke-width:0.281;stroke-opacity:0.98" d="M199.10,92.24L214.75,92.24L214.75,87.17L199.10,87.17z"/><text xml:space="preserve" fill="#000000" stroke-width="0" x="199.74" y="90.82" font-size="3.04" opacity="1.00" font-family="Microsoft Sans Serif">1003CB00</text></g></g><g id="PMI5.0"><g><path style="stroke:#000000;stroke-width:0.281" d="M195.11,96.65L191.94,96.65L189.55,86.24"/></g><g><path style="fill:#000000" d="M190.52,86.02L188.57,86.46L189.10,84.29z"/></g><g><path style="fill:#ffffff" d="M194.47,99.19L211.32,99.19L211.32,94.11L194.47,94.11z"/><path style="stroke:#000000;stroke-width:0.281;stroke-opacity:0.98" d="M194.47,99.19L211.32,99.19L211.32,94.11L194.47,94.11z"/><text xml:space="preserve" fill="#000000" stroke-width="0" x="195.11" y="97.76" font-size="3.05" opacity="1.00" font-family="Microsoft Sans Serif">1003CAW0</text></g></g><g id="PMI7.0"><g><path style="stroke:#000000;stroke-width:0.281" d="M124.10,93.34L123.80,86.83"/></g><g><path style="fill:#000000" d="M124.80,86.79L122.80,86.88L123.70,84.84z"/></g><g><path style="fill:#ffffff" d="M116.02,93.98L132.19,93.98L132.19,88.90L116.02,88.90z"/><path style="stroke:#000000;stroke-width:0.281;stroke-opacity:0.98" d="M116.02,93.98L132.19,93.98L132.19,88.90L116.02,88.90z"/><text xml:space="preserve" fill="#000000" stroke-width="0" x="116.66" y="92.55" font-size="3.05" opacity="1.00" font-family="Microsoft Sans Serif">1003CAU0</text></g></g><g id="PMI3.0"><g><path style="stroke:#000000;stroke-width:0.281" d="M188.17,102.73L184.99,102.73L181.64,87.60"/></g><g><path style="fill:#000000" d="M182.61,87.39L180.65,87.82L181.20,85.65z"/></g><g><path style="fill:#ffffff" d="M187.52,105.27L203.34,105.27L203.34,100.19L187.52,100.19z"/><path style="stroke:#000000;stroke-width:0.281;stroke-opacity:0.98" d="M187.52,105.27L203.34,105.27L203.34,100.19L187.52,100.19z"/><text xml:space="preserve" fill="#000000" stroke-width="0" x="188.16" y="103.84" font-size="3.04" opacity="1.00" font-family="Microsoft Sans Serif">1003CAZ0</text></g></g><g id="PMI4.0"><g><path style="stroke:#000000;stroke-width:0.281" d="M155.28,102.32L155.10,95.55"/></g><g><path style="fill:#000000" d="M156.09,95.53L154.10,95.58L155.04,93.56z"/></g><g><path style="fill:#ffffff" d="M147.29,102.95L163.28,102.95L163.28,97.88L147.29,97.88z"/><path style="stroke:#000000;stroke-width:0.281;stroke-opacity:0.98" d="M147.29,102.95L163.28,102.95L163.28,97.88L147.29,97.88z"/><text xml:space="preserve" fill="#000000" stroke-width="0" x="147.92" y="101.53" font-size="3.05" opacity="1.00" font-family="Microsoft Sans Serif">1003CAY0</text></g></g><g id="PMI1.0"><g><path style="stroke:#000000;stroke-width:0.281" d="M275.22,148.64L275.17,151.40"/></g><g><path style="fill:#000000" d="M274.15,151.38L276.15,151.41L275.12,153.40z"/></g><g><path style="fill:#ffffff" d="M265.97,149.27L284.43,149.27L284.43,144.19L265.97,144.19z"/><path style="stroke:#000000;stroke-width:0.281;stroke-opacity:0.98" d="M265.97,149.27L284.43,149.27L284.43,144.19L265.97,144.19z"/><text xml:space="preserve" fill="#000000" stroke-width="0" x="266.61" y="147.84" font-size="2.79" opacity="1.00" font-family="Microsoft Sans Serif">8057008131</text></g></g><g/><g id="paperID" visibility="hidden" opacity="0.00" transform="scale(0.000100)"><path style="stroke:#000000;stroke-width:0.500;fill:#e6e6e6;fill-rule:evenodd" d="M-2000.00,-2000.00L2297.00,-2000.00L2297.00,2210.00L-2000.00,2210.00zM0.00,0.00L297.00,0.00L297.00,210.00L0.00,210.00z"/><path style="fill:#000000;fill-opacity:0.118" d="M3.00,210.00L297.00,210.00L297.00,3.00L300.00,3.00L300.00,213.00L3.00,213.00z"/></g><g id="hotspot.0" onmouseover="ShowHotSpot(evt,'0')" onmouseout="HideHotSpot(evt,'0')" onmousemove="ShowToolTip(evt,'0',&quot;3dp2003070&quot;)" opacity="0"><path style="fill:#00ff00;fill-rule:evenodd" d="M265.82,149.28L265.91,144.05L284.47,143.95L284.47,149.28L275.37,149.45L275.19,151.04L274.92,149.45zM274.23,151.46L276.06,151.46L275.00,153.42zM274.90,154.21L274.82,153.56L275.00,153.42z"/></g><g id="hotspot.1" onmouseover="ShowHotSpot(evt,'1')" onmouseout="HideHotSpot(evt,'1')" onmousemove="ShowToolTip(evt,'1',&quot;prd-3-057614&quot;)" opacity="0"><path style="fill:#00ff00;fill-rule:evenodd" d="M99.39,75.95L97.34,75.95L98.52,75.65L100.38,75.65zM193.17,82.60L194.34,82.31L197.64,82.31L195.50,82.87L195.93,83.77L195.38,84.79L195.01,84.38L194.34,84.37L194.44,83.18zM195.68,85.97L195.38,84.79L195.55,84.92zM195.97,87.13L195.68,85.97L195.85,86.10zM196.27,88.28L195.97,87.13L196.14,87.25zM196.65,89.35L198.78,89.36L199.05,87.02L214.70,86.93L214.70,92.26L198.95,92.26L198.78,89.82L196.35,89.65L196.27,88.28z"/></g><g id="hotspot.2" onmouseover="ShowHotSpot(evt,'2')" onmouseout="HideHotSpot(evt,'2')" onmousemove="ShowToolTip(evt,'2',&quot;prd-3-057613&quot;)" opacity="0"><path style="fill:#00ff00;fill-rule:evenodd" d="M114.49,72.44L113.28,72.77L112.37,72.74L112.65,72.46L114.53,72.15zM183.18,85.24L183.17,85.56L181.61,86.07L182.59,87.22L180.72,87.63L181.01,85.20L182.57,84.88zM182.08,89.45L181.90,89.32L181.98,88.36zM182.36,90.90L182.08,89.45L182.25,89.57zM182.66,92.05L182.36,90.90L182.53,91.02zM182.94,93.50L182.66,92.05L182.82,92.18zM183.24,94.65L182.94,93.50L183.11,93.62zM183.52,96.11L183.24,94.65L183.40,94.78zM183.82,97.26L183.52,96.11L183.69,96.23zM184.10,98.72L183.82,97.26L183.98,97.39zM184.40,99.86L184.10,98.72L184.27,98.83zM184.69,101.31L184.40,99.86L184.56,99.99zM185.07,102.38L187.20,102.39L187.47,100.05L203.41,99.95L203.41,105.28L187.38,105.28L187.20,102.85L184.77,102.68L184.69,101.31z"/></g><g id="hotspot.3" onmouseover="ShowHotSpot(evt,'3')" onmouseout="HideHotSpot(evt,'3')" onmousemove="ShowToolTip(evt,'3',&quot;3dp-3-035195&quot;)" opacity="0"><path style="fill:#00ff00;fill-rule:evenodd" d="M75.78,72.43L75.66,77.40L67.83,77.67L67.46,78.75L67.36,77.66L59.43,77.49L59.52,72.26L75.49,72.14zM68.23,79.16L68.27,79.48L67.83,79.99L67.53,80.94L271.13,152.95L276.33,154.99L277.23,156.12L277.80,157.86L277.83,159.68L272.29,157.87L271.72,157.54L271.05,157.54L262.37,162.50L251.74,168.95L235.27,179.98L233.54,182.01L231.48,185.46L229.94,190.02L228.30,190.03L23.06,94.18L23.05,92.23L24.24,90.24L26.51,88.46L31.06,87.22L37.52,85.86L40.04,85.20L47.66,83.85L53.94,82.60L64.34,81.17L67.09,80.95L67.10,80.29L66.73,79.69L66.67,79.14L67.46,78.75zM68.52,88.77L59.15,90.70L56.92,90.72L47.82,87.00L47.82,86.67L56.84,84.92L58.68,84.90zM139.75,109.85L139.76,110.16L138.75,110.40L137.68,110.41L133.79,108.91L134.06,108.64L135.70,108.38zM182.30,128.67L182.30,128.96L181.62,129.23L180.23,129.22L129.16,110.07L129.43,109.80L131.33,109.80zM161.14,134.41L164.06,135.83L162.80,136.46L160.84,136.45L110.35,115.65L110.36,115.34L112.51,114.70zM108.16,117.05L111.09,118.47L109.49,119.11L109.49,119.41L149.84,136.46L150.92,136.46L152.36,135.83L153.02,135.84L158.53,138.17L156.70,139.04L153.61,140.31L152.74,140.52L101.67,118.56L101.67,118.23L106.04,116.75L107.30,116.75zM187.49,127.18L185.94,127.79L185.16,127.79L180.19,126.03L179.86,125.73L181.09,125.11L181.07,124.84z"/></g><g id="hotspot.4" onmouseover="ShowHotSpot(evt,'4')" onmouseout="HideHotSpot(evt,'4')" onmousemove="ShowToolTip(evt,'4',&quot;3dp-3-057612&quot;)" opacity="0"><path style="fill:#00ff00;fill-rule:evenodd" d="M139.07,68.43L136.70,68.41L139.74,68.12zM156.83,93.00L155.25,93.62L155.30,94.17L155.98,95.07L155.94,95.40L155.27,95.64L155.24,97.47L163.20,97.61L163.49,97.90L163.38,102.88L147.14,102.97L147.23,97.73L154.78,97.47L154.75,95.65L154.40,95.39L154.46,94.55L154.75,93.84L153.22,94.00L153.30,93.10L155.93,92.41z"/></g><g id="hotspot.5" onmouseover="ShowHotSpot(evt,'5')" onmouseout="HideHotSpot(evt,'5')" onmousemove="ShowToolTip(evt,'5',&quot;3dp-3-057611&quot;)" opacity="0"><path style="fill:#00ff00;fill-rule:evenodd" d="M128.01,69.94L128.00,69.60L134.13,68.70L136.27,68.70zM110.45,73.35L103.16,75.08L101.40,75.09L101.96,74.77L109.51,73.05L110.78,73.03zM192.69,83.28L189.48,84.14L189.47,84.63L190.39,85.76L189.62,86.54L188.83,86.16L188.94,84.32L185.65,84.93L184.46,84.67L184.45,84.37L192.12,82.85zM189.90,87.71L189.62,86.54L189.77,86.65zM190.19,88.86L189.90,87.71L190.06,87.83zM167.84,89.51L159.62,92.17L158.21,92.17L157.57,91.87L166.51,88.98zM190.47,90.32L190.19,88.86L190.35,88.99zM190.76,91.47L190.47,90.32L190.64,90.44zM191.06,92.63L190.76,91.47L190.93,91.60zM211.54,94.14L211.43,99.11L194.32,99.20L194.15,96.77L191.72,96.60L191.64,95.23L192.01,96.30L194.15,96.31L194.41,93.97L211.25,93.85zM191.34,94.08L191.06,92.63L191.22,92.75zM191.64,95.23L191.34,94.08L191.51,94.20z"/></g><g id="hotspot.6" onmouseover="ShowHotSpot(evt,'6')" onmouseout="HideHotSpot(evt,'6')" onmousemove="ShowToolTip(evt,'6',&quot;3dp-3-057610&quot;)" opacity="0"><path style="fill:#00ff00;fill-rule:evenodd" d="M178.25,67.22L178.14,72.19L161.90,72.28L161.73,69.85L159.50,69.76L159.59,69.56L161.73,69.39L161.99,67.05L177.96,66.93zM159.21,70.63L159.30,69.85L159.50,69.76zM156.53,78.65L156.40,77.09L158.24,77.38L156.96,78.83L180.85,85.22L180.84,85.88L179.94,85.81L123.11,70.43L125.24,70.44zM171.28,87.83L168.95,87.82L114.39,72.44L114.69,72.15L115.40,72.15zM157.66,76.34L157.58,75.71L157.76,75.56z"/></g><g id="hotspot.7" onmouseover="ShowHotSpot(evt,'7')" onmouseout="HideHotSpot(evt,'7')" onmousemove="ShowToolTip(evt,'7',&quot;3dp-3-057609&quot;)" opacity="0"><path style="fill:#00ff00;fill-rule:evenodd" d="M141.56,68.61L140.48,68.41L141.43,68.43zM195.90,82.03L194.42,82.03L170.09,75.97L169.35,75.55L170.40,75.65zM151.01,92.44L153.08,93.28L153.08,94.25L124.26,85.49L124.38,86.03L124.72,86.39L124.68,86.71L124.01,86.95L123.98,88.50L132.20,88.66L132.20,93.99L115.88,93.99L115.97,88.76L123.52,88.50L123.49,86.94L122.81,86.64L123.49,85.19L95.91,76.53L96.46,76.22L98.04,76.22z"/></g><g id="hotspot.8" onmouseover="ShowHotSpot(evt,'8')" onmouseout="HideHotSpot(evt,'8')" onmousemove="ShowToolTip(evt,'8',&quot;3dp-3-057608&quot;)" opacity="0"><path style="fill:#00ff00;fill-rule:evenodd" d="M172.15,88.40L170.20,89.18L168.53,88.65L169.72,88.09L171.59,88.08zM171.58,90.70L170.78,91.19L170.00,91.09L170.20,89.18L170.39,89.23zM171.08,92.34L170.78,91.19L170.95,91.27zM171.37,93.50L171.08,92.34L171.25,92.47zM171.66,94.66L171.37,93.50L171.53,93.62zM171.95,95.82L171.66,94.66L171.82,94.78zM172.24,96.97L171.95,95.82L172.11,95.94zM172.53,98.13L172.24,96.97L172.40,97.10zM172.82,99.29L172.53,98.13L172.69,98.25zM173.11,100.45L172.82,99.29L172.98,99.41zM173.39,101.61L173.11,100.45L173.27,100.57zM173.68,102.76L173.39,101.61L173.56,101.73zM173.97,103.92L173.68,102.76L173.85,102.89zM174.26,105.08L173.97,103.92L174.14,104.04zM174.55,106.24L174.26,105.08L174.43,105.20zM174.85,107.39L174.55,106.24L174.72,106.36zM175.23,108.46L177.36,108.47L177.63,106.13L193.57,106.03L193.57,111.36L177.53,111.36L177.36,108.93L174.93,108.76L174.85,107.39z"/></g></g></svg>
