<?xml version="1.0" encoding="UTF-8" standalone="no"?>
<svg xmlns="http://www.w3.org/2000/svg" xmlns:xlink="http://www.w3.org/1999/xlink" width="297.000mm" height="210.000mm" viewBox="0.000000 0.000000 297.000000 210.000000" stroke-linejoin="round" stroke-linecap="round" fill="none" fill-rule="evenodd"><desc>Composer Export</desc><script type="text/ecmascript"><![CDATA[
if(typeof(top) != "undefined")
{
	top.ShowPaper = ShowPaper;
}
function ShowHotSpot(evt,hotspotid)
{
	var svgDocument = evt.target.ownerDocument;
	var strId = "hotspot."+hotspotid;
	var hotspot = svgDocument.getElementById(strId);
	if(hotspot)
		hotspot.setAttribute("opacity",".5");
}
function HideHotSpot(evt,hotspotid)
{
	var svgDocument = evt.target.ownerDocument;
	var strId = "hotspot."+hotspotid;
	var hotspot = svgDocument.getElementById(strId);
	if(hotspot)
		hotspot.setAttribute("opacity","0");

	var toolTip = svgDocument.getElementById('ToolTip');
	if(toolTip)
		toolTip.setAttribute("visibility","hidden");
}
function ShowToolTip(evt,hotspotid,strTooltip)
{
	if(strTooltip=="")
	return;

	// change text
	var svgDocument = evt.target.ownerDocument;
	var tiptext = svgDocument.getElementById('ToolTipText');
	if( !tiptext )
	return;
	tiptext.firstChild.nodeValue = " " + strTooltip + "  " ;

	// show tooltip before, else some refresh issue

	var toolTip = svgDocument.getElementById('ToolTip');
	if(!toolTip)
	return;

	toolTip.setAttribute("visibility","visible");
	toolTip.setAttribute("opacity",".95");

	// move tooltip
	// get viewbox

	var root = svgDocument.documentElement;
	var vbox = (root.getAttribute("viewBox")).split(' ');
	var x0 = parseFloat(vbox[0]);
	var y0 = parseFloat(vbox[1]);
	var vboxW = parseFloat(vbox[2]);
	var vboxH = parseFloat(vbox[3]);

	// get default width of svg

	var strW = root.getAttribute("width");
	var svgW = parseFloat(strW);
	if(strW.indexOf('mm') != -1)
	svgW *= 3.779;

	var strH = root.getAttribute("height");
	var svgH = parseFloat(strH);
	if(strH.indexOf('mm') != -1)
	svgH *= 3.779;  	// 96 dpi  -> 96/25.4 = 3.779

	// update the viewbox / width / height if svg is embedded in html with zoom fit all
	var realx0 = x0;
	var realy0 = y0;
	var realvboxW = vboxW;
	var realvboxH = vboxH;
	var realsvgW = svgW;
	var realsvgH = svgH;

	if ((typeof(top) == "undefined") || (typeof(top.svgctl1) != "undefined")) // embedded in html
	{
		// get window size in pxl

		svgW = window.innerWidth;
		svgH = window.innerHeight;

		// calculate real viewbox

		realsvgW = svgW;
		realsvgH = svgH;
		if((svgW / svgH) > (vboxW / vboxH))
		{
			realvboxW = (vboxH * svgW) / svgH;
			realvboxH = vboxH;
			realx0 = x0 - (realvboxW - vboxW)/2 ;
		}
		else
		{
			realvboxH = (vboxW * svgH) / svgW;
			realvboxW = vboxW;
			realy0 = y0 - (realvboxH - vboxH)/2 ;
		}
	}

	// get user zoom/pan

	var newScale = root.currentScale;
	var translation = root.currentTranslate;

	// transform pxl to user unit

	var xPos = (((evt.clientX+10- translation.x)/newScale) * realvboxW)/realsvgW  + realx0 ;
	var yPos = (((evt.clientY+5- translation.y)/newScale) * realvboxH)/ realsvgH  + realy0 ;
	var scaleForWidth = ( (1 / newScale) * realvboxH) / realsvgH;

	// move tooltip

	toolTip.setAttribute("transform", "translate(" + xPos + "," + yPos + ")" );

	// resize tooltip

	var fontsize = 12;
	tiptext.setAttribute("font-size",fontsize*scaleForWidth);
	tiptext.setAttribute("y", fontsize*scaleForWidth);
	var tipBG = svgDocument.getElementById('ToolTipBG');
	var outline = tiptext.getBBox();
	if(tipBG)
	{
		tipBG.setAttribute("stroke-width", 1*scaleForWidth);
		tipBG.setAttribute("width", Number(outline.width) );
		tipBG.setAttribute("height", Number(outline.height) + fontsize*.5*scaleForWidth );
	}
	var ToolTipShadow = svgDocument.getElementById('ToolTipShadow');
	if(ToolTipShadow)
	{
		ToolTipShadow.setAttribute("width", Number(outline.width) );
		ToolTipShadow.setAttribute("height", Number(outline.height) + fontsize*.5*scaleForWidth );
		ToolTipShadow.setAttribute("x", 3*scaleForWidth);
		ToolTipShadow.setAttribute("y", 3*scaleForWidth);
	}
}
function ShowPaper()
{
  var svgDocument = getDocument();
  var paper = svgDocument.getElementById("paperID");
  if(paper)
  {
    paper.setAttribute("transform","scale(1)");
    paper.setAttribute("opacity","1");
    paper.setAttribute("visibility","visible");
  }
  var svg = svgDocument.getRootElement();
  if(svg)
  {
    svg.setAttribute("width","307.000mm");
    svg.setAttribute("height","220.000mm");
    svg.setAttribute("viewBox","-5.000000 -5.000000 307.000000 220.000000");
  }
}
]]></script><defs/><g><g id="Actor_.0"><g style="stroke:#000000;stroke-width:0.123"><path d="M109.98,137.19L108.55,135.14L108.83,134.33L109.03,133.91L109.18,133.64L109.43,133.28L109.63,133.05L109.84,132.84L110.15,132.58L110.35,132.45L111.92,134.70L112.42,134.20L112.94,133.75L113.47,133.36L113.98,133.06L114.51,132.79L115.16,132.53L116.03,132.23L116.85,132.05L116.22,132.23L115.66,132.45L115.08,132.71L114.47,133.04L113.86,133.40L113.25,133.80L112.54,134.33L111.96,134.80L111.45,135.27L111.00,135.73L110.61,136.18L110.23,136.72L110.01,137.12L109.85,137.55L109.83,137.71L109.83,137.92L109.92,138.15"/><path d="M109.30,133.45L109.35,133.38L109.22,133.58"/><path d="M109.17,133.66L109.18,133.64"/><path d="M109.35,133.38L109.85,132.79L110.37,132.27L110.97,131.77L111.75,131.21L112.43,130.80L113.23,130.40L113.85,130.16L114.50,129.99L113.29,130.40L112.68,130.67L112.21,130.93L111.77,131.21L111.26,131.59L110.84,131.96L110.35,132.45"/><path d="M109.17,133.66L109.16,133.67"/><path d="M109.22,133.57L109.18,133.64"/><path d="M109.92,138.15L110.41,138.86L110.50,138.90L110.31,138.58L110.51,138.55L110.34,138.21L110.65,138.12L110.51,137.77L111.00,137.69L111.40,137.70L111.58,137.75L111.68,137.80L111.84,137.97L111.95,138.04L112.08,138.08L112.27,138.11L112.71,138.06L113.28,137.90"/><path d="M110.41,138.86L110.62,139.16L110.88,138.99L110.62,139.16"/><path d="M110.23,136.72L110.49,136.30L110.46,136.35"/><path d="M110.69,139.12L110.87,139.34L111.32,139.01L111.19,139.10"/><path d="M110.87,139.34L111.13,139.15"/><path d="M111.04,139.21L111.24,139.42L112.25,138.62L112.74,138.29L113.31,137.93L113.29,137.89L113.76,137.70L114.25,137.46L115.14,136.90L115.90,136.33L116.56,135.73L116.10,136.25L115.60,136.93L115.28,137.47L115.07,137.96L115.49,137.30L115.64,136.93L115.92,136.47"/><path d="M112.01,139.12L112.13,139.01L111.71,139.40L111.50,139.20"/><path d="M111.32,139.01L112.12,138.48L112.88,138.06L112.87,138.03L112.88,138.06"/><path d="M111.24,139.42L111.49,139.21"/><path d="M110.88,138.99L111.72,138.50L112.14,138.29L112.51,138.14L112.49,138.10L112.52,138.13L112.87,138.03L112.76,138.05"/><path d="M110.65,138.12L110.86,138.05L110.65,138.12"/><path d="M110.50,138.90L110.75,138.76L110.50,138.90"/><path d="M110.75,138.76L111.52,138.37L111.89,138.22L112.19,138.14L112.18,138.10L112.21,138.13L112.49,138.10L111.90,138.22"/><path d="M110.81,138.72L110.93,138.66"/><path d="M112.33,136.52L112.69,136.14L112.91,135.86L113.04,135.61L113.08,135.40L112.34,135.60L112.41,135.97L111.73,136.17L111.82,136.54L111.21,136.74L111.31,137.10L111.60,137.12L111.71,137.18L111.76,137.23L111.78,137.38L111.72,137.64L111.72,137.72L111.75,137.76L111.76,137.85L111.82,137.95L111.97,138.07L112.18,138.10L111.77,138.11L111.28,138.21"/><path d="M111.97,138.07L111.66,138.10L111.34,138.19L110.96,138.34L110.51,138.55L110.74,138.44"/><path d="M111.79,137.91L111.80,137.95L111.70,137.90L111.61,137.89L111.36,137.91L110.86,138.05"/><path d="M111.00,138.00L110.82,138.06"/><path d="M110.79,138.07L110.79,138.07"/><path d="M110.81,138.06L111.21,137.98L111.55,137.96L111.83,138.00L111.95,138.04L111.96,138.08"/><path d="M110.90,138.36L110.80,138.41"/><path d="M111.07,138.88L110.94,138.95"/><path d="M111.45,137.10L111.32,137.10L110.80,137.28L110.92,137.63L110.80,137.68"/><path d="M110.80,137.28L111.21,137.28L111.45,137.35L111.62,137.48L111.70,137.62L111.72,137.72"/><path d="M110.81,137.67L110.51,137.77"/><path d="M111.75,137.76L111.73,137.76L111.70,137.67L111.65,137.62L111.50,137.57L111.25,137.57L110.93,137.64L111.09,137.60"/><path d="M111.13,137.59L111.21,137.58"/><path d="M110.76,137.69L110.57,137.75"/><path d="M111.50,137.10L111.53,137.11"/><path d="M111.21,136.74L111.47,136.80L111.65,136.93L111.73,137.06L111.78,137.30"/><path d="M111.92,134.70L111.45,135.06L111.13,135.37L110.88,135.69L110.49,136.30"/><path d="M110.71,135.94L110.80,135.80L110.77,135.86"/><path d="M111.71,139.40L111.95,139.18"/><path d="M112.34,139.20L112.49,139.05L112.27,139.28L112.34,139.20"/><path d="M112.49,139.05L112.65,138.88L112.91,139.07L112.97,139.00L112.91,139.07"/><path d="M112.13,139.01L112.93,138.35L113.78,137.74L113.76,137.70L113.78,137.74L114.25,137.46L114.27,137.49L114.75,137.16L114.77,137.20L115.24,136.84L115.27,136.87L115.72,136.48L115.74,136.51L116.16,136.11L116.19,136.14"/><path d="M111.68,139.05L111.55,139.16"/><path d="M112.04,139.09L112.27,139.28"/><path d="M112.21,138.14L112.19,138.14"/><path d="M112.51,138.14L112.52,138.13"/><path d="M111.82,137.95L111.80,137.95"/><path d="M111.75,137.50L111.76,137.52"/><path d="M111.78,137.36L111.86,137.21"/><path d="M111.99,136.97L112.06,136.88"/><path d="M111.70,137.62L111.72,137.73"/><path d="M111.87,137.22L111.85,137.23L111.98,136.99L112.03,136.84L112.02,136.69L111.92,136.58L111.95,136.61"/><path d="M111.73,136.17L111.85,136.26L111.95,136.39L112.03,136.75"/><path d="M111.90,136.57L111.82,136.54L111.92,136.58"/><path d="M112.31,136.56L112.32,136.53"/><path d="M112.33,136.52L112.34,136.53"/><path d="M112.42,135.98L112.45,136.03L112.41,135.97L112.42,135.98"/><path d="M112.45,136.03L112.47,136.16L112.41,136.37L112.27,136.61L112.05,136.89L112.06,136.89"/><path d="M112.47,136.09L112.46,136.05"/><path d="M112.02,136.72L111.97,136.45"/><path d="M112.46,136.09L112.44,135.94L112.44,135.96"/><path d="M112.34,135.60L112.40,135.73L112.44,135.94L112.40,135.74"/><path d="M113.10,138.84L112.98,138.99L113.24,138.67L113.08,138.87"/><path d="M112.89,138.06L113.21,137.93"/><path d="M115.03,137.34L114.75,137.79L114.33,138.40L114.02,138.22L113.60,138.78L113.75,138.55L113.60,138.78L113.32,138.59"/><path d="M112.55,138.99L113.42,138.17L114.27,137.49"/><path d="M112.65,138.09L112.76,138.06"/><path d="M112.64,138.09L112.65,138.09"/><path d="M113.24,138.67L113.95,137.94L114.77,137.20"/><path d="M113.51,137.18L113.20,137.20L113.03,137.15L112.93,137.04L112.93,136.87L113.00,136.65L113.16,136.39L113.40,136.11L113.70,135.82L114.04,135.53L114.41,135.27L114.80,135.03L115.27,134.81L115.60,134.69L115.95,134.63L116.15,134.65L116.28,134.74L116.32,134.80L116.33,134.93L116.29,135.08L116.21,135.26L115.91,135.66L115.47,136.09L115.02,136.44L114.46,136.80L113.99,137.02L113.51,137.18"/><path d="M113.25,137.91L113.20,137.93"/><path d="M113.29,137.89L113.31,137.93"/><path d="M113.32,137.93L113.76,137.70"/><path d="M112.74,136.08L113.14,135.73L113.44,135.41L113.66,135.12L113.80,134.85L113.01,135.03L113.08,135.40"/><path d="M113.22,135.65L113.63,135.33L114.01,134.99L114.32,134.66L114.55,134.35L113.74,134.49L113.80,134.85"/><path d="M114.01,138.21L114.04,138.18"/><path d="M114.33,138.40L114.44,138.19L114.33,138.40"/><path d="M114.44,138.19L114.64,137.87L114.96,137.42L115.34,136.96L115.74,136.51"/><path d="M114.47,138.14L114.54,138.03"/><path d="M113.75,138.55L114.39,137.76L114.82,137.30L115.27,136.87"/><path d="M113.94,138.31L114.04,138.18"/><path d="M113.79,138.50L113.93,138.32"/><path d="M113.91,138.35L113.86,138.41"/><path d="M114.25,137.46L114.27,137.49"/><path d="M113.78,137.74L113.78,137.74"/><path d="M113.73,135.25L114.15,134.95L114.60,134.60L114.99,134.25L115.30,133.91L114.50,134.00L114.55,134.35"/><path d="M114.25,134.88L114.69,134.60L115.20,134.25L115.66,133.89L116.05,133.53L115.26,133.57L115.31,133.90"/><path d="M114.50,129.99L114.81,129.96L115.21,130.02L115.73,130.20L116.26,130.44L117.35,131.98"/><path d="M114.24,130.08L115.82,132.32"/><path d="M115.49,137.30L115.80,137.47L116.19,136.79L116.49,136.94L116.85,136.24L116.80,136.09L116.78,135.98L116.81,135.73L116.92,135.43L117.17,135.01"/><path d="M115.14,137.77L115.07,137.96L114.75,137.79"/><path d="M115.20,137.63L115.16,137.73"/><path d="M116.05,133.53L115.99,133.21L116.75,133.24L116.29,133.61L115.78,133.96L115.23,134.30L114.76,134.56"/><path d="M116.75,133.24L116.69,132.93L117.39,133.04L116.88,133.40L116.33,133.74L115.76,134.05L115.26,134.28"/><path d="M115.02,129.98L115.02,129.98"/><path d="M115.80,137.42L115.82,137.31L115.80,137.47L115.80,137.42"/><path d="M115.82,137.31L115.93,136.94L116.17,136.42L116.52,135.87L116.90,135.35L116.57,135.72L116.59,135.76"/><path d="M115.85,137.17L115.83,137.26"/><path d="M116.48,136.80L116.50,136.95L116.47,136.77L116.49,136.48L116.63,136.01L116.88,135.49L117.17,135.01L116.90,135.35L116.93,135.39"/><path d="M116.19,136.78L116.21,136.53L116.28,136.32L116.44,135.99L116.68,135.64"/><path d="M116.47,136.69L116.47,136.77"/><path d="M117.39,133.04L117.31,132.75L117.95,132.93L117.40,133.28L116.83,133.59L116.25,133.86L115.72,134.07"/><path d="M116.85,132.05L117.19,131.99L117.58,131.97L117.91,132.01L118.10,132.09L118.29,132.24L118.98,133.21L118.62,132.79L118.76,133.02L118.29,132.68L118.41,132.93L118.22,133.04L117.69,133.32L117.11,133.58L116.55,133.79L116.13,133.91"/><path d="M116.42,133.83L116.43,133.82"/><path d="M116.50,133.80L116.80,133.75L116.75,133.76"/><path d="M117.54,134.16L117.47,133.97L117.54,134.16L117.55,134.15L117.64,134.34L117.72,134.45L117.88,134.58L117.71,134.48L117.60,134.38L117.53,134.24L117.51,134.13L117.47,134.43L117.27,134.90L117.21,135.24L117.21,135.35L117.26,135.50L117.32,135.58L117.45,135.67L117.15,136.39L117.07,136.25L117.02,136.09L117.00,135.86L117.01,135.69L117.13,135.22L117.37,134.67L117.17,135.01"/><path d="M116.85,136.23L117.14,136.39L117.08,136.28"/><path d="M117.07,136.25L117.04,136.19"/><path d="M117.20,135.03L117.18,135.01L117.14,135.04"/><path d="M116.90,135.35L116.84,135.43"/><path d="M117.45,135.67L117.72,135.83L117.94,135.18"/><path d="M116.72,135.58L116.70,135.62"/><path d="M117.54,135.69L117.58,135.73L117.48,135.61L117.42,135.49L117.36,135.28L117.35,135.13L117.41,134.69L117.40,134.70L117.49,134.37L117.51,134.41L117.52,134.39L117.54,134.63L117.58,134.77L117.67,134.95L117.81,135.10L118.03,135.23L118.22,135.29L118.34,134.74"/><path d="M117.93,135.18L117.63,135.00L117.52,134.89L117.46,134.69L117.46,134.51L117.49,134.37"/><path d="M117.51,134.41L117.52,134.17"/><path d="M118.98,133.53L119.05,133.85L118.56,133.95L118.22,133.99L117.82,133.97L117.57,133.91L117.34,133.82L117.33,133.84L117.22,133.77"/><path d="M117.40,134.70L117.37,134.67"/><path d="M117.46,133.93L117.47,133.97"/><path d="M117.34,133.82L117.56,134.05L117.77,134.17L118.08,134.28L118.36,134.31L118.90,134.28L118.88,133.90"/><path d="M117.48,133.97L117.49,133.95L117.71,134.14"/><path d="M118.96,133.23L119.08,133.49L118.61,133.64L118.17,133.74L117.81,133.79L117.39,133.79L117.02,133.74L117.49,133.69L118.01,133.57L118.49,133.41L118.98,133.21"/><path d="M116.80,133.75L117.20,133.65L117.75,133.47L118.25,133.27L118.76,133.02"/><path d="M117.02,133.74L116.81,133.75"/><path d="M117.65,135.78L117.73,135.84L117.62,135.76L117.65,135.78"/><path d="M117.62,135.76L117.58,135.73"/><path d="M117.88,134.58L118.09,134.68L118.25,134.73L118.62,134.76L118.66,134.31"/><path d="M117.95,132.93L117.85,132.66L118.41,132.93"/></g></g><g id="Actor_.1"><g style="stroke:#000000;stroke-width:0.123"><path d="M86.13,88.11L83.46,93.91"/><path d="M85.13,89.10L83.20,93.32"/><path d="M89.98,77.14L91.38,74.15L92.03,73.57L92.86,73.29L93.24,73.76L92.52,73.97L91.94,74.41L91.17,75.81"/><path d="M90.42,77.47L90.83,76.57"/><path d="M92.07,75.39L92.97,74.46L94.32,74.53"/><path d="M92.97,74.46L93.24,73.76"/><path d="M154.86,63.81L154.79,63.72L155.15,63.72L155.58,64.16L155.31,64.08"/><path d="M154.79,63.72L154.77,63.75"/><path d="M155.53,65.70L156.22,66.60"/><path d="M155.58,64.16L155.62,64.41L155.50,64.74"/></g></g><g id="Actor_.2"><g style="stroke:#000000;stroke-width:0.123"><path d="M77.66,106.85L77.56,106.76L77.65,106.87"/><path d="M77.56,106.76L78.35,103.48L78.45,103.56"/><path d="M78.50,103.36L78.35,103.46"/><path d="M85.17,107.01L82.48,107.71"/><path d="M95.11,117.39L84.05,105.80L83.93,104.68L85.89,96.67L85.02,97.52"/><path d="M84.15,105.94L84.21,106.01"/><path d="M84.73,96.70L85.44,96.00"/><path d="M85.50,82.18L84.41,77.60L84.86,77.47L84.92,77.73"/><path d="M85.49,77.37L84.86,77.47"/><path d="M85.89,96.67L85.37,96.27L87.55,87.92"/><path d="M85.46,82.19L85.51,82.23"/><path d="M87.56,80.10L87.76,79.83L87.79,79.33L87.54,78.88L87.14,78.67"/><path d="M87.29,80.00L87.34,79.45L86.97,78.90"/><path d="M91.36,82.40L92.03,82.28L90.84,77.79L89.94,77.11"/><path d="M89.27,76.74L89.60,76.85"/><path d="M90.48,77.52L91.18,75.76"/><path d="M92.03,82.28L91.38,82.47"/><path d="M105.89,76.48L97.46,75.65L95.93,75.22L93.57,74.21L93.70,73.88L97.20,75.24L101.86,75.83L108.60,76.28L115.25,76.28L110.68,76.48L103.39,76.44L96.20,76.16L92.44,75.40L91.74,75.43L91.23,75.71"/><path d="M93.57,74.21L93.75,73.36"/><path d="M93.70,73.88L93.88,73.04L94.40,72.82L97.43,73.91L102.26,74.48L109.44,74.91L115.80,74.84"/><path d="M93.73,73.39L93.85,73.09"/><path d="M95.30,118.22L95.08,117.68L95.26,116.93L105.93,91.55L106.56,90.53L107.78,89.44L108.86,88.93L123.30,84.93L124.84,86.54L110.14,90.71L108.80,91.53L107.91,92.48L96.56,118.91L96.50,119.48L96.69,119.89L97.11,120.09L97.83,120.04"/><path d="M96.69,119.89L95.28,118.21"/><path d="M96.85,119.01L96.79,118.72L97.89,116.28L98.32,116.04L99.90,115.69"/><path d="M96.83,118.99L100.03,122.36L101.06,119.90L102.72,119.45L101.65,121.88L100.03,122.36"/><path d="M99.91,115.71L102.70,119.41"/><path d="M103.08,116.78L102.28,116.95L101.86,116.83L100.29,115.00L110.17,92.03L110.92,91.27L167.61,78.90L168.02,79.13L169.44,80.58"/><path d="M100.53,116.54L100.88,115.73"/><path d="M120.30,114.56L102.59,119.76"/><path d="M160.68,102.39L159.49,102.79L158.30,104.91L159.43,104.56L160.66,102.46L158.87,100.36L105.42,115.59L104.84,115.04L105.83,112.80L108.71,112.00L109.21,112.57L106.32,113.37L105.83,112.80"/><path d="M105.33,115.61L106.32,113.37"/><path d="M113.26,102.99L113.43,103.18L118.29,101.94L117.84,101.45L117.58,101.43L113.53,102.46L111.70,106.44L107.45,107.56L110.06,101.48L109.21,100.54L106.55,106.64L107.37,107.58"/><path d="M109.21,112.57L113.43,103.18"/><path d="M108.71,112.00L111.13,106.59"/><path d="M109.21,100.54L110.10,100.75L113.90,99.83L114.42,100.40L113.50,102.46"/><path d="M110.06,101.48L114.42,100.40"/><path d="M111.93,111.11L156.43,98.78L156.90,99.25L111.56,111.91L114.75,104.90L124.01,102.48L131.21,95.19L154.64,89.48L153.93,92.53L154.03,93.34L153.86,94.06"/><path d="M112.01,98.49L112.94,96.38L113.48,96.93L112.53,99.07L112.01,98.49"/><path d="M112.53,99.07L120.50,97.14L118.29,101.94"/><path d="M113.48,96.93L123.51,94.56L120.33,101.42L123.93,100.51L123.42,99.96L120.69,100.65"/><path d="M112.95,96.35L122.99,94.00L123.51,94.56"/><path d="M115.07,76.37L123.11,84.98"/><path d="M124.04,84.53L116.46,76.27L115.91,76.11L115.25,76.28"/><path d="M117.53,105.05L116.33,107.66L116.82,108.22L118.03,105.60L117.58,105.10L126.02,102.81L126.52,103.35L125.29,105.91L116.82,108.22"/><path d="M116.41,76.23L117.38,76.18"/><path d="M117.61,76.26L116.50,76.32"/><path d="M117.58,107.70L117.36,107.76L118.23,105.87L126.00,103.80L125.11,105.65L117.58,107.70"/><path d="M118.03,105.60L126.52,103.35"/><path d="M117.78,101.38L119.63,97.35"/><path d="M118.35,74.72L119.59,74.64"/><path d="M142.21,108.09L142.92,107.88L141.66,108.31L140.58,109.53L120.62,115.47L119.94,115.49L119.23,114.86"/><path d="M119.56,115.24L119.60,115.27"/><path d="M120.24,114.57L120.22,114.57"/><path d="M147.42,72.50L149.99,72.14L149.68,72.75L147.12,73.10L147.42,72.50L146.48,72.38L143.64,70.53L143.49,70.76L141.04,71.45L134.89,72.81L128.60,73.79L122.18,74.45"/><path d="M123.42,99.96L130.67,92.60L131.18,93.15L157.10,86.99L155.34,94.35L153.92,95.20L152.87,96.19L152.12,96.26L152.11,95.68L152.69,94.86L153.51,94.29L154.08,94.28L153.56,93.77"/><path d="M123.30,84.93L123.83,84.59L124.24,84.53L125.92,86.23L140.41,82.75L148.34,81.11L158.08,79.42L158.73,79.09L158.95,79.29L166.90,78.24L168.79,78.04L169.28,78.17L167.84,76.81L167.49,76.67L157.55,77.86"/><path d="M122.85,75.92L129.44,75.24L135.16,74.36L140.59,73.21L145.28,71.89L147.12,73.10"/><path d="M143.49,70.76L144.95,71.87L139.88,73.25L134.62,74.33L128.84,75.20L122.81,75.82"/><path d="M125.11,105.65L123.92,104.35"/><path d="M123.93,100.51L131.18,93.15"/><path d="M124.40,84.64L138.87,81.23L154.25,78.35L156.60,77.99L158.08,79.42"/><path d="M124.84,86.54L125.53,86.14L125.92,86.23"/><path d="M130.99,101.38L130.20,100.94L128.83,99.48L128.66,99.03L128.77,98.41L129.56,97.13L130.82,96.05L132.09,95.56L132.84,95.82"/><path d="M130.67,92.60L156.60,86.50L157.10,86.99"/><path d="M132.35,101.45L131.72,100.63L131.92,100.00L132.41,99.38L133.09,98.88L133.78,98.70L134.66,99.57L134.54,100.17L134.01,100.88L133.28,101.42L132.63,101.59L132.33,101.42L132.30,101.06L132.78,100.19L133.68,99.47L134.19,99.30L134.55,99.38"/><path d="M132.18,101.27L131.03,101.39"/><path d="M131.85,101.37L131.81,101.37"/><path d="M132.83,95.80L134.42,97.58L134.58,98.35L134.37,99.20"/><path d="M134.01,98.81L134.05,98.85"/><path d="M141.16,108.83L141.19,108.79"/><path d="M141.00,109.15L140.95,109.23"/><path d="M140.98,109.18L140.93,109.25"/><path d="M141.91,108.18L156.10,103.99L157.65,101.47L158.16,101.01"/><path d="M146.48,72.38L149.37,71.96L147.40,69.26L146.11,69.74L147.49,71.11L146.40,71.25L145.19,70.05L143.64,70.53"/><path d="M144.95,71.87L145.07,71.96"/><path d="M145.31,70.17L145.97,69.95L147.04,71.17"/><path d="M145.98,69.94L146.11,69.74"/><path d="M147.82,99.42L147.65,99.25L149.01,96.67L149.49,97.16L148.13,99.74L147.82,99.42"/><path d="M153.91,65.10L153.83,63.96L154.06,63.56L154.11,64.85L152.78,66.27L150.42,67.97L147.49,69.38"/><path d="M153.77,95.42L156.03,94.82L156.51,95.30L155.14,97.83L148.13,99.74"/><path d="M149.01,98.58L148.61,99.33L155.03,97.58L156.05,95.71L149.72,97.39L149.01,98.58"/><path d="M149.01,96.67L150.87,96.18"/><path d="M148.78,94.49L148.58,93.78L149.11,92.64L150.06,91.59L151.25,90.85L152.21,90.81L153.91,92.62"/><path d="M148.74,94.46L150.00,95.74"/><path d="M167.29,76.68L156.67,65.65L156.83,66.11L154.64,67.70L152.10,69.14L148.97,70.54L156.42,78.02"/><path d="M148.92,70.58L148.49,70.75"/><path d="M149.27,70.31L148.42,70.66"/><path d="M149.55,97.54L153.92,96.27"/><path d="M149.49,97.16L156.51,95.30"/><path d="M149.99,72.14L149.37,71.96"/><path d="M149.57,70.28L157.00,77.73"/><path d="M156.61,66.30L155.66,65.40L154.99,66.42L153.37,67.94L151.67,69.10L149.40,70.25"/><path d="M150.18,95.90L150.04,95.78L150.52,96.09L151.18,96.19"/><path d="M150.83,69.76L153.42,68.02L155.37,65.98"/><path d="M153.53,93.73L153.11,93.68L152.64,93.90L151.64,94.96L151.52,95.64L152.12,96.26"/><path d="M151.50,96.14L151.88,96.02"/><path d="M151.47,96.15L151.22,96.19"/><path d="M152.31,90.89L152.32,90.90"/><path d="M153.85,96.39L155.03,97.58"/><path d="M153.92,95.20L154.18,94.59L154.08,94.28"/><path d="M153.99,89.63L153.44,92.02"/><path d="M154.06,63.56L154.48,63.58L155.39,64.13L155.58,65.35"/><path d="M155.09,104.30L155.95,104.04"/><path d="M155.56,65.10L156.01,65.17L156.67,65.65"/><path d="M158.30,104.96L156.57,103.40"/><path d="M156.37,103.76L156.34,103.79"/><path d="M156.90,99.25L159.81,93.94"/><path d="M156.43,98.78L159.33,93.48"/><path d="M156.74,91.68L160.36,84.96L159.85,84.48L156.25,91.20L156.74,91.68L158.79,91.16L162.41,84.48L160.36,84.96"/><path d="M156.60,77.99L157.05,77.71L157.41,77.72L158.87,79.13"/><path d="M158.54,66.37L158.34,65.40L156.68,65.67"/><path d="M158.13,101.03L158.52,100.89L158.84,100.37"/><path d="M157.79,91.42L157.75,91.92L159.77,93.92L159.79,93.42L160.36,92.75L163.85,90.44L164.34,90.40L164.28,90.91L163.72,91.56L160.27,93.85L159.77,93.92"/><path d="M158.69,90.90L157.22,91.27L160.46,85.24L161.94,84.90L158.69,90.90L157.86,90.08"/><path d="M158.22,100.99L158.17,101.01"/><path d="M158.87,100.36L159.95,98.41L158.65,98.77L161.97,92.73"/><path d="M159.04,98.06L159.48,97.93L159.95,98.41"/><path d="M158.87,67.92L158.87,67.94"/><path d="M159.94,98.39L163.72,91.56"/><path d="M164.34,90.40L162.20,88.37L161.76,88.51L159.39,90.06"/><path d="M159.85,84.48L161.91,84.00L162.41,84.48"/><path d="M162.77,84.76L163.20,85.35L162.10,87.37L161.61,86.89L162.77,84.76L167.25,83.70L167.71,84.12L164.33,90.38"/><path d="M162.10,87.37L164.86,86.70L163.36,89.44"/><path d="M164.00,86.91L162.87,88.96"/><path d="M163.26,85.24L167.76,84.17"/><path d="M169.45,80.60L169.42,81.26L164.35,90.42"/><path d="M169.28,78.17L169.42,78.82L168.92,79.98"/></g></g><g id="Actor_.3"><g style="stroke:#000000;stroke-width:0.123"><path d="M190.18,59.48L188.81,59.83L186.65,59.57L186.41,59.51L184.31,57.76L182.67,54.84L181.83,51.35L181.98,48.01L183.07,45.51L183.25,45.33L185.08,44.15L186.43,43.75L184.61,44.93L183.51,47.48L183.36,50.89L184.21,54.45L185.88,57.43L188.02,59.22L190.18,59.48L191.94,58.21L192.97,55.66L193.09,52.36L192.27,48.91L190.68,45.98L188.60,44.13L186.43,43.75"/><path d="M189.92,51.88L189.26,49.95L188.04,49.00L186.97,49.59L186.68,51.39L187.35,53.33L188.58,54.27L189.64,53.66L189.92,51.88L188.56,52.25L187.90,50.33L186.97,49.61"/><path d="M187.11,49.72L187.91,50.67L188.40,52.33L188.24,53.89L188.18,53.96"/><path d="M188.56,52.25L188.27,54.03"/></g></g><g id="Actor_.4"><g style="stroke:#000000;stroke-width:0.123"><path d="M85.73,87.92L83.23,92.75L83.17,92.97L83.26,93.48L84.94,97.19L85.05,97.83L85.01,98.22L82.70,107.34L82.50,107.69L82.22,108.01L81.70,108.34L78.50,109.14L78.05,109.14L77.90,109.07L77.74,108.86L77.72,108.40L79.91,99.34L79.95,98.95L79.90,98.52L79.77,98.11L78.10,94.42L78.08,93.91L81.83,86.43L81.95,86.30L82.19,86.29L86.24,88.14L86.38,88.15L86.62,88.06L86.81,87.84L86.97,87.32L86.96,86.89L85.11,78.71L85.10,78.05L85.17,77.85L85.38,77.52L85.69,77.31L89.01,76.74L89.38,76.76L89.74,76.93L90.05,77.23L90.33,77.84L92.11,85.69L92.16,86.11L92.12,86.51L91.99,86.84L91.68,87.12L86.38,88.15"/><path d="M77.81,108.98L77.39,108.51L77.37,108.05L79.55,99.00L79.57,98.76L79.49,98.41L77.79,94.64L77.68,94.04L77.74,93.49L81.51,85.97L81.70,85.73L81.94,85.63L82.21,85.68L86.14,87.48L86.33,87.50L86.49,87.35L86.56,87.09L86.54,86.77L84.69,78.59L84.73,78.16L84.88,77.78L85.15,77.50L85.69,77.31"/><path d="M81.38,91.08L81.58,91.15L81.86,91.12L82.34,90.89L82.62,90.66L82.80,90.41L83.41,89.23L83.47,89.00L83.40,88.83L83.20,88.76L82.92,88.79L82.43,89.02L82.15,89.26L81.97,89.51L81.37,90.70L81.31,90.92L81.38,91.08"/><path d="M83.09,88.76L82.48,89.95L82.30,90.20L81.87,90.53L81.37,90.70"/><path d="M81.94,85.63L86.11,84.86"/><path d="M87.16,79.89L86.91,79.44L86.94,78.94L87.01,78.80L87.23,78.61L87.37,78.57L87.66,78.60L87.92,78.77L88.11,79.06L88.19,79.37L88.14,79.73L87.97,79.98L87.72,80.10L87.43,80.07L87.16,79.89"/><path d="M87.14,78.67L87.55,78.88L87.79,79.33L87.76,79.83L87.56,80.10"/><path d="M91.55,87.15L91.54,87.15"/></g></g><g id="Actor_.5"><g style="stroke:#000000;stroke-width:0.123"><path d="M78.50,103.36L78.35,103.46L77.56,106.76L77.66,106.85"/><path d="M77.56,106.76L77.65,106.87"/><path d="M78.45,103.56L78.35,103.46"/><path d="M82.48,107.71L85.17,107.01"/><path d="M85.02,97.52L85.89,96.67L83.95,104.62L83.89,105.30L84.05,105.80L95.11,117.39"/><path d="M84.15,105.94L84.21,106.01"/><path d="M85.44,96.00L84.73,96.70"/><path d="M85.50,82.18L84.41,77.60L84.86,77.47L84.92,77.73"/><path d="M84.86,77.47L85.49,77.37"/><path d="M85.89,96.67L85.37,96.27L87.55,87.92"/><path d="M85.46,82.19L85.51,82.23"/><path d="M87.56,80.10L87.76,79.83L87.79,79.33L87.54,78.88L87.14,78.67"/><path d="M87.29,80.00L87.34,79.45L86.97,78.90"/><path d="M91.38,82.47L92.03,82.28L90.84,77.79L89.94,77.11"/><path d="M89.27,76.74L89.60,76.85"/><path d="M90.48,77.52L91.18,75.76"/><path d="M92.03,82.28L91.36,82.40"/><path d="M120.19,78.18L120.49,77.49L119.61,77.34L123.13,76.52L123.62,76.79L123.31,77.48L120.19,78.18L117.61,76.26L116.55,76.31L115.99,76.11L115.07,76.37L105.19,76.47L96.32,76.17L92.44,75.40L91.74,75.43L91.23,75.71"/><path d="M93.75,73.36L93.57,74.21L93.70,73.88L96.24,74.97L97.97,75.38L107.13,76.22L115.25,76.28"/><path d="M93.57,74.21L95.93,75.22L97.46,75.65L105.89,76.48"/><path d="M93.73,73.39L93.85,73.09L93.70,73.88"/><path d="M93.85,73.09L94.05,72.88L94.60,72.84L97.43,73.91L103.73,74.61L110.14,74.93L115.80,74.84L117.38,76.18L116.41,76.23"/><path d="M97.83,120.04L97.11,120.09L96.69,119.89L96.50,119.48L96.56,118.91L107.91,92.48L108.80,91.53L110.14,90.71L124.84,86.54L123.30,84.93L108.86,88.93L107.52,89.63L106.56,90.53L105.93,91.55L95.22,117.03L95.09,117.80L95.30,118.22"/><path d="M95.28,118.21L96.69,119.89"/><path d="M96.85,119.01L96.79,118.72L97.89,116.28L98.32,116.04L99.90,115.69"/><path d="M96.83,118.99L100.16,122.40L101.65,121.88L102.66,119.39L101.06,119.90L100.03,122.36"/><path d="M99.91,115.71L102.70,119.41"/><path d="M169.44,80.58L167.69,78.89L110.92,91.27L110.17,92.03L100.31,114.95L101.89,116.84L102.39,116.95L103.08,116.78"/><path d="M100.53,116.54L100.88,115.73"/><path d="M102.59,119.76L120.30,114.56"/><path d="M105.33,115.61L106.32,113.37L109.21,112.57L108.71,112.00L105.83,112.80L104.84,115.04L105.33,115.61L158.87,100.36L159.95,98.41L158.65,98.77L161.97,92.73"/><path d="M105.83,112.80L106.32,113.37"/><path d="M107.39,107.54L106.57,106.67L106.60,106.52L109.21,100.54L110.10,100.75L113.90,99.83L114.42,100.40L110.06,101.48L107.39,107.54"/><path d="M107.37,107.58L111.70,106.44L113.50,102.46L117.78,101.38L118.29,101.94L120.50,97.14L112.53,99.07L113.48,96.93L112.98,96.38L122.99,94.00L123.51,94.56L113.48,96.93"/><path d="M108.71,112.00L111.13,106.59"/><path d="M109.21,112.57L113.43,103.18L113.26,102.99"/><path d="M109.21,100.54L110.06,101.48"/><path d="M159.33,93.48L156.43,98.78L156.90,99.25L111.56,111.91L114.75,104.90L124.01,102.48L131.21,95.19L154.64,89.48L153.93,92.53L152.32,90.90"/><path d="M111.93,111.11L156.43,98.78"/><path d="M112.53,99.07L112.01,98.49L112.95,96.35"/><path d="M113.50,102.46L114.42,100.40"/><path d="M113.43,103.18L118.29,101.94"/><path d="M115.07,76.37L123.11,84.98"/><path d="M117.53,105.05L116.33,107.66L116.82,108.22L118.03,105.60L117.58,105.10L126.02,102.81L126.52,103.35L118.03,105.60"/><path d="M116.50,76.32L124.04,84.53"/><path d="M119.57,77.33L115.89,74.68L115.80,74.84"/><path d="M115.89,74.68L118.20,74.56L119.61,76.02L120.92,75.74L119.68,74.47L119.61,74.60L118.35,74.72"/><path d="M116.82,108.22L125.29,105.91L126.52,103.35"/><path d="M117.58,107.70L117.36,107.76L118.23,105.87L126.00,103.80L125.11,105.65L117.58,107.70"/><path d="M117.48,76.27L117.38,76.18"/><path d="M117.78,101.38L119.63,97.35"/><path d="M119.56,115.24L119.23,114.86"/><path d="M119.60,115.27L120.00,115.51L120.55,115.49L140.58,109.53L141.66,108.31L142.92,107.88L142.21,108.09"/><path d="M119.59,74.64L120.54,75.82"/><path d="M120.24,114.57L120.22,114.57"/><path d="M123.51,94.56L120.33,101.42L123.93,100.51L131.18,93.15L130.67,92.60L123.42,99.96L120.69,100.65"/><path d="M120.49,77.49L123.62,76.79"/><path d="M119.68,74.47L122.09,74.27L123.13,76.52"/><path d="M122.18,74.45L128.60,73.79L134.82,72.83L141.04,71.45L143.49,70.76L143.64,70.53L146.48,72.38L149.37,71.96L149.99,72.14L149.68,72.75L147.12,73.10L145.28,71.89L140.59,73.21L135.16,74.36L129.44,75.24L122.85,75.92"/><path d="M123.42,99.96L123.93,100.51"/><path d="M124.84,86.54L125.53,86.14L125.92,86.23L143.08,82.17L158.08,79.42L156.60,77.99L154.25,78.35L138.90,81.22L124.46,84.63L123.99,84.53L123.30,84.93"/><path d="M143.49,70.76L144.95,71.87L139.88,73.25L134.62,74.33L128.84,75.20L122.81,75.82"/><path d="M125.11,105.65L123.92,104.35"/><path d="M124.40,84.64L125.92,86.23"/><path d="M130.99,101.38L130.20,100.94L128.83,99.48L128.66,99.03L128.77,98.41L129.56,97.13L130.82,96.05L132.09,95.56L132.84,95.82"/><path d="M130.67,92.60L156.60,86.50L157.10,86.99L155.34,94.35L153.92,95.20L153.06,96.07L152.30,96.34L152.04,95.96L152.54,95.02L153.35,94.36L154.08,94.28L153.38,93.66L152.64,93.90L151.87,94.60L151.49,95.37L151.52,95.64L152.12,96.26"/><path d="M132.35,101.45L131.72,100.63L131.92,100.00L132.41,99.38L133.09,98.88L133.64,98.70L133.93,98.75L134.55,99.38L134.19,99.30L133.68,99.47L132.78,100.19L132.30,101.06L132.33,101.42L132.63,101.59L133.47,101.31L134.17,100.71L134.66,99.84L134.55,99.38"/><path d="M132.18,101.27L131.03,101.39"/><path d="M157.10,86.99L131.18,93.15"/><path d="M131.85,101.37L131.81,101.37"/><path d="M134.37,99.20L134.58,98.35L134.42,97.58L132.83,95.80"/><path d="M134.05,98.85L134.01,98.81"/><path d="M141.16,108.83L141.19,108.79"/><path d="M141.00,109.15L140.95,109.23"/><path d="M140.98,109.18L140.93,109.25"/><path d="M141.91,108.18L156.10,103.99L157.65,101.47L158.16,101.01"/><path d="M145.31,70.17L145.97,69.95L146.11,69.74L147.49,71.11L146.40,71.25L145.19,70.05L143.64,70.53"/><path d="M144.95,71.87L145.07,71.96"/><path d="M146.48,72.38L147.42,72.50L147.12,73.10"/><path d="M147.04,71.17L145.98,69.94"/><path d="M146.11,69.74L147.40,69.26L149.37,71.96"/><path d="M147.82,99.42L147.65,99.25L149.01,96.67L149.49,97.16L148.13,99.74L147.82,99.42"/><path d="M147.42,72.50L149.99,72.14"/><path d="M156.61,66.30L155.58,65.26L155.39,64.13L154.48,63.58L154.09,63.54L154.11,64.85L152.78,66.27L150.42,67.97L147.49,69.38"/><path d="M148.13,99.74L155.09,97.84L156.48,95.36L156.10,94.89L155.74,94.90L153.77,95.42"/><path d="M149.01,99.22L148.61,99.33L149.62,97.42L156.05,95.71L155.03,97.58L149.01,99.22"/><path d="M152.31,90.89L151.84,90.72L151.16,90.89L149.68,91.95L148.65,93.52L148.57,94.08L148.78,94.49"/><path d="M148.74,94.46L150.00,95.74"/><path d="M155.56,65.10L156.39,65.41L156.83,65.87L156.83,66.11L153.23,68.54L148.49,70.75"/><path d="M148.92,70.58L156.42,78.02"/><path d="M148.42,70.66L149.27,70.31"/><path d="M149.55,97.54L153.92,96.27"/><path d="M149.01,96.67L150.87,96.18"/><path d="M149.49,97.16L156.51,95.30"/><path d="M150.18,95.90L150.02,95.76L150.52,96.09L151.18,96.19"/><path d="M155.58,65.35L155.19,66.19L153.37,67.94L151.67,69.10L149.40,70.25"/><path d="M157.00,77.73L149.57,70.28"/><path d="M150.83,69.76L153.42,68.02L155.37,65.98"/><path d="M151.88,96.02L151.50,96.14"/><path d="M151.47,96.15L151.22,96.19"/><path d="M153.85,96.39L155.03,97.58"/><path d="M153.92,95.20L154.18,94.59L154.08,94.28"/><path d="M153.53,93.73L153.56,93.77"/><path d="M153.91,92.62L154.03,93.34L153.86,94.06"/><path d="M153.99,89.63L153.44,92.02"/><path d="M153.91,65.10L153.83,63.96L154.06,63.56"/><path d="M155.09,104.30L155.95,104.04"/><path d="M158.30,104.96L159.43,104.56L160.66,102.46L159.49,102.79L158.30,104.91L156.57,103.40"/><path d="M156.37,103.76L156.34,103.79"/><path d="M156.90,99.25L159.81,93.94"/><path d="M159.85,84.48L160.36,84.96L156.74,91.68L158.79,91.16L162.41,84.48L161.95,84.03L159.85,84.48L156.25,91.20L156.74,91.68"/><path d="M157.55,77.86L167.49,76.67L167.84,76.81L169.22,78.12L166.90,78.24L158.95,79.29L157.41,77.72L157.12,77.69L156.60,77.99"/><path d="M167.29,76.68L156.67,65.65"/><path d="M156.68,65.67L158.34,65.40L158.54,66.37"/><path d="M158.13,101.03L158.52,100.89L158.84,100.37"/><path d="M157.79,91.42L157.75,91.92L159.93,93.96L163.72,91.56L159.94,98.39"/><path d="M157.22,91.27L160.46,85.24L161.94,84.90L158.69,90.90L157.22,91.27"/><path d="M158.69,90.90L157.86,90.08"/><path d="M158.08,79.42L158.53,79.13L158.87,79.13"/><path d="M160.68,102.39L158.87,100.36"/><path d="M158.22,100.99L158.17,101.01"/><path d="M159.04,98.06L159.48,97.93L159.95,98.41"/><path d="M158.87,67.94L158.87,67.92"/><path d="M159.77,93.92L159.79,93.42L160.36,92.75L163.85,90.44L164.34,90.40L164.28,90.91L163.72,91.56"/><path d="M164.34,90.40L162.20,88.37L161.76,88.51L159.39,90.06"/><path d="M160.36,84.96L162.41,84.48"/><path d="M162.77,84.76L161.61,86.89L162.10,87.37L163.26,85.24L162.77,84.76L167.25,83.70L167.71,84.12L164.33,90.38"/><path d="M162.10,87.37L164.86,86.70L163.36,89.44"/><path d="M164.00,86.91L162.87,88.96"/><path d="M163.26,85.24L167.76,84.17"/><path d="M169.45,80.60L169.42,81.26L164.35,90.42"/><path d="M169.28,78.17L169.42,78.82L168.92,79.98"/></g></g><g id="Actor_.6"><g style="stroke:#000000;stroke-width:0.123"><path d="M77.65,106.87L77.56,106.76L77.66,106.85"/><path d="M78.45,103.56L78.37,103.48L77.56,106.76"/><path d="M78.35,103.46L78.50,103.36"/><path d="M82.48,107.71L85.17,107.01"/><path d="M95.11,117.39L84.05,105.80L83.93,104.68L85.89,96.67L85.02,97.52"/><path d="M84.15,105.94L84.21,106.01"/><path d="M84.73,96.70L85.44,96.00"/><path d="M85.50,82.18L84.41,77.60L85.48,77.37"/><path d="M84.86,77.47L84.92,77.73"/><path d="M85.89,96.67L85.37,96.27L87.55,87.92"/><path d="M85.51,82.23L85.46,82.19"/><path d="M86.97,78.90L87.34,79.45L87.29,80.00"/><path d="M87.56,80.10L87.76,79.83L87.79,79.33L87.54,78.88L87.14,78.67"/><path d="M89.94,77.11L90.82,77.78L90.92,78.12L92.03,82.28L91.38,82.47"/><path d="M89.27,76.74L89.60,76.85"/><path d="M90.48,77.52L91.18,75.76"/><path d="M92.03,82.28L91.36,82.40"/><path d="M123.11,84.98L115.07,76.37L102.38,76.41L96.20,76.16L92.44,75.39L91.74,75.43L91.23,75.71"/><path d="M125.92,86.23L124.40,84.64L138.87,81.23L146.84,79.63L156.60,77.99L158.08,79.42L143.12,82.16L125.99,86.23L125.53,86.14L124.84,86.54L123.30,84.93L108.86,88.93L107.78,89.44L106.78,90.29L105.93,91.55L95.22,117.03L95.09,117.80L95.29,118.22"/><path d="M95.28,118.21L96.69,119.89L96.49,119.30L96.64,118.70L107.43,93.33L108.32,91.99L109.33,91.14L110.41,90.62L124.84,86.54"/><path d="M96.69,119.89L97.11,120.09L97.83,120.04"/><path d="M100.03,122.36L96.77,118.87L97.85,116.33L98.27,116.05L99.90,115.70L102.64,119.33L101.06,119.89L100.02,122.16L100.08,122.39L101.65,121.88L102.70,119.41"/><path d="M96.83,118.99L96.85,119.01"/><path d="M103.08,116.78L102.28,116.95L101.86,116.83L100.29,115.00L110.17,92.03L110.92,91.27L167.61,78.90L169.39,80.47"/><path d="M100.53,116.54L100.88,115.73"/><path d="M102.60,119.76L120.30,114.56"/><path d="M103.10,116.78L103.07,116.78"/><path d="M105.33,115.61L106.32,113.37L105.83,112.80L104.84,115.04L105.33,115.61L158.87,100.36L160.68,102.39L159.49,102.79L158.30,104.91L156.57,103.40"/><path d="M106.32,113.37L109.21,112.57L108.71,112.00L105.83,112.80"/><path d="M107.45,107.56L110.06,101.48L114.42,100.40L111.70,106.44L107.45,107.56"/><path d="M107.37,107.58L106.57,106.67L106.60,106.52L109.21,100.54L110.06,101.48"/><path d="M108.71,112.00L111.13,106.60"/><path d="M109.21,112.57L113.43,103.18L113.26,102.99"/><path d="M114.42,100.40L113.90,99.83L110.10,100.75L109.21,100.54"/><path d="M159.81,93.94L156.90,99.25L111.56,111.91L114.75,104.90L124.01,102.48L131.21,95.19L154.64,89.48L153.93,92.53L152.32,90.90"/><path d="M111.93,111.11L156.43,98.78L156.90,99.25"/><path d="M112.52,99.06L112.01,98.49L112.94,96.38L113.48,96.93L112.52,99.06"/><path d="M113.43,103.18L118.29,101.94L120.50,97.14L112.53,99.07"/><path d="M113.50,102.46L117.78,101.38L118.29,101.94"/><path d="M113.48,96.93L123.51,94.56L120.33,101.42L123.93,100.51L131.18,93.15L157.10,86.99L155.34,94.35L153.92,95.20L154.13,94.35L153.80,94.21L153.19,94.46L152.28,95.36L152.04,95.96L152.12,96.26L152.42,96.34L153.03,96.09L153.92,95.20"/><path d="M112.95,96.35L122.99,94.00L123.51,94.56"/><path d="M117.61,76.26L116.55,76.31L115.82,76.11L115.07,76.37"/><path d="M116.82,108.22L116.33,107.66L117.53,105.05L126.02,102.81L126.52,103.35L125.29,105.91L116.82,108.22L118.03,105.60L126.52,103.35"/><path d="M116.50,76.32L124.04,84.53"/><path d="M117.36,107.76L118.23,105.87L126.00,103.80L125.11,105.65L117.36,107.76"/><path d="M117.53,105.05L118.03,105.60"/><path d="M117.78,101.38L119.63,97.35"/><path d="M119.57,115.24L119.23,114.86"/><path d="M119.61,115.28L120.00,115.51L120.55,115.49L140.47,109.57L140.93,109.25"/><path d="M120.48,115.52L120.48,115.52"/><path d="M120.25,115.54L120.23,115.54"/><path d="M120.24,114.57L120.22,114.57"/><path d="M131.18,93.15L130.67,92.60L123.42,99.96L120.69,100.65"/><path d="M123.42,99.96L123.93,100.51"/><path d="M123.30,84.93L123.99,84.53L124.40,84.64"/><path d="M122.85,75.92L129.44,75.24L135.16,74.36L140.59,73.21L145.27,71.90"/><path d="M125.11,105.65L123.92,104.35"/><path d="M134.37,99.20L134.56,98.07L134.14,97.18L132.63,95.64L132.00,95.57L131.26,95.81L129.56,97.13L128.96,97.98L128.68,98.77L128.78,99.43L130.33,101.06"/><path d="M131.22,101.41L130.34,101.07"/><path d="M130.67,92.60L156.60,86.50L157.10,86.99"/><path d="M132.35,101.45L131.72,100.63L131.92,100.00L132.41,99.38L133.09,98.88L133.78,98.70L134.66,99.57L134.54,100.17L134.01,100.88L133.28,101.42L132.63,101.59L132.33,101.42L132.30,101.06L132.78,100.19L133.68,99.47L134.19,99.30L134.55,99.38"/><path d="M131.25,101.42L132.18,101.27"/><path d="M132.83,95.80L132.84,95.82"/><path d="M134.05,98.85L134.01,98.81"/><path d="M140.98,109.18L141.36,108.57L141.93,108.17L156.10,103.99L157.65,101.47L158.19,100.99"/><path d="M141.00,109.15L140.95,109.23"/><path d="M141.16,108.83L141.19,108.79"/><path d="M141.17,108.82L141.18,108.81"/><path d="M141.82,108.22L141.85,108.20"/><path d="M148.13,99.74L147.65,99.25L149.01,96.67L149.49,97.16L148.13,99.74L155.09,97.84L156.48,95.36L149.49,97.16"/><path d="M155.03,97.58L148.61,99.33L149.62,97.42L156.05,95.71L155.03,97.58L153.85,96.39L149.55,97.54"/><path d="M152.31,90.89L151.84,90.72L151.16,90.89L149.68,91.95L148.65,93.52L148.57,94.08L148.78,94.49"/><path d="M148.74,94.46L150.00,95.74"/><path d="M156.41,78.02L148.92,70.58L153.95,68.12L156.79,66.16L156.81,65.83L167.29,76.68"/><path d="M148.92,70.58L148.49,70.75"/><path d="M149.01,96.67L150.87,96.18"/><path d="M157.00,77.73L149.57,70.28"/><path d="M151.14,96.19L150.61,96.12L150.04,95.78L150.18,95.90"/><path d="M152.12,96.26L151.49,95.55L151.71,94.84L152.78,93.81L153.32,93.66L153.56,93.77"/><path d="M151.15,96.19L151.88,96.02"/><path d="M153.85,96.39L153.92,96.27"/><path d="M156.51,95.30L156.10,94.89L155.74,94.90L153.77,95.42"/><path d="M154.08,94.28L153.53,93.73"/><path d="M153.91,92.62L154.03,93.34L153.86,94.06"/><path d="M153.99,89.63L153.44,92.02"/><path d="M156.67,65.65L156.76,65.76L156.10,65.22L155.56,65.10"/><path d="M156.61,66.30L155.58,65.35"/><path d="M156.34,103.79L156.36,103.78"/><path d="M156.43,98.78L159.33,93.48"/><path d="M156.74,91.68L158.79,91.16L162.41,84.48L160.36,84.96L156.74,91.68L156.25,91.20L159.85,84.48L161.91,84.00L162.41,84.48"/><path d="M157.55,77.86L167.49,76.67L167.84,76.81L169.22,78.12L166.90,78.24L158.95,79.29L157.41,77.72L157.12,77.69L156.60,77.99"/><path d="M158.54,66.37L158.33,65.40L156.68,65.67"/><path d="M157.79,91.42L157.75,91.92L159.77,93.92L159.79,93.42L160.36,92.75L163.85,90.44L164.34,90.40L164.28,90.91L163.72,91.56L160.27,93.85L159.77,93.92"/><path d="M157.86,90.08L158.69,90.90L157.22,91.27L160.46,85.24L161.94,84.90L158.69,90.90"/><path d="M158.08,79.42L158.53,79.13L158.87,79.13"/><path d="M158.30,104.96L159.43,104.56L160.68,102.39"/><path d="M158.13,101.03L158.22,100.99"/><path d="M158.17,101.01L158.52,100.89L158.84,100.37"/><path d="M158.87,100.36L159.95,98.41L158.65,98.77L161.98,92.73"/><path d="M159.04,98.06L159.48,97.93L159.95,98.41"/><path d="M158.87,67.94L158.87,67.92"/><path d="M159.94,98.39L163.72,91.56"/><path d="M164.34,90.40L162.20,88.37L161.76,88.51L159.39,90.06"/><path d="M159.85,84.48L160.36,84.96"/><path d="M161.98,87.25L162.10,87.37L163.26,85.24L162.77,84.76L161.61,86.89L161.98,87.25"/><path d="M162.10,87.37L164.86,86.70L163.36,89.44"/><path d="M164.00,86.91L162.87,88.96"/><path d="M162.77,84.76L167.25,83.70L167.71,84.12L163.26,85.24"/><path d="M167.76,84.17L164.33,90.38"/><path d="M164.35,90.42L169.38,81.34L169.50,80.91L169.40,80.49"/><path d="M168.92,79.98L169.42,78.82L169.28,78.17"/></g></g><g id="Actor_.7"><g style="stroke:#000000;stroke-width:0.123"><path d="M81.94,105.32L82.01,105.38L81.93,105.33L81.84,105.28L81.73,105.26L81.61,105.25L81.49,105.25L81.36,105.27L81.23,105.31L81.09,105.36L80.95,105.43L80.82,105.51L80.69,105.60L80.56,105.71L80.44,105.82L80.33,105.95L80.24,106.07L80.15,106.21L80.08,106.34L80.02,106.48L79.98,106.61L79.95,106.74L79.94,106.86L79.95,106.98L79.97,107.09L80.01,107.18L80.07,107.27L80.14,107.34L80.00,107.20L79.94,107.11L79.90,107.02L79.88,106.91L79.87,106.79L79.88,106.67L79.91,106.54L79.95,106.41L80.01,106.27L80.08,106.14L80.17,106.01L80.26,105.88L80.37,105.75L80.49,105.64L80.62,105.54L80.75,105.44L80.88,105.36L81.02,105.29L81.16,105.24L81.29,105.20L81.42,105.18L81.54,105.18L81.66,105.19L81.76,105.22L81.86,105.26L81.93,105.31"/><path d="M81.87,107.28L82.00,107.16L82.15,107.00L82.21,106.90L82.26,106.79L82.30,106.65L82.32,106.57L82.34,106.47L82.34,106.37L82.33,106.28L82.30,106.20L82.25,106.12L82.20,106.07L82.13,106.02L82.05,105.99L81.96,105.97L81.86,105.97L81.75,105.98L81.64,106.01L81.53,106.06L81.41,106.11L81.30,106.18L81.20,106.26L81.09,106.35L81.00,106.45L80.92,106.56L80.84,106.67L80.78,106.78L80.74,106.89L80.71,107.00L80.69,107.10L80.69,107.20L80.70,107.30L80.73,107.38L80.78,107.45L80.83,107.51L80.90,107.55L80.99,107.58L81.08,107.60L81.18,107.60L81.28,107.59L81.39,107.56L81.51,107.51L81.62,107.46L81.73,107.39L81.83,107.31L81.94,107.22L82.03,107.12L82.11,107.01L82.18,106.90L82.24,106.79L82.29,106.68L82.32,106.57L82.34,106.50L82.36,106.34L82.38,106.08L82.23,106.05L82.13,106.02L81.90,105.92L81.69,105.82L81.56,105.96L81.43,106.08L81.30,106.18L81.15,106.28L80.99,106.37L80.77,106.47L80.75,106.76L80.72,106.92L80.68,107.07L80.64,107.20L80.54,107.39L80.77,107.50L80.90,107.55L81.10,107.62L81.24,107.65L81.43,107.56L81.58,107.48L81.73,107.39L81.87,107.28L81.87,107.28"/><path d="M80.77,106.47L80.45,106.16L80.44,106.34L80.42,106.48L80.40,106.61L80.37,106.73L80.33,106.85L80.28,106.97L80.22,107.08L80.54,107.39"/><path d="M80.69,107.46L80.54,107.47L80.42,107.46L80.31,107.44L80.22,107.40L80.14,107.34"/><path d="M80.45,106.16L80.61,106.09L80.77,106.01L80.90,105.93L81.02,105.84L81.14,105.74L81.26,105.63L81.37,105.51L81.69,105.82"/><path d="M81.37,105.51L81.72,105.67L81.90,105.74L82.06,105.77L82.38,106.08"/><path d="M82.01,105.38L82.08,105.46L82.11,105.51L82.13,105.54L82.17,105.64L82.20,105.75L82.20,105.86L82.20,105.91"/></g></g><g id="Actor_.8"><g style="stroke:#000000;stroke-width:0.123"><path d="M163.49,60.50L163.25,59.92L163.07,59.46L162.89,58.87L162.77,58.39L162.68,57.87L162.60,57.29L162.57,56.78L162.55,56.01L164.82,55.37L165.11,56.07L165.28,56.54L165.45,57.10L165.57,57.62L165.66,58.11L165.73,58.73L165.76,59.24L165.77,59.89L163.49,60.50L163.84,60.84L164.10,61.06L164.43,61.31L164.76,61.53L165.54,61.95L166.45,62.35L168.72,61.76L168.20,61.25L167.86,60.99L167.56,60.79L166.78,60.35L165.77,59.89"/><path d="M164.82,55.37L165.54,54.65L166.06,54.05L166.49,53.45L166.67,53.13L166.84,52.79L164.58,53.44L163.81,54.22L163.27,54.84L162.88,55.40L162.55,56.01"/><path d="M170.40,56.49L170.54,57.15L170.61,57.70L170.62,58.21L170.58,58.70L170.51,59.16L170.38,59.60L170.22,59.98L170.01,60.32L169.77,60.61L169.59,60.76L169.43,60.87L169.09,61.02L168.77,61.09L168.43,61.09L168.08,61.01L167.74,60.87L167.39,60.66L166.95,60.28L166.74,60.05L166.45,59.67L166.27,59.38L166.03,58.93L165.76,58.27L165.57,57.58L165.46,56.81L165.44,56.35L165.45,56.01L165.53,55.37L165.64,54.92L165.86,54.39L166.00,54.16L166.15,53.95L166.41,53.69L166.60,53.56L166.80,53.45L167.11,53.34L167.45,53.31L167.68,53.33L167.91,53.37L168.14,53.45L168.37,53.56L168.60,53.70L168.82,53.86L168.65,53.73L168.76,53.80L169.31,54.24L169.76,54.71L170.01,55.28L170.18,55.74L170.44,56.61L170.18,55.82L170.04,55.51L169.81,55.05L169.54,54.64L169.35,54.39L169.15,54.16L168.82,53.86"/><path d="M166.20,57.95L166.08,57.48L166.00,57.01L165.97,56.54L165.98,56.23L166.01,55.94L166.09,55.52L166.22,55.14L166.39,54.82L166.60,54.54L166.84,54.33L167.11,54.19L167.31,54.13L167.51,54.10L167.81,54.12L168.13,54.22L168.44,54.38L168.64,54.52L168.93,54.78L169.11,54.99L169.37,55.34L169.59,55.74L169.72,56.02L169.83,56.32L169.96,56.77L170.03,57.08L170.09,57.55L170.10,58.01L170.08,58.31L170.04,58.59L169.95,59.00L169.81,59.36L169.69,59.57L169.56,59.76L169.33,60.00L169.17,60.12L168.89,60.24L168.70,60.29L168.39,60.30L168.08,60.24L167.87,60.16L167.66,60.05L167.36,59.83L167.17,59.64L166.89,59.32L166.64,58.96L166.50,58.69L166.36,58.40L166.20,57.95"/><path d="M166.21,57.06L166.22,56.56L166.31,56.10L166.39,55.90L166.48,55.72L166.59,55.57L166.72,55.44L166.86,55.34L167.01,55.27L167.17,55.23L167.34,55.23L167.51,55.25L167.68,55.31L167.85,55.40L168.02,55.51L168.33,55.83L168.60,56.23L168.81,56.70L168.95,57.20L169.00,57.71L168.97,58.20L168.93,58.43L168.83,58.74L168.73,58.92L168.62,59.07L168.43,59.26L168.28,59.34L168.13,59.40L167.97,59.42L167.80,59.41L167.54,59.34L167.37,59.26L167.13,59.08L166.96,58.92L166.81,58.74L166.68,58.54L166.50,58.20L166.32,57.71L166.26,57.45L166.21,57.06"/><path d="M166.21,56.82L166.40,57.23L166.53,57.59L166.61,57.98L166.64,58.48"/><path d="M166.84,52.79L167.37,53.02L167.94,53.30L168.65,53.73"/><path d="M170.55,57.18L170.52,56.97L170.65,57.89L170.68,58.39L170.69,59.15L170.39,59.76L170.01,60.33L169.49,60.97L168.72,61.76"/><path d="M170.01,60.33L170.08,60.22"/><path d="M170.52,56.97L170.44,56.61"/><path d="M170.30,56.15L170.39,56.44"/><path d="M170.48,56.79L170.45,56.66"/></g></g><g id="Actor_.9"><g style="stroke:#000000;stroke-width:0.123"><path d="M152.63,185.66L143.57,172.82L143.36,172.80L143.18,172.84L142.72,173.04L141.96,173.48L141.18,174.02L140.07,174.97L139.71,175.37L139.60,175.53L139.53,175.77L148.58,188.75"/><path d="M139.54,175.67L139.69,174.84L139.76,174.72L140.24,174.18L141.02,173.54L141.86,172.99L142.51,172.69L142.64,172.67L143.49,172.79"/><path d="M148.03,192.04L147.36,192.11L147.26,192.08L146.48,190.97L146.61,191.11L146.46,190.87L146.47,190.82L146.68,190.90L146.55,190.65L146.58,190.58L146.86,190.61L146.75,190.35L146.81,190.26L147.17,190.24L147.07,189.97L147.16,189.87L147.58,189.81L147.49,189.53L147.61,189.41L148.09,189.32L148.01,189.03L148.16,188.91L148.69,188.79L148.62,188.50L148.78,188.37L149.35,188.24L149.29,187.94L149.46,187.81L150.06,187.67L150.01,187.38L150.18,187.24L150.80,187.11L150.75,186.82L150.93,186.69L151.55,186.57L151.49,186.29L151.67,186.16L152.28,186.07L152.22,185.80L152.39,185.68L152.98,185.63L152.91,185.36L152.66,185.66"/><path d="M146.47,190.82L146.59,190.74"/><path d="M146.48,190.97L146.52,190.95"/><path d="M146.81,190.26L147.11,190.08"/><path d="M146.58,190.58L146.79,190.45"/><path d="M149.06,193.52L147.90,191.86L148.35,191.66L148.75,191.43L149.09,191.16L149.39,190.85L149.89,190.08L150.15,189.52L151.32,191.20L151.31,191.99L151.19,192.68L150.95,193.19L150.47,193.74L150.27,194.03L150.26,194.20L150.44,194.23L151.01,194.02L151.88,193.53L152.95,192.83L154.21,191.92L155.67,190.74L156.51,189.96L157.02,189.37L157.14,189.13L157.13,189.05L156.98,189.01L156.43,189.21L155.56,189.68L154.47,190.39L152.41,191.93L150.59,193.51L150.34,193.60L149.85,193.65L149.06,193.52L149.80,193.99L150.33,194.23"/><path d="M147.26,192.08L147.22,192.01L147.23,191.90L147.42,191.55L148.10,190.77L149.64,189.38L151.09,188.23L152.60,187.14L154.42,186.00L155.43,185.51L155.87,185.38L156.09,185.42L156.10,185.60L155.83,186.23L155.69,186.45L155.52,186.62L155.33,186.73L155.10,186.79L154.85,186.80L154.16,186.68L153.67,187.26L153.15,187.79L152.64,188.22L152.11,188.60L151.53,188.93L150.86,189.25L150.15,189.52"/><path d="M147.16,189.87L147.54,189.66"/><path d="M147.61,189.41L148.06,189.20"/><path d="M148.16,188.91L148.67,188.71"/><path d="M151.32,191.20L152.10,191.24L152.77,191.19L153.18,191.11L153.57,190.97L153.99,190.72"/><path d="M151.38,186.61L151.49,186.29"/><path d="M152.01,186.11L152.22,185.80"/><path d="M152.91,185.36L153.06,185.26L153.62,185.24L153.55,184.98L153.69,184.90L154.19,184.93L154.11,184.68L153.86,184.91"/><path d="M153.55,184.98L153.29,185.25"/><path d="M154.08,190.66L154.55,190.18L154.89,189.62L155.15,188.98L155.33,188.34L156.02,188.80L156.44,189.00L156.64,189.05L156.83,189.04L157.02,188.87L157.08,188.53L156.99,187.86L155.83,186.23"/><path d="M154.16,186.68L155.33,188.34"/><path d="M154.37,184.65L154.58,184.47L154.67,184.70L154.23,184.62L154.11,184.68"/><path d="M155.31,184.38L155.34,184.36L155.48,184.56L155.20,184.30L155.33,184.52L155.02,184.32L154.94,184.34L155.05,184.56L154.68,184.43L154.58,184.47"/><path d="M154.94,184.34L154.79,184.47"/><path d="M156.09,185.42L155.34,184.36"/><path d="M155.20,184.30L155.11,184.38"/><path d="M157.07,188.37L157.14,189.13"/></g></g><g id="Actor_.10"><g style="stroke:#000000;stroke-width:0.123"><path d="M117.08,153.83L116.36,152.79L116.07,151.62L116.88,150.06L117.00,149.92L118.70,148.02L121.05,146.06L123.67,144.33L126.14,143.12L128.28,142.54L129.40,142.81L129.61,142.93L130.34,143.96L130.46,144.95L129.56,146.52L127.81,148.43L125.46,150.39L122.85,152.13L120.34,153.40L118.32,154.00L117.08,153.83L116.84,152.90L117.67,151.33L119.45,149.36L121.90,147.31L124.64,145.50L127.21,144.23L129.21,143.70L130.34,143.96"/><path d="M121.84,150.42L122.70,150.25L123.94,149.57L125.09,148.63L125.73,147.78L125.61,147.35L124.76,147.50L123.51,148.19L122.34,149.15L121.70,150.00L121.84,150.42"/><path d="M122.12,149.43L122.70,150.25"/></g></g><g id="Actor_.11"><g style="stroke:#000000;stroke-width:0.123"><path d="M115.24,76.28L111.50,76.34L107.13,76.22L102.62,75.90L97.97,75.38L96.30,74.99L93.70,73.88L93.85,73.09L93.75,73.36"/><path d="M93.70,73.88L93.57,74.21L95.93,75.22L97.27,75.61L101.73,76.15L105.90,76.48"/><path d="M93.57,74.21L93.70,73.47"/><path d="M93.85,73.09L94.13,72.85L94.50,72.83L96.60,73.68L97.43,73.91L103.73,74.61L110.14,74.93L115.80,74.84"/><path d="M93.73,73.39L93.71,73.46"/><path d="M117.38,76.18L116.40,76.23"/><path d="M119.59,74.64L118.35,74.72"/><path d="M143.49,70.76L138.69,72.03L133.61,73.04L127.86,73.88L122.18,74.45"/><path d="M144.96,71.87L139.82,73.27L134.62,74.33L128.84,75.20L122.81,75.82"/><path d="M145.98,69.94L145.31,70.17"/><path d="M153.91,65.10L153.96,64.77L153.83,63.88L154.06,63.56L154.17,64.56L154.11,64.85L152.78,66.27L151.79,67.07L150.42,67.97L149.09,68.68L147.49,69.38"/><path d="M149.27,70.31L148.42,70.66"/><path d="M154.06,63.56L154.48,63.58L155.39,64.13L155.58,65.34L155.43,65.91L154.34,67.09L152.84,68.34L151.35,69.28L149.40,70.25"/><path d="M150.82,69.76L152.12,68.99L153.42,68.02L154.56,66.96L155.37,65.98"/><path d="M155.40,65.94L155.42,65.91"/></g></g><g id="Actor_.12"><g style="stroke:#000000;stroke-width:0.123"><path d="M125.27,165.71L125.05,164.91L125.90,163.44L127.70,161.51L130.18,159.44L132.94,157.55L135.52,156.16L137.52,155.47L138.65,155.58L139.40,156.64L139.46,156.89L139.55,157.74L138.52,159.35L136.81,161.15L136.62,161.30L134.52,163.05L132.00,164.80L129.58,166.13L127.43,166.93L126.23,166.92L126.02,166.79L125.27,165.71"/><path d="M130.60,163.34L131.34,162.42L132.68,161.32L134.11,160.47"/><path d="M131.67,163.02L131.29,162.48"/><path d="M130.82,163.27L130.77,163.13"/><path d="M134.10,160.48L134.83,160.28"/></g></g><g id="Actor_.13"><g style="stroke:#000000;stroke-width:0.123"><path d="M158.85,67.92L158.92,67.85L158.97,67.78L159.01,67.70L159.04,67.61L159.06,67.51L159.07,67.40L159.08,67.29L159.07,67.18L159.05,67.07L159.02,66.96L158.98,66.85L158.93,66.75L158.87,66.66L158.81,66.57L158.74,66.50L158.67,66.44L158.59,66.40L158.51,66.37L158.44,66.35L158.36,66.35L158.29,66.36L158.22,66.39L158.15,66.44L158.10,66.50L158.05,66.57L158.01,66.65L157.97,66.74L157.95,66.84L157.94,66.97"/><path d="M157.83,66.86L157.81,66.81L157.93,66.68L158.02,66.59L158.09,66.50L158.15,66.41L158.20,66.33L158.25,66.24L158.45,66.32L158.56,66.38L158.67,66.44L158.76,66.51L158.83,66.56L158.89,66.62L158.98,66.84L159.03,66.99L159.05,67.07L159.06,67.15L159.08,67.30L159.09,67.44L159.10,67.57L159.04,67.68L158.99,67.77L158.92,67.85L158.86,67.93"/><path d="M157.81,66.81L157.78,66.81"/><path d="M158.25,66.24L157.90,66.33L157.86,66.40L157.82,66.48L157.77,66.56L157.66,66.68"/><path d="M158.18,66.25L158.08,66.21L157.99,66.18L157.90,66.17L157.81,66.17L157.64,66.21L157.56,66.25L157.48,66.30L157.41,66.37L157.39,66.40"/><path d="M157.72,66.19L157.63,66.23L157.56,66.28L157.49,66.35L157.42,66.43"/></g></g><g id="Actor_.14"><g style="stroke:#000000;stroke-width:0.123"><path d="M214.81,41.43L204.82,44.25L204.57,44.33L204.35,44.49L204.16,44.72L204.00,45.03L203.89,45.39L203.83,45.80L203.81,46.24L203.84,46.71L203.92,47.18L204.21,48.09L204.53,48.70L204.89,49.16L204.35,48.67L204.15,48.42L203.83,47.78L203.72,47.42L203.61,46.67L203.68,45.98"/><path d="M203.68,45.99L204.00,45.03"/><path d="M216.14,46.90L205.97,49.63L205.71,49.63L205.43,49.55L205.16,49.40L204.89,49.16"/><path d="M214.89,42.82L214.81,41.39L214.85,40.69L214.93,40.02L215.07,39.40L215.25,38.85L215.48,38.36L215.75,37.95L216.05,37.62L216.39,37.37L216.76,37.21L217.26,37.07L216.89,37.23L216.55,37.47L216.25,37.80L215.98,38.22L215.75,38.70L215.57,39.26L215.43,39.88L215.35,40.58L215.31,41.25L215.33,41.99L215.40,42.75L215.69,44.27L215.91,45.02L216.16,45.73L216.46,46.41L216.79,47.05L217.15,47.62L217.53,48.13L218.08,48.70L218.35,48.92L218.77,49.20L219.19,49.38L219.60,49.48L220.00,49.48L220.38,49.39L219.50,49.61L219.10,49.61L218.69,49.51L218.27,49.33L217.85,49.06L217.43,48.70L217.03,48.26L216.65,47.75L216.29,47.18L215.96,46.55L215.66,45.87L215.40,45.15L215.19,44.41L215.02,43.65L214.89,42.82"/><path d="M218.66,40.07L216.38,40.71L216.74,41.53L216.99,42.23L217.19,42.93L217.33,43.62L217.42,44.38L217.45,45.20L217.44,46.05L218.06,46.36L219.06,46.98L219.78,47.63L220.09,48.00L220.35,48.40L222.62,47.80L222.18,47.16L221.81,46.76L221.35,46.38L220.80,46.01L219.72,45.44L219.73,44.06L219.64,43.17L219.48,42.30L219.23,41.45L218.66,40.07L219.27,39.41L220.00,38.45L220.23,38.03L220.40,37.62L220.53,37.17L221.50,37.69L222.04,38.06L222.50,38.45L222.83,38.81L223.14,39.24L223.69,40.25L224.10,41.42L224.36,42.66L224.44,43.88L224.41,44.45L224.34,44.99L224.22,45.48L224.06,45.91L223.86,46.28L223.62,46.58L223.35,46.80L223.06,46.94L222.74,46.99L222.41,46.96L222.07,46.85L221.72,46.65L221.38,46.37L221.05,46.02L220.73,45.59L220.44,45.11L219.94,43.99L219.74,43.38L219.48,42.12L219.41,41.49L219.43,40.29L219.51,39.75L219.63,39.25L219.80,38.82L220.01,38.45L220.25,38.16L220.53,37.95L220.83,37.82L221.15,37.78L221.48,37.82L221.82,37.95L222.17,38.16"/><path d="M216.38,40.71L216.84,40.22L217.55,39.35L217.99,38.59L218.26,37.82L220.53,37.17"/><path d="M217.44,46.05L219.72,45.44"/><path d="M217.26,37.07L217.64,37.00L218.04,37.03L218.46,37.14L218.87,37.35L219.17,37.56"/><path d="M220.38,49.39L220.73,49.22L221.06,48.96L221.36,48.61L221.67,48.05"/><path d="M222.62,47.80L223.16,47.22L223.85,46.29L224.11,45.84L224.29,45.40L224.43,44.87L224.45,44.10L224.42,43.27"/><path d="M223.69,40.25L223.39,39.60L222.90,38.86L222.51,38.45L222.04,38.06"/><path d="M224.10,41.42L224.35,42.61"/></g></g><g id="Actor_.15"><g style="stroke:#000000;stroke-width:0.123"><path d="M210.60,82.14L205.77,87.80L205.67,88.00L205.65,88.24L205.72,88.48L207.54,91.93L207.60,92.52L207.50,92.89L203.46,101.33L203.03,101.98L202.51,102.42L200.50,103.12L200.31,103.14L200.17,102.96L200.19,102.71L200.30,102.41L204.35,93.87L204.45,93.50L204.43,93.10L204.30,92.71L202.50,89.29L202.47,89.04L202.54,88.81L208.48,81.75L208.66,81.62L208.97,81.61L214.20,83.28L214.55,83.26L215.00,82.99L215.27,82.50L215.28,81.90L213.80,74.49L213.76,73.87L213.91,73.38L214.09,73.19L216.08,72.70L213.57,73.30L213.33,73.63L213.25,73.98L213.28,74.60L214.76,82.00L214.75,82.29L214.62,82.54L214.40,82.67L214.13,82.67L209.08,81.04L208.72,81.00L208.38,81.10L208.10,81.32L202.13,88.43L201.98,88.94L202.06,89.50L203.88,92.98L203.96,93.33L203.90,93.55L199.80,102.25L199.73,102.53L199.76,102.73L200.24,103.11"/><path d="M201.86,101.20L201.99,101.20L202.19,101.09L202.49,100.77L202.72,100.28L202.67,100.08L202.53,100.08L202.34,100.19L202.04,100.51L201.83,100.89L201.80,101.09L201.86,101.20"/><path d="M205.75,86.22L205.75,86.10L205.85,85.91L207.00,84.56L207.52,84.13L207.76,84.01L207.96,84.01L207.97,84.13L207.86,84.32L206.72,85.67L206.20,86.09L205.90,86.23L205.75,86.22"/><path d="M208.55,81.03L211.85,80.17L212.23,80.21L214.55,80.94"/><path d="M214.55,83.26L217.83,82.33L218.23,81.98L218.42,81.44L218.40,81.05L216.89,73.53L216.74,73.16L216.54,72.88L216.31,72.72L216.08,72.70"/><path d="M215.48,75.22L215.61,75.49L215.78,75.65L215.96,75.68L216.16,75.47L216.21,75.07L216.15,74.72L216.02,74.45L215.76,74.26L215.59,74.30L215.47,74.47L215.42,74.90L215.48,75.22"/><path d="M215.46,74.50L215.67,74.98L215.70,75.30L215.65,75.54"/></g></g><g><g><path style="stroke:#000000;stroke-width:0.208;stroke-dasharray:2.2 2.2" d="M153.17,79.17L208.94,88.40"/></g></g><g><g><path style="stroke:#000000;stroke-width:0.208;stroke-dasharray:2.2 2.2" d="M82.07,89.52L147.39,182.63"/></g></g><g><g><path style="stroke:#000000;stroke-width:0.208;stroke-dasharray:2.2 2.2" d="M86.75,79.55L213.15,44.81"/></g></g><g id="PMI5.0"><g><path style="stroke:#000000;stroke-width:0.281" d="M140.60,118.88L137.42,118.88L136.32,112.69"/></g><g><path style="fill:#000000" d="M137.30,112.51L135.33,112.87L135.97,110.72z"/></g><g><path style="fill:#ffffff" d="M139.96,121.41L154.49,121.41L154.49,116.34L139.96,116.34z"/><path style="stroke:#000000;stroke-width:0.281;stroke-opacity:0.98" d="M139.96,121.41L154.49,121.41L154.49,116.34L139.96,116.34z"/><text xml:space="preserve" fill="#000000" stroke-width="0" x="140.60" y="119.99" font-size="3.06" opacity="1.00" font-family="Microsoft Sans Serif">MST0012</text></g></g><g id="PMI6.0"><g><path style="stroke:#000000;stroke-width:0.281" d="M221.98,81.65L219.71,81.61"/></g><g><path style="fill:#000000" d="M219.73,80.61L219.69,82.61L217.71,81.57z"/></g><g><path style="fill:#ffffff" d="M221.98,84.36L237.45,84.36L237.45,79.28L221.98,79.28z"/><path style="stroke:#000000;stroke-width:0.281;stroke-opacity:0.98" d="M221.98,84.36L237.45,84.36L237.45,79.28L221.98,79.28z"/><text xml:space="preserve" fill="#000000" stroke-width="0" x="222.61" y="82.93" font-size="3.04" opacity="1.00" font-family="Microsoft Sans Serif">1003BP30</text></g></g><g id="PMI23.0"><g><path style="stroke:#000000;stroke-width:0.281" d="M73.95,93.55L76.46,93.55"/></g><g><path style="fill:#000000" d="M76.47,94.55L76.48,92.55L78.47,93.56z"/></g><g><path style="fill:#ffffff" d="M58.49,96.07L73.97,96.07L73.97,91.00L58.49,91.00z"/><path style="stroke:#000000;stroke-width:0.281;stroke-opacity:0.98" d="M58.49,96.07L73.97,96.07L73.97,91.00L58.49,91.00z"/><text xml:space="preserve" fill="#000000" stroke-width="0" x="59.13" y="94.65" font-size="3.04" opacity="1.00" font-family="Microsoft Sans Serif">1003BP20</text></g></g><g id="PMI7.0"><g><path style="stroke:#000000;stroke-width:0.281" d="M105.01,135.06L107.25,135.02"/></g><g><path style="fill:#000000" d="M107.28,136.01L107.25,134.01L109.26,134.97z"/></g><g><path style="fill:#ffffff" d="M86.56,137.76L105.02,137.76L105.02,132.68L86.56,132.68z"/><path style="stroke:#000000;stroke-width:0.281;stroke-opacity:0.98" d="M86.56,137.76L105.02,137.76L105.02,132.68L86.56,132.68z"/><text xml:space="preserve" fill="#000000" stroke-width="0" x="87.19" y="136.33" font-size="2.79" opacity="1.00" font-family="Microsoft Sans Serif">8072000149</text></g></g><g id="PMI8.0"><g><path style="stroke:#000000;stroke-width:0.281" d="M122.18,165.23L124.15,165.23"/></g><g><path style="fill:#000000" d="M124.16,166.21L124.16,164.21L126.16,165.22z"/></g><g><path style="fill:#ffffff" d="M103.72,167.74L122.19,167.74L122.19,162.66L103.72,162.66z"/><path style="stroke:#000000;stroke-width:0.281;stroke-opacity:0.98" d="M103.72,167.74L122.19,167.74L122.19,162.66L103.72,162.66z"/><text xml:space="preserve" fill="#000000" stroke-width="0" x="104.36" y="166.31" font-size="2.79" opacity="1.00" font-family="Microsoft Sans Serif">8060001112</text></g></g><g id="PMI2.0"><g><path style="stroke:#000000;stroke-width:0.281" d="M161.22,188.74L158.40,188.69"/></g><g><path style="fill:#000000" d="M158.42,187.69L158.38,189.69L156.40,188.65z"/></g><g><path style="fill:#ffffff" d="M161.22,191.44L179.68,191.44L179.68,186.36L161.22,186.36z"/><path style="stroke:#000000;stroke-width:0.281;stroke-opacity:0.98" d="M161.22,191.44L179.68,191.44L179.68,186.36L161.22,186.36z"/><text xml:space="preserve" fill="#000000" stroke-width="0" x="161.85" y="190.01" font-size="2.79" opacity="1.00" font-family="Microsoft Sans Serif">8057006047</text></g></g><g id="PMI9.0"><g><path style="stroke:#000000;stroke-width:0.281" d="M166.91,49.11L166.83,51.50"/></g><g><path style="fill:#000000" d="M165.83,51.47L167.82,51.54L166.76,53.50z"/></g><g><path style="fill:#ffffff" d="M157.67,49.75L176.14,49.75L176.14,44.67L157.67,44.67z"/><path style="stroke:#000000;stroke-width:0.281;stroke-opacity:0.98" d="M157.67,49.75L176.14,49.75L176.14,44.67L157.67,44.67z"/><text xml:space="preserve" fill="#000000" stroke-width="0" x="158.31" y="48.32" font-size="2.79" opacity="1.00" font-family="Microsoft Sans Serif">8072000155</text></g></g><g id="PMI10.0"><g><path style="stroke:#000000;stroke-width:0.281" d="M188.65,63.20L188.61,61.49"/></g><g><path style="fill:#000000" d="M189.60,61.47L187.60,61.52L188.55,59.50z"/></g><g><path style="fill:#ffffff" d="M179.47,68.28L197.94,68.28L197.94,63.20L179.47,63.20z"/><path style="stroke:#000000;stroke-width:0.281;stroke-opacity:0.98" d="M179.47,68.28L197.94,68.28L197.94,63.20L179.47,63.20z"/><text xml:space="preserve" fill="#000000" stroke-width="0" x="180.11" y="66.85" font-size="2.79" opacity="1.00" font-family="Microsoft Sans Serif">8060001108</text></g></g><g id="PMI1.0"><g><path style="stroke:#000000;stroke-width:0.281" d="M220.37,34.21L220.40,36.24"/></g><g><path style="fill:#000000" d="M219.40,36.26L221.40,36.22L220.43,38.24z"/></g><g><path style="fill:#ffffff" d="M211.08,34.22L229.54,34.22L229.54,29.14L211.08,29.14z"/><path style="stroke:#000000;stroke-width:0.281;stroke-opacity:0.98" d="M211.08,34.22L229.54,34.22L229.54,29.14L211.08,29.14z"/><text xml:space="preserve" fill="#000000" stroke-width="0" x="211.71" y="32.79" font-size="2.79" opacity="1.00" font-family="Microsoft Sans Serif">8057037026</text></g></g><g/><g id="paperID" visibility="hidden" opacity="0.00" transform="scale(0.000100)"><path style="stroke:#000000;stroke-width:0.500;fill:#e6e6e6;fill-rule:evenodd" d="M-2000.00,-2000.00L2297.00,-2000.00L2297.00,2210.00L-2000.00,2210.00zM0.00,0.00L297.00,0.00L297.00,210.00L0.00,210.00z"/><path style="fill:#000000;fill-opacity:0.118" d="M3.00,210.00L297.00,210.00L297.00,3.00L300.00,3.00L300.00,213.00L3.00,213.00z"/></g><g id="hotspot.0" onmouseover="ShowHotSpot(evt,'0')" onmouseout="HideHotSpot(evt,'0')" onmousemove="ShowToolTip(evt,'0',&quot;3dp-3-002108&quot;)" opacity="0"><path style="fill:#00ff00;fill-rule:evenodd" d="M210.98,34.25L210.98,29.24L229.62,29.24L229.62,34.25L220.52,34.41L220.54,36.14L221.16,36.35L221.06,37.49L222.83,38.75L223.88,40.69L224.43,43.15L224.44,45.15L223.89,46.23L222.83,47.63L221.88,48.04L221.35,48.60L220.27,49.42L218.41,49.43L216.82,48.03L216.02,46.96L206.91,49.42L205.09,49.40L204.00,48.32L203.71,47.24L203.70,45.94L204.43,44.49L214.53,41.51L215.35,38.78L216.28,37.53L216.97,37.14L218.45,37.13L218.98,37.45L219.72,37.44L219.82,37.14L219.46,36.33L220.05,36.14L220.08,34.41zM158.75,66.59L159.08,67.12L159.04,67.77L158.52,67.68L157.65,66.82L157.57,66.30L158.22,66.26zM82.21,105.80L82.21,107.01L81.84,107.45L80.29,107.45L80.01,107.17L80.02,106.19L81.29,105.23L81.66,105.24z"/></g><g id="hotspot.1" onmouseover="ShowHotSpot(evt,'1')" onmouseout="HideHotSpot(evt,'1')" onmousemove="ShowToolTip(evt,'1',&quot;3dp733362&quot;)" opacity="0"><path style="fill:#00ff00;fill-rule:evenodd" d="M188.74,44.22L190.68,46.11L192.28,48.86L193.10,52.42L192.83,56.04L191.98,58.20L190.41,59.35L188.90,59.99L189.57,61.39L188.94,61.67L188.91,63.14L198.01,63.30L198.01,68.31L179.37,68.31L179.37,63.30L188.47,63.14L188.45,61.68L187.83,61.46L187.88,60.96L188.23,60.39L188.22,59.77L186.29,59.49L184.40,57.83L182.75,55.12L181.91,51.60L181.92,50.32L182.18,47.58L183.16,45.56L185.10,44.23L185.91,43.96L187.64,43.96zM187.68,50.47L188.19,51.59L188.22,53.85L187.38,53.48L186.81,51.88L186.82,50.58L187.08,49.68z"/></g><g id="hotspot.2" onmouseover="ShowHotSpot(evt,'2')" onmouseout="HideHotSpot(evt,'2')" onmousemove="ShowToolTip(evt,'2',&quot;A-0003803-01&quot;)" opacity="0"><path style="fill:#00ff00;fill-rule:evenodd" d="M152.43,185.47L153.32,185.19L154.58,184.54L155.48,184.56L156.06,185.38L156.00,186.47L157.05,188.20L158.24,187.83L158.24,189.55L157.42,189.18L155.52,190.94L151.06,194.12L150.04,194.12L148.97,193.53L148.12,192.20L147.05,191.92L146.75,191.38L146.77,190.38L148.42,188.62L139.70,176.09L139.66,175.10L141.23,173.38L142.31,172.83L143.53,172.81zM158.65,188.65L160.95,188.47L161.11,186.46L179.75,186.45L179.75,191.47L161.11,191.47L160.95,188.91z"/></g><g id="hotspot.3" onmouseover="ShowHotSpot(evt,'3')" onmouseout="HideHotSpot(evt,'3')" onmousemove="ShowToolTip(evt,'3',&quot;Symmetry of 3dp-3-045637&quot;)" opacity="0"><path style="fill:#00ff00;fill-rule:evenodd" d="M90.10,77.47L92.00,85.11L91.93,87.03L86.73,88.12L85.66,88.09L83.26,92.82L83.26,93.55L84.93,97.08L84.93,98.82L82.75,107.27L82.21,108.10L78.84,109.10L77.84,109.09L77.56,108.81L77.56,107.25L79.48,99.35L79.49,98.45L77.58,94.11L76.75,94.49L76.75,92.70L77.29,93.03L78.00,93.02L81.81,85.62L86.04,84.92L84.91,79.66L84.92,77.83L86.19,77.20L89.57,76.91zM74.19,93.38L76.22,93.55L74.19,93.81L74.03,96.10L58.39,96.10L58.39,91.09L74.03,91.09zM87.68,79.08L87.64,80.04L87.11,79.97L87.01,78.81L87.37,78.77zM82.48,90.11L81.64,90.65L81.62,90.11L82.69,88.88L82.99,88.87zM82.21,105.80L82.21,107.01L81.84,107.45L80.29,107.45L80.01,107.17L80.02,106.19L81.29,105.23L81.66,105.24z"/></g><g id="hotspot.4" onmouseover="ShowHotSpot(evt,'4')" onmouseout="HideHotSpot(evt,'4')" onmousemove="ShowToolTip(evt,'4',&quot;3dp-3-042281&quot;)" opacity="0"><path style="fill:#00ff00;fill-rule:evenodd" d="M155.52,64.10L155.69,65.02L156.32,65.47L158.20,65.47L158.54,66.37L157.57,66.29L157.65,66.82L161.78,70.91L163.14,72.55L166.95,76.37L168.30,77.20L169.42,78.29L169.41,78.92L169.03,79.92L169.40,80.46L169.41,81.39L158.94,100.34L160.43,102.27L160.43,102.90L159.21,104.72L157.95,104.72L156.85,103.60L156.50,103.60L156.04,103.99L141.78,108.26L140.79,109.46L136.39,110.81L136.41,111.51L137.00,112.08L136.72,112.73L136.51,113.89L136.13,112.92L135.51,112.69L135.60,111.24L134.99,111.24L121.08,115.36L119.55,115.33L119.25,115.05L118.64,115.06L102.64,119.81L101.83,121.72L101.20,122.18L99.64,122.16L98.57,120.78L98.02,120.24L96.63,119.98L95.28,118.34L94.77,116.94L89.57,111.79L88.22,110.15L85.19,107.14L83.47,107.46L82.65,107.47L84.93,98.82L84.93,97.08L83.26,93.55L83.26,92.82L85.66,88.09L86.73,88.12L91.93,87.03L92.00,85.11L90.38,78.01L90.02,77.18L91.60,73.89L92.46,73.35L92.85,73.35L93.13,73.64L93.02,74.22L93.54,74.24L93.84,73.12L94.48,72.86L96.35,73.68L99.63,74.21L105.63,74.75L115.90,74.75L127.43,74.02L136.34,72.58L143.50,70.75L149.50,68.57L153.20,66.01L153.88,65.32L154.04,63.56L154.37,63.54zM84.62,78.38L84.66,77.54L85.18,77.44zM87.68,79.07L87.61,80.04L87.31,79.95L87.03,78.79L87.35,78.78zM136.78,115.26L136.51,113.89L136.67,114.01zM137.06,116.89L136.78,115.26L136.94,115.37zM137.31,118.28L137.06,116.89L137.21,117.01zM137.58,118.55L139.70,118.72L139.86,116.43L154.41,116.43L154.41,121.44L139.86,121.44L139.70,119.15L137.41,118.99L137.31,118.28z"/></g><g id="hotspot.5" onmouseover="ShowHotSpot(evt,'5')" onmouseout="HideHotSpot(evt,'5')" onmousemove="ShowToolTip(evt,'5',&quot;3dp-3-045637&quot;)" opacity="0"><path style="fill:#00ff00;fill-rule:evenodd" d="M216.80,73.39L218.43,81.05L218.89,81.04L219.55,80.75L219.55,82.47L218.71,82.08L214.80,83.21L213.79,83.22L211.35,82.37L210.43,82.35L205.91,87.65L205.89,88.93L207.56,91.91L207.56,92.83L206.09,96.01L202.80,102.26L200.15,103.14L199.81,102.90L199.89,102.08L203.99,93.25L202.07,89.47L202.09,88.48L208.36,81.11L212.16,80.18L214.36,80.85L213.80,77.21L213.53,75.84L213.45,73.39L215.63,72.84L216.52,72.84zM219.96,81.56L221.72,81.39L221.88,79.37L237.52,79.37L237.52,84.39L221.88,84.39L221.72,81.82z"/></g><g id="hotspot.6" onmouseover="ShowHotSpot(evt,'6')" onmouseout="HideHotSpot(evt,'6')" onmousemove="ShowToolTip(evt,'6',&quot;3dp2690224&quot;)" opacity="0"><path style="fill:#00ff00;fill-rule:evenodd" d="M115.98,130.34L117.09,131.68L118.17,132.24L119.01,133.33L118.44,134.79L116.71,136.64L115.48,137.55L112.64,139.07L111.07,139.36L110.28,138.77L109.96,138.25L109.99,137.11L108.63,135.48L107.54,135.90L107.54,134.12L108.08,134.45L108.79,134.44L109.88,132.76L112.35,130.88L114.26,130.05L115.16,130.05zM105.26,134.80L107.02,134.97L105.26,135.23L105.10,137.79L86.46,137.79L86.46,132.78L105.10,132.78z"/></g><g id="hotspot.7" onmouseover="ShowHotSpot(evt,'7')" onmouseout="HideHotSpot(evt,'7')" onmousemove="ShowToolTip(evt,'7',&quot;3dp733356&quot;)" opacity="0"><path style="fill:#00ff00;fill-rule:evenodd" d="M129.34,142.87L130.15,143.69L130.45,145.13L129.61,146.51L126.91,149.25L122.79,152.22L119.18,153.79L117.08,153.76L116.54,153.21L116.23,152.42L116.23,151.40L117.36,149.52L120.26,146.69L124.07,144.23L127.07,142.87L128.51,142.58zM139.43,156.75L139.43,157.96L138.79,158.95L136.85,161.10L132.61,164.49L127.90,166.86L126.06,166.85L125.29,165.74L124.43,166.15L124.42,164.39L125.42,164.40L126.91,162.33L130.15,159.58L134.24,156.86L136.86,155.66L138.62,155.66zM122.42,165.04L123.91,165.21L122.42,165.47L122.26,167.77L103.62,167.77L103.62,162.75L122.26,162.75z"/></g><g id="hotspot.8" onmouseover="ShowHotSpot(evt,'8')" onmouseout="HideHotSpot(evt,'8')" onmousemove="ShowToolTip(evt,'8',&quot;3dp2690230&quot;)" opacity="0"><path style="fill:#00ff00;fill-rule:evenodd" d="M157.57,49.78L157.57,44.77L176.21,44.77L176.21,49.78L167.11,49.94L167.14,51.40L167.73,51.59L167.47,52.21L167.38,53.02L169.43,54.27L170.49,56.76L170.49,59.60L169.02,61.66L167.12,62.23L166.11,62.24L163.69,60.84L162.83,58.69L162.83,55.47L164.67,53.50L166.41,52.82L166.09,52.13L166.03,51.61L166.65,51.40L166.67,49.94z"/></g></g></svg>
