<?xml version="1.0" encoding="UTF-8" standalone="no"?>
<svg xmlns="http://www.w3.org/2000/svg" xmlns:xlink="http://www.w3.org/1999/xlink" width="297.000mm" height="210.000mm" viewBox="0.000000 0.000000 297.000000 210.000000" stroke-linejoin="round" stroke-linecap="round" fill="none" fill-rule="evenodd"><desc>Composer Export</desc><script type="text/ecmascript"><![CDATA[
if(typeof(top) != "undefined")
{
	top.ShowPaper = ShowPaper;
}
function ShowHotSpot(evt,hotspotid)
{
	var svgDocument = evt.target.ownerDocument;
	var strId = "hotspot."+hotspotid;
	var hotspot = svgDocument.getElementById(strId);
	if(hotspot)
		hotspot.setAttribute("opacity",".5");
}
function HideHotSpot(evt,hotspotid)
{
	var svgDocument = evt.target.ownerDocument;
	var strId = "hotspot."+hotspotid;
	var hotspot = svgDocument.getElementById(strId);
	if(hotspot)
		hotspot.setAttribute("opacity","0");

	var toolTip = svgDocument.getElementById('ToolTip');
	if(toolTip)
		toolTip.setAttribute("visibility","hidden");
}
function ShowToolTip(evt,hotspotid,strTooltip)
{
	if(strTooltip=="")
	return;

	// change text
	var svgDocument = evt.target.ownerDocument;
	var tiptext = svgDocument.getElementById('ToolTipText');
	if( !tiptext )
	return;
	tiptext.firstChild.nodeValue = " " + strTooltip + "  " ;

	// show tooltip before, else some refresh issue

	var toolTip = svgDocument.getElementById('ToolTip');
	if(!toolTip)
	return;

	toolTip.setAttribute("visibility","visible");
	toolTip.setAttribute("opacity",".95");

	// move tooltip
	// get viewbox

	var root = svgDocument.documentElement;
	var vbox = (root.getAttribute("viewBox")).split(' ');
	var x0 = parseFloat(vbox[0]);
	var y0 = parseFloat(vbox[1]);
	var vboxW = parseFloat(vbox[2]);
	var vboxH = parseFloat(vbox[3]);

	// get default width of svg

	var strW = root.getAttribute("width");
	var svgW = parseFloat(strW);
	if(strW.indexOf('mm') != -1)
	svgW *= 3.779;

	var strH = root.getAttribute("height");
	var svgH = parseFloat(strH);
	if(strH.indexOf('mm') != -1)
	svgH *= 3.779;  	// 96 dpi  -> 96/25.4 = 3.779

	// update the viewbox / width / height if svg is embedded in html with zoom fit all
	var realx0 = x0;
	var realy0 = y0;
	var realvboxW = vboxW;
	var realvboxH = vboxH;
	var realsvgW = svgW;
	var realsvgH = svgH;

	if ((typeof(top) == "undefined") || (typeof(top.svgctl1) != "undefined")) // embedded in html
	{
		// get window size in pxl

		svgW = window.innerWidth;
		svgH = window.innerHeight;

		// calculate real viewbox

		realsvgW = svgW;
		realsvgH = svgH;
		if((svgW / svgH) > (vboxW / vboxH))
		{
			realvboxW = (vboxH * svgW) / svgH;
			realvboxH = vboxH;
			realx0 = x0 - (realvboxW - vboxW)/2 ;
		}
		else
		{
			realvboxH = (vboxW * svgH) / svgW;
			realvboxW = vboxW;
			realy0 = y0 - (realvboxH - vboxH)/2 ;
		}
	}

	// get user zoom/pan

	var newScale = root.currentScale;
	var translation = root.currentTranslate;

	// transform pxl to user unit

	var xPos = (((evt.clientX+10- translation.x)/newScale) * realvboxW)/realsvgW  + realx0 ;
	var yPos = (((evt.clientY+5- translation.y)/newScale) * realvboxH)/ realsvgH  + realy0 ;
	var scaleForWidth = ( (1 / newScale) * realvboxH) / realsvgH;

	// move tooltip

	toolTip.setAttribute("transform", "translate(" + xPos + "," + yPos + ")" );

	// resize tooltip

	var fontsize = 12;
	tiptext.setAttribute("font-size",fontsize*scaleForWidth);
	tiptext.setAttribute("y", fontsize*scaleForWidth);
	var tipBG = svgDocument.getElementById('ToolTipBG');
	var outline = tiptext.getBBox();
	if(tipBG)
	{
		tipBG.setAttribute("stroke-width", 1*scaleForWidth);
		tipBG.setAttribute("width", Number(outline.width) );
		tipBG.setAttribute("height", Number(outline.height) + fontsize*.5*scaleForWidth );
	}
	var ToolTipShadow = svgDocument.getElementById('ToolTipShadow');
	if(ToolTipShadow)
	{
		ToolTipShadow.setAttribute("width", Number(outline.width) );
		ToolTipShadow.setAttribute("height", Number(outline.height) + fontsize*.5*scaleForWidth );
		ToolTipShadow.setAttribute("x", 3*scaleForWidth);
		ToolTipShadow.setAttribute("y", 3*scaleForWidth);
	}
}
function ShowPaper()
{
  var svgDocument = getDocument();
  var paper = svgDocument.getElementById("paperID");
  if(paper)
  {
    paper.setAttribute("transform","scale(1)");
    paper.setAttribute("opacity","1");
    paper.setAttribute("visibility","visible");
  }
  var svg = svgDocument.getRootElement();
  if(svg)
  {
    svg.setAttribute("width","307.000mm");
    svg.setAttribute("height","220.000mm");
    svg.setAttribute("viewBox","-5.000000 -5.000000 307.000000 220.000000");
  }
}
]]></script><defs/><g><g id="Actor_.0"><g style="stroke:#000000;stroke-width:0.123"><path d="M181.84,158.07L181.67,157.93L181.63,157.87L181.59,157.81L181.55,157.74L181.53,157.66L181.51,157.57L181.51,157.48L181.51,157.39L181.52,157.30L181.54,157.20L181.57,157.12L181.61,157.04L181.65,156.96L181.70,156.89L181.76,156.84L181.82,156.79L181.88,156.76L182.10,156.69L182.17,156.67L182.24,156.67L182.84,156.78"/><path d="M182.00,158.14L182.58,158.25L181.97,158.13L181.90,158.11L181.84,158.07"/><path d="M183.03,157.54L182.33,157.41L182.32,157.42L182.31,157.46L182.40,157.46L183.02,157.58"/><path d="M182.31,157.46L182.32,157.48L183.02,157.61"/><path d="M182.30,157.53L182.31,157.49L182.39,157.53L182.30,157.53L182.31,157.54L183.01,157.67"/><path d="M182.30,157.75L182.31,157.79L182.39,157.80L182.30,157.75L182.31,157.73L182.30,157.72L182.30,157.69L182.31,157.67L182.30,157.66L182.38,157.66L182.29,157.62L182.30,157.66"/><path d="M182.38,157.66L183.00,157.78"/><path d="M182.31,157.54L182.30,157.55L182.38,157.59L183.01,157.71"/><path d="M182.30,157.55L182.30,157.59L182.31,157.61L183.00,157.74"/><path d="M182.38,157.59L182.30,157.59"/><path d="M182.29,157.62L182.31,157.61"/><path d="M182.30,157.72L182.38,157.73L182.30,157.69"/><path d="M182.31,157.79L182.32,157.79L182.31,157.81L182.32,157.82L182.40,157.86L182.32,157.85L182.31,157.81"/><path d="M182.38,157.73L183.00,157.85"/><path d="M182.39,157.80L183.00,157.91"/><path d="M182.32,157.85L183.00,157.98"/><path d="M182.33,157.85L182.32,157.87L182.33,157.91L183.01,158.04L182.34,157.91"/><path d="M182.32,157.79L183.00,157.92"/><path d="M183.02,158.09L182.43,157.98L182.34,157.93L182.35,157.91"/><path d="M182.34,157.93L182.35,157.96L182.43,157.98"/><path d="M182.41,157.92L182.32,157.87"/><path d="M182.41,157.15L182.50,157.14L182.42,157.12L182.41,157.15L182.41,157.17L183.10,157.30L183.07,157.40L183.04,157.51L183.01,157.63L183.00,157.76L183.00,157.88L183.01,157.99L183.02,158.11L183.05,158.22L183.08,158.32L183.11,158.40L182.77,158.33"/><path d="M182.39,158.02L182.38,158.03L182.48,158.09L183.04,158.20"/><path d="M182.38,158.04L182.40,158.07L182.48,158.09"/><path d="M182.41,158.07L182.41,158.08L182.51,158.14L183.05,158.24"/><path d="M182.44,158.12L182.44,158.13L182.54,158.18L182.46,158.15L182.44,158.13"/><path d="M182.39,158.02L182.37,158.02L182.36,157.99L182.45,158.04L182.39,158.02"/><path d="M182.36,157.99L182.36,157.97"/><path d="M182.54,158.18L183.07,158.28"/><path d="M182.57,158.25L182.55,158.23L182.65,158.28L182.57,158.25"/><path d="M183.08,158.32L182.57,158.22L182.47,158.17L182.47,158.16"/><path d="M182.51,158.20L182.53,158.22L182.61,158.26L182.51,158.20"/><path d="M182.55,158.23L182.55,158.23"/><path d="M182.65,158.28L183.10,158.37"/><path d="M182.59,158.25L182.69,158.31L183.11,158.39"/><path d="M182.70,158.31L182.74,158.33L183.11,158.40"/><path d="M182.31,157.73L183.00,157.86"/><path d="M182.57,158.22L182.49,158.19L182.47,158.17"/><path d="M182.41,158.09L182.43,158.11L182.51,158.14"/><path d="M182.39,157.53L183.01,157.64"/><path d="M182.61,158.26L183.09,158.35"/><path d="M183.03,158.15L182.45,158.04"/><path d="M182.40,157.86L183.00,157.98"/><path d="M182.31,157.67L183.00,157.80"/><path d="M183.04,157.51L182.41,157.39L182.32,157.40L182.33,157.41"/><path d="M182.37,157.23L182.36,157.27L182.45,157.26L182.37,157.23L182.39,157.23L182.38,157.21L182.47,157.20L182.40,157.17L182.41,157.17"/><path d="M182.45,157.26L183.07,157.38"/><path d="M183.04,157.48L182.35,157.35L182.34,157.33L182.35,157.29L182.36,157.29L183.06,157.42"/><path d="M182.36,157.29L182.36,157.27"/><path d="M182.42,157.12L182.44,157.12L182.44,157.09L182.53,157.08L182.46,157.06L182.44,157.09"/><path d="M182.47,157.20L183.09,157.31"/><path d="M182.38,157.21L182.40,157.17"/><path d="M182.39,157.23L183.08,157.36"/><path d="M182.49,157.01L182.57,157.03L182.47,157.04L182.49,157.01"/><path d="M182.57,157.03L183.17,157.14"/><path d="M182.54,156.95L182.65,156.94L182.57,156.93L182.54,156.95L182.54,156.97"/><path d="M182.51,156.99L182.61,156.98L182.53,156.97L182.51,156.99L182.51,157.02"/><path d="M182.65,156.94L183.23,157.04"/><path d="M183.25,157.00L182.69,156.90L182.58,156.91L182.58,156.93"/><path d="M182.62,156.89L182.62,156.88L182.65,156.86L182.73,156.86L183.28,156.96"/><path d="M182.66,156.86L182.67,156.85L182.69,156.83L182.78,156.83L182.67,156.85"/><path d="M183.31,156.93L182.78,156.83"/><path d="M182.82,156.81L182.74,156.81L182.71,156.82L182.82,156.81L183.33,156.90"/><path d="M182.79,156.79L182.76,156.80L182.87,156.79L182.79,156.79"/><path d="M182.83,156.79L182.80,156.79L182.92,156.78L182.83,156.79"/><path d="M182.80,156.79L182.80,156.79"/><path d="M182.85,156.78L182.96,156.77L183.38,156.85"/><path d="M183.37,156.86L182.92,156.78"/><path d="M183.39,156.84L183.05,156.78"/><path d="M183.39,156.84L183.01,156.77L182.98,156.77"/><path d="M182.50,157.14L183.12,157.25"/><path d="M182.44,157.12L183.12,157.24"/><path d="M182.53,157.08L183.14,157.19"/><path d="M183.15,157.19L182.47,157.06L182.47,157.04"/><path d="M182.34,157.33L182.43,157.32L182.35,157.29"/><path d="M182.35,157.35L182.33,157.36L182.41,157.39"/><path d="M182.33,157.36L182.32,157.40"/><path d="M182.43,157.32L183.05,157.44"/><path d="M182.32,157.42L182.40,157.46"/><path d="M182.32,157.48L182.31,157.49"/><path d="M183.20,157.09L182.61,156.98"/><path d="M182.58,156.91L182.61,156.89L182.69,156.90"/><path d="M182.73,156.86L182.62,156.88"/><path d="M182.75,156.81L182.76,156.80"/><path d="M183.10,157.30L183.15,157.17L183.21,157.07L183.27,156.98L183.34,156.89L183.41,156.81L183.49,156.75L183.58,156.70L183.66,156.66L183.75,156.63L183.84,156.62L183.94,156.62L184.07,156.65L184.15,156.68L184.23,156.72L184.31,156.78L184.38,156.86L184.44,156.94L184.49,157.02L184.53,157.12L184.56,157.23L184.59,157.34L184.60,157.46L184.61,157.57L184.61,157.69L184.60,157.81L184.57,157.93L184.54,158.05L184.51,158.17L184.46,158.27L184.40,158.37L184.34,158.47L184.27,158.56L184.20,158.63L184.12,158.70L184.03,158.75L183.95,158.79L183.87,158.82L183.77,158.83L183.67,158.83L183.59,158.81L183.55,158.81L183.46,158.77L183.37,158.72L183.30,158.67L183.24,158.60L183.17,158.52L183.11,158.40"/><path d="M182.47,157.06L182.46,157.06"/><path d="M182.71,156.83L182.71,156.82"/><path d="M182.87,156.79L183.35,156.88"/><path d="M183.60,158.18L183.66,158.25L183.71,158.28L183.77,158.31L183.82,158.31L183.88,158.31L183.94,158.29L184.00,158.27L184.06,158.23L184.11,158.17L184.15,158.11L184.19,158.04L184.23,157.97L184.25,157.89L184.27,157.80L184.28,157.72L184.28,157.63L184.28,157.55L184.26,157.47L184.23,157.40L184.20,157.33L184.16,157.28L184.12,157.23L184.07,157.20L184.01,157.18L183.96,157.17L183.90,157.17L183.84,157.19L183.77,157.22L183.73,157.25L183.67,157.31L183.63,157.37L183.59,157.44L183.55,157.51L183.53,157.59L183.51,157.68L183.50,157.76L183.50,157.85L183.50,157.93L183.52,158.01L183.55,158.08L183.60,158.18"/></g></g><g id="Actor_.1"><g style="stroke:#000000;stroke-width:0.123"><path d="M112.29,41.26L112.30,41.21L113.64,41.03L113.80,41.11L116.50,44.99"/><path d="M113.66,41.04L156.14,46.36"/><path d="M156.16,46.36L156.25,46.49L156.16,49.59L156.07,49.70L154.70,49.82L116.49,45.34"/><path d="M142.59,46.93L142.39,46.94L142.20,46.84L142.00,46.47L142.04,46.03L142.17,45.84L142.35,45.75L142.68,45.85L142.87,46.22L142.84,46.66L142.59,46.93"/><path d="M142.28,45.77L142.57,45.96L142.71,46.35L142.63,46.73L142.40,46.94"/><path d="M154.67,49.81L154.68,49.82"/></g></g><g id="Actor_.2"><g style="stroke:#000000;stroke-width:0.123"><path d="M137.08,29.65L137.06,29.70L137.03,29.80L137.00,29.90L136.99,30.01L136.99,30.12L137.00,30.22L137.01,30.33L137.04,30.44L137.06,30.50"/></g></g><g id="Actor_.3"><g style="stroke:#000000;stroke-width:0.123"><path d="M157.67,105.89L155.99,170.85L153.12,171.29L149.85,170.54L151.10,119.36"/><path d="M152.00,84.20L151.36,109.38"/><path d="M152.87,49.60L152.08,80.81"/><path d="M152.96,45.96L153.45,26.62"/><path d="M154.89,153.04L155.36,152.85L155.58,152.35L155.20,151.58L154.73,151.76L154.51,152.27L154.60,152.81L154.89,153.04"/><path d="M155.04,151.58L155.29,152.39L154.78,152.99"/><path d="M159.88,20.49L159.87,20.32L157.06,19.80L156.38,19.87"/><path d="M159.78,24.33L157.76,102.50"/></g></g><g id="Actor_.4"><g style="stroke:#000000;stroke-width:0.123"><path d="M151.16,112.57L141.98,111.82L141.72,111.90L141.52,112.18L141.44,112.57L141.40,114.15L141.33,114.54L141.13,114.81L140.87,114.90L136.26,114.48L136.56,101.97L141.17,102.23L141.43,102.35L141.61,102.65L141.67,103.05L141.63,104.64L141.70,105.04L141.88,105.34L142.14,105.46L151.44,106.07"/><path d="M136.56,101.97L136.79,101.97"/><path d="M137.21,101.99L141.41,102.23L141.67,102.35L141.85,102.65L141.91,103.05L141.87,104.64L141.93,105.04L142.12,105.34L142.38,105.46L151.44,106.05"/><path d="M138.11,110.26L137.78,109.71L137.58,109.04L137.52,108.31L137.62,107.59L137.85,106.94L138.20,106.45L138.64,106.14L139.12,106.06L139.59,106.21L140.01,106.57L140.34,107.12L140.55,107.80L140.61,108.54L140.51,109.26L140.28,109.91L139.92,110.40L139.48,110.71L139.00,110.78L138.53,110.63L138.11,110.26"/><path d="M139.20,106.08L138.88,106.14L138.45,106.44L138.09,106.94L137.85,107.58L137.76,108.30L137.82,109.04L138.02,109.71L138.35,110.26L138.77,110.63L139.17,110.76"/><path d="M140.87,114.90L141.11,114.89L141.37,114.81L141.56,114.54L141.64,114.15L141.68,112.56L141.76,112.17L141.96,111.90L142.16,111.83"/></g></g><g id="Actor_.5"><g style="stroke:#000000;stroke-width:0.123"><path d="M93.56,118.00L96.11,121.39L90.48,181.81L87.38,182.29L86.04,181.87L86.09,180.96L92.00,117.69L93.30,117.79L93.55,117.99"/></g></g><g id="Actor_.6"><g style="stroke:#000000;stroke-width:0.123"><path d="M90.48,181.80L90.47,181.82L90.41,181.84L87.07,182.36L86.89,182.37L86.80,182.35L83.27,181.19L83.17,181.15L83.13,181.10L83.12,181.08L83.11,182.00L83.11,182.02L83.16,182.07L83.26,182.12L86.81,183.29L86.91,183.30L87.05,183.30L90.39,182.77L90.45,182.76L90.47,182.73"/><path d="M83.12,181.08L83.16,181.03L83.31,180.96L83.46,180.92L83.81,180.87L85.04,181.27L85.18,181.30L85.58,181.34L86.05,181.33"/><path d="M85.21,181.31L85.22,180.65L86.09,180.93"/><path d="M86.12,180.55L85.71,180.58L85.22,180.65"/><path d="M90.47,182.73L90.49,181.80"/></g></g><g id="Actor_.7"><g style="stroke:#000000;stroke-width:0.123"><path d="M143.42,48.87L138.73,49.30L138.66,49.33L138.62,49.44L138.55,52.29L138.57,52.38L138.63,52.44L140.10,52.61L143.34,52.35"/><path d="M152.82,51.58L145.91,52.14"/></g></g><g id="Actor_.8"><g style="stroke:#000000;stroke-width:0.123"><path d="M156.34,129.94L156.32,129.97L156.34,129.93L156.38,129.84L156.42,129.73L156.45,129.62L156.47,129.51L156.48,129.40L156.49,129.29L156.48,129.18L156.46,129.07L156.44,128.96L156.40,128.86L156.36,128.77L156.31,128.68L156.25,128.60L156.18,128.53L156.12,128.48L156.03,128.43L155.95,128.39L155.86,128.37L155.74,128.36L155.65,128.36L155.55,128.39L155.47,128.42L155.39,128.46L155.31,128.52L155.24,128.58L155.17,128.66L155.11,128.74L155.05,128.84L155.01,128.94L154.97,129.04L154.94,129.15L154.92,129.26L154.91,129.37L154.90,129.49L154.91,129.60L154.93,129.71L154.95,129.82L154.99,129.92L155.03,130.01L155.08,130.09L155.14,130.18L155.21,130.24L155.28,130.30L155.36,130.35L155.44,130.38L155.53,130.41L155.65,130.42L155.74,130.41L155.83,130.39L155.92,130.36L156.00,130.31L156.08,130.26L156.15,130.19L156.22,130.11L156.28,130.03L156.32,129.97L156.28,130.02"/><path d="M155.46,129.76L155.50,129.81L155.54,129.86L155.59,129.89L155.65,129.92L155.71,129.93L155.76,129.93L155.82,129.92L155.86,129.90L155.88,129.90L155.93,129.86L155.99,129.82L156.03,129.76L156.07,129.70L156.11,129.63L156.13,129.57L156.15,129.48L156.16,129.40L156.16,129.32L156.15,129.24L156.13,129.17L156.11,129.10L156.08,129.04L156.04,128.98L155.99,128.94L155.94,128.90L155.89,128.88L155.83,128.87L155.77,128.86L155.71,128.88L155.66,128.90L155.60,128.93L155.55,128.98L155.51,129.03L155.47,129.09L155.43,129.16L155.41,129.24L155.39,129.31L155.38,129.39L155.38,129.47L155.39,129.57L155.40,129.63L155.43,129.70L155.46,129.76"/></g></g><g id="Actor_.9"><g style="stroke:#000000;stroke-width:0.123"><path d="M100.68,46.57L100.69,46.55"/><path d="M100.69,46.54L100.71,46.52"/><path d="M100.72,46.51L102.02,46.37"/><path d="M102.07,46.38L102.05,46.38"/><path d="M102.11,46.41L102.11,46.40"/><path d="M102.19,46.47L102.19,46.48"/><path d="M102.05,46.37L113.49,47.65L113.55,47.68L113.59,47.74L113.60,47.83L113.53,51.11L113.51,51.22L113.47,51.28L113.42,51.31L112.10,51.43L104.67,50.65"/><path d="M104.70,50.34L104.70,50.35"/><path d="M104.69,50.29L104.69,50.29"/></g></g><g id="Actor_.10"><g style="stroke:#000000;stroke-width:0.123"><path d="M134.91,119.97L133.80,166.18L135.81,166.64L137.33,166.41"/><path d="M135.78,83.55L135.00,116.36"/><path d="M135.87,80.04L136.64,47.70"/><path d="M137.33,166.42L138.19,131.10"/><path d="M140.30,44.38L140.81,23.46L139.33,23.15L137.33,23.44L136.73,43.93"/><path d="M138.47,119.84L138.28,127.71"/><path d="M138.56,116.25L138.59,114.69"/><path d="M138.69,110.56L138.80,106.19"/><path d="M139.15,91.85L138.90,102.09"/><path d="M139.35,83.69L139.22,88.70"/><path d="M140.10,52.61L139.43,80.21"/><path d="M140.18,49.17L140.21,48.12"/></g></g><g id="Actor_.11"><g style="stroke:#000000;stroke-width:0.123"><path d="M138.30,127.71L136.86,127.79L136.79,127.81L136.75,127.86L136.72,127.95L136.66,130.76L136.68,130.85L136.72,130.89L150.76,132.84"/><path d="M138.29,127.71L150.85,129.32"/></g></g><g id="Actor_.12"><g style="stroke:#000000;stroke-width:0.123"><path d="M93.79,117.74L92.81,117.62L92.81,117.29L100.68,46.57L102.02,46.37L102.26,46.56L104.70,50.36L97.24,117.69L93.79,117.74"/></g></g><g id="Actor_.13"><g style="stroke:#000000;stroke-width:0.123"><path d="M142.44,88.76L137.80,88.67L137.71,88.71L137.67,88.82L137.60,91.65L137.62,91.74L137.66,91.79L137.72,91.81L142.37,91.94"/><path d="M151.79,92.21L144.92,92.01"/><path d="M151.87,88.95L145.00,88.81"/></g></g><g id="Actor_.14"><g style="stroke:#000000;stroke-width:0.123"><path d="M93.30,117.79L92.00,117.70"/><path d="M92.02,117.65L92.81,117.62"/><path d="M93.30,117.79L93.55,117.99L96.15,121.43L154.25,119.24L154.39,119.09L154.46,116.06L154.36,115.94L154.03,115.91"/><path d="M97.26,117.49L97.78,117.47"/><path d="M101.61,120.03L101.21,119.94L101.00,119.42L101.12,119.01L101.54,118.76L101.87,118.89L102.06,119.39L101.93,119.79L101.61,120.03"/><path d="M101.36,120.02L101.71,119.82L101.89,119.37L101.76,118.96L101.51,118.76"/><path d="M102.97,117.32L149.84,115.92"/><path d="M143.32,117.41L142.94,117.53L142.78,117.87L142.80,118.26L143.09,118.57L143.39,118.51L143.64,118.10L143.56,117.60L143.31,117.40"/><path d="M143.17,117.40L143.37,117.58L143.47,117.95L143.32,118.37L143.05,118.55"/></g></g><g id="Actor_.15"><g style="stroke:#000000;stroke-width:0.123"><path d="M159.75,24.34L158.28,24.08L158.23,24.05L158.18,23.99L158.17,23.89L158.26,20.82L158.28,20.78L158.33,20.74L161.90,20.17L160.91,20.32"/><path d="M159.75,24.34L162.92,23.86"/><path d="M161.90,20.17L163.02,19.99L161.90,20.17"/><path d="M166.91,20.00L166.91,19.91L166.87,19.88L165.42,19.60L165.35,19.61L165.28,19.66L165.18,19.77L162.98,23.16L162.94,23.24"/><path d="M162.94,23.24L162.94,23.33"/><path d="M163.02,19.99L165.39,19.60"/><path d="M165.25,19.63L165.38,19.60"/></g></g><g id="Actor_.16"><g style="stroke:#000000;stroke-width:0.123"><path d="M150.91,116.01L154.08,115.91L154.14,115.90L154.25,115.84L154.30,115.80L154.38,115.69L154.47,115.46L154.49,115.29L154.64,109.35L151.46,109.40L151.31,115.38L151.27,115.64L151.21,115.78L151.12,115.90L151.02,115.97L150.91,116.01L149.73,115.91L149.74,115.57L151.05,115.54"/><path d="M149.74,115.57L150.90,115.67L150.98,115.63L151.05,115.55L151.07,115.49L151.09,115.36L151.24,109.38L151.46,109.40"/><path d="M151.24,109.38L154.41,109.33L154.64,109.35"/></g></g><g id="Actor_.17"><g style="stroke:#000000;stroke-width:0.123"><path d="M153.75,19.38L156.93,19.97L156.78,26.00L156.73,26.26L156.67,26.42L156.58,26.56L156.48,26.66L156.36,26.73L155.17,26.90L151.99,26.37L152.00,26.03L153.17,25.85L153.26,25.79L153.32,25.69L153.35,25.62L153.37,25.49L153.52,19.42L153.75,19.38L153.59,25.46L153.55,25.72L153.49,25.88L153.40,26.02L153.30,26.12L153.18,26.19L151.99,26.37"/></g></g><g id="Actor_.18"><g style="stroke:#000000;stroke-width:0.123"><path d="M153.06,171.29L152.56,171.29L152.13,171.23L136.07,167.36L135.89,167.28L135.94,166.73L135.90,166.69L133.74,166.17L133.72,166.94L135.88,167.47"/><path d="M133.80,166.16L133.74,166.17"/><path d="M153.29,171.27L156.06,170.85L156.04,171.66L153.20,172.10L152.73,172.11L152.18,172.06L135.99,168.13L135.87,168.06L135.88,167.26"/><path d="M139.58,167.83L139.60,167.38L139.03,167.24L138.61,167.20L138.03,167.23L137.89,167.27L137.85,167.32L137.96,167.39L138.52,167.53L138.52,167.57"/><path d="M149.84,169.37L137.34,166.41"/><path d="M139.81,167.88L139.83,167.39L141.95,167.90L142.08,167.95L142.10,168.01L141.97,168.08L141.59,168.13L140.81,168.11L138.51,167.57L138.52,167.53"/><path d="M139.60,167.38L139.83,167.39"/><path d="M149.09,169.64L149.09,169.59L146.70,169.04L145.91,169.02L145.53,169.07L145.41,169.14L145.46,169.22L145.63,169.28L147.76,169.79L148.01,169.80L148.68,169.95L149.41,169.98L149.74,169.92L149.81,169.85L149.69,169.79L149.09,169.64L149.08,169.99"/><path d="M156.06,170.85L155.99,170.83"/></g></g><g id="Actor_.19"><g style="stroke:#000000;stroke-width:0.123"><path d="M111.46,78.87L112.07,51.42"/><path d="M116.50,44.99L116.42,44.80L113.82,41.13L113.67,41.04L112.33,41.19L112.15,47.50"/><path d="M112.79,78.94L115.71,79.07L115.74,79.02L116.50,44.98"/><path d="M115.73,79.07L115.68,79.08"/></g></g><g id="Actor_.20"><g style="stroke:#000000;stroke-width:0.123"><path d="M160.86,102.67L157.71,102.50L156.27,102.50L156.21,102.52L156.16,102.58L156.14,102.67L156.06,105.63L156.08,105.72L156.13,105.78L156.16,105.80L156.32,105.81L156.16,105.80"/><path d="M156.32,105.81L157.43,105.88L156.32,105.81"/><path d="M157.43,105.88L158.55,105.95L157.43,105.88"/><path d="M157.90,105.91L161.90,106.16L160.78,106.09"/><path d="M161.90,106.16L163.14,106.24L164.59,106.23L164.63,106.21L164.63,106.13"/><path d="M162.97,106.15L162.91,106.07L160.90,102.93L160.86,102.84L160.86,102.78"/><path d="M162.97,106.15L163.07,106.22L163.14,106.24"/><path d="M163.02,106.23L163.13,106.24"/></g></g><g id="Actor_.21"><g style="stroke:#000000;stroke-width:0.123"><path d="M161.51,103.88L160.86,102.77L162.94,23.24L165.35,19.61L166.87,19.88L166.91,20.00L164.63,106.21L163.02,106.18L161.51,103.88"/></g></g><g id="Actor_.22"><g style="stroke:#000000;stroke-width:0.123"><path d="M145.12,83.92L144.92,92.17L142.36,92.10L142.56,83.82"/><path d="M142.65,80.36L143.43,48.50"/><path d="M143.52,44.78L144.08,22.26L146.42,21.87L145.84,45.07"/><path d="M144.68,92.17L144.88,83.91"/><path d="M145.75,48.77L144.97,80.47"/><path d="M145.21,80.49L145.99,48.80"/><path d="M146.42,21.87L146.66,21.92L146.09,45.10"/></g></g><g id="Actor_.23"><g style="stroke:#000000;stroke-width:0.123"><path d="M167.72,169.65L166.54,169.39L166.43,169.34L166.41,169.31L166.52,165.34L166.54,165.31L166.65,165.27L167.84,165.10L168.07,165.15L166.93,165.31L166.86,165.33L166.84,165.35L166.86,165.37L166.93,165.39L168.05,165.64L167.95,169.62L167.72,169.65L167.83,165.67L166.65,165.41L166.54,165.37L166.52,165.34"/><path d="M168.05,165.64L168.07,165.15"/><path d="M167.83,165.67L168.05,165.64"/></g></g><g id="Actor_.24"><g style="stroke:#000000;stroke-width:0.123"><path d="M98.26,117.53L97.68,117.46L97.69,117.09L98.80,117.21L98.87,117.16L98.91,117.12L98.96,117.01L98.98,116.87L99.12,110.19L99.33,110.21L99.19,116.89L99.17,117.08L99.09,117.33L99.01,117.46L98.91,117.55L98.82,117.58L98.75,117.58L98.26,117.53"/><path d="M97.69,117.09L98.94,117.06"/><path d="M98.80,117.58L102.75,117.46L102.86,117.43L102.91,117.39L103.00,117.29L103.07,117.14L103.13,116.87L103.28,110.15L99.33,110.21"/><path d="M99.12,110.19L103.06,110.13L103.28,110.15"/></g></g><g id="Actor_.25"><g style="stroke:#000000;stroke-width:0.123"><path d="M150.07,20.40L140.10,22.06L139.37,22.31L137.18,22.68L137.16,23.46L137.22,23.48"/><path d="M137.16,23.47L139.35,23.11L140.08,22.85L150.85,21.09L150.93,21.04L150.83,20.99L150.16,20.87L150.06,20.80L153.50,20.21"/><path d="M144.06,22.90L140.81,23.43"/><path d="M144.07,22.36L143.13,22.51L143.01,22.58L143.13,22.65L143.41,22.69L144.07,22.71"/><path d="M146.65,22.49L153.47,21.38"/><path d="M150.06,20.82L150.08,20.00"/><path d="M150.08,19.99L150.20,19.94L156.59,18.87L156.57,19.71L156.01,19.80"/><path d="M153.47,21.20L152.66,21.19L152.38,21.14L152.27,21.06L152.40,21.00L153.48,20.82"/><path d="M156.57,19.71L159.95,20.33L159.97,19.50L156.59,18.87"/><path d="M159.95,20.33L159.88,20.35"/></g></g><g id="Actor_.26"><g style="stroke:#000000;stroke-width:0.123"><path d="M101.18,82.09L101.28,81.92L101.62,78.84L101.59,78.41"/><path d="M153.80,84.27L101.18,82.15"/><path d="M153.82,84.27L155.17,84.28L155.26,84.23L155.36,81.13L155.27,80.97L101.59,78.40"/><path d="M142.77,82.66L143.09,82.58L143.30,82.14L143.21,81.72L143.06,81.55L142.87,81.48L142.56,81.62L142.41,82.01L142.49,82.43L142.77,82.66"/><path d="M142.75,81.49L143.01,81.70L143.12,82.10L143.00,82.48L142.75,82.66"/><path d="M155.23,80.97L155.25,80.97"/></g></g><g><g><path style="stroke:#000000;stroke-width:0.208;stroke-dasharray:2.2 2.2" d="M167.78,167.37L156.06,169.12"/></g></g><g><g><path style="stroke:#000000;stroke-width:0.208;stroke-dasharray:2.2 2.2" d="M154.34,152.18L182.92,157.56"/></g></g><g id="PMI7.0"><g><path style="stroke:#000000;stroke-width:0.281" d="M130.62,148.20L132.73,148.20"/></g><g><path style="fill:#000000" d="M132.73,149.19L132.73,147.19L134.73,148.20z"/></g><g><path style="fill:#ffffff" d="M114.12,150.71L130.62,150.71L130.62,145.63L114.12,145.63z"/><path style="stroke:#000000;stroke-width:0.281;stroke-opacity:0.98" d="M114.12,150.71L130.62,150.71L130.62,145.63L114.12,145.63z"/><text xml:space="preserve" fill="#000000" stroke-width="0" x="114.75" y="149.28" font-size="3.05" opacity="1.00" font-family="Microsoft Sans Serif">1000U2W2</text></g></g><g id="PMI13.0"><g><path style="stroke:#000000;stroke-width:0.281" d="M133.00,106.16L135.43,106.12"/></g><g><path style="fill:#000000" d="M135.45,107.12L135.41,105.12L137.43,106.08z"/></g><g><path style="fill:#ffffff" d="M116.28,108.86L133.00,108.86L133.00,103.78L116.28,103.78z"/><path style="stroke:#000000;stroke-width:0.281;stroke-opacity:0.98" d="M116.28,108.86L133.00,108.86L133.00,103.78L116.28,103.78z"/><text xml:space="preserve" fill="#000000" stroke-width="0" x="116.91" y="107.43" font-size="2.79" opacity="1.00" font-family="Microsoft Sans Serif">330007041</text></g></g><g id="PMI16.0"><g><path style="stroke:#000000;stroke-width:0.281" d="M119.78,62.06L118.10,62.06"/></g><g><path style="fill:#000000" d="M118.10,61.06L118.10,63.06L116.10,62.07z"/></g><g><path style="fill:#ffffff" d="M119.79,64.58L137.03,64.58L137.03,59.50L119.79,59.50z"/><path style="stroke:#000000;stroke-width:0.281;stroke-opacity:0.98" d="M119.79,64.58L137.03,64.58L137.03,59.50L119.79,59.50z"/><text xml:space="preserve" fill="#000000" stroke-width="0" x="120.42" y="63.15" font-size="3.09" opacity="1.00" font-family="Microsoft Sans Serif">5L00018C6</text></g></g><g id="PMI9.0"><g><path style="stroke:#000000;stroke-width:0.281" d="M143.64,135.64L143.64,133.46"/></g><g><path style="fill:#000000" d="M144.64,133.46L142.64,133.46L143.64,131.46z"/></g><g><path style="fill:#ffffff" d="M135.72,140.72L151.58,140.72L151.58,135.64L135.72,135.64z"/><path style="stroke:#000000;stroke-width:0.281;stroke-opacity:0.98" d="M135.72,140.72L151.58,140.72L151.58,135.64L135.72,135.64z"/><text xml:space="preserve" fill="#000000" stroke-width="0" x="136.35" y="139.29" font-size="3.09" opacity="1.00" font-family="Microsoft Sans Serif">3300025I1</text></g></g><g id="PMI14.0"><g><path style="stroke:#000000;stroke-width:0.281" d="M134.32,70.96L141.10,70.76"/></g><g><path style="fill:#000000" d="M141.13,71.77L141.07,69.77L143.10,70.71z"/></g><g><path style="fill:#ffffff" d="M117.09,73.76L134.33,73.76L134.33,68.68L117.09,68.68z"/><path style="stroke:#000000;stroke-width:0.281;stroke-opacity:0.98" d="M117.09,73.76L134.33,73.76L134.33,68.68L117.09,68.68z"/><text xml:space="preserve" fill="#000000" stroke-width="0" x="117.72" y="72.33" font-size="3.09" opacity="1.00" font-family="Microsoft Sans Serif">3300070H3</text></g></g><g id="PMI2.0"><g><path style="stroke:#000000;stroke-width:0.281" d="M166.94,173.18L166.88,171.37"/></g><g><path style="fill:#000000" d="M167.88,171.33L165.88,171.39L166.82,169.36z"/></g><g><path style="fill:#ffffff" d="M158.40,178.25L175.63,178.25L175.63,173.17L158.40,173.17z"/><path style="stroke:#000000;stroke-width:0.281;stroke-opacity:0.98" d="M158.40,178.25L175.63,178.25L175.63,173.17L158.40,173.17z"/><text xml:space="preserve" fill="#000000" stroke-width="0" x="159.03" y="176.82" font-size="3.09" opacity="1.00" font-family="Microsoft Sans Serif">0200450N2</text></g></g><g id="PMI4.0"><g><path style="stroke:#000000;stroke-width:0.281" d="M142.71,172.91L142.64,171.26"/></g><g><path style="fill:#000000" d="M143.64,171.22L141.64,171.30L142.56,169.26z"/></g><g><path style="fill:#ffffff" d="M134.37,177.98L151.26,177.98L151.26,172.90L134.37,172.90z"/><path style="stroke:#000000;stroke-width:0.281;stroke-opacity:0.98" d="M134.37,177.98L151.26,177.98L151.26,172.90L134.37,172.90z"/><text xml:space="preserve" fill="#000000" stroke-width="0" x="135.00" y="176.55" font-size="3.09" opacity="1.00" font-family="Microsoft Sans Serif">0200450T2</text></g></g><g id="PMI3.0"><g><path style="stroke:#000000;stroke-width:0.281" d="M147.09,17.05L146.98,19.03"/></g><g><path style="fill:#000000" d="M145.99,18.98L147.98,19.08L146.88,21.03z"/></g><g><path style="fill:#ffffff" d="M138.69,17.06L155.75,17.06L155.75,11.98L138.69,11.98z"/><path style="stroke:#000000;stroke-width:0.281;stroke-opacity:0.98" d="M138.69,17.06L155.75,17.06L155.75,11.98L138.69,11.98z"/><text xml:space="preserve" fill="#000000" stroke-width="0" x="139.32" y="15.63" font-size="3.09" opacity="1.00" font-family="Microsoft Sans Serif">0200450S2</text></g></g><g id="PMI6.0"><g><path style="stroke:#000000;stroke-width:0.281" d="M160.02,137.93L158.60,137.94"/></g><g><path style="fill:#000000" d="M158.60,136.93L158.60,138.93L156.60,137.94z"/></g><g><path style="fill:#ffffff" d="M160.02,140.45L175.49,140.45L175.49,135.37L160.02,135.37z"/><path style="stroke:#000000;stroke-width:0.281;stroke-opacity:0.98" d="M160.02,140.45L175.49,140.45L175.49,135.37L160.02,135.37z"/><text xml:space="preserve" fill="#000000" stroke-width="0" x="160.65" y="139.02" font-size="3.04" opacity="1.00" font-family="Microsoft Sans Serif">1000TUL1</text></g></g><g id="PMI20.0"><g><path style="stroke:#000000;stroke-width:0.281" d="M188.37,157.64L186.68,157.65"/></g><g><path style="fill:#000000" d="M186.68,156.65L186.68,158.65L184.68,157.65z"/></g><g><path style="fill:#ffffff" d="M188.37,160.16L206.83,160.16L206.83,155.08L188.37,155.08z"/><path style="stroke:#000000;stroke-width:0.281;stroke-opacity:0.98" d="M188.37,160.16L206.83,160.16L206.83,155.08L188.37,155.08z"/><text xml:space="preserve" fill="#000000" stroke-width="0" x="189.00" y="158.73" font-size="2.79" opacity="1.00" font-family="Microsoft Sans Serif">8059000104</text></g></g><g id="PMI8.0"><g><path style="stroke:#000000;stroke-width:0.281" d="M167.67,11.81L164.50,11.81L162.75,18.81"/></g><g><path style="fill:#000000" d="M161.78,18.58L163.72,19.06L162.27,20.76z"/></g><g><path style="fill:#ffffff" d="M167.04,14.36L183.76,14.36L183.76,9.28L167.04,9.28z"/><path style="stroke:#000000;stroke-width:0.281;stroke-opacity:0.98" d="M167.04,14.36L183.76,14.36L183.76,9.28L167.04,9.28z"/><text xml:space="preserve" fill="#000000" stroke-width="0" x="167.67" y="12.93" font-size="2.79" opacity="1.00" font-family="Microsoft Sans Serif">330002581</text></g></g><g id="PMI15.0"><g><path style="stroke:#000000;stroke-width:0.281" d="M169.74,59.45L167.51,59.41"/></g><g><path style="fill:#000000" d="M167.53,58.41L167.49,60.41L165.51,59.37z"/></g><g><path style="fill:#ffffff" d="M169.74,62.15L186.81,62.15L186.81,57.07L169.74,57.07z"/><path style="stroke:#000000;stroke-width:0.281;stroke-opacity:0.98" d="M169.74,62.15L186.81,62.15L186.81,57.07L169.74,57.07z"/><text xml:space="preserve" fill="#000000" stroke-width="0" x="170.37" y="60.72" font-size="3.09" opacity="1.00" font-family="Microsoft Sans Serif">3300070K1</text></g></g><g id="PMI10.0"><g><path style="stroke:#000000;stroke-width:0.281" d="M116.04,123.76L116.06,122.12"/></g><g><path style="fill:#000000" d="M117.07,122.14L115.07,122.10L116.10,120.12z"/></g><g><path style="fill:#ffffff" d="M107.64,128.84L124.36,128.84L124.36,123.76L107.64,123.76z"/><path style="stroke:#000000;stroke-width:0.281;stroke-opacity:0.98" d="M107.64,128.84L124.36,128.84L124.36,123.76L107.64,123.76z"/><text xml:space="preserve" fill="#000000" stroke-width="0" x="108.27" y="127.41" font-size="3.09" opacity="1.00" font-family="Microsoft Sans Serif">3300025L1</text></g></g><g id="PMI18.0"><g><path style="stroke:#000000;stroke-width:0.281" d="M119.22,38.38L119.28,40.09"/></g><g><path style="fill:#000000" d="M118.28,40.12L120.28,40.06L119.34,42.09z"/></g><g><path style="fill:#ffffff" d="M110.61,38.39L127.68,38.39L127.68,33.31L110.61,33.31z"/><path style="stroke:#000000;stroke-width:0.281;stroke-opacity:0.98" d="M110.61,38.39L127.68,38.39L127.68,33.31L110.61,33.31z"/><text xml:space="preserve" fill="#000000" stroke-width="0" x="111.24" y="36.96" font-size="3.09" opacity="1.00" font-family="Microsoft Sans Serif">5L00018E6</text></g></g><g id="PMI19.0"><g><path style="stroke:#000000;stroke-width:0.281" d="M109.98,85.69L110.07,83.78"/></g><g><path style="fill:#000000" d="M111.07,83.82L109.07,83.73L110.16,81.78z"/></g><g><path style="fill:#ffffff" d="M101.43,90.77L118.33,90.77L118.33,85.69L101.43,85.69z"/><path style="stroke:#000000;stroke-width:0.281;stroke-opacity:0.98" d="M101.43,90.77L118.33,90.77L118.33,85.69L101.43,85.69z"/><text xml:space="preserve" fill="#000000" stroke-width="0" x="102.06" y="89.34" font-size="3.09" opacity="1.00" font-family="Microsoft Sans Serif">5L00018F6</text></g></g><g id="PMI17.0"><g><path style="stroke:#000000;stroke-width:0.281" d="M100.21,39.62L103.38,39.62L106.04,45.14"/></g><g><path style="fill:#000000" d="M105.15,45.58L106.95,44.71L106.92,46.95z"/></g><g><path style="fill:#ffffff" d="M83.61,42.17L100.85,42.17L100.85,37.09L83.61,37.09z"/><path style="stroke:#000000;stroke-width:0.281;stroke-opacity:0.98" d="M83.61,42.17L100.85,42.17L100.85,37.09L83.61,37.09z"/><text xml:space="preserve" fill="#000000" stroke-width="0" x="84.24" y="40.74" font-size="3.09" opacity="1.00" font-family="Microsoft Sans Serif">5L00018D1</text></g></g><g id="PMI12.0"><g><path style="stroke:#000000;stroke-width:0.281" d="M91.20,70.40L94.37,70.40L96.37,74.82"/></g><g><path style="fill:#000000" d="M95.47,75.24L97.29,74.42L97.20,76.65z"/></g><g><path style="fill:#ffffff" d="M74.43,72.95L91.84,72.95L91.84,67.87L74.43,67.87z"/><path style="stroke:#000000;stroke-width:0.281;stroke-opacity:0.98" d="M74.43,72.95L91.84,72.95L91.84,67.87L74.43,67.87z"/><text xml:space="preserve" fill="#000000" stroke-width="0" x="75.06" y="71.52" font-size="3.09" opacity="1.00" font-family="Microsoft Sans Serif">3300025O1</text></g></g><g id="PMI1.0"><g><path style="stroke:#000000;stroke-width:0.281" d="M93.52,103.62L96.70,103.62L99.07,108.85"/></g><g><path style="fill:#000000" d="M98.16,109.26L99.99,108.44L99.90,110.67z"/></g><g><path style="fill:#ffffff" d="M76.59,106.16L94.17,106.16L94.17,101.08L76.59,101.08z"/><path style="stroke:#000000;stroke-width:0.281;stroke-opacity:0.98" d="M76.59,106.16L94.17,106.16L94.17,101.08L76.59,101.08z"/><text xml:space="preserve" fill="#000000" stroke-width="0" x="77.22" y="104.73" font-size="3.09" opacity="1.00" font-family="Microsoft Sans Serif">0200450M2</text></g></g><g id="PMI11.0"><g><path style="stroke:#000000;stroke-width:0.281" d="M86.60,142.34L88.17,142.31"/></g><g><path style="fill:#000000" d="M88.20,143.30L88.16,141.30L90.18,142.26z"/></g><g><path style="fill:#ffffff" d="M69.03,145.04L86.61,145.04L86.61,139.96L69.03,139.96z"/><path style="stroke:#000000;stroke-width:0.281;stroke-opacity:0.98" d="M69.03,145.04L86.61,145.04L86.61,139.96L69.03,139.96z"/><text xml:space="preserve" fill="#000000" stroke-width="0" x="69.66" y="143.61" font-size="3.09" opacity="1.00" font-family="Microsoft Sans Serif">3300025M1</text></g></g><g id="PMI5.0"><g><path style="stroke:#000000;stroke-width:0.281" d="M86.06,186.41L86.09,184.77"/></g><g><path style="fill:#000000" d="M87.10,184.78L85.10,184.74L86.13,182.76z"/></g><g><path style="fill:#ffffff" d="M77.67,191.48L94.39,191.48L94.39,186.40L77.67,186.40z"/><path style="stroke:#000000;stroke-width:0.281;stroke-opacity:0.98" d="M77.67,191.48L94.39,191.48L94.39,186.40L77.67,186.40z"/><text xml:space="preserve" fill="#000000" stroke-width="0" x="78.30" y="190.05" font-size="2.79" opacity="1.00" font-family="Microsoft Sans Serif">020045152</text></g></g><g/><g id="paperID" visibility="hidden" opacity="0.00" transform="scale(0.000100)"><path style="stroke:#000000;stroke-width:0.500;fill:#e6e6e6;fill-rule:evenodd" d="M-2000.00,-2000.00L2297.00,-2000.00L2297.00,2210.00L-2000.00,2210.00zM0.00,0.00L297.00,0.00L297.00,210.00L0.00,210.00z"/><path style="fill:#000000;fill-opacity:0.118" d="M3.00,210.00L297.00,210.00L297.00,3.00L300.00,3.00L300.00,213.00L3.00,213.00z"/></g><g id="hotspot.0" onmouseover="ShowHotSpot(evt,'0')" onmouseout="HideHotSpot(evt,'0')" onmousemove="ShowToolTip(evt,'0',&quot;3dp2473141&quot;)" opacity="0"><path style="fill:#00ff00;fill-rule:evenodd" d="M156.79,20.06L156.80,26.39L156.42,26.82L153.81,26.82L152.14,26.53L152.10,26.28L153.27,25.83L153.53,20.42L153.79,19.52zM94.31,103.60L96.87,103.81L96.91,104.08L94.31,104.03L94.15,106.30L76.49,106.30L76.58,101.15L94.15,101.06zM98.83,108.55L98.62,107.82L98.72,107.80zM99.08,108.86L99.80,108.88L99.98,110.35L103.06,110.51L102.97,117.55L97.78,117.61L97.78,117.29L99.01,117.10L99.24,110.24L98.43,109.69L98.46,109.30L98.83,108.55zM154.27,115.93L149.92,115.93L151.04,115.66L151.28,109.70L154.63,109.70z"/></g><g id="hotspot.1" onmouseover="ShowHotSpot(evt,'1')" onmouseout="HideHotSpot(evt,'1')" onmousemove="ShowToolTip(evt,'1',&quot;3dp2344104&quot;)" opacity="0"><path style="fill:#00ff00;fill-rule:evenodd" d="M93.43,117.98L92.41,117.81L93.31,117.82zM93.43,117.98L108.63,117.27L144.81,116.19L154.36,116.18L154.36,119.26L152.64,119.43L116.68,120.76L116.44,121.00L116.87,121.88L116.82,122.20L116.20,122.41L116.18,123.58L124.39,123.74L124.39,128.98L107.54,128.98L107.63,123.83L115.75,123.58L115.72,122.40L115.09,122.13L115.52,121.39L115.49,121.05L102.42,121.32L96.03,121.32z"/></g><g id="hotspot.2" onmouseover="ShowHotSpot(evt,'2')" onmouseout="HideHotSpot(evt,'2')" onmousemove="ShowToolTip(evt,'2',&quot;3dp2451036&quot;)" opacity="0"><path style="fill:#00ff00;fill-rule:evenodd" d="M93.34,118.07L96.04,121.30L90.63,180.81L90.35,181.88L88.10,182.35L87.11,182.36L86.30,182.08L86.31,179.19L89.55,142.89L89.21,142.87L88.47,143.31L88.47,141.54L89.00,141.86L89.73,141.87L91.96,118.41L92.24,117.81zM86.75,142.21L87.96,142.38L86.75,142.64L86.59,145.18L68.93,145.18L69.02,140.03L86.59,139.94z"/></g><g id="hotspot.3" onmouseover="ShowHotSpot(evt,'3')" onmouseout="HideHotSpot(evt,'3')" onmousemove="ShowToolTip(evt,'3',&quot;3dp2456172&quot;)" opacity="0"><path style="fill:#00ff00;fill-rule:evenodd" d="M104.69,50.31L98.73,104.67L97.11,117.90L93.29,117.85L92.97,117.63L93.24,113.22L97.11,79.02L97.21,76.68L97.36,76.59L100.61,47.69L100.80,46.81L102.01,46.54zM92.01,68.10L92.15,70.39L94.42,70.55L94.51,70.74L92.15,70.82L91.99,73.09L74.33,73.09L74.42,67.94L91.74,67.83zM94.70,71.46L94.51,70.74L94.70,70.85zM96.13,74.53L95.92,73.80L96.02,73.78zM96.38,74.84L97.10,74.86L97.21,76.68L95.74,75.67L95.76,75.28L96.13,74.53z"/></g><g id="hotspot.4" onmouseover="ShowHotSpot(evt,'4')" onmouseout="HideHotSpot(evt,'4')" onmousemove="ShowToolTip(evt,'4',&quot;3dp2871259&quot;)" opacity="0"><path style="fill:#00ff00;fill-rule:evenodd" d="M141.42,102.40L141.95,103.22L141.83,104.32L142.12,105.48L143.55,105.66L151.39,106.19L151.14,112.76L144.36,112.14L141.83,112.13L141.68,114.41L141.39,114.93L136.43,114.67L136.25,106.99L135.73,107.09L135.73,105.40L136.24,105.49L136.55,104.96L136.70,102.14zM133.19,106.03L135.20,106.20L133.19,106.46L133.03,109.00L116.18,109.00L116.27,103.85L133.03,103.76zM140.58,108.09L140.58,109.26L140.31,110.07L139.67,110.79L138.69,110.80L137.87,109.46L137.86,107.89L138.57,106.45L139.80,106.45z"/></g><g id="hotspot.5" onmouseover="ShowHotSpot(evt,'5')" onmouseout="HideHotSpot(evt,'5')" onmousemove="ShowToolTip(evt,'5',&quot;3dp-3-061271&quot;)" opacity="0"><path style="fill:#00ff00;fill-rule:evenodd" d="M143.72,45.01L144.00,23.85L144.28,22.51L145.08,22.23L146.53,22.22L146.52,29.34L146.01,45.26zM145.99,48.95L145.18,80.65L142.64,80.38L142.77,71.11L141.39,71.75L141.39,70.00L142.77,70.64L143.01,67.68L143.47,48.66zM138.51,71.01L138.62,70.85L140.87,70.83zM134.54,70.93L138.51,71.01L138.40,71.17L134.54,71.36L134.38,73.90L116.99,73.90L117.08,68.75L134.38,68.66zM144.91,92.26L142.37,92.26L142.64,84.05L144.91,84.05z"/></g><g id="hotspot.6" onmouseover="ShowHotSpot(evt,'6')" onmouseout="HideHotSpot(evt,'6')" onmousemove="ShowToolTip(evt,'6',&quot;3dp2719055&quot;)" opacity="0"><path style="fill:#00ff00;fill-rule:evenodd" d="M166.77,20.07L166.77,27.18L165.96,59.34L167.33,58.69L167.33,60.38L165.96,59.74L164.62,106.30L162.91,106.28L161.11,103.49L161.10,95.49L162.97,23.38L165.32,19.76zM167.74,59.49L169.48,59.32L169.73,57.14L186.76,57.05L186.76,62.29L169.64,62.29L169.48,59.75z"/></g><g id="hotspot.7" onmouseover="ShowHotSpot(evt,'7')" onmouseout="HideHotSpot(evt,'7')" onmousemove="ShowToolTip(evt,'7',&quot;3dp-3-098326&quot;)" opacity="0"><path style="fill:#00ff00;fill-rule:evenodd" d="M116.29,44.90L116.19,62.03L117.09,61.74L117.93,61.39L117.93,63.08L116.53,62.41L116.19,62.44L115.75,79.03L111.59,79.03L111.96,58.50L112.13,51.65L113.31,51.48L113.60,50.96L113.59,47.87L112.13,47.71L112.40,41.39L113.88,41.38zM118.32,62.19L119.53,62.02L119.78,59.57L137.08,59.48L137.08,64.72L119.69,64.72L119.53,62.45z"/></g><g id="hotspot.8" onmouseover="ShowHotSpot(evt,'8')" onmouseout="HideHotSpot(evt,'8')" onmousemove="ShowToolTip(evt,'8',&quot;3dp2623974&quot;)" opacity="0"><path style="fill:#00ff00;fill-rule:evenodd" d="M101.06,39.61L103.34,39.78L101.06,40.04L100.90,42.31L83.51,42.31L83.60,37.16L100.90,37.07zM106.83,45.19L107.09,47.08L113.59,47.87L113.60,50.96L113.31,51.48L110.61,51.39L105.18,50.88L102.45,47.06L102.43,46.77L106.56,46.82L105.47,45.96L105.48,45.57L106.03,44.91z"/></g><g id="hotspot.9" onmouseover="ShowHotSpot(evt,'9')" onmouseout="HideHotSpot(evt,'9')" onmousemove="ShowToolTip(evt,'9',&quot;3dp-3-098327&quot;)" opacity="0"><path style="fill:#00ff00;fill-rule:evenodd" d="M110.51,38.53L110.60,33.38L127.63,33.29L127.63,38.53L119.42,38.69L119.44,40.13L120.06,40.34L120.11,40.66L119.76,41.22L119.76,41.94L156.25,46.52L156.24,48.78L155.97,49.86L153.27,49.77L116.46,45.54L115.77,44.07L114.06,41.66L114.03,41.38L117.62,41.67L119.01,41.67L118.38,40.32L118.96,40.14L118.99,38.69z"/></g><g id="hotspot.10" onmouseover="ShowHotSpot(evt,'10')" onmouseout="HideHotSpot(evt,'10')" onmousemove="ShowToolTip(evt,'10',&quot;3dp-3-098325&quot;)" opacity="0"><path style="fill:#00ff00;fill-rule:evenodd" d="M155.17,81.08L155.17,84.43L110.52,82.69L110.93,83.55L110.88,83.86L110.26,84.07L110.24,85.51L118.20,85.65L118.47,85.92L118.45,90.91L101.33,90.91L101.42,85.76L109.81,85.51L109.78,84.06L109.15,83.79L109.58,83.05L109.55,82.71L101.33,82.27L101.60,78.65z"/></g><g id="hotspot.11" onmouseover="ShowHotSpot(evt,'11')" onmouseout="HideHotSpot(evt,'11')" onmousemove="ShowToolTip(evt,'11',&quot;3dp2457709&quot;)" opacity="0"><path style="fill:#00ff00;fill-rule:evenodd" d="M166.43,169.46L166.68,165.61L167.22,165.29L167.85,165.31L167.86,169.75L167.12,169.83zM167.62,171.02L167.25,171.56L167.21,172.99L175.69,173.15L175.69,178.39L158.30,178.39L158.39,173.24L166.78,172.99L166.76,171.55L166.14,171.34L166.19,170.83L166.69,169.92L167.12,169.83z"/></g><g id="hotspot.12" onmouseover="ShowHotSpot(evt,'12')" onmouseout="HideHotSpot(evt,'12')" onmousemove="ShowToolTip(evt,'12',&quot;3dp739677&quot;)" opacity="0"><path style="fill:#00ff00;fill-rule:evenodd" d="M156.27,128.87L156.46,129.70L155.91,130.55L155.08,130.33L155.15,128.68L155.98,128.57zM207.03,155.31L207.01,160.30L188.27,160.30L188.11,158.03L186.90,157.77L188.11,157.60L188.36,155.15L206.76,155.04zM184.61,157.51L185.31,157.53L186.51,156.97L186.51,158.66L184.76,158.00L184.22,158.86L183.27,158.83L181.62,158.03L181.60,157.04L184.31,156.97z"/></g><g id="hotspot.13" onmouseover="ShowHotSpot(evt,'13')" onmouseout="HideHotSpot(evt,'13')" onmousemove="ShowToolTip(evt,'13',&quot;3dp2425860&quot;)" opacity="0"><path style="fill:#00ff00;fill-rule:evenodd" d="M138.59,17.20L138.68,12.05L155.71,11.96L155.71,17.20L147.23,17.36L147.26,19.08L147.84,19.26L147.29,20.44L147.23,20.98L149.70,20.64L150.23,20.09L153.58,19.55L153.27,21.51L146.74,22.58L146.50,22.26L145.07,22.23L144.29,22.52L143.99,23.03L142.38,23.31L137.22,23.39L137.30,22.87L141.57,21.96L146.48,21.17L146.80,20.86L146.21,19.79L146.16,19.28L146.78,19.07L146.80,17.36zM159.51,19.49L159.80,19.79L159.76,20.44L153.97,19.54L155.08,19.26L157.86,19.26z"/></g><g id="hotspot.14" onmouseover="ShowHotSpot(evt,'14')" onmouseout="HideHotSpot(evt,'14')" onmousemove="ShowToolTip(evt,'14',&quot;3dp2425857&quot;)" opacity="0"><path style="fill:#00ff00;fill-rule:evenodd" d="M135.17,166.69L137.88,166.68L145.98,168.57L149.75,169.66L150.01,170.75L152.18,171.28L154.26,171.27L156.02,171.03L155.90,171.82L154.26,172.08L151.64,172.09L143.80,170.17L143.18,170.18L143.25,170.73L143.57,171.27L142.94,171.54L142.91,172.72L151.14,172.86L151.41,173.13L151.39,178.12L134.27,178.12L134.36,172.97L142.48,172.72L142.46,171.55L141.84,171.34L141.89,170.83L142.24,170.27L142.21,169.94L139.49,169.12L135.99,168.30L135.47,167.47L133.72,167.01L133.72,166.41z"/></g><g id="hotspot.15" onmouseover="ShowHotSpot(evt,'15')" onmouseout="HideHotSpot(evt,'15')" onmousemove="ShowToolTip(evt,'15',&quot;3dp2451037&quot;)" opacity="0"><path style="fill:#00ff00;fill-rule:evenodd" d="M85.21,181.36L85.69,180.66L86.03,180.69L86.30,182.08L87.11,182.36L88.10,182.35L90.36,182.05L90.38,182.98L86.47,183.42L86.54,183.95L86.90,184.52L86.85,184.84L86.23,185.05L86.21,186.22L94.42,186.38L94.42,191.62L77.57,191.62L77.66,186.47L85.78,186.22L85.75,185.04L85.12,184.76L85.81,183.50L85.78,183.16L83.25,182.15L83.23,181.26z"/></g><g id="hotspot.16" onmouseover="ShowHotSpot(evt,'16')" onmouseout="HideHotSpot(evt,'16')" onmousemove="ShowToolTip(evt,'16',&quot;3dp-3-061273&quot;)" opacity="0"><path style="fill:#00ff00;fill-rule:evenodd" d="M159.23,20.33L159.76,20.63L158.30,20.87L158.31,24.21L159.75,24.66L157.86,100.35L157.60,102.52L156.14,102.68L156.22,105.95L157.60,106.19L157.05,131.67L157.05,137.90L158.42,137.26L158.42,138.95L156.93,138.34L155.90,171.02L154.26,171.27L152.18,171.28L150.02,170.74L150.03,163.53L151.11,120.87L151.28,119.69L154.36,119.26L154.33,115.75L154.63,109.70L151.55,109.54L151.83,89.19L152.18,84.32L155.17,84.43L155.17,81.08L152.09,80.92L152.91,49.75L155.97,49.86L156.24,48.78L156.25,46.52L153.17,46.09L153.27,35.82L153.45,26.80L156.42,26.82L156.80,26.39L156.96,20.05zM158.83,138.07L159.76,137.88L160.01,135.44L175.42,135.35L175.42,140.59L159.92,140.59L159.76,138.33zM156.27,128.87L156.46,129.70L155.91,130.55L155.08,130.33L155.15,128.68L155.98,128.57z"/></g><g id="hotspot.17" onmouseover="ShowHotSpot(evt,'17')" onmouseout="HideHotSpot(evt,'17')" onmousemove="ShowToolTip(evt,'17',&quot;3dp-3-061274&quot;)" opacity="0"><path style="fill:#00ff00;fill-rule:evenodd" d="M140.84,23.55L140.31,44.48L137.03,44.14L136.70,43.90L137.24,23.57L139.48,23.30zM139.52,48.13L140.04,48.43L140.06,49.33L138.59,49.49L138.59,52.57L140.05,52.73L139.50,79.29L139.22,80.39L135.89,80.11L136.71,47.86zM139.23,84.06L139.24,88.75L137.78,88.91L137.78,91.99L138.97,92.15L138.96,101.43L138.67,102.25L136.70,102.14L136.53,104.94L136.43,114.67L138.43,114.83L138.43,116.29L135.09,116.57L135.72,88.20L135.89,83.78L138.71,83.77zM137.86,107.89L138.59,106.43L138.70,110.62L138.46,110.55L137.87,109.46zM138.16,127.90L136.70,128.06L136.78,131.06L138.16,131.30L137.34,166.50L136.45,166.69L135.17,166.69L134.09,166.42L134.10,148.84L133.76,148.81L133.02,149.25L133.02,147.48L133.56,147.81L134.10,147.89L134.37,144.36L134.91,121.95L135.08,120.23L138.45,119.98zM130.76,148.15L132.50,148.32L130.76,148.58L130.60,150.85L114.02,150.85L114.11,145.70L130.60,145.61z"/></g><g id="hotspot.18" onmouseover="ShowHotSpot(evt,'18')" onmouseout="HideHotSpot(evt,'18')" onmousemove="ShowToolTip(evt,'18',&quot;3dp2329860&quot;)" opacity="0"><path style="fill:#00ff00;fill-rule:evenodd" d="M164.42,12.14L164.51,11.96L166.78,11.80L167.03,9.35L183.79,9.26L183.79,14.50L166.94,14.50L166.78,12.23zM164.16,13.23L164.24,12.23L164.42,12.14zM163.52,19.26L163.29,19.65L163.23,20.15L164.91,20.08L164.92,20.41L162.70,23.92L162.11,24.14L160.19,24.40L159.21,24.40L158.31,24.21L158.30,20.87L161.59,20.38L161.92,20.15L161.89,18.74L162.63,18.77L162.82,18.65zM160.82,102.97L162.77,105.95L162.75,106.28L156.23,105.94L156.14,102.68L158.94,102.69z"/></g><g id="hotspot.19" onmouseover="ShowHotSpot(evt,'19')" onmouseout="HideHotSpot(evt,'19')" onmousemove="ShowToolTip(evt,'19',&quot;3dp2425852&quot;)" opacity="0"><path style="fill:#00ff00;fill-rule:evenodd" d="M152.74,49.76L152.74,51.76L145.89,52.31L146.24,48.95zM143.29,52.57L138.59,52.57L138.59,49.49L143.29,49.22zM145.09,91.97L145.07,89.18L151.66,89.18L151.66,92.26L145.69,92.18zM142.21,91.99L137.78,91.99L137.78,88.91L142.50,88.93zM150.60,129.39L150.87,129.66L150.84,131.67L150.57,132.75L148.41,132.66L144.02,132.08L144.65,133.46L144.02,133.74L143.99,135.46L151.41,135.60L151.68,135.87L151.66,140.86L135.62,140.86L135.71,135.71L143.56,135.46L143.54,133.75L142.92,133.54L142.97,133.03L143.32,132.46L143.29,132.14L142.76,131.83L136.79,131.05L136.70,128.06L140.04,128.07z"/></g></g></svg>
