<?xml version="1.0" encoding="UTF-8" standalone="no"?>
<svg xmlns="http://www.w3.org/2000/svg" xmlns:xlink="http://www.w3.org/1999/xlink" width="297.000mm" height="210.000mm" viewBox="0.000000 0.000000 297.000000 210.000000" stroke-linejoin="round" stroke-linecap="round" fill="none" fill-rule="evenodd"><desc>Composer Export</desc><script type="text/ecmascript"><![CDATA[
if(typeof(top) != "undefined")
{
	top.ShowPaper = ShowPaper;
}
function ShowHotSpot(evt,hotspotid)
{
	var svgDocument = evt.target.ownerDocument;
	var strId = "hotspot."+hotspotid;
	var hotspot = svgDocument.getElementById(strId);
	if(hotspot)
		hotspot.setAttribute("opacity",".5");
}
function HideHotSpot(evt,hotspotid)
{
	var svgDocument = evt.target.ownerDocument;
	var strId = "hotspot."+hotspotid;
	var hotspot = svgDocument.getElementById(strId);
	if(hotspot)
		hotspot.setAttribute("opacity","0");

	var toolTip = svgDocument.getElementById('ToolTip');
	if(toolTip)
		toolTip.setAttribute("visibility","hidden");
}
function ShowToolTip(evt,hotspotid,strTooltip)
{
	if(strTooltip=="")
	return;

	// change text
	var svgDocument = evt.target.ownerDocument;
	var tiptext = svgDocument.getElementById('ToolTipText');
	if( !tiptext )
	return;
	tiptext.firstChild.nodeValue = " " + strTooltip + "  " ;

	// show tooltip before, else some refresh issue

	var toolTip = svgDocument.getElementById('ToolTip');
	if(!toolTip)
	return;

	toolTip.setAttribute("visibility","visible");
	toolTip.setAttribute("opacity",".95");

	// move tooltip
	// get viewbox

	var root = svgDocument.documentElement;
	var vbox = (root.getAttribute("viewBox")).split(' ');
	var x0 = parseFloat(vbox[0]);
	var y0 = parseFloat(vbox[1]);
	var vboxW = parseFloat(vbox[2]);
	var vboxH = parseFloat(vbox[3]);

	// get default width of svg

	var strW = root.getAttribute("width");
	var svgW = parseFloat(strW);
	if(strW.indexOf('mm') != -1)
	svgW *= 3.779;

	var strH = root.getAttribute("height");
	var svgH = parseFloat(strH);
	if(strH.indexOf('mm') != -1)
	svgH *= 3.779;  	// 96 dpi  -> 96/25.4 = 3.779

	// update the viewbox / width / height if svg is embedded in html with zoom fit all
	var realx0 = x0;
	var realy0 = y0;
	var realvboxW = vboxW;
	var realvboxH = vboxH;
	var realsvgW = svgW;
	var realsvgH = svgH;

	if ((typeof(top) == "undefined") || (typeof(top.svgctl1) != "undefined")) // embedded in html
	{
		// get window size in pxl

		svgW = window.innerWidth;
		svgH = window.innerHeight;

		// calculate real viewbox

		realsvgW = svgW;
		realsvgH = svgH;
		if((svgW / svgH) > (vboxW / vboxH))
		{
			realvboxW = (vboxH * svgW) / svgH;
			realvboxH = vboxH;
			realx0 = x0 - (realvboxW - vboxW)/2 ;
		}
		else
		{
			realvboxH = (vboxW * svgH) / svgW;
			realvboxW = vboxW;
			realy0 = y0 - (realvboxH - vboxH)/2 ;
		}
	}

	// get user zoom/pan

	var newScale = root.currentScale;
	var translation = root.currentTranslate;

	// transform pxl to user unit

	var xPos = (((evt.clientX+10- translation.x)/newScale) * realvboxW)/realsvgW  + realx0 ;
	var yPos = (((evt.clientY+5- translation.y)/newScale) * realvboxH)/ realsvgH  + realy0 ;
	var scaleForWidth = ( (1 / newScale) * realvboxH) / realsvgH;

	// move tooltip

	toolTip.setAttribute("transform", "translate(" + xPos + "," + yPos + ")" );

	// resize tooltip

	var fontsize = 12;
	tiptext.setAttribute("font-size",fontsize*scaleForWidth);
	tiptext.setAttribute("y", fontsize*scaleForWidth);
	var tipBG = svgDocument.getElementById('ToolTipBG');
	var outline = tiptext.getBBox();
	if(tipBG)
	{
		tipBG.setAttribute("stroke-width", 1*scaleForWidth);
		tipBG.setAttribute("width", Number(outline.width) );
		tipBG.setAttribute("height", Number(outline.height) + fontsize*.5*scaleForWidth );
	}
	var ToolTipShadow = svgDocument.getElementById('ToolTipShadow');
	if(ToolTipShadow)
	{
		ToolTipShadow.setAttribute("width", Number(outline.width) );
		ToolTipShadow.setAttribute("height", Number(outline.height) + fontsize*.5*scaleForWidth );
		ToolTipShadow.setAttribute("x", 3*scaleForWidth);
		ToolTipShadow.setAttribute("y", 3*scaleForWidth);
	}
}
function ShowPaper()
{
  var svgDocument = getDocument();
  var paper = svgDocument.getElementById("paperID");
  if(paper)
  {
    paper.setAttribute("transform","scale(1)");
    paper.setAttribute("opacity","1");
    paper.setAttribute("visibility","visible");
  }
  var svg = svgDocument.getRootElement();
  if(svg)
  {
    svg.setAttribute("width","307.000mm");
    svg.setAttribute("height","220.000mm");
    svg.setAttribute("viewBox","-5.000000 -5.000000 307.000000 220.000000");
  }
}
]]></script><defs/><g><g id="Actor_.0"><g style="stroke:#000000;stroke-width:0.123"><path d="M54.82,113.01L47.07,102.78L47.07,106.40L35.75,61.72L36.00,59.35L47.17,102.72L54.80,112.99L55.34,117.58L55.13,117.79L55.10,117.62"/><path d="M47.18,102.76L36.00,59.31"/><path d="M36.72,61.69L37.09,61.66L47.79,103.58"/><path d="M55.15,117.61L47.18,106.54"/><path d="M47.08,106.50L47.15,106.53"/><path d="M47.14,106.49L47.07,106.40"/><path d="M47.19,106.59L47.09,106.60"/><path d="M47.06,106.45L47.11,106.44"/><path d="M54.69,113.03L55.12,117.55"/><path d="M78.85,168.99L78.96,169.38L78.82,168.83L56.68,134.68L55.23,117.91"/><path d="M56.68,134.68L57.47,132.13L78.65,163.72L57.59,132.11L56.38,119.59L55.21,117.96"/><path d="M55.18,117.92L55.35,117.89L56.38,119.59"/><path d="M55.01,115.17L56.68,117.55L58.00,132.72"/><path d="M56.74,134.78L56.67,134.63"/><path d="M56.67,134.58L56.69,134.79"/><path d="M56.70,134.90L56.81,134.88"/><path d="M56.65,134.64L56.62,134.59"/><path d="M57.59,132.11L56.50,119.57"/><path d="M78.87,168.91L78.51,163.76"/><path d="M81.95,188.44L80.73,168.94L78.79,165.76"/><path d="M78.91,168.97L79.14,168.92L78.99,168.82L78.65,163.72"/><path d="M79.96,184.16L79.00,169.45L80.78,172.19L82.03,191.95L80.28,188.99L79.96,184.16"/><path d="M82.03,191.95L82.17,191.91L80.92,172.15L79.24,169.31L78.96,169.38"/><path d="M79.02,169.36L79.00,169.45"/><path d="M80.78,172.19L80.92,172.15"/></g></g><g id="Actor_.1"><g style="stroke:#000000;stroke-width:0.123"><path d="M262.07,46.22L260.61,47.41L270.00,67.26L269.95,67.63L271.70,68.08"/><path d="M262.40,46.79L271.91,66.81L271.75,68.42L296.59,74.95L296.58,75.02L271.68,68.42L271.86,66.84L261.91,45.88L261.95,45.85L262.40,46.79"/><path d="M261.95,45.85L262.55,45.79L262.73,46.11L272.54,66.73"/><path d="M270.00,67.26L271.87,66.90"/><path d="M272.35,68.64L271.95,71.31L295.12,77.61L297.00,75.73"/><path d="M272.55,66.81L272.34,68.25L272.39,68.34"/><path d="M272.35,68.26L272.33,68.25"/><path d="M272.39,68.33L297.00,74.80"/><path d="M272.52,66.82L272.51,66.73"/><path d="M295.14,77.61L297.00,75.69"/><path d="M296.59,74.95L297.00,74.89"/><path d="M296.58,75.02L297.00,74.95"/></g></g><g id="Actor_.2"><g style="stroke:#000000;stroke-width:0.123"><path d="M100.95,126.27L100.42,112.07L100.98,126.37L133.42,120.24L133.42,106.57L100.45,112.10"/><path d="M100.42,112.07L133.42,106.57"/><path d="M100.98,126.37L100.96,126.35"/></g></g><g id="Actor_.3"><g style="stroke:#000000;stroke-width:0.123"><path d="M199.28,136.08L199.33,136.12L200.27,123.51L253.07,112.05L200.22,123.48L199.28,136.08"/><path d="M199.33,136.12L251.53,123.65L253.07,112.05"/><path d="M200.27,123.51L200.22,123.48"/></g></g><g id="Actor_.4"><g style="stroke:#000000;stroke-width:0.123"><path d="M62.16,43.28L61.93,40.23L67.56,39.75L68.03,39.67L68.38,39.59L68.57,39.49L68.60,39.44L68.60,39.40L68.49,39.33L68.31,39.27L68.00,39.20L67.59,39.16L66.58,39.11L65.46,39.12L57.77,39.75L57.08,39.83L56.58,39.94L56.37,40.04L56.31,40.12L56.56,43.24"/><path d="M56.31,40.12L56.35,40.18L56.41,40.22L56.62,40.29L56.95,40.35L57.37,40.40L58.42,40.45L59.68,40.42L61.78,40.25L61.74,40.23L59.55,40.41L58.22,40.43L57.45,40.39L56.92,40.32L56.53,40.22L56.43,40.16L56.42,40.10L56.50,40.02L56.74,39.93L57.14,39.84L57.65,39.77L65.31,39.14L66.42,39.12L67.51,39.17L67.91,39.21L68.26,39.28L68.44,39.36L68.51,39.43L68.48,39.49L68.42,39.53L68.22,39.60L67.91,39.68L67.43,39.75L61.89,40.22L61.93,40.23"/><path d="M61.78,40.25L62.01,43.30"/><path d="M61.89,40.22L62.12,43.29"/><path d="M68.60,39.43L68.81,42.48"/></g></g><g id="Actor_.5"><g style="stroke:#000000;stroke-width:0.123"><path d="M116.35,89.36L116.37,89.35L116.99,88.41L117.10,88.39L117.66,90.18L117.03,91.12L116.98,91.16"/><path d="M116.99,88.41L117.54,90.20L116.95,91.08"/><path d="M117.54,90.20L117.66,90.18"/></g></g><g id="Actor_.6"><g style="stroke:#000000;stroke-width:0.123"><path d="M178.84,93.21L178.74,93.23L178.64,95.33L178.65,95.41L178.66,95.45L178.69,95.49L178.72,95.52L177.60,94.95L177.56,94.93L177.53,94.89L177.52,94.85L177.51,94.77L177.61,92.68L177.71,92.66L178.84,93.21L178.74,95.32L178.75,95.37L178.78,95.41L178.81,95.42L178.84,95.42L180.84,95.09"/><path d="M177.61,92.68L178.74,93.23"/><path d="M178.72,95.52L178.79,95.54L178.83,95.53L180.83,95.21"/><path d="M180.88,95.00L179.87,94.51L178.77,94.68"/></g></g><g id="Actor_.7"><g style="stroke:#000000;stroke-width:0.123"><path d="M66.58,107.76L66.66,108.76"/><path d="M67.42,109.65L67.30,107.99L67.04,107.69"/><path d="M66.91,107.71L67.16,108.01L67.27,109.47"/><path d="M67.16,108.01L67.30,107.99"/></g></g><g id="Actor_.8"><g style="stroke:#000000;stroke-width:0.123"><path d="M127.18,60.38L127.47,61.24L127.49,61.29L127.51,61.31L127.54,61.33L127.56,61.33L127.58,61.32L127.59,61.30L128.23,60.28"/><path d="M128.13,60.29L127.56,61.20L127.54,61.22L127.52,61.21L127.51,61.19L127.49,61.16L127.24,60.37"/><path d="M127.56,61.33L129.27,61.16L129.30,61.13L129.94,60.12"/></g></g><g id="Actor_.9"><g style="stroke:#000000;stroke-width:0.123"><path d="M47.01,108.33L46.67,110.13L35.86,67.56L36.11,65.22L36.60,65.08"/><path d="M46.58,110.14L46.96,108.14L47.15,108.03"/><path d="M67.15,150.84L65.56,151.28L65.92,155.86L65.82,155.88L56.48,140.85L56.16,136.36L54.88,134.46L53.71,121.53L47.40,112.39L47.07,108.04"/><path d="M47.05,108.15L47.07,108.11"/><path d="M47.08,108.09L47.09,108.12"/><path d="M47.07,108.06L47.08,108.13"/><path d="M53.71,121.53L54.45,118.75L54.57,118.75"/><path d="M54.55,118.74L54.45,118.75L54.49,118.61L54.59,118.79"/><path d="M54.56,118.70L54.53,118.59"/><path d="M54.70,118.79L54.60,118.81"/><path d="M54.53,118.55L54.63,118.54"/><path d="M56.13,136.27L56.17,136.45"/><path d="M56.15,136.28L56.25,136.26L56.14,136.27"/><path d="M56.18,136.45L56.28,136.39L56.18,136.41"/><path d="M65.82,155.88L65.45,151.30L65.65,151.07L67.10,150.76"/></g></g><g id="Actor_.10"><g style="stroke:#000000;stroke-width:0.123"><path d="M87.85,106.15L87.85,106.03L88.76,106.89L88.78,106.90L88.79,106.89L88.80,106.86L88.80,106.81L88.69,104.56L88.73,104.60L88.84,106.85L88.84,106.97L88.81,107.02L88.79,107.03L88.77,107.02L87.85,106.15"/><path d="M87.85,106.03L88.75,105.89"/><path d="M88.80,107.03L90.91,106.70L90.94,106.68L90.96,106.62L90.96,106.52L90.85,104.28L90.81,104.24L88.69,104.56"/><path d="M88.73,104.60L90.85,104.28"/></g></g><g id="Actor_.11"><g style="stroke:#000000;stroke-width:0.123"><path d="M105.00,58.78L104.41,58.46L104.41,58.54L104.53,58.59"/><path d="M104.41,58.46L149.62,54.47L150.33,54.76L151.50,58.05L106.89,62.25"/><path d="M151.50,58.05L106.90,62.29"/></g></g><g id="Actor_.12"><g style="stroke:#000000;stroke-width:0.123"><path d="M109.67,101.15L110.01,101.41L110.07,103.59L110.08,103.67L110.11,103.72L110.14,103.76L109.33,103.12L109.30,103.08L109.27,103.04L109.26,102.96L109.21,101.22"/><path d="M110.14,103.76L110.18,103.78L110.23,103.80L110.31,103.80L112.85,103.40L112.85,103.28L110.31,103.68L110.27,103.68L110.24,103.67L110.20,103.63L110.19,103.58L110.13,101.39L110.01,101.41"/><path d="M110.17,102.94L112.03,102.65L112.85,103.28"/><path d="M109.79,101.13L110.13,101.39"/></g></g><g id="Actor_.13"><g style="stroke:#000000;stroke-width:0.123"><path d="M73.16,116.64L73.03,114.69L73.17,114.66L73.86,115.45L73.93,116.51"/><path d="M73.03,114.69L73.72,115.48L73.79,116.54"/><path d="M73.86,115.45L73.72,115.48"/></g></g><g id="Actor_.14"><g style="stroke:#000000;stroke-width:0.123"><path d="M129.26,106.22L129.26,106.98L129.27,107.03L129.30,107.08L129.35,107.13L128.41,106.46L128.37,106.42L128.34,106.37"/><path d="M129.35,107.13L129.42,107.16L129.50,107.16L132.03,106.73L132.03,106.61L131.08,105.94L129.38,106.23"/><path d="M132.03,106.61L129.50,107.03L129.46,107.03L129.42,107.01L129.39,106.98L129.38,106.95L129.38,106.20"/></g></g><g id="Actor_.15"><g style="stroke:#000000;stroke-width:0.123"><path d="M161.67,87.00L160.71,86.52L160.68,86.49L160.64,86.44L160.63,86.40L160.63,86.35L160.68,84.40L161.64,84.87L161.59,86.83L161.59,86.88L161.60,86.92L161.62,86.96L161.65,86.99L161.71,87.01L161.77,87.02L163.83,86.72L163.84,86.61L162.87,86.14L161.70,86.30"/><path d="M160.68,84.40L160.78,84.39L161.74,84.86L161.68,86.81L161.69,86.86L161.72,86.90L161.75,86.91L161.78,86.91L163.84,86.61"/><path d="M161.64,84.87L161.74,84.86"/></g></g><g id="Actor_.16"><g style="stroke:#000000;stroke-width:0.123"><path d="M151.04,58.13L150.43,58.96L150.41,58.99L150.42,59.02L150.97,60.59L150.97,60.57L150.99,60.53L151.73,59.53L151.23,58.11"/><path d="M150.97,60.59L150.98,60.61L151.01,60.62L151.04,60.63L151.10,60.63L152.46,60.49"/><path d="M152.44,60.44L151.14,60.57L151.10,60.57L151.08,60.56L151.07,60.54L151.08,60.53L151.83,59.52L151.73,59.53"/><path d="M151.08,60.56L151.08,60.56"/><path d="M151.83,59.52L151.32,58.10"/><path d="M151.88,58.87L151.61,58.90"/></g></g><g id="Actor_.17"><g style="stroke:#000000;stroke-width:0.123"><path d="M200.78,49.08L200.32,47.93L211.39,74.84L235.06,83.32L233.12,101.29L278.07,120.37L275.71,135.27L277.94,120.36L233.16,101.48L233.06,101.26L234.96,83.26L211.43,74.96L200.78,49.08"/><path d="M200.33,47.84L201.83,47.71L203.58,45.91L214.32,71.69L235.94,78.98L236.85,80.81L236.54,82.92L236.79,83.12L236.65,83.14L239.35,84.05L237.68,98.67L280.40,115.90L279.62,119.86L279.87,119.93L279.76,120.12L283.30,121.56L280.80,136.39L283.37,121.54L279.87,120.10"/><path d="M203.58,45.91L214.25,71.70L212.94,74.68"/><path d="M212.90,74.64L213.01,74.59"/><path d="M212.96,74.62L213.00,74.63"/><path d="M214.32,71.69L235.94,78.98"/><path d="M280.33,115.92L237.68,98.67L234.67,100.99"/><path d="M234.73,101.10L234.80,101.01"/><path d="M236.01,78.97L236.91,80.80L236.65,82.91"/><path d="M236.76,83.13L239.41,84.04L237.75,98.65"/><path d="M236.85,80.81L236.91,80.80"/><path d="M239.35,84.05L239.41,84.04"/><path d="M275.71,135.27L277.50,134.84L280.80,136.39"/><path d="M280.40,115.90L279.73,119.84"/><path d="M283.30,121.56L283.37,121.54"/></g></g><g id="Actor_.18"><g style="stroke:#000000;stroke-width:0.123"><path d="M56.74,118.17L72.54,115.55L65.81,107.79L110.80,100.89L119.83,107.70L131.31,105.80L119.15,97.31L105.83,59.22L104.61,58.59L37.82,64.49"/><path d="M45.69,78.68L45.38,77.92L45.49,77.09L46.06,76.42L46.76,76.09L47.79,76.02L48.79,76.34L49.54,76.97L49.87,77.61L49.90,78.29L49.62,78.91L48.53,79.62L47.71,79.71L46.88,79.55L46.16,79.16L45.69,78.68"/><path d="M49.89,78.31L49.81,77.49L49.41,76.87L48.78,76.38L47.99,76.10L47.16,76.06L46.21,76.36L45.69,76.81L45.38,77.45"/><path d="M56.75,118.26L72.54,115.55"/><path d="M65.88,107.87L110.80,100.97L119.83,107.79L131.31,105.80"/><path d="M110.87,100.88L110.87,100.96"/><path d="M119.83,107.70L119.83,107.79"/></g></g><g id="Actor_.19"><g style="stroke:#000000;stroke-width:0.123"><path d="M68.71,41.02L133.09,36.91L133.84,37.13L136.89,36.95L136.21,36.75L171.15,35.06L173.53,35.60L176.20,35.44L174.12,34.97L178.20,34.76L193.30,34.75L198.26,35.13L202.00,35.74L31.98,46.52L31.29,46.06L31.55,46.43"/><path d="M38.64,43.68L33.21,44.73L31.74,45.33L31.26,45.94"/><path d="M31.27,46.03L31.28,45.99"/><path d="M38.71,44.38L39.00,44.79L40.64,45.15L45.99,45.30L53.35,44.74L55.24,44.31L55.77,43.76"/><path d="M38.69,44.55L38.72,44.47"/><path d="M55.77,43.84L55.82,43.91"/><path d="M55.61,41.98L56.46,41.93"/><path d="M68.81,42.45L67.56,42.79L59.76,43.49L57.15,43.41L56.55,43.09"/><path d="M56.56,43.17L56.52,43.21"/><path d="M68.81,42.37L68.82,42.46"/><path d="M105.44,38.57L105.80,38.77"/><path d="M136.21,36.75L136.68,36.96"/><path d="M174.12,34.97L175.96,35.45"/><path d="M194.64,35.41L194.45,35.38L196.00,35.41L194.64,35.41"/><path d="M196.00,35.41L194.34,35.35"/></g></g><g id="Actor_.20"><g style="stroke:#000000;stroke-width:0.123"><path d="M49.22,45.11L48.95,41.95L46.76,42.08L44.77,42.15L43.79,42.16L41.93,42.11L41.09,42.06L39.71,41.89L39.19,41.78L38.79,41.67L38.54,41.54L38.42,41.40L38.73,44.62"/><path d="M48.95,41.95L44.78,42.14L42.87,42.13L41.98,42.10L41.12,42.04L39.80,41.88L39.28,41.77L38.89,41.66L38.64,41.53L38.53,41.40L38.55,41.26L38.71,41.12L39.00,40.98L39.43,40.85L39.96,40.72L41.34,40.50L43.03,40.33L48.26,40.03L49.20,40.01L51.03,40.02L51.89,40.05L53.40,40.17L54.55,40.35L54.96,40.46L55.24,40.58L55.39,40.71L55.41,40.85L55.30,40.98L55.05,41.12L54.67,41.26L54.16,41.39L53.55,41.51L52.02,41.71L51.15,41.80L49.08,41.93L49.36,45.10"/><path d="M38.42,41.40L38.44,41.26L38.61,41.12L38.91,40.98L39.33,40.84L39.88,40.71L41.28,40.49L42.99,40.31L48.25,40.02L49.20,40.00L51.06,40.00L52.74,40.09L53.47,40.16L54.64,40.34L55.05,40.45L55.34,40.58L55.50,40.71L55.52,40.85L55.40,40.98L55.15,41.12L54.76,41.26L54.25,41.39L53.62,41.52L52.07,41.73L51.18,41.81L49.12,41.94L49.38,45.10"/><path d="M49.11,41.94L49.08,41.93"/><path d="M55.52,40.85L55.77,44.00"/></g></g><g id="Actor_.21"><g style="stroke:#000000;stroke-width:0.123"><path d="M34.91,29.29L34.74,27.55L34.91,29.38L35.38,29.61L34.91,29.29"/><path d="M69.81,27.72L70.25,27.95L69.81,27.72L67.40,27.82L67.27,27.82L67.69,27.98L35.38,29.54"/><path d="M52.57,28.48L53.05,28.66L35.38,29.61"/><path d="M34.74,27.55L35.41,27.52L34.72,27.55"/><path d="M37.70,27.42L38.84,27.36L35.41,27.52"/><path d="M38.84,27.36L52.55,26.73L51.40,26.78"/><path d="M67.69,27.98L53.06,28.73"/><path d="M52.55,28.43L52.56,28.44"/><path d="M62.83,26.28L63.97,26.23L52.55,26.73"/><path d="M63.97,26.23L67.40,26.09L66.25,26.13"/><path d="M67.24,27.79L67.27,27.82"/><path d="M67.40,26.09L93.67,25.10L92.53,25.14"/><path d="M67.43,27.88L69.82,27.79"/><path d="M70.24,27.88L92.89,26.97L92.39,26.82L94.77,26.72L92.58,26.87"/><path d="M70.25,27.95L92.89,26.97"/><path d="M108.18,26.19L108.66,26.42L95.28,26.87L94.74,26.65"/><path d="M94.77,26.79L95.28,26.87"/><path d="M94.66,25.06L93.67,25.10L94.81,25.06L94.66,25.06"/><path d="M94.81,25.06L108.52,24.62L107.38,24.66"/><path d="M95.28,26.94L123.74,25.95L108.66,26.48"/><path d="M108.18,26.21L108.18,26.20"/><path d="M108.52,24.62L123.19,24.20L123.22,25.73L123.74,25.95"/><path d="M123.21,24.20L122.23,24.23"/></g></g><g id="Actor_.22"><g style="stroke:#000000;stroke-width:0.123"><path d="M99.94,128.91L101.84,130.84L79.47,135.23L77.31,132.53L60.07,135.83"/><path d="M69.64,150.19L148.79,133.20L133.99,121.67L102.08,127.78"/><path d="M148.79,133.20L69.70,150.28"/><path d="M101.77,130.86L99.88,128.92"/></g></g><g id="Actor_.23"><g style="stroke:#000000;stroke-width:0.123"><path d="M30.97,46.79L30.84,46.60L31.27,49.56L31.21,49.08"/><path d="M30.79,46.48L202.54,35.70L202.46,38.01L200.82,38.12L200.00,49.94L37.75,64.23"/><path d="M31.27,49.56L34.02,49.37L35.41,62.74L35.30,61.63"/><path d="M34.23,51.36L34.35,52.50"/><path d="M36.42,64.35L35.59,64.42L35.53,63.91L35.59,64.42"/><path d="M35.53,63.91L35.41,62.77L35.53,63.91"/></g></g><g id="Actor_.24"><g style="stroke:#000000;stroke-width:0.123"><path d="M251.76,111.15L197.62,122.78L180.03,112.71L180.89,95.03L180.00,112.77L197.56,122.87L251.75,111.23L232.11,102.75L233.82,86.48L180.89,95.03"/><path d="M180.84,95.01L233.82,86.48"/><path d="M197.56,122.79L197.56,122.87"/></g></g><g id="Actor_.25"><g style="stroke:#000000;stroke-width:0.123"><path d="M213.82,34.67L214.79,34.89L214.79,34.97L213.82,34.75L213.76,34.69L213.89,32.75L213.94,32.76L213.79,34.59L213.82,34.67"/><path d="M213.94,32.76L222.91,32.43L225.16,32.39L230.05,32.47L232.55,32.55L235.05,32.70L237.40,32.91L239.51,33.18L241.33,33.47L241.10,35.36L239.79,35.48L238.11,35.19L236.33,34.96L234.38,34.78L232.32,34.65L230.11,34.57L225.65,34.50L223.59,34.54L214.79,34.89"/><path d="M213.89,32.75L222.87,32.42L225.13,32.39L230.03,32.46L232.54,32.54L235.09,32.70L237.43,32.91L238.74,33.07L241.38,33.47L241.33,33.47"/><path d="M214.79,34.97L221.52,34.67L221.52,34.60L220.60,34.38L220.56,34.32"/><path d="M220.60,34.38L220.56,34.29"/><path d="M221.52,34.67L223.59,34.62L223.59,34.54L222.78,34.32L222.75,34.23"/><path d="M222.75,34.25L222.78,34.32"/><path d="M223.59,34.62L225.64,34.58L225.65,34.50L225.03,34.29L224.99,34.19"/><path d="M222.75,34.24L222.75,34.23"/><path d="M225.00,34.25L225.00,34.19L225.02,34.28"/><path d="M227.41,34.30L227.41,34.24L227.41,34.30L227.81,34.52L227.81,34.60L225.64,34.58"/><path d="M227.81,34.60L230.10,34.65L230.11,34.57L229.88,34.35L229.87,34.27"/><path d="M227.40,34.27L227.40,34.21"/><path d="M227.41,34.24L227.41,34.21"/><path d="M230.10,34.65L232.31,34.72L234.37,34.85L234.38,34.78L234.84,34.59L234.86,34.51L234.85,34.58"/><path d="M229.87,34.33L229.88,34.27L229.88,34.35"/><path d="M232.31,34.72L232.37,34.35"/><path d="M232.37,34.43L232.37,34.43"/><path d="M232.39,34.35L232.37,34.44"/><path d="M234.84,34.59L234.88,34.51"/><path d="M234.37,34.85L236.32,35.04L236.33,34.96L237.17,34.81L237.21,34.73L237.20,34.79"/><path d="M236.32,35.04L238.10,35.27L238.11,35.19L239.26,35.08L239.31,35.00L239.30,35.04"/><path d="M237.22,34.73L237.17,34.81"/><path d="M238.10,35.27L239.78,35.55L239.79,35.48"/><path d="M239.78,35.55L241.06,35.46L241.14,35.41L241.18,35.30L241.38,33.47"/><path d="M239.26,35.08L239.32,35.00"/></g></g><g id="Actor_.26"><g style="stroke:#000000;stroke-width:0.123"><path d="M150.32,54.74L150.78,55.66L160.08,81.86L160.08,83.80L179.98,93.49L160.08,83.87L160.06,81.95L159.92,81.54L150.36,54.82"/><path d="M149.81,54.54L199.17,50.18L199.90,50.37L210.08,75.13L209.97,76.84L232.66,85.13L179.98,93.49"/><path d="M179.97,93.57L232.66,85.13"/></g></g><g id="Actor_.27"><g style="stroke:#000000;stroke-width:0.123"><path d="M107.25,63.28L107.80,63.22L107.82,63.21L107.83,63.19L108.38,62.15"/><path d="M107.80,63.22L107.80,63.22"/></g></g><g id="Actor_.28"><g style="stroke:#000000;stroke-width:0.123"><path d="M118.61,109.02L118.59,108.00L118.72,107.98L118.73,109.00"/><path d="M117.71,109.17L117.68,107.31L118.59,108.00"/><path d="M118.72,107.98L117.81,107.29L117.68,107.31"/></g></g><g id="Actor_.29"><g style="stroke:#000000;stroke-width:0.123"><path d="M31.25,49.53L30.87,49.55L30.79,49.53L30.75,49.46L30.48,46.93L30.37,46.94L30.64,49.46L30.72,49.61L30.18,49.05L30.10,48.91L30.11,49.01L30.15,49.01"/><path d="M30.72,49.61L30.88,49.66L33.40,49.50L33.40,49.42"/><path d="M30.64,48.42L31.13,48.41"/><path d="M30.70,48.98L31.19,48.95"/><path d="M30.09,48.90L30.11,49.01"/><path d="M30.10,49.00L30.11,49.00"/><path d="M30.37,46.94L29.82,46.40L30.10,48.90"/><path d="M30.17,49.04L30.15,49.01"/><path d="M30.48,46.93L29.93,46.39L30.09,45.84L31.07,45.28L32.80,44.75L33.96,44.53"/><path d="M29.82,46.39L29.98,45.84L30.95,45.28L32.70,44.75L34.51,44.39"/></g></g><g id="Actor_.30"><g style="stroke:#000000;stroke-width:0.123"><path d="M58.11,132.89L56.95,119.40L75.99,116.20L75.96,116.17L56.92,119.36L56.95,119.40"/><path d="M58.09,132.85L56.92,119.36"/><path d="M59.05,134.30L76.94,130.92L75.99,116.20"/></g></g><g id="Actor_.31"><g style="stroke:#000000;stroke-width:0.123"><path d="M260.45,91.88L261.07,92.10L261.05,92.23L261.11,92.11L260.45,91.88L259.60,98.08L280.95,106.04L281.13,106.05L281.79,105.90L282.85,99.42L282.15,99.57L282.07,99.55L282.15,99.53"/><path d="M282.13,99.57L282.12,99.63L281.95,99.57L282.07,99.43L282.20,99.47L282.87,99.34L261.82,91.96L261.11,92.11"/><path d="M261.07,92.10L261.12,92.09"/><path d="M282.07,99.55L282.06,99.61L282.11,99.62"/><path d="M281.95,99.59L282.06,99.60"/><path d="M282.00,99.58L282.07,99.43"/><path d="M282.06,99.50L282.18,99.55L282.20,99.47"/><path d="M282.12,99.63L282.15,99.62"/><path d="M282.85,99.42L282.83,99.41"/><path d="M282.87,99.34L282.86,99.41L282.18,99.55"/></g></g><g id="Actor_.32"><g style="stroke:#000000;stroke-width:0.123"><path d="M69.32,154.19L70.28,166.93L69.29,154.15"/><path d="M76.60,165.42L70.28,166.93"/><path d="M78.73,164.91L148.79,148.18L149.03,134.67L70.61,151.65"/><path d="M70.58,151.61L149.03,134.63"/></g></g><g id="Actor_.33"><g style="stroke:#000000;stroke-width:0.123"><path d="M253.17,92.55L251.26,91.86L252.17,84.72L254.06,82.47L254.11,82.46L255.19,82.82L255.17,82.85L254.47,82.96L253.17,92.94L253.89,92.81L255.20,82.83"/><path d="M253.17,92.94L253.12,92.93L254.42,82.94L254.47,82.96"/><path d="M254.42,82.94L255.10,82.83L255.12,82.82L254.06,82.47"/></g></g><g id="Actor_.34"><g style="stroke:#000000;stroke-width:0.123"><path d="M126.20,75.33L126.60,76.42L128.86,76.15L128.94,76.14L129.01,76.11L129.07,76.07L129.13,76.01L129.77,74.86L129.66,74.87L129.05,73.23L128.43,74.38L128.40,74.41L128.36,74.44L128.29,74.46L126.03,74.72L126.00,74.78L126.20,75.33"/><path d="M129.66,74.87L129.04,76.01L129.01,76.04L128.97,76.07L128.90,76.09L126.63,76.36L126.03,74.72"/><path d="M126.63,76.36L126.60,76.42"/><path d="M129.05,73.23L129.16,73.22L129.77,74.86"/></g></g><g id="Actor_.35"><g style="stroke:#000000;stroke-width:0.123"><path d="M76.53,120.57L76.33,117.36L77.23,130.95L78.47,132.49L78.46,132.40L77.20,130.83L76.53,120.57"/><path d="M76.36,117.39L77.40,117.21L77.38,117.18L76.33,117.36"/><path d="M77.22,130.87L78.16,130.69L78.16,130.60L78.28,130.62L78.21,130.72L78.16,130.69"/><path d="M77.40,117.21L77.44,117.84L77.36,117.85L77.72,117.85L77.48,115.83L98.99,112.23L99.02,112.26L77.51,115.86"/><path d="M77.72,117.85L77.44,117.81"/><path d="M77.69,117.84L77.55,116.85L77.48,115.83"/><path d="M78.47,132.49L79.51,132.29L79.50,132.20L78.46,132.40"/><path d="M79.50,132.20L79.42,132.19L79.48,132.09L79.72,132.07L79.75,132.23L80.08,132.64L80.09,132.73L79.75,132.31L79.70,132.08"/><path d="M79.58,132.09L79.51,132.23"/><path d="M80.08,132.64L101.45,128.53L101.46,128.61L80.09,132.73"/><path d="M99.02,112.26L99.06,113.20L99.19,114.19L99.30,114.16L99.38,114.63L101.17,127.95L101.09,128.01L101.12,128.06L101.05,127.99L101.06,128.09L101.45,128.53"/><path d="M99.32,114.15L99.36,114.10L99.27,114.12L99.25,113.51L100.23,113.34L100.62,123.87"/><path d="M99.19,114.18L99.25,114.09"/><path d="M99.21,114.17L99.20,114.14"/><path d="M99.25,113.51L99.22,113.48L100.20,113.31L100.23,113.34"/><path d="M99.22,113.48L99.27,114.12"/><path d="M101.08,127.99L101.05,127.99"/><path d="M101.12,128.06L101.17,128.09"/><path d="M101.19,128.04L101.17,128.11L101.19,128.04L102.16,127.86L102.16,127.94L101.19,128.13"/><path d="M101.17,128.02L101.24,128.01L101.17,127.96"/><path d="M102.16,127.86L101.01,126.71"/></g></g><g><g><path style="stroke:#000000;stroke-width:0.208;stroke-dasharray:2.3 2.3" d="M81.77,26.63L120.29,39.36"/></g></g><g><g><path style="stroke:#000000;stroke-width:0.208;stroke-dasharray:2.3 2.3" d="M227.44,34.11L188.07,36.60"/></g></g><g><g><path style="stroke:#000000;stroke-width:0.208;stroke-dasharray:2.3 2.3" d="M277.59,60.97L215.28,68.72"/></g></g><g><g><path style="stroke:#000000;stroke-width:0.208;stroke-dasharray:2.3 2.3" d="M252.88,87.45L232.52,90.90"/></g></g><g><g><path style="stroke:#000000;stroke-width:0.208;stroke-dasharray:2.3 2.3" d="M270.80,98.68L242.64,104.25"/></g></g><g><g><path style="stroke:#000000;stroke-width:0.208;stroke-dasharray:2.3 2.3" d="M127.88,74.82L109.95,76.92"/></g></g><g id="PMI4.0"><g><path style="stroke:#000000;stroke-width:0.281" d="M82.38,21.61L82.33,23.70"/></g><g><path style="fill:#000000" d="M81.34,23.69L83.34,23.73L82.29,25.71z"/></g><g><path style="fill:#ffffff" d="M74.63,21.61L90.27,21.61L90.27,16.53L74.63,16.53z"/><path style="stroke:#000000;stroke-width:0.281;stroke-opacity:0.98" d="M74.63,21.61L90.27,21.61L90.27,16.53L74.63,16.53z"/><text xml:space="preserve" fill="#000000" stroke-width="0" x="75.26" y="20.18" font-size="3.04" opacity="1.00" font-family="Microsoft Sans Serif">1003ABZ0</text></g></g><g id="PMI22.0"><g><path style="stroke:#000000;stroke-width:0.281" d="M277.91,89.12L274.73,89.12L273.16,93.58"/></g><g><path style="fill:#000000" d="M272.20,93.24L274.09,93.91L272.48,95.46z"/></g><g><path style="fill:#ffffff" d="M277.26,91.67L293.60,91.67L293.60,86.59L277.26,86.59z"/><path style="stroke:#000000;stroke-width:0.281;stroke-opacity:0.98" d="M277.26,91.67L293.60,91.67L293.60,86.59L277.26,86.59z"/><text xml:space="preserve" fill="#000000" stroke-width="0" x="277.89" y="90.24" font-size="3.05" opacity="1.00" font-family="Microsoft Sans Serif">1003ANQ1</text></g></g><g id="PMI19.0"><g><path style="stroke:#000000;stroke-width:0.281" d="M261.93,41.52L262.05,44.41"/></g><g><path style="fill:#000000" d="M261.04,44.46L263.04,44.38L262.12,46.42z"/></g><g><path style="fill:#ffffff" d="M254.10,42.17L269.75,42.17L269.75,37.09L254.10,37.09z"/><path style="stroke:#000000;stroke-width:0.281;stroke-opacity:0.98" d="M254.10,42.17L269.75,42.17L269.75,37.09L254.10,37.09z"/><text xml:space="preserve" fill="#000000" stroke-width="0" x="254.74" y="40.74" font-size="3.04" opacity="1.00" font-family="Microsoft Sans Serif">1003AC50</text></g></g><g id="PMI3.0"><g><path style="stroke:#000000;stroke-width:0.281" d="M227.57,28.21L227.55,30.51"/></g><g><path style="fill:#000000" d="M226.54,30.51L228.54,30.53L227.52,32.52z"/></g><g><path style="fill:#ffffff" d="M219.65,28.85L235.48,28.85L235.48,23.77L219.65,23.77z"/><path style="stroke:#000000;stroke-width:0.281;stroke-opacity:0.98" d="M219.65,28.85L235.48,28.85L235.48,23.77L219.65,23.77z"/><text xml:space="preserve" fill="#000000" stroke-width="0" x="220.29" y="27.42" font-size="3.05" opacity="1.00" font-family="Microsoft Sans Serif">1003ABY0</text></g></g><g id="PMI23.0"><g><path style="stroke:#000000;stroke-width:0.281" d="M172.84,103.02L176.02,103.02L177.65,97.38"/></g><g><path style="fill:#000000" d="M178.60,97.66L176.68,97.11L178.20,95.46z"/></g><g><path style="fill:#ffffff" d="M158.87,105.56L173.47,105.56L173.47,100.48L158.87,100.48z"/><path style="stroke:#000000;stroke-width:0.281;stroke-opacity:0.98" d="M158.87,105.56L173.47,105.56L173.47,100.48L158.87,100.48z"/><text xml:space="preserve" fill="#000000" stroke-width="0" x="159.50" y="104.13" font-size="3.04" opacity="1.00" font-family="Microsoft Sans Serif">1003I5G0</text></g></g><g id="PMI20.0"><g><path style="stroke:#000000;stroke-width:0.281" d="M259.67,75.23L256.49,75.23L255.02,80.72"/></g><g><path style="fill:#000000" d="M254.05,80.47L255.98,80.98L254.49,82.66z"/></g><g><path style="fill:#ffffff" d="M259.02,77.77L274.67,77.77L274.67,72.69L259.02,72.69z"/><path style="stroke:#000000;stroke-width:0.281;stroke-opacity:0.98" d="M259.02,77.77L274.67,77.77L274.67,72.69L259.02,72.69z"/><text xml:space="preserve" fill="#000000" stroke-width="0" x="259.66" y="76.34" font-size="3.04" opacity="1.00" font-family="Microsoft Sans Serif">1003AC61</text></g></g><g id="PMI9.0"><g><path style="stroke:#000000;stroke-width:0.281" d="M113.51,31.10L113.59,36.24"/></g><g><path style="fill:#000000" d="M112.59,36.26L114.59,36.23L113.62,38.24z"/></g><g><path style="fill:#ffffff" d="M105.60,31.74L121.42,31.74L121.42,26.67L105.60,26.67z"/><path style="stroke:#000000;stroke-width:0.281;stroke-opacity:0.98" d="M105.60,31.74L121.42,31.74L121.42,26.67L105.60,26.67z"/><text xml:space="preserve" fill="#000000" stroke-width="0" x="106.24" y="30.32" font-size="3.05" opacity="1.00" font-family="Microsoft Sans Serif">1003ABP1</text></g></g><g id="PMI21.0"><g><path style="stroke:#000000;stroke-width:0.281" d="M233.03,68.86L229.86,68.86L228.14,74.21"/></g><g><path style="fill:#000000" d="M227.18,73.91L229.08,74.52L227.52,76.12z"/></g><g><path style="fill:#ffffff" d="M232.39,71.40L248.55,71.40L248.55,66.32L232.39,66.32z"/><path style="stroke:#000000;stroke-width:0.281;stroke-opacity:0.98" d="M232.39,71.40L248.55,71.40L248.55,66.32L232.39,66.32z"/><text xml:space="preserve" fill="#000000" stroke-width="0" x="233.03" y="69.97" font-size="3.05" opacity="1.00" font-family="Microsoft Sans Serif">1003ANN0</text></g></g><g id="PMI37.0"><g><path style="stroke:#000000;stroke-width:0.281" d="M128.82,84.66L128.24,78.11"/></g><g><path style="fill:#000000" d="M129.24,78.02L127.25,78.20L128.06,76.12z"/></g><g><path style="fill:#ffffff" d="M121.52,85.30L136.13,85.30L136.13,80.22L121.52,80.22z"/><path style="stroke:#000000;stroke-width:0.281;stroke-opacity:0.98" d="M121.52,85.30L136.13,85.30L136.13,80.22L121.52,80.22z"/><text xml:space="preserve" fill="#000000" stroke-width="0" x="122.16" y="83.87" font-size="3.04" opacity="1.00" font-family="Microsoft Sans Serif">1003I5G0</text></g></g><g id="PMI7.0"><g><path style="stroke:#000000;stroke-width:0.281" d="M162.99,95.20L166.17,95.20L168.00,89.99"/></g><g><path style="fill:#000000" d="M168.94,90.32L167.06,89.66L168.66,88.11z"/></g><g><path style="fill:#ffffff" d="M147.29,97.74L163.62,97.74L163.62,92.67L147.29,92.67z"/><path style="stroke:#000000;stroke-width:0.281;stroke-opacity:0.98" d="M147.29,97.74L163.62,97.74L163.62,92.67L147.29,92.67z"/><text xml:space="preserve" fill="#000000" stroke-width="0" x="147.92" y="96.32" font-size="3.05" opacity="1.00" font-family="Microsoft Sans Serif">1003ABM0</text></g></g><g id="PMI15.0"><g><path style="stroke:#000000;stroke-width:0.281" d="M131.42,68.57L128.24,68.57L126.24,62.48"/></g><g><path style="fill:#000000" d="M127.19,62.17L125.29,62.80L125.61,60.59z"/></g><g><path style="fill:#ffffff" d="M130.79,71.11L146.78,71.11L146.78,66.03L130.79,66.03z"/><path style="stroke:#000000;stroke-width:0.281;stroke-opacity:0.98" d="M130.79,71.11L146.78,71.11L146.78,66.03L130.79,66.03z"/><text xml:space="preserve" fill="#000000" stroke-width="0" x="131.42" y="69.68" font-size="3.05" opacity="1.00" font-family="Microsoft Sans Serif">1003ABU0</text></g></g><g id="PMI10.0"><g><path style="stroke:#000000;stroke-width:0.281" d="M64.21,34.00L64.09,37.33"/></g><g><path style="fill:#000000" d="M63.10,37.30L65.10,37.37L64.03,39.33z"/></g><g><path style="fill:#ffffff" d="M56.39,34.64L72.04,34.64L72.04,29.56L56.39,29.56z"/><path style="stroke:#000000;stroke-width:0.281;stroke-opacity:0.98" d="M56.39,34.64L72.04,34.64L72.04,29.56L56.39,29.56z"/><text xml:space="preserve" fill="#000000" stroke-width="0" x="57.03" y="33.21" font-size="3.04" opacity="1.00" font-family="Microsoft Sans Serif">1003AC01</text></g></g><g id="PMI18.0"><g><path style="stroke:#000000;stroke-width:0.281" d="M231.88,136.89L228.70,136.89L227.03,131.44"/></g><g><path style="fill:#000000" d="M227.97,131.14L226.06,131.73L226.43,129.52z"/></g><g><path style="fill:#ffffff" d="M231.23,139.43L247.92,139.43L247.92,134.35L231.23,134.35z"/><path style="stroke:#000000;stroke-width:0.281;stroke-opacity:0.98" d="M231.23,139.43L247.92,139.43L247.92,134.35L231.23,134.35z"/><text xml:space="preserve" fill="#000000" stroke-width="0" x="231.87" y="138.00" font-size="3.05" opacity="1.00" font-family="Microsoft Sans Serif">1003ABW0</text></g></g><g id="PMI5.0"><g><path style="stroke:#000000;stroke-width:0.281" d="M46.47,34.92L46.37,38.42"/></g><g><path style="fill:#000000" d="M45.38,38.39L47.38,38.45L46.32,40.42z"/></g><g><path style="fill:#ffffff" d="M38.73,34.93L54.38,34.93L54.38,29.85L38.73,29.85z"/><path style="stroke:#000000;stroke-width:0.281;stroke-opacity:0.98" d="M38.73,34.93L54.38,34.93L54.38,29.85L38.73,29.85z"/><text xml:space="preserve" fill="#000000" stroke-width="0" x="39.37" y="33.50" font-size="3.04" opacity="1.00" font-family="Microsoft Sans Serif">1003AC11</text></g></g><g id="PMI8.0"><g><path style="stroke:#000000;stroke-width:0.281" d="M180.02,122.42L183.20,122.42L185.83,118.39"/></g><g><path style="fill:#000000" d="M186.66,118.94L184.99,117.84L186.92,116.72z"/></g><g><path style="fill:#ffffff" d="M164.65,124.95L180.65,124.95L180.65,119.88L164.65,119.88z"/><path style="stroke:#000000;stroke-width:0.281;stroke-opacity:0.98" d="M164.65,124.95L180.65,124.95L180.65,119.88L164.65,119.88z"/><text xml:space="preserve" fill="#000000" stroke-width="0" x="165.29" y="123.53" font-size="3.05" opacity="1.00" font-family="Microsoft Sans Serif">1003ABN0</text></g></g><g id="PMI2.0"><g><path style="stroke:#000000;stroke-width:0.281" d="M129.97,94.62L126.80,94.62L125.38,99.27"/></g><g><path style="fill:#000000" d="M124.42,98.98L126.34,99.56L124.79,101.19z"/></g><g><path style="fill:#ffffff" d="M129.34,97.17L145.16,97.17L145.16,92.09L129.34,92.09z"/><path style="stroke:#000000;stroke-width:0.281;stroke-opacity:0.98" d="M129.34,97.17L145.16,97.17L145.16,92.09L129.34,92.09z"/><text xml:space="preserve" fill="#000000" stroke-width="0" x="129.97" y="95.74" font-size="3.05" opacity="1.00" font-family="Microsoft Sans Serif">1003ABK0</text></g></g><g id="PMI1.0"><g><path style="stroke:#000000;stroke-width:0.281" d="M29.86,55.00L32.85,54.91"/></g><g><path style="fill:#000000" d="M32.91,55.93L32.85,53.93L34.88,54.86z"/></g><g><path style="fill:#ffffff" d="M14.42,57.80L29.89,57.80L29.89,52.72L14.42,52.72z"/><path style="stroke:#000000;stroke-width:0.281;stroke-opacity:0.98" d="M14.42,57.80L29.89,57.80L29.89,52.72L14.42,52.72z"/><text xml:space="preserve" fill="#000000" stroke-width="0" x="15.05" y="56.37" font-size="3.04" opacity="1.00" font-family="Microsoft Sans Serif">1003ABL0</text></g></g><g id="PMI38.0"><g><path style="stroke:#000000;stroke-width:0.281" d="M25.69,46.91L27.94,46.93"/></g><g><path style="fill:#000000" d="M27.96,47.95L27.98,45.95L29.97,46.96z"/></g><g><path style="fill:#ffffff" d="M10.08,49.40L25.72,49.40L25.72,44.32L10.08,44.32z"/><path style="stroke:#000000;stroke-width:0.281;stroke-opacity:0.98" d="M10.08,49.40L25.72,49.40L25.72,44.32L10.08,44.32z"/><text xml:space="preserve" fill="#000000" stroke-width="0" x="10.71" y="47.97" font-size="3.04" opacity="1.00" font-family="Microsoft Sans Serif">1003AC20</text></g></g><g id="PMI13.0"><g><path style="stroke:#000000;stroke-width:0.281" d="M137.15,113.17L135.24,113.17"/></g><g><path style="fill:#000000" d="M135.24,112.17L135.24,114.17L133.24,113.17z"/></g><g><path style="fill:#ffffff" d="M137.15,115.69L152.98,115.69L152.98,110.61L137.15,110.61z"/><path style="stroke:#000000;stroke-width:0.281;stroke-opacity:0.98" d="M137.15,115.69L152.98,115.69L152.98,110.61L137.15,110.61z"/><text xml:space="preserve" fill="#000000" stroke-width="0" x="137.79" y="114.26" font-size="3.05" opacity="1.00" font-family="Microsoft Sans Serif">1003ABS0</text></g></g><g id="PMI11.0"><g><path style="stroke:#000000;stroke-width:0.281" d="M146.18,120.10L143.01,120.10L141.44,125.43"/></g><g><path style="fill:#000000" d="M140.48,125.14L142.40,125.71L140.87,127.34z"/></g><g><path style="fill:#ffffff" d="M145.55,122.64L161.72,122.64L161.72,117.56L145.55,117.56z"/><path style="stroke:#000000;stroke-width:0.281;stroke-opacity:0.98" d="M145.55,122.64L161.72,122.64L161.72,117.56L145.55,117.56z"/><text xml:space="preserve" fill="#000000" stroke-width="0" x="146.18" y="121.21" font-size="3.05" opacity="1.00" font-family="Microsoft Sans Serif">1003ABQ0</text></g></g><g id="PMI14.0"><g><path style="stroke:#000000;stroke-width:0.281" d="M104.47,168.77L101.30,168.77L91.49,132.29"/></g><g><path style="fill:#000000" d="M92.49,132.01L90.56,132.53L91.01,130.34z"/></g><g><path style="fill:#ffffff" d="M103.87,171.27L119.51,171.27L119.51,166.19L103.87,166.19z"/><path style="stroke:#000000;stroke-width:0.281;stroke-opacity:0.98" d="M103.87,171.27L119.51,171.27L119.51,166.19L103.87,166.19z"/><text xml:space="preserve" fill="#000000" stroke-width="0" x="104.50" y="169.84" font-size="3.04" opacity="1.00" font-family="Microsoft Sans Serif">1003ABT0</text></g></g><g id="PMI12.0"><g><path style="stroke:#000000;stroke-width:0.281" d="M80.76,108.81L77.58,108.81L75.79,114.54"/></g><g><path style="fill:#000000" d="M74.85,114.24L76.75,114.83L75.20,116.44z"/></g><g><path style="fill:#ffffff" d="M80.13,111.35L96.12,111.35L96.12,106.27L80.13,106.27z"/><path style="stroke:#000000;stroke-width:0.281;stroke-opacity:0.98" d="M80.13,111.35L96.12,111.35L96.12,106.27L80.13,106.27z"/><text xml:space="preserve" fill="#000000" stroke-width="0" x="80.76" y="109.92" font-size="3.05" opacity="1.00" font-family="Microsoft Sans Serif">1003ABR0</text></g></g><g id="PMI17.0"><g><path style="stroke:#000000;stroke-width:0.281" d="M121.86,163.53L118.69,163.53L116.92,157.60"/></g><g><path style="fill:#000000" d="M117.88,157.31L115.96,157.88L116.35,155.68z"/></g><g><path style="fill:#ffffff" d="M121.23,166.06L137.06,166.06L137.06,160.98L121.23,160.98z"/><path style="stroke:#000000;stroke-width:0.281;stroke-opacity:0.98" d="M121.23,166.06L137.06,166.06L137.06,160.98L121.23,160.98z"/><text xml:space="preserve" fill="#000000" stroke-width="0" x="121.87" y="164.63" font-size="3.05" opacity="1.00" font-family="Microsoft Sans Serif">1003ABV0</text></g></g><g id="PMI16.0"><g><path style="stroke:#000000;stroke-width:0.281" d="M52.85,151.09L56.02,151.09L58.72,147.49"/></g><g><path style="fill:#000000" d="M59.55,148.07L57.95,146.87L59.94,145.87z"/></g><g><path style="fill:#ffffff" d="M37.87,153.61L53.51,153.61L53.51,148.53L37.87,148.53z"/><path style="stroke:#000000;stroke-width:0.281;stroke-opacity:0.98" d="M37.87,153.61L53.51,153.61L53.51,148.53L37.87,148.53z"/><text xml:space="preserve" fill="#000000" stroke-width="0" x="38.50" y="152.18" font-size="3.04" opacity="1.00" font-family="Microsoft Sans Serif">1003AC40</text></g></g><g id="PMI6.0"><g><path style="stroke:#000000;stroke-width:0.281" d="M85.33,180.62L83.19,180.55"/></g><g><path style="fill:#000000" d="M83.23,179.54L83.16,181.54L81.20,180.48z"/></g><g><path style="fill:#ffffff" d="M85.34,183.43L101.33,183.43L101.33,178.35L85.34,178.35z"/><path style="stroke:#000000;stroke-width:0.281;stroke-opacity:0.98" d="M85.34,183.43L101.33,183.43L101.33,178.35L85.34,178.35z"/><text xml:space="preserve" fill="#000000" stroke-width="0" x="85.97" y="182.00" font-size="3.05" opacity="1.00" font-family="Microsoft Sans Serif">1003APC0</text></g></g><g/><g id="paperID" visibility="hidden" opacity="0.00" transform="scale(0.000100)"><path style="stroke:#000000;stroke-width:0.500;fill:#e6e6e6;fill-rule:evenodd" d="M-2000.00,-2000.00L2297.00,-2000.00L2297.00,2210.00L-2000.00,2210.00zM0.00,0.00L297.00,0.00L297.00,210.00L0.00,210.00z"/><path style="fill:#000000;fill-opacity:0.118" d="M3.00,210.00L297.00,210.00L297.00,3.00L300.00,3.00L300.00,213.00L3.00,213.00z"/></g><g id="hotspot.0" onmouseover="ShowHotSpot(evt,'0')" onmouseout="HideHotSpot(evt,'0')" onmousemove="ShowToolTip(evt,'0',&quot;3dp-3-036052&quot;)" opacity="0"><path style="fill:#00ff00;fill-rule:evenodd" d="M202.55,35.69L202.46,37.75L200.99,38.01L200.79,38.97L199.93,49.69L199.58,49.93L37.74,64.18L37.26,62.03L36.67,61.46L36.07,59.43L36.07,62.92L36.38,64.09L35.74,64.17L35.48,63.52L34.64,55.07L34.28,55.04L33.19,55.80L33.10,54.19L34.35,54.35L34.09,49.55L33.79,49.26L31.36,49.41L30.79,46.38L49.69,45.35L199.37,35.78zM30.04,52.75L30.19,54.63L32.64,54.81L30.19,55.09L30.02,57.81L14.27,57.81L14.36,52.57L29.75,52.46z"/></g><g id="hotspot.1" onmouseover="ShowHotSpot(evt,'1')" onmouseout="HideHotSpot(evt,'1')" onmousemove="ShowToolTip(evt,'1',&quot;3dp-3-045357&quot;)" opacity="0"><path style="fill:#00ff00;fill-rule:evenodd" d="M56.24,34.65L56.34,29.41L71.99,29.32L71.99,34.65L64.35,34.82L64.16,36.98L63.89,34.82zM63.21,37.41L65.04,37.42L64.66,38.01L64.34,38.98L68.25,39.14L68.54,39.43L68.81,42.45L67.84,42.66L61.76,43.23L56.62,43.24L56.55,40.05L57.10,39.73L63.55,39.20L63.89,38.87z"/></g><g id="hotspot.2" onmouseover="ShowHotSpot(evt,'2')" onmouseout="HideHotSpot(evt,'2')" onmousemove="ShowToolTip(evt,'2',&quot;3dp-3-048180&quot;)" opacity="0"><path style="fill:#00ff00;fill-rule:evenodd" d="M143.00,120.13L143.09,119.93L145.23,119.76L145.49,117.41L161.73,117.32L161.73,122.65L145.40,122.65L145.23,120.22zM142.70,120.99L142.80,120.22L143.00,120.13zM140.61,126.70L140.53,125.11L141.37,125.20L141.56,125.07L141.79,125.42L142.08,126.11L141.44,126.72L141.44,127.45L148.46,132.99L148.43,133.34L69.60,150.15L60.35,136.14L60.33,135.85L60.86,135.56L75.94,132.68L77.51,132.65L79.23,135.00L80.28,135.00L101.49,130.75L99.98,128.91L101.17,128.43L101.17,128.04L103.14,127.46L133.93,121.65z"/></g><g id="hotspot.3" onmouseover="ShowHotSpot(evt,'3')" onmouseout="HideHotSpot(evt,'3')" onmousemove="ShowToolTip(evt,'3',&quot;3dp-3-048182&quot;)" opacity="0"><path style="fill:#00ff00;fill-rule:evenodd" d="M96.33,106.30L96.22,111.27L79.98,111.36L79.81,108.93L77.58,108.84L77.67,108.64L79.81,108.47L80.07,106.13L96.04,106.01zM77.29,109.71L77.38,108.93L77.58,108.84zM76.16,113.80L75.82,114.33L76.13,113.47zM76.59,114.73L75.64,115.86L75.99,116.18L76.90,130.74L65.32,133.06L58.97,134.13L58.07,132.41L57.22,122.26L57.13,119.37L63.20,118.20L75.19,116.27L75.06,114.43L75.82,114.33z"/></g><g id="hotspot.4" onmouseover="ShowHotSpot(evt,'4')" onmouseout="HideHotSpot(evt,'4')" onmousemove="ShowToolTip(evt,'4',&quot;3dp-3-048183&quot;)" opacity="0"><path style="fill:#00ff00;fill-rule:evenodd" d="M135.30,112.76L136.84,112.81L137.10,110.47L153.05,110.38L153.05,115.70L137.01,115.70L136.84,113.27L135.28,113.30L135.09,113.93L133.64,113.25L133.35,120.03L133.01,120.27L108.16,124.95L101.12,126.13L100.93,124.57L100.55,112.13L101.10,111.81L133.35,106.60L133.55,112.82L134.11,112.74L134.72,112.36z"/></g><g id="hotspot.5" onmouseover="ShowHotSpot(evt,'5')" onmouseout="HideHotSpot(evt,'5')" onmousemove="ShowToolTip(evt,'5',&quot;3dp-3-048187&quot;)" opacity="0"><path style="fill:#00ff00;fill-rule:evenodd" d="M99.19,113.70L99.70,113.24L100.05,113.24L100.35,115.31L100.64,123.13L100.92,125.74L101.22,126.88L102.12,127.75L101.16,128.04L101.17,128.29L100.90,128.65L91.81,130.34L91.55,130.60L92.25,131.79L91.90,132.10L91.75,133.16L91.34,132.43L90.70,132.16L90.81,130.64L81.44,132.39L79.80,132.38L78.06,132.10L77.50,131.21L77.18,130.08L76.61,121.10L76.52,117.30L77.52,117.42L77.68,115.89L78.23,115.57L97.36,112.42L98.92,112.40zM92.06,134.02L91.75,133.16L91.93,133.29zM92.34,135.18L92.06,134.02L92.22,134.14zM92.63,136.34L92.34,135.18L92.51,135.31zM92.91,137.51L92.63,136.34L92.80,136.46zM93.22,138.36L92.91,137.51L93.08,137.63zM93.50,139.53L93.22,138.36L93.38,138.49zM93.79,140.68L93.50,139.53L93.67,139.65zM94.07,141.85L93.79,140.68L93.96,140.81zM94.38,142.70L94.07,141.85L94.24,141.97zM94.66,143.87L94.38,142.70L94.54,142.83zM94.94,145.04L94.66,143.87L94.82,143.99zM95.25,145.89L94.94,145.04L95.11,145.15zM95.53,147.05L95.25,145.89L95.41,146.01zM95.82,148.21L95.53,147.05L95.69,147.18zM96.10,149.38L95.82,148.21L95.98,148.33zM96.40,150.23L96.10,149.38L96.27,149.49zM96.68,151.39L96.40,150.23L96.57,150.35zM96.96,152.56L96.68,151.39L96.85,151.52zM97.27,153.41L96.96,152.56L97.14,152.68zM97.55,154.58L97.27,153.41L97.43,153.54zM97.84,155.74L97.55,154.58L97.72,154.70zM98.12,156.90L97.84,155.74L98.01,155.86zM98.43,157.75L98.12,156.90L98.30,157.02zM98.71,158.92L98.43,157.75L98.59,157.88zM98.99,160.09L98.71,158.92L98.88,159.04zM99.30,160.94L98.99,160.09L99.16,160.20zM99.58,162.11L99.30,160.94L99.46,161.07zM99.87,163.26L99.58,162.11L99.75,162.23zM100.15,164.43L99.87,163.26L100.04,163.39zM100.46,165.28L100.15,164.43L100.32,164.55zM100.74,166.45L100.46,165.28L100.62,165.41zM101.03,167.61L100.74,166.45L100.90,166.57zM101.43,168.36L103.55,168.39L103.81,166.05L119.47,165.95L119.47,171.28L103.72,171.28L103.55,168.85L101.11,168.68L101.03,167.61z"/></g><g id="hotspot.6" onmouseover="ShowHotSpot(evt,'6')" onmouseout="HideHotSpot(evt,'6')" onmousemove="ShowToolTip(evt,'6',&quot;3dp-3-048456&quot;)" opacity="0"><path style="fill:#00ff00;fill-rule:evenodd" d="M150.41,54.83L151.00,56.56L151.33,58.08L106.91,62.14L105.84,59.17L104.85,58.53L105.12,58.27L149.87,54.50zM126.99,62.02L126.64,62.34L126.49,63.09L125.45,62.41L125.52,61.21L125.85,60.87zM126.79,63.97L126.49,63.09L126.66,63.22zM127.08,64.84L126.79,63.97L126.96,64.09zM127.37,65.71L127.08,64.84L127.25,64.96zM146.99,66.06L146.88,71.03L130.64,71.12L130.47,68.69L128.03,68.52L127.93,67.76L128.35,68.20L130.47,68.23L130.73,65.89L146.70,65.77zM127.67,66.57L127.37,65.71L127.54,65.83zM127.93,67.76L127.67,66.57L127.83,66.70z"/></g><g id="hotspot.7" onmouseover="ShowHotSpot(evt,'7')" onmouseout="HideHotSpot(evt,'7')" onmousemove="ShowToolTip(evt,'7',&quot;3dp-3-048644&quot;)" opacity="0"><path style="fill:#00ff00;fill-rule:evenodd" d="M47.07,106.36L52.91,114.41L55.21,117.90L56.63,133.84L56.91,135.01L67.08,150.62L65.55,151.18L65.93,155.63L65.65,155.58L60.11,146.57L59.84,146.62L59.57,147.80L59.26,147.79L58.31,147.16L58.27,146.58L59.54,145.84L56.62,141.09L56.07,136.14L54.88,134.14L53.76,121.66L47.64,112.72L47.37,111.55L47.08,108.62L46.76,109.66L46.45,109.66L36.08,68.42L36.05,65.57L36.32,65.19L36.64,65.20zM53.64,150.73L56.09,150.91L53.64,151.19L53.47,153.62L37.72,153.62L37.81,148.39L53.47,148.30z"/></g><g id="hotspot.8" onmouseover="ShowHotSpot(evt,'8')" onmouseout="HideHotSpot(evt,'8')" onmousemove="ShowToolTip(evt,'8',&quot;3dp-3-048646&quot;)" opacity="0"><path style="fill:#00ff00;fill-rule:evenodd" d="M70.70,151.50L148.03,134.70L148.99,134.68L148.69,148.11L116.77,155.83L117.73,156.97L117.47,157.38L117.22,158.64L116.87,157.60L116.18,157.69L116.26,156.09L115.02,156.13L80.95,164.31L78.84,164.63L78.39,163.32L70.82,152.03zM76.35,164.82L76.26,165.38L72.55,166.34L70.45,166.65L70.20,166.29L69.66,158.44L69.64,154.67zM117.54,159.49L117.22,158.64L117.40,158.76zM117.81,160.67L117.54,159.49L117.70,159.62zM118.11,161.53L117.81,160.67L117.98,160.78zM118.40,162.39L118.11,161.53L118.27,161.65zM118.80,163.15L120.91,163.18L121.18,160.84L137.12,160.74L137.12,166.07L121.09,166.07L120.91,163.64L118.48,163.47L118.40,162.39z"/></g><g id="hotspot.9" onmouseover="ShowHotSpot(evt,'9')" onmouseout="HideHotSpot(evt,'9')" onmousemove="ShowToolTip(evt,'9',&quot;3dp-3-048647&quot;)" opacity="0"><path style="fill:#00ff00;fill-rule:evenodd" d="M253.01,112.30L251.45,123.51L251.11,123.74L226.73,129.51L226.83,130.04L227.73,130.91L227.37,131.24L227.23,131.98L226.81,131.53L226.28,131.60L226.28,129.77L225.62,129.76L200.13,135.88L199.25,135.88L200.19,124.06L200.43,123.43L252.26,112.10L252.90,112.09zM227.52,133.17L227.23,131.98L227.40,132.12zM227.82,134.03L227.52,133.17L227.69,133.28zM228.10,134.90L227.82,134.03L227.99,134.15zM228.40,135.76L228.10,134.90L228.27,135.02zM228.80,136.52L230.91,136.55L231.18,134.20L247.99,134.11L247.99,139.44L231.09,139.44L230.91,137.01L228.48,136.84L228.40,135.76z"/></g><g id="hotspot.10" onmouseover="ShowHotSpot(evt,'10')" onmouseout="HideHotSpot(evt,'10')" onmousemove="ShowToolTip(evt,'10',&quot;3dp-3-048649&quot;)" opacity="0"><path style="fill:#00ff00;fill-rule:evenodd" d="M253.95,42.18L254.05,36.94L269.70,36.85L269.70,42.18L262.09,42.36L261.98,42.53L261.59,42.33zM262.38,44.17L262.74,44.43L262.72,46.13L272.58,66.64L272.49,68.22L272.84,68.45L292.84,73.63L296.61,74.78L296.63,76.05L295.34,77.40L294.59,77.41L272.28,71.32L272.29,68.73L271.16,67.82L270.19,67.63L260.65,47.27L261.91,46.22L261.59,45.26L261.29,44.92L261.19,44.42L261.87,44.18L261.98,42.53L262.14,42.64z"/></g><g id="hotspot.11" onmouseover="ShowHotSpot(evt,'11')" onmouseout="HideHotSpot(evt,'11')" onmousemove="ShowToolTip(evt,'11',&quot;3dp-3-036308&quot;)" opacity="0"><path style="fill:#00ff00;fill-rule:evenodd" d="M105.83,59.17L119.18,97.35L124.78,101.01L124.97,101.42L131.37,105.74L121.10,107.49L119.46,107.48L111.08,101.11L109.23,101.13L66.10,107.75L66.13,108.06L72.28,115.30L72.21,115.59L59.82,117.72L56.84,118.00L55.80,116.15L55.17,115.33L54.61,112.71L47.98,103.70L44.18,89.27L38.11,65.53L38.00,64.36L104.70,58.55zM126.79,94.66L126.88,94.46L129.02,94.28L129.28,91.94L145.23,91.85L145.23,97.18L129.19,97.18L129.02,94.74zM126.50,95.53L126.59,94.74L126.79,94.66zM125.60,98.73L126.16,99.76L124.78,101.01L124.57,99.09L125.25,99.15L125.61,98.42zM49.71,77.08L49.71,78.66L49.01,79.41L46.78,79.44L45.65,78.54L45.61,76.87L46.39,76.21L48.55,76.21z"/></g><g id="hotspot.12" onmouseover="ShowHotSpot(evt,'12')" onmouseout="HideHotSpot(evt,'12')" onmousemove="ShowToolTip(evt,'12',&quot;3dp-3-048650&quot;)" opacity="0"><path style="fill:#00ff00;fill-rule:evenodd" d="M256.46,75.25L256.56,75.06L258.70,74.89L258.97,72.55L274.62,72.45L274.62,77.78L258.88,77.78L258.70,75.35zM256.20,76.43L256.27,75.35L256.46,75.25zM255.82,80.96L254.82,82.28L255.20,82.84L253.74,92.85L253.13,92.71L253.14,92.44L251.45,91.87L251.45,90.51L252.21,84.60L253.98,82.62L254.36,82.38L254.24,80.57L255.00,80.46z"/></g><g id="hotspot.13" onmouseover="ShowHotSpot(evt,'13')" onmouseout="HideHotSpot(evt,'13')" onmousemove="ShowToolTip(evt,'13',&quot;3dp-3-049664&quot;)" opacity="0"><path style="fill:#00ff00;fill-rule:evenodd" d="M212.37,66.97L214.41,71.59L235.84,78.82L236.71,80.27L236.89,82.98L239.30,84.05L237.75,98.60L280.38,115.87L279.81,119.92L283.31,121.41L280.89,136.18L280.41,136.18L278.10,134.98L275.67,135.10L277.79,122.06L277.80,120.23L233.22,101.41L233.22,100.06L234.96,83.19L211.43,74.86L200.47,48.43L200.39,47.86L201.86,47.57L203.69,45.85zM229.84,68.89L229.93,68.70L232.07,68.52L232.34,66.18L248.57,66.09L248.57,71.41L232.24,71.41L232.07,68.98zM229.55,69.77L229.64,68.98L229.84,68.89zM227.97,74.00L228.38,73.23L228.54,74.29L228.84,74.51L227.74,75.76L227.41,75.42L227.44,73.93z"/></g><g id="hotspot.14" onmouseover="ShowHotSpot(evt,'14')" onmouseout="HideHotSpot(evt,'14')" onmousemove="ShowToolTip(evt,'14',&quot;3dp-3-049665&quot;)" opacity="0"><path style="fill:#00ff00;fill-rule:evenodd" d="M293.75,86.61L293.73,91.68L277.11,91.68L276.94,89.24L274.70,89.16L274.80,88.95L276.94,88.78L277.20,86.44L293.46,86.32zM274.60,89.94L274.49,89.28L274.70,89.16zM280.68,98.53L282.76,99.36L281.77,105.77L280.38,105.77L259.76,98.04L260.05,94.47L260.41,92.19L260.73,91.88L261.92,91.87zM274.02,93.89L272.59,95.17L272.24,93.27L273.08,93.35L273.26,93.23z"/></g><g id="hotspot.15" onmouseover="ShowHotSpot(evt,'15')" onmouseout="HideHotSpot(evt,'15')" onmousemove="ShowToolTip(evt,'15',&quot;3dp-3-079165&quot;)" opacity="0"><path style="fill:#00ff00;fill-rule:evenodd" d="M151.85,58.89L152.47,60.31L150.92,60.39L150.69,59.75L150.73,58.34L151.26,58.28zM127.19,60.27L129.62,60.31L129.53,60.88L127.49,61.28zM106.91,62.30L108.16,62.30L107.86,63.02L107.22,63.02zM161.75,84.88L161.91,86.19L162.88,86.03L163.49,86.40L163.50,86.73L161.10,86.69L160.76,86.45L160.85,84.31zM117.43,89.25L117.33,90.74L116.86,90.73L116.44,89.26L117.02,88.35zM178.83,93.28L178.99,94.59L179.96,94.43L180.87,95.03L179.56,95.34L178.50,95.35L177.55,94.85L177.64,92.80L177.94,92.72zM178.52,97.46L176.94,97.15L177.04,96.62L178.23,95.63zM173.62,100.51L173.77,102.68L175.89,102.65L176.28,101.89L176.20,102.97L173.77,103.14L173.60,105.57L158.72,105.57L158.81,100.34L173.33,100.22zM110.39,102.66L111.96,102.58L112.80,103.18L111.84,103.45L109.88,103.46L109.33,103.15L109.24,101.09L109.87,101.11zM88.66,104.60L90.80,104.29L90.72,106.64L88.48,106.62L88.12,106.05L88.77,105.83zM131.93,106.62L130.36,106.91L129.00,106.91L128.63,106.32L129.79,106.05L131.34,106.03zM118.58,107.78L118.48,108.98L117.92,109.07L118.02,107.46zM67.38,108.03L67.37,109.33L66.78,108.95L66.68,107.76L67.06,107.71zM73.74,115.30L73.74,116.32L73.45,116.61L73.01,114.74z"/></g><g id="hotspot.16" onmouseover="ShowHotSpot(evt,'16')" onmouseout="HideHotSpot(evt,'16')" onmousemove="ShowToolTip(evt,'16',&quot;3dp-3-036312&quot;)" opacity="0"><path style="fill:#00ff00;fill-rule:evenodd" d="M219.51,28.86L219.60,23.62L235.55,23.53L235.55,28.86L227.90,29.03L227.95,30.28L228.34,30.86L227.69,32.06L227.37,32.06L226.81,31.06L226.75,30.52L227.41,30.29L227.44,29.03zM241.35,33.38L241.33,34.35L241.01,35.19L240.37,35.46L235.24,34.84L230.32,34.55L222.13,34.55L214.71,34.86L213.71,34.63L214.01,32.80L216.91,32.52L233.80,32.52z"/></g><g id="hotspot.17" onmouseover="ShowHotSpot(evt,'17')" onmouseout="HideHotSpot(evt,'17')" onmousemove="ShowToolTip(evt,'17',&quot;3dp-3-079165&quot;)" opacity="0"><path style="fill:#00ff00;fill-rule:evenodd" d="M129.61,74.20L129.61,75.17L129.32,75.77L128.32,76.25L128.42,76.77L129.01,77.65L128.67,77.97L128.61,79.81L135.99,79.96L136.28,80.25L136.26,85.31L121.38,85.31L121.47,80.07L128.15,79.81L128.13,78.26L127.47,78.04L127.86,76.21L126.62,76.34L126.03,74.76L128.43,74.30L129.04,73.31z"/></g><g id="hotspot.18" onmouseover="ShowHotSpot(evt,'18')" onmouseout="HideHotSpot(evt,'18')" onmousemove="ShowToolTip(evt,'18',&quot;prd-3-036314&quot;)" opacity="0"><path style="fill:#00ff00;fill-rule:evenodd" d="M29.15,46.46L29.69,46.51L30.27,45.61L30.80,45.23L31.47,45.34L30.83,46.42L31.16,49.43L30.52,49.42L30.25,49.06L30.04,47.54L29.74,47.23L29.05,47.25L28.28,47.69L27.98,47.01L25.85,46.98L25.68,49.41L9.93,49.41L10.02,44.18L25.68,44.09L25.85,46.52L27.96,46.48L28.54,46.07z"/></g><g id="hotspot.19" onmouseover="ShowHotSpot(evt,'19')" onmouseout="HideHotSpot(evt,'19')" onmousemove="ShowToolTip(evt,'19',&quot;3dp-3-036313&quot;)" opacity="0"><path style="fill:#00ff00;fill-rule:evenodd" d="M74.48,21.62L74.57,16.39L90.23,16.30L90.23,21.62L82.58,21.79L82.40,23.38L82.13,21.79zM81.44,23.81L83.28,23.82L82.90,24.41L82.57,25.38L123.23,24.11L123.52,25.88L98.23,26.73L94.85,26.73L90.70,27.02L67.84,27.89L38.60,29.34L34.91,29.35L34.82,27.58L49.89,26.73L82.11,25.40z"/></g><g id="hotspot.20" onmouseover="ShowHotSpot(evt,'20')" onmouseout="HideHotSpot(evt,'20')" onmousemove="ShowToolTip(evt,'20',&quot;3dp-3-038263&quot;)" opacity="0"><path style="fill:#00ff00;fill-rule:evenodd" d="M38.59,34.94L38.68,29.70L54.34,29.61L54.34,34.94L46.69,35.11L46.48,38.12L46.31,38.21L46.23,35.11zM47.09,38.62L47.15,38.96L46.67,39.75L53.45,40.05L54.92,40.31L55.48,40.63L55.82,43.92L54.82,44.41L49.89,44.97L40.13,44.97L38.97,44.68L38.68,43.82L38.69,41.00L39.75,40.62L45.86,40.04L45.97,39.47L45.60,38.88L45.52,38.31L46.31,38.21z"/></g><g id="hotspot.21" onmouseover="ShowHotSpot(evt,'21')" onmouseout="HideHotSpot(evt,'21')" onmousemove="ShowToolTip(evt,'21',&quot;3dp-3-041221&quot;)" opacity="0"><path style="fill:#00ff00;fill-rule:evenodd" d="M36.67,61.46L37.26,62.03L44.18,89.27L47.98,103.70L54.61,112.71L55.17,115.33L56.65,117.32L58.06,132.70L78.65,163.64L78.95,165.95L80.68,168.55L81.54,180.27L83.24,179.52L82.98,181.14L81.47,180.68L82.13,191.83L80.35,189.15L78.94,168.85L56.91,135.01L56.63,133.84L55.21,117.90L52.91,114.41L47.07,106.36L36.08,62.92L36.07,59.43zM101.54,178.38L101.43,183.35L85.19,183.44L85.02,180.72L83.44,180.44L85.02,180.26L85.28,178.20L101.25,178.09z"/></g><g id="hotspot.22" onmouseover="ShowHotSpot(evt,'22')" onmouseout="HideHotSpot(evt,'22')" onmousemove="ShowToolTip(evt,'22',&quot;3dp-3-044332&quot;)" opacity="0"><path style="fill:#00ff00;fill-rule:evenodd" d="M199.95,50.44L210.07,75.07L209.95,76.88L232.34,84.91L232.03,85.22L181.02,93.31L179.65,93.32L168.96,88.07L168.66,89.93L167.90,90.30L167.77,89.83L167.10,89.53L168.42,88.18L168.39,87.83L160.18,83.85L159.99,81.72L150.73,55.38L150.04,54.50L199.36,50.16zM167.79,91.11L167.71,90.45L167.90,90.30zM163.78,92.69L163.93,94.86L166.04,94.83L166.46,94.38L166.36,95.15L163.93,95.32L163.76,97.76L147.14,97.76L147.23,92.52L163.49,92.40z"/></g><g id="hotspot.23" onmouseover="ShowHotSpot(evt,'23')" onmouseout="HideHotSpot(evt,'23')" onmousemove="ShowToolTip(evt,'23',&quot;3dp-3-044333&quot;)" opacity="0"><path style="fill:#00ff00;fill-rule:evenodd" d="M232.55,97.94L232.26,102.66L251.45,110.96L251.13,111.27L198.68,122.54L197.01,122.57L187.48,117.01L186.90,117.11L186.60,118.62L186.08,118.50L185.35,117.98L185.43,117.45L186.64,116.82L186.64,116.50L180.15,112.80L180.44,101.99L180.82,96.00L181.03,95.06L183.62,94.47L233.85,86.39zM180.86,119.90L181.01,122.07L183.16,122.26L181.01,122.53L180.74,124.87L164.51,124.97L164.60,119.73L180.57,119.61z"/></g><g id="hotspot.24" onmouseover="ShowHotSpot(evt,'24')" onmouseout="HideHotSpot(evt,'24')" onmousemove="ShowToolTip(evt,'24',&quot;3dp-3-045339&quot;)" opacity="0"><path style="fill:#00ff00;fill-rule:evenodd" d="M105.45,31.76L105.55,26.52L121.49,26.43L121.49,31.76L113.85,31.93L113.88,36.08L114.51,36.28L113.83,37.73L117.63,37.73L133.35,36.86L136.45,36.87L137.60,36.57L167.41,35.13L171.85,35.13L173.00,35.42L174.99,35.40L174.65,34.82L189.80,34.55L196.16,34.84L200.85,35.44L200.83,35.79L199.37,35.78L63.59,44.48L49.79,45.16L49.91,44.99L54.82,44.41L55.82,43.92L55.69,42.04L56.33,42.04L56.62,43.25L61.76,43.23L67.84,42.66L68.81,42.45L68.68,40.91L98.52,38.89L105.76,38.60L112.73,38.04L113.40,37.72L112.73,36.28L113.36,36.08L113.39,31.93zM38.97,44.69L40.13,44.97L49.79,45.16L49.67,45.32L36.28,46.13L31.33,46.21L31.45,45.36L34.26,44.40L37.15,43.81L38.69,43.81z"/></g></g></svg>
