<?xml version="1.0" encoding="UTF-8" standalone="no"?>
<svg xmlns="http://www.w3.org/2000/svg" xmlns:xlink="http://www.w3.org/1999/xlink" width="297.000mm" height="210.000mm" viewBox="0.000000 0.000000 297.000000 210.000000" stroke-linejoin="round" stroke-linecap="round" fill="none" fill-rule="evenodd"><desc>Composer Export</desc><script type="text/ecmascript"><![CDATA[
if(typeof(top) != "undefined")
{
	top.ShowPaper = ShowPaper;
}
function ShowHotSpot(evt,hotspotid)
{
	var svgDocument = evt.target.ownerDocument;
	var strId = "hotspot."+hotspotid;
	var hotspot = svgDocument.getElementById(strId);
	if(hotspot)
		hotspot.setAttribute("opacity",".5");
}
function HideHotSpot(evt,hotspotid)
{
	var svgDocument = evt.target.ownerDocument;
	var strId = "hotspot."+hotspotid;
	var hotspot = svgDocument.getElementById(strId);
	if(hotspot)
		hotspot.setAttribute("opacity","0");

	var toolTip = svgDocument.getElementById('ToolTip');
	if(toolTip)
		toolTip.setAttribute("visibility","hidden");
}
function ShowToolTip(evt,hotspotid,strTooltip)
{
	if(strTooltip=="")
	return;

	// change text
	var svgDocument = evt.target.ownerDocument;
	var tiptext = svgDocument.getElementById('ToolTipText');
	if( !tiptext )
	return;
	tiptext.firstChild.nodeValue = " " + strTooltip + "  " ;

	// show tooltip before, else some refresh issue

	var toolTip = svgDocument.getElementById('ToolTip');
	if(!toolTip)
	return;

	toolTip.setAttribute("visibility","visible");
	toolTip.setAttribute("opacity",".95");

	// move tooltip
	// get viewbox

	var root = svgDocument.documentElement;
	var vbox = (root.getAttribute("viewBox")).split(' ');
	var x0 = parseFloat(vbox[0]);
	var y0 = parseFloat(vbox[1]);
	var vboxW = parseFloat(vbox[2]);
	var vboxH = parseFloat(vbox[3]);

	// get default width of svg

	var strW = root.getAttribute("width");
	var svgW = parseFloat(strW);
	if(strW.indexOf('mm') != -1)
	svgW *= 3.779;

	var strH = root.getAttribute("height");
	var svgH = parseFloat(strH);
	if(strH.indexOf('mm') != -1)
	svgH *= 3.779;  	// 96 dpi  -> 96/25.4 = 3.779

	// update the viewbox / width / height if svg is embedded in html with zoom fit all
	var realx0 = x0;
	var realy0 = y0;
	var realvboxW = vboxW;
	var realvboxH = vboxH;
	var realsvgW = svgW;
	var realsvgH = svgH;

	if ((typeof(top) == "undefined") || (typeof(top.svgctl1) != "undefined")) // embedded in html
	{
		// get window size in pxl

		svgW = window.innerWidth;
		svgH = window.innerHeight;

		// calculate real viewbox

		realsvgW = svgW;
		realsvgH = svgH;
		if((svgW / svgH) > (vboxW / vboxH))
		{
			realvboxW = (vboxH * svgW) / svgH;
			realvboxH = vboxH;
			realx0 = x0 - (realvboxW - vboxW)/2 ;
		}
		else
		{
			realvboxH = (vboxW * svgH) / svgW;
			realvboxW = vboxW;
			realy0 = y0 - (realvboxH - vboxH)/2 ;
		}
	}

	// get user zoom/pan

	var newScale = root.currentScale;
	var translation = root.currentTranslate;

	// transform pxl to user unit

	var xPos = (((evt.clientX+10- translation.x)/newScale) * realvboxW)/realsvgW  + realx0 ;
	var yPos = (((evt.clientY+5- translation.y)/newScale) * realvboxH)/ realsvgH  + realy0 ;
	var scaleForWidth = ( (1 / newScale) * realvboxH) / realsvgH;

	// move tooltip

	toolTip.setAttribute("transform", "translate(" + xPos + "," + yPos + ")" );

	// resize tooltip

	var fontsize = 12;
	tiptext.setAttribute("font-size",fontsize*scaleForWidth);
	tiptext.setAttribute("y", fontsize*scaleForWidth);
	var tipBG = svgDocument.getElementById('ToolTipBG');
	var outline = tiptext.getBBox();
	if(tipBG)
	{
		tipBG.setAttribute("stroke-width", 1*scaleForWidth);
		tipBG.setAttribute("width", Number(outline.width) );
		tipBG.setAttribute("height", Number(outline.height) + fontsize*.5*scaleForWidth );
	}
	var ToolTipShadow = svgDocument.getElementById('ToolTipShadow');
	if(ToolTipShadow)
	{
		ToolTipShadow.setAttribute("width", Number(outline.width) );
		ToolTipShadow.setAttribute("height", Number(outline.height) + fontsize*.5*scaleForWidth );
		ToolTipShadow.setAttribute("x", 3*scaleForWidth);
		ToolTipShadow.setAttribute("y", 3*scaleForWidth);
	}
}
function ShowPaper()
{
  var svgDocument = getDocument();
  var paper = svgDocument.getElementById("paperID");
  if(paper)
  {
    paper.setAttribute("transform","scale(1)");
    paper.setAttribute("opacity","1");
    paper.setAttribute("visibility","visible");
  }
  var svg = svgDocument.getRootElement();
  if(svg)
  {
    svg.setAttribute("width","307.000mm");
    svg.setAttribute("height","220.000mm");
    svg.setAttribute("viewBox","-5.000000 -5.000000 307.000000 220.000000");
  }
}
]]></script><defs/><g><g id="Actor_.0"><g style="stroke:#000000;stroke-width:0.123"><path d="M182.69,160.98L182.85,160.90L181.58,160.53L181.50,160.49L181.45,160.45L181.45,160.43L181.45,160.41L181.50,160.37L182.33,159.93L182.08,159.86L181.25,160.29L181.21,160.32L181.16,160.37L181.15,160.40L181.15,160.43L181.18,160.49L181.25,160.55L181.35,160.60L182.69,160.98L182.58,164.54L181.25,164.14L181.15,164.09L181.11,164.06L181.08,164.03L181.05,163.97L181.15,160.40"/><path d="M182.58,164.54L182.75,164.45L182.85,160.90"/><path d="M182.31,160.74L182.33,159.93"/></g></g><g id="Actor_.1"><g style="stroke:#000000;stroke-width:0.123"><path d="M150.98,94.57L150.87,94.60L141.73,93.16L142.96,92.88L142.73,92.85L141.43,93.13L141.44,99.12L150.62,100.70L150.92,100.85L151.13,101.16L151.21,101.55L151.20,103.06L151.27,103.45L151.49,103.76L151.79,103.92L157.89,105.00L158.21,104.95L158.44,104.71L158.53,104.35L158.55,102.81L158.64,102.44L158.88,102.20L159.19,102.15L169.37,103.88"/><path d="M141.43,93.13L141.46,93.19L141.64,93.24L150.67,94.64L150.98,94.58L151.20,94.34L151.29,93.97L151.30,92.44L151.38,92.07L151.61,91.83L151.91,91.77L158.08,92.68L158.39,92.83L158.61,93.15L158.69,93.55L158.67,95.10L158.75,95.50L158.97,95.82L159.27,95.97L169.49,97.55"/><path d="M142.96,92.88L142.96,93.37"/><path d="M169.49,97.48L159.48,95.93L159.16,95.78L158.94,95.46L158.86,95.06L158.88,93.51L158.80,93.10L158.58,92.79L158.27,92.64L152.11,91.73L151.61,91.83"/><path d="M155.53,100.59L155.06,100.61L154.49,100.40L153.99,99.99L153.59,99.42L153.34,98.74L153.26,98.02L153.35,97.33L153.62,96.73L154.03,96.29L154.47,96.08"/><path d="M153.36,99.35L153.80,100.04L154.30,100.45L154.87,100.65L155.44,100.64L155.96,100.40L156.37,99.96L156.64,99.36L156.75,98.66L156.66,97.94L156.41,97.25L156.01,96.68L155.50,96.27L154.93,96.07L154.36,96.09L153.84,96.33L153.43,96.78L153.16,97.37L153.06,98.06L153.15,98.78L153.36,99.35"/><path d="M158.21,104.95L158.40,104.90L158.63,104.66L158.72,104.30L158.74,102.76L158.83,102.40L159.05,102.17"/></g></g><g id="Actor_.2"><g style="stroke:#000000;stroke-width:0.123"><path d="M134.89,35.09L137.53,35.11L137.58,35.51L137.68,86.78L135.23,87.22L133.37,86.98L133.31,86.90L133.06,35.08"/><path d="M133.16,35.08L133.25,35.08L133.06,35.08"/><path d="M134.21,35.09L134.38,35.09L133.25,35.08L133.79,35.09"/><path d="M134.83,35.09L134.38,35.09L134.86,35.09"/><path d="M134.90,35.09L134.94,35.09"/><path d="M135.17,35.09L135.21,35.09"/></g></g><g id="Actor_.3"><g style="stroke:#000000;stroke-width:0.123"><path d="M171.84,31.76L171.97,31.71L172.04,31.67L172.16,31.56L172.21,31.49L172.28,31.35L172.33,31.15L172.46,24.64L172.18,24.65L172.05,31.06L172.03,31.19L171.96,31.31L171.87,31.38L171.82,31.40L170.35,31.42L170.34,31.73"/><path d="M172.46,24.64L175.03,24.77L174.89,31.21L174.87,31.30L174.81,31.46L174.72,31.61L174.60,31.72L174.53,31.76L174.40,31.81"/></g></g><g id="Actor_.4"><g style="stroke:#000000;stroke-width:0.123"><path d="M201.37,159.68L200.66,159.48L200.62,159.46L200.42,159.31L200.39,159.28L200.36,159.23L200.34,159.18L200.33,159.11L200.31,158.96L200.33,158.79L200.34,158.70L200.39,158.53L200.46,158.38L200.50,158.32L200.54,158.26L200.59,158.21L200.63,158.17L200.68,158.15L200.72,158.14L200.97,158.11L201.01,158.11L201.71,158.30"/><path d="M202.19,159.22L201.29,158.97L201.28,158.96L201.29,158.92L201.30,158.91L201.30,158.90L201.40,158.91L201.31,158.86L201.32,158.85L201.31,158.84L201.32,158.80L201.33,158.80L201.33,158.78L201.44,158.78L201.34,158.74L201.33,158.78"/><path d="M202.18,159.26L201.37,159.04L201.27,159.02L201.27,159.03L201.26,159.05L201.26,159.08L201.36,159.10L202.17,159.32"/><path d="M202.17,159.34L201.26,159.09L201.25,159.11L201.25,159.14L201.26,159.15L201.35,159.16L202.16,159.38"/><path d="M201.24,159.26L201.24,159.23L201.35,159.29L201.25,159.27L201.25,159.27L202.15,159.52"/><path d="M201.25,159.27L201.25,159.29L201.26,159.30L201.35,159.35L201.25,159.32L201.24,159.29"/><path d="M201.35,159.29L202.15,159.51"/><path d="M202.18,159.28L201.27,159.03"/><path d="M201.25,159.15L201.26,159.15L202.16,159.40"/><path d="M201.26,159.15L201.25,159.17L201.35,159.23L201.25,159.21L201.25,159.21L202.15,159.46"/><path d="M201.35,159.23L202.15,159.45"/><path d="M201.24,159.23L201.25,159.21"/><path d="M202.14,159.57L201.25,159.32"/><path d="M201.25,159.33L201.25,159.34L201.35,159.40L201.25,159.38L201.25,159.34"/><path d="M201.35,159.35L202.14,159.57"/><path d="M201.26,159.38L201.25,159.39L201.26,159.43L201.36,159.46L201.25,159.40"/><path d="M202.14,159.77L201.38,159.56L201.27,159.49L201.27,159.48"/><path d="M201.38,159.56L201.28,159.52L201.27,159.49"/><path d="M201.26,159.45L201.27,159.48L201.37,159.51L201.26,159.45L201.27,159.43"/><path d="M201.37,159.51L202.14,159.72"/><path d="M201.32,159.61L201.43,159.68L201.33,159.63L201.32,159.61L201.32,159.60"/><path d="M201.34,159.64L201.35,159.66L201.45,159.71L202.16,159.90"/><path d="M201.30,159.58L201.31,159.60L201.41,159.64L201.30,159.58L201.30,159.57"/><path d="M201.29,159.56L201.39,159.60L201.28,159.54L201.29,159.56"/><path d="M201.28,159.54L201.29,159.52"/><path d="M201.45,159.71L201.34,159.64"/><path d="M201.36,159.66L201.36,159.67L201.47,159.73L201.37,159.68L201.36,159.67"/><path d="M201.38,159.69L201.50,159.75L202.17,159.94L202.19,160.03L202.22,160.10L202.26,160.18L202.30,160.23L202.35,160.28L202.42,160.33L202.53,160.36L202.59,160.36L202.66,160.35L202.73,160.33L202.80,160.28L202.86,160.24L202.92,160.17L202.98,160.11L203.03,160.03L203.13,159.85L203.18,159.75L203.25,159.54L203.28,159.43L203.32,159.21L203.33,159.10L203.33,158.89L203.32,158.80L203.31,158.71L203.29,158.62L203.26,158.54L203.22,158.46L203.18,158.41L203.12,158.36L203.06,158.32L202.95,158.28L202.89,158.28L202.81,158.29L202.74,158.31L202.67,158.35L202.61,158.40L202.55,158.46L202.44,158.61L202.39,158.69L202.31,158.86L202.26,158.99L202.20,159.19L202.17,159.32L202.15,159.51L202.14,159.65L202.14,159.75L202.17,159.94"/><path d="M201.38,159.69L201.50,159.75"/><path d="M201.41,159.70L201.53,159.77L202.17,159.94"/><path d="M202.17,159.94L201.55,159.77"/><path d="M201.43,159.68L202.16,159.88"/><path d="M201.39,159.60L202.15,159.81"/><path d="M201.35,159.40L202.14,159.62"/><path d="M201.25,159.21L201.25,159.17"/><path d="M201.47,159.73L202.16,159.92"/><path d="M201.36,159.46L202.14,159.68"/><path d="M201.41,159.64L202.15,159.85"/><path d="M201.40,158.91L202.21,159.13"/><path d="M201.33,158.80L202.24,159.04"/><path d="M201.32,158.80L201.42,158.84L201.31,158.84"/><path d="M201.31,158.86L201.30,158.90"/><path d="M201.42,158.84L202.23,159.07"/><path d="M202.22,159.10L201.32,158.85"/><path d="M201.44,158.78L202.25,159.00"/><path d="M201.34,158.74L201.36,158.74L201.35,158.72L201.37,158.69L201.47,158.72L201.35,158.72"/><path d="M201.38,158.67L201.49,158.67L201.39,158.63L201.38,158.67L201.38,158.68L201.37,158.69"/><path d="M201.43,158.56L201.55,158.56L201.45,158.53L201.43,158.56L201.43,158.58L202.32,158.83"/><path d="M201.55,158.56L202.34,158.78"/><path d="M201.46,158.52L201.58,158.52L201.48,158.49L201.46,158.52L201.46,158.54L201.45,158.53"/><path d="M201.46,158.54L202.34,158.78"/><path d="M201.43,158.58L201.42,158.58L201.52,158.61L201.41,158.61L201.40,158.63L201.39,158.63"/><path d="M201.52,158.61L202.32,158.83"/><path d="M201.40,158.61L201.42,158.58"/><path d="M201.58,158.52L202.37,158.73"/><path d="M201.49,158.49L201.49,158.47L201.61,158.47L201.51,158.45L201.49,158.47"/><path d="M202.42,158.65L201.64,158.44L201.54,158.41L201.52,158.44L201.52,158.45"/><path d="M201.64,158.44L201.52,158.44"/><path d="M201.67,158.40L201.57,158.38L201.55,158.40L201.67,158.40L202.44,158.61"/><path d="M201.55,158.42L201.55,158.40"/><path d="M201.58,158.37L201.71,158.37L201.60,158.36L201.58,158.37L201.58,158.39"/><path d="M201.61,158.35L201.74,158.35L201.63,158.34L201.61,158.35L201.61,158.36"/><path d="M201.74,158.35L202.48,158.55"/><path d="M201.65,158.33L201.67,158.32L201.77,158.33L201.65,158.33L201.64,158.34"/><path d="M201.77,158.33L202.50,158.53"/><path d="M201.70,158.31L201.68,158.31L201.81,158.32L201.70,158.31"/><path d="M201.74,158.30L201.87,158.31L201.74,158.30"/><path d="M201.74,158.30L201.74,158.30"/><path d="M201.76,158.31L201.84,158.31L201.71,158.30L201.76,158.31"/><path d="M201.71,158.30L201.71,158.31"/><path d="M202.52,158.50L201.84,158.31"/><path d="M202.53,158.48L201.90,158.31L201.88,158.31"/><path d="M201.68,158.32L201.68,158.31"/><path d="M201.36,158.74L202.26,158.99"/><path d="M202.28,158.93L201.38,158.68"/><path d="M201.30,158.91L202.21,159.16"/><path d="M201.29,158.92L201.39,158.97L201.28,158.96"/><path d="M201.27,159.02L201.27,158.99L201.37,159.04"/><path d="M201.39,158.97L202.20,159.19"/><path d="M201.26,159.09L201.26,159.08"/><path d="M201.36,159.10L201.26,159.05"/><path d="M201.35,159.16L201.25,159.11"/><path d="M201.47,158.72L202.27,158.95"/><path d="M201.49,158.67L202.30,158.89"/><path d="M201.61,158.47L202.39,158.69"/><path d="M201.71,158.37L202.46,158.58"/><path d="M201.81,158.32L202.51,158.51"/><path d="M201.40,158.63L202.30,158.88"/><path d="M201.27,158.99L201.29,158.97"/><path d="M201.87,158.31L202.53,158.49"/><path d="M202.61,159.80L202.59,159.75L202.57,159.69L202.56,159.55L202.56,159.48L202.58,159.32L202.63,159.16L202.69,159.02L202.77,158.91L202.81,158.87L202.85,158.84L202.89,158.82L202.93,158.81L202.97,158.81L203.00,158.83L203.03,158.86L203.06,158.90L203.08,158.94L203.11,159.07L203.11,159.19L203.10,159.29L203.08,159.37L203.04,159.53L202.98,159.67L202.94,159.73L202.86,159.82L202.82,159.86L202.78,159.88L202.74,159.88L202.70,159.88L202.66,159.86L202.63,159.84L202.61,159.80"/></g></g><g id="Actor_.5"><g style="stroke:#000000;stroke-width:0.123"><path d="M161.18,52.03L141.77,51.16L141.70,51.12L141.67,51.01L141.68,48.18L141.71,48.06L141.78,48.02L142.98,47.97L161.22,48.63"/><path d="M167.59,52.31L164.65,52.18"/><path d="M164.70,48.76L167.65,48.87"/></g></g><g id="Actor_.6"><g style="stroke:#000000;stroke-width:0.123"><path d="M169.02,122.25L168.15,167.59L171.82,168.78L174.05,167.64L175.47,107.22"/><path d="M169.75,84.34L169.10,117.82"/><path d="M170.76,31.42L171.01,18.70L175.08,18.56"/><path d="M173.41,150.61L173.77,150.84L173.76,151.36L173.53,151.82L173.10,151.89L173.02,151.20L173.41,150.61L173.45,151.27L173.08,151.86"/><path d="M177.41,24.01L175.55,103.54"/><path d="M177.49,20.38L177.53,18.73L175.23,18.56"/><path d="M175.20,18.56L175.13,18.56"/></g></g><g id="Actor_.7"><g style="stroke:#000000;stroke-width:0.123"><path d="M152.04,123.79L141.71,121.50"/><path d="M141.71,121.50L141.63,121.38L141.65,118.73L141.77,118.62L142.88,118.29L158.61,121.63"/><path d="M168.92,127.52L159.65,125.47"/><path d="M168.99,123.84L166.15,123.23"/></g></g><g id="Actor_.8"><g style="stroke:#000000;stroke-width:0.123"><path d="M173.62,129.42L173.68,129.34L173.74,129.29L173.81,129.23L173.89,129.19L173.95,129.17L174.01,129.15L174.10,129.15L174.21,129.18L174.28,129.21L174.33,129.25L174.38,129.29L174.43,129.36L174.47,129.44L174.51,129.51L174.53,129.60L174.55,129.69L174.56,129.79L174.57,129.89L174.57,129.99L174.56,130.10L174.54,130.20L174.52,130.31L174.49,130.41L174.46,130.51L174.42,130.61L174.37,130.70L174.32,130.78L174.27,130.86L174.21,130.93L174.15,130.99L174.09,131.04L174.01,131.08L173.94,131.11L173.86,131.13L173.80,131.13L173.73,131.11L173.69,131.11L173.62,131.08L173.56,131.03L173.50,130.98L173.46,130.92L173.41,130.84L173.38,130.77L173.36,130.68L173.34,130.59"/><path d="M173.79,130.57L173.77,130.52L173.75,130.46L173.74,130.39L173.73,130.32L173.73,130.25L173.74,130.17L173.75,130.09L173.77,130.02L173.80,129.95L173.83,129.88L173.87,129.82L173.90,129.77L173.96,129.71L173.99,129.69L174.03,129.66L174.08,129.65L174.12,129.65L174.16,129.66L174.20,129.68L174.23,129.71L174.26,129.75L174.29,129.80L174.31,129.86L174.32,129.93L174.33,130.00L174.32,130.07L174.32,130.15L174.30,130.22L174.28,130.30L174.26,130.37L174.23,130.44L174.19,130.50L174.15,130.55L174.11,130.60L174.07,130.63L174.03,130.65L173.98,130.67L173.94,130.67L173.90,130.66L173.86,130.64L173.82,130.61L173.79,130.57"/></g></g><g id="Actor_.9"><g style="stroke:#000000;stroke-width:0.123"><path d="M122.83,134.21L126.28,133.06L126.41,133.00L126.51,132.89L126.55,132.82L126.61,132.66L126.63,132.47L126.56,125.80L123.09,126.86L123.16,133.71L123.13,133.87L123.10,133.96L123.06,134.03L122.95,134.14L122.88,134.19L122.76,134.22L122.62,134.21L122.46,134.17"/><path d="M123.09,126.86L122.80,126.79L122.88,133.61L122.84,133.73L122.81,133.78L122.72,133.83L122.61,133.83L122.46,133.79"/><path d="M122.45,133.05L122.88,132.91"/><path d="M122.80,126.79L126.28,125.73L126.56,125.80"/></g></g><g id="Actor_.10"><g style="stroke:#000000;stroke-width:0.123"><path d="M183.73,108.04L182.61,108.43L182.44,108.34L179.91,104.82L182.04,23.80"/><path d="M182.04,23.79L184.93,20.25L185.08,20.16L186.26,20.29"/><path d="M183.73,108.05L186.26,20.27"/></g></g><g id="Actor_.11"><g style="stroke:#000000;stroke-width:0.123"><path d="M115.15,196.19L115.17,196.24L115.23,196.34L115.35,196.43L115.43,196.47L120.00,198.47L120.10,198.49L120.21,198.48L120.27,198.46L123.02,196.96L123.07,196.90L123.06,196.04L123.01,196.10L120.25,197.59L120.19,197.61L120.08,197.62L119.99,197.60L115.41,195.61L115.34,195.57L115.22,195.49L115.18,195.44L115.14,195.33L115.15,196.19"/><path d="M115.14,195.33L115.15,195.22L115.22,195.12L115.33,195.02L115.62,194.87L117.22,195.56L117.49,195.63L117.81,195.65L118.14,195.60L118.41,195.50L118.55,195.40"/><path d="M118.04,195.63L116.82,195.10L116.80,194.25L118.39,194.93L118.55,195.03"/><path d="M116.80,194.25L117.21,194.04L117.40,193.97L117.61,193.93L117.84,193.92L118.16,193.94L118.36,193.99L118.54,194.06"/><path d="M123.06,196.04L123.06,196.01L123.03,195.98L122.91,195.93"/></g></g><g id="Actor_.12"><g style="stroke:#000000;stroke-width:0.123"><path d="M118.77,30.70L116.92,30.71L116.86,30.79"/><path d="M118.78,30.71L118.99,30.88L121.66,34.84"/><path d="M118.72,30.70L174.71,31.81L174.88,31.99L174.81,35.14L174.66,35.31"/><path d="M133.12,35.08L121.74,35.02"/><path d="M167.98,35.28L137.58,35.11"/><path d="M164.83,33.94L164.97,34.06L165.14,34.06L165.39,33.72L165.40,33.17L165.16,32.82L164.92,32.86L164.74,33.16L164.70,33.58L164.83,33.94"/><path d="M164.95,32.85L165.12,33.04L165.21,33.45L165.10,33.85L164.93,34.04"/><path d="M174.65,35.31L171.74,35.30"/></g></g><g id="Actor_.13"><g style="stroke:#000000;stroke-width:0.123"><path d="M147.36,84.50L142.95,83.94L141.75,84.14L141.68,84.19L141.65,84.31L141.65,85.51"/><path d="M149.65,88.21L169.62,90.91"/><path d="M160.37,86.15L160.72,86.19"/><path d="M169.69,87.33L164.11,86.62"/></g></g><g id="Actor_.14"><g style="stroke:#000000;stroke-width:0.123"><path d="M170.32,117.42L168.71,117.95L168.71,118.26L170.10,118.54L170.24,118.52L170.36,118.46L170.46,118.37L170.53,118.24L170.56,118.16L170.58,118.01L170.69,112.28L173.14,111.53L173.02,117.20L173.00,117.33L172.97,117.43L172.89,117.57L172.80,117.66L172.74,117.69L170.24,118.52"/><path d="M168.71,117.95L170.09,118.22L170.19,118.19L170.26,118.12L170.29,118.07L170.31,117.95L170.43,112.23L172.87,111.49L173.14,111.53"/><path d="M170.43,112.23L170.69,112.28"/></g></g><g id="Actor_.15"><g style="stroke:#000000;stroke-width:0.123"><path d="M142.88,131.24L142.84,157.89L141.54,158.43L139.52,157.81L139.46,132.42"/><path d="M139.45,127.91L139.42,90.18"/><path d="M139.42,85.90L139.38,35.12"/><path d="M139.38,31.11L139.37,19.87L141.75,19.79L143.02,19.87L143.04,31.18"/><path d="M142.89,126.79L142.90,121.76"/><path d="M142.93,99.39L142.90,118.29"/><path d="M142.95,89.50L142.94,92.88"/><path d="M143.01,51.21L142.96,83.94"/><path d="M143.03,35.14L143.01,47.97"/></g></g><g id="Actor_.16"><g style="stroke:#000000;stroke-width:0.123"><path d="M121.74,35.02L122.91,195.98L120.35,197.34L118.56,196.45L116.86,30.75L118.94,30.82L121.73,35.04"/></g></g><g id="Actor_.17"><g style="stroke:#000000;stroke-width:0.123"><path d="M122.13,89.50L122.31,89.54L122.39,89.70L122.43,93.29L122.36,93.45L122.16,93.44"/><path d="M122.34,93.46L173.67,83.59L173.74,83.48L173.80,80.41L173.74,80.33L172.01,80.14"/><path d="M122.14,90.77L122.16,92.27"/><path d="M133.36,86.97L122.13,88.96"/><path d="M137.68,86.21L167.15,81.00"/><path d="M170.84,80.34L172.03,80.13"/></g></g><g id="Actor_.18"><g style="stroke:#000000;stroke-width:0.123"><path d="M164.13,85.42L164.07,89.40L163.91,89.43L160.68,89.01L160.72,86.08"/><path d="M161.40,35.24L160.78,82.12"/><path d="M161.45,31.55L161.61,19.10L164.96,18.99L164.77,31.62"/><path d="M163.88,89.44L163.94,85.46"/><path d="M164.71,35.26L164.00,81.55"/><path d="M164.19,81.52L164.91,35.26"/><path d="M164.96,18.99L165.16,19.00L164.96,31.62"/></g></g><g id="Actor_.19"><g style="stroke:#000000;stroke-width:0.123"><path d="M172.59,117.75L172.92,117.82L173.00,117.98L172.94,120.80L172.82,120.94L122.49,138.26L122.57,138.11L122.55,134.75L122.46,134.56"/><path d="M122.49,138.26L122.49,138.26"/><path d="M125.00,135.80L124.98,135.48L125.14,135.05L125.43,134.81L125.72,134.86L125.90,135.31L125.73,135.87L125.35,136.12L125.08,135.99L125.00,135.80"/><path d="M125.49,134.80L125.66,135.12L125.65,135.46L125.49,135.80L125.14,136.05"/><path d="M168.81,118.29L126.62,132.12"/><path d="M168.47,121.33L168.67,121.15L168.79,120.86L168.81,120.57L168.69,120.29"/><path d="M169.02,120.85L168.76,121.35L168.61,121.40L168.43,121.27L168.37,120.82L168.63,120.32L168.78,120.27L168.91,120.33L169.02,120.85"/></g></g><g id="Actor_.20"><g style="stroke:#000000;stroke-width:0.123"><path d="M169.66,35.28L171.71,35.30L171.73,35.74L170.83,80.85L168.93,81.19L167.17,81.00L167.10,80.93L167.89,35.28L168.26,35.28L167.99,35.28"/><path d="M167.90,35.28L167.90,35.28"/><path d="M168.61,35.28L168.26,35.28L169.39,35.28L169.00,35.28"/><path d="M169.61,35.28L169.39,35.28L169.64,35.28"/><path d="M169.69,35.29L169.66,35.29"/><path d="M169.89,35.29L169.93,35.29"/></g></g><g id="Actor_.21"><g style="stroke:#000000;stroke-width:0.123"><path d="M160.66,165.30L149.71,161.84L149.19,161.80L148.54,161.99L148.01,161.98L142.10,160.10L141.91,159.99L141.60,159.15L139.42,158.45L139.42,157.77L141.60,158.47L141.90,159.28L142.10,159.42L148.01,161.28L148.55,161.30L149.19,161.10L149.71,161.15L161.08,164.73L161.23,164.82L161.22,164.97L160.65,165.32L160.67,165.43L160.81,165.53L171.62,168.95L171.60,169.68L174.10,168.33L174.12,167.61L171.62,168.95"/><path d="M139.42,157.77L139.48,157.75"/><path d="M168.18,165.76L142.84,157.87"/><path d="M146.09,159.49L148.42,160.23L148.58,160.32L148.63,160.47L148.46,160.62L148.19,160.70L147.74,160.73L147.41,160.69L145.06,159.95L145.04,159.87L144.35,159.64L144.25,159.49L144.48,159.33L144.95,159.27L145.87,159.49L146.09,159.49L146.08,160.17L147.86,160.73"/><path d="M146.08,160.17L145.87,160.18L145.08,159.96"/><path d="M145.87,159.49L145.87,160.18"/><path d="M171.60,169.68L160.80,166.24L160.64,166.11L160.64,165.35"/><path d="M166.35,166.56L166.36,165.91L167.05,166.13L167.25,166.28L167.22,166.41L166.97,166.54L166.67,166.58L166.25,166.54L165.55,166.33L165.32,166.33L162.86,165.56L162.58,165.40L162.55,165.22L162.69,165.09L162.96,165.01L163.65,165.00L166.32,165.82L166.31,166.54L163.85,165.76L163.28,165.69"/><path d="M166.31,166.54L166.32,166.56"/><path d="M166.32,165.82L166.36,165.91"/><path d="M174.12,167.61L174.06,167.59"/></g></g><g id="Actor_.22"><g style="stroke:#000000;stroke-width:0.123"><path d="M176.31,20.41L177.30,20.39L176.29,20.42L176.24,20.44L176.22,20.49L176.20,20.58L176.13,23.77L176.14,23.86L176.19,23.94L177.38,24.01L182.03,23.91"/><path d="M177.30,20.39L179.56,20.32L178.43,20.35"/><path d="M176.29,20.42L176.30,20.41"/><path d="M179.56,20.32L185.10,20.16L186.23,20.24L186.26,20.26"/><path d="M182.06,23.72L182.07,23.70"/><path d="M182.05,23.74L182.06,23.72"/><path d="M182.04,23.79L182.05,23.74"/><path d="M182.10,23.66L184.89,20.29"/><path d="M182.08,23.69L182.10,23.66"/><path d="M184.07,20.19L184.61,20.17"/><path d="M185.08,20.16L184.99,20.20"/><path d="M184.98,20.21L184.89,20.29"/><path d="M186.26,20.28L186.26,20.26"/></g></g><g id="Actor_.23"><g style="stroke:#000000;stroke-width:0.123"><path d="M175.56,103.54L174.42,103.85L174.38,103.88L174.34,103.94L174.32,104.03L174.26,106.89L174.27,106.97L174.31,107.01L182.58,108.43"/><path d="M175.55,103.54L179.93,104.25"/><path d="M182.42,108.32L179.98,104.96L179.92,104.86L179.91,104.78"/><path d="M183.73,108.05L183.70,108.10L182.61,108.43L182.57,108.43L182.51,108.40"/><path d="M182.51,108.40L182.42,108.32"/><path d="M182.59,108.43L182.59,108.43"/></g></g><g id="Actor_.24"><g style="stroke:#000000;stroke-width:0.123"><path d="M139.37,19.87L139.32,19.87L144.07,19.66L166.96,18.89L167.67,18.81L175.17,18.55L177.60,18.74L177.54,18.74"/><path d="M139.30,19.87L139.30,19.05L144.07,18.84L166.97,18.02L167.77,17.93L175.19,17.66L175.17,18.55"/><path d="M143.06,19.88L161.61,19.26"/><path d="M147.61,19.69L145.60,19.68L149.06,19.53L150.39,19.57L147.61,19.69L147.61,19.58"/><path d="M147.37,19.69L147.37,19.59"/><path d="M169.48,18.95L166.48,19.06L165.25,19.02L169.37,18.87L169.48,18.86L169.48,18.95L170.47,18.90L169.48,18.86"/><path d="M165.16,19.15L171.00,18.95"/><path d="M169.43,18.97L169.43,18.87"/><path d="M175.19,17.66L177.62,17.85L177.60,18.74"/></g></g><g><g><path style="stroke:#000000;stroke-width:0.208;stroke-dasharray:2.2 2.2" d="M182.33,162.19L174.44,166.40"/></g></g><g><g><path style="stroke:#000000;stroke-width:0.208;stroke-dasharray:2.2 2.2" d="M172.58,151.05L201.73,159.04"/></g></g><g id="PMI2.0"><g><path style="stroke:#000000;stroke-width:0.281" d="M149.72,169.51L152.89,169.51L154.57,164.94"/></g><g><path style="fill:#000000" d="M155.50,165.27L153.62,164.59L155.25,163.05z"/></g><g><path style="fill:#ffffff" d="M133.29,172.04L150.35,172.04L150.35,166.96L133.29,166.96z"/><path style="stroke:#000000;stroke-width:0.281;stroke-opacity:0.98" d="M133.29,172.04L150.35,172.04L150.35,166.96L133.29,166.96z"/><text xml:space="preserve" fill="#000000" stroke-width="0" x="133.92" y="170.61" font-size="3.09" opacity="1.00" font-family="Microsoft Sans Serif">0200450K2</text></g></g><g id="PMI4.0"><g><path style="stroke:#000000;stroke-width:0.281" d="M181.33,173.30L181.45,166.08"/></g><g><path style="fill:#000000" d="M182.45,166.09L180.45,166.05L181.48,164.07z"/></g><g><path style="fill:#ffffff" d="M172.71,173.93L189.94,173.93L189.94,168.85L172.71,168.85z"/><path style="stroke:#000000;stroke-width:0.281;stroke-opacity:0.98" d="M172.71,173.93L189.94,173.93L189.94,168.85L172.71,168.85z"/><text xml:space="preserve" fill="#000000" stroke-width="0" x="173.34" y="172.50" font-size="3.09" opacity="1.00" font-family="Microsoft Sans Serif">0200450N2</text></g></g><g id="PMI16.0"><g><path style="stroke:#000000;stroke-width:0.281" d="M154.27,107.83L154.22,105.92"/></g><g><path style="fill:#000000" d="M155.22,105.89L153.22,105.95L154.17,103.92z"/></g><g><path style="fill:#ffffff" d="M145.98,112.91L162.70,112.91L162.70,107.83L145.98,107.83z"/><path style="stroke:#000000;stroke-width:0.281;stroke-opacity:0.98" d="M145.98,112.91L162.70,112.91L162.70,107.83L145.98,107.83z"/><text xml:space="preserve" fill="#000000" stroke-width="0" x="146.61" y="111.48" font-size="2.79" opacity="1.00" font-family="Microsoft Sans Serif">330007051</text></g></g><g id="PMI8.0"><g><path style="stroke:#000000;stroke-width:0.281" d="M162.85,129.70L162.97,127.52"/></g><g><path style="fill:#000000" d="M163.97,127.57L161.97,127.46L163.08,125.52z"/></g><g><path style="fill:#ffffff" d="M154.35,134.78L171.07,134.78L171.07,129.70L154.35,129.70z"/><path style="stroke:#000000;stroke-width:0.281;stroke-opacity:0.98" d="M154.35,134.78L171.07,134.78L171.07,129.70L154.35,129.70z"/><text xml:space="preserve" fill="#000000" stroke-width="0" x="154.98" y="133.35" font-size="2.79" opacity="1.00" font-family="Microsoft Sans Serif">330002571</text></g></g><g id="PMI7.0"><g><path style="stroke:#000000;stroke-width:0.281" d="M134.25,16.93L137.43,16.93L139.39,21.85"/></g><g><path style="fill:#000000" d="M138.46,22.24L140.32,21.50L140.13,23.73z"/></g><g><path style="fill:#ffffff" d="M118.17,19.49L134.89,19.49L134.89,14.41L118.17,14.41z"/><path style="stroke:#000000;stroke-width:0.281;stroke-opacity:0.98" d="M118.17,19.49L134.89,19.49L134.89,14.41L118.17,14.41z"/><text xml:space="preserve" fill="#000000" stroke-width="0" x="118.80" y="18.06" font-size="2.79" opacity="1.00" font-family="Microsoft Sans Serif">330002561</text></g></g><g id="PMI15.0"><g><path style="stroke:#000000;stroke-width:0.281" d="M178.11,142.06L176.42,142.03"/></g><g><path style="fill:#000000" d="M176.44,141.03L176.40,143.03L174.42,141.99z"/></g><g><path style="fill:#ffffff" d="M178.11,144.77L195.52,144.77L195.52,139.69L178.11,139.69z"/><path style="stroke:#000000;stroke-width:0.281;stroke-opacity:0.98" d="M178.11,144.77L195.52,144.77L195.52,139.69L178.11,139.69z"/><text xml:space="preserve" fill="#000000" stroke-width="0" x="178.74" y="143.34" font-size="3.09" opacity="1.00" font-family="Microsoft Sans Serif">3300026O5</text></g></g><g id="PMI5.0"><g><path style="stroke:#000000;stroke-width:0.281" d="M157.38,67.72L159.19,67.73"/></g><g><path style="fill:#000000" d="M159.19,68.73L159.19,66.73L161.19,67.74z"/></g><g><path style="fill:#ffffff" d="M140.31,70.25L157.37,70.25L157.37,65.17L140.31,65.17z"/><path style="stroke:#000000;stroke-width:0.281;stroke-opacity:0.98" d="M140.31,70.25L157.37,70.25L157.37,65.17L140.31,65.17z"/><text xml:space="preserve" fill="#000000" stroke-width="0" x="140.94" y="68.82" font-size="3.09" opacity="1.00" font-family="Microsoft Sans Serif">0200450P1</text></g></g><g id="PMI1.0"><g><path style="stroke:#000000;stroke-width:0.281" d="M155.84,14.62L155.82,16.32"/></g><g><path style="fill:#000000" d="M154.82,16.32L156.82,16.34L155.79,18.33z"/></g><g><path style="fill:#ffffff" d="M147.60,14.63L164.14,14.63L164.14,9.55L147.60,9.55z"/><path style="stroke:#000000;stroke-width:0.281;stroke-opacity:0.98" d="M147.60,14.63L164.14,14.63L164.14,9.55L147.60,9.55z"/><text xml:space="preserve" fill="#000000" stroke-width="0" x="148.23" y="13.20" font-size="3.09" opacity="1.00" font-family="Microsoft Sans Serif">0200450J2</text></g></g><g id="PMI18.0"><g><path style="stroke:#000000;stroke-width:0.281" d="M202.19,154.40L202.07,156.74"/></g><g><path style="fill:#000000" d="M201.07,156.68L203.06,156.79L201.96,158.73z"/></g><g><path style="fill:#ffffff" d="M192.96,155.03L211.42,155.03L211.42,149.95L192.96,149.95z"/><path style="stroke:#000000;stroke-width:0.281;stroke-opacity:0.98" d="M192.96,155.03L211.42,155.03L211.42,149.95L192.96,149.95z"/><text xml:space="preserve" fill="#000000" stroke-width="0" x="193.59" y="153.60" font-size="2.79" opacity="1.00" font-family="Microsoft Sans Serif">8059000104</text></g></g><g id="PMI17.0"><g><path style="stroke:#000000;stroke-width:0.281" d="M189.18,64.67L187.22,64.72"/></g><g><path style="fill:#000000" d="M187.19,63.72L187.24,65.72L185.22,64.77z"/></g><g><path style="fill:#ffffff" d="M189.18,67.01L205.73,67.01L205.73,61.93L189.18,61.93z"/><path style="stroke:#000000;stroke-width:0.281;stroke-opacity:0.98" d="M189.18,67.01L205.73,67.01L205.73,61.93L189.18,61.93z"/><text xml:space="preserve" fill="#000000" stroke-width="0" x="189.81" y="65.58" font-size="3.09" opacity="1.00" font-family="Microsoft Sans Serif">3300070J2</text></g></g><g id="PMI9.0"><g><path style="stroke:#000000;stroke-width:0.281" d="M186.84,12.89L183.67,12.89L181.80,18.58"/></g><g><path style="fill:#000000" d="M180.84,18.28L182.74,18.90L181.17,20.49z"/></g><g><path style="fill:#ffffff" d="M186.21,15.44L202.93,15.44L202.93,10.36L186.21,10.36z"/><path style="stroke:#000000;stroke-width:0.281;stroke-opacity:0.98" d="M186.21,15.44L202.93,15.44L202.93,10.36L186.21,10.36z"/><text xml:space="preserve" fill="#000000" stroke-width="0" x="186.84" y="14.01" font-size="2.79" opacity="1.00" font-family="Microsoft Sans Serif">330002581</text></g></g><g id="PMI13.0"><g><path style="stroke:#000000;stroke-width:0.281" d="M152.26,38.43L152.27,36.52"/></g><g><path style="fill:#000000" d="M153.27,36.53L151.27,36.53L152.28,34.53z"/></g><g><path style="fill:#ffffff" d="M143.55,43.52L160.96,43.52L160.96,38.44L143.55,38.44z"/><path style="stroke:#000000;stroke-width:0.281;stroke-opacity:0.98" d="M143.55,43.52L160.96,43.52L160.96,38.44L143.55,38.44z"/><text xml:space="preserve" fill="#000000" stroke-width="0" x="144.18" y="42.09" font-size="3.09" opacity="1.00" font-family="Microsoft Sans Serif">3300025G1</text></g></g><g id="PMI6.0"><g><path style="stroke:#000000;stroke-width:0.281" d="M110.75,191.39L113.93,191.39L115.20,193.95"/></g><g><path style="fill:#000000" d="M114.31,194.37L116.11,193.48L116.10,195.72z"/></g><g><path style="fill:#ffffff" d="M94.68,193.91L111.40,193.91L111.40,188.83L94.68,188.83z"/><path style="stroke:#000000;stroke-width:0.281;stroke-opacity:0.98" d="M94.68,193.91L111.40,193.91L111.40,188.83L94.68,188.83z"/><text xml:space="preserve" fill="#000000" stroke-width="0" x="95.31" y="192.48" font-size="2.79" opacity="1.00" font-family="Microsoft Sans Serif">020045152</text></g></g><g id="PMI10.0"><g><path style="stroke:#000000;stroke-width:0.281" d="M132.40,139.42L132.34,136.70"/></g><g><path style="fill:#000000" d="M133.34,136.68L131.34,136.72L132.30,134.70z"/></g><g><path style="fill:#ffffff" d="M123.84,144.50L141.08,144.50L141.08,139.42L123.84,139.42z"/><path style="stroke:#000000;stroke-width:0.281;stroke-opacity:0.98" d="M123.84,144.50L141.08,144.50L141.08,139.42L123.84,139.42z"/><text xml:space="preserve" fill="#000000" stroke-width="0" x="124.47" y="143.07" font-size="3.09" opacity="1.00" font-family="Microsoft Sans Serif">3300025C2</text></g></g><g id="PMI3.0"><g><path style="stroke:#000000;stroke-width:0.281" d="M115.67,120.36L118.84,120.36L122.30,125.73"/></g><g><path style="fill:#000000" d="M121.47,126.27L123.15,125.19L123.39,127.41z"/></g><g><path style="fill:#ffffff" d="M98.73,122.90L116.31,122.90L116.31,117.82L98.73,117.82z"/><path style="stroke:#000000;stroke-width:0.281;stroke-opacity:0.98" d="M98.73,122.90L116.31,122.90L116.31,117.82L98.73,117.82z"/><text xml:space="preserve" fill="#000000" stroke-width="0" x="99.36" y="121.47" font-size="3.09" opacity="1.00" font-family="Microsoft Sans Serif">0200450M2</text></g></g><g id="PMI12.0"><g><path style="stroke:#000000;stroke-width:0.281" d="M129.48,95.41L129.54,93.50"/></g><g><path style="fill:#000000" d="M130.54,93.53L128.54,93.47L129.60,91.50z"/></g><g><path style="fill:#ffffff" d="M120.87,100.49L137.94,100.49L137.94,95.41L120.87,95.41z"/><path style="stroke:#000000;stroke-width:0.281;stroke-opacity:0.98" d="M120.87,100.49L137.94,100.49L137.94,95.41L120.87,95.41z"/><text xml:space="preserve" fill="#000000" stroke-width="0" x="121.50" y="99.06" font-size="3.09" opacity="1.00" font-family="Microsoft Sans Serif">3300025E6</text></g></g><g id="PMI14.0"><g><path style="stroke:#000000;stroke-width:0.281" d="M128.56,26.11L131.73,26.11L134.15,34.21"/></g><g><path style="fill:#000000" d="M133.20,34.52L135.12,33.95L134.73,36.15z"/></g><g><path style="fill:#ffffff" d="M111.96,28.67L129.20,28.67L129.20,23.59L111.96,23.59z"/><path style="stroke:#000000;stroke-width:0.281;stroke-opacity:0.98" d="M111.96,28.67L129.20,28.67L129.20,23.59L111.96,23.59z"/><text xml:space="preserve" fill="#000000" stroke-width="0" x="112.59" y="27.24" font-size="3.09" opacity="1.00" font-family="Microsoft Sans Serif">3300025H2</text></g></g><g id="PMI11.0"><g><path style="stroke:#000000;stroke-width:0.281" d="M113.80,67.26L115.44,67.23"/></g><g><path style="fill:#000000" d="M115.47,68.24L115.43,66.24L117.45,67.20z"/></g><g><path style="fill:#ffffff" d="M96.57,69.98L113.81,69.98L113.81,64.90L96.57,64.90z"/><path style="stroke:#000000;stroke-width:0.281;stroke-opacity:0.98" d="M96.57,69.98L113.81,69.98L113.81,64.90L96.57,64.90z"/><text xml:space="preserve" fill="#000000" stroke-width="0" x="97.20" y="68.55" font-size="3.09" opacity="1.00" font-family="Microsoft Sans Serif">3300025D2</text></g></g><g/><g id="paperID" visibility="hidden" opacity="0.00" transform="scale(0.000100)"><path style="stroke:#000000;stroke-width:0.500;fill:#e6e6e6;fill-rule:evenodd" d="M-2000.00,-2000.00L2297.00,-2000.00L2297.00,2210.00L-2000.00,2210.00zM0.00,0.00L297.00,0.00L297.00,210.00L0.00,210.00z"/><path style="fill:#000000;fill-opacity:0.118" d="M3.00,210.00L297.00,210.00L297.00,3.00L300.00,3.00L300.00,213.00L3.00,213.00z"/></g><g id="hotspot.0" onmouseover="ShowHotSpot(evt,'0')" onmouseout="HideHotSpot(evt,'0')" onmousemove="ShowToolTip(evt,'0',&quot;3dp2425846&quot;)" opacity="0"><path style="fill:#00ff00;fill-rule:evenodd" d="M147.50,14.77L147.59,9.62L164.08,9.53L164.08,14.77L156.14,14.93L156.17,16.38L156.75,16.56L155.97,18.27L155.73,18.21L155.12,17.09L155.07,16.58L155.69,16.37L155.71,14.93zM177.59,18.21L177.60,18.80L175.68,18.72L171.00,18.99L149.13,19.80L139.38,19.88L139.38,19.27L171.81,17.91L176.76,17.91z"/></g><g id="hotspot.1" onmouseover="ShowHotSpot(evt,'1')" onmouseout="HideHotSpot(evt,'1')" onmousemove="ShowToolTip(evt,'1',&quot;3dp2343810&quot;)" opacity="0"><path style="fill:#00ff00;fill-rule:evenodd" d="M170.46,118.65L172.08,118.07L172.98,118.06L172.90,121.06L134.56,134.29L132.61,135.07L133.31,136.70L132.68,136.98L132.65,139.24L141.13,139.40L141.13,144.64L123.74,144.64L123.83,139.49L132.22,139.24L132.20,136.99L131.58,136.78L131.63,136.27L131.99,135.70L131.95,135.35L131.33,135.33L124.10,137.87L122.68,138.18L122.75,134.36L126.45,133.20L126.97,132.10L168.29,118.62z"/></g><g id="hotspot.2" onmouseover="ShowHotSpot(evt,'2')" onmouseout="HideHotSpot(evt,'2')" onmousemove="ShowToolTip(evt,'2',&quot;3dp2451046&quot;)" opacity="0"><path style="fill:#00ff00;fill-rule:evenodd" d="M121.69,35.18L122.49,132.39L122.75,196.19L121.07,197.20L119.51,197.20L118.62,196.74L117.36,75.42L117.12,67.60L115.74,68.24L115.74,66.49L117.12,67.13L116.99,30.86L118.73,30.85zM114.02,67.15L115.23,67.32L114.02,67.58L113.86,70.12L96.47,70.12L96.56,64.97L113.86,64.88z"/></g><g id="hotspot.3" onmouseover="ShowHotSpot(evt,'3')" onmouseout="HideHotSpot(evt,'3')" onmousemove="ShowToolTip(evt,'3',&quot;3dp-3-095963&quot;)" opacity="0"><path style="fill:#00ff00;fill-rule:evenodd" d="M173.80,80.54L173.81,83.36L173.43,83.79L129.94,92.16L130.01,92.69L130.37,93.26L130.32,93.58L129.70,93.79L129.68,95.23L137.89,95.39L137.89,100.63L120.77,100.63L120.86,95.48L129.25,95.23L129.22,93.78L128.59,93.51L129.02,92.77L128.98,92.42L122.13,93.62L122.13,89.19L132.39,87.30L135.62,87.31L137.28,87.06L138.31,86.20L165.87,81.36L170.22,81.12L171.03,80.58L172.19,80.31z"/></g><g id="hotspot.4" onmouseover="ShowHotSpot(evt,'4')" onmouseout="HideHotSpot(evt,'4')" onmousemove="ShowToolTip(evt,'4',&quot;3dp2451233&quot;)" opacity="0"><path style="fill:#00ff00;fill-rule:evenodd" d="M174.63,31.92L174.90,32.19L174.87,34.47L174.59,35.27L152.64,35.43L153.05,36.30L153.00,36.61L152.38,36.82L152.36,38.26L160.86,38.40L161.13,38.67L161.11,43.66L143.45,43.66L143.54,38.51L151.93,38.26L151.90,36.81L151.27,36.54L151.70,35.80L151.67,35.46L121.60,35.00L118.89,30.85z"/></g><g id="hotspot.5" onmouseover="ShowHotSpot(evt,'5')" onmouseout="HideHotSpot(evt,'5')" onmousemove="ShowToolTip(evt,'5',&quot;3dp2621014&quot;)" opacity="0"><path style="fill:#00ff00;fill-rule:evenodd" d="M129.41,26.11L131.68,26.27L131.76,26.46L129.41,26.54L129.25,28.81L111.86,28.81L111.95,23.66L129.25,23.57zM132.03,27.27L131.76,26.46L131.95,26.54zM132.31,28.07L132.03,27.27L132.19,27.38zM132.56,29.17L132.31,28.07L132.46,28.19zM132.84,29.97L132.56,29.17L132.72,29.28zM133.12,30.77L132.84,29.97L133.00,30.08zM133.37,31.87L133.12,30.77L133.27,30.89zM133.65,32.67L133.37,31.87L133.53,31.98zM133.92,33.48L133.65,32.67L133.81,32.78zM134.21,34.28L134.04,34.21L133.92,33.48L134.08,33.60zM133.20,34.64L134.21,34.28L134.91,34.38L135.08,35.29L137.62,35.45L137.61,86.85L137.29,87.07L135.62,87.31L134.65,87.31L133.46,87.13L133.29,74.07L133.24,35.47L133.56,35.17zM170.81,80.90L170.21,81.11L167.21,81.19L167.76,40.59L168.02,35.45L171.64,35.45z"/></g><g id="hotspot.6" onmouseover="ShowHotSpot(evt,'6')" onmouseout="HideHotSpot(evt,'6')" onmousemove="ShowToolTip(evt,'6',&quot;3dp-3-095965&quot;)" opacity="0"><path style="fill:#00ff00;fill-rule:evenodd" d="M177.56,18.96L177.30,20.44L176.39,20.60L176.22,21.78L176.12,23.94L177.06,24.09L177.33,24.36L175.95,88.47L175.44,103.62L174.51,104.04L174.24,107.11L175.17,107.25L175.44,107.52L174.87,134.91L174.87,141.95L176.24,141.31L176.24,143.00L174.75,142.39L174.06,167.85L172.08,168.87L169.73,168.31L168.31,167.84L168.57,143.46L169.11,122.40L173.01,120.90L172.98,111.85L172.08,111.86L170.47,112.42L170.28,117.62L169.11,117.92L169.74,87.12L169.92,84.60L170.44,84.31L173.43,83.79L173.81,83.36L173.80,80.54L172.19,80.30L171.00,80.39L171.27,56.79L171.80,35.45L174.59,35.27L174.87,34.47L174.88,24.92L172.34,24.92L171.91,31.51L170.70,31.49L170.99,18.98L175.68,18.72zM195.69,139.92L195.67,144.91L178.01,144.91L177.85,142.37L176.64,142.11L177.85,141.94L178.10,139.76L195.42,139.65zM174.60,129.92L174.24,131.05L173.43,131.15L173.48,129.74L173.72,129.40L174.31,129.41z"/></g><g id="hotspot.7" onmouseover="ShowHotSpot(evt,'7')" onmouseout="HideHotSpot(evt,'7')" onmousemove="ShowToolTip(evt,'7',&quot;3dp2871594&quot;)" opacity="0"><path style="fill:#00ff00;fill-rule:evenodd" d="M157.87,92.69L158.69,93.22L158.92,95.42L159.21,95.94L160.56,96.21L169.23,97.53L169.50,97.80L169.21,103.87L166.23,103.50L160.01,102.42L158.93,102.50L158.59,104.86L154.77,104.85L154.86,105.39L155.18,105.93L154.55,106.20L154.52,107.65L162.73,107.81L162.73,113.05L145.88,113.05L145.97,107.90L154.09,107.65L154.07,106.21L153.45,106.00L153.50,105.49L153.85,104.92L153.82,104.60L153.29,104.29L151.65,104.04L151.38,103.77L151.13,101.32L150.59,100.78L141.57,99.27L141.56,93.23L142.75,93.23L143.03,93.49L151.11,94.70L151.38,92.25L152.21,91.91zM155.95,96.77L156.52,97.55L156.52,99.82L156.15,100.53L154.35,100.52L153.52,99.47L153.52,97.09L154.34,96.26L154.89,96.19z"/></g><g id="hotspot.8" onmouseover="ShowHotSpot(evt,'8')" onmouseout="HideHotSpot(evt,'8')" onmousemove="ShowToolTip(evt,'8',&quot;3dp2718795&quot;)" opacity="0"><path style="fill:#00ff00;fill-rule:evenodd" d="M186.24,20.58L183.80,107.93L183.42,108.36L182.36,108.45L179.98,105.14L182.05,23.83L185.03,20.32L185.97,20.30zM187.44,64.89L188.92,64.72L189.17,62.00L205.66,61.91L205.66,67.15L189.08,67.15L188.92,65.15zM185.32,64.89L187.05,64.08L187.05,65.79z"/></g><g id="hotspot.9" onmouseover="ShowHotSpot(evt,'9')" onmouseout="HideHotSpot(evt,'9')" onmousemove="ShowToolTip(evt,'9',&quot;3dp739677&quot;)" opacity="0"><path style="fill:#00ff00;fill-rule:evenodd" d="M174.60,129.92L174.24,131.05L173.43,131.15L173.48,129.74L173.72,129.40L174.31,129.41zM211.62,150.18L211.60,155.17L202.31,155.33L202.34,156.78L202.92,156.96L202.29,158.31L203.23,158.57L203.23,159.76L202.84,160.49L202.44,160.48L201.60,159.93L200.43,159.47L200.51,158.37L201.65,158.38L201.29,157.49L201.24,156.98L201.86,156.77L201.88,155.33L192.86,155.17L192.95,150.02L211.35,149.91z"/></g><g id="hotspot.10" onmouseover="ShowHotSpot(evt,'10')" onmouseout="HideHotSpot(evt,'10')" onmousemove="ShowToolTip(evt,'10',&quot;3dp2425847&quot;)" opacity="0"><path style="fill:#00ff00;fill-rule:evenodd" d="M168.11,165.88L168.31,167.84L168.91,168.05L172.08,168.87L173.73,167.99L174.08,168.03L174.11,168.37L172.06,169.64L171.08,169.67L160.83,166.41L160.31,165.31L155.95,163.95L155.33,163.97L155.46,165.41L153.98,164.86L154.06,164.37L154.65,163.67L150.04,162.08L147.86,162.12L141.93,160.20L141.64,159.40L139.39,158.65L139.39,158.04L140.56,158.33L142.40,158.32L143.03,158.05zM153.53,168.41L153.46,167.81L153.62,167.67zM150.47,169.48L152.72,169.42L153.04,169.13L153.02,169.72L150.47,169.91L150.31,172.18L133.19,172.18L133.28,167.03L150.31,166.94z"/></g><g id="hotspot.11" onmouseover="ShowHotSpot(evt,'11')" onmouseout="HideHotSpot(evt,'11')" onmousemove="ShowToolTip(evt,'11',&quot;3dp2473141&quot;)" opacity="0"><path style="fill:#00ff00;fill-rule:evenodd" d="M174.79,31.69L170.44,31.68L171.91,31.51L172.34,24.92L174.88,24.92zM168.80,118.41L168.81,118.12L170.27,117.62L170.47,112.42L172.08,111.86L172.98,111.85L173.01,117.66L170.46,118.66L169.75,118.65zM116.45,120.34L119.01,120.55L119.05,120.82L116.45,120.77L116.29,123.04L98.63,123.04L98.72,117.89L116.29,117.80zM123.30,126.47L124.29,126.46L126.54,125.89L126.46,133.21L122.75,134.39L122.79,127.23L121.57,126.42L122.70,125.59L123.01,125.62z"/></g><g id="hotspot.12" onmouseover="ShowHotSpot(evt,'12')" onmouseout="HideHotSpot(evt,'12')" onmousemove="ShowToolTip(evt,'12',&quot;3dp2457709&quot;)" opacity="0"><path style="fill:#00ff00;fill-rule:evenodd" d="M182.67,161.04L182.70,164.63L181.79,164.51L181.85,165.05L182.45,166.13L181.45,166.83L181.35,166.41L180.42,166.14L181.34,164.51L181.26,160.48L181.82,160.14L182.14,160.20zM181.52,168.67L190.00,168.83L190.00,174.07L172.61,174.07L172.70,168.92L181.09,168.67L181.45,166.83z"/></g><g id="hotspot.13" onmouseover="ShowHotSpot(evt,'13')" onmouseout="HideHotSpot(evt,'13')" onmousemove="ShowToolTip(evt,'13',&quot;3dp2425259&quot;)" opacity="0"><path style="fill:#00ff00;fill-rule:evenodd" d="M161.55,31.50L161.64,20.43L161.81,19.25L165.16,19.25L164.89,31.78L161.87,31.72zM160.86,67.67L161.37,40.68L161.54,35.45L164.89,35.45L164.61,57.42L164.08,81.73L160.73,82.27L160.86,68.14L159.48,68.78L159.48,67.03zM157.49,67.69L158.97,67.86L157.49,68.12L157.33,70.39L140.21,70.39L140.30,65.24L157.33,65.15zM160.74,89.01L160.73,86.21L164.06,85.65L164.07,89.57L161.06,89.23z"/></g><g id="hotspot.14" onmouseover="ShowHotSpot(evt,'14')" onmouseout="HideHotSpot(evt,'14')" onmousemove="ShowToolTip(evt,'14',&quot;3dp2451037&quot;)" opacity="0"><path style="fill:#00ff00;fill-rule:evenodd" d="M111.59,191.35L114.15,191.56L114.19,191.83L111.59,191.78L111.43,194.05L94.58,194.05L94.67,188.90L111.43,188.81zM116.04,193.70L116.26,195.32L116.91,195.49L117.03,195.67L117.65,195.58L116.91,195.49L117.08,194.30L118.45,194.21L118.62,196.74L119.51,197.20L121.07,197.20L123.06,196.12L123.06,197.03L120.52,198.58L119.79,198.57L115.49,196.64L115.19,196.38L115.20,195.26L114.31,194.50L115.21,193.70zM117.03,195.67L116.91,195.49L117.65,195.58z"/></g><g id="hotspot.15" onmouseover="ShowHotSpot(evt,'15')" onmouseout="HideHotSpot(evt,'15')" onmousemove="ShowToolTip(evt,'15',&quot;3dp2425261&quot;)" opacity="0"><path style="fill:#00ff00;fill-rule:evenodd" d="M135.08,16.93L137.63,17.12L137.65,17.71L137.33,17.42L135.08,17.36L134.92,19.63L118.07,19.63L118.16,14.48L134.92,14.39zM139.21,20.97L139.41,20.07L143.02,20.06L143.02,31.24L139.40,31.24L139.26,23.01L138.57,22.47L139.22,21.95zM143.02,47.98L141.83,48.14L141.83,51.22L143.02,51.38L143.01,79.29L142.75,84.16L141.83,84.32L141.59,85.70L139.41,86.06L139.40,35.45L143.02,35.45zM142.75,93.07L141.56,93.23L141.56,99.28L142.50,99.42L142.77,99.69L142.74,118.44L141.84,118.89L141.83,121.69L142.75,121.85L142.77,126.84L140.84,127.61L139.42,127.92L139.48,90.34L142.74,89.71zM139.76,132.47L142.74,131.56L142.74,158.13L142.42,158.35L140.56,158.33L139.76,158.05z"/></g><g id="hotspot.16" onmouseover="ShowHotSpot(evt,'16')" onmouseout="HideHotSpot(evt,'16')" onmousemove="ShowToolTip(evt,'16',&quot;3dp2425258&quot;)" opacity="0"><path style="fill:#00ff00;fill-rule:evenodd" d="M159.48,48.69L161.11,48.95L161.11,52.03L156.24,51.93L144.09,51.39L141.83,51.22L141.83,48.14zM167.57,49.24L167.59,52.30L164.78,52.30L164.78,48.95L166.77,48.96zM147.08,84.69L141.84,85.52L141.83,84.32L144.90,84.33zM169.47,87.57L169.48,90.91L167.85,90.81L150.20,88.40L150.72,88.09L159.39,86.50L160.57,86.48L160.74,89.01L161.06,89.23L164.07,89.57L164.24,87.02L166.23,87.03zM157.92,121.58L158.17,121.83L152.66,123.77L151.10,123.76L141.84,121.68L141.84,118.89L142.36,118.60L143.82,118.63zM168.93,124.02L168.93,127.64L164.60,126.72L163.69,126.71L163.80,127.60L163.18,127.81L163.16,129.52L171.10,129.68L171.10,134.92L154.25,134.92L154.34,129.77L162.73,129.52L162.70,127.80L162.07,127.52L162.50,126.43L162.21,126.16L159.92,125.66L165.87,123.47L166.76,123.47z"/></g><g id="hotspot.17" onmouseover="ShowHotSpot(evt,'17')" onmouseout="HideHotSpot(evt,'17')" onmousemove="ShowToolTip(evt,'17',&quot;3dp2329860&quot;)" opacity="0"><path style="fill:#00ff00;fill-rule:evenodd" d="M183.60,13.23L183.68,13.04L185.95,12.88L186.20,10.43L202.96,10.34L202.96,15.58L186.11,15.58L185.95,13.31zM183.33,14.04L183.41,13.31L183.60,13.23zM182.15,18.02L182.08,17.42L182.24,17.28zM182.44,19.02L182.48,19.33L181.50,20.33L184.87,20.33L182.07,23.85L177.04,24.14L176.13,23.94L176.22,21.78L176.39,20.60L181.11,20.42L180.99,18.70L181.60,18.69zM179.49,104.28L179.99,105.13L182.20,108.11L182.17,108.46L174.24,107.10L174.52,104.05L175.32,103.76z"/></g></g></svg>
