<?xml version="1.0" encoding="UTF-8" standalone="no"?>
<svg xmlns="http://www.w3.org/2000/svg" xmlns:xlink="http://www.w3.org/1999/xlink" width="297.000mm" height="210.000mm" viewBox="0.000000 0.000000 297.000000 210.000000" stroke-linejoin="round" stroke-linecap="round" fill="none" fill-rule="evenodd"><desc>Composer Export</desc><script type="text/ecmascript"><![CDATA[
if(typeof(top) != "undefined")
{
	top.ShowPaper = ShowPaper;
}
function ShowHotSpot(evt,hotspotid)
{
	var svgDocument = evt.target.ownerDocument;
	var strId = "hotspot."+hotspotid;
	var hotspot = svgDocument.getElementById(strId);
	if(hotspot)
		hotspot.setAttribute("opacity",".5");
}
function HideHotSpot(evt,hotspotid)
{
	var svgDocument = evt.target.ownerDocument;
	var strId = "hotspot."+hotspotid;
	var hotspot = svgDocument.getElementById(strId);
	if(hotspot)
		hotspot.setAttribute("opacity","0");

	var toolTip = svgDocument.getElementById('ToolTip');
	if(toolTip)
		toolTip.setAttribute("visibility","hidden");
}
function ShowToolTip(evt,hotspotid,strTooltip)
{
	if(strTooltip=="")
	return;

	// change text
	var svgDocument = evt.target.ownerDocument;
	var tiptext = svgDocument.getElementById('ToolTipText');
	if( !tiptext )
	return;
	tiptext.firstChild.nodeValue = " " + strTooltip + "  " ;

	// show tooltip before, else some refresh issue

	var toolTip = svgDocument.getElementById('ToolTip');
	if(!toolTip)
	return;

	toolTip.setAttribute("visibility","visible");
	toolTip.setAttribute("opacity",".95");

	// move tooltip
	// get viewbox

	var root = svgDocument.documentElement;
	var vbox = (root.getAttribute("viewBox")).split(' ');
	var x0 = parseFloat(vbox[0]);
	var y0 = parseFloat(vbox[1]);
	var vboxW = parseFloat(vbox[2]);
	var vboxH = parseFloat(vbox[3]);

	// get default width of svg

	var strW = root.getAttribute("width");
	var svgW = parseFloat(strW);
	if(strW.indexOf('mm') != -1)
	svgW *= 3.779;

	var strH = root.getAttribute("height");
	var svgH = parseFloat(strH);
	if(strH.indexOf('mm') != -1)
	svgH *= 3.779;  	// 96 dpi  -> 96/25.4 = 3.779

	// update the viewbox / width / height if svg is embedded in html with zoom fit all
	var realx0 = x0;
	var realy0 = y0;
	var realvboxW = vboxW;
	var realvboxH = vboxH;
	var realsvgW = svgW;
	var realsvgH = svgH;

	if ((typeof(top) == "undefined") || (typeof(top.svgctl1) != "undefined")) // embedded in html
	{
		// get window size in pxl

		svgW = window.innerWidth;
		svgH = window.innerHeight;

		// calculate real viewbox

		realsvgW = svgW;
		realsvgH = svgH;
		if((svgW / svgH) > (vboxW / vboxH))
		{
			realvboxW = (vboxH * svgW) / svgH;
			realvboxH = vboxH;
			realx0 = x0 - (realvboxW - vboxW)/2 ;
		}
		else
		{
			realvboxH = (vboxW * svgH) / svgW;
			realvboxW = vboxW;
			realy0 = y0 - (realvboxH - vboxH)/2 ;
		}
	}

	// get user zoom/pan

	var newScale = root.currentScale;
	var translation = root.currentTranslate;

	// transform pxl to user unit

	var xPos = (((evt.clientX+10- translation.x)/newScale) * realvboxW)/realsvgW  + realx0 ;
	var yPos = (((evt.clientY+5- translation.y)/newScale) * realvboxH)/ realsvgH  + realy0 ;
	var scaleForWidth = ( (1 / newScale) * realvboxH) / realsvgH;

	// move tooltip

	toolTip.setAttribute("transform", "translate(" + xPos + "," + yPos + ")" );

	// resize tooltip

	var fontsize = 12;
	tiptext.setAttribute("font-size",fontsize*scaleForWidth);
	tiptext.setAttribute("y", fontsize*scaleForWidth);
	var tipBG = svgDocument.getElementById('ToolTipBG');
	var outline = tiptext.getBBox();
	if(tipBG)
	{
		tipBG.setAttribute("stroke-width", 1*scaleForWidth);
		tipBG.setAttribute("width", Number(outline.width) );
		tipBG.setAttribute("height", Number(outline.height) + fontsize*.5*scaleForWidth );
	}
	var ToolTipShadow = svgDocument.getElementById('ToolTipShadow');
	if(ToolTipShadow)
	{
		ToolTipShadow.setAttribute("width", Number(outline.width) );
		ToolTipShadow.setAttribute("height", Number(outline.height) + fontsize*.5*scaleForWidth );
		ToolTipShadow.setAttribute("x", 3*scaleForWidth);
		ToolTipShadow.setAttribute("y", 3*scaleForWidth);
	}
}
function ShowPaper()
{
  var svgDocument = getDocument();
  var paper = svgDocument.getElementById("paperID");
  if(paper)
  {
    paper.setAttribute("transform","scale(1)");
    paper.setAttribute("opacity","1");
    paper.setAttribute("visibility","visible");
  }
  var svg = svgDocument.getRootElement();
  if(svg)
  {
    svg.setAttribute("width","307.000mm");
    svg.setAttribute("height","220.000mm");
    svg.setAttribute("viewBox","-5.000000 -5.000000 307.000000 220.000000");
  }
}
]]></script><defs/><g><g id="Actor_.0"><g style="stroke:#000000;stroke-width:0.123"><path d="M143.05,45.58L143.12,45.39L143.16,42.33L143.09,42.10"/><path d="M144.95,46.03L143.05,45.84"/><path d="M145.00,42.30L143.09,42.09"/><path d="M177.24,49.24L149.16,46.45"/><path d="M161.18,44.14L161.49,44.17L149.10,42.77"/><path d="M154.27,45.31L154.22,45.01L154.31,44.66L154.54,44.47L154.80,44.55L155.00,44.92L154.92,45.46L154.78,45.60L154.61,45.64L154.43,45.57L154.27,45.31"/><path d="M154.55,45.63L154.79,45.33L154.82,45.00L154.71,44.69L154.48,44.50"/><path d="M161.49,44.17L170.52,45.20L169.39,45.07"/><path d="M170.52,45.20L180.68,46.35L179.56,46.22"/><path d="M190.74,47.49L190.78,47.62L189.20,50.06L189.03,50.19L187.61,50.27L180.54,49.57"/><path d="M180.68,46.35L190.78,47.49"/><path d="M190.75,47.49L189.72,47.37"/></g></g><g id="Actor_.1"><g style="stroke:#000000;stroke-width:0.123"><path d="M187.34,163.67L187.32,164.30L187.30,164.32L185.59,165.02L185.54,165.04L185.47,165.03L185.40,165.02L181.81,163.80L181.69,163.76L181.61,163.70L181.58,163.67L181.55,163.62L181.58,162.96L181.59,163.02L181.63,163.07L181.72,163.13L181.83,163.17L185.43,164.38L185.49,164.40L185.56,164.40L185.62,164.39L187.31,163.69L187.34,163.67L187.33,163.65L187.30,163.63L186.98,163.52"/><path d="M181.58,162.96L181.60,162.91L181.67,162.86L181.92,162.76L183.17,163.18L183.31,163.21L183.46,163.24L183.69,163.25L183.83,163.23L184.00,163.19"/><path d="M184.00,162.93L183.90,162.89L182.64,162.47L182.62,162.99"/><path d="M182.64,162.47L182.82,162.40L182.94,162.38L183.09,162.36L183.25,162.36L183.41,162.37L183.56,162.40L184.02,162.54"/></g></g><g id="Actor_.2"><g style="stroke:#000000;stroke-width:0.123"><path d="M144.05,116.70L146.26,120.41L146.81,120.43L147.94,120.14"/><path d="M144.04,116.72L145.12,33.03"/><path d="M149.30,29.42L147.72,29.07L147.55,29.15L145.12,33.01"/><path d="M147.94,120.16L149.30,29.40"/></g></g><g id="Actor_.3"><g style="stroke:#000000;stroke-width:0.123"><path d="M140.25,30.09L140.21,30.10L140.17,30.14L140.13,30.25L140.10,33.49L140.12,33.59L140.18,33.67L140.23,33.69L141.77,33.91L145.11,33.51"/><path d="M140.24,30.09L147.71,29.07L149.25,29.33L149.28,29.34L149.30,29.37"/><path d="M147.48,29.23L145.15,32.89"/><path d="M145.14,32.92L145.15,32.89"/><path d="M145.13,32.93L145.14,32.92"/><path d="M145.13,32.94L145.12,32.96"/><path d="M145.12,32.96L145.12,32.98"/><path d="M145.12,33.02L145.12,32.98"/><path d="M147.69,29.07L147.60,29.12"/><path d="M147.59,29.12L147.50,29.21"/><path d="M147.50,29.21L147.48,29.23"/><path d="M149.30,29.38L149.30,29.38"/><path d="M149.30,29.39L149.30,29.40"/></g></g><g id="Actor_.4"><g style="stroke:#000000;stroke-width:0.123"><path d="M138.70,182.69L138.92,182.80L138.96,178.98L138.74,178.88"/><path d="M138.92,182.80L140.10,182.32L140.21,182.29L140.33,182.28L140.45,182.29L140.55,182.33L141.65,182.84L141.89,182.74L141.93,178.93L140.83,178.43L140.70,178.38L140.55,178.35L140.30,178.34L140.14,178.36L139.93,178.41"/><path d="M141.65,182.84L141.70,179.02L140.60,178.52L140.49,178.49L140.37,178.48L140.25,178.49L140.14,178.51L138.96,178.98"/><path d="M141.70,179.02L141.93,178.93"/></g></g><g id="Actor_.5"><g style="stroke:#000000;stroke-width:0.123"><path d="M135.79,137.22L135.73,137.37L135.70,140.21L135.76,140.34L112.67,133.25L112.61,133.14L112.60,130.51L112.71,130.38L114.16,130.11L135.80,136.40"/></g></g><g id="Actor_.6"><g style="stroke:#000000;stroke-width:0.123"><path d="M139.77,142.95L139.77,142.84L139.77,142.73L139.78,142.62L139.80,142.48L139.82,142.40L139.86,142.29L139.90,142.19L139.96,142.09L140.02,142.00L140.08,141.91L140.15,141.84L140.23,141.77L140.31,141.71L140.39,141.66L140.48,141.63L140.56,141.60L140.60,141.60L140.66,141.59L140.74,141.60L140.83,141.61L140.95,141.66L141.02,141.70L141.08,141.75L141.15,141.82L141.20,141.89L141.25,141.98L141.28,142.07L141.31,142.17L141.33,142.27L141.34,142.38L141.34,142.49L141.33,142.60L141.31,142.71L141.28,142.82L141.24,142.92L141.20,143.03L141.15,143.13L141.09,143.22L141.03,143.30L140.95,143.38L140.88,143.45L140.80,143.51L140.72,143.55L140.63,143.59L140.54,143.62L140.45,143.63L140.37,143.62L140.28,143.61L140.17,143.57L140.09,143.52L140.01,143.47L139.96,143.40L139.90,143.33L139.86,143.24L139.82,143.15L139.79,143.06"/><path d="M139.78,142.95L139.79,143.05"/><path d="M140.36,143.09L140.41,143.12L140.46,143.14L140.51,143.16L140.56,143.16L140.63,143.15L140.69,143.12L140.74,143.09L140.80,143.05L140.85,142.99L140.89,142.93L140.93,142.86L140.96,142.79L140.99,142.71L141.01,142.64L141.01,142.56L141.01,142.48L141.00,142.41L140.99,142.34L140.96,142.28L140.93,142.22L140.89,142.18L140.84,142.14L140.79,142.12L140.74,142.11L140.68,142.11L140.62,142.12L140.56,142.14L140.51,142.17L140.45,142.22L140.42,142.26L140.36,142.33L140.32,142.40L140.29,142.47L140.26,142.55L140.25,142.63L140.24,142.71L140.24,142.78L140.25,142.86L140.27,142.93L140.29,142.99L140.32,143.04L140.36,143.09"/></g></g><g id="Actor_.7"><g style="stroke:#000000;stroke-width:0.123"><path d="M143.24,29.68L143.25,28.79L140.28,28.29L136.74,28.76L135.42,181.22L138.71,182.69"/><path d="M140.37,163.81L140.40,164.70L140.05,165.09L139.76,164.96L139.76,164.43L140.19,163.86L140.71,164.02L140.71,164.72L140.38,165.15L139.87,165.15"/><path d="M142.18,119.58L141.48,178.72"/><path d="M143.19,33.74L142.22,115.72"/></g></g><g id="Actor_.8"><g style="stroke:#000000;stroke-width:0.123"><path d="M155.39,171.34L155.34,171.30L155.29,171.25L155.14,171.08L155.11,171.02L155.08,170.95L155.07,170.88L155.06,170.79L155.06,170.71L155.07,170.62L155.09,170.53L155.12,170.44L155.15,170.36L155.20,170.27L155.24,170.20L155.30,170.13L155.35,170.08L155.41,170.03L155.48,169.99L155.54,169.97L155.60,169.96L155.83,169.94L155.89,169.95L156.49,170.18"/><path d="M155.83,170.97L155.84,170.94L155.92,170.99L155.83,170.97L155.84,170.98L156.54,171.26"/><path d="M155.82,171.04L155.83,171.00L155.91,171.06L155.82,171.04L155.83,171.05L155.82,171.06L155.90,171.13L156.52,171.37"/><path d="M155.83,171.00L155.84,170.98"/><path d="M155.90,171.13L155.82,171.10L156.51,171.38"/><path d="M155.83,171.11L155.82,171.12L155.83,171.13L155.90,171.19L155.82,171.16L155.83,171.17L155.82,171.18L155.82,171.22L155.90,171.25L155.82,171.18"/><path d="M155.83,171.17L156.51,171.44"/><path d="M155.82,171.16L155.82,171.12"/><path d="M155.82,171.10L155.82,171.06"/><path d="M155.84,171.23L155.83,171.24L155.83,171.28L155.91,171.31L155.83,171.24"/><path d="M155.84,171.30L155.92,171.37L155.84,171.33L155.84,171.30L155.84,171.28"/><path d="M155.98,171.57L155.39,171.34"/><path d="M155.84,170.94L155.85,170.92L156.55,171.20"/><path d="M155.83,171.05L156.52,171.32"/><path d="M155.95,171.47L155.88,171.43L155.87,171.40L155.95,171.47L156.51,171.69"/><path d="M155.85,171.34L155.85,171.35L155.93,171.42L156.50,171.65"/><path d="M156.52,171.77L156.00,171.56L155.91,171.49L155.92,171.51L156.00,171.56"/><path d="M156.06,171.63L155.97,171.56L156.06,171.63L156.52,171.82"/><path d="M156.53,171.84L156.17,171.70"/><path d="M156.53,171.83L156.09,171.66L156.00,171.59"/><path d="M156.53,171.84L156.13,171.68L156.11,171.66"/><path d="M155.94,171.52L155.94,171.53L156.03,171.60L156.52,171.80"/><path d="M155.97,171.52L155.90,171.47L155.89,171.45L155.97,171.52L156.51,171.73"/><path d="M156.70,170.81L156.75,170.72L156.85,170.58L156.96,170.45L157.04,170.38L157.13,170.32L157.21,170.28L157.29,170.25L157.39,170.22L157.48,170.22L157.56,170.22L157.64,170.25L157.76,170.30L157.82,170.35L157.89,170.42L157.94,170.50L157.99,170.57L158.02,170.66L158.05,170.77L158.06,170.87L158.07,170.98L158.07,171.09L158.06,171.21L158.04,171.32L158.01,171.44L157.97,171.55L157.93,171.67L157.88,171.77L157.82,171.88L157.75,171.97L157.68,172.06L157.61,172.14L157.53,172.20L157.45,172.27L157.36,172.31L157.27,172.35L157.19,172.37L157.11,172.37L157.02,172.37L156.93,172.34L156.83,172.30L156.75,172.24L156.68,172.18L156.63,172.11L156.59,172.02L156.55,171.93L156.52,171.82L156.51,171.72L156.50,171.61L156.51,171.46L156.53,171.27L156.56,171.15L156.60,171.03L156.64,170.92L156.70,170.81L156.65,170.92"/><path d="M155.93,170.79L155.97,170.80L155.89,170.74L155.88,170.78L155.93,170.79"/><path d="M155.97,170.80L156.60,171.05"/><path d="M155.89,170.74L155.90,170.74L156.61,171.02"/><path d="M155.94,170.62L156.02,170.67L155.93,170.66L155.94,170.62L155.96,170.62L155.95,170.60L156.05,170.61L155.97,170.57L155.95,170.60"/><path d="M155.95,170.73L155.99,170.73L155.91,170.68L155.90,170.72L155.95,170.73"/><path d="M155.91,170.68L155.93,170.68L156.63,170.95"/><path d="M155.99,170.73L156.62,170.98"/><path d="M155.91,170.74L155.90,170.72"/><path d="M156.01,170.51L155.99,170.54L156.08,170.55L156.01,170.51L156.02,170.51L156.02,170.49L156.12,170.50L156.74,170.74"/><path d="M155.99,170.54L155.99,170.56L155.97,170.57"/><path d="M156.12,170.50L156.04,170.46L156.02,170.49"/><path d="M156.16,170.45L156.08,170.41L156.06,170.44L156.16,170.45L156.77,170.69"/><path d="M156.04,170.46L156.06,170.46L156.74,170.73"/><path d="M156.20,170.40L156.10,170.39L156.12,170.37L156.80,170.64"/><path d="M156.08,170.41L156.77,170.68"/><path d="M156.28,170.32L156.20,170.29L156.18,170.31L156.28,170.32L156.87,170.55"/><path d="M156.71,170.78L156.02,170.51"/><path d="M156.02,170.67L156.65,170.92"/><path d="M155.96,170.62L156.66,170.90"/><path d="M156.05,170.61L156.68,170.86"/><path d="M155.99,170.56L156.68,170.84"/><path d="M155.85,170.92L155.84,170.91L155.93,170.93L155.85,170.87L155.87,170.86L156.57,171.14"/><path d="M155.87,170.86L155.86,170.85L155.87,170.81L155.95,170.86L155.86,170.85"/><path d="M155.87,170.81L155.88,170.80L156.59,171.08"/><path d="M155.93,170.93L156.56,171.18"/><path d="M155.85,170.87L155.84,170.91"/><path d="M155.92,170.99L156.54,171.24"/><path d="M155.90,171.19L156.51,171.43"/><path d="M155.87,171.40L155.87,171.39"/><path d="M155.85,171.35L155.86,171.38L155.93,171.42"/><path d="M155.94,171.53L155.95,171.55L156.03,171.60"/><path d="M155.97,171.56L155.97,171.56"/><path d="M155.91,171.49L155.91,171.48"/><path d="M155.89,171.45L155.89,171.44"/><path d="M155.92,171.37L156.50,171.60"/><path d="M156.50,171.55L155.91,171.31"/><path d="M155.90,171.25L156.50,171.49"/><path d="M155.91,171.06L156.53,171.31"/><path d="M155.95,170.86L156.57,171.11"/><path d="M156.08,170.55L156.71,170.80"/><path d="M156.84,170.59L156.24,170.36L156.14,170.35L156.13,170.37L156.81,170.64"/><path d="M155.93,170.68L155.93,170.66"/><path d="M155.88,170.80L155.88,170.78"/><path d="M156.22,170.29L156.22,170.28L156.33,170.28L156.91,170.51"/><path d="M156.12,170.37L156.13,170.37"/><path d="M156.10,170.39L156.09,170.41"/><path d="M156.14,170.35L156.16,170.33L156.24,170.36"/><path d="M156.18,170.31L156.17,170.33"/><path d="M156.22,170.28L156.25,170.26L156.33,170.28"/><path d="M156.42,170.23L156.33,170.21L156.31,170.22L156.42,170.23L156.97,170.45"/><path d="M156.39,170.20L156.47,170.21L156.35,170.21L156.39,170.20"/><path d="M156.44,170.20L156.40,170.19L156.42,170.19L156.51,170.20L156.44,170.20"/><path d="M157.07,170.37L156.64,170.20L156.48,170.18"/><path d="M156.47,170.18L156.44,170.18L156.56,170.20L156.47,170.18"/><path d="M156.44,170.18L156.44,170.19"/><path d="M157.07,170.36L156.68,170.21L156.66,170.21"/><path d="M156.49,170.18L156.60,170.19L157.06,170.37"/><path d="M156.26,170.26L156.26,170.25L156.29,170.23L156.37,170.25L156.94,170.48"/><path d="M156.26,170.25L156.37,170.25"/><path d="M156.47,170.21L157.00,170.42"/><path d="M157.02,170.40L156.51,170.20"/><path d="M156.31,170.22L156.30,170.24"/><path d="M156.40,170.19L156.39,170.20"/><path d="M156.35,170.21L156.35,170.22"/><path d="M156.06,170.46L156.06,170.44"/><path d="M156.56,170.20L157.04,170.39"/><path d="M157.03,171.73L157.07,171.79L157.11,171.83L157.15,171.86L157.20,171.88L157.25,171.88L157.31,171.88L157.37,171.86L157.42,171.83L157.48,171.79L157.53,171.74L157.58,171.67L157.63,171.61L157.67,171.53L157.70,171.45L157.73,171.37L157.74,171.29L157.75,171.21L157.75,171.13L157.74,171.05L157.73,170.98L157.70,170.92L157.67,170.87L157.63,170.83L157.59,170.80L157.54,170.78L157.48,170.77L157.43,170.78L157.37,170.80L157.31,170.83L157.26,170.87L157.20,170.92L157.15,170.98L157.11,171.05L157.07,171.12L157.04,171.20L157.01,171.28L156.99,171.37L156.99,171.45L156.99,171.53L156.99,171.60L157.01,171.67L157.03,171.73"/></g></g><g id="Actor_.9"><g style="stroke:#000000;stroke-width:0.123"><path d="M146.38,120.50L139.29,118.95L139.25,118.91L139.23,118.82L139.26,115.87L139.28,115.78L139.33,115.71L139.39,115.68L140.89,115.45"/><path d="M140.89,115.45L144.05,116.09"/><path d="M144.04,116.71L144.05,116.75"/><path d="M144.05,116.75L144.05,116.77"/><path d="M144.05,116.77L144.06,116.79"/><path d="M144.06,116.80L144.06,116.79"/><path d="M144.07,116.83L144.07,116.81"/><path d="M144.08,116.83L146.20,120.35"/><path d="M147.94,120.18L147.92,120.22L147.89,120.23L146.43,120.50L146.37,120.49L146.31,120.46"/><path d="M146.22,120.37L146.20,120.35"/><path d="M146.31,120.46L146.22,120.38"/><path d="M147.94,120.17L147.94,120.16"/></g></g><g id="Actor_.10"><g style="stroke:#000000;stroke-width:0.123"><path d="M142.07,129.01L144.91,128.41L145.02,128.35L145.10,128.25L145.14,128.19L145.18,128.05L145.20,127.90L145.28,122.17L142.21,122.75L142.14,128.53L142.12,128.69L142.07,128.85"/><path d="M142.21,122.75L142.14,122.73"/><path d="M142.14,122.66L145.05,122.12L145.28,122.17"/></g></g><g id="Actor_.11"><g style="stroke:#000000;stroke-width:0.123"><path d="M140.98,182.53L138.58,183.51L111.03,170.40L111.03,169.71L111.09,169.70"/><path d="M111.03,169.71L138.59,182.74L138.70,182.70"/><path d="M135.44,178.45L132.66,177.19L132.13,177.18L131.22,177.46L130.85,177.45L130.61,177.39L121.31,173.05L121.19,172.95L121.20,172.84L121.72,172.57L121.77,172.46L121.69,172.36L116.93,170.15L116.65,170.09L114.33,169.97"/><path d="M117.00,171.68L117.45,171.71L118.04,171.97L118.04,171.27L117.52,171.04L117.26,170.99L116.85,171.01L116.48,171.15L116.42,171.23L116.46,171.35L116.98,171.61L117.00,171.72"/><path d="M118.04,171.27L118.25,171.28L120.07,172.13L120.23,172.24L120.24,172.38L120.03,172.55L119.75,172.63L119.41,172.67L118.97,172.62L116.98,171.71L117.00,171.62"/><path d="M118.04,171.97L118.25,171.97L118.25,171.28"/><path d="M118.25,171.97L119.69,172.64"/><path d="M121.74,173.25L121.77,173.16"/><path d="M121.77,173.16L121.77,172.46"/><path d="M131.92,178.72L132.34,178.69L132.78,178.77L134.92,179.77"/><path d="M135.43,179.77L135.10,179.86L134.66,179.85L133.88,179.54L133.65,179.53L131.51,178.52L131.41,178.43L131.38,178.28L131.58,178.09L131.87,178.00L132.22,177.96L132.68,178.01L134.93,179.03L134.93,179.13L135.44,179.37"/><path d="M134.93,179.87L134.93,179.13"/><path d="M138.58,183.51L138.59,182.74"/></g></g><g id="Actor_.12"><g style="stroke:#000000;stroke-width:0.123"><path d="M136.03,108.47L129.08,107.23L128.83,107.08L128.64,106.76L128.57,106.36L128.58,104.80L128.51,104.39L128.33,104.07L128.07,103.93L123.05,103.10L122.57,103.18L122.39,103.43L122.32,103.81L122.32,105.33L122.25,105.70L122.08,105.95L121.83,106.01L114.60,104.71L114.18,104.71L112.74,104.86L112.76,110.77L114.20,110.59L114.62,110.59L121.83,112.07L122.07,112.22L122.25,112.54L122.31,112.90L122.31,114.44L122.37,114.83L122.55,115.15L122.79,115.30L127.78,116.39L128.03,116.34L128.22,116.09L128.29,115.72L128.30,114.17L128.37,113.80L128.56,113.55L128.81,113.50L135.77,114.93"/><path d="M112.76,110.77L112.58,110.74L112.56,104.83L112.74,104.86"/><path d="M112.56,104.83L114.00,104.67L114.84,104.69L122.00,105.97"/><path d="M122.81,103.12L127.83,103.95L128.09,104.10L128.27,104.42L128.34,104.82L128.33,106.39L128.40,106.79L128.59,107.11L128.84,107.26L136.03,108.55"/><path d="M124.01,110.65L124.07,110.82L124.40,111.40L124.81,111.81L125.27,112.01L125.74,111.99L126.16,111.75L126.48,111.32L126.71,110.70L126.79,109.99L126.71,109.26L126.48,108.54L126.17,108.00L125.75,107.59L125.28,107.40L124.82,107.43L124.40,107.68L124.07,108.13L123.86,108.73L123.79,109.42L123.86,110.14L124.01,110.65"/><path d="M125.03,107.41L124.64,107.65L124.31,108.10L124.10,108.70L124.03,109.39L124.10,110.11L124.31,110.79L124.64,111.36L125.05,111.77L125.51,111.98L125.78,111.97"/><path d="M128.85,113.51L128.80,113.52L128.61,113.76L128.54,114.14L128.53,115.69L128.46,116.06L128.28,116.29L127.78,116.39"/><path d="M136.02,109.08L135.82,109.04L135.77,115.54L135.97,115.59"/><path d="M135.82,109.04L136.02,109.02"/></g></g><g id="Actor_.13"><g style="stroke:#000000;stroke-width:0.123"><path d="M136.08,102.50L112.53,98.89L112.48,98.85L112.44,98.75L112.43,96.02L112.46,95.95L112.55,95.90L114.03,95.79L136.11,98.85"/><path d="M136.11,99.23L136.04,99.39L136.01,102.35L136.08,102.49"/></g></g><g id="Actor_.14"><g style="stroke:#000000;stroke-width:0.123"><path d="M176.17,88.46L176.02,88.45L176.02,88.40L177.19,49.27L178.85,49.17L180.54,49.37L179.30,88.45L177.59,88.57L176.17,88.46"/></g></g><g id="Actor_.15"><g style="stroke:#000000;stroke-width:0.123"><path d="M143.10,41.74L143.15,41.55L143.17,41.37L143.25,35.01L145.09,35.27"/><path d="M143.25,35.01L143.17,35.02"/></g></g><g id="Actor_.16"><g style="stroke:#000000;stroke-width:0.123"><path d="M112.33,60.09L112.26,60.23L112.27,63.02L112.35,63.17"/><path d="M136.44,59.60L112.39,60.08"/><path d="M113.88,63.23L136.41,63.10"/><path d="M136.44,59.61L136.36,59.77L136.33,62.82L136.34,62.94L136.41,63.02"/></g></g><g id="Actor_.17"><g style="stroke:#000000;stroke-width:0.123"><path d="M142.51,91.01L142.58,91.17L142.53,94.17L142.48,94.30"/><path d="M144.33,94.16L142.48,94.32"/><path d="M144.38,90.62L142.52,90.75"/><path d="M186.27,87.75L187.64,87.86L187.73,87.92L187.61,90.61L148.33,93.84"/><path d="M148.50,90.34L176.07,88.45"/><path d="M179.31,88.23L186.28,87.75"/><path d="M187.56,90.63L187.54,90.63"/></g></g><g id="Actor_.18"><g style="stroke:#000000;stroke-width:0.123"><path d="M114.19,133.72L114.33,170.00L112.78,170.51L111.12,169.76L111.09,169.35L110.33,32.74L110.34,32.57L112.04,32.32L113.76,32.52L113.82,32.74L113.92,60.05"/><path d="M113.94,63.23L114.06,95.79"/><path d="M114.11,110.60L114.18,130.11"/><path d="M114.07,99.12L114.09,104.67"/></g></g><g id="Actor_.19"><g style="stroke:#000000;stroke-width:0.123"><path d="M148.38,90.60L148.50,90.58L149.16,46.29L149.05,46.18"/></g></g><g id="Actor_.20"><g style="stroke:#000000;stroke-width:0.123"><path d="M184.25,114.78L184.07,119.73L184.06,119.78L184.01,119.86L183.93,119.90L183.89,119.91L182.75,119.70L182.74,119.97L183.84,120.18L183.95,120.18L184.06,120.15L184.16,120.08L184.23,119.98L184.28,119.86L184.30,119.72L184.47,114.82L184.25,114.78L186.43,114.37L186.65,114.41L186.48,119.26L186.46,119.40L186.41,119.52L186.34,119.62L186.29,119.66L186.19,119.71L183.95,120.18"/><path d="M182.75,119.70L184.09,119.42"/><path d="M184.47,114.82L186.65,114.41"/></g></g><g id="Actor_.21"><g style="stroke:#000000;stroke-width:0.123"><path d="M129.83,63.14L129.66,97.96"/><path d="M129.84,59.73L129.98,30.25L132.73,29.87L132.54,59.68"/><path d="M132.54,98.36L132.77,63.12"/><path d="M132.52,63.13L132.30,98.33"/><path d="M132.79,59.68L132.98,29.90L132.73,29.87"/></g></g><g id="Actor_.22"><g style="stroke:#000000;stroke-width:0.123"><path d="M142.06,129.17L142.13,129.33L142.06,132.31L186.70,122.37L186.77,122.26L186.84,119.80L186.76,119.71L186.33,119.62"/><path d="M145.20,127.85L182.83,119.99"/><path d="M147.70,129.90L147.39,130.17L147.21,130.16L147.08,130.03L147.01,129.59L147.09,129.35L147.31,129.11L147.58,129.09L147.76,129.31L147.80,129.54L147.70,129.90"/><path d="M147.16,130.12L147.42,129.98L147.58,129.71L147.60,129.32L147.43,129.07"/><path d="M184.79,121.20L185.03,120.98L185.15,121.00L185.28,121.18L185.27,121.60L185.12,121.85L184.99,121.92L184.81,121.86L184.74,121.71L184.79,121.20"/><path d="M184.83,121.87L185.02,121.70L185.12,121.44L185.11,121.20L185.00,120.99"/></g></g><g id="Actor_.23"><g style="stroke:#000000;stroke-width:0.123"><path d="M143.32,28.79L143.33,27.89L140.16,27.37L110.26,31.78L110.27,32.57L140.16,28.27L143.32,28.79L143.25,28.80"/><path d="M110.27,32.57L110.33,32.58"/><path d="M113.82,32.55L116.74,32.30L129.98,30.43"/><path d="M117.83,31.62L117.83,32.01L116.65,32.09L116.04,32.04L115.85,31.97L116.47,31.85L116.47,31.81"/><path d="M117.83,32.01L119.80,31.73L119.99,31.65L119.56,31.54L118.61,31.52L116.45,31.82L116.47,31.85"/><path d="M117.60,32.00L117.60,31.65"/><path d="M131.80,29.62L131.66,29.71L132.19,29.83L133.07,29.84L135.51,29.50L135.52,29.46L136.15,29.37L136.27,29.31L135.93,29.21L135.12,29.19L131.80,29.62"/><path d="M132.98,30.01L135.29,29.69L136.69,29.68"/><path d="M135.52,29.46L135.52,29.18"/><path d="M140.16,28.27L140.16,27.37"/></g></g><g id="Actor_.24"><g style="stroke:#000000;stroke-width:0.123"><path d="M185.26,122.69L183.98,163.87L185.36,164.36L186.94,163.75L187.01,162.58L190.75,47.49"/><path d="M186.26,90.74L185.52,114.54"/><path d="M190.81,47.56L189.12,50.17L187.58,50.31L187.51,50.81L186.36,87.76"/><path d="M187.53,50.26L187.53,50.28"/></g></g><g><g><path style="stroke:#000000;stroke-width:0.208;stroke-dasharray:2.2 2.2" d="M139.56,164.25L156.43,170.95"/></g></g><g id="PMI17.0"><g><path style="stroke:#000000;stroke-width:0.281" d="M151.65,107.42L150.23,107.42"/></g><g><path style="fill:#000000" d="M150.23,106.42L150.23,108.42L148.23,107.43z"/></g><g><path style="fill:#ffffff" d="M151.65,109.94L168.20,109.94L168.20,104.86L151.65,104.86z"/><path style="stroke:#000000;stroke-width:0.281;stroke-opacity:0.98" d="M151.65,109.94L168.20,109.94L168.20,104.86L151.65,104.86z"/><text xml:space="preserve" fill="#000000" stroke-width="0" x="152.28" y="108.51" font-size="3.09" opacity="1.00" font-family="Microsoft Sans Serif">3300070J2</text></g></g><g id="PMI15.0"><g><path style="stroke:#000000;stroke-width:0.281" d="M145.16,147.92L143.75,147.93"/></g><g><path style="fill:#000000" d="M143.75,146.92L143.75,148.92L141.75,147.93z"/></g><g><path style="fill:#ffffff" d="M145.17,150.44L162.58,150.44L162.58,145.36L145.17,145.36z"/><path style="stroke:#000000;stroke-width:0.281;stroke-opacity:0.98" d="M145.17,150.44L162.58,150.44L162.58,145.36L145.17,145.36z"/><text xml:space="preserve" fill="#000000" stroke-width="0" x="145.80" y="149.01" font-size="3.09" opacity="1.00" font-family="Microsoft Sans Serif">3300026O5</text></g></g><g id="PMI13.0"><g><path style="stroke:#000000;stroke-width:0.281" d="M164.42,40.54L164.42,42.51"/></g><g><path style="fill:#000000" d="M163.42,42.52L165.42,42.52L164.43,44.52z"/></g><g><path style="fill:#ffffff" d="M155.70,40.55L173.11,40.55L173.11,35.47L155.70,35.47z"/><path style="stroke:#000000;stroke-width:0.281;stroke-opacity:0.98" d="M155.70,40.55L173.11,40.55L173.11,35.47L155.70,35.47z"/><text xml:space="preserve" fill="#000000" stroke-width="0" x="156.33" y="39.12" font-size="3.09" opacity="1.00" font-family="Microsoft Sans Serif">3300025G1</text></g></g><g id="PMI18.0"><g><path style="stroke:#000000;stroke-width:0.281" d="M157.12,166.38L157.13,168.08"/></g><g><path style="fill:#000000" d="M156.13,168.08L158.13,168.06L157.14,170.07z"/></g><g><path style="fill:#ffffff" d="M147.87,166.37L166.33,166.37L166.33,161.29L147.87,161.29z"/><path style="stroke:#000000;stroke-width:0.281;stroke-opacity:0.98" d="M147.87,166.37L166.33,166.37L166.33,161.29L147.87,161.29z"/><text xml:space="preserve" fill="#000000" stroke-width="0" x="148.50" y="164.94" font-size="2.79" opacity="1.00" font-family="Microsoft Sans Serif">8059000104</text></g></g><g id="PMI6.0"><g><path style="stroke:#000000;stroke-width:0.281" d="M182.36,168.32L182.30,165.87"/></g><g><path style="fill:#000000" d="M183.30,165.84L181.30,165.88L182.25,163.86z"/></g><g><path style="fill:#ffffff" d="M174.06,173.39L190.78,173.39L190.78,168.31L174.06,168.31z"/><path style="stroke:#000000;stroke-width:0.281;stroke-opacity:0.98" d="M174.06,173.39L190.78,173.39L190.78,168.31L174.06,168.31z"/><text xml:space="preserve" fill="#000000" stroke-width="0" x="174.69" y="171.96" font-size="2.79" opacity="1.00" font-family="Microsoft Sans Serif">020045152</text></g></g><g id="PMI3.0"><g><path style="stroke:#000000;stroke-width:0.281" d="M191.97,110.10L188.80,110.10L186.98,113.50"/></g><g><path style="fill:#000000" d="M186.09,113.02L187.86,113.97L186.03,115.26z"/></g><g><path style="fill:#ffffff" d="M191.34,112.64L208.92,112.64L208.92,107.56L191.34,107.56z"/><path style="stroke:#000000;stroke-width:0.281;stroke-opacity:0.98" d="M191.34,112.64L208.92,112.64L208.92,107.56L191.34,107.56z"/><text xml:space="preserve" fill="#000000" stroke-width="0" x="191.97" y="111.21" font-size="3.09" opacity="1.00" font-family="Microsoft Sans Serif">0200450M2</text></g></g><g id="PMI11.0"><g><path style="stroke:#000000;stroke-width:0.281" d="M192.96,80.23L191.54,80.20"/></g><g><path style="fill:#000000" d="M191.56,79.20L191.52,81.20L189.54,80.16z"/></g><g><path style="fill:#ffffff" d="M192.96,82.94L210.20,82.94L210.20,77.86L192.96,77.86z"/><path style="stroke:#000000;stroke-width:0.281;stroke-opacity:0.98" d="M192.96,82.94L210.20,82.94L210.20,77.86L192.96,77.86z"/><text xml:space="preserve" fill="#000000" stroke-width="0" x="193.59" y="81.51" font-size="3.09" opacity="1.00" font-family="Microsoft Sans Serif">3300025D2</text></g></g><g id="PMI14.0"><g><path style="stroke:#000000;stroke-width:0.281" d="M173.49,67.26L175.13,67.23"/></g><g><path style="fill:#000000" d="M175.14,68.24L175.10,66.24L177.12,67.20z"/></g><g><path style="fill:#ffffff" d="M156.24,69.98L173.48,69.98L173.48,64.90L156.24,64.90z"/><path style="stroke:#000000;stroke-width:0.281;stroke-opacity:0.98" d="M156.24,69.98L173.48,69.98L173.48,64.90L156.24,64.90z"/><text xml:space="preserve" fill="#000000" stroke-width="0" x="156.87" y="68.55" font-size="3.09" opacity="1.00" font-family="Microsoft Sans Serif">3300025H2</text></g></g><g id="PMI10.0"><g><path style="stroke:#000000;stroke-width:0.281" d="M163.82,131.32L163.86,129.14"/></g><g><path style="fill:#000000" d="M164.86,129.16L162.86,129.12L163.89,127.14z"/></g><g><path style="fill:#ffffff" d="M155.16,136.40L172.40,136.40L172.40,131.32L155.16,131.32z"/><path style="stroke:#000000;stroke-width:0.281;stroke-opacity:0.98" d="M155.16,136.40L172.40,136.40L172.40,131.32L155.16,131.32z"/><text xml:space="preserve" fill="#000000" stroke-width="0" x="155.79" y="134.97" font-size="3.09" opacity="1.00" font-family="Microsoft Sans Serif">3300025C2</text></g></g><g id="PMI2.0"><g><path style="stroke:#000000;stroke-width:0.281" d="M117.04,182.75L120.21,182.75L122.11,177.90"/></g><g><path style="fill:#000000" d="M123.05,178.24L121.19,177.51L122.85,176.01z"/></g><g><path style="fill:#ffffff" d="M100.62,185.27L117.68,185.27L117.68,180.19L100.62,180.19z"/><path style="stroke:#000000;stroke-width:0.281;stroke-opacity:0.98" d="M100.62,185.27L117.68,185.27L117.68,180.19L100.62,180.19z"/><text xml:space="preserve" fill="#000000" stroke-width="0" x="101.25" y="183.84" font-size="3.09" opacity="1.00" font-family="Microsoft Sans Serif">0200450K2</text></g></g><g id="PMI7.0"><g><path style="stroke:#000000;stroke-width:0.281" d="M107.07,71.15L108.69,71.19"/></g><g><path style="fill:#000000" d="M108.68,72.20L108.73,70.20L110.70,71.25z"/></g><g><path style="fill:#ffffff" d="M90.36,73.49L107.08,73.49L107.08,68.41L90.36,68.41z"/><path style="stroke:#000000;stroke-width:0.281;stroke-opacity:0.98" d="M90.36,73.49L107.08,73.49L107.08,68.41L90.36,68.41z"/><text xml:space="preserve" fill="#000000" stroke-width="0" x="90.99" y="72.06" font-size="2.79" opacity="1.00" font-family="Microsoft Sans Serif">330002561</text></g></g><g id="PMI8.0"><g><path style="stroke:#000000;stroke-width:0.281" d="M124.09,145.49L124.17,138.60"/></g><g><path style="fill:#000000" d="M125.18,138.60L123.18,138.58L124.20,136.59z"/></g><g><path style="fill:#ffffff" d="M115.74,146.12L132.46,146.12L132.46,141.04L115.74,141.04z"/><path style="stroke:#000000;stroke-width:0.281;stroke-opacity:0.98" d="M115.74,146.12L132.46,146.12L132.46,141.04L115.74,141.04z"/><text xml:space="preserve" fill="#000000" stroke-width="0" x="116.37" y="144.69" font-size="2.79" opacity="1.00" font-family="Microsoft Sans Serif">330002571</text></g></g><g id="PMI16.0"><g><path style="stroke:#000000;stroke-width:0.281" d="M124.94,119.44L124.98,117.26"/></g><g><path style="fill:#000000" d="M125.98,117.27L123.98,117.24L125.01,115.26z"/></g><g><path style="fill:#ffffff" d="M116.55,124.52L133.27,124.52L133.27,119.44L116.55,119.44z"/><path style="stroke:#000000;stroke-width:0.281;stroke-opacity:0.98" d="M116.55,124.52L133.27,124.52L133.27,119.44L116.55,119.44z"/><text xml:space="preserve" fill="#000000" stroke-width="0" x="117.18" y="123.09" font-size="2.79" opacity="1.00" font-family="Microsoft Sans Serif">330007051</text></g></g><g id="PMI12.0"><g><path style="stroke:#000000;stroke-width:0.281" d="M160.69,86.18L160.67,88.15"/></g><g><path style="fill:#000000" d="M159.67,88.14L161.67,88.16L160.65,90.15z"/></g><g><path style="fill:#ffffff" d="M152.19,86.18L169.26,86.18L169.26,81.10L152.19,81.10z"/><path style="stroke:#000000;stroke-width:0.281;stroke-opacity:0.98" d="M152.19,86.18L169.26,86.18L169.26,81.10L152.19,81.10z"/><text xml:space="preserve" fill="#000000" stroke-width="0" x="152.82" y="84.75" font-size="3.09" opacity="1.00" font-family="Microsoft Sans Serif">3300025E6</text></g></g><g id="PMI1.0"><g><path style="stroke:#000000;stroke-width:0.281" d="M121.01,35.73L120.98,33.28"/></g><g><path style="fill:#000000" d="M121.98,33.28L119.98,33.30L120.96,31.29z"/></g><g><path style="fill:#ffffff" d="M112.77,40.82L129.31,40.82L129.31,35.74L112.77,35.74z"/><path style="stroke:#000000;stroke-width:0.281;stroke-opacity:0.98" d="M112.77,40.82L129.31,40.82L129.31,35.74L112.77,35.74z"/><text xml:space="preserve" fill="#000000" stroke-width="0" x="113.40" y="39.39" font-size="3.09" opacity="1.00" font-family="Microsoft Sans Serif">0200450J2</text></g></g><g id="PMI4.0"><g><path style="stroke:#000000;stroke-width:0.281" d="M145.71,180.33L143.75,180.33"/></g><g><path style="fill:#000000" d="M143.75,179.33L143.75,181.33L141.75,180.33z"/></g><g><path style="fill:#ffffff" d="M145.71,182.84L162.94,182.84L162.94,177.76L145.71,177.76z"/><path style="stroke:#000000;stroke-width:0.281;stroke-opacity:0.98" d="M145.71,182.84L162.94,182.84L162.94,177.76L145.71,177.76z"/><text xml:space="preserve" fill="#000000" stroke-width="0" x="146.34" y="181.41" font-size="3.09" opacity="1.00" font-family="Microsoft Sans Serif">0200450N2</text></g></g><g id="PMI5.0"><g><path style="stroke:#000000;stroke-width:0.281" d="M126.05,80.23L127.86,80.19"/></g><g><path style="fill:#000000" d="M127.89,81.20L127.85,79.20L129.87,80.16z"/></g><g><path style="fill:#ffffff" d="M108.99,82.94L126.05,82.94L126.05,77.86L108.99,77.86z"/><path style="stroke:#000000;stroke-width:0.281;stroke-opacity:0.98" d="M108.99,82.94L126.05,82.94L126.05,77.86L108.99,77.86z"/><text xml:space="preserve" fill="#000000" stroke-width="0" x="109.62" y="81.51" font-size="3.09" opacity="1.00" font-family="Microsoft Sans Serif">0200450P1</text></g></g><g id="PMI9.0"><g><path style="stroke:#000000;stroke-width:0.281" d="M145.16,25.59L145.07,27.93"/></g><g><path style="fill:#000000" d="M144.07,27.90L146.07,27.98L144.99,29.94z"/></g><g><path style="fill:#ffffff" d="M136.80,26.24L153.52,26.24L153.52,21.16L136.80,21.16z"/><path style="stroke:#000000;stroke-width:0.281;stroke-opacity:0.98" d="M136.80,26.24L153.52,26.24L153.52,21.16L136.80,21.16z"/><text xml:space="preserve" fill="#000000" stroke-width="0" x="137.43" y="24.81" font-size="2.79" opacity="1.00" font-family="Microsoft Sans Serif">330002581</text></g></g><g/><g id="paperID" visibility="hidden" opacity="0.00" transform="scale(0.000100)"><path style="stroke:#000000;stroke-width:0.500;fill:#e6e6e6;fill-rule:evenodd" d="M-2000.00,-2000.00L2297.00,-2000.00L2297.00,2210.00L-2000.00,2210.00zM0.00,0.00L297.00,0.00L297.00,210.00L0.00,210.00z"/><path style="fill:#000000;fill-opacity:0.118" d="M3.00,210.00L297.00,210.00L297.00,3.00L300.00,3.00L300.00,213.00L3.00,213.00z"/></g><g id="hotspot.0" onmouseover="ShowHotSpot(evt,'0')" onmouseout="HideHotSpot(evt,'0')" onmousemove="ShowToolTip(evt,'0',&quot;3dp2425846&quot;)" opacity="0"><path style="fill:#00ff00;fill-rule:evenodd" d="M143.29,28.20L143.31,28.79L141.93,28.71L140.29,28.43L136.71,28.97L136.52,29.90L136.00,29.80L130.49,30.32L129.71,30.62L124.02,31.41L121.34,31.94L121.97,33.29L121.34,33.58L121.31,35.56L129.25,35.72L129.25,40.96L112.67,40.96L112.76,35.81L120.88,35.56L120.86,33.58L120.24,33.37L120.29,32.86L120.64,32.28L120.61,31.94L115.92,32.49L110.22,32.57L110.22,31.96L139.41,27.63L140.85,27.63z"/></g><g id="hotspot.1" onmouseover="ShowHotSpot(evt,'1')" onmouseout="HideHotSpot(evt,'1')" onmousemove="ShowToolTip(evt,'1',&quot;3dp2343810&quot;)" opacity="0"><path style="fill:#00ff00;fill-rule:evenodd" d="M184.22,120.26L186.76,119.96L186.75,122.49L164.23,127.54L164.32,128.35L164.66,128.90L164.61,129.22L163.99,129.43L163.97,131.14L172.45,131.30L172.45,136.54L155.06,136.54L155.15,131.39L163.54,131.14L163.51,129.42L162.88,129.14L163.51,127.76L142.18,132.49L142.10,129.14L144.56,128.63L146.16,127.80L182.34,120.24z"/></g><g id="hotspot.2" onmouseover="ShowHotSpot(evt,'2')" onmouseout="HideHotSpot(evt,'2')" onmousemove="ShowToolTip(evt,'2',&quot;3dp2451046&quot;)" opacity="0"><path style="fill:#00ff00;fill-rule:evenodd" d="M189.99,73.62L189.99,80.12L191.36,79.48L191.36,81.17L189.99,80.52L189.72,81.99L187.04,163.55L186.14,164.27L184.57,164.27L183.96,164.06L185.31,122.94L186.75,122.49L186.71,119.98L186.45,119.55L186.48,114.54L185.58,114.69L186.21,93.87L186.39,91.08L187.56,90.63L187.57,88.10L186.38,87.94L187.54,50.65L189.09,50.31L190.81,47.87zM191.77,80.29L192.70,80.10L192.95,77.93L210.25,77.84L210.25,83.08L192.86,83.08L192.70,80.55z"/></g><g id="hotspot.3" onmouseover="ShowHotSpot(evt,'3')" onmouseout="HideHotSpot(evt,'3')" onmousemove="ShowToolTip(evt,'3',&quot;3dp-3-095963&quot;)" opacity="0"><path style="fill:#00ff00;fill-rule:evenodd" d="M152.09,86.32L152.18,81.17L169.21,81.08L169.21,86.32L161.00,86.48L161.03,88.20L161.61,88.38L161.26,89.55L177.03,88.65L178.30,88.66L179.37,88.38L182.88,88.11L187.57,88.10L187.55,90.62L186.95,90.83L160.29,93.06L148.31,93.88L148.58,90.53L160.29,89.58L159.99,88.92L159.93,88.40L160.55,88.19L160.57,86.48zM144.36,94.14L144.04,94.35L142.64,94.42L142.66,91.09L143.46,90.80L144.36,90.79z"/></g><g id="hotspot.4" onmouseover="ShowHotSpot(evt,'4')" onmouseout="HideHotSpot(evt,'4')" onmousemove="ShowToolTip(evt,'4',&quot;3dp2451233&quot;)" opacity="0"><path style="fill:#00ff00;fill-rule:evenodd" d="M173.28,35.70L173.26,40.69L164.51,40.85L164.53,42.56L165.15,42.77L165.20,43.09L164.79,43.83L164.50,44.73L190.56,47.62L190.56,48.23L189.09,50.31L186.75,50.31L181.33,49.79L180.55,49.49L175.95,49.23L149.12,46.63L149.13,43.00L162.18,44.37L164.09,44.46L163.80,43.56L163.47,42.75L164.05,42.57L164.08,40.85L155.60,40.69L155.69,35.54L173.01,35.43zM143.18,42.47L144.91,42.47L144.91,46.09L143.26,46.00z"/></g><g id="hotspot.5" onmouseover="ShowHotSpot(evt,'5')" onmouseout="HideHotSpot(evt,'5')" onmousemove="ShowToolTip(evt,'5',&quot;3dp2621014&quot;)" opacity="0"><path style="fill:#00ff00;fill-rule:evenodd" d="M175.95,66.81L176.49,66.90L176.76,65.25L177.20,49.49L180.55,49.49L179.73,76.59L179.19,88.47L178.30,88.66L177.02,88.66L176.13,88.47L176.49,67.84L176.15,67.81L175.41,68.25L175.41,66.48zM173.69,67.15L174.90,67.32L173.69,67.58L173.53,70.12L156.14,70.12L156.23,64.97L173.53,64.88z"/></g><g id="hotspot.6" onmouseover="ShowHotSpot(evt,'6')" onmouseout="HideHotSpot(evt,'6')" onmousemove="ShowToolTip(evt,'6',&quot;3dp-3-095965&quot;)" opacity="0"><path style="fill:#00ff00;fill-rule:evenodd" d="M143.30,28.97L143.30,29.89L140.21,30.32L140.30,33.85L143.02,34.10L143.01,52.83L142.20,115.76L141.10,115.63L139.41,115.92L139.48,119.18L142.21,119.69L141.84,147.89L142.74,147.60L143.58,147.25L143.58,148.94L142.18,148.27L141.84,148.30L141.39,178.67L139.95,178.55L138.95,178.91L138.69,182.73L137.87,182.63L135.72,181.53L135.72,151.11L136.70,28.97L140.29,28.43zM162.75,145.59L162.73,150.58L145.07,150.58L144.91,148.32L143.98,148.06L144.91,147.87L145.16,145.43L162.48,145.32zM141.15,142.07L141.13,143.30L140.89,143.62L140.29,143.79L139.96,143.55L140.04,142.20L140.49,141.81L140.86,141.79z"/></g><g id="hotspot.7" onmouseover="ShowHotSpot(evt,'7')" onmouseout="HideHotSpot(evt,'7')" onmousemove="ShowToolTip(evt,'7',&quot;3dp2871594&quot;)" opacity="0"><path style="fill:#00ff00;fill-rule:evenodd" d="M127.91,104.02L128.43,104.31L128.70,107.01L128.97,107.28L136.00,108.62L135.99,115.76L135.71,115.13L129.49,113.75L128.69,113.83L128.43,116.28L128.09,116.51L125.38,116.16L125.78,117.02L125.73,117.34L125.11,117.55L125.09,119.26L133.30,119.42L133.30,124.66L116.45,124.66L116.54,119.51L124.66,119.26L124.63,117.54L124.00,117.26L124.63,115.91L122.76,115.38L122.49,115.11L122.24,112.66L121.42,112.13L114.93,110.79L112.68,110.90L112.69,105.13L113.49,104.85L114.93,104.85L122.22,106.04L122.41,103.50L123.04,103.25zM126.28,108.35L126.82,109.99L126.55,111.43L126.18,111.87L124.92,111.87L124.36,111.08L124.00,109.18L124.58,107.83L125.22,107.55z"/></g><g id="hotspot.8" onmouseover="ShowHotSpot(evt,'8')" onmouseout="HideHotSpot(evt,'8')" onmousemove="ShowToolTip(evt,'8',&quot;3dp2718795&quot;)" opacity="0"><path style="fill:#00ff00;fill-rule:evenodd" d="M149.23,29.51L148.59,74.07L148.32,107.39L149.22,107.10L150.06,106.75L150.06,108.44L148.66,107.77L148.32,107.80L148.14,109.80L147.86,120.32L147.26,120.54L146.26,120.52L144.37,117.53L144.36,95.49L145.16,33.11L147.74,29.26zM150.46,107.56L151.39,107.37L151.64,104.93L168.13,104.84L168.13,110.08L151.55,110.08L151.39,107.82z"/></g><g id="hotspot.9" onmouseover="ShowHotSpot(evt,'9')" onmouseout="HideHotSpot(evt,'9')" onmousemove="ShowToolTip(evt,'9',&quot;3dp739677&quot;)" opacity="0"><path style="fill:#00ff00;fill-rule:evenodd" d="M141.15,142.07L141.13,143.30L140.89,143.62L140.29,143.79L139.96,143.55L140.04,142.20L140.49,141.81L140.86,141.79zM166.53,161.52L166.51,166.51L157.22,166.67L157.24,168.11L157.86,168.32L157.91,168.64L157.08,170.03L156.18,168.30L156.76,168.12L156.79,166.67L147.77,166.51L147.86,161.36L166.26,161.25zM157.62,170.43L157.89,170.70L157.88,171.91L157.49,172.37L156.81,172.35L155.14,171.26L155.11,170.53L155.35,170.18z"/></g><g id="hotspot.10" onmouseover="ShowHotSpot(evt,'10')" onmouseout="HideHotSpot(evt,'10')" onmousemove="ShowToolTip(evt,'10',&quot;3dp2425847&quot;)" opacity="0"><path style="fill:#00ff00;fill-rule:evenodd" d="M112.22,170.48L113.51,170.48L114.29,170.19L116.01,170.19L117.37,170.45L121.70,172.60L121.87,173.51L130.58,177.50L133.03,177.47L135.45,178.56L135.72,181.53L137.87,182.62L139.14,182.91L139.66,182.60L140.86,182.60L139.15,183.44L138.14,183.44L123.31,176.37L122.86,176.31L120.60,175.05L111.05,170.52L111.14,169.90zM123.07,178.36L121.37,177.73L121.33,177.49L122.86,176.31zM117.80,182.71L120.27,182.64L120.44,182.54L120.34,182.98L117.80,183.14L117.64,185.41L100.52,185.41L100.61,180.26L117.64,180.17zM134.38,179.66L133.50,179.66L133.21,179.34L133.83,179.34z"/></g><g id="hotspot.11" onmouseover="ShowHotSpot(evt,'11')" onmouseout="HideHotSpot(evt,'11')" onmousemove="ShowToolTip(evt,'11',&quot;3dp2473141&quot;)" opacity="0"><path style="fill:#00ff00;fill-rule:evenodd" d="M144.91,35.45L144.91,42.31L143.18,42.31L143.19,35.17zM188.80,110.25L191.08,110.08L191.33,107.63L208.90,107.54L208.90,112.78L191.24,112.78L191.08,110.51zM187.58,114.07L187.58,114.35L186.75,114.93L186.51,119.55L185.40,120.06L183.50,120.27L182.87,119.97L184.05,119.52L184.23,115.11L184.75,114.82L185.95,114.67L186.21,113.19zM145.19,128.18L144.36,128.70L142.10,128.98L142.12,122.95L144.28,122.40L145.17,122.38z"/></g><g id="hotspot.12" onmouseover="ShowHotSpot(evt,'12')" onmouseout="HideHotSpot(evt,'12')" onmousemove="ShowToolTip(evt,'12',&quot;3dp2457709&quot;)" opacity="0"><path style="fill:#00ff00;fill-rule:evenodd" d="M141.93,179.10L142.20,180.30L143.57,179.65L143.57,181.34L142.20,180.70L141.84,182.91L141.39,182.91L140.86,182.59L139.67,182.59L138.96,183.00L138.95,178.91L139.95,178.55L140.85,178.54zM143.97,180.45L145.45,180.28L145.70,177.83L163.00,177.74L163.00,182.98L145.61,182.98L145.45,180.71z"/></g><g id="hotspot.13" onmouseover="ShowHotSpot(evt,'13')" onmouseout="HideHotSpot(evt,'13')" onmousemove="ShowToolTip(evt,'13',&quot;3dp2425259&quot;)" opacity="0"><path style="fill:#00ff00;fill-rule:evenodd" d="M132.76,59.86L129.95,59.86L129.96,30.60L130.48,30.31L133.03,30.05zM129.25,80.05L129.78,80.12L129.95,63.26L132.76,63.26L132.47,98.49L129.77,98.11L129.78,80.53L129.44,80.50L128.16,81.20L128.16,79.45zM126.17,80.11L127.65,80.28L126.17,80.54L126.01,83.08L108.89,83.08L108.98,77.93L126.01,77.84z"/></g><g id="hotspot.14" onmouseover="ShowHotSpot(evt,'14')" onmouseout="HideHotSpot(evt,'14')" onmousemove="ShowToolTip(evt,'14',&quot;3dp2451037&quot;)" opacity="0"><path style="fill:#00ff00;fill-rule:evenodd" d="M184.06,162.84L183.96,164.06L184.57,164.27L186.14,164.27L187.06,163.69L187.33,163.95L187.33,164.35L185.85,165.09L185.13,165.09L182.56,164.28L183.26,165.86L182.63,166.15L182.60,168.13L190.81,168.29L190.81,173.53L173.96,173.53L174.05,168.38L182.17,168.13L182.15,166.15L181.53,165.94L181.58,165.43L182.17,164.21L181.52,163.77L181.50,163.19L182.40,162.96L182.64,162.66L183.83,162.62z"/></g><g id="hotspot.15" onmouseover="ShowHotSpot(evt,'15')" onmouseout="HideHotSpot(evt,'15')" onmousemove="ShowToolTip(evt,'15',&quot;3dp2425261&quot;)" opacity="0"><path style="fill:#00ff00;fill-rule:evenodd" d="M113.86,32.75L113.86,60.13L112.40,60.29L112.40,63.37L113.86,63.53L113.78,95.96L112.40,96.20L112.40,99.01L113.61,99.15L113.88,99.42L114.12,101.34L114.11,104.66L112.69,105.13L112.68,110.90L114.12,110.77L114.13,130.33L112.75,130.57L112.75,133.49L113.88,133.71L114.15,133.98L114.11,170.27L113.51,170.48L112.22,170.47L111.15,169.92L110.61,74.88L110.37,71.65L108.99,72.29L108.99,70.54L110.37,71.18L110.51,32.75L112.48,32.48zM107.26,71.20L108.48,71.37L107.27,71.63L107.11,73.63L90.26,73.63L90.35,68.48L107.11,68.39z"/></g><g id="hotspot.16" onmouseover="ShowHotSpot(evt,'16')" onmouseout="HideHotSpot(evt,'16')" onmousemove="ShowToolTip(evt,'16',&quot;3dp2425258&quot;)" opacity="0"><path style="fill:#00ff00;fill-rule:evenodd" d="M136.27,63.10L127.53,63.27L112.40,63.37L112.40,60.29L136.27,59.75zM135.47,98.89L135.99,99.18L136.00,102.52L133.02,102.15L112.40,99.01L112.40,96.20L114.10,95.93zM134.64,136.17L135.75,136.68L135.71,140.34L134.90,140.24L125.17,137.22L124.55,137.24L124.61,137.78L124.97,138.35L124.92,138.67L124.30,138.88L124.28,140.86L132.49,141.02L132.49,146.26L115.64,146.26L115.73,141.11L123.85,140.86L123.82,138.88L123.19,138.59L123.89,136.96L123.60,136.69L112.76,133.48L112.76,130.58L114.93,130.50z"/></g><g id="hotspot.17" onmouseover="ShowHotSpot(evt,'17')" onmouseout="HideHotSpot(evt,'17')" onmousemove="ShowToolTip(evt,'17',&quot;3dp2329860&quot;)" opacity="0"><path style="fill:#00ff00;fill-rule:evenodd" d="M136.70,26.38L136.79,21.23L153.55,21.14L153.55,26.38L145.34,26.54L145.37,27.99L145.95,28.17L145.60,29.34L147.32,29.49L144.90,33.66L143.46,33.84L140.30,33.85L140.21,30.32L144.65,29.61L144.68,29.27L144.32,28.70L144.27,28.19L144.89,27.98L144.91,26.54zM143.85,116.16L144.12,116.43L144.37,117.53L146.26,120.53L145.73,120.54L139.48,119.18L139.41,115.92L141.10,115.64z"/></g></g></svg>
