<?xml version="1.0" encoding="UTF-8" standalone="no"?>
<svg xmlns="http://www.w3.org/2000/svg" xmlns:xlink="http://www.w3.org/1999/xlink" width="297.000mm" height="210.000mm" viewBox="0.000000 0.000000 297.000000 210.000000" stroke-linejoin="round" stroke-linecap="round" fill="none" fill-rule="evenodd"><desc>Composer Export</desc><script type="text/ecmascript"><![CDATA[
if(typeof(top) != "undefined")
{
	top.ShowPaper = ShowPaper;
}
function ShowHotSpot(evt,hotspotid)
{
	var svgDocument = evt.target.ownerDocument;
	var strId = "hotspot."+hotspotid;
	var hotspot = svgDocument.getElementById(strId);
	if(hotspot)
		hotspot.setAttribute("opacity",".5");
}
function HideHotSpot(evt,hotspotid)
{
	var svgDocument = evt.target.ownerDocument;
	var strId = "hotspot."+hotspotid;
	var hotspot = svgDocument.getElementById(strId);
	if(hotspot)
		hotspot.setAttribute("opacity","0");

	var toolTip = svgDocument.getElementById('ToolTip');
	if(toolTip)
		toolTip.setAttribute("visibility","hidden");
}
function ShowToolTip(evt,hotspotid,strTooltip)
{
	if(strTooltip=="")
	return;

	// change text
	var svgDocument = evt.target.ownerDocument;
	var tiptext = svgDocument.getElementById('ToolTipText');
	if( !tiptext )
	return;
	tiptext.firstChild.nodeValue = " " + strTooltip + "  " ;

	// show tooltip before, else some refresh issue

	var toolTip = svgDocument.getElementById('ToolTip');
	if(!toolTip)
	return;

	toolTip.setAttribute("visibility","visible");
	toolTip.setAttribute("opacity",".95");

	// move tooltip
	// get viewbox

	var root = svgDocument.documentElement;
	var vbox = (root.getAttribute("viewBox")).split(' ');
	var x0 = parseFloat(vbox[0]);
	var y0 = parseFloat(vbox[1]);
	var vboxW = parseFloat(vbox[2]);
	var vboxH = parseFloat(vbox[3]);

	// get default width of svg

	var strW = root.getAttribute("width");
	var svgW = parseFloat(strW);
	if(strW.indexOf('mm') != -1)
	svgW *= 3.779;

	var strH = root.getAttribute("height");
	var svgH = parseFloat(strH);
	if(strH.indexOf('mm') != -1)
	svgH *= 3.779;  	// 96 dpi  -> 96/25.4 = 3.779

	// update the viewbox / width / height if svg is embedded in html with zoom fit all
	var realx0 = x0;
	var realy0 = y0;
	var realvboxW = vboxW;
	var realvboxH = vboxH;
	var realsvgW = svgW;
	var realsvgH = svgH;

	if ((typeof(top) == "undefined") || (typeof(top.svgctl1) != "undefined")) // embedded in html
	{
		// get window size in pxl

		svgW = window.innerWidth;
		svgH = window.innerHeight;

		// calculate real viewbox

		realsvgW = svgW;
		realsvgH = svgH;
		if((svgW / svgH) > (vboxW / vboxH))
		{
			realvboxW = (vboxH * svgW) / svgH;
			realvboxH = vboxH;
			realx0 = x0 - (realvboxW - vboxW)/2 ;
		}
		else
		{
			realvboxH = (vboxW * svgH) / svgW;
			realvboxW = vboxW;
			realy0 = y0 - (realvboxH - vboxH)/2 ;
		}
	}

	// get user zoom/pan

	var newScale = root.currentScale;
	var translation = root.currentTranslate;

	// transform pxl to user unit

	var xPos = (((evt.clientX+10- translation.x)/newScale) * realvboxW)/realsvgW  + realx0 ;
	var yPos = (((evt.clientY+5- translation.y)/newScale) * realvboxH)/ realsvgH  + realy0 ;
	var scaleForWidth = ( (1 / newScale) * realvboxH) / realsvgH;

	// move tooltip

	toolTip.setAttribute("transform", "translate(" + xPos + "," + yPos + ")" );

	// resize tooltip

	var fontsize = 12;
	tiptext.setAttribute("font-size",fontsize*scaleForWidth);
	tiptext.setAttribute("y", fontsize*scaleForWidth);
	var tipBG = svgDocument.getElementById('ToolTipBG');
	var outline = tiptext.getBBox();
	if(tipBG)
	{
		tipBG.setAttribute("stroke-width", 1*scaleForWidth);
		tipBG.setAttribute("width", Number(outline.width) );
		tipBG.setAttribute("height", Number(outline.height) + fontsize*.5*scaleForWidth );
	}
	var ToolTipShadow = svgDocument.getElementById('ToolTipShadow');
	if(ToolTipShadow)
	{
		ToolTipShadow.setAttribute("width", Number(outline.width) );
		ToolTipShadow.setAttribute("height", Number(outline.height) + fontsize*.5*scaleForWidth );
		ToolTipShadow.setAttribute("x", 3*scaleForWidth);
		ToolTipShadow.setAttribute("y", 3*scaleForWidth);
	}
}
function ShowPaper()
{
  var svgDocument = getDocument();
  var paper = svgDocument.getElementById("paperID");
  if(paper)
  {
    paper.setAttribute("transform","scale(1)");
    paper.setAttribute("opacity","1");
    paper.setAttribute("visibility","visible");
  }
  var svg = svgDocument.getRootElement();
  if(svg)
  {
    svg.setAttribute("width","307.000mm");
    svg.setAttribute("height","220.000mm");
    svg.setAttribute("viewBox","-5.000000 -5.000000 307.000000 220.000000");
  }
}
]]></script><defs/><g><path style="fill:#ffffff" d="M296.92,209.95L0.08,209.95L0.08,0.08L296.92,0.08z"/><path style="fill:#e1e1e1" d="M139.69,91.88L141.55,94.33L161.74,99.47L159.12,99.95L119.63,105.89L119.09,106.20L119.29,107.93L118.64,107.83L103.58,101.60L102.78,100.24L102.03,99.97L100.08,96.49L95.46,87.59L95.39,87.07L131.76,83.03L133.73,83.03z"/><path style="fill:#e1e1e1" d="M210.19,108.24L209.86,108.33L209.90,108.60L210.30,108.72L214.34,109.06L211.93,109.93L211.64,109.81L210.00,109.67L208.59,108.88L207.66,108.66L207.65,108.36L210.28,107.98z"/><path style="fill:#cacaca" d="M209.86,108.33L210.19,108.24L210.30,108.72L209.90,108.60z"/><path style="fill:#5f5f5f" d="M189.50,168.35L193.34,170.36L237.96,155.33L237.79,155.70L237.13,156.07L194.78,170.54L191.53,170.52L192.14,170.82L193.78,171.07L195.32,171.08L236.53,157.03L236.88,157.07L236.78,157.87L196.19,171.96L195.50,172.61L194.68,172.80L194.13,172.93L192.42,172.71L189.20,171.08L146.66,145.77L146.40,144.14L145.92,143.32L146.11,143.35z"/><path style="fill:#ff8080" d="M137.48,94.36L138.30,94.89L150.69,98.11L152.70,98.81L149.81,98.91L148.69,99.21L148.68,99.51L151.61,99.69L139.21,101.58L138.31,101.33L136.04,101.32L135.53,101.61L136.25,101.99L135.82,102.15L125.03,103.76L123.88,103.75L124.62,103.54L124.63,103.25L120.97,103.20L120.42,103.53L120.41,103.83L123.32,103.98L121.53,104.30L120.25,104.31L106.02,98.89L101.12,89.75L101.04,89.22L106.37,88.54L129.79,85.85L131.60,85.69z"/><path style="fill:#e1e1e1" d="M134.89,69.25L135.91,69.57L134.10,69.79L133.10,69.30L133.62,69.00L134.62,68.98z"/><path style="fill:#e1e1e1" d="M151.32,107.41L150.90,107.38L150.66,107.03L150.52,105.59L150.77,105.30L151.05,105.36z"/><path style="fill:#e1e1e1" d="M123.04,112.25L122.61,112.24L122.51,110.17L122.77,109.88L123.06,109.93z"/><path style="fill:#e1e1e1" d="M243.63,151.93L239.37,153.53L238.65,153.55L192.91,168.90L193.34,170.36L189.50,168.35L146.11,143.35L145.92,143.32L145.32,142.79L144.80,141.70L141.78,140.07L141.73,139.84L184.82,129.59L185.43,129.58z"/><path style="fill:#ff80c1" d="M232.59,150.92L232.59,151.21L215.24,156.81L213.25,157.26L213.99,156.85L214.00,156.58L212.65,155.44L210.67,155.16L210.05,155.44L209.34,155.54L209.50,155.97L209.90,156.29L211.30,156.52L212.35,157.09L213.25,157.26L213.12,157.39L194.23,163.57L193.51,163.56L150.41,140.36L150.40,139.93L183.19,132.03L184.91,132.02z"/><path style="fill:#000000" d="M102.78,100.24L103.58,101.60L118.64,107.83L119.29,107.93L158.34,101.85L157.90,104.04L154.84,104.69L151.60,105.21L151.31,105.34L151.05,105.36L150.77,105.30L149.98,105.48L123.60,109.79L123.32,109.91L123.06,109.93L122.77,109.88L121.98,110.06L118.91,109.97L103.86,103.47L102.22,100.53L102.03,99.97z"/><path style="fill:#ffffff" d="M131.89,87.29L132.39,88.27L131.79,88.98L130.22,88.96L129.17,88.40L128.90,88.14L128.80,87.07L129.32,86.77L131.06,86.78z"/><path style="fill:#ffffff" d="M106.52,90.31L106.84,90.83L106.84,91.46L106.45,91.91L103.82,91.93L103.00,91.11L102.99,90.37L103.74,89.74L105.48,89.74z"/><path style="fill:#ffffff" d="M152.88,99.16L152.44,99.45L151.61,99.69L148.68,99.51L148.69,99.21L149.81,98.91L152.70,98.81z"/><path style="fill:#ffffff" d="M124.63,103.25L124.62,103.54L123.88,103.75L123.32,103.98L120.41,103.83L120.42,103.53L120.97,103.20z"/><path style="fill:#ffffff" d="M185.18,132.82L185.71,133.12L185.64,133.92L184.54,134.19L181.92,134.20L180.75,133.72L180.98,133.06L181.29,132.82L183.81,132.56z"/><path style="fill:#ffffff" d="M158.29,139.83L158.25,140.45L157.35,140.93L153.37,140.94L152.84,140.63L152.80,140.19L153.56,139.56L154.65,139.30L157.16,139.30z"/><path style="fill:#ffffff" d="M227.72,149.79L229.33,150.85L229.05,151.49L227.90,151.97L225.28,151.96L223.92,151.70L222.86,151.14L222.85,150.16L223.30,149.79L224.39,149.54L226.36,149.54z"/><path style="fill:#ffffff" d="M196.75,159.49L198.12,160.28L198.11,161.21L197.21,161.94L192.96,161.94L191.35,161.11L191.35,160.13L192.34,159.49L193.42,159.23L195.66,159.23z"/><path style="fill:#a0a7ab" d="M150.52,105.59L149.98,105.48L150.77,105.30z"/><path style="fill:#a0a7ab" d="M122.51,110.17L121.98,110.06L122.77,109.88z"/><path style="fill:#d0d0ff" d="M212.65,155.44L214.00,156.58L213.99,156.85L213.25,157.26L212.35,157.09L211.30,156.52L209.90,156.29L209.50,155.97L210.03,155.63L210.05,155.44L210.67,155.16z"/><path style="fill:#b2b9be" d="M136.25,69.13L134.89,69.25L134.62,68.98L136.25,69.00z"/><path style="fill:#b2b9be" d="M139.21,101.58L136.25,101.99L135.53,101.61L136.04,101.32L138.31,101.33z"/><path style="fill:#b2b9be" d="M212.64,108.33L214.34,109.06L210.30,108.72L210.19,108.24L210.28,107.98z"/><path style="fill:#555555" d="M237.41,156.38L237.31,158.15L226.41,162.11L225.12,162.45L204.20,169.73L195.50,172.61L196.19,171.96L236.78,157.87L236.88,157.07L236.53,157.03L195.32,171.08L193.78,171.07L192.14,170.82L191.53,170.52L194.78,170.54L237.13,156.07L237.79,155.70z"/><path style="fill:#555555" d="M195.42,172.87L194.68,172.80L195.50,172.61z"/><path style="fill:#cacaca" d="M134.89,69.25L136.25,69.13L137.34,69.26L136.88,69.83L134.10,69.79L135.91,69.57z"/><path style="fill:#cacaca" d="M151.49,107.37L151.32,107.41L151.05,105.36L151.31,105.34z"/><path style="fill:#cacaca" d="M119.09,106.20L119.63,105.89L159.12,99.95L159.06,101.69L158.34,101.85L119.29,107.93z"/><path style="fill:#cacaca" d="M216.41,108.96L215.23,109.41L214.69,109.95L211.93,109.93L214.34,109.06L216.25,108.72z"/><path style="fill:#cacaca" d="M123.51,111.99L123.04,112.25L123.06,109.93L123.32,109.91z"/><path style="fill:#cacaca" d="M192.91,168.90L238.65,153.55L239.37,153.53L239.29,154.74L237.96,155.33L193.34,170.36z"/><path style="fill:#ff8080" d="M154.75,99.19L153.57,99.45L152.44,99.45L152.88,99.16L152.70,98.81z"/><path style="fill:#e1e1e1" d="M137.34,69.26L136.25,69.13L136.25,69.00L138.07,69.02z"/><path style="fill:#e1e1e1" d="M131.06,87.62L131.06,88.23L130.20,88.18L129.85,87.93L129.86,87.62L130.54,87.33z"/><path style="fill:#e1e1e1" d="M104.02,90.55L105.50,90.58L105.49,91.19L104.38,91.10z"/><path style="fill:#e1e1e1" d="M216.25,108.72L214.34,109.06L212.64,108.33L210.28,107.98L210.41,107.80L212.63,107.80z"/><path style="fill:#e1e1e1" d="M184.13,133.44L182.34,133.44L182.34,133.13L184.13,133.13z"/><path style="fill:#e1e1e1" d="M156.39,139.88L156.39,140.18L154.60,140.17L154.62,139.88L155.82,139.54z"/><path style="fill:#e1e1e1" d="M226.97,150.61L226.93,150.96L224.98,150.87L224.90,150.35L226.67,150.31z"/><path style="fill:#e1e1e1" d="M210.03,155.63L209.50,155.97L209.34,155.54L210.05,155.44z"/><path style="fill:#e1e1e1" d="M195.95,160.32L195.88,160.83L193.67,160.93L193.76,160.11L195.42,160.01z"/><path style="fill:#e1e1e1" d="M226.38,162.54L225.12,162.45L226.41,162.11z"/><path style="fill:#e1e1e1" d="M194.13,172.93L194.68,172.80L195.42,172.87L195.33,173.24L194.32,173.22z"/><g id="Actor_.0"><g style="stroke:#000000;stroke-width:0.018"><path d="M193.20,170.30L239.27,154.66"/><path d="M192.74,168.82L243.73,151.72"/><path d="M193.19,168.86L239.31,153.36"/><path d="M192.86,167.93L242.56,151.36"/><path d="M193.06,166.94L240.48,151.24"/><path d="M240.54,151.31L193.06,167.05"/><path d="M193.44,165.22L236.61,151.10"/><path d="M193.44,165.12L236.54,151.02"/><path d="M234.63,156.25L193.66,170.16"/></g><g style="stroke:#000000;stroke-width:0.123"><path d="M193.66,170.16L193.21,170.31L193.19,168.86L192.74,169.01L192.74,168.82L192.86,167.93L193.76,163.58L233.16,150.84L236.52,151.02L236.62,151.09L236.78,151.04L240.46,151.24L240.56,151.31L240.72,151.25L242.56,151.36L243.73,151.72L243.72,151.88L239.31,153.36L239.27,154.66L239.24,154.68L234.63,156.25"/></g></g><g id="Actor_.1"><g style="stroke:#000000;stroke-width:0.018"><path d="M141.60,139.64L192.74,168.82L192.86,167.93L193.03,167.09L192.42,166.72L144.00,139.57"/><path d="M142.48,139.43L192.86,167.93"/><path d="M193.05,167.05L193.06,166.94L144.07,139.51"/><path d="M148.71,144.64L193.18,170.30L145.06,142.52"/><path d="M145.06,142.54L145.08,142.55"/><path d="M145.02,141.73L192.74,169.01L192.74,168.82"/><path d="M147.10,139.66L193.43,165.11L193.44,165.22"/><path d="M147.03,139.71L193.42,165.23L193.06,166.94"/><path d="M193.20,170.30L193.19,168.86"/><path d="M193.44,165.12L193.76,163.58"/></g><g style="stroke:#000000;stroke-width:0.123"><path d="M148.71,144.64L145.09,142.55L145.02,141.73L141.61,139.78L141.60,139.64L142.48,139.43L143.88,139.50L144.00,139.57L144.09,139.51L146.91,139.65L147.03,139.71L147.13,139.66L149.74,139.78L193.76,163.59"/></g></g><g id="Actor_.2"><g style="stroke:#000000;stroke-width:0.018"><path d="M213.25,156.04L213.25,155.60L213.21,155.49L213.12,155.37L212.99,155.26L212.83,155.15L212.63,155.05L212.40,154.97L212.14,154.89L211.86,154.83L211.57,154.79L211.28,154.76L210.98,154.75L210.68,154.75L210.40,154.78L210.13,154.82L209.88,154.87L209.67,154.94L209.48,155.02L209.33,155.11L209.22,155.21L209.15,155.32L209.13,155.44L209.14,155.56L209.17,155.61"/><path d="M213.25,155.72L214.65,156.36L214.71,156.39L214.74,156.44L214.74,156.48L214.71,156.51L214.65,156.55L214.65,156.36"/><path d="M214.49,156.60L214.65,156.55"/></g><g style="stroke:#000000;stroke-width:0.123"><path d="M209.20,155.67L209.31,155.79L209.45,155.90L209.64,156.00L209.85,156.10L210.10,156.18L210.20,156.21L210.37,156.25L210.65,156.30L210.95,156.34L211.26,156.36L212.64,157.00L212.73,157.03L212.83,157.05L212.94,157.06L213.05,157.05L213.14,157.03L214.49,156.60L213.25,156.04L213.25,155.92L213.21,155.80L213.12,155.68L212.99,155.57L212.83,155.46L212.62,155.37L212.39,155.28L212.14,155.21L211.86,155.15L211.57,155.10L211.27,155.07L210.97,155.06L210.68,155.07L210.40,155.09L210.13,155.13L209.88,155.18L209.67,155.25L209.48,155.33L209.33,155.42L209.22,155.53L209.17,155.61L209.20,155.67"/></g></g><g id="Actor_.3"><g style="stroke:#000000;stroke-width:0.018"><path d="M214.49,156.60L213.25,156.04L213.25,156.51L213.25,156.39L213.20,156.27L213.12,156.15L212.99,156.04L212.82,155.93L212.62,155.83L212.39,155.75L212.29,155.72L212.13,155.67L211.86,155.61L211.57,155.57L211.27,155.54L210.97,155.53L210.68,155.53L210.39,155.55L210.13,155.59L209.88,155.65L209.66,155.72L209.48,155.80L209.39,155.85"/><path d="M213.25,156.04L213.25,155.92L213.21,155.80L213.12,155.68L212.99,155.57L212.83,155.46L212.62,155.37L212.39,155.28L212.29,155.25L212.14,155.21L211.86,155.15L211.57,155.10L211.27,155.07L210.97,155.06L210.68,155.07L210.40,155.09L210.13,155.13L209.88,155.18L209.67,155.25L209.48,155.33L209.33,155.42L209.22,155.53L209.17,155.61"/><path d="M213.25,156.51L213.88,156.79"/></g></g><g id="Actor_.4"><g style="stroke:#000000;stroke-width:0.018"><path d="M146.36,144.01L146.50,144.10L146.38,143.81L146.60,143.43"/><path d="M146.26,143.92L146.24,143.89"/><path d="M195.73,172.49L195.80,172.12L195.59,171.00L194.66,171.21L193.59,171.24L192.54,171.10L191.65,170.80L146.88,144.66L146.71,145.50L146.80,145.80"/><path d="M146.89,144.57L146.84,144.40L146.62,144.22L146.65,144.46L146.88,144.66L146.89,144.57"/><path d="M237.53,156.04L236.95,156.35L195.93,170.37L195.65,170.61L194.33,170.85L193.21,170.83L192.16,170.63L191.32,170.27L146.83,144.37L146.50,144.10L190.98,169.99L190.86,169.63L190.95,169.33L191.13,169.12"/><path d="M146.62,144.22L146.64,144.24"/><path d="M146.60,144.21L146.61,144.27"/><path d="M146.63,144.26L146.61,144.21"/><path d="M195.76,169.44L195.95,169.71L196.03,170.02L195.93,170.37L194.91,170.60L193.75,170.66L192.97,170.60L191.87,170.37L190.98,169.99L191.41,170.44L191.17,171.75L191.26,172.13"/><path d="M236.66,158.29L236.74,157.95L236.55,156.94L237.07,156.66L237.22,156.43L237.18,156.29L236.64,156.58L236.55,156.94L195.59,171.00L195.65,170.61L236.64,156.58L237.06,156.15L237.01,155.78L236.80,155.51"/><path d="M237.22,156.26L237.24,156.25"/><path d="M237.21,156.27L237.21,156.27"/></g><g style="stroke:#000000;stroke-width:0.123"><path d="M146.07,143.12L146.03,143.38L146.12,143.74L146.57,144.18L146.40,144.99L146.43,145.39L146.80,145.80L191.26,172.13L192.17,172.52L193.23,172.72L194.71,172.72L195.68,172.50L236.66,158.29L237.20,157.99L237.45,157.64L237.50,157.24L237.24,156.25L237.81,155.70L237.90,155.14"/></g></g><g id="Actor_.5"><g style="stroke:#000000;stroke-width:0.018"><path d="M142.48,139.43L143.88,139.50L184.92,129.82L184.92,129.88"/><path d="M144.00,139.57L144.08,139.51L146.92,139.65L184.57,130.69L184.56,130.75"/><path d="M144.07,139.51L184.90,129.87L184.57,130.69"/><path d="M147.04,139.72L147.11,139.66L149.74,139.79L184.23,131.52L184.23,131.64L149.91,139.88"/><path d="M147.10,139.66L184.54,130.75L184.23,131.52"/><path d="M184.92,129.82L185.08,129.42"/></g><g style="stroke:#000000;stroke-width:0.123"><path d="M185.19,129.39L141.60,139.64L141.61,139.78"/><path d="M145.07,142.54L145.02,141.73"/></g></g><g id="Actor_.6"><g style="stroke:#000000;stroke-width:0.018"><path d="M184.23,131.52L233.16,150.84L236.52,151.02L236.61,151.10"/><path d="M232.95,150.91L184.81,131.87"/><path d="M184.92,129.88L240.48,151.24L236.78,151.04L184.57,130.69"/><path d="M236.54,151.02L184.56,130.75"/><path d="M184.92,129.82L240.72,151.26L242.56,151.36L185.08,129.42"/><path d="M240.48,151.24L240.54,151.31"/><path d="M242.56,151.36L243.73,151.72"/></g><g style="stroke:#000000;stroke-width:0.123"><path d="M184.81,131.87L184.25,131.65L184.23,131.52L185.08,129.42L185.19,129.39L243.73,151.72L243.72,151.88"/><path d="M239.24,154.68L239.31,153.36"/></g></g><g id="Actor_.7"><g style="stroke:#000000;stroke-width:0.018"><path d="M216.53,108.60L212.62,109.38L207.66,108.20"/><path d="M208.59,108.35L208.29,108.32L208.11,108.27L208.04,108.22L208.09,108.16L208.11,108.15L208.26,108.11L208.51,108.08L208.59,108.35L208.72,108.35L208.82,108.35L209.07,108.32L209.24,108.28L209.29,108.22L209.22,108.16L209.04,108.11L208.79,108.08L208.51,108.08"/><path d="M209.39,108.96L212.62,109.73L212.62,109.38"/><path d="M209.78,108.15L209.71,108.25L209.77,108.35L209.95,108.45L210.24,108.53L210.63,108.60L211.08,108.64L211.71,108.66L211.83,108.68L213.03,108.96L213.19,108.99L213.38,108.99L213.54,108.97L214.58,108.76L214.68,108.73L214.68,108.69L214.59,108.65L213.39,108.37L213.31,108.34L213.29,108.31L213.26,108.21L213.10,108.11L212.84,108.02L212.47,107.95L212.04,107.91L211.57,107.88L211.10,107.89L210.65,107.92L210.27,107.98L209.97,108.06L209.78,108.15"/><path d="M211.35,107.53L211.62,107.53L211.88,107.56L212.06,107.60L212.13,107.66L212.08,107.72L211.92,107.76L211.67,107.79L211.39,107.79L211.14,107.76L210.96,107.72L210.89,107.66L210.94,107.60L211.10,107.56L211.35,107.53L211.43,107.79"/><path d="M211.56,109.48L211.55,109.78"/><path d="M211.60,109.49L211.72,109.70L211.88,109.81"/><path d="M212.47,109.02L212.22,109.05L212.05,109.10L212.00,109.16L212.07,109.22L212.26,109.27L212.56,109.30L212.47,109.02L212.75,109.02L213.02,109.05L213.20,109.10L213.28,109.16L213.23,109.22L213.06,109.27L212.81,109.30L212.56,109.30"/><path d="M212.62,109.73L212.79,109.70L212.80,109.79L212.91,109.99L213.08,110.10"/><path d="M212.79,109.70L213.34,109.58L213.55,109.58L213.79,109.55L213.75,109.80L213.64,110.00L213.47,110.11"/><path d="M213.29,108.44L213.29,108.31"/><path d="M213.34,109.58L213.79,109.49L213.79,109.55L214.83,109.34L214.79,109.59L214.68,109.79L214.51,109.90"/><path d="M215.05,109.24L215.04,109.24L214.99,109.29L214.83,109.34L214.83,109.28L213.79,109.49"/><path d="M213.39,108.37L213.39,108.47"/><path d="M214.59,108.76L214.59,108.65"/><path d="M215.04,109.24L214.83,109.28"/><path d="M215.33,108.45L215.08,108.48L214.92,108.53L214.87,108.58L214.95,108.64L215.14,108.69L215.40,108.72L215.57,108.72L215.68,108.72L215.93,108.69L216.10,108.65L216.14,108.59L216.07,108.53L215.88,108.48L215.62,108.45L215.33,108.45L215.43,108.72"/></g><g style="stroke:#000000;stroke-width:0.123"><path d="M207.66,108.54L207.66,108.20L211.53,107.45L216.53,108.60L216.53,108.94L215.05,109.24L215.02,109.41L214.85,109.70L214.70,109.80L214.51,109.90L213.47,110.11L213.28,110.11L213.08,110.10L211.79,109.80L211.67,109.78L211.11,109.77L210.71,109.73L210.35,109.67L210.07,109.60L209.88,109.51L209.66,109.38L209.56,109.27L209.41,109.05L209.39,108.96L207.66,108.54"/></g></g><g id="Actor_.8"><g style="stroke:#000000;stroke-width:0.018"><path d="M211.83,108.68L211.83,108.55L211.40,108.56L210.98,108.53L210.61,108.48L210.34,108.40L210.18,108.32L210.16,108.22"/><path d="M212.27,108.11L211.97,108.06L211.62,108.04L211.24,108.04L210.90,108.07L210.63,108.12L210.47,108.19L210.42,108.27L210.51,108.35L210.72,108.42L211.02,108.47L211.38,108.50L211.75,108.49L212.10,108.47L212.37,108.41L212.53,108.34L212.57,108.26L212.48,108.18L212.27,108.11L212.27,108.43"/><path d="M211.83,108.55L213.36,108.91L213.36,108.99"/><path d="M212.83,108.24L212.82,108.33L212.83,108.34"/><path d="M213.36,108.91L214.40,108.70"/></g><g style="stroke:#000000;stroke-width:0.123"><path d="M210.16,108.51L210.16,108.22L210.28,108.13L210.52,108.06L210.87,108.01L211.27,107.98L211.70,107.98L212.11,108.02L212.46,108.07L212.71,108.15L212.83,108.24L212.83,108.34L214.40,108.70L214.40,108.80"/></g></g><g id="Actor_.9"><g style="stroke:#000000;stroke-width:0.018"><path d="M180.69,133.35L180.85,133.56L181.17,133.75L181.65,133.91L182.24,134.03L182.90,134.09L183.60,134.09L184.27,134.04L184.88,133.93L185.38,133.78L185.73,133.59L185.91,133.38L185.92,133.17"/><path d="M185.28,133.53L185.44,133.35L185.42,133.15L185.24,132.97L184.90,132.81L184.43,132.69L184.30,132.67L184.68,132.76L185.09,132.91L185.33,133.10L185.37,133.31L185.21,133.51L185.28,133.53L184.96,133.70L184.50,133.83L183.95,133.91L183.34,133.94L182.73,133.92L182.17,133.84L181.70,133.71L181.36,133.55L181.19,133.37L181.18,133.18L181.35,132.99L181.67,132.83L182.13,132.70L182.27,132.68L181.76,132.81L181.41,132.98L181.35,132.99"/><path d="M181.91,133.73L182.47,133.84L183.10,133.90L183.75,133.88L184.36,133.81L184.86,133.68L185.21,133.51L184.67,133.21L184.79,133.05L184.73,132.89L184.49,132.74L184.12,132.63L183.65,132.57L183.14,132.56L182.64,132.60L182.29,132.69L182.23,132.70L181.94,132.83L182.01,132.85L182.28,132.72L182.68,132.63L183.15,132.59L183.63,132.60L184.08,132.66L184.43,132.76L184.65,132.90L184.71,133.05L184.60,133.20L184.22,133.36L184.33,133.33L184.60,133.20L184.67,133.21L184.38,133.34L183.96,133.44L183.47,133.49L182.95,133.47L182.47,133.41L182.10,133.30L181.87,133.15L181.82,132.99L181.94,132.83L181.41,132.98L181.24,133.18L181.28,133.38L181.51,133.57L181.91,133.73"/><path d="M182.37,133.09L182.01,132.85L181.89,133.00L181.95,133.15L182.16,133.29L182.52,133.39L182.77,133.43"/><path d="M182.27,132.68L182.64,132.60"/><path d="M183.87,133.43L183.93,133.42L184.22,133.36"/><path d="M184.12,132.63L184.30,132.67"/><path d="M185.73,133.69L185.73,133.59"/></g><g style="stroke:#000000;stroke-width:0.123"><path d="M180.92,132.93L180.91,132.93L180.71,133.14L180.69,133.35L180.69,133.45L180.85,133.66L181.18,133.85L181.65,134.01L182.24,134.12L182.91,134.18L183.60,134.19L184.27,134.13L184.88,134.03L185.38,133.87L185.73,133.69L185.92,133.48L185.92,133.26L185.92,133.17L185.75,132.96L185.41,132.77L184.94,132.62L184.35,132.51L183.70,132.45L183.02,132.45L182.36,132.50L181.76,132.60L181.26,132.75L180.92,132.93"/><path d="M183.87,133.43L183.46,133.47L182.97,133.46L182.77,133.43"/></g></g><g id="Actor_.10"><g style="stroke:#000000;stroke-width:0.018"><path d="M222.59,150.37L222.70,150.69L223.03,151.01L223.57,151.30L224.26,151.54L225.08,151.71L225.96,151.81L226.84,151.83L227.66,151.76L228.36,151.61L228.89,151.38L229.21,151.11L229.31,150.80"/><path d="M223.68,150.99L223.34,150.72L223.22,150.43L223.31,150.16L223.62,149.93L224.11,149.74L224.75,149.63L225.48,149.59L225.89,149.61L225.45,149.60L226.10,149.63L226.74,149.73L227.28,149.89L227.66,150.11L227.84,150.35L227.79,150.59L228.52,150.98L228.59,150.68L228.41,150.38L227.98,150.09L227.36,149.86L226.61,149.69L226.10,149.63L225.89,149.61L226.25,149.63L227.00,149.75L227.66,149.94L228.19,150.18L228.54,150.45L228.68,150.74L228.60,151.01L228.30,151.25L227.81,151.44L227.16,151.56L226.42,151.60L225.63,151.55L224.87,151.43L224.20,151.24L223.68,150.99"/><path d="M228.60,151.01L228.52,150.98L228.19,151.23L227.64,151.42L226.92,151.53L226.10,151.54L225.27,151.45L224.50,151.28L223.89,151.04L223.47,150.75L223.31,150.44L223.39,150.15L223.31,150.16"/><path d="M223.73,149.90L224.28,149.72L224.99,149.62L225.45,149.60L224.86,149.67L224.40,149.80L224.12,150.00L223.39,150.15L223.73,149.90"/><path d="M227.08,150.83L226.93,150.91L227.00,150.90L227.44,150.77L227.70,150.58L227.79,150.59L227.52,150.79L227.05,150.92L226.45,150.99L225.79,150.97L225.15,150.86L224.61,150.69L224.23,150.47L224.06,150.23L224.12,150.00L224.21,150.02L224.47,149.83L224.91,149.70L225.48,149.65L226.09,149.67L226.70,149.76L227.21,149.92L227.57,150.13L227.74,150.36L227.70,150.58L227.19,150.74L227.10,150.80"/><path d="M224.77,150.65L224.92,150.75L224.68,150.68L224.32,150.47L224.16,150.24L224.21,150.02L224.71,150.34L224.77,150.40"/><path d="M224.92,150.75L225.13,150.82"/><path d="M225.48,149.59L225.48,149.59"/><path d="M226.93,150.91L226.75,150.92"/><path d="M226.25,149.63L226.25,149.63"/><path d="M229.21,151.11L229.21,151.22"/></g><g style="stroke:#000000;stroke-width:0.123"><path d="M222.70,150.80L222.59,150.48L222.59,150.37L222.71,150.07L223.05,149.80L223.58,149.59L224.27,149.44L225.07,149.37L225.92,149.39L226.79,149.48L227.59,149.65L228.29,149.88L228.83,150.16L229.18,150.48L229.31,150.80L229.31,150.91L229.21,151.22L228.89,151.50L228.35,151.72L227.66,151.87L226.84,151.94L225.96,151.93L225.08,151.83L224.26,151.65L223.56,151.41L223.03,151.12L222.70,150.80"/><path d="M226.75,150.92L226.43,150.96L225.80,150.94L225.19,150.84L225.13,150.82"/></g></g><g id="Actor_.11"><g style="stroke:#000000;stroke-width:0.018"><path d="M191.24,160.20L191.25,160.58L191.49,160.95L191.97,161.30L192.63,161.59L193.45,161.80L194.35,161.93L195.29,161.95L196.19,161.87L196.98,161.69L197.62,161.43L198.06,161.10L198.27,160.74"/><path d="M192.30,161.01L192.19,160.94L191.92,160.61L191.88,160.27L192.07,159.95L192.48,159.67L193.06,159.46L193.78,159.33L194.57,159.28L195.38,159.34L196.14,159.48L196.79,159.71L197.28,159.99L197.56,160.32L197.62,160.66L197.44,160.98L197.04,161.27L196.45,161.49L195.72,161.63L194.91,161.67L194.08,161.62L193.32,161.47L192.67,161.23L192.30,161.01"/><path d="M192.07,159.95L192.15,159.94L191.96,160.29L192.04,160.65L192.39,160.99L192.97,161.28L193.72,161.49L194.58,161.60L195.46,161.59L196.27,161.47L196.92,161.25L197.35,160.94L197.44,160.98"/><path d="M195.56,160.89L195.66,160.88L196.17,160.72L196.51,160.50L196.61,160.51L196.25,160.74L195.71,160.91L195.05,160.98L194.35,160.95L193.70,160.83L193.17,160.62L192.84,160.36L192.74,160.07L192.88,159.80L193.24,159.56L193.78,159.40L194.43,159.33L195.12,159.36L195.77,159.48L196.29,159.69L196.63,159.95L196.74,160.23L196.61,160.51L197.35,160.94L197.53,160.60L197.43,160.23L197.07,159.90L196.49,159.61L195.74,159.41L194.89,159.31L194.51,159.31L194.03,159.32L193.24,159.44L192.60,159.65L192.15,159.94L192.88,159.80L192.98,159.82L193.32,159.60L193.83,159.45L194.45,159.38L195.10,159.41L195.71,159.52L196.21,159.72L196.53,159.96L196.64,160.23L196.51,160.50L196.00,160.66L195.91,160.72"/><path d="M193.90,160.83L193.75,160.80L193.25,160.60L192.94,160.35L192.84,160.08L192.98,159.82L193.48,160.18L193.50,160.20"/><path d="M193.87,160.82L193.75,160.77L193.57,160.66"/><path d="M195.59,160.88L195.67,160.86L195.86,160.77"/><path d="M198.06,161.10L198.06,161.23"/></g><g style="stroke:#000000;stroke-width:0.123"><path d="M191.38,159.98L191.24,160.20L191.25,160.70L191.50,161.07L191.97,161.42L192.63,161.71L193.45,161.93L194.35,162.05L195.29,162.07L196.19,161.99L196.98,161.81L197.62,161.55L198.06,161.23L198.27,160.86L198.27,160.74L198.24,160.35L197.97,159.98L197.48,159.64L196.81,159.36L196.00,159.16L195.12,159.04L194.21,159.02L193.47,159.09L193.33,159.10L192.55,159.27L191.91,159.52L191.47,159.84L191.38,159.98"/><path d="M195.59,160.88L195.03,160.94L194.37,160.92L193.90,160.83L193.87,160.82"/></g></g><g id="Actor_.12"><g style="stroke:#000000;stroke-width:0.018"><path d="M152.77,140.11L152.86,140.35L153.14,140.57L153.58,140.76L154.16,140.89L154.84,140.96L155.56,140.97L156.29,140.91L156.96,140.79L157.54,140.62L157.98,140.41L158.25,140.17L158.33,139.92"/><path d="M153.60,139.70L153.66,139.69L153.41,139.91L153.37,140.15L153.55,140.37L153.92,140.55L154.46,140.68L155.10,140.75L155.79,140.74L156.46,140.65L157.03,140.50L157.46,140.30L156.91,139.98L157.09,139.80L157.08,139.61L156.89,139.44L156.54,139.31L156.07,139.24L156.63,139.31L157.16,139.44L157.54,139.62L157.73,139.84L157.70,140.07L157.46,140.30L157.52,140.33L157.13,140.52L156.61,140.67L155.99,140.76L155.34,140.80L154.71,140.76L154.15,140.67L153.70,140.53L153.41,140.34L153.29,140.13L153.35,139.91L153.60,139.70L153.99,139.51L154.51,139.37L154.68,139.34"/><path d="M155.00,139.28L154.66,139.35L154.09,139.49L153.66,139.69L154.18,139.54L154.25,139.55L154.58,139.41L155.03,139.31L155.53,139.26L156.04,139.27L156.49,139.34L156.82,139.46L157.01,139.62L157.01,139.80L156.84,139.97L156.46,140.13L156.51,140.12L156.84,139.97L156.91,139.98L156.56,140.13L156.11,140.24L155.55,140.29L155.01,140.28L154.53,140.20L154.18,140.07L153.99,139.90L154.00,139.72L154.18,139.54L154.53,139.38L155.00,139.28L155.14,139.26L155.53,139.23L156.07,139.24"/><path d="M154.91,140.24L154.58,140.19L154.25,140.06L154.07,139.90L154.07,139.73L154.25,139.55L154.57,139.78"/><path d="M154.56,140.14L154.65,140.20"/><path d="M156.46,140.13L156.20,140.19"/><path d="M157.52,140.33L157.76,140.12L157.81,139.90L157.68,139.69L157.38,139.50L156.93,139.36L156.38,139.27"/><path d="M156.28,139.27L156.38,139.27"/><path d="M157.98,140.41L157.98,140.50"/></g><g style="stroke:#000000;stroke-width:0.123"><path d="M152.82,140.00L152.77,140.11L152.78,140.21L152.87,140.45L153.14,140.67L153.58,140.86L154.16,140.99L154.77,141.06L154.84,141.06L155.57,141.07L156.29,141.01L156.97,140.89L157.54,140.72L157.98,140.50L158.25,140.26L158.34,140.01L158.33,139.92L158.23,139.67L157.94,139.46L157.49,139.28L156.92,139.15L156.25,139.08L155.54,139.07L154.83,139.13L154.16,139.25L153.59,139.41L153.15,139.62L152.87,139.86L152.82,140.00"/><path d="M156.20,140.19L156.06,140.22L155.55,140.27L155.03,140.26L154.91,140.24"/></g></g><g id="Actor_.13"><g style="stroke:#000000;stroke-width:0.018"><path d="M184.24,133.23L184.23,133.26L184.22,133.29L184.20,133.32L184.16,133.35L184.16,133.20L184.15,133.19L184.14,133.18L184.14,133.17L184.12,133.17L184.08,133.20L184.03,133.22L183.97,133.25L183.90,133.27L183.82,133.29L183.74,133.30L183.65,133.32L183.56,133.33L183.46,133.33L183.37,133.34L183.27,133.34L183.17,133.34L183.08,133.33L182.99,133.32L182.90,133.31L182.81,133.29L182.73,133.28L182.66,133.26L182.60,133.23L182.54,133.21L182.50,133.18L182.46,133.15L182.43,133.12L182.41,133.09L182.41,133.06L182.41,133.03L182.42,133.00L182.45,132.97L182.48,132.95L182.47,132.95L182.46,132.95"/><path d="M182.48,132.95L182.53,132.92L182.58,132.89L182.64,132.87L182.71,132.85L182.79,132.83L182.87,132.81L182.95,132.80L183.05,132.79L183.14,132.78L183.23,132.78L183.33,132.78L183.43,132.78L183.52,132.79L183.61,132.80L183.70,132.81L183.79,132.82L183.87,132.84L183.94,132.86L184.00,132.88L184.06,132.91L184.10,132.93L184.14,132.96L184.17,132.99L184.19,133.02L184.20,133.05L184.19,133.08L184.18,133.11L184.16,133.14L184.12,133.17"/><path d="M182.46,132.95L182.46,132.95"/><path d="M182.37,133.23L182.38,133.26L182.39,133.29L182.42,133.32L182.45,133.35L182.50,133.38L182.54,133.40"/><path d="M184.24,133.09L184.23,133.12L184.22,133.15L184.19,133.18L184.16,133.21L184.12,133.24L184.06,133.27L184.00,133.29L183.93,133.31L183.86,133.33L183.78,133.35L183.69,133.36L183.60,133.37L183.50,133.38L183.41,133.39L183.31,133.39L183.21,133.39L183.11,133.38L183.02,133.38L182.93,133.36L182.84,133.35L182.76,133.33L182.68,133.31L182.61,133.29L182.55,133.27L182.49,133.24L182.45,133.22L182.41,133.19L182.39,133.16L182.37,133.13L182.37,133.10"/><path d="M182.43,133.35L182.43,133.35"/><path d="M182.48,133.38L182.46,133.38"/><path d="M182.83,133.14L182.81,133.14L182.91,133.18L183.04,133.15L183.03,133.09L182.83,133.14"/><path d="M182.81,133.14L182.84,133.14L182.87,133.14L182.95,133.17"/><path d="M182.90,133.16L182.90,133.16"/><path d="M182.40,133.31L182.40,133.31"/><path d="M182.38,133.27L182.38,133.27"/><path d="M183.02,132.90L183.05,132.92L183.07,132.94L183.09,132.96L183.11,132.99L183.07,133.00L182.90,132.94L183.02,132.90L183.19,132.97L183.20,133.12L183.24,133.12L183.28,133.12L183.31,133.12L183.35,133.13L183.38,133.13L183.41,133.14L183.53,133.19L183.53,133.11L183.51,133.10L183.50,133.09L183.49,133.08L183.49,133.14L183.48,133.17"/><path d="M183.70,133.18L183.58,133.21L183.56,133.20L183.66,133.18L183.68,133.17L183.70,133.18L183.53,133.11"/><path d="M183.58,133.01L183.58,133.02L183.59,133.02L183.58,133.01L183.61,132.98L183.63,132.96L183.66,132.94L183.69,132.93L183.47,132.98L183.47,133.17"/><path d="M183.58,133.02L183.54,133.03L183.52,133.04L183.50,133.05L183.49,133.07L183.49,133.08"/><path d="M183.69,132.93L183.79,132.97L183.59,133.02"/><path d="M183.20,133.12L183.16,133.12L183.13,133.13L183.04,133.15"/><path d="M183.03,133.09L183.06,133.08L183.08,133.07L183.10,133.06L183.11,133.05L183.11,133.04L183.11,133.13"/><path d="M183.11,133.04L183.10,133.03L183.09,133.01L183.07,133.00"/><path d="M183.19,132.97L183.22,132.98L183.25,132.99L183.29,132.99L183.33,133.00L183.36,133.00L183.40,133.00L183.44,132.99L183.47,132.98"/><path d="M183.18,133.12L183.11,132.99"/><path d="M183.55,133.20L183.53,133.19"/><path d="M183.49,133.18L183.49,133.14"/><path d="M184.09,133.38L184.12,133.37L184.16,133.35L184.16,133.36L184.15,133.37L184.15,133.37"/><path d="M184.18,133.34L184.19,133.34"/></g><g style="stroke:#000000;stroke-width:0.123"><path d="M182.38,133.27L182.37,133.23L182.37,133.10L182.38,133.05L182.39,133.02L182.42,132.98L182.46,132.95L182.51,132.92L182.56,132.90L182.62,132.87L182.69,132.85L182.76,132.83L182.84,132.82L182.93,132.80L183.02,132.79L183.11,132.78L183.20,132.78L183.30,132.78L183.39,132.78L183.48,132.78L183.58,132.79L183.67,132.80L183.75,132.81L183.83,132.83L183.90,132.85L183.97,132.87L184.03,132.89L184.09,132.92L184.14,132.95L184.18,132.98L184.21,133.01L184.23,133.05L184.24,133.09L184.24,133.23L184.23,133.27L184.22,133.30L184.19,133.34L184.15,133.37"/><path d="M182.47,133.38L182.43,133.34L182.40,133.31"/><path d="M182.38,133.27L182.40,133.31"/></g></g><g id="Actor_.14"><g style="stroke:#000000;stroke-width:0.018"><path d="M154.56,139.98L154.57,140.01L154.58,140.05L154.61,140.08L154.65,140.11L154.69,140.14L154.75,140.17L154.82,140.19L154.89,140.22L154.97,140.24L155.06,140.25L155.11,140.26"/><path d="M156.54,139.91L156.53,139.94L156.52,139.98L156.49,140.02L156.45,140.05L156.41,140.08L156.40,139.94L156.35,139.97L156.28,140.00L156.21,140.03L156.13,140.06L156.04,140.08L155.95,140.10L155.85,140.11L155.75,140.13L155.65,140.14L155.55,140.14L155.44,140.14L155.34,140.14L155.24,140.13L155.14,140.13L155.05,140.11L154.96,140.10L154.88,140.08L154.81,140.05L154.75,140.03L154.69,140.00L154.64,139.97L154.60,139.94L154.58,139.91L154.56,139.87L154.56,139.84"/><path d="M154.62,140.11L154.62,140.11"/><path d="M154.86,140.23L154.83,140.22L154.76,140.20L154.71,140.17L154.66,140.14"/><path d="M156.53,139.77L156.52,139.80L156.51,139.84L156.48,139.87L156.45,139.91L156.40,139.94L156.40,139.93L156.39,139.91L156.38,139.90L156.36,139.90L156.31,139.93L156.24,139.96L156.17,139.98L156.09,140.01L156.00,140.03L155.91,140.05L155.82,140.06L155.72,140.08L155.61,140.08L155.51,140.09L155.41,140.09L155.31,140.08L155.21,140.08L155.12,140.07L155.03,140.05L154.94,140.03L154.87,140.01L154.80,139.99L154.74,139.96L154.69,139.93L154.65,139.90L154.62,139.87L154.60,139.84L154.60,139.80L154.60,139.77L154.61,139.73L154.64,139.70L154.68,139.66L154.72,139.63L154.71,139.63L154.70,139.63"/><path d="M154.72,139.63L154.78,139.60L154.84,139.57L154.91,139.54L154.99,139.52L155.08,139.50L155.17,139.48L155.27,139.47L155.37,139.45L155.47,139.45L155.57,139.44L155.67,139.44L155.77,139.44L155.87,139.45L155.96,139.46L156.05,139.48L156.13,139.49L156.21,139.52L156.28,139.54L156.34,139.57L156.39,139.59L156.43,139.62L156.46,139.66L156.48,139.69L156.49,139.72L156.48,139.76L156.47,139.79L156.44,139.83L156.41,139.86L156.36,139.90"/><path d="M155.77,139.93L155.88,139.90L155.90,139.90L155.92,139.91L155.78,139.94L155.76,139.93L155.77,139.93L155.77,139.83L155.75,139.81L155.74,139.80L155.73,139.79L155.74,139.77L155.75,139.76L155.75,139.68L155.71,139.69L155.67,139.69L155.63,139.69L155.59,139.69L155.55,139.69L155.51,139.69L155.48,139.68L155.46,139.67L155.47,139.83"/><path d="M155.73,139.91L155.74,139.90L155.74,139.92L155.76,139.93"/><path d="M155.74,139.90L155.73,139.79"/><path d="M155.46,139.67L155.30,139.59L155.33,139.60L155.35,139.62L155.37,139.65L155.38,139.68L155.45,139.83"/><path d="M155.30,139.59L155.16,139.62L155.32,139.70L155.38,139.68"/><path d="M155.25,139.80L155.25,139.87L155.35,139.84L155.35,139.74L155.34,139.75L155.33,139.77L155.31,139.78L155.28,139.79L155.25,139.80L155.00,139.86L155.03,139.86L155.07,139.86L155.10,139.87L155.14,139.89L155.08,139.91L155.00,139.86"/><path d="M155.35,139.74L155.35,139.73L155.33,139.71L155.32,139.70"/><path d="M155.77,139.83L155.92,139.91"/><path d="M155.75,139.68L156.00,139.62L155.96,139.63L155.93,139.65L155.90,139.68L155.87,139.71L155.88,139.71L156.08,139.67L156.00,139.62"/><path d="M155.74,139.92L155.62,139.86L155.60,139.85L155.57,139.84L155.51,139.83L155.45,139.83L155.41,139.83L155.35,139.84"/><path d="M155.14,139.89L155.25,139.87"/><path d="M155.75,139.76L155.77,139.75L155.80,139.74L155.87,139.72L155.87,139.71"/><path d="M156.00,140.23L156.05,140.22L156.13,140.20L156.21,140.17L156.29,140.14L156.35,140.11L156.41,140.08L156.41,140.10L156.40,140.11L156.44,140.08"/><path d="M156.27,140.18L156.34,140.14L156.40,140.11L156.34,140.16"/><path d="M156.48,140.04L156.48,140.04"/><path d="M155.88,139.71L155.87,139.72"/></g><g style="stroke:#000000;stroke-width:0.123"><path d="M156.34,140.16L156.44,140.08L156.48,140.04L156.51,140.00L156.53,139.96L156.54,139.91L156.53,139.77L156.52,139.73L156.50,139.68L156.47,139.64L156.42,139.61L156.38,139.58L156.32,139.55L156.25,139.52L156.18,139.50L156.10,139.48L156.02,139.47L155.93,139.46L155.83,139.45L155.74,139.44L155.64,139.44L155.54,139.44L155.44,139.45L155.34,139.45L155.24,139.47L155.15,139.48L155.06,139.50L154.97,139.52L154.90,139.55L154.83,139.57L154.76,139.60L154.70,139.63L154.66,139.67L154.61,139.70L154.58,139.75L154.56,139.79L154.56,139.83L154.56,139.98L154.57,140.02L154.59,140.07L154.62,140.10L154.66,140.14L154.77,140.22"/></g></g><g id="Actor_.15"><g style="stroke:#000000;stroke-width:0.018"><path d="M224.80,150.35L224.84,150.33L224.80,150.42L224.82,150.51L224.89,150.60L224.94,150.64L225.17,150.76L225.37,150.83L225.59,150.88L225.84,150.92L226.08,150.93L226.44,150.92L226.65,150.88L226.83,150.83L226.96,150.77L227.05,150.69L227.08,150.70L227.10,150.72L227.10,150.80"/><path d="M225.16,150.83L224.95,150.73L224.83,150.64L224.77,150.55L224.75,150.50L224.75,150.45"/><path d="M226.28,162.43L226.22,162.45L226.09,162.49L225.92,162.51L225.74,162.51L225.55,162.49L225.38,162.44L225.24,162.39L225.14,162.32"/><path d="M226.23,150.43L226.29,150.45L226.21,150.49L226.19,150.52L226.21,150.56L226.27,150.59L226.27,150.69L226.11,150.63L226.11,150.40L226.36,150.33L226.29,150.37L226.26,150.40L226.11,150.63L225.95,150.60L225.86,150.60L225.76,150.62L225.70,150.52L225.69,150.64L225.63,150.66L225.63,150.56L225.38,150.64L225.53,150.69L225.57,150.68L225.45,150.63L225.38,150.64"/><path d="M225.76,150.62L225.69,150.64"/><path d="M225.63,150.66L225.57,150.68"/><path d="M225.75,150.61L225.76,150.39L225.50,150.28L225.57,150.33L225.65,150.45L225.69,150.48L225.69,150.51L225.68,150.53L225.63,150.56"/><path d="M225.70,150.52L225.70,150.50"/><path d="M225.48,150.64L225.48,150.64"/><path d="M227.05,150.69L227.08,150.65L227.08,150.56L227.04,150.47L226.94,150.38L226.72,150.26L226.52,150.19L226.29,150.14L225.93,150.10L225.68,150.09L225.45,150.11L225.24,150.14L225.07,150.19L224.93,150.26L224.84,150.33"/><path d="M225.76,150.39L225.84,150.41L225.94,150.42L226.03,150.42L226.11,150.40"/><path d="M225.50,150.28L225.36,150.32L225.58,150.41L225.63,150.40"/><path d="M225.58,150.41L225.65,150.45"/><path d="M226.35,162.36L226.36,161.86"/><path d="M226.18,162.50L226.18,162.49"/><path d="M227.14,150.65L227.10,150.74L227.01,150.82L226.88,150.89L226.77,150.92"/><path d="M226.53,150.70L226.39,150.74L226.35,150.72L226.46,150.69L226.53,150.70L226.27,150.59"/><path d="M226.29,150.45L226.50,150.39L226.36,150.33"/><path d="M226.34,150.72L226.27,150.69"/><path d="M226.19,150.52L226.19,150.66"/><path d="M227.13,150.61L227.14,150.61"/></g><g style="stroke:#000000;stroke-width:0.123"><path d="M227.14,150.71L227.13,150.60L227.09,150.49L226.99,150.40L226.85,150.31L226.67,150.24L226.46,150.18L226.24,150.13L226.00,150.10L225.76,150.09L225.52,150.10L225.31,150.12L225.12,150.17L224.96,150.23L224.84,150.30L224.77,150.40L224.76,150.45L224.75,150.51"/><path d="M226.38,161.85L226.36,162.33L226.32,162.40L226.14,162.52L226.09,162.54L225.97,162.57L225.82,162.58L225.67,162.58L225.51,162.55L225.33,162.48L225.11,162.29"/></g></g><g id="Actor_.16"><g style="stroke:#000000;stroke-width:0.018"><path d="M195.43,173.06L195.31,173.13L195.16,173.17L194.88,173.20L194.68,173.18L194.50,173.14L194.35,173.08L194.23,173.00"/><path d="M195.91,160.72L195.91,160.56L195.90,160.53L195.86,160.51L195.74,160.60L195.58,160.68L195.37,160.74L195.13,160.77L194.88,160.79L194.62,160.78L194.36,160.75L194.13,160.70L193.83,160.59L193.75,160.54L193.62,160.44L193.58,160.39L193.54,160.28L193.55,160.18L193.62,160.08L193.58,160.08"/><path d="M193.58,160.09L193.58,160.09"/><path d="M193.62,160.08L193.74,159.98L193.91,159.91L194.11,159.85L194.35,159.81L194.73,159.80L194.98,159.81L195.23,159.86L195.45,159.92L195.65,160.00L195.73,160.04L195.85,160.14L195.92,160.24L195.94,160.35L195.90,160.46L195.86,160.51"/><path d="M193.49,160.32L193.52,160.43L193.62,160.54L193.76,160.63L193.94,160.72L194.16,160.78L194.41,160.83L194.80,160.86L195.06,160.85L195.31,160.82L195.53,160.77L195.72,160.70L195.86,160.61L195.95,160.51L195.99,160.41L195.99,160.35"/><path d="M193.49,160.27L193.49,160.27"/><path d="M194.40,160.05L194.34,160.01L194.43,160.10L194.58,160.38L194.58,160.14L194.40,160.05"/><path d="M194.34,160.01L194.18,160.07L194.38,160.17L194.46,160.15"/><path d="M194.39,160.34L194.39,160.46L194.48,160.43L194.48,160.27L194.47,160.29L194.42,160.33L194.10,160.44L194.18,160.43L194.30,160.49L194.24,160.51L194.10,160.44"/><path d="M194.48,160.27L194.47,160.23L194.38,160.17"/><path d="M194.30,160.49L194.39,160.46"/><path d="M194.48,160.38L194.48,160.43L194.59,160.40L194.58,160.38"/><path d="M195.47,173.02L195.47,172.57"/><path d="M195.52,172.89L195.52,172.89"/><path d="M195.09,160.54L195.24,160.50L195.30,160.52L195.14,160.57L195.06,160.53L195.06,160.39L195.00,160.33L195.00,160.49L195.06,160.53"/><path d="M195.30,160.52L195.06,160.39"/><path d="M195.00,160.49L194.93,160.46L194.99,160.35L195.00,160.48"/><path d="M195.00,160.34L195.00,160.31L195.00,160.33"/><path d="M195.13,160.15L195.10,160.19L195.15,160.22L195.38,160.15L195.24,160.07L195.16,160.12L195.13,160.15"/><path d="M195.10,160.19L195.06,160.25L195.15,160.22"/><path d="M194.96,160.41L194.95,160.17L195.24,160.07"/><path d="M194.92,160.45L194.86,160.42L194.77,160.40L194.59,160.40"/><path d="M194.58,160.14L194.66,160.17L194.76,160.18L194.86,160.18L194.95,160.17"/><path d="M195.00,160.31L195.03,160.27L195.06,160.25"/></g><g style="stroke:#000000;stroke-width:0.123"><path d="M195.51,172.55L195.52,172.94L195.50,172.98L195.43,173.06L195.25,173.19L195.05,173.25L194.89,173.27L194.72,173.26L194.57,173.22L194.44,173.17L194.23,173.00L194.19,172.96L194.15,172.87L194.15,172.76"/><path d="M193.49,160.47L193.49,160.27L193.50,160.20L193.58,160.09L193.71,159.99L193.97,159.88L194.19,159.83L194.43,159.80L194.68,159.79L194.93,159.80L195.30,159.86L195.51,159.93L195.70,160.01L195.84,160.11L195.94,160.22L195.99,160.34L195.99,160.50"/></g></g><g id="Actor_.17"><g style="stroke:#000000;stroke-width:0.018"><path d="M148.60,99.17L148.66,99.27L148.86,99.36L149.20,99.43L149.64,99.47L150.15,99.49L150.71,99.49L151.27,99.45L151.80,99.39L152.25,99.31L152.59,99.21L152.60,99.29"/><path d="M152.25,99.19L152.20,99.17L152.39,99.07L152.43,98.97L152.29,98.89L152.15,98.84L152.17,98.85L152.40,98.92L152.49,99.00L152.44,99.10L152.25,99.19L151.94,99.27L151.53,99.34L151.05,99.39L150.55,99.42L150.07,99.41L149.64,99.38L149.30,99.33L149.08,99.26L149.00,99.17L149.05,99.08L149.25,98.99L149.30,98.98L149.25,98.99"/><path d="M149.29,98.98L149.10,99.07L149.06,99.17L149.18,99.26L149.46,99.33L149.87,99.38L150.36,99.39L150.90,99.38L151.41,99.33L151.86,99.26L152.20,99.17L151.78,98.95L151.93,98.87L151.93,98.80L151.79,98.73L152.15,98.84"/><path d="M149.54,98.89L149.54,98.97L149.67,99.04L149.94,99.09L150.30,99.11L150.72,99.11L151.13,99.08L151.50,99.02L151.78,98.95L151.72,98.95L151.86,98.88L151.87,98.81L151.74,98.74L151.48,98.70L151.14,98.68L150.75,98.68L150.36,98.71L150.01,98.76L149.75,98.82L149.70,98.82L149.54,98.89"/><path d="M149.30,98.98L149.70,98.82L149.86,98.77"/><path d="M150.03,99.00L149.75,98.82L149.61,98.90L149.60,98.97L149.73,99.03L149.98,99.08L150.32,99.10L150.72,99.10L151.11,99.07L151.46,99.02L151.72,98.95"/><path d="M151.61,98.70L151.79,98.73"/><path d="M152.59,99.21L152.81,99.11L152.89,99.00"/></g><g style="stroke:#000000;stroke-width:0.123"><path d="M149.20,99.51L148.87,99.44L148.66,99.35L148.60,99.25L148.60,99.17L148.68,99.07L148.91,98.97L149.26,98.87L149.70,98.79L149.86,98.77L149.97,98.75L150.34,98.69L150.75,98.66L151.16,98.66L151.52,98.68L151.61,98.70L151.83,98.71L152.27,98.75L152.61,98.82L152.82,98.90L152.89,99.00L152.89,99.08L152.82,99.19L152.60,99.29L152.25,99.39L151.80,99.47L151.28,99.53L150.72,99.57L150.16,99.57L149.64,99.55L149.20,99.51"/></g></g><g id="Actor_.18"><g style="stroke:#000000;stroke-width:0.018"><path d="M128.70,87.25L128.69,87.55L128.82,87.86L129.06,88.16L129.40,88.43L129.82,88.65L130.29,88.80L130.77,88.87L131.24,88.87L131.66,88.78L132.00,88.62L132.23,88.40L132.35,88.12"/><path d="M129.33,86.93L129.12,87.13L129.03,87.37L129.05,87.64L129.20,87.92L129.45,88.17L129.79,88.39L130.19,88.55L130.62,88.64L131.04,88.65L131.42,88.59L131.72,88.45L131.69,88.41L131.90,88.19L131.98,87.93L131.92,87.64L131.72,87.35L131.41,87.09L131.01,86.90L130.56,86.77L130.11,86.74L129.70,86.80L129.37,86.94L129.33,86.93L129.64,86.79L130.02,86.72L130.43,86.74L130.86,86.83L131.26,86.98L131.59,87.20L131.85,87.45L131.99,87.73L132.02,88.00L131.93,88.24L131.72,88.45"/><path d="M129.33,88.00L129.64,88.26L130.04,88.46L130.49,88.58L130.95,88.62L131.36,88.56L131.69,88.41L131.39,88.07L131.56,87.90L131.60,87.68L131.52,87.45L131.33,87.23L131.04,87.04L130.69,86.92L130.33,86.87L130.00,86.91L129.73,87.02L129.37,86.94L129.16,87.16L129.07,87.42L129.13,87.71L129.33,88.00"/><path d="M129.98,87.33L129.97,87.31L129.77,87.05L129.62,87.21L129.57,87.42L129.65,87.64L129.83,87.85L130.10,88.03L130.16,88.04L130.43,88.14L130.78,88.19L131.09,88.15L131.35,88.05L131.50,87.88L131.55,87.68L131.47,87.45L131.29,87.24L131.01,87.07L130.69,86.96L130.34,86.91L130.03,86.94L129.77,87.05L129.73,87.02L129.57,87.19L129.52,87.41L129.60,87.64L129.79,87.86L130.08,88.05L130.43,88.17L130.79,88.22L131.12,88.18L131.39,88.07L131.35,88.05L131.09,88.02L131.04,88.03"/><path d="M130.10,87.95L130.18,87.99"/><path d="M130.85,88.11L130.69,88.12"/><path d="M132.00,88.62L131.98,88.67"/></g><g style="stroke:#000000;stroke-width:0.123"><path d="M129.39,88.48L129.81,88.70L130.28,88.85L130.76,88.93L131.23,88.92L131.64,88.84L131.98,88.67L132.22,88.45L132.34,88.18L132.35,88.12L132.35,87.82L132.22,87.51L131.98,87.21L131.64,86.95L131.22,86.73L130.76,86.58L130.28,86.51L129.82,86.51L129.40,86.60L129.06,86.75L128.82,86.98L128.70,87.25L128.68,87.30L128.68,87.60L128.80,87.91L129.05,88.21L129.39,88.48"/><path d="M130.18,87.99L130.24,88.02L130.39,88.07L130.55,88.11L130.69,88.12"/></g></g><g id="Actor_.19"><g style="stroke:#000000;stroke-width:0.018"><path d="M102.99,90.29L102.95,90.61L103.05,90.94L103.27,91.26L103.61,91.55L104.04,91.78L104.54,91.94L105.06,92.02L105.57,92.01L106.04,91.91L106.43,91.74L106.72,91.50L106.89,91.21"/><path d="M103.46,91.00L103.70,91.28L104.04,91.51L104.29,91.61L104.46,91.68L104.92,91.77L105.38,91.78L105.80,91.71L106.15,91.55L106.41,91.34L106.54,91.07L106.54,90.78L106.42,90.49L106.17,90.22L105.83,89.99L105.42,89.83L104.96,89.73L104.51,89.72L104.09,89.79L103.73,89.94L103.48,90.16L103.34,90.42L103.33,90.71L103.46,91.00"/><path d="M106.15,91.55L106.12,91.52L105.81,91.16L106.01,90.97L106.09,90.74L106.03,90.49L105.85,90.25L105.55,90.06L105.19,89.93L104.80,89.88L104.43,89.92L104.13,90.04L103.77,89.96L104.15,89.80L104.61,89.74L105.10,89.77L105.57,89.90L105.98,90.11L106.29,90.38L106.47,90.69L106.50,91.00L106.38,91.28L106.12,91.52L105.74,91.67L105.28,91.74L104.79,91.71L104.31,91.58L103.90,91.37L103.59,91.09L103.41,90.78L103.38,90.47L103.51,90.19L103.77,89.96L103.73,89.94"/><path d="M104.39,90.36L104.38,90.35L104.17,90.07L103.97,90.25L103.90,90.47L103.95,90.71L104.13,90.93L104.40,91.12L104.75,91.24L105.12,91.29L105.47,91.25L105.76,91.13L105.96,90.96L106.03,90.73L105.98,90.50L105.80,90.28L105.52,90.09L105.18,89.97L104.81,89.92L104.46,89.96L104.17,90.07L104.13,90.04L103.92,90.23L103.84,90.46L103.90,90.71L104.08,90.95L104.37,91.14L104.74,91.27L105.13,91.32L105.50,91.28L105.81,91.16L105.76,91.13L105.51,91.10L105.47,91.11"/><path d="M104.75,91.17L104.74,91.16"/><path d="M105.24,91.20L105.08,91.21"/><path d="M106.42,91.80L106.43,91.74"/></g><g style="stroke:#000000;stroke-width:0.123"><path d="M103.26,91.32L103.60,91.60L104.04,91.84L104.53,92.00L105.05,92.07L105.56,92.07L106.03,91.97L106.42,91.80L106.71,91.55L106.88,91.26L106.89,91.21L106.92,90.88L106.82,90.55L106.60,90.24L106.26,89.95L105.83,89.73L105.34,89.57L104.83,89.49L104.32,89.50L103.85,89.59L103.46,89.76L103.16,90.00L102.99,90.29L102.94,90.67L103.04,91.00L103.26,91.32"/><path d="M105.08,91.21L104.90,91.20L104.75,91.17"/></g></g><g id="Actor_.20"><g style="stroke:#000000;stroke-width:0.018"><path d="M120.19,103.54L120.35,103.64L120.65,103.72L121.08,103.78L121.60,103.80L122.18,103.80L122.78,103.76L123.37,103.69L123.88,103.60L124.30,103.49L124.59,103.37L124.74,103.25"/><path d="M121.31,103.69L121.14,103.67L120.82,103.61L120.64,103.53L120.61,103.43L120.73,103.32L120.98,103.21L121.02,103.20L120.76,103.31L120.66,103.43L120.73,103.53L120.98,103.61L121.37,103.67L121.87,103.69L122.43,103.67L122.99,103.62L123.50,103.54L123.91,103.44L124.17,103.33L124.27,103.21L124.19,103.11L123.94,103.03L124.10,103.06L124.28,103.15L124.32,103.25L124.21,103.35L123.96,103.46L123.58,103.56L123.11,103.63L122.59,103.69L122.06,103.71L121.56,103.71L121.31,103.69"/><path d="M123.94,103.03L123.64,102.95L123.74,103.03L123.69,103.11L123.49,103.20L123.43,103.20L123.63,103.12L123.68,103.03L123.58,102.96L123.35,102.91L123.01,102.88L122.60,102.88L122.18,102.91L121.79,102.97L121.47,103.04L121.42,103.04L121.22,103.12L121.16,103.21L121.26,103.29L121.50,103.35L121.86,103.38L122.29,103.38L122.74,103.34L123.16,103.28L123.49,103.20L123.91,103.44L123.96,103.46"/><path d="M123.43,103.20L123.12,103.28L122.73,103.34L122.30,103.37L121.89,103.37L121.55,103.34L121.32,103.29L121.23,103.22L121.28,103.13L121.47,103.04L121.75,103.23"/><path d="M120.76,103.31L120.80,103.30"/><path d="M121.02,103.20L121.42,103.04L121.65,102.98"/><path d="M123.22,102.88L123.39,102.89L123.64,102.95"/><path d="M124.30,103.49L124.31,103.57"/></g><g style="stroke:#000000;stroke-width:0.123"><path d="M120.19,103.54L120.20,103.62L120.35,103.73L120.66,103.81L121.08,103.86L121.60,103.89L122.19,103.88L122.79,103.84L123.37,103.77L123.89,103.68L124.31,103.57L124.60,103.45L124.74,103.33L124.73,103.13L124.57,103.03L124.26,102.95L123.83,102.90L123.32,102.88L123.22,102.88L123.04,102.86L122.61,102.86L122.16,102.90L121.75,102.96L121.65,102.98L121.58,102.99L121.07,103.08L120.65,103.19L120.35,103.30L120.19,103.43L120.19,103.54"/></g></g><g id="Actor_.21"><g style="stroke:#000000;stroke-width:0.018"><path d="M150.05,99.08L150.01,99.06L150.01,99.03L150.05,99.00L150.11,98.97L150.10,98.97"/><path d="M150.11,98.97L150.27,98.93L150.54,98.89L150.85,98.87L151.08,98.88L151.27,98.90L151.36,98.91L151.43,98.94L151.46,98.96L151.47,98.98L151.45,99.01L151.43,99.03"/><path d="M149.98,99.07L149.98,99.08"/><path d="M150.51,99.03L150.58,99.01L150.59,99.00L150.45,98.96L150.56,98.94L150.60,98.96L150.62,99.00L150.59,99.01L150.59,99.05L150.51,99.06L150.51,99.03L150.32,99.06L150.34,99.06L150.41,99.07L150.38,99.08L150.32,99.06"/><path d="M150.56,98.94L150.68,98.97L150.68,99.04L150.78,99.04L150.91,99.08L151.03,99.06L150.91,99.08L150.91,99.03L150.89,99.02L150.90,99.00L150.90,98.97L151.10,98.94L151.04,98.96L151.02,98.98L150.90,99.00"/><path d="M150.51,99.06L150.41,99.07"/><path d="M151.50,107.23L151.45,107.26L151.36,105.16"/><path d="M150.69,107.26L150.72,107.28L150.79,107.30L150.99,107.32L151.23,107.31L151.33,107.29L151.45,107.26L151.38,107.34"/><path d="M151.03,99.06L150.91,99.03"/><path d="M151.02,98.98L151.16,98.96L151.10,98.94"/><path d="M150.90,98.97L150.78,98.98L150.68,98.97"/><path d="M150.68,99.04L150.64,99.04L150.62,99.00"/><path d="M150.91,99.08L150.91,99.08"/><path d="M150.89,99.02L150.89,99.07"/><path d="M150.59,99.05L150.64,99.04"/><path d="M150.59,99.00L150.59,99.01"/><path d="M151.30,98.90L151.34,98.91"/></g><g style="stroke:#000000;stroke-width:0.123"><path d="M149.98,99.08L149.99,99.04L150.01,99.02L150.10,98.97L150.26,98.93L150.45,98.90L150.67,98.88L150.98,98.87L151.18,98.88L151.34,98.91"/><path d="M151.42,105.15L151.51,107.21L151.50,107.23L151.40,107.33L151.35,107.35L151.27,107.37L151.08,107.39L150.98,107.39L150.86,107.38L150.79,107.35L150.68,107.25L150.60,105.28"/><path d="M151.34,98.91L151.45,98.94L151.49,98.98L151.50,99.01"/></g></g><g id="Actor_.22"><g style="stroke:#000000;stroke-width:0.018"><path d="M104.43,90.34L104.44,90.33L104.44,90.33L104.45,90.34L104.40,90.37L104.36,90.40L104.33,90.44L104.31,90.48L104.29,90.53L104.28,90.57L104.28,90.62L104.28,90.66L104.30,90.71L104.32,90.76L104.35,90.80L104.39,90.85L104.43,90.89L104.48,90.93L104.53,90.96L104.59,91.00L104.66,91.03L104.72,91.05L104.79,91.07L104.87,91.09L104.94,91.10L105.01,91.11L105.08,91.11L105.16,91.10L105.22,91.10L105.29,91.08L105.35,91.06L105.41,91.04L105.46,91.01L105.47,91.02L105.48,91.03L105.48,91.05L105.47,91.11"/><path d="M104.25,90.58L104.24,90.63L104.25,90.67L104.26,90.72L104.28,90.77L104.31,90.81L104.34,90.86L104.38,90.90L104.43,90.94L104.48,90.98L104.54,91.02L104.60,91.05L104.67,91.08L104.74,91.10L104.81,91.12L104.88,91.13L104.95,91.14L105.03,91.15L105.10,91.15L105.17,91.14L105.24,91.13L105.31,91.12L105.37,91.10L105.43,91.08L105.48,91.05L105.52,91.02L105.56,90.98L105.60,90.95L105.62,90.90L105.64,90.86L105.65,90.82"/><path d="M104.45,90.34L104.50,90.31L104.56,90.29L104.62,90.27L104.68,90.26L104.75,90.25L104.82,90.24L104.90,90.25L104.97,90.25L105.04,90.26L105.11,90.28L105.18,90.30L105.25,90.33L105.31,90.35L105.37,90.39L105.43,90.42L105.48,90.46L105.52,90.50L105.56,90.55L105.59,90.59L105.61,90.64L105.62,90.69L105.63,90.73L105.63,90.78L105.62,90.82L105.60,90.87L105.58,90.90L105.58,90.91L105.54,90.95L105.51,90.98L105.46,91.01"/><path d="M104.26,90.53L104.26,90.53"/><path d="M104.63,90.71L104.68,90.75L104.72,90.74L104.74,90.66L104.54,90.69L104.57,90.68L104.59,90.69L104.61,90.69L104.63,90.71L104.66,90.75L104.58,90.76L104.54,90.69"/><path d="M105.12,90.90L105.13,90.91L105.14,90.92L105.15,90.93L105.08,90.80L105.06,90.91L105.11,90.90L105.12,90.90"/><path d="M105.06,90.91L105.05,90.91L105.07,90.76L105.07,90.78L105.08,90.80"/><path d="M105.15,90.93L105.04,90.95L104.97,90.82L104.98,90.79L105.02,90.78L105.04,90.77L105.07,90.75L105.08,90.74L105.09,90.73L105.10,90.71L105.11,90.71L105.13,90.61L105.33,90.59L105.30,90.60L105.27,90.61L105.25,90.62L105.22,90.64L105.15,90.69L105.14,90.69L105.12,90.70L105.11,90.71"/><path d="M105.05,90.91L105.02,90.91"/><path d="M105.15,90.69L105.25,90.68L105.22,90.64"/><path d="M105.33,90.59L105.37,90.67L105.25,90.68"/><path d="M105.13,90.61L105.10,90.62L105.07,90.61L105.04,90.61L105.02,90.60L104.99,90.59L104.97,90.57L104.95,90.56L104.94,90.54L104.92,90.65L104.93,90.68L104.94,90.71L104.95,90.74L104.97,90.77L104.98,90.79"/><path d="M104.94,90.54L104.87,90.40L104.88,90.43L104.89,90.45L104.89,90.48L104.92,90.65"/><path d="M104.87,90.40L104.76,90.42L104.81,90.52L104.90,90.50"/><path d="M104.72,90.74L104.78,90.74L104.81,90.73L104.83,90.74L104.86,90.74L104.89,90.75L104.92,90.76L104.94,90.78L104.96,90.80L104.97,90.82"/><path d="M104.81,90.74L104.84,90.59L104.83,90.61L104.82,90.62L104.81,90.64L104.79,90.65L104.76,90.66L104.74,90.66"/><path d="M104.84,90.59L104.83,90.57L104.83,90.55L104.81,90.52"/><path d="M104.66,90.75L104.68,90.75"/><path d="M105.07,90.76L105.07,90.75"/><path d="M104.81,90.24L104.80,90.24"/><path d="M104.95,90.24L104.95,90.24"/><path d="M105.66,90.77L105.66,90.77"/></g><g style="stroke:#000000;stroke-width:0.123"><path d="M104.80,90.24L104.73,90.24L104.67,90.25L104.60,90.27L104.54,90.28L104.48,90.31L104.43,90.34L104.38,90.37L104.34,90.41L104.31,90.44L104.28,90.49L104.26,90.53L104.25,90.58L104.24,90.64"/><path d="M105.64,90.88L105.65,90.82L105.66,90.77L105.65,90.72L105.64,90.67L105.62,90.62L105.59,90.57L105.56,90.53L105.51,90.48L105.47,90.44L105.42,90.40L105.36,90.37L105.30,90.34L105.23,90.31L105.16,90.29L105.09,90.27L105.02,90.25L104.95,90.24"/><path d="M104.95,90.24L104.88,90.24L104.81,90.24"/></g></g><g id="Actor_.23"><g style="stroke:#000000;stroke-width:0.018"><path d="M131.04,88.03L131.06,87.97L131.06,87.96L131.05,87.95L131.04,87.93L131.00,87.96L130.95,87.98L130.89,88.00L130.84,88.01L130.77,88.02L130.71,88.02L130.64,88.02L130.58,88.01L130.51,88.00L130.44,87.99L130.37,87.97L130.31,87.94L130.25,87.92L130.19,87.89L130.14,87.85L130.09,87.81L130.04,87.77L130.00,87.73L129.97,87.69L129.95,87.65L129.93,87.60L129.92,87.56L129.92,87.52L129.92,87.47L129.93,87.43L129.95,87.40L129.97,87.36L130.01,87.33L130.04,87.30L130.04,87.30L130.03,87.30L130.02,87.30"/><path d="M131.19,87.79L131.17,87.83L131.16,87.87L131.13,87.91L131.10,87.94L131.06,87.97L131.01,88.00L130.96,88.02L130.91,88.04L130.85,88.05L130.79,88.06L130.73,88.06L130.66,88.06L130.59,88.06L130.52,88.05L130.45,88.03L130.39,88.01L130.32,87.99L130.26,87.96L130.20,87.93L130.14,87.90L130.09,87.87L130.04,87.83L130.00,87.79L129.96,87.74L129.93,87.70L129.91,87.66L129.89,87.61L129.88,87.57L129.88,87.52L129.89,87.48"/><path d="M130.67,87.67L130.66,87.68L130.66,87.70L130.66,87.72L130.67,87.73L130.65,87.83L130.70,87.83L130.72,87.83L130.73,87.83L130.74,87.84L130.75,87.86L130.65,87.87L130.57,87.75L130.56,87.73L130.58,87.72L130.62,87.70L130.65,87.69L130.67,87.67L130.67,87.67L130.70,87.56L130.88,87.54L130.85,87.54L130.83,87.55L130.80,87.57L130.78,87.58L130.71,87.64L130.70,87.64L130.68,87.65L130.67,87.67"/><path d="M130.75,87.86L130.67,87.73"/><path d="M130.65,87.83L130.63,87.84"/><path d="M130.66,87.68L130.63,87.83"/><path d="M130.04,87.30L130.09,87.27L130.14,87.25L130.19,87.24L130.25,87.22L130.31,87.22L130.38,87.21L130.44,87.21L130.51,87.22L130.58,87.23L130.65,87.25L130.71,87.27L130.78,87.29L130.84,87.32L130.90,87.35L130.95,87.38L131.00,87.42L131.04,87.46L131.08,87.50L131.11,87.54L131.14,87.59L131.16,87.63L131.17,87.67L131.17,87.72L131.17,87.76L131.16,87.80L131.14,87.84L131.11,87.87L131.08,87.91L131.04,87.93"/><path d="M129.90,87.44L129.90,87.44"/><path d="M130.71,87.64L130.72,87.64L130.74,87.63L130.81,87.62L130.78,87.58"/><path d="M130.70,87.56L130.67,87.56L130.64,87.56L130.62,87.55L130.59,87.55L130.57,87.53L130.55,87.52L130.53,87.50L130.51,87.49L130.49,87.60L130.49,87.63L130.50,87.66L130.52,87.69L130.53,87.70L130.54,87.71L130.56,87.73"/><path d="M130.53,87.70L130.52,87.70L130.49,87.69L130.47,87.68L130.44,87.67L130.41,87.67L130.39,87.67L130.32,87.68L130.34,87.60L130.16,87.62L130.21,87.69L130.27,87.69L130.25,87.65L130.23,87.63L130.21,87.63L130.19,87.62L130.16,87.62"/><path d="M130.51,87.49L130.44,87.36L130.45,87.38L130.45,87.41L130.46,87.43L130.47,87.46L130.49,87.60"/><path d="M130.47,87.46L130.39,87.47L130.33,87.38L130.44,87.36"/><path d="M130.32,87.68L130.29,87.69L130.25,87.65"/><path d="M130.39,87.67L130.42,87.55L130.42,87.57L130.41,87.57L130.40,87.58L130.39,87.59L130.37,87.60L130.34,87.60"/><path d="M130.27,87.69L130.29,87.69"/><path d="M130.39,87.47L130.41,87.50L130.42,87.52L130.43,87.53L130.42,87.55"/><path d="M131.19,87.78L131.19,87.75"/><path d="M130.88,87.54L130.92,87.61L130.81,87.62"/></g><g style="stroke:#000000;stroke-width:0.123"><path d="M129.87,87.54L129.89,87.48L129.90,87.44L129.92,87.40L129.95,87.36L129.98,87.33L130.02,87.30L130.07,87.27L130.12,87.25L130.17,87.23L130.23,87.22L130.29,87.21L130.36,87.21L130.42,87.21L130.49,87.21L130.56,87.22L130.62,87.24L130.69,87.25L130.75,87.28L130.82,87.30L130.88,87.33L130.93,87.36L130.98,87.40L131.03,87.44L131.07,87.48L131.11,87.52L131.14,87.57L131.16,87.61L131.18,87.66L131.19,87.70L131.19,87.75L131.19,87.79"/><path d="M131.17,87.85L131.19,87.79"/></g></g><g id="Actor_.24"><g style="stroke:#000000;stroke-width:0.018"><path d="M121.83,103.20L121.84,103.20L121.72,103.25L121.69,103.29L121.69,103.32L121.70,103.33L121.75,103.36"/><path d="M121.83,103.20L121.83,103.20"/><path d="M121.84,103.20L122.02,103.16L122.25,103.12L122.58,103.10L122.82,103.10L123.08,103.12L123.20,103.16L123.22,103.17L123.24,103.20L123.22,103.24L123.17,103.27"/><path d="M121.65,103.35L121.65,103.33"/><path d="M122.87,103.18L122.93,103.20L122.79,103.22L122.81,103.20L122.87,103.18L122.62,103.21L122.49,103.22L122.42,103.21L122.32,103.17L122.35,103.19L122.38,103.24L122.31,103.25L122.32,103.29L122.21,103.30L122.21,103.28L121.99,103.31L122.02,103.31L122.08,103.32L122.05,103.33L121.99,103.31"/><path d="M122.32,103.17L122.20,103.19L122.31,103.24L122.29,103.26L122.21,103.28"/><path d="M122.31,103.25L122.31,103.24"/><path d="M122.21,103.30L122.08,103.32"/><path d="M122.32,103.29L122.40,103.29L122.38,103.24"/><path d="M122.61,112.00L122.65,112.02L122.73,112.04L122.95,112.06L123.20,112.04L123.40,111.99L123.32,112.08"/><path d="M123.48,111.94L123.40,111.99L123.25,109.76"/><path d="M123.27,103.24L123.27,103.24"/><path d="M122.62,103.33L122.72,103.32L122.59,103.33L122.62,103.33L122.62,103.28L122.61,103.27L122.61,103.33"/><path d="M122.65,103.21L122.65,103.24L122.79,103.22"/><path d="M122.65,103.24L122.62,103.25L122.61,103.27"/><path d="M122.42,103.21L122.43,103.29L122.50,103.30L122.59,103.33"/><path d="M122.72,103.32L122.62,103.28"/><path d="M122.43,103.29L122.40,103.29"/></g><g style="stroke:#000000;stroke-width:0.123"><path d="M123.28,103.24L123.26,103.20L123.22,103.17L123.15,103.14L123.06,103.12L122.79,103.10L122.47,103.10L122.08,103.15L121.83,103.20L121.74,103.24L121.68,103.27L121.66,103.30L121.65,103.35"/><path d="M122.46,109.89L122.60,111.99L122.72,112.09L122.80,112.12L122.99,112.13L123.20,112.11L123.29,112.09L123.37,112.05L123.49,111.93L123.34,109.75"/></g></g><g id="Actor_.25"><g style="stroke:#000000;stroke-width:0.018"><path d="M96.88,87.39L133.10,83.37L133.44,82.89L95.93,87.02L96.88,87.39L96.97,87.46"/><path d="M95.93,87.02L95.30,86.93"/><path d="M97.02,87.45L98.92,88.20L132.39,84.42L133.07,83.43L97.02,87.45"/><path d="M97.00,87.45L97.00,87.44"/><path d="M98.92,88.20L99.02,88.27"/><path d="M99.04,88.26L100.82,88.98"/><path d="M99.05,88.25L132.33,84.48L131.71,85.40L100.82,88.96"/><path d="M131.69,85.47L100.85,89.03"/><path d="M132.35,84.48L132.37,84.48"/><path d="M133.07,83.43L133.09,83.43"/><path d="M133.45,82.88L133.62,82.72"/></g><g style="stroke:#000000;stroke-width:0.123"><path d="M95.30,86.93L133.62,82.73"/></g></g><g id="Actor_.26"><g style="stroke:#000000;stroke-width:0.018"><path d="M95.29,86.93L101.85,99.61L102.33,99.36L95.91,87.02"/><path d="M96.99,87.45L103.16,99.24L104.64,99.04L98.93,88.25"/><path d="M96.88,87.44L103.06,99.25L102.33,99.36"/><path d="M99.04,88.26L104.74,99.03L104.72,99.07"/><path d="M101.85,99.61L101.85,99.71"/><path d="M103.55,101.40L102.90,100.14"/><path d="M103.16,99.25L103.14,99.29"/><path d="M103.55,101.39L103.57,100.41"/><path d="M104.74,99.03L106.10,98.85"/></g><g style="stroke:#000000;stroke-width:0.123"><path d="M101.85,99.71L95.28,87.01L95.29,86.93L95.91,87.02L96.86,87.40L96.91,87.46L96.95,87.47L97.00,87.45L98.91,88.21L98.96,88.27L99.00,88.28L99.05,88.26L100.81,88.96L106.10,98.85"/><path d="M103.56,101.40L102.90,100.14"/></g></g><g id="Actor_.27"><g style="stroke:#000000;stroke-width:0.018"><path d="M161.73,99.31L117.95,106.07"/><path d="M161.00,99.10L118.24,105.67"/><path d="M119.10,106.02L159.08,99.83"/><path d="M159.72,99.09L118.77,105.37"/><path d="M118.77,105.39L159.73,99.11"/><path d="M119.24,107.85L120.75,107.61L120.41,107.67"/><path d="M119.23,107.84L159.14,101.51"/><path d="M119.76,104.80L157.30,99.08"/><path d="M157.31,99.10L119.75,104.83"/><path d="M149.55,103.05L150.59,102.88L120.75,107.61"/><path d="M156.33,101.97L150.59,102.88"/><path d="M155.82,102.05L159.11,101.53"/></g><g style="stroke:#000000;stroke-width:0.123"><path d="M120.41,107.67L119.24,107.85L119.10,106.02L117.96,106.19L117.95,106.07L118.24,105.67L120.60,104.32L155.22,99.07L161.00,99.10L161.73,99.31L161.73,99.42L159.08,99.83L159.11,101.53L156.33,101.97"/></g></g><g id="Actor_.28"><g style="stroke:#000000;stroke-width:0.018"><path d="M101.85,99.61L117.95,106.07L117.96,106.19L103.57,100.41"/><path d="M102.33,99.36L118.24,105.67L117.95,106.07"/><path d="M103.16,99.25L118.76,105.37L118.76,105.39"/><path d="M103.14,99.29L118.70,105.40L118.24,105.67"/><path d="M103.56,101.40L103.57,101.40"/><path d="M103.55,101.39L119.22,107.83L119.10,106.02"/><path d="M105.36,102.14L119.23,107.85L119.23,107.84"/><path d="M104.74,99.03L119.75,104.80L120.59,104.32"/><path d="M104.72,99.07L119.69,104.84L118.77,105.37"/><path d="M119.24,107.85L119.23,107.85"/><path d="M119.76,104.80L119.75,104.83"/></g><g style="stroke:#000000;stroke-width:0.123"><path d="M105.36,102.14L103.56,101.40L103.57,100.41L101.85,99.71L101.85,99.61L102.33,99.36L103.06,99.26L103.14,99.29L103.16,99.25L104.64,99.04"/><path d="M104.64,99.04L104.72,99.07L104.74,99.03L106.10,98.85L120.59,104.32"/></g></g><g id="Actor_.29"><g style="stroke:#000000;stroke-width:0.018"><path d="M132.34,84.49L138.95,94.37L137.76,94.53L131.70,85.40"/><path d="M137.76,94.53L137.75,94.62L132.02,85.98"/><path d="M132.38,84.42L139.03,94.36L139.02,94.39"/><path d="M133.44,82.89L141.02,94.09L140.39,94.17L133.10,83.37"/><path d="M139.03,94.36L140.30,94.19L133.07,83.44"/><path d="M140.39,94.17L140.38,94.20"/></g><g style="stroke:#000000;stroke-width:0.123"><path d="M132.34,84.49L132.34,84.48L131.70,85.40L131.69,85.48L132.02,85.98"/><path d="M132.35,84.49L132.38,84.42L133.06,83.43L133.07,83.44"/><path d="M133.07,83.44L133.10,83.37L133.44,82.89L133.61,82.72"/><path d="M141.39,94.18L133.62,82.72"/></g></g><g id="Actor_.30"><g style="stroke:#000000;stroke-width:0.018"><path d="M137.76,94.53L155.22,99.07L157.30,99.08L157.31,99.10"/><path d="M159.73,99.11L159.72,99.09L157.45,99.08L139.03,94.36"/><path d="M139.02,94.39L157.30,99.08"/><path d="M154.97,99.11L139.76,95.15"/><path d="M161.00,99.10L159.87,99.09L140.39,94.17"/><path d="M140.38,94.20L159.72,99.09"/></g><g style="stroke:#000000;stroke-width:0.123"><path d="M139.76,95.15L137.76,94.62L137.76,94.53L138.94,94.37L139.02,94.39L139.03,94.36L140.30,94.19L140.38,94.20L140.39,94.17L141.02,94.09L161.00,99.10L161.73,99.31L161.73,99.42"/><path d="M159.08,99.83L159.14,101.51L159.11,101.53"/></g></g><g id="Actor_.31"><g style="stroke:#000000;stroke-width:0.018"><path d="M106.41,98.96L137.91,94.66"/><path d="M138.00,94.69L106.49,98.99"/><path d="M137.68,100.98L137.68,100.88L134.74,101.31L134.98,101.39"/><path d="M137.68,100.88L139.54,101.45"/></g><g style="stroke:#000000;stroke-width:0.123"><path d="M139.31,101.48L137.68,100.98L134.98,101.39L136.58,101.90"/></g></g><g id="Actor_.32"><g style="stroke:#000000;stroke-width:0.018"><path d="M132.91,68.98L134.97,69.14L138.02,68.89"/><path d="M133.13,68.97L133.13,68.99L133.20,68.99L133.50,68.99L133.82,68.96L133.90,68.95L133.91,68.94L133.84,68.93L133.53,68.94L133.26,68.96L133.13,68.97"/><path d="M133.53,68.99L133.53,68.94"/><path d="M135.03,69.79L134.98,69.77L134.94,69.68L134.91,69.54L134.89,69.36L134.93,69.54L135.03,69.68L135.16,69.76L135.32,69.79"/><path d="M133.87,69.33L133.93,69.35L134.07,69.36L134.29,69.37L134.57,69.37L134.89,69.36"/><path d="M136.79,68.94L136.26,68.90L136.35,68.87L136.34,68.85L136.24,68.84L136.08,68.83L135.85,68.83L135.29,68.84L134.70,68.88L134.45,68.90L134.26,68.92L134.13,68.95L134.08,68.97L134.11,68.99L134.22,69.00L134.41,69.01L134.65,69.01L135.01,69.00L135.57,69.04L135.65,69.04L135.88,69.03L136.69,68.96L136.78,68.96L136.81,68.95L136.79,68.94L136.79,68.95"/><path d="M135.18,69.06L134.86,69.09L134.78,69.10L134.77,69.11L134.85,69.12L135.16,69.12L135.18,69.11L135.18,69.06L135.35,69.06L135.49,69.06L135.56,69.06L135.56,69.08L135.48,69.09L135.18,69.11"/><path d="M134.97,69.14L134.98,69.37L133.87,69.28"/><path d="M134.98,69.37L135.38,69.34L135.38,69.40L134.98,69.37"/><path d="M135.42,69.58L135.38,69.40L135.49,69.41L135.65,69.40L136.00,69.38L135.99,69.56L135.96,69.71L135.89,69.80L135.82,69.83L135.66,69.81L135.52,69.72L135.42,69.58"/><path d="M136.63,69.76L136.71,69.73L136.77,69.64L136.81,69.49L136.81,69.32L136.00,69.38L136.00,69.29L135.38,69.34"/><path d="M135.92,68.75L136.05,68.75L136.12,68.76L136.12,68.77L136.04,68.78L135.90,68.80L135.55,68.81L135.42,68.81L135.35,68.81L135.35,68.80L135.43,68.78L135.57,68.77L135.92,68.75"/><path d="M135.74,68.76L135.74,68.81"/><path d="M136.00,69.29L136.81,69.22L136.81,69.32L136.95,69.30L137.04,69.29L137.06,69.28"/><path d="M136.81,69.22L137.06,69.20"/><path d="M136.29,68.90L136.29,68.93"/><path d="M136.26,68.90L136.27,68.93"/><path d="M137.10,68.91L137.02,68.92L137.01,68.93L137.09,68.94L137.40,68.93L137.72,68.91L137.80,68.89L137.80,68.88L137.72,68.88L137.59,68.88L137.41,68.88L137.10,68.91"/><path d="M137.41,68.88L137.41,68.93"/></g><g style="stroke:#000000;stroke-width:0.123"><path d="M132.91,68.98L132.92,69.21L133.87,69.28L133.87,69.33L133.92,69.50L134.03,69.65L134.18,69.74L134.22,69.75L134.43,69.78L134.57,69.79L134.78,69.79L135.20,69.78L135.32,69.79L135.82,69.83L136.63,69.76L136.85,69.69L136.96,69.58L137.01,69.52L137.06,69.34L137.06,69.28L137.06,69.20L138.03,69.12L138.02,68.89L135.93,68.74L132.91,68.98"/></g></g><g id="Actor_.33"><g style="stroke:#000000;stroke-width:0.018"><path d="M134.37,68.95L134.39,68.97L134.50,68.98L134.68,68.98L134.91,68.98L135.18,68.97L135.19,69.01"/><path d="M134.61,68.97L134.75,68.97L134.95,68.97L135.18,68.96L135.42,68.95L135.63,68.93L135.79,68.91L135.83,68.91L135.82,68.87L135.68,68.86L135.48,68.86L135.25,68.87L135.02,68.88L134.81,68.90L134.65,68.92L134.55,68.94L134.54,68.95L134.61,68.97"/><path d="M135.18,68.97L135.82,69.02L135.82,69.03"/><path d="M135.82,69.02L136.63,68.95"/><path d="M135.82,68.87L135.89,68.88L135.88,68.89L135.83,68.91"/><path d="M136.06,68.91L135.97,68.91L136.06,68.88L136.06,68.87"/></g><g style="stroke:#000000;stroke-width:0.123"><path d="M136.06,68.91L136.06,68.87L135.97,68.86L135.81,68.85L135.58,68.85L135.32,68.86L135.05,68.87L134.79,68.89L134.58,68.91L134.43,68.93L134.37,68.95L134.37,69.01"/><path d="M136.63,68.97L136.63,68.96L136.06,68.91"/></g></g><g id="Actor_.34"><g style="stroke:#000000;stroke-width:0.018"><path d="M120.67,110.19L120.65,109.97"/></g><g style="stroke:#000000;stroke-width:0.123"><path d="M120.16,109.97L120.67,110.19L122.79,109.84L122.78,109.73"/></g></g><g id="Actor_.35"><g style="stroke:#000000;stroke-width:0.018"><path d="M154.33,104.67L154.32,104.57"/></g><g style="stroke:#000000;stroke-width:0.123"><path d="M154.33,104.67L156.16,104.37L156.16,104.26"/></g></g><g id="Actor_.36"><g style="stroke:#000000;stroke-width:0.018"><path d="M122.79,109.84L122.78,109.73"/></g><g style="stroke:#000000;stroke-width:0.123"><path d="M122.79,109.84L154.33,104.67L154.32,104.57"/></g></g><g id="Actor_.37"><g style="stroke:#000000;stroke-width:0.018"><path d="M122.08,109.84L122.15,109.81L122.16,109.61L122.03,108.82L156.87,103.19L156.90,102.93L122.04,108.54L122.03,108.82L120.96,108.94L119.89,108.95L119.24,108.88L118.79,108.77L118.79,108.61L118.71,108.48L119.60,108.65L120.91,108.66L122.04,108.54L122.13,108.31L120.99,108.44L120.12,108.47L119.34,108.43L118.57,108.30L103.76,102.10L103.69,102.22L103.72,102.31L102.51,99.98"/><path d="M104.00,102.58L103.83,102.40L103.97,102.68L104.00,102.58"/><path d="M103.83,102.40L103.72,102.31"/><path d="M118.93,107.72L118.63,107.64L118.53,107.67L118.39,107.80L118.34,107.91L118.38,108.18L118.71,108.48L104.00,102.33L104.08,102.52L103.92,103.17L103.96,103.21L103.93,103.15"/><path d="M104.08,102.58L118.79,108.77L118.65,109.55L118.70,109.70L118.82,109.78"/><path d="M103.73,103.30L103.76,103.11L103.97,102.68"/><path d="M103.98,103.35L103.98,103.02"/><path d="M103.75,102.08L103.68,102.03L103.65,101.88L103.72,101.71L103.85,101.60L103.80,101.50"/><path d="M103.79,102.14L104.00,102.33"/><path d="M103.85,101.60L103.92,101.58L118.63,107.64"/><path d="M103.92,101.58L103.98,101.57"/><path d="M103.90,102.24L103.91,102.24"/><path d="M121.99,107.69L156.87,102.14L156.97,102.22L157.06,102.47L157.02,102.71L122.13,108.31L122.14,107.95L121.99,107.69L120.87,107.81L119.54,107.80"/><path d="M156.89,104.14L156.97,104.11L157.00,103.93L156.87,103.19L157.71,102.98L157.88,102.87L157.93,102.74"/><path d="M157.96,102.57L157.63,102.76L156.90,102.93L157.02,102.71L157.77,102.54L158.19,102.33"/><path d="M157.91,102.67L157.92,102.64"/><path d="M156.88,102.14L157.62,101.96L157.85,101.86L157.98,101.71"/></g><g style="stroke:#000000;stroke-width:0.123"><path d="M158.14,101.68L158.29,101.87L158.31,102.11L158.19,102.33L157.93,102.61L157.92,102.70L158.11,103.25L158.14,103.59L158.05,103.74L157.87,103.88L157.28,104.07L122.10,109.84L121.10,109.95L120.10,109.97L119.41,109.92L118.80,109.77L104.06,103.45L103.98,103.35L103.76,103.34L101.88,99.73"/></g></g><g><g><path style="stroke:#000000;stroke-width:0.250;stroke-dasharray:2.2 2.2" d="M137.23,101.46L135.48,69.34"/></g></g><g><g><path style="stroke:#000000;stroke-width:0.250;stroke-dasharray:2.2 2.2" d="M211.73,156.04L212.06,108.99"/></g></g><g id="PMI14.0"><g><path style="stroke:#000000;stroke-width:0.250" d="M117.17,74.27L117.46,82.53"/></g><g><path style="fill:#000000" d="M116.47,82.57L118.46,82.50L117.53,84.54z"/></g><g><path style="fill:#ffffff" d="M107.40,74.28L126.75,74.28L126.75,68.63L107.40,68.63z"/><path style="stroke:#000000;stroke-width:0.250;stroke-opacity:0.98" d="M107.40,74.28L126.75,74.28L126.75,68.63L107.40,68.63z"/><text xml:space="preserve" fill="#000000" stroke-width="0" x="108.11" y="72.69" font-size="3.43" opacity="1.00" font-family="MS Shell Dlg">6G0000021</text></g></g><g id="PMI16.0"><g><path style="stroke:#000000;stroke-width:0.250" d="M146.45,69.38L138.07,69.46"/></g><g><path style="fill:#000000" d="M138.06,68.46L138.08,70.46L136.07,69.48z"/></g><g><path style="fill:#ffffff" d="M146.45,72.12L165.01,72.12L165.01,66.48L146.45,66.48z"/><path style="stroke:#000000;stroke-width:0.250;stroke-opacity:0.98" d="M146.45,72.12L165.01,72.12L165.01,66.48L146.45,66.48z"/><text xml:space="preserve" fill="#000000" stroke-width="0" x="147.15" y="70.53" font-size="3.43" opacity="1.00" font-family="MS Shell Dlg">CMS30013</text></g></g><g id="PMI15.0"><g><path style="stroke:#000000;stroke-width:0.250" d="M211.19,176.63L210.82,169.75"/></g><g><path style="fill:#000000" d="M211.81,169.68L209.81,169.79L210.70,167.74z"/></g><g><path style="fill:#ffffff" d="M201.65,182.25L221.00,182.25L221.00,176.61L201.65,176.61z"/><path style="stroke:#000000;stroke-width:0.250;stroke-opacity:0.98" d="M201.65,182.25L221.00,182.25L221.00,176.61L201.65,176.61z"/><text xml:space="preserve" fill="#000000" stroke-width="0" x="202.35" y="180.66" font-size="3.43" opacity="1.00" font-family="MS Shell Dlg">6G0000011</text></g></g><g id="PMI16.1"><g><path style="stroke:#000000;stroke-width:0.250" d="M220.51,109.31L214.97,109.24"/></g><g><path style="fill:#000000" d="M214.98,108.24L214.95,110.24L212.97,109.22z"/></g><g><path style="fill:#ffffff" d="M220.50,112.24L239.06,112.24L239.06,106.60L220.50,106.60z"/><path style="stroke:#000000;stroke-width:0.250;stroke-opacity:0.98" d="M220.50,112.24L239.06,112.24L239.06,106.60L220.50,106.60z"/><text xml:space="preserve" fill="#000000" stroke-width="0" x="221.20" y="110.65" font-size="3.43" opacity="1.00" font-family="MS Shell Dlg">CMS30013</text></g></g><g id="paperID" visibility="hidden" opacity="0.00" transform="scale(0.000100)"><path style="stroke:#000000;stroke-width:0.500;fill:#e6e6e6;fill-rule:evenodd" d="M-2000.00,-2000.00L2297.00,-2000.00L2297.00,2210.00L-2000.00,2210.00zM0.00,0.00L297.00,0.00L297.00,210.00L0.00,210.00z"/><path style="fill:#000000;fill-opacity:0.118" d="M3.00,210.00L297.00,210.00L297.00,3.00L300.00,3.00L300.00,213.00L3.00,213.00z"/></g><g id="hotspot.0" onmouseover="ShowHotSpot(evt,'0')" onmouseout="HideHotSpot(evt,'0')" onmousemove="ShowToolTip(evt,'0',&quot;3dp773786&quot;)" opacity="0"><path style="fill:#00ff00;fill-rule:evenodd" d="M127.04,68.99L126.93,74.42L117.48,74.67L117.78,82.57L118.36,82.75L118.03,83.56L117.74,84.46L121.89,84.19L131.76,83.03L133.73,83.03L139.69,91.88L141.55,94.33L161.75,99.47L159.21,99.98L159.03,101.68L158.45,101.90L157.90,104.04L151.40,105.39L151.49,107.38L150.90,107.37L150.66,107.02L150.44,105.63L148.99,105.65L123.41,109.95L123.44,112.11L122.61,112.22L122.44,110.21L120.56,110.24L118.11,109.69L103.86,103.47L99.00,94.33L95.46,87.59L95.39,87.07L117.25,84.64L117.32,84.36L116.73,83.28L116.69,82.79L117.01,82.56L117.04,77.10L116.78,74.67L107.25,74.51L107.33,68.83L126.77,68.72zM133.10,69.30L133.62,69.01L138.06,69.02L137.42,69.29L136.87,69.83L134.03,69.81z"/></g><g id="hotspot.1" onmouseover="ShowHotSpot(evt,'1')" onmouseout="HideHotSpot(evt,'1')" onmousemove="ShowToolTip(evt,'1',&quot;3dp1118532&quot;)" opacity="0"><path style="fill:#00ff00;fill-rule:evenodd" d="M216.18,108.59L216.40,108.96L215.23,109.41L214.69,109.95L211.82,109.95L209.91,109.71L209.36,109.18L207.66,108.66L207.65,108.36L210.39,107.80L212.63,107.80zM243.63,151.93L239.47,153.57L239.29,154.74L238.14,155.20L237.40,156.38L237.31,158.15L226.57,161.95L226.35,162.53L225.03,162.48L195.60,172.71L195.14,173.36L194.34,173.21L194.06,172.94L192.42,172.71L189.20,171.08L146.66,145.77L146.40,144.14L145.32,142.79L144.80,141.70L141.78,140.07L141.73,139.84L184.82,129.59L185.43,129.58zM211.60,169.47L211.23,170.01L211.45,176.56L221.01,176.70L221.28,176.96L221.17,182.40L201.49,182.48L201.58,176.80L210.76,176.56L210.74,172.96L210.46,170.00L209.83,169.72L210.77,168.09z"/></g><g id="hotspot.2" onmouseover="ShowHotSpot(evt,'2')" onmouseout="HideHotSpot(evt,'2')" onmousemove="ShowToolTip(evt,'2',&quot;3dp777139&quot;)" opacity="0"><path style="fill:#00ff00;fill-rule:evenodd" d="M165.27,66.84L165.16,72.27L146.29,72.35L146.13,69.82L139.03,69.82L138.01,70.45L137.51,70.41L136.98,70.08L134.03,69.81L133.10,69.30L133.62,69.01L138.02,68.75L138.25,69.39L146.13,69.12L146.38,66.67L165.00,66.57zM239.32,106.96L239.21,112.39L220.34,112.47L220.18,109.67L214.97,109.70L214.79,110.28L209.91,109.71L209.36,109.18L207.66,108.66L207.65,108.36L210.39,107.80L212.63,107.80L216.14,108.59L216.42,108.85L220.18,108.97L220.42,106.79L239.05,106.69z"/></g></g></svg>
