<?xml version="1.0" encoding="UTF-8" standalone="no"?>
<svg xmlns="http://www.w3.org/2000/svg" xmlns:xlink="http://www.w3.org/1999/xlink" width="297.000mm" height="210.000mm" viewBox="0.000000 0.000000 297.000000 210.000000" stroke-linejoin="round" stroke-linecap="round" fill="none" fill-rule="evenodd"><desc>Composer Export</desc><script type="text/ecmascript"><![CDATA[
if(typeof(top) != "undefined")
{
	top.ShowPaper = ShowPaper;
}
function ShowHotSpot(evt,hotspotid)
{
	var svgDocument = evt.target.ownerDocument;
	var strId = "hotspot."+hotspotid;
	var hotspot = svgDocument.getElementById(strId);
	if(hotspot)
		hotspot.setAttribute("opacity",".5");
}
function HideHotSpot(evt,hotspotid)
{
	var svgDocument = evt.target.ownerDocument;
	var strId = "hotspot."+hotspotid;
	var hotspot = svgDocument.getElementById(strId);
	if(hotspot)
		hotspot.setAttribute("opacity","0");

	var toolTip = svgDocument.getElementById('ToolTip');
	if(toolTip)
		toolTip.setAttribute("visibility","hidden");
}
function ShowToolTip(evt,hotspotid,strTooltip)
{
	if(strTooltip=="")
	return;

	// change text
	var svgDocument = evt.target.ownerDocument;
	var tiptext = svgDocument.getElementById('ToolTipText');
	if( !tiptext )
	return;
	tiptext.firstChild.nodeValue = " " + strTooltip + "  " ;

	// show tooltip before, else some refresh issue

	var toolTip = svgDocument.getElementById('ToolTip');
	if(!toolTip)
	return;

	toolTip.setAttribute("visibility","visible");
	toolTip.setAttribute("opacity",".95");

	// move tooltip
	// get viewbox

	var root = svgDocument.documentElement;
	var vbox = (root.getAttribute("viewBox")).split(' ');
	var x0 = parseFloat(vbox[0]);
	var y0 = parseFloat(vbox[1]);
	var vboxW = parseFloat(vbox[2]);
	var vboxH = parseFloat(vbox[3]);

	// get default width of svg

	var strW = root.getAttribute("width");
	var svgW = parseFloat(strW);
	if(strW.indexOf('mm') != -1)
	svgW *= 3.779;

	var strH = root.getAttribute("height");
	var svgH = parseFloat(strH);
	if(strH.indexOf('mm') != -1)
	svgH *= 3.779;  	// 96 dpi  -> 96/25.4 = 3.779

	// update the viewbox / width / height if svg is embedded in html with zoom fit all
	var realx0 = x0;
	var realy0 = y0;
	var realvboxW = vboxW;
	var realvboxH = vboxH;
	var realsvgW = svgW;
	var realsvgH = svgH;

	if ((typeof(top) == "undefined") || (typeof(top.svgctl1) != "undefined")) // embedded in html
	{
		// get window size in pxl

		svgW = window.innerWidth;
		svgH = window.innerHeight;

		// calculate real viewbox

		realsvgW = svgW;
		realsvgH = svgH;
		if((svgW / svgH) > (vboxW / vboxH))
		{
			realvboxW = (vboxH * svgW) / svgH;
			realvboxH = vboxH;
			realx0 = x0 - (realvboxW - vboxW)/2 ;
		}
		else
		{
			realvboxH = (vboxW * svgH) / svgW;
			realvboxW = vboxW;
			realy0 = y0 - (realvboxH - vboxH)/2 ;
		}
	}

	// get user zoom/pan

	var newScale = root.currentScale;
	var translation = root.currentTranslate;

	// transform pxl to user unit

	var xPos = (((evt.clientX+10- translation.x)/newScale) * realvboxW)/realsvgW  + realx0 ;
	var yPos = (((evt.clientY+5- translation.y)/newScale) * realvboxH)/ realsvgH  + realy0 ;
	var scaleForWidth = ( (1 / newScale) * realvboxH) / realsvgH;

	// move tooltip

	toolTip.setAttribute("transform", "translate(" + xPos + "," + yPos + ")" );

	// resize tooltip

	var fontsize = 12;
	tiptext.setAttribute("font-size",fontsize*scaleForWidth);
	tiptext.setAttribute("y", fontsize*scaleForWidth);
	var tipBG = svgDocument.getElementById('ToolTipBG');
	var outline = tiptext.getBBox();
	if(tipBG)
	{
		tipBG.setAttribute("stroke-width", 1*scaleForWidth);
		tipBG.setAttribute("width", Number(outline.width) );
		tipBG.setAttribute("height", Number(outline.height) + fontsize*.5*scaleForWidth );
	}
	var ToolTipShadow = svgDocument.getElementById('ToolTipShadow');
	if(ToolTipShadow)
	{
		ToolTipShadow.setAttribute("width", Number(outline.width) );
		ToolTipShadow.setAttribute("height", Number(outline.height) + fontsize*.5*scaleForWidth );
		ToolTipShadow.setAttribute("x", 3*scaleForWidth);
		ToolTipShadow.setAttribute("y", 3*scaleForWidth);
	}
}
function ShowPaper()
{
  var svgDocument = getDocument();
  var paper = svgDocument.getElementById("paperID");
  if(paper)
  {
    paper.setAttribute("transform","scale(1)");
    paper.setAttribute("opacity","1");
    paper.setAttribute("visibility","visible");
  }
  var svg = svgDocument.getRootElement();
  if(svg)
  {
    svg.setAttribute("width","307.000mm");
    svg.setAttribute("height","220.000mm");
    svg.setAttribute("viewBox","-5.000000 -5.000000 307.000000 220.000000");
  }
}
]]></script><defs/><g><path style="fill:#ffffff" d="M296.92,209.87L0.08,209.87L0.08,0.08L296.92,0.08z"/><path style="fill:#0000ff" d="M93.62,69.98L94.98,71.13L89.70,71.52L88.67,71.77L87.13,72.79L86.21,74.18L85.94,75.44L85.92,76.92L86.25,77.59L86.44,79.22L87.24,80.97L88.78,82.25L90.99,82.81L91.16,82.72L92.52,82.78L92.94,82.19L93.91,81.93L94.39,90.72L94.64,92.01L94.79,94.98L94.64,95.93L93.29,96.36L87.73,96.36L86.89,96.17L86.47,94.99L86.73,90.83L86.98,90.56L86.70,81.00L85.45,79.95L84.39,78.45L83.89,76.13L83.89,74.93L84.13,73.38L85.19,71.62L86.96,70.06L88.16,69.47L89.19,69.22L91.58,69.21z"/><path style="fill:#5f5f5f" d="M199.88,58.46L205.48,61.82L206.55,63.82L206.19,67.49L207.56,68.70L208.32,71.52L208.32,74.42L207.81,76.47L207.21,77.15L205.94,77.41L205.73,77.71L205.69,83.57L204.64,85.07L203.65,85.62L197.49,86.12L197.08,87.75L195.53,88.51L191.95,88.68L188.85,88.17L186.82,87.13L183.22,86.89L181.97,86.10L178.13,82.51L177.36,81.49L177.18,77.63L178.39,77.65L178.90,78.19L179.30,78.20L179.91,76.98L179.90,73.06L179.18,70.94L178.91,70.75L178.02,71.26L177.19,71.39L177.11,66.05L177.36,65.46L177.58,61.60L178.64,59.84L179.56,59.23L180.59,58.98L186.97,58.44L187.24,58.19L188.90,58.12L189.04,59.31L189.34,59.52L191.68,60.01L194.42,60.00L197.23,59.74L197.85,59.08L197.99,57.87z"/><path style="fill:#e1e1e1" d="M165.74,68.28L168.14,68.69L168.11,72.09L167.81,72.31L167.66,75.55L167.55,75.62L105.91,79.80L95.24,80.34L95.58,77.04L96.79,77.76L97.47,77.95L98.41,77.94L99.41,77.39L100.29,76.23L100.30,74.57L99.26,73.56L97.38,73.30L96.53,73.68L95.59,74.59L95.25,76.23L93.66,74.56L92.10,73.83L91.41,73.68L90.82,73.29L90.45,73.28L89.92,73.74L88.67,74.33L87.36,75.33L86.25,77.59L85.92,76.92L85.94,75.44L86.21,74.18L87.13,72.79L88.67,71.77L89.70,71.52L94.98,71.13L165.61,66.82z"/><path style="fill:#fffe02" d="M94.69,184.90L95.16,186.23L95.17,190.41L94.92,190.68L94.65,196.81L93.64,198.86L93.53,199.89L96.71,199.63L96.85,198.24L99.27,198.24L99.41,199.38L102.50,199.28L103.70,199.14L103.86,199.29L104.09,202.33L103.85,203.27L103.29,203.38L99.41,203.62L99.27,205.01L97.12,205.28L96.97,203.88L93.78,204.13L93.55,207.74L90.28,207.75L88.26,206.69L87.99,206.45L87.73,205.17L87.48,202.10L87.46,198.83L88.26,197.85L88.25,191.08L87.97,190.34L87.63,185.70L88.94,184.68L89.30,184.59L89.50,186.76L90.01,187.27L92.76,187.24L93.38,186.58L93.51,184.34z"/><path style="fill:#f2a157" d="M198.11,7.74L198.37,8.00L200.08,14.23L200.63,14.43L200.39,21.16L199.55,21.60L194.93,21.85L192.71,21.85L189.03,21.43L189.12,15.52L189.32,14.70L189.90,14.00L192.11,7.77L193.40,7.51L197.06,7.51z"/><path style="fill:#f2a157" d="M257.00,24.38L257.24,24.65L258.77,30.80L258.26,37.04L257.99,37.80L252.36,37.98L248.50,37.49L247.93,37.29L248.18,31.57L251.26,24.42L252.28,24.16z"/><path style="fill:#f2a157" d="M195.96,33.70L196.57,33.93L196.59,34.20L195.44,34.39L193.22,34.39L192.07,34.20L192.70,32.68L192.93,26.51L193.14,26.20L196.05,26.19z"/><path style="fill:#f2a157" d="M196.53,38.25L197.34,39.77L197.07,41.65L196.24,42.87L191.92,42.86L191.44,42.57L190.90,41.58L190.93,39.36L191.62,38.25L192.36,37.97L195.79,37.97z"/><path style="fill:#f2a157" d="M196.81,48.99L197.59,50.02L197.30,54.17L196.99,54.39L196.97,55.21L198.08,55.65L197.99,57.87L197.85,59.08L197.23,59.74L194.42,60.00L191.68,60.01L189.34,59.52L189.04,59.31L188.90,58.12L189.13,55.73L190.18,54.96L190.16,54.36L189.84,53.72L189.88,50.26L190.11,49.99L190.07,49.53L191.33,48.72L196.04,48.73z"/><path style="fill:#f2a157" d="M174.05,55.10L174.29,55.37L176.34,61.26L176.83,61.54L176.97,66.05L176.83,67.75L175.75,68.47L174.44,68.69L174.52,71.28L177.19,71.39L178.02,71.26L178.91,70.75L179.18,70.94L179.90,73.06L179.91,76.98L179.30,78.20L178.90,78.19L178.39,77.65L177.18,77.63L174.43,77.91L174.17,78.16L169.65,78.19L168.66,77.65L167.85,76.66L167.66,75.55L167.81,72.31L168.11,72.09L168.14,68.69L165.74,68.28L165.61,66.82L165.83,61.88L166.31,61.60L168.38,55.21L170.61,54.88z"/><path style="fill:#f2a157" d="M253.65,56.66L254.69,57.42L254.44,62.67L253.82,63.08L253.30,67.75L254.17,68.14L253.66,72.39L253.30,72.80L251.26,73.06L248.77,73.07L248.27,72.77L238.44,73.58L237.27,73.30L236.47,72.05L236.21,69.82L236.91,67.92L237.67,67.41L243.42,66.93L245.88,66.91L247.00,66.75L247.24,65.20L247.21,62.32L246.89,61.81L247.50,57.01L248.68,56.40L252.62,56.42z"/><path style="fill:#f2a157" d="M93.66,74.56L95.25,76.23L95.58,77.04L95.24,80.34L93.91,81.93L92.94,82.19L93.64,81.35L93.63,79.20L92.89,77.63L92.10,77.14L90.20,77.14L89.68,77.39L89.03,78.28L89.00,80.50L89.26,81.26L90.04,82.27L91.16,82.72L90.99,82.81L88.78,82.25L87.24,80.97L86.44,79.22L86.25,77.59L87.36,75.33L88.67,74.33L89.92,73.74L91.41,73.68L92.10,73.83z"/><path style="fill:#f2a157" d="M92.52,82.78L91.16,82.72L92.94,82.19z"/><path style="fill:#f2a157" d="M86.89,96.17L87.73,96.36L93.29,96.36L94.64,95.93L94.79,94.98L94.85,96.64L94.14,97.21L93.88,99.77L92.96,100.18L90.71,100.47L88.31,100.18L87.46,99.95L87.25,97.35L86.45,96.87L86.47,94.99z"/><path style="fill:#f2a157" d="M94.92,177.76L95.18,179.80L95.43,180.07L95.43,181.72L94.80,182.36L93.45,183.12L92.26,183.44L89.37,183.36L87.75,182.37L87.48,182.12L87.50,180.18L87.74,179.92L88.00,177.87L89.05,176.67L89.24,178.06L89.75,178.57L90.81,178.81L91.75,178.81L93.26,178.27L93.61,177.50L93.49,176.42z"/><path style="fill:#f2a157" d="M105.16,198.02L107.48,197.97L107.74,198.23L107.98,203.74L107.38,204.16L105.54,204.37L105.06,205.17L104.03,205.27L103.85,203.27L104.09,202.33L103.86,199.29L103.70,199.14L103.78,197.49L104.65,197.20z"/><path style="fill:#0000ff" d="M91.41,73.68L89.92,73.74L90.45,73.28L90.82,73.29z"/><path style="fill:#0000ff" d="M96.95,75.11L96.79,77.76L95.58,77.04L95.25,76.23L95.59,74.59L96.53,73.68z"/><path style="fill:#0000ff" d="M92.89,77.63L93.63,79.20L93.64,81.35L92.94,82.19L91.16,82.72L90.04,82.27L89.26,81.26L89.00,80.50L89.03,78.28L89.68,77.39L90.20,77.14L92.10,77.14z"/><path style="fill:#e1e1e1" d="M174.44,68.69L175.75,68.47L176.83,67.75L176.97,66.05L177.11,66.05L177.19,71.39L174.52,71.28z"/><path style="fill:#e1e1e1" d="M90.71,100.47L92.96,100.18L93.49,176.42L93.61,177.50L93.26,178.27L91.75,178.81L90.81,178.81L89.75,178.57L89.24,178.06L89.05,176.67L88.31,100.18z"/><path style="fill:#e1e1e1" d="M92.26,183.44L93.45,183.12L93.51,184.34L93.38,186.58L92.76,187.24L90.01,187.27L89.50,186.76L89.30,184.59L89.37,183.36z"/><path style="fill:#ffffff" d="M99.26,73.56L100.30,74.57L100.29,76.23L99.41,77.39L98.41,77.94L97.47,77.95L96.79,77.76L96.95,75.11L96.53,73.68L97.38,73.30z"/><g id="Actor_.0"><g style="stroke:#000000;stroke-width:0.018"><path d="M165.63,62.14L169.64,62.76L169.69,69.16"/><path d="M168.29,55.49L168.29,55.54L168.33,55.58L168.41,55.63L168.52,55.67L168.69,55.71L169.05,55.78L167.63,62.18L167.63,62.42L167.12,62.32L166.91,62.26L166.59,62.14L166.48,62.08L166.41,62.01L166.38,61.94L166.38,61.74"/><path d="M166.38,61.70L166.41,61.77L166.48,61.83L166.58,61.90L166.90,62.02L167.36,62.13L167.93,62.22L168.99,62.32L169.79,62.37L170.63,62.38L171.50,62.38L172.36,62.35L173.19,62.29L173.96,62.22L174.95,62.07L175.47,61.96L175.84,61.83L176.00,61.76L176.10,61.70L176.17,61.63L176.20,61.56L176.18,61.43"/><path d="M167.63,62.42L168.26,62.51L168.99,62.57L169.79,62.61L170.64,62.63L171.94,62.61L172.78,62.57L173.58,62.51L174.64,62.37L175.22,62.26L175.68,62.14L176.00,62.01L176.10,61.94L176.17,61.87L176.20,61.80L176.20,61.56"/><path d="M169.05,55.78L169.84,55.85L170.79,55.89L171.55,55.88L172.43,55.83L173.26,55.74L173.81,55.64L174.01,55.58L174.12,55.53L174.18,55.48L174.21,55.44L174.21,55.39"/><path d="M173.07,55.67L172.56,55.74L171.99,55.79L171.18,55.81L170.45,55.81L169.89,55.78L169.23,55.70L168.94,55.62L168.85,55.58L168.80,55.54L168.78,55.50L168.81,55.45L168.87,55.41L168.97,55.37L169.28,55.29L169.48,55.25L170.24,55.16L170.82,55.13L171.44,55.12L172.32,55.14L173.07,55.20L173.26,55.23L173.55,55.30L173.65,55.34L173.70,55.39L173.72,55.43L173.70,55.47L173.64,55.52L173.54,55.56L173.41,55.60L173.07,55.67L173.07,55.20"/><path d="M169.64,62.76L175.37,62.45L175.38,68.84"/><path d="M175.37,62.45L176.92,61.54"/></g><g style="stroke:#000000;stroke-width:0.123"><path d="M165.69,68.47L165.63,62.14L166.38,61.74L166.39,61.63L168.29,55.49L168.33,55.44L168.51,55.35L168.65,55.31L169.03,55.22L169.80,55.13L170.40,55.08L171.05,55.05L172.03,55.05L172.64,55.08L173.19,55.12L173.82,55.22L174.08,55.30L174.16,55.34L174.21,55.39L176.18,61.43L176.91,61.54L176.93,67.83L175.38,68.84L169.69,69.16L165.69,68.47"/></g></g><g id="Actor_.1"><g style="stroke:#000000;stroke-width:0.018"><path d="M248.77,63.14L248.67,64.20L248.68,64.24"/></g><g style="stroke:#000000;stroke-width:0.123"><path d="M247.45,62.72L247.37,63.61L247.38,63.65"/><path d="M253.66,63.87L253.66,63.86L253.73,63.20"/></g></g><g id="Actor_.2"><g style="stroke:#000000;stroke-width:0.018"><path d="M248.27,31.24L253.22,31.83L252.61,38.21"/><path d="M251.19,24.57L251.19,24.61L251.23,24.65L251.31,24.69L251.56,24.77L251.96,24.85L252.47,24.91L250.72,31.26L249.76,31.12L249.27,31.01L248.91,30.89L248.79,30.83L248.70,30.77L248.65,30.71L248.63,30.66L248.61,30.90L248.62,30.96L248.68,31.02L248.76,31.08L248.89,31.14L249.05,31.19L249.48,31.31L250.03,31.41L250.70,31.51L250.72,31.26L251.89,31.38L252.74,31.43L253.62,31.47L254.94,31.48L256.16,31.45L256.89,31.40L257.51,31.34L258.01,31.26L258.38,31.16L258.50,31.11L258.59,31.05L258.65,31.00L258.66,30.94L258.62,31.24L258.57,31.30L258.48,31.35L258.35,31.41L257.99,31.50L257.48,31.58L256.51,31.67L255.34,31.72L254.48,31.73L253.60,31.71L252.29,31.65L251.46,31.59L250.70,31.51"/><path d="M248.63,30.66L248.67,30.58"/><path d="M255.65,24.46L255.09,24.41L254.48,24.38L253.54,24.37L252.96,24.38L252.46,24.41L252.07,24.46L251.81,24.52L251.73,24.56L251.69,24.59L251.70,24.63L251.74,24.67L251.94,24.74L252.51,24.84L253.32,24.92L254.26,24.96L255.18,24.96L255.98,24.92L256.52,24.84L256.70,24.77L256.74,24.74L256.73,24.70L256.68,24.66L256.47,24.59L256.12,24.52L255.65,24.46L255.60,24.94"/><path d="M252.47,24.91L253.39,24.98L254.06,25.01L255.07,25.02L255.70,25.01L256.26,24.97L256.88,24.90L257.14,24.83L257.21,24.79L257.24,24.75L257.24,24.71"/><path d="M253.22,31.83L258.60,31.62L257.97,38.00"/><path d="M258.60,31.62L258.91,30.84"/><path d="M258.66,30.94L258.63,30.81"/></g><g style="stroke:#000000;stroke-width:0.123"><path d="M247.71,37.55L252.61,38.21L257.97,38.00L258.28,37.13L258.91,30.84L258.63,30.81L257.24,24.71L257.19,24.67L257.00,24.59L256.85,24.55L256.20,24.45L255.34,24.37L254.69,24.33L254.02,24.31L253.04,24.31L252.45,24.34L251.95,24.38L251.42,24.47L251.23,24.54L251.19,24.57L248.67,30.58L248.27,31.24L247.71,37.55"/></g></g><g id="Actor_.3"><g style="stroke:#000000;stroke-width:0.018"><path d="M236.67,71.88L237.13,72.49L237.65,72.42L238.03,71.67L238.12,70.55L237.89,69.47L237.42,68.86L236.90,68.95L236.53,69.69L236.44,70.81L236.67,71.88"/><path d="M236.55,72.45L237.08,73.08L237.66,73.06L238.14,72.41L238.39,71.28L238.34,69.99L238.00,68.89L237.47,68.27L238.07,67.65L238.30,67.84L238.49,67.52L238.18,67.44"/><path d="M236.42,68.97L236.89,68.30L237.47,68.27"/><path d="M236.90,68.95L237.46,68.91"/><path d="M237.67,73.71L237.66,73.70L237.90,73.75L238.13,73.67L238.33,73.47L238.51,73.17L238.33,73.00L238.49,72.68L238.63,72.22L238.71,71.79L238.63,72.22"/><path d="M237.66,73.70L237.61,73.67"/><path d="M237.66,73.70L237.54,73.46L237.64,73.49L237.88,73.45L238.11,73.30L238.33,73.00"/><path d="M237.98,73.75L238.26,73.77L238.80,73.31L239.19,72.40L239.38,71.18L239.33,71.82L239.23,72.43L239.36,71.76L239.41,71.26L239.40,70.73L239.35,70.19L239.25,69.68L239.07,69.06L239.24,69.71L239.35,70.44L239.38,71.18"/><path d="M237.54,73.46L237.39,73.42L237.08,73.08"/><path d="M237.33,73.40L237.31,73.36L237.39,73.42"/><path d="M237.30,73.35L237.31,73.36"/><path d="M237.66,67.61L237.78,67.58L238.07,67.65"/><path d="M238.51,73.17L238.65,72.76L238.74,72.26L238.78,71.71L238.76,71.15L238.72,71.70L238.76,71.15"/><path d="M239.23,72.43L239.03,73.00L239.34,73.30L239.11,73.58L238.85,73.73L238.58,73.77"/><path d="M239.03,73.00L238.86,73.35L238.62,73.62L238.45,73.72"/><path d="M238.64,72.20L238.63,72.21"/><path d="M238.72,71.70L238.71,71.79"/><path d="M239.07,69.06L238.82,68.47L238.52,68.01L238.30,67.84"/><path d="M239.34,73.30L239.56,72.86L239.73,72.26L239.83,71.57L239.85,70.86L239.79,70.11L239.65,69.39L239.45,68.75L239.17,68.19L238.84,67.77L238.50,67.52L238.67,67.51L239.02,67.76L239.35,68.18L239.63,68.75L239.83,69.39L239.97,70.11L240.03,70.85L240.01,71.57L239.91,72.26L239.73,72.86L239.68,72.95L239.99,73.26L239.75,73.53L239.50,73.69L239.23,73.72"/><path d="M238.50,67.52L238.49,67.52"/><path d="M238.99,67.74L239.14,67.48L239.49,67.73L239.82,68.15L240.10,68.71L240.31,69.35L240.44,70.06L240.50,70.81L240.49,71.53L240.39,72.22L240.21,72.81L239.99,73.26"/><path d="M238.49,67.46L238.67,67.51"/><path d="M238.36,67.43L238.36,67.43"/><path d="M238.83,67.39L239.14,67.48"/><path d="M239.01,67.38L239.01,67.38"/><path d="M239.87,73.68L240.14,73.65L240.40,73.49L240.64,73.21L240.33,72.91L240.15,73.26L239.92,73.53L239.75,73.63"/><path d="M239.68,72.95L239.51,73.30L239.27,73.57L239.10,73.68"/><path d="M239.91,72.26L239.92,72.18"/><path d="M239.92,72.18L240.01,71.72L240.06,71.22L240.05,70.69L240.00,70.15L239.91,69.64L239.63,68.75"/><path d="M240.64,73.21L240.86,72.77L241.04,72.17L241.14,71.48L241.16,70.76L241.10,70.01L240.96,69.29L240.75,68.66L240.47,68.10L240.14,67.68L239.80,67.44L239.64,67.70L240.00,68.14L240.28,68.71L240.48,69.34L240.62,70.06L240.68,70.81L240.66,71.52L240.56,72.22L240.66,71.68L240.71,71.17L240.71,70.64L240.66,70.11L240.56,69.59L240.28,68.71"/><path d="M239.64,67.70L239.33,67.47L239.15,67.48"/><path d="M239.80,67.44L239.97,67.43L240.29,67.65L240.44,67.39L240.79,67.64L241.12,68.06L241.40,68.62L241.61,69.26L241.75,69.98L241.81,70.71L241.79,71.44L241.69,72.13L241.51,72.72L241.28,73.17L240.98,72.87L240.80,73.21L240.57,73.48L240.39,73.59"/><path d="M239.79,67.44L239.48,67.35"/><path d="M240.13,67.31L240.44,67.39"/><path d="M239.65,67.34L239.66,67.34"/><path d="M239.97,67.43L239.78,67.38"/><path d="M239.14,67.42L239.32,67.47"/><path d="M240.98,72.87L241.03,72.77L241.21,72.17L241.31,71.63L241.36,71.13L241.36,70.60L241.31,70.06L241.21,69.55L240.93,68.66L241.13,69.30L241.27,70.02L241.33,70.77L241.31,71.48L241.21,72.17"/><path d="M240.33,72.91L240.38,72.81L240.56,72.22"/><path d="M240.52,73.63L240.79,73.60L241.05,73.45L241.28,73.17"/><path d="M241.04,73.54L241.22,73.44L241.45,73.17L241.63,72.82L241.93,73.13L241.70,73.40L241.44,73.56L241.16,73.59"/><path d="M240.66,71.68L240.66,71.68"/><path d="M240.93,68.66L240.65,68.10L240.29,67.65"/><path d="M240.77,67.27L241.09,67.35L240.94,67.61L241.30,68.06L241.58,68.62L241.79,69.26L241.92,69.98L241.98,70.71L241.96,71.44L241.86,72.13L241.96,71.59L242.01,71.08L242.01,70.56L241.96,70.02L241.86,69.50"/><path d="M240.94,67.61L240.62,67.39L240.44,67.40"/><path d="M241.09,67.35L241.27,67.34L241.07,67.29"/><path d="M240.95,67.26L240.95,67.26"/><path d="M241.09,67.35L241.44,67.60L241.77,68.02L242.05,68.57L242.26,69.22L242.40,69.94L242.46,70.68L242.44,71.39L242.34,72.09L242.16,72.68L241.93,73.13"/><path d="M240.62,67.38L240.43,67.33"/><path d="M240.31,67.30L240.30,67.30"/><path d="M241.81,73.54L242.08,73.51L242.34,73.36L242.58,73.08L242.28,72.78L242.10,73.12L241.86,73.40L241.68,73.50"/><path d="M242.28,72.78L242.33,72.68L242.51,72.08L242.61,71.39L242.63,70.68L242.58,69.93L242.44,69.21L242.23,68.58L241.95,68.02L241.58,67.57L241.74,67.31L241.42,67.23"/><path d="M241.86,72.13L241.68,72.72L241.63,72.82"/><path d="M241.86,69.50L241.58,68.62"/><path d="M242.23,68.58L242.51,69.46L242.61,69.98L242.66,70.51L242.66,71.04L242.61,71.55L242.51,72.08"/><path d="M242.58,73.08L242.81,72.64L242.99,72.04L243.09,71.35L243.11,70.64L243.05,69.89L242.91,69.17L242.70,68.54L242.42,67.98L242.09,67.56L241.74,67.31"/><path d="M241.58,67.57L241.27,67.34"/><path d="M241.74,67.31L241.91,67.30L242.27,67.55L242.60,67.97L242.88,68.54L243.09,69.17L243.23,69.89L243.28,70.64L243.26,71.35L243.16,72.04L243.26,71.50L243.31,71.00L243.31,70.47L243.26,69.94L243.16,69.42L242.89,68.57"/><path d="M242.23,67.53L242.38,67.27L242.07,67.19"/><path d="M241.60,67.22L241.59,67.22"/><path d="M242.25,67.18L242.24,67.18"/><path d="M241.91,67.30L241.72,67.25"/><path d="M242.97,73.41L243.16,73.31L243.39,73.04L243.57,72.70L243.87,72.99L243.63,73.27L243.37,73.43L243.10,73.46"/><path d="M242.45,73.50L242.73,73.47L242.99,73.31L243.23,73.04L242.92,72.74L242.98,72.63L243.16,72.04"/><path d="M243.23,73.04L243.46,72.59L243.64,72.00L243.74,71.31L243.76,70.59L243.70,69.85L243.56,69.13L243.35,68.49L243.07,67.94L242.74,67.52L242.38,67.27"/><path d="M242.33,73.46L242.51,73.35L242.75,73.08L242.92,72.74"/><path d="M243.87,72.99L244.10,72.55L244.28,71.95L244.39,71.26L244.41,70.55L244.35,69.81L244.21,69.09L244.00,68.45L243.72,67.89L243.39,67.48L243.03,67.23L242.88,67.48L243.25,67.93L243.53,68.49L243.74,69.13L243.88,69.85L243.93,70.59L243.91,71.31L243.81,72.00L243.91,71.46L243.96,70.95L243.96,70.43L243.91,69.89L243.81,69.38L243.56,68.57"/><path d="M243.36,67.10L243.68,67.18L244.01,67.17"/><path d="M243.68,67.18L243.52,67.44L243.21,67.22L243.03,67.23"/><path d="M242.89,67.13L242.89,67.13"/><path d="M242.71,67.14L243.03,67.23"/><path d="M242.88,67.48L242.57,67.26L242.39,67.27"/><path d="M243.21,67.22L243.01,67.17"/><path d="M242.56,67.26L242.37,67.21"/><path d="M244.06,67.22L244.62,67.79L245.06,68.92L245.24,70.31L245.12,71.69L244.72,72.77L244.40,73.08L244.52,72.95L244.22,72.65L244.04,72.99L243.80,73.26L243.62,73.37"/><path d="M244.28,73.23L244.01,73.38"/><path d="M244.40,73.08L244.30,73.20"/><path d="M243.57,72.70L243.63,72.59L243.81,72.00"/><path d="M244.22,72.65L244.27,72.55L244.46,71.95L244.56,71.26L244.58,70.55L244.53,69.80L244.39,69.09L244.30,68.83"/><path d="M244.46,71.95L244.56,71.41L244.61,70.91L244.61,70.38L244.56,69.85L244.46,69.33L244.22,68.57L244.34,68.93"/><path d="M244.22,68.57L244.18,68.45L244.22,68.57"/><path d="M243.68,67.19L244.03,67.43L244.37,67.85L244.65,68.41L244.86,69.05L245.00,69.76L245.06,70.51L245.04,71.22L244.93,71.91L244.75,72.50L244.52,72.95"/><path d="M244.18,68.45L243.90,67.89L243.56,67.47L243.52,67.44"/><path d="M244.13,67.29L247.43,67.08L247.25,67.01L247.06,67.02"/><path d="M253.26,67.84L253.12,68.10L252.53,68.31L251.60,68.43L250.38,68.44L249.13,68.34L249.58,68.56L249.38,70.70L249.37,69.48L249.13,68.34L248.26,67.62L247.80,67.30L247.43,67.08L247.81,62.89L248.01,62.96L248.47,63.09L249.00,63.19L249.81,63.30L250.68,63.38L251.57,63.41L252.42,63.39L252.23,63.04L252.86,62.95L253.37,62.83L254.05,62.57L254.41,62.83L254.46,62.63"/><path d="M254.05,62.57L254.11,62.55L253.78,62.67L253.19,62.80L252.47,62.89L251.68,62.95L250.79,62.96L249.91,62.92L249.10,62.85L248.35,62.74L247.73,62.61L247.26,62.46L246.95,62.30"/><path d="M247.21,62.45L247.49,62.60L247.77,62.72L248.15,62.82L248.62,62.92L249.16,62.99L249.75,63.05L250.38,63.09L251.01,63.09L251.64,63.08L252.23,63.04L252.46,62.90"/><path d="M252.47,62.89L252.49,62.71L251.70,62.76L250.82,62.77L249.94,62.74L249.13,62.67L248.38,62.56L247.76,62.43L247.28,62.28L246.97,62.12L246.84,61.95"/><path d="M247.81,62.89L247.54,62.79L247.45,62.72"/><path d="M246.90,62.24L246.88,62.21"/><path d="M246.91,61.80L247.15,61.69L247.55,61.92L247.83,62.03L248.21,62.14L248.68,62.23L249.22,62.30L249.82,62.36L250.44,62.39L251.08,62.40L251.70,62.39L252.29,62.34L252.92,62.26L253.43,62.14L254.11,61.88L254.47,62.13L254.22,62.32L253.80,62.48L253.21,62.62L252.49,62.71"/><path d="M247.01,61.61L247.32,61.77L247.79,61.92L248.42,62.05L249.16,62.16L249.97,62.23L250.86,62.26L251.73,62.25L252.53,62.20L252.29,62.34L252.49,62.71"/><path d="M246.98,61.12L247.22,61.01L247.61,61.23L247.89,61.34L248.27,61.44L248.74,61.54L249.29,61.61L249.88,61.67L250.51,61.70L251.15,61.71L251.77,61.69L252.36,61.65L252.99,61.57L253.51,61.45L254.18,61.19L254.54,61.44L254.60,61.25"/><path d="M247.07,60.92L247.38,61.09L247.85,61.23L248.48,61.36L249.23,61.46L250.04,61.53L250.92,61.57L251.80,61.56L252.59,61.51L252.36,61.65L252.56,62.01L252.53,62.20"/><path d="M252.55,62.01L251.76,62.07L250.90,62.08L250.01,62.04L249.20,61.97L248.45,61.87L247.82,61.74L247.35,61.59L247.03,61.43L246.91,61.27"/><path d="M247.14,61.69L247.15,61.69"/><path d="M247.22,61.01L247.21,61.00"/><path d="M247.04,60.43L247.28,60.32L247.67,60.54L247.96,60.65L248.34,60.75L248.75,60.83L249.35,60.92L249.95,60.97L250.57,61.01L251.21,61.01L251.84,61.00L252.43,60.95L252.63,61.32L251.83,61.37L250.95,61.38L250.07,61.35L249.26,61.28L248.51,61.18L247.88,61.05L247.41,60.90L247.09,60.74L246.97,60.58"/><path d="M247.13,60.24L247.45,60.40L247.92,60.54L248.55,60.67L249.29,60.77L250.10,60.84L250.99,60.87L251.87,60.86L252.66,60.81L252.43,60.95L253.06,60.87L253.58,60.76L254.25,60.50L254.61,60.75L254.36,60.94L253.93,61.10L253.34,61.23L252.63,61.32"/><path d="M247.03,59.85L247.06,59.96L247.19,60.08L247.42,60.19L247.73,60.30L248.12,60.40L248.79,60.52L249.56,60.61L250.33,60.66L251.15,60.69L251.95,60.67L252.68,60.62L252.67,60.81L253.39,60.72L253.97,60.59L254.41,60.43L254.25,60.50"/><path d="M247.28,60.32L247.27,60.31"/><path d="M247.10,59.75L247.35,59.63L247.74,59.85L248.02,59.96L248.40,60.06L248.87,60.15L249.42,60.22L250.01,60.28L250.64,60.31L251.28,60.32L251.90,60.30L252.49,60.26L252.73,60.11L251.94,60.16L251.05,60.17L250.17,60.14L249.36,60.07L248.61,59.97L247.98,59.85L247.51,59.70L247.20,59.55"/><path d="M254.81,59.17L254.75,59.37L254.50,59.55L254.07,59.71L253.48,59.84L252.76,59.93L252.56,59.56L251.97,59.60L251.34,59.62L250.71,59.61L250.08,59.58L249.48,59.53L248.94,59.46L248.47,59.37L248.08,59.27L247.80,59.16L247.42,58.94L247.16,59.06"/><path d="M247.09,59.20L247.22,59.36L247.53,59.52L248.00,59.66L248.63,59.79L249.38,59.89L250.20,59.96L251.07,59.99L251.96,59.98L252.76,59.93"/><path d="M254.75,59.37L254.38,59.11L253.71,59.37L253.19,59.48L252.56,59.56L252.80,59.42L252.01,59.47L251.12,59.48L250.24,59.45L249.42,59.38L248.67,59.28L248.04,59.15L247.57,59.01L247.26,58.85"/><path d="M247.41,58.94L247.41,58.94"/><path d="M247.35,59.63L247.34,59.63"/><path d="M247.23,58.37L247.48,58.25L247.86,58.47L248.15,58.57L248.53,58.67L249.00,58.76L249.55,58.83L250.14,58.89L250.77,58.92L251.41,58.92L252.04,58.91L252.63,58.86L252.83,59.23L253.54,59.14L254.13,59.01L254.56,58.86L254.81,58.68L254.45,58.41L253.78,58.67L253.26,58.78L252.63,58.86L252.86,58.72L252.08,58.77L251.19,58.78L250.30,58.75L249.49,58.68L248.74,58.58L248.11,58.46L247.64,58.32L247.32,58.16"/><path d="M247.48,58.25L247.47,58.25"/><path d="M247.16,58.51L247.28,58.67L247.59,58.83L248.07,58.97L248.70,59.09L249.45,59.19L250.26,59.26L251.14,59.29L252.02,59.28L252.82,59.23L252.80,59.42L253.52,59.33L254.11,59.20L254.54,59.04L254.38,59.11"/><path d="M247.22,57.82L247.34,57.98L247.66,58.13L248.13,58.27L248.76,58.40L249.51,58.50L250.33,58.56L251.21,58.59L252.09,58.58L252.89,58.53L252.69,58.17L252.10,58.21L251.48,58.23L250.84,58.22L250.21,58.19L249.61,58.14L249.07,58.07L248.59,57.98L248.21,57.88L247.93,57.77L247.72,57.66L248.05,57.78L248.57,57.91L249.22,58.03L249.94,58.11L250.75,58.16L251.57,58.18L252.76,58.13L252.69,58.17L253.33,58.08L253.85,57.97L254.30,57.80L253.93,57.94L253.40,58.05L252.76,58.13L252.61,57.67L251.26,57.68L249.89,57.57L248.77,57.35L248.13,57.07L248.09,56.80"/><path d="M247.54,57.56L247.56,57.55L247.29,57.68"/><path d="M247.72,57.66L247.56,57.55"/><path d="M248.27,72.94L248.78,72.53L249.17,71.75L249.38,70.71L249.12,73.39"/><path d="M249.38,70.70L249.38,70.71"/><path d="M249.58,68.56L254.14,68.26"/><path d="M249.22,56.91L249.42,57.15L250.28,57.36L251.48,57.45L252.55,57.39L252.83,57.29L252.86,56.95L252.00,56.74L250.81,56.66L249.75,56.72L249.22,56.91"/><path d="M252.42,63.39L252.71,63.37L253.31,63.28L253.82,63.15L254.19,62.99L254.41,62.83"/><path d="M252.53,62.20L253.25,62.11L253.84,61.98L254.27,61.82L254.11,61.88"/><path d="M252.56,62.01L253.27,61.92L253.85,61.79L254.28,61.63L254.54,61.44"/><path d="M254.18,61.19L254.33,61.13L253.91,61.28L253.32,61.41L252.59,61.51"/><path d="M252.62,61.32L252.60,61.51"/><path d="M252.49,60.26L252.69,60.62L253.40,60.53L253.99,60.41L254.42,60.25L254.67,60.06L254.31,59.80L253.64,60.06L253.12,60.18L252.49,60.26"/><path d="M252.69,60.62L252.69,60.62"/><path d="M252.66,60.81L252.67,60.81"/><path d="M252.73,60.11L252.75,59.93"/><path d="M252.74,60.11L253.45,60.02L254.04,59.90L254.47,59.74L254.31,59.80"/><path d="M252.80,59.42L252.80,59.42"/><path d="M252.83,59.23L252.82,59.23"/><path d="M252.90,58.53L253.18,58.50L253.73,58.37L254.16,58.22L254.46,58.05L254.66,57.82L254.66,57.63L254.55,57.44"/><path d="M252.86,58.72L253.59,58.63L254.18,58.50L254.61,58.35L254.45,58.41"/><path d="M252.89,58.53L252.87,58.72"/><path d="M252.61,57.67L253.67,57.54L254.22,57.31L254.16,57.03"/><path d="M252.83,57.29L253.08,57.20L252.86,56.95"/><path d="M253.31,63.28L253.72,63.20"/><path d="M253.88,63.17L254.19,62.99"/><path d="M254.11,62.55L254.20,62.51L254.11,62.55"/><path d="M253.18,58.50L254.33,58.32L254.89,58.04L254.66,57.63"/><path d="M254.20,62.51L254.33,62.41"/><path d="M254.53,61.94L254.47,62.14"/><path d="M254.27,61.82L254.40,61.72"/><path d="M254.34,61.13L254.47,61.03"/><path d="M254.61,60.75L254.67,60.56"/><path d="M254.53,60.35L254.41,60.43"/><path d="M254.68,60.06L254.74,59.87"/><path d="M254.60,59.65L254.47,59.74"/><path d="M254.54,59.04L254.67,58.96"/><path d="M254.82,58.67L254.87,58.48"/><path d="M254.74,58.27L254.72,58.26L254.61,58.35"/><path d="M254.89,58.04L254.79,57.72"/><path d="M254.66,57.82L254.46,57.68L254.30,57.80"/><path d="M254.46,57.68L254.51,57.65L254.55,57.51L254.49,57.40"/></g><g style="stroke:#000000;stroke-width:0.123"><path d="M247.37,63.62L247.06,67.02L244.06,67.22L244.01,67.17L243.36,67.10L243.01,67.17L242.89,67.13L242.71,67.14L242.37,67.21L242.25,67.18L242.07,67.19L241.75,67.23L241.72,67.25L241.60,67.22L241.42,67.23L241.11,67.27L241.07,67.29L240.95,67.26L240.77,67.27L240.46,67.31L240.43,67.33L240.31,67.30L240.13,67.31L239.82,67.36L239.78,67.38L239.66,67.34L239.48,67.35L239.17,67.40L239.14,67.42L239.01,67.38L238.83,67.39L238.52,67.44L238.49,67.46L238.36,67.43L238.18,67.44L237.88,67.48L237.66,67.61L237.49,67.64L237.22,67.81L236.98,68.09L236.42,68.97L236.17,70.09L236.22,71.36L236.55,72.45L237.21,73.28L237.30,73.35L237.33,73.40L237.61,73.67L237.67,73.71L237.98,73.75L238.10,73.80L238.37,73.77L238.45,73.72L238.58,73.77L239.02,73.73L239.10,73.68L239.23,73.72L239.67,73.68L239.75,73.63L239.87,73.68L240.31,73.64L240.39,73.59L240.52,73.63L240.96,73.59L241.04,73.54L241.16,73.59L241.60,73.55L241.68,73.50L241.81,73.54L242.25,73.50L242.33,73.46L242.45,73.50L242.89,73.46L242.97,73.41L243.10,73.46L243.54,73.42L243.62,73.37L243.74,73.41L244.13,73.35L244.30,73.20L248.27,72.94L249.12,73.39L252.81,73.13L253.44,72.83L253.75,72.17L254.14,68.26L253.26,67.84L253.72,63.21L253.88,63.17L254.43,62.87L254.46,62.63L254.33,62.41L254.45,62.32L254.51,62.12L254.53,61.94L254.40,61.72L254.52,61.63L254.58,61.44L254.60,61.25L254.47,61.03L254.59,60.94L254.65,60.75L254.67,60.56L254.53,60.35L254.66,60.25L254.72,60.05L254.74,59.87L254.60,59.65L254.73,59.56L254.79,59.36L254.81,59.17L254.67,58.96L254.79,58.86L254.86,58.67L254.87,58.48L254.72,58.26L254.86,58.17L254.92,57.98L254.79,57.72L254.16,57.03L253.50,56.76L252.38,56.54L251.03,56.43L249.70,56.44L248.65,56.57L248.09,56.80L247.49,57.28L247.44,57.40L247.51,57.53L247.55,57.55L247.29,57.68L247.22,57.82L247.20,58.01L247.32,58.16L247.47,58.25L247.23,58.37L247.16,58.51L247.14,58.70L247.26,58.85L247.41,58.94L247.16,59.06L247.09,59.20L247.08,59.39L247.20,59.55L247.34,59.63L247.10,59.75L247.03,59.85L247.01,60.08L247.13,60.24L247.27,60.31L247.04,60.43L246.97,60.58L246.95,60.76L247.07,60.92L247.21,61.00L246.98,61.12L246.91,61.27L246.89,61.45L247.01,61.61L247.14,61.69L246.91,61.80L246.84,61.95L246.83,62.13L246.88,62.21L246.88,62.23L246.90,62.24L246.95,62.30L247.21,62.45L247.27,62.60L247.45,62.72"/></g></g><g id="Actor_.4"><g style="stroke:#000000;stroke-width:0.018"><path d="M191.53,42.90L192.20,43.09L193.35,43.21L194.67,43.21L195.80,43.11L196.43,42.93"/><path d="M192.21,43.10L192.20,43.09L191.75,41.77L191.80,40.19L192.34,38.70L191.67,38.52L191.65,38.32"/><path d="M196.56,38.34L196.59,38.54L195.96,38.72L194.82,38.81L193.50,38.81L192.34,38.70L192.35,38.69L192.36,38.69L191.69,38.51"/><path d="M195.83,38.72L195.85,38.19L194.72,38.09L193.43,38.08L192.33,38.17L191.70,38.34L191.71,38.52"/><path d="M192.36,38.69L193.50,38.79L194.82,38.80L195.94,38.71L196.55,38.54L196.52,38.36L195.85,38.19L195.86,38.16L195.87,38.16"/><path d="M196.57,38.54L196.55,38.54"/></g><g style="stroke:#000000;stroke-width:0.123"><path d="M190.79,41.33L190.84,39.76L191.65,38.32L192.31,38.15L193.43,38.05L194.72,38.06L195.87,38.16L196.54,38.34L196.56,38.34L197.31,39.91L197.26,41.49L196.43,42.93L195.79,43.12L194.67,43.22L193.36,43.21L192.21,43.10L191.55,42.91L191.53,42.90L190.79,41.33"/></g></g><g id="Actor_.5"><g style="stroke:#000000;stroke-width:0.018"><path d="M189.11,14.88L193.56,15.24L193.35,22.09"/><path d="M189.80,14.46L189.82,14.50L189.88,14.54L189.98,14.58L190.29,14.65L190.75,14.72L191.33,14.78L192.81,14.86L194.11,14.90L195.01,14.90L196.78,14.87L197.59,14.83L198.64,14.76L199.20,14.70L199.62,14.63L199.90,14.55L199.99,14.52L200.03,14.48L200.03,14.44"/><path d="M200.03,14.50L200.02,14.74L199.98,14.78L199.77,14.85L199.61,14.89L199.19,14.96L198.36,15.05L197.58,15.10L196.34,15.15L195.45,15.16L194.10,15.16L193.22,15.14L192.02,15.09L191.01,15.01L190.49,14.95L189.97,14.84L189.81,14.76L189.79,14.72L189.80,14.62"/><path d="M191.32,15.04L191.33,14.78L192.97,8.03L192.36,7.98L192.13,7.93L192.06,7.91L192.04,7.89"/><path d="M196.89,8.00L195.74,8.04L194.15,8.04L193.58,8.02L192.93,7.97L192.67,7.93L192.59,7.91L192.56,7.89L192.56,7.87L192.69,7.82L192.82,7.80L193.40,7.75L194.21,7.71L195.48,7.70L196.39,7.71L197.12,7.75L197.58,7.81L197.66,7.83L197.70,7.85L197.70,7.88L197.58,7.92L197.45,7.94L196.89,8.00L196.90,7.74"/><path d="M192.97,8.03L193.83,8.07L194.49,8.08L196.21,8.07L196.84,8.05L197.60,7.99L198.07,7.93L198.21,7.88L198.22,7.86"/><path d="M193.56,15.24L199.42,15.07L199.16,21.91"/><path d="M199.42,15.07L200.66,14.55"/></g><g style="stroke:#000000;stroke-width:0.123"><path d="M188.92,21.65L193.35,22.09L199.16,21.91L200.40,21.28L200.66,14.55L200.03,14.50L200.03,14.44L198.22,7.86L198.19,7.83L197.88,7.77L197.26,7.71L196.40,7.67L195.07,7.66L193.74,7.69L192.91,7.73L192.33,7.79L192.11,7.84L192.06,7.86L189.80,14.46L189.80,14.62L189.11,14.88L188.92,21.65"/></g></g><g id="Actor_.6"><g style="stroke:#000000;stroke-width:0.018"><path d="M192.00,34.01L192.01,34.18L192.63,34.33L193.69,34.42L194.91,34.42L195.95,34.34L196.53,34.20"/><path d="M192.63,34.33L192.62,34.53"/><path d="M192.52,33.89L192.17,34.02L192.18,34.18L192.75,34.31L193.73,34.40L194.86,34.40L195.82,34.32L196.36,34.19L196.33,34.03L196.06,33.92"/><path d="M192.75,34.31L193.01,34.13L193.12,33.76L192.64,33.63"/><path d="M192.84,27.27L193.32,27.38L193.12,33.76L194.04,33.83L195.06,33.81L195.77,33.71L195.91,33.57"/><path d="M192.85,27.21L193.33,27.32L193.32,27.38L194.25,27.44L195.27,27.42L195.99,27.33L196.13,27.21"/><path d="M192.97,26.42L193.42,26.52L194.30,26.58L195.25,26.56L195.93,26.48L196.06,26.36"/><path d="M193.42,26.52L193.33,27.32L194.26,27.38L195.27,27.36L195.99,27.27L196.13,27.15"/><path d="M195.49,26.51L195.18,26.54L194.32,26.56L193.53,26.51L193.12,26.42L193.24,26.31L193.85,26.24L194.71,26.23L195.50,26.27L195.91,26.37L195.79,26.47L195.49,26.51L195.50,26.27"/></g><g style="stroke:#000000;stroke-width:0.123"><path d="M192.62,34.53L193.68,34.62L194.90,34.63L195.94,34.54L196.52,34.40L196.53,34.20L196.50,34.03L196.06,33.92L196.00,33.90L195.91,33.57L196.13,27.21L196.06,26.36L195.60,26.26L194.73,26.21L193.78,26.22L193.11,26.30L192.97,26.42L192.84,27.27L192.64,33.63L192.52,33.89L192.00,34.01L191.99,34.21L192.01,34.38L192.62,34.53"/></g></g><g id="Actor_.7"><g style="stroke:#000000;stroke-width:0.018"><path d="M168.53,77.64L168.33,76.91L168.27,68.92"/><path d="M168.46,77.45L168.36,77.17L168.29,76.89L167.78,76.52"/><path d="M167.74,72.44L168.23,72.77L168.26,76.53L168.34,76.94L168.94,77.02L168.92,77.35L168.93,77.58L169.08,77.90L169.30,78.08L169.49,78.22"/><path d="M168.26,76.53L168.29,76.89"/><path d="M168.23,72.77L168.23,72.40"/><path d="M168.92,77.35L169.44,77.73L169.72,78.39"/><path d="M169.32,78.19L169.46,78.20"/><path d="M168.94,77.02L168.91,73.23L169.41,73.57L169.44,77.73"/><path d="M168.91,73.23L169.85,73.37L171.01,73.42L172.22,73.39L173.35,73.26L174.16,73.07L174.48,72.29L174.51,71.96L174.50,71.75L178.82,71.47L179.22,72.02L179.54,73.08L179.72,74.44L179.72,75.83L179.54,76.96L179.22,77.61L178.82,77.65L178.40,77.68"/><path d="M169.41,73.57L174.43,73.24L174.45,77.95"/><path d="M174.16,73.07L174.43,73.24"/><path d="M174.48,72.29L174.48,70.90"/><path d="M174.50,71.75L174.50,71.70"/><path d="M179.01,78.38L179.46,78.06L179.79,77.07L179.94,75.61L179.94,75.28L179.90,74.39L179.80,73.52L179.64,72.73L179.45,72.06L179.28,71.65L179.38,71.83L179.56,72.25L179.72,72.74L179.86,73.31L179.97,74.04"/><path d="M178.13,71.21L178.19,71.50L178.82,71.47"/><path d="M178.19,71.50L178.05,71.51"/><path d="M178.26,71.50L178.36,71.24"/><path d="M178.27,71.49L178.39,71.26L178.60,71.10L178.85,71.12L179.10,71.35L179.28,71.65"/><path d="M179.70,77.74L179.60,77.95L179.74,77.54L179.85,76.98L179.92,76.32L179.94,75.61"/><path d="M179.60,77.95L179.44,78.21"/><path d="M179.94,75.28L180.05,75.19"/></g><g style="stroke:#000000;stroke-width:0.123"><path d="M179.44,78.21L179.42,78.25L179.20,78.37L179.01,78.38L178.53,77.99L178.40,77.68L174.45,77.95L174.45,78.35L170.39,78.63L169.72,78.39L169.49,78.22L169.05,78.13L168.53,77.64L168.46,77.45L168.06,77.17L167.78,76.52L167.74,72.44L168.23,72.40L168.18,68.90"/><path d="M174.47,68.89L174.48,70.90L174.50,71.70L178.05,71.51L178.13,71.21L178.35,71.20"/></g></g><g id="Actor_.8"><g style="stroke:#000000;stroke-width:0.018"><path d="M188.94,56.12L192.35,56.84L192.24,60.29L190.33,59.87"/><path d="M189.74,54.17L190.05,54.35L190.33,54.44L190.80,54.54L191.40,54.62L192.09,54.68L192.83,54.71L192.93,54.36L192.21,54.33L191.55,54.27L191.00,54.19L190.58,54.09L190.31,53.97L190.05,53.83"/><path d="M189.74,53.39L189.92,53.56L190.35,53.71L190.83,53.81L191.43,53.89L192.11,53.95L192.85,53.98L192.84,54.18L192.83,54.18L192.93,54.36L193.79,54.35L194.64,54.30L194.78,54.66L193.71,54.71L192.83,54.71"/><path d="M189.76,52.66L189.94,52.83L190.37,52.98L190.85,53.08L191.45,53.16L192.14,53.21L192.88,53.24L193.76,53.24L194.83,53.19L194.69,52.83L193.84,52.88L192.98,52.89L192.88,53.24"/><path d="M192.83,54.71L192.82,54.87L192.92,54.88L192.87,56.58L191.49,56.44L190.53,56.19L190.18,55.90L190.20,55.22"/><path d="M192.83,54.18L192.10,54.15L191.41,54.09L190.81,54.00L190.34,53.91L189.91,53.75"/><path d="M190.22,54.45L190.55,54.57L191.56,54.76L192.82,54.87"/><path d="M189.93,53.02L190.36,53.18L190.84,53.27L191.43,53.35L192.12,53.41L192.87,53.44L192.87,53.24"/><path d="M192.86,53.44L192.95,53.62L192.23,53.59L191.58,53.54L191.03,53.46L190.60,53.36L190.33,53.24L190.08,53.11L189.78,53.27"/><path d="M190.10,52.37L190.35,52.52L190.62,52.63L191.05,52.73L191.60,52.80L192.25,52.86L192.98,52.89L192.88,52.71L192.15,52.68L191.46,52.62L190.86,52.54L190.38,52.44L189.95,52.29"/><path d="M189.80,52.54L190.10,52.38"/><path d="M190.08,53.11L190.07,53.10"/><path d="M189.80,51.21L189.98,51.37L190.42,51.51L190.89,51.61L191.49,51.69L192.18,51.74L192.92,51.77L192.91,51.97L191.86,51.92L190.97,51.82L190.47,51.73L190.10,51.62L190.65,51.90L190.37,51.79L190.13,51.65"/><path d="M189.78,51.94L189.96,52.10L190.40,52.25L190.87,52.34L191.47,52.42L192.16,52.48L192.91,52.51L193.00,52.15L192.28,52.12L191.62,52.07L191.07,51.99L190.65,51.90"/><path d="M190.10,51.62L189.87,51.50"/><path d="M189.82,51.82L190.13,51.65"/><path d="M190.05,50.12L190.35,50.23L190.80,50.34L191.34,50.43L192.12,50.50L192.98,50.54L193.05,50.68L193.91,50.67L194.76,50.62L194.90,50.98L194.03,51.02L192.95,51.03L193.05,50.68L192.32,50.65L191.67,50.60L191.11,50.52L190.69,50.43L190.41,50.32L190.18,50.19L189.87,50.36"/><path d="M189.82,50.48L190.00,50.63L190.44,50.78L190.92,50.87L191.52,50.95L192.21,51.00L192.95,51.03"/><path d="M190.15,50.92L190.39,51.05L190.67,51.16L191.09,51.26L191.64,51.34L192.30,51.39L193.02,51.41L193.89,51.41L194.74,51.36L194.88,51.18L195.82,51.08L196.62,50.93L197.08,50.80L197.41,50.64"/><path d="M189.99,50.83L190.43,50.98L190.90,51.07L191.50,51.15L192.19,51.20L192.94,51.23L194.01,51.22L194.88,51.18"/><path d="M189.84,51.09L190.15,50.92"/><path d="M196.92,49.29L196.66,49.54L195.81,49.74L194.55,49.84L193.13,49.83L191.84,49.71L190.93,49.50L190.60,49.25L190.88,49.00"/><path d="M190.18,50.19L190.18,50.19"/><path d="M190.85,49.26L190.84,49.25L191.11,49.03L191.89,48.85L193.04,48.75L194.33,48.76L195.51,48.87L196.35,49.06L196.67,49.29L196.43,49.52L195.65,49.70L194.49,49.80L193.18,49.79L191.99,49.68L191.15,49.48L190.85,49.26"/><path d="M196.48,60.10L192.24,60.29"/><path d="M192.35,56.84L196.98,56.64L198.12,55.73"/><path d="M192.87,56.58L194.38,56.59L195.72,56.47L196.62,56.24L196.90,55.95L196.92,55.48"/><path d="M192.92,54.88L194.51,54.89L196.02,54.77L196.96,54.55"/><path d="M192.87,53.44L193.94,53.44L194.81,53.39L194.66,53.57L193.81,53.62L192.95,53.62L192.86,53.98L192.85,53.98"/><path d="M192.84,54.18L193.91,54.17L194.78,54.12L194.64,54.30L195.33,54.23L195.94,54.12L196.44,53.99L196.80,53.84L197.10,53.68L196.69,53.83L196.14,53.95L195.49,54.05L194.78,54.12"/><path d="M192.86,53.98L193.74,53.98L194.80,53.92L194.66,53.57L195.36,53.49L195.97,53.39L196.47,53.26L196.82,53.11L197.33,52.85L197.00,53.00L196.54,53.14L195.75,53.29L194.81,53.39"/><path d="M192.91,52.51L193.79,52.51L194.85,52.45L194.71,52.10L193.86,52.14L193.00,52.15L192.91,51.97"/><path d="M192.88,52.71L192.89,52.71L192.90,52.51"/><path d="M192.89,52.71L193.96,52.70L194.83,52.65L194.69,52.83L195.38,52.76L196.00,52.65L196.49,52.53L196.85,52.38L197.35,52.12L197.03,52.27L196.56,52.40L195.77,52.55L194.83,52.65"/><path d="M192.92,51.77L192.93,51.77L193.02,51.41L192.93,51.23"/><path d="M194.86,51.91L195.74,51.82L196.49,51.69L196.97,51.56L197.33,51.41L196.88,51.65L196.52,51.79L196.02,51.92L195.41,52.02L194.71,52.10L194.86,51.91L193.99,51.96L192.91,51.97"/><path d="M192.93,51.77L193.81,51.77L194.88,51.72L194.74,51.36L195.44,51.29L196.05,51.18L196.54,51.06L196.90,50.91L197.41,50.65"/><path d="M192.98,50.54L193.13,49.83"/><path d="M192.99,50.54L193.86,50.55L194.85,50.50L195.56,50.44L196.20,50.34L196.73,50.22L197.10,50.09L196.93,50.18L196.57,50.32L196.07,50.45L195.46,50.55L194.76,50.62L194.85,50.50"/><path d="M192.94,51.23L192.94,51.03"/><path d="M194.78,54.66L195.48,54.59L196.13,54.48L196.68,54.36L197.09,54.22L197.42,54.00L197.50,53.77"/><path d="M197.44,53.47L197.50,53.22L197.31,53.38L196.98,53.54L196.52,53.67L195.74,53.82L194.80,53.92"/><path d="M194.83,53.19L195.76,53.09L196.55,52.94L197.00,52.81L197.34,52.65L197.52,52.49L197.55,52.32"/><path d="M194.85,52.45L195.79,52.35L196.57,52.21L197.03,52.07L197.36,51.92L197.55,51.76L197.58,51.59"/><path d="M194.88,51.72L195.82,51.61L196.60,51.47L197.06,51.34L197.39,51.18L197.58,51.02L197.60,50.86"/><path d="M194.90,50.98L195.91,50.87L196.73,50.71L197.17,50.57L197.47,50.42L197.62,50.26L197.62,50.09"/><path d="M194.26,49.79L194.33,48.76"/><path d="M196.86,60.09L196.98,56.64"/><path d="M197.10,53.68L197.30,53.56"/><path d="M197.10,50.09L197.35,49.90L197.35,49.86"/><path d="M197.54,52.52L197.54,52.51"/><path d="M197.50,53.22L197.52,53.05"/><path d="M197.33,52.85L197.34,52.84"/><path d="M197.57,51.79L197.57,51.78"/><path d="M197.36,52.12L197.37,52.11"/><path d="M197.62,50.26L197.59,50.49"/><path d="M197.33,51.41L197.39,51.37"/></g><g style="stroke:#000000;stroke-width:0.123"><path d="M196.48,60.10L196.86,60.09L197.99,59.14L198.12,55.73L196.92,55.48L196.96,54.55L197.08,54.53L197.49,54.22L197.50,53.77L197.37,53.60L197.30,53.56L197.44,53.47L197.52,53.24L197.52,53.05L197.34,52.84L197.51,52.68L197.54,52.52L197.55,52.32L197.37,52.11L197.54,51.95L197.57,51.79L197.58,51.59L197.39,51.37L197.55,51.25L197.60,51.09L197.60,50.86L197.41,50.64L197.59,50.49L197.62,50.32L197.62,50.09L197.52,49.97L197.35,49.86L197.36,49.71L196.92,49.29L196.56,49.04L195.65,48.84L194.38,48.72L192.98,48.71L191.74,48.81L190.88,49.00L189.91,49.83L189.89,49.99L190.05,50.12L190.18,50.19L189.87,50.36L189.82,50.48L189.82,50.67L189.99,50.83L190.15,50.92L189.84,51.09L189.80,51.21L189.79,51.38L189.87,51.50L190.13,51.65L189.82,51.82L189.78,51.94L189.77,52.13L189.95,52.29L190.10,52.37L189.80,52.54L189.76,52.66L189.75,52.86L189.93,53.02L190.07,53.10L189.78,53.27L189.74,53.39L189.73,53.58L189.91,53.75L190.05,53.83L189.82,53.95L189.71,54.07L189.74,54.17L189.91,54.33L190.22,54.45L190.20,55.22L190.16,55.22L188.94,56.12L188.84,59.54L190.33,59.87"/></g></g><g id="Actor_.9"><g style="stroke:#000000;stroke-width:0.018"><path d="M91.42,179.04L91.12,147.44L91.86,147.35L92.51,147.18L92.48,143.07L91.82,143.25L91.08,143.33L90.74,108.25L89.54,108.16L88.66,107.89L88.33,107.50"/><path d="M90.67,100.64L90.74,108.21L89.60,108.13L88.76,107.87L88.44,107.50L88.44,107.35"/><path d="M91.08,143.33L90.33,143.30L89.66,143.17L89.71,147.28L90.37,147.41L91.12,147.44"/><path d="M89.71,147.28L92.51,147.18"/><path d="M90.74,108.25L91.93,108.13L92.78,107.83L93.07,107.43"/><path d="M90.74,108.21L91.87,108.09L92.68,107.81L92.95,107.43L92.95,107.30"/><path d="M91.46,183.56L91.50,187.69"/></g><g style="stroke:#000000;stroke-width:0.123"><path d="M89.18,178.01L88.33,107.50L88.44,107.35L88.36,100.36"/><path d="M89.35,183.44L89.39,186.68"/><path d="M93.58,177.78L93.07,107.43L92.95,107.30L92.90,100.34"/><path d="M93.51,183.20L93.54,186.44"/></g></g><g id="Actor_.10"><g style="stroke:#000000;stroke-width:0.018"><path d="M103.99,205.47L104.00,205.46L103.99,205.05L104.02,204.88L104.03,205.33L104.26,205.16L104.05,205.14L104.05,205.08L104.04,204.65L104.05,205.14"/><path d="M104.04,204.65L104.04,204.64L103.94,205.01L103.93,205.35"/><path d="M103.94,205.01L103.93,205.14"/><path d="M103.96,205.36L103.97,205.08L103.97,205.46"/><path d="M103.90,204.83L103.90,205.11"/><path d="M103.87,204.54L103.86,204.77"/><path d="M103.99,205.05L103.99,205.46"/><path d="M104.00,205.46L104.23,205.37L104.02,205.36L104.03,205.33"/><path d="M104.04,204.73L103.97,205.08"/><path d="M103.91,204.82L104.01,204.57L104.05,204.53L104.04,204.64"/><path d="M103.78,203.69L103.80,203.71L103.79,203.80"/><path d="M103.80,203.71L103.93,203.82L104.05,204.06L104.07,204.05"/><path d="M104.06,204.26L103.95,204.16L103.84,204.17L103.82,204.33"/><path d="M104.06,204.38L103.98,204.41L104.06,204.41"/><path d="M103.98,204.41L103.94,204.47"/><path d="M104.07,203.82L104.06,203.76L104.02,203.76L103.96,203.60"/><path d="M103.99,204.10L104.05,204.07L104.07,204.13"/><path d="M103.92,198.65L103.90,198.72L103.92,198.55L103.92,198.65L104.14,198.71L103.95,199.08L103.96,199.19L104.18,199.26L103.99,199.68L103.99,199.80L103.97,199.70L103.99,199.68"/><path d="M103.93,199.38L103.93,199.21L103.89,199.21L103.81,198.67L103.72,198.04L103.72,197.59"/><path d="M103.99,199.80L104.21,199.88L104.02,200.33L104.00,200.28L104.02,200.46L104.24,200.55L104.04,201.02L104.02,200.89L104.05,201.16L104.04,201.02"/><path d="M103.66,199.13L103.67,199.40"/><path d="M104.05,199.22L104.02,199.45L103.97,199.70"/><path d="M104.00,200.28L104.05,199.82"/><path d="M103.95,198.74L103.93,199.21L103.89,199.22L103.90,199.38"/><path d="M103.70,198.16L103.70,198.30L103.86,199.38"/><path d="M103.69,198.60L103.69,198.65L103.79,199.39"/><path d="M103.73,199.39L103.69,199.12"/><path d="M103.93,199.21L103.90,198.91L103.94,198.90L103.91,198.90L103.83,198.45L103.75,197.89L103.75,197.47"/><path d="M103.89,199.21L103.89,199.22"/><path d="M103.94,198.52L103.93,198.48L103.96,198.49L104.11,198.24L103.89,198.19L103.87,198.35L103.88,198.11L103.89,198.19"/><path d="M103.94,198.90L103.92,198.72"/><path d="M103.91,198.90L103.90,198.91"/><path d="M103.68,199.09L103.66,198.60"/><path d="M104.00,198.98L104.04,198.80L104.03,198.82L104.04,198.77"/><path d="M103.88,198.23L103.84,198.07L103.85,197.84L103.84,197.78L104.03,197.61L103.81,197.60L103.81,197.56L103.99,197.47L103.78,197.47L103.77,197.46"/><path d="M104.10,198.79L103.90,198.72"/><path d="M103.96,198.49L103.92,198.55"/><path d="M103.87,198.28L103.80,197.90L103.81,197.60"/><path d="M103.87,198.35L103.93,198.48"/><path d="M103.96,199.19L103.94,199.17L103.95,199.08"/><path d="M103.91,198.62L103.85,198.31L103.77,197.84L103.78,197.47"/><path d="M103.70,198.30L103.70,197.82"/><path d="M103.69,198.65L103.68,198.16"/><path d="M103.72,198.04L103.72,197.82"/><path d="M103.77,197.84L103.77,197.47"/><path d="M103.85,197.84L104.07,197.87L103.88,198.11"/><path d="M103.80,197.90L103.81,197.56"/><path d="M103.84,197.78L103.84,198.07"/><path d="M103.74,197.58L103.75,197.89"/><path d="M104.01,205.47L105.01,205.40L105.07,205.00L105.11,204.04L105.11,202.67L105.07,201.10L105.01,199.58L104.93,198.35L104.84,197.58L104.76,197.40"/><path d="M105.07,205.00L104.23,205.37"/><path d="M104.05,205.08L104.28,204.84L104.07,204.80L104.07,204.72L104.29,204.41L104.08,204.36L104.08,204.26L104.30,203.89L104.09,203.83L104.09,203.71L104.07,203.35L104.09,203.83"/><path d="M104.07,204.72L104.05,204.30L104.07,204.12L104.08,204.36"/><path d="M104.07,204.80L104.05,204.30"/><path d="M104.02,204.90L104.02,205.36"/><path d="M104.04,204.74L104.02,204.88"/><path d="M104.09,203.71L104.30,203.30L104.09,203.22L104.08,203.10L104.29,202.65L104.08,202.56L104.08,202.50L104.08,202.43L104.28,201.95L104.07,201.87L104.06,201.73L104.26,201.25L104.05,201.16"/><path d="M104.08,204.26L104.06,203.86L104.07,204.12"/><path d="M104.05,204.53L104.06,204.48"/><path d="M104.06,203.86L104.08,203.67"/><path d="M104.04,203.52L104.06,203.76L104.01,203.52"/><path d="M104.02,203.76L104.07,203.96"/><path d="M104.05,204.07L104.05,204.06"/><path d="M104.08,203.10L104.06,202.78L104.09,203.22"/><path d="M104.08,202.56L104.05,202.16L104.08,202.43"/><path d="M104.08,203.15L104.07,203.35"/><path d="M104.06,202.78L104.08,202.56"/><path d="M104.06,201.73L104.04,201.53L104.07,201.87"/><path d="M104.05,202.16L104.08,201.87"/><path d="M104.04,201.53L104.07,201.17"/><path d="M104.02,200.89L104.06,200.48"/><path d="M104.02,200.46L104.02,200.33"/><path d="M104.03,198.82L104.04,198.82"/><path d="M105.27,198.23L105.15,198.23L105.47,199.40L105.40,200.91L105.33,201.20L105.59,202.45L105.42,204.04L105.34,204.35L107.68,204.19L107.86,204.24"/><path d="M105.34,204.35L105.52,204.40L105.49,204.47"/><path d="M105.33,201.20L107.68,201.05L107.89,201.89L107.94,202.91L107.68,204.19"/><path d="M107.68,201.05L107.85,199.83L107.74,198.87L107.48,198.09"/></g><g style="stroke:#000000;stroke-width:0.123"><path d="M104.76,197.40L105.27,198.23L107.48,198.09L107.65,198.17L107.65,198.18L107.73,198.37L107.82,199.13L107.89,200.31L107.94,201.67L107.95,202.93L107.92,203.85L107.86,204.24L107.49,204.33L105.49,204.47L105.01,205.40L104.20,205.46L103.99,205.47L103.99,205.46L103.97,205.46L103.96,205.45L103.96,205.36L103.93,205.35L103.93,205.31L103.93,205.14L103.90,205.11L103.89,205.05L103.91,204.82L103.86,204.77L103.85,204.69L103.87,204.54L103.94,204.47L103.82,204.33L103.82,204.23L103.84,204.17L103.99,204.10L103.79,203.80L103.78,203.69L103.96,203.60L103.93,203.53"/><path d="M104.76,197.40L103.96,197.45L103.77,197.46L103.77,197.47L103.75,197.47L103.74,197.48L103.74,197.58L103.72,197.59L103.71,197.62L103.72,197.82L103.70,197.82L103.69,197.88L103.70,198.16L103.68,198.16L103.67,198.24L103.69,198.60L103.66,198.60L103.66,198.70L103.69,199.12L103.66,199.13L103.67,199.40"/></g></g><g id="Actor_.11"><g style="stroke:#000000;stroke-width:0.018"><path d="M96.83,199.84L96.90,199.83L96.94,200.12L96.97,200.89L97.00,201.93L97.02,202.98L97.02,203.73L93.71,203.95"/><path d="M97.02,205.40L97.07,203.71L99.43,203.55L99.35,200.04L96.99,200.19L97.07,203.71"/><path d="M97.02,203.73L96.99,203.99L96.93,203.99"/><path d="M96.99,200.19L96.87,198.43"/><path d="M99.42,203.83L99.43,203.57L104.07,203.26"/><path d="M99.43,203.55L99.43,203.57"/><path d="M99.32,199.68L99.35,200.04"/></g><g style="stroke:#000000;stroke-width:0.123"><path d="M93.72,204.21L96.93,203.99L97.02,205.40L99.37,205.24L99.42,203.83L104.07,203.52"/><path d="M93.44,200.06L96.83,199.84L96.87,198.43L99.21,198.28L99.32,199.68L104.03,199.37"/></g></g><g id="Actor_.12"><g style="stroke:#000000;stroke-width:0.018"><path d="M87.46,198.82L87.55,198.81L87.66,199.19L87.79,199.92L87.90,200.92L88.01,202.11L88.09,203.38L88.14,204.57L88.15,205.59L88.12,206.30L89.27,207.02L90.57,207.46L91.97,207.59L92.01,206.95L92.03,206.12L92.01,204.78L91.94,203.25L91.84,201.65L91.70,200.11L90.32,200.14L89.83,200.06L88.80,200.45L87.90,200.92"/><path d="M87.66,185.78L88.07,187.99L88.83,188.39L89.78,188.67L89.82,191.86L93.93,191.41L93.91,188.23L89.78,188.67"/><path d="M88.12,206.30L88.06,206.68L87.96,206.66"/><path d="M88.34,197.90L88.35,198.85L88.53,199.28L88.90,199.66L89.83,200.06"/><path d="M88.11,191.17L88.07,187.99"/><path d="M89.82,191.86L88.87,191.58L88.25,191.25"/><path d="M91.97,207.59L91.88,208.09L91.75,208.17"/><path d="M91.70,200.11L91.92,200.07L91.92,200.09L91.70,200.11"/><path d="M91.92,200.09L92.73,199.88L93.37,199.52L93.38,199.50"/><path d="M93.93,191.41L94.73,190.94"/><path d="M93.91,188.23L94.73,187.75L95.30,187.19"/></g><g style="stroke:#000000;stroke-width:0.123"><path d="M89.37,184.77L89.04,184.81L88.24,185.25L87.66,185.78L87.71,188.94L88.11,191.17L88.25,191.25L88.34,197.90L87.46,198.82L87.40,199.21L87.38,199.93L87.39,200.93L87.43,202.10L87.51,203.34L87.61,204.51L87.73,205.51L87.85,206.26L87.96,206.66L89.06,207.46L90.34,207.95L91.75,208.17L93.52,207.98L93.66,207.58L93.74,206.59L93.75,205.10L93.69,203.27L93.56,201.33L93.38,199.49L93.87,198.74L94.26,198.00L94.58,197.26L94.77,196.52L94.73,190.94L95.31,190.35L95.30,187.19L94.83,185.07L94.06,184.66L93.52,184.51"/></g></g><g id="Actor_.13"><g style="stroke:#000000;stroke-width:0.018"><path d="M84.43,78.62L83.89,76.61L84.05,74.53L84.91,72.62L86.38,71.08L88.28,70.07L90.42,69.72L90.32,69.27L88.68,69.48L87.16,70.07"/><path d="M87.66,81.61L87.32,81.62L85.62,80.35"/><path d="M86.71,96.23L86.66,92.35L87.48,92.62L88.54,92.82L88.59,96.72"/><path d="M86.47,91.04L86.66,92.35"/><path d="M86.97,90.83L86.99,91.45L87.05,91.91L87.82,92.32L89.14,92.59L90.74,92.67L90.66,84.19L89.86,84.08L88.94,83.66L88.26,83.09L87.72,82.41L87.27,81.58L86.79,81.22"/><path d="M87.32,81.62L87.27,81.58"/><path d="M88.54,92.82L92.97,92.75L93.00,96.63"/><path d="M90.74,92.67L92.30,92.53L93.50,92.22L94.11,91.79L94.11,90.82"/><path d="M90.66,84.19L91.45,84.06L92.32,83.62L92.95,83.03L93.42,82.34L93.46,82.26"/><path d="M90.42,69.72L92.56,70.06L94.47,71.04L94.74,71.32"/><path d="M90.32,69.27L92.06,69.49"/><path d="M92.97,92.75L93.94,92.51L94.65,92.20"/><path d="M96.83,74.45L96.52,73.79"/></g><g style="stroke:#000000;stroke-width:0.123"><path d="M95.14,71.29L95.06,71.19L93.67,70.15L92.06,69.49L91.04,69.32L90.32,69.27L89.10,69.38L88.68,69.48L87.16,70.07L85.75,71.08L84.67,72.43L84.00,74.00L83.80,75.68L83.89,76.61L84.03,77.23L84.43,78.62L85.62,80.35L86.79,81.22L86.97,90.83L86.47,91.04L86.52,94.88L86.71,96.23L87.53,96.51L88.59,96.72L93.00,96.63L93.97,96.38L94.68,96.07L94.65,92.20L94.37,90.91L94.11,90.82L94.09,81.87"/><path d="M96.67,77.95L97.03,76.50L96.83,74.45L96.63,73.75"/></g></g><g id="Actor_.14"><g style="stroke:#000000;stroke-width:0.018"><path d="M87.25,75.66L87.21,75.40L87.22,75.70"/><path d="M87.21,75.40L87.89,74.99"/><path d="M93.85,80.36L93.48,79.21L92.56,78.38L91.33,78.11L90.11,78.46L89.25,79.35L88.96,80.53L89.01,80.67"/><path d="M88.77,79.49L88.96,80.53"/><path d="M89.36,74.10L90.58,73.38L90.69,73.90"/><path d="M89.32,74.13L89.11,74.25"/><path d="M90.58,73.38L91.66,73.93"/><path d="M93.60,79.32L93.77,80.02"/></g><g style="stroke:#000000;stroke-width:0.123"><path d="M89.01,80.67L89.34,81.69L90.26,82.51L91.49,82.78L92.70,82.42L93.56,81.54L93.85,80.36L93.77,80.02"/></g></g><g id="Actor_.15"><g style="stroke:#000000;stroke-width:0.018"><path d="M86.59,79.97L86.37,78.24L86.86,76.57L87.99,75.20L88.75,76.17L90.20,74.84L90.34,75.52L88.88,76.86L87.26,78.16L88.10,81.94"/><path d="M86.37,77.55L86.37,77.55"/><path d="M91.46,82.77L90.52,82.80L89.08,82.20L88.05,81.05L87.64,79.58L87.94,78.09L88.89,76.87L88.88,76.86"/><path d="M88.75,76.17L87.14,77.45L87.26,78.16"/><path d="M91.04,82.97L90.47,82.82L89.20,82.41L88.27,82.07"/><path d="M90.70,77.18L90.60,76.72L89.24,77.38L88.41,78.59L88.33,80.05L89.02,81.34L89.27,81.50"/><path d="M91.53,82.77L92.10,82.75L93.50,82.05L94.44,80.84L94.75,79.35L94.35,77.89L93.33,76.73L91.88,76.12L90.30,76.17L88.89,76.87"/><path d="M87.94,74.90L87.99,75.20L89.58,74.35L91.39,74.15L93.13,74.63L94.55,75.71L95.43,77.23L95.63,78.95"/><path d="M87.94,74.90L87.94,74.90"/><path d="M90.60,76.72L92.12,76.80L93.39,77.60L94.06,78.89L93.97,80.34L93.79,80.62"/><path d="M90.34,75.52L91.94,76.10L93.21,76.48L94.25,76.76L94.08,76.07L92.54,75.65L90.58,74.98L90.20,74.84"/><path d="M92.79,82.62L93.50,82.05L93.50,82.05"/><path d="M93.50,82.05L93.81,81.77L94.01,81.96"/><path d="M93.81,81.77L95.08,80.61L94.25,76.76"/></g><g style="stroke:#000000;stroke-width:0.123"><path d="M86.85,80.40L86.59,79.97L86.42,79.27L86.39,79.09L86.36,78.94L86.32,78.50L86.31,78.32L86.31,78.17L86.37,77.72L86.37,77.55L86.40,77.40L86.55,76.96L86.58,76.80L86.63,76.65L86.87,76.25L86.91,76.09L86.99,75.96L87.31,75.60L87.37,75.45L87.47,75.33L87.86,75.03L87.94,74.90L88.06,74.80L88.51,74.57L88.60,74.45L88.74,74.37L89.24,74.22L89.33,74.11L89.48,74.06L90.01,73.99L90.12,73.91L90.27,73.89L90.82,73.90L90.92,73.84L91.08,73.84L91.63,73.95L91.73,73.90L91.89,73.93L92.42,74.13L92.51,74.10L92.66,74.16L93.16,74.44L93.25,74.43L93.38,74.51L93.83,74.86L93.91,74.87L94.03,74.97L94.42,75.39L94.48,75.42L94.58,75.53L94.90,76.02L94.94,76.05L95.02,76.18L95.28,76.75L95.34,76.89L95.49,77.45L95.52,77.64L95.58,78.21L95.63,78.95L95.13,80.61L94.01,81.96L92.79,82.62L92.02,83.22L91.04,82.97L90.65,83.01L88.91,82.55L88.27,82.07L88.12,82.01L88.10,81.94L87.48,81.48L86.85,80.40"/></g></g><g id="Actor_.16"><g style="stroke:#000000;stroke-width:0.018"><path d="M87.83,182.71L87.82,182.03L87.32,181.24"/><path d="M87.59,182.33L87.56,182.27L87.54,182.38"/><path d="M87.83,182.72L87.87,182.60L87.89,182.63"/><path d="M87.84,179.98L87.85,180.70L88.72,181.20L87.82,182.03L88.87,182.63L90.32,182.95L91.93,182.94L93.46,182.60L94.67,181.98L95.38,181.19L95.47,180.34"/><path d="M87.39,182.00L87.37,181.91L87.36,182.02"/><path d="M87.32,181.38L87.32,181.89"/><path d="M87.30,181.54L87.31,181.65"/><path d="M87.82,178.22L88.69,178.71L88.69,178.70L88.30,178.03L88.53,177.32L89.16,176.82"/><path d="M88.72,181.20L89.67,182.24L89.64,179.74L88.69,178.71"/><path d="M88.69,178.70L89.62,179.19L90.90,179.40L92.28,179.29L93.47,178.89L94.24,178.26L94.44,177.55L94.04,176.89L93.57,176.65"/><path d="M89.18,178.01L88.98,177.92L89.31,178.53L90.21,178.94L91.43,179.05L92.63,178.81L93.49,178.31L93.78,177.67L93.58,177.32"/><path d="M88.98,177.92L89.17,177.51"/><path d="M89.67,182.24L91.11,181.93L92.91,181.99L93.25,182.05L93.23,179.55L93.70,178.90L94.25,178.31L94.94,177.85"/><path d="M89.64,179.74L90.62,179.50L91.78,179.40L93.23,179.55"/><path d="M93.25,182.05L93.94,181.12L94.79,180.41L94.95,180.33L94.95,179.57"/><path d="M94.04,176.89L94.05,176.90"/><path d="M93.78,177.67L93.58,177.78"/><path d="M95.02,182.22L95.02,182.22"/><path d="M94.95,179.57L94.95,179.57"/></g><g style="stroke:#000000;stroke-width:0.123"><path d="M93.57,176.63L94.05,176.90L94.94,177.85L94.95,179.57L95.47,180.34L95.48,181.06L95.51,181.10L95.51,181.29L95.51,181.43L95.47,181.48L95.46,181.67L95.41,181.81L95.30,181.85L95.28,182.05L95.18,182.18L95.02,182.22L94.98,182.41L94.85,182.53L94.63,182.55L94.58,182.74L94.40,182.85L94.13,182.85L94.07,183.03L93.87,183.13L93.55,183.10L93.48,183.28L93.25,183.35L92.91,183.30L92.83,183.47L92.58,183.52L92.21,183.44L92.13,183.60L91.87,183.63L91.49,183.51L91.41,183.67L91.15,183.67L90.77,183.51L90.69,183.66L90.43,183.65L90.07,183.45L89.99,183.59L89.75,183.55L89.41,183.33L89.34,183.46L89.12,183.40L88.81,183.14L88.75,183.26L88.55,183.18L88.29,182.89L88.24,183.01L88.08,182.91L87.89,182.63L87.83,182.72L87.71,182.60L87.59,182.33L87.54,182.38L87.46,182.26L87.39,182.00L87.36,182.02L87.32,181.89L87.30,181.54L87.32,181.38L87.32,181.24L87.45,180.39L87.84,179.98L87.82,178.22L88.52,177.31L89.08,176.81L89.16,176.76"/></g></g><g id="Actor_.17"><g style="stroke:#000000;stroke-width:0.018"><path d="M86.18,95.36L86.60,95.43"/><path d="M86.81,96.26L86.77,96.40L86.53,96.04L86.47,95.99L86.44,96.19L86.28,95.82L86.66,95.84"/><path d="M86.28,95.82L86.25,95.77L86.23,95.97L86.16,95.55"/><path d="M86.17,95.59L86.61,95.64L86.17,95.55"/><path d="M86.53,96.04L86.69,96.03"/><path d="M86.47,95.99L86.68,96.01"/><path d="M86.66,95.83L86.25,95.77"/><path d="M86.61,95.64L86.63,95.64"/><path d="M86.59,95.43L86.28,95.34"/><path d="M86.57,95.19L86.34,95.14"/><path d="M86.50,95.14L86.57,95.17"/><path d="M88.51,96.70L88.52,97.75L89.03,98.04L87.25,97.47L87.28,99.96L89.06,100.54"/><path d="M87.17,97.43L88.52,97.75L90.19,97.89L91.92,97.83L93.44,97.57L94.52,97.16"/><path d="M87.49,96.50L87.78,96.74L87.84,96.58"/><path d="M87.28,96.42L87.22,96.58L86.98,96.32"/><path d="M87.25,97.47L87.24,97.46"/><path d="M88.06,96.62L88.42,96.87L88.50,96.70"/><path d="M89.54,96.70L89.38,96.76L89.23,96.75L89.13,96.97L88.71,96.72"/><path d="M89.06,100.54L90.69,100.53L90.66,98.03L89.03,98.04"/><path d="M89.38,96.76L89.88,97.02L89.99,96.79L90.14,96.80L90.66,97.03L90.77,96.80L90.92,96.80L91.07,96.67"/><path d="M89.99,96.79L90.34,96.68"/><path d="M89.23,96.75L89.43,96.70"/><path d="M90.69,100.53L92.04,100.54L91.98,100.55"/><path d="M90.66,98.03L90.99,98.06L92.67,97.92L94.00,97.40"/><path d="M90.14,96.80L90.36,96.68"/><path d="M90.92,96.80L91.44,97.00L91.54,96.77L91.69,96.76L91.75,96.66"/><path d="M90.77,96.80L91.06,96.67"/><path d="M92.04,100.54L93.12,100.28L94.02,99.89"/><path d="M92.42,96.64L92.42,96.68L92.29,96.69L92.18,96.94L91.69,96.76"/><path d="M91.71,96.66L91.54,96.77"/><path d="M93.12,100.28L93.11,100.28"/><path d="M93.57,96.49L93.51,96.69L93.18,96.58"/><path d="M92.96,96.63L92.88,96.83L92.42,96.68"/><path d="M92.29,96.69L92.33,96.64"/><path d="M92.88,96.83L92.94,96.63"/><path d="M94.09,96.33L94.04,96.52L93.94,96.39"/><path d="M94.04,96.52L93.77,96.43"/><path d="M93.51,96.69L93.47,96.51"/><path d="M94.32,96.23L94.46,96.33L94.26,96.25"/><path d="M94.77,96.11L94.67,96.07L94.77,96.11L94.80,95.86L94.67,95.80"/><path d="M94.80,95.86L94.84,95.81L94.67,95.77"/><path d="M94.46,96.33L94.50,96.15"/><path d="M94.84,95.81L94.95,95.89L94.96,95.63L94.67,95.55"/><path d="M94.96,95.63L94.98,95.59L94.99,95.66"/><path d="M94.67,95.34L94.99,95.40"/><path d="M94.98,95.59L94.67,95.54"/><path d="M94.88,95.18L94.67,95.15"/><path d="M94.90,95.35L94.67,95.33"/><path d="M94.67,95.13L94.67,95.13"/></g><g style="stroke:#000000;stroke-width:0.123"><path d="M86.55,95.05L86.50,95.14L86.38,95.09L86.34,95.14L86.28,95.34L86.20,95.32L86.18,95.36L86.17,95.55L86.16,95.55L86.16,95.74L86.20,96.46L86.36,96.97L87.24,97.46"/><path d="M87.24,97.46L87.25,98.77L87.28,99.96L87.93,100.25L89.06,100.54L90.51,100.65L91.98,100.55L93.17,100.27L94.02,99.89L94.00,97.40L94.52,97.16L94.99,96.66L94.99,95.66L94.99,95.40L94.98,95.36L94.90,95.35L94.88,95.18L94.84,95.13L94.67,95.13L94.67,95.11"/></g></g><g id="Actor_.18"><g style="stroke:#000000;stroke-width:0.018"><path d="M202.06,83.76L202.24,84.02"/><path d="M202.97,82.04L203.22,82.06"/></g><g style="stroke:#000000;stroke-width:0.123"><path d="M202.48,84.10L203.03,84.15"/><path d="M203.27,84.04L203.75,83.67"/><path d="M203.61,82.20L203.89,82.61"/><path d="M203.98,82.84L203.86,83.42"/></g></g><g id="Actor_.19"><g style="stroke:#000000;stroke-width:0.018"><path d="M177.73,68.73L179.13,69.84L179.67,70.63L180.11,72.04L180.40,73.84L180.47,75.75L180.32,77.47L179.98,78.73L179.50,79.34L180.94,79.27L181.29,79.10L181.19,84.03L179.08,82.12"/><path d="M179.50,79.34L179.14,79.26"/><path d="M179.13,69.84L180.76,69.74L181.13,70.19L181.47,70.94L187.50,70.55L187.88,71.91L188.10,73.54L188.15,75.23L188.01,80.40L187.25,79.78L187.28,78.69L181.29,79.10"/><path d="M179.34,68.63L180.76,69.74"/><path d="M179.43,64.29L181.58,65.88L181.47,70.94"/><path d="M181.19,84.03L181.42,85.34L182.15,86.40"/><path d="M183.53,86.83L182.80,86.16L182.02,85.22L181.77,83.99L182.08,82.71L182.90,81.64L184.07,81.00L185.35,80.91L186.49,81.39L187.25,82.03L186.10,81.55L184.81,81.64L183.63,82.28L182.81,83.36L182.49,84.64L182.75,85.88L183.53,86.83L184.48,87.22"/><path d="M181.77,83.99L182.49,84.64"/><path d="M185.17,62.66L183.89,63.03L182.85,63.93L182.25,65.17L182.22,66.50L182.76,67.67L184.42,68.93L183.50,68.22L182.96,67.05L182.99,65.71L183.59,64.46L184.64,63.56L185.93,63.18L187.20,63.40L186.43,62.88L185.17,62.66L185.93,63.18"/><path d="M181.58,65.88L181.88,64.48L182.67,63.26L183.83,62.41L185.18,62.05L182.96,60.53"/><path d="M184.39,84.92L184.55,85.31L184.71,85.37"/><path d="M184.29,84.68L184.23,84.52L184.40,84.10"/><path d="M184.51,83.84L184.59,83.67L184.99,83.47"/><path d="M185.81,83.41L185.41,83.27L185.24,83.35"/><path d="M184.42,68.93L184.50,68.99L184.42,68.93"/><path d="M184.51,68.99L185.77,69.21L187.06,68.83L187.22,68.69"/><path d="M185.17,67.17L185.00,67.11L184.84,66.70"/><path d="M184.74,66.45L184.67,66.28L184.86,65.85"/><path d="M184.96,65.59L185.04,65.40L185.46,65.20"/><path d="M185.18,62.05L190.14,61.76L189.30,61.54L188.74,61.29L187.21,60.28"/><path d="M186.11,87.12L186.45,86.94"/><path d="M186.10,83.51L186.22,83.55L186.26,83.64"/><path d="M185.71,65.08L185.88,65.00L186.29,65.15"/><path d="M188.03,85.17L188.27,84.22L188.02,82.98L187.25,82.03"/><path d="M187.28,78.69L187.71,77.97L188.01,76.77L188.15,75.23L188.30,70.00L203.13,69.05L202.27,68.50L197.91,68.78L197.32,69.14L196.22,69.42L194.73,69.59L193.04,69.62L191.37,69.52L189.92,69.29L187.53,69.44L187.50,70.55"/><path d="M187.53,69.44L188.30,70.00"/><path d="M186.72,65.33L186.64,65.28"/><path d="M187.20,63.40L188.20,64.18L188.74,65.36L188.69,66.72"/><path d="M187.26,58.63L188.79,59.61L189.74,59.97L191.26,60.24L193.13,60.37L195.05,60.34L196.71,60.16L197.86,59.85L198.32,59.47"/><path d="M187.98,87.85L187.99,87.48"/><path d="M197.29,86.29L197.24,86.29L197.49,79.74L189.59,80.29L189.39,86.87L188.64,86.93"/><path d="M188.01,80.40L189.59,80.29"/><path d="M188.74,61.29L188.79,59.61"/><path d="M189.92,69.29L190.14,61.76"/><path d="M206.85,68.07L206.17,68.12L206.12,69.35L203.11,69.54L202.68,79.37L197.49,79.74"/><path d="M197.91,68.78L198.19,61.28L198.25,61.01L198.32,59.64"/><path d="M198.19,61.28L203.07,60.99L204.38,61.19"/><path d="M203.12,80.27L201.88,80.64L200.86,81.51L200.26,82.71L200.21,83.99L200.71,85.11L199.88,84.46L199.38,83.35L199.43,82.08L200.02,80.89L201.04,80.02L202.27,79.65L203.12,80.27L204.34,80.46L203.48,79.85L202.27,79.65"/><path d="M200.16,65.36L200.28,66.01L201.04,66.99L201.89,67.54L201.13,66.55L200.90,65.27L200.05,64.74L200.16,65.36"/><path d="M200.90,65.27L201.24,63.96L202.09,62.86L203.27,62.21L204.56,62.14L205.69,62.65L204.81,62.13L203.68,61.63L202.40,61.70L201.23,62.35L200.39,63.43L200.05,64.74"/><path d="M202.13,85.90L201.66,85.83L200.71,85.11"/><path d="M200.52,59.51L203.07,60.99"/><path d="M202.95,84.30L203.76,83.91L204.13,83.07L203.83,82.28L203.05,82.00L202.23,82.40L201.86,83.23L202.16,84.02L202.95,84.30L202.71,84.12"/><path d="M201.89,67.54L203.02,68.04L204.30,67.96L205.47,67.31L206.26,66.30"/><path d="M202.65,65.20L202.63,65.17L203.01,64.30L203.84,63.90L204.64,64.20L204.94,65.02L204.56,65.89L203.73,66.29L202.94,65.99L202.65,65.20"/><path d="M202.76,77.62L205.74,77.41L205.74,77.54"/><path d="M203.11,69.54L203.13,69.05"/><path d="M204.34,80.46L205.29,81.20L205.54,81.77"/><path d="M204.94,65.02L204.76,64.92"/><path d="M205.69,62.65L206.20,63.32"/><path d="M206.17,68.12L206.19,67.67"/></g><g style="stroke:#000000;stroke-width:0.123"><path d="M177.57,77.74L177.57,78.00L178.95,79.22L179.14,79.26L179.08,82.12L179.32,83.40L180.03,84.45L182.15,86.40L183.25,87.07L184.48,87.22L184.67,87.30L185.95,87.21L186.11,87.12L186.61,87.08"/><path d="M188.87,58.53L187.26,58.63L187.21,60.28L182.96,60.53L181.63,60.88L180.49,61.72L179.72,62.91L179.43,64.29L179.34,68.63L177.73,68.73L177.68,71.53"/><path d="M187.61,87.52L187.98,87.85L188.90,88.34L190.38,88.70L192.20,88.88L193.00,88.87L194.06,88.85L195.68,88.62L196.80,88.21L197.25,87.71L197.29,86.29L202.00,85.94L202.13,85.90L202.87,86.02L204.11,85.65L205.12,84.78L205.72,83.59L205.78,82.31L205.54,81.77L205.74,77.54L207.10,77.43L207.72,76.81L208.18,75.57L208.40,73.87L208.35,71.99L208.04,70.22L207.51,68.85L206.85,68.07L206.19,67.67L206.26,66.30L206.32,66.23L206.66,64.92L206.44,63.64L206.20,63.32L206.15,63.01L205.46,61.90L204.38,61.19L201.81,59.70L200.52,59.51L198.32,59.64L198.32,59.47L197.99,59.04"/></g></g><g id="Actor_.20"><g style="stroke:#000000;stroke-width:0.018"><path d="M177.06,80.28L179.08,82.12L179.32,83.40L180.03,84.45"/><path d="M177.36,62.75L179.43,64.29L179.34,68.63"/><path d="M179.08,82.12L179.14,79.26"/><path d="M179.43,64.29L179.72,62.91L180.49,61.72L181.63,60.88L182.96,60.53L187.21,60.28L187.26,58.63L188.87,58.53"/><path d="M180.82,59.07L182.96,60.53"/><path d="M187.21,60.28L186.99,60.14L187.03,58.71"/><path d="M187.26,58.63L187.03,58.48"/><path d="M198.07,58.08L200.52,59.51L198.32,59.64"/><path d="M200.52,59.51L201.81,59.70"/></g><g style="stroke:#000000;stroke-width:0.123"><path d="M180.03,84.45L177.99,82.58L177.29,81.54L177.06,80.28L177.10,77.77"/><path d="M177.21,71.55L177.36,62.75L177.64,61.41L178.39,60.23L179.51,59.41L180.82,59.07L187.03,58.71L187.03,58.48L187.07,58.37L187.49,58.30L188.88,58.22"/><path d="M201.81,59.70L199.34,58.27L198.03,58.08"/></g></g><g id="Actor_.21"><g style="stroke:#000000;stroke-width:0.018"><path d="M186.55,86.79L187.04,87.47L187.22,87.34L187.93,87.41L188.53,86.95L188.67,86.22L188.27,85.66L188.31,85.42L187.45,85.34L186.72,85.90L186.55,86.79"/><path d="M187.22,87.34L186.82,86.79L186.96,86.06L187.56,85.59L188.27,85.66"/></g><g style="stroke:#000000;stroke-width:0.123"><path d="M186.01,83.43L188.31,85.42L188.80,86.10L188.63,86.98L187.90,87.55L187.04,87.47L184.76,85.43"/></g></g><g id="Actor_.22"><g style="stroke:#000000;stroke-width:0.018"><path d="M85.87,76.75L86.10,75.01L87.01,73.48L88.47,72.40L90.24,71.95L90.17,71.60"/><path d="M90.24,71.95L165.68,67.29"/><path d="M97.97,78.19L98.07,78.56L96.71,78.30L95.67,77.42L95.23,76.10"/><path d="M98.07,78.56L99.39,78.13L100.29,77.14L100.59,75.81L100.47,75.46"/><path d="M176.93,66.59L177.29,66.57"/></g><g style="stroke:#000000;stroke-width:0.123"><path d="M165.68,66.95L90.17,71.60L88.40,72.05L86.95,73.12L86.04,74.65L85.81,76.39L86.31,78.28"/><path d="M95.11,80.64L167.77,75.78"/><path d="M95.23,76.10L95.50,74.83L96.42,73.82L97.75,73.39L99.11,73.65L100.15,74.54L100.47,75.46L100.20,76.76L99.28,77.76L97.97,78.19L96.61,77.94L95.57,77.06L95.23,76.10"/><path d="M176.93,66.26L177.30,66.24"/></g></g><g id="Actor_.23"><g style="stroke:#000000;stroke-width:0.018"><path d="M202.63,65.16L202.63,65.17"/><path d="M202.85,65.75L203.02,66.00"/><path d="M203.74,63.95L204.07,63.99"/></g><g style="stroke:#000000;stroke-width:0.123"><path d="M203.82,66.15L203.25,66.09"/><path d="M204.66,65.40L204.79,64.80"/><path d="M204.55,65.65L204.07,66.03"/><path d="M204.70,64.55L204.40,64.11"/></g></g><g id="Actor_.24"><g style="stroke:#000000;stroke-width:0.018"><path d="M187.29,68.57L187.55,68.94L187.73,68.80L188.46,68.88L189.07,68.40L189.21,67.65L188.80,67.06L188.85,66.83L187.97,66.73L187.22,67.31L187.05,68.22L187.29,68.57"/><path d="M187.73,68.80L187.32,68.21L187.47,67.46L188.08,66.98L188.80,67.06"/></g><g style="stroke:#000000;stroke-width:0.123"><path d="M186.49,65.17L188.85,66.83L189.35,67.54L189.17,68.46L188.43,69.03L187.55,68.94L185.22,67.24"/></g></g><g><g><path style="stroke:#000000;stroke-width:0.200;stroke-dasharray:2.0 2.0" d="M243.00,70.36L209.38,73.16"/></g></g><g><g><path style="stroke:#000000;stroke-width:0.200;stroke-dasharray:2.0 2.0" d="M250.95,59.07L253.61,31.04"/></g></g><g><g/></g><g><g><path style="stroke:#000000;stroke-width:0.200;stroke-dasharray:2.0 2.0" d="M193.81,47.58L194.90,14.71"/></g></g><g><g><path style="stroke:#000000;stroke-width:0.200;stroke-dasharray:2.0 2.0" d="M193.81,47.58L194.90,14.71"/></g></g><g id="PMI2.0"><g><path style="stroke:#000000;stroke-width:0.200" d="M77.64,199.18L84.37,199.09"/></g><g><path style="fill:#000000" d="M84.41,200.05L84.39,198.05L86.40,199.03z"/></g><g><path style="fill:#ffffff" d="M57.16,202.09L77.67,202.09L77.67,196.44L57.16,196.44z"/><path style="stroke:#000000;stroke-width:0.200;stroke-opacity:0.98" d="M57.16,202.09L77.67,202.09L77.67,196.44L57.16,196.44z"/><text xml:space="preserve" fill="#000000" stroke-width="0" x="57.86" y="200.50" font-size="3.44" opacity="1.00" font-family="Microsoft Sans Serif">8163000002</text></g></g><g id="PMI10.0"><g><path style="stroke:#000000;stroke-width:0.200" d="M179.73,14.21L187.02,14.25"/></g><g><path style="fill:#000000" d="M186.99,15.31L187.01,13.31L189.00,14.32z"/></g><g><path style="fill:#ffffff" d="M146.51,16.98L179.71,16.98L179.71,11.33L146.51,11.33z"/><path style="stroke:#000000;stroke-width:0.200;stroke-opacity:0.98" d="M146.51,16.98L179.71,16.98L179.71,11.33L146.51,11.33z"/><text xml:space="preserve" fill="#000000" stroke-width="0" x="147.22" y="15.39" font-size="3.45" opacity="1.00" font-family="Microsoft Sans Serif">CNA6129P-3536010</text></g></g><g id="PMI11.0"><g><path style="stroke:#000000;stroke-width:0.200" d="M180.75,41.81L188.30,41.59"/></g><g><path style="fill:#000000" d="M188.30,42.63L188.25,40.63L190.27,41.58z"/></g><g><path style="fill:#ffffff" d="M147.54,45.14L180.73,45.14L180.73,39.50L147.54,39.50z"/><path style="stroke:#000000;stroke-width:0.200;stroke-opacity:0.98" d="M147.54,45.14L180.73,45.14L180.73,39.50L147.54,39.50z"/><text xml:space="preserve" fill="#000000" stroke-width="0" x="148.24" y="43.55" font-size="3.45" opacity="1.00" font-family="Microsoft Sans Serif">CNA6129P-3535010</text></g></g><g id="PMI1.0"><g><path style="stroke:#000000;stroke-width:0.200" d="M103.24,142.73L94.47,143.02"/></g><g><path style="fill:#000000" d="M94.45,142.01L94.51,144.01L92.48,143.07z"/></g><g><path style="fill:#ffffff" d="M103.24,145.25L121.83,145.25L121.83,139.61L103.24,139.61z"/><path style="stroke:#000000;stroke-width:0.200;stroke-opacity:0.98" d="M103.24,145.25L121.83,145.25L121.83,139.61L103.24,139.61z"/><text xml:space="preserve" fill="#000000" stroke-width="0" x="103.95" y="143.66" font-size="3.43" opacity="1.00" font-family="Microsoft Sans Serif">670700041</text></g></g><g id="PMI8.0"><g><path style="stroke:#000000;stroke-width:0.200" d="M248.06,81.48L248.10,73.88"/></g><g><path style="fill:#000000" d="M249.08,73.89L247.08,73.88L248.09,71.89z"/></g><g><path style="fill:#ffffff" d="M241.25,87.13L254.81,87.13L254.81,81.49L241.25,81.49z"/><path style="stroke:#000000;stroke-width:0.200;stroke-opacity:0.98" d="M241.25,87.13L254.81,87.13L254.81,81.49L241.25,81.49z"/><text xml:space="preserve" fill="#000000" stroke-width="0" x="241.95" y="85.54" font-size="3.42" opacity="1.00" font-family="Microsoft Sans Serif">Q80810</text></g></g><g id="PMI3.0"><g><path style="stroke:#000000;stroke-width:0.200" d="M73.80,88.34L84.37,88.29"/></g><g><path style="fill:#000000" d="M84.40,89.30L84.39,87.30L86.40,88.29z"/></g><g><path style="fill:#ffffff" d="M53.32,91.23L73.83,91.23L73.83,85.58L53.32,85.58z"/><path style="stroke:#000000;stroke-width:0.200;stroke-opacity:0.98" d="M53.32,91.23L73.83,91.23L73.83,85.58L53.32,85.58z"/><text xml:space="preserve" fill="#000000" stroke-width="0" x="54.02" y="89.64" font-size="3.44" opacity="1.00" font-family="Microsoft Sans Serif">8163000001</text></g></g><g id="PMI13.0"><g><path style="stroke:#000000;stroke-width:0.200" d="M192.78,97.61L193.02,90.18"/></g><g><path style="fill:#000000" d="M194.01,90.22L192.01,90.16L193.08,88.19z"/></g><g><path style="fill:#ffffff" d="M183.38,103.26L201.97,103.26L201.97,97.62L183.38,97.62z"/><path style="stroke:#000000;stroke-width:0.200;stroke-opacity:0.98" d="M183.38,103.26L201.97,103.26L201.97,97.62L183.38,97.62z"/><text xml:space="preserve" fill="#000000" stroke-width="0" x="184.09" y="101.67" font-size="3.44" opacity="1.00" font-family="Microsoft Sans Serif">880000101</text></g></g><g id="PMI9.0"><g><path style="stroke:#000000;stroke-width:0.200" d="M207.72,50.08L197.89,50.20"/></g><g><path style="fill:#000000" d="M197.86,49.21L197.89,51.21L195.88,50.24z"/></g><g><path style="fill:#ffffff" d="M207.71,52.82L221.27,52.82L221.27,47.18L207.71,47.18z"/><path style="stroke:#000000;stroke-width:0.200;stroke-opacity:0.98" d="M207.71,52.82L221.27,52.82L221.27,47.18L207.71,47.18z"/><text xml:space="preserve" fill="#000000" stroke-width="0" x="208.41" y="51.23" font-size="3.42" opacity="1.00" font-family="Microsoft Sans Serif">Q80510</text></g></g><g id="PMI12.0"><g><path style="stroke:#000000;stroke-width:0.200" d="M179.22,26.70L192.75,26.95"/></g><g><path style="fill:#000000" d="M192.70,28.00L192.74,26.00L194.72,27.04z"/></g><g><path style="fill:#ffffff" d="M146.00,29.26L179.19,29.26L179.19,23.62L146.00,23.62z"/><path style="stroke:#000000;stroke-width:0.200;stroke-opacity:0.98" d="M146.00,29.26L179.19,29.26L179.19,23.62L146.00,23.62z"/><text xml:space="preserve" fill="#000000" stroke-width="0" x="146.71" y="27.68" font-size="3.45" opacity="1.00" font-family="Microsoft Sans Serif">CNA6129P-3534010</text></g></g><g id="paperID" visibility="hidden" opacity="0.00" transform="scale(0.000100)"><path style="stroke:#000000;stroke-width:0.500;fill:#e6e6e6;fill-rule:evenodd" d="M-2000.00,-2000.00L2297.00,-2000.00L2297.00,2210.00L-2000.00,2210.00zM0.00,0.00L297.00,0.00L297.00,210.00L0.00,210.00z"/><path style="fill:#000000;fill-opacity:0.118" d="M3.00,210.00L297.00,210.00L297.00,3.00L300.00,3.00L300.00,213.00L3.00,213.00z"/></g><g id="hotspot.0" onmouseover="ShowHotSpot(evt,'0')" onmouseout="HideHotSpot(evt,'0')" onmousemove="ShowToolTip(evt,'0',&quot;3dp903988&quot;)" opacity="0"><path style="fill:#00ff00;fill-rule:evenodd" d="M90.71,100.47L92.89,100.21L93.11,107.37L93.37,142.21L93.80,142.21L94.40,141.95L94.57,142.51L102.85,142.28L103.06,139.67L103.27,139.37L121.55,139.35L122.04,139.63L121.97,145.27L103.32,145.29L103.01,145.08L102.85,142.94L98.15,142.95L94.57,143.23L94.40,143.78L93.62,143.44L93.60,177.50L93.26,178.27L91.75,178.81L90.81,178.81L89.75,178.57L89.24,178.06L88.50,118.63L88.49,100.19zM92.26,183.44L93.37,183.13L93.38,186.58L92.76,187.24L90.01,187.27L89.50,186.76L89.44,183.39z"/></g><g id="hotspot.1" onmouseover="ShowHotSpot(evt,'1')" onmouseout="HideHotSpot(evt,'1')" onmousemove="ShowToolTip(evt,'1',&quot;3dp478471&quot;)" opacity="0"><path style="fill:#00ff00;fill-rule:evenodd" d="M198.11,7.74L198.37,8.00L200.08,14.23L200.63,14.43L200.39,21.16L199.55,21.60L194.93,21.85L192.71,21.85L189.03,21.43L189.12,15.52L189.32,14.70L189.90,14.00L192.11,7.77L193.40,7.51L197.06,7.51zM179.94,11.32L180.07,13.75L186.82,13.72L187.08,13.12L188.89,14.14L187.49,14.97L187.01,15.02L186.81,14.43L180.07,14.41L179.84,17.00L146.59,17.02L146.28,16.81L146.33,11.40L146.54,11.10L179.68,11.06z"/></g><g id="hotspot.2" onmouseover="ShowHotSpot(evt,'2')" onmouseout="HideHotSpot(evt,'2')" onmousemove="ShowToolTip(evt,'2',&quot;3dp477780&quot;)" opacity="0"><path style="fill:#00ff00;fill-rule:evenodd" d="M196.53,38.25L197.34,39.77L197.07,41.65L196.24,42.87L191.92,42.86L191.44,42.57L190.90,41.58L190.93,39.36L191.62,38.25L192.36,37.97L195.79,37.97zM180.96,39.48L181.09,41.40L188.10,41.12L188.36,40.52L190.18,41.41L188.36,42.44L188.10,41.84L183.92,41.82L181.09,42.07L180.86,45.16L147.61,45.18L147.31,44.97L147.36,39.57L147.56,39.26L180.71,39.23z"/></g><g id="hotspot.3" onmouseover="ShowHotSpot(evt,'3')" onmouseout="HideHotSpot(evt,'3')" onmousemove="ShowToolTip(evt,'3',&quot;3dp624180&quot;)" opacity="0"><path style="fill:#00ff00;fill-rule:evenodd" d="M179.43,23.61L179.56,26.30L192.70,26.52L192.96,25.94L196.05,26.19L195.96,33.70L196.57,33.93L196.59,34.20L195.44,34.39L193.22,34.39L192.07,34.20L192.70,32.68L192.72,27.22L187.59,26.97L179.56,26.96L179.32,29.29L146.08,29.31L145.77,29.10L145.82,23.69L146.03,23.39L179.17,23.35z"/></g><g id="hotspot.4" onmouseover="ShowHotSpot(evt,'4')" onmouseout="HideHotSpot(evt,'4')" onmousemove="ShowToolTip(evt,'4',&quot;3dp885775&quot;)" opacity="0"><path style="fill:#00ff00;fill-rule:evenodd" d="M199.88,58.46L205.48,61.82L206.55,63.82L206.19,67.49L207.56,68.70L208.32,71.52L208.32,74.42L207.81,76.47L207.21,77.15L205.94,77.41L205.73,77.71L205.69,83.57L204.64,85.07L203.65,85.62L197.49,86.12L197.08,87.75L195.71,88.43L193.40,88.65L194.01,89.95L193.41,90.21L193.22,92.60L193.13,97.22L201.96,97.35L202.21,97.60L202.11,103.28L183.46,103.30L183.15,103.09L183.20,97.68L183.41,97.38L192.46,97.22L192.70,90.22L192.10,90.01L192.20,89.56L192.49,89.25L192.47,88.95L191.96,88.65L189.88,88.43L188.35,87.91L186.82,87.13L183.22,86.89L181.97,86.10L178.13,82.51L177.36,81.49L177.25,77.65L178.39,77.65L178.90,78.19L179.30,78.20L179.91,76.98L179.90,73.06L179.18,70.94L178.91,70.75L178.02,71.25L174.52,71.28L174.44,68.69L175.75,68.47L176.83,67.76L177.08,65.96L177.36,65.47L177.58,61.60L178.64,59.84L179.56,59.23L180.59,58.98L186.97,58.44L187.24,58.20L188.88,58.19L189.04,59.31L189.34,59.52L191.68,60.01L194.42,60.00L197.23,59.74L197.85,59.08L198.00,57.93zM165.73,68.28L168.14,68.69L168.11,72.09L167.81,72.31L167.55,75.63L102.07,80.05L95.30,80.30L95.59,77.12L95.91,77.10L96.45,77.66L97.46,77.93L98.41,77.94L99.41,77.39L100.29,76.23L100.30,74.57L99.26,73.56L97.38,73.30L96.61,73.57L95.81,74.30L95.17,76.21L93.66,74.56L92.08,73.83L90.46,73.29L87.41,75.12L86.22,77.53L85.93,76.92L85.94,75.44L86.21,74.18L87.13,72.79L88.67,71.77L89.70,71.52L163.18,66.91L165.58,66.90z"/></g><g id="hotspot.5" onmouseover="ShowHotSpot(evt,'5')" onmouseout="HideHotSpot(evt,'5')" onmousemove="ShowToolTip(evt,'5',&quot;3dp553249&quot;)" opacity="0"><path style="fill:#00ff00;fill-rule:evenodd" d="M94.69,184.90L95.16,186.23L95.17,190.41L94.92,190.68L94.65,196.81L93.64,198.86L93.53,199.89L96.71,199.63L96.85,198.24L99.27,198.24L99.41,199.38L103.88,199.27L104.09,202.33L103.84,203.18L103.29,203.40L99.41,203.62L99.27,205.01L97.12,205.28L96.97,203.88L93.78,204.13L93.55,207.74L90.28,207.75L88.26,206.69L87.99,206.45L87.73,205.17L87.48,202.10L87.46,198.83L88.26,197.85L88.25,191.08L87.97,190.34L87.63,185.70L88.95,184.64L89.27,184.67L89.50,186.76L90.01,187.27L92.76,187.24L93.38,186.58L93.54,184.41L93.86,184.38zM77.78,196.43L77.91,198.61L84.19,198.79L84.19,199.09L77.91,199.27L77.76,202.19L57.23,202.13L56.93,201.92L56.98,196.51L57.18,196.21L77.52,196.18zM86.22,198.88L85.60,199.28L84.58,199.64L84.66,197.98z"/></g><g id="hotspot.6" onmouseover="ShowHotSpot(evt,'6')" onmouseout="HideHotSpot(evt,'6')" onmousemove="ShowToolTip(evt,'6',&quot;3dp903982&quot;)" opacity="0"><path style="fill:#00ff00;fill-rule:evenodd" d="M93.11,69.73L94.93,71.00L88.67,71.77L87.13,72.79L86.21,74.18L85.94,75.44L85.93,76.92L86.44,79.22L87.24,80.97L88.78,82.25L90.99,82.81L91.16,82.72L92.52,82.78L92.94,82.19L93.88,81.99L94.13,83.81L94.39,90.72L94.64,92.01L94.65,95.93L93.29,96.36L87.73,96.36L86.89,96.17L86.67,95.88L86.73,90.83L86.98,90.56L86.70,81.00L85.45,79.95L84.39,78.45L83.89,76.13L83.89,74.93L84.13,73.38L85.19,71.62L86.96,70.06L88.16,69.47L89.19,69.22L91.58,69.21zM91.33,73.58L89.94,73.58L90.82,73.29zM96.77,73.97L96.95,76.72L96.70,77.75L95.61,76.96L95.39,76.41L95.40,75.17L95.93,74.18L96.37,73.77zM92.89,77.63L93.63,79.20L93.64,81.35L92.94,82.19L91.16,82.72L90.04,82.27L89.26,81.26L89.00,80.50L89.03,78.28L89.68,77.39L90.20,77.14L92.10,77.14zM73.94,85.57L74.07,87.74L84.19,87.93L84.19,88.22L74.07,88.41L73.92,91.33L53.39,91.27L53.09,91.06L53.13,85.65L53.34,85.35L73.68,85.31zM86.22,88.13L84.66,89.04L84.58,87.37L84.90,87.35zM92.52,82.78L91.16,82.72L92.94,82.19z"/></g><g id="hotspot.7" onmouseover="ShowHotSpot(evt,'7')" onmouseout="HideHotSpot(evt,'7')" onmousemove="ShowToolTip(evt,'7',&quot;3dp476852&quot;)" opacity="0"><path style="fill:#00ff00;fill-rule:evenodd" d="M253.65,56.66L254.69,57.42L254.45,62.67L253.58,63.05L253.62,63.30L253.30,67.75L254.17,68.14L253.66,72.39L253.30,72.80L248.99,73.30L249.01,73.54L248.46,73.83L248.43,81.09L254.70,81.22L254.96,81.47L254.93,87.23L241.32,87.17L241.02,86.96L241.06,81.55L241.27,81.25L247.77,81.09L247.74,73.83L247.17,73.56L247.26,73.06L244.17,73.14L238.44,73.58L237.27,73.30L236.47,72.05L236.21,69.82L236.91,67.92L237.67,67.41L243.42,66.93L245.88,66.91L247.00,66.75L247.54,62.55L246.90,62.10L247.50,57.01L248.68,56.40L252.62,56.42zM248.28,63.02L248.04,63.44L247.91,62.84zM250.83,63.31L250.20,64.12L249.80,63.89L249.54,64.14L249.02,64.16L248.69,63.91L248.69,63.06zM252.86,63.93L252.81,63.32L253.10,63.26zM251.58,64.19L251.52,63.30L252.09,63.29z"/></g><g id="hotspot.8" onmouseover="ShowHotSpot(evt,'8')" onmouseout="HideHotSpot(evt,'8')" onmousemove="ShowToolTip(evt,'8',&quot;3dp476806&quot;)" opacity="0"><path style="fill:#00ff00;fill-rule:evenodd" d="M221.42,47.16L221.39,52.92L207.78,52.86L207.48,52.66L207.31,50.26L198.01,50.27L197.59,51.16L197.30,54.17L196.99,54.39L196.97,55.21L198.08,55.65L198.08,57.52L197.85,59.08L197.23,59.74L194.42,60.00L191.68,60.01L189.34,59.52L189.04,59.31L189.13,55.73L190.18,54.96L190.16,54.36L189.84,53.72L189.88,50.26L190.11,49.99L190.07,49.53L191.33,48.72L196.04,48.73L197.09,49.24L197.79,49.26L198.02,49.55L207.31,49.59L207.52,47.25L207.73,46.94L221.16,46.91z"/></g></g></svg>
