<?xml version="1.0" encoding="UTF-8" standalone="no"?>
<svg xmlns="http://www.w3.org/2000/svg" xmlns:xlink="http://www.w3.org/1999/xlink" width="297.000mm" height="210.000mm" viewBox="0.000000 0.000000 297.000000 210.000000" stroke-linejoin="round" stroke-linecap="round" fill="none" fill-rule="evenodd"><desc>Composer Export</desc><script type="text/ecmascript"><![CDATA[
if(typeof(top) != "undefined")
{
	top.ShowPaper = ShowPaper;
}
function ShowHotSpot(evt,hotspotid)
{
	var svgDocument = evt.target.ownerDocument;
	var strId = "hotspot."+hotspotid;
	var hotspot = svgDocument.getElementById(strId);
	if(hotspot)
		hotspot.setAttribute("opacity",".5");
}
function HideHotSpot(evt,hotspotid)
{
	var svgDocument = evt.target.ownerDocument;
	var strId = "hotspot."+hotspotid;
	var hotspot = svgDocument.getElementById(strId);
	if(hotspot)
		hotspot.setAttribute("opacity","0");

	var toolTip = svgDocument.getElementById('ToolTip');
	if(toolTip)
		toolTip.setAttribute("visibility","hidden");
}
function ShowToolTip(evt,hotspotid,strTooltip)
{
	if(strTooltip=="")
	return;

	// change text
	var svgDocument = evt.target.ownerDocument;
	var tiptext = svgDocument.getElementById('ToolTipText');
	if( !tiptext )
	return;
	tiptext.firstChild.nodeValue = " " + strTooltip + "  " ;

	// show tooltip before, else some refresh issue

	var toolTip = svgDocument.getElementById('ToolTip');
	if(!toolTip)
	return;

	toolTip.setAttribute("visibility","visible");
	toolTip.setAttribute("opacity",".95");

	// move tooltip
	// get viewbox

	var root = svgDocument.documentElement;
	var vbox = (root.getAttribute("viewBox")).split(' ');
	var x0 = parseFloat(vbox[0]);
	var y0 = parseFloat(vbox[1]);
	var vboxW = parseFloat(vbox[2]);
	var vboxH = parseFloat(vbox[3]);

	// get default width of svg

	var strW = root.getAttribute("width");
	var svgW = parseFloat(strW);
	if(strW.indexOf('mm') != -1)
	svgW *= 3.779;

	var strH = root.getAttribute("height");
	var svgH = parseFloat(strH);
	if(strH.indexOf('mm') != -1)
	svgH *= 3.779;  	// 96 dpi  -> 96/25.4 = 3.779

	// update the viewbox / width / height if svg is embedded in html with zoom fit all
	var realx0 = x0;
	var realy0 = y0;
	var realvboxW = vboxW;
	var realvboxH = vboxH;
	var realsvgW = svgW;
	var realsvgH = svgH;

	if ((typeof(top) == "undefined") || (typeof(top.svgctl1) != "undefined")) // embedded in html
	{
		// get window size in pxl

		svgW = window.innerWidth;
		svgH = window.innerHeight;

		// calculate real viewbox

		realsvgW = svgW;
		realsvgH = svgH;
		if((svgW / svgH) > (vboxW / vboxH))
		{
			realvboxW = (vboxH * svgW) / svgH;
			realvboxH = vboxH;
			realx0 = x0 - (realvboxW - vboxW)/2 ;
		}
		else
		{
			realvboxH = (vboxW * svgH) / svgW;
			realvboxW = vboxW;
			realy0 = y0 - (realvboxH - vboxH)/2 ;
		}
	}

	// get user zoom/pan

	var newScale = root.currentScale;
	var translation = root.currentTranslate;

	// transform pxl to user unit

	var xPos = (((evt.clientX+10- translation.x)/newScale) * realvboxW)/realsvgW  + realx0 ;
	var yPos = (((evt.clientY+5- translation.y)/newScale) * realvboxH)/ realsvgH  + realy0 ;
	var scaleForWidth = ( (1 / newScale) * realvboxH) / realsvgH;

	// move tooltip

	toolTip.setAttribute("transform", "translate(" + xPos + "," + yPos + ")" );

	// resize tooltip

	var fontsize = 12;
	tiptext.setAttribute("font-size",fontsize*scaleForWidth);
	tiptext.setAttribute("y", fontsize*scaleForWidth);
	var tipBG = svgDocument.getElementById('ToolTipBG');
	var outline = tiptext.getBBox();
	if(tipBG)
	{
		tipBG.setAttribute("stroke-width", 1*scaleForWidth);
		tipBG.setAttribute("width", Number(outline.width) );
		tipBG.setAttribute("height", Number(outline.height) + fontsize*.5*scaleForWidth );
	}
	var ToolTipShadow = svgDocument.getElementById('ToolTipShadow');
	if(ToolTipShadow)
	{
		ToolTipShadow.setAttribute("width", Number(outline.width) );
		ToolTipShadow.setAttribute("height", Number(outline.height) + fontsize*.5*scaleForWidth );
		ToolTipShadow.setAttribute("x", 3*scaleForWidth);
		ToolTipShadow.setAttribute("y", 3*scaleForWidth);
	}
}
function ShowPaper()
{
  var svgDocument = getDocument();
  var paper = svgDocument.getElementById("paperID");
  if(paper)
  {
    paper.setAttribute("transform","scale(1)");
    paper.setAttribute("opacity","1");
    paper.setAttribute("visibility","visible");
  }
  var svg = svgDocument.getRootElement();
  if(svg)
  {
    svg.setAttribute("width","307.000mm");
    svg.setAttribute("height","220.000mm");
    svg.setAttribute("viewBox","-5.000000 -5.000000 307.000000 220.000000");
  }
}
]]></script><defs/><g><path style="fill:#ffffff" d="M296.92,209.87L0.08,209.87L0.08,0.08L296.92,0.08z"/><path style="fill:#0000ff" d="M147.28,53.50L147.31,55.49L147.92,55.58L149.22,56.12L149.09,71.62L149.51,71.65L153.05,72.47L153.77,72.82L216.86,89.31L218.32,89.72L219.12,89.73L219.11,90.28L216.77,96.69L215.24,102.58L214.74,106.44L214.46,106.92L214.13,109.16L214.45,111.73L215.74,114.28L217.82,116.56L218.85,117.17L218.84,116.32L218.04,114.80L217.96,114.01L218.29,113.97L219.09,114.77L221.41,116.30L224.74,117.78L222.04,134.66L221.00,140.81L218.20,158.24L217.54,161.72L216.24,161.66L212.94,160.36L210.66,158.84L209.59,158.85L123.58,133.73L121.51,133.50L120.16,133.18L119.23,134.36L118.96,133.49L118.31,129.52L118.23,129.31L117.22,116.51L116.40,106.35L116.24,106.21L113.50,64.59L116.05,61.52L144.99,27.47L146.92,25.23L147.15,25.17z"/><path style="fill:#00fdff" d="M153.80,55.66L153.84,55.97L153.52,56.49L153.19,60.54L152.52,60.53L149.61,59.83L149.68,55.71L150.38,54.84z"/><path style="fill:#00fdff" d="M147.92,55.58L147.31,55.49L147.28,53.50L147.90,53.59z"/><path style="fill:#00fdff" d="M153.02,70.75L153.05,72.47L149.51,71.65L149.61,69.97L150.46,69.98z"/><path style="fill:#00fdff" d="M228.54,70.76L229.84,71.21L229.72,71.71L227.70,83.81L227.28,87.23L227.00,87.97L225.75,96.20L225.14,97.38L220.02,111.96L221.40,113.49L225.20,115.54L224.74,117.78L221.41,116.30L219.09,114.77L218.29,113.97L217.96,114.01L218.04,114.80L218.84,116.32L218.85,117.17L217.82,116.56L215.74,114.28L214.45,111.73L214.13,109.16L214.46,106.92L214.74,106.44L215.24,102.58L216.77,96.69L219.11,90.28L219.12,89.73L218.32,89.72L216.86,89.31L217.03,87.45L219.78,87.95L219.94,87.79L220.19,87.31L220.14,87.05L222.02,82.43L222.59,81.26L225.00,75.20L225.00,74.76L226.30,70.95L226.77,70.24z"/><path style="fill:#00fdff" d="M220.86,72.30L223.44,73.07L223.47,73.65L223.16,74.15L223.05,75.00L222.55,78.09L222.46,78.34L218.47,77.17L219.25,72.81L219.72,72.03z"/><path style="fill:#00fdff" d="M212.42,111.72L213.49,112.20L213.23,114.91L212.34,115.30L211.94,117.01L210.30,116.81L210.57,117.11L211.99,117.51L211.74,118.36L209.61,117.60L209.60,113.77L188.84,107.86L188.28,107.86L188.09,108.72L186.82,122.55L186.81,124.27L201.40,128.64L202.16,128.71L202.69,126.36L202.99,126.29L203.23,126.54L203.13,127.07L205.51,127.85L206.04,128.34L206.20,129.98L209.89,131.09L209.90,132.02L138.33,110.78L138.31,110.10L152.51,114.13L152.77,112.05L153.29,111.72L153.46,112.56L155.08,112.99L156.11,113.75L156.36,115.34L156.86,115.41L157.14,107.85L155.07,106.85L155.06,105.64L155.85,103.88L156.09,102.21L155.87,101.98L155.81,100.75L156.02,100.44L157.11,100.56L157.42,99.15L156.35,98.66L153.19,97.87L152.78,100.55L152.15,101.22L149.68,100.72L148.64,99.97L148.45,96.58L148.18,96.33L145.77,95.82L145.36,99.01L144.56,100.28L143.53,100.21L142.19,99.76L142.27,94.82L137.98,93.53L134.78,92.58L134.56,92.03L134.51,90.18L135.08,90.19z"/><path style="fill:#00fdff" d="M123.86,103.88L123.54,104.41L123.25,104.41L123.33,98.97L123.83,98.89z"/><path style="fill:#00fdff" d="M119.74,105.83L119.75,109.51L119.24,110.30L118.97,107.88L118.95,105.13L119.49,104.54z"/><path style="fill:#00fdff" d="M116.24,106.21L116.40,106.35L117.22,116.51L117.11,116.59L114.86,116.08L114.36,115.81L114.38,113.35L115.14,112.32L114.86,106.15z"/><path style="fill:#00fdff" d="M135.62,111.72L134.73,111.68L135.12,111.45z"/><path style="fill:#00fdff" d="M118.31,129.52L118.96,133.49L119.23,134.36L120.16,133.18L121.51,133.50L123.58,133.73L209.59,158.85L210.66,158.84L212.94,160.36L216.24,161.66L217.54,161.72L218.20,158.24L225.73,159.08L234.44,159.60L235.73,159.84L235.72,160.97L235.37,161.89L232.64,164.02L229.25,165.76L225.73,165.74L219.34,164.97L213.95,163.96L197.04,159.61L172.73,152.18L120.01,135.78L119.39,136.30L118.46,136.31L116.94,135.77L116.66,135.53L116.16,132.05L118.23,129.31z"/><path style="fill:#00fdff" d="M235.46,137.83L246.71,140.63L246.48,142.02L244.68,146.11L243.14,146.03L221.00,140.81L222.04,134.66z"/><path style="fill:#fffe02" d="M253.94,25.67L254.20,25.92L254.05,27.04L255.96,27.49L255.98,27.79L252.55,38.50L248.77,56.77L246.86,56.41L246.21,57.53L243.90,57.19L241.51,56.48L241.63,55.13L239.73,54.84L239.04,56.00L190.38,44.66L189.80,44.45L189.91,43.10L188.49,42.85L187.74,43.88L187.09,43.88L181.87,42.68L181.96,39.00L181.10,38.58L182.12,23.37L188.51,14.64L189.36,14.77L190.04,13.38L190.59,12.63L191.42,12.63z"/><path style="fill:#fffe02" d="M180.40,43.12L185.28,44.13L214.21,51.05L217.03,51.55L236.74,56.16L244.69,58.21L244.17,64.95L243.15,74.95L229.72,71.71L229.84,71.21L228.54,70.76L226.77,70.24L226.30,70.95L170.43,57.44L170.45,55.74L180.07,41.78z"/><path style="fill:#0000ff" d="M225.00,74.76L225.00,75.20L222.59,81.26L222.02,82.43L222.46,78.34L222.55,78.09L223.05,75.00L223.37,74.60z"/><path style="fill:#0000ff" d="M220.19,87.31L219.94,87.79L220.14,87.05z"/><path style="fill:#0000ff" d="M223.20,90.83L222.93,91.10L222.89,90.52L223.21,90.21z"/><path style="fill:#ffffff" d="M145.09,42.47L144.85,42.72L144.82,41.33L145.10,41.04z"/><path style="fill:#ffffff" d="M145.10,47.82L144.82,48.32L144.82,46.97L145.10,46.68z"/><path style="fill:#ffffff" d="M134.35,55.49L133.83,56.28L133.80,55.20L134.23,54.32L134.34,54.35z"/><path style="fill:#ffffff" d="M134.34,61.67L134.10,61.92L134.10,60.29L134.34,60.24z"/><path style="fill:#ffffff" d="M142.27,94.82L142.19,99.76L143.53,100.21L144.56,100.28L145.36,99.01L145.77,95.82L148.18,96.33L148.45,96.58L148.64,99.97L149.68,100.72L152.15,101.22L152.78,100.55L153.19,97.87L156.35,98.66L157.42,99.15L157.11,100.56L156.02,100.44L155.81,100.75L155.87,101.98L156.09,102.21L155.85,103.88L155.06,105.64L155.07,106.85L157.14,107.85L156.86,115.41L156.36,115.34L156.11,113.75L155.08,112.99L153.46,112.56L153.29,111.72L152.77,112.05L152.51,114.13L138.31,110.10L137.98,93.53z"/><path style="fill:#ffffff" d="M150.76,99.68L151.00,99.93L150.48,99.96L149.40,99.66L149.36,99.41z"/><path style="fill:#ffffff" d="M183.51,106.32L183.78,106.56L183.75,108.98L182.98,118.20L182.47,122.83L181.42,122.74L161.13,116.66L161.21,111.54L161.39,109.39L161.71,109.36L162.24,109.70L162.92,109.70L163.24,108.19L163.78,107.45L164.28,105.14L164.30,104.02L163.79,103.25L161.72,102.51L161.72,100.18z"/><path style="fill:#ffffff" d="M126.94,107.59L126.66,109.25L126.04,110.45L125.63,110.47L125.61,108.97L126.41,107.43L126.69,107.34z"/><path style="fill:#ffffff" d="M209.60,113.77L209.61,117.60L211.74,118.36L211.65,119.99L210.13,130.49L209.89,131.09L206.20,129.98L206.04,128.34L205.51,127.85L203.13,127.07L203.23,126.54L202.99,126.29L202.69,126.36L202.16,128.71L201.40,128.64L186.81,124.27L186.82,122.55L188.09,108.72L188.28,107.86L188.84,107.86z"/><path style="fill:#ffffff" d="M155.08,114.04L154.25,114.04L153.97,113.74L154.56,113.74z"/><path style="fill:#ffffff" d="M211.94,117.01L211.99,117.51L210.57,117.11L210.30,116.81z"/><path style="fill:#ffffff" d="M205.28,128.87L204.74,128.90L204.13,128.60L205.05,128.60z"/><g id="Actor_.0"><g style="stroke:#000000;stroke-width:0.018"><path d="M244.79,38.89L249.72,39.97L246.20,57.87"/><path d="M249.72,39.97L250.32,38.66"/></g><g style="stroke:#000000;stroke-width:0.123"><path d="M241.44,56.76L244.79,38.89L245.41,37.58L250.32,38.66L246.79,56.53L246.20,57.87L241.44,56.76"/></g></g><g id="Actor_.1"><g style="stroke:#000000;stroke-width:0.018"><path d="M189.41,14.45L252.10,32.34L251.65,34.61"/><path d="M252.10,32.34L254.22,25.93"/></g><g style="stroke:#000000;stroke-width:0.123"><path d="M189.37,14.98L189.42,14.44L190.71,12.66L254.22,25.93L253.77,28.18L251.65,34.61L251.58,34.59"/></g></g><g id="Actor_.2"><g style="stroke:#000000;stroke-width:0.018"><path d="M180.33,41.70L170.48,56.01L170.40,57.50L170.48,57.68"/><path d="M180.31,43.27L170.49,57.60L226.42,71.03"/><path d="M170.31,57.56L170.31,57.48L170.40,57.50L170.40,57.58L170.34,57.57"/><path d="M180.23,43.17L170.40,57.50L170.40,57.58"/><path d="M170.39,55.98L170.48,56.01"/><path d="M171.06,55.87L170.97,56.16L171.03,55.85"/><path d="M176.02,58.21L176.04,58.17L175.94,58.08L175.76,58.10L175.73,58.18L175.73,58.13"/><path d="M175.93,58.16L175.94,58.08"/><path d="M175.73,58.18L175.74,58.20"/><path d="M175.52,49.55L175.48,49.58L175.47,49.47L175.55,49.28L175.52,49.55"/><path d="M175.58,49.29L175.55,49.28"/><path d="M179.87,42.99L179.81,43.27L179.90,43.00"/><path d="M191.69,61.95L191.69,62.00L191.72,61.92L191.90,61.90L191.99,61.95L191.99,62.03"/><path d="M191.70,62.02L191.69,62.00"/><path d="M191.89,61.98L191.90,61.90"/><path d="M208.04,65.93L208.06,65.83L208.18,65.81L208.34,65.87L208.33,65.96"/><path d="M208.23,65.89L208.24,65.82"/><path d="M208.62,61.91L208.64,61.82L208.75,61.79L208.91,61.85L208.90,61.94"/><path d="M208.80,61.88L208.81,61.80"/><path d="M212.62,55.23L212.62,55.14L212.47,55.08L212.36,55.11L212.34,55.20"/><path d="M212.52,55.17L212.53,55.09"/><path d="M213.29,51.73L213.31,51.64L213.41,51.62L213.57,51.67L213.57,51.75"/><path d="M213.46,51.70L213.47,51.62"/><path d="M224.79,69.93L224.81,69.84L224.97,69.82L225.08,69.88L225.08,69.97"/><path d="M224.98,69.82L224.97,69.90"/><path d="M243.25,75.07L229.74,71.82"/><path d="M242.25,74.09L242.25,73.99L242.14,73.93L241.96,73.95L241.94,74.04"/><path d="M242.14,73.93L242.13,74.01"/><path d="M243.26,65.43L243.25,65.49L243.23,65.39L243.06,65.34L242.96,65.38L242.95,65.45"/><path d="M243.25,65.49L243.24,65.50"/><path d="M243.60,58.82L243.60,58.72L243.50,58.67L243.34,58.69L243.32,58.77"/><path d="M243.50,58.67L243.49,58.75"/></g><g style="stroke:#000000;stroke-width:0.123"><path d="M170.31,57.48L170.36,57.60L170.48,57.68L226.39,71.10"/><path d="M170.34,57.57L170.39,55.98L180.24,41.68L180.33,41.70L180.24,43.21L181.28,43.49"/><path d="M175.77,58.23L175.74,58.20L175.87,58.15L176.02,58.21L175.77,58.23"/><path d="M191.70,62.02L191.79,62.07L191.97,62.06L191.89,61.98L191.70,62.02"/><path d="M208.14,65.99L208.05,65.94L208.17,65.89L208.33,65.95L208.14,65.99"/><path d="M208.89,61.95L208.72,61.97L208.62,61.92L208.80,61.88L208.89,61.95"/><path d="M211.53,50.58L216.05,51.64"/><path d="M212.61,55.24L212.52,55.17L212.35,55.19L212.44,55.26L212.61,55.24"/><path d="M213.50,51.79L213.55,51.77L213.46,51.70L213.30,51.72L213.50,51.79"/><path d="M224.97,70.01L224.79,69.95L224.91,69.90L225.07,69.96L224.97,70.01"/><path d="M229.72,71.90L243.24,75.15L244.73,58.36L243.33,58.03"/><path d="M242.24,74.09L242.13,74.12L241.96,74.06L242.06,74.00L242.24,74.09"/><path d="M243.08,65.53L243.24,65.50L243.11,65.43L242.95,65.45L243.08,65.53"/><path d="M243.37,58.82L243.33,58.79L243.43,58.74L243.59,58.80L243.37,58.82"/></g></g><g id="Actor_.3"><g style="stroke:#000000;stroke-width:0.018"><path d="M184.03,21.88L250.77,36.37L250.32,38.66"/><path d="M250.77,36.37L251.92,32.87"/></g><g style="stroke:#000000;stroke-width:0.123"><path d="M183.87,24.11L250.32,38.66L251.47,35.15L251.92,32.87L189.08,14.90L184.03,21.88L183.87,24.11"/></g></g><g id="Actor_.4"><g style="stroke:#000000;stroke-width:0.018"><path d="M173.74,54.56L205.02,61.95L204.80,64.09"/><path d="M205.05,61.95L211.55,50.46"/><path d="M209.76,63.10L242.24,70.48"/></g><g style="stroke:#000000;stroke-width:0.123"><path d="M173.62,56.67L173.74,54.56L181.35,43.39L211.55,50.46L211.28,52.57L204.80,64.09L173.62,56.67"/><path d="M209.49,65.24L209.76,63.10L216.10,51.55L243.34,57.91L242.24,70.48L241.82,72.63L209.49,65.24"/></g></g><g id="Actor_.5"><g style="stroke:#000000;stroke-width:0.018"><path d="M191.28,27.12L242.34,38.35L239.08,56.21"/><path d="M242.34,38.35L242.96,37.05"/></g><g style="stroke:#000000;stroke-width:0.123"><path d="M189.80,44.70L191.28,27.12L192.10,25.92L242.96,37.05L239.70,54.88L239.08,56.21L189.80,44.70"/></g></g><g id="Actor_.6"><g style="stroke:#000000;stroke-width:0.018"><path d="M182.02,38.32L181.99,38.47L182.10,38.56"/><path d="M181.99,38.47L182.03,38.42"/><path d="M182.40,32.81L182.37,32.96L182.48,33.05"/><path d="M182.37,32.96L182.40,32.91"/><path d="M182.00,23.87L183.76,24.26"/><path d="M182.08,23.62L183.88,24.01"/><path d="M182.94,25.07L182.91,25.11L182.94,24.96"/><path d="M182.91,25.11L183.08,25.21"/><path d="M183.32,23.32L183.34,23.27L183.24,23.20L183.07,23.21L183.04,23.28"/><path d="M183.04,23.24L183.05,23.31"/><path d="M183.24,23.20L183.23,23.28"/><path d="M189.72,42.38L189.64,42.44L189.53,42.42L189.45,42.34L189.48,42.30"/><path d="M189.45,42.34L189.47,42.20"/><path d="M190.12,34.65L190.09,34.70L190.11,34.55"/><path d="M190.09,34.70L190.23,34.80L190.36,34.73"/><path d="M189.83,25.59L192.00,26.06"/><path d="M191.02,26.87L190.94,26.93L190.83,26.92L190.74,26.83L190.77,26.79"/><path d="M190.74,26.83L190.77,26.68"/><path d="M241.05,54.32L241.03,54.37L241.14,54.36L241.21,54.28"/><path d="M241.03,54.37L240.89,54.26L240.92,54.15"/><path d="M242.35,46.38L242.33,46.49L242.41,46.58L242.59,46.59L242.65,46.51"/><path d="M242.46,46.61L242.49,46.56"/><path d="M245.33,37.75L242.93,37.22"/><path d="M244.14,38.50L244.07,38.59L243.95,38.61L243.97,38.56"/><path d="M243.84,38.38L243.81,38.49L243.95,38.61"/><path d="M248.16,55.97L248.14,56.02L248.03,55.96L248.03,55.80"/><path d="M248.14,56.02L248.26,56.01L248.32,55.93"/><path d="M250.35,38.56L252.41,39.01L248.78,56.99"/><path d="M249.88,48.14L249.76,48.25L249.69,48.24L249.72,48.19"/><path d="M249.69,48.24L249.56,48.12L249.58,48.02"/><path d="M252.36,39.20L252.33,39.28L250.28,38.83"/><path d="M251.32,40.17L251.30,40.22L251.42,40.21L251.49,40.12"/><path d="M251.30,40.22L251.16,40.10L251.18,39.99"/><path d="M252.36,39.18L252.35,39.19"/><path d="M256.07,27.63L252.39,39.10"/><path d="M253.45,33.16L253.46,33.08L253.52,33.10L253.59,33.16L253.56,33.22"/><path d="M253.28,33.18L253.27,33.12L253.34,33.08L253.46,33.08"/><path d="M254.88,27.83L254.85,27.71L254.79,27.69L254.77,27.77"/><path d="M254.61,27.78L254.67,27.69L254.79,27.69"/></g><g style="stroke:#000000;stroke-width:0.123"><path d="M182.06,39.09L181.00,38.84L182.03,23.73L188.49,14.80L189.07,14.92"/><path d="M182.12,38.30L182.01,38.37L182.11,38.50"/><path d="M182.49,32.99L182.39,32.86L182.50,32.78"/><path d="M183.11,25.17L182.98,25.12L182.94,24.96L183.10,24.95L183.19,25.06"/><path d="M183.29,23.33L183.08,23.33L183.17,23.27L183.29,23.33"/><path d="M189.47,42.24L189.56,42.38L189.72,42.37L189.63,42.19L189.52,42.18L189.47,42.24"/><path d="M188.42,42.96L189.91,43.31"/><path d="M190.26,34.76L190.36,34.73L190.32,34.58L190.11,34.55L190.15,34.70L190.26,34.76"/><path d="M190.97,26.89L190.81,26.84L190.77,26.68L190.88,26.65L190.98,26.71L191.03,26.81L190.97,26.89"/><path d="M241.71,55.35L239.70,54.88"/><path d="M241.20,54.22L241.07,54.11L240.92,54.15L240.94,54.26L241.05,54.32L241.17,54.31L241.20,54.22"/><path d="M242.45,46.33L242.62,46.40L242.61,46.54L242.49,46.56L242.38,46.49L242.35,46.38L242.45,46.33"/><path d="M244.04,38.56L244.14,38.50L244.11,38.39L244.00,38.32L243.84,38.38L243.86,38.49L244.04,38.56"/><path d="M253.97,27.18L256.07,27.63L256.05,27.71L252.39,39.10L248.80,56.94L248.78,56.99L246.79,56.53"/><path d="M248.07,55.77L248.24,55.77L248.32,55.92L248.10,55.95L248.03,55.86L248.07,55.77"/><path d="M249.84,48.18L249.66,48.17L249.58,48.02L249.68,47.96L249.81,47.99L249.88,48.09L249.84,48.18"/><path d="M251.44,40.16L251.49,40.06L251.41,39.96L251.29,39.94L251.18,40.00L251.26,40.15L251.44,40.16"/><path d="M253.55,33.21L253.28,33.18L253.39,33.23L253.55,33.21"/><path d="M254.87,27.82L254.61,27.78L254.72,27.84L254.87,27.82"/></g></g><g id="Actor_.7"><g style="stroke:#000000;stroke-width:0.018"><path d="M183.02,25.30L189.02,26.62L187.61,44.19"/><path d="M189.02,26.62L189.85,25.42"/></g><g style="stroke:#000000;stroke-width:0.123"><path d="M181.81,42.83L187.61,44.19L188.42,42.96L189.85,25.42L183.87,24.11L183.02,25.30L181.81,42.83"/></g></g><g id="Actor_.8"><g style="stroke:#000000;stroke-width:0.018"><path d="M121.31,133.16L210.44,159.11"/><path d="M132.96,121.22L132.66,120.86L132.52,120.45L132.53,120.02L132.71,119.60L132.87,119.66L132.70,120.28L132.85,120.86L133.29,121.32L133.96,121.64L134.76,121.76L135.56,121.66L136.21,121.40L136.79,120.87L136.93,120.87L136.70,121.20L136.25,121.50L135.71,121.72L135.12,121.83L134.50,121.84L133.91,121.73L133.39,121.52L132.96,121.22"/><path d="M132.72,119.59L133.25,119.08L134.08,118.73L135.04,118.64L135.86,118.78L136.55,119.12L137.05,119.68L137.18,120.27L136.97,120.88"/><path d="M133.74,121.29L133.54,121.07L133.43,120.79L133.44,120.55L133.55,120.27L132.90,119.69L133.23,119.34L133.69,119.06L134.20,118.89L134.82,118.82L135.79,118.95L136.26,119.16L136.59,119.42L136.85,119.76L136.97,120.08L136.96,120.47L136.84,120.78L136.79,120.87L136.14,121.06L135.99,121.23L136.15,120.99L136.21,120.72L136.01,120.25L135.51,119.92L134.73,119.82L134.16,119.95L133.72,120.24L133.51,120.64L133.57,121.06L133.68,121.23L133.96,121.44L134.69,121.64L135.40,121.56L135.99,121.23"/><path d="M133.65,121.18L133.62,120.37"/><path d="M133.55,120.27L133.79,120.02"/><path d="M135.84,119.94L135.37,119.76L134.87,119.70L134.32,119.78L133.86,119.97L134.22,119.79L134.76,119.68L135.30,119.72L135.71,119.86L136.01,120.07L136.22,120.37L136.27,120.72L136.15,121.05"/><path d="M135.87,119.96L135.90,119.98"/><path d="M135.62,112.07L210.35,134.28"/><path d="M135.68,111.88L210.38,134.07"/><path d="M135.64,110.33L210.61,132.51"/></g><g style="stroke:#000000;stroke-width:0.123"><path d="M210.62,132.40L135.70,110.24L135.64,110.33L135.63,112.05L121.31,133.16L121.32,133.26L210.43,159.21L210.44,159.11L209.95,157.98"/></g></g><g id="Actor_.9"><g style="stroke:#000000;stroke-width:0.018"><path d="M208.76,144.92L208.84,144.44L208.09,149.19"/><path d="M208.84,144.44L210.33,134.44L210.29,134.71"/><path d="M210.33,134.44L210.35,134.29"/><path d="M212.33,115.37L213.07,115.58L210.39,134.00L210.43,133.71"/><path d="M213.07,115.58L213.08,115.47"/><path d="M213.87,110.17L214.03,109.15"/><path d="M214.86,103.72L214.62,105.84L214.67,107.78"/><path d="M214.82,105.56L214.94,104.39L215.21,102.77L216.10,99.10L217.27,95.23L219.21,89.89L219.05,89.86"/><path d="M217.62,162.09L224.66,118.05L223.25,117.50L221.49,116.64L219.89,115.67L218.57,114.66L217.52,113.68L216.60,112.61L215.77,111.34L215.29,110.32"/><path d="M215.27,110.25L215.17,110.00"/><path d="M226.87,70.31L219.21,89.89L219.18,90.09"/><path d="M223.19,74.75L224.80,75.15L221.97,82.49"/><path d="M224.66,118.05L224.73,117.94"/><path d="M224.80,75.15L224.84,75.07"/></g><g style="stroke:#000000;stroke-width:0.123"><path d="M217.11,113.01L217.84,113.81L218.68,114.57L220.58,115.96L222.82,117.16L224.73,117.94L217.62,162.09L215.29,161.53L213.29,160.74L212.44,160.28L211.61,159.73L210.71,158.95L210.08,158.26"/><path d="M210.39,134.00L210.35,134.28"/><path d="M213.87,110.17L213.08,115.47L212.38,115.27L212.34,115.35L209.86,132.17"/><path d="M226.83,70.56L226.87,70.31L226.72,70.27L224.84,75.07L223.23,74.66L223.19,74.75L221.97,82.49L217.99,92.64L217.10,95.19L216.26,97.92L215.58,100.39L215.04,102.74L214.03,109.15"/><path d="M222.51,94.91L222.19,95.77"/></g></g><g id="Actor_.10"><g style="stroke:#000000;stroke-width:0.018"><path d="M118.95,133.60L119.09,133.64L118.18,126.94L117.38,117.48L115.50,92.72L113.60,64.72L113.44,64.68"/><path d="M113.60,64.72L147.19,25.17"/><path d="M117.77,123.99L117.91,124.03"/><path d="M119.26,134.68L119.09,133.64"/><path d="M119.85,108.75L119.99,108.79L119.99,108.94L119.80,109.79L119.45,110.36L119.29,110.45L119.16,110.40"/><path d="M119.99,108.79L119.77,104.78L119.66,104.50L119.53,104.47"/><path d="M119.63,104.80L119.77,104.85"/><path d="M120.44,133.30L120.44,133.19L122.42,133.82L122.43,133.93"/><path d="M134.86,112.00L120.44,133.19L120.30,133.06L120.27,133.20"/><path d="M120.30,133.04L134.73,111.85L134.76,111.92"/><path d="M122.42,133.82L122.55,133.62"/><path d="M123.32,104.68L123.45,104.73L123.59,104.65L123.93,104.10L124.13,103.25L124.13,103.11L123.99,103.07"/><path d="M124.13,103.11L123.95,99.11L123.85,98.83L123.71,98.79"/><path d="M123.95,99.18L123.81,99.14"/><path d="M126.18,110.35L126.31,110.39L126.07,110.67L125.88,110.77L125.69,110.74"/><path d="M126.31,110.39L126.73,109.57L127.00,108.48L126.98,107.70L126.87,107.45L126.69,107.38"/><path d="M126.89,107.96L127.02,108.00"/><path d="M127.42,106.54L127.35,106.46L127.56,106.01L127.70,106.03L127.59,106.36L127.42,106.54"/><path d="M127.34,106.48L127.51,105.77L127.61,105.68L127.71,105.75L127.70,106.03"/><path d="M127.37,106.32L127.33,106.37"/><path d="M127.50,105.80L127.33,106.31"/><path d="M127.57,105.71L127.56,105.99"/><path d="M131.54,100.63L131.41,101.00L131.25,101.13L131.20,101.08L131.41,100.60L131.54,100.63L131.50,100.27L131.41,100.60"/><path d="M131.42,100.31L131.20,101.06"/><path d="M131.35,100.40L131.22,100.91"/><path d="M131.18,100.96L131.19,100.90"/><path d="M134.42,60.20L134.59,60.27L134.67,60.52L134.59,61.34L134.26,62.07L134.11,62.21L133.92,62.19"/><path d="M133.81,56.56L133.95,56.59L134.10,56.48L134.36,56.04L134.56,55.17L134.56,55.01L134.42,54.97"/><path d="M134.00,56.40L134.14,56.44"/><path d="M134.93,111.67L134.50,92.85L134.73,92.76"/><path d="M135.12,111.62L134.70,92.82L138.05,93.69"/><path d="M134.50,92.85L134.56,92.71"/><path d="M134.85,90.30L134.85,90.19L134.72,90.08L134.68,90.20"/><path d="M136.83,90.86L136.83,90.74L134.85,90.19L147.11,73.26"/><path d="M134.71,90.04L146.98,73.11L147.03,55.77L147.20,55.72L149.19,56.22L149.25,56.14"/><path d="M134.12,62.04L134.26,62.07"/><path d="M134.54,60.62L134.68,60.66"/><path d="M134.56,55.01L134.47,54.60L134.30,54.52"/><path d="M138.28,111.00L138.01,93.74"/><path d="M145.16,46.68L145.27,46.71L145.38,46.96L145.32,47.73L145.02,48.46L144.82,48.64L144.69,48.61"/><path d="M144.99,48.51L144.85,48.48"/><path d="M144.69,43.07L144.81,43.10L144.98,42.97L144.85,42.94"/><path d="M145.14,41.12L145.27,41.14L145.35,41.29L145.38,41.76L145.24,42.45L144.98,42.97"/><path d="M145.39,47.16L145.25,47.12"/><path d="M145.39,41.61L145.25,41.57"/><path d="M147.28,55.65L147.23,55.73L147.17,73.07"/><path d="M147.07,55.74L147.09,55.64"/><path d="M149.19,56.22L149.08,71.71"/></g><g style="stroke:#000000;stroke-width:0.123"><path d="M122.62,133.64L122.43,133.93L120.28,133.21L119.26,134.68L119.12,134.64L118.46,130.35L117.83,124.72L116.43,107.19L114.81,85.03L113.44,64.68L147.05,25.14L147.19,25.17L147.09,55.64L149.25,56.14L149.13,71.72"/><path d="M119.47,110.12L119.16,110.40L119.05,110.08L118.83,106.06L119.06,105.04L119.30,104.64L119.53,104.47L119.63,104.80L119.85,108.82L119.74,109.49L119.47,110.12"/><path d="M123.38,104.66L123.28,104.63L123.23,104.42L123.03,100.27L123.26,99.34L123.50,98.95L123.71,98.79L123.81,99.14L123.99,103.21L123.80,104.05L123.38,104.66"/><path d="M125.70,110.74L125.55,110.52L125.49,110.07L125.68,108.91L126.15,107.83L126.45,107.48L126.70,107.38L126.83,107.60L126.89,108.05L126.70,109.20L126.23,110.27L125.93,110.63L125.70,110.74"/><path d="M134.09,62.07L133.97,62.18L133.85,62.08L133.84,61.35L134.08,60.59L134.41,60.20L134.53,60.48L134.51,61.04L134.34,61.64L134.09,62.07"/><path d="M134.09,56.25L133.81,56.55L133.68,56.25L133.69,55.77L133.95,54.92L134.30,54.52L134.41,54.83L134.40,55.30L134.09,56.25"/><path d="M135.67,111.78L135.01,111.62L134.76,111.92L135.53,112.20"/><path d="M136.90,90.76L136.83,90.86L134.69,90.22L134.51,90.44L134.56,92.71"/><path d="M138.08,93.71L138.34,111.02"/><path d="M144.69,48.61L144.59,48.25L144.66,47.60L144.88,46.98L145.13,46.70L145.25,47.05L145.18,47.70L144.96,48.31L144.69,48.61"/><path d="M144.74,43.04L144.65,43.02L144.58,42.76L144.63,42.12L144.84,41.47L145.12,41.13L145.24,41.43L145.20,42.07L145.02,42.65L144.74,43.04"/><path d="M147.84,73.24L147.17,73.07L146.99,73.09L147.08,73.25L147.33,73.22L147.82,73.35"/></g></g><g id="Actor_.11"><g style="stroke:#000000;stroke-width:0.018"><path d="M135.61,90.29L213.58,112.11"/><path d="M147.79,73.41L218.23,92.01"/><path d="M147.84,73.22L218.30,91.81"/><path d="M147.85,71.48L218.94,90.14"/></g><g style="stroke:#000000;stroke-width:0.123"><path d="M218.98,90.05L147.91,71.40L147.85,71.48L147.84,73.22L147.79,73.41L135.61,90.29L135.61,90.40L213.56,112.23"/></g></g><g id="Actor_.12"><g style="stroke:#000000;stroke-width:0.018"><path d="M155.03,105.80L157.16,106.60"/><path d="M155.62,104.55L157.20,105.15"/><path d="M155.32,105.02L157.18,105.73"/><path d="M155.77,104.17L157.21,104.71"/><path d="M156.10,102.21L157.26,102.65"/><path d="M155.68,101.86L157.26,102.46"/><path d="M155.88,100.65L157.30,101.19"/><path d="M162.86,110.02L163.08,108.85L161.30,108.17"/><path d="M163.62,107.81L163.66,107.60L161.35,106.72"/><path d="M163.33,108.28L163.37,108.07L161.33,107.30"/><path d="M163.92,107.03L163.81,107.21L161.37,106.29"/><path d="M161.49,102.76L164.03,103.72L163.80,104.92L163.91,104.75L164.01,104.21L164.27,104.30L163.98,104.78L163.93,104.84L163.91,104.83L163.91,104.75L163.98,104.78L163.94,104.99L163.87,105.10L163.81,105.12L163.79,105.06L163.80,104.92L161.44,104.04"/><path d="M163.81,105.12L161.44,104.22"/><path d="M163.19,108.67L163.08,108.85L163.12,108.66L163.20,108.45L163.28,108.24L163.37,108.07L163.66,107.60L163.72,107.48L163.77,107.34L163.81,107.21L164.30,104.55L164.41,104.37"/><path d="M163.91,104.75L163.91,104.75"/><path d="M163.94,104.99L164.23,104.52L164.30,104.55L164.31,104.47L164.28,104.46L164.23,104.52"/><path d="M164.01,104.21L164.04,104.04"/><path d="M164.23,104.52L164.27,104.30L164.35,104.20L164.40,104.18"/><path d="M164.14,103.54L164.03,103.72"/></g><g style="stroke:#000000;stroke-width:0.123"><path d="M157.30,100.97L155.99,100.48L155.88,100.65L155.68,101.86L155.67,102.00L155.70,102.06L156.10,102.21L155.77,104.17L155.74,104.30L155.68,104.44L155.62,104.55L155.32,105.02L155.23,105.19L155.15,105.40L155.07,105.61L155.03,105.80L154.84,106.97L157.13,107.85"/><path d="M161.49,102.55L164.14,103.54L164.04,104.04L164.40,104.18L164.43,104.24L164.41,104.37L163.92,107.03L163.87,107.22L163.80,107.43L163.71,107.64L163.62,107.81L163.33,108.28L163.27,108.40L163.22,108.54L163.19,108.67L162.97,109.84L162.86,110.02L161.26,109.42"/></g></g><g id="Actor_.13"><g style="stroke:#000000;stroke-width:0.018"><path d="M161.46,104.62L161.42,104.69"/><path d="M161.94,105.77L162.19,105.78L162.38,105.70L162.46,105.61L162.64,105.59L162.69,105.37L162.62,105.12L162.44,104.89L162.19,104.71L161.90,104.61L161.62,104.61L161.42,104.70"/><path d="M162.46,105.61L162.50,105.40L162.40,105.16L162.20,104.96L161.94,104.83L161.67,104.81L161.46,104.90L161.42,104.76"/><path d="M161.46,104.90L161.41,104.97"/><path d="M161.48,105.49L161.40,105.33"/><path d="M162.38,105.70L162.55,105.71"/><path d="M161.95,104.53L162.01,104.53L162.32,104.66L162.57,104.88L162.60,104.93"/></g><g style="stroke:#000000;stroke-width:0.123"><path d="M162.60,104.93L162.72,105.15L162.73,105.41L162.64,105.59L162.55,105.71L162.31,105.81L162.00,105.80L161.94,105.77L161.69,105.67L161.48,105.49L161.44,105.44L161.40,105.37"/><path d="M161.95,104.53L161.70,104.52L161.46,104.62L161.42,104.69"/></g></g><g id="Actor_.14"><g style="stroke:#000000;stroke-width:0.018"><path d="M114.81,106.39L115.96,106.73L116.28,106.78L116.40,106.77"/><path d="M116.42,114.01L115.96,106.73L116.15,106.47"/><path d="M119.57,108.42L119.52,108.25L119.42,108.22L119.29,108.34L119.57,108.42L119.55,108.69L119.46,108.97L119.33,109.21L119.20,109.33L119.10,109.30L119.05,109.13L119.07,108.88"/><path d="M119.29,108.34L119.17,108.56"/><path d="M119.43,105.90L119.38,105.72L119.28,105.69L119.14,105.81L119.43,105.90L119.40,106.16L119.32,106.45L119.20,106.67L119.06,106.80L118.95,106.77L118.91,106.60L118.93,106.36"/><path d="M119.14,105.81L119.03,106.03"/><path d="M119.37,105.72L119.38,105.72"/><path d="M123.45,102.65L123.33,102.87L123.24,103.15L123.22,103.42L123.27,103.59L123.36,103.62L123.49,103.50L123.61,103.27L123.70,102.99L123.72,102.73L123.68,102.56L123.58,102.53L123.45,102.65L123.72,102.73"/><path d="M123.12,100.65L123.10,100.90L123.15,101.07L123.25,101.10L123.37,100.99L123.50,100.76L123.58,100.48L123.61,100.21L123.33,100.13L123.46,100.01L123.49,100.02L123.56,100.04L123.61,100.21"/><path d="M123.33,100.13L123.21,100.36"/></g><g style="stroke:#000000;stroke-width:0.123"><path d="M116.38,106.49L116.15,106.47L115.00,106.13L114.81,106.39L115.29,113.67L116.42,114.01L116.74,114.06L116.97,114.03"/><path d="M119.17,108.57L119.17,108.56L119.07,108.88L119.17,108.57"/><path d="M118.94,106.34L118.93,106.36L119.03,106.03L118.94,106.34"/><path d="M123.21,100.36L123.12,100.65L123.21,100.36"/></g></g><g id="Actor_.15"><g style="stroke:#000000;stroke-width:0.018"><path d="M138.33,110.27L152.63,114.49"/><path d="M156.12,115.52L156.93,115.76"/><path d="M160.95,116.95L182.54,123.32"/><path d="M202.28,129.15L186.59,124.52"/><path d="M206.05,130.26L209.97,131.42"/><path d="M221.06,140.73L224.51,141.62L224.53,141.74"/><path d="M221.40,138.61L245.14,144.28L244.96,144.83L221.31,139.18"/><path d="M226.21,135.88L226.14,135.99L221.99,134.94"/><path d="M244.58,146.52L244.59,146.40L224.51,141.62"/><path d="M224.61,140.02L224.74,139.46L226.14,135.99L246.71,140.78L246.78,140.67"/><path d="M244.59,146.40L244.96,144.83"/><path d="M244.65,146.26L244.64,146.32L245.06,144.56L245.89,142.68L246.24,142.76L244.68,146.26"/><path d="M244.64,146.32L244.63,146.32"/><path d="M245.14,144.28L246.71,140.78"/><path d="M245.89,142.68L246.67,140.92L246.33,142.49L246.01,142.41"/><path d="M246.33,142.49L246.24,142.76"/><path d="M246.70,140.93L246.71,140.86L246.67,140.92"/></g><g style="stroke:#000000;stroke-width:0.123"><path d="M138.33,110.16L152.64,114.38"/><path d="M156.12,115.41L156.93,115.65"/><path d="M182.55,123.20L160.99,116.84"/><path d="M202.29,129.03L186.63,124.41"/><path d="M209.99,131.30L206.07,130.14"/><path d="M222.01,134.82L226.21,135.88L246.78,140.67L246.77,140.73L246.27,142.75L244.58,146.52L221.04,140.85"/></g></g><g id="Actor_.16"><g style="stroke:#000000;stroke-width:0.018"><path d="M222.08,93.04L222.17,92.95L219.21,111.33"/><path d="M218.93,110.90L221.57,94.42"/><path d="M222.17,92.95L222.90,91.39"/><path d="M222.73,91.29L222.75,91.35L222.56,91.76"/></g><g style="stroke:#000000;stroke-width:0.123"><path d="M222.78,91.18L222.82,91.19L222.90,91.29L222.90,91.39L219.59,111.82"/></g></g><g id="Actor_.17"><g style="stroke:#000000;stroke-width:0.018"><path d="M214.29,111.12L214.49,111.86L214.76,112.59L215.10,113.33L215.53,114.05L216.03,114.76L216.59,115.45L217.23,116.12L217.94,116.77L218.88,117.52"/><path d="M214.61,106.68L214.50,106.82L214.46,107.54L214.49,108.27L214.61,109.00L214.80,109.74L215.08,110.48L215.43,111.21L215.85,111.93L216.35,112.64L216.93,113.33L217.57,114.01L218.25,114.63"/><path d="M214.59,106.14L214.19,108.95"/><path d="M220.96,113.23L220.89,113.18L220.77,113.21L220.08,112.58L219.48,111.92L218.95,111.24L218.52,110.55L218.17,109.84L217.92,109.12L217.75,108.41L217.69,107.70L217.71,106.99L214.86,106.62L214.82,107.39L214.88,108.18L215.02,108.97L215.26,109.77L215.59,110.56L216.02,111.34L216.53,112.11L217.13,112.86L217.81,113.59L218.57,114.29L219.39,114.94L220.28,115.56L221.22,116.13L222.23,116.66L223.29,117.14L224.39,117.57L224.32,117.79"/><path d="M217.14,95.66L217.25,95.61L217.41,95.61L216.82,97.37L216.29,99.16L215.83,100.97L215.44,102.82L215.12,104.71L214.86,106.62L214.68,106.64"/><path d="M217.11,116.09L216.93,115.89"/><path d="M218.32,114.69L218.28,114.65L217.95,116.84"/><path d="M218.15,109.10L218.08,108.81"/><path d="M218.04,108.60L218.00,108.40"/><path d="M218.00,107.28L217.98,107.15L217.87,107.05L217.71,106.99L217.95,105.12L218.25,103.28L218.62,101.47L219.05,99.69L219.55,97.94L220.11,96.22L220.27,96.28L220.37,96.40L220.39,96.53L220.06,98.63"/><path d="M218.19,105.73L218.53,103.57L218.90,101.77L219.33,100.00L219.83,98.24L220.39,96.53L222.57,90.52L222.24,92.60"/><path d="M217.41,95.61L219.65,89.59L227.06,70.53"/><path d="M219.52,117.97L218.89,117.53"/><path d="M218.57,114.29L218.45,114.37"/><path d="M219.31,89.77L219.37,89.65L219.43,89.63L219.49,89.59L219.65,89.59"/><path d="M220.11,96.22L222.31,90.21L222.45,90.27L222.55,90.39L222.57,90.52L229.80,71.45"/><path d="M225.22,115.67L225.17,115.74L224.34,115.40L223.55,115.03L222.79,114.62L222.07,114.18L221.39,113.71L220.77,113.21"/><path d="M222.31,90.21L229.55,71.14"/><path d="M224.69,118.21L224.74,118.23L224.80,118.00L225.18,115.84L225.15,115.86L225.18,115.88"/><path d="M224.74,118.23L224.65,118.43"/><path d="M224.80,118.00L224.73,117.97"/><path d="M224.36,117.69L224.33,117.79"/><path d="M224.39,117.57L225.17,115.74"/><path d="M224.37,117.70L225.15,115.87"/></g><g style="stroke:#000000;stroke-width:0.123"><path d="M214.26,108.35L214.14,109.65L214.18,110.38L214.29,111.11L214.51,111.97L214.78,112.71L215.13,113.44L215.55,114.16L216.05,114.87L216.93,115.89"/><path d="M217.34,116.31L217.11,116.09"/><path d="M223.55,114.93L222.23,114.17L221.57,113.71L220.96,113.23L220.36,112.67L219.81,112.10L219.34,111.51L218.93,110.90L218.58,110.28L218.32,109.66L218.15,109.10L218.04,108.61L217.98,107.96L218.00,107.28L218.20,105.68L218.57,103.87L219.00,102.09L219.50,100.34L220.06,98.63L222.24,92.60L229.45,73.50L229.80,71.45L229.78,71.33L229.71,71.23L229.55,71.14L227.06,70.53L226.88,70.53L226.77,70.61"/><path d="M219.65,88.89L217.78,93.81"/><path d="M224.63,118.54L224.85,117.90L225.23,115.69L223.63,114.97"/></g></g><g id="Actor_.18"><g style="stroke:#000000;stroke-width:0.018"><path d="M134.56,92.63L213.18,114.80"/><path d="M213.46,112.91L134.52,90.77"/><path d="M213.52,112.50L134.56,90.37"/></g><g style="stroke:#000000;stroke-width:0.123"><path d="M138.07,93.70L213.17,114.89"/></g></g><g id="Actor_.19"><g style="stroke:#000000;stroke-width:0.018"><path d="M153.15,70.83L153.08,70.94L149.59,70.03"/><path d="M153.08,70.94L153.05,72.75"/></g><g style="stroke:#000000;stroke-width:0.123"><path d="M153.12,72.77L153.15,70.83L149.66,69.92L149.59,70.03L149.57,71.84"/></g></g><g id="Actor_.20"><g style="stroke:#000000;stroke-width:0.018"><path d="M223.59,89.02L222.59,95.20"/><path d="M224.96,95.83L225.95,89.96"/><path d="M225.31,95.74L226.29,89.94"/><path d="M227.01,85.68L228.74,75.38"/><path d="M226.68,85.61L228.12,77.04"/><path d="M229.46,73.61L229.19,74.18"/></g><g style="stroke:#000000;stroke-width:0.123"><path d="M226.99,88.22L225.96,94.30L225.31,95.74L225.24,95.81L225.11,95.84L224.97,95.83L222.59,95.20L222.47,95.15L222.43,95.11"/><path d="M229.45,73.50L229.46,73.52L229.46,73.61L227.40,85.82"/></g></g><g id="Actor_.21"><g style="stroke:#000000;stroke-width:0.018"><path d="M225.24,96.01L219.71,111.97"/><path d="M224.97,95.83L219.75,110.83"/><path d="M222.59,95.20L222.02,96.78"/></g><g style="stroke:#000000;stroke-width:0.123"><path d="M225.16,95.83L225.22,95.90L225.24,96.01L224.93,97.88L219.96,112.25"/><path d="M222.56,95.19L222.45,95.19L222.39,95.21"/></g></g><g id="Actor_.22"><g style="stroke:#000000;stroke-width:0.018"><path d="M222.44,95.19L222.41,95.18"/><path d="M224.97,97.91L224.96,97.89L224.97,97.81L224.94,97.80"/><path d="M224.97,97.81L225.28,95.94L225.31,95.81L225.35,95.67L225.40,95.54L226.04,94.13L226.07,94.07"/><path d="M225.02,97.75L225.00,97.74L225.00,97.77L225.02,97.75L225.67,96.31L225.70,96.22L225.72,96.12L226.04,94.26L226.01,94.25L226.02,94.24L226.04,94.21L226.04,94.26"/><path d="M225.00,97.74L225.32,95.86L225.34,95.76L225.37,95.67L226.01,94.25"/><path d="M225.67,96.31L225.26,96.20"/><path d="M225.28,95.94L225.23,95.93"/><path d="M225.72,96.12L225.29,96.01"/><path d="M226.04,94.13L225.99,94.12"/><path d="M226.03,94.21L226.04,94.21"/><path d="M226.07,94.18L226.08,94.18"/></g><g style="stroke:#000000;stroke-width:0.123"><path d="M147.03,73.21L147.12,73.24"/><path d="M226.00,94.06L226.07,94.08L226.08,94.18L225.73,96.17L225.00,97.85L224.92,97.89"/></g></g><g id="Actor_.23"><g style="stroke:#000000;stroke-width:0.018"><path d="M182.66,124.13L184.12,106.69"/><path d="M185.84,125.07L187.43,107.63"/><path d="M187.77,107.72L186.18,125.17"/><path d="M186.64,124.34L186.64,124.34"/><path d="M186.63,124.44L188.16,107.83"/></g><g style="stroke:#000000;stroke-width:0.123"><path d="M182.48,124.07L183.93,106.64"/><path d="M188.17,107.84L186.63,124.44L186.24,125.19"/></g></g><g id="Actor_.24"><g style="stroke:#000000;stroke-width:0.018"><path d="M119.32,136.65L119.34,136.60L119.34,136.55L118.80,133.33L118.76,133.23L118.71,133.17L118.64,133.10L118.57,133.05L118.48,133.00L118.40,132.97L116.41,132.33L116.32,132.31L116.25,132.31L116.18,132.32L116.13,132.35L116.10,132.38"/><path d="M119.00,136.55L119.13,136.35L119.16,136.49L119.15,136.53L119.12,136.56L119.07,136.57L119.00,136.55L117.03,135.92L116.96,135.89L116.90,135.85L116.85,135.79L116.83,135.74L116.27,132.53L116.32,132.45L116.31,132.46L116.27,132.48L116.27,132.53"/><path d="M116.28,132.48L116.27,132.48"/><path d="M116.32,132.45L116.36,132.45L116.43,132.46L118.42,133.09"/><path d="M117.03,135.92L118.66,133.54"/><path d="M116.83,135.74L118.57,133.20"/><path d="M116.41,132.33L118.35,129.53"/><path d="M118.40,132.97L118.76,132.44"/><path d="M118.62,133.27L118.60,133.22L118.55,133.17L118.49,133.12L118.42,133.09"/><path d="M119.88,135.75L119.34,136.55"/><path d="M119.13,136.35L118.62,133.28"/><path d="M118.80,133.33L118.89,133.21"/></g><g style="stroke:#000000;stroke-width:0.123"><path d="M119.88,135.81L119.32,136.65L119.28,136.68L119.22,136.70L119.15,136.70L119.02,136.68L117.05,136.05L116.91,135.98L116.83,135.93L116.76,135.87L116.71,135.81L116.67,135.75L116.65,135.69L116.09,132.47L116.10,132.38L118.31,129.20"/></g></g><g id="Actor_.25"><g style="stroke:#000000;stroke-width:0.018"><path d="M219.05,73.64L223.04,74.63L222.45,78.40"/><path d="M219.21,73.08L223.21,74.08L223.65,73.17"/><path d="M223.10,74.52L223.04,74.63L223.07,74.49L223.11,74.33L223.16,74.19L223.21,74.08L223.18,74.24"/></g><g style="stroke:#000000;stroke-width:0.123"><path d="M218.49,77.40L219.05,73.64L219.07,73.49L219.11,73.34L219.16,73.19L219.21,73.08L219.66,72.18L223.65,73.17L223.62,73.33L223.18,74.24L223.15,74.32L223.12,74.42L223.10,74.52L222.51,78.29L222.45,78.40L218.49,77.40"/></g></g><g id="Actor_.26"><g style="stroke:#000000;stroke-width:0.018"><path d="M223.47,90.26L223.63,90.30L223.85,88.97L223.85,88.94L223.69,88.90"/><path d="M223.63,90.30L223.62,90.38"/><path d="M223.85,88.94L223.88,88.78L223.93,88.64L223.76,88.61"/><path d="M223.93,89.60L223.98,89.27L224.01,89.26L223.97,89.26L223.96,89.24L223.96,89.18L223.97,89.12L224.01,89.01L224.07,88.88L224.13,88.78L224.24,88.61L224.27,88.54L224.38,88.56L224.41,88.46L224.44,88.34L224.73,88.44L224.85,88.52L224.95,88.60L225.02,88.70L225.06,88.84L225.05,88.92L225.01,88.98L224.93,89.05L224.82,89.10L224.67,89.13L224.49,89.13L224.46,89.12L224.74,89.04L224.83,89.00L224.90,88.95L224.93,88.91L224.93,88.82L224.90,88.76L224.83,88.70L224.74,88.66L224.63,88.61L224.51,88.58L224.38,88.56L224.24,88.61L224.16,88.57L224.11,88.51L224.10,88.44L224.02,88.67L223.95,88.94L223.88,89.25L223.87,89.34L223.88,89.38L223.89,89.38L223.94,89.30"/><path d="M224.46,89.12L224.18,89.21L224.12,89.54"/><path d="M223.94,89.30L223.98,89.27"/><path d="M224.18,89.21L224.01,89.26"/><path d="M223.93,89.31L223.89,89.38"/><path d="M224.44,88.34L224.32,88.31L224.30,88.43L224.27,88.54L224.16,88.47L224.13,88.37L224.10,88.44"/><path d="M224.13,88.37L224.20,87.91L224.28,87.85L224.40,87.85L224.32,88.31L224.20,88.32L224.13,88.37"/><path d="M224.04,87.87L224.20,87.91L223.93,88.64"/><path d="M226.39,89.85L226.67,88.16L226.51,88.12L226.44,88.18L226.32,88.18L226.28,88.28L224.40,87.85L224.44,87.75"/><path d="M224.90,86.30L224.96,86.18L225.09,86.12L225.26,86.12L225.21,85.98L225.24,85.99L225.23,85.97L225.24,85.87L225.09,85.81L225.00,85.71"/><path d="M225.24,85.99L225.36,86.02L225.35,86.00L225.36,85.89L225.70,86.03L225.82,86.12L225.91,86.21L225.96,86.31L225.96,86.47L225.88,86.58L225.67,86.67L225.53,86.68L225.23,86.65L225.12,86.63L224.97,86.57L224.88,86.47L224.87,86.37L224.94,86.25L225.07,86.18L225.23,86.19L225.19,86.31L225.15,86.48L225.12,86.63L225.04,87.09"/><path d="M226.00,89.97L226.28,88.28L226.45,88.29L226.60,88.24L226.67,88.16L227.47,85.99L227.31,85.96L227.29,85.88L227.19,85.83L225.32,85.40L225.36,85.31L225.25,85.25L225.23,85.18L225.08,85.14L225.08,85.25L225.17,85.34L225.32,85.40L225.24,85.87L225.36,85.89"/><path d="M226.09,87.48L226.39,87.55L226.50,87.55L226.48,87.57L226.48,87.58L226.48,87.61L226.51,87.63L226.62,87.71L226.61,87.77L226.46,87.80L226.43,87.82L226.41,87.83L226.41,87.86L226.42,87.88L226.31,87.84L226.01,87.77"/><path d="M225.96,88.10L226.32,88.18"/><path d="M225.23,86.65L225.26,86.50L225.31,86.34L225.35,86.21L225.60,86.33L225.72,86.35L225.75,86.34L225.76,86.33L225.77,86.30L225.76,86.28L225.72,86.22L225.60,86.10L225.62,86.11"/><path d="M225.21,85.98L225.17,85.96L225.10,85.92L225.04,85.85"/><path d="M225.23,86.19L225.26,86.12L225.35,86.21L225.23,86.19"/><path d="M225.36,86.02L225.60,86.10"/><path d="M225.36,85.31L225.39,85.32"/><path d="M225.23,85.18L225.51,84.46L225.53,84.42"/><path d="M225.51,84.46L225.35,84.42"/><path d="M226.99,87.85L226.93,88.09L226.87,88.29L226.83,88.39L226.81,88.36L226.83,88.21L226.87,87.99L226.94,87.71L226.99,87.54L227.04,87.45L227.06,87.48L227.04,87.62L226.99,87.85"/><path d="M226.31,87.84L226.35,87.69L226.39,87.55"/><path d="M226.61,87.77L226.64,87.78L226.51,88.12"/><path d="M226.59,87.92L226.42,87.88"/><path d="M226.68,87.06L226.89,87.10L226.92,87.02L226.88,87.02L226.73,87.02L226.70,87.02L226.68,87.03L226.68,87.04L226.68,87.06L226.57,87.05L226.60,87.01L226.30,86.94L226.27,86.98L226.88,87.12L226.66,87.72L226.62,87.71"/><path d="M226.27,86.98L226.14,87.34"/><path d="M226.88,87.12L226.89,87.10"/><path d="M226.88,87.02L226.60,87.01"/><path d="M226.64,87.78L226.66,87.72"/><path d="M226.71,87.60L226.50,87.55"/><path d="M226.92,87.02L227.04,86.69L227.19,85.83L227.22,85.73"/><path d="M227.04,86.69L227.31,85.96"/></g><g style="stroke:#000000;stroke-width:0.123"><path d="M226.14,87.34L226.09,87.48L226.05,87.62L226.01,87.77L225.96,88.10L224.44,87.75L224.27,87.74L224.18,87.77L224.12,87.78L224.04,87.87L223.76,88.61L223.72,88.75L223.68,88.95L223.47,90.26L223.46,90.34L223.62,90.38L223.65,90.34L223.93,89.60L224.00,89.54L224.12,89.54L226.00,89.97L226.17,89.98L226.31,89.94L226.39,89.85L227.19,87.68L227.47,85.99L227.47,85.89L227.37,85.79L227.22,85.73L225.39,85.32L225.52,84.50L225.53,84.42L225.37,84.38L225.35,84.42L225.07,85.14L225.00,85.61L225.00,85.71L225.02,85.83L225.04,85.85L224.97,86.07L224.87,86.37L224.80,86.83L224.80,86.93L224.89,87.03L225.04,87.09L226.14,87.34"/></g></g><g id="Actor_.27"><g style="stroke:#000000;stroke-width:0.018"><path d="M202.57,126.93L202.86,127.01L202.85,127.12L202.92,127.22L203.06,127.29L202.96,127.48L202.63,130.03"/><path d="M205.89,131.00L206.14,129.16L206.11,128.86L205.93,128.57L205.64,128.32L205.27,128.16L202.96,127.48L202.76,127.39L202.61,127.25L202.54,127.09"/><path d="M202.69,126.67L202.98,126.75L202.86,127.01"/><path d="M203.85,128.76L203.76,128.96L203.57,128.85L203.46,128.69L203.48,128.53L203.55,128.49"/><path d="M203.76,128.96L205.01,129.32L205.21,129.33L205.35,129.25L205.37,129.10"/><path d="M203.06,127.29L203.13,127.31"/><path d="M202.98,126.75L203.09,126.56L203.17,126.51"/><path d="M205.01,129.32L205.10,129.13"/><path d="M205.37,127.97L205.27,128.16"/><path d="M206.23,128.97L206.14,129.16"/></g><g style="stroke:#000000;stroke-width:0.123"><path d="M203.13,127.31L203.19,126.83L203.20,126.60L203.17,126.51L202.88,126.42L202.80,126.48L202.69,126.67L202.57,126.93L202.54,127.09L202.18,129.90"/><path d="M203.66,128.66L203.55,128.50L203.55,128.49L203.62,128.45L203.82,128.46L205.08,128.82L205.27,128.93L205.37,129.09L205.37,129.10L205.30,129.14L205.10,129.13L203.85,128.76L203.66,128.66"/><path d="M203.13,127.31L205.37,127.97L205.73,128.13L206.02,128.38L206.20,128.67L206.23,128.97L205.95,131.02"/></g></g><g id="Actor_.28"><g style="stroke:#000000;stroke-width:0.018"><path d="M142.19,99.97L142.45,94.94"/><path d="M144.53,100.46L144.81,95.60"/><path d="M144.20,100.55L144.48,95.51"/><path d="M145.43,99.14L145.61,95.83"/><path d="M147.09,55.08L148.01,53.89L147.90,55.81"/><path d="M147.80,53.96L147.90,53.83L147.82,53.75L147.80,53.96L147.09,54.89"/><path d="M147.82,53.75L147.10,53.58"/><path d="M148.01,53.89L148.02,53.87"/></g><g style="stroke:#000000;stroke-width:0.123"><path d="M145.63,95.84L145.44,99.12L144.53,100.46L144.35,100.56L144.20,100.55L142.19,99.97L142.07,99.90L142.04,99.83L142.29,94.90"/><path d="M147.91,55.81L148.03,53.79L147.87,53.68L147.10,53.49"/></g></g><g id="Actor_.29"><g style="stroke:#000000;stroke-width:0.018"><path d="M114.14,113.84L114.23,113.79L114.36,113.80L116.67,114.50L116.80,114.57L116.91,114.68L116.95,114.80L117.07,116.69L117.04,116.79"/><path d="M115.54,114.27L114.37,115.87L114.42,115.96L114.51,116.02L115.74,114.33"/><path d="M114.37,115.87L114.24,113.98L114.29,113.91L114.28,113.91L114.24,113.98"/><path d="M114.51,116.02L116.81,116.72L116.93,116.55L116.93,116.65L116.90,116.72L116.81,116.72"/><path d="M114.36,113.80L115.22,112.63"/><path d="M114.29,113.91L114.37,113.91L116.68,114.61L116.77,114.67L116.82,114.76L116.93,116.55"/><path d="M117.07,116.69L117.17,116.55"/><path d="M116.95,114.80L117.02,114.70"/><path d="M116.67,114.50L116.97,114.09"/></g><g style="stroke:#000000;stroke-width:0.123"><path d="M115.21,112.39L114.14,113.84L114.11,113.94L114.24,115.83L114.28,115.95L114.39,116.06L114.52,116.12L116.82,116.83L116.95,116.84L117.04,116.79L117.17,116.60"/></g></g><g id="Actor_.30"><g style="stroke:#000000;stroke-width:0.018"><path d="M119.89,135.84L186.24,156.45L186.26,156.56"/><path d="M119.80,134.29L186.39,154.90L186.55,154.32L119.95,133.75"/><path d="M214.60,162.55L214.37,164.10L204.79,161.73L200.08,160.48L190.80,157.83L186.24,156.45L186.39,154.90L200.14,158.89L209.79,161.39L214.60,162.55L214.73,161.95L209.92,160.80L200.43,158.34L186.55,154.32"/><path d="M214.82,161.37L214.63,162.55L217.86,163.22L221.12,163.73L224.65,164.13L228.62,164.44L228.45,165.56L228.36,166.03L224.76,165.74L219.88,165.15L217.13,164.69L214.37,164.10L214.36,164.21"/><path d="M214.33,164.20L214.34,164.10"/><path d="M214.76,161.96L217.94,162.62L221.19,163.12L225.38,163.58L229.46,163.88L228.89,164.19L228.67,164.45"/><path d="M218.21,158.43L222.01,159.01L225.38,159.37L235.66,160.00L234.16,161.26L232.46,162.41L230.52,163.42L229.46,163.88"/><path d="M228.36,166.03L228.46,166.14"/><path d="M229.06,165.90L228.74,165.87L228.86,165.95L229.06,165.90L231.09,164.96L232.89,163.89L234.48,162.69L235.23,162.02L235.42,161.73L233.83,161.65L235.64,160.14L235.77,160.13L235.74,160.07L235.65,160.12"/><path d="M228.74,165.87L229.04,164.31L229.21,164.14L231.51,163.07L233.39,161.93L235.23,162.02"/><path d="M233.39,161.93L233.79,161.65"/><path d="M235.42,161.73L235.77,160.13"/><path d="M235.66,160.00L235.90,159.86"/></g><g style="stroke:#000000;stroke-width:0.123"><path d="M120.30,133.22L119.89,133.87L119.80,134.17L119.89,135.85L120.07,136.00L190.81,157.95L200.08,160.59L204.79,161.84L214.33,164.20L218.05,164.96L221.73,165.51L225.21,165.89L228.79,166.12L230.07,165.60L231.98,164.59L234.47,162.82L235.20,162.17L235.50,161.77L235.93,159.90L225.42,159.24L222.06,158.88L218.23,158.29"/></g></g><g id="Actor_.31"><g style="stroke:#000000;stroke-width:0.018"><path d="M157.08,116.56L157.52,99.19"/><path d="M160.13,117.47L160.70,100.09"/><path d="M160.48,117.57L161.05,100.19"/><path d="M160.99,116.87L161.56,100.33"/></g><g style="stroke:#000000;stroke-width:0.123"><path d="M156.91,116.51L157.35,99.14"/><path d="M161.57,100.33L161.01,116.78L160.99,116.87L160.56,117.59"/></g></g><g id="Actor_.32"><g style="stroke:#000000;stroke-width:0.018"><path d="M217.01,87.62L219.66,88.31"/></g><g style="stroke:#000000;stroke-width:0.123"><path d="M219.71,88.19L217.07,87.50L217.01,87.62L216.74,89.46"/></g></g><g id="Actor_.33"><g style="stroke:#000000;stroke-width:0.018"><path d="M152.71,112.30L152.98,112.37L152.96,112.47L152.98,112.50L152.98,112.37L153.13,112.14L153.27,111.96L153.39,111.92"/><path d="M152.98,112.50L153.01,112.57L153.13,112.63L153.02,112.81L152.83,112.72L152.71,112.59L152.67,112.44"/><path d="M152.86,112.06L153.13,112.14"/><path d="M155.99,116.24L156.04,114.41L155.97,114.12L155.79,113.83L155.50,113.59L155.16,113.44L153.02,112.81L152.98,115.35"/><path d="M153.99,114.08L153.88,114.26L155.04,114.60L155.22,114.61L155.34,114.51L155.34,114.42"/><path d="M153.88,114.26L153.70,114.16L153.59,114.00L153.59,113.85L153.70,113.76"/><path d="M153.13,112.63L153.48,112.73"/><path d="M155.04,114.60L155.15,114.42"/><path d="M155.16,113.44L155.27,113.26"/><path d="M156.15,114.23L156.04,114.41"/></g><g style="stroke:#000000;stroke-width:0.123"><path d="M152.62,115.24L152.67,112.44L152.71,112.30L152.86,112.06L153.00,111.88L153.12,111.85L153.39,111.92L153.47,112.03L153.49,112.25L153.48,112.73"/><path d="M153.70,113.82L153.70,113.76L153.71,113.75L153.89,113.76L155.05,114.10L155.23,114.20L155.34,114.36L155.34,114.42L155.33,114.43L155.15,114.42L153.99,114.08L153.81,113.98L153.70,113.82"/><path d="M153.48,112.73L155.27,113.26L155.61,113.41L155.90,113.65L156.09,113.94L156.15,114.23L156.10,116.27"/></g></g><g id="Actor_.34"><g style="stroke:#000000;stroke-width:0.018"><path d="M149.62,56.27L153.22,57.17L153.23,57.03L153.26,56.88L153.31,56.75L153.37,56.64L153.98,55.83"/><path d="M149.78,55.75L153.37,56.64L153.37,56.81"/><path d="M153.16,60.87L153.22,57.17L153.29,57.07"/></g><g style="stroke:#000000;stroke-width:0.123"><path d="M149.59,59.97L153.16,60.87L153.23,60.77L153.29,57.07L153.30,56.97L153.33,56.88L153.37,56.81L153.97,55.99L153.98,55.83L150.39,54.94L149.78,55.75L149.72,55.85L149.67,55.98L149.64,56.13L149.62,56.27L149.59,59.97"/></g></g><g id="Actor_.35"><g style="stroke:#000000;stroke-width:0.018"><path d="M149.39,99.56L149.28,99.66L149.27,99.82L149.39,99.98L149.57,100.09L149.69,99.91"/><path d="M149.57,100.09L150.76,100.42L150.94,100.43L151.06,100.33L151.06,100.25"/><path d="M151.65,101.41L151.70,97.55"/><path d="M150.87,100.25L150.76,100.42"/><path d="M152.42,101.21L152.48,97.77"/></g><g style="stroke:#000000;stroke-width:0.123"><path d="M148.59,96.67L148.57,99.78L148.64,100.09L148.83,100.38L149.12,100.63L149.47,100.79L151.65,101.41L151.87,101.44L152.10,101.41L152.29,101.33L152.42,101.21L152.58,100.97L152.73,100.69L152.85,100.34L152.94,99.97L152.97,99.63L153.00,97.92"/><path d="M149.51,99.81L149.69,99.91L150.87,100.25L151.06,100.25L151.06,100.17L150.95,100.00L150.76,99.90L149.58,99.56L149.39,99.56L149.39,99.64L149.51,99.81"/></g></g><g id="Actor_.36"><g style="stroke:#000000;stroke-width:0.018"><path d="M210.23,116.92L210.16,116.96L210.13,117.13L210.24,117.30L210.44,117.41L210.53,117.21"/><path d="M210.44,117.41L211.74,117.77L211.95,117.78L211.98,117.76"/><path d="M211.82,117.58L211.74,117.77"/></g><g style="stroke:#000000;stroke-width:0.123"><path d="M209.78,113.93L209.34,117.07L209.37,117.38L209.55,117.69L209.85,117.94L210.22,118.11L211.86,118.57"/><path d="M212.03,117.39L212.01,117.35L211.81,117.24L210.51,116.87L210.30,116.87L210.23,116.92L210.22,116.93L210.33,117.10L210.53,117.21L211.82,117.58L212.00,117.59"/></g></g><g><g><path style="stroke:#000000;stroke-width:0.250;stroke-dasharray:3.1 2.0 1.0 2.0" d="M214.71,41.87L173.30,114.36"/></g></g><g id="PMI3.0"><g><path style="stroke:#000000;stroke-width:0.250" d="M39.41,73.93L32.04,73.92"/></g><g><path style="fill:#000000" d="M32.06,72.93L32.06,74.93L30.06,73.92z"/></g><g><path style="fill:#ffffff" d="M39.42,77.05L60.50,77.05L60.50,70.84L39.42,70.84z"/><path style="stroke:#000000;stroke-width:0.250;stroke-opacity:0.98" d="M39.42,77.05L60.50,77.05L60.50,70.84L39.42,70.84z"/><text xml:space="preserve" fill="#000000" stroke-width="0" x="40.20" y="75.30" font-size="3.78" opacity="1.00" font-family="MS Shell Dlg">3K00012T1</text></g></g><g id="PMI2.0"><g><path style="stroke:#000000;stroke-width:0.250" d="M38.90,101.90L32.04,101.93"/></g><g><path style="fill:#000000" d="M32.05,100.93L32.06,102.93L30.06,101.94z"/></g><g><path style="fill:#ffffff" d="M38.91,104.95L60.83,104.95L60.83,98.75L38.91,98.75z"/><path style="stroke:#000000;stroke-width:0.250;stroke-opacity:0.98" d="M38.91,104.95L60.83,104.95L60.83,98.75L38.91,98.75z"/><text xml:space="preserve" fill="#000000" stroke-width="0" x="39.69" y="103.21" font-size="3.78" opacity="1.00" font-family="MS Shell Dlg">3K00000M1</text></g></g><g id="PMI1.0"><g><path style="stroke:#000000;stroke-width:0.250" d="M39.41,88.24L32.04,88.40"/></g><g><path style="fill:#000000" d="M32.04,87.40L32.08,89.40L30.06,88.44z"/></g><g><path style="fill:#ffffff" d="M39.42,91.13L60.29,91.13L60.29,84.92L39.42,84.92z"/><path style="stroke:#000000;stroke-width:0.250;stroke-opacity:0.98" d="M39.42,91.13L60.29,91.13L60.29,84.92L39.42,84.92z"/><text xml:space="preserve" fill="#000000" stroke-width="0" x="40.20" y="89.38" font-size="3.78" opacity="1.00" font-family="MS Shell Dlg">3K00000L1</text></g></g><g/><g><g/><g><path style="stroke:#000000;stroke-width:0.125;fill:#ffff00" d="M27.12,68.41L29.94,68.41L29.94,79.70L27.12,79.70z"/><text xml:space="preserve" fill="#000000" stroke-width="0" x="28.53" y="76.17" font-size="-1.#J" opacity="1.00" font-family="MS Shell Dlg"></text></g></g><g><g/><g><path style="stroke:#000000;stroke-width:0.125;fill:#0000ff" d="M27.12,82.42L29.94,82.42L29.94,93.70L27.12,93.70z"/><text xml:space="preserve" fill="#000000" stroke-width="0" x="28.53" y="90.18" font-size="-1.#J" opacity="1.00" font-family="MS Shell Dlg"></text></g></g><g><g/><g><path style="stroke:#000000;stroke-width:0.125;fill:#00ffff" d="M27.12,96.43L29.94,96.43L29.94,107.71L27.12,107.71z"/><text xml:space="preserve" fill="#000000" stroke-width="0" x="28.53" y="104.19" font-size="-1.#J" opacity="1.00" font-family="MS Shell Dlg"></text></g></g><g id="paperID" visibility="hidden" opacity="0.00" transform="scale(0.000100)"><path style="stroke:#000000;stroke-width:0.500;fill:#e6e6e6;fill-rule:evenodd" d="M-2000.00,-2000.00L2297.00,-2000.00L2297.00,2210.00L-2000.00,2210.00zM0.00,0.00L297.00,0.00L297.00,210.00L0.00,210.00z"/><path style="fill:#000000;fill-opacity:0.118" d="M3.00,210.00L297.00,210.00L297.00,3.00L300.00,3.00L300.00,213.00L3.00,213.00z"/></g><g id="hotspot.0" onmouseover="ShowHotSpot(evt,'0')" onmouseout="HideHotSpot(evt,'0')" onmousemove="ShowToolTip(evt,'0',&quot;3dp1129837&quot;)" opacity="0"><path style="fill:#00ff00;fill-rule:evenodd" d="M147.31,55.47L148.95,55.88L149.22,56.12L149.09,71.60L218.32,89.73L219.12,89.73L219.11,90.28L216.77,96.69L215.24,102.58L214.74,106.44L214.46,106.92L214.13,109.16L214.45,111.73L215.74,114.28L217.82,116.56L218.85,117.17L218.84,116.32L218.04,114.80L217.96,114.01L218.29,113.97L218.85,114.51L220.61,115.82L224.72,117.88L218.57,156.35L217.54,161.72L216.24,161.66L212.94,160.36L210.66,158.84L209.59,158.85L123.58,133.73L121.51,133.50L120.16,133.18L119.23,134.36L118.96,133.49L117.94,125.54L115.13,88.93L113.50,64.59L116.05,61.52L144.99,27.47L146.92,25.23L147.15,25.17zM224.99,74.85L225.02,75.17L222.14,82.37L222.15,81.33L223.15,74.89L223.36,74.58zM30.30,88.16L31.94,87.40L31.92,89.04L30.89,88.68L30.36,88.39zM32.30,88.48L32.30,88.18L34.14,87.91L39.10,87.74L39.33,84.90L60.35,84.82L60.35,91.07L39.33,90.99L39.10,88.41zM223.20,90.83L222.93,91.10L222.89,90.52L223.21,90.21zM145.09,42.47L144.85,42.72L144.82,41.33L145.10,41.04zM145.10,47.82L144.82,48.32L144.82,46.97L145.10,46.68zM134.35,55.49L133.83,56.28L133.80,55.20L134.23,54.32L134.34,54.35zM134.34,61.67L134.10,61.92L134.10,60.29L134.34,60.24zM212.42,111.72L213.49,112.20L213.23,114.91L212.34,115.30L209.90,132.02L138.66,110.98L138.34,110.78L138.17,97.12L137.91,93.54L134.78,92.58L134.56,92.03L134.51,90.18L135.08,90.19zM123.86,103.88L123.54,104.41L123.25,104.41L123.33,98.97L123.83,98.89zM119.74,105.83L119.75,109.51L119.24,110.30L118.97,107.88L118.95,105.13L119.49,104.54zM126.94,107.59L126.66,109.25L126.04,110.45L125.63,110.47L125.61,108.97L126.41,107.43L126.69,107.34zM135.62,111.72L134.73,111.68L135.12,111.45z"/></g><g id="hotspot.1" onmouseover="ShowHotSpot(evt,'1')" onmouseout="HideHotSpot(evt,'1')" onmousemove="ShowToolTip(evt,'1',&quot;3dp972454 (I_3DPart972454.7)&quot;)" opacity="0"><path style="fill:#00ff00;fill-rule:evenodd" d="M153.80,55.66L153.84,55.97L153.52,56.49L153.19,60.54L152.52,60.53L149.61,59.83L149.68,55.71L150.38,54.84zM147.89,55.50L147.32,55.50L147.32,53.57L147.89,53.57zM153.02,70.75L153.03,72.39L150.97,72.04L149.61,71.60L149.61,69.97L150.46,69.98zM228.54,70.76L229.85,71.21L227.70,83.81L227.28,87.23L227.00,87.97L225.75,96.20L225.14,97.38L220.02,111.96L221.40,113.49L225.20,115.54L224.99,117.20L224.70,117.70L224.21,117.64L220.61,115.82L218.85,114.51L218.29,113.97L217.96,114.01L218.04,114.80L218.84,116.32L218.85,117.17L217.82,116.56L215.74,114.28L214.45,111.73L214.13,109.16L214.46,106.92L214.74,106.44L215.24,102.58L216.77,96.69L219.11,90.28L219.12,89.73L218.32,89.72L216.95,89.27L217.03,87.45L219.36,87.88L219.67,88.34L219.52,88.46L219.59,89.03L219.67,88.34L220.11,87.74L226.77,70.57L227.51,70.48zM220.86,72.30L223.45,73.07L223.47,73.65L223.16,74.15L222.43,78.24L218.47,77.17L219.25,72.81L219.72,72.03zM212.42,111.72L213.49,112.20L213.23,114.91L212.34,115.30L212.19,116.43L211.90,116.93L210.30,116.81L210.57,117.11L211.68,117.32L211.96,117.59L211.93,118.21L210.87,118.13L209.61,117.60L209.60,113.77L188.84,107.86L188.28,107.86L188.09,108.72L186.82,122.55L186.81,124.27L201.40,128.64L202.16,128.71L202.69,126.36L202.99,126.29L203.23,126.54L203.13,127.07L205.51,127.85L206.04,128.34L206.20,129.98L209.87,131.18L209.90,132.01L138.66,110.98L138.32,110.76L138.33,110.18L138.92,110.16L152.51,114.13L152.77,112.05L153.29,111.72L153.46,112.56L155.08,112.99L156.11,113.75L156.36,115.34L156.86,115.41L157.14,107.85L155.07,106.85L155.06,105.64L155.85,103.88L156.09,102.21L155.87,101.98L155.81,100.75L156.02,100.44L157.11,100.56L157.42,99.15L156.35,98.66L153.19,97.87L152.78,100.55L152.15,101.22L149.68,100.72L148.64,99.97L148.45,96.58L148.18,96.33L145.77,95.82L145.36,99.01L144.56,100.28L143.53,100.21L142.19,99.76L142.27,94.82L134.78,92.58L134.56,92.03L134.51,90.18L135.08,90.19zM30.36,101.58L31.60,100.92L31.92,100.94L31.92,102.61L30.89,102.24L30.36,101.97zM32.31,102.05L32.31,101.76L33.37,101.48L38.59,101.31L38.82,98.73L61.12,98.65L61.04,104.82L38.82,104.82L38.59,101.98zM123.86,103.88L123.54,104.41L123.25,104.41L123.33,98.97L123.83,98.89zM119.74,105.83L119.75,109.51L119.24,110.30L118.97,107.88L118.95,105.13L119.49,104.54zM116.41,106.34L117.11,116.59L115.63,116.34L114.36,115.81L114.38,113.35L115.14,112.32L114.86,106.15L115.36,106.07zM135.62,111.72L134.73,111.68L135.12,111.45zM118.30,129.50L118.96,133.49L119.23,134.36L120.16,133.18L121.51,133.50L123.58,133.73L209.59,158.85L210.66,158.84L212.94,160.36L216.24,161.66L217.54,161.72L218.22,158.31L219.59,158.32L225.73,159.08L234.44,159.60L235.73,159.84L235.72,160.97L235.37,161.89L232.64,164.02L229.25,165.76L225.73,165.74L219.34,164.97L213.95,163.96L197.04,159.61L172.73,152.18L120.01,135.78L119.39,136.30L118.46,136.31L116.94,135.77L116.66,135.53L116.16,132.05L118.09,129.36zM235.46,137.83L246.71,140.63L246.48,142.02L244.68,146.11L243.14,146.03L221.03,140.72L222.08,134.75zM219.59,89.03L219.52,88.46L219.67,88.34zM223.20,90.83L222.93,91.10L222.89,90.52L223.21,90.21zM150.76,99.68L151.00,99.93L150.48,99.96L149.40,99.66L149.36,99.41zM183.51,106.32L183.78,106.56L183.75,108.98L182.98,118.20L182.47,122.83L181.42,122.74L161.13,116.66L161.21,111.54L161.39,109.39L161.71,109.36L162.24,109.70L162.92,109.70L163.24,108.19L163.78,107.45L164.28,105.14L164.30,104.02L163.79,103.25L161.72,102.51L161.72,100.18zM155.08,114.04L154.25,114.04L153.97,113.74L154.56,113.74zM205.28,128.87L204.74,128.90L204.13,128.60L205.05,128.60z"/></g><g id="hotspot.2" onmouseover="ShowHotSpot(evt,'2')" onmouseout="HideHotSpot(evt,'2')" onmousemove="ShowToolTip(evt,'2',&quot;3dp1874455 (I_3DPart1874455.8)&quot;)" opacity="0"><path style="fill:#00ff00;fill-rule:evenodd" d="M253.94,25.67L254.20,25.92L254.05,27.04L255.96,27.49L255.98,27.79L252.55,38.50L248.77,56.77L246.86,56.41L246.21,57.53L243.90,57.19L241.51,56.48L241.63,55.13L239.73,54.84L239.04,56.00L190.38,44.66L189.80,44.45L189.91,43.10L188.49,42.85L187.74,43.88L187.09,43.88L181.87,42.68L181.96,39.00L181.10,38.58L182.12,23.37L188.51,14.64L189.36,14.77L190.04,13.38L190.59,12.63L191.42,12.63zM180.40,43.12L185.28,44.13L214.21,51.05L217.03,51.55L236.74,56.16L244.69,58.21L244.17,64.95L243.15,74.95L229.81,71.77L229.83,71.22L229.62,71.00L226.77,70.23L226.40,70.75L225.74,70.77L170.43,57.44L170.45,55.74L180.07,41.78zM60.63,70.98L60.60,76.99L39.33,76.91L39.10,74.07L32.09,74.10L31.92,74.65L30.28,73.80L31.59,73.01L32.11,73.37L39.10,73.41L39.33,70.82L60.37,70.72z"/></g></g></svg>
