<?xml version="1.0" encoding="UTF-8" standalone="no"?>
<svg xmlns="http://www.w3.org/2000/svg" xmlns:xlink="http://www.w3.org/1999/xlink" width="297.000mm" height="210.000mm" viewBox="0.000000 0.000000 297.000000 210.000000" stroke-linejoin="round" stroke-linecap="round" fill="none" fill-rule="evenodd"><desc>Composer Export</desc><script type="text/ecmascript"><![CDATA[
if(typeof(top) != "undefined")
{
	top.ShowPaper = ShowPaper;
}
function ShowHotSpot(evt,hotspotid)
{
	var svgDocument = evt.target.ownerDocument;
	var strId = "hotspot."+hotspotid;
	var hotspot = svgDocument.getElementById(strId);
	if(hotspot)
		hotspot.setAttribute("opacity",".5");
}
function HideHotSpot(evt,hotspotid)
{
	var svgDocument = evt.target.ownerDocument;
	var strId = "hotspot."+hotspotid;
	var hotspot = svgDocument.getElementById(strId);
	if(hotspot)
		hotspot.setAttribute("opacity","0");

	var toolTip = svgDocument.getElementById('ToolTip');
	if(toolTip)
		toolTip.setAttribute("visibility","hidden");
}
function ShowToolTip(evt,hotspotid,strTooltip)
{
	if(strTooltip=="")
	return;

	// change text
	var svgDocument = evt.target.ownerDocument;
	var tiptext = svgDocument.getElementById('ToolTipText');
	if( !tiptext )
	return;
	tiptext.firstChild.nodeValue = " " + strTooltip + "  " ;

	// show tooltip before, else some refresh issue

	var toolTip = svgDocument.getElementById('ToolTip');
	if(!toolTip)
	return;

	toolTip.setAttribute("visibility","visible");
	toolTip.setAttribute("opacity",".95");

	// move tooltip
	// get viewbox

	var root = svgDocument.documentElement;
	var vbox = (root.getAttribute("viewBox")).split(' ');
	var x0 = parseFloat(vbox[0]);
	var y0 = parseFloat(vbox[1]);
	var vboxW = parseFloat(vbox[2]);
	var vboxH = parseFloat(vbox[3]);

	// get default width of svg

	var strW = root.getAttribute("width");
	var svgW = parseFloat(strW);
	if(strW.indexOf('mm') != -1)
	svgW *= 3.779;

	var strH = root.getAttribute("height");
	var svgH = parseFloat(strH);
	if(strH.indexOf('mm') != -1)
	svgH *= 3.779;  	// 96 dpi  -> 96/25.4 = 3.779

	// update the viewbox / width / height if svg is embedded in html with zoom fit all
	var realx0 = x0;
	var realy0 = y0;
	var realvboxW = vboxW;
	var realvboxH = vboxH;
	var realsvgW = svgW;
	var realsvgH = svgH;

	if ((typeof(top) == "undefined") || (typeof(top.svgctl1) != "undefined")) // embedded in html
	{
		// get window size in pxl

		svgW = window.innerWidth;
		svgH = window.innerHeight;

		// calculate real viewbox

		realsvgW = svgW;
		realsvgH = svgH;
		if((svgW / svgH) > (vboxW / vboxH))
		{
			realvboxW = (vboxH * svgW) / svgH;
			realvboxH = vboxH;
			realx0 = x0 - (realvboxW - vboxW)/2 ;
		}
		else
		{
			realvboxH = (vboxW * svgH) / svgW;
			realvboxW = vboxW;
			realy0 = y0 - (realvboxH - vboxH)/2 ;
		}
	}

	// get user zoom/pan

	var newScale = root.currentScale;
	var translation = root.currentTranslate;

	// transform pxl to user unit

	var xPos = (((evt.clientX+10- translation.x)/newScale) * realvboxW)/realsvgW  + realx0 ;
	var yPos = (((evt.clientY+5- translation.y)/newScale) * realvboxH)/ realsvgH  + realy0 ;
	var scaleForWidth = ( (1 / newScale) * realvboxH) / realsvgH;

	// move tooltip

	toolTip.setAttribute("transform", "translate(" + xPos + "," + yPos + ")" );

	// resize tooltip

	var fontsize = 12;
	tiptext.setAttribute("font-size",fontsize*scaleForWidth);
	tiptext.setAttribute("y", fontsize*scaleForWidth);
	var tipBG = svgDocument.getElementById('ToolTipBG');
	var outline = tiptext.getBBox();
	if(tipBG)
	{
		tipBG.setAttribute("stroke-width", 1*scaleForWidth);
		tipBG.setAttribute("width", Number(outline.width) );
		tipBG.setAttribute("height", Number(outline.height) + fontsize*.5*scaleForWidth );
	}
	var ToolTipShadow = svgDocument.getElementById('ToolTipShadow');
	if(ToolTipShadow)
	{
		ToolTipShadow.setAttribute("width", Number(outline.width) );
		ToolTipShadow.setAttribute("height", Number(outline.height) + fontsize*.5*scaleForWidth );
		ToolTipShadow.setAttribute("x", 3*scaleForWidth);
		ToolTipShadow.setAttribute("y", 3*scaleForWidth);
	}
}
function ShowPaper()
{
  var svgDocument = getDocument();
  var paper = svgDocument.getElementById("paperID");
  if(paper)
  {
    paper.setAttribute("transform","scale(1)");
    paper.setAttribute("opacity","1");
    paper.setAttribute("visibility","visible");
  }
  var svg = svgDocument.getRootElement();
  if(svg)
  {
    svg.setAttribute("width","307.000mm");
    svg.setAttribute("height","220.000mm");
    svg.setAttribute("viewBox","-5.000000 -5.000000 307.000000 220.000000");
  }
}
]]></script><defs/><g><path style="fill:#ffffff" d="M296.92,209.87L0.08,209.87L0.08,0.08L296.92,0.08z"/><path style="fill:#0072aa" d="M107.53,1.51L108.64,21.18L110.70,20.83L115.88,19.54L116.16,20.31L117.36,53.35L21.17,85.94L20.89,85.65L7.85,27.73L7.74,26.98L30.84,21.88L31.15,21.68L30.81,17.75L63.40,10.81L63.84,14.53L68.27,13.48L68.19,9.82L68.68,9.54L107.45,1.34z"/><path style="fill:#ff0000" d="M49.25,23.97L52.93,25.93L53.42,28.76L53.94,33.20L52.06,33.64L51.11,33.65L50.36,29.27L49.25,29.28L48.95,29.78L49.60,34.21L49.29,34.42L46.69,35.01L45.51,27.97L41.90,25.95L41.04,21.35L47.72,19.80L48.56,19.78z"/><path style="fill:#fffe02" d="M131.00,59.74L136.63,62.64L95.48,78.29L95.23,78.38L89.36,80.64L33.89,101.49L32.93,101.50L17.76,88.67L118.64,54.09L119.22,54.08z"/><path style="fill:#0072aa" d="M47.78,22.17L47.45,22.09L47.83,21.88z"/><path style="fill:#0072aa" d="M42.69,23.47L42.60,23.15L42.90,23.10z"/><path style="fill:#0072aa" d="M51.68,28.35L51.26,28.58L51.31,27.98L51.63,27.96z"/><path style="fill:#0072aa" d="M52.13,32.41L51.80,32.33L52.18,32.12z"/><path style="fill:#0072aa" d="M48.38,33.26L48.06,33.74L48.06,33.18L48.34,33.12z"/><path style="fill:#00fdff" d="M204.99,34.14L204.99,35.50L197.83,98.74L197.83,100.05L204.91,96.08L205.77,96.08L207.82,97.12L208.86,97.87L234.17,110.20L235.48,110.42L238.82,112.20L238.80,113.34L238.29,114.88L130.41,186.77L129.98,186.76L130.00,183.90L127.71,181.87L126.81,182.37L125.63,182.38L124.35,181.10L100.28,160.61L100.04,158.56L98.48,157.27L97.89,157.26L97.38,157.58L96.70,157.57L96.45,155.23L95.91,154.24L93.13,124.73L92.76,124.51L77.67,131.71L76.69,131.72L76.36,131.48L76.70,130.99L76.98,129.47L92.83,122.06L89.27,84.58L89.22,82.28L89.52,82.01L89.36,80.64L90.05,80.72L90.53,81.01L92.02,81.01L95.15,79.79L95.23,78.38L95.48,78.29L96.49,78.90L96.95,80.23L97.89,91.60L102.07,90.04L156.89,67.54L157.12,66.22L157.55,54.60L158.14,54.59L159.16,55.15L160.12,55.16L161.47,54.70L161.65,53.06L162.23,53.05L163.81,53.82L163.52,61.87L163.52,64.97L197.83,50.86L199.53,34.89L200.39,34.90L201.14,35.18L202.39,35.20L202.69,34.99L202.87,33.60L203.45,33.60z"/><path style="fill:#00fdff" d="M242.42,119.13L242.14,120.78L241.85,121.25L224.64,133.25L223.68,133.25L223.09,132.71L223.41,130.98L223.85,130.40L241.27,118.60L241.61,118.61z"/><path style="fill:#00fdff" d="M217.02,136.31L217.04,137.92L216.75,138.66L187.49,159.08L186.58,159.07L185.98,158.65L186.05,157.11L186.31,156.10L216.16,135.78z"/><path style="fill:#00fdff" d="M118.74,190.32L118.21,193.23L117.87,193.92L115.54,195.69L114.63,195.70L109.77,191.07L83.92,167.25L82.37,165.98L82.03,165.21L84.34,163.93L84.41,163.67L81.57,161.11L81.49,160.64L83.29,159.59L84.42,159.58z"/><path style="fill:#ffffff" d="M97.49,8.50L98.50,10.06L98.49,12.72L98.16,13.67L96.70,15.28L87.91,17.50L85.93,17.51L84.67,16.71L84.14,15.72L84.14,12.45L85.34,10.58L86.88,9.82L94.82,8.02L96.71,8.01z"/><path style="fill:#ffffff" d="M100.85,68.14L101.08,68.79L100.69,69.20L99.18,69.74L96.93,69.74L95.92,69.21L95.92,68.28L97.37,67.67L99.77,67.67z"/><path style="fill:#ffffff" d="M89.36,80.64L95.23,78.38L95.15,79.79L92.02,81.01L90.53,81.01L90.05,80.72z"/><path style="fill:#ffffff" d="M53.17,85.57L52.69,86.49L51.31,87.15L47.77,87.16L47.28,86.87L47.25,85.92L48.30,85.17L49.24,84.83L52.16,84.82z"/><path style="fill:#ffffff" d="M179.06,81.47L154.30,93.13L154.30,88.24L154.56,79.03L154.73,75.62L196.74,57.65L197.06,57.67L197.06,59.31L192.71,101.30L192.71,102.76L180.93,109.27L180.93,107.96L182.72,85.94L182.73,83.28L181.87,83.28L179.65,110.01L154.31,123.83L153.45,124.11L153.71,106.85L154.05,97.46L154.30,95.16L179.31,83.30L179.66,81.50z"/><path style="fill:#ffffff" d="M229.34,113.27L229.37,113.59L198.24,133.73L197.30,133.76L173.43,119.65L205.17,101.71L206.03,101.71z"/><path style="fill:#ffffff" d="M98.74,99.50L148.18,78.44L147.90,96.18L100.71,118.40L100.02,118.40L98.74,102.50z"/><path style="fill:#ffffff" d="M139.74,104.00L138.85,104.02L138.71,132.31L102.84,152.02L102.58,150.12L100.19,120.95L147.58,98.36L147.90,98.38L147.64,117.69L147.65,127.47L139.96,131.79L140.00,104.26z"/><path style="fill:#ffffff" d="M191.96,137.34L191.99,137.66L168.02,153.19L167.36,153.23L143.53,137.04L143.45,136.57L167.53,122.95L168.13,122.96z"/><path style="fill:#ffffff" d="M210.80,128.59L211.69,128.64L211.69,128.95L211.11,128.91z"/><path style="fill:#ffffff" d="M209.38,130.38L209.30,130.66L207.96,130.66L208.50,130.12L209.12,130.12z"/><path style="fill:#ffffff" d="M161.49,157.26L131.40,176.75L131.04,176.75L107.35,157.35L107.43,156.89L136.81,140.37L137.40,140.36z"/><path style="fill:#ffffff" d="M170.08,155.23L171.25,155.27L171.23,155.58L170.38,155.52z"/><path style="fill:#ffffff" d="M168.38,157.29L167.77,157.79L166.47,157.87L166.48,157.59L167.28,157.01L167.88,157.01z"/><g id="Actor_9.0"><g style="stroke:#000000;stroke-width:0.018"><path d="M93.02,124.34L77.13,131.89L77.03,132.10"/><path d="M77.11,131.90L76.85,129.88L92.83,122.36"/><path d="M76.32,131.41L76.89,131.88L76.98,131.83L76.89,131.88"/><path d="M76.98,131.83L76.90,131.14"/><path d="M76.85,129.88L76.72,129.78"/><path d="M147.95,96.41L100.03,118.97"/><path d="M100.19,120.93L147.92,98.25"/><path d="M179.53,83.22L154.07,95.32"/><path d="M154.12,93.51L179.67,81.48"/></g><g style="stroke:#000000;stroke-width:0.123"><path d="M92.82,122.21L76.72,129.78L76.90,131.14L76.32,131.41L76.34,131.54L77.03,132.10L93.04,124.49"/><path d="M147.95,96.28L100.02,118.83"/><path d="M100.20,121.08L147.92,98.39"/><path d="M154.12,93.37L179.54,81.42L179.67,81.48L179.53,83.22L179.39,83.42L154.06,95.47"/></g></g><g id="Actor_12.0"><g style="stroke:#000000;stroke-width:0.018"><path d="M89.01,82.51L89.55,82.84L89.50,82.34"/><path d="M89.36,80.85L90.45,81.53L97.38,156.09"/><path d="M90.45,81.53L90.94,81.66L91.31,81.67L91.78,81.56L98.52,156.13"/><path d="M91.78,81.56L96.44,79.79L102.48,153.94"/><path d="M95.12,78.68L96.21,79.34L96.22,79.50L96.12,79.59L95.22,79.93"/><path d="M96.45,79.78L96.76,79.59L96.84,79.37"/><path d="M96.21,79.34L96.27,79.47L96.22,79.50"/></g><g style="stroke:#000000;stroke-width:0.123"><path d="M89.79,90.62L89.01,82.51L89.48,82.33L89.36,80.85L89.83,80.68L90.92,81.35L91.16,81.41L91.45,81.36L95.22,79.93L95.12,78.68L95.55,78.52L96.67,79.16L96.84,79.37L102.81,153.43L102.74,153.71L102.48,153.94L98.52,156.13L98.13,156.26L97.71,156.24L97.38,156.09L95.95,154.88L89.79,90.62"/></g></g><g id="Actor_11.0"><g style="stroke:#000000;stroke-width:0.018"><path d="M137.15,138.54L162.94,156.56"/><path d="M137.72,137.63L163.68,155.68L163.40,155.94L163.18,156.30L163.15,156.42"/><path d="M141.06,135.76L167.05,153.51L163.68,155.68"/><path d="M167.10,153.88L167.03,153.88L165.64,154.77"/><path d="M167.52,153.51L167.33,153.42L167.05,153.51"/><path d="M167.08,153.87L167.13,153.86"/></g><g style="stroke:#000000;stroke-width:0.123"><path d="M161.54,157.46L137.16,140.31L137.15,138.54L137.23,138.20L137.43,137.86L137.72,137.63L141.06,135.76L141.34,135.68L141.54,135.78L167.52,153.51L167.54,153.60"/><path d="M165.68,154.80L165.64,154.77L163.66,156.05L163.56,156.16"/></g></g><g id="Actor_10.0"><g style="stroke:#000000;stroke-width:0.018"><path d="M96.52,155.65L96.68,155.57L96.91,155.69L99.79,158.13L208.51,97.56"/><path d="M96.95,157.98L96.78,156.15L96.94,156.06L98.32,157.22"/><path d="M96.78,156.15L96.82,156.02L96.94,156.06"/><path d="M99.79,158.13L100.04,158.42L100.33,159.16L100.49,161.00"/><path d="M138.74,132.76L102.73,152.50"/><path d="M137.15,138.54L105.74,156.13"/><path d="M179.67,110.32L139.92,132.11"/><path d="M167.94,121.29L141.78,135.95"/><path d="M171.98,119.03L205.83,100.08"/><path d="M205.56,96.13L180.76,109.72"/></g><g style="stroke:#000000;stroke-width:0.123"><path d="M100.49,161.00L100.20,160.75L100.04,158.91L99.83,158.50L98.32,157.22L96.95,157.98L96.70,157.77L96.49,155.91L96.52,155.65L96.73,155.54"/><path d="M138.74,132.53L102.71,152.26"/><path d="M137.16,140.31L107.11,157.26"/><path d="M179.69,110.11L139.92,131.89"/><path d="M167.84,122.99L143.19,136.91"/><path d="M205.62,101.68L173.39,119.86"/><path d="M208.90,98.03L208.51,97.56L205.56,96.13L205.30,96.08L180.78,109.51"/></g></g><g id="Actor_13.0"><g style="stroke:#000000;stroke-width:0.018"><path d="M199.59,56.34L98.45,99.42"/><path d="M98.08,94.83L200.01,52.48"/><path d="M97.98,93.51L158.67,68.48"/><path d="M199.53,51.62L163.28,66.57"/><path d="M199.30,56.77L199.28,56.78"/></g><g style="stroke:#000000;stroke-width:0.123"><path d="M163.34,65.13L197.91,51.00L199.62,51.66L199.95,52.07L200.01,52.48L199.59,56.34L199.50,56.61L199.30,56.77L98.49,99.81"/><path d="M97.85,91.91L157.04,67.71"/></g></g><g id="Actor_6.0"><g style="stroke:#000000;stroke-width:0.018"><path d="M186.22,156.56L186.30,156.51L186.26,156.50L186.22,156.56L186.02,158.59L186.04,158.69L186.12,158.77L187.16,158.05L187.04,159.21L186.91,159.30L186.12,158.77"/><path d="M186.02,158.59L187.18,157.78L187.24,157.23L187.22,157.13L187.14,157.04L186.30,156.51"/><path d="M216.23,135.97L186.36,156.41L186.19,156.37"/><path d="M186.36,156.41L187.14,156.92L187.31,157.10L187.35,157.30L217.20,136.75"/><path d="M187.06,159.45L187.14,159.34L187.35,157.30"/><path d="M187.14,159.34L216.89,138.70"/><path d="M186.91,159.30L186.99,159.32L187.04,159.21"/><path d="M217.02,136.41L187.15,156.93"/><path d="M187.16,158.05L187.18,157.78"/></g><g style="stroke:#000000;stroke-width:0.123"><path d="M185.95,158.71L186.10,158.88L186.90,159.41L187.06,159.45L216.80,138.81L216.89,138.70L217.20,136.75L217.16,136.56L217.02,136.41L216.23,135.97L216.07,135.94L186.19,156.37L186.11,156.49L185.90,158.51L185.95,158.71"/></g></g><g id="Actor_5.0"><g style="stroke:#000000;stroke-width:0.018"><path d="M138.89,133.96L138.84,104.55L138.68,104.36"/><path d="M138.84,104.55L139.17,104.65L139.56,104.63L139.85,104.49L139.93,104.29"/></g><g style="stroke:#000000;stroke-width:0.123"><path d="M138.81,133.85L138.89,133.96L139.21,134.07L139.57,134.04L139.84,133.89L139.92,133.67L139.93,104.29L139.77,104.10L139.44,103.99L139.05,104.01L138.76,104.15L138.68,104.36L138.74,133.75L138.81,133.85"/></g></g><g id="Actor_7.0"><g style="stroke:#000000;stroke-width:0.018"><path d="M223.23,132.93L223.25,133.02L223.32,133.09L224.43,132.33L224.47,132.07L223.23,132.93L223.57,131.00L223.61,130.94L223.64,130.95L223.57,131.00"/><path d="M223.32,133.09L224.10,133.52L224.23,133.42L224.23,133.47L224.18,133.53L224.10,133.52"/><path d="M224.24,133.65L224.34,133.53L224.68,131.60L224.64,131.42L224.48,131.26L223.71,130.85L223.55,130.83"/><path d="M224.34,133.53L242.04,121.25"/><path d="M224.23,133.42L224.43,132.33"/><path d="M224.47,132.07L224.57,131.54L224.55,131.45L224.48,131.38L223.69,130.95L223.64,130.95"/><path d="M223.71,130.85L241.49,118.68"/><path d="M224.68,131.60L242.43,119.38"/><path d="M224.49,131.27L242.26,119.06"/></g><g style="stroke:#000000;stroke-width:0.123"><path d="M223.16,133.05L223.30,133.20L224.08,133.62L224.24,133.65L241.95,121.36L242.04,121.25L242.43,119.38L242.40,119.20L242.26,119.06L241.49,118.68L241.32,118.67L223.55,130.83L223.46,130.94L223.12,132.87L223.16,133.05"/></g></g><g id="Actor_17.0"><g style="stroke:#000000;stroke-width:0.018"><path d="M198.97,56.91L194.13,102.20"/><path d="M199.57,35.02L201.38,35.63L201.86,35.68L202.26,35.62L195.09,101.67"/><path d="M202.26,35.62L204.96,34.62L197.52,100.34"/><path d="M201.25,35.59L199.53,51.62"/><path d="M202.90,33.80L204.57,34.37L204.55,34.53L202.74,35.20"/><path d="M204.57,34.37L204.67,34.47L204.55,34.53"/><path d="M205.11,34.48L204.96,34.62"/></g><g style="stroke:#000000;stroke-width:0.123"><path d="M197.22,57.66L192.54,102.69L192.89,102.88"/><path d="M197.91,51.00L199.57,35.02L199.84,34.92L201.56,35.51L201.92,35.50L202.74,35.20L202.90,33.80L203.16,33.70L204.90,34.29L205.04,34.37L205.11,34.48L197.66,100.27"/></g></g><g id="Actor_11.1"><g style="stroke:#000000;stroke-width:0.018"><path d="M100.33,159.16L125.77,180.68L125.86,180.31L126.04,180.00L126.10,179.91L126.44,179.61L130.47,177.02L104.92,155.95"/><path d="M100.95,158.17L126.44,179.61"/><path d="M125.84,182.58L125.77,180.68"/><path d="M129.32,178.14L130.49,177.39L130.61,177.36"/><path d="M130.48,177.01L130.81,176.88L131.06,176.96"/></g><g style="stroke:#000000;stroke-width:0.123"><path d="M125.84,182.58L100.49,161.00L100.33,159.16L100.40,158.80L100.62,158.44L100.95,158.17L104.92,155.95L105.25,155.85L105.51,155.94L131.06,176.96L131.10,177.05"/><path d="M129.36,178.17L129.32,178.14L126.63,179.87L126.45,179.99L126.33,180.12"/></g></g><g id="Actor_11.2"><g style="stroke:#000000;stroke-width:0.018"><path d="M231.24,112.61L205.83,100.08"/><path d="M206.29,99.32L231.87,111.87L231.66,112.07L231.48,112.37L231.45,112.47"/><path d="M208.62,98.02L234.16,110.40L234.34,110.35"/><path d="M231.87,111.87L234.16,110.40"/><path d="M234.07,110.79L234.04,110.77L232.45,111.79"/><path d="M234.04,110.77L234.10,110.73L234.16,110.73"/></g><g style="stroke:#000000;stroke-width:0.123"><path d="M234.44,110.55L234.44,110.47L234.34,110.35L208.81,97.98L208.62,98.02L206.29,99.32L206.08,99.50L205.91,99.78L205.83,100.08L205.62,101.68L229.66,113.63"/><path d="M232.48,111.81L232.45,111.79L231.81,112.21L231.73,112.29"/></g></g><g id="Actor_11.3"><g style="stroke:#000000;stroke-width:0.018"><path d="M167.94,121.29L193.77,136.72"/><path d="M168.46,120.45L194.46,135.91L194.21,136.14L194.01,136.47L193.97,136.59"/><path d="M171.33,118.85L197.32,134.07L197.54,134.00"/><path d="M197.32,134.07L194.46,135.91"/><path d="M197.29,134.45L197.26,134.43L195.74,135.41"/><path d="M197.26,134.43L197.35,134.41"/></g><g style="stroke:#000000;stroke-width:0.123"><path d="M192.26,137.69L167.84,122.99L167.94,121.30L168.02,120.97L168.21,120.67L168.46,120.45L171.33,118.85L171.56,118.79L197.54,134.00L197.69,134.10L197.70,134.19"/><path d="M195.77,135.43L195.74,135.41L194.42,136.26L194.32,136.36"/></g></g><g id="Actor_5.1"><g style="stroke:#000000;stroke-width:0.018"><path d="M179.76,111.42L181.97,83.84L181.79,83.69"/><path d="M181.97,83.84L182.29,83.93L182.63,83.91L182.86,83.80L182.90,83.63"/></g><g style="stroke:#000000;stroke-width:0.123"><path d="M179.60,111.26L179.76,111.42L180.06,111.51L180.39,111.50L180.61,111.37L180.64,111.19L182.90,83.63L182.72,83.48L182.40,83.40L182.06,83.41L181.88,83.50L181.83,83.52L181.79,83.69L179.60,111.26"/></g></g><g id="Actor_16.0"><g style="stroke:#000000;stroke-width:0.018"><path d="M81.45,160.80L115.93,192.03L115.86,192.34L84.40,163.81"/><path d="M115.07,196.14L115.13,195.84L82.05,165.42"/><path d="M83.58,159.64L118.14,190.58L118.46,190.42L118.68,190.41L118.74,190.46"/><path d="M118.32,190.91L118.29,190.82L118.22,190.83L118.32,190.91L117.65,194.00L117.57,194.16L117.31,194.40L84.16,164.25"/><path d="M84.40,163.85L117.65,194.00"/><path d="M117.31,194.40L115.13,195.84"/><path d="M115.86,192.34L118.07,190.89L118.22,190.83"/><path d="M115.93,192.03L118.14,190.58"/></g><g style="stroke:#000000;stroke-width:0.123"><path d="M81.50,161.17L84.40,163.81L84.38,164.00L84.29,164.14L84.16,164.25L82.05,165.42L82.09,165.79L115.07,196.14L117.25,194.70L117.74,194.27L117.98,193.94L118.08,193.71L118.75,190.62L118.74,190.46L84.28,159.68L84.11,159.55L83.86,159.54L83.58,159.64L81.45,160.80L81.50,161.17"/></g></g><g id="Actor_14.0"><g style="stroke:#000000;stroke-width:0.018"><path d="M157.45,54.80L159.23,55.57L159.35,55.60L159.61,55.64L159.89,55.63L160.14,55.59L160.25,55.56L163.60,54.28L163.75,54.20L163.80,54.14L163.82,54.09"/><path d="M159.12,55.53L158.67,68.48"/><path d="M159.77,68.51L160.25,55.56"/><path d="M163.25,54.14L163.31,54.11L163.34,54.09L163.35,54.05L163.34,54.02L163.26,53.96L163.25,54.14L161.52,54.80"/><path d="M161.58,53.24L163.26,53.96"/><path d="M163.04,67.15L163.60,54.28"/></g><g style="stroke:#000000;stroke-width:0.123"><path d="M157.04,67.71L157.45,54.80L157.79,54.67L159.46,55.40L159.60,55.44L159.68,55.44L159.77,55.44L159.91,55.41L161.52,54.80L161.58,53.24L161.91,53.12L163.59,53.83L163.75,53.93L163.79,53.98L163.82,54.04L163.26,66.95L163.24,67.01L163.20,67.06L163.04,67.15L159.77,68.51L159.66,68.54L159.42,68.59L159.15,68.59L158.94,68.56L158.77,68.52L157.04,67.71"/></g></g><g id="Actor_15.0"><g style="stroke:#000000;stroke-width:0.018"><path d="M149.87,77.87L148.94,126.95"/><path d="M150.08,77.78L150.49,77.83L150.98,77.74L149.96,126.39"/><path d="M150.98,77.74L154.37,76.29L154.53,76.19L154.61,76.01"/><path d="M154.37,76.29L153.05,124.70"/><path d="M154.05,76.09L154.05,76.13L152.40,76.83"/><path d="M154.13,76.05L154.05,76.13"/></g><g style="stroke:#000000;stroke-width:0.123"><path d="M148.23,78.57L147.45,127.35L147.80,127.57"/><path d="M152.40,76.79L152.40,76.83L150.66,77.57L150.49,77.61"/><path d="M154.53,75.88L154.61,76.01L153.25,124.58"/></g></g><g id="Actor_8.0"><g style="stroke:#000000;stroke-width:0.018"><path d="M126.18,182.87L126.12,180.97L126.18,180.85L126.26,180.88L126.12,180.97"/><path d="M127.58,181.96L126.26,180.88"/><path d="M125.84,180.43L126.04,180.37L126.32,180.53L235.10,110.43"/><path d="M126.32,180.53L129.79,183.45L238.49,112.07"/><path d="M130.24,186.99L130.38,184.64L130.31,184.24L130.09,183.80L129.79,183.45"/><path d="M130.38,184.64L238.94,112.95"/><path d="M166.38,157.86L166.34,157.56L166.52,157.35L166.50,157.71"/><path d="M166.52,157.35L167.17,156.92L167.52,156.79L167.90,156.80L168.20,156.92L168.43,157.16L168.37,157.49"/><path d="M167.18,157.27L167.20,156.90"/><path d="M171.39,155.52L171.44,155.19L171.25,154.97L170.92,154.83L170.54,154.82L170.22,154.94L170.04,155.15L170.08,155.43"/><path d="M171.25,154.97L171.22,155.34"/><path d="M207.89,130.71L207.94,130.38L207.80,130.53L207.86,130.75"/><path d="M207.94,130.36L208.48,130.01L209.09,129.93L209.61,130.22L209.55,130.56"/><path d="M208.43,130.36L208.48,130.01"/><path d="M211.75,128.82L211.81,128.48L211.16,128.35L210.89,128.44L210.76,128.61L210.81,128.82"/><path d="M211.81,128.48L212.01,128.65L212.06,128.85L211.95,128.99"/></g><g style="stroke:#000000;stroke-width:0.123"><path d="M126.63,182.57L126.18,182.87L125.84,182.58L125.77,180.68L125.84,180.43L234.51,110.50L234.81,110.37L235.10,110.43L238.49,112.07L238.77,112.30L238.94,112.62L238.94,112.95L238.30,115.04L130.24,186.99L129.89,186.66L130.03,184.31L129.92,183.98L127.58,181.96L126.63,182.57"/><path d="M166.61,158.08L167.25,158.20L167.58,158.08L168.37,157.49L168.21,157.31L167.88,157.17L167.50,157.16L166.50,157.71L166.38,157.86L166.61,158.08"/><path d="M170.20,155.30L170.08,155.43L170.25,155.62L170.58,155.76L170.93,155.77L171.39,155.52L171.22,155.34L170.89,155.20L170.52,155.19L170.20,155.30"/><path d="M208.05,130.92L207.86,130.75L208.70,130.27L209.04,130.28L209.51,130.53L208.98,130.95L208.71,131.04L208.05,130.92"/><path d="M211.01,128.99L210.81,128.82L211.11,128.70L211.44,128.71L211.95,128.99L211.66,129.11L211.01,128.99"/></g></g><g id="Actor_1.0"><g style="stroke:#000000;stroke-width:0.018"><path d="M17.73,88.76L33.16,101.78L33.18,101.89"/><path d="M33.16,101.78L136.74,62.73"/><path d="M52.81,85.27L52.79,85.16L52.35,84.94L51.80,84.78L51.13,84.69L49.68,84.78L48.35,85.16L47.77,85.46L47.36,85.78L47.10,86.13L47.05,86.56"/><path d="M52.79,85.16L53.07,85.45L53.17,85.81"/><path d="M101.06,68.64L100.88,68.27L100.15,67.86L99.58,67.72L98.32,67.65L97.07,67.85L96.12,68.27L95.82,68.54L95.67,68.82L95.69,69.12"/><path d="M100.57,68.13L100.57,68.04"/></g><g style="stroke:#000000;stroke-width:0.123"><path d="M17.75,88.86L17.73,88.76L119.00,54.15L136.74,62.73L136.74,62.83L33.18,101.89L17.75,88.86"/><path d="M47.05,86.56L47.12,86.81L47.39,87.10L48.35,87.48L49.06,87.58L50.54,87.49L51.26,87.33L52.46,86.80L52.86,86.47L53.11,86.12L53.17,85.81L53.09,85.55L52.81,85.27L51.81,84.88L51.15,84.80L49.69,84.88L48.35,85.27L47.79,85.56L47.38,85.89L47.12,86.24L47.05,86.56"/><path d="M96.16,69.62L97.15,69.95L98.43,70.02L99.08,69.95L99.69,69.81L100.65,69.38L100.94,69.11L101.07,68.82L101.06,68.64L100.89,68.37L100.57,68.13L99.59,67.81L98.33,67.75L97.68,67.81L96.55,68.13L95.83,68.64L95.68,68.92L95.69,69.12L95.85,69.38L96.16,69.62"/></g></g><g id="Actor_.0"><g style="stroke:#000000;stroke-width:0.018"><path d="M49.34,24.15L42.05,25.86L41.99,25.82L41.93,25.74L41.85,25.58L41.82,25.47L41.16,21.53L41.04,21.47"/><path d="M41.16,21.53L48.51,19.87"/><path d="M42.05,25.86L45.25,27.53L45.38,27.63L45.55,27.87L45.68,28.20L45.74,28.45L46.82,35.17"/><path d="M41.81,25.41L49.10,23.71"/><path d="M42.89,23.32L43.01,23.38L43.01,23.43L42.99,23.54L42.91,23.67L42.82,23.73L42.72,23.75L42.62,23.74L42.51,23.66"/><path d="M43.01,23.38L42.97,23.28L42.91,23.20L42.82,23.15L42.75,23.14"/><path d="M45.74,28.45L53.06,26.68"/><path d="M45.25,27.53L52.59,25.77"/><path d="M48.30,33.98L48.18,33.96L48.04,33.87L48.11,33.88L48.23,33.86L48.29,33.83L48.39,33.76L48.47,33.66L48.50,33.59L48.53,33.48L48.53,33.35L48.71,33.45L48.70,33.64L48.62,33.81L48.47,33.93L48.30,33.98"/><path d="M48.04,33.87L48.03,33.86"/><path d="M48.05,29.27L47.87,29.17L47.86,29.36L47.81,29.48L47.73,29.58L47.68,29.62L47.57,29.68L47.45,29.70L47.38,29.69L47.46,29.75L47.58,29.79L47.64,29.80L47.75,29.78L47.91,29.68L48.02,29.52L48.06,29.33L48.02,29.15L47.99,29.09L47.90,29.00L47.85,28.97L47.74,28.93"/><path d="M47.75,28.97L47.80,28.99L47.75,28.94"/><path d="M47.80,28.99L47.83,29.05L47.87,29.17"/><path d="M47.38,29.69L47.38,29.69"/><path d="M47.70,22.00L47.77,22.01L47.86,22.06L47.92,22.14L47.95,22.24L47.83,22.18"/><path d="M47.95,22.24L47.94,22.40L47.89,22.49L47.81,22.56L47.72,22.60L47.62,22.61L47.53,22.57L47.46,22.52"/><path d="M48.71,33.45L48.68,33.33L48.61,33.23L48.51,33.16L48.41,33.13"/><path d="M48.41,33.14L48.45,33.16L48.42,33.13"/><path d="M48.45,33.16L48.49,33.23L48.53,33.35"/><path d="M50.48,29.84L50.67,29.93L50.59,29.67L50.50,29.52L50.44,29.46L50.31,29.35L50.14,29.26"/><path d="M51.29,34.02L50.67,29.93"/><path d="M51.80,28.21L51.98,28.31L51.97,28.50L51.89,28.67L51.74,28.79L51.63,28.83L51.57,28.83L51.45,28.81L51.35,28.76L51.32,28.73L51.44,28.73L51.61,28.66L51.70,28.58L51.76,28.46L51.80,28.34L51.80,28.21L51.73,28.04L51.67,28.01"/><path d="M51.66,27.98L51.79,28.01L51.88,28.09L51.95,28.19L51.98,28.31"/><path d="M51.68,27.98L51.73,28.04"/><path d="M51.32,28.73L51.31,28.72"/><path d="M52.35,32.19L52.31,32.15L52.41,32.18L52.51,32.25L52.57,32.35L52.61,32.47L52.42,32.37L52.36,32.20L52.30,32.16"/><path d="M52.42,32.37L52.41,32.56L52.33,32.73L52.24,32.82L52.13,32.87L51.95,32.89L51.98,32.92L52.08,32.97L52.20,32.99L52.31,32.97L52.42,32.91L52.51,32.83L52.58,32.72L52.61,32.59L52.61,32.47"/><path d="M51.95,32.89L51.93,32.87"/><path d="M52.31,32.15L52.29,32.14"/></g><g style="stroke:#000000;stroke-width:0.123"><path d="M41.76,25.75L41.90,26.02L41.98,26.12L42.07,26.20L45.31,27.89L45.40,27.97L45.46,28.07L45.51,28.17L45.56,28.35L46.64,35.07L46.82,35.17L49.63,34.45L48.99,30.35L48.97,30.16L49.00,29.98L49.06,29.80L49.20,29.56L49.41,29.37L49.56,29.28L49.73,29.23L49.90,29.22L50.14,29.26L50.25,29.36L50.36,29.50L50.46,29.75L51.11,33.93L51.29,34.02L54.05,33.32L53.06,26.68L53.03,26.51L52.95,26.27L52.80,25.98L52.67,25.83L52.59,25.77L49.34,24.15L49.25,24.07L49.14,23.88L49.10,23.71L48.51,19.87L48.39,19.81"/><path d="M42.51,23.66L42.47,23.61L42.44,23.51L42.44,23.40L42.47,23.30L42.58,23.18L42.67,23.14L42.75,23.14"/><path d="M47.93,33.52L47.99,33.34L48.07,33.24L48.23,33.14L48.34,33.12L48.40,33.13L48.42,33.22L48.41,33.37L48.33,33.58L48.19,33.76L48.03,33.86L47.94,33.71L47.93,33.52"/><path d="M47.74,28.93L47.62,28.93L47.51,28.97L47.40,29.05L47.32,29.15L47.27,29.27L47.26,29.40L47.30,29.58L47.37,29.68L47.40,29.67L47.53,29.59L47.67,29.41L47.75,29.19L47.76,29.04L47.74,28.93"/><path d="M47.46,22.52L47.43,22.47L47.39,22.37L47.40,22.26L47.43,22.16L47.53,22.04L47.63,22.00L47.70,22.00"/><path d="M51.50,27.99L51.66,27.98L51.68,28.16L51.65,28.31L51.59,28.45L51.50,28.58L51.39,28.68L51.31,28.72L51.27,28.67L51.22,28.56L51.20,28.43L51.21,28.31L51.30,28.13L51.39,28.05L51.50,27.99"/><path d="M51.85,32.47L51.90,32.35L52.02,32.21L52.13,32.16L52.29,32.14L52.30,32.24L52.29,32.39L52.22,32.60L52.08,32.78L51.93,32.87L51.87,32.78L51.83,32.66L51.85,32.47"/></g></g><g id="Actor_3.0"><g style="stroke:#000000;stroke-width:0.018"><path d="M21.02,86.16L7.65,27.20"/><path d="M7.71,27.23L31.40,21.96L31.34,21.93"/><path d="M31.40,21.96L30.67,17.95L63.36,10.94"/><path d="M30.61,17.92L30.67,17.95"/><path d="M68.45,13.68L68.52,13.71L63.84,14.71"/><path d="M68.52,13.71L68.00,9.91"/><path d="M68.07,9.93L107.56,1.47"/><path d="M96.58,8.14L97.20,8.43L97.73,8.86L98.17,9.42L98.49,10.10L98.68,10.86L98.73,11.66L98.65,12.47L98.43,13.27L98.09,14.00L97.64,14.65L97.10,15.19L96.49,15.58L95.84,15.82L87.55,17.82L86.86,17.90L86.18,17.80L85.54,17.54"/><path d="M87.48,17.79L87.55,17.82"/><path d="M95.77,15.80L95.84,15.82"/><path d="M116.09,19.63L108.62,21.53"/></g><g style="stroke:#000000;stroke-width:0.123"><path d="M8.06,29.00L7.65,27.20L31.34,21.93L30.61,17.92L63.30,10.92L63.84,14.71L68.45,13.68L68.00,9.91L107.50,1.45L108.62,21.53L116.09,19.63L117.44,53.48L21.02,86.16L8.06,29.00"/><path d="M84.03,15.46L83.85,14.28L83.93,13.44L84.14,12.61L84.49,11.85L84.96,11.18L85.53,10.63L86.17,10.22L86.86,9.98L95.27,8.10L95.94,8.04L96.58,8.14L97.14,8.40L97.67,8.83L98.10,9.40L98.42,10.08L98.61,10.83L98.67,11.63L98.59,12.45L98.37,13.24L98.03,13.98L97.58,14.63L97.04,15.16L96.43,15.56L95.77,15.80L87.48,17.79L86.79,17.87L86.11,17.78L85.54,17.54L84.98,17.12L84.51,16.55L84.03,15.46"/></g></g><g><g><path style="stroke:#000000;stroke-width:0.250;stroke-dasharray:3.1 2.0 1.0 2.0" d="M77.31,47.87L174.90,99.72"/></g></g><g><g><path style="stroke:#000000;stroke-width:0.250;stroke-dasharray:3.1 2.0 1.0 2.0" d="M134.08,103.59L161.88,120.40"/></g></g><g><g><path style="stroke:#000000;stroke-width:0.250;stroke-dasharray:3.1 2.0 1.0 2.0" d="M222.48,120.90L233.01,125.96"/></g></g><g><g><path style="stroke:#000000;stroke-width:0.250;stroke-dasharray:3.1 2.0 1.0 2.0" d="M191.36,141.18L202.16,147.21"/></g></g><g><g><path style="stroke:#000000;stroke-width:0.250;stroke-dasharray:3.1 2.0 1.0 2.0" d="M111.53,170.00L99.43,177.25"/></g></g><g id="PMI4.0"><g><path style="stroke:#000000;stroke-width:0.250" d="M28.14,137.84L21.96,137.79"/></g><g><path style="fill:#000000" d="M21.98,136.79L21.96,138.79L19.97,137.77z"/></g><g><path style="fill:#ffffff" d="M28.16,141.05L59.60,141.05L59.60,134.85L28.16,134.85z"/><path style="stroke:#000000;stroke-width:0.250;stroke-opacity:0.98" d="M28.16,141.05L59.60,141.05L59.60,134.85L28.16,134.85z"/><text xml:space="preserve" fill="#000000" stroke-width="0" x="28.93" y="139.31" font-size="3.79" opacity="1.00" font-family="MS Shell Dlg">344220-05324NN</text></g></g><g id="PMI1.0"><g><path style="stroke:#000000;stroke-width:0.250" d="M28.40,156.20L23.24,156.39"/></g><g><path style="fill:#000000" d="M23.21,155.39L23.29,157.39L21.25,156.46z"/></g><g><path style="fill:#ffffff" d="M28.41,158.72L59.44,158.72L59.44,152.51L28.41,152.51z"/><path style="stroke:#000000;stroke-width:0.250;stroke-opacity:0.98" d="M28.41,158.72L59.44,158.72L59.44,152.51L28.41,152.51z"/><text xml:space="preserve" fill="#000000" stroke-width="0" x="29.19" y="156.98" font-size="3.79" opacity="1.00" font-family="MS Shell Dlg">344152-05411EB</text></g></g><g id="PMI3.0"><g><path style="stroke:#000000;stroke-width:0.250" d="M28.14,173.42L23.24,173.38"/></g><g><path style="fill:#000000" d="M23.26,172.38L23.24,174.38L21.25,173.36z"/></g><g><path style="fill:#ffffff" d="M28.16,176.64L59.60,176.64L59.60,170.44L28.16,170.44z"/><path style="stroke:#000000;stroke-width:0.250;stroke-opacity:0.98" d="M28.16,176.64L59.60,176.64L59.60,170.44L28.16,170.44z"/><text xml:space="preserve" fill="#000000" stroke-width="0" x="28.93" y="174.90" font-size="3.79" opacity="1.00" font-family="MS Shell Dlg">344221-05224NN</text></g></g><g id="PMI10.0"><g><path style="stroke:#000000;stroke-width:0.250" d="M201.17,112.06L201.23,103.94"/></g><g><path style="fill:#000000" d="M202.21,103.95L200.21,103.94L201.23,101.94z"/></g><g><path style="fill:#ffffff" d="M183.82,118.27L218.44,118.27L218.44,112.06L183.82,112.06z"/><path style="stroke:#000000;stroke-width:0.250;stroke-opacity:0.98" d="M183.82,118.27L218.44,118.27L218.44,112.06L183.82,112.06z"/><text xml:space="preserve" fill="#000000" stroke-width="0" x="184.60" y="116.52" font-size="3.79" opacity="1.00" font-family="MS Shell Dlg">344220-05324NN/4</text></g></g><g id="PMI11.0"><g><path style="stroke:#000000;stroke-width:0.250" d="M223.94,95.22L223.92,106.06"/></g><g><path style="fill:#000000" d="M222.90,106.06L224.90,106.06L223.90,108.06z"/></g><g><path style="fill:#ffffff" d="M206.61,95.22L241.23,95.22L241.23,89.02L206.61,89.02z"/><path style="stroke:#000000;stroke-width:0.250;stroke-opacity:0.98" d="M206.61,95.22L241.23,95.22L241.23,89.02L206.61,89.02z"/><text xml:space="preserve" fill="#000000" stroke-width="0" x="207.39" y="93.48" font-size="3.79" opacity="1.00" font-family="MS Shell Dlg">344220-05224NN/5</text></g></g><g id="PMI7.0"><g><path style="stroke:#000000;stroke-width:0.250" d="M246.82,121.22L243.94,121.20"/></g><g><path style="fill:#000000" d="M243.94,120.20L243.93,122.20L241.93,121.19z"/></g><g><path style="fill:#ffffff" d="M246.81,124.41L281.43,124.41L281.43,118.20L246.81,118.20z"/><path style="stroke:#000000;stroke-width:0.250;stroke-opacity:0.98" d="M246.81,124.41L281.43,124.41L281.43,118.20L246.81,118.20z"/><text xml:space="preserve" fill="#000000" stroke-width="0" x="247.59" y="122.67" font-size="3.79" opacity="1.00" font-family="MS Shell Dlg">344220-05324NN/3</text></g></g><g id="PMI13.0"><g><path style="stroke:#000000;stroke-width:0.250" d="M205.85,56.60L195.34,56.81"/></g><g><path style="fill:#000000" d="M195.31,55.82L195.35,57.82L193.33,56.86z"/></g><g><path style="fill:#ffffff" d="M205.84,59.38L238.99,59.38L238.99,53.17L205.84,53.17z"/><path style="stroke:#000000;stroke-width:0.250;stroke-opacity:0.98" d="M205.84,59.38L238.99,59.38L238.99,53.17L205.84,53.17z"/><text xml:space="preserve" fill="#000000" stroke-width="0" x="206.62" y="57.63" font-size="3.79" opacity="1.00" font-family="MS Shell Dlg">344220-05124EB9</text></g></g><g id="PMI17.0"><g><path style="stroke:#000000;stroke-width:0.250" d="M208.92,35.43L203.93,35.48"/></g><g><path style="fill:#000000" d="M203.91,34.49L203.93,36.49L201.92,35.50z"/></g><g><path style="fill:#ffffff" d="M208.92,38.38L243.12,38.38L243.12,32.18L208.92,32.18z"/><path style="stroke:#000000;stroke-width:0.250;stroke-opacity:0.98" d="M208.92,38.38L243.12,38.38L243.12,32.18L208.92,32.18z"/><text xml:space="preserve" fill="#000000" stroke-width="0" x="209.69" y="36.64" font-size="3.79" opacity="1.00" font-family="MS Shell Dlg">344220-05124EB/7</text></g></g><g id="PMI9.0"><g><path style="stroke:#000000;stroke-width:0.250" d="M76.95,120.58L76.96,129.80"/></g><g><path style="fill:#000000" d="M75.98,129.80L77.98,129.80L76.99,131.80z"/></g><g><path style="fill:#ffffff" d="M59.65,120.57L94.27,120.57L94.27,114.36L59.65,114.36z"/><path style="stroke:#000000;stroke-width:0.250;stroke-opacity:0.98" d="M59.65,120.57L94.27,120.57L94.27,114.36L59.65,114.36z"/><text xml:space="preserve" fill="#000000" stroke-width="0" x="60.42" y="118.83" font-size="3.79" opacity="1.00" font-family="MS Shell Dlg">344220-05324NN/6</text></g></g><g id="PMI15.0"><g><path style="stroke:#000000;stroke-width:0.250" d="M144.61,91.45L149.30,91.48"/></g><g><path style="fill:#000000" d="M149.30,92.49L149.31,90.49L151.30,91.50z"/></g><g><path style="fill:#ffffff" d="M108.29,94.46L144.61,94.46L144.62,88.25L108.29,88.25z"/><path style="stroke:#000000;stroke-width:0.250;stroke-opacity:0.98" d="M108.29,94.46L144.61,94.46L144.62,88.25L108.29,88.25z"/><text xml:space="preserve" fill="#000000" stroke-width="0" x="109.07" y="92.71" font-size="3.79" opacity="1.00" font-family="MS Shell Dlg">344220-05124EB/11</text></g></g><g id="PMI6.0"><g><path style="stroke:#000000;stroke-width:0.250" d="M217.89,142.58L210.62,142.48"/></g><g><path style="fill:#000000" d="M210.63,141.47L210.60,143.47L208.61,142.44z"/></g><g><path style="fill:#ffffff" d="M217.88,145.92L252.50,145.92L252.50,139.71L217.88,139.71z"/><path style="stroke:#000000;stroke-width:0.250;stroke-opacity:0.98" d="M217.88,145.92L252.50,145.92L252.50,139.71L217.88,139.71z"/><text xml:space="preserve" fill="#000000" stroke-width="0" x="218.65" y="144.17" font-size="3.79" opacity="1.00" font-family="MS Shell Dlg">344220-05324NN/2</text></g></g><g id="PMI14.0"><g><path style="stroke:#000000;stroke-width:0.250" d="M159.97,47.59L159.93,53.40"/></g><g><path style="fill:#000000" d="M158.93,53.40L160.93,53.42L159.91,55.41z"/></g><g><path style="fill:#ffffff" d="M141.84,47.60L178.16,47.60L178.16,41.39L141.84,41.39z"/><path style="stroke:#000000;stroke-width:0.250;stroke-opacity:0.98" d="M141.84,47.60L178.16,47.60L178.16,41.39L141.84,41.39z"/><text xml:space="preserve" fill="#000000" stroke-width="0" x="142.61" y="45.86" font-size="3.79" opacity="1.00" font-family="MS Shell Dlg">344220-05124EB/10</text></g></g><g id="PMI8.0"><g><path style="stroke:#000000;stroke-width:0.250" d="M167.44,168.69L156.61,168.69"/></g><g><path style="fill:#000000" d="M156.61,167.68L156.61,169.68L154.61,168.68z"/></g><g><path style="fill:#ffffff" d="M167.44,171.78L202.06,171.78L202.06,165.57L167.44,165.57z"/><path style="stroke:#000000;stroke-width:0.250;stroke-opacity:0.98" d="M167.44,171.78L202.06,171.78L202.06,165.57L167.44,165.57z"/><text xml:space="preserve" fill="#000000" stroke-width="0" x="168.21" y="170.03" font-size="3.79" opacity="1.00" font-family="MS Shell Dlg">344220-05324NN/1</text></g></g><g id="PMI12.0"><g><path style="stroke:#000000;stroke-width:0.250" d="M103.94,129.53L100.06,129.48"/></g><g><path style="fill:#000000" d="M100.08,128.48L100.05,130.48L98.07,129.45z"/></g><g><path style="fill:#ffffff" d="M103.94,132.86L140.26,132.86L140.26,126.65L103.94,126.65z"/><path style="stroke:#000000;stroke-width:0.250;stroke-opacity:0.98" d="M103.94,132.86L140.26,132.86L140.26,126.65L103.94,126.65z"/><text xml:space="preserve" fill="#000000" stroke-width="0" x="104.72" y="131.12" font-size="3.79" opacity="1.00" font-family="MS Shell Dlg">344220-05124EB/12</text></g></g><g id="PMI16.0"><g><path style="stroke:#000000;stroke-width:0.250" d="M109.52,194.92L115.23,194.79"/></g><g><path style="fill:#000000" d="M115.27,195.75L115.22,193.75L117.25,194.70z"/></g><g><path style="fill:#ffffff" d="M73.22,198.41L109.54,198.41L109.54,192.20L73.22,192.20z"/><path style="stroke:#000000;stroke-width:0.250;stroke-opacity:0.98" d="M73.22,198.41L109.54,198.41L109.54,192.20L73.22,192.20z"/><text xml:space="preserve" fill="#000000" stroke-width="0" x="73.99" y="196.66" font-size="3.79" opacity="1.00" font-family="MS Shell Dlg">344220-05124EB/13</text></g></g><g/><g><g/><g><path style="stroke:#000000;stroke-width:0.125;fill:#00ffff" d="M18.46,131.07L21.28,131.07L21.28,142.36L18.46,142.36z"/><text xml:space="preserve" fill="#000000" stroke-width="0" x="19.87" y="138.83" font-size="-1.#J" opacity="1.00" font-family="MS Shell Dlg"></text></g></g><g><g/><g><path style="stroke:#000000;stroke-width:0.125;fill:#ffff00" d="M18.46,148.90L21.28,148.90L21.28,160.19L18.46,160.19z"/><text xml:space="preserve" fill="#000000" stroke-width="0" x="19.87" y="156.66" font-size="-1.#J" opacity="1.00" font-family="MS Shell Dlg"></text></g></g><g><g/><g><path style="stroke:#000000;stroke-width:0.125;fill:#0073aa" d="M18.46,166.73L21.28,166.73L21.28,178.02L18.46,178.02z"/><text xml:space="preserve" fill="#000000" stroke-width="0" x="19.87" y="174.49" font-size="-1.#J" opacity="1.00" font-family="MS Shell Dlg"></text></g></g><g id="paperID" visibility="hidden" opacity="0.00" transform="scale(0.000100)"><path style="stroke:#000000;stroke-width:0.500;fill:#e6e6e6;fill-rule:evenodd" d="M-2000.00,-2000.00L2297.00,-2000.00L2297.00,2210.00L-2000.00,2210.00zM0.00,0.00L297.00,0.00L297.00,210.00L0.00,210.00z"/><path style="fill:#000000;fill-opacity:0.118" d="M3.00,210.00L297.00,210.00L297.00,3.00L300.00,3.00L300.00,213.00L3.00,213.00z"/></g><g id="hotspot.0" onmouseover="ShowHotSpot(evt,'0')" onmouseout="HideHotSpot(evt,'0')" onmousemove="ShowToolTip(evt,'0',&quot;3dp497563 (I_TD-CT14.22)&quot;)" opacity="0"><path style="fill:#00ff00;fill-rule:evenodd" d="M131.00,59.74L136.63,62.64L33.89,101.49L32.93,101.50L17.76,88.67L118.64,54.09L119.22,54.08zM59.60,152.65L59.50,158.58L28.32,158.58L28.09,156.51L23.39,156.54L23.22,157.09L21.64,156.52L21.34,156.27L23.22,155.27L23.39,155.82L28.09,155.85L28.32,152.50L59.35,152.40zM100.85,68.14L101.08,68.79L100.69,69.20L99.18,69.74L96.93,69.74L95.92,69.21L95.92,68.28L97.37,67.67L99.77,67.67zM53.17,85.57L52.69,86.49L51.31,87.15L47.77,87.16L47.28,86.87L47.25,85.92L48.30,85.17L49.24,84.83L52.16,84.82z"/></g><g id="hotspot.1" onmouseover="ShowHotSpot(evt,'1')" onmouseout="HideHotSpot(evt,'1')" onmousemove="ShowToolTip(evt,'1',&quot;3dp497471 (I_TD-CT3.9)&quot;)" opacity="0"><path style="fill:#00ff00;fill-rule:evenodd" d="M208.36,97.37L208.60,97.74L206.03,99.52L205.49,101.54L201.59,103.78L201.57,111.81L218.34,111.94L218.60,112.20L218.58,118.21L183.73,118.13L183.51,114.02L173.95,119.41L172.75,119.39L171.98,118.87L171.11,118.87L168.13,120.51L167.87,122.81L143.46,136.58L142.81,136.55L141.28,135.53L137.41,137.66L137.15,140.22L107.33,157.04L106.96,157.05L105.40,155.73L105.07,155.72L102.07,157.38L100.54,158.41L100.28,160.47L100.04,158.56L98.48,157.27L97.89,157.26L97.38,157.58L96.70,157.57L96.62,155.47L96.94,155.45L97.48,156.02L98.41,156.03L102.50,153.69L102.83,153.19L102.84,152.00L138.71,132.46L138.85,133.84L139.71,133.83L139.96,131.77L179.33,110.13L179.66,110.17L179.63,111.21L180.60,111.22L180.93,109.24L204.91,96.08L205.77,96.08zM200.91,111.81L187.49,111.73L200.93,104.30z"/></g><g id="hotspot.2" onmouseover="ShowHotSpot(evt,'2')" onmouseout="HideHotSpot(evt,'2')" onmousemove="ShowToolTip(evt,'2',&quot;3dp497472 (I_TD-CT2.4)&quot;)" opacity="0"><path style="fill:#00ff00;fill-rule:evenodd" d="M241.39,89.15L241.36,95.17L224.36,95.32L224.20,105.32L234.20,110.20L234.24,110.52L230.01,113.29L229.32,113.28L205.68,101.55L205.93,99.68L207.22,98.66L208.50,97.87L208.83,97.86L223.44,104.87L223.69,104.12L223.70,95.32L206.52,95.09L206.52,89.00L241.13,88.90zM197.34,133.74L197.60,134.10L196.03,135.10L192.63,137.35L191.94,137.35L168.13,122.98L168.13,120.51L171.11,118.87L171.98,118.87zM167.37,153.22L167.41,153.53L161.91,157.07L161.21,157.07L137.41,140.39L137.41,137.66L141.28,135.53zM131.02,176.72L130.94,176.99L125.89,180.17L125.64,182.21L100.54,160.87L100.54,158.40L102.07,157.38L105.07,155.72L105.40,155.73z"/></g><g id="hotspot.3" onmouseover="ShowHotSpot(evt,'3')" onmouseout="HideHotSpot(evt,'3')" onmousemove="ShowToolTip(evt,'3',&quot;3dp497567 (I_TD-CT5.11)&quot;)" opacity="0"><path style="fill:#00ff00;fill-rule:evenodd" d="M96.49,78.90L96.95,80.23L100.02,118.38L100.95,128.97L103.62,128.97L103.85,126.64L140.25,126.54L140.51,126.79L140.41,132.72L103.85,132.72L103.62,129.63L100.95,129.63L102.83,153.19L102.50,153.69L98.41,156.03L97.47,156.01L96.19,154.98L95.91,154.24L89.27,84.58L89.22,82.28L89.52,82.01L89.45,80.71L90.03,80.70L90.54,81.01L92.02,81.01L95.16,79.80L95.33,78.41L95.65,78.39z"/></g><g id="hotspot.4" onmouseover="ShowHotSpot(evt,'4')" onmouseout="HideHotSpot(evt,'4')" onmousemove="ShowToolTip(evt,'4',&quot;3dp497569 (I_TD-CT7.12)&quot;)" opacity="0"><path style="fill:#00ff00;fill-rule:evenodd" d="M199.90,51.78L199.78,56.25L205.52,56.25L205.75,53.16L239.06,53.07L239.06,59.32L205.75,59.24L205.52,56.92L198.50,56.91L98.75,99.51L98.47,99.22L97.88,91.75L156.79,67.66L157.37,67.65L158.38,68.20L160.12,68.21L163.29,66.76L163.52,64.95L197.49,51.02L198.34,51.02z"/></g><g id="hotspot.5" onmouseover="ShowHotSpot(evt,'5')" onmouseout="HideHotSpot(evt,'5')" onmousemove="ShowToolTip(evt,'5',&quot;3dp497571 (I_TD-CT7.13)&quot;)" opacity="0"><path style="fill:#00ff00;fill-rule:evenodd" d="M178.40,41.53L178.30,47.47L160.35,47.70L160.39,53.15L160.74,53.67L160.09,54.88L160.89,54.90L161.47,54.70L161.65,53.06L162.23,53.05L163.81,53.82L163.29,66.76L160.12,68.21L158.38,68.20L157.04,67.51L157.55,54.60L158.14,54.59L159.17,55.17L159.69,55.23L159.43,54.36L159.13,53.84L159.08,53.36L159.67,53.16L159.69,47.70L141.74,47.47L141.74,41.38L178.15,41.28z"/></g><g id="hotspot.6" onmouseover="ShowHotSpot(evt,'6')" onmouseout="HideHotSpot(evt,'6')" onmousemove="ShowToolTip(evt,'6',&quot;3dp497572 (I_TD-CT8.15)&quot;)" opacity="0"><path style="fill:#00ff00;fill-rule:evenodd" d="M144.86,88.39L144.99,91.07L147.91,91.07L148.33,78.43L154.24,75.83L154.56,75.85L153.30,124.37L148.04,127.34L147.65,127.37L147.64,117.69L147.91,91.74L144.99,91.74L144.76,94.32L108.20,94.32L108.20,88.23L144.60,88.13z"/></g><g id="hotspot.7" onmouseover="ShowHotSpot(evt,'7')" onmouseout="HideHotSpot(evt,'7')" onmousemove="ShowToolTip(evt,'7',&quot;3dp497698 (I_TD-CT4.10)&quot;)" opacity="0"><path style="fill:#00ff00;fill-rule:evenodd" d="M118.74,190.32L118.21,193.23L117.87,193.92L115.54,195.69L114.63,195.70L113.87,194.91L110.00,195.00L109.68,198.27L73.13,198.27L73.13,192.18L109.53,192.08L109.78,192.34L110.00,194.51L113.11,194.16L83.92,167.25L82.37,165.98L82.03,165.21L84.34,163.93L84.41,163.67L81.57,161.11L81.49,160.64L83.29,159.59L84.42,159.58z"/></g><g id="hotspot.8" onmouseover="ShowHotSpot(evt,'8')" onmouseout="HideHotSpot(evt,'8')" onmousemove="ShowToolTip(evt,'8',&quot;3dp497783&quot;)" opacity="0"><path style="fill:#00ff00;fill-rule:evenodd" d="M204.99,34.15L205.16,35.00L208.59,35.00L208.83,32.16L243.41,32.08L243.33,38.25L208.83,38.25L208.59,35.66L204.90,35.66L197.60,100.05L193.37,102.49L192.63,102.61L197.21,57.67L199.54,56.42L199.88,53.94L199.90,51.78L198.00,50.86L199.53,34.89L200.39,34.90L201.14,35.18L202.39,35.20L202.69,34.99L202.87,33.60L203.45,33.60z"/></g><g id="hotspot.9" onmouseover="ShowHotSpot(evt,'9')" onmouseout="HideHotSpot(evt,'9')" onmousemove="ShowToolTip(evt,'9',&quot;TÔN BÌNH ĐIỆN&quot;)" opacity="0"><path style="fill:#00ff00;fill-rule:evenodd" d="M107.53,1.51L108.64,21.18L110.70,20.83L115.88,19.54L116.16,20.31L117.36,53.35L21.17,85.94L20.89,85.65L7.85,27.73L7.74,26.98L30.84,21.88L31.15,21.68L30.81,17.75L63.40,10.81L63.84,14.53L68.27,13.48L68.19,9.82L68.68,9.54L107.45,1.34zM49.25,23.97L52.93,25.93L53.42,28.76L53.94,33.20L52.06,33.64L51.11,33.65L50.36,29.27L49.25,29.28L48.95,29.78L49.60,34.21L49.29,34.42L46.69,35.01L45.51,27.97L41.90,25.95L41.04,21.35L47.72,19.80L48.56,19.78zM47.78,22.17L47.45,22.09L47.83,21.88zM42.69,23.47L42.60,23.15L42.90,23.10zM51.68,28.35L51.26,28.58L51.31,27.98L51.63,27.96zM52.13,32.41L51.80,32.33L52.18,32.12zM48.38,33.26L48.06,33.74L48.06,33.18L48.34,33.12zM59.86,170.57L59.76,176.51L28.06,176.51L27.83,173.67L23.40,173.71L23.18,174.01L22.71,173.97L21.34,173.16L22.90,172.35L23.19,172.40L23.40,172.98L27.83,173.00L28.06,170.42L59.60,170.32zM97.49,8.50L98.50,10.06L98.49,12.72L98.16,13.67L96.70,15.28L87.91,17.50L85.93,17.51L84.67,16.71L84.14,15.72L84.14,12.45L85.34,10.58L86.88,9.82L94.82,8.02L96.71,8.01z"/></g><g id="hotspot.10" onmouseover="ShowHotSpot(evt,'10')" onmouseout="HideHotSpot(evt,'10')" onmousemove="ShowToolTip(evt,'10',&quot;3dp497831 (I_TD-CT11.18)&quot;)" opacity="0"><path style="fill:#00ff00;fill-rule:evenodd" d="M204.99,34.14L204.99,35.50L197.83,98.74L197.83,100.05L204.91,96.08L205.77,96.08L207.82,97.12L208.86,97.87L234.17,110.20L235.48,110.42L238.82,112.20L238.80,113.34L238.29,114.88L130.41,186.77L129.98,186.76L130.00,183.90L127.71,181.87L126.81,182.37L125.63,182.38L124.35,181.10L100.28,160.61L100.04,158.56L98.48,157.27L97.89,157.26L97.38,157.58L96.70,157.57L96.45,155.23L95.91,154.24L93.13,124.73L92.76,124.51L77.67,131.71L76.69,131.72L76.36,131.48L76.70,130.99L76.98,129.47L92.83,122.06L89.27,84.58L89.22,82.28L89.52,82.01L89.45,80.71L90.03,80.70L90.54,81.01L92.02,81.01L95.16,79.80L95.33,78.41L95.65,78.39L96.49,78.90L96.95,80.23L97.89,91.60L102.07,90.04L156.89,67.54L157.12,66.22L157.55,54.60L158.14,54.59L159.16,55.15L160.12,55.16L161.47,54.70L161.65,53.06L162.23,53.05L163.81,53.82L163.52,61.87L163.52,64.97L197.83,50.86L199.53,34.89L200.39,34.90L201.14,35.18L202.39,35.20L202.69,34.99L202.87,33.60L203.45,33.60zM242.42,119.13L242.14,120.78L241.85,121.25L224.64,133.25L223.68,133.25L223.09,132.71L223.41,130.98L223.85,130.40L241.27,118.60L241.61,118.61zM59.86,134.98L59.76,140.92L28.06,140.92L27.83,138.08L22.12,138.12L21.90,138.42L21.43,138.38L20.06,137.58L21.62,136.76L21.91,136.81L22.12,137.39L27.83,137.41L28.06,134.83L59.60,134.73zM217.02,136.31L217.04,137.92L216.75,138.66L187.49,159.08L186.58,159.07L185.98,158.65L186.05,157.11L186.31,156.10L216.16,135.78zM118.74,190.32L118.21,193.23L117.87,193.92L115.54,195.69L114.63,195.70L109.77,191.07L83.92,167.25L82.37,165.98L82.03,165.21L84.34,163.93L84.41,163.67L81.57,161.11L81.49,160.64L83.29,159.59L84.42,159.58zM179.06,81.47L154.30,93.13L154.30,88.24L154.56,79.03L154.73,75.62L196.74,57.65L197.06,57.67L197.06,59.31L192.71,101.30L192.71,102.76L180.93,109.27L180.93,107.96L182.72,85.94L182.73,83.28L181.87,83.28L179.65,110.01L154.31,123.83L153.45,124.11L153.71,106.85L154.05,97.46L154.30,95.16L179.31,83.30L179.66,81.50zM229.34,113.27L229.37,113.59L198.24,133.73L197.30,133.76L173.43,119.65L205.17,101.71L206.03,101.71zM98.74,99.50L148.18,78.44L147.90,96.18L100.71,118.40L100.02,118.40L98.74,102.50zM139.74,104.00L138.85,104.02L138.71,132.31L102.84,152.02L102.58,150.12L100.19,120.95L147.58,98.36L147.90,98.38L147.64,117.69L147.65,127.47L139.96,131.79L140.00,104.26zM191.96,137.34L191.99,137.66L168.02,153.19L167.36,153.23L143.53,137.04L143.45,136.57L167.53,122.95L168.13,122.96zM210.80,128.59L211.69,128.64L211.69,128.95L211.11,128.91zM209.38,130.38L209.30,130.66L207.96,130.66L208.50,130.12L209.12,130.12zM161.49,157.26L131.40,176.75L131.04,176.75L107.35,157.35L107.43,156.89L136.81,140.37L137.40,140.36zM170.08,155.23L171.25,155.27L171.23,155.58L170.38,155.52zM168.38,157.29L167.77,157.79L166.47,157.87L166.48,157.59L167.28,157.01L167.88,157.01z"/></g><g id="hotspot.11" onmouseover="ShowHotSpot(evt,'11')" onmouseout="HideHotSpot(evt,'11')" onmousemove="ShowToolTip(evt,'11',&quot;THANH GIỮ BÌNH ĐIỆN 01&quot;)" opacity="0"><path style="fill:#00ff00;fill-rule:evenodd" d="M217.02,136.31L217.04,137.92L216.75,138.66L212.08,141.95L217.55,142.02L217.79,139.70L252.40,139.59L252.65,139.85L252.55,145.78L217.79,145.78L217.55,142.69L211.03,142.67L210.79,142.97L210.42,143.25L210.28,143.24L187.49,159.08L186.58,159.07L185.98,158.65L186.05,157.11L186.31,156.10L216.16,135.78z"/></g><g id="hotspot.12" onmouseover="ShowHotSpot(evt,'12')" onmouseout="HideHotSpot(evt,'12')" onmousemove="ShowToolTip(evt,'12',&quot;THANH GIỮ BÌNH ĐIỆN 02&quot;)" opacity="0"><path style="fill:#00ff00;fill-rule:evenodd" d="M281.58,118.34L281.56,124.36L246.72,124.28L246.49,121.44L244.09,121.46L243.92,122.02L242.01,121.19L224.64,133.25L223.68,133.25L223.09,132.71L223.41,130.98L223.85,130.40L241.27,118.60L241.61,118.61L242.42,119.13L242.38,120.79L243.93,120.20L244.09,120.74L246.49,120.77L246.72,118.19L281.33,118.09z"/></g><g id="hotspot.13" onmouseover="ShowHotSpot(evt,'13')" onmouseout="HideHotSpot(evt,'13')" onmousemove="ShowToolTip(evt,'13',&quot;XƯƠNG HẦM BÌNH ĐIỆN CT1&quot;)" opacity="0"><path style="fill:#00ff00;fill-rule:evenodd" d="M238.82,112.20L238.80,113.34L238.29,114.88L158.53,168.03L167.11,168.14L167.35,165.56L201.96,165.45L202.21,165.71L202.19,171.72L167.35,171.64L167.11,168.80L157.27,168.80L157.00,169.04L130.41,186.77L129.98,186.76L130.00,183.90L127.71,181.87L126.81,182.37L125.79,182.48L125.88,180.16L234.35,110.43L235.48,110.42zM210.80,128.59L211.69,128.64L211.69,128.95L211.11,128.91zM209.38,130.38L209.30,130.66L207.96,130.66L208.50,130.12L209.12,130.12zM170.08,155.23L171.25,155.27L171.23,155.58L170.38,155.52zM168.38,157.29L167.77,157.79L166.47,157.87L166.48,157.59L167.28,157.01L167.88,157.01z"/></g><g id="hotspot.14" onmouseover="ShowHotSpot(evt,'14')" onmouseout="HideHotSpot(evt,'14')" onmousemove="ShowToolTip(evt,'14',&quot;3dp497831 (I_TD-CT11.18)&quot;)" opacity="0"><path style="fill:#00ff00;fill-rule:evenodd" d="M179.31,83.30L154.30,95.18L154.30,93.11L179.06,81.47L179.66,81.50zM94.42,114.50L94.32,120.44L77.40,120.67L77.49,129.23L92.53,122.17L92.85,122.19L92.89,124.38L77.67,131.71L76.69,131.72L76.37,131.50L76.50,130.66L76.18,130.14L76.13,129.66L76.71,129.46L76.73,120.67L59.56,120.44L59.56,114.35L94.17,114.25zM147.90,98.23L101.05,120.50L100.20,120.78L100.20,118.63L147.59,96.32L147.90,96.33z"/></g></g></svg>
