<?xml version="1.0" encoding="UTF-8" standalone="no"?>
<svg xmlns="http://www.w3.org/2000/svg" xmlns:xlink="http://www.w3.org/1999/xlink" width="297.000mm" height="210.000mm" viewBox="0.000000 0.000000 297.000000 210.000000" stroke-linejoin="round" stroke-linecap="round" fill="none" fill-rule="evenodd"><desc>Composer Export</desc><script type="text/ecmascript"><![CDATA[
if(typeof(top) != "undefined")
{
	top.ShowPaper = ShowPaper;
}
function ShowHotSpot(evt,hotspotid)
{
	var svgDocument = evt.target.ownerDocument;
	var strId = "hotspot."+hotspotid;
	var hotspot = svgDocument.getElementById(strId);
	if(hotspot)
		hotspot.setAttribute("opacity",".5");
}
function HideHotSpot(evt,hotspotid)
{
	var svgDocument = evt.target.ownerDocument;
	var strId = "hotspot."+hotspotid;
	var hotspot = svgDocument.getElementById(strId);
	if(hotspot)
		hotspot.setAttribute("opacity","0");

	var toolTip = svgDocument.getElementById('ToolTip');
	if(toolTip)
		toolTip.setAttribute("visibility","hidden");
}
function ShowToolTip(evt,hotspotid,strTooltip)
{
	if(strTooltip=="")
	return;

	// change text
	var svgDocument = evt.target.ownerDocument;
	var tiptext = svgDocument.getElementById('ToolTipText');
	if( !tiptext )
	return;
	tiptext.firstChild.nodeValue = " " + strTooltip + "  " ;

	// show tooltip before, else some refresh issue

	var toolTip = svgDocument.getElementById('ToolTip');
	if(!toolTip)
	return;

	toolTip.setAttribute("visibility","visible");
	toolTip.setAttribute("opacity",".95");

	// move tooltip
	// get viewbox

	var root = svgDocument.documentElement;
	var vbox = (root.getAttribute("viewBox")).split(' ');
	var x0 = parseFloat(vbox[0]);
	var y0 = parseFloat(vbox[1]);
	var vboxW = parseFloat(vbox[2]);
	var vboxH = parseFloat(vbox[3]);

	// get default width of svg

	var strW = root.getAttribute("width");
	var svgW = parseFloat(strW);
	if(strW.indexOf('mm') != -1)
	svgW *= 3.779;

	var strH = root.getAttribute("height");
	var svgH = parseFloat(strH);
	if(strH.indexOf('mm') != -1)
	svgH *= 3.779;  	// 96 dpi  -> 96/25.4 = 3.779

	// update the viewbox / width / height if svg is embedded in html with zoom fit all
	var realx0 = x0;
	var realy0 = y0;
	var realvboxW = vboxW;
	var realvboxH = vboxH;
	var realsvgW = svgW;
	var realsvgH = svgH;

	if ((typeof(top) == "undefined") || (typeof(top.svgctl1) != "undefined")) // embedded in html
	{
		// get window size in pxl

		svgW = window.innerWidth;
		svgH = window.innerHeight;

		// calculate real viewbox

		realsvgW = svgW;
		realsvgH = svgH;
		if((svgW / svgH) > (vboxW / vboxH))
		{
			realvboxW = (vboxH * svgW) / svgH;
			realvboxH = vboxH;
			realx0 = x0 - (realvboxW - vboxW)/2 ;
		}
		else
		{
			realvboxH = (vboxW * svgH) / svgW;
			realvboxW = vboxW;
			realy0 = y0 - (realvboxH - vboxH)/2 ;
		}
	}

	// get user zoom/pan

	var newScale = root.currentScale;
	var translation = root.currentTranslate;

	// transform pxl to user unit

	var xPos = (((evt.clientX+10- translation.x)/newScale) * realvboxW)/realsvgW  + realx0 ;
	var yPos = (((evt.clientY+5- translation.y)/newScale) * realvboxH)/ realsvgH  + realy0 ;
	var scaleForWidth = ( (1 / newScale) * realvboxH) / realsvgH;

	// move tooltip

	toolTip.setAttribute("transform", "translate(" + xPos + "," + yPos + ")" );

	// resize tooltip

	var fontsize = 12;
	tiptext.setAttribute("font-size",fontsize*scaleForWidth);
	tiptext.setAttribute("y", fontsize*scaleForWidth);
	var tipBG = svgDocument.getElementById('ToolTipBG');
	var outline = tiptext.getBBox();
	if(tipBG)
	{
		tipBG.setAttribute("stroke-width", 1*scaleForWidth);
		tipBG.setAttribute("width", Number(outline.width) );
		tipBG.setAttribute("height", Number(outline.height) + fontsize*.5*scaleForWidth );
	}
	var ToolTipShadow = svgDocument.getElementById('ToolTipShadow');
	if(ToolTipShadow)
	{
		ToolTipShadow.setAttribute("width", Number(outline.width) );
		ToolTipShadow.setAttribute("height", Number(outline.height) + fontsize*.5*scaleForWidth );
		ToolTipShadow.setAttribute("x", 3*scaleForWidth);
		ToolTipShadow.setAttribute("y", 3*scaleForWidth);
	}
}
function ShowPaper()
{
  var svgDocument = getDocument();
  var paper = svgDocument.getElementById("paperID");
  if(paper)
  {
    paper.setAttribute("transform","scale(1)");
    paper.setAttribute("opacity","1");
    paper.setAttribute("visibility","visible");
  }
  var svg = svgDocument.getRootElement();
  if(svg)
  {
    svg.setAttribute("width","307.000mm");
    svg.setAttribute("height","220.000mm");
    svg.setAttribute("viewBox","-5.000000 -5.000000 307.000000 220.000000");
  }
}
]]></script><defs/><g><path style="fill:#ffffff" d="M296.92,209.87L0.08,209.87L0.08,0.08L296.92,0.08z"/><path style="fill:#e1e1e1" d="M65.98,2.36L65.67,2.64L66.00,3.21L27.24,15.72L25.77,15.71L24.74,15.46L24.76,14.00L25.69,13.14L26.57,12.92L27.29,12.98L27.73,12.36L33.12,10.30L34.20,10.42L34.64,9.80L51.29,4.44L52.92,4.19L53.41,4.27L53.84,3.65L60.11,2.17L60.81,2.21L61.05,1.91L62.05,1.63L64.44,1.62z"/><path style="fill:#e1e1e1" d="M67.25,8.79L67.17,10.33L34.40,21.09L27.49,23.22L27.28,22.91L26.68,16.44L28.52,15.71L66.17,3.63L66.48,3.65z"/><path style="fill:#e1e1e1" d="M74.46,21.36L74.43,21.65L58.72,27.00L58.05,26.98L56.51,24.37L50.01,26.47L50.06,26.96L51.16,29.03L51.13,29.59L35.44,34.92L34.22,34.91L28.57,24.67L28.49,23.91L68.29,10.87z"/><path style="fill:#e1e1e1" d="M83.66,28.75L83.58,29.01L43.87,42.87L43.18,42.88L36.77,37.19L36.77,36.80L53.46,31.07L56.76,33.89L57.70,33.90L63.69,31.82L61.11,29.53L60.58,29.25L60.49,28.78L72.30,24.67L76.14,23.37L76.72,23.36z"/><path style="fill:#e1e1e1" d="M86.21,33.91L86.14,34.38L70.24,40.05L69.59,40.02L69.30,39.75L68.45,39.76L63.12,41.67L63.43,42.38L46.95,48.23L45.75,48.22L44.70,47.43L44.62,46.96L84.95,32.86z"/><path style="fill:#e1e1e1" d="M102.38,46.68L102.35,47.01L62.32,61.80L61.12,61.78L54.73,56.13L49.57,51.52L49.49,51.06L66.14,45.14L67.00,45.12L71.10,48.73L72.04,48.75L77.49,46.77L76.47,45.66L73.12,43.08L73.12,42.68L89.19,36.94L90.05,36.93z"/><path style="fill:#e1e1e1" d="M206.83,129.39L206.81,129.70L162.15,151.18L161.74,151.15L144.81,136.01L144.73,135.55L188.79,115.27L189.13,115.27z"/><path style="fill:#e1e1e1" d="M214.73,135.53L224.99,143.70L228.35,146.24L228.59,146.89L183.74,169.67L182.97,169.87L167.86,156.50L167.86,156.11L212.82,134.25L212.96,134.25z"/><path style="fill:#e1e1e1" d="M240.33,155.76L241.35,156.87L226.75,164.55L225.99,164.74L224.72,164.20L223.60,164.20L222.84,164.46L211.06,170.60L209.86,171.47L209.84,172.41L211.95,175.19L212.21,175.82L198.25,183.18L197.85,183.16L187.83,174.17L187.83,173.52L233.08,150.35L233.42,150.36z"/><path style="fill:#e1e1e1" d="M231.64,172.38L232.41,173.66L232.41,175.31L231.78,176.22L217.97,183.69L217.55,183.68L215.51,181.09L215.14,179.83L215.76,178.64L228.46,171.87L230.61,171.87z"/><path style="fill:#d0d0ff" d="M120.78,61.26L120.69,61.52L79.73,77.42L78.52,77.40L76.72,75.62L66.21,66.37L66.13,65.91L106.86,50.76L107.44,50.76z"/><path style="fill:#d0d0ff" d="M138.68,75.36L139.70,76.47L97.65,93.56L96.71,93.54L94.90,91.75L83.28,81.56L83.27,81.28L125.41,64.87z"/><path style="fill:#d0d0ff" d="M160.72,92.80L160.73,93.08L117.87,111.48L116.93,111.46L115.13,109.67L102.57,98.64L102.57,98.25L145.01,80.70L145.34,80.71z"/><path style="fill:#d0d0ff" d="M175.55,104.55L182.52,110.20L182.48,110.50L138.86,130.18L138.19,130.16L122.54,116.30L122.45,115.83L165.75,97.10L166.08,97.10z"/><path style="fill:#d0d0ff" d="M256.20,175.21L257.51,176.47L266.75,183.91L266.75,184.27L262.81,186.76L262.06,188.09L262.09,189.92L261.31,189.83L258.51,187.47L257.92,187.48L253.65,189.89L252.27,190.81L252.92,191.61L252.89,191.92L249.73,193.67L248.80,193.67L248.22,193.88L248.27,194.47L241.25,198.51L240.01,198.48L240.08,199.09L236.16,201.35L235.22,201.33L234.19,200.30L233.18,199.78L219.58,187.99L219.58,187.61L233.83,179.80L234.20,179.15L234.20,178.02L233.81,176.99L248.56,169.07z"/><path style="fill:#d0d0ff" d="M264.44,191.57L264.41,192.18L263.02,192.90L263.10,193.37L265.16,194.93L265.95,195.80L261.49,198.80L260.85,198.76L260.56,198.50L259.70,198.49L243.58,207.76L242.89,207.76L240.61,205.92L236.73,202.59L236.73,202.20L241.02,199.80L241.90,199.40L245.12,197.49L249.21,195.17L250.00,195.23L250.81,194.22L253.82,192.59L254.15,192.60L256.17,194.15L256.12,194.73L256.75,195.18L257.14,195.22L264.19,191.33z"/><path style="fill:#ffffff" d="M62.80,2.38L64.19,2.38L63.89,2.67L62.86,2.63z"/><path style="fill:#ffffff" d="M256.75,177.49L256.65,177.78L255.91,177.81L255.58,177.48L255.82,177.24L256.50,177.23z"/><path style="fill:#ffffff" d="M240.12,183.68L240.09,183.98L239.55,184.28L239.55,184.95L238.20,184.91L237.92,185.18L237.01,185.20L234.60,183.13L235.98,182.21L237.18,181.59L237.77,181.58z"/><path style="fill:#ffffff" d="M253.40,196.73L252.91,196.73L251.82,195.92L251.77,195.67L252.36,195.66z"/><path style="fill:#ffffff" d="M243.91,201.58L244.46,202.10L244.47,202.70L243.85,203.14L242.62,203.14L241.60,202.61L241.61,201.68L242.29,201.31L243.14,201.32z"/><g id="Actor_.0"><g style="stroke:#000000;stroke-width:0.018"><path d="M102.43,98.40L117.34,111.61L117.35,111.86"/><path d="M104.12,98.59L104.27,98.59L104.36,98.49L104.27,98.41L104.11,98.42L104.03,98.51L104.12,98.59L104.11,98.42"/><path d="M111.44,95.41L111.37,95.50L111.46,95.57L111.62,95.56L111.70,95.48L111.61,95.40L111.44,95.41L111.45,95.57"/><path d="M117.34,111.61L160.78,93.05"/><path d="M125.51,94.82L125.44,94.91L125.53,94.99L125.69,94.98L125.77,94.89L125.67,94.81L125.51,94.82L125.51,94.98"/><path d="M132.48,91.92L132.41,92.01L132.50,92.09L132.64,92.08L132.73,91.99L132.64,91.91L132.48,91.92L132.48,92.08"/><path d="M137.80,84.72L137.98,84.72L138.05,84.63L138.00,84.58L137.85,84.55L137.73,84.62L137.77,84.71L137.80,84.57"/><path d="M144.90,81.87L144.97,81.78L144.88,81.71L144.72,81.72L144.66,81.77L144.70,81.86L144.90,81.87"/><path d="M144.72,81.72L144.72,81.87"/></g><g style="stroke:#000000;stroke-width:0.123"><path d="M102.49,98.69L117.35,111.86L160.78,93.30L160.78,93.05L145.29,80.79L102.43,98.40L102.44,98.65L102.49,98.69"/></g></g><g id="Actor_.1"><g style="stroke:#000000;stroke-width:0.018"><path d="M83.27,81.41L97.12,93.69L97.14,93.94"/><path d="M97.12,93.69L139.76,76.43"/></g><g style="stroke:#000000;stroke-width:0.123"><path d="M83.28,81.66L97.14,93.94L139.77,76.67L139.76,76.43L125.32,65.01L83.27,81.41L83.28,81.66"/></g></g><g id="Actor_.2"><g style="stroke:#000000;stroke-width:0.018"><path d="M65.99,66.10L78.94,77.57L120.81,61.43"/><path d="M67.62,66.24L67.58,66.30L67.66,66.37L67.66,66.22L67.62,66.24"/><path d="M67.66,66.22L67.82,66.21L67.89,66.28L67.83,66.35L67.68,66.37"/><path d="M74.72,63.59L74.87,63.58L74.95,63.65L74.87,63.73L74.72,63.74L74.64,63.67L74.72,63.59L74.73,63.74"/><path d="M78.96,77.82L78.94,77.57"/><path d="M79.30,76.65L79.44,76.64L79.53,76.56L79.45,76.49L79.29,76.50L79.21,76.58L79.30,76.65L79.29,76.50"/><path d="M86.64,73.75L86.68,73.81L86.64,73.87L86.47,73.90L86.44,73.75L86.64,73.75"/><path d="M86.44,73.75L86.36,73.83L86.45,73.90"/><path d="M88.44,63.69L88.36,63.62L88.43,63.54L88.59,63.53L88.67,63.60L88.60,63.68L88.44,63.69L88.43,63.54"/><path d="M95.15,61.01L95.08,61.09L95.16,61.16L95.15,61.01L95.31,61.00L95.39,61.07L95.31,61.15L95.16,61.16"/><path d="M96.17,70.07L96.32,70.06L96.41,70.13L96.33,70.21L96.18,70.22L96.17,70.07L96.09,70.15L96.18,70.22"/><path d="M100.12,54.27L100.31,54.24L100.33,54.16L100.21,54.11L100.08,54.15L100.04,54.20L100.12,54.27L100.11,54.13"/><path d="M102.95,67.61L102.87,67.54L102.94,67.46L103.09,67.45L103.18,67.52L103.11,67.60L102.95,67.61L102.94,67.46"/><path d="M106.76,51.66L106.74,51.74L106.81,51.78L106.98,51.76L107.03,51.70L106.95,51.63L106.76,51.66"/><path d="M106.81,51.77L106.80,51.64"/><path d="M112.16,64.00L112.34,63.98L112.39,63.91L112.31,63.85L112.15,63.85L112.08,63.93L112.16,64.00L112.15,63.85"/><path d="M119.14,61.28L119.02,61.24L118.92,61.25L118.92,61.39L119.09,61.39L119.15,61.34L119.14,61.28"/><path d="M118.92,61.25L118.85,61.33L118.92,61.39"/></g><g style="stroke:#000000;stroke-width:0.123"><path d="M66.26,66.56L78.96,77.82L120.82,61.67L120.81,61.43L107.29,50.74L65.99,66.10L66.02,66.34L66.26,66.56"/></g></g><g id="Actor_.3"><g style="stroke:#000000;stroke-width:0.018"><path d="M167.76,156.30L183.09,169.88L228.74,146.79"/><path d="M183.09,169.88L183.08,170.14"/><path d="M187.99,147.34L188.01,147.42L187.94,147.49L187.71,147.48L187.71,147.29L187.89,147.28L187.99,147.34"/><path d="M187.71,147.29L187.65,147.40L187.71,147.48"/><path d="M189.76,147.99L189.98,148.01L190.06,147.90L189.95,147.80L189.76,147.81L189.70,147.88L189.76,147.99L189.76,147.81"/><path d="M194.98,145.44L194.92,145.33L195.04,145.24L195.16,145.25L195.28,145.35L195.21,145.45L195.03,145.47L194.98,145.44L194.98,145.26"/><path d="M195.02,143.91L194.96,143.79L195.03,143.73L195.21,143.71L195.32,143.81L195.24,143.92L195.08,143.93L195.02,143.91L195.03,143.73"/><path d="M197.20,155.39L197.22,155.47L197.14,155.55L196.92,155.53L196.92,155.34L197.04,155.32L197.20,155.39"/><path d="M196.92,155.34L196.86,155.41L196.91,155.52"/><path d="M198.42,156.80L198.37,156.69L198.49,156.60L198.62,156.60L198.74,156.70L198.65,156.82L198.49,156.83L198.43,156.80L198.43,156.62"/><path d="M204.95,151.34L204.94,151.51L204.89,151.41L205.01,151.32L205.19,151.35L205.25,151.46L205.13,151.55L204.94,151.51"/><path d="M206.41,152.70L206.47,152.78L206.63,152.81L206.75,152.76L206.77,152.68L206.65,152.58L206.52,152.58L206.43,152.62L206.41,152.70"/><path d="M206.46,152.77L206.47,152.59"/></g><g style="stroke:#000000;stroke-width:0.123"><path d="M168.49,157.21L167.76,156.56L167.76,156.30L212.95,134.31L228.74,146.79L228.71,147.05L183.08,170.14L168.49,157.21"/></g></g><g id="Actor_.4"><g style="stroke:#000000;stroke-width:0.018"><path d="M144.55,135.73L161.92,151.12L161.92,151.38"/><path d="M157.56,145.85L157.49,145.74L157.56,145.66L157.60,145.86L157.78,145.85L157.85,145.74L157.75,145.65L157.56,145.66"/><path d="M161.92,151.12L206.92,129.54"/><path d="M165.25,142.02L165.18,142.13L165.30,142.22L165.47,142.21L165.54,142.11L165.43,142.01L165.25,142.02L165.25,142.21"/><path d="M171.50,133.62L171.57,133.52L171.46,133.42L171.34,133.42L171.22,133.50L171.27,133.61L171.50,133.62"/><path d="M171.29,133.44L171.28,133.61"/><path d="M178.74,130.07L178.80,130.13L178.78,130.21L178.63,130.26L178.51,130.23L178.52,130.06L178.74,130.07"/><path d="M178.52,130.06L178.45,130.16L178.51,130.23"/><path d="M192.80,128.99L192.97,128.98L193.08,129.07L193.02,129.17L192.84,129.18L192.79,129.16L192.80,128.99L192.73,129.06L192.79,129.16"/><path d="M200.01,125.75L200.19,125.78L200.30,125.70L200.25,125.60L200.07,125.57L199.96,125.65L200.01,125.75L200.02,125.59"/></g><g style="stroke:#000000;stroke-width:0.123"><path d="M145.20,136.56L161.92,151.38L206.91,129.80L206.92,129.54L188.98,115.35L144.55,135.73L144.56,135.99L145.20,136.56"/></g></g><g id="Actor_.5"><g style="stroke:#000000;stroke-width:0.018"><path d="M49.29,51.30L61.38,62.01L61.40,62.25"/><path d="M53.30,53.53L53.45,53.53L53.53,53.59L53.45,53.66L53.32,53.67L53.30,53.53L53.23,53.61L53.32,53.67"/><path d="M60.24,51.05L60.39,51.04L60.46,51.11L60.39,51.18L60.24,51.19L60.16,51.12L60.24,51.05L60.25,51.19"/><path d="M61.38,62.01L102.46,46.92"/><path d="M67.61,46.62L67.61,46.72L67.43,46.75L67.42,46.61L67.61,46.62"/><path d="M67.42,46.61L67.35,46.68L67.43,46.75"/><path d="M73.07,42.86L77.85,46.82L77.67,46.88"/><path d="M74.94,52.16L74.95,52.30L74.86,52.23L74.94,52.16L75.09,52.15L75.16,52.21L75.10,52.28L74.95,52.30"/><path d="M75.40,44.00L75.53,44.00L75.62,43.92L75.54,43.86L75.39,43.87L75.40,44.00L75.32,43.94L75.39,43.87"/><path d="M81.61,49.74L81.75,49.76L81.78,49.84L81.57,49.89L81.56,49.75L81.61,49.74"/><path d="M81.56,49.75L81.49,49.83L81.57,49.89"/><path d="M85.24,42.24L85.42,42.21L85.44,42.14L85.23,42.11L85.24,42.24L85.17,42.20L85.17,42.15L85.23,42.11"/><path d="M91.82,39.88L92.03,39.83L92.00,39.76L91.86,39.74L91.81,39.75L91.82,39.88L91.78,39.87L91.74,39.82L91.81,39.75"/></g><g style="stroke:#000000;stroke-width:0.123"><path d="M49.31,51.46L49.29,51.30L66.74,45.11L71.48,49.11L77.67,46.88L73.09,43.09L73.07,42.86L89.81,36.92L102.46,46.92L102.47,47.16L61.40,62.25L49.32,51.53L49.31,51.46"/></g></g><g id="Actor_.6"><g style="stroke:#000000;stroke-width:0.018"><path d="M44.59,47.14L46.04,48.42L46.07,48.65"/><path d="M46.04,48.42L63.42,42.31"/><path d="M46.32,46.93L46.24,47.01L46.32,47.07L46.46,47.06L46.54,46.99L46.47,46.93L46.32,46.93L46.34,47.07"/><path d="M52.60,44.75L52.63,44.83L52.71,44.85L52.85,44.81L52.89,44.76L52.86,44.72L52.77,44.69L52.60,44.75"/><path d="M52.67,44.71L52.69,44.84"/><path d="M62.27,42.11L62.11,42.07L62.02,42.10L61.98,42.15L62.02,42.20L62.16,42.22L62.27,42.16L62.27,42.11"/><path d="M62.06,42.08L62.07,42.21"/><path d="M62.92,41.89L62.72,41.72L69.02,39.50L69.73,40.09L69.75,40.32"/><path d="M69.91,39.44L69.92,39.49L69.99,39.52L69.98,39.39L69.91,39.44"/><path d="M69.73,40.09L86.40,34.22"/><path d="M69.04,39.74L69.02,39.50"/><path d="M69.98,39.39L70.12,39.39L70.20,39.45L70.13,39.52L69.99,39.52"/><path d="M77.95,35.85L77.88,35.91L77.96,35.97L78.10,35.97L78.17,35.90L78.10,35.84L77.95,35.85L77.96,35.98"/><path d="M83.99,33.86L83.91,33.80L83.98,33.73L84.13,33.73L84.20,33.79L84.13,33.85L83.99,33.86L83.98,33.73"/></g><g style="stroke:#000000;stroke-width:0.123"><path d="M44.62,47.37L44.59,47.14L84.89,33.03L86.40,34.22L86.42,34.46L69.75,40.32L69.04,39.74L62.92,41.89L63.42,42.31L63.44,42.54L46.07,48.65L44.62,47.37"/></g></g><g id="Actor_.7"><g style="stroke:#000000;stroke-width:0.018"><path d="M44.18,46.68L43.83,43.64L43.70,43.52"/><path d="M43.83,43.64L84.25,29.61"/></g><g style="stroke:#000000;stroke-width:0.123"><path d="M44.05,46.56L44.18,46.68L84.46,32.60L84.25,29.61L84.11,29.50L43.70,43.52L44.05,46.56"/></g></g><g id="Actor_.8"><g style="stroke:#000000;stroke-width:0.018"><path d="M36.55,36.96L43.27,42.86L43.30,43.17"/><path d="M83.67,28.87L43.27,42.86"/><path d="M60.37,28.87L64.05,31.89L63.81,31.97"/></g><g style="stroke:#000000;stroke-width:0.123"><path d="M36.55,37.23L36.55,36.96L53.46,31.22L57.11,34.27L63.81,31.97L60.36,29.13L60.37,28.87L76.63,23.34L83.67,28.87L83.69,29.17L43.30,43.17L36.55,37.23"/></g></g><g id="Actor_.9"><g style="stroke:#000000;stroke-width:0.018"><path d="M34.46,35.36L34.46,35.08L28.30,24.04"/><path d="M34.46,35.08L51.32,29.39"/><path d="M58.20,27.34L58.21,27.06L56.63,24.28L49.73,26.59L49.81,26.72"/><path d="M56.63,24.28L56.56,24.45"/><path d="M58.21,27.06L74.43,21.58"/></g><g style="stroke:#000000;stroke-width:0.123"><path d="M28.31,24.10L28.36,24.42L34.46,35.36L51.31,29.66L51.32,29.39L49.81,26.72L56.56,24.45L58.20,27.34L74.41,21.86L74.43,21.58L68.29,10.96L28.30,24.04L28.31,24.10"/></g></g><g id="Actor_.10"><g style="stroke:#000000;stroke-width:0.018"><path d="M27.49,23.50L26.72,16.64L66.52,3.87"/><path d="M26.72,16.64L26.56,16.51"/></g><g style="stroke:#000000;stroke-width:0.123"><path d="M27.52,23.48L27.49,23.50L27.30,23.15L26.56,16.51L66.36,3.74L66.51,3.85L67.42,10.45L27.52,23.48"/></g></g><g id="Actor_.11"><g style="stroke:#000000;stroke-width:0.018"><path d="M24.51,14.94L24.59,15.19L24.85,15.54L24.89,15.85"/><path d="M24.85,15.54L25.55,15.32L25.59,15.62"/><path d="M26.22,16.16L26.17,15.85L25.55,15.32"/><path d="M26.17,15.85L65.96,3.11"/><path d="M26.44,14.44L26.67,14.37L26.27,14.03L26.31,14.34"/><path d="M26.27,14.03L25.49,14.28L25.76,14.51"/><path d="M27.35,12.73L27.73,13.05L27.49,13.13"/><path d="M29.10,14.27L29.23,14.28L29.25,14.35L29.18,14.39L29.06,14.40L29.05,14.28L29.10,14.27"/><path d="M29.06,14.40L28.97,14.34L29.05,14.28"/><path d="M33.24,12.96L33.10,12.99L33.07,13.06L33.22,13.09L33.34,13.04L33.32,12.98L33.24,12.96"/><path d="M33.14,12.97L33.15,13.09"/><path d="M34.40,10.49L34.64,10.42L34.24,10.08"/><path d="M42.72,10.04L42.84,10.03L42.91,9.96L42.84,9.91L42.70,9.91L42.63,9.98L42.69,10.03L42.72,10.04L42.70,9.91"/><path d="M49.00,7.90L49.14,7.89L49.21,7.95L49.14,8.01L48.99,8.02L48.92,7.96L49.00,7.90L49.01,8.02"/><path d="M53.55,3.95L53.96,4.27L53.71,4.35"/><path d="M58.22,4.97L58.38,4.92L58.46,4.94L58.49,4.98L58.46,5.03L58.32,5.06L58.22,5.02L58.22,4.97"/><path d="M58.28,4.93L58.29,5.05"/><path d="M60.94,2.05L61.33,2.35L61.08,2.44"/><path d="M62.39,3.73L62.36,3.69L62.23,3.68L62.14,3.70L62.11,3.75L62.14,3.79L62.28,3.81L62.36,3.78L62.39,3.73"/><path d="M62.18,3.69L62.19,3.80"/><path d="M62.62,2.70L62.56,2.62L62.55,2.52L62.64,2.35L62.79,2.24L62.98,2.16L63.33,2.09L63.81,2.11L64.09,2.21L64.21,2.30L64.27,2.41L64.23,2.59"/><path d="M63.01,2.47L62.98,2.16"/><path d="M66.00,2.39L65.30,2.61L65.58,2.83"/></g><g style="stroke:#000000;stroke-width:0.123"><path d="M24.50,14.92L24.55,15.25L24.63,15.50L24.89,15.85L25.59,15.62L26.22,16.16L65.98,3.42L65.96,3.11L65.58,2.83L66.03,2.69L66.00,2.39L65.69,2.21L65.32,2.05L64.46,1.83L63.47,1.73L62.69,1.74L62.17,1.79L61.42,1.92L60.94,2.05L60.97,2.35L61.08,2.44L60.61,2.58L60.22,2.28L53.55,3.95L53.58,4.26L53.71,4.35L53.23,4.51L52.82,4.18L47.23,5.87L43.51,7.04L37.94,8.84L34.24,10.08L34.27,10.39L34.40,10.49L33.89,10.66L33.49,10.33L33.25,10.42L27.35,12.73L27.39,13.04L27.49,13.13L26.97,13.29L26.59,12.98L25.72,13.34L25.19,13.67L24.80,14.04L24.56,14.42L24.50,14.68L24.50,14.92"/><path d="M25.89,14.62L25.76,14.51L26.31,14.34L26.44,14.44L25.89,14.62"/><path d="M62.66,2.73L62.62,2.70L62.81,2.55L63.01,2.47L63.36,2.40L63.84,2.42L64.04,2.47L64.22,2.58L64.12,2.69L63.94,2.78L63.49,2.89L63.01,2.87L62.81,2.82L62.66,2.73"/></g></g><g id="Actor_.12"><g style="stroke:#000000;stroke-width:0.018"><path d="M219.50,187.75L233.87,200.17L234.07,200.06L235.66,201.43L235.62,201.77"/><path d="M233.83,200.51L233.87,200.17"/><path d="M233.88,177.08L234.14,177.61L234.26,178.01L234.31,178.41L234.28,178.99"/><path d="M234.07,200.06L234.03,200.40"/><path d="M237.47,181.58L237.50,181.25L234.25,183.01L234.48,183.21"/><path d="M235.66,201.43L240.19,198.89"/><path d="M236.67,177.10L236.53,177.04L236.47,176.91L236.55,176.80L236.74,176.77L236.91,176.84L236.98,176.97L236.89,177.08L236.75,177.11"/><path d="M236.55,176.80L236.53,177.03"/><path d="M240.34,183.97L240.61,183.83L237.50,181.25"/><path d="M239.36,184.51L239.81,184.92L239.84,185.06L239.76,185.23"/><path d="M239.97,198.70L239.76,198.52L240.53,198.07L240.49,198.41"/><path d="M240.53,198.07L240.97,198.45L240.93,198.79"/><path d="M239.71,184.80L239.67,185.13"/><path d="M240.97,198.45L248.36,194.30"/><path d="M241.63,181.15L241.81,181.09L241.85,181.01L241.82,180.92L241.67,180.82L241.47,180.82L241.35,180.91L241.38,181.06L241.42,180.84"/><path d="M241.39,181.07L241.51,181.14"/><path d="M241.57,174.47L241.43,174.41L241.36,174.28L241.44,174.17L241.63,174.14L241.80,174.20L241.87,174.33L241.79,174.44L241.62,174.48"/><path d="M241.44,174.17L241.42,174.40"/><path d="M246.55,178.47L246.73,178.41L246.78,178.32L246.75,178.23L246.60,178.14L246.41,178.13L246.28,178.22L246.31,178.37L246.35,178.15"/><path d="M246.33,178.38L246.46,178.46"/><path d="M249.29,194.10L249.33,193.76L248.88,193.39L247.92,193.93L248.14,194.12"/><path d="M248.88,193.39L248.84,193.73"/><path d="M249.33,193.76L252.98,191.71"/><path d="M262.26,189.60L261.69,189.92L258.28,187.14L251.82,190.75L252.04,190.94"/><path d="M256.84,177.80L256.92,177.59L256.83,177.36L256.59,177.17L256.26,177.07L255.92,177.08L255.65,177.20L255.52,177.40L255.54,177.61"/><path d="M255.69,177.48L255.73,177.15"/><path d="M257.24,176.47L257.08,176.35L257.27,176.25"/><path d="M258.28,187.14L258.23,187.47"/><path d="M261.65,190.26L261.69,189.92"/><path d="M266.85,184.17L263.77,185.90L263.10,186.36L262.60,186.89L262.33,187.32L262.16,187.75L262.05,188.30"/><path d="M263.72,186.24L263.76,185.91"/></g><g style="stroke:#000000;stroke-width:0.123"><path d="M219.60,188.20L233.83,200.51L234.03,200.40L235.62,201.77L240.15,199.23L240.19,198.89L239.97,198.70L240.49,198.41L240.93,198.79L248.32,194.64L248.36,194.30L248.14,194.12L248.84,193.73L249.29,194.10L252.93,192.05L252.98,191.71L252.04,190.94L258.23,187.47L261.65,190.26L262.21,189.94L262.26,189.60L262.07,188.89L262.05,188.30L262.29,187.65L262.69,187.06L263.05,186.70L263.48,186.38L266.80,184.51L266.85,184.17L257.24,176.47L257.27,176.25L248.50,169.23L233.88,177.08L233.85,177.41L234.17,178.14L234.26,178.55L234.28,178.99L234.18,179.36L234.04,179.64L233.85,179.89L233.62,180.10L219.50,187.75L219.48,188.09L219.60,188.20"/><path d="M234.96,183.61L237.35,185.61L238.60,184.93L239.11,185.31L239.40,185.37L239.66,185.30L239.74,185.25L239.73,185.19L239.33,184.84L239.36,184.51L240.34,183.97L237.47,181.58L234.48,183.21L234.96,183.61"/><path d="M236.67,177.10L236.75,177.11L236.67,177.10"/><path d="M241.63,181.15L241.51,181.14L241.63,181.15"/><path d="M241.60,174.47L241.57,174.47L241.60,174.47"/><path d="M246.51,178.47L246.46,178.46L246.55,178.47L246.51,178.47"/><path d="M255.72,177.83L255.54,177.61L255.78,177.44L256.10,177.39L256.55,177.50L256.72,177.62L256.84,177.80L256.60,177.96L256.28,178.02L255.94,177.95L255.72,177.83"/></g></g><g id="Actor_.13"><g style="stroke:#000000;stroke-width:0.018"><path d="M215.21,179.78L215.21,179.99L215.24,180.21L215.31,180.42L215.42,180.63L215.55,180.84L217.72,183.63L217.69,183.97"/><path d="M215.55,180.84L215.53,181.17"/><path d="M217.72,183.63L231.57,176.22L231.53,176.56"/><path d="M231.57,176.22L231.76,176.11L231.92,175.99L232.05,175.86L232.18,175.70L232.30,175.50L232.37,175.34L232.43,175.14L232.48,174.88"/></g><g style="stroke:#000000;stroke-width:0.123"><path d="M215.39,180.97L215.53,181.17L217.69,183.97L231.53,176.56L231.72,176.45L231.88,176.32L232.01,176.20L232.21,175.94L232.33,175.68L232.43,175.35L232.49,174.75L232.48,174.35L232.41,173.94L232.27,173.53L232.14,173.28L231.99,173.04L231.74,172.73L231.55,172.54L231.18,172.30L230.94,172.18L230.68,172.08L230.41,172.00L230.12,171.94L229.69,171.89L229.40,171.88L229.12,171.90L228.85,171.95L228.46,172.05L228.22,172.15L216.17,178.52L215.95,178.66L215.74,178.81L215.50,179.07L215.37,179.26L215.25,179.57L215.21,179.78L215.18,180.33L215.25,180.66L215.39,180.97"/></g></g><g id="Actor_.14"><g style="stroke:#000000;stroke-width:0.018"><path d="M256.98,195.44L261.26,198.99L261.23,199.16"/><path d="M261.26,198.99L266.05,195.86"/><path d="M264.51,191.92L262.58,193.02L262.80,193.20"/></g><g style="stroke:#000000;stroke-width:0.123"><path d="M260.10,198.41L260.28,198.55L261.23,199.16L266.03,196.03L266.05,195.86L262.80,193.20L264.47,192.26L264.51,191.92L264.42,191.78L264.33,191.63L264.27,191.49L264.22,191.34L256.98,195.44L256.96,195.55"/></g></g><g id="Actor_.15"><g style="stroke:#000000;stroke-width:0.018"><path d="M236.71,202.34L243.17,207.92L260.17,198.21"/><path d="M241.37,202.20L241.38,201.97L241.47,201.72L241.65,201.50L241.80,201.38L241.99,201.27L242.31,201.16L242.67,201.11L243.04,201.12L243.41,201.19L243.76,201.32L244.06,201.50L244.23,201.65L244.42,201.89L244.54,202.15L244.56,202.42L244.52,202.63"/><path d="M241.89,201.32L241.85,201.66"/><path d="M241.99,199.62L242.20,199.50L242.02,199.35"/><path d="M243.17,207.92L243.15,208.10"/><path d="M250.48,195.09L250.74,194.94L250.38,194.64"/><path d="M251.61,195.78L251.57,195.70L251.56,195.60L251.59,195.51L251.70,195.41L251.87,195.35L252.00,195.35L252.25,195.41L252.35,195.48L253.57,196.50L253.62,196.58L253.65,196.67L253.63,196.77L253.55,196.87"/><path d="M252.35,195.48L252.31,195.82"/><path d="M253.52,196.46L253.48,196.79"/><path d="M256.19,194.38L255.81,194.59L256.03,194.78"/></g><g style="stroke:#000000;stroke-width:0.123"><path d="M237.18,203.11L236.67,202.68L236.71,202.34L241.24,199.79L241.42,199.94L241.99,199.62L242.02,199.35L249.42,195.19L249.78,195.49L250.47,195.09L250.34,194.98L250.38,194.64L254.03,192.59L256.19,194.38L256.15,194.72L256.03,194.78L260.17,198.21L260.14,198.39L243.15,208.10L242.26,207.51L237.18,203.11"/><path d="M241.70,202.83L241.87,202.98L242.07,203.11L242.40,203.26L242.77,203.35L243.02,203.38L243.27,203.38L243.63,203.33L243.85,203.26L244.05,203.16L244.22,203.05L244.36,202.91L244.46,202.76L244.52,202.63L244.47,202.40L244.33,202.15L244.11,201.91L243.92,201.78L243.72,201.66L243.37,201.53L243.00,201.46L242.63,201.45L242.27,201.50L241.96,201.61L241.68,201.77L241.48,201.98L241.37,202.20L241.40,202.33L241.51,202.59L241.70,202.83"/><path d="M252.12,196.23L251.61,195.78L251.71,195.72L251.89,195.68L252.02,195.69L252.21,195.75L252.31,195.82L253.48,196.79L253.55,196.87L253.45,196.94L253.27,196.97L253.14,196.96L252.95,196.90L252.12,196.23"/></g></g><g id="Actor_.16"><g style="stroke:#000000;stroke-width:0.018"><path d="M122.34,116.04L138.39,130.27L182.60,110.31"/><path d="M129.25,120.76L129.32,120.70L129.33,120.88L129.25,120.76"/><path d="M129.32,120.70L129.49,120.69L129.59,120.78L129.50,120.88L129.33,120.88"/><path d="M137.09,117.44L137.07,117.55L136.86,117.58L136.83,117.40L137.00,117.39L137.09,117.44"/><path d="M136.83,117.40L136.76,117.50L136.83,117.57"/><path d="M138.39,130.27L138.39,130.52"/><path d="M147.10,112.86L147.15,112.96L147.03,113.04L146.86,113.01L146.81,112.95L146.84,112.88L146.94,112.84L147.10,112.86"/><path d="M146.88,112.85L146.89,113.02"/><path d="M154.03,109.72L154.20,109.74L154.25,109.84L154.15,109.91L153.96,109.89L153.92,109.79L154.03,109.72"/><path d="M153.98,109.73L153.98,109.90"/><path d="M163.71,105.65L163.74,105.58L163.83,105.54L163.98,105.56L164.05,105.63L164.02,105.69L163.89,105.74L163.71,105.65"/><path d="M163.78,105.55L163.78,105.71"/><path d="M170.81,102.47L170.79,102.54L170.83,102.59L170.85,102.45L170.81,102.47"/><path d="M170.85,102.45L171.01,102.44L171.12,102.52L171.05,102.61L170.84,102.60"/></g><g style="stroke:#000000;stroke-width:0.123"><path d="M122.35,116.30L138.39,130.52L182.59,110.56L182.60,110.31L165.97,97.15L122.34,116.04L122.35,116.30"/></g></g><g id="Actor_.17"><g style="stroke:#000000;stroke-width:0.018"><path d="M187.56,173.84L198.09,183.18L212.23,175.76"/><path d="M189.31,173.91L189.54,173.93L189.62,173.81L189.56,173.72L189.37,173.69L189.25,173.79L189.29,173.90L189.31,173.71"/><path d="M197.18,169.68L197.37,169.67L197.49,169.77L197.42,169.89L197.25,169.91L197.11,169.80L197.18,169.68L197.17,169.88"/><path d="M198.09,183.18L198.08,183.45"/><path d="M209.74,172.09L209.81,171.61L210.09,171.13L210.38,170.85L210.75,170.62L210.73,170.89"/><path d="M226.18,164.97L226.20,164.70L226.02,164.58L225.40,164.30L224.94,164.17L224.46,164.10L223.98,164.09L223.51,164.15L223.07,164.26L222.68,164.42L210.75,170.62"/><path d="M222.68,164.42L222.66,164.69"/><path d="M225.31,155.44L225.33,155.27L225.38,155.25L225.57,155.28L225.64,155.40L225.52,155.49L225.34,155.46L225.27,155.38L225.33,155.27"/><path d="M226.20,164.70L241.38,156.79"/><path d="M232.69,151.50L232.63,151.57L232.70,151.69L232.88,151.71L232.99,151.63L232.93,151.51L232.74,151.48L232.69,151.50L232.67,151.67"/></g><g style="stroke:#000000;stroke-width:0.123"><path d="M187.90,174.43L187.55,174.11L187.56,173.84L233.34,150.43L241.38,156.79L241.35,157.05L226.18,164.97L225.80,164.74L225.38,164.56L224.92,164.43L224.44,164.36L223.72,164.38L223.26,164.46L222.85,164.60L210.56,170.98L210.21,171.25L209.86,171.71L209.74,172.09L209.81,172.49L210.09,173.00L212.23,175.76L212.21,176.02L198.08,183.45L187.90,174.43"/></g></g><g id="PMI10.0"><g><path style="stroke:#000000;stroke-width:0.200" d="M266.35,172.88L255.74,172.86"/></g><g><path style="fill:#000000" d="M255.73,171.85L255.73,173.85L253.73,172.85z"/></g><g><path style="fill:#ffffff" d="M266.34,175.72L285.50,175.72L285.50,170.07L266.34,170.07z"/><path style="stroke:#000000;stroke-width:0.200;stroke-opacity:0.98" d="M266.34,175.72L285.50,175.72L285.50,170.07L266.34,170.07z"/><text xml:space="preserve" fill="#000000" stroke-width="0" x="267.04" y="174.13" font-size="3.44" opacity="1.00" font-family="Microsoft Sans Serif">3900000R1</text></g></g><g id="PMI1.0"><g><path style="stroke:#000000;stroke-width:0.200" d="M165.16,162.13L171.85,162.31"/></g><g><path style="fill:#000000" d="M171.82,163.30L171.87,161.30L173.85,162.35z"/></g><g><path style="fill:#ffffff" d="M147.54,164.71L165.16,164.71L165.16,159.06L147.54,159.06z"/><path style="stroke:#000000;stroke-width:0.200;stroke-opacity:0.98" d="M147.54,164.71L165.16,164.71L165.16,159.06L147.54,159.06z"/><text xml:space="preserve" fill="#000000" stroke-width="0" x="148.24" y="163.12" font-size="3.43" opacity="1.00" font-family="Microsoft Sans Serif">3900000I1</text></g></g><g id="PMI18.0"><g><path style="stroke:#000000;stroke-width:0.200" d="M121.93,54.46L114.65,54.74"/></g><g><path style="fill:#000000" d="M114.61,53.74L114.69,55.74L112.66,54.82z"/></g><g><path style="fill:#ffffff" d="M121.94,56.92L140.71,56.92L140.71,51.27L121.94,51.27z"/><path style="stroke:#000000;stroke-width:0.200;stroke-opacity:0.98" d="M121.94,56.92L140.71,56.92L140.71,51.27L121.94,51.27z"/><text xml:space="preserve" fill="#000000" stroke-width="0" x="122.64" y="55.33" font-size="3.43" opacity="1.00" font-family="Microsoft Sans Serif">3900000Z1</text></g></g><g id="PMI8.0"><g><path style="stroke:#000000;stroke-width:0.200" d="M77.38,3.69L68.35,3.73"/></g><g><path style="fill:#000000" d="M68.35,2.74L68.36,4.74L66.36,3.74z"/></g><g><path style="fill:#ffffff" d="M77.39,6.48L96.35,6.48L96.35,0.83L77.39,0.83z"/><path style="stroke:#000000;stroke-width:0.200;stroke-opacity:0.98" d="M77.39,6.48L96.35,6.48L96.35,0.83L77.39,0.83z"/><text xml:space="preserve" fill="#000000" stroke-width="0" x="78.09" y="4.89" font-size="3.44" opacity="1.00" font-family="Microsoft Sans Serif">3900000P1</text></g></g><g id="PMI9.0"><g><path style="stroke:#000000;stroke-width:0.200" d="M31.68,6.99L41.49,7.01"/></g><g><path style="fill:#000000" d="M41.50,8.03L41.51,6.03L43.51,7.04z"/></g><g><path style="fill:#ffffff" d="M12.35,9.81L31.70,9.81L31.70,4.16L12.35,4.16z"/><path style="stroke:#000000;stroke-width:0.200;stroke-opacity:0.98" d="M12.35,9.81L31.70,9.81L31.70,4.16L12.35,4.16z"/><text xml:space="preserve" fill="#000000" stroke-width="0" x="13.06" y="8.22" font-size="3.44" opacity="1.00" font-family="Microsoft Sans Serif">3900000Q1</text></g></g><g id="PMI6.0"><g><path style="stroke:#000000;stroke-width:0.200" d="M86.86,26.30L81.62,26.37"/></g><g><path style="fill:#000000" d="M81.61,25.37L81.64,27.37L79.63,26.40z"/></g><g><path style="fill:#ffffff" d="M86.86,29.01L106.02,29.01L106.02,23.37L86.86,23.37z"/><path style="stroke:#000000;stroke-width:0.200;stroke-opacity:0.98" d="M86.86,29.01L106.02,29.01L106.02,23.37L86.86,23.37z"/><text xml:space="preserve" fill="#000000" stroke-width="0" x="87.56" y="27.42" font-size="3.44" opacity="1.00" font-family="Microsoft Sans Serif">3900000N1</text></g></g><g id="PMI2.0"><g><path style="stroke:#000000;stroke-width:0.200" d="M211.55,121.63L200.43,121.86"/></g><g><path style="fill:#000000" d="M200.41,120.86L200.45,122.86L198.43,121.90z"/></g><g><path style="fill:#ffffff" d="M211.55,124.25L229.94,124.25L229.94,118.61L211.55,118.61z"/><path style="stroke:#000000;stroke-width:0.200;stroke-opacity:0.98" d="M211.55,124.25L229.94,124.25L229.94,118.61L211.55,118.61z"/><text xml:space="preserve" fill="#000000" stroke-width="0" x="212.25" y="122.67" font-size="3.43" opacity="1.00" font-family="Microsoft Sans Serif">3900000J1</text></g></g><g id="PMI7.0"><g><path style="stroke:#000000;stroke-width:0.200" d="M25.28,29.13L28.71,29.17"/></g><g><path style="fill:#000000" d="M28.71,30.19L28.74,28.19L30.72,29.21z"/></g><g><path style="fill:#ffffff" d="M5.95,31.83L25.30,31.83L25.30,26.18L5.95,26.18z"/><path style="stroke:#000000;stroke-width:0.200;stroke-opacity:0.98" d="M5.95,31.83L25.30,31.83L25.30,26.18L5.95,26.18z"/><text xml:space="preserve" fill="#000000" stroke-width="0" x="6.66" y="30.24" font-size="3.44" opacity="1.00" font-family="Microsoft Sans Serif">3900000O1</text></g></g><g id="PMI4.0"><g><path style="stroke:#000000;stroke-width:0.200" d="M97.86,34.25L87.25,34.10"/></g><g><path style="fill:#000000" d="M87.27,33.11L87.25,35.11L85.26,34.08z"/></g><g><path style="fill:#ffffff" d="M97.87,37.20L116.45,37.20L116.45,31.56L97.87,31.56z"/><path style="stroke:#000000;stroke-width:0.200;stroke-opacity:0.98" d="M97.87,37.20L116.45,37.20L116.45,31.56L97.87,31.56z"/><text xml:space="preserve" fill="#000000" stroke-width="0" x="98.57" y="35.61" font-size="3.43" opacity="1.00" font-family="Microsoft Sans Serif">3900000L1</text></g></g><g id="PMI5.0"><g><path style="stroke:#000000;stroke-width:0.200" d="M32.64,44.98L41.76,44.85"/></g><g><path style="fill:#000000" d="M41.80,45.86L41.77,43.86L43.78,44.83z"/></g><g><path style="fill:#ffffff" d="M13.12,47.96L32.66,47.96L32.66,42.31L13.12,42.31z"/><path style="stroke:#000000;stroke-width:0.200;stroke-opacity:0.98" d="M13.12,47.96L32.66,47.96L32.66,42.31L13.12,42.31z"/><text xml:space="preserve" fill="#000000" stroke-width="0" x="13.83" y="46.37" font-size="3.44" opacity="1.00" font-family="Microsoft Sans Serif">3900000M1</text></g></g><g id="PMI3.0"><g><path style="stroke:#000000;stroke-width:0.200" d="M44.87,56.37L52.77,56.35"/></g><g><path style="fill:#000000" d="M52.79,57.36L52.79,55.36L54.79,56.35z"/></g><g><path style="fill:#ffffff" d="M25.92,59.22L44.89,59.22L44.89,53.58L25.92,53.58z"/><path style="stroke:#000000;stroke-width:0.200;stroke-opacity:0.98" d="M25.92,59.22L44.89,59.22L44.89,53.58L25.92,53.58z"/><text xml:space="preserve" fill="#000000" stroke-width="0" x="26.63" y="57.63" font-size="3.44" opacity="1.00" font-family="Microsoft Sans Serif">3900000K1</text></g></g><g id="PMI16.0"><g><path style="stroke:#000000;stroke-width:0.200" d="M161.62,87.23L154.34,87.31"/></g><g><path style="fill:#000000" d="M154.33,86.31L154.35,88.31L152.34,87.33z"/></g><g><path style="fill:#ffffff" d="M161.62,89.95L180.59,89.95L180.59,84.30L161.62,84.30z"/><path style="stroke:#000000;stroke-width:0.200;stroke-opacity:0.98" d="M161.62,89.95L180.59,89.95L180.59,84.30L161.62,84.30z"/><text xml:space="preserve" fill="#000000" stroke-width="0" x="162.33" y="88.36" font-size="3.44" opacity="1.00" font-family="Microsoft Sans Serif">3900000X1</text></g></g><g id="PMI17.0"><g><path style="stroke:#000000;stroke-width:0.200" d="M78.93,87.73L88.37,87.82"/></g><g><path style="fill:#000000" d="M88.37,88.83L88.39,86.83L90.38,87.85z"/></g><g><path style="fill:#ffffff" d="M59.97,90.46L78.94,90.46L78.94,84.81L59.97,84.81z"/><path style="stroke:#000000;stroke-width:0.200;stroke-opacity:0.98" d="M59.97,90.46L78.94,90.46L78.94,84.81L59.97,84.81z"/><text xml:space="preserve" fill="#000000" stroke-width="0" x="60.68" y="88.87" font-size="3.44" opacity="1.00" font-family="Microsoft Sans Serif">3900000Y1</text></g></g><g id="PMI15.0"><g><path style="stroke:#000000;stroke-width:0.200" d="M118.56,123.60L128.83,123.47"/></g><g><path style="fill:#000000" d="M128.85,124.46L128.82,122.46L130.83,123.43z"/></g><g><path style="fill:#ffffff" d="M98.64,126.56L118.56,126.56L118.56,120.91L98.64,120.91z"/><path style="stroke:#000000;stroke-width:0.200;stroke-opacity:0.98" d="M98.64,126.56L118.56,126.56L118.56,120.91L98.64,120.91z"/><text xml:space="preserve" fill="#000000" stroke-width="0" x="99.34" y="124.97" font-size="3.44" opacity="1.00" font-family="Microsoft Sans Serif">3900000W1</text></g></g><g id="PMI12.0"><g><path style="stroke:#000000;stroke-width:0.200" d="M245.61,153.15L237.30,153.35"/></g><g><path style="fill:#000000" d="M237.27,152.34L237.32,154.34L235.30,153.39z"/></g><g><path style="fill:#ffffff" d="M245.60,155.75L264.76,155.75L264.76,150.10L245.60,150.10z"/><path style="stroke:#000000;stroke-width:0.200;stroke-opacity:0.98" d="M245.60,155.75L264.76,155.75L264.76,150.10L245.60,150.10z"/><text xml:space="preserve" fill="#000000" stroke-width="0" x="246.31" y="154.16" font-size="3.44" opacity="1.00" font-family="Microsoft Sans Serif">3900000H1</text></g></g><g id="PMI11.0"><g><path style="stroke:#000000;stroke-width:0.200" d="M206.46,182.10L213.85,182.08"/></g><g><path style="fill:#000000" d="M213.84,183.07L213.83,181.07L215.84,182.07z"/></g><g><path style="fill:#ffffff" d="M187.48,184.93L206.45,184.93L206.45,179.29L187.48,179.29z"/><path style="stroke:#000000;stroke-width:0.200;stroke-opacity:0.98" d="M187.48,184.93L206.45,184.93L206.45,179.29L187.48,179.29z"/><text xml:space="preserve" fill="#000000" stroke-width="0" x="188.19" y="183.35" font-size="3.44" opacity="1.00" font-family="Microsoft Sans Serif">3900000S1</text></g></g><g id="PMI13.0"><g><path style="stroke:#000000;stroke-width:0.200" d="M272.23,195.54L267.07,195.47"/></g><g><path style="fill:#000000" d="M267.08,194.46L267.05,196.46L265.07,195.43z"/></g><g><path style="fill:#ffffff" d="M272.23,198.50L291.39,198.50L291.39,192.86L272.23,192.86z"/><path style="stroke:#000000;stroke-width:0.200;stroke-opacity:0.98" d="M272.23,198.50L291.39,198.50L291.39,192.86L272.23,192.86z"/><text xml:space="preserve" fill="#000000" stroke-width="0" x="272.93" y="196.92" font-size="3.44" opacity="1.00" font-family="Microsoft Sans Serif">3900000U1</text></g></g><g id="PMI14.0"><g><path style="stroke:#000000;stroke-width:0.200" d="M225.47,204.54L237.15,204.39"/></g><g><path style="fill:#000000" d="M237.15,205.37L237.12,203.37L239.14,204.34z"/></g><g><path style="fill:#ffffff" d="M206.68,207.46L225.46,207.46L225.46,201.82L206.68,201.82z"/><path style="stroke:#000000;stroke-width:0.200;stroke-opacity:0.98" d="M206.68,207.46L225.46,207.46L225.46,201.82L206.68,201.82z"/><text xml:space="preserve" fill="#000000" stroke-width="0" x="207.39" y="205.88" font-size="3.43" opacity="1.00" font-family="Microsoft Sans Serif">3900000T1</text></g></g><g/><g id="paperID" visibility="hidden" opacity="0.00" transform="scale(0.000100)"><path style="stroke:#000000;stroke-width:0.500;fill:#e6e6e6;fill-rule:evenodd" d="M-2000.00,-2000.00L2297.00,-2000.00L2297.00,2210.00L-2000.00,2210.00zM0.00,0.00L297.00,0.00L297.00,210.00L0.00,210.00z"/><path style="fill:#000000;fill-opacity:0.118" d="M3.00,210.00L297.00,210.00L297.00,3.00L300.00,3.00L300.00,213.00L3.00,213.00z"/></g><g id="hotspot.0" onmouseover="ShowHotSpot(evt,'0')" onmouseout="HideHotSpot(evt,'0')" onmousemove="ShowToolTip(evt,'0',&quot;3dp1113263&quot;)" opacity="0"><path style="fill:#00ff00;fill-rule:evenodd" d="M214.73,135.53L224.99,143.70L228.35,146.24L228.59,146.89L183.74,169.67L182.97,169.87L167.86,156.50L167.86,156.11L212.82,134.25L212.96,134.25zM165.34,159.05L165.47,161.74L171.71,161.71L171.97,161.11L173.76,162.16L172.39,162.96L171.91,163.01L171.70,162.42L165.47,162.40L165.24,164.73L147.61,164.75L147.31,164.54L147.36,159.13L147.56,158.83L165.09,158.80z"/></g><g id="hotspot.1" onmouseover="ShowHotSpot(evt,'1')" onmouseout="HideHotSpot(evt,'1')" onmousemove="ShowToolTip(evt,'1',&quot;3dp1113272&quot;)" opacity="0"><path style="fill:#00ff00;fill-rule:evenodd" d="M256.20,175.21L257.51,176.47L266.75,183.91L266.75,184.27L262.81,186.76L262.06,188.09L262.09,189.92L261.31,189.83L258.51,187.47L257.92,187.48L253.65,189.89L252.27,190.81L252.92,191.61L252.89,191.92L249.73,193.67L248.80,193.67L248.22,193.88L248.27,194.47L241.25,198.51L240.01,198.48L240.08,199.09L236.16,201.35L235.22,201.33L234.19,200.30L233.18,199.78L219.58,187.99L219.58,187.61L233.83,179.80L234.20,179.15L234.20,178.02L233.81,176.99L248.56,169.07zM285.68,170.06L285.58,175.74L266.41,175.76L266.11,175.55L265.94,173.16L255.88,173.19L255.66,173.50L255.19,173.46L253.82,172.65L255.37,171.84L255.67,171.88L255.87,172.47L265.94,172.49L266.16,170.14L266.36,169.84L285.42,169.81zM256.75,177.49L256.65,177.78L255.91,177.81L255.58,177.48L255.82,177.24L256.50,177.23zM240.12,183.68L240.09,183.98L239.55,184.28L239.55,184.95L238.20,184.91L237.92,185.18L237.01,185.20L234.60,183.13L235.98,182.21L237.18,181.59L237.77,181.58z"/></g><g id="hotspot.2" onmouseover="ShowHotSpot(evt,'2')" onmouseout="HideHotSpot(evt,'2')" onmousemove="ShowToolTip(evt,'2',&quot;3dp1113273&quot;)" opacity="0"><path style="fill:#00ff00;fill-rule:evenodd" d="M231.64,172.38L232.41,173.66L232.41,175.31L231.78,176.22L217.97,183.69L217.55,183.68L215.51,181.09L215.14,179.83L215.76,178.64L228.46,171.87L230.61,171.87zM206.57,179.28L206.70,181.71L213.69,181.69L213.90,181.10L214.19,181.05L215.75,181.87L214.20,182.76L213.69,182.41L206.70,182.37L206.54,185.04L187.55,184.98L187.25,184.77L187.30,179.36L187.51,179.06L206.31,179.02z"/></g><g id="hotspot.3" onmouseover="ShowHotSpot(evt,'3')" onmouseout="HideHotSpot(evt,'3')" onmousemove="ShowToolTip(evt,'3',&quot;3dp1113274&quot;)" opacity="0"><path style="fill:#00ff00;fill-rule:evenodd" d="M264.94,150.09L264.84,155.77L245.67,155.79L245.37,155.58L245.21,153.44L237.42,153.44L237.48,153.67L240.33,155.76L241.35,156.87L226.75,164.55L225.99,164.74L224.72,164.20L223.60,164.20L222.84,164.46L211.06,170.60L209.86,171.47L209.84,172.41L211.95,175.19L212.21,175.82L198.25,183.18L197.85,183.16L187.83,174.17L187.83,173.52L233.08,150.35L233.42,150.36L235.99,152.43L237.22,152.44L237.45,152.74L245.21,152.78L245.42,150.17L245.63,149.87L264.69,149.83z"/></g><g id="hotspot.4" onmouseover="ShowHotSpot(evt,'4')" onmouseout="HideHotSpot(evt,'4')" onmousemove="ShowToolTip(evt,'4',&quot;3dp1113275&quot;)" opacity="0"><path style="fill:#00ff00;fill-rule:evenodd" d="M264.44,191.57L264.41,192.18L263.02,192.90L263.10,193.37L265.16,194.96L265.85,194.96L266.96,194.44L267.13,195.00L271.83,195.02L272.04,192.93L272.25,192.63L291.31,192.59L291.57,192.85L291.47,198.53L272.30,198.55L272.00,198.34L271.83,195.69L267.15,195.73L266.92,196.03L265.85,195.92L261.49,198.80L260.84,198.77L259.53,197.49L257.21,195.68L257.13,195.20L264.19,191.33z"/></g><g id="hotspot.5" onmouseover="ShowHotSpot(evt,'5')" onmouseout="HideHotSpot(evt,'5')" onmousemove="ShowToolTip(evt,'5',&quot;3dp1113276&quot;)" opacity="0"><path style="fill:#00ff00;fill-rule:evenodd" d="M256.17,194.15L256.12,194.73L260.09,198.01L260.06,198.32L243.58,207.76L242.89,207.76L240.61,205.92L238.83,204.40L237.50,205.04L236.99,204.69L225.90,204.65L225.76,207.07L225.48,207.56L206.76,207.51L206.45,207.30L206.50,201.89L206.71,201.59L225.24,201.57L225.73,201.84L225.90,203.98L237.00,203.97L237.25,203.08L236.64,202.32L241.02,199.80L241.90,199.40L245.12,197.49L249.21,195.17L250.00,195.23L250.81,194.22L253.82,192.59L254.15,192.60zM253.40,196.73L252.91,196.73L251.82,195.92L251.77,195.67L252.36,195.66zM243.91,201.58L244.46,202.10L244.47,202.70L243.85,203.14L242.62,203.14L241.60,202.61L241.61,201.68L242.29,201.31L243.14,201.32z"/></g><g id="hotspot.6" onmouseover="ShowHotSpot(evt,'6')" onmouseout="HideHotSpot(evt,'6')" onmousemove="ShowToolTip(evt,'6',&quot;3dp1113277&quot;)" opacity="0"><path style="fill:#00ff00;fill-rule:evenodd" d="M175.55,104.55L182.52,110.20L182.48,110.50L138.86,130.18L138.19,130.16L131.00,123.74L130.52,123.50L129.20,124.13L128.68,123.78L118.88,123.74L118.64,126.58L98.71,126.60L98.41,126.39L98.45,120.98L98.66,120.68L118.49,120.65L118.75,120.90L118.88,123.08L128.69,123.06L129.22,122.19L122.54,116.30L122.45,115.83L165.75,97.10L166.08,97.10z"/></g><g id="hotspot.7" onmouseover="ShowHotSpot(evt,'7')" onmouseout="HideHotSpot(evt,'7')" onmousemove="ShowToolTip(evt,'7',&quot;3dp1113278&quot;)" opacity="0"><path style="fill:#00ff00;fill-rule:evenodd" d="M152.79,86.63L153.45,86.66L153.98,86.33L154.49,86.68L161.23,86.72L161.44,84.37L161.65,84.07L180.45,84.03L180.71,84.29L180.68,90.05L161.69,89.99L161.39,89.78L161.23,87.38L154.45,87.40L154.54,87.88L160.72,92.80L160.73,93.08L117.87,111.48L116.93,111.46L115.13,109.67L102.57,98.64L102.57,98.25L145.01,80.70L145.34,80.71z"/></g><g id="hotspot.8" onmouseover="ShowHotSpot(evt,'8')" onmouseout="HideHotSpot(evt,'8')" onmousemove="ShowToolTip(evt,'8',&quot;3dp1113279&quot;)" opacity="0"><path style="fill:#00ff00;fill-rule:evenodd" d="M138.68,75.36L139.70,76.47L97.65,93.56L96.71,93.54L94.90,91.75L90.55,87.88L89.96,87.88L88.92,88.45L88.44,88.50L88.24,87.92L79.19,87.90L79.04,90.56L60.05,90.50L59.74,90.29L59.79,84.88L60.00,84.58L78.80,84.55L79.06,84.80L79.19,87.23L88.23,87.19L88.45,86.89L89.28,86.90L87.99,85.60L83.28,81.56L83.27,81.28L125.41,64.87z"/></g><g id="hotspot.9" onmouseover="ShowHotSpot(evt,'9')" onmouseout="HideHotSpot(evt,'9')" onmousemove="ShowToolTip(evt,'9',&quot;3dp1113280&quot;)" opacity="0"><path style="fill:#00ff00;fill-rule:evenodd" d="M112.33,54.63L112.74,54.65L114.62,53.62L114.79,54.18L119.40,54.11L121.54,53.95L121.75,51.34L121.96,51.04L140.50,51.02L140.99,51.29L141.01,56.52L140.73,57.01L122.01,56.96L121.70,56.75L121.54,54.61L114.79,54.89L114.63,55.44L113.26,55.11L113.32,55.34L120.78,61.26L120.69,61.52L79.73,77.42L78.52,77.40L76.72,75.62L66.21,66.37L66.13,65.91L106.86,50.76L107.44,50.76z"/></g><g id="hotspot.10" onmouseover="ShowHotSpot(evt,'10')" onmouseout="HideHotSpot(evt,'10')" onmousemove="ShowToolTip(evt,'10',&quot;3dp1113264&quot;)" opacity="0"><path style="fill:#00ff00;fill-rule:evenodd" d="M206.83,129.39L206.81,129.70L162.15,151.18L161.74,151.15L144.81,136.01L144.73,135.55L188.79,115.27L189.13,115.27zM230.12,118.60L230.02,124.28L211.62,124.30L211.32,124.09L211.14,121.68L200.57,121.97L200.37,122.56L199.89,122.51L198.52,121.70L200.06,120.89L200.58,121.25L210.84,121.22L211.14,121.02L211.36,118.68L211.57,118.38L229.86,118.34z"/></g><g id="hotspot.11" onmouseover="ShowHotSpot(evt,'11')" onmouseout="HideHotSpot(evt,'11')" onmousemove="ShowToolTip(evt,'11',&quot;3dp1113265&quot;)" opacity="0"><path style="fill:#00ff00;fill-rule:evenodd" d="M102.38,46.68L102.35,47.01L62.32,61.80L61.12,61.78L54.96,56.38L54.37,56.39L53.15,57.05L52.64,56.70L45.14,56.66L44.99,59.32L26.00,59.26L25.69,59.06L25.74,53.65L25.95,53.34L44.75,53.31L45.01,53.57L45.14,56.00L52.65,55.98L52.85,55.39L53.70,55.40L49.57,51.52L49.49,51.06L66.14,45.14L67.00,45.12L71.10,48.73L72.04,48.75L77.49,46.77L76.47,45.66L73.12,43.08L73.12,42.68L89.19,36.94L90.05,36.93z"/></g><g id="hotspot.12" onmouseover="ShowHotSpot(evt,'12')" onmouseout="HideHotSpot(evt,'12')" onmousemove="ShowToolTip(evt,'12',&quot;3dp1113266&quot;)" opacity="0"><path style="fill:#00ff00;fill-rule:evenodd" d="M116.66,31.58L116.59,37.22L97.94,37.25L97.64,37.04L97.47,34.38L87.41,34.42L87.19,34.73L86.71,34.68L86.23,34.40L70.24,40.05L69.59,40.02L69.30,39.75L68.45,39.76L63.12,41.67L63.43,42.38L46.95,48.23L45.75,48.22L44.70,47.43L44.62,46.96L84.96,32.86L85.44,33.37L86.38,33.39L86.90,33.06L87.20,33.11L87.40,33.70L97.47,33.72L97.69,31.63L97.89,31.32L116.17,31.30z"/></g><g id="hotspot.13" onmouseover="ShowHotSpot(evt,'13')" onmouseout="HideHotSpot(evt,'13')" onmousemove="ShowToolTip(evt,'13',&quot;3dp1113267&quot;)" opacity="0"><path style="fill:#00ff00;fill-rule:evenodd" d="M84.40,32.43L44.20,46.53L43.98,45.11L43.72,44.85L43.36,44.86L42.14,45.53L41.63,45.18L33.10,45.14L32.96,47.56L32.68,48.05L13.19,48.00L12.89,47.79L12.94,42.38L13.15,42.08L32.45,42.06L32.94,42.33L33.10,44.47L41.64,44.45L41.84,43.87L42.14,43.82L43.19,44.41L43.70,44.49L43.87,43.35L83.57,29.50L84.15,29.50z"/></g><g id="hotspot.14" onmouseover="ShowHotSpot(evt,'14')" onmouseout="HideHotSpot(evt,'14')" onmousemove="ShowToolTip(evt,'14',&quot;3dp1113268&quot;)" opacity="0"><path style="fill:#00ff00;fill-rule:evenodd" d="M106.20,23.35L106.10,29.03L86.93,29.05L86.63,28.84L86.46,26.45L81.74,26.46L81.85,27.22L83.66,28.75L83.58,29.01L43.87,42.87L43.18,42.88L36.77,37.19L36.77,36.80L53.46,31.07L56.76,33.89L57.70,33.90L63.69,31.82L61.11,29.53L60.58,29.25L60.49,28.78L72.30,24.67L76.14,23.37L76.72,23.36L79.82,25.68L80.74,25.71L81.26,25.39L81.78,25.74L86.46,25.78L86.68,23.43L86.88,23.13L105.94,23.10z"/></g><g id="hotspot.15" onmouseover="ShowHotSpot(evt,'15')" onmouseout="HideHotSpot(evt,'15')" onmousemove="ShowToolTip(evt,'15',&quot;3dp1113269&quot;)" opacity="0"><path style="fill:#00ff00;fill-rule:evenodd" d="M74.46,21.36L74.43,21.65L58.72,27.00L58.05,26.98L56.51,24.37L50.01,26.47L50.06,26.96L51.16,29.03L51.13,29.59L35.44,34.92L34.22,34.91L28.57,24.67L28.49,23.91L68.29,10.87zM25.52,26.20L25.68,28.60L28.57,28.56L29.09,28.21L30.63,29.02L29.27,29.82L28.78,29.87L28.58,29.28L25.68,29.26L25.45,31.85L6.02,31.87L5.72,31.66L5.77,26.25L5.98,25.95L25.02,25.93z"/></g><g id="hotspot.16" onmouseover="ShowHotSpot(evt,'16')" onmouseout="HideHotSpot(evt,'16')" onmousemove="ShowToolTip(evt,'16',&quot;3dp1113270&quot;)" opacity="0"><path style="fill:#00ff00;fill-rule:evenodd" d="M96.47,0.82L96.45,6.58L77.46,6.52L77.15,6.31L76.99,3.92L68.45,3.94L68.28,4.50L66.98,3.88L66.65,3.91L67.25,8.79L67.17,10.33L34.40,21.09L27.49,23.22L27.28,22.91L26.68,16.44L28.52,15.71L66.65,3.41L68.28,2.67L68.45,3.23L76.99,3.25L77.20,0.90L77.41,0.60L96.21,0.57z"/></g><g id="hotspot.17" onmouseover="ShowHotSpot(evt,'17')" onmouseout="HideHotSpot(evt,'17')" onmousemove="ShowToolTip(evt,'17',&quot;3dp1113271&quot;)" opacity="0"><path style="fill:#00ff00;fill-rule:evenodd" d="M65.98,2.36L65.67,2.64L66.00,3.21L27.24,15.72L25.77,15.71L24.74,15.46L24.76,14.00L25.69,13.14L26.57,12.92L27.29,12.98L27.73,12.36L33.12,10.30L34.20,10.42L34.64,9.80L41.42,7.56L41.43,7.28L32.08,7.24L31.85,9.83L12.43,9.85L12.12,9.64L12.17,4.23L12.38,3.93L31.43,3.91L31.92,4.18L32.08,6.58L41.39,6.55L41.65,5.96L43.19,6.77L43.87,6.77L52.33,4.17L53.41,4.27L53.84,3.65L60.11,2.17L60.81,2.21L61.05,1.91L62.05,1.63L64.44,1.62zM62.80,2.38L64.19,2.38L63.89,2.67L62.86,2.63z"/></g></g></svg>
