<?xml version="1.0" encoding="UTF-8" standalone="no"?>
<svg xmlns="http://www.w3.org/2000/svg" xmlns:xlink="http://www.w3.org/1999/xlink" width="297.000mm" height="210.000mm" viewBox="0.000000 0.000000 297.000000 210.000000" stroke-linejoin="round" stroke-linecap="round" fill="none" fill-rule="evenodd"><desc>Composer Export</desc><script type="text/ecmascript"><![CDATA[
if(typeof(top) != "undefined")
{
	top.ShowPaper = ShowPaper;
}
function ShowHotSpot(evt,hotspotid)
{
	var svgDocument = evt.target.ownerDocument;
	var strId = "hotspot."+hotspotid;
	var hotspot = svgDocument.getElementById(strId);
	if(hotspot)
		hotspot.setAttribute("opacity",".5");
}
function HideHotSpot(evt,hotspotid)
{
	var svgDocument = evt.target.ownerDocument;
	var strId = "hotspot."+hotspotid;
	var hotspot = svgDocument.getElementById(strId);
	if(hotspot)
		hotspot.setAttribute("opacity","0");

	var toolTip = svgDocument.getElementById('ToolTip');
	if(toolTip)
		toolTip.setAttribute("visibility","hidden");
}
function ShowToolTip(evt,hotspotid,strTooltip)
{
	if(strTooltip=="")
	return;

	// change text
	var svgDocument = evt.target.ownerDocument;
	var tiptext = svgDocument.getElementById('ToolTipText');
	if( !tiptext )
	return;
	tiptext.firstChild.nodeValue = " " + strTooltip + "  " ;

	// show tooltip before, else some refresh issue

	var toolTip = svgDocument.getElementById('ToolTip');
	if(!toolTip)
	return;

	toolTip.setAttribute("visibility","visible");
	toolTip.setAttribute("opacity",".95");

	// move tooltip
	// get viewbox

	var root = svgDocument.documentElement;
	var vbox = (root.getAttribute("viewBox")).split(' ');
	var x0 = parseFloat(vbox[0]);
	var y0 = parseFloat(vbox[1]);
	var vboxW = parseFloat(vbox[2]);
	var vboxH = parseFloat(vbox[3]);

	// get default width of svg

	var strW = root.getAttribute("width");
	var svgW = parseFloat(strW);
	if(strW.indexOf('mm') != -1)
	svgW *= 3.779;

	var strH = root.getAttribute("height");
	var svgH = parseFloat(strH);
	if(strH.indexOf('mm') != -1)
	svgH *= 3.779;  	// 96 dpi  -> 96/25.4 = 3.779

	// update the viewbox / width / height if svg is embedded in html with zoom fit all
	var realx0 = x0;
	var realy0 = y0;
	var realvboxW = vboxW;
	var realvboxH = vboxH;
	var realsvgW = svgW;
	var realsvgH = svgH;

	if ((typeof(top) == "undefined") || (typeof(top.svgctl1) != "undefined")) // embedded in html
	{
		// get window size in pxl

		svgW = window.innerWidth;
		svgH = window.innerHeight;

		// calculate real viewbox

		realsvgW = svgW;
		realsvgH = svgH;
		if((svgW / svgH) > (vboxW / vboxH))
		{
			realvboxW = (vboxH * svgW) / svgH;
			realvboxH = vboxH;
			realx0 = x0 - (realvboxW - vboxW)/2 ;
		}
		else
		{
			realvboxH = (vboxW * svgH) / svgW;
			realvboxW = vboxW;
			realy0 = y0 - (realvboxH - vboxH)/2 ;
		}
	}

	// get user zoom/pan

	var newScale = root.currentScale;
	var translation = root.currentTranslate;

	// transform pxl to user unit

	var xPos = (((evt.clientX+10- translation.x)/newScale) * realvboxW)/realsvgW  + realx0 ;
	var yPos = (((evt.clientY+5- translation.y)/newScale) * realvboxH)/ realsvgH  + realy0 ;
	var scaleForWidth = ( (1 / newScale) * realvboxH) / realsvgH;

	// move tooltip

	toolTip.setAttribute("transform", "translate(" + xPos + "," + yPos + ")" );

	// resize tooltip

	var fontsize = 12;
	tiptext.setAttribute("font-size",fontsize*scaleForWidth);
	tiptext.setAttribute("y", fontsize*scaleForWidth);
	var tipBG = svgDocument.getElementById('ToolTipBG');
	var outline = tiptext.getBBox();
	if(tipBG)
	{
		tipBG.setAttribute("stroke-width", 1*scaleForWidth);
		tipBG.setAttribute("width", Number(outline.width) );
		tipBG.setAttribute("height", Number(outline.height) + fontsize*.5*scaleForWidth );
	}
	var ToolTipShadow = svgDocument.getElementById('ToolTipShadow');
	if(ToolTipShadow)
	{
		ToolTipShadow.setAttribute("width", Number(outline.width) );
		ToolTipShadow.setAttribute("height", Number(outline.height) + fontsize*.5*scaleForWidth );
		ToolTipShadow.setAttribute("x", 3*scaleForWidth);
		ToolTipShadow.setAttribute("y", 3*scaleForWidth);
	}
}
function ShowPaper()
{
  var svgDocument = getDocument();
  var paper = svgDocument.getElementById("paperID");
  if(paper)
  {
    paper.setAttribute("transform","scale(1)");
    paper.setAttribute("opacity","1");
    paper.setAttribute("visibility","visible");
  }
  var svg = svgDocument.getRootElement();
  if(svg)
  {
    svg.setAttribute("width","307.000mm");
    svg.setAttribute("height","220.000mm");
    svg.setAttribute("viewBox","-5.000000 -5.000000 307.000000 220.000000");
  }
}
]]></script><defs/><g><path style="fill:#ffffff" d="M296.97,209.93L0.07,209.93L0.07,0.07L296.97,0.07z"/><path style="fill:#e5e5e5" d="M177.02,70.86L180.26,74.38L181.25,75.89L181.50,80.24L180.24,81.22L168.94,84.14L169.01,89.12L169.28,95.84L169.78,96.59L170.01,100.85L169.93,103.84L168.95,104.35L165.44,104.84L160.28,104.83L158.52,104.60L157.78,104.32L157.55,106.17L157.31,106.43L157.03,109.15L156.73,109.34L153.70,112.80L151.64,115.27L151.47,115.30L150.95,115.96L150.45,114.56L155.04,109.40L155.24,108.85L155.78,108.65L155.81,106.07L153.26,105.81L153.21,105.57L156.05,105.42L156.04,103.34L155.12,102.76L157.48,102.36L158.46,101.84L158.78,99.38L158.48,99.16L158.30,91.35L156.79,91.12L150.98,91.12L146.24,91.87L143.96,91.85L146.00,90.88L149.23,90.12L152.97,89.62L159.81,89.37L159.55,90.22L158.78,90.72L158.78,91.35L160.32,92.08L160.29,94.70L159.95,95.60L160.29,100.40L159.71,100.61L159.55,102.19L159.18,102.84L160.21,102.84L162.45,102.59L167.52,102.69L167.51,95.60L168.25,95.70L168.53,95.21L168.26,82.64L168.03,78.14L166.94,78.15L164.26,78.71L164.02,84.71L162.71,85.14L162.52,85.95L162.23,86.16L160.27,86.47L160.07,84.60L159.82,84.35L158.29,84.14L151.21,84.12L151.07,88.72L145.99,89.63L144.81,89.64L142.54,88.84L142.49,88.62L143.30,88.43L143.52,88.15L144.49,87.88L148.07,87.72L148.07,76.88L144.74,76.90L143.73,77.14L143.06,77.72L142.22,77.73L142.31,77.25L143.49,76.65L144.49,76.40L149.06,76.40L168.76,77.51L168.77,75.15L146.32,73.91L141.72,73.88L138.47,78.61L138.09,79.74L137.07,79.66L136.50,79.14L140.09,73.73L138.74,73.90L136.57,76.96L136.35,78.49L135.25,78.63L134.02,79.15L134.00,82.98L138.33,83.21L138.86,82.24L141.84,78.14L141.82,81.38L140.45,82.09L140.06,83.19L139.55,83.71L132.95,83.26L132.68,83.01L132.64,82.81L132.82,80.88L132.70,80.77L132.70,80.61L132.84,80.38L132.68,80.26L132.64,80.06L132.92,78.61L133.63,78.26L133.11,77.87L132.73,77.86L132.44,77.87L130.76,77.87L130.90,78.10L130.90,78.32L130.76,78.41L130.70,80.32L130.90,80.86L130.91,81.02L130.79,81.13L130.89,81.50L130.63,82.28L124.87,78.90L124.87,77.73L126.53,76.89L137.00,73.65L138.26,73.41L144.82,73.41L168.01,74.66L176.01,75.00L176.25,70.99L176.77,70.66z"/><path style="fill:#5f5f5f" d="M157.29,43.48L160.28,44.23L164.03,45.97L166.52,47.72L167.88,49.15L169.02,52.45L169.85,69.53L142.08,67.92L139.00,67.92L136.76,68.52L137.01,59.69L137.33,58.01L138.71,55.39L139.10,55.51L139.89,53.64L140.83,51.29L142.89,47.66L143.24,47.42L144.22,46.70L145.49,45.72L148.47,44.22L151.23,43.48L155.05,43.23z"/><path style="fill:#cacaca" d="M173.99,13.51L173.76,14.39L173.18,14.81L173.28,23.94L172.60,25.68L172.00,25.53L171.66,24.95L172.27,24.63L172.76,23.02L172.45,22.99L171.58,23.49L171.43,23.36L171.02,15.03L170.24,14.28L170.16,13.80L170.31,13.66L171.01,14.29L171.59,14.50L172.76,14.63L172.58,14.31L171.59,14.50L171.75,13.55L171.65,13.05L173.34,12.92z"/><path style="fill:#cacaca" d="M136.60,30.75L136.59,32.10L136.34,32.83L134.57,35.82L134.58,36.75L135.11,37.72L136.86,39.72L139.62,42.70L139.91,43.33L139.34,43.24L137.11,40.72L134.36,37.72L133.51,37.73L132.01,38.49L130.00,40.22L128.39,42.34L127.84,43.82L127.85,44.46L136.11,52.72L136.75,52.72L137.74,51.46L137.92,51.36L138.07,51.72L139.89,53.64L139.10,55.51L138.71,55.39L137.34,53.92L136.76,53.93L136.48,54.19L135.60,54.21L134.62,52.94L133.11,51.45L132.64,50.43L127.61,45.23L126.88,44.72L125.52,44.72L123.54,45.97L122.05,46.48L120.86,46.49L120.14,45.98L119.89,45.40L120.65,44.08L123.28,40.72L125.26,38.47L127.53,36.00L129.62,34.10L133.28,31.27L135.71,29.87L136.12,29.99z"/><path style="fill:#cacaca" d="M132.92,78.61L132.64,80.06L132.06,79.91L131.82,79.64L132.09,79.38L131.06,79.49L131.31,79.89L130.93,80.32L130.70,80.32L130.76,78.41L130.90,78.32L131.17,78.81L131.25,78.98L132.13,78.89L131.17,78.81L132.13,78.40L130.90,78.32L130.90,78.10L132.44,77.87L132.73,77.86z"/><path style="fill:#cacaca" d="M131.05,82.13L131.31,82.63L130.93,83.06L130.71,83.07L130.63,82.28L130.89,81.50L131.16,81.53z"/><path style="fill:#cacaca" d="M130.91,83.76L130.90,83.61L132.70,83.50L132.82,83.60L132.68,84.73L132.55,84.88L131.99,86.56L131.60,86.68L130.84,86.12L130.76,85.81L131.34,85.72L132.10,83.86z"/><path style="fill:#f2a157" d="M148.15,105.26L148.25,105.41L149.15,105.43L149.66,105.54L149.57,109.42L142.99,109.33L141.75,109.58L138.90,110.28L138.74,110.17L138.75,106.35L139.13,106.16L139.58,105.93L139.66,105.74L140.40,105.55L142.65,105.19L147.15,105.05z"/><path style="fill:#f2a157" d="M167.90,116.49L161.20,117.06L159.62,117.44L160.19,116.54L161.44,116.05L167.28,116.04z"/><path style="fill:#f2a157" d="M147.08,117.15L144.97,117.31L148.34,117.56L147.48,117.81L146.82,123.37L146.80,125.05L148.18,125.40L146.66,125.65L143.89,125.63L144.32,125.01L141.96,125.20L139.63,118.44L139.63,118.07L138.97,118.23L139.09,111.16L139.67,110.76L140.48,110.31L143.49,109.82L147.08,109.81z"/><path style="fill:#f2a157" d="M159.87,121.67L159.86,121.51L161.19,121.04L162.95,120.80L168.04,120.80L166.93,121.05L166.74,121.34L166.77,122.79L167.27,123.04L167.95,123.61L169.52,123.78L169.52,127.87L161.20,128.03L158.71,128.27L157.86,128.53L157.44,128.36L157.46,124.29L158.69,123.78L159.97,123.55L160.07,122.23L160.28,121.76z"/><path style="fill:#f2a157" d="M160.34,135.64L160.33,135.49L164.19,135.01L168.61,134.97L168.63,135.11L163.43,135.52L163.45,136.26L167.85,136.61L164.87,136.73L161.04,136.26z"/><path style="fill:#f2a157" d="M167.53,146.25L166.50,149.04L164.86,150.34L161.78,150.23L161.02,148.74L161.02,146.55L161.92,144.96L167.35,144.96z"/><path style="fill:#f2a157" d="M162.44,163.43L167.12,163.40L166.94,163.68L165.17,163.95L166.04,164.18L166.53,164.93L166.52,172.77L166.33,173.26L163.99,173.21L163.70,173.00L163.53,170.93L163.30,164.17L162.50,163.66z"/><path style="fill:#f2a157" d="M172.60,183.49L170.75,184.22L170.76,192.71L168.75,193.19L167.86,200.98L163.52,200.86L162.52,200.61L159.78,192.39L158.77,192.14L158.71,183.90L160.70,183.14L168.76,182.90z"/><path style="fill:#555555" d="M168.55,49.69L170.27,52.70L170.76,55.20L171.52,69.51L169.85,69.53L169.02,52.45L167.88,49.15z"/><path style="fill:#e1e1e1" d="M173.34,12.92L171.65,13.05L171.75,13.55L171.59,14.50L171.01,14.29L170.31,13.66L170.74,13.12L171.17,12.79z"/><path style="fill:#e1e1e1" d="M172.76,14.63L171.59,14.50L172.58,14.31z"/><path style="fill:#e1e1e1" d="M118.73,17.76L118.56,18.53L124.39,25.75L126.38,28.00L124.04,29.52L120.78,32.73L119.03,35.01L118.40,35.01L114.91,31.74L109.94,27.02L108.79,27.68L108.39,27.03L108.15,26.03L108.16,24.60L108.39,23.35L109.68,21.14L111.54,19.01L113.65,17.63L115.06,17.04L117.14,17.04z"/><path style="fill:#e1e1e1" d="M172.27,24.63L171.66,24.95L171.58,23.49L172.45,22.99L172.76,23.02z"/><path style="fill:#e1e1e1" d="M173.18,25.54L172.60,25.68L173.28,23.94z"/><path style="fill:#e1e1e1" d="M127.21,31.12L127.98,31.94L128.10,32.50L128.37,32.77L128.92,32.88L133.09,30.09L134.01,29.76L135.71,29.87L133.28,31.27L129.62,34.10L127.53,36.00L125.26,38.47L123.28,40.72L120.65,44.08L119.89,45.40L119.87,44.04L121.55,40.74L123.01,38.91L123.16,38.25L120.37,35.23L120.35,34.58L121.77,32.73L124.36,30.34L125.29,29.73L125.62,29.74z"/><path style="fill:#e1e1e1" d="M137.11,40.72L139.34,43.24L139.91,43.33L140.59,43.21L141.85,44.46L143.37,46.41L138.22,50.68L137.92,51.36L137.74,51.46L136.75,52.72L136.11,52.72L127.85,44.46L127.84,43.82L128.39,42.34L130.00,40.22L132.01,38.49L133.51,37.73L134.36,37.72z"/><path style="fill:#e1e1e1" d="M142.89,47.66L140.83,51.29L139.89,53.64L138.07,51.72L137.92,51.36L142.61,47.47z"/><path style="fill:#e1e1e1" d="M130.90,78.10L130.76,77.87L132.44,77.87z"/><path style="fill:#e1e1e1" d="M131.17,78.81L130.90,78.32L132.13,78.40z"/><path style="fill:#e1e1e1" d="M131.25,78.98L131.17,78.81L132.13,78.89z"/><path style="fill:#e1e1e1" d="M131.82,79.64L132.06,79.91L132.64,80.06L132.68,80.26L132.27,80.40L132.70,80.61L132.70,80.77L130.90,80.86L130.70,80.32L130.93,80.32L131.00,80.47L131.88,80.39L130.93,80.32L131.31,79.89L131.06,79.49L132.09,79.38z"/><path style="fill:#e1e1e1" d="M130.79,81.13L130.91,81.02L132.37,81.14L131.16,81.53L130.89,81.50z"/><path style="fill:#e1e1e1" d="M131.53,81.90L132.07,82.14L131.82,82.38L132.06,82.65L132.64,82.81L132.68,83.01L130.93,83.06L131.31,82.63L131.05,82.13L131.16,81.53L132.12,81.64z"/><path style="fill:#e1e1e1" d="M132.72,83.35L132.70,83.50L130.90,83.61L130.71,83.07L130.93,83.06z"/><path style="fill:#e1e1e1" d="M130.91,83.76L132.10,83.86L131.34,85.72L130.76,85.81z"/><path style="fill:#e1e1e1" d="M132.77,86.13L131.99,86.56L132.55,84.88L132.68,84.73L132.83,84.87z"/><path style="fill:#d9904e" d="M149.15,105.43L148.25,105.41L148.15,105.26L148.41,105.18z"/><path style="fill:#d9904e" d="M150.60,105.72L150.89,106.06L151.05,106.57L151.36,106.75L151.44,108.98L151.68,109.51L151.21,110.31L149.82,111.91L149.22,112.31L148.04,113.88L148.04,115.08L148.33,115.54L149.29,116.32L150.73,116.32L150.95,115.96L151.47,115.30L151.64,115.27L151.55,117.88L150.93,118.26L148.57,125.37L148.18,125.40L146.80,125.05L146.82,123.37L147.48,117.81L148.34,117.56L144.97,117.31L147.08,117.15L147.08,109.81L143.49,109.82L140.48,110.31L139.67,110.76L138.90,110.28L141.75,109.58L142.99,109.33L149.57,109.42L149.66,105.54z"/><path style="fill:#d9904e" d="M168.33,116.77L168.53,117.81L168.37,118.25L167.66,118.30L168.36,118.43L168.53,118.57L168.53,119.87L168.37,120.01L167.41,120.04L168.39,120.16L168.81,120.33L168.46,120.81L168.76,121.27L168.27,121.88L168.25,123.31L169.78,123.52L170.24,123.81L171.01,125.28L171.02,128.62L168.50,128.84L168.45,129.84L168.80,130.32L168.38,130.51L163.94,130.52L161.45,130.77L160.11,131.18L159.94,130.69L162.20,130.28L167.04,130.11L166.52,128.28L161.45,128.28L160.47,128.53L160.30,128.92L158.52,128.79L157.86,128.53L158.71,128.27L161.20,128.03L169.52,127.87L169.52,123.78L167.95,123.61L167.27,123.04L166.77,122.79L166.74,121.34L166.93,121.05L168.04,120.80L162.95,120.80L161.19,121.04L159.86,121.51L159.69,121.37L159.71,120.08L159.86,119.93L162.45,119.55L166.93,119.30L168.04,119.05L162.70,119.05L160.94,119.29L159.84,119.74L159.46,119.30L159.62,119.18L163.70,118.55L166.99,118.32L167.27,118.04L163.94,118.05L161.70,118.31L159.84,118.79L159.43,118.60L159.41,118.34L159.85,118.17L162.20,117.81L166.94,117.56L167.79,117.31L162.45,117.31L160.94,117.55L159.85,118.00L159.46,117.56L159.62,117.44L161.20,117.06L167.90,116.49z"/><path style="fill:#d9904e" d="M139.63,118.44L139.01,118.40L138.97,118.23L139.63,118.07z"/><path style="fill:#d9904e" d="M160.07,122.23L159.67,122.10L159.87,121.67L160.28,121.76z"/><path style="fill:#d9904e" d="M141.96,125.20L144.32,125.01L143.89,125.63L142.55,125.56z"/><path style="fill:#d9904e" d="M169.04,130.98L168.57,131.44L162.70,131.52L160.34,132.00L159.93,131.84L160.10,131.39L168.37,130.63z"/><path style="fill:#d9904e" d="M168.63,132.38L164.94,132.27L161.95,132.52L160.14,132.95L159.94,132.44L162.95,132.02L167.44,131.77L168.62,131.61L169.02,131.77z"/><path style="fill:#d9904e" d="M168.85,132.66L169.02,132.76L168.61,133.23L163.45,133.27L160.35,133.75L159.93,133.58L160.10,133.14L167.27,132.59z"/><path style="fill:#d9904e" d="M169.10,133.68L168.61,134.15L167.76,134.02L162.20,134.27L160.13,134.69L159.94,134.18L168.63,133.36z"/><path style="fill:#d9904e" d="M168.61,134.97L164.19,135.01L160.33,135.49L159.92,135.20L162.45,134.76L168.86,134.39L169.03,134.50z"/><path style="fill:#d9904e" d="M163.43,135.52L168.63,135.11L169.05,135.29L168.41,136.24L167.85,136.61L163.45,136.26z"/><path style="fill:#d9904e" d="M161.04,136.26L164.87,136.73L162.28,136.76L160.53,136.51L160.26,136.24L160.34,135.64z"/><path style="fill:#d9904e" d="M167.81,145.18L168.53,146.47L168.53,148.82L167.76,150.31L164.86,150.34L166.50,149.04L167.53,146.25L167.35,144.96z"/><path style="fill:#d9904e" d="M165.17,163.95L166.94,163.68L167.12,163.40L167.78,163.42L167.27,164.03L167.26,173.00L166.33,173.26L166.52,172.77L166.53,164.93L166.04,164.18z"/><path style="fill:#d9904e" d="M161.51,184.02L160.75,183.89L160.71,183.64L161.30,183.42z"/><path style="fill:#d9904e" d="M173.00,191.71L172.19,192.14L170.25,198.93L169.68,200.60L167.86,200.98L168.75,193.19L170.76,192.71L170.75,184.22L172.60,183.49L172.77,183.62z"/><path style="fill:#cacaca" d="M119.16,18.00L125.39,25.75L127.38,28.00L127.38,29.36L127.00,30.01L127.21,31.12L125.62,29.74L125.29,29.73L124.36,30.34L121.77,32.73L120.35,34.58L120.37,35.23L123.16,38.25L123.01,38.91L120.92,36.49L119.81,37.01L118.39,36.99L111.42,30.49L109.18,28.50L108.79,27.68L109.94,27.02L114.91,31.74L118.40,35.01L119.03,35.01L120.78,32.73L124.04,29.52L126.38,28.00L124.39,25.75L118.56,18.53L118.73,17.76z"/><path style="fill:#cacaca" d="M128.92,32.88L128.37,32.77L128.10,32.50L127.98,31.94z"/><path style="fill:#cacaca" d="M143.24,47.42L142.89,47.66L142.61,47.47L137.92,51.36L138.22,50.68L143.37,46.41z"/><path style="fill:#cacaca" d="M132.70,80.61L132.27,80.40L132.68,80.26L132.84,80.38z"/><path style="fill:#cacaca" d="M131.00,80.47L130.93,80.32L131.88,80.39z"/><path style="fill:#cacaca" d="M130.91,81.02L130.90,80.86L132.70,80.77L132.82,80.88L132.64,82.81L132.06,82.65L131.82,82.38L132.07,82.14L131.53,81.90L132.12,81.64L131.16,81.53L132.37,81.14z"/><path style="fill:#cacaca" d="M132.95,83.26L132.72,83.35L130.93,83.06L132.68,83.01z"/><path style="fill:#f2a157" d="M166.94,117.56L162.20,117.81L159.85,118.17L159.85,118.00L160.94,117.55L162.45,117.31L167.79,117.31z"/><path style="fill:#f2a157" d="M168.36,118.43L167.66,118.30L168.37,118.25z"/><path style="fill:#f2a157" d="M166.99,118.32L163.70,118.55L159.62,119.18L159.84,118.79L161.70,118.31L163.94,118.05L167.27,118.04z"/><path style="fill:#f2a157" d="M166.93,119.30L162.45,119.55L159.86,119.93L159.84,119.74L160.94,119.29L162.70,119.05L168.04,119.05z"/><path style="fill:#f2a157" d="M168.39,120.16L167.41,120.04L168.37,120.01z"/><path style="fill:#f2a157" d="M166.98,120.03L164.02,120.38L160.19,120.56L161.70,120.05L167.03,119.79z"/><path style="fill:#f2a157" d="M167.04,130.11L162.20,130.28L159.94,130.69L160.29,130.12L160.30,128.92L160.47,128.53L161.45,128.28L166.52,128.28z"/><path style="fill:#f2a157" d="M168.37,130.63L160.10,131.39L160.11,131.18L161.45,130.77L163.94,130.52L168.38,130.51z"/><path style="fill:#f2a157" d="M168.63,132.38L168.85,132.66L167.27,132.59L160.10,133.14L160.14,132.95L161.95,132.52L164.94,132.27z"/><path style="fill:#f2a157" d="M168.62,131.61L167.44,131.77L162.95,132.02L159.94,132.44L160.34,132.00L162.70,131.52L168.57,131.44z"/><path style="fill:#f2a157" d="M168.61,134.15L168.86,134.39L162.45,134.76L159.92,135.20L160.13,134.69L162.20,134.27L167.76,134.02z"/><path style="fill:#f2a157" d="M168.63,133.36L159.94,134.18L160.35,133.75L163.45,133.27L168.61,133.23z"/><path style="fill:#e5e5e5" d="M167.27,86.63L167.54,93.94L166.44,93.44L166.44,86.36L166.76,86.33z"/><path style="fill:#e5e5e5" d="M155.06,92.60L155.22,97.11L153.73,97.86L150.22,98.59L149.81,98.93L149.78,102.87L149.99,103.18L151.30,103.06L150.82,103.42L150.60,105.72L149.66,105.54L149.15,105.43L148.41,105.18L148.32,99.34L142.97,99.10L152.06,97.69L153.58,96.47L154.31,95.20L154.52,93.84L154.31,92.60L154.05,92.32L153.96,91.86L154.28,91.82z"/><path style="fill:#e5e5e5" d="M155.12,102.76L153.14,102.76L154.82,102.11z"/><path style="fill:#e5e5e5" d="M153.04,102.90L151.95,102.84L153.14,102.76z"/><path style="fill:#e5e5e5" d="M139.66,105.74L139.76,105.58L140.40,105.55z"/><path style="fill:#e5e5e5" d="M151.58,106.28L151.36,106.75L151.05,106.57L150.89,106.06L151.33,106.06z"/><path style="fill:#e5e5e5" d="M139.58,105.93L139.13,106.16L139.25,105.85L139.66,105.74z"/><path style="fill:#e5e5e5" d="M151.44,108.98L152.14,108.99L151.68,109.51z"/><path style="fill:#e5e5e5" d="M149.40,114.46L148.96,115.08L148.48,115.16L148.47,114.30L149.33,114.31z"/><path style="fill:#ffffff" d="M175.76,75.64L176.76,76.64L177.04,79.45L173.67,79.40L172.42,79.64L171.16,80.16L171.24,80.90L172.25,81.15L176.17,81.15L178.04,80.53L178.26,80.24L178.50,78.37L180.02,79.89L180.03,80.48L178.91,81.15L174.74,82.21L168.94,83.49L168.67,79.88L169.68,78.89L170.76,78.48L171.00,75.47L174.50,75.41z"/><path style="fill:#ffffff" d="M133.61,77.24L131.84,77.14L128.52,77.65L128.11,78.00L128.03,77.16L132.77,75.64L133.60,75.64z"/><path style="fill:#ffffff" d="M160.79,77.90L160.81,83.96L158.29,83.64L150.22,83.73L149.97,77.64L151.97,77.40L157.54,77.40z"/><path style="fill:#ffffff" d="M133.63,78.26L132.92,78.61L132.73,77.86L133.11,77.87z"/><path style="fill:#ffffff" d="M176.49,80.14L175.93,80.66L173.39,80.71L173.40,80.17L173.90,79.87L176.02,79.88z"/><path style="fill:#ffffff" d="M168.05,103.33L168.29,103.69L167.52,104.17L164.19,104.59L162.03,104.58L160.94,104.43L160.96,103.34L161.43,103.07L167.02,103.09z"/><path style="fill:#ffffff" d="M158.26,103.35L156.92,103.40L156.92,103.11L158.54,103.08z"/><g id="Actor_.0"><g style="stroke:#000000;stroke-width:0.018"><path d="M170.09,14.16L170.31,13.52L171.21,13.01L172.42,12.86L173.49,13.10L174.00,13.66"/><path d="M170.31,13.36L171.20,12.86L172.42,12.70L173.48,12.95L173.49,13.10L173.47,13.18L172.42,12.94L171.22,13.09L170.34,13.59L170.12,14.23L171.08,15.07L170.99,14.86L171.00,14.84L171.00,14.88"/><path d="M172.61,19.36L172.36,19.37L172.08,19.42L171.82,19.50L171.61,19.61L171.76,19.51L172.00,19.40L172.27,19.33L172.53,19.31L172.61,19.36L172.83,19.39L173.02,19.44L173.08,19.47L173.08,19.39L173.01,19.29L172.86,19.21L172.88,19.37L172.72,19.33L172.53,19.31L172.51,19.15L172.25,19.18L171.98,19.24L171.74,19.35L171.56,19.49L171.46,19.65L171.45,19.72L171.33,19.86L171.25,19.68L171.27,19.48L171.40,19.30L171.57,19.17L171.79,19.05L172.05,18.97L172.31,18.92L172.56,18.91L172.51,19.15L172.70,19.17L172.86,19.21L172.98,18.98L173.18,19.09L173.26,19.23L173.25,19.30"/><path d="M171.24,18.78L171.23,18.76"/><path d="M171.25,19.24L171.25,19.25"/><path d="M172.84,18.41L172.68,18.37L172.50,18.36L172.23,18.37L171.96,18.44L171.72,18.55L171.57,18.65L171.79,18.54L172.05,18.46L172.32,18.41L172.58,18.41L172.79,18.43L172.99,18.48L172.84,18.40L172.82,18.25L172.95,18.02L172.75,17.97L172.52,17.95L172.28,17.97L172.02,18.01L171.76,18.10L171.53,18.21L171.37,18.34L171.24,18.53L171.26,18.45"/><path d="M171.24,18.53L171.21,18.73L171.30,18.91L171.42,18.77L171.42,18.69L171.53,18.53L171.71,18.39L171.94,18.29L172.21,18.22L172.48,18.20L172.50,18.36L172.58,18.41"/><path d="M171.23,19.21L171.26,19.00L171.38,18.82L171.55,18.69L171.78,18.57L172.04,18.49L172.29,18.44L172.54,18.43L172.50,18.68L172.23,18.70L171.96,18.76L171.73,18.87L171.55,19.01L171.44,19.17L171.43,19.24L171.32,19.38L171.23,19.21"/><path d="M171.26,19.00L171.28,18.93"/><path d="M172.54,17.45L172.46,17.40L172.19,17.42L171.93,17.48L171.69,17.59L171.54,17.69L171.75,17.58L172.01,17.50L172.28,17.46L172.54,17.45L172.76,17.47L172.94,17.52L173.01,17.56L173.00,17.48L172.93,17.37L172.78,17.29L172.80,17.45L172.64,17.41L172.46,17.40L172.44,17.24L172.48,17.00L172.24,17.01L171.98,17.05L171.72,17.14L171.50,17.26L171.33,17.39L171.20,17.57L171.22,17.50"/><path d="M173.19,17.32L173.10,17.18L172.91,17.07L172.78,17.29L172.63,17.25L172.45,17.24L172.17,17.26L171.91,17.33L171.67,17.44L171.49,17.58L171.39,17.74L171.38,17.81L171.26,17.95L171.18,17.78L171.20,17.57"/><path d="M173.21,18.34L173.22,18.27L173.14,18.13L172.96,18.03L172.96,18.00L173.03,18.04L173.02,17.96L172.95,17.85L172.80,17.77L172.93,17.55L172.73,17.50L172.50,17.48L172.26,17.49L172.00,17.53L171.74,17.62L171.51,17.73L171.35,17.87L171.22,18.05L171.24,17.98"/><path d="M171.22,18.05L171.19,18.25L171.28,18.43L171.40,18.29L171.41,18.22L171.51,18.06L171.69,17.92L171.92,17.81L172.19,17.74L172.46,17.72L172.48,17.88L172.66,17.89L172.82,17.93L172.80,17.77L172.64,17.73L172.47,17.72L172.50,17.48"/><path d="M172.46,16.52L172.42,16.76L172.44,16.92L172.63,16.94L172.78,16.98L172.77,16.82L172.61,16.78L172.43,16.76L172.15,16.78L171.89,16.85L171.65,16.96L171.47,17.10L171.37,17.26L171.36,17.33L171.24,17.48L171.16,17.30L171.18,17.10L171.31,16.91L171.48,16.78L171.70,16.66L171.96,16.58L172.22,16.53L172.46,16.52L172.69,16.54L172.89,16.59L172.77,16.82L172.92,16.90L172.98,17.00L172.99,17.08L172.92,17.05L172.92,17.07"/><path d="M171.19,16.55L171.17,16.62L171.29,16.43L171.46,16.30L171.68,16.18L171.94,16.10L172.20,16.05L172.45,16.04L172.68,16.06L172.87,16.11L172.75,16.34L172.90,16.42L172.96,16.52L172.97,16.60L172.90,16.57L172.72,16.52L172.50,16.49L172.42,16.44L172.61,16.46L172.76,16.50L172.75,16.34L172.59,16.30L172.41,16.29L172.42,16.44L172.16,16.46L171.89,16.53L171.65,16.64L171.50,16.73L171.71,16.63L171.97,16.55L172.25,16.50L172.50,16.49"/><path d="M171.18,17.10L171.20,17.02"/><path d="M171.17,16.62L171.14,16.83L171.22,17.00L171.34,16.86L171.35,16.79L171.45,16.63L171.63,16.48L171.87,16.38L172.14,16.31L172.40,16.29L172.45,16.04"/><path d="M171.12,16.35L171.15,16.14L171.28,15.96L171.44,15.82L171.67,15.71L171.93,15.62L172.18,15.58L172.43,15.57L172.38,15.81L172.12,15.83L171.85,15.90L171.62,16.01L171.44,16.15L171.33,16.31L171.33,16.38L171.20,16.53L171.12,16.35"/><path d="M171.13,15.12L171.11,15.19L171.09,15.40L171.17,15.58L171.29,15.43L171.30,15.36L171.40,15.20L171.58,15.06L171.81,14.95L172.08,14.88L172.35,14.86L172.37,15.01L172.55,15.03L172.71,15.07L172.69,14.91L172.84,14.99L172.91,15.10L172.91,15.17L172.85,15.14L172.85,15.17L172.83,15.16L172.71,15.39L172.86,15.47L172.92,15.57L172.93,15.65L172.87,15.62L172.87,15.64L173.04,15.75L173.13,15.89L173.11,15.96"/><path d="M171.13,15.67L171.10,15.88L171.19,16.05L171.31,15.90L171.31,15.84L171.42,15.67L171.60,15.53L171.83,15.42L172.10,15.35L172.37,15.33L172.41,15.09L172.17,15.10L171.91,15.15L171.65,15.23L171.42,15.35L171.26,15.48L171.13,15.67L171.15,15.60"/><path d="M171.17,16.07L171.15,16.14"/><path d="M171.11,15.19L171.24,15.01L171.41,14.87L171.63,14.76L171.89,14.67L172.15,14.62L172.39,14.61L172.35,14.86L172.53,14.87L172.69,14.91L172.82,14.69L173.01,14.80L173.09,14.94"/><path d="M171.42,14.83L171.57,14.73L171.82,14.62L172.08,14.56L172.35,14.54L172.43,14.59L172.17,14.59L171.90,14.64L171.64,14.72L171.42,14.83L171.27,14.95L171.28,14.89L171.38,14.72L171.56,14.58L171.80,14.47L172.06,14.40L172.33,14.38L172.36,14.22L172.05,14.22L171.68,14.28L171.32,14.43L171.08,14.63L171.00,14.84"/><path d="M171.14,15.12L171.27,14.95"/><path d="M170.99,14.86L171.01,14.93L171.08,15.07L171.13,15.11"/><path d="M173.44,25.29L172.50,25.85L172.31,24.71L171.81,24.86L171.51,25.10"/><path d="M172.31,24.71L172.80,23.21L173.00,23.20L172.85,23.17L172.68,23.16L172.66,23.00L172.40,23.02L172.13,23.09L171.89,23.19L171.71,23.33L171.62,23.45L171.59,23.58L171.75,23.45L171.97,23.35L172.23,23.27L172.51,23.22L172.80,23.21"/><path d="M171.37,23.00L171.41,22.82L171.53,22.66L171.70,22.53L171.92,22.42L172.18,22.33L172.44,22.29L172.69,22.28L172.65,22.52L172.67,22.68L172.85,22.69L173.01,22.73L172.99,22.57L172.83,22.53L172.65,22.52L172.38,22.54L172.11,22.60L171.87,22.71L171.69,22.85L171.59,23.01L171.58,23.08L171.49,23.19"/><path d="M172.13,22.76L171.89,22.86L171.73,22.97L171.96,22.86L172.22,22.78L172.48,22.74L172.74,22.73L172.67,22.68L172.40,22.70L172.13,22.76"/><path d="M171.73,22.97L171.58,23.08"/><path d="M171.43,23.30L171.55,23.14L171.72,23.01L171.94,22.90L172.20,22.81L172.46,22.77L172.71,22.76L173.00,22.79L173.06,22.97L173.01,23.05L172.85,23.01L172.67,23.00L172.71,22.76"/><path d="M171.75,23.45L171.90,23.35L172.15,23.24L172.42,23.18L172.68,23.16L172.76,23.21"/><path d="M172.67,21.79L172.63,22.03L172.81,22.05L172.97,22.08L172.99,22.25L172.83,22.21L172.65,22.19L172.63,22.03L172.36,22.06L172.09,22.12L171.85,22.23L171.67,22.37L171.57,22.52L171.56,22.60L171.45,22.74L171.36,22.56L171.38,22.36L171.51,22.18L171.68,22.05L171.91,21.93L172.17,21.85L172.43,21.81L172.67,21.79L172.90,21.81L173.10,21.86L172.97,22.08L173.12,22.16L173.19,22.26L173.20,22.35L173.13,22.32L173.13,22.35L173.31,22.45L173.39,22.58L173.38,22.64"/><path d="M171.35,22.11L171.36,22.12"/><path d="M172.71,21.77L172.92,21.79L173.11,21.84L173.18,21.87L173.17,21.78L173.10,21.68L172.95,21.60L172.97,21.77L172.81,21.73L172.63,21.71L172.71,21.77L172.45,21.78L172.18,21.82L171.92,21.90L171.70,22.01L171.85,21.91L172.09,21.80L172.36,21.73L172.63,21.71L172.61,21.55L172.65,21.31L172.88,21.33L173.09,21.38L173.27,21.48L173.36,21.62L173.34,21.69"/><path d="M171.87,22.38L172.11,22.28L172.38,22.21L172.65,22.19L172.72,22.25L172.46,22.26L172.20,22.30L171.94,22.38L171.71,22.49L171.87,22.38"/><path d="M171.70,22.01L171.55,22.12L171.55,22.04L171.66,21.89L171.84,21.75L172.07,21.64L172.34,21.58L172.61,21.55L172.79,21.57L172.95,21.60L173.08,21.38"/><path d="M171.37,22.59L171.38,22.60"/><path d="M171.54,22.12L171.43,22.26L171.34,22.08L171.37,21.88L171.49,21.70L171.66,21.57L171.89,21.45L172.15,21.37L172.41,21.32L172.65,21.31"/><path d="M171.71,22.49L171.56,22.60"/><path d="M171.40,22.29L171.38,22.36"/><path d="M171.37,21.88L171.39,21.81"/><path d="M171.35,21.40L171.32,21.60L171.41,21.78L171.52,21.64L171.53,21.57L171.64,21.41L171.82,21.27L172.05,21.16L172.32,21.10L172.59,21.07L172.61,21.23L172.79,21.25L172.95,21.29L172.93,21.12L172.78,21.09L172.60,21.07L172.63,20.83L172.39,20.84L172.13,20.89L171.87,20.97L171.64,21.09L171.48,21.22L171.35,21.40L171.37,21.33"/><path d="M172.30,20.61L172.04,20.68L171.80,20.79L171.62,20.93L171.51,21.09L171.51,21.16L171.39,21.30L171.30,21.12L171.33,20.92L171.46,20.74L171.62,20.61L171.85,20.49L172.11,20.41L172.37,20.36L172.61,20.35L172.57,20.59L172.59,20.75L172.78,20.77L172.93,20.81L172.92,20.64L172.76,20.61L172.58,20.59L172.30,20.61"/><path d="M171.51,21.16L171.66,21.05L171.88,20.94L172.14,20.86L172.41,20.81L172.67,20.80L172.59,20.75L172.32,20.77L172.05,20.84L171.82,20.94L171.66,21.05"/><path d="M171.34,21.64L171.34,21.63"/><path d="M172.35,21.25L172.07,21.32L171.83,21.42L171.68,21.52L171.90,21.42L172.16,21.34L172.43,21.29L172.69,21.29L172.61,21.23L172.35,21.25"/><path d="M171.30,20.67L171.31,20.69"/><path d="M173.28,20.25L173.30,20.18L173.21,20.04L173.02,19.94L172.90,20.16L172.74,20.13L172.56,20.11L172.28,20.13L172.02,20.20L171.78,20.31L171.60,20.45L171.50,20.61L171.49,20.68L171.37,20.82L171.28,20.64L171.31,20.44L171.44,20.26L171.61,20.13L171.83,20.01L172.09,19.93L172.35,19.88L172.59,19.87L172.55,20.11L172.57,20.27L172.30,20.29L172.04,20.36L171.80,20.46L171.65,20.56L171.86,20.46L172.12,20.38L172.40,20.33L172.65,20.32L172.87,20.35L173.05,20.40L173.05,20.42L173.23,20.52L173.32,20.66L173.30,20.73"/><path d="M171.49,20.68L171.64,20.57"/><path d="M171.32,21.16L171.32,21.15"/><path d="M171.33,20.92L171.35,20.85"/><path d="M171.68,21.53L171.52,21.64"/><path d="M171.81,19.53L172.07,19.45L172.33,19.40L172.58,19.39L172.81,19.41L173.00,19.46L172.88,19.68L173.03,19.76L173.09,19.86L173.10,19.95L173.03,19.92L172.85,19.87L172.63,19.84L172.38,19.85L172.10,19.90L171.84,19.98L171.63,20.09L171.78,19.99L172.02,19.88L172.29,19.81L172.55,19.79L172.74,19.81L172.89,19.85L172.88,19.68L172.72,19.65L172.54,19.63L172.26,19.66L172.00,19.72L171.76,19.83L171.58,19.97L171.48,20.13L171.47,20.20L171.35,20.34L171.27,20.16L171.29,19.96L171.42,19.78L171.59,19.65L171.81,19.53"/><path d="M171.29,20.21L171.28,20.19"/><path d="M171.26,19.72L171.27,19.73"/><path d="M171.63,20.09L171.47,20.20"/><path d="M171.61,19.61L171.45,19.72"/><path d="M171.31,19.89L171.29,19.96"/><path d="M171.31,20.44L171.33,20.37"/><path d="M172.54,18.43L172.77,18.45L172.97,18.50L172.84,18.73L172.86,18.89L172.70,18.85L172.52,18.83L172.59,18.89L172.35,18.89L172.07,18.94L171.80,19.02L171.59,19.13L171.74,19.03L171.98,18.92L172.25,18.85L172.52,18.83L172.50,18.68L172.68,18.69L172.84,18.73L172.99,18.81L173.06,18.91L173.06,18.99L173.00,18.96L173.00,18.99"/><path d="M171.59,19.13L171.43,19.24"/><path d="M171.30,19.41L171.27,19.48"/><path d="M171.57,18.65L171.42,18.77"/><path d="M171.36,17.33L171.52,17.21L171.73,17.11L171.99,17.02L172.27,16.98L172.52,16.97L172.44,16.92L172.17,16.94L171.91,17.01L171.67,17.11L171.52,17.21"/><path d="M172.56,17.93L172.48,17.88L172.21,17.90L171.94,17.96L171.71,18.07L171.56,18.17L171.77,18.06L172.03,17.98L172.30,17.94L172.56,17.93L172.77,17.95L172.96,18.00"/><path d="M171.55,18.17L171.40,18.29"/><path d="M171.53,17.69L171.38,17.81"/><path d="M171.53,16.24L171.48,16.26L171.63,16.16L171.87,16.05L172.14,15.99L172.40,15.97L172.59,15.98L172.74,16.02L172.73,15.86L172.57,15.82L172.39,15.81L172.40,15.97L172.48,16.02L172.23,16.02L171.95,16.07L171.69,16.15L171.53,16.24"/><path d="M171.50,16.74L171.34,16.86"/><path d="M171.48,16.26L171.33,16.38"/><path d="M171.60,15.21L171.83,15.10L172.10,15.03L172.37,15.01L172.44,15.06L172.19,15.07L171.92,15.12L171.66,15.20L171.44,15.31L171.60,15.21"/><path d="M171.44,15.31L171.29,15.43"/><path d="M172.12,15.51L172.39,15.49L172.57,15.51L172.73,15.55L172.71,15.39L172.55,15.35L172.37,15.33L172.39,15.49L172.46,15.54L172.21,15.55L171.94,15.59L171.68,15.68L171.46,15.78L171.61,15.69L171.85,15.58L172.12,15.51"/><path d="M171.46,15.78L171.31,15.90"/><path d="M172.33,14.38L172.35,14.54"/><path d="M172.50,25.85L173.21,23.99"/><path d="M173.23,23.83L173.23,23.81L173.38,23.71"/><path d="M173.23,22.86L173.10,22.78L172.74,22.73"/><path d="M173.13,22.35L173.12,22.34L172.99,22.57L173.14,22.64L173.21,22.74L173.21,22.85"/><path d="M173.10,22.78L173.01,22.73"/><path d="M173.29,23.78L173.34,23.65"/><path d="M173.06,22.97L173.13,23.10L173.01,23.05L173.02,23.17L173.00,23.20"/><path d="M173.01,22.76L173.00,22.79"/><path d="M173.13,23.10L173.02,23.17"/><path d="M173.23,23.35L173.20,23.16L173.40,23.16"/><path d="M172.72,22.25L172.94,22.27L173.13,22.32"/><path d="M173.10,21.86L173.29,21.96L173.37,22.10L173.36,22.17"/><path d="M173.12,22.34L172.92,22.29L172.69,22.28"/><path d="M173.11,21.84L173.11,21.87"/><path d="M173.12,21.84L172.97,21.77"/><path d="M172.99,22.25L173.14,22.32"/><path d="M173.20,22.35L173.22,22.37"/><path d="M173.18,21.87L173.20,21.89"/><path d="M172.67,20.80L172.89,20.83L173.09,20.88L172.93,20.81"/><path d="M173.09,21.38L173.09,21.36L172.91,21.31L172.69,21.29"/><path d="M173.09,20.88L173.17,20.93"/><path d="M173.05,20.42L173.04,20.42L172.92,20.64L173.07,20.72L173.13,20.82L173.14,20.91"/><path d="M172.63,20.83L172.86,20.85L173.06,20.90L172.93,21.12L173.08,21.20L173.15,21.30L173.16,21.39L173.09,21.36"/><path d="M173.07,20.88L173.07,20.90L173.06,20.90"/><path d="M173.07,20.90L173.25,21.00L173.34,21.14L173.32,21.21"/><path d="M172.95,21.29L173.10,21.36"/><path d="M173.16,21.39L173.19,21.41"/><path d="M172.58,19.39L172.53,19.63L172.55,19.79L172.63,19.84"/><path d="M173.04,19.94L173.03,19.92"/><path d="M173.02,19.94L172.82,19.89L172.59,19.87"/><path d="M172.65,20.32L172.57,20.27L172.76,20.29L172.91,20.33L172.90,20.16L173.05,20.24L173.11,20.34L173.12,20.43L173.05,20.40"/><path d="M172.61,20.35L172.84,20.37L173.04,20.42"/><path d="M173.02,19.44L173.02,19.47L173.19,19.57L173.28,19.70L173.27,19.77"/><path d="M173.07,20.40L172.91,20.33"/><path d="M173.05,19.92L172.89,19.85"/><path d="M173.12,20.43L173.15,20.45"/><path d="M173.10,19.95L173.13,19.97"/><path d="M173.12,19.49L173.08,19.47"/><path d="M172.52,17.95L172.48,18.20L172.66,18.21L172.82,18.25L172.97,18.33L173.04,18.43L173.04,18.51L172.99,18.48"/><path d="M173.23,18.82L173.24,18.75L173.16,18.61L172.97,18.50"/><path d="M173.00,19.46L173.02,19.47"/><path d="M172.98,18.98L172.79,18.93L172.56,18.91"/><path d="M172.98,18.51L172.98,18.48"/><path d="M172.59,18.89L172.81,18.91L173.00,18.96"/><path d="M173.03,19.44L172.88,19.37"/><path d="M173.01,18.96L172.86,18.89"/><path d="M173.04,18.51L173.08,18.54"/><path d="M173.06,18.99L173.10,19.01"/><path d="M172.96,18.03L172.95,18.02"/><path d="M173.19,17.87L173.20,17.79L173.12,17.65L172.93,17.55"/><path d="M172.94,17.52L172.94,17.55"/><path d="M172.82,17.93L172.97,18.01"/><path d="M172.95,17.53L172.80,17.45"/><path d="M173.01,17.56L173.05,17.58"/><path d="M173.17,17.39L173.19,17.32"/><path d="M173.03,18.04L173.06,18.06"/><path d="M172.48,16.02L172.70,16.04L172.88,16.09L172.88,16.12L173.06,16.22L173.15,16.36L173.13,16.44"/><path d="M173.15,16.91L173.17,16.84L173.08,16.70L172.90,16.60L172.90,16.57"/><path d="M172.91,17.07L172.71,17.02L172.48,17.00"/><path d="M172.52,16.97L172.74,16.99L172.92,17.05"/><path d="M172.89,16.59L172.90,16.60"/><path d="M172.93,17.05L172.78,16.98"/><path d="M172.76,16.50L172.92,16.57"/><path d="M172.97,16.60L173.01,16.63"/><path d="M172.99,17.08L173.03,17.10"/><path d="M172.83,15.16L172.64,15.11L172.41,15.09"/><path d="M172.43,15.57L172.66,15.59L172.87,15.64"/><path d="M172.88,16.12L172.87,16.11"/><path d="M172.88,16.09L172.90,16.10L172.74,16.02"/><path d="M172.85,15.64L172.73,15.86L172.88,15.95L172.94,16.05L172.95,16.13L172.90,16.10"/><path d="M172.87,15.62L172.68,15.56L172.46,15.54"/><path d="M172.85,15.17L173.02,15.27L173.11,15.41L173.10,15.49"/><path d="M172.88,15.62L172.73,15.55"/><path d="M173.00,16.15L172.95,16.13"/><path d="M172.98,15.68L172.93,15.65"/><path d="M172.96,15.20L172.91,15.17"/><path d="M172.43,14.59L172.40,14.36L172.40,14.28L172.84,14.40L173.11,14.77L173.09,14.82L173.09,14.91"/><path d="M172.40,14.28L172.41,14.22L172.36,14.22"/><path d="M173.73,14.36L173.97,13.73L173.47,13.18L172.84,14.40L172.82,14.48L172.83,14.69"/><path d="M172.82,14.69L172.62,14.63L172.39,14.61"/><path d="M173.09,14.82L173.09,14.80L172.82,14.48L172.40,14.36"/><path d="M172.44,15.06L172.66,15.09L172.85,15.14"/><path d="M172.86,15.14L172.71,15.07"/><path d="M173.99,13.51L173.48,12.95L173.46,12.90"/></g><g style="stroke:#000000;stroke-width:0.123"><path d="M170.09,14.07L170.09,14.16L170.12,14.23L170.63,14.76L171.13,15.12L171.08,15.28L171.09,15.40L171.17,15.58L171.15,15.60L171.10,15.75L171.10,15.88L171.19,16.05L171.17,16.07L171.12,16.23L171.12,16.35L171.20,16.53L171.19,16.55L171.14,16.70L171.14,16.83L171.22,17.00L171.20,17.02L171.15,17.18L171.16,17.30L171.24,17.48L171.22,17.50L171.17,17.65L171.18,17.78L171.26,17.95L171.24,17.98L171.19,18.13L171.19,18.25L171.28,18.43L171.21,18.61L171.21,18.73L171.30,18.91L171.28,18.93L171.23,19.09L171.23,19.21L171.32,19.38L171.30,19.41L171.25,19.56L171.25,19.68L171.33,19.86L171.31,19.89L171.26,20.04L171.27,20.16L171.35,20.34L171.33,20.37L171.28,20.52L171.28,20.64L171.37,20.82L171.35,20.85L171.30,21.00L171.30,21.12L171.39,21.30L171.37,21.33L171.32,21.48L171.32,21.60L171.41,21.78L171.39,21.81L171.34,21.96L171.34,22.08L171.43,22.26L171.40,22.29L171.35,22.44L171.36,22.56L171.45,22.74L171.40,22.80L171.37,23.00L171.49,23.19L171.42,23.28L171.43,23.30L171.58,23.58L171.46,23.73L171.51,25.10L172.50,25.85L173.13,25.53L173.44,25.29L173.40,24.17L173.21,24.00L173.23,23.83L173.38,23.71L173.38,23.69L173.34,23.65L173.24,23.40L173.23,23.35L173.40,23.16L173.41,23.12L173.28,22.90L173.23,22.86L173.36,22.73L173.39,22.58L173.38,22.50L173.29,22.40L173.22,22.37L173.34,22.25L173.37,22.10L173.36,22.02L173.27,21.92L173.20,21.89L173.32,21.77L173.36,21.62L173.34,21.54L173.25,21.44L173.19,21.41L173.31,21.29L173.34,21.14L173.32,21.06L173.23,20.96L173.17,20.93L173.29,20.81L173.32,20.66L173.30,20.59L173.21,20.48L173.15,20.45L173.27,20.33L173.30,20.18L173.28,20.11L173.19,20.00L173.13,19.97L173.25,19.85L173.28,19.70L173.26,19.63L173.17,19.52L173.12,19.49L173.23,19.38L173.26,19.23L173.24,19.15L173.16,19.04L173.10,19.01L173.21,18.90L173.24,18.75L173.23,18.67L173.14,18.57L173.08,18.54L173.19,18.42L173.22,18.27L173.21,18.19L173.12,18.09L173.06,18.06L173.17,17.95L173.20,17.79L173.19,17.72L173.10,17.61L173.05,17.58L173.15,17.47L173.19,17.32L173.17,17.24L173.08,17.13L173.03,17.10L173.14,16.99L173.17,16.88L173.17,16.84L173.15,16.76L173.06,16.66L173.01,16.63L173.12,16.52L173.15,16.41L173.15,16.36L173.13,16.29L173.04,16.18L173.00,16.15L173.10,16.04L173.13,15.93L173.13,15.89L173.11,15.81L173.02,15.70L172.98,15.68L173.08,15.57L173.11,15.46L173.09,15.34L173.00,15.23L172.96,15.20L173.06,15.10L173.09,14.91L173.73,14.36L174.00,13.66L173.99,13.51L173.96,13.44L173.46,12.90L172.41,12.65L171.21,12.81L170.33,13.30L170.08,14.01L170.09,14.07"/></g></g><g id="Actor_.1"><g style="stroke:#000000;stroke-width:0.018"><path d="M130.66,85.97L130.91,85.83L131.41,85.74L131.76,86.76L132.64,84.59"/><path d="M130.64,83.36L130.72,83.25L130.87,83.16L131.09,83.08L131.35,83.02L131.63,82.98L131.90,82.96L131.88,83.18L131.90,83.36L132.11,83.36L132.30,83.37L132.50,83.40L132.62,83.44L132.64,83.46"/><path d="M130.84,83.64L130.84,83.55L130.91,83.44L131.07,83.34L131.30,83.27L131.58,83.21L131.88,83.18L132.10,83.18L132.29,83.18L132.30,83.37L132.39,83.45L132.43,83.44L132.65,83.48L132.85,83.64"/><path d="M130.92,83.62L131.08,83.52L131.32,83.45L131.60,83.39L131.90,83.36L131.95,83.48L131.65,83.50L131.38,83.53L131.11,83.59L130.89,83.67L130.73,83.76"/><path d="M130.85,84.15L130.85,84.07L130.91,83.99L131.07,83.89L131.31,83.82L131.59,83.76L131.88,83.73L132.10,83.73L132.30,83.73L132.34,83.66L132.24,83.51L131.90,83.51L131.88,83.73L131.90,83.91L132.10,83.91L132.28,83.92L132.00,84.03L131.41,85.74"/><path d="M130.64,83.91L130.73,83.80L130.87,83.71L131.09,83.63L131.35,83.57L131.63,83.53L131.90,83.51"/><path d="M130.74,84.31L130.89,84.22L131.10,84.15L131.37,84.09L131.67,84.05L132.00,84.03"/><path d="M131.95,84.03L131.90,83.91L131.60,83.94L131.32,84.00L131.09,84.07L130.92,84.17L130.84,84.23"/><path d="M130.84,83.68L130.92,83.62"/><path d="M132.82,82.03L132.80,81.98L132.65,81.92L132.40,81.87L132.16,81.86L131.89,81.86L131.87,82.08L131.89,82.26L131.59,82.29L131.31,82.35L131.07,82.42L130.91,82.52L130.83,82.58"/><path d="M130.84,83.09L130.84,83.00L130.91,82.89L131.07,82.79L131.30,82.72L131.58,82.66L131.88,82.63L131.89,82.81L132.11,82.81L132.30,82.82L132.50,82.85L132.61,82.89L132.63,82.91"/><path d="M130.73,83.21L130.88,83.12L131.10,83.04L131.37,82.98L131.65,82.94L131.94,82.93L131.89,82.81L131.60,82.84L131.31,82.90L131.08,82.97L130.91,83.07L130.84,83.13"/><path d="M130.73,82.66L130.88,82.57L131.09,82.50L131.36,82.43L131.65,82.39L131.94,82.38L131.89,82.26L132.10,82.26L132.30,82.27L132.44,82.39L132.63,82.43L132.77,82.47"/><path d="M132.63,82.36L132.61,82.34L132.49,82.30L132.30,82.27L132.28,82.09L132.09,82.08L131.87,82.08L131.58,82.11L131.30,82.17L131.06,82.25L130.90,82.34L130.83,82.45L130.83,82.54"/><path d="M130.63,82.82L130.72,82.70L130.87,82.61L131.08,82.53L131.35,82.47L131.62,82.43L131.90,82.41L132.16,82.41L132.40,82.42L132.29,82.63L132.09,82.63L131.88,82.63L131.90,82.41"/><path d="M130.81,82.52L130.81,82.52"/><path d="M130.63,82.27L130.72,82.15L130.86,82.06L131.08,81.98L131.34,81.92L131.62,81.88L131.89,81.86"/><path d="M130.66,82.95L130.63,82.83"/><path d="M130.63,82.28L130.66,82.40"/><path d="M132.62,81.26L132.60,81.25L132.49,81.20L132.29,81.17L132.10,81.16L131.88,81.16L131.87,80.98L131.57,81.01L131.29,81.07L131.06,81.15L130.90,81.25L130.83,81.35L130.83,81.45"/><path d="M130.72,81.56L130.88,81.47L131.09,81.40L131.35,81.33L131.65,81.29L131.93,81.28L131.88,81.16L131.58,81.19L131.30,81.25L131.07,81.33L130.90,81.42L130.83,81.48"/><path d="M130.83,82.03L130.91,81.97L131.07,81.87L131.31,81.80L131.59,81.74L131.89,81.71L132.10,81.71L132.29,81.72L132.49,81.75L132.60,81.80L132.62,81.81"/><path d="M130.83,81.99L130.83,81.90L130.90,81.79L131.06,81.70L131.29,81.62L131.57,81.56L131.87,81.53L131.89,81.71L131.93,81.83L131.65,81.84L131.36,81.88L131.09,81.95L130.88,82.02L130.72,82.11"/><path d="M130.81,81.98L130.81,81.98"/><path d="M130.62,81.72L130.71,81.60L130.86,81.51L131.08,81.43L131.34,81.37L131.62,81.33L131.89,81.31L131.87,81.53L132.28,81.54L132.29,81.72L132.43,81.84L132.63,81.88L132.77,81.93"/><path d="M130.80,81.43L130.81,81.43"/><path d="M130.63,81.73L130.65,81.85"/><path d="M130.62,81.19L130.65,81.31"/><path d="M132.81,80.39L132.79,80.34L132.64,80.27L132.39,80.23L132.27,80.44L132.28,80.62L132.09,80.61L131.88,80.62L131.58,80.64L131.30,80.70L131.06,80.78L130.90,80.87L130.82,80.93"/><path d="M132.61,80.03L132.59,79.97L132.47,79.93L132.27,79.89L132.07,79.88L131.87,79.89L131.56,79.92L131.28,79.97L131.05,80.05L130.89,80.15L130.82,80.26L130.82,80.36"/><path d="M130.71,80.47L130.87,80.37L131.08,80.30L131.35,80.24L131.64,80.20L131.92,80.18L132.18,80.18L132.40,80.20L132.61,80.23L132.76,80.28"/><path d="M130.61,80.08L130.70,79.96L130.85,79.87L131.06,79.79L131.33,79.72L131.61,79.68L131.88,79.66L132.14,79.66L132.38,79.68L132.27,79.89L132.28,80.08L132.09,80.06L131.87,80.07L131.58,80.10L131.30,80.15L131.06,80.23L130.90,80.33L130.82,80.38"/><path d="M130.80,80.88L130.81,80.89"/><path d="M130.62,80.63L130.71,80.51L130.85,80.42L131.07,80.33L131.33,80.27L131.61,80.23L131.88,80.21L131.86,80.43L131.88,80.62L131.93,80.73L132.18,80.73L132.42,80.75L132.28,80.62L132.48,80.66L132.60,80.70L132.62,80.72"/><path d="M130.82,80.90L130.82,80.81L130.89,80.70L131.05,80.60L131.28,80.52L131.56,80.46L131.86,80.44L132.08,80.43L132.27,80.44L132.47,80.47L132.59,80.52L132.62,80.57"/><path d="M131.93,80.73L131.64,80.74L131.35,80.79L131.08,80.85L130.87,80.92L130.72,81.01"/><path d="M130.62,81.17L130.71,81.05L130.86,80.96L131.07,80.88L131.34,80.82L131.61,80.78L131.88,80.76L131.87,80.98L132.08,80.98L132.28,80.99L132.29,81.17L132.43,81.30L132.18,81.28L131.93,81.28"/><path d="M130.65,80.76L130.62,80.64"/><path d="M130.64,80.21L130.62,80.09"/><path d="M132.60,79.08L132.58,79.06L132.47,79.02L132.27,78.98L132.26,78.80L132.07,78.79L131.85,78.79L131.87,78.97L131.57,79.00L131.29,79.06L131.05,79.14L130.89,79.23L130.81,79.29"/><path d="M130.61,79.53L130.70,79.41L130.84,79.32L131.06,79.24L131.33,79.18L131.60,79.14L131.87,79.12L131.85,79.34L131.87,79.52L132.09,79.52L132.28,79.53L132.26,79.35L132.07,79.34L131.85,79.34L131.56,79.37L131.28,79.43L131.05,79.51L130.89,79.60L130.82,79.71L130.82,79.81"/><path d="M130.81,79.27L130.81,79.17L130.88,79.06L131.04,78.96L131.27,78.88L131.55,78.82L131.85,78.79L131.87,78.57L131.60,78.59L131.32,78.63L131.06,78.69L130.84,78.77L130.70,78.87L130.61,78.99"/><path d="M130.82,79.84L130.89,79.78L131.06,79.68L131.29,79.60L131.57,79.55L131.87,79.52L131.92,79.63L132.17,79.63L132.42,79.65L132.61,79.69L132.75,79.74"/><path d="M130.71,79.92L130.87,79.83L131.08,79.75L131.34,79.69L131.64,79.65L131.92,79.63"/><path d="M130.71,79.37L130.86,79.28L131.07,79.20L131.34,79.14L131.63,79.10L131.92,79.08L131.87,78.97L132.08,78.97L132.27,78.98L132.41,79.10L132.61,79.14L132.75,79.19"/><path d="M130.64,79.67L130.61,79.55"/><path d="M130.61,79.00L130.64,79.12"/><path d="M132.25,77.75L132.26,77.89L132.07,77.88L131.86,77.88L131.56,77.91L131.28,77.96L131.05,78.04L130.88,78.14L130.81,78.20"/><path d="M132.79,78.21L132.78,78.16L132.63,78.09L132.39,78.04L132.39,78.01L132.16,77.99L131.91,77.99L131.62,78.01L131.33,78.05L131.07,78.11L130.86,78.19L130.70,78.28"/><path d="M132.60,78.53L132.58,78.52L132.47,78.47L132.27,78.44L132.08,78.42L131.86,78.43L131.57,78.45L131.29,78.51L131.05,78.59L130.89,78.69L130.81,78.75"/><path d="M130.70,78.83L130.86,78.73L131.07,78.66L131.33,78.59L131.63,78.55L131.91,78.54L131.86,78.43L131.85,78.25L131.55,78.28L131.27,78.33L131.04,78.41L130.88,78.51L130.81,78.62L130.81,78.73"/><path d="M131.63,77.72L131.55,77.73L131.27,77.79L131.04,77.87L130.88,77.97L130.81,78.08L130.81,78.18"/><path d="M130.60,78.44L130.69,78.32L130.84,78.23L131.05,78.15L131.32,78.08L131.60,78.04L131.87,78.02L132.13,78.02L132.37,78.04L132.26,78.25L132.27,78.44L132.41,78.56L132.60,78.59L132.74,78.65"/><path d="M130.61,78.46L130.63,78.58"/><path d="M130.60,77.91L130.63,78.04"/><path d="M130.60,77.90L130.66,77.82"/><path d="M131.95,83.48L132.26,83.48L132.39,83.45"/><path d="M131.90,82.96L132.17,82.96L132.42,82.97L132.66,83.01L132.81,83.08L132.83,83.12"/><path d="M131.94,82.93L132.20,82.93L132.44,82.94L132.64,82.98L132.77,83.02"/><path d="M132.44,82.39L132.19,82.38L131.94,82.38"/><path d="M131.93,81.83L132.19,81.83L132.43,81.84"/><path d="M131.89,81.31L132.16,81.31L132.39,81.32L132.28,81.54L132.48,81.57L132.60,81.61L132.62,81.66"/><path d="M131.88,80.21L132.15,80.21L132.39,80.23"/><path d="M131.88,80.76L132.15,80.76L132.39,80.78L132.28,80.99L132.48,81.02L132.60,81.07L132.62,81.12"/><path d="M131.92,80.18L131.87,80.07L131.86,79.89L131.88,79.66"/><path d="M131.87,79.12L132.14,79.12L132.38,79.13L132.63,79.18L132.78,79.25L132.80,79.30"/><path d="M131.92,79.08L132.17,79.08L132.41,79.10"/><path d="M131.91,77.99L131.86,77.88L131.85,77.73"/><path d="M131.91,78.54L132.17,78.54L132.41,78.56"/><path d="M131.87,78.02L131.85,78.24L132.06,78.24L132.26,78.25L132.46,78.29L132.58,78.34L132.60,78.39"/><path d="M131.87,78.57L132.14,78.57L132.37,78.59L132.26,78.80L132.46,78.83L132.58,78.88L132.60,78.94"/><path d="M132.64,84.01L132.63,84.00L132.61,83.88L132.56,83.78L132.85,83.67"/><path d="M132.56,83.78L132.64,83.84"/><path d="M132.80,84.19L132.74,84.34"/><path d="M132.34,83.66L132.45,83.75L132.30,83.73L132.31,83.88L132.28,83.92"/><path d="M132.24,83.51L132.26,83.48"/><path d="M132.45,83.75L132.31,83.88"/><path d="M132.44,82.94L132.30,82.82L132.29,82.63L132.49,82.66L132.61,82.71L132.63,82.76"/><path d="M132.41,82.97L132.29,83.18L132.49,83.21L132.61,83.26L132.64,83.31"/><path d="M132.40,82.42L132.66,82.47L132.81,82.53L132.83,82.57"/><path d="M132.42,82.97L132.42,82.94"/><path d="M132.42,82.42L132.42,82.39"/><path d="M132.40,81.87L132.28,82.09L132.48,82.12L132.60,82.16L132.63,82.21"/><path d="M132.42,81.87L132.42,81.84"/><path d="M132.41,81.29L132.41,81.33L132.39,81.32"/><path d="M132.43,81.30L132.63,81.33L132.76,81.38"/><path d="M132.41,81.33L132.65,81.37L132.80,81.43L132.82,81.48"/><path d="M132.40,80.23L132.40,80.20"/><path d="M132.42,80.20L132.28,80.08L132.48,80.11L132.59,80.16L132.61,80.17"/><path d="M132.42,80.75L132.62,80.78L132.76,80.83"/><path d="M132.39,80.78L132.65,80.82L132.80,80.89L132.81,80.93"/><path d="M132.41,80.78L132.41,80.75"/><path d="M132.42,79.65L132.28,79.53L132.47,79.56L132.59,79.61L132.61,79.63"/><path d="M132.61,79.48L132.58,79.43L132.46,79.38L132.26,79.35L132.38,79.13"/><path d="M132.38,79.68L132.40,79.68L132.40,79.65"/><path d="M132.40,79.13L132.40,79.10"/><path d="M132.40,79.68L132.64,79.73L132.79,79.79L132.80,79.84"/><path d="M132.74,78.10L132.60,78.05L132.40,78.01L132.26,77.89L132.46,77.92L132.58,77.97L132.60,77.99"/><path d="M132.40,78.01L132.39,78.01"/><path d="M132.39,78.04L132.37,78.04"/><path d="M132.80,78.75L132.78,78.70L132.63,78.63L132.37,78.59"/><path d="M132.39,78.56L132.39,78.59"/><path d="M132.50,77.76L132.57,77.79L132.60,77.85"/></g><g style="stroke:#000000;stroke-width:0.123"><path d="M132.68,77.78L132.60,77.85L132.60,77.99L132.74,78.10L132.80,78.16L132.79,78.21L132.80,78.23L132.60,78.39L132.60,78.53L132.81,78.70L132.80,78.75L132.81,78.78L132.60,78.94L132.60,79.08L132.81,79.25L132.80,79.30L132.81,79.32L132.61,79.48L132.61,79.63L132.82,79.80L132.80,79.84L132.81,79.87L132.61,80.03L132.61,80.17L132.82,80.34L132.81,80.39L132.82,80.41L132.62,80.57L132.62,80.72L132.82,80.89L132.81,80.93L132.82,80.96L132.62,81.12L132.62,81.26L132.83,81.43L132.82,81.48L132.83,81.51L132.62,81.66L132.62,81.81L132.83,81.98L132.82,82.03L132.83,82.05L132.63,82.21L132.63,82.36L132.84,82.53L132.83,82.57L132.83,82.60L132.63,82.76L132.63,82.91L132.84,83.08L132.83,83.12L132.84,83.15L132.64,83.31L132.64,83.46L132.85,83.64L132.85,83.67L132.64,83.84L132.64,84.01L132.80,84.19L132.84,84.23L132.84,84.26L132.65,84.40L132.64,84.60L132.84,84.77L132.85,86.06L131.76,86.76L130.66,85.97L130.65,84.41L130.74,84.31L130.84,84.23L130.85,84.15L130.64,83.91L130.64,83.88L130.73,83.76L130.84,83.68L130.84,83.64L130.65,83.48L130.64,83.33L130.73,83.21L130.84,83.13L130.84,83.09L130.66,82.95L130.63,82.86L130.64,82.76L130.73,82.66L130.83,82.58L130.83,82.54L130.66,82.40L130.63,82.31L130.64,82.21L130.72,82.11L130.83,82.03L130.83,81.99L130.65,81.85L130.62,81.76L130.64,81.66L130.72,81.56L130.83,81.48L130.83,81.45L130.65,81.31L130.62,81.21L130.63,81.11L130.72,81.01L130.82,80.93L130.82,80.90L130.65,80.76L130.62,80.67L130.63,80.57L130.71,80.47L130.82,80.38L130.82,80.36L130.64,80.21L130.61,80.12L130.63,80.02L130.71,79.92L130.82,79.84L130.82,79.81L130.64,79.67L130.61,79.58L130.62,79.47L130.71,79.37L130.81,79.29L130.81,79.27L130.64,79.12L130.61,79.03L130.62,78.93L130.70,78.83L130.81,78.75L130.81,78.73L130.63,78.58L130.60,78.49L130.62,78.38L130.70,78.28L130.81,78.20L130.81,78.18L130.63,78.04L130.60,77.94L130.61,77.84L130.63,77.82"/></g></g><g id="Actor_.2"><g style="stroke:#000000;stroke-width:0.018"><path d="M124.64,78.04L125.25,77.46L126.45,76.95L126.44,72.97L125.80,73.21L124.87,73.79L124.57,74.42"/><path d="M126.63,79.06L126.11,78.60L126.09,78.11L126.60,77.64L126.63,79.02L130.83,81.46"/><path d="M126.63,77.63L127.59,77.23L139.05,73.80L140.16,73.66L136.52,79.19L136.60,79.50L137.23,79.75L138.22,79.88L138.25,79.29L138.29,82.95L142.46,77.16L142.99,76.79L143.98,76.50L145.25,76.34L146.65,76.32L146.61,73.96L142.40,73.74L142.46,77.16"/><path d="M126.45,76.95L137.25,73.63L138.49,73.36L139.96,73.24L141.09,73.25L140.97,68.31L140.83,67.89L140.71,67.89L139.15,67.93L137.87,68.20L137.36,68.68L137.20,69.49L126.44,72.97L126.61,72.19L127.07,71.72"/><path d="M127.92,77.14L127.92,78.09L128.05,78.57L128.89,78.99L130.27,79.27L130.81,79.29"/><path d="M127.92,78.09L128.55,77.64L129.82,77.31L131.48,77.17L133.18,77.25L134.57,77.54L135.38,77.97L135.46,78.45L134.80,78.90L134.35,79.01L134.39,83.06L133.69,82.98L132.83,82.60"/><path d="M130.78,78.77L129.94,78.52L129.75,78.18L130.31,77.87L131.41,77.71L132.62,77.77L133.48,78.02L133.65,78.37L133.08,78.67L132.81,78.71"/><path d="M133.22,82.83L133.19,79.24L132.81,79.27"/><path d="M133.19,79.24L134.35,79.01"/><path d="M134.39,83.06L138.27,83.23L138.29,82.95"/><path d="M135.46,78.45L135.46,78.32L136.51,78.36L136.51,78.55L135.39,78.50"/><path d="M135.42,74.89L135.46,78.32"/><path d="M136.52,79.19L136.51,78.55"/><path d="M138.52,73.96L136.50,77.12L136.51,78.36"/><path d="M137.25,73.63L137.20,69.49L138.90,69.15L140.88,69.09L174.63,71.02L174.79,75.05L141.09,73.25"/><path d="M136.72,68.56L137.82,68.21"/><path d="M136.84,60.73L140.65,53.55L140.48,67.89"/><path d="M137.63,59.23L137.75,57.92L138.03,56.74L138.65,55.35"/><path d="M138.76,83.58L138.30,83.23"/><path d="M138.26,80.10L138.25,79.88"/><path d="M138.25,79.29L138.24,78.94L141.80,73.71L140.16,73.66"/><path d="M137.75,57.92L139.87,53.88L139.95,53.54"/><path d="M157.10,108.94L156.34,108.74L155.02,108.64L153.48,108.68L152.17,108.83L151.43,109.07L151.38,106.52L151.30,106.69L150.78,106.21L150.73,105.62L149.30,105.25L147.48,105.06L145.35,104.99L143.19,105.07L141.27,105.28L139.83,105.59L139.05,105.95L139.01,106.28"/><path d="M139.05,105.95L139.03,103.23"/><path d="M146.38,102.25L146.34,99.16L144.89,99.15L142.63,99.29L141.13,99.08L140.62,98.69L139.65,98.95L139.15,99.30L139.18,103.15L139.74,102.86L141.04,102.55L142.79,102.33L144.80,102.23L146.84,102.25L148.67,102.40L149.66,102.58L149.67,103.06L149.77,103.12L149.84,102.84L150.22,102.60L150.81,102.42L152.30,102.18L152.31,102.79L150.84,103.03L149.95,103.35L149.80,103.70L149.78,103.13"/><path d="M139.18,103.15L139.08,103.20"/><path d="M140.59,98.67L140.10,98.29L139.93,97.91L139.80,98.14"/><path d="M139.79,97.61L139.93,97.91"/><path d="M139.75,94.83L140.04,94.07L141.04,92.96L142.30,92.42L144.21,92.09L144.80,92.14L152.35,90.93L153.46,91.49L154.21,92.53L154.50,93.89L154.29,95.26L153.64,96.49L152.66,97.40L151.49,97.84L152.49,98.19L151.08,98.40L150.26,98.63L149.69,98.93L149.76,102.76L150.38,102.47L151.46,102.23L152.84,102.07L152.30,102.18"/><path d="M140.24,93.85L140.14,83.17L139.60,83.27L139.61,83.80"/><path d="M140.14,83.17L140.14,82.48L140.30,82.17L140.74,81.87L141.77,81.52L141.89,86.55L142.01,87.35L142.09,87.34L142.11,88.71L145.35,89.87L147.79,89.21L151.15,88.74L148.23,87.64L147.14,87.83L145.76,87.76L144.39,87.88L143.46,88.16L143.25,88.51L142.11,88.71"/><path d="M140.83,67.89L146.02,68.20L146.13,52.23L144.32,52.20L142.63,52.44L141.35,52.92L140.65,53.55L141.12,50.74L142.43,48.29"/><path d="M141.13,99.08L141.79,99.27L142.63,99.29"/><path d="M141.89,86.55L142.07,86.35L142.09,87.34"/><path d="M141.77,81.52L141.75,80.83L141.99,80.34L141.95,77.97L143.09,77.74L143.25,88.51"/><path d="M141.99,80.34L142.07,86.35"/><path d="M141.80,73.71L142.40,73.74"/><path d="M140.97,50.88L140.93,50.92"/><path d="M142.41,99.22L151.49,97.84"/><path d="M143.76,92.17L143.63,91.46L143.86,91.04L143.93,91.41L144.16,91.76L144.50,91.98L144.86,92.07L144.80,92.14"/><path d="M143.63,91.46L143.63,89.25"/><path d="M143.86,91.04L144.26,90.71L144.89,90.37L146.15,89.92L147.87,89.51L149.98,89.18L152.34,88.97L154.74,88.89L157.00,88.94L159.84,89.19L159.75,89.74L159.49,90.21L158.73,90.67L158.50,90.93L158.50,91.35L158.81,91.40L159.02,99.41L157.32,99.28L156.09,99.38L155.33,99.55L155.27,97.04L154.93,97.31L153.64,97.92L152.49,98.19"/><path d="M143.09,77.74L143.20,77.40L143.83,77.10L144.85,76.91L146.04,76.88L146.94,76.96L147.14,87.83"/><path d="M144.86,92.07L145.75,91.50L147.26,90.98L149.30,90.57L151.72,90.28L154.31,90.16L156.88,90.21L159.22,90.42"/><path d="M145.04,45.96L145.97,46.15L147.10,46.93L148.26,48.20L150.95,46.82L153.93,46.12L157.05,46.12L160.14,46.81L163.06,48.15L165.65,50.08L166.61,49.07L167.37,48.42"/><path d="M146.02,68.20L171.54,69.68"/><path d="M146.13,52.23L146.39,50.66L147.12,49.27L148.26,48.20"/><path d="M146.34,99.16L148.61,99.34L149.59,99.53L149.66,102.58"/><path d="M146.94,76.96L148.02,76.74L148.23,87.64"/><path d="M146.65,76.32L167.79,77.40L168.98,77.54L169.82,77.80L170.18,78.15L170.03,78.54L168.63,79.80L168.58,78.25L168.05,77.98L164.02,78.73L164.20,84.79L162.21,84.19L159.60,83.77L156.56,83.55L153.30,83.55L150.09,83.77L149.96,77.60L148.02,76.74"/><path d="M146.61,73.96L167.71,75.08L167.79,77.40"/><path d="M148.44,115.10L148.79,115.56L149.27,115.89L149.76,116.02L150.13,115.91L150.28,115.56L150.16,115.11L149.81,114.65L149.32,114.31L148.83,114.19L148.50,114.29L148.32,114.65L148.44,115.10"/><path d="M150.58,116.35L150.82,115.71L150.47,114.83L149.67,114.06L148.77,113.71L148.01,113.86"/><path d="M151.45,115.34L151.75,114.91L151.79,114.56L151.70,114.18L151.21,113.41L150.43,112.80L149.61,112.56L149.26,112.59L148.81,112.95"/><path d="M151.64,115.30L151.89,114.61L151.52,113.68L150.67,112.86L149.67,112.47L148.91,112.66"/><path d="M152.06,114.64L152.19,114.26L151.83,113.33L150.98,112.51L149.99,112.12L149.41,112.26"/><path d="M149.59,99.53L149.58,99.07L149.69,98.93"/><path d="M170.14,103.57L169.67,103.17L168.45,102.84L166.64,102.63L164.44,102.56L162.15,102.64L160.06,102.86L158.93,103.10L159.18,102.92L159.39,102.60L159.53,102.07L159.12,101.85L157.84,101.71L156.28,101.78L155.34,101.95L155.01,102.10L154.96,102.20L155.16,102.80L153.43,102.83L152.11,102.97L151.27,103.16L150.78,103.38L150.69,103.49L150.70,104.06L150.38,104.01L149.80,103.70"/><path d="M149.67,103.06L149.76,102.76"/><path d="M150.09,83.77L151.05,84.16L151.15,88.74"/><path d="M149.96,77.60L153.92,77.35L157.27,77.41L158.65,77.53L161.17,77.89L162.75,78.27L164.02,78.73"/><path d="M151.30,106.69L151.35,107.54"/><path d="M150.78,103.38L150.83,105.96L151.38,106.52L151.97,106.30L152.59,106.19L154.95,106.07L156.09,106.14L156.82,106.29L157.09,106.42L157.13,106.55"/><path d="M150.91,106.33L150.90,106.34"/><path d="M150.73,105.62L150.70,104.06"/><path d="M150.74,106.08L151.04,105.85L152.06,105.60L154.24,105.42L156.55,105.53L157.41,105.72L157.64,105.87L157.66,106.00"/><path d="M151.05,84.16L153.46,84.01L155.89,84.01L158.20,84.14L160.26,84.42L161.59,84.70L162.67,85.05L162.70,86.12L161.19,86.26L159.78,86.55L159.84,89.19"/><path d="M151.66,43.45L151.80,43.44"/><path d="M156.63,109.33L156.67,109.18L155.98,108.96L155.00,108.85L153.53,108.81L152.71,108.88L152.28,109.00L151.90,109.43"/><path d="M152.31,102.79L154.33,102.28L154.94,101.96L154.94,102.24"/><path d="M152.84,102.07L152.87,101.84L154.00,101.54L154.79,101.20L154.82,101.38L154.83,100.30L155.71,100.03L157.16,99.88L156.33,99.93"/><path d="M154.50,93.89L155.20,94.15L155.16,92.84L154.39,91.94L153.04,91.16L152.38,90.93"/><path d="M152.76,91.08L154.43,91.02L156.09,91.08L157.40,91.23L156.70,91.23L155.63,91.40L155.14,91.67L155.16,92.84"/><path d="M154.94,101.96L154.99,101.17L155.09,102.48L155.33,102.84L155.68,103.08L156.06,103.17L156.04,103.27L156.30,103.07L156.06,103.17"/><path d="M154.85,101.17L155.48,100.94L156.58,100.78L157.85,100.75L158.95,100.85L159.58,101.05L159.51,101.32"/><path d="M154.99,101.17L155.88,100.89L156.76,100.80L157.82,100.78L159.10,100.92L159.50,101.15L159.53,102.07"/><path d="M154.82,101.38L154.94,101.43"/><path d="M154.81,101.19L154.83,100.30"/><path d="M155.33,99.55L154.85,99.84L154.86,100.29"/><path d="M156.04,103.27L156.83,103.43L156.10,103.31"/><path d="M156.91,103.00L157.47,102.96L156.47,103.04L156.91,103.00L156.92,103.44L155.83,103.30L155.32,103.02L155.16,102.81"/><path d="M155.27,97.04L155.20,94.15"/><path d="M158.21,103.32L158.45,103.23L158.48,103.13L158.04,103.36L156.83,103.43"/><path d="M156.47,103.04L156.30,103.07"/><path d="M157.46,103.42L157.17,103.43L157.54,103.42L157.46,103.42L157.46,103.61L157.26,104.03L157.62,104.27"/><path d="M157.26,104.03L157.25,103.43"/><path d="M158.17,103.05L158.42,103.09L157.70,102.97L158.17,103.05L158.18,103.35"/><path d="M157.54,103.42L158.04,103.36"/><path d="M157.47,102.96L157.70,102.97"/><path d="M157.46,103.61L158.03,103.37L157.58,103.41"/><path d="M158.03,103.37L158.82,103.17L158.45,103.23"/><path d="M157.17,99.89L158.59,99.93L159.34,100.08L159.56,100.19L159.61,100.50L160.37,100.37L159.49,100.08L158.64,99.91L157.17,99.89"/><path d="M157.40,91.23L158.50,91.35"/><path d="M159.34,104.13L159.08,103.96L159.31,103.62L160.21,103.30L162.13,103.03L162.16,104.63L160.63,104.50L159.55,104.27L159.34,104.13"/><path d="M158.42,103.09L158.48,103.13"/><path d="M158.93,103.10L158.83,103.16"/><path d="M159.02,99.41L159.44,99.48L159.45,100.06"/><path d="M159.44,99.48L160.04,99.69L159.94,95.77L160.46,93.94L160.41,92.04L158.81,91.40"/><path d="M159.56,101.30L159.61,100.50"/><path d="M160.37,100.37L160.44,99.82L160.04,99.69"/><path d="M159.94,95.77L162.87,95.46L166.27,95.50L168.09,95.74L169.19,96.06L169.69,96.41"/><path d="M160.45,100.09L162.45,99.90L164.68,99.84L166.78,99.93L168.50,100.16L169.63,100.51L169.87,100.74"/><path d="M168.05,77.98L168.66,95.65L167.55,93.79L166.78,93.61L164.56,93.41L162.31,93.47L160.46,93.72"/><path d="M162.13,103.03L163.44,102.93L165.25,102.94L166.81,103.08L167.88,103.32L168.30,103.64L168.01,103.98L167.07,104.29L165.64,104.52L163.92,104.64L162.16,104.63"/><path d="M162.70,86.12L164.58,86.09L166.14,86.24L167.33,86.52L167.55,93.79"/><path d="M162.67,85.05L164.20,84.79"/><path d="M165.65,50.08L166.68,51.28L167.36,52.68L167.63,54.12L168.42,69.50"/><path d="M167.71,75.08L170.28,75.22L170.09,75.40L170.08,75.21"/><path d="M167.64,54.17L169.20,54.39L170.30,54.84L170.77,55.43"/><path d="M168.66,95.65L169.19,95.88L169.18,95.62"/><path d="M170.03,78.53L170.88,78.31L170.80,75.94L170.95,75.46L171.12,80.18L171.97,79.75L173.36,79.44L175.01,79.31L176.58,79.39L177.75,79.66L178.28,80.06L178.20,78.11L179.90,79.80L180.07,80.24L179.74,80.70L178.95,81.13L177.78,81.49L168.76,83.64"/><path d="M168.63,79.80L168.78,84.11"/><path d="M171.12,80.18L170.97,80.63L170.89,78.53L169.69,78.84"/><path d="M170.18,78.15L170.09,75.40"/><path d="M177.78,81.49L177.75,80.67L177.20,80.93L175.87,81.21L174.22,81.35L172.69,81.27L171.53,81.02L170.97,80.63"/><path d="M170.89,78.53L170.88,78.31"/><path d="M170.95,75.46L171.31,75.27"/><path d="M170.28,75.22L174.65,75.45L175.39,75.55L175.80,75.74L178.20,78.11"/><path d="M173.43,80.80L172.79,80.58L172.81,80.26L173.51,79.97L174.65,79.82L175.77,79.87L176.40,80.10L176.41,80.43L175.70,80.72L174.58,80.86L173.43,80.80"/><path d="M174.29,69.84L174.51,70.24L174.63,71.02L176.40,71.28L177.04,71.50L177.49,71.82L177.24,71.02"/><path d="M174.79,75.05L176.34,75.24L177.16,75.49L177.66,75.81L181.28,79.64L181.12,75.84L177.49,71.82L177.66,75.81"/><path d="M176.41,80.43L176.40,80.10"/><path d="M178.28,80.06L178.08,80.51L177.75,80.67"/><path d="M180.87,75.08L181.32,76.28"/><path d="M181.48,80.17L181.28,79.64"/></g><g style="stroke:#000000;stroke-width:0.123"><path d="M130.63,82.29L125.31,79.21L124.67,78.64L124.57,74.42L124.79,73.61L125.09,72.99L125.69,72.45L126.50,71.94L136.72,68.56"/><path d="M139.01,106.28L138.98,103.62L139.08,103.20L139.04,99.52L139.80,98.14L139.79,97.61L139.52,97.02L139.50,95.52L139.75,94.83L139.61,83.80L138.78,83.59L134.78,83.40L132.81,83.17"/><path d="M138.64,55.34L137.29,58.12L136.84,60.73L136.72,68.56"/><path d="M139.95,53.54L140.16,52.66L140.91,50.96L142.43,48.29L144.46,46.39L145.04,45.96L147.99,44.41L151.22,43.48L154.62,43.21L158.06,43.61L161.41,44.63L164.55,46.26L167.37,48.42L169.09,50.45L170.28,52.87L170.77,55.43L171.54,69.68L174.29,69.84L175.71,70.05L176.22,70.24L177.24,71.02L180.87,75.08L181.32,76.28L181.48,80.17L181.10,80.72L180.20,81.23L178.86,81.68L168.78,84.11"/><path d="M168.78,84.11L169.18,95.62L169.69,96.41L169.87,100.74L170.06,100.92L170.14,103.57L169.83,103.99L168.79,104.38L167.16,104.70L165.14,104.91L162.96,104.98L160.86,104.92L159.08,104.72L157.83,104.42L157.62,104.27L157.66,106.00L157.13,106.55L157.10,109.19L156.64,109.33L152.06,114.64L151.94,114.94L151.64,115.30L151.45,115.34L150.58,116.35L149.86,116.51L148.93,116.14L148.14,115.37L147.78,114.51L148.01,113.86L148.81,112.95L148.91,112.66L149.22,112.31L149.41,112.26L151.90,109.43L151.50,109.33L151.35,107.54"/></g></g><g id="Actor_.3"><g style="stroke:#000000;stroke-width:0.018"><path d="M109.64,28.92L109.41,28.49L109.44,27.93L108.90,27.33L108.46,26.62L108.17,25.82L108.06,24.98"/><path d="M119.71,18.66L119.26,18.42L118.43,18.52L117.82,18.75L117.11,19.12L116.30,19.63L115.43,20.27L114.54,21.01L112.83,22.66L112.08,23.50L110.94,24.96L110.15,26.18L109.65,27.21L109.44,27.93L118.47,36.28L118.68,36.29L118.77,36.25L119.28,35.13L120.27,33.71L121.61,32.16L123.13,30.67L124.65,29.44L125.96,28.63L126.90,28.33L127.37,28.56L127.31,29.30L127.37,29.23"/><path d="M118.52,37.04L118.33,36.70L118.39,36.22L118.64,35.58L119.18,34.64L119.88,33.66L120.84,32.50L122.23,31.05L123.76,29.69L125.19,28.66L126.31,28.07L126.95,27.93L127.30,28.05"/><path d="M120.75,36.43L120.27,36.74L119.30,37.09L118.78,36.92L118.77,36.25"/><path d="M119.70,44.81L119.91,43.73"/><path d="M136.48,32.32L136.50,31.77L136.34,31.49L135.98,31.37L135.51,31.42L134.88,31.64L133.75,32.22L132.34,33.17L130.71,34.43L128.99,35.93L127.29,37.57L125.75,39.19L123.90,41.37L123.04,42.51L122.40,43.47L121.82,44.50L121.51,45.24L120.98,45.33L120.39,45.13L119.96,44.69L119.82,44.21L120.12,43.45L120.70,42.39L121.38,41.35L122.30,40.09L123.20,38.99L124.25,37.78L125.86,36.07L127.65,34.36L129.47,32.77L131.20,31.43L132.70,30.45L133.89,29.84L134.57,29.62"/><path d="M127.31,29.30L126.73,30.46L126.03,29.71L125.84,29.64L125.50,29.69L125.02,29.90L124.38,30.29L123.65,30.84L122.88,31.51L122.14,32.23L121.06,33.48L120.52,34.24L120.20,34.81L120.04,35.21L120.00,35.58L120.14,35.79L120.77,36.46"/><path d="M128.99,32.87L127.17,34.46L125.30,36.29L123.23,38.61L120.04,35.21"/><path d="M125.84,44.57L124.94,44.87L124.53,44.80L124.40,44.46L124.50,43.98L121.51,45.24L121.39,45.82L121.48,46.27L121.73,46.46L122.18,46.49"/><path d="M123.23,38.61L123.02,38.86"/><path d="M135.98,54.49L136.13,53.76L136.24,53.46L127.56,44.66L126.91,44.16L126.10,43.85L125.26,43.80L124.50,43.98L124.79,43.34L125.37,42.40L126.23,41.26L127.45,39.84L129.06,38.18L130.81,36.61L131.66,35.94L132.43,35.38L133.11,34.96L133.67,34.67L134.40,34.47L134.75,34.60L134.81,35.00L134.66,35.52L136.27,32.97"/><path d="M126.65,44.65L126.68,44.67"/><path d="M126.74,30.47L126.73,30.46"/><path d="M127.63,45.29L127.47,45.06L127.56,44.66L127.84,44.09L128.43,43.22L129.75,41.64L130.93,40.43L132.22,39.28L133.39,38.37L134.29,37.84L134.75,37.68L135.02,37.70"/><path d="M136.13,53.76L135.88,53.58L135.12,52.86L133.05,50.81"/><path d="M136.74,52.69L137.97,51.03L134.88,47.74L134.10,48.85L136.06,51.41L136.65,52.35L136.73,52.54L136.74,52.69L136.24,53.46"/><path d="M134.88,47.74L135.29,47.25L135.82,46.76L138.91,50.05L138.39,50.54L137.97,51.03"/><path d="M134.54,36.81L134.56,36.84"/><path d="M134.47,36.02L134.43,35.68"/><path d="M134.81,35.00L134.49,35.95"/><path d="M134.54,35.81L134.66,35.52"/><path d="M135.82,46.76L137.17,45.64L139.73,47.72L140.61,48.26L140.91,48.34L143.02,46.59L143.42,46.31L143.53,46.34"/><path d="M139.90,53.74L137.83,51.54L136.88,53.46L137.11,53.70"/><path d="M137.83,51.54L138.89,50.63L140.09,49.47L140.67,48.97L141.52,48.34L142.07,48.92"/><path d="M138.91,50.05L141.01,48.27L140.96,47.96L140.49,47.07L138.62,44.43L140.02,43.28"/><path d="M140.37,52.20L138.89,50.63"/><path d="M139.96,43.33L143.02,46.59"/><path d="M141.52,48.34L142.60,47.41L142.96,47.79"/></g><g style="stroke:#000000;stroke-width:0.123"><path d="M142.98,47.78L143.30,47.16L143.53,46.34L140.48,43.09L140.36,43.05L140.02,43.28L135.02,37.70L134.56,36.84L134.49,35.95L135.89,33.76L136.27,32.97L136.48,32.32L136.67,31.39L136.65,31.01L136.09,29.99L135.06,29.58L134.57,29.62L133.63,29.88L132.47,30.40L130.93,31.37L128.99,32.87L126.74,30.47L127.13,29.79L127.37,29.23L127.48,28.58L127.40,28.21L127.30,28.05L119.71,18.66L119.05,17.98L118.35,17.51L117.26,17.07L116.41,16.94L114.90,17.08L113.78,17.50L112.79,18.06L112.24,18.46L111.13,19.43L110.11,20.52L109.34,21.51L108.78,22.45L108.28,23.69L108.16,24.15L108.04,25.41L108.15,26.28L108.58,27.51L109.02,28.24L109.64,28.92L118.52,37.04L118.92,37.16L119.12,37.16L119.83,36.97L120.77,36.46L123.02,38.86L122.35,39.68L121.37,41.02L120.69,42.09L120.24,42.94L119.91,43.73L119.70,44.81L119.80,45.29L120.08,46.00L121.04,46.59L121.50,46.61L122.18,46.49L122.69,46.36L123.36,46.08L124.49,45.44L125.84,44.57L126.68,44.67L127.63,45.29L133.05,50.81L132.98,51.30L135.98,54.49L136.11,54.50L137.11,53.70L138.94,55.65"/></g></g><g id="Actor_.4"><g style="stroke:#000000;stroke-width:0.018"><path d="M138.57,110.21L143.07,109.34L149.73,109.50L151.16,110.27"/><path d="M143.07,109.34L143.03,105.43L139.46,106.18"/><path d="M147.64,110.02L147.64,109.87L146.15,109.76L144.45,109.77L142.89,109.89L141.80,110.12L141.66,110.20"/><path d="M148.82,105.29L146.93,105.12L144.69,105.09L142.50,105.22L141.29,105.41"/><path d="M143.03,105.43L148.89,105.59L148.88,105.30"/><path d="M147.64,109.87L148.61,110.08L148.73,110.20"/><path d="M148.89,105.59L149.67,105.61L149.73,109.50"/><path d="M150.76,106.26L149.67,105.61"/></g><g style="stroke:#000000;stroke-width:0.123"><path d="M141.29,105.41L140.74,105.49L139.66,105.86L139.46,106.18L138.54,106.38L138.57,110.21L139.73,110.75"/><path d="M148.82,105.29L148.88,105.30L150.22,105.60L150.74,105.96"/><path d="M151.60,109.77L151.60,109.35"/><path d="M150.76,106.15L150.76,106.26L150.96,106.37"/></g></g><g id="Actor_.5"><g style="stroke:#000000;stroke-width:0.018"><path d="M148.67,125.30L148.66,125.26L148.61,125.22L148.38,125.15L148.00,125.09L147.48,125.04L146.13,124.99L144.62,125.00L144.06,117.69L143.11,117.74L142.24,117.81L141.45,117.90L140.79,118.00L140.27,118.11L139.90,118.24L139.78,118.30L139.70,118.36L139.67,118.43L139.67,118.50"/><path d="M139.67,118.43L139.66,118.15L139.70,118.09L139.78,118.02L140.06,117.90L140.51,117.78L141.45,117.61L142.23,117.53L143.11,117.45L144.06,117.40L144.06,117.69L145.04,117.66L146.52,117.66L147.46,117.69L148.73,117.77L149.58,117.87L150.25,118.00L150.59,118.11L150.70,118.17L150.77,118.24L150.80,118.30"/><path d="M138.85,118.40L140.63,117.54L147.17,117.24L147.07,109.93"/><path d="M140.56,110.26L140.63,117.54"/><path d="M144.62,125.00L143.56,125.06L142.71,125.15L142.16,125.26L142.05,125.30L141.98,125.34L141.96,125.38"/><path d="M145.89,125.61L144.85,125.63L143.59,125.59L143.10,125.54L142.75,125.48L142.56,125.42L142.52,125.38L142.53,125.34L142.59,125.31L142.69,125.27L143.23,125.17L144.07,125.09L145.09,125.05L146.14,125.05L147.08,125.09L147.76,125.16L148.02,125.23L148.09,125.26L148.12,125.30L148.10,125.33L148.03,125.37L147.60,125.47L146.85,125.56L145.89,125.61L145.88,125.05"/><path d="M144.06,117.40L145.04,117.37L146.52,117.38L147.90,117.43L149.09,117.53L150.01,117.67L150.24,117.72L150.59,117.84L150.70,117.90L150.77,117.96L150.80,118.02L150.80,118.20"/><path d="M147.17,117.24L151.68,117.84"/></g><g style="stroke:#000000;stroke-width:0.123"><path d="M151.63,115.30L151.68,117.84L150.80,118.20L150.78,118.36L148.67,125.30L148.64,125.34L148.45,125.42L148.30,125.45L147.63,125.55L146.71,125.63L145.26,125.68L143.83,125.66L142.93,125.61L142.29,125.52L142.04,125.45L141.98,125.42L139.67,118.50L138.85,118.40L138.80,111.29L140.56,110.26L147.07,109.93L150.92,110.55"/></g></g><g id="Actor_.6"><g style="stroke:#000000;stroke-width:0.018"><path d="M157.47,128.45L162.63,127.89L162.53,123.69L168.57,123.77L168.56,123.39"/><path d="M158.16,124.23L162.53,123.69"/><path d="M159.98,135.84L160.12,135.76L160.42,135.69L161.11,135.58L162.04,135.49L163.22,135.40L165.84,135.27L165.66,134.98L165.81,134.61L163.37,134.73L161.71,134.86L160.49,135.03L160.02,135.15L159.87,135.27"/><path d="M169.07,134.67L169.01,134.64L168.77,134.61L167.79,134.58L167.38,134.95L164.77,135.02L163.00,135.13L162.20,135.20L160.99,135.37L160.62,135.46L160.38,135.59"/><path d="M159.87,135.06L159.88,135.06"/><path d="M168.49,134.11L168.28,134.07L167.36,134.05L167.79,134.34L165.82,134.37L163.07,134.50L161.24,134.68L160.49,134.79L160.11,134.88L159.90,134.97"/><path d="M165.78,133.71L167.75,133.68L167.36,134.05L165.63,134.08L165.78,133.72L164.57,133.75L162.49,133.89L161.00,134.05L160.47,134.14L160.00,134.26L159.85,134.38"/><path d="M160.36,134.70L160.60,134.57L160.97,134.48L161.50,134.39L162.18,134.30L163.85,134.17L165.63,134.08L165.82,134.37"/><path d="M159.83,133.50L159.98,133.37L160.45,133.24L161.67,133.07L163.33,132.92L165.76,132.81L165.61,133.18L163.82,133.26L162.16,133.40L161.48,133.49L160.94,133.58L160.58,133.68L160.34,133.82"/><path d="M159.86,133.19L160.07,133.10L160.45,133.00L161.20,132.88L162.18,132.77L163.94,132.64L165.77,132.56L165.59,132.28L163.80,132.37L162.14,132.51L161.46,132.59L160.92,132.69L160.56,132.79L160.32,132.93"/><path d="M165.76,132.81L167.73,132.79L167.34,133.14L165.61,133.18L165.79,133.47L163.53,133.57L161.84,133.71L160.57,133.88L160.15,133.97L159.91,134.06"/><path d="M168.45,132.34L168.23,132.29L167.31,132.26L167.70,131.89L167.70,131.65L166.93,131.65L164.85,131.69L163.00,131.80L162.16,131.87L161.18,131.98L160.43,132.11L160.05,132.21L159.84,132.31"/><path d="M159.81,132.41L159.82,132.41"/><path d="M159.81,132.61L159.96,132.48L160.42,132.35L160.96,132.26L161.65,132.17L163.31,132.02L165.73,131.91L165.59,132.28L167.31,132.26L167.74,132.55L165.77,132.56"/><path d="M159.79,131.73L159.94,131.59L160.41,131.46L160.94,131.36L161.62,131.27L163.28,131.12L165.71,131.01L165.56,131.38L165.75,131.66"/><path d="M159.85,131.40L160.09,131.30L160.51,131.20L161.78,131.01L163.47,130.87L165.72,130.76L165.54,130.48L165.69,130.11L167.65,130.10L167.26,130.47L165.54,130.48L163.76,130.57L162.89,130.64L161.42,130.81L160.88,130.91L160.52,131.01L160.27,131.16"/><path d="M160.29,132.05L160.54,131.90L160.90,131.80L161.44,131.70L162.12,131.61L163.78,131.47L165.56,131.38L166.49,131.36L167.83,131.37L168.21,131.40L168.43,131.45"/><path d="M159.78,130.56L160.00,130.43L160.47,130.31L161.17,130.19L161.16,129.96L160.64,130.08L160.40,130.18L160.24,130.27"/><path d="M159.77,130.84L159.92,130.71L160.39,130.57L160.92,130.47L161.60,130.38L163.26,130.22L165.69,130.11"/><path d="M160.36,130.07L160.56,130.02L161.16,129.93"/><path d="M161.16,129.96L161.16,129.86L162.66,129.75L164.43,129.69L166.18,129.69L167.22,129.73L167.18,128.19L165.67,128.13L163.87,128.15L162.17,128.23L160.91,128.37L160.33,128.54L160.34,129.04"/><path d="M160.03,123.54L161.86,123.37L164.23,123.27L166.58,123.28L167.28,123.32L167.23,123.30L167.03,122.69L167.95,122.85L168.11,123.04"/><path d="M160.21,123.10L160.78,122.90L162.04,122.73L163.74,122.63L165.52,122.62L167.03,122.69L167.00,121.52L167.92,121.68L168.08,121.88L168.08,121.97"/><path d="M159.76,121.61L160.14,121.48L160.90,121.32L161.88,121.17L162.72,121.08L163.64,121.01L165.49,120.94L166.45,120.94L167.45,120.97L167.47,121.45L165.72,121.36L163.64,121.37L161.66,121.49L160.20,121.70L159.54,121.94"/><path d="M159.93,121.52L160.25,121.32L160.61,121.19L161.15,121.06L161.83,120.94L162.63,120.85L163.51,120.77L165.30,120.68L165.49,120.94"/><path d="M167.00,121.52L165.49,121.44L163.71,121.45L162.01,121.55L160.76,121.73L160.18,121.93L160.19,122.23"/><path d="M159.50,121.21L159.66,121.02L160.12,120.84L160.66,120.71L161.34,120.60L163.01,120.41L164.23,120.33L165.45,120.29L166.42,120.29L167.43,120.33L168.00,120.37L168.42,120.44L168.66,120.51L168.72,120.59"/><path d="M159.48,120.34L159.63,120.15L160.10,119.96L160.64,119.83L161.32,119.71L162.12,119.61L162.99,119.52L164.21,119.45L165.43,119.41L165.28,119.80L163.48,119.89L162.61,119.96L161.81,120.06L161.13,120.18L160.59,120.31L160.23,120.45L159.90,120.64"/><path d="M159.69,120.76L160.04,120.63L160.55,120.50L161.21,120.38L161.99,120.27L162.85,120.18L164.16,120.10L165.46,120.05L165.28,119.81L166.22,119.80L167.02,119.82L167.57,119.87L167.94,119.93L168.20,120.04"/><path d="M159.46,119.47L159.62,119.28L160.08,119.09L160.62,118.96L161.30,118.83L162.10,118.73L162.97,118.64L164.19,118.56L165.40,118.52L165.26,118.92L163.46,119.00L162.59,119.08L161.79,119.18L161.11,119.30L160.57,119.43L160.21,119.57L159.87,119.78"/><path d="M165.44,119.17L166.40,119.17L167.41,119.21L166.99,118.95L166.19,118.92L165.26,118.92L165.44,119.17L163.60,119.24L161.84,119.40L160.86,119.55L160.10,119.73L159.73,119.86"/><path d="M159.49,120.15L159.49,120.15"/><path d="M159.52,119.11L159.76,118.97L160.17,118.83L160.73,118.70L161.44,118.57L162.26,118.47L163.13,118.39L164.28,118.32L165.42,118.29L165.23,118.04L163.44,118.12L162.57,118.20L161.77,118.30L161.09,118.42L160.55,118.56L160.19,118.70L159.85,118.91"/><path d="M159.44,118.60L159.60,118.41L160.06,118.21L160.60,118.08L161.28,117.95L162.08,117.84L162.94,117.76L164.17,117.68L165.38,117.64L166.35,117.64L167.36,117.69L166.97,118.07L166.17,118.04L165.23,118.04L165.38,117.64"/><path d="M159.60,118.17L160.06,117.98L160.59,117.84L161.28,117.72L162.08,117.61L162.93,117.52L164.17,117.44L165.39,117.40L165.22,117.16L166.15,117.16L166.94,117.19L167.49,117.24L167.87,117.31L168.14,117.43"/><path d="M159.82,118.04L160.17,117.83L160.53,117.69L161.07,117.55L161.75,117.43L162.55,117.32L163.42,117.24L165.21,117.16L165.36,116.76L164.14,116.80L162.92,116.88L162.06,116.96L161.26,117.07L160.58,117.20L160.05,117.34L159.58,117.54L159.43,117.74"/><path d="M159.74,117.01L159.96,116.83L160.46,116.66L161.00,116.55L161.66,116.44L163.22,116.29L164.23,116.24L165.21,116.23L166.08,116.24L166.94,116.29L166.93,116.31L167.69,116.41L167.00,116.37L166.93,116.32L166.77,116.31L166.12,116.28L165.19,116.28L165.21,116.23"/><path d="M159.81,117.17L160.15,116.97L160.52,116.81L161.05,116.67L161.73,116.55L162.53,116.44L163.40,116.36L164.30,116.31L165.19,116.28L165.28,116.40L164.05,116.48L162.36,116.67L160.77,116.93L160.13,117.08L159.72,117.22"/><path d="M161.20,136.70L161.19,136.59L162.08,136.49L163.63,136.41L165.43,136.38L166.97,136.40L167.84,136.48L167.80,136.59L166.89,136.69L165.36,136.77L163.60,136.80L162.09,136.77L161.20,136.70"/><path d="M168.20,136.55L168.05,136.46L167.19,136.39L165.78,136.36L164.11,136.37L162.52,136.43L161.34,136.53L160.80,136.63"/><path d="M162.09,136.77L162.10,136.48"/><path d="M162.59,136.07L162.37,136.09L163.97,135.98L165.70,135.92L165.68,135.88L167.41,135.85L167.72,135.56L165.75,135.70L165.68,135.88L163.98,135.96L162.59,136.07"/><path d="M162.04,135.49L164.00,135.42L166.07,135.40L167.81,135.44L167.72,135.56"/><path d="M162.37,136.09L163.96,135.87L165.75,135.70"/><path d="M161.57,116.79L163.53,116.66L165.60,116.65L167.34,116.76L167.00,116.37L166.14,116.37L165.28,116.40"/><path d="M162.63,127.89L169.57,127.95L169.45,123.78L170.24,124.16"/><path d="M165.70,135.92L167.50,135.91L167.41,135.85L168.33,135.86L168.54,135.89"/><path d="M165.84,135.27L167.80,135.24L167.38,134.95L168.31,134.97L168.51,135.00"/><path d="M165.81,134.61L167.78,134.58"/><path d="M165.79,133.47L167.75,133.44L168.32,133.46L168.98,133.51"/><path d="M165.73,131.91L167.70,131.89"/><path d="M165.71,131.01L166.87,130.99L168.25,131.01L168.67,131.04L168.91,131.08L168.97,131.12"/><path d="M165.72,130.76L167.68,130.75L167.26,130.47L168.18,130.51L168.40,130.57"/><path d="M165.45,120.29L165.30,120.68L166.24,120.68L167.04,120.70L167.59,120.75L167.97,120.81L168.22,120.91"/><path d="M165.43,119.41L166.59,119.41L167.40,119.44L167.02,119.82L167.44,120.09L168.00,120.14L168.42,120.20L168.66,120.28"/><path d="M165.46,120.05L166.43,120.05L167.44,120.09"/><path d="M165.40,118.52L166.37,118.52L167.38,118.56L166.99,118.95L167.54,118.99L167.92,119.06L168.18,119.17"/><path d="M165.42,118.29L166.38,118.29L167.38,118.33L167.95,118.38L168.37,118.45L168.61,118.53"/><path d="M167.36,117.69L167.36,117.45L166.36,117.41L165.39,117.40"/><path d="M165.36,116.76L166.32,116.76L167.33,116.81L166.94,117.19L167.36,117.45"/><path d="M166.68,115.98L166.94,116.29L167.69,116.41"/><path d="M168.71,135.98L168.12,135.93L167.50,135.91L167.19,136.39"/><path d="M167.73,135.56L168.70,135.50L169.09,135.55"/><path d="M168.70,135.50L167.81,135.44L167.80,135.24"/><path d="M167.79,134.34L168.46,134.36L168.90,134.38L169.05,134.41"/><path d="M167.79,134.58L167.78,134.34"/><path d="M167.81,135.24L168.53,135.26L168.97,135.28L169.08,135.31"/><path d="M167.76,133.44L167.34,133.15L168.26,133.18L168.47,133.22"/><path d="M167.75,133.68L168.74,133.72L168.98,133.75L169.04,133.78"/><path d="M167.76,133.68L167.75,133.44"/><path d="M167.73,132.79L167.73,132.55"/><path d="M167.74,132.55L168.41,132.57L168.85,132.60L169.00,132.64"/><path d="M167.74,132.79L168.72,132.82L168.96,132.86L169.02,132.90"/><path d="M167.71,131.89L168.69,131.93L168.93,131.97L168.99,132.01"/><path d="M167.70,131.65L167.29,131.36L167.68,130.99"/><path d="M167.69,130.99L167.68,130.75"/><path d="M167.71,131.65L168.27,131.67L168.93,131.73"/><path d="M168.94,130.24L168.88,130.19L168.64,130.15L167.65,130.10"/><path d="M167.69,130.75L168.41,130.78L168.84,130.83L168.96,130.87"/><path d="M167.66,130.10L167.65,129.75L168.30,129.83"/><path d="M167.22,129.73L167.65,129.75"/><path d="M167.18,128.19L168.10,128.31L168.27,128.47L168.28,128.84"/><path d="M167.28,123.32L168.30,123.37"/><path d="M167.47,121.45L168.22,121.56L168.66,121.69"/><path d="M168.73,121.19L168.58,121.11L168.15,121.03L167.45,120.97"/><path d="M167.43,120.33L167.04,120.70L167.46,120.97"/><path d="M167.44,120.33L167.43,120.09"/><path d="M167.41,119.21L168.18,119.29L168.61,119.39"/><path d="M167.40,119.44L167.41,119.21"/><path d="M167.41,119.44L167.98,119.49L168.40,119.56L168.64,119.64L168.70,119.72"/><path d="M167.38,118.56L167.38,118.33"/><path d="M167.39,118.33L166.97,118.07L167.52,118.12L167.90,118.18L168.16,118.30"/><path d="M168.68,118.85L168.62,118.77L168.37,118.69L167.95,118.62L167.39,118.56"/><path d="M168.65,117.99L168.59,117.90L168.35,117.81L167.93,117.74L167.36,117.69"/><path d="M167.36,117.45L168.01,117.52L168.34,117.58L168.59,117.66"/><path d="M167.33,116.81L168.23,116.92L168.50,117.01"/><path d="M168.23,116.92L167.34,116.76L167.34,116.81"/><path d="M169.01,134.64L169.03,134.50"/><path d="M168.96,132.86L168.98,132.72"/><path d="M168.57,123.77L169.45,123.78"/><path d="M168.75,121.45L168.64,121.37L168.66,121.54"/><path d="M168.23,121.79L168.11,121.71L168.38,121.70"/><path d="M169.57,127.95L171.05,128.56"/></g><g style="stroke:#000000;stroke-width:0.123"><path d="M168.30,123.37L168.11,123.04L168.08,121.97L168.22,121.91L168.24,121.79L168.38,121.70L168.66,121.69L168.65,121.54L168.75,121.45L168.73,121.19L168.22,120.91L168.72,120.59L168.72,120.36L168.66,120.28L168.20,120.04L168.70,119.72L168.70,119.48L168.61,119.39L168.18,119.17L168.68,118.85L168.67,118.62L168.61,118.53L168.16,118.30L168.64,117.99L168.64,117.75L168.59,117.66L168.14,117.43L168.50,117.22L168.59,117.11L167.54,116.16L166.68,115.98L165.27,115.89L163.59,115.90L162.01,116.01L160.83,116.20L160.29,116.43L159.74,117.01L159.77,117.15L159.81,117.17L159.48,117.37L159.42,117.52L159.43,117.74L159.52,117.88L159.82,118.04L159.60,118.17L159.44,118.37L159.44,118.60L159.54,118.74L159.85,118.91L159.52,119.11L159.46,119.26L159.46,119.47L159.56,119.61L159.87,119.78L159.52,120.01L159.48,120.34L159.58,120.47L159.90,120.64L159.69,120.76L159.52,120.90L159.50,121.21L159.59,121.34L159.93,121.52L159.55,121.75L159.53,121.89L159.54,121.94L159.79,122.17L160.19,122.23L160.21,123.10L160.03,123.54L158.58,123.80L158.16,124.06L158.16,124.23L157.38,124.33L157.47,128.45L159.24,129.03L160.34,129.04"/><path d="M168.30,123.37L168.56,123.39L169.83,123.58L170.23,123.82L170.24,124.16L170.92,124.48L171.05,128.56L168.28,128.84L168.30,129.83L168.65,129.87L168.93,130.02L168.94,130.24L168.40,130.57L168.96,130.87L168.97,131.12L168.43,131.45L168.98,131.77L168.99,132.01L168.45,132.34L169.00,132.64L168.98,132.72L169.02,132.90L168.47,133.22L169.03,133.54L169.04,133.78L168.49,134.11L169.05,134.41L169.03,134.50L169.07,134.67L168.51,135.00L169.08,135.31L169.09,135.55L168.54,135.89L168.71,135.98L168.71,136.02L168.20,136.55L167.62,136.65L166.44,136.74L164.89,136.80L163.27,136.82L161.88,136.79L161.00,136.72L160.80,136.63L160.01,135.91L159.98,135.84L160.38,135.59L159.96,135.35L159.87,135.27L159.87,135.06L159.90,134.97L160.36,134.70L159.94,134.47L159.85,134.38L159.84,134.16L159.91,134.06L160.34,133.82L159.92,133.59L159.83,133.50L159.83,133.29L159.86,133.19L160.32,132.93L159.90,132.70L159.81,132.61L159.81,132.41L159.84,132.31L160.29,132.05L159.88,131.82L159.79,131.73L159.79,131.50L159.85,131.40L160.27,131.16L159.86,130.94L159.77,130.84L159.78,130.56L160.24,130.27L160.11,130.19L160.22,130.10L160.36,130.07L160.34,129.04"/></g></g><g id="Actor_.7"><g style="stroke:#000000;stroke-width:0.018"><path d="M161.88,150.34L162.58,150.32L165.42,150.28L167.75,150.26L167.74,150.27L165.50,150.29L163.92,150.31L161.90,150.35"/><path d="M162.01,150.35L162.00,150.36L161.98,150.36"/><path d="M161.75,145.03L162.46,144.98L163.78,144.93L165.28,144.91L166.77,144.91L167.61,144.93L168.47,146.61L168.53,148.53L167.75,150.26L167.81,150.27"/><path d="M163.08,150.32L166.62,150.27"/><path d="M167.73,150.27L167.79,150.28"/></g><g style="stroke:#000000;stroke-width:0.123"><path d="M161.35,149.38L160.95,148.65L160.91,146.74L161.75,145.03L161.77,145.02L162.47,144.97L163.79,144.92L165.36,144.90L166.75,144.90L167.60,144.92L167.67,144.97L168.60,146.65L168.65,148.55L167.81,150.27L167.79,150.28L167.07,150.30L164.22,150.34L162.84,150.36L161.98,150.36L161.90,150.35L161.88,150.34L161.35,149.38"/></g></g><g id="Actor_.8"><g style="stroke:#000000;stroke-width:0.018"><path d="M158.56,183.88L163.28,184.55L163.48,193.07L170.79,192.81L170.55,184.32L163.28,184.55"/><path d="M159.78,192.40L159.88,192.52L160.18,192.68L160.66,192.83L161.30,192.96L162.09,193.07L163.00,193.16L164.01,193.23L165.08,193.26L166.18,193.27L167.27,193.24L168.31,193.18L169.28,193.10L170.14,192.99L170.86,192.86L171.43,192.71L171.82,192.55L169.66,200.56"/><path d="M159.78,192.40L163.48,193.07"/><path d="M170.77,183.75L170.80,183.68L170.74,183.77L170.46,183.89L170.00,184.00L169.38,184.10L167.90,184.24L166.32,184.30L164.83,184.31L162.98,184.23L161.86,184.12L161.27,184.03L160.97,183.96L161.16,183.88L161.55,183.79L162.57,183.67L163.95,183.59L165.29,183.58L166.85,183.62L168.10,183.71L169.12,183.84L169.51,183.92L169.88,184.02"/><path d="M160.97,183.96L160.71,183.87L160.62,183.81L160.57,183.75L160.56,183.69L160.60,183.63L160.83,183.51L161.16,183.88L161.02,183.97"/><path d="M160.83,183.51L161.22,183.40L161.77,183.30L162.46,183.21L163.26,183.14L165.07,183.06L166.98,183.07L168.71,183.15L169.43,183.23L170.02,183.32L170.47,183.42L170.74,183.53L170.81,183.59L170.83,183.65L170.78,183.73"/><path d="M169.44,184.09L168.64,183.98L167.60,183.88L166.46,183.81L165.28,183.78L164.12,183.78L162.85,183.82L161.80,183.90L161.14,184.00"/><path d="M162.98,184.23L164.04,184.19L164.99,184.19L166.18,184.21L167.22,184.27"/><path d="M170.79,192.81L171.81,192.31L171.82,192.55L171.95,192.47L172.03,192.39L172.06,192.30"/><path d="M170.55,184.32L172.76,183.46"/><path d="M171.81,192.31L172.06,192.19"/></g><g style="stroke:#000000;stroke-width:0.123"><path d="M158.73,192.21L158.56,183.88L161.04,183.05L167.97,182.84L172.76,183.46L173.01,191.72L172.06,192.19L172.06,192.30L169.81,200.41L169.76,200.48L169.66,200.56L169.52,200.63L169.11,200.77L168.21,200.94L167.46,201.01L166.23,201.06L164.98,201.03L163.86,200.92L163.01,200.75L162.80,200.68L162.51,200.54L162.43,200.46L162.40,200.38L159.78,192.40L158.73,192.21"/></g></g><g id="Actor_.9"><g style="stroke:#000000;stroke-width:0.018"><path d="M162.44,163.47L163.09,163.52L164.32,163.55L165.78,163.53L167.08,163.49L167.86,163.42L167.87,163.67"/><path d="M163.49,172.13L164.22,172.20L165.41,172.22L166.59,172.18L167.31,172.09"/><path d="M163.50,172.21L164.23,172.28L165.41,172.30L166.59,172.26L167.31,172.17"/><path d="M163.31,164.33L164.03,164.37L165.21,164.38L166.39,164.34L167.10,164.29L167.26,163.85L167.29,163.84"/><path d="M163.21,163.45L163.27,163.48L163.11,163.47L163.12,163.41L163.21,163.45"/><path d="M163.27,163.48L163.90,163.51L165.19,163.51L166.47,163.48L167.25,163.42L167.23,163.36L166.44,163.33L165.17,163.32L163.90,163.35L163.12,163.41"/><path d="M167.62,163.69L167.09,163.74L165.79,163.78L164.33,163.80L163.10,163.77L162.71,163.74"/><path d="M167.86,163.42L167.91,163.36"/></g><g style="stroke:#000000;stroke-width:0.123"><path d="M162.44,163.72L162.71,163.74L163.07,163.89L163.31,164.33L163.49,172.13L163.63,173.17L164.32,173.24L165.43,173.26L166.54,173.22L167.22,173.13L167.31,172.09L167.10,164.29L167.29,163.84L167.62,163.69L167.87,163.67L167.92,163.61L167.91,163.36L167.24,163.31L166.02,163.29L164.59,163.30L163.31,163.35L162.52,163.41L162.44,163.47L162.44,163.72"/></g></g><g><g><path style="stroke:#000000;stroke-width:0.250;stroke-dasharray:2.0 2.0" d="M172.26,19.73L174.67,81.79"/></g></g><g><g><path style="stroke:#000000;stroke-width:0.250;stroke-dasharray:2.0 2.0" d="M163.99,116.02L165.90,191.97"/></g></g><g id="PMI15.0"><g><path style="stroke:#000000;stroke-width:0.250" d="M182.47,19.12L174.54,19.26"/></g><g><path style="fill:#000000" d="M174.52,18.28L174.55,20.28L172.53,19.31z"/></g><g><path style="fill:#ffffff" d="M182.46,21.79L201.39,21.79L201.39,16.15L182.46,16.15z"/><path style="stroke:#000000;stroke-width:0.250;stroke-opacity:0.98" d="M182.46,21.79L201.39,21.79L201.39,16.15L182.46,16.15z"/><text xml:space="preserve" fill="#000000" stroke-width="0" x="183.17" y="20.20" font-size="3.39" opacity="1.00" font-family="MS Shell Dlg">1N0400011</text></g></g><g id="PMI2.0"><g><path style="stroke:#000000;stroke-width:0.250" d="M113.49,76.77L123.31,76.72"/></g><g><path style="fill:#000000" d="M123.33,77.74L123.32,75.74L125.32,76.73z"/></g><g><path style="fill:#ffffff" d="M94.92,79.65L113.51,79.65L113.51,74.01L94.92,74.01z"/><path style="stroke:#000000;stroke-width:0.250;stroke-opacity:0.98" d="M94.92,79.65L113.51,79.65L113.51,74.01L94.92,74.01z"/><text xml:space="preserve" fill="#000000" stroke-width="0" x="95.63" y="78.06" font-size="3.44" opacity="1.00" font-family="MS Shell Dlg">880000041</text></g></g><g id="PMI14.0"><g><path style="stroke:#000000;stroke-width:0.250" d="M146.43,128.44L158.91,128.40"/></g><g><path style="fill:#000000" d="M158.91,129.38L158.90,127.38L160.91,128.37z"/></g><g><path style="fill:#ffffff" d="M127.84,131.28L146.43,131.28L146.43,125.64L127.84,125.64z"/><path style="stroke:#000000;stroke-width:0.250;stroke-opacity:0.98" d="M127.84,131.28L146.43,131.28L146.43,125.64L127.84,125.64z"/><text xml:space="preserve" fill="#000000" stroke-width="0" x="128.55" y="129.69" font-size="3.44" opacity="1.00" font-family="MS Shell Dlg">890100271</text></g></g><g id="PMI16.0"><g><path style="stroke:#000000;stroke-width:0.250" d="M150.42,144.86L159.81,145.03"/></g><g><path style="fill:#000000" d="M159.79,146.01L159.82,144.01L161.80,145.05z"/></g><g><path style="fill:#ffffff" d="M131.83,147.49L150.42,147.49L150.42,141.85L131.83,141.85z"/><path style="stroke:#000000;stroke-width:0.250;stroke-opacity:0.98" d="M131.83,147.49L150.42,147.49L150.42,141.85L131.83,141.85z"/><text xml:space="preserve" fill="#000000" stroke-width="0" x="132.54" y="145.90" font-size="3.44" opacity="1.00" font-family="MS Shell Dlg">890600051</text></g></g><g id="PMI17.0"><g><path style="stroke:#000000;stroke-width:0.250" d="M152.67,171.93L162.22,171.98"/></g><g><path style="fill:#000000" d="M162.21,172.94L162.22,170.94L164.22,171.95z"/></g><g><path style="fill:#ffffff" d="M134.08,174.68L152.67,174.68L152.67,169.03L134.08,169.03z"/><path style="stroke:#000000;stroke-width:0.250;stroke-opacity:0.98" d="M134.08,174.68L152.67,174.68L152.67,169.03L134.08,169.03z"/><text xml:space="preserve" fill="#000000" stroke-width="0" x="134.78" y="173.09" font-size="3.44" opacity="1.00" font-family="MS Shell Dlg">891100051</text></g></g><g id="PMI18.0"><g><path style="stroke:#000000;stroke-width:0.250" d="M181.97,194.82L170.60,194.82"/></g><g><path style="fill:#000000" d="M170.59,193.79L170.59,195.79L168.59,194.79z"/></g><g><path style="fill:#ffffff" d="M181.96,197.62L200.55,197.62L200.55,191.98L181.96,191.98z"/><path style="stroke:#000000;stroke-width:0.250;stroke-opacity:0.98" d="M181.96,197.62L200.55,197.62L200.55,191.98L181.96,191.98z"/><text xml:space="preserve" fill="#000000" stroke-width="0" x="182.67" y="196.03" font-size="3.44" opacity="1.00" font-family="MS Shell Dlg">890900071</text></g></g><g id="paperID" visibility="hidden" opacity="0.00" transform="scale(0.000100)"><path style="stroke:#000000;stroke-width:0.500;fill:#e6e6e6;fill-rule:evenodd" d="M-2000.00,-2000.00L2297.00,-2000.00L2297.00,2210.00L-2000.00,2210.00zM0.00,0.00L297.00,0.00L297.00,210.00L0.00,210.00z"/><path style="fill:#000000;fill-opacity:0.118" d="M3.00,210.00L297.00,210.00L297.00,3.00L300.00,3.00L300.00,213.00L3.00,213.00z"/></g><g id="hotspot.0" onmouseover="ShowHotSpot(evt,'0')" onmouseout="HideHotSpot(evt,'0')" onmousemove="ShowToolTip(evt,'0',&quot;3dp803672&quot;)" opacity="0"><path style="fill:#00ff00;fill-rule:evenodd" d="M168.50,117.03L168.45,120.03L168.75,120.33L168.75,120.59L168.47,120.81L168.76,121.27L168.27,121.88L168.25,123.31L169.78,123.52L170.24,123.81L171.01,125.28L171.02,128.62L168.50,128.84L168.46,129.84L168.77,130.07L168.46,130.53L169.04,130.99L168.69,131.31L168.69,131.57L168.98,131.78L168.68,132.25L169.02,132.74L168.68,133.24L169.00,133.55L169.00,133.81L168.72,134.02L169.01,134.49L168.68,134.99L169.03,135.55L168.19,136.51L164.94,136.76L162.28,136.76L160.53,136.51L160.27,136.25L160.23,135.51L159.94,135.03L159.99,134.03L160.25,133.77L159.94,133.28L159.99,132.28L160.25,132.03L159.94,131.53L160.04,130.39L160.29,130.12L160.28,129.00L159.71,128.99L159.05,129.37L158.56,128.75L146.72,128.77L146.58,131.36L127.77,131.36L127.77,125.53L146.35,125.50L146.60,125.75L146.72,128.12L157.30,128.12L157.46,124.29L158.69,123.78L159.96,123.56L160.00,122.31L159.69,121.81L159.76,119.77L159.46,119.28L159.75,118.81L159.46,118.60L159.46,118.34L159.78,118.03L159.45,117.54L160.19,116.54L161.44,116.05L167.28,116.04z"/></g><g id="hotspot.1" onmouseover="ShowHotSpot(evt,'1')" onmouseout="HideHotSpot(evt,'1')" onmousemove="ShowToolTip(evt,'1',&quot;3dp733569&quot;)" opacity="0"><path style="fill:#00ff00;fill-rule:evenodd" d="M174.00,13.52L173.76,14.39L173.18,14.81L173.26,18.80L173.64,18.80L174.51,18.32L174.67,18.85L182.24,18.88L182.39,16.04L201.21,16.03L201.68,16.30L201.62,21.79L182.39,21.87L182.24,19.53L174.68,19.55L174.48,20.12L174.01,20.07L173.50,19.76L173.19,25.54L172.01,25.52L171.76,25.27L171.51,23.53L171.02,15.03L170.25,14.28L170.22,13.62L171.17,12.79L173.27,12.79z"/></g><g id="hotspot.2" onmouseover="ShowHotSpot(evt,'2')" onmouseout="HideHotSpot(evt,'2')" onmousemove="ShowToolTip(evt,'2',&quot;3dp477780&quot;)" opacity="0"><path style="fill:#00ff00;fill-rule:evenodd" d="M150.59,141.97L150.72,144.58L159.58,144.76L159.58,145.05L150.72,145.23L150.57,147.57L131.76,147.57L131.76,141.74L150.34,141.72zM161.27,144.75L167.53,144.97L168.53,146.47L168.53,148.82L167.76,150.31L161.78,150.23L161.02,148.74L161.02,146.55L161.57,145.25L160.78,145.57L159.96,145.84L159.96,144.22L160.26,144.20z"/></g><g id="hotspot.3" onmouseover="ShowHotSpot(evt,'3')" onmouseout="HideHotSpot(evt,'3')" onmousemove="ShowToolTip(evt,'3',&quot;3dp624180&quot;)" opacity="0"><path style="fill:#00ff00;fill-rule:evenodd" d="M162.44,163.43L167.77,163.43L167.27,164.03L167.26,173.00L166.71,173.19L163.99,173.21L163.50,172.42L163.22,172.37L162.69,172.71L162.22,172.76L162.02,172.18L152.96,172.16L152.81,174.76L134.00,174.76L134.00,168.92L152.58,168.90L152.83,169.15L152.96,171.52L162.29,171.73L162.46,171.18L162.76,171.12L163.57,171.49L163.30,164.17L162.50,163.66z"/></g><g id="hotspot.4" onmouseover="ShowHotSpot(evt,'4')" onmouseout="HideHotSpot(evt,'4')" onmousemove="ShowToolTip(evt,'4',&quot;3dp478471&quot;)" opacity="0"><path style="fill:#00ff00;fill-rule:evenodd" d="M172.54,183.37L172.79,183.62L173.00,191.71L172.19,192.14L171.74,193.44L171.66,194.46L181.74,194.46L181.89,191.87L200.47,191.85L200.72,192.10L200.70,197.71L181.89,197.71L181.74,195.11L171.43,195.12L169.68,200.60L168.69,200.86L163.52,200.86L162.52,200.61L159.78,192.39L158.77,192.14L158.71,183.90L160.70,183.14L168.76,182.90z"/></g><g id="hotspot.5" onmouseover="ShowHotSpot(evt,'5')" onmouseout="HideHotSpot(evt,'5')" onmousemove="ShowToolTip(evt,'5',&quot;3dp487860&quot;)" opacity="0"><path style="fill:#00ff00;fill-rule:evenodd" d="M119.16,18.01L125.39,25.75L127.38,28.00L127.38,29.36L127.09,29.84L127.09,30.77L128.88,32.77L129.25,32.77L132.27,30.51L134.01,29.76L135.61,29.75L136.10,30.00L136.60,30.75L136.59,32.10L136.34,32.83L134.57,35.82L134.58,36.75L135.59,38.24L140.10,43.29L140.58,43.21L140.86,43.43L143.35,46.21L143.25,47.25L143.71,47.23L145.32,45.80L148.47,44.22L151.23,43.48L155.05,43.23L157.29,43.48L160.28,44.23L164.03,45.97L166.52,47.72L168.55,49.68L170.27,52.70L170.76,55.20L171.51,68.17L171.68,69.50L171.97,69.70L175.25,69.91L176.77,70.64L180.26,74.38L181.25,75.89L181.50,80.24L180.24,81.22L168.94,84.14L169.01,89.12L169.28,95.84L169.78,96.59L170.01,100.85L169.93,103.84L168.95,104.35L165.44,104.84L160.28,104.83L158.52,104.60L157.78,104.32L157.55,106.17L157.31,106.43L157.03,109.15L156.73,109.34L151.47,115.31L150.73,116.31L149.29,116.32L148.33,115.54L148.04,115.08L148.04,113.88L149.22,112.31L149.82,111.91L151.21,110.31L151.59,109.90L151.32,106.82L150.33,105.57L147.06,105.08L144.24,105.09L140.50,105.58L139.46,106.08L139.01,106.19L139.24,99.08L139.86,98.18L139.86,97.60L139.57,97.12L139.58,83.89L139.10,83.62L132.84,83.15L132.84,78.11L132.65,77.88L130.80,77.88L130.82,80.89L130.62,82.20L124.87,78.90L124.64,77.15L123.54,77.50L123.62,75.88L124.12,76.18L124.62,76.26L124.85,73.47L125.79,72.42L127.29,71.67L136.59,68.50L137.09,59.52L137.33,58.01L138.62,55.53L138.38,54.92L137.34,53.92L136.76,53.93L136.48,54.19L135.60,54.21L134.62,52.94L133.11,51.45L132.64,50.43L127.61,45.23L126.88,44.72L125.52,44.72L123.54,45.97L122.05,46.48L120.86,46.49L120.14,45.96L119.86,45.50L119.87,44.04L121.55,40.74L122.91,39.07L122.67,38.46L121.40,37.23L120.92,36.49L119.81,37.01L118.39,36.99L111.42,30.49L109.17,28.50L108.39,27.03L108.15,26.03L108.16,24.60L108.39,23.35L109.68,21.14L111.54,19.01L113.65,17.63L115.06,17.04L117.14,17.04zM113.68,74.13L113.80,76.49L123.16,76.67L123.16,76.96L113.80,77.14L113.66,79.74L94.85,79.74L94.85,73.90L113.43,73.88z"/></g></g></svg>
