<?xml version="1.0" encoding="UTF-8" standalone="no"?>
<svg xmlns="http://www.w3.org/2000/svg" xmlns:xlink="http://www.w3.org/1999/xlink" width="297.000mm" height="210.000mm" viewBox="0.000000 0.000000 297.000000 210.000000" stroke-linejoin="round" stroke-linecap="round" fill="none" fill-rule="evenodd"><desc>Composer Export</desc><script type="text/ecmascript"><![CDATA[
if(typeof(top) != "undefined")
{
	top.ShowPaper = ShowPaper;
}
function ShowHotSpot(evt,hotspotid)
{
	var svgDocument = evt.target.ownerDocument;
	var strId = "hotspot."+hotspotid;
	var hotspot = svgDocument.getElementById(strId);
	if(hotspot)
		hotspot.setAttribute("opacity",".5");
}
function HideHotSpot(evt,hotspotid)
{
	var svgDocument = evt.target.ownerDocument;
	var strId = "hotspot."+hotspotid;
	var hotspot = svgDocument.getElementById(strId);
	if(hotspot)
		hotspot.setAttribute("opacity","0");

	var toolTip = svgDocument.getElementById('ToolTip');
	if(toolTip)
		toolTip.setAttribute("visibility","hidden");
}
function ShowToolTip(evt,hotspotid,strTooltip)
{
	if(strTooltip=="")
	return;

	// change text
	var svgDocument = evt.target.ownerDocument;
	var tiptext = svgDocument.getElementById('ToolTipText');
	if( !tiptext )
	return;
	tiptext.firstChild.nodeValue = " " + strTooltip + "  " ;

	// show tooltip before, else some refresh issue

	var toolTip = svgDocument.getElementById('ToolTip');
	if(!toolTip)
	return;

	toolTip.setAttribute("visibility","visible");
	toolTip.setAttribute("opacity",".95");

	// move tooltip
	// get viewbox

	var root = svgDocument.documentElement;
	var vbox = (root.getAttribute("viewBox")).split(' ');
	var x0 = parseFloat(vbox[0]);
	var y0 = parseFloat(vbox[1]);
	var vboxW = parseFloat(vbox[2]);
	var vboxH = parseFloat(vbox[3]);

	// get default width of svg

	var strW = root.getAttribute("width");
	var svgW = parseFloat(strW);
	if(strW.indexOf('mm') != -1)
	svgW *= 3.779;

	var strH = root.getAttribute("height");
	var svgH = parseFloat(strH);
	if(strH.indexOf('mm') != -1)
	svgH *= 3.779;  	// 96 dpi  -> 96/25.4 = 3.779

	// update the viewbox / width / height if svg is embedded in html with zoom fit all
	var realx0 = x0;
	var realy0 = y0;
	var realvboxW = vboxW;
	var realvboxH = vboxH;
	var realsvgW = svgW;
	var realsvgH = svgH;

	if ((typeof(top) == "undefined") || (typeof(top.svgctl1) != "undefined")) // embedded in html
	{
		// get window size in pxl

		svgW = window.innerWidth;
		svgH = window.innerHeight;

		// calculate real viewbox

		realsvgW = svgW;
		realsvgH = svgH;
		if((svgW / svgH) > (vboxW / vboxH))
		{
			realvboxW = (vboxH * svgW) / svgH;
			realvboxH = vboxH;
			realx0 = x0 - (realvboxW - vboxW)/2 ;
		}
		else
		{
			realvboxH = (vboxW * svgH) / svgW;
			realvboxW = vboxW;
			realy0 = y0 - (realvboxH - vboxH)/2 ;
		}
	}

	// get user zoom/pan

	var newScale = root.currentScale;
	var translation = root.currentTranslate;

	// transform pxl to user unit

	var xPos = (((evt.clientX+10- translation.x)/newScale) * realvboxW)/realsvgW  + realx0 ;
	var yPos = (((evt.clientY+5- translation.y)/newScale) * realvboxH)/ realsvgH  + realy0 ;
	var scaleForWidth = ( (1 / newScale) * realvboxH) / realsvgH;

	// move tooltip

	toolTip.setAttribute("transform", "translate(" + xPos + "," + yPos + ")" );

	// resize tooltip

	var fontsize = 12;
	tiptext.setAttribute("font-size",fontsize*scaleForWidth);
	tiptext.setAttribute("y", fontsize*scaleForWidth);
	var tipBG = svgDocument.getElementById('ToolTipBG');
	var outline = tiptext.getBBox();
	if(tipBG)
	{
		tipBG.setAttribute("stroke-width", 1*scaleForWidth);
		tipBG.setAttribute("width", Number(outline.width) );
		tipBG.setAttribute("height", Number(outline.height) + fontsize*.5*scaleForWidth );
	}
	var ToolTipShadow = svgDocument.getElementById('ToolTipShadow');
	if(ToolTipShadow)
	{
		ToolTipShadow.setAttribute("width", Number(outline.width) );
		ToolTipShadow.setAttribute("height", Number(outline.height) + fontsize*.5*scaleForWidth );
		ToolTipShadow.setAttribute("x", 3*scaleForWidth);
		ToolTipShadow.setAttribute("y", 3*scaleForWidth);
	}
}
function ShowPaper()
{
  var svgDocument = getDocument();
  var paper = svgDocument.getElementById("paperID");
  if(paper)
  {
    paper.setAttribute("transform","scale(1)");
    paper.setAttribute("opacity","1");
    paper.setAttribute("visibility","visible");
  }
  var svg = svgDocument.getRootElement();
  if(svg)
  {
    svg.setAttribute("width","307.000mm");
    svg.setAttribute("height","220.000mm");
    svg.setAttribute("viewBox","-5.000000 -5.000000 307.000000 220.000000");
  }
}
]]></script><defs/><g><path style="fill:#ffffff" d="M296.93,210.00L0.07,210.00L0.07,0.07L296.93,0.07z"/><path style="fill:#8e6945" d="M52.13,74.28L54.65,75.85L58.44,77.13L94.67,87.53L154.23,104.00L180.33,110.84L185.16,111.59L189.50,112.06L189.75,112.32L184.34,187.13L183.83,187.91L170.95,185.85L132.45,172.66L75.17,152.39L67.86,149.57L61.93,145.61L51.86,75.86L51.87,74.05z"/><path style="fill:#ff8080" d="M75.44,90.80L75.84,91.98L75.76,92.70L74.06,92.23L73.66,90.30L73.54,89.16L73.90,89.27z"/><path style="fill:#ff8080" d="M75.96,95.35L76.07,96.56L76.04,97.24L74.79,96.82L74.30,94.02z"/><path style="fill:#ff8080" d="M76.21,99.91L76.33,100.85L76.45,101.65L75.55,101.38L75.30,99.10z"/><path style="fill:#ff8080" d="M76.46,104.20L76.56,105.18L76.78,106.12L76.33,106.19L76.06,103.91z"/><path style="fill:#e1e1e1" d="M164.30,48.74L164.49,51.92L163.59,53.38L163.59,54.06L255.10,74.84L256.29,74.85L257.23,72.74L259.75,73.30L256.77,79.91L257.66,80.14L258.15,80.91L258.16,83.30L254.50,89.30L253.05,89.05L252.58,88.76L249.26,81.70L249.26,78.71L251.04,78.65L253.32,79.16L254.25,79.16L254.89,77.95L254.86,77.64L252.31,76.87L162.84,56.33L162.29,56.33L161.50,57.85L161.83,58.11L162.25,58.78L162.24,59.55L162.11,61.25L159.48,66.23L158.28,66.25L157.72,66.04L154.74,59.40L154.74,56.67L156.02,56.60L158.04,57.11L159.23,57.10L161.89,51.59L161.85,51.29L155.48,49.79L155.32,49.64L155.35,48.39L155.75,49.51L157.02,49.55L157.32,49.23L157.72,49.84L158.55,49.84L158.62,49.66L161.36,49.51L161.87,49.52L162.34,49.75L162.61,50.80L163.01,50.78L163.52,50.28L163.87,50.30z"/><path style="fill:#e1e1e1" d="M263.50,52.75L264.73,54.83L265.24,56.85L265.24,59.97L264.73,62.25L261.46,69.69L259.57,69.51L258.55,70.08L258.65,70.32L258.90,70.34L259.15,70.90L259.52,70.72L259.89,71.05L259.18,72.43L258.90,71.81L258.48,71.69L258.38,71.53L257.39,71.62L257.11,71.32L255.87,71.30L253.60,70.76L252.94,70.48L252.57,70.17L252.51,69.76L253.36,69.23L252.05,68.75L251.08,68.75L250.47,68.47L251.30,69.84L251.58,69.23L251.83,69.48L251.77,70.31L250.96,70.81L251.83,71.06L252.29,71.05L252.34,70.45L252.83,70.97L253.02,71.38L253.56,71.55L253.43,71.76L250.01,71.08L249.84,70.93L249.77,68.25L249.61,68.22L247.46,67.78L247.14,67.55L247.14,67.27L249.71,66.20L251.04,66.34L251.22,60.15L252.99,59.37L254.11,59.45L256.36,54.90L257.66,53.15L260.15,51.85L261.44,51.78z"/><path style="fill:#000000" d="M29.06,72.07L29.14,72.40L28.54,72.65L28.54,73.56L28.87,73.81L29.00,74.39L29.31,74.61L29.35,75.00L27.42,75.01L27.84,74.07L27.21,73.65L27.21,72.06L28.55,71.77z"/><path style="fill:#000000" d="M230.02,161.77L231.99,161.80L232.45,161.18L232.58,165.17L231.64,165.55L230.33,165.55L229.49,165.32L229.54,161.16z"/><path style="fill:#000000" d="M232.32,170.09L232.39,171.74L231.52,171.97L231.46,172.98L231.88,173.30L231.73,173.41L230.50,173.44L229.94,173.24L230.01,169.96L230.31,169.78L230.76,170.16L231.20,170.17L231.68,169.77z"/><path style="fill:#ffffff" d="M113.70,102.97L116.37,103.90L116.33,104.58L75.76,92.70L75.84,91.98z"/><path style="fill:#ffffff" d="M116.60,108.49L116.54,109.19L76.04,97.24L76.07,96.56L76.96,96.63z"/><path style="fill:#ffffff" d="M116.61,113.03L116.76,113.79L84.80,104.25L76.45,101.65L76.33,100.85z"/><path style="fill:#ffffff" d="M116.85,117.62L116.80,118.31L115.21,117.93L76.78,106.12L76.56,105.18z"/><path style="fill:#008001" d="M169.06,35.46L167.94,37.43L167.28,37.81L163.11,36.57L162.24,36.47L160.08,35.82L159.39,36.29L159.28,35.65L160.73,33.52L161.66,33.41z"/><path style="fill:#7f7f7f" d="M156.79,47.75L156.77,48.76L157.26,48.83L157.70,48.22L158.79,47.97L161.10,48.50L163.61,48.48L163.69,48.64L163.27,48.74L163.36,49.27L163.64,49.35L163.69,48.64L164.57,48.19L164.88,48.21L165.02,50.43L164.88,51.88L164.49,51.92L164.30,48.74L163.87,50.30L163.52,50.28L163.01,50.78L162.61,50.80L162.34,49.75L161.87,49.52L161.36,49.51L158.62,49.66L158.33,49.23L157.93,49.47L158.62,49.66L158.55,49.84L157.72,49.84L157.32,49.23L157.02,49.55L155.75,49.51L155.35,48.39L155.26,47.70L155.02,48.11L154.83,47.19z"/><path style="fill:#7f7f7f" d="M155.32,49.64L155.18,49.58L155.15,48.39L155.35,48.39z"/><path style="fill:#7f7f7f" d="M161.56,49.98L162.09,49.98L162.10,50.87L160.65,50.44L161.57,50.24z"/><path style="fill:#7f7f7f" d="M251.08,68.75L252.05,68.75L253.36,69.23L252.51,69.76L252.57,70.17L252.34,70.45L252.29,71.05L251.83,71.06L250.96,70.81L251.77,70.31L251.83,69.48L251.58,69.23L251.30,69.84L250.47,68.47z"/><path style="fill:#7f7f7f" d="M261.46,69.69L261.47,73.65L259.75,73.30L257.23,72.74L253.43,71.76L253.56,71.55L253.02,71.38L252.83,70.97L252.94,70.48L253.60,70.76L255.87,71.30L257.11,71.32L257.39,71.62L258.38,71.53L258.48,71.69L258.04,71.80L258.14,72.31L258.65,72.33L258.48,71.69L258.90,71.81L259.18,72.43L259.89,71.05L259.52,70.72L259.94,70.52L259.65,70.02L259.52,70.72L259.15,70.90L258.90,70.34L258.65,70.32L258.55,70.08L259.57,69.51z"/><path style="fill:#7f7f7f" d="M249.84,70.93L249.71,70.87L249.61,68.22L249.77,68.25z"/><path style="fill:#ff8080" d="M118.14,104.41L118.11,105.09L116.33,104.58L116.37,103.90L117.25,103.98z"/><path style="fill:#ff8080" d="M118.37,109.00L118.32,109.69L116.54,109.19L116.60,108.49L117.25,108.53z"/><path style="fill:#ff8080" d="M118.36,113.56L118.52,114.32L116.76,113.79L116.61,113.03z"/><path style="fill:#ff8080" d="M118.63,118.12L118.53,118.86L116.80,118.31L116.85,117.62z"/><path style="fill:#ff8080" d="M131.43,137.69L133.21,138.44L134.25,139.43L135.50,141.99L135.74,144.79L136.26,162.62L135.65,163.78L134.66,164.32L133.71,164.32L99.76,152.64L98.26,151.35L97.47,149.86L97.21,149.11L96.97,147.07L96.21,133.13L96.20,128.64L96.88,127.54L97.38,127.29L98.50,127.29z"/><path style="fill:#5f5f5f" d="M29.41,75.26L31.26,99.08L31.07,99.51L29.23,99.51L29.08,99.10L27.54,78.14L27.42,75.01L29.35,75.00z"/><path style="fill:#5f5f5f" d="M231.99,132.61L232.32,132.53L232.45,161.18L231.99,161.80L230.02,161.77L229.54,161.16L229.61,132.53L229.73,132.61z"/><path style="fill:#f2a157" d="M163.27,48.74L163.69,48.64L163.64,49.35L163.36,49.27z"/><path style="fill:#f2a157" d="M162.24,59.55L162.25,58.78L162.37,58.89z"/><path style="fill:#f2a157" d="M252.94,70.48L252.83,70.97L252.34,70.45L252.57,70.17z"/><path style="fill:#f2a157" d="M250.23,79.88L250.52,79.93L250.57,80.22L250.28,80.17z"/><path style="fill:#f2a157" d="M253.84,87.34L253.50,87.34L253.50,87.00L253.84,87.00z"/><path style="fill:#e1e1e1" d="M166.92,32.52L168.21,33.76L169.06,35.46L161.66,33.41L162.78,32.53L164.29,32.01L165.39,32.02z"/><path style="fill:#e1e1e1" d="M162.24,36.47L160.74,39.35L161.34,40.63L161.51,46.54L162.85,46.97L164.12,47.05L166.91,40.97L167.17,39.95L167.28,37.81L167.94,37.43L169.06,35.46L169.45,36.58L169.45,40.46L168.69,42.99L165.02,50.43L164.88,48.21L164.57,48.19L163.69,48.64L163.61,48.48L161.10,48.50L158.79,47.97L157.70,48.22L157.26,48.83L156.77,48.76L156.79,47.75L154.83,47.19L152.37,46.51L152.35,46.24L154.41,45.44L155.52,45.29L155.50,39.44L157.20,38.84L158.32,38.92L159.33,36.92L159.39,36.29L160.08,35.82z"/><path style="fill:#e1e1e1" d="M155.35,48.39L155.15,48.39L155.02,48.11L155.26,47.70z"/><path style="fill:#e1e1e1" d="M158.62,49.66L157.93,49.47L158.33,49.23z"/><path style="fill:#e1e1e1" d="M259.94,70.52L259.52,70.72L259.65,70.02z"/><path style="fill:#e1e1e1" d="M258.65,72.33L258.14,72.31L258.04,71.80L258.48,71.69z"/><path style="fill:#e1e1e1" d="M30.34,73.09L30.36,73.65L28.87,73.81L28.54,73.56L28.54,72.65L29.14,72.40L29.32,72.54z"/><path style="fill:#e1e1e1" d="M98.98,96.15L157.29,112.60L158.08,113.09L157.83,115.57L119.02,104.49L118.14,104.41L117.25,103.98L116.37,103.90L113.70,102.97L75.84,91.98L75.44,90.80L73.90,89.27L73.54,89.16L73.63,88.77z"/><path style="fill:#e1e1e1" d="M75.76,92.70L116.33,104.58L118.11,105.09L154.99,115.66L157.82,116.31L157.31,120.12L118.37,109.00L117.25,108.53L116.60,108.49L76.96,96.63L76.07,96.56L75.96,95.35L74.30,94.02L74.06,92.23z"/><path style="fill:#e1e1e1" d="M76.04,97.24L116.54,109.19L118.32,109.69L157.32,121.10L156.79,124.68L130.92,117.17L119.02,113.60L118.36,113.56L116.61,113.03L76.33,100.85L76.21,99.91L75.30,99.10L74.92,97.65L74.79,96.82z"/><path style="fill:#e1e1e1" d="M76.45,101.65L84.80,104.25L116.76,113.79L118.52,114.32L156.84,125.69L156.55,128.91L156.31,129.26L118.63,118.12L116.85,117.62L76.56,105.18L76.46,104.20L76.06,103.91L75.94,103.72L75.55,101.38z"/><path style="fill:#e1e1e1" d="M29.97,102.88L30.92,102.69L31.25,106.42L31.08,106.59L30.25,106.60L30.10,106.44z"/><path style="fill:#e1e1e1" d="M115.21,117.93L116.80,118.31L118.53,118.86L156.31,130.27L156.03,132.72L155.68,133.38L154.49,133.39L103.55,117.93L78.21,110.08L77.23,109.29L76.69,108.31L76.33,106.19L76.78,106.12z"/><path style="fill:#e1e1e1" d="M29.68,107.67L29.86,108.71L28.96,108.09L28.96,107.54L29.57,107.43z"/><path style="fill:#e1e1e1" d="M229.60,129.05L229.52,130.53L227.89,129.65L227.98,128.88z"/><path style="fill:#e1e1e1" d="M117.03,160.71L117.51,161.77L117.15,162.78L116.24,162.78L115.45,161.78L115.46,160.31L116.50,160.22z"/><path style="fill:#e1e1e1" d="M231.64,165.55L231.68,169.77L231.20,170.17L230.76,170.16L230.31,169.78L230.33,165.55z"/><path style="fill:#e1e1e1" d="M233.83,172.67L233.74,173.44L231.88,173.30L231.46,172.98L231.52,171.97L232.39,171.74z"/><path style="fill:#000000" d="M29.23,99.51L31.07,99.51L31.26,99.08L31.58,99.16L31.62,102.32L30.92,102.69L29.97,102.88L28.97,102.55L28.80,99.26L29.08,99.10z"/><path style="fill:#000000" d="M30.25,106.60L31.08,106.59L31.25,106.42L31.59,106.52L31.84,107.79L31.77,109.32L30.07,109.32L29.86,108.71L29.68,107.67L29.57,107.43L29.95,106.51L30.10,106.44z"/><path style="fill:#000000" d="M232.07,129.04L232.05,130.94L231.80,131.21L231.70,131.92L232.05,132.12L232.32,132.53L231.99,132.61L229.73,132.61L229.61,132.53L229.68,132.12L230.28,131.91L230.28,131.38L229.78,131.09L229.52,130.53L229.60,129.05L231.02,128.55z"/><path style="fill:#ffffff" d="M167.28,37.81L167.17,39.95L166.91,40.97L164.12,47.05L162.85,46.97L161.51,46.54L161.34,40.63L160.74,39.35L162.24,36.47L163.11,36.57z"/><path style="fill:#ffffff" d="M262.20,55.58L262.71,57.87L262.46,60.74L261.93,62.24L259.33,68.00L258.14,68.01L257.29,67.76L257.41,60.63L256.79,59.87L258.82,55.84L260.15,54.63L261.45,54.55z"/><path style="fill:#ffffff" d="M155.46,58.84L155.75,58.89L155.80,59.18L155.51,59.13z"/><path style="fill:#ffffff" d="M250.55,81.16L250.22,81.24L250.31,80.92z"/><path style="fill:#ffffff" d="M157.83,115.57L157.82,116.31L154.99,115.66L118.11,105.09L118.14,104.41L119.02,104.49z"/><path style="fill:#ffffff" d="M157.31,120.12L157.32,121.10L118.32,109.69L118.37,109.00z"/><path style="fill:#ffffff" d="M130.92,117.17L156.79,124.68L156.84,125.69L118.52,114.32L118.36,113.56L119.02,113.60z"/><path style="fill:#ffffff" d="M156.31,129.26L156.31,130.27L118.53,118.86L118.63,118.12z"/><g id="Actor_.0"><g style="stroke:#000000;stroke-width:0.018"><path d="M232.73,161.35L232.57,161.56L232.26,161.74L231.82,161.87L231.30,161.94L230.75,161.94L230.23,161.87L229.79,161.74L229.46,161.56L229.29,161.35L229.28,161.13"/><path d="M232.33,160.80L232.33,161.23L232.26,161.42L232.05,161.58L231.57,161.72L231.28,161.77L230.82,161.77L230.38,161.71L230.02,161.60L229.78,161.44L229.68,161.25L229.68,160.79"/><path d="M231.53,131.36L231.53,131.68L231.67,131.98L231.92,132.22L231.80,132.35L231.54,132.46L231.20,132.52L230.82,132.52L230.46,132.47L230.18,132.38L230.01,132.25L229.99,132.11L230.25,131.90L230.33,131.72"/><path d="M229.99,132.11L230.26,131.86"/><path d="M230.38,131.68L230.38,131.62"/><path d="M229.62,132.17L229.71,132.34L229.96,132.49L230.32,132.60L230.76,132.66L230.82,161.77"/><path d="M229.79,130.94L229.78,129.14L229.82,128.95L229.93,128.84L231.10,129.17L231.98,128.73L232.12,128.84L232.17,129.01L232.22,128.94"/><path d="M229.69,129.08L229.78,129.14L230.95,129.46L230.99,129.28L231.10,129.17L231.24,129.27L231.29,129.45L231.13,129.48L230.95,129.46L230.95,131.27L230.19,131.05"/><path d="M230.30,131.14L230.27,131.11"/><path d="M229.79,128.86L229.93,128.84L230.81,128.40L232.08,128.75"/><path d="M230.76,165.45L230.75,161.94"/><path d="M230.76,132.66L231.23,132.65L231.66,132.59L232.01,132.47L232.23,132.32L232.30,132.15"/><path d="M231.67,131.90L231.65,131.86L231.90,132.07L231.92,132.22"/><path d="M231.65,131.86L231.58,131.72"/><path d="M230.95,131.27L231.14,131.29L231.30,131.25L231.29,129.45L232.17,129.01L232.18,130.81"/><path d="M231.30,131.25L231.79,131.01"/><path d="M231.61,131.14L231.65,131.12"/></g><g style="stroke:#000000;stroke-width:0.088"><path d="M229.29,164.63L229.30,164.86L229.47,165.07L229.80,165.25L230.24,165.38L230.76,165.45L231.31,165.45L231.82,165.38L232.26,165.25L232.58,165.07L232.74,164.86L232.73,161.13L232.55,160.92L232.33,160.80L232.30,132.15L232.20,131.98L231.96,131.83L231.59,131.72L231.53,131.62L231.53,131.36L231.65,131.12L231.79,131.01L232.18,130.81L232.22,130.75L232.22,128.94L232.19,128.85L232.08,128.75L230.81,128.40L230.67,128.43L229.79,128.86L229.72,128.95L229.69,129.08L229.69,130.88L229.79,130.94L230.19,131.05L230.27,131.11L230.38,131.36L230.38,131.62L230.33,131.72L229.91,131.85L229.69,132.00L229.62,132.17L229.68,160.79L229.45,160.92L229.28,161.13L229.29,164.63"/></g></g><g id="Actor_.1"><g style="stroke:#000000;stroke-width:0.018"><path d="M229.95,173.06L229.95,173.06"/><path d="M229.92,173.05L229.89,173.02L229.87,172.99L229.86,172.90L230.94,173.30L231.04,173.33L231.09,173.33L231.20,173.32L231.28,173.30L231.80,173.05"/><path d="M229.77,172.82L229.78,172.85L229.79,172.87L229.86,172.90L229.85,170.03L229.87,169.98L229.91,169.88L229.97,169.81L230.01,169.79L231.09,170.18L231.03,170.24L230.97,170.32L230.95,170.37L230.94,170.48L230.94,173.30L230.95,173.35L230.96,173.39L230.98,173.42L231.00,173.45L231.04,173.46"/><path d="M231.21,173.44L231.24,173.42L231.26,173.38L231.28,173.34L231.28,173.30L231.28,170.47L231.24,170.48L231.14,170.50L231.03,170.50L230.94,170.48L229.85,170.08L229.79,170.04L229.77,170.02L229.77,170.00"/><path d="M231.22,165.45L231.23,170.00L231.05,170.01L230.86,170.00L230.69,169.97L230.55,169.91L230.50,169.88L230.46,169.85L230.43,169.81L230.42,169.77L230.42,169.59L230.01,169.79L229.97,169.78L229.93,169.78L229.89,169.80"/><path d="M230.42,169.59L230.42,169.54"/><path d="M231.57,172.83L231.54,172.82L231.48,172.80L231.43,172.76L231.39,172.71L231.36,172.65L231.34,172.58L231.32,172.50L231.32,172.41L231.32,172.32L231.36,172.13L231.43,171.95L231.48,171.86L231.59,171.72L231.65,171.67L231.72,171.62L231.78,171.59L231.85,171.57L231.91,171.57L231.96,171.58L231.93,171.58"/><path d="M232.22,171.58L232.22,170.02L232.20,169.92L232.15,169.83L232.08,169.76L232.04,169.74L231.09,170.18L231.14,170.20L231.17,170.23L231.24,170.32L231.27,170.42L231.28,170.47L232.22,170.02L232.25,170.00L232.27,169.98L232.28,169.96"/><path d="M232.10,169.73L232.07,169.73L232.04,169.74L231.62,169.59L231.62,169.79L231.60,169.83L231.57,169.87L231.46,169.93L231.32,169.98L231.23,170.00"/><path d="M231.62,169.59L231.62,169.55"/><path d="M231.97,171.58L232.03,171.61"/><path d="M232.13,169.74L232.14,169.74"/></g><g style="stroke:#000000;stroke-width:0.088"><path d="M231.94,173.10L231.21,173.44L231.14,173.47L231.07,173.47L231.03,173.46L229.92,173.05L229.84,173.00L229.80,172.94L229.78,172.89L229.77,172.82L229.77,170.00L229.77,169.95L229.80,169.89L229.83,169.85L229.88,169.80L230.42,169.54L230.41,165.41"/><path d="M232.28,171.58L232.28,169.96L232.27,169.89L232.25,169.84L232.21,169.79L232.16,169.75L231.62,169.55L231.61,165.41"/></g></g><g id="Actor_.2"><g style="stroke:#000000;stroke-width:0.018"><path d="M227.79,129.30L227.82,129.01L227.96,128.75"/><path d="M228.91,129.82L228.90,129.66L228.95,129.33L227.82,129.01L227.80,129.00"/><path d="M229.70,129.00L229.58,129.14L229.44,129.45L229.38,129.79L229.42,130.10L229.54,130.30L229.69,130.36"/><path d="M229.44,129.45L228.95,129.31L229.10,129.00L229.17,128.92"/><path d="M228.95,129.31L228.95,129.33"/><path d="M229.69,130.03L229.64,130.01L229.57,129.80L229.60,129.51L229.69,129.53"/><path d="M229.69,129.34L229.60,129.51"/></g><g style="stroke:#000000;stroke-width:0.088"><path d="M229.69,130.36L229.24,130.23L229.05,130.17L228.93,129.96L228.91,129.82L228.03,129.57L227.87,129.51L227.79,129.30L227.77,129.24L227.80,129.00L227.91,128.80L227.96,128.75L228.14,128.63L229.17,128.92L229.29,128.78L229.50,128.70L229.90,128.81"/></g></g><g id="Actor_.3"><g style="stroke:#000000;stroke-width:0.018"><path d="M231.44,172.59L231.32,172.50"/><path d="M231.53,172.63L231.52,172.58L231.52,172.56L231.32,172.48"/><path d="M231.58,172.85L232.03,173.02L232.18,173.19"/><path d="M231.52,172.56L231.56,172.25L231.69,171.93L231.85,171.73"/><path d="M231.60,171.71L231.71,171.68L231.75,171.70"/><path d="M232.03,173.02L231.97,172.75L232.01,172.42L232.15,172.10L232.34,171.85L232.57,171.73L232.78,171.76"/><path d="M233.55,173.37L233.41,173.25L232.21,172.81L232.35,172.93L232.65,173.04"/><path d="M232.98,172.15L232.62,172.01L232.42,172.07L232.25,172.28L232.17,172.56L232.21,172.81"/><path d="M233.98,172.66L233.87,172.56L233.71,172.61L233.57,172.78L233.50,173.01L233.50,173.01L233.53,173.22L233.41,173.25L233.38,173.01L233.46,172.72L233.63,172.51L233.83,172.46"/><path d="M233.53,173.22L233.64,173.31L233.80,173.27"/></g><g style="stroke:#000000;stroke-width:0.088"><path d="M231.69,171.64L231.75,171.70L231.85,171.73L231.89,171.69L232.12,171.57L232.33,171.59L232.78,171.76L232.93,171.92L232.98,172.15L233.83,172.46L233.97,172.58L233.98,172.66L234.01,172.86L233.94,173.10L233.80,173.27L233.75,173.32L233.55,173.37L232.65,173.04L232.62,173.09L232.39,173.21L232.18,173.19L231.73,173.02L231.58,172.85L231.53,172.63L231.44,172.59L231.35,172.60"/></g></g><g id="Actor_.4"><g style="stroke:#000000;stroke-width:0.018"><path d="M27.27,73.59L27.16,72.07L27.11,72.03"/><path d="M29.10,71.79L28.99,71.77L28.08,72.05L27.98,72.14L27.94,72.29L28.23,72.28L28.34,73.80L28.06,73.81L27.94,72.29L27.16,72.07L27.20,71.92L27.30,71.83L28.08,72.05L28.18,72.14L28.23,72.28L29.14,72.00L29.09,71.85L28.99,71.77L28.21,71.55"/><path d="M31.22,98.79L31.23,99.16L31.10,99.28L30.86,99.39L30.53,99.47L30.15,99.52L29.79,99.52L27.97,74.97L27.64,74.93L27.40,74.86L27.27,74.76"/><path d="M28.86,73.69L28.75,73.96L28.77,74.23L28.89,74.48L29.10,74.68L28.94,74.77L28.68,74.84L28.29,74.88L27.81,74.85L27.63,74.78L27.56,74.70L27.61,74.60L27.76,74.45L27.75,74.48"/><path d="M27.84,74.00L27.83,73.98"/><path d="M27.76,74.45L27.78,74.40"/><path d="M27.97,74.97L28.34,74.97L28.72,74.93L29.05,74.85L29.30,74.75L29.43,74.63L29.44,74.52"/><path d="M28.06,73.81L27.57,73.67"/><path d="M27.71,73.77L27.76,73.81"/><path d="M28.73,99.23L28.78,99.37L28.97,99.50L29.27,99.58L29.66,99.63L30.10,99.63L30.53,99.59L31.12,99.44L31.28,99.38L31.51,99.24L31.60,99.09"/><path d="M29.78,99.52L29.46,99.48L29.22,99.40L29.09,99.29L29.07,98.94"/><path d="M29.10,74.68L29.15,74.58L29.08,74.50L28.92,74.38"/><path d="M28.80,74.17L28.80,74.19"/><path d="M28.92,74.38L28.89,74.33"/><path d="M28.56,73.41L28.39,73.27L28.32,73.04L28.36,72.75L28.49,72.51L28.70,72.37L28.85,72.38"/><path d="M28.34,73.80L28.92,73.61"/><path d="M29.20,71.95L29.14,72.00L29.16,72.36"/><path d="M29.88,102.60L29.66,99.63"/></g><g style="stroke:#000000;stroke-width:0.088"><path d="M28.94,73.62L28.86,73.69L28.78,73.92L28.80,74.16L28.89,74.33L29.07,74.35L29.31,74.42L29.44,74.52L31.22,98.79L31.36,98.83L31.55,98.95L31.60,99.09L31.81,102.05L31.72,102.20L31.50,102.34L31.17,102.46L30.77,102.55L30.32,102.60L29.88,102.60L29.49,102.55L29.19,102.46L29.00,102.34L28.95,102.20L28.73,99.23L28.82,99.09L29.07,98.94L27.27,74.76L27.27,74.65L27.41,74.53L27.78,74.40L27.85,74.23L27.83,73.99L27.71,73.77L27.57,73.67L27.27,73.59L27.23,73.55L27.11,72.03L27.14,71.93L27.20,71.88L28.21,71.55L29.10,71.79L29.20,71.95L29.24,72.37"/></g></g><g id="Actor_.5"><g style="stroke:#000000;stroke-width:0.018"><path d="M29.81,106.39L29.84,106.38L29.87,106.39L29.83,106.40L29.80,106.43L29.75,106.49L29.73,106.53L29.72,106.62L29.90,109.01L29.91,109.05L29.92,109.09L29.94,109.12L29.97,109.14"/><path d="M30.72,109.42L30.68,109.41L30.65,109.39L30.63,109.36L30.62,109.32L30.61,109.28L29.90,109.01L29.88,109.00L29.87,108.99L29.86,108.97"/><path d="M30.00,109.15L30.01,109.15"/><path d="M30.48,102.58L30.77,106.53L30.68,106.53L30.54,106.54L30.40,106.52L30.29,106.49L30.25,106.47L30.23,106.45L30.21,106.43L30.20,106.28L29.87,106.39L30.58,106.65L30.54,106.67L30.51,106.69L30.46,106.76L30.44,106.80L30.43,106.89L29.72,106.62L29.70,106.61L29.69,106.59L29.69,106.58"/><path d="M30.83,109.42L30.85,109.40L30.88,109.35L30.89,109.28L30.81,109.29L30.72,109.30L30.61,109.28L30.43,106.89L30.54,106.90L30.67,106.89L31.66,106.58L31.64,106.50L31.60,106.42L31.58,106.39L31.52,106.36L31.56,106.35L31.59,106.35"/><path d="M30.20,106.28L30.19,106.27"/><path d="M31.78,109.12L31.80,109.10L31.83,109.05L31.83,108.98L30.89,109.28L30.71,106.88L30.69,106.80L30.68,106.76L30.63,106.69L30.58,106.65L31.52,106.36L31.18,106.23L31.18,106.20"/><path d="M31.18,106.23L31.19,106.34L31.18,106.37L31.16,106.39L31.13,106.42L31.09,106.44L30.98,106.49L30.90,106.51L30.77,106.53"/><path d="M31.74,106.53L31.71,106.56L31.66,106.58L31.83,108.98L31.89,108.95L31.91,108.92"/><path d="M31.63,106.37L31.63,106.37"/></g><g style="stroke:#000000;stroke-width:0.088"><path d="M30.91,102.52L31.18,106.20L31.64,106.37L31.68,106.41L31.71,106.44L31.72,106.47L31.74,106.53L31.91,108.92L31.91,108.96L31.90,109.00L31.87,109.05L31.83,109.09L31.79,109.11L30.83,109.42L30.78,109.43L30.71,109.42L29.97,109.14L29.93,109.11L29.89,109.07L29.87,109.03L29.86,108.97L29.69,106.58L29.69,106.54L29.70,106.49L29.72,106.45L29.76,106.41L29.80,106.39L30.19,106.27L29.92,102.60"/></g></g><g id="Actor_.6"><g style="stroke:#000000;stroke-width:0.018"><path d="M28.35,73.13L28.37,73.13L28.48,73.22L28.46,73.16L28.37,73.13L28.33,72.95"/><path d="M28.48,73.22L28.51,73.28"/><path d="M28.46,73.16L28.46,73.15L28.48,72.87L28.59,72.60L28.70,72.48L28.54,72.51L28.42,72.63"/><path d="M29.03,73.64L28.87,73.48L28.54,73.39"/><path d="M28.87,73.48L28.79,73.24L28.80,72.96L28.91,72.69L29.09,72.50L29.31,72.41L29.52,72.45"/><path d="M29.52,73.53L29.17,73.43L29.03,73.32L28.97,73.10L29.04,72.86L29.19,72.69L29.38,72.66L29.74,72.76"/><path d="M29.03,73.32L29.89,73.56L30.04,73.68"/><path d="M28.70,72.48L28.73,72.45"/><path d="M28.37,72.73L28.35,72.80"/><path d="M30.40,73.02L30.40,73.09L30.28,72.99L30.12,73.02L29.99,73.15L29.94,73.35L29.99,73.53L29.89,73.56L29.84,73.34L29.90,73.11L30.06,72.94L30.25,72.91"/><path d="M30.40,73.09L30.44,73.27L30.39,73.46L30.26,73.60L30.11,73.62L29.99,73.53"/></g><g style="stroke:#000000;stroke-width:0.088"><path d="M28.67,72.39L28.73,72.45L28.77,72.41L28.99,72.32L29.20,72.36L29.52,72.45L29.68,72.61L29.74,72.76L30.25,72.91L30.40,73.02L30.45,73.24L30.39,73.48L30.23,73.65L30.04,73.68L29.52,73.53L29.46,73.60L29.24,73.68L29.03,73.64L28.70,73.55L28.54,73.39L28.51,73.28L28.49,73.29L28.41,73.29"/></g></g><g id="Actor_.7"><g style="stroke:#000000;stroke-width:0.018"><path d="M29.39,108.07L29.37,107.99L29.41,107.71L29.71,107.82L29.77,107.71"/><path d="M28.81,107.47L29.42,107.70L29.41,107.71"/><path d="M29.71,107.82L29.67,108.10L29.73,108.35L29.82,108.46"/><path d="M29.66,107.37L29.55,107.46L29.42,107.70"/></g><g style="stroke:#000000;stroke-width:0.088"><path d="M29.83,108.50L29.58,108.41L29.43,108.24L29.39,108.07L28.89,107.88L28.79,107.70L28.81,107.47L28.94,107.27L29.13,107.18L29.31,107.23L29.66,107.37L29.74,107.30"/></g></g><g id="Actor_.8"><g style="stroke:#000000;stroke-width:0.018"><path d="M116.30,162.13L116.43,162.11L116.38,162.17L116.16,162.20L116.30,162.13L116.10,162.04L115.90,161.86L115.76,161.62L115.67,161.35L115.67,161.09L116.57,161.83L116.58,161.79L115.70,161.07L115.74,160.94L115.71,160.92L115.82,160.80L115.73,160.81L115.57,160.98L115.51,161.24L115.56,161.56L115.70,161.86L115.91,162.09L116.16,162.20L116.56,162.74L116.22,162.62"/><path d="M115.70,161.07L115.67,161.08L115.69,161.00L115.71,160.92"/><path d="M116.58,161.79L116.59,161.74L116.55,161.43L116.40,161.13L116.19,160.90L115.95,160.78L116.15,159.96L116.49,160.09L116.81,160.34L117.08,160.69L117.29,161.10L117.40,161.54L117.41,161.96L117.32,162.32L117.13,162.59L116.87,162.73L116.56,162.74L116.58,162.75L116.57,162.75"/><path d="M115.74,160.94L116.58,161.63"/><path d="M115.67,161.08L115.67,161.09"/><path d="M116.19,159.92L116.17,159.93L116.15,159.96L115.84,159.97L115.58,160.12L115.39,160.38"/><path d="M115.95,160.78L115.82,160.80"/><path d="M117.42,162.16L117.48,161.94L117.47,161.52L117.35,161.07L117.15,160.66L116.87,160.30L116.60,160.10"/><path d="M116.57,161.83L116.53,162.01L116.43,162.11"/><path d="M116.54,160.05L116.54,160.05"/></g><g style="stroke:#000000;stroke-width:0.088"><path d="M116.57,162.75L116.22,162.62L115.90,162.37L115.63,162.02L115.43,161.60L115.31,161.16L115.30,160.75L115.40,160.36L115.59,160.09L115.86,159.94L116.19,159.92L116.54,160.05"/><path d="M116.58,162.75L116.90,162.74L117.17,162.60L117.20,162.57L117.38,162.31L117.42,162.16"/><path d="M116.54,160.05L116.60,160.10"/></g></g><g id="Actor_.9"><g style="stroke:#000000;stroke-width:0.018"><path d="M61.89,145.37L51.63,74.12L51.83,74.08"/><path d="M55.00,75.89L54.81,75.93L51.59,74.07"/><path d="M52.01,73.97L51.72,73.97"/><path d="M51.88,74.11L52.32,74.36"/><path d="M68.12,149.59L54.81,75.93L71.80,80.99L110.45,91.87L159.04,105.21L181.10,110.98L171.28,185.81"/><path d="M68.22,149.63L54.96,76.17L54.93,75.98L55.08,75.92"/><path d="M78.15,109.90L77.78,109.86L77.18,109.37L76.51,107.99L73.25,88.82L73.44,88.54"/><path d="M73.50,90.33L73.66,90.28"/><path d="M73.25,88.82L73.40,88.77"/><path d="M76.63,107.79L76.48,107.85"/><path d="M76.38,106.30L76.22,106.36"/><path d="M78.00,109.96L114.61,121.29L147.19,131.17L154.63,133.40L155.44,133.30"/><path d="M135.06,164.04L134.18,164.27L133.27,164.13L100.09,152.75L98.66,151.85L97.55,150.34L96.88,148.27L95.90,130.57L95.91,129.28L96.18,128.30L96.64,127.62L97.33,127.17"/><path d="M95.88,130.17L96.03,130.11"/><path d="M96.98,147.75L96.83,147.81"/><path d="M100.01,152.73L100.16,152.66"/><path d="M114.76,121.22L114.61,121.29"/><path d="M133.27,164.13L133.42,164.06"/><path d="M154.48,133.37L154.65,133.30"/><path d="M171.43,185.84L181.39,110.92"/><path d="M181.24,110.91L181.10,110.98L188.84,112.05L183.40,187.76"/><path d="M183.96,187.69L189.44,112.07L189.27,111.93"/><path d="M189.67,112.01L188.98,111.98"/><path d="M189.47,111.93L189.50,111.95"/></g><g style="stroke:#000000;stroke-width:0.088"><path d="M52.22,78.46L51.59,74.07L51.81,73.95L52.15,74.03L52.32,74.36L55.00,75.88L60.51,77.59L82.57,83.94L124.37,95.62L163.77,106.38L181.24,110.90L189.67,112.01L189.79,112.28L189.73,113.16L184.35,187.01L184.07,187.60L183.49,187.77L171.31,185.82L149.74,178.47L107.92,163.86L68.22,149.63L61.89,145.37L52.22,78.46"/><path d="M73.85,91.40L73.43,88.54L113.63,100.15L157.87,112.62L158.09,113.04L156.14,132.09L155.97,132.72L155.39,133.32L154.65,133.30L114.76,121.22L77.93,109.80L77.17,109.10L76.66,107.93L73.85,91.40"/><path d="M96.82,144.82L96.02,129.65L96.19,128.62L96.54,127.87L97.08,127.31L97.63,127.09L98.66,127.17L132.63,137.98L133.77,138.78L134.61,139.79L135.23,141.00L135.60,142.46L136.34,161.20L136.28,162.10L135.99,163.04L135.56,163.66L135.06,164.04L134.33,164.20L133.42,164.06L99.90,152.56L98.49,151.46L97.39,149.60L97.03,148.21L96.82,144.82"/></g></g><g id="Actor_.10"><g style="stroke:#000000;stroke-width:0.018"><path d="M116.65,158.34L116.67,158.16L116.82,157.91L100.64,152.32L100.16,152.10L99.62,151.71L99.12,151.20L98.66,150.59L98.38,150.11L98.03,149.35L97.77,148.51L97.60,147.59L97.55,146.99L99.20,145.36L99.21,146.01L99.31,146.89L99.53,147.81L99.80,148.55L100.24,149.38L100.66,149.97L101.35,150.60L101.82,150.87L134.97,162.16L135.06,161.96L102.11,150.76L102.02,150.95L100.59,152.38L100.51,152.52L100.47,152.76L99.94,152.52L99.54,152.25L99.00,151.78L98.61,151.35L97.95,150.37L97.43,149.27L97.24,148.69L97.04,147.83L96.95,147.02L96.21,133.52"/><path d="M96.95,147.02L97.25,147.05L97.55,146.99L96.63,130.21L100.05,129.11L99.20,145.36L99.50,145.38L99.51,146.29L99.63,147.17L99.86,148.02L100.26,148.95L100.67,149.61L101.15,150.16L101.53,150.46L102.11,150.76"/><path d="M96.03,130.24L96.33,130.27L96.63,130.21L96.65,129.43L96.77,128.79L96.90,128.40L97.28,127.76L97.52,127.52L97.80,127.33L98.10,127.19L98.43,127.11"/><path d="M96.39,128.11L96.13,128.90L96.02,129.86"/><path d="M96.03,129.97L96.03,130.16"/><path d="M99.50,145.38L100.35,129.13L100.05,129.11L100.15,128.33L100.33,127.71"/><path d="M100.47,152.76L102.78,153.57"/><path d="M100.35,129.13L100.45,128.39L100.62,127.80"/><path d="M116.82,157.91L133.59,163.59L133.46,163.80L133.42,164.05L131.00,163.24"/><path d="M133.42,164.05L134.14,164.20L134.51,164.19"/><path d="M136.26,162.20L135.61,162.28L134.97,162.16L133.59,163.59L134.25,163.72L134.79,163.68L135.28,163.49L135.58,163.30L135.88,163.02"/><path d="M135.87,163.05L135.83,163.10L136.12,162.70L136.07,162.79"/><path d="M135.98,162.90L135.87,163.04"/><path d="M136.04,162.82L135.96,162.95"/><path d="M135.06,161.96L135.66,162.07L136.30,161.99"/><path d="M136.15,162.66L136.12,162.70"/></g></g><g id="Actor_.11"><g style="stroke:#000000;stroke-width:0.018"><path d="M73.98,92.16L112.03,103.30L157.75,116.35"/><path d="M157.63,117.55L113.20,104.81L74.18,93.35"/><path d="M157.65,117.32L113.09,104.56L74.14,93.12"/><path d="M75.85,95.13L115.32,106.78L157.49,118.93"/><path d="M75.91,95.25L115.37,106.90L157.47,119.04"/></g><g style="stroke:#000000;stroke-width:0.088"><path d="M73.96,92.06L112.18,103.24L157.76,116.25"/><path d="M74.24,93.71L75.89,95.18L75.97,96.21L115.47,107.91L157.37,120.03"/></g></g><g id="Actor_.12"><g style="stroke:#000000;stroke-width:0.018"><path d="M116.38,103.61L116.42,104.45"/><path d="M117.05,118.32L117.01,117.43"/><path d="M117.39,113.88L117.35,113.00"/><path d="M116.80,112.84L116.84,113.72"/><path d="M117.14,108.40L117.18,109.26"/><path d="M116.59,108.24L116.63,109.10"/><path d="M116.93,103.77L116.97,104.61"/><path d="M118.19,117.78L118.23,118.68"/><path d="M117.60,118.49L117.56,117.59"/><path d="M118.02,114.07L117.98,113.19"/><path d="M117.77,108.58L117.81,109.44"/><path d="M117.56,103.95L117.60,104.79"/></g><g style="stroke:#000000;stroke-width:0.088"><path d="M116.30,104.42L116.26,103.58"/><path d="M116.90,117.39L116.94,118.29"/><path d="M116.73,113.68L116.69,112.81"/><path d="M116.52,109.06L116.48,108.20"/><path d="M118.49,114.21L118.45,113.33"/><path d="M118.28,109.58L118.24,108.72"/><path d="M118.07,104.93L118.03,104.09"/><path d="M118.70,118.82L118.65,117.92"/></g></g><g id="Actor_.13"><g style="stroke:#000000;stroke-width:0.018"><path d="M157.15,122.18L113.41,109.43L74.96,97.96"/><path d="M74.92,97.74L113.31,109.18L157.18,121.95"/><path d="M74.76,96.78L112.25,107.92L157.27,120.99"/><path d="M76.13,99.57L115.54,111.38L157.02,123.53"/><path d="M76.18,99.69L115.59,111.51L157.00,123.64"/></g><g style="stroke:#000000;stroke-width:0.088"><path d="M157.29,120.88L112.40,107.86L74.74,96.67"/><path d="M75.08,98.65L76.17,99.62L76.24,100.65L115.68,112.51L156.90,124.62"/></g></g><g id="Actor_.14"><g style="stroke:#000000;stroke-width:0.018"><path d="M156.68,126.78L113.63,114.04L75.74,102.56"/><path d="M156.71,126.55L113.53,113.79L75.71,102.34"/><path d="M156.80,125.60L112.47,112.53L75.54,101.38"/><path d="M76.41,104.00L115.75,115.97L156.55,128.10"/><path d="M76.46,104.12L115.80,116.09L156.54,128.21"/></g><g style="stroke:#000000;stroke-width:0.088"><path d="M156.44,129.19L115.89,117.09L76.52,105.07L76.44,104.05L75.91,103.57"/><path d="M156.81,125.49L112.62,112.47L75.52,101.28"/></g></g><g id="Actor_.15"><g style="stroke:#000000;stroke-width:0.018"><path d="M156.01,132.63L115.96,120.54L76.82,108.45"/><path d="M76.87,108.57L116.01,120.66L155.97,132.73"/><path d="M156.21,131.36L113.85,118.63L76.52,107.15"/><path d="M156.24,131.13L113.75,118.38L76.49,106.93"/><path d="M156.33,130.18L112.69,117.12L76.32,105.98"/></g><g style="stroke:#000000;stroke-width:0.088"><path d="M156.35,130.07L112.84,117.05L76.30,105.87"/></g></g><g id="Actor_.16"><g style="stroke:#000000;stroke-width:0.018"><path d="M158.07,112.89L112.98,100.17L73.40,88.73"/><path d="M75.58,90.67L115.11,102.15L157.96,114.31"/><path d="M75.63,90.80L115.16,102.28L157.95,114.42"/></g><g style="stroke:#000000;stroke-width:0.088"><path d="M73.40,88.74L75.58,90.67L75.69,91.76L115.25,103.29L157.84,115.42"/></g></g><g id="Actor_.17"><g style="stroke:#000000;stroke-width:0.088"><path d="M76.09,96.25L76.14,97.09"/><path d="M75.86,92.62L75.81,91.79"/><path d="M76.64,105.11L76.70,105.99"/><path d="M76.42,101.55L76.36,100.68"/></g></g><g id="Actor_.18"><g style="stroke:#000000;stroke-width:0.018"><path d="M159.89,35.63L159.75,35.63L159.62,35.66L159.54,35.73L159.50,35.83L159.52,35.96L159.57,36.09"/><path d="M168.95,35.23L167.52,37.44L159.97,35.43L159.72,35.38L159.50,35.38L159.33,35.43L159.22,35.52"/><path d="M160.11,35.66L159.97,35.43L161.40,33.24"/><path d="M167.52,37.44L167.65,37.67"/></g><g style="stroke:#000000;stroke-width:0.088"><path d="M159.89,35.63L160.11,35.66L167.65,37.67L169.08,35.47L168.95,35.23L161.40,33.24L161.14,33.19L160.93,33.19L160.76,33.24L160.65,33.33L159.22,35.52L159.18,35.66L159.19,35.82L159.27,36.02L159.57,36.11"/></g></g><g id="Actor_.19"><g style="stroke:#000000;stroke-width:0.018"><path d="M157.65,39.57L157.65,39.57"/></g><g style="stroke:#000000;stroke-width:0.088"><path d="M157.30,39.74L157.39,39.66L157.65,39.57L157.85,39.61"/></g></g><g id="Actor_.20"><g style="stroke:#000000;stroke-width:0.018"><path d="M158.17,39.87L160.21,35.69"/><path d="M162.45,51.19L159.50,57.27"/><path d="M161.81,36.96L161.76,36.68L161.55,36.48L160.87,36.07L160.15,35.81L159.71,35.82"/><path d="M165.22,31.83L164.53,31.87L163.83,32.05L162.89,32.53L161.85,33.36"/><path d="M164.40,47.16L167.17,41.35L167.58,39.63L167.65,38.75L167.59,37.65"/><path d="M165.09,34.21L165.20,34.21"/><path d="M166.39,42.17L167.17,42.26L167.91,42.61L168.39,42.99L168.47,43.29"/><path d="M166.68,41.50L166.69,41.48"/><path d="M167.21,39.23L167.22,39.18"/><path d="M257.96,57.17L257.91,57.00L257.43,56.58L256.18,56.05L254.11,60.57"/><path d="M257.78,72.65L254.74,79.32"/><path d="M255.52,56.16L255.84,56.01L256.18,56.05L257.24,54.19L258.49,52.76L259.84,51.88L260.51,51.66L261.17,51.60"/><path d="M258.77,55.73L258.74,55.79"/><path d="M264.06,63.84L263.82,63.46L263.51,63.24L262.31,62.74L259.81,68.21"/><path d="M260.53,54.24L260.32,54.35"/><path d="M261.14,54.19L260.93,54.21"/><path d="M261.31,54.31L261.96,54.67L262.37,55.13L262.71,55.71L262.97,56.42L263.23,58.09L263.12,59.97L262.66,61.86L262.31,62.74L261.78,62.72L261.65,62.84"/><path d="M262.00,54.94L261.78,54.70"/><path d="M262.52,56.40L262.51,56.35"/><path d="M262.42,51.96L262.41,51.95"/></g><g style="stroke:#000000;stroke-width:0.088"><path d="M159.81,35.63L157.77,39.84"/><path d="M159.09,57.18L162.05,51.10"/><path d="M162.22,36.23L160.69,39.28"/><path d="M162.30,56.05L161.48,57.73"/><path d="M164.93,50.60L168.47,43.29L169.19,41.38L169.41,40.42L169.61,38.49L169.45,36.47L169.24,35.59L168.56,34.06L167.93,33.22L167.40,32.71L166.53,32.19L165.89,31.94L165.22,31.83L164.27,31.88L163.52,32.06L162.83,32.38L161.56,33.28"/><path d="M164.43,51.64L163.36,53.86"/><path d="M164.01,47.06L166.68,41.50L167.10,39.98L167.22,39.18L167.20,37.55"/><path d="M254.18,79.20L255.24,76.88"/><path d="M253.62,60.46L253.64,60.24L255.99,55.26L257.22,53.50L258.49,52.38L259.46,51.87L260.14,51.66L261.17,51.60L261.81,51.70L262.75,52.10L263.27,52.48L264.01,53.30L264.75,54.71L265.05,55.82L265.29,57.67L265.20,59.77L265.00,60.93L264.45,62.88L261.48,69.51"/><path d="M256.11,74.96L257.23,72.52"/><path d="M256.79,79.80L259.84,73.11"/><path d="M259.25,68.09L261.65,62.84L262.25,61.19L262.46,60.33L262.67,58.58L262.61,56.92L262.33,55.75L262.08,55.17L261.65,54.56L261.31,54.31L260.68,54.23L260.03,54.51L259.08,55.36L258.34,56.42L256.75,59.82"/></g></g><g id="Actor_.21"><g style="stroke:#000000;stroke-width:0.018"><path d="M253.64,60.20L253.65,60.21"/></g><g style="stroke:#000000;stroke-width:0.088"><path d="M157.30,39.74L157.65,39.57L157.85,39.61"/><path d="M253.66,60.20L253.42,60.16L253.07,60.34"/></g></g><g id="Actor_.22"><g style="stroke:#000000;stroke-width:0.018"><path d="M155.41,58.61L155.16,58.70L155.21,58.91L155.49,59.18L155.72,59.08"/><path d="M155.16,58.70L155.12,57.26L155.37,57.17"/><path d="M155.12,57.26L155.27,56.94L155.44,56.93"/><path d="M155.49,56.34L155.23,56.43L161.27,57.83L161.52,57.74"/><path d="M155.23,56.43L154.97,56.44"/><path d="M158.40,65.13L158.15,65.22L158.20,65.44L158.48,65.71L158.72,65.61"/><path d="M158.15,65.22L158.11,63.78L158.26,63.47L158.43,63.46"/><path d="M158.36,63.69L158.11,63.78"/><path d="M159.20,66.33L162.05,60.72L162.30,60.63"/><path d="M161.08,59.94L160.83,60.03L160.88,60.24L161.16,60.51L161.40,60.41"/><path d="M160.83,60.03L160.79,58.58L160.94,58.26L161.12,58.25"/><path d="M160.79,58.58L161.04,58.49"/><path d="M162.05,60.72L161.94,58.54L161.78,58.21L161.27,57.83"/><path d="M162.01,58.90L162.26,58.81"/><path d="M250.01,80.72L249.77,80.83L249.95,81.25L250.14,81.36L250.43,81.25"/><path d="M249.77,80.83L249.78,79.27L250.02,79.16"/><path d="M249.78,79.27L249.83,79.06L250.12,78.92"/><path d="M250.20,78.27L249.64,78.38"/><path d="M249.96,78.38L257.15,80.05L257.47,80.20L257.75,80.47L257.93,80.83L257.99,81.23L258.23,81.12"/><path d="M253.74,88.37L253.48,88.48L253.25,88.38L253.07,87.96L253.31,87.85"/><path d="M253.07,87.96L253.08,86.40L253.33,86.29"/><path d="M253.08,86.40L253.14,86.19L253.41,86.05"/><path d="M254.28,89.17L257.96,83.19L258.20,83.08"/><path d="M257.20,82.83L256.90,82.94L256.75,82.86L256.57,82.64L256.52,82.41L256.54,80.84L256.59,80.63L256.87,80.49"/><path d="M256.52,82.41L256.76,82.30"/><path d="M256.54,80.84L256.78,80.73"/><path d="M257.15,80.05L257.39,79.94"/><path d="M257.96,83.19L257.99,81.23"/></g><g style="stroke:#000000;stroke-width:0.088"><path d="M155.50,60.93L157.79,65.99L159.20,66.33L159.45,66.23L162.30,60.63L162.19,58.45L162.03,58.12L161.52,57.74L155.49,56.34L154.97,56.44L154.75,56.58L154.60,56.84L154.61,58.97L155.50,60.93"/><path d="M155.46,58.82L155.72,59.08L155.80,58.85L155.75,57.41L155.66,57.13L155.44,56.93L155.37,57.17L155.46,58.82"/><path d="M158.45,65.35L158.36,63.69L158.43,63.46L158.70,63.72L158.75,63.94L158.75,65.57L158.57,65.52L158.45,65.35"/><path d="M161.13,60.15L161.40,60.41L161.47,60.18L161.43,58.76L161.39,58.51L161.12,58.25L161.04,58.49L161.13,60.15"/><path d="M249.09,81.11L252.59,88.77L254.28,89.17L254.52,89.07L258.20,83.08L258.23,81.12L258.17,80.73L257.99,80.37L257.71,80.09L257.39,79.94L250.22,78.28L249.88,78.28L249.36,78.53L249.18,78.80L249.09,81.11"/><path d="M250.01,80.52L250.06,80.96L250.20,81.15L250.47,81.21L250.54,79.44L250.35,79.02L250.16,78.92L250.02,79.16L250.01,80.52"/><path d="M253.31,87.31L253.36,88.08L253.48,88.26L253.77,88.34L253.84,86.58L253.79,86.35L253.48,86.06L253.41,86.05L253.33,86.29L253.31,87.31"/><path d="M256.95,82.73L257.23,82.80L257.29,82.59L257.31,81.02L257.26,80.79L256.93,80.49L256.78,80.73L256.76,82.30L256.95,82.73"/></g></g><g id="Actor_.23"><g style="stroke:#000000;stroke-width:0.018"><path d="M256.10,74.99L256.32,75.86L255.36,76.61L161.45,55.10"/><path d="M255.39,76.62L255.21,76.93L255.27,76.81"/></g><g style="stroke:#000000;stroke-width:0.088"><path d="M161.01,54.17L161.04,54.10"/><path d="M162.14,56.01L255.01,77.36"/><path d="M256.12,74.94L162.90,53.75"/></g></g><g id="Actor_.24"><g style="stroke:#000000;stroke-width:0.018"><path d="M162.54,50.03L162.52,50.06L162.53,50.26L162.62,50.43L162.74,50.51"/></g></g><g id="Actor_.25"><g style="stroke:#000000;stroke-width:0.018"><path d="M163.57,48.44L163.55,48.48L163.55,48.67L163.65,48.85L163.77,48.92"/></g></g><g id="Actor_.26"><g style="stroke:#000000;stroke-width:0.018"><path d="M157.57,48.92L157.55,48.95L157.55,49.14L157.64,49.31L157.76,49.39"/></g></g><g id="Actor_.27"><g style="stroke:#000000;stroke-width:0.018"><path d="M155.73,57.49L155.71,57.49L155.63,57.62L155.63,57.81L155.73,57.99L155.77,58.02"/></g></g><g id="Actor_.28"><g style="stroke:#000000;stroke-width:0.018"><path d="M250.42,79.51L250.38,79.51L250.28,79.65L250.28,79.86L250.38,80.05L250.53,80.14"/><path d="M250.52,79.57L250.51,79.57L250.53,79.79L250.53,79.80"/></g></g><g id="Actor_.29"><g style="stroke:#000000;stroke-width:0.018"><path d="M257.18,81.08L257.14,81.09L257.03,81.23L257.03,81.43L257.13,81.63L257.30,81.72"/><path d="M257.30,81.39L257.28,81.36L257.27,81.14L257.27,81.14"/></g></g><g id="Actor_.30"><g style="stroke:#000000;stroke-width:0.018"><path d="M260.12,70.35L260.04,70.37L259.87,70.26L259.77,70.07L259.77,69.86L259.82,69.80"/><path d="M260.04,70.37L260.13,70.33"/><path d="M260.10,70.12L260.02,70.00L260.02,69.97"/></g></g><g id="Actor_.31"><g style="stroke:#000000;stroke-width:0.018"><path d="M158.72,64.01L158.70,64.02L158.62,64.15L158.63,64.34L158.72,64.51L158.77,64.54"/></g></g><g id="Actor_.32"><g style="stroke:#000000;stroke-width:0.018"><path d="M258.51,71.50L258.47,71.55L258.46,71.76L258.57,71.95L258.73,72.05L258.81,72.04"/><path d="M258.73,72.05L258.82,72.02"/><path d="M258.78,71.80L258.71,71.69L258.71,71.67"/></g></g><g id="Actor_.33"><g style="stroke:#000000;stroke-width:0.018"><path d="M252.87,70.71L252.80,70.72L252.64,70.62L252.53,70.43L252.54,70.23L252.58,70.17"/><path d="M252.88,70.69L252.80,70.72"/><path d="M252.84,70.45L252.78,70.36L252.78,70.35"/></g></g><g id="Actor_.34"><g style="stroke:#000000;stroke-width:0.018"><path d="M161.40,58.81L161.38,58.81L161.30,58.95L161.31,59.14L161.40,59.31L161.45,59.34"/><path d="M162.38,59.10L162.34,58.74L162.25,58.77"/><path d="M162.27,59.39L162.36,59.36"/></g><g style="stroke:#000000;stroke-width:0.088"><path d="M162.27,59.40L162.36,59.36L162.38,59.10L162.38,58.94L162.34,58.74L162.22,58.59"/></g></g><g id="Actor_.35"><g style="stroke:#000000;stroke-width:0.018"><path d="M253.72,86.64L253.68,86.64L253.58,86.78L253.57,86.99L253.68,87.18L253.84,87.27"/><path d="M253.84,86.93L253.82,86.91L253.81,86.69"/></g></g><g id="Actor_.36"><g style="stroke:#000000;stroke-width:0.018"><path d="M158.77,64.70L158.71,64.71L158.54,64.61L158.43,64.40L158.42,64.18L158.52,64.02L158.61,64.01"/><path d="M158.77,64.69L158.71,64.71"/><path d="M158.72,64.62L158.77,64.65"/><path d="M158.53,64.22L158.52,64.14L158.55,64.10"/><path d="M158.57,64.44L158.64,64.57L158.67,64.59"/><path d="M158.53,64.26L158.53,64.36L158.57,64.43"/><path d="M158.60,64.01L158.61,64.01"/></g><g style="stroke:#000000;stroke-width:0.088"><path d="M158.40,65.07L158.45,65.12L158.72,65.25L158.79,65.25"/><path d="M158.77,64.65L158.72,64.62L158.67,64.59L158.57,64.44L158.57,64.43L158.53,64.26L158.53,64.22L158.55,64.10L158.60,64.01L158.61,64.01L158.69,63.99L158.75,64.04"/></g></g><g id="Actor_.37"><g style="stroke:#000000;stroke-width:0.018"><path d="M258.78,72.15L258.58,72.18L258.38,72.06L258.26,71.83L258.27,71.59L258.36,71.47"/><path d="M258.58,72.18L258.68,72.14L258.61,72.09"/><path d="M258.69,72.14L258.68,72.14"/><path d="M258.42,71.90L258.48,72.02L258.51,72.04"/><path d="M258.36,71.70L258.36,71.79L258.39,71.85"/><path d="M258.48,72.02L258.48,72.02"/><path d="M258.36,71.62L258.36,71.55L258.39,71.51"/><path d="M258.36,71.55L258.36,71.55"/></g><g style="stroke:#000000;stroke-width:0.088"><path d="M258.79,72.12L258.69,72.14L258.61,72.09L258.51,72.04L258.42,71.90L258.39,71.85L258.36,71.70L258.36,71.62L258.39,71.51L258.43,71.46"/></g></g><g id="Actor_.38"><g style="stroke:#000000;stroke-width:0.018"><path d="M253.57,86.64L253.50,86.65L253.38,86.82L253.38,87.06L253.50,87.28L253.69,87.40L253.83,87.38"/><path d="M253.47,86.84L253.47,86.78L253.50,86.74"/><path d="M253.47,86.92L253.47,87.02L253.50,87.08"/><path d="M253.69,87.40L253.79,87.36L253.71,87.31"/><path d="M253.79,87.36L253.80,87.36"/><path d="M253.53,87.12L253.59,87.24L253.63,87.26"/></g><g style="stroke:#000000;stroke-width:0.088"><path d="M253.31,87.78L253.37,87.84L253.69,87.99L253.83,87.99"/><path d="M253.83,87.36L253.80,87.36L253.71,87.31L253.63,87.26L253.53,87.12L253.50,87.08L253.47,86.92L253.47,86.84L253.50,86.74L253.57,86.64L253.70,86.63L253.84,86.71"/></g></g><g id="Actor_.39"><g style="stroke:#000000;stroke-width:0.018"><path d="M161.45,59.50L161.39,59.51L161.22,59.40L161.11,59.20L161.10,58.98L161.20,58.82L161.29,58.80"/><path d="M161.45,59.49L161.39,59.51"/><path d="M161.28,58.81L161.29,58.80"/><path d="M161.40,59.42L161.45,59.46"/><path d="M161.21,59.02L161.20,58.94L161.23,58.90"/><path d="M161.25,59.24L161.32,59.37L161.35,59.39"/><path d="M161.25,59.23L161.21,59.16L161.21,59.06"/></g><g style="stroke:#000000;stroke-width:0.088"><path d="M161.08,59.87L161.13,59.92L161.40,60.06L161.47,60.06"/><path d="M161.44,58.83L161.37,58.79L161.29,58.80L161.28,58.81L161.23,58.90L161.21,59.02L161.21,59.06L161.25,59.23L161.25,59.24L161.35,59.39L161.40,59.42L161.45,59.45"/></g></g><g id="Actor_.40"><g style="stroke:#000000;stroke-width:0.018"><path d="M155.62,57.48L155.53,57.50L155.43,57.65L155.44,57.88L155.55,58.08L155.71,58.19L155.78,58.18"/><path d="M155.53,57.70L155.53,57.62L155.56,57.58"/><path d="M155.57,57.91L155.54,57.84L155.54,57.74"/><path d="M155.71,58.19L155.78,58.17"/><path d="M155.73,58.10L155.78,58.13"/><path d="M155.58,57.92L155.65,58.05L155.68,58.07"/><path d="M155.61,57.49L155.62,57.48"/></g><g style="stroke:#000000;stroke-width:0.088"><path d="M155.41,58.55L155.46,58.60L155.73,58.73L155.79,58.73"/><path d="M155.78,58.13L155.73,58.10L155.68,58.07L155.58,57.92L155.57,57.91L155.54,57.74L155.53,57.70L155.56,57.58L155.61,57.49L155.62,57.48L155.69,57.47L155.76,57.51"/></g></g><g id="Actor_.41"><g style="stroke:#000000;stroke-width:0.018"><path d="M250.28,79.51L250.20,79.52L250.08,79.69L250.08,79.93L250.20,80.16L250.39,80.28L250.53,80.26"/><path d="M250.17,79.72L250.17,79.65L250.20,79.61"/><path d="M250.21,79.95L250.17,79.89L250.17,79.80"/><path d="M250.39,80.28L250.49,80.23L250.50,80.23"/><path d="M250.49,80.23L250.41,80.19"/><path d="M250.23,80.00L250.29,80.11L250.33,80.14"/></g><g style="stroke:#000000;stroke-width:0.088"><path d="M250.52,80.86L250.39,80.86L250.07,80.71L250.01,80.65"/><path d="M250.53,80.23L250.50,80.23L250.41,80.19L250.33,80.14L250.23,80.00L250.21,79.95L250.17,79.80L250.17,79.72L250.20,79.61L250.28,79.51L250.40,79.50L250.54,79.58"/></g></g><g id="Actor_.42"><g style="stroke:#000000;stroke-width:0.018"><path d="M257.03,81.09L256.96,81.10L256.84,81.26L256.83,81.51L256.95,81.73L257.15,81.85L257.30,81.83"/><path d="M257.15,81.85L257.25,81.81L257.17,81.76"/><path d="M257.26,81.81L257.25,81.81"/><path d="M256.99,81.57L257.05,81.69L257.08,81.71"/><path d="M256.93,81.29L256.93,81.22L256.96,81.19"/><path d="M256.93,81.37L256.93,81.46L256.96,81.53"/></g><g style="stroke:#000000;stroke-width:0.088"><path d="M256.76,82.23L256.82,82.29L257.15,82.44L257.29,82.44"/><path d="M257.30,81.80L257.26,81.81L257.17,81.76L257.08,81.71L256.99,81.57L256.96,81.53L256.93,81.37L256.93,81.29L256.96,81.19L257.03,81.09L257.16,81.07L257.30,81.16"/></g></g><g id="Actor_.43"><g style="stroke:#000000;stroke-width:0.018"><path d="M251.60,68.57L251.41,68.60L251.21,68.48L251.17,68.41"/><path d="M251.41,68.60L251.51,68.56L251.44,68.52"/><path d="M251.51,68.56L251.51,68.56"/><path d="M251.34,68.46L251.31,68.44"/><path d="M251.31,68.44L251.31,68.44"/></g><g style="stroke:#000000;stroke-width:0.088"><path d="M251.44,68.52L251.51,68.56"/><path d="M251.51,68.56L251.61,68.54"/><path d="M251.33,68.44L251.34,68.46"/><path d="M251.44,68.52L251.34,68.46"/></g></g><g id="Actor_.44"><g style="stroke:#000000;stroke-width:0.018"><path d="M252.84,70.82L252.65,70.85L252.45,70.73L252.33,70.50L252.34,70.26L252.42,70.14"/><path d="M252.65,70.85L252.75,70.80L252.68,70.76"/><path d="M252.75,70.80L252.75,70.80"/><path d="M252.46,70.18L252.43,70.22L252.43,70.29"/><path d="M252.49,70.57L252.55,70.69L252.58,70.71"/><path d="M252.46,70.52L252.43,70.46L252.43,70.37"/></g><g style="stroke:#000000;stroke-width:0.088"><path d="M252.85,70.79L252.75,70.80L252.68,70.76"/><path d="M252.68,70.76L252.58,70.71L252.49,70.57L252.46,70.52L252.43,70.37L252.43,70.29L252.46,70.18L252.50,70.13"/></g></g><g id="Actor_.45"><g style="stroke:#000000;stroke-width:0.018"><path d="M259.66,69.78L259.57,69.90L259.57,70.14L259.69,70.37L259.89,70.49L260.09,70.46"/><path d="M259.89,70.49L259.99,70.45L259.92,70.41"/><path d="M259.99,70.45L259.99,70.45"/><path d="M259.67,69.93L259.67,69.86L259.70,69.82"/><path d="M259.67,69.86L259.67,69.86"/><path d="M259.73,70.22L259.79,70.33L259.82,70.35"/><path d="M259.79,70.33L259.79,70.33"/><path d="M259.67,70.01L259.67,70.10L259.70,70.16"/></g><g style="stroke:#000000;stroke-width:0.088"><path d="M260.10,70.43L259.99,70.45L259.92,70.41"/><path d="M259.92,70.41L259.82,70.35L259.73,70.22L259.70,70.16L259.67,70.01L259.67,69.93L259.70,69.82L259.73,69.77"/></g></g><g id="Actor_.46"><g style="stroke:#000000;stroke-width:0.018"><path d="M157.43,48.85L157.35,48.98L157.35,49.20L157.46,49.41L157.63,49.51L157.74,49.49"/><path d="M157.63,49.51L157.73,49.48L157.65,49.43"/><path d="M157.74,49.48L157.73,49.48"/><path d="M157.47,48.90L157.45,48.94L157.45,49.02"/><path d="M157.50,49.25L157.56,49.37L157.60,49.39"/><path d="M157.49,49.23L157.45,49.17L157.45,49.06"/><path d="M157.56,49.37L157.56,49.37"/></g><g style="stroke:#000000;stroke-width:0.088"><path d="M157.74,49.48L157.74,49.48L157.65,49.43L157.60,49.39L157.50,49.25L157.49,49.23L157.45,49.06L157.45,49.02L157.47,48.90L157.49,48.87"/></g></g><g id="Actor_.47"><g style="stroke:#000000;stroke-width:0.018"><path d="M156.32,47.29L156.35,47.35L156.52,47.46L156.63,47.44"/><path d="M156.52,47.46L156.62,47.43L156.54,47.38"/><path d="M156.62,47.43L156.63,47.42"/><path d="M156.49,47.34L156.45,47.32L156.45,47.32"/></g><g style="stroke:#000000;stroke-width:0.088"><path d="M156.63,47.42L156.63,47.42L156.54,47.38L156.49,47.34L156.48,47.32"/></g></g><g id="Actor_.48"><g style="stroke:#000000;stroke-width:0.018"><path d="M162.41,49.96L162.32,50.09L162.33,50.32L162.44,50.52L162.61,50.63L162.72,50.61"/><path d="M162.61,50.63L162.71,50.60L162.63,50.55"/><path d="M162.71,50.60L162.72,50.59"/><path d="M162.45,50.02L162.42,50.06L162.43,50.14"/><path d="M162.47,50.37L162.54,50.49L162.57,50.51"/><path d="M162.43,50.18L162.43,50.28L162.47,50.35"/><path d="M162.54,50.49L162.54,50.49"/></g><g style="stroke:#000000;stroke-width:0.088"><path d="M162.72,50.59L162.72,50.59L162.63,50.55L162.57,50.51L162.47,50.37L162.47,50.35L162.43,50.18L162.43,50.14L162.45,50.02L162.47,49.99"/></g></g><g id="Actor_.49"><g style="stroke:#000000;stroke-width:0.018"><path d="M163.74,49.01L163.74,49.01L163.64,49.05L163.75,49.02"/><path d="M163.64,49.05L163.47,48.94L163.36,48.73L163.35,48.51L163.43,48.38"/><path d="M163.66,48.96L163.74,49.01"/><path d="M163.45,48.55L163.45,48.47L163.48,48.43"/><path d="M163.50,48.78L163.57,48.90L163.60,48.93"/><path d="M163.49,48.77L163.46,48.70L163.46,48.60"/><path d="M163.57,48.90L163.57,48.90"/></g><g style="stroke:#000000;stroke-width:0.088"><path d="M163.50,48.40L163.48,48.43L163.45,48.55L163.46,48.60L163.49,48.77L163.50,48.78L163.60,48.93L163.66,48.96L163.74,49.01L163.75,49.01"/></g></g><g id="Actor_.50"><g style="stroke:#000000;stroke-width:0.018"><path d="M157.88,47.27L157.69,39.92L155.61,39.48L155.48,39.43L155.42,39.38"/><path d="M155.56,39.26L155.78,39.31L157.60,38.70L157.39,38.65"/><path d="M155.81,46.81L155.61,39.48L155.80,39.41L155.78,39.41L155.78,39.31L155.71,39.34L155.72,39.38L155.78,39.41"/><path d="M158.69,47.24L158.49,39.89L158.32,39.93L158.10,39.95L157.88,39.95L157.69,39.92L157.87,39.86L155.80,39.41"/><path d="M157.60,38.70L157.90,38.67"/><path d="M160.11,39.23L160.32,39.28L158.49,39.89L158.28,39.84L158.16,39.87L158.01,39.88L157.87,39.86"/><path d="M158.28,39.84L158.58,39.74"/><path d="M159.76,41.92L159.84,41.98L159.96,41.97"/><path d="M160.06,40.50L160.19,40.49L160.27,40.54"/><path d="M160.32,39.28L160.61,39.25"/></g><g style="stroke:#000000;stroke-width:0.088"><path d="M158.58,39.74L160.11,39.23L160.40,39.20L160.61,39.25L160.88,39.36L161.10,39.59L161.24,39.93L161.30,40.34L161.45,46.29L158.69,47.24L158.51,47.28L158.29,47.30L158.07,47.30L157.88,47.27L155.81,46.81L155.68,46.77L155.62,46.71L155.42,39.38L155.45,39.31L155.56,39.26L157.39,38.65L157.68,38.62L157.90,38.67L158.17,38.77L158.23,38.84"/><path d="M160.06,40.50L160.00,40.50L159.81,40.62L159.65,40.83L159.54,41.11L159.51,41.40L159.56,41.67L159.67,41.87L159.76,41.92"/></g></g><g id="Actor_.51"><g style="stroke:#000000;stroke-width:0.018"/><g style="stroke:#000000;stroke-width:0.088"><path d="M163.43,47.78L164.87,48.10L164.96,51.76L155.00,49.51L154.93,46.98"/><path d="M156.64,47.36L156.62,47.47L156.51,47.59L156.35,47.61L156.19,47.52L156.07,47.34L156.05,47.23"/><path d="M157.62,49.64L157.46,49.66L157.30,49.57L157.18,49.40L157.13,49.18L157.17,48.99L157.28,48.86L157.44,48.85L157.60,48.94L157.72,49.11L157.77,49.33L157.73,49.52L157.62,49.64"/><path d="M162.58,50.05L162.70,50.23L162.75,50.44L162.72,50.64L162.60,50.76L162.44,50.78L162.28,50.69L162.16,50.51L162.11,50.30L162.15,50.10L162.26,49.98L162.42,49.96L162.58,50.05"/><path d="M163.14,48.71L163.18,48.52L163.29,48.39L163.45,48.37L163.58,48.45L163.61,48.47L163.73,48.64L163.78,48.86L163.74,49.05L163.63,49.18L163.47,49.20L163.31,49.11L163.19,48.93L163.14,48.71"/></g></g><g id="Actor_.52"><g style="stroke:#000000;stroke-width:0.018"><path d="M152.23,46.02L161.50,48.08L164.20,47.14L161.01,46.44"/><path d="M155.18,47.04L155.62,47.13L155.65,47.27L155.79,47.47L155.97,47.57L156.53,47.70L156.71,47.67L156.77,47.61"/><path d="M154.94,45.10L155.58,45.24"/><path d="M155.62,47.13L155.91,47.20"/><path d="M156.22,47.48L156.18,47.50"/><path d="M157.33,49.53L157.29,49.55"/><path d="M157.06,48.72L156.88,48.73L156.75,48.87L156.71,49.09L156.76,49.33L156.90,49.52L157.08,49.62L157.64,49.75L157.82,49.73L157.88,49.66"/><path d="M161.50,48.08L161.51,48.45L156.86,47.41"/><path d="M162.86,50.78L162.80,50.85L162.62,50.87L162.05,50.74L161.87,50.64L161.74,50.44L161.68,50.20L161.72,49.99L161.85,49.85L162.04,49.83"/><path d="M161.51,48.45L163.91,47.61L164.40,47.72L164.37,47.59L164.30,47.52L164.21,47.51L163.91,47.61"/><path d="M162.30,50.65L162.26,50.67"/><path d="M163.89,49.19L163.83,49.26L163.65,49.28L163.08,49.16L162.90,49.05L162.76,48.86L162.71,48.62L162.75,48.40L162.88,48.26L163.07,48.24"/><path d="M163.33,49.07L163.29,49.08"/><path d="M164.20,47.14L164.37,47.14"/><path d="M164.49,51.65L164.40,47.72"/></g><g style="stroke:#000000;stroke-width:0.088"><path d="M155.58,45.20L155.11,45.09L154.94,45.10L152.23,46.02L152.24,46.38L155.18,47.04L155.25,49.57L164.49,51.65"/><path d="M156.54,47.56L156.22,47.48L156.14,47.44"/><path d="M155.91,47.20L156.86,47.41L156.83,47.54L156.77,47.61"/><path d="M157.24,49.49L157.33,49.53L157.65,49.61"/><path d="M157.88,49.66L157.94,49.59L157.98,49.37L157.93,49.14L157.80,48.94L157.62,48.84L157.06,48.72"/><path d="M162.04,49.83L162.60,49.96L162.78,50.06L162.92,50.25L162.97,50.49L162.93,50.71L162.86,50.78"/><path d="M164.66,48.05L164.65,47.63L164.61,47.40L164.51,47.22L164.37,47.14L161.09,46.41"/><path d="M162.63,50.73L162.30,50.65L162.22,50.61"/><path d="M163.07,48.24L163.63,48.37L163.81,48.47L163.95,48.67L164.00,48.91L163.96,49.12L163.89,49.19"/><path d="M163.25,49.03L163.33,49.07L163.66,49.14"/></g></g><g id="Actor_.53"><g style="stroke:#000000;stroke-width:0.018"><path d="M254.71,68.56L254.81,60.60L254.63,60.65L254.40,60.68L254.15,60.67L253.93,60.64L251.45,60.11L251.29,60.06L251.20,59.99"/><path d="M251.36,68.05L251.45,60.11L251.64,60.04L251.56,60.01L251.57,59.91L251.31,59.85"/><path d="M253.08,59.14L253.33,59.19L251.57,59.91L251.51,59.95L251.53,60.00L251.56,60.01"/><path d="M251.64,60.04L254.11,60.57L253.93,60.64L253.83,68.60"/><path d="M253.62,59.15L253.33,59.19"/><path d="M254.55,60.55L254.81,60.60L256.57,59.89L256.32,59.83"/><path d="M254.11,60.57L254.23,60.58"/><path d="M255.91,62.76L256.01,62.83L256.12,62.82"/><path d="M256.25,61.22L256.40,61.20L256.48,61.25"/><path d="M256.57,59.89L256.85,59.84"/></g><g style="stroke:#000000;stroke-width:0.088"><path d="M254.01,59.44L253.87,59.26L253.62,59.15L253.36,59.10L253.08,59.14L251.31,59.85L251.21,59.92L251.20,59.99L251.11,67.93L251.20,68.00L251.36,68.05L253.83,68.60L254.05,68.63L254.30,68.64L254.53,68.61L254.71,68.56L257.38,67.45L257.46,61.01L257.43,60.57L257.30,60.20L257.11,59.95L256.85,59.84L256.60,59.79L256.32,59.83L254.55,60.55L254.42,60.58L254.23,60.58"/><path d="M255.91,62.76L255.86,62.72L255.76,62.50L255.72,62.21L255.76,61.89L255.87,61.59L256.03,61.36L256.22,61.22L256.25,61.22"/></g></g><g id="Actor_.54"><g style="stroke:#000000;stroke-width:0.018"><path d="M249.85,70.86L249.85,70.86"/></g><g style="stroke:#000000;stroke-width:0.088"><path d="M260.00,69.18L261.48,69.51L261.42,73.47L249.55,70.80L249.58,68.05"/><path d="M251.62,68.51L251.59,68.62L251.45,68.75L251.26,68.77L251.07,68.67L250.93,68.48L250.91,68.35"/><path d="M252.40,70.96L252.31,70.91L252.18,70.73L252.13,70.49L252.18,70.28L252.32,70.15L252.51,70.13L252.70,70.23L252.84,70.43L252.88,70.66L252.83,70.87L252.69,71.00L252.50,71.02L252.40,70.96"/><path d="M258.43,72.35L258.24,72.25L258.11,72.05L258.06,71.82L258.11,71.61L258.25,71.48L258.45,71.46L258.64,71.56L258.78,71.76L258.82,71.99L258.77,72.20L258.63,72.33L258.43,72.35"/><path d="M259.41,70.36L259.36,70.13L259.42,69.92L259.56,69.79L259.76,69.77L259.95,69.87L260.09,70.07L260.13,70.30L260.09,70.45L260.08,70.51L259.94,70.64L259.74,70.66L259.55,70.56L259.41,70.36"/></g></g><g id="Actor_.55"><g style="stroke:#000000;stroke-width:0.018"><path d="M247.10,67.11L258.15,69.56L258.14,69.96L260.47,68.98L260.93,69.09L260.90,68.95L260.84,68.87L260.75,68.86L260.47,68.98"/><path d="M249.88,68.12L250.40,68.24L250.43,68.39L250.59,68.60L250.80,68.72L251.47,68.87L251.68,68.85L251.78,68.76"/><path d="M249.72,66.03L251.13,66.34"/><path d="M251.04,68.61L251.03,68.62"/><path d="M250.40,68.24L250.69,68.30"/><path d="M252.28,70.86L252.27,70.86"/><path d="M253.02,71.01L252.92,71.09L252.71,71.11L252.04,70.96L251.83,70.85L251.68,70.63L251.62,70.38L251.68,70.14L251.84,70.00L251.98,69.99"/><path d="M258.14,69.96L251.87,68.56"/><path d="M257.91,71.31L257.77,71.33L257.61,71.47L257.55,71.71L257.60,71.96L257.75,72.18L257.97,72.29L258.65,72.45L258.86,72.43L258.96,72.34"/><path d="M256.95,67.63L260.76,68.47L260.92,68.45"/><path d="M258.21,72.19L258.20,72.19"/><path d="M259.22,69.62L259.07,69.64L258.91,69.78L258.85,70.02L258.91,70.28L259.06,70.49L259.27,70.61L259.96,70.76L260.17,70.74L260.27,70.65"/><path d="M260.76,68.47L258.15,69.56"/><path d="M259.51,70.50L259.51,70.50"/><path d="M260.93,69.09L260.86,73.34"/></g><g style="stroke:#000000;stroke-width:0.088"><path d="M251.13,66.29L249.88,66.02L249.72,66.03L247.10,67.11L247.09,67.50L249.88,68.12L249.85,70.86L260.86,73.34"/><path d="M251.03,68.61L251.49,68.72"/><path d="M251.78,68.76L251.84,68.70L251.87,68.56L250.69,68.30"/><path d="M252.27,70.85L252.73,70.96"/><path d="M253.02,71.01L253.08,70.95L253.14,70.73L253.09,70.46L252.93,70.24L252.72,70.13L252.05,69.98L251.98,69.99"/><path d="M261.16,69.44L261.17,68.98L261.14,68.73L261.05,68.55L260.92,68.45L257.03,67.60"/><path d="M258.67,72.30L258.20,72.19"/><path d="M257.91,71.31L257.98,71.31L258.66,71.46L258.87,71.57L259.03,71.79L259.08,72.05L259.02,72.28L258.96,72.34"/><path d="M259.98,70.61L259.51,70.50"/><path d="M260.27,70.65L260.33,70.59L260.39,70.36L260.34,70.10L260.18,69.88L259.97,69.77L259.29,69.62L259.22,69.62"/></g></g><g id="Actor_.56"><g style="stroke:#000000;stroke-width:0.018"><path d="M253.16,60.26L253.17,60.25L253.29,60.20"/><path d="M253.43,60.15L253.42,60.16"/><path d="M253.17,60.10L253.17,60.10"/></g><g style="stroke:#000000;stroke-width:0.088"><path d="M252.82,60.29L252.92,60.19L253.17,60.10"/><path d="M253.53,60.18L253.43,60.15L253.17,60.10"/></g></g><g id="Actor_.57"><g style="stroke:#000000;stroke-width:0.018"><path d="M256.46,62.84L256.65,62.85L256.84,62.71L257.00,62.46L257.10,62.14L257.10,62.02L257.11,61.82L257.04,61.55L256.90,61.40L256.71,61.39L256.52,61.52L256.35,61.77L256.26,62.09L256.24,62.42L256.31,62.68L256.46,62.84L256.44,62.87L256.40,62.88L256.25,62.71L256.17,62.43L256.18,62.08L256.29,61.74L256.46,61.47L256.67,61.33L256.87,61.34"/><path d="M256.90,61.40L256.90,61.36"/></g><g style="stroke:#000000;stroke-width:0.088"><path d="M256.29,61.21L256.87,61.34L256.90,61.36L257.05,61.52L257.12,61.80L257.11,62.14L257.01,62.47L256.84,62.74L256.63,62.88L256.60,62.89L256.40,62.88L255.94,62.78"/></g></g><g id="Actor_.58"><g style="stroke:#000000;stroke-width:0.018"><path d="M160.61,40.63L160.61,40.66L160.42,40.65L160.22,40.76L160.06,40.99L159.97,41.29L159.96,41.59L160.05,41.83L160.21,41.98L160.19,42.01L160.16,42.01L159.99,41.86L159.90,41.60L159.90,41.28L160.00,40.96L160.17,40.72L160.38,40.59L160.59,40.61"/><path d="M160.21,41.98L160.40,41.99L160.60,41.87L160.76,41.64L160.85,41.35L160.86,41.05L160.77,40.81L160.61,40.66"/></g><g style="stroke:#000000;stroke-width:0.088"><path d="M160.07,40.49L160.59,40.61L160.78,40.78L160.87,41.04L160.86,41.35L160.77,41.66L160.60,41.90L160.39,42.02L160.37,42.03L160.16,42.01L159.77,41.93"/></g></g><g><g><path style="stroke:#000000;stroke-width:0.250;stroke-dasharray:2.0 2.0" d="M159.05,64.22L71.53,96.11"/></g></g><g><g><path style="stroke:#000000;stroke-width:0.250;stroke-dasharray:2.0 2.0" d="M29.15,73.01L63.65,82.74"/></g></g><g><g/></g><g><g><path style="stroke:#000000;stroke-width:0.250;stroke-dasharray:2.0 2.0" d="M254.04,86.86L168.51,124.58"/></g></g><g><g/></g><g><g><path style="stroke:#000000;stroke-width:0.250;stroke-dasharray:2.0 2.0" d="M182.86,116.35L229.57,129.52"/></g></g><g id="PMI2.0"><g><path style="stroke:#000000;stroke-width:0.250" d="M160.12,23.97L160.11,33.66"/></g><g><path style="fill:#000000" d="M159.11,33.66L161.11,33.66L160.11,35.66z"/></g><g><path style="fill:#ffffff" d="M150.58,23.97L169.65,23.97L169.65,18.33L150.58,18.33z"/><path style="stroke:#000000;stroke-width:0.250;stroke-opacity:0.98" d="M150.58,23.97L169.65,23.97L169.65,18.33L150.58,18.33z"/><text xml:space="preserve" fill="#000000" stroke-width="0" x="151.29" y="22.39" font-size="3.45" opacity="1.00" font-family="MS Shell Dlg">4A0201011</text></g></g><g id="PMI1.0"><g><path style="stroke:#000000;stroke-width:0.250" d="M116.60,174.44L116.75,168.60"/></g><g><path style="fill:#000000" d="M117.75,168.62L115.75,168.57L116.81,166.60z"/></g><g><path style="fill:#ffffff" d="M107.00,180.08L126.06,180.08L126.06,174.43L107.00,174.43z"/><path style="stroke:#000000;stroke-width:0.250;stroke-opacity:0.98" d="M107.00,180.08L126.06,180.08L126.06,174.43L107.00,174.43z"/><text xml:space="preserve" fill="#000000" stroke-width="0" x="107.70" y="178.49" font-size="3.45" opacity="1.00" font-family="MS Shell Dlg">4A0100011</text></g></g><g id="PMI3.0"><g><path style="stroke:#000000;stroke-width:0.250" d="M246.89,136.88L232.40,136.75"/></g><g><path style="fill:#000000" d="M232.41,135.75L232.39,137.75L230.40,136.73z"/></g><g><path style="fill:#ffffff" d="M246.88,139.78L265.95,139.78L265.95,134.14L246.88,134.14z"/><path style="stroke:#000000;stroke-width:0.250;stroke-opacity:0.98" d="M246.88,139.78L265.95,139.78L265.95,134.14L246.88,134.14z"/><text xml:space="preserve" fill="#000000" stroke-width="0" x="247.58" y="138.20" font-size="3.45" opacity="1.00" font-family="MS Shell Dlg">4A0300011</text></g></g><g/><g id="paperID" visibility="hidden" opacity="0.00" transform="scale(0.000100)"><path style="stroke:#000000;stroke-width:0.500;fill:#e6e6e6;fill-rule:evenodd" d="M-2000.00,-2000.00L2297.00,-2000.00L2297.00,2210.00L-2000.00,2210.00zM0.00,0.00L297.00,0.00L297.00,210.00L0.00,210.00z"/><path style="fill:#000000;fill-opacity:0.118" d="M3.00,210.00L297.00,210.00L297.00,3.00L300.00,3.00L300.00,213.00L3.00,213.00z"/></g><g id="hotspot.0" onmouseover="ShowHotSpot(evt,'0')" onmouseout="HideHotSpot(evt,'0')" onmousemove="ShowToolTip(evt,'0',&quot;3dp761850&quot;)" opacity="0"><path style="fill:#00ff00;fill-rule:evenodd" d="M52.13,74.28L54.65,75.85L58.44,77.13L94.67,87.53L154.23,104.00L180.33,110.84L185.16,111.59L189.50,112.06L189.75,112.32L184.34,187.13L183.83,187.91L170.95,185.85L132.45,172.66L117.99,167.56L117.40,167.58L117.49,168.66L117.19,168.87L116.99,170.97L116.90,174.53L126.12,174.68L126.12,180.36L106.84,180.27L106.84,174.76L116.24,174.53L116.47,168.86L115.88,168.60L116.52,167.41L116.50,167.10L70.36,150.62L67.86,149.57L61.93,145.61L51.86,75.86L51.87,74.05zM116.23,103.74L116.27,104.56L76.17,92.86L75.84,92.64L75.84,92.07L76.16,92.04zM115.47,108.04L116.54,108.53L116.50,109.14L84.29,99.69L76.09,97.20L76.08,96.64L76.95,96.62zM116.23,112.85L116.79,113.38L116.75,113.71L115.96,113.64L77.18,101.98L76.39,101.46L76.35,100.93zM154.49,114.64L157.81,115.66L157.81,116.23L156.76,116.16L118.16,105.06L118.15,104.50L119.02,104.48zM115.72,117.17L116.79,117.66L116.75,118.27L115.97,118.20L77.19,106.29L76.66,105.76L76.68,105.25zM157.28,120.21L157.32,121.03L118.49,109.82L118.42,109.04L118.73,109.02zM156.78,124.77L156.82,125.59L119.25,114.65L118.46,114.14L118.42,113.60L119.00,113.59zM156.27,129.33L156.28,130.18L118.67,119.02L118.68,118.16z"/></g><g id="hotspot.1" onmouseover="ShowHotSpot(evt,'1')" onmouseout="HideHotSpot(evt,'1')" onmousemove="ShowToolTip(evt,'1',&quot;3dp920665&quot;)" opacity="0"><path style="fill:#00ff00;fill-rule:evenodd" d="M150.43,18.65L169.71,18.57L169.71,24.25L160.49,24.40L160.56,33.63L161.88,33.15L163.36,32.34L164.29,32.01L166.41,32.26L167.70,33.26L168.69,34.55L169.45,36.58L169.45,40.46L168.93,42.22L165.13,50.33L164.88,51.86L164.32,52.06L163.59,53.38L163.59,54.06L255.10,74.84L256.29,74.85L257.15,72.77L256.92,72.54L250.00,71.07L249.70,70.87L249.52,68.26L247.46,67.78L247.14,67.55L247.14,67.27L249.71,66.20L251.04,66.34L251.22,60.15L252.99,59.37L254.11,59.45L256.36,54.90L257.66,53.15L260.15,51.85L261.44,51.78L263.50,52.75L264.73,54.83L265.24,56.85L265.24,59.97L264.48,63.01L261.68,69.08L261.47,73.65L259.85,73.31L256.77,79.91L257.66,80.14L258.15,80.91L258.16,83.30L254.50,89.30L253.05,89.05L252.58,88.76L249.26,81.70L249.26,78.71L251.04,78.65L253.32,79.16L254.25,79.16L254.89,77.95L254.86,77.64L252.31,76.87L162.84,56.33L162.29,56.33L161.50,57.85L161.82,58.11L162.38,58.88L162.11,61.25L159.48,66.23L158.28,66.25L157.72,66.04L154.74,59.40L154.74,56.67L156.02,56.60L158.04,57.11L159.23,57.10L161.89,51.59L161.85,51.29L155.48,49.79L155.17,49.58L154.74,47.23L154.26,46.95L152.37,46.51L152.35,46.24L154.41,45.44L155.52,45.29L155.50,39.44L157.20,38.84L158.32,38.92L159.34,36.91L159.28,35.65L159.59,34.80L159.28,34.29L159.23,33.81L159.81,33.61L159.83,24.40L150.43,24.17zM166.94,37.57L167.20,37.81L167.17,39.95L166.91,40.97L164.12,47.05L162.85,46.97L161.51,46.54L161.34,40.63L160.74,39.35L162.25,36.54L163.11,36.57zM262.20,55.58L262.71,57.87L262.46,60.74L261.93,62.24L259.33,68.00L258.14,68.01L257.29,67.76L257.41,60.63L256.79,59.87L258.82,55.84L260.15,54.63L261.45,54.55zM155.46,58.84L155.75,58.89L155.80,59.18L155.51,59.13zM250.55,81.16L250.22,81.24L250.31,80.92z"/></g><g id="hotspot.2" onmouseover="ShowHotSpot(evt,'2')" onmouseout="HideHotSpot(evt,'2')" onmousemove="ShowToolTip(evt,'2',&quot;3dp744243&quot;)" opacity="0"><path style="fill:#00ff00;fill-rule:evenodd" d="M29.33,72.54L30.34,73.09L30.36,73.65L28.94,73.84L28.98,74.38L29.29,74.61L29.56,75.86L31.28,98.98L31.57,99.19L31.62,102.32L31.01,102.72L31.28,106.33L31.57,106.54L31.84,107.79L31.77,109.32L30.07,109.30L29.61,108.50L28.96,108.09L28.96,107.57L29.54,107.33L30.08,106.36L30.07,104.24L29.82,102.71L28.97,102.55L28.81,99.29L29.08,98.99L27.54,78.14L27.56,74.69L27.84,74.07L27.21,73.65L27.21,72.06L28.56,71.77zM232.07,129.04L232.05,130.94L231.80,131.21L231.70,131.92L232.32,132.34L232.45,136.51L238.63,136.68L246.50,136.77L246.73,134.46L266.01,134.38L266.01,140.06L246.73,139.98L246.50,137.42L232.45,137.17L232.58,165.17L231.71,165.57L231.71,169.69L232.32,170.10L232.48,171.71L233.83,172.67L233.74,173.44L230.50,173.44L229.94,173.24L230.03,169.97L230.28,169.71L230.26,165.57L229.50,165.32L229.69,132.13L230.28,131.91L230.28,131.38L228.49,129.84L227.89,129.65L227.98,128.88L230.20,128.83L231.02,128.55z"/></g></g></svg>
