<?xml version="1.0" encoding="UTF-8" standalone="no"?>
<svg xmlns="http://www.w3.org/2000/svg" xmlns:xlink="http://www.w3.org/1999/xlink" width="297.000mm" height="210.000mm" viewBox="0.000000 0.000000 297.000000 210.000000" stroke-linejoin="round" stroke-linecap="round" fill="none" fill-rule="evenodd"><desc>Composer Export</desc><script type="text/ecmascript"><![CDATA[
if(typeof(top) != "undefined")
{
	top.ShowPaper = ShowPaper;
}
function ShowHotSpot(evt,hotspotid)
{
	var svgDocument = evt.target.ownerDocument;
	var strId = "hotspot."+hotspotid;
	var hotspot = svgDocument.getElementById(strId);
	if(hotspot)
		hotspot.setAttribute("opacity",".5");
}
function HideHotSpot(evt,hotspotid)
{
	var svgDocument = evt.target.ownerDocument;
	var strId = "hotspot."+hotspotid;
	var hotspot = svgDocument.getElementById(strId);
	if(hotspot)
		hotspot.setAttribute("opacity","0");

	var toolTip = svgDocument.getElementById('ToolTip');
	if(toolTip)
		toolTip.setAttribute("visibility","hidden");
}
function ShowToolTip(evt,hotspotid,strTooltip)
{
	if(strTooltip=="")
	return;

	// change text
	var svgDocument = evt.target.ownerDocument;
	var tiptext = svgDocument.getElementById('ToolTipText');
	if( !tiptext )
	return;
	tiptext.firstChild.nodeValue = " " + strTooltip + "  " ;

	// show tooltip before, else some refresh issue

	var toolTip = svgDocument.getElementById('ToolTip');
	if(!toolTip)
	return;

	toolTip.setAttribute("visibility","visible");
	toolTip.setAttribute("opacity",".95");

	// move tooltip
	// get viewbox

	var root = svgDocument.documentElement;
	var vbox = (root.getAttribute("viewBox")).split(' ');
	var x0 = parseFloat(vbox[0]);
	var y0 = parseFloat(vbox[1]);
	var vboxW = parseFloat(vbox[2]);
	var vboxH = parseFloat(vbox[3]);

	// get default width of svg

	var strW = root.getAttribute("width");
	var svgW = parseFloat(strW);
	if(strW.indexOf('mm') != -1)
	svgW *= 3.779;

	var strH = root.getAttribute("height");
	var svgH = parseFloat(strH);
	if(strH.indexOf('mm') != -1)
	svgH *= 3.779;  	// 96 dpi  -> 96/25.4 = 3.779

	// update the viewbox / width / height if svg is embedded in html with zoom fit all
	var realx0 = x0;
	var realy0 = y0;
	var realvboxW = vboxW;
	var realvboxH = vboxH;
	var realsvgW = svgW;
	var realsvgH = svgH;

	if ((typeof(top) == "undefined") || (typeof(top.svgctl1) != "undefined")) // embedded in html
	{
		// get window size in pxl

		svgW = window.innerWidth;
		svgH = window.innerHeight;

		// calculate real viewbox

		realsvgW = svgW;
		realsvgH = svgH;
		if((svgW / svgH) > (vboxW / vboxH))
		{
			realvboxW = (vboxH * svgW) / svgH;
			realvboxH = vboxH;
			realx0 = x0 - (realvboxW - vboxW)/2 ;
		}
		else
		{
			realvboxH = (vboxW * svgH) / svgW;
			realvboxW = vboxW;
			realy0 = y0 - (realvboxH - vboxH)/2 ;
		}
	}

	// get user zoom/pan

	var newScale = root.currentScale;
	var translation = root.currentTranslate;

	// transform pxl to user unit

	var xPos = (((evt.clientX+10- translation.x)/newScale) * realvboxW)/realsvgW  + realx0 ;
	var yPos = (((evt.clientY+5- translation.y)/newScale) * realvboxH)/ realsvgH  + realy0 ;
	var scaleForWidth = ( (1 / newScale) * realvboxH) / realsvgH;

	// move tooltip

	toolTip.setAttribute("transform", "translate(" + xPos + "," + yPos + ")" );

	// resize tooltip

	var fontsize = 12;
	tiptext.setAttribute("font-size",fontsize*scaleForWidth);
	tiptext.setAttribute("y", fontsize*scaleForWidth);
	var tipBG = svgDocument.getElementById('ToolTipBG');
	var outline = tiptext.getBBox();
	if(tipBG)
	{
		tipBG.setAttribute("stroke-width", 1*scaleForWidth);
		tipBG.setAttribute("width", Number(outline.width) );
		tipBG.setAttribute("height", Number(outline.height) + fontsize*.5*scaleForWidth );
	}
	var ToolTipShadow = svgDocument.getElementById('ToolTipShadow');
	if(ToolTipShadow)
	{
		ToolTipShadow.setAttribute("width", Number(outline.width) );
		ToolTipShadow.setAttribute("height", Number(outline.height) + fontsize*.5*scaleForWidth );
		ToolTipShadow.setAttribute("x", 3*scaleForWidth);
		ToolTipShadow.setAttribute("y", 3*scaleForWidth);
	}
}
function ShowPaper()
{
  var svgDocument = getDocument();
  var paper = svgDocument.getElementById("paperID");
  if(paper)
  {
    paper.setAttribute("transform","scale(1)");
    paper.setAttribute("opacity","1");
    paper.setAttribute("visibility","visible");
  }
  var svg = svgDocument.getRootElement();
  if(svg)
  {
    svg.setAttribute("width","307.000mm");
    svg.setAttribute("height","220.000mm");
    svg.setAttribute("viewBox","-5.000000 -5.000000 307.000000 220.000000");
  }
}
]]></script><defs/><g><path style="fill:#ffffff" d="M296.97,209.93L0.07,209.93L0.07,0.07L296.97,0.07z"/><path style="fill:#a4c8f0" d="M213.53,116.21L208.17,119.63L207.96,122.47L204.18,124.87L204.10,131.60L204.44,131.72L204.44,131.92L203.85,132.01L187.84,142.40L187.53,137.16L187.49,136.91L191.24,134.37L191.20,130.74L190.90,130.73L172.76,142.33L172.80,145.17L169.44,147.24L169.51,150.23L169.76,153.99L170.59,153.89L170.42,154.22L169.52,154.22L148.97,137.56L149.04,137.11L149.98,136.48L150.31,136.49L151.57,137.52L152.22,137.54L153.07,136.86L152.05,136.00L151.97,135.28L162.30,128.75L160.52,127.51L160.52,126.88L194.03,106.21L194.98,106.83L195.62,106.86L197.99,105.51z"/><path style="fill:#807f01" d="M208.17,123.40L220.31,115.54L220.67,115.47L220.65,120.89L220.17,121.45L219.81,121.52L219.48,121.96L219.04,122.02L218.73,122.46L218.29,122.52L217.98,122.96L217.54,123.03L217.23,123.41L215.93,124.19L215.56,124.26L215.24,124.70L214.80,124.77L214.49,125.20L214.05,125.26L213.74,125.70L213.30,125.76L212.99,126.20L212.56,126.26L212.25,126.70L211.81,126.77L211.50,127.15L210.19,127.94L209.83,128.00L209.50,128.45L209.06,128.51L208.75,128.94L208.32,129.01L208.00,129.44L207.57,129.50L207.26,129.94L206.82,130.00L206.51,130.44L206.07,130.51L205.76,130.89L204.44,131.72L204.10,131.60L204.18,124.87L207.96,122.47z"/><path style="fill:#32cc5e" d="M152.32,85.87L153.30,86.14L154.57,86.13L154.57,86.42L152.74,87.39L151.28,87.39L148.07,85.13L147.58,84.87L144.98,84.87L138.36,88.47L137.23,89.87L137.61,90.85L140.18,92.83L140.60,93.35L140.61,94.21L138.57,95.45L138.61,94.11L138.47,94.01L133.88,90.27L134.25,89.60L147.65,82.27z"/><path style="fill:#ff0000" d="M93.72,4.57L93.97,4.93L45.99,26.28L44.81,26.27L42.81,24.78L42.82,23.61L44.31,22.36L45.47,21.76L46.79,21.87L47.20,21.01L53.55,17.81L54.70,17.79L55.19,17.03L60.43,14.53L61.76,14.38L62.17,13.79L69.65,10.58L70.45,10.59L70.71,10.27L70.71,10.06L76.65,7.54L76.97,7.56L77.88,7.57L78.47,6.89L84.63,4.56L85.90,4.60L86.44,4.31L86.37,3.84L88.37,3.07L91.21,3.06z"/><path style="fill:#a1bb44" d="M220.42,143.74L220.43,144.33L204.35,155.25L203.96,155.21L196.20,149.22L196.11,148.50L211.83,137.99L212.67,137.98z"/><path style="fill:#20ddd1" d="M220.92,190.88L220.92,191.46L211.58,198.86L207.34,202.35L206.18,202.32L205.94,202.10L204.57,203.10L203.95,203.11L183.97,186.12L183.96,185.49L199.36,173.90L199.69,173.89z"/><path style="fill:#808080" d="M148.32,90.11L151.86,92.57L152.09,93.20L142.24,98.88L141.61,98.85L138.35,96.34L138.06,95.62L138.06,94.69L138.47,94.01L138.61,94.11L138.57,95.45L140.61,94.21L140.60,93.35L140.18,92.83L145.23,90.11L147.31,89.87z"/><path style="fill:#6642bb" d="M147.65,82.27L134.25,89.60L133.88,90.27L109.65,71.16L107.90,69.90L107.90,69.27L121.05,62.40L121.37,62.41z"/><path style="fill:#96cc33" d="M238.87,134.26L238.77,135.26L228.96,141.94L228.43,141.63L222.80,129.99L232.78,123.27L233.37,123.25z"/><path style="fill:#7f0080" d="M245.86,115.25L253.58,127.77L253.59,128.63L247.50,132.80L246.84,132.78L239.07,120.06L239.01,119.32L245.61,115.06z"/><path style="fill:#008001" d="M260.09,168.17L260.08,168.77L258.70,169.90L259.31,170.68L260.20,170.67L261.46,169.65L262.04,169.65L268.75,174.41L268.55,175.01L256.47,184.18L256.07,184.15L253.59,182.14L246.52,187.41L245.33,187.39L239.10,186.89L237.57,186.67L237.26,186.46L237.34,185.73L242.48,181.88L244.11,180.02L245.58,176.99L245.83,176.00L245.83,172.18L245.08,169.18L243.58,166.41L243.58,165.79L249.74,161.17L250.32,161.18z"/><path style="fill:#fe00ff" d="M121.91,35.47L122.62,41.48L74.67,65.45L73.92,65.53L72.65,58.96L120.54,35.50L121.05,35.22L121.64,35.21z"/><path style="fill:#f60863" d="M187.53,137.16L187.84,142.40L187.75,142.64L187.24,142.89L186.88,142.96L186.56,143.41L186.12,143.47L185.81,143.91L185.37,143.97L185.06,144.41L184.62,144.47L184.31,144.90L183.87,144.97L183.56,145.40L183.13,145.47L182.82,145.90L182.37,145.98L182.07,146.35L181.50,146.64L181.15,146.70L180.82,147.15L180.38,147.21L180.07,147.65L179.63,147.71L179.32,148.15L178.89,148.21L178.57,148.65L178.14,148.71L177.83,149.14L177.39,149.21L177.08,149.64L176.64,149.72L176.33,150.09L175.76,150.38L175.41,150.45L175.08,150.89L174.65,150.95L174.33,151.39L173.90,151.45L173.59,151.89L173.15,151.95L172.84,152.39L172.40,152.45L172.09,152.89L171.65,152.95L171.34,153.38L170.91,153.45L170.59,153.89L169.76,153.99L169.51,150.23L169.44,147.24L172.80,145.17L173.00,146.09L187.49,136.91z"/><path style="fill:#bb9544" d="M132.87,48.45L132.78,48.70L84.39,73.43L83.45,73.43L76.97,68.41L76.97,67.77L125.03,43.71L125.87,43.71z"/><path style="fill:#8b6d90" d="M147.10,138.01L147.07,138.56L132.02,148.76L131.37,148.74L126.89,144.72L106.91,127.53L106.40,127.26L106.40,126.63L107.43,125.89L107.59,125.05L120.55,116.78L121.13,116.77z"/><path style="fill:#71bb44" d="M102.91,16.55L106.95,19.30L106.93,19.60L58.96,42.00L57.78,41.98L52.69,38.05L52.69,37.52L100.60,15.52L101.17,15.52z"/><path style="fill:#0000ff" d="M117.13,31.76L117.90,32.62L69.74,56.04L68.99,56.23L64.17,52.02L64.24,51.57L112.57,28.49L112.90,28.49z"/><path style="fill:#fffe02" d="M129.61,90.62L133.36,93.60L133.36,94.71L133.01,95.10L115.30,105.12L114.92,105.08L84.72,80.89L84.20,80.63L84.20,79.99L102.70,70.41z"/><path style="fill:#9f9fa4" d="M172.34,88.00L169.75,89.47L169.75,90.11L186.71,101.85L191.10,105.01L158.44,125.03L157.53,125.06L133.84,106.82L133.76,106.10L168.94,85.85L169.26,85.86z"/><path style="fill:#c0c0c0" d="M266.79,144.20L266.52,144.80L240.75,163.45L240.04,163.53L236.87,159.19L234.11,155.96L230.13,152.70L228.12,149.73L227.61,148.25L227.29,145.75L227.79,143.00L228.43,141.63L228.96,141.94L229.13,142.24L234.38,146.00L234.74,145.99L244.76,138.97L245.07,138.98L247.32,140.53L248.07,140.34L254.23,135.98L254.56,135.99z"/><path style="fill:#007f80" d="M242.87,65.39L243.60,66.15L225.53,77.14L224.36,77.17L208.58,67.48L208.65,67.03L227.15,56.45z"/><path style="fill:#c0dcc2" d="M221.13,148.30L221.14,150.48L221.37,151.74L222.41,153.94L223.90,155.69L227.12,158.46L230.40,162.17L233.86,167.19L235.10,170.19L235.60,172.43L235.60,175.99L235.36,177.25L234.11,180.23L232.27,182.40L231.38,182.40L209.93,165.68L209.65,164.96L208.94,158.94L206.16,156.69L206.16,156.31L221.59,145.71L221.86,145.69z"/><path style="fill:#00fdff" d="M109.67,21.24L110.41,26.84L62.44,49.73L61.69,49.82L60.46,43.96L109.45,21.02z"/><path style="fill:#a4c8f0" d="M220.08,121.79L219.48,121.96L219.81,121.52L220.17,121.45z"/><path style="fill:#a4c8f0" d="M219.31,122.29L218.73,122.46L219.04,122.02L219.48,121.96z"/><path style="fill:#a4c8f0" d="M218.56,122.79L217.98,122.96L218.29,122.52L218.73,122.46z"/><path style="fill:#a4c8f0" d="M217.81,123.30L217.23,123.41L217.54,123.03L217.98,122.96z"/><path style="fill:#a4c8f0" d="M215.83,124.53L215.24,124.70L215.56,124.26L215.93,124.19z"/><path style="fill:#a4c8f0" d="M215.07,125.04L214.49,125.20L214.80,124.77L215.24,124.70z"/><path style="fill:#a4c8f0" d="M214.32,125.54L213.74,125.70L214.05,125.26L214.49,125.20z"/><path style="fill:#a4c8f0" d="M213.58,126.03L212.99,126.20L213.30,125.76L213.74,125.70z"/><path style="fill:#a4c8f0" d="M212.83,126.53L212.25,126.70L212.56,126.26L212.99,126.20z"/><path style="fill:#a4c8f0" d="M212.08,127.04L211.50,127.15L211.81,126.77L212.25,126.70z"/><path style="fill:#a4c8f0" d="M210.10,128.27L209.50,128.45L209.83,128.00L210.19,127.94z"/><path style="fill:#a4c8f0" d="M209.34,128.78L208.75,128.94L209.06,128.51L209.50,128.45z"/><path style="fill:#a4c8f0" d="M208.59,129.28L208.00,129.44L208.32,129.01L208.75,128.94z"/><path style="fill:#a4c8f0" d="M207.84,129.78L207.26,129.94L207.57,129.50L208.00,129.44z"/><path style="fill:#a4c8f0" d="M207.09,130.27L206.51,130.44L206.82,130.00L207.26,129.94z"/><path style="fill:#a4c8f0" d="M206.34,130.78L205.76,130.89L206.07,130.51L206.51,130.44z"/><path style="fill:#a4c8f0" d="M187.15,143.23L186.56,143.41L186.88,142.96L187.24,142.89z"/><path style="fill:#a4c8f0" d="M186.39,143.74L185.81,143.91L186.12,143.47L186.56,143.41z"/><path style="fill:#a4c8f0" d="M185.64,144.24L185.06,144.41L185.37,143.97L185.81,143.91z"/><path style="fill:#a4c8f0" d="M184.89,144.74L184.31,144.90L184.62,144.47L185.06,144.41z"/><path style="fill:#a4c8f0" d="M184.15,145.24L183.56,145.40L183.87,144.97L184.31,144.90z"/><path style="fill:#a4c8f0" d="M183.40,145.74L182.82,145.90L183.13,145.47L183.56,145.40z"/><path style="fill:#a4c8f0" d="M182.65,146.25L182.07,146.35L182.37,145.98L182.82,145.90z"/><path style="fill:#a4c8f0" d="M181.42,146.98L180.82,147.15L181.15,146.70L181.50,146.64z"/><path style="fill:#a4c8f0" d="M180.65,147.48L180.07,147.65L180.38,147.21L180.82,147.15z"/><path style="fill:#a4c8f0" d="M179.91,147.98L179.32,148.15L179.63,147.71L180.07,147.65z"/><path style="fill:#a4c8f0" d="M179.16,148.48L178.57,148.65L178.89,148.21L179.32,148.15z"/><path style="fill:#a4c8f0" d="M178.41,148.98L177.83,149.14L178.14,148.71L178.57,148.65z"/><path style="fill:#a4c8f0" d="M177.66,149.48L177.08,149.64L177.39,149.21L177.83,149.14z"/><path style="fill:#a4c8f0" d="M176.91,149.99L176.33,150.09L176.64,149.72L177.08,149.64z"/><path style="fill:#a4c8f0" d="M175.68,150.72L175.08,150.89L175.41,150.45L175.76,150.38z"/><path style="fill:#a4c8f0" d="M174.92,151.22L174.33,151.39L174.65,150.95L175.08,150.89z"/><path style="fill:#a4c8f0" d="M174.17,151.72L173.59,151.89L173.90,151.45L174.33,151.39z"/><path style="fill:#a4c8f0" d="M173.42,152.22L172.84,152.39L173.15,151.95L173.59,151.89z"/><path style="fill:#a4c8f0" d="M172.67,152.72L172.09,152.89L172.40,152.45L172.84,152.39z"/><path style="fill:#a4c8f0" d="M171.93,153.22L171.34,153.38L171.65,152.95L172.09,152.89z"/><path style="fill:#a4c8f0" d="M171.27,153.57L170.59,153.89L170.91,153.45L171.34,153.38z"/><path style="fill:#b60eee" d="M225.64,91.92L208.84,102.35L205.12,103.60L204.07,103.66L204.07,103.37L221.56,92.61L225.68,91.40z"/><path style="fill:#b60eee" d="M190.64,113.54L171.76,125.37L167.92,126.12L168.00,125.64L186.88,114.06L190.76,113.09z"/><path style="fill:#800000" d="M170.51,73.16L171.03,73.77L154.23,83.15L152.54,83.15L121.11,61.17L121.11,60.79L138.36,51.96z"/><path style="fill:#000080" d="M209.19,90.34L209.92,95.11L210.16,97.93L197.99,105.51L195.62,106.86L194.98,106.83L194.03,106.21L192.95,105.34L192.21,104.81L191.10,105.01L186.71,101.85L169.75,90.11L169.75,89.47L172.34,88.00L189.99,77.90z"/><path style="fill:#01ff02" d="M98.18,9.31L99.69,13.87L52.04,35.57L51.23,35.84L48.02,28.26L47.96,27.78L96.63,6.03L96.92,6.06z"/><path style="fill:#3a97c3" d="M225.08,112.34L220.67,115.47L220.31,115.54L208.17,123.40L207.96,122.47L208.17,119.63L213.53,116.21L225.15,108.82z"/><path style="fill:#3a97c3" d="M172.76,142.33L190.90,130.73L191.20,130.74L191.24,134.37L187.49,136.91L173.00,146.09L172.80,145.17z"/><path style="fill:#000000" d="M204.71,132.26L210.22,136.22L210.46,136.85L194.59,147.48L193.95,147.52L187.98,142.99L187.75,142.64L187.84,142.40L203.85,132.01L204.44,131.92z"/><path style="fill:#ffffff" d="M91.72,4.18L91.13,4.59L89.17,4.57L89.19,4.18L89.86,3.81L91.49,3.81z"/><path style="fill:#ffffff" d="M43.98,24.28L45.09,24.03L45.08,24.32L44.76,24.57L44.03,24.52z"/><path style="fill:#ffffff" d="M112.91,57.48L112.92,57.75L103.59,62.46L102.92,62.47L97.83,58.74L97.83,58.47L107.44,53.71z"/><path style="fill:#ffffff" d="M231.64,68.03L227.80,70.44L226.86,70.44L224.06,68.68L228.30,66.15L228.62,66.15z"/><path style="fill:#ffffff" d="M195.21,90.15L195.25,90.45L193.39,91.64L192.48,91.61L188.69,89.09L188.64,88.87L190.88,87.60L191.46,87.60z"/><path style="fill:#ffffff" d="M122.42,98.11L122.39,98.41L117.05,101.37L116.66,101.34L113.12,98.58L113.05,98.12L118.66,95.11z"/><path style="fill:#ffffff" d="M240.86,153.44L238.49,155.21L237.85,155.25L235.34,153.45L235.34,153.07L237.77,151.44L238.10,151.45z"/><path style="fill:#ffffff" d="M257.81,168.66L257.20,169.17L256.29,169.21L254.54,167.91L254.47,167.46L255.24,166.91L255.55,166.91z"/><path style="fill:#ffffff" d="M252.61,180.12L252.85,180.73L252.23,181.40L250.55,181.42L249.56,180.63L249.56,180.00L250.47,179.39L251.58,179.39z"/><g id="Actor_.0"><g style="stroke:#000000;stroke-width:0.018"><path d="M204.10,103.44L208.40,102.18L208.40,102.66"/><path d="M208.40,102.18L225.93,91.30"/></g><g style="stroke:#000000;stroke-width:0.088"><path d="M204.10,103.91L208.40,102.66L225.92,91.79L225.93,91.30L221.48,92.69L204.10,103.44L204.10,103.91"/></g></g><g id="Actor_.1"><g style="stroke:#000000;stroke-width:0.018"><path d="M208.25,123.47L208.28,119.85L225.32,108.93"/><path d="M208.28,119.85L208.16,119.77"/></g><g style="stroke:#000000;stroke-width:0.088"><path d="M208.24,123.46L225.18,112.53L225.32,108.93L225.20,108.85L208.16,119.77L208.13,123.38L208.24,123.46"/></g></g><g id="Actor_.2"><g style="stroke:#000000;stroke-width:0.018"><path d="M170.12,154.06L169.71,147.25L169.41,147.33"/><path d="M169.71,147.25L172.91,145.19"/><path d="M178.71,147.70L178.58,147.81L178.51,147.82L178.47,147.80L178.45,147.75L178.46,147.68L178.57,147.53L178.63,147.48L178.70,147.47L178.74,147.50L178.76,147.55L178.75,147.62L178.71,147.70"/><path d="M178.76,147.55L178.67,147.48"/></g><g style="stroke:#000000;stroke-width:0.088"><path d="M187.74,136.70L187.90,142.47L170.12,154.06L169.80,153.80L169.41,147.33L172.90,145.08"/></g></g><g id="Actor_.3"><g style="stroke:#000000;stroke-width:0.018"><path d="M42.68,24.26L45.32,26.24L45.40,26.58"/><path d="M45.41,23.82L45.49,24.16L45.53,24.01L45.47,23.88L45.33,23.77L45.12,23.71L44.72,23.70L44.18,23.85L43.91,24.06L43.83,24.21L43.84,24.35L43.94,24.47"/><path d="M93.97,4.66L45.32,26.24"/><path d="M46.98,21.19L47.48,21.56L47.24,21.66"/><path d="M54.87,17.22L55.30,17.53L55.05,17.64"/><path d="M61.91,13.97L62.23,14.19L61.98,14.30"/><path d="M70.85,10.41L71.11,10.29L70.79,10.08"/><path d="M78.12,7.02L78.57,7.31L78.29,7.43"/><path d="M86.38,3.88L86.91,4.22L86.62,4.34"/><path d="M89.21,4.44L89.14,4.29L89.15,4.11L89.25,3.94L89.42,3.78L89.95,3.52L90.45,3.41L91.10,3.42L91.50,3.53L91.69,3.65L91.81,3.79L91.82,4.06"/><path d="M91.66,3.92L91.61,3.59"/></g><g style="stroke:#000000;stroke-width:0.088"><path d="M42.76,24.60L42.68,24.26L42.73,24.08L42.90,23.72L43.15,23.37L43.88,22.69L44.88,22.09L45.76,21.72L46.26,22.09L47.24,21.66L47.05,21.53L46.98,21.19L53.67,17.75L54.11,18.06L55.05,17.64L54.94,17.56L54.87,17.22L60.96,14.38L61.29,14.61L61.98,14.30L61.91,13.97L69.86,10.48L70.18,10.70L70.85,10.41L70.79,10.08L76.98,7.52L77.42,7.82L78.28,7.44L78.18,7.36L78.12,7.02L85.25,4.38L85.78,4.71L86.62,4.34L86.43,4.22L86.38,3.88L86.63,3.76L87.73,3.32L89.28,2.98L90.23,2.90L91.16,2.91L93.97,4.66L94.03,5.00L45.40,26.58L42.76,24.60"/><path d="M44.06,24.33L43.94,24.47L44.02,24.52L44.23,24.58L44.63,24.59L45.17,24.44L45.49,24.16L45.20,24.05L44.80,24.04L44.39,24.14L44.06,24.33"/><path d="M89.47,4.63L90.03,4.76L90.53,4.75L90.87,4.69L91.45,4.46L91.66,4.30L91.82,4.06L91.56,3.87L91.16,3.75L90.67,3.73L90.17,3.81L89.59,4.04L89.30,4.28L89.21,4.44L89.47,4.63"/></g></g><g id="Actor_.4"><g style="stroke:#000000;stroke-width:0.018"><path d="M51.47,35.94L48.19,27.95L47.96,27.79"/><path d="M48.19,27.95L97.06,6.13"/></g><g style="stroke:#000000;stroke-width:0.088"><path d="M48.35,28.72L47.96,27.79L96.82,5.98L97.06,6.13L99.92,13.85L51.47,35.94L51.25,35.77L48.35,28.72"/></g></g><g id="Actor_.5"><g style="stroke:#000000;stroke-width:0.018"><path d="M62.03,49.92L60.78,44.11L60.57,43.95"/><path d="M60.78,44.11L109.74,21.17"/></g><g style="stroke:#000000;stroke-width:0.088"><path d="M61.01,46.02L60.57,43.95L109.51,21.02L109.74,21.17L110.52,26.88L62.03,49.92L61.81,49.75L61.01,46.02"/></g></g><g id="Actor_.6"><g style="stroke:#000000;stroke-width:0.018"><path d="M167.94,125.80L171.89,124.82L171.91,125.31"/><path d="M171.89,124.82L190.96,112.99"/></g><g style="stroke:#000000;stroke-width:0.088"><path d="M167.97,126.28L171.91,125.31L190.97,113.48L190.96,112.99L186.83,114.12L167.94,125.80L167.97,126.28"/></g></g><g id="Actor_.7"><g style="stroke:#000000;stroke-width:0.018"><path d="M204.33,131.75L204.34,124.94L208.14,122.49"/><path d="M204.34,124.94L204.01,125.05"/><path d="M220.42,120.43L220.38,120.40L220.33,120.42L220.23,120.51L220.17,120.63L220.17,120.70L220.19,120.73L220.24,120.74L220.30,120.71L220.39,120.62L220.44,120.48L220.42,120.43L220.40,120.41"/></g><g style="stroke:#000000;stroke-width:0.088"><path d="M220.92,115.28L220.76,121.03L204.33,131.75L204.00,131.52L204.01,125.05L208.14,122.39"/></g></g><g id="Actor_.8"><g style="stroke:#000000;stroke-width:0.018"><path d="M169.72,89.59L191.51,104.67L192.11,104.30L192.12,104.73"/><path d="M195.61,90.32L195.94,90.12L191.25,87.01L188.35,88.72L188.70,88.95"/><path d="M191.52,105.10L191.51,104.67"/><path d="M192.11,104.30L195.46,106.61L210.34,97.44"/><path d="M191.25,87.01L191.26,87.44"/><path d="M195.47,107.04L195.46,106.61"/></g><g style="stroke:#000000;stroke-width:0.088"><path d="M169.75,90.02L169.72,89.59L190.04,77.84L209.31,90.29L210.34,97.44L210.34,97.88L195.47,107.04L192.12,104.73L191.52,105.10L169.75,90.02"/><path d="M188.79,89.01L188.70,88.95L191.26,87.44L195.61,90.32L193.04,91.85L188.79,89.01"/></g></g><g id="Actor_.9"><g style="stroke:#000000;stroke-width:0.018"><path d="M233.68,123.38L223.30,130.29L222.84,129.97"/><path d="M223.30,130.29L228.86,141.62L239.14,134.59"/><path d="M228.86,141.62L228.85,141.90"/></g><g style="stroke:#000000;stroke-width:0.088"><path d="M228.62,141.73L222.84,129.97L233.22,123.07L233.68,123.38L239.14,134.59L239.10,135.15L229.04,142.04"/></g></g><g id="Actor_.10"><g style="stroke:#000000;stroke-width:0.018"><path d="M106.35,126.69L131.75,148.52L147.29,138.06"/><path d="M107.47,125.18L108.01,125.64L107.79,125.78"/><path d="M131.84,148.93L131.75,148.52"/></g><g style="stroke:#000000;stroke-width:0.088"><path d="M106.45,127.10L131.84,148.93L147.35,138.48L147.29,138.06L120.95,116.63L107.47,125.18L107.56,125.58L107.78,125.77L106.35,126.69L106.45,127.10"/></g></g><g id="Actor_.11"><g style="stroke:#000000;stroke-width:0.018"><path d="M173.07,146.17L172.87,142.56L191.36,130.70"/><path d="M172.87,142.56L172.76,142.47"/></g><g style="stroke:#000000;stroke-width:0.088"><path d="M172.95,146.08L172.76,142.47L191.25,130.62L191.36,130.70L191.44,134.32L173.07,146.17L172.95,146.08"/></g></g><g id="Actor_.12"><g style="stroke:#000000;stroke-width:0.018"><path d="M194.26,147.71L194.26,147.28L187.96,142.47"/><path d="M194.26,147.28L210.58,136.46"/></g><g style="stroke:#000000;stroke-width:0.088"><path d="M188.20,143.08L187.97,142.90L187.96,142.47L204.23,131.86L210.58,136.46L210.58,136.89L194.26,147.71L188.20,143.08"/></g></g><g id="Actor_.13"><g style="stroke:#000000;stroke-width:0.018"><path d="M204.29,155.37L204.29,154.93L196.05,148.64"/><path d="M220.70,143.78L204.29,154.93"/></g><g style="stroke:#000000;stroke-width:0.088"><path d="M196.05,149.08L196.05,148.64L212.39,137.76L220.70,143.78L220.69,144.21L204.29,155.37L196.05,149.08"/></g></g><g id="Actor_.14"><g style="stroke:#000000;stroke-width:0.018"><path d="M76.81,67.88L83.86,73.43L83.92,73.75"/><path d="M83.86,73.43L132.99,48.36"/><path d="M96.35,61.47L96.25,61.58L96.34,61.68L96.56,61.67L96.69,61.55L96.60,61.45L96.35,61.47L96.38,61.69"/><path d="M113.20,57.62L113.44,57.50L107.46,53.29L97.38,58.35L97.66,58.55"/><path d="M100.40,64.66L100.62,64.63L100.70,64.48L100.56,64.41L100.36,64.45L100.27,64.56L100.40,64.66L100.36,64.45"/><path d="M107.51,53.60L107.46,53.29"/><path d="M112.77,53.22L112.94,53.26L112.97,53.36L112.85,53.45L112.67,53.46L112.64,53.25L112.77,53.22"/><path d="M112.64,53.25L112.55,53.36L112.67,53.46"/><path d="M116.75,56.31L116.98,56.29L117.07,56.18L116.98,56.08L116.73,56.11L116.64,56.22L116.73,56.31L116.73,56.11"/></g><g style="stroke:#000000;stroke-width:0.088"><path d="M76.87,68.20L76.81,67.88L125.58,43.46L132.99,48.36L133.03,48.68L83.92,73.75L76.87,68.20"/><path d="M97.85,58.69L97.66,58.55L107.51,53.60L113.20,57.62L103.29,62.67L97.85,58.69"/></g></g><g id="Actor_.15"><g style="stroke:#000000;stroke-width:0.018"><path d="M183.92,185.64L204.37,202.94L204.40,203.35"/><path d="M204.37,202.94L206.02,201.63L206.05,202.05"/><path d="M206.02,201.63L206.82,202.30L221.17,190.95"/><path d="M206.82,202.30L206.85,202.72"/></g><g style="stroke:#000000;stroke-width:0.088"><path d="M183.96,186.06L183.92,185.64L199.70,173.74L221.17,190.95L221.18,191.37L206.85,202.72L206.06,202.05L204.40,203.35L183.96,186.06"/></g></g><g id="Actor_.16"><g style="stroke:#000000;stroke-width:0.018"><path d="M84.05,80.06L115.12,104.90L115.18,105.24"/><path d="M108.93,76.67L108.72,76.60L108.58,76.64L108.49,76.76L108.58,76.86L108.72,76.87L108.90,76.80L108.93,76.67"/><path d="M108.90,76.64L108.92,76.77"/><path d="M118.65,95.08L118.60,94.75L112.61,98.06L112.88,98.27"/><path d="M112.81,79.93L112.80,80.03L112.97,80.11L113.15,80.07L113.25,79.95L113.20,79.87L113.09,79.83L112.95,79.84L112.81,79.93"/><path d="M113.20,79.87L113.22,80.01"/><path d="M115.13,104.91L132.75,95.02L133.06,94.82L133.39,94.45L133.50,94.18L133.54,93.91"/><path d="M118.60,94.75L122.96,98.13L122.74,98.25"/><path d="M121.04,86.08L121.01,86.21L121.16,86.29L121.37,86.25L121.46,86.12L121.41,86.04L121.29,86.00L121.04,86.08"/><path d="M121.41,86.04L121.43,86.19"/><path d="M125.97,89.48L125.89,89.42L125.67,89.42L125.56,89.48L125.52,89.57L125.62,89.68L125.83,89.68L125.94,89.62L125.97,89.48"/><path d="M125.94,89.45L125.96,89.60"/><path d="M132.75,95.02L132.79,95.36"/></g><g style="stroke:#000000;stroke-width:0.088"><path d="M84.60,80.77L84.11,80.38L84.05,80.06L102.69,70.42L133.11,93.19L133.33,93.40L133.48,93.65L133.57,94.24L133.54,94.51L133.33,94.91L132.79,95.36L115.18,105.24L84.60,80.77"/><path d="M113.23,98.08L112.88,98.27L116.95,101.49L122.74,98.25L118.65,95.08L113.23,98.08"/></g></g><g id="Actor_.17"><g style="stroke:#000000;stroke-width:0.018"><path d="M133.90,89.94L138.45,93.53L138.47,93.86"/><path d="M138.53,88.48L138.50,88.15L138.23,88.32L137.98,88.51L137.77,88.72L137.59,88.95L137.46,89.18L137.37,89.43L137.33,89.67L137.33,89.92L137.35,90.04"/><path d="M140.20,94.59L140.18,94.26L138.55,95.18"/><path d="M138.90,94.48L138.90,94.23L138.84,94.03L138.75,93.85L138.62,93.68L138.45,93.53"/><path d="M138.50,88.15L144.31,84.91L144.33,85.24"/><path d="M140.18,94.26L140.36,94.14L140.51,94.00L140.62,93.85L140.69,93.68L140.72,93.52"/><path d="M151.10,87.23L151.09,86.90L148.65,85.05L148.40,84.88L148.12,84.74L147.81,84.61L147.47,84.52L147.12,84.45L146.76,84.41L146.39,84.40L146.02,84.41L145.65,84.46L145.05,84.60L144.61,84.76L144.31,84.91"/><path d="M148.65,85.05L148.67,85.38"/><path d="M151.09,86.90L151.26,87.01L151.46,87.10L151.69,87.16L151.93,87.19L152.18,87.20L152.42,87.18L152.66,87.14L152.89,87.06L153.10,86.96L153.11,87.30"/><path d="M153.10,86.96L154.67,86.08"/></g><g style="stroke:#000000;stroke-width:0.088"><path d="M133.92,90.27L133.90,89.94L147.67,82.27L152.27,85.74L152.47,85.88L152.70,85.99L152.96,86.08L153.51,86.18L154.10,86.18L154.67,86.08L154.68,86.41L153.11,87.30L152.91,87.39L152.68,87.47L152.44,87.51L152.19,87.53L151.95,87.53L151.70,87.49L151.48,87.43L151.28,87.34L151.10,87.23L148.67,85.38L148.42,85.21L148.14,85.07L147.83,84.95L147.49,84.85L147.14,84.78L146.78,84.74L146.41,84.73L146.04,84.74L145.67,84.79L145.31,84.86L144.96,84.96L144.63,85.09L144.33,85.24L138.53,88.48L138.25,88.65L138.00,88.85L137.79,89.06L137.62,89.28L137.49,89.51L137.40,89.76L137.35,90.00L137.38,90.16L137.47,90.39L137.60,90.62L137.78,90.83L138.00,91.02L140.41,92.91L140.55,93.05L140.65,93.19L140.71,93.35L140.75,93.85L140.72,94.02L140.65,94.18L140.53,94.33L140.38,94.47L140.20,94.59L138.58,95.51L138.55,95.18L138.70,95.00L138.81,94.81L138.88,94.62L138.90,94.48L138.87,94.37L138.77,94.18L138.64,94.01L138.47,93.86L133.92,90.27"/></g></g><g id="Actor_.18"><g style="stroke:#000000;stroke-width:0.018"><path d="M107.88,69.33L133.89,89.84L133.92,90.27"/><path d="M133.89,89.84L147.67,82.18"/></g><g style="stroke:#000000;stroke-width:0.088"><path d="M147.67,82.27L147.67,82.18L121.37,62.33L107.88,69.33L107.93,69.75L133.92,90.27"/></g></g><g id="Actor_.19"><g style="stroke:#000000;stroke-width:0.018"><path d="M169.99,154.47L169.97,154.04L149.06,137.11"/><path d="M151.88,135.37L153.57,136.72L153.29,136.89"/><path d="M160.54,126.94L162.75,128.65L162.46,128.83"/><path d="M169.97,154.04L170.04,153.99"/><path d="M187.89,142.35L204.24,131.69"/></g><g style="stroke:#000000;stroke-width:0.088"><path d="M194.26,106.21L160.56,126.92L160.57,127.37L162.46,128.83L151.88,135.37L151.92,135.80L153.29,136.89L151.98,137.71L150.29,136.35L149.06,137.11L149.10,137.54L169.99,154.47L187.96,142.74"/><path d="M198.00,105.48L213.68,116.23"/><path d="M220.63,121.12L220.62,121.43L204.42,132.00"/></g></g><g id="Actor_.20"><g style="stroke:#000000;stroke-width:0.018"><path d="M237.91,186.82L237.94,186.37L237.31,185.88"/><path d="M237.94,186.37L246.53,187.05L246.49,187.51"/><path d="M243.63,165.75L244.34,166.94L244.94,168.16L245.42,169.42L245.66,170.26L245.85,171.12L246.04,172.52L246.10,173.73L246.04,175.03"/><path d="M245.89,172.00L245.92,171.55"/><path d="M246.53,187.05L253.63,181.68L256.51,183.82L256.46,184.28"/><path d="M253.01,180.67L253.06,180.42L253.04,180.16L252.96,179.91L252.72,179.56L252.49,179.35L252.07,179.11L251.74,179.01L251.41,178.95L250.95,178.95L250.58,179.01L250.28,179.12L250.03,179.28L249.83,179.47L249.68,179.69L249.59,179.93L249.59,180.27"/><path d="M250.03,179.28L249.99,179.73"/><path d="M253.63,181.68L253.59,182.14"/><path d="M258.02,168.61L258.35,168.36L255.53,166.33L254.01,167.46L254.30,167.67"/><path d="M255.53,166.33L255.48,166.79"/><path d="M256.51,183.82L268.86,174.42"/><path d="M260.36,168.32L258.33,169.83L258.62,170.04"/></g><g style="stroke:#000000;stroke-width:0.088"><path d="M237.45,185.77L237.31,185.88L237.28,186.33L237.91,186.82L246.49,187.51L253.59,182.14L256.46,184.28L268.80,174.88L268.86,174.42L261.92,169.45L259.90,170.97L258.62,170.04L260.31,168.78L260.36,168.32L250.16,161.01L243.63,165.75L243.59,166.21L244.08,167.00L244.52,167.80L244.91,168.62L245.24,169.45L245.51,170.29L245.82,171.57L245.95,172.49L246.04,173.45L246.05,174.84L245.90,176.03L245.60,177.24L245.18,178.35L244.87,178.98L244.49,179.64L243.81,180.59L242.82,181.77L237.45,185.77"/><path d="M249.59,180.31L249.67,180.56L249.82,180.80L250.14,181.12L250.57,181.36L250.89,181.47L251.23,181.53L251.74,181.53L252.06,181.47L252.35,181.36L252.72,181.11L252.89,180.90L253.01,180.67L252.97,180.49L252.85,180.24L252.68,180.01L252.45,179.81L252.02,179.57L251.70,179.46L251.37,179.40L250.86,179.40L250.54,179.47L250.24,179.58L249.99,179.73L249.79,179.92L249.64,180.14L249.59,180.31"/><path d="M254.41,167.58L254.30,167.67L256.83,169.50L258.02,168.61L255.48,166.79L254.41,167.58"/></g></g><g id="Actor_.21"><g style="stroke:#000000;stroke-width:0.018"><path d="M208.71,67.11L224.73,76.85L243.39,65.62"/><path d="M228.50,66.08L228.52,65.66L223.73,68.49L224.08,68.70"/><path d="M225.03,77.47L224.73,76.85"/><path d="M228.52,65.66L232.21,67.82L231.84,68.04"/></g><g style="stroke:#000000;stroke-width:0.088"><path d="M208.70,67.54L208.71,67.11L227.22,56.40L243.39,65.62L243.67,66.23L225.03,77.47L208.70,67.54"/><path d="M224.48,68.46L224.08,68.70L227.41,70.68L231.84,68.04L228.50,66.08L224.48,68.46"/></g></g><g id="Actor_.22"><g style="stroke:#000000;stroke-width:0.018"><path d="M64.22,51.64L69.17,56.04L69.22,56.36"/><path d="M69.17,56.04L117.99,32.37"/></g><g style="stroke:#000000;stroke-width:0.088"><path d="M64.28,51.96L69.22,56.36L118.01,32.69L117.99,32.37L112.84,28.41L64.22,51.64L64.28,51.96"/></g></g><g id="Actor_.23"><g style="stroke:#000000;stroke-width:0.018"><path d="M74.23,65.64L72.94,59.24L72.71,59.03"/><path d="M72.94,59.24L121.93,35.23"/></g><g style="stroke:#000000;stroke-width:0.088"><path d="M73.67,63.83L72.71,59.03L121.69,35.05L121.93,35.23L122.70,41.54L74.23,65.64L74.00,65.47L73.67,63.83"/></g></g><g id="Actor_.24"><g style="stroke:#000000;stroke-width:0.018"><path d="M152.13,82.89L152.10,82.55L121.17,60.85"/><path d="M130.08,65.32L129.89,65.42L129.93,65.54L130.12,65.57L130.28,65.51L130.28,65.35L130.08,65.32"/><path d="M130.28,65.35L130.33,65.42L130.30,65.49"/><path d="M134.69,68.56L134.44,68.64L134.32,68.61L134.27,68.53L134.36,68.41L134.56,68.37L134.70,68.45L134.69,68.56L134.67,68.41"/><path d="M143.06,74.41L142.81,74.49L142.69,74.45L142.63,74.37L142.72,74.25L142.92,74.21L143.08,74.29L143.06,74.41L143.04,74.25"/><path d="M147.67,77.63L147.41,77.71L147.29,77.67L147.24,77.59L147.33,77.47L147.53,77.43L147.69,77.51L147.68,77.62L147.65,77.47"/><path d="M152.10,82.55L152.40,82.71L152.75,82.83L153.55,82.92L154.37,82.80L154.91,82.57L154.93,82.92"/><path d="M154.91,82.57L171.06,73.51"/></g><g style="stroke:#000000;stroke-width:0.088"><path d="M121.21,61.18L152.13,82.89L152.78,83.18L153.17,83.25L153.79,83.25L154.40,83.14L154.77,83.00L171.08,73.85L171.06,73.51L138.41,51.93L121.17,60.85L121.21,61.18"/></g></g><g id="Actor_.25"><g style="stroke:#000000;stroke-width:0.018"><path d="M142.03,99.06L141.98,98.63L138.73,96.20L138.57,96.08L138.44,95.94L138.28,95.72L138.17,95.49L138.11,95.24"/><path d="M138.73,96.20L138.77,96.63"/><path d="M141.98,98.63L152.21,92.79"/></g><g style="stroke:#000000;stroke-width:0.088"><path d="M138.62,93.99L138.40,94.25L138.25,94.49L138.15,94.74L138.10,94.99L138.10,95.16L138.17,95.75L138.25,95.99L138.37,96.22L138.55,96.44L138.77,96.63L142.03,99.06L152.25,93.22L152.21,92.79L148.85,90.37L148.47,90.17L148.03,90.01L147.55,89.91L147.04,89.87L146.52,89.89L146.01,89.96L145.63,90.05L145.16,90.22L144.84,90.38L140.38,92.90"/></g></g><g id="Actor_.26"><g style="stroke:#000000;stroke-width:0.018"><path d="M133.69,106.18L157.94,124.93L157.97,125.36"/><path d="M157.94,124.93L191.00,104.74"/></g><g style="stroke:#000000;stroke-width:0.088"><path d="M191.33,104.97L157.97,125.36L133.74,106.60L133.69,106.18L169.22,85.79L172.48,87.99"/></g></g><g id="Actor_.27"><g style="stroke:#000000;stroke-width:0.018"><path d="M232.01,182.75L232.03,182.31L209.82,165.13L209.03,158.43L206.22,156.29"/><path d="M209.03,158.43L209.02,158.87"/><path d="M209.81,165.57L209.82,165.13"/><path d="M222.00,145.52L221.68,146.24L221.33,147.34L221.19,148.10L221.11,149.18"/><path d="M232.03,182.31L232.42,182.03L232.40,182.47"/><path d="M232.42,182.03L233.77,180.43L234.42,179.45L234.79,178.75L235.10,178.01L235.45,176.88L235.63,176.01L235.77,174.70"/><path d="M235.74,175.14L235.75,175.04"/></g><g style="stroke:#000000;stroke-width:0.088"><path d="M206.48,156.92L206.22,156.73L206.22,156.29L222.00,145.52L221.98,145.96L221.53,147.04L221.23,148.16L221.13,148.92L221.12,149.63L221.27,150.79L221.46,151.56L221.88,152.70L222.25,153.45L222.93,154.50L223.74,155.46L224.37,156.08L226.16,157.56L227.61,158.89L228.94,160.30L230.33,162.01L231.98,164.25L233.83,167.03L234.33,167.93L234.75,168.84L235.25,170.25L235.49,171.20L235.66,172.16L235.78,173.74L235.71,175.58L235.60,176.45L235.43,177.32L235.21,178.07L234.92,178.82L234.39,179.89L233.60,181.06L232.40,182.47L232.01,182.75L209.81,165.57L209.02,158.87L206.48,156.92"/></g></g><g id="Actor_.28"><g style="stroke:#000000;stroke-width:0.018"><path d="M227.45,145.51L227.46,146.27L227.56,147.03L227.83,148.17L228.27,149.30L228.64,150.04L229.03,150.66L229.48,151.27L230.26,152.14L230.85,152.69L232.64,154.15L233.67,155.05L234.64,155.99L235.99,157.46L237.79,159.71L239.73,162.39L240.35,163.30L240.32,163.75"/><path d="M228.64,150.04L228.62,150.48"/><path d="M231.47,153.66L231.49,153.22"/><path d="M232.64,154.15L232.62,154.59"/><path d="M237.99,151.33L238.02,150.88L234.90,153.07L235.20,153.29"/><path d="M236.39,158.41L236.42,157.97"/><path d="M238.02,150.88L241.31,153.24L240.98,153.47"/><path d="M240.35,163.30L266.87,144.19"/></g><g style="stroke:#000000;stroke-width:0.088"><path d="M227.89,148.85L227.61,147.86L227.48,147.10L227.43,146.33L227.46,145.13L227.56,144.38L227.72,143.64L228.44,141.61L234.72,146.07L245.05,138.90L247.61,140.66L254.46,135.87L266.87,144.19L266.82,144.64L240.32,163.75L239.07,161.93L237.76,160.15L236.39,158.41L235.49,157.36L234.59,156.40L233.63,155.48L232.62,154.59L230.83,153.14L230.24,152.59L229.71,152.01L229.23,151.41L228.62,150.48L228.25,149.74L227.89,148.85"/><path d="M235.44,153.46L235.20,153.29L237.99,151.33L240.97,153.46L238.19,155.45L235.44,153.46"/></g></g><g id="Actor_.29"><g style="stroke:#000000;stroke-width:0.018"><path d="M247.18,133.09L247.22,132.62L239.41,119.82L238.87,119.46"/><path d="M239.41,119.82L246.09,115.37"/><path d="M247.22,132.62L253.84,128.06"/></g><g style="stroke:#000000;stroke-width:0.088"><path d="M239.20,120.00L247.18,133.09L253.80,128.53L253.84,128.06L246.09,115.37L245.55,115.02L238.87,119.46L239.20,120.00"/></g></g><g id="Actor_.30"><g style="stroke:#000000;stroke-width:0.018"><path d="M52.62,37.63L58.31,41.95L107.16,19.22"/><path d="M56.19,36.98L56.15,36.78L56.33,36.75L56.46,36.80L56.41,36.92L56.18,36.98L56.05,36.93L56.08,36.82L56.15,36.78"/><path d="M58.38,42.29L58.31,41.95"/><path d="M60.62,40.32L60.58,40.11L60.77,40.08L60.90,40.13L60.84,40.26L60.62,40.32L60.50,40.27L60.48,40.21L60.58,40.11"/><path d="M69.61,30.60L69.53,30.73L69.66,30.79L69.84,30.76L69.94,30.66L69.80,30.56L69.61,30.60L69.65,30.79"/><path d="M74.18,34.01L74.40,33.96L74.46,33.83L74.33,33.78L74.14,33.81L74.04,33.91L74.18,34.01L74.14,33.81"/><path d="M86.48,23.05L86.45,22.87L86.70,22.85L86.77,22.94L86.59,23.05L86.42,23.04L86.35,22.96L86.45,22.87"/><path d="M91.07,26.15L91.04,25.96L90.95,26.05L91.07,26.15L91.29,26.11L91.36,25.98L91.22,25.93L91.04,25.96"/><path d="M99.13,17.05L99.04,17.14L99.11,17.22L99.28,17.23L99.45,17.11L99.30,17.02L99.13,17.05L99.15,17.23"/><path d="M103.79,20.04L103.96,20.01L104.11,20.10L104.03,20.20L103.81,20.22L103.79,20.04L103.70,20.13L103.81,20.22"/></g><g style="stroke:#000000;stroke-width:0.088"><path d="M52.84,38.08L52.62,37.63L101.14,15.39L107.16,19.22L107.21,19.55L58.38,42.29L52.84,38.08"/></g></g><g><g><path style="stroke:#000000;stroke-width:0.250;stroke-dasharray:2.0 2.0" d="M214.66,118.66L215.05,97.59"/></g></g><g><g><path style="stroke:#000000;stroke-width:0.250;stroke-dasharray:2.0 2.0" d="M180.37,140.76L179.50,119.61"/></g></g><g><g><path style="stroke:#000000;stroke-width:0.250;stroke-dasharray:2.0 2.0" d="M224.31,119.06L226.16,66.67"/></g></g><g><g><path style="stroke:#000000;stroke-width:0.250;stroke-dasharray:2.0 2.0" d="M193.33,144.95L192.37,92.13"/></g></g><g id="PMI31.0"><g><path style="stroke:#000000;stroke-width:0.250" d="M256.55,131.48L240.65,131.10"/></g><g><path style="fill:#000000" d="M240.66,130.10L240.62,132.10L238.64,131.05z"/></g><g><path style="fill:#ffffff" d="M256.54,134.52L275.12,134.52L275.12,128.88L256.54,128.88z"/><path style="stroke:#000000;stroke-width:0.250;stroke-opacity:0.98" d="M256.54,134.52L275.12,134.52L275.12,128.88L256.54,128.88z"/><text xml:space="preserve" fill="#000000" stroke-width="0" x="257.24" y="132.93" font-size="3.43" opacity="1.00" font-family="MS Shell Dlg">390000261</text></g></g><g id="PMI36.0"><g><path style="stroke:#000000;stroke-width:0.250" d="M215.57,84.64L215.90,92.84"/></g><g><path style="fill:#000000" d="M214.90,92.88L216.89,92.80L215.98,94.84z"/></g><g><path style="fill:#ffffff" d="M206.16,84.64L224.74,84.64L224.74,79.00L206.16,79.00z"/><path style="stroke:#000000;stroke-width:0.250;stroke-opacity:0.98" d="M206.16,84.64L224.74,84.64L224.74,79.00L206.16,79.00z"/><text xml:space="preserve" fill="#000000" stroke-width="0" x="206.86" y="83.05" font-size="3.43" opacity="1.00" font-family="MS Shell Dlg">390000181</text></g></g><g id="PMI27.0"><g><path style="stroke:#000000;stroke-width:0.250" d="M201.33,161.81L200.98,155.72"/></g><g><path style="fill:#000000" d="M201.98,155.66L199.98,155.77L200.87,153.72z"/></g><g><path style="fill:#ffffff" d="M192.19,167.44L210.77,167.44L210.77,161.80L192.19,161.80z"/><path style="stroke:#000000;stroke-width:0.250;stroke-opacity:0.98" d="M192.19,167.44L210.77,167.44L210.77,161.80L192.19,161.80z"/><text xml:space="preserve" fill="#000000" stroke-width="0" x="192.89" y="165.86" font-size="3.43" opacity="1.00" font-family="MS Shell Dlg">390000231</text></g></g><g id="PMI17.0"><g><path style="stroke:#000000;stroke-width:0.250" d="M152.66,151.40L163.18,151.39"/></g><g><path style="fill:#000000" d="M163.18,152.38L163.17,150.38L165.17,151.37z"/></g><g><path style="fill:#ffffff" d="M134.08,154.22L152.66,154.22L152.66,148.58L134.08,148.58z"/><path style="stroke:#000000;stroke-width:0.250;stroke-opacity:0.98" d="M134.08,154.22L152.66,154.22L152.66,148.58L134.08,148.58z"/><text xml:space="preserve" fill="#000000" stroke-width="0" x="134.78" y="152.64" font-size="3.43" opacity="1.00" font-family="MS Shell Dlg">390000112</text></g></g><g id="PMI22.0"><g><path style="stroke:#000000;stroke-width:0.250" d="M187.61,71.17L187.78,76.42"/></g><g><path style="fill:#000000" d="M186.78,76.46L188.77,76.40L187.84,78.43z"/></g><g><path style="fill:#ffffff" d="M178.22,71.17L196.81,71.17L196.81,65.53L178.22,65.53z"/><path style="stroke:#000000;stroke-width:0.250;stroke-opacity:0.98" d="M178.22,71.17L196.81,71.17L196.81,65.53L178.22,65.53z"/><text xml:space="preserve" fill="#000000" stroke-width="0" x="178.93" y="69.58" font-size="3.43" opacity="1.00" font-family="MS Shell Dlg">390000202</text></g></g><g id="PMI20.0"><g><path style="stroke:#000000;stroke-width:0.250" d="M247.81,61.94L239.09,61.79"/></g><g><path style="fill:#000000" d="M239.10,60.79L239.06,62.79L237.08,61.75z"/></g><g><path style="fill:#ffffff" d="M247.81,64.94L266.39,64.94L266.39,59.29L247.81,59.29z"/><path style="stroke:#000000;stroke-width:0.250;stroke-opacity:0.98" d="M247.81,64.94L266.39,64.94L266.39,59.29L247.81,59.29z"/><text xml:space="preserve" fill="#000000" stroke-width="0" x="248.51" y="63.35" font-size="3.43" opacity="1.00" font-family="MS Shell Dlg">390000162</text></g></g><g id="PMI32.0"><g><path style="stroke:#000000;stroke-width:0.250" d="M163.26,84.62L155.71,84.67"/></g><g><path style="fill:#000000" d="M155.70,83.67L155.72,85.67L153.71,84.68z"/></g><g><path style="fill:#ffffff" d="M163.26,87.38L181.84,87.38L181.84,81.74L163.26,81.74z"/><path style="stroke:#000000;stroke-width:0.250;stroke-opacity:0.98" d="M163.26,87.38L181.84,87.38L181.84,81.74L163.26,81.74z"/><text xml:space="preserve" fill="#000000" stroke-width="0" x="163.96" y="85.80" font-size="3.43" opacity="1.00" font-family="MS Shell Dlg">390006281</text></g></g><g id="PMI13.0"><g><path style="stroke:#000000;stroke-width:0.250" d="M112.13,7.91L99.42,9.18"/></g><g><path style="fill:#000000" d="M99.33,8.19L99.53,10.18L97.44,9.39z"/></g><g><path style="fill:#ffffff" d="M112.13,9.82L130.72,9.82L130.72,4.17L112.13,4.17z"/><path style="stroke:#000000;stroke-width:0.250;stroke-opacity:0.98" d="M112.13,9.82L130.72,9.82L130.72,4.17L112.13,4.17z"/><text xml:space="preserve" fill="#000000" stroke-width="0" x="112.83" y="8.23" font-size="3.43" opacity="1.00" font-family="MS Shell Dlg">390000021</text></g></g><g id="PMI14.0"><g><path style="stroke:#000000;stroke-width:0.250" d="M43.89,13.81L60.28,14.43"/></g><g><path style="fill:#000000" d="M60.26,15.45L60.34,13.46L62.30,14.53z"/></g><g><path style="fill:#ffffff" d="M25.34,16.30L43.92,16.30L43.92,10.66L25.34,10.66z"/><path style="stroke:#000000;stroke-width:0.250;stroke-opacity:0.98" d="M25.34,16.30L43.92,16.30L43.92,10.66L25.34,10.66z"/><text xml:space="preserve" fill="#000000" stroke-width="0" x="26.04" y="14.71" font-size="3.43" opacity="1.00" font-family="MS Shell Dlg">390000011</text></g></g><g id="PMI11.0"><g><path style="stroke:#000000;stroke-width:0.250" d="M133.58,33.81L123.91,34.98"/></g><g><path style="fill:#000000" d="M123.80,34.00L124.04,35.98L121.93,35.23z"/></g><g><path style="fill:#ffffff" d="M133.58,35.51L152.16,35.51L152.16,29.86L133.58,29.86z"/><path style="stroke:#000000;stroke-width:0.250;stroke-opacity:0.98" d="M133.58,35.51L152.16,35.51L152.16,29.86L133.58,29.86z"/><text xml:space="preserve" fill="#000000" stroke-width="0" x="134.28" y="33.92" font-size="3.43" opacity="1.00" font-family="MS Shell Dlg">390000061</text></g></g><g id="PMI34.0"><g><path style="stroke:#000000;stroke-width:0.250" d="M43.89,39.71L55.30,39.17"/></g><g><path style="fill:#000000" d="M55.37,40.18L55.27,38.18L57.32,39.09z"/></g><g><path style="fill:#ffffff" d="M25.34,42.99L43.92,42.99L43.92,37.35L25.34,37.35z"/><path style="stroke:#000000;stroke-width:0.250;stroke-opacity:0.98" d="M25.34,42.99L43.92,42.99L43.92,37.35L25.34,37.35z"/><text xml:space="preserve" fill="#000000" stroke-width="0" x="26.04" y="41.40" font-size="3.43" opacity="1.00" font-family="MS Shell Dlg">390006031</text></g></g><g id="PMI12.0"><g><path style="stroke:#000000;stroke-width:0.250" d="M118.36,22.52L112.71,23.02"/></g><g><path style="fill:#000000" d="M112.63,22.02L112.80,24.02L110.72,23.20z"/></g><g><path style="fill:#ffffff" d="M118.36,24.53L136.95,24.53L136.95,18.89L118.36,18.89z"/><path style="stroke:#000000;stroke-width:0.250;stroke-opacity:0.98" d="M118.36,24.53L136.95,24.53L136.95,18.89L118.36,18.89z"/><text xml:space="preserve" fill="#000000" stroke-width="0" x="119.07" y="22.95" font-size="3.43" opacity="1.00" font-family="MS Shell Dlg">390000041</text></g></g><g id="PMI25.0"><g><path style="stroke:#000000;stroke-width:0.250" d="M152.53,54.27L143.98,54.63"/></g><g><path style="fill:#000000" d="M143.94,53.64L144.03,55.63L141.99,54.72z"/></g><g><path style="fill:#ffffff" d="M152.53,56.71L171.12,56.71L171.12,51.06L152.53,51.06z"/><path style="stroke:#000000;stroke-width:0.250;stroke-opacity:0.98" d="M152.53,56.71L171.12,56.71L171.12,51.06L152.53,51.06z"/><text xml:space="preserve" fill="#000000" stroke-width="0" x="153.24" y="55.12" font-size="3.43" opacity="1.00" font-family="MS Shell Dlg">390000071</text></g></g><g id="PMI10.0"><g><path style="stroke:#000000;stroke-width:0.250" d="M59.87,53.78L66.24,53.89"/></g><g><path style="fill:#000000" d="M66.24,54.90L66.28,52.90L68.26,53.94z"/></g><g><path style="fill:#ffffff" d="M41.30,56.46L59.88,56.46L59.88,50.81L41.30,50.81z"/><path style="stroke:#000000;stroke-width:0.250;stroke-opacity:0.98" d="M41.30,56.46L59.88,56.46L59.88,50.81L41.30,50.81z"/><text xml:space="preserve" fill="#000000" stroke-width="0" x="42.00" y="54.87" font-size="3.43" opacity="1.00" font-family="MS Shell Dlg">390000051</text></g></g><g id="PMI33.0"><g><path style="stroke:#000000;stroke-width:0.250" d="M122.37,53.46L121.62,60.75"/></g><g><path style="fill:#000000" d="M120.63,60.66L122.62,60.86L121.42,62.75z"/></g><g><path style="fill:#ffffff" d="M113.38,53.46L131.96,53.46L131.96,47.82L113.38,47.82z"/><path style="stroke:#000000;stroke-width:0.250;stroke-opacity:0.98" d="M113.38,53.46L131.96,53.46L131.96,47.82L113.38,47.82z"/><text xml:space="preserve" fill="#000000" stroke-width="0" x="114.08" y="51.88" font-size="3.43" opacity="1.00" font-family="MS Shell Dlg">390006081</text></g></g><g id="PMI28.0"><g><path style="stroke:#000000;stroke-width:0.250" d="M71.84,69.45L79.27,69.33"/></g><g><path style="fill:#000000" d="M79.30,70.34L79.27,68.34L81.28,69.31z"/></g><g><path style="fill:#ffffff" d="M53.27,72.42L71.85,72.42L71.85,66.78L53.27,66.78z"/><path style="stroke:#000000;stroke-width:0.250;stroke-opacity:0.98" d="M53.27,72.42L71.85,72.42L71.85,66.78L53.27,66.78z"/><text xml:space="preserve" fill="#000000" stroke-width="0" x="53.98" y="70.83" font-size="3.43" opacity="1.00" font-family="MS Shell Dlg">390000241</text></g></g><g id="PMI8.0"><g><path style="stroke:#000000;stroke-width:0.250" d="M87.80,92.63L98.81,92.73"/></g><g><path style="fill:#000000" d="M98.81,93.74L98.83,91.74L100.82,92.76z"/></g><g><path style="fill:#ffffff" d="M69.23,95.36L87.82,95.36L87.82,89.72L69.23,89.72z"/><path style="stroke:#000000;stroke-width:0.250;stroke-opacity:0.98" d="M69.23,95.36L87.82,95.36L87.82,89.72L69.23,89.72z"/><text xml:space="preserve" fill="#000000" stroke-width="0" x="69.94" y="93.78" font-size="3.43" opacity="1.00" font-family="MS Shell Dlg">390000251</text></g></g><g id="PMI15.0"><g><path style="stroke:#000000;stroke-width:0.250" d="M122.95,105.68L138.68,96.86"/></g><g><path style="fill:#000000" d="M139.17,97.73L138.19,95.99L140.42,95.88z"/></g><g><path style="fill:#ffffff" d="M108.64,111.33L127.22,111.33L127.22,105.68L108.64,105.68z"/><path style="stroke:#000000;stroke-width:0.250;stroke-opacity:0.98" d="M108.64,111.33L127.22,111.33L127.22,105.68L108.64,105.68z"/><text xml:space="preserve" fill="#000000" stroke-width="0" x="109.34" y="109.74" font-size="3.43" opacity="1.00" font-family="MS Shell Dlg">390000091</text></g></g><g id="PMI16.0"><g><path style="stroke:#000000;stroke-width:0.250" d="M139.44,116.99L145.98,116.99"/></g><g><path style="fill:#000000" d="M145.98,117.98L145.98,115.98L147.98,116.98z"/></g><g><path style="fill:#ffffff" d="M120.86,119.81L139.44,119.81L139.44,114.16L120.86,114.16z"/><path style="stroke:#000000;stroke-width:0.250;stroke-opacity:0.98" d="M120.86,119.81L139.44,119.81L139.44,114.16L120.86,114.16z"/><text xml:space="preserve" fill="#000000" stroke-width="0" x="121.56" y="118.22" font-size="3.43" opacity="1.00" font-family="MS Shell Dlg">390000101</text></g></g><g id="PMI30.0"><g><path style="stroke:#000000;stroke-width:0.250" d="M99.78,125.68L106.00,125.65"/></g><g><path style="fill:#000000" d="M106.01,126.65L106.00,124.65L108.01,125.64z"/></g><g><path style="fill:#ffffff" d="M81.20,128.53L99.79,128.53L99.79,122.89L81.20,122.89z"/><path style="stroke:#000000;stroke-width:0.250;stroke-opacity:0.98" d="M81.20,128.53L99.79,128.53L99.79,122.89L81.20,122.89z"/><text xml:space="preserve" fill="#000000" stroke-width="0" x="81.91" y="126.95" font-size="3.43" opacity="1.00" font-family="MS Shell Dlg">390000272</text></g></g><g id="PMI23.0"><g><path style="stroke:#000000;stroke-width:0.250" d="M224.61,120.56L222.18,120.58"/></g><g><path style="fill:#000000" d="M222.17,119.58L222.18,121.58L220.18,120.60z"/></g><g><path style="fill:#ffffff" d="M224.61,123.30L243.20,123.30L243.20,117.65L224.61,117.65z"/><path style="stroke:#000000;stroke-width:0.250;stroke-opacity:0.98" d="M224.61,123.30L243.20,123.30L243.20,117.65L224.61,117.65z"/><text xml:space="preserve" fill="#000000" stroke-width="0" x="225.32" y="121.71" font-size="3.43" opacity="1.00" font-family="MS Shell Dlg">390000191</text></g></g><g id="PMI26.0"><g><path style="stroke:#000000;stroke-width:0.250" d="M190.39,151.08L190.62,145.82"/></g><g><path style="fill:#000000" d="M191.62,145.86L189.62,145.77L190.71,143.82z"/></g><g><path style="fill:#ffffff" d="M180.97,156.72L199.55,156.72L199.55,151.07L180.97,151.07z"/><path style="stroke:#000000;stroke-width:0.250;stroke-opacity:0.98" d="M180.97,156.72L199.55,156.72L199.55,151.07L180.97,151.07z"/><text xml:space="preserve" fill="#000000" stroke-width="0" x="181.67" y="155.13" font-size="3.43" opacity="1.00" font-family="MS Shell Dlg">390000221</text></g></g><g id="PMI21.0"><g><path style="stroke:#000000;stroke-width:0.250" d="M258.29,116.33L247.69,116.44"/></g><g><path style="fill:#000000" d="M247.67,115.44L247.69,117.44L245.68,116.46z"/></g><g><path style="fill:#ffffff" d="M258.28,119.06L276.87,119.06L276.87,113.41L258.28,113.41z"/><path style="stroke:#000000;stroke-width:0.250;stroke-opacity:0.98" d="M258.28,119.06L276.87,119.06L276.87,113.41L258.28,113.41z"/><text xml:space="preserve" fill="#000000" stroke-width="0" x="258.99" y="117.47" font-size="3.43" opacity="1.00" font-family="MS Shell Dlg">390000151</text></g></g><g id="PMI37.0"><g><path style="stroke:#000000;stroke-width:0.250" d="M237.59,109.58L227.62,109.67"/></g><g><path style="fill:#000000" d="M227.61,108.67L227.62,110.67L225.62,109.69z"/></g><g><path style="fill:#ffffff" d="M237.58,112.32L256.17,112.32L256.17,106.68L237.58,106.68z"/><path style="stroke:#000000;stroke-width:0.250;stroke-opacity:0.98" d="M237.58,112.32L256.17,112.32L256.17,106.68L237.58,106.68z"/><text xml:space="preserve" fill="#000000" stroke-width="0" x="238.29" y="110.74" font-size="3.43" opacity="1.00" font-family="MS Shell Dlg">390000171</text></g></g><g id="PMI35.0"><g><path style="stroke:#000000;stroke-width:0.250" d="M178.96,159.06L178.69,149.49"/></g><g><path style="fill:#000000" d="M179.69,149.46L177.69,149.51L178.63,147.48z"/></g><g><path style="fill:#ffffff" d="M169.74,164.70L188.33,164.70L188.33,159.06L169.74,159.06z"/><path style="stroke:#000000;stroke-width:0.250;stroke-opacity:0.98" d="M169.74,164.70L188.33,164.70L188.33,159.06L169.74,159.06z"/><text xml:space="preserve" fill="#000000" stroke-width="0" x="170.45" y="163.11" font-size="3.43" opacity="1.00" font-family="MS Shell Dlg">390006291</text></g></g><g id="PMI37.1"><g><path style="stroke:#000000;stroke-width:0.250" d="M150.17,142.98L170.77,142.52"/></g><g><path style="fill:#000000" d="M170.78,143.51L170.74,141.51L172.76,142.47z"/></g><g><path style="fill:#ffffff" d="M131.58,145.99L150.17,145.99L150.17,140.35L131.58,140.35z"/><path style="stroke:#000000;stroke-width:0.250;stroke-opacity:0.98" d="M131.58,145.99L150.17,145.99L150.17,140.35L131.58,140.35z"/><text xml:space="preserve" fill="#000000" stroke-width="0" x="132.29" y="144.41" font-size="3.43" opacity="1.00" font-family="MS Shell Dlg">390000171</text></g></g><g id="PMI19.0"><g><path style="stroke:#000000;stroke-width:0.250" d="M271.27,150.91L257.84,152.00"/></g><g><path style="fill:#000000" d="M257.75,151.00L257.91,152.99L255.84,152.15z"/></g><g><path style="fill:#ffffff" d="M271.25,152.98L289.83,152.98L289.83,147.33L271.25,147.33z"/><path style="stroke:#000000;stroke-width:0.250;stroke-opacity:0.98" d="M271.25,152.98L289.83,152.98L289.83,147.33L271.25,147.33z"/><text xml:space="preserve" fill="#000000" stroke-width="0" x="271.96" y="151.39" font-size="3.43" opacity="1.00" font-family="MS Shell Dlg">390000142</text></g></g><g id="PMI18.0"><g><path style="stroke:#000000;stroke-width:0.250" d="M232.49,189.74L232.01,182.30"/></g><g><path style="fill:#000000" d="M232.99,182.22L231.00,182.35L231.87,180.29z"/></g><g><path style="fill:#ffffff" d="M223.36,195.38L241.95,195.38L241.95,189.73L223.36,189.73z"/><path style="stroke:#000000;stroke-width:0.250;stroke-opacity:0.98" d="M223.36,195.38L241.95,195.38L241.95,189.73L223.36,189.73z"/><text xml:space="preserve" fill="#000000" stroke-width="0" x="224.07" y="193.79" font-size="3.43" opacity="1.00" font-family="MS Shell Dlg">390000122</text></g></g><g id="PMI36.1"><g><path style="stroke:#000000;stroke-width:0.250" d="M155.16,125.57L169.92,125.35"/></g><g><path style="fill:#000000" d="M169.93,126.34L169.90,124.34L171.91,125.31z"/></g><g><path style="fill:#ffffff" d="M136.57,128.53L155.15,128.53L155.15,122.89L136.57,122.89z"/><path style="stroke:#000000;stroke-width:0.250;stroke-opacity:0.98" d="M136.57,128.53L155.15,128.53L155.15,122.89L136.57,122.89z"/><text xml:space="preserve" fill="#000000" stroke-width="0" x="137.28" y="126.95" font-size="3.43" opacity="1.00" font-family="MS Shell Dlg">390000181</text></g></g><g id="PMI24.0"><g><path style="stroke:#000000;stroke-width:0.250" d="M256.99,192.24L256.71,185.43"/></g><g><path style="fill:#000000" d="M257.70,185.37L255.70,185.46L256.62,183.42z"/></g><g><path style="fill:#ffffff" d="M247.81,197.87L266.39,197.87L266.39,192.23L247.81,192.23z"/><path style="stroke:#000000;stroke-width:0.250;stroke-opacity:0.98" d="M247.81,197.87L266.39,197.87L266.39,192.23L247.81,192.23z"/><text xml:space="preserve" fill="#000000" stroke-width="0" x="248.51" y="196.28" font-size="3.43" opacity="1.00" font-family="MS Shell Dlg">390000132</text></g></g><g id="PMI29.0"><g><path style="stroke:#000000;stroke-width:0.250" d="M186.09,196.53L192.10,196.68"/></g><g><path style="fill:#000000" d="M192.07,197.66L192.12,195.66L194.09,196.70z"/></g><g><path style="fill:#ffffff" d="M167.50,199.12L186.08,199.12L186.08,193.47L167.50,193.47z"/><path style="stroke:#000000;stroke-width:0.250;stroke-opacity:0.98" d="M167.50,199.12L186.08,199.12L186.08,193.47L167.50,193.47z"/><text xml:space="preserve" fill="#000000" stroke-width="0" x="168.20" y="197.53" font-size="3.43" opacity="1.00" font-family="MS Shell Dlg">390000211</text></g></g><g id="paperID" visibility="hidden" opacity="0.00" transform="scale(0.000100)"><path style="stroke:#000000;stroke-width:0.500;fill:#e6e6e6;fill-rule:evenodd" d="M-2000.00,-2000.00L2297.00,-2000.00L2297.00,2210.00L-2000.00,2210.00zM0.00,0.00L297.00,0.00L297.00,210.00L0.00,210.00z"/><path style="fill:#000000;fill-opacity:0.118" d="M3.00,210.00L297.00,210.00L297.00,3.00L300.00,3.00L300.00,213.00L3.00,213.00z"/></g><g id="hotspot.0" onmouseover="ShowHotSpot(evt,'0')" onmouseout="HideHotSpot(evt,'0')" onmousemove="ShowToolTip(evt,'0',&quot;3dp655058&quot;)" opacity="0"><path style="fill:#00ff00;fill-rule:evenodd" d="M117.13,31.76L117.90,32.62L69.74,56.04L68.99,56.23L67.26,54.67L66.20,54.79L66.00,54.21L60.18,54.20L59.95,56.46L40.98,56.54L41.03,51.01L41.24,50.72L59.54,50.69L60.02,50.96L60.18,53.55L65.79,53.45L64.17,52.02L64.24,51.57L112.57,28.49L112.90,28.49z"/></g><g id="hotspot.1" onmouseover="ShowHotSpot(evt,'1')" onmouseout="HideHotSpot(evt,'1')" onmousemove="ShowToolTip(evt,'1',&quot;3dp655059&quot;)" opacity="0"><path style="fill:#00ff00;fill-rule:evenodd" d="M152.30,30.01L152.23,35.51L133.25,35.59L133.11,34.24L123.94,35.17L124.02,34.75L133.11,33.60L133.32,30.06L133.52,29.77L151.82,29.74zM123.94,35.17L123.87,35.86L121.98,35.40L122.55,34.75L123.31,34.21L123.61,34.23zM121.98,35.40L122.12,37.50L122.62,41.48L74.67,65.45L73.92,65.53L72.65,58.96L120.54,35.50L121.05,35.22z"/></g><g id="hotspot.2" onmouseover="ShowHotSpot(evt,'2')" onmouseout="HideHotSpot(evt,'2')" onmousemove="ShowToolTip(evt,'2',&quot;3dp655060&quot;)" opacity="0"><path style="fill:#00ff00;fill-rule:evenodd" d="M137.09,19.04L137.02,24.54L118.04,24.62L117.92,22.79L112.83,23.29L112.63,23.86L111.39,23.54L110.88,23.25L110.82,23.03L112.09,22.23L112.38,22.28L112.64,22.87L117.82,22.29L118.10,19.09L118.30,18.79L136.61,18.77zM109.67,21.24L110.41,26.84L62.44,49.73L61.69,49.82L60.46,43.96L109.45,21.02z"/></g><g id="hotspot.3" onmouseover="ShowHotSpot(evt,'3')" onmouseout="HideHotSpot(evt,'3')" onmousemove="ShowToolTip(evt,'3',&quot;3dp655065&quot;)" opacity="0"><path style="fill:#00ff00;fill-rule:evenodd" d="M130.85,4.33L130.79,9.82L111.81,9.90L111.66,8.31L110.32,8.32L99.37,9.54L99.47,10.12L98.59,10.05L98.66,10.82L99.69,13.87L52.04,35.57L51.23,35.84L48.02,28.26L47.96,27.78L96.63,6.03L96.92,6.06L97.95,8.84L98.32,8.82L99.18,8.34L99.36,8.89L111.66,7.66L111.87,4.37L112.07,4.08L130.37,4.06z"/></g><g id="hotspot.4" onmouseover="ShowHotSpot(evt,'4')" onmouseout="HideHotSpot(evt,'4')" onmousemove="ShowToolTip(evt,'4',&quot;3dp655066&quot;)" opacity="0"><path style="fill:#00ff00;fill-rule:evenodd" d="M93.72,4.57L93.97,4.93L45.99,26.28L44.81,26.27L42.81,24.78L42.82,23.61L44.31,22.36L45.47,21.76L46.79,21.87L47.20,21.01L53.55,17.81L54.70,17.79L55.19,17.03L59.78,14.79L50.54,14.30L44.22,14.29L43.99,16.31L25.01,16.39L25.07,10.86L25.28,10.56L43.58,10.54L44.06,10.81L44.22,13.64L60.01,14.12L60.22,13.54L60.50,13.51L61.27,14.09L61.91,14.05L62.68,13.55L69.65,10.58L70.45,10.59L70.71,10.27L70.71,10.06L76.65,7.54L76.97,7.56L77.88,7.57L78.47,6.89L84.63,4.56L85.90,4.60L86.44,4.31L86.37,3.84L88.37,3.07L91.21,3.06zM91.72,4.18L91.13,4.59L89.17,4.57L89.19,4.18L89.86,3.81L91.49,3.81zM43.98,24.28L45.09,24.03L45.08,24.32L44.76,24.57L44.03,24.52z"/></g><g id="hotspot.5" onmouseover="ShowHotSpot(evt,'5')" onmouseout="HideHotSpot(evt,'5')" onmousemove="ShowToolTip(evt,'5',&quot;3dp655068&quot;)" opacity="0"><path style="fill:#00ff00;fill-rule:evenodd" d="M148.32,90.11L151.86,92.57L152.09,93.20L142.24,98.88L141.61,98.85L139.60,97.35L139.10,97.69L138.44,96.78L137.98,94.86L138.49,94.08L138.57,95.45L140.61,94.21L140.59,93.35L140.26,92.86L145.23,90.11L147.31,89.87zM138.37,97.19L124.00,105.32L126.88,105.56L127.36,105.83L127.29,111.33L108.32,111.41L108.37,105.88L108.58,105.58L123.05,105.35L138.44,96.78z"/></g><g id="hotspot.6" onmouseover="ShowHotSpot(evt,'6')" onmouseout="HideHotSpot(evt,'6')" onmousemove="ShowToolTip(evt,'6',&quot;3dp656755&quot;)" opacity="0"><path style="fill:#00ff00;fill-rule:evenodd" d="M172.28,87.99L169.75,89.47L169.75,90.11L191.01,104.83L190.98,105.15L158.44,125.03L157.53,125.06L147.34,117.31L146.07,117.90L145.82,117.32L139.74,117.29L139.51,119.81L120.54,119.89L120.60,114.36L120.80,114.06L139.10,114.04L139.58,114.31L139.74,116.65L145.84,116.63L145.86,116.05L133.84,106.82L133.76,106.10L168.94,85.85L169.26,85.86z"/></g><g id="hotspot.7" onmouseover="ShowHotSpot(evt,'7')" onmouseout="HideHotSpot(evt,'7')" onmousemove="ShowToolTip(evt,'7',&quot;3dp656757&quot;)" opacity="0"><path style="fill:#00ff00;fill-rule:evenodd" d="M213.43,116.09L213.43,116.35L208.17,119.63L207.95,122.40L204.18,124.87L204.14,131.60L204.41,131.80L203.87,132.02L187.97,142.35L187.61,136.73L191.24,134.37L191.20,130.74L190.90,130.73L172.76,142.33L172.78,145.10L169.44,147.24L169.51,150.23L169.76,153.99L170.59,153.89L170.42,154.22L169.52,154.22L148.97,137.56L149.04,137.11L149.98,136.48L150.31,136.49L151.57,137.52L152.22,137.54L153.07,136.86L152.05,136.00L151.97,135.28L162.30,128.75L160.52,127.51L160.52,126.88L193.87,106.31L194.20,106.30L194.98,106.83L195.62,106.86L197.97,105.58zM220.10,121.77L219.47,121.96L219.83,121.50L220.13,121.52zM219.31,122.29L218.73,122.46L219.04,122.02L219.47,121.96zM218.56,122.79L217.98,122.96L218.29,122.52L218.73,122.46zM217.79,123.31L217.29,123.28L217.52,123.03L217.98,122.96zM215.86,124.51L215.23,124.70L215.59,124.24L215.89,124.26zM215.07,125.04L214.49,125.20L214.80,124.77L215.23,124.70zM214.32,125.54L213.74,125.70L214.05,125.26L214.49,125.20zM213.58,126.03L212.99,126.20L213.30,125.76L213.74,125.70zM212.83,126.53L212.25,126.70L212.56,126.26L212.99,126.20zM212.05,127.05L211.55,127.02L211.78,126.78L212.25,126.70zM210.12,128.26L209.50,128.45L209.85,127.98L210.16,128.00zM209.34,128.78L208.75,128.94L209.06,128.51L209.50,128.45zM208.59,129.28L208.00,129.44L208.32,129.01L208.75,128.94zM207.84,129.78L207.26,129.94L207.57,129.50L208.00,129.44zM207.09,130.27L206.51,130.44L206.82,130.00L207.26,129.94zM206.32,130.79L205.81,130.77L206.05,130.52L206.51,130.44zM187.18,143.22L186.55,143.41L186.91,142.95L187.21,142.97zM186.39,143.74L185.81,143.91L186.12,143.47L186.55,143.41zM185.64,144.24L185.06,144.41L185.37,143.97L185.81,143.91zM184.89,144.74L184.31,144.90L184.62,144.47L185.06,144.41zM184.15,145.24L183.56,145.40L183.87,144.97L184.31,144.90zM183.40,145.74L182.82,145.90L183.13,145.47L183.56,145.40zM182.62,146.25L182.12,146.23L182.35,145.98L182.82,145.90zM181.44,146.96L180.82,147.15L181.17,146.69L181.48,146.71zM180.65,147.48L180.07,147.65L180.38,147.21L180.82,147.15zM179.91,147.98L179.32,148.15L179.63,147.71L180.07,147.65zM179.16,148.48L178.57,148.65L178.89,148.21L179.32,148.15zM152.80,148.73L152.96,151.07L163.02,151.04L163.28,150.46L164.80,151.25L164.80,151.53L163.28,152.32L163.02,151.74L152.96,151.71L152.73,154.23L133.76,154.31L133.81,148.78L134.02,148.48L152.32,148.46zM178.41,148.98L177.83,149.14L178.14,148.71L178.57,148.65zM177.66,149.48L177.08,149.64L177.39,149.21L177.83,149.14zM176.89,149.99L176.38,149.97L176.62,149.72L177.08,149.64zM175.71,150.70L175.08,150.89L175.44,150.43L175.74,150.45zM174.92,151.22L174.33,151.39L174.65,150.95L175.08,150.89zM174.17,151.72L173.59,151.89L173.90,151.45L174.33,151.39zM173.42,152.22L172.84,152.39L173.15,151.95L173.59,151.89zM172.67,152.72L172.09,152.89L172.40,152.45L172.84,152.39zM171.93,153.22L171.34,153.38L171.65,152.95L172.09,152.89zM171.27,153.57L170.59,153.89L170.91,153.45L171.34,153.38zM190.64,113.54L171.76,125.37L167.92,126.12L168.00,125.64L186.88,114.06L190.76,113.09z"/></g><g id="hotspot.8" onmouseover="ShowHotSpot(evt,'8')" onmouseout="HideHotSpot(evt,'8')" onmousemove="ShowToolTip(evt,'8',&quot;3dp656758&quot;)" opacity="0"><path style="fill:#00ff00;fill-rule:evenodd" d="M221.13,148.30L221.14,150.48L221.37,151.74L222.41,153.94L223.90,155.69L227.12,158.46L230.40,162.17L233.86,167.19L235.10,170.19L235.60,172.43L235.60,175.99L235.36,177.25L234.11,180.23L232.97,181.63L232.85,182.14L232.30,182.40L232.58,189.17L232.78,189.46L241.61,189.61L242.09,189.88L242.02,195.38L223.04,195.46L223.10,189.93L223.30,189.63L232.14,189.46L231.64,182.63L209.93,165.68L209.65,164.96L208.94,158.94L206.16,156.69L206.16,156.31L221.59,145.71L221.86,145.69z"/></g><g id="hotspot.9" onmouseover="ShowHotSpot(evt,'9')" onmouseout="HideHotSpot(evt,'9')" onmousemove="ShowToolTip(evt,'9',&quot;3dp656760&quot;)" opacity="0"><path style="fill:#00ff00;fill-rule:evenodd" d="M266.79,144.20L266.75,144.50L257.80,151.05L257.81,152.81L257.05,152.74L256.56,152.44L255.97,152.44L240.75,163.45L240.04,163.53L236.87,159.19L234.11,155.96L230.13,152.70L228.12,149.73L227.61,148.25L227.29,145.75L227.79,143.00L228.31,141.73L228.61,141.70L234.38,146.00L234.74,145.99L244.76,138.97L245.07,138.98L247.32,140.53L248.07,140.34L254.23,135.98L254.56,135.99zM289.97,147.48L289.91,152.98L270.93,153.06L270.77,151.21L260.71,151.97L257.93,152.03L257.93,151.74L269.95,150.73L270.77,150.56L270.99,147.53L271.19,147.24L289.50,147.21zM240.86,153.44L238.49,155.21L237.85,155.25L235.34,153.45L235.34,153.07L237.77,151.44L238.10,151.45z"/></g><g id="hotspot.10" onmouseover="ShowHotSpot(evt,'10')" onmouseout="HideHotSpot(evt,'10')" onmousemove="ShowToolTip(evt,'10',&quot;3dp656761&quot;)" opacity="0"><path style="fill:#00ff00;fill-rule:evenodd" d="M236.35,61.72L237.02,61.71L238.85,60.96L239.02,61.50L247.34,61.53L247.54,59.49L247.75,59.19L266.05,59.17L266.53,59.44L266.46,64.94L247.48,65.02L247.34,62.18L239.03,62.21L238.81,62.51L237.52,62.16L237.58,62.40L242.87,65.39L243.60,66.15L225.53,77.14L224.36,77.17L208.58,67.48L208.65,67.03L227.15,56.45zM231.64,68.03L227.80,70.44L226.86,70.44L224.06,68.68L228.30,66.15L228.62,66.15z"/></g><g id="hotspot.11" onmouseover="ShowHotSpot(evt,'11')" onmouseout="HideHotSpot(evt,'11')" onmousemove="ShowToolTip(evt,'11',&quot;3dp658490&quot;)" opacity="0"><path style="fill:#00ff00;fill-rule:evenodd" d="M277.00,113.57L276.94,119.06L257.96,119.14L257.81,116.55L247.75,116.81L247.54,117.38L247.57,118.03L253.58,127.77L253.59,128.63L247.50,132.80L246.84,132.78L239.07,120.06L239.01,119.32L245.61,115.06L246.27,115.90L246.74,115.84L247.27,115.51L247.55,115.56L247.75,116.13L256.72,116.06L257.81,115.90L258.02,113.61L258.22,113.32L276.53,113.30z"/></g><g id="hotspot.12" onmouseover="ShowHotSpot(evt,'12')" onmouseout="HideHotSpot(evt,'12')" onmousemove="ShowToolTip(evt,'12',&quot;3dp658491&quot;)" opacity="0"><path style="fill:#00ff00;fill-rule:evenodd" d="M196.95,65.68L196.88,71.18L187.88,71.40L187.90,76.22L188.47,76.42L188.51,76.70L187.75,78.25L186.93,76.66L187.18,76.48L187.23,71.40L177.90,71.26L177.96,65.73L178.16,65.43L196.47,65.41zM209.19,90.34L209.92,95.11L210.16,97.93L195.62,106.86L194.98,106.83L192.21,104.81L190.98,104.83L169.75,90.11L169.75,89.47L189.99,77.90zM195.21,90.15L195.25,90.45L193.39,91.64L192.48,91.61L188.69,89.09L188.64,88.87L190.88,87.60L191.46,87.60z"/></g><g id="hotspot.13" onmouseover="ShowHotSpot(evt,'13')" onmouseout="HideHotSpot(evt,'13')" onmousemove="ShowToolTip(evt,'13',&quot;3dp658493&quot;)" opacity="0"><path style="fill:#00ff00;fill-rule:evenodd" d="M243.33,117.81L243.27,123.30L224.29,123.38L224.14,120.79L222.26,120.61L222.26,120.32L224.14,120.14L224.35,117.85L224.55,117.56L242.86,117.54zM220.89,120.16L221.58,119.75L221.89,119.78L221.89,121.40L220.56,121.02L204.93,131.35L204.10,131.62L204.18,124.87L207.94,122.55L208.17,123.40L220.33,115.52L220.63,115.53z"/></g><g id="hotspot.14" onmouseover="ShowHotSpot(evt,'14')" onmouseout="HideHotSpot(evt,'14')" onmousemove="ShowToolTip(evt,'14',&quot;3dp694543&quot;)" opacity="0"><path style="fill:#00ff00;fill-rule:evenodd" d="M260.09,168.17L260.08,168.77L258.70,169.90L259.31,170.68L260.20,170.67L261.46,169.65L262.04,169.65L268.75,174.41L268.55,175.01L257.04,183.74L257.02,184.39L257.35,184.91L257.33,185.22L255.72,185.48L256.08,184.14L253.59,182.14L246.52,187.41L245.33,187.39L239.10,186.89L237.57,186.67L237.26,186.46L237.34,185.73L242.48,181.88L244.11,180.02L245.58,176.99L245.83,176.00L245.83,172.18L245.08,169.18L243.58,166.41L243.58,165.79L249.74,161.17L250.32,161.18zM257.21,191.97L266.05,192.11L266.53,192.38L266.46,197.88L247.48,197.95L247.54,192.42L247.75,192.13L256.57,191.97L256.50,185.60L256.78,185.60zM257.81,168.66L257.20,169.17L256.29,169.21L254.54,167.91L254.47,167.46L255.24,166.91L255.55,166.91zM252.61,180.12L252.85,180.73L252.23,181.40L250.55,181.42L249.56,180.63L249.56,180.00L250.47,179.39L251.58,179.39z"/></g><g id="hotspot.15" onmouseover="ShowHotSpot(evt,'15')" onmouseout="HideHotSpot(evt,'15')" onmousemove="ShowToolTip(evt,'15',&quot;3dp700466&quot;)" opacity="0"><path style="fill:#00ff00;fill-rule:evenodd" d="M171.26,51.21L171.19,56.71L152.21,56.79L152.06,54.69L147.23,54.71L143.97,54.96L144.07,55.70L170.51,73.16L171.03,73.77L154.23,83.15L152.54,83.15L121.11,61.17L121.11,60.79L138.36,51.96L142.11,54.46L142.46,54.46L143.83,53.73L143.99,54.27L152.06,54.05L152.27,51.26L152.47,50.96L170.78,50.94z"/></g><g id="hotspot.16" onmouseover="ShowHotSpot(evt,'16')" onmouseout="HideHotSpot(evt,'16')" onmousemove="ShowToolTip(evt,'16',&quot;3dp704180&quot;)" opacity="0"><path style="fill:#00ff00;fill-rule:evenodd" d="M210.22,136.22L210.46,136.85L194.59,147.48L193.95,147.52L191.98,145.97L190.87,145.98L190.71,147.81L190.62,150.82L199.21,150.96L199.69,151.23L199.62,156.72L180.64,156.80L180.70,151.27L180.91,150.98L189.97,150.82L190.20,146.00L189.62,145.79L189.71,145.36L190.00,145.06L189.97,144.51L187.95,142.98L187.96,142.34L203.85,132.00L204.43,131.99z"/></g><g id="hotspot.17" onmouseover="ShowHotSpot(evt,'17')" onmouseout="HideHotSpot(evt,'17')" onmousemove="ShowToolTip(evt,'17',&quot;3dp704181&quot;)" opacity="0"><path style="fill:#00ff00;fill-rule:evenodd" d="M220.42,143.74L220.43,144.33L204.35,155.25L203.96,155.21L196.20,149.22L196.11,148.50L211.83,137.99L212.67,137.98zM201.71,155.46L199.85,155.73L200.64,153.95L200.90,153.94zM201.21,156.18L201.43,160.71L201.60,161.53L210.43,161.68L210.91,161.95L210.84,167.45L191.87,167.53L191.93,162.00L192.13,161.70L200.95,161.53L200.63,155.92z"/></g><g id="hotspot.18" onmouseover="ShowHotSpot(evt,'18')" onmouseout="HideHotSpot(evt,'18')" onmousemove="ShowToolTip(evt,'18',&quot;3dp724145&quot;)" opacity="0"><path style="fill:#00ff00;fill-rule:evenodd" d="M132.87,48.45L132.78,48.70L84.39,73.43L83.45,73.43L78.49,69.65L72.15,69.66L71.93,72.42L52.95,72.50L53.01,66.97L53.21,66.68L71.51,66.66L71.99,66.93L72.15,69.01L77.74,68.94L76.96,68.41L76.97,67.77L125.03,43.71L125.87,43.71zM112.91,57.48L112.92,57.75L103.59,62.46L102.92,62.47L97.83,58.74L97.83,58.47L107.44,53.71z"/></g><g id="hotspot.19" onmouseover="ShowHotSpot(evt,'19')" onmouseout="HideHotSpot(evt,'19')" onmousemove="ShowToolTip(evt,'19',&quot;3dp739420&quot;)" opacity="0"><path style="fill:#00ff00;fill-rule:evenodd" d="M220.92,190.88L220.92,191.46L211.58,198.86L207.34,202.35L206.18,202.32L205.94,202.10L204.57,203.10L203.95,203.11L183.97,186.12L183.96,185.49L199.36,173.90L199.69,173.89zM186.22,193.62L186.38,196.21L191.75,196.39L191.75,196.68L186.38,196.86L186.15,199.12L167.18,199.20L167.23,193.67L167.44,193.38L185.74,193.35zM193.49,196.36L193.73,196.72L193.13,197.12L192.13,197.47L192.13,195.85L192.44,195.82z"/></g><g id="hotspot.20" onmouseover="ShowHotSpot(evt,'20')" onmouseout="HideHotSpot(evt,'20')" onmousemove="ShowToolTip(evt,'20',&quot;3dp914567&quot;)" opacity="0"><path style="fill:#00ff00;fill-rule:evenodd" d="M147.10,138.01L147.07,138.56L132.02,148.76L131.37,148.74L126.89,144.72L106.91,127.53L106.40,127.27L106.37,126.54L106.12,126.36L106.16,124.76L107.17,125.33L107.60,125.09L120.55,116.78L121.13,116.77zM99.93,123.04L100.09,125.38L105.71,125.56L105.71,125.84L100.09,126.02L99.86,128.54L80.88,128.62L80.94,123.09L81.14,122.79L99.45,122.77z"/></g><g id="hotspot.21" onmouseover="ShowHotSpot(evt,'21')" onmouseout="HideHotSpot(evt,'21')" onmousemove="ShowToolTip(evt,'21',&quot;3dp914606&quot;)" opacity="0"><path style="fill:#00ff00;fill-rule:evenodd" d="M238.87,134.26L238.77,135.26L229.29,141.78L228.63,141.76L223.38,131.27L222.80,129.99L232.78,123.27L233.37,123.25zM275.26,129.03L275.19,134.53L256.21,134.61L256.07,131.76L240.72,131.33L240.72,131.04L256.07,131.11L256.27,129.08L256.48,128.78L274.78,128.76zM238.82,130.87L240.57,130.23L240.34,131.88L239.34,131.52L238.83,131.25z"/></g><g id="hotspot.22" onmouseover="ShowHotSpot(evt,'22')" onmouseout="HideHotSpot(evt,'22')" onmousemove="ShowToolTip(evt,'22',&quot;3dp983178&quot;)" opacity="0"><path style="fill:#00ff00;fill-rule:evenodd" d="M181.98,81.89L181.91,87.39L162.94,87.47L162.79,84.87L155.72,84.89L155.52,85.46L155.06,85.42L153.72,84.63L155.23,83.84L155.73,84.19L162.79,84.23L162.99,81.94L163.20,81.64L181.50,81.62zM148.09,82.59L152.32,85.87L153.30,86.14L154.57,86.13L154.57,86.42L152.74,87.39L151.28,87.39L148.07,85.13L147.58,84.87L144.98,84.87L138.36,88.47L137.23,89.87L137.61,90.85L139.33,92.12L140.60,93.35L140.61,94.21L138.57,95.45L138.61,94.10L134.01,90.43L134.09,89.71L147.49,82.36z"/></g><g id="hotspot.23" onmouseover="ShowHotSpot(evt,'23')" onmouseout="HideHotSpot(evt,'23')" onmousemove="ShowToolTip(evt,'23',&quot;3dp983179&quot;)" opacity="0"><path style="fill:#00ff00;fill-rule:evenodd" d="M132.10,47.97L132.03,53.47L122.53,53.70L121.90,60.04L121.61,60.52L121.20,60.61L121.87,55.28L121.89,53.70L113.05,53.55L113.11,48.02L113.32,47.72L131.62,47.70zM122.37,60.91L121.59,62.27L121.62,62.67L147.59,82.25L134.25,89.61L133.85,90.19L131.37,88.36L119.13,78.65L107.90,69.90L107.90,69.27L121.14,62.31L120.55,60.66L121.20,60.61z"/></g><g id="hotspot.24" onmouseover="ShowHotSpot(evt,'24')" onmouseout="HideHotSpot(evt,'24')" onmousemove="ShowToolTip(evt,'24',&quot;3dp987473&quot;)" opacity="0"><path style="fill:#00ff00;fill-rule:evenodd" d="M102.91,16.55L106.95,19.30L106.93,19.60L58.96,42.00L57.78,41.98L54.55,39.48L44.22,39.98L43.99,42.99L25.01,43.07L25.07,37.54L25.28,37.25L43.58,37.23L44.06,37.50L44.22,39.33L53.26,39.01L53.55,38.72L52.69,38.05L52.69,37.52L100.60,15.52L101.17,15.52z"/></g><g id="hotspot.25" onmouseover="ShowHotSpot(evt,'25')" onmouseout="HideHotSpot(evt,'25')" onmousemove="ShowToolTip(evt,'25',&quot;3dp988948&quot;)" opacity="0"><path style="fill:#00ff00;fill-rule:evenodd" d="M187.72,138.26L187.72,142.58L187.22,142.83L179.13,148.23L179.51,149.22L178.92,149.48L179.15,158.80L187.99,158.94L188.47,159.21L188.40,164.70L169.42,164.78L169.48,159.25L169.68,158.96L178.50,158.80L178.49,153.72L178.24,149.48L177.50,149.23L170.18,154.00L169.76,153.99L169.51,150.23L169.44,147.24L172.78,145.25L173.00,146.10L187.16,136.97L187.46,136.98z"/></g><g id="hotspot.26" onmouseover="ShowHotSpot(evt,'26')" onmouseout="HideHotSpot(evt,'26')" onmousemove="ShowToolTip(evt,'26',&quot;3dp692717&quot;)" opacity="0"><path style="fill:#00ff00;fill-rule:evenodd" d="M224.88,79.15L224.81,84.65L215.81,84.87L216.08,92.69L216.65,92.88L216.70,93.17L215.90,94.68L214.86,93.09L214.85,92.86L215.39,92.69L215.40,88.37L215.16,84.87L205.83,84.72L205.89,79.19L206.10,78.90L224.40,78.88zM225.64,91.92L208.84,102.35L205.12,103.60L204.07,103.66L204.07,103.37L221.56,92.61L225.68,91.40zM155.29,123.04L155.45,125.13L169.17,125.02L186.88,114.06L190.76,113.09L190.64,113.54L179.27,120.66L170.25,126.16L169.77,125.83L167.97,126.11L167.74,125.81L155.45,125.77L155.23,128.54L136.25,128.62L136.31,123.09L136.51,122.79L154.82,122.77z"/></g><g id="hotspot.27" onmouseover="ShowHotSpot(evt,'27')" onmouseout="HideHotSpot(evt,'27')" onmousemove="ShowToolTip(evt,'27',&quot;3dp656762&quot;)" opacity="0"><path style="fill:#00ff00;fill-rule:evenodd" d="M256.30,106.83L256.24,112.33L237.26,112.41L237.11,109.81L227.56,110.10L227.34,110.39L226.89,110.36L225.85,109.80L225.80,109.57L227.38,108.85L227.55,109.39L234.03,109.33L237.11,109.17L237.32,106.88L237.52,106.58L255.83,106.56zM225.15,112.17L224.86,112.63L208.17,123.40L208.17,119.63L225.15,108.82zM150.31,140.50L150.47,142.59L169.69,142.25L170.99,141.71L172.26,142.27L172.92,142.27L190.90,130.73L191.20,130.74L191.24,134.37L173.01,146.09L172.50,142.73L172.20,142.70L171.17,143.28L170.70,143.33L170.49,142.75L150.47,143.23L150.24,146.00L131.26,146.08L131.32,140.55L131.52,140.25L149.83,140.23z"/></g><g id="hotspot.28" onmouseover="ShowHotSpot(evt,'28')" onmouseout="HideHotSpot(evt,'28')" onmousemove="ShowToolTip(evt,'28',&quot;3dp655057&quot;)" opacity="0"><path style="fill:#00ff00;fill-rule:evenodd" d="M129.61,90.62L133.36,93.60L133.36,94.71L133.01,95.10L115.30,105.12L114.92,105.08L100.17,93.34L98.89,93.44L98.66,93.13L88.11,92.85L87.89,95.37L68.91,95.45L68.97,89.92L69.17,89.62L87.48,89.60L87.95,89.87L88.11,92.21L89.95,92.37L98.71,92.44L98.74,92.12L84.20,80.63L84.20,79.99L102.70,70.41zM122.42,98.11L122.39,98.41L117.05,101.37L116.66,101.34L113.12,98.58L113.05,98.12L118.66,95.11z"/></g></g></svg>
