<?xml version="1.0" encoding="UTF-8" standalone="no"?>
<svg xmlns="http://www.w3.org/2000/svg" xmlns:xlink="http://www.w3.org/1999/xlink" width="297.000mm" height="210.000mm" viewBox="0.000000 0.000000 297.000000 210.000000" stroke-linejoin="round" stroke-linecap="round" fill="none" fill-rule="evenodd"><desc>Composer Export</desc><script type="text/ecmascript"><![CDATA[
if(typeof(top) != "undefined")
{
	top.ShowPaper = ShowPaper;
}
function ShowHotSpot(evt,hotspotid)
{
	var svgDocument = evt.target.ownerDocument;
	var strId = "hotspot."+hotspotid;
	var hotspot = svgDocument.getElementById(strId);
	if(hotspot)
		hotspot.setAttribute("opacity",".5");
}
function HideHotSpot(evt,hotspotid)
{
	var svgDocument = evt.target.ownerDocument;
	var strId = "hotspot."+hotspotid;
	var hotspot = svgDocument.getElementById(strId);
	if(hotspot)
		hotspot.setAttribute("opacity","0");

	var toolTip = svgDocument.getElementById('ToolTip');
	if(toolTip)
		toolTip.setAttribute("visibility","hidden");
}
function ShowToolTip(evt,hotspotid,strTooltip)
{
	if(strTooltip=="")
	return;

	// change text
	var svgDocument = evt.target.ownerDocument;
	var tiptext = svgDocument.getElementById('ToolTipText');
	if( !tiptext )
	return;
	tiptext.firstChild.nodeValue = " " + strTooltip + "  " ;

	// show tooltip before, else some refresh issue

	var toolTip = svgDocument.getElementById('ToolTip');
	if(!toolTip)
	return;

	toolTip.setAttribute("visibility","visible");
	toolTip.setAttribute("opacity",".95");

	// move tooltip
	// get viewbox

	var root = svgDocument.documentElement;
	var vbox = (root.getAttribute("viewBox")).split(' ');
	var x0 = parseFloat(vbox[0]);
	var y0 = parseFloat(vbox[1]);
	var vboxW = parseFloat(vbox[2]);
	var vboxH = parseFloat(vbox[3]);

	// get default width of svg

	var strW = root.getAttribute("width");
	var svgW = parseFloat(strW);
	if(strW.indexOf('mm') != -1)
	svgW *= 3.779;

	var strH = root.getAttribute("height");
	var svgH = parseFloat(strH);
	if(strH.indexOf('mm') != -1)
	svgH *= 3.779;  	// 96 dpi  -> 96/25.4 = 3.779

	// update the viewbox / width / height if svg is embedded in html with zoom fit all
	var realx0 = x0;
	var realy0 = y0;
	var realvboxW = vboxW;
	var realvboxH = vboxH;
	var realsvgW = svgW;
	var realsvgH = svgH;

	if ((typeof(top) == "undefined") || (typeof(top.svgctl1) != "undefined")) // embedded in html
	{
		// get window size in pxl

		svgW = window.innerWidth;
		svgH = window.innerHeight;

		// calculate real viewbox

		realsvgW = svgW;
		realsvgH = svgH;
		if((svgW / svgH) > (vboxW / vboxH))
		{
			realvboxW = (vboxH * svgW) / svgH;
			realvboxH = vboxH;
			realx0 = x0 - (realvboxW - vboxW)/2 ;
		}
		else
		{
			realvboxH = (vboxW * svgH) / svgW;
			realvboxW = vboxW;
			realy0 = y0 - (realvboxH - vboxH)/2 ;
		}
	}

	// get user zoom/pan

	var newScale = root.currentScale;
	var translation = root.currentTranslate;

	// transform pxl to user unit

	var xPos = (((evt.clientX+10- translation.x)/newScale) * realvboxW)/realsvgW  + realx0 ;
	var yPos = (((evt.clientY+5- translation.y)/newScale) * realvboxH)/ realsvgH  + realy0 ;
	var scaleForWidth = ( (1 / newScale) * realvboxH) / realsvgH;

	// move tooltip

	toolTip.setAttribute("transform", "translate(" + xPos + "," + yPos + ")" );

	// resize tooltip

	var fontsize = 12;
	tiptext.setAttribute("font-size",fontsize*scaleForWidth);
	tiptext.setAttribute("y", fontsize*scaleForWidth);
	var tipBG = svgDocument.getElementById('ToolTipBG');
	var outline = tiptext.getBBox();
	if(tipBG)
	{
		tipBG.setAttribute("stroke-width", 1*scaleForWidth);
		tipBG.setAttribute("width", Number(outline.width) );
		tipBG.setAttribute("height", Number(outline.height) + fontsize*.5*scaleForWidth );
	}
	var ToolTipShadow = svgDocument.getElementById('ToolTipShadow');
	if(ToolTipShadow)
	{
		ToolTipShadow.setAttribute("width", Number(outline.width) );
		ToolTipShadow.setAttribute("height", Number(outline.height) + fontsize*.5*scaleForWidth );
		ToolTipShadow.setAttribute("x", 3*scaleForWidth);
		ToolTipShadow.setAttribute("y", 3*scaleForWidth);
	}
}
function ShowPaper()
{
  var svgDocument = getDocument();
  var paper = svgDocument.getElementById("paperID");
  if(paper)
  {
    paper.setAttribute("transform","scale(1)");
    paper.setAttribute("opacity","1");
    paper.setAttribute("visibility","visible");
  }
  var svg = svgDocument.getRootElement();
  if(svg)
  {
    svg.setAttribute("width","307.000mm");
    svg.setAttribute("height","220.000mm");
    svg.setAttribute("viewBox","-5.000000 -5.000000 307.000000 220.000000");
  }
}
]]></script><defs/><g><path style="fill:#ffffff" d="M296.92,209.89L0.08,209.89L0.08,0.08L296.92,0.08z"/><path style="fill:#e0e1ff" d="M114.61,34.95L114.61,35.55L112.78,39.69L111.76,42.59L111.77,43.91L111.88,46.49L112.04,47.26L112.13,49.59L112.29,50.36L112.35,52.62L111.99,52.87L111.91,53.88L112.62,54.27L112.91,59.41L113.07,60.17L113.43,65.86L113.59,66.63L113.94,72.32L114.10,73.08L114.13,74.60L112.87,74.08L112.67,73.08L111.78,61.20L111.74,60.53L111.62,60.44L111.52,58.10L111.48,57.43L111.36,57.34L111.26,55.00L111.22,54.33L111.10,54.24L111.00,51.90L110.96,51.23L110.84,51.14L110.74,48.81L110.71,48.13L110.59,48.04L110.49,45.71L110.45,45.03L110.33,44.94L110.43,41.48L113.45,34.39L114.07,34.41z"/><path style="fill:#ffffff" d="M116.74,55.52L119.06,56.30L119.77,56.57L131.20,60.48L131.97,60.69L137.40,62.50L138.11,62.77L146.67,65.78L125.98,72.75L125.96,72.58L125.94,71.11L125.83,71.01L125.68,67.75L124.66,64.91L120.27,59.19L120.11,59.08L120.00,58.69L119.13,58.69L118.42,59.29L118.35,60.09L118.54,60.23L122.61,65.66L123.36,66.98L123.77,68.43L123.91,70.00L124.03,72.56L124.16,74.13L124.28,76.95L124.41,78.52L124.47,79.04L114.13,74.60L114.10,73.08L114.06,72.41L113.94,72.32L113.59,66.63L113.55,65.95L113.43,65.86L113.07,60.17L113.03,59.49L112.91,59.41L112.62,54.27z"/><path style="fill:#e0e1ff" d="M78.20,47.57L79.73,50.18L81.35,60.87L80.67,61.05L80.44,61.36L80.48,62.06L81.61,62.81L89.59,119.55L89.29,119.39L88.13,119.58L87.57,116.04L87.84,115.43L87.77,115.19L87.50,114.73L87.28,114.61L86.17,105.72L78.18,50.69L76.64,48.36L73.01,44.50L72.80,43.97L74.11,43.07z"/><path style="fill:#e0e1ff" d="M124.66,64.91L125.68,67.75L125.83,71.01L125.96,72.58L125.98,72.75L125.57,73.08L125.58,74.13L126.08,74.91L126.09,75.40L126.23,77.23L126.25,79.27L124.74,79.09L124.47,79.04L124.41,78.52L124.39,77.05L124.28,76.95L124.16,74.13L124.13,72.66L124.03,72.56L123.91,70.00L123.87,68.53L123.77,68.43L123.36,66.98L122.61,65.66L118.54,60.23L119.74,59.58L120.11,59.08L120.27,59.19z"/><path style="fill:#e0e1ff" d="M114.47,76.95L114.46,78.77L114.62,79.54L114.98,85.23L115.13,86.00L115.49,91.69L115.65,92.45L116.01,98.14L116.17,98.91L116.47,102.25L116.30,102.38L116.27,103.18L116.42,103.30L116.52,103.58L116.52,104.60L116.68,105.36L116.68,107.70L115.47,107.46L115.39,105.11L115.35,104.43L115.23,104.34L113.84,86.25L113.80,85.58L113.68,85.49L113.59,83.15L113.55,82.48L113.43,82.39L113.33,80.06L113.29,79.38L113.17,79.29L113.06,76.95L113.10,76.26z"/><path style="fill:#fffe02" d="M111.23,73.43L112.54,73.88L112.87,74.08L114.13,74.60L124.47,79.04L124.64,79.64L126.05,79.76L211.94,115.69L212.02,115.90L211.89,116.03L212.03,116.26L211.82,118.02L211.72,118.31L211.25,118.25L211.18,117.32L210.73,118.11L209.66,117.51L209.60,117.35L208.94,117.30L207.85,116.73L207.80,116.57L207.13,116.53L206.04,115.96L205.99,115.80L205.32,115.75L204.23,115.18L204.18,115.02L203.51,114.98L202.42,114.41L202.37,114.25L201.70,114.20L200.62,113.63L200.57,113.47L199.90,113.43L198.81,112.86L198.76,112.70L198.09,112.65L197.00,112.08L196.95,111.92L196.28,111.88L195.19,111.31L195.14,111.15L194.47,111.10L193.39,110.53L193.33,110.38L192.67,110.33L191.58,109.76L191.53,109.60L190.86,109.55L189.77,108.98L189.72,108.83L189.05,108.78L187.96,108.21L187.91,108.05L187.24,108.00L186.15,107.43L186.10,107.28L185.43,107.23L184.35,106.66L184.30,106.50L183.63,106.45L182.54,105.88L182.49,105.73L181.82,105.68L180.73,105.11L180.68,104.95L180.01,104.90L178.92,104.34L178.87,104.18L178.20,104.13L177.12,103.56L177.06,103.40L176.40,103.36L175.31,102.79L175.26,102.63L174.59,102.58L173.50,102.01L173.45,101.85L172.78,101.81L171.69,101.24L171.64,101.08L170.97,101.03L169.88,100.46L169.83,100.30L169.16,100.26L168.08,99.69L168.02,99.53L167.36,99.48L166.27,98.91L166.22,98.75L165.55,98.71L115.10,77.03L114.47,76.95L113.10,76.26L112.87,76.23L81.61,62.81L80.48,62.06L80.44,61.36L80.67,61.05L81.35,60.87z"/><path style="fill:#e50000" d="M132.69,96.66L132.59,96.92L116.99,103.48L116.90,103.12L116.42,103.30L116.27,103.18L116.30,102.38L116.47,102.25L116.65,102.64L117.34,102.65L132.45,96.32z"/><path style="fill:#eeeeff" d="M227.51,166.30L228.77,166.91L229.28,166.86L228.99,167.78L227.70,167.70L227.44,167.44L227.45,166.08z"/><path style="fill:#eeeeff" d="M203.95,193.77L204.51,194.22L204.48,194.67L204.11,195.07L202.88,195.10L202.36,194.59L202.41,193.44z"/><path style="fill:#e400e5" d="M126.49,73.43L126.89,73.47L157.81,62.94L158.01,63.71L157.22,64.30L152.57,65.85L151.94,65.94L149.77,66.83L134.90,71.89L126.62,74.64L126.45,73.93L125.58,74.13L125.57,73.08L126.20,73.17z"/><path style="fill:#0000ff" d="M157.21,67.42L157.55,67.60L158.77,67.94L240.18,94.99L240.34,95.14L240.37,96.52L239.65,97.16L238.82,96.86L238.79,96.70L238.12,96.59L229.59,93.75L229.00,93.31L224.43,91.94L211.25,87.55L210.66,87.12L209.20,86.77L194.47,81.86L193.69,81.67L193.11,81.36L193.08,81.20L192.41,81.09L179.24,76.70L178.46,76.50L174.78,75.16L174.74,75.01L174.07,74.90L163.22,71.27L162.45,71.07L156.45,68.97L156.40,68.81L155.73,68.70L151.08,67.14L149.77,66.83L151.94,65.94L152.57,65.85z"/><path style="fill:#e0e1ff" d="M161.73,46.71L162.07,47.13L162.72,47.22L162.86,47.34L159.51,55.17L159.03,57.58L158.89,66.64L158.78,67.67L158.51,67.48L157.55,67.60L157.21,67.42L157.22,64.30L158.01,63.71L157.81,62.94L157.47,62.31L157.29,62.20L157.44,55.95L158.23,53.63L161.26,46.55z"/><path style="fill:#e0e1ff" d="M250.07,70.00L245.51,80.23L244.11,86.00L229.28,166.86L228.77,166.91L227.51,166.30L227.45,166.08L239.62,97.88L239.65,97.16L240.37,96.52L240.34,95.14L240.18,94.99L241.28,88.59L242.20,83.42L242.86,80.42L244.49,76.62L247.96,68.94z"/><path style="fill:#e0e1ff" d="M215.82,97.45L216.49,99.93L216.48,102.80L214.67,116.48L213.01,129.39L212.86,130.16L211.72,139.21L211.57,139.97L210.43,149.02L210.28,149.79L209.14,158.83L208.99,159.60L207.85,168.65L207.69,169.41L205.27,188.28L205.11,189.04L204.51,194.22L203.95,193.77L202.41,193.44L207.44,153.14L207.59,152.38L211.72,119.31L211.72,118.31L211.82,118.02L212.48,117.18L212.49,116.23L212.29,115.90L212.24,115.19L213.79,103.04L213.75,100.29L213.24,98.74L211.16,93.84L210.99,93.03L212.63,92.80L213.54,91.94z"/><path style="fill:#efee11" d="M126.04,79.61L126.05,79.76L124.64,79.64L124.47,79.04L124.74,79.09z"/><path style="fill:#efee11" d="M212.48,117.18L211.82,118.02L212.03,116.26L212.49,116.23z"/><path style="fill:#ff0000" d="M132.45,96.32L117.34,102.65L116.65,102.64L116.47,102.25L131.81,95.88L132.17,95.86z"/><path style="fill:#ff0000" d="M116.99,103.48L116.52,103.58L116.42,103.30L116.90,103.12z"/><path style="fill:#fe00ff" d="M157.81,62.94L126.89,73.47L126.49,73.43L126.20,73.17L125.57,73.08L125.98,72.75L146.67,65.78L149.28,64.89L157.29,62.20L157.47,62.31z"/><path style="fill:#fe00ff" d="M125.58,74.13L126.45,73.93L126.62,74.64L126.08,74.91z"/><path style="fill:#00fdff" d="M87.77,115.19L87.41,115.26L68.61,123.11L68.41,123.93L68.01,123.92L67.91,123.53L68.12,123.00L67.87,122.66L86.59,114.75L87.28,114.61L87.50,114.73z"/><path style="fill:#00e3e5" d="M68.12,123.00L67.91,123.53L67.71,122.76L67.87,122.66z"/><path style="fill:#00e3e5" d="M87.84,115.43L87.57,116.04L69.39,123.62L68.41,123.93L68.61,123.11L87.41,115.26L87.77,115.19z"/><path style="fill:#eeeeff" d="M74.11,43.07L72.80,43.97L72.62,43.22L73.17,42.67L73.80,42.66z"/><path style="fill:#eeeeff" d="M110.49,45.71L110.33,44.94L110.45,45.03z"/><path style="fill:#eeeeff" d="M162.72,47.22L162.07,47.13L161.73,46.71L162.38,46.81z"/><path style="fill:#eeeeff" d="M112.04,47.26L111.88,46.49L112.00,46.58z"/><path style="fill:#eeeeff" d="M110.74,48.81L110.59,48.04L110.71,48.13z"/><path style="fill:#eeeeff" d="M112.29,50.36L112.13,49.59L112.26,49.68z"/><path style="fill:#eeeeff" d="M111.00,51.90L110.84,51.14L110.96,51.23z"/><path style="fill:#eeeeff" d="M111.26,55.00L111.10,54.24L111.22,54.33z"/><path style="fill:#eeeeff" d="M111.52,58.10L111.36,57.34L111.48,57.43z"/><path style="fill:#eeeeff" d="M120.11,59.08L119.74,59.58L118.54,60.23L118.35,60.09L118.42,59.29L119.13,58.69L120.00,58.69z"/><path style="fill:#eeeeff" d="M113.07,60.17L112.91,59.41L113.03,59.49z"/><path style="fill:#eeeeff" d="M111.78,61.20L111.62,60.44L111.74,60.53z"/><path style="fill:#eeeeff" d="M113.59,66.63L113.43,65.86L113.55,65.95z"/><path style="fill:#eeeeff" d="M158.78,67.67L158.77,67.94L157.55,67.60L158.51,67.48z"/><path style="fill:#eeeeff" d="M250.21,69.56L250.07,70.00L247.96,68.94L248.04,68.77L248.60,68.76z"/><path style="fill:#eeeeff" d="M123.91,70.00L123.77,68.43L123.87,68.53z"/><path style="fill:#eeeeff" d="M125.96,72.58L125.83,71.01L125.94,71.11z"/><path style="fill:#eeeeff" d="M114.10,73.08L113.94,72.32L114.06,72.41z"/><path style="fill:#eeeeff" d="M124.16,74.13L124.03,72.56L124.13,72.66z"/><path style="fill:#eeeeff" d="M112.87,74.08L112.54,73.88L112.67,73.08z"/><path style="fill:#eeeeff" d="M113.06,76.95L112.87,76.23L113.10,76.26z"/><path style="fill:#eeeeff" d="M126.23,77.23L126.09,75.40L126.19,75.50z"/><path style="fill:#eeeeff" d="M124.41,78.52L124.28,76.95L124.39,77.05z"/><path style="fill:#eeeeff" d="M126.25,79.27L126.04,79.61L124.74,79.09z"/><path style="fill:#eeeeff" d="M114.62,79.54L114.46,78.77L114.58,78.86z"/><path style="fill:#eeeeff" d="M113.33,80.06L113.17,79.29L113.29,79.38z"/><path style="fill:#eeeeff" d="M113.59,83.15L113.43,82.39L113.55,82.48z"/><path style="fill:#eeeeff" d="M115.13,86.00L114.98,85.23L115.10,85.32z"/><path style="fill:#eeeeff" d="M113.84,86.25L113.68,85.49L113.80,85.58z"/><path style="fill:#eeeeff" d="M213.54,91.94L212.63,92.80L210.99,93.03L210.61,92.55L210.62,91.85L211.33,90.98L213.00,90.97z"/><path style="fill:#eeeeff" d="M115.65,92.45L115.49,91.69L115.61,91.78z"/><path style="fill:#eeeeff" d="M116.17,98.91L116.01,98.14L116.13,98.23z"/><path style="fill:#eeeeff" d="M216.48,102.80L216.49,99.93L216.59,100.03z"/><path style="fill:#eeeeff" d="M115.39,105.11L115.23,104.34L115.35,104.43z"/><path style="fill:#eeeeff" d="M116.68,105.36L116.52,104.60L116.65,104.69z"/><path style="fill:#eeeeff" d="M116.68,107.70L116.59,108.05L115.60,108.05L115.47,107.46z"/><path style="fill:#eeeeff" d="M212.29,115.90L212.02,115.90L211.94,115.69L212.24,115.19z"/><path style="fill:#eeeeff" d="M89.59,119.55L89.47,119.94L88.21,119.93L88.13,119.58L89.29,119.39z"/><path style="fill:#0000e5" d="M119.77,56.57L119.06,56.30L119.73,56.41z"/><path style="fill:#0000e5" d="M138.11,62.77L137.40,62.50L138.07,62.61z"/><path style="fill:#0000e5" d="M156.45,68.97L155.73,68.70L156.40,68.81z"/><path style="fill:#0000e5" d="M174.78,75.16L174.07,74.90L174.74,75.01z"/><path style="fill:#0000e5" d="M193.11,81.36L192.41,81.09L193.08,81.20z"/><path style="fill:#0000e5" d="M210.66,87.12L211.25,87.55L209.60,87.14L209.20,86.77z"/><path style="fill:#0000e5" d="M229.00,93.31L229.59,93.75L224.84,92.31L224.43,91.94z"/><path style="fill:#0000e5" d="M238.82,96.86L238.12,96.59L238.79,96.70z"/><path style="fill:#0000ff" d="M149.28,64.89L146.67,65.78L138.11,62.77L138.07,62.61L137.40,62.50L131.97,60.69L131.20,60.48L119.77,56.57L119.73,56.41L119.06,56.30L116.74,55.52L112.62,54.27L111.91,53.88L111.99,52.87L112.35,52.62z"/><path style="fill:#e5e401" d="M166.27,98.91L165.55,98.71L166.22,98.75z"/><path style="fill:#e5e401" d="M168.08,99.69L167.36,99.48L168.02,99.53z"/><path style="fill:#e5e401" d="M169.88,100.46L169.16,100.26L169.83,100.30z"/><path style="fill:#e5e401" d="M171.69,101.24L170.97,101.03L171.64,101.08z"/><path style="fill:#e5e401" d="M173.50,102.01L172.78,101.81L173.45,101.85z"/><path style="fill:#e5e401" d="M175.31,102.79L174.59,102.58L175.26,102.63z"/><path style="fill:#e5e401" d="M177.12,103.56L176.40,103.36L177.06,103.40z"/><path style="fill:#e5e401" d="M178.92,104.34L178.20,104.13L178.87,104.18z"/><path style="fill:#e5e401" d="M180.73,105.11L180.01,104.90L180.68,104.95z"/><path style="fill:#e5e401" d="M182.54,105.88L181.82,105.68L182.49,105.73z"/><path style="fill:#e5e401" d="M184.35,106.66L183.63,106.45L184.30,106.50z"/><path style="fill:#e5e401" d="M186.15,107.43L185.43,107.23L186.10,107.28z"/><path style="fill:#e5e401" d="M187.96,108.21L187.24,108.00L187.91,108.05z"/><path style="fill:#e5e401" d="M189.77,108.98L189.05,108.78L189.72,108.83z"/><path style="fill:#e5e401" d="M191.58,109.76L190.86,109.55L191.53,109.60z"/><path style="fill:#e5e401" d="M193.39,110.53L192.67,110.33L193.33,110.38z"/><path style="fill:#e5e401" d="M195.19,111.31L194.47,111.10L195.14,111.15z"/><path style="fill:#e5e401" d="M197.00,112.08L196.28,111.88L196.95,111.92z"/><path style="fill:#e5e401" d="M198.81,112.86L198.09,112.65L198.76,112.70z"/><path style="fill:#e5e401" d="M200.62,113.63L199.90,113.43L200.57,113.47z"/><path style="fill:#e5e401" d="M202.42,114.41L201.70,114.20L202.37,114.25z"/><path style="fill:#e5e401" d="M204.23,115.18L203.51,114.98L204.18,115.02z"/><path style="fill:#e5e401" d="M206.04,115.96L205.32,115.75L205.99,115.80z"/><path style="fill:#e5e401" d="M212.49,116.23L212.03,116.26L211.89,116.03L212.02,115.90L212.29,115.90z"/><path style="fill:#e5e401" d="M207.85,116.73L207.13,116.53L207.80,116.57z"/><path style="fill:#e5e401" d="M209.66,117.51L208.94,117.30L209.60,117.35z"/><path style="fill:#e5e401" d="M211.25,118.25L210.73,118.11L211.18,117.32z"/><path style="fill:#ffffff" d="M152.57,65.85L157.22,64.30L157.21,67.42z"/><g id="Actor_.0"><g style="stroke:#000000;stroke-width:0.018;stroke-opacity:0.03"><path d="M72.50,43.93L72.65,44.02L72.89,44.00L73.29,43.80L73.57,43.55L78.23,48.78L78.46,48.40L78.44,48.11L78.29,48.02L78.05,48.03L77.63,48.24L77.21,48.72L77.14,49.06L77.33,49.23L77.56,49.22L77.84,49.10L78.23,48.78L78.70,49.40L79.08,50.08L79.35,50.83L79.52,51.62L79.91,51.44L79.91,51.35L79.64,51.25L78.67,51.30L78.51,50.53L78.23,49.77L77.63,48.76L72.72,43.25"/><path d="M72.55,43.89L72.53,43.62L72.75,43.27L77.66,48.78L78.26,49.78L78.63,50.91L78.71,51.31L78.39,51.43L78.35,51.56L78.72,51.67L79.49,51.61L79.32,50.82L79.04,50.07L78.69,49.41L78.20,48.77L77.97,48.98L77.58,49.17L77.36,49.18L77.19,49.02L77.25,48.71L77.63,48.29L78.03,48.08L78.25,48.07L78.39,48.15L78.41,48.42L78.20,48.77L73.54,43.54"/><path d="M73.74,42.92L73.60,42.84L73.38,42.86L73.12,42.96L72.75,43.27"/><path d="M73.57,43.55L73.81,43.17L73.79,42.88"/><path d="M89.61,119.76L89.53,119.63L89.22,119.50L88.93,119.50L88.51,119.60L78.67,51.30L78.33,51.43L78.28,51.57L78.85,51.69L79.52,51.62L80.87,61.10"/><path d="M88.54,119.62L78.71,51.31L79.47,51.25L79.79,51.32L79.86,51.40L79.72,51.53L79.49,51.61L80.84,61.11"/><path d="M89.28,120.12L81.10,62.68"/><path d="M89.55,119.77L89.44,119.98L89.25,120.10L81.06,62.67"/><path d="M89.25,120.10L88.59,120.19L88.37,120.13L88.23,119.95"/><path d="M88.51,119.60L88.22,119.80L88.17,119.96"/></g><g style="stroke:#000000;stroke-width:0.123;stroke-opacity:0.03"><path d="M87.50,114.90L78.27,51.17L77.96,50.23L77.44,49.36L72.55,43.89L72.69,43.97L72.91,43.95L73.42,43.65L73.71,43.30L73.78,43.08L73.74,42.92L78.39,48.15L78.92,48.85L79.34,49.62L79.67,50.52L79.86,51.40L81.22,61.02"/><path d="M81.29,61.03L79.93,51.39L79.75,50.53L79.40,49.60L78.97,48.81L78.44,48.11L73.79,42.88L73.64,42.79L73.26,42.86L72.98,43.02L72.62,43.38L72.46,43.75L72.50,43.93L77.38,49.39L77.90,50.25L78.20,51.18L87.43,114.82"/><path d="M78.03,50.57L78.01,50.51"/><path d="M78.07,50.49L78.09,50.55"/><path d="M79.60,50.08L79.40,49.60L79.60,50.08"/><path d="M79.34,49.62L79.53,50.09L79.34,49.62"/><path d="M87.61,116.07L88.20,120.03L88.33,120.15L88.70,120.23L89.28,120.12L89.49,119.99L89.61,119.76L81.55,62.88"/><path d="M87.67,116.04L88.23,119.95L88.34,119.74L88.79,119.54L89.31,119.56L89.48,119.65L89.55,119.77L81.48,62.85"/></g></g><g id="Actor_.1"><g style="stroke:#000000;stroke-width:0.018;stroke-opacity:0.03"><path d="M119.98,58.91L120.05,59.08L120.04,59.29L119.95,59.52L119.80,59.75L124.29,65.72L124.44,65.50L124.50,65.34L124.54,65.13L124.49,64.94L124.42,64.84L124.26,64.74L124.05,64.70L123.88,64.72L123.63,64.79L123.37,64.93L123.14,65.11L123.01,65.25L123.24,65.59L123.45,65.95L123.63,66.34L123.79,66.74L123.92,67.17L124.02,67.61L124.09,68.06L124.13,68.53L124.47,68.45L124.86,68.42L125.15,68.44L125.47,68.50L125.69,68.60L125.77,68.70L125.77,68.77L125.73,68.83L125.60,68.93L125.41,69.01L125.37,68.55L125.30,68.09L125.20,67.65L125.07,67.22L124.91,66.81L124.73,66.43L124.53,66.06L124.29,65.72L124.01,65.99L123.84,66.10L123.58,66.22L123.33,66.27L123.17,66.27L123.03,66.24L122.87,66.14L122.78,65.98L122.76,65.78L122.79,65.63L122.86,65.48L123.01,65.25L118.50,59.30"/><path d="M119.80,59.75L119.66,59.90L119.42,60.09L119.25,60.19L118.98,60.29L118.81,60.32L118.58,60.31L118.45,60.27L118.31,60.15"/><path d="M118.40,60.10L118.33,59.95L118.34,59.75L118.42,59.54L118.56,59.32L123.07,65.27L122.93,65.49L122.85,65.70L122.84,65.83L122.87,65.95L122.96,66.09L123.06,66.16L123.19,66.19L123.33,66.20L123.48,66.18L123.73,66.09L124.04,65.90L124.28,65.63L124.40,65.42L124.44,65.27L124.45,65.14L124.43,65.02L124.37,64.92L124.23,64.82L124.11,64.78L123.89,64.78L123.73,64.82L123.41,64.97L123.26,65.08L123.07,65.27L123.30,65.61L123.60,66.16L123.85,66.77L124.03,67.41L124.11,67.86L124.19,68.55L124.01,68.63L123.92,68.69L123.87,68.75L123.86,68.85L123.94,68.94L124.09,69.01L124.48,69.08L124.93,69.08L125.35,68.99L125.27,68.29L125.19,67.84L125.08,67.41L124.85,66.79L124.67,66.40L124.46,66.04L124.23,65.70L119.74,59.73"/><path d="M118.56,59.32L118.76,59.12L118.91,59.01L119.24,58.85L119.48,58.81L119.62,58.81L119.80,58.87L119.89,58.95"/><path d="M124.50,79.60L124.53,79.67L124.59,79.73L124.80,79.83L125.11,79.89L125.38,79.89L125.73,79.85L126.02,79.77L126.22,79.64L126.27,79.57L126.28,79.50"/><path d="M126.02,79.82L125.41,69.01L125.06,69.09L124.67,69.12L124.29,69.10L123.99,69.02L123.81,68.91L123.77,68.85L123.77,68.78L123.81,68.71L123.88,68.64L124.13,68.53L124.77,79.29L125.01,79.22L125.29,79.18L125.58,79.18L125.85,79.20L126.08,79.26L126.21,79.31L126.33,79.40L126.38,79.51"/><path d="M124.77,79.29L124.53,79.41L124.45,79.48L124.41,79.59"/><path d="M125.96,79.79L125.35,68.99L125.58,68.88L125.64,68.82L125.68,68.73L125.62,68.64L125.44,68.53L125.22,68.48L124.88,68.46L124.51,68.48L124.19,68.55L124.83,79.31"/></g><g style="stroke:#000000;stroke-width:0.123;stroke-opacity:0.03"><path d="M119.25,61.38L118.31,60.15L118.25,59.97L118.26,59.76L118.31,59.61L118.44,59.38L118.57,59.23L118.79,59.02L119.05,58.87L119.31,58.77L119.48,58.73L119.71,58.74L119.84,58.79L119.98,58.91L124.46,64.88L124.71,65.25L124.96,65.68L125.16,66.09L125.35,66.57L125.49,67.02L125.60,67.48L125.70,68.00L125.75,68.49L126.38,79.51L126.34,79.62L126.26,79.69L126.02,79.82L125.77,79.88L125.49,79.92L125.02,79.92L124.77,79.87L124.58,79.80L124.45,79.70L124.41,79.63L123.75,68.62L123.64,67.90L123.44,67.20L123.45,67.24L123.25,66.76L123.09,66.46L123.11,66.51L122.93,66.22L119.25,61.38"/><path d="M119.25,61.22L118.40,60.10L118.49,60.18L118.60,60.23L118.74,60.25L118.89,60.24L119.22,60.14L119.54,59.93L119.79,59.66L119.91,59.44L119.96,59.30L119.97,59.16L119.94,59.05L119.89,58.95L124.50,65.10L124.87,65.71L125.17,66.37L125.33,66.81L125.46,67.26L125.56,67.76L125.66,68.48L126.28,79.50L126.26,79.44L126.20,79.38L125.98,79.27L125.67,79.22L125.32,79.22L124.97,79.27L124.70,79.37L124.56,79.46L124.52,79.53L124.50,79.60L123.84,68.62L123.73,67.85L123.73,67.89L123.64,67.53L123.47,67.01L123.26,66.58L122.99,66.14L123.02,66.19L119.25,61.22"/></g></g><g id="Actor_.2"><g style="stroke:#000000;stroke-width:0.018;stroke-opacity:0.03"><path d="M204.46,194.68L204.39,194.34L204.15,194.03L203.80,193.80L203.37,193.67L202.95,193.67L202.58,193.79L202.33,194.03L202.24,194.34"/><path d="M213.12,92.50L215.90,99.44L215.31,99.93L214.80,100.08L214.06,99.96L213.62,99.49L213.64,98.86L213.91,98.46L214.34,98.16L214.85,98.01L215.35,98.04L215.92,98.41L216.07,99.01L215.90,99.44L216.15,100.26L216.28,101.22L216.26,102.86L204.18,195.06L203.68,195.28L203.05,195.20L202.54,194.86L202.37,194.55L202.36,194.23"/><path d="M202.44,193.90L213.96,102.60L214.57,102.43L215.63,102.52L216.27,102.80L216.52,103.16L216.30,103.49L216.39,101.26L216.15,99.87L213.23,92.54L213.42,92.09L213.40,91.64"/><path d="M202.52,193.96L214.07,102.64L214.67,102.48L215.45,102.53L216.10,102.78L216.39,103.13L216.33,103.32L216.03,103.52L215.33,103.62L214.34,103.41L214.00,103.20L213.87,102.96"/><path d="M204.26,195.12L216.30,103.49L215.69,103.67L214.88,103.63L214.16,103.40L213.77,103.05L213.75,102.85L213.96,102.60L214.06,100.90L213.89,99.43L213.64,98.61L214.24,98.09L215.03,97.90L215.76,98.09L216.17,98.60L216.13,99.26L215.85,99.68L215.41,100.00L214.89,100.17L214.35,100.17L213.89,100.00L213.57,99.68L213.44,99.27L213.64,98.61L210.79,91.69"/><path d="M204.34,194.79L204.18,195.06"/><path d="M213.23,92.54L212.63,93.07L211.78,93.29L211.03,93.10L210.62,92.58"/><path d="M213.88,102.84L214.07,102.64L214.17,100.94L214.09,99.95L213.89,99.04L210.90,91.73L211.50,91.23L212.31,91.05L212.99,91.29L213.25,91.64"/><path d="M210.90,91.73L210.72,92.16L210.76,92.59"/></g><g style="stroke:#000000;stroke-width:0.123;stroke-opacity:0.03"><path d="M202.24,194.34L213.79,102.45L213.81,101.10L213.59,99.79L210.58,92.36L210.79,91.69L211.17,91.30L211.95,90.97L212.51,90.96L212.98,91.13L213.31,91.44L216.17,98.60L216.42,99.40L216.59,100.51L216.58,102.59L204.44,194.84L204.26,195.12L203.95,195.30L203.33,195.35L202.90,195.22L202.54,194.98L202.31,194.67L202.24,194.34"/><path d="M202.36,194.23L202.50,193.99L202.83,193.78L203.23,193.73L203.63,193.81L204.15,194.16L204.33,194.47L204.34,194.79L216.44,102.69L216.46,100.48L216.16,98.98L213.25,91.64L213.29,92.06L213.12,92.50L212.74,92.87L212.24,93.11L211.70,93.18L211.22,93.06L210.76,92.59L213.78,99.95L213.94,101.07L213.92,102.48L202.36,194.23"/><path d="M213.76,100.49L213.75,100.45"/><path d="M213.78,99.95L213.83,100.14"/></g></g><g id="Actor_.3"><g style="stroke:#000000;stroke-width:0.018;stroke-opacity:0.03"><path d="M113.06,74.36L110.55,43.80L110.26,43.94L110.36,44.05L110.71,44.12L111.45,44.06L111.43,43.31L111.51,42.55L111.68,41.81L111.93,41.09L110.84,40.63L110.79,40.65L111.03,40.84L110.78,41.55L110.61,42.29L110.54,43.05L110.55,43.80L111.29,43.74L111.74,43.87"/><path d="M113.09,74.37L110.57,43.43L110.65,42.30L110.93,41.20L111.07,40.85L111.43,41.04L111.03,40.84L113.65,34.66L113.41,34.46"/><path d="M111.68,43.88L111.39,43.77L110.99,43.75L110.48,43.84L110.32,43.94L110.50,44.07L110.87,44.11L111.38,44.06L111.68,43.91"/><path d="M112.12,52.89L111.39,43.68L111.42,42.92L111.55,42.17L111.89,41.08L111.15,40.73L110.84,40.67L111.07,40.85L113.68,34.67"/><path d="M113.88,74.70L112.23,54.24"/><path d="M113.91,74.72L112.27,54.25"/><path d="M112.15,52.86L111.45,44.06L111.74,43.91"/><path d="M114.73,35.07L114.52,34.88L111.89,41.08L112.10,41.27L111.43,41.04L112.16,41.30L111.93,41.09L114.55,34.89"/><path d="M115.56,108.08L115.58,107.95L115.80,107.78L113.23,76.46"/><path d="M115.83,107.80L113.27,76.47"/><path d="M113.46,34.48L113.89,34.57L114.52,34.88"/><path d="M115.61,108.08L115.77,108.23L115.98,108.28L116.57,108.20L114.05,76.80"/><path d="M116.60,108.22L114.08,76.82"/><path d="M114.79,35.10L114.32,35.00L113.65,34.66"/><path d="M115.80,107.78L116.45,107.70L116.76,107.80L116.85,107.92"/><path d="M116.80,107.92L116.73,108.10L116.57,108.20"/></g><g style="stroke:#000000;stroke-width:0.123;stroke-opacity:0.03"><path d="M112.76,74.23L110.26,43.98L110.24,43.11L110.32,42.27L110.64,41.04L113.46,34.43L114.16,34.68L114.77,35.06L112.05,41.59L111.75,42.91L111.74,43.91L112.45,52.78"/><path d="M112.82,74.26L110.32,43.98L110.30,43.11L110.46,41.87L110.69,41.06L113.46,34.48L113.68,34.67L114.17,34.93L114.62,35.08L114.73,35.07L112.00,41.55L111.80,42.23L111.69,42.90L111.68,43.91L112.39,52.78"/><path d="M114.38,76.95L116.85,107.98L116.78,108.11L116.60,108.22L116.22,108.31L115.73,108.25L115.56,108.08L112.93,76.33"/><path d="M114.32,76.92L116.80,107.92L116.54,107.74L116.06,107.73L115.67,107.90L115.61,108.08L112.99,76.35"/><path d="M114.21,74.84L112.57,54.35"/><path d="M114.15,74.82L112.51,54.33"/></g></g><g id="Actor_.4"><g style="stroke:#000000;stroke-width:0.018;stroke-opacity:0.03"><path d="M157.19,67.86L157.20,67.80L157.25,67.75L157.44,67.65L157.46,64.23"/><path d="M157.44,67.65L157.64,67.59L157.88,67.56L158.14,67.56L158.39,67.58L158.61,67.62L158.79,67.68L158.91,67.76L158.95,67.85"/><path d="M157.49,67.67L157.52,64.21"/><path d="M162.85,47.41L162.83,47.35L162.70,47.24L159.49,54.65L159.62,54.76L159.64,54.81L159.60,54.83L159.49,54.82L159.12,54.71L158.67,54.52L158.31,54.31L158.06,54.94L157.86,55.59L157.71,56.26L157.64,56.70L157.59,57.14L157.56,57.80L157.75,57.75L157.98,57.72L158.47,57.74L158.68,57.78L158.84,57.84L158.93,57.91L158.96,57.96L158.95,58.01L158.91,58.06L158.73,58.15L158.65,68.05L158.30,68.12L158.07,68.13L157.83,68.12L157.61,68.08L157.43,68.02L157.32,67.95L157.27,67.87"/><path d="M161.27,46.72L161.32,46.82L161.44,46.91L158.25,54.29L158.64,54.51L159.19,54.75L159.61,54.86L159.70,54.86L159.72,54.82L159.67,54.76L159.55,54.67L159.30,55.30L159.10,55.95L158.95,56.62L158.88,57.06L158.83,57.51L158.79,58.16L158.58,58.21L158.34,58.24L157.82,58.23L157.59,58.19L157.41,58.13L157.27,58.03L157.25,57.95L157.31,57.87L157.50,57.78L157.47,62.53"/><path d="M158.71,68.07L158.79,58.16L158.98,58.07L159.03,58.02L159.04,57.97L159.00,57.88L158.88,57.81L158.70,57.75L158.47,57.71L157.95,57.70L157.71,57.73L157.50,57.78L157.53,57.13L157.65,56.24L157.80,55.58L157.93,55.14L158.25,54.29L158.10,54.18L158.07,54.14L158.08,54.11L158.14,54.09L158.27,54.11L158.68,54.24L159.16,54.45L159.55,54.67L162.76,47.25"/><path d="M157.53,62.56L157.56,57.80L157.38,57.88L157.33,57.96L157.36,58.03L157.45,58.10L157.61,58.16L157.82,58.20L158.30,58.22L158.54,58.19L158.73,58.15L158.79,57.27L158.93,56.38L159.17,55.50L159.49,54.65L159.12,54.44L158.67,54.25L158.30,54.14L158.19,54.13L158.15,54.15L158.17,54.20L158.31,54.31L161.50,46.93"/><path d="M158.87,67.87L158.84,67.93L158.78,67.98L158.65,68.05"/><path d="M162.93,47.44L162.88,47.48L162.77,47.48L162.38,47.38L161.91,47.18L161.44,46.91"/><path d="M162.70,47.24L162.33,47.02L161.88,46.83L161.51,46.73L161.40,46.72L161.35,46.75"/></g><g style="stroke:#000000;stroke-width:0.123;stroke-opacity:0.03"><path d="M157.22,62.45L157.26,57.52L157.36,56.59L157.44,56.13L157.60,55.45L157.81,54.77L158.07,54.12L161.28,46.71L161.38,46.68L161.67,46.74L162.05,46.88L162.52,47.10L162.81,47.29L162.90,47.38L162.93,47.44L159.65,55.02L159.39,55.74L159.20,56.49L159.11,57.06L159.05,57.78L158.95,67.85L158.94,67.91L158.89,67.97L158.76,68.05L158.57,68.11L158.34,68.15L158.09,68.16L157.83,68.15L157.59,68.11L157.40,68.05L157.26,67.98L157.19,67.89L157.21,64.31"/><path d="M157.29,64.28L157.27,67.87L157.28,67.81L157.32,67.76L157.49,67.67L157.76,67.60L158.07,67.58L158.39,67.61L158.65,67.67L158.81,67.76L158.85,67.81L158.87,67.87L158.96,57.80L159.02,57.05L159.12,56.47L159.31,55.72L159.57,54.99L162.85,47.41L162.77,47.44L162.58,47.42L162.31,47.34L162.01,47.21L161.73,47.07L161.50,46.93L161.37,46.81L161.35,46.75L158.06,54.37L157.82,55.02L157.63,55.69L157.44,56.60L157.35,57.51L157.30,62.46"/></g></g><g id="Actor_.5"><g style="stroke:#000000;stroke-width:0.018;stroke-opacity:0.03"><path d="M227.23,167.08L227.36,166.86L242.35,83.02L242.21,83.17L242.26,83.35L242.86,83.68L243.80,83.81L244.52,83.67L229.09,167.81"/><path d="M227.32,167.12L227.35,167.33L227.54,167.61L228.22,167.92L228.75,167.90L229.01,167.76L229.13,167.55"/><path d="M227.36,166.86L227.78,166.68L228.55,166.78L229.12,167.21L229.22,167.59"/><path d="M227.44,166.91L242.44,83.10L242.99,80.86L243.83,78.66L244.21,78.90L245.03,79.23L245.72,79.37L245.86,79.28L245.82,79.22L244.97,81.43L244.42,83.64L229.01,167.76"/><path d="M242.36,83.12L242.33,83.28L242.49,83.46L243.25,83.72L244.12,83.73L244.42,83.64L244.54,83.49L244.37,83.23L243.61,82.97L242.74,82.95L242.36,83.12"/><path d="M242.45,82.48L242.35,83.02L243.06,82.88L243.99,83.01L244.60,83.34L244.61,83.60L244.52,83.67L245.08,81.46L245.92,79.25L245.54,79.00L244.69,78.65L243.71,78.48L242.89,80.83L242.45,82.48"/><path d="M247.96,68.99L248.01,69.12L243.73,78.61L244.30,78.97L245.17,79.29L245.93,79.40L245.92,79.25L250.23,69.69"/><path d="M250.16,69.78L250.12,69.66L245.82,79.22L245.44,78.98L244.61,78.65L243.92,78.51L243.83,78.52L243.83,78.66L248.11,69.15"/><path d="M250.12,69.66L249.14,69.15L248.51,68.99L248.07,69.03"/><path d="M250.27,69.82L250.01,69.88L249.23,69.73L248.38,69.38L248.01,69.12"/></g><g style="stroke:#000000;stroke-width:0.123;stroke-opacity:0.03"><path d="M227.23,167.08L242.31,82.67L242.87,80.58L243.45,79.02L247.96,68.99L248.22,68.92L248.57,68.97L249.66,69.33L250.27,69.76L245.77,79.81L245.25,81.21L244.74,83.06L229.22,167.59L229.09,167.81L228.83,167.95L228.09,167.95L227.42,167.59L227.25,167.33L227.23,167.08"/><path d="M227.32,167.12L227.44,166.91L227.69,166.77L228.38,166.79L228.90,167.06L229.09,167.30L229.13,167.55L244.74,82.58L245.14,81.17L245.66,79.78L250.16,69.78L249.88,69.84L249.09,69.66L248.32,69.31L248.07,69.08L243.56,79.06L242.91,80.86L242.42,82.69L227.32,167.12"/></g></g><g id="Actor_.6"><g style="stroke:#000000;stroke-width:0.018"><path d="M80.41,62.00L211.06,117.76L211.06,118.08L211.26,118.47"/><path d="M211.48,118.38L211.23,118.27L211.13,117.79L211.34,117.03L211.67,116.51L212.47,116.84L212.09,117.84L211.48,118.38"/><path d="M211.06,117.76L211.48,116.65L211.94,116.15L212.35,116.09"/><path d="M212.52,116.79L212.54,116.80"/><path d="M212.47,116.84L212.42,116.33L212.30,116.20L211.93,116.26L211.67,116.51"/></g><g style="stroke:#000000;stroke-width:0.123"><path d="M80.80,62.55L80.41,62.00L80.48,61.51L80.80,61.13L81.45,61.08L212.35,116.09L212.55,116.48L212.31,117.55L211.66,118.40L211.26,118.47L80.80,62.55"/></g></g><g id="Actor_.7"><g style="stroke:#000000;stroke-width:0.018"><path d="M147.48,65.70L111.78,53.67"/><path d="M112.53,52.78L112.51,52.77"/><path d="M150.36,66.67L239.40,96.69L239.49,97.36"/><path d="M239.40,96.69L239.78,95.72L240.31,95.26"/><path d="M239.63,97.29L239.46,97.13L239.45,96.65L239.79,95.78L240.47,96.01L240.13,96.88L239.63,97.29"/><path d="M240.47,96.01L240.47,95.53L240.26,95.36L239.79,95.78"/></g><g style="stroke:#000000;stroke-width:0.123"><path d="M146.77,65.94L112.08,54.19L111.78,53.67L111.86,53.21L112.14,52.87L112.51,52.77L149.42,65.05"/><path d="M149.65,66.92L239.62,97.40L239.96,97.18L240.44,96.30L240.52,95.45L240.31,95.26L152.31,66.00"/></g></g><g id="Actor_.8"><g style="stroke:#000000;stroke-width:0.018"><path d="M87.82,115.62L68.45,123.78L68.33,123.40L68.14,123.05L68.05,122.94L67.93,122.82L67.85,122.79L67.75,122.79"/><path d="M68.45,123.78L68.46,124.02L68.43,124.13L68.38,124.18"/><path d="M68.11,123.06L68.27,123.33L68.40,123.68L68.43,123.97L68.39,124.08L68.35,124.12L68.29,124.12L68.22,124.10L68.14,124.04L68.02,123.90L67.87,123.65L67.74,123.29L67.71,123.00L67.73,122.92L67.77,122.87L67.84,122.85L67.91,122.87L67.99,122.93L68.11,123.06L67.73,123.22"/></g><g style="stroke:#000000;stroke-width:0.123"><path d="M68.62,124.08L68.35,124.19L68.29,124.19L68.17,124.11L68.00,123.92L67.81,123.57L67.69,123.20L67.67,123.07L67.68,122.91L67.71,122.83L67.75,122.79L87.12,114.70L87.19,114.68L87.27,114.70L87.39,114.79L87.57,114.99L87.68,115.19L87.79,115.48L87.82,115.69L87.81,115.90L87.77,115.98L87.72,116.02L68.62,124.08"/></g></g><g id="Actor_.9"><g style="stroke:#000000;stroke-width:0.018"><path d="M116.78,103.75L116.83,103.71L116.89,103.63L116.91,103.54L116.92,103.42L116.88,103.16L116.81,102.96L116.66,102.73L116.53,102.60L116.44,102.54L116.36,102.52L116.24,102.53"/><path d="M116.92,103.36L132.63,96.75"/><path d="M116.49,103.63L116.62,103.70L116.73,103.70L116.79,103.67L116.84,103.61L116.88,103.47L116.88,103.29L116.82,103.08L116.73,102.89L116.63,102.74L116.14,102.95L116.17,103.14L116.25,103.33L116.36,103.51L116.49,103.63"/><path d="M116.14,102.95L116.14,102.83L116.16,102.73L116.22,102.62L116.29,102.58L116.36,102.58L116.45,102.60L116.53,102.65L116.63,102.74"/></g><g style="stroke:#000000;stroke-width:0.123"><path d="M116.66,103.77L116.53,103.72L116.40,103.61L116.24,103.39L116.16,103.19L116.11,102.99L116.11,102.75L116.15,102.61L116.24,102.53L131.95,95.97L132.03,95.95L132.12,95.96L132.25,96.02L132.38,96.14L132.53,96.36L132.61,96.62L132.63,96.81L132.61,96.92L132.58,97.01L132.53,97.08L132.47,97.13L116.78,103.75L116.66,103.77"/></g></g><g id="Actor_.10"><g style="stroke:#000000;stroke-width:0.018"><path d="M126.35,73.47L126.55,73.87L126.61,74.11L126.62,74.34L126.56,74.63L126.47,74.77L126.35,74.85L126.21,74.87L126.05,74.82L125.89,74.71L125.75,74.55L125.63,74.35L125.54,74.12L125.48,73.89L125.47,73.66L125.50,73.46L125.57,73.29L125.67,73.18L125.81,73.13L125.96,73.15L126.11,73.22L126.34,73.44L126.35,73.47L125.47,73.77"/><path d="M126.40,74.93L126.58,74.76L126.67,74.48L126.67,74.13L126.57,73.77L126.46,73.52L126.24,73.24L125.99,73.07L125.75,73.05"/><path d="M126.68,74.25L157.98,63.53"/><path d="M157.65,64.16L157.65,64.16"/></g><g style="stroke:#000000;stroke-width:0.123"><path d="M125.93,74.83L125.77,74.67L125.63,74.48L125.48,74.12L125.42,73.87L125.41,73.63L125.47,73.32L125.56,73.17L125.68,73.07L157.09,62.45L157.34,62.47L157.58,62.61L157.73,62.77L157.89,63.07L157.97,63.41L157.95,63.74L157.84,64.00L157.65,64.16L126.40,74.93L126.18,74.95L125.93,74.83"/></g></g><g id="PMI5.0"><g><path style="stroke:#000000;stroke-width:0.250" d="M106.69,102.39L114.31,102.54"/></g><g><path style="fill:#000000" d="M114.30,103.54L114.34,101.54L116.32,102.58z"/></g><g><path style="fill:#ffffff" d="M88.14,105.04L106.71,105.04L106.71,99.39L88.14,99.39z"/><path style="stroke:#000000;stroke-width:0.250;stroke-opacity:0.98" d="M88.14,105.04L106.71,105.04L106.71,99.39L88.14,99.39z"/><text xml:space="preserve" fill="#000000" stroke-width="0" x="88.84" y="103.45" font-size="3.43" opacity="1.00" font-family="MS Shell Dlg">730000081</text></g></g><g id="PMI3.0"><g><path style="stroke:#000000;stroke-width:0.250" d="M97.94,114.28L89.10,114.70"/></g><g><path style="fill:#000000" d="M89.06,113.70L89.15,115.70L87.11,114.79z"/></g><g><path style="fill:#ffffff" d="M97.95,116.66L116.52,116.66L116.52,111.02L97.95,111.02z"/><path style="stroke:#000000;stroke-width:0.250;stroke-opacity:0.98" d="M97.95,116.66L116.52,116.66L116.52,111.02L97.95,111.02z"/><text xml:space="preserve" fill="#000000" stroke-width="0" x="98.66" y="115.07" font-size="3.43" opacity="1.00" font-family="MS Shell Dlg">730000071</text></g></g><g id="PMI4.0"><g><path style="stroke:#000000;stroke-width:0.250" d="M167.17,63.36L158.76,63.26"/></g><g><path style="fill:#000000" d="M158.77,62.27L158.75,64.27L156.76,63.24z"/></g><g><path style="fill:#ffffff" d="M167.16,66.30L185.73,66.30L185.73,60.66L167.16,60.66z"/><path style="stroke:#000000;stroke-width:0.250;stroke-opacity:0.98" d="M167.16,66.30L185.73,66.30L185.73,60.66L167.16,60.66z"/><text xml:space="preserve" fill="#000000" stroke-width="0" x="167.87" y="64.71" font-size="3.43" opacity="1.00" font-family="MS Shell Dlg">730000061</text></g></g><g id="PMI2.0"><g><path style="stroke:#000000;stroke-width:0.250" d="M251.37,94.61L242.14,95.27"/></g><g><path style="fill:#000000" d="M242.05,94.27L242.19,96.27L240.13,95.41z"/></g><g><path style="fill:#ffffff" d="M251.36,96.77L269.93,96.77L269.93,91.13L251.36,91.13z"/><path style="stroke:#000000;stroke-width:0.250;stroke-opacity:0.98" d="M251.36,96.77L269.93,96.77L269.93,91.13L251.36,91.13z"/><text xml:space="preserve" fill="#000000" stroke-width="0" x="252.06" y="95.19" font-size="3.43" opacity="1.00" font-family="MS Shell Dlg">730000051</text></g></g><g id="PMI1.0"><g><path style="stroke:#000000;stroke-width:0.250" d="M211.44,130.39L211.88,118.26"/></g><g><path style="fill:#000000" d="M212.86,118.29L210.86,118.22L211.93,116.26z"/></g><g><path style="fill:#ffffff" d="M202.03,136.03L220.60,136.03L220.60,130.39L202.03,130.39z"/><path style="stroke:#000000;stroke-width:0.250;stroke-opacity:0.98" d="M202.03,136.03L220.60,136.03L220.60,130.39L202.03,130.39z"/><text xml:space="preserve" fill="#000000" stroke-width="0" x="202.73" y="134.44" font-size="3.43" opacity="1.00" font-family="MS Shell Dlg">730000041</text></g></g><g id="paperID" visibility="hidden" opacity="0.00" transform="scale(0.000100)"><path style="stroke:#000000;stroke-width:0.500;fill:#e6e6e6;fill-rule:evenodd" d="M-2000.00,-2000.00L2297.00,-2000.00L2297.00,2210.00L-2000.00,2210.00zM0.00,0.00L297.00,0.00L297.00,210.00L0.00,210.00z"/><path style="fill:#000000;fill-opacity:0.118" d="M3.00,210.00L297.00,210.00L297.00,3.00L300.00,3.00L300.00,213.00L3.00,213.00z"/></g><g id="hotspot.0" onmouseover="ShowHotSpot(evt,'0')" onmouseout="HideHotSpot(evt,'0')" onmousemove="ShowToolTip(evt,'0',&quot;3dp649504&quot;)" opacity="0"><path style="fill:#00ff00;fill-rule:evenodd" d="M212.46,116.05L212.73,117.87L211.88,118.09L211.85,130.09L220.50,130.22L220.76,130.48L220.65,135.95L201.86,135.95L201.86,130.32L211.18,130.09L211.42,118.37L80.76,62.31L80.48,62.06L80.44,61.36L80.67,61.04L81.80,61.02z"/></g><g id="hotspot.1" onmouseover="ShowHotSpot(evt,'1')" onmouseout="HideHotSpot(evt,'1')" onmousemove="ShowToolTip(evt,'1',&quot;3dp649505&quot;)" opacity="0"><path style="fill:#00ff00;fill-rule:evenodd" d="M149.19,64.92L147.04,65.71L142.72,64.40L112.23,54.09L111.91,53.88L111.99,52.84L113.03,52.76zM239.56,94.89L240.81,94.89L241.58,94.30L241.88,94.35L242.16,94.96L250.95,94.19L251.19,91.07L269.83,90.96L270.09,91.22L269.98,96.69L251.19,96.69L250.95,94.86L242.35,95.40L242.14,95.99L241.66,95.94L241.12,95.60L240.54,95.62L240.36,96.51L240.01,96.94L238.79,96.95L150.17,66.98L149.88,66.71L151.95,65.92L152.54,65.92z"/></g><g id="hotspot.2" onmouseover="ShowHotSpot(evt,'2')" onmouseout="HideHotSpot(evt,'2')" onmousemove="ShowToolTip(evt,'2',&quot;3dp650217&quot;)" opacity="0"><path style="fill:#00ff00;fill-rule:evenodd" d="M116.68,111.11L116.58,116.58L97.78,116.58L97.55,114.49L89.42,114.73L88.99,115.36L88.50,115.30L87.98,114.98L87.72,115.87L69.06,123.81L68.02,123.88L67.79,123.56L67.82,122.59L88.23,114.07L88.69,113.67L88.99,113.72L89.26,114.33L97.55,113.82L97.78,110.95L116.42,110.85z"/></g><g id="hotspot.3" onmouseover="ShowHotSpot(evt,'3')" onmouseout="HideHotSpot(evt,'3')" onmousemove="ShowToolTip(evt,'3',&quot;3dp650219&quot;)" opacity="0"><path style="fill:#00ff00;fill-rule:evenodd" d="M185.89,60.75L185.79,66.21L166.99,66.21L166.76,63.61L158.93,63.37L158.72,63.96L157.88,63.85L126.63,74.76L125.96,74.74L125.69,74.47L125.61,72.92L157.45,62.33L158.71,62.34L158.93,62.64L160.55,62.84L166.76,62.94L166.99,60.59L185.63,60.49z"/></g><g id="hotspot.4" onmouseover="ShowHotSpot(evt,'4')" onmouseout="HideHotSpot(evt,'4')" onmousemove="ShowToolTip(evt,'4',&quot;3dp696660&quot;)" opacity="0"><path style="fill:#00ff00;fill-rule:evenodd" d="M132.67,96.66L132.58,96.92L117.35,103.41L116.39,103.41L116.15,102.64L114.58,103.24L114.58,101.56L115.60,102.11L116.84,102.12L131.81,95.88L132.16,95.86zM106.86,99.49L107.00,101.94L114.11,102.12L114.11,102.42L107.00,102.61L106.76,104.95L87.97,104.95L87.97,99.33L106.61,99.23z"/></g></g></svg>
