<?xml version="1.0" encoding="UTF-8" standalone="no"?>
<svg xmlns="http://www.w3.org/2000/svg" xmlns:xlink="http://www.w3.org/1999/xlink" width="297.000mm" height="210.000mm" viewBox="0.000000 0.000000 297.000000 210.000000" stroke-linejoin="round" stroke-linecap="round" fill="none" fill-rule="evenodd"><desc>Composer Export</desc><script type="text/ecmascript"><![CDATA[
if(typeof(top) != "undefined")
{
	top.ShowPaper = ShowPaper;
}
function ShowHotSpot(evt,hotspotid)
{
	var svgDocument = evt.target.ownerDocument;
	var strId = "hotspot."+hotspotid;
	var hotspot = svgDocument.getElementById(strId);
	if(hotspot)
		hotspot.setAttribute("opacity",".5");
}
function HideHotSpot(evt,hotspotid)
{
	var svgDocument = evt.target.ownerDocument;
	var strId = "hotspot."+hotspotid;
	var hotspot = svgDocument.getElementById(strId);
	if(hotspot)
		hotspot.setAttribute("opacity","0");

	var toolTip = svgDocument.getElementById('ToolTip');
	if(toolTip)
		toolTip.setAttribute("visibility","hidden");
}
function ShowToolTip(evt,hotspotid,strTooltip)
{
	if(strTooltip=="")
	return;

	// change text
	var svgDocument = evt.target.ownerDocument;
	var tiptext = svgDocument.getElementById('ToolTipText');
	if( !tiptext )
	return;
	tiptext.firstChild.nodeValue = " " + strTooltip + "  " ;

	// show tooltip before, else some refresh issue

	var toolTip = svgDocument.getElementById('ToolTip');
	if(!toolTip)
	return;

	toolTip.setAttribute("visibility","visible");
	toolTip.setAttribute("opacity",".95");

	// move tooltip
	// get viewbox

	var root = svgDocument.documentElement;
	var vbox = (root.getAttribute("viewBox")).split(' ');
	var x0 = parseFloat(vbox[0]);
	var y0 = parseFloat(vbox[1]);
	var vboxW = parseFloat(vbox[2]);
	var vboxH = parseFloat(vbox[3]);

	// get default width of svg

	var strW = root.getAttribute("width");
	var svgW = parseFloat(strW);
	if(strW.indexOf('mm') != -1)
	svgW *= 3.779;

	var strH = root.getAttribute("height");
	var svgH = parseFloat(strH);
	if(strH.indexOf('mm') != -1)
	svgH *= 3.779;  	// 96 dpi  -> 96/25.4 = 3.779

	// update the viewbox / width / height if svg is embedded in html with zoom fit all
	var realx0 = x0;
	var realy0 = y0;
	var realvboxW = vboxW;
	var realvboxH = vboxH;
	var realsvgW = svgW;
	var realsvgH = svgH;

	if ((typeof(top) == "undefined") || (typeof(top.svgctl1) != "undefined")) // embedded in html
	{
		// get window size in pxl

		svgW = window.innerWidth;
		svgH = window.innerHeight;

		// calculate real viewbox

		realsvgW = svgW;
		realsvgH = svgH;
		if((svgW / svgH) > (vboxW / vboxH))
		{
			realvboxW = (vboxH * svgW) / svgH;
			realvboxH = vboxH;
			realx0 = x0 - (realvboxW - vboxW)/2 ;
		}
		else
		{
			realvboxH = (vboxW * svgH) / svgW;
			realvboxW = vboxW;
			realy0 = y0 - (realvboxH - vboxH)/2 ;
		}
	}

	// get user zoom/pan

	var newScale = root.currentScale;
	var translation = root.currentTranslate;

	// transform pxl to user unit

	var xPos = (((evt.clientX+10- translation.x)/newScale) * realvboxW)/realsvgW  + realx0 ;
	var yPos = (((evt.clientY+5- translation.y)/newScale) * realvboxH)/ realsvgH  + realy0 ;
	var scaleForWidth = ( (1 / newScale) * realvboxH) / realsvgH;

	// move tooltip

	toolTip.setAttribute("transform", "translate(" + xPos + "," + yPos + ")" );

	// resize tooltip

	var fontsize = 12;
	tiptext.setAttribute("font-size",fontsize*scaleForWidth);
	tiptext.setAttribute("y", fontsize*scaleForWidth);
	var tipBG = svgDocument.getElementById('ToolTipBG');
	var outline = tiptext.getBBox();
	if(tipBG)
	{
		tipBG.setAttribute("stroke-width", 1*scaleForWidth);
		tipBG.setAttribute("width", Number(outline.width) );
		tipBG.setAttribute("height", Number(outline.height) + fontsize*.5*scaleForWidth );
	}
	var ToolTipShadow = svgDocument.getElementById('ToolTipShadow');
	if(ToolTipShadow)
	{
		ToolTipShadow.setAttribute("width", Number(outline.width) );
		ToolTipShadow.setAttribute("height", Number(outline.height) + fontsize*.5*scaleForWidth );
		ToolTipShadow.setAttribute("x", 3*scaleForWidth);
		ToolTipShadow.setAttribute("y", 3*scaleForWidth);
	}
}
function ShowPaper()
{
  var svgDocument = getDocument();
  var paper = svgDocument.getElementById("paperID");
  if(paper)
  {
    paper.setAttribute("transform","scale(1)");
    paper.setAttribute("opacity","1");
    paper.setAttribute("visibility","visible");
  }
  var svg = svgDocument.getRootElement();
  if(svg)
  {
    svg.setAttribute("width","307.000mm");
    svg.setAttribute("height","220.000mm");
    svg.setAttribute("viewBox","-5.000000 -5.000000 307.000000 220.000000");
  }
}
]]></script><defs/><g><path style="fill:#ffffff" d="M296.92,209.99L0.08,209.99L0.08,0.08L296.92,0.08z"/><path style="fill:#807f01" d="M179.39,54.90L190.44,56.54L184.74,56.43L170.89,56.68L159.42,57.45L145.90,58.97L144.96,59.30L143.10,61.01L142.34,63.06L141.32,94.52L142.67,94.23L142.95,93.75L143.43,78.18L143.60,77.52L171.66,74.27L175.82,74.27L177.35,74.53L180.16,74.88L179.98,58.17L184.49,58.21L192.64,59.49L192.92,60.26L191.29,77.66L191.61,77.86L192.48,78.72L193.27,79.81L193.70,80.87L194.94,83.45L195.96,86.51L196.48,90.16L191.54,91.11L191.62,100.10L191.11,103.16L190.02,106.66L189.25,108.18L161.96,113.88L162.76,111.00L185.23,106.20L185.51,105.46L186.25,88.10L186.75,87.32L190.06,86.75L190.11,86.50L188.99,86.51L165.80,90.08L161.97,90.86L162.05,91.87L162.56,94.16L162.49,95.70L156.18,96.78L155.42,103.42L154.15,108.77L151.60,115.40L149.81,118.46L148.73,119.41L147.51,119.41L145.75,118.37L145.31,118.29L144.49,117.58L142.94,116.57L142.50,116.50L142.40,116.33L142.17,113.28L142.17,109.80L143.11,108.69L143.70,107.50L144.21,105.46L144.47,102.07L144.24,99.22L143.97,98.95L142.59,99.27L142.68,105.45L142.15,107.50L141.68,100.00L141.38,99.49L140.80,99.50L140.89,100.27L141.59,120.78L142.16,120.78L142.30,118.54L144.45,118.19L144.55,118.10L145.31,118.29L145.50,118.61L147.81,120.13L149.80,120.94L152.03,120.93L189.07,112.84L190.63,112.11L193.43,109.73L193.94,109.65L194.17,110.49L194.96,111.73L200.83,116.82L202.33,118.63L203.61,121.68L204.69,127.98L203.78,128.06L166.57,138.01L152.37,141.92L152.00,142.54L151.62,142.62L145.75,135.70L143.72,133.39L131.88,121.42L134.53,116.18L134.54,111.22L132.72,108.70L131.19,104.12L130.44,100.53L130.18,98.49L130.19,90.42L131.19,85.05L132.23,82.01L131.46,65.61L131.45,59.56L132.62,57.67L133.67,56.93L141.32,55.92L154.32,54.90L160.19,54.64L175.56,54.64z"/><path style="fill:#737200" d="M144.24,99.22L144.47,102.07L144.21,105.46L143.70,107.50L143.11,108.69L142.17,109.80L142.17,113.28L142.40,116.33L142.50,116.50L142.35,116.59L142.30,118.54L142.16,120.78L141.59,120.78L140.89,100.27L140.80,99.50L141.38,99.49L141.68,100.00L142.15,107.50L142.68,105.45L142.59,99.27L143.97,98.95z"/><path style="fill:#ffffff" d="M142.69,116.82L144.55,118.10L144.45,118.19L142.30,118.54L142.35,116.59L142.50,116.50z"/><path style="fill:#5f5f5f" d="M177.10,165.79L177.46,166.96L176.72,167.32L177.25,167.34L177.46,166.96L177.88,167.00L177.78,171.74L179.14,172.42L179.91,173.43L179.95,174.65L178.92,175.35L177.57,175.79L177.17,176.35L176.24,176.52L174.53,176.26L172.75,175.50L171.74,174.45L171.73,173.52L172.12,172.37L174.02,171.47L174.32,170.98L174.31,170.23L174.53,169.86L174.54,166.16L176.11,163.91z"/><path style="fill:#5f5f5f" d="M150.57,175.25L151.11,175.66L151.26,180.41L152.63,181.09L153.43,182.08L153.69,182.78L153.44,183.84L152.11,184.74L150.74,185.16L150.17,185.81L148.03,185.68L146.77,185.41L145.50,184.64L144.96,183.65L144.96,182.18L145.41,181.36L147.49,180.09L147.50,175.05L148.94,172.92L149.08,172.82z"/><path style="fill:#737200" d="M172.65,54.90L174.32,54.94L174.35,55.19z"/><path style="fill:#737200" d="M155.82,55.71L155.82,55.44L156.88,55.15L161.04,55.14L161.04,56.27L157.97,56.17L156.42,55.94z"/><path style="fill:#737200" d="M190.44,56.54L192.15,56.67L192.65,56.93L193.67,57.95L194.18,59.75L193.33,68.41L192.48,78.72L191.61,77.86L191.29,77.66L192.92,60.26L192.64,59.49L184.49,58.21L179.98,58.17L167.07,58.72L155.09,59.74L145.65,61.01L144.88,61.52L143.86,63.56L143.60,77.52L143.43,78.18L142.95,93.75L142.67,94.23L141.32,94.52L142.34,63.06L143.10,61.01L144.96,59.30L145.90,58.97L159.42,57.45L170.89,56.68L184.74,56.43z"/><path style="fill:#737200" d="M143.62,56.44L144.38,56.17L146.01,56.16L146.00,57.04L144.18,56.70z"/><path style="fill:#737200" d="M195.71,83.70L197.49,88.04L198.51,93.14L198.51,97.81L198.01,100.87L197.22,103.15L195.96,105.97L194.45,108.28L193.94,109.65L193.43,109.73L190.63,112.11L189.07,112.84L152.03,120.93L149.80,120.94L147.81,120.13L145.50,118.61L145.31,118.29L145.75,118.37L147.51,119.41L148.73,119.41L149.81,118.46L151.60,115.40L154.15,108.77L155.42,103.42L156.18,96.78L162.49,95.70L162.56,94.16L162.05,91.87L161.97,90.86L165.80,90.08L188.99,86.51L190.11,86.50L190.06,86.75L186.75,87.32L186.25,88.10L185.51,105.46L185.23,106.20L162.76,111.00L161.96,113.88L189.25,108.18L190.02,106.66L191.11,103.16L191.62,100.10L191.54,91.11L196.48,90.16L195.96,86.51L194.94,83.45L193.70,80.87L193.27,79.81L193.42,79.86z"/><path style="fill:#737200" d="M135.80,91.56L135.54,92.71L134.16,92.70L134.24,91.93L134.91,91.10z"/><path style="fill:#737200" d="M133.37,91.82L132.98,92.99L132.39,92.98L132.46,92.19L133.15,91.35L134.00,91.07z"/><path style="fill:#737200" d="M132.21,101.16L131.65,101.16L131.65,99.99L132.21,99.99z"/><path style="fill:#737200" d="M134.19,101.81L135.58,101.16L136.57,99.76L136.57,101.39L135.97,102.32L134.76,102.33z"/><path style="fill:#737200" d="M144.49,117.58L145.31,118.29L144.55,118.10L142.69,116.82L142.50,116.50L142.94,116.57z"/><path style="fill:#737200" d="M204.64,128.40L152.00,142.54L152.37,141.92L166.57,138.01L203.78,128.06L204.69,127.98z"/><path style="fill:#555555" d="M177.87,166.06L177.88,167.00L177.46,166.96L177.10,165.79L176.11,163.91L176.35,163.72z"/><path style="fill:#555555" d="M177.25,167.34L176.72,167.32L177.46,166.96z"/><path style="fill:#555555" d="M177.30,168.35L176.72,168.42L176.74,168.10L177.34,168.05z"/><path style="fill:#555555" d="M177.44,168.99L176.83,169.46L176.74,169.15L177.41,168.88z"/><path style="fill:#555555" d="M176.52,170.11L177.07,170.11L177.05,170.38L176.55,170.38z"/><path style="fill:#555555" d="M175.20,171.15L177.10,171.13L176.80,171.43z"/><path style="fill:#555555" d="M175.46,172.17L177.15,171.95L176.78,172.46z"/><path style="fill:#555555" d="M151.11,174.70L151.11,175.66L150.57,175.25L149.08,172.82L149.23,172.39L149.56,172.36z"/><path style="fill:#555555" d="M177.03,173.18L176.47,173.18L176.75,172.90L177.09,172.90z"/><path style="fill:#555555" d="M177.55,173.95L176.76,173.98L177.64,173.45z"/><path style="fill:#555555" d="M148.69,175.99L150.33,175.98L150.03,176.27z"/><path style="fill:#555555" d="M179.92,175.06L178.78,175.98L177.17,176.35L177.57,175.79L178.92,175.35L179.95,174.65z"/><path style="fill:#555555" d="M149.47,176.99L150.33,176.99L150.28,177.26L149.52,177.26z"/><path style="fill:#555555" d="M150.27,178.29L149.70,178.37L149.72,178.04L150.32,177.99z"/><path style="fill:#555555" d="M150.26,179.35L149.71,179.31L150.63,178.83z"/><path style="fill:#555555" d="M150.26,180.37L149.71,180.33L150.63,179.85z"/><path style="fill:#555555" d="M150.26,181.39L149.71,181.35L150.63,180.87z"/><path style="fill:#555555" d="M150.26,182.41L149.71,182.37L150.63,181.89z"/><path style="fill:#555555" d="M151.03,183.14L149.98,183.14L151.12,182.38z"/><path style="fill:#555555" d="M153.40,184.24L152.01,185.41L150.17,185.81L150.74,185.16L152.11,184.74L153.44,183.84z"/><path style="fill:#ffffff" d="M180.16,74.88L177.35,74.53L175.82,74.27L171.66,74.27L143.60,77.52L143.86,63.56L144.88,61.52L145.65,61.01L155.09,59.74L167.07,58.72L179.98,58.17z"/><g id="Actor_.0"><g style="stroke:#000000;stroke-width:0.018"><path d="M131.22,61.29L142.24,63.82L142.40,62.62L142.82,61.47L143.47,60.45L144.29,59.62L145.31,59.02L146.27,58.76L146.36,60.68"/><path d="M137.73,108.06L137.18,107.86L136.41,107.34L135.33,106.12L134.37,104.45L133.72,102.77"/><path d="M135.64,91.26L134.38,91.44L134.30,91.55L134.19,91.85L134.15,92.44L134.26,93.07L134.41,93.43L134.83,93.92L135.31,94.20L135.79,94.25L136.57,94.12L137.15,94.30L137.44,94.48L138.28,95.40L138.77,96.26L139.11,97.09"/><path d="M134.38,91.44L134.95,90.94"/><path d="M134.70,93.80L136.23,93.58"/><path d="M134.63,93.73L136.16,93.51"/><path d="M141.99,107.86L142.28,107.02L142.61,105.57L142.81,103.97L142.85,102.25L142.75,100.46L142.50,98.65L142.12,96.87L141.60,95.18L141.00,93.67L139.99,91.80L139.22,90.75L138.39,89.89L137.54,89.28L136.71,88.94L135.92,88.85L135.11,89.02"/><path d="M178.37,54.63L191.60,56.48L186.04,56.32L180.30,56.30L174.36,56.42L170.30,56.58L164.03,56.96L157.55,57.49L151.28,58.15L146.27,58.76L134.70,56.53"/><path d="M136.29,94.12L137.03,94.01"/><path d="M142.88,94.14L141.30,94.37L142.24,63.82L143.88,63.69"/><path d="M144.88,56.70L144.86,55.99L144.00,56.08L143.52,56.22L143.58,56.31L144.11,56.50L145.58,56.85L147.18,57.10L149.62,57.38L151.17,57.37L152.68,57.19L152.67,56.82L153.31,56.97L153.18,57.09L152.68,57.19"/><path d="M144.86,55.99L146.91,55.90L148.07,56.00L148.14,57.22"/><path d="M145.99,56.92L145.97,55.92"/><path d="M148.12,56.02L149.88,56.46L152.67,56.82"/><path d="M155.67,55.37L155.70,55.52L155.99,55.68L157.38,55.96L159.61,56.18L162.14,56.30L165.53,56.33L168.50,56.24L170.57,56.05L171.14,55.92L171.33,55.79L171.23,55.67L170.78,55.51L168.95,55.22L166.46,54.99L163.32,54.83L160.54,54.80L158.13,54.89L156.43,55.09L155.92,55.22L155.67,55.37"/><path d="M169.77,56.15L169.82,55.33"/><path d="M172.57,54.77L172.88,54.88L172.88,54.79L172.81,54.75L172.57,54.77"/><path d="M172.89,54.75L173.53,54.74L173.55,54.96L172.88,54.88"/><path d="M173.57,54.74L175.30,54.81L177.25,55.01L180.97,55.53L182.59,55.87L182.48,55.81"/><path d="M173.55,54.96L175.99,55.26L176.05,54.88"/><path d="M182.48,55.88L178.98,55.75L176.02,55.27"/><path d="M180.02,58.55L192.85,60.59L192.82,59.68L192.62,59.06L192.17,58.49L191.67,58.25L185.87,58.08L179.98,58.08"/><path d="M194.13,60.48L192.85,60.59L191.23,77.44"/><path d="M191.40,58.21L191.60,56.48L191.79,56.50"/></g><g style="stroke:#000000;stroke-width:0.123"><path d="M192.37,78.43L194.16,60.00L194.06,58.97L193.68,57.88L193.03,57.06L192.36,56.65L191.79,56.50L178.57,54.65L172.94,54.45L167.35,54.40L159.65,54.53L151.65,54.93L143.34,55.59L134.52,56.56L133.98,56.70L133.29,57.03L132.67,57.51L132.31,57.89L131.85,58.57L131.60,59.07L131.35,59.87L131.22,60.72L132.63,89.70"/><path d="M132.22,100.72L132.35,101.44"/><path d="M135.82,91.37L135.69,91.82L135.70,92.44L135.86,93.04L136.09,93.44L136.61,93.86L137.03,94.01L137.87,93.90"/><path d="M138.32,107.37L137.93,107.07L137.19,106.32L136.26,104.92"/><path d="M179.98,58.08L174.27,58.23L168.17,58.52L161.87,58.98L155.36,59.59L146.17,60.71L145.27,61.11L144.52,61.85L144.03,62.83L143.88,63.69L142.88,94.14L143.69,96.63L144.08,98.40L144.40,101.10L144.38,103.70L144.13,105.56L143.63,107.39L143.38,107.99L142.80,109.01L142.04,109.84"/><path d="M179.98,58.08L180.16,74.86"/></g></g><g id="Actor_.1"><g style="stroke:#000000;stroke-width:0.018"><path d="M132.31,99.92L131.91,99.68L131.63,99.86L131.47,100.34L131.49,101.11L132.13,103.43L132.66,104.74L133.28,105.91L134.33,107.30L134.86,107.78L135.45,108.17L135.84,108.33L136.55,108.46L137.28,108.31"/><path d="M131.52,101.26L132.28,101.14"/><path d="M134.42,90.84L133.57,90.97L132.91,91.39L132.56,91.76L132.42,92.15L132.39,92.75L132.50,93.33L132.67,93.73L133.17,94.26L133.65,94.49L133.89,94.52L134.79,94.38L135.36,94.56L135.65,94.75L136.22,95.31L136.74,96.08L137.69,98.32L138.07,98.94L138.87,99.71L139.16,99.65L139.35,99.35"/><path d="M132.86,93.99L133.64,93.87"/><path d="M132.94,94.06L133.71,93.95"/><path d="M132.61,91.69L133.38,91.58"/><path d="M133.95,89.14L134.80,89.19L135.67,89.53L136.54,90.14L137.39,91.02L138.59,92.79L139.29,94.23L139.90,95.84L140.56,98.30L140.84,99.95L141.01,101.61L141.53,119.80L141.77,121.40L142.19,122.50L142.73,123.33L143.49,123.19L143.66,123.33L148.07,128.30L147.28,128.49L148.01,129.44L148.70,130.56L149.31,131.83L150.04,133.83L150.53,135.89L151.73,142.52L152.31,141.16L151.32,135.69L150.53,135.89"/><path d="M136.11,104.94L136.67,104.85"/><path d="M136.39,104.89L136.60,104.85"/><path d="M137.39,97.56L138.17,97.44"/><path d="M138.66,99.57L139.30,99.47"/><path d="M138.39,99.32L139.18,99.19"/><path d="M141.05,102.42L141.84,102.29"/><path d="M141.53,119.80L142.31,119.63L142.45,120.83L142.67,121.62L142.97,122.33L143.53,123.19"/><path d="M142.31,119.63L142.28,118.50"/><path d="M142.75,123.36L147.28,128.49"/><path d="M148.07,128.30L149.16,129.79L150.17,131.78L196.19,120.65L204.03,127.39L203.16,122.59L203.77,122.43"/><path d="M151.32,135.69L150.83,133.63L150.19,131.82"/><path d="M151.73,142.52L152.67,141.58L152.31,141.16"/><path d="M152.67,141.58L204.43,127.73L204.82,128.23"/><path d="M196.19,120.65L185.95,113.42"/><path d="M195.20,111.87L194.60,112.00L194.17,111.55L193.66,110.66L193.37,109.53"/><path d="M194.60,112.00L199.73,116.25L200.85,117.40L201.84,118.87L202.39,120.00L202.85,121.30L203.16,122.59"/><path d="M199.73,116.25L200.33,116.11"/><path d="M204.03,127.39L204.43,127.73"/></g><g style="stroke:#000000;stroke-width:0.123"><path d="M142.28,118.50L141.80,101.47L141.51,98.99L140.96,96.56L140.41,94.90L139.75,93.37L138.60,91.44L137.76,90.44L137.33,90.03L136.45,89.42L135.58,89.08L134.73,89.03L133.55,89.22L132.78,89.58L132.42,89.86L131.78,90.60L131.23,91.57L130.61,93.41L130.35,94.83L130.21,96.37L130.20,98.00L130.32,99.67L130.73,102.19L131.15,103.82L131.67,105.36L132.29,106.79L133.36,108.62L134.35,109.89L134.64,110.90L134.69,114.54L134.52,115.91L134.26,116.62L131.81,121.39L144.45,133.94L151.73,142.52L204.82,128.23L203.64,121.79L203.26,120.51L202.45,118.73L201.80,117.70L200.72,116.45L194.98,111.66L194.58,111.15L194.26,110.53L194.05,109.84L193.94,108.86"/><path d="M132.28,101.14L132.89,103.30L133.42,104.61L134.04,105.77L134.73,106.75L135.71,107.70L136.61,108.19L137.28,108.31L137.87,107.96L138.24,107.59L138.38,106.96L138.26,106.17L137.98,105.61L137.51,105.16L137.01,104.89L136.67,104.85L136.11,104.94L135.54,104.85L134.95,104.50L134.67,104.23L133.88,103.11L132.96,100.84L132.31,99.92L132.21,100.42L132.28,101.14"/><path d="M133.44,93.62L133.19,92.85L133.19,92.04L133.38,91.58L134.01,91.04L134.42,90.84L135.06,90.97L135.45,91.14L136.22,91.70L137.34,93.01L138.00,94.14L138.56,95.40L139.03,96.78L139.39,98.26L139.44,98.89L139.35,99.35L138.66,98.52L137.53,95.96L136.72,94.88L136.44,94.63L135.86,94.32L135.29,94.27L134.51,94.39L134.19,94.29L133.71,93.95L133.44,93.62"/><path d="M142.28,118.50L144.76,117.98"/></g></g><g id="Actor_.2"><g style="stroke:#000000;stroke-width:0.018"><path d="M134.47,102.05L134.23,101.88L134.03,101.65L133.88,101.38L133.79,101.07L133.76,100.74L133.68,100.69L133.60,100.61L133.53,100.50L133.46,100.38L133.41,100.23L133.37,100.08L133.33,99.92L133.32,99.75L133.32,99.60L133.33,99.45L133.36,99.31L133.40,99.20L133.45,99.11L133.51,99.04L133.58,99.01L133.65,99.00L133.73,99.02L133.76,98.68L133.84,98.34L133.99,98.02L134.18,97.73L134.41,97.48L134.68,97.28L134.97,97.14L135.28,97.05"/><path d="M133.76,100.74L133.84,100.77L133.92,100.76L133.99,100.71L134.06,100.64L134.11,100.54L134.15,100.41L134.17,100.26L134.18,100.09L134.17,99.92L134.14,99.75L134.10,99.58L134.04,99.42L133.98,99.28L133.90,99.17L133.82,99.08L133.73,99.02"/><path d="M134.88,97.00L135.07,96.99L135.28,97.05L135.48,97.18L135.68,97.37L135.88,97.61L136.05,97.91L136.21,98.25L136.35,98.62L136.46,99.02L136.55,99.43L136.60,99.85L136.62,100.26L136.61,100.66L136.56,101.03L136.49,101.36L136.38,101.66L136.25,101.90L136.10,102.08L135.92,102.21L135.74,102.27"/></g><g style="stroke:#000000;stroke-width:0.123"><path d="M134.88,96.99L134.58,97.08L134.40,97.14L134.13,97.29L133.96,97.41L133.74,97.60L133.61,97.77L133.45,97.99L133.35,98.19L133.26,98.42L133.19,98.63L133.14,98.87L133.11,99.12L133.10,99.40L133.12,99.74L133.15,99.98L133.20,100.22L133.29,100.54L133.39,100.80L133.50,101.04L133.62,101.25L133.75,101.42L133.91,101.62L134.07,101.77L134.29,101.93L134.47,102.05L134.74,102.16L134.93,102.23L135.23,102.28L135.43,102.28L135.74,102.26"/></g></g><g id="Actor_.3"><g style="stroke:#000000;stroke-width:0.018"><path d="M131.70,83.26L131.76,83.69L132.08,84.18L131.54,86.05L130.96,88.67L130.59,91.32L130.42,94.38"/><path d="M130.70,87.04L130.54,87.81"/><path d="M132.00,106.65L132.25,106.68"/><path d="M132.08,84.18L132.32,83.53"/><path d="M132.65,107.47L133.07,108.37L133.51,109.12L134.00,109.77L134.51,110.26"/><path d="M142.19,115.19L146.49,117.94L146.79,118.80L147.01,119.17L147.59,119.78L147.94,120.01"/><path d="M143.22,83.74L147.04,84.67L147.55,85.08L147.78,85.38L148.14,86.15L148.30,86.67L148.99,90.15L149.47,93.91L149.82,99.15L149.90,103.96L149.75,108.45L149.37,112.50L149.07,114.26L148.71,115.81L148.00,117.69L148.64,118.51L149.03,118.87L149.45,119.19L150.39,119.70L151.40,119.99L151.92,120.06L152.43,120.07L153.42,119.91L152.92,120.43L152.31,120.74"/><path d="M143.37,79.17L150.43,80.68L149.52,80.92L149.08,81.14L148.66,81.41L147.91,82.12L147.31,83.01L146.89,84.03L146.75,84.57"/><path d="M143.43,77.41L174.08,73.97L187.57,76.15L188.35,76.18"/><path d="M146.49,117.94L146.77,118.10L147.28,118.21L147.70,118.07L148.00,117.69"/><path d="M148.31,86.67L149.38,85.82L150.80,85.14L152.39,84.71L153.94,84.60L154.90,88.21L155.63,92.10L156.12,96.17L156.39,100.30L156.45,104.40L156.29,108.29L155.93,111.84L155.60,113.82L155.18,115.66L154.40,118.04L153.78,119.33L153.42,119.91L190.67,111.85L191.20,111.58"/><path d="M193.28,79.51L193.01,79.38L192.55,79.40L191.94,79.57L153.94,84.60L153.21,83.03L152.50,82.03L151.71,81.28L150.87,80.81L150.43,80.68L187.57,76.15L188.53,76.42L189.00,76.65L189.95,77.28L191.20,78.53L192.58,80.55L194.30,83.66L195.25,85.87L195.66,87.00L196.34,89.30L196.83,91.64L197.12,94.12L197.18,96.58L197.00,98.98L196.60,101.31L195.99,103.50L195.18,105.53L194.71,106.49L193.64,108.29L193.05,109.11L191.76,110.62L190.16,112.08L189.31,112.60L188.87,112.77"/><path d="M151.96,120.82L151.93,120.82"/><path d="M161.81,113.75L162.02,113.29L189.02,107.66L185.85,106.42L185.32,106.00L162.75,110.59L163.15,108.51L163.45,106.09L163.58,103.54L163.55,100.91L163.21,96.99L162.80,94.37L162.00,90.87L161.69,90.51L162.33,93.09L162.82,95.72L163.28,99.69L163.39,102.33L163.34,104.94L162.95,108.65L162.23,112.02L161.50,114.19L161.81,113.75L161.79,113.80"/><path d="M161.50,114.19L189.56,108.28L189.02,107.66"/><path d="M161.97,113.30L162.32,112.22L162.12,112.88"/><path d="M162.32,112.22L162.42,111.88"/><path d="M161.69,90.51L190.36,86.06L191.05,88.73L191.52,91.24L191.81,93.77L191.91,97.54L191.75,99.97L191.22,103.33L190.66,105.44L190.33,106.43L189.56,108.28"/><path d="M185.32,106.00L186.15,87.26L162.04,91.03"/><path d="M189.14,107.75L190.14,105.05L190.64,103.08L191.13,99.91L191.28,97.51L191.18,93.82L190.90,91.33L190.45,88.89L189.89,86.70L189.83,86.68L186.76,87.16L185.90,106.44L162.60,111.22L162.40,111.94"/><path d="M162.60,111.22L162.75,110.59"/><path d="M173.70,73.93L174.46,73.95"/><path d="M186.76,87.16L186.15,87.26"/><path d="M189.88,86.67L190.13,86.44L190.36,86.06"/></g><g style="stroke:#000000;stroke-width:0.123"><path d="M130.31,99.52L130.01,96.73L129.93,93.46L130.11,90.69L130.54,87.81"/><path d="M132.24,81.90L131.94,82.58L131.43,84.10L130.82,86.43L130.51,87.95"/><path d="M130.82,86.43L130.79,86.58"/><path d="M131.32,104.34L132.00,106.65L132.56,108.07L133.58,109.90L134.65,111.24"/><path d="M142.22,116.35L148.27,120.20L149.01,120.54L149.80,120.78L150.63,120.90L151.47,120.89L189.21,112.67L190.40,112.13L191.01,111.72L192.83,110.10L194.14,108.62L194.75,107.81L195.99,105.83L196.96,103.78L197.68,101.72L198.17,99.70L198.34,98.67L198.56,96.41L198.59,95.35L198.49,93.19L198.22,91.11L197.99,89.90L197.39,87.67L196.15,84.46L195.13,82.43L194.52,81.38L193.01,79.15L192.18,78.22L191.43,77.58L190.77,77.12L189.60,76.53L188.35,76.18L174.08,73.92L173.32,73.95L143.43,77.30"/></g></g><g id="Actor_.4"><g style="stroke:#000000;stroke-width:0.018"><path d="M171.63,173.97L172.50,175.11L174.30,175.94L176.54,176.22L178.59,175.87L179.88,174.98"/><path d="M180.10,173.46L179.90,174.62L178.60,175.50L176.55,175.86L174.32,175.58L172.52,174.75L171.64,173.61L171.71,173.47L171.87,173.41L172.12,172.33L173.36,171.53L174.24,171.38"/><path d="M171.87,173.41L172.70,174.49L174.41,175.28L176.53,175.54L178.47,175.20L179.70,174.37L179.89,173.27L179.02,172.21L177.72,171.64L177.73,171.67L177.52,171.52L177.61,171.42"/><path d="M177.68,173.09L177.69,173.04L177.49,173.38L177.11,173.66L176.62,173.84L176.17,173.92L175.68,173.93L175.20,173.88L174.80,173.77L174.49,173.63L174.31,173.50L174.11,173.26L174.05,173.13L174.02,173.09L173.96,173.18L173.94,173.23L174.05,172.87L174.29,172.64L174.39,172.59L174.09,172.74L173.89,173.38L174.45,174.01L175.56,174.38L176.81,174.36L176.87,174.34L177.69,173.95L177.88,173.31L177.68,173.09L177.44,173.74L176.48,174.09L175.24,174.00L174.49,173.63L174.81,173.21L175.15,173.34L175.58,173.41L176.04,173.41L176.49,173.33L176.88,173.17L177.16,172.94L177.31,172.67L177.31,172.63L177.04,172.78L176.62,172.92L176.15,172.99L175.69,173.00L175.21,172.94L174.79,172.82L174.48,172.66L174.53,172.69L174.53,172.93L174.53,172.69"/><path d="M174.10,173.24L174.02,173.33L173.89,173.38"/><path d="M174.16,172.25L174.16,172.00L174.15,172.28L174.15,172.30L174.16,172.25L174.30,172.47L174.54,172.65L174.85,172.79L175.25,172.90L175.73,172.95L176.22,172.94L176.67,172.86L177.16,172.68L177.54,172.40L177.74,172.05L177.74,171.70L177.75,172.06L177.62,172.34L177.47,172.49L177.69,172.65L177.56,172.41"/><path d="M174.15,172.30L174.27,172.49L174.48,172.66"/><path d="M174.16,172.28L174.57,171.95L174.58,171.71L174.85,171.88L174.86,172.22L175.20,172.36L175.63,172.43L176.09,172.43L176.54,172.34L176.93,172.18L177.21,171.96L177.36,171.69L177.36,171.64L177.23,171.73L176.84,171.88L176.38,171.98L175.92,172.01L175.43,171.98L174.99,171.88L174.52,171.67L174.58,171.71"/><path d="M177.04,172.78L176.47,173.00L176.02,173.08L175.56,173.08L175.14,173.00L174.81,172.86L174.81,173.21L174.63,173.08L174.53,172.93L174.11,173.26"/><path d="M174.54,172.65L174.86,172.22L174.68,172.09L174.57,171.95L174.58,171.71"/><path d="M174.02,172.97L174.23,172.77L174.48,172.66"/><path d="M174.81,172.86L174.54,172.70"/><path d="M173.96,173.16L173.96,173.14"/><path d="M173.94,173.22L173.94,173.23"/><path d="M174.05,172.87L174.04,172.90"/><path d="M174.16,172.00L174.36,171.77L174.54,171.68"/><path d="M174.59,171.66L174.35,171.49L174.21,171.29L174.62,170.97L174.62,170.72L174.62,170.97L174.72,171.11L174.90,171.24L174.59,171.66L174.89,171.80L175.30,171.91L175.77,171.96L176.27,171.95L176.72,171.87L177.21,171.69L177.59,171.41L177.79,171.07L177.79,170.72"/><path d="M174.21,171.29L174.20,171.02"/><path d="M174.20,171.27L174.20,171.32"/><path d="M174.52,171.67L174.31,171.50L174.22,171.36"/><path d="M177.84,169.74L177.84,170.08L177.64,170.42L177.26,170.70L176.77,170.88L176.32,170.96L175.82,170.97L175.34,170.92L174.94,170.81L174.63,170.68L174.39,170.50L174.25,170.31L174.67,169.98L174.67,169.73L174.67,169.98L174.77,170.12L174.95,170.25L174.94,169.91L175.28,170.04L175.70,170.12L176.16,170.12L176.62,170.04L177.19,169.81L176.76,169.95L176.30,170.02L175.83,170.03L175.35,169.97L174.93,169.85L174.61,169.70"/><path d="M174.63,170.68L174.95,170.25L175.29,170.38L175.72,170.45L176.18,170.45L176.64,170.37L177.02,170.21L177.31,169.98L177.45,169.72L177.46,169.66L177.19,169.81"/><path d="M174.25,170.31L174.25,170.29L174.24,170.33"/><path d="M174.57,170.69L174.89,170.84L175.31,170.96L175.78,171.02L176.25,171.01L176.72,170.94L177.14,170.80L176.57,171.03L176.12,171.11L175.65,171.11L175.23,171.03L174.90,170.90L174.90,171.24L175.25,171.37L175.67,171.44L176.14,171.44L176.59,171.35L176.97,171.20L177.26,170.97L177.40,170.70L177.41,170.65L177.14,170.80"/><path d="M174.25,170.04L174.25,170.29"/><path d="M174.63,170.73L174.90,170.90"/><path d="M174.62,170.72L174.59,170.70"/><path d="M174.66,168.71L174.98,168.86L175.40,168.98L175.88,169.03L176.35,169.03L176.81,168.95L177.23,168.82L176.67,169.05L176.21,169.13L175.75,169.13L175.33,169.05L174.99,168.92L175.00,169.26L174.81,169.14L174.71,169.00L174.30,169.32L174.44,169.51L174.68,169.69L175.00,169.26L175.34,169.39L175.77,169.46L176.23,169.46L176.68,169.37L177.07,169.22L177.35,168.99L177.50,168.73"/><path d="M174.30,169.32L174.29,169.30L174.29,169.35"/><path d="M174.29,169.30L174.29,169.06"/><path d="M177.94,167.76L177.94,168.10L177.74,168.44L177.36,168.72L176.87,168.89L176.41,168.97L175.92,168.99L175.44,168.94L175.03,168.83L174.72,168.70L174.48,168.52L174.34,168.33L174.76,168.01L174.86,168.15L175.04,168.27L175.03,167.93L175.37,168.06L175.80,168.13L176.26,168.13L176.71,168.06L177.28,167.82L176.87,167.96L176.39,168.03L175.92,168.04L175.45,167.98L175.02,167.87L174.70,167.71"/><path d="M174.34,168.33L174.34,168.07"/><path d="M174.34,168.31L174.33,168.36"/><path d="M174.38,167.37L174.38,167.08"/><path d="M174.38,167.32L174.53,167.53L174.77,167.70L175.09,167.28L175.43,167.40L175.86,167.47L176.33,167.47L176.78,167.38L177.17,167.23L177.45,167.01L177.60,166.74L177.60,166.65L177.57,166.68L177.27,166.85L176.88,166.98L176.43,167.05L176.01,167.05L175.57,167.00L175.16,166.90L174.84,166.77L174.55,166.51L174.44,166.35L174.85,166.02L174.85,165.76"/><path d="M174.39,167.34L174.80,167.02L174.81,166.75L174.80,167.02L174.91,167.15L175.09,167.28L175.08,166.93L175.42,167.06L175.84,167.13L176.31,167.14L176.76,167.06L177.27,166.85"/><path d="M174.44,166.35L174.43,166.09"/><path d="M174.55,166.51L174.86,166.65L175.22,166.73L175.65,166.76L176.09,166.73L176.50,166.64L177.00,166.43L177.35,166.15L177.11,166.28L176.83,166.39L176.38,166.47L175.91,166.47L175.48,166.41L175.13,166.28L175.13,165.98L174.93,165.78L174.86,165.69L174.85,166.02L174.95,166.16L175.13,166.28L174.86,166.65"/><path d="M174.43,166.33L174.42,166.38"/><path d="M174.65,176.09L176.52,176.32L177.20,176.21"/><path d="M177.23,171.73L176.52,172.02L176.07,172.10L175.61,172.09L175.19,172.02L174.85,171.88"/><path d="M174.99,168.92L174.72,168.75L174.71,169.00L174.72,168.75"/><path d="M174.94,169.91L174.67,169.74"/><path d="M174.68,169.69L174.99,169.82L175.39,169.93L175.87,169.98L176.37,169.97L176.82,169.89L177.31,169.71L177.69,169.43L177.89,169.10L177.89,168.75"/><path d="M174.67,169.73L174.64,169.72"/><path d="M174.72,168.70L175.04,168.27L175.39,168.40L175.81,168.47L176.28,168.46L176.73,168.38L177.12,168.22L177.40,168.00L177.55,167.74L177.55,167.67L177.28,167.82"/><path d="M174.76,167.75L174.76,168.01L174.76,167.75L175.03,167.93"/><path d="M174.77,167.70L175.08,167.84L175.48,167.94L175.96,167.99L176.46,167.98L176.91,167.90L177.41,167.72L177.79,167.45L177.99,167.11L177.99,166.77"/><path d="M174.71,168.74L174.69,168.73"/><path d="M174.75,166.72L175.42,167.06"/><path d="M175.08,166.93L174.81,166.76"/><path d="M174.81,166.75L174.80,166.75"/><path d="M174.76,167.75L174.75,167.74"/><path d="M175.13,165.98L175.79,166.27L176.61,166.34L177.02,166.27L177.35,166.15"/><path d="M174.85,165.67L176.36,163.45L177.85,165.96"/><path d="M174.86,165.68L174.86,165.69"/><path d="M177.88,173.31L177.73,173.25L177.67,173.12"/><path d="M177.47,172.49L177.37,172.59L177.31,172.63"/><path d="M177.69,173.04L177.69,172.65"/><path d="M176.87,172.85L176.87,172.85"/><path d="M177.72,171.64L177.69,171.59"/><path d="M177.73,171.67L177.74,171.70"/><path d="M177.52,171.52L177.51,171.54L177.59,171.41"/><path d="M177.36,171.64L177.51,171.54"/><path d="M177.76,170.63L177.63,170.46L177.56,170.53L177.78,170.69"/><path d="M177.63,170.46L177.63,170.46"/><path d="M177.56,170.53L177.47,170.62L177.41,170.65"/><path d="M177.83,169.70L177.61,169.54L177.52,169.63L177.46,169.66"/><path d="M177.61,169.54L177.70,169.45"/><path d="M177.23,168.82L177.50,168.67L177.50,168.72"/><path d="M177.88,168.72L177.65,168.55L177.57,168.63L177.50,168.67"/><path d="M177.65,168.55L177.75,168.46"/><path d="M177.93,167.73L177.70,167.56L177.62,167.64L177.55,167.67"/><path d="M177.70,167.56L177.80,167.47"/><path d="M177.98,166.74L177.71,166.54L177.79,166.47L177.80,166.43"/><path d="M177.60,166.65L177.71,166.54"/><path d="M179.89,173.27L180.04,173.33"/></g><g style="stroke:#000000;stroke-width:0.123"><path d="M174.22,171.36L173.26,171.52L171.97,172.35L171.91,172.47L171.64,173.61L171.63,173.97L171.68,174.11L172.55,175.23L174.32,176.05L174.64,176.09L175.00,176.26L176.14,176.40L176.60,176.33L177.20,176.21L178.54,175.98L179.81,175.11L179.88,174.98L180.08,173.82L180.10,173.46L180.05,173.33L179.13,172.22L177.69,171.59"/><path d="M174.22,171.36L174.19,171.30L174.20,171.02L174.40,170.79L174.59,170.70L174.36,170.52L174.24,170.33L174.24,170.11L174.25,170.04L174.45,169.81L174.64,169.72L174.40,169.53L174.29,169.35L174.28,169.13L174.29,169.06L174.49,168.83L174.69,168.73L174.45,168.54L174.33,168.36L174.33,168.14L174.34,168.07L174.54,167.84L174.75,167.74L174.49,167.55L174.38,167.37L174.37,167.15L174.38,167.08L174.59,166.85L174.80,166.75L174.54,166.55L174.42,166.38L174.42,166.16L174.43,166.09L174.63,165.87L174.85,165.76L174.86,165.68L174.82,165.51L174.90,165.35L176.36,163.45L177.85,165.96L177.88,166.22L177.80,166.43L177.84,166.47L177.99,166.77L178.00,167.12L177.87,167.40L177.80,167.47L177.94,167.76L177.95,168.11L177.82,168.39L177.75,168.46L177.89,168.75L177.90,169.11L177.77,169.38L177.70,169.45L177.84,169.74L177.85,170.09L177.72,170.37L177.63,170.46L177.76,170.63L177.79,170.72L177.80,170.80L177.80,171.05L177.71,171.31L177.61,171.42L177.69,171.59"/></g></g><g id="Actor_.5"><g style="stroke:#000000;stroke-width:0.018"><path d="M153.35,184.24L151.79,185.25L149.52,185.65L147.18,185.34L145.43,184.40L144.72,183.10"/><path d="M153.74,182.40L153.57,182.35L153.15,183.59L151.67,184.54L149.52,184.92L147.30,184.63L145.63,183.74L144.96,182.51L144.80,182.57L144.73,182.72L145.43,184.02L147.19,184.96L149.53,185.27L151.80,184.87L153.36,183.86L153.80,182.55"/><path d="M144.96,182.51L145.45,181.28L146.94,180.37L147.39,180.30"/><path d="M147.69,181.74L148.04,181.28L148.03,180.92L147.64,180.71L148.09,180.95L148.53,181.06L149.04,181.10L149.53,181.07L150.03,180.96L150.47,180.78L150.75,180.60L150.74,180.70L150.54,181.00L150.20,181.25L149.77,181.43L149.28,181.52L148.80,181.52L148.37,181.43L148.04,181.28L147.88,181.13L147.81,180.96L147.38,181.31L147.48,181.53L147.69,181.74L147.98,181.90L148.38,182.02L148.87,182.09L149.39,182.08L149.88,181.99L150.43,181.79L150.88,181.47L151.15,181.09L151.21,180.69L151.21,180.78L151.17,181.10L150.98,181.41L150.89,181.49L151.19,181.69L151.13,182.12L150.86,182.51L150.41,182.83L149.86,183.03L149.37,183.12L148.85,183.13L148.36,183.06L147.97,182.94L147.67,182.77L148.41,183.19L149.72,183.29L150.81,182.90L151.18,182.19L151.25,182.33L151.42,182.39L151.09,183.12L150.06,183.59L148.72,183.61L147.60,183.18L147.13,182.47L147.26,182.43L147.35,182.33L147.51,182.63L147.67,182.77L148.03,182.32L148.36,182.47L148.78,182.56L149.27,182.56L149.75,182.47L150.19,182.29L150.52,182.04L150.72,181.73L150.73,181.64L150.67,181.69L150.29,181.90L149.82,182.05L149.32,182.13L148.83,182.14L148.34,182.07L147.93,181.93L147.80,181.85L147.80,181.99L147.36,182.35"/><path d="M150.29,181.90L149.72,182.13L149.23,182.21L148.75,182.21L148.33,182.11L148.01,181.97L148.03,182.32L147.87,182.16L147.80,182.00"/><path d="M147.22,182.29L147.21,182.30L147.31,182.15L147.34,182.19L147.35,182.33"/><path d="M147.80,181.85L147.61,181.72L147.40,181.90L147.13,182.47L147.25,182.22L147.21,182.30"/><path d="M147.38,181.33L147.38,181.28L147.38,181.33L147.45,181.55L147.61,181.72"/><path d="M147.38,181.31L147.45,180.99L147.70,180.74"/><path d="M147.66,181.76L147.34,182.02L147.25,182.22L147.28,182.15"/><path d="M147.93,181.93L148.01,181.97"/><path d="M147.34,182.02L147.47,181.75L147.58,181.69"/><path d="M147.38,181.94L147.39,181.93"/><path d="M147.39,180.26L147.39,180.30L147.39,180.25L147.49,180.50L147.70,180.70L147.99,180.86L148.39,180.98L148.88,181.05L149.41,181.03L149.89,180.95L150.44,180.75L150.90,180.43L151.17,180.05L151.23,179.66"/><path d="M147.39,180.27L147.83,179.93L147.90,180.09L148.06,180.24L148.04,179.88L148.36,180.03L148.78,180.12L149.27,180.13L149.75,180.05L150.32,179.82L149.86,179.97L149.35,180.05L148.86,180.05L148.37,179.98L147.96,179.84L148.04,179.88"/><path d="M147.70,180.70L148.06,180.24L148.39,180.39L148.81,180.48L149.30,180.48L149.79,180.39L150.22,180.21L150.56,179.96L150.76,179.66L150.77,179.55L150.71,179.61L150.32,179.82"/><path d="M147.39,180.30L147.47,180.51L147.64,180.71"/><path d="M147.81,180.96L147.82,180.80"/><path d="M151.25,178.62L151.19,179.01L150.92,179.39L150.46,179.70L149.91,179.90L149.42,179.99L148.90,180.00L148.41,179.94L148.01,179.82L147.72,179.66L147.51,179.46L147.41,179.23L147.84,178.89L147.91,179.05L148.07,179.20L148.06,178.84L148.38,178.99L148.80,179.08L149.28,179.09L149.77,179.00L150.34,178.77L149.87,178.92L149.37,179.00L148.88,179.00L148.39,178.93L147.97,178.80L148.06,178.84"/><path d="M147.72,179.66L148.07,179.20L148.40,179.35L148.83,179.43L149.31,179.43L149.80,179.34L150.24,179.17L150.57,178.92L150.77,178.62L150.79,178.51L150.73,178.56L150.34,178.77"/><path d="M147.41,179.23L147.40,179.21L147.40,179.26"/><path d="M147.83,179.93L147.83,179.77L147.96,179.84"/><path d="M147.83,179.77L147.72,179.70"/><path d="M147.84,178.89L147.84,178.73L147.97,178.80"/><path d="M147.61,178.05L147.42,178.19L147.52,178.41L147.73,178.61L148.09,178.15L147.93,178.01L147.86,177.85L147.61,178.05"/><path d="M147.42,178.19L147.42,178.17L147.42,178.22"/><path d="M147.73,178.61L148.02,178.77L148.42,178.89L148.92,178.96L149.44,178.94L149.93,178.86L150.48,178.66L150.93,178.35L151.21,177.97L151.27,177.58"/><path d="M147.86,177.85L147.86,177.67L147.99,177.75L148.40,177.89L148.89,177.95L149.38,177.95L149.89,177.87L150.36,177.72L150.23,177.78L149.79,177.95L149.30,178.04L148.81,178.03L148.39,177.94L148.07,177.79L148.09,178.15L148.42,178.30L148.85,178.39L149.33,178.39L149.82,178.30L150.25,178.12L150.59,177.87L150.79,177.57L150.81,177.46L150.75,177.51L150.36,177.72"/><path d="M147.84,178.72L147.74,178.66"/><path d="M151.28,176.53L151.22,176.92L150.95,177.30L150.50,177.61L149.94,177.81L149.46,177.89L148.93,177.91L148.44,177.84L148.04,177.72L147.74,177.57L147.53,177.37L147.44,177.15L147.87,176.80L147.94,176.96L148.10,177.11L147.74,177.57"/><path d="M147.87,176.80L147.87,176.62L148.00,176.70L148.42,176.83L148.91,176.90L149.40,176.90L149.91,176.82L150.38,176.67L150.25,176.73L149.80,176.90L149.31,176.99L148.83,176.98L148.41,176.89"/><path d="M147.44,177.15L147.43,177.12L147.43,177.17"/><path d="M147.76,177.62L147.86,177.67"/><path d="M147.45,176.13L147.45,176.08L147.55,176.32L147.76,176.52L148.12,176.06L148.10,175.69L148.42,175.84L148.85,175.93L149.33,175.93L149.82,175.85L150.26,175.68L150.49,175.56L150.34,175.64L149.90,175.78L149.42,175.85L148.97,175.86L148.52,175.80L148.11,175.69L147.85,175.56L148.10,175.69"/><path d="M147.45,176.10L147.89,175.75L147.96,175.91L148.12,176.06L148.44,176.20L148.88,176.29L149.36,176.28L149.85,176.19L150.29,176.02L150.63,175.77L150.83,175.48L150.85,175.30L150.69,175.45L150.49,175.56L150.68,175.45"/><path d="M147.76,176.52L148.05,176.67L148.45,176.79L148.95,176.85L149.47,176.84L149.96,176.75L150.51,176.55L150.97,176.25L151.24,175.87L151.30,175.48"/><path d="M147.89,175.75L147.89,175.57"/><path d="M147.79,176.57L147.87,176.62"/><path d="M147.80,175.53L147.85,175.56L147.79,175.53L147.54,175.24L147.46,175.05L147.90,174.70L147.97,174.86L148.13,175.00L148.12,174.69L148.76,175.01L149.63,175.09L150.08,175.02L150.46,174.87L150.19,175.02L149.87,175.14L149.38,175.23L148.89,175.23L148.46,175.15L148.13,175.00L147.82,175.40L148.17,175.50L148.60,175.54L149.06,175.51L149.50,175.42L150.05,175.19L150.46,174.87"/><path d="M147.82,175.40L147.54,175.24"/><path d="M147.90,174.70L147.90,174.44"/><path d="M147.46,175.05L147.46,175.03L147.46,175.08"/><path d="M147.90,174.36L147.94,174.46L148.12,174.69"/><path d="M151.13,174.63L149.43,171.98L147.89,174.33"/><path d="M148.17,185.58L149.39,185.74"/><path d="M148.03,180.92L148.35,181.08L148.77,181.17L149.25,181.17L149.74,181.09L150.18,180.92L150.47,180.78"/><path d="M148.07,177.79L147.99,177.75"/><path d="M150.38,176.67L150.76,176.46L150.83,176.40L150.81,176.53L150.61,176.82L150.27,177.07L149.84,177.25L149.35,177.34L148.86,177.34L148.43,177.26L148.10,177.11L148.08,176.74"/><path d="M148.40,176.89L148.00,176.70"/><path d="M148.42,175.84L147.97,175.62"/><path d="M151.42,182.39L151.19,182.06L151.19,181.73"/><path d="M150.89,181.49L150.73,181.64"/><path d="M151.18,182.19L151.19,182.06"/><path d="M151.04,181.32L151.09,181.39L151.19,181.69"/><path d="M153.57,182.35L152.85,181.14L151.19,180.29L151.07,180.28"/><path d="M151.21,180.69L151.21,180.66L150.91,180.46L151.06,180.29L151.10,180.35L151.21,180.66"/><path d="M150.75,180.60L150.79,180.57L150.90,180.43"/><path d="M150.79,180.57L150.91,180.46"/><path d="M151.06,180.29L151.08,180.25"/><path d="M151.21,179.56L151.05,179.28L151.02,179.33L150.92,179.42L151.23,179.62"/><path d="M150.77,179.55L150.92,179.42"/><path d="M151.05,179.27L151.05,179.28"/><path d="M151.24,178.58L150.94,178.37L151.04,178.29L151.08,178.21"/><path d="M150.79,178.51L150.94,178.37"/><path d="M150.81,177.46L150.95,177.33L151.26,177.54"/><path d="M150.95,177.33L151.06,177.24L151.10,177.16"/><path d="M150.83,176.40L150.96,176.29L151.28,176.50"/><path d="M150.97,176.28L151.07,176.19L151.12,176.12"/><path d="M150.85,175.30L150.95,175.21L151.30,175.45"/><path d="M150.95,175.21L151.07,174.99"/></g><g style="stroke:#000000;stroke-width:0.123"><path d="M147.39,180.26L146.85,180.35L145.30,181.30L145.24,181.42L144.73,182.72L144.72,183.10L145.48,184.53L147.21,185.45L149.52,185.76L151.75,185.36L153.29,184.37L153.35,184.24L153.80,182.92L153.80,182.55L153.74,182.40L152.98,181.15L151.26,180.27L151.08,180.25"/><path d="M151.08,180.25L151.19,180.03L151.23,179.74L151.23,179.66L151.21,179.56L151.15,179.42L151.05,179.27L151.20,179.02L151.25,178.70L151.24,178.58L151.14,178.28L151.08,178.21L151.22,177.97L151.27,177.66L151.26,177.54L151.16,177.24L151.10,177.16L151.24,176.93L151.29,176.62L151.28,176.50L151.18,176.20L151.12,176.12L151.26,175.88L151.31,175.57L151.30,175.45L151.20,175.15L151.07,174.99L151.11,174.93L151.13,174.65L151.04,174.38L149.43,171.98L147.90,174.14L147.89,174.32L147.90,174.36L147.90,174.44L147.80,174.49L147.53,174.75L147.46,175.03L147.46,175.08L147.54,175.28L147.71,175.47L147.79,175.53L147.51,175.80L147.45,176.08L147.45,176.13L147.52,176.33L147.70,176.52L147.79,176.57L147.50,176.84L147.43,177.15L147.51,177.38L147.69,177.57L147.76,177.62L147.49,177.88L147.42,178.19L147.49,178.43L147.67,178.62L147.74,178.66L147.47,178.92L147.40,179.23L147.48,179.47L147.66,179.66L147.72,179.70L147.46,179.96L147.39,180.26"/></g></g><g><g><path style="stroke:#000000;stroke-width:0.250;stroke-dasharray:2.0 2.0" d="M176.06,169.61L177.10,116.06"/></g></g><g><g><path style="stroke:#000000;stroke-width:0.250;stroke-dasharray:2.0 2.0" d="M149.33,178.49L148.63,121.69"/></g></g><g id="PMI5.0"><g><path style="stroke:#000000;stroke-width:0.250" d="M189.61,170.27L179.03,170.23"/></g><g><path style="fill:#000000" d="M179.03,169.22L179.02,171.22L177.02,170.21z"/></g><g><path style="fill:#ffffff" d="M189.60,173.13L210.12,173.13L210.12,167.48L189.60,167.48z"/><path style="stroke:#000000;stroke-width:0.250;stroke-opacity:0.98" d="M189.60,173.13L210.12,173.13L210.12,167.48L189.60,167.48z"/><text xml:space="preserve" fill="#000000" stroke-width="0" x="190.31" y="171.54" font-size="3.44" opacity="1.00" font-family="MS Shell Dlg">8075002001</text></g></g><g id="PMI2.0"><g><path style="stroke:#000000;stroke-width:0.250" d="M171.14,46.15L171.21,55.58"/></g><g><path style="fill:#000000" d="M170.21,55.60L172.21,55.58L171.22,57.59z"/></g><g><path style="fill:#ffffff" d="M160.54,46.17L181.69,46.17L181.69,40.52L160.54,40.52z"/><path style="stroke:#000000;stroke-width:0.250;stroke-opacity:0.98" d="M160.54,46.17L181.69,46.17L181.69,40.52L160.54,40.52z"/><text xml:space="preserve" fill="#000000" stroke-width="0" x="161.25" y="44.58" font-size="3.45" opacity="1.00" font-family="MS Shell Dlg">TQTW55882</text></g></g><g id="paperID" visibility="hidden" opacity="0.00" transform="scale(0.000100)"><path style="stroke:#000000;stroke-width:0.500;fill:#e6e6e6;fill-rule:evenodd" d="M-2000.00,-2000.00L2297.00,-2000.00L2297.00,2210.00L-2000.00,2210.00zM0.00,0.00L297.00,0.00L297.00,210.00L0.00,210.00z"/><path style="fill:#000000;fill-opacity:0.118" d="M3.00,210.00L297.00,210.00L297.00,3.00L300.00,3.00L300.00,213.00L3.00,213.00z"/></g><g id="hotspot.0" onmouseover="ShowHotSpot(evt,'0')" onmouseout="HideHotSpot(evt,'0')" onmousemove="ShowToolTip(evt,'0',&quot;3dp750008&quot;)" opacity="0"><path style="fill:#00ff00;fill-rule:evenodd" d="M181.94,40.88L181.96,46.08L181.68,46.57L171.39,46.73L171.49,53.37L171.65,54.48L179.39,54.90L192.15,56.67L192.65,56.93L193.67,57.95L194.18,59.75L192.64,76.14L192.66,78.85L193.44,79.85L195.71,83.70L197.49,88.04L198.51,93.14L198.51,97.81L198.01,100.87L197.22,103.15L195.96,105.97L194.16,108.75L194.16,110.49L194.70,111.47L200.57,116.57L202.11,118.35L203.34,120.94L204.37,125.77L204.62,128.40L155.87,141.59L151.62,142.60L145.75,135.70L143.72,133.39L131.88,121.42L134.53,116.18L134.54,111.22L132.72,108.70L131.19,104.12L130.44,100.53L130.18,98.49L130.19,90.42L131.19,85.05L132.23,82.01L131.46,65.61L131.45,59.56L132.62,57.67L133.67,56.93L141.32,55.92L154.32,54.90L170.99,54.48L170.73,46.73L160.51,46.50L160.43,40.61L181.45,40.60zM180.16,74.88L177.35,74.53L175.82,74.27L171.66,74.27L143.62,77.44L143.86,63.56L144.88,61.52L145.65,61.01L155.09,59.74L167.07,58.72L179.90,58.19zM143.95,117.61L144.46,118.21L142.33,118.47L142.42,116.57z"/></g><g id="hotspot.1" onmouseover="ShowHotSpot(evt,'1')" onmouseout="HideHotSpot(evt,'1')" onmousemove="ShowToolTip(evt,'1',&quot;3dp733482&quot;)" opacity="0"><path style="fill:#00ff00;fill-rule:evenodd" d="M177.88,166.06L177.78,169.63L178.88,169.59L178.90,171.23L178.10,170.84L177.77,170.88L177.77,171.74L179.14,172.42L179.91,173.43L179.92,175.07L178.78,175.98L176.23,176.51L174.53,176.26L172.75,175.50L171.74,174.45L171.73,173.52L172.12,172.37L174.02,171.47L174.32,170.98L174.31,170.23L174.53,169.86L174.54,166.16L176.22,163.73L176.36,163.73zM210.27,167.80L210.17,173.45L189.57,173.45L189.34,170.63L179.26,170.44L179.26,170.15L189.34,169.97L189.49,167.57L210.01,167.55zM151.11,174.70L151.26,180.41L152.63,181.09L153.65,182.35L153.64,183.47L153.39,184.23L152.01,185.41L150.75,185.68L148.03,185.68L146.77,185.41L145.50,184.64L144.96,183.65L144.96,182.18L145.41,181.36L147.49,180.09L147.50,175.05L149.25,172.41L149.56,172.37z"/></g></g></svg>
