<?xml version="1.0" encoding="UTF-8" standalone="no"?>
<svg xmlns="http://www.w3.org/2000/svg" xmlns:xlink="http://www.w3.org/1999/xlink" width="297.000mm" height="210.000mm" viewBox="0.000000 0.000000 297.000000 210.000000" stroke-linejoin="round" stroke-linecap="round" fill="none" fill-rule="evenodd"><desc>Composer Export</desc><script type="text/ecmascript"><![CDATA[
if(typeof(top) != "undefined")
{
	top.ShowPaper = ShowPaper;
}
function ShowHotSpot(evt,hotspotid)
{
	var svgDocument = evt.target.ownerDocument;
	var strId = "hotspot."+hotspotid;
	var hotspot = svgDocument.getElementById(strId);
	if(hotspot)
		hotspot.setAttribute("opacity",".5");
}
function HideHotSpot(evt,hotspotid)
{
	var svgDocument = evt.target.ownerDocument;
	var strId = "hotspot."+hotspotid;
	var hotspot = svgDocument.getElementById(strId);
	if(hotspot)
		hotspot.setAttribute("opacity","0");

	var toolTip = svgDocument.getElementById('ToolTip');
	if(toolTip)
		toolTip.setAttribute("visibility","hidden");
}
function ShowToolTip(evt,hotspotid,strTooltip)
{
	if(strTooltip=="")
	return;

	// change text
	var svgDocument = evt.target.ownerDocument;
	var tiptext = svgDocument.getElementById('ToolTipText');
	if( !tiptext )
	return;
	tiptext.firstChild.nodeValue = " " + strTooltip + "  " ;

	// show tooltip before, else some refresh issue

	var toolTip = svgDocument.getElementById('ToolTip');
	if(!toolTip)
	return;

	toolTip.setAttribute("visibility","visible");
	toolTip.setAttribute("opacity",".95");

	// move tooltip
	// get viewbox

	var root = svgDocument.documentElement;
	var vbox = (root.getAttribute("viewBox")).split(' ');
	var x0 = parseFloat(vbox[0]);
	var y0 = parseFloat(vbox[1]);
	var vboxW = parseFloat(vbox[2]);
	var vboxH = parseFloat(vbox[3]);

	// get default width of svg

	var strW = root.getAttribute("width");
	var svgW = parseFloat(strW);
	if(strW.indexOf('mm') != -1)
	svgW *= 3.779;

	var strH = root.getAttribute("height");
	var svgH = parseFloat(strH);
	if(strH.indexOf('mm') != -1)
	svgH *= 3.779;  	// 96 dpi  -> 96/25.4 = 3.779

	// update the viewbox / width / height if svg is embedded in html with zoom fit all
	var realx0 = x0;
	var realy0 = y0;
	var realvboxW = vboxW;
	var realvboxH = vboxH;
	var realsvgW = svgW;
	var realsvgH = svgH;

	if ((typeof(top) == "undefined") || (typeof(top.svgctl1) != "undefined")) // embedded in html
	{
		// get window size in pxl

		svgW = window.innerWidth;
		svgH = window.innerHeight;

		// calculate real viewbox

		realsvgW = svgW;
		realsvgH = svgH;
		if((svgW / svgH) > (vboxW / vboxH))
		{
			realvboxW = (vboxH * svgW) / svgH;
			realvboxH = vboxH;
			realx0 = x0 - (realvboxW - vboxW)/2 ;
		}
		else
		{
			realvboxH = (vboxW * svgH) / svgW;
			realvboxW = vboxW;
			realy0 = y0 - (realvboxH - vboxH)/2 ;
		}
	}

	// get user zoom/pan

	var newScale = root.currentScale;
	var translation = root.currentTranslate;

	// transform pxl to user unit

	var xPos = (((evt.clientX+10- translation.x)/newScale) * realvboxW)/realsvgW  + realx0 ;
	var yPos = (((evt.clientY+5- translation.y)/newScale) * realvboxH)/ realsvgH  + realy0 ;
	var scaleForWidth = ( (1 / newScale) * realvboxH) / realsvgH;

	// move tooltip

	toolTip.setAttribute("transform", "translate(" + xPos + "," + yPos + ")" );

	// resize tooltip

	var fontsize = 12;
	tiptext.setAttribute("font-size",fontsize*scaleForWidth);
	tiptext.setAttribute("y", fontsize*scaleForWidth);
	var tipBG = svgDocument.getElementById('ToolTipBG');
	var outline = tiptext.getBBox();
	if(tipBG)
	{
		tipBG.setAttribute("stroke-width", 1*scaleForWidth);
		tipBG.setAttribute("width", Number(outline.width) );
		tipBG.setAttribute("height", Number(outline.height) + fontsize*.5*scaleForWidth );
	}
	var ToolTipShadow = svgDocument.getElementById('ToolTipShadow');
	if(ToolTipShadow)
	{
		ToolTipShadow.setAttribute("width", Number(outline.width) );
		ToolTipShadow.setAttribute("height", Number(outline.height) + fontsize*.5*scaleForWidth );
		ToolTipShadow.setAttribute("x", 3*scaleForWidth);
		ToolTipShadow.setAttribute("y", 3*scaleForWidth);
	}
}
function ShowPaper()
{
  var svgDocument = getDocument();
  var paper = svgDocument.getElementById("paperID");
  if(paper)
  {
    paper.setAttribute("transform","scale(1)");
    paper.setAttribute("opacity","1");
    paper.setAttribute("visibility","visible");
  }
  var svg = svgDocument.getRootElement();
  if(svg)
  {
    svg.setAttribute("width","307.000mm");
    svg.setAttribute("height","220.000mm");
    svg.setAttribute("viewBox","-5.000000 -5.000000 307.000000 220.000000");
  }
}
]]></script><defs/><g><g id="Actor_1.0"><g style="stroke:#000000;stroke-width:0.123;stroke-opacity:0.73"><path d="M243.07,87.29L243.00,87.06L243.20,87.80L241.50,81.64L240.73,81.38L238.73,81.38L214.85,84.07L185.23,87.99L175.39,89.54L171.87,90.33L170.25,90.97L169.67,91.46L169.34,91.99L169.17,93.49L170.69,104.61L171.66,113.08L172.33,120.74L172.92,130.56L173.47,131.80L173.97,132.21L174.70,132.50L177.06,132.75L180.76,132.64L185.46,132.13L193.61,130.91L213.56,127.53L231.50,123.94L240.92,121.79L245.59,120.57L247.19,119.94L248.01,119.31L248.06,118.91L247.65,117.84L247.65,118.18L247.58,117.98L247.33,116.73L247.34,116.83"/><path d="M170.48,102.49L170.53,102.86L169.29,94.04L169.23,92.76L169.21,93.08"/><path d="M169.96,98.67L169.99,98.89L169.26,93.69L169.36,92.14"/><path d="M241.44,82.14L241.49,82.32L241.21,81.68L240.64,81.48L237.18,81.54L210.81,84.62L179.24,88.90L172.67,90.18L171.17,90.61L170.19,91.10L169.46,92.01L169.30,93.42L170.81,104.38L171.79,112.72L172.51,120.90L173.09,130.43L173.40,131.40L173.93,132.03L174.76,132.43L175.86,132.63L180.72,132.59L187.45,131.79L206.47,128.75L224.03,125.45L242.36,121.38L245.70,120.45L247.46,119.62"/><path d="M169.24,92.70L169.28,92.45"/><path d="M169.33,92.24L169.24,92.70L169.27,92.53"/><path d="M169.28,92.42L169.27,92.50"/><path d="M169.28,92.39L169.34,92.21"/><path d="M169.35,92.15L169.35,92.18"/><path d="M169.35,92.13L169.48,91.84L169.41,92.01"/><path d="M169.92,98.42L169.67,96.70"/><path d="M169.91,98.42L169.66,96.70"/><path d="M169.59,96.13L169.52,95.61"/><path d="M169.58,96.13L169.51,95.60"/><path d="M169.42,95.02L169.50,95.56"/><path d="M169.43,95.02L169.51,95.56"/><path d="M169.88,91.30L169.57,91.68L169.94,91.25L169.85,91.33"/><path d="M169.44,91.90L169.42,91.98"/><path d="M169.56,91.71L169.60,91.62"/><path d="M169.54,91.73L169.49,91.81"/><path d="M169.77,91.42L169.74,91.45"/><path d="M169.77,91.41L169.82,91.36"/><path d="M169.94,91.25L169.93,91.25"/><path d="M170.53,102.86L171.10,107.37L170.53,102.86"/><path d="M170.49,102.48L170.53,102.75L170.49,102.48"/><path d="M170.47,102.43L170.26,100.83"/><path d="M170.42,101.93L170.49,102.43L170.42,101.93"/><path d="M170.41,101.85L170.34,101.35L170.41,101.85"/><path d="M170.33,101.28L170.25,100.71L170.33,101.28"/><path d="M170.19,100.28L170.25,100.71L170.17,100.14L170.19,100.28"/><path d="M170.24,100.71L170.00,98.99"/><path d="M170.12,99.81L170.17,100.11L170.09,99.56L170.12,99.81"/><path d="M170.04,99.20L170.08,99.50L170.01,98.99L170.04,99.20"/><path d="M169.99,98.89L170.01,98.99"/><path d="M170.07,91.14L170.27,91.00L170.02,91.18"/><path d="M170.06,91.14L170.00,91.20"/><path d="M170.52,90.86L170.30,90.98"/><path d="M170.31,90.98L170.41,90.92"/><path d="M171.10,107.21L171.07,107.01L171.10,107.21"/><path d="M171.07,107.01L171.00,106.43L171.07,107.01"/><path d="M171.32,109.15L171.10,107.28L171.68,112.38L171.54,111.11"/><path d="M170.93,105.86L171.00,106.43L170.86,105.29L170.93,105.86"/><path d="M170.86,105.29L170.79,104.71L170.86,105.29"/><path d="M170.74,104.38L170.78,104.64L170.71,104.14L170.74,104.38"/><path d="M170.71,104.14L170.64,103.57L170.71,104.14"/><path d="M170.64,103.57L170.57,103.03L170.64,103.57"/><path d="M170.56,103.00L170.53,102.77L170.56,103.00"/><path d="M170.98,90.65L170.78,90.74L171.04,90.63"/><path d="M170.55,90.84L170.72,90.76"/><path d="M171.10,90.61L171.22,90.56L170.64,90.80L170.93,90.67"/><path d="M170.60,90.82L170.57,90.84"/><path d="M171.65,112.23L171.68,112.51L171.65,112.23"/><path d="M171.64,112.15L171.59,111.67L171.64,112.15"/><path d="M171.58,111.58L171.52,111.01L171.58,111.58"/><path d="M171.34,109.29L171.51,110.84"/><path d="M171.52,111.01L171.46,110.44L171.52,111.01"/><path d="M171.44,110.27L171.46,110.44L171.39,109.86L171.44,110.27"/><path d="M171.38,109.71L171.33,109.29L171.39,109.83L171.38,109.71"/><path d="M171.33,109.29L171.26,108.72L171.33,109.29"/><path d="M171.25,108.59L171.20,108.15L171.26,108.72L171.25,108.59"/><path d="M171.19,108.06L171.13,107.57L171.19,108.06"/><path d="M171.10,107.37L171.12,107.53L171.10,107.37"/><path d="M172.18,90.27L171.14,90.59"/><path d="M171.38,90.51L171.31,90.53"/><path d="M171.67,90.42L171.37,90.51"/><path d="M171.68,90.42L171.69,90.41"/><path d="M172.25,118.52L172.19,117.88L172.25,118.52"/><path d="M172.23,118.45L172.19,117.95L172.82,127.52L172.61,123.75"/><path d="M172.19,117.88L172.15,117.38L172.19,117.88"/><path d="M172.17,117.80L172.14,117.37L172.17,117.80"/><path d="M172.15,117.38L172.10,116.81L172.14,117.30"/><path d="M172.13,117.30L172.09,116.82L172.13,117.30"/><path d="M172.09,116.82L172.03,116.16L172.06,116.44"/><path d="M172.06,116.31L172.09,116.67L172.04,116.16L172.06,116.31"/><path d="M172.03,116.16L171.98,115.60L172.03,116.16"/><path d="M172.04,116.16L171.99,115.59L172.04,116.16"/><path d="M171.98,115.59L171.93,115.04L171.98,115.59"/><path d="M171.99,115.59L171.94,115.06L171.97,115.32"/><path d="M171.92,115.01L171.87,114.47L171.92,115.01"/><path d="M171.94,115.01L171.89,114.53L171.94,115.01"/><path d="M171.87,114.44L171.82,113.91L171.87,114.44"/><path d="M171.87,114.26L171.88,114.44L171.83,113.91L171.87,114.26"/><path d="M171.83,113.87L171.77,113.35L171.83,113.87"/><path d="M171.79,113.63L171.76,113.36L171.81,113.86L171.79,113.63"/><path d="M171.77,113.30L171.71,112.72L171.77,113.30"/><path d="M171.76,113.36L171.71,112.79L171.76,113.30"/><path d="M171.70,112.72L171.68,112.51L171.70,112.72"/><path d="M171.71,112.72L171.68,112.38L171.71,112.72"/><path d="M247.49,119.59L247.76,119.28L247.81,118.98L247.22,116.90L246.76,109.98L246.05,103.82L244.95,97.08L243.42,89.84L241.64,89.87L237.49,90.33L210.05,93.99L181.49,98.23L172.60,99.85L171.76,94.01L171.89,93.43L172.55,93.14L181.35,91.56L212.31,87.29L239.20,84.06L241.16,83.99L241.86,84.14L243.21,88.96L243.03,88.20L243.07,88.38"/><path d="M172.12,90.29L171.71,90.41"/><path d="M171.79,90.38L171.87,90.36"/><path d="M172.81,127.06L172.82,127.23L172.81,127.06"/><path d="M172.78,126.46L172.81,127.03L172.75,125.89L172.78,126.46"/><path d="M172.72,125.33L172.75,125.89L172.72,125.33"/><path d="M172.72,125.31L172.69,124.74L172.72,125.31"/><path d="M172.68,124.58L172.65,124.17L172.68,124.69L172.68,124.58"/><path d="M172.65,124.17L172.62,123.60L172.65,124.17"/><path d="M172.62,123.60L172.58,123.11L172.62,123.60"/><path d="M172.60,123.60L172.45,121.31"/><path d="M172.58,123.03L172.54,122.47L172.58,123.03"/><path d="M172.54,122.45L172.50,121.88L172.54,122.45"/><path d="M172.47,121.39L172.48,121.61L172.47,121.39"/><path d="M172.50,121.88L172.48,121.61L172.50,121.88"/><path d="M172.45,121.18L172.46,121.31L172.42,120.74L172.45,121.18"/><path d="M172.44,121.13L172.41,120.74"/><path d="M172.42,120.74L172.38,120.18L172.42,120.74"/><path d="M172.38,120.16L172.33,119.59L172.38,120.16"/><path d="M172.40,120.66L172.25,118.71"/><path d="M172.30,119.13L172.33,119.59L172.29,119.02L172.30,119.13"/><path d="M172.29,119.02L172.26,118.63L172.29,119.02"/><path d="M193.57,124.16L193.99,124.10L181.35,125.82L177.68,126.04L175.99,126.01L175.60,125.89L175.44,125.31L174.17,111.80L172.49,99.11"/><path d="M172.53,90.18L172.82,90.12L172.26,90.26L172.62,90.17"/><path d="M172.25,90.26L172.39,90.22"/><path d="M173.17,131.11L173.17,131.11"/><path d="M173.19,131.15L173.77,131.98L175.09,132.55L174.67,132.45L174.89,132.50"/><path d="M174.67,132.45L173.88,132.08L173.30,131.41L173.01,130.54L172.90,129.32L172.93,129.90"/><path d="M173.12,130.93L173.15,131.04L173.02,130.49L173.10,130.86"/><path d="M173.13,131.04L173.12,130.99"/><path d="M173.04,130.67L173.07,130.82"/><path d="M172.96,130.04L173.01,130.45L172.95,129.95"/><path d="M173.00,130.46L172.94,130.04"/><path d="M172.92,129.49L172.92,129.32L172.94,129.81"/><path d="M172.92,129.32L172.87,128.24L172.89,128.75"/><path d="M172.90,129.32L172.89,128.95L172.90,129.32"/><path d="M172.89,128.95L172.85,128.25L172.88,128.73"/><path d="M172.87,128.17L172.84,127.60L172.87,128.17"/><path d="M172.84,128.01L172.82,127.60L172.85,128.17L172.84,128.01"/><path d="M172.82,127.60L172.82,127.60"/><path d="M172.83,127.37L172.82,127.23L172.84,127.53L172.83,127.37"/><path d="M172.99,90.08L173.39,89.99L172.91,90.10L173.07,90.06"/><path d="M173.39,89.99L173.92,89.87L173.39,89.99"/><path d="M173.92,89.87L175.08,89.63L174.63,89.72"/><path d="M174.16,132.18L174.12,132.16"/><path d="M174.01,89.85L174.11,89.83"/><path d="M174.37,89.78L174.20,89.81"/><path d="M175.40,132.61L175.18,132.57L175.62,132.63L175.35,132.59"/><path d="M175.56,132.63L176.55,132.70L176.28,132.69"/><path d="M176.63,132.71L176.75,132.72L175.72,132.65L176.21,132.69"/><path d="M175.45,125.44L179.69,125.29L184.05,124.85L205.62,121.60L225.71,118.00L243.51,114.22L246.20,113.40L247.12,112.90L247.11,112.72L247.14,113.12L247.34,112.48L246.78,107.57L247.44,116.63L247.64,117.79"/><path d="M175.35,89.57L175.64,89.52L175.11,89.62"/><path d="M176.69,89.32L175.52,89.54"/><path d="M175.54,89.53L175.62,89.52"/><path d="M176.69,132.71L176.75,132.72"/><path d="M176.50,89.35L176.39,89.37"/><path d="M177.03,132.72L176.88,132.72L177.96,132.73L177.43,132.73"/><path d="M176.89,89.28L177.00,89.26L176.83,89.29"/><path d="M177.07,89.25L177.37,89.19L176.98,89.26"/><path d="M177.29,89.21L178.51,89.00L178.00,89.08L178.31,89.03"/><path d="M177.87,132.73L177.73,132.73"/><path d="M177.48,132.73L177.40,132.73"/><path d="M177.95,132.73L177.96,132.73"/><path d="M177.97,132.73L178.46,132.72L177.97,132.73"/><path d="M178.54,132.72L179.12,132.71L178.54,132.72"/><path d="M178.41,89.02L178.52,89.00"/><path d="M179.05,88.91L178.62,88.98L179.05,88.91"/><path d="M178.64,88.98L178.62,88.98"/><path d="M178.96,88.92L179.07,88.91L178.85,88.94"/><path d="M179.20,132.70L179.64,132.68L179.20,132.70"/><path d="M179.38,132.70L179.45,132.69"/><path d="M179.37,132.69L179.30,132.70"/><path d="M180.11,132.65L180.26,132.65L179.53,132.69"/><path d="M179.12,132.71L179.22,132.70"/><path d="M179.30,88.87L179.66,88.82L179.12,88.90"/><path d="M180.18,88.73L179.19,88.89"/><path d="M179.42,88.85L179.68,88.81"/><path d="M180.26,88.72L180.84,88.64L180.73,88.65"/><path d="M180.17,88.74L179.79,88.79"/><path d="M180.58,132.62L180.77,132.61L180.58,132.62"/><path d="M180.95,132.60L180.83,132.61L181.40,132.56L180.26,132.65"/><path d="M180.66,132.62L180.77,132.61"/><path d="M180.46,88.69L181.98,88.47L181.40,88.55"/><path d="M181.74,132.53L181.40,132.56L181.98,132.51L181.13,132.59"/><path d="M181.53,132.55L181.76,132.53"/><path d="M181.98,132.51L182.55,132.45L181.98,132.51"/><path d="M181.98,88.47L182.54,88.39L181.98,88.47"/><path d="M182.21,132.49L182.32,132.48"/><path d="M182.43,132.47L183.13,132.39L182.68,132.44"/><path d="M182.55,132.45L183.12,132.39L182.65,132.44"/><path d="M182.99,88.32L182.56,88.38L183.12,88.31L182.99,88.32"/><path d="M183.58,132.34L183.13,132.39L183.67,132.33L183.20,132.38L183.30,132.37"/><path d="M183.43,132.35L184.27,132.26L183.71,132.32L184.23,132.26L183.97,132.29"/><path d="M183.45,88.26L183.69,88.23L183.12,88.31L183.45,88.26"/><path d="M183.69,88.23L184.84,88.06L184.27,88.15"/><path d="M183.84,132.31L183.71,132.32"/><path d="M184.45,132.23L184.32,132.25L184.79,132.19L184.45,132.23"/><path d="M184.87,132.18L185.41,132.11L184.27,132.26L184.79,132.19"/><path d="M184.84,88.06L185.41,87.99L184.45,88.12"/><path d="M185.41,87.99L185.98,87.90L185.41,87.99"/><path d="M185.41,132.11L185.98,132.03L185.41,132.11L185.77,132.06"/><path d="M186.46,131.96L185.98,132.03L187.10,131.87"/><path d="M185.98,87.90L187.13,87.75L186.56,87.82"/><path d="M186.62,131.94L187.70,131.78L187.13,131.87"/><path d="M187.15,87.74L187.70,87.67L187.15,87.74"/><path d="M187.28,87.72L187.13,87.75L187.70,87.67L187.28,87.72"/><path d="M188.15,131.71L188.27,131.70L187.70,131.78L188.27,131.70L187.70,131.78L188.15,131.71"/><path d="M188.27,131.70L188.82,131.62L188.27,131.70"/><path d="M187.70,87.67L188.21,87.59L187.73,87.66"/><path d="M188.27,87.59L188.84,87.51L188.52,87.55"/><path d="M188.84,131.61L189.42,131.52L188.84,131.61"/><path d="M188.84,87.51L189.42,87.43L188.84,87.51"/><path d="M188.89,131.61L189.42,131.52L188.86,131.61"/><path d="M189.75,131.48L189.44,131.52L189.99,131.44L189.75,131.48"/><path d="M189.56,87.40L189.42,87.43L189.99,87.35L189.56,87.40"/><path d="M190.56,87.27L191.13,87.19L189.42,87.43"/><path d="M190.42,131.37L190.04,131.43L190.56,131.36L190.42,131.37"/><path d="M190.04,131.43L191.71,131.18L191.16,131.27"/><path d="M190.01,87.35L190.46,87.28"/><path d="M191.13,87.19L191.71,87.11L191.13,87.19"/><path d="M192.26,131.09L191.13,131.27"/><path d="M191.71,87.11L192.85,86.96L192.28,87.03"/><path d="M192.63,131.04L192.28,131.09L195.71,130.56L195.14,130.65"/><path d="M192.85,86.96L193.42,86.88L192.85,86.96"/><path d="M193.99,124.10L211.89,121.21L228.55,118.09L243.55,114.83L246.52,113.88L247.27,113.39L247.38,112.99L247.41,113.35"/><path d="M193.42,86.88L194.00,86.80L193.42,86.88"/><path d="M194.01,86.80L194.57,86.72L194.01,86.80"/><path d="M194.88,86.68L194.57,86.72L195.14,86.65L194.88,86.68"/><path d="M196.86,130.38L197.35,130.29L195.17,130.64"/><path d="M195.33,86.62L195.14,86.65L195.71,86.57L195.33,86.62"/><path d="M196.28,86.49L195.76,86.56L196.86,86.42L196.28,86.49"/><path d="M196.31,130.46L196.63,130.41"/><path d="M196.86,86.42L197.43,86.34L196.86,86.42"/><path d="M197.71,130.24L197.43,130.29L198.00,130.19L197.71,130.24"/><path d="M197.69,130.24L197.43,130.29L198.00,130.19L197.69,130.24"/><path d="M197.52,86.32L197.96,86.26L197.52,86.32"/><path d="M198.07,130.18L198.57,130.10L198.07,130.18"/><path d="M198.57,130.10L199.14,130.01L198.57,130.10"/><path d="M198.05,130.18L198.00,130.19"/><path d="M198.00,86.26L198.57,86.19L198.00,86.26"/><path d="M198.57,86.19L199.14,86.11L198.57,86.19"/><path d="M199.14,130.01L199.72,129.91L199.14,130.01"/><path d="M199.14,86.11L199.70,86.03L199.14,86.11"/><path d="M199.82,129.89L199.72,129.91L199.82,129.89"/><path d="M199.83,129.89L200.29,129.82L199.72,129.91"/><path d="M200.13,85.97L199.72,86.03L200.29,85.96L200.13,85.97"/><path d="M200.29,85.96L200.86,85.88L200.29,85.96"/><path d="M200.75,129.74L200.36,129.80L200.86,129.73L200.75,129.74"/><path d="M200.53,129.78L200.29,129.82L200.86,129.73L200.53,129.78"/><path d="M200.86,85.88L201.41,85.81L200.86,85.88"/><path d="M200.89,129.72L201.43,129.63L200.86,129.73"/><path d="M201.43,129.63L201.94,129.54L201.43,129.63"/><path d="M201.43,85.81L202.01,85.73L201.43,85.81"/><path d="M202.31,129.48L202.01,129.54L202.50,129.45L202.31,129.48"/><path d="M202.01,129.54L203.15,129.34L202.58,129.44"/><path d="M202.27,85.70L202.01,85.73L202.58,85.66L202.27,85.70"/><path d="M202.70,85.64L203.13,85.58L202.58,85.66L202.70,85.64"/><path d="M203.15,85.58L203.72,85.51L203.15,85.58"/><path d="M203.15,129.34L203.72,129.25L203.15,129.34"/><path d="M203.27,129.32L207.14,128.66L206.58,128.76"/><path d="M203.70,129.25L203.30,129.32"/><path d="M203.72,85.51L204.29,85.43L203.72,85.51"/><path d="M204.83,85.36L204.29,85.43L204.83,85.36"/><path d="M204.87,85.36L205.44,85.28L204.87,85.36"/><path d="M205.44,85.28L206.01,85.21L205.44,85.28"/><path d="M206.01,85.21L206.53,85.14L206.01,85.21"/><path d="M206.62,128.75L213.04,127.60L212.88,127.63"/><path d="M206.58,85.14L207.16,85.06L206.58,85.14"/><path d="M207.37,85.03L207.16,85.06L207.73,84.99L207.37,85.03"/><path d="M208.21,84.93L207.79,84.98L208.21,84.93"/><path d="M208.30,84.92L208.87,84.84L208.30,84.92"/><path d="M208.87,84.84L209.45,84.77L208.87,84.84"/><path d="M209.45,84.77L210.02,84.70L209.45,84.77"/><path d="M210.02,84.70L210.59,84.63L210.02,84.70"/><path d="M210.59,84.63L211.16,84.55L210.59,84.63"/><path d="M211.16,84.55L211.73,84.48L211.16,84.55"/><path d="M211.73,84.48L212.31,84.41L211.73,84.48"/><path d="M212.31,84.41L212.88,84.34L212.31,84.41"/><path d="M213.11,127.59L213.45,127.53L213.02,127.60"/><path d="M213.07,84.31L212.88,84.34L213.45,84.27L213.07,84.31"/><path d="M212.88,84.34L213.45,84.27L212.88,84.34"/><path d="M213.45,84.27L213.99,84.20L213.45,84.27"/><path d="M213.47,127.52L214.02,127.42L213.47,127.52"/><path d="M216.09,127.03L216.31,126.99L213.45,127.53"/><path d="M214.02,84.20L214.60,84.12L214.02,84.20"/><path d="M214.67,84.11L215.18,84.05L214.64,84.11"/><path d="M215.51,84.01L215.18,84.05L215.74,83.98L215.51,84.01"/><path d="M215.18,84.05L215.74,83.98L215.18,84.05"/><path d="M215.74,83.98L216.32,83.91L215.74,83.98"/><path d="M216.31,126.99L217.45,126.77L216.88,126.88"/><path d="M216.72,83.86L216.32,83.91L216.88,83.84L216.72,83.86"/><path d="M216.32,83.91L216.83,83.85L216.32,83.91"/><path d="M216.88,83.84L217.46,83.77L216.88,83.84"/><path d="M217.09,126.84L218.03,126.67L217.47,126.77"/><path d="M218.03,126.67L218.60,126.56L218.03,126.67"/><path d="M217.52,83.76L218.03,83.70L217.52,83.76"/><path d="M217.63,83.75L217.46,83.77L218.03,83.70L217.63,83.75"/><path d="M218.60,126.56L219.11,126.46L218.60,126.56"/><path d="M218.39,83.65L218.03,83.70L218.60,83.63L218.03,83.70L218.60,83.63L218.39,83.65"/><path d="M219.09,126.46L219.09,126.46"/><path d="M219.17,126.44L219.75,126.33L219.17,126.44"/><path d="M219.12,83.57L218.60,83.63L219.12,83.57"/><path d="M218.60,83.63L219.18,83.56L218.60,83.63"/><path d="M219.75,126.33L220.32,126.22L219.75,126.33"/><path d="M219.35,83.54L219.18,83.56L219.75,83.49L219.35,83.54"/><path d="M219.18,83.56L219.32,83.54L219.18,83.56"/><path d="M219.32,83.54L219.75,83.49L219.32,83.54"/><path d="M220.30,83.43L219.75,83.49L220.30,83.43"/><path d="M219.75,83.49L220.32,83.43L219.75,83.49"/><path d="M220.66,126.15L220.32,126.22L220.89,126.11L220.66,126.15"/><path d="M220.55,126.17L220.32,126.22L220.89,126.11L220.55,126.17"/><path d="M220.89,83.36L220.32,83.43L221.46,83.29L220.89,83.36"/><path d="M221.00,126.08L221.46,126.00L220.89,126.11L221.00,126.08"/><path d="M221.25,126.03L220.90,126.10L221.46,126.00L221.25,126.03"/><path d="M221.69,125.95L221.46,126.00L222.02,125.89L221.46,126.00L221.95,125.89L221.69,125.95"/><path d="M222.00,125.89L222.02,125.89"/><path d="M221.54,83.28L222.03,83.22L221.54,83.28"/><path d="M221.98,83.23L221.46,83.29L221.98,83.23"/><path d="M222.04,125.88L222.61,125.77L222.04,125.88"/><path d="M222.26,83.19L222.03,83.22L222.61,83.15L222.26,83.19"/><path d="M222.03,83.22L222.61,83.15L222.03,83.22"/><path d="M222.61,83.15L223.15,83.09L222.61,83.15"/><path d="M222.74,125.74L222.61,125.77L223.18,125.65L222.74,125.74"/><path d="M223.18,125.65L223.75,125.54L223.18,125.65"/><path d="M223.43,83.06L223.18,83.09L223.75,83.02L223.43,83.06"/><path d="M223.53,83.04L223.18,83.09L223.75,83.02L223.53,83.04"/><path d="M224.12,125.46L223.77,125.53L224.32,125.42L224.12,125.46"/><path d="M224.03,125.48L223.75,125.54L224.32,125.42L224.03,125.48"/><path d="M223.81,83.01L224.15,82.97L223.81,83.01"/><path d="M224.12,82.97L224.31,82.95L224.12,82.97"/><path d="M224.46,125.39L224.80,125.32L224.46,125.39"/><path d="M224.82,125.32L224.32,125.42L224.82,125.32"/><path d="M224.83,125.31L224.85,125.31"/><path d="M224.65,82.91L224.32,82.95L224.90,82.88L224.32,82.95L224.90,82.88L224.65,82.91"/><path d="M225.16,125.25L224.90,125.30L225.47,125.19L225.16,125.25"/><path d="M225.06,125.27L225.40,125.20L224.90,125.30L225.06,125.27"/><path d="M225.47,125.19L226.04,125.07L225.47,125.19"/><path d="M225.35,82.83L224.97,82.87L225.35,82.83"/><path d="M225.46,82.82L224.90,82.88L225.46,82.82"/><path d="M226.04,125.07L226.61,124.95L226.04,125.07"/><path d="M225.74,82.78L225.48,82.81L226.04,82.75L225.74,82.78"/><path d="M225.85,82.77L225.48,82.81L226.04,82.75L225.85,82.77"/><path d="M226.61,124.95L227.19,124.83L226.61,124.95"/><path d="M226.12,82.74L226.56,82.69L226.12,82.74"/><path d="M226.61,82.68L226.04,82.75L226.61,82.68"/><path d="M226.88,82.65L227.18,82.62L226.62,82.68L226.88,82.65"/><path d="M226.99,82.64L227.18,82.62L226.62,82.68L226.99,82.64"/><path d="M227.18,82.62L227.76,82.55L227.18,82.62"/><path d="M227.52,124.76L227.19,124.83L227.52,124.76"/><path d="M227.59,124.74L227.76,124.70L227.19,124.83L227.61,124.74"/><path d="M227.76,82.55L228.33,82.49L227.76,82.55"/><path d="M227.85,124.69L228.33,124.59L227.85,124.69"/><path d="M228.33,124.59L228.90,124.47L228.33,124.59"/><path d="M228.78,82.43L228.90,82.42L228.33,82.49L228.88,82.42L228.33,82.49L228.78,82.43"/><path d="M229.06,82.40L229.47,82.35L228.90,82.42L229.47,82.35L229.09,82.40"/><path d="M229.19,124.40L228.90,124.47L229.47,124.35L229.19,124.40"/><path d="M228.90,124.47L229.43,124.35L228.90,124.47"/><path d="M229.52,124.33L230.05,124.22L229.52,124.33"/><path d="M229.47,124.35L230.05,124.22L229.47,124.35"/><path d="M229.59,82.34L229.47,82.35L230.05,82.29L229.59,82.34"/><path d="M229.47,82.35L230.05,82.29L229.47,82.35"/><path d="M230.05,82.29L230.62,82.22L230.05,82.29"/><path d="M230.15,124.20L230.05,124.22L230.31,124.17L230.15,124.20"/><path d="M230.31,124.17L230.62,124.10L230.31,124.17"/><path d="M230.62,82.22L231.19,82.16L230.62,82.22"/><path d="M231.08,124.00L231.19,123.98L230.62,124.10L231.19,123.98L230.70,124.08L231.08,124.00"/><path d="M231.76,123.85L232.34,123.73L231.19,123.98L231.76,123.85L231.19,123.98L231.57,123.89"/><path d="M231.68,82.11L231.19,82.16"/><path d="M231.76,82.10L232.34,82.03L231.29,82.15"/><path d="M232.57,123.68L232.34,123.73L232.91,123.60L232.34,123.73L232.91,123.60L232.57,123.68"/><path d="M232.58,82.01L232.34,82.03L232.91,81.97L232.58,82.01"/><path d="M232.34,82.03L232.91,81.97L232.34,82.03"/><path d="M232.93,123.60L234.05,123.35L233.57,123.45L233.91,123.37"/><path d="M232.91,123.60L233.25,123.52"/><path d="M233.48,123.48L234.62,123.22L234.05,123.35"/><path d="M233.48,81.91L234.05,81.84L232.91,81.97"/><path d="M234.05,81.84L234.59,81.78L234.05,81.84"/><path d="M234.62,123.22L235.20,123.09L234.62,123.22L235.08,123.12"/><path d="M234.78,123.18L235.49,123.02L235.20,123.09"/><path d="M234.76,81.76L235.12,81.72L234.62,81.78L234.76,81.76"/><path d="M235.49,123.02L235.77,122.96L235.49,123.02"/><path d="M235.74,81.66L235.63,81.67L235.74,81.66"/><path d="M235.63,81.67L235.28,81.71L236.55,81.58L236.34,81.60L236.45,81.59"/><path d="M236.34,122.83L236.91,122.70L235.77,122.96L236.34,122.83L235.77,122.96L236.21,122.86"/><path d="M236.83,81.55L236.36,81.59"/><path d="M236.55,81.58L236.64,81.57"/><path d="M237.01,81.54L236.91,81.54L237.49,81.49L237.27,81.51"/><path d="M236.91,81.54L237.02,81.53L236.92,81.54"/><path d="M237.18,122.63L236.91,122.70L237.49,122.57L236.91,122.70"/><path d="M237.02,81.53L237.20,81.51"/><path d="M237.49,81.49L237.74,81.47L237.49,81.49L237.60,81.48"/><path d="M237.98,122.45L237.49,122.57L238.07,122.43L237.96,122.45"/><path d="M237.66,81.48L237.97,81.45L237.82,81.47"/><path d="M238.51,81.42L238.11,81.44L239.20,81.39L238.63,81.42L238.92,81.40"/><path d="M237.59,81.49L237.52,81.49"/><path d="M238.14,122.42L238.46,122.34L238.14,122.42"/><path d="M238.46,122.34L238.63,122.30L238.07,122.43L239.20,122.17L238.63,122.30"/><path d="M238.24,81.44L238.31,81.43"/><path d="M238.11,81.44L238.25,81.43"/><path d="M238.56,81.42L238.43,81.43"/><path d="M239.20,122.17L239.77,122.03L239.20,122.17"/><path d="M238.80,81.41L238.87,81.40"/><path d="M239.20,81.39L239.51,81.39L239.20,81.39"/><path d="M239.60,122.07L240.35,121.90L239.77,122.03"/><path d="M239.51,81.39L239.75,81.39L239.57,81.38"/><path d="M239.77,81.39L240.27,81.39L239.77,81.39"/><path d="M239.26,81.39L239.31,81.39"/><path d="M240.35,81.40L240.57,81.42L240.35,81.40"/><path d="M240.40,121.88L240.88,121.77L240.40,121.88"/><path d="M240.61,81.41L241.22,81.57L241.51,81.95L243.21,88.44L243.14,88.18"/><path d="M240.54,81.42L240.47,81.40"/><path d="M240.65,81.42L241.26,81.57L241.57,82.08L241.53,81.96"/><path d="M240.59,81.42L240.63,81.42"/><path d="M240.55,81.42L240.48,81.41"/><path d="M241.33,121.66L240.92,121.76L241.49,121.62L241.11,121.71"/><path d="M241.45,82.19L241.47,82.28L241.44,82.15"/><path d="M241.41,82.05L241.40,82.03"/><path d="M241.42,82.08L241.42,82.07"/><path d="M241.43,82.12L243.21,88.48L243.05,87.83"/><path d="M241.62,82.89L241.46,82.20"/><path d="M241.49,82.32L241.50,82.38"/><path d="M241.30,81.60L241.28,81.59"/><path d="M241.37,81.67L241.36,81.65"/><path d="M241.40,81.70L241.43,81.74"/><path d="M242.06,121.48L241.56,121.61L242.64,121.34L242.06,121.48"/><path d="M242.00,89.84L241.93,89.40"/><path d="M242.99,88.11L241.63,82.92"/><path d="M241.97,84.35L241.95,84.30"/><path d="M243.04,87.66L243.21,88.34L241.71,82.63L241.73,82.73"/><path d="M241.71,82.63L241.66,82.42L243.21,87.96L243.17,87.80"/><path d="M242.94,86.81L242.88,86.59L242.98,86.98L241.56,82.06"/><path d="M241.83,83.23L241.80,83.11"/><path d="M241.78,83.02L241.80,83.09"/><path d="M241.79,82.99L241.80,83.03"/><path d="M241.81,83.06L241.93,83.51"/><path d="M241.79,82.97L241.76,82.87"/><path d="M243.12,87.02L243.18,87.27L241.67,82.00"/><path d="M241.55,82.02L241.71,82.55"/><path d="M241.64,82.33L241.55,82.07"/><path d="M241.66,82.40L241.62,82.30"/><path d="M241.70,82.70L241.71,82.73"/><path d="M241.56,82.13L241.57,82.16"/><path d="M241.56,82.11L241.63,82.31L241.51,81.97"/><path d="M241.67,81.98L241.66,81.95"/><path d="M241.54,82.04L241.53,82.02"/><path d="M241.56,82.05L241.56,82.04"/><path d="M241.55,82.01L241.54,81.99"/><path d="M241.52,81.99L241.53,82.01"/><path d="M241.49,82.35L241.50,82.36"/><path d="M242.26,121.43L242.58,121.36"/><path d="M242.41,121.40L242.64,121.34"/><path d="M242.14,84.30L242.20,84.50"/><path d="M242.12,84.30L242.18,84.50"/><path d="M242.32,84.47L242.26,84.27"/><path d="M242.76,121.31L243.14,121.21L242.76,121.31"/><path d="M243.04,121.24L242.78,121.31L243.75,121.06L243.26,121.19L243.52,121.12"/><path d="M243.64,90.25L243.54,89.84L243.68,90.41L243.21,88.44L244.92,96.11L244.73,95.14"/><path d="M243.44,89.41L243.21,88.48L243.54,89.82"/><path d="M243.13,88.12L243.02,87.67"/><path d="M243.86,90.65L243.80,90.41L244.35,92.79L243.13,87.56"/><path d="M242.98,87.55L242.80,86.86"/><path d="M243.23,87.98L243.21,87.88L243.77,90.19"/><path d="M243.18,87.27L244.47,92.70L244.39,92.31"/><path d="M243.06,86.78L243.11,86.98"/><path d="M242.96,86.40L242.93,86.32"/><path d="M243.75,121.06L243.64,121.09"/><path d="M243.26,121.19L243.40,121.15"/><path d="M243.42,89.84L243.28,89.26L244.07,92.63L243.97,92.18"/><path d="M243.78,90.88L243.81,90.98L243.78,90.88"/><path d="M243.75,90.67L243.78,90.79L243.69,90.41L243.75,90.67"/><path d="M243.78,90.79L244.20,92.70L243.78,90.79"/><path d="M243.58,89.93L243.69,90.41L243.58,89.93"/><path d="M243.75,90.20L243.78,90.32L243.39,88.69L243.45,88.92"/><path d="M243.47,89.44L243.56,89.84L243.43,89.26L243.47,89.44"/><path d="M243.28,89.26L243.21,88.97L243.28,89.26"/><path d="M243.41,89.19L243.29,88.69L243.41,89.19"/><path d="M243.39,88.69L243.26,88.19L243.39,88.69"/><path d="M243.29,88.69L243.23,88.43L243.29,88.69"/><path d="M243.26,88.17L243.35,88.55"/><path d="M243.25,88.12L243.21,87.98L243.25,88.12"/><path d="M243.21,87.98L243.22,88.00"/><path d="M243.78,121.05L244.29,120.91L243.86,121.03"/><path d="M244.34,120.90L244.18,120.95"/><path d="M244.27,120.92L244.77,120.77"/><path d="M244.03,92.44L245.27,98.34L246.04,102.91L245.71,100.71L246.06,102.89L245.93,102.02"/><path d="M244.77,95.56L244.35,93.50L244.91,96.27L244.81,95.73"/><path d="M244.27,92.34L244.35,92.70L243.87,90.63L243.96,90.98"/><path d="M244.35,92.70L244.92,95.39L244.67,94.16"/><path d="M244.08,92.13L243.93,91.51"/><path d="M243.80,90.41L243.78,90.32"/><path d="M244.00,90.61L243.89,90.16"/><path d="M243.88,90.64L243.78,90.23"/><path d="M244.43,120.87L244.53,120.85"/><path d="M244.90,120.74L244.70,120.80"/><path d="M244.87,96.67L244.83,96.49"/><path d="M245.49,99.33L244.91,96.13L246.77,107.56L246.36,104.20L246.98,108.82"/><path d="M244.91,96.13L244.79,95.56L244.91,96.13"/><path d="M246.52,105.29L245.56,99.05L244.45,93.28L246.07,101.57L246.03,101.34"/><path d="M244.92,96.11L246.35,104.10"/><path d="M244.77,95.44L244.79,95.56L244.69,95.03L244.77,95.44"/><path d="M244.68,94.99L244.56,94.41L244.68,94.99"/><path d="M244.82,94.99L244.65,94.16"/><path d="M244.69,94.99L244.52,94.19"/><path d="M246.17,101.33L244.49,92.76"/><path d="M244.50,94.11L244.55,94.34L244.50,94.11"/><path d="M244.45,93.28L244.35,92.82L244.45,93.28"/><path d="M244.35,93.40L244.45,93.84L244.35,93.40L244.39,93.56"/><path d="M244.46,93.22L244.35,92.72"/><path d="M245.00,120.71L245.28,120.63L245.00,120.71"/><path d="M245.47,120.56L245.34,120.61L245.47,120.56"/><path d="M245.42,120.58L244.94,120.73L245.04,120.70"/><path d="M245.34,120.61L246.05,120.36L245.56,120.54"/><path d="M245.12,120.68L245.28,120.63"/><path d="M245.47,99.35L245.43,99.11L245.50,99.49L245.47,99.35"/><path d="M245.43,99.11L245.31,98.42L245.39,98.89"/><path d="M245.50,99.37L245.91,101.85"/><path d="M245.31,98.42L245.21,97.85L245.31,98.42"/><path d="M245.40,98.52L245.33,98.18"/><path d="M245.21,97.85L245.10,97.28L245.21,97.85"/><path d="M245.07,96.11L245.50,98.28L245.42,97.87"/><path d="M245.10,97.28L244.99,96.70L245.10,97.28"/><path d="M245.24,97.04L245.34,97.54"/><path d="M245.16,97.28L245.07,96.82L245.12,97.08"/><path d="M245.14,96.56L245.24,97.06"/><path d="M245.19,96.70L245.16,96.56"/><path d="M244.99,96.70L244.92,96.33L244.99,96.70"/><path d="M244.97,95.60L245.08,96.13"/><path d="M244.96,95.56L244.92,95.39"/><path d="M245.99,120.39L245.50,120.56L245.63,120.51"/><path d="M246.58,120.16L246.07,120.36L246.49,120.21L246.36,120.25"/><path d="M246.05,103.00L246.64,107.57L246.07,103.13"/><path d="M245.74,99.59L246.07,101.47L246.04,101.32"/><path d="M246.13,101.79L246.08,101.55L246.43,103.72"/><path d="M246.18,102.23L246.30,102.98L246.07,101.59L246.11,101.81"/><path d="M246.02,101.28L245.82,100.14"/><path d="M245.66,100.45L245.62,100.23L245.71,100.71L245.66,100.45"/><path d="M245.61,100.14L245.51,99.58L245.61,100.14"/><path d="M245.72,99.56L245.59,98.86"/><path d="M245.74,99.57L245.50,98.28"/><path d="M245.50,99.49L245.51,99.56"/><path d="M245.63,98.99L245.58,98.70"/><path d="M246.22,120.30L246.11,120.35"/><path d="M246.40,120.24L246.16,120.33"/><path d="M246.59,120.16L246.69,120.12"/><path d="M246.64,107.57L247.21,114.80L247.10,112.89"/><path d="M246.64,107.40L246.59,107.00L246.64,107.40"/><path d="M246.64,107.45L247.11,112.69L246.66,107.57"/><path d="M246.54,106.58L246.53,106.43L246.58,106.94L246.54,106.58"/><path d="M246.53,106.43L246.46,105.87L246.53,106.43"/><path d="M246.46,105.87L246.38,105.29L246.46,105.87"/><path d="M246.35,104.99L246.31,104.74L246.38,105.22L246.35,104.99"/><path d="M246.31,104.71L246.23,104.14L246.31,104.71"/><path d="M247.00,107.73L246.50,104.14L246.58,104.71"/><path d="M247.17,109.30L247.21,109.64L246.48,104.14L246.56,104.71"/><path d="M246.23,104.14L246.18,103.75L246.23,104.14"/><path d="M246.48,104.14L246.39,103.57L246.48,104.14"/><path d="M246.40,104.48L246.41,104.50"/><path d="M246.39,103.57L246.30,102.98"/><path d="M246.09,100.85L247.42,110.24L248.08,119.01"/><path d="M246.18,103.75L246.07,103.00L246.15,103.57"/><path d="M246.43,103.70L246.49,104.07L246.41,103.57L246.43,103.70"/><path d="M246.29,103.73L246.11,102.62"/><path d="M246.07,103.00L246.07,102.98"/><path d="M246.37,103.32L246.41,103.57L246.32,103.00L246.37,103.32"/><path d="M246.31,102.96L246.32,103.00"/><path d="M246.32,102.97L246.20,102.23"/><path d="M246.90,120.02L246.90,120.02"/><path d="M246.76,120.08L247.66,119.57L247.96,119.05"/><path d="M247.07,119.93L246.98,119.99L247.17,119.88"/><path d="M246.91,120.02L246.87,120.04"/><path d="M246.84,120.06L246.80,120.06"/><path d="M246.78,120.08L246.82,120.06"/><path d="M247.09,119.93L247.02,119.97"/><path d="M247.21,114.44L247.18,113.87L247.26,115.44L247.21,114.46"/><path d="M247.18,113.87L247.15,113.35L247.18,113.87"/><path d="M247.15,113.30L247.14,113.12"/><path d="M247.09,112.72L246.93,110.56"/><path d="M247.19,110.62L247.21,110.87L247.17,110.44L247.19,110.62"/><path d="M247.30,111.69L247.21,110.87L247.56,114.76"/><path d="M246.92,110.44L246.64,107.63"/><path d="M247.17,110.44L247.12,109.94"/><path d="M247.05,109.33L247.08,109.63L247.05,109.33"/><path d="M247.92,118.26L247.58,113.17L247.05,108.15L247.08,108.43"/><path d="M247.08,109.63L247.11,109.86"/><path d="M247.04,109.29L246.98,108.78L247.01,108.99"/><path d="M246.98,108.78L246.98,108.80"/><path d="M247.10,108.71L247.03,108.15"/><path d="M246.93,108.38L246.97,108.72L246.93,108.38"/><path d="M246.93,108.37L246.96,108.59"/><path d="M247.06,108.41L247.06,108.43"/><path d="M246.91,108.15L246.70,106.54L246.75,106.92"/><path d="M247.05,108.13L246.94,107.30"/><path d="M246.99,107.71L247.05,108.15"/><path d="M246.70,105.67L246.81,106.43"/><path d="M246.75,105.86L246.66,105.26"/><path d="M247.35,119.77L247.44,119.72L247.33,119.79"/><path d="M247.22,119.87L247.34,119.79"/><path d="M247.44,119.72L247.63,119.58"/><path d="M247.66,119.55L247.94,119.05"/><path d="M247.90,118.26L247.88,117.87L247.94,119.02L247.39,117.31L247.22,115.02L247.24,115.44"/><path d="M247.77,118.48L247.94,118.93L247.88,117.45"/><path d="M247.79,118.45L247.78,118.26L247.81,119.02L247.79,118.45"/><path d="M247.76,118.45L247.64,117.87"/><path d="M247.65,118.17L247.62,118.09"/><path d="M247.71,118.33L247.70,118.30"/><path d="M247.73,118.36L247.74,118.39"/><path d="M247.78,118.26L247.76,117.87L247.78,118.24"/><path d="M247.47,117.60L247.44,117.49"/><path d="M247.54,117.84L247.55,117.87"/><path d="M247.74,117.46L247.73,117.30L247.76,117.87"/><path d="M247.36,116.98L247.37,117.09"/><path d="M247.73,117.30L247.69,116.73L247.72,117.10"/><path d="M247.30,116.33L247.29,116.16L247.33,116.73L247.31,116.42"/><path d="M247.29,116.08L247.27,115.59L247.28,115.92"/><path d="M247.67,116.28L247.69,116.69L247.66,116.16L247.67,116.28"/><path d="M247.41,116.16L247.40,116.06"/><path d="M247.26,115.92L247.26,115.76"/><path d="M247.27,116.16L247.27,116.09"/><path d="M247.76,115.88L247.78,116.16L247.66,114.44L247.70,115.01"/><path d="M247.62,115.59L247.59,115.12L247.66,116.16L247.64,115.89"/><path d="M247.78,116.16L247.79,116.21"/><path d="M247.22,115.02L247.21,114.83L247.22,115.02"/><path d="M247.26,115.44L247.27,115.59"/><path d="M247.59,115.12L247.44,113.30"/><path d="M247.73,115.11L247.73,115.01"/><path d="M247.62,113.95L247.66,114.36L247.52,112.76L247.57,113.30"/><path d="M247.41,113.30L247.38,112.96"/><path d="M247.36,112.68L247.38,112.93"/><path d="M247.52,112.79L247.52,112.76"/><path d="M247.37,111.01L247.58,113.17"/><path d="M247.49,112.41L247.47,112.15L247.52,112.72L247.49,112.41"/><path d="M247.39,112.72L247.33,112.05"/><path d="M247.46,112.05L247.47,112.15L247.35,111.01L247.41,111.58"/><path d="M247.35,111.01L247.29,110.44L247.35,111.01"/><path d="M247.27,110.27L247.24,109.93L247.29,110.44L247.21,109.72"/><path d="M247.31,110.44L247.22,109.62"/><path d="M247.90,119.28L247.92,119.25"/><path d="M247.86,119.35L247.85,119.37"/><path d="M247.87,118.69L247.88,118.71"/><path d="M247.91,118.81L247.92,118.84"/><path d="M248.06,118.65L248.04,118.23"/><path d="M247.86,117.45L247.88,117.84L247.79,116.29"/><path d="M247.98,117.06L248.00,117.47"/><path d="M247.87,117.30L247.90,117.86"/><path d="M247.93,116.16L247.91,115.87"/><path d="M247.80,116.16L247.79,115.89"/><path d="M247.91,115.90L247.88,115.49"/></g></g><g id="Actor_6.0"><g style="stroke:#000000;stroke-width:0.123"><path d="M188.07,98.92L189.59,94.58L190.18,93.12L190.50,92.52L191.02,91.87L191.62,91.42L192.27,91.18L192.97,91.17L193.48,91.30L194.00,91.54L210.97,101.85L211.01,101.81L211.21,85.91L211.12,71.38L179.77,64.57L180.12,80.97L180.14,96.23L188.16,98.90"/><path d="M179.76,64.57L179.86,64.56"/><path d="M179.87,64.55L211.21,71.35L211.32,79.18L211.30,89.45L211.12,101.79L210.98,101.85"/><path d="M181.61,72.67L209.98,79.57L210.19,79.69L210.39,79.98L210.49,80.42L210.49,86.29L210.35,98.86L210.29,99.26L210.13,99.55L209.89,99.70L209.58,99.65L194.10,90.34L193.53,90.07L192.96,89.93L192.19,89.92L191.46,90.14L190.79,90.57L190.14,91.29L189.52,92.40L188.80,94.24L187.79,97.16L187.55,97.44L187.13,97.40L182.05,95.73L181.86,95.60L181.62,95.21L181.52,94.65L181.52,83.86L181.36,73.22L181.42,72.90L181.59,72.68"/><path d="M181.40,74.96L181.41,75.40"/><path d="M181.70,94.99L181.82,95.29L182.04,95.49L187.31,97.22L187.50,97.20L187.68,96.97L189.32,92.41L190.05,91.06L190.70,90.35L191.38,89.91L192.12,89.68L192.97,89.68L193.55,89.83L194.12,90.10L209.58,99.39L209.79,99.45L209.93,99.40L210.08,99.24L210.18,98.93L210.22,96.54L210.33,83.93L210.32,80.44L210.23,80.06L210.02,79.84L209.45,79.70L181.66,72.91L181.55,73.03L181.50,73.31L181.65,82.85L181.70,94.99"/><path d="M181.98,70.79L181.65,70.54L181.49,69.99L181.44,67.57L181.54,67.24L181.77,67.10L209.60,73.35L209.88,73.62L210.04,74.11L210.05,76.93L209.87,77.28L209.58,77.36L181.98,70.79"/><path d="M188.17,98.90L189.63,94.74L190.46,92.76L190.88,92.12L191.33,91.67L191.86,91.33L192.40,91.16"/></g></g><g id="Actor_5.0"><g style="stroke:#000000;stroke-width:0.123"><path d="M223.24,109.32L211.14,101.94L211.35,86.88L211.28,71.40L223.76,74.12L223.73,89.11L223.54,100.00L223.25,109.31L223.34,109.29"/><path d="M211.40,71.38L223.87,74.10L223.89,82.18L223.80,91.84L223.61,101.49L223.35,109.29"/><path d="M211.41,71.38L211.30,71.40"/></g></g><g id="Actor_3.0"><g style="stroke:#000000;stroke-width:0.123"><path d="M142.76,79.14L142.43,68.09L141.87,56.37L161.10,60.54L161.38,66.68L161.63,74.51L161.78,82.17L161.84,90.13L161.82,90.17L152.26,86.98"/><path d="M141.87,56.37L161.20,60.52L161.48,66.66L161.75,75.47L161.89,83.29L161.91,90.15"/><path d="M141.96,56.35L141.96,56.35"/><path d="M143.78,79.46L143.47,68.88L143.00,58.82L143.04,58.46L143.17,58.20L143.30,58.13L143.64,58.20L159.67,61.81L159.92,62.16L160.04,62.62L160.24,67.62L160.56,79.22L160.66,86.87L160.61,88.20L160.45,88.49L160.20,88.54L152.30,85.94"/><path d="M143.88,79.49L143.57,68.91L143.11,58.88L143.13,58.60L143.23,58.39L143.46,58.37L159.65,62.02L159.85,62.32L159.93,62.69L160.19,69.53L160.46,80.11L160.54,86.84L160.51,88.08L160.40,88.28L160.22,88.33L152.31,85.74"/><path d="M161.10,60.54L160.80,60.47"/><path d="M161.92,90.15L161.83,90.17"/></g></g><g id="Actor_8.0"><g style="stroke:#000000;stroke-width:0.123"><path d="M170.74,64.46L179.28,66.39L179.48,73.67L179.62,81.83L179.66,89.64L179.62,96.09L171.21,93.28L171.20,86.04L171.11,78.56L170.95,71.53L170.72,64.50L170.84,64.44L179.38,66.38L179.59,73.78L179.72,81.83L179.76,89.82L179.71,96.08"/><path d="M170.84,64.44L170.83,64.44"/><path d="M172.22,92.17L172.10,91.59L172.02,79.34L171.71,66.95L171.73,66.67L171.82,66.39L171.95,66.22L172.10,66.17L177.87,67.48L178.16,67.73L178.35,68.18L178.40,68.55L178.51,72.67L178.66,81.20L178.71,89.55L178.70,93.70L178.66,94.05L178.46,94.40L178.33,94.46L178.19,94.46L172.61,92.63L172.38,92.46L172.22,92.17"/><path d="M172.24,91.78L172.37,92.17L172.59,92.39L178.17,94.22L178.37,94.20L178.52,93.98L178.57,93.69L178.58,91.58L178.54,82.21L178.40,73.81L178.23,68.25L178.10,67.92L177.86,67.71L172.15,66.40L171.94,66.53L171.83,66.95L172.14,79.38L172.24,91.78"/><path d="M179.61,96.10L179.71,96.08"/></g></g><g id="Actor_8.1"><g style="stroke:#000000;stroke-width:0.123"><path d="M136.07,77.05L135.73,67.02L135.19,56.51L135.62,56.60L135.20,56.50L135.29,56.49L141.65,57.93L142.14,68.00L142.34,73.69L142.47,79.05"/><path d="M135.29,56.49L135.29,56.49"/><path d="M135.62,56.60L141.56,57.94L141.84,63.35L142.07,68.66L142.38,79.02"/><path d="M136.74,77.26L136.42,67.64L135.98,58.62L136.05,58.15L136.15,58.00L136.27,57.95L140.55,58.92L140.76,59.12L140.91,59.49L140.96,59.80L141.06,61.67L141.35,68.07L141.54,73.53L141.68,78.83"/><path d="M136.83,77.29L136.52,67.66L136.08,58.67L136.14,58.29L136.21,58.18L136.29,58.15L140.53,59.12L140.71,59.28L140.82,59.55L140.97,61.80L141.25,68.05L141.44,73.50L141.58,78.78"/></g></g><g id="Actor_12.0"><g style="stroke:#000000;stroke-width:0.123"><path d="M253.26,83.70L252.82,95.56L252.36,105.45L258.65,108.87L263.33,111.23L267.41,113.01L269.30,113.73L271.36,114.43L271.41,114.17L271.42,112.02L271.35,108.15L271.16,104.75L270.86,101.36L270.44,97.85L269.90,94.29L269.23,90.60L268.49,87.13L253.27,83.70L253.51,83.71L268.60,87.11"/><path d="M253.45,104.24L253.67,104.71L253.98,104.98L259.03,107.69L262.95,109.66L266.29,111.17L269.42,112.39L269.82,112.41L270.13,112.20L270.30,111.91L270.37,111.54L270.32,108.65L270.10,104.57L269.76,100.81L269.25,96.84L268.54,92.49L267.86,89.05L267.72,88.70L267.49,88.40L267.12,88.20L254.92,85.41L254.65,85.41L254.38,85.58L254.20,85.87L254.12,86.26L253.78,95.56L253.40,103.78L253.45,104.24"/><path d="M253.36,83.68L253.35,83.68"/><path d="M254.00,104.73L253.71,104.39L253.59,103.88L253.97,95.63L254.31,86.33L254.36,86.07L254.47,85.85L254.68,85.69L254.89,85.67L267.11,88.47L267.37,88.61L267.54,88.82L267.66,89.10L268.36,92.70L268.97,96.38L269.50,100.35L269.83,103.84L270.06,107.45L270.16,111.43L270.12,111.71L270.01,111.95L269.78,112.13L269.45,112.13L267.24,111.29L264.72,110.21L260.15,108.00L254.00,104.73"/><path d="M268.96,88.75L269.52,91.55L268.83,88.12L268.95,88.69"/><path d="M268.81,88.04L268.70,87.55L268.83,88.12L268.81,88.04"/><path d="M268.70,87.55L268.61,87.14L268.70,87.55"/><path d="M268.61,87.12L268.60,87.12"/><path d="M268.59,87.10L268.57,87.10"/><path d="M269.52,91.55L270.10,94.91L269.53,91.63"/><path d="M270.64,98.56L270.68,98.88L270.62,98.42L270.64,98.56"/><path d="M270.68,98.88L271.00,101.76L271.25,104.57L271.00,101.74L270.68,98.88"/><path d="M270.58,98.17L270.62,98.42L270.54,97.85L270.58,98.17"/><path d="M270.48,97.38L270.54,97.83L270.38,96.70L270.46,97.28"/><path d="M270.38,96.70L270.29,96.13L270.38,96.70"/><path d="M270.29,96.13L270.21,95.56L270.28,96.04"/><path d="M270.19,95.46L270.12,94.99L270.21,95.56L270.19,95.46"/><path d="M270.12,94.99L270.10,94.91"/><path d="M271.47,114.41L271.37,114.43"/><path d="M271.47,114.41L271.50,114.37"/><path d="M271.50,114.39L271.50,114.38"/><path d="M271.51,113.87L271.50,114.36L271.52,113.30L271.51,113.87"/><path d="M271.52,113.30L271.52,112.72L271.52,113.30"/><path d="M271.53,112.38L271.52,112.72L271.53,112.15L271.53,112.38"/><path d="M271.53,112.00L271.53,111.61L271.53,112.15L271.53,112.00"/><path d="M271.53,111.58L271.52,111.01L271.53,111.58"/><path d="M271.52,110.84L271.52,111.01L271.51,110.44L271.52,110.84"/><path d="M271.51,110.44L271.50,109.86L271.51,110.44"/><path d="M271.50,109.70L271.50,109.86L271.49,109.29L271.50,109.70"/><path d="M271.49,109.29L271.47,108.74L271.49,109.29"/><path d="M271.47,108.72L271.45,108.15L271.47,108.72"/><path d="M271.45,108.15L271.43,107.57L271.45,108.15"/><path d="M271.43,107.57L271.40,107.00L271.43,107.57"/><path d="M271.40,107.00L271.37,106.43L271.40,107.00"/><path d="M271.37,106.43L271.34,105.86L271.37,106.43"/><path d="M271.34,105.86L271.30,105.29L271.34,105.86"/><path d="M271.29,105.15L271.26,104.73L271.30,105.29L271.29,105.15"/><path d="M271.26,104.71L271.25,104.57"/></g></g><g id="Actor_4.0"><g style="stroke:#000000;stroke-width:0.123"><path d="M110.42,55.66L110.37,54.93L110.45,56.00L110.42,55.66"/><path d="M110.37,54.93L110.33,54.36L110.37,54.93"/><path d="M110.31,54.10L110.33,54.36L110.29,53.79L110.31,54.10"/><path d="M110.29,53.79L110.25,53.22L110.29,53.79"/><path d="M110.25,53.22L110.21,52.64L110.25,53.22"/><path d="M110.21,52.64L110.17,52.07L110.21,52.64"/><path d="M110.17,52.07L110.13,51.50L110.17,52.07"/><path d="M110.13,51.50L109.99,49.78L110.04,50.35"/><path d="M109.97,49.43L128.01,53.31L128.31,57.70L128.63,63.59L129.07,74.86"/><path d="M109.97,49.44L109.99,49.78L109.97,49.46"/><path d="M110.06,49.42L110.06,49.42"/><path d="M109.98,49.43L127.92,53.32L128.18,57.14L128.05,54.93"/><path d="M111.00,65.80L110.97,65.23L111.23,71.35L111.02,66.17"/><path d="M110.97,65.23L110.95,64.66L110.97,65.23"/><path d="M110.92,64.23L110.95,64.66L110.92,64.09L110.92,64.23"/><path d="M110.91,63.92L110.92,64.09L110.89,63.52L110.91,63.92"/><path d="M110.89,63.45L110.89,63.52L110.86,62.94L110.89,63.45"/><path d="M110.86,62.94L110.83,62.37L110.86,62.94"/><path d="M110.80,61.80L110.83,62.36L110.77,61.23L110.80,61.80"/><path d="M110.77,61.23L110.73,60.65L110.77,61.23"/><path d="M110.72,60.34L110.73,60.65L110.70,60.08L110.72,60.34"/><path d="M110.70,60.08L110.67,59.51L110.70,60.08"/><path d="M110.67,59.51L110.63,58.94L110.67,59.51"/><path d="M110.63,58.94L110.60,58.37L110.63,58.94"/><path d="M110.60,58.37L110.56,57.79L110.60,58.37"/><path d="M110.53,57.22L110.56,57.79L110.53,57.22"/><path d="M110.52,57.22L110.49,56.65L110.52,57.22"/><path d="M110.49,56.65L110.45,56.08L110.49,56.65"/><path d="M110.45,56.00L110.45,56.08"/><path d="M111.99,71.59L111.52,61.28L110.88,51.53L110.92,51.12L110.99,50.98L111.08,50.92L126.78,54.41L126.95,54.54L127.09,54.81L127.18,55.19L127.45,59.64L127.84,67.46L128.10,74.55"/><path d="M112.06,71.62L111.59,61.31L110.95,51.55L111.00,51.21L111.13,51.10L126.79,54.61L126.94,54.74L127.09,55.23L127.46,61.36L127.79,68.30L128.01,74.52"/><path d="M115.10,74.58L114.79,74.48"/><path d="M115.12,73.53L114.80,73.43"/><path d="M115.11,73.71L114.80,73.60"/><path d="M128.01,54.36L127.94,53.36"/><path d="M128.75,68.21L128.72,67.52L128.76,68.33L128.75,68.21"/><path d="M128.71,67.21L128.70,66.95L128.72,67.52L128.71,67.21"/><path d="M128.70,66.95L128.67,66.38L128.70,66.95"/><path d="M128.67,66.38L128.65,65.80L128.67,66.38"/><path d="M128.63,65.51L128.62,65.23L128.65,65.80L128.63,65.51"/><path d="M128.62,65.23L128.59,64.66L128.62,65.23"/><path d="M128.59,64.66L128.57,64.09L128.59,64.66"/><path d="M128.55,63.79L128.54,63.52L128.57,64.09L128.55,63.79"/><path d="M128.54,63.52L128.51,62.94L128.54,63.52"/><path d="M128.51,62.94L128.48,62.37L128.51,62.94"/><path d="M128.47,62.08L128.45,61.80L128.48,62.37L128.47,62.08"/><path d="M128.45,61.80L128.42,61.23L128.45,61.80"/><path d="M128.42,61.23L128.39,60.65L128.42,61.23"/><path d="M128.37,60.36L128.39,60.65L128.36,60.08L128.37,60.36"/><path d="M128.33,59.51L128.36,60.08L128.29,58.94L128.33,59.51"/><path d="M128.29,58.94L128.26,58.37L128.29,58.94"/><path d="M128.26,58.37L128.22,57.79L128.26,58.37"/><path d="M128.22,57.79L128.19,57.22L128.22,57.79"/><path d="M128.18,57.14L128.19,57.22"/><path d="M128.99,74.83L128.97,74.39L128.99,74.83"/><path d="M128.97,74.39L128.95,73.81L128.97,74.39"/><path d="M128.95,73.81L128.94,73.25L128.95,73.81"/><path d="M128.93,73.17L128.94,73.24L128.92,72.67L128.93,73.17"/><path d="M128.92,72.67L128.90,72.10L128.92,72.67"/><path d="M128.90,72.10L128.88,71.53L128.90,72.10"/><path d="M128.88,71.53L128.86,70.95L128.88,71.53"/><path d="M128.86,70.95L128.84,70.38L128.86,70.95"/><path d="M128.84,70.38L128.82,69.81L128.84,70.38"/><path d="M128.82,69.81L128.79,69.24L128.82,69.81"/><path d="M128.79,69.24L128.77,68.66L128.79,69.24"/><path d="M128.77,68.66L128.76,68.33"/></g></g><g id="Actor_8.2"><g style="stroke:#000000;stroke-width:0.123"><path d="M101.10,68.07L100.87,63.10L100.59,58.28L100.29,53.82L99.89,48.61L104.41,49.62L104.76,54.19L105.10,59.51L105.37,64.45L105.60,69.52"/><path d="M99.98,48.59L99.90,48.60"/><path d="M99.98,48.59L104.49,49.62L104.84,54.26L105.19,59.58L105.46,64.51L105.68,69.55"/><path d="M101.58,68.22L101.14,59.54L100.85,54.99L100.51,50.37L100.54,49.97L100.61,49.84L100.70,49.79L103.73,50.49L103.88,50.64L104.00,50.98L104.27,54.35L104.63,59.76L104.88,64.37L105.10,69.36"/><path d="M101.65,68.25L101.21,59.56L100.92,55.01L100.58,50.41L100.61,50.09L100.71,49.97L103.72,50.65L103.84,50.77L103.95,51.04L104.20,54.33L104.56,59.74L104.81,64.35L105.03,69.34"/><path d="M104.15,49.55L104.40,49.60"/></g></g><g id="Actor_8.3"><g style="stroke:#000000;stroke-width:0.123"><path d="M129.32,74.94L128.96,65.20L128.39,54.99L128.76,55.06L128.40,54.98L128.49,54.97L134.46,56.32L134.98,66.09L135.20,71.62L135.35,76.83"/><path d="M128.48,54.97L128.49,54.97"/><path d="M128.76,55.06L134.37,56.33L134.67,61.58L134.92,66.81L135.26,76.80"/><path d="M129.96,75.13L129.61,65.80L129.14,57.03L129.21,56.58L129.30,56.43L129.40,56.38L133.43,57.29L133.64,57.50L133.78,57.84L133.83,58.14L133.93,59.96L134.24,66.17L134.45,71.46L134.60,76.59"/><path d="M130.04,75.16L129.70,65.81L129.23,57.08L129.29,56.71L129.36,56.61L129.43,56.57L133.42,57.49L133.59,57.63L133.70,57.90L133.88,60.82L134.14,66.14L134.35,71.44L134.51,76.56"/></g></g><g id="Actor_14.0"><g style="stroke:#000000;stroke-width:0.123"><path d="M96.31,64.60L95.88,57.01L95.20,47.80L95.20,47.13L95.27,46.68L95.41,46.44L95.49,46.37L95.63,46.34L95.84,46.36L97.82,46.79L97.84,46.83L97.73,51.24L97.56,55.90L97.36,60.34L97.11,64.85"/><path d="M95.66,46.34L95.92,46.35L97.90,46.78L97.92,46.82L97.81,51.24L97.64,55.89L97.44,60.33L97.18,64.88"/><path d="M95.68,46.34L95.61,46.35"/><path d="M97.34,60.65L97.36,60.34"/></g></g><g id="Actor_8.4"><g style="stroke:#000000;stroke-width:0.123"><path d="M106.20,69.72L105.98,64.66L105.71,59.68L105.42,55.10L105.02,49.76L109.79,50.83L110.13,55.50L110.47,60.98L110.73,66.05L110.94,71.25"/><path d="M105.03,49.75L105.11,49.74"/><path d="M105.11,49.74L109.87,50.82L110.22,55.59L110.55,61.05L110.81,66.11L111.02,71.28"/><path d="M106.71,69.88L106.28,60.98L105.66,51.57L105.70,51.16L105.77,51.03L105.87,50.98L109.07,51.71L109.23,51.89L109.35,52.22L109.62,55.68L109.96,61.23L110.20,65.96L110.41,71.08"/><path d="M106.78,69.91L106.36,61.00L105.73,51.61L105.76,51.30L105.82,51.19L105.89,51.15L109.06,51.88L109.18,52.00L109.29,52.27L109.54,55.66L109.89,61.21L110.13,65.94L110.34,71.06"/><path d="M107.58,72.09L106.80,71.83"/><path d="M107.59,71.23L107.00,71.04L106.90,70.94L106.82,70.77"/><path d="M107.59,71.06L107.00,70.86L106.89,70.73L106.82,70.51"/><path d="M109.30,50.70L109.78,50.81"/></g></g><g id="Actor_8.5"><g style="stroke:#000000;stroke-width:0.123"><path d="M170.21,92.92L169.96,92.88L162.29,90.30L162.24,83.30L162.11,76.06L161.92,69.27L161.66,62.47L161.95,62.49L161.68,62.43L161.77,62.42"/><path d="M170.22,92.92L170.23,86.87L170.15,79.14L169.97,71.37L169.73,64.21L161.77,62.41"/><path d="M161.95,62.49L169.63,64.23L169.87,71.26L170.05,79.15L170.13,86.69L170.12,92.93"/><path d="M163.09,85.32L162.92,74.83L162.59,64.81L162.69,64.29L162.82,64.13L162.96,64.07L168.33,65.29L168.60,65.53L168.79,66.00L169.05,73.47L169.22,82.58L169.26,90.63L169.21,91.02L169.07,91.28L168.95,91.36L168.78,91.37L163.59,89.66L163.43,89.56L163.23,89.23L163.12,88.76L163.09,85.32"/><path d="M163.09,85.26L163.10,85.68"/><path d="M163.09,77.36L162.71,64.86L162.80,64.44L162.90,64.33L163.02,64.30L168.30,65.51L168.52,65.69L168.67,66.03L168.95,74.45L169.11,84.56L169.14,90.62L169.07,90.96L168.90,91.14L168.77,91.14L163.59,89.44L163.46,89.35L163.33,89.14L163.23,88.69L163.09,77.36"/></g></g><g id="Actor_8.6"><g style="stroke:#000000;stroke-width:0.123"><path d="M54.87,76.16L51.33,74.44L51.02,68.88L50.75,62.83L50.58,57.38L50.47,51.72L54.04,52.89L54.16,59.50L54.39,66.41L54.87,76.16L54.95,76.15"/><path d="M50.57,51.71L50.48,51.71"/><path d="M50.57,51.71L54.13,52.89L54.23,58.58L54.40,64.25L54.65,70.29L54.96,76.15"/></g></g><g id="Actor_2.0"><g style="stroke:#000000;stroke-width:0.123"><path d="M141.21,112.72L141.08,112.59L141.08,112.15L141.16,98.42L141.37,88.15L141.68,78.86L152.31,82.21L151.95,91.88L151.70,101.23L151.55,110.54L151.48,121.22L141.21,112.72"/><path d="M151.60,121.20L151.68,110.53L151.83,101.22L152.09,91.87L152.45,82.19L141.82,78.85"/><path d="M141.69,78.85L141.82,78.84"/><path d="M151.61,121.20L151.47,121.22"/></g></g><g id="Actor_8.7"><g style="stroke:#000000;stroke-width:0.123"><path d="M78.97,81.96L78.69,71.42L78.62,60.84L83.76,62.52L83.77,69.45L83.86,76.10L84.02,82.53L84.29,90.32L79.23,87.89L78.97,81.96"/><path d="M78.73,60.83L78.63,60.83"/><path d="M78.73,60.83L83.87,62.52L83.88,69.33L83.97,76.10L84.15,83.33L84.41,90.27L84.29,90.32"/><path d="M83.55,62.39L83.85,62.49"/></g></g><g id="Actor_7.0"><g style="stroke:#000000;stroke-width:0.123"><path d="M49.73,50.95L49.46,56.31L49.26,61.75L49.12,67.23L49.05,72.76L49.06,72.81L51.08,73.77L50.74,67.36L50.52,62.02L50.36,56.51L50.25,50.18L50.01,50.10L49.93,50.15L49.80,50.47L49.73,50.95L49.74,50.85"/><path d="M49.77,50.58L49.79,50.49"/><path d="M49.75,50.72L49.77,50.59"/><path d="M51.17,73.77L50.83,67.36L50.61,62.02L50.45,56.49L50.34,50.20L50.13,50.11L50.02,50.10L50.11,50.10"/><path d="M49.83,50.33L49.80,50.45"/><path d="M50.01,50.10L50.10,50.10"/><path d="M49.93,50.15L49.94,50.14"/><path d="M49.89,50.21L49.86,50.28"/><path d="M50.01,50.10L50.00,50.10"/><path d="M51.08,73.77L51.17,73.77"/></g></g><g id="Actor_11.0"><g style="stroke:#000000;stroke-width:0.123"><path d="M152.96,122.45L153.36,122.78L152.63,122.17"/><path d="M152.61,122.11L152.61,120.74L152.61,121.31"/><path d="M152.61,120.74L152.61,119.59L152.61,120.16"/><path d="M152.61,119.02L152.61,118.45L152.61,119.59"/><path d="M152.61,118.45L152.61,117.87L152.61,118.45"/><path d="M152.61,117.87L152.61,117.30L152.61,117.87"/><path d="M152.61,117.30L152.62,116.73L152.61,117.30"/><path d="M152.62,116.73L152.62,115.59L152.62,116.16"/><path d="M152.62,115.59L152.63,114.44L152.63,115.01"/><path d="M152.63,114.44L152.64,113.30L152.64,113.87"/><path d="M152.64,113.30L152.65,112.72L152.64,113.30"/><path d="M152.65,112.72L152.66,111.58L152.65,112.15"/><path d="M152.66,111.58L152.67,110.44L152.66,111.01"/><path d="M152.67,110.44L152.69,109.29L152.68,109.86"/><path d="M152.69,109.29L152.69,108.72L152.69,109.29"/><path d="M152.69,108.72L152.71,107.57L152.70,108.15"/><path d="M152.71,107.57L152.73,106.43L152.72,107.00"/><path d="M152.73,106.43L152.75,105.29L152.74,105.86"/><path d="M152.75,105.29L152.76,104.71L152.75,105.29"/><path d="M152.76,104.71L152.78,103.57L152.77,104.14"/><path d="M152.78,103.57L152.81,102.43L152.80,103.00"/><path d="M152.81,102.43L152.85,100.71L152.83,101.28"/><path d="M152.85,100.71L152.87,99.56L152.86,100.14"/><path d="M152.87,99.56L152.90,98.42L152.89,98.99"/><path d="M152.90,98.42L152.95,97.09L165.55,101.77"/><path d="M152.97,97.08L153.09,97.07"/><path d="M152.94,97.11L152.94,97.13"/><path d="M153.10,97.07L165.70,101.78L166.90,110.52L167.77,118.61L168.38,126.80L168.60,131.24L168.65,133.65"/><path d="M153.65,123.02L153.94,123.26L153.36,122.78"/><path d="M154.44,123.67L154.35,123.60L154.51,123.73L154.44,123.67"/><path d="M154.35,123.60L153.94,123.26L154.35,123.60"/><path d="M155.08,124.20L155.65,124.67L154.51,123.73L155.04,124.17"/><path d="M156.03,124.98L155.74,124.74L156.23,125.14L156.03,124.98"/><path d="M155.74,124.74L155.65,124.67"/><path d="M156.70,125.52L156.44,125.31L156.79,125.60L156.70,125.52"/><path d="M156.44,125.31L156.23,125.14L156.44,125.31"/><path d="M156.80,125.60L157.37,126.06L156.80,125.60"/><path d="M157.86,126.46L157.37,126.06L158.51,126.98L157.94,126.52"/><path d="M159.09,127.43L158.58,127.03L159.66,127.87L159.09,127.43"/><path d="M158.58,127.03L158.51,126.98L158.58,127.03"/><path d="M160.21,128.29L160.05,128.17L160.21,128.29"/><path d="M160.05,128.17L159.66,127.87L160.05,128.17"/><path d="M160.23,128.31L160.80,128.74L160.23,128.31"/><path d="M161.38,129.17L160.84,128.77L161.95,129.58L161.38,129.17"/><path d="M160.81,128.75L160.80,128.74"/><path d="M162.39,129.90L162.52,129.99L162.39,129.90"/><path d="M162.52,129.99L163.09,130.39L162.52,129.99"/><path d="M162.11,129.70L161.97,129.60L162.38,129.89L162.11,129.70"/><path d="M163.56,130.72L163.19,130.46L163.66,130.78L163.56,130.72"/><path d="M163.19,130.46L163.10,130.40L163.19,130.46"/><path d="M164.10,131.08L164.04,131.04L164.24,131.17L164.10,131.08"/><path d="M164.04,131.04L163.69,130.80L164.04,131.04"/><path d="M164.58,131.39L164.25,131.17L164.81,131.54L164.58,131.39"/><path d="M164.97,131.64L165.38,131.90L164.97,131.64"/><path d="M165.84,132.18L165.38,131.90L166.53,132.59L165.95,132.25"/><path d="M164.92,131.61L164.81,131.54"/><path d="M165.91,104.14L165.95,104.44L165.83,103.57L165.91,104.14"/><path d="M165.83,103.57L165.74,103.00L165.83,103.57"/><path d="M165.72,102.86L165.74,103.00L165.66,102.43L165.72,102.86"/><path d="M165.57,101.85L165.65,102.34L165.57,101.80"/><path d="M165.65,102.34L165.66,102.43"/><path d="M166.48,108.36L166.46,108.15L166.53,108.69L166.48,108.36"/><path d="M166.46,108.15L166.38,107.57L166.46,108.15"/><path d="M166.33,107.20L166.38,107.57L166.30,107.00L166.33,107.20"/><path d="M166.30,107.00L166.23,106.43L166.30,107.00"/><path d="M166.23,106.43L166.15,105.86L166.23,106.43"/><path d="M166.15,105.86L166.07,105.29L166.15,105.86"/><path d="M166.02,104.96L166.07,105.29L165.95,104.46L165.99,104.71"/><path d="M166.92,132.82L167.10,132.92L166.81,132.75L166.92,132.82"/><path d="M166.81,132.75L166.53,132.59L166.81,132.75"/><path d="M167.15,113.87L167.08,113.30L167.76,120.12L168.24,126.79L168.15,125.31"/><path d="M167.04,112.90L167.02,112.72L167.08,113.30L167.04,112.90"/><path d="M167.02,112.72L166.95,112.15L167.02,112.72"/><path d="M166.95,112.15L166.88,111.58L166.95,112.15"/><path d="M166.88,111.58L166.82,111.01L166.88,111.58"/><path d="M166.75,110.44L166.82,111.01L166.67,109.86L166.75,110.44"/><path d="M166.67,109.86L166.60,109.29L166.67,109.86"/><path d="M166.55,108.85L166.60,109.29L166.53,108.75L166.55,108.85"/><path d="M166.53,108.72L166.53,108.69"/><path d="M167.44,133.11L167.67,133.23L167.10,132.92L167.44,133.11"/><path d="M167.67,133.23L168.24,133.54L167.67,133.23"/><path d="M167.67,119.08L168.14,125.08"/><path d="M167.66,119.02L167.16,113.97"/><path d="M168.51,133.67L168.24,133.54L168.51,133.67L168.53,133.32L168.53,133.66"/><path d="M168.24,126.79L168.53,133.32L168.24,126.79"/><path d="M168.66,133.65L168.52,133.67"/><path d="M168.68,133.62L168.67,133.63"/><path d="M168.52,133.67L168.66,133.65"/></g></g><g id="Actor_13.0"><g style="stroke:#000000;stroke-width:0.123"><path d="M115.21,70.55L141.53,78.81L141.09,95.83L140.94,112.49L126.58,100.56L125.77,100.11L125.14,100.08L124.59,100.31L124.10,100.77L123.67,101.45L122.94,103.70L121.82,108.36L115.22,105.21L115.04,96.29L114.99,85.30L115.17,71.10L115.18,70.60L115.32,70.55"/><path d="M115.33,70.55L141.68,78.86"/><path d="M121.80,108.38L121.92,108.36"/><path d="M121.92,108.36L122.95,104.08L123.67,101.70L124.02,101.03L124.39,100.56L124.81,100.23L125.29,100.06"/><path d="M140.95,112.49L141.07,112.47"/></g></g><g id="Actor_8.8"><g style="stroke:#000000;stroke-width:0.123"><path d="M54.53,53.03L58.30,54.27L58.39,60.22L58.55,65.96L58.76,71.48L59.09,78.19L55.35,76.37L55.00,69.83L54.74,62.99L54.52,53.06L54.62,53.02"/><path d="M54.62,53.02L58.39,54.25L58.50,60.95L58.66,66.70L58.88,72.16L59.19,78.15L59.09,78.19"/><path d="M59.18,78.18L59.18,78.18"/></g></g><g id="Actor_8.9"><g style="stroke:#000000;stroke-width:0.123"><path d="M73.15,59.06L77.96,60.64L77.99,67.35L78.10,73.81L78.27,80.02L78.56,87.56L73.80,85.26L73.52,78.86L73.31,71.88L73.19,65.60L73.14,59.06L73.25,59.06L78.05,60.61"/><path d="M77.83,60.54L78.06,60.64L78.09,67.23L78.20,73.80L78.40,80.79L78.67,87.51L78.56,87.56"/></g></g><g id="Actor_8.10"><g style="stroke:#000000;stroke-width:0.123"><path d="M114.76,104.99L107.80,101.62L107.62,93.98L107.52,85.62L107.52,78.08L107.61,70.23L114.70,72.54L114.57,81.81L114.57,91.46L114.77,104.98L114.87,104.97"/><path d="M107.74,70.22L107.63,70.22"/><path d="M107.74,70.22L114.82,72.54L114.70,80.51L114.67,88.43L114.72,95.74L114.88,104.97"/></g></g><g id="Actor_15.0"><g style="stroke:#000000;stroke-width:0.123"><path d="M100.85,67.99L100.43,59.74L99.82,50.93L99.51,47.19L99.22,47.10L99.10,47.15L99.01,47.29L98.92,47.79L98.77,56.80L98.46,65.28"/><path d="M100.93,68.01L100.46,59.00L99.84,50.10L99.59,47.18L99.27,47.09"/><path d="M99.27,47.09L99.19,47.10"/><path d="M100.13,69.07L99.87,68.98"/></g></g><g id="Actor_8.11"><g style="stroke:#000000;stroke-width:0.123"><path d="M100.14,84.22L100.10,75.39L100.15,67.82L106.71,69.95L106.63,77.76L106.64,85.26L106.72,92.47L106.91,101.20L100.46,98.08L100.28,91.74L100.14,84.22"/><path d="M100.28,67.80L100.17,67.81"/><path d="M100.28,67.80L106.83,69.95L106.75,77.62L106.75,85.26L106.85,93.36L107.04,101.15L106.91,101.21"/></g></g><g id="Actor_10.0"><g style="stroke:#000000;stroke-width:0.123"><path d="M51.72,51.38L51.70,50.93L51.75,52.09"/><path d="M51.79,52.11L51.66,47.98L51.86,47.56L52.28,47.32L69.44,46.22L86.91,45.31"/><path d="M51.70,50.93L51.68,50.39L51.70,50.93"/><path d="M51.68,50.35L51.66,49.81L51.68,50.35"/><path d="M51.66,49.79L51.64,49.23L51.66,49.79"/><path d="M51.63,48.67L51.64,49.21L51.62,48.28L51.63,48.64"/><path d="M51.62,48.28L51.62,48.10L51.62,48.28"/><path d="M51.85,47.50L51.72,47.68L51.85,47.50"/><path d="M51.72,47.68L51.62,48.07"/><path d="M51.69,47.74L51.62,48.05"/><path d="M51.69,47.73L51.71,47.69"/><path d="M52.07,47.35L51.86,47.49L52.07,47.35"/><path d="M52.08,47.35L53.77,47.18L53.22,47.22"/><path d="M52.32,47.28L52.08,47.34"/><path d="M53.79,47.18L54.36,47.14L53.79,47.18"/><path d="M54.36,47.14L54.94,47.10L54.36,47.14"/><path d="M54.85,66.12L54.47,66.15"/><path d="M54.94,47.10L55.47,47.07L54.94,47.10"/><path d="M55.90,47.04L55.51,47.06L56.08,47.03L55.90,47.04"/><path d="M56.54,47.00L56.11,47.02L56.65,46.99L56.54,47.00"/><path d="M56.65,46.99L57.23,46.95L56.65,46.99"/><path d="M57.23,46.95L57.67,46.92L57.23,46.95"/><path d="M57.67,46.92L58.37,46.87L57.80,46.91"/><path d="M58.63,65.76L58.76,65.75"/><path d="M58.84,46.84L58.37,46.87L58.94,46.84L58.84,46.84"/><path d="M58.94,46.84L59.51,46.80L58.94,46.84"/><path d="M59.64,46.79L59.51,46.80L60.09,46.76L59.64,46.79"/><path d="M60.09,46.76L60.66,46.73L60.09,46.76"/><path d="M61.20,46.69L60.66,46.73L61.20,46.69"/><path d="M61.23,46.69L61.80,46.65L61.23,46.69"/><path d="M62.11,46.63L61.80,46.65L62.38,46.62L62.11,46.63"/><path d="M62.38,46.62L62.95,46.58L62.38,46.62"/><path d="M63.46,46.55L62.95,46.58L63.52,46.55L63.46,46.55"/><path d="M63.52,46.55L64.09,46.51L63.52,46.55"/><path d="M64.09,46.51L64.66,46.48L64.09,46.51"/><path d="M64.66,46.48L65.23,46.44L64.66,46.48"/><path d="M65.24,46.44L65.81,46.41L65.24,46.44"/><path d="M65.81,46.41L66.38,46.37L65.81,46.41"/><path d="M66.38,46.37L66.77,46.35L66.38,46.37"/><path d="M66.77,46.35L66.95,46.34L66.77,46.35"/><path d="M67.43,46.31L66.99,46.34L67.53,46.30L67.43,46.31"/><path d="M67.75,46.29L68.10,46.27L67.53,46.30L67.75,46.29"/><path d="M68.54,46.24L68.10,46.27L68.63,46.24L68.54,46.24"/><path d="M68.76,46.23L68.67,46.24L69.24,46.20L68.76,46.23"/><path d="M69.24,46.20L69.82,46.17L69.24,46.20"/><path d="M70.30,46.14L69.82,46.17L70.39,46.14L70.30,46.14"/><path d="M70.74,46.12L70.39,46.14L70.96,46.10L70.74,46.12"/><path d="M70.96,46.10L71.53,46.07L70.96,46.10"/><path d="M72.10,46.04L71.53,46.07L72.66,46.01L72.10,46.04"/><path d="M72.68,46.01L73.25,45.98L72.68,46.01"/><path d="M72.98,62.06L73.15,62.22L72.98,62.06"/><path d="M72.98,62.05L73.15,62.21"/><path d="M73.34,45.97L73.25,45.98L73.82,45.94L73.34,45.97"/><path d="M74.26,45.92L73.82,45.94L74.39,45.91L74.26,45.92"/><path d="M74.47,45.91L74.70,45.90L74.39,45.91L74.47,45.91"/><path d="M74.70,45.90L75.54,45.85L74.97,45.88"/><path d="M76.11,45.82L75.54,45.85L76.68,45.79L76.11,45.82"/><path d="M76.90,45.78L76.68,45.79L76.90,45.78"/><path d="M76.91,45.78L77.25,45.76L76.91,45.78"/><path d="M77.25,45.76L77.83,45.73L77.25,45.76"/><path d="M78.62,64.12L78.07,64.16"/><path d="M77.83,45.73L78.40,45.70L77.83,45.73"/><path d="M78.88,45.67L78.40,45.70L78.97,45.67L78.88,45.67"/><path d="M78.97,45.67L79.54,45.64L78.97,45.67"/><path d="M80.07,45.61L79.54,45.64L80.12,45.61L80.07,45.61"/><path d="M80.14,45.61L80.66,45.58L80.14,45.61"/><path d="M81.06,45.56L81.26,45.55L80.69,45.58L81.06,45.56"/><path d="M81.26,45.55L81.83,45.52L81.26,45.55"/><path d="M81.83,45.52L82.40,45.49L81.83,45.52"/><path d="M82.40,45.49L82.98,45.47L82.40,45.49"/><path d="M83.29,45.45L82.98,45.47L83.55,45.44L83.29,45.45"/><path d="M84.07,63.74L83.86,63.75"/><path d="M83.96,45.42L83.55,45.44L84.12,45.41L83.96,45.42"/><path d="M84.64,45.39L84.69,45.38L84.12,45.41L84.64,45.39"/><path d="M84.69,45.38L85.27,45.36L84.69,45.38"/><path d="M85.27,45.36L85.84,45.33L85.27,45.36"/><path d="M85.84,45.33L86.95,45.29L86.80,45.28"/><path d="M86.94,45.32L87.29,45.48L87.14,45.36L87.32,45.52"/><path d="M87.80,61.94L87.54,52.33L87.48,45.91L87.34,45.54"/><path d="M87.11,45.34L87.06,45.32L87.11,45.34"/><path d="M87.06,45.32L87.01,45.31L87.06,45.32"/></g></g><g id="Actor_3.1"><g style="stroke:#000000;stroke-width:0.123"><path d="M84.12,72.98L84.10,60.81L99.79,65.73L99.73,75.23L99.76,82.59L99.87,89.82L100.09,97.89L84.63,90.48L84.33,82.64L84.12,72.98"/><path d="M84.10,60.81L84.20,60.81"/><path d="M100.08,97.92L100.21,97.87L99.96,88.79L99.85,79.43L99.91,65.76L84.21,60.81"/></g></g><g id="Actor_9.0"><g style="stroke:#000000;stroke-width:0.123"><path d="M49.02,49.78L48.67,55.35L48.38,61.13L48.16,66.83L48.03,72.27L47.94,72.27L47.60,72.11L47.56,71.53L47.28,66.70L47.08,62.17L46.91,57.45L46.78,52.23L46.79,52.64"/><path d="M46.78,52.23L46.78,50.38L46.77,50.91"/><path d="M46.79,50.27L46.79,50.35L46.83,49.91L46.80,50.11"/><path d="M46.84,49.84L46.85,49.78L46.83,49.91L46.84,49.84"/><path d="M46.87,49.68L46.85,49.78L46.92,49.50L46.88,49.62"/><path d="M49.02,49.77L47.44,49.27L47.28,49.24"/><path d="M47.37,49.25L47.17,49.25L47.04,49.31L47.06,49.29"/><path d="M47.02,49.33L46.93,49.47L47.03,49.31"/><path d="M47.21,49.24L47.07,49.28"/><path d="M47.94,72.27L48.08,66.83L48.29,61.14L48.58,55.36L48.93,49.78L47.29,49.25"/><path d="M47.29,49.24L47.28,49.24"/></g></g><g id="Actor_4.1"><g style="stroke:#000000;stroke-width:0.123"><path d="M58.53,52.77L72.85,57.26L72.90,64.57L73.01,70.94L73.20,77.22L73.51,85.12L59.34,78.30L58.97,71.30L58.70,63.74L58.52,53.37L58.52,52.80L58.62,52.77"/><path d="M58.62,52.77L72.95,57.26L73.11,70.94L73.30,77.22L73.61,85.12"/><path d="M73.25,75.81L73.61,84.69"/><path d="M73.24,75.53L73.05,67.84L72.97,60.65"/><path d="M72.97,59.51L72.97,60.08"/><path d="M72.96,58.37L72.96,57.31"/><path d="M73.52,85.12L73.62,85.12"/></g></g><g><g><path style="stroke:#000000;stroke-width:0.210;stroke-dasharray:2.3 2.3" d="M262.19,98.75L233.86,103.26"/></g></g><g id="PMI2.0"><g><path style="stroke:#000000;stroke-width:0.281" d="M145.99,124.40L145.95,116.96"/></g><g><path style="fill:#000000" d="M146.95,116.95L144.95,116.96L145.94,114.96z"/></g><g><path style="fill:#ffffff" d="M136.77,129.47L155.23,129.47L155.23,124.39L136.77,124.39z"/><path style="stroke:#000000;stroke-width:0.280;stroke-opacity:0.98" d="M136.77,129.47L155.23,129.47L155.23,124.39L136.77,124.39z"/><text xml:space="preserve" fill="#000000" stroke-width="0" x="137.41" y="128.04" font-size="2.79" opacity="1.00" font-family="Microsoft Sans Serif">3701081401</text></g></g><g id="PMI11.0"><g><path style="stroke:#000000;stroke-width:0.281" d="M163.91,136.06L163.88,130.62"/></g><g><path style="fill:#000000" d="M164.87,130.61L162.87,130.62L163.86,128.61z"/></g><g><path style="fill:#ffffff" d="M154.69,141.14L173.15,141.14L173.15,136.06L154.69,136.06z"/><path style="stroke:#000000;stroke-width:0.280;stroke-opacity:0.98" d="M154.69,141.14L173.15,141.14L173.15,136.06L154.69,136.06z"/><text xml:space="preserve" fill="#000000" stroke-width="0" x="155.33" y="139.71" font-size="2.79" opacity="1.00" font-family="Microsoft Sans Serif">3701081302</text></g></g><g id="PMI13.0"><g><path style="stroke:#000000;stroke-width:0.281" d="M120.09,111.88L120.06,107.57"/></g><g><path style="fill:#000000" d="M121.07,107.56L119.07,107.58L120.05,105.57z"/></g><g><path style="fill:#ffffff" d="M110.88,116.95L129.34,116.95L129.34,111.88L110.88,111.88z"/><path style="stroke:#000000;stroke-width:0.280;stroke-opacity:0.98" d="M110.88,116.95L129.34,116.95L129.34,111.88L110.88,111.88z"/><text xml:space="preserve" fill="#000000" stroke-width="0" x="111.52" y="115.53" font-size="2.79" opacity="1.00" font-family="Microsoft Sans Serif">3701081402</text></g></g><g id="PMI7.0"><g><path style="stroke:#000000;stroke-width:0.281" d="M43.11,73.02L48.04,73.10"/></g><g><path style="fill:#000000" d="M48.05,74.11L48.09,72.11L50.07,73.14z"/></g><g><path style="fill:#ffffff" d="M24.68,75.42L43.14,75.42L43.14,70.34L24.68,70.34z"/><path style="stroke:#000000;stroke-width:0.280;stroke-opacity:0.98" d="M24.68,75.42L43.14,75.42L43.14,70.34L24.68,70.34z"/><text xml:space="preserve" fill="#000000" stroke-width="0" x="25.32" y="73.99" font-size="2.79" opacity="1.00" font-family="Microsoft Sans Serif">3701081405</text></g></g><g id="PMI9.0"><g><path style="stroke:#000000;stroke-width:0.281" d="M41.98,52.55L45.20,52.61"/></g><g><path style="fill:#000000" d="M45.21,53.62L45.24,51.62L47.22,52.66z"/></g><g><path style="fill:#ffffff" d="M23.55,54.94L42.00,54.94L42.00,49.86L23.55,49.86z"/><path style="stroke:#000000;stroke-width:0.280;stroke-opacity:0.98" d="M23.55,54.94L42.00,54.94L42.00,49.86L23.55,49.86z"/><text xml:space="preserve" fill="#000000" stroke-width="0" x="24.18" y="53.51" font-size="2.79" opacity="1.00" font-family="Microsoft Sans Serif">3701081410</text></g></g><g id="PMI5.0"><g><path style="stroke:#000000;stroke-width:0.281" d="M219.39,67.45L219.36,73.13"/></g><g><path style="fill:#000000" d="M218.35,73.12L220.35,73.14L219.34,75.13z"/></g><g><path style="fill:#ffffff" d="M210.17,67.45L228.63,67.45L228.63,62.38L210.17,62.38z"/><path style="stroke:#000000;stroke-width:0.280;stroke-opacity:0.98" d="M210.17,67.45L228.63,67.45L228.63,62.38L210.17,62.38z"/><text xml:space="preserve" fill="#000000" stroke-width="0" x="210.80" y="66.03" font-size="2.79" opacity="1.00" font-family="Microsoft Sans Serif">3701081406</text></g></g><g id="PMI10.0"><g><path style="stroke:#000000;stroke-width:0.281" d="M75.71,40.71L75.68,44.68"/></g><g><path style="fill:#000000" d="M74.69,44.67L76.69,44.69L75.67,46.68z"/></g><g><path style="fill:#ffffff" d="M66.50,40.71L84.96,40.71L84.96,35.63L66.50,35.63z"/><path style="stroke:#000000;stroke-width:0.280;stroke-opacity:0.98" d="M66.50,40.71L84.96,40.71L84.96,35.63L66.50,35.63z"/><text xml:space="preserve" fill="#000000" stroke-width="0" x="67.14" y="39.28" font-size="2.79" opacity="1.00" font-family="Microsoft Sans Serif">3701081201</text></g></g><g id="PMI14.0"><g><path style="stroke:#000000;stroke-width:0.281" d="M96.48,38.71L96.44,46.38"/></g><g><path style="fill:#000000" d="M95.45,46.38L97.45,46.39L96.44,48.39z"/></g><g><path style="fill:#ffffff" d="M87.27,38.72L105.73,38.72L105.73,33.64L87.27,33.64z"/><path style="stroke:#000000;stroke-width:0.280;stroke-opacity:0.98" d="M87.27,38.72L105.73,38.72L105.73,33.64L87.27,33.64z"/><text xml:space="preserve" fill="#000000" stroke-width="0" x="87.91" y="37.29" font-size="2.79" opacity="1.00" font-family="Microsoft Sans Serif">3701081411</text></g></g><g id="PMI15.0"><g><path style="stroke:#000000;stroke-width:0.281" d="M107.81,41.86L104.64,41.86L99.58,52.27"/></g><g><path style="fill:#000000" d="M98.69,51.84L100.49,52.72L98.72,54.08z"/></g><g><path style="fill:#ffffff" d="M107.18,44.41L125.64,44.41L125.64,39.33L107.18,39.33z"/><path style="stroke:#000000;stroke-width:0.280;stroke-opacity:0.98" d="M107.18,44.41L125.64,44.41L125.64,39.33L107.18,39.33z"/><text xml:space="preserve" fill="#000000" stroke-width="0" x="107.82" y="42.98" font-size="2.79" opacity="1.00" font-family="Microsoft Sans Serif">3701081409</text></g></g><g id="PMI6.0"><g><path style="stroke:#000000;stroke-width:0.281" d="M194.07,62.04L194.03,66.87"/></g><g><path style="fill:#000000" d="M193.03,66.86L195.03,66.88L194.02,68.87z"/></g><g><path style="fill:#ffffff" d="M184.85,62.05L203.31,62.05L203.31,56.97L184.85,56.97z"/><path style="stroke:#000000;stroke-width:0.280;stroke-opacity:0.98" d="M184.85,62.05L203.31,62.05L203.31,56.97L184.85,56.97z"/><text xml:space="preserve" fill="#000000" stroke-width="0" x="185.48" y="60.62" font-size="2.79" opacity="1.00" font-family="Microsoft Sans Serif">3701081407</text></g></g><g id="PMI4.0"><g><path style="stroke:#000000;stroke-width:0.281" d="M65.18,86.55L65.15,82.53"/></g><g><path style="fill:#000000" d="M66.16,82.53L64.16,82.54L65.15,80.53z"/></g><g><path style="fill:#ffffff" d="M55.98,91.64L74.44,91.64L74.44,86.56L55.98,86.56z"/><path style="stroke:#000000;stroke-width:0.280;stroke-opacity:0.98" d="M55.98,91.64L74.44,91.64L74.44,86.56L55.98,86.56z"/><text xml:space="preserve" fill="#000000" stroke-width="0" x="56.61" y="90.21" font-size="2.79" opacity="1.00" font-family="Microsoft Sans Serif">3701081404</text></g></g><g id="PMI3.0"><g><path style="stroke:#000000;stroke-width:0.281" d="M150.93,52.66L151.11,57.83"/></g><g><path style="fill:#000000" d="M150.11,57.87L152.11,57.80L151.18,59.84z"/></g><g><path style="fill:#ffffff" d="M141.61,52.66L160.07,52.66L160.07,47.58L141.61,47.58z"/><path style="stroke:#000000;stroke-width:0.280;stroke-opacity:0.98" d="M141.61,52.66L160.07,52.66L160.07,47.58L141.61,47.58z"/><text xml:space="preserve" fill="#000000" stroke-width="0" x="142.24" y="51.23" font-size="2.79" opacity="1.00" font-family="Microsoft Sans Serif">3701081403</text></g></g><g id="PMI8.0"><g><path style="stroke:#000000;stroke-width:0.281" d="M104.16,105.62L104.13,101.31"/></g><g><path style="fill:#000000" d="M105.13,101.30L103.13,101.32L104.12,99.31z"/></g><g><path style="fill:#ffffff" d="M94.95,110.70L113.41,110.70L113.41,105.62L94.95,105.62z"/><path style="stroke:#000000;stroke-width:0.280;stroke-opacity:0.98" d="M94.95,110.70L113.41,110.70L113.41,105.62L94.95,105.62z"/><text xml:space="preserve" fill="#000000" stroke-width="0" x="95.59" y="109.27" font-size="2.79" opacity="1.00" font-family="Microsoft Sans Serif">3701081301</text></g></g><g id="PMI12.0"><g><path style="stroke:#000000;stroke-width:0.281" d="M274.75,98.06L271.23,98.11"/></g><g><path style="fill:#000000" d="M271.21,97.11L271.24,99.11L269.22,98.14z"/></g><g><path style="fill:#ffffff" d="M274.74,100.45L293.20,100.45L293.20,95.38L274.74,95.38z"/><path style="stroke:#000000;stroke-width:0.280;stroke-opacity:0.98" d="M274.74,100.45L293.20,100.45L293.20,95.38L274.74,95.38z"/><text xml:space="preserve" fill="#000000" stroke-width="0" x="275.38" y="99.03" font-size="2.79" opacity="1.00" font-family="Microsoft Sans Serif">3701081303</text></g></g><g id="PMI1.0"><g><path style="stroke:#000000;stroke-width:0.281" d="M212.27,132.36L212.25,128.34"/></g><g><path style="fill:#000000" d="M213.24,128.33L211.24,128.34L212.22,126.34z"/></g><g><path style="fill:#ffffff" d="M203.05,137.44L221.51,137.44L221.51,132.36L203.05,132.36z"/><path style="stroke:#000000;stroke-width:0.280;stroke-opacity:0.98" d="M203.05,137.44L221.51,137.44L221.51,132.36L203.05,132.36z"/><text xml:space="preserve" fill="#000000" stroke-width="0" x="203.69" y="136.01" font-size="2.79" opacity="1.00" font-family="Microsoft Sans Serif">3701081101</text></g></g><g/><g id="paperID" visibility="hidden" opacity="0.00" transform="scale(0.000100)"><path style="stroke:#000000;stroke-width:0.500;fill:#e6e6e6;fill-rule:evenodd" d="M-2000.00,-2000.00L2297.00,-2000.00L2297.00,2210.00L-2000.00,2210.00zM0.00,0.00L297.00,0.00L297.00,210.00L0.00,210.00z"/><path style="fill:#000000;fill-opacity:0.118" d="M3.00,210.00L297.00,210.00L297.00,3.00L300.00,3.00L300.00,213.00L3.00,213.00z"/></g><g id="hotspot.0" onmouseover="ShowHotSpot(evt,'0')" onmouseout="HideHotSpot(evt,'0')" onmousemove="ShowToolTip(evt,'0',&quot;3dp3359393 (I_KNH CHN GI.1)&quot;)" opacity="0"><path style="fill:#00ff00;fill-rule:evenodd" d="M246.16,71.04L246.16,65.80L264.77,65.80L264.77,71.04L256.12,71.23zM241.42,81.47L241.72,82.02L243.98,90.29L246.27,101.66L247.69,112.47L247.99,119.12L247.74,119.44L245.97,120.23L237.36,122.43L213.17,127.57L213.25,128.10L212.62,128.40L212.59,131.92L221.53,132.08L221.53,137.32L202.92,137.32L202.92,132.08L212.14,131.92L212.12,128.41L211.23,127.84L189.94,131.33L181.31,132.38L175.14,132.39L174.01,132.09L173.16,131.24L172.87,129.54L171.73,113.32L169.46,95.40L169.46,91.51L171.15,90.36L178.18,88.85L206.92,84.87L235.36,81.46L240.88,81.15zM262.02,84.79L261.80,84.02L261.90,84.00zM262.28,85.11L263.04,85.14L263.07,86.96L261.60,85.98L261.57,85.74L261.87,85.53L262.02,84.79z"/></g><g id="hotspot.1" onmouseover="ShowHotSpot(evt,'1')" onmouseout="HideHotSpot(evt,'1')" onmousemove="ShowToolTip(evt,'1',&quot;3dp3299015 (I_3DPart3299015.3)&quot;)" opacity="0"><path style="fill:#00ff00;fill-rule:evenodd" d="M66.37,40.60L66.37,35.36L84.98,35.36L84.98,40.60L76.04,40.77L76.07,44.28L76.69,44.47L76.30,45.33L87.25,45.32L87.52,48.74L87.82,61.65L84.39,60.67L84.11,63.37L83.82,62.40L78.61,60.67L78.40,63.96L78.07,63.96L77.85,60.41L73.21,58.96L73.02,60.53L72.73,57.00L58.70,52.70L58.51,58.82L58.22,54.15L54.72,52.99L54.78,65.95L54.46,65.95L53.96,52.73L51.88,51.96L51.63,47.67L51.88,47.33L53.01,47.04L75.32,45.61L74.97,45.04L74.91,44.50L75.57,44.27L75.59,40.77z"/></g><g id="hotspot.2" onmouseover="ShowHotSpot(evt,'2')" onmouseout="HideHotSpot(evt,'2')" onmousemove="ShowToolTip(evt,'2',&quot;3dp3308681 (I_3DPart3308681.9)&quot;)" opacity="0"><path style="fill:#00ff00;fill-rule:evenodd" d="M165.76,101.66L166.61,107.92L168.32,124.99L168.60,133.35L168.04,133.27L164.60,131.19L164.25,131.21L164.23,135.61L173.17,135.78L173.17,141.02L154.56,141.02L154.56,135.78L163.78,135.61L163.75,130.69L162.38,129.79L152.67,122.14L152.67,115.12L152.93,97.74L153.17,97.09L153.80,97.06z"/></g><g id="hotspot.3" onmouseover="ShowHotSpot(evt,'3')" onmouseout="HideHotSpot(evt,'3')" onmousemove="ShowToolTip(evt,'3',&quot;3dp3322944&quot;)" opacity="0"><path style="fill:#00ff00;fill-rule:evenodd" d="M268.45,86.86L268.76,87.41L270.42,96.88L270.77,97.16L271.03,97.14L271.01,101.37L271.30,104.50L271.34,114.25L264.48,111.61L253.41,105.89L252.53,105.35L252.52,102.89L253.27,83.72L254.52,83.74zM271.47,97.96L274.44,97.78L274.61,95.10L293.22,95.10L293.22,100.34L274.61,100.34L274.44,98.23z"/></g><g id="hotspot.4" onmouseover="ShowHotSpot(evt,'4')" onmouseout="HideHotSpot(evt,'4')" onmousemove="ShowToolTip(evt,'4',&quot;3dp3360135 (I_3DPart3360135.3)&quot;)" opacity="0"><path style="fill:#00ff00;fill-rule:evenodd" d="M141.57,78.62L141.03,112.28L137.34,109.31L125.94,99.93L124.97,99.92L123.84,101.09L121.93,108.02L121.08,107.93L120.53,107.60L120.42,111.43L129.36,111.60L129.36,116.84L110.75,116.84L110.75,111.60L119.97,111.43L119.94,107.64L119.33,107.41L118.83,106.76L115.41,105.07L115.12,98.81L115.12,75.86L115.40,70.34z"/></g><g id="hotspot.5" onmouseover="ShowHotSpot(evt,'5')" onmouseout="HideHotSpot(evt,'5')" onmousemove="ShowToolTip(evt,'5',&quot;prd3284659&quot;)" opacity="0"><path style="fill:#00ff00;fill-rule:evenodd" d="M87.14,38.61L87.14,33.37L105.74,33.37L105.74,38.61L96.81,38.77L96.84,45.98L97.42,46.20L97.72,46.76L97.76,53.67L97.19,64.51L96.33,64.41L95.49,51.02L95.48,46.27L96.34,45.99L96.36,38.77z"/></g><g id="hotspot.6" onmouseover="ShowHotSpot(evt,'6')" onmouseout="HideHotSpot(evt,'6')" onmousemove="ShowToolTip(evt,'6',&quot;prd3284660&quot;)" opacity="0"><path style="fill:#00ff00;fill-rule:evenodd" d="M104.56,42.00L104.47,41.67L106.88,41.45L107.05,39.06L125.66,39.06L125.66,44.30L107.05,44.30L106.88,41.90zM100.06,52.14L100.32,52.40L100.33,56.14L100.88,67.60L100.25,67.82L100.04,68.77L99.75,65.53L98.53,65.05L98.90,51.68L99.12,46.99L99.45,46.99z"/></g><g id="hotspot.7" onmouseover="ShowHotSpot(evt,'7')" onmouseout="HideHotSpot(evt,'7')" onmousemove="ShowToolTip(evt,'7',&quot;3dp3240986&quot;)" opacity="0"><path style="fill:#00ff00;fill-rule:evenodd" d="M152.38,82.03L152.01,92.84L151.55,121.10L146.42,116.99L146.31,123.95L155.24,124.12L155.24,129.36L136.64,129.36L136.64,124.12L145.86,123.95L145.83,117.03L145.18,116.80L145.28,115.90L141.86,113.04L141.29,112.75L141.29,93.21L141.58,82.40L141.76,78.88L142.72,78.89z"/></g><g id="hotspot.8" onmouseover="ShowHotSpot(evt,'8')" onmouseout="HideHotSpot(evt,'8')" onmousemove="ShowToolTip(evt,'8',&quot;3dp3240987 (I_KNH HNG 03.18)&quot;)" opacity="0"><path style="fill:#00ff00;fill-rule:evenodd" d="M141.47,52.55L141.47,47.31L160.08,47.31L160.08,52.55L151.14,52.71L151.06,56.32L150.90,56.21L150.69,52.71zM150.31,57.88L150.96,57.65L151.06,56.32L151.46,57.64L152.35,58.45L161.20,60.41L161.77,74.63L161.77,89.83L160.91,89.73L152.38,86.87L152.38,82.03L142.91,78.99L142.14,60.69L142.04,56.41L143.28,56.43zM99.75,65.53L100.04,97.51L99.18,97.41L84.68,90.28L84.39,83.17L84.39,60.67z"/></g><g id="hotspot.9" onmouseover="ShowHotSpot(evt,'9')" onmouseout="HideHotSpot(evt,'9')" onmousemove="ShowToolTip(evt,'9',&quot;3dp3240988 (I_KNH HNG 04.19)&quot;)" opacity="0"><path style="fill:#00ff00;fill-rule:evenodd" d="M127.67,52.97L127.96,53.26L128.20,55.29L129.06,74.46L127.90,74.36L115.40,70.34L115.12,74.46L114.83,72.36L111.42,71.22L111.14,67.80L110.28,53.01L110.19,49.29zM72.73,57.00L73.01,60.69L73.30,76.05L73.61,84.96L65.83,81.41L66.21,82.31L65.54,82.60L65.52,86.11L74.45,86.28L74.45,91.52L55.84,91.52L55.84,86.28L65.06,86.11L65.04,82.61L64.39,82.38L64.81,80.87L59.36,78.04L58.79,65.24L58.70,52.70z"/></g><g id="hotspot.10" onmouseover="ShowHotSpot(evt,'10')" onmouseout="HideHotSpot(evt,'10')" onmousemove="ShowToolTip(evt,'10',&quot;3dp3241328&quot;)" opacity="0"><path style="fill:#00ff00;fill-rule:evenodd" d="M210.03,67.34L210.03,62.10L228.64,62.10L228.64,67.34L219.70,67.51L219.72,72.73L220.69,73.18L223.54,73.74L223.83,74.03L223.79,82.68L223.15,82.90L215.83,83.83L211.45,84.12L211.54,71.21L216.67,72.37L219.24,72.75L219.25,67.51z"/></g><g id="hotspot.11" onmouseover="ShowHotSpot(evt,'11')" onmouseout="HideHotSpot(evt,'11')" onmousemove="ShowToolTip(evt,'11',&quot;3dp3241329&quot;)" opacity="0"><path style="fill:#00ff00;fill-rule:evenodd" d="M184.71,61.93L184.71,56.70L203.32,56.70L203.32,61.93L194.39,62.10L194.42,66.47L195.04,66.66L194.65,67.52L211.28,71.21L211.29,84.41L183.68,88.09L180.16,88.39L179.97,64.38L191.93,66.95L193.03,67.02L193.91,66.46L193.93,62.10z"/></g><g id="hotspot.12" onmouseover="ShowHotSpot(evt,'12')" onmouseout="HideHotSpot(evt,'12')" onmousemove="ShowToolTip(evt,'12',&quot;3dp3241623&quot;)" opacity="0"><path style="fill:#00ff00;fill-rule:evenodd" d="M51.14,73.58L50.26,73.17L49.60,73.18L48.27,73.89L47.98,73.23L43.33,73.20L43.16,75.30L24.55,75.30L24.55,70.07L43.16,70.07L43.33,72.74L47.98,72.71L48.28,72.09L48.83,72.18L49.12,69.60L49.60,52.44L49.91,50.12L50.23,50.12z"/></g><g id="hotspot.13" onmouseover="ShowHotSpot(evt,'13')" onmouseout="HideHotSpot(evt,'13')" onmousemove="ShowToolTip(evt,'13',&quot;3dp3281053 (I_KNH CA KHCH.6)&quot;)" opacity="0"><path style="fill:#00ff00;fill-rule:evenodd" d="M104.04,49.29L104.61,50.15L105.66,69.37L105.99,69.37L106.01,64.39L105.07,49.57L108.01,50.17L109.71,50.74L110.00,51.87L111.04,71.02L114.83,72.36L114.83,104.62L113.97,104.52L107.92,101.46L107.72,96.82L107.47,72.03L107.15,71.71L106.78,71.75L106.87,100.92L104.80,100.19L105.19,101.08L104.52,101.38L104.49,105.17L113.42,105.34L113.42,110.58L94.82,110.58L94.82,105.34L104.04,105.17L104.01,101.38L103.36,101.16L103.78,99.65L100.61,97.96L100.33,91.70L100.24,67.81L100.88,67.60L100.89,62.68L99.95,48.43zM53.96,52.73L54.84,75.86L51.40,74.34L50.83,63.54L50.45,51.56zM58.22,54.15L59.07,77.88L58.52,77.80L55.38,76.05L54.81,63.82L54.72,52.99zM134.47,56.14L134.75,60.41L135.31,76.46L134.45,76.36L129.55,74.71L129.32,74.09L128.37,55.01L129.63,55.01zM141.03,57.54L141.57,57.85L141.86,60.98L142.42,78.73L141.56,78.64L136.17,76.91L135.23,56.39zM77.85,60.41L78.70,87.18L78.15,87.18L73.87,85.15L73.58,79.18L73.30,69.51L73.21,58.96zM83.83,62.40L84.11,80.32L84.39,90.11L83.83,90.03L79.28,87.71L78.99,81.17L78.70,68.94L78.61,60.67zM169.73,64.11L170.02,71.50L170.04,90.95L169.16,92.37L162.25,90.09L161.77,64.11L161.68,62.38L162.62,62.39zM179.16,66.06L179.45,66.34L179.71,88.68L175.05,89.42L171.44,90.39L170.79,64.36z"/></g><g id="hotspot.14" onmouseover="ShowHotSpot(evt,'14')" onmouseout="HideHotSpot(evt,'14')" onmousemove="ShowToolTip(evt,'14',&quot;3dp3284655 (I_3DPart3284655.3)&quot;)" opacity="0"><path style="fill:#00ff00;fill-rule:evenodd" d="M48.83,49.60L47.96,71.93L47.63,71.93L47.13,62.11L46.84,52.98L46.19,52.97L45.43,53.41L45.13,52.74L42.19,52.71L42.02,54.82L23.41,54.82L23.41,49.58L42.02,49.58L42.19,52.26L45.13,52.23L45.43,51.56L45.99,51.90L46.56,51.99L47.04,49.32L48.29,49.29z"/></g></g></svg>
