<?xml version="1.0" encoding="UTF-8" standalone="no"?>
<svg xmlns="http://www.w3.org/2000/svg" xmlns:xlink="http://www.w3.org/1999/xlink" width="297.000mm" height="210.000mm" viewBox="0.000000 0.000000 297.000000 210.000000" stroke-linejoin="round" stroke-linecap="round" fill="none" fill-rule="evenodd"><desc>Composer Export</desc><script type="text/ecmascript"><![CDATA[
if(typeof(top) != "undefined")
{
	top.ShowPaper = ShowPaper;
}
function ShowHotSpot(evt,hotspotid)
{
	var svgDocument = evt.target.ownerDocument;
	var strId = "hotspot."+hotspotid;
	var hotspot = svgDocument.getElementById(strId);
	if(hotspot)
		hotspot.setAttribute("opacity",".5");
}
function HideHotSpot(evt,hotspotid)
{
	var svgDocument = evt.target.ownerDocument;
	var strId = "hotspot."+hotspotid;
	var hotspot = svgDocument.getElementById(strId);
	if(hotspot)
		hotspot.setAttribute("opacity","0");

	var toolTip = svgDocument.getElementById('ToolTip');
	if(toolTip)
		toolTip.setAttribute("visibility","hidden");
}
function ShowToolTip(evt,hotspotid,strTooltip)
{
	if(strTooltip=="")
	return;

	// change text
	var svgDocument = evt.target.ownerDocument;
	var tiptext = svgDocument.getElementById('ToolTipText');
	if( !tiptext )
	return;
	tiptext.firstChild.nodeValue = " " + strTooltip + "  " ;

	// show tooltip before, else some refresh issue

	var toolTip = svgDocument.getElementById('ToolTip');
	if(!toolTip)
	return;

	toolTip.setAttribute("visibility","visible");
	toolTip.setAttribute("opacity",".95");

	// move tooltip
	// get viewbox

	var root = svgDocument.documentElement;
	var vbox = (root.getAttribute("viewBox")).split(' ');
	var x0 = parseFloat(vbox[0]);
	var y0 = parseFloat(vbox[1]);
	var vboxW = parseFloat(vbox[2]);
	var vboxH = parseFloat(vbox[3]);

	// get default width of svg

	var strW = root.getAttribute("width");
	var svgW = parseFloat(strW);
	if(strW.indexOf('mm') != -1)
	svgW *= 3.779;

	var strH = root.getAttribute("height");
	var svgH = parseFloat(strH);
	if(strH.indexOf('mm') != -1)
	svgH *= 3.779;  	// 96 dpi  -> 96/25.4 = 3.779

	// update the viewbox / width / height if svg is embedded in html with zoom fit all
	var realx0 = x0;
	var realy0 = y0;
	var realvboxW = vboxW;
	var realvboxH = vboxH;
	var realsvgW = svgW;
	var realsvgH = svgH;

	if ((typeof(top) == "undefined") || (typeof(top.svgctl1) != "undefined")) // embedded in html
	{
		// get window size in pxl

		svgW = window.innerWidth;
		svgH = window.innerHeight;

		// calculate real viewbox

		realsvgW = svgW;
		realsvgH = svgH;
		if((svgW / svgH) > (vboxW / vboxH))
		{
			realvboxW = (vboxH * svgW) / svgH;
			realvboxH = vboxH;
			realx0 = x0 - (realvboxW - vboxW)/2 ;
		}
		else
		{
			realvboxH = (vboxW * svgH) / svgW;
			realvboxW = vboxW;
			realy0 = y0 - (realvboxH - vboxH)/2 ;
		}
	}

	// get user zoom/pan

	var newScale = root.currentScale;
	var translation = root.currentTranslate;

	// transform pxl to user unit

	var xPos = (((evt.clientX+10- translation.x)/newScale) * realvboxW)/realsvgW  + realx0 ;
	var yPos = (((evt.clientY+5- translation.y)/newScale) * realvboxH)/ realsvgH  + realy0 ;
	var scaleForWidth = ( (1 / newScale) * realvboxH) / realsvgH;

	// move tooltip

	toolTip.setAttribute("transform", "translate(" + xPos + "," + yPos + ")" );

	// resize tooltip

	var fontsize = 12;
	tiptext.setAttribute("font-size",fontsize*scaleForWidth);
	tiptext.setAttribute("y", fontsize*scaleForWidth);
	var tipBG = svgDocument.getElementById('ToolTipBG');
	var outline = tiptext.getBBox();
	if(tipBG)
	{
		tipBG.setAttribute("stroke-width", 1*scaleForWidth);
		tipBG.setAttribute("width", Number(outline.width) );
		tipBG.setAttribute("height", Number(outline.height) + fontsize*.5*scaleForWidth );
	}
	var ToolTipShadow = svgDocument.getElementById('ToolTipShadow');
	if(ToolTipShadow)
	{
		ToolTipShadow.setAttribute("width", Number(outline.width) );
		ToolTipShadow.setAttribute("height", Number(outline.height) + fontsize*.5*scaleForWidth );
		ToolTipShadow.setAttribute("x", 3*scaleForWidth);
		ToolTipShadow.setAttribute("y", 3*scaleForWidth);
	}
}
function ShowPaper()
{
  var svgDocument = getDocument();
  var paper = svgDocument.getElementById("paperID");
  if(paper)
  {
    paper.setAttribute("transform","scale(1)");
    paper.setAttribute("opacity","1");
    paper.setAttribute("visibility","visible");
  }
  var svg = svgDocument.getRootElement();
  if(svg)
  {
    svg.setAttribute("width","307.000mm");
    svg.setAttribute("height","220.000mm");
    svg.setAttribute("viewBox","-5.000000 -5.000000 307.000000 220.000000");
  }
}
]]></script><defs/><g><g id="Actor_23.0"><g style="stroke:#000000;stroke-width:0.123"><path d="M98.05,156.90L98.03,156.09L98.06,157.87L97.80,160.90L96.75,160.57L96.59,160.36L96.84,157.25L96.55,147.11L94.94,106.28L93.20,78.22L90.82,49.26L91.55,50.35L92.39,51.21"/><path d="M90.82,49.26L90.85,49.25"/><path d="M91.23,49.24L91.35,48.97"/><path d="M91.27,49.13L91.27,49.24"/><path d="M91.26,49.13L91.21,49.05"/><path d="M91.39,49.23L91.44,49.23"/><path d="M92.55,54.25L92.56,54.38L92.52,53.91L92.55,54.25"/><path d="M92.59,54.71L92.56,54.38L93.37,63.91L93.21,61.95"/><path d="M92.52,53.91L92.45,53.10L92.52,53.91"/><path d="M92.45,53.10L92.38,52.30L92.45,53.10"/><path d="M92.41,51.21L94.72,80.12L96.47,109.43L97.43,132.58L98.19,157.61L97.92,160.91L97.80,160.90"/><path d="M92.38,52.30L92.29,51.16"/><path d="M92.31,51.49L92.27,51.13"/><path d="M91.84,48.95L91.84,48.93"/><path d="M91.96,48.93L91.85,48.93"/><path d="M93.37,63.91L94.15,74.02L94.09,73.22"/><path d="M92.73,56.32L93.07,60.34"/><path d="M97.96,160.44L98.31,160.39L98.37,160.11L98.62,156.93L97.09,112.77L95.31,81.70L92.90,51.20"/><path d="M94.15,74.02L94.97,85.65L94.89,84.48"/><path d="M93.97,71.61L93.66,67.59"/><path d="M93.53,65.98L93.40,64.37"/><path d="M94.50,78.85L94.78,82.87"/><path d="M94.39,77.24L94.17,74.26"/><path d="M95.76,98.43L95.70,97.36L95.78,98.84L95.76,98.43"/><path d="M95.70,97.36L95.65,96.55L95.70,97.36"/><path d="M95.65,96.55L95.60,95.75L95.65,96.55"/><path d="M95.51,94.14L95.46,93.33L95.60,95.75"/><path d="M95.46,93.33L95.41,92.61L95.46,93.33"/><path d="M95.41,92.53L95.31,90.92L95.36,91.72"/><path d="M95.31,90.92L95.26,90.11L95.31,90.92"/><path d="M95.26,90.11L95.10,87.70L95.16,88.51"/><path d="M95.10,87.70L95.05,86.90L95.10,87.70"/><path d="M95.05,86.90L94.98,85.74L95.00,86.09"/><path d="M97.23,130.34L97.37,134.37L96.53,113.45L96.57,114.25"/><path d="M96.53,113.45L96.50,112.64L96.53,113.45"/><path d="M96.50,112.64L96.46,111.84L96.50,112.64"/><path d="M96.46,111.84L96.42,111.03L96.46,111.84"/><path d="M96.42,111.03L96.38,110.23L96.42,111.03"/><path d="M96.38,110.23L96.26,107.82L96.30,108.62"/><path d="M96.26,107.82L96.22,107.01L96.26,107.82"/><path d="M96.22,107.01L96.18,106.21L96.22,107.01"/><path d="M96.18,106.21L96.14,105.40L96.18,106.21"/><path d="M96.14,105.40L96.05,103.79L96.10,104.60"/><path d="M96.05,103.79L96.01,102.99L96.05,103.79"/><path d="M96.01,102.99L95.97,102.18L96.01,102.99"/><path d="M95.97,102.18L95.92,101.38L95.97,102.18"/><path d="M95.88,100.57L95.92,101.38L95.79,98.97L95.83,99.77"/><path d="M95.79,98.97L95.78,98.84"/><path d="M97.37,134.37L98.03,156.09"/><path d="M97.20,129.54L97.14,127.93"/><path d="M97.11,127.13L97.04,125.52"/><path d="M97.01,124.71L96.95,123.10"/><path d="M96.88,121.49L96.82,119.89"/><path d="M96.68,116.67L96.78,119.08"/><path d="M98.01,155.29L97.99,154.48"/><path d="M97.90,151.26L97.97,153.68"/><path d="M97.83,148.85L97.88,150.46"/><path d="M97.81,148.05L97.78,147.24"/><path d="M97.76,146.44L97.69,144.02"/><path d="M97.66,143.22L97.64,142.41"/><path d="M97.53,139.20L97.39,134.97"/></g></g><g id="Actor_9.0"><g style="stroke:#000000;stroke-width:0.123"><path d="M180.36,139.31L180.67,136.14L180.73,132.11L180.89,95.26L180.55,71.66L179.79,47.47L180.58,48.30"/><path d="M180.85,78.05L180.26,55.52L180.85,78.03L181.09,99.77L180.86,136.27L180.53,139.62"/><path d="M180.91,131.95L180.84,136.45L180.54,139.63L180.90,135.21L181.10,96.55L180.77,72.62L180.05,48.93L180.26,55.52L180.06,49.89"/><path d="M180.03,49.08L180.02,48.88"/><path d="M180.01,48.84L180.29,48.72"/><path d="M180.31,48.94L181.02,72.41L181.35,96.15L181.18,131.94L181.12,136.46L180.81,139.56L181.13,136.64L181.18,133.80L181.37,96.43L181.05,72.83L180.33,49.08L181.05,71.06L181.41,95.75L181.21,134.37L181.16,136.77L180.83,139.63"/><path d="M180.87,139.67L181.00,139.69L181.33,136.31L181.56,98.85L181.26,73.90L180.53,49.23"/><path d="M181.00,139.69L181.37,136.23L181.60,96.99L181.29,73.41L180.57,49.23"/><path d="M180.89,49.22L181.64,75.32L181.92,100.97L181.67,136.24L181.35,139.66L181.05,139.67"/><path d="M180.56,139.35L180.38,139.32"/><path d="M180.56,139.64L180.80,139.63"/><path d="M180.92,131.15L180.95,128.74"/><path d="M180.96,127.93L180.97,126.32"/><path d="M180.98,125.52L181.00,123.10"/><path d="M181.01,122.30L181.02,120.69"/><path d="M181.03,119.89L181.05,117.47"/><path d="M181.05,116.67L181.07,113.45"/><path d="M181.07,112.64L181.09,109.43"/><path d="M181.09,108.62L181.06,94.14"/><path d="M181.05,93.33L180.87,78.85"/><path d="M181.13,54.71L181.08,53.10L181.75,78.69L181.97,103.57"/><path d="M181.08,53.10L181.05,52.30L181.08,53.10"/><path d="M181.05,52.30L181.02,51.49L181.05,52.30"/><path d="M181.02,51.49L180.99,50.69L181.02,51.49"/><path d="M180.96,49.89L180.99,50.69L180.94,49.22L180.96,49.89"/><path d="M181.10,49.22L181.82,73.96L182.11,98.11L181.87,136.05L181.54,139.57L181.40,139.60L181.71,136.24L181.93,115.06L181.93,115.22"/><path d="M180.33,49.07L180.32,48.94"/><path d="M180.44,48.35L180.65,48.64"/><path d="M180.44,48.36L180.45,48.68"/><path d="M181.35,139.67L181.40,139.60"/><path d="M181.54,139.58L181.76,139.67L181.88,139.20L182.16,136.12L182.42,100.67L182.14,74.73L181.40,49.35"/><path d="M181.97,105.01L181.83,83.68L181.36,61.95"/><path d="M181.29,59.54L181.34,61.15"/><path d="M181.24,57.93L181.16,55.52"/><path d="M181.41,49.38L181.33,49.32"/><path d="M181.95,111.26L181.95,111.03L181.93,115.06L181.93,114.77"/><path d="M181.92,115.81L181.93,115.07"/><path d="M181.95,111.03L181.95,110.43L181.95,111.03"/><path d="M181.95,110.90L181.95,110.79"/><path d="M181.95,110.43L181.96,109.50"/><path d="M181.96,109.32L181.96,109.43L181.96,108.10L181.96,108.50"/><path d="M181.96,109.37L181.96,109.16"/><path d="M181.96,108.40L181.96,108.37"/><path d="M181.96,106.32L181.96,106.45L181.96,106.21L181.96,108.12"/><path d="M181.96,107.31L181.96,107.43L181.96,107.29"/><path d="M181.96,107.06L181.96,107.66"/><path d="M181.96,106.65L181.96,106.45"/><path d="M181.96,105.80L181.96,105.48L181.96,106.07"/><path d="M181.96,105.48L181.96,106.21L181.96,106.09"/><path d="M181.96,105.17L181.96,105.40L181.97,104.75"/><path d="M181.97,105.10L181.97,104.44"/><path d="M181.97,104.27L181.97,103.61"/><path d="M181.97,104.34L181.97,104.02"/><path d="M181.97,102.82L181.97,102.56"/></g></g><g id="Actor_18.0"><g style="stroke:#000000;stroke-width:0.123"><path d="M226.29,47.76L201.71,48.39L201.71,48.35L226.33,47.71L226.29,47.76L226.37,47.76"/><path d="M202.54,47.70L202.51,47.70L202.51,48.03L201.81,48.21L201.71,48.35"/><path d="M201.70,46.64L201.69,46.64"/><path d="M201.70,46.64L228.68,45.80"/><path d="M202.27,47.10L202.99,47.68"/><path d="M202.53,47.70L227.67,47.00"/><path d="M226.35,47.91L203.12,48.50L226.35,47.92"/><path d="M203.20,48.49L203.20,48.35"/><path d="M203.12,48.50L203.12,48.57L203.32,48.67L226.33,48.09"/><path d="M203.12,48.57L226.29,47.99L226.27,48.11"/><path d="M204.12,48.65L204.30,48.79"/><path d="M204.29,48.79L226.33,48.26"/><path d="M226.33,47.71L226.36,47.68"/><path d="M226.29,47.99L226.34,47.92"/><path d="M227.66,47.02L227.42,47.33"/><path d="M228.65,45.84L227.75,47.15"/></g></g><g id="Actor_14.0"><g style="stroke:#000000;stroke-width:0.123"><path d="M115.33,95.22L115.32,94.94L116.34,118.28L117.07,142.41L117.56,166.05L117.20,170.46L115.90,169.87L116.22,165.62L116.13,160.11L114.79,112.92L113.20,81.31L111.06,50.57"/><path d="M112.52,48.18L111.30,47.24L112.34,48.19"/><path d="M111.55,48.22L111.30,47.24"/><path d="M111.29,47.26L111.25,47.25"/><path d="M114.14,74.43L112.46,50.66"/><path d="M112.81,50.71L115.03,83.31L116.57,115.28L117.32,139.20L117.88,165.75L117.52,170.39L117.38,170.41L117.26,170.39L117.60,165.88L117.34,152.26L116.15,112.19L114.63,81.61L112.51,50.71"/><path d="M117.38,170.41L117.74,166.35L117.66,161.28L117.08,135.68L116.33,112.90L114.83,82.37L112.66,50.71"/><path d="M112.45,50.65L112.45,50.61"/><path d="M113.07,58.74L113.03,58.29"/><path d="M117.52,170.36L117.93,170.34L118.28,165.75L117.10,118.52L115.54,84.96L113.24,50.70"/><path d="M113.42,50.69L115.59,82.64L117.11,114.05L118.40,162.53L118.44,166.17L118.09,170.29L118.42,166.09L118.33,160.65L117.06,113.68L115.52,82.07L113.39,50.69"/><path d="M114.65,82.78L114.11,74.02"/><path d="M114.06,73.20L114.06,73.22"/><path d="M114.07,50.68L116.14,81.27L117.69,112.99L118.40,135.02L119.01,162.88L119.05,166.13L118.69,170.28L118.43,170.14L118.80,165.60L118.42,146.20L117.34,110.61L115.84,80.63L113.80,50.69"/><path d="M115.32,94.94L114.58,81.64"/><path d="M115.28,94.14L115.27,94.10"/><path d="M117.21,170.37L117.24,170.39"/><path d="M117.75,170.32L117.70,170.32"/><path d="M118.06,170.33L117.93,170.34"/><path d="M118.43,170.14L118.10,170.18"/></g></g><g id="Actor_8.0"><g style="stroke:#000000;stroke-width:0.123"><path d="M179.78,47.32L202.23,46.62L202.19,46.68L202.28,47.25L202.34,47.93L202.30,48.04L202.21,48.02L202.18,47.73L202.15,47.71L202.14,48.07L201.46,48.22L201.35,48.36L180.03,48.90"/><path d="M202.17,47.71L180.45,48.31L180.42,48.31L180.43,48.34L180.64,48.62L180.24,48.73"/><path d="M180.03,48.90L180.05,48.93L180.29,48.94L201.35,48.40L201.35,48.36"/><path d="M180.58,48.30L179.78,47.38L179.77,47.32"/><path d="M199.83,48.58L180.36,49.07L180.37,49.13L180.53,49.23L199.83,48.76"/><path d="M199.83,48.65L180.38,49.13"/><path d="M180.41,49.06L180.32,48.94"/><path d="M199.83,48.58L180.42,49.07"/><path d="M199.84,48.90L181.39,49.35L181.32,49.32L181.27,49.21"/><path d="M200.06,48.44L200.06,48.49"/><path d="M200.45,48.43L200.45,48.44"/><path d="M201.71,48.37L201.35,48.40"/><path d="M202.50,48.37L202.36,48.84L202.33,48.78L202.42,48.37"/><path d="M202.51,47.97L202.40,47.21"/><path d="M202.23,46.62L202.23,46.62"/></g></g><g id="Actor_21.0"><g style="stroke:#000000;stroke-width:0.123"><path d="M133.61,58.21L133.15,50.08L135.06,83.83L136.36,117.17L137.26,166.00L137.35,176.21L136.99,180.11L137.30,176.21L137.20,164.51L136.38,119.58L135.26,89.09L133.61,58.21"/><path d="M136.99,180.11L137.93,180.80L138.28,176.95L137.62,129.54L136.27,89.32L133.97,47.84L133.15,50.08"/><path d="M137.93,180.80L138.32,176.94L137.57,125.57L136.19,86.67L134.01,47.83L134.57,47.80L136.56,82.63L137.86,116.25L138.75,164.83L138.84,176.84L138.49,180.73L138.90,176.87L138.11,123.57L136.74,85.29L134.61,47.53L134.57,47.80"/><path d="M133.97,47.76L134.01,47.83"/><path d="M138.54,180.77L139.00,177.03L138.97,171.73L138.59,140.80L138.03,116.26L136.54,78.64L134.73,47.42L134.61,47.51"/><path d="M134.73,47.42L135.37,55.52L136.66,78.62L138.15,116.24L138.71,140.49L139.09,171.70L139.12,177.00L138.65,180.78"/><path d="M134.87,47.55L135.36,47.40L135.40,47.55L136.24,61.05L137.47,84.48L138.39,107.47L139.37,150.31L139.62,176.71L139.39,180.65"/><path d="M139.42,180.36L139.74,176.67L139.60,160.11L138.71,113.67L137.24,77.24L135.95,54.24L135.39,47.37"/><path d="M139.66,177.82L139.50,150.24L138.84,117.47L137.52,82.52L135.56,47.72L136.01,47.59L137.59,74.83L137.43,71.61"/><path d="M139.40,180.54L139.72,180.50L140.09,176.42L139.81,147.75L139.28,120.84L138.00,85.09L135.93,47.69"/><path d="M136.01,47.59L136.21,50.69"/><path d="M135.52,47.36L135.56,47.72"/><path d="M136.85,61.16L136.75,59.54"/><path d="M136.71,58.74L136.51,55.52"/><path d="M136.46,54.71L136.41,53.91"/><path d="M136.36,53.10L136.26,51.49"/><path d="M137.72,77.24L137.59,74.83L138.82,102.99L139.63,131.95L140.18,176.44L139.72,180.50"/><path d="M137.38,70.80L137.34,70.00"/><path d="M137.30,69.20L137.21,67.59"/><path d="M137.08,65.17L136.99,63.56"/><path d="M136.94,62.76L136.89,61.95"/><path d="M138.49,180.68L137.97,180.76"/><path d="M138.48,94.14L138.41,92.53"/><path d="M138.38,91.72L137.87,80.46"/><path d="M137.80,78.85L137.76,78.05"/><path d="M138.78,180.72L139.26,180.70"/><path d="M138.81,180.70L138.83,180.69"/><path d="M139.12,111.84L139.35,119.89"/><path d="M139.09,111.03L139.04,109.43"/><path d="M139.01,108.62L138.99,107.82"/><path d="M138.96,107.01L138.90,105.40"/><path d="M138.88,104.60L138.85,103.79"/><path d="M138.82,102.99L138.76,101.38"/><path d="M138.73,100.57L138.67,98.97"/><path d="M138.64,98.16L138.51,94.94"/><path d="M139.99,178.62L140.07,177.82"/><path d="M140.04,159.31L140.07,161.72"/><path d="M140.03,158.51L140.03,157.70"/><path d="M140.01,156.09L140.02,156.90"/><path d="M140.00,155.29L139.99,154.48"/><path d="M139.98,153.68L139.97,152.87"/><path d="M139.96,152.07L139.83,143.22"/><path d="M139.82,142.41L139.81,141.61"/><path d="M139.79,140.80L139.78,140.00"/><path d="M139.77,139.20L139.68,134.37"/><path d="M139.66,133.56L139.47,124.71"/><path d="M139.43,123.10L139.41,122.30"/><path d="M139.39,121.49L139.37,120.69"/><path d="M140.18,175.40L140.17,174.60"/><path d="M140.17,173.79L140.14,170.57"/><path d="M140.14,169.77L140.13,168.97"/><path d="M140.13,168.16L140.12,167.36"/><path d="M140.11,165.75L140.11,166.55"/><path d="M140.10,164.94L140.09,164.14"/><path d="M140.08,163.33L140.08,162.53"/></g></g><g id="Actor_20.0"><g style="stroke:#000000;stroke-width:0.123"><path d="M90.86,49.25L90.95,49.25L90.86,49.25"/><path d="M90.95,49.25L91.76,49.22L90.95,49.25"/><path d="M90.82,49.25L91.47,50.24L92.38,51.21L111.08,50.75"/><path d="M91.21,49.05L91.26,49.13L134.55,47.61L134.60,47.51L91.21,49.05L91.23,48.97L91.76,48.95L91.35,48.97"/><path d="M91.38,49.12L91.44,49.23"/><path d="M91.76,49.22L95.78,49.08L94.98,49.11"/><path d="M91.76,48.95L91.96,48.93"/><path d="M91.23,48.97L91.35,48.96"/><path d="M92.28,51.12L111.07,50.64"/><path d="M91.95,48.92L92.56,48.90L91.84,48.93"/><path d="M91.85,48.95L92.56,48.92L91.85,48.95"/><path d="M92.56,48.92L111.07,48.26L110.27,48.29"/><path d="M92.56,48.90L110.27,48.27L109.46,48.30"/><path d="M95.78,49.08L96.59,49.05L95.78,49.08"/><path d="M96.59,49.05L119.12,48.28L118.32,48.30"/><path d="M110.27,48.27L135.51,47.36L122.34,47.84"/><path d="M111.07,48.26L134.84,47.41"/><path d="M119.12,48.28L133.96,47.76L133.48,48.79L133.13,50.08L133.03,50.20L112.46,50.72"/><path d="M133.13,50.08L112.45,50.61"/><path d="M123.15,47.83L134.84,47.41"/><path d="M133.61,47.78L133.96,47.76"/><path d="M134.01,47.83L134.57,47.79L134.01,47.81"/><path d="M134.55,47.61L134.56,47.61"/><path d="M134.60,47.51L134.72,47.42"/><path d="M134.86,47.54L135.06,47.59L135.38,47.37"/><path d="M135.09,47.58L135.03,47.61"/><path d="M135.12,47.57L135.04,47.61"/><path d="M135.56,47.72L135.90,47.69L136.00,47.60"/><path d="M135.90,47.69L135.56,47.70"/><path d="M136.00,47.59L135.55,47.60"/><path d="M135.99,47.59L135.69,47.60"/><path d="M135.53,47.44L135.52,47.40"/></g></g><g id="Actor_12.0"><g style="stroke:#000000;stroke-width:0.123"><path d="M226.40,47.60L226.46,76.44L226.18,102.41L225.04,144.37L224.90,148.34L224.51,151.90L225.00,146.84L226.21,102.62L226.51,75.27L226.40,47.65L226.57,47.47L227.36,47.34L227.73,46.94"/><path d="M224.54,151.91L225.77,151.96L226.18,148.73L226.79,130.94L227.39,108.62L227.73,87.93L227.85,66.97L227.74,46.96"/><path d="M224.51,151.84L224.88,148.05L225.13,140.49L226.16,101.38L226.43,74.71L226.33,48.02"/><path d="M224.49,151.83L224.89,148.23L225.03,144.24L226.16,102.52L226.45,75.19L226.35,47.92"/><path d="M225.81,151.91L226.67,152.19L226.79,152.07L227.18,148.54L228.09,120.45L228.79,82.87L228.76,45.78"/><path d="M226.70,152.20L226.67,152.19"/><path d="M226.35,47.88L226.37,47.86"/><path d="M228.76,45.77L227.75,47.14"/></g></g><g id="Actor_7.0"><g style="stroke:#000000;stroke-width:0.123"><path d="M200.43,48.45L199.84,48.49L199.83,48.59L200.31,74.14L200.39,99.21L199.86,136.90L199.75,141.56L199.41,144.93L201.75,145.59L201.85,144.83L201.80,145.27"/><path d="M200.13,48.49L200.41,48.47L200.09,48.47"/><path d="M200.00,48.49L200.07,48.49"/><path d="M199.85,48.49L200.09,48.48L199.86,48.49L199.98,48.49"/><path d="M200.27,48.46L200.28,48.47"/><path d="M200.46,48.44L200.42,48.45"/><path d="M200.59,48.48L200.70,48.47L200.41,48.47"/><path d="M201.71,48.39L200.74,48.47L201.18,48.46L201.00,48.47"/><path d="M200.74,48.47L200.95,48.47L200.77,48.46"/><path d="M200.46,48.48L200.53,48.48"/><path d="M200.45,48.48L200.42,48.47"/><path d="M201.19,48.45L202.02,48.40L201.66,48.43"/><path d="M201.55,48.38L200.82,48.46"/><path d="M200.80,48.46L200.93,48.46L200.78,48.46"/><path d="M200.65,48.47L200.73,48.47"/><path d="M200.44,48.47L201.11,48.41"/><path d="M200.49,48.44L200.95,48.41"/><path d="M200.77,48.43L200.50,48.44"/><path d="M200.95,48.46L200.84,48.46"/><path d="M201.85,144.83L202.10,142.49L202.02,143.22"/><path d="M201.63,48.43L201.31,48.46L201.49,48.45"/><path d="M201.34,48.45L201.51,48.44L201.37,48.44"/><path d="M201.68,48.44L201.85,48.44L201.68,48.44"/><path d="M201.66,48.45L201.53,48.44"/><path d="M201.22,48.46L201.27,48.45"/><path d="M201.66,48.38L201.68,48.38"/><path d="M201.65,48.39L201.71,48.38"/><path d="M201.95,48.44L202.31,48.43L202.39,51.65L202.84,87.55L202.68,112.64L202.11,142.32L202.65,117.68L202.88,93.49L202.77,70.80L202.37,48.83"/><path d="M202.31,48.43L202.10,48.44"/><path d="M202.02,48.44L202.20,48.43"/><path d="M201.29,48.45L201.31,48.45"/><path d="M201.60,48.44L201.56,48.44"/><path d="M201.26,48.45L201.23,48.45"/><path d="M201.46,48.44L201.38,48.44"/><path d="M202.02,48.40L202.21,48.38"/><path d="M202.36,48.38L202.36,48.46"/></g></g><g><g><path style="stroke:#000000;stroke-width:0.208;stroke-dasharray:2.2 2.2" d="M114.12,111.31L201.63,98.03"/></g></g><g id="PMI9.0"><g><path style="stroke:#000000;stroke-width:0.281" d="M176.54,84.81L178.84,84.76"/></g><g><path style="fill:#000000" d="M178.85,85.77L178.81,83.77L180.83,84.73z"/></g><g><path style="fill:#ffffff" d="M160.19,87.52L176.53,87.52L176.53,82.44L160.19,82.44z"/><path style="stroke:#000000;stroke-width:0.281;stroke-opacity:0.98" d="M160.19,87.52L176.53,87.52L176.53,82.44L160.19,82.44z"/><text xml:space="preserve" fill="#000000" stroke-width="0" x="160.83" y="86.10" font-size="3.05" opacity="1.00" font-family="Microsoft Sans Serif">10035GM0</text></g></g><g id="PMI8.0"><g><path style="stroke:#000000;stroke-width:0.281" d="M187.67,42.86L187.68,44.91"/></g><g><path style="fill:#000000" d="M186.67,44.92L188.67,44.91L187.68,46.92z"/></g><g><path style="fill:#ffffff" d="M179.92,42.86L195.40,42.86L195.40,37.78L179.92,37.78z"/><path style="stroke:#000000;stroke-width:0.281;stroke-opacity:0.98" d="M179.92,42.86L195.40,42.86L195.40,37.78L179.92,37.78z"/><text xml:space="preserve" fill="#000000" stroke-width="0" x="180.56" y="41.44" font-size="3.04" opacity="1.00" font-family="Microsoft Sans Serif">10035GL0</text></g></g><g id="PMI21.0"><g><path style="stroke:#000000;stroke-width:0.281" d="M143.48,117.96L141.46,117.92"/></g><g><path style="fill:#000000" d="M141.48,116.92L141.44,118.92L139.46,117.88z"/></g><g><path style="fill:#ffffff" d="M143.48,120.68L159.65,120.68L159.65,115.60L143.48,115.60z"/><path style="stroke:#000000;stroke-width:0.281;stroke-opacity:0.98" d="M143.48,120.68L159.65,120.68L159.65,115.60L143.48,115.60z"/><text xml:space="preserve" fill="#000000" stroke-width="0" x="144.12" y="119.25" font-size="3.05" opacity="1.00" font-family="Microsoft Sans Serif">10035GG0</text></g></g><g id="PMI7.0"><g><path style="stroke:#000000;stroke-width:0.281" d="M206.50,93.03L204.48,92.99"/></g><g><path style="fill:#000000" d="M204.50,91.99L204.45,93.99L202.48,92.94z"/></g><g><path style="fill:#ffffff" d="M206.50,95.74L222.49,95.74L222.49,90.66L206.50,90.66z"/><path style="stroke:#000000;stroke-width:0.281;stroke-opacity:0.98" d="M206.50,95.74L222.49,95.74L222.49,90.66L206.50,90.66z"/><text xml:space="preserve" fill="#000000" stroke-width="0" x="207.13" y="94.31" font-size="3.05" opacity="1.00" font-family="Microsoft Sans Serif">10035GN0</text></g></g><g id="PMI12.0"><g><path style="stroke:#000000;stroke-width:0.281" d="M232.81,90.84L230.78,90.80"/></g><g><path style="fill:#000000" d="M230.80,89.80L230.75,91.80L228.78,90.75z"/></g><g><path style="fill:#ffffff" d="M232.80,93.55L247.41,93.55L247.41,88.47L232.80,88.47z"/><path style="stroke:#000000;stroke-width:0.281;stroke-opacity:0.98" d="M232.80,93.55L247.41,93.55L247.41,88.47L232.80,88.47z"/><text xml:space="preserve" fill="#000000" stroke-width="0" x="233.44" y="92.12" font-size="3.04" opacity="1.00" font-family="Microsoft Sans Serif">10035GI0</text></g></g><g id="PMI18.0"><g><path style="stroke:#000000;stroke-width:0.281" d="M213.81,43.13L213.77,44.64"/></g><g><path style="fill:#000000" d="M212.76,44.61L214.76,44.67L213.71,46.64z"/></g><g><path style="fill:#ffffff" d="M206.22,43.14L221.52,43.14L221.52,38.06L206.22,38.06z"/><path style="stroke:#000000;stroke-width:0.281;stroke-opacity:0.98" d="M206.22,43.14L221.52,43.14L221.52,38.06L206.22,38.06z"/><text xml:space="preserve" fill="#000000" stroke-width="0" x="206.86" y="41.71" font-size="3.04" opacity="1.00" font-family="Microsoft Sans Serif">10035GJ0</text></g></g><g id="PMI23.0"><g><path style="stroke:#000000;stroke-width:0.281" d="M90.96,102.25L93.06,102.26"/></g><g><path style="fill:#000000" d="M93.07,103.26L93.07,101.26L95.07,102.26z"/></g><g><path style="fill:#ffffff" d="M74.99,104.78L90.98,104.78L90.98,99.71L74.99,99.71z"/><path style="stroke:#000000;stroke-width:0.281;stroke-opacity:0.98" d="M74.99,104.78L90.98,104.78L90.98,99.71L74.99,99.71z"/><text xml:space="preserve" fill="#000000" stroke-width="0" x="75.62" y="103.36" font-size="3.05" opacity="1.00" font-family="Microsoft Sans Serif">10035GH0</text></g></g><g id="PMI14.0"><g><path style="stroke:#000000;stroke-width:0.281" d="M117.18,174.79L117.23,172.22"/></g><g><path style="fill:#000000" d="M118.23,172.23L116.23,172.19L117.27,170.21z"/></g><g><path style="fill:#ffffff" d="M109.23,179.86L125.05,179.86L125.05,174.78L109.23,174.78z"/><path style="stroke:#000000;stroke-width:0.281;stroke-opacity:0.98" d="M109.23,179.86L125.05,179.86L125.05,174.78L109.23,174.78z"/><text xml:space="preserve" fill="#000000" stroke-width="0" x="109.87" y="178.43" font-size="3.05" opacity="1.00" font-family="Microsoft Sans Serif">10035GK0</text></g></g><g id="PMI20.0"><g><path style="stroke:#000000;stroke-width:0.281" d="M113.74,44.50L113.72,46.55"/></g><g><path style="fill:#000000" d="M112.72,46.55L114.72,46.57L113.70,48.56z"/></g><g><path style="fill:#ffffff" d="M105.95,44.51L121.59,44.51L121.59,39.43L105.95,39.43z"/><path style="stroke:#000000;stroke-width:0.281;stroke-opacity:0.98" d="M105.95,44.51L121.59,44.51L121.59,39.43L105.95,39.43z"/><text xml:space="preserve" fill="#000000" stroke-width="0" x="106.58" y="43.08" font-size="3.04" opacity="1.00" font-family="Microsoft Sans Serif">10035GF0</text></g></g><g/><g id="paperID" visibility="hidden" opacity="0.00" transform="scale(0.000100)"><path style="stroke:#000000;stroke-width:0.500;fill:#e6e6e6;fill-rule:evenodd" d="M-2000.00,-2000.00L2297.00,-2000.00L2297.00,2210.00L-2000.00,2210.00zM0.00,0.00L297.00,0.00L297.00,210.00L0.00,210.00z"/><path style="fill:#000000;fill-opacity:0.118" d="M3.00,210.00L297.00,210.00L297.00,3.00L300.00,3.00L300.00,213.00L3.00,213.00z"/></g><g id="hotspot.0" onmouseover="ShowHotSpot(evt,'0')" onmouseout="HideHotSpot(evt,'0')" onmousemove="ShowToolTip(evt,'0',&quot;3dp3357328&quot;)" opacity="0"><path style="fill:#00ff00;fill-rule:evenodd" d="M228.87,90.35L229.78,90.05L230.63,89.69L230.63,91.41L229.21,90.73L228.87,90.76L228.68,94.98L227.31,145.94L226.80,151.96L224.46,151.69L224.85,148.68L226.22,99.91L226.49,47.30L228.03,46.66L228.58,45.81L228.70,45.84zM231.04,90.51L232.54,90.34L232.69,88.30L247.33,88.30L247.33,93.35L232.69,93.35L232.54,90.77z"/></g><g id="hotspot.1" onmouseover="ShowHotSpot(evt,'1')" onmouseout="HideHotSpot(evt,'1')" onmousemove="ShowToolTip(evt,'1',&quot;3dp3357333 (I_3DPart3294454.2)&quot;)" opacity="0"><path style="fill:#00ff00;fill-rule:evenodd" d="M112.24,47.89L111.59,47.84L111.57,47.49L111.99,47.45zM112.26,50.21L113.89,50.51L114.18,51.03L115.80,74.89L117.72,112.43L119.10,165.04L118.82,168.96L118.53,169.76L117.38,170.22L118.05,171.63L118.00,171.95L117.37,172.17L117.35,174.45L125.13,174.61L125.13,179.65L109.13,179.65L109.13,174.61L116.91,174.45L116.88,172.16L116.24,171.87L116.94,170.59L116.91,170.25L115.99,169.78L116.08,155.17L114.71,109.69L112.51,69.69L111.00,50.22L111.31,49.91L111.97,49.93z"/></g><g id="hotspot.2" onmouseover="ShowHotSpot(evt,'2')" onmouseout="HideHotSpot(evt,'2')" onmousemove="ShowToolTip(evt,'2',&quot;3dp3568628 (I_3DPart3568628.6)&quot;)" opacity="0"><path style="fill:#00ff00;fill-rule:evenodd" d="M206.12,42.93L206.12,37.89L221.57,37.89L221.57,42.93L214.07,43.09L214.09,44.29L214.69,44.47L214.05,45.85L219.28,45.85L228.67,45.54L228.03,46.65L226.67,47.21L226.19,47.83L225.61,48.06L214.08,48.31L202.93,48.31L201.74,48.07L202.63,47.51L202.65,47.19L202.40,46.91L202.26,46.40L210.51,46.12L213.37,45.94L213.40,45.60L213.03,45.01L212.98,44.50L213.60,44.29L213.62,43.09z"/></g><g id="hotspot.3" onmouseover="ShowHotSpot(evt,'3')" onmouseout="HideHotSpot(evt,'3')" onmousemove="ShowToolTip(evt,'3',&quot;3dp3249609 (I_3DPart3249609.1)&quot;)" opacity="0"><path style="fill:#00ff00;fill-rule:evenodd" d="M105.84,44.30L105.84,39.26L121.57,39.26L121.57,44.30L114.06,44.47L114.09,46.21L114.68,46.39L114.04,47.76L117.36,47.77L135.27,47.21L133.82,47.79L133.07,50.05L122.29,50.23L112.26,50.21L111.96,49.93L111.32,49.91L110.86,50.59L100.10,50.78L91.97,50.78L91.14,49.66L91.12,48.95L94.62,48.59L113.36,47.85L113.39,47.51L113.02,46.93L112.97,46.42L113.60,46.20L113.62,44.47z"/></g><g id="hotspot.4" onmouseover="ShowHotSpot(evt,'4')" onmouseout="HideHotSpot(evt,'4')" onmousemove="ShowToolTip(evt,'4',&quot;3dp3294455 (I_3DPart3294455.3)&quot;)" opacity="0"><path style="fill:#00ff00;fill-rule:evenodd" d="M136.10,47.75L138.27,88.04L139.64,130.24L140.19,176.90L139.93,179.66L139.55,180.37L137.45,180.38L137.17,180.10L137.17,158.46L136.35,117.09L134.71,76.81L133.34,52.97L133.33,48.94L133.82,47.79L135.57,47.22zM141.72,117.63L143.22,117.46L143.38,115.43L159.65,115.43L159.65,120.47L143.38,120.47L143.22,117.89zM139.56,117.63L141.31,116.81L141.31,118.54z"/></g><g id="hotspot.5" onmouseover="ShowHotSpot(evt,'5')" onmouseout="HideHotSpot(evt,'5')" onmousemove="ShowToolTip(evt,'5',&quot;prd3294457 (I_Symmetry of 3.5)&quot;)" opacity="0"><path style="fill:#00ff00;fill-rule:evenodd" d="M91.97,50.77L92.79,51.06L93.06,52.43L94.16,65.30L96.62,102.29L98.27,142.57L98.54,158.27L98.27,160.19L97.94,160.42L96.89,160.39L95.53,117.63L94.73,102.29L93.34,102.95L93.34,101.17L94.75,101.81L92.24,65.03L91.14,52.15L91.15,49.65zM91.32,101.84L92.82,102.01L91.32,102.28L91.16,104.58L74.88,104.58L74.88,99.54L91.16,99.54z"/></g><g id="hotspot.6" onmouseover="ShowHotSpot(evt,'6')" onmouseout="HideHotSpot(evt,'6')" onmousemove="ShowToolTip(evt,'6',&quot;3dp3357322 (I_3DPart3294453.1)&quot;)" opacity="0"><path style="fill:#00ff00;fill-rule:evenodd" d="M202.66,59.82L202.93,92.54L204.33,91.88L204.33,93.61L202.93,92.95L202.66,119.64L202.11,142.65L201.85,145.13L199.55,144.85L200.19,121.28L200.19,62.84L199.82,48.30L202.35,48.30zM204.73,92.70L206.23,92.53L206.39,90.50L222.67,90.50L222.67,95.54L206.39,95.54L206.23,92.96z"/></g><g id="hotspot.7" onmouseover="ShowHotSpot(evt,'7')" onmouseout="HideHotSpot(evt,'7')" onmousemove="ShowToolTip(evt,'7',&quot;3dp3357324 (I_3DPart3273477.22)&quot;)" opacity="0"><path style="fill:#00ff00;fill-rule:evenodd" d="M179.82,42.66L179.82,37.62L195.54,37.62L195.54,42.66L187.76,42.82L187.78,44.56L188.41,44.78L188.46,45.09L187.62,46.51L186.70,44.75L187.30,44.56L187.32,42.82zM202.41,46.93L202.38,47.84L199.85,48.34L199.62,48.65L191.34,48.86L180.14,48.85L180.52,48.05L179.82,47.20L202.09,46.38z"/></g><g id="hotspot.8" onmouseover="ShowHotSpot(evt,'8')" onmouseout="HideHotSpot(evt,'8')" onmousemove="ShowToolTip(evt,'8',&quot;3dp3357325 (I_3DPart3222892.68)&quot;)" opacity="0"><path style="fill:#00ff00;fill-rule:evenodd" d="M180.51,48.05L180.14,48.85L181.29,49.13L181.56,52.15L182.38,87.77L182.38,120.73L182.11,137.17L181.85,139.38L180.44,139.28L180.74,134.98L180.74,84.73L180.40,84.71L179.10,85.42L179.10,83.63L180.20,84.24L180.74,84.32L180.19,57.08L179.81,47.49zM176.80,84.31L178.57,84.48L176.80,84.74L176.64,87.32L160.09,87.32L160.09,82.28L176.64,82.28z"/></g></g></svg>
