<?xml version="1.0" encoding="UTF-8" standalone="no"?>
<svg xmlns="http://www.w3.org/2000/svg" xmlns:xlink="http://www.w3.org/1999/xlink" width="297.000mm" height="210.000mm" viewBox="0.000000 0.000000 297.000000 210.000000" stroke-linejoin="round" stroke-linecap="round" fill="none" fill-rule="evenodd"><desc>Composer Export</desc><script type="text/ecmascript"><![CDATA[
if(typeof(top) != "undefined")
{
	top.ShowPaper = ShowPaper;
}
function ShowHotSpot(evt,hotspotid)
{
	var svgDocument = evt.target.ownerDocument;
	var strId = "hotspot."+hotspotid;
	var hotspot = svgDocument.getElementById(strId);
	if(hotspot)
		hotspot.setAttribute("opacity",".5");
}
function HideHotSpot(evt,hotspotid)
{
	var svgDocument = evt.target.ownerDocument;
	var strId = "hotspot."+hotspotid;
	var hotspot = svgDocument.getElementById(strId);
	if(hotspot)
		hotspot.setAttribute("opacity","0");

	var toolTip = svgDocument.getElementById('ToolTip');
	if(toolTip)
		toolTip.setAttribute("visibility","hidden");
}
function ShowToolTip(evt,hotspotid,strTooltip)
{
	if(strTooltip=="")
	return;

	// change text
	var svgDocument = evt.target.ownerDocument;
	var tiptext = svgDocument.getElementById('ToolTipText');
	if( !tiptext )
	return;
	tiptext.firstChild.nodeValue = " " + strTooltip + "  " ;

	// show tooltip before, else some refresh issue

	var toolTip = svgDocument.getElementById('ToolTip');
	if(!toolTip)
	return;

	toolTip.setAttribute("visibility","visible");
	toolTip.setAttribute("opacity",".95");

	// move tooltip
	// get viewbox

	var root = svgDocument.documentElement;
	var vbox = (root.getAttribute("viewBox")).split(' ');
	var x0 = parseFloat(vbox[0]);
	var y0 = parseFloat(vbox[1]);
	var vboxW = parseFloat(vbox[2]);
	var vboxH = parseFloat(vbox[3]);

	// get default width of svg

	var strW = root.getAttribute("width");
	var svgW = parseFloat(strW);
	if(strW.indexOf('mm') != -1)
	svgW *= 3.779;

	var strH = root.getAttribute("height");
	var svgH = parseFloat(strH);
	if(strH.indexOf('mm') != -1)
	svgH *= 3.779;  	// 96 dpi  -> 96/25.4 = 3.779

	// update the viewbox / width / height if svg is embedded in html with zoom fit all
	var realx0 = x0;
	var realy0 = y0;
	var realvboxW = vboxW;
	var realvboxH = vboxH;
	var realsvgW = svgW;
	var realsvgH = svgH;

	if ((typeof(top) == "undefined") || (typeof(top.svgctl1) != "undefined")) // embedded in html
	{
		// get window size in pxl

		svgW = window.innerWidth;
		svgH = window.innerHeight;

		// calculate real viewbox

		realsvgW = svgW;
		realsvgH = svgH;
		if((svgW / svgH) > (vboxW / vboxH))
		{
			realvboxW = (vboxH * svgW) / svgH;
			realvboxH = vboxH;
			realx0 = x0 - (realvboxW - vboxW)/2 ;
		}
		else
		{
			realvboxH = (vboxW * svgH) / svgW;
			realvboxW = vboxW;
			realy0 = y0 - (realvboxH - vboxH)/2 ;
		}
	}

	// get user zoom/pan

	var newScale = root.currentScale;
	var translation = root.currentTranslate;

	// transform pxl to user unit

	var xPos = (((evt.clientX+10- translation.x)/newScale) * realvboxW)/realsvgW  + realx0 ;
	var yPos = (((evt.clientY+5- translation.y)/newScale) * realvboxH)/ realsvgH  + realy0 ;
	var scaleForWidth = ( (1 / newScale) * realvboxH) / realsvgH;

	// move tooltip

	toolTip.setAttribute("transform", "translate(" + xPos + "," + yPos + ")" );

	// resize tooltip

	var fontsize = 12;
	tiptext.setAttribute("font-size",fontsize*scaleForWidth);
	tiptext.setAttribute("y", fontsize*scaleForWidth);
	var tipBG = svgDocument.getElementById('ToolTipBG');
	var outline = tiptext.getBBox();
	if(tipBG)
	{
		tipBG.setAttribute("stroke-width", 1*scaleForWidth);
		tipBG.setAttribute("width", Number(outline.width) );
		tipBG.setAttribute("height", Number(outline.height) + fontsize*.5*scaleForWidth );
	}
	var ToolTipShadow = svgDocument.getElementById('ToolTipShadow');
	if(ToolTipShadow)
	{
		ToolTipShadow.setAttribute("width", Number(outline.width) );
		ToolTipShadow.setAttribute("height", Number(outline.height) + fontsize*.5*scaleForWidth );
		ToolTipShadow.setAttribute("x", 3*scaleForWidth);
		ToolTipShadow.setAttribute("y", 3*scaleForWidth);
	}
}
function ShowPaper()
{
  var svgDocument = getDocument();
  var paper = svgDocument.getElementById("paperID");
  if(paper)
  {
    paper.setAttribute("transform","scale(1)");
    paper.setAttribute("opacity","1");
    paper.setAttribute("visibility","visible");
  }
  var svg = svgDocument.getRootElement();
  if(svg)
  {
    svg.setAttribute("width","307.000mm");
    svg.setAttribute("height","220.000mm");
    svg.setAttribute("viewBox","-5.000000 -5.000000 307.000000 220.000000");
  }
}
]]></script><defs/><g><g><g><path style="stroke:#000000;stroke-width:0.350;fill:#ffffff" d="M160.99,141.52L160.58,140.74L160.21,139.94L159.89,139.12L159.60,138.29L159.35,137.45L159.15,136.59L158.99,135.72L158.88,134.85L158.80,133.97L158.78,133.09L158.79,132.21L158.85,131.33L158.96,130.46L159.10,129.59L159.29,128.73L159.53,127.88L159.80,127.04L160.12,126.22L160.48,125.42L160.87,124.63L161.31,123.87L161.78,123.12L162.30,122.41L162.84,121.72L163.42,121.05L164.03,120.42L164.67,119.82L165.35,119.25L166.05,118.71L166.76,118.22L166.76,118.22L166.14,118.80L165.54,119.40L164.98,120.03L164.45,120.69L163.95,121.38L163.49,122.09L163.06,122.82L162.68,123.58L162.32,124.35L162.01,125.14L161.74,125.94L161.51,126.75L161.32,127.58L161.17,128.41L161.06,129.25L161.00,130.10L160.98,130.95L160.99,131.79L161.06,132.64L161.16,133.48L161.31,134.31L161.49,135.14L161.72,135.96L161.99,136.76L162.30,137.55L162.65,138.32L163.04,139.08L163.46,139.81L163.58,140.00z"/></g><g><path style="fill:#ffffff" d="M171.42,141.20L171.37,142.18L171.23,143.15L170.99,144.10L170.66,145.02L170.24,145.91L169.73,146.75L169.15,147.54L168.49,148.27L167.76,148.93L166.98,149.51L166.13,150.01L165.25,150.43L164.32,150.77L163.37,151.00L162.40,151.15L161.42,151.20L160.44,151.15L159.47,151.00L158.52,150.77L157.59,150.43L156.71,150.01L155.86,149.51L155.08,148.93L154.35,148.27L153.69,147.54L153.10,146.75L152.60,145.91L152.18,145.02L151.85,144.10L151.61,143.15L151.47,142.18L151.42,141.20L151.47,140.22L151.61,139.24L151.85,138.29L152.18,137.37L152.60,136.48L153.10,135.64L153.69,134.85L154.35,134.12L155.08,133.47L155.86,132.88L156.71,132.38L157.59,131.96L158.52,131.63L159.47,131.39L160.44,131.24L161.42,131.20L162.40,131.24L163.37,131.39L164.32,131.63L165.25,131.96L166.13,132.38L166.98,132.88L167.76,133.47L168.49,134.12L169.15,134.85L169.73,135.64L170.24,136.48L170.66,137.37L170.99,138.29L171.23,139.24L171.37,140.22L171.42,141.20z"/><path style="stroke:#ff0000;stroke-width:0.864;stroke-opacity:0.00" d="M170.92,141.20L170.74,143.05L170.20,144.83L169.32,146.47L168.14,147.91L166.70,149.09L165.05,149.97L163.27,150.51L161.42,150.70L159.57,150.51L157.78,149.97L156.14,149.09L154.70,147.91L153.52,146.47L152.64,144.83L152.10,143.05L151.92,141.20L152.10,139.34L152.64,137.56L153.52,135.92L154.70,134.48L156.14,133.30L157.78,132.42L159.57,131.88L161.42,131.70L163.27,131.88L165.05,132.42L166.70,133.30L168.14,134.48L169.32,135.92L170.20,137.56L170.74,139.34L170.92,141.20"/><path style="stroke:#000000;stroke-width:0.150" d="M166.88,141.97L166.86,141.93L167.11,142.30L167.27,142.51L167.47,142.74L167.61,142.63L167.88,142.49L167.95,142.44L167.86,142.49L167.76,142.52L167.67,142.54L167.57,142.54L167.48,142.52L167.38,142.47L167.29,142.42L167.15,142.30L166.97,142.09L166.88,141.97L166.77,141.76L166.63,141.44L166.49,141.00L166.40,140.52L166.36,140.13L166.35,139.65L166.38,139.28L166.42,139.02L166.46,138.86L166.55,138.56L166.63,138.39L166.71,138.27L166.78,138.17L166.89,138.07L166.69,138.25L166.56,138.41L166.47,138.76L166.41,139.05"/><path style="stroke:#000000;stroke-width:0.150" d="M166.40,139.11L166.42,139.03"/><path style="stroke:#000000;stroke-width:0.150" d="M166.86,141.93L166.70,141.60"/><path style="stroke:#000000;stroke-width:0.150" d="M166.70,141.61L166.70,141.61"/><path style="stroke:#000000;stroke-width:0.150" d="M166.81,140.03L166.84,140.40L166.90,140.69L166.98,140.95L167.10,141.17L167.23,141.34L167.29,141.40L167.37,141.45L167.44,141.48L167.51,141.48L167.58,141.47L167.65,141.44L167.74,141.37L167.82,141.25L167.89,141.09L167.92,140.97L167.96,140.77L167.97,140.63L167.97,140.40L167.96,140.24L167.94,140.08L167.90,139.86L167.84,139.64L167.78,139.51L167.70,139.33L167.63,139.24L167.53,139.12L167.46,139.07L167.35,139.02L167.28,139.01L167.21,139.02L167.11,139.07L167.05,139.12L166.99,139.19L166.90,139.38L166.85,139.55L166.82,139.75L166.81,140.03"/><path style="stroke:#000000;stroke-width:0.150" d="M166.82,141.85L166.81,141.83L166.85,141.90"/><path style="stroke:#000000;stroke-width:0.150" d="M166.82,138.13L166.95,138.03L167.03,137.99L167.13,137.96L167.22,137.95L167.37,137.97L167.47,138.01L167.56,138.06L167.66,138.14L167.81,138.28L167.90,138.40L168.07,138.69L168.22,139.03L168.35,139.42L168.44,139.84L168.50,140.27L168.52,140.70L168.51,140.91L168.49,141.21L168.41,141.61L168.35,141.83L168.29,141.98L168.22,142.11L168.15,142.23L168.05,142.34L167.95,142.44"/><path style="stroke:#000000;stroke-width:0.150" d="M167.88,142.49L168.16,142.37L168.65,142.20L168.58,141.85L168.54,141.57L168.52,141.29L168.52,140.94L168.54,140.59L168.59,140.28L168.68,139.86L168.77,139.52L168.56,139.30L168.34,139.04L168.18,138.83L168.04,138.61L167.89,138.35L167.81,138.16L167.73,137.91L167.66,137.63L167.17,137.89L166.98,138.01L166.87,138.09"/><path style="stroke:#000000;stroke-width:0.150" d="M167.47,142.74L169.01,142.54L169.43,142.39L169.78,142.26L170.05,142.13L170.27,142.00L170.38,141.63L170.44,141.34L170.49,141.06L170.53,140.70L170.54,140.39L170.53,140.06L170.50,139.78L170.42,139.35L168.77,139.52"/><path style="stroke:#000000;stroke-width:0.150" d="M167.66,137.63L169.26,137.49L169.51,137.75L169.72,137.98L169.86,138.16L170.03,138.42L170.16,138.64L170.25,138.83L170.33,139.05L170.42,139.35"/><path style="stroke:#000000;stroke-width:0.150" d="M168.65,142.20L170.27,142.00"/><path style="stroke:#000000;stroke-width:0.150" d="M153.52,141.49L153.45,140.57L153.40,139.62L153.39,138.75L153.42,138.10L153.47,137.55L153.55,137.13L153.60,136.97L153.66,136.86L153.72,136.79L153.79,136.76L153.86,136.78L153.95,136.85L154.04,136.97L154.13,137.14L154.31,137.62L154.47,138.17L154.65,138.98L154.79,139.75L154.92,140.60L155.05,141.66L155.12,142.55L155.18,143.41L155.20,144.21L155.19,145.05L155.15,145.63L155.07,146.15L155.01,146.35L154.95,146.49L154.89,146.58L154.82,146.62L154.74,146.61L154.67,146.56L154.59,146.46L154.47,146.27L154.28,145.77L154.12,145.20L153.94,144.40L153.78,143.51L153.64,142.55L153.52,141.49"/><path style="stroke:#000000;stroke-width:0.150" d="M153.79,136.76L154.84,136.69L154.98,136.71L154.85,136.69"/><path style="stroke:#000000;stroke-width:0.150" d="M153.95,141.47L154.03,142.17L154.14,142.78L154.27,143.19L154.34,143.29L154.39,143.31L154.44,143.25L154.47,143.15L154.51,142.76L154.51,142.20L154.46,141.63L154.39,141.07L154.28,140.52L154.16,140.17L154.11,140.08L154.05,140.05L154.01,140.08L153.98,140.15L153.93,140.47L153.92,140.96L153.95,141.47"/><path style="stroke:#000000;stroke-width:0.150" d="M154.82,146.62L155.87,146.46L156.01,146.41L156.17,146.27L156.27,146.10L156.36,145.87L156.42,145.65L156.51,145.05L156.56,144.23L156.56,143.32L156.54,142.83L156.47,141.79L156.35,140.74L156.26,140.15L156.11,139.27L155.90,138.39L155.69,137.71L155.58,137.43L155.48,137.22L155.35,137.00L155.27,136.90L155.22,136.84L155.08,136.74L154.98,136.71"/><path style="stroke:#000000;stroke-width:0.180;stroke-dasharray:2.6 2.6" d="M168.35,140.14L156.67,141.41"/><path style="stroke:#000000;stroke-width:0.210" d="M171.42,141.20L171.37,142.18L171.23,143.15L170.99,144.10L170.66,145.02L170.24,145.91L169.73,146.75L169.15,147.54L168.49,148.27L167.76,148.93L166.98,149.51L166.13,150.01L165.25,150.43L164.32,150.77L163.37,151.00L162.40,151.15L161.42,151.20L160.44,151.15L159.47,151.00L158.52,150.77L157.59,150.43L156.71,150.01L155.86,149.51L155.08,148.93L154.35,148.27L153.69,147.54L153.10,146.75L152.60,145.91L152.18,145.02L151.85,144.10L151.61,143.15L151.47,142.18L151.42,141.20L151.47,140.22L151.61,139.24L151.85,138.29L152.18,137.37L152.60,136.48L153.10,135.64L153.69,134.85L154.35,134.12L155.08,133.47L155.86,132.88L156.71,132.38L157.59,131.96L158.52,131.63L159.47,131.39L160.44,131.24L161.42,131.20L162.40,131.24L163.37,131.39L164.32,131.63L165.25,131.96L166.13,132.38L166.98,132.88L167.76,133.47L168.49,134.12L169.15,134.85L169.73,135.64L170.24,136.48L170.66,137.37L170.99,138.29L171.23,139.24L171.37,140.22L171.42,141.20z"/></g></g><g id="Actor_45.0"><g style="stroke:#000000;stroke-width:0.173"><path d="M152.87,45.69L152.80,45.63L152.76,45.56L152.77,45.09L152.81,45.01L152.86,44.95L153.00,44.86L153.11,44.81L153.35,44.73L153.84,44.63L154.43,44.55L155.13,44.49L155.89,44.47L156.96,44.47L157.99,44.53L158.91,44.62L159.31,44.69L159.65,44.76L160.07,44.89L160.27,44.98L160.35,45.04L160.44,45.14L160.46,45.24L160.45,45.69L160.37,45.78L160.20,45.88L159.84,45.99L159.40,46.08L158.80,46.15L158.18,46.20L157.33,46.24L156.53,46.24L155.65,46.20L154.90,46.15L154.22,46.07L153.59,45.95L153.17,45.83L152.99,45.76L152.87,45.69"/><path d="M152.83,44.99L152.85,44.96"/><path d="M152.81,45.01L152.81,45.01"/><path d="M155.45,45.18L155.65,45.22L155.90,45.26L156.57,45.30L156.97,45.30L157.27,45.29L157.53,45.26L157.74,45.22"/><path d="M155.31,45.11L155.32,45.13"/><path d="M155.32,45.12L155.35,45.14"/><path d="M155.34,45.14L155.47,45.18"/><path d="M157.92,45.16L157.73,45.22"/><path d="M157.87,45.18L157.87,45.18"/><path d="M157.92,45.16L157.90,45.17"/></g></g><g id="Actor_1.0"><g style="stroke:#000000;stroke-width:0.173"><path d="M78.85,90.52L78.85,90.52"/><path d="M78.85,90.53L78.87,90.59L78.86,90.53L78.89,90.53L78.86,90.53"/><path d="M78.85,90.52L78.83,90.49L78.88,90.50L78.89,90.46L78.90,90.53L78.85,90.52"/><path d="M78.89,90.50L78.83,90.49"/><path d="M78.86,90.61L78.91,90.63L78.86,90.61"/><path d="M78.84,90.52L78.84,90.60L78.91,90.62L78.91,90.54L78.89,90.54L78.91,90.54"/><path d="M78.87,90.58L78.86,90.52"/><path d="M78.86,90.58L78.85,90.58"/><path d="M78.88,90.42L78.83,90.41L78.83,90.43L78.90,90.45L78.90,90.42L78.93,90.70L78.90,90.72L78.84,90.68L78.79,90.26L78.85,90.68"/><path d="M78.85,90.68L78.84,90.68"/><path d="M78.91,90.71L78.86,90.69"/><path d="M78.87,90.28L78.90,90.42L78.89,90.28L78.97,90.46L78.97,90.63L78.94,90.72L78.90,90.74L78.84,90.70L78.76,90.50L78.75,90.36L78.79,90.26"/><path d="M78.88,90.66L78.85,90.69L78.91,90.70L78.90,90.65"/><path d="M78.85,90.66L78.88,90.67L78.85,90.61"/><path d="M78.82,90.41L78.88,90.42L78.88,90.37L78.90,90.45"/><path d="M78.78,90.56L78.77,90.43L78.79,90.31L78.82,90.66L78.78,90.56"/><path d="M78.82,90.62L78.78,90.43L78.79,90.35"/><path d="M82.45,86.20L82.00,86.41L81.57,86.71L81.62,86.68L80.92,87.23L80.56,87.61L78.07,90.67"/><path d="M78.10,90.76L78.09,90.82"/><path d="M81.46,91.56L81.07,91.57L80.15,91.43L78.18,90.88L78.08,90.80L78.06,90.74L78.07,90.66"/><path d="M78.06,90.72L78.07,90.68"/><path d="M78.88,90.26L78.82,90.24L78.89,90.26L78.88,90.26"/><path d="M78.87,90.33L78.86,90.28L78.89,90.29L78.89,90.26"/><path d="M78.81,90.24L78.82,90.35L78.88,90.37L78.90,90.34"/><path d="M78.86,90.33L78.89,90.34"/><path d="M78.83,90.33L78.85,90.33L78.85,90.27L78.82,90.27L78.83,90.33L78.83,90.27"/><path d="M78.84,90.32L78.85,90.32"/><path d="M78.89,90.53L78.90,90.59"/><path d="M78.90,90.54L78.91,90.62"/><path d="M78.90,90.47L78.89,90.46"/><path d="M78.91,90.46L78.90,90.53"/><path d="M78.92,90.63L78.92,90.65L78.89,90.65L78.90,90.67"/><path d="M78.92,90.68L78.91,90.70"/><path d="M78.89,90.67L78.91,90.68"/><path d="M78.91,90.74L78.95,90.72L78.98,90.63L78.98,90.46L78.93,90.33L78.89,90.28"/><path d="M79.84,90.80L79.87,91.01L79.84,90.80L79.83,90.88L79.78,90.88L79.83,90.88"/><path d="M79.85,90.80L79.82,90.80"/><path d="M78.91,90.63L78.91,90.65"/><path d="M78.88,90.54L78.89,90.59"/><path d="M78.88,90.59L78.90,90.59L78.89,90.54"/><path d="M79.78,90.88L79.78,90.97L79.86,91.02"/><path d="M78.92,90.42L78.94,90.69L78.96,90.60L78.95,90.43L78.91,90.34L78.92,90.42"/><path d="M78.95,90.66L78.93,90.38"/><path d="M79.81,90.98L79.79,90.95L79.80,90.90L79.83,90.91L79.84,90.99L79.81,90.98"/><path d="M79.84,90.98L79.80,90.95L79.81,90.90"/><path d="M78.91,90.74L78.90,90.74"/><path d="M78.90,90.38L78.89,90.38"/><path d="M78.88,90.27L78.88,90.29"/><path d="M78.88,90.37L78.89,90.37"/><path d="M79.95,90.84L79.98,90.91L79.97,91.03L79.97,90.91L79.93,90.82L79.89,90.83L79.89,90.89L79.91,91.01L79.96,91.04"/><path d="M80.05,90.85L80.06,91.05L80.10,91.05L80.05,91.05L80.04,90.86"/><path d="M80.10,91.05L80.10,91.08L80.09,91.06"/><path d="M80.04,91.04L80.02,91.03L80.04,91.04L80.02,90.85"/><path d="M82.87,88.94L81.36,90.75L81.15,90.95L80.90,91.11L80.64,91.19L80.35,91.21"/><path d="M80.53,91.20L80.63,91.19"/><path d="M80.27,91.19L80.08,91.15"/><path d="M80.05,91.05L80.06,91.05"/><path d="M80.09,91.08L80.01,91.06L80.01,91.04"/><path d="M79.94,90.84L79.92,90.82"/><path d="M79.90,90.86L79.92,90.85L79.95,90.88L79.95,91.01L79.92,91.01L79.91,90.95L79.90,90.86L79.95,91.01"/><path d="M79.95,91.01L79.95,91.01"/><path d="M79.92,90.85L79.91,90.86"/><path d="M80.64,87.87L80.81,87.68"/><path d="M81.60,91.51L81.72,91.46"/><path d="M81.64,91.59L81.90,91.50"/><path d="M81.06,91.57L81.37,91.62L81.71,91.60L82.03,91.50L82.12,91.44"/><path d="M81.40,91.62L81.76,91.60L82.02,91.56"/><path d="M80.99,87.51L81.18,87.36"/><path d="M81.64,86.66L81.61,86.69"/><path d="M81.61,86.68L81.56,86.73"/><path d="M81.59,87.12L81.38,87.23"/><path d="M81.62,86.68L81.83,86.55L82.17,86.38"/><path d="M82.17,91.14L82.27,91.03"/><path d="M83.13,86.99L82.69,86.92L82.27,86.92L81.87,86.99"/><path d="M82.43,86.93L82.58,86.93"/><path d="M82.77,86.94L82.31,86.94L81.95,87.00L82.03,86.99"/><path d="M81.81,87.03L82.13,86.95L82.47,86.92"/><path d="M84.04,86.13L83.52,86.04L83.00,86.05L82.50,86.17L82.04,86.38L81.92,86.46"/><path d="M82.06,86.37L82.54,86.14L82.88,86.02L83.28,85.93"/><path d="M82.87,88.94L83.20,88.68L83.60,88.49"/><path d="M83.67,88.47L83.60,88.49"/><path d="M83.64,89.38L83.92,89.12L84.23,88.93L84.54,88.83"/><path d="M84.13,88.41L83.97,88.41L83.65,88.47"/><path d="M83.50,88.53L83.39,88.58"/><path d="M83.48,88.54L83.39,88.57"/><path d="M83.66,88.45L83.98,88.39L84.31,88.39L84.66,88.45"/><path d="M82.89,86.95L82.77,86.94L83.20,87.01L91.33,89.12L91.35,89.18L91.17,89.39"/><path d="M85.10,88.85L84.86,88.87L84.53,88.97L84.22,89.16L83.85,89.55"/><path d="M84.89,88.79L84.57,88.82"/><path d="M84.62,88.48L84.38,88.43"/><path d="M84.32,88.69L84.75,88.76"/><path d="M84.72,88.75L84.76,88.76"/><path d="M84.30,88.41L83.94,88.42"/><path d="M88.37,87.27L84.01,86.16"/><path d="M84.91,88.94L85.04,88.89"/><path d="M84.72,88.75L89.86,90.10L90.77,90.25L91.22,90.24"/><path d="M84.91,88.87L85.11,88.85"/><path d="M87.64,87.08L88.38,87.27"/><path d="M91.18,89.39L90.94,89.61L90.68,89.77L90.39,89.86L90.08,89.88"/><path d="M90.00,89.86L89.79,89.82"/><path d="M90.39,89.85L90.28,89.86"/><path d="M89.70,88.77L89.71,88.97L89.69,88.97L89.67,88.78L89.63,88.73L89.73,88.75L89.73,88.78L89.73,88.75"/><path d="M89.72,88.75L89.63,88.73"/><path d="M89.72,88.78L89.68,88.77L89.70,88.97"/><path d="M89.82,89.00L89.86,88.96L89.85,88.83L89.81,88.77L89.78,88.78L89.82,88.79L89.84,88.87L89.85,88.96L89.82,89.00"/><path d="M89.88,88.80L89.96,88.82L89.98,88.88L89.97,88.94L89.91,88.94L89.91,89.03L89.90,89.02L89.88,88.80L89.96,88.85L89.96,88.94"/><path d="M89.92,88.94L89.91,89.03"/><path d="M89.81,89.00L89.76,88.91L89.77,88.78"/><path d="M89.79,88.80L89.83,88.86L89.83,88.96L89.79,88.96L89.78,88.91L89.77,88.82L89.79,88.80L89.79,88.91L89.82,88.97"/><path d="M89.78,88.80L89.79,88.80"/><path d="M89.93,88.83L89.90,88.83L89.90,88.91L89.94,88.92L89.95,88.88L89.93,88.83"/><path d="M89.80,88.96L89.79,88.96"/><path d="M89.95,88.91L89.90,88.91"/><path d="M89.92,88.91L89.91,88.83"/><path d="M90.75,89.47L90.67,89.45L90.70,89.55L90.68,89.53L90.68,89.56L90.76,89.58L90.75,89.47L90.69,89.45L90.68,89.39L90.74,89.41L90.75,89.38L90.74,89.41"/><path d="M90.74,89.38L90.67,89.36L90.68,89.45L90.69,89.39"/><path d="M90.68,89.53L90.70,89.54"/><path d="M90.76,89.58L90.76,89.47"/><path d="M90.67,89.54L90.65,89.10L90.67,89.54"/><path d="M90.78,89.57L90.83,89.46L90.83,89.31L90.74,89.10L90.68,89.06L90.73,89.10L90.78,89.17L90.82,89.31L90.82,89.46L90.78,89.57"/><path d="M91.33,90.20L91.46,90.16"/><path d="M91.92,90.12L91.82,90.18L91.48,90.28L91.10,90.31"/><path d="M91.11,90.31L90.89,90.28"/><path d="M91.03,90.29L90.72,90.25"/><path d="M90.66,89.06L90.62,89.08L90.58,89.17L90.59,89.35L90.66,89.54"/><path d="M90.63,89.44L90.64,89.48L90.62,89.12L90.59,89.21L90.63,89.44"/><path d="M90.80,89.44L90.78,89.51L90.75,89.15L90.79,89.25L90.80,89.44"/><path d="M90.72,89.55L90.74,89.55L90.74,89.50L90.71,89.49L90.72,89.55L90.72,89.49"/><path d="M90.73,89.55L90.74,89.55"/><path d="M90.79,89.47L90.76,89.19"/><path d="M90.68,89.45L90.67,89.45"/><path d="M91.46,90.27L91.74,90.16"/><path d="M90.64,89.10L90.67,89.09L90.73,89.12L90.77,89.57"/><path d="M91.14,90.30L91.52,90.28L91.81,90.24"/><path d="M90.75,89.38L90.67,89.36"/><path d="M90.70,89.14L90.72,89.17L90.70,89.16"/><path d="M90.68,89.15L90.65,89.18L90.72,89.20L90.73,89.17"/><path d="M90.73,89.12L90.73,89.14L90.65,89.10L90.72,89.11"/><path d="M90.72,89.14L90.69,89.13L90.69,89.16"/><path d="M90.71,89.12L90.72,89.12"/><path d="M90.65,89.10L90.67,89.09"/><path d="M90.71,89.23L90.72,89.29L90.72,89.21L90.67,89.19L90.72,89.21"/><path d="M90.70,89.28L90.67,89.22L90.67,89.27L90.68,89.22"/><path d="M90.73,89.21L90.73,89.29"/><path d="M90.65,89.15L90.68,89.16L90.65,89.10"/><path d="M90.72,89.17L90.72,89.20"/><path d="M90.67,89.27L90.65,89.19"/><path d="M90.73,89.30L90.67,89.28L90.73,89.32L90.74,89.30"/><path d="M90.68,89.31L90.69,89.35L90.66,89.35L90.66,89.28"/><path d="M90.62,89.14L90.61,89.33L90.64,89.43"/><path d="M90.73,89.32L90.67,89.31L90.68,89.35"/><path d="M91.95,89.85L92.06,89.74"/></g></g><g id="Actor_47.0"><g style="stroke:#000000;stroke-width:0.173"><path d="M154.72,36.11L154.83,36.15L154.98,36.20L155.23,36.24L155.47,36.28L156.06,36.33L156.77,36.36L157.49,36.35L158.07,36.32L158.37,36.28L158.57,36.25L158.73,36.21L158.85,36.16L158.80,36.18L158.75,36.18L158.69,36.16L158.64,36.12L158.67,34.59L158.40,34.52L158.06,34.46L157.80,34.43L157.50,34.43L157.21,34.45L156.91,34.50L156.59,34.57L156.31,34.66L156.08,34.54L155.84,34.45L155.60,34.38L155.41,34.34L155.18,34.32L154.95,34.33L154.74,34.35L154.46,34.41L154.55,34.27L154.62,34.16L154.69,34.08L154.77,34.04L154.91,33.99L155.12,33.95L155.39,33.91L155.65,33.89L156.38,33.86L157.10,33.87L157.85,33.91L158.41,33.98L158.65,34.02L158.82,34.07L158.93,34.13L158.96,34.17L158.95,34.20L158.92,34.22L158.88,34.25L158.80,34.28L158.57,34.33L158.31,34.37L157.95,34.40L157.59,34.42L157.14,34.43L156.68,34.43L156.28,34.41L155.84,34.38L155.45,34.34L155.17,34.30L154.95,34.26L154.77,34.20L154.72,34.17L154.69,34.14L154.68,34.12L154.70,34.08"/><path d="M154.72,36.11L154.44,35.94L154.71,36.07L154.92,36.15L155.15,36.22L155.38,36.26L155.56,36.28L155.81,36.27L156.04,36.24L156.28,36.19L156.31,34.66"/><path d="M154.44,35.94L154.46,34.41"/><path d="M154.71,34.07L154.75,34.05"/><path d="M155.78,34.27L155.60,34.24L155.44,34.20L155.35,34.16L155.33,34.13L155.33,34.11L155.37,34.08L155.46,34.04L155.60,34.01L155.81,33.98L156.33,33.95L156.87,33.95L157.40,33.97L157.90,34.02L158.10,34.06L158.22,34.09L158.29,34.13L158.31,34.17L158.29,34.20L158.24,34.22L158.05,34.27L157.75,34.31L157.37,34.34L156.94,34.34L156.50,34.33L156.08,34.31L155.78,34.27"/><path d="M156.28,36.19L156.55,36.26L156.87,36.32L157.17,36.35L157.47,36.35L157.76,36.33L158.02,36.29L158.36,36.20L158.64,36.12"/><path d="M157.77,34.31L157.59,34.28L157.36,34.25L156.82,34.22L156.28,34.24L156.05,34.26L155.87,34.28"/><path d="M158.85,36.16L158.91,36.12L158.98,36.05L159.05,35.94L159.13,35.79L159.16,34.27L159.11,34.23L159.03,34.20L158.98,34.21L158.92,34.23L158.86,34.28L158.80,34.36L158.67,34.59"/><path d="M158.86,36.16L158.84,36.17"/><path d="M158.87,36.16L158.86,36.16"/><path d="M158.90,34.11L159.11,34.23"/></g></g><g id="Actor_43.0"><g style="stroke:#000000;stroke-width:0.173"><path d="M74.50,84.89L71.76,82.06L70.22,78.90"/><path d="M90.00,72.64L90.56,72.56L83.23,73.87L74.01,76.13L70.59,77.40L70.19,78.75"/><path d="M70.46,77.50L70.56,77.43"/><path d="M74.15,94.46L74.83,95.28L76.62,96.19L76.26,96.03"/><path d="M74.47,84.74L74.15,94.11"/><path d="M74.43,84.61L74.46,84.71"/><path d="M74.40,84.69L74.50,84.82"/><path d="M74.33,84.41L74.39,84.53"/><path d="M74.36,84.53L74.05,84.22L74.27,84.45"/><path d="M75.99,95.91L76.00,99.27L75.85,95.84"/><path d="M79.27,98.06L79.32,97.40L79.21,98.14L75.99,99.43"/><path d="M76.17,97.36L76.12,95.96"/><path d="M76.17,96.91L76.17,97.22"/><path d="M186.73,134.39L184.44,133.51L174.37,131.34L164.57,128.24L108.75,108.27L76.21,96.01"/><path d="M76.09,95.95L75.97,95.90"/><path d="M76.49,80.75L76.49,80.75"/><path d="M76.47,80.69L76.05,79.49"/><path d="M77.54,98.61L77.14,98.78L77.90,98.47L77.54,98.61"/><path d="M77.14,98.78L79.06,98.02L77.90,98.47"/><path d="M79.29,97.92L79.34,97.31"/><path d="M79.15,98.03L79.22,97.26"/><path d="M79.28,97.99L79.32,97.40"/><path d="M84.42,89.18L84.72,89.06L83.43,89.93L81.64,92.00"/><path d="M81.84,91.71L81.92,91.68"/><path d="M82.70,85.85L92.31,88.31"/><path d="M82.89,85.89L83.08,85.89"/><path d="M82.99,85.88L83.05,85.89"/><path d="M84.87,89.00L84.26,89.24"/><path d="M84.39,89.17L84.31,89.22"/><path d="M83.97,89.44L84.04,89.40"/><path d="M91.33,77.66L87.36,77.38L85.07,76.48"/><path d="M85.10,76.45L85.11,76.54"/><path d="M88.71,77.55L89.56,77.61"/><path d="M91.71,90.30L91.41,90.68"/><path d="M91.51,90.31L91.34,90.29"/><path d="M92.44,85.73L90.78,84.89"/><path d="M91.28,77.66L98.24,77.14"/><path d="M91.53,72.42L92.12,72.34L90.56,72.56"/><path d="M92.39,88.34L92.60,89.30L91.76,90.30"/><path d="M91.69,90.37L91.61,90.40"/><path d="M92.12,72.34L95.43,72.69L110.04,76.09L116.57,79.36L119.79,80.56L164.17,68.92L163.44,65.91L163.53,64.51"/><path d="M93.15,86.15L93.48,86.34L92.59,85.82"/><path d="M93.87,86.55L94.65,86.92"/><path d="M93.85,86.54L93.48,86.34"/><path d="M94.70,86.94L131.46,98.59L137.30,99.75L137.02,99.66"/><path d="M97.22,77.28L96.99,77.31"/><path d="M137.42,64.39L138.19,64.26L124.64,66.89L97.08,73.05"/><path d="M98.91,77.04L98.35,77.12L101.16,76.54L102.88,75.75"/><path d="M98.19,77.15L97.74,77.21"/><path d="M102.76,75.85L102.86,75.69"/><path d="M105.66,73.91L105.41,72.40L105.50,72.92"/><path d="M112.14,76.59L111.64,76.72"/><path d="M163.23,63.83L163.23,63.60L163.59,63.90L165.33,63.92L112.43,77.15"/><path d="M165.33,63.92L112.24,77.04"/><path d="M119.52,80.48L164.11,68.81L163.35,66.22L163.38,64.55"/><path d="M134.07,96.80L136.33,95.55L143.87,92.72L153.86,89.87L119.79,80.56"/><path d="M120.76,74.42L122.70,73.95L121.72,74.19"/><path d="M122.70,73.95L122.98,73.88"/><path d="M135.30,71.31L133.83,71.22L134.16,71.22"/><path d="M134.56,71.23L134.72,71.24"/><path d="M137.44,99.78L138.25,100.02"/><path d="M138.58,100.14L139.25,100.37L137.76,99.88"/><path d="M137.67,99.85L138.04,99.98L137.73,99.87"/><path d="M141.78,63.72L142.17,63.67L138.43,64.22"/><path d="M139.25,100.37L139.67,100.51"/><path d="M142.17,63.67L143.06,63.54L142.17,63.67"/><path d="M143.14,63.53L144.32,63.37"/><path d="M144.12,63.40L153.46,62.33L154.04,62.79L154.47,65.96L155.70,65.21L157.56,65.50"/><path d="M145.94,105.50L151.61,107.57"/><path d="M145.65,105.46L145.80,105.47"/><path d="M146.50,106.22L146.64,106.15"/><path d="M151.44,107.51L159.78,110.55"/><path d="M152.62,95.90L153.17,96.29"/><path d="M152.83,95.93L152.06,94.76"/><path d="M172.87,96.88L171.51,97.60L168.93,98.26L163.18,98.60L156.78,97.69L152.88,95.97"/><path d="M153.89,89.86L156.78,89.26L156.50,89.32"/><path d="M164.15,63.86L164.36,63.80L164.09,63.47L163.08,62.89L160.88,62.25L157.53,62.04L153.73,62.40"/><path d="M153.46,62.33L153.53,62.34"/><path d="M153.62,62.36L153.65,62.37"/><path d="M154.83,65.97L154.94,65.93"/><path d="M154.60,66.02L154.65,66.05"/><path d="M154.92,66.03L154.76,66.04"/><path d="M154.72,66.05L154.63,66.04"/><path d="M153.97,62.58L153.93,62.54"/><path d="M199.87,104.40L200.11,104.56L192.81,100.12L186.96,97.66L159.15,89.26L156.78,89.26L157.50,89.12"/><path d="M156.41,65.48L156.13,65.35L156.41,65.48"/><path d="M156.44,65.71L156.69,65.69"/><path d="M157.94,106.23L157.62,104.67"/><path d="M157.48,65.51L157.53,65.50"/><path d="M158.49,89.16L158.83,89.19"/><path d="M159.75,110.54L161.83,111.69L163.81,113.65L169.29,121.91L169.54,122.86"/><path d="M162.62,64.09L163.01,63.99L161.80,64.31"/><path d="M163.23,63.60L163.24,63.79"/><path d="M163.09,63.97L163.30,63.91"/><path d="M165.08,109.31L166.47,109.89"/><path d="M165.54,109.50L166.39,109.86"/><path d="M167.44,110.29L181.12,118.43L180.88,118.26"/><path d="M169.56,122.75L169.57,122.72"/><path d="M173.22,96.38L172.71,96.99"/><path d="M173.21,96.40L173.24,96.21"/><path d="M181.92,118.95L181.40,118.61L181.92,118.95"/><path d="M181.40,118.61L181.12,118.43"/><path d="M186.46,134.23L186.24,134.11"/><path d="M186.63,134.35L188.22,136.46L189.25,141.72L189.78,141.70"/><path d="M186.12,134.05L186.02,134.01"/><path d="M188.68,125.98L188.11,125.44"/><path d="M189.40,141.79L194.31,140.30L194.58,135.57L195.35,132.37L197.18,129.44L199.44,127.63L268.81,91.19"/><path d="M189.37,98.58L189.86,98.59"/><path d="M189.63,98.59L195.55,98.14L202.19,96.64L208.87,94.43L233.96,84.80L245.60,81.53L246.77,81.26L248.12,81.48"/><path d="M189.96,98.59L190.06,98.59"/><path d="M194.16,100.19L194.67,100.37L194.16,100.19"/><path d="M194.75,100.40L195.18,100.56"/><path d="M199.49,104.12L199.37,104.05"/><path d="M199.64,104.24L200.60,104.90L199.76,104.32"/><path d="M200.60,104.90L200.66,104.95"/><path d="M201.37,105.42L201.95,105.82"/><path d="M217.20,117.56L217.67,117.95"/><path d="M249.90,81.67L247.93,81.44"/><path d="M254.93,80.97L253.02,80.55L250.70,80.59L249.32,80.86L248.99,81.62"/><path d="M250.07,81.54L250.07,81.60"/><path d="M249.93,81.66L250.03,81.62"/><path d="M253.65,80.63L253.43,80.60L253.65,80.63"/><path d="M254.66,80.89L254.33,80.79L254.58,80.87"/><path d="M255.13,81.04L258.48,82.58"/><path d="M258.90,82.79L258.90,82.79"/><path d="M258.64,82.66L259.42,83.07"/><path d="M259.50,83.11L259.95,83.35L259.54,83.13"/><path d="M263.21,85.26L259.16,82.92"/><path d="M260.00,83.38L260.13,83.45"/><path d="M262.91,85.06L263.85,85.70"/><path d="M264.12,85.90L264.48,86.17L263.92,85.75"/><path d="M264.38,86.09L267.15,88.65L268.85,90.98"/><path d="M268.85,91.14L268.79,91.21"/></g></g><g id="Actor_16.0"><g style="stroke:#000000;stroke-width:0.173"><path d="M147.09,107.27L146.89,106.94L146.84,106.13L146.88,105.93"/><path d="M146.91,107.01L146.91,107.01"/><path d="M146.96,106.97L146.94,106.88"/><path d="M158.43,113.32L157.85,112.94L157.23,112.65L149.71,109.77L149.23,109.54L148.71,109.19L148.27,108.82L147.86,108.37L146.92,107.01L146.95,107.06"/><path d="M146.87,105.99L146.82,105.83L146.83,105.89"/><path d="M147.37,107.28L147.38,107.28"/><path d="M147.38,107.28L159.27,111.79L160.39,112.34L160.93,112.69L161.99,113.58L162.98,114.68L167.36,121.13L167.36,121.18"/><path d="M148.83,108.98L149.08,109.15"/><path d="M148.35,108.61L148.77,108.96L149.20,109.25"/><path d="M148.34,108.17L148.33,108.11L148.35,108.18"/><path d="M148.34,108.11L148.31,108.20L148.39,108.23L148.42,108.14L148.39,108.20L148.35,108.12L148.37,108.19"/><path d="M148.38,108.13L148.37,108.13"/><path d="M148.38,108.19L148.39,108.19"/><path d="M148.41,108.14L148.41,108.23"/><path d="M148.40,108.14L148.42,108.14"/><path d="M148.43,108.05L148.41,108.13L148.42,108.05"/><path d="M148.41,108.13L148.31,108.09L148.31,108.06L148.40,108.09L148.40,108.04"/><path d="M148.40,108.09L148.31,108.06"/><path d="M148.44,107.95L148.43,108.04L148.39,107.89L148.40,107.83L148.43,107.85L148.43,107.82L148.32,107.77L148.43,107.82"/><path d="M148.42,108.04L148.31,108.00L148.32,107.97L148.40,108.00L148.42,107.94"/><path d="M148.52,107.97L148.46,107.84L148.53,108.07L148.51,108.27L148.44,108.36L148.52,108.26L148.52,107.97"/><path d="M148.31,108.29L148.31,107.78L148.22,107.89L148.19,108.06L148.23,108.21L148.37,108.38L148.44,108.36"/><path d="M148.45,107.84L148.42,108.34L148.31,108.30"/><path d="M148.30,108.28L148.30,107.78"/><path d="M148.32,107.77L148.32,107.90L148.44,107.94L148.43,107.91"/><path d="M148.41,108.24L148.32,108.20L148.41,108.24L148.36,108.26L148.40,108.30L148.38,108.27"/><path d="M148.42,108.24L148.40,108.27"/><path d="M148.37,108.29L148.36,108.29"/><path d="M148.41,108.30L148.41,108.33L148.31,108.30L148.35,108.26L148.31,108.21"/><path d="M148.40,108.33L148.40,108.30"/><path d="M148.35,108.28L148.31,108.27"/><path d="M148.33,108.11L148.31,108.10"/><path d="M148.42,108.34L148.29,108.29"/><path d="M148.27,108.22L148.23,107.98L148.27,107.87"/><path d="M148.27,108.26L148.22,107.98L148.27,107.84L148.27,108.26"/><path d="M148.48,107.94L148.45,108.30"/><path d="M148.46,108.12L148.44,108.32L148.50,108.22L148.47,107.92L148.46,108.12"/><path d="M148.46,108.75L148.12,108.41"/><path d="M148.43,107.95L148.41,107.94"/><path d="M148.32,107.97L148.40,107.99"/><path d="M148.33,108.17L148.35,108.12"/><path d="M148.44,107.81L148.43,107.85"/><path d="M148.41,107.83L148.44,107.91"/><path d="M148.39,107.89L148.40,107.89"/><path d="M148.35,107.81L148.37,107.88L148.34,107.87"/><path d="M148.35,107.87L148.37,107.88"/><path d="M149.68,109.45L149.38,109.32"/><path d="M149.49,108.17L149.50,108.14L149.49,108.17L149.44,108.15L149.43,108.38L149.45,108.15"/><path d="M149.50,108.14L149.38,108.09L149.49,108.14"/><path d="M149.57,108.18L149.66,108.25L149.65,108.40L149.61,108.44L149.65,108.24L149.57,108.18"/><path d="M149.37,108.10L149.42,108.14L149.43,108.38"/><path d="M149.56,108.18L149.53,108.37L149.61,108.44"/><path d="M149.79,108.25L149.84,108.30L149.82,108.40L149.81,108.27L149.72,108.23L149.79,108.25"/><path d="M149.75,108.39L149.74,108.49L149.74,108.39L149.81,108.41"/><path d="M149.72,108.23L149.73,108.49"/><path d="M149.61,108.41L149.56,108.36L149.58,108.21"/><path d="M149.57,108.39L149.60,108.41L149.63,108.36L149.60,108.21L149.55,108.26L149.56,108.39"/><path d="M149.80,108.37L149.75,108.36L149.75,108.27"/><path d="M149.75,108.36L149.81,108.34L149.74,108.27L149.74,108.36"/><path d="M157.21,112.30L157.73,112.54L158.24,112.84L158.75,113.21"/><path d="M157.72,112.57L158.23,112.87L158.80,113.30L159.28,113.75L159.70,114.22L160.18,114.86"/><path d="M157.54,112.50L157.17,112.34"/><path d="M157.91,112.70L158.22,112.89"/><path d="M158.40,113.30L158.98,113.79L159.52,114.37L160.01,115.02L162.28,118.40L162.67,118.93L163.11,119.39L163.58,119.79L164.12,120.16L164.65,120.41L167.84,121.67L169.11,122.01L169.36,122.03"/><path d="M159.66,114.21L159.39,113.90"/><path d="M158.80,113.30L159.13,113.58"/><path d="M160.15,114.87L159.91,114.53"/><path d="M159.85,112.05L159.81,112.03"/><path d="M162.39,112.35L162.84,112.75"/><path d="M164.11,119.86L163.64,119.56L163.20,119.18"/><path d="M163.31,119.33L162.95,118.98"/><path d="M163.98,119.76L163.71,119.58"/><path d="M164.29,119.94L164.62,120.09"/><path d="M165.05,120.13L165.11,120.15L165.06,120.13L165.08,119.90L165.06,120.13"/><path d="M165.12,120.15L165.12,120.18L164.98,120.13L164.98,120.10L165.03,120.12L165.07,119.90"/><path d="M165.08,119.90L165.05,119.89"/><path d="M165.03,120.11L164.98,120.10"/><path d="M164.76,119.77L164.72,119.76L164.76,119.77L164.74,120.03L164.63,119.99L164.61,119.90L164.64,119.85L164.72,119.87L164.72,119.76"/><path d="M164.64,119.85L164.72,119.86"/><path d="M164.75,119.77L164.73,120.03"/><path d="M164.90,120.09L164.95,119.89L164.85,119.82L164.92,119.85L164.94,119.95L164.92,120.06L164.86,120.09L164.80,119.97L164.85,119.82"/><path d="M164.92,119.85L164.93,119.85"/><path d="M164.65,119.88L164.65,119.95L164.71,119.99"/><path d="M164.64,119.89L164.64,119.95L164.71,119.99L164.71,119.90L164.66,119.88"/><path d="M164.86,119.86L164.85,120.02L164.89,120.05"/><path d="M164.87,119.85L164.92,119.94L164.90,120.04L164.86,120.06L164.83,119.97L164.85,119.86"/><path d="M165.11,120.15L165.10,120.18"/><path d="M164.86,120.06L164.88,120.05"/><path d="M166.63,120.63L166.62,120.75L166.51,120.72L166.55,120.63L166.51,120.58L166.63,120.63L166.53,120.58"/><path d="M166.54,120.17L166.49,120.68L166.40,120.46L166.43,120.24L166.50,120.15L166.58,120.14L166.68,120.21L166.77,120.47L166.74,120.64L166.65,120.75L166.75,120.64L166.78,120.47L166.74,120.30L166.59,120.13L166.51,120.15"/><path d="M166.50,120.68L166.54,120.69"/><path d="M166.46,120.58L166.45,120.29L166.50,120.20"/><path d="M166.52,120.48L166.51,120.57L166.54,120.52L166.63,120.56L166.64,120.52L166.52,120.48L166.64,120.52"/><path d="M166.45,120.56L166.46,120.61L166.50,120.19L166.44,120.29L166.45,120.56"/><path d="M166.48,120.68L166.53,120.18L166.58,120.17L166.67,120.23L166.65,120.75"/><path d="M166.51,120.58L166.52,120.58"/><path d="M166.50,120.15L166.51,120.15"/><path d="M166.64,120.62L166.62,120.76"/><path d="M166.70,120.29L166.68,120.67"/><path d="M166.67,120.69L166.69,120.26L166.74,120.55L166.67,120.69"/><path d="M166.54,120.52L166.53,120.58"/><path d="M166.57,120.64L166.61,120.66L166.60,120.72L166.56,120.71L166.57,120.64"/><path d="M166.60,120.72L166.58,120.65"/><path d="M166.57,120.71L166.56,120.71"/><path d="M166.65,120.32L166.65,120.41L166.64,120.33L166.57,120.29L166.53,120.38L166.56,120.32"/><path d="M166.64,120.42L166.60,120.33L166.59,120.40L166.58,120.33L166.55,120.38"/><path d="M166.58,120.25L166.55,120.18L166.65,120.22"/><path d="M166.65,120.22L166.65,120.25L166.66,120.22"/><path d="M166.65,120.25L166.60,120.23L166.64,120.31L166.54,120.24"/><path d="M166.65,120.28L166.61,120.23"/><path d="M166.64,120.28L166.64,120.31"/><path d="M166.54,120.28L166.64,120.33"/><path d="M166.63,120.53L166.63,120.56"/><path d="M166.53,120.39L166.63,120.42L166.53,120.39L166.52,120.47L166.55,120.43"/><path d="M166.64,120.43L166.64,120.46L166.54,120.43L166.54,120.48"/><path d="M166.65,120.43L166.64,120.46"/><path d="M166.59,120.40L166.61,120.34"/><path d="M166.55,120.18L166.65,120.21"/><path d="M166.60,120.26L166.61,120.26"/><path d="M167.99,121.41L167.90,121.46"/><path d="M169.37,122.04L169.34,122.03"/></g></g><g><g><path style="stroke:#000000;stroke-width:0.208;stroke-dasharray:2.1 2.1" d="M156.24,65.14L156.80,35.10"/></g></g><g id="PMI44.0"><g><path style="stroke:#000000;stroke-width:0.281" d="M150.01,141.66L151.70,141.67"/></g><g><path style="fill:#000000" d="M151.70,142.66L151.71,140.66L153.70,141.67z"/></g><g><path style="fill:#ffffff" d="M131.54,144.16L150.01,144.16L150.01,139.08L131.54,139.08z"/><path style="stroke:#000000;stroke-width:0.281;stroke-opacity:0.98" d="M131.54,144.16L150.01,144.16L150.01,139.08L131.54,139.08z"/><text xml:space="preserve" fill="#000000" stroke-width="0" x="132.18" y="142.73" font-size="2.79" opacity="1.00" font-family="Microsoft Sans Serif">8060001134</text></g></g><g id="PMI46.0"><g><path style="stroke:#000000;stroke-width:0.281" d="M168.68,145.77L168.73,143.93"/></g><g><path style="fill:#000000" d="M169.73,143.96L167.73,143.90L168.79,141.93z"/></g><g><path style="fill:#ffffff" d="M159.37,150.84L177.83,150.84L177.83,145.77L159.37,145.77z"/><path style="stroke:#000000;stroke-width:0.281;stroke-opacity:0.98" d="M159.37,150.84L177.83,150.84L177.83,145.77L159.37,145.77z"/><text xml:space="preserve" fill="#000000" stroke-width="0" x="160.01" y="149.42" font-size="2.79" opacity="1.00" font-family="Microsoft Sans Serif">8072000155</text></g></g><g id="PMI45.0"><g><path style="stroke:#000000;stroke-width:0.281" d="M163.38,45.40L161.68,45.42"/></g><g><path style="fill:#000000" d="M161.67,44.42L161.69,46.42L159.68,45.44z"/></g><g><path style="fill:#ffffff" d="M163.38,47.83L181.85,47.83L181.85,42.75L163.38,42.75z"/><path style="stroke:#000000;stroke-width:0.281;stroke-opacity:0.98" d="M163.38,47.83L181.85,47.83L181.85,42.75L163.38,42.75z"/><text xml:space="preserve" fill="#000000" stroke-width="0" x="164.02" y="46.40" font-size="2.79" opacity="1.00" font-family="Microsoft Sans Serif">8060001146</text></g></g><g id="PMI47.0"><g><path style="stroke:#000000;stroke-width:0.281" d="M162.85,35.40L160.90,35.35"/></g><g><path style="fill:#000000" d="M160.93,34.36L160.87,36.36L158.90,35.30z"/></g><g><path style="fill:#ffffff" d="M162.85,38.20L181.31,38.20L181.31,33.12L162.85,33.12z"/><path style="stroke:#000000;stroke-width:0.281;stroke-opacity:0.98" d="M162.85,38.20L181.31,38.20L181.31,33.12L162.85,33.12z"/><text xml:space="preserve" fill="#000000" stroke-width="0" x="163.48" y="36.77" font-size="2.79" opacity="1.00" font-family="Microsoft Sans Serif">8072000160</text></g></g><g id="PMI1.0"><g><path style="stroke:#000000;stroke-width:0.281" d="M76.97,103.09L80.15,103.09L84.90,90.76"/></g><g><path style="fill:#000000" d="M85.85,91.12L83.99,90.40L85.64,88.90z"/></g><g><path style="fill:#ffffff" d="M60.91,105.63L77.63,105.63L77.63,100.55L60.91,100.55z"/><path style="stroke:#000000;stroke-width:0.281;stroke-opacity:0.98" d="M60.91,105.63L77.63,105.63L77.63,100.55L60.91,100.55z"/><text xml:space="preserve" fill="#000000" stroke-width="0" x="61.54" y="104.20" font-size="2.79" opacity="1.00" font-family="Microsoft Sans Serif">013399011</text></g></g><g id="PMI43.0"><g><path style="stroke:#000000;stroke-width:0.281" d="M111.36,118.34L114.54,118.34L116.79,112.84"/></g><g><path style="fill:#000000" d="M117.72,113.21L115.87,112.46L117.55,110.98z"/></g><g><path style="fill:#ffffff" d="M93.55,120.88L112.01,120.88L112.01,115.80L93.55,115.80z"/><path style="stroke:#000000;stroke-width:0.281;stroke-opacity:0.98" d="M93.55,120.88L112.01,120.88L112.01,115.80L93.55,115.80z"/><text xml:space="preserve" fill="#000000" stroke-width="0" x="94.18" y="119.45" font-size="2.79" opacity="1.00" font-family="Microsoft Sans Serif">3901201009</text></g></g><g id="PMI16.0"><g><path style="stroke:#000000;stroke-width:0.281" d="M149.24,127.71L152.41,127.71L157.37,114.62"/></g><g><path style="fill:#000000" d="M158.31,114.97L156.43,114.26L158.08,112.74z"/></g><g><path style="fill:#ffffff" d="M133.15,130.24L149.87,130.24L149.87,125.16L133.15,125.16z"/><path style="stroke:#000000;stroke-width:0.281;stroke-opacity:0.98" d="M133.15,130.24L149.87,130.24L149.87,125.16L133.15,125.16z"/><text xml:space="preserve" fill="#000000" stroke-width="0" x="133.78" y="128.81" font-size="2.79" opacity="1.00" font-family="Microsoft Sans Serif">013399021</text></g></g><g/><g id="paperID" visibility="hidden" opacity="0.00" transform="scale(0.000100)"><path style="stroke:#000000;stroke-width:0.500;fill:#e6e6e6;fill-rule:evenodd" d="M-2000.00,-2000.00L2297.00,-2000.00L2297.00,2210.00L-2000.00,2210.00zM0.00,0.00L297.00,0.00L297.00,210.00L0.00,210.00z"/><path style="fill:#000000;fill-opacity:0.118" d="M3.00,210.00L297.00,210.00L297.00,3.00L300.00,3.00L300.00,213.00L3.00,213.00z"/></g><g id="hotspot.0" onmouseover="ShowHotSpot(evt,'0')" onmouseout="HideHotSpot(evt,'0')" onmousemove="ShowToolTip(evt,'0',&quot;A-0006429-01&quot;)" opacity="0"><path style="fill:#00ff00;fill-rule:evenodd" d="M92.48,88.39L92.50,89.57L91.60,90.30L89.53,90.00L85.71,89.17L85.84,91.13L85.09,90.96L84.17,90.52L84.18,90.10L85.31,89.25L85.28,88.92L84.93,88.88L84.21,89.30L82.23,91.33L79.90,91.34L78.21,90.86L78.29,90.38L81.27,86.89L83.04,85.96zM77.80,100.66L77.94,102.67L80.10,102.58L84.66,91.06L85.09,90.96L80.44,103.19L77.94,103.36L77.70,105.79L60.90,105.79L60.82,100.42L77.54,100.39z"/></g><g id="hotspot.1" onmouseover="ShowHotSpot(evt,'1')" onmouseout="HideHotSpot(evt,'1')" onmousemove="ShowToolTip(evt,'1',&quot;A-0006430-01&quot;)" opacity="0"><path style="fill:#00ff00;fill-rule:evenodd" d="M159.10,110.34L161.28,111.37L163.42,113.25L169.30,121.84L168.47,121.85L164.72,120.50L163.41,119.67L161.82,117.79L159.40,114.32L158.32,113.24L158.35,114.93L157.51,114.94L152.69,127.80L150.18,127.98L149.94,130.41L133.15,130.41L133.06,125.03L149.78,125.01L150.05,125.28L150.18,127.28L152.34,127.19L157.02,114.97L157.23,114.61L156.60,114.06L157.80,113.12L155.37,111.93L148.70,109.24L147.09,107.37L146.99,106.02z"/></g><g id="hotspot.2" onmouseover="ShowHotSpot(evt,'2')" onmouseout="HideHotSpot(evt,'2')" onmousemove="ShowToolTip(evt,'2',&quot;3dp1132270&quot;)" opacity="0"><path style="fill:#00ff00;fill-rule:evenodd" d="M161.79,62.43L163.13,62.97L164.40,63.83L165.28,64.05L163.58,64.58L163.64,67.00L164.21,68.93L120.45,80.36L120.18,80.61L126.19,82.24L153.21,89.74L154.48,89.73L157.15,89.19L158.84,89.19L178.11,94.81L189.33,98.57L191.14,98.56L196.04,98.11L203.99,96.16L214.95,92.14L227.00,87.33L236.09,84.11L245.99,81.43L249.00,81.52L249.45,80.88L250.26,80.62L253.56,80.63L256.24,81.43L260.79,83.84L264.26,85.98L266.98,88.35L268.83,91.19L198.90,128.00L196.99,129.56L195.41,132.27L194.70,135.03L194.46,140.15L193.01,140.84L189.27,141.75L188.54,137.35L187.51,135.18L186.14,134.14L183.73,133.34L175.96,131.74L166.86,129.07L117.90,111.65L117.63,113.11L117.00,113.03L115.23,117.37L114.61,118.36L112.46,118.61L112.31,120.60L112.02,121.12L93.55,121.04L93.46,115.67L112.30,115.67L112.46,117.92L114.43,117.91L116.54,112.73L115.92,112.46L116.86,111.36L79.62,97.44L79.31,97.48L79.09,98.08L76.17,99.47L75.90,95.88L74.30,94.80L74.31,84.89L72.15,82.50L71.08,80.89L70.26,79.04L70.29,77.78L70.99,77.15L77.16,75.29L85.45,73.40L92.13,72.33L93.29,72.34L96.23,72.87L97.76,72.87L130.67,65.65L141.37,63.77L155.28,62.17L160.45,62.17zM92.48,88.39L92.50,89.57L91.60,90.30L89.53,90.00L84.91,88.90L84.22,89.30L82.23,91.33L79.90,91.34L78.21,90.86L78.29,90.38L81.27,86.89L83.04,85.96zM159.10,110.34L161.28,111.37L163.42,113.25L169.30,121.84L168.47,121.85L164.72,120.50L163.41,119.67L161.82,117.79L159.40,114.32L158.31,113.27L148.70,109.24L147.09,107.37L146.99,106.02z"/></g><g id="hotspot.3" onmouseover="ShowHotSpot(evt,'3')" onmouseout="HideHotSpot(evt,'3')" onmousemove="ShowToolTip(evt,'3',&quot;3dp2690566 (I_VÒNG ĐỆM Ø05.7)&quot;)" opacity="0"><path style="fill:#00ff00;fill-rule:evenodd" d="M153.52,141.76L151.89,142.55L151.89,140.81zM150.45,141.46L151.40,141.66L151.40,141.96L150.45,142.16L150.30,143.88L150.01,144.39L131.54,144.32L131.45,138.95L150.29,138.95z"/></g><g id="hotspot.4" onmouseover="ShowHotSpot(evt,'4')" onmouseout="HideHotSpot(evt,'4')" onmousemove="ShowToolTip(evt,'4',&quot;3dp2690578&quot;)" opacity="0"><path style="fill:#00ff00;fill-rule:evenodd" d="M159.66,44.76L160.19,45.07L160.74,44.92L161.53,44.53L161.70,45.11L163.14,45.14L163.30,42.62L182.13,42.62L182.14,47.56L181.85,48.07L163.38,48.00L163.14,45.84L161.72,45.88L161.49,46.19L160.99,46.14L160.49,45.85L159.03,46.11L154.56,46.11L153.19,45.88L152.86,45.65L152.94,44.85L154.75,44.51L158.04,44.51z"/></g><g id="hotspot.5" onmouseover="ShowHotSpot(evt,'5')" onmouseout="HideHotSpot(evt,'5')" onmousemove="ShowToolTip(evt,'5',&quot;3dp2690230 (I_ĐAI ỐC 05100.5)&quot;)" opacity="0"><path style="fill:#00ff00;fill-rule:evenodd" d="M169.59,143.52L169.23,144.07L168.90,145.47L178.12,145.64L178.13,150.57L177.84,151.08L159.37,151.01L159.28,145.64L168.21,145.47L168.50,144.95L168.47,144.05L167.83,143.77L168.77,142.14z"/></g><g id="hotspot.6" onmouseover="ShowHotSpot(evt,'6')" onmouseout="HideHotSpot(evt,'6')" onmousemove="ShowToolTip(evt,'6',&quot;3dp2690235&quot;)" opacity="0"><path style="fill:#00ff00;fill-rule:evenodd" d="M159.31,34.97L159.82,34.91L160.38,34.55L160.72,34.58L160.74,36.30L159.64,35.64L159.29,35.65L158.75,36.21L155.08,36.23L154.48,36.03L154.55,34.15L158.88,34.03zM161.12,35.48L161.12,35.16L162.60,34.97L162.76,32.99L181.60,32.99L181.61,37.92L181.32,38.44L162.85,38.37L162.60,35.66z"/></g></g></svg>
