<?xml version="1.0" encoding="UTF-8" standalone="no"?>
<svg xmlns="http://www.w3.org/2000/svg" xmlns:xlink="http://www.w3.org/1999/xlink" width="297.000mm" height="210.000mm" viewBox="0.000000 0.000000 297.000000 210.000000" stroke-linejoin="round" stroke-linecap="round" fill="none" fill-rule="evenodd"><desc>Composer Export</desc><script type="text/ecmascript"><![CDATA[
if(typeof(top) != "undefined")
{
	top.ShowPaper = ShowPaper;
}
function ShowHotSpot(evt,hotspotid)
{
	var svgDocument = evt.target.ownerDocument;
	var strId = "hotspot."+hotspotid;
	var hotspot = svgDocument.getElementById(strId);
	if(hotspot)
		hotspot.setAttribute("opacity",".5");
}
function HideHotSpot(evt,hotspotid)
{
	var svgDocument = evt.target.ownerDocument;
	var strId = "hotspot."+hotspotid;
	var hotspot = svgDocument.getElementById(strId);
	if(hotspot)
		hotspot.setAttribute("opacity","0");

	var toolTip = svgDocument.getElementById('ToolTip');
	if(toolTip)
		toolTip.setAttribute("visibility","hidden");
}
function ShowToolTip(evt,hotspotid,strTooltip)
{
	if(strTooltip=="")
	return;

	// change text
	var svgDocument = evt.target.ownerDocument;
	var tiptext = svgDocument.getElementById('ToolTipText');
	if( !tiptext )
	return;
	tiptext.firstChild.nodeValue = " " + strTooltip + "  " ;

	// show tooltip before, else some refresh issue

	var toolTip = svgDocument.getElementById('ToolTip');
	if(!toolTip)
	return;

	toolTip.setAttribute("visibility","visible");
	toolTip.setAttribute("opacity",".95");

	// move tooltip
	// get viewbox

	var root = svgDocument.documentElement;
	var vbox = (root.getAttribute("viewBox")).split(' ');
	var x0 = parseFloat(vbox[0]);
	var y0 = parseFloat(vbox[1]);
	var vboxW = parseFloat(vbox[2]);
	var vboxH = parseFloat(vbox[3]);

	// get default width of svg

	var strW = root.getAttribute("width");
	var svgW = parseFloat(strW);
	if(strW.indexOf('mm') != -1)
	svgW *= 3.779;

	var strH = root.getAttribute("height");
	var svgH = parseFloat(strH);
	if(strH.indexOf('mm') != -1)
	svgH *= 3.779;  	// 96 dpi  -> 96/25.4 = 3.779

	// update the viewbox / width / height if svg is embedded in html with zoom fit all
	var realx0 = x0;
	var realy0 = y0;
	var realvboxW = vboxW;
	var realvboxH = vboxH;
	var realsvgW = svgW;
	var realsvgH = svgH;

	if ((typeof(top) == "undefined") || (typeof(top.svgctl1) != "undefined")) // embedded in html
	{
		// get window size in pxl

		svgW = window.innerWidth;
		svgH = window.innerHeight;

		// calculate real viewbox

		realsvgW = svgW;
		realsvgH = svgH;
		if((svgW / svgH) > (vboxW / vboxH))
		{
			realvboxW = (vboxH * svgW) / svgH;
			realvboxH = vboxH;
			realx0 = x0 - (realvboxW - vboxW)/2 ;
		}
		else
		{
			realvboxH = (vboxW * svgH) / svgW;
			realvboxW = vboxW;
			realy0 = y0 - (realvboxH - vboxH)/2 ;
		}
	}

	// get user zoom/pan

	var newScale = root.currentScale;
	var translation = root.currentTranslate;

	// transform pxl to user unit

	var xPos = (((evt.clientX+10- translation.x)/newScale) * realvboxW)/realsvgW  + realx0 ;
	var yPos = (((evt.clientY+5- translation.y)/newScale) * realvboxH)/ realsvgH  + realy0 ;
	var scaleForWidth = ( (1 / newScale) * realvboxH) / realsvgH;

	// move tooltip

	toolTip.setAttribute("transform", "translate(" + xPos + "," + yPos + ")" );

	// resize tooltip

	var fontsize = 12;
	tiptext.setAttribute("font-size",fontsize*scaleForWidth);
	tiptext.setAttribute("y", fontsize*scaleForWidth);
	var tipBG = svgDocument.getElementById('ToolTipBG');
	var outline = tiptext.getBBox();
	if(tipBG)
	{
		tipBG.setAttribute("stroke-width", 1*scaleForWidth);
		tipBG.setAttribute("width", Number(outline.width) );
		tipBG.setAttribute("height", Number(outline.height) + fontsize*.5*scaleForWidth );
	}
	var ToolTipShadow = svgDocument.getElementById('ToolTipShadow');
	if(ToolTipShadow)
	{
		ToolTipShadow.setAttribute("width", Number(outline.width) );
		ToolTipShadow.setAttribute("height", Number(outline.height) + fontsize*.5*scaleForWidth );
		ToolTipShadow.setAttribute("x", 3*scaleForWidth);
		ToolTipShadow.setAttribute("y", 3*scaleForWidth);
	}
}
function ShowPaper()
{
  var svgDocument = getDocument();
  var paper = svgDocument.getElementById("paperID");
  if(paper)
  {
    paper.setAttribute("transform","scale(1)");
    paper.setAttribute("opacity","1");
    paper.setAttribute("visibility","visible");
  }
  var svg = svgDocument.getRootElement();
  if(svg)
  {
    svg.setAttribute("width","307.000mm");
    svg.setAttribute("height","220.000mm");
    svg.setAttribute("viewBox","-5.000000 -5.000000 307.000000 220.000000");
  }
}
]]></script><defs/><g><path style="fill:#ffffff" d="M296.92,209.85L0.08,209.85L0.08,0.08L296.92,0.08z"/><path style="fill:#ff8080" d="M216.33,67.38L223.95,69.24L224.63,69.70L219.10,78.60L215.80,84.26L212.82,95.11L209.75,100.16L210.06,100.47L211.28,100.69L225.03,104.52L225.04,107.06L224.13,108.58L222.85,108.59L209.11,104.89L208.69,104.60L208.50,102.61L208.38,102.58L205.23,107.62L205.20,108.04L206.71,108.43L220.96,112.39L220.98,114.93L220.03,116.34L219.88,115.92L219.68,116.58L216.61,115.93L204.23,112.52L204.13,112.37L203.89,109.93L176.99,153.70L177.00,154.15L179.80,154.84L192.75,158.49L192.77,161.03L191.85,162.56L190.57,162.58L180.11,159.68L178.30,159.28L178.30,163.46L179.80,163.80L187.09,165.79L187.37,166.05L187.34,168.36L186.22,170.25L180.11,168.63L178.30,168.23L178.21,174.38L175.09,173.72L174.77,173.50L174.59,167.17L171.18,166.26L171.06,166.09L170.80,163.91L163.72,175.38L163.62,178.49L163.34,179.02L163.20,176.65L163.08,176.62L162.65,177.57L161.84,178.38L161.65,201.48L160.31,201.19L160.21,199.17L158.06,198.56L158.06,187.95L160.22,184.36L160.22,181.27L150.96,196.26L150.75,199.25L149.31,198.93L148.99,198.62L150.21,196.55L150.20,196.15L149.80,195.94L148.70,195.83L158.05,180.57L158.15,177.39L159.70,177.82L159.55,174.94L163.47,168.63L163.72,166.43L165.09,162.38L166.17,157.49L166.73,151.46L166.17,145.74L166.06,145.64L164.82,139.78L164.53,138.96L164.38,150.51L161.83,149.82L161.58,131.90L157.49,125.13L153.99,120.77L151.82,118.32L147.46,114.01L141.76,109.40L134.71,104.79L132.37,103.39L131.18,102.59L130.99,120.11L129.00,119.72L128.20,119.44L127.93,100.99L120.06,97.46L118.69,96.94L118.14,96.14L97.91,90.50L96.73,90.14L95.83,90.12L95.75,110.63L93.21,109.95L92.94,89.33L82.73,86.45L81.82,86.06L80.92,86.05L80.84,106.57L78.20,105.96L78.05,90.06L78.05,86.54L78.02,85.26L66.35,82.02L66.34,79.36L67.60,77.57L69.92,78.14L70.99,78.39L71.77,78.77L94.28,84.81L97.99,78.66L99.45,76.40L99.86,75.66L111.14,57.23L113.05,54.26L118.20,46.01L118.22,45.64L117.08,45.12L95.90,39.44L95.15,39.06L95.15,37.16L94.88,36.68L93.04,36.27L94.04,34.34L94.55,34.25z"/><path style="fill:#e57373" d="M137.48,89.30L133.08,96.46L132.40,97.38L132.24,95.38L137.20,87.34z"/><path style="fill:#d3b27d" d="M94.88,36.68L95.15,37.16L95.02,37.22L88.86,47.14L88.76,47.64L89.73,47.75L90.48,48.12L113.05,54.26L111.14,57.23L87.89,50.93L87.69,49.15L75.85,68.29L75.82,68.99L76.49,69.12L95.92,74.42L99.86,75.66L99.45,76.40L97.99,78.66L90.76,76.59L74.62,72.16L74.51,70.87L74.39,70.84L69.92,78.14L67.60,77.57L92.83,36.41L93.04,36.27z"/><path style="fill:#d3b27d" d="M139.43,86.21L173.34,95.52L172.68,96.73L171.42,98.53L148.15,92.21L148.01,90.67L147.90,90.64L141.38,101.26L142.34,101.46L165.73,107.98L163.83,111.01L146.10,106.14L145.11,106.11L141.79,103.95L138.55,101.69L144.77,91.32L137.48,89.30L137.20,87.34L138.12,85.97z"/><path style="fill:#bd9f70" d="M95.15,39.06L94.99,39.15L89.73,47.75L88.76,47.64L88.86,47.14L95.02,37.22L95.15,37.16z"/><path style="fill:#bd9f70" d="M75.85,68.29L87.69,49.15L87.89,50.93L87.69,51.06L76.49,69.12L75.82,68.99z"/><path style="fill:#bd9f70" d="M74.62,72.16L70.99,78.39L69.92,78.14L74.39,70.84L74.51,70.87z"/><path style="fill:#bd9f70" d="M148.15,92.21L142.34,101.46L141.38,101.26L147.90,90.64L148.01,90.67z"/><path style="fill:#e57373" d="M116.15,55.05L122.54,44.63L122.80,44.57L122.86,46.62L117.43,55.32z"/><path style="fill:#e57373" d="M115.43,58.40L115.54,58.55L104.41,76.69L103.07,76.41L104.76,73.57L115.07,56.75L115.21,56.67z"/><path style="fill:#e57373" d="M151.33,64.51L152.76,61.90L157.78,53.79L157.89,56.16L155.48,60.00L152.63,64.82L151.49,64.63z"/><path style="fill:#e57373" d="M150.45,67.91L150.58,68.08L139.43,86.21L138.12,85.97L148.15,69.50L150.22,66.19z"/><path style="fill:#e57373" d="M97.45,85.51L102.09,77.94L102.21,77.86L102.32,79.74L98.72,85.96L97.77,85.83z"/><path style="fill:#e57373" d="M82.73,86.45L82.58,86.59L82.37,104.89L81.26,106.52L80.84,106.57L80.92,86.05L81.82,86.06z"/><path style="fill:#e57373" d="M97.91,90.50L97.47,90.68L97.30,108.96L96.38,110.49L95.75,110.63L95.83,90.12L96.73,90.14z"/><path style="fill:#e57373" d="M209.75,100.16L212.82,95.11L215.80,84.26L219.10,78.60L224.63,69.70L224.78,69.79L224.77,72.34L216.08,86.70L213.37,96.74L212.01,99.72L211.28,100.69L210.06,100.47z"/><path style="fill:#e57373" d="M175.83,100.62L177.18,98.25L197.65,64.91L197.76,67.00L177.10,100.88z"/><path style="fill:#e57373" d="M132.37,103.39L132.28,118.45L131.63,119.69L130.99,120.11L131.18,102.59z"/><path style="fill:#e57373" d="M174.31,102.74L174.91,102.00L174.94,103.56L174.28,103.44z"/><path style="fill:#e57373" d="M208.69,104.60L209.11,104.89L208.69,105.07L206.71,108.43L205.20,108.04L205.23,107.62L208.38,102.58L208.50,102.61z"/><path style="fill:#e57373" d="M204.13,112.37L204.23,112.52L199.25,120.59L199.01,129.57L198.19,130.94L197.72,131.23L197.65,123.22L194.70,128.03L180.02,151.81L179.80,154.84L177.00,154.15L176.99,153.70L203.89,109.93z"/><path style="fill:#e57373" d="M220.03,116.34L219.68,116.58L219.88,115.92z"/><path style="fill:#e57373" d="M161.84,123.07L172.70,105.59L172.80,107.68L172.68,107.85L172.43,124.69L171.51,126.23L170.89,126.35L170.68,111.26L168.10,115.53L163.76,122.54L162.67,124.52L162.39,124.69L161.84,124.02z"/><path style="fill:#e57373" d="M165.53,130.25L165.96,130.24L165.94,131.28L165.59,130.84z"/><path style="fill:#e57373" d="M164.82,139.78L166.06,145.64L165.92,148.56L164.81,150.47L164.38,150.51L164.53,138.96z"/><path style="fill:#e57373" d="M169.74,144.83L169.57,144.03L169.70,144.12z"/><path style="fill:#e57373" d="M170.00,147.56L169.85,146.18L169.96,146.28z"/><path style="fill:#e57373" d="M175.62,158.30L175.91,158.51L174.61,160.83L173.82,162.16L172.02,161.74L175.29,156.55L175.41,156.58z"/><path style="fill:#e57373" d="M169.84,157.85L169.42,158.86L169.43,157.76L170.00,153.24z"/><path style="fill:#e57373" d="M180.11,159.68L179.95,159.82L179.80,163.80L178.30,163.46L178.30,159.28z"/><path style="fill:#e57373" d="M171.06,166.09L171.18,166.26L165.09,176.21L163.62,178.49L163.72,175.38L170.80,163.91z"/><path style="fill:#e57373" d="M164.32,167.28L163.88,167.52L163.93,166.88L164.27,166.86z"/><path style="fill:#e57373" d="M180.11,168.63L179.95,168.77L179.75,172.43L178.65,174.33L178.21,174.38L178.30,168.23z"/><path style="fill:#e57373" d="M158.15,177.39L158.45,176.63L159.55,174.94L159.70,177.82z"/><path style="fill:#e57373" d="M150.20,196.15L150.21,196.55L148.99,198.62L149.31,198.93L150.75,199.25L150.96,196.26L160.22,181.27L160.22,184.36L158.06,187.95L152.88,196.27L152.50,197.36L158.06,198.56L160.21,199.17L160.31,201.19L159.11,203.05L157.75,202.98L149.62,201.08L148.81,200.81L148.70,195.83L149.80,195.94z"/><path style="fill:#e57373" d="M163.34,179.02L163.20,199.55L162.12,201.19L161.65,201.48L161.84,178.38L162.65,177.57L163.08,176.62L163.20,176.65z"/><path style="fill:#ff8080" d="M194.70,128.03L197.65,123.22L197.72,131.23L194.92,130.56z"/><path style="fill:#d3b27d" d="M117.43,55.32L148.03,63.74L146.17,66.77L115.54,58.55L115.43,58.40L115.21,56.67L116.15,55.05z"/><path style="fill:#d3b27d" d="M152.63,64.82L153.41,65.21L182.44,73.06L186.38,74.30L185.97,75.04L184.51,77.31L175.39,74.69L150.58,68.08L150.45,67.91L150.22,66.19L151.33,64.51L151.49,64.63z"/><path style="fill:#d3b27d" d="M104.41,76.69L116.79,80.12L135.06,84.94L133.14,88.14L102.32,79.74L102.21,77.86L103.07,76.41z"/><path style="fill:#d3b27d" d="M78.05,86.54L78.05,90.06L62.26,85.83L61.93,85.62L62.00,83.70L62.77,82.54L63.36,82.52z"/><path style="fill:#d3b27d" d="M177.10,100.88L200.92,107.43L199.44,109.95L198.45,109.95L174.94,103.56L174.91,102.00L175.83,100.62z"/><path style="fill:#ffffff" d="M95.90,39.44L117.08,45.12L118.22,45.64L118.20,46.01L113.05,54.26L90.48,48.12L89.73,47.75L94.99,39.15L95.15,39.06z"/><path style="fill:#ffffff" d="M152.07,54.61L153.20,55.13L153.19,55.51L148.03,63.74L117.43,55.32L122.86,46.62z"/><path style="fill:#ffffff" d="M111.14,57.23L99.86,75.66L95.92,74.42L76.49,69.12L87.69,51.06L87.89,50.93z"/><path style="fill:#ffffff" d="M191.69,65.48L191.72,65.80L186.38,74.30L182.44,73.06L153.41,65.21L152.63,64.82L155.48,60.00L157.89,56.16z"/><path style="fill:#ffffff" d="M146.17,66.77L135.06,84.94L116.79,80.12L104.41,76.69L115.54,58.55z"/><path style="fill:#ffffff" d="M218.00,72.52L218.02,73.13L214.37,79.03L211.74,83.71L208.76,94.57L200.92,107.43L177.10,100.88L197.76,67.00z"/><path style="fill:#ffffff" d="M175.39,74.69L184.51,77.31L184.36,77.76L173.34,95.52L139.43,86.21L150.58,68.08z"/><path style="fill:#ffffff" d="M90.76,76.59L97.99,78.66L94.28,84.81L71.77,78.77L70.99,78.39L74.62,72.16z"/><path style="fill:#ffffff" d="M133.14,88.14L129.45,94.22L128.74,94.24L98.72,85.96L102.32,79.74z"/><path style="fill:#ffffff" d="M144.77,91.32L138.55,101.69L132.54,98.28L132.40,97.38L133.08,96.46L137.48,89.30z"/><path style="fill:#ffffff" d="M171.42,98.53L171.35,98.91L165.73,107.98L142.34,101.46L148.15,92.21z"/><path style="fill:#ffffff" d="M163.83,111.01L163.75,111.39L158.82,119.26L158.33,119.18L157.24,117.79L155.08,115.34L152.65,112.62L150.74,111.00L149.36,109.67L145.30,106.39L145.11,106.11L146.10,106.14z"/><path style="fill:#ffffff" d="M194.65,113.74L194.67,117.64L186.50,130.91L185.41,130.84L170.49,126.78L169.80,126.40L170.89,126.35L171.51,126.23L172.43,124.69L172.68,107.85L172.80,107.68z"/><path style="fill:#ffffff" d="M162.67,124.52L163.76,122.54L168.10,115.53L168.35,125.96L167.53,125.96z"/><path style="fill:#ffffff" d="M169.80,126.40L168.78,126.21L169.68,126.23z"/><path style="fill:#ffffff" d="M179.19,133.81L183.82,135.26L171.05,156.13L169.84,157.85L170.00,153.24L170.00,147.56L169.96,146.28L169.85,146.18L169.74,144.83L169.70,144.12L169.57,144.03L168.88,140.06L166.99,133.81L165.94,131.28L165.96,130.24z"/><path style="fill:#ffffff" d="M173.82,162.16L174.61,160.83L174.58,162.41z"/><path style="fill:#ffffff" d="M152.50,197.36L152.88,196.27L158.06,187.95L158.06,198.56z"/><g id="Actor_16.0"><g style="stroke:#000000;stroke-width:0.071"><path d="M98.13,78.76L74.72,72.40L74.69,72.39L74.67,72.15"/><path d="M74.67,72.32L98.16,78.70"/><path d="M77.04,71.39L74.67,70.75L74.72,70.52L74.76,70.42L78.34,71.39"/><path d="M74.76,70.42L75.60,69.08L99.90,75.68L99.95,75.79"/><path d="M74.67,70.75L74.67,71.39"/><path d="M99.90,75.68L99.87,75.72L99.76,75.70L75.56,69.13"/><path d="M79.79,72.14L98.97,77.38"/><path d="M98.28,76.13L98.43,76.09L98.43,76.00L98.27,76.05L98.27,76.12L99.41,76.46L99.06,77.02L79.79,71.79"/><path d="M98.43,76.09L99.51,76.39L99.51,76.31L98.43,76.00"/><path d="M98.97,77.35L99.06,77.02"/><path d="M99.41,76.46L99.41,76.54L99.06,77.11L99.02,77.30"/><path d="M99.09,77.18L99.04,77.17"/><path d="M99.51,76.39L99.89,75.80L99.86,75.82"/><path d="M99.51,76.30L99.86,75.73"/><path d="M99.90,75.83L99.90,75.86"/></g></g><g id="Actor_24.0"><g style="stroke:#000000;stroke-width:0.071"><path d="M170.91,166.35L173.44,167.04L170.91,166.35L170.89,164.19L186.16,168.34L186.11,170.38L186.13,170.48L173.44,167.04"/><path d="M170.89,166.25L186.11,170.38"/><path d="M186.16,168.34L186.19,168.15L186.30,167.87L171.02,163.73L170.91,164.04L170.89,164.19"/><path d="M176.31,163.09L176.84,163.24L172.12,161.96L171.02,163.73"/><path d="M172.06,162.03L187.34,166.18L186.30,167.87"/><path d="M174.57,167.35L175.07,167.48"/><path d="M176.84,163.24L177.97,163.55L176.84,163.24"/><path d="M187.40,166.11L187.44,166.11L177.97,163.55L187.40,166.11L187.34,166.18"/><path d="M187.36,167.83L187.38,166.27L187.04,166.79L186.25,168.11L186.18,170.27L186.19,170.33L186.24,170.30L186.18,170.28"/><path d="M186.24,170.30L187.28,168.58"/><path d="M186.13,170.49L186.17,170.49L186.23,170.42L187.34,168.59"/><path d="M186.79,168.22L186.26,168.07"/><path d="M186.78,168.47L186.23,168.31"/><path d="M187.28,168.60L187.22,168.58"/><path d="M187.42,167.84L187.46,166.22L187.44,166.11"/><path d="M187.40,166.32L187.34,166.31"/></g></g><g id="Actor_7.0"><g style="stroke:#000000;stroke-width:0.071"><path d="M161.80,132.55L161.80,150.01L161.65,149.93L161.58,149.80L161.58,132.13"/><path d="M161.80,150.01L164.35,150.70L164.35,138.65"/><path d="M164.35,150.70L164.61,150.70L164.79,150.57L164.79,140.05"/><path d="M165.83,144.22L165.83,148.88L164.79,150.57"/><path d="M165.83,148.88L165.86,148.79L165.86,144.34"/><path d="M165.83,130.39L165.83,131.32"/><path d="M165.86,130.40L165.86,131.37"/></g></g><g id="Actor_22.0"><g style="stroke:#000000;stroke-width:0.071"><path d="M146.25,66.96L115.31,58.56L115.24,58.54L115.23,58.47L146.29,66.91"/><path d="M115.23,58.47L115.23,56.91L147.10,65.53L147.19,65.23L115.32,56.58L116.11,55.28L116.30,55.27L148.03,63.89L148.07,63.99"/><path d="M115.23,56.91L115.32,56.58"/><path d="M116.11,55.28L147.98,63.94L148.03,63.89"/><path d="M147.10,65.56L147.10,65.58"/><path d="M147.14,65.51L147.18,65.34L147.54,64.75L147.54,64.66L147.19,65.23"/><path d="M147.22,65.39L147.17,65.38"/><path d="M147.54,64.66L146.39,64.32L146.46,64.21L146.56,64.21L146.56,64.30L146.41,64.34"/><path d="M146.56,64.21L147.63,64.50L147.98,63.94"/><path d="M146.56,64.30L147.63,64.59L147.63,64.50"/><path d="M147.63,64.59L148.02,64.00L148.03,64.07"/><path d="M148.03,64.04L147.98,64.03"/></g></g><g id="Actor_7.1"><g style="stroke:#000000;stroke-width:0.071"><path d="M96.20,90.27L96.05,90.34L95.87,90.34L93.28,89.63L93.28,110.19L93.11,110.09L93.06,109.98L93.06,89.42"/><path d="M93.28,110.19L95.87,110.89L96.13,110.87L96.28,110.76L96.28,90.29"/><path d="M96.02,90.22L95.89,90.22L93.34,89.53L93.25,89.47"/><path d="M93.06,89.42L93.11,89.54L93.28,89.63"/><path d="M94.29,89.75L94.29,89.78"/><path d="M94.51,89.81L94.51,89.85"/><path d="M96.28,110.76L97.32,109.06L97.32,90.57"/><path d="M95.83,110.88L95.83,90.33"/><path d="M97.34,90.58L97.34,108.97L97.32,109.06"/></g></g><g id="Actor_14.0"><g style="stroke:#000000;stroke-width:0.071"><path d="M150.88,199.22L150.73,199.47L148.97,198.99L148.82,198.88L148.74,196.24L148.79,196.17L148.74,196.24"/><path d="M148.81,198.83L150.22,196.53"/><path d="M148.97,198.99L150.45,196.59"/><path d="M150.99,199.56L160.24,184.48L160.28,184.36L150.99,199.56L150.89,199.60L150.73,199.59L148.98,199.12L148.79,199.02L148.69,198.91L148.65,198.65L148.58,196.20L148.61,196.10L148.71,196.04L148.89,196.04L149.63,196.24L150.09,195.53L150.16,195.49L150.26,195.49L150.33,195.53L150.33,195.60L149.89,196.31L150.64,196.52L159.97,181.32L158.21,180.85L155.90,184.61"/><path d="M148.79,196.17L148.90,196.17L149.63,196.37L149.65,196.25"/><path d="M148.89,196.04L155.44,185.37"/><path d="M148.61,196.10L155.19,185.37"/><path d="M150.73,199.47L150.84,199.46L150.88,199.39L150.81,196.81L150.77,196.71L150.65,196.64L149.89,196.44L149.89,196.31"/><path d="M151.04,199.43L150.97,196.85L150.91,196.69L150.64,196.52"/><path d="M149.65,196.37L150.09,195.66L150.16,195.61L150.30,195.64"/><path d="M150.09,195.53L150.09,195.66"/><path d="M150.97,196.85L160.28,181.66L160.28,184.36"/><path d="M158.21,180.85L158.05,180.84L157.94,180.90L155.66,184.61"/><path d="M160.28,181.66L160.24,181.52L160.12,181.40L159.97,181.32"/></g></g><g id="Actor_11.0"><g style="stroke:#000000;stroke-width:0.071"><path d="M97.23,85.82L94.48,85.07"/><path d="M119.59,43.76L119.74,43.65L119.90,43.66L94.58,84.94L94.28,85.02L106.59,64.96"/><path d="M94.58,84.94L97.13,85.64L122.43,44.38L122.57,44.41L122.72,44.55L122.75,44.72L116.28,55.27"/><path d="M95.55,85.37L95.57,85.34"/><path d="M95.78,85.43L95.79,85.40"/><path d="M97.13,85.64L97.42,85.87"/><path d="M102.16,78.29L97.50,85.90"/><path d="M98.58,86.19L102.42,79.92"/><path d="M98.61,86.20L102.45,79.93"/><path d="M115.23,56.98L103.21,76.58"/><path d="M115.49,58.61L104.29,76.87"/><path d="M115.52,58.62L104.32,76.88"/><path d="M119.60,43.74L106.64,64.87"/><path d="M108.26,64.64L108.18,64.78L108.48,64.91L108.73,64.85L108.84,64.68L108.72,64.51L108.46,64.45L108.22,64.54L108.18,64.78"/><path d="M108.17,64.72L108.29,64.63L108.55,64.58L108.82,64.75"/><path d="M108.56,64.59L108.37,64.90"/><path d="M108.16,64.75L108.17,64.59"/><path d="M122.77,44.70L122.76,46.76L117.36,55.56"/><path d="M122.77,46.75L117.39,55.57"/><path d="M119.90,43.66L122.45,44.35"/><path d="M122.72,46.87L122.73,46.86"/></g></g><g id="Actor_20.0"><g style="stroke:#000000;stroke-width:0.071"><path d="M158.21,187.78L158.21,198.77"/><path d="M158.00,188.13L158.00,198.72"/><path d="M158.21,180.85L158.21,177.76L158.07,177.69L158.00,177.58L158.02,177.46L159.39,175.24L159.50,175.14L159.66,175.10L159.84,175.11L163.18,176.02L163.33,176.09L163.40,176.20L163.37,176.32L162.79,177.27L162.79,177.53L162.72,177.82L162.66,177.92L162.61,177.93L162.59,177.59L162.01,178.55L162.01,201.54L161.90,201.64L161.74,201.68L161.56,201.67L161.56,178.67L161.74,178.69L161.90,178.64L162.01,178.55"/><path d="M158.00,177.58L158.00,180.86"/><path d="M158.21,177.76L161.56,178.67"/><path d="M162.59,177.59L162.43,177.55L161.85,178.50L161.76,178.56L161.62,178.56L158.28,177.66L158.18,177.59L158.18,177.51L159.14,175.95L159.55,175.28L159.64,175.22L159.77,175.22L159.77,178.06"/><path d="M159.55,175.28L159.55,178.00"/><path d="M159.77,175.22L163.12,176.13L163.21,176.19L163.21,176.28L162.63,177.23L162.79,177.27"/><path d="M160.28,201.32L161.56,201.67"/><path d="M162.01,201.54L163.37,199.31L163.40,199.20L163.40,189.05"/><path d="M162.79,177.53L162.63,177.49L162.59,177.68"/><path d="M162.63,177.49L162.63,177.23"/><path d="M163.12,176.43L163.12,176.13"/><path d="M163.37,199.31L163.37,189.05"/><path d="M163.37,176.32L163.37,188.29"/><path d="M163.40,176.20L163.40,188.30"/></g></g><g id="Actor_21.0"><g style="stroke:#000000;stroke-width:0.071"><path d="M144.86,91.45L137.29,89.39L137.22,89.30L144.90,91.39"/><path d="M137.22,89.30L137.22,87.71L137.31,87.41L172.52,96.97L172.43,97.30L148.13,90.70"/><path d="M145.72,90.05L137.22,87.74"/><path d="M137.31,87.41L138.10,86.11L138.28,86.10L173.13,95.56"/><path d="M173.13,95.63L138.10,86.11"/><path d="M148.13,92.27L171.62,98.64"/><path d="M171.58,98.70L148.11,92.33"/><path d="M171.74,96.08L171.89,96.04L171.89,95.95L171.79,95.95L171.72,96.06L172.87,96.40L172.52,96.97"/><path d="M171.89,95.95L172.97,96.24L172.97,96.31L171.89,96.04"/><path d="M172.48,97.25L172.52,97.06L172.87,96.49L172.87,96.40"/><path d="M172.43,97.30L172.43,97.33"/><path d="M172.55,97.13L172.50,97.11"/><path d="M172.97,96.24L173.14,95.95"/><path d="M172.97,96.33L173.15,96.03"/></g></g><g id="Actor_8.0"><g style="stroke:#000000;stroke-width:0.071"><path d="M178.57,168.43L178.57,174.54L178.42,174.65L178.21,174.68L174.77,173.75L174.66,173.70L174.57,173.60L174.56,167.34"/><path d="M174.56,160.95L174.56,162.62"/><path d="M174.77,173.75L174.77,167.40"/><path d="M174.77,160.60L174.77,162.68"/><path d="M178.57,174.54L179.94,172.31L179.94,168.80"/><path d="M178.12,174.66L178.12,168.31"/><path d="M178.57,159.47L178.57,163.71"/><path d="M178.12,159.35L178.12,163.58"/><path d="M178.47,154.71L178.57,154.62L179.16,153.67L179.04,153.64"/><path d="M178.57,154.62L178.57,154.74"/><path d="M179.94,172.31L179.96,172.22L179.96,168.81"/><path d="M179.94,164.08L179.94,159.84"/><path d="M179.96,164.08L179.96,159.84"/><path d="M179.92,152.21L179.96,152.31L179.94,152.40L179.94,155.11"/><path d="M179.96,155.12L179.96,152.31"/><path d="M179.16,153.67L179.16,153.98L179.21,154.01L179.30,153.87L179.35,153.61L179.19,153.56L179.16,153.77"/><path d="M179.35,153.61L179.35,153.35L179.24,153.32"/><path d="M179.35,153.35L179.94,152.40"/><path d="M179.19,153.56L179.19,153.40"/></g></g><g id="Actor_3.0"><g style="stroke:#000000;stroke-width:0.071"><path d="M171.43,110.20L171.43,126.46L171.34,126.55L171.19,126.61L170.98,126.62L168.43,126.17L168.30,126.13L168.23,126.04L168.23,115.42"/><path d="M168.43,126.17L168.43,115.09"/><path d="M170.98,126.62L170.98,110.93"/><path d="M171.43,126.46L172.47,124.76L172.50,124.66L172.50,108.46"/><path d="M172.47,124.76L172.47,108.50"/></g></g><g id="Actor_7.2"><g style="stroke:#000000;stroke-width:0.071"><path d="M78.08,85.36L78.13,85.47L78.29,85.56L78.30,86.27L78.30,106.12L78.13,106.03L78.08,105.91L78.08,85.35"/><path d="M79.31,106.40L78.30,106.12"/><path d="M81.04,86.15L80.91,86.15L78.36,85.46L78.27,85.40"/><path d="M78.30,85.57L80.89,86.27L81.05,86.27L81.23,86.21"/><path d="M79.31,85.68L79.31,85.72"/><path d="M81.30,86.22L81.30,106.69L81.15,106.80L80.94,106.83L80.05,106.60"/><path d="M79.53,85.74L79.53,85.78"/><path d="M80.85,86.26L80.85,106.81"/><path d="M81.30,106.69L82.34,104.99L82.34,86.51"/><path d="M82.34,104.99L82.36,104.90L82.36,86.51"/></g></g><g id="Actor_13.0"><g style="stroke:#000000;stroke-width:0.071"><path d="M159.84,175.11L161.27,175.50L161.82,174.60L162.23,174.40L161.82,174.47L161.27,175.37L159.84,174.98L159.53,175.13"/><path d="M159.56,175.04L185.05,133.48"/><path d="M159.84,174.98L185.29,133.49"/><path d="M162.02,174.50L161.39,175.53"/><path d="M161.27,175.37L161.27,175.50"/><path d="M163.18,176.02L161.75,175.50L163.46,176.09L163.40,179.08"/><path d="M161.75,175.50L162.30,174.61"/><path d="M161.82,174.47L161.82,174.60"/><path d="M163.18,175.89L189.09,133.65"/><path d="M163.46,179.05L171.20,166.43"/><path d="M163.50,178.93L171.17,166.43"/><path d="M163.50,176.24L170.88,164.20"/><path d="M172.24,161.99L175.60,156.50"/><path d="M173.66,162.37L175.89,158.74"/><path d="M175.91,158.75L173.68,162.38"/><path d="M189.61,133.68L176.95,154.30"/><path d="M191.22,133.74L178.37,154.69"/><path d="M178.40,154.69L191.25,133.75"/><path d="M180.05,144.60L180.34,144.92L180.70,144.64L180.24,144.49L180.05,144.76"/><path d="M180.05,144.73L180.39,144.59L180.69,144.75"/><path d="M180.19,144.88L180.37,144.59"/><path d="M185.74,132.75L208.58,95.51L208.47,95.41L185.50,132.74"/><path d="M203.86,110.43L190.06,132.94"/><path d="M189.54,132.92L211.98,96.33L212.30,96.67L212.30,99.37L213.06,97.82L211.33,100.94"/><path d="M191.67,133.01L204.14,112.67"/><path d="M191.70,133.01L204.17,112.68"/><path d="M208.56,102.76L205.21,108.23"/><path d="M205.33,103.53L205.68,103.36L205.98,103.52"/><path d="M205.48,103.65L205.65,103.36"/><path d="M205.34,103.37L205.63,103.69L205.99,103.40L205.68,103.23L205.34,103.50"/><path d="M206.63,108.62L208.85,105.00"/><path d="M208.87,105.00L206.65,108.62"/><path d="M208.36,95.48L208.93,94.30"/><path d="M208.63,95.42L209.42,93.61L211.74,84.76L211.40,85.02"/><path d="M208.91,94.36L209.12,93.70L209.42,93.61"/><path d="M209.08,93.84L211.75,83.92"/><path d="M211.74,84.76L213.00,81.86L221.03,68.76L224.42,69.59L216.34,82.77L216.66,83.11L215.64,85.47L213.06,95.12L209.92,100.56"/><path d="M212.26,99.49L211.36,100.95"/><path d="M213.00,81.86L212.72,81.91L211.72,83.97"/><path d="M213.06,97.82L213.32,97.02L213.32,94.32L213.15,94.08L213.01,94.03L211.98,96.33"/><path d="M212.98,94.02L215.30,85.17L215.64,85.47L215.64,88.16L213.32,97.02"/><path d="M212.72,81.91L220.80,68.74L221.08,68.69"/><path d="M215.30,85.17L216.34,82.77"/><path d="M215.64,88.16L215.88,87.43"/><path d="M216.24,86.58L215.90,87.36L216.62,85.93L216.24,86.58"/><path d="M215.89,87.41L215.90,87.36"/><path d="M220.42,79.67L216.66,85.81L216.66,83.11L224.74,69.94L224.74,72.65L220.87,78.94"/><path d="M216.62,85.93L220.45,79.67"/><path d="M224.74,72.65L220.90,78.94"/><path d="M224.42,69.59L224.74,69.94"/></g></g><g id="Actor_16.1"><g style="stroke:#000000;stroke-width:0.071"><path d="M111.23,57.39L87.74,51.01L87.78,51.09L111.20,57.45"/><path d="M87.74,51.01L87.74,49.44L87.79,49.21L88.63,47.82L112.93,54.42L112.98,54.37L113.02,54.47"/><path d="M87.83,49.11L112.13,55.71L112.48,55.14L111.41,54.85L111.34,54.81L111.34,54.74L111.50,54.69L112.58,54.98L112.58,55.07L112.93,54.51L112.97,54.51L112.93,54.51"/><path d="M87.74,49.44L112.04,56.06"/><path d="M88.63,47.82L88.67,47.77L112.97,54.37"/><path d="M112.11,55.86L112.16,55.87"/><path d="M112.04,56.04L112.13,55.71"/><path d="M112.48,55.14L112.48,55.23L112.13,55.80L112.09,55.99"/><path d="M111.35,54.82L111.50,54.78L111.50,54.69"/><path d="M111.50,54.78L112.58,55.07"/><path d="M112.97,54.52L112.97,54.55"/><path d="M112.58,54.98L112.93,54.42"/></g></g><g id="Actor_19.0"><g style="stroke:#000000;stroke-width:0.071"><path d="M195.03,127.58L195.03,130.81L194.89,130.74L194.82,130.63L194.82,127.92"/><path d="M194.83,113.90L194.82,117.55"/><path d="M194.82,113.93L194.89,114.04L195.03,114.11L195.03,117.21"/><path d="M195.03,130.81L197.58,131.50L197.58,123.42"/><path d="M196.04,114.23L196.04,114.26"/><path d="M195.03,114.11L196.66,114.55"/><path d="M196.72,114.45L195.10,114.00L195.01,113.95"/><path d="M196.27,114.29L196.27,114.32"/><path d="M197.58,131.50L197.76,131.52L197.92,131.47L198.03,131.38L198.03,122.69"/><path d="M198.03,131.38L198.45,130.69L198.45,130.43L198.52,130.14L198.58,130.04L198.63,130.03L198.65,130.11L198.55,130.09"/><path d="M198.65,130.11L198.65,130.37L198.49,130.33L198.49,130.24"/><path d="M199.07,128.16L199.07,129.68L199.09,129.56L199.09,128.16"/><path d="M199.07,129.68L198.65,130.37"/><path d="M199.07,120.99L199.07,127.41"/><path d="M199.09,127.41L199.09,120.95"/></g></g><g id="Actor_25.0"><g style="stroke:#000000;stroke-width:0.071"><path d="M124.50,95.82L124.54,95.73L124.35,95.83L122.69,95.05L118.53,93.92L118.20,94.60L118.19,96.80L119.03,97.23L118.20,96.89L118.54,97.03"/><path d="M118.19,96.80L123.56,99.04L127.24,100.75L132.88,103.74L138.15,106.99"/><path d="M119.03,97.23L124.28,99.44L130.10,102.30L132.88,103.83L138.15,107.08"/><path d="M118.32,94.27L121.42,95.52L126.96,98.02L133.08,101.24L138.39,104.52L143.33,108.05L147.86,111.81L149.96,113.77L152.99,116.92L155.60,119.96L157.24,122.11L160.16,126.52L162.59,131.06L164.50,135.71L165.88,140.45L166.37,142.84L166.95,147.57L167.01,152.46L166.52,157.27L165.41,162.32L163.94,166.76L163.62,166.92L163.62,168.43"/><path d="M118.19,94.74L124.29,97.30L130.10,100.15L135.57,103.28L138.85,105.42"/><path d="M120.16,97.68L120.44,97.80"/><path d="M124.50,95.69L123.78,95.35L123.76,95.47L124.50,95.81"/><path d="M169.35,159.07L168.85,159.69L169.60,154.77L169.80,149.84L169.46,144.91L168.56,140.01L167.13,135.16L165.16,130.40L162.67,125.75L159.67,121.24L156.20,116.92L152.21,112.71L147.78,108.75L142.93,105.01L137.16,101.21L132.06,98.30L129.12,96.80L123.76,95.35"/><path d="M129.12,96.80L130.21,97.22"/><path d="M130.15,97.19L137.61,101.34L142.73,104.70L147.47,108.30L151.81,112.12L155.74,116.13L159.22,120.32L162.24,124.66L163.58,126.88L165.47,130.57"/><path d="M166.68,151.70L166.39,147.57L166.03,145.16L164.91,140.42L164.16,138.07L162.48,133.95L159.84,128.91L156.33,123.73L153.58,120.32L151.67,118.23L149.69,116.22L145.40,112.38L143.08,110.52L138.91,107.51"/><path d="M162.48,133.95L161.16,131.28L158.49,126.81L155.41,122.59L153.58,120.39L150.77,117.39L147.62,114.37L143.10,110.62L138.91,107.60"/><path d="M164.16,165.42L165.13,162.32L166.18,157.48L166.54,154.38L166.71,150.29L166.39,145.50L165.78,141.89L164.91,138.36L163.27,133.69L161.11,129.11L158.59,124.86L156.93,122.47L153.54,118.23L150.77,115.26L147.59,112.21L143.08,108.46L138.89,105.45"/><path d="M161.96,126.64L161.86,126.49"/><path d="M161.76,126.75L161.57,126.46"/><path d="M161.98,126.60L161.68,126.44L161.34,126.58L161.48,126.35L161.99,126.49L161.98,126.63L161.63,126.77L161.32,126.60L161.34,126.46"/><path d="M161.34,126.61L161.34,126.58"/><path d="M162.98,135.08L163.45,136.22"/><path d="M163.94,166.76L164.43,166.89L164.43,167.02L163.94,166.89L163.78,166.97L163.78,168.17"/><path d="M163.66,166.82L164.37,164.83"/><path d="M163.88,137.35L164.17,138.10"/><path d="M164.52,166.95L164.59,166.75"/><path d="M164.43,166.89L167.24,162.32L164.43,167.02"/><path d="M164.97,166.22L165.02,166.06"/><path d="M164.45,164.59L164.49,164.50"/><path d="M165.36,130.32L165.42,130.45"/><path d="M165.47,130.54L166.85,133.72L168.15,137.46L169.26,141.89L169.73,144.63L170.13,149.46L170.14,153.93L169.79,158.35"/><path d="M167.24,162.32L167.33,161.19L167.24,162.44"/><path d="M167.33,161.19L167.56,161.04L167.53,161.96L169.09,159.50"/><path d="M167.53,161.83L168.85,159.69"/><path d="M167.33,161.22L167.58,161.21"/><path d="M168.85,159.81L168.85,159.79"/><path d="M170.14,151.88L170.01,154.29L169.37,159.04"/></g></g><g id="Actor_7.3"><g style="stroke:#000000;stroke-width:0.071"><path d="M128.33,101.40L128.33,119.71L128.19,119.64L128.12,119.50L128.12,101.29"/><path d="M128.33,119.71L130.92,120.41L131.19,120.39L131.33,120.28L131.33,102.98"/><path d="M130.88,120.40L130.88,102.73"/><path d="M131.33,120.28L132.37,118.58L132.40,118.49L132.40,103.56"/><path d="M132.37,118.58L132.37,103.55"/><path d="M132.22,98.26L132.39,97.99"/><path d="M132.37,98.02L132.37,98.34"/><path d="M132.40,97.97L132.40,98.36"/></g></g><g id="Actor_23.0"><g style="stroke:#000000;stroke-width:0.071"><path d="M177.97,159.31L175.62,158.66L175.60,158.56L175.60,156.51L191.64,160.86L191.55,162.98L175.62,158.66"/><path d="M175.60,158.56L191.54,162.89"/><path d="M175.60,156.51L175.62,156.35L175.73,156.04L191.78,160.40L191.70,160.57L191.64,160.86"/><path d="M191.55,163.00L191.60,163.00L191.65,162.93L192.69,161.24L192.81,160.96L192.84,160.77L192.94,158.74L192.93,158.65L192.90,158.62L192.83,158.69L192.71,158.67L176.77,154.34L175.73,156.04"/><path d="M176.77,154.34L176.84,154.27L192.90,158.62"/><path d="M179.11,159.61L179.95,159.84"/><path d="M192.70,161.11L192.77,160.88L192.86,158.79L191.73,160.64L191.62,162.84L192.70,161.11L191.70,160.84"/><path d="M191.66,162.80L191.60,162.79"/><path d="M191.78,160.40L192.82,158.70"/><path d="M191.74,160.60L192.77,160.88"/><path d="M192.87,158.85L192.81,158.83"/></g></g><g id="Actor_23.1"><g style="stroke:#000000;stroke-width:0.071"><path d="M203.88,112.59L206.31,113.26L203.88,112.59L203.86,112.49L219.79,116.82L219.81,116.92L219.85,116.93L221.01,115.04L221.09,114.70L221.14,113.74"/><path d="M219.79,116.82L219.89,114.79L203.86,110.44L203.86,112.49"/><path d="M203.86,110.44L203.88,110.28L203.99,109.97L220.04,114.33L219.96,114.50L219.89,114.79"/><path d="M203.99,109.97L205.03,108.27L221.08,112.63L221.14,112.57L221.19,112.58L221.18,112.98"/><path d="M221.15,112.56L205.09,108.20L205.03,108.27"/><path d="M206.31,113.26L207.45,113.57L206.31,113.26"/><path d="M219.81,116.93L207.45,113.57L208.19,113.77"/><path d="M220.75,113.29L220.03,114.46L219.97,114.63L219.87,116.77L220.98,114.99L221.03,114.81L221.08,113.73"/><path d="M219.91,116.74L219.86,116.72"/><path d="M220.96,115.04L219.95,114.77"/><path d="M221.03,114.81L220.00,114.53"/><path d="M220.04,114.33L220.75,113.17"/><path d="M221.08,112.63L220.86,112.98"/><path d="M220.94,112.98L221.11,112.72L221.12,112.98"/><path d="M221.13,112.78L221.07,112.76"/></g></g><g id="Actor_11.1"><g style="stroke:#000000;stroke-width:0.071"><path d="M129.36,94.52L154.63,53.31L154.76,53.18L154.91,53.17L129.63,94.46L129.36,94.52"/><path d="M132.28,95.34L129.53,94.59"/><path d="M129.63,94.46L132.18,95.16L132.48,95.40"/><path d="M130.61,94.89L130.62,94.86"/><path d="M130.83,94.95L130.85,94.92"/><path d="M137.48,89.44L132.50,97.55L132.49,95.42"/><path d="M132.50,97.59L132.50,97.55"/><path d="M137.50,89.45L132.49,97.62"/><path d="M137.22,87.81L132.50,95.50"/><path d="M132.18,95.16L157.50,53.87L157.62,53.92L157.77,54.06L157.81,54.24L151.34,64.79"/><path d="M138.27,86.10L150.29,66.50"/><path d="M150.55,68.13L139.35,86.39"/><path d="M150.57,68.14L139.38,86.40"/><path d="M143.88,74.26L143.61,74.10L143.23,74.24L143.28,74.06L143.61,73.97L143.88,74.13L143.79,74.36L143.35,74.39L143.23,74.30L143.32,74.16"/><path d="M143.23,74.24L143.23,74.30"/><path d="M143.23,74.11L143.22,74.27"/><path d="M143.43,74.41L143.62,74.10"/><path d="M157.82,54.22L157.81,56.28L152.42,65.08"/><path d="M152.45,65.09L157.82,56.27"/><path d="M154.66,53.26L154.65,53.28"/><path d="M154.95,53.18L157.50,53.87"/><path d="M157.78,56.39L157.79,56.38"/></g></g><g id="Actor_9.0"><g style="stroke:#000000;stroke-width:0.071"><path d="M118.40,94.14L66.27,79.99L66.27,82.04L118.19,96.14"/><path d="M66.27,82.04L66.29,82.14L66.88,82.31L118.19,96.24"/><path d="M67.44,77.82L132.37,95.45L132.44,95.38L67.50,77.75L66.40,79.52L66.27,79.99"/><path d="M66.40,79.52L131.33,97.15L132.37,95.45"/><path d="M90.00,84.91L89.70,84.75L89.36,84.92"/><path d="M89.36,84.89L89.36,84.76L89.34,84.91L89.65,85.08L89.86,85.05L90.01,84.80L89.70,84.62L89.36,84.76"/><path d="M108.77,90.19L108.77,90.04L108.82,90.25L109.27,90.32L109.43,90.07L109.12,89.89L108.77,90.04"/><path d="M108.77,90.16L109.12,90.02L109.41,90.18"/><path d="M124.42,95.78L124.00,95.66"/><path d="M132.16,98.23L132.44,97.66L132.44,95.60L131.33,97.28L131.27,97.76"/><path d="M131.33,97.15L131.20,97.73"/><path d="M131.20,97.62L130.75,97.50"/><path d="M132.37,97.89L131.27,97.59"/><path d="M132.44,97.66L131.30,97.35"/><path d="M132.22,98.26L132.50,97.55L132.44,95.38"/><path d="M132.37,95.59L132.44,95.60"/></g></g><g id="Actor_10.0"><g style="stroke:#000000;stroke-width:0.071"><path d="M162.35,124.85L162.39,124.72L162.53,124.85L163.09,125.81L163.09,125.94L162.48,124.92L162.44,125.00"/><path d="M162.44,124.96L162.53,124.99"/><path d="M163.09,125.94L163.76,126.12L163.89,126.21"/><path d="M163.09,125.81L163.76,125.99L163.88,126.06L163.92,126.17L163.86,126.26L163.72,126.32L163.35,126.25L164.00,127.38L164.09,127.84"/><path d="M186.38,131.31L186.34,131.23L186.26,131.30L162.53,124.85"/><path d="M186.32,131.23L162.39,124.72"/><path d="M163.96,127.43L163.86,127.40"/><path d="M164.09,127.76L181.86,132.59"/><path d="M163.92,127.21L184.07,132.68"/><path d="M164.00,127.68L163.92,127.34L163.35,126.38L163.35,126.25"/><path d="M163.76,126.12L163.76,125.99"/><path d="M183.98,135.22L165.27,130.14"/><path d="M183.93,135.30L165.33,130.26"/><path d="M186.26,131.30L185.37,132.74"/><path d="M186.31,131.42L186.30,131.39L186.26,131.43L185.45,132.74"/><path d="M186.26,131.43L186.30,131.44"/></g></g><g id="Actor_2.0"><g style="stroke:#000000;stroke-width:0.071"><path d="M172.85,105.78L161.79,123.82L161.55,123.34L158.94,119.72L158.81,119.61L158.74,119.72"/><path d="M159.71,120.91L159.68,120.95"/><path d="M161.65,123.77L161.55,123.47L158.87,119.79"/><path d="M159.56,120.71L159.54,120.75"/><path d="M158.75,119.63L173.15,96.14"/><path d="M158.94,119.72L173.17,96.51"/><path d="M161.75,123.88L161.75,123.92"/><path d="M161.55,123.34L173.53,103.80"/><path d="M172.85,107.84L162.48,124.75"/><path d="M172.86,107.87L162.50,124.75"/><path d="M174.27,103.46L174.83,102.55"/><path d="M174.23,102.66L197.50,64.73L197.66,64.81L197.82,65.08L175.89,100.83"/><path d="M173.87,95.38L193.29,63.70"/><path d="M193.29,63.60L193.05,63.71L173.85,95.01"/><path d="M176.97,101.12L197.82,67.13L197.82,65.08"/><path d="M197.81,67.14L176.99,101.13"/><path d="M197.50,64.73L194.05,63.80"/></g></g><g id="Actor_17.0"><g style="stroke:#000000;stroke-width:0.071"><path d="M69.84,78.38L69.74,78.29L68.02,77.82L67.69,77.80"/><path d="M71.18,72.14L67.79,77.67L67.68,77.66L67.58,77.77"/><path d="M67.60,77.71L71.01,72.14"/><path d="M67.79,77.67L69.74,78.20L69.95,78.42"/><path d="M68.52,78.03L68.55,77.97"/><path d="M68.67,78.07L68.71,78.01"/><path d="M73.82,72.15L69.97,78.42"/><path d="M69.74,78.20L73.45,72.15"/><path d="M70.79,78.64L74.67,72.32"/><path d="M74.68,72.35L70.81,78.65"/><path d="M71.47,71.39L92.89,36.46L93.09,36.43L71.64,71.39"/><path d="M73.91,71.39L95.03,36.95L95.14,37.01L95.23,37.23L88.76,47.79"/><path d="M74.28,71.39L74.67,70.75"/><path d="M87.74,49.44L75.69,69.10"/><path d="M87.74,51.01L76.51,69.33"/><path d="M76.53,69.33L87.75,51.03"/><path d="M81.09,57.23L81.08,57.37L81.39,57.54L81.73,57.40L81.75,57.26L81.44,57.08L81.23,57.12L81.09,57.23L81.09,57.38"/><path d="M81.09,57.32L81.44,57.17L81.74,57.34"/><path d="M81.14,57.44L81.29,57.20"/><path d="M81.28,57.51L81.48,57.19"/><path d="M89.60,48.02L95.25,38.76L89.58,48.02"/><path d="M93.09,36.43L95.03,36.95"/><path d="M95.25,38.76L95.25,37.20"/></g></g><g id="Actor_1.0"><g style="stroke:#000000;stroke-width:0.071"><path d="M200.85,107.72L200.80,107.61L175.77,100.80L174.88,102.23L174.83,102.47L174.83,103.74"/><path d="M199.87,109.31L199.95,108.97L199.51,108.83L174.92,102.14"/><path d="M199.87,109.28L174.83,102.47"/><path d="M199.97,108.95L200.75,107.67L175.72,100.85"/><path d="M200.00,109.11L199.94,109.10"/><path d="M200.80,107.79L200.79,107.73L199.97,109.04L199.92,109.23"/><path d="M200.80,107.76L200.76,107.75"/><path d="M200.76,107.66L200.80,107.61"/></g></g><g id="Actor_18.0"><g style="stroke:#000000;stroke-width:0.071"><path d="M196.79,114.33L172.85,107.83L172.90,107.94L196.74,114.42"/><path d="M172.85,107.83L172.85,105.80L172.87,105.62L172.98,105.31L198.03,112.11L197.90,112.52"/><path d="M197.87,112.57L172.85,105.78"/><path d="M172.98,105.31L173.75,104.06"/><path d="M174.28,103.59L199.13,110.34L199.08,110.40L198.38,110.22L174.28,103.68"/><path d="M199.12,110.53L199.11,110.50L199.07,110.54L198.38,111.67L198.03,112.24L197.97,112.41"/><path d="M198.03,112.32L198.00,112.31"/><path d="M198.03,112.11L199.07,110.41"/><path d="M199.07,110.54L199.11,110.56"/><path d="M199.13,110.34L199.18,110.36L199.19,110.42"/></g></g><g id="Actor_12.0"><g style="stroke:#000000;stroke-width:0.071"><path d="M161.65,54.75L93.02,36.11L92.90,36.46"/><path d="M93.02,36.11L94.06,34.42L161.58,52.75"/><path d="M161.58,52.65L94.06,34.42"/><path d="M118.47,45.59L95.00,39.21"/><path d="M118.41,45.68L94.94,39.31"/><path d="M119.55,43.82L95.25,37.23"/><path d="M122.77,46.75L153.53,55.10"/><path d="M153.47,55.20L122.74,46.85"/><path d="M154.61,53.34L122.77,44.70"/><path d="M136.04,46.78L135.47,46.68L135.68,46.49L135.97,46.57L136.01,46.83L135.60,46.94L135.39,46.76"/><path d="M135.39,46.63L135.38,46.78"/><path d="M161.75,57.34L157.82,56.27"/><path d="M161.75,57.45L157.79,56.37"/><path d="M161.67,55.26L157.82,54.21"/><path d="M191.93,65.53L162.51,57.54"/><path d="M162.51,57.65L191.87,65.63"/><path d="M193.01,63.77L162.43,55.47"/><path d="M193.28,63.34L162.41,54.96"/><path d="M162.34,52.96L193.19,61.34"/><path d="M162.34,52.86L193.18,61.23"/><path d="M177.97,58.29L178.28,58.04L178.61,58.30L177.97,58.29"/><path d="M177.95,58.31L178.20,58.50L178.60,58.34"/><path d="M177.95,58.19L177.94,58.34"/><path d="M219.47,70.90L219.60,70.49L194.04,63.55"/><path d="M193.95,61.54L220.77,68.79"/><path d="M220.72,68.71L193.95,61.44"/><path d="M197.82,67.13L218.36,72.71"/><path d="M218.31,72.80L197.78,67.23"/><path d="M219.44,70.95L197.82,65.08"/><path d="M219.54,70.79L220.68,68.93"/><path d="M219.60,70.70L219.56,70.70"/><path d="M219.60,70.49L220.64,68.79"/><path d="M220.64,68.92L220.70,68.90"/></g></g><g id="Actor_15.0"><g style="stroke:#000000;stroke-width:0.071"><path d="M150.92,201.36L149.04,200.94L148.97,200.90L148.91,200.83"/><path d="M148.75,200.83L148.86,201.00L148.94,201.07L149.04,201.12L150.80,201.59L150.89,201.60L150.98,201.58L151.06,201.49L151.10,201.33L151.05,199.67L152.16,197.86L152.21,197.71L152.19,197.60"/><path d="M149.04,200.94L150.79,201.42L150.86,201.42L150.92,201.38L150.94,201.28L150.89,199.63L151.05,199.67"/><path d="M148.72,198.94L148.66,199.02L148.69,200.08"/><path d="M149.30,200.82L150.94,201.18"/><path d="M148.85,200.08L148.82,199.07L148.84,199.04"/><path d="M148.82,199.07L148.66,199.02"/><path d="M151.10,201.33L159.17,203.13L159.05,203.27L158.89,203.35L158.77,203.37L158.66,203.35L150.80,201.59"/><path d="M150.89,199.63L150.92,199.59"/><path d="M152.24,197.51L159.97,199.24L160.06,199.29L160.15,199.36L160.25,199.51L160.28,199.68L152.16,197.86"/><path d="M159.97,199.24L158.21,198.77L152.29,197.44"/><path d="M159.17,203.13L160.28,201.32L160.28,199.68"/></g></g><g id="Actor_24.1"><g style="stroke:#000000;stroke-width:0.071"><path d="M208.58,104.92L210.85,105.54L208.59,104.92L208.56,104.82L208.56,102.76L223.84,106.91L223.78,108.96L223.80,109.05L223.85,109.07L224.95,107.30L225.06,107.02L225.08,106.84L225.14,104.79L225.12,104.69L225.07,104.68L225.01,104.75L223.97,106.45L223.87,106.73L223.84,106.91"/><path d="M208.56,104.82L223.78,108.96"/><path d="M223.97,106.45L208.69,102.30L208.63,102.44L208.56,102.76"/><path d="M213.95,101.66L214.25,101.74L209.80,100.53L208.69,102.30"/><path d="M210.85,105.54L211.98,105.85L210.85,105.54"/><path d="M225.01,104.75L209.73,100.60"/><path d="M223.80,109.06L211.98,105.85L212.71,106.04"/><path d="M214.25,101.74L225.12,104.69"/><path d="M215.38,102.05L225.07,104.68"/><path d="M223.94,106.65L225.02,106.94L225.06,104.84L225.01,104.88L223.92,106.69L223.85,108.85L223.86,108.91L223.91,108.87L223.85,108.85"/><path d="M223.91,108.87L224.95,107.17L225.02,106.94"/><path d="M224.95,107.17L223.90,106.89"/><path d="M225.07,104.90L225.01,104.88"/></g></g><g id="Actor_5.0"><g style="stroke:#000000;stroke-width:0.071"><path d="M165.76,108.19L165.72,108.08L141.42,101.48L140.58,102.83L140.49,103.17"/><path d="M140.49,103.16L164.79,109.78"/><path d="M164.79,109.76L164.87,109.45L164.37,109.29L140.58,102.83"/><path d="M141.37,101.53L165.67,108.13L165.72,108.08"/><path d="M144.10,105.70L163.98,111.10"/><path d="M163.94,111.16L144.25,105.81"/><path d="M164.88,109.43L165.67,108.13"/><path d="M165.67,108.23L165.72,108.24L165.71,108.21L165.67,108.22L164.88,109.52L164.83,109.71"/><path d="M164.91,109.59L164.86,109.57"/><path d="M165.72,108.24L165.72,108.27"/></g></g><g id="Actor_22.1"><g style="stroke:#000000;stroke-width:0.071"><path d="M133.18,88.28L102.24,79.87L102.17,79.85L102.16,79.78L133.22,88.22"/><path d="M102.16,79.78L102.16,78.24L102.21,78.23L134.01,86.86L134.12,86.54L134.47,85.97L133.32,85.64L133.32,85.57L133.49,85.52L133.49,85.61L133.34,85.65"/><path d="M102.16,78.22L102.25,77.89L103.04,76.59L103.16,76.56L134.96,85.20L134.56,85.81L134.56,85.90L133.49,85.61"/><path d="M102.25,77.89L134.12,86.54"/><path d="M103.04,76.59L134.91,85.25"/><path d="M133.49,85.52L134.56,85.81"/><path d="M134.03,86.87L134.03,86.89"/><path d="M134.47,85.97L134.47,86.06L134.12,86.63L134.07,86.82"/><path d="M134.15,86.70L134.10,86.69"/><path d="M134.56,85.90L134.91,85.34"/><path d="M134.96,85.20L135.00,85.30"/><path d="M134.96,85.35L134.96,85.38"/></g></g><g id="Actor_4.0"><g style="stroke:#000000;stroke-width:0.071"><path d="M140.49,103.12L140.42,102.95L140.31,102.84L138.69,101.80L138.58,101.76L138.52,101.79L145.77,89.97L145.84,89.93L145.96,89.93L138.69,101.80"/><path d="M139.32,102.29L139.27,102.39"/><path d="M139.45,102.38L139.40,102.47"/><path d="M138.59,101.92L138.62,101.87L138.59,101.96"/><path d="M140.41,103.12L140.39,103.02L140.31,102.93L138.69,101.89L138.62,101.87"/><path d="M138.52,101.79L138.50,101.90"/><path d="M140.31,102.84L147.91,90.46L145.96,89.93"/><path d="M142.34,101.74L148.10,92.35L148.12,92.28L148.13,92.05L148.13,90.70L141.50,101.51"/><path d="M142.33,101.73L148.13,92.27"/><path d="M148.13,90.70L148.10,90.60L148.02,90.51L147.91,90.46"/></g></g><g id="Actor_21.1"><g style="stroke:#000000;stroke-width:0.071"><path d="M184.65,77.39L150.37,68.08L150.29,67.99L184.69,77.33"/><path d="M150.29,67.99L150.29,66.40L150.38,66.10L185.59,75.66L185.50,75.96L185.45,75.97L150.29,66.42"/><path d="M150.38,66.10L151.17,64.80L151.34,64.78L186.43,74.31L186.39,74.35L185.91,74.24L151.17,64.80"/><path d="M185.55,75.94L185.59,75.75L185.94,75.18L185.94,75.09L184.86,74.80L184.79,74.69L184.96,74.64L186.04,74.93L186.04,74.99L186.38,74.45L186.43,74.47L186.38,74.45"/><path d="M185.59,75.66L185.94,75.09"/><path d="M185.50,75.99L185.50,76.02"/><path d="M185.62,75.82L185.57,75.80"/><path d="M186.04,75.02L184.96,74.73L184.96,74.64"/><path d="M184.81,74.76L184.96,74.73"/><path d="M186.04,74.93L186.38,74.36"/><path d="M186.43,74.47L186.43,74.50"/><path d="M186.48,74.43L186.43,74.31"/></g></g><g id="Actor_6.0"><g style="stroke:#000000;stroke-width:0.071"><path d="M78.03,90.30L77.99,90.28L77.98,90.21L77.98,88.65L61.89,84.28L61.90,85.91L78.03,90.30L78.08,90.22"/><path d="M61.89,85.84L77.98,90.21"/><path d="M77.98,88.65L78.07,88.32L66.35,85.14L61.98,83.95L61.89,84.28"/><path d="M61.98,83.95L62.82,82.61L78.08,86.75"/><path d="M62.77,82.66L78.08,86.81"/><path d="M78.08,88.39L78.03,88.57L78.04,90.18L78.08,90.13"/><path d="M78.07,90.16L78.03,90.14"/><path d="M78.08,88.65L78.03,88.63"/><path d="M78.07,88.32L78.08,88.30"/><path d="M78.08,88.47L78.05,88.46"/></g></g><g id="PMI17.0"><g><path style="stroke:#000000;stroke-width:0.160" d="M79.04,44.25L87.20,44.39"/></g><g><path style="fill:#000000" d="M87.19,45.39L87.22,43.39L89.20,44.42z"/></g><g><path style="fill:#ffffff" d="M60.46,46.92L79.04,46.92L79.04,41.27L60.46,41.27z"/><path style="stroke:#000000;stroke-width:0.160;stroke-opacity:0.98" d="M60.46,46.92L79.04,46.92L79.04,41.27L60.46,41.27z"/><text xml:space="preserve" fill="#000000" stroke-width="0" x="61.16" y="45.33" font-size="3.10" opacity="1.00" font-family="Microsoft Sans Serif">010045441</text></g></g><g id="PMI12.0"><g><path style="stroke:#000000;stroke-width:0.160" d="M135.56,39.05L135.91,44.94"/></g><g><path style="fill:#000000" d="M134.91,45.00L136.91,44.88L136.03,46.93z"/></g><g><path style="fill:#ffffff" d="M126.10,39.05L144.68,39.05L144.68,33.41L126.10,33.41z"/><path style="stroke:#000000;stroke-width:0.160;stroke-opacity:0.98" d="M126.10,39.05L144.68,39.05L144.68,33.41L126.10,33.41z"/><text xml:space="preserve" fill="#000000" stroke-width="0" x="126.80" y="37.46" font-size="3.10" opacity="1.00" font-family="Microsoft Sans Serif">010044221</text></g></g><g id="PMI22.0"><g><path style="stroke:#000000;stroke-width:0.160" d="M124.50,65.41L126.88,62.25"/></g><g><path style="fill:#000000" d="M127.68,62.86L126.09,61.65L128.09,60.66z"/></g><g><path style="fill:#ffffff" d="M113.08,71.06L131.66,71.06L131.66,65.41L113.08,65.41z"/><path style="stroke:#000000;stroke-width:0.160;stroke-opacity:0.98" d="M113.08,71.06L131.66,71.06L131.66,65.41L113.08,65.41z"/><text xml:space="preserve" fill="#000000" stroke-width="0" x="113.78" y="69.47" font-size="3.10" opacity="1.00" font-family="Microsoft Sans Serif">010044211</text></g></g><g id="PMI11.0"><g><path style="stroke:#000000;stroke-width:0.160" d="M101.55,64.53L106.64,64.58"/></g><g><path style="fill:#000000" d="M106.63,65.58L106.65,63.58L108.64,64.60z"/></g><g><path style="fill:#ffffff" d="M82.97,67.26L101.55,67.26L101.55,61.62L82.97,61.62z"/><path style="stroke:#000000;stroke-width:0.160;stroke-opacity:0.98" d="M82.97,67.26L101.55,67.26L101.55,61.62L82.97,61.62z"/><text xml:space="preserve" fill="#000000" stroke-width="0" x="83.68" y="65.67" font-size="3.10" opacity="1.00" font-family="Microsoft Sans Serif">010044201</text></g></g><g id="PMI7.0"><g><path style="stroke:#000000;stroke-width:0.160" d="M79.42,110.71L79.77,105.11"/></g><g><path style="fill:#000000" d="M80.76,105.17L78.77,105.05L79.89,103.11z"/></g><g><path style="fill:#ffffff" d="M69.95,116.35L88.53,116.35L88.53,110.71L69.95,110.71z"/><path style="stroke:#000000;stroke-width:0.160;stroke-opacity:0.98" d="M69.95,116.35L88.53,116.35L88.53,110.71L69.95,110.71z"/><text xml:space="preserve" fill="#000000" stroke-width="0" x="70.66" y="114.76" font-size="3.10" opacity="1.00" font-family="Microsoft Sans Serif">010044121</text></g></g><g id="PMI2.0"><g><path style="stroke:#000000;stroke-width:0.160" d="M193.28,55.05L193.76,65.68"/></g><g><path style="fill:#000000" d="M192.76,65.73L194.76,65.64L193.85,67.68z"/></g><g><path style="fill:#ffffff" d="M183.87,55.05L202.45,55.05L202.45,49.41L183.87,49.41z"/><path style="stroke:#000000;stroke-width:0.160;stroke-opacity:0.98" d="M183.87,55.05L202.45,55.05L202.45,49.41L183.87,49.41z"/><text xml:space="preserve" fill="#000000" stroke-width="0" x="184.57" y="53.47" font-size="3.10" opacity="1.00" font-family="Microsoft Sans Serif">010044311</text></g></g><g id="PMI21.0"><g><path style="stroke:#000000;stroke-width:0.160" d="M161.80,48.54L162.49,67.28"/></g><g><path style="fill:#000000" d="M161.49,67.31L163.49,67.24L162.57,69.28z"/></g><g><path style="fill:#ffffff" d="M152.41,48.54L170.99,48.54L170.99,42.90L152.41,42.90z"/><path style="stroke:#000000;stroke-width:0.160;stroke-opacity:0.98" d="M152.41,48.54L170.99,48.54L170.99,42.90L152.41,42.90z"/><text xml:space="preserve" fill="#000000" stroke-width="0" x="153.11" y="46.96" font-size="3.10" opacity="1.00" font-family="Microsoft Sans Serif">010044291</text></g></g><g id="PMI16.0"><g><path style="stroke:#000000;stroke-width:0.160" d="M64.66,71.76L79.79,71.77"/></g><g><path style="fill:#000000" d="M79.79,72.77L79.79,70.77L81.79,71.77z"/></g><g><path style="fill:#ffffff" d="M46.08,74.58L64.66,74.58L64.66,68.94L46.08,68.94z"/><path style="stroke:#000000;stroke-width:0.160;stroke-opacity:0.98" d="M46.08,74.58L64.66,74.58L64.66,68.94L46.08,68.94z"/><text xml:space="preserve" fill="#000000" stroke-width="0" x="46.79" y="72.99" font-size="3.10" opacity="1.00" font-family="Microsoft Sans Serif">010044191</text></g></g><g id="PMI6.0"><g><path style="stroke:#000000;stroke-width:0.160" d="M64.58,92.54L65.03,87.55"/></g><g><path style="fill:#000000" d="M66.02,87.64L64.03,87.46L65.21,85.56z"/></g><g><path style="fill:#ffffff" d="M55.03,98.18L73.61,98.18L73.61,92.54L55.03,92.54z"/><path style="stroke:#000000;stroke-width:0.160;stroke-opacity:0.98" d="M55.03,98.18L73.61,98.18L73.61,92.54L55.03,92.54z"/><text xml:space="preserve" fill="#000000" stroke-width="0" x="55.74" y="96.59" font-size="3.10" opacity="1.00" font-family="Microsoft Sans Serif">010044281</text></g></g><g id="PMI13.0"><g><path style="stroke:#000000;stroke-width:0.160" d="M225.37,79.51L219.47,79.26"/></g><g><path style="fill:#000000" d="M219.51,78.26L219.43,80.26L217.47,79.17z"/></g><g><path style="fill:#ffffff" d="M225.37,82.72L243.95,82.72L243.95,77.08L225.37,77.08z"/><path style="stroke:#000000;stroke-width:0.160;stroke-opacity:0.98" d="M225.37,82.72L243.95,82.72L243.95,77.08L225.37,77.08z"/><text xml:space="preserve" fill="#000000" stroke-width="0" x="226.07" y="81.13" font-size="3.10" opacity="1.00" font-family="Microsoft Sans Serif">010044091</text></g></g><g id="PMI9.0"><g><path style="stroke:#000000;stroke-width:0.160" d="M113.37,102.03L113.89,95.53"/></g><g><path style="fill:#000000" d="M114.88,95.61L112.89,95.45L114.05,93.54z"/></g><g><path style="fill:#ffffff" d="M103.85,107.67L122.44,107.67L122.44,102.03L103.85,102.03z"/><path style="stroke:#000000;stroke-width:0.160;stroke-opacity:0.98" d="M103.85,107.67L122.44,107.67L122.44,102.03L103.85,102.03z"/><text xml:space="preserve" fill="#000000" stroke-width="0" x="104.56" y="106.08" font-size="3.10" opacity="1.00" font-family="Microsoft Sans Serif">010044131</text></g></g><g id="PMI3.0"><g><path style="stroke:#000000;stroke-width:0.160" d="M175.19,119.98L172.74,119.90"/></g><g><path style="fill:#000000" d="M172.77,118.90L172.70,120.89L170.74,119.82z"/></g><g><path style="fill:#ffffff" d="M175.19,123.13L193.77,123.13L193.77,117.49L175.19,117.49z"/><path style="stroke:#000000;stroke-width:0.160;stroke-opacity:0.98" d="M175.19,123.13L193.77,123.13L193.77,117.49L175.19,117.49z"/><text xml:space="preserve" fill="#000000" stroke-width="0" x="175.89" y="121.55" font-size="3.10" opacity="1.00" font-family="Microsoft Sans Serif">010044181</text></g></g><g id="PMI19.0"><g><path style="stroke:#000000;stroke-width:0.160" d="M215.87,128.04L198.55,127.78"/></g><g><path style="fill:#000000" d="M198.57,126.78L198.54,128.78L196.55,127.75z"/></g><g><path style="fill:#ffffff" d="M215.87,131.00L234.45,131.00L234.45,125.35L215.87,125.35z"/><path style="stroke:#000000;stroke-width:0.160;stroke-opacity:0.98" d="M215.87,131.00L234.45,131.00L234.45,125.35L215.87,125.35z"/><text xml:space="preserve" fill="#000000" stroke-width="0" x="216.58" y="129.41" font-size="3.10" opacity="1.00" font-family="Microsoft Sans Serif">010044261</text></g></g><g id="PMI4.0"><g><path style="stroke:#000000;stroke-width:0.160" d="M138.62,117.49L138.52,105.42"/></g><g><path style="fill:#000000" d="M139.52,105.41L137.52,105.43L138.50,103.42z"/></g><g><path style="fill:#ffffff" d="M129.35,123.13L147.93,123.13L147.93,117.49L129.35,117.49z"/><path style="stroke:#000000;stroke-width:0.160;stroke-opacity:0.98" d="M129.35,123.13L147.93,123.13L147.93,117.49L129.35,117.49z"/><text xml:space="preserve" fill="#000000" stroke-width="0" x="130.06" y="121.55" font-size="3.10" opacity="1.00" font-family="Microsoft Sans Serif">010044161</text></g></g><g id="PMI18.0"><g><path style="stroke:#000000;stroke-width:0.160" d="M173.23,90.04L173.92,104.05"/></g><g><path style="fill:#000000" d="M172.93,104.10L174.92,104.00L174.02,106.05z"/></g><g><path style="fill:#ffffff" d="M163.80,90.04L182.38,90.04L182.38,84.40L163.80,84.40z"/><path style="stroke:#000000;stroke-width:0.160;stroke-opacity:0.98" d="M163.80,90.04L182.38,90.04L182.38,84.40L163.80,84.40z"/><text xml:space="preserve" fill="#000000" stroke-width="0" x="164.50" y="88.45" font-size="3.10" opacity="1.00" font-family="Microsoft Sans Serif">010044251</text></g></g><g id="PMI1.0"><g><path style="stroke:#000000;stroke-width:0.160" d="M194.75,100.62L195.11,105.05"/></g><g><path style="fill:#000000" d="M194.11,105.13L196.11,104.97L195.27,107.04z"/></g><g><path style="fill:#ffffff" d="M185.22,100.62L203.81,100.62L203.81,94.98L185.22,94.98z"/><path style="stroke:#000000;stroke-width:0.160;stroke-opacity:0.98" d="M185.22,100.62L203.81,100.62L203.81,94.98L185.22,94.98z"/><text xml:space="preserve" fill="#000000" stroke-width="0" x="185.93" y="99.03" font-size="3.10" opacity="1.00" font-family="Microsoft Sans Serif">010044301</text></g></g><g id="PMI5.0"><g><path style="stroke:#000000;stroke-width:0.160" d="M156.55,101.43L156.94,105.27"/></g><g><path style="fill:#000000" d="M155.94,105.37L157.93,105.17L157.14,107.26z"/></g><g><path style="fill:#ffffff" d="M146.98,101.43L165.56,101.43L165.56,95.79L146.98,95.79z"/><path style="stroke:#000000;stroke-width:0.160;stroke-opacity:0.98" d="M146.98,101.43L165.56,101.43L165.56,95.79L146.98,95.79z"/><text xml:space="preserve" fill="#000000" stroke-width="0" x="147.69" y="99.85" font-size="3.10" opacity="1.00" font-family="Microsoft Sans Serif">010044081</text></g></g><g id="PMI23.0"><g><path style="stroke:#000000;stroke-width:0.160" d="M224.82,113.41L220.75,113.35"/></g><g><path style="fill:#000000" d="M220.76,112.35L220.73,114.35L218.75,113.33z"/></g><g><path style="fill:#ffffff" d="M224.82,116.35L243.41,116.35L243.41,110.71L224.82,110.71z"/><path style="stroke:#000000;stroke-width:0.160;stroke-opacity:0.98" d="M224.82,116.35L243.41,116.35L243.41,110.71L224.82,110.71z"/><text xml:space="preserve" fill="#000000" stroke-width="0" x="225.53" y="114.76" font-size="3.10" opacity="1.00" font-family="Microsoft Sans Serif">010044151</text></g></g><g id="PMI10.0"><g><path style="stroke:#000000;stroke-width:0.160" d="M193.63,133.47L181.42,132.95"/></g><g><path style="fill:#000000" d="M181.47,131.95L181.38,133.94L179.43,132.86z"/></g><g><path style="fill:#ffffff" d="M193.63,136.69L212.21,136.69L212.21,131.05L193.63,131.05z"/><path style="stroke:#000000;stroke-width:0.160;stroke-opacity:0.98" d="M193.63,136.69L212.21,136.69L212.21,131.05L193.63,131.05z"/><text xml:space="preserve" fill="#000000" stroke-width="0" x="194.34" y="135.11" font-size="3.10" opacity="1.00" font-family="Microsoft Sans Serif">010044171</text></g></g><g id="PMI8.0"><g><path style="stroke:#000000;stroke-width:0.160" d="M192.82,154.09L181.09,153.94"/></g><g><path style="fill:#000000" d="M181.11,152.94L181.08,154.94L179.09,153.92z"/></g><g><path style="fill:#ffffff" d="M192.82,157.04L211.40,157.04L211.40,151.39L192.82,151.39z"/><path style="stroke:#000000;stroke-width:0.160;stroke-opacity:0.98" d="M192.82,157.04L211.40,157.04L211.40,151.39L192.82,151.39z"/><text xml:space="preserve" fill="#000000" stroke-width="0" x="193.52" y="155.45" font-size="3.10" opacity="1.00" font-family="Microsoft Sans Serif">010044101</text></g></g><g id="PMI25.0"><g><path style="stroke:#000000;stroke-width:0.160" d="M160.68,156.23L165.99,156.14"/></g><g><path style="fill:#000000" d="M166.01,157.14L165.98,155.14L167.99,156.10z"/></g><g><path style="fill:#ffffff" d="M142.10,159.21L160.68,159.21L160.68,153.56L142.10,153.56z"/><path style="stroke:#000000;stroke-width:0.160;stroke-opacity:0.98" d="M142.10,159.21L160.68,159.21L160.68,153.56L142.10,153.56z"/><text xml:space="preserve" fill="#000000" stroke-width="0" x="142.80" y="157.62" font-size="3.10" opacity="1.00" font-family="Microsoft Sans Serif">010044111</text></g></g><g id="PMI24.0"><g><path style="stroke:#000000;stroke-width:0.160" d="M190.38,168.30L186.79,168.19"/></g><g><path style="fill:#000000" d="M186.82,167.19L186.76,169.19L184.79,168.13z"/></g><g><path style="fill:#ffffff" d="M190.38,171.41L208.96,171.41L208.96,165.77L190.38,165.77z"/><path style="stroke:#000000;stroke-width:0.160;stroke-opacity:0.98" d="M190.38,171.41L208.96,171.41L208.96,165.77L190.38,165.77z"/><text xml:space="preserve" fill="#000000" stroke-width="0" x="191.08" y="169.82" font-size="3.10" opacity="1.00" font-family="Microsoft Sans Serif">010044141</text></g></g><g id="PMI20.0"><g><path style="stroke:#000000;stroke-width:0.160" d="M167.59,188.84L163.02,188.66"/></g><g><path style="fill:#000000" d="M163.06,187.66L162.98,189.66L161.02,188.58z"/></g><g><path style="fill:#ffffff" d="M167.59,192.03L186.18,192.03L186.18,186.38L167.59,186.38z"/><path style="stroke:#000000;stroke-width:0.160;stroke-opacity:0.98" d="M167.59,192.03L186.18,192.03L186.18,186.38L167.59,186.38z"/><text xml:space="preserve" fill="#000000" stroke-width="0" x="168.30" y="190.44" font-size="3.10" opacity="1.00" font-family="Microsoft Sans Serif">010044271</text></g></g><g id="PMI14.0"><g><path style="stroke:#000000;stroke-width:0.160" d="M148.75,185.05L156.60,184.98"/></g><g><path style="fill:#000000" d="M156.61,185.98L156.59,183.98L158.60,184.96z"/></g><g><path style="fill:#ffffff" d="M130.16,187.96L148.75,187.96L148.75,182.31L130.16,182.31z"/><path style="stroke:#000000;stroke-width:0.160;stroke-opacity:0.98" d="M130.16,187.96L148.75,187.96L148.75,182.31L130.16,182.31z"/><text xml:space="preserve" fill="#000000" stroke-width="0" x="130.87" y="186.37" font-size="3.10" opacity="1.00" font-family="Microsoft Sans Serif">010044231</text></g></g><g id="PMI15.0"><g><path style="stroke:#000000;stroke-width:0.160" d="M143.86,200.60L150.85,200.39"/></g><g><path style="fill:#000000" d="M150.87,201.39L150.82,199.39L152.85,200.34z"/></g><g><path style="fill:#ffffff" d="M125.28,203.69L143.86,203.69L143.86,198.05L125.28,198.05z"/><path style="stroke:#000000;stroke-width:0.160;stroke-opacity:0.98" d="M125.28,203.69L143.86,203.69L143.86,198.05L125.28,198.05z"/><text xml:space="preserve" fill="#000000" stroke-width="0" x="125.99" y="202.10" font-size="3.10" opacity="1.00" font-family="Microsoft Sans Serif">010044241</text></g></g><g/><g id="paperID" visibility="hidden" opacity="0.00" transform="scale(0.000100)"><path style="stroke:#000000;stroke-width:0.500;fill:#e6e6e6;fill-rule:evenodd" d="M-2000.00,-2000.00L2297.00,-2000.00L2297.00,2210.00L-2000.00,2210.00zM0.00,0.00L297.00,0.00L297.00,210.00L0.00,210.00z"/><path style="fill:#000000;fill-opacity:0.118" d="M3.00,210.00L297.00,210.00L297.00,3.00L300.00,3.00L300.00,213.00L3.00,213.00z"/></g><g id="hotspot.0" onmouseover="ShowHotSpot(evt,'0')" onmouseout="HideHotSpot(evt,'0')" onmousemove="ShowToolTip(evt,'0',&quot;3dp1003940&quot;)" opacity="0"><path style="fill:#ff6820;fill-rule:evenodd" d="M185.06,94.74L203.89,94.74L203.89,100.55L195.10,100.71L195.01,103.61L194.86,103.49L194.66,100.71L185.15,100.46zM194.43,105.66L194.31,105.03L196.06,104.81L195.64,105.86L195.96,106.16L200.88,107.50L199.44,109.95L198.45,109.95L175.36,103.74L175.04,103.52L175.11,101.60L175.84,100.69zM195.20,104.62L195.01,103.61L195.18,103.73z"/></g><g id="hotspot.1" onmouseover="ShowHotSpot(evt,'1')" onmouseout="HideHotSpot(evt,'1')" onmousemove="ShowToolTip(evt,'1',&quot;3dp947788&quot;)" opacity="0"><path style="fill:#ff6820;fill-rule:evenodd" d="M186.26,131.12L186.29,131.43L185.32,132.73L190.56,133.02L190.68,133.18L185.08,133.28L184.07,134.99L182.97,134.91L165.28,130.09L162.51,124.61zM190.79,133.33L190.68,133.18L193.31,133.09L193.47,130.81L212.30,130.81L212.30,136.62L193.56,136.54L193.31,133.53z"/></g><g id="hotspot.2" onmouseover="ShowHotSpot(evt,'2')" onmouseout="HideHotSpot(evt,'2')" onmousemove="ShowToolTip(evt,'2',&quot;3dp948485&quot;)" opacity="0"><path style="fill:#ff6820;fill-rule:evenodd" d="M121.97,44.03L122.80,44.55L122.79,46.58L117.53,55.16L116.16,55.11L115.47,56.07L115.45,58.53L104.31,76.67L102.90,76.57L102.42,77.47L102.18,80.21L98.81,85.81L97.82,85.81L94.46,84.78L94.71,84.14L106.55,64.98L106.53,64.65L101.79,64.63L101.63,67.19L82.89,67.10L82.81,61.38L101.63,61.38L101.79,64.20L106.49,64.18L106.72,63.56L107.33,63.61L119.69,43.45zM157.76,53.80L157.78,56.34L152.60,64.74L151.19,64.64L150.42,65.80L150.47,68.26L139.49,86.09L138.14,86.03L137.44,86.99L137.41,89.31L132.80,97.02L132.54,95.30L129.78,94.50L129.46,94.19L154.78,52.99z"/></g><g id="hotspot.3" onmouseover="ShowHotSpot(evt,'3')" onmouseout="HideHotSpot(evt,'3')" onmousemove="ShowToolTip(evt,'3',&quot;3dp968682&quot;)" opacity="0"><path style="fill:#ff6820;fill-rule:evenodd" d="M134.95,45.19L135.88,44.50L136.60,44.85L136.81,45.73L220.46,68.43L220.72,68.67L218.42,72.52L212.81,71.17L197.90,67.10L197.63,64.65L193.82,63.55L193.03,63.64L192.12,65.19L190.84,65.20L158.03,56.24L157.76,53.80L154.78,52.99L153.59,54.89L152.88,54.91L123.03,46.76L122.80,44.55L121.97,44.03L119.69,43.45L118.42,45.48L95.30,39.23L95.15,36.94L94.87,36.68L93.12,36.24L93.18,35.72L94.20,34.24zM125.93,33.17L144.76,33.17L144.76,38.98L135.70,39.14L135.61,39.86L135.24,39.16L126.02,38.89zM135.88,44.50L135.61,39.86L135.77,39.98z"/></g><g id="hotspot.4" onmouseover="ShowHotSpot(evt,'4')" onmouseout="HideHotSpot(evt,'4')" onmousemove="ShowToolTip(evt,'4',&quot;3dp974712&quot;)" opacity="0"><path style="fill:#ff6820;fill-rule:evenodd" d="M223.95,69.25L224.79,69.77L224.77,72.34L220.85,78.75L222.14,79.20L220.61,79.30L216.08,86.70L213.37,96.74L211.65,100.44L209.78,100.44L208.77,101.91L208.74,104.77L206.76,108.32L205.09,108.04L204.13,109.47L203.89,113.02L178.40,154.48L176.76,154.23L175.65,156.12L175.69,158.85L173.74,162.11L172.03,161.98L171.04,163.44L171.04,166.34L163.44,178.93L163.19,175.86L159.56,174.76L208.76,94.57L211.74,83.71L214.37,79.03L220.69,68.80L221.77,68.71zM222.26,79.36L222.14,79.20L225.04,79.12L225.20,76.84L244.03,76.84L244.03,82.65L225.29,82.56L225.04,79.55z"/></g><g id="hotspot.5" onmouseover="ShowHotSpot(evt,'5')" onmouseout="HideHotSpot(evt,'5')" onmousemove="ShowToolTip(evt,'5',&quot;3dp979443&quot;)" opacity="0"><path style="fill:#ff6820;fill-rule:evenodd" d="M160.20,181.28L160.22,184.36L151.17,199.17L149.89,199.18L148.80,198.92L148.83,195.48L155.10,185.41L155.08,185.07L148.99,185.06L148.83,187.88L130.09,187.80L130.00,182.08L148.83,182.08L148.99,184.63L155.60,184.62L157.97,180.73L158.56,180.70z"/></g><g id="hotspot.6" onmouseover="ShowHotSpot(evt,'6')" onmouseout="HideHotSpot(evt,'6')" onmousemove="ShowToolTip(evt,'6',&quot;3dp979444&quot;)" opacity="0"><path style="fill:#ff6820;fill-rule:evenodd" d="M160.20,199.18L160.22,201.18L159.11,203.05L157.75,202.98L149.62,201.09L148.55,200.52L144.10,200.52L143.94,203.62L125.20,203.53L125.12,197.81L143.94,197.81L144.11,200.09L148.56,200.09L148.80,198.89L149.89,199.19L151.17,199.17L152.34,197.28z"/></g><g id="hotspot.7" onmouseover="ShowHotSpot(evt,'7')" onmouseout="HideHotSpot(evt,'7')" onmousemove="ShowToolTip(evt,'7',&quot;3dp980494&quot;)" opacity="0"><path style="fill:#ff6820;fill-rule:evenodd" d="M107.58,52.72L113.01,54.33L111.29,57.06L110.29,57.07L87.97,50.90L88.08,48.48L88.52,47.84L89.70,47.82zM99.73,75.51L99.77,75.83L98.26,78.49L92.65,77.14L74.78,72.23L74.49,71.70L64.90,71.69L64.74,74.51L46.00,74.42L45.92,68.70L64.74,68.70L64.90,71.25L74.50,71.25L74.91,70.03L75.51,68.97z"/></g><g id="hotspot.8" onmouseover="ShowHotSpot(evt,'8')" onmouseout="HideHotSpot(evt,'8')" onmousemove="ShowToolTip(evt,'8',&quot;3dp980502&quot;)" opacity="0"><path style="fill:#ff6820;fill-rule:evenodd" d="M94.87,36.68L95.15,36.94L95.12,38.98L89.87,47.56L88.52,47.84L88.08,48.48L87.80,50.91L76.57,69.01L75.51,68.97L74.78,70.17L74.51,72.34L70.96,78.30L69.88,78.21L67.94,77.68L67.62,77.38L87.24,45.36L86.55,44.21L87.23,44.11L87.45,43.49L88.50,43.50L92.83,36.40zM79.28,43.86L86.41,44.05L86.55,44.21L79.28,44.29L79.12,46.84L60.38,46.76L60.29,41.04L79.12,41.04z"/></g><g id="hotspot.9" onmouseover="ShowHotSpot(evt,'9')" onmouseout="HideHotSpot(evt,'9')" onmousemove="ShowToolTip(evt,'9',&quot;3dp981566&quot;)" opacity="0"><path style="fill:#ff6820;fill-rule:evenodd" d="M163.63,84.16L182.46,84.16L182.46,89.97L173.40,90.13L173.32,91.68L172.97,90.13L163.72,89.88zM173.59,97.10L173.43,96.99L173.32,91.68L173.47,91.79zM173.86,102.53L173.70,102.41L173.59,97.10L173.75,97.22zM174.31,103.44L194.37,108.86L199.00,110.23L199.04,110.56L196.80,114.11L193.82,113.48L172.94,107.78L172.95,105.13L173.19,104.48L173.14,104.00L173.76,103.78L173.86,102.53z"/></g><g id="hotspot.10" onmouseover="ShowHotSpot(evt,'10')" onmouseout="HideHotSpot(evt,'10')" onmousemove="ShowToolTip(evt,'10',&quot;3dp981567&quot;)" opacity="0"><path style="fill:#ff6820;fill-rule:evenodd" d="M196.57,114.30L196.59,114.62L194.94,117.12L194.91,113.73zM199.17,127.40L207.92,127.59L208.04,127.75L199.16,127.83L199.01,129.57L198.09,131.09L196.81,131.10L194.92,130.56L194.91,127.65L199.01,121.05zM208.15,127.91L208.04,127.75L215.55,127.67L215.71,125.12L234.54,125.12L234.54,130.93L215.80,130.84L215.55,128.10z"/></g><g id="hotspot.11" onmouseover="ShowHotSpot(evt,'11')" onmouseout="HideHotSpot(evt,'11')" onmousemove="ShowToolTip(evt,'11',&quot;3dp1018880&quot;)" opacity="0"><path style="fill:#ff6820;fill-rule:evenodd" d="M183.70,49.17L202.53,49.17L202.53,54.98L193.47,55.14L193.39,57.23L193.04,55.14L183.79,54.89zM193.65,63.21L193.39,57.23L193.55,57.35zM193.92,63.50L197.63,64.65L197.65,67.19L177.20,100.73L175.84,100.69L175.11,101.60L174.85,103.54L174.19,103.44L172.93,105.13L172.70,107.87L162.41,124.70L158.75,119.41L193.05,63.67L193.65,63.21z"/></g><g id="hotspot.12" onmouseover="ShowHotSpot(evt,'12')" onmouseout="HideHotSpot(evt,'12')" onmousemove="ShowToolTip(evt,'12',&quot;3dp981569&quot;)" opacity="0"><path style="fill:#ff6820;fill-rule:evenodd" d="M163.19,175.86L163.42,188.33L163.53,188.52L163.37,188.62L163.20,199.55L162.01,201.35L161.00,201.37L160.40,201.16L160.20,199.18L158.30,198.65L158.32,187.35L160.22,184.36L160.20,181.28L158.22,180.55L158.32,176.77L159.57,175.00zM163.53,188.52L167.27,188.43L167.43,186.15L186.26,186.15L186.26,191.95L167.52,191.87L167.27,188.86z"/></g><g id="hotspot.13" onmouseover="ShowHotSpot(evt,'13')" onmouseout="HideHotSpot(evt,'13')" onmousemove="ShowToolTip(evt,'13',&quot;3dp981572&quot;)" opacity="0"><path style="fill:#ff6820;fill-rule:evenodd" d="M152.24,42.66L171.07,42.66L171.07,48.47L162.01,48.63L161.93,51.81L161.77,51.69L161.57,48.63L152.33,48.38zM162.20,59.13L162.04,59.01L161.93,51.81L162.08,51.92zM160.47,67.09L162.06,67.12L162.37,66.90L162.47,66.48L163.42,67.08L163.43,67.90L186.25,74.16L186.29,74.48L184.79,77.13L180.26,76.05L150.44,67.91L150.42,65.80L151.19,64.64zM162.47,66.48L162.32,66.35L162.20,59.13L162.35,59.24zM172.99,95.27L173.28,95.55L173.26,95.92L171.77,98.28L170.78,98.29L148.19,92.12L148.00,90.41L146.35,89.85L145.77,89.86L145.01,91.03L143.64,90.97L137.34,89.14L137.44,86.99L138.14,86.03L138.76,86.06z"/></g><g id="hotspot.14" onmouseover="ShowHotSpot(evt,'14')" onmouseout="HideHotSpot(evt,'14')" onmousemove="ShowToolTip(evt,'14',&quot;3dp981573&quot;)" opacity="0"><path style="fill:#ff6820;fill-rule:evenodd" d="M141.48,61.94L147.99,63.81L146.36,66.63L145.27,66.56L128.46,61.90L127.86,61.93L127.65,62.55L126.99,62.24L126.57,61.97L126.04,61.38L115.44,58.42L115.47,56.07L116.16,55.11zM131.74,65.18L131.74,70.98L113.00,70.90L112.91,65.18L124.70,64.94zM134.97,84.97L133.25,87.98L129.83,87.16L102.67,79.87L102.35,79.65L102.42,77.47L102.90,76.57L103.78,76.57z"/></g><g id="hotspot.15" onmouseover="ShowHotSpot(evt,'15')" onmouseout="HideHotSpot(evt,'15')" onmousemove="ShowToolTip(evt,'15',&quot;3dp981579&quot;)" opacity="0"><path style="fill:#ff6820;fill-rule:evenodd" d="M220.94,112.41L221.16,113.00L224.50,113.02L224.66,110.47L243.49,110.47L243.49,116.28L224.75,116.19L224.50,113.46L221.13,113.45L220.98,114.93L220.06,116.45L218.78,116.46L204.06,112.46L204.13,109.47L205.09,108.04zM192.75,158.49L192.77,161.03L191.85,162.56L190.57,162.58L175.65,158.50L175.65,156.12L176.76,154.23L177.03,154.16z"/></g><g id="hotspot.16" onmouseover="ShowHotSpot(evt,'16')" onmouseout="HideHotSpot(evt,'16')" onmousemove="ShowToolTip(evt,'16',&quot;3dp981581&quot;)" opacity="0"><path style="fill:#ff6820;fill-rule:evenodd" d="M225.03,104.52L225.04,107.06L224.13,108.58L222.85,108.59L208.74,104.80L208.77,101.91L209.78,100.44zM187.09,165.79L187.37,166.05L187.50,167.81L190.05,167.81L190.21,165.53L209.04,165.53L209.04,171.34L190.30,171.25L190.05,168.24L187.49,168.23L186.22,170.25L170.97,166.17L171.04,163.44L172.03,161.98L172.95,162.01z"/></g><g id="hotspot.17" onmouseover="ShowHotSpot(evt,'17')" onmouseout="HideHotSpot(evt,'17')" onmousemove="ShowToolTip(evt,'17',&quot;3dp984788&quot;)" opacity="0"><path style="fill:#ff6820;fill-rule:evenodd" d="M123.59,95.32L124.39,95.28L129.29,96.64L137.42,100.99L144.20,105.61L149.93,110.19L154.24,114.28L157.52,118.05L161.05,122.66L164.58,128.63L166.99,133.81L168.88,140.06L169.97,146.29L169.97,156.95L169.72,158.32L163.71,168.08L163.72,166.43L165.09,162.38L166.21,156.86L165.90,156.32L160.92,156.31L160.76,159.13L142.02,159.05L141.94,153.33L160.76,153.33L160.92,155.88L165.89,155.85L166.42,155.03L166.73,151.46L166.17,145.75L164.27,138.15L161.56,131.91L158.03,125.95L154.27,121.04L151.01,117.51L147.46,114.01L141.76,109.40L134.71,104.79L127.39,100.72L118.35,96.74L118.35,93.92L119.24,93.93z"/></g><g id="hotspot.18" onmouseover="ShowHotSpot(evt,'18')" onmouseout="HideHotSpot(evt,'18')" onmousemove="ShowToolTip(evt,'18',&quot;3dp1018881&quot;)" opacity="0"><path style="fill:#ff6820;fill-rule:evenodd" d="M172.66,118.91L172.87,119.52L174.86,119.53L175.03,117.25L193.85,117.25L193.85,123.06L175.11,122.97L174.86,119.96L172.87,119.98L172.66,120.58L172.43,124.69L171.51,126.21L169.70,126.21L168.33,125.96L168.36,114.93L172.43,108.58z"/></g><g id="hotspot.19" onmouseover="ShowHotSpot(evt,'19')" onmouseout="HideHotSpot(evt,'19')" onmousemove="ShowToolTip(evt,'19',&quot;3dp1018882&quot;)" opacity="0"><path style="fill:#ff6820;fill-rule:evenodd" d="M148.00,90.41L148.01,92.41L142.63,101.13L141.38,101.51L140.58,102.63L139.86,102.65L138.68,101.87L138.79,101.10L145.77,89.86L146.35,89.85zM139.37,104.81L139.32,105.12L138.70,105.34L138.60,115.27L138.44,115.16L138.22,105.33L137.59,105.05L138.54,103.41zM138.95,117.09L148.01,117.25L148.01,123.06L129.27,122.97L129.19,117.25L138.52,117.09L138.60,115.27L138.76,115.39z"/></g><g id="hotspot.20" onmouseover="ShowHotSpot(evt,'20')" onmouseout="HideHotSpot(evt,'20')" onmousemove="ShowToolTip(evt,'20',&quot;3dp1018887&quot;)" opacity="0"><path style="fill:#ff6820;fill-rule:evenodd" d="M146.82,95.55L165.64,95.55L165.64,101.36L156.85,101.52L156.77,103.34L156.42,101.52L146.90,101.27zM155.32,105.07L156.93,105.15L157.05,104.97L157.79,105.07L157.70,105.58L158.28,105.89L165.40,107.76L165.65,107.99L163.98,110.85L161.00,110.23L144.19,105.61L140.66,103.14L140.68,102.47L141.38,101.50L142.30,101.53zM157.05,104.97L156.89,104.88L156.77,103.34L156.93,103.45z"/></g><g id="hotspot.21" onmouseover="ShowHotSpot(evt,'21')" onmouseout="HideHotSpot(evt,'21')" onmousemove="ShowToolTip(evt,'21',&quot;3dp1032522&quot;)" opacity="0"><path style="fill:#ff6820;fill-rule:evenodd" d="M78.02,86.62L78.02,89.99L75.02,89.35L66.10,86.90L65.20,87.44L64.82,89.51L64.72,87.43L64.09,87.15L64.49,86.57L61.93,85.62L62.00,83.70L62.77,82.54L63.36,82.52zM64.90,92.14L73.70,92.30L73.70,98.11L54.96,98.02L54.87,92.30L64.47,92.14L64.67,89.62L64.82,89.51z"/></g><g id="hotspot.22" onmouseover="ShowHotSpot(evt,'22')" onmouseout="HideHotSpot(evt,'22')" onmousemove="ShowToolTip(evt,'22',&quot;3dp947780&quot;)" opacity="0"><path style="fill:#ff6820;fill-rule:evenodd" d="M82.36,86.35L82.37,104.89L81.26,106.50L79.84,106.39L79.62,109.46L79.46,109.59L79.42,106.38L79.14,106.11L78.20,105.97L78.21,85.24zM97.28,90.42L97.30,108.96L96.38,110.48L95.10,110.49L93.21,109.95L93.12,89.30zM132.30,103.40L132.28,118.45L131.37,119.98L130.09,119.98L128.20,119.44L128.12,101.24L128.45,101.21zM79.55,110.31L88.61,110.47L88.61,116.28L69.87,116.19L69.79,110.47L79.10,110.29L79.46,109.59zM165.55,130.24L165.88,130.25L165.93,131.19L165.59,130.86zM164.27,138.15L165.90,144.39L165.92,148.56L164.81,150.45L163.72,150.36L161.83,149.82L161.82,132.44z"/></g><g id="hotspot.23" onmouseover="ShowHotSpot(evt,'23')" onmouseout="HideHotSpot(evt,'23')" onmousemove="ShowToolTip(evt,'23',&quot;3dp947782&quot;)" opacity="0"><path style="fill:#ff6820;fill-rule:evenodd" d="M179.93,153.15L180.46,153.10L181.10,152.82L181.29,153.40L182.27,153.79L181.27,153.87L181.11,154.77L180.26,154.37L179.71,154.76L178.55,154.48L178.64,154.01L179.73,152.54zM182.39,153.95L182.27,153.79L192.50,153.71L192.66,151.16L211.48,151.16L211.48,156.96L192.74,156.88L192.50,154.14zM179.74,159.57L179.73,163.76L178.91,163.67L174.77,162.38L174.87,160.22L175.83,158.73L176.75,158.75zM179.74,168.52L179.75,172.43L178.65,174.31L177.28,174.23L174.77,173.50L174.76,167.42L175.67,167.43z"/></g><g id="hotspot.24" onmouseover="ShowHotSpot(evt,'24')" onmouseout="HideHotSpot(evt,'24')" onmousemove="ShowToolTip(evt,'24',&quot;3dp947785&quot;)" opacity="0"><path style="fill:#ff6820;fill-rule:evenodd" d="M132.54,95.30L132.55,97.28L132.28,98.07L129.29,96.64L124.39,95.28L123.59,95.32L119.24,93.93L118.35,93.92L118.16,95.95L116.25,95.58L115.44,95.27L114.01,95.57L113.80,98.34L113.65,98.46L113.54,95.31L112.49,94.47L66.35,82.02L66.34,79.36L67.62,77.63zM113.73,101.63L122.52,101.79L122.52,107.60L103.78,107.51L103.69,101.79L113.30,101.63L113.49,98.57L113.65,98.46z"/></g></g></svg>
