<?xml version="1.0" encoding="UTF-8" standalone="no"?>
<svg xmlns="http://www.w3.org/2000/svg" xmlns:xlink="http://www.w3.org/1999/xlink" width="297.000mm" height="210.000mm" viewBox="0.000000 0.000000 297.000000 210.000000" stroke-linejoin="round" stroke-linecap="round" fill="none" fill-rule="evenodd"><desc>Composer Export</desc><script type="text/ecmascript"><![CDATA[
if(typeof(top) != "undefined")
{
	top.ShowPaper = ShowPaper;
}
function ShowHotSpot(evt,hotspotid)
{
	var svgDocument = evt.target.ownerDocument;
	var strId = "hotspot."+hotspotid;
	var hotspot = svgDocument.getElementById(strId);
	if(hotspot)
		hotspot.setAttribute("opacity",".5");
}
function HideHotSpot(evt,hotspotid)
{
	var svgDocument = evt.target.ownerDocument;
	var strId = "hotspot."+hotspotid;
	var hotspot = svgDocument.getElementById(strId);
	if(hotspot)
		hotspot.setAttribute("opacity","0");

	var toolTip = svgDocument.getElementById('ToolTip');
	if(toolTip)
		toolTip.setAttribute("visibility","hidden");
}
function ShowToolTip(evt,hotspotid,strTooltip)
{
	if(strTooltip=="")
	return;

	// change text
	var svgDocument = evt.target.ownerDocument;
	var tiptext = svgDocument.getElementById('ToolTipText');
	if( !tiptext )
	return;
	tiptext.firstChild.nodeValue = " " + strTooltip + "  " ;

	// show tooltip before, else some refresh issue

	var toolTip = svgDocument.getElementById('ToolTip');
	if(!toolTip)
	return;

	toolTip.setAttribute("visibility","visible");
	toolTip.setAttribute("opacity",".95");

	// move tooltip
	// get viewbox

	var root = svgDocument.documentElement;
	var vbox = (root.getAttribute("viewBox")).split(' ');
	var x0 = parseFloat(vbox[0]);
	var y0 = parseFloat(vbox[1]);
	var vboxW = parseFloat(vbox[2]);
	var vboxH = parseFloat(vbox[3]);

	// get default width of svg

	var strW = root.getAttribute("width");
	var svgW = parseFloat(strW);
	if(strW.indexOf('mm') != -1)
	svgW *= 3.779;

	var strH = root.getAttribute("height");
	var svgH = parseFloat(strH);
	if(strH.indexOf('mm') != -1)
	svgH *= 3.779;  	// 96 dpi  -> 96/25.4 = 3.779

	// update the viewbox / width / height if svg is embedded in html with zoom fit all
	var realx0 = x0;
	var realy0 = y0;
	var realvboxW = vboxW;
	var realvboxH = vboxH;
	var realsvgW = svgW;
	var realsvgH = svgH;

	if ((typeof(top) == "undefined") || (typeof(top.svgctl1) != "undefined")) // embedded in html
	{
		// get window size in pxl

		svgW = window.innerWidth;
		svgH = window.innerHeight;

		// calculate real viewbox

		realsvgW = svgW;
		realsvgH = svgH;
		if((svgW / svgH) > (vboxW / vboxH))
		{
			realvboxW = (vboxH * svgW) / svgH;
			realvboxH = vboxH;
			realx0 = x0 - (realvboxW - vboxW)/2 ;
		}
		else
		{
			realvboxH = (vboxW * svgH) / svgW;
			realvboxW = vboxW;
			realy0 = y0 - (realvboxH - vboxH)/2 ;
		}
	}

	// get user zoom/pan

	var newScale = root.currentScale;
	var translation = root.currentTranslate;

	// transform pxl to user unit

	var xPos = (((evt.clientX+10- translation.x)/newScale) * realvboxW)/realsvgW  + realx0 ;
	var yPos = (((evt.clientY+5- translation.y)/newScale) * realvboxH)/ realsvgH  + realy0 ;
	var scaleForWidth = ( (1 / newScale) * realvboxH) / realsvgH;

	// move tooltip

	toolTip.setAttribute("transform", "translate(" + xPos + "," + yPos + ")" );

	// resize tooltip

	var fontsize = 12;
	tiptext.setAttribute("font-size",fontsize*scaleForWidth);
	tiptext.setAttribute("y", fontsize*scaleForWidth);
	var tipBG = svgDocument.getElementById('ToolTipBG');
	var outline = tiptext.getBBox();
	if(tipBG)
	{
		tipBG.setAttribute("stroke-width", 1*scaleForWidth);
		tipBG.setAttribute("width", Number(outline.width) );
		tipBG.setAttribute("height", Number(outline.height) + fontsize*.5*scaleForWidth );
	}
	var ToolTipShadow = svgDocument.getElementById('ToolTipShadow');
	if(ToolTipShadow)
	{
		ToolTipShadow.setAttribute("width", Number(outline.width) );
		ToolTipShadow.setAttribute("height", Number(outline.height) + fontsize*.5*scaleForWidth );
		ToolTipShadow.setAttribute("x", 3*scaleForWidth);
		ToolTipShadow.setAttribute("y", 3*scaleForWidth);
	}
}
function ShowPaper()
{
  var svgDocument = getDocument();
  var paper = svgDocument.getElementById("paperID");
  if(paper)
  {
    paper.setAttribute("transform","scale(1)");
    paper.setAttribute("opacity","1");
    paper.setAttribute("visibility","visible");
  }
  var svg = svgDocument.getRootElement();
  if(svg)
  {
    svg.setAttribute("width","307.000mm");
    svg.setAttribute("height","220.000mm");
    svg.setAttribute("viewBox","-5.000000 -5.000000 307.000000 220.000000");
  }
}
]]></script><defs/><g><path style="fill:#ffffff" d="M296.92,209.90L0.08,209.90L0.08,0.08L296.92,0.08z"/><path style="fill:#fffe02" d="M105.44,24.39L102.51,25.25L103.10,25.51L101.74,26.02L101.73,26.86L104.49,27.65L102.92,28.05L102.08,27.81L100.62,27.79L100.28,26.27L100.20,24.22L100.69,23.94L101.66,23.82L103.80,23.45L105.44,23.09z"/><path style="fill:#7f00ff" d="M105.53,24.61L105.90,26.81L106.43,27.31L107.46,27.82L110.04,28.32L114.83,28.32L117.41,27.82L118.78,26.89L118.87,25.67L119.83,25.93L120.03,27.83L120.53,28.61L122.11,28.84L123.04,28.84L125.44,28.40L126.23,27.92L126.36,26.17L141.10,29.62L139.73,30.13L139.78,30.35L140.57,30.65L142.06,30.65L143.68,30.14L161.41,34.58L160.00,35.27L162.06,35.79L163.35,35.24L164.19,35.25L185.02,40.92L185.03,41.21L184.10,41.71L184.11,41.99L184.99,42.19L186.46,42.20L187.57,41.69L208.39,47.93L206.73,48.87L209.13,49.65L209.81,49.66L211.45,48.88L237.65,57.33L237.90,57.69L236.25,58.62L238.47,59.25L238.90,59.42L239.85,59.40L240.86,58.86L241.76,58.78L242.23,59.15L243.52,59.64L248.23,62.46L247.89,63.32L245.73,65.27L246.04,65.56L248.90,66.32L250.12,66.33L251.02,65.96L251.24,66.44L248.58,68.14L246.94,67.80L246.51,67.82L245.33,68.46L244.79,69.48L242.36,68.81L242.78,67.94L242.78,67.34L241.23,65.79L239.70,68.03L117.39,31.56L106.96,28.32L106.08,28.23L104.49,27.65L101.73,26.86L101.74,26.02L103.10,25.51L102.51,25.25L105.44,24.39z"/><path style="fill:#7f00ff" d="M102.92,28.05L105.99,28.98L116.25,32.05L131.09,36.54L141.62,39.88L140.08,40.48L126.71,68.69L126.74,70.74L110.30,77.96L103.89,95.42L99.12,97.79L98.76,95.85L74.88,106.96L74.63,107.77L74.27,107.91L74.42,109.82L74.27,109.96L74.37,110.79L69.66,113.03L69.74,114.58L70.10,116.98L66.43,114.80L42.01,99.43L39.07,87.12L40.20,87.64L41.04,87.75L41.75,87.34L41.42,86.82L41.54,86.53L66.11,76.65L66.50,76.19L66.74,75.47L67.00,74.70L67.19,73.93L67.50,73.35L67.79,72.94L67.77,72.65L68.80,69.57L69.21,68.17L69.55,67.45L69.84,67.03L69.82,66.75L70.85,63.66L71.04,62.89L71.35,62.31L71.64,61.90L71.61,61.61L72.09,60.87L72.91,60.53L73.57,60.48L73.61,60.32L77.78,58.73L78.44,58.68L78.49,58.52L84.72,56.17L85.37,56.12L85.42,55.96L87.53,55.14L87.69,55.10L87.66,53.99L87.53,53.89L87.64,53.72L88.64,53.75L100.07,29.66L100.03,29.37L99.28,29.00L99.94,28.06L100.62,27.79L102.08,27.81z"/><path style="fill:#ff8080" d="M117.73,22.42L118.35,22.89L118.59,23.14L118.72,24.55L118.98,24.73L118.87,25.67L118.78,26.89L117.41,27.82L114.83,28.32L110.04,28.32L107.46,27.82L106.43,27.31L105.90,26.81L105.53,24.61L105.44,24.39L105.44,23.09L106.36,22.42L107.64,21.90L108.93,21.65L114.91,21.65z"/><path style="fill:#fffe02" d="M120.02,23.46L120.40,24.19L119.78,24.58L119.83,25.93L118.87,25.67L118.98,24.73L118.72,24.55L118.59,23.14L119.56,23.16z"/><path style="fill:#fffe02" d="M75.21,110.38L75.99,114.94L73.61,113.55L72.22,114.06L72.30,115.35L72.88,118.84L72.04,119.29L72.07,121.07L71.26,120.75L70.16,119.70L70.52,119.29L70.24,117.16L70.10,116.98L69.74,114.58L69.66,113.03L74.37,110.79L74.27,109.96L74.42,109.82z"/><path style="fill:#ffffff" d="M239.70,68.03L239.19,69.06L237.35,68.64L180.36,51.41L179.78,51.40L178.33,52.29L163.67,83.07L163.35,85.57L137.93,98.65L135.59,101.48L136.99,117.65L137.26,117.90L187.30,143.84L189.74,145.28L189.65,145.47L188.67,146.09L136.73,118.91L136.39,118.91L108.52,134.47L107.99,134.63L75.99,114.94L75.21,110.38L75.90,110.75L76.58,110.75L100.06,99.54L99.22,98.69L99.12,97.79L103.89,95.42L110.30,77.96L126.74,70.74L126.71,68.69L140.08,40.48L141.62,39.88L131.09,36.54L116.25,32.05L117.39,31.56z"/><path style="fill:#ff8080" d="M125.72,23.93L126.09,24.63L126.10,25.13L126.36,26.17L126.23,27.92L125.44,28.40L123.04,28.84L122.11,28.84L120.53,28.61L120.03,27.83L119.83,25.93L119.78,24.58L120.40,24.19L122.45,23.68L124.67,23.70z"/><path style="fill:#e1e1e1" d="M97.75,24.44L99.50,25.23L86.93,51.77L85.81,53.72L72.49,58.63L71.76,60.23L71.67,60.83L71.61,61.61L71.35,62.31L71.04,62.89L70.85,63.66L69.82,66.75L69.55,67.45L69.21,68.17L68.80,69.57L67.77,72.65L67.50,73.35L67.19,73.93L67.00,74.70L66.74,75.47L66.49,75.54L65.79,75.53L39.89,85.83L38.69,85.81L38.09,85.38L37.38,82.07L62.97,72.21L64.85,67.16L68.35,57.35L71.05,58.17L70.67,54.78L82.81,50.47L95.85,23.44L96.16,23.40z"/><path style="fill:#b2b9be" d="M142.95,28.45L160.43,32.67L162.77,33.29L183.69,39.13L184.56,39.23L186.36,39.61L207.69,45.88L210.75,46.67L219.54,49.53L219.58,49.69L220.24,49.80L223.32,50.83L238.66,56.32L238.47,59.25L236.25,58.62L237.90,57.69L237.65,57.33L211.45,48.88L209.81,49.66L209.13,49.65L206.73,48.87L208.39,47.93L187.57,41.69L186.46,42.20L184.99,42.19L184.11,41.99L184.10,41.71L185.03,41.21L185.02,40.92L164.19,35.25L163.35,35.24L162.06,35.79L160.00,35.27L161.41,34.58L143.68,30.14L142.06,30.65L140.57,30.65L139.78,30.35L139.73,30.13L141.10,29.62L126.36,26.17L126.10,25.13z"/><path style="fill:#7f00ff" d="M237.35,68.64L239.19,69.06L239.17,69.22L222.12,105.32L196.45,122.27L196.01,122.85L195.77,124.41L193.71,125.72L193.70,126.11L195.52,126.93L196.21,126.93L223.51,108.51L241.38,70.68L241.81,70.01L243.29,70.42L243.55,70.79L242.40,71.43L241.87,72.38L225.06,107.79L224.87,110.10L200.49,126.72L199.88,127.00L197.33,130.33L197.06,132.63L196.95,140.17L195.80,141.12L189.74,145.28L187.30,143.84L137.26,117.90L136.99,117.65L135.59,101.48L137.93,98.65L163.35,85.57L163.67,83.07L178.33,52.29L179.78,51.40L180.36,51.41z"/><path style="fill:#7f00ff" d="M75.99,114.94L107.99,134.63L108.52,134.47L136.39,118.91L136.73,118.91L188.67,146.09L168.57,160.35L168.61,170.20L165.92,172.08L166.25,184.25L165.78,184.15L74.37,124.83L74.10,124.58L73.09,119.18L72.88,118.84L72.30,115.35L72.22,114.06L73.61,113.55z"/><path style="fill:#ffffff" d="M106.08,28.23L105.99,28.98L102.92,28.05L104.49,27.65z"/><path style="fill:#ffffff" d="M74.89,108.15L75.21,110.38L74.42,109.82L74.27,107.91L74.63,107.77z"/><path style="fill:#ff8080" d="M117.39,31.56L116.25,32.05L105.99,28.98L106.08,28.23L106.96,28.32z"/><path style="fill:#0072aa" d="M185.76,36.29L185.76,38.67L184.56,39.23L183.69,39.13L162.77,33.29L164.22,32.54L164.37,30.61z"/><path style="fill:#00fdff" d="M99.12,97.79L99.22,98.69L100.06,99.54L76.58,110.75L75.90,110.75L75.21,110.38L74.89,108.15L74.63,107.77L74.88,106.96L98.76,95.85z"/><path style="fill:#007fff" d="M100.03,29.37L100.07,29.66L88.64,53.75L87.64,53.72L87.53,53.89L87.35,53.77L87.43,53.04L98.92,29.10L99.28,29.00z"/><path style="fill:#007fff" d="M87.69,55.10L87.53,55.14L87.53,53.89L87.66,53.99z"/><path style="fill:#007fff" d="M85.37,56.12L84.72,56.17L85.42,55.96z"/><path style="fill:#007fff" d="M78.44,58.68L77.78,58.73L78.49,58.52z"/><path style="fill:#007fff" d="M73.57,60.48L72.91,60.53L73.61,60.32z"/><path style="fill:#007fff" d="M71.61,61.61L71.67,60.83L72.09,60.87z"/><path style="fill:#007fff" d="M71.64,61.90L71.35,62.31L71.61,61.61z"/><path style="fill:#007fff" d="M69.84,67.03L69.55,67.45L69.82,66.75z"/><path style="fill:#007fff" d="M244.06,74.01L244.06,74.61L227.59,109.28L227.09,109.22L225.06,107.79L241.87,72.38L242.50,72.46z"/><path style="fill:#007fff" d="M67.79,72.94L67.50,73.35L67.77,72.65z"/><path style="fill:#007fff" d="M66.50,76.19L66.49,75.54L66.74,75.47z"/><path style="fill:#007fff" d="M41.42,86.82L41.75,87.34L41.04,87.75L40.85,86.83L41.54,86.53z"/><path style="fill:#007fff" d="M225.47,110.24L226.09,109.96L226.07,113.12L225.71,114.05L201.17,131.11L200.90,126.90L200.49,126.72L224.87,110.10z"/><path style="fill:#fe00ff" d="M161.89,29.86L161.80,32.17L160.43,32.67L142.95,28.45L142.83,28.06L143.92,27.64L144.09,25.74L144.94,25.75z"/><path style="fill:#fe00ff" d="M209.12,42.70L209.12,45.09L207.69,45.88L186.36,39.61L188.07,38.93L188.25,36.77z"/><path style="fill:#0000ff" d="M119.28,20.62L142.10,26.03L142.38,26.92L141.02,27.58L140.08,27.56L126.09,24.63L125.72,23.93L124.67,23.70L122.45,23.68L121.31,23.44L121.31,22.91L120.04,22.67L118.35,22.89L117.73,22.42L114.91,21.65L108.93,21.65L107.64,21.90L106.36,22.42L105.44,23.09L103.80,23.45L101.66,23.82L100.20,23.26L100.28,22.24L104.56,21.14L110.72,20.37L116.97,20.37z"/><path style="fill:#0000ff" d="M245.32,53.99L248.91,55.53L251.73,57.33L252.79,58.59L253.54,60.15L253.53,62.03L253.28,63.07L252.55,64.45L251.02,65.96L250.12,66.33L248.90,66.32L246.04,65.56L245.73,65.27L247.89,63.32L248.23,62.46L248.40,62.30L248.41,61.17L247.39,59.62L245.57,58.10L242.75,56.81L242.14,56.72L241.35,56.28L241.98,55.79L238.66,54.77L238.06,55.03L237.10,55.03L224.27,50.91L223.32,50.83L220.24,49.80L219.54,49.53L210.75,46.67L212.45,45.85L212.72,44.80L213.21,44.74z"/><path style="fill:#e1e1e1" d="M242.78,67.34L242.78,67.94L242.36,68.81L241.81,70.01L241.38,70.68L223.51,108.51L196.21,126.93L195.52,126.93L193.70,126.11L193.71,125.72L195.77,124.41L196.01,122.85L196.45,122.27L222.12,105.32L239.17,69.22L239.19,69.06L239.70,68.03L241.23,65.79z"/><path style="fill:#fffe02" d="M245.57,58.10L247.39,59.62L248.41,61.17L248.40,62.30L248.23,62.46L243.52,59.64L242.23,59.15L241.76,58.78L241.97,57.14L242.14,56.72L242.75,56.81z"/><path style="fill:#fffe02" d="M251.02,65.96L252.55,64.45L252.00,69.23L251.22,70.76L249.58,72.20L248.13,72.23L244.96,71.18L246.49,69.62L246.87,68.98L246.94,67.80L248.58,68.14L251.24,66.44z"/><path style="fill:#fffe02" d="M109.79,75.06L103.10,93.60L100.28,94.89L100.02,95.94L99.52,95.87L98.14,95.05L98.49,94.65L98.23,91.47L96.63,80.67L108.48,75.62L108.90,74.74z"/><path style="fill:#fffe02" d="M199.38,140.49L199.89,140.78L199.93,141.09L199.37,141.62L199.11,142.89L198.77,150.76L171.39,171.14L171.13,174.23L170.62,174.17L168.99,173.18L168.61,170.20L168.57,160.35L188.67,146.09L189.65,145.47L189.74,145.28L195.80,141.12L196.95,140.17L197.73,139.71L199.13,138.70z"/><path style="fill:#ffffff" d="M121.31,22.91L121.31,23.44L122.45,23.68L120.40,24.19L120.02,23.46L119.56,23.16L118.59,23.14L118.35,22.89L120.04,22.67z"/><path style="fill:#ffffff" d="M220.24,49.80L219.58,49.69L219.54,49.53z"/><path style="fill:#ffffff" d="M237.10,55.03L238.06,55.03L238.66,54.77L241.98,55.79L241.35,56.28L242.14,56.72L241.97,57.14L241.76,58.78L240.86,58.86L239.85,59.40L238.90,59.42L238.47,59.25L238.66,56.32L223.32,50.83L224.27,50.91z"/><path style="fill:#ffffff" d="M87.22,95.30L87.12,95.56L68.62,104.08L67.94,104.08L46.61,91.44L46.55,91.21L64.78,83.75L65.37,83.74z"/><g id="Actor_.0"><g style="stroke:#000000;stroke-width:0.035"><path d="M41.75,87.60L40.85,87.07L41.01,87.89"/><path d="M41.96,87.52L40.90,86.85"/><path d="M40.92,86.86L66.20,76.84L66.38,76.93"/><path d="M40.81,87.04L40.80,87.04"/><path d="M66.16,76.82L66.20,76.84"/><path d="M66.17,76.83L66.19,76.83"/><path d="M66.22,76.77L66.21,76.77"/><path d="M66.22,76.78L66.43,76.88"/><path d="M66.24,76.79L71.71,61.15L71.91,61.23"/><path d="M88.75,55.71L87.57,55.23L71.80,61.05L72.95,61.56L88.79,55.62L87.58,55.13"/><path d="M71.78,61.05L71.80,61.05"/><path d="M71.71,61.15L71.69,61.14"/><path d="M87.53,55.21L87.57,55.23"/><path d="M87.53,55.23L87.55,55.23"/><path d="M88.79,55.62L88.56,54.09L87.34,53.56"/><path d="M88.55,54.05L88.58,53.95L87.39,53.48L98.99,29.18"/><path d="M87.39,53.48L87.37,53.47"/><path d="M88.58,53.95L100.21,29.56"/></g><g style="stroke:#000000;stroke-width:0.088"><path d="M100.21,29.56L98.99,29.18L98.72,29.67L87.37,53.47L87.53,55.21L71.67,61.13L66.16,76.83L40.90,86.85L40.77,87.02L41.00,87.90"/></g></g><g id="Actor_.1"><g style="stroke:#000000;stroke-width:0.035"><path d="M135.62,101.68L197.01,130.89L196.80,140.54"/><path d="M135.66,101.55L197.07,130.73L197.01,130.89"/><path d="M137.83,98.85L194.61,125.27"/><path d="M137.88,98.81L194.68,125.22"/><path d="M218.75,107.75L163.49,85.58"/><path d="M163.44,85.67L218.64,107.82"/><path d="M163.44,83.63L220.84,106.37"/><path d="M163.42,83.72L220.73,106.44"/><path d="M169.89,109.97L169.66,109.81L169.42,109.98"/><path d="M169.82,109.84L169.82,109.91"/><path d="M238.56,70.72L178.30,52.34"/><path d="M178.42,52.21L238.64,70.55"/><path d="M184.36,101.53L184.14,101.37L183.91,101.52"/><path d="M184.29,101.40L184.29,101.46"/><path d="M195.07,88.09L195.04,87.84"/><path d="M195.00,87.82L195.34,87.72"/><path d="M197.07,130.73L199.39,127.49L197.19,126.39"/><path d="M199.39,127.49L197.12,126.43"/><path d="M199.44,127.44L224.75,110.27L222.63,109.30"/><path d="M202.89,71.56L202.87,71.34"/><path d="M202.84,71.31L203.18,71.20"/><path d="M222.52,109.38L224.75,110.27"/><path d="M224.79,110.18L224.97,108.00L242.06,71.90L241.11,71.50"/><path d="M224.97,108.00L224.01,107.62"/><path d="M224.94,108.10L223.96,107.72"/><path d="M243.79,70.71L242.10,71.80"/><path d="M242.23,71.65L241.19,71.33"/></g><g style="stroke:#000000;stroke-width:0.088"><path d="M189.97,145.39L137.08,117.98L135.66,101.55L137.83,98.85L163.48,85.62L163.42,83.72L163.59,83.32L178.30,52.34L180.04,51.49L239.22,69.33"/><path d="M169.79,109.90L169.48,109.92L169.73,110.06L169.79,109.90"/><path d="M184.29,101.58L183.98,101.58L184.29,101.58"/><path d="M195.07,88.09L195.08,87.78L195.36,87.74L195.29,88.05L195.07,88.09"/><path d="M196.85,140.50L197.06,130.85L199.42,127.53L224.83,110.19L225.00,108.02L242.10,71.90L243.79,70.79L241.77,70.10"/><path d="M202.92,71.58L202.89,71.30L203.18,71.20L203.16,71.50L202.92,71.58"/></g></g><g id="Actor_.2"><g style="stroke:#000000;stroke-width:0.035"><path d="M210.80,46.67L237.56,55.22L237.55,55.35"/><path d="M212.56,45.91L243.83,55.05L243.92,54.88L244.02,53.85L244.10,53.81"/><path d="M212.65,45.75L243.92,54.88L246.58,55.78L248.88,56.83L249.87,57.40L251.53,58.63L252.16,59.27L252.67,59.94L253.04,60.61L253.27,61.29L253.34,61.82L253.47,60.90L253.39,60.22L253.16,59.54L252.79,58.87L252.28,58.21L251.64,57.57L249.98,56.35L247.88,55.24L246.68,54.74L244.02,53.85L212.69,44.78"/><path d="M237.56,55.22L238.54,54.75L238.53,54.88"/><path d="M242.18,55.96L242.35,55.88L238.54,54.75"/><path d="M241.38,56.36L243.66,57.17L245.57,58.13L249.35,57.33L245.66,58.18L245.65,58.24"/><path d="M243.83,55.05L246.26,55.87L247.38,56.33L249.35,57.33L250.23,57.88L251.67,59.06L252.22,59.67L252.65,60.30L252.96,60.94L253.14,61.58L253.18,62.29L252.84,62.92L252.33,63.57L251.17,64.58L247.55,63.93"/><path d="M245.57,65.38L249.66,66.56L249.82,66.48L249.68,66.57"/><path d="M245.55,58.26L245.57,58.13"/><path d="M245.66,58.18L247.09,59.24L247.63,59.80L248.04,60.38L248.32,60.96L252.96,60.94L248.34,61.03L248.46,61.62L248.43,62.25"/><path d="M247.54,63.99L251.15,64.59"/><path d="M248.32,60.96L248.30,61.10"/><path d="M248.34,61.03L248.33,61.10"/><path d="M249.82,66.48L249.95,66.51L249.83,66.68"/><path d="M253.23,63.36L252.87,64.03L252.36,64.69L251.70,65.32L250.90,65.93L249.95,66.51L250.07,65.41L249.94,65.37L249.83,66.47"/><path d="M249.66,66.56L249.64,66.70"/><path d="M249.89,66.65L250.84,66.06"/><path d="M250.07,65.41L251.01,64.83L251.81,64.23L252.45,63.62L252.99,62.94L253.35,62.27L253.56,61.60"/><path d="M249.94,65.37L251.17,64.58"/><path d="M253.18,62.29L253.34,61.82"/></g><g style="stroke:#000000;stroke-width:0.088"><path d="M249.81,66.70L250.84,66.06L251.64,65.45L252.30,64.82L252.81,64.16L253.17,63.49L253.44,62.68L253.62,60.91L253.54,60.22L253.31,59.54L252.93,58.86L252.42,58.20L251.77,57.55L251.00,56.93L249.10,55.75L246.78,54.71L244.10,53.81L212.77,44.74L212.69,44.78L212.65,45.75L212.56,45.91L210.80,46.67L210.80,46.79L237.55,55.35L238.53,54.88L242.17,55.96L241.38,56.36L241.37,56.49L243.65,57.30L245.55,58.26L245.65,58.24L245.64,58.31L247.05,59.35L247.62,59.93L248.01,60.49L248.30,61.10L248.45,61.75L248.43,62.25L248.29,62.77L247.99,63.37L247.54,63.99L246.32,64.94L245.60,65.36L245.56,65.52L249.64,66.70L249.83,66.68"/></g></g><g id="Actor_.3"><g style="stroke:#000000;stroke-width:0.035"><path d="M100.38,27.52L100.43,27.54L100.53,27.76"/><path d="M102.10,27.06L100.43,27.54L100.02,24.34L99.98,24.33"/><path d="M101.72,23.87L100.02,24.34"/><path d="M102.43,27.16L100.53,27.70L101.05,27.85"/><path d="M102.84,28.20L104.48,27.77"/><path d="M120.18,23.51L120.13,23.53L118.45,23.15"/><path d="M120.13,23.53L120.22,24.47"/></g><g style="stroke:#000000;stroke-width:0.088"><path d="M101.67,23.86L99.98,24.33L100.38,27.52L100.41,27.63L100.52,27.75L100.95,27.89"/><path d="M104.61,27.81L102.95,28.24"/><path d="M120.27,24.44L120.18,23.51L118.42,23.12"/></g></g><g id="Actor_.4"><g style="stroke:#000000;stroke-width:0.035"><path d="M105.45,23.58L105.52,23.84L105.71,24.09L106.00,24.33L106.40,24.56L106.90,24.78L107.49,24.97L108.50,25.21L109.65,25.39L110.94,25.50L112.23,25.53L113.53,25.48L114.77,25.36L115.88,25.17L116.83,24.93L117.61,24.63L117.92,24.47L118.17,24.30L118.38,24.10L118.52,23.92L118.60,23.72L118.61,23.53"/><path d="M117.55,24.62L117.33,22.46L116.88,22.29L116.38,22.14L115.70,21.97L114.96,21.84L113.75,21.70L112.46,21.62L111.05,21.64L109.94,21.71L109.31,21.78L108.13,21.99L107.24,22.22L106.85,22.36L106.21,22.66L105.96,22.83L105.71,23.06L105.56,23.31L105.51,23.56L105.53,23.69L105.67,23.95L105.78,24.08L106.08,24.33L106.49,24.56L106.99,24.77L107.54,24.95L108.18,25.12L108.89,25.25L109.65,25.36L110.46,25.44L111.31,25.49L112.73,25.50L114.14,25.41L115.41,25.24L116.47,25.01L117.29,24.73L117.64,24.58L118.11,24.29L117.96,22.78L117.57,22.52"/><path d="M108.05,29.77L107.93,28.80"/><path d="M107.49,24.97L107.85,28.05"/><path d="M116.67,24.95L116.38,22.14"/><path d="M117.33,22.46L117.66,22.61L117.93,22.77L117.98,22.76L117.62,22.55"/><path d="M118.11,24.29L118.37,24.03L118.50,23.82L118.54,23.60L118.51,23.39L118.40,23.18L118.21,22.98L117.96,22.78"/><path d="M118.08,24.31L117.93,22.77"/></g><g style="stroke:#000000;stroke-width:0.088"><path d="M106.00,28.23L106.11,29.19"/><path d="M117.57,22.52L117.61,22.54L116.94,22.27L116.43,22.12L115.76,21.96L115.03,21.83L114.25,21.72L112.60,21.61L111.03,21.62L109.63,21.72L108.35,21.92L107.24,22.20L106.77,22.36L106.36,22.54L106.03,22.73L105.76,22.94L105.58,23.15L105.47,23.36L105.45,23.58L105.81,26.63"/><path d="M117.68,31.72L116.87,31.95L115.92,32.15"/><path d="M117.62,22.55L117.98,22.75L118.26,22.95L118.46,23.17L118.58,23.39L118.92,26.60"/></g></g><g id="Actor_.5"><g style="stroke:#000000;stroke-width:0.035"><path d="M142.58,28.34L160.50,32.78L161.92,32.21L161.92,32.28"/><path d="M144.00,27.81L161.92,32.21L161.95,32.17L161.89,30.05L143.92,25.73"/><path d="M144.04,27.72L161.96,32.12L162.01,32.09"/><path d="M160.50,32.78L160.50,32.86"/><path d="M161.94,30.03L161.89,30.05"/></g><g style="stroke:#000000;stroke-width:0.088"><path d="M142.58,28.41L142.58,28.34L144.03,27.77L143.92,25.73L143.97,25.71L161.94,30.03L162.01,32.09L161.99,32.21L161.92,32.28L160.50,32.86L142.58,28.41"/></g></g><g id="Actor_.6"><g style="stroke:#000000;stroke-width:0.035"><path d="M39.02,87.13L74.06,107.89L74.48,110.14"/><path d="M74.06,107.89L74.11,107.87"/></g><g style="stroke:#000000;stroke-width:0.088"><path d="M70.24,117.34L42.00,99.50L39.02,87.13L74.11,107.87L74.54,110.11"/><path d="M72.99,119.07L72.76,118.92"/></g></g><g id="Actor_.7"><g style="stroke:#000000;stroke-width:0.035"><path d="M119.72,24.98L119.75,25.15L119.89,25.31L120.14,25.46L120.48,25.58L120.90,25.67L121.39,25.73L121.94,25.76L122.52,25.76L123.11,25.72L123.69,25.65L124.25,25.55L124.76,25.42L125.20,25.28L125.57,25.11L125.84,24.93L126.01,24.75L126.08,24.58"/><path d="M119.89,25.11L119.89,25.14L120.03,25.29L120.26,25.43L120.59,25.54L120.99,25.63L121.46,25.69L121.98,25.72L122.53,25.71L123.10,25.68L123.66,25.61L124.19,25.51L124.67,25.39L125.10,25.25L125.45,25.10L125.71,24.93L125.87,24.76L125.94,24.58L125.90,24.42L125.75,24.27L125.52,24.13L125.19,24.02L124.78,23.94L124.32,23.88L123.80,23.85L123.26,23.86L122.70,23.89L122.15,23.96L121.63,24.05L121.15,24.17L120.72,24.31L120.37,24.46L120.10,24.63L119.93,24.80L119.86,24.97L119.89,25.11"/><path d="M120.79,28.83L120.48,25.58"/><path d="M125.29,25.17L125.19,24.02"/></g><g style="stroke:#000000;stroke-width:0.088"><path d="M120.04,28.22L119.72,24.98L119.79,24.80L119.97,24.62L120.25,24.45L120.62,24.29L121.06,24.14L121.57,24.02L122.12,23.92L122.69,23.85L123.28,23.81L123.85,23.81L124.38,23.84L124.87,23.90L125.29,23.99L125.64,24.10L125.89,24.24L126.04,24.40L126.08,24.58L126.36,27.82"/></g></g><g id="Actor_.8"><g style="stroke:#000000;stroke-width:0.035"><path d="M201.05,127.16L201.13,127.20L201.01,131.37"/><path d="M200.97,127.04L200.97,126.95L200.55,126.76"/><path d="M225.25,110.44L200.97,126.95L201.09,127.06L201.12,127.18L225.40,110.67L225.41,110.51L226.27,109.92"/><path d="M225.40,110.67L225.33,110.51"/><path d="M225.41,110.51L225.33,110.47"/></g><g style="stroke:#000000;stroke-width:0.088"><path d="M224.80,110.26L225.33,110.51L226.18,109.90L226.27,109.92L225.97,114.09L201.01,131.37L200.93,131.33L201.05,127.19L200.97,127.04L200.47,126.81"/></g></g><g id="Actor_.9"><g style="stroke:#000000;stroke-width:0.035"><path d="M72.18,114.27L165.93,172.15L168.73,170.10"/><path d="M72.09,114.44L165.76,172.34L165.93,172.15"/><path d="M136.55,150.53L136.78,150.33L136.97,150.43"/><path d="M136.96,150.37L137.01,150.50"/><path d="M147.85,143.64L147.62,143.47L147.40,143.66"/><path d="M147.80,143.57L147.80,143.50"/><path d="M158.10,137.04L157.76,136.99L157.72,137.13"/><path d="M158.10,136.98L158.15,137.11"/><path d="M166.26,184.57L165.82,172.37"/></g><g style="stroke:#000000;stroke-width:0.088"><path d="M188.78,146.22L136.52,118.96L108.11,134.85L73.49,113.64L72.18,114.27L74.12,124.84L166.26,184.57L165.88,172.34L168.73,170.17"/><path d="M136.55,150.53L136.97,150.43L136.76,150.64L136.55,150.53"/><path d="M147.85,143.64L147.44,143.73L147.63,143.53L147.85,143.64"/><path d="M157.94,137.23L158.11,137.18L157.76,137.06L157.94,137.23"/></g></g><g id="Actor_.10"><g style="stroke:#000000;stroke-width:0.035"><path d="M41.99,87.50L41.13,86.95"/><path d="M87.52,95.57L65.14,83.69L46.31,91.40"/><path d="M65.14,83.69L65.15,83.74"/><path d="M98.38,92.99L66.42,76.91"/><path d="M71.89,61.26L106.53,76.57"/><path d="M106.67,76.51L71.97,61.18"/><path d="M74.73,107.77L74.15,108.04"/><path d="M87.86,55.26L126.69,70.83L110.23,78.09L108.97,77.65"/><path d="M87.83,55.32L126.65,70.90"/><path d="M87.62,53.68L126.53,69.10L126.69,70.83"/><path d="M87.64,53.58L126.54,69.01L140.03,40.67L141.75,39.95"/><path d="M99.11,97.91L103.79,95.71L101.39,94.50"/><path d="M140.03,40.67L99.67,28.36"/><path d="M99.78,28.26L140.15,40.56"/><path d="M103.79,95.71L110.15,78.17"/><path d="M110.23,78.09L109.01,77.55"/><path d="M126.54,69.01L126.53,69.10"/></g><g style="stroke:#000000;stroke-width:0.088"><path d="M40.65,88.04L41.99,87.50L41.14,87.00L41.35,86.86L66.42,76.91L71.89,61.28L87.81,55.33L87.63,53.60"/><path d="M46.37,91.43L65.11,83.76L87.52,95.57L68.17,104.34"/><path d="M74.74,107.83L74.16,108.10"/><path d="M87.64,53.58L99.67,28.36L101.36,27.76L141.77,40.00L140.15,40.62L139.88,41.09L126.58,69.04L126.70,70.92L110.23,78.14L103.84,95.73L99.12,97.97"/></g></g><g id="Actor_.11"><g style="stroke:#000000;stroke-width:0.035"><path d="M98.80,95.67L96.68,80.93L98.06,81.58L100.16,96.36"/><path d="M96.72,80.80L96.78,80.83L96.79,80.91L98.14,81.54L98.06,81.58"/><path d="M98.14,81.54L100.05,95.02L103.11,93.60L109.79,75.22L96.78,80.83L96.68,80.93L96.64,80.88"/><path d="M96.79,80.91L96.76,80.89"/><path d="M97.93,95.15L98.75,95.57L98.78,95.65L98.83,95.68"/><path d="M98.75,95.57L98.65,94.82"/><path d="M100.05,95.02L100.07,95.12"/><path d="M109.85,75.24L109.73,75.20L108.52,75.72"/><path d="M109.80,75.22L108.85,74.81"/></g><g style="stroke:#000000;stroke-width:0.088"><path d="M97.10,84.07L96.64,80.88L96.69,80.82L108.52,75.72L108.85,74.81L109.84,75.23L103.18,93.61L103.11,93.60L103.09,93.71L100.07,95.12L100.24,96.32L100.16,96.36L97.94,95.23L97.93,95.15L98.65,94.82L97.10,84.07"/></g></g><g id="Actor_.12"><g style="stroke:#000000;stroke-width:0.035"><path d="M207.55,45.96L207.55,45.88L186.48,39.76"/><path d="M188.06,39.05L209.14,45.11L209.08,45.22L207.55,45.88"/><path d="M188.01,39.15L209.08,45.22L209.08,45.30"/><path d="M188.07,36.87L209.22,42.84L209.14,45.11L209.19,45.09"/><path d="M209.28,42.81L209.22,42.84"/></g><g style="stroke:#000000;stroke-width:0.088"><path d="M186.85,39.95L186.48,39.84L186.48,39.76L188.04,39.12L188.07,36.87L188.13,36.85L209.28,42.81L209.19,45.09L209.15,45.22L209.08,45.30L207.55,45.96L186.85,39.95"/></g></g><g id="Actor_.13"><g style="stroke:#000000;stroke-width:0.035"><path d="M66.58,75.36L39.20,86.13L38.11,85.42L37.34,82.24L63.17,72.29L68.29,57.43"/><path d="M37.29,82.21L37.34,82.24"/><path d="M38.19,85.61L65.38,74.87L66.47,75.48"/><path d="M68.34,57.45L71.05,58.34L65.32,74.77L38.07,85.40"/><path d="M39.20,86.13L39.22,86.21"/><path d="M65.31,74.75L63.12,72.27"/><path d="M65.38,74.87L65.33,74.79"/><path d="M65.34,74.77L65.44,74.81L71.15,58.45L71.00,58.32"/><path d="M65.44,74.81L66.48,75.33L72.27,58.86L71.09,58.35"/><path d="M72.33,58.88L71.21,58.17L70.64,55.00L82.96,50.61L95.96,23.36"/><path d="M70.64,55.00L70.60,54.98"/><path d="M98.23,24.88L84.69,53.29L85.91,53.78L84.74,53.38L71.20,58.24"/><path d="M82.91,50.60L84.65,53.23L84.53,53.34L71.17,58.15"/><path d="M85.87,53.90L72.39,58.82"/><path d="M98.34,24.93L84.72,53.30"/><path d="M84.74,53.38L84.69,53.30"/><path d="M85.97,53.81L99.50,25.28"/></g><g style="stroke:#000000;stroke-width:0.088"><path d="M37.70,83.87L37.29,82.21L63.12,72.27L68.29,57.43L71.09,58.35L71.18,58.23L70.60,54.98L82.91,50.60L95.91,23.35L98.24,24.88L99.50,25.28L85.97,53.81L72.39,58.82L66.53,75.43L39.22,86.21L38.12,85.52L37.70,83.87"/><path d="M65.31,74.75L65.32,74.77"/><path d="M84.69,53.29L84.69,53.29"/></g></g><g id="Actor_.14"><g style="stroke:#000000;stroke-width:0.035"><path d="M70.92,120.63L69.47,113.33L69.54,113.29L69.54,113.25L69.59,113.21L69.53,113.18"/><path d="M69.44,113.28L69.47,113.33L70.78,114.14L70.87,114.10L69.61,113.32L69.59,113.21L75.07,110.62L75.93,115.14"/><path d="M69.61,113.32L69.56,113.29"/><path d="M70.06,119.82L70.84,120.32L70.85,120.37"/><path d="M70.84,120.32L70.64,119.33"/><path d="M70.78,114.14L72.22,121.46"/><path d="M71.95,119.60L70.87,114.10"/><path d="M71.93,119.52L72.92,118.69"/><path d="M74.22,110.01L75.05,110.51L75.14,110.47"/><path d="M74.38,110.88L75.02,110.58L75.09,110.61L75.15,110.57L75.17,110.51"/><path d="M75.05,110.51L75.07,110.54L75.05,110.51"/><path d="M75.02,110.58L75.06,110.55"/></g><g style="stroke:#000000;stroke-width:0.088"><path d="M72.94,118.77L71.95,119.60L72.31,121.42L72.22,121.46L70.92,120.63L70.88,120.55L70.85,120.37L70.10,119.89L70.06,119.82L70.64,119.33L69.44,113.26L69.53,113.18L74.38,110.88L74.22,110.01L74.25,109.99"/><path d="M76.06,115.22L75.17,110.51L75.14,110.47L74.54,110.11"/></g></g><g id="Actor_.15"><g style="stroke:#000000;stroke-width:0.035"><path d="M101.55,26.38L240.06,67.55"/><path d="M240.17,67.31L101.64,26.21"/><path d="M102.48,25.43L103.24,25.71"/><path d="M106.07,27.15L106.10,27.17"/><path d="M105.92,26.94L105.89,26.91"/><path d="M105.81,26.63L105.82,26.71"/><path d="M105.82,26.65L105.81,26.60"/><path d="M105.84,26.78L105.83,26.73"/><path d="M107.26,27.85L107.32,27.87"/><path d="M106.72,27.61L106.76,27.63"/><path d="M108.48,28.22L108.52,28.23"/><path d="M108.44,28.21L108.46,28.21"/><path d="M108.41,28.20L108.43,28.20"/><path d="M108.37,28.19L108.39,28.19"/><path d="M108.33,28.18L108.35,28.18"/><path d="M108.30,28.17L108.32,28.17"/><path d="M108.05,28.11L108.02,28.10"/><path d="M109.37,28.39L109.45,28.40"/><path d="M109.26,28.37L109.22,28.37"/><path d="M109.14,28.35L109.18,28.36"/><path d="M109.07,28.34L109.11,28.34"/><path d="M108.99,28.32L109.04,28.33"/><path d="M108.68,28.26L108.78,28.28"/><path d="M110.05,28.49L110.00,28.48"/><path d="M109.92,28.47L109.97,28.48"/><path d="M109.84,28.46L109.88,28.46"/><path d="M111.70,28.62L111.76,28.62"/><path d="M111.61,28.61L111.64,28.61"/><path d="M111.55,28.61L111.58,28.61"/><path d="M111.51,28.61L111.53,28.61"/><path d="M111.46,28.60L111.49,28.61"/><path d="M111.42,28.60L111.44,28.60"/><path d="M111.03,28.58L111.11,28.58"/><path d="M113.07,28.62L113.09,28.62"/><path d="M112.99,28.62L113.03,28.62"/><path d="M112.91,28.62L112.96,28.62"/><path d="M112.57,28.63L112.61,28.63"/><path d="M112.52,28.63L112.55,28.63"/><path d="M112.48,28.63L112.50,28.63"/><path d="M112.44,28.63L112.46,28.63"/><path d="M112.39,28.63L112.41,28.63"/><path d="M112.35,28.63L112.37,28.63"/><path d="M112.26,28.63L112.31,28.63"/><path d="M111.95,28.62L112.01,28.62"/><path d="M114.57,28.52L113.75,28.59"/><path d="M113.70,28.59L113.38,28.61"/><path d="M114.49,28.53L114.91,28.49"/><path d="M114.87,28.49L114.80,28.50"/><path d="M115.13,28.46L114.96,28.48"/><path d="M115.24,28.44L115.28,28.44"/><path d="M115.39,28.42L115.53,28.39"/><path d="M115.60,28.39L115.81,28.35"/><path d="M116.02,28.31L115.95,28.32"/><path d="M116.11,28.29L116.06,28.30"/><path d="M116.20,28.27L116.31,28.24"/><path d="M116.43,28.22L116.46,28.21"/><path d="M116.54,28.19L116.97,28.08"/><path d="M117.18,28.01L117.15,28.02"/><path d="M117.23,27.99L117.44,27.92"/><path d="M117.51,27.89L117.49,27.90"/><path d="M117.64,27.84L117.62,27.85"/><path d="M117.66,27.83L117.82,27.76"/><path d="M118.04,27.66L118.16,27.59"/><path d="M119.39,24.93L118.77,25.14"/><path d="M118.91,26.57L118.91,26.62"/><path d="M118.81,27.02L118.85,26.93"/><path d="M118.91,26.72L118.91,26.70"/><path d="M120.22,28.57L120.21,28.56"/><path d="M120.05,28.30L120.04,28.24"/><path d="M121.68,28.99L121.70,28.99"/><path d="M122.76,29.02L122.82,29.02"/><path d="M122.23,29.02L122.25,29.02"/><path d="M123.41,28.98L123.37,28.98"/><path d="M124.15,28.88L123.99,28.91"/><path d="M124.54,28.81L124.51,28.82"/><path d="M125.15,28.65L125.05,28.68"/><path d="M125.91,28.33L125.86,28.36"/><path d="M126.16,28.16L126.13,28.18"/><path d="M126.36,27.81L126.36,27.78"/><path d="M141.24,29.72L139.39,30.43"/><path d="M159.96,35.45L161.64,34.74"/><path d="M185.37,41.18L183.65,41.98"/><path d="M208.47,48.06L206.47,49.06"/><path d="M238.13,57.68L236.18,58.80"/><path d="M238.64,64.86L237.75,63.94L237.91,63.25L239.25,62.50L240.66,62.23L243.11,62.25L244.64,62.55L245.87,63.04L246.74,63.91L246.76,64.31L246.31,64.91L245.29,65.38L243.85,65.66L241.03,65.59L238.64,64.86"/><path d="M246.69,67.84L244.92,68.95L242.62,68.32"/><path d="M245.03,68.82L242.74,68.07"/><path d="M244.95,68.97L244.84,69.71"/><path d="M246.69,67.77L248.42,68.35"/><path d="M248.42,68.28L251.32,66.55"/></g><g style="stroke:#000000;stroke-width:0.088"><path d="M105.55,24.49L102.48,25.43L103.24,25.71L101.67,26.20L101.62,26.92L239.75,68.19"/><path d="M105.82,26.69L105.82,26.66"/><path d="M105.92,26.94L106.03,27.10L105.89,26.91"/><path d="M107.32,27.87L106.10,27.17"/><path d="M106.03,27.10L106.18,27.25"/><path d="M105.88,26.88L105.84,26.78"/><path d="M105.83,26.73L105.82,26.71"/><path d="M106.77,27.64L107.14,27.80"/><path d="M106.36,27.40L106.72,27.61"/><path d="M108.05,28.11L108.30,28.17"/><path d="M108.32,28.17L108.33,28.18"/><path d="M108.44,28.21L108.43,28.20"/><path d="M108.01,28.10L107.38,27.90L107.73,28.01"/><path d="M108.37,28.19L108.35,28.18"/><path d="M108.41,28.20L108.39,28.19"/><path d="M108.48,28.22L108.46,28.21"/><path d="M109.27,28.38L109.37,28.39"/><path d="M109.84,28.46L109.45,28.40"/><path d="M109.66,28.43L109.88,28.46"/><path d="M108.52,28.23L108.99,28.32L108.78,28.28"/><path d="M109.14,28.35L109.11,28.34"/><path d="M109.22,28.37L109.18,28.36"/><path d="M109.07,28.34L109.04,28.33"/><path d="M111.03,28.58L110.05,28.49"/><path d="M110.00,28.48L109.97,28.48"/><path d="M111.70,28.62L111.95,28.62L111.76,28.62"/><path d="M111.95,28.62L112.26,28.63L112.01,28.62"/><path d="M111.68,28.62L111.64,28.61"/><path d="M111.42,28.60L111.11,28.58"/><path d="M111.46,28.60L111.44,28.60"/><path d="M111.51,28.61L111.49,28.61"/><path d="M111.55,28.61L111.53,28.61"/><path d="M111.61,28.61L111.58,28.61"/><path d="M112.91,28.62L112.61,28.63L113.07,28.62"/><path d="M112.61,28.63L112.59,28.63"/><path d="M112.99,28.62L112.96,28.62"/><path d="M112.55,28.63L112.41,28.63"/><path d="M112.35,28.63L112.31,28.63"/><path d="M112.39,28.63L112.37,28.63"/><path d="M113.03,28.62L113.09,28.62"/><path d="M112.48,28.63L112.46,28.63"/><path d="M112.52,28.63L112.50,28.63"/><path d="M113.70,28.59L113.38,28.61"/><path d="M113.75,28.59L114.48,28.53"/><path d="M115.13,28.46L115.28,28.44"/><path d="M115.37,28.42L115.60,28.39"/><path d="M114.87,28.49L115.24,28.44"/><path d="M114.96,28.48L114.91,28.49"/><path d="M114.57,28.52L114.80,28.50"/><path d="M116.02,28.31L116.43,28.22"/><path d="M116.22,28.27L116.11,28.29"/><path d="M116.46,28.21L116.31,28.24"/><path d="M115.94,28.33L116.06,28.30"/><path d="M115.53,28.39L115.78,28.35"/><path d="M116.53,28.20L116.71,28.15"/><path d="M117.23,27.99L116.97,28.08"/><path d="M117.15,28.02L116.75,28.14"/><path d="M117.70,27.82L117.51,27.89"/><path d="M117.35,27.95L117.49,27.90"/><path d="M117.26,27.98L117.18,28.01"/><path d="M117.44,27.92L117.62,27.85"/><path d="M118.81,27.03L118.16,27.59"/><path d="M118.03,27.66L117.79,27.78"/><path d="M117.82,27.76L118.08,27.64"/><path d="M118.74,24.84L119.39,24.93L118.78,25.19"/><path d="M118.91,26.62L118.85,26.93"/><path d="M118.91,26.64L118.91,26.70"/><path d="M118.84,25.84L119.82,25.96"/><path d="M121.68,28.99L120.47,28.72"/><path d="M120.23,28.58L120.45,28.71"/><path d="M120.21,28.56L120.09,28.43"/><path d="M120.05,28.30L120.07,28.36"/><path d="M122.23,29.02L121.70,28.99"/><path d="M123.37,28.98L122.82,29.02"/><path d="M122.25,29.02L122.76,29.02"/><path d="M124.15,28.88L124.51,28.82"/><path d="M123.41,28.98L123.99,28.91"/><path d="M125.05,28.68L124.54,28.81"/><path d="M125.86,28.36L125.15,28.65"/><path d="M126.13,28.18L125.91,28.33"/><path d="M126.16,28.16L126.36,27.81"/><path d="M126.23,26.34L141.24,29.72L139.39,30.43L141.49,31.02L143.58,30.27L161.64,34.74L159.96,35.45L161.86,35.97L163.67,35.26L185.37,41.18L183.65,41.98L185.79,42.57L187.56,41.81L201.05,45.79L208.47,48.06L206.47,49.06L209.51,49.91L211.44,48.98L238.13,57.68L236.18,58.80L239.54,59.75L241.25,58.80L245.44,60.81L248.29,62.79"/><path d="M251.01,65.93L251.31,66.52L250.17,67.30L248.42,68.35L246.74,67.86L245.03,68.82L244.89,69.62L242.31,68.96"/></g></g><g id="Actor_.16"><g style="stroke:#000000;stroke-width:0.035"><path d="M163.22,33.63L142.12,28.45L126.15,25.35"/><path d="M142.26,30.74L142.18,28.43"/><path d="M144.20,28.94L144.23,30.42"/><path d="M174.83,36.82L174.85,38.25"/><path d="M184.47,39.29L187.85,40.24"/><path d="M207.55,45.96L209.43,46.52L209.30,49.85"/><path d="M209.49,46.49L212.25,47.27"/><path d="M238.32,59.40L238.57,56.42L212.18,47.30L212.10,49.19"/><path d="M238.57,56.42L238.64,56.39"/></g><g style="stroke:#000000;stroke-width:0.088"><path d="M162.70,33.46L142.18,28.43L126.14,25.32"/><path d="M184.53,39.27L186.48,39.81"/><path d="M207.62,45.93L212.25,47.27L238.64,56.39L238.38,59.42"/></g></g><g id="Actor_.17"><g style="stroke:#000000;stroke-width:0.035"><path d="M100.31,23.36L102.28,23.93L104.70,23.27L103.42,22.53L100.31,23.36L100.17,23.23"/><path d="M110.03,21.69L110.05,21.55L111.18,21.47L113.43,21.39L115.60,21.42L118.56,21.65L121.09,22.10L121.15,21.97L119.35,21.63L117.32,21.39L115.11,21.28L112.78,21.28L109.17,21.50L105.59,21.97L102.25,22.67L100.23,23.24L100.13,22.44L102.15,21.86L104.34,21.37L106.67,20.98L110.29,20.59L113.87,20.46L116.15,20.52L118.28,20.69L121.15,21.14"/><path d="M100.31,23.37L100.33,23.47"/><path d="M100.13,22.44L100.07,22.42"/><path d="M102.29,24.04L102.28,23.93"/><path d="M104.82,23.35L104.80,23.25L103.42,22.53L105.55,22.11L107.78,21.78L110.05,21.55L110.04,21.68"/><path d="M104.80,23.25L105.64,23.07"/><path d="M104.70,23.27L104.70,23.29"/><path d="M115.84,21.98L116.64,21.48L115.88,21.99"/><path d="M118.67,23.00L118.66,22.90L119.55,22.59L119.56,22.69"/><path d="M118.66,22.90L118.00,22.76"/><path d="M119.55,22.59L121.85,23.14L121.68,23.20"/><path d="M120.96,23.45L122.76,23.85"/><path d="M142.27,27.00L121.15,21.97L121.08,21.16L142.21,26.16L142.25,27.09L142.20,27.14L121.09,22.10"/><path d="M142.20,27.14L140.60,27.74L126.08,24.57"/><path d="M140.60,27.85L140.60,27.74"/><path d="M142.21,26.16L142.29,26.13"/></g><g style="stroke:#000000;stroke-width:0.088"><path d="M126.09,24.67L140.60,27.85L142.20,27.24L142.33,27.09L142.29,26.13L121.15,21.14L118.34,20.66L116.20,20.49L113.90,20.43L111.50,20.49L109.07,20.67L106.65,20.96L104.31,21.35L102.09,21.84L100.07,22.42L100.18,23.29L100.30,23.46L102.29,24.04L104.71,23.37L104.70,23.29L104.82,23.35L105.55,23.19"/><path d="M118.20,22.90L118.67,23.00L119.56,22.69L121.68,23.20L120.96,23.45L120.97,23.55L122.45,23.88"/></g></g><g id="Actor_.18"><g style="stroke:#000000;stroke-width:0.035"><path d="M193.48,126.02L195.81,127.11L195.80,127.22"/><path d="M195.95,127.22L196.10,122.80L195.99,122.76"/><path d="M195.91,127.05L195.81,127.11L196.01,127.10L223.51,108.64L223.50,108.84"/><path d="M195.91,127.04L195.96,124.37"/><path d="M196.10,122.80L222.51,105.37L241.19,65.92"/><path d="M242.91,67.65L223.51,108.64L222.51,105.37L222.06,105.56"/><path d="M222.41,105.33L240.56,66.99"/><path d="M223.56,108.67L223.50,108.74"/><path d="M223.46,108.72L223.38,108.80"/><path d="M223.50,108.65L223.51,108.64"/></g><g style="stroke:#000000;stroke-width:0.088"><path d="M193.48,126.02L193.48,126.13L195.95,127.22L223.38,108.80L223.56,108.78L223.52,108.65L242.91,67.70L241.19,65.92L241.09,65.89L240.56,66.99L240.35,66.93L222.06,105.56L195.99,122.76L195.96,124.37L193.48,126.02"/></g></g><g id="Actor_.19"><g style="stroke:#000000;stroke-width:0.035"><path d="M75.20,110.29L75.34,110.44L76.18,110.95L76.19,111.03"/><path d="M99.27,98.99L75.26,110.32L74.68,107.23L98.84,96.00"/><path d="M99.34,99.11L75.34,110.44L75.35,110.53"/><path d="M74.68,107.23L74.62,107.20"/><path d="M100.20,99.55L76.18,110.95"/></g><g style="stroke:#000000;stroke-width:0.088"><path d="M75.21,110.33L74.62,107.20L98.78,95.97L98.84,96.00L99.29,99.05L100.20,99.55L100.21,99.64L76.19,111.03L75.35,110.53L75.21,110.33"/></g></g><g id="Actor_.20"><g style="stroke:#000000;stroke-width:0.035"><path d="M241.98,56.83L243.89,57.41"/><path d="M244.81,71.29L248.96,72.55L249.15,72.41L249.24,72.45L249.19,72.57"/><path d="M247.05,67.95L247.07,68.25L247.04,68.57"/><path d="M247.80,62.39L248.00,60.47"/><path d="M249.15,72.42L249.09,72.53L248.96,72.55L248.95,72.64"/><path d="M249.15,72.41L249.60,68.08L249.69,68.11L250.56,67.53L251.28,66.92L251.85,66.28L252.27,65.62L252.53,64.95L252.61,64.42"/><path d="M251.81,69.91L251.39,70.58L250.82,71.23L250.10,71.85L249.24,72.45L249.69,68.11"/><path d="M249.60,68.08L250.47,67.51L251.19,66.90L251.76,66.26L252.17,65.61L252.43,64.94L252.49,64.58"/><path d="M251.27,66.64L251.32,66.74"/><path d="M251.07,65.89L251.52,66.53"/></g><g style="stroke:#000000;stroke-width:0.088"><path d="M243.39,57.20L242.03,56.81L241.98,56.83L241.78,59.03"/><path d="M252.62,64.41L252.18,68.53L252.07,69.23L251.76,70.04L251.34,70.71L250.77,71.36L250.05,71.98L249.08,72.64L248.95,72.64L244.80,71.38L244.81,71.29L245.19,71.05L245.86,70.53L246.14,70.26L246.59,69.71L246.76,69.42L246.99,68.84L247.06,68.34L247.02,67.94"/></g></g><g id="Actor_.21"><g style="stroke:#000000;stroke-width:0.035"><path d="M227.51,109.60L225.65,108.33L224.99,108.05"/><path d="M242.53,72.67L225.65,108.33L225.56,108.30"/><path d="M242.29,72.55L225.40,108.21L225.44,108.24"/></g><g style="stroke:#000000;stroke-width:0.088"><path d="M241.85,72.42L242.53,72.67L244.21,74.31L227.53,109.57L227.43,109.57L225.56,108.30L224.99,108.06"/></g></g><g id="Actor_.22"><g style="stroke:#000000;stroke-width:0.035"><path d="M168.91,173.22L168.53,160.92L170.83,162.27L171.16,174.61"/><path d="M168.44,160.80L168.53,160.92L168.70,160.92L170.83,162.17L170.83,162.07L170.92,162.00L200.14,141.05"/><path d="M170.83,162.07L168.52,160.71L168.53,160.82L168.61,160.87"/><path d="M199.18,138.84L197.74,139.86L197.84,139.91L174.66,156.36L168.71,160.58L168.57,160.56"/><path d="M168.51,160.68L168.52,160.71"/><path d="M168.71,160.58L168.55,160.70"/><path d="M171.17,171.41L170.93,162.21L170.83,162.27"/><path d="M170.83,162.17L170.93,162.21"/><path d="M170.84,162.16L199.10,141.89"/><path d="M197.74,139.86L197.65,139.81"/><path d="M197.64,139.94L197.74,139.89"/><path d="M197.84,139.91L199.14,140.55"/></g><g style="stroke:#000000;stroke-width:0.088"><path d="M168.91,173.22L171.16,174.61L171.25,174.54L171.17,171.41L198.87,150.87L199.10,141.89L200.13,141.15L200.14,141.05L199.14,140.55L199.18,138.84L199.08,138.79L197.65,139.81L197.64,139.94L168.57,160.56L168.45,160.76L168.45,160.92L168.82,173.10L168.91,173.22"/></g></g><g id="Actor_.23"><g style="stroke:#000000;stroke-width:0.035"><path d="M162.70,33.42L184.23,39.32L184.23,39.39"/><path d="M164.23,32.76L185.77,38.60L185.72,38.78"/><path d="M164.18,32.86L185.72,38.70L184.23,39.32"/><path d="M185.82,38.58L185.77,38.60L185.77,36.43L164.17,30.69"/><path d="M185.82,36.41L185.77,36.43"/></g><g style="stroke:#000000;stroke-width:0.088"><path d="M162.70,33.49L162.70,33.42L164.22,32.82L164.17,30.69L164.22,30.67L185.82,36.41L185.82,38.58L185.79,38.70L185.72,38.78L184.23,39.39L162.70,33.49"/></g></g><g id="PMI5.0"><g><path style="stroke:#000000;stroke-width:0.250" d="M112.69,12.78L112.41,24.91"/></g><g><path style="fill:#000000" d="M111.42,24.90L113.42,24.95L112.37,26.93z"/></g><g><path style="stroke:#000000;stroke-width:0.150;fill:#ffffff" d="M102.55,12.79L122.99,12.79L122.99,6.59L102.55,6.59z"/><path style="stroke:#000000;stroke-width:0.150" d="M102.55,12.79L122.99,12.79L122.99,6.59L102.55,6.59z"/><text xml:space="preserve" fill="#000000" stroke-width="0" x="103.32" y="11.05" font-size="3.78" opacity="1.00" font-family="MS Shell Dlg">350830441</text></g></g><g id="PMI21.0"><g><path style="stroke:#000000;stroke-width:0.250" d="M123.06,36.35L123.12,29.45"/></g><g><path style="fill:#000000" d="M124.13,29.47L122.13,29.45L123.15,27.46z"/></g><g><path style="stroke:#000000;stroke-width:0.150;fill:#ffffff" d="M112.81,42.57L133.25,42.57L133.25,36.36L112.81,36.36z"/><path style="stroke:#000000;stroke-width:0.150" d="M112.81,42.57L133.25,42.57L133.25,36.36L112.81,36.36z"/><text xml:space="preserve" fill="#000000" stroke-width="0" x="113.59" y="40.83" font-size="3.78" opacity="1.00" font-family="MS Shell Dlg">020134132</text></g></g><g id="PMI12.0"><g><path style="stroke:#000000;stroke-width:0.250" d="M61.47,63.56L71.72,63.04"/></g><g><path style="fill:#000000" d="M71.80,64.05L71.70,62.05L73.74,62.95z"/></g><g><path style="stroke:#000000;stroke-width:0.150;fill:#ffffff" d="M40.42,67.21L61.50,67.21L61.50,61.01L40.42,61.01z"/><path style="stroke:#000000;stroke-width:0.150" d="M40.42,67.21L61.50,67.21L61.50,61.01L40.42,61.01z"/><text xml:space="preserve" fill="#000000" stroke-width="0" x="41.20" y="65.47" font-size="3.78" opacity="1.00" font-family="MS Shell Dlg">3500029D1</text></g></g><g id="PMI7.0"><g><path style="stroke:#000000;stroke-width:0.250" d="M152.24,18.94L152.09,27.19"/></g><g><path style="fill:#000000" d="M151.09,27.18L153.09,27.22L152.05,29.20z"/></g><g><path style="stroke:#000000;stroke-width:0.150;fill:#ffffff" d="M142.08,18.96L162.52,18.96L162.52,12.75L142.08,12.75z"/><path style="stroke:#000000;stroke-width:0.150" d="M142.08,18.96L162.52,18.96L162.52,12.75L142.08,12.75z"/><text xml:space="preserve" fill="#000000" stroke-width="0" x="142.85" y="17.21" font-size="3.78" opacity="1.00" font-family="MS Shell Dlg">350830511</text></g></g><g id="PMI10.0"><g><path style="stroke:#000000;stroke-width:0.250" d="M89.45,55.14L89.69,62.20"/></g><g><path style="fill:#000000" d="M88.69,62.23L90.69,62.17L89.76,64.20z"/></g><g><path style="stroke:#000000;stroke-width:0.150;fill:#ffffff" d="M78.93,55.15L99.79,55.15L99.79,48.94L78.93,48.94z"/><path style="stroke:#000000;stroke-width:0.150" d="M78.93,55.15L99.79,55.15L99.79,48.94L78.93,48.94z"/><text xml:space="preserve" fill="#000000" stroke-width="0" x="79.70" y="53.40" font-size="3.78" opacity="1.00" font-family="MS Shell Dlg">3500029B1</text></g></g><g id="PMI15.0"><g><path style="stroke:#000000;stroke-width:0.250" d="M57.01,115.17L56.91,105.38"/></g><g><path style="fill:#000000" d="M57.93,105.37L55.93,105.39L56.91,103.38z"/></g><g><path style="stroke:#000000;stroke-width:0.150;fill:#ffffff" d="M46.84,121.38L67.29,121.38L67.29,115.17L46.84,115.17z"/><path style="stroke:#000000;stroke-width:0.150" d="M46.84,121.38L67.29,121.38L67.29,115.17L46.84,115.17z"/><text xml:space="preserve" fill="#000000" stroke-width="0" x="47.62" y="119.63" font-size="3.78" opacity="1.00" font-family="MS Shell Dlg">350003081</text></g></g><g id="PMI9.0"><g><path style="stroke:#000000;stroke-width:0.250" d="M174.26,27.16L174.03,32.90"/></g><g><path style="fill:#000000" d="M173.03,32.87L175.03,32.95L173.95,34.91z"/></g><g><path style="stroke:#000000;stroke-width:0.150;fill:#ffffff" d="M164.15,27.17L184.60,27.17L184.60,20.96L164.15,20.96z"/><path style="stroke:#000000;stroke-width:0.150" d="M164.15,27.17L184.60,27.17L184.60,20.96L164.15,20.96z"/><text xml:space="preserve" fill="#000000" stroke-width="0" x="164.93" y="25.42" font-size="3.78" opacity="1.00" font-family="MS Shell Dlg">350830521</text></g></g><g id="PMI18.0"><g><path style="stroke:#000000;stroke-width:0.250" d="M168.60,49.96L167.78,43.23"/></g><g><path style="fill:#000000" d="M168.76,43.12L166.78,43.36L167.53,41.25z"/></g><g><path style="stroke:#000000;stroke-width:0.150;fill:#ffffff" d="M158.76,56.18L179.21,56.18L179.21,49.97L158.76,49.97z"/><path style="stroke:#000000;stroke-width:0.150" d="M158.76,56.18L179.21,56.18L179.21,49.97L158.76,49.97z"/><text xml:space="preserve" fill="#000000" stroke-width="0" x="159.54" y="54.43" font-size="3.78" opacity="1.00" font-family="MS Shell Dlg">350830392</text></g></g><g id="PMI13.0"><g><path style="stroke:#000000;stroke-width:0.250" d="M115.38,85.75L106.56,85.60"/></g><g><path style="fill:#000000" d="M106.59,84.60L106.55,86.60L104.57,85.57z"/></g><g><path style="stroke:#000000;stroke-width:0.150;fill:#ffffff" d="M115.38,89.03L135.82,89.03L135.82,82.83L115.38,82.83z"/><path style="stroke:#000000;stroke-width:0.150" d="M115.38,89.03L135.82,89.03L135.82,82.83L115.38,82.83z"/><text xml:space="preserve" fill="#000000" stroke-width="0" x="116.16" y="87.29" font-size="3.78" opacity="1.00" font-family="MS Shell Dlg">3500029L1</text></g></g><g id="PMI14.0"><g><path style="stroke:#000000;stroke-width:0.250" d="M73.02,128.27L73.21,117.70"/></g><g><path style="fill:#000000" d="M74.23,117.71L72.23,117.68L73.27,115.70z"/></g><g><path style="stroke:#000000;stroke-width:0.150;fill:#ffffff" d="M62.76,134.47L83.20,134.47L83.20,128.26L62.76,128.26z"/><path style="stroke:#000000;stroke-width:0.150" d="M62.76,134.47L83.20,134.47L83.20,128.26L62.76,128.26z"/><text xml:space="preserve" fill="#000000" stroke-width="0" x="63.53" y="132.72" font-size="3.78" opacity="1.00" font-family="MS Shell Dlg">350003011</text></g></g><g id="PMI17.0"><g><path style="stroke:#000000;stroke-width:0.250" d="M144.04,93.54L153.43,93.46"/></g><g><path style="fill:#000000" d="M153.44,94.47L153.42,92.47L155.43,93.45z"/></g><g><path style="stroke:#000000;stroke-width:0.150;fill:#ffffff" d="M123.59,96.73L144.04,96.73L144.04,90.53L123.59,90.53z"/><path style="stroke:#000000;stroke-width:0.150" d="M123.59,96.73L144.04,96.73L144.04,90.53L123.59,90.53z"/><text xml:space="preserve" fill="#000000" stroke-width="0" x="124.37" y="94.99" font-size="3.78" opacity="1.00" font-family="MS Shell Dlg">350830321</text></g></g><g id="PMI11.0"><g><path style="stroke:#000000;stroke-width:0.250" d="M118.27,125.11L125.44,125.05"/></g><g><path style="fill:#000000" d="M125.46,126.04L125.44,124.04L127.45,125.02z"/></g><g><path style="stroke:#000000;stroke-width:0.150;fill:#ffffff" d="M97.41,128.31L118.28,128.31L118.28,122.10L97.41,122.10z"/><path style="stroke:#000000;stroke-width:0.150" d="M97.41,128.31L118.28,128.31L118.28,122.10L97.41,122.10z"/><text xml:space="preserve" fill="#000000" stroke-width="0" x="98.19" y="126.56" font-size="3.78" opacity="1.00" font-family="MS Shell Dlg">3500029A1</text></g></g><g id="PMI23.0"><g><path style="stroke:#000000;stroke-width:0.250" d="M223.62,39.73L224.63,55.76"/></g><g><path style="fill:#000000" d="M223.62,55.83L225.61,55.71L224.74,57.77z"/></g><g><path style="stroke:#000000;stroke-width:0.150;fill:#ffffff" d="M213.18,39.75L233.63,39.75L233.63,33.54L213.18,33.54z"/><path style="stroke:#000000;stroke-width:0.150" d="M213.18,39.75L233.63,39.75L233.63,33.54L213.18,33.54z"/><text xml:space="preserve" fill="#000000" stroke-width="0" x="213.96" y="38.00" font-size="3.78" opacity="1.00" font-family="MS Shell Dlg">350830421</text></g></g><g id="PMI8.0"><g><path style="stroke:#000000;stroke-width:0.250" d="M247.63,46.16L247.20,53.71"/></g><g><path style="fill:#000000" d="M246.19,53.66L248.18,53.77L247.07,55.71z"/></g><g><path style="stroke:#000000;stroke-width:0.150;fill:#ffffff" d="M237.57,46.17L258.01,46.17L258.01,39.96L237.57,39.96z"/><path style="stroke:#000000;stroke-width:0.150" d="M237.57,46.17L258.01,46.17L258.01,39.96L237.57,39.96z"/><text xml:space="preserve" fill="#000000" stroke-width="0" x="238.34" y="44.42" font-size="3.78" opacity="1.00" font-family="MS Shell Dlg">350830431</text></g></g><g id="PMI4.0"><g><path style="stroke:#000000;stroke-width:0.250" d="M244.51,90.51L235.69,90.71"/></g><g><path style="fill:#000000" d="M235.66,89.71L235.70,91.71L233.68,90.75z"/></g><g><path style="stroke:#000000;stroke-width:0.150;fill:#ffffff" d="M244.50,93.40L264.94,93.40L264.94,87.19L244.50,87.19z"/><path style="stroke:#000000;stroke-width:0.150" d="M244.50,93.40L264.94,93.40L264.94,87.19L244.50,87.19z"/><text xml:space="preserve" fill="#000000" stroke-width="0" x="245.28" y="91.65" font-size="3.78" opacity="1.00" font-family="MS Shell Dlg">350830371</text></g></g><g id="PMI16.0"><g><path style="stroke:#000000;stroke-width:0.250" d="M259.40,70.95L251.39,70.87"/></g><g><path style="fill:#000000" d="M251.39,69.88L251.37,71.88L249.38,70.86z"/></g><g><path style="stroke:#000000;stroke-width:0.150;fill:#ffffff" d="M259.39,74.15L279.83,74.15L279.83,67.94L259.39,67.94z"/><path style="stroke:#000000;stroke-width:0.150" d="M259.39,74.15L279.83,74.15L279.83,67.94L259.39,67.94z"/><text xml:space="preserve" fill="#000000" stroke-width="0" x="260.16" y="72.40" font-size="3.78" opacity="1.00" font-family="MS Shell Dlg">350830401</text></g></g><g id="PMI2.0"><g><path style="stroke:#000000;stroke-width:0.250" d="M224.74,119.93L214.81,119.80"/></g><g><path style="fill:#000000" d="M214.81,118.79L214.78,120.79L212.80,119.77z"/></g><g><path style="stroke:#000000;stroke-width:0.150;fill:#ffffff" d="M224.73,123.17L245.18,123.17L245.18,116.97L224.73,116.97z"/><path style="stroke:#000000;stroke-width:0.150" d="M224.73,123.17L245.18,123.17L245.18,116.97L224.73,116.97z"/><text xml:space="preserve" fill="#000000" stroke-width="0" x="225.51" y="121.43" font-size="3.78" opacity="1.00" font-family="MS Shell Dlg">350830361</text></g></g><g id="PMI6.0"><g><path style="stroke:#000000;stroke-width:0.250" d="M197.27,155.25L187.56,155.99"/></g><g><path style="fill:#000000" d="M187.48,154.99L187.63,156.98L185.56,156.14z"/></g><g><path style="stroke:#000000;stroke-width:0.150;fill:#ffffff" d="M197.27,157.57L217.71,157.57L217.71,151.36L197.27,151.36z"/><path style="stroke:#000000;stroke-width:0.150" d="M197.27,157.57L217.71,157.57L217.71,151.36L197.27,151.36z"/><text xml:space="preserve" fill="#000000" stroke-width="0" x="198.04" y="155.83" font-size="3.78" opacity="1.00" font-family="MS Shell Dlg">350830381</text></g></g><g/><g id="paperID" visibility="hidden" opacity="0.00" transform="scale(0.000100)"><path style="stroke:#000000;stroke-width:0.500;fill:#e6e6e6;fill-rule:evenodd" d="M-2000.00,-2000.00L2297.00,-2000.00L2297.00,2210.00L-2000.00,2210.00zM0.00,0.00L297.00,0.00L297.00,210.00L0.00,210.00z"/><path style="fill:#000000;fill-opacity:0.118" d="M3.00,210.00L297.00,210.00L297.00,3.00L300.00,3.00L300.00,213.00L3.00,213.00z"/></g><g id="hotspot.0" onmouseover="ShowHotSpot(evt,'0')" onmouseout="HideHotSpot(evt,'0')" onmousemove="ShowToolTip(evt,'0',&quot;3dp2115285&quot;)" opacity="0"><path style="fill:#00ff00;fill-rule:evenodd" d="M131.09,36.54L141.62,39.88L140.08,40.48L126.71,68.69L126.74,70.74L110.30,77.96L103.89,95.42L99.25,97.73L98.76,95.85L75.02,106.85L74.59,107.74L73.86,107.63L68.35,104.28L73.50,101.74L87.12,95.56L87.22,95.30L65.37,83.74L64.78,83.75L46.54,91.24L46.15,91.21L40.65,87.88L41.75,87.45L41.39,86.82L43.47,85.82L66.31,76.83L71.01,63.57L72.06,61.02L87.46,55.27L78.88,55.11L78.88,48.85L91.04,48.68L100.07,29.66L100.03,29.37L99.43,29.16L99.67,28.30L100.71,27.81L102.09,27.81zM109.79,75.06L103.10,93.60L100.28,94.89L100.02,95.94L99.52,95.87L98.14,95.05L98.49,94.65L98.23,91.47L96.63,80.67L108.48,75.62L108.90,74.74z"/></g><g id="hotspot.1" onmouseover="ShowHotSpot(evt,'1')" onmouseout="HideHotSpot(evt,'1')" onmousemove="ShowToolTip(evt,'1',&quot;3dp2115286&quot;)" opacity="0"><path style="fill:#00ff00;fill-rule:evenodd" d="M97.22,128.01L97.36,122.01L118.26,122.01L118.41,124.68L125.47,124.91L125.70,124.04L126.20,124.35L126.64,124.35L136.39,118.91L136.73,118.91L183.97,143.58L188.61,146.12L168.57,160.35L168.59,170.13L165.92,172.08L166.25,184.25L165.78,184.15L74.37,124.83L74.10,124.58L72.30,115.35L72.22,114.06L73.61,113.55zM97.88,128.42L118.26,128.27L118.41,125.34L124.68,125.34L108.52,134.47L107.99,134.63z"/></g><g id="hotspot.2" onmouseover="ShowHotSpot(evt,'2')" onmouseout="HideHotSpot(evt,'2')" onmousemove="ShowToolTip(evt,'2',&quot;3dp2115575&quot;)" opacity="0"><path style="fill:#00ff00;fill-rule:evenodd" d="M100.03,29.37L100.06,29.66L88.64,53.75L87.64,53.72L87.53,53.89L87.33,53.23L98.93,29.09zM87.70,55.13L87.53,53.89L87.67,53.99zM72.06,61.00L71.60,61.59L71.74,60.90zM71.80,61.94L73.61,62.83L72.04,63.86L71.70,62.94L70.87,63.65L70.77,63.23L61.68,63.74L61.53,67.18L40.38,67.18L40.38,60.91L61.53,60.91L61.68,63.07L69.65,62.72L71.20,62.47L71.60,61.59zM69.73,67.44L69.66,66.88L69.82,66.74zM67.68,73.35L67.60,72.78L67.76,72.65zM66.65,76.17L66.58,75.60L66.74,75.47zM41.45,86.81L41.75,87.34L41.45,87.66L40.98,87.64L40.86,86.83L41.46,86.56z"/></g><g id="hotspot.3" onmouseover="ShowHotSpot(evt,'3')" onmouseout="HideHotSpot(evt,'3')" onmousemove="ShowToolTip(evt,'3',&quot;3dp2116206&quot;)" opacity="0"><path style="fill:#00ff00;fill-rule:evenodd" d="M109.79,75.06L106.69,83.84L106.61,85.15L115.20,85.38L115.33,82.73L135.74,82.71L136.00,82.97L135.89,88.92L115.33,89.00L115.20,86.05L114.95,85.79L106.62,85.84L106.44,86.41L105.94,86.07L103.10,93.60L100.28,94.89L100.02,95.94L99.52,95.87L98.14,95.05L98.49,94.65L98.23,91.47L96.63,80.67L108.48,75.62L108.90,74.74z"/></g><g id="hotspot.4" onmouseover="ShowHotSpot(evt,'4')" onmouseout="HideHotSpot(evt,'4')" onmousemove="ShowToolTip(evt,'4',&quot;3dp2116925&quot;)" opacity="0"><path style="fill:#00ff00;fill-rule:evenodd" d="M75.13,110.47L75.93,114.90L73.61,113.55L72.22,114.06L72.49,116.49L72.78,116.49L73.33,115.60L74.12,117.39L73.52,117.66L73.49,128.02L83.12,128.15L83.37,128.40L83.27,134.35L62.71,134.43L62.71,128.17L72.83,128.02L72.84,118.94L72.03,119.30L72.07,121.07L71.26,120.75L70.16,119.70L70.52,119.29L69.99,115.86L69.74,114.58L69.66,113.03L74.37,110.79L74.26,109.94L74.59,109.91z"/></g><g id="hotspot.5" onmouseover="ShowHotSpot(evt,'5')" onmouseout="HideHotSpot(evt,'5')" onmousemove="ShowToolTip(evt,'5',&quot;3dp2117666&quot;)" opacity="0"><path style="fill:#00ff00;fill-rule:evenodd" d="M73.89,107.59L74.36,108.93L74.36,110.79L69.66,113.03L70.02,116.96L67.68,115.57L67.35,121.26L46.80,121.34L46.80,115.08L56.65,114.92L56.67,108.64L42.01,99.43L39.07,87.12L39.17,87.10zM66.44,114.82L57.32,114.92L57.42,109.16z"/></g><g id="hotspot.6" onmouseover="ShowHotSpot(evt,'6')" onmouseout="HideHotSpot(evt,'6')" onmousemove="ShowToolTip(evt,'6',&quot;3dp848705&quot;)" opacity="0"><path style="fill:#00ff00;fill-rule:evenodd" d="M120.03,23.46L120.31,24.21L119.79,24.57L119.81,25.85L119.00,25.77L118.98,24.73L118.72,24.55L118.68,23.17L119.55,23.16zM105.41,24.30L102.51,25.25L103.10,25.51L101.74,26.02L101.73,26.86L104.39,27.55L104.10,27.82L102.08,27.81L100.44,27.65L100.28,26.27L100.20,24.22L100.69,23.94L103.61,23.52L105.41,23.16zM243.53,57.07L245.57,58.10L247.39,59.62L248.41,61.17L248.39,62.32L247.64,62.21L245.06,60.41L241.90,58.95L241.95,57.12L242.17,56.81zM251.21,65.65L252.52,64.51L252.00,69.23L251.50,70.27L251.21,71.55L250.73,71.48L249.58,72.20L248.13,72.23L244.96,71.18L246.49,69.62L246.87,68.98L247.03,67.83L248.58,68.14L251.22,66.44zM280.00,68.08L279.90,74.03L259.34,74.11L259.19,71.18L251.61,71.00L251.61,70.70L259.19,70.52L259.34,67.84L279.75,67.82z"/></g><g id="hotspot.7" onmouseover="ShowHotSpot(evt,'7')" onmouseout="HideHotSpot(evt,'7')" onmousemove="ShowToolTip(evt,'7',&quot;3dp848324&quot;)" opacity="0"><path style="fill:#00ff00;fill-rule:evenodd" d="M239.18,69.22L222.12,105.32L196.45,122.27L196.01,122.85L195.77,124.41L193.71,125.72L193.70,126.11L195.52,126.93L196.21,126.93L223.51,108.51L241.65,70.16L242.49,70.15L243.29,70.42L243.55,70.79L242.25,71.55L225.02,107.71L224.70,110.21L199.77,127.12L197.33,130.33L197.06,132.63L196.83,140.35L190.38,144.95L189.61,145.15L183.71,142.04L137.26,117.90L136.99,117.65L135.59,101.48L137.93,98.65L141.36,96.85L123.55,96.70L123.55,90.43L143.95,90.41L144.21,90.67L144.34,93.11L148.98,93.02L163.46,85.42L163.67,83.07L178.33,52.29L179.78,51.40L180.36,51.41zM145.38,94.80L144.35,95.17L144.34,93.77L147.27,93.77z"/></g><g id="hotspot.8" onmouseover="ShowHotSpot(evt,'8')" onmouseout="HideHotSpot(evt,'8')" onmousemove="ShowToolTip(evt,'8',&quot;3dp848330&quot;)" opacity="0"><path style="fill:#00ff00;fill-rule:evenodd" d="M105.52,24.60L105.90,26.81L106.43,27.31L107.46,27.82L110.04,28.32L114.83,28.32L117.41,27.82L118.78,26.89L119.01,25.74L119.79,26.02L120.03,27.83L120.53,28.61L122.11,28.84L123.04,28.84L125.44,28.40L126.23,27.92L126.38,26.25L141.10,29.62L139.73,30.13L139.78,30.35L140.57,30.65L142.06,30.65L143.68,30.14L161.41,34.58L160.00,35.27L162.06,35.79L163.35,35.24L164.19,35.25L185.02,40.92L185.03,41.21L184.10,41.71L184.11,41.99L184.99,42.19L186.46,42.20L187.57,41.69L208.39,47.93L206.73,48.87L209.13,49.65L209.81,49.66L211.45,48.88L237.65,57.33L237.90,57.69L236.25,58.62L238.90,59.40L239.85,59.40L240.86,58.85L241.73,58.85L244.55,60.15L248.15,62.48L247.89,63.32L245.73,65.27L246.04,65.56L248.90,66.32L250.12,66.33L251.00,66.03L251.25,66.43L248.58,68.14L246.51,67.83L245.33,68.46L244.79,69.48L242.47,68.88L242.46,68.46L242.78,67.94L242.78,67.34L241.23,65.79L239.83,67.87L239.15,67.89L179.52,50.12L179.27,56.06L158.72,56.14L158.72,49.88L168.33,49.71L168.06,47.31L167.77,46.57L101.73,26.86L101.74,26.02L103.10,25.51L102.51,25.25L105.40,24.46zM178.07,49.65L169.00,49.71L168.79,49.41L168.47,46.80z"/></g><g id="hotspot.9" onmouseover="ShowHotSpot(evt,'9')" onmouseout="HideHotSpot(evt,'9')" onmousemove="ShowToolTip(evt,'9',&quot;3dp1003901&quot;)" opacity="0"><path style="fill:#00ff00;fill-rule:evenodd" d="M225.47,110.23L226.09,109.96L226.07,113.12L225.71,114.05L218.51,119.19L221.70,119.45L224.54,119.55L224.69,116.87L245.09,116.85L245.35,117.11L245.25,123.06L224.69,123.14L224.54,120.21L221.70,119.97L217.24,119.95L201.17,131.11L200.87,126.90L200.55,126.60L224.71,110.19z"/></g><g id="hotspot.10" onmouseover="ShowHotSpot(evt,'10')" onmouseout="HideHotSpot(evt,'10')" onmousemove="ShowToolTip(evt,'10',&quot;3dp848673&quot;)" opacity="0"><path style="fill:#00ff00;fill-rule:evenodd" d="M125.72,23.93L125.99,24.18L126.21,25.50L126.23,27.92L124.85,28.59L123.88,29.15L122.30,29.15L122.08,28.86L120.53,28.61L120.03,27.83L119.78,24.57L121.24,23.95L122.53,23.71L124.67,23.70zM123.29,36.12L133.17,36.25L133.43,36.51L133.33,42.45L112.77,42.54L112.77,36.27L122.63,36.12L123.07,29.56L123.36,29.56z"/></g><g id="hotspot.11" onmouseover="ShowHotSpot(evt,'11')" onmouseout="HideHotSpot(evt,'11')" onmousemove="ShowToolTip(evt,'11',&quot;3dp848886&quot;)" opacity="0"><path style="fill:#00ff00;fill-rule:evenodd" d="M138.53,27.56L157.26,31.93L183.69,39.12L185.51,39.35L211.17,46.81L223.23,50.93L224.00,51.02L223.50,41.42L223.25,39.86L213.14,39.71L213.14,33.45L233.54,33.43L233.80,33.68L233.69,39.63L223.92,39.86L224.52,49.63L224.78,51.43L238.66,56.32L238.39,59.23L236.25,58.62L237.90,57.69L237.65,57.33L225.28,53.20L224.69,53.21L224.98,55.59L225.29,55.83L225.33,56.38L224.78,57.41L224.55,57.36L223.69,55.79L224.25,55.61L224.27,53.73L224.00,52.98L212.46,49.12L211.45,48.88L209.81,49.66L209.13,49.65L206.73,48.87L208.39,47.93L187.57,41.69L186.46,42.20L184.99,42.19L184.11,41.99L184.10,41.71L185.03,41.21L185.02,40.92L164.19,35.25L163.35,35.24L162.06,35.79L160.00,35.27L161.41,34.58L143.68,30.14L142.06,30.65L140.57,30.65L139.78,30.35L139.73,30.13L141.10,29.62L126.69,26.30L126.16,25.48L126.15,25.20z"/></g><g id="hotspot.12" onmouseover="ShowHotSpot(evt,'12')" onmouseout="HideHotSpot(evt,'12')" onmousemove="ShowToolTip(evt,'12',&quot;3dp1003902&quot;)" opacity="0"><path style="fill:#00ff00;fill-rule:evenodd" d="M244.06,74.01L244.06,74.61L237.02,89.41L236.74,90.27L244.30,90.03L244.45,87.10L264.86,87.08L265.11,87.33L265.01,93.28L244.45,93.36L244.30,90.69L239.59,90.70L236.25,90.96L227.59,109.28L227.09,109.22L225.20,107.96L225.27,107.21L241.73,72.56L242.50,72.44z"/></g><g id="hotspot.13" onmouseover="ShowHotSpot(evt,'13')" onmouseout="HideHotSpot(evt,'13')" onmousemove="ShowToolTip(evt,'13',&quot;3dp1020555&quot;)" opacity="0"><path style="fill:#00ff00;fill-rule:evenodd" d="M123.16,6.73L123.06,12.68L113.02,12.91L112.77,21.49L114.91,21.65L117.74,22.42L118.53,23.17L118.76,24.73L118.78,26.88L117.41,27.82L114.83,28.32L110.04,28.32L107.46,27.82L106.43,27.31L105.90,26.81L105.67,24.99L105.67,22.76L107.64,21.90L112.10,21.49L112.35,18.39L112.36,12.91L102.50,12.76L102.50,6.49L122.90,6.47zM117.26,31.44L117.26,31.71L116.36,31.94L115.68,31.95L106.17,29.10L106.09,28.32L106.96,28.31z"/></g><g id="hotspot.14" onmouseover="ShowHotSpot(evt,'14')" onmouseout="HideHotSpot(evt,'14')" onmousemove="ShowToolTip(evt,'14',&quot;3dp1052006&quot;)" opacity="0"><path style="fill:#00ff00;fill-rule:evenodd" d="M199.38,140.49L199.89,140.78L199.93,141.09L199.37,141.62L199.11,142.89L198.86,150.61L198.49,151.03L217.63,151.25L217.88,151.51L217.78,157.46L197.22,157.54L197.05,155.36L191.82,155.88L171.39,171.14L171.13,174.23L170.62,174.17L168.99,173.18L168.82,171.56L168.45,160.50L199.13,138.70zM197.05,154.70L196.48,154.90L193.35,154.87L196.73,152.26L197.05,152.28z"/></g><g id="hotspot.15" onmouseover="ShowHotSpot(evt,'15')" onmouseout="HideHotSpot(evt,'15')" onmousemove="ShowToolTip(evt,'15',&quot;3dp1099731&quot;)" opacity="0"><path style="fill:#00ff00;fill-rule:evenodd" d="M162.69,12.89L162.59,18.84L152.55,19.07L152.30,26.79L152.90,27.06L152.84,27.54L153.39,27.83L161.89,29.86L161.92,32.03L161.31,32.45L159.31,32.44L142.85,28.30L142.81,28.07L143.92,27.64L144.09,25.74L144.94,25.75L150.07,27.05L151.30,27.06L151.90,26.63L151.89,19.07L142.03,18.92L142.03,12.65L162.44,12.63zM209.12,42.70L209.12,45.09L207.76,45.80L186.45,39.63L188.07,38.93L188.25,36.77z"/></g><g id="hotspot.16" onmouseover="ShowHotSpot(evt,'16')" onmouseout="HideHotSpot(evt,'16')" onmousemove="ShowToolTip(evt,'16',&quot;3dp848285&quot;)" opacity="0"><path style="fill:#00ff00;fill-rule:evenodd" d="M119.28,20.62L142.10,26.03L142.38,26.92L141.02,27.58L140.08,27.56L126.14,24.54L125.72,23.94L121.31,23.44L121.31,22.91L120.04,22.67L118.01,22.66L116.20,21.90L114.91,21.65L108.93,21.65L107.64,21.90L105.57,22.91L102.77,23.71L101.55,23.72L100.20,23.26L100.28,22.24L104.56,21.14L110.72,20.37L116.97,20.37zM258.18,40.10L258.08,46.05L247.87,46.36L247.56,53.56L248.12,53.74L247.53,54.75L248.91,55.53L251.73,57.33L252.79,58.59L253.54,60.15L253.53,62.03L252.94,63.75L251.50,65.40L250.12,66.33L248.90,66.32L246.04,65.56L245.73,65.27L247.89,63.32L248.41,62.30L248.41,61.17L247.39,59.62L245.57,58.10L242.74,56.83L241.35,56.28L241.98,55.79L238.66,54.77L238.06,55.03L237.10,55.03L211.41,46.81L210.83,46.56L212.45,45.85L212.72,44.80L213.21,44.74L242.75,53.22L245.84,54.28L246.35,54.34L246.30,53.73L246.84,53.56L247.36,46.26L237.52,46.13L237.52,39.86L257.93,39.84z"/></g><g id="hotspot.17" onmouseover="ShowHotSpot(evt,'17')" onmouseout="HideHotSpot(evt,'17')" onmousemove="ShowToolTip(evt,'17',&quot;3dp1099732&quot;)" opacity="0"><path style="fill:#00ff00;fill-rule:evenodd" d="M184.77,21.10L184.67,27.05L174.63,27.29L174.47,29.18L174.40,32.76L175.21,33.48L185.76,36.29L185.76,38.67L184.66,39.12L183.70,39.13L163.12,33.47L162.84,33.20L164.22,32.54L164.37,30.61L172.40,32.69L173.71,32.78L173.97,27.29L164.11,27.13L164.11,20.87L184.51,20.85z"/></g></g></svg>
