<?xml version="1.0" encoding="UTF-8" standalone="no"?>
<svg xmlns="http://www.w3.org/2000/svg" xmlns:xlink="http://www.w3.org/1999/xlink" width="297.000mm" height="210.000mm" viewBox="0.000000 0.000000 297.000000 210.000000" stroke-linejoin="round" stroke-linecap="round" fill="none" fill-rule="evenodd"><desc>Composer Export</desc><script type="text/ecmascript"><![CDATA[
if(typeof(top) != "undefined")
{
	top.ShowPaper = ShowPaper;
}
function ShowHotSpot(evt,hotspotid)
{
	var svgDocument = evt.target.ownerDocument;
	var strId = "hotspot."+hotspotid;
	var hotspot = svgDocument.getElementById(strId);
	if(hotspot)
		hotspot.setAttribute("opacity",".5");
}
function HideHotSpot(evt,hotspotid)
{
	var svgDocument = evt.target.ownerDocument;
	var strId = "hotspot."+hotspotid;
	var hotspot = svgDocument.getElementById(strId);
	if(hotspot)
		hotspot.setAttribute("opacity","0");

	var toolTip = svgDocument.getElementById('ToolTip');
	if(toolTip)
		toolTip.setAttribute("visibility","hidden");
}
function ShowToolTip(evt,hotspotid,strTooltip)
{
	if(strTooltip=="")
	return;

	// change text
	var svgDocument = evt.target.ownerDocument;
	var tiptext = svgDocument.getElementById('ToolTipText');
	if( !tiptext )
	return;
	tiptext.firstChild.nodeValue = " " + strTooltip + "  " ;

	// show tooltip before, else some refresh issue

	var toolTip = svgDocument.getElementById('ToolTip');
	if(!toolTip)
	return;

	toolTip.setAttribute("visibility","visible");
	toolTip.setAttribute("opacity",".95");

	// move tooltip
	// get viewbox

	var root = svgDocument.documentElement;
	var vbox = (root.getAttribute("viewBox")).split(' ');
	var x0 = parseFloat(vbox[0]);
	var y0 = parseFloat(vbox[1]);
	var vboxW = parseFloat(vbox[2]);
	var vboxH = parseFloat(vbox[3]);

	// get default width of svg

	var strW = root.getAttribute("width");
	var svgW = parseFloat(strW);
	if(strW.indexOf('mm') != -1)
	svgW *= 3.779;

	var strH = root.getAttribute("height");
	var svgH = parseFloat(strH);
	if(strH.indexOf('mm') != -1)
	svgH *= 3.779;  	// 96 dpi  -> 96/25.4 = 3.779

	// update the viewbox / width / height if svg is embedded in html with zoom fit all
	var realx0 = x0;
	var realy0 = y0;
	var realvboxW = vboxW;
	var realvboxH = vboxH;
	var realsvgW = svgW;
	var realsvgH = svgH;

	if ((typeof(top) == "undefined") || (typeof(top.svgctl1) != "undefined")) // embedded in html
	{
		// get window size in pxl

		svgW = window.innerWidth;
		svgH = window.innerHeight;

		// calculate real viewbox

		realsvgW = svgW;
		realsvgH = svgH;
		if((svgW / svgH) > (vboxW / vboxH))
		{
			realvboxW = (vboxH * svgW) / svgH;
			realvboxH = vboxH;
			realx0 = x0 - (realvboxW - vboxW)/2 ;
		}
		else
		{
			realvboxH = (vboxW * svgH) / svgW;
			realvboxW = vboxW;
			realy0 = y0 - (realvboxH - vboxH)/2 ;
		}
	}

	// get user zoom/pan

	var newScale = root.currentScale;
	var translation = root.currentTranslate;

	// transform pxl to user unit

	var xPos = (((evt.clientX+10- translation.x)/newScale) * realvboxW)/realsvgW  + realx0 ;
	var yPos = (((evt.clientY+5- translation.y)/newScale) * realvboxH)/ realsvgH  + realy0 ;
	var scaleForWidth = ( (1 / newScale) * realvboxH) / realsvgH;

	// move tooltip

	toolTip.setAttribute("transform", "translate(" + xPos + "," + yPos + ")" );

	// resize tooltip

	var fontsize = 12;
	tiptext.setAttribute("font-size",fontsize*scaleForWidth);
	tiptext.setAttribute("y", fontsize*scaleForWidth);
	var tipBG = svgDocument.getElementById('ToolTipBG');
	var outline = tiptext.getBBox();
	if(tipBG)
	{
		tipBG.setAttribute("stroke-width", 1*scaleForWidth);
		tipBG.setAttribute("width", Number(outline.width) );
		tipBG.setAttribute("height", Number(outline.height) + fontsize*.5*scaleForWidth );
	}
	var ToolTipShadow = svgDocument.getElementById('ToolTipShadow');
	if(ToolTipShadow)
	{
		ToolTipShadow.setAttribute("width", Number(outline.width) );
		ToolTipShadow.setAttribute("height", Number(outline.height) + fontsize*.5*scaleForWidth );
		ToolTipShadow.setAttribute("x", 3*scaleForWidth);
		ToolTipShadow.setAttribute("y", 3*scaleForWidth);
	}
}
function ShowPaper()
{
  var svgDocument = getDocument();
  var paper = svgDocument.getElementById("paperID");
  if(paper)
  {
    paper.setAttribute("transform","scale(1)");
    paper.setAttribute("opacity","1");
    paper.setAttribute("visibility","visible");
  }
  var svg = svgDocument.getRootElement();
  if(svg)
  {
    svg.setAttribute("width","307.000mm");
    svg.setAttribute("height","220.000mm");
    svg.setAttribute("viewBox","-5.000000 -5.000000 307.000000 220.000000");
  }
}
]]></script><defs/><g><g id="Actor_.0"><g style="stroke:#000000;stroke-width:0.123"><path d="M236.07,65.20L235.95,65.43L235.90,65.63L235.89,65.82L235.93,66.01"/><path d="M235.89,65.82L235.89,65.81"/><path d="M236.07,65.20L236.19,65.03L236.44,64.78"/><path d="M236.99,64.36L236.73,64.54L236.44,64.77"/><path d="M237.00,64.36L237.72,63.97"/><path d="M237.73,63.97L238.61,63.62"/><path d="M238.62,63.62L239.62,63.32"/><path d="M240.72,63.07L239.63,63.31"/><path d="M241.89,62.88L240.73,63.07"/><path d="M243.08,62.77L241.90,62.88"/><path d="M243.08,62.77L244.31,62.74L245.37,62.78"/><path d="M246.40,62.89L245.37,62.78"/><path d="M247.31,63.08L246.41,62.89"/><path d="M248.09,63.33L247.33,63.08"/><path d="M248.69,63.64L248.41,63.48L248.09,63.33"/><path d="M249.09,63.99L248.89,63.79L248.69,63.64"/><path d="M249.33,64.66L249.30,64.39"/><path d="M249.30,64.38L249.24,64.23L249.10,64.00"/></g></g><g id="Actor_.1"><g style="stroke:#000000;stroke-width:0.123"><path d="M269.09,56.19L269.36,56.50L269.33,56.54L269.03,56.20"/><path d="M268.71,55.76L268.61,55.64L268.57,55.68L268.72,55.84"/><path d="M268.61,55.64L268.56,55.66"/></g></g><g id="Actor_.2"><g style="stroke:#000000;stroke-width:0.123"><path d="M236.22,66.79L235.96,66.35L235.90,65.62L236.07,65.21L236.44,64.77L236.99,64.37L237.72,63.98L238.60,63.62L239.63,63.31L240.72,63.07L241.88,62.89L243.08,62.77L244.26,62.74L245.37,62.78L246.40,62.89L247.34,63.08L248.09,63.33L248.25,63.41L248.69,63.64L249.09,63.99L249.30,64.38L249.33,64.71L249.32,65.19L249.11,65.61L248.61,66.12L247.98,66.54L247.12,67.00L246.35,67.34L245.44,67.64L244.43,67.88L243.36,68.06L242.26,68.16L241.18,68.19L240.15,68.14L239.22,68.02L238.42,67.82L237.46,67.52L236.79,67.22L236.22,66.79"/><path d="M238.38,66.13L238.44,66.92L238.29,66.67L238.27,66.40L238.37,66.15L238.57,65.90L238.87,65.66L239.45,65.33L240.02,65.12"/><path d="M238.44,66.92L238.59,67.12L238.75,67.20L239.65,67.42L240.50,67.55L241.34,67.60L242.70,67.55L242.37,66.41L242.24,65.84L242.07,65.08L242.01,64.67"/><path d="M238.04,66.48L238.07,66.75L238.31,67.05L238.74,67.32L239.02,67.42"/><path d="M238.02,66.52L238.18,66.17L238.54,65.82L239.08,65.49L239.78,65.19L240.61,64.93"/><path d="M243.73,64.54L243.70,64.97L243.50,65.75L243.32,66.34L243.03,67.15L242.85,67.54L244.05,67.42L244.82,67.27L245.59,67.04L246.51,66.67L246.64,66.57L246.14,66.95L245.63,67.21L244.95,67.45L244.35,67.58L243.35,67.64L242.77,67.59L242.12,67.72L240.99,67.81L240.29,67.77L239.49,67.63L238.88,67.35L238.59,67.12"/><path d="M240.57,64.95L240.63,64.93"/><path d="M244.47,64.56L243.51,64.54L242.51,64.60L241.53,64.74L240.59,64.94"/><path d="M243.61,67.62L242.81,67.73L241.85,67.79L241.37,67.78"/><path d="M243.04,67.61L242.33,67.68"/><path d="M247.31,65.61L247.09,65.30L246.66,65.02L246.06,64.80L245.31,64.64L244.45,64.56"/><path d="M245.09,64.62L245.33,64.65L245.98,64.81L246.49,65.01L246.85,65.27L247.05,65.55L247.06,65.86L246.96,66.10L246.75,66.34L246.64,66.57"/><path d="M246.75,66.34L246.65,65.13"/><path d="M247.29,65.58L247.30,65.85L247.12,66.20L246.75,66.54L246.42,66.74"/></g></g><g id="Actor_.3"><g style="stroke:#000000;stroke-width:0.123"><path d="M151.59,120.08L151.48,120.16L151.38,120.26"/><path d="M151.37,120.26L151.30,120.37L151.28,120.44"/><path d="M151.28,120.51L151.28,120.45"/><path d="M151.28,120.50L151.28,120.49"/><path d="M151.94,119.92L151.60,120.08"/><path d="M152.39,119.77L151.94,119.92"/><path d="M153.58,119.53L152.95,119.64"/><path d="M152.94,119.64L152.40,119.77"/><path d="M153.58,119.53L154.28,119.45"/><path d="M156.52,119.40L155.45,119.39L154.93,119.40L154.28,119.45"/><path d="M157.23,119.44L156.52,119.40"/><path d="M157.90,119.52L157.24,119.44"/><path d="M158.50,119.62L157.91,119.52"/><path d="M159.00,119.75L158.50,119.62"/><path d="M159.86,120.42L159.87,120.33L159.84,120.24L159.78,120.16L159.68,120.07"/><path d="M159.40,119.90L159.59,120.00L159.68,120.07"/><path d="M159.40,119.90L159.01,119.75"/><path d="M159.87,120.37L159.87,120.36"/></g></g><g id="Actor_.4"><g style="stroke:#000000;stroke-width:0.123"><path d="M156.52,119.40L155.78,119.38L155.01,119.40L154.27,119.45L153.58,119.53L152.95,119.64L152.39,119.77L151.94,119.92L151.77,120.00L151.60,120.08L151.38,120.26L151.28,120.44L151.28,120.66L151.34,120.88L151.55,121.09L152.45,121.55L152.87,121.69L153.38,121.80L154.05,121.88"/><path d="M153.08,120.78L153.09,121.40L152.90,121.29L152.79,121.18L152.77,121.07L152.81,120.97L152.92,120.86L153.12,120.76"/><path d="M153.14,121.48L153.06,121.46L152.79,121.33L152.64,121.18L152.63,121.09"/><path d="M153.29,120.70L152.95,120.82L152.72,120.96L152.61,121.11"/><path d="M153.09,121.40L153.17,121.55L153.26,121.61L153.78,121.80L154.27,121.92L154.75,122.00L155.54,122.02L155.37,121.84L155.08,121.44L154.89,121.13L154.68,120.70L154.65,120.61L154.62,120.47"/><path d="M158.17,120.73L157.79,120.61L157.31,120.52L156.75,120.45L156.14,120.42L155.51,120.42L154.88,120.44L154.28,120.50L153.74,120.59L153.28,120.70"/><path d="M155.70,120.42L155.68,121.41L155.64,122.02L156.46,121.92L156.99,121.80L157.53,121.63L158.17,121.36L158.27,121.29L158.03,121.48L157.80,121.59L157.27,121.80L156.80,121.93L156.04,122.03L155.60,122.04L155.27,122.07L154.68,122.04L154.35,121.97L153.78,121.80"/><path d="M156.52,119.40L157.25,119.45L157.91,119.52L158.50,119.62L159.01,119.75L159.40,119.90L159.68,120.07L159.84,120.24L159.86,120.42L159.87,120.64L159.85,120.68L159.75,120.86L159.70,120.91L159.43,121.10L158.82,121.42L158.44,121.57L157.95,121.70L157.15,121.84"/><path d="M158.18,121.36L158.42,121.22L158.54,121.08"/><path d="M158.27,121.29L158.40,121.03L158.38,120.93L158.25,120.80L158.05,120.69"/><path d="M158.55,121.00L158.40,120.85L158.14,120.72"/><path d="M158.35,121.14L158.35,120.90"/><path d="M158.54,121.12L158.53,120.99"/></g></g><g id="Actor_.5"><g style="stroke:#000000;stroke-width:0.123"><path d="M272.73,52.56L273.34,51.96L273.88,51.01L274.02,50.88L274.61,49.82L274.47,49.96L274.59,49.75L273.98,50.35L273.86,50.56L273.73,50.70L273.13,51.75L273.27,51.61L272.73,52.56L274.60,53.76L275.21,53.16L273.34,51.96"/><path d="M274.33,50.25L274.28,50.22L274.42,50.08L274.00,50.82L273.87,50.95L273.33,51.90L272.93,52.30L273.46,51.36L273.59,51.44"/><path d="M273.13,51.75L273.18,51.78"/><path d="M273.46,51.36L273.32,51.49L273.74,50.75L273.87,50.62L274.05,50.73"/><path d="M273.74,50.75L273.94,50.88"/><path d="M273.88,51.01L275.75,52.21L275.88,52.08L276.47,51.02L274.61,49.82"/><path d="M275.88,52.08L274.02,50.88"/><path d="M274.28,50.22L274.40,50.01L273.99,50.41L274.17,50.52"/><path d="M273.99,50.41L273.87,50.62"/><path d="M275.23,53.12L276.94,54.22L276.53,54.62L274.83,53.53"/><path d="M275.21,53.16L275.75,52.21"/><path d="M276.43,50.99L276.46,50.95L274.59,49.75"/><path d="M276.94,54.22L277.47,53.27L275.78,52.18"/><path d="M277.47,53.27L277.61,53.14L275.90,52.04"/><path d="M277.61,53.14L278.06,52.34L276.35,51.24"/></g></g><g id="Actor_.6"><g style="stroke:#000000;stroke-width:0.123"><path d="M268.54,56.41L268.59,56.45L268.72,56.48"/><path d="M269.22,55.96L269.31,55.78L269.37,55.53"/><path d="M269.10,56.18L269.18,56.07L269.27,55.87"/><path d="M269.10,56.20L269.16,56.10"/><path d="M268.83,55.15L268.76,55.58"/><path d="M268.77,55.53L268.72,55.69"/><path d="M268.70,55.74L268.73,55.67"/><path d="M273.40,51.27L271.87,51.43L271.03,51.56L270.66,51.64L270.39,51.72L270.12,51.83L269.98,51.91L269.65,52.13L269.47,52.31L269.31,52.51L269.10,52.89L268.99,53.18L268.93,53.48L268.87,53.99L268.84,54.94L268.80,55.36"/><path d="M269.35,55.65L269.42,55.21L269.44,54.75L269.44,54.93"/><path d="M269.44,54.74L269.44,54.75L269.47,54.02L269.52,53.54L269.57,53.31"/><path d="M269.81,52.80L269.65,53.10L269.57,53.33"/><path d="M270.57,52.26L270.26,52.40L270.04,52.56L269.80,52.81"/><path d="M270.56,52.27L271.12,52.12"/><path d="M273.12,51.87L271.90,52.00L271.11,52.12"/><path d="M277.37,53.88L277.19,53.78"/><path d="M277.25,53.81L277.62,54.02L277.92,54.15L278.08,54.18L278.31,54.15L278.39,54.10L278.51,53.97L278.55,53.87L278.55,53.72L278.43,53.45L278.25,53.23L277.80,52.79"/><path d="M278.17,53.60L277.92,53.50L277.49,53.26"/><path d="M278.16,53.59L278.25,53.59"/><path d="M278.22,53.60L278.11,53.58"/></g></g><g id="Actor_.7"><g style="stroke:#000000;stroke-width:0.123"><path d="M251.66,47.96L250.71,48.61L249.74,48.46L249.71,48.19L248.56,48.01L248.49,47.18L249.49,46.48"/><path d="M248.56,48.01L249.56,47.31"/><path d="M249.71,48.19L250.66,47.53"/><path d="M249.74,48.46L250.75,47.77"/><path d="M252.04,46.93L252.01,46.66L250.85,46.47L249.56,47.36L250.73,47.54L250.75,47.82L252.04,46.93L253.33,47.14L253.31,46.86L253.57,46.90L253.33,47.06"/><path d="M249.56,47.36L249.46,46.11L250.74,45.22L250.85,46.47"/><path d="M250.75,47.82L252.04,48.02L253.33,47.14"/><path d="M250.73,47.54L252.01,46.66"/><path d="M253.10,46.62L253.35,46.66L253.28,45.82L252.33,46.48L252.08,46.44L253.02,45.78L253.00,45.51L252.09,45.36L252.12,45.64L250.95,45.46L251.02,46.29L252.19,46.48L252.21,46.76L253.12,46.90L253.10,46.62L252.77,46.84"/><path d="M252.12,45.64L251.17,46.30L251.02,46.27"/><path d="M250.74,45.22L251.91,45.40L251.88,45.12L251.56,45.35"/><path d="M251.47,46.36L251.46,46.17L251.62,46.20L251.47,46.31"/><path d="M251.64,46.39L251.62,46.20"/><path d="M251.50,46.07L252.05,46.16L252.08,46.44"/><path d="M251.88,45.12L253.17,45.33L253.20,45.61L253.46,45.65L253.57,46.90"/><path d="M252.36,46.78L252.34,46.51L253.11,45.97L253.17,46.63"/><path d="M252.34,46.51L252.33,46.48"/><path d="M253.12,46.13L252.35,46.66"/><path d="M252.05,46.16L253.00,45.51"/><path d="M253.28,45.82L253.02,45.78"/></g></g><g id="Actor_.8"><g style="stroke:#000000;stroke-width:0.123"><path d="M246.69,49.38L240.78,53.28"/><path d="M249.71,48.19L246.99,49.87L240.83,53.93"/><path d="M240.76,53.12L246.36,49.43L248.59,48.01"/></g></g><g id="Actor_.9"><g style="stroke:#000000;stroke-width:0.123"><path d="M140.65,130.65L138.70,131.88"/><path d="M138.80,131.87L140.73,130.66"/><path d="M171.94,111.03L175.15,109.01"/><path d="M175.05,108.99L171.81,111.03"/><path d="M230.09,74.44L224.21,78.14"/><path d="M224.04,78.14L229.97,74.41"/><path d="M238.24,52.58L238.41,54.44"/><path d="M238.50,54.38L238.50,52.61L240.63,52.80L240.11,44.82L241.83,45.19L240.23,46.33"/><path d="M238.35,52.50L240.53,52.65L239.94,44.83L239.77,44.88"/><path d="M238.50,54.29L240.54,52.89"/><path d="M240.00,44.73L241.83,45.19"/><path d="M244.54,55.22L240.86,54.42"/><path d="M240.85,54.29L245.21,55.32"/><path d="M257.54,57.17L265.87,51.93L257.39,57.14"/><path d="M265.87,51.93L267.60,52.64L268.01,56.82L268.28,57.13L270.18,57.45L270.39,59.16L270.21,59.27"/><path d="M265.88,51.80L267.65,52.48L268.13,56.84L270.20,57.32L270.39,59.16"/><path d="M270.33,59.28L270.51,59.18"/></g></g><g id="Actor_.10"><g style="stroke:#000000;stroke-width:0.123"><path d="M240.86,54.42L244.43,55.19L244.54,55.22"/></g></g><g id="Actor_.11"><g style="stroke:#000000;stroke-width:0.123"><path d="M194.69,92.34L194.74,92.13"/><path d="M194.69,92.35L194.69,92.42"/><path d="M195.33,91.55L195.15,91.67L194.96,91.83"/><path d="M194.74,92.13L194.81,92.01L194.95,91.84"/><path d="M195.85,91.28L195.33,91.55"/><path d="M195.85,91.28L196.51,91.04"/><path d="M197.28,90.83L196.52,91.03"/><path d="M198.15,90.65L197.29,90.82"/><path d="M199.07,90.53L198.15,90.65"/><path d="M200.04,90.45L199.08,90.53"/><path d="M200.04,90.45L201.06,90.42L201.95,90.45"/><path d="M202.83,90.53L201.95,90.45"/><path d="M203.63,90.65L202.84,90.53"/><path d="M204.33,90.83L203.64,90.65"/><path d="M204.90,91.04L204.34,90.83"/><path d="M205.58,91.55L205.50,91.44L205.32,91.28"/><path d="M204.90,91.04L205.10,91.14L205.32,91.28"/><path d="M205.68,91.83L205.66,91.70L205.59,91.55"/></g></g><g id="Actor_.12"><g style="stroke:#000000;stroke-width:0.123"><path d="M194.84,93.02L194.70,92.69L194.69,92.42L194.74,92.13L194.95,91.84L195.32,91.55L195.85,91.28L196.52,91.03L197.29,90.82L198.14,90.65L199.07,90.53L200.05,90.45L201.01,90.42L201.95,90.45L202.83,90.53L203.65,90.66L204.33,90.83L204.75,90.98L204.90,91.04L205.32,91.28L205.58,91.55L205.68,91.84L205.69,92.10L205.61,92.45L205.30,92.81L204.87,93.10L204.12,93.50L203.56,93.74L202.87,93.95L202.08,94.12L201.22,94.24L200.25,94.31L199.43,94.33L198.56,94.30L197.76,94.22L197.04,94.08L196.45,93.91L195.68,93.59L195.20,93.35L194.84,93.02"/><path d="M196.84,92.68L196.87,93.45L196.99,93.63L196.80,93.55L196.53,93.34L196.43,93.13"/><path d="M196.42,93.16L196.47,92.95"/><path d="M196.46,92.96L196.68,92.72L197.06,92.49L197.57,92.28"/><path d="M202.82,92.03L203.16,92.13L203.51,92.30L203.74,92.50L203.82,92.71L203.79,92.88L203.67,93.04L203.58,93.24L203.21,93.52L202.85,93.70L202.23,93.93L201.69,94.06L201.19,94.12L200.79,94.15L200.27,94.14L199.79,94.21L198.94,94.23L198.42,94.16L197.82,94.00L197.41,93.86L196.99,93.63"/><path d="M196.87,93.45L196.69,93.28L196.61,93.09L196.64,92.92L196.75,92.75L196.95,92.58L197.34,92.37"/><path d="M197.11,93.70L197.81,93.91L198.48,94.04L199.14,94.11L200.20,94.11L200.05,93.84L199.78,93.26L199.41,92.25L199.34,91.92"/><path d="M197.65,92.26L197.43,92.33"/><path d="M197.55,92.29L198.19,92.11L198.92,91.97L199.71,91.87L200.53,91.83L201.33,91.84L202.08,91.90L202.75,92.01"/><path d="M203.58,93.24L203.46,93.32L202.67,93.65L202.01,93.85L201.35,93.99L200.33,94.10L200.41,93.82L200.55,93.21L200.73,92.16L200.75,91.83"/><path d="M202.73,92.01L203.27,92.16L203.68,92.34L203.94,92.56"/><path d="M203.67,93.04L203.64,92.42"/><path d="M204.01,92.73L203.95,92.94L203.72,93.18L203.43,93.35"/><path d="M204.02,92.76L203.94,92.56"/></g></g><g id="Actor_1.0"><g style="stroke:#000000;stroke-width:0.123"><path d="M38.13,113.33L38.27,112.80"/><path d="M73.10,30.80L38.11,113.46L39.69,113.59L75.65,31.50L73.09,31.03L73.02,30.79L73.23,30.00L38.26,112.81"/><path d="M38.11,113.46L73.01,31.02"/><path d="M73.11,30.91L73.26,30.83L74.25,31.08L74.79,30.75L75.61,30.15L75.65,29.26L75.11,30.52"/><path d="M75.64,29.18L74.65,29.12L73.92,29.45L73.43,30.00L73.24,30.93"/><path d="M73.23,30.00L73.49,29.62L74.18,29.11L75.00,28.92L75.75,28.97L75.69,31.42"/><path d="M75.00,30.76L74.51,31.12L75.56,31.27L75.60,30.32L75.00,30.76"/><path d="M75.65,29.26L75.53,29.25L74.92,30.65"/><path d="M74.88,30.68L75.53,29.25"/><path d="M75.21,31.22L75.60,30.32"/><path d="M75.55,29.17L75.66,29.03L75.65,29.15"/><path d="M75.66,29.03L75.56,29.02L75.66,29.05"/><path d="M75.56,29.02L75.54,29.03"/></g></g><g id="Actor_.13"><g style="stroke:#000000;stroke-width:0.123"><path d="M120.36,132.35L120.34,134.36"/><path d="M240.14,52.59L239.54,44.85L239.92,44.91L240.51,52.50L240.12,52.61"/><path d="M240.53,52.65L240.36,52.76"/></g></g><g id="Actor_.14"><g style="stroke:#000000;stroke-width:0.123"><path d="M268.85,54.64L268.45,54.52L268.45,54.52L268.44,54.54L268.45,54.59L268.39,54.58L268.37,54.58L268.37,54.60L268.37,54.66L268.39,54.70L268.42,54.72L268.46,54.72L268.46,54.67L268.47,54.66L268.48,54.66L268.85,54.77"/><path d="M268.46,54.72L268.45,54.72"/><path d="M268.45,54.52L268.44,54.53"/><path d="M268.37,54.58L268.36,54.59"/><path d="M268.45,54.59L268.44,54.59"/><path d="M270.20,56.70L270.20,56.70L270.21,56.76L270.22,56.78L270.23,56.79L270.31,56.80L270.32,56.80L270.33,56.79L270.32,56.71L270.37,56.72L270.37,56.72L270.38,56.71L270.27,56.20L270.05,55.72L269.73,55.28L269.44,55.00"/><path d="M269.43,55.14L269.66,55.36L269.95,55.76L270.15,56.21L270.26,56.68L270.26,56.69L270.25,56.70L270.20,56.70"/><path d="M270.32,56.80L270.31,56.80"/><path d="M270.37,56.72L270.37,56.72"/></g></g><g id="Actor_.15"><g style="stroke:#000000;stroke-width:0.123"><path d="M142.72,131.33L141.15,131.95L138.39,132.20L135.01,131.97L133.46,131.37"/><path d="M142.75,131.37L141.28,132.00L138.39,132.28L135.01,132.05L133.43,131.40"/><path d="M165.82,110.25L166.50,110.76L167.98,111.18L171.43,111.42L175.50,110.91L176.79,110.39L177.24,109.94"/><path d="M165.80,110.28L166.19,110.69L167.42,111.16L171.44,111.52L175.52,111.00L176.79,110.49L177.26,109.99"/><path d="M232.18,75.80L231.55,76.74L229.86,77.66L227.41,78.35L224.55,78.72L221.70,78.72L219.29,78.35L217.65,77.65L217.10,76.93"/><path d="M232.15,75.75L231.54,76.62L229.85,77.54L227.40,78.23L224.54,78.60L221.70,78.60L219.28,78.23L217.65,77.53L217.11,76.89"/><path d="M238.40,54.60L238.23,52.44L238.50,54.51L270.40,59.29L270.32,57.31L270.63,59.20L270.53,59.41L270.12,59.38L238.40,54.60"/><path d="M270.48,59.44L270.53,59.41"/><path d="M270.32,57.31L270.23,57.36"/></g></g><g id="Actor_.16"><g style="stroke:#000000;stroke-width:0.123"><path d="M123.57,137.16L133.75,137.82L263.25,58.85L246.00,56.18L123.57,137.16"/><path d="M142.75,131.37L141.31,132.00L138.47,132.28L135.45,132.12L133.45,131.45L133.60,131.82L134.51,132.18L137.83,132.52L141.75,132.13L142.62,131.76L142.75,131.35L141.29,130.75L137.71,130.50L134.82,130.79L133.43,131.41"/><path d="M166.45,111.12L169.27,111.73L173.08,111.71L176.22,111.06L177.17,110.47L177.30,110.06L176.28,109.30L174.56,108.91L169.95,108.85L167.27,109.35L166.14,109.87L165.78,110.54L166.45,111.12"/><path d="M177.27,110.00L176.62,110.59L175.13,111.10L171.53,111.52L167.35,111.14L166.12,110.65L165.80,110.28"/><path d="M217.12,77.32L217.44,76.28L218.97,75.28L221.46,74.49L224.51,74.05L227.59,74.03L230.16,74.45L231.75,75.20L232.21,76.22L231.37,77.26L229.92,78.00L227.71,78.65L224.74,79.07L221.77,79.08L219.25,78.69L217.67,78.00L217.12,77.32"/><path d="M232.18,75.81L231.34,76.90L229.50,77.79L224.72,78.71L221.74,78.72L219.23,78.33L217.57,77.59L217.10,76.96"/><path d="M245.93,55.78L245.98,56.18"/><path d="M245.95,55.77L263.25,58.36L263.37,58.77"/></g></g><g id="Actor_.17"><g style="stroke:#000000;stroke-width:0.123"><path d="M260.52,31.53L260.45,30.88L260.55,30.81L260.61,31.50L260.16,31.62L258.47,32.83L259.25,41.20L260.95,40.03L261.23,39.95L261.41,39.95L261.48,40.68L262.15,40.80L262.14,40.98L262.03,41.19L260.28,42.38L287.02,46.78L288.89,45.65L289.01,45.45L289.03,45.27L289.67,45.38L289.56,45.44L289.03,45.35"/><path d="M261.41,39.95L261.11,40.04L259.38,41.22L259.25,41.20"/><path d="M259.37,32.19L259.34,32.04L260.49,31.21"/><path d="M259.34,32.18L260.50,31.35"/><path d="M262.15,40.80L262.06,40.86L262.00,41.05L260.27,42.23L260.28,42.38"/><path d="M260.55,30.81L261.22,30.97L261.13,30.80L260.92,30.90"/><path d="M262.06,40.86L261.38,40.75L261.48,40.68"/><path d="M261.38,40.75L261.31,40.01"/><path d="M261.13,30.80L264.87,31.70"/><path d="M269.74,34.67L267.75,34.19L267.73,34.05L269.46,32.86L269.53,32.83L269.63,32.87L270.05,36.69L265.39,35.89L265.00,31.88L264.89,31.70"/><path d="M267.74,34.19L269.46,33.00L269.54,33.00L269.94,36.67"/><path d="M269.57,32.83L275.21,34.19L275.31,34.37L275.97,34.53L276.63,34.77L276.55,34.60L276.37,34.68"/><path d="M276.55,34.60L288.25,38.88L288.33,39.05L288.97,39.28L289.05,39.99L289.17,40.06L289.71,44.73L289.61,44.85"/><path d="M289.67,45.38L289.58,44.66L289.71,44.73"/></g></g><g id="Actor_.18"><g style="stroke:#000000;stroke-width:0.123"><path d="M239.52,44.61L240.00,44.26L240.01,44.71"/><path d="M240.00,44.26L249.48,46.39"/><path d="M241.81,45.20L249.01,46.81"/><path d="M265.71,51.91L254.86,48.13L252.62,47.62"/><path d="M253.20,47.23L254.90,47.62L267.36,51.96L267.34,52.31"/></g></g><g id="Actor_.19"><g style="stroke:#000000;stroke-width:0.123"><path d="M126.69,125.09L236.95,43.88L126.75,125.05L128.09,125.19L128.25,126.71L239.71,47.00L128.16,126.71"/><path d="M236.96,44.01L239.25,44.38L239.58,46.98"/><path d="M236.95,43.88L239.37,44.30L239.71,47.00"/></g></g><g id="Actor_.20"><g style="stroke:#000000;stroke-width:0.123"><path d="M269.43,56.68L269.45,56.67L270.15,56.78L270.14,56.69L270.20,56.70L270.21,56.79L270.33,56.81L270.32,56.71L270.38,56.72L270.40,56.92L268.47,56.63L268.26,54.49L268.44,54.52L268.45,54.59L268.36,54.58L268.38,54.71L268.46,54.72L268.47,54.79L268.38,54.78L268.46,55.55L268.72,55.84"/><path d="M268.47,56.63L268.45,56.64"/><path d="M268.75,56.02L268.47,55.70L268.56,56.54L269.31,56.65L268.90,56.19"/><path d="M268.47,55.70L268.46,55.71"/><path d="M268.47,54.79L268.39,54.84"/><path d="M268.45,54.59L268.44,54.59"/><path d="M269.45,56.67L269.03,56.20"/><path d="M270.40,56.92L270.37,56.94"/><path d="M270.14,56.69L270.02,56.76"/></g></g><g id="Actor_.21"><g style="stroke:#000000;stroke-width:0.123"><path d="M138.00,132.20L135.20,132.00L133.46,131.36"/><path d="M142.54,131.17L141.07,131.65L138.15,131.89L135.20,131.68L133.64,131.21"/><path d="M138.59,132.20L138.26,132.20"/><path d="M138.89,132.19L141.54,131.87L142.72,131.33"/><path d="M140.19,131.77L141.68,130.84"/><path d="M165.82,110.24L166.27,110.64L167.63,111.11L171.00,111.43"/><path d="M177.09,109.75L175.50,110.52L171.91,111.03L168.23,110.84L165.95,110.03"/><path d="M171.75,111.41L171.27,111.42"/><path d="M172.06,111.40L175.43,110.93L176.79,110.39L177.24,109.95"/><path d="M173.67,110.88L176.22,109.28"/><path d="M222.97,78.64L219.00,78.14L217.77,77.61L217.12,76.87"/><path d="M232.03,75.50L231.05,76.46L229.76,77.08L225.19,78.07L220.36,77.97L218.25,77.40L217.20,76.62"/><path d="M223.36,78.64L223.91,78.63"/><path d="M224.25,78.62L227.20,78.27L229.79,77.56L231.56,76.60L232.15,75.75"/><path d="M231.31,74.91L226.52,77.89"/><path d="M240.49,54.81L240.26,53.08"/><path d="M259.31,57.43L266.68,52.83L267.23,58.50L267.00,58.59L241.01,54.69L240.08,45.29"/><path d="M266.68,52.83L267.17,52.91L267.65,58.88"/></g></g><g id="Actor_.22"><g style="stroke:#000000;stroke-width:0.123"><path d="M118.89,130.82L126.69,125.09L126.69,125.01L118.90,130.75L118.89,130.82L120.22,130.92L120.27,130.93L120.30,131.00L120.28,132.35L120.36,132.35L128.24,126.71L128.16,126.71L128.17,125.28"/><path d="M128.16,126.71L120.28,132.35"/><path d="M126.69,125.09L128.09,125.19"/><path d="M128.15,125.22L128.15,125.22"/></g></g><g id="Actor_.23"><g style="stroke:#000000;stroke-width:0.123"><path d="M239.91,51.20L239.97,52.02L239.96,52.09L239.92,52.13L239.85,52.14L239.09,52.02L239.10,52.16L239.87,52.28L239.99,52.26L240.08,52.17L240.10,52.04L240.04,51.22L239.91,51.20L238.63,52.09"/><path d="M238.93,52.13L239.09,52.02"/><path d="M239.99,52.26L239.95,52.29"/></g></g><g id="Actor_.24"><g style="stroke:#000000;stroke-width:0.123"><path d="M268.50,56.90L268.09,52.71L267.72,52.65L268.13,56.84L268.50,56.90L268.32,57.00"/></g></g><g id="Actor_.25"><g style="stroke:#000000;stroke-width:0.123"><path d="M118.91,136.50L119.20,136.88L123.56,137.16L245.84,56.25L238.17,54.94L237.86,54.28L237.74,52.59L237.95,52.06L119.07,135.25L118.91,136.50"/><path d="M133.77,137.82L138.26,138.00L270.75,59.85L263.40,58.78L133.77,137.80"/><path d="M237.95,52.06L240.10,52.31L240.13,52.72L238.23,52.44L238.31,54.58L245.92,55.76L245.96,56.17"/><path d="M263.40,58.78L263.34,58.39"/><path d="M263.36,58.37L270.61,59.42L270.45,57.46L268.53,57.03L268.47,56.65"/><path d="M268.50,56.63L270.23,56.90L270.72,57.24L270.99,59.25L270.81,59.81"/><path d="M268.53,57.03L268.51,57.05"/></g></g><g id="Actor_.26"><g style="stroke:#000000;stroke-width:0.123"><path d="M47.84,19.37L47.80,19.25L47.55,19.08L47.50,18.96L47.31,18.84L47.36,18.96L46.88,18.66L47.04,19.08L47.21,18.87"/><path d="M47.82,19.12L49.34,17.22L48.22,16.50L46.71,18.40L47.82,19.12L47.88,19.28L49.39,17.38L50.72,18.24L49.21,20.14L49.38,20.61L50.89,18.72L50.72,18.24"/><path d="M47.64,19.61L47.00,19.19L46.71,18.40"/><path d="M47.04,19.08L47.51,19.38L47.56,19.51L47.66,19.57"/><path d="M47.56,19.51L47.78,19.24"/><path d="M47.77,19.40L47.74,19.32L47.80,19.25"/><path d="M47.74,19.32L47.82,19.37"/><path d="M47.36,18.96L47.41,18.90"/><path d="M47.88,19.28L49.21,20.14"/><path d="M47.51,19.38L47.68,19.17"/><path d="M49.59,14.35L49.42,14.24L47.80,16.26L47.85,16.40L48.07,16.54L48.11,16.64"/><path d="M47.80,16.26L48.10,16.45L48.04,16.29L49.50,17.24L49.52,17.25L49.57,17.41L51.19,15.38L51.13,15.22L49.52,17.25"/><path d="M48.33,19.87L48.34,19.89L48.57,20.04L48.55,19.99L48.81,20.15L48.91,20.02"/><path d="M48.65,19.86L48.55,19.99"/><path d="M48.24,19.60L48.23,19.58L48.98,20.06L49.03,20.20L49.19,20.31L49.23,20.42L49.07,20.32L49.12,20.26"/><path d="M48.42,19.71L48.40,19.74"/><path d="M49.38,20.61L48.31,19.92"/><path d="M48.34,19.89L48.47,19.73"/><path d="M48.04,16.29L49.66,14.27L51.13,15.22"/><path d="M48.81,20.15L48.83,20.21L49.09,20.37L49.07,20.32"/><path d="M48.83,20.21L48.95,20.05"/><path d="M49.39,17.38L49.34,17.22"/><path d="M49.57,17.41L50.90,18.26L52.51,16.23L52.76,16.96L51.15,18.98L50.84,18.78"/><path d="M50.90,18.26L51.15,18.98"/><path d="M51.19,15.38L52.51,16.23"/></g></g><g id="Actor_.27"><g style="stroke:#000000;stroke-width:0.123"><path d="M40.26,21.10L40.33,21.42L40.28,21.55L40.16,21.67L39.99,21.72L39.78,21.67L39.75,21.63"/><path d="M39.85,20.40L39.67,20.56L39.58,20.70L39.54,20.91L39.53,21.16L39.60,21.39"/><path d="M40.16,21.07L40.25,21.04L40.13,21.17L40.14,21.16"/><path d="M40.25,21.04L40.21,21.09"/><path d="M40.25,21.04L40.42,20.99L40.53,20.99"/><path d="M40.26,21.16L40.26,21.04"/><path d="M47.45,19.94L47.79,19.37L47.42,19.97L47.19,20.21L46.94,20.42L46.63,20.59L46.30,20.70L45.94,20.77L45.50,20.79L44.76,20.77L44.25,20.72L42.87,20.54L41.75,20.37L40.97,20.28L40.50,20.26L40.28,20.28L39.86,20.40"/><path d="M40.52,20.99L40.98,21.00L41.74,21.09L44.02,21.42L44.74,21.50L45.56,21.52L46.03,21.49L46.53,21.40"/><path d="M46.98,21.25L47.37,21.03L47.72,20.74L48.02,20.39L48.40,19.75L48.39,19.68"/><path d="M46.98,21.25L46.54,21.40"/><path d="M47.79,19.37L47.90,19.38L47.97,19.40"/></g></g><g id="Actor_.28"><g style="stroke:#000000;stroke-width:0.123"><path d="M90.74,126.69L90.44,126.60"/><path d="M90.45,126.16L91.02,126.35L94.67,125.28"/><path d="M162.50,61.03L162.64,60.95L94.94,125.61L91.20,126.75L90.76,126.70"/><path d="M90.81,126.49L94.59,125.44"/><path d="M94.64,125.31L119.99,100.98"/><path d="M120.52,100.36L118.33,100.72L117.61,101.13L117.75,101.41L118.25,101.28"/><path d="M117.71,100.97L117.75,100.96"/><path d="M118.17,101.30L120.75,100.83"/><path d="M120.58,100.59L120.65,100.71L120.70,100.30L120.56,100.50"/><path d="M120.65,100.71L120.97,100.74"/><path d="M120.69,100.30L120.45,100.38"/><path d="M120.70,100.30L160.93,61.64L159.46,61.91L158.50,62.51L158.16,62.37L158.19,61.93"/><path d="M120.93,100.76L120.89,100.78"/><path d="M120.99,100.73L120.96,100.76"/><path d="M120.83,100.80L120.91,100.77"/><path d="M158.13,61.98L159.21,61.26L161.93,60.63"/><path d="M158.78,62.28L158.82,62.23"/><path d="M160.99,61.58L161.42,61.50"/><path d="M162.02,60.56L162.14,60.48L162.06,60.72L162.26,61.00L162.16,60.91"/><path d="M162.30,61.01L162.42,61.05L162.26,61.00"/><path d="M162.42,61.05L162.47,61.04"/><path d="M162.14,60.89L162.07,60.76L162.14,60.88"/><path d="M162.07,60.73L162.08,60.56"/><path d="M162.66,60.93L179.34,44.96L179.21,44.18L176.00,40.33"/><path d="M162.45,61.04L162.60,60.99"/><path d="M162.56,61.03L162.34,61.18"/><path d="M162.64,60.95L162.62,60.96"/><path d="M162.14,60.48L162.06,60.61"/><path d="M162.10,60.51L178.60,44.66L175.12,40.50L174.88,39.93L176.64,39.91L178.45,38.49"/><path d="M176.81,39.62L175.25,39.52L174.88,39.93"/><path d="M175.42,40.28L175.37,40.29"/><path d="M175.44,40.28L176.87,40.41L177.24,40.27L179.10,38.85L179.11,38.02"/><path d="M176.71,39.70L178.42,38.42"/><path d="M178.53,38.74L178.18,37.58"/><path d="M178.44,38.51L178.25,37.85"/><path d="M178.62,44.69L178.60,44.66"/><path d="M178.69,44.81L178.63,44.70"/></g></g><g id="Actor_.29"><g style="stroke:#000000;stroke-width:0.123"><path d="M81.75,80.13L81.71,80.04L81.67,79.69L81.68,79.39L81.83,79.05L82.15,78.73L82.66,78.43L83.32,78.17L84.11,77.97L85.02,77.82L86.02,77.72L87.08,77.69L88.15,77.72L89.23,77.82L90.23,77.97L91.16,78.18L91.99,78.44L92.70,78.74L93.23,79.06L93.62,79.40L93.81,79.75L93.83,80.11L93.82,80.40L93.63,80.80L93.28,81.11L93.13,81.22L92.55,81.51L91.66,81.86L90.94,82.06L90.11,82.21L89.18,82.30L88.20,82.32L87.21,82.28L86.23,82.18L85.31,82.02L84.48,81.80L83.77,81.54L83.02,81.18L82.42,80.85L81.95,80.45L81.75,80.13"/><path d="M84.60,79.92L84.55,81.26L84.18,81.05L83.92,80.83L83.79,80.62L83.75,80.41L83.81,80.21L84.05,79.94L84.48,79.70L84.98,79.53"/><path d="M84.62,81.39L84.06,81.12L83.71,80.84L83.55,80.55"/><path d="M83.54,80.61L83.56,80.33L83.54,80.36"/><path d="M83.56,80.33L83.74,80.08L84.11,79.83L84.65,79.62L85.32,79.45"/><path d="M86.27,82.03L85.24,81.72L84.75,81.53L84.64,81.45L84.55,81.26"/><path d="M84.75,81.53L85.40,81.75L86.01,81.88L86.62,81.94L87.62,81.92L87.28,81.60L86.68,80.93L86.32,80.43L85.90,79.76L85.84,79.62L85.79,79.38"/><path d="M85.40,81.75L85.84,81.89"/><path d="M85.41,79.44L85.22,79.48"/><path d="M85.30,79.45L86.25,79.33L86.95,79.29L87.85,79.30L88.75,79.38L89.60,79.51L90.36,79.69"/><path d="M90.33,79.69L90.84,79.88L91.28,80.12L91.58,80.37L91.70,80.57L91.73,80.77L91.63,81.02L91.53,81.20L91.27,81.45L91.14,81.53L90.31,81.77L89.58,81.90L88.40,81.98L87.72,81.95L87.34,82.05L86.68,82.10L86.28,82.04L86.10,81.98"/><path d="M91.73,80.77L91.60,80.98L91.45,81.08L90.51,81.43L89.72,81.64L88.95,81.79L87.75,81.91L87.50,80.87L87.41,80.35L87.30,79.67L87.28,79.29"/><path d="M87.66,81.97L88.38,81.98"/><path d="M87.75,81.91L87.84,79.30"/><path d="M88.41,81.98L89.34,81.93L89.52,81.91"/><path d="M91.07,81.55L90.77,81.66L90.11,81.82L89.68,81.88"/><path d="M91.95,80.75L91.80,80.46L91.47,80.18L90.97,79.92L90.33,79.69"/><path d="M91.17,81.51L91.31,81.46L91.69,81.21L91.90,80.94L91.93,80.71"/></g></g><g id="Actor_.30"><g style="stroke:#000000;stroke-width:0.123"><path d="M39.66,21.35L39.51,21.45L14.21,127.41L39.57,21.52L39.75,21.39"/><path d="M14.24,127.44L14.78,127.00L40.61,20.99"/><path d="M39.75,21.61L39.61,21.70L39.75,21.58"/><path d="M39.57,21.52L39.51,21.45"/><path d="M39.78,21.67L39.79,21.67"/><path d="M40.44,21.03L40.38,21.15"/><path d="M40.45,21.04L40.41,21.19"/><path d="M40.28,21.03L40.26,21.05"/></g></g><g id="Actor_.31"><g style="stroke:#000000;stroke-width:0.123"><path d="M81.68,79.41L81.68,79.53"/><path d="M81.83,79.05L81.74,79.19L81.68,79.39"/><path d="M81.68,79.44L81.68,79.43"/><path d="M82.15,78.72L81.97,78.88L81.83,79.05"/><path d="M82.65,78.43L82.35,78.59L82.16,78.72"/><path d="M83.31,78.18L82.66,78.43"/><path d="M83.32,78.17L84.11,77.97"/><path d="M85.02,77.82L84.11,77.97"/><path d="M86.02,77.72L85.03,77.81"/><path d="M86.02,77.72L87.13,77.69L88.15,77.72"/><path d="M88.15,77.72L89.20,77.82"/><path d="M89.21,77.82L90.22,77.97"/><path d="M91.16,78.18L90.23,77.97"/><path d="M91.17,78.18L91.99,78.44"/><path d="M92.69,78.73L92.00,78.44"/><path d="M92.70,78.74L93.04,78.93L93.23,79.06"/><path d="M93.81,79.75L93.73,79.57L93.62,79.40L93.46,79.24L93.24,79.06"/><path d="M93.81,79.76L93.84,79.90L93.83,80.10"/><path d="M93.84,79.98L93.84,79.97"/></g></g><g id="Actor_.32"><g style="stroke:#000000;stroke-width:0.123"><path d="M101.18,100.55L101.29,100.34L101.42,100.18"/><path d="M101.17,100.93L101.15,100.79L101.18,100.56"/><path d="M101.15,100.79L101.17,99.85"/><path d="M116.59,100.94L116.60,101.00L116.61,100.06L116.54,99.78L116.35,99.51L116.16,99.34L115.92,99.16L115.48,98.91L114.51,98.53L113.31,98.21L111.91,97.96L110.38,97.80L108.79,97.73L107.20,97.75L105.68,97.87L104.84,97.99L104.05,98.14L102.92,98.44L102.38,98.65L101.90,98.88L101.55,99.13L101.38,99.31L101.21,99.57L101.17,99.84"/><path d="M101.90,99.82L102.59,99.50"/><path d="M101.89,99.82L101.63,100.00L101.42,100.18"/><path d="M102.60,99.50L103.47,99.22"/><path d="M115.40,98.88L115.41,97.74L115.36,97.50L115.25,97.32L115.00,97.07L114.64,96.83L114.34,96.67L113.81,96.46L113.18,96.27L111.98,96.00L110.60,95.82L108.85,95.72L107.39,95.75L106.55,95.81L105.75,95.91L104.56,96.14L103.95,96.32L103.44,96.52L103.02,96.74L102.81,96.89L102.64,97.05L102.53,97.22L102.46,97.47L102.43,98.62"/><path d="M102.63,97.07L102.66,96.14L102.78,95.89L102.92,95.72L103.23,95.49L103.65,95.27L104.36,95.01L105.00,94.85L105.71,94.71L106.49,94.61L107.32,94.54L108.46,94.50L109.63,94.53L110.49,94.59L111.32,94.69L112.35,94.86L110.51,94.51L109.16,94.40L108.46,94.39L107.56,94.44L105.75,94.71"/><path d="M103.48,99.22L104.53,98.99"/><path d="M105.73,98.82L104.54,98.99"/><path d="M104.90,94.87L104.94,92.86L105.02,92.65L105.22,92.45L105.52,92.27L105.93,92.11L106.79,91.89L107.83,91.76L108.97,91.73L110.12,91.80L111.17,91.96L112.06,92.20L112.48,92.38L112.80,92.57L113.01,92.77L113.11,92.98L113.08,95.04"/><path d="M105.74,98.82L106.87,98.73L107.81,98.69L109.75,98.72"/><path d="M111.08,98.82L109.75,98.72"/><path d="M111.09,98.82L112.35,98.98"/><path d="M113.52,99.21L112.37,98.99"/><path d="M112.35,94.86L113.17,95.06L113.86,95.29L114.36,95.51L114.86,95.83L115.11,96.08L115.24,96.33L115.27,96.50L115.26,97.32"/><path d="M113.52,99.21L114.53,99.49"/><path d="M115.36,99.81L114.54,99.49"/><path d="M115.37,99.82L115.99,100.17"/><path d="M116.59,100.93L116.52,100.73L116.41,100.55L116.25,100.37L116.00,100.17"/><path d="M116.60,101.00L116.59,101.14"/></g></g><g id="Actor_.33"><g style="stroke:#000000;stroke-width:0.123"><path d="M179.21,37.18L178.48,37.92L178.47,37.63L177.16,37.43L177.13,36.55L177.83,35.83"/><path d="M177.16,37.43L177.88,36.68"/><path d="M178.48,37.92L179.59,38.09L180.32,37.36"/><path d="M178.47,37.63L179.18,36.91"/><path d="M181.66,36.41L180.18,36.18L180.17,35.88L178.84,35.67L177.85,36.68L179.18,36.89L179.19,37.18L180.66,37.41L181.66,36.41L181.65,36.11L181.94,36.16L180.94,37.16L180.91,37.15"/><path d="M177.85,36.68L177.81,35.36L178.80,34.34L178.84,35.67"/><path d="M180.17,35.88L179.18,36.89"/><path d="M179.19,37.18L180.18,36.18"/><path d="M179.05,35.46L179.63,35.55L180.35,34.81L180.34,34.51L181.38,34.68L181.39,34.97L180.65,35.71L180.64,35.42L179.87,35.30"/><path d="M181.16,36.11L181.42,35.85L181.43,36.15L180.39,35.99L180.38,35.69L179.05,35.49L179.02,34.60L180.35,34.81"/><path d="M178.80,34.34L180.13,34.55L180.12,34.26L179.87,34.51"/><path d="M179.97,35.63L179.96,35.42L180.15,35.45L179.97,35.63"/><path d="M180.64,36.03L180.63,35.76L180.39,35.72"/><path d="M180.15,35.45L180.16,35.66"/><path d="M180.63,35.76L180.40,35.99"/><path d="M180.65,35.71L180.95,35.76L180.96,36.08"/><path d="M180.64,35.42L181.38,34.68"/><path d="M180.12,34.26L181.59,34.49L181.60,34.78L181.89,34.83L181.94,36.16"/><path d="M180.96,36.03L181.56,35.43"/><path d="M181.42,35.85L181.71,35.90L181.68,35.02L180.95,35.76"/><path d="M180.95,35.79L181.55,35.18L181.57,35.88"/><path d="M181.39,34.97L181.68,35.02"/></g></g><g id="Actor_.34"><g style="stroke:#000000;stroke-width:0.123"><path d="M117.35,102.27L118.05,102.34L118.79,101.66L117.89,101.57L117.88,101.77L117.15,102.45L116.50,102.39L116.50,102.01"/><path d="M116.81,101.72L116.38,102.13L116.33,102.12L116.33,102.03L116.35,102.00L116.35,101.97"/><path d="M116.35,102.00L116.41,102.04L116.41,101.89"/><path d="M116.33,102.12L116.33,102.00"/><path d="M116.41,102.04L116.55,101.92"/><path d="M117.00,101.78L117.00,101.80L117.11,101.82L116.50,102.39"/><path d="M117.88,101.77L117.09,101.70L117.06,101.72L116.86,101.70L116.87,100.69L116.82,100.74L116.82,100.84L116.60,101.05"/><path d="M116.86,101.70L116.81,101.75L116.90,101.76L116.89,101.77L116.92,101.77L117.01,101.78L117.00,101.80"/><path d="M116.52,101.72L116.52,101.91L116.56,101.92L116.81,101.68"/><path d="M116.89,101.76L116.89,101.77"/><path d="M116.81,101.75L116.81,101.64L116.52,101.91"/><path d="M116.87,100.69L117.08,100.72L117.06,101.72"/><path d="M117.79,100.92L117.79,100.86L117.33,101.29"/><path d="M117.79,101.44L117.78,101.66L117.58,101.64L117.59,101.44L117.33,101.42L117.34,101.01L117.59,101.04L117.33,101.28"/><path d="M117.23,101.71L117.24,100.70L117.11,100.69L117.08,100.72"/><path d="M117.09,101.70L117.11,100.69"/><path d="M117.59,101.04L117.59,100.84L117.79,100.86"/><path d="M117.89,100.87L117.90,100.77L117.24,100.70"/><path d="M118.30,101.51L118.49,101.33L118.70,101.35L118.50,101.53"/><path d="M118.10,101.49L118.38,101.24"/><path d="M118.50,101.21L118.49,101.33"/><path d="M117.89,101.47L117.92,101.45"/><path d="M118.70,101.35L118.69,101.55L117.89,101.47L117.89,101.44"/><path d="M118.79,101.66L118.80,101.16"/></g></g><g id="Actor_.35"><g style="stroke:#000000;stroke-width:0.123"><path d="M88.19,126.21L88.18,126.53L88.23,126.48L88.23,126.52L88.27,126.48L88.27,126.43L88.32,126.39L88.33,126.06L88.19,126.21L88.32,126.21"/><path d="M88.41,126.09L88.34,126.08L88.35,125.88L88.42,125.88"/><path d="M88.34,126.08L88.33,126.09L88.41,126.10"/><path d="M88.35,125.88L88.42,125.79L88.40,126.45L88.33,126.53L88.33,126.33L88.33,126.34L88.33,126.09"/><path d="M88.31,126.63L88.42,126.51L88.44,125.69L88.33,125.81L88.33,125.98L88.18,126.14L88.16,126.63L88.31,126.47L88.31,126.63L90.30,126.77L90.44,126.62L90.36,126.62L90.39,126.58L90.26,126.57L90.25,126.59L90.25,126.51L90.23,126.50L90.22,126.59L90.20,126.59L90.20,126.49"/><path d="M88.42,126.51L90.09,126.63L90.15,126.61L90.18,126.61L90.19,126.49"/><path d="M88.41,126.33L88.33,126.33"/><path d="M90.16,126.76L90.15,126.77L88.16,126.63"/><path d="M88.23,126.48L88.27,126.48"/><path d="M88.44,125.69L90.12,125.81L90.17,125.79L90.17,125.83"/><path d="M89.47,126.38L88.56,126.32L88.57,126.31L88.84,126.31L88.91,126.32L88.81,126.33L89.47,126.37"/><path d="M88.56,126.32L88.58,125.84L88.59,125.83L88.57,126.31"/><path d="M88.91,126.32L88.92,125.84L88.86,125.83L88.59,125.83"/><path d="M88.92,125.85L89.49,125.89"/><path d="M89.48,126.43L89.50,125.78L89.49,125.79L89.47,126.44L89.48,126.43L90.27,126.49L90.25,126.50"/><path d="M89.47,126.44L90.26,126.49L90.23,126.50"/><path d="M89.50,125.78L90.29,125.84L90.29,125.75L90.27,125.77L90.27,125.84"/><path d="M90.18,126.61L90.20,126.59"/><path d="M90.15,126.61L90.15,126.49"/><path d="M90.09,126.63L90.10,126.48"/><path d="M90.22,126.59L90.25,126.59"/><path d="M90.27,126.49L90.26,126.57"/><path d="M90.39,126.58L90.42,125.76L90.29,125.75"/><path d="M90.44,126.62L90.46,125.81L90.42,125.80"/><path d="M90.27,125.77L90.25,125.77L90.25,125.83"/><path d="M90.22,125.83L90.22,125.77L90.25,125.77"/><path d="M90.12,125.81L90.12,125.83"/><path d="M90.17,125.79L90.21,125.79L90.21,125.83"/><path d="M90.21,125.79L90.22,125.77"/></g></g><g id="Actor_.36"><g style="stroke:#000000;stroke-width:0.123"><path d="M157.37,61.55L157.39,62.84L157.34,62.88L157.32,61.59L157.37,61.55L157.54,61.57L157.57,62.86L158.40,62.98L157.14,64.14L156.31,64.03L156.31,63.54"/><path d="M157.22,62.98L157.22,63.01L157.36,63.05L156.31,64.03"/><path d="M157.00,62.89L156.17,63.67L156.11,63.66L156.15,63.50L156.20,63.46L156.18,62.71L156.14,62.75L156.10,62.91L156.11,63.66"/><path d="M157.32,61.59L157.06,61.56L156.98,61.63L156.98,61.77L156.48,62.24L156.50,63.26L156.55,63.26L157.00,62.84"/><path d="M156.50,63.26L157.00,62.79L157.00,62.92L157.08,62.85L157.06,61.56"/><path d="M156.53,63.26L156.26,63.52L156.20,63.46"/><path d="M156.26,63.52L156.24,62.77L156.18,62.71"/><path d="M156.49,62.54L156.24,62.77"/><path d="M158.40,62.98L158.39,62.72L159.54,62.88L158.28,64.04L157.38,63.92"/><path d="M157.22,63.01L157.25,62.99L157.13,62.97L157.10,62.95L157.10,62.94"/><path d="M157.39,62.84L157.57,62.86"/><path d="M157.34,62.88L157.08,62.85"/><path d="M157.10,62.95L157.11,62.94L157.00,62.92"/><path d="M157.68,62.33L158.25,61.80L158.25,61.85"/><path d="M158.25,61.80L158.00,61.76L158.00,62.02L157.68,61.98L157.69,62.49L158.01,62.54L158.01,62.79L158.27,62.83L158.26,62.45"/><path d="M157.68,62.32L158.00,62.02"/><path d="M157.54,61.57L158.37,61.69L158.37,61.73"/><path d="M158.91,62.66L159.15,62.44L159.41,62.47L159.17,62.70"/><path d="M159.41,62.47L159.41,62.73L158.39,62.59L158.39,62.50"/><path d="M159.15,62.44L159.15,62.18L158.67,62.63"/><path d="M158.49,62.51L158.40,62.59"/><path d="M158.94,62.15L159.15,62.18"/><path d="M159.54,62.88L159.53,62.10L159.12,62.05"/></g></g><g id="Actor_.37"><g style="stroke:#000000;stroke-width:0.123"><path d="M61.05,112.55L61.18,112.47L61.40,112.38"/><path d="M61.04,112.55L60.92,112.64L60.83,112.74"/><path d="M60.76,112.94L60.78,112.83L60.83,112.74"/><path d="M60.76,112.93L60.76,112.92"/><path d="M61.87,112.23L61.40,112.38"/><path d="M62.46,112.10L61.88,112.22"/><path d="M62.47,112.10L63.15,112.01"/><path d="M66.36,112.01L65.53,111.95L64.76,111.93L64.00,111.95L63.16,112.01"/><path d="M67.16,112.09L66.37,112.01"/><path d="M67.91,112.22L67.17,112.10"/><path d="M67.92,112.22L68.58,112.37"/><path d="M69.15,112.54L68.59,112.37"/><path d="M70.15,113.14L70.06,113.03L69.96,112.93L69.82,112.84L69.62,112.73"/><path d="M69.62,112.73L69.16,112.54"/><path d="M70.20,113.35L70.19,113.23L70.15,113.14"/><path d="M70.21,113.32L70.21,113.32"/></g></g><g id="Actor_.38"><g style="stroke:#000000;stroke-width:0.123"><path d="M65.54,111.95L64.72,111.94L63.91,111.95L63.14,112.01L62.47,112.10L61.88,112.22L61.39,112.38L61.05,112.55L60.83,112.74L60.76,112.95L60.74,113.18L60.76,113.23L60.83,113.44L61.07,113.68L62.03,114.22L62.50,114.39L63.08,114.54L63.86,114.68"/><path d="M62.20,113.67L62.22,113.79L62.38,113.97L62.68,114.13L63.11,114.28"/><path d="M62.94,113.27L62.56,113.39L62.30,113.54L62.18,113.70"/><path d="M64.56,114.20L65.06,114.66L65.34,114.85L64.60,114.84L64.15,114.76L63.70,114.63L63.22,114.43L63.14,114.37L63.08,114.21L62.77,114.09L62.54,113.96L62.41,113.84L62.36,113.71L62.38,113.59L62.54,113.43L62.81,113.31"/><path d="M62.94,113.27L62.93,113.27"/><path d="M62.92,113.27L63.43,113.17L64.02,113.10L64.68,113.07L65.37,113.07L66.07,113.12L66.74,113.19L67.35,113.30L67.88,113.44"/><path d="M63.08,114.21L63.13,113.23"/><path d="M63.70,114.63L64.04,114.74L64.15,114.76"/><path d="M64.04,114.74L64.69,114.89L65.16,114.92L65.43,114.88L65.97,114.87L66.91,114.77L67.48,114.64L68.15,114.42L68.25,114.36L68.43,114.20L68.51,114.06L68.55,113.91L68.45,114.08L68.34,114.15L67.60,114.44L66.98,114.62L66.38,114.75L65.45,114.85L65.35,114.64L65.18,114.17L64.97,113.33L64.94,113.07"/><path d="M64.55,114.20L64.25,113.86L63.90,113.39L63.85,113.28L63.82,113.12"/><path d="M65.45,114.85L65.53,113.08"/><path d="M66.35,114.84L66.77,114.83L67.47,114.77L68.10,114.69L68.63,114.56L69.04,114.42L69.75,114.09L70.02,113.89L70.09,113.83L70.19,113.58L70.21,113.35L70.15,113.14L69.96,112.93L69.63,112.73L69.17,112.54L68.59,112.37L67.92,112.22L67.18,112.10L66.37,112.01L65.54,111.95"/><path d="M68.55,113.91L68.50,113.79L68.39,113.68L68.15,113.54"/><path d="M67.87,113.44L68.27,113.58L68.56,113.75L68.71,113.92"/><path d="M68.29,114.33L68.58,114.17L68.71,114.02"/><path d="M68.71,114.06L68.70,113.91"/></g></g><g id="Actor_.39"><g style="stroke:#000000;stroke-width:0.123"><path d="M107.08,103.79L106.65,103.76L105.51,103.58L104.49,103.35L103.64,103.07L101.94,102.22L101.41,101.78L101.18,101.40L101.16,101.32L101.18,100.56L101.42,100.18L101.89,99.82L102.58,99.50L103.46,99.22L104.53,98.99L105.72,98.82L107.03,98.72L108.39,98.68L109.75,98.72L111.08,98.82L112.37,98.99L113.52,99.21L114.53,99.49L115.38,99.82L115.99,100.17L116.25,100.40L116.41,100.55L116.59,100.93L116.59,101.31L116.51,101.77L116.22,102.14L116.09,102.25L115.52,102.60L114.39,103.13L113.62,103.40L112.67,103.62L111.58,103.78L110.38,103.88L109.14,103.91L107.43,103.86L106.88,103.76L106.37,103.61L104.94,103.11L104.80,103.01L104.68,102.76L104.71,101.13"/><path d="M104.68,102.76L104.25,102.53L103.95,102.29L103.81,102.07L103.80,101.84L103.91,101.62L104.27,101.33L104.78,101.10"/><path d="M104.75,102.91L104.07,102.60L103.68,102.30L103.53,102.01"/><path d="M103.51,102.06L103.58,101.79"/><path d="M103.56,101.80L103.86,101.50L104.39,101.23L105.10,101.00"/><path d="M105.06,101.01L105.13,100.99"/><path d="M105.07,101.00L105.98,100.82L107.01,100.69L108.36,100.64L109.28,100.65L110.41,100.73L111.47,100.87L112.41,101.07"/><path d="M106.61,100.74L106.66,101.02L106.74,101.20L107.22,102.00L107.65,102.60L108.34,103.39L108.72,103.74L107.41,103.74L106.60,103.62L105.80,103.43"/><path d="M113.08,103.10L113.58,102.75L113.08,103.10L112.06,103.45L111.16,103.65L109.70,103.79L108.86,103.78L108.34,103.87L107.97,103.87"/><path d="M108.53,100.64L108.54,101.09L108.71,102.54L108.91,103.73L110.42,103.57L111.39,103.37L112.39,103.08L113.57,102.61L113.75,102.49L113.91,102.22L113.62,102.72L113.58,102.75L113.62,102.72"/><path d="M108.91,103.73L108.96,100.64"/><path d="M114.23,102.22L114.09,101.90L113.72,101.59L113.14,101.31L112.40,101.07"/><path d="M113.91,102.22L113.91,102.00L113.80,101.78L113.47,101.50L112.98,101.26"/><path d="M114.19,102.13L114.11,102.40L113.78,102.69L113.40,102.88"/></g></g><g id="Actor_2.0"><g style="stroke:#000000;stroke-width:0.123"><path d="M19.07,142.98L19.12,142.73"/><path d="M19.10,142.78L29.54,112.37L29.49,112.63L29.53,112.69L29.54,112.65"/><path d="M29.49,112.64L29.47,112.78L19.06,143.09L29.49,112.64"/><path d="M19.06,143.09L20.24,143.15L31.08,112.91L31.19,111.41L31.04,111.40L31.08,111.54L30.76,111.50L30.50,111.55L30.05,111.79L29.73,112.17L29.59,112.63L29.63,112.70L29.54,112.71L29.62,112.72L29.64,112.66"/><path d="M29.63,112.71L29.63,112.72"/><path d="M30.85,112.31L31.10,111.59L31.06,112.14L30.27,112.77L29.68,112.72L29.69,112.66L29.64,112.66"/><path d="M29.47,112.78L31.08,112.91"/><path d="M29.54,112.37L29.79,111.90L30.22,111.56L30.75,111.40L31.03,111.40L31.04,111.45"/><path d="M30.38,112.78L31.05,112.24L31.01,112.83L30.38,112.78"/><path d="M30.75,112.39L31.03,111.59L31.10,111.59"/><path d="M30.73,112.40L31.04,111.54"/><path d="M30.85,112.82L31.05,112.24"/><path d="M31.04,111.54L31.10,111.55L31.11,111.45L31.05,111.45"/><path d="M31.11,111.45L31.11,111.46"/><path d="M31.03,111.54L31.03,111.59"/><path d="M31.10,111.52L31.09,111.54"/><path d="M31.04,111.40L31.04,111.40"/></g></g><g id="Actor_.40"><g style="stroke:#000000;stroke-width:0.123"><path d="M134.37,28.38L134.36,36.52L133.90,36.45L133.91,28.31"/><path d="M134.36,36.52L134.26,36.66"/></g></g><g id="Actor_.41"><g style="stroke:#000000;stroke-width:0.123"><path d="M61.47,125.90L61.71,125.56"/><path d="M61.75,125.58L61.55,125.87"/><path d="M79.26,100.93L78.72,101.68"/><path d="M79.30,100.96L78.82,101.63"/><path d="M97.38,33.37L98.57,31.24L98.31,31.35L95.80,30.97L95.63,31.10L95.51,33.07"/><path d="M95.58,32.95L95.41,32.92L95.47,31.08L95.64,30.84L98.40,31.17L98.66,26.10L101.01,26.00L99.12,29.61"/><path d="M95.52,30.93L95.47,31.02"/><path d="M98.57,31.24L98.74,26.31L101.04,26.15"/><path d="M98.56,26.28L98.66,26.10"/><path d="M108.37,60.06L107.14,61.79"/><path d="M108.42,60.13L107.29,61.71"/><path d="M131.39,27.91L125.34,36.40L125.33,36.25L108.60,34.82"/><path d="M125.34,36.40L109.46,34.95"/><path d="M125.33,36.25L131.29,27.89"/><path d="M133.75,28.28L133.74,36.43L134.05,36.77L136.50,37.23L136.43,39.22"/><path d="M136.53,39.09L136.69,39.11L136.68,37.32L136.53,37.04L133.95,36.57L133.91,28.31"/><path d="M136.69,39.11L136.60,39.22"/></g></g><g id="Actor_.42"><g style="stroke:#000000;stroke-width:0.123"><path d="M116.66,36.03L125.42,36.83L125.40,36.40L109.46,34.95"/><path d="M125.42,36.83L126.81,34.88L128.23,35.01"/><path d="M125.40,36.40L126.79,34.45L126.81,34.88"/><path d="M126.79,34.45L128.22,34.58L128.23,34.81"/></g></g><g id="Actor_.43"><g style="stroke:#000000;stroke-width:0.123"><path d="M62.09,125.87L61.50,126.22L60.09,126.52L57.00,126.63L53.38,126.15L51.94,125.45"/><path d="M62.12,125.91L61.73,126.21L60.59,126.53L57.00,126.71L53.38,126.24L52.27,125.83L51.91,125.49"/><path d="M79.66,101.40L79.08,101.93L77.60,102.42L75.49,102.68L73.07,102.69L69.29,102.12L67.73,101.53L67.03,100.85"/><path d="M79.67,101.46L79.12,102.00L77.59,102.52L75.48,102.79L73.06,102.79L70.68,102.53L68.69,102.04L67.39,101.40L67.01,100.89"/><path d="M108.74,60.82L108.15,61.81L106.37,62.77L103.72,63.37L100.58,63.52L97.50,63.22L94.68,62.46L92.79,61.41L92.04,60.24"/><path d="M92.06,60.16L92.79,61.27L94.69,62.33L97.42,63.07L100.50,63.38L103.72,63.23L106.37,62.64L108.15,61.67L108.74,60.75"/><path d="M136.68,37.02L136.84,37.05L136.84,39.13L136.53,39.39L95.57,33.25L95.25,32.91L95.31,30.75L95.48,30.77L95.41,32.92L95.57,33.10L136.50,39.23L136.69,39.00L136.60,37.13"/><path d="M109.05,48.53L106.69,48.10L105.32,47.56L104.38,46.87L103.99,46.15"/><path d="M115.75,46.48L115.26,47.17L114.24,47.77L112.81,48.20L110.25,48.44L108.37,48.31L105.96,47.71L104.79,47.08L104.01,46.08"/><path d="M109.50,48.56L110.00,48.58"/><path d="M115.77,46.53L115.32,47.25L114.24,47.91L112.81,48.34L110.45,48.58"/><path d="M136.80,39.28L136.70,39.41"/></g></g><g id="Actor_.44"><g style="stroke:#000000;stroke-width:0.123"><path d="M136.94,28.79L134.37,32.25"/><path d="M134.37,28.38L134.37,30.44L134.52,30.47L134.37,30.67"/><path d="M134.52,30.47L134.52,28.40"/></g></g><g id="Actor_38.0"><g style="stroke:#000000;stroke-width:0.123"><path d="M42.86,151.95L43.00,152.02L43.08,152.11L43.02,152.20L42.85,152.28L42.57,152.35L42.19,152.41L41.72,152.45L41.20,152.47L40.64,152.47L40.07,152.45L39.52,152.41L39.01,152.35L38.56,152.28L38.20,152.20L37.95,152.11L37.81,152.02L37.79,151.92L37.90,151.84L38.12,151.76L38.45,151.70L38.88,151.65L39.38,151.62L39.93,151.61L40.50,151.62L41.07,151.65L41.79,151.72"/><path d="M41.85,150.76L41.14,150.69L40.57,150.66L39.99,150.65L39.44,150.66L38.94,150.69L38.52,150.74L38.18,150.80L37.96,150.88L37.85,150.97L37.79,151.92"/><path d="M42.77,151.95L42.81,151.96L42.96,152.05L42.99,152.14L42.91,152.22L42.72,152.29L42.42,152.36L42.02,152.41L41.53,152.44L40.99,152.46L40.42,152.45L39.86,152.42L39.32,152.37L38.83,152.31L38.43,152.23L38.12,152.14L37.93,152.05L37.86,151.96L37.93,151.87L38.12,151.79L38.42,151.72L38.81,151.67L39.26,151.64L39.77,151.62L40.31,151.63L40.85,151.65L41.38,151.69L41.78,151.73"/><path d="M37.92,151.56L37.92,151.55L37.95,151.15L37.93,151.17L37.90,151.56L37.92,151.56"/><path d="M37.81,151.65L37.84,151.24L37.81,151.65"/><path d="M38.27,151.76L38.26,151.91L38.22,151.89L38.23,151.76"/><path d="M37.99,151.50L37.99,151.53L38.02,151.51L38.05,151.12L38.02,151.13L37.99,151.50"/><path d="M37.86,151.21L37.88,151.20L37.85,151.59L37.84,151.61L37.86,151.21L37.88,151.21"/><path d="M38.10,151.80L38.10,151.85L38.13,151.86L38.14,151.78"/><path d="M38.13,151.09L38.11,151.49L38.14,151.48L38.17,151.08L38.13,151.09L38.17,151.09"/><path d="M37.93,151.17L37.95,151.17"/><path d="M37.83,151.25L37.84,151.25"/><path d="M38.02,151.13L38.05,151.13"/><path d="M38.28,151.06L38.32,151.05L38.29,151.45L38.25,151.45L38.28,151.06L38.32,151.06"/><path d="M38.80,151.67L38.78,152.02L38.72,152.01L38.74,151.68"/><path d="M38.95,151.66L39.00,151.67L39.01,151.66L38.99,152.05L38.92,152.04L38.95,151.66"/><path d="M39.00,151.67L38.97,152.05"/><path d="M38.55,151.70L38.53,151.97L38.58,151.98L38.60,151.70"/><path d="M38.42,151.72L38.41,151.95L38.36,151.93L38.38,151.73"/><path d="M38.78,151.67L38.75,152.02"/><path d="M38.55,151.98L38.57,151.70"/><path d="M38.38,151.73L38.37,151.94"/><path d="M38.44,151.03L38.49,151.02L38.47,151.42L38.42,151.42L38.44,151.03L38.49,151.03"/><path d="M38.63,151.00L38.69,150.99L38.66,151.39L38.61,151.40L38.63,151.00L38.69,151.00"/><path d="M38.84,150.98L38.82,151.37L38.88,151.37L38.90,150.97L38.84,150.98L38.90,150.98"/><path d="M39.01,151.66L39.01,151.66"/><path d="M39.39,152.10L39.41,151.70L39.38,152.10L39.46,152.11L39.48,151.71L39.41,151.70"/><path d="M39.41,151.72L39.48,151.73"/><path d="M39.66,151.73L39.63,152.12L39.71,152.13L39.73,151.73L39.66,151.73L39.67,151.74L39.73,151.75"/><path d="M39.67,151.74L39.65,152.13"/><path d="M39.24,151.69L39.21,152.08L39.15,152.07L39.17,151.68L39.24,151.69L39.24,151.70L39.17,151.69"/><path d="M39.24,151.70L39.21,152.08"/><path d="M39.31,150.94L39.38,150.94L39.36,151.34L39.29,151.34L39.31,150.94L39.38,150.95"/><path d="M39.07,150.96L39.14,150.95L39.11,151.35L39.04,151.36L39.07,150.96L39.14,150.97"/><path d="M40.18,151.76L40.15,152.16L40.23,152.16L40.26,151.77L40.18,151.76L40.21,151.78L40.19,152.16"/><path d="M40.26,151.78L40.21,151.78"/><path d="M39.99,151.77L39.94,151.76L39.92,151.75L39.99,151.75L39.97,152.15L39.89,152.14L39.92,151.75"/><path d="M39.94,151.76L39.91,152.14"/><path d="M40.44,151.77L40.52,151.78L40.50,152.17L40.42,152.17L40.44,151.77L40.48,151.79L40.46,152.17"/><path d="M40.49,151.79L40.52,151.79"/><path d="M41.23,151.78L41.21,152.18L41.28,152.17L41.31,151.78L41.23,151.78L41.30,151.79L41.27,152.17"/><path d="M40.74,152.18L40.76,151.80L40.71,151.78L40.69,152.18L40.76,152.18L40.79,151.78L40.71,151.78"/><path d="M41.01,152.18L41.03,151.80L41.05,151.80"/><path d="M40.97,151.78L41.05,151.78L41.03,152.18L40.95,152.18L40.97,151.78L41.03,151.80"/><path d="M40.79,151.80L40.76,151.80"/><path d="M41.79,151.79L41.77,152.15L41.70,152.16L41.72,151.76L41.78,151.77"/><path d="M41.72,151.76L41.78,151.76"/><path d="M41.30,151.79L41.31,151.79"/><path d="M41.48,151.77L41.56,151.77L41.53,152.17L41.46,152.17L41.48,151.77L41.55,151.79"/><path d="M41.56,151.77L41.56,151.77"/><path d="M41.94,151.85L41.92,152.14L41.99,152.14L42.00,151.86"/><path d="M41.84,150.82L41.86,150.63L41.90,150.66L42.04,150.84L42.14,150.91L42.19,151.05L42.18,151.24L42.11,151.41L41.99,151.51L41.95,151.52L41.76,151.49L41.65,151.46L41.64,151.44"/><path d="M41.86,151.80L41.87,151.81L41.93,151.85L41.99,151.82L41.78,151.79L41.83,151.74L41.99,151.51"/><path d="M41.78,151.79L41.80,151.50"/><path d="M41.93,151.85L42.29,151.91L42.34,151.88L42.85,151.95L42.89,151.94L42.92,151.92L43.01,151.93L43.02,151.78"/><path d="M41.77,150.83L41.80,150.81L41.91,150.84L41.98,150.95L42.00,151.11L41.96,151.29L41.87,151.43L41.76,151.49"/><path d="M41.66,151.23L41.47,151.42L41.76,151.46L41.95,151.28L41.66,151.23L41.66,151.12L41.86,151.15L41.86,151.06L41.67,151.03L41.68,150.92L41.51,150.79L41.80,150.84L41.97,150.96L41.95,151.28"/><path d="M41.51,150.79L41.32,150.98L41.31,151.09L41.51,151.12L41.86,151.06"/><path d="M41.97,150.96L41.68,150.92"/><path d="M41.67,151.03L41.31,151.09"/><path d="M41.51,151.12L41.51,151.15"/><path d="M41.66,151.12L41.31,151.18L41.30,151.29L41.47,151.42"/><path d="M41.80,150.81L42.04,150.84"/><path d="M41.86,150.63L42.42,150.72"/><path d="M42.15,151.88L42.13,152.12L42.19,152.12L42.21,151.89"/><path d="M42.65,151.93L42.65,152.04L42.69,152.03L42.69,151.94"/><path d="M42.55,151.91L42.54,152.06L42.50,152.07L42.51,151.91"/><path d="M42.50,152.07L42.50,152.07"/><path d="M42.34,151.88L42.33,152.10L42.38,152.09L42.39,151.89"/><path d="M42.92,151.92L43.21,151.51L43.27,151.39L43.28,151.26L43.24,151.15L43.00,150.85L42.96,150.82L42.88,150.80L42.42,150.72"/><path d="M43.01,151.93L42.98,151.94L42.91,151.92"/><path d="M43.08,152.11L43.10,151.66"/><path d="M43.09,151.84L43.10,151.67"/><path d="M43.09,151.69L43.08,151.80L43.07,151.79L43.08,151.70"/><path d="M42.77,151.95L42.77,152.01L42.80,152.00L42.81,151.96"/></g></g><g id="Actor_.45"><g style="stroke:#000000;stroke-width:0.123"><path d="M94.91,30.53L41.55,130.27L41.43,131.55L41.58,131.84L46.69,132.22L105.09,35.14L95.06,33.56L94.75,33.00L94.91,30.53L95.49,30.31L97.93,30.68L97.92,31.14L95.32,30.87L95.29,33.17L105.00,34.67L105.09,35.14"/><path d="M127.47,38.08L127.50,38.49L58.29,132.94"/><path d="M58.29,132.96L63.00,133.26L63.40,133.13L137.22,39.64L136.69,39.86L127.50,38.49"/><path d="M127.50,38.03L136.79,39.38L136.84,37.20L134.39,36.68L134.36,36.27"/><path d="M134.39,36.23L136.68,36.58L137.22,36.96L137.22,39.64"/></g></g><g id="Actor_4.0"><g style="stroke:#000000;stroke-width:0.123"><path d="M104.58,23.37L104.59,22.57L104.46,22.48L105.27,21.03L105.09,21.01L104.29,22.43L104.33,22.56L104.55,22.65L104.53,23.45L104.58,23.37L105.44,23.50L105.44,23.57L106.29,22.17L106.28,22.33L140.59,27.83L139.53,29.20L105.44,23.78L106.28,22.33"/><path d="M104.53,23.45L105.39,23.58L105.44,23.50"/><path d="M104.55,22.65L104.59,22.57"/><path d="M104.28,22.47L104.40,17.25L105.21,15.76L105.09,21.01"/><path d="M104.77,16.56L104.73,16.64"/><path d="M104.68,16.72L104.73,16.56"/><path d="M105.44,23.78L105.39,23.58"/><path d="M105.27,21.03L105.38,15.79L105.21,15.76"/><path d="M105.37,16.56L105.58,16.56L105.59,16.32L106.40,14.86L106.37,14.70L105.57,16.16L105.52,16.56"/><path d="M106.29,22.17L140.59,27.67L140.59,27.83"/><path d="M106.40,14.86L121.50,14.85L121.47,14.69L106.37,14.70"/><path d="M134.90,22.27L134.92,17.88L135.01,17.62L135.99,16.20L136.00,16.36L135.02,17.77L134.96,17.96L134.95,22.28L129.23,21.34L129.25,17.34L129.30,17.16L130.24,15.75L123.17,14.94L122.27,16.38L122.23,16.62L121.40,16.52L120.58,16.53L120.60,16.29L121.50,14.85"/><path d="M122.18,16.61L122.26,16.22L123.17,14.78L123.17,14.94"/><path d="M123.17,14.78L130.25,15.57L130.26,15.72"/><path d="M135.99,16.20L140.53,16.70L140.54,16.86L136.00,16.36"/><path d="M140.54,16.86L139.53,18.26L139.48,18.50L140.25,18.58L140.29,19.35L140.42,19.35L141.52,17.91L141.68,17.93L141.73,26.91L140.70,28.26L140.53,28.35L140.32,28.36"/><path d="M139.73,28.96L140.33,29.06L140.27,29.13L139.67,29.04"/><path d="M140.33,29.06L140.32,28.28L140.52,28.25L141.57,26.89L141.52,17.91"/><path d="M141.57,26.89L141.73,26.91"/></g></g><g id="Actor_.46"><g style="stroke:#000000;stroke-width:0.123"><path d="M134.60,36.09L134.67,36.12L135.60,36.26L135.60,36.41L134.67,36.27L134.52,36.21L134.41,36.08L134.36,35.93L134.36,35.03L134.52,35.06L134.52,35.95L134.54,36.03L134.60,36.09"/></g></g><g id="Actor_.47"><g style="stroke:#000000;stroke-width:0.123"><path d="M97.92,31.05L97.96,30.99L98.09,26.21L95.84,30.36"/><path d="M97.96,30.99L98.45,31.07L98.58,26.28L98.09,26.21"/><path d="M98.39,31.17L98.45,31.07"/></g></g><g id="Actor_.48"><g style="stroke:#000000;stroke-width:0.123"><path d="M105.12,35.14L127.46,38.48L58.27,132.96L46.71,132.22L105.12,35.14L105.10,34.74"/><path d="M46.71,132.22L46.71,132.18"/><path d="M52.13,126.00L54.34,126.70L57.68,126.98L61.17,126.66L62.02,126.27L62.14,125.97L61.61,125.50L60.31,125.09L56.34,124.68L52.80,125.01L51.97,125.41L51.88,125.71L52.13,126.00"/><path d="M62.11,125.91L61.55,126.29L60.22,126.59L57.00,126.71L53.79,126.33L52.50,125.94L51.91,125.49"/><path d="M67.07,101.39L67.14,100.67L68.25,100.06L70.24,99.65L72.75,99.54L75.36,99.73L77.62,100.19L79.08,100.80L79.69,101.52L79.65,101.81L79.21,102.26L78.34,102.64L76.50,103.00L73.94,103.13L71.40,102.95L69.16,102.51L68.03,102.10L67.07,101.39"/><path d="M79.67,101.46L79.22,101.95L77.77,102.48L75.62,102.78L73.10,102.79L69.18,102.20L67.61,101.56L67.01,100.89"/><path d="M92.25,61.21L92.01,60.40L92.36,59.56L93.94,58.50L96.75,57.76L100.14,57.57L103.50,57.91L106.42,58.75L108.25,59.91L108.70,60.67L108.76,61.20L108.32,62.03L106.62,63.07L103.92,63.74L100.67,63.92L97.36,63.59L95.40,63.12L93.15,62.09L92.25,61.21"/><path d="M92.05,60.22L92.65,61.28L94.50,62.39L97.37,63.20L100.63,63.52L103.93,63.34L106.50,62.72L107.90,62.01L108.75,60.86"/><path d="M104.13,46.99L103.97,46.19L104.14,45.79L104.93,45.07L107.11,44.32L108.99,44.12L110.97,44.19L113.63,44.78L114.93,45.43L115.76,46.50L115.58,47.39L114.75,48.09L113.41,48.63L110.75,49.01L108.00,48.83L106.21,48.38L105.00,47.80L104.13,46.99"/><path d="M115.77,46.54L115.32,47.25L114.14,47.96L111.75,48.51L109.80,48.58L107.25,48.24L105.51,47.65L104.45,46.95L103.98,46.16"/><path d="M105.14,34.69L127.47,38.03L127.46,38.48"/></g></g><g id="Actor_.49"><g style="stroke:#000000;stroke-width:0.123"><path d="M57.87,126.64L54.07,126.31L52.65,125.92L51.94,125.46"/><path d="M61.92,125.69L60.00,126.19L56.68,126.27L54.09,125.97L52.13,125.29"/><path d="M58.16,126.64L58.50,126.63"/><path d="M62.09,125.87L60.97,126.37L58.83,126.62"/><path d="M74.18,102.71L71.83,102.59L69.52,102.18L67.82,101.57L67.03,100.85"/><path d="M79.53,101.19L78.63,101.72L77.48,102.03L73.55,102.29L69.54,101.77L67.84,101.16L67.17,100.64"/><path d="M75.00,102.70L74.52,102.71"/><path d="M79.65,101.39L79.05,101.94L78.08,102.30L75.36,102.69"/><path d="M84.40,79.75L84.70,79.90"/><path d="M92.06,60.17L92.89,61.36L94.97,62.44L97.91,63.15L100.98,63.39"/><path d="M108.64,60.51L107.67,61.50L105.39,62.40L102.75,62.80L100.13,62.84L97.92,62.62L94.98,61.90L93.00,60.88L92.16,59.89"/><path d="M98.41,31.51L98.49,33.54"/><path d="M98.73,26.70L99.20,26.77L99.03,33.23L99.19,33.41L132.71,38.44L132.87,38.31L132.88,28.26L128.23,34.71"/><path d="M102.02,63.37L101.42,63.39"/><path d="M102.53,63.34L105.38,62.93L106.99,62.39L108.13,61.69L108.74,60.75"/><path d="M112.61,44.48L113.66,44.92L114.44,45.59L114.61,45.95L114.45,46.66L113.11,47.53L111.75,47.85L109.96,47.96L107.48,47.61L106.17,47.11L105.42,46.50L105.18,46.09L105.30,45.37L106.05,44.74L107.21,44.31"/><path d="M105.23,45.57L105.71,46.21L106.78,46.81L108.27,47.22L109.97,47.39L111.66,47.29L113.11,46.96L114.15,46.41L114.56,45.85"/><path d="M132.88,28.26L133.50,28.36L133.37,38.76"/></g></g><g id="Actor_.50"><g style="stroke:#000000;stroke-width:0.123"><path d="M114.60,25.24L98.76,25.41L98.31,26.24"/><path d="M98.76,25.41L98.86,26.02L115.10,25.84L123.94,26.72"/></g></g><g id="Actor_38.1"><g style="stroke:#000000;stroke-width:0.123"><path d="M133.17,143.89L132.87,143.87L132.47,143.81L132.14,143.74L131.91,143.65L131.77,143.56L131.75,143.46L131.84,143.36L132.04,143.27L132.34,143.19L132.72,143.13L133.17,143.08L133.67,143.04L134.18,143.03L134.70,143.04L135.19,143.08L135.63,143.13L136.00,143.19L136.28,143.28L136.46,143.37L136.54,143.46L136.50,143.56L136.35,143.65L136.10,143.74L135.76,143.81L135.34,143.87L134.87,143.91L134.37,143.93L133.85,143.93L134.45,143.95L134.45,143.93"/><path d="M131.75,143.46L131.75,142.86L131.75,142.57L131.84,142.48L132.04,142.39L132.34,142.30L132.72,142.24L133.17,142.19L133.67,142.15L134.18,142.14L134.70,142.15L135.19,142.19L135.63,142.24L136.00,142.31L136.28,142.39L136.46,142.48L136.54,142.58L136.54,142.84"/><path d="M133.57,143.81L133.55,143.98L133.52,144.04L133.11,144.01L133.11,143.96L133.13,143.96L133.15,143.95L133.16,143.93L133.17,143.88L132.75,143.84L132.40,143.78L132.11,143.70L131.92,143.62L131.83,143.53L131.84,143.44L131.95,143.35L132.18,143.26L132.51,143.18L132.92,143.12L133.50,143.07L133.90,143.05L134.42,143.05L134.93,143.07L135.40,143.11L135.80,143.17L136.14,143.26L136.34,143.34L136.45,143.43L136.45,143.53L136.32,143.63L136.11,143.71L135.81,143.78L135.43,143.84L135.00,143.89L134.53,143.91L134.04,143.92L133.56,143.91"/><path d="M131.85,142.74L131.87,142.72L131.87,143.09L131.85,143.10L131.85,142.74"/><path d="M131.79,142.78L131.80,142.77L131.80,143.14L131.79,143.15L131.79,142.78L131.80,142.78"/><path d="M131.76,142.81L131.76,142.83L131.75,143.20L131.76,143.18L131.76,142.81"/><path d="M131.76,142.83L131.76,142.83"/><path d="M131.96,142.68L131.93,142.69L131.93,143.06L131.96,143.05L131.96,142.68"/><path d="M131.96,142.70L131.93,142.69"/><path d="M131.85,142.73L131.87,142.74"/><path d="M132.04,142.65L132.04,143.02L132.07,143.00L132.07,142.63L132.04,142.65"/><path d="M132.32,142.57L132.32,142.94L132.37,142.93L132.37,142.56L132.32,142.57L132.35,142.58L132.35,142.93"/><path d="M132.36,142.58L132.37,142.58"/><path d="M132.69,142.50L132.69,142.87L132.74,142.86L132.74,142.49L132.69,142.50L132.70,142.51L132.74,142.51"/><path d="M132.18,142.61L132.21,142.62L132.21,142.96L132.21,142.59L132.17,142.61L132.18,142.61"/><path d="M132.21,142.96L132.17,142.98L132.17,142.61"/><path d="M132.50,142.53L132.55,142.52L132.55,142.89L132.49,142.90L132.50,142.53L132.52,142.55L132.55,142.54"/><path d="M132.04,142.65L132.07,142.66"/><path d="M132.52,142.55L132.52,142.90"/><path d="M132.70,142.52L132.70,142.87"/><path d="M133.13,144.01L133.17,143.95L133.18,143.84L133.18,143.76"/><path d="M133.11,144.01L132.88,144.00L132.88,143.87"/><path d="M133.11,143.96L132.95,143.95L132.95,143.88"/><path d="M133.17,143.88L133.17,143.76"/><path d="M132.81,143.86L132.86,143.97L132.88,144.00"/><path d="M132.96,142.84L132.96,142.47L132.89,142.47L132.89,142.84L132.96,142.84"/><path d="M133.12,142.82L133.18,142.82L133.18,142.44L133.12,142.45L133.12,142.82"/><path d="M133.18,142.44L133.18,142.82"/><path d="M133.42,142.43L133.35,142.43L133.35,142.80L133.42,142.80L133.42,142.43L133.41,142.44L133.41,142.80"/><path d="M132.89,142.47L132.90,142.49L132.90,142.84"/><path d="M133.12,142.47L133.18,142.46"/><path d="M132.90,142.49L132.96,142.48"/><path d="M133.41,142.44L133.35,142.45"/><path d="M134.04,143.95L134.05,144.00L134.03,144.01L133.55,143.99"/><path d="M133.52,144.04L134.03,144.07L134.05,144.06L134.05,144.00"/><path d="M133.56,143.92L134.45,143.96L134.45,143.95"/><path d="M133.91,142.41L133.91,142.78L133.84,142.78L133.84,142.41L133.91,142.41L133.88,142.42L133.84,142.42"/><path d="M133.59,142.79L133.59,142.42L133.66,142.41L133.66,142.78L133.59,142.79"/><path d="M134.16,142.40L134.09,142.40L134.09,142.77L134.16,142.77L134.16,142.40L134.13,142.42L134.13,142.77"/><path d="M133.88,142.42L133.88,142.78"/><path d="M133.64,142.79L133.64,142.43L133.66,142.41"/><path d="M134.13,142.42L134.09,142.42"/><path d="M133.59,142.43L133.64,142.43"/><path d="M134.66,142.78L134.66,142.41L134.59,142.41L134.59,142.78L134.66,142.78"/><path d="M134.59,142.42L134.61,142.43L134.61,142.78"/><path d="M134.91,142.42L134.91,142.80L134.84,142.79L134.84,142.42L134.91,142.42L134.85,142.44L134.85,142.79"/><path d="M134.41,142.41L134.34,142.40L134.34,142.78L134.41,142.78L134.41,142.41L134.34,142.42"/><path d="M134.37,142.78L134.37,142.42"/><path d="M134.61,142.43L134.66,142.41"/><path d="M134.85,142.44L134.84,142.44"/><path d="M135.14,142.50L135.14,142.81L135.07,142.81L135.07,142.44L135.14,142.44L135.14,142.50"/><path d="M135.57,142.50L135.57,142.86L135.51,142.85L135.51,142.48L135.57,142.49L135.57,142.50"/><path d="M135.71,142.51L135.71,142.88L135.77,142.89L135.77,142.52L135.71,142.51"/><path d="M135.77,142.52L135.71,142.52"/><path d="M135.36,142.76L135.36,142.83L135.30,142.83L135.30,142.46L135.36,142.46L135.36,142.76"/><path d="M135.14,142.44L135.08,142.45L135.08,142.81"/><path d="M135.57,142.49L135.51,142.50"/><path d="M135.08,142.45L135.07,142.45"/><path d="M135.36,142.46L135.30,142.47"/><path d="M136.27,143.31L136.27,143.40L136.29,143.38L136.29,143.32"/><path d="M136.36,143.35L136.35,143.35L136.35,143.35"/><path d="M136.07,143.24L136.07,143.46L136.02,143.48L136.02,143.23"/><path d="M136.19,143.28L136.19,143.43L136.16,143.44L136.16,143.26"/><path d="M136.06,143.47L136.06,143.24"/><path d="M136.49,142.76L136.48,142.75L136.48,143.12L136.49,143.13L136.49,142.76L136.48,142.76"/><path d="M136.31,143.03L136.34,143.04L136.34,142.67L136.31,142.66L136.31,143.03"/><path d="M136.34,142.67L136.31,142.67"/><path d="M136.06,142.95L136.10,142.96L136.10,142.59L136.06,142.58L136.06,142.95"/><path d="M136.10,142.59L136.06,142.59"/><path d="M135.89,142.54L135.94,142.55L135.94,142.92L135.89,142.91L135.89,142.54"/><path d="M135.94,142.55L135.89,142.56"/><path d="M136.20,142.63L136.23,142.63L136.23,143.00L136.20,142.99L136.20,142.62L136.23,142.63"/><path d="M136.43,142.72L136.43,143.09L136.41,143.07L136.41,142.70L136.43,142.72L136.41,142.72"/><path d="M136.54,143.46L136.54,142.84L136.54,143.22L136.54,143.21"/><path d="M136.52,142.81L136.53,142.81L136.52,142.79L136.52,143.16L136.53,143.18L136.53,142.81"/><path d="M136.54,143.23L136.54,143.22"/></g></g><g id="Actor_34.0"><g style="stroke:#000000;stroke-width:0.123"><path d="M115.99,140.26L115.61,140.38L91.58,138.87L91.27,138.59L91.20,138.28L91.45,130.31L91.59,130.04L92.21,129.48L92.45,129.42L93.30,129.43"/><path d="M116.93,131.20L116.25,131.00L93.09,129.43"/><path d="M93.44,129.43L93.40,129.43"/><path d="M106.10,130.52L106.50,130.55L106.10,130.52"/><path d="M106.50,130.55L120.29,131.76"/><path d="M112.72,131.01L113.25,131.07L113.00,131.04L113.17,131.06"/><path d="M113.20,131.06L113.19,131.06"/><path d="M113.25,131.07L114.75,131.24L114.00,131.15"/><path d="M114.75,131.24L116.09,131.39"/><path d="M114.70,131.23L114.62,131.22"/><path d="M115.98,140.26L116.38,139.97"/><path d="M116.40,139.96L116.60,139.87"/><path d="M134.71,137.88L116.87,139.80L116.58,139.88"/><path d="M116.60,139.87L116.62,139.86"/><path d="M116.39,139.96L116.39,139.96"/><path d="M116.41,139.96L116.43,139.95"/><path d="M116.66,131.12L116.67,131.13"/><path d="M116.65,131.12L116.63,131.10"/><path d="M119.83,131.72L116.92,131.20"/></g></g><g id="Actor_35.0"><g style="stroke:#000000;stroke-width:0.123"><path d="M44.55,132.08L60.75,136.25L60.61,136.21"/><path d="M67.73,127.64L86.20,128.93L87.41,129.12L87.66,129.36L87.73,129.68L87.47,137.62L87.38,137.92L86.80,138.48L86.40,138.59L61.37,137.06L61.05,136.96L60.89,136.81L60.79,136.62L60.77,136.26L61.16,136.35L61.28,136.45"/><path d="M60.77,136.25L60.95,136.30"/><path d="M61.25,136.38L61.27,136.41"/><path d="M61.21,136.37L60.75,136.25"/><path d="M61.25,136.38L61.28,136.40"/><path d="M61.25,136.39L61.23,136.37"/><path d="M67.45,128.00L74.74,128.36"/></g></g><g id="Actor_5.0"><g style="stroke:#000000;stroke-width:0.123"><path d="M125.32,138.89L125.72,138.98L126.20,139.07L126.77,139.14L127.32,139.18"/><path d="M131.83,139.03L128.25,139.18L127.28,139.18"/><path d="M131.82,139.03L131.85,139.03"/><path d="M131.85,139.03L132.03,139.05"/><path d="M132.31,143.47L132.35,143.42L132.45,143.37L132.82,143.30L133.36,143.26L134.13,143.27L134.80,143.31L135.45,143.41L135.87,143.53L135.95,143.59L135.98,143.64L135.91,143.71L135.73,143.77L135.46,143.81L135.11,143.84L134.27,143.85L133.39,143.79L132.76,143.69L132.57,143.64L132.39,143.56L132.31,143.49L132.32,143.22"/><path d="M132.75,143.64L132.51,143.55L132.46,143.49L132.47,143.46L132.56,143.40L132.82,143.34L133.13,143.30L133.61,143.28L134.36,143.30L135.06,143.37L135.58,143.48L135.75,143.55L135.83,143.62L135.82,143.65L135.76,143.70L135.52,143.77L135.15,143.81L134.68,143.83L134.15,143.82L133.62,143.79L133.14,143.73L132.75,143.64"/><path d="M132.49,139.62L132.37,142.30"/><path d="M132.37,139.29L132.46,139.46L132.49,139.64"/><path d="M132.49,139.65L132.49,139.66"/><path d="M132.45,139.43L132.46,139.46"/><path d="M132.33,139.24L132.37,139.29L132.27,139.18L132.15,139.10"/><path d="M132.01,139.05L132.01,139.05"/><path d="M132.00,139.05L132.17,139.11"/><path d="M132.17,139.11L132.18,139.11"/><path d="M132.28,139.18L132.28,139.19"/><path d="M132.33,139.24L132.38,139.30"/><path d="M135.98,143.64L135.99,143.22"/><path d="M135.80,137.95L135.94,138.32L136.04,138.68L136.10,139.01L136.14,139.35L136.15,139.89L136.04,142.32"/></g></g><g id="Actor_38.2"><g style="stroke:#000000;stroke-width:0.123"><path d="M52.93,134.23L52.82,134.27L52.34,134.32L51.85,134.25L51.37,134.07L50.92,133.78L50.84,133.69"/><path d="M51.61,134.06L51.81,133.97L51.75,133.94L51.55,134.03L51.61,134.06L51.60,134.00"/><path d="M52.71,134.18L52.69,134.18L52.49,134.26L52.56,134.26L52.54,134.24"/><path d="M52.32,134.25L52.25,134.24L52.45,134.16L52.52,134.17L52.32,134.25L52.31,134.22"/><path d="M51.84,134.15L51.78,134.13L51.98,134.04L52.04,134.06L51.84,134.15L51.83,134.10"/><path d="M52.08,134.21L52.28,134.13L52.21,134.11L52.01,134.20L52.08,134.21L52.07,134.17"/><path d="M52.56,134.26L52.74,134.18"/><path d="M52.83,134.21L52.73,134.25L52.79,134.24L52.86,134.22"/><path d="M52.79,134.24L52.78,134.23"/></g></g><g id="Actor_5.1"><g style="stroke:#000000;stroke-width:0.123"><path d="M39.75,140.06L39.42,139.94L39.20,139.80L39.09,139.66L39.11,139.51L39.23,139.39L39.44,139.28L39.78,139.18L40.20,139.11L40.68,139.08L41.18,139.08L41.68,139.11L42.14,139.18L42.54,139.29L42.84,139.41L43.02,139.54L43.10,139.70L43.09,139.77L43.02,139.88L42.75,140.03L42.40,140.13L41.87,140.22L41.26,140.24L40.76,140.23L40.17,140.15L39.75,140.06"/><path d="M39.08,139.59L39.34,135.07L39.41,134.58L39.50,134.21L39.63,133.84L39.83,133.40L40.03,133.07L40.25,132.75L40.50,132.47L40.79,132.20L41.09,131.96L41.47,131.73"/><path d="M39.75,139.99L39.48,139.88L39.30,139.74L39.25,139.64L39.29,139.50L39.45,139.37L39.72,139.26L40.42,139.14L41.25,139.13L42.05,139.22L42.43,139.32L42.71,139.44L42.86,139.54L42.94,139.68L42.90,139.82L42.67,139.98L42.28,140.10L41.77,140.17L41.18,140.20L40.70,140.17L40.14,140.09L39.75,139.99"/><path d="M43.35,135.21L43.10,139.73"/><path d="M51.12,133.91L51.35,134.17L51.52,134.33L51.81,134.51L52.01,134.61L52.22,134.67L52.54,134.71L52.84,134.68L53.04,134.63L51.30,135.30L50.87,135.45L49.94,135.63L48.90,135.73L47.85,135.74L46.83,135.67L43.40,135.11L43.42,135.08"/><path d="M43.41,135.09L43.42,135.08"/><path d="M43.42,135.06L43.42,135.08"/><path d="M43.40,135.10L43.41,135.08"/><path d="M43.44,135.06L43.42,135.07"/><path d="M43.41,135.08L43.42,135.07"/><path d="M43.43,135.06L43.44,135.05"/><path d="M43.43,135.06L43.44,135.04"/><path d="M43.43,135.05L43.44,135.05"/><path d="M43.39,135.11L43.35,135.23"/><path d="M50.67,135.50L50.49,135.54"/><path d="M53.28,134.32L52.92,134.50L52.63,134.55L52.43,134.55L52.13,134.49L51.93,134.41L51.65,134.25L51.48,134.11"/><path d="M53.48,134.37L53.23,134.54L53.04,134.63"/></g></g><g><g><path style="stroke:#000000;stroke-width:0.210;stroke-dasharray:2.1 2.1" d="M46.45,135.82L47.37,134.34"/></g></g><g><g><path style="stroke:#000000;stroke-width:0.210;stroke-dasharray:2.1 2.1" d="M37.88,151.07L36.21,150.80L40.37,150.09L41.21,137.06L39.54,136.74"/></g></g><g><g><path style="stroke:#000000;stroke-width:0.210;stroke-dasharray:2.1 2.1" d="M41.77,130.85L24.18,129.71"/></g></g><g><g><path style="stroke:#000000;stroke-width:0.210;stroke-dasharray:2.1 2.1" d="M64.90,95.88L26.60,92.25"/></g></g><g><g><path style="stroke:#000000;stroke-width:0.210;stroke-dasharray:2.1 2.1" d="M253.42,52.53L274.28,38.84"/></g></g><g><g><path style="stroke:#000000;stroke-width:0.210;stroke-dasharray:2.1 2.1" d="M253.42,52.53L274.28,38.84"/></g></g><g><g><path style="stroke:#000000;stroke-width:0.210;stroke-dasharray:2.1 2.1" d="M109.93,44.22L108.93,98.35"/></g></g><g><g><path style="stroke:#000000;stroke-width:0.210;stroke-dasharray:2.1 2.1" d="M116.03,31.39L123.23,20.25"/></g></g><g id="PMI1.0"><g><path style="stroke:#000000;stroke-width:0.280" d="M66.11,38.37L67.93,38.10"/></g><g><path style="fill:#000000" d="M67.78,37.11L68.08,39.09L65.96,38.40z"/></g><g><path style="fill:#ffffff" d="M66.11,39.64L86.63,39.64L86.63,34.00L66.11,34.00z"/><path style="stroke:#000000;stroke-width:0.280;stroke-opacity:0.98" d="M66.11,39.64L86.63,39.64L86.63,34.00L66.11,34.00z"/><text xml:space="preserve" fill="#000000" stroke-width="0" x="66.82" y="38.05" font-size="3.10" opacity="1.00" font-family="Microsoft Sans Serif">8141000202</text></g></g><g id="PMI2.0"><g><path style="stroke:#000000;stroke-width:0.280" d="M20.32,121.97L23.57,122.09"/></g><g><path style="fill:#000000" d="M23.57,123.08L23.64,121.09L25.60,122.16z"/></g><g><path style="fill:#ffffff" d="M1.23,124.42L20.35,124.42L20.35,118.78L1.23,118.78z"/><path style="stroke:#000000;stroke-width:0.280;stroke-opacity:0.98" d="M1.23,124.42L20.35,124.42L20.35,118.78L1.23,118.78z"/><text xml:space="preserve" fill="#000000" stroke-width="0" x="1.94" y="122.84" font-size="3.39" opacity="1.00" font-family="Microsoft Sans Serif">1900020O1</text></g></g><g id="PMI35.0"><g><path style="stroke:#000000;stroke-width:0.280" d="M68.65,144.63L68.73,139.43"/></g><g><path style="fill:#000000" d="M69.74,139.45L67.74,139.41L68.78,137.43z"/></g><g><path style="fill:#ffffff" d="M58.36,150.27L78.87,150.27L78.87,144.63L58.36,144.63z"/><path style="stroke:#000000;stroke-width:0.280;stroke-opacity:0.98" d="M58.36,150.27L78.87,150.27L78.87,144.63L58.36,144.63z"/><text xml:space="preserve" fill="#000000" stroke-width="0" x="59.06" y="148.68" font-size="3.10" opacity="1.00" font-family="Microsoft Sans Serif">3901217048</text></g></g><g id="PMI38.0"><g><path style="stroke:#000000;stroke-width:0.280" d="M31.02,152.30L35.85,152.26"/></g><g><path style="fill:#000000" d="M35.89,153.25L35.88,151.25L37.88,152.23z"/></g><g><path style="fill:#ffffff" d="M10.54,155.18L31.05,155.18L31.05,149.54L10.54,149.54z"/><path style="stroke:#000000;stroke-width:0.280;stroke-opacity:0.98" d="M10.54,155.18L31.05,155.18L31.05,149.54L10.54,149.54z"/><text xml:space="preserve" fill="#000000" stroke-width="0" x="11.24" y="153.60" font-size="3.10" opacity="1.00" font-family="Microsoft Sans Serif">8088000034</text></g></g><g id="PMI4.0"><g><path style="stroke:#000000;stroke-width:0.280" d="M152.19,22.45L144.57,22.33"/></g><g><path style="fill:#000000" d="M144.59,21.34L144.56,23.34L142.58,22.31z"/></g><g><path style="fill:#ffffff" d="M152.19,25.42L170.77,25.42L170.77,19.78L152.19,19.78z"/><path style="stroke:#000000;stroke-width:0.280;stroke-opacity:0.98" d="M152.19,25.42L170.77,25.42L170.77,19.78L152.19,19.78z"/><text xml:space="preserve" fill="#000000" stroke-width="0" x="152.89" y="23.84" font-size="3.10" opacity="1.00" font-family="Microsoft Sans Serif">020030232</text></g></g><g id="PMI34.0"><g><path style="stroke:#000000;stroke-width:0.280" d="M116.21,148.51L116.31,142.41"/></g><g><path style="fill:#000000" d="M117.31,142.42L115.31,142.39L116.34,140.40z"/></g><g><path style="fill:#ffffff" d="M105.92,154.15L126.43,154.15L126.43,148.51L105.92,148.51z"/><path style="stroke:#000000;stroke-width:0.280;stroke-opacity:0.98" d="M105.92,154.15L126.43,154.15L126.43,148.51L105.92,148.51z"/><text xml:space="preserve" fill="#000000" stroke-width="0" x="106.63" y="152.56" font-size="3.10" opacity="1.00" font-family="Microsoft Sans Serif">3901217047</text></g></g><g id="PMI5.0"><g><path style="stroke:#000000;stroke-width:0.280" d="M31.92,134.98L36.21,135.18"/></g><g><path style="fill:#000000" d="M36.19,136.17L36.29,134.17L38.24,135.27z"/></g><g><path style="fill:#ffffff" d="M13.38,137.35L31.95,137.35L31.95,131.70L13.38,131.70z"/><path style="stroke:#000000;stroke-width:0.280;stroke-opacity:0.98" d="M13.38,137.35L31.95,137.35L31.95,131.70L13.38,131.70z"/><text xml:space="preserve" fill="#000000" stroke-width="0" x="14.09" y="135.76" font-size="3.10" opacity="1.00" font-family="Microsoft Sans Serif">720000981</text></g></g><g id="PMI16.0"><g><path style="stroke:#000000;stroke-width:0.280" d="M43.81,109.91L49.99,109.88"/></g><g><path style="fill:#000000" d="M50.03,110.88L50.02,108.88L52.02,109.86z"/></g><g><path style="fill:#ffffff" d="M24.50,112.79L43.85,112.79L43.85,107.15L24.50,107.15z"/><path style="stroke:#000000;stroke-width:0.280;stroke-opacity:0.98" d="M24.50,112.79L43.85,112.79L43.85,107.15L24.50,107.15z"/><text xml:space="preserve" fill="#000000" stroke-width="0" x="25.20" y="111.20" font-size="3.44" opacity="1.00" font-family="Microsoft Sans Serif">6A00000Y2</text></g></g><g id="PMI13.0"><g><path style="stroke:#000000;stroke-width:0.280" d="M28.18,41.49L32.15,41.30"/></g><g><path style="fill:#000000" d="M32.24,42.32L32.14,40.32L34.19,41.22z"/></g><g><path style="fill:#ffffff" d="M7.70,44.81L28.21,44.81L28.21,39.17L7.70,39.17z"/><path style="stroke:#000000;stroke-width:0.280;stroke-opacity:0.98" d="M7.70,44.81L28.21,44.81L28.21,39.17L7.70,39.17z"/><text xml:space="preserve" fill="#000000" stroke-width="0" x="8.40" y="43.22" font-size="3.10" opacity="1.00" font-family="Microsoft Sans Serif">8092008774</text></g></g><g id="PMI33.0"><g><path style="stroke:#000000;stroke-width:0.280" d="M221.34,101.46L221.46,91.32"/></g><g><path style="fill:#000000" d="M222.44,91.34L220.44,91.31L221.47,89.33z"/></g><g><path style="fill:#ffffff" d="M211.90,107.10L230.68,107.10L230.68,101.46L211.90,101.46z"/><path style="stroke:#000000;stroke-width:0.280;stroke-opacity:0.98" d="M211.90,107.10L230.68,107.10L230.68,101.46L211.90,101.46z"/><text xml:space="preserve" fill="#000000" stroke-width="0" x="212.60" y="105.52" font-size="3.44" opacity="1.00" font-family="Microsoft Sans Serif">5Z0000172</text></g></g><g id="PMI15.0"><g><path style="stroke:#000000;stroke-width:0.280" d="M108.00,111.80L107.97,106.19"/></g><g><path style="fill:#000000" d="M108.97,106.18L106.97,106.19L107.96,104.19z"/></g><g><path style="fill:#ffffff" d="M97.39,117.44L118.65,117.44L118.65,111.80L97.39,111.80z"/><path style="stroke:#000000;stroke-width:0.280;stroke-opacity:0.98" d="M97.39,117.44L118.65,117.44L118.65,111.80L97.39,111.80z"/><text xml:space="preserve" fill="#000000" stroke-width="0" x="98.10" y="115.86" font-size="3.44" opacity="1.00" font-family="Microsoft Sans Serif">CFK-22003S</text></g></g><g id="PMI12.0"><g><path style="stroke:#000000;stroke-width:0.280" d="M148.57,80.50L143.20,80.50"/></g><g><path style="fill:#000000" d="M143.20,79.51L143.20,81.51L141.20,80.51z"/></g><g><path style="fill:#ffffff" d="M148.57,83.32L169.08,83.32L169.08,77.68L148.57,77.68z"/><path style="stroke:#000000;stroke-width:0.280;stroke-opacity:0.98" d="M148.57,83.32L169.08,83.32L169.08,77.68L148.57,77.68z"/><text xml:space="preserve" fill="#000000" stroke-width="0" x="149.28" y="81.74" font-size="3.10" opacity="1.00" font-family="Microsoft Sans Serif">3510054012</text></g></g><g id="PMI16.1"><g><path style="stroke:#000000;stroke-width:0.280" d="M65.53,72.21L71.08,72.20"/></g><g><path style="fill:#000000" d="M71.11,73.21L71.10,71.21L73.10,72.20z"/></g><g><path style="fill:#ffffff" d="M46.21,75.05L65.56,75.05L65.56,69.41L46.21,69.41z"/><path style="stroke:#000000;stroke-width:0.280;stroke-opacity:0.98" d="M46.21,75.05L65.56,75.05L65.56,69.41L46.21,69.41z"/><text xml:space="preserve" fill="#000000" stroke-width="0" x="46.92" y="73.46" font-size="3.44" opacity="1.00" font-family="Microsoft Sans Serif">6A00000Y2</text></g></g><g/><g id="paperID" visibility="hidden" opacity="0.00" transform="scale(0.000100)"><path style="stroke:#000000;stroke-width:0.500;fill:#e6e6e6;fill-rule:evenodd" d="M-2000.00,-2000.00L2297.00,-2000.00L2297.00,2210.00L-2000.00,2210.00zM0.00,0.00L297.00,0.00L297.00,210.00L0.00,210.00z"/><path style="fill:#000000;fill-opacity:0.118" d="M3.00,210.00L297.00,210.00L297.00,3.00L300.00,3.00L300.00,213.00L3.00,213.00z"/></g><g id="hotspot.0" onmouseover="ShowHotSpot(evt,'0')" onmouseout="HideHotSpot(evt,'0')" onmousemove="ShowToolTip(evt,'0',&quot;3dp2262964 (I_NP NHM.30)&quot;)" opacity="0"><path style="fill:#00ff00;fill-rule:evenodd" d="M75.66,31.46L75.05,32.65L74.77,33.51L86.54,33.66L86.80,33.92L86.69,39.65L71.95,39.90L39.70,113.40L38.06,113.04L68.92,39.86L66.07,39.65L66.07,33.76L71.69,33.43L73.47,29.52L74.51,28.77L75.66,28.77z"/></g><g id="hotspot.1" onmouseover="ShowHotSpot(evt,'1')" onmouseout="HideHotSpot(evt,'1')" onmousemove="ShowToolTip(evt,'1',&quot;A-0008446-01 (I_CONNECTOR 620042.27)&quot;)" opacity="0"><path style="fill:#00ff00;fill-rule:evenodd" d="M181.91,34.70L181.80,36.27L179.84,37.70L179.31,37.83L179.06,38.70L177.12,40.16L176.12,40.12L179.33,44.29L179.33,44.89L178.18,45.84L151.54,71.41L149.23,73.50L144.69,78.00L143.38,79.01L143.27,80.05L148.29,80.05L148.53,77.45L168.99,77.34L169.25,77.60L169.15,83.33L148.53,83.33L148.29,80.72L143.30,80.76L143.08,81.07L141.73,80.71L94.95,125.45L91.33,126.51L89.35,126.49L88.20,126.31L88.28,125.80L90.36,125.73L90.59,126.04L92.45,125.79L95.07,124.80L99.61,120.28L101.91,118.19L114.83,105.78L118.57,102.00L116.75,102.19L116.41,101.66L116.89,100.61L120.56,100.14L128.01,93.12L154.12,68.05L158.11,63.92L156.47,63.76L156.26,63.44L156.27,62.45L156.99,61.59L157.61,61.37L158.55,61.37L160.09,60.83L162.15,60.30L174.28,48.66L178.30,44.63L178.30,44.03L175.17,40.41L175.06,39.37L176.86,39.37L178.30,38.16L178.28,37.58L177.15,37.13L177.24,36.10L177.75,35.59L178.28,34.56L178.70,34.17L181.12,34.20zM253.50,45.56L253.50,46.72L253.28,47.01L251.09,48.18L249.49,48.17L241.49,53.34L240.81,53.35L240.80,52.92L248.58,47.77L248.56,46.97L249.32,46.41L249.84,45.64L250.82,45.04L252.99,45.05zM252.95,46.42L252.62,46.34L253.00,46.13zM159.66,62.75L159.64,61.67L160.69,61.58zM119.49,101.43L118.98,101.51L119.04,100.98L119.84,100.86z"/></g><g id="hotspot.2" onmouseover="ShowHotSpot(evt,'2')" onmouseout="HideHotSpot(evt,'2')" onmousemove="ShowToolTip(evt,'2',&quot;A-0008446-01 (I_CONNECTOR 610043.43)&quot;)" opacity="0"><path style="fill:#00ff00;fill-rule:evenodd" d="M52.68,16.37L52.68,16.97L51.62,18.28L50.74,18.69L49.43,20.26L49.07,20.25L48.76,19.96L48.19,19.98L47.98,20.33L47.12,21.01L45.82,21.30L40.65,20.79L14.91,126.32L14.38,127.11L14.36,126.59L39.70,20.32L42.30,20.25L44.37,20.51L46.11,20.52L47.21,20.06L47.48,19.44L46.96,18.95L46.96,17.75L47.93,16.63L48.15,15.60L49.21,14.31L50.06,14.29zM28.38,39.09L28.51,41.02L31.96,40.74L32.23,40.13L34.06,41.03L32.48,42.07L32.25,41.20L28.51,41.69L28.36,44.90L7.65,44.82L7.65,38.93L28.12,38.83zM275.72,50.23L276.22,50.76L277.54,51.77L278.57,53.58L278.49,53.87L277.78,53.87L277.28,53.58L276.76,54.24L275.99,54.10L275.21,53.58L274.18,53.32L272.86,52.55L272.88,51.78L270.71,52.03L269.68,52.81L269.27,55.76L268.73,56.27L268.98,53.14L269.52,52.14L270.46,51.52L273.38,51.09L274.57,49.71z"/></g><g id="hotspot.3" onmouseover="ShowHotSpot(evt,'3')" onmouseout="HideHotSpot(evt,'3')" onmousemove="ShowToolTip(evt,'3',&quot;3dp2274995 (I_LOGO MER.7)&quot;)" opacity="0"><path style="fill:#00ff00;fill-rule:evenodd" d="M248.06,63.16L249.37,64.18L249.37,65.06L248.47,65.98L246.69,67.04L243.58,67.81L239.26,67.82L236.70,67.02L236.18,66.51L236.18,64.80L237.71,63.75L240.48,62.90L242.03,62.64L246.25,62.64zM92.45,78.41L93.77,79.43L93.77,80.32L93.47,80.81L91.93,81.59L89.78,82.03L86.76,82.03L84.17,81.52L81.85,80.22L81.85,78.75L83.57,77.89L84.87,77.64L89.60,77.64zM204.89,90.82L205.70,91.59L205.58,92.36L204.04,93.41L201.97,93.92L197.39,93.93L195.08,93.13L194.81,92.88L194.81,91.68L196.54,90.82L199.12,90.30L202.82,90.30zM112.35,92.11L113.14,92.87L113.05,94.69L114.16,95.21L115.22,95.97L115.44,97.51L115.37,98.64L116.51,99.59L116.51,101.52L116.22,102.00L114.34,102.97L112.27,103.48L106.15,103.48L103.81,102.98L101.51,101.66L101.25,101.41L101.22,99.41L101.66,98.82L102.30,98.42L102.79,95.55L104.89,94.55L105.03,92.37L106.05,91.84L107.36,91.59L110.28,91.59zM108.78,105.56L108.42,106.08L108.38,111.33L118.59,111.46L118.85,111.72L118.74,117.45L97.35,117.45L97.35,111.57L107.71,111.33L107.68,106.07L107.08,105.80L107.99,104.23zM67.89,112.01L70.02,112.74L70.26,113.39L69.19,114.16L67.03,114.60L64.27,114.60L62.20,114.08L60.91,113.30L60.90,112.35L63.42,111.75L66.08,111.75zM158.89,119.49L159.70,120.01L159.70,120.64L158.55,121.33L155.43,121.85L152.41,121.33L151.37,120.78L151.37,120.12L152.59,119.50L154.15,119.25L157.59,119.25z"/></g><g id="hotspot.4" onmouseover="ShowHotSpot(evt,'4')" onmouseout="HideHotSpot(evt,'4')" onmousemove="ShowToolTip(evt,'4',&quot;3dp2206256 (I_LA QUN DY IN.203)&quot;)" opacity="0"><path style="fill:#00ff00;fill-rule:evenodd" d="M133.39,28.14L132.70,28.27L128.93,33.55L128.12,35.07L126.57,37.13L125.20,37.31L124.16,37.33L124.78,37.04L122.61,37.07L123.23,36.79L120.80,36.81L121.42,36.53L118.99,36.55L119.61,36.27L117.44,36.29L118.06,36.01L115.63,36.03L116.25,35.75L113.82,35.77L114.44,35.49L112.27,35.52L112.89,35.24L110.46,35.27L111.16,34.89L125.44,36.03L131.39,27.71zM99.42,28.87L99.15,26.67L98.85,26.67L98.66,30.93L98.49,31.04L98.64,26.01L100.98,25.91zM98.49,31.04L97.35,33.26L96.32,33.18L95.27,32.92L95.46,30.84zM111.16,34.89L108.64,35.00L109.42,34.72L111.08,34.75zM133.98,36.36L136.43,36.76L136.68,37.02L136.65,39.23L132.96,38.64L133.25,38.43L133.39,28.14L133.83,28.24zM108.51,60.65L108.11,61.11L107.61,61.10L108.39,60.03L108.51,60.07zM73.06,71.95L71.50,72.85L70.98,72.49L65.99,72.45L65.85,74.63L65.57,75.13L46.17,75.06L46.17,69.17L65.84,69.09L65.99,71.78L70.99,71.76L71.19,71.17L71.49,71.12zM79.25,101.22L78.92,101.14L79.30,100.93zM51.89,109.66L50.32,110.57L50.24,108.89L50.56,108.86zM44.28,109.26L49.84,109.45L49.84,109.75L44.28,109.93L44.13,112.37L43.85,112.87L24.46,112.80L24.46,106.91L44.12,106.83z"/></g><g id="hotspot.5" onmouseover="ShowHotSpot(evt,'5')" onmouseout="HideHotSpot(evt,'5')" onmousemove="ShowToolTip(evt,'5',&quot;3dp2274382 (I_NP NHM.33)&quot;)" opacity="0"><path style="fill:#00ff00;fill-rule:evenodd" d="M20.62,118.70L20.76,121.41L23.41,121.66L23.63,121.06L23.93,121.01L25.30,121.83L25.26,122.16L23.93,122.73L23.41,122.39L22.94,122.07L20.76,122.08L20.61,124.01L20.33,124.50L1.19,124.43L1.19,118.54L20.37,118.44zM30.94,113.14L20.33,142.85L19.19,142.85L19.48,141.49L29.77,111.71L30.59,111.20L31.20,111.23z"/></g><g id="hotspot.6" onmouseover="ShowHotSpot(evt,'6')" onmouseout="HideHotSpot(evt,'6')" onmousemove="ShowToolTip(evt,'6',&quot;3dp2226020 (I_LA TNG CNG MNG GI 02.34)&quot;)" opacity="0"><path style="fill:#00ff00;fill-rule:evenodd" d="M241.62,44.82L241.66,45.14L240.71,45.84L240.05,45.87L239.97,44.52zM267.70,52.30L268.12,56.79L269.52,56.95L270.27,57.23L270.55,57.98L270.56,59.12L269.00,59.02L267.62,58.77L267.72,58.00L267.19,52.80L266.32,52.80L259.85,56.94L257.29,57.25L259.87,55.41L265.55,51.77L266.41,51.77zM240.32,52.39L240.56,50.73L240.59,52.67L238.72,53.96L238.98,54.39L238.44,54.47L238.23,53.60L238.16,52.27zM242.20,54.53L240.97,54.41L241.04,54.12zM242.55,54.90L241.79,54.92L242.20,54.53L243.43,54.63zM244.41,55.12L243.31,55.16L243.84,54.86L244.44,54.86zM231.01,74.56L231.06,74.87L226.76,77.62L224.44,77.65L229.88,74.25zM222.25,90.57L222.20,91.12L221.89,91.36L221.69,95.29L221.60,100.99L230.75,101.14L230.75,107.20L211.86,107.11L211.86,101.23L220.93,100.99L221.17,91.34L220.57,91.14L220.62,90.65L221.46,89.24zM175.97,109.13L175.15,109.76L173.29,110.73L171.97,110.74L174.82,108.89L175.73,108.89zM140.47,131.42L139.15,131.42L140.42,130.61L141.57,130.61z"/></g><g id="hotspot.7" onmouseover="ShowHotSpot(evt,'7')" onmouseout="HideHotSpot(evt,'7')" onmousemove="ShowToolTip(evt,'7',&quot;3dp2240434 (I_P DN GI TRI.205)&quot;)" opacity="0"><path style="fill:#00ff00;fill-rule:evenodd" d="M116.49,130.88L120.09,131.67L120.39,132.15L120.38,134.08L119.07,135.10L118.98,136.66L133.83,137.60L132.95,137.87L116.65,139.65L116.16,139.94L111.84,139.93L91.40,138.65L91.42,132.26L91.67,129.67L92.09,129.31L95.29,129.33zM117.04,141.49L117.00,142.04L116.69,142.28L116.65,148.04L126.34,148.17L126.60,148.43L126.50,154.16L105.88,154.16L105.88,148.27L115.98,148.04L115.96,142.26L115.35,141.99L116.38,140.42z"/></g><g id="hotspot.8" onmouseover="ShowHotSpot(evt,'8')" onmouseout="HideHotSpot(evt,'8')" onmousemove="ShowToolTip(evt,'8',&quot;3dp2241355 (I_P DN GI PHI.207)&quot;)" opacity="0"><path style="fill:#00ff00;fill-rule:evenodd" d="M87.04,128.79L87.54,129.07L87.54,136.65L87.29,137.69L86.94,138.12L82.11,138.12L61.17,136.83L60.63,136.07L45.82,132.17L49.54,132.17L61.43,132.95L63.41,132.94L67.79,127.51zM69.72,139.15L69.12,139.41L69.09,144.16L78.78,144.29L79.04,144.55L78.94,150.28L58.32,150.28L58.32,144.39L68.42,144.16L68.40,139.41L67.79,139.15L68.61,137.58L68.90,137.58z"/></g><g id="hotspot.9" onmouseover="ShowHotSpot(evt,'9')" onmouseout="HideHotSpot(evt,'9')" onmousemove="ShowToolTip(evt,'9',&quot;A-0006626-01 (I_AI SIT 40-60.25)&quot;)" opacity="0"><path style="fill:#00ff00;fill-rule:evenodd" d="M52.65,134.00L51.55,134.00L51.28,133.69zM136.40,142.25L136.37,143.41L135.86,143.06L132.41,143.04L132.31,143.46L131.90,143.39L131.91,142.25L132.95,142.00L135.36,142.00zM133.39,143.72L132.42,143.63L132.31,143.46zM31.22,149.46L31.35,151.65L35.83,151.62L36.34,151.26L37.75,151.98L36.11,152.96L35.84,152.35L31.35,152.32L31.20,155.27L10.50,155.19L10.50,149.30L30.96,149.20zM43.08,150.78L43.08,151.90L42.77,152.11L38.68,152.08L37.75,151.98L37.83,150.79L38.60,150.52L42.58,150.51zM40.25,151.83L39.08,151.79L39.33,151.54L39.73,151.53z"/></g><g id="hotspot.10" onmouseover="ShowHotSpot(evt,'10')" onmouseout="HideHotSpot(evt,'10')" onmousemove="ShowToolTip(evt,'10',&quot;3dp2244181 (I_BT U MNG GI.28)&quot;)" opacity="0"><path style="fill:#00ff00;fill-rule:evenodd" d="M130.22,15.35L130.23,15.66L129.43,16.73L129.33,21.11L133.29,21.80L134.85,21.89L135.12,17.25L136.03,16.10L140.53,16.62L139.75,17.79L139.66,18.23L140.25,18.48L140.55,19.07L141.47,17.89L141.58,26.81L140.80,27.85L140.27,28.86L138.20,28.78L105.66,23.59L105.38,23.34L104.52,23.18L104.25,21.81L104.59,16.70L105.26,15.59L105.64,15.92L106.33,14.56L121.43,14.57L121.44,14.88L120.52,16.12L122.19,16.43L123.21,14.57zM142.77,22.06L144.43,21.29L144.40,22.94L143.37,22.58L142.83,22.29zM144.80,22.38L144.80,22.08L151.91,21.89L152.15,19.54L171.04,19.46L171.05,25.01L170.77,25.50L152.15,25.43L151.91,22.56z"/></g><g id="hotspot.11" onmouseover="ShowHotSpot(evt,'11')" onmouseout="HideHotSpot(evt,'11')" onmousemove="ShowToolTip(evt,'11',&quot;pip2241357 (I_NG RUT G 01.209)&quot;)" opacity="0"><path style="fill:#00ff00;fill-rule:evenodd" d="M44.63,131.92L50.84,133.46L51.59,134.00L53.17,134.31L50.77,135.29L45.67,135.27L43.53,135.01L43.31,135.60L43.10,139.52L42.50,139.95L39.96,139.94L39.20,139.68L39.37,134.49L40.38,132.40L41.18,131.63zM38.16,135.02L36.36,135.89L36.10,135.29L32.39,135.26L32.24,136.93L31.96,137.43L13.34,137.36L13.34,131.47L32.23,131.39L32.39,134.59L36.10,134.57L36.36,133.96zM135.96,138.04L136.13,140.78L135.87,142.10L132.43,142.10L132.54,139.41L132.01,138.88L126.57,138.90L125.69,138.64L132.95,137.86L135.88,137.86zM132.40,143.34L132.39,143.05L135.90,143.04L135.83,143.54L133.29,143.55z"/></g></g></svg>
