<?xml version="1.0" encoding="UTF-8" standalone="no"?>
<svg xmlns="http://www.w3.org/2000/svg" xmlns:xlink="http://www.w3.org/1999/xlink" width="297.000mm" height="210.000mm" viewBox="0.000000 0.000000 297.000000 210.000000" stroke-linejoin="round" stroke-linecap="round" fill="none" fill-rule="evenodd"><desc>Composer Export</desc><script type="text/ecmascript"><![CDATA[
if(typeof(top) != "undefined")
{
	top.ShowPaper = ShowPaper;
}
function ShowHotSpot(evt,hotspotid)
{
	var svgDocument = evt.target.ownerDocument;
	var strId = "hotspot."+hotspotid;
	var hotspot = svgDocument.getElementById(strId);
	if(hotspot)
		hotspot.setAttribute("opacity",".5");
}
function HideHotSpot(evt,hotspotid)
{
	var svgDocument = evt.target.ownerDocument;
	var strId = "hotspot."+hotspotid;
	var hotspot = svgDocument.getElementById(strId);
	if(hotspot)
		hotspot.setAttribute("opacity","0");

	var toolTip = svgDocument.getElementById('ToolTip');
	if(toolTip)
		toolTip.setAttribute("visibility","hidden");
}
function ShowToolTip(evt,hotspotid,strTooltip)
{
	if(strTooltip=="")
	return;

	// change text
	var svgDocument = evt.target.ownerDocument;
	var tiptext = svgDocument.getElementById('ToolTipText');
	if( !tiptext )
	return;
	tiptext.firstChild.nodeValue = " " + strTooltip + "  " ;

	// show tooltip before, else some refresh issue

	var toolTip = svgDocument.getElementById('ToolTip');
	if(!toolTip)
	return;

	toolTip.setAttribute("visibility","visible");
	toolTip.setAttribute("opacity",".95");

	// move tooltip
	// get viewbox

	var root = svgDocument.documentElement;
	var vbox = (root.getAttribute("viewBox")).split(' ');
	var x0 = parseFloat(vbox[0]);
	var y0 = parseFloat(vbox[1]);
	var vboxW = parseFloat(vbox[2]);
	var vboxH = parseFloat(vbox[3]);

	// get default width of svg

	var strW = root.getAttribute("width");
	var svgW = parseFloat(strW);
	if(strW.indexOf('mm') != -1)
	svgW *= 3.779;

	var strH = root.getAttribute("height");
	var svgH = parseFloat(strH);
	if(strH.indexOf('mm') != -1)
	svgH *= 3.779;  	// 96 dpi  -> 96/25.4 = 3.779

	// update the viewbox / width / height if svg is embedded in html with zoom fit all
	var realx0 = x0;
	var realy0 = y0;
	var realvboxW = vboxW;
	var realvboxH = vboxH;
	var realsvgW = svgW;
	var realsvgH = svgH;

	if ((typeof(top) == "undefined") || (typeof(top.svgctl1) != "undefined")) // embedded in html
	{
		// get window size in pxl

		svgW = window.innerWidth;
		svgH = window.innerHeight;

		// calculate real viewbox

		realsvgW = svgW;
		realsvgH = svgH;
		if((svgW / svgH) > (vboxW / vboxH))
		{
			realvboxW = (vboxH * svgW) / svgH;
			realvboxH = vboxH;
			realx0 = x0 - (realvboxW - vboxW)/2 ;
		}
		else
		{
			realvboxH = (vboxW * svgH) / svgW;
			realvboxW = vboxW;
			realy0 = y0 - (realvboxH - vboxH)/2 ;
		}
	}

	// get user zoom/pan

	var newScale = root.currentScale;
	var translation = root.currentTranslate;

	// transform pxl to user unit

	var xPos = (((evt.clientX+10- translation.x)/newScale) * realvboxW)/realsvgW  + realx0 ;
	var yPos = (((evt.clientY+5- translation.y)/newScale) * realvboxH)/ realsvgH  + realy0 ;
	var scaleForWidth = ( (1 / newScale) * realvboxH) / realsvgH;

	// move tooltip

	toolTip.setAttribute("transform", "translate(" + xPos + "," + yPos + ")" );

	// resize tooltip

	var fontsize = 12;
	tiptext.setAttribute("font-size",fontsize*scaleForWidth);
	tiptext.setAttribute("y", fontsize*scaleForWidth);
	var tipBG = svgDocument.getElementById('ToolTipBG');
	var outline = tiptext.getBBox();
	if(tipBG)
	{
		tipBG.setAttribute("stroke-width", 1*scaleForWidth);
		tipBG.setAttribute("width", Number(outline.width) );
		tipBG.setAttribute("height", Number(outline.height) + fontsize*.5*scaleForWidth );
	}
	var ToolTipShadow = svgDocument.getElementById('ToolTipShadow');
	if(ToolTipShadow)
	{
		ToolTipShadow.setAttribute("width", Number(outline.width) );
		ToolTipShadow.setAttribute("height", Number(outline.height) + fontsize*.5*scaleForWidth );
		ToolTipShadow.setAttribute("x", 3*scaleForWidth);
		ToolTipShadow.setAttribute("y", 3*scaleForWidth);
	}
}
function ShowPaper()
{
  var svgDocument = getDocument();
  var paper = svgDocument.getElementById("paperID");
  if(paper)
  {
    paper.setAttribute("transform","scale(1)");
    paper.setAttribute("opacity","1");
    paper.setAttribute("visibility","visible");
  }
  var svg = svgDocument.getRootElement();
  if(svg)
  {
    svg.setAttribute("width","307.000mm");
    svg.setAttribute("height","220.000mm");
    svg.setAttribute("viewBox","-5.000000 -5.000000 307.000000 220.000000");
  }
}
]]></script><defs/><g><g id="Actor_.0"><g style="stroke:#000000;stroke-width:0.123"><path d="M153.04,62.29L153.06,62.22L153.00,62.14L152.88,62.09L152.74,62.09L152.61,62.12L152.53,62.19L152.51,62.28L152.53,62.30"/><path d="M152.50,62.28L152.48,62.25L152.50,62.16L152.59,62.08L152.74,62.04L152.90,62.05L153.02,62.10L153.09,62.19L153.07,62.27"/></g></g><g id="Actor_20.0"><g style="stroke:#000000;stroke-width:0.123"><path d="M264.78,138.71L264.31,138.43L264.33,138.34L264.69,138.58L264.77,138.60L264.89,138.44L264.98,138.43L265.07,138.47L266.29,139.24L266.39,139.34L266.45,139.45L266.46,139.56L266.41,139.80L266.42,139.87L266.48,139.95L266.84,140.20L267.63,139.59L267.60,139.67L266.81,140.29L266.36,139.94L266.31,139.84L266.30,139.73L266.36,139.49L266.34,139.41L266.28,139.34L265.06,138.56L265.00,138.54L264.94,138.57L264.87,138.70L264.78,138.71"/><path d="M264.33,138.34L275.77,129.57L276.15,129.80"/><path d="M264.89,138.44L276.34,129.65L276.43,129.64L276.53,129.68L277.74,130.41L277.84,130.49L277.90,130.60L277.91,130.71L277.85,130.95L277.86,131.03L277.92,131.10L278.28,131.34L276.41,132.79L276.06,132.54L275.99,132.47L275.98,132.39L276.04,132.15L276.03,132.05L275.97,131.94L275.87,131.85L275.85,131.94L275.92,132.01L275.93,132.09L275.87,132.33L275.88,132.43L275.93,132.53L276.38,132.87L276.41,132.79"/><path d="M264.94,138.57L264.94,138.57"/><path d="M264.87,138.70L265.05,138.56"/><path d="M266.84,140.20L266.81,140.29"/><path d="M275.87,131.85L267.08,138.63L267.18,138.72L267.25,138.84L267.25,138.94L267.20,139.18L267.21,139.26L267.28,139.33L267.63,139.59"/><path d="M275.85,131.94L267.12,138.67"/><path d="M276.38,132.87L278.25,131.42L278.28,131.34"/></g></g><g id="Actor_41.0"><g style="stroke:#000000;stroke-width:0.123"><path d="M132.03,51.92L133.23,51.36L133.35,51.24L133.29,49.74L99.08,24.35L99.01,24.38L133.21,49.77L133.27,51.26L132.03,51.84L132.03,51.92L98.07,26.40"/><path d="M132.03,51.84L97.99,26.27L99.19,25.76L99.01,24.38"/><path d="M133.21,49.77L133.29,49.74"/></g></g><g id="Actor_19.0"><g style="stroke:#000000;stroke-width:0.123"><path d="M207.44,182.06L207.88,182.42L208.12,182.32L209.30,183.32L209.46,183.95L209.90,184.39L209.92,184.31L209.50,183.90L209.48,183.47L209.32,183.25L208.13,182.23L207.95,182.17L207.90,182.28L207.79,182.27L207.44,181.97L207.44,182.06"/><path d="M208.11,182.32L207.96,182.43"/><path d="M207.44,181.97L221.29,171.35L221.65,171.65"/><path d="M207.95,182.17L221.81,171.52L221.99,171.58L223.24,170.63L223.06,170.56L223.01,170.68L222.89,170.68L222.54,170.39L222.53,170.48L222.98,170.82"/><path d="M209.92,184.31L211.51,183.07L211.10,182.67L211.07,182.24L210.90,182.00L221.55,173.78L221.72,174.01L221.73,174.44L222.15,174.83L222.13,174.91L239.19,161.69L239.21,161.61L238.77,161.17L242.00,158.67L242.44,159.11L242.42,159.19L241.93,158.73"/><path d="M211.51,183.07L209.90,184.39"/><path d="M222.13,174.91L221.68,174.50L221.61,173.95L221.49,173.91L210.94,182.05"/><path d="M222.15,174.83L239.21,161.61"/><path d="M221.54,173.87L221.55,173.78"/><path d="M223.12,170.72L223.17,170.68"/><path d="M222.54,170.39L225.52,168.11L225.88,168.40"/><path d="M223.06,170.56L226.04,168.27L226.63,168.64L227.86,167.70L227.38,167.34L227.10,167.45L226.75,167.17L226.73,167.25L227.19,167.59L227.39,167.45L227.80,167.74"/><path d="M226.75,167.17L235.34,160.58L235.70,160.85"/><path d="M227.27,167.59L227.44,167.47"/><path d="M236.96,160.08L236.51,159.76L236.52,159.69L236.95,159.97L237.05,159.82L237.23,159.86L236.06,160.78L235.87,160.73L227.27,167.33"/><path d="M236.52,159.67L246.83,151.77L247.18,152.02L237.06,159.81"/><path d="M237.16,159.93L237.11,159.97"/><path d="M242.44,159.11L243.42,158.35L242.99,157.91L248.16,153.90L248.60,154.34L248.57,154.42L248.09,153.96"/><path d="M243.42,158.35L242.42,159.19"/><path d="M247.20,152.03L247.37,151.89L247.56,151.94L248.86,152.87L248.94,153.10L248.91,153.42L249.33,153.77L248.60,154.34"/><path d="M248.57,154.42L249.33,153.77"/></g></g><g id="Actor_57.0"><g style="stroke:#000000;stroke-width:0.123"><path d="M175.74,49.87L167.58,44.48L167.58,44.38L168.30,44.03L168.39,43.92L165.83,42.20"/><path d="M167.58,44.38L175.84,49.83"/><path d="M178.44,48.55L178.36,48.52L177.63,48.89L177.63,48.81L177.54,48.72L166.85,41.73"/><path d="M177.63,48.89L166.76,41.77"/><path d="M178.54,48.50L178.50,48.42L167.65,41.35"/><path d="M168.22,44.56L168.24,44.45L168.48,44.40L168.87,44.65L168.86,44.76L168.72,44.81L168.57,44.79L168.22,44.56L168.48,44.51L168.87,44.75"/><path d="M175.16,48.90L174.80,48.66L174.64,48.64L174.50,48.70"/><path d="M174.76,48.54L175.16,48.79L175.15,48.91L175.02,48.96L174.86,48.94L174.48,48.67L174.55,48.56L174.76,48.54"/><path d="M178.34,51.59L181.52,53.69L182.26,53.32L182.43,53.11"/><path d="M178.43,51.54L181.53,53.58L181.52,53.69"/><path d="M177.63,48.78L178.37,48.42L178.50,48.42"/><path d="M179.73,49.94L179.54,50.03L179.59,50.17L187.63,55.43L187.64,55.36L187.80,55.25L188.47,54.93L180.41,49.66L180.28,49.67L179.73,49.94"/><path d="M179.54,50.03L187.64,55.33"/><path d="M180.28,49.67L180.27,49.66"/><path d="M181.67,53.18L181.30,52.93L181.13,52.91L180.99,52.97"/><path d="M181.53,53.58L182.26,53.22L182.36,53.07L184.47,54.45L184.37,54.60L183.64,54.98L185.83,56.42"/><path d="M181.02,53.01L181.41,53.24L181.58,53.24L181.68,53.17L181.64,53.04L181.25,52.81L181.00,52.86L180.97,52.95L181.02,53.01"/><path d="M183.64,54.98L183.63,55.08L185.74,56.47"/><path d="M184.92,55.33L184.54,55.07L184.37,55.05L184.23,55.11"/><path d="M184.94,55.31L184.83,55.38L184.61,55.37L184.24,55.12L184.22,55.03L184.38,54.94L184.55,54.96L184.92,55.21L184.94,55.31"/><path d="M188.50,58.19L192.07,60.54L192.06,60.64L188.41,58.23"/><path d="M187.63,55.43L188.37,55.05L188.45,55.08"/><path d="M188.55,55.03L188.50,54.94"/><path d="M189.65,56.64L193.35,59.06L193.37,59.18L189.64,56.75L189.65,56.67L189.81,56.56L190.37,56.25"/><path d="M190.39,56.26L190.52,56.25L194.25,58.68L194.13,58.69L193.38,59.08"/><path d="M191.48,59.89L191.62,59.82L191.79,59.84L192.19,60.12"/><path d="M191.52,59.93L191.47,59.87L191.49,59.77L191.75,59.72L192.16,59.97L192.22,60.06L192.10,60.17L191.93,60.18L191.52,59.93"/><path d="M192.07,60.54L192.83,60.13L192.91,60.00L194.02,60.73L194.11,60.68L194.29,58.80L194.25,58.68"/><path d="M192.06,60.64L192.80,60.25L192.97,60.04"/><path d="M193.37,59.18L194.11,58.79L194.19,58.82L194.02,60.73"/></g></g><g id="Actor_.1"><g style="stroke:#000000;stroke-width:0.123"><path d="M166.23,119.02L166.13,118.97L165.96,118.96L165.81,119.01"/><path d="M166.27,119.01L166.34,118.93L166.35,118.81L166.28,118.69L166.14,118.62L165.97,118.61L165.81,118.66L165.71,118.76L165.70,118.89L165.77,118.99"/><path d="M165.73,118.97L165.66,118.86L165.68,118.72L165.79,118.61L165.96,118.55L166.15,118.57L166.31,118.65L166.39,118.78L166.38,118.91L166.30,118.99"/></g></g><g id="Actor_47.0"><g style="stroke:#000000;stroke-width:0.123"><path d="M181.39,90.46L167.79,80.19L168.61,79.59L168.77,77.92L171.38,76.54L199.30,97.14L199.08,97.25L201.39,98.96L201.69,98.92"/><path d="M167.80,80.08L181.47,90.41"/><path d="M175.53,85.60L175.91,85.90L176.25,85.92L176.27,85.70L175.78,85.39L175.52,85.54L175.86,85.52L176.31,85.86"/><path d="M206.92,109.73L185.38,93.47"/><path d="M207.01,109.68L185.45,93.41"/><path d="M187.80,94.53L187.41,94.08L186.98,94.17L187.39,94.56L187.75,94.58L187.41,94.19L186.99,94.22"/><path d="M200.01,103.72L199.46,103.19L199.17,103.28L199.16,103.41L199.59,103.75L199.95,103.77L199.58,103.35L199.15,103.38"/><path d="M199.26,97.31L199.15,97.30"/><path d="M199.34,97.17L199.36,97.25"/><path d="M211.96,106.55L201.68,98.90"/><path d="M238.06,133.11L211.27,112.89"/><path d="M237.97,133.18L211.19,112.96"/><path d="M213.00,113.50L212.45,112.95L212.10,113.03L212.11,113.17L212.56,113.53L213.00,113.50L212.52,113.10L212.09,113.12"/><path d="M211.94,106.47L211.71,106.53L214.14,108.38L214.43,108.32"/><path d="M211.75,106.61L211.85,106.62"/><path d="M214.43,108.31L248.63,133.56L245.87,135.54L245.33,137.18L244.41,138.03L239.72,134.50"/><path d="M226.85,123.85L226.25,123.33L225.89,123.42L226.48,124.00L226.85,123.85"/><path d="M225.88,123.51L226.23,123.44L226.82,123.94"/><path d="M236.04,130.88L235.41,130.36L235.06,130.42"/><path d="M235.13,130.27L235.44,130.25L235.97,130.63L236.00,130.92L235.59,130.90L235.16,130.57L235.13,130.27"/><path d="M244.44,137.93L239.81,134.43"/><path d="M244.41,138.03L245.36,137.26L245.92,135.57L248.45,133.70L248.11,135.19L247.25,134.58"/><path d="M248.63,133.56L248.23,135.05L249.05,134.53L249.02,134.64L248.12,135.23"/><path d="M249.05,134.53L248.50,134.13"/></g></g><g id="Actor_41.1"><g style="stroke:#000000;stroke-width:0.123"><path d="M74.29,35.75L106.89,63.39L106.66,61.90L106.74,61.86L73.97,34.22L73.89,34.25L74.20,35.67"/><path d="M73.89,34.25L106.66,61.90"/><path d="M75.22,35.27L75.56,35.14L108.32,62.72L108.33,62.80L107.03,63.40L106.89,63.39"/><path d="M106.74,61.86L106.98,63.33L108.32,62.72"/></g></g><g id="Actor_.2"><g style="stroke:#000000;stroke-width:0.123"><path d="M141.16,134.14L141.06,134.08L140.88,134.07L140.72,134.12L140.67,134.17"/><path d="M141.14,134.16L141.23,134.07L141.25,133.94L141.18,133.81L141.04,133.73L140.86,133.72L140.70,133.78L140.59,133.88L140.56,134.02L140.63,134.14L140.71,134.19"/><path d="M141.18,134.14L141.26,134.05L141.29,133.90L141.21,133.77L141.05,133.68L140.86,133.66L140.67,133.72L140.55,133.85L140.52,134.00L140.60,134.14L140.66,134.17"/></g></g><g id="Actor_.3"><g style="stroke:#000000;stroke-width:0.123"><path d="M130.11,138.85L130.14,138.75L130.27,138.81L132.04,140.60L132.22,140.90"/><path d="M132.15,140.92L132.05,140.71L130.29,138.93L130.24,138.89L130.20,138.95"/><path d="M130.14,138.75L165.85,117.34L166.01,117.39L167.84,118.96L168.00,119.20"/><path d="M130.82,139.47L130.76,139.51"/><path d="M167.72,120.39L134.12,140.77"/><path d="M141.34,133.67L141.39,133.86L141.34,134.00L141.08,134.18L140.64,134.17L140.43,133.96L140.46,133.69L140.72,133.50L141.07,133.49L141.34,133.67"/><path d="M140.42,133.92L140.57,133.69L140.90,133.58L141.23,133.67L141.38,133.87"/><path d="M165.62,118.87L165.89,119.03L166.23,119.02L166.42,118.91L166.49,118.67L166.25,118.42L165.84,118.40L165.57,118.63L165.62,118.87"/><path d="M165.57,118.76L165.69,118.58L166.00,118.48L166.32,118.56L166.49,118.78"/></g></g><g id="Actor_.4"><g style="stroke:#000000;stroke-width:0.123"><path d="M182.77,59.31L182.77,59.23L182.71,59.16L182.59,59.11L182.45,59.10L182.32,59.14L182.24,59.20L182.24,59.28"/><path d="M182.21,59.26L182.22,59.17L182.30,59.10L182.44,59.06L182.56,59.06L182.60,59.06L182.73,59.12L182.81,59.20L182.80,59.29"/></g></g><g id="Actor_.5"><g style="stroke:#000000;stroke-width:0.123"><path d="M162.87,69.53L162.88,69.45L162.82,69.37L162.70,69.32L162.56,69.31L162.42,69.35L162.34,69.42L162.33,69.51L162.34,69.53"/><path d="M162.32,69.52L162.29,69.49L162.31,69.39L162.40,69.31L162.55,69.27L162.71,69.27L162.85,69.33L162.92,69.42L162.90,69.52"/></g></g><g id="Actor_.6"><g style="stroke:#000000;stroke-width:0.123"><path d="M162.70,70.41L160.99,69.14"/><path d="M190.38,56.27L190.24,56.08L188.67,55.05L188.56,55.03L160.98,69.14"/><path d="M163.00,69.41L162.89,69.53L162.70,69.59L162.48,69.58L162.31,69.51L162.21,69.39L162.24,69.25L162.38,69.15L162.59,69.11L162.91,69.19L162.98,69.27L163.00,69.41L162.86,69.27L162.59,69.21L162.38,69.25L162.22,69.40"/><path d="M190.33,57.20L163.82,70.95"/><path d="M182.15,59.20L182.34,59.33L182.62,59.35L182.80,59.29L182.90,59.14L182.80,58.98L182.48,58.90L182.18,59.00L182.13,59.12L182.15,59.20"/><path d="M182.88,59.20L182.75,59.06L182.54,59.01L182.27,59.05L182.14,59.17"/></g></g><g id="Actor_.7"><g style="stroke:#000000;stroke-width:0.123"><path d="M172.76,52.57L172.76,52.50L172.70,52.43L172.59,52.39L172.45,52.38L172.33,52.41L172.25,52.48L172.24,52.55"/><path d="M172.79,52.55L172.79,52.47L172.73,52.39L172.60,52.34L172.44,52.34L172.31,52.37L172.22,52.45L172.21,52.53"/></g></g><g id="Actor_.8"><g style="stroke:#000000;stroke-width:0.123"><path d="M152.84,63.12L151.22,61.92"/><path d="M180.27,49.67L180.14,49.50L178.65,48.52L178.54,48.50L151.21,61.92"/><path d="M152.79,62.35L153.10,62.25L153.17,62.13L153.12,62.00L152.98,61.91L152.77,61.89L152.47,61.99L152.40,62.11L152.44,62.23L152.59,62.32L152.79,62.35"/><path d="M153.16,62.17L153.04,62.04L152.77,61.99L152.51,62.06L152.41,62.18"/><path d="M180.25,50.60L153.97,63.68"/><path d="M172.78,52.55L172.60,52.61L172.33,52.59L172.15,52.47L172.14,52.35L172.35,52.20L172.68,52.21L172.88,52.37L172.88,52.45L172.78,52.55"/><path d="M172.87,52.46L172.73,52.34L172.54,52.29L172.28,52.33L172.14,52.44"/></g></g><g id="Actor_28.0"><g style="stroke:#000000;stroke-width:0.123"><path d="M181.04,126.14L181.05,126.13"/><path d="M181.16,126.24L181.21,126.17L181.27,126.20L184.10,128.60L184.20,128.82"/><path d="M181.05,126.14L181.14,126.03L181.27,126.09L184.11,128.49L184.28,128.72L184.31,128.91"/><path d="M186.24,130.54L212.18,113.81L211.29,113.13L211.19,112.98L212.16,112.32L212.38,110.92L212.29,110.63L209.32,108.39L209.13,108.34L181.11,126.03"/><path d="M182.17,126.96L182.08,127.02L182.12,126.94L182.04,126.99"/><path d="M185.19,129.65L185.26,129.60L185.32,129.77"/><path d="M186.31,130.60L212.16,113.91L212.18,113.81"/><path d="M188.76,128.20L188.73,128.11L188.77,127.98L189.27,127.66L189.51,127.66L189.68,127.80L189.64,127.97L189.15,128.29L188.90,128.29L188.76,128.20"/><path d="M189.67,127.93L189.56,127.79L189.32,127.75L188.73,128.13"/><path d="M192.75,125.54L193.33,125.17L193.57,125.21L193.68,125.32L193.66,125.38L193.17,125.70L192.99,125.72L192.82,125.65L192.75,125.52L192.79,125.39L193.34,125.06L193.63,125.13L193.70,125.26L193.69,125.35"/><path d="M200.56,120.45L200.63,120.62L200.92,120.68L201.41,120.39L201.49,120.24L201.37,120.08L201.13,120.05L200.64,120.34L200.56,120.45"/><path d="M200.56,120.51L201.12,120.15L201.35,120.19L201.47,120.33"/><path d="M208.23,115.73L208.39,115.79L208.61,115.75L209.03,115.48L209.05,115.32L208.88,115.19L208.60,115.21L208.18,115.49L208.15,115.61L208.23,115.73"/><path d="M209.04,115.45L208.92,115.32L208.68,115.28L208.15,115.62"/></g></g><g id="Actor_22.0"><g style="stroke:#000000;stroke-width:0.123"><path d="M73.43,35.06L73.11,33.59L73.15,33.63L73.45,35.05L74.25,35.74L74.27,35.82L73.50,35.17L73.43,35.06"/><path d="M73.15,33.63L98.30,23.78L98.50,25.16L99.19,25.71"/><path d="M73.11,33.59L98.26,23.75L98.30,23.78"/><path d="M74.25,35.74L74.28,35.73"/><path d="M74.27,35.82L74.34,35.79"/><path d="M99.21,25.88L75.29,35.33"/><path d="M75.70,35.25L98.07,26.40"/></g></g><g id="Actor_.9"><g style="stroke:#000000;stroke-width:0.123"><path d="M95.59,90.43L95.55,90.34L95.59,90.24L95.69,90.16L95.84,90.11L96.00,90.12L96.11,90.18L96.15,90.28L96.13,90.35"/><path d="M95.55,90.41L95.51,90.32L95.55,90.21L95.67,90.11L95.84,90.06L96.01,90.07L96.14,90.14L96.19,90.25L96.16,90.32"/></g></g><g id="Actor_53.0"><g style="stroke:#000000;stroke-width:0.123"><path d="M182.93,161.88L196.06,174.15L196.35,172.10L196.57,171.83L197.65,171.04L184.26,158.67L183.19,159.42L182.98,159.68L182.78,161.68L182.80,161.75L182.93,161.88"/><path d="M196.06,174.15L196.12,174.17L196.24,174.12L197.32,173.34L197.33,173.23L196.41,172.37"/><path d="M197.33,173.23L196.29,174.00L196.19,174.03L196.46,172.06L196.59,171.91L197.63,171.14L197.65,171.04"/></g></g><g id="Actor_27.0"><g style="stroke:#000000;stroke-width:0.123"><path d="M93.12,49.92L116.21,40.03"/><path d="M118.34,42.73L118.42,42.88L118.89,43.23L96.67,52.91"/><path d="M118.89,43.23L118.90,43.33L96.76,52.98"/><path d="M98.45,51.68L97.96,51.88L97.91,51.93L97.91,52.01L97.99,52.07L98.18,52.06L98.68,51.82L98.68,51.74L98.63,51.70L98.45,51.68"/><path d="M97.92,52.03L98.42,51.79L98.68,51.82"/><path d="M115.12,44.46L115.22,44.57L115.40,44.57L115.83,44.39L115.88,44.29L115.78,44.21L115.60,44.21L115.18,44.39L115.12,44.46"/><path d="M115.87,44.35L115.75,44.30L115.61,44.31L115.15,44.53"/><path d="M118.37,42.82L119.08,42.51"/><path d="M119.11,42.20L119.13,42.47"/></g></g><g id="Actor_30.0"><g style="stroke:#000000;stroke-width:0.123"><path d="M140.28,51.56L140.27,51.24L140.32,51.28L140.40,52.74L141.47,53.56L168.17,41.03L168.17,41.11L141.47,53.64L140.45,52.89L140.37,52.78L140.28,51.56"/><path d="M140.27,51.24L167.03,38.81L167.09,38.85L167.07,40.29L168.17,41.03"/><path d="M140.32,51.28L167.09,38.85"/><path d="M141.47,53.56L141.47,53.64"/></g></g><g id="Actor_29.0"><g style="stroke:#000000;stroke-width:0.123"><path d="M120.67,129.22L120.56,129.00L118.15,126.58L118.14,126.72"/><path d="M118.05,126.63L118.08,126.44L120.55,128.90L120.72,129.16"/><path d="M118.06,126.44L152.77,106.72L152.91,106.77L155.50,109.04L155.57,109.27L155.58,110.66L154.70,111.17L154.77,111.33L155.56,112.02L155.56,112.13L127.61,128.34L127.60,128.23L126.77,127.35L122.94,129.52"/><path d="M119.01,127.61L119.12,127.55"/><path d="M127.61,128.34L126.88,127.61L126.71,127.34"/><path d="M127.60,128.23L155.56,112.02"/><path d="M129.94,126.32L129.82,126.23L129.64,126.24L129.12,126.56L129.15,126.41L129.63,126.13L129.90,126.18L129.95,126.26L129.90,126.39L129.41,126.67L129.23,126.68L129.11,126.59"/><path d="M133.68,123.94L133.80,124.03L133.98,124.03L134.46,123.75L134.50,123.62L134.46,123.54L134.19,123.50L133.71,123.77L133.68,123.94L134.19,123.60L134.37,123.60L134.50,123.69"/><path d="M138.18,121.34L138.30,121.43L138.48,121.42L138.95,121.15L138.99,121.07L138.95,120.94L138.68,120.90L138.21,121.17L138.18,121.34L138.68,121.00L138.86,121.00L138.99,121.09"/><path d="M142.61,118.77L142.64,118.60L143.10,118.34L143.37,118.38L143.42,118.46L143.37,118.59L142.91,118.86L142.64,118.81L142.64,118.71L143.11,118.45L143.28,118.44L143.41,118.53"/><path d="M147.77,116.01L147.64,115.92L147.46,115.92L146.98,116.24"/><path d="M146.96,116.20L147.01,116.08L147.46,115.82L147.64,115.81L147.78,115.94L147.73,116.06L147.28,116.33L147.05,116.31L146.96,116.20"/><path d="M151.59,113.83L152.03,113.57L152.08,113.45L152.03,113.38L151.76,113.33L151.31,113.59L151.27,113.67L151.32,113.79L151.59,113.83"/><path d="M152.06,113.53L151.93,113.43L151.76,113.44L151.28,113.74"/></g></g><g id="Actor_27.1"><g style="stroke:#000000;stroke-width:0.123"><path d="M107.18,63.33L108.09,64.11L108.23,64.43"/><path d="M108.16,64.37L108.07,64.18L107.10,63.36"/><path d="M107.55,63.85L107.63,63.81"/><path d="M107.59,62.10L131.21,51.30"/><path d="M133.46,54.14L133.54,54.29L134.06,54.68L109.96,65.90"/><path d="M134.06,54.68L134.06,54.79L110.04,65.97"/><path d="M112.66,64.10L112.57,64.18L112.58,64.27L112.67,64.33L112.82,64.34L113.29,64.14L113.39,64.03L113.32,63.93L113.13,63.90L112.66,64.10"/><path d="M113.37,64.07L113.24,64.00L113.09,64.02L112.59,64.28"/><path d="M130.20,56.08L130.29,56.14L130.48,56.14L130.92,55.94L130.97,55.83L130.86,55.75L130.67,55.75L130.24,55.95L130.19,56.00L130.20,56.08"/><path d="M130.96,55.90L130.82,55.84L130.68,55.85L130.20,56.09"/><path d="M133.49,54.23L134.22,53.89"/><path d="M134.27,53.85L134.14,52.27L134.02,52.11L133.10,51.42"/></g></g><g id="Actor_55.0"><g style="stroke:#000000;stroke-width:0.123"><path d="M202.46,67.48L198.04,64.56L198.05,64.46L202.47,67.38L202.61,67.30L202.46,67.48L202.47,67.38"/><path d="M198.05,64.46L198.87,63.99L199.01,62.85"/><path d="M198.27,62.37L198.29,62.26L213.37,72.13L213.35,72.23L198.27,62.37"/><path d="M198.29,62.26L199.14,61.84L214.23,71.68L213.37,72.13"/><path d="M199.60,64.96L199.23,64.59L198.84,64.67L199.14,64.66L199.59,64.96L199.30,65.01L198.85,64.72"/><path d="M202.61,67.30L203.72,68.03L203.57,68.21L206.64,70.24L206.79,70.06L211.65,73.26"/><path d="M202.60,67.40L203.63,68.08"/><path d="M203.53,67.82L203.93,68.07L204.23,68.01L203.69,67.59L203.46,67.71L203.53,67.82"/><path d="M203.58,68.11L206.65,70.13"/><path d="M203.47,67.76L203.77,67.71L204.22,68.02"/><path d="M206.64,70.24L206.79,70.06"/><path d="M206.78,70.16L211.56,73.31"/><path d="M208.83,71.17L209.06,71.04L208.99,70.93L208.65,70.71L208.32,70.69L208.33,70.90L208.83,71.17"/><path d="M209.03,71.10L208.64,70.82L208.27,70.83"/><path d="M213.35,72.23L214.18,71.82"/><path d="M214.23,71.68L214.28,71.78"/><path d="M215.70,75.93L216.48,76.44L216.46,76.55L217.13,76.15L217.29,75.90"/><path d="M216.46,76.55L215.61,75.98"/><path d="M216.60,76.61L222.03,80.19L222.01,80.30L216.58,76.72L217.46,76.02L217.21,75.85L217.13,76.06L216.48,76.44"/><path d="M216.40,74.11L216.39,74.22L226.56,80.87L226.58,80.77L216.40,74.11L217.24,73.65L227.49,80.39"/><path d="M217.16,73.68L217.10,73.65"/><path d="M219.45,78.22L219.43,78.01L219.69,77.99L220.21,78.37L219.88,78.49L219.45,78.22"/><path d="M219.38,78.15L219.68,78.10L220.17,78.44"/><path d="M224.71,82.05L222.27,80.44L223.10,79.92L222.90,79.59L222.03,80.19"/><path d="M222.27,80.44L222.26,80.55L224.62,82.11"/><path d="M222.01,80.30L222.96,79.63"/><path d="M227.44,80.29L226.58,80.77"/><path d="M226.56,80.87L227.39,80.44"/><path d="M238.40,89.86L229.56,84.05L228.69,84.67L227.68,84.01"/><path d="M228.69,84.67L228.67,84.78L227.58,84.06"/><path d="M228.67,84.78L229.62,84.09"/><path d="M228.95,82.32L228.93,82.43L239.31,89.21L239.33,89.11L228.95,82.32L229.82,81.84L240.19,88.60L239.33,89.11"/><path d="M239.31,89.21L240.14,88.77"/><path d="M240.23,88.71L240.19,88.60"/><path d="M241.47,91.88L266.20,108.13L265.28,108.95L268.47,111.05"/><path d="M241.84,90.78L270.42,109.57L270.46,109.46L241.84,90.78"/><path d="M241.85,90.75L242.69,90.24L271.32,108.88L271.34,109.00L270.42,109.57"/><path d="M268.57,110.99L265.31,108.84"/><path d="M266.05,108.97L266.11,108.84L266.39,108.82L266.92,109.15L267.02,109.36L266.69,109.44L266.09,109.04L266.36,108.93L266.99,109.39"/><path d="M273.00,110.21L273.15,110.31L272.49,112.26L271.60,112.99L270.32,112.14"/><path d="M270.23,112.21L271.56,113.09L271.60,112.99"/><path d="M270.46,109.46L271.32,108.88"/><path d="M271.56,113.09L272.55,112.26L273.25,110.25L273.15,110.31"/><path d="M271.34,109.00L271.36,109.01"/><path d="M273.25,110.25L273.07,110.13"/></g></g><g id="Actor_56.0"><g style="stroke:#000000;stroke-width:0.123"><path d="M77.45,87.15L74.68,84.29L74.24,82.40L74.25,82.28L74.36,82.13"/><path d="M77.45,87.15L91.66,101.62"/><path d="M77.45,83.68L86.98,93.27L85.92,93.80L85.82,93.91L85.78,94.09L87.47,95.81L87.51,95.62L87.68,95.47L88.67,94.98L95.89,102.24L94.82,102.80L94.71,102.91L94.67,103.10L96.44,104.90L96.51,104.73L96.68,104.58L97.69,104.06L101.04,107.42L100.02,107.96L99.81,108.18L100.13,110.22L100.25,110.15L99.94,108.16L101.05,107.53L101.04,107.42"/><path d="M87.50,95.65L85.90,94.03L85.78,94.09"/><path d="M85.90,94.03L86.01,93.86L87.00,93.38L86.98,93.27"/><path d="M85.97,94.02L85.91,93.97"/><path d="M87.50,95.58L86.68,94.75"/><path d="M89.77,99.71L89.83,99.73"/><path d="M99.24,109.32L91.65,101.62"/><path d="M94.67,103.10L94.79,103.04L94.90,102.87L95.91,102.35L95.89,102.24"/><path d="M94.79,103.04L96.50,104.76"/><path d="M94.86,103.03L94.80,102.97"/><path d="M95.57,103.75L96.49,104.68"/><path d="M99.18,109.30L99.13,109.21L100.13,110.22"/><path d="M100.03,108.85L100.41,108.65L100.43,108.76L100.05,108.96"/><path d="M100.41,108.65L99.94,108.17"/></g></g><g id="Actor_29.1"><g style="stroke:#000000;stroke-width:0.123"><path d="M189.42,89.85L189.39,89.63L189.24,89.44L186.70,87.56L186.58,87.52L214.23,71.80L214.39,71.82L216.98,73.50L217.13,73.69"/><path d="M186.54,87.53L186.48,87.68"/><path d="M189.32,89.77L189.23,89.54L186.69,87.67L186.59,87.67L186.58,87.75"/><path d="M187.61,88.51L187.74,88.44"/><path d="M217.02,74.63L216.93,75.22L212.67,77.68L212.76,77.85L213.55,78.39L191.34,91.27"/><path d="M213.55,78.39L213.54,78.49L191.42,91.32"/><path d="M193.09,89.53L193.48,89.30L193.64,89.29L193.78,89.39"/><path d="M193.08,89.52L193.10,89.41L193.49,89.19L193.65,89.19L193.80,89.29L193.78,89.40L193.39,89.62L193.18,89.61L193.08,89.52"/><path d="M196.95,87.51L196.75,87.40L196.80,87.27L197.20,87.06L197.44,87.14L197.47,87.21L197.40,87.30L196.95,87.51"/><path d="M196.75,87.41L197.19,87.17L197.35,87.19L197.44,87.27"/><path d="M200.39,85.34L200.39,85.20L200.76,84.98L200.92,84.98L201.07,85.08L201.05,85.19L200.67,85.40L200.51,85.41L200.39,85.34"/><path d="M200.37,85.31L200.80,85.08L200.96,85.10L201.05,85.18"/><path d="M203.94,83.24L203.96,83.14L204.33,82.92L204.49,82.92L204.64,83.02L204.61,83.13L204.24,83.34L204.08,83.34L203.94,83.24"/><path d="M204.62,83.12L204.52,83.04L204.36,83.02L203.94,83.24"/><path d="M207.46,81.20L207.88,80.98L208.08,81.03L208.10,81.11L207.72,81.31L207.48,81.23L207.48,81.10L207.90,80.88L208.10,80.92L208.15,80.98L208.13,81.08"/><path d="M211.61,79.07L211.24,79.28L211.09,79.28L210.96,79.22L210.94,79.12L210.99,79.06L211.37,78.87L211.57,78.91L211.63,79.04L211.30,78.98L210.94,79.19"/></g></g><g id="Actor_54.0"><g style="stroke:#000000;stroke-width:0.123"><path d="M143.11,149.82L142.03,150.50L141.78,150.81L143.11,149.85L133.46,140.10L132.05,141.04L129.95,138.91L130.11,138.59L131.26,137.89L121.89,128.45L120.84,129.06L120.60,129.35L120.24,129.06L117.85,126.64L117.99,126.31L119.12,125.66L105.50,111.95L104.39,112.55L104.25,112.78L104.60,114.84L121.21,131.67"/><path d="M117.83,126.62L117.96,126.54L120.64,129.26"/><path d="M117.96,126.54L118.08,126.36L119.10,125.78L119.12,125.66"/><path d="M117.98,126.48L118.04,126.54"/><path d="M120.67,129.20L119.07,127.58"/><path d="M126.34,136.90L121.03,131.49L121.06,131.62"/><path d="M155.99,165.66L156.81,166.50L156.03,167.00L156.02,164.96L157.22,164.13L157.22,164.02L156.12,164.76L155.86,165.08L155.86,167.03L126.26,136.85"/><path d="M132.19,140.95L130.10,138.84L129.94,138.90"/><path d="M130.12,138.77L130.10,138.75"/><path d="M130.08,138.82L130.20,138.63L131.27,137.99L131.26,137.89"/><path d="M132.10,140.78L130.81,139.47"/><path d="M157.22,164.02L145.46,152.19L144.38,152.88L144.13,153.19L141.77,150.89"/><path d="M144.17,153.10L141.90,150.80"/><path d="M155.87,167.10L156.13,167.07L156.81,166.61L156.81,166.50"/></g></g><g id="Actor_28.1"><g style="stroke:#000000;stroke-width:0.123"><path d="M158.80,107.29L158.71,107.08L156.25,105.00L156.16,104.97L156.14,105.03"/><path d="M158.90,107.37L158.86,107.19L158.71,106.98L156.23,104.88L156.09,104.84L156.05,104.95"/><path d="M156.09,104.84L183.56,89.22L183.72,89.26L186.34,91.24L186.43,91.51L186.32,92.90L185.38,93.45L185.46,93.63L186.25,94.22L160.80,108.98"/><path d="M157.16,105.90L157.18,105.82L157.11,105.86"/><path d="M157.16,105.90L157.25,105.85"/><path d="M160.00,108.30L159.93,108.15L159.86,108.19"/><path d="M160.87,109.05L186.24,94.33L186.25,94.22"/><path d="M163.30,106.81L163.39,106.98L163.67,107.00L164.16,106.72L164.20,106.57L164.06,106.45L163.83,106.45L163.38,106.70L163.30,106.81"/><path d="M163.30,106.89L163.88,106.54L164.05,106.55L164.20,106.67"/><path d="M167.24,104.61L167.81,104.27L167.98,104.28L168.13,104.39"/><path d="M167.33,104.70L167.50,104.74L167.66,104.70L168.09,104.44L168.13,104.29L167.99,104.17L167.71,104.20L167.25,104.49L167.24,104.60L167.33,104.70"/><path d="M174.89,100.13L174.93,100.02L175.40,99.75L175.62,99.75L175.77,99.87L175.73,100.02L175.26,100.29L175.04,100.29L174.89,100.13"/><path d="M175.76,99.97L175.62,99.86L175.45,99.85L174.90,100.17"/><path d="M183.20,95.67L182.72,95.97L182.50,95.97L182.37,95.89L182.34,95.82L182.38,95.71L182.89,95.43L183.15,95.49L183.21,95.56L183.20,95.67L183.10,95.57L182.88,95.54L182.35,95.86"/></g></g><g id="Actor_30.1"><g style="stroke:#000000;stroke-width:0.123"><path d="M74.52,82.69L74.30,81.88L74.68,83.46L75.69,84.51L75.67,84.43L74.71,83.45L74.52,82.69"/><path d="M74.35,81.93L107.14,66.70L107.35,68.17L108.37,69.09L75.67,84.43"/><path d="M74.30,81.88L107.09,66.65L107.14,66.70"/><path d="M75.69,84.51L108.38,69.17L108.37,69.09"/></g></g><g id="Actor_27.2"><g style="stroke:#000000;stroke-width:0.123"><path d="M122.29,76.35L122.31,76.26L122.35,76.28L124.15,77.80L124.24,78.00"/><path d="M122.21,76.28L122.25,76.14L122.33,76.17L124.14,77.70L124.27,77.88L124.32,78.07"/><path d="M122.25,76.14L148.72,63.14L148.82,63.17L150.75,64.63L150.85,64.89L150.87,66.34"/><path d="M123.41,77.29L123.50,77.25"/><path d="M150.06,66.66L150.14,66.82L150.71,67.25L126.07,79.56"/><path d="M126.16,79.63L150.71,67.35L150.71,67.25"/><path d="M128.71,77.70L128.77,77.61L129.24,77.37L129.44,77.37L129.56,77.47L129.51,77.60L129.04,77.83L128.84,77.84L128.71,77.70"/><path d="M128.73,77.77L129.25,77.48L129.40,77.47L129.56,77.54"/><path d="M146.72,68.75L146.77,68.63L147.22,68.41L147.42,68.41L147.54,68.51L147.49,68.63L147.04,68.84L146.86,68.85L146.72,68.75"/><path d="M147.53,68.59L147.42,68.52L147.22,68.52L146.74,68.78"/><path d="M150.82,66.38L150.08,66.75"/></g></g><g id="Actor_.10"><g style="stroke:#000000;stroke-width:0.123"><path d="M119.75,78.70L119.77,78.63L119.72,78.54L119.61,78.49L119.46,78.48L119.32,78.52L119.22,78.60L119.19,78.69L119.23,78.75"/><path d="M119.20,78.74L119.16,78.67L119.19,78.56L119.30,78.48L119.45,78.43L119.62,78.44L119.75,78.50L119.80,78.60L119.78,78.68"/></g></g><g id="Actor_43.0"><g style="stroke:#000000;stroke-width:0.123"><path d="M115.18,40.47L102.49,30.80L115.26,40.43"/><path d="M102.49,30.80L103.16,30.53L103.23,30.27"/><path d="M104.77,31.97L104.44,31.77L104.22,31.85L104.42,31.68L104.79,31.95L104.55,32.05L104.22,31.85"/><path d="M166.88,73.76L167.67,74.34L166.87,74.71L166.83,73.18L163.06,70.39L162.78,70.47L160.88,69.06L161.07,68.96L160.01,68.14L153.19,63.10L152.85,63.13L151.09,61.83L151.32,61.75L151.24,61.67L105.57,27.95L104.45,28.34"/><path d="M112.41,38.03L112.76,38.24L112.97,38.18L113.00,38.09L112.62,37.84L112.41,38.03L112.63,37.94L112.99,38.16"/><path d="M130.24,51.74L118.40,42.81"/><path d="M130.16,51.78L118.89,43.27"/><path d="M121.04,44.53L121.26,44.44L121.64,44.68"/><path d="M121.33,44.36L121.01,44.50L121.28,44.72L121.63,44.70L121.33,44.36"/><path d="M130.48,51.63L130.16,51.41L130.21,51.23L130.51,51.25L130.79,51.49"/><path d="M130.73,51.52L130.42,51.32L130.14,51.39"/><path d="M146.68,64.15L133.52,54.22"/><path d="M146.60,64.19L134.06,54.72"/><path d="M140.44,58.83L140.00,58.56L139.77,58.65"/><path d="M140.00,58.46L139.76,58.63L140.21,58.92L140.46,58.80L140.00,58.46"/><path d="M150.11,66.74L163.26,76.66L164.07,76.18L164.11,74.75L164.24,74.49L166.83,73.18"/><path d="M165.54,73.90L166.81,74.84L166.79,73.35L166.69,73.30L164.27,74.58L164.17,76.16L163.98,76.39L163.30,76.75L150.71,67.29"/><path d="M150.61,66.49L150.66,66.54"/><path d="M150.68,66.45L150.52,66.62L150.35,66.61"/><path d="M151.30,61.88L151.18,61.90"/><path d="M151.37,61.77L151.41,61.82"/><path d="M160.78,74.48L161.10,74.40L161.51,74.71"/><path d="M160.78,74.38L161.19,74.78L161.53,74.67L161.10,74.30L160.78,74.38"/><path d="M161.07,69.09L160.94,69.11"/><path d="M161.14,68.98L161.18,69.04"/><path d="M163.26,76.77L163.26,76.66"/><path d="M166.81,74.84L167.66,74.45L167.67,74.34"/></g></g><g id="Actor_52.0"><g style="stroke:#000000;stroke-width:0.123"><path d="M160.66,164.54L160.66,162.53L160.15,161.32L160.15,161.21L160.62,162.30L160.73,162.64L160.70,164.74L160.60,164.61L160.13,163.52L160.13,163.42L160.60,164.51L160.64,164.57L160.66,164.54"/><path d="M160.70,164.74L163.48,163.95L163.50,163.88L163.60,163.88L163.69,163.93L170.02,170.18L170.17,170.27L170.36,170.29L170.52,170.23L170.49,170.30L170.38,170.28"/><path d="M160.67,163.26L160.13,163.42"/><path d="M160.15,161.21L162.94,160.42L163.42,161.50L163.54,161.99L163.64,161.99L163.73,162.03L163.87,161.76L164.01,161.64L165.08,160.91L170.52,166.23L181.58,158.60L182.65,159.62L182.75,159.92L170.61,168.34L170.44,168.41L170.26,168.39L170.10,168.30L170.24,168.21L170.36,168.26L170.49,168.23L170.61,168.34L170.58,168.21L170.38,167.90L170.52,166.23"/><path d="M163.69,163.93L163.73,164.00L170.05,170.26L170.16,170.26"/><path d="M163.78,161.89L163.69,161.85L163.52,161.85"/><path d="M163.73,162.03L170.10,168.30L170.25,168.02L170.38,167.90L170.38,168.01L170.24,168.21"/><path d="M170.52,170.23L182.59,161.82L182.75,159.92"/><path d="M170.02,170.18L170.05,170.26"/><path d="M170.49,170.30L182.55,161.89L182.59,161.82"/><path d="M170.49,168.23L170.38,168.01"/><path d="M172.04,167.83L172.15,167.93L172.06,167.95L172.03,167.90L172.09,167.73L172.33,167.53L172.43,167.51L172.47,167.57L172.41,167.51"/><path d="M172.15,167.93L172.05,168.10L172.08,168.16L172.29,168.06L172.45,167.82L172.37,167.87L172.27,168.02L172.14,168.08L172.18,167.95L172.29,167.85L172.26,167.82"/><path d="M172.06,167.84L172.08,167.81"/><path d="M172.06,167.80L172.12,167.85L172.23,167.65L172.34,167.59L172.39,167.63L172.47,167.57"/><path d="M172.14,168.08L172.08,168.02"/><path d="M172.12,167.85L172.16,167.87L172.30,167.79L172.29,167.85"/><path d="M172.86,167.53L172.94,167.61L172.85,167.67L172.88,167.21L172.55,167.44L172.55,167.38L172.97,167.09L172.94,167.61"/><path d="M173.50,166.83L173.42,166.89L173.38,166.86L173.30,166.90L173.16,167.12L173.15,167.20L173.34,167.00L173.46,166.97L173.50,167.05L173.38,167.29L173.16,167.43L173.08,167.41L173.08,167.18L173.13,167.05L173.33,166.82L173.44,166.78L173.50,166.83L173.44,166.78"/><path d="M173.17,167.35L173.21,167.36L173.34,167.27L173.41,167.11L173.40,167.06L173.22,167.15L173.15,167.30L173.17,167.35L173.07,167.26"/><path d="M172.31,167.54L172.37,167.60"/><path d="M173.10,167.29L173.06,167.31"/><path d="M172.88,167.21L172.84,167.18"/><path d="M173.15,167.20L173.09,167.14"/><path d="M174.15,166.57L174.13,166.58"/><path d="M174.41,166.08L174.45,166.12L174.12,166.34L174.13,166.28L174.57,165.98L174.19,166.62L174.14,166.57"/><path d="M174.45,166.12L174.21,166.45L174.11,166.69L174.15,166.73L174.25,166.70L174.48,166.49L174.53,166.36L174.45,166.41L174.38,166.55L174.29,166.62L174.23,166.65L174.19,166.62"/><path d="M173.90,166.45L173.90,166.51"/><path d="M173.41,166.87L173.35,166.82"/><path d="M173.71,166.99L173.67,166.85L173.71,166.67L173.82,166.54L173.90,166.51L173.94,166.66L173.86,166.91L173.71,166.99L173.59,166.88"/><path d="M173.90,166.51L173.86,166.46L173.82,166.49L173.66,166.66L173.59,166.91L173.64,167.07L173.70,167.07L173.88,166.95L173.99,166.76L174.01,166.48L173.98,166.44L173.86,166.46"/><path d="M173.40,167.06L173.34,167.00"/><path d="M173.36,166.99L173.36,167.02"/><path d="M173.59,166.95L173.64,166.93"/><path d="M174.94,165.79L174.98,165.94L174.94,166.11L174.83,166.25L174.74,166.27L174.72,166.04L174.79,165.88L174.94,165.79L174.89,165.75"/><path d="M174.63,166.28L174.67,166.35L174.74,166.35L174.99,166.13L175.06,165.88L175.01,165.72L174.86,165.77L174.70,165.93L174.63,166.28"/><path d="M174.94,165.79L174.94,165.73"/><path d="M174.67,166.21L174.63,166.23"/><path d="M175.31,165.91L175.23,165.89L175.26,165.59L175.37,165.46L175.46,165.43L175.48,165.69L175.41,165.83L175.31,165.91"/><path d="M175.26,165.91L175.15,165.80"/><path d="M174.72,166.25L174.63,166.16"/><path d="M175.22,165.58L175.44,165.37L175.53,165.36L175.56,165.40L175.58,165.52L175.50,165.77L175.35,165.94L175.19,165.99L175.14,165.82L175.22,165.58"/><path d="M175.14,165.87L175.19,165.85"/><path d="M176.00,165.34L176.08,165.29L175.94,165.52L175.80,165.62L175.70,165.65L175.66,165.61L175.76,165.37L176.00,165.04L175.68,165.27L175.68,165.20L176.12,164.90L175.74,165.54L175.78,165.57L175.84,165.55L175.92,165.48L176.00,165.34"/><path d="M175.45,165.37L175.45,165.43"/><path d="M176.49,164.72L176.52,164.87L176.49,165.04L176.39,165.16L176.29,165.20L176.27,164.97L176.34,164.80L176.49,164.72L176.44,164.67"/><path d="M176.29,165.20L176.18,165.09"/><path d="M176.18,165.21L176.22,165.27L176.29,165.27L176.53,165.06L176.61,164.81L176.56,164.64L176.41,164.69L176.25,164.86L176.18,165.21"/><path d="M175.74,165.54L175.69,165.49"/><path d="M175.46,165.43L175.41,165.39"/><path d="M175.70,165.50L175.68,165.51"/><path d="M176.22,165.13L176.18,165.16"/><path d="M175.97,165.01L176.00,165.04"/><path d="M177.18,164.37L177.19,164.31L176.94,164.48L176.93,164.55L177.18,164.37L177.14,164.34"/><path d="M176.48,164.71L176.48,164.65"/><path d="M177.88,164.11L177.91,164.15L177.49,164.44L177.78,163.75L177.86,163.69L177.68,164.18L177.60,164.31L177.56,164.28"/><path d="M177.91,164.15L177.92,164.08L177.60,164.31"/><path d="M178.04,163.87L178.06,163.86"/><path d="M178.04,163.62L178.36,163.40L178.05,163.86L178.02,163.97L178.06,164.01L178.16,163.98L178.38,163.78L178.44,163.65L178.35,163.70L178.28,163.84L178.20,163.91L178.14,163.93L178.10,163.90L178.48,163.26L178.04,163.56L178.04,163.62"/><path d="M178.10,163.90L178.05,163.85"/><path d="M178.36,163.40L178.33,163.37"/></g></g><g id="Actor_46.0"><g style="stroke:#000000;stroke-width:0.123"><path d="M178.61,132.05L212.52,161.49L213.54,160.56L213.81,159.18L214.01,158.86L217.08,156.68L141.44,92.57L138.53,94.06L138.40,94.33L138.42,95.84L137.56,96.31L150.83,107.82"/><path d="M137.56,96.31L150.75,107.87"/><path d="M145.76,102.83L145.49,102.81L145.09,102.39L145.54,102.29L145.91,102.69L145.76,102.83"/><path d="M145.10,102.47L145.38,102.33L145.90,102.72"/><path d="M163.45,118.78L154.71,111.19"/><path d="M163.38,118.82L155.56,112.04"/><path d="M156.69,111.93L156.22,112.03L156.61,112.46L156.89,112.52L157.07,112.29L156.69,111.93"/><path d="M156.23,112.11L156.51,111.97L157.07,112.39"/><path d="M165.88,117.33L165.82,117.17L165.47,117.57"/><path d="M175.72,129.43L166.30,121.25"/><path d="M175.65,129.48L166.22,121.30"/><path d="M166.02,118.96L166.12,119.05"/><path d="M165.59,117.49L165.82,117.28"/><path d="M165.82,117.17L168.11,119.14L167.75,119.55L167.69,120.40"/><path d="M168.58,122.82L168.89,122.80L168.91,122.51L168.56,122.20L168.17,122.18L168.14,122.46L168.58,122.82"/><path d="M168.09,122.39L168.37,122.24L168.97,122.70"/><path d="M167.97,119.13L168.03,119.18"/><path d="M178.50,129.72L178.36,129.60"/><path d="M177.88,128.07L178.12,127.73L177.75,128.15"/><path d="M178.12,127.73L180.56,129.82L180.20,130.20L180.10,131.10"/><path d="M178.11,127.84L178.18,127.89"/><path d="M212.54,161.38L178.69,132.00"/><path d="M180.81,133.44L180.83,133.13L181.14,133.11L181.67,133.57L181.66,133.73L181.28,133.82L180.81,133.44"/><path d="M181.66,133.71L181.22,133.27L180.91,133.20L180.74,133.33"/><path d="M180.48,129.87L180.41,129.81"/><path d="M194.97,145.62L194.36,145.18L194.37,144.86L194.69,144.84L195.19,145.25L195.27,145.42L194.97,145.62"/><path d="M195.25,145.49L194.67,144.94L194.28,145.05"/><path d="M208.82,157.69L208.82,157.50L209.21,157.41L209.75,157.85L209.83,158.12L209.43,158.22L208.82,157.69"/><path d="M208.80,157.61L209.20,157.51L209.83,158.12"/><path d="M212.52,161.49L213.59,160.63L213.93,159.09L214.48,158.59L216.88,156.84L216.69,158.30L217.73,157.65L217.76,157.55L216.86,158.20L217.08,156.68"/><path d="M215.85,157.59L216.71,158.33"/><path d="M217.76,157.55L217.06,156.96"/></g></g><g id="Actor_42.0"><g style="stroke:#000000;stroke-width:0.123"><path d="M104.61,67.80L74.96,42.06L74.94,41.96L75.75,41.52L75.48,40.22L75.57,39.98L78.08,38.96"/><path d="M74.94,41.96L104.68,67.77"/><path d="M76.61,43.11L76.84,42.92L77.19,43.22L76.94,43.33L76.61,43.11"/><path d="M76.61,43.11L76.86,43.02L77.19,43.23"/><path d="M84.39,49.77L84.75,50.10L85.02,49.94L84.64,49.67L84.39,49.77"/><path d="M84.41,49.87L84.66,49.77L85.00,50.00"/><path d="M93.15,57.23L92.87,57.21L92.62,56.92L93.02,56.84L93.25,57.04L93.15,57.23"/><path d="M93.27,57.15L92.90,56.90L92.64,57.01"/><path d="M101.36,64.57L101.75,64.83L102.01,64.70L101.60,64.34L101.33,64.47L101.36,64.57"/><path d="M102.01,64.72L101.70,64.46L101.36,64.56"/><path d="M107.02,69.80L117.19,78.63"/><path d="M106.95,69.84L117.12,78.66"/><path d="M107.01,63.40L136.99,88.81L134.12,90.27L133.99,90.54L134.07,91.98L133.18,92.51L129.06,88.93"/><path d="M110.69,72.37L110.57,72.53L110.86,72.80L111.10,72.85L111.28,72.72L110.99,72.39L110.69,72.37"/><path d="M111.27,72.74L110.85,72.45L110.59,72.56"/><path d="M119.13,77.67L119.46,77.36L121.22,78.85L120.88,79.16L120.93,80.08"/><path d="M119.25,77.61L119.51,77.49"/><path d="M120.38,81.03L120.47,80.87L120.74,80.85L121.12,81.24L120.75,81.36L120.38,81.03"/><path d="M126.55,86.75L119.61,80.73"/><path d="M121.11,81.25L120.66,80.94L120.40,81.06"/><path d="M119.54,80.77L126.48,86.79"/><path d="M119.47,77.35L119.48,77.46"/><path d="M121.13,78.88L121.15,78.89"/><path d="M128.99,88.97L133.19,92.61L133.18,92.51"/><path d="M128.51,85.75L128.86,85.41L130.71,87.00L130.38,87.29L130.40,88.24"/><path d="M128.91,85.55L128.86,85.41"/><path d="M128.63,85.69L128.87,85.52"/><path d="M130.99,89.87L130.80,90.01L130.85,90.13L131.14,90.38L131.48,90.40L131.54,90.17L130.99,89.87"/><path d="M130.82,90.09L131.18,89.99L131.57,90.31"/><path d="M130.62,87.02L130.64,87.04"/><path d="M133.19,92.61L133.98,92.19L134.19,91.95L134.16,90.35L136.83,88.94L136.93,88.94L137.05,90.41L135.88,89.44"/><path d="M137.05,90.44L137.27,90.46L138.06,90.05L138.05,89.94L137.16,90.35L136.99,88.81"/><path d="M138.05,89.94L137.08,89.11"/></g></g><g id="Actor_.11"><g style="stroke:#000000;stroke-width:0.123"><path d="M236.43,135.39L236.47,135.32L236.61,135.28L236.77,135.34L236.84,135.46L236.83,135.49"/><path d="M236.47,135.32L236.44,135.40"/><path d="M236.40,135.34L236.44,135.27L236.58,135.22L236.73,135.25L236.85,135.35L236.89,135.46"/></g></g><g id="Actor_.12"><g style="stroke:#000000;stroke-width:0.123"><path d="M152.69,145.82L152.73,145.77L152.90,145.71L153.09,145.72L153.23,145.80"/><path d="M153.12,145.87L153.18,145.85L153.29,145.74L153.31,145.59L153.23,145.46L153.08,145.38L152.90,145.36L152.73,145.42L152.62,145.54L152.60,145.68L152.67,145.81L152.79,145.88"/><path d="M153.22,145.84L153.33,145.72L153.35,145.56L153.26,145.41L153.10,145.32L152.89,145.30L152.70,145.37L152.58,145.50L152.56,145.66L152.64,145.81L152.73,145.86"/></g></g><g id="Actor_.13"><g style="stroke:#000000;stroke-width:0.123"><path d="M201.11,97.91L201.10,97.91L200.96,97.90"/><path d="M201.11,97.91L201.09,97.90L200.95,97.89"/><path d="M201.30,97.88L201.35,97.82L201.35,97.72L201.27,97.62L201.13,97.55L200.97,97.54L200.83,97.59L200.75,97.68L200.75,97.78L200.77,97.82"/><path d="M200.74,97.80L200.71,97.76L200.72,97.64L200.81,97.54L200.96,97.49L201.15,97.50L201.30,97.57L201.39,97.68L201.39,97.81L201.34,97.87"/></g></g><g id="Actor_.14"><g style="stroke:#000000;stroke-width:0.123"><path d="M129.19,86.85L129.21,86.76L129.16,86.67L129.04,86.61L128.88,86.60L128.74,86.64L128.64,86.72L128.62,86.82L128.66,86.89"/><path d="M128.62,86.88L128.58,86.80L128.61,86.69L128.72,86.60L128.88,86.55L129.05,86.56L129.18,86.63L129.24,86.73L129.22,86.82"/></g></g><g id="Actor_.15"><g style="stroke:#000000;stroke-width:0.123"><path d="M212.07,152.44L212.11,152.41"/><path d="M211.63,152.06L211.71,152.02L211.89,152.10L213.42,153.39L213.40,153.48L241.95,132.89L242.00,132.77L213.42,153.39"/><path d="M213.40,153.50L211.88,152.21L211.76,152.18"/><path d="M211.67,152.03L240.20,131.58L240.32,131.55L240.47,131.62L242.00,132.77"/><path d="M236.93,135.42L236.88,135.30L236.72,135.20L236.52,135.19L236.37,135.27"/><path d="M236.38,135.29L236.47,135.43L236.65,135.51L236.84,135.49L236.96,135.34L236.86,135.15L236.61,135.07L236.41,135.16L236.38,135.29"/></g></g><g id="Actor_.16"><g style="stroke:#000000;stroke-width:0.123"><path d="M213.83,107.26L213.75,107.23L213.57,107.22"/><path d="M213.56,107.22L213.57,107.21L213.74,107.22L213.83,107.26"/><path d="M213.44,107.16L213.41,107.12L213.41,107.00L213.49,106.91L213.63,106.86L213.80,106.87L213.95,106.94L214.03,107.05L214.04,107.16L213.97,107.24"/><path d="M214.01,107.23L214.08,107.14L214.08,107.02L213.98,106.90L213.81,106.82L213.63,106.81L213.46,106.86L213.37,106.97L213.38,107.10L213.41,107.13"/></g></g><g id="Actor_.17"><g style="stroke:#000000;stroke-width:0.123"><path d="M242.93,129.35L243.04,129.31L243.20,129.37L244.74,130.51L244.71,130.60L243.07,129.45"/><path d="M242.95,129.33L271.29,109.04L271.44,109.01L271.56,109.06L273.09,110.06L273.06,110.17L244.71,130.62"/><path d="M243.38,129.68L243.41,129.66"/><path d="M244.74,130.51L273.09,110.06"/><path d="M264.86,115.06L264.80,114.95L264.64,114.86L264.45,114.85L264.34,114.91"/><path d="M264.83,114.84L264.90,114.97L264.87,115.05L264.68,115.12L264.44,115.05L264.33,114.89L264.39,114.78L264.55,114.73L264.83,114.84"/></g></g><g id="Actor_.18"><g style="stroke:#000000;stroke-width:0.123"><path d="M199.22,97.35L200.75,98.44L201.34,98.92"/><path d="M229.71,81.86L229.56,81.66L227.65,80.42L227.47,80.39L199.20,97.34"/><path d="M201.43,97.47L201.50,97.58L201.49,97.74L201.41,97.83L201.21,97.91L200.82,97.84L200.70,97.76L200.62,97.60L200.68,97.45L200.93,97.33L201.25,97.36L201.43,97.47"/><path d="M201.49,97.72L201.37,97.53L201.08,97.43L200.77,97.48L200.63,97.62"/><path d="M229.56,82.84L202.33,99.38"/><path d="M221.17,85.44L221.35,85.55L221.66,85.58L221.85,85.50L221.94,85.32L221.74,85.10L221.38,85.04L221.22,85.08L221.10,85.19L221.10,85.34L221.17,85.44"/><path d="M221.92,85.43L221.78,85.24L221.57,85.15L221.27,85.16L221.08,85.30"/></g></g><g id="Actor_.19"><g style="stroke:#000000;stroke-width:0.123"><path d="M221.74,85.56L221.78,85.51L221.78,85.41L221.69,85.32L221.55,85.26L221.40,85.25L221.26,85.29L221.19,85.37L221.20,85.46"/><path d="M221.17,85.44L221.16,85.34L221.24,85.25L221.39,85.20L221.57,85.21L221.72,85.27L221.82,85.38L221.82,85.49L221.78,85.54"/></g></g><g id="Actor_.20"><g style="stroke:#000000;stroke-width:0.123"><path d="M85.98,94.11L86.01,93.95L87.40,95.33L87.55,95.57"/><path d="M86.06,94.19L86.05,94.08L87.42,95.44L87.51,95.62"/><path d="M85.99,93.94L119.52,77.48L121.01,78.72L121.14,78.89"/><path d="M86.63,94.77L86.72,94.73"/><path d="M89.41,95.72L120.95,80.07"/><path d="M96.23,90.04L96.02,89.91L95.71,89.92L95.47,90.06L95.41,90.27L95.57,90.42L95.95,90.43L96.19,90.29L96.25,90.19L96.23,90.04"/><path d="M95.42,90.30L95.53,90.12L95.81,90.01L96.11,90.04L96.25,90.16"/><path d="M119.46,78.79L119.13,78.70L119.06,78.57L119.11,78.42L119.46,78.27L119.81,78.36L119.88,78.49L119.83,78.64L119.67,78.75L119.46,78.79"/><path d="M119.08,78.62L119.22,78.45L119.42,78.38L119.71,78.41L119.87,78.55"/></g></g><g id="Actor_.21"><g style="stroke:#000000;stroke-width:0.123"><path d="M264.39,115.00L264.41,114.95L264.54,114.92L264.70,114.97L264.77,115.08L264.76,115.11"/><path d="M264.77,115.08L264.77,115.08"/><path d="M264.39,115.01L264.41,114.95"/><path d="M264.35,114.96L264.39,114.91L264.51,114.87L264.66,114.89L264.78,114.97L264.83,115.08L264.82,115.09"/></g></g><g id="Actor_.22"><g style="stroke:#000000;stroke-width:0.123"><path d="M144.21,153.04L144.01,152.73L142.13,150.82L141.97,150.74L141.93,150.83"/><path d="M144.13,153.05L144.02,152.83L142.15,150.94L142.05,150.89L142.04,150.94"/><path d="M141.97,150.74L178.15,127.90L178.32,127.96L180.27,129.64L180.45,129.89"/><path d="M142.57,151.47L142.63,151.43"/><path d="M146.10,152.83L180.13,131.08"/><path d="M153.36,145.73L153.15,145.87L152.78,145.88L152.51,145.69L152.46,145.41L152.75,145.14L153.20,145.16L153.43,145.38L153.46,145.53L153.36,145.73"/><path d="M152.45,145.57L152.60,145.33L152.94,145.22L153.28,145.31L153.45,145.55"/><path d="M177.98,129.54L177.92,129.28L178.18,129.04L178.61,129.05L178.87,129.32L178.81,129.57L178.53,129.72L178.18,129.68L177.98,129.54"/><path d="M177.91,129.38L178.10,129.18L178.44,129.12L178.75,129.25L178.87,129.46"/></g></g><g id="Actor_.23"><g style="stroke:#000000;stroke-width:0.123"><path d="M211.82,106.66L213.71,108.01L214.08,108.33"/><path d="M242.60,90.27L242.44,90.05L240.42,88.74L240.23,88.71L211.80,106.65"/><path d="M213.65,107.25L213.98,107.24L214.15,107.13L214.20,106.96L214.12,106.80L213.92,106.67L213.67,106.63L213.34,106.77L213.29,106.87L213.33,107.05L213.65,107.25"/><path d="M214.19,107.07L214.04,106.86L213.74,106.74L213.43,106.79L213.29,106.93"/><path d="M215.04,108.76L242.41,91.25"/><path d="M234.47,94.19L234.23,94.19L233.97,94.06L233.86,93.90L233.90,93.74L234.21,93.62L234.60,93.72L234.70,93.82L234.75,93.98L234.67,94.12L234.47,94.19"/><path d="M234.72,94.05L234.63,93.88L234.35,93.74L234.04,93.75L233.86,93.88"/></g></g><g id="Actor_.24"><g style="stroke:#000000;stroke-width:0.123"><path d="M234.53,94.18L234.59,94.12L234.57,94.01L234.48,93.91L234.34,93.85L234.17,93.84L234.04,93.88L233.97,93.97L233.98,94.07"/><path d="M233.95,94.04L233.94,93.94L234.02,93.84L234.17,93.79L234.35,93.80L234.51,93.87L234.62,93.98L234.63,94.10L234.57,94.17"/></g></g><g id="Actor_.25"><g style="stroke:#000000;stroke-width:0.123"><path d="M94.88,103.12L94.86,103.02L94.92,102.96L96.39,104.43L96.55,104.69"/><path d="M94.95,103.20L94.95,103.09L96.41,104.54L96.51,104.74"/><path d="M94.87,102.96L128.89,85.56L129.02,85.58L130.50,86.86L130.63,87.04"/><path d="M95.52,103.78L95.61,103.73"/><path d="M130.42,88.23L98.42,104.79"/><path d="M105.19,99.18L104.89,99.27L104.66,99.23L104.52,99.12L104.49,98.96L104.59,98.80L104.79,98.70L105.18,98.71L105.33,98.83L105.36,98.93L105.19,99.18"/><path d="M105.36,98.96L105.21,98.83L104.89,98.79L104.61,98.91L104.50,99.09"/><path d="M128.49,86.74L128.50,86.59L128.57,86.50L128.91,86.38L129.24,86.48L129.32,86.61L129.28,86.77L129.12,86.89L128.89,86.93L128.56,86.83L128.49,86.74L128.54,86.65L128.84,86.50L129.14,86.52L129.32,86.68"/></g></g><g id="Actor_.26"><g style="stroke:#000000;stroke-width:0.123"><path d="M178.13,129.66L178.13,129.65L178.29,129.60L178.47,129.61L178.62,129.69L178.62,129.69"/><path d="M178.62,129.69L178.71,129.59L178.72,129.46L178.64,129.34L178.49,129.26L178.32,129.25L178.16,129.30L178.06,129.41L178.05,129.54L178.13,129.66"/><path d="M178.09,129.64L178.01,129.52L178.02,129.37L178.13,129.25L178.31,129.19L178.51,129.21L178.67,129.29L178.76,129.43L178.75,129.58L178.66,129.68"/></g></g><g id="Actor_.27"><g style="stroke:#000000;stroke-width:0.123"><path d="M104.91,99.27L104.98,99.25L105.03,99.25"/><path d="M104.89,99.27L104.98,99.24L105.04,99.25"/><path d="M105.22,99.16L105.25,99.07L105.20,98.97L105.08,98.91L104.93,98.90L104.77,98.94L104.67,99.03L104.63,99.14L104.68,99.24"/><path d="M104.64,99.22L104.59,99.12L104.63,99.00L104.75,98.90L104.92,98.85L105.10,98.86L105.23,98.93L105.29,99.04L105.25,99.14"/></g></g><g id="PMI41.0"><g><path style="stroke:#000000;stroke-width:0.280" d="M99.27,17.18L99.20,23.71"/></g><g><path style="fill:#000000" d="M98.21,23.71L100.21,23.73L99.19,25.72z"/></g><g><path style="fill:#ffffff" d="M89.35,17.20L109.27,17.20L109.27,11.55L89.35,11.55z"/><path style="stroke:#000000;stroke-width:0.280;stroke-opacity:0.98" d="M89.35,17.20L109.27,17.20L109.27,11.55L89.35,11.55z"/><text xml:space="preserve" fill="#000000" stroke-width="0" x="90.05" y="15.61" font-size="3.44" opacity="1.00" font-family="Microsoft Sans Serif">0200379W1</text></g></g><g id="PMI22.0"><g><path style="stroke:#000000;stroke-width:0.280" d="M64.12,34.97L71.40,34.96"/></g><g><path style="fill:#000000" d="M71.43,35.99L71.43,33.99L73.43,34.98z"/></g><g><path style="fill:#ffffff" d="M45.18,37.82L64.15,37.82L64.15,32.18L45.18,32.18z"/><path style="stroke:#000000;stroke-width:0.280;stroke-opacity:0.98" d="M45.18,37.82L64.15,37.82L64.15,32.18L45.18,32.18z"/><text xml:space="preserve" fill="#000000" stroke-width="0" x="45.89" y="36.24" font-size="3.43" opacity="1.00" font-family="Microsoft Sans Serif">0200379X1</text></g></g><g id="PMI30.0"><g><path style="stroke:#000000;stroke-width:0.280" d="M157.28,34.64L157.29,42.50"/></g><g><path style="fill:#000000" d="M156.29,42.52L158.29,42.51L157.29,44.51z"/></g><g><path style="fill:#ffffff" d="M147.79,34.65L166.76,34.65L166.76,29.01L147.79,29.01z"/><path style="stroke:#000000;stroke-width:0.280;stroke-opacity:0.98" d="M147.79,34.65L166.76,34.65L166.76,29.01L147.79,29.01z"/><text xml:space="preserve" fill="#000000" stroke-width="0" x="148.50" y="33.06" font-size="3.43" opacity="1.00" font-family="Microsoft Sans Serif">0200379V1</text></g></g><g id="PMI43.0"><g><path style="stroke:#000000;stroke-width:0.280" d="M134.04,41.52L133.91,48.01"/></g><g><path style="fill:#000000" d="M132.91,48.00L134.91,48.04L133.87,50.02z"/></g><g><path style="fill:#ffffff" d="M124.52,41.53L143.68,41.53L143.68,35.88L124.52,35.88z"/><path style="stroke:#000000;stroke-width:0.280;stroke-opacity:0.98" d="M124.52,41.53L143.68,41.53L143.68,35.88L124.52,35.88z"/><text xml:space="preserve" fill="#000000" stroke-width="0" x="125.23" y="39.94" font-size="3.43" opacity="1.00" font-family="Microsoft Sans Serif">0200379N1</text></g></g><g id="PMI57.0"><g><path style="stroke:#000000;stroke-width:0.280" d="M191.17,48.98L180.45,48.64"/></g><g><path style="fill:#000000" d="M180.48,47.65L180.42,49.65L178.45,48.58z"/></g><g><path style="fill:#ffffff" d="M191.17,52.11L210.32,52.11L210.32,46.46L191.17,46.46z"/><path style="stroke:#000000;stroke-width:0.280;stroke-opacity:0.98" d="M191.17,52.11L210.32,52.11L210.32,46.46L191.17,46.46z"/><text xml:space="preserve" fill="#000000" stroke-width="0" x="191.87" y="50.52" font-size="3.43" opacity="1.00" font-family="Microsoft Sans Serif">0200379D1</text></g></g><g id="PMI27.0"><g><path style="stroke:#000000;stroke-width:0.280" d="M127.98,60.47L127.79,56.16"/></g><g><path style="fill:#000000" d="M128.79,56.12L126.80,56.21L127.71,54.17z"/></g><g><path style="fill:#ffffff" d="M118.44,66.12L137.79,66.12L137.79,60.48L118.44,60.48z"/><path style="stroke:#000000;stroke-width:0.280;stroke-opacity:0.98" d="M118.44,66.12L137.79,66.12L137.79,60.48L118.44,60.48z"/><text xml:space="preserve" fill="#000000" stroke-width="0" x="119.14" y="64.54" font-size="3.43" opacity="1.00" font-family="Microsoft Sans Serif">0200379O1</text></g></g><g id="PMI42.0"><g><path style="stroke:#000000;stroke-width:0.280" d="M93.89,64.72L99.97,64.62"/></g><g><path style="fill:#000000" d="M100.00,65.64L99.97,63.64L101.98,64.60z"/></g><g><path style="fill:#ffffff" d="M75.33,67.71L93.91,67.71L93.91,62.07L75.33,62.07z"/><path style="stroke:#000000;stroke-width:0.280;stroke-opacity:0.98" d="M75.33,67.71L93.91,67.71L93.91,62.07L75.33,62.07z"/><text xml:space="preserve" fill="#000000" stroke-width="0" x="76.04" y="66.12" font-size="3.43" opacity="1.00" font-family="Microsoft Sans Serif">0200379L1</text></g></g><g id="PMI29.0"><g><path style="stroke:#000000;stroke-width:0.280" d="M196.59,83.36L201.97,83.19"/></g><g><path style="fill:#000000" d="M201.99,84.20L201.93,82.20L203.96,83.14z"/></g><g><path style="fill:#ffffff" d="M177.42,86.49L196.57,86.49L196.57,80.84L177.42,80.84z"/><path style="stroke:#000000;stroke-width:0.280;stroke-opacity:0.98" d="M177.42,86.49L196.57,86.49L196.57,80.84L177.42,80.84z"/><text xml:space="preserve" fill="#000000" stroke-width="0" x="178.12" y="84.90" font-size="3.43" opacity="1.00" font-family="Microsoft Sans Serif">0200379U1</text></g></g><g id="PMI55.0"><g><path style="stroke:#000000;stroke-width:0.280" d="M229.98,73.79L229.65,82.05"/></g><g><path style="fill:#000000" d="M228.64,82.01L230.64,82.09L229.56,84.05z"/></g><g><path style="fill:#ffffff" d="M220.79,73.79L239.37,73.79L239.37,68.15L220.79,68.15z"/><path style="stroke:#000000;stroke-width:0.280;stroke-opacity:0.98" d="M220.79,73.79L239.37,73.79L239.37,68.15L220.79,68.15z"/><text xml:space="preserve" fill="#000000" stroke-width="0" x="221.49" y="72.21" font-size="3.10" opacity="1.00" font-family="Microsoft Sans Serif">020037991</text></g></g><g id="PMI56.0"><g><path style="stroke:#000000;stroke-width:0.280" d="M77.87,94.13L83.88,94.05"/></g><g><path style="fill:#000000" d="M83.92,95.06L83.89,93.06L85.90,94.03z"/></g><g><path style="fill:#ffffff" d="M58.93,97.07L77.90,97.07L77.90,91.42L58.93,91.42z"/><path style="stroke:#000000;stroke-width:0.280;stroke-opacity:0.98" d="M58.93,97.07L77.90,97.07L77.90,91.42L58.93,91.42z"/><text xml:space="preserve" fill="#000000" stroke-width="0" x="59.64" y="95.48" font-size="3.43" opacity="1.00" font-family="Microsoft Sans Serif">0200379B1</text></g></g><g id="PMI58.0"><g><path style="stroke:#000000;stroke-width:0.280" d="M234.11,100.94L234.04,96.20"/></g><g><path style="fill:#000000" d="M235.02,96.19L233.02,96.22L233.99,94.20z"/></g><g><path style="fill:#ffffff" d="M224.76,106.59L243.53,106.59L243.53,100.94L224.76,100.94z"/><path style="stroke:#000000;stroke-width:0.280;stroke-opacity:0.98" d="M224.76,106.59L243.53,106.59L243.53,100.94L224.76,100.94z"/><text xml:space="preserve" fill="#000000" stroke-width="0" x="225.46" y="105.00" font-size="3.43" opacity="1.00" font-family="Microsoft Sans Serif">0200379F1</text></g></g><g id="PMI47.0"><g><path style="stroke:#000000;stroke-width:0.280" d="M209.69,101.80L205.56,101.63"/></g><g><path style="fill:#000000" d="M205.60,100.63L205.52,102.63L203.56,101.55z"/></g><g><path style="fill:#ffffff" d="M209.68,105.00L228.65,105.00L228.65,99.36L209.68,99.36z"/><path style="stroke:#000000;stroke-width:0.280;stroke-opacity:0.98" d="M209.68,105.00L228.65,105.00L228.65,99.36L209.68,99.36z"/><text xml:space="preserve" fill="#000000" stroke-width="0" x="210.39" y="103.41" font-size="3.43" opacity="1.00" font-family="Microsoft Sans Serif">0200379S1</text></g></g><g id="PMI28.0"><g><path style="stroke:#000000;stroke-width:0.280" d="M196.56,110.29L196.51,115.22"/></g><g><path style="fill:#000000" d="M195.50,115.20L197.50,115.23L196.48,117.22z"/></g><g><path style="fill:#ffffff" d="M187.20,110.29L205.97,110.29L205.97,104.65L187.20,104.65z"/><path style="stroke:#000000;stroke-width:0.280;stroke-opacity:0.98" d="M187.20,110.29L205.97,110.29L205.97,104.65L187.20,104.65z"/><text xml:space="preserve" fill="#000000" stroke-width="0" x="187.91" y="108.70" font-size="3.43" opacity="1.00" font-family="Microsoft Sans Serif">0200379T1</text></g></g><g id="PMI45.0"><g><path style="stroke:#000000;stroke-width:0.280" d="M254.53,115.56L262.45,115.24"/></g><g><path style="fill:#000000" d="M262.45,116.24L262.37,114.24L264.41,115.16z"/></g><g><path style="fill:#ffffff" d="M235.33,118.75L254.49,118.75L254.49,113.11L235.33,113.11z"/><path style="stroke:#000000;stroke-width:0.280;stroke-opacity:0.98" d="M235.33,118.75L254.49,118.75L254.49,113.11L235.33,113.11z"/><text xml:space="preserve" fill="#000000" stroke-width="0" x="236.04" y="117.17" font-size="3.43" opacity="1.00" font-family="Microsoft Sans Serif">0200379H1</text></g></g><g id="PMI46.0"><g><path style="stroke:#000000;stroke-width:0.280" d="M163.25,122.77L166.96,122.75"/></g><g><path style="fill:#000000" d="M166.96,123.74L166.95,121.74L168.95,122.73z"/></g><g><path style="fill:#ffffff" d="M144.09,125.63L163.25,125.63L163.25,119.99L144.09,119.99z"/><path style="stroke:#000000;stroke-width:0.280;stroke-opacity:0.98" d="M144.09,125.63L163.25,125.63L163.25,119.99L144.09,119.99z"/><text xml:space="preserve" fill="#000000" stroke-width="0" x="144.80" y="124.04" font-size="3.43" opacity="1.00" font-family="Microsoft Sans Serif">0200379R1</text></g></g><g id="PMI54.0"><g><path style="stroke:#000000;stroke-width:0.280" d="M120.08,137.57L125.97,137.54"/></g><g><path style="fill:#000000" d="M125.98,138.53L125.97,136.53L127.98,137.52z"/></g><g><path style="fill:#ffffff" d="M101.51,140.44L120.09,140.44L120.09,134.80L101.51,134.80z"/><path style="stroke:#000000;stroke-width:0.280;stroke-opacity:0.98" d="M101.51,140.44L120.09,140.44L120.09,134.80L101.51,134.80z"/><text xml:space="preserve" fill="#000000" stroke-width="0" x="102.22" y="138.85" font-size="3.10" opacity="1.00" font-family="Microsoft Sans Serif">020037961</text></g></g><g id="PMI20.0"><g><path style="stroke:#000000;stroke-width:0.280" d="M276.48,121.66L275.99,129.94"/></g><g><path style="fill:#000000" d="M274.97,129.88L276.97,130.00L275.85,131.94z"/></g><g><path style="fill:#ffffff" d="M267.34,121.66L285.92,121.66L285.92,116.02L267.34,116.02z"/><path style="stroke:#000000;stroke-width:0.280;stroke-opacity:0.98" d="M267.34,121.66L285.92,121.66L285.92,116.02L267.34,116.02z"/><text xml:space="preserve" fill="#000000" stroke-width="0" x="268.04" y="120.07" font-size="3.10" opacity="1.00" font-family="Microsoft Sans Serif">020032812</text></g></g><g id="PMI44.0"><g><path style="stroke:#000000;stroke-width:0.280" d="M236.36,140.62L236.44,137.32"/></g><g><path style="fill:#000000" d="M237.42,137.34L235.42,137.30L236.47,135.32z"/></g><g><path style="fill:#ffffff" d="M226.61,146.26L245.95,146.26L245.95,140.61L226.61,140.61z"/><path style="stroke:#000000;stroke-width:0.280;stroke-opacity:0.98" d="M226.61,146.26L245.95,146.26L245.95,140.61L226.61,140.61z"/><text xml:space="preserve" fill="#000000" stroke-width="0" x="227.31" y="144.67" font-size="3.43" opacity="1.00" font-family="Microsoft Sans Serif">0200379G1</text></g></g><g id="PMI52.0"><g><path style="stroke:#000000;stroke-width:0.280" d="M176.35,155.26L176.24,162.43"/></g><g><path style="fill:#000000" d="M175.23,162.41L177.23,162.44L176.20,164.42z"/></g><g><path style="fill:#ffffff" d="M167.10,155.25L185.68,155.25L185.68,149.61L167.10,149.61z"/><path style="stroke:#000000;stroke-width:0.280;stroke-opacity:0.98" d="M167.10,155.25L185.68,155.25L185.68,149.61L167.10,149.61z"/><text xml:space="preserve" fill="#000000" stroke-width="0" x="167.81" y="153.66" font-size="3.43" opacity="1.00" font-family="Microsoft Sans Serif">0200209L2</text></g></g><g id="PMI53.0"><g><path style="stroke:#000000;stroke-width:0.280" d="M193.59,177.65L193.58,172.60"/></g><g><path style="fill:#000000" d="M194.57,172.59L192.57,172.59L193.57,170.59z"/></g><g><path style="fill:#ffffff" d="M184.29,183.28L202.87,183.28L202.87,177.64L184.29,177.64z"/><path style="stroke:#000000;stroke-width:0.280;stroke-opacity:0.98" d="M184.29,183.28L202.87,183.28L202.87,177.64L184.29,177.64z"/><text xml:space="preserve" fill="#000000" stroke-width="0" x="185.00" y="181.70" font-size="3.10" opacity="1.00" font-family="Microsoft Sans Serif">020032752</text></g></g><g id="PMI19.0"><g><path style="stroke:#000000;stroke-width:0.280" d="M227.96,178.71L227.88,169.80"/></g><g><path style="fill:#000000" d="M228.87,169.77L226.87,169.79L227.85,167.78z"/></g><g><path style="fill:#ffffff" d="M218.67,184.34L237.25,184.34L237.25,178.70L218.67,178.70z"/><path style="stroke:#000000;stroke-width:0.280;stroke-opacity:0.98" d="M218.67,184.34L237.25,184.34L237.25,178.70L218.67,178.70z"/><text xml:space="preserve" fill="#000000" stroke-width="0" x="219.38" y="182.75" font-size="3.10" opacity="1.00" font-family="Microsoft Sans Serif">020032801</text></g></g><g/><g id="paperID" visibility="hidden" opacity="0.00" transform="scale(0.000100)"><path style="stroke:#000000;stroke-width:0.500;fill:#e6e6e6;fill-rule:evenodd" d="M-2000.00,-2000.00L2297.00,-2000.00L2297.00,2210.00L-2000.00,2210.00zM0.00,0.00L297.00,0.00L297.00,210.00L0.00,210.00z"/><path style="fill:#000000;fill-opacity:0.118" d="M3.00,210.00L297.00,210.00L297.00,3.00L300.00,3.00L300.00,213.00L3.00,213.00z"/></g><g id="hotspot.0" onmouseover="ShowHotSpot(evt,'0')" onmouseout="HideHotSpot(evt,'0')" onmousemove="ShowToolTip(evt,'0',&quot;3dp2334996 (I_3DPart2334996.1)&quot;)" opacity="0"><path style="fill:#00ff00;fill-rule:evenodd" d="M248.53,152.41L249.06,153.49L248.97,154.03L247.90,153.99L243.21,157.55L243.25,158.33L242.87,158.78L241.78,158.78L238.90,160.91L239.00,161.75L228.42,169.97L228.32,178.17L237.17,178.31L237.44,178.57L237.42,184.52L218.61,184.44L218.61,178.42L227.63,178.17L227.53,170.65L222.77,174.37L221.73,174.45L221.53,173.86L211.23,181.60L211.17,182.65L211.50,182.95L210.05,184.17L209.65,184.19L209.15,183.06L208.32,182.31L207.48,182.02L207.44,181.79L220.90,171.45L222.26,171.22L222.86,170.80L222.84,169.98L225.51,168.03L226.30,168.33L226.98,168.30L227.61,167.50L226.79,167.21L226.75,166.98L235.19,160.61L236.54,160.35L236.83,159.83L236.51,159.53L246.94,151.63z"/></g><g id="hotspot.1" onmouseover="ShowHotSpot(evt,'1')" onmouseout="HideHotSpot(evt,'1')" onmousemove="ShowToolTip(evt,'1',&quot;3dp2334997 (I_3DPart2334997.2)&quot;)" opacity="0"><path style="fill:#00ff00;fill-rule:evenodd" d="M286.10,115.89L286.08,121.84L276.71,122.00L276.55,125.27L276.47,129.49L277.62,130.19L278.14,131.26L276.71,132.60L276.03,132.59L275.65,132.05L267.19,138.43L267.32,139.19L267.57,139.45L266.94,140.03L266.50,140.01L265.99,138.91L264.54,138.48L264.62,137.98L275.75,129.49L276.03,122.00L267.28,121.76L267.28,115.74L285.84,115.63z"/></g><g id="hotspot.2" onmouseover="ShowHotSpot(evt,'2')" onmouseout="HideHotSpot(evt,'2')" onmousemove="ShowToolTip(evt,'2',&quot;3dp2402706 (I_3DPart2402706.116)&quot;)" opacity="0"><path style="fill:#00ff00;fill-rule:evenodd" d="M98.56,25.20L99.11,25.52L99.11,25.80L75.99,35.02L75.05,35.00L74.47,34.41L74.15,34.45L73.97,35.35L73.09,34.96L71.83,35.66L71.30,35.29L64.61,35.25L64.46,37.49L64.18,37.99L45.12,37.92L45.12,31.90L63.93,31.81L64.44,32.09L64.61,34.57L71.31,34.54L71.59,33.92L72.65,34.51L73.18,34.58L73.11,33.39L98.33,23.64z"/></g><g id="hotspot.3" onmouseover="ShowHotSpot(evt,'3')" onmouseout="HideHotSpot(evt,'3')" onmousemove="ShowToolTip(evt,'3',&quot;3dp2402714 (I_3DPart2402714.237)&quot;)" opacity="0"><path style="fill:#00ff00;fill-rule:evenodd" d="M118.94,41.90L118.90,42.46L118.62,42.68L118.66,43.26L97.15,52.75L96.46,52.73L93.19,49.81L115.92,40.00L116.28,40.00zM133.98,51.94L134.31,53.61L133.66,54.04L134.00,54.55L128.12,57.46L128.35,59.96L137.73,60.09L138.00,60.36L137.98,65.78L137.70,66.29L118.38,66.22L118.13,62.22L117.80,62.19L110.72,65.51L109.92,65.71L107.82,63.83L107.27,63.54L107.27,63.14L108.10,62.62L107.73,61.97L130.73,51.38L131.63,51.38L131.92,51.65L132.32,51.70L133.20,51.37zM150.65,64.36L150.63,66.28L150.32,66.51L150.41,67.34L126.78,79.19L125.82,79.16L122.34,76.22L122.28,75.99L148.70,63.03zM127.66,59.96L122.79,59.87L127.32,57.70L127.65,57.72z"/></g><g id="hotspot.4" onmouseover="ShowHotSpot(evt,'4')" onmouseout="HideHotSpot(evt,'4')" onmousemove="ShowToolTip(evt,'4',&quot;3dp2404351 (I_3DPart2404351.65)&quot;)" opacity="0"><path style="fill:#00ff00;fill-rule:evenodd" d="M186.35,91.07L186.36,92.74L185.45,93.21L185.46,93.50L186.16,93.98L186.12,94.30L161.15,108.83L160.73,108.79L157.04,105.58L156.20,105.06L156.20,104.66L183.37,89.19L183.72,89.19zM206.23,104.52L206.46,109.95L209.03,108.23L209.37,108.22L212.30,110.63L212.29,111.52L212.00,112.29L211.48,112.61L211.38,113.08L212.07,113.55L212.03,113.87L186.78,130.21L186.09,130.24L181.33,126.22L181.32,125.82L195.89,116.52L195.92,115.94L195.56,115.13L196.13,114.95L196.16,110.63L187.14,110.39L187.14,104.36L205.97,104.26zM175.24,100.15L175.16,99.82L175.77,99.75zM167.60,104.65L167.52,104.31L167.82,104.26zM164.08,106.66L163.50,106.66L163.79,106.37L164.15,106.37zM196.86,114.95L196.84,110.63L205.15,110.62L198.18,115.17L197.46,115.17zM208.85,115.46L208.22,115.41L208.91,115.17zM200.90,120.52L200.82,120.18L201.43,120.12zM193.43,125.44L192.86,125.44L193.15,125.15L193.50,125.15zM189.00,128.19L188.92,127.85L189.53,127.79z"/></g><g id="hotspot.5" onmouseover="ShowHotSpot(evt,'5')" onmouseout="HideHotSpot(evt,'5')" onmousemove="ShowToolTip(evt,'5',&quot;3dp2402985 (I_3DPart2402985.48)&quot;)" opacity="0"><path style="fill:#00ff00;fill-rule:evenodd" d="M217.03,73.35L216.67,73.87L216.82,75.03L212.69,77.55L213.36,78.14L213.36,78.42L191.56,91.10L191.14,91.07L187.95,88.42L186.90,87.88L186.54,87.36L187.43,86.82L177.36,86.58L177.36,80.56L196.45,80.45L196.88,81.38L197.35,81.29L214.04,71.73L214.40,71.73zM155.44,108.77L155.44,110.48L154.78,111.15L155.44,111.73L155.44,112.01L127.83,128.13L127.40,128.10L126.63,127.30L123.33,129.18L122.64,129.16L121.86,128.35L120.95,128.93L120.53,128.89L118.38,126.75L118.38,126.08L152.69,106.64L153.04,106.64zM138.51,121.31L138.42,120.97L138.73,120.92z"/></g><g id="hotspot.6" onmouseover="ShowHotSpot(evt,'6')" onmouseout="HideHotSpot(evt,'6')" onmousemove="ShowToolTip(evt,'6',&quot;3dp2402718 (I_3DPart2402718.235)&quot;)" opacity="0"><path style="fill:#00ff00;fill-rule:evenodd" d="M167.05,28.92L167.08,34.31L166.79,34.82L157.70,34.99L157.73,42.21L158.02,42.48L158.49,42.71L167.08,38.70L167.32,40.29L168.14,40.93L142.12,53.27L141.13,53.27L140.61,52.98L140.24,51.15L156.67,43.45L156.76,43.18L156.41,42.40L156.99,42.22L157.02,34.99L147.74,34.75L147.74,28.72L166.55,28.63zM107.55,68.32L108.37,68.97L75.99,84.22L75.57,84.20L74.77,83.38L74.36,81.80L79.17,79.43L106.69,66.69L107.00,66.73z"/></g><g id="hotspot.7" onmouseover="ShowHotSpot(evt,'7')" onmouseout="HideHotSpot(evt,'7')" onmousemove="ShowToolTip(evt,'7',&quot;3dp2404353 (I_3DPart2404353.70)&quot;)" opacity="0"><path style="fill:#00ff00;fill-rule:evenodd" d="M109.43,11.43L109.41,17.38L99.52,17.53L99.55,23.44L100.12,23.62L99.79,24.75L133.23,49.52L133.20,51.22L132.32,51.69L131.91,51.66L98.28,26.52L98.26,26.11L99.10,25.81L99.14,25.50L98.52,24.15L98.48,23.66L98.79,23.43L98.83,17.53L89.29,17.29L89.29,11.27L109.17,11.16zM75.05,35.00L75.57,35.02L90.65,47.67L108.10,62.49L107.48,63.06L106.50,63.03L91.97,50.58L74.23,35.53L74.14,34.45L74.48,34.41z"/></g><g id="hotspot.8" onmouseover="ShowHotSpot(evt,'8')" onmouseout="HideHotSpot(evt,'8')" onmousemove="ShowToolTip(evt,'8',&quot;3dp2402983 (I_3DPart2402983.42)&quot;)" opacity="0"><path style="fill:#00ff00;fill-rule:evenodd" d="M95.41,53.49L135.85,87.63L137.98,89.72L137.35,90.31L136.92,90.28L136.12,89.45L135.50,89.45L134.26,90.10L134.02,91.97L133.38,92.43L132.96,92.40L129.13,89.00L129.12,88.72L130.31,88.00L130.55,86.80L128.97,85.49L128.63,85.48L126.74,86.58L126.35,86.59L119.96,80.99L119.88,80.51L120.77,80.05L121.03,78.60L119.47,77.31L117.51,78.40L116.83,78.38L109.95,72.27L106.94,69.65L108.37,68.97L107.55,68.32L107.00,66.73L106.69,66.69L104.81,67.56L104.39,67.54L101.47,64.85L101.12,64.85L100.39,65.28L99.86,64.91L94.23,64.87L94.07,67.89L75.27,67.81L75.27,61.78L93.83,61.68L94.09,61.94L94.23,64.19L99.91,64.17L99.92,63.57L74.94,41.88L75.58,41.46L75.54,39.86L77.58,38.94L78.20,38.93zM111.26,72.53L110.92,72.62L111.01,72.28z"/></g><g id="hotspot.9" onmouseover="ShowHotSpot(evt,'9')" onmouseout="HideHotSpot(evt,'9')" onmousemove="ShowToolTip(evt,'9',&quot;3dp2402984 (I_3DPart2402984.43)&quot;)" opacity="0"><path style="fill:#00ff00;fill-rule:evenodd" d="M123.18,40.79L124.24,41.43L124.46,35.60L143.55,35.50L143.82,35.76L143.79,41.71L134.43,41.86L134.19,47.78L134.77,47.95L134.50,48.57L134.51,49.26L150.42,60.89L151.73,62.23L153.30,63.04L159.68,67.76L161.80,69.61L163.36,70.44L166.58,72.77L166.99,73.68L167.61,74.11L167.53,74.40L166.27,74.40L165.74,73.84L164.33,74.41L164.17,76.10L163.53,76.56L163.12,76.52L150.37,66.97L150.31,66.51L150.63,66.27L150.65,64.36L148.83,63.04L147.14,63.85L146.18,63.83L133.71,54.27L133.66,54.04L134.31,53.61L133.98,51.94L133.48,51.65L133.23,49.52L104.61,28.35L104.57,28.12L105.71,27.83zM116.04,39.73L115.96,40.02L114.70,40.02L102.77,31.02L102.78,30.60L103.34,30.23zM131.11,51.12L130.49,51.43L129.79,51.41L118.64,42.90L118.60,42.68L119.21,42.14zM124.65,41.86L133.74,41.86L133.73,45.66L133.47,47.80L132.41,47.69z"/></g><g id="hotspot.10" onmouseover="ShowHotSpot(evt,'10')" onmouseout="HideHotSpot(evt,'10')" onmousemove="ShowToolTip(evt,'10',&quot;3dp650723 (I_-CU 06100.2)&quot;)" opacity="0"><path style="fill:#00ff00;fill-rule:evenodd" d="M241.67,132.33L241.92,132.69L237.04,136.25L237.43,137.08L236.81,137.35L236.78,140.09L245.90,140.23L246.17,140.49L246.15,145.92L245.87,146.43L226.55,146.35L226.21,144.20L213.52,153.26L213.09,153.22L212.28,152.43L211.73,152.14L211.74,151.74L226.32,141.42L226.55,140.33L228.31,139.98L240.23,131.50L240.59,131.50zM236.09,140.09L232.00,139.99L235.75,137.30L236.08,137.33z"/></g><g id="hotspot.11" onmouseover="ShowHotSpot(evt,'11')" onmouseout="HideHotSpot(evt,'11')" onmousemove="ShowToolTip(evt,'11',&quot;3dp2403913 (I_3DPart2403913.9)&quot;)" opacity="0"><path style="fill:#00ff00;fill-rule:evenodd" d="M272.90,109.85L272.86,110.17L244.99,130.25L244.31,130.21L243.20,129.40L243.20,128.99L262.04,115.50L254.76,115.65L254.61,118.93L235.28,118.85L235.28,112.83L254.36,112.72L254.63,112.99L254.76,114.97L260.59,114.87L262.25,114.66L262.48,114.35L263.74,114.33L271.17,109.02L271.78,109.03z"/></g><g id="hotspot.12" onmouseover="ShowHotSpot(evt,'12')" onmouseout="HideHotSpot(evt,'12')" onmousemove="ShowToolTip(evt,'12',&quot;3dp2402987 (I_3DPart2402987.50)&quot;)" opacity="0"><path style="fill:#00ff00;fill-rule:evenodd" d="M215.72,155.33L217.57,157.22L217.62,157.52L217.20,157.99L216.51,158.01L215.63,157.69L214.07,158.80L213.61,160.46L212.72,161.19L212.30,161.16L182.16,134.94L178.94,132.31L178.94,131.64L180.02,130.84L180.27,129.64L178.69,128.08L178.19,127.83L176.30,128.98L175.51,129.18L168.38,123.04L168.03,123.03L167.31,123.46L166.78,123.10L163.52,123.06L163.36,125.81L144.03,125.73L144.03,119.70L163.12,119.60L163.39,119.86L163.52,122.37L166.82,122.36L166.82,121.75L166.43,121.19L167.60,120.27L167.88,118.83L166.00,117.21L165.66,117.22L163.53,118.60L163.11,118.58L161.50,116.99L158.09,114.05L155.42,111.70L154.87,111.41L154.88,111.01L155.44,110.48L155.44,108.77L153.04,106.64L152.69,106.64L151.10,107.49L150.41,107.47L137.68,96.32L137.62,96.09L138.51,95.64L138.49,94.06L141.43,92.39zM145.64,102.42L145.30,102.51L145.39,102.17zM157.04,112.21L156.46,112.21L156.39,111.93L156.75,111.93zM181.37,133.37L180.79,133.37L180.72,133.08L181.08,133.08zM195.11,145.30L194.56,145.28L194.55,144.74zM209.69,157.71L209.65,158.08L209.09,157.99L209.01,157.43L209.37,157.39z"/></g><g id="hotspot.13" onmouseover="ShowHotSpot(evt,'13')" onmouseout="HideHotSpot(evt,'13')" onmousemove="ShowToolTip(evt,'13',&quot;3dp2403789 (I_3DPart2403789.2)&quot;)" opacity="0"><path style="fill:#00ff00;fill-rule:evenodd" d="M199.06,96.89L201.20,98.74L201.73,98.76L204.10,100.57L205.42,100.62L205.59,101.19L209.38,101.21L209.62,99.07L228.43,98.98L228.94,99.27L228.96,104.66L228.68,105.17L210.87,105.33L211.24,105.85L213.10,107.44L214.92,108.52L248.26,133.10L249.05,134.43L248.55,134.84L247.99,135.00L247.45,134.67L246.84,134.67L246.01,135.46L245.35,137.18L244.73,137.65L244.05,137.61L240.03,134.68L239.95,134.20L241.92,132.69L241.67,132.33L240.59,131.50L240.23,131.50L238.35,132.86L237.70,132.85L211.47,112.99L211.48,112.60L211.99,112.29L212.29,111.52L212.30,110.63L209.37,108.22L209.03,108.23L207.41,109.31L206.47,109.32L185.55,93.41L185.49,93.18L186.36,92.74L186.35,91.07L183.72,89.19L183.37,89.19L182.02,90.00L181.06,90.03L167.77,79.95L168.65,79.52L168.91,77.67L171.21,76.49L171.55,76.50zM206.10,101.90L209.38,101.90L209.39,104.38L206.17,102.14zM199.88,103.49L199.30,103.49L199.24,103.20L199.59,103.20zM212.84,113.27L212.26,113.27L212.20,112.98L212.55,112.98zM226.59,123.59L226.02,123.59L225.95,123.30L226.30,123.30zM235.50,130.44L235.80,130.49L235.85,130.79L235.55,130.74z"/></g><g id="hotspot.14" onmouseover="ShowHotSpot(evt,'14')" onmouseout="HideHotSpot(evt,'14')" onmousemove="ShowToolTip(evt,'14',&quot;3dp2239030 (I_3DPart2239030.92)&quot;)" opacity="0"><path style="fill:#00ff00;fill-rule:evenodd" d="M185.87,149.48L185.84,155.43L176.74,155.59L176.50,161.80L177.14,161.54L181.63,158.50L182.68,159.55L182.67,161.25L182.40,161.77L170.92,169.86L169.70,169.87L163.66,163.80L161.70,164.34L160.63,164.42L160.12,163.26L160.71,163.07L160.75,162.48L160.42,161.95L160.42,160.97L162.84,160.32L163.54,161.51L164.41,161.24L164.86,160.86L165.20,160.85L170.25,165.92L170.92,165.92L176.05,162.22L176.06,155.59L167.04,155.35L167.04,149.32L185.60,149.22z"/></g><g id="hotspot.15" onmouseover="ShowHotSpot(evt,'15')" onmouseout="HideHotSpot(evt,'15')" onmousemove="ShowToolTip(evt,'15',&quot;3dp2334656 (I_3DPart2334656.1)&quot;)" opacity="0"><path style="fill:#00ff00;fill-rule:evenodd" d="M195.64,169.06L197.51,170.66L197.51,171.02L196.58,171.75L196.67,172.51L197.22,173.03L196.57,173.86L195.90,173.86L194.83,172.79L193.95,172.50L193.93,177.12L202.79,177.25L203.06,177.52L203.03,183.46L184.23,183.38L184.23,177.36L193.25,177.12L193.22,172.53L192.60,172.25L193.00,171.20L182.93,161.68L182.93,160.44L183.11,159.31L183.90,158.75L184.51,158.74z"/></g><g id="hotspot.16" onmouseover="ShowHotSpot(evt,'16')" onmouseout="HideHotSpot(evt,'16')" onmousemove="ShowToolTip(evt,'16',&quot;3dp2402726 (I_3DPart2402726.279)&quot;)" opacity="0"><path style="fill:#00ff00;fill-rule:evenodd" d="M109.43,115.64L110.74,117.23L118.97,125.46L118.94,125.78L118.05,126.24L120.53,128.89L120.95,128.93L121.86,128.35L131.13,137.62L131.10,137.94L130.20,138.65L131.90,140.53L132.56,140.53L133.50,139.99L143.03,149.53L143.00,149.84L142.18,150.41L142.19,151.08L143.80,152.70L144.49,152.73L145.29,152.13L145.63,152.12L147.77,154.25L149.09,155.84L157.05,163.81L157.02,164.12L156.21,164.67L156.22,165.91L156.76,166.42L156.43,166.74L155.70,166.71L143.27,154.25L141.95,152.66L129.26,139.97L127.68,138.10L127.04,137.84L126.31,138.27L125.78,137.91L120.41,137.87L120.26,140.62L101.45,140.54L101.45,134.51L120.01,134.41L120.28,134.67L120.41,137.18L125.82,137.18L125.82,136.28L115.51,125.96L114.19,124.37L104.65,114.86L104.28,112.51L105.70,111.93z"/></g><g id="hotspot.17" onmouseover="ShowHotSpot(evt,'17')" onmouseout="HideHotSpot(evt,'17')" onmousemove="ShowToolTip(evt,'17',&quot;3dp2402727 (I_3DPart2402727.280)&quot;)" opacity="0"><path style="fill:#00ff00;fill-rule:evenodd" d="M214.15,71.61L212.21,72.83L210.97,72.80L208.78,71.21L208.64,70.71L207.78,70.74L203.57,68.04L203.02,67.53L201.47,66.70L198.25,64.60L198.25,64.20L198.78,63.91L198.76,62.52L198.44,62.28L198.42,62.00L199.09,61.71zM239.55,68.03L239.53,73.97L230.17,74.13L230.00,81.81L239.81,88.16L240.07,88.53L238.89,89.47L237.95,89.47L229.99,84.16L229.39,84.16L229.08,84.45L228.41,84.49L227.77,83.90L228.98,82.96L228.86,82.09L229.48,81.82L229.48,74.13L220.73,73.89L220.73,67.87L239.29,67.76zM227.37,80.20L225.23,81.64L224.44,81.84L222.51,80.55L222.56,79.93L221.79,79.99L215.89,76.05L215.96,75.57L216.82,75.03L216.76,73.69L217.30,73.58zM271.02,108.52L271.28,108.90L268.80,110.67L268.08,110.67L265.34,108.76L265.98,107.97L251.68,98.48L241.89,92.11L241.77,91.59L242.40,91.08L242.02,90.53L242.32,90.23L242.96,90.24zM270.39,111.96L273.04,110.10L273.15,110.12L272.58,112.05L271.94,112.76L271.25,112.79L270.44,112.20z"/></g><g id="hotspot.18" onmouseover="ShowHotSpot(evt,'18')" onmouseout="HideHotSpot(evt,'18')" onmousemove="ShowToolTip(evt,'18',&quot;3dp2402981 (I_3DPart2402981.40)&quot;)" opacity="0"><path style="fill:#00ff00;fill-rule:evenodd" d="M75.57,84.20L75.99,84.22L77.44,83.67L86.94,93.16L86.02,93.73L86.11,94.22L86.93,94.76L87.47,95.40L88.16,95.00L88.78,95.00L95.93,102.16L95.01,102.72L95.10,103.21L96.20,104.30L96.88,104.32L97.77,104.00L100.96,107.32L100.03,107.96L100.41,108.50L100.08,108.80L100.18,109.92L99.11,109.03L91.17,101.10L90.09,99.80L89.32,99.25L88.00,97.66L84.84,94.50L84.02,94.88L83.74,94.26L78.36,94.23L78.21,96.73L77.93,97.23L58.87,97.16L58.87,91.14L77.69,91.05L78.19,91.33L78.36,93.54L83.78,93.44L77.16,86.81L75.84,85.22L74.76,84.18L74.76,83.37z"/></g><g id="hotspot.19" onmouseover="ShowHotSpot(evt,'19')" onmouseout="HideHotSpot(evt,'19')" onmousemove="ShowToolTip(evt,'19',&quot;3dp2402982 (I_3DPart2402982.41)&quot;)" opacity="0"><path style="fill:#00ff00;fill-rule:evenodd" d="M178.52,48.40L176.23,49.57L175.51,49.58L167.83,44.50L167.85,44.10L168.37,43.73L166.24,42.38L166.16,41.89L167.85,41.32zM210.46,46.34L210.44,52.29L191.11,52.20L190.87,49.27L189.53,49.02L181.03,48.78L180.70,48.53L180.70,48.23L190.87,48.58L191.11,46.18L210.20,46.07zM178.52,48.40L180.31,47.70L180.54,49.55L188.50,54.80L186.36,55.99L185.56,56.19L183.69,55.07L183.64,54.84L184.27,54.29L182.93,53.23L181.06,53.28L178.35,51.39L180.04,50.46L179.70,49.82L180.04,49.31zM194.30,58.56L194.06,60.47L193.24,60.09L191.91,60.42L188.71,58.25L188.67,58.00L190.09,57.28L190.10,56.96L189.72,56.42L190.60,56.13z"/></g><g id="hotspot.20" onmouseover="ShowHotSpot(evt,'20')" onmouseout="HideHotSpot(evt,'20')" onmousemove="ShowToolTip(evt,'20',&quot;3dp650831 (I_-CU 10125.4)&quot;)" opacity="0"><path style="fill:#00ff00;fill-rule:evenodd" d="M180.04,49.32L179.70,49.82L180.04,50.46L154.55,63.32L153.60,63.28L151.42,61.95L151.38,61.71L178.34,48.46L178.70,48.46zM190.12,55.89L189.75,56.43L190.09,57.28L164.05,70.74L163.65,70.69L161.13,69.17L161.12,68.88L188.12,55.08L189.01,55.08zM121.03,78.60L120.77,80.04L90.02,95.32L89.06,95.28L88.77,95.00L87.21,95.03L86.11,94.22L86.11,93.82L119.10,77.55L119.72,77.55zM229.53,81.55L229.13,82.39L229.49,82.73L202.67,99.03L201.99,98.98L201.20,98.74L199.24,97.15L227.65,80.23zM130.55,86.80L130.21,88.16L99.01,104.31L98.05,104.27L97.76,104.00L96.88,104.32L96.20,104.30L95.10,103.21L95.02,102.72L128.63,85.48L128.97,85.49zM242.45,89.97L242.04,90.55L242.40,91.08L234.50,96.18L234.40,100.42L243.52,100.56L243.79,100.82L243.77,106.25L243.49,106.76L224.70,106.68L224.36,102.68L215.65,108.28L214.38,108.27L211.99,106.64L211.95,106.41L239.97,88.66L240.57,88.66zM167.88,118.83L167.60,120.27L134.41,140.53L134.02,140.54L133.50,139.99L132.56,140.53L131.90,140.53L130.19,138.64L165.89,117.24zM178.69,128.08L180.27,129.64L179.93,131.00L146.57,152.43L145.93,152.41L145.63,152.13L145.29,152.13L144.49,152.73L144.06,152.70L142.73,151.37L142.18,151.08L142.18,150.41L178.19,127.83zM233.71,100.42L228.06,100.34L233.38,96.84L233.69,96.85z"/></g></g></svg>
