<?xml version="1.0" encoding="UTF-8" standalone="no"?>
<svg xmlns="http://www.w3.org/2000/svg" xmlns:xlink="http://www.w3.org/1999/xlink" width="297.000mm" height="210.000mm" viewBox="0.000000 0.000000 297.000000 210.000000" stroke-linejoin="round" stroke-linecap="round" fill="none" fill-rule="evenodd"><desc>Composer Export</desc><script type="text/ecmascript"><![CDATA[
if(typeof(top) != "undefined")
{
	top.ShowPaper = ShowPaper;
}
function ShowHotSpot(evt,hotspotid)
{
	var svgDocument = evt.target.ownerDocument;
	var strId = "hotspot."+hotspotid;
	var hotspot = svgDocument.getElementById(strId);
	if(hotspot)
		hotspot.setAttribute("opacity",".5");
}
function HideHotSpot(evt,hotspotid)
{
	var svgDocument = evt.target.ownerDocument;
	var strId = "hotspot."+hotspotid;
	var hotspot = svgDocument.getElementById(strId);
	if(hotspot)
		hotspot.setAttribute("opacity","0");

	var toolTip = svgDocument.getElementById('ToolTip');
	if(toolTip)
		toolTip.setAttribute("visibility","hidden");
}
function ShowToolTip(evt,hotspotid,strTooltip)
{
	if(strTooltip=="")
	return;

	// change text
	var svgDocument = evt.target.ownerDocument;
	var tiptext = svgDocument.getElementById('ToolTipText');
	if( !tiptext )
	return;
	tiptext.firstChild.nodeValue = " " + strTooltip + "  " ;

	// show tooltip before, else some refresh issue

	var toolTip = svgDocument.getElementById('ToolTip');
	if(!toolTip)
	return;

	toolTip.setAttribute("visibility","visible");
	toolTip.setAttribute("opacity",".95");

	// move tooltip
	// get viewbox

	var root = svgDocument.documentElement;
	var vbox = (root.getAttribute("viewBox")).split(' ');
	var x0 = parseFloat(vbox[0]);
	var y0 = parseFloat(vbox[1]);
	var vboxW = parseFloat(vbox[2]);
	var vboxH = parseFloat(vbox[3]);

	// get default width of svg

	var strW = root.getAttribute("width");
	var svgW = parseFloat(strW);
	if(strW.indexOf('mm') != -1)
	svgW *= 3.779;

	var strH = root.getAttribute("height");
	var svgH = parseFloat(strH);
	if(strH.indexOf('mm') != -1)
	svgH *= 3.779;  	// 96 dpi  -> 96/25.4 = 3.779

	// update the viewbox / width / height if svg is embedded in html with zoom fit all
	var realx0 = x0;
	var realy0 = y0;
	var realvboxW = vboxW;
	var realvboxH = vboxH;
	var realsvgW = svgW;
	var realsvgH = svgH;

	if ((typeof(top) == "undefined") || (typeof(top.svgctl1) != "undefined")) // embedded in html
	{
		// get window size in pxl

		svgW = window.innerWidth;
		svgH = window.innerHeight;

		// calculate real viewbox

		realsvgW = svgW;
		realsvgH = svgH;
		if((svgW / svgH) > (vboxW / vboxH))
		{
			realvboxW = (vboxH * svgW) / svgH;
			realvboxH = vboxH;
			realx0 = x0 - (realvboxW - vboxW)/2 ;
		}
		else
		{
			realvboxH = (vboxW * svgH) / svgW;
			realvboxW = vboxW;
			realy0 = y0 - (realvboxH - vboxH)/2 ;
		}
	}

	// get user zoom/pan

	var newScale = root.currentScale;
	var translation = root.currentTranslate;

	// transform pxl to user unit

	var xPos = (((evt.clientX+10- translation.x)/newScale) * realvboxW)/realsvgW  + realx0 ;
	var yPos = (((evt.clientY+5- translation.y)/newScale) * realvboxH)/ realsvgH  + realy0 ;
	var scaleForWidth = ( (1 / newScale) * realvboxH) / realsvgH;

	// move tooltip

	toolTip.setAttribute("transform", "translate(" + xPos + "," + yPos + ")" );

	// resize tooltip

	var fontsize = 12;
	tiptext.setAttribute("font-size",fontsize*scaleForWidth);
	tiptext.setAttribute("y", fontsize*scaleForWidth);
	var tipBG = svgDocument.getElementById('ToolTipBG');
	var outline = tiptext.getBBox();
	if(tipBG)
	{
		tipBG.setAttribute("stroke-width", 1*scaleForWidth);
		tipBG.setAttribute("width", Number(outline.width) );
		tipBG.setAttribute("height", Number(outline.height) + fontsize*.5*scaleForWidth );
	}
	var ToolTipShadow = svgDocument.getElementById('ToolTipShadow');
	if(ToolTipShadow)
	{
		ToolTipShadow.setAttribute("width", Number(outline.width) );
		ToolTipShadow.setAttribute("height", Number(outline.height) + fontsize*.5*scaleForWidth );
		ToolTipShadow.setAttribute("x", 3*scaleForWidth);
		ToolTipShadow.setAttribute("y", 3*scaleForWidth);
	}
}
function ShowPaper()
{
  var svgDocument = getDocument();
  var paper = svgDocument.getElementById("paperID");
  if(paper)
  {
    paper.setAttribute("transform","scale(1)");
    paper.setAttribute("opacity","1");
    paper.setAttribute("visibility","visible");
  }
  var svg = svgDocument.getRootElement();
  if(svg)
  {
    svg.setAttribute("width","307.000mm");
    svg.setAttribute("height","220.000mm");
    svg.setAttribute("viewBox","-5.000000 -5.000000 307.000000 220.000000");
  }
}
]]></script><defs/><g><g id="Actor_32.0"><g style="stroke:#000000;stroke-width:0.123"><path d="M168.44,172.71L156.03,173.34L149.79,173.05L142.79,171.85L138.98,170.65L137.09,169.75L130.48,164.66L129.24,163.41L128.05,161.71L125.51,156.44L123.97,151.10L123.41,148.18L122.80,142.19L122.76,139.25L124.17,52.76L124.63,47.00L125.77,42.23L126.97,39.06L127.94,37.50L129.08,36.24L130.08,35.22L131.35,34.54L132.70,33.90L135.58,33.66L138.39,34.56L143.75,37.21"/><path d="M134.21,45.89L133.52,50.22L133.38,52.84L131.76,139.24L131.79,141.74L132.30,146.78L133.37,151.56L134.85,155.53"/><path d="M133.02,42.55L139.62,45.77L142.75,46.75L147.36,47.70L156.17,48.50L171.87,48.20"/><path d="M140.26,160.91L136.16,157.50L134.43,154.75"/><path d="M133.94,46.79L135.15,43.52"/><path d="M134.91,43.48L134.97,43.42"/><path d="M140.02,160.75L142.62,162.16L148.50,163.67L148.08,163.62"/><path d="M142.53,36.83L147.36,38.00L153.71,38.75L159.32,38.95L171.59,38.62"/><path d="M148.56,163.67L156.10,164.17L167.86,163.48"/></g></g><g id="Actor_20.0"><g style="stroke:#000000;stroke-width:0.123"><path d="M169.61,48.27L169.84,52.26"/><path d="M170.67,59.02L171.07,59.67L171.44,59.77L171.78,59.45L172.07,58.73L172.28,57.68L173.58,47.87L173.71,46.61L173.78,45.25L173.74,42.43L173.06,30.91L172.92,29.55L172.69,28.39L172.37,27.52L172.02,27.03L171.65,26.96L171.30,27.33L171.01,28.09L170.81,29.17L169.58,38.68"/><path d="M171.50,48.21L171.63,48.32L172.06,48.10L172.44,47.32L172.70,46.06L172.83,44.51L172.80,42.77L172.62,41.13L172.31,39.78L171.90,38.87L171.46,38.51L171.23,38.63"/><path d="M171.44,59.77L172.52,59.73L172.87,59.41L173.16,58.69L173.37,57.64L174.67,47.83L174.86,45.65L174.89,43.81L174.16,30.87L174.02,29.52L173.78,28.35L173.47,27.48L173.11,27.00L172.74,26.93L171.65,26.96"/><path d="M172.07,33.11L171.84,33.16L171.62,32.76L171.48,32.02L171.44,31.14L171.53,30.35L171.71,29.87L171.94,29.81L172.15,30.21L172.30,30.95L172.33,31.83L172.25,32.62L172.07,33.11"/></g></g><g id="Actor_20.1"><g style="stroke:#000000;stroke-width:0.123"><path d="M166.13,172.84L166.33,176.31"/><path d="M166.70,157.93L165.94,163.60"/><path d="M167.41,153.36L167.67,152.78L168.00,152.59L168.35,152.81L168.69,153.43L168.99,154.39L169.22,155.59L169.35,156.93L170.00,168.12L170.04,170.81L169.98,172.06L169.85,173.20L168.62,181.91L168.42,182.82L168.15,183.37L167.82,183.53L167.47,183.27L167.13,182.62L166.99,182.16"/><path d="M167.82,183.53L168.87,183.46L169.20,183.30L169.48,182.75L169.67,181.84L170.91,173.13L171.08,171.20L171.12,169.42L170.41,156.87L170.28,155.53L170.05,154.32L169.76,153.37L169.41,152.75L169.06,152.53L168.00,152.59"/><path d="M167.96,172.74L167.99,172.78L168.41,172.76L168.77,172.18L169.02,171.11L169.12,169.94L169.11,168.03L168.94,166.41L168.64,165.00L168.25,163.96L167.83,163.43L167.41,163.46L167.38,163.51"/></g></g><g id="Actor_19.0"><g style="stroke:#000000;stroke-width:0.123"><path d="M114.18,35.72L114.12,35.68L113.41,35.52L112.77,35.16L112.17,34.52L111.85,33.78L111.81,33.60L111.78,33.16L111.78,32.93L111.80,32.73L111.83,32.58L112.06,31.99L112.14,31.82L112.59,31.27L113.19,30.88L113.34,30.82L114.05,30.62"/><path d="M113.94,30.66L114.19,30.15L114.21,30.13L114.45,30.04L117.59,29.95L117.80,30.17L117.99,30.68L118.15,31.42L118.25,32.32L118.30,33.29L118.28,34.24L118.20,35.07L118.06,35.70L117.88,36.07L117.68,36.15L114.54,36.24L114.50,36.23L114.47,36.21L114.27,35.98L114.10,35.67"/></g></g><g id="Actor_19.1"><g style="stroke:#000000;stroke-width:0.123"><path d="M113.86,162.62L113.01,162.46L112.40,162.14L111.91,161.64L111.82,161.50L111.55,160.94L111.51,160.81L111.45,160.40L111.44,159.97L111.46,159.79L111.49,159.67L111.71,159.06L111.79,158.94L112.22,158.38L112.81,157.98L113.48,157.77L113.53,157.73"/><path d="M113.72,162.60L113.76,162.62L114.04,163.08L114.07,163.10L114.30,163.15L117.33,162.97L117.50,162.72L117.64,162.20L117.72,161.47L117.73,160.59L117.69,159.65L117.59,158.74L117.44,157.96L117.25,157.38L117.06,157.06L116.86,157.02L113.83,157.20L113.79,157.21L113.77,157.24L113.60,157.49L113.47,157.78"/></g></g><g id="Actor_19.2"><g style="stroke:#000000;stroke-width:0.123"><path d="M167.12,57.94L167.07,57.91L166.38,57.76L165.76,57.41L165.17,56.77L164.86,56.05L164.81,55.88L164.79,55.66L164.78,55.44L164.78,55.22L164.81,55.02L165.05,54.30L165.15,54.14L165.58,53.59L166.16,53.20L166.84,53.01L166.89,52.97"/><path d="M166.82,53.01L166.91,52.83L167.15,52.46L167.43,52.39L170.47,52.28L170.72,52.52L170.95,53.04L171.13,53.77L171.25,54.66L171.29,55.62L171.26,56.54L171.15,57.35L170.97,57.95L170.75,58.29L170.51,58.35L167.46,58.45L167.43,58.45L167.16,58.18L167.00,57.89"/></g></g><g id="Actor_4.0"><g style="stroke:#000000;stroke-width:0.123"><path d="M141.60,158.64L141.68,159.42L141.86,160.27L142.10,160.77L142.34,160.83L142.54,160.42L142.66,159.64L142.67,158.64L142.57,157.60L142.38,156.75L142.14,156.25L141.90,156.20L141.70,156.61L141.59,157.39L141.58,158.40L141.60,158.64"/><path d="M141.58,158.40L141.59,157.52"/><path d="M141.59,157.52L141.59,157.50"/><path d="M144.44,160.45L143.85,160.98L142.27,161.07L142.35,160.83L142.86,160.54L144.44,160.45L144.49,157.87L142.91,157.97L142.69,159.02L142.71,159.85L142.86,160.54"/><path d="M142.27,161.07L142.10,160.77"/><path d="M142.91,157.97L142.61,157.42L142.40,156.76L142.39,155.93L141.90,156.20L141.82,156.36"/><path d="M142.39,155.93L143.96,155.83L144.49,157.87"/><path d="M144.45,159.81L158.02,159.00L158.19,158.64L158.26,157.86L158.18,156.98L158.00,156.33L157.78,156.16L144.26,156.96"/><path d="M144.48,158.60L144.49,159.20L144.46,159.52"/><path d="M144.46,159.45L158.19,158.63"/><path d="M144.36,157.34L144.29,157.09"/><path d="M158.02,159.00L158.30,158.66L158.44,158.37L158.49,157.78L158.43,157.10L158.29,156.60L158.00,156.33"/></g></g><g id="Actor_19.3"><g style="stroke:#000000;stroke-width:0.123"><path d="M164.11,176.96L164.06,177.00L163.41,177.21L162.85,177.61L162.72,177.75L162.33,178.26L162.10,178.99L162.08,179.16L162.07,179.36L162.08,179.58L162.11,179.80L162.15,179.98L162.20,180.12L162.45,180.66L162.55,180.81L163.02,181.29L163.61,181.61L163.79,181.65L164.47,181.77"/><path d="M164.31,181.75L164.34,181.76"/><path d="M164.00,177.02L164.13,176.70L164.36,176.44L164.40,176.43L167.34,176.24L167.57,176.30L167.81,176.63L168.03,177.21L168.20,177.99L168.31,178.88L168.35,179.81L168.32,180.66L168.22,181.38L168.05,181.87L167.84,182.10L164.90,182.29L164.63,182.23L164.37,181.87L164.30,181.74"/></g></g><g id="Actor_6.0"><g style="stroke:#000000;stroke-width:0.123"><path d="M177.74,56.05L177.54,56.51L177.83,56.17L177.98,55.82L178.04,55.18L177.98,54.49L177.82,54.03L177.53,53.73L177.73,54.33L177.81,55.22L177.74,56.05L173.56,56.20"/><path d="M173.50,56.65L177.54,56.51"/><path d="M177.53,53.73L177.29,53.64L173.88,53.76"/></g></g><g id="Actor_31.0"><g style="stroke:#000000;stroke-width:0.123"><path d="M166.65,157.50L166.62,157.26L166.59,155.85L166.70,154.62L166.93,153.75L167.26,153.37L167.63,153.54L167.98,154.25L168.27,155.38L168.44,156.76L168.47,158.18L168.36,159.42L168.12,160.29L167.80,160.66L167.43,160.47L167.07,159.76L166.79,158.63L166.65,157.50"/><path d="M167.80,160.66L168.36,160.62L168.46,160.57L168.78,160.21L169.04,159.28L169.14,158.09L169.11,156.73L168.95,155.40L168.67,154.32L168.64,154.24L168.29,153.55L167.93,153.37L167.82,153.33L167.26,153.37"/><path d="M167.37,158.18L167.61,158.47L167.81,158.20L167.90,157.48L167.86,156.57L167.68,155.84L167.45,155.55L167.25,155.82L167.15,156.55L167.20,157.45L167.37,158.18"/><path d="M167.86,157.82L167.76,157.42L167.71,156.51L167.15,156.55"/><path d="M167.90,157.54L167.85,157.29L167.82,156.42"/><path d="M167.71,156.51L167.76,156.17"/></g></g><g id="Actor_31.1"><g style="stroke:#000000;stroke-width:0.123"><path d="M167.27,182.14L167.49,182.59L167.86,182.80L168.18,182.46L168.42,181.62L168.53,180.40L168.50,179.00L168.32,177.62L168.04,176.48L167.69,175.75L167.32,175.54L167.00,175.89L166.89,176.27"/></g></g><g id="Actor_31.2"><g style="stroke:#000000;stroke-width:0.123"><path d="M170.02,58.36L170.38,58.98L170.77,59.03L171.11,58.51L171.36,57.51L171.47,56.17L171.44,54.70L171.26,53.32L170.96,52.25L170.60,51.65L170.21,51.61L169.87,52.13L169.83,52.30"/><path d="M170.77,59.03L171.35,59.01L171.45,58.96L171.79,58.45L172.05,57.39L172.16,56.11L172.13,54.69L171.96,53.37L171.67,52.35L171.64,52.26L171.28,51.67L171.18,51.63L170.79,51.59L170.21,51.61"/></g></g><g id="Actor_6.1"><g style="stroke:#000000;stroke-width:0.123"><path d="M140.36,33.10L140.41,33.58L140.60,34.38L140.84,34.78L141.09,34.71L141.30,34.17L141.42,33.28L141.43,32.20L141.32,31.16L141.13,30.36L140.89,29.96L140.64,30.04L140.43,30.58L140.31,31.47L140.30,32.54L140.36,33.10"/><path d="M140.30,32.54L140.31,31.47"/><path d="M143.32,31.44L143.26,34.20L142.66,35.08L141.02,35.13L141.10,34.71L141.62,34.25L141.44,33.14L141.50,32.24L141.68,31.48L141.37,30.98L141.15,30.37L141.14,29.60L142.77,29.56L143.32,31.44L141.68,31.48"/><path d="M141.02,35.13L140.66,34.47"/><path d="M143.26,34.20L141.62,34.25"/><path d="M140.64,30.04L141.14,29.60"/><path d="M143.28,33.26L143.32,32.89L143.30,32.23"/><path d="M143.28,33.28L150.15,33.08L149.98,33.56L143.27,33.76"/><path d="M143.15,30.86L149.73,30.67L149.95,30.74L150.14,31.33L150.19,31.96L150.21,32.23L150.15,33.08"/><path d="M149.98,33.56L150.27,33.22L150.41,32.85L150.46,32.19L150.40,31.50L150.26,31.04L149.95,30.74"/></g></g><g id="Actor_4.1"><g style="stroke:#000000;stroke-width:0.123"><path d="M170.28,177.58L181.14,176.88L181.38,177.07L181.57,177.72L181.65,178.59L181.58,179.35L181.39,179.70L169.87,180.44"/><path d="M181.58,179.35L169.92,180.10"/><path d="M181.39,179.70L181.67,179.36L181.81,179.09L181.87,178.50L181.81,177.83L181.66,177.33L181.38,177.07"/></g></g><g id="Actor_31.3"><g style="stroke:#000000;stroke-width:0.123"><path d="M161.83,34.24L162.00,34.88L162.36,35.46L162.74,35.48L163.07,34.93L163.31,33.89L163.42,32.52L163.39,31.03L163.21,29.66L162.92,28.60L162.56,28.02L162.18,28.01L161.85,28.57L161.61,29.61L161.50,30.97L161.54,32.45L161.71,33.82L161.83,34.24"/><path d="M162.12,32.37L162.30,33.06L162.54,33.26L162.75,32.87L162.84,32.06L162.84,31.96L162.79,31.12L162.61,30.42L162.38,30.23L162.17,30.62L162.07,31.44L162.12,32.37"/><path d="M162.07,31.44L162.66,31.42L162.71,32.35L162.78,32.61"/><path d="M162.18,28.01L162.77,28.00L163.14,28.01L163.25,28.05L163.60,28.62L163.63,28.70L163.92,29.72L164.09,31.04L164.12,32.47L164.01,33.78L163.75,34.87L163.42,35.42L163.32,35.46L162.74,35.48"/><path d="M162.79,31.13L162.77,31.38L162.80,32.25L162.81,32.30"/><path d="M162.66,31.42L162.73,30.86"/></g></g><g><g><path style="stroke:#000000;stroke-width:0.210;stroke-dasharray:2.1 2.1" d="M165.50,157.13L114.29,160.16"/></g></g><g><g><path style="stroke:#000000;stroke-width:0.210;stroke-dasharray:2.1 2.1" d="M168.31,31.58L114.73,33.13"/></g></g><g id="PMI31.0"><g><path style="stroke:#000000;stroke-width:0.280" d="M162.38,16.40L162.65,24.42"/></g><g><path style="fill:#000000" d="M161.65,24.46L163.65,24.39L162.72,26.42z"/></g><g><path style="fill:#ffffff" d="M152.03,16.40L172.54,16.40L172.54,10.76L152.03,10.76z"/><path style="stroke:#000000;stroke-width:0.280;stroke-opacity:0.98" d="M152.03,16.40L172.54,16.40L172.54,10.76L152.03,10.76z"/><text xml:space="preserve" fill="#000000" stroke-width="0" x="152.73" y="14.82" font-size="3.10" opacity="1.00" font-family="Microsoft Sans Serif">8060001116</text></g></g><g id="PMI32.0"><g><path style="stroke:#000000;stroke-width:0.280" d="M139.33,92.66L134.47,92.80"/></g><g><path style="fill:#000000" d="M134.45,91.80L134.50,93.80L132.47,92.85z"/></g><g><path style="fill:#ffffff" d="M139.33,95.21L159.25,95.21L159.25,89.57L139.33,89.57z"/><path style="stroke:#000000;stroke-width:0.280;stroke-opacity:0.98" d="M139.33,95.21L159.25,95.21L159.25,89.57L139.33,89.57z"/><text xml:space="preserve" fill="#000000" stroke-width="0" x="140.04" y="93.63" font-size="3.44" opacity="1.00" font-family="Microsoft Sans Serif">0200345W2</text></g></g><g id="PMI20.0"><g><path style="stroke:#000000;stroke-width:0.280" d="M176.36,161.95L171.95,162.07"/></g><g><path style="fill:#000000" d="M171.93,161.07L171.98,163.07L169.95,162.13z"/></g><g><path style="fill:#ffffff" d="M176.36,164.51L195.32,164.51L195.32,158.86L176.36,158.86z"/><path style="stroke:#000000;stroke-width:0.280;stroke-opacity:0.98" d="M176.36,164.51L195.32,164.51L195.32,158.86L176.36,158.86z"/><text xml:space="preserve" fill="#000000" stroke-width="0" x="177.06" y="162.92" font-size="3.43" opacity="1.00" font-family="Microsoft Sans Serif">0200266K2</text></g></g><g id="PMI4.0"><g><path style="stroke:#000000;stroke-width:0.280" d="M144.32,150.23L144.37,156.68"/></g><g><path style="fill:#000000" d="M143.38,156.69L145.38,156.67L144.39,158.68z"/></g><g><path style="fill:#ffffff" d="M134.04,150.22L154.56,150.22L154.56,144.58L134.04,144.58z"/><path style="stroke:#000000;stroke-width:0.280;stroke-opacity:0.98" d="M134.04,150.22L154.56,150.22L154.56,144.58L134.04,144.58z"/><text xml:space="preserve" fill="#000000" stroke-width="0" x="134.75" y="148.64" font-size="3.10" opacity="1.00" font-family="Microsoft Sans Serif">8057008096</text></g></g><g id="PMI6.0"><g><path style="stroke:#000000;stroke-width:0.280" d="M142.84,24.07L142.65,28.04"/></g><g><path style="fill:#000000" d="M141.65,27.99L143.65,28.09L142.55,30.04z"/></g><g><path style="fill:#ffffff" d="M132.72,24.07L153.24,24.07L153.24,18.43L132.72,18.43z"/><path style="stroke:#000000;stroke-width:0.280;stroke-opacity:0.98" d="M132.72,24.07L153.24,24.07L153.24,18.43L132.72,18.43z"/><text xml:space="preserve" fill="#000000" stroke-width="0" x="133.43" y="22.49" font-size="3.10" opacity="1.00" font-family="Microsoft Sans Serif">8057008077</text></g></g><g id="PMI19.0"><g><path style="stroke:#000000;stroke-width:0.280" d="M104.40,33.14L109.79,33.13"/></g><g><path style="fill:#000000" d="M109.80,34.14L109.79,32.14L111.80,33.14z"/></g><g><path style="fill:#ffffff" d="M83.79,35.97L104.40,35.97L104.40,30.33L83.79,30.33z"/><path style="stroke:#000000;stroke-width:0.280;stroke-opacity:0.98" d="M83.79,35.97L104.40,35.97L104.40,30.33L83.79,30.33z"/><text xml:space="preserve" fill="#000000" stroke-width="0" x="84.50" y="34.39" font-size="3.10" opacity="1.00" font-family="Microsoft Sans Serif">4202100336</text></g></g><g/><g id="paperID" visibility="hidden" opacity="0.00" transform="scale(0.000100)"><path style="stroke:#000000;stroke-width:0.500;fill:#e6e6e6;fill-rule:evenodd" d="M-2000.00,-2000.00L2297.00,-2000.00L2297.00,2210.00L-2000.00,2210.00zM0.00,0.00L297.00,0.00L297.00,210.00L0.00,210.00z"/><path style="fill:#000000;fill-opacity:0.118" d="M3.00,210.00L297.00,210.00L297.00,3.00L300.00,3.00L300.00,213.00L3.00,213.00z"/></g><g id="hotspot.0" onmouseover="ShowHotSpot(evt,'0')" onmouseout="HideHotSpot(evt,'0')" onmousemove="ShowToolTip(evt,'0',&quot;3dp1003493 (I_CHỤP ĐẦU BU LÔNG.17)&quot;)" opacity="0"><path style="fill:#00ff00;fill-rule:evenodd" d="M118.13,31.03L118.15,35.37L117.86,35.88L114.44,36.06L113.90,35.52L112.86,34.98L112.05,34.20L112.03,31.89L112.75,31.03L114.04,30.21L114.32,29.96L117.63,29.94zM104.67,30.21L104.81,32.72L109.66,32.69L109.94,32.07L111.54,33.00L110.18,33.81L109.65,33.44L104.81,33.40L104.66,35.63L104.37,36.14L83.73,36.07L83.73,30.05L104.41,29.94zM170.77,52.44L171.28,54.57L171.29,56.50L170.95,58.02L167.26,58.07L167.03,57.77L166.00,57.48L164.92,56.18L164.92,54.37L165.91,53.24L168.02,52.19L170.53,52.16zM117.60,158.51L117.62,162.32L117.33,162.82L113.92,162.72L112.06,161.67L111.50,160.63L111.49,159.64L112.21,158.23L113.51,157.42L113.79,157.17L117.07,156.92zM167.87,176.47L168.39,179.42L168.04,181.79L164.60,182.12L163.89,181.51L162.83,180.98L162.28,180.21L162.31,178.18L162.99,177.27L164.84,176.21L167.62,176.19z"/></g><g id="hotspot.1" onmouseover="ShowHotSpot(evt,'1')" onmouseout="HideHotSpot(evt,'1')" onmousemove="ShowToolTip(evt,'1',&quot;3dp2252976&quot;)" opacity="0"><path style="fill:#00ff00;fill-rule:evenodd" d="M173.41,27.32L173.93,28.92L174.72,39.76L174.72,47.51L173.40,57.56L172.78,59.33L170.90,59.40L170.91,59.11L171.83,58.37L172.08,57.30L172.08,54.04L171.57,51.91L171.32,51.63L169.95,51.76L169.59,48.23L171.99,47.96L172.62,46.46L172.61,40.82L172.09,39.22L171.81,38.70L169.59,38.52L171.01,27.93L171.55,26.89L172.89,26.78zM169.70,153.22L170.23,155.07L170.76,161.53L171.48,161.10L172.01,161.47L176.06,161.51L176.30,158.58L195.11,158.49L195.62,158.77L195.64,164.17L195.35,164.67L176.30,164.60L176.06,162.20L172.00,162.23L171.82,162.80L171.02,162.44L171.02,172.34L169.70,181.60L169.17,183.19L167.50,183.19L167.28,182.87L167.29,182.05L167.61,182.58L168.01,182.60L168.36,181.50L168.38,177.55L167.87,175.94L167.59,175.65L167.00,175.71L166.73,176.06L166.46,176.09L166.17,172.78L168.56,172.53L168.91,171.56L169.19,169.10L168.64,164.86L168.17,163.74L167.87,163.51L165.90,163.28L166.79,158.22L167.04,159.59L167.59,160.36L168.55,160.36L168.92,159.67L169.19,157.47L168.66,154.00L168.37,153.49L167.48,152.93L168.01,152.41L169.20,152.40z"/></g><g id="hotspot.2" onmouseover="ShowHotSpot(evt,'2')" onmouseout="HideHotSpot(evt,'2')" onmousemove="ShowToolTip(evt,'2',&quot;3dp733349 (I_VÒNG ĐỆM Ø08.101)&quot;)" opacity="0"><path style="fill:#00ff00;fill-rule:evenodd" d="M172.64,10.64L172.62,16.58L162.73,16.74L163.03,24.23L163.39,24.75L162.83,26.09L162.59,26.03L161.99,24.94L161.96,24.46L162.27,24.23L162.29,20.45L162.04,16.74L151.97,16.50L151.97,10.48L172.38,10.37zM163.63,28.38L164.16,31.84L163.90,34.31L163.35,35.35L162.30,35.26L161.75,33.96L161.75,28.99L162.22,27.85L163.10,27.84zM171.57,51.91L172.08,54.04L172.08,57.30L171.83,58.37L171.47,58.80L170.41,58.89L170.16,58.26L171.06,57.86L171.28,54.57L170.78,52.44L169.84,51.90L170.09,51.65L171.32,51.63zM168.37,153.50L168.66,154.00L169.19,157.47L168.92,159.67L168.55,160.36L167.59,160.36L167.04,159.59L166.79,158.24L166.78,154.08L167.22,153.17L167.86,153.18zM167.88,175.93L167.96,176.39L166.94,176.01L166.94,175.71L167.60,175.64zM168.13,177.11L167.96,176.39L168.12,176.52zM167.49,182.06L168.16,181.80L168.03,182.60L167.57,182.58z"/></g><g id="hotspot.3" onmouseover="ShowHotSpot(evt,'3')" onmouseout="HideHotSpot(evt,'3')" onmousemove="ShowToolTip(evt,'3',&quot;3dp2337656&quot;)" opacity="0"><path style="fill:#00ff00;fill-rule:evenodd" d="M137.69,34.22L142.73,36.58L145.10,37.39L149.60,38.17L156.21,38.70L171.81,38.70L172.09,39.22L172.61,40.82L172.62,46.46L171.99,47.96L165.91,48.22L154.36,48.22L148.54,47.69L142.98,46.64L138.22,45.06L135.19,43.45L134.78,44.07L133.91,47.17L133.47,51.75L132.94,78.46L132.94,92.50L134.29,91.86L134.54,93.54L134.00,93.48L132.92,92.87L132.59,92.89L131.88,134.79L131.88,142.38L132.15,145.28L132.92,149.80L134.78,155.35L136.13,157.43L140.37,160.87L143.25,162.22L147.22,163.27L151.19,163.80L160.36,163.80L167.87,163.51L168.17,163.74L168.64,164.86L169.19,169.10L168.91,171.56L168.56,172.53L159.30,173.05L152.24,173.05L146.96,172.52L141.92,171.47L138.23,170.14L135.08,168.27L130.05,164.04L128.47,162.18L126.06,157.72L124.47,152.96L123.42,147.93L122.89,142.64L122.89,133.73L124.21,52.54L124.66,46.64L125.78,41.94L127.38,38.25L128.86,36.30L130.55,34.82L133.11,33.67L136.12,33.67zM159.42,89.45L159.40,95.40L139.27,95.31L139.03,92.91L134.66,92.72L134.66,92.41L139.03,92.22L139.27,89.29L159.15,89.18z"/></g><g id="hotspot.4" onmouseover="ShowHotSpot(evt,'4')" onmouseout="HideHotSpot(evt,'4')" onmousemove="ShowToolTip(evt,'4',&quot;3dp731662 (I_BU LÔNG 08030125.115)&quot;)" opacity="0"><path style="fill:#00ff00;fill-rule:evenodd" d="M154.66,144.46L154.64,150.41L144.74,150.56L144.76,156.47L145.07,156.69L157.82,156.11L158.34,156.64L158.35,158.35L158.06,158.86L145.55,159.57L144.50,159.84L144.23,160.63L142.11,160.71L141.90,160.39L141.67,158.77L141.66,157.00L141.85,156.14L142.35,155.84L144.06,155.70L144.06,150.56L133.98,150.32L133.98,144.30L154.39,144.19zM181.89,177.81L181.89,178.70L181.36,179.51L169.86,180.29L170.19,177.86L170.41,177.55L181.07,176.72z"/></g><g id="hotspot.5" onmouseover="ShowHotSpot(evt,'5')" onmouseout="HideHotSpot(evt,'5')" onmousemove="ShowToolTip(evt,'5',&quot;3dp731671 (I_BU LÔNG 08020125.2)&quot;)" opacity="0"><path style="fill:#00ff00;fill-rule:evenodd" d="M153.34,18.30L153.31,24.25L143.16,24.41L143.01,27.16L142.61,27.86L143.51,28.10L142.88,29.19L143.17,30.58L149.61,30.47L150.12,30.78L150.41,31.27L150.41,32.73L150.13,33.23L148.99,33.41L143.43,33.68L142.90,34.73L140.88,34.73L140.59,34.22L140.58,30.03L141.30,29.43L142.21,29.19L141.85,27.89L142.48,27.17L142.47,24.41L132.66,24.17L132.66,18.15L153.07,18.04zM177.92,54.02L177.83,56.17L173.56,56.51L173.83,53.77L177.39,53.50z"/></g></g></svg>
