<?xml version="1.0" encoding="UTF-8" standalone="no"?>
<svg xmlns="http://www.w3.org/2000/svg" xmlns:xlink="http://www.w3.org/1999/xlink" width="297.000mm" height="210.000mm" viewBox="0.000000 0.000000 297.000000 210.000000" stroke-linejoin="round" stroke-linecap="round" fill="none" fill-rule="evenodd"><desc>Composer Export</desc><script type="text/ecmascript"><![CDATA[
if(typeof(top) != "undefined")
{
	top.ShowPaper = ShowPaper;
}
function ShowHotSpot(evt,hotspotid)
{
	var svgDocument = evt.target.ownerDocument;
	var strId = "hotspot."+hotspotid;
	var hotspot = svgDocument.getElementById(strId);
	if(hotspot)
		hotspot.setAttribute("opacity",".5");
}
function HideHotSpot(evt,hotspotid)
{
	var svgDocument = evt.target.ownerDocument;
	var strId = "hotspot."+hotspotid;
	var hotspot = svgDocument.getElementById(strId);
	if(hotspot)
		hotspot.setAttribute("opacity","0");

	var toolTip = svgDocument.getElementById('ToolTip');
	if(toolTip)
		toolTip.setAttribute("visibility","hidden");
}
function ShowToolTip(evt,hotspotid,strTooltip)
{
	if(strTooltip=="")
	return;

	// change text
	var svgDocument = evt.target.ownerDocument;
	var tiptext = svgDocument.getElementById('ToolTipText');
	if( !tiptext )
	return;
	tiptext.firstChild.nodeValue = " " + strTooltip + "  " ;

	// show tooltip before, else some refresh issue

	var toolTip = svgDocument.getElementById('ToolTip');
	if(!toolTip)
	return;

	toolTip.setAttribute("visibility","visible");
	toolTip.setAttribute("opacity",".95");

	// move tooltip
	// get viewbox

	var root = svgDocument.documentElement;
	var vbox = (root.getAttribute("viewBox")).split(' ');
	var x0 = parseFloat(vbox[0]);
	var y0 = parseFloat(vbox[1]);
	var vboxW = parseFloat(vbox[2]);
	var vboxH = parseFloat(vbox[3]);

	// get default width of svg

	var strW = root.getAttribute("width");
	var svgW = parseFloat(strW);
	if(strW.indexOf('mm') != -1)
	svgW *= 3.779;

	var strH = root.getAttribute("height");
	var svgH = parseFloat(strH);
	if(strH.indexOf('mm') != -1)
	svgH *= 3.779;  	// 96 dpi  -> 96/25.4 = 3.779

	// update the viewbox / width / height if svg is embedded in html with zoom fit all
	var realx0 = x0;
	var realy0 = y0;
	var realvboxW = vboxW;
	var realvboxH = vboxH;
	var realsvgW = svgW;
	var realsvgH = svgH;

	if ((typeof(top) == "undefined") || (typeof(top.svgctl1) != "undefined")) // embedded in html
	{
		// get window size in pxl

		svgW = window.innerWidth;
		svgH = window.innerHeight;

		// calculate real viewbox

		realsvgW = svgW;
		realsvgH = svgH;
		if((svgW / svgH) > (vboxW / vboxH))
		{
			realvboxW = (vboxH * svgW) / svgH;
			realvboxH = vboxH;
			realx0 = x0 - (realvboxW - vboxW)/2 ;
		}
		else
		{
			realvboxH = (vboxW * svgH) / svgW;
			realvboxW = vboxW;
			realy0 = y0 - (realvboxH - vboxH)/2 ;
		}
	}

	// get user zoom/pan

	var newScale = root.currentScale;
	var translation = root.currentTranslate;

	// transform pxl to user unit

	var xPos = (((evt.clientX+10- translation.x)/newScale) * realvboxW)/realsvgW  + realx0 ;
	var yPos = (((evt.clientY+5- translation.y)/newScale) * realvboxH)/ realsvgH  + realy0 ;
	var scaleForWidth = ( (1 / newScale) * realvboxH) / realsvgH;

	// move tooltip

	toolTip.setAttribute("transform", "translate(" + xPos + "," + yPos + ")" );

	// resize tooltip

	var fontsize = 12;
	tiptext.setAttribute("font-size",fontsize*scaleForWidth);
	tiptext.setAttribute("y", fontsize*scaleForWidth);
	var tipBG = svgDocument.getElementById('ToolTipBG');
	var outline = tiptext.getBBox();
	if(tipBG)
	{
		tipBG.setAttribute("stroke-width", 1*scaleForWidth);
		tipBG.setAttribute("width", Number(outline.width) );
		tipBG.setAttribute("height", Number(outline.height) + fontsize*.5*scaleForWidth );
	}
	var ToolTipShadow = svgDocument.getElementById('ToolTipShadow');
	if(ToolTipShadow)
	{
		ToolTipShadow.setAttribute("width", Number(outline.width) );
		ToolTipShadow.setAttribute("height", Number(outline.height) + fontsize*.5*scaleForWidth );
		ToolTipShadow.setAttribute("x", 3*scaleForWidth);
		ToolTipShadow.setAttribute("y", 3*scaleForWidth);
	}
}
function ShowPaper()
{
  var svgDocument = getDocument();
  var paper = svgDocument.getElementById("paperID");
  if(paper)
  {
    paper.setAttribute("transform","scale(1)");
    paper.setAttribute("opacity","1");
    paper.setAttribute("visibility","visible");
  }
  var svg = svgDocument.getRootElement();
  if(svg)
  {
    svg.setAttribute("width","307.000mm");
    svg.setAttribute("height","220.000mm");
    svg.setAttribute("viewBox","-5.000000 -5.000000 307.000000 220.000000");
  }
}
]]></script><defs/><g><g id="Actor_.0"><g style="stroke:#000000;stroke-width:0.123"><path d="M111.73,132.75L111.73,132.69L109.82,132.86L109.82,133.02"/><path d="M109.82,132.86L109.52,131.73L111.41,131.56L111.73,132.69"/><path d="M109.52,131.73L109.52,131.88"/><path d="M110.83,132.28L110.74,132.25L110.59,132.25L110.45,132.28L110.42,132.30"/><path d="M110.73,132.08L110.58,132.08L110.45,132.11L110.35,132.17L110.33,132.23L110.39,132.29L110.51,132.33L110.65,132.34L110.79,132.31L110.88,132.25L110.90,132.18L110.85,132.12L110.73,132.08"/></g></g><g id="Actor_.1"><g style="stroke:#000000;stroke-width:0.123"><path d="M207.48,166.68L204.93,163.03L204.91,162.88L205.05,161.30L205.10,161.14L205.21,160.99L205.36,160.89L205.54,160.83L207.34,160.63L208.40,162.10L208.11,164.45L207.93,164.50L207.77,164.61L207.66,164.76L207.61,164.92L207.46,166.52L207.48,166.68L207.57,166.80L207.71,166.87L207.88,166.88L208.20,164.31L208.14,164.23"/><path d="M206.79,165.08L206.80,165.10L206.89,165.18L206.96,165.13L207.01,164.98L207.00,164.75L206.96,164.53L206.88,164.35L206.79,164.28L206.72,164.33L206.67,164.48L206.68,164.70L206.72,164.93L206.79,165.08"/><path d="M207.00,165.01L206.95,164.90L206.91,164.68L206.90,164.46L206.91,164.42"/><path d="M208.11,164.45L208.09,164.66L207.97,164.70L207.88,164.79L207.84,164.89L207.69,166.49L207.71,166.59L207.79,166.66L207.90,166.68"/><path d="M207.88,166.88L208.20,164.31"/><path d="M208.09,164.66L208.40,162.10"/></g></g><g id="Actor_203.0"><g style="stroke:#000000;stroke-width:0.123"><path d="M173.51,120.83L171.87,118.45"/><path d="M174.19,121.82L178.08,127.49"/><path d="M174.05,116.34L194.24,144.76"/><path d="M173.58,115.68L173.61,115.72"/><path d="M182.05,133.26L178.78,128.50"/><path d="M192.54,148.53L192.52,148.51"/><path d="M197.60,149.48L202.03,155.72"/><path d="M201.24,155.72L201.81,155.66L202.02,155.72"/></g></g><g id="Actor_.2"><g style="stroke:#000000;stroke-width:0.123"><path d="M143.77,138.49L143.61,138.13L143.61,138.04L143.79,138.45L143.78,138.49L143.72,138.51L143.60,138.47L143.42,138.06L142.73,138.13L142.64,138.16L142.57,138.22L142.55,138.29L142.54,139.25L142.53,139.72L142.56,139.80L148.41,153.13"/><path d="M143.61,138.04L144.29,137.98L144.38,137.99L144.44,138.05L151.16,152.84"/><path d="M151.16,152.84L151.10,152.79L151.00,152.78L149.63,152.92L149.31,152.96L149.22,152.99L149.16,153.05"/></g></g><g id="Actor_.3"><g style="stroke:#000000;stroke-width:0.123"><path d="M127.77,130.80L127.74,130.79L127.61,130.79L127.52,130.81"/><path d="M127.61,130.79L127.61,130.82"/></g></g><g id="Actor_.4"><g style="stroke:#000000;stroke-width:0.123"><path d="M110.75,132.31L110.73,132.31L110.60,132.30L110.49,132.33"/><path d="M110.60,132.30L110.60,132.33"/></g></g><g id="Actor_.5"><g style="stroke:#000000;stroke-width:0.123"><path d="M126.92,131.40L126.92,131.34L126.51,130.22L126.51,130.39L126.88,131.40"/><path d="M126.92,131.34L128.79,131.17L128.79,131.23"/><path d="M126.51,130.22L128.36,130.06L128.79,131.17"/><path d="M127.85,130.77L127.75,130.74L127.60,130.74L127.47,130.77L127.44,130.78"/><path d="M127.74,130.57L127.60,130.57L127.47,130.60L127.38,130.65L127.37,130.72L127.43,130.78L127.55,130.82L127.69,130.82L127.83,130.79L127.91,130.74L127.92,130.67L127.86,130.61L127.74,130.57"/></g></g><g id="Actor_.6"><g style="stroke:#000000;stroke-width:0.123"><path d="M205.79,137.89L205.76,138.20L205.76,138.22L205.76,138.25L205.76,138.27L205.77,138.29L205.77,138.31L205.78,138.33L205.79,138.35L205.80,138.36L205.85,138.43"/><path d="M205.86,138.27L205.85,138.24L205.84,138.20L205.84,138.17L205.84,138.13L205.83,138.10L205.84,138.06L205.84,138.03L205.85,138.01L205.85,137.99L205.86,137.98"/></g></g><g id="Actor_.7"><g style="stroke:#000000;stroke-width:0.123"><path d="M146.19,130.38L146.17,130.36L162.54,128.88L162.58,128.91L162.98,129.59L146.53,131.08L146.19,130.38"/><path d="M146.12,130.50L146.16,130.35"/><path d="M146.53,131.08L146.53,131.23L146.19,130.55L146.17,130.54L146.17,130.59"/><path d="M146.56,131.41L154.28,130.71"/><path d="M146.53,131.25L162.98,129.76L162.98,129.59"/><path d="M155.14,130.63L162.51,129.97L162.52,129.80"/><path d="M154.40,129.80L154.31,129.86L154.31,129.94L154.39,130.01L154.54,130.06L154.72,130.06L154.88,130.03L154.97,129.96L154.97,129.88L154.89,129.81L154.74,129.77L154.56,129.76L154.40,129.80"/><path d="M154.36,129.99L154.56,129.93L154.73,129.93L154.91,130.00"/></g></g><g id="Actor_.8"><g style="stroke:#000000;stroke-width:0.123"><path d="M155.04,130.48L155.04,130.50L155.04,130.48"/><path d="M154.18,130.55L154.25,130.69L154.32,130.74L154.44,130.75L155.03,130.70L155.13,130.67L155.15,130.61L155.15,130.47"/><path d="M154.45,130.55L154.45,130.53"/><path d="M155.13,130.47L155.13,130.47"/><path d="M154.84,130.04L154.83,130.02L154.71,129.99L154.57,129.98L154.45,130.01L154.43,130.02"/></g></g><g id="Actor_.9"><g style="stroke:#000000;stroke-width:0.123"><path d="M108.40,127.64L108.40,127.50L110.25,127.34L110.25,127.50L108.41,127.66"/><path d="M108.40,127.50L108.11,126.43L109.95,126.27L110.25,127.34"/><path d="M109.37,126.96L109.29,126.93L109.15,126.93L109.02,126.96L108.99,126.97"/><path d="M108.90,126.90L108.90,126.90L108.95,126.96L109.07,127.00L109.21,127.00L109.34,126.97L109.43,126.92L109.45,126.86L109.40,126.80L109.29,126.77L109.14,126.76L109.01,126.79L108.92,126.84L108.90,126.90"/><path d="M108.12,126.57L108.11,126.43"/></g></g><g id="Actor_177.0"><g style="stroke:#000000;stroke-width:0.123"><path d="M107.73,125.10L107.74,125.02L107.97,125.90L108.00,126.14"/><path d="M107.74,125.14L107.74,125.11L107.98,125.98L107.99,126.09"/><path d="M107.74,125.02L115.23,121.20L115.35,121.17L117.53,121.00L117.65,121.00L117.71,121.03L117.76,121.06L117.78,121.12L117.81,122.43L117.79,122.50L117.68,122.58"/><path d="M110.03,126.55L117.68,122.58"/></g></g><g id="Actor_.10"><g style="stroke:#000000;stroke-width:0.123"><path d="M206.04,136.25L199.37,128.04L199.27,127.95L199.13,127.93L197.98,128.03L205.90,137.87"/><path d="M205.89,138.01L197.97,128.17L197.98,128.03"/><path d="M205.79,139.06L199.06,130.64L199.14,129.62"/></g></g><g id="Actor_.11"><g style="stroke:#000000;stroke-width:0.123"><path d="M171.50,115.85L171.91,116.45L171.96,116.48L172.03,116.50L172.11,116.50L174.00,116.35L174.07,116.33L174.11,116.30L174.14,115.68L174.10,115.71L174.03,115.72L172.14,115.88L172.06,115.87L171.98,115.85L171.94,115.82"/><path d="M174.06,115.64L174.06,115.65L174.06,115.67L174.01,115.69L172.28,115.83L172.12,115.84L172.06,115.84L172.02,115.82L172.01,115.81"/><path d="M173.64,115.72L173.61,115.68"/><path d="M174.14,115.68L174.14,115.64L174.13,115.64"/></g></g><g id="Actor_145.0"><g style="stroke:#000000;stroke-width:0.123"><path d="M95.64,75.37L93.97,69.97L92.79,64.82L93.97,70.06L95.62,75.34L131.20,73.47L131.29,73.55L131.31,77.22L131.50,77.39L132.88,77.31L132.88,77.22L131.39,74.73"/><path d="M92.79,64.82L113.19,63.86L113.30,64.10L117.66,63.89L117.54,63.66L117.62,63.89"/><path d="M95.63,75.28L131.20,73.37L131.39,73.55L131.41,77.21L131.50,77.30L132.88,77.22"/><path d="M111.08,73.15L110.48,72.81L110.34,72.62L110.32,72.43L110.42,72.24L110.62,72.05L111.33,71.72L112.98,71.40L114.91,71.35L116.63,71.58L117.43,71.87L117.69,72.05L117.84,72.23L117.87,72.42L117.79,72.62L117.60,72.80L116.90,73.14L115.24,73.48L113.27,73.53L112.05,73.40L111.08,73.15"/><path d="M117.86,72.45L117.69,72.14L117.43,71.96L116.64,71.67L115.54,71.49L114.27,71.42L112.98,71.49L111.82,71.68L110.93,71.97L110.62,72.14L110.42,72.33L110.33,72.51"/><path d="M117.54,63.66L125.16,63.30L125.28,63.34L131.33,73.42"/><path d="M131.37,77.34L129.18,73.57"/></g></g><g id="Actor_.12"><g style="stroke:#000000;stroke-width:0.123"><path d="M142.82,123.68L142.82,123.64L142.84,123.64L143.15,124.28L143.15,124.12L142.81,123.45L142.78,123.60"/><path d="M142.81,123.45L158.56,122.11L158.60,122.13L158.97,122.76L143.15,124.12"/><path d="M150.64,123.84L143.20,124.47"/><path d="M158.97,122.76L158.96,122.92L143.15,124.28"/><path d="M150.73,122.94L150.64,123.00L150.64,123.08L150.72,123.14L150.86,123.18L151.03,123.19L151.18,123.16L151.27,123.10L151.28,123.02L151.20,122.96L151.05,122.92L150.88,122.91L150.73,122.94"/><path d="M151.21,123.14L151.05,123.08L150.88,123.07L150.70,123.13"/><path d="M158.54,122.96L158.54,123.16L151.42,123.77"/></g></g><g id="Actor_.13"><g style="stroke:#000000;stroke-width:0.123"><path d="M207.56,134.78L207.47,134.64L207.45,134.48L207.60,132.78L207.65,132.60L207.77,132.45L207.93,132.34L208.11,132.29L209.98,132.11L211.09,133.42L210.82,135.50L210.64,135.55L210.47,135.67L210.36,135.82L210.31,136.00L210.15,137.72L210.17,137.89L210.25,138.03L207.56,134.78"/><path d="M210.25,138.03L210.40,138.11L210.58,138.12L210.60,137.90L210.87,135.79L210.80,135.71"/><path d="M209.32,135.99L209.36,136.22L209.45,136.38L209.54,136.44L209.62,136.37L209.66,136.20L209.66,135.97L209.61,135.74L209.53,135.57L209.44,135.52L209.36,135.58L209.31,135.76L209.32,135.99"/><path d="M209.57,135.65L209.55,135.74L209.55,135.97L209.60,136.20L209.64,136.28"/><path d="M210.60,137.90L210.48,137.88L210.40,137.81L210.38,137.70L210.54,135.98L210.59,135.86L210.68,135.77L210.80,135.73L210.82,135.50"/><path d="M210.87,135.79L210.85,136.02L210.58,138.12"/><path d="M211.09,133.42L211.07,133.64L210.80,135.73"/></g></g><g id="Actor_.14"><g style="stroke:#000000;stroke-width:0.123"><path d="M151.44,123.57L151.44,123.72L151.42,123.77L151.33,123.80L150.76,123.85L150.65,123.84L150.58,123.80L150.50,123.65"/><path d="M151.34,123.58L151.33,123.61L151.33,123.58"/><path d="M150.76,123.66L150.77,123.63"/><path d="M151.43,123.57L151.43,123.58"/><path d="M151.14,123.16L151.14,123.16L151.03,123.13L150.90,123.12L150.78,123.15L150.77,123.16"/></g></g><g id="Actor_.15"><g style="stroke:#000000;stroke-width:0.123"><path d="M209.62,135.77L209.61,135.86L209.62,135.95L209.63,136.05L209.65,136.10L209.66,136.15"/><path d="M210.48,136.66L210.49,136.66L210.51,136.65L210.52,136.64L210.53,136.62L210.54,136.60L210.54,136.57L210.61,135.83"/></g></g><g id="Actor_.16"><g style="stroke:#000000;stroke-width:0.123"><path d="M109.06,127.00L109.16,126.97L109.29,126.98L109.29,126.98"/><path d="M109.16,126.97L109.16,127.00"/></g></g><g id="Actor_.17"><g style="stroke:#000000;stroke-width:0.123"><path d="M171.29,129.01L171.37,129.15L171.45,129.19L171.57,129.20L172.14,129.15L172.24,129.12L172.25,129.07L172.25,128.92"/><path d="M171.95,128.50L171.93,128.48L171.81,128.45L171.67,128.45L171.55,128.47L171.54,128.48"/><path d="M171.57,129.01L171.58,128.98"/><path d="M172.16,128.93L172.15,128.96L172.15,128.93"/><path d="M172.24,128.93L172.25,128.92"/></g></g><g id="Actor_.18"><g style="stroke:#000000;stroke-width:0.123"><path d="M177.57,147.96L175.13,150.12"/></g></g><g id="Actor_.19"><g style="stroke:#000000;stroke-width:0.123"><path d="M165.51,128.73L165.56,128.61L165.60,128.64L166.01,129.32L179.97,128.06L179.96,128.23L166.01,129.49L166.01,129.32"/><path d="M166.01,129.49L165.59,128.81L165.57,128.81"/><path d="M166.07,129.65L171.40,129.16"/><path d="M165.56,128.61L179.45,127.36L179.50,127.39L179.97,128.06"/><path d="M171.83,128.23L171.66,128.23L171.51,128.26L171.42,128.32L171.43,128.40L171.52,128.47L171.67,128.52L171.85,128.52L172.00,128.49L172.08,128.42L172.08,128.34L171.99,128.27L171.83,128.23"/><path d="M172.02,128.47L171.83,128.40L171.65,128.39L171.48,128.44"/><path d="M179.41,128.28L179.40,128.44L172.24,129.09"/></g></g><g id="Actor_.20"><g style="stroke:#000000;stroke-width:0.123"><path d="M151.32,152.67L151.29,152.60L180.74,149.54L180.83,149.46L172.08,135.44L144.67,138.02L151.27,152.60L151.13,152.61L144.52,138.08L144.60,137.97L171.95,135.37L172.20,135.41L180.96,149.45L180.90,149.58L180.46,149.64L151.32,152.67L151.32,152.82"/><path d="M144.52,138.08L144.52,138.22"/><path d="M152.40,152.49L146.41,139.50L145.12,139.10"/><path d="M146.41,139.50L171.06,137.15L178.73,149.75"/><path d="M146.46,139.61L171.06,137.26L171.06,137.15L171.98,136.40L171.95,136.23"/><path d="M151.26,152.83L151.27,152.60"/><path d="M151.13,152.61L151.12,152.75"/><path d="M151.29,152.60L151.28,152.83"/><path d="M171.06,137.26L178.66,149.76"/><path d="M171.98,136.40L172.11,136.28"/><path d="M171.96,136.34L172.06,136.36"/><path d="M180.97,149.52L180.96,149.74"/></g></g><g id="Actor_.21"><g style="stroke:#000000;stroke-width:0.123"><path d="M207.00,164.85L206.98,164.77L206.98,164.72L206.97,164.63L206.97,164.57"/><path d="M207.80,165.39L207.82,165.38L207.83,165.38L207.84,165.36L207.85,165.34L207.86,165.32L207.91,164.76"/></g></g><g id="Actor_.22"><g style="stroke:#000000;stroke-width:0.123"><path d="M147.34,141.53L150.41,139.23"/><path d="M147.40,141.66L150.68,139.21"/></g></g><g id="Actor_120.0"><g style="stroke:#000000;stroke-width:0.123"><path d="M202.72,77.00L204.20,57.96L204.29,57.96L202.81,77.00L202.72,77.00L188.79,65.44L188.41,65.08L188.14,64.72L187.97,64.36L187.91,64.01L188.99,45.93L189.04,45.64L189.19,45.36L189.45,45.09L189.81,44.83L190.27,44.58L191.47,44.12L193.02,43.74L194.93,43.44L192.27,43.93L190.90,44.35L190.35,44.59L189.53,45.09L189.27,45.36L189.12,45.65L189.08,45.93L189.14,46.23L189.31,46.53L189.59,46.83L189.98,47.13L204.29,56.80L204.20,56.80L189.90,47.13L189.23,46.53L189.05,46.23L188.99,45.93"/><path d="M194.93,43.44L194.48,50.17"/><path d="M204.29,57.96L204.20,57.90L204.29,56.80"/><path d="M204.20,57.96L204.11,57.90L204.20,57.90"/><path d="M204.11,57.90L204.20,56.80"/></g></g><g id="Actor_142.0"><g style="stroke:#000000;stroke-width:0.123"><path d="M96.51,77.49L97.72,80.46L99.37,83.98L100.83,86.63L102.43,89.16L102.42,89.06L100.18,85.43L99.27,83.69L97.72,80.36L96.75,78.03L95.84,75.63L96.51,77.49"/><path d="M95.84,75.63L115.00,74.61L115.73,76.23L118.82,76.06L118.05,74.44L118.78,76.06"/><path d="M102.42,89.06L114.09,88.60L120.43,89.59L121.15,89.78L121.70,90.09L122.27,90.24L128.87,91.17L128.87,91.27L122.28,90.34L121.70,90.20L121.15,89.89L120.43,89.70L114.09,88.70L102.43,89.16"/><path d="M114.09,88.60L114.09,88.70"/><path d="M118.05,74.44L122.31,74.21L122.44,74.45L122.34,74.46L122.48,74.50L125.23,79.85L124.87,79.81L123.25,79.91L128.87,91.17"/><path d="M122.44,74.49L122.44,74.45"/><path d="M123.30,80.00L125.16,79.92L125.24,83.84L125.30,83.97L125.45,84.02L132.57,83.59L132.57,83.50L125.37,83.90L125.29,79.98L125.23,79.85"/><path d="M123.32,80.00L125.30,83.97"/><path d="M128.67,78.14L128.63,75.91L123.34,76.17"/><path d="M123.35,76.20L128.63,75.91"/><path d="M128.66,78.08L129.50,78.03L132.57,83.50"/></g></g><g id="Actor_.23"><g style="stroke:#000000;stroke-width:0.123"><path d="M166.59,137.69L172.37,139.42"/><path d="M172.24,139.21L167.03,137.65"/></g></g><g id="Actor_.24"><g style="stroke:#000000;stroke-width:0.123"><path d="M155.98,152.12L151.56,150.66"/></g></g><g id="Actor_.25"><g style="stroke:#000000;stroke-width:0.123"><path d="M203.18,168.85L194.50,155.93L194.48,155.74L194.94,149.51L195.00,149.31L195.14,149.13L195.33,148.99L195.53,148.94L196.39,148.84L203.99,159.61"/><path d="M195.36,156.10L195.44,156.35L195.50,156.40L195.55,156.36L195.57,156.07L195.49,155.78L195.43,155.73L195.38,155.77L195.35,155.89L195.36,156.10"/><path d="M195.67,151.87L195.69,151.58L195.75,151.53L195.81,151.58L195.90,151.87L195.87,152.16L195.82,152.21L195.76,152.16L195.67,151.87"/><path d="M196.72,153.04L196.68,153.26L196.42,156.50L196.42,156.78L196.54,157.33L196.63,157.53L201.47,164.68"/><path d="M201.53,164.22L196.42,156.69"/><path d="M196.35,157.56L201.18,164.71L201.29,164.82L201.38,164.81L201.47,164.68L201.51,164.46L201.80,161.12L201.80,160.83L201.67,160.25L201.57,160.04L196.70,153.02L196.60,152.92L196.50,152.94L196.43,153.07L196.39,153.29L196.14,156.53L196.18,157.10L196.35,157.56"/><path d="M202.19,166.20L202.28,166.50L202.35,166.56L202.41,166.52L202.42,166.45L202.43,166.22L202.40,166.04L202.34,165.90L202.27,165.85L202.21,165.89L202.18,166.01L202.19,166.20"/><path d="M203.81,161.65L203.71,161.79L203.64,162.00L203.07,168.54L203.10,168.74"/><path d="M202.56,161.83L202.60,162.01L202.66,162.15L202.73,162.20L202.78,162.16L202.81,162.03L202.81,161.85L202.77,161.67L202.71,161.54L202.65,161.49L202.59,161.53L202.56,161.83"/></g></g><g id="Actor_128.0"><g style="stroke:#000000;stroke-width:0.123"><path d="M173.33,45.71L173.41,45.56"/><path d="M178.15,49.49L178.26,49.41L177.00,52.67"/><path d="M179.23,11.33L177.49,11.35L177.51,11.40"/><path d="M177.49,11.35L177.49,11.41"/><path d="M177.51,11.36L179.19,11.34L179.34,9.01L179.41,9.00L196.69,16.02L196.61,16.02L194.84,42.84L194.63,43.46"/><path d="M178.26,49.41L178.14,49.42"/><path d="M178.26,31.98L178.19,32.59"/><path d="M178.20,32.58L178.20,32.58"/><path d="M196.61,16.02L179.34,9.01"/><path d="M183.18,32.99L183.07,32.79L183.02,32.33L183.08,31.89L183.18,31.76"/><path d="M183.00,32.79L183.13,33.01L183.21,32.98L183.32,32.66L183.33,32.18L183.16,31.74L183.08,31.77L182.97,32.09L183.00,32.79"/><path d="M196.69,16.02L194.92,42.84L194.71,43.45"/></g></g><g id="Actor_127.0"><g style="stroke:#000000;stroke-width:0.123"><path d="M105.75,48.81L105.65,48.52L106.11,49.45L105.75,48.81"/><path d="M105.71,48.52L105.69,47.98L136.12,46.59L105.75,47.96L105.65,48.52"/><path d="M105.69,47.98L105.68,47.96"/><path d="M106.11,49.45L107.35,49.40L107.82,49.52L109.13,52.17L107.81,49.45L107.35,49.33L106.11,49.37"/><path d="M109.25,55.45L109.14,52.21L109.24,55.45"/><path d="M124.67,55.23L114.02,55.67"/><path d="M124.62,55.15L114.33,55.58"/><path d="M163.11,46.06L163.11,45.53L162.00,45.55L136.21,46.57L136.17,47.12"/><path d="M136.21,47.12L136.21,46.57"/><path d="M136.22,46.59L163.11,45.53"/><path d="M136.16,46.59L136.18,47.14"/><path d="M163.11,46.05L163.17,45.52L166.27,45.41"/><path d="M163.14,46.04L163.15,45.51L166.27,45.39"/><path d="M163.17,45.52L163.15,45.51"/><path d="M166.52,46.35L165.58,46.13L164.76,46.17L164.47,46.29"/><path d="M165.29,46.05L164.58,46.15L164.47,46.21L164.50,46.34L165.70,46.52L166.40,46.42L166.54,46.30L166.13,46.12L165.29,46.05"/><path d="M173.23,45.58L173.23,45.58"/><path d="M173.25,45.60L178.11,49.38L178.15,49.56L177.01,52.60L176.18,52.67"/></g></g><g id="Actor_122.0"><g style="stroke:#000000;stroke-width:0.123"><path d="M166.29,44.92L166.26,45.81L167.45,11.57L166.29,44.92"/><path d="M166.28,45.83L173.47,45.56L178.18,32.78L179.18,11.39L167.45,11.57"/><path d="M167.43,11.56L179.18,11.39"/></g></g><g id="Actor_131.0"><g style="stroke:#000000;stroke-width:0.123"><path d="M93.01,67.72L92.95,67.38L93.02,67.77"/><path d="M93.01,67.81L93.45,67.79"/><path d="M92.99,67.38L92.89,65.34"/><path d="M93.01,67.66L93.01,67.67"/><path d="M92.79,66.26L92.65,65.13L92.95,67.38"/><path d="M92.94,66.26L92.89,65.31"/><path d="M92.60,64.67L92.65,65.13L92.60,64.67L92.85,64.66"/><path d="M92.87,64.82L92.84,64.31L92.87,64.82"/><path d="M92.84,64.31L125.12,62.81L92.83,64.29"/><path d="M92.87,64.29L92.79,60.79L96.18,60.64L95.94,59.71L96.21,60.64"/><path d="M95.94,59.71L105.65,57.37"/><path d="M105.51,59.52L106.87,62.75L128.93,61.74L124.62,55.07L114.43,55.48L104.97,58.23L105.51,59.52"/><path d="M105.00,58.30L114.43,55.48"/><path d="M105.65,57.30L109.52,56.30L109.12,55.47L109.49,56.31"/><path d="M109.12,55.46L176.96,52.64L188.06,61.56"/><path d="M114.43,55.55L124.61,55.05"/><path d="M128.88,61.74L124.61,55.13"/><path d="M125.12,63.30L125.12,62.81"/><path d="M127.11,66.40L187.78,63.43L187.96,63.28"/><path d="M127.06,66.31L187.79,63.35L187.96,63.20"/><path d="M152.62,56.64L151.65,56.63"/><path d="M151.87,56.48L151.63,56.62L152.25,56.73L152.64,56.58L151.87,56.48"/><path d="M156.70,61.02L156.27,60.91L155.68,61.00"/><path d="M155.87,60.85L156.72,60.94L156.37,61.10L155.66,60.99L155.87,60.85"/><path d="M169.40,55.85L169.87,55.70L170.38,55.81L170.20,55.94L169.48,55.90L169.74,55.78L170.37,55.88"/><path d="M172.74,57.98L171.79,57.93L172.40,58.06L172.75,57.91L172.31,57.80L171.75,57.96"/><path d="M175.21,60.16L174.23,60.11L174.76,59.98L175.22,60.09L174.86,60.25L174.20,60.14"/><path d="M187.78,63.43L187.79,63.35"/></g></g><g id="Actor_.26"><g style="stroke:#000000;stroke-width:0.123"><path d="M123.57,122.41L123.64,122.59L123.64,122.43L125.41,122.28L125.03,121.29L123.27,121.43L123.27,121.59L123.57,122.41"/><path d="M123.64,122.43L123.27,121.43"/><path d="M123.64,122.59L125.41,122.45L125.41,122.28"/><path d="M124.52,121.94L124.44,121.91L124.30,121.91L124.17,121.93L124.16,121.94"/><path d="M124.30,121.74L124.17,121.77L124.09,121.82L124.07,121.88L124.13,121.93L124.24,121.97L124.38,121.97L124.51,121.94L124.59,121.89L124.60,121.84L124.55,121.78L124.43,121.75L124.30,121.74"/></g></g><g id="Actor_.27"><g style="stroke:#000000;stroke-width:0.123"><path d="M161.41,121.96L161.45,121.86L161.49,121.89L161.87,122.51L161.86,122.67L161.48,122.05L161.46,122.05"/><path d="M161.87,122.51L175.29,121.36L175.29,121.53L161.86,122.68"/><path d="M161.96,122.86L167.10,122.42"/><path d="M161.45,121.86L174.82,120.72L174.87,120.75L175.29,121.36"/><path d="M167.31,121.51L167.48,121.51L167.63,121.55L167.72,121.62L167.72,121.69L167.63,121.75L167.49,121.78L167.32,121.78L167.17,121.74L167.09,121.67L167.09,121.60L167.17,121.54L167.31,121.51"/><path d="M167.65,121.74L167.48,121.68L167.31,121.67L167.14,121.72"/><path d="M174.79,121.57L174.78,121.76L167.87,122.36"/></g></g><g id="Actor_.28"><g style="stroke:#000000;stroke-width:0.123"><path d="M166.94,122.24L167.04,122.39L167.11,122.43L167.22,122.44L167.78,122.39L167.86,122.36L167.88,122.31L167.88,122.16"/><path d="M167.58,121.76L167.57,121.76L167.46,121.73L167.33,121.72L167.21,121.75L167.21,121.75"/><path d="M167.23,122.25L167.23,122.22"/><path d="M167.79,122.17L167.78,122.20L167.78,122.17"/><path d="M167.87,122.17L167.88,122.16"/></g></g><g id="Actor_172.0"><g style="stroke:#000000;stroke-width:0.123"><path d="M134.53,137.70L127.58,120.28L127.51,120.21L127.38,120.18L124.93,120.39L124.81,120.42L124.73,120.52L124.71,120.60L124.71,121.31"/><path d="M127.84,130.10L124.97,122.48"/><path d="M130.83,138.05L129.12,133.50"/><path d="M134.49,137.71L134.32,137.66L131.63,137.91L131.45,137.99"/></g></g><g id="Actor_.29"><g style="stroke:#000000;stroke-width:0.123"><path d="M124.44,121.96L124.43,121.96L124.31,121.95L124.24,121.97"/><path d="M124.31,121.95L124.31,121.97"/></g></g><g id="Actor_180.0"><g style="stroke:#000000;stroke-width:0.123"><path d="M136.34,110.52L136.32,110.49L136.32,110.38L136.36,110.47L136.35,110.51L136.28,110.54L136.18,110.55L136.08,110.53L136.03,110.50L135.99,110.41L135.24,110.47L135.16,110.49L135.10,110.55L135.08,110.62L135.09,112.40L135.11,112.47L136.64,115.74"/><path d="M137.54,115.67L137.60,115.61L137.68,115.58L139.64,115.43L139.72,115.44L139.78,115.49L137.28,110.38L137.22,110.33L137.14,110.32L136.32,110.38"/><path d="M139.78,115.49L139.78,115.49"/></g></g><g id="Actor_204.0"><g style="stroke:#000000;stroke-width:0.123"><path d="M170.12,113.06L167.79,109.73L167.76,109.63L167.83,108.01L167.86,107.91L167.94,107.83L168.05,107.79L168.72,107.74L168.78,107.83L168.84,107.86L168.94,107.88L169.03,107.87L169.10,107.84L169.10,107.81L169.04,107.72L169.74,107.66L169.85,107.68L169.92,107.75L173.57,112.79"/><path d="M169.04,107.72L169.04,107.82L169.06,107.86"/><path d="M173.56,112.79L173.51,112.74L173.40,112.72L171.65,112.87L171.54,112.90L171.49,112.95"/></g></g><g id="Actor_.30"><g style="stroke:#000000;stroke-width:0.123"><path d="M173.44,135.69L173.22,135.33L173.22,135.25L173.47,135.65L173.46,135.68L173.40,135.70L173.28,135.66L173.04,135.27L172.37,135.33L172.28,135.36L172.22,135.42"/><path d="M183.05,149.52L174.02,135.25L173.96,135.20L173.88,135.19L173.22,135.25"/><path d="M181.12,149.72L181.18,149.66L181.28,149.63L182.90,149.46L182.99,149.48L183.04,149.52"/></g></g><g id="Actor_1.0"><g style="stroke:#000000;stroke-width:0.123"><path d="M102.45,169.92L102.31,169.57L102.36,169.93"/><path d="M102.36,169.84L102.44,169.83"/><path d="M102.51,170.65L102.16,167.37L102.52,170.76L193.45,160.58"/><path d="M102.29,169.46L102.31,169.57L102.29,169.46"/><path d="M102.40,169.35L102.27,169.37"/><path d="M102.33,168.41L102.31,168.27"/><path d="M102.52,170.73L102.43,170.22L102.51,170.63"/><path d="M102.41,170.13L102.46,170.12"/><path d="M193.37,156.66L126.23,164.01"/><path d="M137.55,163.66L137.31,163.54L136.99,163.66"/><path d="M137.23,163.78L137.00,163.55L137.25,163.46L137.57,163.58L137.23,163.78"/><path d="M198.82,156.07L197.07,156.26"/><path d="M198.66,159.99L201.33,159.70"/><path d="M201.78,156.48L202.58,156.30L202.18,155.73L201.30,155.80"/><path d="M203.05,158.28L203.11,157.07L202.77,156.56L201.90,156.65"/><path d="M201.72,156.40L202.58,156.30"/><path d="M202.08,156.44L202.06,156.64"/></g></g><g id="Actor_.31"><g style="stroke:#000000;stroke-width:0.123"><path d="M117.23,156.93L117.38,156.95L117.43,156.87L117.52,156.84L120.61,156.51L120.70,156.53L120.75,156.60L120.89,156.55L120.83,156.46L120.75,156.41L120.73,156.40L120.61,156.39L117.51,156.71L117.39,156.75L117.29,156.83L117.23,156.93L117.20,156.92L116.69,156.51L116.68,156.49L116.64,154.84L116.68,154.71L116.72,154.66L116.78,154.60L116.93,154.55L119.99,154.24L120.13,154.26L120.24,154.34L120.28,154.46L120.89,156.55"/></g></g><g id="Actor_174.0"><g style="stroke:#000000;stroke-width:0.123"><path d="M207.42,166.59L206.78,173.47L206.61,173.58L204.06,173.87L203.81,173.73L203.44,173.17L203.47,172.56L203.38,172.34L203.31,172.44L203.27,172.91L203.42,172.89L203.45,172.47"/><path d="M203.27,172.91L202.88,172.25L206.51,130.93L207.52,132.19L207.78,132.30L210.44,132.07L210.65,131.97L210.57,132.81"/><path d="M209.79,132.05L209.87,131.21L209.37,130.69L206.68,130.94L207.76,132.22L210.47,131.96L210.06,131.43L210.00,132.03"/><path d="M206.51,130.93L206.71,130.83L209.18,130.60L209.51,130.65L210.02,131.19L209.95,132.04"/><path d="M210.10,137.84L207.91,161.41"/><path d="M210.65,131.97L210.21,131.41L210.06,131.43"/><path d="M210.02,131.19L209.87,131.21"/></g></g><g id="Actor_.32"><g style="stroke:#000000;stroke-width:0.123"><path d="M110.74,119.97L110.76,120.61L111.01,121.46L111.04,121.49L111.11,121.51L111.19,121.52L113.23,121.35L113.31,121.33L113.36,121.30L113.38,121.27L113.36,120.62L113.35,120.66L113.29,120.69L113.21,120.70L111.17,120.87L111.09,120.87L111.02,120.85L110.99,120.81L110.74,119.97L110.74,119.96"/><path d="M113.27,120.62L113.27,120.63L113.26,120.65L113.20,120.67L111.16,120.84L111.10,120.83L111.07,120.81L111.07,120.80"/><path d="M113.36,120.62L113.36,120.61"/><path d="M113.10,120.63L113.11,120.68"/></g></g><g id="Actor_.33"><g style="stroke:#000000;stroke-width:0.123"><path d="M193.38,156.54L191.49,156.75L193.50,154.83"/><path d="M191.49,156.75L191.48,156.87"/><path d="M193.71,152.00L192.41,150.09L192.42,149.97L193.72,151.88"/><path d="M193.87,149.82L192.42,149.97"/><path d="M197.08,156.14L198.69,155.96L198.72,155.93"/><path d="M198.77,156.00L198.69,156.08"/><path d="M198.69,155.96L198.68,156.08"/></g></g><g id="Actor_179.0"><g style="stroke:#000000;stroke-width:0.123"><path d="M99.77,157.91L99.66,157.93L99.56,157.32L99.45,155.01L99.69,156.37L99.80,158.70L99.70,158.15L99.78,158.15"/><path d="M128.47,152.63L128.63,152.56L128.91,152.53L128.91,152.44L128.62,152.47L128.45,152.57L128.47,152.63L128.56,152.68L128.98,152.66L129.16,153.19L129.21,155.71L99.81,158.81L99.70,156.40L99.45,154.93L99.56,157.40L99.67,158.01L99.77,158.00"/><path d="M99.81,158.81L99.70,158.15"/><path d="M99.66,157.93L99.67,158.01"/><path d="M99.44,154.90L128.72,151.91L128.91,152.44"/><path d="M128.73,152.55L128.73,152.69"/></g></g><g id="Actor_218.0"><g style="stroke:#000000;stroke-width:0.123"><path d="M199.22,119.61L199.27,118.89L198.84,118.44L196.42,118.63L196.33,118.70L197.26,119.75L199.78,119.54L199.44,119.08L199.58,119.07L199.95,119.54L199.78,119.62L197.27,119.82L197.05,119.74L196.17,118.65L193.29,157.67L193.48,158.05L193.58,157.27L193.70,157.16L193.86,157.39L193.94,157.82L193.90,158.67L194.18,159.05L194.45,159.09L196.48,158.87"/><path d="M193.50,158.07L193.64,158.06L193.75,157.20"/><path d="M193.67,157.65L193.92,157.62"/><path d="M199.27,118.89L199.42,118.88L199.07,118.47L198.83,118.37L196.37,118.56L196.17,118.65"/><path d="M196.97,157.50L197.26,153.82"/><path d="M199.08,130.65L197.52,150.46"/><path d="M199.95,119.54L199.29,127.97"/><path d="M199.40,119.59L199.44,119.08"/><path d="M199.42,118.88L199.36,119.59"/></g></g><g id="Actor_172.1"><g style="stroke:#000000;stroke-width:0.123"><path d="M169.00,134.48L158.83,117.71L158.76,117.64L158.64,117.61L156.29,117.80L156.17,117.84L156.10,117.91L156.06,118.01L156.03,119.19L156.06,119.29L157.74,122.18"/><path d="M161.69,128.96L158.32,123.18"/><path d="M165.11,134.84L162.29,129.99"/><path d="M168.98,134.48L168.82,134.43L166.23,134.67L166.07,134.75"/></g></g><g id="Actor_.34"><g style="stroke:#000000;stroke-width:0.123"><path d="M110.05,133.88L110.03,133.66L109.94,133.33L110.04,133.84"/><path d="M110.82,133.25L109.92,133.33L109.84,133.02L109.83,133.06"/><path d="M109.94,133.33L110.80,133.26L110.89,133.21L110.78,133.17L109.92,133.25L109.92,133.33"/><path d="M109.92,133.25L109.83,132.92L128.80,131.23L129.09,132.00L129.11,133.65L110.44,135.34"/><path d="M109.83,132.92L109.82,133.02"/></g></g><g id="Actor_210.0"><g style="stroke:#000000;stroke-width:0.123"><path d="M191.42,148.50L181.88,134.49L181.87,134.61L191.41,148.62L191.42,148.50L193.78,148.26L193.91,148.28L193.98,148.34"/><path d="M181.88,134.49L184.07,134.29L184.19,134.31L184.28,134.38L193.98,148.34"/><path d="M191.41,148.62L193.77,148.38L193.83,148.40"/><path d="M193.36,148.45L193.34,148.42"/></g></g><g id="Actor_206.0"><g style="stroke:#000000;stroke-width:0.123"><path d="M139.35,154.07L133.57,139.25L133.56,139.12L139.36,153.99L144.68,153.44L144.81,153.46L144.86,153.50"/><path d="M144.90,153.49L138.71,138.75L138.61,138.67L138.48,138.65L133.56,139.12"/><path d="M139.36,153.99L139.36,154.07"/></g></g><g id="Actor_187.0"><g style="stroke:#000000;stroke-width:0.123"><path d="M125.03,161.58L125.08,161.52L125.23,161.48L125.94,161.40L125.74,160.68L104.42,162.97L104.46,163.17L101.75,163.46L102.00,164.89L102.10,167.38L101.99,166.68L102.07,166.67"/><path d="M102.10,167.38L126.23,164.73L126.21,162.27L126.02,161.59L125.15,161.66L125.03,161.60L125.01,161.51L125.08,161.43L125.23,161.39L125.94,161.31"/><path d="M102.06,166.42L101.94,166.43L101.94,166.53L102.06,166.51"/><path d="M101.94,166.53L101.86,166.00L101.94,166.43"/><path d="M101.99,166.68L102.09,167.25L101.99,164.86L101.75,163.46"/><path d="M101.86,166.00L102.04,165.98"/><path d="M104.42,162.97L104.42,163.18"/><path d="M104.43,163.17L104.43,163.08L104.45,163.17"/><path d="M125.75,161.62L125.75,161.42"/></g></g><g id="Actor_201.0"><g style="stroke:#000000;stroke-width:0.123"><path d="M96.55,141.50L96.57,141.59L96.46,139.41L96.32,138.28L96.42,140.45L96.55,141.50"/><path d="M96.57,141.53L96.57,141.69L96.42,140.50L96.31,138.20L96.46,139.43L96.57,141.53"/><path d="M123.71,139.15L96.57,141.69"/><path d="M126.28,136.79L126.25,136.53L125.88,135.49L96.31,138.18"/></g></g><g id="Actor_.35"><g style="stroke:#000000;stroke-width:0.123"><path d="M108.46,140.58L108.62,141.25L108.66,141.30L108.73,141.32L108.83,141.32L111.13,141.11L111.22,141.09L111.28,141.05L111.29,141.00L111.27,140.31"/><path d="M111.26,140.32L111.26,140.34L111.20,140.38L111.10,140.40L109.03,140.59L108.81,140.61L108.71,140.61L108.63,140.59L108.61,140.56"/><path d="M111.16,140.32L111.16,140.34L111.09,140.35L108.79,140.57L108.73,140.56L108.71,140.55"/><path d="M111.03,140.36L111.02,140.34"/></g></g><g id="Actor_183.0"><g style="stroke:#000000;stroke-width:0.123"><path d="M108.44,140.58L108.64,141.46L108.71,143.49L108.59,143.08L108.70,143.61L108.64,141.41L108.46,140.58"/><path d="M108.72,143.53L108.71,143.53"/><path d="M108.35,140.59L108.43,142.46L108.55,142.97L108.69,142.88"/><path d="M108.55,142.89L108.42,142.31L108.36,140.59"/><path d="M108.71,143.63L123.76,142.19"/><path d="M108.59,143.08L108.69,143.07"/><path d="M108.55,142.97L108.69,142.96"/><path d="M184.27,134.37L184.25,134.19L183.53,133.14L183.38,133.13L126.86,138.42"/><path d="M134.32,141.18L128.04,141.78"/><path d="M142.81,140.37L139.52,140.68"/><path d="M144.00,137.43L143.78,137.36L144.00,137.43"/><path d="M143.80,137.43L143.98,137.43"/><path d="M167.61,137.99L150.05,139.67"/><path d="M183.16,136.50L175.29,137.26"/></g></g><g id="Actor_185.0"><g style="stroke:#000000;stroke-width:0.123"><path d="M132.05,156.06L132.12,156.54"/><path d="M132.10,156.49L132.05,156.15"/><path d="M193.98,148.38L132.08,154.83"/><path d="M132.84,158.61L132.86,158.61"/><path d="M137.58,158.11L150.02,156.79"/><path d="M182.23,153.36L152.82,156.49"/><path d="M166.47,151.97L166.91,151.92L166.50,151.82L166.38,151.89L166.47,151.97"/><path d="M166.91,151.92L166.82,151.76L166.66,151.72L166.38,151.80L166.38,151.89"/><path d="M185.27,153.03L193.70,152.13"/></g></g><g id="Actor_.36"><g style="stroke:#000000;stroke-width:0.123"><path d="M132.42,157.22L132.18,156.53L132.59,156.22L140.95,155.34L133.73,161.00L132.42,157.22"/><path d="M133.73,161.00L133.73,161.13L132.18,156.66L132.18,156.53"/><path d="M133.73,161.13L140.95,155.46L140.95,155.34"/></g></g><g id="Actor_162.0"><g style="stroke:#000000;stroke-width:0.123"><path d="M151.95,161.19L149.75,156.19L149.73,156.10L149.75,154.59L149.78,154.50L149.85,154.43L149.95,154.39L151.65,154.22L151.75,154.23L151.82,154.28L154.82,160.88"/><path d="M153.67,161.01L153.67,160.92L152.89,161.01L152.79,161.04L152.72,161.11"/><path d="M153.88,160.98L153.89,160.90L153.65,160.38L153.60,160.34L153.52,160.33L153.45,160.36L153.44,160.40L153.67,160.92"/><path d="M153.89,160.90L154.65,160.82L154.75,160.83L154.81,160.88"/><path d="M153.88,160.98L153.65,160.47L153.60,160.43L153.52,160.42L153.45,160.45"/></g></g><g id="Actor_.37"><g style="stroke:#000000;stroke-width:0.123"><path d="M111.08,123.32L111.02,121.52L110.76,120.63L110.81,122.69L110.93,123.12L110.81,122.60L110.75,120.72L111.02,121.60L111.07,123.32"/><path d="M111.02,123.35L110.97,123.20L111.00,123.36"/><path d="M110.93,123.12L111.07,123.11"/><path d="M110.93,123.05L111.06,123.03"/><path d="M110.97,123.20L111.07,123.19"/><path d="M110.75,120.59L110.76,120.59"/><path d="M123.63,122.57L116.54,123.17"/><path d="M139.20,121.27L128.34,122.18"/><path d="M139.63,118.60L139.52,118.70L139.59,118.75L139.86,118.77L139.97,118.66L139.63,118.60"/><path d="M139.53,118.71L139.96,118.72"/><path d="M141.56,121.08L156.37,119.84"/><path d="M171.50,115.85L171.94,116.55L171.86,118.51L159.94,119.54"/></g></g><g id="Actor_189.0"><g style="stroke:#000000;stroke-width:0.123"><path d="M147.10,136.53L147.17,136.45L147.37,136.41L148.80,136.27L148.89,136.29L148.95,136.34L140.63,119.17L140.57,119.12L140.49,119.10L139.02,119.25L138.96,119.31L138.94,119.38L138.93,120.67L138.95,120.75L146.39,136.59"/><path d="M143.92,128.28L143.85,128.22L143.86,128.15L143.96,128.10L144.11,128.09L144.25,128.11L144.33,128.17L144.31,128.24L144.21,128.29L144.06,128.30L143.92,128.28"/><path d="M144.31,128.24L144.25,128.19L144.11,128.16L143.96,128.18L143.86,128.23"/><path d="M147.22,136.52L148.84,136.36"/><path d="M148.96,136.35L148.95,136.34"/></g></g><g id="Actor_.38"><g style="stroke:#000000;stroke-width:0.123"><path d="M127.01,152.09L123.73,142.11L123.69,140.09L123.78,139.94L123.96,139.90"/><path d="M129.27,158.96L128.24,155.84"/><path d="M134.40,163.11L134.23,163.05L131.69,163.33L131.52,163.43"/><path d="M134.40,163.11L132.02,156.24"/></g></g><g id="Actor_.39"><g style="stroke:#000000;stroke-width:0.123"><path d="M109.52,166.56L109.54,167.31L109.53,167.37L109.46,167.43L109.35,167.45L106.71,167.74L106.60,167.74L106.51,167.71L106.47,167.65L106.32,166.91"/><path d="M109.51,166.56L109.50,166.59L109.43,166.64L109.33,166.67L106.68,166.96L106.57,166.95L106.48,166.92L106.47,166.90"/><path d="M109.39,166.58L109.39,166.58L109.31,166.61L106.87,166.88L106.67,166.90L106.59,166.89L106.58,166.88"/><path d="M109.27,166.59L109.28,166.61"/></g></g><g id="Actor_192.0"><g style="stroke:#000000;stroke-width:0.123"><path d="M134.96,167.13L134.97,182.48L134.91,182.53L134.82,182.56L132.32,182.86L132.21,182.86L132.12,182.82L132.08,182.77L131.63,181.30L131.54,167.51"/><path d="M134.95,167.13L134.89,167.20L134.79,167.23L132.24,167.51L132.13,167.51L132.02,167.45"/><path d="M132.13,167.44L132.22,167.46L134.77,167.17L134.84,167.14"/></g></g><g id="Actor_182.0"><g style="stroke:#000000;stroke-width:0.123"><path d="M111.00,120.67L111.00,120.76L110.73,119.92L110.66,117.87L110.93,118.70L111.00,120.67"/><path d="M110.99,120.81L184.51,114.79L184.65,112.85L184.02,111.97L183.38,112.00L110.67,117.83"/><path d="M110.97,120.68L110.92,118.80L110.68,117.95L110.73,119.82L110.97,120.68"/></g></g><g id="Actor_178.0"><g style="stroke:#000000;stroke-width:0.123"><path d="M105.49,129.78L105.33,129.14L105.39,129.38"/><path d="M104.97,127.67L105.33,129.14"/><path d="M105.06,128.02L104.96,127.63L104.91,126.28L104.94,126.18L104.99,126.11L107.57,125.02L107.70,125.03L110.84,136.85"/><path d="M104.97,127.67L104.96,127.63"/><path d="M107.29,137.17L106.04,132.05"/><path d="M108.35,140.59L108.39,141.68L108.13,140.61"/></g></g><g id="Actor_191.0"><g style="stroke:#000000;stroke-width:0.123"><path d="M163.03,138.43L163.09,138.48L163.20,138.51L163.32,138.51L165.82,138.27L165.92,138.25L165.98,138.20L165.99,138.15"/><path d="M162.42,135.09L162.54,131.39L162.51,132.18"/><path d="M163.38,131.87L163.30,131.85L163.24,131.79L162.56,130.64L162.56,130.58L162.61,130.54"/><path d="M162.56,130.64L162.54,131.39L162.56,130.58"/><path d="M165.98,138.20L165.99,138.15"/></g></g><g id="Actor_184.0"><g style="stroke:#000000;stroke-width:0.123"><path d="M96.36,132.86L96.36,132.91L96.23,132.16L96.10,130.69L96.24,131.43L96.36,132.86"/><path d="M96.37,132.89L96.23,131.37L96.09,130.59L96.22,132.16L96.37,133.00L96.37,132.89"/><path d="M96.37,133.00L106.04,132.15L105.98,130.50L105.79,129.75L96.09,130.59"/></g></g><g id="Actor_190.0"><g style="stroke:#000000;stroke-width:0.123"><path d="M206.73,173.53L217.22,189.14L217.00,189.04L214.29,189.42L214.16,189.54L214.09,189.79L213.89,192.03L193.43,160.55L193.55,158.42L193.67,158.22L193.94,158.13"/><path d="M199.05,163.73L198.76,163.60L198.48,163.70L198.49,163.80L198.60,163.88L198.96,163.91L199.06,163.83L199.05,163.73L199.04,163.84"/><path d="M198.50,163.80L198.75,163.73L199.03,163.85"/><path d="M215.06,191.85L215.25,191.79L215.41,191.83L215.54,191.97L215.56,191.83L216.79,191.62L216.85,191.52L217.09,189.29L217.06,189.20L214.32,189.56L214.26,189.67L214.03,191.90L214.06,191.99L214.17,192.02L215.06,191.90L215.07,192.03L214.15,192.15L214.00,192.14L213.90,192.05"/><path d="M215.56,191.83L215.42,191.69L215.12,191.67L215.04,191.75L215.09,191.89"/><path d="M215.54,191.97L216.66,191.82L216.95,191.64L217.22,189.14"/></g></g><g id="Actor_.40"><g style="stroke:#000000;stroke-width:0.123"><path d="M128.96,155.77L129.19,156.47L129.24,156.52L129.32,156.55L129.43,156.55L131.89,156.29L131.98,156.27L132.04,156.22L132.05,156.17L132.05,155.44"/><path d="M129.42,155.79L129.32,155.79L129.23,155.76L129.21,155.73"/><path d="M129.42,155.79L131.88,155.54"/><path d="M132.04,155.45L132.04,155.47L131.98,155.51L131.88,155.54"/></g></g><g id="Actor_.41"><g style="stroke:#000000;stroke-width:0.123"><path d="M126.23,163.92L130.96,163.41L131.39,163.07L129.87,158.51L125.79,161.62"/><path d="M131.39,163.07L131.39,163.20L131.03,163.48"/><path d="M130.96,163.41L130.96,163.49"/></g></g><g id="Actor_.42"><g style="stroke:#000000;stroke-width:0.123"><path d="M169.94,118.70L169.93,118.92L169.96,119.04L170.00,119.10L169.97,118.97L169.98,118.70"/><path d="M170.00,119.10L170.09,119.18L170.23,119.21L172.28,119.03"/><path d="M171.33,118.59L171.28,118.60L171.23,118.59"/><path d="M171.60,118.56L171.52,118.61L171.31,118.66L171.11,118.64L171.06,118.61"/></g></g><g id="Actor_186.0"><g style="stroke:#000000;stroke-width:0.123"><path d="M110.66,117.96L110.71,119.68L109.26,114.72L109.20,113.04L109.23,112.94L109.31,112.85L109.43,112.82L110.19,112.76L110.22,112.85L110.26,112.89L110.36,112.90L110.46,112.90L110.54,112.86L110.56,112.82L110.54,112.73L111.26,112.67L111.37,112.69L111.46,112.76L112.98,117.64"/><path d="M110.72,117.82L110.77,117.76L110.89,117.73L112.78,117.57L112.90,117.59L112.95,117.64"/><path d="M110.55,112.86L110.54,112.73"/></g></g><g id="Actor_.43"><g style="stroke:#000000;stroke-width:0.123"><path d="M123.96,139.90L123.88,139.90L123.78,139.90L123.70,139.88L123.66,139.84L123.44,139.17"/><path d="M123.67,139.15L123.69,139.17L123.72,139.18"/></g></g><g id="Actor_162.1"><g style="stroke:#000000;stroke-width:0.123"><path d="M187.94,157.26L183.93,150.91L183.86,150.86L183.77,150.84L182.14,151.01L182.04,151.05L181.97,151.12L181.94,151.21L181.85,152.70L181.87,152.78L184.84,157.60"/><path d="M186.84,157.38L186.85,157.30L186.10,157.38L186.00,157.41L185.94,157.48"/><path d="M186.85,157.30L186.53,156.80L186.54,156.75L186.60,156.73L186.69,156.74L186.74,156.77L187.05,157.27L187.78,157.19L187.87,157.21L187.94,157.26"/><path d="M186.56,156.83L186.60,156.82L186.68,156.83L186.73,156.86L187.04,157.35"/><path d="M187.05,157.27L187.05,157.35"/></g></g><g id="Actor_.44"><g style="stroke:#000000;stroke-width:0.123"><path d="M123.00,165.08L123.21,165.81L123.26,165.86L123.35,165.89L123.46,165.90L126.04,165.61L126.14,165.58L126.21,165.53L126.22,165.47L126.21,164.73"/><path d="M126.20,164.73L126.20,164.75L126.13,164.80L126.03,164.83L123.44,165.11L123.33,165.11L123.24,165.08L123.23,165.06"/><path d="M126.09,164.74L126.09,164.75L126.02,164.77L123.43,165.06L123.35,165.05L123.34,165.04"/><path d="M125.90,164.76L125.90,164.79"/></g></g><g id="Actor_205.0"><g style="stroke:#000000;stroke-width:0.123"><path d="M128.00,151.98L123.68,139.05L123.65,137.03L123.67,136.94L123.74,136.87L126.09,136.63L126.24,136.69L126.28,136.79"/><path d="M132.07,153.17L132.03,153.07L131.87,153.01L129.40,153.27L129.24,153.36L129.20,153.47L129.22,155.64L129.25,155.72L129.32,155.78L129.42,155.79L131.88,155.54L132.04,155.45L132.08,155.34L132.07,153.17L126.28,136.78"/><path d="M129.37,155.70L129.32,155.63L129.32,153.40L129.40,153.36L131.87,153.10L131.95,153.13L131.96,155.40L131.88,155.45L129.37,155.70"/></g></g><g id="Actor_191.1"><g style="stroke:#000000;stroke-width:0.123"><path d="M129.67,134.95L129.62,134.93L129.56,134.88L129.11,133.67L129.15,138.21"/><path d="M129.11,133.67L129.12,133.61L129.15,133.59"/><path d="M129.63,141.63L129.69,141.68L129.79,141.71L129.91,141.71L132.52,141.46L132.63,141.44L132.70,141.39L132.72,141.33"/></g></g><g id="Actor_192.1"><g style="stroke:#000000;stroke-width:0.123"><path d="M186.65,161.34L186.77,161.39L186.87,161.40L189.25,161.13L189.34,161.10L189.39,161.06L188.36,175.99L188.31,176.04L188.22,176.07L185.89,176.35L185.78,176.35L185.69,176.31L185.63,176.26L184.86,174.89L184.85,174.83L185.71,161.44"/><path d="M186.75,161.33L186.84,161.34L189.22,161.08L189.28,161.05"/><path d="M189.39,161.06L189.38,161.03"/></g></g><g><g/></g><g><g/></g><g><g/></g><g><g/></g><g><g/></g><g><g/></g><g><g/></g><g><g/></g><g><g><path style="stroke:#000000;stroke-width:0.210;stroke-dasharray:2.1 2.1" d="M141.83,119.55L141.83,119.55"/></g></g><g><g/></g><g><g/></g><g><g><path style="stroke:#000000;stroke-width:0.210;stroke-dasharray:2.1 2.1" d="M167.39,122.02L167.39,122.02"/></g></g><g><g/></g><g><g/></g><g><g/></g><g><g/></g><g><g/></g><g><g/></g><g><g><path style="stroke:#000000;stroke-width:0.210;stroke-dasharray:2.1 2.1" d="M162.21,126.52L162.21,126.52"/></g></g><g><g/></g><g><g/></g><g><g/></g><g><g/></g><g><g/></g><g><g/></g><g><g><path style="stroke:#000000;stroke-width:0.210;stroke-dasharray:2.1 2.1" d="M129.39,129.41L129.39,129.41"/></g></g><g><g/></g><g><g/></g><g><g/></g><g><g/></g><g><g/></g><g><g/></g><g><g/></g><g><g/></g><g><g/></g><g><g/></g><g><g/></g><g><g/></g><g><g/></g><g><g/></g><g><g/></g><g><g><path style="stroke:#000000;stroke-width:0.210;stroke-dasharray:2.1 2.1" d="M148.76,140.56L148.76,140.56"/></g></g><g><g/></g><g><g/></g><g><g/></g><g><g/></g><g><g/></g><g><g/></g><g><g><path style="stroke:#000000;stroke-width:0.210;stroke-dasharray:2.1 2.1" d="M194.99,145.72L194.99,145.72"/></g></g><g><g/></g><g><g/></g><g><g><path style="stroke:#000000;stroke-width:0.210;stroke-dasharray:2.1 2.1" d="M176.19,149.26L176.19,149.26"/></g></g><g><g/></g><g><g/></g><g><g><path style="stroke:#000000;stroke-width:0.210;stroke-dasharray:2.1 2.1" d="M154.01,151.56L154.01,151.56"/></g></g><g><g/></g><g><g><path style="stroke:#000000;stroke-width:0.210;stroke-dasharray:2.1 2.1" d="M163.79,153.42L163.79,153.42"/></g></g><g><g/></g><g><g/></g><g><g/></g><g><g><path style="stroke:#000000;stroke-width:0.210;stroke-dasharray:2.1 2.1" d="M202.59,157.60L202.59,157.60"/></g></g><g><g><path style="stroke:#000000;stroke-width:0.210;stroke-dasharray:2.1 2.1" d="M152.75,135.58L154.32,59.58"/></g></g><g><g/></g><g><g/></g><g><g><path style="stroke:#000000;stroke-width:0.210;stroke-dasharray:2.1 2.1" d="M137.39,158.19L137.39,158.19"/></g></g><g><g/></g><g><g/></g><g><g/></g><g><g/></g><g><g/></g><g><g><path style="stroke:#000000;stroke-width:0.210;stroke-dasharray:2.1 2.1" d="M126.08,161.46L126.08,161.46"/></g></g><g><g/></g><g><g/></g><g><g/></g><g><g/></g><g><g/></g><g><g/></g><g><g/></g><g><g/></g><g><g/></g><g><g/></g><g><g/></g><g><g/></g><g><g/></g><g><g/></g><g><g/></g><g><g/></g><g id="PMI204.0"><g><path style="stroke:#000000;stroke-width:0.280" d="M169.29,98.92L169.09,105.97"/></g><g><path style="fill:#000000" d="M168.09,105.94L170.09,106.00L169.03,107.97z"/></g><g><path style="fill:#ffffff" d="M159.70,98.92L179.04,98.92L179.04,93.27L159.70,93.27z"/><path style="stroke:#000000;stroke-width:0.280;stroke-opacity:0.98" d="M159.70,98.92L179.04,98.92L179.04,93.27L159.70,93.27z"/><text xml:space="preserve" fill="#000000" stroke-width="0" x="160.40" y="97.33" font-size="3.43" opacity="1.00" font-family="Microsoft Sans Serif">0100165G1</text></g></g><g id="PMI180.0"><g><path style="stroke:#000000;stroke-width:0.280" d="M136.16,102.62L136.25,108.65"/></g><g><path style="fill:#000000" d="M135.25,108.66L137.25,108.63L136.28,110.65z"/></g><g><path style="fill:#ffffff" d="M126.64,102.62L145.60,102.62L145.60,96.98L126.64,96.98z"/><path style="stroke:#000000;stroke-width:0.280;stroke-opacity:0.98" d="M126.64,102.62L145.60,102.62L145.60,96.98L126.64,96.98z"/><text xml:space="preserve" fill="#000000" stroke-width="0" x="127.34" y="101.03" font-size="3.43" opacity="1.00" font-family="Microsoft Sans Serif">0100165K1</text></g></g><g id="PMI182.0"><g><path style="stroke:#000000;stroke-width:0.280" d="M183.84,107.65L183.89,111.94"/></g><g><path style="fill:#000000" d="M182.88,111.95L184.88,111.93L183.91,113.94z"/></g><g><path style="fill:#ffffff" d="M174.51,107.65L193.09,107.65L193.09,102.00L174.51,102.00z"/><path style="stroke:#000000;stroke-width:0.280;stroke-opacity:0.98" d="M174.51,107.65L193.09,107.65L193.09,102.00L174.51,102.00z"/><text xml:space="preserve" fill="#000000" stroke-width="0" x="175.21" y="106.06" font-size="3.10" opacity="1.00" font-family="Microsoft Sans Serif">010016561</text></g></g><g id="PMI186.0"><g><path style="stroke:#000000;stroke-width:0.280" d="M110.51,102.36L110.38,111.01"/></g><g><path style="fill:#000000" d="M109.39,110.99L111.39,111.02L110.36,113.01z"/></g><g><path style="fill:#ffffff" d="M100.98,102.36L120.14,102.36L120.14,96.71L100.98,96.71z"/><path style="stroke:#000000;stroke-width:0.280;stroke-opacity:0.98" d="M100.98,102.36L120.14,102.36L120.14,96.71L100.98,96.71z"/><text xml:space="preserve" fill="#000000" stroke-width="0" x="101.69" y="100.77" font-size="3.43" opacity="1.00" font-family="Microsoft Sans Serif">0100165H1</text></g></g><g id="PMI203.0"><g><path style="stroke:#000000;stroke-width:0.280" d="M184.03,116.95L176.42,117.12"/></g><g><path style="fill:#000000" d="M176.39,116.12L176.44,118.12L174.42,117.17z"/></g><g><path style="fill:#ffffff" d="M184.03,119.55L203.57,119.55L203.57,113.90L184.03,113.90z"/><path style="stroke:#000000;stroke-width:0.280;stroke-opacity:0.98" d="M184.03,119.55L203.57,119.55L203.57,113.90L184.03,113.90z"/><text xml:space="preserve" fill="#000000" stroke-width="0" x="184.73" y="117.96" font-size="3.43" opacity="1.00" font-family="Microsoft Sans Serif">0100165M1</text></g></g><g id="PMI177.0"><g><path style="stroke:#000000;stroke-width:0.280" d="M98.38,121.27L113.08,121.34"/></g><g><path style="fill:#000000" d="M113.10,122.34L113.10,120.34L115.10,121.35z"/></g><g><path style="fill:#ffffff" d="M79.83,124.04L98.41,124.04L98.41,118.40L79.83,118.40z"/><path style="stroke:#000000;stroke-width:0.280;stroke-opacity:0.98" d="M79.83,124.04L98.41,124.04L98.41,118.40L79.83,118.40z"/><text xml:space="preserve" fill="#000000" stroke-width="0" x="80.53" y="122.46" font-size="3.10" opacity="1.00" font-family="Microsoft Sans Serif">010016571</text></g></g><g id="PMI172.0"><g><path style="stroke:#000000;stroke-width:0.280" d="M125.07,113.46L125.39,119.93"/></g><g><path style="fill:#000000" d="M124.39,119.98L126.39,119.88L125.49,121.93z"/></g><g><path style="fill:#ffffff" d="M115.26,113.46L134.61,113.46L134.61,107.82L115.26,107.82z"/><path style="stroke:#000000;stroke-width:0.280;stroke-opacity:0.98" d="M115.26,113.46L134.61,113.46L134.61,107.82L115.26,107.82z"/><text xml:space="preserve" fill="#000000" stroke-width="0" x="115.97" y="111.88" font-size="3.43" opacity="1.00" font-family="Microsoft Sans Serif">0100165O1</text></g></g><g id="PMI161.0"><g><path style="stroke:#000000;stroke-width:0.280" d="M154.14,123.90L152.73,123.59"/></g><g><path style="fill:#000000" d="M152.95,122.61L152.51,124.56L150.78,123.15z"/></g><g><path style="fill:#ffffff" d="M154.14,128.80L172.72,128.80L172.72,123.16L154.14,123.16z"/><path style="stroke:#000000;stroke-width:0.280;stroke-opacity:0.98" d="M154.14,128.80L172.72,128.80L172.72,123.16L154.14,123.16z"/><text xml:space="preserve" fill="#000000" stroke-width="0" x="154.85" y="127.22" font-size="3.10" opacity="1.00" font-family="Microsoft Sans Serif">020043231</text></g></g><g id="PMI122.0"><g><path style="stroke:#000000;stroke-width:0.280" d="M166.43,32.66L176.19,32.73"/></g><g><path style="fill:#000000" d="M176.17,33.76L176.19,31.76L178.18,32.78z"/></g><g><path style="fill:#ffffff" d="M147.27,35.44L166.42,35.44L166.42,29.80L147.27,29.80z"/><path style="stroke:#000000;stroke-width:0.280;stroke-opacity:0.98" d="M147.27,35.44L166.42,35.44L166.42,29.80L147.27,29.80z"/><text xml:space="preserve" fill="#000000" stroke-width="0" x="147.97" y="33.86" font-size="3.44" opacity="1.00" font-family="Microsoft Sans Serif">3500052H1</text></g></g><g id="PMI127.0"><g><path style="stroke:#000000;stroke-width:0.280" d="M136.13,39.93L136.21,45.20"/></g><g><path style="fill:#000000" d="M135.21,45.22L137.21,45.19L136.24,47.21z"/></g><g><path style="fill:#ffffff" d="M126.90,39.94L145.29,39.94L145.29,34.30L126.90,34.30z"/><path style="stroke:#000000;stroke-width:0.280;stroke-opacity:0.98" d="M126.90,39.94L145.29,39.94L145.29,34.30L126.90,34.30z"/><text xml:space="preserve" fill="#000000" stroke-width="0" x="127.61" y="38.35" font-size="3.43" opacity="1.00" font-family="Microsoft Sans Serif">3500052J1</text></g></g><g id="PMI178.0"><g><path style="stroke:#000000;stroke-width:0.280" d="M68.19,128.26L103.41,127.79"/></g><g><path style="fill:#000000" d="M103.46,128.77L103.43,126.77L105.44,127.75z"/></g><g><path style="fill:#ffffff" d="M49.68,131.18L68.26,131.18L68.26,125.54L49.68,125.54z"/><path style="stroke:#000000;stroke-width:0.280;stroke-opacity:0.98" d="M49.68,131.18L68.26,131.18L68.26,125.54L49.68,125.54z"/><text xml:space="preserve" fill="#000000" stroke-width="0" x="50.38" y="129.60" font-size="3.10" opacity="1.00" font-family="Microsoft Sans Serif">010016551</text></g></g><g id="PMI191.0"><g><path style="stroke:#000000;stroke-width:0.280" d="M165.92,142.47L165.85,140.22"/></g><g><path style="fill:#000000" d="M166.85,140.18L164.85,140.24L165.79,138.21z"/></g><g><path style="fill:#ffffff" d="M156.52,148.11L175.49,148.11L175.49,142.47L156.52,142.47z"/><path style="stroke:#000000;stroke-width:0.280;stroke-opacity:0.98" d="M156.52,148.11L175.49,148.11L175.49,142.47L156.52,142.47z"/><text xml:space="preserve" fill="#000000" stroke-width="0" x="157.23" y="146.52" font-size="3.43" opacity="1.00" font-family="Microsoft Sans Serif">0100165P1</text></g></g><g id="PMI189.0"><g><path style="stroke:#000000;stroke-width:0.280" d="M138.38,128.05L142.11,128.13"/></g><g><path style="fill:#000000" d="M142.09,129.12L142.13,127.12L144.11,128.16z"/></g><g><path style="fill:#ffffff" d="M119.23,130.65L138.39,130.65L138.39,125.01L119.23,125.01z"/><path style="stroke:#000000;stroke-width:0.280;stroke-opacity:0.98" d="M119.23,130.65L138.39,130.65L138.39,125.01L119.23,125.01z"/><text xml:space="preserve" fill="#000000" stroke-width="0" x="119.94" y="129.07" font-size="3.43" opacity="1.00" font-family="Microsoft Sans Serif">0100165D1</text></g></g><g id="PMI184.0"><g><path style="stroke:#000000;stroke-width:0.280" d="M89.39,131.46L94.65,131.27"/></g><g><path style="fill:#000000" d="M94.70,132.26L94.63,130.26L96.66,131.18z"/></g><g><path style="fill:#ffffff" d="M70.83,134.62L89.41,134.62L89.41,128.98L70.83,128.98z"/><path style="stroke:#000000;stroke-width:0.280;stroke-opacity:0.98" d="M70.83,134.62L89.41,134.62L89.41,128.98L70.83,128.98z"/><text xml:space="preserve" fill="#000000" stroke-width="0" x="71.54" y="133.03" font-size="3.10" opacity="1.00" font-family="Microsoft Sans Serif">010016581</text></g></g><g id="PMI168.0"><g><path style="stroke:#000000;stroke-width:0.280" d="M148.02,115.05L147.97,138.45"/></g><g><path style="fill:#000000" d="M146.97,138.44L148.97,138.44L147.97,140.44z"/></g><g><path style="fill:#ffffff" d="M138.54,115.05L157.51,115.05L157.51,109.41L138.54,109.41z"/><path style="stroke:#000000;stroke-width:0.280;stroke-opacity:0.98" d="M138.54,115.05L157.51,115.05L157.51,109.41L138.54,109.41z"/><text xml:space="preserve" fill="#000000" stroke-width="0" x="139.24" y="113.46" font-size="3.44" opacity="1.00" font-family="Microsoft Sans Serif">3K0005891</text></g></g><g id="PMI210.0"><g><path style="stroke:#000000;stroke-width:0.280" d="M186.96,134.62L187.08,140.30"/></g><g><path style="fill:#000000" d="M186.07,140.31L188.07,140.27L187.11,142.29z"/></g><g><path style="fill:#ffffff" d="M177.42,134.62L196.38,134.62L196.38,128.98L177.42,128.98z"/><path style="stroke:#000000;stroke-width:0.280;stroke-opacity:0.98" d="M177.42,134.62L196.38,134.62L196.38,128.98L177.42,128.98z"/><text xml:space="preserve" fill="#000000" stroke-width="0" x="178.12" y="133.03" font-size="3.43" opacity="1.00" font-family="Microsoft Sans Serif">0100165V1</text></g></g><g id="PMI201.0"><g><path style="stroke:#000000;stroke-width:0.280" d="M89.39,140.68L94.40,140.47"/></g><g><path style="fill:#000000" d="M94.46,141.45L94.38,139.45L96.42,140.37z"/></g><g><path style="fill:#ffffff" d="M70.83,143.88L89.41,143.88L89.41,138.23L70.83,138.23z"/><path style="stroke:#000000;stroke-width:0.280;stroke-opacity:0.98" d="M70.83,143.88L89.41,143.88L89.41,138.23L70.83,138.23z"/><text xml:space="preserve" fill="#000000" stroke-width="0" x="71.54" y="142.29" font-size="3.10" opacity="1.00" font-family="Microsoft Sans Serif">010016591</text></g></g><g id="PMI131.0"><g><path style="stroke:#000000;stroke-width:0.280" d="M179.56,69.73L179.67,64.94"/></g><g><path style="fill:#000000" d="M180.66,64.97L178.66,64.93L179.71,62.95z"/></g><g><path style="fill:#ffffff" d="M170.01,75.38L188.98,75.38L188.98,69.74L170.01,69.74z"/><path style="stroke:#000000;stroke-width:0.280;stroke-opacity:0.98" d="M170.01,75.38L188.98,75.38L188.98,69.74L170.01,69.74z"/><text xml:space="preserve" fill="#000000" stroke-width="0" x="170.72" y="73.79" font-size="3.44" opacity="1.00" font-family="Microsoft Sans Serif">3500052K1</text></g></g><g id="PMI128.0"><g><path style="stroke:#000000;stroke-width:0.280" d="M203.61,26.09L197.05,26.16"/></g><g><path style="fill:#000000" d="M197.04,25.17L197.06,27.17L195.05,26.19z"/></g><g><path style="fill:#ffffff" d="M203.60,28.83L222.95,28.83L222.95,23.19L203.60,23.19z"/><path style="stroke:#000000;stroke-width:0.280;stroke-opacity:0.98" d="M203.60,28.83L222.95,28.83L222.95,23.19L203.60,23.19z"/><text xml:space="preserve" fill="#000000" stroke-width="0" x="204.30" y="27.25" font-size="3.44" opacity="1.00" font-family="Microsoft Sans Serif">3500052G1</text></g></g><g id="PMI205.0"><g><path style="stroke:#000000;stroke-width:0.280" d="M117.74,146.71L127.45,146.79"/></g><g><path style="fill:#000000" d="M127.45,147.77L127.47,145.77L129.46,146.79z"/></g><g><path style="fill:#ffffff" d="M98.60,149.43L117.76,149.43L117.76,143.79L98.60,143.79z"/><path style="stroke:#000000;stroke-width:0.280;stroke-opacity:0.98" d="M98.60,149.43L117.76,149.43L117.76,143.79L98.60,143.79z"/><text xml:space="preserve" fill="#000000" stroke-width="0" x="99.31" y="147.84" font-size="3.43" opacity="1.00" font-family="Microsoft Sans Serif">0100165N1</text></g></g><g id="PMI162.0"><g><path style="stroke:#000000;stroke-width:0.280" d="M183.34,168.93L183.65,156.07"/></g><g><path style="fill:#000000" d="M184.65,156.08L182.65,156.03L183.69,154.05z"/></g><g><path style="fill:#ffffff" d="M173.98,174.56L192.56,174.56L192.56,168.91L173.98,168.91z"/><path style="stroke:#000000;stroke-width:0.280;stroke-opacity:0.98" d="M173.98,174.56L192.56,174.56L192.56,168.91L173.98,168.91z"/><text xml:space="preserve" fill="#000000" stroke-width="0" x="174.68" y="172.97" font-size="3.10" opacity="1.00" font-family="Microsoft Sans Serif">010016541</text></g></g><g id="PMI185.0"><g><path style="stroke:#000000;stroke-width:0.280" d="M166.59,161.52L166.42,153.99"/></g><g><path style="fill:#000000" d="M167.41,153.95L165.41,154.00L166.37,151.98z"/></g><g><path style="fill:#ffffff" d="M157.84,167.15L175.46,167.15L175.46,161.51L157.84,161.51z"/><path style="stroke:#000000;stroke-width:0.280;stroke-opacity:0.98" d="M157.84,167.15L175.46,167.15L175.46,161.51L157.84,161.51z"/><text xml:space="preserve" fill="#000000" stroke-width="0" x="158.55" y="165.56" font-size="3.43" opacity="1.00" font-family="Microsoft Sans Serif">0100165I1</text></g></g><g id="PMI206.0"><g><path style="stroke:#000000;stroke-width:0.280" d="M145.83,172.37L144.80,155.58"/></g><g><path style="fill:#000000" d="M145.79,155.50L143.80,155.62L144.67,153.56z"/></g><g><path style="fill:#ffffff" d="M136.42,177.99L155.58,177.99L155.58,172.35L136.42,172.35z"/><path style="stroke:#000000;stroke-width:0.280;stroke-opacity:0.98" d="M136.42,177.99L155.58,177.99L155.58,172.35L136.42,172.35z"/><text xml:space="preserve" fill="#000000" stroke-width="0" x="137.13" y="176.41" font-size="3.43" opacity="1.00" font-family="Microsoft Sans Serif">0100165U1</text></g></g><g id="PMI120.0"><g><path style="stroke:#000000;stroke-width:0.280" d="M205.99,47.34L192.11,47.21"/></g><g><path style="fill:#000000" d="M192.11,46.23L192.09,48.23L190.10,47.21z"/></g><g><path style="fill:#ffffff" d="M205.98,50.26L224.75,50.26L224.75,44.61L205.98,44.61z"/><path style="stroke:#000000;stroke-width:0.280;stroke-opacity:0.98" d="M205.98,50.26L224.75,50.26L224.75,44.61L205.98,44.61z"/><text xml:space="preserve" fill="#000000" stroke-width="0" x="206.68" y="48.67" font-size="3.43" opacity="1.00" font-family="Microsoft Sans Serif">3500052F1</text></g></g><g id="PMI179.0"><g><path style="stroke:#000000;stroke-width:0.280" d="M91.24,157.69L98.68,157.87"/></g><g><path style="fill:#000000" d="M98.68,158.85L98.72,156.85L100.70,157.90z"/></g><g><path style="fill:#ffffff" d="M72.69,160.27L91.27,160.27L91.27,154.63L72.69,154.63z"/><path style="stroke:#000000;stroke-width:0.280;stroke-opacity:0.98" d="M72.69,160.27L91.27,160.27L91.27,154.63L72.69,154.63z"/><text xml:space="preserve" fill="#000000" stroke-width="0" x="73.39" y="158.69" font-size="3.43" opacity="1.00" font-family="Microsoft Sans Serif">0100165L1</text></g></g><g id="PMI192.0"><g><path style="stroke:#000000;stroke-width:0.280" d="M133.24,187.17L133.35,184.24"/></g><g><path style="fill:#000000" d="M134.35,184.26L132.35,184.19L133.43,182.23z"/></g><g><path style="fill:#ffffff" d="M123.46,192.80L142.81,192.80L142.81,187.16L123.46,187.16z"/><path style="stroke:#000000;stroke-width:0.280;stroke-opacity:0.98" d="M123.46,192.80L142.81,192.80L142.81,187.16L123.46,187.16z"/><text xml:space="preserve" fill="#000000" stroke-width="0" x="124.17" y="191.22" font-size="3.43" opacity="1.00" font-family="Microsoft Sans Serif">0100165Q1</text></g></g><g id="PMI145.0"><g><path style="stroke:#000000;stroke-width:0.280" d="M85.33,67.86L92.00,67.73"/></g><g><path style="fill:#000000" d="M92.04,68.75L92.00,66.75L94.02,67.71z"/></g><g><path style="fill:#ffffff" d="M65.81,70.88L85.35,70.88L85.35,65.24L65.81,65.24z"/><path style="stroke:#000000;stroke-width:0.280;stroke-opacity:0.98" d="M65.81,70.88L85.35,70.88L85.35,65.24L65.81,65.24z"/><text xml:space="preserve" fill="#000000" stroke-width="0" x="66.51" y="69.30" font-size="3.44" opacity="1.00" font-family="Microsoft Sans Serif">3500052M1</text></g></g><g id="PMI218.0"><g><path style="stroke:#000000;stroke-width:0.280" d="M208.63,123.02L200.23,123.21"/></g><g><path style="fill:#000000" d="M200.20,122.20L200.24,124.20L198.22,123.25z"/></g><g><path style="fill:#ffffff" d="M208.62,125.63L227.39,125.63L227.39,119.99L208.62,119.99z"/><path style="stroke:#000000;stroke-width:0.280;stroke-opacity:0.98" d="M208.62,125.63L227.39,125.63L227.39,119.99L208.62,119.99z"/><text xml:space="preserve" fill="#000000" stroke-width="0" x="209.33" y="124.04" font-size="3.43" opacity="1.00" font-family="Microsoft Sans Serif">0100165T1</text></g></g><g id="PMI164.0"><g><path style="stroke:#000000;stroke-width:0.280" d="M216.57,156.91L201.29,156.86"/></g><g><path style="fill:#000000" d="M201.28,155.84L201.27,157.84L199.28,156.84z"/></g><g><path style="fill:#ffffff" d="M216.56,159.75L235.33,159.75L235.33,154.10L216.56,154.10z"/><path style="stroke:#000000;stroke-width:0.280;stroke-opacity:0.98" d="M216.56,159.75L235.33,159.75L235.33,154.10L216.56,154.10z"/><text xml:space="preserve" fill="#000000" stroke-width="0" x="217.26" y="158.16" font-size="3.43" opacity="1.00" font-family="Microsoft Sans Serif">0100165Z1</text></g></g><g id="PMI187.0"><g><path style="stroke:#000000;stroke-width:0.280" d="M91.69,165.85L102.55,165.75"/></g><g><path style="fill:#000000" d="M102.58,166.73L102.56,164.73L104.57,165.71z"/></g><g><path style="fill:#ffffff" d="M72.95,168.74L91.72,168.74L91.72,163.09L72.95,163.09z"/><path style="stroke:#000000;stroke-width:0.280;stroke-opacity:0.98" d="M72.95,168.74L91.72,168.74L91.72,163.09L72.95,163.09z"/><text xml:space="preserve" fill="#000000" stroke-width="0" x="73.65" y="167.15" font-size="3.43" opacity="1.00" font-family="Microsoft Sans Serif">0100165F1</text></g></g><g id="PMI1.0"><g><path style="stroke:#000000;stroke-width:0.280" d="M109.44,176.33L109.38,171.01"/></g><g><path style="fill:#000000" d="M110.38,170.99L108.38,171.01L109.36,169.00z"/></g><g><path style="fill:#ffffff" d="M100.19,181.96L118.77,181.96L118.77,176.32L100.19,176.32z"/><path style="stroke:#000000;stroke-width:0.280;stroke-opacity:0.98" d="M100.19,181.96L118.77,181.96L118.77,176.32L100.19,176.32z"/><text xml:space="preserve" fill="#000000" stroke-width="0" x="100.90" y="180.37" font-size="3.10" opacity="1.00" font-family="Microsoft Sans Serif">010016521</text></g></g><g id="PMI167.0"><g><path style="stroke:#000000;stroke-width:0.280" d="M236.44,130.26L202.36,130.39"/></g><g><path style="fill:#000000" d="M202.33,129.38L202.34,131.38L200.34,130.39z"/></g><g><path style="fill:#ffffff" d="M236.39,133.03L254.97,133.03L254.97,127.39L236.39,127.39z"/><path style="stroke:#000000;stroke-width:0.280;stroke-opacity:0.98" d="M236.39,133.03L254.97,133.03L254.97,127.39L236.39,127.39z"/><text xml:space="preserve" fill="#000000" stroke-width="0" x="237.10" y="131.45" font-size="3.10" opacity="1.00" font-family="Microsoft Sans Serif">010016611</text></g></g><g id="PMI174.0"><g><path style="stroke:#000000;stroke-width:0.280" d="M216.30,143.24L211.07,143.13"/></g><g><path style="fill:#000000" d="M211.08,142.13L211.04,144.13L209.06,143.08z"/></g><g><path style="fill:#ffffff" d="M216.29,146.26L235.45,146.26L235.45,140.61L216.29,140.61z"/><path style="stroke:#000000;stroke-width:0.280;stroke-opacity:0.98" d="M216.29,146.26L235.45,146.26L235.45,140.61L216.29,140.61z"/><text xml:space="preserve" fill="#000000" stroke-width="0" x="217.00" y="144.67" font-size="3.43" opacity="1.00" font-family="Microsoft Sans Serif">0100165R1</text></g></g><g id="PMI190.0"><g><path style="stroke:#000000;stroke-width:0.280" d="M222.38,187.19L217.68,187.24"/></g><g><path style="fill:#000000" d="M217.66,186.23L217.69,188.23L215.68,187.25z"/></g><g><path style="fill:#ffffff" d="M222.38,189.90L241.34,189.90L241.34,184.25L222.38,184.25z"/><path style="stroke:#000000;stroke-width:0.280;stroke-opacity:0.98" d="M222.38,189.90L241.34,189.90L241.34,184.25L222.38,184.25z"/><text xml:space="preserve" fill="#000000" stroke-width="0" x="223.08" y="188.31" font-size="3.43" opacity="1.00" font-family="Microsoft Sans Serif">0100165S1</text></g></g><g id="PMI165.0"><g><path style="stroke:#000000;stroke-width:0.280" d="M217.36,135.87L211.56,135.77"/></g><g><path style="fill:#000000" d="M211.57,134.77L211.53,136.77L209.55,135.74z"/></g><g><path style="fill:#ffffff" d="M217.35,138.85L235.93,138.85L235.93,133.21L217.35,133.21z"/><path style="stroke:#000000;stroke-width:0.280;stroke-opacity:0.98" d="M217.35,138.85L235.93,138.85L235.93,133.21L217.35,133.21z"/><text xml:space="preserve" fill="#000000" stroke-width="0" x="218.06" y="137.27" font-size="3.10" opacity="1.00" font-family="Microsoft Sans Serif">010016601</text></g></g><g id="PMI142.0"><g><path style="stroke:#000000;stroke-width:0.280" d="M135.10,79.98L125.25,79.99"/></g><g><path style="fill:#000000" d="M125.25,79.00L125.26,81.00L123.25,80.00z"/></g><g><path style="fill:#ffffff" d="M135.10,82.78L153.68,82.78L153.68,77.14L135.10,77.14z"/><path style="stroke:#000000;stroke-width:0.280;stroke-opacity:0.98" d="M135.10,82.78L153.68,82.78L153.68,77.14L135.10,77.14z"/><text xml:space="preserve" fill="#000000" stroke-width="0" x="135.81" y="81.20" font-size="3.43" opacity="1.00" font-family="Microsoft Sans Serif">3500052L1</text></g></g><g/><g id="paperID" visibility="hidden" opacity="0.00" transform="scale(0.000100)"><path style="stroke:#000000;stroke-width:0.500;fill:#e6e6e6;fill-rule:evenodd" d="M-2000.00,-2000.00L2297.00,-2000.00L2297.00,2210.00L-2000.00,2210.00zM0.00,0.00L297.00,0.00L297.00,210.00L0.00,210.00z"/><path style="fill:#000000;fill-opacity:0.118" d="M3.00,210.00L297.00,210.00L297.00,3.00L300.00,3.00L300.00,213.00L3.00,213.00z"/></g><g id="hotspot.0" onmouseover="ShowHotSpot(evt,'0')" onmouseout="HideHotSpot(evt,'0')" onmousemove="ShowToolTip(evt,'0',&quot;3dp2387090&quot;)" opacity="0"><path style="fill:#00ff00;fill-rule:evenodd" d="M203.04,156.90L203.04,158.07L201.70,156.38L201.61,155.58L202.20,155.58zM201.18,159.29L201.12,159.56L198.53,159.57L197.19,157.73L197.11,156.11L198.81,156.11zM193.53,157.79L193.79,157.76L193.24,160.45L115.93,169.09L110.09,169.89L110.19,170.73L109.88,170.95L109.83,175.79L118.69,175.93L118.96,176.19L118.93,182.14L100.13,182.06L100.13,176.03L109.15,175.79L109.12,170.94L108.54,170.66L108.63,170.15L102.51,170.42L102.15,167.24L106.22,166.98L106.51,167.50L107.46,167.50L109.41,167.33L109.57,166.43L121.22,165.12L122.92,165.09L123.36,165.74L126.08,165.48L126.31,163.87L191.83,156.66L193.25,156.64z"/></g><g id="hotspot.1" onmouseover="ShowHotSpot(evt,'1')" onmouseout="HideHotSpot(evt,'1')" onmousemove="ShowToolTip(evt,'1',&quot;3dp2387094 (1)&quot;)" opacity="0"><path style="fill:#00ff00;fill-rule:evenodd" d="M225.01,44.49L225.00,49.92L224.71,50.42L205.92,50.35L205.70,47.66L205.44,47.40L194.73,47.42L194.54,50.06L204.10,56.67L204.08,61.00L202.78,76.88L188.50,65.13L188.19,64.64L188.21,59.42L189.00,46.19L189.40,45.00L191.29,43.99L193.68,43.47L194.84,43.45L194.73,46.73L205.70,46.98L205.92,44.33L224.74,44.22z"/></g><g id="hotspot.2" onmouseover="ShowHotSpot(evt,'2')" onmouseout="HideHotSpot(evt,'2')" onmousemove="ShowToolTip(evt,'2',&quot;3dp2387098 (3)&quot;)" opacity="0"><path style="fill:#00ff00;fill-rule:evenodd" d="M166.56,29.67L166.79,31.14L167.49,11.45L178.97,11.45L178.96,16.84L178.17,32.71L173.40,45.40L166.43,45.67L166.54,35.78L147.21,35.54L147.21,29.52L166.30,29.41z"/></g><g id="hotspot.3" onmouseover="ShowHotSpot(evt,'3')" onmouseout="HideHotSpot(evt,'3')" onmousemove="ShowToolTip(evt,'3',&quot;3dp2390331 (4)&quot;)" opacity="0"><path style="fill:#00ff00;fill-rule:evenodd" d="M145.40,34.17L145.38,40.12L136.54,40.28L136.57,44.87L137.15,45.04L136.80,46.19L150.13,45.93L166.24,45.34L166.46,45.64L173.42,45.56L178.17,49.23L177.09,52.26L176.23,52.46L126.06,54.66L109.30,55.20L109.15,51.91L107.86,49.50L107.57,49.26L105.95,49.03L105.86,47.95L107.73,47.69L135.87,46.37L135.26,45.04L135.83,44.87L135.86,40.28L126.84,40.04L126.84,34.01L145.14,33.91z"/></g><g id="hotspot.4" onmouseover="ShowHotSpot(evt,'4')" onmouseout="HideHotSpot(evt,'4')" onmousemove="ShowToolTip(evt,'4',&quot;3dp2390332 (2)&quot;)" opacity="0"><path style="fill:#00ff00;fill-rule:evenodd" d="M196.69,15.98L196.04,25.31L196.91,25.22L197.14,25.53L203.30,25.58L203.54,22.91L222.89,22.80L223.16,23.07L223.13,29.01L203.54,28.93L203.30,26.26L197.12,26.29L196.95,26.86L196.03,26.54L195.35,36.67L194.75,43.21L191.29,43.99L189.40,45.00L189.00,46.19L187.97,61.27L177.10,52.70L177.07,52.28L178.20,49.27L173.66,45.84L173.65,44.86L178.17,32.71L178.96,16.84L178.97,11.45L177.52,11.20L179.23,11.03L179.40,9.06L180.01,9.05z"/></g><g id="hotspot.5" onmouseover="ShowHotSpot(evt,'5')" onmouseout="HideHotSpot(evt,'5')" onmousemove="ShowToolTip(evt,'5',&quot;3dp2390333 (5)&quot;)" opacity="0"><path style="fill:#00ff00;fill-rule:evenodd" d="M177.64,52.98L187.97,61.43L187.95,63.12L187.08,63.30L181.52,63.56L180.19,63.80L180.57,64.61L179.95,64.89L179.92,69.21L188.76,69.36L189.27,69.65L189.29,75.04L189.01,75.55L169.95,75.48L169.95,69.45L179.23,69.21L179.19,64.90L178.88,64.67L178.98,63.83L132.85,65.94L126.86,65.94L125.30,63.27L121.48,63.30L115.13,63.83L113.10,63.83L92.99,64.69L92.82,65.58L92.67,65.46L92.91,60.64L96.18,60.40L96.08,59.61L105.62,57.22L108.26,56.42L109.43,56.24L109.29,55.36L170.67,52.72L177.12,52.70zM93.29,67.62L93.02,67.58L92.82,65.58L92.97,65.71zM128.70,61.56L106.94,62.59L105.06,58.22L105.31,58.00L114.87,55.37L124.74,55.10z"/></g><g id="hotspot.6" onmouseover="ShowHotSpot(evt,'6')" onmouseout="HideHotSpot(evt,'6')" onmousemove="ShowToolTip(evt,'6',&quot;3dp2393989 (6)&quot;)" opacity="0"><path style="fill:#00ff00;fill-rule:evenodd" d="M123.16,75.73L128.48,75.74L128.62,77.94L129.52,78.09L130.30,79.43L134.80,79.53L135.04,76.86L153.60,76.75L153.87,77.02L153.84,82.97L135.04,82.88L134.80,80.21L130.98,80.23L131.05,80.74L132.15,82.60L132.43,83.48L125.42,83.93L125.50,84.45L128.73,90.80L126.86,90.80L121.55,90.02L120.25,89.47L114.95,88.69L109.85,88.69L102.46,89.05L99.88,84.72L97.76,80.50L95.84,75.43L110.64,74.67L114.98,74.64L115.67,76.07L118.68,75.73L118.05,74.38L122.36,74.14z"/></g><g id="hotspot.7" onmouseover="ShowHotSpot(evt,'7')" onmouseout="HideHotSpot(evt,'7')" onmousemove="ShowToolTip(evt,'7',&quot;3dp2394550 (7)&quot;)" opacity="0"><path style="fill:#00ff00;fill-rule:evenodd" d="M131.37,73.33L131.60,74.95L132.41,76.26L132.70,77.13L131.27,77.13L129.26,73.59L125.18,73.61L100.59,74.94L95.57,75.02L93.52,68.04L93.21,68.00L92.46,68.46L91.93,68.09L85.77,68.05L85.62,70.54L85.33,71.05L65.75,70.98L65.75,64.96L85.37,64.85L85.63,65.12L85.77,67.36L91.94,67.33L92.22,66.71L92.74,67.03L93.28,67.10L92.87,64.87L93.15,64.59L113.10,63.83L115.13,63.83L121.48,63.30L125.30,63.27zM117.33,71.76L117.88,72.41L117.07,72.90L114.61,73.35L113.10,73.35L111.23,73.10L110.44,72.54L110.44,72.13L111.95,71.49L116.55,71.49z"/></g><g id="hotspot.8" onmouseover="ShowHotSpot(evt,'8')" onmouseout="HideHotSpot(evt,'8')" onmousemove="ShowToolTip(evt,'8',&quot;3dp2409407 (I_3DPart2409407.9)&quot;)" opacity="0"><path style="fill:#00ff00;fill-rule:evenodd" d="M175.27,121.19L174.75,121.58L163.80,122.54L161.77,122.54L161.42,121.72L173.32,120.69L175.00,120.70zM179.80,127.55L179.80,127.93L179.52,128.21L166.02,129.43L165.67,128.61L166.44,128.35L179.52,127.27z"/></g><g id="hotspot.9" onmouseover="ShowHotSpot(evt,'9')" onmouseout="HideHotSpot(evt,'9')" onmousemove="ShowToolTip(evt,'9',&quot;3dp2409411 (I_V LIEN KET GHE TAI.75)&quot;)" opacity="0"><path style="fill:#00ff00;fill-rule:evenodd" d="M158.87,122.53L172.64,122.77L172.91,123.04L172.89,128.98L163.02,129.17L162.32,129.79L149.25,131.00L146.41,131.01L146.32,130.21L157.56,129.15L154.08,128.90L153.87,124.09L152.77,123.58L152.49,124.21L152.01,124.15L151.49,123.60L151.21,123.66L143.17,124.21L142.93,123.88L142.88,123.33L158.58,122.01z"/></g><g id="hotspot.10" onmouseover="ShowHotSpot(evt,'10')" onmouseout="HideHotSpot(evt,'10')" onmousemove="ShowToolTip(evt,'10',&quot;3dp2386590 (I_XNG SN CABIN 04.106)&quot;)" opacity="0"><path style="fill:#00ff00;fill-rule:evenodd" d="M187.73,156.68L187.70,156.98L187.09,157.21L184.69,157.27L184.00,156.09L183.62,168.39L192.48,168.52L192.74,168.79L192.72,174.74L173.92,174.65L173.92,168.63L182.94,168.39L183.19,165.47L183.15,155.87L182.83,155.57L183.19,154.77L182.12,152.97L182.12,150.91L183.97,150.85zM154.10,159.04L154.65,160.71L151.89,160.97L149.85,156.40L149.85,154.35L151.74,154.25z"/></g><g id="hotspot.11" onmouseover="ShowHotSpot(evt,'11')" onmouseout="HideHotSpot(evt,'11')" onmousemove="ShowToolTip(evt,'11',&quot;3dp1123521 (I_ECU M8X1.25.75)&quot;)" opacity="0"><path style="fill:#00ff00;fill-rule:evenodd" d="M201.70,156.39L216.26,156.49L216.50,153.82L235.32,153.71L235.59,153.98L235.57,159.41L235.29,159.91L216.50,159.84L216.26,157.17L202.41,157.17L203.83,159.29L203.82,161.77L203.30,167.88L203.03,168.37L194.53,155.88L194.98,149.22L195.81,148.69L196.39,148.71zM201.71,160.08L201.70,162.56L201.45,163.89L196.66,156.94L196.66,153.51L196.94,153.23z"/></g><g id="hotspot.12" onmouseover="ShowHotSpot(evt,'12')" onmouseout="HideHotSpot(evt,'12')" onmousemove="ShowToolTip(evt,'12',&quot;3dp2451937 (I_3DPart2451937.88)&quot;)" opacity="0"><path style="fill:#00ff00;fill-rule:evenodd" d="M210.97,133.10L210.87,134.74L211.49,134.74L211.67,135.30L217.05,135.33L217.29,132.93L235.85,132.82L236.12,133.08L236.09,139.03L217.29,138.95L217.05,136.02L211.68,136.06L211.45,136.36L210.97,136.30L210.43,137.95L209.92,137.61L207.51,134.68L207.69,132.32L209.92,132.04zM208.33,161.93L208.06,165.73L207.75,166.55L207.48,166.55L205.15,163.25L205.14,160.98L205.83,160.61L207.27,160.61z"/></g><g id="hotspot.13" onmouseover="ShowHotSpot(evt,'13')" onmouseout="HideHotSpot(evt,'13')" onmousemove="ShowToolTip(evt,'13',&quot;prd802578 (I_ ECU M6X1.0.167)&quot;)" opacity="0"><path style="fill:#00ff00;fill-rule:evenodd" d="M255.16,127.27L255.14,133.21L236.33,133.13L236.09,130.46L202.63,130.27L202.63,129.97L236.09,129.78L236.33,127.11L254.89,127.00zM200.84,129.77L201.34,129.72L201.90,129.36L202.23,129.39L202.15,131.26L205.94,136.02L205.94,137.70L205.67,138.48L204.90,137.85L199.30,130.76L199.07,129.40L198.23,128.36L198.24,127.91L199.34,127.80z"/></g><g id="hotspot.14" onmouseover="ShowHotSpot(evt,'14')" onmouseout="HideHotSpot(evt,'14')" onmousemove="ShowToolTip(evt,'14',&quot;3dp957537 (I_PT LIN KT.23)&quot;)" opacity="0"><path style="fill:#00ff00;fill-rule:evenodd" d="M157.80,109.32L157.82,114.71L157.53,115.22L148.45,115.39L148.46,137.46L172.08,135.20L172.39,135.45L180.84,149.00L180.84,149.60L176.49,150.05L174.36,150.05L175.56,149.64L177.40,148.02L177.40,147.40L172.39,139.42L166.79,137.61L151.63,138.94L150.57,139.20L147.75,141.14L147.74,142.39L150.66,148.46L151.72,150.57L155.72,151.90L155.96,152.26L151.10,152.51L144.49,137.85L147.76,137.45L147.76,115.39L138.48,115.15L138.48,109.12L157.29,109.03z"/></g><g id="hotspot.15" onmouseover="ShowHotSpot(evt,'15')" onmouseout="HideHotSpot(evt,'15')" onmousemove="ShowToolTip(evt,'15',&quot;3dp2409405 (I_3DPart2409405.7)&quot;)" opacity="0"><path style="fill:#00ff00;fill-rule:evenodd" d="M134.82,107.70L134.81,113.12L134.52,113.63L125.44,113.80L125.72,119.71L127.65,120.16L134.30,136.83L134.27,137.42L133.67,137.64L130.74,137.70L129.22,133.66L128.70,130.74L128.18,129.95L127.63,129.44L125.18,122.54L125.30,121.75L124.70,120.42L124.67,119.93L124.97,119.70L125.00,116.46L124.75,113.80L115.21,113.56L115.21,107.54L134.56,107.43zM168.94,134.17L167.50,134.44L164.94,134.44L162.52,130.20L162.49,129.71L162.89,129.14L162.59,128.87L161.50,128.62L158.60,123.58L158.53,122.83L158.87,122.51L158.59,122.02L157.54,121.75L156.20,119.38L156.12,117.76L158.86,117.51z"/></g><g id="hotspot.16" onmouseover="ShowHotSpot(evt,'16')" onmouseout="HideHotSpot(evt,'16')" onmousemove="ShowToolTip(evt,'16',&quot;3dp2386203 (I_3DPart2371608.301)&quot;)" opacity="0"><path style="fill:#00ff00;fill-rule:evenodd" d="M210.45,131.52L210.45,132.41L209.92,132.05L207.69,132.32L207.51,134.68L209.91,137.60L209.81,142.48L210.96,142.13L211.14,142.71L215.99,142.74L216.23,140.33L235.32,140.23L235.59,140.49L235.56,146.44L216.23,146.35L215.99,143.42L211.15,143.46L210.92,143.77L210.44,143.74L209.88,143.38L209.55,143.41L208.05,160.18L207.78,160.96L207.27,160.62L205.83,160.61L205.14,160.98L205.15,163.25L207.27,166.17L207.25,168.64L206.74,173.42L205.32,173.58L203.81,173.58L203.04,172.51L203.02,170.76L206.46,131.61L206.64,130.73L209.37,130.44z"/></g><g id="hotspot.17" onmouseover="ShowHotSpot(evt,'17')" onmouseout="HideHotSpot(evt,'17')" onmousemove="ShowToolTip(evt,'17',&quot;3dp2386591 (I_XNG SN CABIN 07.108)&quot;)" opacity="0"><path style="fill:#00ff00;fill-rule:evenodd" d="M98.59,118.27L98.73,120.78L112.88,120.98L112.88,121.28L98.73,121.47L98.57,124.22L79.77,124.14L79.77,118.12L98.33,118.01zM114.68,120.97L117.61,120.94L117.62,122.39L110.37,126.27L107.99,126.07L107.75,124.90L113.10,122.09L113.28,120.40L113.61,120.38z"/></g><g id="hotspot.18" onmouseover="ShowHotSpot(evt,'18')" onmouseout="HideHotSpot(evt,'18')" onmousemove="ShowToolTip(evt,'18',&quot;3dp2386592&quot;)" opacity="0"><path style="fill:#00ff00;fill-rule:evenodd" d="M107.83,125.14L110.75,136.64L109.31,136.82L107.27,136.83L106.22,132.60L105.98,130.19L105.45,129.40L105.19,128.32L104.93,128.05L103.83,128.49L103.30,128.12L85.78,128.09L68.58,128.35L68.42,131.36L49.62,131.28L49.62,125.26L68.18,125.15L68.44,125.42L68.58,127.66L103.32,127.37L103.58,126.76L104.91,127.14L105.08,125.98L107.60,124.90z"/></g><g id="hotspot.19" onmouseover="ShowHotSpot(evt,'19')" onmouseout="HideHotSpot(evt,'19')" onmousemove="ShowToolTip(evt,'19',&quot;3dp2386593&quot;)" opacity="0"><path style="fill:#00ff00;fill-rule:evenodd" d="M129.25,153.20L129.24,155.42L128.92,155.63L123.68,156.21L120.16,156.41L120.77,156.20L120.24,154.28L118.05,154.28L116.71,154.53L116.85,156.39L117.07,156.75L103.32,158.33L98.82,158.59L98.56,158.00L91.58,157.97L91.43,160.46L72.63,160.37L72.63,154.35L91.19,154.24L91.45,154.51L91.58,157.28L98.54,157.24L98.78,156.94L99.38,156.99L99.52,154.79L127.30,151.90L128.71,151.90z"/></g><g id="hotspot.20" onmouseover="ShowHotSpot(evt,'20')" onmouseout="HideHotSpot(evt,'20')" onmousemove="ShowToolTip(evt,'20',&quot;3dp2386594&quot;)" opacity="0"><path style="fill:#00ff00;fill-rule:evenodd" d="M145.90,96.89L145.92,102.28L145.63,102.79L136.54,102.96L136.57,108.34L137.15,108.52L136.82,109.31L136.55,110.18L137.46,110.62L139.28,114.34L139.57,115.21L138.68,115.41L136.56,115.48L135.31,112.77L135.23,110.37L136.14,110.11L135.25,108.53L135.83,108.34L135.86,102.96L126.58,102.72L126.58,96.69L145.39,96.60z"/></g><g id="hotspot.21" onmouseover="ShowHotSpot(evt,'21')" onmouseout="HideHotSpot(evt,'21')" onmousemove="ShowToolTip(evt,'21',&quot;3dp2386596&quot;)" opacity="0"><path style="fill:#00ff00;fill-rule:evenodd" d="M193.27,101.88L193.25,107.83L184.15,107.98L183.96,111.56L183.65,111.56L183.46,107.98L174.45,107.74L174.45,101.72L193.01,101.61zM110.61,117.78L132.06,115.93L181.78,111.96L184.76,111.93L184.52,114.70L116.54,120.24L110.89,120.52z"/></g><g id="hotspot.22" onmouseover="ShowHotSpot(evt,'22')" onmouseout="HideHotSpot(evt,'22')" onmousemove="ShowToolTip(evt,'22',&quot;3dp2386597&quot;)" opacity="0"><path style="fill:#00ff00;fill-rule:evenodd" d="M184.03,133.66L183.99,133.97L182.01,134.45L182.13,134.93L182.70,135.73L182.95,136.37L178.08,136.82L175.18,136.90L173.95,135.22L171.47,135.23L146.34,137.61L142.64,138.14L142.73,140.00L142.14,140.27L139.47,140.34L138.75,138.68L133.62,138.94L134.27,140.77L133.96,141.07L128.18,141.66L127.64,140.53L127.02,138.41L130.74,137.88L181.78,133.12L183.47,133.10zM166.84,137.94L153.22,139.20L150.56,139.21L151.64,138.94L166.84,137.64zM123.70,139.71L123.69,141.93L122.81,142.12L108.87,143.52L108.59,142.93L108.59,141.04L109.84,141.05L111.24,140.87L111.44,140.27L121.22,139.20L123.42,139.20z"/></g><g id="hotspot.23" onmouseover="ShowHotSpot(evt,'23')" onmouseout="HideHotSpot(evt,'23')" onmousemove="ShowToolTip(evt,'23',&quot;3dp2386599&quot;)" opacity="0"><path style="fill:#00ff00;fill-rule:evenodd" d="M89.60,128.85L89.73,130.83L94.59,130.81L94.86,130.18L95.38,130.50L105.70,129.68L105.98,130.19L105.97,131.89L102.00,132.41L96.34,132.69L96.18,131.51L95.85,131.48L95.10,131.93L94.57,131.56L89.73,131.52L89.58,134.80L70.78,134.72L70.78,128.69L89.33,128.59z"/></g><g id="hotspot.24" onmouseover="ShowHotSpot(evt,'24')" onmouseout="HideHotSpot(evt,'24')" onmousemove="ShowToolTip(evt,'24',&quot;3dp2386600&quot;)" opacity="0"><path style="fill:#00ff00;fill-rule:evenodd" d="M193.78,149.62L192.60,149.78L192.67,150.31L193.23,151.10L193.53,151.98L191.65,152.24L185.22,152.76L183.97,150.85L182.12,150.91L182.07,153.22L166.78,154.88L166.96,160.98L175.29,161.12L175.55,161.38L175.53,167.33L157.79,167.25L157.79,161.22L166.27,160.98L166.26,156.92L166.01,155.06L154.54,156.13L152.78,156.12L151.74,154.25L149.85,154.35L149.86,156.39L149.57,156.67L139.73,157.71L137.87,157.73L140.88,155.32L139.46,155.34L132.06,156.24L132.06,154.80L138.14,154.01L191.57,148.46L193.78,148.44z"/></g><g id="hotspot.25" onmouseover="ShowHotSpot(evt,'25')" onmouseout="HideHotSpot(evt,'25')" onmousemove="ShowToolTip(evt,'25',&quot;3dp2386601&quot;)" opacity="0"><path style="fill:#00ff00;fill-rule:evenodd" d="M120.28,96.59L120.26,102.54L110.89,102.69L110.65,110.72L111.25,110.92L111.30,111.23L110.71,112.08L110.61,112.56L111.51,112.76L112.85,117.32L110.62,117.77L110.54,118.47L109.38,115.15L109.31,112.75L110.22,112.49L109.63,111.42L109.59,110.94L109.90,110.71L110.19,109.14L110.21,102.69L100.93,102.45L100.93,96.43L120.01,96.32zM110.73,119.47L110.54,118.47L110.71,118.59z"/></g><g id="hotspot.26" onmouseover="ShowHotSpot(evt,'26')" onmouseout="HideHotSpot(evt,'26')" onmousemove="ShowToolTip(evt,'26',&quot;3dp2386602&quot;)" opacity="0"><path style="fill:#00ff00;fill-rule:evenodd" d="M126.07,161.41L125.99,164.60L106.49,166.79L102.18,167.05L101.73,165.91L92.11,165.90L91.97,168.40L91.68,168.91L72.89,168.83L72.89,162.81L91.71,162.71L91.98,162.97L92.11,165.22L102.02,165.20L101.90,163.26L104.57,163.02L105.07,162.72L125.79,160.63z"/></g><g id="hotspot.27" onmouseover="ShowHotSpot(evt,'27')" onmouseout="HideHotSpot(evt,'27')" onmousemove="ShowToolTip(evt,'27',&quot;3dp2386604&quot;)" opacity="0"><path style="fill:#00ff00;fill-rule:evenodd" d="M147.49,133.12L148.80,136.15L146.34,136.38L142.73,128.85L142.20,128.96L141.93,128.38L138.66,128.35L138.50,130.83L119.17,130.75L119.17,124.73L138.26,124.62L138.53,124.89L138.66,127.66L141.96,127.65L141.97,127.04L139.01,120.70L139.01,119.17L140.61,119.10z"/></g><g id="hotspot.28" onmouseover="ShowHotSpot(evt,'28')" onmouseout="HideHotSpot(evt,'28')" onmousemove="ShowToolTip(evt,'28',&quot;3dp2387085&quot;)" opacity="0"><path style="fill:#00ff00;fill-rule:evenodd" d="M194.03,158.76L196.42,158.73L203.04,168.54L203.04,172.51L203.81,173.58L206.75,173.57L215.73,186.81L216.16,186.84L217.23,186.23L217.76,186.60L222.08,186.64L222.32,183.97L241.13,183.88L241.63,184.16L241.66,189.56L241.37,190.06L222.32,189.99L222.08,187.32L217.75,187.35L217.57,187.92L216.44,187.56L217.05,188.65L216.97,191.58L215.10,191.83L213.87,191.83L193.52,160.61L193.50,159.39L193.75,158.24z"/></g><g id="hotspot.29" onmouseover="ShowHotSpot(evt,'29')" onmouseout="HideHotSpot(evt,'29')" onmousemove="ShowToolTip(evt,'29',&quot;3dp2409412 (I_3DPart2409412.14)&quot;)" opacity="0"><path style="fill:#00ff00;fill-rule:evenodd" d="M164.95,134.43L164.88,134.71L162.46,134.80L162.56,131.89L162.81,130.72zM130.58,137.08L130.58,137.97L129.14,137.97L129.22,133.64zM166.81,139.99L166.19,140.26L166.17,141.94L175.27,142.09L175.78,142.38L175.80,147.77L175.52,148.28L156.46,148.21L156.46,142.18L165.48,141.94L165.45,140.26L164.83,139.99L165.68,138.38L165.97,138.38z"/></g><g id="hotspot.30" onmouseover="ShowHotSpot(evt,'30')" onmouseout="HideHotSpot(evt,'30')" onmousemove="ShowToolTip(evt,'30',&quot;3dp2409413 (I_3DPart2409413.18)&quot;)" opacity="0"><path style="fill:#00ff00;fill-rule:evenodd" d="M131.54,167.50L132.32,167.23L134.82,166.98L134.81,182.41L133.65,182.55L134.28,183.89L133.66,184.16L133.64,186.64L142.76,186.77L143.02,187.04L143.01,192.47L142.72,192.97L123.41,192.90L123.41,186.88L132.95,186.64L132.91,184.18L132.54,183.65L132.93,182.82L132.07,182.65L131.86,182.07zM185.04,172.34L185.74,161.41L189.30,160.90L188.47,174.72L188.20,175.77L187.62,175.99L185.57,175.96L185.06,175.15z"/></g><g id="hotspot.31" onmouseover="ShowHotSpot(evt,'31')" onmouseout="HideHotSpot(evt,'31')" onmousemove="ShowToolTip(evt,'31',&quot;3dp2387089&quot;)" opacity="0"><path style="fill:#00ff00;fill-rule:evenodd" d="M126.12,135.75L126.08,136.37L123.85,136.81L123.69,139.03L104.11,140.87L96.61,141.42L96.35,138.13L123.60,135.50L125.83,135.46zM89.60,138.11L89.73,140.09L94.32,140.06L94.59,139.45L96.20,140.23L94.84,141.18L94.31,140.82L89.73,140.78L89.58,144.06L70.78,143.97L70.78,137.95L89.33,137.85z"/></g><g id="hotspot.32" onmouseover="ShowHotSpot(evt,'32')" onmouseout="HideHotSpot(evt,'32')" onmousemove="ShowToolTip(evt,'32',&quot;3dp2387091 (I_3DPart1054993.13)&quot;)" opacity="0"><path style="fill:#00ff00;fill-rule:evenodd" d="M203.85,113.78L203.84,119.21L203.55,119.71L183.97,119.64L183.73,117.24L176.49,117.27L176.32,117.84L175.49,117.47L175.15,117.51L175.24,118.02L194.05,144.21L194.05,148.02L193.52,147.65L183.47,133.10L181.86,132.86L178.90,128.61L178.89,128.34L179.80,127.93L179.80,127.55L179.52,127.27L178.17,127.38L174.41,122.00L174.39,121.73L175.27,121.19L175.00,120.70L173.32,120.50L172.06,118.59L171.98,116.44L173.97,116.19L174.48,116.73L174.90,116.75L175.98,116.15L176.51,116.51L183.73,116.55L183.97,113.62L203.59,113.51zM201.73,155.07L201.63,155.61L201.19,155.61L197.71,150.60L197.72,149.51z"/></g><g id="hotspot.33" onmouseover="ShowHotSpot(evt,'33')" onmouseout="HideHotSpot(evt,'33')" onmousemove="ShowToolTip(evt,'33',&quot;3dp2387093 (I_Symmetry of XNG SN CABIN 17.404)&quot;)" opacity="0"><path style="fill:#00ff00;fill-rule:evenodd" d="M179.25,93.15L179.24,98.58L178.96,99.09L169.60,99.25L169.37,105.70L169.94,105.87L169.61,106.67L169.34,107.53L169.97,107.72L173.43,112.49L171.73,112.75L169.96,112.75L167.83,109.60L167.83,108.32L168.04,107.74L168.94,107.47L168.34,106.40L168.30,105.91L168.61,105.68L168.90,104.37L168.92,99.25L159.64,99.01L159.64,92.99L178.99,92.89z"/></g><g id="hotspot.34" onmouseover="ShowHotSpot(evt,'34')" onmouseout="HideHotSpot(evt,'34')" onmousemove="ShowToolTip(evt,'34',&quot;3dp2389027 (I_3DPart2389027.5)&quot;)" opacity="0"><path style="fill:#00ff00;fill-rule:evenodd" d="M126.35,136.80L131.89,152.42L131.89,155.43L129.49,155.69L129.25,153.20L128.69,151.91L127.91,151.63L126.32,146.87L118.03,146.86L117.88,149.61L98.55,149.53L98.55,143.50L117.63,143.40L117.90,143.66L118.03,146.17L126.08,146.08L123.93,139.75L123.85,136.81L126.09,136.52z"/></g><g id="hotspot.35" onmouseover="ShowHotSpot(evt,'35')" onmouseout="HideHotSpot(evt,'35')" onmousemove="ShowToolTip(evt,'35',&quot;3dp2390326 (I_3DPart2390326.38)&quot;)" opacity="0"><path style="fill:#00ff00;fill-rule:evenodd" d="M144.84,153.33L140.79,153.75L139.28,153.75L133.70,139.46L133.62,138.94L138.75,138.68zM145.64,155.05L145.40,155.43L145.37,159.83L146.07,171.83L155.45,171.96L155.72,172.23L155.69,178.17L136.36,178.09L136.36,172.07L145.38,171.83L145.10,164.06L144.57,155.61L143.96,155.40L144.01,154.90L144.52,153.72L144.80,153.72z"/></g><g id="hotspot.36" onmouseover="ShowHotSpot(evt,'36')" onmouseout="HideHotSpot(evt,'36')" onmousemove="ShowToolTip(evt,'36',&quot;3dp2391225 (I_3DPart2391225.8)&quot;)" opacity="0"><path style="fill:#00ff00;fill-rule:evenodd" d="M196.67,128.89L196.70,134.28L196.41,134.79L187.32,134.96L187.40,138.69L193.54,147.63L193.80,148.27L191.13,148.19L182.16,134.94L177.36,134.72L177.36,128.69L196.17,128.60zM184.92,134.98L186.64,134.96L186.64,137.45L186.40,137.38L185.02,135.47z"/></g><g id="hotspot.37" onmouseover="ShowHotSpot(evt,'37')" onmouseout="HideHotSpot(evt,'37')" onmousemove="ShowToolTip(evt,'37',&quot;3dp2447174 (I_XNG SN CHNH 25.232)&quot;)" opacity="0"><path style="fill:#00ff00;fill-rule:evenodd" d="M199.86,119.35L199.77,122.07L200.31,122.61L208.32,122.64L208.56,119.70L227.39,119.60L227.65,119.86L227.64,125.29L227.35,125.80L208.56,125.73L208.32,123.32L200.30,123.35L200.10,123.89L199.88,123.89L199.57,124.44L199.33,127.66L198.24,127.91L198.23,128.36L199.07,129.40L197.48,150.14L196.39,148.71L195.81,148.69L194.98,149.22L194.53,155.88L195.93,157.95L196.17,158.57L195.84,158.80L194.02,158.79L193.77,157.75L193.53,157.78L193.50,155.15L196.12,119.16L196.34,118.58L197.39,118.31L199.08,118.28zM197.22,153.72L196.96,157.28L196.66,156.98L196.66,153.51L196.94,153.22z"/></g></g></svg>
