<?xml version="1.0" encoding="UTF-8" standalone="no"?>
<svg xmlns="http://www.w3.org/2000/svg" xmlns:xlink="http://www.w3.org/1999/xlink" width="297.000mm" height="210.000mm" viewBox="0.000000 0.000000 297.000000 210.000000" stroke-linejoin="round" stroke-linecap="round" fill="none" fill-rule="evenodd"><desc>Composer Export</desc><script type="text/ecmascript"><![CDATA[
if(typeof(top) != "undefined")
{
	top.ShowPaper = ShowPaper;
}
function ShowHotSpot(evt,hotspotid)
{
	var svgDocument = evt.target.ownerDocument;
	var strId = "hotspot."+hotspotid;
	var hotspot = svgDocument.getElementById(strId);
	if(hotspot)
		hotspot.setAttribute("opacity",".5");
}
function HideHotSpot(evt,hotspotid)
{
	var svgDocument = evt.target.ownerDocument;
	var strId = "hotspot."+hotspotid;
	var hotspot = svgDocument.getElementById(strId);
	if(hotspot)
		hotspot.setAttribute("opacity","0");

	var toolTip = svgDocument.getElementById('ToolTip');
	if(toolTip)
		toolTip.setAttribute("visibility","hidden");
}
function ShowToolTip(evt,hotspotid,strTooltip)
{
	if(strTooltip=="")
	return;

	// change text
	var svgDocument = evt.target.ownerDocument;
	var tiptext = svgDocument.getElementById('ToolTipText');
	if( !tiptext )
	return;
	tiptext.firstChild.nodeValue = " " + strTooltip + "  " ;

	// show tooltip before, else some refresh issue

	var toolTip = svgDocument.getElementById('ToolTip');
	if(!toolTip)
	return;

	toolTip.setAttribute("visibility","visible");
	toolTip.setAttribute("opacity",".95");

	// move tooltip
	// get viewbox

	var root = svgDocument.documentElement;
	var vbox = (root.getAttribute("viewBox")).split(' ');
	var x0 = parseFloat(vbox[0]);
	var y0 = parseFloat(vbox[1]);
	var vboxW = parseFloat(vbox[2]);
	var vboxH = parseFloat(vbox[3]);

	// get default width of svg

	var strW = root.getAttribute("width");
	var svgW = parseFloat(strW);
	if(strW.indexOf('mm') != -1)
	svgW *= 3.779;

	var strH = root.getAttribute("height");
	var svgH = parseFloat(strH);
	if(strH.indexOf('mm') != -1)
	svgH *= 3.779;  	// 96 dpi  -> 96/25.4 = 3.779

	// update the viewbox / width / height if svg is embedded in html with zoom fit all
	var realx0 = x0;
	var realy0 = y0;
	var realvboxW = vboxW;
	var realvboxH = vboxH;
	var realsvgW = svgW;
	var realsvgH = svgH;

	if ((typeof(top) == "undefined") || (typeof(top.svgctl1) != "undefined")) // embedded in html
	{
		// get window size in pxl

		svgW = window.innerWidth;
		svgH = window.innerHeight;

		// calculate real viewbox

		realsvgW = svgW;
		realsvgH = svgH;
		if((svgW / svgH) > (vboxW / vboxH))
		{
			realvboxW = (vboxH * svgW) / svgH;
			realvboxH = vboxH;
			realx0 = x0 - (realvboxW - vboxW)/2 ;
		}
		else
		{
			realvboxH = (vboxW * svgH) / svgW;
			realvboxW = vboxW;
			realy0 = y0 - (realvboxH - vboxH)/2 ;
		}
	}

	// get user zoom/pan

	var newScale = root.currentScale;
	var translation = root.currentTranslate;

	// transform pxl to user unit

	var xPos = (((evt.clientX+10- translation.x)/newScale) * realvboxW)/realsvgW  + realx0 ;
	var yPos = (((evt.clientY+5- translation.y)/newScale) * realvboxH)/ realsvgH  + realy0 ;
	var scaleForWidth = ( (1 / newScale) * realvboxH) / realsvgH;

	// move tooltip

	toolTip.setAttribute("transform", "translate(" + xPos + "," + yPos + ")" );

	// resize tooltip

	var fontsize = 12;
	tiptext.setAttribute("font-size",fontsize*scaleForWidth);
	tiptext.setAttribute("y", fontsize*scaleForWidth);
	var tipBG = svgDocument.getElementById('ToolTipBG');
	var outline = tiptext.getBBox();
	if(tipBG)
	{
		tipBG.setAttribute("stroke-width", 1*scaleForWidth);
		tipBG.setAttribute("width", Number(outline.width) );
		tipBG.setAttribute("height", Number(outline.height) + fontsize*.5*scaleForWidth );
	}
	var ToolTipShadow = svgDocument.getElementById('ToolTipShadow');
	if(ToolTipShadow)
	{
		ToolTipShadow.setAttribute("width", Number(outline.width) );
		ToolTipShadow.setAttribute("height", Number(outline.height) + fontsize*.5*scaleForWidth );
		ToolTipShadow.setAttribute("x", 3*scaleForWidth);
		ToolTipShadow.setAttribute("y", 3*scaleForWidth);
	}
}
function ShowPaper()
{
  var svgDocument = getDocument();
  var paper = svgDocument.getElementById("paperID");
  if(paper)
  {
    paper.setAttribute("transform","scale(1)");
    paper.setAttribute("opacity","1");
    paper.setAttribute("visibility","visible");
  }
  var svg = svgDocument.getRootElement();
  if(svg)
  {
    svg.setAttribute("width","307.000mm");
    svg.setAttribute("height","220.000mm");
    svg.setAttribute("viewBox","-5.000000 -5.000000 307.000000 220.000000");
  }
}
]]></script><defs/><g><g id="Actor_.0"><g style="stroke:#000000;stroke-width:0.123"><path d="M169.82,169.69L169.80,169.69L169.79,169.68L169.78,169.66L169.78,169.65L169.77,169.63L169.77,169.60L169.78,169.14L169.78,169.11L169.79,169.09L169.79,169.07L169.80,169.04L169.82,169.02L169.83,169.01L169.84,168.99L169.86,168.99L170.17,168.86L170.19,168.86L170.20,168.86L170.22,168.87L170.23,168.88L170.24,168.89L170.25,168.91L170.25,168.93L170.25,168.95L170.24,169.42L170.24,169.44L170.24,169.47L170.23,169.49L170.22,169.51L170.21,169.53L170.19,169.55L170.18,169.56L170.16,169.57L169.85,169.69L169.83,169.70L169.82,169.69L169.68,169.65"/><path d="M169.49,169.05L169.48,169.51L169.64,169.56L169.58,169.55L169.46,169.51L169.47,169.51L169.48,169.51"/><path d="M169.73,168.94L169.68,168.92L169.56,168.88L169.50,168.92L169.54,168.93L169.59,168.93"/><path d="M169.64,169.09L169.59,169.08L169.47,169.04L169.48,168.95L169.53,168.96L169.56,168.99"/><path d="M169.46,169.51L169.47,169.60L169.52,169.61L169.55,169.61"/><path d="M169.47,169.60L169.48,169.62L169.53,169.63L169.62,169.65L169.68,169.65"/><path d="M169.48,168.95L169.50,168.92"/><path d="M169.89,168.77L170.04,168.82L169.99,168.79L169.87,168.76L169.87,168.77L169.89,168.77L169.59,168.89"/><path d="M169.68,169.65L169.68,169.65"/><path d="M169.88,169.36L169.87,169.33L169.88,169.30L169.88,169.27L169.89,169.24L169.90,169.21L169.91,169.18L169.93,169.15L169.95,169.13L169.96,169.11L169.98,169.09L170.00,169.08L170.03,169.07L170.05,169.07L170.06,169.07L170.08,169.08L170.10,169.09L170.11,169.10L170.13,169.12L170.14,169.14L170.14,169.17L170.15,169.20L170.15,169.23L170.15,169.26L170.14,169.29L170.13,169.32L170.12,169.35L170.11,169.38L170.09,169.40L170.08,169.43L170.06,169.45L170.04,169.46L170.02,169.48L170.00,169.48L169.98,169.49L169.96,169.49L169.94,169.48L169.92,169.47L169.91,169.46L169.90,169.44L169.89,169.41L169.88,169.39L169.88,169.36"/><path d="M169.87,168.76L169.94,168.75L169.98,168.76L170.01,168.78"/><path d="M170.00,168.77L170.08,168.82"/><path d="M170.07,168.82L170.20,168.86"/></g></g><g id="Actor_.1"><g style="stroke:#000000;stroke-width:0.123"><path d="M168.61,188.39L168.35,188.29L168.33,188.28L168.32,188.27L168.32,188.26L168.32,188.25L168.32,188.24L168.33,188.23L168.35,188.22L168.69,188.07L168.73,188.05L168.78,188.05L168.83,188.05L168.88,188.07L169.25,188.21L169.30,188.23L169.31,188.24L169.32,188.25L169.33,188.26L169.33,188.27L169.32,188.28L169.31,188.29L169.29,188.30L168.96,188.45L168.91,188.46L168.86,188.46L168.84,188.46L168.79,188.46L168.61,188.39"/><path d="M168.65,188.31L168.63,188.30L168.61,188.29L168.60,188.28L168.59,188.26L168.59,188.25L168.60,188.23L168.60,188.22L168.62,188.21L168.64,188.20L168.66,188.19L168.71,188.17L168.78,188.16L168.81,188.16L168.84,188.17L168.91,188.17L168.94,188.18L168.99,188.20L169.01,188.21L169.03,188.23L169.04,188.24L169.05,188.25L169.05,188.27L169.05,188.28L169.04,188.29L169.02,188.31L169.01,188.32L168.98,188.33L168.93,188.34L168.87,188.35L168.83,188.35L168.76,188.35L168.70,188.33L168.65,188.31"/><path d="M168.75,188.83L168.36,188.68L168.36,188.48L168.35,188.54L168.35,188.70L168.28,188.67L168.28,188.60L168.30,188.56"/><path d="M168.31,188.43L168.28,188.59L168.28,188.65L168.28,188.67"/><path d="M168.35,188.70L168.36,188.70L168.36,188.68"/><path d="M168.31,188.44L168.32,188.26"/><path d="M168.96,188.83L169.24,188.70"/><path d="M169.29,188.65L169.29,188.47L169.30,188.54L169.30,188.64"/><path d="M168.90,188.76L168.88,188.82L168.88,188.88L168.96,188.85L168.96,188.70L168.95,188.63"/><path d="M168.88,188.88L168.84,188.88L168.84,188.82L168.82,188.76"/><path d="M168.84,188.88L168.75,188.86L168.75,188.70L168.76,188.63"/><path d="M169.35,188.58L169.34,188.56"/><path d="M169.32,188.43L169.33,188.26"/><path d="M169.35,188.58L169.32,188.43"/></g></g><g id="Actor_.2"><g style="stroke:#000000;stroke-width:0.123"><path d="M120.44,175.81L120.46,175.86L120.48,175.88L120.54,175.92L121.71,176.39L121.77,176.41L121.87,176.40L123.06,176.14L123.18,176.13L123.28,176.14L123.27,176.14"/><path d="M120.99,175.20L120.95,175.25L120.91,175.34L120.91,175.45L120.94,175.58L120.97,175.65L121.04,175.75L121.12,175.80L121.19,175.81"/><path d="M120.92,175.67L120.96,175.74L121.01,175.79L121.06,175.82L121.12,175.83L121.17,175.82L121.21,175.79L121.24,175.74L121.26,175.68L121.27,175.56L121.25,175.48L121.23,175.40L121.19,175.33L121.14,175.27L121.09,175.23L121.03,175.21L120.98,175.20L120.93,175.23L120.91,175.24L120.88,175.29L120.86,175.36L120.85,175.43L120.86,175.51L120.88,175.60L120.92,175.67"/><path d="M120.43,175.45L120.43,175.77L120.44,175.81"/><path d="M120.42,175.05L120.42,175.06L120.42,175.05L120.39,175.13L120.38,175.23L120.38,175.28L120.42,175.39L120.43,175.45"/><path d="M120.43,175.03L120.43,174.67L120.44,174.63L120.47,174.58L120.52,174.55L121.31,174.14"/><path d="M120.43,175.02L120.43,175.01"/><path d="M120.42,175.05L120.42,175.06"/><path d="M120.42,175.05L120.42,175.06"/><path d="M120.42,175.05L120.42,175.05"/><path d="M120.42,175.05L120.42,175.05"/><path d="M120.42,175.06L120.43,175.03"/><path d="M120.42,175.06L120.42,175.05L120.42,175.06"/><path d="M120.43,175.03L120.43,175.04"/><path d="M120.43,175.03L120.43,175.03"/><path d="M120.55,174.53L120.55,174.42L120.57,174.36L120.61,174.30L120.62,174.26L120.62,173.94L120.63,173.88L120.65,173.83L120.69,173.79L120.73,173.77L120.78,173.75L121.42,174.00L121.47,174.04L121.48,174.06L121.48,174.08L121.47,174.11L121.43,174.15L120.68,174.53L120.65,174.54L120.64,174.55L120.64,174.56L121.76,175.00L121.77,175.02L121.81,175.02L121.84,175.02L122.98,174.76L123.15,174.75L123.27,174.75L123.37,174.78L124.02,175.03L123.97,175.05L123.93,175.08L123.90,175.12L123.87,175.17L123.86,175.22L123.87,175.56L123.86,175.58L123.80,175.68L123.79,175.75L123.80,175.87L123.81,175.91L123.85,175.94L123.87,175.97L123.87,176.30L123.88,176.35L123.90,176.39L123.94,176.41L123.98,176.40L124.03,176.38L124.03,176.32L123.92,176.27"/><path d="M120.71,174.58L121.44,174.21L121.46,174.19L121.48,174.16L121.48,174.08"/><path d="M121.34,174.53L121.34,174.26L121.34,174.55L121.33,174.61L121.29,174.65"/><path d="M121.31,174.57L121.30,174.57"/><path d="M121.28,174.66L121.28,174.66L121.28,174.66"/><path d="M121.26,174.67L121.29,174.65"/><path d="M121.30,174.65L121.29,174.65"/><path d="M121.23,174.71L121.23,174.79"/><path d="M121.23,174.71L121.23,174.71"/><path d="M121.23,174.71L121.25,174.68"/><path d="M121.26,174.67L121.25,174.68"/><path d="M121.24,174.70L121.24,174.70"/><path d="M121.28,174.66L121.11,174.75L121.16,174.72L121.15,174.73"/><path d="M121.21,174.69L121.22,174.69L121.16,174.72"/><path d="M121.24,174.79L121.23,174.78"/><path d="M121.11,174.75L121.11,174.75"/><path d="M121.28,174.66L121.22,174.69"/><path d="M121.34,174.26L121.34,174.53"/><path d="M124.03,176.32L123.96,176.34L123.94,176.33L123.93,176.31L123.92,175.94L123.90,175.90L123.85,175.85L123.84,175.80L123.85,175.71L123.90,175.60L123.92,175.55L123.92,175.18L123.95,175.13L124.02,175.10L124.02,175.03"/><path d="M123.28,176.15L123.28,176.14L123.92,176.40"/></g></g><g id="Actor_.3"><g style="stroke:#000000;stroke-width:0.123"><path d="M166.26,187.10L166.25,187.09L166.25,187.08L166.23,187.07L166.21,187.07L165.82,186.92L165.77,186.91L165.72,186.90L165.67,186.91L165.63,186.92L165.29,187.07L165.28,187.08L165.26,187.09L165.26,187.10L165.26,187.11L165.26,187.12L165.27,187.13L165.29,187.14L165.30,187.14L165.70,187.29L165.74,187.30L165.80,187.31L165.85,187.30L165.89,187.29L166.23,187.14L166.24,187.13L166.25,187.12L166.26,187.11L166.26,187.10L166.26,187.28L166.29,187.44L166.29,187.51L166.23,187.54L166.23,187.39L166.22,187.32L166.22,187.52L165.89,187.67"/><path d="M165.68,187.67L165.30,187.52L165.30,187.54L165.29,187.55L165.29,187.39L165.30,187.32L165.30,187.52"/><path d="M165.24,187.41L165.22,187.45L165.22,187.51L165.22,187.50L165.22,187.43L165.26,187.27"/><path d="M165.26,187.28L165.26,187.11"/><path d="M165.22,187.51L165.29,187.55"/><path d="M165.57,187.15L165.55,187.14L165.54,187.12L165.53,187.11L165.53,187.09L165.54,187.08L165.54,187.07L165.56,187.06L165.58,187.04L165.60,187.04L165.62,187.03L165.68,187.02L165.75,187.01L165.78,187.01L165.82,187.02L165.88,187.03L165.93,187.05L165.95,187.06L165.97,187.07L165.98,187.09L165.98,187.10L165.99,187.11L165.98,187.13L165.97,187.14L165.96,187.15L165.94,187.16L165.89,187.18L165.83,187.19L165.77,187.20L165.70,187.19L165.64,187.18L165.61,187.17L165.59,187.16L165.57,187.15"/><path d="M166.23,187.54L166.22,187.54L166.22,187.52"/><path d="M165.76,187.60L165.78,187.66L165.77,187.72L165.68,187.70L165.69,187.54L165.70,187.47"/><path d="M165.88,187.47L165.89,187.54L165.89,187.70L165.81,187.72L165.81,187.66L165.83,187.60"/><path d="M165.77,187.72L165.81,187.72"/><path d="M166.29,187.45L166.28,187.41"/></g></g><g id="Actor_.4"><g style="stroke:#000000;stroke-width:0.123"><path d="M173.34,170.36L173.41,166.79L172.35,166.46L172.24,166.44L172.11,166.44L172.00,166.46L169.53,167.40L169.37,167.51L169.24,167.69L169.15,167.92L169.11,168.16L169.07,170.55L169.10,170.77L169.18,170.93L169.31,171.01L169.12,170.94L168.99,170.87L168.91,170.71L168.88,170.49L168.92,168.10L168.95,167.85L169.05,167.63L169.18,167.45L169.33,167.34L171.81,166.40L171.96,166.37L172.15,166.35L172.34,166.37L172.51,166.40L173.57,166.73L173.50,170.30L173.34,170.36L172.29,170.02L172.17,170.00L172.04,170.00L171.94,170.02L169.46,170.99L169.31,171.01"/><path d="M173.41,166.79L173.57,166.73"/></g></g><g id="Actor_.5"><g style="stroke:#000000;stroke-width:0.123"><path d="M171.99,167.84L172.01,167.85L172.02,167.86L172.03,167.87L172.04,167.89L172.04,167.91L172.04,167.93L172.03,168.40L172.03,168.42L172.02,168.44L172.02,168.47L172.01,168.49L171.99,168.51L171.98,168.52L171.97,168.54L171.95,168.55L171.64,168.67L171.62,168.67L171.61,168.67L171.60,168.66L171.58,168.65L171.58,168.64L171.57,168.62L171.56,168.60L171.56,168.58L171.57,168.11L171.57,168.09L171.58,168.07L171.59,168.04L171.60,168.02L171.61,168.00L171.62,167.98L171.64,167.97L171.65,167.96L171.96,167.84L171.98,167.84L171.99,167.84L171.86,167.80"/><path d="M171.28,168.03L171.28,168.49L171.43,168.53L171.37,168.52L171.25,168.48L171.26,168.57L171.28,168.59L171.32,168.61L171.42,168.62L171.48,168.63L171.61,168.67"/><path d="M171.48,168.63L171.46,168.62"/><path d="M171.71,168.45L171.70,168.43L171.69,168.41L171.68,168.39L171.67,168.36L171.67,168.34L171.67,168.31L171.67,168.28L171.67,168.25L171.68,168.21L171.69,168.18L171.71,168.16L171.72,168.13L171.74,168.11L171.76,168.09L171.78,168.07L171.80,168.06L171.82,168.05L171.84,168.05L171.85,168.05L171.87,168.05L171.89,168.06L171.90,168.08L171.92,168.10L171.92,168.12L171.93,168.15L171.94,168.17L171.94,168.20L171.93,168.23L171.93,168.26L171.92,168.30L171.91,168.33L171.90,168.35L171.88,168.38L171.87,168.40L171.85,168.42L171.83,168.44L171.81,168.45L171.79,168.46L171.77,168.46L171.75,168.46L171.73,168.46L171.71,168.45"/><path d="M171.38,167.87L171.68,167.75L171.66,167.75L171.66,167.74L171.78,167.77L171.83,167.80L171.68,167.75"/><path d="M171.25,168.48L171.26,168.48L171.28,168.49"/><path d="M171.39,167.91L171.34,167.91L171.29,167.89L171.35,167.86L171.47,167.89L171.52,167.92"/><path d="M171.44,168.07L171.38,168.06L171.26,168.02L171.27,167.92L171.32,167.94L171.36,167.97"/><path d="M171.27,167.92L171.29,167.89"/><path d="M171.66,167.74L171.72,167.73L171.77,167.74L171.79,167.76"/><path d="M171.34,168.58L171.31,168.59L171.26,168.57"/><path d="M171.78,167.75L171.87,167.80"/></g></g><g id="Actor_.6"><g style="stroke:#000000;stroke-width:0.123"><path d="M128.41,185.41L128.28,185.46L128.18,185.37L128.12,185.23L128.13,185.09L128.19,185.00L128.28,185.00L128.30,185.01"/><path d="M128.28,185.46L128.38,185.46L128.43,185.38"/><path d="M128.85,184.85L128.86,184.86L128.89,184.97L128.89,185.50L128.86,185.58"/></g></g><g id="Actor_.7"><g style="stroke:#000000;stroke-width:0.123"><path d="M128.17,186.24L128.22,186.29L128.28,186.33L128.36,186.37L128.44,186.39"/><path d="M128.16,186.22L128.18,186.26L128.18,186.25"/><path d="M128.14,186.20L128.16,186.22"/><path d="M128.12,186.19L128.15,186.21"/><path d="M128.35,185.55L128.27,185.54L128.18,185.48L128.13,185.42L128.08,185.31L128.06,185.23L128.05,185.10L128.08,185.00L128.13,184.94"/><path d="M128.27,185.58L128.34,185.56L128.38,185.52L128.40,185.48L128.42,185.42L128.43,185.35L128.41,185.22L128.36,185.10L128.29,185.01L128.21,184.95L128.13,184.94L128.06,184.97L128.01,185.05L127.99,185.16L128.01,185.29L128.06,185.41L128.13,185.50L128.18,185.55L128.27,185.58"/><path d="M128.13,186.19L127.90,186.09L127.86,186.07L127.82,186.02L127.79,185.95L127.79,184.19L127.80,184.12L127.84,184.04L127.89,183.99L128.88,183.33"/><path d="M128.13,186.19L128.13,186.19"/><path d="M128.21,184.08L128.21,184.07"/><path d="M128.21,184.08L128.21,184.07"/><path d="M129.22,183.37L129.19,183.40L128.28,184.01L128.20,184.08L128.21,184.07"/><path d="M128.85,186.24L128.86,186.26L128.88,186.27L128.91,186.26L129.82,186.17L129.91,186.19L129.85,186.16L129.79,186.15L128.85,186.24L128.85,186.23L129.45,186.17L129.51,186.18"/><path d="M129.31,182.41L129.31,182.38L129.31,182.39L129.31,182.41L129.37,182.44L129.43,182.45L129.57,182.46L129.83,182.57L129.90,182.57L129.98,182.54L130.02,182.56L130.02,183.54L130.00,183.64L129.97,183.71L129.91,183.80L129.85,183.87L128.91,184.50L128.88,184.51L128.85,184.54L128.85,184.57L128.85,184.61L128.86,186.19L128.85,186.23"/><path d="M129.25,187.16L129.26,187.20L129.33,187.23L129.40,187.25L129.54,187.26L129.82,187.37L129.93,187.37L130.03,187.34L130.03,186.39L130.02,186.32L129.99,186.26L129.95,186.21L129.91,186.19"/><path d="M129.25,187.13L129.01,187.03L128.97,187.00L128.97,186.42"/><path d="M129.25,187.16L129.24,186.39"/><path d="M129.73,186.35L128.73,186.44L128.69,186.43L128.44,186.33"/><path d="M128.44,186.39L128.56,186.38"/><path d="M128.45,186.33L128.45,186.33"/><path d="M128.44,186.32L128.43,186.32"/><path d="M128.43,186.32L128.44,186.33"/><path d="M128.86,185.76L128.93,185.77L129.04,185.82L129.09,185.90L129.11,186.01"/><path d="M128.99,185.80L128.94,185.78L128.86,185.79"/><path d="M129.32,186.18L129.30,186.13L129.25,186.07L128.99,185.96"/><path d="M129.24,183.32L129.24,183.33L129.23,182.39L129.25,182.43L129.32,182.46L129.39,182.48L129.53,182.48L129.81,182.60L129.92,182.60L130.02,182.56"/><path d="M129.24,183.33L129.23,183.34"/><path d="M129.22,183.37L129.23,183.37"/><path d="M129.23,183.34L129.22,183.37"/><path d="M129.23,183.33L129.24,183.33"/><path d="M129.23,182.39L129.24,182.37L129.23,182.36L128.99,182.26L128.96,182.24L128.96,182.22L128.96,183.16L128.93,183.26L128.87,183.33"/><path d="M129.31,182.38L129.30,182.36L129.27,182.34L129.05,182.24L129.03,182.23L129.04,182.21L129.10,182.18L129.06,182.16L128.98,182.19L128.96,182.22"/><path d="M129.10,182.27L129.10,182.18"/><path d="M129.73,186.35L129.74,186.35"/><path d="M129.48,186.18L129.49,186.18"/><path d="M129.46,186.17L129.45,186.17"/></g></g><g id="Actor_.8"><g style="stroke:#000000;stroke-width:0.123"><path d="M121.20,175.35L120.98,175.43L121.01,175.57L121.08,175.69L121.18,175.73L121.26,175.68L121.27,175.64"/><path d="M120.98,175.43L121.01,175.31L121.08,175.26L121.16,175.29"/></g></g><g id="Actor_.9"><g style="stroke:#000000;stroke-width:0.123"><path d="M167.41,188.41L167.22,188.42L167.04,188.38L166.93,188.31L166.91,188.23L166.99,188.17L167.14,188.12L167.33,188.12L167.51,188.16L167.62,188.23L167.64,188.30L167.56,188.37L167.41,188.41"/><path d="M167.00,188.35L167.14,188.32L167.33,188.31L167.50,188.35L167.55,188.38"/></g></g><g id="Actor_.10"><g style="stroke:#000000;stroke-width:0.123"><path d="M163.43,187.89L168.53,189.84L168.54,189.64L163.43,187.70L163.43,187.89"/><path d="M168.53,189.84L171.31,188.57L171.41,188.50L171.50,188.38L171.56,188.23L171.58,188.07L171.61,186.54L166.50,184.66L166.37,184.72L163.43,187.70"/><path d="M168.38,189.59L171.32,186.54L166.53,184.77L163.58,187.76L165.76,186.80L166.51,186.03L166.53,184.77L166.37,184.72"/><path d="M166.43,188.28L166.30,188.15L166.27,188.02L166.35,187.89L166.51,187.79L166.75,187.71L167.04,187.67L167.35,187.67L167.66,187.71L167.93,187.79L168.13,187.89L168.25,188.01L168.28,188.14L168.21,188.26L168.04,188.37L167.80,188.44L167.51,188.49L167.20,188.49L166.89,188.45L166.62,188.37L166.43,188.28"/><path d="M168.25,188.20L168.13,188.08L167.93,187.98L167.66,187.90L167.35,187.86L167.04,187.86L166.75,187.90L166.51,187.98L166.35,188.08L166.30,188.15"/><path d="M165.97,186.58L166.22,186.47L166.28,186.42L166.33,186.33L166.35,186.19"/><path d="M171.32,186.54L171.48,186.60L168.54,189.64L171.32,188.38L171.38,188.32L171.43,188.23L171.45,188.13L171.45,187.88L170.71,188.65"/><path d="M171.45,187.88L171.48,186.60L171.61,186.54"/></g></g><g id="Actor_144.0"><g style="stroke:#000000;stroke-width:0.123"><path d="M188.26,151.28L187.91,164.51L186.93,164.92L186.76,164.93L185.41,164.54L185.36,164.52L185.34,164.49L185.68,151.24L185.69,151.27L185.75,151.30L187.13,151.65L187.28,151.63L188.26,151.28L188.26,151.25L188.19,151.22L186.82,150.88L186.67,150.89L185.68,151.24"/><path d="M185.77,151.27L187.13,151.62L187.20,151.61L188.17,151.27L188.14,151.24L186.82,150.91L186.74,150.91L185.79,151.24L185.77,151.27"/></g></g><g id="Actor_148.0"><g style="stroke:#000000;stroke-width:0.123"><path d="M117.32,199.85L116.22,199.39L116.05,199.20L116.00,197.49L116.08,197.30L119.01,198.52L119.11,198.80L119.12,200.32L119.01,200.54L117.68,200.01L117.68,199.87L118.05,199.75L117.85,199.71L117.32,199.85L117.32,199.71L116.15,199.18L116.11,197.48L116.55,197.59L118.96,198.62L118.99,200.38L117.68,199.87"/><path d="M128.77,193.38L116.08,197.30"/><path d="M117.32,199.71L117.86,199.57L118.12,199.64L118.05,199.75"/><path d="M119.01,200.54L130.63,196.83"/><path d="M143.28,187.46L131.62,192.27"/><path d="M134.24,195.41L146.08,190.38"/><path d="M158.83,181.06L145.99,186.35"/><path d="M149.56,188.90L160.58,184.22"/><path d="M150.81,185.75L150.40,185.75L150.83,185.75L150.87,185.68L150.67,185.58L150.38,185.63L150.40,185.75"/><path d="M150.67,185.58L150.67,185.71"/><path d="M161.40,180.00L171.78,175.72L174.39,176.55L174.56,176.73L174.55,178.14L174.48,178.30L163.98,182.78"/></g></g><g id="Actor_132.0"><g style="stroke:#000000;stroke-width:0.123"><path d="M131.57,158.77L131.62,194.11L131.56,194.18L130.19,194.64L129.99,194.62L128.77,194.06L128.75,186.44"/><path d="M130.15,158.29L129.91,158.29L128.67,157.86L128.74,183.42"/><path d="M128.67,157.83L128.70,157.81"/><path d="M130.08,158.27L128.77,157.83"/></g></g><g id="Actor_133.0"><g style="stroke:#000000;stroke-width:0.123"><path d="M159.60,144.45L159.64,144.41L160.71,144.12L160.85,144.13L161.95,144.42L162.01,144.46L160.99,144.77L160.85,144.78L159.61,144.46L159.45,156.86"/><path d="M160.40,144.64L159.71,144.46L159.69,144.44L160.74,144.14L161.90,144.43L161.92,144.46L160.90,144.76L160.81,144.75L160.40,144.64"/><path d="M160.61,158.92L160.78,158.92"/><path d="M162.01,144.46L161.84,156.86"/></g></g><g id="Actor_160.0"><g style="stroke:#000000;stroke-width:0.123"><path d="M128.72,175.79L117.98,171.57L117.91,171.56L116.94,171.88L116.62,171.99L116.54,172.04L116.49,172.12L116.47,172.22L116.48,173.83L116.51,173.91L116.56,173.96L120.43,175.52"/><path d="M117.60,173.55L117.49,173.59"/><path d="M117.32,173.25L117.39,173.18L117.49,173.20L117.57,173.31L117.62,173.45L117.60,173.58L117.53,173.65L117.43,173.63L117.35,173.53L117.31,173.39L117.32,173.25L117.40,173.23L117.38,173.36L117.42,173.51L117.51,173.61L117.56,173.62"/><path d="M117.43,173.19L117.40,173.23"/><path d="M128.72,176.85L128.65,176.95L128.63,177.05L128.64,178.72L128.66,178.81L128.71,178.86L122.34,176.29"/><path d="M127.51,177.32L127.49,177.46L127.53,177.61L127.62,177.72L127.73,177.74L127.80,177.67L127.82,177.53L127.78,177.38L127.68,177.27L127.58,177.25L127.51,177.32L127.58,177.30L127.56,177.43L127.61,177.58L127.70,177.69L127.76,177.71"/><path d="M127.58,177.30L127.62,177.26"/><path d="M128.71,178.86L128.73,178.86"/><path d="M128.73,178.73L128.72,176.98"/></g></g><g id="Actor_141.0"><g style="stroke:#000000;stroke-width:0.123"><path d="M146.06,173.51L145.98,187.45L144.69,187.98L144.51,187.96L143.28,187.46L143.34,174.52"/></g></g><g id="Actor_149.0"><g style="stroke:#000000;stroke-width:0.123"><path d="M115.89,151.19L115.71,151.13L115.71,151.04L116.05,151.15L116.04,151.19L115.55,151.08L115.07,151.21L114.94,151.35L114.94,153.07L115.00,153.21L145.29,163.37L145.71,163.54L146.26,163.89"/><path d="M115.71,151.04L116.43,150.86L147.28,160.95L148.11,161.41L148.47,161.73L148.65,161.99L148.75,162.36L148.72,164.44L148.56,164.82L148.33,165.07L148.36,163.17L148.28,162.96L146.62,162.40L146.49,162.41L146.42,162.54L146.42,164.42L146.61,164.62L147.11,164.79L147.11,164.68L147.45,164.36L147.66,164.36L147.30,164.74L147.30,164.85L148.18,165.14L148.33,165.07"/><path d="M132.33,156.50L131.89,156.45L131.90,156.39L132.01,156.35L132.19,156.33L132.45,156.40L132.44,156.46L132.33,156.50"/><path d="M131.94,156.48L132.19,156.43L132.40,156.47"/><path d="M147.30,164.74L148.18,165.03L148.25,165.01L148.26,163.07L147.98,162.94L146.56,162.50L146.52,162.57L146.52,164.43L146.61,164.52L147.11,164.68"/><path d="M146.54,164.17L146.55,162.52"/><path d="M146.24,163.86L146.41,164.12"/><path d="M146.42,162.54L146.44,162.34"/><path d="M146.43,162.49L146.47,162.29"/><path d="M147.11,164.79L147.43,164.48L147.61,164.44"/></g></g><g id="Actor_157.0"><g style="stroke:#000000;stroke-width:0.123"><path d="M165.14,185.97L160.63,184.29L160.59,184.24L160.57,184.14L160.59,183.10L160.59,182.66L160.65,182.48L160.71,182.43L161.77,181.99L161.83,181.99L175.96,187.17L175.89,187.16L174.80,187.62L174.74,187.68L174.69,187.79"/><path d="M166.29,186.40L166.18,186.36"/><path d="M172.49,188.72L171.51,188.35"/><path d="M174.76,187.76L174.80,187.71L175.89,187.25L175.93,187.26"/><path d="M175.96,187.17L176.00,187.23"/></g></g><g id="Actor_144.1"><g style="stroke:#000000;stroke-width:0.123"><path d="M173.03,160.85L173.28,148.00L173.28,148.03L173.34,148.06L174.62,148.38L174.77,148.37L175.77,148.04L175.51,160.86L174.53,161.23L174.35,161.25L173.09,160.89L173.03,160.85"/><path d="M173.36,148.01L174.35,147.69L174.42,147.69L175.69,148.02L175.67,148.04L174.89,148.29L174.63,148.35L173.39,148.04L173.36,148.01"/><path d="M173.28,148.00L174.28,147.68L174.43,147.66L175.71,147.99L175.77,148.01L175.77,148.04"/></g></g><g id="Actor_154.0"><g style="stroke:#000000;stroke-width:0.123"><path d="M134.60,205.54L135.00,205.36L135.27,205.45L135.14,205.63L138.08,205.86L138.17,205.81L138.06,204.16L137.79,204.01L134.69,203.66L131.52,203.01L131.58,204.83L132.67,205.17L134.60,205.54L134.59,205.68L133.62,205.51L131.75,205.09L131.49,204.93L131.38,204.70L131.33,202.91L131.61,202.86L134.67,203.51L137.75,203.86L138.31,204.02L138.44,204.18"/><path d="M138.54,205.85L138.05,206.04L140.93,205.55L143.01,205.07L146.93,203.89L150.59,202.48L160.74,198.17L192.09,184.41L192.21,184.18L192.21,182.71L192.04,182.55L189.21,181.62L157.80,194.97L146.06,199.77L141.49,201.27L138.09,202.06L135.93,202.43L131.54,202.85"/><path d="M131.61,202.86L131.43,202.86"/><path d="M134.59,205.68L134.89,205.51L135.21,205.57"/><path d="M138.05,206.04L135.13,205.77L135.14,205.63"/><path d="M167.51,191.86L167.94,191.87"/><path d="M167.55,191.70L167.88,191.70L167.99,191.84L167.57,191.89L167.45,191.76L167.55,191.70"/><path d="M167.99,191.76L167.98,191.84"/></g></g><g id="Actor_147.0"><g style="stroke:#000000;stroke-width:0.123"><path d="M171.81,173.91L171.74,174.12L171.71,175.75"/><path d="M186.98,182.57L174.50,178.28"/><path d="M194.39,180.61L194.43,180.66L194.44,180.78L193.94,183.98L193.78,184.18L192.94,184.58L192.85,184.58L192.82,184.40L193.28,181.32L193.33,181.17L193.47,181.01L194.37,180.61L175.19,174.25"/><path d="M192.85,184.58L192.17,184.35"/><path d="M192.95,184.46L192.90,184.45L192.89,184.38L193.37,181.24L193.46,181.13L194.33,180.73L194.36,180.82L193.88,183.95L193.80,184.06L192.95,184.46"/></g></g><g id="Actor_153.0"><g style="stroke:#000000;stroke-width:0.123"><path d="M116.49,173.87L116.38,173.94L115.29,173.51L115.18,173.38L115.15,171.72L115.23,171.54"/><path d="M115.22,172.76L115.22,173.30L115.29,173.42L116.38,173.85L116.44,173.79L116.43,172.17L116.37,172.06L115.27,171.63L115.21,171.70L115.22,172.76"/><path d="M115.22,171.54L115.21,171.54"/><path d="M116.45,173.94L116.51,173.92"/><path d="M116.39,171.99L116.48,172.15"/><path d="M117.60,173.55L117.49,173.59"/><path d="M128.69,167.06L117.94,170.63"/><path d="M120.51,172.56L128.70,169.77"/><path d="M131.58,168.79L131.87,168.69"/><path d="M131.58,166.11L142.56,162.46"/><path d="M146.18,163.83L135.78,167.36"/><path d="M151.35,162.07L160.63,158.91L160.70,158.79L160.70,157.29L160.59,157.18L159.45,156.86L147.20,160.92"/></g></g><g id="Actor_143.0"><g style="stroke:#000000;stroke-width:0.123"><path d="M175.46,163.34L175.24,174.21L175.21,174.24L174.25,174.64L174.09,174.65L172.78,174.22L172.85,170.20"/><path d="M172.98,163.52L172.92,166.53"/><path d="M174.27,163.04L174.45,163.04"/><path d="M174.38,163.02L174.32,163.02"/></g></g><g id="Actor_158.0"><g style="stroke:#000000;stroke-width:0.123"><path d="M131.60,176.90L131.66,177.02L131.66,178.69L131.60,178.75"/><path d="M131.60,178.38L131.66,178.34L131.60,178.31"/><path d="M131.59,176.81L131.72,177.02L131.73,177.93L131.73,178.71L131.71,178.80L131.60,178.85"/><path d="M131.66,178.85L174.30,163.03L174.37,162.92L174.39,161.40L174.27,161.24L173.02,160.89L131.59,175.88"/></g></g><g id="Actor_159.0"><g style="stroke:#000000;stroke-width:0.123"><path d="M163.30,164.41L159.87,159.17"/><path d="M163.35,159.69L163.03,159.65L160.60,158.92"/><path d="M163.18,159.64L160.77,158.92"/><path d="M170.93,176.07L164.72,166.59"/><path d="M166.87,163.11L164.93,160.17"/><path d="M169.60,167.24L168.29,165.26"/><path d="M172.78,174.03L172.71,174.20L171.70,173.87L171.66,175.77"/><path d="M171.78,173.98L171.78,173.89"/><path d="M172.81,172.10L171.54,170.18"/><path d="M172.71,174.20L172.77,174.17"/></g></g><g id="Actor_150.0"><g style="stroke:#000000;stroke-width:0.123"><path d="M170.43,161.83L160.76,158.91L160.70,158.79L160.74,157.27L160.83,157.18L161.83,156.86L173.04,160.16"/><path d="M187.89,164.53L195.56,166.79L194.57,167.18L194.47,167.31L194.41,168.93L194.46,169.07L174.33,163.00"/><path d="M185.36,163.79L175.49,160.88"/><path d="M194.46,168.92L194.51,168.98L195.49,168.55L195.54,166.89L194.53,167.31L194.46,168.92"/><path d="M194.46,169.07L195.45,168.68L195.55,168.55L195.61,166.92L195.56,166.79"/></g></g><g id="Actor_155.0"><g style="stroke:#000000;stroke-width:0.123"><path d="M159.65,194.18L159.70,194.07L159.78,194.00L160.98,193.50L161.04,193.50L147.41,188.04L147.34,188.04L147.13,188.13L146.21,188.54L146.14,188.61L146.08,188.78L146.08,190.34L146.09,190.44L146.13,190.48L157.46,195.11"/><path d="M159.73,194.15L159.78,194.10L160.97,193.59L161.02,193.60"/><path d="M161.05,193.50L161.10,193.57"/></g></g><g id="Actor_.11"><g style="stroke:#000000;stroke-width:0.123"><path d="M174.45,57.83L174.40,57.90L174.40,58.05L174.44,58.13"/><path d="M174.49,57.96L174.49,57.99"/><path d="M174.47,58.09L174.42,58.18L174.31,58.22L174.20,58.17L174.13,58.05L174.13,57.90L174.20,57.78L174.32,57.74L174.42,57.78L174.47,57.87"/></g></g><g id="Actor_78.0"><g style="stroke:#000000;stroke-width:0.123"><path d="M179.03,109.79L178.87,109.60L178.90,109.61L179.06,109.81L179.17,109.88L178.99,109.71L178.84,109.47L178.81,109.39L178.80,109.28L178.82,108.51L178.77,108.50L178.75,109.28L178.76,109.38L178.79,109.46L178.93,109.70L179.04,109.80L179.03,109.79"/><path d="M178.91,109.16L179.00,109.35"/><path d="M178.84,108.85L178.91,109.16"/><path d="M178.84,108.85L178.82,108.51"/><path d="M178.77,109.43L178.61,109.30L178.40,109.02L178.26,108.64L178.22,108.29L178.23,108.09"/><path d="M178.09,106.31L178.07,107.71L178.10,107.77L178.22,107.83L178.36,107.87L178.69,107.93L179.02,107.97L179.38,107.99L179.75,108.00L180.12,108.00L180.45,107.98L180.74,107.95L180.97,107.91L181.11,107.85L181.16,107.80L181.20,106.37"/><path d="M178.03,107.71L178.06,107.77L178.19,107.83L178.39,107.89L178.76,107.95L179.00,107.98L179.37,108.00L179.75,108.01L180.13,108.01L180.47,107.99L180.77,107.95L180.99,107.91L181.14,107.86L181.20,107.80L181.20,107.86L181.14,107.92L180.99,107.97L180.77,108.02L180.47,108.05L180.13,108.07L179.75,108.08L179.37,108.06L179.00,108.04L178.67,108.00L178.39,107.95L178.19,107.90L178.06,107.84L178.03,107.78L178.03,107.71L178.07,107.68"/><path d="M178.06,107.84L178.06,107.92L178.11,108.03L178.27,108.10L178.48,108.16L178.77,108.21L179.12,108.24L179.50,108.27L179.89,108.27L180.26,108.26L180.58,108.23L180.84,108.19L181.08,108.11L181.14,108.05L181.16,108.01L181.16,107.90"/><path d="M178.07,106.16L178.06,106.25L178.10,106.31L178.22,106.37L178.42,106.43L178.70,106.47L179.03,106.51L179.40,106.53L179.79,106.54L180.16,106.54L180.51,106.52L180.80,106.49L181.03,106.45L181.17,106.39L181.23,106.34L181.23,106.24L181.20,106.18L181.07,106.12L180.86,106.07L180.59,106.02L180.25,105.98L179.89,105.96L179.51,105.95L179.14,105.96L178.79,105.97L178.50,106.01L178.27,106.05L178.13,106.10L178.07,106.16L178.10,106.22L178.22,106.27L178.43,106.33L178.70,106.38L179.04,106.41L179.41,106.44L179.79,106.45L180.16,106.44L180.51,106.42L180.80,106.39L181.03,106.35L181.18,106.30L181.23,106.24"/><path d="M179.03,106.37L178.89,106.36L178.62,106.31L178.43,106.26L178.32,106.21L178.30,106.15L178.37,106.10L178.53,106.06L178.77,106.02L179.06,106.00L179.39,105.99L179.74,105.99L180.09,106.01L180.40,106.04L180.67,106.08L180.86,106.13L180.98,106.19L181.00,106.24L180.93,106.29L180.77,106.34L180.54,106.38L180.24,106.40L179.90,106.41L179.55,106.41L179.20,106.39L179.03,106.37"/><path d="M179.36,109.96L179.32,109.95L179.23,109.93L179.11,109.87L179.04,109.80L179.23,109.93L179.27,109.93"/><path d="M179.42,109.70L179.39,109.70"/><path d="M179.38,109.69L179.40,109.69"/><path d="M179.38,109.69L179.39,109.69"/><path d="M179.43,109.70L179.39,109.70L179.37,109.69"/><path d="M179.17,109.88L179.17,109.88L179.26,109.93L179.37,109.96L179.17,109.88"/><path d="M179.37,109.96L179.59,109.96L179.81,109.87L179.59,109.96L179.47,109.97L179.37,109.96"/><path d="M179.81,109.87L180.02,109.70L180.09,109.62"/><path d="M179.35,109.69L179.50,109.71"/><path d="M179.45,109.70L179.74,109.70L179.82,109.70L179.94,109.67L180.25,109.56L180.57,109.32L180.79,109.05L180.93,108.73L180.98,108.38L180.99,108.15"/><path d="M179.03,109.41L179.15,109.55"/><path d="M179.19,109.59L179.25,109.63"/><path d="M181.16,107.74L181.20,107.80"/></g></g><g id="Actor_80.0"><g style="stroke:#000000;stroke-width:0.123"><path d="M178.17,101.22L178.23,101.28L178.38,101.33L178.62,101.38L178.94,101.42L179.30,101.45L179.70,101.47L180.17,101.47L180.47,101.46L180.80,101.43L181.07,101.40L181.25,101.35L181.34,101.30L181.32,102.08L181.23,102.14L181.05,102.18L180.79,102.22L180.45,102.25L180.08,102.26L179.68,102.25L179.29,102.24L178.92,102.21L178.61,102.16L178.37,102.11L178.21,102.06L178.15,102.00L178.17,101.22L178.21,101.17L178.35,101.12L178.57,101.08L178.87,101.04L179.22,101.03L179.61,101.02L180.00,101.03L180.38,101.06L180.09,101.03L180.11,101.02L180.56,101.07"/><path d="M178.18,101.80L178.17,101.80L178.18,101.81L178.19,101.48L178.18,101.47L178.17,101.80"/><path d="M178.50,101.91L178.54,101.92L178.54,101.60L178.50,101.59L178.50,101.91L178.54,101.91"/><path d="M178.21,101.82L178.22,101.83L178.23,101.51L178.21,101.50L178.21,101.82L178.22,101.83"/><path d="M178.28,101.75L178.28,101.86L178.25,101.85L178.26,101.52L178.28,101.53L178.28,101.75"/><path d="M178.78,101.95L178.73,101.95L178.74,101.63L178.78,101.63L178.78,101.96L178.73,101.95"/><path d="M178.77,101.63L178.76,101.95"/><path d="M179.01,101.68L179.01,101.98L179.06,101.99L179.07,101.66L179.01,101.66L179.01,101.68"/><path d="M179.01,101.98L179.03,101.98L179.04,101.66"/><path d="M178.65,101.61L178.65,101.62"/><path d="M178.86,101.97L178.87,101.64L178.92,101.65L178.91,101.98L178.86,101.97L178.91,101.97"/><path d="M178.61,101.93L178.61,101.61L178.66,101.61L178.65,101.94L178.61,101.93L178.65,101.94"/><path d="M178.64,101.93L178.65,101.61"/><path d="M178.40,101.89L178.43,101.90L178.44,101.58L178.41,101.57L178.40,101.89L178.43,101.89"/><path d="M178.32,101.87L178.33,101.54L178.35,101.55L178.35,101.88L178.32,101.87L178.35,101.87"/><path d="M178.16,101.45L178.16,101.79L178.16,101.45"/><path d="M178.16,101.78L178.16,101.78"/><path d="M180.56,101.08L180.23,101.05L179.86,101.03L179.48,101.03L179.13,101.04L178.81,101.06L178.54,101.09L178.34,101.13L178.23,101.18L178.20,101.23L178.27,101.28L178.42,101.33L178.65,101.38L178.94,101.42L179.29,101.44L179.66,101.46L180.03,101.47L180.39,101.46L180.71,101.44L180.98,101.41L181.18,101.36L181.29,101.32L181.31,101.26L181.24,101.21L181.08,101.16L180.85,101.11L180.84,101.42"/><path d="M178.92,101.83L178.90,101.83"/><path d="M178.53,101.87L178.54,101.86"/><path d="M178.76,101.84L178.78,101.84"/><path d="M178.77,101.29L178.77,101.39"/><path d="M178.73,101.39L178.73,101.29L178.78,101.28L178.78,101.39"/><path d="M178.91,101.41L178.91,101.27L178.86,101.28L178.86,101.40"/><path d="M178.89,101.97L178.90,101.65"/><path d="M178.53,101.91L178.54,101.59"/><path d="M178.25,101.85L178.28,101.85"/><path d="M178.54,101.64L178.54,101.60"/><path d="M178.54,101.64L178.54,101.64"/><path d="M178.65,101.62L178.65,101.62"/><path d="M178.90,101.27L178.90,101.41"/><path d="M178.65,101.85L178.64,101.85"/><path d="M178.99,101.42L179.00,101.27L179.05,101.27L179.05,101.42"/><path d="M178.53,101.31L178.53,101.35"/><path d="M178.51,101.35L178.51,101.32L178.55,101.31L178.55,101.36"/><path d="M178.65,101.38L178.66,101.30L178.61,101.30L178.61,101.37"/><path d="M178.64,101.38L178.64,101.30"/><path d="M178.45,101.34L178.45,101.33L178.43,101.33"/><path d="M178.43,101.33L178.43,101.33"/><path d="M179.50,101.69L179.50,102.01L179.54,102.01"/><path d="M179.16,102.00L179.22,102.00L179.22,101.67L179.16,101.67L179.16,102.00L179.22,102.00"/><path d="M179.18,101.99L179.19,101.67"/><path d="M179.65,101.97L179.64,102.02L179.71,102.02L179.71,101.70L179.65,101.70L179.65,101.97"/><path d="M179.14,101.43L179.14,101.26L179.20,101.26L179.19,101.44"/><path d="M179.14,101.43L179.14,101.26"/><path d="M179.05,101.27L179.04,101.42"/><path d="M179.29,101.44L179.30,101.26"/><path d="M179.61,101.46L179.61,101.25L179.67,101.25L179.67,101.46"/><path d="M179.78,101.46L179.79,101.26"/><path d="M179.77,101.46L179.77,101.26L179.83,101.26L179.83,101.46"/><path d="M179.45,101.45L179.45,101.25L179.46,101.25L179.45,101.45"/><path d="M179.98,102.03L179.98,101.70L180.05,101.70L180.04,102.03L179.98,102.03L179.99,102.02L179.99,101.70"/><path d="M180.04,102.02L179.99,102.02"/><path d="M179.81,102.03L179.82,101.70L179.88,101.70L179.87,102.03L179.81,102.03L179.82,102.02L179.83,101.70"/><path d="M179.34,101.68L179.38,101.68L179.38,102.01L179.32,102.01L179.32,101.68L179.34,101.68"/><path d="M179.32,102.01L179.38,102.01"/><path d="M179.34,102.00L179.34,101.68"/><path d="M179.88,101.81L179.83,101.81"/><path d="M179.99,101.82L180.04,101.82"/><path d="M179.66,101.81L179.71,101.81"/><path d="M179.22,101.81L179.19,101.81"/><path d="M179.07,101.82L179.04,101.82"/><path d="M179.29,101.44L179.29,101.26L179.35,101.26L179.35,101.45"/><path d="M179.82,102.02L179.87,102.02"/><path d="M179.64,102.02L179.66,102.02L179.67,101.70"/><path d="M179.66,102.02L179.71,102.02"/><path d="M179.48,102.02L179.54,102.02L179.55,101.69L179.49,101.69L179.48,102.02L179.50,102.01"/><path d="M179.54,101.81L179.50,101.81"/><path d="M179.38,101.81L179.34,101.81"/><path d="M179.51,101.45L179.51,101.25L179.46,101.25"/><path d="M179.62,101.25L179.62,101.46"/><path d="M179.06,101.98L179.03,101.98"/><path d="M181.01,101.96L180.97,101.97L180.98,101.64L181.02,101.64L181.01,101.96L180.99,101.96L181.00,101.64"/><path d="M181.09,101.62L181.08,101.94L181.07,101.94"/><path d="M181.08,101.94L181.10,101.94L181.07,101.95L181.08,101.62L181.11,101.62L181.10,101.94"/><path d="M180.91,101.86L180.91,101.65L180.87,101.66L180.86,101.98L180.90,101.98L180.91,101.86"/><path d="M180.90,101.98L180.89,101.97L180.90,101.65"/><path d="M180.89,101.97L180.86,101.98"/><path d="M180.47,102.02L180.45,102.02L180.46,101.69L180.52,101.69L180.51,102.01L180.47,102.02"/><path d="M180.51,102.01L180.51,101.69"/><path d="M180.65,101.68L180.64,102.00L180.65,102.00L180.60,102.01L180.61,101.68L180.66,101.68L180.65,102.00"/><path d="M180.60,102.00L180.64,102.00"/><path d="M180.14,102.03L180.20,102.03L180.21,101.70L180.15,101.70L180.14,102.03L180.15,101.70"/><path d="M180.46,101.85L180.51,101.85"/><path d="M180.31,101.84L180.36,101.84"/><path d="M180.15,101.82L180.21,101.83"/><path d="M180.97,101.92L180.99,101.93"/><path d="M180.46,101.85L180.51,101.86"/><path d="M180.83,101.42L180.84,101.13L180.86,101.04L180.92,100.99L180.63,100.95L180.58,101.00L180.55,101.10L180.54,101.45"/><path d="M180.60,101.95L180.64,101.96"/><path d="M180.46,101.91L180.51,101.92"/><path d="M180.36,101.90L180.30,101.89"/><path d="M180.74,101.98L180.77,101.98"/><path d="M180.89,101.93L180.86,101.93"/><path d="M180.96,101.41L180.96,101.36L180.92,101.35L180.92,101.41"/><path d="M180.99,101.96L180.97,101.96"/><path d="M180.15,102.02L180.20,102.02"/><path d="M180.31,101.70L180.30,102.02L180.36,102.02L180.37,101.69L180.31,101.70L180.30,102.02"/><path d="M180.78,101.99L180.73,102.00L180.74,101.67L180.79,101.66L180.78,101.99L180.77,101.99L180.78,101.67"/><path d="M180.77,101.99L180.73,101.99"/><path d="M180.86,101.90L180.89,101.91"/><path d="M180.95,101.41L180.95,101.36"/><path d="M180.51,102.01L180.45,102.01"/><path d="M180.30,102.02L180.36,102.02"/><path d="M180.09,101.03L180.09,101.04"/><path d="M181.34,101.30L181.33,101.24L181.22,101.19L181.01,101.14L180.86,101.11"/><path d="M180.85,101.11L180.86,101.11L180.88,101.08L180.90,101.06L180.93,101.06L181.08,101.07L181.08,101.15"/><path d="M180.57,101.01L180.28,100.97L180.27,100.98L180.28,100.99L180.31,101.04"/><path d="M180.27,100.98L180.28,100.92L180.28,100.91L180.63,100.96"/><path d="M181.27,101.21L181.29,101.21L181.17,101.05L181.13,101.02L180.96,101.00L180.96,101.06"/><path d="M180.92,100.99L180.96,101.00"/><path d="M181.18,101.93L181.15,101.93L181.16,101.61L181.19,101.60L181.18,101.93L181.16,101.92L181.17,101.60"/><path d="M181.25,101.74L181.25,101.58L181.23,101.59L181.22,101.91L181.24,101.90L181.25,101.74"/><path d="M181.24,101.90L181.22,101.90"/><path d="M181.28,101.75L181.28,101.56L181.30,101.56L181.29,101.88L181.28,101.89L181.28,101.75"/><path d="M181.29,101.88L181.28,101.88"/><path d="M181.33,101.77L181.39,101.79L181.42,101.77"/><path d="M181.33,101.67L181.49,101.69L181.63,101.80L181.39,101.77L181.33,101.71"/><path d="M181.63,101.80L181.77,101.65L181.77,101.56L181.49,101.60L181.34,101.58L181.61,101.54L181.77,101.56"/><path d="M181.34,101.58L181.34,101.51L181.49,101.53L181.50,101.44L181.64,101.29L181.40,101.25L181.34,101.33"/><path d="M181.61,101.54L181.61,101.51"/><path d="M181.50,101.44L181.33,101.41"/><path d="M181.49,101.69L181.49,101.60"/><path d="M181.15,101.92L181.16,101.92"/><path d="M181.39,101.79L181.33,101.78"/><path d="M181.64,101.29L181.77,101.39L181.77,101.49L181.49,101.53"/><path d="M181.33,101.28L181.40,101.23L181.49,101.26L181.50,101.27"/><path d="M181.13,101.17L181.13,101.02"/><path d="M181.40,101.23L181.29,101.21"/></g></g><g id="Actor_.12"><g style="stroke:#000000;stroke-width:0.123"><path d="M169.59,58.03L169.54,58.11L169.44,58.15L169.33,58.10L169.27,57.98L169.27,57.84L169.34,57.72L169.44,57.67L169.55,57.72L169.59,57.80"/><path d="M169.58,57.77L169.54,57.84L169.54,57.98L169.57,58.05"/><path d="M169.61,57.91L169.61,57.91"/></g></g><g id="Actor_141.1"><g style="stroke:#000000;stroke-width:0.123"><path d="M158.97,168.72L158.82,181.02L158.83,181.05L158.87,181.08L160.05,181.51L160.23,181.53L161.39,181.05L161.57,167.75"/></g></g><g id="Actor_156.0"><g style="stroke:#000000;stroke-width:0.123"><path d="M143.38,200.70L144.69,200.22L144.78,200.21L132.13,194.45L132.04,194.45L130.77,194.98L130.68,195.05L130.62,195.23L130.63,196.87L130.66,196.98L130.70,197.01L140.43,201.54"/><path d="M144.80,200.21L144.80,200.22"/></g></g><g id="Actor_83.0"><g style="stroke:#000000;stroke-width:0.123"><path d="M147.14,91.63L146.58,91.39L145.72,91.23L131.73,89.60L131.73,89.46L145.72,91.07L146.88,91.32L147.17,91.50L147.14,91.60L181.85,88.11"/><path d="M131.73,89.46L133.19,89.33L133.09,89.17L133.09,87.61L132.98,87.60L162.19,84.89"/><path d="M132.98,87.60L133.02,89.33"/><path d="M133.09,87.61L163.23,84.81"/><path d="M147.14,91.60L147.14,91.75L151.35,91.36L181.79,88.26"/><path d="M183.36,87.95L194.66,86.80L194.55,86.95L183.34,88.10"/><path d="M194.66,86.80L183.63,85.83"/></g></g><g id="Actor_116.0"><g style="stroke:#000000;stroke-width:0.123"><path d="M96.63,74.40L96.58,71.88L96.33,71.87L96.50,72.06L81.26,71.02L81.10,70.84L80.44,45.17L113.11,44.20"/><path d="M96.59,74.40L96.93,93.10L97.02,93.30L110.47,95.26L110.83,95.23"/><path d="M96.58,71.96L96.41,71.87"/><path d="M96.50,72.06L96.59,72.06"/><path d="M110.84,95.16L110.31,95.08L110.47,95.26"/><path d="M110.40,95.09L110.70,95.14"/><path d="M112.30,96.11L114.80,44.14L114.87,44.14L114.87,44.35L112.38,96.10L112.30,96.11L110.85,95.89L110.83,95.17L113.12,43.98L113.83,44.05L113.14,43.98"/><path d="M114.80,44.14L113.14,43.98"/><path d="M114.87,44.14L113.86,44.05"/><path d="M113.24,43.99L113.23,43.99"/></g></g><g id="Actor_151.0"><g style="stroke:#000000;stroke-width:0.123"><path d="M157.31,166.57L148.74,163.78"/><path d="M148.15,161.44L148.73,161.25L148.79,161.25L161.07,165.17L161.10,165.20"/><path d="M161.07,165.17L160.87,165.22L159.96,165.55L159.90,165.59L159.87,165.65"/></g></g><g id="Actor_151.1"><g style="stroke:#000000;stroke-width:0.123"><path d="M144.21,171.32L144.24,171.25L144.31,171.21L145.47,170.78L145.54,170.78L133.22,166.46L133.15,166.46L131.98,166.85L131.92,166.90L131.87,166.98L131.85,167.08L131.85,168.61L131.87,168.70L131.92,168.75L141.65,172.24"/><path d="M145.54,170.78L145.58,170.82"/></g></g><g id="Actor_146.0"><g style="stroke:#000000;stroke-width:0.123"><path d="M117.81,154.15L117.95,171.48L117.89,171.55L116.61,171.97L116.43,171.99L115.20,171.52L115.02,153.33L116.17,153.72L116.35,153.74L116.49,153.71"/><path d="M115.02,153.33L115.03,153.30L115.15,153.26"/><path d="M116.43,153.69L116.24,153.70L115.12,153.32L115.21,153.28"/></g></g><g id="Actor_84.0"><g style="stroke:#000000;stroke-width:0.123"><path d="M178.97,94.27L179.14,94.31L179.44,94.34L179.79,94.36L180.09,94.36L180.37,94.35L180.67,94.33L180.88,94.30L180.95,94.28L180.97,94.26L181.03,91.62L181.02,91.61L180.99,91.59L180.91,91.56L180.68,91.53L180.37,91.50L179.93,91.49L179.57,91.49L179.26,91.50L179.11,91.52L179.00,91.54L178.93,91.56L178.91,91.58L178.85,94.21L178.85,94.22L178.87,94.24L178.97,94.27"/><path d="M180.90,91.62L180.89,91.63L180.84,91.66L180.74,91.67L180.60,91.69L180.31,91.70L179.97,91.71L179.63,91.69L179.34,91.67L179.13,91.63L179.06,91.61L179.04,91.59"/></g></g><g id="Actor_.13"><g style="stroke:#000000;stroke-width:0.123"><path d="M146.73,51.31L146.63,68.35L146.73,51.31L148.47,51.33L148.48,50.53L147.14,50.54L147.98,50.53"/><path d="M146.95,68.50L146.57,68.48L162.46,69.30L146.95,68.50"/><path d="M146.57,68.48L147.71,68.45L147.80,68.32L146.63,68.35"/><path d="M147.09,50.54L147.34,7.45L186.81,2.14L185.92,36.91L184.38,76.40L183.99,81.99L183.24,88.49L182.47,88.42L182.48,88.19L181.43,88.45L182.48,88.36"/><path d="M150.73,47.61L151.02,47.49L151.16,47.13L151.09,46.75L150.85,46.55L150.54,46.66L150.40,47.03L150.48,47.42L150.73,47.61"/><path d="M150.84,46.55L150.59,46.66L150.45,47.03L150.53,47.42L150.77,47.61"/><path d="M150.62,43.16L150.44,42.85L150.47,42.43L150.86,42.14L151.09,42.30L151.20,42.73L150.92,43.20L150.62,43.16"/><path d="M150.88,42.15L150.63,42.27L150.48,42.64L150.56,43.03L150.80,43.22"/><path d="M162.23,86.33L162.43,71.36"/><path d="M162.19,84.90L162.37,71.36"/><path d="M162.47,71.36L163.41,71.31L162.47,71.36"/><path d="M162.46,69.22L163.44,69.18L163.53,69.03L163.51,71.31L163.60,71.31"/><path d="M162.46,69.30L163.53,69.20"/><path d="M163.21,46.55L163.22,47.22L163.65,47.39L163.91,47.12L163.89,46.55L163.60,46.30L163.21,46.55"/><path d="M163.53,47.41L163.27,47.22L163.19,46.81L163.34,46.43L163.61,46.31"/><path d="M163.21,42.47L163.35,41.87L163.81,41.80L164.02,42.35L163.86,42.73L163.55,42.86L163.21,42.47"/><path d="M163.68,41.75L163.41,41.87L163.25,42.26L163.33,42.66L163.59,42.86"/><path d="M163.67,68.66L163.91,69.13L164.30,68.93L164.32,68.54L164.10,68.28L163.82,68.33L163.67,68.66"/><path d="M164.07,69.14L163.83,69.02L163.73,68.66L164.00,68.27"/><path d="M169.58,58.07L169.25,58.19L169.14,57.93L169.25,57.64L169.58,57.75L169.58,58.07"/><path d="M169.40,58.22L169.19,57.93L169.40,57.61"/><path d="M170.71,39.81L170.41,39.65L170.30,39.31L170.42,38.84L170.73,38.66L171.04,38.81L171.16,39.21L171.02,39.63L170.71,39.81"/><path d="M170.73,39.80L170.46,39.65L170.35,39.31L170.48,38.84L170.77,38.66"/><path d="M170.81,10.39L171.21,10.71L171.52,10.50L171.66,10.06L171.54,9.66L171.06,9.59L170.81,9.94L170.81,10.39"/><path d="M171.09,10.69L170.86,10.40L170.87,9.95L171.11,9.60L171.40,9.55"/><path d="M173.20,50.69L173.74,50.84L173.29,50.73L172.95,50.24L172.99,49.27L173.37,48.81L173.82,48.72L173.32,48.81L172.94,49.27L172.83,49.92L173.20,50.69"/><path d="M173.74,50.84L174.20,50.56L174.47,49.66L174.26,49.03L173.82,48.72"/><path d="M174.37,58.26L174.12,58.26L174.00,57.98L174.24,57.66L174.48,57.93L174.37,58.26"/><path d="M174.27,58.29L174.05,57.98L174.27,57.67"/><path d="M175.89,48.60L176.29,48.95L176.61,48.78L176.75,48.37L176.63,47.96L176.14,47.84L175.92,48.10L175.89,48.60"/><path d="M176.31,48.94L176.03,48.79L175.92,48.31L176.05,47.97L176.35,47.80"/><path d="M175.89,46.78L176.01,47.19L176.32,47.36L176.64,47.18L176.75,46.55L176.35,46.20L176.03,46.37L175.89,46.78"/><path d="M176.38,46.20L176.08,46.37L175.94,46.79L176.07,47.19L176.34,47.35"/><path d="M181.42,88.54L180.21,88.42"/><path d="M181.43,88.45L180.64,88.38"/><path d="M180.94,48.62L181.32,48.90L181.64,48.72L181.76,48.08L181.52,47.76L181.01,47.90L180.87,48.31L180.94,48.62"/><path d="M181.34,48.89L181.10,48.77L180.92,48.32L181.07,47.90L181.37,47.73"/><path d="M181.03,47.11L181.53,47.23L181.78,46.91L181.81,46.55L181.55,46.15L181.20,46.15L180.95,46.48L181.03,47.11"/><path d="M181.37,47.27L181.10,47.13L180.96,46.70L181.10,46.29L181.41,46.11"/><path d="M183.24,88.49L183.75,84.83L184.27,79.20L185.01,63.42L185.97,36.91L186.81,2.14"/></g></g><g id="Actor_115.0"><g style="stroke:#000000;stroke-width:0.123"><path d="M117.39,71.74L117.34,67.54L117.41,67.54L117.44,71.63L117.51,71.75L114.70,71.86L114.70,71.97L128.78,72.86L128.78,72.75L114.70,71.86"/><path d="M117.44,71.74L117.44,71.75"/><path d="M117.41,67.54L119.87,67.47L119.89,71.53L119.97,71.64"/><path d="M117.34,67.54L119.87,67.47"/><path d="M122.18,71.55L119.96,71.64"/><path d="M122.13,71.54L122.09,67.39L146.59,66.66"/><path d="M122.11,67.40L122.18,71.44L122.25,71.55L122.18,71.54"/><path d="M146.59,66.67L122.16,67.40"/><path d="M128.78,72.75L130.01,72.69L131.13,72.76L131.13,72.88L145.58,72.19L145.58,72.08L131.13,72.76"/><path d="M128.78,72.86L130.01,72.81L130.01,72.69"/><path d="M130.01,72.81L131.13,72.88"/><path d="M163.50,71.24L161.44,71.13L159.88,71.20L161.96,71.31L147.28,72.00L145.20,71.88L143.49,71.96L145.58,72.08"/><path d="M144.53,72.02L145.20,71.99L147.28,72.11L147.28,72.00"/><path d="M145.20,71.88L145.20,71.99"/><path d="M147.28,72.11L161.96,71.41L161.96,71.31"/><path d="M156.35,70.11L156.28,70.01L156.29,69.01"/><path d="M156.34,70.10L158.10,70.03"/><path d="M158.11,69.10L158.10,69.93L158.17,70.03L158.10,70.02"/><path d="M158.04,69.09L158.05,70.03"/><path d="M159.37,69.16L159.36,69.88L159.43,69.97"/><path d="M163.52,70.07L160.45,69.93L159.42,69.97"/><path d="M161.42,71.13L161.41,71.23L163.11,71.32"/><path d="M161.41,71.23L160.92,71.26"/><path d="M163.49,71.24L163.49,71.31"/></g></g><g><g><path style="stroke:#000000;stroke-width:0.210;stroke-dasharray:2.1 2.1" d="M179.61,108.08L180.02,89.10"/></g></g><g><g/></g><g><g><path style="stroke:#000000;stroke-width:0.210;stroke-dasharray:2.1 2.1" d="M150.56,170.12L151.37,69.22"/></g></g><g><g><path style="stroke:#000000;stroke-width:0.210;stroke-dasharray:2.1 2.1" d="M132.85,68.16L97.57,69.45"/></g></g><g id="PMI80.0"><g><path style="stroke:#000000;stroke-width:0.280" d="M168.32,102.65L175.87,102.42"/></g><g><path style="fill:#000000" d="M175.89,103.42L175.83,101.42L177.86,102.36z"/></g><g><path style="fill:#ffffff" d="M147.79,105.79L168.31,105.79L168.31,100.15L147.79,100.15z"/><path style="stroke:#000000;stroke-width:0.280;stroke-opacity:0.98" d="M147.79,105.79L168.31,105.79L168.31,100.15L147.79,100.15z"/><text xml:space="preserve" fill="#000000" stroke-width="0" x="148.50" y="104.21" font-size="3.10" opacity="1.00" font-family="Microsoft Sans Serif">8088000033</text></g></g><g id="PMI133.0"><g><path style="stroke:#000000;stroke-width:0.280" d="M161.26,129.60L160.98,142.95"/></g><g><path style="fill:#000000" d="M159.97,142.91L161.97,142.96L160.93,144.93z"/></g><g><path style="fill:#ffffff" d="M152.03,129.60L170.60,129.60L170.60,123.95L152.03,123.95z"/><path style="stroke:#000000;stroke-width:0.280;stroke-opacity:0.98" d="M152.03,129.60L170.60,129.60L170.60,123.95L152.03,123.95z"/><text xml:space="preserve" fill="#000000" stroke-width="0" x="152.73" y="128.01" font-size="3.10" opacity="1.00" font-family="Microsoft Sans Serif">700000571</text></g></g><g id="PMI159.0"><g><path style="stroke:#000000;stroke-width:0.280" d="M188.27,174.36L172.19,174.31"/></g><g><path style="fill:#000000" d="M172.19,173.30L172.18,175.30L170.19,174.29z"/></g><g><path style="fill:#ffffff" d="M188.26,177.20L207.79,177.20L207.79,171.56L188.26,171.56z"/><path style="stroke:#000000;stroke-width:0.280;stroke-opacity:0.98" d="M188.26,177.20L207.79,177.20L207.79,171.56L188.26,171.56z"/><text xml:space="preserve" fill="#000000" stroke-width="0" x="188.96" y="175.61" font-size="3.43" opacity="1.00" font-family="Microsoft Sans Serif">7000005M1</text></g></g><g id="PMI146.0"><g><path style="stroke:#000000;stroke-width:0.280" d="M106.10,155.42L112.11,155.30"/></g><g><path style="fill:#000000" d="M112.14,156.29L112.10,154.29L114.12,155.25z"/></g><g><path style="fill:#ffffff" d="M86.97,158.42L106.11,158.42L106.11,152.78L86.97,152.78z"/><path style="stroke:#000000;stroke-width:0.280;stroke-opacity:0.98" d="M86.97,158.42L106.11,158.42L106.11,152.78L86.97,152.78z"/><text xml:space="preserve" fill="#000000" stroke-width="0" x="87.67" y="156.84" font-size="3.43" opacity="1.00" font-family="Microsoft Sans Serif">7000005D1</text></g></g><g id="PMI153.0"><g><path style="stroke:#000000;stroke-width:0.280" d="M151.48,138.86L151.66,158.56"/></g><g><path style="fill:#000000" d="M150.66,158.55L152.66,158.53L151.67,160.54z"/></g><g><path style="fill:#ffffff" d="M141.98,138.85L160.93,138.85L160.93,133.21L141.98,133.21z"/><path style="stroke:#000000;stroke-width:0.280;stroke-opacity:0.98" d="M141.98,138.85L160.93,138.85L160.93,133.21L141.98,133.21z"/><text xml:space="preserve" fill="#000000" stroke-width="0" x="142.68" y="137.27" font-size="3.43" opacity="1.00" font-family="Microsoft Sans Serif">7000005E1</text></g></g><g id="PMI143.0"><g><path style="stroke:#000000;stroke-width:0.280" d="M188.79,164.98L176.76,164.78"/></g><g><path style="fill:#000000" d="M176.77,163.77L176.74,165.77L174.76,164.73z"/></g><g><path style="fill:#ffffff" d="M188.79,167.94L207.36,167.94L207.36,162.30L188.79,162.30z"/><path style="stroke:#000000;stroke-width:0.280;stroke-opacity:0.98" d="M188.79,167.94L207.36,167.94L207.36,162.30L188.79,162.30z"/><text xml:space="preserve" fill="#000000" stroke-width="0" x="189.49" y="166.36" font-size="3.10" opacity="1.00" font-family="Microsoft Sans Serif">700000591</text></g></g><g id="PMI154.0"><g><path style="stroke:#000000;stroke-width:0.280" d="M190.38,192.67L177.22,192.34"/></g><g><path style="fill:#000000" d="M177.24,191.32L177.19,193.32L175.21,192.27z"/></g><g><path style="fill:#ffffff" d="M190.37,195.71L209.71,195.71L209.71,190.07L190.37,190.07z"/><path style="stroke:#000000;stroke-width:0.280;stroke-opacity:0.98" d="M190.37,195.71L209.71,195.71L209.71,190.07L190.37,190.07z"/><text xml:space="preserve" fill="#000000" stroke-width="0" x="191.08" y="194.13" font-size="3.43" opacity="1.00" font-family="Microsoft Sans Serif">7000005G1</text></g></g><g id="PMI127.0"><g><path style="stroke:#000000;stroke-width:0.280" d="M211.83,169.14L171.86,169.22"/></g><g><path style="fill:#000000" d="M171.85,168.19L171.86,170.19L169.85,169.19z"/></g><g><path style="fill:#ffffff" d="M211.80,171.91L230.38,171.91L230.38,166.27L211.80,166.27z"/><path style="stroke:#000000;stroke-width:0.280;stroke-opacity:0.98" d="M211.80,171.91L230.38,171.91L230.38,166.27L211.80,166.27z"/><text xml:space="preserve" fill="#000000" stroke-width="0" x="212.50" y="170.32" font-size="3.10" opacity="1.00" font-family="Microsoft Sans Serif">020146741</text></g></g><g id="PMI150.0"><g><path style="stroke:#000000;stroke-width:0.280" d="M177.59,147.33L177.37,160.14"/></g><g><path style="fill:#000000" d="M176.36,160.11L178.36,160.14L177.33,162.13z"/></g><g><path style="fill:#ffffff" d="M168.16,147.32L187.11,147.32L187.11,141.67L168.16,141.67z"/><path style="stroke:#000000;stroke-width:0.280;stroke-opacity:0.98" d="M168.16,147.32L187.11,147.32L187.11,141.67L168.16,141.67z"/><text xml:space="preserve" fill="#000000" stroke-width="0" x="168.86" y="145.73" font-size="3.43" opacity="1.00" font-family="Microsoft Sans Serif">7000005A1</text></g></g><g id="PMI144.0"><g><path style="stroke:#000000;stroke-width:0.280" d="M200.17,152.28L190.18,152.12"/></g><g><path style="fill:#000000" d="M190.19,151.11L190.15,153.11L188.17,152.08z"/></g><g><path style="fill:#ffffff" d="M200.16,155.25L218.92,155.25L218.92,149.61L200.16,149.61z"/><path style="stroke:#000000;stroke-width:0.280;stroke-opacity:0.98" d="M200.16,155.25L218.92,155.25L218.92,149.61L200.16,149.61z"/><text xml:space="preserve" fill="#000000" stroke-width="0" x="200.87" y="153.66" font-size="3.43" opacity="1.00" font-family="Microsoft Sans Serif">7000005F1</text></g></g><g id="PMI147.0"><g><path style="stroke:#000000;stroke-width:0.280" d="M201.75,184.12L195.80,184.08"/></g><g><path style="fill:#000000" d="M195.80,183.07L195.79,185.07L193.80,184.06z"/></g><g><path style="fill:#ffffff" d="M201.75,186.99L220.32,186.99L220.32,181.34L201.75,181.34z"/><path style="stroke:#000000;stroke-width:0.280;stroke-opacity:0.98" d="M201.75,186.99L220.32,186.99L220.32,181.34L201.75,181.34z"/><text xml:space="preserve" fill="#000000" stroke-width="0" x="202.45" y="185.40" font-size="3.10" opacity="1.00" font-family="Microsoft Sans Serif">700000551</text></g></g><g id="PMI78.0"><g><path style="stroke:#000000;stroke-width:0.280" d="M188.53,108.52L183.03,108.65"/></g><g><path style="fill:#000000" d="M183.00,107.65L183.05,109.65L181.03,108.70z"/></g><g><path style="fill:#ffffff" d="M188.52,111.08L209.04,111.08L209.04,105.44L188.52,105.44z"/><path style="stroke:#000000;stroke-width:0.280;stroke-opacity:0.98" d="M188.52,111.08L209.04,111.08L209.04,105.44L188.52,105.44z"/><text xml:space="preserve" fill="#000000" stroke-width="0" x="189.23" y="109.50" font-size="3.10" opacity="1.00" font-family="Microsoft Sans Serif">8389001007</text></g></g><g id="PMI84.0"><g><path style="stroke:#000000;stroke-width:0.280" d="M189.32,91.77L182.70,91.70"/></g><g><path style="fill:#000000" d="M182.71,90.70L182.69,92.70L180.70,91.68z"/></g><g><path style="fill:#ffffff" d="M189.32,94.69L208.65,94.69L208.65,89.04L189.32,89.04z"/><path style="stroke:#000000;stroke-width:0.280;stroke-opacity:0.98" d="M189.32,94.69L208.65,94.69L208.65,89.04L189.32,89.04z"/><text xml:space="preserve" fill="#000000" stroke-width="0" x="190.02" y="93.10" font-size="3.43" opacity="1.00" font-family="Microsoft Sans Serif">7000005O1</text></g></g><g id="PMI151.0"><g><path style="stroke:#000000;stroke-width:0.280" d="M134.40,148.65L134.71,167.29"/></g><g><path style="fill:#000000" d="M133.71,167.28L135.71,167.25L134.75,169.27z"/></g><g><path style="fill:#ffffff" d="M124.79,148.64L143.93,148.64L143.93,142.99L124.79,142.99z"/><path style="stroke:#000000;stroke-width:0.280;stroke-opacity:0.98" d="M124.79,148.64L143.93,148.64L143.93,142.99L124.79,142.99z"/><text xml:space="preserve" fill="#000000" stroke-width="0" x="125.49" y="147.05" font-size="3.43" opacity="1.00" font-family="Microsoft Sans Serif">7000005C1</text></g></g><g id="PMI122.0"><g><path style="stroke:#000000;stroke-width:0.280" d="M167.93,198.03L167.93,189.81"/></g><g><path style="fill:#000000" d="M168.93,189.79L166.93,189.79L167.93,187.79z"/></g><g><path style="fill:#ffffff" d="M158.64,203.65L177.22,203.65L177.22,198.00L158.64,198.00z"/><path style="stroke:#000000;stroke-width:0.280;stroke-opacity:0.98" d="M158.64,203.65L177.22,203.65L177.22,198.00L158.64,198.00z"/><text xml:space="preserve" fill="#000000" stroke-width="0" x="159.34" y="202.06" font-size="3.10" opacity="1.00" font-family="Microsoft Sans Serif">020110701</text></g></g><g id="PMI158.0"><g><path style="stroke:#000000;stroke-width:0.280" d="M152.89,175.27L153.26,172.58"/></g><g><path style="fill:#000000" d="M154.25,172.70L152.27,172.44L153.52,170.59z"/></g><g><path style="fill:#ffffff" d="M143.03,180.90L161.99,180.90L161.99,175.26L143.03,175.26z"/><path style="stroke:#000000;stroke-width:0.280;stroke-opacity:0.98" d="M143.03,180.90L161.99,180.90L161.99,175.26L143.03,175.26z"/><text xml:space="preserve" fill="#000000" stroke-width="0" x="143.74" y="179.32" font-size="3.43" opacity="1.00" font-family="Microsoft Sans Serif">7000005K1</text></g></g><g id="PMI157.0"><g><path style="stroke:#000000;stroke-width:0.280" d="M223.47,187.91L176.75,187.88"/></g><g><path style="fill:#000000" d="M176.74,186.83L176.74,188.83L174.74,187.83z"/></g><g><path style="fill:#ffffff" d="M223.43,190.69L241.81,190.69L241.81,185.05L223.43,185.05z"/><path style="stroke:#000000;stroke-width:0.280;stroke-opacity:0.98" d="M223.43,190.69L241.81,190.69L241.81,185.05L223.43,185.05z"/><text xml:space="preserve" fill="#000000" stroke-width="0" x="224.14" y="189.10" font-size="3.43" opacity="1.00" font-family="Microsoft Sans Serif">7000005J1</text></g></g><g id="PMI141.0"><g><path style="stroke:#000000;stroke-width:0.280" d="M123.77,185.61L142.53,184.73"/></g><g><path style="fill:#000000" d="M142.58,185.70L142.49,183.70L144.53,184.61z"/></g><g><path style="fill:#ffffff" d="M105.21,188.84L123.78,188.84L123.78,183.19L105.21,183.19z"/><path style="stroke:#000000;stroke-width:0.280;stroke-opacity:0.98" d="M105.21,188.84L123.78,188.84L123.78,183.19L105.21,183.19z"/><text xml:space="preserve" fill="#000000" stroke-width="0" x="105.92" y="187.25" font-size="3.43" opacity="1.00" font-family="Microsoft Sans Serif">7000005L1</text></g></g><g id="PMI160.0"><g><path style="stroke:#000000;stroke-width:0.280" d="M106.89,173.39L115.68,173.44"/></g><g><path style="fill:#000000" d="M115.69,174.42L115.70,172.42L117.69,173.43z"/></g><g><path style="fill:#ffffff" d="M87.76,176.14L106.90,176.14L106.90,170.50L87.76,170.50z"/><path style="stroke:#000000;stroke-width:0.280;stroke-opacity:0.98" d="M87.76,176.14L106.90,176.14L106.90,170.50L87.76,170.50z"/><text xml:space="preserve" fill="#000000" stroke-width="0" x="88.47" y="174.56" font-size="3.43" opacity="1.00" font-family="Microsoft Sans Serif">7000005N1</text></g></g><g id="PMI149.0"><g><path style="stroke:#000000;stroke-width:0.280" d="M118.38,140.98L118.14,149.56"/></g><g><path style="fill:#000000" d="M117.14,149.52L119.14,149.58L118.09,151.55z"/></g><g><path style="fill:#ffffff" d="M109.18,140.97L127.75,140.97L127.75,135.32L109.18,135.32z"/><path style="stroke:#000000;stroke-width:0.280;stroke-opacity:0.98" d="M109.18,140.97L127.75,140.97L127.75,135.32L109.18,135.32z"/><text xml:space="preserve" fill="#000000" stroke-width="0" x="109.89" y="139.38" font-size="3.10" opacity="1.00" font-family="Microsoft Sans Serif">700000581</text></g></g><g id="PMI155.0"><g><path style="stroke:#000000;stroke-width:0.280" d="M153.37,203.31L153.28,195.62"/></g><g><path style="fill:#000000" d="M154.28,195.59L152.28,195.61L153.26,193.60z"/></g><g><path style="fill:#ffffff" d="M143.83,208.94L162.97,208.94L162.97,203.29L143.83,203.29z"/><path style="stroke:#000000;stroke-width:0.280;stroke-opacity:0.98" d="M143.83,208.94L162.97,208.94L162.97,203.29L143.83,203.29z"/><text xml:space="preserve" fill="#000000" stroke-width="0" x="144.53" y="207.35" font-size="3.43" opacity="1.00" font-family="Microsoft Sans Serif">7000005H1</text></g></g><g id="PMI128.0"><g><path style="stroke:#000000;stroke-width:0.280" d="M84.09,176.68L119.24,176.21"/></g><g><path style="fill:#000000" d="M119.27,177.17L119.25,175.17L121.26,176.14z"/></g><g><path style="fill:#ffffff" d="M65.54,179.58L84.13,179.58L84.13,173.94L65.54,173.94z"/><path style="stroke:#000000;stroke-width:0.280;stroke-opacity:0.98" d="M65.54,179.58L84.13,179.58L84.13,173.94L65.54,173.94z"/><text xml:space="preserve" fill="#000000" stroke-width="0" x="66.25" y="177.99" font-size="3.10" opacity="1.00" font-family="Microsoft Sans Serif">020006451</text></g></g><g id="PMI115.0"><g><path style="stroke:#000000;stroke-width:0.280" d="M145.20,78.46L145.20,73.88"/></g><g><path style="fill:#000000" d="M146.20,73.88L144.20,73.89L145.20,71.88z"/></g><g><path style="fill:#ffffff" d="M135.63,84.11L154.79,84.11L154.79,78.46L135.63,78.46z"/><path style="stroke:#000000;stroke-width:0.280;stroke-opacity:0.98" d="M135.63,84.11L154.79,84.11L154.79,78.46L135.63,78.46z"/><text xml:space="preserve" fill="#000000" stroke-width="0" x="136.33" y="82.52" font-size="3.44" opacity="1.00" font-family="Microsoft Sans Serif">3K00055F1</text></g></g><g id="PMI132.0"><g><path style="stroke:#000000;stroke-width:0.280" d="M119.40,163.90L127.72,163.98"/></g><g><path style="fill:#000000" d="M127.71,164.96L127.73,162.96L129.72,163.98z"/></g><g><path style="fill:#ffffff" d="M100.45,166.62L119.41,166.62L119.41,160.98L100.45,160.98z"/><path style="stroke:#000000;stroke-width:0.280;stroke-opacity:0.98" d="M100.45,166.62L119.41,166.62L119.41,160.98L100.45,160.98z"/><text xml:space="preserve" fill="#000000" stroke-width="0" x="101.16" y="165.03" font-size="3.43" opacity="1.00" font-family="Microsoft Sans Serif">7000005B1</text></g></g><g id="PMI148.0"><g><path style="stroke:#000000;stroke-width:0.280" d="M103.93,197.11L118.46,196.61"/></g><g><path style="fill:#000000" d="M118.50,197.57L118.43,195.58L120.47,196.51z"/></g><g><path style="fill:#ffffff" d="M85.38,200.21L103.95,200.21L103.95,194.57L85.38,194.57z"/><path style="stroke:#000000;stroke-width:0.280;stroke-opacity:0.98" d="M85.38,200.21L103.95,200.21L103.95,194.57L85.38,194.57z"/><text xml:space="preserve" fill="#000000" stroke-width="0" x="86.09" y="198.62" font-size="3.10" opacity="1.00" font-family="Microsoft Sans Serif">700000561</text></g></g><g id="PMI154.1"><g><path style="stroke:#000000;stroke-width:0.280" d="M128.78,200.85L138.83,200.56"/></g><g><path style="fill:#000000" d="M138.86,201.53L138.80,199.53L140.83,200.47z"/></g><g><path style="fill:#ffffff" d="M109.45,203.91L128.78,203.91L128.78,198.27L109.45,198.27z"/><path style="stroke:#000000;stroke-width:0.280;stroke-opacity:0.98" d="M109.45,203.91L128.78,203.91L128.78,198.27L109.45,198.27z"/><text xml:space="preserve" fill="#000000" stroke-width="0" x="110.15" y="202.33" font-size="3.43" opacity="1.00" font-family="Microsoft Sans Serif">7000005G1</text></g></g><g id="PMI120.0"><g><path style="stroke:#000000;stroke-width:0.280" d="M196.99,18.43L188.21,18.78"/></g><g><path style="fill:#000000" d="M188.16,17.79L188.24,19.79L186.20,18.87z"/></g><g><path style="fill:#ffffff" d="M196.99,20.90L214.99,20.90L214.99,15.26L196.99,15.26z"/><path style="stroke:#000000;stroke-width:0.280;stroke-opacity:0.98" d="M196.99,20.90L214.99,20.90L214.99,15.26L196.99,15.26z"/><text xml:space="preserve" fill="#000000" stroke-width="0" x="197.69" y="19.31" font-size="3.43" opacity="1.00" font-family="Microsoft Sans Serif">3K00055I1</text></g></g><g id="PMI83.0"><g><path style="stroke:#000000;stroke-width:0.280" d="M134.80,96.45L134.78,91.09"/></g><g><path style="fill:#000000" d="M135.78,91.08L133.78,91.10L134.77,89.09z"/></g><g><path style="fill:#ffffff" d="M125.05,102.09L144.59,102.09L144.59,96.45L125.05,96.45z"/><path style="stroke:#000000;stroke-width:0.280;stroke-opacity:0.98" d="M125.05,102.09L144.59,102.09L144.59,96.45L125.05,96.45z"/><text xml:space="preserve" fill="#000000" stroke-width="0" x="125.76" y="100.50" font-size="3.44" opacity="1.00" font-family="Microsoft Sans Serif">3K00055D1</text></g></g><g id="PMI116.0"><g><path style="stroke:#000000;stroke-width:0.280" d="M75.02,62.01L80.65,62.19"/></g><g><path style="fill:#000000" d="M80.64,63.20L80.70,61.21L82.67,62.27z"/></g><g><path style="fill:#ffffff" d="M55.49,64.54L75.04,64.54L75.04,58.89L55.49,58.89z"/><path style="stroke:#000000;stroke-width:0.280;stroke-opacity:0.98" d="M55.49,64.54L75.04,64.54L75.04,58.89L55.49,58.89z"/><text xml:space="preserve" fill="#000000" stroke-width="0" x="56.20" y="62.95" font-size="3.44" opacity="1.00" font-family="Microsoft Sans Serif">3K00055H1</text></g></g><g/><g id="paperID" visibility="hidden" opacity="0.00" transform="scale(0.000100)"><path style="stroke:#000000;stroke-width:0.500;fill:#e6e6e6;fill-rule:evenodd" d="M-2000.00,-2000.00L2297.00,-2000.00L2297.00,2210.00L-2000.00,2210.00zM0.00,0.00L297.00,0.00L297.00,210.00L0.00,210.00z"/><path style="fill:#000000;fill-opacity:0.118" d="M3.00,210.00L297.00,210.00L297.00,3.00L300.00,3.00L300.00,213.00L3.00,213.00z"/></g><g id="hotspot.0" onmouseover="ShowHotSpot(evt,'0')" onmouseout="HideHotSpot(evt,'0')" onmousemove="ShowToolTip(evt,'0',&quot;3dp2387749 (2)&quot;)" opacity="0"><path style="fill:#00ff00;fill-rule:evenodd" d="M146.59,68.42L156.22,68.84L156.46,70.01L158.06,69.72L158.25,69.13L159.38,69.13L159.57,69.72L163.36,69.90L163.36,71.07L161.94,71.23L145.52,72.03L145.60,72.55L146.18,73.61L145.56,73.88L145.54,77.94L154.66,78.08L154.92,78.34L154.90,84.29L135.57,84.20L135.57,78.18L144.85,77.94L144.82,73.88L144.21,73.61L144.84,72.26L134.18,72.56L126.59,72.56L114.85,71.76L117.35,71.59L117.50,67.52L119.73,67.52L119.88,71.33L122.11,71.33L122.26,67.25L138.14,66.74L146.44,66.72z"/></g><g id="hotspot.1" onmouseover="ShowHotSpot(evt,'1')" onmouseout="HideHotSpot(evt,'1')" onmousemove="ShowToolTip(evt,'1',&quot;3dp2387751 (3)&quot;)" opacity="0"><path style="fill:#00ff00;fill-rule:evenodd" d="M80.48,45.04L114.70,43.98L114.69,48.84L112.31,95.94L111.50,95.86L109.94,95.03L97.20,93.22L96.89,93.00L96.45,72.01L81.28,70.79L81.07,70.47L80.86,63.01L80.57,62.50L78.99,62.24L75.45,62.23L75.30,64.20L75.02,64.70L55.44,64.63L55.44,58.61L75.05,58.50L75.32,58.77L75.45,61.54L80.57,61.79L80.85,61.00z"/></g><g id="hotspot.2" onmouseover="ShowHotSpot(evt,'2')" onmouseout="HideHotSpot(evt,'2')" onmousemove="ShowToolTip(evt,'2',&quot;3dp1123521 (I_ECU M8X1.25.8)&quot;)" opacity="0"><path style="fill:#00ff00;fill-rule:evenodd" d="M215.22,15.13L215.21,20.56L214.92,21.07L196.93,21.00L196.69,18.59L188.40,18.88L188.19,19.48L187.70,19.43L186.51,18.87L185.57,49.89L184.25,79.78L183.46,87.45L183.18,88.24L181.02,88.17L181.33,87.88L162.20,86.14L162.47,71.23L163.36,71.06L163.36,69.11L146.59,68.42L146.69,55.18L146.86,51.38L148.31,51.21L148.31,50.61L147.12,50.44L147.47,7.30L185.22,2.21L186.92,2.21L186.63,13.66L186.63,18.45L187.88,17.77L188.41,18.13L195.00,18.07L196.69,17.91L196.93,14.97L214.96,14.87zM171.46,10.43L170.94,10.51L170.94,9.58L171.56,9.59zM170.49,38.76L171.03,38.68L170.94,39.52L170.48,39.51zM163.92,41.85L163.89,42.51L163.26,42.51L163.35,41.67L163.65,41.57zM151.23,42.38L151.11,42.95L150.66,42.96L150.56,42.12L150.93,42.08zM181.07,46.17L181.60,46.08L181.60,47.01L181.07,46.92zM176.04,46.17L176.58,46.08L176.58,47.01L176.04,46.92zM151.22,46.86L151.12,47.19L150.56,47.26L150.56,46.63L150.94,46.58zM163.26,46.35L163.89,46.35L163.80,47.19L163.35,47.19zM176.62,47.93L176.58,48.59L175.96,48.59L176.05,47.75L176.35,47.66zM181.60,48.60L180.98,48.59L181.08,47.75L181.60,47.67zM174.32,48.89L174.49,49.89L174.09,50.61L173.38,50.65L173.06,50.42L173.12,48.83L174.19,48.75zM163.80,68.29L164.13,68.31L164.18,68.93L163.88,68.88z"/></g><g id="hotspot.3" onmouseover="ShowHotSpot(evt,'3')" onmouseout="HideHotSpot(evt,'3')" onmousemove="ShowToolTip(evt,'3',&quot;3dp342020 (I_    ECU M8X1.25.5)&quot;)" opacity="0"><path style="fill:#00ff00;fill-rule:evenodd" d="M171.58,186.51L171.46,188.39L168.30,189.72L168.28,197.48L177.14,197.62L177.40,197.88L177.38,203.83L158.58,203.74L158.58,197.72L167.60,197.48L167.56,189.72L166.99,189.43L167.01,189.19L163.59,187.85L163.60,187.44L166.44,184.66L167.05,184.66z"/></g><g id="hotspot.4" onmouseover="ShowHotSpot(evt,'4')" onmouseout="HideHotSpot(evt,'4')" onmousemove="ShowToolTip(evt,'4',&quot;3dp342020 (I_    ECU M8X1.25.27)&quot;)" opacity="0"><path style="fill:#00ff00;fill-rule:evenodd" d="M230.56,166.14L230.54,172.09L211.74,172.01L211.50,169.34L173.58,169.34L173.43,170.21L172.34,169.86L170.49,170.49L169.09,170.79L169.17,167.32L171.19,166.43L173.17,166.41L173.44,166.67L173.57,168.65L211.50,168.65L211.74,165.98L230.30,165.88z"/></g><g id="hotspot.5" onmouseover="ShowHotSpot(evt,'5')" onmouseout="HideHotSpot(evt,'5')" onmousemove="ShowToolTip(evt,'5',&quot;3dp1826080 (I_3DPart1826080.12)&quot;)" opacity="0"><path style="fill:#00ff00;fill-rule:evenodd" d="M84.31,173.81L84.44,176.06L119.18,175.77L119.46,175.14L120.27,175.51L120.71,173.83L121.29,173.82L121.48,174.73L123.42,174.60L123.96,174.92L123.93,175.97L120.94,176.21L119.70,176.88L119.17,176.52L101.38,176.49L84.44,176.74L84.29,179.76L65.49,179.68L65.49,173.65L84.05,173.55zM130.04,182.58L130.05,183.46L128.98,184.25L128.97,185.76L130.07,186.25L130.03,187.18L129.23,187.08L128.96,186.28L127.90,186.03L127.84,183.90L128.97,182.92L129.17,182.30L129.49,182.25z"/></g><g id="hotspot.6" onmouseover="ShowHotSpot(evt,'6')" onmouseout="HideHotSpot(evt,'6')" onmousemove="ShowToolTip(evt,'6',&quot;3dp2371720 (RHD)&quot;)" opacity="0"><path style="fill:#00ff00;fill-rule:evenodd" d="M131.35,158.51L131.62,162.74L131.61,194.03L131.03,194.23L129.48,194.23L128.89,194.03L128.96,186.27L129.24,187.09L130.03,187.18L130.07,186.25L128.97,185.76L128.98,184.25L130.05,183.46L130.04,182.58L129.49,182.25L129.17,182.31L128.95,182.93L128.74,164.33L127.92,164.70L127.65,164.08L119.62,164.05L119.46,166.80L100.40,166.72L100.40,160.70L119.22,160.59L119.48,160.85L119.62,163.36L127.63,163.32L127.86,163.01L128.71,163.11L128.97,157.70z"/></g><g id="hotspot.7" onmouseover="ShowHotSpot(evt,'7')" onmouseout="HideHotSpot(evt,'7')" onmousemove="ShowToolTip(evt,'7',&quot;3dp2371721 (RHD)&quot;)" opacity="0"><path style="fill:#00ff00;fill-rule:evenodd" d="M170.79,123.83L170.77,129.78L161.67,129.93L161.50,132.14L161.45,142.71L161.81,143.24L161.40,143.95L162.06,144.46L161.76,156.74L161.17,156.95L160.17,156.95L159.57,156.74L159.64,144.30L160.45,144.03L160.12,142.90L160.69,142.72L160.98,129.93L151.97,129.69L151.97,123.67L170.53,123.56z"/></g><g id="hotspot.8" onmouseover="ShowHotSpot(evt,'8')" onmouseout="HideHotSpot(evt,'8')" onmousemove="ShowToolTip(evt,'8',&quot;3dp2371722 (I_3DPart2371722.499)&quot;)" opacity="0"><path style="fill:#00ff00;fill-rule:evenodd" d="M159.04,168.56L161.50,167.74L161.50,175.78L161.26,180.83L160.63,181.28L159.64,181.28L159.12,180.98zM123.98,183.07L124.11,185.05L138.76,184.51L142.46,184.23L142.74,183.65L143.25,183.74L143.43,174.37L145.90,173.56L145.89,187.41L145.31,187.62L144.02,187.62L143.44,187.41L143.28,185.24L142.68,185.29L142.44,184.99L138.94,184.95L124.11,185.74L123.96,189.02L105.16,188.93L105.16,182.91L123.72,182.81z"/></g><g id="hotspot.9" onmouseover="ShowHotSpot(evt,'9')" onmouseout="HideHotSpot(evt,'9')" onmousemove="ShowToolTip(evt,'9',&quot;3dp2371723 (RHD)&quot;)" opacity="0"><path style="fill:#00ff00;fill-rule:evenodd" d="M207.55,162.18L207.53,168.12L188.73,168.04L188.49,165.11L176.97,164.92L176.97,164.61L188.49,164.42L188.73,162.02L207.29,161.91zM175.25,163.27L175.44,164.16L176.60,163.80L176.60,165.47L175.43,165.09L175.28,173.96L174.65,174.40L173.66,174.40L172.87,174.12L172.86,170.73L173.17,170.17L173.41,170.20L173.41,166.69L173.16,166.42L173.14,163.36L173.84,162.98L174.74,162.98z"/></g><g id="hotspot.10" onmouseover="ShowHotSpot(evt,'10')" onmouseout="HideHotSpot(evt,'10')" onmousemove="ShowToolTip(evt,'10',&quot;3dp2371724 (I_3DPart2371724.503)&quot;)" opacity="0"><path style="fill:#00ff00;fill-rule:evenodd" d="M175.78,147.93L175.52,160.71L175.21,160.92L173.64,160.91L173.06,160.70L173.32,147.93L173.83,147.64L174.99,147.66zM219.19,149.48L219.18,154.91L218.89,155.42L200.10,155.35L199.86,152.41L190.26,152.45L190.03,152.76L189.55,152.73L188.48,152.13L188.21,154.62L187.94,164.41L187.36,164.61L186.08,164.61L185.49,164.41L185.57,157.01L185.75,151.10L186.26,150.82L187.42,150.83L188.19,151.13L188.42,151.72L188.91,151.67L190.07,151.13L190.25,151.70L199.86,151.73L200.10,149.32L218.92,149.22z"/></g><g id="hotspot.11" onmouseover="ShowHotSpot(evt,'11')" onmouseout="HideHotSpot(evt,'11')" onmousemove="ShowToolTip(evt,'11',&quot;3dp2371725 (RHD)&quot;)" opacity="0"><path style="fill:#00ff00;fill-rule:evenodd" d="M106.26,152.66L106.40,154.90L112.04,154.87L112.32,154.25L113.92,155.18L112.56,155.99L112.03,155.63L106.40,155.59L106.24,158.60L86.91,158.52L86.91,152.50L106.00,152.39zM117.60,154.01L117.86,155.86L117.90,171.32L116.99,171.75L116.00,171.76L115.49,171.46L115.22,169.35L115.13,153.20z"/></g><g id="hotspot.12" onmouseover="ShowHotSpot(evt,'12')" onmouseout="HideHotSpot(evt,'12')" onmousemove="ShowToolTip(evt,'12',&quot;3dp2387753 (RHD)&quot;)" opacity="0"><path style="fill:#00ff00;fill-rule:evenodd" d="M173.66,174.40L174.65,174.39L175.28,174.12L194.29,180.46L194.29,181.87L193.95,183.66L194.46,183.66L195.64,183.11L195.64,184.77L194.30,184.14L192.35,184.27L192.18,182.57L189.53,181.50L189.19,181.50L187.33,182.34L186.62,182.34L174.64,178.16L174.46,176.49L171.74,175.51L171.73,173.82zM220.51,181.22L220.49,187.17L201.69,187.08L201.45,184.41L196.66,184.19L196.03,183.94L196.03,183.64L201.45,183.73L201.69,181.06L220.25,180.95z"/></g><g id="hotspot.13" onmouseover="ShowHotSpot(evt,'13')" onmouseout="HideHotSpot(evt,'13')" onmousemove="ShowToolTip(evt,'13',&quot;3dp2387754 (RHD)&quot;)" opacity="0"><path style="fill:#00ff00;fill-rule:evenodd" d="M174.46,176.49L174.46,178.16L164.87,182.32L163.07,182.33L162.29,182.03L161.42,182.03L160.63,182.31L160.36,184.16L149.78,188.68L148.53,188.40L148.03,188.11L146.86,188.11L146.17,188.48L145.90,190.33L134.98,195.02L133.72,195.02L132.41,194.46L131.53,194.45L130.83,194.83L130.56,196.68L119.37,200.32L118.66,200.32L116.28,199.23L116.21,197.13L116.82,196.85L105.08,197.12L104.30,197.39L104.12,200.39L85.32,200.31L85.32,194.28L103.88,194.18L104.14,194.44L104.30,196.70L118.39,196.13L118.67,195.51L119.17,195.81L120.43,195.81L128.11,193.39L128.68,193.41L128.91,194.01L129.47,194.23L131.03,194.23L131.61,194.03L131.80,192.10L143.27,187.34L144.03,187.62L145.31,187.62L145.89,187.42L146.15,186.09L158.78,180.97L159.64,181.27L160.63,181.28L161.26,180.83L161.42,179.94L171.46,175.68L172.35,175.68z"/></g><g id="hotspot.14" onmouseover="ShowHotSpot(evt,'14')" onmouseout="HideHotSpot(evt,'14')" onmousemove="ShowToolTip(evt,'14',&quot;3dp2387755 (RHD)&quot;)" opacity="0"><path style="fill:#00ff00;fill-rule:evenodd" d="M127.95,135.20L127.93,141.15L118.84,141.32L118.64,141.91L118.60,149.32L118.96,149.85L118.36,150.93L118.38,151.36L147.48,160.89L148.56,161.66L148.46,164.88L147.75,164.88L146.63,164.39L145.91,163.52L115.13,153.04L115.14,151.11L115.93,150.83L116.80,150.82L117.91,151.16L117.28,149.51L117.85,149.33L118.16,141.32L109.12,141.06L109.12,135.04L127.68,134.94z"/></g><g id="hotspot.15" onmouseover="ShowHotSpot(evt,'15')" onmouseout="HideHotSpot(evt,'15')" onmousemove="ShowToolTip(evt,'15',&quot;3dp2387756 (RHD)&quot;)" opacity="0"><path style="fill:#00ff00;fill-rule:evenodd" d="M187.19,141.55L187.17,147.50L177.80,147.65L177.84,159.90L178.21,160.43L177.87,160.98L177.88,161.41L185.06,163.51L185.50,164.39L186.07,164.61L188.75,164.59L195.61,166.71L195.55,168.05L194.74,168.86L194.03,168.85L174.38,162.82L174.38,161.16L175.17,160.88L176.86,160.89L176.51,160.09L177.09,159.91L177.12,147.65L168.10,147.41L168.10,141.39L186.92,141.28zM168.91,158.77L172.90,160.11L172.89,160.69L171.22,161.43L169.69,161.42L160.88,158.86L160.96,156.99L162.57,156.92z"/></g><g id="hotspot.16" onmouseover="ShowHotSpot(evt,'16')" onmouseout="HideHotSpot(evt,'16')" onmousemove="ShowToolTip(evt,'16',&quot;3dp2387757 (I_XNG BC CP 10.38)&quot;)" opacity="0"><path style="fill:#00ff00;fill-rule:evenodd" d="M144.08,142.87L144.06,148.82L134.69,148.97L135.05,166.98L145.38,170.68L141.85,172.02L139.81,171.47L132.06,168.64L132.06,166.71L133.46,166.43L134.26,166.56L134.26,153.22L134.01,148.97L124.73,148.73L124.73,142.71L143.82,142.61zM154.89,163.00L160.75,165.09L158.00,166.19L156.46,166.19L148.73,163.61L148.45,161.14L149.06,161.12z"/></g><g id="hotspot.17" onmouseover="ShowHotSpot(evt,'17')" onmouseout="HideHotSpot(evt,'17')" onmousemove="ShowToolTip(evt,'17',&quot;3dp2387758 (RHD)&quot;)" opacity="0"><path style="fill:#00ff00;fill-rule:evenodd" d="M161.01,133.08L160.98,139.03L151.88,139.19L151.92,158.32L152.46,158.51L152.46,158.76L153.23,158.79L158.76,156.92L160.20,156.90L160.71,157.18L160.63,158.78L152.17,161.69L150.64,161.70L149.06,161.13L147.98,161.20L147.64,160.94L147.64,160.65L150.86,159.56L150.85,158.54L151.16,158.31L151.20,139.19L141.92,138.95L141.92,132.93L160.74,132.82zM145.38,163.27L145.93,163.65L136.57,166.98L135.04,166.98L133.46,166.42L132.06,166.71L131.88,168.40L131.80,165.92L142.11,162.46L142.99,162.46zM118.04,170.42L128.74,166.98L128.63,169.62L120.95,172.29L120.24,172.29L118.13,171.47zM116.30,171.97L116.28,173.69L115.75,173.62L115.22,173.31L115.14,171.44L115.46,171.42z"/></g><g id="hotspot.18" onmouseover="ShowHotSpot(evt,'18')" onmouseout="HideHotSpot(evt,'18')" onmousemove="ShowToolTip(evt,'18',&quot;3dp2387759 (RHD)&quot;)" opacity="0"><path style="fill:#00ff00;fill-rule:evenodd" d="M192.18,182.57L192.18,184.25L171.20,193.41L149.78,202.68L143.25,204.87L138.13,205.86L135.06,205.58L131.53,204.87L131.32,202.76L137.96,201.96L144.84,200.11L164.85,191.83L189.19,181.50L189.53,181.50zM209.93,189.95L209.92,195.37L209.63,195.88L190.32,195.81L190.08,192.88L185.83,192.62L177.30,192.65L177.07,192.96L176.59,192.93L175.17,192.10L177.11,191.33L177.29,191.90L190.08,192.19L190.32,189.79L209.67,189.68zM129.00,198.14L129.14,200.39L138.75,200.10L139.03,199.48L140.63,200.41L139.27,201.22L138.74,200.85L131.53,200.82L129.14,201.08L128.99,203.57L128.71,204.08L109.39,204.01L109.39,197.99L128.74,197.88z"/></g><g id="hotspot.19" onmouseover="ShowHotSpot(evt,'19')" onmouseout="HideHotSpot(evt,'19')" onmousemove="ShowToolTip(evt,'19',&quot;3dp2387760 (I_3DPart1093961.169)&quot;)" opacity="0"><path style="fill:#00ff00;fill-rule:evenodd" d="M160.97,193.42L157.98,194.76L157.00,194.76L146.08,190.33L146.17,188.48L146.86,188.11L148.03,188.11zM154.14,195.02L153.78,195.55L153.74,202.77L162.86,202.91L163.12,203.17L163.10,209.12L143.77,209.03L143.77,203.01L153.05,202.77L153.02,195.54L152.40,195.26L153.33,193.66z"/></g><g id="hotspot.20" onmouseover="ShowHotSpot(evt,'20')" onmouseout="HideHotSpot(evt,'20')" onmousemove="ShowToolTip(evt,'20',&quot;3dp2387761 (RHD)&quot;)" opacity="0"><path style="fill:#00ff00;fill-rule:evenodd" d="M139.55,197.65L144.57,200.12L141.60,201.10L139.80,201.10L130.74,196.94L130.83,194.83L131.53,194.45L132.41,194.46z"/></g><g id="hotspot.21" onmouseover="ShowHotSpot(evt,'21')" onmouseout="HideHotSpot(evt,'21')" onmousemove="ShowToolTip(evt,'21',&quot;3dp2387762 (I_3DPart1093962.174)&quot;)" opacity="0"><path style="fill:#00ff00;fill-rule:evenodd" d="M175.24,186.82L176.61,186.81L176.57,188.50L176.06,188.43L175.00,187.84L174.10,187.84L173.06,188.41L172.05,188.43L171.73,188.21L171.59,186.51L167.05,184.66L166.44,184.66L165.49,185.62L164.94,185.78L160.70,184.17L160.63,182.31L161.42,182.03L162.29,182.03zM241.93,184.92L241.91,190.87L223.37,190.79L223.13,188.12L176.97,187.93L176.97,187.62L223.13,187.43L223.37,184.76L241.67,184.66z"/></g><g id="hotspot.22" onmouseover="ShowHotSpot(evt,'22')" onmouseout="HideHotSpot(evt,'22')" onmousemove="ShowToolTip(evt,'22',&quot;3dp2387763 (I_XNG BC CP 09.495)&quot;)" opacity="0"><path style="fill:#00ff00;fill-rule:evenodd" d="M174.19,161.15L174.19,162.82L156.93,169.36L153.70,170.65L154.10,172.32L153.49,172.53L153.19,174.72L161.80,174.87L162.06,175.14L162.04,181.08L142.98,181.00L142.98,174.98L152.51,174.72L152.79,174.22L152.75,172.54L152.38,172.01L153.02,170.90L133.19,178.15L131.80,178.45L131.80,175.70L172.51,160.87L173.69,160.87z"/></g><g id="hotspot.23" onmouseover="ShowHotSpot(evt,'23')" onmouseout="HideHotSpot(evt,'23')" onmousemove="ShowToolTip(evt,'23',&quot;3dp2390334 (I_3DPart2390334.43)&quot;)" opacity="0"><path style="fill:#00ff00;fill-rule:evenodd" d="M164.96,160.08L166.57,162.48L166.54,163.07L163.80,164.09L163.11,164.07L160.17,159.53L160.08,159.05L160.73,158.79zM169.45,166.95L169.21,167.33L169.09,170.79L170.49,170.49L171.57,170.10L172.62,171.72L172.78,173.94L187.96,173.94L188.20,171.27L207.82,171.17L208.08,171.43L208.07,176.86L207.78,177.37L188.20,177.30L187.96,174.63L172.52,174.42L172.31,174.12L172.06,174.97L171.44,175.70L170.78,175.71L164.89,166.70L164.87,166.42L167.49,165.36L168.40,165.35z"/></g><g id="hotspot.24" onmouseover="ShowHotSpot(evt,'24')" onmouseout="HideHotSpot(evt,'24')" onmousemove="ShowToolTip(evt,'24',&quot;3dp2447175 (RHD)&quot;)" opacity="0"><path style="fill:#00ff00;fill-rule:evenodd" d="M107.05,170.38L107.19,172.89L115.48,172.86L115.76,172.28L116.24,172.34L116.98,171.72L118.13,171.44L128.71,175.70L128.73,178.69L123.11,176.51L122.79,176.17L123.15,175.98L123.93,175.97L123.96,174.92L123.42,174.60L121.48,174.73L121.29,173.82L120.71,173.83L120.26,175.23L116.56,173.85L115.76,174.22L115.48,173.60L107.19,173.57L107.03,176.32L87.70,176.24L87.70,170.22L106.79,170.11z"/></g><g id="hotspot.25" onmouseover="ShowHotSpot(evt,'25')" onmouseout="HideHotSpot(evt,'25')" onmousemove="ShowToolTip(evt,'25',&quot;3dp1196616 (5)&quot;)" opacity="0"><path style="fill:#00ff00;fill-rule:evenodd" d="M209.14,105.32L209.12,111.26L188.46,111.18L188.22,108.78L183.11,108.80L182.93,109.38L181.60,108.76L180.98,108.75L179.94,109.60L178.97,109.58L178.43,109.04L178.16,108.00L178.15,105.95L180.84,105.84L181.10,106.11L180.98,108.35L181.87,108.08L182.59,107.69L183.12,108.05L188.22,108.09L188.46,105.16L208.88,105.05z"/></g><g id="hotspot.26" onmouseover="ShowHotSpot(evt,'26')" onmouseout="HideHotSpot(evt,'26')" onmousemove="ShowToolTip(evt,'26',&quot;A-0006627-01 (6)&quot;)" opacity="0"><path style="fill:#00ff00;fill-rule:evenodd" d="M168.41,100.03L168.56,102.29L175.78,101.98L176.05,101.36L177.66,102.29L176.30,103.10L175.77,102.73L169.35,102.70L168.56,102.97L168.39,105.97L147.74,105.89L147.74,99.87L168.15,99.76zM181.61,101.13L181.65,101.46L181.33,102.00L178.33,102.00L178.34,101.13L179.14,100.84L181.08,100.82z"/></g><g id="hotspot.27" onmouseover="ShowHotSpot(evt,'27')" onmouseout="HideHotSpot(evt,'27')" onmousemove="ShowToolTip(evt,'27',&quot;3dp2387748&quot;)" opacity="0"><path style="fill:#00ff00;fill-rule:evenodd" d="M194.04,86.56L193.99,86.81L183.42,87.97L183.62,85.77zM162.20,86.14L181.34,87.88L181.04,88.17L149.78,91.33L146.96,91.33L136.64,90.01L135.47,90.01L135.58,90.86L135.26,91.08L135.22,95.92L144.61,96.06L144.87,96.32L144.86,101.75L144.57,102.26L124.99,102.19L124.99,96.16L134.54,95.92L134.51,91.07L133.89,90.80L134.31,90.07L134.29,89.75L132.28,89.54L132.30,89.26L132.93,89.03L133.12,87.63L133.63,87.34L159.30,84.99L162.04,84.97z"/></g><g id="hotspot.28" onmouseover="ShowHotSpot(evt,'28')" onmouseout="HideHotSpot(evt,'28')" onmousemove="ShowToolTip(evt,'28',&quot;3dp2387750 (I_3DPart1094475.14)&quot;)" opacity="0"><path style="fill:#00ff00;fill-rule:evenodd" d="M208.88,88.92L208.86,94.35L208.58,94.85L189.26,94.78L189.02,91.85L182.84,91.88L182.66,92.45L181.32,91.81L180.99,91.84L180.82,94.07L178.86,94.07L178.94,91.41L181.25,91.36L182.32,90.76L182.85,91.12L189.02,91.16L189.26,88.76L208.61,88.65z"/></g></g></svg>
