<?xml version="1.0" encoding="UTF-8" standalone="no"?>
<svg xmlns="http://www.w3.org/2000/svg" xmlns:xlink="http://www.w3.org/1999/xlink" width="297.000mm" height="210.000mm" viewBox="0.000000 0.000000 297.000000 210.000000" stroke-linejoin="round" stroke-linecap="round" fill="none" fill-rule="evenodd"><desc>Composer Export</desc><script type="text/ecmascript"><![CDATA[
if(typeof(top) != "undefined")
{
	top.ShowPaper = ShowPaper;
}
function ShowHotSpot(evt,hotspotid)
{
	var svgDocument = evt.target.ownerDocument;
	var strId = "hotspot."+hotspotid;
	var hotspot = svgDocument.getElementById(strId);
	if(hotspot)
		hotspot.setAttribute("opacity",".5");
}
function HideHotSpot(evt,hotspotid)
{
	var svgDocument = evt.target.ownerDocument;
	var strId = "hotspot."+hotspotid;
	var hotspot = svgDocument.getElementById(strId);
	if(hotspot)
		hotspot.setAttribute("opacity","0");

	var toolTip = svgDocument.getElementById('ToolTip');
	if(toolTip)
		toolTip.setAttribute("visibility","hidden");
}
function ShowToolTip(evt,hotspotid,strTooltip)
{
	if(strTooltip=="")
	return;

	// change text
	var svgDocument = evt.target.ownerDocument;
	var tiptext = svgDocument.getElementById('ToolTipText');
	if( !tiptext )
	return;
	tiptext.firstChild.nodeValue = " " + strTooltip + "  " ;

	// show tooltip before, else some refresh issue

	var toolTip = svgDocument.getElementById('ToolTip');
	if(!toolTip)
	return;

	toolTip.setAttribute("visibility","visible");
	toolTip.setAttribute("opacity",".95");

	// move tooltip
	// get viewbox

	var root = svgDocument.documentElement;
	var vbox = (root.getAttribute("viewBox")).split(' ');
	var x0 = parseFloat(vbox[0]);
	var y0 = parseFloat(vbox[1]);
	var vboxW = parseFloat(vbox[2]);
	var vboxH = parseFloat(vbox[3]);

	// get default width of svg

	var strW = root.getAttribute("width");
	var svgW = parseFloat(strW);
	if(strW.indexOf('mm') != -1)
	svgW *= 3.779;

	var strH = root.getAttribute("height");
	var svgH = parseFloat(strH);
	if(strH.indexOf('mm') != -1)
	svgH *= 3.779;  	// 96 dpi  -> 96/25.4 = 3.779

	// update the viewbox / width / height if svg is embedded in html with zoom fit all
	var realx0 = x0;
	var realy0 = y0;
	var realvboxW = vboxW;
	var realvboxH = vboxH;
	var realsvgW = svgW;
	var realsvgH = svgH;

	if ((typeof(top) == "undefined") || (typeof(top.svgctl1) != "undefined")) // embedded in html
	{
		// get window size in pxl

		svgW = window.innerWidth;
		svgH = window.innerHeight;

		// calculate real viewbox

		realsvgW = svgW;
		realsvgH = svgH;
		if((svgW / svgH) > (vboxW / vboxH))
		{
			realvboxW = (vboxH * svgW) / svgH;
			realvboxH = vboxH;
			realx0 = x0 - (realvboxW - vboxW)/2 ;
		}
		else
		{
			realvboxH = (vboxW * svgH) / svgW;
			realvboxW = vboxW;
			realy0 = y0 - (realvboxH - vboxH)/2 ;
		}
	}

	// get user zoom/pan

	var newScale = root.currentScale;
	var translation = root.currentTranslate;

	// transform pxl to user unit

	var xPos = (((evt.clientX+10- translation.x)/newScale) * realvboxW)/realsvgW  + realx0 ;
	var yPos = (((evt.clientY+5- translation.y)/newScale) * realvboxH)/ realsvgH  + realy0 ;
	var scaleForWidth = ( (1 / newScale) * realvboxH) / realsvgH;

	// move tooltip

	toolTip.setAttribute("transform", "translate(" + xPos + "," + yPos + ")" );

	// resize tooltip

	var fontsize = 12;
	tiptext.setAttribute("font-size",fontsize*scaleForWidth);
	tiptext.setAttribute("y", fontsize*scaleForWidth);
	var tipBG = svgDocument.getElementById('ToolTipBG');
	var outline = tiptext.getBBox();
	if(tipBG)
	{
		tipBG.setAttribute("stroke-width", 1*scaleForWidth);
		tipBG.setAttribute("width", Number(outline.width) );
		tipBG.setAttribute("height", Number(outline.height) + fontsize*.5*scaleForWidth );
	}
	var ToolTipShadow = svgDocument.getElementById('ToolTipShadow');
	if(ToolTipShadow)
	{
		ToolTipShadow.setAttribute("width", Number(outline.width) );
		ToolTipShadow.setAttribute("height", Number(outline.height) + fontsize*.5*scaleForWidth );
		ToolTipShadow.setAttribute("x", 3*scaleForWidth);
		ToolTipShadow.setAttribute("y", 3*scaleForWidth);
	}
}
function ShowPaper()
{
  var svgDocument = getDocument();
  var paper = svgDocument.getElementById("paperID");
  if(paper)
  {
    paper.setAttribute("transform","scale(1)");
    paper.setAttribute("opacity","1");
    paper.setAttribute("visibility","visible");
  }
  var svg = svgDocument.getRootElement();
  if(svg)
  {
    svg.setAttribute("width","307.000mm");
    svg.setAttribute("height","220.000mm");
    svg.setAttribute("viewBox","-5.000000 -5.000000 307.000000 220.000000");
  }
}
]]></script><defs/><g><g id="Actor_63.0"><g style="stroke:#000000;stroke-width:0.123"><path d="M179.25,111.87L179.24,112.06L185.56,110.22L185.58,110.04L179.25,111.87L183.52,106.86L187.12,108.20L185.58,110.04"/><path d="M185.56,110.22L187.10,108.38L187.12,108.20"/></g></g><g id="Actor_64.0"><g style="stroke:#000000;stroke-width:0.123"><path d="M175.61,120.00L178.72,121.22L178.70,121.40L175.04,119.97L175.06,119.78L175.61,120.00"/><path d="M175.06,119.78L176.66,117.89L183.02,116.01L178.72,121.22"/><path d="M178.70,121.40L183.00,116.19L183.02,116.01"/></g></g><g id="Actor_65.0"><g style="stroke:#000000;stroke-width:0.123"><path d="M189.12,117.40L185.52,116.02L179.60,123.27L179.59,123.45L183.25,124.90L183.27,124.72L189.12,117.40L189.09,117.58L183.25,124.90"/><path d="M183.27,124.72L179.60,123.27"/></g></g><g id="Actor_62.0"><g style="stroke:#000000;stroke-width:0.123"><path d="M100.51,190.38L94.42,187.05L94.45,187.27L100.53,190.60L100.51,190.38L100.54,190.34L113.85,175.30L107.86,172.29L94.42,187.05"/><path d="M100.53,190.60L113.86,175.52L113.85,175.30"/></g></g><g id="Actor_71.0"><g style="stroke:#000000;stroke-width:0.123"><path d="M189.86,54.86L199.70,45.27L198.61,44.95L188.73,54.52L188.71,54.72L189.84,55.06L189.86,54.86L188.73,54.52"/><path d="M189.84,55.06L199.67,45.47L199.70,45.27"/></g></g><g id="Actor_15.0"><g style="stroke:#000000;stroke-width:0.123"><path d="M117.86,103.51L117.88,103.74L131.56,109.24L156.51,85.12L156.52,84.90L131.56,109.01L117.88,103.51L143.61,80.28L156.52,84.90"/><path d="M131.56,109.24L131.56,109.01"/></g></g><g id="Actor_54.0"><g style="stroke:#000000;stroke-width:0.123"><path d="M209.98,11.78L210.11,11.46L243.00,19.52L242.87,19.86L209.98,11.78"/><path d="M210.11,11.46L210.52,11.10L210.09,10.99L210.87,10.69L211.28,10.79L211.16,10.92L211.16,11.07L211.32,11.25L211.57,11.41L212.20,11.64L212.94,11.78L213.66,11.81L214.53,11.72L215.47,11.91L215.96,11.92L216.24,11.84L216.82,11.34L219.70,11.99L219.57,12.10L220.09,12.25L220.23,12.12L224.74,13.20L224.71,13.36"/><path d="M210.09,10.99L210.05,11.24L210.29,11.30"/><path d="M211.28,10.79L211.25,11.03L211.18,11.09"/><path d="M219.70,11.99L219.67,12.15"/><path d="M224.74,13.20L224.60,13.33L225.15,13.46L225.29,13.33L230.33,14.55L230.19,14.69L230.74,14.82L230.88,14.69L235.47,15.83L235.33,15.96L235.90,16.09L236.03,15.95L241.37,17.36L241.13,17.60L241.85,17.78L242.02,17.59L242.48,17.74L243.25,18.10L243.77,18.52L243.94,18.85L243.95,19.06L243.88,19.26L243.36,19.13L243.00,19.52"/><path d="M230.33,14.55L230.30,14.71"/><path d="M235.47,15.83L235.44,15.98"/><path d="M241.37,17.36L241.29,17.64"/><path d="M242.87,19.86L243.31,19.39L243.36,19.13"/><path d="M242.71,18.53L243.05,18.48L243.29,18.55L243.37,18.66L243.25,18.74L243.01,18.75L242.77,18.68L242.70,18.60L242.71,18.53"/><path d="M243.31,19.39L243.82,19.51L243.88,19.26"/><path d="M243.82,19.51L243.95,19.06"/><path d="M242.89,18.72L243.12,18.75"/></g></g><g id="Actor_25.0"><g style="stroke:#000000;stroke-width:0.123"><path d="M197.21,32.31L196.83,32.20L196.99,30.81L197.11,30.70L230.87,39.92L230.77,40.03L230.51,41.46L197.21,32.31"/><path d="M196.99,30.81L230.77,40.03"/><path d="M230.51,41.46L230.61,41.35L230.87,39.92"/></g></g><g id="Actor_11.0"><g style="stroke:#000000;stroke-width:0.123"><path d="M149.89,106.86L172.42,83.77L172.68,83.56L173.22,83.34L173.88,83.24L174.57,83.28L151.22,107.38L151.21,107.60L149.88,107.08L149.89,106.86L151.22,107.38"/><path d="M151.21,107.60L174.55,83.50L174.57,83.28"/></g></g><g id="Actor_75.0"><g style="stroke:#000000;stroke-width:0.123"><path d="M79.68,150.06L79.25,149.82L79.22,149.60L79.64,149.82L79.71,149.96L79.65,150.12L79.48,150.24L79.25,150.29L79.05,150.25L78.71,150.08L71.61,156.87L64.51,163.99L64.55,164.21L69.00,166.54L68.96,166.31L64.51,163.99"/><path d="M68.96,166.31L85.77,150.24L80.99,147.90L79.22,149.60"/><path d="M69.00,166.54L85.80,150.46L85.77,150.24"/></g></g><g id="Actor_39.0"><g style="stroke:#000000;stroke-width:0.123"><path d="M234.48,35.52L221.99,32.19L222.52,28.98L222.62,28.88L235.20,32.18L235.10,32.29L234.48,35.52L234.58,35.41L235.20,32.18"/><path d="M222.52,28.98L235.10,32.29"/></g></g><g id="Actor_68.0"><g style="stroke:#000000;stroke-width:0.123"><path d="M102.19,138.62L102.17,138.39L102.98,138.46L103.81,138.33L104.31,138.14L104.91,137.71L123.44,119.64L123.44,119.87L104.93,137.95L104.33,138.37L103.56,138.63L102.73,138.70L102.19,138.62"/><path d="M102.17,138.39L122.10,119.08L123.44,119.64"/></g></g><g id="Actor_69.0"><g style="stroke:#000000;stroke-width:0.123"><path d="M166.41,113.26L166.39,113.49L151.94,107.86L151.95,107.63L175.25,83.50L188.79,88.20L188.77,88.42L188.35,88.89L187.92,88.74L187.94,88.52L187.73,88.76L188.17,88.91L166.41,113.26L151.95,107.63"/><path d="M166.39,113.49L188.14,89.12L188.17,88.91"/><path d="M188.35,88.89L188.38,88.67L187.94,88.52"/><path d="M187.86,88.80L187.92,88.74"/><path d="M188.38,88.67L188.79,88.20"/></g></g><g id="Actor_55.0"><g style="stroke:#000000;stroke-width:0.123"><path d="M210.19,45.06L201.30,42.51L201.32,42.32L210.35,44.90L209.68,45.58L210.79,45.90L210.77,46.10L209.65,45.78L209.68,45.58"/><path d="M201.32,42.32L207.61,36.23L217.51,38.97L217.48,39.16L210.77,46.10"/><path d="M202.33,42.04L207.87,36.65L216.64,39.08L211.28,44.59L202.33,42.04"/><path d="M202.46,42.08L207.84,36.85L207.87,36.65"/><path d="M207.84,36.85L216.48,39.24"/><path d="M210.79,45.90L217.51,38.97"/></g></g><g id="Actor_72.0"><g style="stroke:#000000;stroke-width:0.123"><path d="M119.02,139.73L119.17,140.46L145.28,113.50L145.28,113.73L119.18,140.69L119.01,139.62L119.02,139.73"/><path d="M119.01,139.62L119.02,139.19L119.16,138.66L119.43,138.15L119.82,137.67L143.93,112.96L145.28,113.50"/><path d="M119.17,140.46L119.18,140.69"/></g></g><g id="Actor_9.0"><g style="stroke:#000000;stroke-width:0.123"><path d="M200.89,56.95L200.86,57.15L213.30,60.94L213.34,60.73L200.89,56.95L216.53,40.74L228.27,44.01L213.34,60.73"/><path d="M213.30,60.94L228.24,44.21L228.27,44.01"/></g></g><g id="Actor_12.0"><g style="stroke:#000000;stroke-width:0.123"><path d="M103.32,136.28L88.85,129.69L88.87,129.92L103.34,136.52L103.32,136.28L123.48,116.81L123.49,117.04L103.34,136.52"/><path d="M88.85,129.69L109.56,111.00L123.48,116.81"/></g></g><g id="Actor_11.1"><g style="stroke:#000000;stroke-width:0.123"><path d="M189.05,68.53L189.07,68.32L188.68,68.02L188.49,67.67L188.48,67.44L188.66,67.13L205.25,50.12L206.38,50.45L206.35,50.66L189.05,68.53L188.77,68.33L188.57,68.11L188.46,67.88L188.46,67.64"/><path d="M189.07,68.32L206.38,50.45"/><path d="M188.46,67.65L188.48,67.44"/></g></g><g id="Actor_56.0"><g style="stroke:#000000;stroke-width:0.123"><path d="M188.45,67.82L181.14,65.46L181.11,65.73L188.59,68.14"/><path d="M181.14,65.46L198.65,48.22L205.22,50.15"/><path d="M189.37,68.20L189.35,68.38L189.23,68.34"/><path d="M189.35,68.38L206.39,50.77L206.43,50.51L206.36,50.58"/><path d="M197.60,57.96L191.15,55.98L194.57,52.61L194.54,52.87L200.75,54.74"/><path d="M194.54,52.87L191.32,56.04"/><path d="M194.57,52.61L200.95,54.53"/><path d="M206.43,50.51L206.37,50.49"/></g></g><g id="Actor_45.0"><g style="stroke:#000000;stroke-width:0.123"><path d="M222.01,32.08L221.92,32.17L213.14,29.83L213.61,26.64L213.71,26.54L222.55,28.86L222.53,28.97"/><path d="M213.61,26.64L222.45,28.96L221.92,32.17"/><path d="M222.45,28.96L222.55,28.86"/></g></g><g id="Actor_59.0"><g style="stroke:#000000;stroke-width:0.123"><path d="M126.10,131.23L117.93,127.68L145.73,100.32L153.40,103.26"/><path d="M117.93,127.68L117.95,127.97L125.90,131.44"/><path d="M127.95,129.34L120.19,125.99L126.10,120.13L133.79,123.36"/><path d="M126.10,120.13L126.10,120.42L120.38,126.07"/><path d="M126.10,120.42L133.58,123.57"/><path d="M127.62,131.98L127.62,132.18L127.48,132.12"/><path d="M127.62,132.18L154.81,104.08L154.81,103.88"/><path d="M145.28,113.65L151.15,107.58"/></g></g><g id="Actor_51.0"><g style="stroke:#000000;stroke-width:0.123"><path d="M214.48,25.49L223.30,27.79L223.26,28.04L214.45,25.74L214.48,25.49L214.85,25.15L223.65,27.44L223.61,27.69L223.26,28.04"/><path d="M223.30,27.79L223.65,27.44"/></g></g><g id="Actor_39.1"><g style="stroke:#000000;stroke-width:0.123"><path d="M201.19,26.65L201.58,23.49L213.54,26.62L213.07,29.81L201.19,26.65"/><path d="M201.58,23.49L201.69,23.39L213.64,26.52L213.63,26.62"/><path d="M213.07,29.81L213.15,29.73"/><path d="M213.54,26.62L213.64,26.52"/></g></g><g id="Actor_38.0"><g style="stroke:#000000;stroke-width:0.123"><path d="M198.30,30.00L197.87,29.88L197.90,29.63L231.59,38.77L231.54,39.03L198.30,30.00"/><path d="M197.90,29.63L200.42,27.38L212.34,30.57L210.36,32.48L219.37,34.91L221.28,32.96L233.80,36.32L233.75,36.57L231.54,39.03"/><path d="M210.53,32.52L212.30,30.82L212.34,30.57"/><path d="M231.59,38.77L233.80,36.32"/></g></g><g id="Actor_61.0"><g style="stroke:#000000;stroke-width:0.123"><path d="M98.20,150.00L98.19,149.65L98.22,149.36L98.37,148.78L98.89,148.95L99.18,148.99L99.77,149.01L100.06,148.98L100.54,148.87L100.91,148.74L101.40,148.47L101.61,148.31L111.52,153.01L110.85,153.70L110.43,154.23L110.27,154.51L110.13,154.80L110.03,155.09L109.97,155.39L109.94,155.69L109.94,155.99L110.19,157.37L99.93,152.43L99.36,152.03L99.11,151.81L98.70,151.33L98.40,150.80L98.30,150.52L98.20,150.00"/><path d="M110.19,157.37L110.21,157.66L99.96,152.72L99.39,152.33L99.14,152.11L98.72,151.62L98.56,151.36L98.33,150.81L98.26,150.53L98.19,149.95"/><path d="M109.96,156.12L109.99,155.69L110.05,155.39L110.15,155.09L110.28,154.81L110.65,154.26L111.54,153.30L111.52,153.01"/></g></g><g id="Actor_66.0"><g style="stroke:#000000;stroke-width:0.123"><path d="M77.39,177.32L78.95,175.74L79.42,175.99L80.75,174.64L80.71,174.35L76.15,171.96L71.08,177.00L66.26,174.41L66.28,170.47L68.77,168.08L68.53,167.96L64.72,171.64L65.55,172.09L65.66,172.22L65.43,173.47L65.58,173.72L65.61,173.91L65.10,177.30L66.17,177.88L65.29,178.65L68.78,180.89L68.84,181.18L65.35,178.94L65.29,178.65"/><path d="M64.70,171.63L64.76,171.92L65.64,172.40"/><path d="M65.99,178.04L65.16,177.59L65.10,177.30"/><path d="M65.43,173.47L65.51,173.83L65.60,173.96"/><path d="M66.28,170.47L66.33,170.76L66.31,174.44"/><path d="M66.33,170.76L68.82,168.37L68.77,168.08"/><path d="M71.20,182.44L68.91,181.08L68.96,181.37L71.03,182.61"/><path d="M68.84,181.18L68.92,181.11"/><path d="M68.78,180.89L69.41,180.34L69.45,180.60"/><path d="M68.91,181.08L69.60,180.46L69.41,180.34"/><path d="M74.57,179.84L75.21,179.19"/><path d="M75.43,179.31L74.79,179.96"/><path d="M78.95,175.74L78.90,175.45L77.18,177.20"/><path d="M78.90,175.45L79.38,175.70L79.42,175.99"/><path d="M79.38,175.70L80.71,174.35"/></g></g><g id="Actor_57.0"><g style="stroke:#000000;stroke-width:0.123"><path d="M201.27,45.55L201.51,43.74L209.24,45.97L208.98,47.78L201.27,45.55"/><path d="M201.51,43.74L201.62,43.63L209.36,45.85L209.24,45.97"/><path d="M208.98,47.78L209.10,47.67L209.36,45.85"/></g></g><g id="Actor_58.0"><g style="stroke:#000000;stroke-width:0.123"><path d="M177.28,84.21L183.47,77.72L182.33,77.31L181.77,76.88L181.63,76.64L181.59,76.39L181.65,76.16L181.84,75.90L173.41,73.07L151.31,94.82L151.30,95.10L158.67,97.86"/><path d="M151.31,94.82L158.88,97.65"/><path d="M160.27,98.25L160.26,98.45L160.13,98.40"/><path d="M160.26,98.45L173.33,84.93L173.75,84.64L174.32,84.46"/><path d="M174.63,84.14L174.14,84.23L173.64,84.44"/><path d="M177.46,84.27L183.45,77.99L183.47,77.72"/><path d="M181.84,75.90L181.82,76.15L181.60,76.50"/></g></g><g id="Actor_13.0"><g style="stroke:#000000;stroke-width:0.123"><path d="M202.23,73.16L209.61,64.90L196.95,60.97L188.59,69.63L188.57,69.84L201.59,74.06L202.02,73.58L202.04,73.37L201.75,73.27L201.93,73.07L201.90,73.28L202.20,73.38L202.23,73.16L201.93,73.07"/><path d="M188.59,69.63L201.60,73.85L201.59,74.06"/><path d="M201.61,73.85L202.04,73.37"/><path d="M201.90,73.28L201.87,73.31"/><path d="M202.20,73.38L209.58,65.11L209.61,64.90"/></g></g><g id="Actor_10.0"><g style="stroke:#000000;stroke-width:0.123"><path d="M130.59,111.29L130.27,111.16L155.85,86.38L157.09,86.83L131.59,111.69L130.59,111.29"/><path d="M130.27,111.16L130.27,111.39L131.59,111.92L157.08,87.04L157.09,86.83"/><path d="M131.59,111.69L131.59,111.92"/></g></g><g id="Actor_17.0"><g style="stroke:#000000;stroke-width:0.123"><path d="M118.03,145.15L117.61,143.20L118.02,144.91L132.29,151.46L132.29,151.69L118.03,145.15L118.02,144.91"/><path d="M117.61,143.20L144.51,115.33L159.25,121.28L159.24,121.51L133.59,150.23L132.59,149.78L132.59,149.54L131.94,150.27L132.90,150.71L132.94,150.96L132.29,151.69"/><path d="M121.46,144.30L121.23,144.20L121.44,144.06L121.56,144.12L121.57,144.23L121.37,144.30"/><path d="M122.92,142.77L123.03,142.70L123.02,142.59L122.89,142.53L122.70,142.61L122.71,142.72L122.92,142.77L122.82,142.77"/><path d="M126.87,145.57L126.71,145.21L126.43,144.97L125.86,144.75L125.42,144.72L124.99,144.79L124.44,145.06L124.19,145.32L124.07,145.65"/><path d="M124.07,145.38L124.08,145.71L124.35,146.12L124.87,146.41L125.30,146.48L125.74,146.46L126.34,146.25L126.75,145.88L126.88,145.42L126.79,145.11L126.58,144.84L126.26,144.64L125.64,144.49L125.20,144.51L124.60,144.72L124.30,144.95L124.07,145.38"/><path d="M128.82,147.70L128.69,147.64L128.68,147.53L128.94,147.46L129.01,147.61L128.82,147.70"/><path d="M128.90,147.69L128.79,147.69"/><path d="M130.33,146.13L130.10,146.02L130.30,145.88L130.43,145.94L130.44,146.05L130.22,146.12"/><path d="M132.29,151.46L132.94,150.73"/><path d="M132.09,150.34L132.59,149.78"/><path d="M132.59,149.54L133.59,150.00L133.59,150.23"/><path d="M133.59,150.00L159.25,121.28"/></g></g><g id="Actor_47.0"><g style="stroke:#000000;stroke-width:0.123"><path d="M236.64,30.29L239.20,27.49L226.84,24.33L224.13,27.05L236.64,30.29L236.59,30.55L224.09,27.30L224.13,27.05"/><path d="M225.86,26.79L225.89,26.83L225.78,26.87L225.69,26.84L225.66,26.80L225.76,26.77L225.86,26.79"/><path d="M226.82,25.87L226.70,25.82L226.60,25.85L226.63,25.89L226.72,25.92L226.80,25.91L226.82,25.87"/><path d="M234.58,29.08L234.56,29.13L234.63,29.16L234.73,29.17L234.79,29.14L234.71,29.08L234.58,29.08"/><path d="M235.51,28.10L235.66,28.13L235.69,28.17L235.63,28.20L235.53,28.19L235.46,28.16L235.48,28.12L235.51,28.10"/><path d="M236.59,30.55L239.07,27.83L239.20,27.49"/></g></g><g id="Actor_70.0"><g style="stroke:#000000;stroke-width:0.123"><path d="M83.76,171.40L93.54,176.48L91.78,178.36L91.81,178.64L95.83,180.74L95.79,180.45L109.05,166.12L108.63,163.87L98.14,158.71L97.57,158.31L97.09,157.85L96.72,157.34L96.39,156.50L85.84,151.34L72.92,163.74L85.11,170.03L83.76,171.40L83.80,171.69L93.37,176.66"/><path d="M84.93,170.21L72.97,164.03L72.92,163.74"/><path d="M82.40,159.54L82.47,159.44L82.40,159.34L82.25,159.33L82.13,159.41L82.18,159.56L82.40,159.54"/><path d="M86.46,155.47L86.66,155.39L86.61,155.24L86.47,155.23L86.35,155.30L86.35,155.41L86.46,155.47"/><path d="M86.89,161.86L87.02,161.98L87.17,161.94L87.24,161.83L87.10,161.72L86.95,161.75L86.89,161.86"/><path d="M88.98,167.66L88.28,167.31L94.72,160.75L103.10,164.90L96.75,171.62L88.98,167.66"/><path d="M94.72,160.75L94.76,161.03L88.49,167.41"/><path d="M91.28,157.80L91.09,157.75L91.13,157.59L91.28,157.56L91.40,157.61L91.40,157.72L91.28,157.80"/><path d="M91.78,178.36L95.79,180.45"/><path d="M94.76,161.03L102.93,165.09"/><path d="M95.83,180.74L109.07,166.40L109.05,166.12"/></g></g><g id="Actor_60.0"><g style="stroke:#000000;stroke-width:0.123"><path d="M103.32,142.07L103.34,142.36L113.30,146.98L113.28,146.69L103.32,142.07L109.00,136.47L118.86,140.93L113.28,146.69"/><path d="M113.30,146.98L118.87,141.23L118.86,140.93"/></g></g><g id="Actor_46.0"><g style="stroke:#000000;stroke-width:0.123"><path d="M215.20,24.73L218.01,22.07L206.24,19.06L203.31,21.64L203.28,21.88L215.16,24.98L215.20,24.73L203.31,21.64"/><path d="M206.47,21.85L206.38,21.85L206.31,21.79L206.37,21.76L206.51,21.78L206.53,21.82L206.47,21.85"/><path d="M207.53,20.93L207.43,20.96L207.34,20.94L207.31,20.90L207.37,20.87L207.47,20.87L207.53,20.93"/><path d="M214.80,23.99L214.91,23.96L215.00,23.98L215.03,24.02L214.97,24.05L214.87,24.05L214.80,23.99"/><path d="M215.16,24.98L217.88,22.40L218.01,22.07"/><path d="M215.99,23.11L215.98,23.08L215.88,23.04L215.77,23.08L215.84,23.13L215.94,23.14L215.99,23.11"/></g></g><g id="Actor_50.0"><g style="stroke:#000000;stroke-width:0.123"><path d="M209.17,12.57L209.31,12.45L242.27,20.58L239.99,26.54L239.86,26.68L242.15,20.71L209.17,12.57L206.98,18.32L218.72,21.30L218.85,21.18L220.73,16.26L220.70,16.12L218.72,21.30"/><path d="M220.70,16.12L229.53,18.31L227.53,23.55L239.86,26.68"/><path d="M220.75,16.21L229.50,18.38"/><path d="M242.27,20.58L242.15,20.71"/></g></g><g id="Actor_9.1"><g style="stroke:#000000;stroke-width:0.123"><path d="M177.34,50.00L189.07,53.57L205.36,37.83L205.38,37.64L194.27,34.54L177.35,49.80L177.34,50.00"/><path d="M177.35,49.80L189.09,53.36L189.07,53.57"/><path d="M189.09,53.36L205.38,37.64"/></g></g><g id="Actor_67.0"><g style="stroke:#000000;stroke-width:0.123"><path d="M69.34,184.93L68.94,184.72L68.96,184.80L80.14,190.94L80.13,190.86L69.34,184.93"/><path d="M68.94,184.72L74.05,179.56L74.83,179.99L75.65,179.16L74.86,178.74L76.66,176.93L86.75,182.30L84.94,184.21L85.89,184.74L85.04,185.64L85.08,185.93L84.64,185.69L84.60,185.40L83.95,186.09L84.40,186.33L80.13,190.86"/><path d="M75.48,179.34L74.91,179.03L74.86,178.74"/><path d="M80.14,190.94L80.59,190.53"/><path d="M80.57,185.48L80.35,185.20L80.29,185.04L80.29,184.70L80.44,184.36L80.56,184.20L80.89,183.95L81.31,183.79L81.75,183.74L81.96,183.76L82.17,183.81L82.51,183.99L82.73,184.26L82.81,184.59L82.74,184.94L82.52,185.26L82.19,185.52L81.77,185.69L81.33,185.74L80.91,185.66L80.57,185.48"/><path d="M80.32,185.12L80.39,184.82L80.61,184.50L80.94,184.24L81.35,184.08L81.79,184.03L82.21,184.10L82.55,184.28L82.68,184.41L82.81,184.65"/><path d="M82.39,188.80L82.95,188.20"/><path d="M83.90,187.19L84.44,186.62L84.40,186.33"/><path d="M84.16,186.20L84.64,185.69"/><path d="M85.08,185.93L85.93,185.03L85.89,184.74"/><path d="M85.04,185.64L84.60,185.40"/><path d="M86.75,182.30L86.79,182.59L85.15,184.33"/></g></g><g id="Actor_9.2"><g style="stroke:#000000;stroke-width:0.123"><path d="M164.02,77.77L151.40,73.42L151.41,73.20L164.03,77.56L164.02,77.77L183.99,58.47L184.01,58.27L172.09,54.55L151.41,73.20"/><path d="M164.03,77.56L184.01,58.27"/></g></g><g id="Actor_10.1"><g style="stroke:#000000;stroke-width:0.123"><path d="M164.70,78.01L165.91,78.42L165.92,78.21L185.80,58.82L184.66,58.47L164.71,77.79L164.70,78.01"/><path d="M164.71,77.79L165.92,78.21"/><path d="M165.91,78.42L185.78,59.03L185.80,58.82"/></g></g><g id="Actor_76.0"><g style="stroke:#000000;stroke-width:0.123"><path d="M77.95,193.34L87.28,197.72L89.58,195.46L89.62,195.75L89.07,196.29L87.29,197.80L77.96,193.42L77.95,193.34L82.28,188.74L82.53,188.87L83.18,188.18L82.93,188.04L82.97,188.34L83.01,188.36"/><path d="M82.93,188.04L83.79,187.13L99.92,196.09L100.23,196.39L100.44,196.76L100.52,197.17L100.47,197.59L99.24,196.92L99.27,197.21L100.50,197.88L100.47,197.59"/><path d="M87.28,197.72L87.29,197.80"/><path d="M89.62,195.75L92.05,194.95L92.27,194.91L92.57,194.96L92.81,194.92L94.35,194.35L94.32,194.06L92.78,194.63L92.54,194.67L92.24,194.62L92.01,194.66L89.58,195.46"/><path d="M94.32,194.06L99.35,196.79L99.24,196.92"/><path d="M94.35,194.35L99.25,197.01"/><path d="M100.50,197.88L100.55,197.46L100.52,197.17"/></g></g><g id="PMI65.0"><g><path style="stroke:#000000;stroke-width:0.280" d="M193.55,120.11L189.65,120.09"/></g><g><path style="fill:#000000" d="M189.65,119.09L189.64,121.09L187.64,120.07z"/></g><g><path style="fill:#ffffff" d="M193.55,122.98L212.71,122.98L212.71,117.34L193.55,117.34z"/><path style="stroke:#000000;stroke-width:0.280;stroke-opacity:0.98" d="M193.55,122.98L212.71,122.98L212.71,117.34L193.55,117.34z"/><text xml:space="preserve" fill="#000000" stroke-width="0" x="194.25" y="121.40" font-size="3.44" opacity="1.00" font-family="Microsoft Sans Serif">3900025U1</text></g></g><g id="PMI9.0"><g><path style="stroke:#000000;stroke-width:0.280" d="M191.44,38.64L203.65,39.28"/></g><g><path style="fill:#000000" d="M203.58,40.31L203.68,38.31L205.63,39.41z"/></g><g><path style="fill:#ffffff" d="M172.65,41.00L191.43,41.00L191.43,35.36L172.65,35.36z"/><path style="stroke:#000000;stroke-width:0.280;stroke-opacity:0.98" d="M172.65,41.00L191.43,41.00L191.43,35.36L172.65,35.36z"/><text xml:space="preserve" fill="#000000" stroke-width="0" x="173.36" y="39.41" font-size="3.43" opacity="1.00" font-family="Microsoft Sans Serif">3900024Z1</text></g></g><g id="PMI46.0"><g><path style="stroke:#000000;stroke-width:0.280" d="M203.95,14.01L204.02,18.62"/></g><g><path style="fill:#000000" d="M203.01,18.65L205.01,18.62L204.04,20.63z"/></g><g><path style="fill:#ffffff" d="M194.61,14.02L213.19,14.02L213.19,8.38L194.61,8.38z"/><path style="stroke:#000000;stroke-width:0.280;stroke-opacity:0.98" d="M194.61,14.02L213.19,14.02L213.19,8.38L194.61,8.38z"/><text xml:space="preserve" fill="#000000" stroke-width="0" x="195.31" y="12.44" font-size="3.10" opacity="1.00" font-family="Microsoft Sans Serif">390002591</text></g></g><g id="PMI54.0"><g><path style="stroke:#000000;stroke-width:0.280" d="M242.15,11.36L241.96,15.45"/></g><g><path style="fill:#000000" d="M240.95,15.42L242.95,15.51L241.86,17.46z"/></g><g><path style="fill:#ffffff" d="M232.69,11.38L251.85,11.38L251.85,5.73L232.69,5.73z"/><path style="stroke:#000000;stroke-width:0.280;stroke-opacity:0.98" d="M232.69,11.38L251.85,11.38L251.85,5.73L232.69,5.73z"/><text xml:space="preserve" fill="#000000" stroke-width="0" x="233.39" y="9.79" font-size="3.44" opacity="1.00" font-family="Microsoft Sans Serif">3900025D1</text></g></g><g id="PMI67.0"><g><path style="stroke:#000000;stroke-width:0.280" d="M68.50,188.20L72.16,188.11"/></g><g><path style="fill:#000000" d="M72.21,189.09L72.16,187.09L74.18,188.04z"/></g><g><path style="fill:#ffffff" d="M49.94,191.22L68.53,191.22L68.53,185.57L49.94,185.57z"/><path style="stroke:#000000;stroke-width:0.280;stroke-opacity:0.98" d="M49.94,191.22L68.53,191.22L68.53,185.57L49.94,185.57z"/><text xml:space="preserve" fill="#000000" stroke-width="0" x="50.65" y="189.63" font-size="3.43" opacity="1.00" font-family="Microsoft Sans Serif">3900025L1</text></g></g><g id="PMI25.0"><g><path style="stroke:#000000;stroke-width:0.280" d="M188.61,30.44L197.29,30.40"/></g><g><path style="fill:#000000" d="M197.28,31.43L197.27,29.43L199.28,30.42z"/></g><g><path style="fill:#ffffff" d="M170.01,33.33L188.60,33.33L188.60,27.69L170.01,27.69z"/><path style="stroke:#000000;stroke-width:0.280;stroke-opacity:0.98" d="M170.01,33.33L188.60,33.33L188.60,27.69L170.01,27.69z"/><text xml:space="preserve" fill="#000000" stroke-width="0" x="170.72" y="31.74" font-size="3.10" opacity="1.00" font-family="Microsoft Sans Serif">390002541</text></g></g><g id="PMI51.0"><g><path style="stroke:#000000;stroke-width:0.280" d="M198.45,24.72L212.48,25.58"/></g><g><path style="fill:#000000" d="M212.39,26.62L212.51,24.62L214.45,25.74z"/></g><g><path style="fill:#ffffff" d="M179.27,26.98L198.42,26.98L198.42,21.34L179.27,21.34z"/><path style="stroke:#000000;stroke-width:0.280;stroke-opacity:0.98" d="M179.27,26.98L198.42,26.98L198.42,21.34L179.27,21.34z"/><text xml:space="preserve" fill="#000000" stroke-width="0" x="179.97" y="25.39" font-size="3.44" opacity="1.00" font-family="Microsoft Sans Serif">3900025C1</text></g></g><g id="PMI50.0"><g><path style="stroke:#000000;stroke-width:0.280" d="M258.63,22.09L243.61,22.19"/></g><g><path style="fill:#000000" d="M243.59,21.21L243.60,23.21L241.59,22.22z"/></g><g><path style="fill:#ffffff" d="M258.61,24.87L277.58,24.87L277.58,19.22L258.61,19.22z"/><path style="stroke:#000000;stroke-width:0.280;stroke-opacity:0.98" d="M258.61,24.87L277.58,24.87L277.58,19.22L258.61,19.22z"/><text xml:space="preserve" fill="#000000" stroke-width="0" x="259.31" y="23.28" font-size="3.44" opacity="1.00" font-family="Microsoft Sans Serif">3900025B1</text></g></g><g id="PMI47.0"><g><path style="stroke:#000000;stroke-width:0.280" d="M269.50,28.92L237.50,28.15"/></g><g><path style="fill:#000000" d="M237.48,27.18L237.43,29.18L235.46,28.13z"/></g><g><path style="fill:#ffffff" d="M269.45,32.01L288.42,32.01L288.42,26.36L269.45,26.36z"/><path style="stroke:#000000;stroke-width:0.280;stroke-opacity:0.98" d="M269.45,32.01L288.42,32.01L288.42,26.36L269.45,26.36z"/><text xml:space="preserve" fill="#000000" stroke-width="0" x="270.16" y="30.42" font-size="3.44" opacity="1.00" font-family="Microsoft Sans Serif">3900025A1</text></g></g><g id="PMI45.0"><g><path style="stroke:#000000;stroke-width:0.280" d="M222.21,9.50L222.53,26.84"/></g><g><path style="fill:#000000" d="M221.51,26.88L223.51,26.84L222.55,28.86z"/></g><g><path style="fill:#ffffff" d="M212.85,9.53L231.44,9.53L231.44,3.88L212.85,3.88z"/><path style="stroke:#000000;stroke-width:0.280;stroke-opacity:0.98" d="M212.85,9.53L231.44,9.53L231.44,3.88L212.85,3.88z"/><text xml:space="preserve" fill="#000000" stroke-width="0" x="213.56" y="7.94" font-size="3.10" opacity="1.00" font-family="Microsoft Sans Serif">390002581</text></g></g><g id="PMI39.0"><g><path style="stroke:#000000;stroke-width:0.280" d="M245.13,33.51L235.94,33.35"/></g><g><path style="fill:#000000" d="M235.94,32.36L235.91,34.36L233.92,33.33z"/></g><g><path style="fill:#ffffff" d="M245.12,36.50L263.71,36.50L263.71,30.86L245.12,30.86z"/><path style="stroke:#000000;stroke-width:0.280;stroke-opacity:0.98" d="M245.12,36.50L263.71,36.50L263.71,30.86L245.12,30.86z"/><text xml:space="preserve" fill="#000000" stroke-width="0" x="245.82" y="34.92" font-size="3.10" opacity="1.00" font-family="Microsoft Sans Serif">390002561</text></g></g><g id="PMI25.1"><g><path style="stroke:#000000;stroke-width:0.280" d="M241.96,40.16L232.78,40.04"/></g><g><path style="fill:#000000" d="M232.78,39.05L232.76,41.05L230.77,40.03z"/></g><g><path style="fill:#ffffff" d="M241.95,43.11L260.53,43.11L260.53,37.47L241.95,37.47z"/><path style="stroke:#000000;stroke-width:0.280;stroke-opacity:0.98" d="M241.95,43.11L260.53,43.11L260.53,37.47L241.95,37.47z"/><text xml:space="preserve" fill="#000000" stroke-width="0" x="242.65" y="41.53" font-size="3.10" opacity="1.00" font-family="Microsoft Sans Serif">390002541</text></g></g><g id="PMI55.0"><g><path style="stroke:#000000;stroke-width:0.280" d="M220.53,44.81L213.29,44.63"/></g><g><path style="fill:#000000" d="M213.30,43.64L213.25,45.64L211.28,44.59z"/></g><g><path style="fill:#ffffff" d="M220.52,47.87L239.49,47.87L239.49,42.23L220.52,42.23z"/><path style="stroke:#000000;stroke-width:0.280;stroke-opacity:0.98" d="M220.52,47.87L239.49,47.87L239.49,42.23L220.52,42.23z"/><text xml:space="preserve" fill="#000000" stroke-width="0" x="221.23" y="46.29" font-size="3.44" opacity="1.00" font-family="Microsoft Sans Serif">3900025E1</text></g></g><g id="PMI57.0"><g><path style="stroke:#000000;stroke-width:0.280" d="M200.97,45.89L207.26,45.93"/></g><g><path style="fill:#000000" d="M207.24,46.95L207.25,44.95L209.24,45.97z"/></g><g><path style="fill:#ffffff" d="M182.18,48.67L200.95,48.67L200.95,43.03L182.18,43.03z"/><path style="stroke:#000000;stroke-width:0.280;stroke-opacity:0.98" d="M182.18,48.67L200.95,48.67L200.95,43.03L182.18,43.03z"/><text xml:space="preserve" fill="#000000" stroke-width="0" x="182.88" y="47.08" font-size="3.43" opacity="1.00" font-family="Microsoft Sans Serif">3900025F1</text></g></g><g id="PMI71.0"><g><path style="stroke:#000000;stroke-width:0.280" d="M178.15,54.35L186.73,54.63"/></g><g><path style="fill:#000000" d="M186.68,55.65L186.75,53.65L188.71,54.72z"/></g><g><path style="fill:#ffffff" d="M159.17,56.87L178.14,56.87L178.14,51.22L159.17,51.22z"/><path style="stroke:#000000;stroke-width:0.280;stroke-opacity:0.98" d="M159.17,56.87L178.14,56.87L178.14,51.22L159.17,51.22z"/><text xml:space="preserve" fill="#000000" stroke-width="0" x="159.87" y="55.28" font-size="3.44" opacity="1.00" font-family="Microsoft Sans Serif">3900025P1</text></g></g><g id="PMI56.0"><g><path style="stroke:#000000;stroke-width:0.280" d="M207.31,58.00L200.51,58.18"/></g><g><path style="fill:#000000" d="M200.47,57.19L200.53,59.18L198.50,58.24z"/></g><g><path style="fill:#ffffff" d="M207.30,60.57L227.23,60.57L227.23,54.93L207.30,54.93z"/><path style="stroke:#000000;stroke-width:0.280;stroke-opacity:0.98" d="M207.30,60.57L227.23,60.57L227.23,54.93L207.30,54.93z"/><text xml:space="preserve" fill="#000000" stroke-width="0" x="208.01" y="58.98" font-size="3.44" opacity="1.00" font-family="Microsoft Sans Serif">3900025W1</text></g></g><g id="PMI63.0"><g><path style="stroke:#000000;stroke-width:0.280" d="M194.08,110.08L187.59,110.05"/></g><g><path style="fill:#000000" d="M187.59,109.05L187.58,111.05L185.58,110.04z"/></g><g><path style="fill:#ffffff" d="M194.08,112.93L213.05,112.93L213.05,107.29L194.08,107.29z"/><path style="stroke:#000000;stroke-width:0.280;stroke-opacity:0.98" d="M194.08,112.93L213.05,112.93L213.05,107.29L194.08,107.29z"/><text xml:space="preserve" fill="#000000" stroke-width="0" x="194.78" y="111.35" font-size="3.44" opacity="1.00" font-family="Microsoft Sans Serif">3900025V1</text></g></g><g id="PMI64.0"><g><path style="stroke:#000000;stroke-width:0.280" d="M172.13,117.89L174.65,117.99"/></g><g><path style="fill:#000000" d="M174.60,118.99L174.68,116.99L176.64,118.07z"/></g><g><path style="fill:#ffffff" d="M153.35,120.34L172.12,120.34L172.12,114.70L153.35,114.70z"/><path style="stroke:#000000;stroke-width:0.280;stroke-opacity:0.98" d="M153.35,120.34L172.12,120.34L172.12,114.70L153.35,114.70z"/><text xml:space="preserve" fill="#000000" stroke-width="0" x="154.05" y="118.75" font-size="3.43" opacity="1.00" font-family="Microsoft Sans Serif">3900025T1</text></g></g><g id="PMI13.0"><g><path style="stroke:#000000;stroke-width:0.280" d="M209.95,73.68L203.91,73.38"/></g><g><path style="fill:#000000" d="M203.95,72.38L203.85,74.38L201.90,73.28z"/></g><g><path style="fill:#ffffff" d="M209.95,76.97L228.53,76.97L228.53,71.32L209.95,71.32z"/><path style="stroke:#000000;stroke-width:0.280;stroke-opacity:0.98" d="M209.95,76.97L228.53,76.97L228.53,71.32L209.95,71.32z"/><text xml:space="preserve" fill="#000000" stroke-width="0" x="210.65" y="75.38" font-size="3.10" opacity="1.00" font-family="Microsoft Sans Serif">390002511</text></g></g><g id="PMI15.0"><g><path style="stroke:#000000;stroke-width:0.280" d="M133.32,80.35L141.60,80.46"/></g><g><path style="fill:#000000" d="M141.59,81.47L141.62,79.47L143.60,80.50z"/></g><g><path style="fill:#ffffff" d="M114.74,83.05L133.32,83.05L133.32,77.41L114.74,77.41z"/><path style="stroke:#000000;stroke-width:0.280;stroke-opacity:0.98" d="M114.74,83.05L133.32,83.05L133.32,77.41L114.74,77.41z"/><text xml:space="preserve" fill="#000000" stroke-width="0" x="115.44" y="81.46" font-size="3.10" opacity="1.00" font-family="Microsoft Sans Serif">390002521</text></g></g><g id="PMI58.0"><g><path style="stroke:#000000;stroke-width:0.280" d="M173.35,90.89L173.36,86.66"/></g><g><path style="fill:#000000" d="M174.35,86.66L172.35,86.66L173.36,84.66z"/></g><g><path style="fill:#ffffff" d="M163.66,96.54L183.01,96.54L183.01,90.89L163.66,90.89z"/><path style="stroke:#000000;stroke-width:0.280;stroke-opacity:0.98" d="M163.66,96.54L183.01,96.54L183.01,90.89L163.66,90.89z"/><text xml:space="preserve" fill="#000000" stroke-width="0" x="164.37" y="94.95" font-size="3.44" opacity="1.00" font-family="Microsoft Sans Serif">3900025G1</text></g></g><g id="PMI11.0"><g><path style="stroke:#000000;stroke-width:0.280" d="M172.24,73.52L172.39,81.76"/></g><g><path style="fill:#000000" d="M171.38,81.78L173.38,81.75L172.42,83.77z"/></g><g><path style="fill:#ffffff" d="M162.60,73.53L181.76,73.53L181.76,67.89L162.60,67.89z"/><path style="stroke:#000000;stroke-width:0.280;stroke-opacity:0.98" d="M162.60,73.53L181.76,73.53L181.76,67.89L162.60,67.89z"/><text xml:space="preserve" fill="#000000" stroke-width="0" x="163.31" y="71.94" font-size="3.44" opacity="1.00" font-family="Microsoft Sans Serif">3900025R1</text></g></g><g id="PMI10.0"><g><path style="stroke:#000000;stroke-width:0.280" d="M149.43,86.16L153.84,86.46"/></g><g><path style="fill:#000000" d="M153.77,87.46L153.91,85.47L155.84,86.60z"/></g><g><path style="fill:#ffffff" d="M130.08,88.34L149.43,88.34L149.43,82.70L130.08,82.70z"/><path style="stroke:#000000;stroke-width:0.280;stroke-opacity:0.98" d="M130.08,88.34L149.43,88.34L149.43,82.70L130.08,82.70z"/><text xml:space="preserve" fill="#000000" stroke-width="0" x="130.78" y="86.75" font-size="3.44" opacity="1.00" font-family="Microsoft Sans Serif">3900025O1</text></g></g><g id="PMI69.0"><g><path style="stroke:#000000;stroke-width:0.280" d="M193.02,89.06L189.71,89.01"/></g><g><path style="fill:#000000" d="M189.73,88.01L189.69,90.01L187.71,88.97z"/></g><g><path style="fill:#ffffff" d="M193.02,92.04L212.18,92.04L212.18,86.40L193.02,86.40z"/><path style="stroke:#000000;stroke-width:0.280;stroke-opacity:0.98" d="M193.02,92.04L212.18,92.04L212.18,86.40L193.02,86.40z"/><text xml:space="preserve" fill="#000000" stroke-width="0" x="193.72" y="90.45" font-size="3.44" opacity="1.00" font-family="Microsoft Sans Serif">3900029N1</text></g></g><g id="PMI12.0"><g><path style="stroke:#000000;stroke-width:0.280" d="M100.77,111.20L107.56,111.22"/></g><g><path style="fill:#000000" d="M107.57,112.22L107.57,110.22L109.57,111.23z"/></g><g><path style="fill:#ffffff" d="M82.21,113.99L100.79,113.99L100.79,108.35L82.21,108.35z"/><path style="stroke:#000000;stroke-width:0.280;stroke-opacity:0.98" d="M82.21,113.99L100.79,113.99L100.79,108.35L82.21,108.35z"/><text xml:space="preserve" fill="#000000" stroke-width="0" x="82.91" y="112.41" font-size="3.10" opacity="1.00" font-family="Microsoft Sans Serif">390002501</text></g></g><g id="PMI59.0"><g><path style="stroke:#000000;stroke-width:0.280" d="M134.70,116.37L134.85,121.83"/></g><g><path style="fill:#000000" d="M133.85,121.85L135.85,121.80L134.90,123.83z"/></g><g><path style="fill:#ffffff" d="M125.05,116.37L144.21,116.37L144.21,110.73L125.05,110.73z"/><path style="stroke:#000000;stroke-width:0.280;stroke-opacity:0.98" d="M125.05,116.37L144.21,116.37L144.21,110.73L125.05,110.73z"/><text xml:space="preserve" fill="#000000" stroke-width="0" x="125.76" y="114.79" font-size="3.44" opacity="1.00" font-family="Microsoft Sans Serif">3900025H1</text></g></g><g id="PMI70.0"><g><path style="stroke:#000000;stroke-width:0.280" d="M89.69,146.53L89.76,152.73"/></g><g><path style="fill:#000000" d="M88.77,152.73L90.77,152.71L89.79,154.72z"/></g><g><path style="fill:#ffffff" d="M80.09,146.52L99.25,146.52L99.25,140.88L80.09,140.88z"/><path style="stroke:#000000;stroke-width:0.280;stroke-opacity:0.98" d="M80.09,146.52L99.25,146.52L99.25,140.88L80.09,140.88z"/><text xml:space="preserve" fill="#000000" stroke-width="0" x="80.80" y="144.93" font-size="3.44" opacity="1.00" font-family="Microsoft Sans Serif">3900030N1</text></g></g><g id="PMI72.0"><g><path style="stroke:#000000;stroke-width:0.280" d="M131.92,138.09L121.81,137.75"/></g><g><path style="fill:#000000" d="M121.85,136.74L121.78,138.74L119.82,137.67z"/></g><g><path style="fill:#ffffff" d="M131.93,141.23L151.28,141.23L151.28,135.59L131.93,135.59z"/><path style="stroke:#000000;stroke-width:0.280;stroke-opacity:0.98" d="M131.93,141.23L151.28,141.23L151.28,135.59L131.93,135.59z"/><text xml:space="preserve" fill="#000000" stroke-width="0" x="132.63" y="139.65" font-size="3.44" opacity="1.00" font-family="Microsoft Sans Serif">3900025Q1</text></g></g><g id="PMI68.0"><g><path style="stroke:#000000;stroke-width:0.280" d="M83.88,138.03L102.89,137.76"/></g><g><path style="fill:#000000" d="M102.93,138.74L102.90,136.74L104.91,137.71z"/></g><g><path style="fill:#ffffff" d="M64.75,140.97L83.91,140.97L83.91,135.32L64.75,135.32z"/><path style="stroke:#000000;stroke-width:0.280;stroke-opacity:0.98" d="M64.75,140.97L83.91,140.97L83.91,135.32L64.75,135.32z"/><text xml:space="preserve" fill="#000000" stroke-width="0" x="65.46" y="139.38" font-size="3.44" opacity="1.00" font-family="Microsoft Sans Serif">3900025N1</text></g></g><g id="PMI75.0"><g><path style="stroke:#000000;stroke-width:0.280" d="M63.90,156.68L69.59,156.84"/></g><g><path style="fill:#000000" d="M69.59,157.82L69.64,155.82L71.61,156.87z"/></g><g><path style="fill:#ffffff" d="M44.39,159.22L63.93,159.22L63.93,153.57L44.39,153.57z"/><path style="stroke:#000000;stroke-width:0.280;stroke-opacity:0.98" d="M44.39,159.22L63.93,159.22L63.93,153.57L44.39,153.57z"/><text xml:space="preserve" fill="#000000" stroke-width="0" x="45.09" y="157.63" font-size="3.44" opacity="1.00" font-family="Microsoft Sans Serif">3900025M1</text></g></g><g id="PMI61.0"><g><path style="stroke:#000000;stroke-width:0.280" d="M100.17,159.40L100.24,154.89"/></g><g><path style="fill:#000000" d="M101.25,154.90L99.25,154.87L100.28,152.89z"/></g><g><path style="fill:#ffffff" d="M90.93,165.04L109.32,165.04L109.32,159.39L90.93,159.39z"/><path style="stroke:#000000;stroke-width:0.280;stroke-opacity:0.98" d="M90.93,165.04L109.32,165.04L109.32,159.39L90.93,159.39z"/><text xml:space="preserve" fill="#000000" stroke-width="0" x="91.64" y="163.45" font-size="3.43" opacity="1.00" font-family="Microsoft Sans Serif">3900025J1</text></g></g><g id="PMI60.0"><g><path style="stroke:#000000;stroke-width:0.280" d="M113.47,166.81L113.33,148.80"/></g><g><path style="fill:#000000" d="M114.34,148.78L112.34,148.79L113.33,146.79z"/></g><g><path style="fill:#ffffff" d="M104.69,172.44L122.31,172.44L122.31,166.80L104.69,166.80z"/><path style="stroke:#000000;stroke-width:0.280;stroke-opacity:0.98" d="M104.69,172.44L122.31,172.44L122.31,166.80L104.69,166.80z"/><text xml:space="preserve" fill="#000000" stroke-width="0" x="105.39" y="170.85" font-size="3.43" opacity="1.00" font-family="Microsoft Sans Serif">3900025I1</text></g></g><g id="PMI17.0"><g><path style="stroke:#000000;stroke-width:0.280" d="M145.68,145.78L132.37,146.10"/></g><g><path style="fill:#000000" d="M132.35,145.09L132.40,147.09L130.38,146.14z"/></g><g><path style="fill:#ffffff" d="M145.68,148.37L164.27,148.37L164.27,142.73L145.68,142.73z"/><path style="stroke:#000000;stroke-width:0.280;stroke-opacity:0.98" d="M145.68,148.37L164.27,148.37L164.27,142.73L145.68,142.73z"/><text xml:space="preserve" fill="#000000" stroke-width="0" x="146.38" y="146.79" font-size="3.10" opacity="1.00" font-family="Microsoft Sans Serif">390002531</text></g></g><g id="PMI62.0"><g><path style="stroke:#000000;stroke-width:0.280" d="M111.29,186.08L106.59,185.98"/></g><g><path style="fill:#000000" d="M106.62,184.97L106.58,186.97L104.60,185.93z"/></g><g><path style="fill:#ffffff" d="M111.30,189.10L130.27,189.10L130.27,183.46L111.30,183.46z"/><path style="stroke:#000000;stroke-width:0.280;stroke-opacity:0.98" d="M111.30,189.10L130.27,189.10L130.27,183.46L111.30,183.46z"/><text xml:space="preserve" fill="#000000" stroke-width="0" x="112.00" y="187.51" font-size="3.44" opacity="1.00" font-family="Microsoft Sans Serif">3900025S1</text></g></g><g id="PMI66.0"><g><path style="stroke:#000000;stroke-width:0.280" d="M58.04,177.50L66.87,177.92"/></g><g><path style="fill:#000000" d="M66.85,178.90L66.94,176.90L68.89,177.99z"/></g><g><path style="fill:#ffffff" d="M39.10,179.85L58.07,179.85L58.07,174.20L39.10,174.20z"/><path style="stroke:#000000;stroke-width:0.280;stroke-opacity:0.98" d="M39.10,179.85L58.07,179.85L58.07,174.20L39.10,174.20z"/><text xml:space="preserve" fill="#000000" stroke-width="0" x="39.80" y="178.26" font-size="3.44" opacity="1.00" font-family="Microsoft Sans Serif">3900025K1</text></g></g><g id="PMI76.0"><g><path style="stroke:#000000;stroke-width:0.280" d="M90.15,202.25L89.78,197.76"/></g><g><path style="fill:#000000" d="M90.78,197.66L88.79,197.83L89.62,195.75z"/></g><g><path style="fill:#ffffff" d="M80.62,207.88L100.16,207.88L100.16,202.24L80.62,202.24z"/><path style="stroke:#000000;stroke-width:0.280;stroke-opacity:0.98" d="M80.62,207.88L100.16,207.88L100.16,202.24L80.62,202.24z"/><text xml:space="preserve" fill="#000000" stroke-width="0" x="81.32" y="206.29" font-size="3.44" opacity="1.00" font-family="Microsoft Sans Serif">3900029M1</text></g></g><g/><g id="paperID" visibility="hidden" opacity="0.00" transform="scale(0.000100)"><path style="stroke:#000000;stroke-width:0.500;fill:#e6e6e6;fill-rule:evenodd" d="M-2000.00,-2000.00L2297.00,-2000.00L2297.00,2210.00L-2000.00,2210.00zM0.00,0.00L297.00,0.00L297.00,210.00L0.00,210.00z"/><path style="fill:#000000;fill-opacity:0.118" d="M3.00,210.00L297.00,210.00L297.00,3.00L300.00,3.00L300.00,213.00L3.00,213.00z"/></g><g id="hotspot.0" onmouseover="ShowHotSpot(evt,'0')" onmouseout="HideHotSpot(evt,'0')" onmousemove="ShowToolTip(evt,'0',&quot;3dp2379635&quot;)" opacity="0"><path style="fill:#00ff00;fill-rule:evenodd" d="M185.62,58.79L185.60,59.15L184.16,60.39L175.41,69.09L173.05,71.23L166.16,78.12L165.46,78.15L164.84,77.90L164.92,77.43L178.08,64.62L180.43,62.48L184.41,58.51L185.34,58.50zM149.63,82.57L149.78,85.60L150.09,85.81L153.61,86.06L153.61,86.37L149.78,86.28L149.62,88.00L149.33,88.51L130.02,88.44L130.02,82.41L149.37,82.31zM157.03,86.80L153.19,90.78L150.84,92.92L142.35,101.36L139.99,103.50L131.78,111.70L131.36,111.73L130.46,111.23L130.54,110.75L143.96,97.68L146.32,95.54L152.43,89.48L154.95,87.20L155.15,86.81L154.26,87.13L153.75,87.13L154.10,85.49z"/></g><g id="hotspot.1" onmouseover="ShowHotSpot(evt,'1')" onmouseout="HideHotSpot(evt,'1')" onmousemove="ShowToolTip(evt,'1',&quot;3dp2380484&quot;)" opacity="0"><path style="fill:#00ff00;fill-rule:evenodd" d="M206.22,50.36L206.24,50.68L202.52,54.42L200.38,56.77L194.32,62.88L189.44,68.06L188.66,68.17L188.75,66.82L195.35,60.21L197.49,57.85L205.31,50.05zM181.90,67.76L181.88,73.71L172.51,73.87L172.59,81.41L172.28,81.41L171.83,73.87L162.55,73.63L162.55,67.60L181.63,67.50zM171.47,81.78L173.16,81.81L172.68,83.32L172.28,83.22zM150.03,107.00L150.11,106.52L163.35,93.00L165.49,90.65L172.68,83.32L174.49,83.14L174.51,83.47L170.25,87.74L168.11,90.09L162.05,96.20L159.91,98.56L153.33,105.19L151.62,107.21L150.64,107.23z"/></g><g id="hotspot.2" onmouseover="ShowHotSpot(evt,'2')" onmouseout="HideHotSpot(evt,'2')" onmousemove="ShowToolTip(evt,'2',&quot;3dp2378583&quot;)" opacity="0"><path style="fill:#00ff00;fill-rule:evenodd" d="M100.97,108.22L101.11,110.73L107.53,110.69L108.06,110.33L108.61,110.64L109.55,110.93L123.41,116.72L118.28,121.99L115.93,124.13L110.35,129.66L107.99,131.80L103.48,136.30L103.06,136.32L88.93,129.74L89.02,129.26L90.38,128.20L105.96,114.16L108.05,111.97L107.53,111.45L101.11,111.42L100.95,114.17L82.15,114.09L82.15,108.07L100.71,107.96z"/></g><g id="hotspot.3" onmouseover="ShowHotSpot(evt,'3')" onmouseout="HideHotSpot(evt,'3')" onmousemove="ShowToolTip(evt,'3',&quot;3dp2378587&quot;)" opacity="0"><path style="fill:#00ff00;fill-rule:evenodd" d="M208.30,64.37L209.42,64.87L209.41,65.23L205.40,69.73L203.27,71.87L203.19,72.38L203.83,72.33L204.00,72.89L209.65,73.18L209.89,71.04L228.45,70.93L228.71,71.20L228.69,77.15L209.89,77.06L209.65,73.87L204.00,73.63L203.81,74.21L202.25,73.34L201.87,73.58L200.63,73.63L188.64,69.71L188.72,69.23L194.82,63.12L196.85,60.89z"/></g><g id="hotspot.4" onmouseover="ShowHotSpot(evt,'4')" onmouseout="HideHotSpot(evt,'4')" onmousemove="ShowToolTip(evt,'4',&quot;3dp2378588&quot;)" opacity="0"><path style="fill:#00ff00;fill-rule:evenodd" d="M133.50,77.28L133.64,79.79L136.64,79.96L141.40,80.03L141.67,79.41L142.19,79.69L156.49,84.74L156.53,85.05L155.33,86.04L149.76,91.57L147.40,93.71L141.82,99.24L139.47,101.38L132.05,108.78L130.81,108.80L118.03,103.56L118.11,103.08L140.87,82.69L142.18,81.29L141.38,80.78L133.64,80.48L133.48,83.23L114.68,83.15L114.68,77.12L133.24,77.02z"/></g><g id="hotspot.5" onmouseover="ShowHotSpot(evt,'5')" onmouseout="HideHotSpot(evt,'5')" onmousemove="ShowToolTip(evt,'5',&quot;3dp2378589&quot;)" opacity="0"><path style="fill:#00ff00;fill-rule:evenodd" d="M159.17,121.20L159.16,121.57L157.19,123.60L137.85,145.28L145.38,145.38L145.62,142.45L164.18,142.34L164.44,142.61L164.42,148.55L145.62,148.47L145.38,146.07L137.33,146.06L133.90,149.78L132.39,149.85L132.41,150.29L132.92,150.56L132.57,151.38L131.88,151.39L118.14,145.01L117.85,144.24L117.87,142.73L122.36,138.23L124.50,135.87L129.76,130.56L131.90,128.20L137.17,122.89L139.31,120.53L144.49,115.37L145.10,115.37zM126.65,144.97L126.89,145.63L126.51,146.08L124.48,146.08L124.20,145.80L124.20,145.12L124.64,144.74L126.34,144.74z"/></g><g id="hotspot.6" onmouseover="ShowHotSpot(evt,'6')" onmouseout="HideHotSpot(evt,'6')" onmousemove="ShowToolTip(evt,'6',&quot;3dp2378590&quot;)" opacity="0"><path style="fill:#00ff00;fill-rule:evenodd" d="M188.78,27.56L188.91,30.07L196.96,30.24L197.06,30.68L188.91,30.76L188.75,33.51L169.95,33.43L169.95,27.40L188.51,27.30zM199.06,30.24L198.45,30.77L198.74,31.05L229.99,39.50L231.52,39.51L232.65,38.99L232.83,39.56L241.65,39.59L241.89,37.19L260.45,37.08L260.71,37.35L260.69,43.29L241.89,43.21L241.65,40.28L232.84,40.32L232.61,40.63L232.13,40.59L231.08,40.01L230.51,41.18L228.66,40.84L196.91,32.09L197.06,30.68L197.47,29.42z"/></g><g id="hotspot.7" onmouseover="ShowHotSpot(evt,'7')" onmouseout="HideHotSpot(evt,'7')" onmousemove="ShowToolTip(evt,'7',&quot;3dp2378591&quot;)" opacity="0"><path style="fill:#00ff00;fill-rule:evenodd" d="M212.27,30.50L210.58,32.35L218.35,34.48L219.59,34.46L221.18,32.85L233.48,36.05L233.73,36.28L231.75,38.70L230.78,38.73L197.89,29.78L197.98,29.29L199.48,28.10L200.29,27.30L200.90,27.31z"/></g><g id="hotspot.8" onmouseover="ShowHotSpot(evt,'8')" onmouseout="HideHotSpot(evt,'8')" onmousemove="ShowToolTip(evt,'8',&quot;3dp2378592 (I_VÁN SÀN 08.4)&quot;)" opacity="0"><path style="fill:#00ff00;fill-rule:evenodd" d="M212.27,26.02L213.62,26.48L213.06,29.55L210.15,28.93L201.43,26.54L201.44,24.77L201.62,23.33L202.21,23.34zM234.51,31.81L235.24,32.43L235.82,32.39L236.00,32.95L244.82,32.98L245.06,30.58L263.62,30.47L263.88,30.73L263.86,36.68L245.06,36.60L244.82,33.67L236.01,33.71L235.79,34.02L234.95,33.93L234.51,35.32L222.29,32.10L221.99,31.82L222.50,28.90L223.38,28.91z"/></g><g id="hotspot.9" onmouseover="ShowHotSpot(evt,'9')" onmouseout="HideHotSpot(evt,'9')" onmousemove="ShowToolTip(evt,'9',&quot;3dp2378594&quot;)" opacity="0"><path style="fill:#00ff00;fill-rule:evenodd" d="M231.62,3.76L231.60,9.71L222.50,9.86L222.79,26.62L223.36,26.80L222.85,27.94L221.98,31.86L221.28,31.85L213.33,29.72L213.34,28.47L213.60,26.60L214.39,26.52L221.26,28.40L222.36,28.39L221.76,27.32L221.73,26.84L222.04,26.61L222.06,14.37L221.81,9.86L212.80,9.62L212.80,3.60L231.36,3.49z"/></g><g id="hotspot.10" onmouseover="ShowHotSpot(evt,'10')" onmouseout="HideHotSpot(evt,'10')" onmousemove="ShowToolTip(evt,'10',&quot;3dp2378595&quot;)" opacity="0"><path style="fill:#00ff00;fill-rule:evenodd" d="M213.37,8.25L213.35,14.20L204.25,14.36L204.28,18.42L204.85,18.60L204.08,20.27L203.85,20.21L203.25,19.12L203.21,18.64L203.52,18.41L203.56,14.36L194.55,14.12L194.55,8.10L213.11,7.99zM217.61,21.77L217.86,22.00L215.35,24.70L214.67,24.71L203.52,21.77L203.54,21.36L206.10,19.12L207.26,19.13z"/></g><g id="hotspot.11" onmouseover="ShowHotSpot(evt,'11')" onmouseout="HideHotSpot(evt,'11')" onmousemove="ShowToolTip(evt,'11',&quot;3dp2378596&quot;)" opacity="0"><path style="fill:#00ff00;fill-rule:evenodd" d="M238.20,27.07L239.19,27.66L242.43,27.86L269.15,28.48L269.39,26.08L288.20,25.99L288.71,26.27L288.73,31.67L288.45,32.17L269.39,32.10L269.15,29.17L238.35,28.36L236.77,30.25L236.09,30.26L224.68,27.35L224.07,27.05L226.72,24.40L227.88,24.42z"/></g><g id="hotspot.12" onmouseover="ShowHotSpot(evt,'12')" onmouseout="HideHotSpot(evt,'12')" onmousemove="ShowToolTip(evt,'12',&quot;3dp2378777&quot;)" opacity="0"><path style="fill:#00ff00;fill-rule:evenodd" d="M242.17,20.47L242.22,20.78L241.87,21.35L241.89,21.87L243.16,21.20L243.49,21.22L243.51,22.92L242.16,22.27L241.57,22.29L240.04,26.36L238.98,26.28L227.52,23.37L229.46,18.32L221.53,16.22L220.67,16.22L218.87,21.08L215.97,20.46L207.16,18.14L207.24,17.36L209.26,12.48L210.16,12.52zM277.87,19.13L277.89,24.53L277.60,25.03L258.55,24.96L258.31,22.29L243.89,22.10L243.89,21.80L258.31,21.61L258.55,18.94L277.36,18.85z"/></g><g id="hotspot.13" onmouseover="ShowHotSpot(evt,'13')" onmouseout="HideHotSpot(evt,'13')" onmousemove="ShowToolTip(evt,'13',&quot;3dp2378778&quot;)" opacity="0"><path style="fill:#00ff00;fill-rule:evenodd" d="M198.56,21.21L198.69,24.25L200.12,24.42L208.84,24.95L212.26,25.01L212.79,24.64L213.90,25.21L214.16,25.59L212.98,26.31L212.48,26.36L212.27,25.75L198.69,24.94L198.54,27.16L179.21,27.08L179.21,21.06L198.30,20.95zM223.65,27.33L223.62,27.57L222.06,27.60L214.89,25.77L214.54,25.53L214.54,25.23L215.72,25.22z"/></g><g id="hotspot.14" onmouseover="ShowHotSpot(evt,'14')" onmouseout="HideHotSpot(evt,'14')" onmousemove="ShowToolTip(evt,'14',&quot;3dp2378779&quot;)" opacity="0"><path style="fill:#00ff00;fill-rule:evenodd" d="M251.98,5.61L251.96,11.56L242.33,11.71L242.37,15.23L242.74,15.76L241.93,17.12L241.05,15.42L241.62,15.25L241.65,11.71L232.63,11.47L232.63,5.45L251.72,5.35zM211.32,10.83L211.99,11.48L216.16,11.76L216.67,11.45L218.10,11.46L219.67,12.00L221.54,12.26L230.27,14.37L230.56,14.63L231.30,14.63L239.78,16.75L241.67,17.54L242.43,17.52L243.78,18.32L243.75,19.21L243.16,19.42L241.63,19.40L210.38,11.75L210.10,11.32L210.15,10.76L211.21,10.67z"/></g><g id="hotspot.15" onmouseover="ShowHotSpot(evt,'15')" onmouseout="HideHotSpot(evt,'15')" onmousemove="ShowToolTip(evt,'15',&quot;3dp2378780&quot;)" opacity="0"><path style="fill:#00ff00;fill-rule:evenodd" d="M215.18,38.18L217.33,38.93L216.51,40.11L213.52,43.20L213.10,45.40L212.03,44.78L210.86,45.85L209.80,45.65L209.92,44.79L201.41,42.40L201.42,41.98L207.42,36.30L208.59,36.32zM239.78,42.14L239.81,47.54L239.52,48.04L220.47,47.97L220.23,45.04L213.47,44.58L213.47,44.28L220.23,44.35L220.47,41.95L239.28,41.86zM214.12,38.45L216.27,39.19L211.38,44.27L210.70,44.28L203.27,42.15L202.65,41.86L207.70,36.82z"/></g><g id="hotspot.16" onmouseover="ShowHotSpot(evt,'16')" onmouseout="HideHotSpot(evt,'16')" onmousemove="ShowToolTip(evt,'16',&quot;3dp2378787&quot;)" opacity="0"><path style="fill:#00ff00;fill-rule:evenodd" d="M205.13,50.07L201.08,54.30L199.83,54.32L194.57,52.72L191.63,55.48L191.55,55.96L197.47,57.73L195.35,60.21L188.88,66.69L188.47,67.90L181.32,65.67L181.33,64.99L185.33,61.29L198.44,48.19L199.04,48.21zM227.39,54.80L227.37,60.75L207.24,60.67L207.00,58.26L200.78,58.07L200.78,57.77L207.00,57.58L207.24,54.64L227.12,54.54zM198.71,58.01L200.40,57.22L200.41,58.88L198.77,58.24z"/></g><g id="hotspot.17" onmouseover="ShowHotSpot(evt,'17')" onmouseout="HideHotSpot(evt,'17')" onmousemove="ShowToolTip(evt,'17',&quot;3dp2378788&quot;)" opacity="0"><path style="fill:#00ff00;fill-rule:evenodd" d="M201.21,42.90L201.43,44.36L201.70,43.44L205.12,44.54L207.44,45.05L207.78,45.03L209.35,45.82L209.10,47.54L206.45,46.91L203.82,46.10L201.34,46.10L201.19,48.33L200.91,48.84L182.12,48.76L182.12,42.74L200.94,42.64z"/></g><g id="hotspot.18" onmouseover="ShowHotSpot(evt,'18')" onmouseout="HideHotSpot(evt,'18')" onmousemove="ShowToolTip(evt,'18',&quot;3dp2378789&quot;)" opacity="0"><path style="fill:#00ff00;fill-rule:evenodd" d="M181.84,75.71L181.86,76.78L183.47,77.60L183.50,77.91L179.51,81.92L177.81,83.93L176.83,83.95L175.27,83.40L174.34,84.20L173.83,84.20L174.52,83.47L174.49,83.14L173.12,83.20L165.88,90.27L172.89,90.37L173.08,86.79L173.38,86.79L173.57,90.37L182.96,90.51L183.22,90.77L183.20,96.72L163.60,96.64L163.34,94.87L163.37,93.18L159.03,97.41L157.79,97.43L151.43,95.02L151.44,94.61L165.38,80.75L167.74,78.61L173.32,73.05L173.92,73.06zM174.22,86.30L172.50,86.30L173.00,84.92L173.41,84.73z"/></g><g id="hotspot.19" onmouseover="ShowHotSpot(evt,'19')" onmouseout="HideHotSpot(evt,'19')" onmousemove="ShowToolTip(evt,'19',&quot;3dp2378790&quot;)" opacity="0"><path style="fill:#00ff00;fill-rule:evenodd" d="M153.05,102.98L153.00,103.49L150.11,106.52L150.03,107.00L151.18,107.46L149.86,109.14L145.40,113.64L145.08,113.30L144.49,113.25L144.32,116.55L140.24,116.70L135.57,121.32L135.61,122.36L135.03,123.45L134.74,123.44L134.29,122.78L133.91,123.03L132.66,123.08L126.31,120.40L125.97,120.39L120.76,125.56L120.67,126.04L127.90,129.15L126.23,131.00L125.26,131.02L118.03,127.89L118.11,127.41L128.71,116.70L124.99,116.47L124.99,110.45L135.76,110.10L145.55,100.29L146.16,100.29z"/></g><g id="hotspot.20" onmouseover="ShowHotSpot(evt,'20')" onmouseout="HideHotSpot(evt,'20')" onmousemove="ShowToolTip(evt,'20',&quot;3dp2378791&quot;)" opacity="0"><path style="fill:#00ff00;fill-rule:evenodd" d="M118.70,140.77L118.61,141.32L113.52,146.60L114.19,148.54L112.46,148.46L113.14,147.22L113.14,146.86L103.57,142.36L103.57,141.69L108.78,136.52L109.39,136.53zM113.80,166.27L122.13,166.41L122.39,166.67L122.37,172.62L104.63,172.54L104.63,166.51L113.12,166.27L113.31,148.94L113.61,148.94z"/></g><g id="hotspot.21" onmouseover="ShowHotSpot(evt,'21')" onmouseout="HideHotSpot(evt,'21')" onmousemove="ShowToolTip(evt,'21',&quot;3dp2378792&quot;)" opacity="0"><path style="fill:#00ff00;fill-rule:evenodd" d="M111.54,152.91L110.17,154.87L110.23,157.52L100.55,152.97L100.98,154.02L100.93,154.59L100.61,154.83L100.58,158.87L109.17,159.00L109.43,159.27L109.41,165.22L90.88,165.13L90.88,159.11L99.89,158.87L99.85,154.82L99.49,154.29L100.19,153.02L100.15,152.71L98.84,151.61L98.28,150.32L98.28,149.02L98.56,148.73L100.60,148.74L101.76,148.19z"/></g><g id="hotspot.22" onmouseover="ShowHotSpot(evt,'22')" onmouseout="HideHotSpot(evt,'22')" onmousemove="ShowToolTip(evt,'22',&quot;3dp2378794&quot;)" opacity="0"><path style="fill:#00ff00;fill-rule:evenodd" d="M113.68,175.16L113.55,175.67L107.20,182.84L105.42,184.80L105.33,185.31L105.88,185.25L106.50,184.98L106.67,185.55L111.00,185.58L111.24,183.18L130.05,183.08L130.56,183.37L130.58,188.76L130.29,189.27L111.24,189.20L111.00,186.27L106.69,186.31L106.46,186.62L105.97,186.58L104.90,185.98L104.55,185.98L101.89,188.90L100.84,190.26L100.15,190.27L94.49,187.14L94.58,186.65L103.87,176.60L107.72,172.23L108.08,172.23z"/></g><g id="hotspot.23" onmouseover="ShowHotSpot(evt,'23')" onmouseout="HideHotSpot(evt,'23')" onmousemove="ShowToolTip(evt,'23',&quot;3dp2378796&quot;)" opacity="0"><path style="fill:#00ff00;fill-rule:evenodd" d="M213.34,107.20L213.36,112.60L213.07,113.10L194.02,113.03L193.78,110.36L187.82,110.17L187.82,109.87L193.78,109.68L194.02,107.01L212.83,106.92zM186.90,108.00L186.93,108.33L186.27,109.33L186.80,109.34L187.45,109.05L187.45,110.72L186.10,110.08L185.50,110.10L180.81,111.52L179.39,111.71L180.43,110.35L183.36,106.91L184.26,106.91z"/></g><g id="hotspot.24" onmouseover="ShowHotSpot(evt,'24')" onmouseout="HideHotSpot(evt,'24')" onmousemove="ShowToolTip(evt,'24',&quot;3dp2379017&quot;)" opacity="0"><path style="fill:#00ff00;fill-rule:evenodd" d="M172.38,114.57L172.51,117.35L174.44,117.60L174.66,116.98L174.97,116.93L176.30,117.81L176.76,117.80L181.78,116.18L182.68,116.19L182.71,116.53L182.44,116.84L178.94,121.04L177.89,120.96L175.24,119.87L175.25,119.49L176.04,118.28L174.98,118.70L173.96,118.02L172.51,118.03L172.37,120.00L172.08,120.51L153.29,120.44L153.29,114.41L172.11,114.31z"/></g><g id="hotspot.25" onmouseover="ShowHotSpot(evt,'25')" onmouseout="HideHotSpot(evt,'25')" onmousemove="ShowToolTip(evt,'25',&quot;3dp2379018&quot;)" opacity="0"><path style="fill:#00ff00;fill-rule:evenodd" d="M189.03,117.27L189.05,117.59L183.49,124.54L182.93,124.68L179.73,123.31L179.74,122.91L185.22,116.16L185.58,115.92zM212.84,117.22L212.82,123.16L193.49,123.08L193.25,120.41L189.93,120.22L189.93,119.92L193.25,119.73L193.49,117.06L212.58,116.95zM187.61,119.90L189.56,119.10L189.53,120.80L189.01,120.72z"/></g><g id="hotspot.26" onmouseover="ShowHotSpot(evt,'26')" onmouseout="HideHotSpot(evt,'26')" onmousemove="ShowToolTip(evt,'26',&quot;3dp2379622&quot;)" opacity="0"><path style="fill:#00ff00;fill-rule:evenodd" d="M65.03,171.90L64.84,171.48L68.34,167.98L68.68,168.02L68.72,168.36L66.48,170.42L66.56,174.38L70.79,176.79L71.34,176.63L75.99,171.96L76.34,171.96L80.59,174.13L80.61,174.72L79.67,175.71L78.87,175.71L77.56,177.03L76.52,176.99L74.89,178.62L75.25,179.14L74.93,179.67L73.87,179.63L71.21,182.32L70.79,182.34L65.47,178.85L65.44,178.36L65.77,178.06L63.38,177.81L58.53,177.80L58.38,179.51L58.09,180.01L39.04,179.94L39.04,173.92L57.85,173.83L58.36,174.11L58.53,177.12L64.97,177.36L65.50,174.73L65.54,172.24z"/></g><g id="hotspot.27" onmouseover="ShowHotSpot(evt,'27')" onmouseout="HideHotSpot(evt,'27')" onmousemove="ShowToolTip(evt,'27',&quot;3dp2379624&quot;)" opacity="0"><path style="fill:#00ff00;fill-rule:evenodd" d="M86.45,182.00L86.69,182.66L85.23,184.14L85.91,184.68L85.66,185.36L84.25,185.83L84.31,186.64L83.65,187.06L83.22,187.68L80.48,190.51L79.50,190.53L69.10,184.76L69.19,184.27L73.87,179.63L74.93,179.67L75.25,179.14L74.89,178.62L76.52,176.99L77.13,176.99zM68.71,185.45L68.84,187.70L72.11,187.67L72.38,187.05L73.99,187.98L72.63,188.79L72.09,188.42L68.84,188.38L68.68,191.40L49.88,191.31L49.88,185.29L68.44,185.19zM82.49,184.11L82.73,184.78L81.82,185.51L80.81,185.53L80.48,185.30L80.57,184.24L82.16,183.86z"/></g><g id="hotspot.28" onmouseover="ShowHotSpot(evt,'28')" onmouseout="HideHotSpot(evt,'28')" onmousemove="ShowToolTip(evt,'28',&quot;3dp2379634&quot;)" opacity="0"><path style="fill:#00ff00;fill-rule:evenodd" d="M123.44,119.59L120.14,123.04L117.78,125.18L107.02,135.85L104.80,137.86L103.78,138.42L102.16,138.40L102.53,137.86L84.18,138.13L84.02,141.15L64.69,141.06L64.69,135.04L83.78,134.94L84.04,135.20L84.18,137.45L99.27,137.35L102.77,137.14L103.01,136.84L103.75,136.83L109.85,130.74L112.20,128.60L118.57,122.28L120.93,120.13L122.00,119.07z"/></g><g id="hotspot.29" onmouseover="ShowHotSpot(evt,'29')" onmouseout="HideHotSpot(evt,'29')" onmousemove="ShowToolTip(evt,'29',&quot;3dp2447574&quot;)" opacity="0"><path style="fill:#00ff00;fill-rule:evenodd" d="M186.09,87.11L188.74,88.19L189.49,88.17L189.73,88.48L192.72,88.52L192.96,86.11L212.05,86.01L212.31,86.27L212.29,92.22L192.96,92.14L192.72,89.20L189.73,89.25L189.50,89.56L189.02,89.52L188.47,89.18L187.89,89.21L166.70,113.01L165.46,113.03L152.15,107.80L152.25,107.03L159.12,100.14L161.26,97.79L166.53,92.47L168.67,90.12L173.93,84.80L175.13,83.40z"/></g><g id="hotspot.30" onmouseover="ShowHotSpot(evt,'30')" onmouseout="HideHotSpot(evt,'30')" onmousemove="ShowToolTip(evt,'30',&quot;3dp2456680&quot;)" opacity="0"><path style="fill:#00ff00;fill-rule:evenodd" d="M99.38,140.75L99.36,146.70L90.00,146.86L90.03,152.51L90.59,152.68L90.61,153.47L96.43,156.41L96.69,157.20L97.52,158.22L108.63,163.78L108.87,164.86L108.89,166.55L97.66,178.58L96.21,180.34L95.65,180.49L91.93,178.59L91.94,177.92L93.26,176.49L84.00,171.71L84.00,171.04L84.83,170.11L74.23,164.59L73.16,164.04L73.16,163.37L83.93,152.95L85.77,151.34L86.12,151.33L88.23,152.44L89.31,152.53L89.31,146.86L80.03,146.62L80.03,140.60L99.12,140.49zM102.78,164.85L102.26,165.73L99.64,168.40L97.14,171.20L96.17,171.22L89.00,167.50L88.67,167.21L92.10,163.51L94.88,160.88z"/></g><g id="hotspot.31" onmouseover="ShowHotSpot(evt,'31')" onmouseout="HideHotSpot(evt,'31')" onmousemove="ShowToolTip(evt,'31',&quot;3dp2379636&quot;)" opacity="0"><path style="fill:#00ff00;fill-rule:evenodd" d="M178.43,51.13L178.60,53.87L181.60,54.04L186.61,54.10L187.14,53.73L188.50,54.54L186.90,55.47L186.62,54.85L178.60,54.56L178.45,56.53L178.16,57.03L159.11,56.96L159.11,50.94L177.92,50.85zM188.91,54.63L188.99,54.16L195.00,48.22L197.36,46.08L198.42,45.03L199.62,45.06L199.64,45.38L197.62,47.41L195.27,49.55L189.96,54.84z"/></g><g id="hotspot.32" onmouseover="ShowHotSpot(evt,'32')" onmouseout="HideHotSpot(evt,'32')" onmousemove="ShowToolTip(evt,'32',&quot;3dp2380483&quot;)" opacity="0"><path style="fill:#00ff00;fill-rule:evenodd" d="M145.12,113.31L145.16,113.62L143.78,115.22L137.99,121.06L135.85,123.42L130.05,129.26L127.91,131.62L122.52,137.07L123.13,137.37L131.62,137.72L131.87,135.31L151.22,135.20L151.49,135.47L151.46,141.41L131.87,141.33L131.62,138.41L131.11,138.12L122.02,137.89L121.72,138.41L121.33,138.43L120.80,138.77L119.61,140.28L119.11,140.38L119.17,138.47L122.52,134.68L131.35,125.80L133.49,123.44L141.93,114.95L143.70,112.98z"/></g><g id="hotspot.33" onmouseover="ShowHotSpot(evt,'33')" onmouseout="HideHotSpot(evt,'33')" onmousemove="ShowToolTip(evt,'33',&quot;3dp2381541&quot;)" opacity="0"><path style="fill:#00ff00;fill-rule:evenodd" d="M85.62,150.06L85.64,150.38L76.76,159.01L74.41,161.15L69.36,166.19L68.67,166.21L64.60,164.13L64.69,163.64L71.07,157.26L71.05,157.15L69.67,157.54L69.46,156.93L64.34,156.91L64.20,158.88L63.91,159.38L44.33,159.31L44.33,153.29L63.95,153.18L64.21,153.45L64.34,156.22L69.45,156.18L69.98,155.82L71.05,156.41L72.01,156.39L78.63,150.01L79.53,150.14L79.50,149.09L80.75,147.90L81.37,147.90z"/></g><g id="hotspot.34" onmouseover="ShowHotSpot(evt,'34')" onmouseout="HideHotSpot(evt,'34')" onmousemove="ShowToolTip(evt,'34',&quot;3dp2394517&quot;)" opacity="0"><path style="fill:#00ff00;fill-rule:evenodd" d="M98.82,195.27L100.43,196.58L100.41,197.49L99.88,197.43L98.30,196.32L94.35,194.21L92.92,194.77L92.25,194.78L89.73,195.52L89.41,195.97L87.62,197.38L86.65,197.40L78.18,193.40L78.18,193.00L82.18,188.76L82.97,188.23L83.65,187.02L84.00,187.04zM90.65,197.38L88.93,197.39L89.41,195.97L89.84,196.03zM90.53,201.71L100.18,201.85L100.44,202.11L100.43,207.54L100.14,208.05L80.56,207.98L80.56,201.95L89.85,201.71L89.77,197.87L90.07,197.87z"/></g><g id="hotspot.35" onmouseover="ShowHotSpot(evt,'35')" onmouseout="HideHotSpot(evt,'35')" onmousemove="ShowToolTip(evt,'35',&quot;3dp2378580 (I_VÁN SÀN 01.4)&quot;)" opacity="0"><path style="fill:#00ff00;fill-rule:evenodd" d="M205.16,37.39L205.20,37.71L204.59,38.28L204.59,38.68L205.43,39.20L203.82,40.13L203.46,39.47L199.74,43.17L197.39,45.31L191.68,50.98L189.15,53.25L188.48,53.28L177.53,49.87L177.62,49.39L184.51,43.28L186.37,41.33L172.60,41.10L172.60,35.07L191.42,34.97L191.69,35.23L191.91,36.43L193.91,34.69L194.54,34.45zM227.92,43.72L228.18,43.95L227.53,44.79L213.49,60.66L212.81,60.69L200.80,56.94L205.69,51.77L210.96,46.46L213.10,44.10L216.42,40.79L217.30,40.81zM183.75,58.01L184.00,58.37L181.78,60.39L176.20,65.92L164.32,77.31L163.07,77.33L151.67,73.36L151.35,73.06L171.99,54.54L172.60,54.55z"/></g></g></svg>
