<?xml version="1.0" encoding="UTF-8" standalone="no"?>
<svg xmlns="http://www.w3.org/2000/svg" xmlns:xlink="http://www.w3.org/1999/xlink" width="297.000mm" height="210.000mm" viewBox="0.000000 0.000000 297.000000 210.000000" stroke-linejoin="round" stroke-linecap="round" fill="none" fill-rule="evenodd"><desc>Composer Export</desc><script type="text/ecmascript"><![CDATA[
if(typeof(top) != "undefined")
{
	top.ShowPaper = ShowPaper;
}
function ShowHotSpot(evt,hotspotid)
{
	var svgDocument = evt.target.ownerDocument;
	var strId = "hotspot."+hotspotid;
	var hotspot = svgDocument.getElementById(strId);
	if(hotspot)
		hotspot.setAttribute("opacity",".5");
}
function HideHotSpot(evt,hotspotid)
{
	var svgDocument = evt.target.ownerDocument;
	var strId = "hotspot."+hotspotid;
	var hotspot = svgDocument.getElementById(strId);
	if(hotspot)
		hotspot.setAttribute("opacity","0");

	var toolTip = svgDocument.getElementById('ToolTip');
	if(toolTip)
		toolTip.setAttribute("visibility","hidden");
}
function ShowToolTip(evt,hotspotid,strTooltip)
{
	if(strTooltip=="")
	return;

	// change text
	var svgDocument = evt.target.ownerDocument;
	var tiptext = svgDocument.getElementById('ToolTipText');
	if( !tiptext )
	return;
	tiptext.firstChild.nodeValue = " " + strTooltip + "  " ;

	// show tooltip before, else some refresh issue

	var toolTip = svgDocument.getElementById('ToolTip');
	if(!toolTip)
	return;

	toolTip.setAttribute("visibility","visible");
	toolTip.setAttribute("opacity",".95");

	// move tooltip
	// get viewbox

	var root = svgDocument.documentElement;
	var vbox = (root.getAttribute("viewBox")).split(' ');
	var x0 = parseFloat(vbox[0]);
	var y0 = parseFloat(vbox[1]);
	var vboxW = parseFloat(vbox[2]);
	var vboxH = parseFloat(vbox[3]);

	// get default width of svg

	var strW = root.getAttribute("width");
	var svgW = parseFloat(strW);
	if(strW.indexOf('mm') != -1)
	svgW *= 3.779;

	var strH = root.getAttribute("height");
	var svgH = parseFloat(strH);
	if(strH.indexOf('mm') != -1)
	svgH *= 3.779;  	// 96 dpi  -> 96/25.4 = 3.779

	// update the viewbox / width / height if svg is embedded in html with zoom fit all
	var realx0 = x0;
	var realy0 = y0;
	var realvboxW = vboxW;
	var realvboxH = vboxH;
	var realsvgW = svgW;
	var realsvgH = svgH;

	if ((typeof(top) == "undefined") || (typeof(top.svgctl1) != "undefined")) // embedded in html
	{
		// get window size in pxl

		svgW = window.innerWidth;
		svgH = window.innerHeight;

		// calculate real viewbox

		realsvgW = svgW;
		realsvgH = svgH;
		if((svgW / svgH) > (vboxW / vboxH))
		{
			realvboxW = (vboxH * svgW) / svgH;
			realvboxH = vboxH;
			realx0 = x0 - (realvboxW - vboxW)/2 ;
		}
		else
		{
			realvboxH = (vboxW * svgH) / svgW;
			realvboxW = vboxW;
			realy0 = y0 - (realvboxH - vboxH)/2 ;
		}
	}

	// get user zoom/pan

	var newScale = root.currentScale;
	var translation = root.currentTranslate;

	// transform pxl to user unit

	var xPos = (((evt.clientX+10- translation.x)/newScale) * realvboxW)/realsvgW  + realx0 ;
	var yPos = (((evt.clientY+5- translation.y)/newScale) * realvboxH)/ realsvgH  + realy0 ;
	var scaleForWidth = ( (1 / newScale) * realvboxH) / realsvgH;

	// move tooltip

	toolTip.setAttribute("transform", "translate(" + xPos + "," + yPos + ")" );

	// resize tooltip

	var fontsize = 12;
	tiptext.setAttribute("font-size",fontsize*scaleForWidth);
	tiptext.setAttribute("y", fontsize*scaleForWidth);
	var tipBG = svgDocument.getElementById('ToolTipBG');
	var outline = tiptext.getBBox();
	if(tipBG)
	{
		tipBG.setAttribute("stroke-width", 1*scaleForWidth);
		tipBG.setAttribute("width", Number(outline.width) );
		tipBG.setAttribute("height", Number(outline.height) + fontsize*.5*scaleForWidth );
	}
	var ToolTipShadow = svgDocument.getElementById('ToolTipShadow');
	if(ToolTipShadow)
	{
		ToolTipShadow.setAttribute("width", Number(outline.width) );
		ToolTipShadow.setAttribute("height", Number(outline.height) + fontsize*.5*scaleForWidth );
		ToolTipShadow.setAttribute("x", 3*scaleForWidth);
		ToolTipShadow.setAttribute("y", 3*scaleForWidth);
	}
}
function ShowPaper()
{
  var svgDocument = getDocument();
  var paper = svgDocument.getElementById("paperID");
  if(paper)
  {
    paper.setAttribute("transform","scale(1)");
    paper.setAttribute("opacity","1");
    paper.setAttribute("visibility","visible");
  }
  var svg = svgDocument.getRootElement();
  if(svg)
  {
    svg.setAttribute("width","307.000mm");
    svg.setAttribute("height","220.000mm");
    svg.setAttribute("viewBox","-5.000000 -5.000000 307.000000 220.000000");
  }
}
]]></script><defs/><g><g><g><path style="stroke:#000000;stroke-width:0.350;fill:#ffffff" d="M135.97,93.80L133.87,94.93L131.73,95.96L129.54,96.88L127.30,97.68L125.03,98.37L122.72,98.95L120.39,99.42L118.04,99.76L115.67,99.99L113.30,100.10L110.92,100.09L108.54,99.96L106.18,99.71L103.83,99.35L101.50,98.86L99.20,98.27L96.93,97.55L94.70,96.73L92.52,95.79L90.38,94.75L88.30,93.60L87.95,93.40L87.95,93.40L90.08,94.41L92.26,95.32L94.48,96.11L96.74,96.79L99.03,97.36L101.34,97.82L103.68,98.16L106.03,98.38L108.38,98.48L110.74,98.47L113.10,98.34L115.44,98.09L117.77,97.72L120.08,97.24L122.36,96.64L124.61,95.93L126.82,95.11L128.99,94.18L131.10,93.14L133.17,91.99L134.42,91.23z"/></g><g><path style="fill:#ffffff" d="M147.07,92.14L147.01,93.36L146.83,94.58L146.53,95.77L146.12,96.92L145.59,98.03L144.96,99.08L144.23,100.07L143.41,100.98L142.50,101.80L141.51,102.53L140.46,103.16L139.35,103.69L138.20,104.10L137.01,104.40L135.79,104.58L134.57,104.64L133.34,104.58L132.13,104.40L130.94,104.10L129.78,103.69L128.68,103.16L127.62,102.53L126.64,101.80L125.73,100.98L124.91,100.07L124.17,99.08L123.54,98.03L123.02,96.92L122.61,95.77L122.31,94.58L122.13,93.36L122.07,92.14L122.13,90.91L122.31,89.70L122.61,88.51L123.02,87.36L123.54,86.25L124.17,85.19L124.91,84.21L125.73,83.30L126.64,82.48L127.62,81.75L128.68,81.12L129.78,80.59L130.94,80.18L132.13,79.88L133.34,79.70L134.57,79.64L135.79,79.70L137.01,79.88L138.20,80.18L139.35,80.59L140.46,81.12L141.51,81.75L142.50,82.48L143.41,83.30L144.23,84.21L144.96,85.19L145.59,86.25L146.12,87.36L146.53,88.51L146.83,89.70L147.01,90.91L147.07,92.14z"/><path style="stroke:#ff0000;stroke-width:0.997;stroke-opacity:0.00" d="M146.44,92.14L146.21,94.46L145.54,96.68L144.44,98.74L142.96,100.54L141.17,102.01L139.11,103.11L136.88,103.79L134.57,104.01L132.25,103.79L130.02,103.11L127.97,102.01L126.17,100.54L124.69,98.74L123.60,96.68L122.92,94.46L122.69,92.14L122.92,89.82L123.60,87.59L124.69,85.54L126.17,83.74L127.97,82.27L130.02,81.17L132.25,80.49L134.57,80.26L136.88,80.49L139.11,81.17L141.17,82.27L142.96,83.74L144.44,85.54L145.54,87.59L146.21,89.82L146.44,92.14"/><path style="stroke:#000000;stroke-width:0.123" d="M126.69,96.16L126.15,93.93L126.17,94.35L126.41,95.54L126.69,96.16L129.72,96.40L129.25,94.89L129.42,92.71L129.33,90.83L130.08,88.12L130.15,87.66L130.88,86.53L130.40,87.54L130.32,87.92L129.98,89.41L129.70,91.75L129.61,94.12L129.73,96.02L130.04,97.10L129.72,96.40"/><path style="stroke:#000000;stroke-width:0.123" d="M126.15,93.93L126.14,92.41L126.33,90.24L126.42,89.70L126.39,92.47L126.15,93.93"/><path style="stroke:#000000;stroke-width:0.123" d="M129.42,92.71L126.39,92.47"/><path style="stroke:#000000;stroke-width:0.123" d="M126.69,88.41L126.42,89.70L127.04,87.87L130.08,88.12"/><path style="stroke:#000000;stroke-width:0.123" d="M126.69,88.41L127.12,87.41L127.98,86.97L130.47,87.17"/><path style="stroke:#000000;stroke-width:0.123" d="M127.04,87.87L127.12,87.41"/><path style="stroke:#000000;stroke-width:0.123" d="M130.04,97.10L131.42,97.31L131.52,96.14L131.63,95.33L131.59,95.31L131.53,95.48"/><path style="stroke:#000000;stroke-width:0.123" d="M131.04,97.25L131.27,97.10L130.89,97.02L131.14,96.74L130.77,96.63L131.04,96.23L130.67,96.10L130.96,95.60L130.59,95.44L130.91,94.85L130.56,94.68L130.90,94.00L131.00,94.16L131.01,94.74"/><path style="stroke:#000000;stroke-width:0.123" d="M130.59,95.44L130.88,95.14L131.10,95.25L131.17,95.39L131.18,95.37L131.23,95.52L131.39,95.56L131.28,95.94L131.14,96.74"/><path style="stroke:#000000;stroke-width:0.123" d="M130.55,94.68L130.83,94.64L131.04,94.75L130.91,94.85"/><path style="stroke:#000000;stroke-width:0.123" d="M131.04,91.83L131.10,91.35L131.15,90.30L130.71,91.03L131.04,91.22L130.62,91.97L130.96,92.17L130.56,92.91L130.92,93.10L130.54,93.82L130.90,94.00"/><path style="stroke:#000000;stroke-width:0.123" d="M130.40,87.54L131.65,86.83L132.16,86.64L131.84,86.58L132.35,86.52L132.02,86.48L130.88,86.53"/><path style="stroke:#000000;stroke-width:0.123" d="M131.42,97.31L131.21,97.33L131.60,97.35L131.67,96.04L131.76,95.04L131.72,95.02L131.52,95.48L131.46,95.49L131.35,95.71"/><path style="stroke:#000000;stroke-width:0.123" d="M131.21,97.33L130.80,97.21"/><path style="stroke:#000000;stroke-width:0.123" d="M131.27,97.10L131.40,96.10L131.51,95.51L131.46,95.49L131.35,95.56L131.38,95.58"/><path style="stroke:#000000;stroke-width:0.123" d="M130.98,95.56L131.23,95.52L131.27,95.54L131.17,95.65L131.04,96.23"/><path style="stroke:#000000;stroke-width:0.123" d="M131.39,95.56L131.59,95.31L131.63,95.31L131.71,95.04"/><path style="stroke:#000000;stroke-width:0.123" d="M130.96,95.60L131.10,95.25"/><path style="stroke:#000000;stroke-width:0.123" d="M131.52,95.51L131.50,95.56"/><path style="stroke:#000000;stroke-width:0.123" d="M131.15,95.76L131.35,95.56"/><path style="stroke:#000000;stroke-width:0.123" d="M131.28,95.52L131.27,95.54"/><path style="stroke:#000000;stroke-width:0.123" d="M131.18,95.37L131.16,95.37"/><path style="stroke:#000000;stroke-width:0.123" d="M131.51,95.51L131.52,95.49"/><path style="stroke:#000000;stroke-width:0.123" d="M131.08,95.12L131.12,95.30"/><path style="stroke:#000000;stroke-width:0.123" d="M131.10,95.12L131.08,95.14L131.04,94.75"/><path style="stroke:#000000;stroke-width:0.123" d="M130.97,94.12L130.99,93.52L130.92,93.10"/><path style="stroke:#000000;stroke-width:0.123" d="M131.29,93.84L131.53,94.00L131.74,93.54L131.96,92.33L132.04,90.95L131.93,89.97L131.69,89.80L131.48,90.27L131.26,91.48L131.19,92.86L131.29,93.84"/><path style="stroke:#000000;stroke-width:0.123" d="M130.96,92.17L131.00,92.81L130.96,93.38"/><path style="stroke:#000000;stroke-width:0.123" d="M130.99,92.60L131.04,92.08L131.04,91.22"/><path style="stroke:#000000;stroke-width:0.123" d="M131.15,90.30L130.82,90.11L131.29,89.43L131.19,90.63L131.12,91.10"/><path style="stroke:#000000;stroke-width:0.123" d="M131.21,90.42L131.29,89.95L131.44,88.63L131.12,88.47L131.61,87.93L131.41,89.33L131.31,89.81"/><path style="stroke:#000000;stroke-width:0.123" d="M131.44,88.63L130.96,89.25L131.29,89.43"/><path style="stroke:#000000;stroke-width:0.123" d="M131.42,89.29L131.55,88.79L131.79,87.36L131.46,87.24L131.98,86.93L131.69,88.35L131.51,88.93"/><path style="stroke:#000000;stroke-width:0.123" d="M131.79,87.36L131.29,87.79L131.61,87.93"/><path style="stroke:#000000;stroke-width:0.123" d="M131.60,97.23L131.77,97.23L131.81,95.83L131.88,94.66L131.84,94.65L131.72,95.02L131.76,95.04"/><path style="stroke:#000000;stroke-width:0.123" d="M131.78,96.96L131.96,96.94L131.96,95.49L132.00,94.20L131.96,94.19L131.84,94.65L131.88,94.65L132.06,93.66L132.10,93.66L132.15,93.07L132.00,94.20"/><path style="stroke:#000000;stroke-width:0.123" d="M132.11,93.66L132.10,95.04L132.15,96.50L131.96,96.53"/><path style="stroke:#000000;stroke-width:0.123" d="M132.19,93.08L132.23,94.50L132.33,95.93L132.13,95.97"/><path style="stroke:#000000;stroke-width:0.123" d="M131.59,95.31L131.59,95.31"/><path style="stroke:#000000;stroke-width:0.123" d="M132.27,92.46L132.35,93.89L132.50,95.23L132.28,95.29"/><path style="stroke:#000000;stroke-width:0.123" d="M131.64,95.31L131.63,95.33"/><path style="stroke:#000000;stroke-width:0.123" d="M131.77,95.03L131.84,94.65"/><path style="stroke:#000000;stroke-width:0.123" d="M131.96,94.19L132.00,94.19"/><path style="stroke:#000000;stroke-width:0.123" d="M131.88,94.65L131.88,94.66"/><path style="stroke:#000000;stroke-width:0.123" d="M132.22,92.50L132.15,93.07L132.19,93.08L132.29,91.82L132.27,92.46L132.23,92.45L132.22,92.50"/><path style="stroke:#000000;stroke-width:0.123" d="M132.29,91.82L132.33,91.82L132.32,91.19L132.29,91.82"/><path style="stroke:#000000;stroke-width:0.123" d="M131.90,88.26L131.99,88.29L132.23,88.70L132.22,88.68L132.61,89.09L133.02,89.02L132.69,88.48"/><path style="stroke:#000000;stroke-width:0.123" d="M132.09,88.44L132.14,88.45L132.13,88.43L132.55,88.59L132.34,88.66L132.09,88.44L132.17,88.70L132.39,89.62"/><path style="stroke:#000000;stroke-width:0.123" d="M132.23,88.70L132.18,88.70"/><path style="stroke:#000000;stroke-width:0.123" d="M132.30,89.05L132.64,89.68L133.04,89.86L132.67,89.14L132.40,89.18L132.17,88.70L132.29,89.04L132.25,89.05L132.30,89.50L132.33,90.00L132.32,91.18L132.37,91.19L132.33,90.58L132.38,90.58L132.33,90.00L132.37,90.00"/><path style="stroke:#000000;stroke-width:0.123" d="M132.25,89.05L132.35,89.48L132.30,89.49L132.31,89.54L132.38,90.02"/><path style="stroke:#000000;stroke-width:0.123" d="M132.16,86.64L131.83,88.02L131.57,88.74"/><path style="stroke:#000000;stroke-width:0.123" d="M131.91,88.26L132.04,88.29L131.99,88.29L132.14,88.45"/><path style="stroke:#000000;stroke-width:0.123" d="M132.04,88.29L132.03,88.27L132.46,88.20L132.27,88.25L132.04,88.29"/><path style="stroke:#000000;stroke-width:0.123" d="M131.80,88.30L131.92,88.25L131.92,88.23L132.37,87.91L132.79,87.13L132.58,86.97"/><path style="stroke:#000000;stroke-width:0.123" d="M132.35,86.52L131.98,87.80L131.62,88.60"/><path style="stroke:#000000;stroke-width:0.123" d="M131.62,88.59L131.68,88.50L131.67,88.49"/><path style="stroke:#000000;stroke-width:0.123" d="M131.71,88.41L131.81,88.33L131.79,88.31L132.25,87.74L132.66,86.77L132.47,86.68"/><path style="stroke:#000000;stroke-width:0.123" d="M132.34,86.54L132.51,86.56L132.12,87.71L131.67,88.48"/><path style="stroke:#000000;stroke-width:0.123" d="M131.65,86.83L131.98,86.93"/><path style="stroke:#000000;stroke-width:0.123" d="M132.42,94.51L132.65,94.44L132.45,93.21L132.33,91.82"/><path style="stroke:#000000;stroke-width:0.123" d="M132.37,91.19L132.54,92.50L132.78,93.56L132.52,93.66"/><path style="stroke:#000000;stroke-width:0.123" d="M132.38,90.58L132.60,91.76L132.89,92.64L132.60,92.75"/><path style="stroke:#000000;stroke-width:0.123" d="M132.37,90.00L132.64,91.03L132.97,91.70L132.62,91.83"/><path style="stroke:#000000;stroke-width:0.123" d="M132.97,91.70L132.65,90.90L132.54,90.64"/><path style="stroke:#000000;stroke-width:0.123" d="M132.35,89.49L132.65,90.33L133.02,90.76L132.65,90.90"/><path style="stroke:#000000;stroke-width:0.123" d="M133.02,90.76L132.68,89.99L132.45,89.79"/><path style="stroke:#000000;stroke-width:0.123" d="M133.04,89.86L132.68,89.99"/><path style="stroke:#000000;stroke-width:0.123" d="M132.67,89.14L133.02,89.02"/><path style="stroke:#000000;stroke-width:0.123" d="M132.69,87.90L132.98,88.27L132.55,88.59"/><path style="stroke:#000000;stroke-width:0.123" d="M132.46,88.20L132.90,87.64L132.65,87.38"/><path style="stroke:#000000;stroke-width:0.123" d="M139.89,98.86L139.45,97.52L139.29,95.46L139.36,92.84L139.40,92.50L139.66,90.17L140.12,87.98L140.76,86.48L141.00,86.41L141.53,86.30L142.89,86.41L142.36,86.51L141.79,87.85L141.31,90.16L141.13,91.73L140.99,92.98L140.91,95.76L141.08,97.94L141.47,99.09L140.12,98.98L139.89,98.86"/><path style="stroke:#000000;stroke-width:0.123" d="M141.47,99.09L142.00,98.98L142.56,97.64L143.05,95.33L143.11,94.79L143.37,92.50L143.44,89.73L143.27,87.56L142.89,86.41"/><path style="stroke:#000000;stroke-width:0.123" d="M141.77,94.95L142.02,95.32L142.33,94.70L142.59,93.34L142.69,91.75L142.59,90.54L142.34,90.18L142.02,90.79L141.77,92.16L141.67,93.74L141.77,94.95"/><path style="stroke:#000000;stroke-width:0.123" d="M141.74,94.66L142.33,94.70"/><path style="stroke:#000000;stroke-width:0.209;stroke-dasharray:2.8 2.8" d="M129.46,91.73L141.87,92.72"/><path style="stroke:#000000;stroke-width:0.210" d="M147.07,92.14L147.01,93.36L146.83,94.58L146.53,95.77L146.12,96.92L145.59,98.03L144.96,99.08L144.23,100.07L143.41,100.98L142.50,101.80L141.51,102.53L140.46,103.16L139.35,103.69L138.20,104.10L137.01,104.40L135.79,104.58L134.57,104.64L133.34,104.58L132.13,104.40L130.94,104.10L129.78,103.69L128.68,103.16L127.62,102.53L126.64,101.80L125.73,100.98L124.91,100.07L124.17,99.08L123.54,98.03L123.02,96.92L122.61,95.77L122.31,94.58L122.13,93.36L122.07,92.14L122.13,90.91L122.31,89.70L122.61,88.51L123.02,87.36L123.54,86.25L124.17,85.19L124.91,84.21L125.73,83.30L126.64,82.48L127.62,81.75L128.68,81.12L129.78,80.59L130.94,80.18L132.13,79.88L133.34,79.70L134.57,79.64L135.79,79.70L137.01,79.88L138.20,80.18L139.35,80.59L140.46,81.12L141.51,81.75L142.50,82.48L143.41,83.30L144.23,84.21L144.96,85.19L145.59,86.25L146.12,87.36L146.53,88.51L146.83,89.70L147.01,90.91L147.07,92.14z"/></g></g><g><g><path style="stroke:#000000;stroke-width:0.350;fill:#ffffff" d="M204.56,92.47L205.53,94.23L206.41,96.02L207.21,97.87L207.90,99.74L208.51,101.65L209.01,103.59L209.42,105.55L209.73,107.53L209.94,109.53L210.06,111.53L210.07,113.53L209.98,115.53L209.79,117.53L209.50,119.51L209.12,121.48L208.63,123.42L208.05,125.34L207.37,127.22L206.60,129.07L205.74,130.88L204.79,132.65L204.57,133.03L204.57,133.03L205.38,131.22L206.11,129.38L206.74,127.49L207.28,125.58L207.72,123.65L208.06,121.69L208.31,119.72L208.45,117.74L208.50,115.76L208.45,113.77L208.30,111.80L208.05,109.83L207.70,107.87L207.26,105.94L206.71,104.03L206.08,102.15L205.35,100.30L204.53,98.49L203.62,96.73L202.62,95.01L202.01,94.05z"/></g><g><path style="fill:#ffffff" d="M219.80,92.80L219.73,94.27L219.51,95.73L219.16,97.16L218.66,98.54L218.03,99.88L217.27,101.14L216.40,102.32L215.41,103.41L214.32,104.40L213.13,105.28L211.87,106.03L210.54,106.66L209.16,107.16L207.73,107.52L206.27,107.73L204.80,107.80L203.33,107.73L201.87,107.52L200.45,107.16L199.06,106.66L197.73,106.03L196.47,105.28L195.29,104.40L194.19,103.41L193.21,102.32L192.33,101.14L191.57,99.88L190.94,98.54L190.45,97.16L190.09,95.73L189.87,94.27L189.80,92.80L189.87,91.33L190.09,89.88L190.45,88.45L190.94,87.06L191.57,85.73L192.33,84.47L193.21,83.29L194.19,82.20L195.29,81.21L196.47,80.33L197.73,79.58L199.06,78.95L200.45,78.45L201.87,78.09L203.33,77.88L204.80,77.80L206.27,77.88L207.73,78.09L209.16,78.45L210.54,78.95L211.87,79.58L213.13,80.33L214.32,81.21L215.41,82.20L216.40,83.29L217.27,84.47L218.03,85.73L218.66,87.06L219.16,88.45L219.51,89.88L219.73,91.33L219.80,92.80z"/><path style="stroke:#ff0000;stroke-width:0.997;stroke-opacity:0.00" d="M219.05,92.80L218.78,95.58L217.97,98.26L216.65,100.72L214.88,102.88L212.72,104.65L210.25,105.97L207.58,106.78L204.80,107.05L202.02,106.78L199.35,105.97L196.88,104.65L194.72,102.88L192.95,100.72L191.64,98.26L190.82,95.58L190.55,92.80L190.82,90.02L191.64,87.35L192.95,84.89L194.72,82.73L196.88,80.96L199.35,79.64L202.02,78.83L204.80,78.55L207.58,78.83L210.25,79.64L212.72,80.96L214.88,82.73L216.65,84.89L217.97,87.35L218.78,90.02L219.05,92.80"/><path style="stroke:#000000;stroke-width:0.123" d="M200.20,87.68L199.35,87.72L199.20,87.79L199.14,87.95L199.13,88.64L199.16,90.00L199.24,91.82L199.34,93.82L199.47,95.87L199.57,97.18L199.67,98.02L199.74,98.17L199.80,98.24L199.95,98.30L200.81,98.25L200.82,97.53L200.79,96.11L200.71,94.21L200.60,92.13L200.48,90.17L200.36,88.64L200.26,87.76L200.21,87.68L200.19,88.39L200.22,89.82L200.30,91.71L200.41,93.80L200.53,95.76L200.65,97.30L200.75,98.17L200.81,98.25"/><path style="stroke:#000000;stroke-width:0.123" d="M200.63,94.78L200.60,93.79L200.53,92.47L200.46,91.34L200.40,90.83L200.38,91.14L200.41,92.17L200.47,93.47L200.55,94.59L200.61,95.10L200.63,94.80L200.58,94.79"/><path style="stroke:#000000;stroke-width:0.123" d="M200.63,94.77L200.63,94.79"/><path style="stroke:#000000;stroke-width:0.123" d="M195.24,93.51L195.11,94.53L192.19,94.66L192.00,95.70L192.14,96.51L192.45,97.18L192.17,96.71L192.08,96.49L191.99,95.64L191.89,94.33L191.82,92.82L191.78,91.42L191.79,90.39L191.83,90.01L191.85,90.44L192.05,90.79"/><path style="stroke:#000000;stroke-width:0.123" d="M192.19,94.66L191.82,92.82L191.95,91.70"/><path style="stroke:#000000;stroke-width:0.123" d="M191.83,90.01L192.17,89.45L191.84,89.95L191.83,90.01"/><path style="stroke:#000000;stroke-width:0.123" d="M192.17,89.45L195.09,89.32L195.33,89.85L195.24,90.28L194.97,90.66"/><path style="stroke:#000000;stroke-width:0.123" d="M195.11,94.53L195.50,95.54L195.53,96.36L195.37,97.05L192.45,97.18"/><path style="stroke:#000000;stroke-width:0.123" d="M195.09,89.32L195.37,89.79L195.45,90.02L195.55,90.87L195.64,92.09L195.72,93.68L195.76,95.08L195.74,96.18L195.70,96.55L195.37,97.05"/><path style="stroke:#000000;stroke-width:0.123" d="M195.70,96.50L195.70,96.55L195.61,96.33L195.52,95.48L195.42,94.17L195.35,92.66L195.31,91.26L195.32,90.23L195.37,89.79"/><path style="stroke:#000000;stroke-width:0.123" d="M195.64,93.67L195.65,94.60L195.62,94.99L195.55,94.61L195.48,93.80L195.43,92.80L195.42,91.74L195.45,91.35L195.51,91.65L195.59,92.55"/><path style="stroke:#000000;stroke-width:0.123" d="M195.72,96.34L195.71,96.50"/><path style="stroke:#000000;stroke-width:0.123" d="M195.75,95.74L195.75,95.79"/><path style="stroke:#000000;stroke-width:0.123" d="M204.09,93.38L204.03,91.66L204.05,91.19L204.50,90.71L204.47,91.38L204.50,92.47L204.55,93.43L204.65,94.64L204.72,94.82L204.22,94.38L204.17,94.21L204.09,93.38"/><path style="stroke:#000000;stroke-width:0.123" d="M204.50,92.47L212.55,92.12"/><path style="stroke:#000000;stroke-width:0.123" d="M204.50,90.71L212.49,90.35"/><path style="stroke:#000000;stroke-width:0.123" d="M204.72,94.82L212.67,94.47"/><path style="stroke:#000000;stroke-width:0.123" d="M214.99,95.45L214.92,95.26L214.83,94.48L214.67,91.87L214.64,90.55L214.64,89.59L214.68,89.16L214.72,89.16"/><path style="stroke:#000000;stroke-width:0.123" d="M214.72,89.52L214.71,88.60L217.08,88.49L217.47,88.76L217.42,89.05L217.41,89.49L217.43,91.30L217.49,92.82L217.58,94.21L217.68,95.21L217.76,95.59L217.75,95.63L217.63,95.44L217.33,95.26L214.96,95.36L214.74,91.66L214.72,89.49"/><path style="stroke:#000000;stroke-width:0.123" d="M214.74,91.66L217.10,91.56L217.40,92.55L217.53,93.74L217.33,95.26"/><path style="stroke:#000000;stroke-width:0.123" d="M214.96,95.36L215.18,96.01L217.54,95.90L217.75,95.63"/><path style="stroke:#000000;stroke-width:0.123" d="M217.08,88.49L217.39,89.95L217.10,91.56"/><path style="stroke:#000000;stroke-width:0.123" d="M217.47,88.76L217.56,89.16L217.66,90.15L217.76,91.85L217.84,94.41L217.82,95.31L217.77,95.60"/><path style="stroke:#000000;stroke-width:0.123" d="M213.91,89.13L213.85,88.37L213.72,87.43L213.55,87.09L213.40,87.03L212.54,87.07L212.47,87.68L212.46,89.00L212.50,90.85L212.58,92.93L212.70,94.92L212.83,96.55L212.96,97.52L213.07,97.73L213.92,97.69L214.07,97.62L214.12,97.47L214.19,96.89L214.20,95.54"/><path style="stroke:#000000;stroke-width:0.123" d="M214.96,95.36L214.88,95.48L214.71,95.55L214.29,95.57L214.05,95.48L213.98,95.36L213.89,94.71L213.79,93.43L213.71,91.86L213.68,90.41L213.70,89.49L213.77,89.19L213.93,89.12L214.42,89.10L214.66,89.18L214.68,89.21"/><path style="stroke:#000000;stroke-width:0.209;stroke-dasharray:2.8 2.8" d="M193.77,93.25L199.40,93.00"/><path style="stroke:#000000;stroke-width:0.209;stroke-dasharray:2.8 2.8" d="M199.20,93.10L207.06,92.75"/><path style="stroke:#000000;stroke-width:0.210" d="M219.80,92.80L219.73,94.27L219.51,95.73L219.16,97.16L218.66,98.54L218.03,99.88L217.27,101.14L216.40,102.32L215.41,103.41L214.32,104.40L213.13,105.28L211.87,106.03L210.54,106.66L209.16,107.16L207.73,107.52L206.27,107.73L204.80,107.80L203.33,107.73L201.87,107.52L200.45,107.16L199.06,106.66L197.73,106.03L196.47,105.28L195.29,104.40L194.19,103.41L193.21,102.32L192.33,101.14L191.57,99.88L190.94,98.54L190.45,97.16L190.09,95.73L189.87,94.27L189.80,92.80L189.87,91.33L190.09,89.88L190.45,88.45L190.94,87.06L191.57,85.73L192.33,84.47L193.21,83.29L194.19,82.20L195.29,81.21L196.47,80.33L197.73,79.58L199.06,78.95L200.45,78.45L201.87,78.09L203.33,77.88L204.80,77.80L206.27,77.88L207.73,78.09L209.16,78.45L210.54,78.95L211.87,79.58L213.13,80.33L214.32,81.21L215.41,82.20L216.40,83.29L217.27,84.47L218.03,85.73L218.66,87.06L219.16,88.45L219.51,89.88L219.73,91.33L219.80,92.80z"/></g></g><g><g><path style="stroke:#000000;stroke-width:0.350;fill:#ffffff" d="M126.60,67.81L125.45,69.65L124.21,71.43L122.88,73.15L121.46,74.79L119.97,76.36L118.40,77.86L116.75,79.28L115.04,80.61L113.26,81.85L111.42,83.01L109.53,84.07L107.59,85.03L105.60,85.90L103.57,86.66L101.50,87.33L99.41,87.89L97.28,88.34L95.14,88.69L92.99,88.93L90.82,89.06L88.65,89.08L88.22,89.07L88.22,89.07L90.37,88.91L92.50,88.64L94.62,88.26L96.72,87.78L98.79,87.19L100.82,86.50L102.82,85.71L104.78,84.82L106.69,83.84L108.56,82.76L110.36,81.58L112.10,80.32L113.78,78.98L115.39,77.55L116.92,76.04L118.38,74.46L119.76,72.81L121.05,71.09L122.26,69.31L123.37,67.47L123.99,66.34z"/></g><g><path style="fill:#ffffff" d="M134.83,66.31L134.78,67.29L134.63,68.26L134.40,69.21L134.06,70.13L133.65,71.02L133.14,71.86L132.56,72.65L131.90,73.38L131.17,74.04L130.38,74.62L129.54,75.12L128.65,75.54L127.73,75.87L126.78,76.11L125.81,76.26L124.83,76.31L123.85,76.26L122.88,76.11L121.92,75.87L121.00,75.54L120.11,75.12L119.27,74.62L118.48,74.04L117.76,73.38L117.10,72.65L116.51,71.86L116.01,71.02L115.59,70.13L115.26,69.21L115.02,68.26L114.87,67.29L114.83,66.31L114.87,65.33L115.02,64.35L115.26,63.40L115.59,62.48L116.01,61.59L116.51,60.75L117.10,59.96L117.76,59.23L118.48,58.58L119.27,57.99L120.11,57.49L121.00,57.07L121.92,56.74L122.88,56.50L123.85,56.35L124.83,56.31L125.81,56.35L126.78,56.50L127.73,56.74L128.65,57.07L129.54,57.49L130.38,57.99L131.17,58.58L131.90,59.23L132.56,59.96L133.14,60.75L133.65,61.59L134.06,62.48L134.40,63.40L134.63,64.35L134.78,65.33L134.83,66.31z"/><path style="stroke:#ff0000;stroke-width:0.997;stroke-opacity:0.00" d="M134.33,66.31L134.14,68.16L133.60,69.94L132.73,71.58L131.54,73.02L130.10,74.20L128.46,75.08L126.68,75.62L124.83,75.81L122.97,75.62L121.19,75.08L119.55,74.20L118.11,73.02L116.93,71.58L116.05,69.94L115.51,68.16L115.33,66.31L115.51,64.45L116.05,62.67L116.93,61.03L118.11,59.59L119.55,58.41L121.19,57.53L122.97,56.99L124.83,56.81L126.68,56.99L128.46,57.53L130.10,58.41L131.54,59.59L132.73,61.03L133.60,62.67L134.14,64.45L134.33,66.31"/><path style="stroke:#000000;stroke-width:0.123" d="M116.59,67.10L116.52,65.10L116.54,64.56L117.06,63.99L117.03,64.68L117.07,66.33L117.13,67.51L117.23,68.55L117.31,68.76L116.74,68.25L116.67,68.06L116.59,67.10"/><path style="stroke:#000000;stroke-width:0.123" d="M117.06,66.04L126.37,65.62"/><path style="stroke:#000000;stroke-width:0.123" d="M117.06,63.99L126.30,63.58"/><path style="stroke:#000000;stroke-width:0.123" d="M117.31,68.76L126.52,68.35"/><path style="stroke:#000000;stroke-width:0.123" d="M129.21,69.49L129.12,69.27L129.02,68.36L128.84,65.34L128.80,63.82L128.80,62.70L128.85,62.20L128.89,62.20"/><path style="stroke:#000000;stroke-width:0.123" d="M128.89,62.63L128.88,61.55L131.62,61.43L131.99,63.12L131.65,64.98L128.91,65.10L129.17,69.39L129.42,70.13L132.16,70.01L132.40,69.70L132.26,69.47L131.91,69.27L129.17,69.39"/><path style="stroke:#000000;stroke-width:0.123" d="M128.91,65.10L128.89,62.59"/><path style="stroke:#000000;stroke-width:0.123" d="M131.62,61.43L132.08,61.75L132.01,62.07L132.00,62.95L132.03,64.68L132.10,66.44L132.21,68.06L132.32,69.21L132.42,69.65L132.40,69.69"/><path style="stroke:#000000;stroke-width:0.123" d="M131.91,69.27L132.15,67.52L132.00,66.14L131.65,64.98"/><path style="stroke:#000000;stroke-width:0.123" d="M132.08,61.75L132.18,62.20L132.29,63.35L132.44,66.05L132.50,68.28L132.48,69.33L132.42,69.66"/><path style="stroke:#000000;stroke-width:0.123" d="M128.29,69.59L128.28,71.14L128.20,71.82L128.14,72.00L127.97,72.08L126.98,72.12L126.85,71.89L126.70,70.76L126.55,68.89L126.41,66.57L126.32,64.16L126.27,62.02L126.29,60.49L126.37,59.78L127.36,59.74L127.54,59.80L127.74,60.20L127.88,61.29L127.95,62.17"/><path style="stroke:#000000;stroke-width:0.123" d="M129.16,69.38L129.07,69.52L128.88,69.61L128.39,69.63L128.11,69.52L128.04,69.38L127.93,68.64L127.81,67.15L127.73,65.33L127.68,63.66L127.71,62.59L127.79,62.24L127.98,62.16L128.55,62.13L128.83,62.22L128.84,62.26"/><path style="stroke:#000000;stroke-width:0.210" d="M134.83,66.31L134.78,67.29L134.63,68.26L134.40,69.21L134.06,70.13L133.65,71.02L133.14,71.86L132.56,72.65L131.90,73.38L131.17,74.04L130.38,74.62L129.54,75.12L128.65,75.54L127.73,75.87L126.78,76.11L125.81,76.26L124.83,76.31L123.85,76.26L122.88,76.11L121.92,75.87L121.00,75.54L120.11,75.12L119.27,74.62L118.48,74.04L117.76,73.38L117.10,72.65L116.51,71.86L116.01,71.02L115.59,70.13L115.26,69.21L115.02,68.26L114.87,67.29L114.83,66.31L114.87,65.33L115.02,64.35L115.26,63.40L115.59,62.48L116.01,61.59L116.51,60.75L117.10,59.96L117.76,59.23L118.48,58.58L119.27,57.99L120.11,57.49L121.00,57.07L121.92,56.74L122.88,56.50L123.85,56.35L124.83,56.31L125.81,56.35L126.78,56.50L127.73,56.74L128.65,57.07L129.54,57.49L130.38,57.99L131.17,58.58L131.90,59.23L132.56,59.96L133.14,60.75L133.65,61.59L134.06,62.48L134.40,63.40L134.63,64.35L134.78,65.33L134.83,66.31z"/></g></g><g id="Actor_.0"><g style="stroke:#000000;stroke-width:0.123"><path d="M54.46,81.55L54.49,81.66L54.47,81.79L54.42,81.90L54.35,81.95L54.29,81.91L54.26,81.81L54.27,81.67L54.32,81.56L54.39,81.52L54.46,81.55L54.43,81.49L54.35,81.44L54.25,81.50L54.19,81.65L54.17,81.82L54.21,81.96L54.29,82.00L53.42,81.86"/><path d="M54.19,81.65L53.38,81.51"/><path d="M53.51,81.30L54.35,81.44"/><path d="M54.29,82.00L54.38,81.94L54.42,81.90"/></g></g><g id="Actor_4.0"><g style="stroke:#000000;stroke-width:0.123"><path d="M205.73,142.66L205.70,142.46L205.64,142.38L205.62,142.37L205.50,142.34L205.41,142.38L205.31,142.53L205.21,142.77L205.14,143.06L205.09,143.37L205.09,143.51L205.08,143.64L205.11,143.83L205.18,143.91L205.30,143.93L205.32,143.93L205.41,143.89L205.51,143.75L205.53,143.71"/></g></g><g id="Actor_6.0"><g style="stroke:#000000;stroke-width:0.123"><path d="M87.29,93.23L87.32,93.22L87.54,93.30L87.73,93.44L87.87,93.61L87.92,93.79L87.87,93.93L87.74,94.01L87.54,94.02L87.50,94.00"/><path d="M87.35,93.47L87.39,93.46L87.51,93.51L87.60,93.60L87.63,93.70L87.58,93.77L87.47,93.78L87.44,93.76"/><path d="M87.47,93.78L87.52,93.70"/><path d="M87.62,93.69L87.53,93.70L87.41,93.65L87.40,93.64"/><path d="M87.87,93.93L87.92,93.86L87.97,93.71L87.97,93.70L87.92,93.52L87.79,93.35L87.59,93.22L87.38,93.14L87.26,93.15"/></g></g><g id="Actor_4.1"><g style="stroke:#000000;stroke-width:0.123"><path d="M204.31,132.18L204.28,131.99L204.21,131.90L204.19,131.89L204.07,131.86L203.98,131.90L203.88,132.04L203.82,132.22L203.79,132.29L203.72,132.59L203.68,132.90L203.68,133.18L203.71,133.37L203.77,133.46L203.90,133.49L203.92,133.48L204.01,133.45L204.10,133.30L204.12,133.26"/></g></g><g id="Actor_10.0"><g style="stroke:#000000;stroke-width:0.123"><path d="M254.54,145.95L252.98,147.55L250.83,149.05L248.18,150.26L246.04,150.90L243.77,151.32L240.52,151.60L237.39,151.54L232.80,151.00L215.17,147.87L214.55,145.83L213.84,141.66L213.49,138.77"/><path d="M213.79,136.13L213.48,138.86"/><path d="M214.10,133.23L213.71,134.36L213.79,136.09"/><path d="M214.10,133.24L214.17,132.80"/><path d="M214.17,132.80L213.96,130.36L214.12,130.46L222.66,131.90L222.73,131.72L214.35,130.32L214.24,130.17L214.34,129.93L214.39,130.32"/><path d="M213.96,130.36L214.10,129.88L214.34,129.93"/><path d="M218.38,141.43L218.63,141.42L218.52,141.41"/><path d="M218.63,141.43L225.91,142.70L225.36,142.60"/><path d="M222.00,142.02L222.12,143.58L222.27,143.81L222.64,144.02L237.05,146.77L237.36,146.75"/><path d="M222.73,131.72L223.41,131.76L224.27,131.58L226.02,130.46"/><path d="M222.66,131.90L223.62,131.92L224.38,131.74L226.12,130.74L226.00,130.71L226.01,130.58L226.20,129.31L230.57,130.02L230.54,130.26L230.98,130.78L231.02,130.62L231.47,130.63L231.03,130.58L230.57,130.02"/><path d="M227.36,142.95L225.91,142.70L227.16,142.92"/><path d="M226.11,129.52L230.54,130.26"/><path d="M227.14,142.92L231.66,143.71"/><path d="M229.17,135.74L229.28,134.60L229.98,131.55"/><path d="M231.65,143.70L232.73,143.88L232.35,143.82"/><path d="M231.47,130.63L235.46,130.57L239.46,130.19L242.54,129.61L245.66,128.64L248.27,127.46L250.53,126.00L252.28,124.33L253.18,123.06L253.59,122.03L253.71,122.19L253.37,123.09L252.79,124.00L251.75,125.18L250.75,126.06L248.36,127.61L245.74,128.80L242.59,129.76L239.55,130.35L235.49,130.73L230.98,130.78"/><path d="M231.02,130.62L231.03,130.58"/><path d="M234.26,144.09L232.82,143.89"/><path d="M234.66,144.17L234.13,144.08"/><path d="M235.35,149.55L236.42,149.67"/><path d="M236.60,144.99L235.83,144.57L234.68,144.18L234.82,144.21"/><path d="M236.69,145.06L236.63,145.01L237.07,145.43"/><path d="M237.41,146.93L237.41,147.02L237.41,146.93"/><path d="M236.73,145.10L237.41,146.92"/><path d="M237.61,145.91L238.33,147.23"/><path d="M247.66,132.19L247.64,132.15"/><path d="M253.60,122.58L253.63,122.48"/><path d="M253.71,122.19L253.88,120.81L254.11,115.21L254.10,108.90L254.15,108.65L254.94,108.78"/><path d="M253.74,122.03L253.59,122.03"/><path d="M257.23,142.27L254.54,145.95"/><path d="M258.00,102.77L256.42,106.47L254.95,108.77"/><path d="M255.49,135.43L255.69,135.14L255.49,135.43"/><path d="M255.69,135.14L256.42,134.08"/><path d="M255.81,127.52L256.01,121.32"/><path d="M256.03,120.68L256.01,121.27L256.03,120.68"/><path d="M256.01,121.27L256.01,121.53"/><path d="M256.63,143.19L257.78,141.27"/><path d="M256.37,134.17L256.95,133.19L256.80,133.43"/><path d="M256.10,134.56L256.12,134.53"/><path d="M256.95,133.19L257.02,133.07"/><path d="M256.62,133.76L256.94,133.20"/><path d="M257.71,141.42L257.20,142.34L257.34,142.09"/><path d="M257.88,141.07L257.68,141.49L257.88,141.07"/><path d="M258.13,140.47L257.93,140.97L259.02,138.17L259.08,131.43L258.71,103.10L258.62,102.95L258.01,102.78"/><path d="M257.86,103.12L257.67,103.07"/><path d="M257.63,103.72L257.65,103.03"/><path d="M257.95,102.87L258.96,99.89L258.71,99.85L257.61,102.98"/><path d="M259.02,103.34L258.96,99.89"/><path d="M259.08,132.02L259.35,129.58L259.38,127.32"/><path d="M259.37,126.18L259.22,116.04"/><path d="M259.20,114.83L259.04,104.59"/></g></g><g id="Actor_.1"><g style="stroke:#000000;stroke-width:0.123"><path d="M87.34,89.49L87.24,89.50L87.27,89.50L87.38,89.50L87.44,89.45L87.43,89.36L87.35,89.26L87.24,89.20L87.13,89.20L87.07,89.26L87.08,89.35L87.14,89.44L87.09,89.34L87.12,89.28L87.22,89.27L87.32,89.33L87.38,89.42L87.34,89.49"/><path d="M87.24,89.50L87.14,89.44"/><path d="M87.44,89.45L87.76,88.95"/><path d="M87.24,89.20L87.56,88.71"/><path d="M87.07,89.26L87.40,88.76"/><path d="M87.41,88.38L87.46,88.30L87.62,88.25L87.76,88.23L87.97,88.35L87.93,88.32L87.76,88.23L87.66,88.39L87.89,88.55"/><path d="M87.60,88.40L87.66,88.39"/><path d="M87.97,88.35L88.09,88.46L88.12,88.58L88.13,88.61L88.13,88.75L88.08,88.82"/><path d="M88.13,88.61L88.09,88.46L87.99,88.62L87.89,88.55"/><path d="M87.99,88.62L88.00,88.66"/></g></g><g id="Actor_11.0"><g style="stroke:#000000;stroke-width:0.123"><path d="M249.15,126.95L247.09,126.99L247.04,125.85L247.05,125.66L247.07,125.43L247.10,125.30L247.55,124.09L247.60,123.86L247.61,123.76L247.54,121.87"/><path d="M247.04,125.80L247.05,125.59"/><path d="M247.04,125.75L247.04,125.67L247.04,125.70"/><path d="M247.04,125.75L247.04,125.85"/><path d="M248.79,120.30L248.84,121.74L248.85,121.82L248.86,121.85L246.77,121.88L246.75,121.86L246.74,121.78L246.69,120.25L248.79,120.21L248.79,120.30L246.69,120.34"/><path d="M248.67,122.67L248.43,122.65L248.22,122.60L248.10,122.46L247.99,122.28L248.06,122.10L248.27,121.86L248.21,122.05L248.38,122.10L248.65,122.12L248.72,121.94L248.95,122.25L248.88,122.43L248.76,122.58L248.81,122.45L248.76,122.31L248.62,122.18L248.43,122.11L248.24,122.11L248.10,122.18L248.05,122.31L248.10,122.46L248.24,122.58L248.43,122.65L248.62,122.65L248.76,122.58L248.67,122.67"/><path d="M247.99,122.28L248.07,122.21L248.21,122.05"/><path d="M248.72,121.94L248.27,121.86"/><path d="M247.35,120.24L247.41,120.08L247.46,119.99L248.79,120.21"/><path d="M249.12,125.77L249.17,126.94L249.12,125.82L249.15,125.47L249.19,125.27L249.50,124.42L249.53,124.32L249.55,124.09L249.44,120.50L249.43,120.44L249.40,120.44L249.37,120.50L248.90,121.78L248.86,121.85"/><path d="M249.12,125.82L249.12,125.74"/><path d="M248.79,120.21L248.84,121.66L248.85,121.72L248.88,121.71L248.91,121.66L249.37,120.41L249.41,120.32L249.45,120.32L249.47,120.42L249.58,124.01L249.57,124.17L249.54,124.35L249.50,124.51L249.16,125.44L249.14,125.54"/><path d="M249.14,125.55L249.14,125.55"/><path d="M249.13,125.63L249.14,125.54"/><path d="M248.88,122.43L248.76,122.31L248.65,122.12"/><path d="M249.45,120.32L248.79,120.21"/></g></g><g id="Actor_4.2"><g style="stroke:#000000;stroke-width:0.123"><path d="M204.54,139.24L204.52,139.28L204.42,139.43L204.33,139.46L204.31,139.47L204.18,139.44L204.12,139.36L204.09,139.16L204.09,138.89L204.14,138.58L204.22,138.28L204.31,138.04L204.41,137.89L204.51,137.86L204.63,137.89L204.65,137.90L204.71,137.99L204.75,138.18"/></g></g><g id="Actor_.2"><g style="stroke:#000000;stroke-width:0.123"><path d="M88.04,89.14L88.08,89.06L88.11,88.91L88.11,88.89L88.04,88.72L87.89,88.55L87.69,88.43L87.64,88.41L87.48,88.37L87.30,88.39L87.29,88.40L87.17,88.50L87.12,88.57L87.24,88.48L87.42,88.45L87.64,88.51L87.84,88.63L87.96,88.77L87.99,88.80L88.06,88.98L88.04,89.14L87.92,89.23L87.74,89.26L87.59,89.22"/><path d="M87.24,88.99L87.17,88.91L87.10,88.73L87.12,88.57"/><path d="M87.40,88.75L87.42,88.72L87.45,88.71"/><path d="M87.47,88.70L87.52,88.69L87.55,88.71"/><path d="M87.58,88.72L87.64,88.73L87.67,88.76"/><path d="M87.75,88.85L87.73,88.82L87.69,88.78"/><path d="M87.75,88.98L87.74,88.99L87.73,88.99"/><path d="M87.76,88.87L87.77,88.92L87.76,88.94"/></g></g><g id="Actor_.3"><g style="stroke:#000000;stroke-width:0.123"><path d="M51.01,71.34L51.06,71.23L51.07,71.09L51.04,70.98L50.98,70.94L50.91,70.99L50.85,71.10L50.84,71.24L50.87,71.35L50.93,71.39L51.01,71.34L50.97,71.38L50.87,71.44L50.79,71.39L50.75,71.25L50.77,71.07L49.94,70.94"/><path d="M50.87,71.44L49.97,71.30"/><path d="M50.77,71.07L50.84,70.93L50.93,70.87L50.06,70.73"/><path d="M51.04,70.98L51.01,70.92L50.93,70.87"/></g></g><g id="Actor_3.0"><g style="stroke:#000000;stroke-width:0.123"><path d="M204.38,139.10L204.37,138.93L204.39,138.71L204.44,138.49L204.46,138.42L204.43,138.61L204.39,138.75L204.37,138.93L204.39,139.15L204.38,139.10"/><path d="M204.81,139.24L204.92,139.29L204.96,139.32L204.54,139.24L204.42,139.19L204.39,139.15L204.81,139.24L204.87,139.02L204.87,138.85L204.85,138.69L204.97,138.52L205.02,138.37L205.03,138.24L205.15,138.29L205.17,138.32L205.19,138.38L205.20,138.55L205.18,138.76L205.13,138.98L205.06,139.16L204.99,139.27L204.93,139.28L204.88,139.20L204.87,139.03L204.89,138.81L204.94,138.59L205.01,138.41L205.09,138.30L205.15,138.29L205.19,138.38"/><path d="M204.46,138.42L204.51,138.31L204.53,138.27L204.46,138.42"/><path d="M204.43,138.61L204.85,138.69"/><path d="M204.92,139.05L204.92,139.08L204.96,139.15L205.01,139.13L205.08,139.02L205.13,138.84L205.16,138.65L205.15,138.50L205.12,138.42L205.06,138.44L205.00,138.56L204.95,138.73L204.92,138.92L204.92,139.05"/><path d="M205.13,138.98L205.10,139.06L205.06,139.16L205.04,139.20L204.96,139.32"/><path d="M204.53,138.27L204.61,138.16L205.03,138.24"/></g></g><g id="Actor_12.0"><g style="stroke:#000000;stroke-width:0.123"><path d="M79.71,74.74L96.55,77.20L96.53,77.10L79.68,74.63L79.71,74.74"/><path d="M79.68,74.63L80.01,74.14L80.08,74.08L96.92,76.54L96.53,77.10"/><path d="M80.30,74.82L80.81,76.53L80.93,76.81L81.12,77.08L81.38,77.32L81.68,77.53L82.01,77.68L82.33,77.76L83.85,77.98L84.16,78.00L84.42,77.93L84.62,77.81L84.76,77.62L84.80,77.38L84.77,77.12L84.58,76.46L84.54,76.19L84.59,75.95"/><path d="M81.68,77.14L81.80,77.13L81.88,77.05L81.89,76.94L81.82,76.82L81.69,76.72L81.54,76.66L81.42,76.68L81.34,76.75L81.34,76.86L81.41,76.98L81.54,77.08L81.68,77.14"/><path d="M81.40,76.69L81.40,76.77L81.47,76.89L81.60,77.00L81.74,77.05L81.89,77.02"/><path d="M83.84,77.23L83.91,77.35L84.03,77.45L84.18,77.51L84.31,77.49L84.38,77.42L84.38,77.31L84.31,77.19L84.19,77.09L84.04,77.03L83.91,77.04L83.84,77.12L83.84,77.23"/><path d="M83.90,77.06L83.90,77.14L83.97,77.26L84.09,77.37L84.24,77.42L84.38,77.39"/><path d="M84.59,75.95L84.72,75.76L84.92,75.63L85.19,75.57L85.47,75.58"/><path d="M84.65,75.87L84.60,76.10L84.63,76.37L84.83,77.03L84.86,77.29L84.81,77.53L84.76,77.62"/><path d="M91.86,76.52L92.17,76.59L92.50,76.74L92.80,76.95L93.06,77.20L93.25,77.47L93.37,77.75L93.56,78.41L93.68,78.69L93.87,78.97L94.13,79.21L94.43,79.42L94.76,79.57L95.09,79.65L96.63,79.88L96.95,79.89L97.22,79.83L97.43,79.70L97.57,79.51L97.62,79.28L97.59,79.01L96.97,76.73L96.93,76.68L96.88,76.71L96.55,77.20"/><path d="M94.29,78.97L94.16,78.87L94.10,78.75L94.10,78.63L94.18,78.56L94.31,78.55L94.46,78.60L94.58,78.70L94.65,78.83L94.65,78.94L94.57,79.01L94.46,79.02L94.29,78.97"/><path d="M94.65,78.90L94.50,78.93L94.35,78.88L94.22,78.78L94.15,78.66L94.16,78.58"/><path d="M97.00,78.98L96.85,78.92L96.72,78.94L96.64,79.01L96.63,79.12L96.71,79.25L96.83,79.35L96.98,79.40L97.11,79.39L97.19,79.32L97.19,79.20L97.12,79.08L97.00,78.98"/><path d="M96.70,78.96L96.69,79.03L96.76,79.16L96.89,79.26L97.04,79.31L97.19,79.28"/><path d="M97.57,79.51L97.62,79.42L97.68,79.19L97.65,78.92L97.02,76.64L96.98,76.55L96.92,76.54"/></g></g><g id="Actor_14.0"><g style="stroke:#000000;stroke-width:0.123"><path d="M70.32,91.93L70.29,91.91L70.25,91.84L69.84,90.49L68.49,89.91L68.90,91.26L68.94,91.33L68.98,91.36L70.36,91.94L70.43,91.92L70.49,91.86L71.43,90.49L71.48,90.44L71.53,90.45L71.57,90.51L72.59,93.87L72.60,93.97L72.58,94.08L72.54,94.17L71.81,95.25L71.76,95.37L71.74,95.51L71.74,95.58L71.77,95.68L72.37,96.80L71.03,96.22L70.41,95.06L70.40,94.93L70.40,94.86L70.44,94.73L70.50,94.62L70.99,93.90L71.03,93.81L71.05,93.70L71.04,93.61L70.50,91.85"/><path d="M68.49,89.91L68.56,89.84L69.91,90.42L69.84,90.49"/><path d="M69.91,90.42L70.32,91.77L70.34,91.81L70.37,91.84L70.40,91.84L70.45,91.81L71.40,90.42L71.48,90.34L71.56,90.35L69.93,90.08L69.85,90.15L69.72,90.34"/><path d="M70.94,92.36L70.86,92.23L70.86,92.10L70.94,92.03L71.07,92.02L71.24,92.07L71.38,92.18L71.46,92.32L71.46,92.44L71.38,92.52L71.24,92.53L71.08,92.48L70.94,92.36L71.08,92.47L71.24,92.53L71.43,92.54L71.53,92.31L71.41,92.22L71.27,92.02L71.38,91.87L71.63,92.16L71.53,92.31"/><path d="M71.38,91.87L71.03,91.81L70.92,91.97L71.12,92.02L71.27,92.02"/><path d="M70.94,92.36L70.83,92.20L70.86,92.10L70.92,91.97"/><path d="M71.56,90.35L71.62,90.44L72.63,93.80L72.65,93.95L72.62,94.11L72.56,94.25L71.87,95.28L71.81,95.44L71.81,95.54L71.83,95.61L72.43,96.72L72.37,96.80"/><path d="M71.43,92.54L71.53,92.38L71.63,92.16"/></g></g><g id="Actor_3.1"><g style="stroke:#000000;stroke-width:0.123"><path d="M204.49,133.09L204.47,133.15L204.40,133.25L204.33,133.26L204.29,133.17L204.28,133.11L204.28,133.00L204.30,132.79L204.35,132.56L204.42,132.38L204.49,132.27L204.56,132.26L204.60,132.35L204.61,132.48"/><path d="M203.90,133.15L204.22,133.21L204.33,133.26L204.36,133.30L204.04,133.24"/><path d="M204.36,133.30L204.45,133.19L204.47,133.15L204.49,133.09"/><path d="M204.22,133.21L204.27,133.00L204.28,132.82L204.25,132.66L204.37,132.49L204.42,132.34L204.44,132.21L204.56,132.26L204.58,132.30L204.60,132.35"/><path d="M204.56,132.47L204.52,132.40L204.47,132.42L204.40,132.53L204.35,132.71L204.32,132.90L204.33,133.05L204.36,133.13L204.42,133.11L204.44,133.08"/><path d="M204.25,132.66L203.94,132.60"/><path d="M204.44,132.21L204.11,132.14"/></g></g><g id="Actor_.4"><g style="stroke:#000000;stroke-width:0.123"><path d="M56.75,92.09L57.59,92.24L57.51,92.19L57.47,92.06L57.49,91.89L56.73,91.76"/><path d="M57.49,91.89L57.55,91.74L57.64,91.68L56.84,91.55"/><path d="M57.75,91.79L57.69,91.76L57.62,91.80L57.57,91.91L57.56,92.04L57.59,92.15L57.65,92.18L57.72,92.14L57.77,92.02L57.78,91.89L57.75,91.79L57.72,91.73L57.64,91.68"/><path d="M57.72,92.14L57.68,92.17L57.59,92.24"/></g></g><g id="Actor_3.2"><g style="stroke:#000000;stroke-width:0.123"><path d="M92.77,112.67L92.78,112.86L92.79,112.93L92.77,112.67L92.83,112.39L92.87,112.29L92.94,112.18L93.07,112.05L93.13,112.06"/><path d="M93.09,113.16L92.98,113.14L92.90,113.08L92.83,113.01L92.79,112.93L93.03,112.98"/><path d="M92.77,112.67L92.81,112.46L92.87,112.29L92.88,112.27L92.94,112.18"/><path d="M92.83,112.39L92.96,112.41"/></g></g><g id="Actor_7.0"><g style="stroke:#000000;stroke-width:0.123"><path d="M84.94,93.85L85.25,94.71L85.29,94.78L85.35,94.80L83.70,94.51L83.65,94.44L83.34,93.58L83.38,93.50L84.98,93.77L84.94,93.85L83.34,93.58"/><path d="M84.55,93.70L85.50,92.80L85.57,92.76L87.16,93.03L87.09,93.06L85.40,94.67L85.34,94.69L85.29,94.63L84.98,93.77"/><path d="M85.99,94.22L86.45,95.87L86.46,95.99L86.43,96.12L85.41,98.45L85.37,98.59L85.36,98.73L85.38,98.86L85.66,99.64L87.25,99.91L87.29,99.83L87.01,99.05L86.99,98.92L87.03,98.78L88.04,96.45L88.08,96.32L88.10,96.18L88.08,96.06L87.26,93.14L87.22,93.06L87.16,93.03"/><path d="M85.35,94.80L85.41,94.76L87.10,93.16L87.17,93.14L87.22,93.21L88.03,96.14L88.04,96.26L88.01,96.39L87.00,98.72L86.95,98.86L86.94,99.01L86.96,99.13L87.25,99.91"/><path d="M86.83,94.48L86.61,94.46L86.47,94.42L86.57,94.26L86.93,94.32L86.83,94.48L86.94,94.64L87.08,94.77L86.97,95.00L86.77,94.99L86.92,94.98L87.01,94.91L87.02,94.79L86.95,94.65L86.81,94.54L86.64,94.47L86.50,94.48L86.41,94.55L86.40,94.67L86.47,94.81L86.61,94.92L86.77,94.99L86.62,94.94L86.47,94.81"/><path d="M86.47,94.81L86.36,94.65L86.47,94.42"/><path d="M87.08,94.77L87.19,94.61L86.93,94.32"/><path d="M86.97,95.00L87.08,94.84L87.19,94.61"/></g></g><g id="Actor_13.0"><g style="stroke:#000000;stroke-width:0.123"><path d="M51.20,99.90L49.09,93.79L48.79,92.09L48.48,88.38L48.10,86.53L44.29,75.05L44.70,74.02L45.18,73.14L46.74,70.79L47.44,69.84L48.03,69.80L46.16,72.40L45.32,73.84L44.82,74.96"/><path d="M63.46,100.76L63.65,100.58L67.15,101.23L67.01,101.43L63.46,100.76L63.23,101.11L59.15,99.34L57.45,98.38L55.55,97.04L53.79,95.39L52.72,94.07L51.85,92.63L51.31,91.39L49.91,87.35L46.77,79.39L45.37,75.36L45.41,75.06L47.36,80.57L49.79,86.80L50.06,87.73L50.26,87.65L51.73,91.84L52.24,92.89L52.92,93.98L54.53,95.87L55.73,96.94L56.89,97.80L58.72,98.91L60.28,99.70L63.37,100.95"/><path d="M45.42,75.05L44.82,74.95"/><path d="M44.94,74.97L45.93,73.03L47.07,71.30L47.89,70.17L48.43,70.01L50.29,67.51L58.69,93.40L59.86,96.49L61.76,100.35"/><path d="M48.59,89.51L48.59,89.47"/><path d="M48.59,89.44L48.58,89.34"/><path d="M47.98,70.12L48.03,69.82L48.00,70.12"/><path d="M48.01,70.12L48.10,69.88L48.03,69.80"/><path d="M47.95,70.13L47.97,70.13"/><path d="M48.12,69.95L48.32,69.87L50.10,67.48L50.29,67.51"/><path d="M50.26,87.65L50.07,87.62"/><path d="M50.19,88.12L50.15,88.02"/><path d="M50.21,70.76L50.01,70.77L49.92,71.05L50.00,71.34L50.12,71.32"/><path d="M50.94,101.41L50.89,103.19L51.30,104.94L53.29,109.61L54.56,112.32L55.28,113.35L55.97,114.05"/><path d="M50.92,101.69L51.01,100.39L51.00,100.52"/><path d="M51.01,100.39L51.04,99.55"/><path d="M50.97,100.92L51.02,100.21"/><path d="M51.05,99.60L51.05,99.61"/><path d="M51.04,99.52L51.04,99.44L51.04,99.52"/><path d="M51.17,99.80L51.20,99.92L51.18,99.83"/><path d="M50.90,97.62L50.97,97.56"/><path d="M53.65,81.33L53.45,81.35L53.37,81.58L53.44,81.90L53.56,81.89"/><path d="M55.98,114.06L58.98,116.78L60.37,117.63L62.32,118.48L65.73,119.42L79.94,122.32L80.11,122.29L80.85,121.36L81.28,118.45L79.09,113.45L76.12,105.30L75.95,105.28L75.58,105.56L68.73,104.26L68.55,104.39L67.97,104.16L67.54,103.68L68.27,105.82"/><path d="M56.90,92.12L56.72,92.05L56.71,91.87L56.82,91.56L56.99,91.57"/><path d="M58.63,113.79L58.44,112.70"/><path d="M59.11,111.94L59.33,111.88"/><path d="M59.22,111.89L59.85,111.90"/><path d="M72.38,116.06L60.55,113.95L60.16,113.59L60.08,111.94"/><path d="M60.13,111.95L59.68,111.87"/><path d="M60.07,111.93L61.35,112.24L61.13,112.19"/><path d="M62.15,117.02L61.38,116.79"/><path d="M62.05,112.38L66.22,113.20L65.75,113.11"/><path d="M61.41,112.25L61.35,112.24L62.06,112.39"/><path d="M63.10,100.88L63.30,100.96L63.10,100.88"/><path d="M63.30,100.96L63.35,100.98"/><path d="M67.04,113.36L66.22,113.20L67.02,113.35"/><path d="M66.22,113.20L72.59,114.44"/><path d="M67.01,101.43L67.41,102.59L67.29,102.57L67.40,102.67L67.54,103.68"/><path d="M67.15,101.23L67.57,102.33L67.41,102.59"/><path d="M68.73,104.26L68.25,104.10L67.82,103.72L67.71,103.47L67.57,102.33"/><path d="M67.49,103.53L67.56,103.73"/><path d="M68.20,104.07L67.60,102.41"/><path d="M68.66,104.36L75.61,105.74L75.91,105.63L76.12,105.30"/><path d="M72.41,116.21L71.80,114.29"/><path d="M72.41,116.19L72.38,116.25"/><path d="M72.92,114.61L72.57,114.44"/><path d="M76.74,109.86L76.89,109.99L77.04,109.75L77.04,109.44L76.96,109.34L76.81,109.45L76.74,109.86"/><path d="M76.85,109.41L76.74,109.91"/><path d="M78.12,115.59L78.28,115.67L78.41,115.45L78.33,115.04L78.13,115.28L78.12,115.59L78.22,115.10"/><path d="M80.54,119.58L80.46,119.93L80.30,120.03L80.22,119.81L80.30,119.49L80.45,119.39L80.54,119.58"/><path d="M80.33,119.45L80.23,119.94"/></g></g><g id="Actor_9.0"><g style="stroke:#000000;stroke-width:0.123"><path d="M56.29,140.41L56.90,140.51L57.10,140.49L57.30,140.40L57.47,140.22L57.61,139.86L57.64,139.65L57.62,139.50L56.65,136.83L56.38,136.49L56.16,136.32L55.84,136.14L55.50,136.03L45.65,134.09L45.11,134.03L44.74,134.06L44.30,134.20L44.11,134.32L43.87,134.54L43.66,134.78L43.56,134.99L43.50,135.22L43.49,135.53L43.62,137.11L43.66,137.28L43.76,137.46L43.99,137.72"/><path d="M56.68,139.98L56.37,140.37L56.21,140.43L56.14,140.42L44.20,138.03L44.08,137.96L44.00,137.82L43.88,136.27L43.89,136.06L43.92,135.90L44.25,135.33"/><path d="M45.23,135.56L55.15,137.53L55.30,137.62L55.42,137.77L56.32,140.30L56.27,140.39L56.12,140.40L44.19,138.01L44.10,137.96L44.04,137.85L43.92,136.30L43.93,136.09L44.00,135.90L44.12,135.74L44.30,135.62L44.52,135.54L44.78,135.51L45.23,135.56L44.98,135.52"/><path d="M44.57,135.43L44.39,135.47"/><path d="M48.18,133.03L48.91,132.81L48.18,133.03L47.43,133.31L46.83,133.58L45.77,134.12L46.22,133.87"/><path d="M46.34,133.81L46.94,132.95L47.65,133.23"/><path d="M46.87,133.56L47.43,133.31"/><path d="M52.79,135.50L52.63,134.72L52.39,134.03L52.23,133.71L52.00,133.40L51.73,133.13L51.47,132.93L51.16,132.78L50.77,132.67L50.35,132.63L49.82,132.64L48.91,132.81"/><path d="M49.82,132.64L50.32,132.62"/><path d="M53.82,135.69L53.58,135.03L53.28,134.45L53.03,134.08L52.83,133.84L52.51,133.51L52.01,133.14L51.54,132.89L50.94,132.70L50.33,132.62"/><path d="M53.18,134.31L53.83,133.33L53.87,133.16L53.86,132.97L53.79,132.77L53.70,132.58L53.52,132.34L53.09,131.94L52.83,131.78L52.57,131.64L52.30,131.54L52.03,131.48L51.79,131.47L51.61,131.49L51.39,131.56L51.24,131.66L50.58,132.64"/><path d="M51.60,131.49L51.79,131.41L51.99,131.39L52.21,131.40L52.45,131.46L52.93,131.67L53.36,131.98L53.69,132.36L53.79,132.55L53.85,132.74L53.85,132.94"/><path d="M51.71,131.44L51.84,131.26L52.06,131.39"/><path d="M52.75,131.58L53.12,131.03L53.21,131.03L53.26,131.11L52.95,131.68"/><path d="M53.42,132.04L53.71,131.61L53.71,131.55L53.68,131.47L53.62,131.39L53.43,131.29L53.27,131.29L52.98,131.70"/><path d="M53.58,135.04L53.82,135.70"/><path d="M53.86,133.02L53.92,132.91L53.85,132.87"/><path d="M53.92,132.91L54.10,132.63L53.86,133.06"/><path d="M53.71,132.40L54.10,132.63"/><path d="M56.66,140.01L56.67,140.00"/></g></g><g id="Actor_3.3"><g style="stroke:#000000;stroke-width:0.123"><path d="M205.31,143.61L205.63,143.67L205.74,143.72L205.77,143.75L205.45,143.69"/><path d="M206.01,142.95L206.00,142.82L205.99,142.77L205.96,142.74L205.85,142.69L205.83,142.82L205.78,142.96L205.67,143.14L205.35,143.08"/><path d="M205.89,143.55L205.87,143.60L205.80,143.71L205.74,143.72L205.70,143.64L205.69,143.47L205.71,143.26L205.76,143.04L205.83,142.86L205.90,142.75L205.96,142.74L206.00,142.82"/><path d="M205.84,143.54L205.83,143.57L205.77,143.59L205.74,143.52L205.73,143.37L205.76,143.18L205.81,143.00L205.88,142.89L205.93,142.87L205.96,142.94"/><path d="M205.67,143.14L205.69,143.29L205.68,143.47L205.63,143.67"/><path d="M205.89,143.55L205.87,143.60L205.85,143.64L205.77,143.75"/><path d="M205.53,142.62L205.85,142.69"/></g></g><g id="Actor_.5"><g style="stroke:#000000;stroke-width:0.123"><path d="M205.09,143.39L204.94,143.36"/><path d="M205.21,142.78L205.06,142.75"/><path d="M206.01,143.16L206.05,143.05L206.10,143.03L206.12,143.10L206.11,143.24L206.08,143.38L206.03,143.48L205.99,143.50L205.97,143.43L205.97,143.30L206.01,143.16"/><path d="M206.03,143.48L205.96,143.53L205.91,143.56L205.88,143.47L205.89,143.30L205.93,143.11L205.99,142.98L206.05,142.95L205.89,142.92"/><path d="M205.91,143.56L205.75,143.52"/><path d="M206.05,142.95L206.10,143.03"/></g></g><g id="Actor_.6"><g style="stroke:#000000;stroke-width:0.123"><path d="M203.68,132.94L203.52,132.91"/><path d="M204.50,133.10L204.47,133.00L204.48,132.83L204.52,132.64L204.58,132.51L204.64,132.48L204.69,132.56L204.65,132.58L204.60,132.68L204.57,132.83L204.56,132.97L204.59,133.04L204.63,133.02L204.56,133.07L204.50,133.10L204.34,133.07"/><path d="M203.79,132.32L203.63,132.29"/><path d="M204.48,132.45L204.64,132.48"/><path d="M204.63,133.02L204.68,132.92L204.71,132.77L204.72,132.64L204.69,132.56"/></g></g><g id="Actor_.7"><g style="stroke:#000000;stroke-width:0.123"><path d="M92.79,112.52L92.78,112.61L92.78,112.62"/></g></g><g id="Actor_.8"><g style="stroke:#000000;stroke-width:0.123"><path d="M203.95,138.89L204.09,138.92"/><path d="M204.21,138.31L204.07,138.28"/><path d="M204.98,139.04L205.03,139.00L204.98,139.02L204.96,138.95L204.97,138.82L205.00,138.67L205.05,138.57L205.09,138.55L205.11,138.62L205.11,138.76L205.08,138.90L205.03,139.00"/><path d="M205.09,138.55L205.06,138.50"/></g></g><g id="Actor_.9"><g style="stroke:#000000;stroke-width:0.123"><path d="M193.02,125.95L192.89,126.11L192.85,126.20L192.83,126.42L192.84,126.43L192.92,126.63"/><path d="M193.05,125.94L193.25,125.86L193.53,125.85L193.83,125.93L194.11,126.09L194.31,126.30L194.41,126.52L194.40,126.69"/><path d="M194.39,126.73L194.35,126.82L194.22,126.99L194.21,127.00L193.98,127.09L193.96,127.09"/></g></g><g id="Actor_.10"><g style="stroke:#000000;stroke-width:0.123"><path d="M205.15,144.91L204.74,145.69L204.43,145.88L186.96,142.76L144.31,134.84L96.98,125.55L95.61,123.47L93.08,116.94L93.24,113.99L92.92,112.60L93.49,111.09L92.84,108.73L99.94,110.16L100.30,110.10L101.24,108.98L101.53,108.88L103.95,109.38L103.49,110.58L103.69,110.87L145.88,118.58L190.62,126.39L191.20,126.22L192.04,125.02L194.84,125.44L195.00,125.54L194.68,126.81L194.89,128.57"/><path d="M92.84,108.73L93.06,108.32L93.26,108.36L93.18,108.69L93.48,108.77L99.98,110.00L100.27,109.90L101.26,108.72L101.61,108.66L104.16,109.18L104.22,109.41L103.72,110.55L103.84,110.72L145.97,118.42L190.72,126.22L191.01,126.12L191.76,124.95L192.06,124.77L195.00,125.22L195.27,125.54L194.93,126.78L195.10,126.97L202.85,128.28L203.25,127.95L203.48,127.99L203.26,128.43L203.01,128.49L195.03,127.14L194.69,126.95"/><path d="M93.26,108.36L93.39,108.75"/><path d="M103.47,110.70L103.90,112.41"/><path d="M104.23,109.28L104.62,110.87"/><path d="M194.87,128.56L194.87,128.47"/><path d="M195.45,127.03L195.27,125.42"/><path d="M203.61,132.92L203.52,132.61L203.72,132.30"/><path d="M203.48,127.99L204.03,131.88"/><path d="M204.16,138.30L203.97,138.52L204.04,138.92"/><path d="M205.05,138.25L204.24,133.28"/><path d="M204.75,145.63L205.14,144.89L205.34,143.92"/><path d="M205.17,144.88L205.20,144.78"/><path d="M205.02,143.38L204.95,143.03L205.14,142.77"/><path d="M205.60,142.36L205.72,141.64L205.16,138.85"/></g></g><g id="Actor_.11"><g style="stroke:#000000;stroke-width:0.123"><path d="M194.05,126.68L194.04,126.57L194.04,126.55L193.93,126.40L193.77,126.28L193.56,126.21L193.37,126.20L193.37,126.21L193.37,126.26"/><path d="M193.36,126.25L193.35,126.21L193.35,126.20L193.36,126.20L193.37,126.21"/><path d="M193.35,126.20L193.28,126.24"/><path d="M193.22,126.26L193.20,126.27L193.18,126.28L193.15,126.33"/></g></g><g id="Actor_.12"><g style="stroke:#000000;stroke-width:0.123"><path d="M257.04,103.89L257.04,103.78L257.06,103.63L257.09,103.49L257.13,103.41L257.21,103.35L257.16,103.45L257.12,103.63L257.09,103.82L257.10,103.97L257.04,103.89"/><path d="M257.10,103.97L257.13,104.00L257.50,104.05"/><path d="M257.21,103.35L257.62,103.42"/><path d="M258.72,103.67L258.86,103.32L259.23,103.38L259.22,103.49L259.18,103.61L259.08,103.76L259.09,103.93L259.08,104.13L259.00,104.37L258.73,104.32"/><path d="M259.00,104.37L259.08,104.48L259.07,104.60L258.73,104.54"/><path d="M258.75,103.59L258.77,103.52L258.79,103.50"/><path d="M259.08,103.76L258.72,103.70"/><path d="M259.08,104.13L259.07,104.34L259.08,104.48L259.12,104.53L259.17,104.46L259.23,104.31L259.28,104.09L259.31,103.86L259.33,103.64L259.31,103.50L259.28,103.46L259.22,103.52L259.17,103.68L259.11,103.90L259.08,104.13"/><path d="M259.23,104.31L259.17,104.46L259.07,104.60"/><path d="M259.23,103.38L259.31,103.50"/></g></g><g id="Actor_.13"><g style="stroke:#000000;stroke-width:0.123"><path d="M205.09,143.39L204.94,143.36"/><path d="M205.21,142.78L205.06,142.75"/><path d="M206.01,143.16L206.05,143.05L206.10,143.03L206.12,143.10L206.11,143.24L206.08,143.38L206.03,143.48L205.99,143.50L205.97,143.43L205.97,143.30L206.01,143.16"/><path d="M206.03,143.48L205.96,143.53L205.91,143.56L205.88,143.47L205.89,143.30L205.93,143.11L205.99,142.98L206.05,142.95L205.89,142.92"/><path d="M205.91,143.56L205.75,143.52"/><path d="M206.05,142.95L206.10,143.03"/></g></g><g id="Actor_.14"><g style="stroke:#000000;stroke-width:0.123"><path d="M102.25,110.54L102.23,110.57L102.36,110.80L102.54,110.98L102.66,111.04L102.70,111.05L102.51,110.94L102.36,110.80L102.28,110.64L102.29,110.49L102.38,110.40L102.54,110.37L102.74,110.41L102.93,110.52L103.07,110.66L103.15,110.82L103.14,110.97L103.05,111.06L102.89,111.09L102.70,111.05L102.82,111.08L103.05,111.11L103.15,110.97L103.24,110.83L103.08,110.66L102.93,110.42L102.71,110.40L102.55,110.35L102.42,110.29L102.57,110.06L102.37,110.34L102.25,110.54"/><path d="M102.23,110.57L102.29,110.49L102.42,110.29"/><path d="M102.93,110.42L103.08,110.19L102.57,110.06"/><path d="M103.08,110.19L103.39,110.60L103.24,110.83"/></g></g><g id="Actor_.15"><g style="stroke:#000000;stroke-width:0.123"><path d="M103.51,110.84L103.37,110.91L103.19,110.91"/><path d="M102.41,109.80L102.36,109.88L102.27,110.04L102.27,110.06L102.29,110.26L102.35,110.38"/></g></g><g id="Actor_.16"><g style="stroke:#000000;stroke-width:0.123"><path d="M102.69,110.09L102.69,110.05L102.70,110.04L102.87,110.05L103.05,110.12L103.21,110.24L103.32,110.39L103.36,110.53L103.36,110.55L103.35,110.56"/><path d="M102.68,110.09L102.68,110.05L102.69,110.04L102.70,110.05"/><path d="M102.69,110.04L102.62,110.08"/></g></g><g id="Actor_.17"><g style="stroke:#000000;stroke-width:0.123"><path d="M192.86,126.77L192.97,126.52L193.25,126.23L193.14,126.48L193.06,126.58L192.96,126.69L192.86,126.77L192.99,127.01L193.16,127.19L193.30,127.25L193.34,127.26L193.14,127.16L192.99,127.01L192.93,126.84L192.96,126.69L193.09,126.59L193.28,126.56L193.50,126.60L193.71,126.71L193.86,126.86L193.92,127.02L193.88,127.17L193.75,127.27L193.56,127.30L193.34,127.26L193.48,127.30"/><path d="M193.14,126.48L193.29,126.54L193.47,126.59L193.72,126.61L193.83,126.36L193.25,126.23"/><path d="M193.48,127.30L193.73,127.32L193.79,127.26L193.88,127.18L194.01,127.03L194.12,126.78L193.83,126.36"/><path d="M193.72,126.61L193.86,126.86L194.01,127.03"/></g></g><g id="Actor_.18"><g style="stroke:#000000;stroke-width:0.123"><path d="M259.11,126.23L259.11,126.23L259.05,126.21"/></g></g><g id="Actor_.19"><g style="stroke:#000000;stroke-width:0.123"><path d="M259.05,127.13L259.28,127.17L259.35,127.27L259.34,127.37L259.05,127.32"/><path d="M259.44,127.24L259.34,127.37"/><path d="M259.58,126.32L259.59,126.44L259.58,126.64L259.55,126.87L259.50,127.08L259.44,127.24L259.39,127.31L259.36,127.27L259.34,127.15L259.35,126.95L259.39,126.72L259.44,126.51L259.50,126.35L259.55,126.28L259.58,126.32L259.58,126.31L259.50,126.20L259.50,126.31L259.46,126.44L259.35,126.59L259.05,126.53"/><path d="M259.35,126.59L259.37,126.75L259.35,126.94L259.28,127.17"/><path d="M259.45,127.22L259.45,127.22"/><path d="M259.50,127.08L259.44,127.24"/><path d="M259.05,126.40L259.14,126.14L259.50,126.20"/><path d="M259.05,126.39L259.06,126.34L259.08,126.31"/></g></g><g id="Actor_.20"><g style="stroke:#000000;stroke-width:0.123"><path d="M258.71,103.41L258.72,103.41L258.75,103.40L258.82,103.41L258.82,103.41"/></g></g><g id="Actor_.21"><g style="stroke:#000000;stroke-width:0.123"><path d="M259.04,125.92L259.07,125.95L259.07,125.97L259.09,126.13L259.09,126.22"/></g></g><g id="Actor_.22"><g style="stroke:#000000;stroke-width:0.123"><path d="M258.69,103.06L258.71,103.06L258.73,103.08L258.78,103.14L258.79,103.16L258.81,103.33L258.81,103.41"/></g></g><g id="Actor_.23"><g style="stroke:#000000;stroke-width:0.123"><path d="M258.90,114.88L258.97,114.89L258.98,114.89"/></g></g><g id="Actor_12.1"><g style="stroke:#000000;stroke-width:0.123"><path d="M249.18,102.62L249.42,102.68L249.79,102.86L250.11,103.09L250.35,103.36L250.51,103.66L250.56,103.95L250.57,104.65L250.63,104.95L250.78,105.25L251.03,105.52L251.34,105.75L251.71,105.92L252.10,106.03L254.01,106.35L254.40,106.38L254.77,106.33L255.08,106.20L255.32,106.01L255.47,105.77L255.52,105.49L255.50,103.02L255.26,103.63L234.56,100.17L234.56,100.06L234.83,99.43L255.51,102.87L255.26,103.52L234.56,100.06"/><path d="M241.08,101.26L240.84,101.25L240.48,101.30L240.18,101.43L239.95,101.62L239.80,101.86L239.76,102.14L239.78,102.84L239.74,103.12L239.60,103.36L239.37,103.55L239.06,103.68L238.70,103.73L238.32,103.70L236.45,103.38L236.06,103.28L235.70,103.11L235.39,102.88L235.14,102.61L234.98,102.32L234.92,102.02L234.85,100.22"/><path d="M235.53,102.28L235.49,102.39L235.54,102.53L235.65,102.63L235.83,102.70L236.00,102.69L236.12,102.62L236.16,102.51L236.11,102.37L235.99,102.26L235.82,102.20L235.65,102.21L235.53,102.28"/><path d="M236.15,102.53L236.04,102.59L235.88,102.60L235.71,102.54L235.58,102.42L235.54,102.27"/><path d="M238.55,102.91L238.59,102.79L238.71,102.72L238.88,102.72L239.05,102.78L239.18,102.89L239.23,103.02L239.19,103.14L239.07,103.21L238.90,103.22L238.73,103.15L238.62,103.06L238.55,102.91"/><path d="M238.60,102.79L238.64,102.94L238.77,103.05L238.94,103.11L239.11,103.11L239.22,103.04"/><path d="M239.74,103.12L239.82,102.74L239.80,102.04L239.84,101.80"/><path d="M251.15,105.03L251.19,104.91L251.31,104.84L251.48,104.84L251.66,104.90L251.77,105.00L251.83,105.14L251.79,105.26L251.66,105.33L251.49,105.34L251.32,105.28L251.19,105.16L251.15,105.02"/><path d="M251.83,105.14L251.70,105.23L251.53,105.23L251.36,105.17L251.23,105.06L251.18,104.93"/><path d="M254.78,105.42L254.61,105.36L254.44,105.37L254.31,105.44L254.27,105.55L254.31,105.69L254.44,105.80L254.61,105.86L254.78,105.86L254.91,105.79L254.95,105.67L254.91,105.54L254.78,105.42"/><path d="M254.31,105.45L254.35,105.58L254.48,105.70L254.65,105.76L254.82,105.76L254.95,105.67"/><path d="M255.51,102.87L255.54,102.88L255.55,102.97L255.56,105.38L255.47,105.77"/><path d="M255.26,103.63L255.26,103.52"/></g></g><g id="Actor_7.1"><g style="stroke:#000000;stroke-width:0.123"><path d="M228.97,119.20L227.05,118.88L227.02,118.86L227.00,118.79L226.90,117.89L228.83,118.22L228.92,119.12L228.94,119.19L228.97,119.20L229.01,119.16L230.11,117.27L230.14,117.25L230.16,117.31L230.36,120.40L230.35,120.54L230.32,120.69L229.54,123.30L229.50,123.45L229.48,123.61L229.49,123.74L229.57,124.56L227.67,124.23L227.58,123.41L227.58,123.28L227.60,123.12L227.64,122.97L228.42,120.36L228.45,120.21L228.46,120.08L228.39,119.11"/><path d="M227.58,117.91L228.20,116.85L228.24,116.81L230.15,117.13L230.11,117.17L229.01,119.06L228.98,119.09L228.96,119.03L228.86,118.13L228.83,118.22"/><path d="M226.90,117.89L226.94,117.80L228.86,118.13"/><path d="M229.57,124.56L229.60,124.47L229.52,123.65L229.52,123.51L229.55,123.36L230.33,120.74L230.39,120.45L230.39,120.32L230.20,117.23L230.18,117.15L230.15,117.13"/><path d="M229.46,119.20L229.23,119.19L229.42,119.19L229.55,119.11L229.59,118.99L229.54,118.84L229.40,118.72L229.29,118.68"/><path d="M229.46,119.20L229.57,119.09L229.66,118.96L229.54,118.84L229.43,118.66L229.31,118.65"/><path d="M229.66,118.97L229.73,118.79L229.50,118.48L229.43,118.66"/><path d="M229.03,119.13L229.23,119.19L229.04,119.11"/><path d="M229.50,118.48L229.42,118.46"/></g></g><g id="Actor_8.0"><g style="stroke:#000000;stroke-width:0.123"><path d="M209.19,177.59L209.21,177.67L208.82,177.35L208.65,177.11L208.56,176.88L208.30,174.22L208.30,174.05L208.38,173.80L208.32,173.96"/><path d="M208.33,173.94L208.32,173.95"/><path d="M209.18,177.58L209.19,177.61L209.18,177.57"/><path d="M209.21,177.67L209.35,177.83L209.60,177.94L224.63,181.12"/><path d="M209.18,177.57L208.94,175.00L209.10,174.44"/><path d="M209.09,174.46L209.10,174.45"/><path d="M208.95,174.91L209.10,174.44"/><path d="M209.10,174.46L209.10,174.45"/><path d="M208.40,173.77L208.55,173.62L208.79,173.51L209.05,173.47L209.35,173.48L209.04,173.47L208.78,173.51L208.56,173.61L208.40,173.77"/><path d="M225.38,177.53L225.18,178.08L225.06,177.82L224.80,177.44L224.47,177.08L224.08,176.75L223.67,176.48L223.20,176.23L222.71,176.03L222.06,175.84L209.58,173.22L209.15,173.20L208.84,173.29L208.64,173.44L208.40,173.76"/><path d="M209.06,173.22L208.98,173.24"/><path d="M209.37,173.48L209.48,173.50L209.37,173.48"/><path d="M209.48,173.50L209.51,173.51"/><path d="M213.45,174.03L214.23,173.58L214.12,173.64"/><path d="M219.03,172.42L219.01,172.42L219.06,172.43L218.50,172.34L218.01,172.32L217.39,172.38L216.78,172.51L216.18,172.69L215.57,172.92L214.88,173.24L214.03,173.69"/><path d="M214.23,173.58L214.24,173.57"/><path d="M214.42,173.48L214.48,173.44L214.15,173.62"/><path d="M214.10,173.65L214.13,173.63"/><path d="M214.01,173.70L214.04,173.68"/><path d="M215.77,172.83L214.60,173.38"/><path d="M214.66,173.34L214.69,173.33L214.34,173.52"/><path d="M216.65,172.53L215.71,172.85"/><path d="M216.64,172.54L217.19,172.41L217.68,172.34L218.54,172.34L219.04,172.42L219.45,172.53L219.89,172.71L220.25,172.90L220.93,173.41L221.59,174.11L222.12,174.89L222.71,176.03"/><path d="M221.47,172.71L221.52,172.45L221.47,172.17L221.33,171.89L221.07,171.58L220.72,171.31L220.34,171.11L219.94,170.97L219.53,170.89L219.19,170.88L218.90,170.91L218.65,170.99L218.43,171.13L218.25,171.36L217.88,172.32"/><path d="M218.82,172.38L218.75,172.37L218.80,172.38"/><path d="M219.06,172.43L219.18,172.46"/><path d="M218.91,172.40L218.88,172.39"/><path d="M218.72,172.36L218.63,172.35L218.67,172.36"/><path d="M221.43,172.06L221.31,171.75L221.08,171.45L220.75,171.18L220.31,170.95L219.84,170.80L219.38,170.76L218.97,170.83L218.68,170.98"/><path d="M219.21,170.42L219.06,170.80"/><path d="M219.32,172.51L219.26,172.49L219.77,172.70L220.21,172.96L220.64,173.30L221.03,173.69L221.41,174.17L221.77,174.72L222.09,175.32L222.35,175.91"/><path d="M219.19,172.47L219.34,172.51"/><path d="M219.21,170.78L219.46,170.12L219.53,170.09L219.62,170.13L219.94,170.51L220.00,170.84"/><path d="M219.39,170.31L219.28,170.34L219.22,170.40"/><path d="M221.29,171.71L221.34,171.54L221.32,171.36L221.27,171.18L221.16,171.03L221.03,170.96L220.93,170.97L220.84,171.06L220.80,171.21"/><path d="M220.96,170.96L220.54,171.05"/><path d="M221.84,174.19L221.90,174.17L222.88,174.54L223.78,174.56L223.84,174.59L223.24,176.25"/><path d="M221.84,174.19L221.77,174.36"/><path d="M221.48,172.68L221.13,173.59"/><path d="M222.95,176.72L224.03,178.05L223.97,177.97"/><path d="M222.62,175.82L222.62,175.82"/><path d="M222.51,175.59L222.58,175.75L222.51,175.59"/><path d="M222.56,175.71L222.61,175.81"/><path d="M223.30,176.28L223.76,175.08"/><path d="M223.98,176.68L224.04,176.44L223.92,175.12L223.85,175.05L223.76,175.07"/><path d="M223.71,175.00L223.85,174.63"/><path d="M223.56,175.59L223.50,175.55"/><path d="M224.99,180.58L224.77,181.05L224.61,181.12"/><path d="M225.75,180.97L225.79,180.92L225.56,181.09L225.30,181.15L225.00,181.15L224.70,181.10"/><path d="M224.36,176.98L224.50,176.93L224.78,176.93L225.05,177.03L225.25,177.18"/><path d="M225.90,180.75L225.91,180.73L225.80,180.92"/><path d="M225.80,180.91L225.79,180.92"/><path d="M225.91,180.31L225.91,180.32"/><path d="M224.99,180.57L224.99,180.58"/><path d="M225.96,180.58L226.00,180.21L225.97,180.02L225.18,178.08"/><path d="M225.25,177.18L225.28,177.21"/><path d="M225.29,177.22L225.37,177.36L225.39,177.53"/><path d="M225.38,177.54L225.39,177.47L225.39,177.51"/><path d="M225.94,180.39L225.93,180.35L225.96,180.54L225.92,180.71L225.96,180.57L225.95,180.42"/><path d="M225.95,180.59L225.96,180.58"/><path d="M225.99,180.15L225.98,180.07L225.99,180.11"/><path d="M225.99,180.09L225.99,180.13"/><path d="M225.98,180.07L225.98,180.06"/></g></g><g id="Actor_.24"><g style="stroke:#000000;stroke-width:0.123"><path d="M258.92,116.00L259.22,116.05L259.23,115.95L259.15,115.84L258.92,115.80"/><path d="M258.91,115.06L258.93,115.00L258.94,114.98"/><path d="M258.91,115.06L259.01,114.80L259.37,114.86L259.37,114.97L259.33,115.09L259.22,115.24L258.91,115.19"/><path d="M259.21,115.81L259.23,115.95L259.26,115.98L259.32,115.92L259.37,115.76L259.42,115.55L259.46,115.32L259.47,115.11L259.46,114.98L259.42,114.94L259.37,115.01L259.31,115.16L259.26,115.38L259.23,115.61L259.21,115.81"/><path d="M259.32,115.90L259.32,115.92L259.22,116.05"/><path d="M259.15,115.84L259.22,115.60L259.24,115.41L259.22,115.24"/><path d="M259.32,115.90L259.32,115.90L259.37,115.76"/><path d="M259.37,114.86L259.46,114.98"/></g></g><g id="Actor_.25"><g style="stroke:#000000;stroke-width:0.123"><path d="M258.90,114.57L258.94,114.61L258.94,114.63L258.96,114.80L258.96,114.89"/></g></g><g><g><path style="stroke:#000000;stroke-width:0.210;stroke-dasharray:2.1 2.1" d="M88.78,77.30L66.09,111.30"/></g></g><g><g><path style="stroke:#000000;stroke-width:0.210;stroke-dasharray:2.1 2.1" d="M70.98,92.60L58.29,111.26"/></g></g><g><g><path style="stroke:#000000;stroke-width:0.210;stroke-dasharray:2.1 2.1" d="M87.52,88.94L71.95,112.89"/></g></g><g><g><path style="stroke:#000000;stroke-width:0.210;stroke-dasharray:2.1 2.1" d="M73.81,114.38L86.18,95.40"/></g></g><g><g><path style="stroke:#000000;stroke-width:0.210;stroke-dasharray:2.1 2.1" d="M72.02,112.73L88.29,115.72"/></g></g><g><g><path style="stroke:#000000;stroke-width:0.210;stroke-dasharray:2.1 2.1" d="M67.52,110.99L51.66,134.82"/></g></g><g><g><path style="stroke:#000000;stroke-width:0.210;stroke-dasharray:2.1 2.1" d="M230.32,141.42L245.03,103.27"/></g></g><g><g><path style="stroke:#000000;stroke-width:0.210;stroke-dasharray:2.1 2.1" d="M228.86,119.69L220.16,141.39"/></g></g><g><g><path style="stroke:#000000;stroke-width:0.210;stroke-dasharray:2.1 2.1" d="M248.26,122.75L240.13,144.79"/></g></g><g><g><path style="stroke:#000000;stroke-width:0.210;stroke-dasharray:2.1 2.1" d="M206.11,139.52L216.73,141.48"/></g></g><g><g><path style="stroke:#000000;stroke-width:0.210;stroke-dasharray:2.1 2.1" d="M219.90,170.40L229.34,145.83"/></g></g><g id="PMI14.0"><g><path style="stroke:#000000;stroke-width:0.280" d="M69.01,84.74L69.08,87.93"/></g><g><path style="fill:#000000" d="M68.08,87.95L70.08,87.90L69.13,89.93z"/></g><g><path style="fill:#ffffff" d="M60.59,84.74L77.31,84.74L77.31,79.66L60.59,79.66z"/><path style="stroke:#000000;stroke-width:0.280;stroke-opacity:0.98" d="M60.59,84.74L77.31,84.74L77.31,79.66L60.59,79.66z"/><text xml:space="preserve" fill="#000000" stroke-width="0" x="61.22" y="83.31" font-size="2.79" opacity="1.00" font-family="Microsoft Sans Serif">020041991</text></g></g><g id="PMI6.0"><g><path style="stroke:#000000;stroke-width:0.280" d="M147.87,92.91L144.38,92.96"/></g><g><path style="fill:#000000" d="M144.36,91.96L144.39,93.96L142.38,92.99z"/></g><g><path style="fill:#ffffff" d="M147.87,95.32L166.33,95.32L166.33,90.24L147.87,90.24z"/><path style="stroke:#000000;stroke-width:0.280;stroke-opacity:0.98" d="M147.87,95.32L166.33,95.32L166.33,90.24L147.87,90.24z"/><text xml:space="preserve" fill="#000000" stroke-width="0" x="148.50" y="93.89" font-size="2.79" opacity="1.00" font-family="Microsoft Sans Serif">8060001111</text></g></g><g id="PMI5.0"><g><path style="stroke:#000000;stroke-width:0.280" d="M121.36,91.28L124.83,91.32"/></g><g><path style="fill:#000000" d="M124.82,92.32L124.84,90.32L126.83,91.34z"/></g><g><path style="fill:#ffffff" d="M102.91,93.73L121.37,93.73L121.37,88.66L102.91,88.66z"/><path style="stroke:#000000;stroke-width:0.280;stroke-opacity:0.98" d="M102.91,93.73L121.37,93.73L121.37,88.66L102.91,88.66z"/><text xml:space="preserve" fill="#000000" stroke-width="0" x="103.54" y="92.31" font-size="2.79" opacity="1.00" font-family="Microsoft Sans Serif">8059000087</text></g></g><g id="PMI4.0"><g><path style="stroke:#000000;stroke-width:0.280" d="M199.47,81.30L199.57,85.81"/></g><g><path style="fill:#000000" d="M198.56,85.83L200.56,85.79L199.61,87.81z"/></g><g><path style="fill:#ffffff" d="M190.18,81.30L208.64,81.30L208.64,76.22L190.18,76.22z"/><path style="stroke:#000000;stroke-width:0.280;stroke-opacity:0.98" d="M190.18,81.30L208.64,81.30L208.64,76.22L190.18,76.22z"/><text xml:space="preserve" fill="#000000" stroke-width="0" x="190.82" y="79.88" font-size="2.79" opacity="1.00" font-family="Microsoft Sans Serif">8060001117</text></g></g><g id="PMI3.0"><g><path style="stroke:#000000;stroke-width:0.280" d="M187.49,92.91L190.55,92.96"/></g><g><path style="fill:#000000" d="M190.53,93.96L190.56,91.96L192.54,92.99z"/></g><g><path style="fill:#ffffff" d="M169.02,95.32L187.49,95.32L187.49,90.24L169.02,90.24z"/><path style="stroke:#000000;stroke-width:0.280;stroke-opacity:0.98" d="M169.02,95.32L187.49,95.32L187.49,90.24L169.02,90.24z"/><text xml:space="preserve" fill="#000000" stroke-width="0" x="169.66" y="93.89" font-size="2.79" opacity="1.00" font-family="Microsoft Sans Serif">8059000094</text></g></g><g id="PMI12.0"><g><path style="stroke:#000000;stroke-width:0.280" d="M86.63,68.87L86.58,73.03"/></g><g><path style="fill:#000000" d="M85.59,73.02L87.58,73.05L86.56,75.03z"/></g><g><path style="fill:#ffffff" d="M78.31,68.87L95.03,68.87L95.03,63.79L78.31,63.79z"/><path style="stroke:#000000;stroke-width:0.280;stroke-opacity:0.98" d="M78.31,68.87L95.03,68.87L95.03,63.79L78.31,63.79z"/><text xml:space="preserve" fill="#000000" stroke-width="0" x="78.94" y="67.45" font-size="2.79" opacity="1.00" font-family="Microsoft Sans Serif">020041981</text></g></g><g id="PMI1.0"><g><path style="stroke:#000000;stroke-width:0.280" d="M223.24,92.17L219.27,92.24"/></g><g><path style="fill:#000000" d="M219.25,91.24L219.29,93.24L217.27,92.28z"/></g><g><path style="fill:#ffffff" d="M223.24,94.53L241.70,94.53L241.70,89.45L223.24,89.45z"/><path style="stroke:#000000;stroke-width:0.280;stroke-opacity:0.98" d="M223.24,94.53L241.70,94.53L241.70,89.45L223.24,89.45z"/><text xml:space="preserve" fill="#000000" stroke-width="0" x="223.87" y="93.10" font-size="2.79" opacity="1.00" font-family="Microsoft Sans Serif">8057008075</text></g></g><g id="PMI13.0"><g><path style="stroke:#000000;stroke-width:0.280" d="M47.03,109.11L51.33,109.20"/></g><g><path style="fill:#000000" d="M51.33,110.20L51.37,108.20L53.35,109.24z"/></g><g><path style="fill:#ffffff" d="M28.59,111.45L47.05,111.45L47.05,106.37L28.59,106.37z"/><path style="stroke:#000000;stroke-width:0.280;stroke-opacity:0.98" d="M28.59,111.45L47.05,111.45L47.05,106.37L28.59,106.37z"/><text xml:space="preserve" fill="#000000" stroke-width="0" x="29.22" y="110.02" font-size="2.79" opacity="1.00" font-family="Microsoft Sans Serif">3901118014</text></g></g><g id="PMI2.0"><g><path style="stroke:#000000;stroke-width:0.280" d="M127.56,54.59L127.70,58.72"/></g><g><path style="fill:#000000" d="M126.71,58.76L128.71,58.69L127.77,60.72z"/></g><g><path style="fill:#ffffff" d="M118.24,54.59L136.71,54.59L136.71,49.51L118.24,49.51z"/><path style="stroke:#000000;stroke-width:0.280;stroke-opacity:0.98" d="M118.24,54.59L136.71,54.59L136.71,49.51L118.24,49.51z"/><text xml:space="preserve" fill="#000000" stroke-width="0" x="118.88" y="53.16" font-size="2.79" opacity="1.00" font-family="Microsoft Sans Serif">8057006076</text></g></g><g id="PMI9.0"><g><path style="stroke:#000000;stroke-width:0.280" d="M51.21,145.25L51.22,141.62"/></g><g><path style="fill:#000000" d="M52.23,141.62L50.23,141.62L51.23,139.62z"/></g><g><path style="fill:#ffffff" d="M40.49,150.33L61.93,150.33L61.93,145.25L40.49,145.25z"/><path style="stroke:#000000;stroke-width:0.280;stroke-opacity:0.98" d="M40.49,150.33L61.93,150.33L61.93,145.25L40.49,145.25z"/><text xml:space="preserve" fill="#000000" stroke-width="0" x="41.13" y="148.90" font-size="3.08" opacity="1.00" font-family="Microsoft Sans Serif">HWD-21077-R</text></g></g><g id="PMI7.0"><g><path style="stroke:#000000;stroke-width:0.280" d="M222.25,118.58L225.18,118.63"/></g><g><path style="fill:#000000" d="M225.15,119.63L225.18,117.63L227.16,118.66z"/></g><g><path style="fill:#ffffff" d="M205.52,120.97L222.24,120.97L222.24,115.90L205.52,115.90z"/><path style="stroke:#000000;stroke-width:0.280;stroke-opacity:0.98" d="M205.52,120.97L222.24,120.97L222.24,115.90L205.52,115.90z"/><text xml:space="preserve" fill="#000000" stroke-width="0" x="206.15" y="119.55" font-size="2.79" opacity="1.00" font-family="Microsoft Sans Serif">020041961</text></g></g><g id="PMI11.0"><g><path style="stroke:#000000;stroke-width:0.280" d="M247.54,115.42L247.61,118.31"/></g><g><path style="fill:#000000" d="M246.60,118.33L248.60,118.28L247.65,120.31z"/></g><g><path style="fill:#ffffff" d="M239.11,115.42L255.83,115.42L255.83,110.34L239.11,110.34z"/><path style="stroke:#000000;stroke-width:0.280;stroke-opacity:0.98" d="M239.11,115.42L255.83,115.42L255.83,110.34L239.11,110.34z"/><text xml:space="preserve" fill="#000000" stroke-width="0" x="239.74" y="113.99" font-size="2.79" opacity="1.00" font-family="Microsoft Sans Serif">020041971</text></g></g><g id="PMI10.0"><g><path style="stroke:#000000;stroke-width:0.280" d="M245.13,155.04L245.10,152.69"/></g><g><path style="fill:#000000" d="M246.09,152.68L244.09,152.70L245.06,150.69z"/></g><g><path style="fill:#ffffff" d="M235.93,160.12L254.39,160.12L254.39,155.04L235.93,155.04z"/><path style="stroke:#000000;stroke-width:0.280;stroke-opacity:0.98" d="M235.93,160.12L254.39,160.12L254.39,155.04L235.93,155.04z"/><text xml:space="preserve" fill="#000000" stroke-width="0" x="236.57" y="158.69" font-size="2.79" opacity="1.00" font-family="Microsoft Sans Serif">3901118013</text></g></g><g id="PMI8.0"><g><path style="stroke:#000000;stroke-width:0.280" d="M217.15,184.40L216.93,180.95"/></g><g><path style="fill:#000000" d="M217.92,180.88L215.93,181.01L216.80,178.95z"/></g><g><path style="fill:#ffffff" d="M206.84,189.47L227.77,189.47L227.77,184.39L206.84,184.39z"/><path style="stroke:#000000;stroke-width:0.280;stroke-opacity:0.98" d="M206.84,189.47L227.77,189.47L227.77,184.39L206.84,184.39z"/><text xml:space="preserve" fill="#000000" stroke-width="0" x="207.48" y="188.04" font-size="3.08" opacity="1.00" font-family="Microsoft Sans Serif">HWD-21077-L</text></g></g><g/><g id="paperID" visibility="hidden" opacity="0.00" transform="scale(0.000100)"><path style="stroke:#000000;stroke-width:0.500;fill:#e6e6e6;fill-rule:evenodd" d="M-2000.00,-2000.00L2297.00,-2000.00L2297.00,2210.00L-2000.00,2210.00zM0.00,0.00L297.00,0.00L297.00,210.00L0.00,210.00z"/><path style="fill:#000000;fill-opacity:0.118" d="M3.00,210.00L297.00,210.00L297.00,3.00L300.00,3.00L300.00,213.00L3.00,213.00z"/></g><g id="hotspot.0" onmouseover="ShowHotSpot(evt,'0')" onmouseout="HideHotSpot(evt,'0')" onmousemove="ShowToolTip(evt,'0',&quot;3dp2001970 (I_VNG M 08.77)&quot;)" opacity="0"><path style="fill:#00ff00;fill-rule:evenodd" d="M50.04,71.01L50.03,70.72L50.98,70.71L51.01,71.28zM54.44,81.62L53.47,81.62L53.47,81.29L54.44,81.29zM241.93,89.45L241.83,94.52L223.11,94.52L222.87,92.38L219.34,92.41L219.16,92.98L217.46,92.10L218.82,91.29L219.35,91.65L222.87,91.69L223.11,89.29L241.67,89.18zM57.61,91.93L56.64,91.93L56.64,91.61L57.61,91.61zM259.35,103.46L259.05,104.41L258.77,104.43L258.83,102.94zM257.51,103.88L257.15,103.88L257.15,103.20L257.51,103.20zM103.59,110.07L103.22,110.91L102.78,110.96L102.44,110.72L102.53,109.64L102.80,109.57zM259.34,115.79L259.02,115.79L259.02,114.82L259.34,114.82zM194.34,126.23L194.33,126.59L193.93,127.05L193.26,127.05L192.97,126.77L192.97,125.78L193.50,125.68zM259.59,126.21L259.35,127.11L259.08,126.82L258.96,126.00z"/></g><g id="hotspot.1" onmouseover="ShowHotSpot(evt,'1')" onmouseout="HideHotSpot(evt,'1')" onmousemove="ShowToolTip(evt,'1',&quot;3dp2370473&quot;)" opacity="0"><path style="fill:#00ff00;fill-rule:evenodd" d="M258.81,104.57L259.10,105.34L259.09,114.69L259.37,126.03L259.11,126.01L259.07,126.78L259.37,127.28L259.09,136.64L258.83,138.50L257.51,141.67L253.96,146.58L251.08,148.73L248.77,149.86L245.50,150.85L245.58,151.64L245.91,152.17L245.55,152.71L245.51,154.64L254.36,154.77L254.63,155.04L254.52,160.11L235.81,160.11L235.81,154.88L244.82,154.64L244.79,152.69L244.17,152.42L244.79,151.06L241.55,151.37L237.40,151.37L234.50,151.10L216.24,147.93L215.18,147.67L214.64,146.10L213.60,139.47L213.77,133.90L214.14,132.95L214.06,129.91L214.37,129.90L214.68,130.18L222.60,131.53L223.85,131.55L225.95,130.47L226.21,129.13L229.47,129.68L230.82,130.19L237.85,130.21L242.42,129.49L247.38,127.83L250.79,125.70L252.93,123.34L253.82,121.58L254.33,108.53L255.03,108.54L256.71,105.70L257.51,103.85L257.95,101.65L258.84,99.79zM234.50,143.95L236.08,144.49L236.65,144.98L237.16,146.43L235.55,146.34L223.11,143.98L222.32,143.70L222.23,142.10L223.39,142.11z"/></g><g id="hotspot.2" onmouseover="ShowHotSpot(evt,'2')" onmouseout="HideHotSpot(evt,'2')" onmousemove="ShowToolTip(evt,'2',&quot;3dp2440843&quot;)" opacity="0"><path style="fill:#00ff00;fill-rule:evenodd" d="M238.98,110.18L255.93,110.10L255.84,115.41L247.89,115.65L247.91,118.13L248.49,118.30L247.95,119.46L247.96,119.90L249.32,120.15L249.58,124.22L249.29,124.99L249.05,126.87L247.09,126.87L247.17,124.99L247.46,124.22L247.44,121.76L246.85,121.56L246.86,120.16L247.48,119.89L246.89,118.83L246.85,118.34L247.16,118.11L247.20,115.65L238.98,115.41z"/></g><g id="hotspot.3" onmouseover="ShowHotSpot(evt,'3')" onmouseout="HideHotSpot(evt,'3')" onmousemove="ShowToolTip(evt,'3',&quot;3dp2440844&quot;)" opacity="0"><path style="fill:#00ff00;fill-rule:evenodd" d="M78.18,63.64L95.13,63.55L95.05,68.86L87.09,69.10L86.63,72.68L86.33,72.68L86.40,69.10L78.18,68.86zM85.78,73.06L87.45,73.06L87.10,73.87L86.82,74.74L87.14,74.96L94.33,75.99L96.95,76.54L97.50,78.10L97.50,79.52L97.17,79.75L94.84,79.44L94.31,79.18L93.78,78.65L93.05,77.00L92.22,76.51L85.86,75.46L84.79,75.54L84.74,77.58L82.15,77.59L81.12,77.03L80.28,74.69L79.66,74.38L79.90,74.13L81.63,74.14L85.33,74.67L86.41,74.68zM255.40,102.69L255.41,105.72L254.79,106.17L253.81,106.15L251.41,105.62L250.90,105.34L250.16,102.91L249.05,102.43L240.49,101.08L240.05,101.47L239.81,102.81L239.19,103.53L238.21,103.50L235.81,102.98L235.31,102.68L235.00,102.19L234.65,99.53L236.35,99.53zM81.90,76.77L81.56,76.86L81.65,76.52zM94.60,78.62L94.26,78.71L94.35,78.37z"/></g><g id="hotspot.4" onmouseover="ShowHotSpot(evt,'4')" onmouseout="HideHotSpot(evt,'4')" onmousemove="ShowToolTip(evt,'4',&quot;3dp2370472&quot;)" opacity="0"><path style="fill:#00ff00;fill-rule:evenodd" d="M50.43,67.76L59.41,95.30L61.52,99.81L62.05,100.33L62.59,100.61L64.70,100.59L67.08,101.13L68.40,104.03L73.96,105.09L76.06,105.34L78.18,110.91L81.11,118.04L80.86,121.32L80.21,122.01L79.26,122.02L63.90,118.85L60.48,117.51L58.38,116.17L55.47,113.53L54.67,112.48L53.11,109.30L51.48,109.94L51.22,109.33L47.42,109.30L47.18,111.44L28.46,111.44L28.46,106.21L47.02,106.11L47.28,106.37L47.42,108.62L51.20,108.58L51.73,108.21L52.29,108.56L52.82,108.62L52.54,107.72L51.20,104.57L50.95,103.23L50.96,99.00L49.08,93.73L48.31,87.10L44.59,75.75L44.59,73.94L47.45,69.64L48.47,69.66L50.06,67.51zM50.04,71.01L50.03,70.72L50.98,70.71L51.01,71.28zM54.44,81.62L53.47,81.62L53.47,81.29L54.44,81.29zM57.61,91.93L56.64,91.93L56.64,91.61L57.61,91.61zM71.62,114.04L71.86,114.32L72.13,115.75L67.88,115.14L60.72,113.83L60.21,113.54L60.13,111.93z"/></g><g id="hotspot.5" onmouseover="ShowHotSpot(evt,'5')" onmouseout="HideHotSpot(evt,'5')" onmousemove="ShowToolTip(evt,'5',&quot;prd2440846&quot;)" opacity="0"><path style="fill:#00ff00;fill-rule:evenodd" d="M60.46,79.50L77.41,79.42L77.33,84.73L69.37,84.97L69.40,87.71L69.97,87.89L69.20,89.56L68.97,89.51L68.37,88.41L68.33,87.93L68.64,87.70L68.68,84.97L60.46,84.73zM69.20,90.03L70.51,89.99L71.57,90.29L72.66,94.06L72.00,95.02L72.15,96.09L72.39,96.36L71.57,96.38L71.07,96.07L70.50,95.03L70.52,94.36L71.04,93.42L70.51,91.88L68.94,91.06L68.55,89.76z"/></g><g id="hotspot.6" onmouseover="ShowHotSpot(evt,'6')" onmouseout="HideHotSpot(evt,'6')" onmousemove="ShowToolTip(evt,'6',&quot;3dp2007538 (I_M VNH 06.42)&quot;)" opacity="0"><path style="fill:#00ff00;fill-rule:evenodd" d="M136.94,49.51L136.83,54.58L127.81,54.83L128.01,58.46L127.56,58.38L127.12,54.83L118.12,54.58L118.12,49.35L136.67,49.25zM127.02,58.81L128.01,58.46L128.71,58.51L127.89,60.24L127.59,60.24L127.09,59.32zM87.13,88.41L87.63,88.11L87.99,88.14L87.99,89.03L87.63,89.27L87.12,89.23z"/></g><g id="hotspot.7" onmouseover="ShowHotSpot(evt,'7')" onmouseout="HideHotSpot(evt,'7')" onmousemove="ShowToolTip(evt,'7',&quot;3dp733677 (I_AI C 08125.60)&quot;)" opacity="0"><path style="fill:#00ff00;fill-rule:evenodd" d="M187.72,90.24L187.85,92.49L190.49,92.36L191.12,92.09L192.21,92.68L192.21,92.98L190.60,93.82L190.33,93.20L187.85,93.17L187.61,95.31L168.89,95.31L168.89,90.08L187.45,89.98zM204.33,132.98L204.00,132.98L204.09,132.10L204.37,132.05zM205.05,138.95L204.53,139.05L204.54,138.12L205.09,138.10zM205.63,143.55L205.33,143.55L205.41,142.70L205.90,142.58z"/></g><g id="hotspot.8" onmouseover="ShowHotSpot(evt,'8')" onmouseout="HideHotSpot(evt,'8')" onmousemove="ShowToolTip(evt,'8',&quot;3dp733350&quot;)" opacity="0"><path style="fill:#00ff00;fill-rule:evenodd" d="M208.88,76.22L208.77,81.29L199.75,81.54L199.84,84.73L200.42,86.11L199.61,87.47L198.73,85.77L199.31,85.59L199.07,81.54L190.05,81.29L190.05,76.07L208.61,75.96zM204.08,133.15L203.76,133.23L203.80,132.31zM205.42,142.73L205.33,142.39L205.64,142.34z"/></g><g id="hotspot.9" onmouseover="ShowHotSpot(evt,'9')" onmouseout="HideHotSpot(evt,'9')" onmousemove="ShowToolTip(evt,'9',&quot;3dp733616 (I_AI C 06100.39)&quot;)" opacity="0"><path style="fill:#00ff00;fill-rule:evenodd" d="M121.60,88.65L121.73,90.90L124.74,90.87L125.01,90.25L126.62,91.18L125.25,91.99L124.72,91.63L121.73,91.59L121.49,93.72L102.78,93.72L102.78,88.50L121.34,88.39z"/></g><g id="hotspot.10" onmouseover="ShowHotSpot(evt,'10')" onmouseout="HideHotSpot(evt,'10')" onmousemove="ShowToolTip(evt,'10',&quot;3dp733358 (I_VNG M 06.95)&quot;)" opacity="0"><path style="fill:#00ff00;fill-rule:evenodd" d="M166.56,90.24L166.45,95.31L147.74,95.31L147.50,93.17L144.49,93.20L144.32,93.77L142.61,92.98L142.61,92.68L144.32,91.89L144.49,92.46L147.50,92.49L147.74,90.08L166.30,89.98zM88.00,93.42L87.77,93.82L87.40,93.46L87.39,93.14z"/></g><g id="hotspot.11" onmouseover="ShowHotSpot(evt,'11')" onmouseout="HideHotSpot(evt,'11')" onmousemove="ShowToolTip(evt,'11',&quot;3dp2440842&quot;)" opacity="0"><path style="fill:#00ff00;fill-rule:evenodd" d="M87.18,92.92L87.71,94.51L88.00,96.45L87.17,98.29L87.21,99.62L85.86,99.53L85.60,99.27L85.59,97.75L86.42,96.18L86.14,94.46L85.90,94.21L85.50,94.48L84.54,94.52L83.68,94.32L83.43,93.39L84.70,93.46L85.51,92.62zM230.00,116.99L230.28,117.49L230.26,120.77L229.93,122.03L229.48,124.22L228.11,124.16L227.80,123.95L227.87,122.08L228.41,120.25L228.41,119.10L227.91,118.82L226.46,118.82L225.25,119.47L224.97,118.85L222.50,118.83L222.26,120.97L205.39,120.97L205.39,115.74L222.34,115.65L222.50,118.14L224.97,118.11L225.25,117.49L226.31,118.08L226.79,118.12L227.90,117.35L228.31,116.68z"/></g><g id="hotspot.12" onmouseover="ShowHotSpot(evt,'12')" onmouseout="HideHotSpot(evt,'12')" onmousemove="ShowToolTip(evt,'12',&quot;3dp2321198&quot;)" opacity="0"><path style="fill:#00ff00;fill-rule:evenodd" d="M220.13,170.76L221.28,170.92L221.51,172.24L221.19,173.30L221.52,173.88L221.93,174.16L223.13,174.37L223.94,174.88L224.19,176.77L224.74,176.77L225.23,177.01L225.49,178.62L225.77,179.39L225.78,180.82L223.39,180.72L218.36,179.66L217.46,179.66L217.57,180.77L217.23,181.02L217.47,183.99L227.90,184.15L227.81,189.46L206.71,189.46L206.71,184.23L216.79,183.99L216.77,182.05L216.48,181.02L216.17,180.77L216.23,180.00L216.50,179.39L213.60,178.61L209.88,177.83L208.85,177.28L208.56,176.51L208.58,173.40L209.02,173.02L212.01,173.59L214.07,173.60L215.45,172.87L217.82,172.06L218.54,170.93L219.16,170.48L219.36,170.13L219.68,170.09z"/></g><g id="hotspot.13" onmouseover="ShowHotSpot(evt,'13')" onmouseout="HideHotSpot(evt,'13')" onmousemove="ShowToolTip(evt,'13',&quot;3dp2362826&quot;)" opacity="0"><path style="fill:#00ff00;fill-rule:evenodd" d="M53.60,131.28L53.54,131.77L53.87,132.31L53.88,133.21L53.25,134.15L53.78,135.58L54.92,135.76L56.29,136.24L57.29,138.42L57.60,139.82L57.21,140.27L56.25,140.27L44.31,137.91L43.78,137.38L43.51,135.05L44.25,134.17L44.77,133.90L46.37,133.65L46.99,132.86L48.23,132.86L50.68,132.40L51.66,131.23L52.79,131.33L53.10,130.99zM52.05,141.07L51.69,141.60L51.65,144.85L61.83,144.99L62.09,145.25L61.99,150.32L40.36,150.32L40.36,145.09L50.96,144.85L50.94,141.58L50.32,141.31L51.25,139.71z"/></g></g></svg>
