<?xml version="1.0" encoding="UTF-8" standalone="no"?>
<svg xmlns="http://www.w3.org/2000/svg" xmlns:xlink="http://www.w3.org/1999/xlink" width="297.000mm" height="210.000mm" viewBox="0.000000 0.000000 297.000000 210.000000" stroke-linejoin="round" stroke-linecap="round" fill="none" fill-rule="evenodd"><desc>Composer Export</desc><script type="text/ecmascript"><![CDATA[
if(typeof(top) != "undefined")
{
	top.ShowPaper = ShowPaper;
}
function ShowHotSpot(evt,hotspotid)
{
	var svgDocument = evt.target.ownerDocument;
	var strId = "hotspot."+hotspotid;
	var hotspot = svgDocument.getElementById(strId);
	if(hotspot)
		hotspot.setAttribute("opacity",".5");
}
function HideHotSpot(evt,hotspotid)
{
	var svgDocument = evt.target.ownerDocument;
	var strId = "hotspot."+hotspotid;
	var hotspot = svgDocument.getElementById(strId);
	if(hotspot)
		hotspot.setAttribute("opacity","0");

	var toolTip = svgDocument.getElementById('ToolTip');
	if(toolTip)
		toolTip.setAttribute("visibility","hidden");
}
function ShowToolTip(evt,hotspotid,strTooltip)
{
	if(strTooltip=="")
	return;

	// change text
	var svgDocument = evt.target.ownerDocument;
	var tiptext = svgDocument.getElementById('ToolTipText');
	if( !tiptext )
	return;
	tiptext.firstChild.nodeValue = " " + strTooltip + "  " ;

	// show tooltip before, else some refresh issue

	var toolTip = svgDocument.getElementById('ToolTip');
	if(!toolTip)
	return;

	toolTip.setAttribute("visibility","visible");
	toolTip.setAttribute("opacity",".95");

	// move tooltip
	// get viewbox

	var root = svgDocument.documentElement;
	var vbox = (root.getAttribute("viewBox")).split(' ');
	var x0 = parseFloat(vbox[0]);
	var y0 = parseFloat(vbox[1]);
	var vboxW = parseFloat(vbox[2]);
	var vboxH = parseFloat(vbox[3]);

	// get default width of svg

	var strW = root.getAttribute("width");
	var svgW = parseFloat(strW);
	if(strW.indexOf('mm') != -1)
	svgW *= 3.779;

	var strH = root.getAttribute("height");
	var svgH = parseFloat(strH);
	if(strH.indexOf('mm') != -1)
	svgH *= 3.779;  	// 96 dpi  -> 96/25.4 = 3.779

	// update the viewbox / width / height if svg is embedded in html with zoom fit all
	var realx0 = x0;
	var realy0 = y0;
	var realvboxW = vboxW;
	var realvboxH = vboxH;
	var realsvgW = svgW;
	var realsvgH = svgH;

	if ((typeof(top) == "undefined") || (typeof(top.svgctl1) != "undefined")) // embedded in html
	{
		// get window size in pxl

		svgW = window.innerWidth;
		svgH = window.innerHeight;

		// calculate real viewbox

		realsvgW = svgW;
		realsvgH = svgH;
		if((svgW / svgH) > (vboxW / vboxH))
		{
			realvboxW = (vboxH * svgW) / svgH;
			realvboxH = vboxH;
			realx0 = x0 - (realvboxW - vboxW)/2 ;
		}
		else
		{
			realvboxH = (vboxW * svgH) / svgW;
			realvboxW = vboxW;
			realy0 = y0 - (realvboxH - vboxH)/2 ;
		}
	}

	// get user zoom/pan

	var newScale = root.currentScale;
	var translation = root.currentTranslate;

	// transform pxl to user unit

	var xPos = (((evt.clientX+10- translation.x)/newScale) * realvboxW)/realsvgW  + realx0 ;
	var yPos = (((evt.clientY+5- translation.y)/newScale) * realvboxH)/ realsvgH  + realy0 ;
	var scaleForWidth = ( (1 / newScale) * realvboxH) / realsvgH;

	// move tooltip

	toolTip.setAttribute("transform", "translate(" + xPos + "," + yPos + ")" );

	// resize tooltip

	var fontsize = 12;
	tiptext.setAttribute("font-size",fontsize*scaleForWidth);
	tiptext.setAttribute("y", fontsize*scaleForWidth);
	var tipBG = svgDocument.getElementById('ToolTipBG');
	var outline = tiptext.getBBox();
	if(tipBG)
	{
		tipBG.setAttribute("stroke-width", 1*scaleForWidth);
		tipBG.setAttribute("width", Number(outline.width) );
		tipBG.setAttribute("height", Number(outline.height) + fontsize*.5*scaleForWidth );
	}
	var ToolTipShadow = svgDocument.getElementById('ToolTipShadow');
	if(ToolTipShadow)
	{
		ToolTipShadow.setAttribute("width", Number(outline.width) );
		ToolTipShadow.setAttribute("height", Number(outline.height) + fontsize*.5*scaleForWidth );
		ToolTipShadow.setAttribute("x", 3*scaleForWidth);
		ToolTipShadow.setAttribute("y", 3*scaleForWidth);
	}
}
function ShowPaper()
{
  var svgDocument = getDocument();
  var paper = svgDocument.getElementById("paperID");
  if(paper)
  {
    paper.setAttribute("transform","scale(1)");
    paper.setAttribute("opacity","1");
    paper.setAttribute("visibility","visible");
  }
  var svg = svgDocument.getRootElement();
  if(svg)
  {
    svg.setAttribute("width","307.000mm");
    svg.setAttribute("height","220.000mm");
    svg.setAttribute("viewBox","-5.000000 -5.000000 307.000000 220.000000");
  }
}
]]></script><defs/><g><g id="Actor_7.0"><g style="stroke:#000000;stroke-width:0.123"><path d="M239.64,138.42L202.38,121.79L202.27,122.78L239.41,139.53L239.64,138.42L239.41,139.53"/><path d="M202.38,121.79L239.60,138.44"/></g></g><g id="Actor_5.0"><g style="stroke:#000000;stroke-width:0.123"><path d="M158.51,79.63L158.31,79.75L158.70,80.45L166.27,91.46"/><path d="M159.01,79.42L158.43,79.68"/><path d="M158.27,79.79L159.03,60.36L159.96,41.94L160.80,29.43L161.92,16.38"/><path d="M159.04,79.40L159.17,79.35"/><path d="M160.33,70.00L160.37,68.96L159.96,79.06L167.05,89.26"/><path d="M159.96,79.08L159.72,79.16"/><path d="M159.32,79.29L159.77,79.14"/><path d="M160.03,79.06L160.52,66.87L160.50,67.41"/><path d="M160.37,68.96L160.73,60.60L160.69,61.64"/><path d="M160.52,66.87L160.70,62.76"/><path d="M160.66,63.73L161.92,39.92L163.54,19.26L193.93,21.61L194.31,20.95"/><path d="M160.73,60.60L160.88,57.46L160.83,58.51"/><path d="M160.88,57.46L160.98,55.37L160.93,56.42"/><path d="M160.98,55.37L161.19,51.19L161.14,52.24"/><path d="M161.19,51.19L161.42,47.01L161.36,48.06"/><path d="M161.42,47.01L161.60,43.93L161.54,44.93"/><path d="M161.60,43.88L161.86,39.70L161.80,40.75"/><path d="M161.86,39.70L162.14,35.52L162.07,36.57"/><path d="M161.95,16.12L162.10,17.05L162.02,16.83"/><path d="M161.93,16.12L196.57,18.46"/><path d="M162.14,35.52L162.37,32.39L162.29,33.43"/><path d="M162.37,32.39L162.53,30.30L162.45,31.34"/><path d="M162.53,30.30L162.78,27.16L162.69,28.21"/><path d="M162.78,27.16L163.04,24.03L162.95,25.07"/><path d="M163.04,24.03L163.22,21.94L163.16,22.61"/><path d="M163.54,19.25L162.83,18.49L162.10,17.05"/><path d="M163.55,19.23L162.90,18.53L162.12,17.13"/><path d="M163.22,21.94L163.47,19.23"/><path d="M192.25,101.58L166.33,91.57L166.22,91.02L166.54,89.92L166.97,89.27L167.17,89.30L190.28,97.97L190.48,98.80L191.02,99.97L191.60,100.88L192.24,101.56L193.32,87.25L194.40,69.06L195.67,42.40L196.56,18.51L196.09,18.79L195.09,19.85L196.58,18.38"/><path d="M190.62,93.54L190.66,92.99L190.31,97.98"/><path d="M190.66,92.99L190.94,88.81L190.87,89.85"/><path d="M190.94,88.81L191.13,85.67L191.07,86.72"/><path d="M191.13,85.67L191.20,84.63L191.13,85.67"/><path d="M191.20,84.63L191.38,81.49L191.32,82.54"/><path d="M192.30,101.61L192.31,101.52"/><path d="M192.01,101.34L191.93,101.26"/><path d="M191.38,81.49L191.50,79.40L191.44,80.45"/><path d="M191.50,79.40L191.74,75.22L191.68,76.27"/><path d="M191.74,75.22L191.85,73.13L191.79,74.18"/><path d="M191.85,73.13L192.12,67.92L192.07,68.96"/><path d="M192.12,67.92L192.41,61.91"/><path d="M192.38,62.69L192.62,57.46L192.61,57.73"/><path d="M192.62,57.46L192.76,54.33L192.72,55.37"/><path d="M192.96,49.93L192.99,49.10L192.76,54.33L192.79,53.85"/><path d="M192.99,49.10L193.04,48.06L192.99,49.10"/><path d="M193.04,48.06L193.12,45.97L193.08,47.01"/><path d="M193.12,45.97L193.30,41.79L193.25,42.84"/><path d="M193.30,41.79L193.46,37.61L193.42,38.66"/><path d="M193.47,37.30L193.46,37.61L193.50,36.57L193.47,37.30"/><path d="M193.46,37.61L193.55,35.25"/><path d="M194.07,73.63L194.29,69.80"/><path d="M193.54,35.52L193.94,24.03L193.90,25.04"/><path d="M193.94,24.03L194.01,21.66L194.00,21.94"/><path d="M194.01,21.65L194.02,21.61"/><path d="M194.47,20.68L194.34,20.90L194.42,20.77"/><path d="M194.89,20.10L195.04,19.91L194.51,20.62L194.87,20.13"/><path d="M195.61,42.21L195.76,38.47"/></g></g><g id="Actor_6.0"><g style="stroke:#000000;stroke-width:0.123"><path d="M160.33,12.98L158.64,32.55L157.55,50.99L155.09,124.28L154.87,141.57L155.16,124.36L157.53,53.28L159.01,28.71L160.56,13.01L160.32,12.76L160.59,12.63"/><path d="M154.90,141.64L155.13,124.37L157.50,53.28L158.69,32.52L160.41,13.07"/><path d="M154.93,141.55L155.33,141.52"/><path d="M155.94,141.95L155.39,141.84L155.32,141.13L155.32,134.30L157.95,54.75L159.20,32.75L160.84,13.76L160.96,13.97"/><path d="M155.93,141.39L155.95,142.00L156.30,124.60L158.90,51.19L160.02,32.68L161.50,14.66L161.13,18.45"/><path d="M155.95,142.00L155.91,135.82L155.90,136.49"/><path d="M156.05,130.01L156.06,129.55L155.91,135.82L155.92,135.21"/><path d="M156.06,129.55L156.21,124.72"/><path d="M156.19,125.37L159.19,43.88L159.18,44.15"/><path d="M159.19,43.88L159.39,40.59"/><path d="M159.38,40.75L159.66,36.57L159.58,37.61"/><path d="M159.52,39.39L159.72,36.57L159.65,37.61"/><path d="M159.72,36.57L159.95,33.37"/><path d="M159.66,36.57L159.88,33.35"/><path d="M159.88,33.43L160.54,25.07L160.46,25.97"/><path d="M160.54,25.07L160.78,22.23"/><path d="M160.72,22.99L161.20,17.76L161.17,18.07"/><path d="M160.95,20.97L161.26,17.76L161.16,18.81"/><path d="M160.89,13.52L160.84,13.76"/><path d="M161.03,13.50L160.96,13.38"/><path d="M160.79,13.08L160.83,13.13"/><path d="M160.36,13.00L160.38,13.06"/><path d="M160.56,13.01L173.60,13.63L172.55,13.58"/><path d="M160.92,13.50L160.99,13.42"/><path d="M160.40,13.00L160.38,13.00"/><path d="M160.57,12.62L200.00,14.41"/><path d="M161.20,17.76L161.22,17.51"/><path d="M161.26,17.76L161.52,15.08L161.46,15.67"/><path d="M161.40,15.67L161.49,14.62"/><path d="M161.56,14.69L161.52,15.08"/><path d="M161.60,14.69L198.09,16.67L198.40,16.50"/><path d="M161.19,14.27L161.08,14.14L161.49,14.50"/><path d="M161.33,14.34L161.26,14.31"/><path d="M161.05,14.12L161.08,14.14"/><path d="M161.49,14.59L161.50,14.54"/><path d="M161.05,13.50L199.20,15.38L198.41,16.24L198.48,16.07"/><path d="M173.60,13.63L195.56,14.66L194.51,14.61"/><path d="M200.09,14.42L198.72,48.86L196.10,92.58L191.48,145.22L190.54,162.54L189.87,162.75L189.81,161.94L189.79,162.34L189.34,162.31L189.08,160.90L189.05,161.91"/><path d="M189.08,160.90L189.11,159.85L189.08,160.90"/><path d="M198.42,16.27L197.08,48.93L195.35,80.40L193.54,105.52L190.26,142.44L189.19,161.94"/><path d="M189.11,159.85L189.14,158.59"/><path d="M189.14,158.81L189.36,153.58L189.34,154.05"/><path d="M189.81,161.94L189.84,160.90L189.81,161.94"/><path d="M189.84,160.90L189.91,158.81L189.87,159.85"/><path d="M189.95,157.76L189.91,158.81L189.99,156.72L189.95,157.76"/><path d="M189.99,156.72L190.10,154.63L190.04,155.67"/><path d="M189.36,153.58L189.48,151.49L189.42,152.54"/><path d="M190.10,154.63L191.04,141.09L194.07,107.61L195.81,84.63L195.76,85.31"/><path d="M190.21,152.54L195.66,86.54L197.80,49.10L199.20,15.38"/><path d="M189.48,151.49L189.68,148.36L189.54,150.45"/><path d="M194.89,85.12L194.92,84.63L193.36,105.52L189.68,148.36L189.69,148.07"/><path d="M194.92,84.63L195.25,79.40L195.18,80.45"/><path d="M195.25,79.40L195.38,77.31L195.31,78.36"/><path d="M195.38,77.31L195.62,73.13L195.50,75.22"/><path d="M195.56,14.66L199.20,14.83L199.55,14.63"/><path d="M195.81,84.63L196.01,81.49L195.95,82.54"/><path d="M196.01,81.49L196.27,77.31L196.21,78.36"/><path d="M196.40,75.22L196.47,74.18L196.27,77.31"/><path d="M196.47,74.18L196.65,71.04L196.59,72.09"/><path d="M195.62,73.13L195.78,70.53"/><path d="M195.75,71.04L196.04,65.82L195.99,66.79"/><path d="M196.04,65.82L196.19,63.01"/><path d="M196.15,63.73L197.00,47.01L196.96,47.83"/><path d="M199.30,14.83L196.65,71.04L196.67,70.74"/><path d="M197.00,47.01L197.14,44.02"/><path d="M197.10,44.93L197.97,24.03L197.95,24.58"/><path d="M197.97,24.03L198.04,21.94L198.01,22.99"/><path d="M198.04,21.94L198.15,18.81L198.04,21.94"/><path d="M198.15,18.81L198.23,16.68"/><path d="M198.23,16.72L198.23,16.63"/><path d="M198.16,16.68L198.41,16.45"/><path d="M198.57,15.93L199.18,15.38"/><path d="M199.20,15.49L199.22,15.49"/><path d="M199.40,14.74L199.47,14.69"/><path d="M199.28,14.85L198.70,14.81"/><path d="M199.62,14.58L200.13,14.44"/><path d="M199.91,14.44L199.86,14.46"/><path d="M200.15,14.47L200.15,14.56"/></g></g><g id="Actor_4.0"><g style="stroke:#000000;stroke-width:0.123"><path d="M217.61,77.89L210.77,69.50L211.03,69.38"/><path d="M217.52,19.95L217.51,19.65L215.99,29.49L214.71,38.75L211.10,69.37"/><path d="M211.20,69.34L217.83,77.42"/><path d="M211.19,69.27L211.42,69.23L211.45,69.05L214.19,44.76L217.05,24.03L216.89,25.01"/><path d="M211.21,69.32L217.62,77.07"/><path d="M210.79,69.48L213.02,49.22L214.36,38.39L216.67,22.22L217.18,18.97L217.34,18.94"/><path d="M217.82,77.06L211.37,69.23"/><path d="M214.59,38.55L215.01,35.43"/><path d="M215.61,32.64L216.06,29.54"/><path d="M217.39,21.79L217.52,20.98L217.05,24.03L217.15,23.37"/><path d="M217.52,20.98L217.65,20.14L217.58,20.59"/><path d="M217.48,20.10L217.48,20.10"/><path d="M217.50,20.10L217.58,20.11"/><path d="M217.45,20.08L217.44,20.06"/><path d="M217.44,20.00L246.37,21.74L244.22,47.92L242.90,60.98L241.74,70.97"/><path d="M217.45,20.01L217.45,20.00"/><path d="M217.49,19.99L217.53,19.89"/><path d="M217.18,18.97L217.30,19.35L217.27,19.28"/><path d="M217.23,19.21L217.26,19.27"/><path d="M217.33,18.94L248.10,20.69"/><path d="M242.16,74.45L243.77,61.01L245.11,47.92L247.27,21.18L217.43,19.45L217.51,19.65"/><path d="M217.54,19.57L217.48,19.49"/><path d="M217.36,19.45L217.30,19.35"/><path d="M217.21,19.17L217.19,19.12"/><path d="M217.41,18.48L217.50,18.94"/><path d="M217.39,18.48L217.32,18.94"/><path d="M217.34,18.81L217.39,18.49L217.49,18.72"/><path d="M217.41,18.47L248.98,20.23"/><path d="M217.39,18.49L248.89,20.20L248.10,20.78"/><path d="M242.28,84.60L242.32,84.68L217.97,78.23L217.74,77.94"/><path d="M217.95,78.20L242.30,84.70"/><path d="M217.96,78.21L218.00,78.01"/><path d="M217.71,77.54L217.59,77.81L217.72,77.93L241.37,84.20L241.19,84.06"/><path d="M217.75,77.53L217.81,77.40"/><path d="M217.70,77.16L217.77,77.38"/><path d="M217.93,78.18L217.86,78.09"/><path d="M240.21,83.05L217.59,77.12"/><path d="M217.64,77.06L225.89,79.18L225.41,79.05"/><path d="M217.70,77.05L217.78,77.05"/><path d="M217.55,20.11L246.32,21.83"/><path d="M217.53,20.90L217.63,20.26"/><path d="M234.25,81.37L235.30,81.65L225.89,79.18"/><path d="M235.30,81.65L239.48,82.74L238.44,82.47"/><path d="M246.40,21.75L245.10,38.66L243.77,53.28L242.10,68.55L240.19,83.02L241.60,72.09L241.59,72.17"/><path d="M240.19,83.05L240.41,83.11L240.33,83.08"/><path d="M240.42,83.12L240.83,83.45"/><path d="M240.23,83.07L240.32,83.07"/><path d="M240.15,82.92L239.48,82.74L240.15,82.92"/><path d="M241.33,84.17L240.90,83.58L242.46,72.09"/><path d="M241.34,84.18L241.55,84.17"/><path d="M241.55,84.18L243.60,68.96L243.07,73.13"/><path d="M241.37,84.20L241.56,84.15"/><path d="M242.87,80.45L242.27,84.63L244.41,68.60L246.13,53.28L247.49,38.68L248.94,20.20L247.68,36.97L246.17,53.28L244.45,68.60L242.77,81.12"/><path d="M242.23,84.64L241.69,84.11L242.05,84.41"/><path d="M242.27,84.68L242.26,84.65"/><path d="M241.58,84.03L241.69,84.11"/><path d="M241.62,84.07L241.67,84.10"/><path d="M242.47,74.49L243.22,68.62"/><path d="M242.14,74.40L242.88,68.54"/><path d="M242.37,72.73L242.81,69.22"/><path d="M241.60,72.09L241.73,71.04L241.67,71.54"/><path d="M242.59,71.04L242.90,68.58"/><path d="M241.73,71.04L241.90,69.68"/><path d="M241.86,70.00L241.93,69.43"/><path d="M242.72,70.00L242.73,69.90"/><path d="M243.60,68.96L245.65,50.25"/><path d="M245.56,51.19L246.06,45.97L246.05,46.10"/><path d="M245.96,47.01L248.10,20.67L247.65,20.82L247.43,23.51"/><path d="M246.65,21.67L246.41,21.74L247.15,21.36"/><path d="M246.83,37.17L246.80,37.50L246.83,37.21"/><path d="M247.08,31.42L247.28,28.75"/><path d="M247.54,28.21L247.57,27.86"/><path d="M247.27,21.18L247.62,20.84"/><path d="M247.24,21.33L247.26,21.31"/><path d="M248.85,21.94L248.98,20.20"/><path d="M248.08,20.66L248.12,20.66"/><path d="M249.00,20.19L248.98,20.19"/></g></g><g id="Actor_3.0"><g style="stroke:#000000;stroke-width:0.123"><path d="M113.76,156.90L113.29,152.64L112.73,141.40L110.09,59.62L109.89,34.60L110.40,13.90"/><path d="M114.08,157.30L113.87,157.34L113.73,156.72L113.52,154.74L112.94,144.81L110.35,66.59L109.96,39.26L110.49,14.06L145.05,16.31"/><path d="M114.87,157.56L114.21,157.62L114.00,156.72L113.38,148.01L110.87,73.41L110.32,43.89L110.78,14.37L144.86,16.47L144.32,17.06L110.92,14.83"/><path d="M110.83,14.80L110.90,14.84"/><path d="M110.49,13.97L110.37,13.81L110.69,13.75L110.50,13.75"/><path d="M111.07,13.74L110.85,13.73L145.25,15.80"/><path d="M111.11,13.74L110.55,13.14L110.40,13.78"/><path d="M110.44,13.10L110.30,12.89"/><path d="M110.61,12.90L110.44,12.89"/><path d="M146.28,182.46L145.81,166.53L146.73,103.92L146.48,15.26L145.91,14.86L110.28,12.89"/><path d="M144.45,18.25L143.27,18.87L112.29,16.53L112.23,16.72L111.78,34.82L111.92,59.93L114.36,142.02L115.29,157.35L115.04,158.02L114.51,153.80L113.97,142.51L111.43,57.46L111.45,58.51"/><path d="M111.43,57.46L111.31,35.16L111.76,16.35L112.01,15.97L111.05,14.85"/><path d="M112.24,16.53L111.76,16.35"/><path d="M111.80,16.41L111.98,16.07"/><path d="M111.45,14.20L111.49,14.35"/><path d="M111.17,14.33L111.22,14.33"/><path d="M110.95,14.32L110.88,14.31"/><path d="M145.98,15.75L144.32,16.22L111.05,14.14"/><path d="M111.26,14.34L111.28,14.19"/><path d="M112.08,20.90L112.09,20.69"/><path d="M114.94,158.06L114.94,158.05"/><path d="M114.65,155.52L114.54,154.11"/><path d="M144.74,182.76L144.42,182.84L143.88,181.27L143.35,165.64L144.02,103.45L143.58,18.90"/><path d="M143.67,176.47L143.56,173.76"/><path d="M145.01,183.63L144.60,182.04L144.41,178.67L144.09,166.34L144.85,97.24L144.32,17.06"/><path d="M143.96,66.49L143.94,62.15"/><path d="M143.77,36.58L143.74,32.20"/><path d="M143.67,23.33L143.60,18.90"/><path d="M143.63,18.86L144.46,18.38"/><path d="M145.02,183.66L145.40,183.69"/><path d="M146.07,183.66L145.46,183.88L145.05,181.79L145.08,182.31"/><path d="M145.05,181.79L144.88,178.66L144.94,179.70"/><path d="M145.09,182.40L145.12,182.70L145.09,182.40"/><path d="M144.88,178.66L144.76,175.56L144.80,176.57"/><path d="M144.71,174.70L144.71,174.48L144.76,175.52L144.59,161.14L145.25,121.29L145.41,90.63L145.05,16.56L144.46,17.04"/><path d="M144.71,174.48L144.63,171.34L144.65,172.39"/><path d="M144.62,170.97L144.63,171.34L144.62,171.13"/><path d="M144.61,170.59L144.61,170.61"/><path d="M144.61,170.51L144.61,170.30L144.63,171.34"/><path d="M144.61,170.25L144.59,169.25L144.60,169.78"/><path d="M144.59,169.25L144.58,168.21L144.59,169.25"/><path d="M144.58,168.21L144.57,167.16L144.58,168.21"/><path d="M144.57,167.16L144.57,166.12L144.57,167.16"/><path d="M144.54,166.30L144.53,162.94"/><path d="M144.56,165.21L144.57,166.12L144.56,162.11"/><path d="M144.57,161.94L144.57,160.33"/><path d="M144.57,160.91L144.59,157.76L144.58,158.53"/><path d="M144.59,157.76L144.60,156.72L144.59,157.76"/><path d="M144.61,156.39L144.60,156.72L144.70,150.45L144.68,151.40"/><path d="M144.62,155.24L144.62,155.47"/><path d="M144.70,150.07L144.72,149.40L144.70,150.45L144.70,150.21"/><path d="M144.72,149.40L144.78,145.53"/><path d="M144.78,146.27L145.38,97.27L145.05,16.78"/><path d="M145.33,83.37L145.32,78.33"/><path d="M145.28,68.45L145.26,63.65"/><path d="M145.22,54.41L145.19,50.02"/><path d="M145.17,45.77L145.15,41.71"/><path d="M145.38,44.41L145.36,39.85"/><path d="M145.05,16.58L144.76,16.74"/><path d="M145.02,16.61L145.02,16.80"/><path d="M144.96,16.26L145.05,16.24"/><path d="M145.05,16.51L145.18,15.94L145.99,15.99"/><path d="M145.76,15.83L145.36,15.81L145.58,15.82"/><path d="M144.86,16.47L144.88,16.50"/><path d="M146.58,183.46L146.36,184.15L145.83,182.60L145.37,166.85L146.25,104.11L146.14,14.96"/><path d="M145.49,183.97L145.50,183.99"/><path d="M146.60,183.51L146.28,182.42"/><path d="M145.49,66.63L145.47,62.24"/><path d="M145.91,14.86L145.74,15.01L145.98,15.18"/></g></g><g id="Actor_1.0"><g style="stroke:#000000;stroke-width:0.123"><path d="M189.14,158.39L156.33,138.18L156.24,139.01L189.11,159.40"/><path d="M156.47,138.23L156.87,138.12L189.15,157.96"/><path d="M156.84,138.10L156.92,137.91L157.29,137.78L189.18,157.28"/><path d="M156.32,138.17L189.14,158.36"/><path d="M193.62,160.45L193.70,160.51L193.55,160.72L193.58,160.50L193.68,160.42L193.86,160.64L193.84,160.80L193.71,160.73L193.83,160.88L193.68,160.79L193.44,161.21L193.40,161.09L193.11,161.21L192.95,161.37L192.87,161.62L192.77,161.67L190.61,160.33"/><path d="M190.66,158.88L193.45,160.59L193.00,160.80L192.97,160.72L190.64,159.32"/><path d="M192.96,160.71L190.65,159.28"/><path d="M193.45,160.59L193.55,160.37L193.90,160.19L190.69,158.20"/><path d="M192.77,161.67L192.92,160.72"/><path d="M192.89,161.32L192.95,161.01L193.08,160.89L193.06,161.14L192.89,161.32"/><path d="M193.42,160.92L193.39,160.72L193.20,160.81L193.16,161.09L193.42,160.92"/><path d="M193.41,161.21L193.30,161.14"/><path d="M193.83,160.88L193.83,160.96L193.62,160.87"/><path d="M193.84,161.00L193.94,160.90L194.00,160.32L193.94,160.19"/><path d="M193.86,160.64L193.70,160.55L193.54,160.80L193.52,160.96L193.65,160.77L193.60,160.70"/><path d="M193.68,160.75L193.68,160.79"/><path d="M193.70,160.51L193.70,160.55"/><path d="M193.68,160.42L193.88,160.38L193.87,160.56L193.76,160.47"/><path d="M193.74,160.72L193.63,160.65"/><path d="M193.71,160.73L193.62,160.68"/></g></g><g id="Actor_2.0"><g style="stroke:#000000;stroke-width:0.123"><path d="M64.35,12.65L64.95,37.87L66.44,61.86L75.25,154.89L77.25,170.05L75.30,170.84L74.72,170.72L74.56,170.30L72.96,159.29L63.25,61.89L61.63,37.40L60.93,11.32"/><path d="M63.50,12.57L63.79,12.61L62.07,12.40L61.16,11.65L62.15,12.39L63.86,12.59"/><path d="M60.93,11.35L91.20,13.49L60.88,11.27"/><path d="M61.01,11.46L61.04,11.49"/><path d="M60.93,11.22L61.70,11.28"/><path d="M63.79,12.61L63.79,12.61"/><path d="M62.83,12.50L62.81,12.48"/><path d="M65.32,52.82L64.14,52.81"/><path d="M64.15,52.95L65.24,52.90L65.36,52.64L65.07,48.26L63.83,48.30L64.15,52.95"/><path d="M65.01,48.26L65.32,52.85L64.32,52.88"/><path d="M64.32,52.84L64.87,52.89"/><path d="M63.97,12.61L91.27,14.79"/><path d="M64.84,11.51L63.79,11.43"/><path d="M65.26,52.87L65.34,52.89"/><path d="M65.33,52.87L65.32,52.85"/><path d="M64.95,52.89L64.90,52.89"/><path d="M70.01,115.40L69.82,113.88L70.92,113.54L71.08,115.18L70.01,115.40"/><path d="M71.01,115.02L69.94,115.11"/><path d="M70.79,112.19L70.64,110.54L69.58,110.75L69.69,112.41L70.73,112.07"/><path d="M69.83,112.21L70.45,112.17L69.83,112.21"/><path d="M69.84,112.14L69.86,112.26"/><path d="M70.72,112.03L69.65,112.12"/><path d="M71.71,121.66L70.69,121.89L70.54,121.19L70.34,119.18L71.44,118.94L71.71,121.66L71.39,118.95"/><path d="M71.64,121.49L70.58,121.59"/><path d="M70.85,121.58L71.30,121.55L70.85,121.58"/><path d="M70.79,121.74L70.77,121.61"/><path d="M71.08,115.18L71.02,115.06"/><path d="M70.59,115.06L70.22,115.10L70.59,115.06"/><path d="M70.14,115.13L70.16,115.27"/><path d="M71.03,115.14L70.87,113.56"/><path d="M70.73,112.14L70.58,110.55"/><path d="M71.64,121.54L71.65,121.61"/><path d="M73.95,145.41L73.63,142.09L72.55,142.18L72.90,145.69L73.88,145.27"/><path d="M73.08,145.34L73.56,145.45L73.51,145.25L73.09,145.49"/><path d="M72.90,145.58L72.89,145.55"/><path d="M73.87,145.20L72.86,145.35"/><path d="M73.88,145.33L73.56,141.92"/><path d="M104.96,204.66L104.33,205.77L103.43,203.71L101.21,183.48L93.97,65.17L91.27,14.88"/><path d="M97.18,113.88L97.25,114.93L93.80,59.94L91.40,14.60"/><path d="M91.49,14.31L91.84,14.58L91.38,14.05"/><path d="M92.33,14.66L92.17,14.65"/><path d="M91.28,15.16L91.31,15.67"/><path d="M91.26,14.72L91.24,14.34"/><path d="M91.17,13.52L91.24,14.22"/><path d="M91.22,13.84L91.23,14.19"/><path d="M91.22,13.87L91.35,13.58"/><path d="M91.37,13.97L91.37,14.01"/><path d="M91.23,13.99L91.23,13.94"/><path d="M91.38,14.23L91.40,14.50"/><path d="M92.45,14.24L92.84,13.80L91.36,13.65"/><path d="M91.37,13.86L91.38,13.89"/><path d="M91.36,13.79L91.37,13.82"/><path d="M91.36,13.71L91.37,13.77"/><path d="M91.24,13.47L91.28,13.48"/><path d="M94.47,53.26L94.74,58.20L92.44,14.22"/><path d="M92.37,14.65L92.45,14.52"/><path d="M92.40,14.64L92.46,14.60"/><path d="M92.45,14.19L92.45,14.45"/><path d="M92.88,13.77L93.97,13.63L94.19,14.10L96.41,58.13L94.75,58.26"/><path d="M96.10,81.49L96.17,82.54L95.06,64.05L95.07,64.27"/><path d="M94.68,58.22L95.08,64.36"/><path d="M95.67,63.91L95.42,63.95L96.47,63.84L95.12,63.93"/><path d="M95.11,63.97L95.14,63.97"/><path d="M95.11,64.01L95.09,64.01"/><path d="M106.22,203.78L106.53,203.64L105.87,201.91L104.53,190.78L103.32,174.85L96.63,56.21L94.55,14.42"/><path d="M94.56,14.40L94.22,14.52"/><path d="M95.36,85.67L95.30,84.63"/><path d="M96.36,85.39L96.05,80.37"/><path d="M96.23,83.58L96.17,82.54L96.58,89.21"/><path d="M95.42,63.97L95.64,63.98L95.20,64.01L96.41,63.87"/><path d="M95.96,63.88L96.21,63.90L95.64,63.98"/><path d="M95.45,63.93L95.17,63.98L95.42,63.95"/><path d="M96.21,63.87L96.06,63.88"/><path d="M96.41,63.83L96.03,58.21"/><path d="M96.49,63.84L96.13,58.20"/><path d="M96.24,49.21L95.96,43.89"/><path d="M97.25,114.93L100.78,175.52L102.49,195.73L102.45,195.37"/><path d="M96.98,110.75L96.91,109.70"/><path d="M96.57,104.48L96.64,105.52"/><path d="M96.37,101.34L96.30,100.30"/><path d="M97.28,100.30L97.21,99.25L98.95,126.80"/><path d="M97.89,109.49L96.67,90.35"/><path d="M97.21,99.25L96.56,88.81"/><path d="M102.86,171.86L101.85,152.15L101.10,152.69L100.42,152.66L100.28,150.45L100.22,149.40L101.44,149.33L101.66,148.36L96.70,63.88"/><path d="M97.38,69.92L97.09,64.83"/><path d="M98.30,131.64L98.37,132.69"/><path d="M98.18,129.55L98.24,130.60"/><path d="M97.92,125.37L97.85,124.33"/><path d="M97.52,119.10L97.45,118.06"/><path d="M98.28,115.97L98.34,117.01"/><path d="M98.21,114.93L98.14,113.88"/><path d="M97.81,108.66L97.75,107.61"/><path d="M97.41,102.39L97.35,101.34"/><path d="M98.26,85.07L97.97,80.09"/><path d="M99.15,146.27L99.10,145.22"/><path d="M98.86,141.04L98.92,142.09"/><path d="M98.55,135.82L98.61,136.87"/><path d="M100.22,149.31L98.92,126.42"/><path d="M98.60,121.19L98.54,120.15"/><path d="M99.72,109.02L98.56,89.99"/><path d="M100.29,167.16L100.42,169.45"/><path d="M99.61,154.63L99.67,155.67"/><path d="M101.53,185.97L101.29,182.84"/><path d="M101.21,181.79L101.21,181.87"/><path d="M101.13,180.75L101.01,179.12"/><path d="M100.98,180.22L100.96,180.02"/><path d="M100.98,178.66L100.96,178.34"/><path d="M100.85,176.57L100.78,175.57"/><path d="M100.74,174.87L100.82,176.31"/><path d="M102.87,171.88L102.11,172.47L101.49,172.43L100.41,152.63"/><path d="M101.11,152.56L100.71,152.40L101.44,152.29L101.11,152.56"/><path d="M100.39,152.34L101.85,152.15"/><path d="M101.54,151.99L101.39,149.35"/><path d="M102.45,195.41L103.54,203.67"/><path d="M101.90,190.15L102.00,191.19"/><path d="M101.71,188.06L101.61,187.01"/><path d="M105.77,202.76L106.29,203.94L106.14,204.42L105.05,204.85L104.30,202.87L103.21,194.46L101.45,172.42"/><path d="M101.71,176.44L102.38,176.51L103.09,175.95L102.86,175.91L102.66,172.23"/><path d="M102.41,175.96L102.74,176.09L102.08,176.29L102.41,175.96"/><path d="M102.86,175.82L101.68,176.13"/><path d="M101.47,149.32L101.60,152.05"/><path d="M103.28,202.69L103.43,203.71"/><path d="M103.13,201.64L103.05,201.09"/><path d="M103.25,201.64L103.10,200.60"/><path d="M102.83,198.51L102.70,197.46"/><path d="M103.56,182.83L103.49,181.79L105.62,202.17"/><path d="M103.49,181.79L103.40,180.67"/><path d="M103.42,180.75L103.10,175.92"/><path d="M102.78,175.73L102.57,172.26"/><path d="M105.62,202.19L105.71,202.60"/><path d="M105.85,201.93L106.53,203.64"/></g></g><g><g><path style="stroke:#000000;stroke-width:0.210;stroke-dasharray:2.1 2.1" d="M229.19,51.08L178.31,57.80"/></g></g><g><g><path style="stroke:#000000;stroke-width:0.210;stroke-dasharray:2.1 2.1" d="M175.89,89.41L83.60,110.62"/></g></g><g id="PMI7.0"><g><path style="stroke:#000000;stroke-width:0.280" d="M236.36,130.30L236.38,135.47"/></g><g><path style="fill:#000000" d="M235.36,135.47L237.36,135.46L236.37,137.47z"/></g><g><path style="fill:#ffffff" d="M226.38,130.29L246.31,130.29L246.31,124.65L226.38,124.65z"/><path style="stroke:#000000;stroke-width:0.280;stroke-opacity:0.98" d="M226.38,130.29L246.31,130.29L246.31,124.65L226.38,124.65z"/><text xml:space="preserve" fill="#000000" stroke-width="0" x="227.09" y="128.71" font-size="3.44" opacity="1.00" font-family="MS Shell Dlg">0200377W1</text></g></g><g id="PMI4.0"><g><path style="stroke:#000000;stroke-width:0.280" d="M250.10,53.26L245.80,53.26"/></g><g><path style="fill:#000000" d="M245.79,52.26L245.79,54.26L243.79,53.26z"/></g><g><path style="fill:#ffffff" d="M250.09,56.08L269.01,56.08L269.01,50.44L250.09,50.44z"/><path style="stroke:#000000;stroke-width:0.280;stroke-opacity:0.98" d="M250.09,56.08L269.01,56.08L269.01,50.44L250.09,50.44z"/><text xml:space="preserve" fill="#000000" stroke-width="0" x="250.79" y="54.50" font-size="3.39" opacity="1.00" font-family="MS Shell Dlg">1300004U1</text></g></g><g id="PMI1.0"><g><path style="stroke:#000000;stroke-width:0.280" d="M193.41,170.79L193.43,162.94"/></g><g><path style="fill:#000000" d="M194.41,162.93L192.41,162.92L193.42,160.92z"/></g><g><path style="fill:#ffffff" d="M184.13,176.42L202.67,176.42L202.67,170.77L184.13,170.77z"/><path style="stroke:#000000;stroke-width:0.280;stroke-opacity:0.98" d="M184.13,176.42L202.67,176.42L202.67,170.77L184.13,170.77z"/><text xml:space="preserve" fill="#000000" stroke-width="0" x="184.83" y="174.83" font-size="3.39" opacity="1.00" font-family="MS Shell Dlg">1300004T1</text></g></g><g id="PMI5.0"><g><path style="stroke:#000000;stroke-width:0.280" d="M175.65,25.95L175.59,21.44"/></g><g><path style="fill:#000000" d="M176.58,21.44L174.58,21.47L175.56,19.45z"/></g><g><path style="fill:#ffffff" d="M165.83,31.61L185.52,31.61L185.52,25.96L165.83,25.96z"/><path style="stroke:#000000;stroke-width:0.280;stroke-opacity:0.98" d="M165.83,31.61L185.52,31.61L185.52,25.96L165.83,25.96z"/><text xml:space="preserve" fill="#000000" stroke-width="0" x="166.54" y="30.02" font-size="3.39" opacity="1.00" font-family="MS Shell Dlg">1300004W1</text></g></g><g id="PMI6.0"><g><path style="stroke:#000000;stroke-width:0.280" d="M199.85,96.63L196.11,96.66"/></g><g><path style="fill:#000000" d="M196.10,95.66L196.11,97.66L194.10,96.67z"/></g><g><path style="fill:#ffffff" d="M199.84,99.37L220.36,99.37L220.36,93.73L199.84,93.73z"/><path style="stroke:#000000;stroke-width:0.280;stroke-opacity:0.98" d="M199.84,99.37L220.36,99.37L220.36,93.73L199.84,93.73z"/><text xml:space="preserve" fill="#000000" stroke-width="0" x="200.55" y="97.79" font-size="3.10" opacity="1.00" font-family="MS Shell Dlg">8123000140</text></g></g><g id="PMI3.0"><g><path style="stroke:#000000;stroke-width:0.280" d="M137.38,172.92L142.63,172.83"/></g><g><path style="fill:#000000" d="M142.65,173.80L142.62,171.80L144.63,172.77z"/></g><g><path style="fill:#ffffff" d="M116.87,175.90L137.39,175.90L137.39,170.26L116.87,170.26z"/><path style="stroke:#000000;stroke-width:0.280;stroke-opacity:0.98" d="M116.87,175.90L137.39,175.90L137.39,170.26L116.87,170.26z"/><text xml:space="preserve" fill="#000000" stroke-width="0" x="117.58" y="174.31" font-size="3.10" opacity="1.00" font-family="MS Shell Dlg">8123000063</text></g></g><g id="PMI2.0"><g><path style="stroke:#000000;stroke-width:0.280" d="M57.99,73.47L63.24,73.53"/></g><g><path style="fill:#000000" d="M63.26,74.54L63.28,72.54L65.27,73.56z"/></g><g><path style="fill:#ffffff" d="M37.51,76.18L58.03,76.18L58.03,70.54L37.51,70.54z"/><path style="stroke:#000000;stroke-width:0.280;stroke-opacity:0.98" d="M37.51,76.18L58.03,76.18L58.03,70.54L37.51,70.54z"/><text xml:space="preserve" fill="#000000" stroke-width="0" x="38.22" y="74.60" font-size="3.10" opacity="1.00" font-family="MS Shell Dlg">8123000306</text></g></g><g/><g id="paperID" visibility="hidden" opacity="0.00" transform="scale(0.000100)"><path style="stroke:#000000;stroke-width:0.500;fill:#e6e6e6;fill-rule:evenodd" d="M-2000.00,-2000.00L2297.00,-2000.00L2297.00,2210.00L-2000.00,2210.00zM0.00,0.00L297.00,0.00L297.00,210.00L0.00,210.00z"/><path style="fill:#000000;fill-opacity:0.118" d="M3.00,210.00L297.00,210.00L297.00,3.00L300.00,3.00L300.00,213.00L3.00,213.00z"/></g><g id="hotspot.0" onmouseover="ShowHotSpot(evt,'0')" onmouseout="HideHotSpot(evt,'0')" onmousemove="ShowToolTip(evt,'0',&quot;3dp2241562&quot;)" opacity="0"><path style="fill:#00ff00;fill-rule:evenodd" d="M189.03,157.27L189.06,159.41L156.24,139.04L156.23,138.21L156.74,137.91L157.35,137.91zM193.95,160.32L193.66,160.95L193.65,161.64L194.22,162.67L192.54,162.76L192.95,161.42L192.16,161.39L190.57,160.34L190.74,158.29zM193.59,170.50L202.47,170.63L202.73,170.89L202.71,176.68L184.11,176.62L183.81,176.41L183.88,170.73L192.92,170.50L193.10,163.15L193.40,163.15z"/></g><g id="hotspot.1" onmouseover="ShowHotSpot(evt,'1')" onmouseout="HideHotSpot(evt,'1')" onmousemove="ShowToolTip(evt,'1',&quot;3dp2241563&quot;)" opacity="0"><path style="fill:#00ff00;fill-rule:evenodd" d="M93.95,13.76L94.45,14.54L96.54,55.23L99.37,103.67L102.98,169.38L103.75,182.00L104.78,193.60L105.81,201.85L106.36,203.73L105.73,204.68L104.67,204.90L104.27,205.79L103.48,204.18L102.46,196.95L101.43,186.64L100.66,176.33L96.54,106.76L93.19,52.65L91.12,15.04L90.36,14.77L64.23,12.70L64.59,28.95L65.36,46.98L66.39,61.93L75.67,159.33L76.95,168.60L76.96,170.23L75.86,170.68L74.62,170.68L73.86,166.28L72.83,158.55L64.36,74.04L63.73,74.33L63.24,74.38L63.03,73.79L58.31,73.77L58.08,76.37L37.50,76.39L37.19,76.18L37.26,70.50L57.92,70.40L58.18,70.66L58.31,73.10L63.03,73.06L63.25,72.76L64.07,72.86L63.30,62.96L62.01,45.44L61.24,28.43L60.89,11.41L64.07,11.43zM63.71,48.28L64.86,48.26L65.11,52.75L64.06,52.66zM95.89,58.46L96.29,63.82L95.16,63.82L94.99,62.96L94.63,58.32zM70.52,112.02L69.65,112.02L69.74,110.69L70.51,110.60zM70.77,114.83L69.99,115.11L69.91,113.70L70.78,113.70zM71.55,121.26L70.51,121.47L70.42,119.11L71.29,119.11zM72.48,142.34L73.02,142.01L73.34,142.05L73.60,143.10L73.61,144.98L73.28,145.21L72.75,145.26zM101.44,151.93L101.12,152.15L100.32,152.22L100.31,149.52L101.18,149.52zM101.36,172.44L102.48,172.46L102.72,175.56L102.43,175.84L101.61,175.93z"/></g><g id="hotspot.2" onmouseover="ShowHotSpot(evt,'2')" onmouseout="HideHotSpot(evt,'2')" onmousemove="ShowToolTip(evt,'2',&quot;3dp2241564&quot;)" opacity="0"><path style="fill:#00ff00;fill-rule:evenodd" d="M144.98,14.78L146.28,15.02L146.53,24.82L146.53,120.24L146.01,146.53L146.01,178.14L146.25,182.79L146.52,183.52L146.28,184.12L146.02,183.88L145.22,183.86L144.47,182.77L144.15,182.58L143.93,182.02L143.43,173.47L142.61,173.57L142.39,173.27L137.67,173.23L137.44,176.09L116.86,176.11L116.55,175.90L116.62,170.22L137.28,170.12L137.54,170.37L137.67,172.56L142.39,172.54L142.60,171.95L143.20,172.02L143.61,133.04L143.95,110.71L143.69,40.54L143.45,18.89L112.16,16.57L111.74,34.44L111.74,50.08L112.00,65.54L113.54,117.84L114.57,148.51L115.11,157.86L113.72,157.35L113.29,153.14L112.77,143.61L110.45,74.81L109.94,53.43L109.94,27.74L110.36,12.96z"/></g><g id="hotspot.3" onmouseover="ShowHotSpot(evt,'3')" onmouseout="HideHotSpot(evt,'3')" onmousemove="ShowToolTip(evt,'3',&quot;3dp2241566&quot;)" opacity="0"><path style="fill:#00ff00;fill-rule:evenodd" d="M248.83,20.17L248.56,25.16L246.14,53.00L249.60,53.00L249.84,50.40L269.19,50.32L269.20,55.85L268.92,56.34L250.08,56.29L249.77,56.08L249.60,53.67L246.16,53.68L244.44,68.19L242.16,84.67L217.91,78.15L216.35,76.36L210.95,69.91L210.94,67.68L213.95,40.54L217.09,18.95L217.30,18.64L220.99,18.64zM245.21,21.73L246.26,22.00L244.95,39.08L242.64,62.78L240.10,82.87L218.15,77.14L216.63,75.82L211.47,69.38L211.45,68.46L214.73,39.77L217.55,20.17z"/></g><g id="hotspot.4" onmouseover="ShowHotSpot(evt,'4')" onmouseout="HideHotSpot(evt,'4')" onmousemove="ShowToolTip(evt,'4',&quot;3dp2241567&quot;)" opacity="0"><path style="fill:#00ff00;fill-rule:evenodd" d="M196.54,18.38L194.71,62.01L192.91,92.67L192.14,101.46L186.20,99.29L166.87,91.83L166.09,91.32L158.39,80.21L158.38,75.67L159.58,46.47L161.39,20.96L161.89,16.31L165.59,16.32zM175.12,20.16L174.74,20.97L175.10,21.49L175.14,25.69L165.58,25.92L165.51,31.60L165.82,31.81L185.43,31.86L185.71,31.37L185.70,25.84L175.81,25.69L175.83,21.48L176.44,21.21L176.03,20.21L185.95,20.96L193.96,21.73L192.13,66.65L190.34,97.06L190.06,97.83L189.57,97.78L166.89,89.23L160.20,79.43L160.18,74.12L161.39,46.73L163.19,21.73L163.44,19.40L166.37,19.41z"/></g><g id="hotspot.5" onmouseover="ShowHotSpot(evt,'5')" onmouseout="HideHotSpot(evt,'5')" onmousemove="ShowToolTip(evt,'5',&quot;3dp2241568&quot;)" opacity="0"><path style="fill:#00ff00;fill-rule:evenodd" d="M199.87,14.51L199.61,28.26L198.06,60.46L196.00,93.19L195.98,95.70L196.18,96.28L199.36,96.29L199.59,93.69L220.25,93.59L220.51,93.85L220.41,99.56L199.83,99.58L199.52,99.37L199.36,96.96L196.18,96.99L195.99,97.52L195.76,97.51L191.54,143.09L190.36,162.54L190.08,162.82L189.51,162.47L189.02,161.93L189.47,149.54L193.94,97.57L196.00,65.36L197.80,26.97L198.06,16.83L197.03,16.58L161.65,14.78L161.45,15.35L160.87,20.96L159.07,45.44L156.75,108.05L155.79,141.93L155.24,141.61L154.96,141.35L154.77,139.74L154.77,135.45L155.46,109.34L157.61,48.87L158.81,28.95L160.34,12.70z"/></g><g id="hotspot.6" onmouseover="ShowHotSpot(evt,'6')" onmouseout="HideHotSpot(evt,'6')" onmousemove="ShowToolTip(evt,'6',&quot;3dp2242679&quot;)" opacity="0"><path style="fill:#00ff00;fill-rule:evenodd" d="M234.90,136.41L235.70,136.40L235.36,135.61L235.92,135.44L235.95,130.71L226.37,130.50L226.06,130.29L226.13,124.61L246.51,124.53L246.52,130.06L246.24,130.55L236.62,130.71L236.66,135.43L237.01,135.95L236.68,136.48L236.70,137.15L239.52,138.43L239.27,139.32L237.49,138.71L202.35,122.82L202.35,121.95L202.68,121.91z"/></g></g></svg>
