<?xml version="1.0" encoding="UTF-8" standalone="no"?>
<svg xmlns="http://www.w3.org/2000/svg" xmlns:xlink="http://www.w3.org/1999/xlink" width="297.000mm" height="210.000mm" viewBox="0.000000 0.000000 297.000000 210.000000" stroke-linejoin="round" stroke-linecap="round" fill="none" fill-rule="evenodd"><desc>Composer Export</desc><script type="text/ecmascript"><![CDATA[
if(typeof(top) != "undefined")
{
	top.ShowPaper = ShowPaper;
}
function ShowHotSpot(evt,hotspotid)
{
	var svgDocument = evt.target.ownerDocument;
	var strId = "hotspot."+hotspotid;
	var hotspot = svgDocument.getElementById(strId);
	if(hotspot)
		hotspot.setAttribute("opacity",".5");
}
function HideHotSpot(evt,hotspotid)
{
	var svgDocument = evt.target.ownerDocument;
	var strId = "hotspot."+hotspotid;
	var hotspot = svgDocument.getElementById(strId);
	if(hotspot)
		hotspot.setAttribute("opacity","0");

	var toolTip = svgDocument.getElementById('ToolTip');
	if(toolTip)
		toolTip.setAttribute("visibility","hidden");
}
function ShowToolTip(evt,hotspotid,strTooltip)
{
	if(strTooltip=="")
	return;

	// change text
	var svgDocument = evt.target.ownerDocument;
	var tiptext = svgDocument.getElementById('ToolTipText');
	if( !tiptext )
	return;
	tiptext.firstChild.nodeValue = " " + strTooltip + "  " ;

	// show tooltip before, else some refresh issue

	var toolTip = svgDocument.getElementById('ToolTip');
	if(!toolTip)
	return;

	toolTip.setAttribute("visibility","visible");
	toolTip.setAttribute("opacity",".95");

	// move tooltip
	// get viewbox

	var root = svgDocument.documentElement;
	var vbox = (root.getAttribute("viewBox")).split(' ');
	var x0 = parseFloat(vbox[0]);
	var y0 = parseFloat(vbox[1]);
	var vboxW = parseFloat(vbox[2]);
	var vboxH = parseFloat(vbox[3]);

	// get default width of svg

	var strW = root.getAttribute("width");
	var svgW = parseFloat(strW);
	if(strW.indexOf('mm') != -1)
	svgW *= 3.779;

	var strH = root.getAttribute("height");
	var svgH = parseFloat(strH);
	if(strH.indexOf('mm') != -1)
	svgH *= 3.779;  	// 96 dpi  -> 96/25.4 = 3.779

	// update the viewbox / width / height if svg is embedded in html with zoom fit all
	var realx0 = x0;
	var realy0 = y0;
	var realvboxW = vboxW;
	var realvboxH = vboxH;
	var realsvgW = svgW;
	var realsvgH = svgH;

	if ((typeof(top) == "undefined") || (typeof(top.svgctl1) != "undefined")) // embedded in html
	{
		// get window size in pxl

		svgW = window.innerWidth;
		svgH = window.innerHeight;

		// calculate real viewbox

		realsvgW = svgW;
		realsvgH = svgH;
		if((svgW / svgH) > (vboxW / vboxH))
		{
			realvboxW = (vboxH * svgW) / svgH;
			realvboxH = vboxH;
			realx0 = x0 - (realvboxW - vboxW)/2 ;
		}
		else
		{
			realvboxH = (vboxW * svgH) / svgW;
			realvboxW = vboxW;
			realy0 = y0 - (realvboxH - vboxH)/2 ;
		}
	}

	// get user zoom/pan

	var newScale = root.currentScale;
	var translation = root.currentTranslate;

	// transform pxl to user unit

	var xPos = (((evt.clientX+10- translation.x)/newScale) * realvboxW)/realsvgW  + realx0 ;
	var yPos = (((evt.clientY+5- translation.y)/newScale) * realvboxH)/ realsvgH  + realy0 ;
	var scaleForWidth = ( (1 / newScale) * realvboxH) / realsvgH;

	// move tooltip

	toolTip.setAttribute("transform", "translate(" + xPos + "," + yPos + ")" );

	// resize tooltip

	var fontsize = 12;
	tiptext.setAttribute("font-size",fontsize*scaleForWidth);
	tiptext.setAttribute("y", fontsize*scaleForWidth);
	var tipBG = svgDocument.getElementById('ToolTipBG');
	var outline = tiptext.getBBox();
	if(tipBG)
	{
		tipBG.setAttribute("stroke-width", 1*scaleForWidth);
		tipBG.setAttribute("width", Number(outline.width) );
		tipBG.setAttribute("height", Number(outline.height) + fontsize*.5*scaleForWidth );
	}
	var ToolTipShadow = svgDocument.getElementById('ToolTipShadow');
	if(ToolTipShadow)
	{
		ToolTipShadow.setAttribute("width", Number(outline.width) );
		ToolTipShadow.setAttribute("height", Number(outline.height) + fontsize*.5*scaleForWidth );
		ToolTipShadow.setAttribute("x", 3*scaleForWidth);
		ToolTipShadow.setAttribute("y", 3*scaleForWidth);
	}
}
function ShowPaper()
{
  var svgDocument = getDocument();
  var paper = svgDocument.getElementById("paperID");
  if(paper)
  {
    paper.setAttribute("transform","scale(1)");
    paper.setAttribute("opacity","1");
    paper.setAttribute("visibility","visible");
  }
  var svg = svgDocument.getRootElement();
  if(svg)
  {
    svg.setAttribute("width","307.000mm");
    svg.setAttribute("height","220.000mm");
    svg.setAttribute("viewBox","-5.000000 -5.000000 307.000000 220.000000");
  }
}
]]></script><defs/><g><g id="Actor_.0"><g style="stroke:#000000;stroke-width:0.123"><path d="M154.51,128.15L154.47,126.69L154.47,126.78L154.46,126.86L154.43,126.95L154.40,127.03L154.35,127.10L154.30,127.18L154.24,127.25L154.17,127.32L154.09,127.38L154.00,127.44L153.91,127.49L153.81,127.53L153.71,127.57L153.60,127.60L153.49,127.62L153.38,127.64L153.27,127.64L153.15,127.64L153.04,127.63L152.93,127.62L152.82,127.59L152.71,127.56L152.61,127.52L152.52,127.48L152.43,127.43L152.35,127.37L152.27,127.31L152.21,127.24L152.15,127.17L152.10,127.09L152.06,127.01L152.04,126.93L152.02,126.85L152.01,126.76L152.06,128.23"/><path d="M154.47,126.69L154.46,126.61L154.45,126.53L154.42,126.45L154.38,126.37L154.33,126.29L154.27,126.22L154.21,126.15L154.13,126.09L154.05,126.03L153.96,125.98L153.87,125.93L153.77,125.90L153.66,125.87L153.55,125.84L153.44,125.83L153.33,125.82L153.22,125.82L153.10,125.82L152.99,125.84L152.88,125.86L152.77,125.89L152.67,125.93L152.57,125.97L152.48,126.02L152.40,126.08L152.32,126.14L152.25,126.21L152.18,126.28L152.13,126.35L152.09,126.43L152.05,126.51L152.03,126.59L152.01,126.68L152.01,126.76"/></g></g><g id="Actor_.1"><g style="stroke:#000000;stroke-width:0.123"><path d="M121.57,164.05L119.50,166.76L119.47,167.95L119.22,168.23L117.74,167.48L117.66,166.36L118.09,165.52L117.55,165.36L122.19,159.94"/><path d="M117.47,165.40L117.63,167.43"/><path d="M117.95,165.71L117.83,165.67L117.80,165.97"/><path d="M119.22,168.23L119.15,167.29L119.38,166.62L121.02,164.64L122.41,162.53"/><path d="M123.33,170.32L123.53,170.08L123.51,169.14L123.73,168.48L123.29,169.22L123.33,170.32L121.80,169.54L121.75,168.48L122.12,167.69L123.52,166.05L124.41,164.53L125.27,163.49L125.45,162.95L125.23,162.31"/><path d="M123.72,168.38L124.44,169.01L124.58,170.57"/><path d="M123.75,168.65L124.11,168.92L124.39,170.85"/><path d="M132.56,147.95L125.08,156.60"/><path d="M127.89,167.11L140.17,152.66"/><path d="M184.82,87.50L171.89,102.46L165.61,110.64L148.93,129.96"/><path d="M152.48,139.05L172.27,115.78L178.55,107.50L192.14,91.50"/><path d="M153.31,131.02L154.13,130.79"/><path d="M166.86,115.67L166.54,116.34L165.60,116.62L164.80,116.35L164.47,115.68"/><path d="M164.46,115.73L164.45,113.60L164.73,113.16L165.28,112.89L166.06,112.90L166.70,113.31L166.85,113.77L166.40,114.41L165.68,114.61L164.78,114.34L164.44,113.76"/><path d="M165.07,114.21L165.52,114.36L166.12,114.25L166.49,113.88L166.47,113.52L165.96,113.14L165.13,113.22L164.77,113.76L165.07,114.21"/><path d="M166.87,115.72L166.85,113.69"/><path d="M166.51,113.70L166.51,113.71"/></g></g><g id="Actor_.2"><g style="stroke:#000000;stroke-width:0.123"><path d="M117.10,149.82L117.20,150.03L117.55,150.51L117.95,150.99L118.16,151.19L118.09,151.02L117.76,150.56L117.38,150.09L117.11,149.82L118.45,148.79L118.94,148.49L119.33,148.29"/><path d="M118.17,151.19L119.10,150.46"/><path d="M120.53,149.79L120.63,149.79"/><path d="M120.50,149.79L120.55,149.79"/><path d="M123.56,165.99L123.14,165.94L122.81,165.86L122.50,165.74L122.15,165.56L121.82,165.33L121.61,165.12L121.43,164.88L121.27,164.58"/><path d="M123.40,166.19L122.99,166.12L122.67,166.02L122.36,165.89L121.96,165.64L121.73,165.44L121.53,165.22L121.37,164.98L121.23,164.65"/><path d="M121.17,149.91L120.94,149.83L120.70,149.79L120.73,149.79"/><path d="M121.08,149.88L121.10,149.89L121.08,149.88"/><path d="M120.72,149.79L120.63,149.79"/><path d="M120.81,149.80L120.81,149.80"/><path d="M120.87,149.81L120.88,149.81"/><path d="M121.17,149.91L121.20,149.92"/><path d="M121.19,149.92L121.32,150.02"/><path d="M121.44,150.18L121.31,150.01"/><path d="M122.42,159.03L121.63,157.78L121.53,156.68L122.33,157.93L124.15,157.96L125.18,156.76L125.26,157.86L124.24,159.07L122.42,159.03L122.33,157.93"/><path d="M124.91,158.27L125.28,163.16L125.23,163.35L125.14,163.53L124.85,163.85L124.45,164.08L123.97,164.19L123.48,164.16L123.04,164.01L122.70,163.75L122.58,163.58L122.50,163.41L122.46,163.21L122.06,158.47"/><path d="M121.53,156.68L122.40,155.67"/><path d="M124.21,156.62L124.19,156.86L124.06,157.08L123.84,157.26L123.55,157.36L123.24,157.39L122.95,157.33L122.71,157.19L122.53,156.96L122.49,156.79L122.04,151.43"/><path d="M121.92,150.99L122.01,151.28"/><path d="M121.92,151.00L121.81,150.75"/><path d="M122.04,151.44L122.00,151.25"/><path d="M122.05,151.53L122.06,151.59L122.06,151.56"/><path d="M121.49,150.23L121.45,150.19"/><path d="M121.49,150.24L121.81,150.75"/><path d="M121.96,148.38L122.04,148.43"/><path d="M122.05,148.44L122.22,148.57"/><path d="M122.08,148.46L122.10,148.48L122.07,148.45"/><path d="M122.30,165.85L122.77,166.64L122.72,166.03"/><path d="M122.77,166.64L123.01,166.65"/><path d="M122.49,156.79L122.49,156.76"/><path d="M122.69,148.95L122.70,148.97L122.51,148.80"/><path d="M122.69,148.95L123.01,149.34L123.32,149.86L123.55,150.37L123.73,150.98L123.79,151.40L124.21,156.62"/><path d="M122.53,148.82L122.39,148.70L122.41,148.72"/><path d="M122.30,148.64L122.28,148.62L122.41,148.71"/><path d="M122.18,148.54L122.31,148.64"/><path d="M122.15,148.52L122.16,148.52"/><path d="M122.17,148.53L122.18,148.54"/><path d="M122.17,148.53L122.17,148.53"/><path d="M124.24,159.07L124.15,157.96"/><path d="M125.18,156.76L124.38,155.52L124.12,155.51"/></g></g><g id="Actor_.3"><g style="stroke:#000000;stroke-width:0.123"><path d="M119.53,151.63L119.97,151.90L120.12,151.96L120.30,151.98L120.60,151.93L120.82,151.85L121.17,151.66L121.53,151.39L121.93,151.03"/><path d="M119.97,151.90L119.83,151.80L119.76,151.71L119.68,151.58L119.62,151.39L119.58,151.17L119.48,150.06L119.49,149.69L119.52,149.42L119.59,149.13L119.73,148.68L119.93,148.21L122.58,142.72L122.86,142.27L123.17,141.84L123.50,141.46L123.90,141.09L124.16,144.41"/><path d="M119.53,151.62L119.34,151.46L119.24,151.30L119.18,151.11L119.14,150.89L119.04,149.67L119.05,149.42L119.11,149.00L119.19,148.70L119.35,148.24L121.98,142.76L122.32,142.14L122.52,141.85L122.84,141.43L123.17,141.07L123.45,140.81L123.90,141.09"/><path d="M121.04,148.23L120.78,148.68L120.58,149.17L120.53,149.40L120.50,149.62L120.51,149.90L120.55,150.06L120.63,150.17L120.79,150.28L120.92,150.31L121.07,150.29L121.24,150.23L121.41,150.14"/><path d="M121.00,149.85L120.80,149.96L120.54,150.03"/><path d="M122.16,148.36L122.11,148.48"/><path d="M122.71,148.31L122.52,148.81"/><path d="M124.09,148.18L123.93,148.55L123.69,149.03L123.49,149.34L123.24,149.70"/></g></g><g id="Actor_.4"><g style="stroke:#000000;stroke-width:0.123"><path d="M211.31,77.77L211.14,80.21L210.89,80.61L209.83,81.61L192.89,90.76L192.41,90.91L192.26,90.90L191.61,90.57L174.51,81.30L174.28,81.78L192.00,91.39L192.15,91.40L192.73,91.23L209.81,82.00L211.02,80.84L211.33,80.30L211.50,79.76"/><path d="M184.03,66.60L183.01,67.50L174.81,81.02L174.50,81.30"/><path d="M183.61,69.67L183.99,69.96L184.59,70.20L185.28,70.28L185.96,70.19L186.45,70.01L186.91,69.65L187.16,69.21L187.17,68.74L186.87,68.21L186.27,67.81L185.34,67.61L184.52,67.69L183.83,68.01L183.39,68.49L183.30,68.76L183.31,69.14L183.61,69.67"/><path d="M183.30,69.11L183.50,68.70L183.93,68.33L184.52,68.08L185.20,67.99L185.88,68.07L186.49,68.31L186.93,68.67L187.17,69.17"/><path d="M183.88,83.37L184.09,82.91L184.48,82.47L194.92,73.00L195.51,72.59L195.65,72.30L195.73,69.63"/><path d="M184.40,64.35L184.41,63.72"/><path d="M185.51,64.96L185.56,65.03L185.87,65.01L186.13,65.15L186.37,65.39L186.52,65.68L186.53,65.99L186.40,66.15L186.18,66.17L185.88,66.04"/><path d="M185.86,65.63L185.96,65.55"/><path d="M185.42,64.86L185.37,64.82"/><path d="M185.25,64.72L185.23,64.71"/><path d="M187.50,66.32L187.56,66.17L187.74,66.07L187.99,66.10L188.26,66.26L188.49,66.50L188.63,66.78L188.66,66.99L188.59,67.19L188.30,67.29L187.90,67.11L187.59,66.72L187.50,66.32"/><path d="M189.52,66.39L189.46,66.92L189.57,67.42L189.79,67.94L190.22,68.56L191.01,69.26L192.55,70.08"/><path d="M192.00,91.39L192.22,90.90"/><path d="M192.38,91.37L192.47,91.42L192.47,91.34"/><path d="M192.61,91.29L192.47,91.42"/><path d="M194.68,69.09L194.64,71.17L193.81,70.74"/><path d="M195.52,72.58L195.51,72.59"/><path d="M195.64,72.31L195.64,72.31"/><path d="M198.95,73.92L199.05,71.36"/><path d="M203.84,75.99L202.24,75.14L201.44,74.44L201.01,73.81L200.79,73.29L200.68,72.67L200.75,72.25"/><path d="M208.79,79.73L209.08,80.23L209.07,80.82L208.79,81.26L208.19,81.66L207.53,81.83L206.67,81.80L206.02,81.59L205.43,81.15L205.17,80.69L205.13,80.30L205.26,79.92L205.54,79.58L205.95,79.32L206.59,79.12L207.15,79.08L207.75,79.16"/><path d="M209.09,80.75L208.87,80.24L208.44,79.85L207.83,79.57L207.13,79.47L206.43,79.53L205.82,79.76L205.37,80.13L205.14,80.56"/><path d="M206.46,76.69L206.44,76.42L206.58,76.20L206.81,76.15L207.33,76.24L207.58,76.37L207.84,76.62L207.99,76.91L207.99,77.22L207.87,77.36L207.51,77.48L207.19,77.46L206.70,77.13L206.46,76.69"/><path d="M206.01,75.67L206.01,75.00"/><path d="M208.38,79.79L207.99,79.54L207.76,79.20L207.72,78.87L207.87,78.67L208.11,78.65L208.38,78.76L208.63,78.98L208.81,79.26L208.86,79.53L208.78,79.74L208.59,79.82L208.38,79.79"/><path d="M208.30,77.59L209.40,78.12L209.93,79.25L209.38,79.84L210.53,78.70L209.99,77.57L208.90,77.04L207.75,78.18L207.94,78.58"/><path d="M208.34,78.22L207.79,78.73"/><path d="M208.34,78.21L208.60,78.12L208.94,78.24L209.24,78.53L209.39,78.82L209.37,79.18L208.78,79.74"/><path d="M207.65,77.40L207.96,77.11"/><path d="M209.38,79.84L208.91,79.61"/><path d="M209.93,79.25L210.53,78.70"/><path d="M209.40,78.12L209.99,77.57"/></g></g><g id="Actor_.5"><g style="stroke:#000000;stroke-width:0.123"><path d="M119.74,147.41L119.67,147.37L118.12,142.73L118.09,142.35L118.80,141.69L118.86,141.51L118.83,141.25L118.67,140.90L118.47,140.62L116.54,137.44L116.28,134.56L119.47,136.52L120.11,138.46L120.27,138.73L120.51,138.98L125.46,142.05L125.77,142.16L125.90,142.13L125.95,142.07L126.34,140.76L129.58,142.76L129.78,145.64L130.16,145.29L129.97,142.41L129.58,142.76"/><path d="M116.28,134.56L116.67,134.21L119.85,136.18L120.49,138.11L120.61,138.32L120.83,138.58L121.03,138.73L125.84,141.70L126.04,141.80"/><path d="M118.09,142.35L119.64,146.99L119.67,147.37"/><path d="M119.64,146.99L119.87,147.13"/><path d="M119.47,136.52L119.85,136.18"/><path d="M121.34,148.05L126.49,147.58L126.52,147.96L121.37,148.43L121.34,148.05L120.78,147.70L120.82,148.08L121.37,148.43"/><path d="M120.78,147.70L123.89,144.86L124.07,144.61L124.17,144.35L124.18,143.99L124.12,143.95"/><path d="M126.52,147.96L127.41,147.15L128.03,146.64"/><path d="M126.49,147.58L127.30,146.86L127.71,146.69L128.15,146.64L129.78,145.64"/><path d="M126.34,140.76L126.72,140.41L129.97,142.41"/></g></g><g id="Actor_.6"><g style="stroke:#000000;stroke-width:0.123"><path d="M195.42,89.77L195.40,89.87L195.39,89.95L195.36,90.02L195.33,90.10L195.30,90.17L195.27,90.24L195.23,90.31L195.19,90.38L195.15,90.44L195.11,90.50L195.07,90.54L195.03,90.59L194.99,90.62L194.95,90.64L194.92,90.66L194.89,90.66L194.86,90.66L194.83,90.65L194.81,90.62L194.80,90.59L194.79,90.55L194.78,90.51L194.78,90.45L194.78,90.39L194.79,90.33L194.81,90.26L194.83,90.18L194.87,90.07"/><path d="M194.86,90.66L194.41,90.46"/><path d="M194.40,90.46L194.26,90.40"/></g></g><g id="Actor_.7"><g style="stroke:#000000;stroke-width:0.123"><path d="M184.11,88.32L184.06,88.29L184.01,88.22L183.96,88.06L183.97,87.04"/><path d="M184.51,87.87L184.52,87.33"/><path d="M194.44,90.48L193.26,91.87L193.10,92.01L193.00,92.07L192.86,92.08L192.24,91.81L192.19,91.74L192.15,91.64L192.14,91.40"/><path d="M192.83,92.07L192.74,91.98L192.70,91.81L192.70,91.24"/></g></g><g id="Actor_.8"><g style="stroke:#000000;stroke-width:0.123"><path d="M117.69,167.35L117.24,167.88L116.92,168.35L111.56,177.61L111.21,178.37L111.06,178.98L111.03,179.41L111.06,179.98L111.19,180.59L111.43,181.16L111.75,181.67L112.17,182.15L112.64,182.57"/><path d="M112.40,180.49L112.22,179.94L112.23,179.99"/><path d="M112.38,180.46L112.77,181.09"/><path d="M112.18,179.42L112.22,179.94"/><path d="M112.26,178.87L112.18,179.44"/><path d="M112.48,178.31L112.27,178.85"/><path d="M112.48,178.33L117.89,168.95L118.15,168.58L118.68,167.95"/><path d="M112.85,182.71L117.94,185.54L118.57,185.80L119.48,186.04L119.96,186.10L120.67,186.13L121.39,186.08L122.09,185.95L122.76,185.74L123.42,185.45L124.01,185.10L124.37,184.83L125.01,184.19L125.51,183.46L125.83,182.67L125.96,181.84L125.95,181.26L124.96,173.11L124.95,172.63"/><path d="M112.84,182.71L112.65,182.57"/><path d="M113.33,181.63L113.77,181.90L118.46,184.49L118.96,184.69L119.51,184.85"/><path d="M112.77,181.08L113.36,181.64"/><path d="M119.46,186.03L119.24,185.99"/><path d="M122.38,184.64L121.82,184.81L121.05,184.94L120.26,184.95L119.50,184.85"/><path d="M119.39,167.12L120.88,165.40L120.91,165.29L120.87,165.13"/><path d="M123.91,183.68L123.20,184.23L122.37,184.64"/><path d="M124.49,182.90L124.22,183.32L123.89,183.69"/><path d="M124.48,182.93L124.72,182.35"/><path d="M125.26,171.62L125.62,171.11L128.39,167.84L128.42,167.72L128.34,167.50L128.02,167.18L127.71,167.06L127.61,167.06L127.51,167.12L124.61,170.54L124.16,171.26L123.89,172.04L123.80,172.61L123.82,173.23L124.81,181.73"/><path d="M124.81,181.67L124.81,181.64L124.71,182.36"/><path d="M124.81,181.82L124.81,181.73"/><path d="M125.05,172.12L124.95,172.69"/><path d="M125.27,171.60L125.04,172.16"/></g></g><g id="Actor_.9"><g style="stroke:#000000;stroke-width:0.123"><path d="M152.89,129.75L151.28,128.74L151.32,130.11L152.93,131.12L154.94,130.57L155.33,129.01L155.29,127.65L154.90,129.21L152.89,129.75L152.93,131.12"/><path d="M151.28,128.74L151.68,127.18L152.02,127.09"/><path d="M152.56,128.94L152.40,128.84"/><path d="M152.38,128.83L152.40,128.84"/><path d="M152.38,128.82L152.33,128.78"/><path d="M152.26,128.71L152.31,128.76"/><path d="M152.25,128.70L152.14,128.54"/><path d="M152.26,128.71L152.25,128.70"/><path d="M152.33,128.78L152.31,128.76"/><path d="M152.14,128.54L152.13,128.51"/><path d="M152.09,128.41L152.11,128.46"/><path d="M152.12,128.50L152.11,128.47"/><path d="M152.07,128.31L152.09,128.41"/><path d="M152.07,128.31L152.06,128.23"/><path d="M153.31,129.11L153.20,129.11"/><path d="M153.09,129.10L153.18,129.10"/><path d="M153.20,129.11L153.18,129.10"/><path d="M153.07,129.10L152.99,129.08"/><path d="M153.09,129.10L153.07,129.10"/><path d="M152.96,129.08L152.88,129.06"/><path d="M152.99,129.08L152.97,129.08"/><path d="M152.67,128.99L152.88,129.06"/><path d="M152.62,128.97L152.58,128.95"/><path d="M152.56,128.94L152.58,128.95"/><path d="M152.67,128.99L152.63,128.98"/><path d="M153.87,128.99L154.00,128.92L154.12,128.85"/><path d="M153.85,129.00L153.77,129.03"/><path d="M153.85,129.00L153.86,128.99"/><path d="M153.75,129.03L153.77,129.03"/><path d="M153.75,129.03L153.55,129.08"/><path d="M153.49,129.09L153.44,129.10"/><path d="M153.33,129.11L153.41,129.10"/><path d="M153.50,129.09L153.54,129.08"/><path d="M153.44,129.10L153.42,129.10"/><path d="M153.31,129.11L153.33,129.11"/><path d="M154.35,128.63L154.39,128.58"/><path d="M154.34,128.65L154.28,128.71"/><path d="M154.28,128.71L154.22,128.77"/><path d="M154.22,128.78L154.19,128.80"/><path d="M154.19,128.80L154.15,128.83"/><path d="M154.12,128.85L154.15,128.83"/><path d="M154.39,128.57L154.43,128.50"/><path d="M154.34,128.64L154.35,128.63"/><path d="M154.51,128.14L154.51,128.15"/><path d="M154.51,128.23L154.51,128.17"/><path d="M154.50,128.31L154.51,128.25"/><path d="M154.51,128.25L154.51,128.23"/><path d="M154.47,128.42L154.50,128.33"/><path d="M154.50,128.33L154.50,128.31"/><path d="M154.47,128.42L154.44,128.48"/><path d="M154.44,128.50L154.44,128.48"/><path d="M154.51,128.15L154.51,128.15"/><path d="M155.29,127.65L154.48,127.14"/><path d="M154.94,130.57L154.90,129.21"/></g></g><g id="Actor_.10"><g style="stroke:#000000;stroke-width:0.123"><path d="M117.09,138.15L117.16,138.26L117.25,138.37L117.34,138.47L117.44,138.56L117.55,138.65L117.65,138.72L117.75,138.79L117.85,138.84"/><path d="M117.36,138.37L117.24,138.22L117.14,138.07L117.06,137.92L117.03,137.83L117.01,137.76L117.00,137.70L117.00,137.62L117.00,137.57L117.02,137.52L117.04,137.48L117.07,137.45L117.11,137.42L117.17,137.41L117.24,137.40L117.31,137.41L117.40,137.43L117.51,137.48L117.60,137.54L117.70,137.61L117.81,137.70L117.90,137.79L118.00,137.91L118.07,138.01L118.13,138.11L118.18,138.21L118.22,138.30L118.25,138.42L118.26,138.50L118.25,138.59L118.24,138.63L118.21,138.67L118.19,138.71L118.15,138.73L118.09,138.75L118.04,138.75L117.92,138.74L117.79,138.69L117.65,138.61L117.51,138.51L117.36,138.37"/><path d="M117.09,138.15L117.03,138.06"/><path d="M117.85,138.84L117.95,138.87L118.09,138.91L118.21,138.94L118.37,138.96L118.37,138.85L118.39,138.71L118.44,138.54L118.53,138.34L118.41,138.24L118.31,138.14L118.19,138.01L118.11,137.91L118.04,137.80L117.97,137.68L117.90,137.54L117.84,137.40L117.70,137.38L117.57,137.36L117.36,137.30L117.26,137.26L117.18,137.21L117.08,137.15L117.01,137.09L116.94,137.25L116.89,137.39L116.86,137.51L116.85,137.62L116.86,137.71L116.93,137.88L117.02,138.04"/><path d="M117.02,138.05L117.03,138.06L117.02,138.04"/><path d="M117.03,138.07L116.96,137.93L116.92,137.83L116.88,137.70L116.86,137.58L116.87,137.48L116.89,137.41L116.93,137.34L116.99,137.29L117.06,137.26L117.15,137.26L117.24,137.26L117.35,137.30L117.45,137.34L117.58,137.41L117.71,137.51L117.84,137.61L117.94,137.71L118.05,137.84L118.15,137.97L118.24,138.11L118.31,138.25L118.35,138.36L118.39,138.48L118.40,138.60L118.39,138.68L118.36,138.76L118.33,138.82L118.26,138.87L118.18,138.89L118.10,138.90L118.00,138.88L117.88,138.85"/><path d="M118.10,138.05L118.14,138.13L118.16,138.21L118.18,138.28L118.18,138.35L118.17,138.39L118.15,138.44L118.11,138.48L118.06,138.50L118.00,138.50L117.94,138.49L117.87,138.47L117.79,138.43L117.71,138.38L117.63,138.32L117.49,138.19L117.43,138.11L117.37,138.03L117.32,137.94L117.28,137.86L117.26,137.78L117.24,137.70L117.25,137.64L117.26,137.60L117.29,137.55L117.32,137.52L117.37,137.51L117.42,137.50L117.49,137.51L117.56,137.53L117.64,137.57L117.71,137.62"/><path d="M117.02,138.04L117.01,138.02"/><path d="M119.42,138.27L119.19,138.48L119.23,138.42L119.27,138.34L119.29,138.25L119.29,138.14L119.28,138.02L119.25,137.90L119.20,137.76L119.14,137.63L119.07,137.50L118.97,137.35L118.88,137.22L118.78,137.10L118.64,136.96L118.53,136.85L118.42,136.75L118.27,136.64L118.06,136.52L117.97,136.48L117.86,136.44L117.76,136.42L117.68,136.41L117.61,136.41L117.55,136.41L117.49,136.43L117.42,136.46L117.38,136.50L117.33,136.55L117.30,136.61L117.28,136.68L117.27,136.75L117.27,136.85"/><path d="M117.01,137.09L117.53,136.61L117.65,136.70L117.73,136.75L117.82,136.79L117.91,136.83L118.13,136.89L118.37,136.92L118.45,137.10L118.51,137.23L118.64,137.43L118.73,137.55L118.82,137.64L118.93,137.75L119.05,137.86L118.97,138.06L118.92,138.22L118.90,138.35L118.90,138.41L118.90,138.48L118.37,138.96"/><path d="M117.89,138.85L117.75,138.79L117.61,138.70"/><path d="M117.61,138.70L117.61,138.69"/><path d="M117.62,138.70L117.63,138.71L117.61,138.69"/><path d="M117.58,138.67L117.60,138.69"/><path d="M117.84,137.40L118.37,136.92"/><path d="M117.78,136.21L117.81,136.24L117.86,136.21"/><path d="M117.92,136.21L117.95,136.26L118.01,136.23"/><path d="M117.95,136.26L117.92,136.21"/><path d="M117.38,136.50L117.63,136.27"/><path d="M117.67,136.25L117.69,136.26L117.73,136.22"/><path d="M118.17,136.28L118.12,136.30L118.07,136.24"/><path d="M117.38,136.50L117.38,136.50"/><path d="M117.95,136.25L117.95,136.25"/><path d="M119.18,138.48L119.12,138.53L119.03,138.56L118.93,138.57L118.81,138.56"/><path d="M118.53,138.34L119.06,137.86"/><path d="M118.93,136.82L118.97,136.94L119.02,136.93"/><path d="M118.59,136.52L118.64,136.62L118.69,136.60"/><path d="M118.86,136.76L118.81,136.77L118.76,136.66"/><path d="M118.24,136.31L118.28,136.38L118.34,136.36"/><path d="M118.41,136.40L118.46,136.49L118.52,136.47"/><path d="M119.48,138.17L119.42,138.26L119.45,138.23"/><path d="M119.51,138.05L119.46,138.15L119.49,138.13"/><path d="M119.37,138.32L119.37,138.32"/><path d="M119.42,137.56L119.42,137.68L119.46,137.67"/><path d="M119.48,137.74L119.46,137.86L119.50,137.84"/><path d="M119.51,137.91L119.48,138.01L119.51,138.00"/><path d="M119.33,137.38L119.34,137.50L119.39,137.49"/><path d="M119.08,137.00L119.11,137.12L119.16,137.11"/><path d="M119.29,137.30L119.24,137.31L119.21,137.19"/></g></g><g id="Actor_.11"><g style="stroke:#000000;stroke-width:0.123"><path d="M125.97,143.74L125.98,143.81L126.00,143.88L126.03,143.97L126.08,144.05L126.13,144.13L126.20,144.21L126.25,144.27L126.33,144.34L126.40,144.40L126.48,144.45L126.56,144.49L126.63,144.51L126.70,144.52L126.73,144.52L126.75,144.51L126.78,144.50L126.80,144.49L126.83,144.46L126.85,144.43L126.86,144.41L126.86,144.36L126.86,144.33L126.86,144.30L126.85,144.24L126.84,144.21L126.82,144.14L126.79,144.08L126.76,144.04L126.69,143.94L126.61,143.84L126.51,143.75L126.41,143.68L126.32,143.62L126.28,143.60L126.22,143.59L126.17,143.57L126.14,143.57L126.10,143.57L126.07,143.58L126.04,143.60L126.02,143.61L126.00,143.64L125.98,143.67L125.97,143.71L125.97,143.74"/><path d="M125.97,143.77L125.96,143.62L125.96,143.55L125.97,143.52L125.99,143.48L126.00,143.46L126.02,143.44L126.04,143.42L126.08,143.40L126.11,143.39L126.15,143.39L126.19,143.39L126.23,143.40L126.27,143.41L126.33,143.43L126.42,143.47L126.48,143.51L126.57,143.57L126.65,143.64L126.74,143.72L126.80,143.79L126.86,143.88L126.91,143.95L126.96,144.04L127.01,144.13L127.03,144.21L127.04,144.28L127.05,144.35L127.04,144.38L127.04,144.41L127.03,144.44L127.01,144.47L126.99,144.50L127.23,144.27"/><path d="M126.02,143.44L126.27,143.21"/><path d="M126.79,144.54L126.77,144.53"/><path d="M126.78,144.54L126.65,144.51"/><path d="M126.79,144.54L126.85,144.54L126.90,144.54L126.94,144.53L126.96,144.51L126.99,144.50"/></g></g><g id="Actor_.12"><g style="stroke:#000000;stroke-width:0.123"><path d="M86.54,156.66L86.66,156.72L86.79,156.75L86.96,156.78L87.17,156.78L87.16,156.97L87.17,157.16L87.20,157.29L87.25,157.42L87.14,157.25L86.94,157.00L86.71,156.78L86.49,156.62L86.41,156.53L86.34,156.39L86.29,156.20L85.99,156.50L85.90,156.60L85.88,156.69L85.88,156.82L85.91,156.96L85.97,157.12L86.14,157.40L86.26,157.57L86.41,157.73L86.57,157.87L86.73,157.99"/><path d="M86.54,156.66L86.31,156.54L86.23,156.51L86.11,156.49L86.01,156.51L85.97,156.53L85.90,156.60L85.89,156.64"/><path d="M86.73,157.99L86.89,158.08L87.02,158.13L87.10,158.15L87.22,158.15L87.27,158.14L87.34,158.09L87.39,158.01L87.40,157.95L87.40,157.83L87.34,157.61L87.25,157.42"/><path d="M86.29,156.20L86.81,155.75L87.02,155.96L87.18,156.09L87.44,156.22L87.69,156.32L87.17,156.78"/><path d="M88.59,157.39L88.60,157.41L88.56,157.47L88.51,157.53L88.40,157.62L88.43,157.57L88.46,157.45L88.46,157.38L88.44,157.22L88.38,157.03L88.24,156.75L88.05,156.45L87.80,156.16L87.53,155.91L87.26,155.70L87.08,155.60L86.91,155.54L86.83,155.52L86.72,155.51L86.62,155.51L86.57,155.53L86.48,155.59L86.42,155.68L86.40,155.74L86.39,155.87L86.42,156.09"/><path d="M88.48,156.82L88.54,156.84L88.48,156.86L88.47,156.69L88.46,156.66L88.39,156.68L88.37,156.50L88.35,156.48L88.28,156.49L88.24,156.32L88.22,156.29L88.15,156.31L88.10,156.14L88.08,156.11L88.00,156.13L87.94,155.96L87.92,155.94L87.84,155.96L87.78,155.81L87.75,155.78L87.67,155.81L87.61,155.67L87.58,155.65L87.50,155.67L87.44,155.55L87.41,155.53L87.33,155.56L87.27,155.46L87.25,155.44L87.17,155.48L87.11,155.39L87.09,155.38L87.02,155.42L86.97,155.36L86.95,155.35L86.88,155.40L86.84,155.35L86.82,155.35L86.76,155.40L86.74,155.38L86.72,155.38L86.48,155.59"/><path d="M87.22,158.15L87.31,158.14L87.34,158.09"/><path d="M87.31,158.14L87.37,158.10L87.87,157.65L87.98,157.52L88.22,157.27L87.71,157.73L87.56,157.68L87.44,157.62L87.35,157.55L87.26,157.44"/><path d="M87.71,157.73L87.34,158.09"/><path d="M87.69,156.32L87.76,156.57L87.89,156.85L88.06,157.09L88.22,157.27"/><path d="M87.47,155.61L89.51,153.79L89.58,153.76L89.68,153.76L89.85,153.78L89.95,153.83L90.07,153.90L90.25,154.05L90.40,154.24L90.47,154.37L90.51,154.49L90.53,154.71L90.51,154.58L90.45,154.45L90.37,154.30L90.22,154.11L90.07,153.97L89.93,153.87L89.80,153.79L89.68,153.76"/><path d="M88.42,157.60L88.32,157.70L88.22,157.74L88.09,157.74L88.01,157.73L87.84,157.68"/><path d="M88.54,156.84L88.55,156.86L88.54,157.03L88.60,157.01L88.60,157.03L88.57,157.19L88.63,157.16L88.63,157.18L88.58,157.33L88.63,157.30L88.60,157.27"/><path d="M88.51,157.53L88.55,157.50L88.37,157.66"/><path d="M88.55,157.50L88.55,157.49"/><path d="M88.45,157.51L88.45,157.52L88.56,157.44L88.63,157.30"/><path d="M88.56,157.44L88.60,157.41"/><path d="M88.46,156.66L88.39,156.65"/><path d="M88.60,157.01L88.54,156.98"/><path d="M88.59,157.14L88.63,157.16"/><path d="M90.53,154.71L90.52,154.81L90.48,154.87L88.46,156.67"/><path d="M88.35,156.48L88.28,156.48"/></g></g><g id="Actor_.13"><g style="stroke:#000000;stroke-width:0.123"><path d="M133.97,147.24L134.35,146.88L134.39,147.02L134.46,147.15L134.53,147.25L134.63,147.32L134.75,147.38L134.89,147.42L135.06,147.44L135.26,147.44L135.25,147.63L135.26,147.82L135.28,147.95L135.33,148.08L135.23,147.91L135.10,147.74L134.95,147.58L134.80,147.44L134.71,147.38L134.55,147.28L134.39,147.21L134.24,147.17L134.17,147.17L134.11,147.17L134.06,147.19L134.01,147.21L133.97,147.24L133.94,147.28L133.91,147.32L133.90,147.37L133.88,147.43L133.88,147.50L133.91,147.65L133.96,147.80L134.01,147.91"/><path d="M135.33,148.08L135.38,148.18L135.43,148.34L135.46,148.49L135.46,148.55L135.45,148.61L135.43,148.67L135.40,148.71L135.37,148.75L135.33,148.78L135.28,148.80L135.23,148.82L135.17,148.82L135.10,148.82L134.95,148.78L134.79,148.71L134.63,148.61L134.51,148.52L134.39,148.41L134.24,148.25L134.11,148.08L134.01,147.91"/><path d="M133.89,147.38L133.91,147.29L133.97,147.24"/><path d="M134.71,148.66L134.71,148.66"/><path d="M134.45,146.79L134.35,146.88"/><path d="M134.85,146.21L134.94,146.22L135.03,146.25L135.12,146.29L135.31,146.38L135.50,146.51L135.59,146.58L135.79,146.76"/><path d="M134.34,146.59L134.35,146.50L134.37,146.44L134.39,146.38L134.43,146.33L134.47,146.28L134.52,146.25L134.57,146.22L134.64,146.20L134.70,146.20L134.76,146.20"/><path d="M134.71,146.08L134.65,146.13L134.63,146.13L134.60,146.16"/><path d="M134.63,146.13L134.47,146.28"/><path d="M134.71,146.08L134.73,146.07L134.76,146.09L134.83,146.05L134.85,146.04L134.89,146.08"/><path d="M135.28,146.13L135.21,146.17L135.14,146.08L135.12,146.07L135.05,146.11L134.99,146.05L134.96,146.05L134.93,146.07"/><path d="M135.44,148.68L135.32,148.80L135.59,148.55L135.32,148.80L135.23,148.82"/><path d="M135.32,148.80L135.62,148.52L135.59,148.55"/><path d="M135.44,148.69L135.45,148.68"/><path d="M135.67,148.47L135.62,148.52L135.73,148.42L135.32,148.79L135.62,148.52L135.34,148.78"/><path d="M135.38,148.74L135.47,148.66"/><path d="M135.33,148.08L135.38,148.16L135.42,148.21L135.51,148.28L135.62,148.34L135.76,148.39L135.73,148.42"/><path d="M135.67,148.47L135.62,148.52"/><path d="M135.26,147.44L135.36,147.35"/><path d="M135.28,146.13L135.30,146.14L135.38,146.25L135.45,146.22L135.48,146.23L135.55,146.35L135.63,146.33L135.65,146.35L135.73,146.49L135.80,146.46L135.83,146.49L135.90,146.64L135.97,146.62L135.99,146.64L136.02,146.72"/><path d="M136.21,148.41L136.29,148.37L136.34,148.34L136.38,148.30L136.42,148.25L136.44,148.19L136.45,148.14"/><path d="M136.01,147.00L136.17,147.22L136.29,147.42L136.38,147.61L136.43,147.77"/><path d="M136.57,148.07L136.58,148.09L136.58,148.10L136.48,148.21L136.52,148.18L136.51,148.17"/><path d="M135.82,148.33L135.76,148.39L135.78,148.37"/><path d="M135.84,148.31L135.76,148.39L135.84,148.32"/><path d="M135.83,148.32L135.76,148.39L135.86,148.30"/><path d="M135.76,148.39L135.78,148.37"/><path d="M136.44,148.19L136.44,148.19"/><path d="M136.44,148.19L136.58,148.09"/><path d="M136.38,148.30L136.48,148.21"/><path d="M136.34,148.34L136.49,148.20"/><path d="M136.56,147.68L136.57,147.54L136.57,147.51L136.51,147.53L136.50,147.36L136.49,147.33L136.43,147.32"/><path d="M136.49,147.33L136.43,147.35L136.41,147.18L136.39,147.15L136.33,147.17L136.29,146.99L136.27,146.97L136.20,146.98L136.15,146.81L136.13,146.79L136.08,146.80"/><path d="M136.39,147.15L136.32,147.15"/><path d="M136.51,147.49L136.57,147.51"/><path d="M136.54,148.12L136.59,148.04L136.62,147.98"/><path d="M136.61,147.76L136.62,147.70L136.61,147.68L136.57,147.70"/><path d="M136.61,147.68L136.56,147.66"/></g></g><g id="Actor_.14"><g style="stroke:#000000;stroke-width:0.123"><path d="M126.90,144.54L127.02,144.58L127.14,144.62L127.28,144.65L127.45,144.67L127.45,144.55L127.47,144.42L127.52,144.26L127.61,144.06L127.49,143.95L127.39,143.86L127.28,143.73L127.20,143.62L127.12,143.51L127.05,143.39L126.99,143.26L126.93,143.11L126.78,143.09L126.65,143.07L126.44,143.01L126.34,142.96L126.25,142.92L126.15,142.85L126.07,142.79L125.96,143.06L125.93,143.17L125.91,143.25L125.91,143.34L125.91,143.41L125.97,143.53"/><path d="M126.90,144.54L127.02,144.58L127.11,144.60L127.21,144.61L127.29,144.60L127.37,144.57L127.42,144.52L127.45,144.46L127.48,144.38L127.48,144.29L127.47,144.18L127.44,144.07L127.38,143.94L127.32,143.81L127.24,143.69L127.16,143.58L127.05,143.45L126.95,143.35L126.85,143.26L126.74,143.18L126.61,143.09L126.51,143.04L126.38,142.99L126.29,142.97L126.18,142.96L126.10,142.98L126.03,143.01L125.97,143.07L125.94,143.13L125.92,143.22L125.92,143.30L125.94,143.40L125.97,143.52"/><path d="M127.03,144.46L127.09,144.47L127.16,144.46L127.22,144.45L127.26,144.42L127.30,144.38L127.32,144.34L127.34,144.27L127.34,144.21L127.33,144.13L127.32,144.06L127.29,143.97L127.24,143.87L127.14,143.70L127.00,143.53L126.92,143.44L126.82,143.35L126.66,143.23L126.59,143.19L126.50,143.15L126.41,143.12L126.35,143.11L126.29,143.11L126.22,143.11L126.18,143.13L126.13,143.16L126.09,143.21L126.07,143.27L126.06,143.32L126.06,143.40"/><path d="M127.45,144.67L127.97,144.19L127.97,144.06L128.00,143.93L128.05,143.77L128.14,143.57L128.02,143.47L127.91,143.36L127.82,143.25L127.73,143.14L127.64,143.01L127.57,142.89L127.45,142.63L127.19,142.59L127.06,142.55L126.96,142.52L126.86,142.48L126.78,142.43L126.69,142.37L126.60,142.31L126.07,142.79"/><path d="M126.92,144.55L126.92,144.55"/><path d="M126.94,144.56L126.94,144.56"/><path d="M126.93,143.11L127.45,142.63"/><path d="M126.33,142.56L126.33,142.44L126.34,142.36L126.37,142.28L126.43,142.20L126.50,142.15L126.58,142.12L126.68,142.10L126.78,142.11L126.88,142.13L127.02,142.17L127.14,142.22L127.29,142.31L127.44,142.41L127.56,142.50L127.67,142.61L127.81,142.75L127.92,142.87L128.04,143.02L128.13,143.16L128.21,143.31L128.28,143.45L128.33,143.59L128.36,143.73L128.38,143.84L128.38,143.94L128.35,144.04L128.31,144.13L128.26,144.19L128.18,144.24L128.11,144.27L128.00,144.28L127.89,144.27"/><path d="M126.44,142.19L126.69,141.96"/><path d="M126.93,141.90L126.88,141.93L126.85,141.91"/><path d="M126.73,141.94L126.75,141.95L126.80,141.92"/><path d="M127.61,144.06L128.14,143.57"/><path d="M127.78,142.30L127.72,142.32L127.67,142.22"/><path d="M127.49,142.10L127.54,142.19L127.60,142.17"/><path d="M127.01,141.93L127.03,141.95L127.08,141.92"/><path d="M127.01,141.93L126.99,141.91"/><path d="M127.31,142.00L127.36,142.08L127.42,142.06"/><path d="M127.14,141.94L127.19,142.00L127.24,141.97"/><path d="M127.02,141.94L127.03,141.95"/><path d="M128.56,143.88L128.49,143.96L128.52,143.94"/><path d="M128.26,144.19L128.50,143.97"/><path d="M128.30,142.89L128.33,143.02L128.38,143.01"/><path d="M128.54,143.38L128.50,143.39L128.51,143.27"/><path d="M128.42,143.08L128.43,143.21L128.47,143.20"/><path d="M128.25,142.82L128.20,142.83L128.17,142.71"/><path d="M128.01,142.53L128.06,142.65L128.11,142.63"/><path d="M127.95,142.46L127.90,142.48L127.85,142.36"/><path d="M128.57,143.83L128.54,143.85L128.59,143.76"/><path d="M128.56,143.45L128.55,143.56L128.59,143.55"/><path d="M128.59,143.61L128.56,143.72L128.60,143.70"/></g></g><g id="Actor_.15"><g style="stroke:#000000;stroke-width:0.123"><path d="M204.69,77.37L204.84,77.43L205.01,77.48L205.48,77.03L205.34,76.83L205.29,76.73L205.22,76.61L205.14,76.39L205.07,76.12L204.83,76.04L204.69,75.98L204.58,75.93L204.48,75.87L204.39,75.81L204.31,75.75L204.19,75.66L203.72,76.11L203.76,76.27L203.80,76.41"/><path d="M204.70,77.37L204.81,77.39L204.90,77.40L205.01,77.39L205.09,77.37L205.17,77.32L205.22,77.27L205.27,77.20L205.30,77.11L205.31,77.02L205.31,76.90L205.28,76.77L205.25,76.66L205.20,76.56L205.14,76.45L205.05,76.33L204.96,76.23L204.88,76.14L204.76,76.05L204.65,75.97L204.55,75.92L204.42,75.87L204.32,75.84L204.20,75.83L204.11,75.83L204.03,75.86L203.95,75.90L203.89,75.95L203.84,76.03L203.81,76.10L203.79,76.19L203.79,76.30L203.81,76.41"/><path d="M204.82,77.26L204.89,77.26L204.96,77.25L205.01,77.23L205.07,77.19L205.11,77.15L205.14,77.09L205.17,77.02L205.18,76.96L205.18,76.88L205.17,76.81L205.15,76.72L205.12,76.65L205.07,76.55L205.03,76.48L204.97,76.39L204.89,76.30L204.81,76.22L204.75,76.17L204.68,76.12L204.59,76.06L204.50,76.02L204.42,75.99L204.34,75.97L204.25,75.97L204.19,75.97L204.12,75.99L204.07,76.01L204.02,76.05L203.99,76.09L203.95,76.15L203.93,76.23L203.93,76.30"/><path d="M205.38,77.13L205.52,77.15L205.65,77.15L205.77,77.12L205.85,77.08L205.92,77.03L205.99,76.95L206.05,76.86L206.08,76.74L206.10,76.62L206.09,76.47L206.06,76.33L206.01,76.18L205.95,76.05L205.86,75.90L205.76,75.76L205.64,75.62L205.52,75.49L205.38,75.38L205.24,75.28L205.11,75.21L204.97,75.15L204.83,75.10L204.69,75.08L204.56,75.08L204.46,75.10L204.36,75.14L204.26,75.20L204.19,75.28L204.14,75.38L204.10,75.49L204.09,75.62L204.10,75.75"/><path d="M204.25,75.21L204.42,75.06L204.40,75.07"/><path d="M204.19,75.65L204.63,75.25L204.82,75.40L205.01,75.52L205.23,75.62L205.35,75.66L205.51,75.71L205.58,75.96L205.61,76.08L205.66,76.20L205.72,76.31L205.77,76.41L205.84,76.52L205.92,76.62L205.48,77.03"/><path d="M205.01,77.48L205.45,77.08L205.90,76.65"/><path d="M205.07,76.12L205.51,75.71"/><path d="M206.19,76.75L206.20,76.76L206.17,76.77L206.25,76.65L206.26,76.63L206.22,76.65L206.27,76.55L206.28,76.50L206.28,76.49L206.25,76.50L206.28,76.36L206.28,76.33L206.24,76.33L206.26,76.19L206.25,76.15L206.20,76.16L206.20,76.01L206.18,75.97L206.13,75.98L206.11,75.83L206.09,75.79L206.04,75.80L206.00,75.65L205.98,75.61L205.92,75.63L205.87,75.48L205.84,75.45L205.78,75.46L205.72,75.32L205.69,75.30L205.63,75.31L205.56,75.19L205.52,75.17L205.46,75.18L205.38,75.07L205.35,75.06L205.29,75.08L205.21,74.99L205.18,74.98L205.11,75.00L205.04,74.93L205.02,74.93L205.00,74.93L204.94,74.95L204.87,74.90L204.84,74.90L204.78,74.94L204.72,74.91L204.69,74.91L204.63,74.95L204.58,74.94L204.56,74.95L204.50,75.00L204.47,75.01L204.42,75.06L204.45,75.03"/><path d="M205.94,77.02L206.11,76.85L206.09,76.88"/><path d="M206.11,76.85L206.20,76.76"/><path d="M206.28,76.33L206.26,76.33"/><path d="M206.26,76.33L206.24,76.34"/><path d="M206.28,76.49L206.25,76.49"/><path d="M206.24,76.34L206.24,76.34"/><path d="M206.26,76.63L206.23,76.63"/></g></g><g id="Actor_.16"><g style="stroke:#000000;stroke-width:0.123"><path d="M192.45,60.12L192.43,60.09L192.39,60.03L192.35,59.97L192.30,59.92L192.25,59.87L192.19,59.82L192.14,59.78L192.08,59.75"/><path d="M192.08,59.75L191.96,59.71L192.03,59.74L192.09,59.77L192.16,59.82L192.22,59.87L192.28,59.93L192.33,59.99L192.38,60.05L192.42,60.11"/><path d="M191.63,59.70L191.67,59.69L191.72,59.67L191.77,59.67L191.83,59.67L191.90,59.69L191.96,59.71"/></g></g><g id="Actor_.17"><g style="stroke:#000000;stroke-width:0.123"><path d="M212.19,42.06L210.02,43.98L210.07,43.93L210.10,43.86L210.12,43.77L210.12,43.67L210.09,43.57L210.05,43.46L210.00,43.37L209.93,43.27L209.85,43.18L209.75,43.10L209.65,43.04L209.57,43.01L209.47,42.98L209.37,42.97L209.29,42.99L209.22,43.03L209.18,43.06L209.14,43.11L209.11,43.23L209.11,43.35L209.15,43.51L209.13,43.43L209.13,43.34L209.15,43.28L209.17,43.23L209.21,43.18L209.26,43.15L209.33,43.13L209.40,43.13L209.49,43.15L209.56,43.18L209.70,43.27L209.77,43.33L209.84,43.42L209.93,43.57L209.96,43.69L209.96,43.78L209.95,43.86L209.91,43.92L209.86,43.97L209.79,44.00L209.68,44.00L209.57,43.97L209.62,44.00L209.61,43.99"/><path d="M209.57,43.98L209.44,43.91L209.31,43.79L209.22,43.66L209.15,43.51"/><path d="M209.13,43.43L209.13,43.45"/><path d="M209.13,43.45L209.13,43.45"/><path d="M210.02,43.98L209.94,44.03L209.84,44.05L209.74,44.04L209.62,44.00"/><path d="M209.55,43.97L209.58,43.98"/><path d="M209.21,43.04L211.38,41.11"/><path d="M211.17,41.30L211.17,41.27L211.15,41.30L210.73,41.10L210.74,41.18L210.76,41.23L210.74,41.27L210.75,41.33L210.76,41.36L210.79,41.40L210.80,41.41L211.01,41.44"/><path d="M210.74,41.27L211.08,41.38"/><path d="M210.78,40.91L211.19,41.18L211.18,41.15L211.19,41.13L210.80,40.81L210.77,40.88L210.78,40.91L210.76,40.94L210.74,41.02L210.76,41.07L210.73,41.10"/><path d="M210.76,41.07L211.17,41.27L211.16,41.23L211.16,41.21L210.76,40.94"/><path d="M210.76,41.23L211.11,41.35"/><path d="M210.97,41.48L210.78,41.44L210.81,41.54L210.85,41.58"/><path d="M211.52,41.05L211.47,41.06"/><path d="M211.42,41.09L211.38,41.11L211.39,41.11"/><path d="M211.47,41.07L211.42,41.08L211.43,41.08"/><path d="M210.78,41.44L210.80,41.41"/><path d="M211.16,41.21L211.19,41.18L211.17,41.27"/><path d="M211.15,41.30L211.15,41.32"/><path d="M210.80,40.81L210.83,40.78L211.22,41.10L211.19,41.13"/><path d="M211.22,41.10L211.23,41.06L211.22,41.04L210.88,40.69L210.91,40.66L211.26,41.03L211.22,41.10L211.19,41.18"/><path d="M210.83,40.78L210.84,40.75L210.88,40.69"/><path d="M210.98,40.60L211.01,40.58L211.32,40.98L211.29,41.00L210.98,40.60L210.94,40.63L211.19,40.42L211.27,40.37L211.35,40.33L211.47,40.30L211.60,40.30L211.71,40.31L211.85,40.34L212.00,40.40L212.15,40.47L212.26,40.54L212.40,40.65L212.51,40.75L212.63,40.88L212.74,41.02L212.83,41.16L212.91,41.32L212.97,41.47L213.01,41.59L213.04,41.74L213.04,41.86L213.04,41.97L213.02,42.07L212.97,42.18L212.94,42.24L212.88,42.32L212.63,42.55L212.69,42.49L212.67,42.50L212.76,42.38L212.75,42.39L212.81,42.24L212.79,42.25L212.81,42.17L212.84,42.09L212.82,42.10L212.40,41.89L212.40,41.87L212.42,41.80"/><path d="M211.64,40.95L211.67,40.94L211.59,40.51L211.56,40.53L211.64,40.95L211.62,40.95L211.58,40.92L211.43,40.48L211.39,40.50L211.54,40.94L211.52,40.94L211.48,40.92L211.45,40.94L211.24,40.50L211.16,40.52L211.13,40.52L211.40,40.94L211.36,40.96L211.32,40.98"/><path d="M211.54,40.94L211.58,40.92"/><path d="M211.29,41.00L211.26,41.03L211.28,41.01"/><path d="M211.26,41.03L211.23,41.06"/><path d="M211.40,40.94L211.45,40.94"/><path d="M211.36,40.96L211.10,40.54L211.01,40.58"/><path d="M211.24,40.50L211.27,40.48L211.48,40.92"/><path d="M211.52,41.05L211.57,41.05"/><path d="M211.53,41.05L211.53,41.05"/><path d="M211.57,41.05L211.63,41.05"/><path d="M211.15,40.45L211.17,40.43L210.94,40.63L211.15,40.44"/><path d="M210.91,40.66L210.94,40.63"/><path d="M211.13,40.52L211.10,40.54"/><path d="M211.39,40.50L211.31,40.50L211.27,40.48"/><path d="M211.43,40.48L211.47,40.51L211.56,40.53"/><path d="M212.63,42.55L212.57,42.59L212.26,42.19L212.32,42.14L212.67,42.50"/><path d="M212.57,42.59L212.52,42.62L212.45,42.65L212.18,42.23L212.27,42.18L212.26,42.19"/><path d="M212.45,42.65L212.39,42.67L212.31,42.69L212.10,42.25L212.20,42.21L212.18,42.23"/><path d="M211.99,42.64L211.91,42.64L211.82,42.61L211.81,42.39"/><path d="M212.30,42.16L212.20,42.21L212.01,42.25L212.16,42.69L212.24,42.69L212.30,42.67"/><path d="M212.15,42.67L212.08,42.68L212.00,42.67L211.92,42.30"/><path d="M211.82,42.58L211.74,42.57L211.66,42.53"/><path d="M212.26,41.98L212.23,42.02"/><path d="M212.28,41.93L212.29,41.88"/><path d="M212.30,41.83L212.30,41.76"/><path d="M212.30,41.77L212.29,41.70L212.29,41.74"/><path d="M212.25,41.58L212.22,41.51"/><path d="M212.40,41.99L212.36,42.07L212.75,42.39"/><path d="M212.32,42.14L212.37,42.07"/><path d="M212.36,41.57L212.37,41.68L212.77,41.75L212.74,41.66L212.74,41.56L212.33,41.57L212.31,41.46L212.28,41.47L212.24,41.36L212.21,41.36L212.19,41.34L212.17,41.26L212.13,41.26L212.11,41.24L212.08,41.17L212.26,40.89L212.23,40.90L212.15,40.83L212.10,40.76L211.98,41.09L211.94,41.10L212.07,40.77L211.98,40.71L211.94,40.65L211.90,40.66L211.84,41.03L211.82,41.02L211.78,40.97L211.74,40.98L211.73,40.58L211.64,40.55L211.59,40.51"/><path d="M212.10,42.25L212.11,42.24L212.00,42.23"/><path d="M212.01,42.25L212.02,42.23L211.99,42.24"/><path d="M212.29,41.88L212.30,41.82L212.30,41.85"/><path d="M212.20,42.05L212.20,42.05"/><path d="M212.23,42.02L212.20,42.05"/><path d="M212.28,41.93L212.27,41.95"/><path d="M212.26,41.98L212.27,41.96"/><path d="M212.30,41.77L212.30,41.80"/><path d="M212.27,41.64L212.29,41.70"/><path d="M212.27,41.64L212.28,41.68"/><path d="M212.26,41.62L212.25,41.58L212.27,41.64"/><path d="M212.14,41.39L212.12,41.37"/><path d="M212.09,41.33L212.08,41.31"/><path d="M212.04,41.27L212.02,41.26"/><path d="M211.99,41.22L211.97,41.21"/><path d="M211.85,41.13L211.81,41.11L211.87,41.14"/><path d="M211.93,41.18L211.91,41.16"/><path d="M211.81,41.11L211.75,41.08"/><path d="M211.94,41.10L211.92,41.08L211.88,41.02L211.84,41.03"/><path d="M211.74,40.98L211.72,40.98L211.67,40.94"/><path d="M211.90,40.66L211.81,40.62L211.76,40.57L211.78,40.97"/><path d="M212.10,40.76L212.07,40.77"/><path d="M212.26,40.89L212.30,40.97L212.38,41.05L212.13,41.26"/><path d="M212.23,40.90L212.04,41.17L212.08,41.17"/><path d="M211.98,41.09L212.02,41.16L212.04,41.17"/><path d="M212.24,41.36L212.54,41.21L212.51,41.21L212.21,41.36"/><path d="M212.28,41.47L212.65,41.38L212.67,41.48L212.71,41.57"/><path d="M212.31,41.46L212.65,41.38"/><path d="M212.18,41.45L212.17,41.43"/><path d="M212.21,41.49L212.22,41.51"/><path d="M211.57,41.05L211.60,41.05"/><path d="M211.75,41.08L211.78,41.10"/><path d="M211.72,41.07L211.69,41.06L211.74,41.08"/><path d="M211.68,41.06L211.63,41.05L211.66,41.06"/><path d="M212.16,41.26L212.41,41.04L212.38,41.05"/><path d="M211.88,41.02L211.94,40.65"/><path d="M212.34,40.18L212.46,40.21L212.58,40.27L212.70,40.34L212.82,40.43L212.93,40.54L213.02,40.65L213.11,40.78L213.17,40.90L213.11,40.80L213.05,40.73L212.95,40.65L212.84,40.59L212.80,40.49L212.74,40.41L212.69,40.34L212.61,40.28L212.50,40.23L212.38,40.20L212.23,40.18L212.05,40.17L212.22,40.17L212.34,40.18"/><path d="M211.82,40.33L212.00,40.17L212.05,40.17"/><path d="M211.76,40.57L211.73,40.58"/><path d="M213.03,41.69L213.13,41.58L213.12,41.60"/><path d="M213.14,41.57L213.13,41.58L213.22,41.48L213.23,41.33L213.22,41.09L213.20,40.99L213.17,40.91L213.22,41.03L213.24,41.16L213.25,41.27L213.23,41.41"/><path d="M213.15,41.57L213.14,41.57"/><path d="M213.22,41.47L213.02,41.65"/><path d="M212.82,42.10L212.81,42.01L212.83,41.92L212.81,41.93L212.79,41.84L212.80,41.75L212.77,41.75"/><path d="M212.42,41.90L212.39,41.98L212.79,42.25"/><path d="M212.40,41.69L212.39,41.79L212.81,41.93"/><path d="M213.14,41.57L213.15,41.57"/><path d="M213.17,40.90L213.17,40.91"/><path d="M212.58,40.82L212.84,40.59"/><path d="M212.41,41.04L212.44,41.13L212.51,41.21"/><path d="M212.62,41.39L212.57,41.30L212.54,41.21"/><path d="M213.25,41.32L213.22,41.48L213.25,41.32"/></g></g><g id="Actor_.18"><g style="stroke:#000000;stroke-width:0.123"><path d="M95.25,147.86L95.24,147.84L95.30,147.96L95.36,148.10L95.39,148.21L95.42,148.34L95.41,148.25L95.41,148.24L95.43,148.16L95.44,148.15L95.42,148.22L95.41,148.29L95.42,148.36L95.44,148.46L95.47,148.57L95.51,148.66L95.56,148.75L95.63,148.87L95.79,149.08L95.97,149.27L96.16,149.43L96.27,149.51L96.36,149.56L96.22,149.49L96.22,149.49L96.01,149.41L95.84,149.37L95.76,149.38L95.93,149.44L95.99,149.44L96.05,149.45L96.17,149.48L96.28,149.52L96.46,149.60L96.59,149.64L96.47,149.62L96.48,149.61L96.47,149.61L96.36,149.58L96.29,149.57L96.21,149.57L96.15,149.57L96.10,149.59L96.07,149.66L96.11,149.68L96.15,149.64L96.22,149.62L96.34,149.61L96.48,149.62L96.47,149.62"/><path d="M95.76,149.38L95.73,149.35L95.84,149.37"/><path d="M95.73,149.35L95.76,149.28L95.61,149.20L95.58,149.17L95.69,149.22L95.61,149.20"/><path d="M95.70,148.52L95.71,148.60L95.74,148.67L95.78,148.76L95.83,148.85L95.89,148.93L95.96,149.02L96.09,149.15L96.17,149.21L96.25,149.26L96.33,149.30L96.40,149.33L96.47,149.34L96.52,149.34L96.56,149.32L96.60,149.29L96.62,149.24L96.63,149.15L96.61,149.06L96.57,148.96L96.52,148.85L96.44,148.74L96.34,148.62L96.24,148.52L96.12,148.43L96.02,148.38L95.93,148.34L95.85,148.33L95.78,148.35L95.73,148.38L95.71,148.44L95.70,148.52"/><path d="M95.41,148.35L95.41,148.34L95.41,148.35L95.44,148.46L95.43,148.47L95.48,148.59L95.47,148.60L95.48,148.59L95.45,148.52L95.46,148.53"/><path d="M95.51,148.66L95.51,148.67"/><path d="M95.52,148.67L95.53,148.70"/><path d="M95.53,148.70L95.55,148.73L95.54,148.71"/><path d="M95.27,148.54L95.16,148.46L95.15,148.43L95.27,148.54L95.47,148.72L95.62,148.88L95.63,148.87L95.62,148.86L95.54,148.74L95.55,148.73"/><path d="M95.59,148.80L95.59,148.80"/><path d="M95.62,148.88L95.73,149.01L95.72,149.02L95.56,148.87L95.35,148.71L95.22,148.60L95.26,148.53"/><path d="M95.62,148.86L95.63,148.87"/><path d="M95.62,148.85L95.62,148.85"/><path d="M96.07,149.37L96.10,149.38L95.96,149.28L95.81,149.18L95.44,148.98L95.47,148.91L95.61,148.99L95.76,149.10"/><path d="M95.56,149.05L95.46,149.02L95.44,148.98"/><path d="M95.84,149.15L95.72,149.02"/><path d="M95.72,149.00L95.73,149.01"/><path d="M95.72,148.99L95.71,148.99"/><path d="M95.35,148.71L95.24,148.64L95.37,148.73"/><path d="M95.69,149.22L95.84,149.27L96.00,149.34L96.23,149.48L96.22,149.49"/><path d="M95.58,149.17L95.60,149.10L95.63,149.11L95.82,149.19L95.93,149.26L96.03,149.33L95.98,149.30"/><path d="M95.76,149.28L95.85,149.30L95.98,149.34L96.09,149.40L96.23,149.48"/><path d="M95.44,148.88L95.32,148.79L95.34,148.83L95.50,148.92L95.69,149.04L95.84,149.16L95.97,149.27L95.95,149.25"/><path d="M95.32,148.79L95.35,148.72"/><path d="M95.50,148.82L95.34,148.71L95.38,148.74"/><path d="M95.41,148.76L95.38,148.74"/><path d="M95.24,148.64L95.22,148.60"/><path d="M95.45,148.52L95.43,148.47L95.44,148.50"/><path d="M95.47,148.60L95.54,148.71"/><path d="M95.51,148.65L95.50,148.64"/><path d="M95.54,148.74L95.41,148.58L95.22,148.39L95.11,148.26L95.12,148.29L95.22,148.39"/><path d="M95.47,148.60L95.36,148.44L95.20,148.25L95.11,148.11L95.16,148.05"/><path d="M95.30,148.57L95.25,148.52"/><path d="M95.47,148.91L95.34,148.83"/><path d="M95.24,148.52L95.25,148.53"/><path d="M95.46,149.02L95.60,149.10"/><path d="M95.16,148.46L95.27,148.55"/><path d="M95.52,148.68L95.53,148.69"/><path d="M95.48,148.62L95.51,148.66"/><path d="M95.49,148.63L95.49,148.63"/><path d="M95.58,148.79L95.58,148.79"/><path d="M95.27,148.55L95.22,148.50"/><path d="M95.49,148.82L95.44,148.78"/><path d="M95.49,148.82L95.44,148.78"/><path d="M95.47,148.80L95.51,148.83"/><path d="M95.75,149.09L95.78,149.11"/><path d="M95.61,147.82L95.64,147.82L95.63,147.91L95.61,147.82L95.57,147.75L95.50,147.79L95.47,147.79L95.43,147.75L95.46,147.88L95.47,147.97L95.47,148.06L95.44,148.15L95.46,148.11L95.48,148.09L95.44,148.14"/><path d="M95.44,148.15L95.43,148.16L95.43,148.16"/><path d="M95.45,148.14L95.45,148.13"/><path d="M95.57,147.75L95.57,147.84L95.56,147.95L95.53,148.03L95.48,148.09L95.49,148.08L95.47,148.09L95.47,148.09"/><path d="M95.63,147.91L95.62,147.95L95.60,147.99L95.57,148.03L95.54,148.05L95.61,148.01L95.67,147.95L95.70,147.87L95.72,147.79L95.77,147.87L95.77,147.95L95.81,147.89L95.77,147.87"/><path d="M95.54,148.05L95.54,148.05L95.56,148.04"/><path d="M95.55,148.04L95.59,148.03L95.62,148.03L95.63,148.03"/><path d="M95.27,147.90L95.24,147.84L95.26,147.83L95.31,147.95L95.24,147.84"/><path d="M95.40,148.35L95.34,148.18L95.23,148.00L95.26,148.05"/><path d="M95.43,148.47L95.36,148.34"/><path d="M95.36,148.34L95.21,148.13L95.13,147.99L95.12,148.01L95.21,148.13"/><path d="M95.23,148.15L95.19,148.10"/><path d="M95.18,147.93L95.13,147.99"/><path d="M95.23,148.00L95.17,147.91L95.24,147.84"/><path d="M95.24,147.84L95.37,147.72L95.30,147.78"/><path d="M95.26,147.83L95.32,147.78L95.34,147.80L95.37,147.79L95.42,148.04L95.43,148.09L95.43,148.16"/><path d="M95.41,148.25L95.42,148.24"/><path d="M95.37,147.79L95.43,147.75"/><path d="M95.42,148.23L95.42,148.13L95.40,148.03L95.37,147.89L95.32,147.78"/><path d="M95.40,148.24L95.37,148.10L95.31,147.95"/><path d="M95.11,148.11L95.11,148.14L95.20,148.25"/><path d="M95.11,148.26L95.16,148.20"/><path d="M95.47,148.09L95.49,148.04L95.50,147.99L95.50,147.79"/><path d="M95.35,148.33L95.43,148.47"/><path d="M95.92,148.03L95.98,147.98L95.95,147.96L95.92,148.02L95.90,148.04L95.86,148.05L95.79,148.05L95.66,148.03"/><path d="M95.80,148.05L95.92,148.10L96.01,148.12L96.08,148.13L96.12,148.08L96.15,148.10L96.08,148.13"/><path d="M95.77,147.95L95.74,147.98L95.71,148.01L95.67,148.02L95.62,148.03L95.62,148.03"/><path d="M95.50,147.90L95.47,147.79"/><path d="M95.39,147.91L95.34,147.80"/><path d="M95.18,147.89L95.25,148.03"/><path d="M95.25,148.41L95.20,148.36"/><path d="M95.43,148.47L95.44,148.46L95.44,148.45L95.38,148.29L95.33,148.18L95.25,148.03"/><path d="M95.19,148.36L95.15,148.43"/><path d="M95.81,147.89L95.88,147.86L95.86,147.90L95.81,147.96L95.76,147.99L95.69,148.02"/><path d="M95.72,147.79L95.64,147.82"/><path d="M95.49,148.08L95.54,148.05"/><path d="M95.23,148.27L95.18,148.22"/><path d="M95.23,148.27L95.23,148.28"/><path d="M95.45,147.66L95.46,147.64L95.37,147.72L95.44,147.66"/><path d="M95.73,148.04L95.73,148.04"/><path d="M95.33,148.29L95.34,148.32"/><path d="M95.21,147.97L95.24,148.01"/><path d="M95.46,147.64L95.50,147.61L95.57,147.59L95.65,147.58L95.74,147.58L95.84,147.60L95.94,147.63L96.06,147.68L96.17,147.74L96.38,147.88L96.50,147.97L96.61,148.08L96.73,148.19L96.83,148.31L97.01,148.52L97.15,148.75L97.22,148.88L97.27,149.00L97.31,149.09L97.34,149.20L97.36,149.29L97.36,149.39L97.36,149.48L97.34,149.56L97.31,149.63L97.26,149.68L97.05,149.87L96.98,149.74L97.06,149.85L97.05,149.87"/><path d="M95.46,147.64L95.45,147.65"/><path d="M96.10,149.38L96.09,149.39"/><path d="M96.05,149.35L96.05,149.35"/><path d="M96.15,149.64L96.07,149.66"/><path d="M96.10,149.59L95.93,149.54L95.90,149.51L96.12,149.52L96.23,149.54L96.35,149.57L96.35,149.57L96.36,149.56"/><path d="M95.93,149.54L95.99,149.51"/><path d="M96.06,149.36L96.04,149.34"/><path d="M96.04,149.34L96.02,149.33"/><path d="M96.25,149.78L96.28,149.80L96.31,149.73L96.25,149.78L96.27,149.72L96.33,149.68L96.39,149.65L96.45,149.64L96.51,149.63L96.59,149.64L96.58,149.65L96.68,149.65L96.59,149.64"/><path d="M96.27,149.72L96.11,149.68"/><path d="M96.31,149.73L96.36,149.70L96.43,149.68L96.49,149.66L96.59,149.65L96.58,149.65"/><path d="M95.93,149.44L95.90,149.51"/><path d="M96.35,149.57L96.48,149.61"/><path d="M96.73,149.93L96.61,149.94L96.58,149.94L96.59,149.88L96.61,149.83L96.67,149.74L96.72,149.68L96.78,149.64L96.77,149.64L96.84,149.60L96.71,149.67L96.67,149.71L96.65,149.75"/><path d="M96.46,149.83L96.45,149.89L96.42,149.87L96.46,149.81L96.46,149.83"/><path d="M96.42,149.87L96.47,149.77L96.50,149.73L96.54,149.70L96.62,149.66L96.72,149.65L96.78,149.63L96.77,149.64"/><path d="M96.46,149.81L96.52,149.75L96.59,149.70L96.69,149.66L96.69,149.66L96.77,149.64"/><path d="M96.45,149.82L96.28,149.80"/><path d="M96.45,149.89L96.59,149.89"/><path d="M96.60,149.85L96.61,149.94"/><path d="M96.03,149.33L96.03,149.33"/><path d="M96.66,148.59L96.63,148.56L96.54,148.54L96.66,148.59L96.73,148.58L96.77,148.74L96.79,148.78L96.68,148.71L96.77,148.74"/><path d="M95.96,149.28L95.97,149.27"/><path d="M95.95,149.25L95.95,149.25"/><path d="M95.90,149.21L95.88,149.19"/><path d="M95.89,149.20L95.89,149.20"/><path d="M95.85,149.15L95.84,149.16"/><path d="M96.50,148.56L96.64,148.73L96.79,148.88L96.89,148.93L96.91,148.97L96.98,148.95L96.99,149.12L97.01,149.16L97.07,149.14L97.07,149.30L97.08,149.34L97.13,149.32L97.11,149.47L97.01,149.38L97.12,149.50L97.17,149.48L97.13,149.62L97.12,149.65L97.17,149.63L97.11,149.75L97.02,149.64L97.10,149.77L97.11,149.75"/><path d="M96.37,148.42L96.52,148.58L96.67,148.71"/><path d="M96.63,148.56L96.57,148.39L96.50,148.41L96.47,148.38L96.39,148.39L96.23,148.30L96.39,148.44L96.54,148.54"/><path d="M96.47,148.38L96.41,148.23L96.33,148.25L96.30,148.22L96.23,148.08L96.13,148.12"/><path d="M96.50,148.41L96.39,148.39"/><path d="M95.97,148.12L95.96,148.12L95.93,148.11"/><path d="M95.96,148.12L95.96,148.12L96.10,148.20L96.20,148.24L96.24,148.25L96.30,148.22"/><path d="M96.23,148.08L96.16,148.10"/><path d="M96.24,148.25L96.33,148.25"/><path d="M96.35,148.41L96.35,148.41"/><path d="M96.22,148.29L96.22,148.29"/><path d="M97.15,148.74L97.09,148.62L97.03,148.53L96.89,148.35L96.63,148.06L96.51,147.96L96.40,147.89"/><path d="M96.12,148.08L96.05,147.95L95.98,147.98"/><path d="M95.95,147.96L95.88,147.86"/><path d="M95.84,148.07L95.84,148.07"/><path d="M96.23,148.08L96.14,148.11"/><path d="M96.05,147.95L96.00,148.00L95.93,148.03"/><path d="M96.23,148.30L96.08,148.19"/><path d="M96.36,147.86L96.41,147.89L96.26,147.80"/><path d="M96.09,148.20L96.09,148.20"/><path d="M96.22,148.30L96.22,148.30"/><path d="M95.96,148.02L95.88,148.04"/><path d="M95.94,148.02L95.93,148.03"/><path d="M95.93,147.63L96.44,147.17L96.49,147.18L96.67,147.25L96.84,147.33L97.00,147.43L97.13,147.53L97.25,147.64L97.48,147.89L97.59,148.04L97.68,148.21"/><path d="M96.91,149.31L96.90,149.34L96.91,149.34L96.93,149.52L96.95,149.61L96.98,149.74"/><path d="M97.06,149.86L96.99,149.92L96.92,149.81L96.97,149.93L96.99,149.92"/><path d="M96.65,149.76L96.64,149.77"/><path d="M96.90,149.48L96.88,149.53L96.89,149.53L96.84,149.60L96.84,149.60L96.78,149.69L96.80,149.64L96.84,149.60"/><path d="M96.69,149.66L96.69,149.65L96.68,149.65"/><path d="M96.85,149.94L96.76,149.97L96.73,149.97L96.73,149.87L96.76,149.97"/><path d="M96.87,149.94L96.84,149.85L96.86,149.97L96.88,149.96L96.87,149.94"/><path d="M96.84,149.85L96.84,149.77L96.84,149.69L96.86,149.62L96.89,149.53"/><path d="M97.06,149.85L97.15,149.74"/><path d="M97.02,149.64L96.94,149.44L96.91,149.34L96.89,149.22"/><path d="M97.15,149.74L97.10,149.77"/><path d="M96.85,149.10L96.90,149.25L96.97,149.42L97.03,149.52L97.12,149.65"/><path d="M97.03,149.52L97.13,149.62"/><path d="M97.11,149.47L97.12,149.50"/><path d="M97.08,149.34L96.96,149.22L97.07,149.30"/><path d="M96.88,149.96L96.96,149.92"/><path d="M96.92,149.81L96.91,149.72L96.90,149.60L96.90,149.52L96.91,149.45L96.90,149.45L96.91,149.40"/><path d="M96.78,149.69L96.75,149.77L96.73,149.87"/><path d="M96.62,149.81L96.64,149.77"/><path d="M96.84,149.09L96.84,149.08L96.91,149.21L97.01,149.38"/><path d="M97.01,149.16L96.89,149.06L96.99,149.12"/><path d="M96.61,148.70L96.74,148.88L96.89,149.05"/><path d="M96.77,148.95L96.77,148.95"/><path d="M96.89,149.22L96.88,149.22L96.88,149.20"/><path d="M96.89,148.93L96.86,148.76L96.80,148.78"/><path d="M96.79,148.88L96.92,148.97"/><path d="M96.96,149.22L96.87,149.10L96.79,148.97L96.84,149.08"/><path d="M97.67,148.18L97.73,148.30L97.77,148.42L97.85,148.68L97.33,149.15"/><path d="M97.34,149.21L97.49,149.07L97.61,148.95L97.77,148.79L97.85,148.68"/><path d="M96.71,148.84L96.79,148.97"/><path d="M97.15,148.74L97.15,148.73L97.22,148.87"/><path d="M96.98,147.41L97.16,147.55L97.34,147.72L97.43,147.83L97.52,147.94L97.64,148.13"/><path d="M97.33,147.73L96.78,148.22"/><path d="M96.94,147.39L96.93,147.38"/><path d="M96.93,147.38L96.97,147.41"/><path d="M97.05,147.47L97.09,147.49L97.08,147.49"/><path d="M96.98,147.41L96.98,147.42L96.98,147.41"/><path d="M96.95,147.39L96.95,147.39"/><path d="M97.65,148.15L97.64,148.13"/><path d="M97.69,148.23L97.69,148.21"/><path d="M97.66,148.16L97.67,148.18"/><path d="M97.65,148.15L97.65,148.16"/><path d="M97.67,148.19L97.67,148.18"/><path d="M97.68,148.21L97.69,148.21"/></g></g><g id="Actor_.19"><g style="stroke:#000000;stroke-width:0.123"><path d="M204.21,77.43L204.27,77.45L204.32,77.45L204.37,77.45L204.42,77.44L204.46,77.42L204.50,77.39L204.53,77.36L204.55,77.32L204.56,77.27L204.57,77.22L204.56,77.17L204.55,77.11L204.53,77.05L204.51,76.99L204.47,76.92L204.43,76.86L204.39,76.81L204.34,76.75L204.28,76.71L204.23,76.66L204.17,76.62L204.11,76.59L204.05,76.57L203.99,76.56L203.94,76.55L203.89,76.55L203.84,76.56L203.80,76.58L203.76,76.61L203.73,76.64L203.71,76.69L203.70,76.73L203.69,76.78L203.70,76.84L203.71,76.90L203.67,76.75L203.67,76.69L203.67,76.63L203.68,76.57L203.70,76.52L203.73,76.48L203.76,76.45L203.81,76.42L203.85,76.40L203.91,76.39L203.96,76.39L204.03,76.39L204.09,76.41L204.16,76.43L204.22,76.46L204.29,76.50L204.39,76.57L204.48,76.66L204.53,76.72L204.58,76.78L204.62,76.85L204.66,76.92L204.69,76.99L204.71,77.06L204.73,77.12L204.73,77.19L204.73,77.25L204.72,77.30L204.70,77.35L204.67,77.39L204.64,77.43L204.60,77.46L204.55,77.47L204.49,77.49L204.44,77.49L204.37,77.48L204.31,77.47L204.15,77.41L204.09,77.38L204.03,77.34L203.98,77.30L203.92,77.25L203.83,77.14L203.79,77.08L203.75,77.02L203.73,76.96L203.71,76.90"/><path d="M203.76,76.45L204.16,76.09"/><path d="M204.64,77.43L205.03,77.07"/><path d="M205.27,75.06L205.32,75.01"/></g></g><g id="Actor_.20"><g style="stroke:#000000;stroke-width:0.123"><path d="M199.52,52.09L199.31,51.66L199.24,51.26L199.33,50.93L199.34,50.90L199.71,50.59L200.05,50.55L200.46,50.68L200.85,50.95L201.19,51.34L201.40,51.77L201.46,52.18L201.37,52.51L201.01,52.82L200.98,52.83L200.63,52.86L200.24,52.74L200.18,52.70L199.84,52.46L199.52,52.09"/><path d="M199.95,51.25L199.90,51.39L199.96,51.66L200.14,51.94L200.40,52.13L200.66,52.20L200.77,52.16"/><path d="M199.85,51.29L200.03,51.21"/><path d="M200.81,52.05L200.75,51.76L200.56,51.48L200.29,51.28L200.02,51.21"/><path d="M200.74,52.23L200.81,52.05"/></g></g><g id="Actor_.21"><g style="stroke:#000000;stroke-width:0.123"><path d="M143.83,115.09L143.92,115.10L143.99,115.09L144.04,115.05L144.08,114.98L144.09,114.89L144.07,114.80L144.04,114.70L143.98,114.60L143.91,114.50L143.83,114.40L143.74,114.32L143.64,114.26L143.53,114.20L143.44,114.18L143.36,114.18L143.30,114.20L143.26,114.24L143.23,114.28L143.22,114.33L143.22,114.39L143.23,114.46L143.25,114.54L143.34,114.70L143.46,114.86L143.61,114.99L143.68,115.03L143.76,115.07L143.91,115.11"/><path d="M143.86,115.10L143.85,115.10L144.01,115.13L144.07,115.13L144.12,115.12L144.17,115.10L144.21,115.07L144.24,115.02L144.25,114.98L144.26,114.93L144.26,114.85L144.23,114.70L144.15,114.55L144.03,114.37L143.89,114.23L143.75,114.12L143.60,114.04L143.52,114.01L143.44,114.00L143.39,114.00L143.33,114.02L143.29,114.04L143.25,114.08L143.23,114.12L143.21,114.18L143.20,114.23L143.21,114.31"/><path d="M143.22,114.41L143.20,114.27L143.21,114.30"/><path d="M143.21,114.30L143.22,114.43"/><path d="M143.27,114.06L144.98,112.52"/><path d="M144.20,115.08L145.92,113.52L145.91,113.53"/><path d="M144.90,112.40L144.96,112.34L145.04,112.32L145.15,112.31L145.26,112.33L145.37,112.37L145.51,112.45L145.63,112.54L145.74,112.64L145.86,112.78L145.95,112.90L146.02,113.02L146.09,113.17L146.12,113.29L146.13,113.39L146.11,113.50L146.07,113.58L146.01,113.64L146.05,113.59L146.08,113.53L146.09,113.48L146.10,113.40L146.09,113.31L146.07,113.22L146.00,113.05L145.91,112.90L145.80,112.75L145.67,112.62L145.53,112.51L145.39,112.42L145.25,112.36L145.13,112.34L145.01,112.34L144.92,112.38L144.86,112.44L144.82,112.54L144.82,112.66"/><path d="M144.72,112.17L145.23,111.71L145.47,111.68L145.65,111.68L145.81,111.71L145.96,111.76L145.45,112.22L144.72,112.17L144.74,112.73"/><path d="M144.99,112.51L144.98,112.52L145.01,112.50"/><path d="M145.96,111.76L146.20,111.93L146.32,112.05L146.41,112.14L146.58,112.34L146.73,112.58L146.77,112.73L146.80,112.89L146.80,113.06L146.77,113.28L146.76,113.35L146.25,113.81L145.65,113.77"/><path d="M145.74,113.69L145.82,113.70L145.90,113.69L145.96,113.67L146.01,113.64"/><path d="M145.89,113.55L145.88,113.56"/><path d="M145.93,113.49L145.94,113.49L145.91,113.53"/><path d="M145.45,112.22L146.22,113.04L146.73,112.58"/><path d="M146.25,113.81L146.22,113.04"/><path d="M146.41,112.13L146.38,112.10"/><path d="M146.43,112.16L146.42,112.15"/><path d="M146.43,112.15L146.40,112.12"/></g></g><g id="Actor_.22"><g style="stroke:#000000;stroke-width:0.123"><path d="M246.77,96.29L184.79,158.48"/><path d="M195.58,164.97L255.68,103.34"/><path d="M255.73,103.29L256.23,102.50L256.42,101.33"/></g></g><g id="Actor_.23"><g style="stroke:#000000;stroke-width:0.123"><path d="M151.43,46.49L87.05,99.68"/><path d="M159.29,53.47L159.40,53.38L97.21,105.79"/><path d="M159.40,53.38L159.98,52.47L160.07,51.00"/></g></g><g id="Actor_.24"><g style="stroke:#000000;stroke-width:0.123"><path d="M92.47,15.33L98.13,11.47L288.23,109.53L283.79,114.38L281.83,114.56L281.83,114.16L92.61,15.40L92.52,15.72L246.70,96.33"/><path d="M143.09,53.38L93.79,27.15L93.70,26.74L143.36,53.15"/><path d="M93.70,26.74L98.87,22.81L99.09,22.09L98.78,18.99"/><path d="M179.74,72.88L153.09,58.70"/><path d="M179.92,72.59L153.36,58.47"/><path d="M165.96,56.23L166.42,56.21L166.38,55.68L165.57,55.21L165.48,55.66L165.96,56.23"/><path d="M165.77,55.18L166.48,56.01"/><path d="M180.28,61.77L179.96,62.04L180.21,62.49L180.80,62.43L180.28,61.82L180.80,62.37"/><path d="M185.82,65.48L185.62,65.10"/><path d="M185.96,65.22L185.93,65.03"/><path d="M202.29,74.29L203.18,74.61L202.44,73.58L202.12,73.87L202.29,74.29"/><path d="M202.44,73.51L203.26,74.40"/><path d="M238.79,104.30L203.39,85.47"/><path d="M239.05,104.03L203.76,85.27"/><path d="M207.18,76.22L207.89,77.07L207.17,76.94L206.84,76.15"/><path d="M223.96,85.10L223.33,84.70L223.17,84.26L223.46,84.34L215.19,80.17L215.05,80.65L215.51,81.24L216.19,81.18L215.34,80.15"/><path d="M216.21,81.06L216.20,80.93"/><path d="M223.46,84.34L223.93,84.87L223.86,85.36L222.97,84.94L222.88,84.43L223.17,84.26"/><path d="M223.21,84.23L223.32,84.28"/><path d="M234.68,91.25L234.47,90.78L234.82,90.45L235.62,91.32L235.21,91.58L234.68,91.25"/><path d="M234.79,90.45L235.62,91.29"/><path d="M237.59,91.50L237.02,91.19"/><path d="M246.58,96.19L276.23,111.68L275.74,111.61L275.91,112.16L276.85,112.75L276.89,112.27L276.39,111.76"/><path d="M249.56,109.62L279.87,125.74L279.81,126.13L249.29,109.89"/><path d="M256.74,102.66L256.40,101.96L256.79,101.68L257.65,102.49L257.39,102.90L256.74,102.66"/><path d="M256.70,101.68L257.05,102.34L257.64,102.59"/><path d="M258.79,102.57L259.69,103.03"/><path d="M268.00,109.02L267.72,109.36L266.99,109.05L266.73,108.36L267.20,108.15L267.96,109.04L267.02,108.14"/><path d="M275.74,111.61L275.44,112.00L275.80,112.72L276.47,113.07L276.99,112.73"/><path d="M276.23,111.68L281.76,114.56"/><path d="M279.66,114.41L278.87,113.92L279.04,114.59L279.67,114.55L279.08,113.89"/><path d="M279.87,125.74L281.83,125.56L285.97,120.96L287.98,110.07L283.79,114.38"/><path d="M279.81,126.13L281.80,125.94L286.18,120.92L288.23,109.53"/><path d="M281.80,125.94L281.87,125.56"/><path d="M281.83,114.16L283.86,113.98"/><path d="M284.12,118.05L283.55,118.38L282.84,117.97L282.53,117.23L282.95,116.89L283.68,117.17L284.12,117.84L284.01,118.06L283.28,117.78L282.84,116.91"/><path d="M284.60,113.50L284.97,113.10"/><path d="M284.96,113.16L284.91,113.17"/></g></g><g id="Actor_.25"><g style="stroke:#000000;stroke-width:0.123"><path d="M25.18,81.37L22.72,70.45L23.47,69.32L29.35,64.97L220.75,180.12L221.11,182.29L216.47,187.31L215.89,188.36L215.13,198.29L215.56,198.26L220.16,193.23L220.16,193.57L214.89,198.98L215.65,188.29L216.50,186.93L221.14,181.90"/><path d="M117.10,138.36L25.08,81.32"/><path d="M71.56,107.31L71.48,106.24L70.14,105.31L69.73,105.95L69.86,106.74L70.46,107.34L71.41,107.39"/><path d="M71.59,107.30L71.51,107.35"/><path d="M80.61,108.74L80.35,107.90L80.77,107.68L81.73,108.43L82.01,109.48L81.48,109.53L80.61,108.74"/><path d="M81.21,114.32L81.41,113.89L82.12,114.15L82.93,115.65L82.03,115.56L81.21,114.32"/><path d="M82.07,109.27L81.29,108.78L80.73,107.68"/><path d="M82.95,115.50L81.96,114.78L81.59,113.89"/><path d="M89.33,112.85L90.04,113.89L89.16,113.59L88.93,113.14L89.22,112.81L90.01,113.66"/><path d="M90.85,120.40L90.65,120.78L90.05,120.35L89.91,119.63L90.75,120.19L90.24,119.68"/><path d="M93.83,120.97L93.92,120.40L93.42,119.55L92.65,118.99L92.09,119.11L91.86,119.89L92.13,120.62L93.02,121.16L93.78,121.00"/><path d="M92.12,119.08L92.15,119.03"/><path d="M105.10,128.01L104.66,127.79L104.57,128.04L105.33,128.73L105.10,128.01L105.30,128.23"/><path d="M104.76,123.45L104.91,123.92L104.65,123.97L104.08,123.13L104.61,123.28"/><path d="M109.95,131.82L110.42,132.13L110.72,131.83L109.81,130.94L109.95,131.82"/><path d="M110.70,131.76L110.02,130.99"/><path d="M113.33,133.91L112.95,132.84L113.69,133.22L114.01,133.90L113.33,133.91"/><path d="M113.98,133.73L113.22,132.89"/><path d="M114.11,129.38L113.92,128.49L114.62,128.88L114.90,129.56L114.11,129.38"/><path d="M114.19,128.56L114.88,129.32"/><path d="M214.85,198.96L129.31,145.93"/><path d="M132.61,145.06L132.20,145.27L132.61,145.98L133.09,146.26L133.37,145.94L132.68,145.09L133.36,145.87"/><path d="M132.16,140.61L133.05,140.79L132.59,139.88L131.84,139.65L132.16,140.61"/><path d="M132.16,139.62L133.04,140.59"/><path d="M141.31,151.30L140.73,150.67L140.74,150.16L141.70,150.71L141.86,151.26L141.31,151.30"/><path d="M141.85,151.01L141.05,150.16"/><path d="M148.88,155.79L149.46,156.29L149.89,156.15L149.14,155.18L148.72,155.38L148.88,155.79"/><path d="M149.14,155.18L149.84,155.93"/><path d="M160.75,162.96L161.06,162.67L161.54,162.95L161.79,163.86L160.75,162.96"/><path d="M161.90,163.46L161.16,162.70"/><path d="M163.29,163.69L164.11,163.84L163.20,162.97L163.29,163.69"/><path d="M164.06,163.62L163.48,163.03"/><path d="M163.32,158.93L163.99,159.08L163.63,158.36L163.10,158.18L163.32,158.93"/><path d="M163.43,158.23L163.94,158.74"/><path d="M167.80,166.60L167.97,166.08L167.55,165.27L166.16,164.46L165.67,165.10L165.77,165.96L167.03,166.83"/><path d="M165.88,164.62L165.86,164.66"/><path d="M167.19,166.82L167.82,166.59"/><path d="M169.26,168.63L169.75,168.48L170.72,169.07L171.30,170.02L171.20,170.49L170.37,170.76L169.53,170.43L169.03,169.47L169.24,168.66"/><path d="M169.20,161.85L168.95,162.65L169.43,163.67L170.44,164.07L171.23,163.74L170.61,162.21L169.64,161.69L169.17,161.90"/><path d="M171.09,163.86L171.14,163.82"/><path d="M173.40,169.11L174.24,170.08L173.84,170.30L173.40,170.03L173.16,169.09L174.22,169.92"/><path d="M174.83,172.88L174.27,172.25L174.31,171.75L175.40,172.47L175.41,172.96L174.83,172.88"/><path d="M174.59,171.75L175.44,172.61"/><path d="M179.50,175.67L180.31,176.19L180.93,175.93L180.33,174.75L179.31,174.24L178.98,174.87L179.50,175.67"/><path d="M179.31,174.24L179.83,175.25L180.94,175.85"/><path d="M179.44,169.44L178.98,168.61L179.38,168.05L180.55,168.72L181.03,169.73L180.44,170.09L179.44,169.44"/><path d="M179.34,168.07L179.99,169.23L181.03,169.73"/><path d="M183.63,177.19L183.45,176.66L183.87,176.50L184.75,177.52L184.39,177.75L183.63,177.19"/><path d="M184.72,177.36L183.84,176.49"/><path d="M186.01,177.79L185.84,176.88L186.58,177.19L187.00,177.94L186.63,178.18L186.01,177.79"/><path d="M186.06,176.89L186.98,177.78"/><path d="M188.66,182.11L189.81,182.85L190.65,182.62L190.84,182.19L190.34,181.22L189.22,180.51L188.57,180.87L188.66,182.11"/><path d="M190.38,176.11L191.05,175.61L190.81,174.82L189.85,173.91L188.98,173.79L188.64,174.54L188.84,175.38L189.44,175.96L190.28,176.12"/><path d="M191.80,178.28L191.19,178.65L190.35,178.16L189.74,177.24L189.99,176.62L191.06,177.04L191.80,178.21L190.73,177.77L190.07,176.61"/><path d="M190.92,175.86L190.87,175.89"/><path d="M193.44,183.13L194.22,182.88L194.30,182.08L193.41,181.04L192.34,180.79L192.07,182.12L192.58,182.81L193.41,183.13"/><path d="M192.24,180.88L192.21,180.94"/><path d="M194.55,184.98L195.23,185.44L195.60,185.21L195.20,184.48L194.46,184.16L194.55,184.98"/><path d="M194.68,184.17L195.58,185.04"/><path d="M194.14,182.94L194.27,182.85"/><path d="M195.43,180.53L195.82,180.88L196.19,180.68L195.66,180.11L195.43,180.53"/><path d="M198.80,183.86L199.30,183.20L200.68,183.71L201.82,185.06L201.76,186.15L200.93,186.21L199.95,185.67L198.80,183.86"/><path d="M201.95,185.85L200.09,185.07L199.19,183.22"/><path d="M203.31,189.24L204.21,190.15L204.86,189.95L203.91,188.76L203.40,188.72L203.31,189.24"/><path d="M203.59,183.36L203.77,182.94L204.33,183.04L205.19,184.28L204.44,184.37L203.59,183.36"/><path d="M203.63,188.68L204.85,189.84"/><path d="M203.95,182.92L205.19,184.10"/><path d="M206.78,191.65L206.81,191.39L207.31,191.49L207.67,192.17L206.78,191.65"/><path d="M207.55,191.72L207.25,191.45"/><path d="M208.34,188.58L207.90,188.20L207.97,187.77L208.62,188.24L208.34,188.58"/><path d="M212.45,195.98L212.22,196.40L211.42,196.10L210.86,195.39L210.93,194.86L212.04,195.86L212.33,195.67L211.18,194.81"/><path d="M211.51,191.14L212.26,191.63L212.76,191.49L212.37,190.55L211.37,190.08L211.15,190.50L211.51,191.14"/><path d="M211.51,190.08L211.96,190.82L212.78,191.24"/><path d="M211.57,188.06L211.41,187.32L211.94,187.25L212.71,187.83L212.95,188.61L212.40,188.72L211.57,188.06"/><path d="M211.74,187.21L212.97,188.37"/><path d="M215.83,188.98L219.82,191.42L220.20,193.19"/></g></g><g id="Actor_.26"><g style="stroke:#000000;stroke-width:0.123"><path d="M183.44,65.71L183.40,65.52L183.55,65.35L183.83,65.06L183.91,65.13L184.02,65.21L184.11,65.27L184.21,65.33L184.41,65.42L184.54,65.46L184.69,65.51L184.75,65.77L184.84,65.99L184.90,66.11L184.96,66.21L185.10,66.41L184.82,66.70L184.66,66.87L184.46,66.81L184.32,66.75L184.19,66.69L184.05,66.61L183.93,66.52L183.81,66.42L183.69,66.26L183.60,66.10L183.52,65.93L183.44,65.71"/><path d="M183.46,65.67L183.48,65.79L183.52,65.92L183.56,66.02L183.63,66.15L183.72,66.28L183.82,66.40L183.93,66.51L184.05,66.60L184.17,66.68L184.29,66.74L184.41,66.77L184.51,66.79L184.61,66.79L184.71,66.76L184.79,66.72L184.86,66.65L184.89,66.59L184.91,66.53L184.93,66.47L184.93,66.40L184.93,66.33L184.92,66.23L184.90,66.15L184.86,66.05L184.82,65.97L184.77,65.87L184.66,65.71L184.58,65.62L184.51,65.55L184.42,65.47L184.35,65.42L184.28,65.37L184.18,65.31L184.03,65.26L183.93,65.24L183.87,65.23L183.78,65.23L183.72,65.25L183.67,65.26L183.60,65.30L183.56,65.34L183.52,65.40L183.49,65.45L183.48,65.51L183.46,65.60L183.46,65.67"/><path d="M183.53,65.94L183.53,65.95"/><path d="M183.54,65.97L183.55,66.00L183.54,65.97"/><path d="M183.62,65.89L183.61,65.82L183.59,65.73L183.59,65.67L183.60,65.61L183.61,65.56L183.64,65.50L183.68,65.46L183.71,65.42L183.76,65.40L183.80,65.38L183.86,65.37L183.93,65.37L184.00,65.38L184.06,65.39L184.13,65.42L184.21,65.45L184.35,65.54L184.41,65.59L184.50,65.67L184.55,65.73L184.62,65.82L184.71,65.96L184.74,66.03L184.77,66.13L184.80,66.26L184.80,66.33L184.79,66.41L184.78,66.46L184.76,66.51L184.72,66.56L184.67,66.60L184.61,66.63L184.54,66.65L184.46,66.65L184.38,66.64L184.29,66.61L184.18,66.56L184.07,66.49L183.98,66.42L183.90,66.35L183.83,66.26L183.76,66.17L183.70,66.08L183.66,65.99L183.62,65.89"/><path d="M184.42,66.42L184.35,66.40L184.27,66.37L184.19,66.32L184.14,66.28L184.07,66.22L184.00,66.15L183.94,66.07L183.89,65.99L183.86,65.91L183.84,65.85L183.82,65.77L183.82,65.70L183.83,65.63L183.86,65.57L183.89,65.53L183.94,65.50L184.01,65.48L184.10,65.48L184.19,65.50L184.30,65.55L184.40,65.62L184.50,65.71L184.58,65.81L184.64,65.91L184.69,66.03L184.71,66.13L184.71,66.22L184.69,66.29L184.65,66.36L184.59,66.40L184.55,66.41L184.51,66.42L184.42,66.42"/><path d="M183.83,65.06L184.28,64.67L184.37,64.75L184.46,64.82L184.64,64.93L184.85,65.02L184.97,65.07L185.13,65.11L185.19,65.36L185.23,65.47L185.28,65.60L185.33,65.71L185.39,65.80L185.46,65.91L185.54,66.02L185.28,66.28L185.10,66.47L184.66,66.87"/><path d="M183.78,65.12L183.78,64.99L183.79,64.87L183.83,64.76L183.89,64.67L183.96,64.60L184.03,64.55L184.14,64.51L184.25,64.50L184.36,64.50L184.49,64.53L184.63,64.57L184.77,64.64L184.91,64.72L185.02,64.81L185.16,64.92L185.28,65.05L185.39,65.19L185.49,65.33L185.56,65.45L185.63,65.61L185.67,65.75L185.70,65.90L185.71,66.03L185.70,66.13L185.67,66.25L185.63,66.35L185.57,66.41L185.49,66.48L185.39,66.53L185.28,66.55L185.15,66.55L185.04,66.53"/><path d="M184.13,64.44L184.16,64.43L184.22,64.39L184.24,64.37L184.28,64.38L184.34,64.34L184.37,64.34L184.42,64.36L184.48,64.33L184.51,64.33L184.58,64.38L184.64,64.35L184.66,64.35L184.67,64.35L184.74,64.42L184.80,64.40L184.84,64.41L184.91,64.50L184.98,64.47L184.99,64.48L185.01,64.50L185.08,64.60L185.14,64.58L185.17,64.60L185.24,64.72L185.30,64.71L185.32,64.72L185.34,64.74L185.39,64.87L185.45,64.86L185.48,64.89L185.53,65.03L185.59,65.02L185.61,65.05L185.65,65.21L185.70,65.20L185.72,65.23L185.74,65.38L185.79,65.37L185.81,65.41L185.81,65.56L185.86,65.55L185.87,65.59L185.85,65.74L185.89,65.73L185.90,65.76L185.86,65.90L185.90,65.89L185.90,65.91L185.85,66.05L185.88,66.03L185.86,66.03"/><path d="M184.14,64.44L183.94,64.61"/><path d="M185.10,66.41L185.54,66.02L185.51,66.05"/><path d="M184.69,65.51L185.13,65.11"/><path d="M185.56,66.43L185.75,66.25"/><path d="M185.87,65.89L185.90,65.89"/><path d="M185.88,66.03L185.87,66.06L185.80,66.17L185.83,66.16L185.82,66.15"/><path d="M185.83,66.15L185.75,66.25"/><path d="M185.73,66.27L185.74,66.26"/></g></g><g id="Actor_.27"><g style="stroke:#000000;stroke-width:0.123"><path d="M192.44,69.57L192.47,69.45L192.48,69.43L192.55,69.36L192.59,69.32L192.64,69.29L192.70,69.27L192.76,69.26L192.83,69.25L192.90,69.26L192.97,69.27L193.04,69.29L193.12,69.32L193.20,69.36L193.10,69.29L193.03,69.22L192.97,69.11L192.92,69.00L192.61,69.29L192.51,69.40L192.48,69.45L192.46,69.51L192.44,69.57L192.44,69.64L192.44,69.71L192.45,69.78L192.46,69.86L192.49,69.94L192.53,70.03L192.62,70.20L192.73,70.35L192.86,70.49L193.01,70.61L193.16,70.71"/><path d="M193.16,70.71L193.24,70.75L193.31,70.78L193.39,70.80L193.46,70.81L193.53,70.81L193.60,70.81L193.66,70.80L193.72,70.78L193.77,70.75L193.81,70.71L193.85,70.67L193.88,70.62L193.90,70.56L193.92,70.50L193.92,70.43L193.92,70.36L193.91,70.29L193.90,70.21L193.87,70.13L193.81,69.97L193.78,69.85L193.77,69.68L193.78,69.45L193.59,69.45L193.44,69.43L193.32,69.40L193.20,69.36L193.28,69.40L193.37,69.47L193.50,69.57L193.57,69.64L193.69,69.79L193.79,69.95L193.87,70.11L193.91,70.15L193.95,70.20L194.01,70.25L194.08,70.29L194.19,70.35L193.81,70.71"/><path d="M192.53,70.03L192.53,70.04"/><path d="M193.78,69.45L194.18,69.08L193.95,69.01L193.79,68.95L193.70,68.90L193.62,68.86L193.48,68.77L193.32,68.64L192.92,69.00"/><path d="M193.45,68.44L193.35,68.43L193.27,68.43L193.20,68.44L193.13,68.46L193.06,68.48L193.00,68.52L192.95,68.56L192.91,68.61L192.87,68.66L192.84,68.73L192.81,68.80L192.80,68.87L192.79,68.95L192.79,69.03L192.80,69.11"/><path d="M192.95,68.56L193.05,68.47"/><path d="M193.81,70.71L193.74,70.78L193.73,70.80L193.74,70.80"/><path d="M193.73,70.80L193.60,70.81"/><path d="M193.74,70.80L194.14,70.44L194.31,70.26L194.59,69.99L194.19,70.35"/><path d="M193.53,70.81L193.61,70.81"/><path d="M194.14,70.44L194.14,70.44"/><path d="M194.06,70.51L194.16,70.52L194.24,70.53L194.32,70.53L194.39,70.52L194.46,70.50L194.53,70.48L194.58,70.44L194.64,70.40L194.67,70.37"/><path d="M194.64,70.40L194.67,70.38"/><path d="M194.59,69.99L194.46,69.81L194.38,69.67L194.34,69.58L194.30,69.49L194.24,69.32L194.18,69.08"/><path d="M194.19,68.83L194.30,68.93L194.37,69.01L194.51,69.19L194.63,69.37L194.67,69.47L194.72,69.57"/></g></g><g id="Actor_.28"><g style="stroke:#000000;stroke-width:0.123"><path d="M110.04,131.00L110.04,131.04"/><path d="M114.81,129.15L114.70,129.21"/><path d="M126.02,123.13L131.09,120.41L131.76,119.82L132.02,119.88L150.02,130.61L149.62,131.47L147.03,135.77"/><path d="M131.76,119.82L149.77,130.55L149.43,131.35L146.85,135.66"/><path d="M133.94,147.26L133.87,147.13L134.34,146.59L135.47,147.26L136.11,148.44L135.64,148.95L135.34,148.78"/><path d="M134.98,146.10L134.84,146.12L134.34,146.59"/><path d="M136.47,126.31L134.41,128.17"/><path d="M135.64,148.95L136.23,148.40"/><path d="M135.47,147.26L136.04,146.72L135.91,146.65"/><path d="M136.11,148.44L136.69,147.91L136.55,147.67"/><path d="M136.04,146.72L136.13,146.89"/><path d="M139.86,127.07L139.89,127.12L139.63,126.61L139.29,126.21L138.83,125.89L138.41,125.75L137.80,125.71L137.32,125.82L136.86,126.03L136.46,126.32"/><path d="M136.45,126.33L136.51,126.29"/><path d="M136.69,147.91L136.57,148.03"/><path d="M139.97,127.63L139.96,127.72"/><path d="M149.77,130.55L150.03,130.61"/></g></g><g><g><path style="stroke:#000000;stroke-width:0.208;stroke-dasharray:2.2 2.2" d="M211.04,42.25L185.50,64.85"/></g></g><g><g><path style="stroke:#000000;stroke-width:0.208;stroke-dasharray:2.2 2.2" d="M144.85,113.56L118.62,137.18"/></g></g><g><g><path style="stroke:#000000;stroke-width:0.208;stroke-dasharray:2.2 2.2" d="M114.13,132.83L88.36,155.79"/></g></g><g id="PMI20.0"><g><path style="stroke:#000000;stroke-width:0.281" d="M212.20,33.48L212.15,38.00"/></g><g><path style="fill:#000000" d="M211.14,38.00L213.14,38.02L212.12,40.01z"/></g><g><path style="fill:#ffffff" d="M202.99,33.48L221.45,33.48L221.45,28.40L202.99,28.40z"/><path style="stroke:#000000;stroke-width:0.281;stroke-opacity:0.98" d="M202.99,33.48L221.45,33.48L221.45,28.40L202.99,28.40z"/><text xml:space="preserve" fill="#000000" stroke-width="0" x="203.62" y="32.05" font-size="2.79" opacity="1.00" font-family="Microsoft Sans Serif">8057010111</text></g></g><g id="PMI11.0"><g><path style="stroke:#000000;stroke-width:0.281" d="M199.92,41.15L200.03,48.70"/></g><g><path style="fill:#000000" d="M199.03,48.72L201.03,48.69L200.06,50.70z"/></g><g><path style="fill:#ffffff" d="M190.65,41.16L209.11,41.16L209.11,36.08L190.65,36.08z"/><path style="stroke:#000000;stroke-width:0.281;stroke-opacity:0.98" d="M190.65,41.16L209.11,41.16L209.11,36.08L190.65,36.08z"/><text xml:space="preserve" fill="#000000" stroke-width="0" x="191.28" y="39.73" font-size="2.79" opacity="1.00" font-family="Microsoft Sans Serif">8060001088</text></g></g><g id="PMI1.0"><g><path style="stroke:#000000;stroke-width:0.281" d="M168.31,81.41L173.38,81.41"/></g><g><path style="fill:#000000" d="M173.37,82.41L173.38,80.41L175.38,81.42z"/></g><g><path style="fill:#ffffff" d="M151.98,83.94L168.31,83.94L168.31,78.86L151.98,78.86z"/><path style="stroke:#000000;stroke-width:0.281;stroke-opacity:0.98" d="M151.98,83.94L168.31,83.94L168.31,78.86L151.98,78.86z"/><text xml:space="preserve" fill="#000000" stroke-width="0" x="152.61" y="82.51" font-size="3.05" opacity="1.00" font-family="Microsoft Sans Serif">1000DCH0</text></g></g><g id="PMI6.0"><g><path style="stroke:#000000;stroke-width:0.281" d="M145.83,104.78L145.78,110.13"/></g><g><path style="fill:#000000" d="M144.78,110.12L146.78,110.14L145.76,112.13z"/></g><g><path style="fill:#ffffff" d="M136.62,104.78L155.08,104.78L155.08,99.70L136.62,99.70z"/><path style="stroke:#000000;stroke-width:0.281;stroke-opacity:0.98" d="M136.62,104.78L155.08,104.78L155.08,99.70L136.62,99.70z"/><text xml:space="preserve" fill="#000000" stroke-width="0" x="137.26" y="103.35" font-size="2.79" opacity="1.00" font-family="Microsoft Sans Serif">8057010195</text></g></g><g id="PMI4.0"><g><path style="stroke:#000000;stroke-width:0.281" d="M187.08,105.82L182.31,105.82"/></g><g><path style="fill:#000000" d="M182.31,104.82L182.31,106.82L180.31,105.82z"/></g><g><path style="fill:#ffffff" d="M187.08,108.35L203.24,108.35L203.24,103.27L187.08,103.27z"/><path style="stroke:#000000;stroke-width:0.281;stroke-opacity:0.98" d="M187.08,108.35L203.24,108.35L203.24,103.27L187.08,103.27z"/><text xml:space="preserve" fill="#000000" stroke-width="0" x="187.72" y="106.92" font-size="3.05" opacity="1.00" font-family="Microsoft Sans Serif">1000DBU1</text></g></g><g id="PMI3.0"><g><path style="stroke:#000000;stroke-width:0.281" d="M135.34,163.40L132.16,163.40L126.75,149.92"/></g><g><path style="fill:#000000" d="M127.68,149.54L125.83,150.28L126.01,148.06z"/></g><g><path style="fill:#ffffff" d="M134.70,165.94L150.69,165.94L150.69,160.86L134.70,160.86z"/><path style="stroke:#000000;stroke-width:0.281;stroke-opacity:0.98" d="M134.70,165.94L150.69,165.94L150.69,160.86L134.70,160.86z"/><text xml:space="preserve" fill="#000000" stroke-width="0" x="135.34" y="164.51" font-size="3.05" opacity="1.00" font-family="Microsoft Sans Serif">1000DG20</text></g></g><g id="PMI12.0"><g><path style="stroke:#000000;stroke-width:0.281" d="M96.74,159.49L96.68,151.98"/></g><g><path style="fill:#000000" d="M97.68,151.97L95.68,151.98L96.67,149.97z"/></g><g><path style="fill:#ffffff" d="M87.53,164.57L106.00,164.57L106.00,159.49L87.53,159.49z"/><path style="stroke:#000000;stroke-width:0.281;stroke-opacity:0.98" d="M87.53,164.57L106.00,164.57L106.00,159.49L87.53,159.49z"/><text xml:space="preserve" fill="#000000" stroke-width="0" x="88.17" y="163.14" font-size="2.79" opacity="1.00" font-family="Microsoft Sans Serif">8072000151</text></g></g><g id="PMI2.0"><g><path style="stroke:#000000;stroke-width:0.281" d="M87.14,145.65L87.08,154.29"/></g><g><path style="fill:#000000" d="M86.09,154.28L88.09,154.29L87.07,156.28z"/></g><g><path style="fill:#ffffff" d="M77.93,145.64L96.40,145.64L96.40,140.57L77.93,140.57z"/><path style="stroke:#000000;stroke-width:0.281;stroke-opacity:0.98" d="M77.93,145.64L96.40,145.64L96.40,140.57L77.93,140.57z"/><text xml:space="preserve" fill="#000000" stroke-width="0" x="78.57" y="144.22" font-size="2.79" opacity="1.00" font-family="Microsoft Sans Serif">8057010076</text></g></g><g/><g id="paperID" visibility="hidden" opacity="0.00" transform="scale(0.000100)"><path style="stroke:#000000;stroke-width:0.500;fill:#e6e6e6;fill-rule:evenodd" d="M-2000.00,-2000.00L2297.00,-2000.00L2297.00,2210.00L-2000.00,2210.00zM0.00,0.00L297.00,0.00L297.00,210.00L0.00,210.00z"/><path style="fill:#000000;fill-opacity:0.118" d="M3.00,210.00L297.00,210.00L297.00,3.00L300.00,3.00L300.00,213.00L3.00,213.00z"/></g><g id="hotspot.0" onmouseover="ShowHotSpot(evt,'0')" onmouseout="HideHotSpot(evt,'0')" onmousemove="ShowToolTip(evt,'0',&quot;3dp330555&quot;)" opacity="0"><path style="fill:#00ff00;fill-rule:evenodd" d="M189.43,66.44L189.94,67.57L191.07,68.91L192.41,69.77L192.98,70.86L194.00,70.87L194.61,70.66L194.80,69.45L195.14,69.42L200.91,72.51L202.03,74.67L203.95,75.80L203.93,77.44L205.24,77.44L206.18,76.99L206.13,75.21L211.62,78.20L211.36,80.55L209.86,82.07L192.62,91.43L191.62,91.41L174.60,82.06L173.51,82.48L173.22,81.83L168.46,81.80L168.30,84.11L152.01,84.11L152.01,79.06L168.30,79.06L168.46,81.37L173.22,81.35L173.43,80.72L173.75,80.66L174.33,81.03L174.85,81.09L183.12,67.66L183.82,67.00L185.74,66.43L186.16,65.94L186.42,65.95L186.44,65.65L184.72,64.55L184.32,64.02zM188.63,66.74L188.63,67.08L188.01,66.70L187.96,66.41L188.30,66.41zM186.96,68.91L186.98,69.87L186.04,70.31L184.46,70.31L183.32,69.49L183.50,68.90L184.09,68.36L186.41,68.36zM208.08,77.15L207.24,77.16L206.82,76.35L206.94,76.32zM208.34,79.89L208.90,80.43L208.91,81.38L208.26,81.83L206.12,81.83L205.31,81.26L205.30,80.26L206.61,79.60z"/></g><g id="hotspot.1" onmouseover="ShowHotSpot(evt,'1')" onmouseout="HideHotSpot(evt,'1')" onmousemove="ShowToolTip(evt,'1',&quot;3dp330511&quot;)" opacity="0"><path style="fill:#00ff00;fill-rule:evenodd" d="M190.68,41.33L190.68,36.28L209.16,36.28L209.16,41.33L200.03,41.50L199.93,41.66L199.56,41.47zM200.30,48.72L200.90,48.90L200.34,50.10L200.36,50.81L201.47,52.17L201.20,52.83L200.07,52.77L199.53,52.23L199.59,50.92L199.84,50.53L199.24,49.44L199.19,48.93L199.82,48.71L199.93,41.66L200.07,41.77zM200.70,51.95L200.66,52.30L200.10,52.23L200.10,51.35z"/></g><g id="hotspot.2" onmouseover="ShowHotSpot(evt,'2')" onmouseout="HideHotSpot(evt,'2')" onmousemove="ShowToolTip(evt,'2',&quot;3dp330595&quot;)" opacity="0"><path style="fill:#00ff00;fill-rule:evenodd" d="M185.87,65.63L185.89,66.29L184.94,66.75L183.93,66.74L183.64,66.45L183.62,65.43L184.18,64.58L184.75,64.51zM206.16,76.04L206.05,77.17L205.24,77.25L204.78,76.32L204.11,76.13L204.19,75.32L205.32,75.21zM118.42,136.61L119.21,137.48L119.51,138.41L118.86,138.88L117.56,138.85L117.01,138.30L117.02,137.32L117.73,136.34zM127.71,142.42L128.55,143.52L128.57,144.18L128.27,144.45L127.07,144.64L127.21,143.77L126.90,143.47L126.03,143.60L126.06,143.11L126.77,142.11zM96.99,147.62L97.82,148.71L97.25,149.92L96.17,149.82L95.34,148.99L95.34,148.01L96.46,147.35zM97.59,151.77L97.54,152.09L96.91,152.31L96.89,159.53L106.05,159.69L106.05,164.74L87.56,164.74L87.56,159.69L96.45,159.53L96.42,152.30L95.78,152.01L96.74,150.35z"/></g><g id="hotspot.3" onmouseover="ShowHotSpot(evt,'3')" onmouseout="HideHotSpot(evt,'3')" onmousemove="ShowToolTip(evt,'3',&quot;3dp330299&quot;)" opacity="0"><path style="fill:#00ff00;fill-rule:evenodd" d="M194.61,69.20L194.61,70.66L194.00,70.87L192.98,70.86L192.69,70.57L192.68,69.27L193.14,68.61zM205.53,75.20L205.84,75.25L205.90,75.57L205.58,75.51zM205.09,76.59L204.96,77.44L203.93,77.44L203.93,76.41L204.78,76.28zM77.96,145.81L77.96,140.77L96.45,140.77L96.45,145.81L87.29,145.98L87.31,154.29L87.94,154.51L87.92,155.42L89.49,153.90L89.85,153.90L90.44,154.49L90.44,155.13L88.77,156.50L88.51,157.62L87.58,158.07L86.58,158.05L86.02,157.49L86.03,156.52L86.60,155.68L86.23,154.48L86.82,154.30L86.85,145.98zM135.32,146.50L135.64,146.55L135.69,146.87L135.38,146.81zM135.11,147.34L135.69,148.18L135.59,148.73L134.57,148.73L134.00,148.16L134.00,147.46L134.58,147.08z"/></g><g id="hotspot.4" onmouseover="ShowHotSpot(evt,'4')" onmouseout="HideHotSpot(evt,'4')" onmousemove="ShowToolTip(evt,'4',&quot;3dp330783&quot;)" opacity="0"><path style="fill:#00ff00;fill-rule:evenodd" d="M203.02,33.65L203.02,28.60L221.50,28.60L221.50,33.65L212.34,33.81L212.36,38.02L212.99,38.24L213.04,38.55L212.20,39.97L211.28,38.21L211.88,38.02L211.91,33.81zM213.29,41.22L212.91,42.61L211.51,42.86L210.17,44.00L209.35,44.07L209.06,43.39L210.80,41.84L210.78,41.05L212.09,40.38L212.45,40.38z"/></g><g id="hotspot.5" onmouseover="ShowHotSpot(evt,'5')" onmouseout="HideHotSpot(evt,'5')" onmousemove="ShowToolTip(evt,'5',&quot;3dp330786&quot;)" opacity="0"><path style="fill:#00ff00;fill-rule:evenodd" d="M119.77,136.37L120.58,138.58L126.06,141.95L126.53,140.76L127.14,140.74L129.92,142.68L130.18,145.50L127.97,146.90L126.79,147.90L124.05,148.45L123.48,149.57L123.07,149.57L122.23,148.72L121.12,148.46L120.55,149.36L120.57,150.18L121.12,150.08L121.70,150.65L121.70,151.29L120.77,152.05L119.76,152.03L119.18,151.22L119.19,148.80L119.49,148.29L119.48,146.80L118.36,143.54L118.40,142.26L118.67,141.97L118.67,141.04L117.41,138.89L118.86,138.88L119.51,138.41L119.21,137.48L118.42,136.61L117.73,136.34L116.71,137.85L116.46,136.39L116.46,134.53L116.75,134.45zM127.44,149.53L126.97,150.54L125.97,150.19L125.98,148.42L126.31,148.40zM127.18,151.29L126.97,150.54L127.15,150.68zM132.28,163.31L134.57,163.36L134.73,161.06L150.75,161.06L150.75,166.11L134.73,166.11L134.57,163.80L131.98,163.61L132.05,163.01zM127.71,142.42L128.55,143.52L128.57,144.18L127.62,144.64L126.58,144.65L126.02,144.09L126.07,143.08L126.77,142.11z"/></g><g id="hotspot.6" onmouseover="ShowHotSpot(evt,'6')" onmouseout="HideHotSpot(evt,'6')" onmousemove="ShowToolTip(evt,'6',&quot;3dp330012&quot;)" opacity="0"><path style="fill:#00ff00;fill-rule:evenodd" d="M191.66,91.37L191.91,92.05L191.49,92.49L182.03,103.59L180.18,105.87L179.96,105.95L174.05,113.72L168.73,120.19L152.83,138.86L151.82,138.88L147.16,136.10L147.13,135.65L149.92,130.87L148.99,130.06L165.17,111.42L172.70,101.67L184.64,87.81L185.01,87.81zM182.47,105.75L186.95,105.77L187.11,103.47L203.40,103.47L203.40,108.52L187.11,108.52L186.95,106.21L182.46,106.24L182.28,106.83L180.18,105.87L181.94,105.07L182.25,105.12zM140.07,152.81L138.84,154.47L128.21,166.91L128.28,168.02L125.21,171.83L125.23,175.33L125.78,179.72L125.80,183.11L124.58,184.91L122.42,186.04L118.91,186.04L113.47,183.25L111.54,181.63L111.23,180.83L111.23,178.42L117.16,168.17L117.58,167.75L117.54,165.53L122.12,160.22L122.23,163.10L121.12,165.00L119.47,167.21L119.41,168.21L118.59,168.20L118.13,168.87L112.32,178.69L112.33,180.56L113.19,181.62L115.39,182.98L119.18,184.95L121.87,184.95L123.91,183.96L124.70,182.56L124.41,178.07L123.75,172.60L124.14,171.59L124.13,168.99L123.58,169.09L123.52,170.41L123.04,170.43L121.95,169.85L121.95,168.02L123.78,165.74L125.25,163.65L125.22,156.52L132.52,148.18z"/></g><g id="hotspot.7" onmouseover="ShowHotSpot(evt,'7')" onmouseout="HideHotSpot(evt,'7')" onmousemove="ShowToolTip(evt,'7',&quot;3dp329864&quot;)" opacity="0"><path style="fill:#00ff00;fill-rule:evenodd" d="M136.65,104.95L136.65,99.90L155.14,99.90L155.14,104.95L145.98,105.11L146.00,110.14L146.63,110.36L146.68,110.68L146.33,111.24L146.36,112.23L146.64,112.52L146.62,113.72L145.44,114.17L144.61,114.99L143.31,115.00L143.24,114.20L144.71,112.90L145.00,112.08L145.54,111.69L144.92,110.33L145.51,110.15L145.54,105.11zM127.20,143.77L127.07,144.64L126.60,144.67L126.01,144.08L126.04,143.60L126.90,143.47z"/></g></g></svg>
