<?xml version="1.0" encoding="UTF-8" standalone="no"?>
<svg xmlns="http://www.w3.org/2000/svg" xmlns:xlink="http://www.w3.org/1999/xlink" width="297.000mm" height="210.000mm" viewBox="0.000000 0.000000 297.000000 210.000000" stroke-linejoin="round" stroke-linecap="round" fill="none" fill-rule="evenodd"><desc>Composer Export</desc><script type="text/ecmascript"><![CDATA[
if(typeof(top) != "undefined")
{
	top.ShowPaper = ShowPaper;
}
function ShowHotSpot(evt,hotspotid)
{
	var svgDocument = evt.target.ownerDocument;
	var strId = "hotspot."+hotspotid;
	var hotspot = svgDocument.getElementById(strId);
	if(hotspot)
		hotspot.setAttribute("opacity",".5");
}
function HideHotSpot(evt,hotspotid)
{
	var svgDocument = evt.target.ownerDocument;
	var strId = "hotspot."+hotspotid;
	var hotspot = svgDocument.getElementById(strId);
	if(hotspot)
		hotspot.setAttribute("opacity","0");

	var toolTip = svgDocument.getElementById('ToolTip');
	if(toolTip)
		toolTip.setAttribute("visibility","hidden");
}
function ShowToolTip(evt,hotspotid,strTooltip)
{
	if(strTooltip=="")
	return;

	// change text
	var svgDocument = evt.target.ownerDocument;
	var tiptext = svgDocument.getElementById('ToolTipText');
	if( !tiptext )
	return;
	tiptext.firstChild.nodeValue = " " + strTooltip + "  " ;

	// show tooltip before, else some refresh issue

	var toolTip = svgDocument.getElementById('ToolTip');
	if(!toolTip)
	return;

	toolTip.setAttribute("visibility","visible");
	toolTip.setAttribute("opacity",".95");

	// move tooltip
	// get viewbox

	var root = svgDocument.documentElement;
	var vbox = (root.getAttribute("viewBox")).split(' ');
	var x0 = parseFloat(vbox[0]);
	var y0 = parseFloat(vbox[1]);
	var vboxW = parseFloat(vbox[2]);
	var vboxH = parseFloat(vbox[3]);

	// get default width of svg

	var strW = root.getAttribute("width");
	var svgW = parseFloat(strW);
	if(strW.indexOf('mm') != -1)
	svgW *= 3.779;

	var strH = root.getAttribute("height");
	var svgH = parseFloat(strH);
	if(strH.indexOf('mm') != -1)
	svgH *= 3.779;  	// 96 dpi  -> 96/25.4 = 3.779

	// update the viewbox / width / height if svg is embedded in html with zoom fit all
	var realx0 = x0;
	var realy0 = y0;
	var realvboxW = vboxW;
	var realvboxH = vboxH;
	var realsvgW = svgW;
	var realsvgH = svgH;

	if ((typeof(top) == "undefined") || (typeof(top.svgctl1) != "undefined")) // embedded in html
	{
		// get window size in pxl

		svgW = window.innerWidth;
		svgH = window.innerHeight;

		// calculate real viewbox

		realsvgW = svgW;
		realsvgH = svgH;
		if((svgW / svgH) > (vboxW / vboxH))
		{
			realvboxW = (vboxH * svgW) / svgH;
			realvboxH = vboxH;
			realx0 = x0 - (realvboxW - vboxW)/2 ;
		}
		else
		{
			realvboxH = (vboxW * svgH) / svgW;
			realvboxW = vboxW;
			realy0 = y0 - (realvboxH - vboxH)/2 ;
		}
	}

	// get user zoom/pan

	var newScale = root.currentScale;
	var translation = root.currentTranslate;

	// transform pxl to user unit

	var xPos = (((evt.clientX+10- translation.x)/newScale) * realvboxW)/realsvgW  + realx0 ;
	var yPos = (((evt.clientY+5- translation.y)/newScale) * realvboxH)/ realsvgH  + realy0 ;
	var scaleForWidth = ( (1 / newScale) * realvboxH) / realsvgH;

	// move tooltip

	toolTip.setAttribute("transform", "translate(" + xPos + "," + yPos + ")" );

	// resize tooltip

	var fontsize = 12;
	tiptext.setAttribute("font-size",fontsize*scaleForWidth);
	tiptext.setAttribute("y", fontsize*scaleForWidth);
	var tipBG = svgDocument.getElementById('ToolTipBG');
	var outline = tiptext.getBBox();
	if(tipBG)
	{
		tipBG.setAttribute("stroke-width", 1*scaleForWidth);
		tipBG.setAttribute("width", Number(outline.width) );
		tipBG.setAttribute("height", Number(outline.height) + fontsize*.5*scaleForWidth );
	}
	var ToolTipShadow = svgDocument.getElementById('ToolTipShadow');
	if(ToolTipShadow)
	{
		ToolTipShadow.setAttribute("width", Number(outline.width) );
		ToolTipShadow.setAttribute("height", Number(outline.height) + fontsize*.5*scaleForWidth );
		ToolTipShadow.setAttribute("x", 3*scaleForWidth);
		ToolTipShadow.setAttribute("y", 3*scaleForWidth);
	}
}
function ShowPaper()
{
  var svgDocument = getDocument();
  var paper = svgDocument.getElementById("paperID");
  if(paper)
  {
    paper.setAttribute("transform","scale(1)");
    paper.setAttribute("opacity","1");
    paper.setAttribute("visibility","visible");
  }
  var svg = svgDocument.getRootElement();
  if(svg)
  {
    svg.setAttribute("width","307.000mm");
    svg.setAttribute("height","220.000mm");
    svg.setAttribute("viewBox","-5.000000 -5.000000 307.000000 220.000000");
  }
}
]]></script><defs/><g><g id="Actor_.0"><g style="stroke:#000000;stroke-width:0.123;stroke-opacity:0.29"><path d="M130.52,43.02L130.42,42.63L130.25,40.79L130.15,39.31L130.12,38.17L130.14,37.63L130.21,37.27L130.33,36.98L130.52,36.74L130.31,37.03L130.20,37.34L130.14,37.74L130.12,38.33L130.19,39.92L130.41,42.56L130.47,42.86L130.60,43.20L130.76,43.48L130.94,43.71L131.13,43.92L131.33,44.08L135.33,46.35L131.28,44.06L131.07,43.87L130.86,43.63L130.67,43.34L130.52,43.02"/><path d="M130.52,36.74L131.26,36.03L130.52,36.74"/><path d="M131.26,36.03L131.54,35.76L131.26,36.03"/><path d="M132.20,35.14L131.54,35.76L132.35,35.00L132.20,35.14"/><path d="M132.37,34.98L132.35,35.00L132.57,34.80L132.37,34.98"/><path d="M132.57,34.80L133.49,34.03L132.57,34.80"/><path d="M133.49,34.03L133.56,33.97L133.49,34.03"/><path d="M133.56,33.97L133.60,33.94L133.56,33.97"/><path d="M133.60,33.94L134.13,33.57L134.63,33.25L134.13,33.56L133.60,33.94"/><path d="M135.33,46.35L135.34,43.13L135.26,39.89L135.07,36.43L134.79,33.16L134.63,33.25L134.79,33.16"/><path d="M135.32,46.35L135.34,43.13L135.26,39.89L135.07,36.43L134.78,33.16"/></g></g><g id="Actor_.1"><g style="stroke:#000000;stroke-width:0.123;stroke-opacity:0.50"><path d="M90.17,49.21L90.22,49.19L90.30,49.15L89.38,49.59"/></g></g><g id="Actor_.2"><g style="stroke:#000000;stroke-width:0.123;stroke-opacity:0.25"><path d="M112.53,53.24L112.77,53.46L112.96,53.60L115.62,55.24L116.75,55.92L116.85,55.95L116.93,55.92L116.87,54.13L116.71,51.47L116.48,48.80L116.22,46.52L115.97,44.59L115.66,42.56L115.61,42.42L115.51,42.26L115.38,42.13L115.26,42.06L115.19,42.06L115.14,42.08L114.57,42.46L114.04,42.86L113.50,43.34L112.86,43.96L111.43,45.43L111.27,45.63L111.16,45.87L111.09,46.19L111.07,46.61L111.14,47.80L111.31,49.18L111.63,51.51L111.67,51.74L111.76,52.02"/><path d="M111.15,46.59L111.17,46.19L111.23,45.88L111.32,45.65L111.46,45.44L113.35,43.50L113.93,42.97L114.50,42.50L114.41,42.57"/><path d="M114.50,42.50L115.07,42.11L115.24,42.01L115.32,41.99L115.47,42.07L115.62,42.23L115.72,42.40L115.77,42.57L116.12,44.92L116.41,47.22L116.64,49.51L116.85,52.18L116.96,54.08L117.03,55.85L116.99,55.90L116.91,55.90L116.65,55.76"/><path d="M117.00,55.89L116.91,55.94"/></g></g><g id="Actor_.3"><g style="stroke:#000000;stroke-width:0.123;stroke-opacity:0.29"><path d="M138.48,46.01L139.19,46.23L142.33,46.97L142.91,47.16L143.38,47.38L144.96,48.25L146.47,49.02L148.14,50.02L148.72,50.28L149.09,50.34L149.43,50.26L149.68,50.05L149.93,49.68L150.02,47.57L150.05,45.63L150.01,43.84L149.88,41.77L149.72,40.09L149.51,38.56L149.29,37.82L148.93,37.13L148.68,36.79L148.36,36.43L147.67,35.89L146.20,35.04L144.02,33.87L141.89,32.79L140.08,31.96L138.97,31.59L138.47,31.49L138.05,31.45L137.93,31.49L137.81,31.62L137.76,31.80L137.74,32.03L138.02,35.24L138.18,38.50L138.23,41.60L138.16,45.31L138.20,45.47L138.48,46.01L139.19,46.23L142.34,46.97L142.92,47.16L143.38,47.37L144.97,48.25L146.47,49.01L148.15,50.02L148.72,50.28L149.09,50.34L149.43,50.25L149.68,50.05L149.94,49.67L150.03,47.57L150.05,45.63L150.01,43.84L149.89,41.77L149.72,40.08L149.52,38.56L149.29,37.82L148.93,37.13L148.68,36.78L148.36,36.43L147.68,35.89L146.20,35.04L144.02,33.86L141.90,32.78L140.09,31.96L138.97,31.59L138.48,31.49L138.05,31.45L137.93,31.48L137.81,31.62L137.76,31.79L137.75,32.03L138.02,35.23L138.18,38.50L138.23,41.60L138.16,45.32L138.20,45.47L138.48,46.01"/><path d="M137.91,31.50L137.91,31.50"/><path d="M149.47,50.23L149.47,50.23"/></g></g><g id="Actor_.4"><g style="stroke:#000000;stroke-width:0.123;stroke-opacity:0.25"><path d="M119.09,58.64L118.32,58.03L118.02,57.70L117.74,57.27L117.08,55.97L116.95,52.64L116.70,49.35L116.33,46.05L115.79,42.50L115.82,42.15L115.91,42.02L115.99,41.99L116.52,42.06L117.16,42.24L118.60,42.87L121.02,44.18L124.20,46.05L125.46,46.83L126.05,47.30L126.67,47.99L127.15,48.78L127.48,49.70L127.78,51.21L128.14,53.52L128.40,55.90L128.55,58.37L128.59,60.61L128.56,63.82L128.52,65.03L128.47,65.28L128.30,65.49L128.37,65.44L128.16,65.50L127.93,65.46L127.67,65.31L126.73,64.56"/><path d="M119.10,58.54L118.40,57.99L118.09,57.66L117.82,57.22L117.16,55.94L117.03,52.59L116.82,49.70L116.41,46.00L115.87,42.52L115.88,42.17L115.98,41.97L115.91,42.02"/><path d="M128.37,65.44L128.52,65.30L128.59,65.05L128.66,62.94L128.66,59.41L128.52,56.38L128.28,53.92L127.90,51.38L127.54,49.54L127.38,49.06L127.13,48.53L126.58,47.71L126.22,47.33L125.83,46.99L125.22,46.57L122.67,45.03L120.13,43.59L118.13,42.55L116.87,42.07L116.14,41.93L115.98,41.97"/><path d="M126.65,64.61L127.74,65.45L128.03,65.54L128.30,65.49"/></g></g><g id="Actor_.5"><g style="stroke:#000000;stroke-width:0.123;stroke-opacity:0.22"><path d="M70.85,34.80L70.33,34.95L67.37,36.28L61.93,38.90L57.50,41.28L53.77,43.53L51.99,44.95L50.55,46.57L48.53,49.15L47.28,50.99L47.18,51.31L47.77,51.05L52.01,48.20L55.32,46.28L59.80,43.96L64.68,41.69L70.50,39.21L75.52,37.28L79.99,35.80L85.08,34.39L86.42,33.85L87.30,33.22L91.45,27.80L87.30,33.22L86.42,33.86L85.08,34.40L79.99,35.80L75.52,37.29L70.51,39.22L64.69,41.69L59.80,43.96L55.32,46.28L52.01,48.20L47.78,51.05L47.18,51.31L47.20,51.13L47.62,50.48L49.13,48.34L50.96,46.09L52.22,44.76L53.44,43.78L54.87,42.83L60.04,39.89L63.72,38.01L68.17,35.92L70.60,34.85L70.81,34.80L70.93,35.01L71.44,34.78L73.37,33.65L79.13,31.31L84.07,29.51L88.19,28.21L90.50,27.61L91.13,27.57L91.43,27.71L91.45,27.77L91.33,27.61L90.98,27.56L89.94,27.72L86.74,28.64L83.45,29.72L78.42,31.58L73.50,33.59L72.65,34.01L71.46,34.76L70.90,35.01L70.85,34.81"/><path d="M47.18,51.31L47.18,51.31"/><path d="M91.45,27.73L91.44,27.73"/></g></g><g id="Actor_.6"><g style="stroke:#000000;stroke-width:0.123;stroke-opacity:0.50"><path d="M90.97,48.83L90.72,48.96"/><path d="M98.45,45.45L98.06,45.66L97.63,45.87L95.54,46.77L94.04,47.43L90.72,48.96"/></g></g><g id="Actor_.7"><g style="stroke:#000000;stroke-width:0.123;stroke-opacity:0.25"><path d="M63.64,67.72L63.78,67.77L65.88,65.25L67.75,63.23L71.48,59.77L73.35,58.38L75.41,56.99L80.80,53.77L84.08,51.98L88.54,49.74L93.98,47.17L98.90,44.99L102.36,43.57L106.33,42.10L109.93,40.93L112.48,40.29L112.54,40.18L112.27,40.15L111.61,40.30L107.04,41.69L103.15,43.10L98.86,44.84L93.95,47.01L88.45,49.61L83.99,51.85L80.70,53.63L75.31,56.86L73.25,58.25L71.27,59.73L69.07,61.71L67.24,63.52L65.78,65.12L63.65,67.69L64.19,67.28"/><path d="M63.75,67.83L64.03,67.62"/><path d="M107.91,45.02L105.54,47.59"/><path d="M112.51,40.29L112.58,40.31L112.55,40.19"/><path d="M112.41,40.58L112.60,40.34"/></g></g><g id="Actor_.8"><g style="stroke:#000000;stroke-width:0.123;stroke-opacity:0.29"><path d="M248.14,169.87L248.29,169.98L248.53,169.95L248.85,169.80L249.23,169.53L252.66,166.14L254.47,164.28L255.04,163.63L255.84,162.52L256.54,161.34L257.04,160.27L257.66,158.43L258.72,155.06L259.56,152.17L260.31,149.29L260.99,146.43L261.04,145.88L260.99,145.71L260.88,145.58L260.71,145.55L260.52,145.61L260.03,145.95L257.02,148.94L253.69,152.14L252.90,153.09L252.20,154.23L251.85,154.98L251.64,155.62L250.88,158.88L250.02,162.27L248.15,169.04L248.07,169.55L248.14,169.87"/><path d="M248.21,169.94L248.41,169.99L248.69,169.90L249.04,169.69L249.39,169.40L251.87,166.95L254.39,164.38L254.94,163.77L255.53,162.99L256.10,162.13L256.59,161.26L257.04,160.27L257.66,158.43L258.73,155.06L259.69,151.69L260.44,148.82L261.00,146.43L261.04,145.89L261.00,145.71L260.89,145.59"/><path d="M259.01,146.96L259.79,146.18L257.01,148.94L253.56,152.26L252.73,153.32L252.01,154.60L251.63,155.61L250.87,158.87L250.02,162.25L248.14,169.04L248.06,169.63L248.11,169.82L248.20,169.94"/><path d="M259.02,146.96L259.91,146.07"/><path d="M259.90,146.07L259.79,146.18L260.16,145.84L260.44,145.64L260.68,145.55L260.88,145.58"/></g></g><g id="Actor_.9"><g style="stroke:#000000;stroke-width:0.123;stroke-opacity:0.29"><path d="M48.27,81.43L48.43,82.86L48.50,83.27L48.73,83.88L49.07,84.51L49.30,84.80L50.16,85.62L52.70,87.95L52.59,86.38L52.48,84.30L52.41,82.51L52.38,80.50L52.39,78.39L52.43,76.54L52.49,74.73L52.61,72.51L52.14,72.80L51.63,73.16L50.72,73.93L50.06,74.56L49.22,75.44L48.48,76.24L48.32,76.48L48.22,76.74L48.16,77.06L48.11,77.46L48.10,78.06L48.14,79.70L48.27,81.43"/><path d="M52.69,87.95L50.80,86.23L49.30,84.80L49.03,84.46L48.77,84.00L48.50,83.31L48.40,82.69L48.17,80.29L48.09,78.32L48.11,77.50L48.17,76.96L48.27,76.59L48.44,76.29L49.76,74.87L50.82,73.83L51.67,73.13L52.60,72.51L52.48,74.73L52.42,76.54L52.38,78.40L52.38,80.50L52.41,82.51L52.47,84.30L52.58,86.38L52.70,87.95"/><path d="M52.61,72.51L52.60,72.51"/></g></g><g id="Actor_.10"><g style="stroke:#000000;stroke-width:0.123;stroke-opacity:0.25"><path d="M133.33,63.50L133.09,62.69L132.52,58.37L131.89,54.50L130.50,47.68L130.53,46.98L130.70,46.75L130.92,46.68L131.30,46.73L131.76,46.96L159.29,65.00L159.97,69.36L160.53,74.23L160.88,79.06L161.04,83.61L161.13,83.55L161.04,83.48"/><path d="M130.74,46.73L130.93,46.62L131.20,46.61L131.82,46.88L159.41,64.94L159.32,65.01"/><path d="M130.79,46.69L130.69,46.76"/><path d="M134.27,65.00L134.98,65.61L161.04,83.61"/><path d="M161.13,83.55L160.98,78.99L160.66,74.56L160.12,69.77L159.41,64.94"/></g></g><g id="Actor_.11"><g style="stroke:#000000;stroke-width:0.123;stroke-opacity:0.25"><path d="M66.68,73.13L66.57,70.96L66.57,69.19L66.61,68.49L66.67,67.88L66.76,67.44L66.89,67.08L67.06,66.81L67.33,66.52L68.61,65.24L69.57,64.35L70.23,63.80L70.86,63.33L71.55,62.89L71.67,62.88L71.77,62.97L71.87,63.13L71.92,63.32L71.93,63.49L71.61,67.34L71.40,71.36L71.32,74.82L71.33,76.93L71.37,78.83L71.35,78.89L71.29,78.91L71.18,78.85L70.18,78.02L68.23,76.35L67.83,75.99L67.62,75.77L67.42,75.49L67.23,75.16L66.91,74.44L66.75,73.83L66.68,73.13"/><path d="M66.79,73.09L66.68,70.92L66.68,69.16L66.72,68.46L66.78,67.84L66.87,67.40L67.00,67.05L67.17,66.77L67.43,66.49L68.71,65.23L69.68,64.33L70.34,63.78L70.97,63.30L71.67,62.86L71.78,62.85L71.88,62.94L71.97,63.09L72.04,63.29L72.05,63.46L71.72,67.31L71.51,71.32L71.43,74.78L71.44,76.88L71.48,78.78L71.46,78.85L71.40,78.86L71.29,78.80L70.29,77.98L68.34,76.31L67.90,75.91L67.73,75.73L67.35,75.15L67.02,74.40L66.86,73.79L66.79,73.09"/><path d="M71.44,78.86L71.33,78.90"/><path d="M71.71,62.84L71.60,62.87"/></g></g><g id="Actor_.12"><g style="stroke:#000000;stroke-width:0.123;stroke-opacity:0.29"><path d="M55.28,71.04L55.16,71.11L55.05,71.28L54.92,71.80L54.73,74.85L54.64,77.77L54.63,80.48L54.69,83.15L54.83,85.72L54.94,87.22L54.99,87.40L55.32,88.07L56.03,88.46L58.78,89.74L59.41,90.13L62.59,92.67L63.98,93.89L64.45,94.24L64.74,94.39L65.00,94.45L65.22,94.38L65.38,94.21L65.57,93.83L65.48,88.55L65.54,80.83L65.51,80.20L65.42,79.62L65.27,79.06L65.10,78.60L64.67,77.81L64.06,77.12L62.01,75.36L59.85,73.63L58.20,72.40L57.11,71.69L56.17,71.23L55.77,71.11L55.35,71.03L55.22,71.07L55.07,71.23L54.96,71.50L54.91,71.80L54.74,74.43L54.64,77.36L54.62,80.04L54.67,82.71L54.82,85.73L54.94,87.22L54.98,87.40L55.31,88.07L55.92,88.41L58.64,89.68L59.19,89.98L62.48,92.59L64.29,94.14L64.78,94.41L64.99,94.45L65.15,94.42"/><path d="M55.32,88.07L55.31,88.07"/><path d="M65.16,94.41L65.36,94.25L65.57,93.83L65.48,88.55L65.55,80.93L65.52,80.30L65.44,79.71L65.30,79.14L65.10,78.59L64.67,77.81L64.07,77.12L62.01,75.36L59.86,73.63L58.21,72.40L57.01,71.63L56.07,71.19L55.58,71.06L55.29,71.04"/></g></g><g id="Actor_.13"><g style="stroke:#000000;stroke-width:0.123;stroke-opacity:0.25"><path d="M205.41,114.26L223.93,127.05L226.37,128.47L227.81,129.10L229.94,129.83L233.00,130.68L234.99,131.10L236.02,131.19L236.75,131.07L237.44,130.71L237.91,130.12L238.72,127.85L239.36,125.59L240.01,122.75L240.43,120.31L240.42,119.68L240.22,119.04L239.84,118.34L239.30,117.65L238.67,117.05L237.94,116.52L205.30,95.14L205.36,99.59L205.27,104.29L204.96,109.55L204.57,113.68L205.41,114.26"/><path d="M205.40,95.21L205.40,95.05L238.04,116.42L238.77,116.96L239.40,117.56L239.94,118.24L240.32,118.94L240.53,119.67L240.52,120.31L239.88,123.72L239.08,126.87L238.09,129.83L237.89,130.23L237.55,130.61"/><path d="M205.30,95.14L205.40,95.05"/><path d="M237.61,130.55L237.52,130.64"/></g></g><g id="Actor_.14"><g style="stroke:#000000;stroke-width:0.123;stroke-opacity:0.25"><path d="M113.81,112.29L113.97,107.13L114.32,101.91L114.93,96.00L115.74,89.86L115.63,89.90L160.93,125.06L159.45,131.37L158.20,137.39L157.26,142.71L156.52,147.92L113.70,112.35L113.81,112.29L156.63,147.84L156.52,147.92"/><path d="M113.70,112.35L113.86,107.19L114.21,101.94L114.82,96.05L115.63,89.90"/><path d="M115.74,89.86L161.04,125.00L159.56,131.32L158.31,137.32L157.37,142.64L156.63,147.84"/><path d="M160.93,125.06L161.04,125.00"/></g></g><g id="Actor_.15"><g style="stroke:#000000;stroke-width:0.123;stroke-opacity:0.25"><path d="M72.99,81.23L72.68,80.89L72.46,80.54L71.68,78.91L71.59,76.18L71.64,71.83L71.72,69.78L71.93,66.72L72.26,63.33L72.43,62.89L72.58,62.74L72.74,62.69L73.64,62.89L74.70,63.36L75.85,64.06L77.61,65.28L79.79,66.91L81.70,68.43L82.01,68.74L82.33,69.16L82.77,70.00L83.01,70.92L83.09,71.86L82.78,78.79L82.63,83.52L82.61,86.23L82.69,89.36"/><path d="M74.20,82.25L73.06,81.17L72.72,80.76L72.37,80.15L71.79,78.93L71.75,78.76L71.68,76.14L71.69,73.78L71.82,69.74L72.03,66.70L72.33,63.50L72.48,62.96L72.64,62.74L72.77,62.67L72.67,62.70"/><path d="M72.77,62.67L73.23,62.72L73.65,62.83L74.20,63.04L74.79,63.33L76.21,64.21L78.08,65.52L79.59,66.66L81.80,68.41L82.11,68.72L82.43,69.13L82.86,69.97L83.11,70.89L83.18,71.83L82.87,78.75L82.72,83.47L82.70,86.18L82.78,89.43"/></g></g><g id="Actor_.16"><g style="stroke:#000000;stroke-width:0.123;stroke-opacity:0.25"><path d="M86.10,80.84L86.23,75.71L86.58,69.91L86.84,68.92L87.07,68.60L87.35,68.42L87.06,68.55L86.77,68.87L86.58,69.33L86.47,69.90L86.19,74.25L86.00,79.52L86.00,83.60L86.13,87.54L86.38,88.67L86.90,89.76L87.35,90.39L87.86,90.89L113.59,112.26L113.68,112.21L113.91,106.03L114.34,100.37L114.81,95.91L115.62,89.77L115.51,89.81L115.15,92.42L114.22,100.47L113.78,106.39L113.59,112.26"/><path d="M113.70,112.20L88.10,90.95L87.47,90.36L86.69,89.11L86.27,87.77L86.13,84.63L86.10,80.95"/><path d="M87.35,68.42L87.85,68.45L88.34,68.73L115.51,89.81"/><path d="M87.45,68.39L87.89,68.40L88.46,68.70L115.62,89.77"/></g></g><g id="Actor_.17"><g style="stroke:#000000;stroke-width:0.123;stroke-opacity:0.29"><path d="M228.82,186.35L228.86,186.58L228.99,186.77L228.84,186.53L228.82,186.13L229.63,182.02L231.56,172.76L231.77,172.10L232.15,171.35L232.53,170.75L232.97,170.17L233.44,169.65L233.88,169.25L237.42,166.42L241.55,163.03L241.87,162.82L242.20,162.67L242.48,162.63L242.69,162.69L242.47,162.63L242.22,162.67L241.94,162.79L241.57,163.02L237.33,166.50L233.92,169.22L233.46,169.65L233.00,170.14L232.56,170.72L232.17,171.32L231.79,172.08L231.58,172.70L229.42,183.09L228.86,185.93L228.82,186.35"/><path d="M229.00,186.78L229.24,186.87L229.57,186.83L229.97,186.67L230.45,186.38L234.82,182.77L236.75,181.12L237.38,180.50L238.31,179.39L239.06,178.25L239.42,177.56L239.67,176.88L240.81,172.57L241.75,168.74L242.89,163.53L242.89,162.98L242.82,162.82L242.70,162.69L242.81,162.80L242.89,163.00L242.89,163.47L241.81,168.43L240.83,172.46L239.68,176.85L239.41,177.55L239.06,178.23L238.22,179.49L237.28,180.60L236.72,181.13L234.11,183.36L230.95,185.99L230.37,186.42L229.91,186.69L229.51,186.84L229.19,186.86L228.96,186.75"/><path d="M242.72,162.71L242.69,162.69"/><path d="M242.67,162.68L242.70,162.69L242.67,162.68"/></g></g><g id="Actor_.18"><g style="stroke:#000000;stroke-width:0.123;stroke-opacity:0.25"><path d="M156.91,148.24L156.66,148.03L157.40,142.82L158.03,139.13L159.26,132.95L161.07,125.17L194.19,150.88L195.05,151.81L195.62,152.81L195.93,153.98L195.91,155.05L195.64,155.96L193.45,161.71L190.73,168.21L190.12,168.94L189.50,169.30L188.66,169.46L187.70,169.38L185.14,168.69L181.70,167.44L179.54,166.46L177.54,165.25L175.86,163.97L156.91,148.24"/><path d="M156.66,148.03L156.77,147.95L176.19,164.07L178.40,165.66L179.90,166.51L181.57,167.26L186.21,168.91L187.50,169.24L188.52,169.38L189.42,169.28L190.12,168.94L190.02,169.02"/><path d="M156.77,147.95L156.91,146.87"/><path d="M156.93,146.69L157.75,141.29L158.73,135.99L161.18,125.11L194.06,150.62L194.76,151.25L195.30,151.94L195.73,152.74L196.01,153.67L196.07,154.50L195.92,155.39L193.78,161.08L191.72,166.15L190.84,168.13L190.48,168.63L190.12,168.94"/><path d="M161.18,125.11L161.07,125.17"/></g></g><g id="Actor_.19"><g style="stroke:#000000;stroke-width:0.123;stroke-opacity:0.25"><path d="M160.32,70.17L159.59,65.20L205.17,95.05L205.23,99.86L205.12,104.62L204.87,109.04L204.44,113.59L161.35,83.82L160.95,76.19L160.32,70.17"/><path d="M159.71,65.28L159.69,65.12L159.59,65.20"/><path d="M159.69,65.12L205.27,94.97L205.17,95.05"/><path d="M204.44,113.59L204.46,113.47"/><path d="M204.54,113.52L204.96,108.97L205.22,104.54L205.32,99.77L205.27,94.97"/></g></g><g id="Actor_.20"><g style="stroke:#000000;stroke-width:0.123"><path d="M116.13,54.91L115.90,54.76L115.85,54.30L116.32,54.61L116.38,55.07L116.13,54.91"/></g></g><g id="Actor_.21"><g style="stroke:#000000;stroke-width:0.123"><path d="M121.79,60.90L121.76,60.94L121.74,60.98L121.65,61.55L123.81,63.26L123.91,62.69L123.93,62.64L123.97,62.61"/><path d="M122.00,61.50L122.01,61.49L122.02,61.47L122.03,61.44L122.02,61.41L122.00,61.37L121.99,61.35L121.96,61.34L121.94,61.34L121.93,61.35L121.91,61.37L121.91,61.40L121.92,61.43L121.93,61.46L121.95,61.49L121.98,61.50L122.00,61.50"/><path d="M123.81,63.26L123.83,63.25L123.93,62.67L123.95,62.64L123.98,62.62"/><path d="M123.54,62.66L123.54,62.71L123.57,62.76L123.59,62.78L123.60,62.79L123.62,62.79L123.64,62.78L123.65,62.76L123.66,62.72L123.65,62.68L123.63,62.65L123.60,62.63L123.57,62.62L123.55,62.63L123.54,62.66"/></g></g><g id="Actor_.22"><g style="stroke:#000000;stroke-width:0.123"><path d="M154.15,47.62L153.79,44.01L153.28,40.05L153.31,39.76L153.40,39.54L153.62,39.35L153.84,39.31L154.20,39.38L154.52,39.54L175.77,52.50L176.21,52.92L176.66,53.53L177.01,54.21L177.16,54.79L177.45,59.25L177.58,62.98L177.60,66.21L177.54,66.52L177.41,66.77L177.19,66.94L176.92,67.02L176.59,66.99L176.15,66.80L155.71,53.78L155.32,53.40L154.97,52.95L154.70,52.44L154.51,51.93L154.43,51.48L154.15,47.62"/></g></g><g id="Actor_.23"><g style="stroke:#000000;stroke-width:0.123"><path d="M126.67,64.34L126.65,64.58L126.67,64.60L126.71,64.56L126.73,64.50L126.72,64.27L126.74,64.23L126.81,64.19L126.83,64.16L126.82,64.10L126.77,64.05L126.79,64.03L126.81,64.04L126.84,64.09L126.85,64.16L126.82,64.21L126.76,64.24L126.73,64.27L126.75,64.51L126.71,64.59L126.65,64.62L126.63,64.59L126.65,64.35L126.67,64.34L119.13,58.40L119.10,58.41L119.09,58.67L119.16,58.73"/><path d="M119.10,58.41L126.65,64.35"/><path d="M119.26,58.15L119.28,58.24L119.18,58.32L119.17,58.35L119.18,58.44"/><path d="M126.77,64.05L119.22,58.12L119.24,58.09L126.81,64.04"/><path d="M119.24,58.09L126.79,64.03"/><path d="M126.64,64.62L126.63,64.61"/></g></g><g id="Actor_.24"><g style="stroke:#000000;stroke-width:0.123"><path d="M126.61,64.69L119.16,58.82L119.17,58.49L126.63,64.36L126.60,64.67L126.62,64.70L126.73,64.65L126.77,64.60L126.79,64.27L126.75,64.24"/><path d="M119.17,58.49L119.19,58.48L126.65,64.35L126.63,64.36"/><path d="M126.79,64.27L126.77,64.28L126.74,64.61L126.64,64.67L126.65,64.35"/><path d="M126.77,64.28L126.74,64.26"/></g></g><g id="Actor_.25"><g style="stroke:#000000;stroke-width:0.123"><path d="M110.73,41.02L111.02,41.05L111.07,41.20L108.30,43.89L105.98,46.33L105.39,46.74L103.96,47.35L98.73,48.89L93.59,50.74L88.77,52.74L83.15,55.32L77.52,58.17L73.05,60.72L69.17,63.25L65.75,65.84"/><path d="M65.86,65.72L69.57,62.94L73.37,60.49L77.89,57.93L83.31,55.19L89.34,52.44L94.02,50.51L98.66,48.85L103.93,47.29L105.29,46.70L105.89,46.29L108.02,44.04L110.92,41.19L110.77,41.09L110.45,41.09"/><path d="M98.64,45.37L97.54,45.93L92.33,48.22L86.81,50.85"/><path d="M98.45,45.45L89.18,49.69"/></g></g><g id="Actor_.26"><g style="stroke:#000000;stroke-width:0.123"><path d="M64.03,67.62L63.75,67.83L65.63,65.54L67.37,63.61L69.32,61.70L71.40,59.84L73.25,58.44L75.33,57.04L81.02,53.64L84.80,51.61L89.69,49.19L94.66,46.86L99.69,44.66L104.33,42.82L108.45,41.39L111.84,40.39L112.59,40.32L112.41,40.58"/><path d="M65.75,65.84L69.17,63.25L73.03,60.74L77.52,58.17L83.15,55.32L88.77,52.74L93.59,50.74L98.73,48.89L103.92,47.37L105.39,46.74L105.98,46.32L108.30,43.89L111.07,41.20L110.99,41.03L110.73,41.02"/><path d="M90.17,49.21L90.97,48.83"/><path d="M105.54,47.59L107.85,45.07"/></g></g><g id="Actor_.27"><g style="stroke:#000000;stroke-width:0.123"><path d="M145.76,70.83L145.34,70.54L145.32,70.31L145.74,70.60L145.76,70.83"/></g></g><g id="Actor_.28"><g style="stroke:#000000;stroke-width:0.123"><path d="M223.69,163.68L223.18,164.12L224.94,156.03L226.06,150.33L226.96,145.00L227.70,139.70L235.32,133.40L242.53,127.20L242.98,126.89L243.28,126.87L243.38,127.07L243.37,127.42L242.97,130.12L242.38,133.43L241.70,136.70L240.66,141.03L239.58,145.06L239.28,145.91L238.77,146.98L237.88,148.50L236.01,151.32L234.66,153.18L233.60,154.46L232.17,155.92L229.06,158.86L223.69,163.68"/><path d="M228.87,155.46L228.72,155.18L228.74,154.58L230.15,147.92L231.39,141.10L231.84,139.87L232.40,138.93L233.19,138.00L239.65,132.22L240.16,131.94L240.47,131.97L240.65,132.23L240.66,132.77L239.61,138.37L238.79,141.94L237.96,145.15L237.57,146.57L237.18,147.53L236.26,149.07L235.18,150.33L230.11,155.02L229.36,155.48L229.07,155.53L228.87,155.46"/></g></g><g id="Actor_.29"><g style="stroke:#000000;stroke-width:0.123"><path d="M132.57,51.20L132.49,50.58L132.62,50.21L132.77,50.12L132.96,50.10L133.49,50.30L154.36,64.07L155.08,64.71L155.59,65.38L155.94,66.06L156.06,66.47L156.22,67.60L156.71,71.57L157.06,75.53L157.21,77.99L157.16,78.31L157.00,78.57L156.82,78.68L156.54,78.71L156.24,78.64L155.87,78.44L135.78,64.62L135.27,64.18L134.68,63.32L134.34,62.40L133.60,56.84L132.57,51.20"/><path d="M133.60,56.17L132.62,50.90L132.68,50.45L132.79,50.32L132.96,50.26L133.24,50.31L133.58,50.48L154.38,64.21L154.82,64.56L155.21,64.99L155.56,65.51L155.79,65.97L155.94,66.46L156.46,70.46L156.84,74.30L157.08,77.84L157.04,78.16L156.91,78.40L156.74,78.51L156.49,78.54L156.19,78.47L155.86,78.30L135.46,64.24L134.85,63.45L134.48,62.55L133.60,56.17"/></g></g><g id="Actor_.30"><g style="stroke:#000000;stroke-width:0.123"><path d="M70.73,77.21L70.91,77.37L70.96,77.87L70.53,77.49L70.48,76.99L70.73,77.21"/></g></g><g id="Actor_.31"><g style="stroke:#000000;stroke-width:0.123"><path d="M230.20,98.85L229.89,98.15L229.81,97.48L230.63,91.45L231.26,84.79L231.38,84.48L231.59,84.27L231.86,84.16L232.23,84.15L232.67,84.25L233.19,84.50L259.40,100.32L259.95,100.74L260.34,101.22L260.58,101.73L260.63,102.15L260.01,104.71L259.25,107.30L258.47,109.55L257.70,111.44L257.31,111.89L256.77,112.16L256.29,112.23L255.46,112.18L253.49,111.86L250.23,111.12L248.51,110.60L247.26,110.01L245.31,108.86L231.32,100.00L230.76,99.55L230.20,98.85"/></g></g><g id="Actor_.32"><g style="stroke:#000000;stroke-width:0.123"><path d="M240.48,133.87L239.82,137.34L238.79,141.93L237.61,146.44L237.35,147.15L237.05,147.78L236.68,148.42L236.18,149.17L235.72,149.76L235.22,150.29L230.14,155.00L229.55,155.40L229.30,155.50L229.02,155.53L228.86,155.46L228.75,155.30L228.70,155.07L228.72,154.67L229.92,149.03"/><path d="M228.84,154.86L228.88,155.09L228.98,155.24L229.08,155.31L229.27,155.33L229.74,155.15L230.29,154.74L233.23,152.05L235.43,149.97L235.83,149.51L236.30,148.88L236.99,147.75L237.45,146.67L237.96,144.80L238.86,141.21L239.49,138.41L240.02,135.78L240.52,132.91L240.52,132.43L240.44,132.26L240.32,132.16L240.02,132.17L239.56,132.45L236.29,135.41L233.25,138.09L232.87,138.48L232.50,138.95L231.93,139.89L231.70,140.43L231.52,141.03L230.44,147.04L229.73,150.55L228.89,154.40L228.84,154.86"/><path d="M229.92,149.03L230.29,147.20"/><path d="M230.30,147.12L230.46,146.30"/><path d="M230.62,145.47L230.47,146.26"/><path d="M234.18,137.13L233.12,138.06L232.67,138.57L232.11,139.37L231.67,140.24L231.38,141.12L230.65,145.32"/><path d="M234.22,137.09L238.43,133.33"/><path d="M240.48,133.87L240.66,132.79L240.68,132.43L240.61,132.12L240.50,131.99L240.41,131.94L240.09,131.96L239.74,132.16L238.54,133.23"/></g></g><g id="Actor_.33"><g style="stroke:#000000;stroke-width:0.123"><path d="M134.27,65.00L134.98,65.61L161.04,83.61L160.88,79.06L160.56,74.63L160.03,69.85L159.32,65.02L131.78,46.98L131.28,46.72L130.90,46.68L130.69,46.76L130.53,46.99L130.50,47.68L131.89,54.50L132.52,58.37L133.08,62.66L133.33,63.50"/><path d="M132.51,50.91L133.59,56.78L134.35,62.46L134.69,63.35L135.25,64.15L135.78,64.62L155.85,78.42L156.53,78.71L156.75,78.70L156.98,78.59L157.14,78.37L157.21,77.99L157.10,76.06L156.75,71.96L156.29,68.06L155.96,66.11L155.61,65.42L155.10,64.72L154.36,64.07L133.48,50.30L133.04,50.11L132.68,50.16L132.51,50.44L132.51,50.91"/></g></g><g id="Actor_.34"><g style="stroke:#000000;stroke-width:0.123"><path d="M116.62,55.77L114.73,54.64L112.66,53.35L112.34,53.03L112.02,52.59L111.80,52.13L111.69,51.75L111.33,49.04L111.17,47.52L111.15,46.69L111.18,46.38L111.24,46.13L111.34,45.93L111.48,45.76L112.91,44.30L113.56,43.68L114.42,42.95L114.95,42.58L115.20,42.42L115.24,42.41L115.33,42.53L115.48,43.46L115.75,45.34L115.99,47.22L116.19,49.09L116.38,51.33L116.52,53.57L116.62,55.77L116.75,55.69L116.59,52.33L116.33,49.09L115.94,45.66L115.68,43.78L115.45,42.40L115.38,42.32L115.33,42.32L114.49,42.90"/><path d="M116.42,55.29L112.79,53.06L112.53,52.80L112.27,52.44L112.10,52.09L112.01,51.77L111.69,49.39L111.52,47.82L111.47,46.88L111.49,46.57L111.54,46.32L111.62,46.13L111.74,45.95L112.49,45.19L113.71,43.97L114.17,43.56L114.65,43.16"/><path d="M111.83,51.48L111.91,52.01L112.04,52.33L112.31,52.77L112.63,53.12L112.84,53.26L116.42,55.45L116.27,52.28L116.01,49.14L115.66,46.03L115.19,42.79L114.38,43.37L113.56,44.09L111.67,45.99L111.53,46.16L111.45,46.32L111.39,46.52L111.35,46.78L111.36,47.58L111.52,49.18L111.83,51.48"/><path d="M114.42,42.95L114.55,42.85"/></g></g><g id="Actor_.35"><g style="stroke:#000000;stroke-width:0.123"><path d="M203.76,112.49L203.49,112.54L203.66,112.44L203.77,112.16L204.10,108.16L204.31,104.18L204.38,99.41L204.34,96.13L204.13,95.59L203.75,95.11L160.67,66.74L160.32,66.59L160.03,66.67L159.98,67.03L160.61,71.56L161.07,75.97L161.46,83.10L161.63,83.62L161.98,84.12L202.77,112.34L203.18,112.54L203.46,112.55"/><path d="M160.19,66.35L160.02,66.68L160.35,66.22L160.94,66.40L203.64,94.39L204.12,94.80L204.58,95.41L204.77,95.95L204.79,101.91L204.60,106.69L204.25,111.36L204.14,112.20L203.82,112.48"/><path d="M160.08,66.57L160.02,66.70"/><path d="M203.77,112.13L203.41,112.18L203.05,112.01L162.29,83.85L161.99,83.42L161.85,83.00L161.40,75.15L160.41,66.61"/></g></g><g id="Actor_.36"><g style="stroke:#000000;stroke-width:0.123"><path d="M134.43,126.62L134.45,126.35L133.97,125.95L133.95,126.22L134.43,126.62"/></g></g><g id="Actor_.37"><g style="stroke:#000000;stroke-width:0.123"><path d="M221.46,122.50L221.82,122.75L221.79,122.98L221.22,122.59L221.25,122.36L221.46,122.50"/></g></g><g id="Actor_.38"><g style="stroke:#000000;stroke-width:0.123"><path d="M208.37,113.29L208.49,113.82L208.81,114.46L209.27,115.06L209.76,115.49L224.32,125.50L226.37,126.78L227.51,127.32L229.12,127.87L231.80,128.65L233.73,129.10L234.73,129.24L235.18,129.20L235.67,128.99L236.02,128.61L236.69,126.70L237.30,124.56L237.83,122.28L238.27,119.91L238.34,119.41L238.29,119.09L238.06,118.62L237.73,118.20L237.18,117.73L210.70,100.31L210.20,100.04L209.73,99.91L209.44,99.93L209.22,100.04L209.07,100.23L209.00,100.49L208.83,106.75L208.37,113.29"/><path d="M208.61,113.77L208.52,113.20L209.00,106.88L209.17,100.64L209.24,100.36L209.37,100.20L209.57,100.11L209.82,100.09L210.24,100.20L210.67,100.43L237.16,117.87L237.63,118.26L237.95,118.67L238.14,119.13L238.01,120.21L237.56,122.55L237.01,124.84L236.41,126.88L235.87,128.43L235.54,128.80L235.05,129.02L234.60,129.05L233.61,128.91L231.71,128.46L229.06,127.69L227.48,127.15L226.35,126.62L224.32,125.35L209.79,115.36L209.09,114.67L208.79,114.19L208.61,113.77"/></g></g><g id="Actor_.39"><g style="stroke:#000000;stroke-width:0.123"><path d="M86.47,86.39L86.53,87.78L86.73,88.61L87.17,89.56L87.81,90.33L112.49,110.81L112.99,111.04L113.27,110.91L113.39,110.55L113.67,104.23L114.25,97.58"/><path d="M86.85,88.53L87.31,89.50L87.95,90.21L112.50,110.55L112.77,110.70L113.04,110.66L113.15,110.40L113.34,105.47L113.71,100.44L114.13,96.26L114.80,90.90L114.75,90.36L114.54,89.88L114.07,89.41L88.39,69.44L87.86,69.20L87.60,69.25L87.38,69.42L87.20,69.71L87.09,70.13L86.76,75.00L86.60,79.38L86.57,83.25L86.70,87.80L86.85,88.53"/><path d="M86.40,83.03L86.47,86.35"/><path d="M86.39,82.94L86.48,77.04L86.88,70.21L86.97,69.64L87.16,69.21L87.44,68.95L87.80,68.87L88.42,69.14L114.45,89.38L114.90,90.14L115.06,90.99L114.26,97.47"/></g></g><g id="Actor_.40"><g style="stroke:#000000;stroke-width:0.123"><path d="M205.50,114.10L205.16,113.58L205.02,113.04L205.39,108.73L205.59,105.13L205.69,101.40L205.68,96.94L205.81,96.68L206.05,96.62L206.62,96.84L237.65,117.22L238.66,118.05L239.09,118.58L239.40,119.16L239.54,119.69L239.53,120.21L239.02,123.03L238.47,125.44L237.86,127.61L237.09,129.81L236.72,130.30L236.11,130.65L235.43,130.77L234.46,130.68L232.56,130.28L229.60,129.45L227.49,128.73L226.03,128.10L223.74,126.76L205.85,114.41L205.50,114.10"/><path d="M232.26,129.80L229.79,129.10L227.69,128.39L226.25,127.76L224.80,126.97L206.09,114.10L205.66,113.67"/><path d="M205.69,96.87L205.79,96.47L206.02,96.27L206.36,96.27L206.80,96.46L237.91,116.87L238.57,117.35L239.12,117.90L239.77,118.89L239.93,119.39L239.97,119.86L239.54,122.40L238.99,124.87L238.26,127.53L237.44,129.82L237.16,130.18L236.80,130.45L235.96,130.71"/><path d="M205.77,96.54L205.76,96.57"/><path d="M235.64,130.75L235.97,130.71"/></g></g><g id="Actor_.41"><g style="stroke:#000000;stroke-width:0.123"><path d="M86.33,88.05L86.23,87.40L86.13,84.63L86.11,79.47L86.23,75.71L86.55,70.29L86.67,69.39L86.87,68.86L87.24,68.48L87.69,68.37L88.04,68.45L88.46,68.70L115.62,89.77L114.81,95.91L114.21,101.80L113.85,107.04L113.70,112.20L87.90,90.78L87.41,90.28L86.96,89.63L86.57,88.83L86.33,88.05"/><path d="M87.54,79.26L87.90,72.27L88.01,71.84L88.23,71.50L88.53,71.33L88.84,71.32L89.35,71.57L110.39,88.00L110.76,88.36L111.11,88.85L111.40,89.50L111.60,90.27L111.63,90.89L110.81,99.06L110.43,106.03L110.23,106.60L110.00,106.77L109.65,106.80L108.99,106.45L88.75,89.73L88.11,88.89L87.66,87.82L87.54,87.10L87.50,85.35"/><path d="M87.50,85.34L87.53,79.26"/></g></g><g id="Actor_.42"><g style="stroke:#000000;stroke-width:0.123"><path d="M87.93,88.55L88.36,89.28L88.86,89.82L108.99,106.45L109.35,106.69L109.69,106.80L109.99,106.77L110.23,106.60L110.36,106.36L110.43,106.04L110.83,98.84L111.63,90.88L111.51,89.83L111.06,88.77L110.77,88.37L110.39,88.00L89.35,71.57L89.01,71.37L88.73,71.30L88.47,71.34L88.25,71.49L88.07,71.73L87.93,72.12L87.63,76.67L87.49,81.17L87.51,85.93L87.57,87.41L87.93,88.55"/><path d="M88.38,89.15L87.91,88.29L87.67,87.35L87.60,84.06L87.62,80.47L87.76,76.65L88.02,72.38L88.11,72.02L88.30,71.71L88.51,71.55L88.77,71.50L89.05,71.57L89.34,71.74L110.37,88.17L110.96,88.85L111.36,89.78L111.49,90.81L110.68,98.89L110.30,105.92L110.12,106.42L109.93,106.57L109.69,106.62L109.35,106.53L109.05,106.34L88.85,89.67L88.38,89.15"/></g></g><g id="Actor_.43"><g style="stroke:#000000;stroke-width:0.123"><path d="M205.41,114.26L223.87,127.01L225.16,127.82L226.40,128.49L228.05,129.19L230.43,129.97L233.40,130.78L235.17,131.13L236.10,131.19L236.91,131.02L237.54,130.62L237.92,130.09L238.72,127.85L239.36,125.59L240.01,122.75L240.43,120.31L240.42,119.68L240.22,119.04L239.84,118.34L239.30,117.65L238.70,117.08L237.94,116.52L205.30,95.14L205.36,99.28L205.27,104.29L205.03,108.67L204.57,113.68L205.41,114.26"/><path d="M208.36,113.24L208.49,113.83L208.73,114.32L209.12,114.89L209.65,115.40L223.96,125.25L226.25,126.72L227.35,127.26L229.17,127.89L233.55,129.07L234.62,129.23L235.17,129.20L235.62,129.02L236.04,128.57L237.10,125.33L237.77,122.54L238.17,120.53L238.33,119.27L238.12,118.72L237.81,118.28L237.18,117.73L210.70,100.31L210.16,100.02L209.76,99.92L209.25,100.02L209.07,100.23L209.01,100.45L208.82,107.06L208.36,113.24"/></g></g><g id="Actor_.44"><g style="stroke:#000000;stroke-width:0.123"><path d="M91.79,48.20L91.88,48.37L98.88,45.22L104.37,43.03L109.88,41.18L111.97,40.59L112.30,40.54L112.41,40.60L109.14,43.74L105.28,47.81L104.65,48.05L99.07,49.54L94.43,51.12L88.83,53.38L82.55,56.23L76.77,59.19L72.00,61.96L67.95,64.67L64.17,67.70L66.26,65.17L68.26,63.03L71.43,60.08L73.19,58.74L76.67,56.44L80.75,54.03L85.90,51.27L91.81,48.40L91.73,48.23L91.46,48.35"/><path d="M90.60,48.76L85.58,51.22L80.64,53.87L76.10,56.56L72.66,58.87L70.40,60.74L67.51,63.51L64.02,67.55L64.13,67.72"/><path d="M91.81,48.40L86.08,51.22L81.54,53.62L77.21,56.14L73.39,58.62L71.81,59.80L68.85,62.49L66.90,64.53L64.47,67.38L68.37,64.31L72.31,61.68L77.08,58.93L82.47,56.19L88.92,53.24L94.32,51.05L99.40,49.32L104.99,47.79L108.70,43.87L111.98,40.75L111.60,40.78L108.45,41.70L102.91,43.64L97.72,45.77L91.70,48.47"/><path d="M111.77,40.73L108.65,43.70L104.94,47.63L99.35,49.16L94.87,50.67L89.47,52.81L83.07,55.70L77.67,58.41L72.91,61.10L68.73,63.82L65.11,66.61"/><path d="M91.70,48.48L91.88,48.37"/><path d="M112.35,40.42L111.81,40.44L109.18,41.20L103.80,43.05L98.82,45.04L92.17,48.02"/><path d="M112.35,40.41L112.41,40.58"/></g></g><g id="Actor_.45"><g style="stroke:#000000;stroke-width:0.123"><path d="M67.49,75.15L67.71,75.48L67.96,75.74L69.61,77.18L71.29,78.57L71.25,74.88L71.30,71.77L71.40,69.49L71.51,67.64L71.68,65.40L71.88,63.31L71.87,63.24L71.81,63.16L71.34,63.44L70.71,63.88L70.07,64.38L69.52,64.87L68.65,65.69L67.39,66.95L67.21,67.18L67.07,67.47L66.99,67.78L66.93,68.12L66.85,69.14L66.83,70.67L66.89,72.28L66.98,73.61L67.03,73.99L67.21,74.57L67.49,75.15"/><path d="M67.81,75.37L67.57,75.04L67.33,74.55L67.20,74.15L67.14,73.77L67.02,71.84L66.99,70.15L67.04,68.68L67.10,68.20L67.20,67.78L67.33,67.49L67.49,67.26L69.42,65.36L70.52,64.41L71.02,64.04L71.66,63.61L71.33,67.52L71.15,70.86L71.09,72.75L71.07,74.71L71.12,78.21L69.17,76.58L67.81,75.37"/><path d="M71.12,78.01L69.63,76.77L68.05,75.39L67.81,75.10L67.55,74.61L67.35,74.04L67.28,73.39L67.17,71.19L67.17,69.35L67.22,68.51L67.30,67.98L67.42,67.60L67.59,67.30L68.78,66.10L70.00,64.95L70.83,64.26L71.65,63.68"/><path d="M71.30,78.57L71.46,78.50L71.41,74.86L71.47,71.53L71.56,69.47L71.68,67.54L71.85,65.30L72.05,63.26L72.01,63.14L71.96,63.12"/><path d="M71.66,63.61L71.66,63.61"/><path d="M71.80,63.16L71.97,63.11"/></g></g><g id="Actor_.46"><g style="stroke:#000000;stroke-width:0.123"><path d="M158.22,148.72L157.58,147.87L157.40,147.39L157.35,146.94L158.17,141.53L159.43,134.90L161.18,127.15L161.31,126.84L161.52,126.63L162.04,126.52L162.61,126.79L194.11,151.26L194.85,152.06L195.32,152.93L195.55,153.85L195.52,154.67L195.01,156.23L192.95,161.62L190.40,167.68L189.92,168.29L189.30,168.67L188.54,168.83L187.76,168.77L185.48,168.20L182.07,166.99L179.68,165.94L177.74,164.78L176.04,163.50L158.22,148.72"/><path d="M158.05,148.24L176.09,163.24L177.75,164.49L179.64,165.62L182.00,166.65L185.40,167.85L187.63,168.41L188.37,168.47L189.07,168.32L189.65,167.96L190.10,167.40L192.62,161.38L195.17,154.47L195.20,153.73L194.98,152.88L194.56,152.17L193.92,151.51L162.54,127.10L162.11,126.90L161.70,126.98L161.45,127.38L160.05,133.44L158.92,138.97L157.60,147.07L157.70,147.65L158.05,148.24"/></g></g><g id="Actor_.47"><g style="stroke:#000000;stroke-width:0.123"><path d="M114.30,107.41L114.17,111.34L114.44,112.15L114.97,112.86L155.23,146.25L155.85,146.56L156.25,146.45L156.42,146.07L157.16,141.18L158.08,136.06L160.23,126.26L160.13,125.38L159.69,124.57L116.95,91.31L116.58,91.12L116.13,91.22L115.86,91.73L115.08,97.88"/><path d="M114.62,105.89L114.39,111.43L114.59,112.08L114.93,112.55L155.26,145.98L155.75,146.22L156.06,146.10L157.80,135.88L159.95,126.03L159.84,125.34L159.49,124.76L116.92,91.62L116.56,91.46L116.24,91.59L116.09,91.91L115.02,100.89"/><path d="M114.30,107.38L114.40,105.71"/><path d="M114.40,105.68L114.78,100.89"/><path d="M115.01,101.03L114.62,105.86"/><path d="M114.78,100.88L115.08,97.89"/></g></g><g id="Actor_.48"><g style="stroke:#000000;stroke-width:0.123"><path d="M131.54,52.35L130.65,48.09L130.69,47.64L130.93,47.43L131.23,47.46L131.61,47.66L157.79,64.85L158.18,65.18L158.54,65.66L158.75,66.16L159.58,72.21L159.89,75.34L160.14,78.76L160.28,82.18L160.15,82.57L159.87,82.63L159.53,82.48L134.76,65.37L134.13,64.86L133.56,64.05L133.24,63.18L132.46,57.45L131.54,52.35"/><path d="M130.70,47.61L130.85,47.31"/><path d="M130.87,47.28L131.02,47.12L131.25,47.08L131.86,47.33L158.09,64.53L158.64,65.03L159.09,65.79L159.28,66.75L159.91,71.42L160.39,76.37L160.68,82.18L160.52,82.52L159.98,82.64"/><path d="M160.28,82.30L160.03,82.29L159.80,82.18L134.89,65.00L134.38,64.56L134.00,64.03"/></g></g><g id="Actor_.49"><g style="stroke:#000000;stroke-width:0.123"><path d="M113.81,112.29L156.63,147.84L157.37,142.64L158.31,137.32L159.56,131.32L161.04,125.00L115.74,89.86L114.93,96.00L114.32,101.89L113.97,107.06L113.81,112.29"/><path d="M118.76,98.80L119.03,96.76L119.26,96.21L119.83,95.84L120.21,95.86L120.66,96.06L153.53,121.73L154.08,122.28L154.77,123.63L154.90,124.90L153.32,132.79L152.15,140.17L151.89,140.78L151.61,140.96L151.21,141.00L150.23,140.52L118.98,114.70L118.24,113.84L117.71,112.68L117.58,111.93L117.66,110.30"/><path d="M118.50,100.88L117.67,110.20"/><path d="M118.53,100.66L118.75,98.82"/></g></g><g id="Actor_.50"><g style="stroke:#000000;stroke-width:0.123"><path d="M153.67,130.93L154.92,124.60L154.85,123.93L154.65,123.26L154.33,122.64L153.86,122.02L120.81,96.16L120.42,95.93L120.05,95.83L119.70,95.87L119.37,96.07L119.16,96.37L119.02,96.79L118.52,100.66L117.96,106.11L117.62,110.98L117.58,111.93L117.68,112.58L117.97,113.36L118.46,114.15L118.98,114.70L150.39,140.63L150.84,140.89L151.27,141.00L151.64,140.95L151.88,140.79L152.13,140.28L152.35,138.76"/><path d="M118.03,113.24L118.48,114.00L118.99,114.54L150.25,140.36L150.71,140.65L151.14,140.79L151.51,140.76L151.79,140.55L151.98,140.12L153.40,131.36L154.74,124.76L154.63,123.68L154.08,122.53L153.49,121.91L120.78,96.34L120.12,96.04L119.59,96.17L119.22,96.69L118.75,100.06L118.14,105.71L117.79,110.52L117.73,112.15L118.03,113.24"/><path d="M152.35,138.74L153.66,130.96"/></g></g><g id="Actor_.51"><g style="stroke:#000000;stroke-width:0.123"><path d="M100.42,124.56L101.28,125.63L132.29,153.10L133.22,153.65L133.71,153.66L134.00,153.49L134.24,152.99L135.15,145.48L136.47,137.46L136.46,136.76L136.29,136.02L136.00,135.29L135.61,134.64L134.95,133.91L102.45,106.65L101.98,106.35L101.54,106.25L101.28,106.29L100.95,106.50L100.62,107.21L99.94,115.48L99.72,122.50L99.93,123.53L100.42,124.56"/></g></g><g id="Actor_.52"><g style="stroke:#000000;stroke-width:0.123"><path d="M37.21,97.10L37.25,97.43L39.69,100.01"/><path d="M44.54,104.53L44.53,104.48L37.44,96.98L37.42,96.98"/><path d="M41.79,102.24L44.34,104.94L44.31,104.60"/><path d="M44.45,104.91L44.38,104.94L44.34,104.94"/><path d="M44.53,104.48L44.50,104.49L44.41,104.40"/><path d="M44.35,104.78L44.34,104.63"/><path d="M44.35,104.81L44.36,104.91L44.43,104.90"/></g></g><g id="Actor_.53"><g style="stroke:#000000;stroke-width:0.123"><path d="M44.40,104.38L44.32,104.52L44.32,104.62L37.14,97.02L37.14,96.92L37.22,96.78L44.42,104.39L37.22,96.78"/><path d="M44.40,104.43L44.56,104.60L44.59,104.58L44.41,104.40"/><path d="M44.56,104.60L44.58,104.86L44.55,104.90L44.50,104.91L44.46,104.87L44.50,104.59L44.46,104.56L44.37,104.60L44.34,104.59L44.37,104.48L44.42,104.39"/><path d="M44.35,104.82L44.45,104.91L44.43,104.87L44.47,104.60L44.44,104.59L44.36,104.63L44.32,104.62"/><path d="M44.47,104.60L44.46,104.59"/><path d="M44.45,104.91L44.47,104.93L44.53,104.93L44.60,104.88L44.59,104.58"/><path d="M44.38,104.45L44.49,104.58"/></g></g><g id="Actor_.54"><g style="stroke:#000000;stroke-width:0.123"><path d="M41.76,101.94L39.70,99.75L39.67,99.77L39.69,100.05L39.70,100.08L41.77,102.26L41.75,102.23L41.73,101.95L41.76,101.94L41.79,102.23"/><path d="M40.18,100.58L40.23,100.69L40.24,100.76L40.19,100.75L40.11,100.65L40.05,100.53L40.04,100.45L40.06,100.46"/><path d="M40.04,100.45L40.05,100.45"/><path d="M39.67,99.77L41.73,101.95"/><path d="M41.61,102.20L40.25,100.76"/><path d="M40.14,100.66L40.09,100.57L40.08,100.53L40.09,100.52L40.12,100.54L40.16,100.60L40.19,100.66L40.19,100.68L40.19,100.70L40.17,100.69L40.14,100.66"/><path d="M40.23,100.69L40.26,100.67"/><path d="M40.24,100.76L40.31,100.72"/><path d="M41.79,102.23L41.79,102.24"/><path d="M41.77,102.26L41.80,102.28L41.83,102.28"/><path d="M42.15,102.62L42.19,102.76L42.16,102.78L42.11,102.57"/><path d="M42.16,102.78L41.80,102.40"/><path d="M41.70,102.31L41.73,102.34L41.74,102.34L41.74,102.33L41.74,102.29L41.71,102.23L41.67,102.18L41.65,102.16L41.64,102.16L41.63,102.18L41.64,102.22L41.70,102.31"/><path d="M41.61,102.09L41.59,102.13L41.62,102.24L41.70,102.35L41.77,102.41L41.79,102.37L41.75,102.26L41.72,102.21"/><path d="M41.77,102.41L41.89,102.35"/><path d="M41.75,102.26L41.76,102.26"/><path d="M41.79,102.37L41.88,102.33"/></g></g><g id="Actor_.55"><g style="stroke:#000000;stroke-width:0.123"><path d="M49.48,93.78L49.40,93.92L49.39,94.01L56.60,101.37L56.60,101.27L56.68,101.13L49.48,93.78L56.70,101.14L56.63,101.26L56.62,101.35L56.72,101.31L56.76,101.33L56.65,101.21"/><path d="M56.60,101.37L56.63,101.38L56.71,101.34L56.74,101.35L56.70,101.62L56.72,101.67L49.52,94.32L49.50,94.28L49.52,94.14"/><path d="M49.52,94.32L49.52,94.32"/><path d="M56.68,101.13L56.70,101.14"/><path d="M56.74,101.35L56.73,101.34"/><path d="M56.72,101.67L56.80,101.67L56.86,101.61L56.85,101.33L56.82,101.35L56.83,101.62L56.77,101.65L56.73,101.63L56.76,101.33"/><path d="M56.82,101.35L56.67,101.19"/><path d="M56.85,101.33L56.68,101.17"/></g></g><g id="Actor_.56"><g style="stroke:#000000;stroke-width:0.123"><path d="M218.89,149.57L213.03,153.94L212.45,154.51L212.03,155.04L211.67,155.61L211.38,156.18L211.23,156.59L211.13,157.06L209.54,168.30L209.28,170.43L209.32,170.80L209.48,171.06L209.72,171.18L210.14,171.17L210.56,171.02L211.14,170.68L215.67,167.19L217.25,165.94L217.81,165.42L218.33,164.85L218.77,164.29L219.16,163.70L219.54,162.98L219.86,162.12L220.24,160.28"/><path d="M209.45,170.33L209.49,170.61L209.57,170.80L209.75,170.95L209.99,171.00L210.26,170.97L210.56,170.87L211.24,170.48L214.36,168.09L217.40,165.68L217.92,165.19L218.38,164.66L218.79,164.11L219.18,163.49L219.53,162.76L219.72,162.18L220.51,158.17L221.20,154.34L222.08,148.76L222.08,148.48L222.03,148.25L221.96,148.13L221.81,148.01L221.62,147.96L221.37,147.99L221.10,148.09L220.80,148.27L217.21,151.00L213.20,153.96L212.83,154.28L212.37,154.78L211.74,155.71L211.49,156.25L211.32,156.84L210.11,165.23L209.45,170.33"/><path d="M221.31,154.51L222.22,148.75L222.24,148.29L222.17,148.03L222.04,147.85L221.78,147.75L221.54,147.76L221.16,147.89L220.77,148.13L218.90,149.57"/><path d="M221.31,154.52L220.24,160.27"/></g></g><g id="Actor_.57"><g style="stroke:#000000;stroke-width:0.123"><path d="M173.60,158.89L174.17,159.37L174.22,159.10L173.65,158.63L173.60,158.89"/></g></g><g id="Actor_.58"><g style="stroke:#000000;stroke-width:0.123"><path d="M161.30,149.39L162.12,150.33L176.55,162.25L178.65,163.85L179.91,164.58L182.20,165.53L185.32,166.58L187.16,167.01L187.69,167.05L188.25,166.93L188.73,166.63L189.04,166.22L191.13,161.20L193.67,154.45L193.67,153.92L193.52,153.38L193.21,152.83L192.81,152.41L166.03,131.49L165.59,131.21L165.13,131.07L164.77,131.07L164.40,131.20L164.11,131.46L163.91,131.84L162.23,139.29L161.36,143.72L160.73,147.46L160.84,148.39L161.30,149.39"/><path d="M161.11,148.82L161.53,149.54L162.08,150.15L176.61,162.15L178.54,163.62L179.79,164.37L181.90,165.25L184.96,166.31L186.95,166.81L187.56,166.87L188.12,166.76L188.59,166.47L188.89,166.09L190.94,161.17L193.51,154.32L193.50,153.87L193.36,153.39L193.06,152.87L192.70,152.52L165.99,131.64L165.58,131.39L165.17,131.26L164.85,131.25L164.55,131.35L164.14,131.76L163.38,134.76L162.09,140.74L160.97,146.89L160.86,147.85L161.11,148.82"/></g></g><g id="Actor_.59"><g style="stroke:#000000;stroke-width:0.123"><path d="M98.53,96.76L98.47,96.71L98.47,96.97L98.88,97.31L98.88,97.05L98.53,96.76"/></g></g><g id="Actor_.60"><g style="stroke:#000000;stroke-width:0.123"><path d="M206.41,174.00L206.67,174.26L207.12,174.40L208.61,174.29L209.46,174.14L210.20,173.92L211.49,173.31L212.95,172.31L216.81,169.34L223.01,164.26L224.58,157.15L225.65,151.81L226.80,145.15L227.55,139.83L219.31,146.38L210.19,153.38L209.52,153.98L209.01,154.63L208.77,155.14L208.62,155.73L207.14,166.48L206.29,173.22L206.29,173.69L206.41,174.00"/><path d="M220.58,158.53L219.88,162.04L219.71,162.59L219.05,163.87L218.24,164.96L217.14,166.02L211.31,170.56L210.51,171.04L209.88,171.20L209.65,171.16L209.46,171.04L209.33,170.81L209.28,170.48L210.05,164.55"/><path d="M210.05,164.55L211.17,156.85L211.40,156.14L211.93,155.19L212.54,154.41L213.22,153.78L220.81,148.10L221.23,147.86L221.71,147.74L221.98,147.81L222.17,148.02L222.24,148.64L221.12,155.59"/><path d="M220.59,158.48L221.10,155.71"/></g></g><g id="Actor_.61"><g style="stroke:#000000;stroke-width:0.123"><path d="M164.43,75.09L163.93,70.70L164.10,70.24L164.47,70.11L164.82,70.18L165.29,70.42L198.74,92.49L199.24,93.02L199.67,93.64L199.94,94.22L200.05,94.72L200.09,98.94L200.00,102.88L199.78,107.03L199.58,107.55L199.30,107.73L198.91,107.77L198.49,107.67L198.04,107.44L166.12,85.44L165.37,84.48L164.99,83.46L164.75,78.97L164.43,75.09"/><path d="M164.43,74.05L164.05,70.81L164.19,70.39L164.56,70.25L165.30,70.54L198.24,92.22L198.78,92.65L199.57,93.64L199.82,94.20L199.91,94.70L199.96,98.75L199.88,102.65L199.65,106.94L199.46,107.42L199.21,107.59L198.90,107.63L198.49,107.54L198.05,107.32L166.15,85.36L165.46,84.47L165.09,83.47L164.84,78.56L164.43,74.05"/></g></g><g id="Actor_.62"><g style="stroke:#000000;stroke-width:0.123"><path d="M160.32,70.17L159.59,65.20L205.17,95.05L205.23,99.86L205.12,104.62L204.87,109.04L204.44,113.59L161.35,83.82L160.95,76.19L160.32,70.17"/><path d="M164.43,75.10L163.93,70.75L164.03,70.33L164.43,70.11L164.85,70.19L165.29,70.42L198.76,92.52L199.65,93.61L199.93,94.19L200.05,94.79L200.01,102.68L199.78,107.03L199.58,107.55L199.34,107.72L198.94,107.78L198.06,107.45L166.12,85.44L165.42,84.56L164.99,83.47L164.43,75.10"/></g></g><g id="Actor_.63"><g style="stroke:#000000;stroke-width:0.123"><path d="M157.11,148.24L156.77,147.95L158.01,139.81L159.34,133.04L161.18,125.11L194.30,150.82L195.16,151.75L195.73,152.74L196.04,153.92L196.02,154.98L195.75,155.89L193.57,161.62L190.84,168.13L190.31,168.79L189.66,169.20L188.76,169.38L187.81,169.30L185.73,168.77L182.10,167.48L179.73,166.42L177.73,165.22L175.97,163.89L157.11,148.24"/><path d="M161.71,141.89L160.72,147.72L160.87,148.49L161.12,149.07L161.57,149.76L161.98,150.21L176.70,162.37L179.17,164.18L180.07,164.65L182.30,165.56L186.25,166.83L187.81,167.04L188.33,166.90L188.77,166.58L189.09,166.12L190.62,162.49L193.62,154.64L193.69,154.22L193.62,153.69L193.20,152.83L192.75,152.36L165.86,131.37L165.02,131.06L164.58,131.12L164.23,131.33L163.91,131.84L163.47,133.68"/><path d="M163.45,133.77L161.72,141.84"/></g></g><g id="Actor_.64"><g style="stroke:#000000;stroke-width:0.123"><path d="M70.91,97.44L70.56,96.31L70.44,94.80L70.25,89.65L70.24,85.55L70.39,80.89L70.49,80.52L70.65,80.23L70.87,80.05L71.13,79.98L71.54,80.07L71.86,80.29L92.64,97.69L93.09,98.16L93.39,98.62L93.65,99.14L93.89,99.85L94.02,100.94L93.72,104.75L93.47,109.18L93.35,116.19L93.29,116.55L93.14,116.83L92.91,117.00L92.62,117.01L92.30,116.90L91.88,116.60L71.99,99.02L71.45,98.40L70.91,97.44"/></g></g><g id="Actor_.65"><g style="stroke:#000000;stroke-width:0.123"><path d="M139.76,163.21L139.69,162.35L140.31,157.43L141.05,152.79L142.16,146.88L142.31,146.45L142.65,146.06L142.99,145.92L143.50,145.94L143.95,146.11L144.42,146.44L171.11,169.09L171.72,169.79L172.14,170.78L172.20,171.29L172.14,171.76L169.67,178.98L167.93,183.50L167.51,183.90L166.89,184.11L166.34,184.08L165.25,183.80L162.76,182.86L160.57,181.90L158.91,181.07L157.93,180.43L155.94,178.80L141.12,165.53L140.26,164.40L139.76,163.21"/></g></g><g id="Actor_.66"><g style="stroke:#000000;stroke-width:0.123"><path d="M182.52,95.82L182.03,95.48L182.02,95.72L182.51,96.05L182.52,95.82"/></g></g><g id="Actor_.67"><g style="stroke:#000000;stroke-width:0.123"><path d="M186.01,70.46L186.03,64.25L185.77,58.02L185.83,57.68L185.99,57.42L186.48,57.25L186.88,57.32L187.33,57.53L220.21,77.41L220.95,78.00L221.38,78.49L221.80,79.19L221.98,79.68L222.04,80.20L221.52,87.73L220.99,92.43L220.84,92.88L220.54,93.16L220.10,93.28L219.55,93.20L218.96,92.92L187.55,72.99L186.91,72.44L186.46,71.83L186.14,71.14L186.01,70.46"/></g></g><g><g><path style="stroke:#000000;stroke-width:0.208;stroke-dasharray:2.2 2.2" d="M132.68,38.46L113.85,47.63"/></g></g><g><g><path style="stroke:#000000;stroke-width:0.208;stroke-dasharray:2.2 2.2" d="M143.46,41.50L121.85,52.35"/></g></g><g><g><path style="stroke:#000000;stroke-width:0.208;stroke-dasharray:2.2 2.2" d="M68.91,38.21L87.84,52.17"/></g></g><g><g><path style="stroke:#000000;stroke-width:0.208;stroke-dasharray:2.2 2.2" d="M165.27,53.12L144.67,64.36"/></g></g><g><g><path style="stroke:#000000;stroke-width:0.208;stroke-dasharray:2.2 2.2" d="M69.40,69.26L50.43,78.49"/></g></g><g><g/></g><g><g><path style="stroke:#000000;stroke-width:0.208;stroke-dasharray:2.2 2.2" d="M77.42,85.30L40.92,101.03"/></g></g><g><g><path style="stroke:#000000;stroke-width:0.208;stroke-dasharray:2.2 2.2" d="M77.45,74.64L60.21,83.29"/></g></g><g><g><path style="stroke:#000000;stroke-width:0.208;stroke-dasharray:2.2 2.2" d="M203.02,75.09L181.48,88.75"/></g></g><g><g/></g><g><g/></g><g><g><path style="stroke:#000000;stroke-width:0.208;stroke-dasharray:2.2 2.2" d="M99.13,88.91L81.81,98.34"/></g></g><g><g><path style="stroke:#000000;stroke-width:0.208;stroke-dasharray:2.2 2.2" d="M244.42,99.97L222.55,116.39"/></g></g><g><g><path style="stroke:#000000;stroke-width:0.208;stroke-dasharray:2.2 2.2" d="M135.32,118.02L117.16,129.54"/></g></g><g><g><path style="stroke:#000000;stroke-width:0.208;stroke-dasharray:2.2 2.2" d="M234.60,143.96L254.45,158.02"/></g></g><g><g><path style="stroke:#000000;stroke-width:0.208;stroke-dasharray:2.2 2.2" d="M176.42,151.06L155.14,167.03"/></g></g><g><g><path style="stroke:#000000;stroke-width:0.208;stroke-dasharray:2.2 2.2" d="M215.51,159.85L235.60,175.15"/></g></g><g id="PMI20.0"><g><path style="stroke:#000000;stroke-width:0.281" d="M124.82,24.06L128.00,24.06L131.61,33.72"/></g><g><path style="fill:#000000" d="M130.68,34.10L132.55,33.39L132.32,35.62z"/></g><g><path style="fill:#ffffff" d="M109.47,26.62L125.46,26.62L125.46,21.55L109.47,21.55z"/><path style="stroke:#000000;stroke-width:0.281;stroke-opacity:0.98" d="M109.47,26.62L125.46,26.62L125.46,21.55L109.47,21.55z"/><text xml:space="preserve" fill="#000000" stroke-width="0" x="110.11" y="25.20" font-size="3.05" opacity="1.00" font-family="Microsoft Sans Serif">100159W0</text></g></g><g id="PMI21.0"><g><path style="stroke:#000000;stroke-width:0.281" d="M107.54,64.39L110.71,64.39L113.36,55.62"/></g><g><path style="fill:#000000" d="M114.33,55.92L112.41,55.34L113.95,53.72z"/></g><g><path style="fill:#ffffff" d="M89.73,66.94L108.19,66.94L108.19,61.86L89.73,61.86z"/><path style="stroke:#000000;stroke-width:0.281;stroke-opacity:0.98" d="M89.73,66.94L108.19,66.94L108.19,61.86L89.73,61.86z"/><text xml:space="preserve" fill="#000000" stroke-width="0" x="90.36" y="65.51" font-size="2.79" opacity="1.00" font-family="Microsoft Sans Serif">3701049426</text></g></g><g id="PMI12.0"><g><path style="stroke:#000000;stroke-width:0.281" d="M143.70,28.54L143.79,32.51"/></g><g><path style="fill:#000000" d="M142.79,32.54L144.79,32.50L143.84,34.52z"/></g><g><path style="fill:#ffffff" d="M136.07,28.54L151.20,28.54L151.20,23.47L136.07,23.47z"/><path style="stroke:#000000;stroke-width:0.281;stroke-opacity:0.98" d="M136.07,28.54L151.20,28.54L151.20,23.47L136.07,23.47z"/><text xml:space="preserve" fill="#000000" stroke-width="0" x="136.71" y="27.12" font-size="3.04" opacity="1.00" font-family="Microsoft Sans Serif">100159X0</text></g></g><g id="PMI18.0"><g><path style="stroke:#000000;stroke-width:0.281" d="M68.12,29.63L67.94,34.43"/></g><g><path style="fill:#000000" d="M66.95,34.40L68.95,34.48L67.87,36.44z"/></g><g><path style="fill:#ffffff" d="M60.66,29.64L75.79,29.64L75.79,24.56L60.66,24.56z"/><path style="stroke:#000000;stroke-width:0.281;stroke-opacity:0.98" d="M60.66,29.64L75.79,29.64L75.79,24.56L60.66,24.56z"/><text xml:space="preserve" fill="#000000" stroke-width="0" x="61.29" y="28.21" font-size="3.04" opacity="1.00" font-family="Microsoft Sans Serif">100159P0</text></g></g><g id="PMI13.0"><g><path style="stroke:#000000;stroke-width:0.281" d="M113.30,32.57L116.47,32.57L119.38,41.92"/></g><g><path style="fill:#000000" d="M118.43,42.23L120.34,41.64L119.98,43.84z"/></g><g><path style="fill:#ffffff" d="M95.49,35.13L113.94,35.13L113.94,30.05L95.49,30.05z"/><path style="stroke:#000000;stroke-width:0.281;stroke-opacity:0.98" d="M95.49,35.13L113.94,35.13L113.94,30.05L95.49,30.05z"/><text xml:space="preserve" fill="#000000" stroke-width="0" x="96.12" y="33.70" font-size="2.79" opacity="1.00" font-family="Microsoft Sans Serif">3701049307</text></g></g><g id="PMI25.0"><g><path style="stroke:#000000;stroke-width:0.281" d="M135.52,80.85L138.69,80.85L143.15,72.74"/></g><g><path style="fill:#000000" d="M144.03,73.23L142.27,72.27L144.11,70.99z"/></g><g><path style="fill:#ffffff" d="M117.70,83.39L136.16,83.39L136.16,78.31L117.70,78.31z"/><path style="stroke:#000000;stroke-width:0.281;stroke-opacity:0.98" d="M117.70,83.39L136.16,83.39L136.16,78.31L117.70,78.31z"/><text xml:space="preserve" fill="#000000" stroke-width="0" x="118.33" y="81.96" font-size="2.79" opacity="1.00" font-family="Microsoft Sans Serif">3701076408</text></g></g><g id="PMI24.0"><g><path style="stroke:#000000;stroke-width:0.281" d="M172.36,41.36L169.19,41.36L166.44,44.99"/></g><g><path style="fill:#000000" d="M165.64,44.39L167.23,45.60L165.23,46.59z"/></g><g><path style="fill:#ffffff" d="M171.72,43.90L186.85,43.90L186.85,38.82L171.72,38.82z"/><path style="stroke:#000000;stroke-width:0.281;stroke-opacity:0.98" d="M171.72,43.90L186.85,43.90L186.85,38.82L171.72,38.82z"/><text xml:space="preserve" fill="#000000" stroke-width="0" x="172.36" y="42.47" font-size="3.04" opacity="1.00" font-family="Microsoft Sans Serif">100159Y0</text></g></g><g id="PMI29.0"><g><path style="stroke:#000000;stroke-width:0.281" d="M56.79,66.86L59.97,66.86L65.51,69.56"/></g><g><path style="fill:#000000" d="M65.09,70.47L65.97,68.67L67.33,70.45z"/></g><g><path style="fill:#ffffff" d="M38.99,69.41L57.45,69.41L57.45,64.33L38.99,64.33z"/><path style="stroke:#000000;stroke-width:0.281;stroke-opacity:0.98" d="M38.99,69.41L57.45,69.41L57.45,64.33L38.99,64.33z"/><text xml:space="preserve" fill="#000000" stroke-width="0" x="39.63" y="67.98" font-size="2.79" opacity="1.00" font-family="Microsoft Sans Serif">3701049418</text></g></g><g id="PMI19.0"><g><path style="stroke:#000000;stroke-width:0.281" d="M87.70,42.71L87.84,48.15"/></g><g><path style="fill:#000000" d="M86.85,48.18L88.84,48.13L87.89,50.15z"/></g><g><path style="fill:#ffffff" d="M78.48,43.35L96.94,43.35L96.94,38.27L78.48,38.27z"/><path style="stroke:#000000;stroke-width:0.281;stroke-opacity:0.98" d="M78.48,43.35L96.94,43.35L96.94,38.27L78.48,38.27z"/><text xml:space="preserve" fill="#000000" stroke-width="0" x="79.12" y="41.93" font-size="2.79" opacity="1.00" font-family="Microsoft Sans Serif">3701049102</text></g></g><g id="PMI28.0"><g><path style="stroke:#000000;stroke-width:0.281" d="M42.93,79.33L46.93,79.25"/></g><g><path style="fill:#000000" d="M46.97,80.26L46.93,78.26L48.95,79.22z"/></g><g><path style="fill:#ffffff" d="M27.47,82.02L42.95,82.02L42.95,76.94L27.47,76.94z"/><path style="stroke:#000000;stroke-width:0.281;stroke-opacity:0.98" d="M27.47,82.02L42.95,82.02L42.95,76.94L27.47,76.94z"/><text xml:space="preserve" fill="#000000" stroke-width="0" x="28.11" y="80.59" font-size="3.04" opacity="1.00" font-family="Microsoft Sans Serif">100159Q0</text></g></g><g id="PMI6.0"><g><path style="stroke:#000000;stroke-width:0.281" d="M46.37,109.10L49.54,109.10L53.31,100.79"/></g><g><path style="fill:#000000" d="M54.25,101.20L52.43,100.38L54.16,98.97z"/></g><g><path style="fill:#ffffff" d="M28.57,111.64L47.04,111.64L47.04,106.56L28.57,106.56z"/><path style="stroke:#000000;stroke-width:0.281;stroke-opacity:0.98" d="M28.57,111.64L47.04,111.64L47.04,106.56L28.57,106.56z"/><text xml:space="preserve" fill="#000000" stroke-width="0" x="29.21" y="110.21" font-size="2.79" opacity="1.00" font-family="Microsoft Sans Serif">8123000217</text></g></g><g id="PMI5.0"><g><path style="stroke:#000000;stroke-width:0.281" d="M88.98,57.81L85.81,57.81L78.68,64.17"/></g><g><path style="fill:#000000" d="M78.02,63.43L79.36,64.92L77.20,65.51z"/></g><g><path style="fill:#ffffff" d="M88.36,60.36L106.82,60.36L106.82,55.28L88.36,55.28z"/><path style="stroke:#000000;stroke-width:0.281;stroke-opacity:0.98" d="M88.36,60.36L106.82,60.36L106.82,55.28L88.36,55.28z"/><text xml:space="preserve" fill="#000000" stroke-width="0" x="88.99" y="58.93" font-size="2.79" opacity="1.00" font-family="Microsoft Sans Serif">3701049308</text></g></g><g id="PMI3.0"><g><path style="stroke:#000000;stroke-width:0.281" d="M49.23,116.23L52.40,116.23L61.84,94.22"/></g><g><path style="fill:#000000" d="M62.79,94.62L60.96,93.83L62.66,92.38z"/></g><g><path style="fill:#ffffff" d="M34.60,118.77L49.90,118.77L49.90,113.69L34.60,113.69z"/><path style="stroke:#000000;stroke-width:0.281;stroke-opacity:0.98" d="M34.60,118.77L49.90,118.77L49.90,113.69L34.60,113.69z"/><text xml:space="preserve" fill="#000000" stroke-width="0" x="35.24" y="117.34" font-size="3.04" opacity="1.00" font-family="Microsoft Sans Serif">100159R0</text></g></g><g id="PMI17.0"><g><path style="stroke:#000000;stroke-width:0.281" d="M172.55,106.91L175.73,106.91L179.11,97.29"/></g><g><path style="fill:#000000" d="M180.04,97.62L178.16,96.96L179.76,95.40z"/></g><g><path style="fill:#ffffff" d="M154.72,109.45L173.18,109.45L173.18,104.37L154.72,104.37z"/><path style="stroke:#000000;stroke-width:0.281;stroke-opacity:0.98" d="M154.72,109.45L173.18,109.45L173.18,104.37L154.72,104.37z"/><text xml:space="preserve" fill="#000000" stroke-width="0" x="155.36" y="108.02" font-size="2.79" opacity="1.00" font-family="Microsoft Sans Serif">3701076409</text></g></g><g id="PMI16.0"><g><path style="stroke:#000000;stroke-width:0.281" d="M211.58,63.02L208.41,63.02L205.02,66.53"/></g><g><path style="fill:#000000" d="M204.29,65.84L205.73,67.23L203.62,67.98z"/></g><g><path style="fill:#ffffff" d="M210.94,65.57L225.89,65.57L225.89,60.49L210.94,60.49z"/><path style="stroke:#000000;stroke-width:0.281;stroke-opacity:0.98" d="M210.94,65.57L225.89,65.57L225.89,60.49L210.94,60.49z"/><text xml:space="preserve" fill="#000000" stroke-width="0" x="211.57" y="64.14" font-size="3.04" opacity="1.00" font-family="Microsoft Sans Serif">100159Z0</text></g></g><g id="PMI4.0"><g><path style="stroke:#000000;stroke-width:0.281" d="M33.56,100.88L38.20,100.75"/></g><g><path style="fill:#000000" d="M38.26,101.75L38.20,99.75L40.23,100.69z"/></g><g><path style="fill:#ffffff" d="M15.13,103.69L33.59,103.69L33.59,98.61L15.13,98.61z"/><path style="stroke:#000000;stroke-width:0.281;stroke-opacity:0.98" d="M15.13,103.69L33.59,103.69L33.59,98.61L15.13,98.61z"/><text xml:space="preserve" fill="#000000" stroke-width="0" x="15.77" y="102.26" font-size="2.79" opacity="1.00" font-family="Microsoft Sans Serif">3322000002</text></g></g><g id="PMI1.0"><g><path style="stroke:#000000;stroke-width:0.281" d="M74.04,111.29L77.21,111.29L78.75,106.63"/></g><g><path style="fill:#000000" d="M79.72,106.94L77.82,106.31L79.39,104.73z"/></g><g><path style="fill:#ffffff" d="M59.56,113.83L74.69,113.83L74.69,108.75L59.56,108.75z"/><path style="stroke:#000000;stroke-width:0.281;stroke-opacity:0.98" d="M59.56,113.83L74.69,113.83L74.69,108.75L59.56,108.75z"/><text xml:space="preserve" fill="#000000" stroke-width="0" x="60.20" y="112.40" font-size="3.04" opacity="1.00" font-family="Microsoft Sans Serif">100159S0</text></g></g><g id="PMI2.0"><g><path style="stroke:#000000;stroke-width:0.281" d="M115.04,73.72L111.86,73.72L103.08,78.53"/></g><g><path style="fill:#000000" d="M102.60,77.66L103.57,79.41L101.33,79.50z"/></g><g><path style="fill:#ffffff" d="M114.41,76.26L132.87,76.26L132.87,71.18L114.41,71.18z"/><path style="stroke:#000000;stroke-width:0.281;stroke-opacity:0.98" d="M114.41,76.26L132.87,76.26L132.87,71.18L114.41,71.18z"/><text xml:space="preserve" fill="#000000" stroke-width="0" x="115.04" y="74.83" font-size="2.79" opacity="1.00" font-family="Microsoft Sans Serif">3701076405</text></g></g><g id="PMI27.0"><g><path style="stroke:#000000;stroke-width:0.281" d="M210.96,134.06L214.13,134.06L217.53,124.17"/></g><g><path style="fill:#000000" d="M218.45,124.49L216.56,123.84L218.16,122.28z"/></g><g><path style="fill:#ffffff" d="M193.11,136.59L211.57,136.59L211.57,131.52L193.11,131.52z"/><path style="stroke:#000000;stroke-width:0.281;stroke-opacity:0.98" d="M193.11,136.59L211.57,136.59L211.57,131.52L193.11,131.52z"/><text xml:space="preserve" fill="#000000" stroke-width="0" x="193.75" y="135.17" font-size="2.79" opacity="1.00" font-family="Microsoft Sans Serif">3701076410</text></g></g><g id="PMI26.0"><g><path style="stroke:#000000;stroke-width:0.281" d="M254.37,87.43L251.19,87.43L247.33,91.02"/></g><g><path style="fill:#000000" d="M246.64,90.29L248.00,91.76L245.85,92.38z"/></g><g><path style="fill:#ffffff" d="M253.72,89.97L268.85,89.97L268.85,84.90L253.72,84.90z"/><path style="stroke:#000000;stroke-width:0.281;stroke-opacity:0.98" d="M253.72,89.97L268.85,89.97L268.85,84.90L253.72,84.90z"/><text xml:space="preserve" fill="#000000" stroke-width="0" x="254.36" y="88.55" font-size="3.04" opacity="1.00" font-family="Microsoft Sans Serif">10015A10</text></g></g><g id="PMI10.0"><g><path style="stroke:#000000;stroke-width:0.281" d="M107.95,144.21L111.12,144.21L114.04,139.11"/></g><g><path style="fill:#000000" d="M114.92,139.59L113.18,138.60L115.04,137.36z"/></g><g><path style="fill:#ffffff" d="M93.29,146.74L108.59,146.74L108.59,141.66L93.29,141.66z"/><path style="stroke:#000000;stroke-width:0.281;stroke-opacity:0.98" d="M93.29,146.74L108.59,146.74L108.59,141.66L93.29,141.66z"/><text xml:space="preserve" fill="#000000" stroke-width="0" x="93.93" y="145.31" font-size="3.04" opacity="1.00" font-family="Microsoft Sans Serif">100159U0</text></g></g><g id="PMI11.0"><g><path style="stroke:#000000;stroke-width:0.281" d="M150.97,99.77L147.79,99.77L139.86,106.70"/></g><g><path style="fill:#000000" d="M139.20,105.95L140.52,107.45L138.35,108.02z"/></g><g><path style="fill:#ffffff" d="M150.33,102.31L168.79,102.31L168.79,97.24L150.33,97.24z"/><path style="stroke:#000000;stroke-width:0.281;stroke-opacity:0.98" d="M150.33,102.31L168.79,102.31L168.79,97.24L150.33,97.24z"/><text xml:space="preserve" fill="#000000" stroke-width="0" x="150.97" y="100.89" font-size="2.79" opacity="1.00" font-family="Microsoft Sans Serif">3701076406</text></g></g><g id="PMI22.0"><g><path style="stroke:#000000;stroke-width:0.281" d="M247.70,137.20L243.20,137.12"/></g><g><path style="fill:#000000" d="M243.21,136.12L243.18,138.12L241.19,137.09z"/></g><g><path style="fill:#ffffff" d="M247.69,139.89L266.15,139.89L266.15,134.81L247.69,134.81z"/><path style="stroke:#000000;stroke-width:0.281;stroke-opacity:0.98" d="M247.69,139.89L266.15,139.89L266.15,134.81L247.69,134.81z"/><text xml:space="preserve" fill="#000000" stroke-width="0" x="248.32" y="138.46" font-size="2.79" opacity="1.00" font-family="Microsoft Sans Serif">3701076204</text></g></g><g id="PMI14.0"><g><path style="stroke:#000000;stroke-width:0.281" d="M213.10,177.32L213.19,173.65"/></g><g><path style="fill:#000000" d="M214.18,173.66L212.18,173.62L213.22,171.64z"/></g><g><path style="fill:#ffffff" d="M203.81,182.39L222.27,182.39L222.27,177.31L203.81,177.31z"/><path style="stroke:#000000;stroke-width:0.281;stroke-opacity:0.98" d="M203.81,182.39L222.27,182.39L222.27,177.31L203.81,177.31z"/><text xml:space="preserve" fill="#000000" stroke-width="0" x="204.44" y="180.96" font-size="2.79" opacity="1.00" font-family="Microsoft Sans Serif">3701076203</text></g></g><g id="PMI23.0"><g><path style="stroke:#000000;stroke-width:0.281" d="M260.13,168.34L256.95,168.34L254.66,165.96"/></g><g><path style="fill:#000000" d="M255.37,165.26L253.93,166.64L253.26,164.51z"/></g><g><path style="fill:#ffffff" d="M259.48,170.87L274.78,170.87L274.78,165.80L259.48,165.80z"/><path style="stroke:#000000;stroke-width:0.281;stroke-opacity:0.98" d="M259.48,170.87L274.78,170.87L274.78,165.80L259.48,165.80z"/><text xml:space="preserve" fill="#000000" stroke-width="0" x="260.11" y="169.45" font-size="3.04" opacity="1.00" font-family="Microsoft Sans Serif">10015DL0</text></g></g><g id="PMI8.0"><g><path style="stroke:#000000;stroke-width:0.281" d="M142.89,178.77L146.06,178.77L148.62,174.22"/></g><g><path style="fill:#000000" d="M149.49,174.70L147.75,173.72L149.60,172.46z"/></g><g><path style="fill:#ffffff" d="M128.39,181.30L143.52,181.30L143.52,176.22L128.39,176.22z"/><path style="stroke:#000000;stroke-width:0.281;stroke-opacity:0.98" d="M128.39,181.30L143.52,181.30L143.52,176.22L128.39,176.22z"/><text xml:space="preserve" fill="#000000" stroke-width="0" x="129.03" y="179.87" font-size="3.04" opacity="1.00" font-family="Microsoft Sans Serif">100159V0</text></g></g><g id="PMI15.0"><g><path style="stroke:#000000;stroke-width:0.281" d="M241.48,186.99L238.30,186.99L235.86,183.91"/></g><g><path style="fill:#000000" d="M236.64,183.28L235.07,184.52L234.61,182.34z"/></g><g><path style="fill:#ffffff" d="M240.83,189.52L256.48,189.52L256.48,184.44L240.83,184.44z"/><path style="stroke:#000000;stroke-width:0.281;stroke-opacity:0.98" d="M240.83,189.52L256.48,189.52L256.48,184.44L240.83,184.44z"/><text xml:space="preserve" fill="#000000" stroke-width="0" x="241.47" y="188.09" font-size="3.04" opacity="1.00" font-family="Microsoft Sans Serif">10015DK0</text></g></g><g id="PMI9.0"><g><path style="stroke:#000000;stroke-width:0.281" d="M191.84,127.20L188.66,127.20L181.14,138.71"/></g><g><path style="fill:#000000" d="M180.30,138.16L181.97,139.25L180.04,140.38z"/></g><g><path style="fill:#ffffff" d="M191.19,129.74L209.65,129.74L209.65,124.66L191.19,124.66z"/><path style="stroke:#000000;stroke-width:0.281;stroke-opacity:0.98" d="M191.19,129.74L209.65,129.74L209.65,124.66L191.19,124.66z"/><text xml:space="preserve" fill="#000000" stroke-width="0" x="191.83" y="128.31" font-size="2.79" opacity="1.00" font-family="Microsoft Sans Serif">3701076407</text></g></g><g/><g id="paperID" visibility="hidden" opacity="0.00" transform="scale(0.000100)"><path style="stroke:#000000;stroke-width:0.500;fill:#e6e6e6;fill-rule:evenodd" d="M-2000.00,-2000.00L2297.00,-2000.00L2297.00,2210.00L-2000.00,2210.00zM0.00,0.00L297.00,0.00L297.00,210.00L0.00,210.00z"/><path style="fill:#000000;fill-opacity:0.118" d="M3.00,210.00L297.00,210.00L297.00,3.00L300.00,3.00L300.00,213.00L3.00,213.00z"/></g><g id="hotspot.0" onmouseover="ShowHotSpot(evt,'0')" onmouseout="HideHotSpot(evt,'0')" onmousemove="ShowToolTip(evt,'0',&quot;3dp380526&quot;)" opacity="0"><path style="fill:#00ff00;fill-rule:evenodd" d="M91.23,96.63L93.19,98.51L93.98,100.18L93.15,117.02L92.06,116.91L79.71,105.93L79.76,107.12L78.72,106.95L77.95,106.49L78.90,105.38L73.15,100.16L71.77,99.08L70.64,96.91L70.39,93.06L70.39,81.91L70.65,80.24L71.49,80.14zM74.95,111.26L77.19,111.19L77.36,111.09L77.25,111.53L74.95,111.70L74.79,114.00L59.59,114.00L59.59,108.95L74.79,108.95z"/></g><g id="hotspot.1" onmouseover="ShowHotSpot(evt,'1')" onmouseout="HideHotSpot(evt,'1')" onmousemove="ShowToolTip(evt,'1',&quot;3dp380527&quot;)" opacity="0"><path style="fill:#00ff00;fill-rule:evenodd" d="M104.69,108.67L130.20,130.06L135.15,134.15L136.21,135.83L136.48,137.84L135.29,144.34L134.30,153.22L133.91,153.67L132.90,153.69L129.65,150.90L115.09,138.00L114.81,139.51L114.13,139.46L113.70,139.17L113.37,138.58L114.56,137.81L114.56,137.52L100.85,125.40L99.99,123.79L100.00,115.09L100.72,107.03L101.28,106.46L101.92,106.47zM108.68,144.17L111.32,144.11L111.28,144.39L108.68,144.60L108.52,146.91L93.32,146.91L93.32,141.86L108.52,141.86z"/></g><g id="hotspot.2" onmouseover="ShowHotSpot(evt,'2')" onmouseout="HideHotSpot(evt,'2')" onmousemove="ShowToolTip(evt,'2',&quot;prd315811&quot;)" opacity="0"><path style="fill:#00ff00;fill-rule:evenodd" d="M116.50,90.55L138.13,107.36L138.66,107.42L139.23,106.21L139.52,106.43L140.38,107.33L140.34,107.68L139.35,107.86L139.10,108.10L160.92,125.14L158.96,134.27L156.50,147.98L114.00,112.80L113.99,105.76L114.81,96.44L115.55,90.29L116.18,90.28zM147.61,99.92L150.20,99.74L150.36,97.44L168.85,97.44L168.85,102.48L150.36,102.48L150.20,100.18z"/></g><g id="hotspot.3" onmouseover="ShowHotSpot(evt,'3')" onmouseout="HideHotSpot(evt,'3')" onmousemove="ShowToolTip(evt,'3',&quot;3dp380534&quot;)" opacity="0"><path style="fill:#00ff00;fill-rule:evenodd" d="M136.10,28.71L136.10,23.67L151.30,23.67L151.30,28.71L144.06,28.88L144.08,32.54L144.68,32.72L144.42,33.35L144.33,34.17L146.63,35.47L148.30,36.54L149.37,38.21L149.91,41.78L149.93,49.84L149.55,50.28L148.25,50.30L142.79,47.26L138.38,46.18L137.85,33.00L137.85,31.69L138.38,31.61L139.49,31.91L142.53,33.30L143.03,33.28L142.97,32.75L143.60,32.53L143.62,28.88z"/></g><g id="hotspot.4" onmouseover="ShowHotSpot(evt,'4')" onmouseout="HideHotSpot(evt,'4')" onmousemove="ShowToolTip(evt,'4',&quot;prd315801&quot;)" opacity="0"><path style="fill:#00ff00;fill-rule:evenodd" d="M114.16,32.55L116.47,32.72L116.55,32.91L114.16,32.99L114.00,35.30L95.52,35.30L95.52,30.25L114.00,30.25zM116.83,33.73L116.55,32.91L116.74,32.99zM117.09,34.84L116.83,33.73L116.99,33.85zM117.37,35.65L117.09,34.84L117.26,34.95zM117.65,36.47L117.37,35.65L117.53,35.76zM117.93,37.29L117.65,36.47L117.81,36.59zM118.19,38.40L117.93,37.29L118.09,37.41zM118.47,39.22L118.19,38.40L118.35,38.51zM118.75,40.04L118.47,39.22L118.63,39.33zM119.02,40.86L118.75,40.04L118.91,40.15zM119.31,41.71L119.02,40.86L119.18,40.97zM120.27,42.03L120.21,43.79L125.24,46.71L126.91,48.33L127.71,50.27L128.52,56.04L128.43,65.67L127.73,65.63L124.17,62.88L123.84,63.24L123.34,63.19L122.49,62.35L121.95,62.07L121.69,60.95L118.68,58.48L117.55,57.14L117.27,56.60L116.18,45.07L115.79,42.33L117.30,42.31L118.39,42.90L118.93,42.88L118.58,42.33L119.18,42.14L119.31,41.71z"/></g><g id="hotspot.5" onmouseover="ShowHotSpot(evt,'5')" onmouseout="HideHotSpot(evt,'5')" onmousemove="ShowToolTip(evt,'5',&quot;3dp343396&quot;)" opacity="0"><path style="fill:#00ff00;fill-rule:evenodd" d="M227.25,142.51L226.43,147.72L223.96,160.34L222.87,164.46L221.09,165.97L218.08,168.44L213.44,172.06L213.50,172.58L214.11,173.68L213.47,173.96L213.44,177.35L222.33,177.51L222.33,182.56L203.84,182.56L203.84,177.51L213.00,177.35L212.98,173.97L212.35,173.76L212.48,172.87L211.89,173.21L210.24,174.04L207.96,174.51L206.95,174.53L206.41,174.23L206.41,172.67L208.59,156.22L209.17,154.60L211.07,152.93L226.45,140.89L226.90,140.45L227.24,140.47zM222.08,148.42L221.77,151.29L219.78,162.19L218.36,164.89L216.03,166.94L210.73,170.96L209.61,171.05L209.70,168.56L211.33,157.03L212.32,155.00L214.55,153.12L221.41,148.15L221.79,148.13z"/></g><g id="hotspot.6" onmouseover="ShowHotSpot(evt,'6')" onmouseout="HideHotSpot(evt,'6')" onmousemove="ShowToolTip(evt,'6',&quot;3dp380529&quot;)" opacity="0"><path style="fill:#00ff00;fill-rule:evenodd" d="M243.00,163.18L240.13,175.41L239.23,178.07L237.71,180.39L235.45,182.30L235.37,182.81L236.31,183.29L236.35,183.64L236.01,184.18L235.20,184.48L234.55,183.27L229.92,186.88L228.87,186.85L229.08,184.65L231.90,171.84L233.45,169.82L241.96,162.97L242.89,162.98zM240.70,186.95L240.86,184.64L256.61,184.64L256.61,189.69L240.86,189.69L240.70,187.39L238.10,187.17L238.18,186.86z"/></g><g id="hotspot.7" onmouseover="ShowHotSpot(evt,'7')" onmouseout="HideHotSpot(evt,'7')" onmousemove="ShowToolTip(evt,'7',&quot;3dp380532&quot;)" opacity="0"><path style="fill:#00ff00;fill-rule:evenodd" d="M203.11,67.32L203.84,67.31L204.36,66.16L205.58,67.38L204.40,67.83L204.46,68.07L217.65,76.06L220.97,78.22L222.05,79.88L221.77,85.47L220.96,92.89L220.57,93.34L219.56,93.35L208.09,86.17L186.95,72.75L186.10,71.14L185.83,57.78L186.30,57.38L186.66,57.38zM208.22,63.17L210.81,62.99L210.97,60.69L225.89,60.69L225.89,65.74L210.97,65.74L210.81,63.43z"/></g><g id="hotspot.8" onmouseover="ShowHotSpot(evt,'8')" onmouseout="HideHotSpot(evt,'8')" onmousemove="ShowToolTip(evt,'8',&quot;prd315815&quot;)" opacity="0"><path style="fill:#00ff00;fill-rule:evenodd" d="M205.34,95.22L205.31,103.29L204.51,113.72L203.36,113.04L203.31,112.82L204.17,112.29L204.76,104.39L204.78,96.06L204.19,95.00L160.60,66.41L160.05,66.79L159.78,66.52L159.79,65.34zM202.56,94.44L204.23,95.78L204.21,107.13L203.66,112.38L203.16,112.26L180.08,96.32L179.80,97.57L178.97,97.47L178.34,96.89L179.28,95.76L162.27,83.99L161.96,83.48L161.16,72.77L160.61,68.38L160.53,66.97L160.86,66.96zM177.33,103.04L177.26,102.43L177.43,102.29zM176.09,106.43L175.79,106.95L176.06,106.13zM173.40,106.87L175.79,106.95L175.70,107.14L173.40,107.31L173.24,109.61L154.75,109.61L154.75,104.57L173.24,104.57z"/></g><g id="hotspot.9" onmouseover="ShowHotSpot(evt,'9')" onmouseout="HideHotSpot(evt,'9')" onmousemove="ShowToolTip(evt,'9',&quot;3dp380523&quot;)" opacity="0"><path style="fill:#00ff00;fill-rule:evenodd" d="M60.69,29.81L60.69,24.76L75.88,24.76L75.88,29.81L68.37,29.97L68.17,32.79L68.01,32.91L67.93,29.97zM68.11,34.45L68.74,34.67L68.80,34.98L68.36,35.76L68.91,35.77L70.01,35.18L71.41,34.94L73.86,33.55L84.84,29.45L90.32,27.78L91.24,27.78L91.28,28.14L87.40,33.37L86.02,34.19L78.80,36.29L68.65,40.13L62.98,42.69L54.21,47.08L47.34,51.47L47.35,50.96L49.85,47.66L51.49,45.73L53.65,43.78L60.79,39.67L67.65,36.36L67.37,35.47L67.03,34.64L67.63,34.46L68.01,32.91z"/></g><g id="hotspot.10" onmouseover="ShowHotSpot(evt,'10')" onmouseout="HideHotSpot(evt,'10')" onmousemove="ShowToolTip(evt,'10',&quot;3dp553513&quot;)" opacity="0"><path style="fill:#00ff00;fill-rule:evenodd" d="M104.03,43.44L110.53,41.13L111.26,41.21L104.85,47.80L98.01,49.74L88.67,53.30L79.71,57.50L71.13,62.35L66.97,65.37L66.45,65.37L67.53,63.97L70.57,60.97L73.10,58.89L73.09,58.51L73.98,57.98L74.65,57.96L75.58,57.25L75.55,56.86L77.00,56.07L77.75,56.07L78.02,55.76L77.73,55.48L78.37,55.25L79.08,55.25L79.69,54.78L79.67,54.38L80.29,54.15L80.98,54.15L81.86,53.57L81.56,53.29L82.76,52.78L83.46,52.78L88.28,50.20L91.46,48.72L91.46,48.36L93.06,47.51L94.15,47.57L95.04,46.96L95.03,46.71L96.08,46.14L97.21,46.20L97.77,45.39L99.13,45.38L99.69,44.57L101.01,44.55L102.15,44.06L102.16,43.70L102.64,43.39zM78.51,43.52L78.51,38.47L97.00,38.47L97.00,43.52L87.84,43.69L87.75,44.70L87.39,43.69zM88.14,48.17L88.73,48.35L88.18,49.54L88.28,50.20L87.67,50.00L87.08,48.90L87.02,48.38L87.65,48.16L87.75,44.70L87.91,44.82z"/></g><g id="hotspot.11" onmouseover="ShowHotSpot(evt,'11')" onmouseout="HideHotSpot(evt,'11')" onmousemove="ShowToolTip(evt,'11',&quot;prd315813&quot;)" opacity="0"><path style="fill:#00ff00;fill-rule:evenodd" d="M99.18,77.15L101.11,78.80L101.90,78.90L102.63,77.97L103.54,78.54L103.28,78.78L103.31,79.42L102.38,79.61L115.63,90.00L114.18,101.84L113.74,112.34L112.64,111.69L87.41,90.57L86.56,89.23L86.28,88.41L86.29,73.40L86.55,69.54L87.29,68.63L88.23,68.63zM111.68,73.86L114.28,73.69L114.44,71.38L132.92,71.38L132.92,76.43L114.44,76.43L114.28,74.13z"/></g><g id="hotspot.12" onmouseover="ShowHotSpot(evt,'12')" onmouseout="HideHotSpot(evt,'12')" onmousemove="ShowToolTip(evt,'12',&quot;3dp380535&quot;)" opacity="0"><path style="fill:#00ff00;fill-rule:evenodd" d="M125.68,24.05L127.98,24.21L128.08,24.41L125.68,24.49L125.52,26.79L109.50,26.79L109.50,21.75L125.52,21.75zM128.27,25.14L128.08,24.41L128.28,24.52zM128.89,26.60L128.69,25.87L128.79,25.85zM129.10,27.33L128.89,26.60L129.07,26.75zM129.71,28.80L129.51,28.07L129.62,28.05zM129.92,29.52L129.71,28.80L129.89,28.94zM130.54,30.99L130.33,30.26L130.44,30.24zM130.74,31.72L130.54,30.99L130.71,31.14zM131.36,33.19L131.15,32.45L131.26,32.43zM132.35,33.84L132.56,34.76L133.07,34.66L134.49,33.50L134.83,33.53L135.38,43.15L135.29,46.20L134.59,46.16L131.01,43.96L130.73,43.69L130.44,42.61L130.07,38.23L130.59,36.80L131.83,35.44L130.90,34.35L131.28,33.93L131.36,33.19z"/></g><g id="hotspot.13" onmouseover="ShowHotSpot(evt,'13')" onmouseout="HideHotSpot(evt,'13')" onmousemove="ShowToolTip(evt,'13',&quot;3dp553515&quot;)" opacity="0"><path style="fill:#00ff00;fill-rule:evenodd" d="M114.61,42.78L114.99,42.28L115.63,42.30L115.73,43.32L115.37,42.64zM114.44,43.17L115.10,43.18L115.37,43.97L116.18,50.83L116.20,55.31L114.27,54.09L114.27,55.84L113.27,56.19L113.15,55.77L112.50,55.48L113.73,53.95L112.05,52.22L111.49,46.80L112.09,45.72L113.72,44.08L113.42,43.55L114.17,42.86L114.61,42.78zM116.00,45.25L115.84,45.13L115.73,43.32L115.88,43.45zM116.28,47.44L116.12,47.33L116.00,45.25L116.16,45.37zM116.55,50.19L116.39,50.07L116.28,47.44L116.44,47.56zM116.83,54.30L116.67,54.18L116.55,50.19L116.71,50.30zM117.01,56.15L116.83,54.30L116.98,54.42zM110.99,64.37L110.80,64.45L111.06,63.34zM108.41,64.36L110.80,64.45L110.71,64.64L108.41,64.80L108.24,67.11L89.76,67.11L89.76,62.06L108.24,62.06z"/></g><g id="hotspot.14" onmouseover="ShowHotSpot(evt,'14')" onmouseout="HideHotSpot(evt,'14')" onmousemove="ShowToolTip(evt,'14',&quot;3dp343402&quot;)" opacity="0"><path style="fill:#00ff00;fill-rule:evenodd" d="M243.35,137.01L247.56,137.04L247.72,135.01L266.20,135.01L266.20,140.05L247.72,140.05L247.56,137.47L243.35,137.50L243.13,138.13L242.62,138.07L242.06,137.72L241.51,137.82L239.52,145.46L237.94,148.54L234.38,153.75L228.62,159.51L225.88,161.98L223.84,163.83L223.32,163.92L226.43,148.54L227.81,139.77L243.07,127.04L243.15,129.35L241.76,136.50L241.77,137.04L243.16,136.42zM240.43,132.50L240.41,134.01L239.32,139.49L237.32,147.09L236.30,149.09L231.64,153.75L229.89,155.31L228.88,155.32L231.83,140.23L233.30,138.14L237.83,134.17L240.18,132.25z"/></g><g id="hotspot.15" onmouseover="ShowHotSpot(evt,'15')" onmouseout="HideHotSpot(evt,'15')" onmousemove="ShowToolTip(evt,'15',&quot;3dp380530&quot;)" opacity="0"><path style="fill:#00ff00;fill-rule:evenodd" d="M261.01,145.94L260.70,147.99L257.34,159.71L255.76,162.80L254.01,164.90L255.22,165.45L254.29,166.57L253.86,166.58L253.55,165.71L253.23,165.68L249.09,169.85L248.28,169.96L248.36,168.55L251.93,154.85L253.46,152.54L259.80,146.27L260.75,145.68zM259.35,168.30L259.51,166.00L274.71,166.00L274.71,171.04L259.51,171.04L259.35,168.74L256.75,168.52L256.83,168.21z"/></g><g id="hotspot.16" onmouseover="ShowHotSpot(evt,'16')" onmouseout="HideHotSpot(evt,'16')" onmousemove="ShowToolTip(evt,'16',&quot;3dp380533&quot;)" opacity="0"><path style="fill:#00ff00;fill-rule:evenodd" d="M165.28,46.25L165.72,44.83L166.65,44.83L166.93,45.97L166.01,46.43L166.07,46.69L173.22,51.11L175.72,52.72L177.08,54.38L177.34,56.86L177.63,66.56L177.24,67.01L176.23,67.03L155.66,53.85L154.87,53.00L154.56,52.22L153.36,39.82L153.65,39.53L154.30,39.55zM169.08,41.86L168.99,41.54L171.59,41.33L171.75,39.02L186.95,39.02L186.95,44.07L171.75,44.07L171.59,41.77z"/></g><g id="hotspot.17" onmouseover="ShowHotSpot(evt,'17')" onmouseout="HideHotSpot(evt,'17')" onmousemove="ShowToolTip(evt,'17',&quot;prd315807&quot;)" opacity="0"><path style="fill:#00ff00;fill-rule:evenodd" d="M135.10,49.19L136.30,50.18L135.14,49.70L131.29,47.25L130.72,47.64L130.60,47.00L131.83,46.98zM157.87,65.09L158.71,66.17L160.06,77.15L160.08,82.46L144.16,71.64L143.88,73.15L143.36,73.08L143.05,73.37L142.48,72.33L143.67,71.48L143.62,71.15L134.81,65.11L133.71,63.74L131.81,51.93L131.27,49.18L131.18,47.79L131.52,47.76zM137.12,50.74L136.48,50.55L136.30,50.18L136.78,50.25zM144.19,55.18L145.07,55.94L143.92,55.46L137.32,51.08L137.12,50.74L137.58,50.82zM152.14,60.39L153.02,61.16L151.87,60.67L145.27,56.29L145.07,55.94L145.54,56.03zM158.97,64.81L159.53,65.62L160.61,73.86L161.18,83.56L160.61,83.51L159.98,82.92L160.64,82.48L160.34,75.51L159.25,66.45L158.73,65.32L155.39,62.90L153.23,61.50L153.02,61.16L153.49,61.24zM136.38,80.82L138.70,80.99L136.38,81.26L136.22,83.56L117.73,83.56L117.73,78.51L136.22,78.51z"/></g><g id="hotspot.18" onmouseover="ShowHotSpot(evt,'18')" onmouseout="HideHotSpot(evt,'18')" onmousemove="ShowToolTip(evt,'18',&quot;3dp380531&quot;)" opacity="0"><path style="fill:#00ff00;fill-rule:evenodd" d="M233.01,84.56L245.91,92.32L246.74,90.58L247.85,91.82L246.36,92.51L258.51,99.92L260.45,101.54L260.43,103.29L258.16,110.62L257.05,112.25L254.95,112.26L249.72,111.18L246.99,110.07L230.56,99.63L229.98,98.56L229.99,96.71L231.37,84.65L232.21,84.30zM251.00,87.58L253.59,87.40L253.75,85.10L268.95,85.09L268.95,90.14L253.75,90.14L253.59,87.84z"/></g><g id="hotspot.19" onmouseover="ShowHotSpot(evt,'19')" onmouseout="HideHotSpot(evt,'19')" onmousemove="ShowToolTip(evt,'19',&quot;prd315818&quot;)" opacity="0"><path style="fill:#00ff00;fill-rule:evenodd" d="M238.23,116.64L239.34,117.72L240.43,119.37L240.41,121.39L239.32,126.33L237.96,130.18L237.02,131.16L234.66,131.18L233.37,130.82L236.80,130.67L237.12,130.44L237.23,130.00L238.22,127.97L239.59,122.49L239.88,119.37L238.80,117.71L206.69,96.60L205.77,96.61L205.59,106.31L205.01,114.04L204.70,114.04L205.31,104.39L205.51,95.50L205.84,95.48zM236.57,116.65L238.77,118.29L239.57,119.91L238.49,125.50L237.38,129.06L237.23,130.00L236.50,130.37L233.82,130.36L227.24,128.44L223.44,126.21L218.71,122.92L218.43,122.91L218.20,124.41L217.49,124.52L216.72,123.76L217.91,122.40L205.88,114.16L205.57,113.65L205.59,110.97L205.86,107.41L206.05,96.88L206.39,96.85zM217.20,125.33L217.31,124.59L217.49,124.52zM216.82,126.90L216.75,126.29L216.92,126.15zM232.28,130.54L231.07,130.38L230.36,129.99L231.37,130.07zM214.48,133.58L214.18,134.10L214.45,133.28zM211.79,134.02L214.18,134.10L214.09,134.29L211.79,134.46L211.63,136.76L193.14,136.76L193.14,131.72L211.63,131.72z"/></g><g id="hotspot.20" onmouseover="ShowHotSpot(evt,'20')" onmouseout="HideHotSpot(evt,'20')" onmousemove="ShowToolTip(evt,'20',&quot;3dp380524&quot;)" opacity="0"><path style="fill:#00ff00;fill-rule:evenodd" d="M47.93,78.89L48.36,76.60L52.30,72.80L52.59,72.77L52.58,87.94L49.28,85.09L48.71,84.02L48.44,82.92L48.20,79.90L47.53,80.20L47.01,80.26L46.79,79.63L43.14,79.61L42.97,82.19L27.50,82.19L27.50,77.14L42.97,77.14L43.14,79.17L46.80,79.15L47.08,78.50z"/></g><g id="hotspot.21" onmouseover="ShowHotSpot(evt,'21')" onmouseout="HideHotSpot(evt,'21')" onmousemove="ShowToolTip(evt,'21',&quot;3dp553514&quot;)" opacity="0"><path style="fill:#00ff00;fill-rule:evenodd" d="M72.08,63.42L71.95,64.26L71.48,73.95L71.47,78.92L70.97,78.81L67.66,76.04L66.81,74.15L66.56,70.83L65.07,70.58L65.92,68.93L66.56,69.58L66.80,67.35L69.48,64.54L71.40,63.13L71.78,63.12zM57.67,66.83L60.26,67.01L57.67,67.27L57.51,69.58L39.02,69.58L39.02,64.53L57.51,64.53z"/></g><g id="hotspot.22" onmouseover="ShowHotSpot(evt,'22')" onmouseout="HideHotSpot(evt,'22')" onmousemove="ShowToolTip(evt,'22',&quot;3dp380525&quot;)" opacity="0"><path style="fill:#00ff00;fill-rule:evenodd" d="M57.23,71.94L62.71,76.06L64.91,78.24L65.45,79.90L65.37,94.45L64.36,94.43L62.98,93.30L62.70,94.55L61.87,94.46L61.23,93.86L62.20,92.87L62.21,92.50L58.59,89.77L55.59,88.38L55.01,87.59L54.75,84.01L54.75,75.32L55.02,71.47L56.14,71.38zM49.99,116.20L52.50,116.13L52.68,116.02L52.57,116.47L49.99,116.63L49.83,118.94L34.64,118.94L34.64,113.89L49.83,113.89z"/></g><g id="hotspot.23" onmouseover="ShowHotSpot(evt,'23')" onmouseout="HideHotSpot(evt,'23')" onmousemove="ShowToolTip(evt,'23',&quot;3dp553516&quot;)" opacity="0"><path style="fill:#00ff00;fill-rule:evenodd" d="M41.62,101.54L44.62,104.86L44.09,104.86L40.23,100.98L39.86,100.98L39.01,101.55L38.25,101.64L38.00,101.31L33.81,101.28L33.65,103.86L15.16,103.86L15.16,98.81L33.65,98.81L33.81,100.84L38.03,100.83L38.30,99.89L39.41,100.49L39.96,100.47L37.48,97.99L37.48,97.15z"/></g><g id="hotspot.24" onmouseover="ShowHotSpot(evt,'24')" onmouseout="HideHotSpot(evt,'24')" onmousemove="ShowToolTip(evt,'24',&quot;3dp553517&quot;)" opacity="0"><path style="fill:#00ff00;fill-rule:evenodd" d="M85.63,57.96L88.22,57.78L88.39,55.48L106.87,55.48L106.87,60.53L88.39,60.53L88.22,58.22zM74.23,63.17L76.72,64.80L77.50,64.92L78.08,63.71L78.36,63.92L79.22,64.83L79.18,65.17L78.22,65.37L78.32,65.89L81.95,68.61L83.01,70.57L82.72,89.34L82.21,89.24L72.60,80.97L71.74,79.36L71.76,70.11L72.29,63.51L72.76,62.85z"/></g><g id="hotspot.25" onmouseover="ShowHotSpot(evt,'25')" onmouseout="HideHotSpot(evt,'25')" onmousemove="ShowToolTip(evt,'25',&quot;3dp553518&quot;)" opacity="0"><path style="fill:#00ff00;fill-rule:evenodd" d="M56.45,100.98L56.71,101.64L55.33,100.44L54.49,99.61L54.23,101.37L52.48,100.47L53.94,99.21L49.81,94.95L49.81,94.42zM47.25,109.07L49.57,109.24L47.25,109.50L47.09,111.81L28.60,111.81L28.60,106.76L47.09,106.76z"/></g><g id="hotspot.26" onmouseover="ShowHotSpot(evt,'26')" onmouseout="HideHotSpot(evt,'26')" onmousemove="ShowToolTip(evt,'26',&quot;3dp380528&quot;)" opacity="0"><path style="fill:#00ff00;fill-rule:evenodd" d="M146.92,148.70L165.02,164.06L171.62,169.81L172.13,170.94L172.14,172.14L168.29,182.83L167.41,184.13L165.80,184.12L160.89,182.19L157.34,180.24L149.64,173.38L149.36,174.62L148.84,174.55L148.53,174.83L148.14,173.67L149.12,172.99L148.27,172.04L140.88,165.44L140.04,164.09L139.75,163.28L139.77,161.98L141.33,151.20L142.40,146.52L142.67,146.24L143.90,146.25zM143.78,178.72L146.10,178.90L143.78,179.16L143.62,181.46L128.42,181.46L128.42,176.42L143.62,176.42z"/></g><g id="hotspot.27" onmouseover="ShowHotSpot(evt,'27')" onmouseout="HideHotSpot(evt,'27')" onmousemove="ShowToolTip(evt,'27',&quot;prd315821&quot;)" opacity="0"><path style="fill:#00ff00;fill-rule:evenodd" d="M161.74,125.65L179.01,139.10L180.11,139.77L180.35,138.28L181.18,138.86L181.75,139.53L180.54,140.23L180.60,140.47L181.18,140.78L193.24,150.10L195.19,152.00L195.99,153.66L195.99,155.41L192.42,164.72L190.48,168.82L189.05,169.60L188.04,169.58L183.92,168.48L179.29,166.52L175.71,164.07L156.67,148.25L158.06,139.13L160.86,126.03L161.10,125.41L161.42,125.37zM188.55,127.69L188.46,127.38L191.06,127.17L191.23,124.86L209.71,124.86L209.71,129.91L191.23,129.91L191.06,127.60z"/></g></g></svg>
